<?xml version="1.0" encoding="UTF-8" standalone="no"?>
<!DOCTYPE svg PUBLIC "-//W3C//DTD SVG 1.1//EN"
"http://www.w3.org/Graphics/SVG/1.1/DTD/svg11.dtd">
<svg viewBox="0 0 909 1286" version="1.1" xmlns="http://www.w3.org/2000/svg" xmlns:xlink="http://www.w3.org/1999/xlink">
<defs>
<clipPath id="c0_10"><path d="M122.1,476.8V445.9h30.8v30.9Z"/></clipPath>
<clipPath id="c1_10"><path d="M122.1,655.1V624.2h30.8v30.9Z"/></clipPath>
<clipPath id="c2_10"><path d="M122.1,476.8v-31H153v31Z"/></clipPath>
<clipPath id="c3_10"><path d="M122.1,655.1v-31H153v31Z"/></clipPath>
<style type="text/css"><![CDATA[
.g0_10{
fill: #FFFFFF;
}
.g1_10{
}
.g2_10{
fill: none;
stroke: #000000;
stroke-width: 1.461;
stroke-linecap: butt;
stroke-linejoin: miter;
}
.g3_10{
fill: none;
stroke: #000000;
stroke-width: 0.73;
stroke-linecap: butt;
stroke-linejoin: miter;
}
.g4_10{
fill: none;
stroke: #000000;
stroke-width: 2.739;
stroke-linecap: butt;
stroke-linejoin: miter;
}
]]></style>
</defs>
<path d="M117.7,575.8V439.2H791.8V575.8Z" class="g0_10"/>
<path d="M117.7,575.8V439.2H791.8V575.8Z" class="g2_10"/>
<g clip-path="url(#c2_10)">
<path clip-path="url(#c0_10)" d="M141.2,469.5c-3.2,0,-6.1,-1.3,-8.4,-3.5c-2.2,-2.2,-3.4,-5.2,-3.4,-8.3c0,-3.1,1.2,-6.1,3.4,-8.3c2.3,-2.2,5.2,-3.5,8.4,-3.5c3.1,0,6.1,1.3,8.3,3.5c4.6,4.6,4.6,12,0,16.6c-2.2,2.2,-5.2,3.5,-8.3,3.5Z" class="g1_10"/>
<path d="M141.2,448c-2.6,0,-5.1,1,-6.9,2.8c-3.8,3.8,-3.8,10,0,13.8c1.8,1.8,4.3,2.8,6.9,2.8c2.6,0,5,-1,6.8,-2.8c1.9,-1.9,2.9,-4.3,2.9,-6.9c0,-2.6,-1,-5,-2.9,-6.9C146.2,449,143.8,448,141.2,448Z" class="g0_10"/>
<path d="M124.4,476.8l-2.3,-2.4l8.6,-8.6l2.4,2.4Z" class="g1_10"/>
</g>
<path d="M152.7,470.6h187" class="g3_10"/>
<path d="M137.6,477.3v89.1" class="g4_10"/>
<path d="M117.7,751.7V617.5H791.8V751.7Z" class="g0_10"/>
<path d="M117.7,751.7V617.5H791.8V751.7Z" class="g2_10"/>
<g clip-path="url(#c3_10)">
<path clip-path="url(#c1_10)" d="M141.2,647.7c-3.2,0,-6.1,-1.2,-8.4,-3.4c-2.2,-2.2,-3.4,-5.2,-3.4,-8.3c0,-3.2,1.2,-6.1,3.4,-8.3c2.3,-2.3,5.2,-3.5,8.4,-3.5c3.1,0,6.1,1.2,8.3,3.5c4.6,4.5,4.6,12,0,16.6c-2.2,2.2,-5.2,3.4,-8.3,3.4Z" class="g1_10"/>
<path d="M141.2,626.2c-2.6,0,-5.1,1.1,-6.9,2.9c-3.8,3.8,-3.8,10,0,13.8c1.8,1.8,4.3,2.8,6.9,2.8c2.6,0,5,-1,6.8,-2.8c1.9,-1.9,2.9,-4.3,2.9,-6.9c0,-2.6,-1,-5.1,-2.9,-6.9c-1.8,-1.8,-4.2,-2.9,-6.8,-2.9Z" class="g0_10"/>
<path d="M124.4,655.1l-2.3,-2.4l8.6,-8.6l2.4,2.4Z" class="g1_10"/>
</g>
<path d="M152.7,648.9h187" class="g3_10"/>
<path d="M137.6,655.5v86.7" class="g4_10"/>
</svg>