<?xml version="1.0" encoding="UTF-8" standalone="no"?>
<!DOCTYPE svg PUBLIC "-//W3C//DTD SVG 1.1//EN"
"http://www.w3.org/Graphics/SVG/1.1/DTD/svg11.dtd">
<svg viewBox="0 0 909 1286" version="1.1" xmlns="http://www.w3.org/2000/svg" xmlns:xlink="http://www.w3.org/1999/xlink">
<defs>
<clipPath id="c0_75"><path d="M119.5,288.6V255.1H446.9v33.5Z"/></clipPath>
<clipPath id="c1_75"><path d="M460.4,288.6V255.1H787.8v33.5Z"/></clipPath>
<clipPath id="c2_75"><path d="M119.5,735.2V701.7H789.9v33.5Z"/></clipPath>
<style type="text/css"><![CDATA[
.g0_75{
fill: none;
stroke: #000000;
stroke-width: 0.73;
stroke-linecap: butt;
stroke-linejoin: miter;
}
.g1_75{
fill: #7F7F7F;
fill-opacity: 0.01;
}
.g2_75{
fill: #7F7F7F;
fill-opacity: 0.02;
}
.g3_75{
fill: #7F7F7F;
fill-opacity: 0.04;
}
.g4_75{
fill: #7F7F7F;
fill-opacity: 0.07;
}
.g5_75{
fill: #7F7F7F;
fill-opacity: 0.11;
}
.g6_75{
fill: #FFFFFF;
}
.g7_75{
fill: #7F7F7F;
}
.g8_75{
fill: #00AEEF;
}
.g9_75{
fill: #CBCEFB;
}
.ga_75{
fill: #EC008C;
}
.gb_75{
fill: #FFFEF5;
}
.gc_75{
fill: none;
stroke: #D6C944;
stroke-width: 0.365;
stroke-linecap: butt;
stroke-linejoin: miter;
}
]]></style>
</defs>
<path d="M116.9,159.9H792.5" class="g0_75"/>
<path d="M122.2,257.8c107.4,0,214.7,0,322,0v437c-107.3,-9.4,-214.6,-9.4,-322,0Z" class="g1_75"/>
<path d="M122.9,258.4c106.9,0,213.8,0,320.7,0V694.1c-106.9,-9.3,-213.8,-9.3,-320.7,0Z" class="g2_75"/>
<path d="M123.5,259.1c106.5,0,213,0,319.5,0V693.5c-106.5,-9.3,-213,-9.3,-319.5,0Z" class="g3_75"/>
<path d="M124.1,259.7c106.1,0,212.2,0,318.3,0V692.9c-106.1,-9.4,-212.2,-9.4,-318.3,0Z" class="g4_75"/>
<path d="M124.7,260.3c105.7,0,211.4,0,317,0v432c-105.6,-9.4,-211.3,-9.4,-317,0Z" class="g5_75"/>
<path d="M125.4,260.9c105.2,0,210.5,0,315.7,0V691.6c-105.2,-9.3,-210.5,-9.3,-315.7,0Z" class="g5_75"/>
<path d="M126,261.6c104.8,0,209.7,0,314.5,0V691C335.7,681.7,230.8,681.7,126,691Z" class="g4_75"/>
<path d="M126.6,262.2c104.4,0,208.8,0,313.3,0V690.4C335.4,681,231,681,126.6,690.4Z" class="g3_75"/>
<path d="M127.2,262.8c104,0,208,0,312,0v427c-104,-9.4,-208,-9.4,-312,0Z" class="g2_75"/>
<path d="M127.9,263.4c103.5,0,207.1,0,310.7,0V689.1c-103.6,-9.3,-207.2,-9.3,-310.7,0Z" class="g1_75"/>
<path d="M116.9,684.5v-432H449.5v432Z" class="g6_75"/>
<path d="M119.5,681.9V291.2H446.9V681.9Z" class="g6_75"/>
<path d="M119.5,288.6V255.1H446.9v33.5Z" class="g7_75"/>
<g clip-path="url(#c0_75)">
<image x="119" y="254" width="329" height="34" xlink:href="shade/1.png"/>
</g>
<path d="M316.9,283.4h104V260.3h-104v23.1Z" class="g8_75"/>
<path d="M180.9,336.4H385.6M181.3,366V336.8" class="g0_75"/>
<path d="M181.6,366h62.1V336.8H181.6V366Z" class="g9_75"/>
<path d="M244,366V336.8" class="g0_75"/>
<path d="M244.4,366h69.8V336.8H244.4V366Z" class="g9_75"/>
<path d="M314.6,366V336.8" class="g0_75"/>
<path d="M315,366h69.8V336.8H315V366Z" class="g9_75"/>
<path d="M385.2,366V336.8M180.9,366.4H385.6M181.3,396V366.7M244,396V366.7M314.6,396V366.7M385.2,396V366.7M180.9,396.3H385.6M181.3,425.9V396.7M244,425.9V396.7m70.6,29.2V396.7m70.6,29.2V396.7M180.9,426.3H385.6M181.3,455.9V426.6M244,455.9V426.6m70.6,29.3V426.6m70.6,29.3V426.6M180.9,456.2H385.6M181.3,485.8V456.6M244,485.8V456.6m70.6,29.2V456.6m70.6,29.2V456.6M180.9,486.2H385.6M181.3,515.8V486.6M244,515.8V486.6m70.6,29.2V486.6m70.6,29.2V486.6M180.9,516.1H385.6M181.3,545.7V516.5M244,545.7V516.5m70.6,29.2V516.5m70.6,29.2V516.5M180.9,546.1H385.6M181.3,575.7V546.5M244,575.7V546.5m70.6,29.2V546.5m70.6,29.2V546.5M180.9,576.1H385.6M181.3,605.6V576.4M244,605.6V576.4m70.6,29.2V576.4m70.6,29.2V576.4M180.9,606H385.6M181.3,635.6V606.4M244,635.6V606.4m70.6,29.2V606.4m70.6,29.2V606.4M180.9,636H385.6M181.3,665.5V636.3M244,665.5V636.3m70.6,29.2V636.3m70.6,29.2V636.3M180.9,665.9H385.6" class="g0_75"/>
<path d="M463.1,257.8c107.3,0,214.6,0,322,0V549.2c-107.4,-9.4,-214.7,-9.4,-322,0Z" class="g1_75"/>
<path d="M463.7,258.4c106.9,0,213.8,0,320.7,0V548.6c-106.9,-9.4,-213.8,-9.4,-320.7,0Z" class="g2_75"/>
<path d="M464.3,259.1c106.5,0,213,0,319.5,0V547.9c-106.5,-9.3,-213,-9.3,-319.5,0Z" class="g3_75"/>
<path d="M464.9,259.7c106.1,0,212.2,0,318.3,0V547.3C677.1,538,571,538,464.9,547.3Z" class="g4_75"/>
<path d="M465.6,260.3c105.6,0,211.3,0,317,0V546.7c-105.7,-9.4,-211.4,-9.4,-317,0Z" class="g5_75"/>
<path d="M466.2,260.9c105.2,0,210.5,0,315.7,0V546.1c-105.2,-9.4,-210.5,-9.4,-315.7,0Z" class="g5_75"/>
<path d="M466.8,261.6c104.8,0,209.7,0,314.5,0V545.4c-104.8,-9.3,-209.7,-9.3,-314.5,0Z" class="g4_75"/>
<path d="M467.4,262.2c104.5,0,208.9,0,313.3,0V544.8c-104.4,-9.3,-208.8,-9.3,-313.3,0Z" class="g3_75"/>
<path d="M468.1,262.8c104,0,208,0,312,0V544.2c-104,-9.4,-208,-9.4,-312,0Z" class="g2_75"/>
<path d="M468.7,263.4c103.6,0,207.2,0,310.7,0V543.6c-103.5,-9.4,-207.1,-9.4,-310.7,0Z" class="g1_75"/>
<path d="M457.8,538.9V252.5H790.4V538.9Z" class="g6_75"/>
<path d="M460.4,536.3V291.2H787.8V536.3Z" class="g6_75"/>
<path d="M460.4,288.6V255.1H787.8v33.5Z" class="g7_75"/>
<g clip-path="url(#c1_75)">
<image x="460" y="254" width="329" height="34" xlink:href="shade/2.png"/>
</g>
<path d="M657.8,283.4h104V260.3h-104v23.1Z" class="g8_75"/>
<path d="M536.1,340.6H712M536.5,370.2V341" class="g0_75"/>
<path d="M536.9,370.2h62V341h-62v29.2Z" class="g9_75"/>
<path d="M599.2,370.2V341" class="g0_75"/>
<path d="M599.6,370.2h60.3V341H599.6v29.2Z" class="g9_75"/>
<path d="M660.2,370.2V341" class="g0_75"/>
<path d="M660.6,370.2h50.7V341H660.6v29.2Z" class="g9_75"/>
<path d="M711.6,370.2V341M536.1,370.6H712M536.5,400.2V370.9m62.7,29.3V370.9m61,29.3V370.9m51.4,29.3V370.9M536.1,400.5H712M536.5,430.1V400.9m62.7,29.2V400.9m61,29.2V400.9m51.4,29.2V400.9M536.1,430.5H712M536.5,460.1V430.8m62.7,29.3V430.8m61,29.3V430.8m51.4,29.3V430.8M536.1,460.4H712M536.5,490V460.8M599.2,490V460.8m61,29.2V460.8M711.6,490V460.8M536.1,490.4H712M536.5,520V490.8M599.2,520V490.8m61,29.2V490.8M711.6,520V490.8M536.1,520.3H712" class="g0_75"/>
<path d="M122.2,704.4c221.7,0,443.4,0,665,0V872.5c-221.6,-9.4,-443.3,-9.4,-665,0Z" class="g1_75"/>
<path d="M122.9,705c221.2,0,442.4,0,663.7,0V871.8c-221.3,-9.3,-442.5,-9.3,-663.7,0Z" class="g2_75"/>
<path d="M123.5,705.6c220.8,0,441.6,0,662.5,0V871.2c-220.9,-9.3,-441.7,-9.3,-662.5,0Z" class="g3_75"/>
<path d="M124.1,706.3c220.4,0,440.8,0,661.2,0V870.6c-220.4,-9.4,-440.8,-9.4,-661.2,0Z" class="g4_75"/>
<path d="M124.7,706.9c220,0,440,0,660,0V870c-220,-9.4,-440,-9.4,-660,0Z" class="g5_75"/>
<path d="M125.4,707.5c219.5,0,439.1,0,658.7,0V869.4C564.5,860,344.9,860,125.4,869.4Z" class="g5_75"/>
<path d="M126,708.1c219.1,0,438.3,0,657.5,0V868.7c-219.2,-9.3,-438.4,-9.3,-657.5,0Z" class="g4_75"/>
<path d="M126.6,708.7c218.8,0,437.5,0,656.3,0V868.1c-218.8,-9.3,-437.5,-9.3,-656.3,0Z" class="g3_75"/>
<path d="M127.2,709.4c218.4,0,436.7,0,655,0V867.5c-218.3,-9.4,-436.6,-9.4,-655,0Z" class="g2_75"/>
<path d="M127.9,710c217.9,0,435.8,0,653.7,0V866.9c-217.9,-9.4,-435.8,-9.4,-653.7,0Z" class="g1_75"/>
<path d="M116.9,862.2V699.1H792.5V862.2Z" class="g6_75"/>
<path d="M119.5,859.6V737.8H789.9V859.6Z" class="g6_75"/>
<path d="M119.5,735.2V701.7H789.9v33.5Z" class="g7_75"/>
<g clip-path="url(#c2_75)">
<image x="119" y="701" width="672" height="34" xlink:href="shade/3.png"/>
</g>
<path d="M675.7,730h88.2V706.9H675.7V730Z" class="ga_75"/>
<path d="M366.8,753.8H542.7M367.2,783.4V754.1" class="g0_75"/>
<path d="M367.5,783.4h62V754.1h-62v29.3Z" class="g9_75"/>
<path d="M429.9,783.4V754.1" class="g0_75"/>
<path d="M430.3,783.4h60.2V754.1H430.3v29.3Z" class="g9_75"/>
<path d="M490.9,783.4V754.1" class="g0_75"/>
<path d="M491.3,783.4h50.6V754.1H491.3v29.3Z" class="g9_75"/>
<path d="M542.3,783.4V754.1M366.8,783.7H542.7M367.2,813.3V784.1m62.7,29.2V784.1m61,29.2V784.1m51.4,29.2V784.1M366.8,813.7H542.7M367.2,843.3V814m62.7,29.3V814m61,29.3V814m51.4,29.3V814M366.8,843.6H542.7" class="g0_75"/>
<path d="M-2.9,1015.3V949.9H912.4v65.4Z" class="g6_75"/>
<path d="M-.3,1012.7V952.5H909.8v60.2Z" class="gb_75"/>
<path d="M-.3,1004.4H909.8M-.3,978.4H909.8M-.3,952.5H909.8M-.3,1012.7V952.5m25.9,60.2V952.5m26,60.2V952.5m26,60.2V952.5m26,60.2V952.5m26,60.2V952.5m25.9,60.2V952.5m26,60.2V952.5m26,60.2V952.5m26,60.2V952.5m26,60.2V952.5m26,60.2V952.5m25.9,60.2V952.5m26,60.2V952.5m26,60.2V952.5m26,60.2V952.5m26,60.2V952.5m26,60.2V952.5m26,60.2V952.5m25.9,60.2V952.5m26,60.2V952.5m26,60.2V952.5m26,60.2V952.5m26,60.2V952.5m26,60.2V952.5m25.9,60.2V952.5m26,60.2V952.5m26,60.2V952.5m26,60.2V952.5m26,60.2V952.5m26,60.2V952.5m25.9,60.2V952.5m26,60.2V952.5m26,60.2V952.5m26,60.2V952.5m26,60.2V952.5" class="gc_75"/>
</svg>