<?xml version="1.0" encoding="UTF-8" standalone="no"?>
<!DOCTYPE svg PUBLIC "-//W3C//DTD SVG 1.1//EN"
"http://www.w3.org/Graphics/SVG/1.1/DTD/svg11.dtd">
<svg viewBox="0 0 1286 909" version="1.1" xmlns="http://www.w3.org/2000/svg" xmlns:xlink="http://www.w3.org/1999/xlink">
<defs>
<style type="text/css"><![CDATA[
.g0_1180{
fill: none;
stroke: #000000;
stroke-width: 0.73;
stroke-linecap: butt;
stroke-linejoin: miter;
}
.g1_1180{
fill: #FDE8E9;
}
]]></style>
</defs>
<path d="M193,83.4h900.3M210,109.5H586.6M210,139.1V109.9m216.5,29.2V109.9m160.1,29.2V109.9M210,173.7V139.1m216.5,34.6V139.1" class="g0_1180"/>
<path d="M437.4,173.7h58.1V139.1H437.4v34.6Z" class="g1_1180"/>
<path d="M586.6,173.7V139.1M210,203V173.7M426.5,203V173.7M586.6,203V173.7M210,232.2V203m216.5,29.2V203m160.1,29.2V203M210,262.3V232.2m216.5,30.1V232.2" class="g0_1180"/>
<path d="M437.4,259.1h82.1V235.7H437.4v23.4Z" class="g1_1180"/>
<path d="M586.6,262.3V232.2M210,291.6V262.3m216.5,29.3V262.3m160.1,29.3V262.3M210,320.8V291.6m216.5,29.2V291.6m160.1,29.2V291.6M210,355.4V320.8m216.5,34.6V320.8" class="g0_1180"/>
<path d="M437.4,355.4H546.1V320.8H437.4v34.6Z" class="g1_1180"/>
<path d="M586.6,355.4V320.8M210,384.6V355.4m216.5,29.2V355.4m160.1,29.2V355.4M210,413.9V384.6m216.5,29.3V384.6m160.1,29.3V384.6M210,446V413.9M426.5,446V413.9" class="g0_1180"/>
<path d="M437.4,446h64.8V417.4H437.4V446Z" class="g1_1180"/>
<path d="M586.6,446V413.9M210,475.2V446m216.5,29.2V446m160.1,29.2V446M210,504.5V475.2m216.5,29.3V475.2m160.1,29.3V475.2M210,537.1V504.5m216.5,32.6V504.5" class="g0_1180"/>
<path d="M437.4,533.8H560.6V504.4H437.4v29.4Z" class="g1_1180"/>
<path d="M586.6,537.1V504.5M210,566.3V537.1m216.5,29.2V537.1m160.1,29.2V537.1M210,595.5V566.3m216.5,29.2V566.3m160.1,29.2V566.3M210,628.2V595.5m216.5,32.7V595.5" class="g0_1180"/>
<path d="M437.4,624.9H575.6V595.5H437.4v29.4Z" class="g1_1180"/>
<path d="M586.6,628.2V595.5M210,657.4V628.2m216.5,29.2V628.2m160.1,29.2V628.2M210,657.8H586.6M608.5,153.6H916.9M608.5,183.2V153.9m167.9,29.3V153.9m140.5,29.3V153.9M608.5,215.8V183.2m167.9,32.6V183.2" class="g0_1180"/>
<path d="M787.3,212.5H905.9V183.2H787.3v29.3Z" class="g1_1180"/>
<path d="M916.9,215.8V183.2M608.5,245V215.8M776.4,245V215.8M916.9,245V215.8M608.5,274.3V245m167.9,29.3V245m140.5,29.3V245M608.5,306.9V274.3m167.9,32.6V274.3" class="g0_1180"/>
<path d="M787.3,303.6h92.2V274.3H787.3v29.3Z" class="g1_1180"/>
<path d="M916.9,306.9V274.3M608.5,336.1V306.9m167.9,29.2V306.9m140.5,29.2V306.9M608.5,365.4V336.1m167.9,29.3V336.1m140.5,29.3V336.1M608.5,400V365.4M776.4,400V365.4" class="g0_1180"/>
<path d="M787.3,400H888.7V365.4H787.3V400Z" class="g1_1180"/>
<path d="M916.9,400V365.4M608.5,429.2V400m167.9,29.2V400m140.5,29.2V400M608.5,458.4V429.2m167.9,29.2V429.2m140.5,29.2V429.2M608.5,491.1V458.4m167.9,32.7V458.4" class="g0_1180"/>
<path d="M787.3,487.8h82.1V458.4H787.3v29.4Z" class="g1_1180"/>
<path d="M916.9,491.1V458.4M608.5,520.3V491.1m167.9,29.2V491.1m140.5,29.2V491.1M608.5,549.5V520.3m167.9,29.2V520.3m140.5,29.2V520.3M608.5,584.1V549.5m167.9,34.6V549.5" class="g0_1180"/>
<path d="M787.3,584.1H873V549.5H787.3v34.6Z" class="g1_1180"/>
<path d="M916.9,584.1V549.5M608.5,613.4V584.1m167.9,29.3V584.1m140.5,29.3V584.1M608.5,613.7H916.9" class="g0_1180"/>
</svg>