<?xml version="1.0" encoding="UTF-8" standalone="no"?>
<!DOCTYPE svg PUBLIC "-//W3C//DTD SVG 1.1//EN"
"http://www.w3.org/Graphics/SVG/1.1/DTD/svg11.dtd">
<svg viewBox="0 0 909 1286" version="1.1" xmlns="http://www.w3.org/2000/svg" xmlns:xlink="http://www.w3.org/1999/xlink">
<defs>
<clipPath id="c0_12"><path d="M122.8,390.9V363.7h29.1v27.2Z"/></clipPath>
<clipPath id="c1_12"><path d="M122.1,392.3V363.1H153v29.2Z"/></clipPath>
<style type="text/css"><![CDATA[
.g0_12{
fill: #FFFFFF;
}
.g1_12{
fill: #808080;
}
.g2_12{
fill: none;
stroke: #000000;
stroke-width: 1.461;
stroke-linecap: butt;
stroke-linejoin: miter;
}
.g3_12{
fill: none;
stroke: #000000;
stroke-width: 0.73;
stroke-linecap: butt;
stroke-linejoin: miter;
}
.g4_12{
fill: none;
stroke: #000000;
stroke-width: 2.739;
stroke-linecap: butt;
stroke-linejoin: miter;
}
.g5_12{
fill: none;
stroke: #02B5EE;
stroke-width: 0.73;
stroke-linecap: butt;
stroke-linejoin: miter;
}
.g6_12{
fill: none;
stroke: #02B5EE;
stroke-width: 0.73;
stroke-linecap: round;
stroke-linejoin: round;
}
.g7_12{
fill: none;
stroke: #F81693;
stroke-width: 5.197;
stroke-linecap: butt;
stroke-linejoin: miter;
}
.g8_12{
fill: #F81693;
stroke: #F81693;
stroke-width: 5.197;
stroke-linecap: butt;
stroke-linejoin: miter;
}
.g9_12{
fill: none;
stroke: #000000;
stroke-width: 0.73;
stroke-linecap: butt;
stroke-linejoin: miter;
stroke-dasharray: 6,6;
}
.ga_12{
fill: #E6CEEE;
fill-opacity: 0.75;
}
.gb_12{
fill: #BFBFBF;
fill-opacity: 0.5;
}
.gc_12{
fill: #FFF200;
fill-opacity: 0.75;
}
.gd_12{
fill: #BFBFBF;
fill-opacity: 0.58;
}
.ge_12{
fill: none;
stroke: #FFA313;
stroke-width: 1.461;
stroke-linecap: butt;
stroke-linejoin: miter;
}
]]></style>
</defs>
<path d="M117.7,537.1V355.6H791.8V537.1Z" class="g0_12"/>
<path d="M117.7,537.1V355.6H791.8V537.1Z" class="g2_12"/>
<g clip-path="url(#c1_12)">
<path clip-path="url(#c0_12)" d="M140.5,370.8l8.3,8.3c2.4,2.4,2.4,6.3,0,8.7c-2.4,2.4,-6.3,2.4,-8.7,0L125.5,373.2c-1.9,-1.9,-1.9,-4.9,0,-6.8c1.9,-1.9,4.9,-1.9,6.8,0L146.9,381c1.3,1.3,1.3,3.5,0,4.9c-1.4,1.3,-3.6,1.3,-4.9,0l-8.3,-8.3l-1,1l8.3,8.2c1.9,1.9,5,1.9,6.8,0c1.9,-1.8,1.9,-4.9,0,-6.8L133.3,365.5c-2.4,-2.4,-6.3,-2.4,-8.7,0c-2.4,2.4,-2.4,6.3,0,8.7l14.5,14.5c3,3,7.7,3,10.6,0c2.9,-2.9,2.9,-7.6,0,-10.6l-8.3,-8.2Z" class="g1_12"/>
</g>
<path d="M152.7,387H397.1" class="g3_12"/>
<path d="M137.6,392.8V527.7" class="g4_12"/>
<path d="M152.4,559H490.2M152.4,662.9H490.2" class="g3_12"/>
<path d="M321.3,675.9H424.5" class="g5_12"/>
<path d="M421.1,671.5c.7,2.7,2.2,3.9,3.8,4.4c-1.6,.5,-3.1,1.8,-3.8,4.4" class="g6_12"/>
<path d="M230.4,611h51.7" class="g7_12"/>
<path d="M297.6,611c-1.9,-.5,-10.3,-3.3,-15.5,-6.4v12.7c5.2,-3.1,13.6,-5.9,15.5,-6.3Z" class="g8_12"/>
<path d="M178.4,611c0,-28.8,-11.6,-52,-26,-52c-14.3,0,-26,23.2,-26,52c0,28.7,11.7,51.9,26,51.9c14.4,0,26,-23.2,26,-51.9Z" class="g3_12"/>
<path d="M334.3,611c0,-28.8,-11.6,-52,-26,-52c-14.3,0,-25.9,23.2,-25.9,52c0,28.7,11.6,51.9,25.9,51.9c14.4,0,26,-23.2,26,-51.9ZM347.3,611c0,-28.8,-11.6,-52,-26,-52c-14.3,0,-26,23.2,-26,52c0,28.7,11.7,51.9,26,51.9c14.4,0,26,-23.2,26,-51.9Z" class="g9_12"/>
<path d="M438.3,611c0,-28.8,-11.7,-52,-26,-52c-14.4,0,-26,23.2,-26,52c0,28.7,11.6,51.9,26,51.9c14.3,0,26,-23.2,26,-51.9ZM451.3,611c0,-28.8,-11.7,-52,-26,-52c-14.4,0,-26,23.2,-26,52c0,28.7,11.6,51.9,26,51.9c14.3,0,26,-23.2,26,-51.9Z" class="g3_12"/>
<path d="M178.4,611c0,-28.8,-11.6,-52,-26,-52c-14.3,0,-26,23.2,-26,52c0,28.7,11.7,51.9,26,51.9c14.4,0,26,-23.2,26,-51.9Z" class="ga_12"/>
<path d="M438.3,611c0,-28.8,-11.7,-52,-26,-52c-14.4,0,-26,23.2,-26,52c0,28.7,11.6,51.9,26,51.9c14.3,0,26,-23.2,26,-51.9Z" class="gb_12"/>
<path d="M321.3,559c14.4,0,26,23.2,26,52c0,28.7,-11.6,51.9,-26,51.9h91c14.3,0,26,-23.2,26,-51.9c0,-28.8,-11.7,-52,-26,-52Z" class="gc_12"/>
<path d="M412.3,559c14.3,0,26,23.2,26,52c0,28.7,-11.7,51.9,-26,51.9h13c14.3,0,26,-23.2,26,-51.9c0,-28.8,-11.7,-52,-26,-52Z" class="gd_12"/>
<path d="M558.3,800h19.1" class="g3_12"/>
<path d="M550.5,982.8c1.4,0,2.1,-2.7,3.4,-2.7c1,0,1.9,1.3,2.8,2.7c.8,1.4,1.7,2.7,2.7,2.7c1,0,1.9,-1.3,2.8,-2.7c.8,-1.4,1.7,-2.7,2.7,-2.7c1,0,1.9,1.3,2.7,2.7c.9,1.4,1.8,2.7,2.8,2.7c1,0,1.8,-1.3,2.7,-2.7c.9,-1.4,1.8,-2.7,2.8,-2.7c1,0,1.8,1.3,2.7,2.7c.9,1.4,1.7,2.7,2.7,2.7c1.4,0,2.1,-2.7,3.5,-2.7h.4" class="ge_12"/>
</svg>