<?xml version="1.0" encoding="UTF-8" standalone="no"?>
<!DOCTYPE svg PUBLIC "-//W3C//DTD SVG 1.1//EN"
"http://www.w3.org/Graphics/SVG/1.1/DTD/svg11.dtd">
<svg viewBox="0 0 909 1286" version="1.1" xmlns="http://www.w3.org/2000/svg" xmlns:xlink="http://www.w3.org/1999/xlink">
<defs>
<clipPath id="c0_30"><path d="M122.9,299.6V265H152v34.6Z"/></clipPath>
<clipPath id="c1_30"><path d="M122.1,300.1V263.9H153v36.2Z"/></clipPath>
<style type="text/css"><![CDATA[
.g0_30{
fill: #FFFFFF;
}
.g1_30{
fill: #868686;
}
.g2_30{
fill: #242628;
}
.g3_30{
fill: #A0A0A0;
}
.g4_30{
fill: #C4956E;
}
.g5_30{
fill: #222426;
}
.g6_30{
fill: #202126;
}
.g7_30{
fill: #252427;
}
.g8_30{
fill: #222924;
}
.g9_30{
fill: none;
stroke: #000000;
stroke-width: 1.461;
stroke-linecap: butt;
stroke-linejoin: miter;
}
.ga_30{
fill: none;
stroke: #000000;
stroke-width: 0.73;
stroke-linecap: butt;
stroke-linejoin: miter;
}
.gb_30{
fill: none;
stroke: #000000;
stroke-width: 2.739;
stroke-linecap: butt;
stroke-linejoin: miter;
}
]]></style>
</defs>
<path d="M117.7,488.3V257.6H791.8V488.3Z" class="g0_30"/>
<path d="M117.7,488.3V257.6H791.8V488.3Z" class="g9_30"/>
<g clip-path="url(#c1_30)">
<path clip-path="url(#c0_30)" d="M125.6,299.5c-.1,-.1,-.1,-.3,0,-.3c0,-.2,.1,-1.3,0,-1.8c0,-.1,0,-.4,0,-.6c.1,-.9,.3,-2.2,.3,-2.3c0,0,0,-.2,.1,-.5c.1,-.5,.1,-.6,-.1,-1c-.3,-.6,-.9,-2,-1.1,-2.7c-.4,-1.8,-.5,-4.6,-.1,-6.1c.3,-1.1,.5,-1.2,.9,-.5c.3,.7,.4,.5,0,-.3c-.3,-.7,-.6,-2,-.5,-2.4c0,-.2,.2,-.7,.4,-1.1c.2,-.5,.4,-1,.5,-1.2c.1,-.5,.5,-.8,.9,-.6c.1,0,.2,.2,.3,.4q.2,.2,.1,-.3c-.1,-.3,-.2,-.5,-.1,-.6c0,0,0,-.1,0,-.3c.1,-.4,1,-2.1,1.6,-2.7c.3,-.2,.6,-.6,.7,-.7c.1,-.1,.5,-.4,.8,-.7c.3,-.2,.7,-.5,.9,-.7c.4,-.4,.7,-.5,.9,-.3q.2,.2,.2,-.1c0,-.2,0,-.4,0,-.5c.1,-.3,1.5,-1.2,2.1,-1.5c.3,-.2,.6,-.4,.8,-.5c.1,-.1,.3,-.2,.4,-.2c0,0,.4,-.2,.8,-.4c.4,-.2,.9,-.5,1,-.5c.2,-.1,.6,-.3,1,-.4c1.1,-.6,1.6,-.8,2.4,-1.1c.5,-.2,.9,-.3,1,-.3c0,-.1,.1,0,.3,.1l.2,.2l.4,-.4c.6,-.5,1.6,-.8,3.8,-1.1c.9,-.1,2.2,-.3,2.8,-.4l1,-.1l.1,.2q.1,.3,-.3,.5c-2.7,1,-4.6,1.9,-5.6,2.8c-.2,.2,-.4,.4,-.4,.4c-.1,0,-1.5,1.4,-1.5,1.5c0,.1,-.1,.2,-.2,.3c-.3,.2,-.6,.8,-.5,1.1c0,.2,-.1,.3,-.4,.5c-.3,.2,-.4,.4,-.4,.4c.2,.2,0,1,-.2,1.2c-.7,.8,-1.7,2.3,-1.9,2.9c-.1,.1,-.2,.4,-.4,.7c-.2,.4,-.4,.8,-.5,1.1c-.4,1,-.4,.9,-1,1c-.5,0,-1.4,.3,-1.3,.4c0,0,.4,0,.9,0c1.1,-.2,1.2,-.1,.8,.6c-.4,.8,-.7,1.7,-.7,2.2c0,.3,-.2,.8,-.6,2.3c-.1,.3,-.3,.4,-.7,.7c-.5,.3,-.6,.3,-1.2,.3q-.7,0,-.6,.2c.1,.1,-.1,.5,-.5,1.3c-.3,.7,-.7,1.3,-.8,1.4c-.2,.1,-.4,.4,-.6,.7c-.2,.3,-.4,.6,-.5,.6c0,0,-.2,.1,-.3,.3c-.6,.8,-2.7,2.6,-3,2.6l.3,-3.2c.1,.1,.4,0,.6,-.3c.2,-.4,.5,-.5,1.1,-.6c.5,0,.6,-.1,1,-.5c.2,-.2,.6,-.8,.9,-1.4l.5,-.9l-.5,-.3c-.3,-.2,-.6,-.3,-.7,-.4c-.1,-.2,.4,-1,.7,-1.1c.2,-.1,.5,-.1,.7,-.1c.2,-.1,.5,-.2,.7,-.3c.3,-.2,.5,-.3,.7,-.3c.6,-.1,.8,-.4,.8,-1.3c.1,-.9,.2,-1.1,.5,-1.2c.4,-.2,.7,-.1,.9,.1l.1,.3l.1,-.3c.1,-.3,.1,-.4,-.1,-.4c-.1,0,-.2,0,-.3,-.2c-.1,-.2,-.1,-.3,-.6,-.4c-.6,-.2,-.7,-.3,-.5,-.6c0,0,0,-.2,0,-.3c-.1,-.3,.4,-.8,1,-1c.5,-.2,.6,-.3,1.1,-1.3c.3,-.6,.8,-1.2,1,-1.5c.2,-.2,.5,-.5,.6,-.6c.1,-.2,.2,-.3,.4,-.3c.2,0,.4,0,.5,-.1c.2,-.2,.9,-1.2,.8,-1.2c0,0,-.2,.1,-.5,.2c-.8,.3,-1.8,.3,-2,0c-.2,-.4,.4,-1.2,.9,-1.2c.1,-.1,1.1,-.6,1.5,-.8c.1,-.2,.3,-.5,.5,-.8c.3,-.8,.8,-1.4,1.2,-1.5c.5,-.2,.7,-.3,.9,-.8c.2,-.4,.1,-.6,-.4,-.8c-.1,-.1,-.3,-.2,-.4,-.4c0,-.1,-.1,-.2,-.2,-.2c-.3,.1,-3,1.1,-4.1,1.7c-.2,.1,-.5,.3,-.7,.5c-.1,.2,-.5,.6,-.9,.9c-.4,.3,-.9,.7,-1,1c-.1,.2,-.4,.6,-.7,.9c-.4,.4,-.4,.5,-.4,1.2c-.1,.4,0,.9,.1,1.1c.3,.8,.2,1.2,-.3,1.1c-.5,-.1,-.8,-.4,-1.3,-1.6c-.3,-.5,-.6,-1,-.6,-1c-.2,0,-.8,.8,-1.1,1.3c-.2,.5,-.3,.6,-.7,.8q-.5,.2,-.7,.7c-.1,.3,-.1,.6,-.1,.8c.1,.1,.1,.2,.1,.3c-.1,.4,-.1,.8,.1,1.2c.2,.3,.3,.7,.3,.8c0,.2,.1,.6,.3,.9c.3,.6,.3,.7,.2,1.2c-.1,.3,-.1,.6,-.1,.8c-.1,.3,-.4,.2,-1.1,-.4c-.5,-.4,-1.2,-1.2,-2,-2.3c-.3,-.4,-.4,-.4,-.3,-.1c0,.1,-.1,.5,-.2,.8c-.2,.7,-.2,1.4,.2,1.8c.2,.3,.8,1.9,.9,2.3c0,.1,0,.4,.1,.5c.1,.2,.1,.9,-.1,1.2c0,.1,0,.3,0,.4c0,.2,-.1,.3,-.2,.3c-.2,0,-.7,-.4,-1,-.7c-.1,-.1,-.3,-.3,-.5,-.5l-.2,-.3l-.1,.2c-.1,.3,0,.8,.1,1.2c.3,.8,.4,2.4,.2,2.9c-.1,.2,-.2,.4,-.4,.5c-.4,.3,-.3,.6,.4,1.5l.4,.5l.1,-.3c.1,-.2,.2,-.6,.3,-.9c.1,-.4,.2,-.9,.3,-1.1c.1,-.1,.2,-.5,.3,-.7q.1,-.6,2.3,-5.3q1,-2.1,1.9,-3.4c.7,-1.1,1.3,-2,1.9,-3c.8,-1.3,.9,-1.6,1.4,-2.1c.3,-.4,.7,-.8,.9,-1.1c.9,-1.1,1.1,-1.4,1.3,-1.3c.1,0,.2,.1,.2,.1c0,0,-.2,.4,-.5,.8c-.3,.4,-.8,1.1,-1,1.6c-.9,1.4,-2.1,3.3,-2.5,3.9c-.2,.4,-.5,.8,-.6,1c-.1,.2,-.4,.6,-.5,.9c-.2,.2,-.3,.5,-.4,.7c0,.3,-.1,.7,-1.1,2.5c-.8,1.6,-1,2,-1.7,3.7c-.5,1.1,-.8,2.2,-.7,2.4l-.3,3.2c-.3,.1,-.5,1.9,-.2,3c.1,.7,.1,1,-.2,1.2c-.6,.5,-1.1,1.2,-1.3,1.7c-.1,.4,-.2,.5,-.4,.5c-.2,.1,-.2,0,-.3,-.1Z" class="g1_30"/>
<path d="M133.1,286c-.1,-.1,-.3,-.1,-.4,-.1q-.1,0,0,.1c.1,.1,.3,.1,.4,.1q.2,0,0,-.1Z" class="g0_30"/>
<path d="M144.5,266.9q0,-.1,-.1,-.1c-.1,0,-.1,.1,-.2,.2q0,.1,.1,.1c.1,0,.2,-.1,.2,-.2Z" class="g0_30"/>
<path d="M125.7,299.5c-.1,0,-.1,-.1,-.1,-.3c.1,-.1,.1,-.8,.1,-1.6c0,-1.4,.1,-2.2,.4,-3.6l.1,-.6l-.5,-.9c-.3,-.6,-.5,-1.3,-.6,-1.7c-.1,-.3,-.3,-.8,-.3,-.9c-.2,-.7,-.3,-2.9,-.3,-4c.1,-1,.5,-2.5,.7,-2.5c.1,0,.2,.1,.4,.5c.5,.8,.7,.8,.3,-.1c-.4,-.8,-.7,-1.8,-.7,-2.4c0,-.5,.5,-2,.9,-2.8c.2,-.3,.3,-.5,.5,-.5q.3,0,.9,.9l.5,.7l-.4,-.7c-.5,-1.2,-.4,-1.7,.3,-2.9c.3,-.6,.6,-1.1,.7,-1.1c.1,-.1,.4,-.4,.6,-.7c.3,-.3,.8,-.8,1.2,-1c.3,-.3,.7,-.6,.9,-.9c.4,-.4,.6,-.4,1,.2l.2,.4l-.1,-.5c-.1,-.8,0,-1,.8,-1.6c.5,-.3,.9,-.6,1,-.6c0,0,.1,0,.1,-.1c0,0,.1,-.1,.3,-.1q.2,0,.2,.1c-.1,.1,-.1,.2,-.2,.2c-.1,0,-.4,.2,-.7,.5c-.4,.3,-.8,.6,-.9,.7c-.3,.1,-.3,.2,-.3,.7c0,.3,.1,.6,.2,.8c.1,.5,.1,1,0,1c-.2,0,-.4,-.2,-.7,-.9l-.3,-.6l-.4,.2c-.1,.2,-.3,.3,-.3,.4c-.1,0,-.3,.2,-.6,.4c-.3,.3,-.6,.5,-.7,.6c-.1,.1,-.3,.4,-.6,.6c-.6,.6,-1.6,2.2,-1.5,2.6c.1,.3,1,2.2,1.7,3.4c.5,.9,.6,1.1,.4,1.1c-.2,-.1,-1.2,-.8,-1.6,-1.4c-.3,-.3,-.6,-.7,-.8,-.9c-.1,-.2,-.3,-.5,-.4,-.7c-.2,-.4,-.4,-.4,-.6,0c-.3,.5,-.8,2.1,-.9,2.5c-.1,.8,.6,2.6,1.5,3.8c.7,1,.7,1.3,-.1,.8c-.3,-.2,-1.3,-1.3,-1.5,-1.6c0,-.1,-.1,-.2,-.1,-.2c-.2,.1,-.4,1.1,-.4,1.7c0,.4,0,.8,-.1,.9c0,.1,0,.7,.1,1.3c.1,.6,.1,1.3,.1,1.5c.1,.7,1,3,1.1,3q.1,0,.1,-.1c0,0,.1,-.5,.3,-1.1c.2,-.6,.3,-1.2,.4,-1.4c0,-.2,.1,-.5,.1,-.5c.1,-.1,.2,-.4,.3,-.7c.1,-.5,.2,-.9,1.1,-2.7c.3,-.6,.7,-1.4,.9,-1.9c.8,-1.7,1.6,-3.2,2.2,-4.2c.7,-1,1.1,-1.6,1.9,-3c.2,-.4,.6,-.8,.7,-1.1c.2,-.2,.3,-.4,.3,-.5c.1,-.1,.3,-.4,.6,-.7c.2,-.3,.6,-.8,.8,-1c.9,-1.2,1.1,-1.4,1.2,-1.3c.2,.1,.2,.2,-.6,1.2c-.2,.3,-.6,.8,-.8,1.2c-.8,1.4,-2.1,3.5,-2.4,3.9c-.6,.8,-1.5,2.5,-1.5,2.7c0,.1,-.5,1.3,-1.2,2.6c-.7,1.3,-1.3,2.7,-1.5,3.1c-.1,.4,-.3,.8,-.3,.8c-.1,.1,-.5,1.3,-.6,1.8c0,.3,-.1,.7,-.1,1c-.2,.7,-.3,2,-.3,2.1c0,0,.1,-.1,.3,-.2c.1,-.1,.3,-.3,.6,-.4c.2,-.2,.5,-.5,.8,-.7c.2,-.3,.4,-.5,.5,-.6c.6,-.5,.9,-.9,1.2,-1.4c.3,-.3,.6,-.7,.7,-.8c.3,-.3,1.2,-2,1.2,-2.1c-.1,-.1,-.4,-.3,-.9,-.5c-.9,-.5,-1,-.6,-.8,-.7c.1,-.1,1,0,1.8,.2c.2,.1,.7,.1,1,.1c.9,-.1,1.4,-.4,1.6,-1.1c.1,-.2,.2,-.6,.2,-.7c.1,-.3,.3,-1,.3,-1.6c.1,-.5,.4,-1.3,.6,-1.6l.2,-.3h-.5c-.5,.1,-1.6,-.1,-1.7,-.3c-.1,-.2,.7,-.6,1.6,-.8l.8,-.2l.2,-.6c.2,-.3,.3,-.7,.4,-.8c0,-.2,.1,-.4,.2,-.5c.1,-.1,.3,-.3,.4,-.6c0,-.2,.3,-.6,.4,-.9c1.4,-1.9,1.6,-2.3,1.5,-2.3c-.1,0,-.4,.1,-.6,.2c-.7,.4,-1.5,.4,-1.5,.1c0,-.3,1.8,-1.4,2.7,-1.6q.4,-.1,.4,-.5c0,-.3,.2,-.7,.3,-.8c.1,-.2,.3,-.5,.4,-.7c.3,-.6,2.2,-2.2,3.2,-2.8c.7,-.4,1.8,-1,2.7,-1.4l.7,-.3l-1.6,.2c-2.6,.4,-3.7,.7,-4.4,1.5c-.3,.3,-.4,.4,-.5,.1c-.1,-.2,.6,-.9,1.2,-1.1c.6,-.3,1.7,-.6,2.4,-.7c.4,0,1.5,-.2,2.5,-.3c1.5,-.3,1.8,-.3,1.9,-.2c.4,.2,.3,.3,-.2,.5c-1.1,.5,-2.2,.9,-2.9,1.3c-.7,.3,-2,1,-2.2,1.2c-.1,.1,-.3,.3,-.6,.5c-.9,.8,-1.6,1.5,-1.8,1.8c-.1,.2,-.3,.4,-.4,.6c-.1,.1,-.3,.4,-.3,.6c0,.4,-.1,.5,-.4,.7c-.2,.2,-.5,.3,-.6,.3h-.2l.2,.1c.4,0,.5,.2,.3,.4c0,.1,-.1,.2,-.1,.3c.1,.1,-.1,.4,-.4,.7c-.2,.2,-.5,.6,-.6,.8c-.1,.1,-.3,.5,-.4,.7c-.4,.5,-.6,.9,-.7,1.1c0,.1,-.2,.5,-.4,.8c-.3,.5,-.4,.8,-.7,1.6c-.1,.3,-.2,.4,-.7,.4c-.7,.1,-1.5,.4,-1.4,.5c0,0,.4,0,.9,0c.8,-.1,.9,-.1,1,0c.1,.1,.1,.3,-.2,.7c-.3,.6,-.7,1.7,-.7,2.1c0,.4,-.3,1.3,-.6,2.2c-.1,.3,-.2,.5,-.6,.7c-.5,.3,-.6,.3,-1.2,.3c-.4,0,-.9,0,-1,-.1c-.2,0,-.5,-.1,-.8,-.1l-.6,-.1l.5,.2c.3,.1,.6,.2,.7,.2q.5,.1,.6,.2c.1,.2,-.9,2.1,-1.3,2.5c-.2,.2,-.5,.6,-.7,.8c-.1,.3,-.3,.5,-.4,.6c-.2,.1,-.4,.4,-.6,.6c-.4,.5,-1.3,1.3,-1.7,1.6c-.1,.1,-.4,.3,-.5,.4c-.1,.1,-.3,.3,-.5,.3c-.2,.1,-.3,.2,-.3,.5c-.1,.5,-.1,1.8,-.1,2.1c0,.1,.1,.4,.1,.8c.1,.5,.1,.7,-.2,.9c-.4,.3,-1,1.1,-1.3,1.7c-.1,.3,-.2,.5,-.2,.5c-.1,0,-.2,0,-.3,-.1Z" class="g2_30"/>
<path d="M128.2,279.2q-.1,-.2,-.1,-.1c-.1,.1,0,.3,.1,.3c.1,0,.1,-.1,0,-.2Z" class="g2_30"/>
<path d="M139.7,273.3c.2,-.1,.5,-.3,.7,-.4l.2,-.2l-.3,.1c-.5,.1,-1.4,.5,-1.4,.7c0,.1,.3,0,.8,-.2Z" class="g3_30"/>
<path d="M139.7,273.2c.4,-.2,.6,-.4,.2,-.2c-.3,.1,-.9,.4,-.7,.4c0,0,.3,-.1,.5,-.2Z" class="g0_30"/>
<path d="M134.9,270c0,-.1,.6,-.5,.7,-.4q.2,.1,-.1,.2c-.1,.1,-.3,.2,-.4,.2q-.1,.1,-.2,0Z" class="g2_30"/>
<path d="M136.2,269.3c.1,-.1,.2,-.2,.3,-.2q.2,0,.1,.1c-.1,.1,-.2,.2,-.3,.2q-.2,.1,-.1,-.1Z" class="g2_30"/>
<path d="M137.1,268.8c.1,-.2,.6,-.3,.7,-.2c0,0,-.5,.3,-.7,.3q-.1,0,0,-.1Z" class="g2_30"/>
<path d="M137.9,268.4c0,0,.8,-.5,1.3,-.6c.3,-.1,.6,-.2,.7,-.3c.4,-.2,1.9,-.8,2.1,-.7c.2,.1,.1,.3,-.2,.3c-.5,.1,-1.7,.5,-3,1.1c-.6,.3,-.8,.4,-.9,.2Z" class="g2_30"/>
<path d="M125.7,299.5c0,-.1,0,-.2,0,-.3c0,0,.1,-.6,.1,-1.2c0,-1.3,0,-1.9,.3,-4l.1,-.7l-.5,-1c-.3,-.6,-.5,-1.2,-.6,-1.6c-.1,-.3,-.2,-.7,-.2,-.9c-.3,-1,-.4,-4.1,-.1,-5.2c.1,-.4,.2,-.8,.2,-.9c.1,-.4,.2,-.3,.7,.3c.6,1.1,.9,1,.3,-.1c-.4,-.6,-.8,-2,-.8,-2.6c0,-.3,.6,-1.9,1,-2.7c.1,-.2,.2,-.4,.4,-.4c.2,0,.3,0,.5,.4c.5,.6,.6,.9,.5,.8c-.1,0,-.3,-.2,-.4,-.4c-.4,-.8,-.6,-.6,-1.2,.8c-.7,1.9,-.6,2.4,.7,4.8c.5,.8,.8,1.5,.7,1.5c-.2,.1,-1.4,-1.1,-1.7,-1.6c-.1,-.1,-.2,-.3,-.3,-.3q-.1,-.1,-.2,.1c-.3,.8,-.4,2.5,-.2,4c0,.5,.1,1.2,.1,1.4c0,.5,1,3.1,1.2,3.1c.1,0,.1,-.1,.1,-.3c0,-.1,.1,-.7,.3,-1.3c.2,-.5,.3,-1.1,.4,-1.3c0,-.2,0,-.3,.1,-.3c.1,-.1,.4,-1.2,.4,-1.2c0,-.1,.1,-.4,.2,-.7c.9,-1.8,1.3,-2.7,1.6,-3.5c.8,-1.5,1.6,-3.1,2.3,-4.1c.7,-1.2,1.3,-2.2,1.9,-3.1c.2,-.4,.5,-.8,.7,-1c.1,-.2,.3,-.4,.3,-.5c0,-.1,.6,-.8,.9,-1.1c.1,-.1,.3,-.4,.5,-.6c.6,-1,1,-1.4,1.1,-1.3q.1,0,-.6,.9c-.2,.4,-.7,1,-.9,1.4c-.8,1.4,-2,3.4,-2.3,3.7c-.6,.8,-1.6,2.7,-1.6,2.9c0,.2,-.5,1.3,-1.2,2.6c-.6,1.3,-1.3,2.6,-1.4,3c-.2,.4,-.4,1,-.6,1.4c-.2,.7,-.4,1.4,-.4,1.8c0,.2,-.1,.4,-.1,.7c-.1,.2,-.2,.7,-.2,1.1c-.1,.6,-.1,.8,.1,.8c.1,0,.2,-.1,.2,-.1c.1,-.1,.3,-.3,.6,-.5c.3,-.2,.5,-.5,.6,-.5c0,-.1,.3,-.3,.5,-.5c.7,-.7,1.1,-1.1,1.5,-1.7c.3,-.3,.6,-.7,.7,-.8c.2,-.2,1.1,-1.8,1.1,-2c0,-.2,-.1,-.3,-.6,-.5c-.7,-.4,-.6,-.4,.1,-.1c.3,.1,.6,.2,.7,.1c.4,-.1,.3,.3,-.2,1.3c-.3,.6,-.7,1.3,-.9,1.4c-.1,.2,-.4,.5,-.6,.8c-.2,.2,-.4,.5,-.5,.6c-.1,.1,-.3,.3,-.5,.5c-.1,.2,-.4,.5,-.6,.6c-.2,.2,-.5,.5,-.6,.6c-.1,.1,-.3,.3,-.3,.3c-.1,0,-.3,.1,-.5,.3c-.2,.2,-.5,.4,-.7,.5c-.2,.1,-.3,.2,-.3,.7c-.1,.3,-.1,.6,-.1,.7c0,0,0,.3,0,.5c0,.3,.1,.7,.1,1c.2,.8,.1,1.1,-.1,1.3c-.4,.2,-1.1,1.2,-1.3,1.8c-.2,.5,-.3,.5,-.5,.4Z" class="g4_30"/>
<path d="M134,286c-.4,-.1,-.8,-.1,-1,-.2c-.2,0,-.4,-.1,-.5,-.1c-.1,0,-.3,0,-.4,-.1c-.1,0,-.3,0,-.4,0c-.1,0,-.2,0,-.3,0c-.1,-.3,.3,-.2,1.8,.1c1.4,.2,2.5,-.2,2.7,-1c0,-.2,.1,-.6,.2,-.8c.1,-.3,.2,-.6,.2,-.8c.1,-.4,.1,-.8,.3,-1.6c.1,-.3,.2,-.6,.4,-.8c.1,-.1,.2,-.3,.1,-.4c0,0,-.2,0,-.4,.1c-.4,.1,-1.6,-.1,-1.7,-.3c-.1,-.3,.8,-.7,2,-.8c.3,-.1,.4,-.1,.6,-.8c.6,-1.4,1.6,-3.2,2.9,-4.9c.1,-.1,.1,-.2,0,-.3c0,0,-.3,.1,-.7,.2c-.6,.3,-1.3,.4,-1.4,.2c0,-.1,0,-.2,.1,-.2q.2,-.1,.2,.1c.1,0,.1,.1,.1,.1c.3,0,1.3,-.5,1.6,-.7c.3,-.2,.6,-.3,.6,-.2c.1,.2,-.1,.9,-.2,1c-.2,.1,-.5,.5,-.7,.9c-.1,.1,-.4,.5,-.6,.8c-.3,.6,-.5,.9,-.6,1.2c-.1,.1,-.3,.5,-.4,.8c-.3,.5,-.6,1,-.8,1.6c-.1,.3,-.2,.3,-.7,.4c-.8,.1,-1.6,.4,-1.4,.6c0,0,.4,0,1,-.1c.8,-.1,.9,-.1,1,0c0,.1,-.1,.4,-.3,.7c-.3,.6,-.6,1.6,-.7,2.1c0,.2,-.1,.6,-.2,.9c-.1,.3,-.2,.7,-.2,.9c-.1,.5,-.4,.9,-.8,1.1c-.6,.3,-.7,.3,-1.4,.3Z" class="g4_30"/>
<path d="M129.6,281.6c-.2,-.1,-.4,-.2,-.5,-.3c-.3,-.2,-1,-1,-1,-1.1c0,-.1,.1,-.1,.1,-.1c.1,0,.5,.4,.6,.5c.1,.1,.2,.2,.2,.2c.1,0,.1,-.1,-.1,-.3c-.1,-.2,-.3,-.6,-.4,-.8c-.1,-.3,-.4,-.9,-.6,-1.4c-.3,-.5,-.5,-1,-.5,-1.1c0,-.1,.2,-.6,.5,-1.1c.6,-1,1.6,-2.1,2.5,-2.8c.4,-.2,.8,-.6,.9,-.8c.4,-.5,.6,-.4,.9,.3c.2,.5,.3,.5,.4,.5c.1,-.1,.2,-.1,.2,-.1c0,0,.1,.2,.1,.4c.1,.6,-.1,.5,-.6,-.3c-.4,-.8,-.5,-.9,-.7,-.6c-.1,.2,-.7,.6,-1.1,.9c-.7,.5,-1.8,1.8,-2.5,3l-.4,.6l.7,1.4c.7,1.5,1.1,2.2,1.5,2.8c.2,.4,.2,.5,-.2,.2Z" class="g4_30"/>
<path d="M128.1,279.7c-.1,-.1,0,-.2,0,-.2c.1,0,.1,.1,.2,.1c0,.1,0,.2,0,.2c-.1,0,-.2,0,-.2,-.1Z" class="g4_30"/>
<path d="M127.6,278.7c-.3,-.6,-.2,-.8,0,-.5c.2,.3,.4,.8,.3,.9c-.1,.1,-.2,0,-.3,-.4Z" class="g4_30"/>
<path d="M140.1,272.5c.5,-.2,1.1,-.4,1.2,-.3c.1,.1,-.1,.2,-.8,.4c-.8,.2,-.9,.2,-.4,-.1Z" class="g4_30"/>
<path d="M141.5,272.1c0,-.1,0,-.3,0,-.5c0,-.5,.7,-1.7,1.3,-2.2c1.7,-1.7,3.9,-3,5.7,-3.6c.6,-.2,.6,-.3,-.1,-.2c-.3,.1,-1.3,.2,-2.2,.4c-1,.1,-1.9,.3,-2.1,.3c-.4,.2,-1.2,.7,-1.5,1c-.2,.2,-.3,.3,-.4,.1c-.1,-.2,.9,-1,1.4,-1.2c1.1,-.3,1.4,-.4,2.1,-.5c.4,0,1.6,-.2,2.6,-.3c1.8,-.3,2,-.3,2.1,-.1c0,.1,-.3,.3,-.7,.4c-2.5,.9,-4.4,1.9,-5.3,2.8c-.2,.1,-.4,.3,-.4,.3c-.1,0,-.2,.1,-.3,.2c-.1,.1,-.3,.3,-.6,.6c-.2,.2,-.5,.5,-.6,.7c-.1,.2,-.3,.5,-.5,.6c-.1,.2,-.2,.4,-.3,.6c0,.4,-.1,.7,-.2,.6Z" class="g4_30"/>
<path d="M132.6,272.6c-.1,-.2,-.2,-.8,-.1,-1c0,-.1,.3,-.3,.6,-.5c.3,-.2,.7,-.5,.8,-.6l.2,-.1l-.1,.2c-.2,.2,-1,.9,-1.2,1c-.1,.1,-.2,.3,-.2,.4c0,.2,0,.4,0,.5q0,.2,0,.1Z" class="g4_30"/>
<path d="M141.5,267c.2,-.2,.5,-.3,.5,-.1c0,0,-.1,.1,-.3,.1q-.4,.1,-.2,0Z" class="g4_30"/>
<path d="M125.7,299.5c0,-.1,0,-.2,0,-.3c0,0,.1,-.6,.1,-1.2c0,-1.2,0,-1.8,.4,-4.1c0,-.5,0,-.6,-.5,-1.6c-.3,-.6,-.5,-1.2,-.6,-1.6c-.1,-.3,-.2,-.7,-.2,-.9c-.3,-1,-.4,-4.1,-.1,-5.2c.1,-.4,.2,-.8,.2,-.9c.1,-.4,.2,-.3,.7,.3c.6,1.1,.9,1,.3,-.1c-.4,-.6,-.8,-2,-.8,-2.6c0,-.3,.6,-1.9,1,-2.7c.1,-.2,.2,-.4,.4,-.4c.2,0,.3,0,.5,.4c.5,.6,.6,.9,.5,.8c-.1,0,-.3,-.2,-.4,-.4c-.4,-.8,-.6,-.6,-1.2,.8c-.7,1.9,-.6,2.4,.7,4.8c.5,.8,.8,1.5,.7,1.5c-.2,.1,-1.4,-1.1,-1.7,-1.6c-.1,-.1,-.2,-.3,-.3,-.3q-.1,-.1,-.2,.1c-.3,.8,-.4,2.5,-.2,4c0,.5,.1,1.2,.1,1.4c0,.5,1,3.1,1.2,3.1c.1,0,.1,-.1,.1,-.3c0,-.1,.1,-.7,.3,-1.3c.2,-.5,.3,-1.1,.4,-1.3c0,-.2,0,-.3,.1,-.3c.1,-.1,.4,-1.2,.4,-1.2c0,-.1,.1,-.4,.2,-.7c.9,-1.8,1.3,-2.7,1.6,-3.5c.8,-1.5,1.6,-3.1,2.3,-4.1c.7,-1.2,1.3,-2.2,1.9,-3.1c.2,-.4,.5,-.8,.7,-1c.1,-.2,.3,-.4,.3,-.5c0,-.1,.6,-.8,.9,-1.1c.1,-.1,.3,-.4,.5,-.6c.6,-1,1,-1.4,1.1,-1.3q.1,0,-.7,1.1c-1.5,1.9,-2.3,3.2,-3.6,5.4c-.3,.3,-.7,1,-1,1.5c-.4,.5,-.5,.8,-.4,.8c.4,0,.3,.4,-.8,2.7c-.7,1.3,-1.4,2.6,-1.5,3c-.2,.4,-.4,1,-.6,1.4c-.2,.7,-.4,1.4,-.4,1.8c0,.2,-.1,.4,-.1,.7c-.1,.2,-.2,.7,-.2,1.1c-.1,.6,-.1,.8,.1,.8c.1,0,.2,-.1,.2,-.1c.1,-.1,.3,-.3,.6,-.5c.3,-.2,.5,-.5,.6,-.5c0,-.1,.3,-.3,.5,-.5c.7,-.7,1.1,-1.1,1.5,-1.7c.3,-.3,.6,-.7,.7,-.8c.2,-.2,1.1,-1.8,1.1,-2c0,-.2,-.1,-.3,-.6,-.5c-.7,-.4,-.6,-.4,.1,-.1c.3,.1,.6,.2,.7,.1c.4,-.1,.3,.3,-.2,1.3c-.3,.6,-.7,1.3,-.9,1.4c-.1,.2,-.4,.5,-.6,.8c-.2,.2,-.4,.5,-.5,.6c-.1,.1,-.3,.3,-.5,.5c-.1,.2,-.4,.5,-.6,.6c-.2,.2,-.5,.5,-.6,.6c-.1,.1,-.3,.3,-.3,.3c-.1,0,-.3,.1,-.5,.3c-.2,.2,-.5,.4,-.7,.5c-.2,.1,-.3,.2,-.3,.7c-.1,.3,-.1,.6,-.1,.7c0,0,0,.3,0,.5c0,.3,.1,.7,.1,1c.2,.8,.1,1.1,-.1,1.3c-.4,.2,-1.1,1.2,-1.3,1.8c-.2,.5,-.3,.5,-.5,.4Z" class="g5_30"/>
<path d="M134,286c-.4,-.1,-.8,-.1,-1,-.2c-.2,0,-.4,-.1,-.5,-.1c-.1,0,-.3,0,-.4,-.1c-.1,0,-.3,0,-.4,0c-.1,0,-.2,0,-.3,0c-.1,-.3,.3,-.2,1.8,.1c1.4,.2,2.5,-.2,2.7,-1c0,-.2,.1,-.6,.2,-.8c.1,-.3,.2,-.6,.2,-.8c.1,-.4,.1,-.8,.3,-1.6c.1,-.3,.2,-.6,.4,-.8c.1,-.1,.2,-.3,.1,-.4c0,0,-.2,0,-.4,.1c-.4,.1,-1.6,-.1,-1.7,-.3c-.1,-.3,.8,-.7,2,-.8c.3,-.1,.4,-.1,.6,-.8c.6,-1.4,1.6,-3.2,2.9,-4.9c.1,-.1,.1,-.2,0,-.3c0,0,-.3,.1,-.7,.2c-.6,.3,-1.3,.4,-1.4,.2c0,-.1,0,-.2,.1,-.2q.2,-.1,.2,.1c.1,0,.1,.1,.1,.1c.3,0,1.3,-.5,1.6,-.7c.3,-.2,.6,-.3,.6,-.2c.1,.2,-.1,.9,-.2,1c-.2,.1,-.5,.5,-.7,.9c-.1,.1,-.4,.5,-.6,.8c-.3,.6,-.5,.9,-.6,1.2c-.1,.1,-.3,.5,-.4,.8c-.3,.5,-.6,1,-.8,1.6c-.1,.3,-.2,.3,-.7,.4c-.8,.1,-1.6,.4,-1.4,.6c0,0,.4,0,1,-.1c.8,-.1,.9,-.1,1,0c0,.1,-.1,.4,-.3,.7c-.3,.6,-.6,1.6,-.7,2.1c0,.2,-.1,.6,-.2,.9c-.1,.3,-.2,.7,-.2,.9c-.1,.5,-.4,.9,-.8,1.1c-.6,.3,-.7,.3,-1.4,.3Z" class="g5_30"/>
<path d="M129.6,281.6c-.2,-.1,-.4,-.2,-.5,-.3c-.3,-.2,-1,-1,-1,-1.1c0,-.1,.1,-.1,.1,-.1c.1,0,.5,.4,.6,.5c.1,.1,.2,.2,.2,.2c.1,0,.1,-.1,-.1,-.3c-.1,-.2,-.3,-.6,-.4,-.8c-.1,-.3,-.4,-.9,-.6,-1.4c-.3,-.5,-.5,-1,-.5,-1.1c0,-.1,.2,-.6,.5,-1.1c.6,-1,1.6,-2.1,2.5,-2.8c.4,-.2,.8,-.6,.9,-.8c.4,-.5,.6,-.4,.9,.3c.2,.5,.3,.5,.4,.5c.1,-.1,.2,-.1,.2,-.1c0,0,.1,.2,.1,.4c.1,.6,-.1,.5,-.6,-.3c-.4,-.8,-.5,-.9,-.7,-.6c-.1,.2,-.7,.6,-1.1,.9c-.7,.5,-1.8,1.8,-2.5,3l-.4,.6l.7,1.4c.7,1.5,1.1,2.2,1.5,2.8c.2,.4,.2,.5,-.2,.2Z" class="g5_30"/>
<path d="M128.1,279.7c-.1,-.1,0,-.2,0,-.2c.1,0,.1,.1,.2,.1c0,.1,0,.2,0,.2c-.1,0,-.2,0,-.2,-.1Z" class="g5_30"/>
<path d="M127.6,278.7c-.3,-.6,-.2,-.8,0,-.5c.2,.3,.4,.8,.3,.9c-.1,.1,-.2,0,-.3,-.4Z" class="g5_30"/>
<path d="M140.1,272.5c.5,-.2,1.1,-.4,1.2,-.3c.1,.1,-.1,.2,-.8,.4c-.8,.2,-.9,.2,-.4,-.1Z" class="g5_30"/>
<path d="M141.5,272.1c0,-.1,0,-.3,0,-.5c0,-.5,.7,-1.7,1.3,-2.2c1.7,-1.7,3.9,-3,5.7,-3.6c.6,-.2,.6,-.3,-.1,-.2c-.3,.1,-1.3,.2,-2.2,.4c-1,.1,-1.9,.3,-2.1,.3c-.4,.2,-1.2,.7,-1.5,1c-.2,.2,-.3,.3,-.4,.1c-.1,-.2,.9,-1,1.4,-1.2c1.1,-.3,1.4,-.4,2.1,-.5c.4,0,1.6,-.2,2.6,-.3c1.8,-.3,2,-.3,2.1,-.1c0,.1,-.3,.3,-.7,.4c-2.5,.9,-4.4,1.9,-5.3,2.8c-.2,.1,-.4,.3,-.4,.3c-.1,0,-.2,.1,-.3,.2c-.1,.1,-.3,.3,-.6,.6c-.2,.2,-.5,.5,-.6,.7c-.1,.2,-.3,.5,-.5,.6c-.1,.2,-.2,.4,-.3,.6c0,.4,-.1,.7,-.2,.6Z" class="g5_30"/>
<path d="M132.6,272.6c-.1,-.2,-.2,-.8,-.1,-1c0,-.1,.3,-.3,.6,-.5c.3,-.2,.7,-.5,.8,-.6l.2,-.1l-.1,.2c-.2,.2,-1,.9,-1.2,1c-.1,.1,-.2,.3,-.2,.4c0,.2,0,.4,0,.5q0,.2,0,.1Z" class="g5_30"/>
<path d="M141.5,267c.2,-.2,.5,-.3,.5,-.1c0,0,-.1,.1,-.3,.1q-.4,.1,-.2,0Z" class="g5_30"/>
<path d="M127.2,297.1c.1,-.1,.1,-.2,.1,-.5c-.1,-.3,-.1,-.9,-.1,-1.4c0,-.6,0,-1,0,-1.1c0,0,0,-.2,0,-.3c0,-.1,.1,-.5,.1,-.8c.1,-1.3,.1,-1.5,.5,-3.1c0,-.2,.1,-.5,.1,-.7c.2,-1,1.2,-3.2,2.4,-5.4c.6,-1.3,.9,-2,.9,-2.2c0,0,-.3,.5,-.6,1.1c-.3,.6,-.7,1.4,-.9,1.8c-.9,1.7,-1.9,4,-2,4.5c0,.2,-.2,.6,-.3,.8c0,.3,-.1,.5,-.1,.5c.1,.1,-.3,1.3,-.5,1.8c0,.2,-.1,.6,-.1,.9c-.1,.2,-.2,.7,-.2,1c-.3,1,-.5,2.6,-.3,2.8c0,.1,.2,.2,.4,.3c.4,.2,.3,.2,.6,0Z" class="g4_30"/>
<path d="M124.9,289.9c-.1,-.2,-.3,-2.1,-.3,-3.2c0,-.8,.1,-1.6,.2,-2.2c.1,-.4,.2,-.7,.2,-.9c.1,-.3,.3,-.2,.6,.3c.1,.3,.4,.6,.6,.9l.3,.3l-.1,-.4c-.1,-.2,-.4,-.7,-.5,-1.1c-.4,-.8,-.7,-2.2,-.6,-2.7c.1,-.4,.6,-1.6,.9,-2.3c.2,-.4,.6,-.6,.8,-.3q0,.2,-.2,.2c-.2,0,-.3,.2,-.5,.5c-.6,1.3,-.8,2.3,-.8,2.9c.1,.3,.3,.9,.5,1.5c.3,.8,.5,1.1,1,1.8c.3,.4,.5,.8,.5,.8c0,.2,-.6,-.2,-.9,-.4c-.1,-.2,-.3,-.4,-.4,-.5c-.1,-.1,-.4,-.5,-.6,-.7l-.3,-.5l-.1,.3c-.4,.9,-.5,2.5,-.3,4.3c.1,1.2,.1,1.6,0,1.4Z" class="g6_30"/>
<path d="M133.7,286c-.2,-.1,-.4,-.1,-.6,-.2c-.2,-.1,-.4,-.1,-.5,-.1c-.2,0,-.8,-.2,-.8,-.2c0,0,.5,0,1,.1c1.3,.2,2,.2,2.5,-.2c.4,-.2,.5,-.4,.8,-1.2c.2,-1,.3,-1.2,.3,-1.6c.1,-.7,.2,-1.1,.6,-1.7c.1,-.3,.2,-.6,.2,-.6c0,0,-.2,0,-.5,0c-.3,.1,-.5,.1,-1.1,0l-.6,-.2l.1,-.2c.2,-.2,.8,-.4,1.6,-.6l.7,-.1l.3,-.7c.5,-1.3,1.6,-3.2,2.4,-4.4c.3,-.4,.5,-.7,.4,-.8q0,-.1,-.7,.2q-.7,.3,-.7,.2c0,0,.2,-.1,.3,-.2c.2,0,.5,-.2,.8,-.4c.4,-.3,.7,-.3,.8,-.3c.2,.1,-.1,.8,-.5,1.2c-.7,.8,-2,3.1,-2.6,4.5c-.1,.3,-.2,.6,-.3,.7c0,.1,-.2,.2,-.3,.2c-.8,.1,-1,.2,-1.4,.3c-.5,.2,-.5,.3,-.3,.4c0,0,.3,0,1,-.1c.7,-.1,.9,-.1,.9,0c.1,.1,-.1,.5,-.3,.9c-.4,.7,-.6,1.4,-.6,1.9c0,.2,-.1,.7,-.2,1.1c-.2,.3,-.2,.7,-.2,.7c0,0,-.1,.2,-.2,.5c-.3,.6,-1.2,1,-2.3,.9Z" class="g6_30"/>
<path d="M131.5,285.6q0,-.1,.1,-.1c0,0,.1,0,.1,0c0,0,0,.1,-.1,.1h-.1Z" class="g6_30"/>
<path d="M129.3,281.4c-.6,-.4,-1.3,-1.4,-.9,-1.1c.1,.1,.3,.2,.3,.3c.1,.1,.4,.3,.5,.2c0,-.1,.5,.4,.6,.7c.1,.2,.1,.3,.1,.3c0,0,-.3,-.2,-.6,-.4Z" class="g6_30"/>
<path d="M128.8,280.3c0,0,-.2,-.3,-.2,-.5c-.1,-.3,-.4,-.9,-.6,-1.3c-.3,-.5,-.5,-1,-.6,-1.1c0,-.3,.8,-1.9,1.2,-2.3c.1,-.1,.4,-.5,.7,-.7c.3,-.3,.6,-.7,.8,-.8c.6,-.4,.9,-.7,1.3,-1.1c.2,-.2,.4,-.3,.4,-.3c.3,.1,.3,.3,.1,.3c-.1,0,-.4,.2,-.7,.5c-.4,.3,-.7,.6,-.7,.6c-.2,0,-.4,.2,-.9,.8c-.3,.3,-.5,.6,-.6,.6c0,0,-.9,1.3,-1.2,1.8c-.2,.5,-.2,.6,.4,1.8c.8,1.5,.9,1.9,.6,1.7Z" class="g6_30"/>
<path d="M127.2,279c-.1,-.1,-.1,-.2,0,-.2c.1,0,.2,.1,.3,.2c0,.2,0,.3,0,.3c-.1,0,-.2,-.1,-.3,-.3Z" class="g6_30"/>
<path d="M127.6,278.8c0,-.2,-.1,-.4,-.2,-.5c0,-.1,0,-.2,0,-.2c.1,0,.5,.6,.5,.8c0,.2,-.2,.1,-.3,-.1Z" class="g6_30"/>
<path d="M138.4,273.7c0,-.1,.1,-.1,.2,-.1c0,0,.1,0,.2,0c0,.1,-.1,.1,-.2,.1c-.1,0,-.2,0,-.2,0Z" class="g6_30"/>
<path d="M132.5,273.7c-.1,-.3,.1,-.5,.3,-.2c.1,.3,.1,.4,0,.4c-.1,.1,-.2,0,-.3,-.2Z" class="g6_30"/>
<path d="M140.3,272.5c-.1,-.1,.8,-.4,.9,-.3q.1,.1,0,.2c-.3,.1,-.9,.2,-.9,.1Z" class="g6_30"/>
<path d="M132.2,273.1c-.1,0,-.1,-.1,-.1,-.2q.1,-.1,.2,0c0,.1,0,.2,0,.2q-.1,0,-.1,0Z" class="g6_30"/>
<path d="M141.6,272c-.1,-.2,0,-1,.2,-1.2c.1,-.1,.3,-.4,.4,-.7c.2,-.2,.4,-.5,.5,-.6c.1,0,.3,-.2,.4,-.3c.4,-.5,2,-1.7,2.8,-2.1c.8,-.5,1.9,-1,2.8,-1.3c.6,-.3,.6,-.4,0,-.3c-.3,.1,-1.3,.2,-2.2,.3c-1.7,.3,-2,.3,-2.4,.5c-.4,.1,-1.2,.6,-1.5,.9c-.1,.1,-.2,.2,-.3,.2c-.2,0,.8,-1,1.2,-1.1c.7,-.3,1.8,-.5,2.4,-.6c.4,0,1.5,-.2,2.4,-.3c.9,-.2,1.7,-.3,1.8,-.3c.3,.1,.3,.3,0,.4c-1.4,.5,-2.5,1,-3.3,1.4c-.8,.4,-1.7,.9,-2,1.1c0,.1,-.2,.3,-.4,.4c-1,.9,-1.8,1.7,-2,2c-.1,.1,-.2,.3,-.3,.3c-.1,0,-.4,.7,-.4,1c0,.3,-.1,.4,-.1,.3Z" class="g6_30"/>
<path d="M132.6,271.6c-.1,-.1,.6,-.6,1,-.8c.3,-.2,.2,0,-.2,.3c-.4,.4,-.8,.6,-.8,.5Z" class="g6_30"/>
<path d="M141.7,267q-.1,-.1,0,-.1c.1,-.1,.3,-.1,.2,.1c0,0,-.1,0,-.2,0Z" class="g6_30"/>
<path d="M125.9,292.7c-.1,-.1,-.1,-.2,0,-.3c0,0,.1,.1,.1,.2c.1,.1,.1,.2,.1,.2c-.1,0,-.2,-.1,-.2,-.1Z" class="g7_30"/>
<path d="M129,292.1c0,0,0,-.1,.1,-.1q.2,-.1,.2,0c-.1,.2,-.4,.2,-.3,.1Z" class="g7_30"/>
<path d="M125.6,292.1c0,-.1,0,-.2,.1,-.2c0,.1,.1,.1,.1,.2q0,.2,-.2,0Z" class="g7_30"/>
<path d="M129.5,291.7c0,-.1,.2,-.3,.4,-.5c.2,-.1,.5,-.4,.5,-.5c.2,-.3,.4,-.4,.4,-.2c0,.1,-1,1.1,-1.2,1.2q-.1,0,-.1,0Z" class="g7_30"/>
<path d="M125.4,291.4c-.1,-.1,-.1,-.3,-.1,-.4q0,-.1,.1,.1c0,.1,.1,.3,.1,.4q0,.1,-.1,-.1Z" class="g7_30"/>
<path d="M131.2,289.9c.2,-.4,1,-1.3,1.1,-1.5q.1,0,.1,0c.1,.1,0,.2,-.2,.4c-.1,.1,-.4,.5,-.6,.8c-.5,.7,-.8,.8,-.4,.3Z" class="g7_30"/>
<path d="M124.8,289.4q0,-.1,0,-.2q.1,0,.2,.1q0,.1,0,.2q-.1,0,-.2,-.1Z" class="g7_30"/>
<path d="M132.5,288.2c0,-.2,.6,-1.2,.7,-1.2c.1,.1,-.6,1.4,-.7,1.4c0,0,0,-.1,0,-.2Z" class="g7_30"/>
<path d="M124.8,288.8c-.1,-.1,-.1,-.2,-.1,-.3c.1,-.3,.2,-.1,.2,.2c0,.1,-.1,.1,-.1,.1Z" class="g7_30"/>
<path d="M124.7,288.1c0,-.1,0,-.3,0,-.3c.1,-.1,.1,0,.1,.3v.2Z" class="g7_30"/>
<path d="M133.2,286.8c0,-.1,0,-.2,-.1,-.3c-.1,-.2,0,-.2,.1,-.2c.4,-.1,.5,.1,.2,.4c-.1,.2,-.1,.3,-.2,.1Z" class="g7_30"/>
<path d="M124.6,286.9c0,-.2,.1,-.9,.1,-.8c.1,0,.1,.5,0,.7c0,.1,-.1,.2,-.1,.1Z" class="g7_30"/>
<path d="M134,285.9c-.3,0,-.6,0,-.7,-.1q-.2,0,.1,0c.1,0,.5,0,.9,0c.5,0,.6,-.1,1,-.3c.3,-.2,.5,-.5,.6,-.7c.2,-.4,.2,-.3,.1,.2c-.1,.3,-.3,.5,-.7,.7c-.5,.2,-.6,.3,-1.3,.2Z" class="g7_30"/>
<path d="M132.4,285.6c-.4,0,-.4,-.1,-.1,-.1c.2,.1,.3,.1,.3,.1q.1,.1,.1,.1c-.1,0,-.2,0,-.3,-.1Z" class="g7_30"/>
<path d="M127,285.9c-.3,-.2,-.5,-.6,-.4,-.6c.1,0,0,-.2,-.1,-.4c-.3,-.6,-1,-2.2,-1,-2.3c0,-.1,.1,0,.3,.4c.1,.4,.6,1.2,1,1.8c.3,.7,.6,1.2,.6,1.2c-.1,0,-.2,0,-.4,-.1Z" class="g7_30"/>
<path d="M124.7,285.6c-.1,-.1,0,-.8,.2,-.9c0,0,0,.1,0,.3c0,.4,-.1,.8,-.2,.6Z" class="g7_30"/>
<path d="M136.1,284.2c0,-.1,.1,-.3,.1,-.4q.1,-.1,.1,.1c0,.1,-.1,.2,-.1,.3q-.1,.1,-.1,0Z" class="g7_30"/>
<path d="M126.2,285c-.1,-.1,-.1,-.2,0,-.1c0,0,.1,.1,.1,.2c0,0,-.1,0,-.1,-.1Z" class="g7_30"/>
<path d="M124.9,284.5c0,0,0,-.2,.1,-.3c0,-.2,.1,-.4,.1,-.5c0,-.4,.3,-.2,.4,.2c0,.2,0,.3,0,.2c-.1,-.2,-.4,-.2,-.4,-.1c.1,.1,-.1,.6,-.2,.5Z" class="g7_30"/>
<path d="M136.3,283.5c0,0,.1,-.2,.1,-.4q.1,-.3,.1,.1c0,.2,-.1,.4,-.2,.3Z" class="g7_30"/>
<path d="M136.5,282.2c0,-.1,0,-.2,.1,-.2c0,-.1,.1,0,0,.1c0,.1,0,.2,0,.2c-.1,.1,-.1,0,-.1,-.1Z" class="g7_30"/>
<path d="M136.7,281.7c-.1,-.1,.1,-.6,.3,-.9c.2,-.2,.2,-.4,.2,-.5c-.1,0,-.3,0,-.7,0c-.7,.1,-.8,0,-.1,-.2c.4,0,.8,-.1,.9,-.1c.3,-.1,.3,.1,-.1,.9c-.3,.5,-.5,.8,-.5,.8Z" class="g7_30"/>
<path d="M129.5,281.6c-.1,-.1,-.3,-.3,-.5,-.4c-.3,-.2,-.7,-.8,-.5,-.8c.1,.1,.2,.1,.2,.2c.1,.1,.3,.2,.4,.3c.2,.1,.4,.2,.6,.5c.3,.3,.2,.4,-.2,.2Z" class="g7_30"/>
<path d="M125.3,281.6c0,-.1,0,-.4,0,-.5c.1,-.3,.6,-1.7,.7,-1.7c.1,-.1,.1,.1,-.2,.8c-.1,.4,-.3,1,-.3,1.2q-.1,.4,-.2,.2Z" class="g7_30"/>
<path d="M135.4,280.2c-.2,-.1,-.3,-.1,-.3,-.2c-.1,-.1,.7,-.5,1,-.5c.3,0,.2,.1,-.2,.2c-.5,.2,-.6,.3,-.4,.4q.2,.1,-.1,.1Z" class="g7_30"/>
<path d="M128.8,280.2c-.1,-.1,-.1,-.3,-.2,-.5q0,-.2,.1,0c0,.1,.1,.3,.1,.4q.1,.2,0,.1Z" class="g7_30"/>
<path d="M136.9,279.3c.1,0,.2,0,.3,0c.1,.1,0,.1,-.2,.1q-.3,0,-.1,-.1Z" class="g7_30"/>
<path d="M137.5,279c.1,-.2,.2,-.3,.2,-.3c.1,0,-.1,.5,-.2,.6c0,0,0,-.1,0,-.3Z" class="g7_30"/>
<path d="M128.4,279.2c-.1,-.1,-.2,-.2,-.1,-.3q0,-.1,.1,.1c.2,.3,.2,.4,0,.2Z" class="g7_30"/>
<path d="M137.9,278.2c0,-.1,.1,-.2,.1,-.2c.1,.1,0,.4,-.1,.4c-.1,0,-.1,-.1,0,-.2Z" class="g7_30"/>
<path d="M127.3,279.1q-.1,-.2,0,-.1c.2,0,.2,.1,.1,.1q0,.1,-.1,0Z" class="g7_30"/>
<path d="M126,279.1c-.1,-.1,.5,-.9,.7,-.9c.3,0,.3,.2,.1,.3c-.2,0,-.4,.2,-.5,.4c-.1,.3,-.2,.3,-.3,.2Z" class="g7_30"/>
<path d="M127.6,278.6c-.1,-.1,-.1,-.3,-.1,-.4c.1,0,.4,.5,.3,.6q0,.1,-.2,-.2Z" class="g7_30"/>
<path d="M138,277.7c0,-.1,.2,-.4,.3,-.4c.1,0,.1,-.2,.2,-.3c.1,-.5,1,-1.9,2,-3.3c.1,-.3,.1,-.4,0,-.5c-.1,-.1,-.1,-.2,.1,-.3c.1,-.1,.2,-.1,.3,-.1c.2,.1,0,.8,-.2,1c-.3,.2,-1.4,1.9,-1.7,2.4c-.6,1.2,-.9,1.7,-1,1.5Z" class="g7_30"/>
<path d="M127.9,278.2q-.1,-.1,0,-.1c0,0,.1,0,.1,0q0,.1,0,.2c0,0,-.1,0,-.1,-.1Z" class="g7_30"/>
<path d="M127.5,277.6c0,-.1,0,-.2,0,-.3c0,-.1,0,0,.1,.2c.1,.1,.2,.2,.1,.3c0,0,-.1,-.1,-.2,-.2Z" class="g7_30"/>
<path d="M127.7,276.9c-.1,-.2,0,-.5,.1,-.4c.1,0,.1,.1,0,.2c0,.1,-.1,.2,-.1,.2Z" class="g7_30"/>
<path d="M128,276c0,-.1,.1,-.3,.3,-.4c.1,-.1,.2,-.3,.2,-.3c.1,-.1,.1,-.2,.2,-.2c.1,0,0,.2,-.4,.7c-.2,.3,-.3,.4,-.3,.2Z" class="g7_30"/>
<path d="M129,274.8c.3,-.4,.8,-.9,.8,-.9c.1,0,-.4,.6,-.7,.9l-.2,.2Z" class="g7_30"/>
<path d="M132.6,273.9c-.1,-.1,-.2,-.4,0,-.4c.1,-.1,.3,.3,.2,.4c0,0,-.1,0,-.2,0Z" class="g7_30"/>
<path d="M136.3,273.4c.1,-.1,.2,-.2,.3,-.2c0,0,0,.1,-.1,.2c-.1,.1,-.2,.2,-.3,.2c0,0,0,-.1,.1,-.2Z" class="g7_30"/>
<path d="M130.6,273.3c.1,-.1,.2,-.2,.3,-.2c.1,0,-.2,.4,-.4,.4c-.1,0,0,-.1,.1,-.2Z" class="g7_30"/>
<path d="M140.7,272.4c-.1,0,0,0,.1,-.1c.2,-.1,.4,-.1,.4,0c0,.1,-.4,.2,-.5,.1Z" class="g7_30"/>
<path d="M131.3,272.6c.2,-.3,.5,-.4,.6,-.3c.1,.1,-.2,.3,-.7,.6c0,0,0,-.1,.1,-.3Z" class="g7_30"/>
<path d="M141.6,271.3c0,-.1,.1,-.2,.1,-.3c.1,-.1,.2,-.2,.2,-.2c0,.1,0,.2,-.1,.3c-.1,.1,-.1,.2,-.2,.2Z" class="g7_30"/>
<path d="M142.2,270.3c.2,-.5,.8,-1.1,2.4,-2.3c.8,-.7,2.6,-1.7,3.6,-2c1,-.3,1.1,-.4,1.1,-.6c-.2,-.2,.7,-.4,.9,-.2c.2,.1,.1,.3,-.1,.3c-.1,0,-.5,.1,-.8,.3c-.4,.2,-1,.4,-1.3,.5c-1.1,.4,-1.9,.9,-2.4,1.2c-.2,.2,-.5,.4,-.6,.4c-.1,0,-.4,.2,-.5,.4c-.2,.2,-.4,.3,-.4,.3c0,0,-.2,.1,-.4,.3c-1.1,1,-1.3,1.3,-1.3,1.5c0,.1,-.1,.2,-.2,.2c-.1,0,-.1,-.1,0,-.3Z" class="g7_30"/>
<path d="M133,271.3q0,-.1,.1,-.1c0,0,.1,0,0,.1c0,0,0,.1,-.1,.1c0,0,0,-.1,0,-.1Z" class="g7_30"/>
<path d="M142.3,267.4c0,-.1,0,-.2,.1,-.2c.1,-.1,.2,-.1,.2,-.1c0,0,0,.1,-.1,.2c-.1,.1,-.2,.1,-.2,.1Z" class="g7_30"/>
<path d="M143,266.6c.1,-.2,.5,-.3,.5,-.2c.1,.1,-.3,.3,-.5,.4q-.2,.1,0,-.2Z" class="g7_30"/>
<path d="M144.6,266c.1,0,.2,-.1,.3,-.1q.1,0,0,.1c-.1,0,-.2,.1,-.3,.1q-.1,0,0,-.1Z" class="g7_30"/>
<path d="M145.2,265.9c0,-.1,.4,-.1,.9,-.2c.6,0,.9,0,.9,0c0,.1,-.4,.1,-.9,.2c-.6,0,-.9,0,-.9,0Z" class="g7_30"/>
<path d="M147.1,265.6c.1,0,.4,-.1,.9,-.1c.5,-.1,.7,-.1,.6,0c-.3,.1,-1.5,.2,-1.5,.1Z" class="g7_30"/>
<path d="M125.8,299.4c0,0,0,-.3,0,-.7c0,-.4,0,-.7,0,-.7c0,-.1,0,-.9,0,-1q.1,-.1,.5,0c.9,.5,1.2,.3,1,-.7c-.1,-1,.1,-1.1,.3,-.1c.1,.7,.1,.8,-.2,1c-.6,.5,-1.5,2,-1.4,2.2c.1,0,0,.1,-.1,.1c0,0,-.1,0,-.1,-.1Z" class="g8_30"/>
<path d="M127.3,295.4c0,-.1,0,-.7,.1,-.8c.1,-.1,.1,0,.1,.4c-.1,.4,-.1,.5,-.2,.4Z" class="g8_30"/>
<path d="M127.3,294.2c0,-.1,0,-.3,0,-.6c0,-.3,.1,-.8,.1,-1.1c.1,-1,.5,-3.2,.7,-3.2c0,0,0,.1,0,.3c0,.1,-.1,.4,-.1,.5c0,.2,-.1,.4,-.1,.6c-.2,.7,-.3,2.1,-.1,2.2c0,.1,0,.2,-.1,.2c0,0,-.1,.3,-.2,.6c0,.4,-.1,.6,-.2,.5Z" class="g8_30"/>
<path d="M126.2,293.8c0,0,0,-.1,.1,-.2c0,0,0,-.2,0,-.3c-.1,-.2,.2,-.6,.3,-.5c0,.1,-.2,1.1,-.3,1.1l-.1,-.1Z" class="g8_30"/>
<path d="M125.9,292.7c-.1,-.1,-.1,-.2,0,-.3c0,0,.1,.1,.1,.2c.1,.1,.1,.2,.1,.2c-.1,0,-.2,-.1,-.2,-.1Z" class="g8_30"/>
<path d="M126.5,292.5c0,0,0,-.4,.2,-.8c.1,-.4,.2,-1,.3,-1.4c.1,-.4,.2,-.7,.3,-.8c.1,-.1,.1,0,0,.3c0,.3,-.1,.5,-.1,.6c-.1,.8,-.6,2.3,-.7,2.1Z" class="g8_30"/>
<path d="M129,292.1c0,0,0,-.1,.1,-.1q.2,-.1,.2,0c-.1,.2,-.4,.2,-.3,.1Z" class="g8_30"/>
<path d="M125.6,292.1c0,-.1,0,-.2,.1,-.2c0,.1,.1,.1,.1,.2q0,.2,-.2,0Z" class="g8_30"/>
<path d="M129.5,291.7c0,-.1,.2,-.3,.4,-.5c.2,-.1,.5,-.4,.5,-.5c.2,-.3,.4,-.4,.4,-.2c0,.1,-1,1.1,-1.2,1.2q-.1,0,-.1,0Z" class="g8_30"/>
<path d="M125.4,291.4c-.1,-.1,-.1,-.3,-.1,-.4q0,-.1,.1,.1c0,.1,.1,.3,.1,.4q0,.1,-.1,-.1Z" class="g8_30"/>
<path d="M131.2,289.9c.2,-.4,1,-1.3,1.1,-1.5q.1,0,.1,0c.1,.1,0,.2,-.2,.4c-.1,.1,-.4,.5,-.6,.8c-.5,.7,-.8,.8,-.4,.3Z" class="g8_30"/>
<path d="M124.8,289.4q0,-.1,0,-.2q.1,0,.2,.1q0,.1,0,.2q-.1,0,-.2,-.1Z" class="g8_30"/>
<path d="M128.1,289.1c0,-.5,1.5,-4,2.7,-6.1c.2,-.5,.5,-1,.5,-1.2c0,-.3,.2,-.5,.3,-.3c.1,.1,-.2,.8,-1.3,2.8c-.5,1,-1,2.1,-1.2,2.5c-.2,.6,-.6,1.5,-.9,2.1c-.1,.2,-.1,.3,-.1,.2Z" class="g8_30"/>
<path d="M127.5,288.8c0,0,0,-.1,.1,-.1c0,0,.1,0,.1,0q0,.1,0,.1q-.1,0,-.2,0Z" class="g8_30"/>
<path d="M132.5,288.2c0,-.2,.6,-1.2,.7,-1.2c.1,.1,-.6,1.4,-.7,1.4c0,0,0,-.1,0,-.2Z" class="g8_30"/>
<path d="M124.8,288.8c-.1,-.1,-.1,-.2,-.1,-.3c.1,-.3,.2,-.1,.2,.2c0,.1,-.1,.1,-.1,.1Z" class="g8_30"/>
<path d="M127.6,288.2c0,0,0,-.1,.1,-.1q.1,0,.1,0c.1,.2,-.1,.3,-.2,.1Z" class="g8_30"/>
<path d="M124.7,288.1c0,-.1,0,-.3,0,-.3c.1,-.1,.1,0,.1,.3v.2Z" class="g8_30"/>
<path d="M127.9,287.8c-.1,0,.3,-.7,.4,-.6c0,0,-.1,.2,-.2,.3c-.1,.3,-.2,.4,-.2,.3Z" class="g8_30"/>
<path d="M133.2,286.8c0,-.1,0,-.2,-.1,-.3c-.1,-.2,0,-.2,.1,-.2c.4,-.1,.5,.1,.2,.4c-.1,.2,-.1,.3,-.2,.1Z" class="g8_30"/>
<path d="M128.3,287c0,-.1,.2,-.6,.5,-1.1c.3,-.6,.4,-.8,.3,-.5c-.2,.5,-.9,1.9,-.8,1.6Z" class="g8_30"/>
<path d="M124.6,286.9c0,-.2,.1,-.9,.1,-.8c.1,0,.1,.5,0,.7c0,.1,-.1,.2,-.1,.1Z" class="g8_30"/>
<path d="M134,285.9c-.3,0,-.6,0,-.7,-.1q-.2,0,.1,0c.1,0,.5,0,.9,0c.5,0,.6,-.1,1,-.3c.3,-.2,.5,-.5,.6,-.7c.2,-.4,.2,-.3,.1,.2c-.1,.3,-.3,.5,-.7,.7c-.5,.2,-.6,.3,-1.3,.2Z" class="g8_30"/>
<path d="M132.4,285.6c-.4,0,-.4,-.1,-.1,-.1c.2,.1,.3,.1,.3,.1q.1,.1,.1,.1c-.1,0,-.2,0,-.3,-.1Z" class="g8_30"/>
<path d="M127,285.9c-.3,-.2,-.5,-.6,-.4,-.6c.1,0,0,-.2,-.1,-.4c-.3,-.6,-1,-2.2,-1,-2.3c0,-.1,.1,0,.3,.4c.1,.4,.6,1.2,1,1.8c.3,.7,.6,1.2,.6,1.2c-.1,0,-.2,0,-.4,-.1Z" class="g8_30"/>
<path d="M124.7,285.6c-.1,-.1,0,-.8,.2,-.9c0,0,0,.1,0,.3c0,.4,-.1,.8,-.2,.6Z" class="g8_30"/>
<path d="M136.1,284.2c0,-.1,.1,-.3,.1,-.4q.1,-.1,.1,.1c0,.1,-.1,.2,-.1,.3q-.1,.1,-.1,0Z" class="g8_30"/>
<path d="M126.2,285c-.1,-.1,-.1,-.2,0,-.1c0,0,.1,.1,.1,.2c0,0,-.1,0,-.1,-.1Z" class="g8_30"/>
<path d="M129.3,284.6c.1,-.2,.2,-.3,.2,-.3c.1,.1,0,.3,-.1,.5q-.2,0,-.1,-.2Z" class="g8_30"/>
<path d="M129.8,283.6c.1,-.3,.3,-.5,.3,-.6c0,0,.2,-.4,.5,-.9c.2,-.5,.6,-1.2,.7,-1.4c.2,-.2,.5,-.7,.8,-1.2c.4,-.7,.6,-.9,.7,-.8c0,.1,-.2,.4,-1,1.6c-.2,.3,-.5,.8,-.7,1.1c-.1,.2,-.3,.7,-.5,1.1c-.2,.4,-.5,1,-.6,1.2c-.3,.7,-.5,.6,-.2,-.1Z" class="g8_30"/>
<path d="M124.9,284.5c0,0,0,-.2,.1,-.3c0,-.2,.1,-.4,.1,-.5c0,-.4,.3,-.2,.4,.2c0,.2,0,.3,0,.2c-.1,-.2,-.4,-.2,-.4,-.1c.1,.1,-.1,.6,-.2,.5Z" class="g8_30"/>
<path d="M136.3,283.5c0,0,.1,-.2,.1,-.4q.1,-.3,.1,.1c0,.2,-.1,.4,-.2,.3Z" class="g8_30"/>
<path d="M136.5,282.2c0,-.1,0,-.2,.1,-.2c0,-.1,.1,0,0,.1c0,.1,0,.2,0,.2c-.1,.1,-.1,0,-.1,-.1Z" class="g8_30"/>
<path d="M136.7,281.7c-.1,-.1,.1,-.6,.3,-.9c.2,-.2,.2,-.4,.2,-.5c-.1,0,-.3,0,-.7,0c-.7,.1,-.8,0,-.1,-.2c.4,0,.8,-.1,.9,-.1c.3,-.1,.3,.1,-.1,.9c-.3,.5,-.5,.8,-.5,.8Z" class="g8_30"/>
<path d="M129.5,281.6c-.1,-.1,-.3,-.3,-.5,-.4c-.3,-.2,-.7,-.8,-.5,-.8c.1,.1,.2,.1,.2,.2c.1,.1,.3,.2,.4,.3c.2,.1,.4,.2,.6,.5c.3,.3,.2,.4,-.2,.2Z" class="g8_30"/>
<path d="M125.3,281.6c0,-.1,0,-.4,0,-.5c.1,-.3,.6,-1.7,.7,-1.7c.1,-.1,.1,.1,-.2,.8c-.1,.4,-.3,1,-.3,1.2q-.1,.4,-.2,.2Z" class="g8_30"/>
<path d="M135.4,280.2c-.2,-.1,-.3,-.1,-.3,-.2c-.1,-.1,.7,-.5,1,-.5c.3,0,.2,.1,-.2,.2c-.5,.2,-.6,.3,-.4,.4q.2,.1,-.1,.1Z" class="g8_30"/>
<path d="M128.8,280.2c-.1,-.1,-.1,-.3,-.2,-.5q0,-.2,.1,0c0,.1,.1,.3,.1,.4q.1,.2,0,.1Z" class="g8_30"/>
<path d="M136.9,279.3c.1,0,.2,0,.3,0c.1,.1,0,.1,-.2,.1q-.3,0,-.1,-.1Z" class="g8_30"/>
<path d="M137.5,279c.1,-.2,.2,-.3,.2,-.3c.1,0,-.1,.5,-.2,.6c0,0,0,-.1,0,-.3Z" class="g8_30"/>
<path d="M128.4,279.2c-.1,-.1,-.2,-.2,-.1,-.3q0,-.1,.1,.1c.2,.3,.2,.4,0,.2Z" class="g8_30"/>
<path d="M137.9,278.2c0,-.1,.1,-.2,.1,-.2c.1,.1,0,.4,-.1,.4c-.1,0,-.1,-.1,0,-.2Z" class="g8_30"/>
<path d="M127.3,279.1q-.1,-.2,0,-.1c.2,0,.2,.1,.1,.1q0,.1,-.1,0Z" class="g8_30"/>
<path d="M126,279.1c-.1,-.1,.5,-.9,.7,-.9c.3,0,.3,.2,.1,.3c-.2,0,-.4,.2,-.5,.4c-.1,.3,-.2,.3,-.3,.2Z" class="g8_30"/>
<path d="M127.6,278.6c-.1,-.1,-.1,-.3,-.1,-.4c.1,0,.4,.5,.3,.6q0,.1,-.2,-.2Z" class="g8_30"/>
<path d="M133,278.1c.1,-.2,.2,-.4,.3,-.3c.1,0,-.3,.6,-.4,.7c-.1,0,0,-.2,.1,-.4Z" class="g8_30"/>
<path d="M138,277.7c0,-.1,.2,-.4,.3,-.4c.1,0,.1,-.2,.2,-.3c.1,-.5,1,-1.9,2,-3.3c.1,-.3,.1,-.4,0,-.5c-.1,-.1,-.1,-.2,.1,-.3c.1,-.1,.2,-.1,.3,-.1c.2,.1,0,.8,-.2,1c-.3,.2,-1.4,1.9,-1.7,2.4c-.6,1.2,-.9,1.7,-1,1.5Z" class="g8_30"/>
<path d="M127.9,278.2q-.1,-.1,0,-.1c0,0,.1,0,.1,0q0,.1,0,.2c0,0,-.1,0,-.1,-.1Z" class="g8_30"/>
<path d="M133.4,277.6c0,-.1,.5,-1,.8,-1.4c.1,-.2,.3,-.4,.4,-.6c.2,-.4,.8,-1.1,.9,-1c0,0,0,.1,-.1,.2c-.1,.1,-.3,.3,-.3,.4c-.1,0,-.3,.4,-.5,.7c-.3,.3,-.6,.8,-.7,1.1c-.3,.5,-.4,.7,-.5,.6Z" class="g8_30"/>
<path d="M127.5,277.6c0,-.1,0,-.2,0,-.3c0,-.1,0,0,.1,.2c.1,.1,.2,.2,.1,.3c0,0,-.1,-.1,-.2,-.2Z" class="g8_30"/>
<path d="M127.7,276.9c-.1,-.2,0,-.5,.1,-.4c.1,0,.1,.1,0,.2c0,.1,-.1,.2,-.1,.2Z" class="g8_30"/>
<path d="M128,276c0,-.1,.1,-.3,.3,-.4c.1,-.1,.2,-.3,.2,-.3c.1,-.1,.1,-.2,.2,-.2c.1,0,0,.2,-.4,.7c-.2,.3,-.3,.4,-.3,.2Z" class="g8_30"/>
<path d="M129,274.8c.3,-.4,.8,-.9,.8,-.9c.1,0,-.4,.6,-.7,.9l-.2,.2Z" class="g8_30"/>
<path d="M135.9,273.9c.1,-.1,.2,-.2,.2,-.2c0,0,0,.2,-.1,.3l-.2,.2Z" class="g8_30"/>
<path d="M132.6,273.9c-.1,-.1,-.2,-.4,0,-.4c.1,-.1,.3,.3,.2,.4c0,0,-.1,0,-.2,0Z" class="g8_30"/>
<path d="M130.6,273.3c.1,-.1,.2,-.2,.3,-.2c.1,0,-.2,.4,-.4,.4c-.1,0,0,-.1,.1,-.2Z" class="g8_30"/>
<path d="M140.7,272.4c-.1,0,0,0,.1,-.1c.2,-.1,.4,-.1,.4,0c0,.1,-.4,.2,-.5,.1Z" class="g8_30"/>
<path d="M131.3,272.6c.2,-.3,.5,-.4,.6,-.3c.1,.1,-.2,.3,-.7,.6c0,0,0,-.1,.1,-.3Z" class="g8_30"/>
<path d="M141.6,271.3c0,-.1,.1,-.2,.1,-.3c.1,-.1,.2,-.2,.2,-.2c0,.1,0,.2,-.1,.3c-.1,.1,-.1,.2,-.2,.2Z" class="g8_30"/>
<path d="M142.2,270.3c.2,-.5,.8,-1.1,2.4,-2.3c.8,-.7,2.6,-1.7,3.6,-2c1,-.3,1.1,-.4,1.1,-.6c-.2,-.2,.7,-.4,.9,-.2c.2,.1,.1,.3,-.1,.3c-.1,0,-.5,.1,-.8,.3c-.4,.2,-1,.4,-1.3,.5c-1.1,.4,-1.9,.9,-2.4,1.2c-.2,.2,-.5,.4,-.6,.4c-.1,0,-.4,.2,-.5,.4c-.2,.2,-.4,.3,-.4,.3c0,0,-.2,.1,-.4,.3c-1.1,1,-1.3,1.3,-1.3,1.5c0,.1,-.1,.2,-.2,.2c-.1,0,-.1,-.1,0,-.3Z" class="g8_30"/>
<path d="M133,271.3q0,-.1,.1,-.1c0,0,.1,0,0,.1c0,0,0,.1,-.1,.1c0,0,0,-.1,0,-.1Z" class="g8_30"/>
<path d="M142.3,267.4c0,-.1,0,-.2,.1,-.2c.1,-.1,.2,-.1,.2,-.1c0,0,0,.1,-.1,.2c-.1,.1,-.2,.1,-.2,.1Z" class="g8_30"/>
<path d="M143,266.6c.1,-.2,.5,-.3,.5,-.2c.1,.1,-.3,.3,-.5,.4q-.2,.1,0,-.2Z" class="g8_30"/>
<path d="M144.6,266c.1,0,.2,-.1,.3,-.1q.1,0,0,.1c-.1,0,-.2,.1,-.3,.1q-.1,0,0,-.1Z" class="g8_30"/>
<path d="M145.2,265.9c0,-.1,.4,-.1,.9,-.2c.6,0,.9,0,.9,0c0,.1,-.4,.1,-.9,.2c-.6,0,-.9,0,-.9,0Z" class="g8_30"/>
<path d="M147.1,265.6c.1,0,.4,-.1,.9,-.1c.5,-.1,.7,-.1,.6,0c-.3,.1,-1.5,.2,-1.5,.1Z" class="g8_30"/>
<path d="M128.2,279.2q-.1,-.2,-.1,-.1c-.1,.1,0,.3,.1,.3c.1,0,.1,-.1,0,-.2Z" class="g3_30"/>
</g>
<path d="M152.7,291.3H483.8" class="ga_30"/>
<path d="M137.6,300.5V478.9" class="gb_30"/>
</svg>