<?xml version="1.0" encoding="UTF-8" standalone="no"?>
<!DOCTYPE svg PUBLIC "-//W3C//DTD SVG 1.1//EN"
"http://www.w3.org/Graphics/SVG/1.1/DTD/svg11.dtd">
<svg viewBox="0 0 909 1286" version="1.1" xmlns="http://www.w3.org/2000/svg" xmlns:xlink="http://www.w3.org/1999/xlink">
<defs>
<style type="text/css"><![CDATA[
.g0_25{
fill: none;
stroke: #000000;
stroke-width: 0.73;
stroke-linecap: butt;
stroke-linejoin: miter;
}
.g1_25{
fill: #FFFFFF;
}
.g2_25{
fill: #7F7F7F;
stroke: #7F7F7F;
stroke-width: 0.66;
stroke-linecap: butt;
stroke-linejoin: round;
stroke-miterlimit: 1;
}
.g3_25{
fill: #F81693;
stroke: #F81693;
stroke-width: 0.66;
stroke-linecap: butt;
stroke-linejoin: round;
stroke-miterlimit: 1;
}
.g4_25{
fill: #02B5EE;
stroke: #02B5EE;
stroke-width: 0.66;
stroke-linecap: butt;
stroke-linejoin: round;
stroke-miterlimit: 1;
}
]]></style>
</defs>
<path d="M116.9,285.4H707M443.6,315V285.8" class="g0_25"/>
<path d="M130.5,407.1V322.8c0,-2.9,2.3,-5.2,5.2,-5.2H424.5c2.8,0,5.2,2.3,5.2,5.2v84.3c0,2.9,-2.4,5.2,-5.2,5.2H135.7c-2.9,0,-5.2,-2.3,-5.2,-5.2Z" class="g1_25"/>
<path d="M210.1,324.8l-31.3,18.6m31.3,-18.6l31.2,18.6m-31.2,55.5L178.8,380.3m31.3,18.6l31.2,-18.6m0,-.2V343.6m-62.5,36.5V343.6m93.7,-18.8l-31.2,18.6m31.2,-18.6l31.3,18.6m-31.3,55.5L241.3,380.3m31.2,18.6l31.3,-18.6m0,-.2V343.6M335,324.8l-31.2,18.6M335,324.8l31.2,18.6m0,36.7V343.6M335,398.9l31.2,-18.6M335,398.9L303.8,380.3m32.3,-47.9l23,13.7m-23,45.2l23,-13.7m-85.5,13.7l-23,-13.7m23,-45.2l-23,13.7M209,391.3L185.9,377.6M209,332.4l-23.1,13.7m123.5,29.3V348.3m134.2,66.6V315m58.8,9.8l-31.2,18.6m31.2,-18.6l31.2,18.6m-31.2,55.5L471.2,380.3m31.2,18.6l31.2,-18.6m0,-.2V343.6m-62.4,36.5V343.6m93.7,-18.8l-31.3,18.6m31.3,-18.6l31.2,18.6m-31.2,55.5L533.6,380.3m31.3,18.6l31.2,-18.6m0,-.2V343.6m31.2,-18.8l-31.2,18.6m31.2,-18.6l31.3,18.6m0,36.7V343.6m-31.3,55.3l31.3,-18.6m-31.3,18.6L596.1,380.3M501.3,332.4l-23,13.7m23,45.2l-23,-13.7M566,332.4l-23.1,13.7M566,391.3L542.9,377.6m85.5,-45.2l23,13.7m-23,45.2l23,-13.7m-49.6,-2.2V348.3" class="g0_25"/>
<path d="M632,324.8c0,2,-1.3,3.7,-3.2,4.4c-1.9,.6,-4,-.1,-5.2,-1.7c-1.2,-1.6,-1.2,-3.8,0,-5.4c1.2,-1.7,3.3,-2.3,5.2,-1.7c1.9,.6,3.2,2.4,3.2,4.4Z" class="g2_25"/>
<path d="M663.2,343.6c0,2,-1.3,3.8,-3.2,4.4c-1.9,.6,-4,-.1,-5.2,-1.7c-1.1,-1.6,-1.1,-3.8,0,-5.4c1.2,-1.7,3.3,-2.3,5.2,-1.7c1.9,.6,3.2,2.4,3.2,4.4Z" class="g2_25"/>
<path d="M663.2,380.1c0,2,-1.3,3.8,-3.2,4.4c-1.9,.6,-4,-.1,-5.2,-1.7c-1.1,-1.6,-1.1,-3.8,0,-5.4c1.2,-1.6,3.3,-2.3,5.2,-1.7c1.9,.6,3.2,2.4,3.2,4.4Z" class="g2_25"/>
<path d="M632,398.9c0,2,-1.3,3.8,-3.2,4.4c-1.9,.6,-4,0,-5.2,-1.7c-1.2,-1.6,-1.2,-3.8,0,-5.4c1.2,-1.6,3.3,-2.3,5.2,-1.7c1.9,.7,3.2,2.4,3.2,4.4Z" class="g3_25"/>
<path d="M569.5,398.9c0,2,-1.3,3.8,-3.2,4.4c-1.9,.6,-4,0,-5.2,-1.7c-1.2,-1.6,-1.2,-3.8,0,-5.4c1.2,-1.6,3.3,-2.3,5.2,-1.7c1.9,.7,3.2,2.4,3.2,4.4Z" class="g4_25"/>
<path d="M507,398.9c0,2,-1.3,3.8,-3.2,4.4c-1.9,.6,-4,0,-5.1,-1.7c-1.2,-1.6,-1.2,-3.8,0,-5.4c1.1,-1.6,3.2,-2.3,5.1,-1.7c1.9,.7,3.2,2.4,3.2,4.4Z" class="g3_25"/>
<path d="M475.8,380.1c0,2,-1.3,3.8,-3.2,4.4c-1.9,.6,-4,-.1,-5.2,-1.7c-1.2,-1.6,-1.2,-3.8,0,-5.4c1.2,-1.6,3.3,-2.3,5.2,-1.7c1.9,.6,3.2,2.4,3.2,4.4Z" class="g2_25"/>
<path d="M475.8,343.6c0,2,-1.3,3.8,-3.2,4.4c-1.9,.6,-4,-.1,-5.2,-1.7c-1.2,-1.6,-1.2,-3.8,0,-5.4c1.2,-1.7,3.3,-2.3,5.2,-1.7c1.9,.6,3.2,2.4,3.2,4.4Z" class="g2_25"/>
<path d="M507,324.8c0,2,-1.3,3.7,-3.2,4.4c-1.9,.6,-4,-.1,-5.1,-1.7c-1.2,-1.6,-1.2,-3.8,0,-5.4c1.1,-1.7,3.2,-2.3,5.1,-1.7c1.9,.6,3.2,2.4,3.2,4.4Z" class="g2_25"/>
<path d="M569.5,324.8c0,2,-1.3,3.7,-3.2,4.4c-1.9,.6,-4,-.1,-5.2,-1.7c-1.2,-1.6,-1.2,-3.8,0,-5.4c1.2,-1.7,3.3,-2.3,5.2,-1.7c1.9,.6,3.2,2.4,3.2,4.4Z" class="g4_25"/>
<path d="M443.6,444.1V414.9m0,58.5V444.1M116.9,473.7H707" class="g0_25"/>
<path d="M130.5,621V481.9c0,-2.9,2.3,-5.2,5.2,-5.2H424.5c2.8,0,5.2,2.3,5.2,5.2V621c0,2.9,-2.4,5.2,-5.2,5.2H135.7c-2.9,0,-5.2,-2.3,-5.2,-5.2Z" class="g1_25"/>
<path d="M190,583.6l18.8,-31.2m0,0h36.5m18.8,31.2L245.3,552.4m18.8,31.2l-18.8,31.3m-36.5,0h36.5M190,583.6l18.8,31.3M197.6,582.5l14.3,-23.7m1.6,50h27.1m4.7,-56.4l18.8,-31.3m0,0h36.6m18.8,31.3L300.7,521.1m18.8,31.3l-18.8,31.2m-36.6,0h36.6M268.9,527.2h27M253,553.5l14.2,23.7m52.3,-24.8H356m18.8,31.2L356,552.4m18.8,31.2L356,614.9m-36.5,0H356M300.7,583.6l18.8,31.3m47.6,-32.4L352.9,558.8m-28.7,50h27.1m92.3,20V474.1m38.7,109.5l18.8,-31.2m0,0h36.5m18.9,31.2L537.6,552.4m18.9,31.2l-18.9,31.3m-36.5,0h36.5M482.3,583.6l18.8,31.3M490,582.5l14.2,-23.7m1.7,50h27" class="g0_25"/>
<path d="M542.3,614.9c0,2,-1.3,3.7,-3.2,4.3c-1.9,.7,-4,0,-5.2,-1.6c-1.2,-1.6,-1.2,-3.8,0,-5.5c1.2,-1.6,3.3,-2.3,5.2,-1.6c1.9,.6,3.2,2.4,3.2,4.4Z" class="g3_25"/>
<path d="M505.7,614.9c0,2,-1.3,3.7,-3.2,4.3c-1.9,.7,-3.9,0,-5.1,-1.6c-1.2,-1.6,-1.2,-3.8,0,-5.5c1.2,-1.6,3.2,-2.3,5.1,-1.6c1.9,.6,3.2,2.4,3.2,4.4Z" class="g2_25"/>
<path d="M486.9,583.6c0,2,-1.3,3.8,-3.2,4.4c-1.9,.6,-4,0,-5.1,-1.7c-1.2,-1.6,-1.2,-3.8,0,-5.4c1.1,-1.6,3.2,-2.3,5.1,-1.7c1.9,.6,3.2,2.4,3.2,4.4Z" class="g2_25"/>
<path d="M505.7,552.4c0,2,-1.3,3.8,-3.2,4.4c-1.9,.6,-3.9,-.1,-5.1,-1.7c-1.2,-1.6,-1.2,-3.8,0,-5.4c1.2,-1.7,3.2,-2.3,5.1,-1.7c1.9,.6,3.2,2.4,3.2,4.4Z" class="g2_25"/>
<path d="M537.6,552.4l18.9,-31.3m0,0H593m18.8,31.3L593,521.1m18.8,31.3L593,583.6m-36.5,0H593M561.2,527.2h27m-42.9,26.3l14.3,23.7" class="g0_25"/>
<path d="M561.1,521.1c0,2.1,-1.3,3.8,-3.2,4.4c-1.9,.7,-4,0,-5.2,-1.6c-1.2,-1.7,-1.2,-3.8,0,-5.5c1.2,-1.6,3.3,-2.3,5.2,-1.6c1.9,.6,3.2,2.3,3.2,4.3Z" class="g2_25"/>
<path d="M597.6,521.1c0,2.1,-1.3,3.8,-3.2,4.4c-1.9,.7,-4,0,-5.1,-1.6c-1.2,-1.7,-1.2,-3.8,0,-5.5c1.1,-1.6,3.2,-2.3,5.1,-1.6c1.9,.6,3.2,2.3,3.2,4.3Z" class="g2_25"/>
<path d="M611.8,552.4h36.5m18.9,31.2L648.3,552.4m18.9,31.2l-18.9,31.3m-36.5,0h36.5M593,583.6l18.8,31.3m47.7,-32.4L645.2,558.8m-28.6,50h27" class="g0_25"/>
<path d="M653,552.4c0,2,-1.3,3.8,-3.2,4.4c-1.9,.6,-4,-.1,-5.2,-1.7c-1.2,-1.6,-1.2,-3.8,0,-5.4c1.2,-1.7,3.3,-2.3,5.2,-1.7c1.9,.6,3.2,2.4,3.2,4.4Z" class="g2_25"/>
<path d="M671.8,583.6c0,2,-1.3,3.8,-3.2,4.4c-1.9,.6,-4,0,-5.2,-1.7c-1.2,-1.6,-1.2,-3.8,0,-5.4c1.2,-1.6,3.3,-2.3,5.2,-1.7c1.9,.6,3.2,2.4,3.2,4.4Z" class="g2_25"/>
<path d="M653,614.9c0,2,-1.3,3.7,-3.2,4.3c-1.9,.7,-4,0,-5.2,-1.6c-1.2,-1.6,-1.2,-3.8,0,-5.5c1.2,-1.6,3.3,-2.3,5.2,-1.6c1.9,.6,3.2,2.4,3.2,4.4Z" class="g2_25"/>
<path d="M616.4,614.9c0,2,-1.3,3.7,-3.2,4.3c-1.9,.7,-4,0,-5.1,-1.6c-1.2,-1.6,-1.2,-3.8,0,-5.5c1.1,-1.6,3.2,-2.3,5.1,-1.6c1.9,.6,3.2,2.4,3.2,4.4Z" class="g3_25"/>
<path d="M443.6,658.1V628.8m0,58.5V658.1M116.9,687.7H707" class="g0_25"/>
</svg>