<?xml version="1.0" encoding="UTF-8" standalone="no"?>
<!DOCTYPE svg PUBLIC "-//W3C//DTD SVG 1.1//EN"
"http://www.w3.org/Graphics/SVG/1.1/DTD/svg11.dtd">
<svg viewBox="0 0 1286 909" version="1.1" xmlns="http://www.w3.org/2000/svg" xmlns:xlink="http://www.w3.org/1999/xlink">
<defs>
<style type="text/css"><![CDATA[
.g0_513{
fill: none;
stroke: #000000;
stroke-width: 0.73;
stroke-linecap: butt;
stroke-linejoin: miter;
}
.g1_513{
fill: none;
stroke: #02B5EE;
stroke-width: 1.262;
stroke-linecap: butt;
stroke-linejoin: miter;
}
.g2_513{
fill: none;
stroke: #5EE200;
stroke-width: 1.262;
stroke-linecap: butt;
stroke-linejoin: miter;
}
.g3_513{
fill: #FFCCCC;
}
.g4_513{
fill: none;
stroke: #5EE200;
stroke-width: 0.73;
stroke-linecap: butt;
stroke-linejoin: miter;
}
.g5_513{
fill: none;
stroke: #02B5EE;
stroke-width: 0.73;
stroke-linecap: butt;
stroke-linejoin: miter;
}
]]></style>
</defs>
<path d="M193,83.4h900.3M193,111.6H877.4m-684.4,0H877.4M506.5,141.2V112m0,58.5V141.2m0,114.3v-85" class="g0_513"/>
<path d="M615.4,231.5H704" class="g1_513"/>
<path d="M714.5,231.5h22.2" class="g2_513"/>
<path d="M757.7,219.8H866.4V186.9H757.7v32.9Z" class="g3_513"/>
<path d="M506.5,284.7V255.5m0,102.3V284.7" class="g0_513"/>
<path d="M624.9,343.9h34.3" class="g4_513"/>
<path d="M665.3,334H798.8V301.1H665.3V334Z" class="g3_513"/>
<path d="M798.8,343.9h67.6" class="g5_513"/>
<path d="M506.5,387V357.8m0,58.4V387m0,114.2v-85" class="g0_513"/>
<path d="M657.9,477.3h88.6" class="g1_513"/>
<path d="M757,477.3h22.2" class="g2_513"/>
<path d="M506.5,530.5V501.2M193,530.8H877.4m-684.4,0H877.4" class="g0_513"/>
</svg>