<?xml version="1.0" encoding="UTF-8" standalone="no"?>
<!DOCTYPE svg PUBLIC "-//W3C//DTD SVG 1.1//EN"
"http://www.w3.org/Graphics/SVG/1.1/DTD/svg11.dtd">
<svg viewBox="0 0 909 1286" version="1.1" xmlns="http://www.w3.org/2000/svg" xmlns:xlink="http://www.w3.org/1999/xlink">
<defs>
<clipPath id="c0_56"><path d="M155,426.2V189.5H439.9V426.2Z"/></clipPath>
<style type="text/css"><![CDATA[
.g0_56{
fill: none;
stroke: #000000;
stroke-width: 0.584;
stroke-linecap: butt;
stroke-linejoin: miter;
}
.g1_56{
}
.g2_56{
fill: #FB8AC9;
stroke: #FB8AC9;
stroke-width: 1.753;
stroke-linecap: butt;
stroke-linejoin: miter;
}
.g3_56{
fill: none;
stroke: #02B5EE;
stroke-width: 1.753;
stroke-linecap: butt;
stroke-linejoin: miter;
}
.g4_56{
fill: #02B5EE;
stroke: #02B5EE;
stroke-width: 1.753;
stroke-linecap: butt;
stroke-linejoin: miter;
}
.g5_56{
fill: none;
stroke: #F81693;
stroke-width: 1.753;
stroke-linecap: butt;
stroke-linejoin: miter;
}
.g6_56{
fill: #F81693;
stroke: #F81693;
stroke-width: 1.753;
stroke-linecap: butt;
stroke-linejoin: miter;
}
.g7_56{
fill: #81DAF7;
stroke: #81DAF7;
stroke-width: 1.753;
stroke-linecap: butt;
stroke-linejoin: miter;
}
]]></style>
</defs>
<path d="M155,426.2H437" class="g0_56"/>
<path d="M439.9,426.2l-4.6,-2.3l1.7,2.3l-1.7,2.4Z" class="g1_56"/>
<path d="M155,426.2V192.4" class="g0_56"/>
<path d="M155,189.5l-2.3,4.7l2.3,-1.8l2.3,1.8Z" class="g1_56"/>
<path d="M212,248.7l2.8,8.4l2.9,7.7l2.8,7l2.9,6.5l2.8,5.9l2.9,5.5l2.8,5l2.9,4.7l2.8,4.4l2.9,4.1l2.8,3.8l2.9,3.6l2.8,3.3l2.9,3.2l2.8,3l2.9,2.8l2.8,2.7l2.9,2.5l2.8,2.4l2.9,2.3l2.8,2.1l2.9,2.1l2.8,1.9l2.9,1.9v80.7H212Z" class="g2_56"/>
<g clip-path="url(#c0_56)">
<path d="M280.4,417.1c0,0,.3,7.9,-1.3,9.1c-1.6,1.3,-6.8,0,-10.4,0c-1.8,0,-5.9,0,-9.4,0" class="g2_56"/>
<path d="M255.5,426.2c1.8,.7,3.4,1.3,5.1,1.9c-.6,-.6,-1.1,-1.2,-1.7,-1.9c.6,-.6,1.1,-1.3,1.7,-1.9c-1.7,.6,-3.3,1.3,-5.1,1.9Z" class="g2_56"/>
</g>
<path d="M280.4,346.7l4.2,4.3l4.3,4l4.3,3.6l4.3,3.4l4.2,3l4.3,2.9l4.3,2.7l4.3,2.4l4.2,2.3l4.3,2.1l4.3,2l4.3,1.9l4.2,1.8l4.3,1.6l4.3,1.6l4.2,1.4l4.3,1.4l4.3,1.3l4.3,1.2l4.2,1.2l4.3,1.1l4.3,1l4.3,1l4.2,1v29.3H280.4Z" class="g2_56"/>
<g clip-path="url(#c0_56)">
<path d="M382.9,413.4c0,0,1.1,8.6,0,10.4c-1.1,1.8,-4.7,2.1,-7.9,2.4c-1.7,.2,-5.8,.2,-9.4,.1" class="g2_56"/>
<path d="M361.7,426.3c1.8,.7,3.4,1.3,5.2,2c-.6,-.7,-1.2,-1.3,-1.8,-2c.6,-.6,1.2,-1.2,1.8,-1.9c-1.7,.6,-3.3,1.3,-5.2,1.9Z" class="g2_56"/>
</g>
<path d="M382.9,396.6l-5.2,-.7l-5.2,-.7l-5.2,-.8l-5.3,-.8l-5.2,-.8l-5.2,-.9l-5.2,-.9l-5.2,-1l-5.3,-1.1l-5.2,-1.1l-5.2,-1.1l-5.2,-1.3L315,384.1l-5.2,-1.4l-5.2,-1.6l-5.2,-1.6l-5.3,-1.8l-5.2,-1.8l-5.2,-2.1l-5.2,-2.2l-5.3,-2.4L268,366.5l-5.2,-2.8l-5.2,-3.2m91.2,30.9c0,0,-7.4,-1.4,-10.2,-1.9c-2.9,-.6,-6.7,-1.4,-10.2,-2.2c-1.8,-.4,-5.7,-1.4,-9.1,-2.2" class="g3_56"/>
<path d="M315.5,384.2c1.7,1,3.1,2,4.6,3.1c-.4,-.8,-.8,-1.6,-1.2,-2.3c.7,-.5,1.4,-1,2.1,-1.5c-1.8,.2,-3.5,.5,-5.5,.7Z" class="g4_56"/>
<path d="M257.6,359.6l-1.9,-2.2l-1.9,-2.2l-1.9,-2.3L250,350.4l-1.9,-2.6l-1.9,-2.7l-1.9,-2.9l-1.9,-3.1l-1.9,-3.2l-1.9,-3.5l-1.9,-3.6l-1.9,-3.9l-1.9,-4.2L231,316.3l-1.9,-4.7l-1.9,-5.1L225.3,301l-1.9,-5.8l-1.9,-6.3l-1.9,-6.8l-1.9,-7.3l-1.9,-8l-1.9,-8.7L212,248.7m28.4,87c0,0,-3.6,-6.7,-4.9,-9.3c-1.2,-2.5,-2.9,-6.1,-4.2,-9.4c-.7,-1.7,-2.2,-5.5,-3.4,-8.8" class="g3_56"/>
<path d="M226.6,304.6c0,1.9,0,3.7,0,5.5c.4,-.8,.8,-1.5,1.2,-2.3c.8,.3,1.6,.6,2.4,.9c-1.2,-1.3,-2.4,-2.6,-3.6,-4.1Z" class="g4_56"/>
<path d="M212,248.7l2.8,8.4l2.9,7.7l2.8,7l2.9,6.5l2.8,5.9l2.9,5.5l2.8,5l2.9,4.7l2.8,4.4l2.9,4.1l2.8,3.8l2.9,3.6l2.8,3.3l2.9,3.2l2.8,3l2.9,2.8l2.8,2.7l2.9,2.5l2.8,2.4l2.9,2.3l2.8,2.1l2.9,2.1l2.8,1.9l2.9,1.9m-58,-69.4c0,0,3.2,6.8,4.5,9.4c1.3,2.6,3.1,6.1,5,9.1c.9,1.6,3.1,5,5.1,7.9" class="g5_56"/>
<path d="M239.1,305.8c-.5,-1.9,-.8,-3.6,-1.2,-5.4c-.2,.9,-.5,1.7,-.7,2.5c-.8,-.1,-1.7,-.2,-2.6,-.4c1.5,1.1,2.9,2.1,4.5,3.3Z" class="g6_56"/>
<path d="M280.4,346.7l4.2,4.3l4.3,4l4.3,3.6l4.3,3.4l4.2,3l4.3,2.9l4.3,2.7l4.3,2.4l4.2,2.3l4.3,2.1l4.3,2l4.3,1.9l4.2,1.8l4.3,1.6l4.3,1.6l4.2,1.4l4.3,1.4l4.3,1.3l4.3,1.2l4.2,1.2l4.3,1.1l4.3,1l4.3,1l4.2,1M300.6,364.2c0,0,6.2,4.2,8.7,5.7c2.4,1.5,5.8,3.5,9,5.2c1.7,.8,5.3,2.5,8.5,4" class="g5_56"/>
<path d="M330.3,380.7c-1.4,-1.4,-2.6,-2.6,-3.8,-3.9c.2,.8,.5,1.6,.7,2.4c-.8,.4,-1.6,.7,-2.4,1.1c1.9,.1,3.6,.2,5.5,.4Z" class="g6_56"/>
<path d="M480.9,426.2h282" class="g0_56"/>
<path d="M765.9,426.2l-4.7,-2.3l1.7,2.3l-1.7,2.4Z" class="g1_56"/>
<path d="M480.9,426.2V192.4" class="g0_56"/>
<path d="M480.9,189.5l-2.3,4.7l2.3,-1.8l2.4,1.8Z" class="g1_56"/>
<path d="M708.9,396.6l-5.3,-.7l-5.2,-.7l-5.2,-.8l-5.2,-.8l-5.3,-.8l-5.2,-.9l-5.2,-.9l-5.2,-1l-5.2,-1.1l-5.3,-1.1l-5.2,-1.1l-5.2,-1.3L641,384.1l-5.3,-1.4l-5.2,-1.6l-5.2,-1.6l-5.2,-1.8l-5.3,-1.8l-5.2,-2.1l-5.2,-2.2l-5.2,-2.4l-5.3,-2.7l-5.2,-2.8l-5.2,-3.2v65.7H708.9Z" class="g7_56"/>
<path d="M583.5,359.6l-1.9,-2.2l-1.9,-2.2l-1.9,-2.3l-1.9,-2.5L574,347.8l-1.9,-2.7l-1.9,-2.9l-1.9,-3.1l-1.9,-3.2l-1.9,-3.5l-1.9,-3.6l-1.9,-3.9l-1.9,-4.2l-1.9,-4.4L555,311.6l-1.9,-5.1L551.2,301l-1.9,-5.8l-1.9,-6.3l-1.9,-6.8l-1.9,-7.3l-1.9,-8l-1.9,-8.7l-1.9,-9.4V426.2h45.6Z" class="g7_56"/>
<path d="M537.9,248.7l2.9,8.4l2.8,7.7l2.9,7l2.8,6.5l2.9,5.9l2.8,5.5l2.8,5l2.9,4.7l2.8,4.4l2.9,4.1l2.8,3.8l2.9,3.6l2.8,3.3l2.9,3.2l2.8,3l2.9,2.8l2.8,2.7l2.9,2.5l2.8,2.4l2.9,2.3l2.8,2.1l2.9,2.1l2.8,1.9l2.9,1.9M548.4,276.1c0,0,3.1,6.8,4.4,9.4c1.4,2.6,3.1,6.1,5,9.1c1,1.6,3.2,5,5.1,7.9" class="g5_56"/>
<path d="M565,305.8c-.5,-1.9,-.8,-3.6,-1.2,-5.4c-.2,.9,-.4,1.7,-.7,2.5c-.8,-.1,-1.7,-.2,-2.5,-.4c1.4,1.1,2.9,2.1,4.4,3.3Z" class="g6_56"/>
<path d="M606.3,346.7l4.3,4.3l4.2,4l4.3,3.6l4.3,3.4l4.3,3l4.2,2.9l4.3,2.7l4.3,2.4l4.3,2.3l4.2,2.1l4.3,2l4.3,1.9l4.2,1.8l4.3,1.6l4.3,1.6l4.3,1.4l4.2,1.4l4.3,1.3l4.3,1.2l4.3,1.2l4.2,1.1l4.3,1l4.3,1l4.3,1M626.5,364.2c0,0,6.2,4.2,8.7,5.7c2.5,1.5,5.9,3.5,9.1,5.2c1.6,.8,5.3,2.5,8.4,4" class="g5_56"/>
<path d="M656.3,380.7c-1.4,-1.4,-2.6,-2.6,-3.9,-3.9c.2,.8,.5,1.6,.7,2.4c-.7,.4,-1.5,.7,-2.3,1.1c1.8,.1,3.5,.2,5.5,.4Z" class="g6_56"/>
<path d="M708.9,396.6l-5.3,-.7l-5.2,-.7l-5.2,-.8l-5.2,-.8l-5.3,-.8l-5.2,-.9l-5.2,-.9l-5.2,-1l-5.2,-1.1l-5.3,-1.1l-5.2,-1.1l-5.2,-1.3L641,384.1l-5.3,-1.4l-5.2,-1.6l-5.2,-1.6l-5.2,-1.8l-5.3,-1.8l-5.2,-2.1l-5.2,-2.2l-5.2,-2.4l-5.3,-2.7l-5.2,-2.8l-5.2,-3.2m91.2,30.9c0,0,-7.4,-1.4,-10.2,-1.9c-2.8,-.6,-6.7,-1.4,-10.2,-2.2c-1.8,-.4,-5.7,-1.4,-9.1,-2.2" class="g3_56"/>
<path d="M641.5,384.2c1.6,1,3,2,4.5,3.1c-.4,-.8,-.8,-1.6,-1.2,-2.3c.7,-.5,1.4,-1,2.1,-1.5c-1.8,.2,-3.5,.5,-5.4,.7Z" class="g4_56"/>
<path d="M583.5,359.6l-1.9,-2.2l-1.9,-2.2l-1.9,-2.3l-1.9,-2.5L574,347.8l-1.9,-2.7l-1.9,-2.9l-1.9,-3.1l-1.9,-3.2l-1.9,-3.5l-1.9,-3.6l-1.9,-3.9l-1.9,-4.2l-1.9,-4.4L555,311.6l-1.9,-5.1L551.2,301l-1.9,-5.8l-1.9,-6.3l-1.9,-6.8l-1.9,-7.3l-1.9,-8l-1.9,-8.7l-1.9,-9.4m28.4,87c0,0,-3.6,-6.7,-4.8,-9.3c-1.3,-2.5,-3,-6.1,-4.3,-9.4c-.7,-1.7,-2.1,-5.5,-3.4,-8.8" class="g3_56"/>
<path d="M552.5,304.6c0,1.9,0,3.7,0,5.5c.4,-.8,.8,-1.5,1.2,-2.3c.8,.3,1.6,.6,2.4,.9c-1.2,-1.3,-2.4,-2.6,-3.6,-4.1Z" class="g4_56"/>
</svg>