<?xml version="1.0" encoding="UTF-8" standalone="no"?>
<!DOCTYPE svg PUBLIC "-//W3C//DTD SVG 1.1//EN"
"http://www.w3.org/Graphics/SVG/1.1/DTD/svg11.dtd">
<svg viewBox="0 0 1286 909" version="1.1" xmlns="http://www.w3.org/2000/svg" xmlns:xlink="http://www.w3.org/1999/xlink">
<defs>
<style type="text/css"><![CDATA[
.g0_945{
fill: none;
stroke: #000000;
stroke-width: 0.73;
stroke-linecap: butt;
stroke-linejoin: miter;
}
.g1_945{
fill: #B3E9FA;
}
.g2_945{
fill: none;
stroke: #02B5EE;
stroke-width: 1.262;
stroke-linecap: butt;
stroke-linejoin: miter;
}
.g3_945{
fill: none;
stroke: #5EE200;
stroke-width: 1.262;
stroke-linecap: butt;
stroke-linejoin: miter;
}
]]></style>
</defs>
<path d="M193,83.4h900.3M193,210.6H755.5m-562.5,0H755.5M416.8,240.2V211m0,58.5V240.2m0,114.3v-85" class="g0_945"/>
<path d="M531.1,311V292.5c0,-2.9,2.3,-5.2,5.2,-5.2H642c2.9,0,5.2,2.3,5.2,5.2V311c0,2.9,-2.3,5.2,-5.2,5.2H536.3c-2.9,0,-5.2,-2.3,-5.2,-5.2Z" class="g1_945"/>
<path d="M528.5,330.5H649.8" class="g2_945"/>
<path d="M660.3,330.5h84.2" class="g3_945"/>
<path d="M416.8,383.7V354.5m0,58.4V383.7m0,114.3V412.9" class="g0_945"/>
<path d="M427.8,474H537.1" class="g2_945"/>
<path d="M547.6,474h22.2" class="g3_945"/>
<path d="M416.8,527.2V498M193,527.5H755.5m-562.5,0H755.5" class="g0_945"/>
</svg>