<?xml version="1.0" encoding="UTF-8" standalone="no"?>
<!DOCTYPE svg PUBLIC "-//W3C//DTD SVG 1.1//EN"
"http://www.w3.org/Graphics/SVG/1.1/DTD/svg11.dtd">
<svg viewBox="0 0 909 1286" version="1.1" xmlns="http://www.w3.org/2000/svg" xmlns:xlink="http://www.w3.org/1999/xlink">
<defs>
<clipPath id="c0_11"><path d="M119.5,215.7V182.1H789.9v33.6Z"/></clipPath>
<clipPath id="c1_11"><path d="M119.5,638.3V604.7H789.9v33.6Z"/></clipPath>
<clipPath id="c2_11"><path d="M119.5,905.1V871.6H789.9v33.5Z"/></clipPath>
<style type="text/css"><![CDATA[
.g0_11{
fill: none;
stroke: #000000;
stroke-width: 0.73;
stroke-linecap: butt;
stroke-linejoin: miter;
}
.g1_11{
fill: #7F7F7F;
fill-opacity: 0.01;
}
.g2_11{
fill: #7F7F7F;
fill-opacity: 0.02;
}
.g3_11{
fill: #7F7F7F;
fill-opacity: 0.04;
}
.g4_11{
fill: #7F7F7F;
fill-opacity: 0.07;
}
.g5_11{
fill: #7F7F7F;
fill-opacity: 0.11;
}
.g6_11{
fill: #FFFFFF;
}
.g7_11{
fill: #7F7F7F;
}
.g8_11{
fill: #EC008C;
}
.g9_11{
fill: #CBCEFB;
}
.ga_11{
fill: #E81A58;
}
.gb_11{
fill: #401A1A;
}
.gc_11{
fill: #00AEEF;
}
]]></style>
</defs>
<path d="M116.9,159.9H792.5" class="g0_11"/>
<path d="M122.2,184.8c221.7,0,443.4,0,665,0v228c-221.6,-9.3,-443.3,-9.3,-665,0Z" class="g1_11"/>
<path d="M122.9,185.4c221.2,0,442.4,0,663.7,0V412.2c-221.3,-9.4,-442.5,-9.4,-663.7,0Z" class="g2_11"/>
<path d="M123.5,186.1c220.8,0,441.6,0,662.5,0V411.6c-220.9,-9.4,-441.7,-9.4,-662.5,0Z" class="g3_11"/>
<path d="M124.1,186.7c220.4,0,440.8,0,661.2,0V411c-220.4,-9.4,-440.8,-9.4,-661.2,0Z" class="g4_11"/>
<path d="M124.7,187.3c220,0,440,0,660,0v223c-220,-9.3,-440,-9.3,-660,0Z" class="g5_11"/>
<path d="M125.4,187.9c219.5,0,439.1,0,658.7,0V409.7c-219.6,-9.3,-439.2,-9.3,-658.7,0Z" class="g5_11"/>
<path d="M126,188.6c219.1,0,438.3,0,657.5,0V409.1c-219.2,-9.4,-438.4,-9.4,-657.5,0Z" class="g4_11"/>
<path d="M126.6,189.2c218.8,0,437.5,0,656.3,0V408.5c-218.8,-9.4,-437.5,-9.4,-656.3,0Z" class="g3_11"/>
<path d="M127.2,189.8c218.4,0,436.7,0,655,0v218c-218.3,-9.3,-436.6,-9.3,-655,0Z" class="g2_11"/>
<path d="M127.9,190.4c217.9,0,435.8,0,653.7,0V407.2c-217.9,-9.3,-435.8,-9.3,-653.7,0Z" class="g1_11"/>
<path d="M116.9,402.5v-223H792.5v223Z" class="g6_11"/>
<path d="M119.5,399.9V218.3H789.9V399.9Z" class="g6_11"/>
<path d="M119.5,215.7V182.1H789.9v33.6Z" class="g7_11"/>
<g clip-path="url(#c0_11)">
<image x="119" y="181" width="672" height="34" xlink:href="shade/1.png"/>
</g>
<path d="M675.7,210.5h88.2V187.3H675.7v23.2Z" class="g8_11"/>
<path d="M204.1,234.2H705.4M204.5,263.8V234.6" class="g0_11"/>
<path d="M204.8,263.8H319.3V234.6H204.8v29.2Z" class="g9_11"/>
<path d="M319.7,263.8V234.6" class="g0_11"/>
<path d="M320.1,263.8H431.9V234.6H320.1v29.2Z" class="g9_11"/>
<path d="M432.3,263.8V234.6" class="g0_11"/>
<path d="M432.6,263.8h60.3V234.6H432.6v29.2Z" class="g9_11"/>
<path d="M493.2,263.8V234.6" class="g0_11"/>
<path d="M493.6,263.8h50.7V234.6H493.6v29.2Z" class="g9_11"/>
<path d="M544.7,263.8V234.6" class="g0_11"/>
<path d="M545,263.8h89V234.6H545v29.2Z" class="g9_11"/>
<path d="M634.4,263.8V234.6" class="g0_11"/>
<path d="M634.8,263.8h69.8V234.6H634.8v29.2Z" class="g9_11"/>
<path d="M705,263.8V234.6M204.1,264.2H705.4M204.5,293.7V264.5m115.2,29.2V264.5m112.6,29.2V264.5m60.9,29.2V264.5m51.5,29.2V264.5m89.7,29.2V264.5M705,293.7V264.5M204.1,294.1H705.4M204.5,323.7V294.5m115.2,29.2V294.5m112.6,29.2V294.5m60.9,29.2V294.5m51.5,29.2V294.5m89.7,29.2V294.5M705,323.7V294.5M204.1,324.1H705.4M204.5,353.7V324.4m115.2,29.3V324.4m112.6,29.3V324.4m60.9,29.3V324.4m51.5,29.3V324.4m89.7,29.3V324.4M705,353.7V324.4M204.1,354H705.4M204.5,383.6V354.4m115.2,29.2V354.4m112.6,29.2V354.4m60.9,29.2V354.4m51.5,29.2V354.4m89.7,29.2V354.4M705,383.6V354.4M204.1,384H705.4" class="g0_11"/>
<path d="M116.9,587.5V500.1c0,-21.6,17.6,-39.1,39.2,-39.1H792.5v87.4c0,21.6,-17.5,39.1,-39.1,39.1Z" class="ga_11"/>
<path d="M119.5,584.9V493.5H789.9v54.9c0,20.2,-16.3,36.5,-36.5,36.5Z" class="gb_11"/>
<path d="M122.2,607.4c221.7,0,443.4,0,665,0V864.6c-221.6,-9.3,-443.3,-9.3,-665,0Z" class="g1_11"/>
<path d="M122.9,608c221.2,0,442.4,0,663.7,0V864c-221.3,-9.3,-442.5,-9.3,-663.7,0Z" class="g2_11"/>
<path d="M123.5,608.7c220.8,0,441.6,0,662.5,0V863.4C565.1,854,344.3,854,123.5,863.4Z" class="g3_11"/>
<path d="M124.1,609.3c220.4,0,440.8,0,661.2,0V862.8c-220.4,-9.4,-440.8,-9.4,-661.2,0Z" class="g4_11"/>
<path d="M124.7,609.9c220,0,440,0,660,0V862.2c-220,-9.4,-440,-9.4,-660,0Z" class="g5_11"/>
<path d="M125.4,610.5c219.5,0,439.1,0,658.7,0v251c-219.6,-9.3,-439.2,-9.3,-658.7,0Z" class="g5_11"/>
<path d="M126,611.2c219.1,0,438.3,0,657.5,0V860.9c-219.2,-9.3,-438.4,-9.3,-657.5,0Z" class="g4_11"/>
<path d="M126.6,611.8c218.8,0,437.5,0,656.3,0V860.3c-218.8,-9.4,-437.5,-9.4,-656.3,0Z" class="g3_11"/>
<path d="M127.2,612.4c218.4,0,436.7,0,655,0V859.7c-218.3,-9.4,-436.6,-9.4,-655,0Z" class="g2_11"/>
<path d="M127.9,613c217.9,0,435.8,0,653.7,0V859c-217.9,-9.3,-435.8,-9.3,-653.7,0Z" class="g1_11"/>
<path d="M116.9,854.4V602.1H792.5V854.4Z" class="g6_11"/>
<path d="M119.5,851.8v-211H789.9v211Z" class="g6_11"/>
<path d="M119.5,638.3V604.7H789.9v33.6Z" class="g7_11"/>
<g clip-path="url(#c1_11)">
<image x="119" y="604" width="672" height="34" xlink:href="shade/2.png"/>
</g>
<path d="M659.9,633.1h104V609.9h-104v23.2Z" class="gc_11"/>
<path d="M204.1,686H705.4M204.5,715.6V686.4" class="g0_11"/>
<path d="M204.8,715.6H319.3V686.4H204.8v29.2Z" class="g9_11"/>
<path d="M319.7,715.6V686.4" class="g0_11"/>
<path d="M320.1,715.6H431.9V686.4H320.1v29.2Z" class="g9_11"/>
<path d="M432.3,715.6V686.4" class="g0_11"/>
<path d="M432.6,715.6h60.3V686.4H432.6v29.2Z" class="g9_11"/>
<path d="M493.2,715.6V686.4" class="g0_11"/>
<path d="M493.6,715.6h50.7V686.4H493.6v29.2Z" class="g9_11"/>
<path d="M544.7,715.6V686.4" class="g0_11"/>
<path d="M545,715.6h89V686.4H545v29.2Z" class="g9_11"/>
<path d="M634.4,715.6V686.4" class="g0_11"/>
<path d="M634.8,715.6h69.8V686.4H634.8v29.2Z" class="g9_11"/>
<path d="M705,715.6V686.4M204.1,716H705.4M204.5,745.6V716.3m115.2,29.3V716.3m112.6,29.3V716.3m60.9,29.3V716.3m51.5,29.3V716.3m89.7,29.3V716.3M705,745.6V716.3M204.1,745.9H705.4M204.5,775.5V746.3m115.2,29.2V746.3m112.6,29.2V746.3m60.9,29.2V746.3m51.5,29.2V746.3m89.7,29.2V746.3M705,775.5V746.3M204.1,775.9H705.4M204.5,805.5V776.3m115.2,29.2V776.3m112.6,29.2V776.3m60.9,29.2V776.3m51.5,29.2V776.3m89.7,29.2V776.3M705,805.5V776.3M204.1,805.8H705.4M204.5,835.4V806.2m115.2,29.2V806.2m112.6,29.2V806.2m60.9,29.2V806.2m51.5,29.2V806.2m89.7,29.2V806.2M705,835.4V806.2M204.1,835.8H705.4" class="g0_11"/>
<path d="M122.2,874.3c221.7,0,443.4,0,665,0v228c-221.6,-9.4,-443.3,-9.4,-665,0Z" class="g1_11"/>
<path d="M122.9,874.9c221.2,0,442.4,0,663.7,0v226.7c-221.3,-9.3,-442.5,-9.3,-663.7,0Z" class="g2_11"/>
<path d="M123.5,875.5c220.8,0,441.6,0,662.5,0V1101c-220.9,-9.3,-441.7,-9.3,-662.5,0Z" class="g3_11"/>
<path d="M124.1,876.1c220.4,0,440.8,0,661.2,0v224.3c-220.4,-9.4,-440.8,-9.4,-661.2,0Z" class="g4_11"/>
<path d="M124.7,876.8c220,0,440,0,660,0v223c-220,-9.4,-440,-9.4,-660,0Z" class="g5_11"/>
<path d="M125.4,877.4c219.5,0,439.1,0,658.7,0v221.7c-219.6,-9.3,-439.2,-9.3,-658.7,0Z" class="g5_11"/>
<path d="M126,878c219.1,0,438.3,0,657.5,0v220.5c-219.2,-9.3,-438.4,-9.3,-657.5,0Z" class="g4_11"/>
<path d="M126.6,878.6c218.8,0,437.5,0,656.3,0v219.3c-218.8,-9.4,-437.5,-9.4,-656.3,0Z" class="g3_11"/>
<path d="M127.2,879.3c218.4,0,436.7,0,655,0v218c-218.3,-9.4,-436.6,-9.4,-655,0Z" class="g2_11"/>
<path d="M127.9,879.9c217.9,0,435.8,0,653.7,0v216.8c-217.9,-9.4,-435.8,-9.4,-653.7,0Z" class="g1_11"/>
<path d="M116.9,1092V869H792.5v223Z" class="g6_11"/>
<path d="M119.5,1089.4V907.7H789.9v181.7Z" class="g6_11"/>
<path d="M119.5,905.1V871.6H789.9v33.5Z" class="g7_11"/>
<g clip-path="url(#c2_11)">
<image x="119" y="871" width="672" height="34" xlink:href="shade/3.png"/>
</g>
<path d="M675.7,899.9h88.2V876.8H675.7v23.1Z" class="g8_11"/>
<path d="M217.2,923.6h475M217.6,953.2V924" class="g0_11"/>
<path d="M218,953.2h88.2V924H218v29.2Z" class="g9_11"/>
<path d="M306.5,953.2V924" class="g0_11"/>
<path d="M306.9,953.2H418.7V924H306.9v29.2Z" class="g9_11"/>
<path d="M419.1,953.2V924" class="g0_11"/>
<path d="M419.5,953.2h60.2V924H419.5v29.2Z" class="g9_11"/>
<path d="M480.1,953.2V924" class="g0_11"/>
<path d="M480.5,953.2h50.6V924H480.5v29.2Z" class="g9_11"/>
<path d="M531.5,953.2V924" class="g0_11"/>
<path d="M531.9,953.2h89V924h-89v29.2Z" class="g9_11"/>
<path d="M621.3,953.2V924" class="g0_11"/>
<path d="M621.6,953.2h69.9V924H621.6v29.2Z" class="g9_11"/>
<path d="M691.9,953.2V924M217.2,953.6h475M217.6,983.2V954m88.9,29.2V954m112.6,29.2V954m61,29.2V954m51.4,29.2V954m89.8,29.2V954m70.6,29.2V954M217.2,983.6h475m-474.6,29.5V983.9m88.9,29.2V983.9m112.6,29.2V983.9m61,29.2V983.9m51.4,29.2V983.9m89.8,29.2V983.9m70.6,29.2V983.9m-474.7,29.6h475m-474.6,29.6v-29.2m88.9,29.2v-29.2m112.6,29.2v-29.2m61,29.2v-29.2m51.4,29.2v-29.2m89.8,29.2v-29.2m70.6,29.2v-29.2m-474.7,29.6h475m-474.6,29.6v-29.3m88.9,29.3v-29.3m112.6,29.3v-29.3m61,29.3v-29.3m51.4,29.3v-29.3m89.8,29.3v-29.3m70.6,29.3v-29.3m-474.7,29.6h475" class="g0_11"/>
</svg>