<?xml version="1.0" encoding="UTF-8" standalone="no"?>
<!DOCTYPE svg PUBLIC "-//W3C//DTD SVG 1.1//EN"
"http://www.w3.org/Graphics/SVG/1.1/DTD/svg11.dtd">
<svg viewBox="0 0 909 1286" version="1.1" xmlns="http://www.w3.org/2000/svg" xmlns:xlink="http://www.w3.org/1999/xlink">
<defs>
<clipPath id="c0_70"><path d="M119.5,704V670.5H446.9V704Z"/></clipPath>
<clipPath id="c1_70"><path d="M460.4,704V670.5H787.8V704Z"/></clipPath>
<style type="text/css"><![CDATA[
.g0_70{
fill: none;
stroke: #000000;
stroke-width: 0.73;
stroke-linecap: butt;
stroke-linejoin: miter;
}
.g1_70{
fill: #E81A58;
}
.g2_70{
fill: #401A1A;
}
.g3_70{
fill: #7F7F7F;
fill-opacity: 0.01;
}
.g4_70{
fill: #7F7F7F;
fill-opacity: 0.02;
}
.g5_70{
fill: #7F7F7F;
fill-opacity: 0.04;
}
.g6_70{
fill: #7F7F7F;
fill-opacity: 0.07;
}
.g7_70{
fill: #7F7F7F;
fill-opacity: 0.11;
}
.g8_70{
fill: #FFFFFF;
}
.g9_70{
fill: #7F7F7F;
}
.ga_70{
fill: #00AEEF;
}
.gb_70{
fill: #CBCEFB;
}
]]></style>
</defs>
<path d="M116.9,159.9H792.5" class="g0_70"/>
<path d="M116.9,303.6V179.5H792.5v84.9c0,21.7,-17.5,39.2,-39.1,39.2Z" class="g1_70"/>
<path d="M119.5,301V179.5H789.9v84.9c0,20.2,-16.3,36.6,-36.5,36.6Z" class="g2_70"/>
<path d="M116.9,603.6V401.1c0,-21.6,17.6,-39.1,39.2,-39.1H792.5V564.5c0,21.6,-17.5,39.1,-39.1,39.1Z" class="g1_70"/>
<path d="M119.5,601V394.5H789.9v170c0,20.2,-16.3,36.5,-36.5,36.5Z" class="g2_70"/>
<path d="M122.2,673.2c107.4,0,214.7,0,322,0v351.3c-107.3,-9.4,-214.6,-9.4,-322,0Z" class="g3_70"/>
<path d="M122.9,673.8c106.9,0,213.8,0,320.7,0v350.1c-106.9,-9.4,-213.8,-9.4,-320.7,0Z" class="g4_70"/>
<path d="M123.5,674.5c106.5,0,213,0,319.5,0v348.8c-106.5,-9.4,-213,-9.4,-319.5,0Z" class="g5_70"/>
<path d="M124.1,675.1c106.1,0,212.2,0,318.3,0v347.5c-106.1,-9.3,-212.2,-9.3,-318.3,0Z" class="g6_70"/>
<path d="M124.7,675.7c105.7,0,211.4,0,317,0V1022c-105.6,-9.3,-211.3,-9.3,-317,0Z" class="g7_70"/>
<path d="M125.4,676.3c105.2,0,210.5,0,315.7,0v345.1c-105.2,-9.4,-210.5,-9.4,-315.7,0Z" class="g7_70"/>
<path d="M126,677c104.8,0,209.7,0,314.5,0v343.8c-104.8,-9.4,-209.7,-9.4,-314.5,0Z" class="g6_70"/>
<path d="M126.6,677.6c104.4,0,208.8,0,313.3,0v342.5c-104.5,-9.3,-208.9,-9.3,-313.3,0Z" class="g5_70"/>
<path d="M127.2,678.2c104,0,208,0,312,0v341.3c-104,-9.3,-208,-9.3,-312,0Z" class="g4_70"/>
<path d="M127.9,678.8c103.5,0,207.1,0,310.7,0v340.1c-103.6,-9.4,-207.2,-9.4,-310.7,0Z" class="g3_70"/>
<path d="M116.9,1014.2V667.9H449.5v346.3Z" class="g8_70"/>
<path d="M119.5,1011.6v-305H446.9v305Z" class="g8_70"/>
<path d="M119.5,704V670.5H446.9V704Z" class="g9_70"/>
<g clip-path="url(#c0_70)">
<image x="119" y="670" width="329" height="34" xlink:href="shade/1.png"/>
</g>
<path d="M316.9,698.8h104V675.7h-104v23.1Z" class="ga_70"/>
<path d="M210.9,756H355.5M211.3,785.6V756.4" class="g0_70"/>
<path d="M211.6,785.6h72.6V756.4H211.6v29.2Z" class="gb_70"/>
<path d="M284.6,785.6V756.4" class="g0_70"/>
<path d="M285,785.6h69.8V756.4H285v29.2Z" class="gb_70"/>
<path d="M355.2,785.6V756.4M210.9,786H355.5M211.3,815.6V786.3m73.3,29.3V786.3m70.6,29.3V786.3M210.9,815.9H355.5M211.3,845.5V816.3m73.3,29.2V816.3m70.6,29.2V816.3M210.9,845.9H355.5M211.3,875.5V846.2m73.3,29.3V846.2m70.6,29.3V846.2M210.9,875.8H355.5M211.3,905.4V876.2m73.3,29.2V876.2m70.6,29.2V876.2M210.9,905.8H355.5M211.3,935.4V906.2m73.3,29.2V906.2m70.6,29.2V906.2M210.9,935.7H355.5M211.3,965.3V936.1m73.3,29.2V936.1m70.6,29.2V936.1M210.9,965.7H355.5M211.3,995.3V966.1m73.3,29.2V966.1m70.6,29.2V966.1M210.9,995.7H355.5" class="g0_70"/>
<path d="M463.1,673.2c107.3,0,214.6,0,322,0v351.3c-107.4,-9.4,-214.7,-9.4,-322,0Z" class="g3_70"/>
<path d="M463.7,673.8c106.9,0,213.8,0,320.7,0v350.1c-106.9,-9.4,-213.8,-9.4,-320.7,0Z" class="g4_70"/>
<path d="M464.3,674.5c106.5,0,213,0,319.5,0v348.8c-106.5,-9.4,-213,-9.4,-319.5,0Z" class="g5_70"/>
<path d="M464.9,675.1c106.1,0,212.2,0,318.3,0v347.5c-106.1,-9.3,-212.2,-9.3,-318.3,0Z" class="g6_70"/>
<path d="M465.6,675.7c105.6,0,211.3,0,317,0V1022c-105.7,-9.3,-211.4,-9.3,-317,0Z" class="g7_70"/>
<path d="M466.2,676.3c105.2,0,210.5,0,315.7,0v345.1c-105.2,-9.4,-210.5,-9.4,-315.7,0Z" class="g7_70"/>
<path d="M466.8,677c104.8,0,209.7,0,314.5,0v343.8c-104.8,-9.4,-209.7,-9.4,-314.5,0Z" class="g6_70"/>
<path d="M467.4,677.6c104.5,0,208.9,0,313.3,0v342.5c-104.4,-9.3,-208.8,-9.3,-313.3,0Z" class="g5_70"/>
<path d="M468.1,678.2c104,0,208,0,312,0v341.3c-104,-9.3,-208,-9.3,-312,0Z" class="g4_70"/>
<path d="M468.7,678.8c103.6,0,207.2,0,310.7,0v340.1c-103.5,-9.4,-207.1,-9.4,-310.7,0Z" class="g3_70"/>
<path d="M457.8,1014.2V667.9H790.4v346.3Z" class="g8_70"/>
<path d="M460.4,1011.6v-305H787.8v305Z" class="g8_70"/>
<path d="M460.4,704V670.5H787.8V704Z" class="g9_70"/>
<g clip-path="url(#c1_70)">
<image x="460" y="670" width="329" height="34" xlink:href="shade/2.png"/>
</g>
<path d="M657.8,698.8h104V675.7h-104v23.1Z" class="ga_70"/>
<path d="M551.7,756H696.4M552.1,785.6V756.4" class="g0_70"/>
<path d="M552.5,785.6h72.6V756.4H552.5v29.2Z" class="gb_70"/>
<path d="M625.4,785.6V756.4" class="g0_70"/>
<path d="M625.8,785.6h69.8V756.4H625.8v29.2Z" class="gb_70"/>
<path d="M696,785.6V756.4M551.7,786H696.4M552.1,815.6V786.3m73.3,29.3V786.3M696,815.6V786.3M551.7,815.9H696.4M552.1,845.5V816.3m73.3,29.2V816.3M696,845.5V816.3M551.7,845.9H696.4M552.1,875.5V846.2m73.3,29.3V846.2M696,875.5V846.2M551.7,875.8H696.4M552.1,905.4V876.2m73.3,29.2V876.2M696,905.4V876.2M551.7,905.8H696.4M552.1,935.4V906.2m73.3,29.2V906.2M696,935.4V906.2M551.7,935.7H696.4M552.1,965.3V936.1m73.3,29.2V936.1M696,965.3V936.1M551.7,965.7H696.4M552.1,995.3V966.1m73.3,29.2V966.1M696,995.3V966.1M551.7,995.7H696.4" class="g0_70"/>
</svg>