<?xml version="1.0" encoding="UTF-8" standalone="no"?>
<!DOCTYPE svg PUBLIC "-//W3C//DTD SVG 1.1//EN"
"http://www.w3.org/Graphics/SVG/1.1/DTD/svg11.dtd">
<svg viewBox="0 0 1286 909" version="1.1" xmlns="http://www.w3.org/2000/svg" xmlns:xlink="http://www.w3.org/1999/xlink">
<defs>
<style type="text/css"><![CDATA[
.g0_1082{
fill: none;
stroke: #000000;
stroke-width: 0.73;
stroke-linecap: butt;
stroke-linejoin: miter;
}
.g1_1082{
fill: #AEF080;
}
.g2_1082{
fill: #FFCCCC;
}
.g3_1082{
fill: none;
stroke: #F81693;
stroke-width: 1.461;
stroke-linecap: butt;
stroke-linejoin: miter;
stroke-dasharray: 2,2;
}
.g4_1082{
fill: #E6CEEE;
}
.g5_1082{
fill: #F81693;
}
.g6_1082{
fill: #FFE6E6;
}
]]></style>
</defs>
<path d="M193,83.4h900.3M193,210.6H778.4m-585.4,0H778.4M334.1,240.2V211m0,58.5V240.2m0,62.1V269.5" class="g0_1082"/>
<path d="M561.4,302.3h56.1V269.5H561.4v32.8Z" class="g1_1082"/>
<path d="M638.5,302.3H698V269.5H638.5v32.8Z" class="g2_1082"/>
<path d="M712.2,295.9h51.5" class="g3_1082"/>
<path d="M334.1,332.5V302.3m0,63.1V332.5" class="g0_1082"/>
<path d="M514.3,361h15" class="g3_1082"/>
<path d="M539.1,365.4h90.7V332.5H539.1v32.9Z" class="g2_1082"/>
<path d="M629.8,365.4h44.7V332.5H629.8v32.9Z" class="g1_1082"/>
<path d="M334.1,394.6V365.4m0,58.4V394.6m0,64V423.8" class="g0_1082"/>
<path d="M492.2,458.6h85.2V425.8H492.2v32.8Z" class="g4_1082"/>
<path d="M334.1,488.8V458.6m0,63.1V488.8" class="g0_1082"/>
<path d="M651.6,521.7H767.4V488.8H651.6v32.9Z" class="g4_1082"/>
<path d="M334.1,553V521.7m0,60.5V553m0,58.5V582.2m0,70.1V611.5" class="g0_1082"/>
<path d="M486.5,644.5V619.2c0,-4.3,3.5,-7.7,7.8,-7.7h40.5c4.3,0,7.8,3.4,7.8,7.7v25.3c0,4.3,-3.5,7.8,-7.8,7.8H494.3c-4.3,0,-7.8,-3.5,-7.8,-7.8Z" class="g5_1082"/>
<path d="M489.1,644.5V619.2c0,-2.8,2.3,-5.1,5.2,-5.1h40.5c2.9,0,5.2,2.3,5.2,5.1v25.3c0,2.8,-2.3,5.2,-5.2,5.2H494.3c-2.9,0,-5.2,-2.4,-5.2,-5.2Z" class="g6_1082"/>
<path d="M553.1,648.4h85.2V615.5H553.1v32.9Z" class="g4_1082"/>
<path d="M648.8,644.5V619.2c0,-4.3,3.5,-7.7,7.8,-7.7h40.6c4.3,0,7.8,3.4,7.8,7.7v25.3c0,4.3,-3.5,7.8,-7.8,7.8H656.6c-4.3,0,-7.8,-3.5,-7.8,-7.8Z" class="g5_1082"/>
<path d="M651.4,644.5V619.2c0,-2.8,2.3,-5.1,5.2,-5.1h40.6c2.9,0,5.2,2.3,5.2,5.1v25.3c0,2.8,-2.3,5.2,-5.2,5.2H656.6c-2.9,0,-5.2,-2.4,-5.2,-5.2Z" class="g6_1082"/>
<path d="M719.1,642h44.6" class="g3_1082"/>
<path d="M334.1,682.4V652.3m0,73V682.4" class="g0_1082"/>
<path d="M519.9,715.1h48.8" class="g3_1082"/>
<path d="M572.4,717.5V690.2c0,-4.3,3.5,-7.8,7.8,-7.8H708.8c4.3,0,7.8,3.5,7.8,7.8v27.3c0,4.3,-3.5,7.8,-7.8,7.8H580.2c-4.3,0,-7.8,-3.5,-7.8,-7.8Z" class="g5_1082"/>
<path d="M575,717.5V690.2c0,-2.8,2.3,-5.2,5.2,-5.2H708.8c2.8,0,5.2,2.4,5.2,5.2v27.3c0,2.9,-2.4,5.2,-5.2,5.2H580.2c-2.9,0,-5.2,-2.3,-5.2,-5.2Z" class="g6_1082"/>
<path d="M722.7,719.4h44.7V686.6H722.7v32.8Z" class="g4_1082"/>
<path d="M334.1,754.5V725.3M193,754.9H778.4m-585.4,0H778.4" class="g0_1082"/>
</svg>