<?xml version="1.0" encoding="UTF-8" standalone="no"?>
<!DOCTYPE svg PUBLIC "-//W3C//DTD SVG 1.1//EN"
"http://www.w3.org/Graphics/SVG/1.1/DTD/svg11.dtd">
<svg viewBox="0 0 1286 909" version="1.1" xmlns="http://www.w3.org/2000/svg" xmlns:xlink="http://www.w3.org/1999/xlink">
<defs>
<style type="text/css"><![CDATA[
.g0_393{
fill: none;
stroke: #000000;
stroke-width: 0.73;
stroke-linecap: butt;
stroke-linejoin: miter;
}
.g1_393{
fill: none;
stroke: #5EE200;
stroke-width: 0.73;
stroke-linecap: butt;
stroke-linejoin: miter;
}
.g2_393{
fill: none;
stroke: #02B5EE;
stroke-width: 0.73;
stroke-linecap: butt;
stroke-linejoin: miter;
}
.g3_393{
fill: #B3E9FA;
}
.g4_393{
fill: none;
stroke: #02B5EE;
stroke-width: 1.262;
stroke-linecap: butt;
stroke-linejoin: miter;
}
.g5_393{
fill: none;
stroke: #5EE200;
stroke-width: 1.262;
stroke-linecap: butt;
stroke-linejoin: miter;
}
]]></style>
</defs>
<path d="M193,83.4h900.3M193,111.6H666.6m-473.6,0H666.6M384.4,141.2V112m0,102.3V141.2" class="g0_393"/>
<path d="M553.6,200.4H588" class="g1_393"/>
<path d="M588,200.4h67.6" class="g2_393"/>
<path d="M384.4,245.6V214.3m0,60.5V245.6m0,58.5V274.8m0,114.3v-85" class="g0_393"/>
<path d="M477,339.3V327.1c0,-2.9,2.3,-5.2,5.2,-5.2H580c2.8,0,5.2,2.3,5.2,5.2v12.2c0,2.9,-2.4,5.2,-5.2,5.2H482.2c-2.9,0,-5.2,-2.3,-5.2,-5.2Z" class="g3_393"/>
<path d="M474.4,365.1H587.8" class="g4_393"/>
<path d="M598.3,365.1h57.3" class="g5_393"/>
<path d="M384.4,418.3V389.1M193,418.7H666.6m-473.6,0H666.6" class="g0_393"/>
</svg>