<?xml version="1.0" encoding="UTF-8" standalone="no"?>
<!DOCTYPE svg PUBLIC "-//W3C//DTD SVG 1.1//EN"
"http://www.w3.org/Graphics/SVG/1.1/DTD/svg11.dtd">
<svg viewBox="0 0 909 1286" version="1.1" xmlns="http://www.w3.org/2000/svg" xmlns:xlink="http://www.w3.org/1999/xlink">
<defs>
<style type="text/css"><![CDATA[
.g0_46{
fill: none;
stroke: #000000;
stroke-width: 0.73;
stroke-linecap: butt;
stroke-linejoin: miter;
}
.g1_46{
fill: #FDE8E9;
}
]]></style>
</defs>
<path d="M116.9,159.9H792.5" class="g0_46"/>
<path d="M116.9,268.8H313.7V240.9H116.9v27.9Z" class="g1_46"/>
<path d="M125.4,298.5h44.7V270.6H125.4v27.9Z" class="g1_46"/>
<path d="M186.8,298.5h61.6V270.6H186.8v27.9Z" class="g1_46"/>
<path d="M568.4,298.5h44.8V270.6H568.4v27.9Z" class="g1_46"/>
<path d="M629.8,298.5h61.6V270.6H629.8v27.9Z" class="g1_46"/>
<path d="M116.9,386.1H263V358.3H116.9v27.8Z" class="g1_46"/>
<path d="M646.4,532.3H775.6V504.4H646.4v27.9Z" class="g1_46"/>
<path d="M116.9,619.9h163V592.1h-163v27.8Z" class="g1_46"/>
<path d="M116.9,766h163V738.2h-163V766Z" class="g1_46"/>
<path d="M116.9,912.2H347.5V884.3H116.9v27.9Z" class="g1_46"/>
<path d="M453.4,999.8H633.2V972H453.4v27.8Z" class="g1_46"/>
<path d="M116.9,1116.7H263v-27.8H116.9v27.8Z" class="g1_46"/>
<path d="M279.9,1116.7h163v-27.8h-163v27.8Z" class="g1_46"/>
<path d="M459.7,1116.7h95.5v-27.8H459.7v27.8Z" class="g1_46"/>
</svg>