<?xml version="1.0" encoding="UTF-8" standalone="no"?>
<!DOCTYPE svg PUBLIC "-//W3C//DTD SVG 1.1//EN"
"http://www.w3.org/Graphics/SVG/1.1/DTD/svg11.dtd">
<svg viewBox="0 0 1286 909" version="1.1" xmlns="http://www.w3.org/2000/svg" xmlns:xlink="http://www.w3.org/1999/xlink">
<defs>
<style type="text/css"><![CDATA[
.g0_669{
fill: none;
stroke: #000000;
stroke-width: 0.73;
stroke-linecap: butt;
stroke-linejoin: miter;
}
.g1_669{
fill: #FFCCCC;
}
.g2_669{
fill: none;
stroke: #F81693;
stroke-width: 1.461;
stroke-linecap: butt;
stroke-linejoin: miter;
stroke-dasharray: 2,2;
}
]]></style>
</defs>
<path d="M193,83.4h900.3M193,210.6h874.8m-874.8,0h874.8m-454,29.6V211m0,58.5V240.2m0,62.1V269.5" class="g0_669"/>
<path d="M792.4,302.3H931.8V269.5H792.4v32.8Z" class="g1_669"/>
<path d="M945.9,295.9h107.3" class="g2_669"/>
<path d="M613.8,332.5V302.3m0,63.1V332.5" class="g0_669"/>
<path d="M941.4,361h31.9" class="g2_669"/>
<path d="M983,365.4h73.8V332.5H983v32.9Z" class="g1_669"/>
<path d="M613.8,394.6V365.4m0,58.4V394.6m0,63.2v-34" class="g0_669"/>
<path d="M934.2,457.8H991V424.9H934.2v32.9Z" class="g1_669"/>
<path d="M1005.1,451.4h48.1" class="g2_669"/>
<path d="M613.8,487V457.8m0,62.1V487" class="g0_669"/>
<path d="M865.4,515.5h31.9" class="g2_669"/>
<path d="M907,519.9h149.8V487H907v32.9Z" class="g1_669"/>
<path d="M613.8,549.1V519.9m0,58.4V549.1m0,63.8V578.3" class="g0_669"/>
<path d="M820.4,612.3h56.9V579.4H820.4v32.9Z" class="g1_669"/>
<path d="M891.4,612.2h161.8" class="g2_669"/>
<path d="M613.8,642.1V612.9m0,62.1V642.1" class="g0_669"/>
<path d="M695.8,670.7H897.3" class="g2_669"/>
<path d="M907,675h149.8V642.1H907V675Z" class="g1_669"/>
<path d="M613.8,704.2V675m0,58.5V704.2M193,733.8h874.8m-874.8,0h874.8" class="g0_669"/>
</svg>