<?xml version="1.0" encoding="UTF-8" standalone="no"?>
<!DOCTYPE svg PUBLIC "-//W3C//DTD SVG 1.1//EN"
"http://www.w3.org/Graphics/SVG/1.1/DTD/svg11.dtd">
<svg viewBox="0 0 909 1286" version="1.1" xmlns="http://www.w3.org/2000/svg" xmlns:xlink="http://www.w3.org/1999/xlink">
<defs>
<clipPath id="c0_101"><path d="M119.5,288.6V255.1H446.9v33.5Z"/></clipPath>
<clipPath id="c1_101"><path d="M462.5,288.6V255.1H789.9v33.5Z"/></clipPath>
<style type="text/css"><![CDATA[
.g0_101{
fill: none;
stroke: #000000;
stroke-width: 0.73;
stroke-linecap: butt;
stroke-linejoin: miter;
}
.g1_101{
fill: #7F7F7F;
fill-opacity: 0.01;
}
.g2_101{
fill: #7F7F7F;
fill-opacity: 0.02;
}
.g3_101{
fill: #7F7F7F;
fill-opacity: 0.04;
}
.g4_101{
fill: #7F7F7F;
fill-opacity: 0.07;
}
.g5_101{
fill: #7F7F7F;
fill-opacity: 0.11;
}
.g6_101{
fill: #FFFFFF;
}
.g7_101{
fill: #7F7F7F;
}
.g8_101{
fill: #00AEEF;
}
.g9_101{
fill: #CBCEFB;
}
.ga_101{
fill: #EC008C;
}
.gb_101{
fill: #FFFEF5;
}
.gc_101{
fill: none;
stroke: #D6C944;
stroke-width: 0.365;
stroke-linecap: butt;
stroke-linejoin: miter;
}
.gd_101{
fill: #E81A58;
}
.ge_101{
fill: #401A1A;
}
]]></style>
</defs>
<path d="M116.9,159.9H792.5" class="g0_101"/>
<path d="M122.2,257.8c107.4,0,214.7,0,322,0v407c-107.3,-9.3,-214.6,-9.3,-322,0Z" class="g1_101"/>
<path d="M122.9,258.4c106.9,0,213.8,0,320.7,0V664.2c-106.9,-9.4,-213.8,-9.4,-320.7,0Z" class="g2_101"/>
<path d="M123.5,259.1c106.5,0,213,0,319.5,0V663.6c-106.5,-9.4,-213,-9.4,-319.5,0Z" class="g3_101"/>
<path d="M124.1,259.7c106.1,0,212.2,0,318.3,0V662.9c-106.1,-9.3,-212.2,-9.3,-318.3,0Z" class="g4_101"/>
<path d="M124.7,260.3c105.7,0,211.4,0,317,0v402c-105.6,-9.3,-211.3,-9.3,-317,0Z" class="g5_101"/>
<path d="M125.4,260.9c105.2,0,210.5,0,315.7,0V661.7c-105.2,-9.4,-210.5,-9.4,-315.7,0Z" class="g5_101"/>
<path d="M126,261.6c104.8,0,209.7,0,314.5,0V661.1c-104.8,-9.4,-209.7,-9.4,-314.5,0Z" class="g4_101"/>
<path d="M126.6,262.2c104.4,0,208.8,0,313.3,0V660.4c-104.5,-9.3,-208.9,-9.3,-313.3,0Z" class="g3_101"/>
<path d="M127.2,262.8c104,0,208,0,312,0v397c-104,-9.3,-208,-9.3,-312,0Z" class="g2_101"/>
<path d="M127.9,263.4c103.5,0,207.1,0,310.7,0V659.2c-103.6,-9.4,-207.2,-9.4,-310.7,0Z" class="g1_101"/>
<path d="M116.9,654.5v-402H449.5v402Z" class="g6_101"/>
<path d="M119.5,651.9V291.2H446.9V651.9Z" class="g6_101"/>
<path d="M119.5,288.6V255.1H446.9v33.5Z" class="g7_101"/>
<g clip-path="url(#c0_101)">
<image x="119" y="254" width="329" height="34" xlink:href="shade/1.png"/>
</g>
<path d="M316.9,283.4h104V260.3h-104v23.1Z" class="g8_101"/>
<path d="M145.5,336.4H425.1M145.9,366V336.8" class="g0_101"/>
<path d="M146.3,366H264V336.8H146.3V366Z" class="g9_101"/>
<path d="M264.4,366V336.8" class="g0_101"/>
<path d="M264.8,366h89V336.8h-89V366Z" class="g9_101"/>
<path d="M354.2,366V336.8" class="g0_101"/>
<path d="M354.5,366h69.9V336.8H354.5V366Z" class="g9_101"/>
<path d="M424.7,366V336.8M145.5,366.4H425.1M145.9,396V366.7M264.4,396V366.7M354.2,396V366.7M424.7,396V366.7M145.5,396.3H425.1M145.9,425.9V396.7m118.5,29.2V396.7m89.8,29.2V396.7m70.5,29.2V396.7M145.5,426.3H425.1M145.9,455.9V426.6m118.5,29.3V426.6m89.8,29.3V426.6m70.5,29.3V426.6M145.5,456.2H425.1M145.9,485.8V456.6m118.5,29.2V456.6m89.8,29.2V456.6m70.5,29.2V456.6M145.5,486.2H425.1M145.9,515.8V486.6m118.5,29.2V486.6m89.8,29.2V486.6m70.5,29.2V486.6M145.5,516.1H425.1M145.9,545.7V516.5m118.5,29.2V516.5m89.8,29.2V516.5m70.5,29.2V516.5M145.5,546.1H425.1M145.9,575.7V546.5m118.5,29.2V546.5m89.8,29.2V546.5m70.5,29.2V546.5M145.5,576H425.1M145.9,605.6V576.4m118.5,29.2V576.4m89.8,29.2V576.4m70.5,29.2V576.4M145.5,606H425.1M145.9,635.6V606.4m118.5,29.2V606.4m89.8,29.2V606.4m70.5,29.2V606.4M145.5,636H425.1" class="g0_101"/>
<path d="M465.2,257.8c107.4,0,214.7,0,322,0V442.3c-107.3,-9.3,-214.6,-9.3,-322,0Z" class="g1_101"/>
<path d="M465.8,258.4c107,0,213.9,0,320.8,0V441.7c-106.9,-9.3,-213.8,-9.3,-320.8,0Z" class="g2_101"/>
<path d="M466.5,259.1c106.5,0,213,0,319.5,0v182c-106.5,-9.4,-213,-9.4,-319.5,0Z" class="g3_101"/>
<path d="M467.1,259.7c106.1,0,212.2,0,318.2,0V440.5c-106,-9.4,-212.1,-9.4,-318.2,0Z" class="g4_101"/>
<path d="M467.7,260.3c105.7,0,211.3,0,317,0V439.8c-105.7,-9.3,-211.3,-9.3,-317,0Z" class="g5_101"/>
<path d="M468.3,260.9c105.3,0,210.5,0,315.8,0V439.2c-105.3,-9.3,-210.5,-9.3,-315.8,0Z" class="g5_101"/>
<path d="M469,261.6c104.8,0,209.6,0,314.5,0v177c-104.9,-9.4,-209.7,-9.4,-314.5,0Z" class="g4_101"/>
<path d="M469.6,262.2c104.4,0,208.8,0,313.2,0V438C678.4,428.6,574,428.6,469.6,438Z" class="g3_101"/>
<path d="M470.2,262.8c104,0,208,0,312,0V437.4c-104,-9.4,-208,-9.4,-312,0Z" class="g2_101"/>
<path d="M470.8,263.4c103.6,0,207.2,0,310.8,0V436.7c-103.6,-9.3,-207.2,-9.3,-310.8,0Z" class="g1_101"/>
<path d="M459.9,432.1V252.5H792.5V432.1Z" class="g6_101"/>
<path d="M462.5,429.5V291.2H789.9V429.5Z" class="g6_101"/>
<path d="M462.5,288.6V255.1H789.9v33.5Z" class="g7_101"/>
<g clip-path="url(#c1_101)">
<image x="462" y="254" width="329" height="34" xlink:href="shade/2.png"/>
</g>
<path d="M675.7,283.4h88.2V260.3H675.7v23.1Z" class="ga_101"/>
<path d="M566.6,323.6H685.8M567,353.2V324" class="g0_101"/>
<path d="M567.3,353.2H685.1V324H567.3v29.2Z" class="g9_101"/>
<path d="M685.5,353.2V324M566.6,353.6H685.8M567,383.2V354m118.5,29.2V354M566.6,383.5H685.8M567,413.1V383.9m118.5,29.2V383.9M566.6,413.5H685.8" class="g0_101"/>
<path d="M-2.9,878.5V813.1H912.4v65.4Z" class="g6_101"/>
<path d="M-.3,875.9V815.7H909.8v60.2Z" class="gb_101"/>
<path d="M-.3,867.6H909.8M-.3,841.6H909.8M-.3,815.7H909.8M-.3,875.9V815.7m25.9,60.2V815.7m26,60.2V815.7m26,60.2V815.7m26,60.2V815.7m26,60.2V815.7m25.9,60.2V815.7m26,60.2V815.7m26,60.2V815.7m26,60.2V815.7m26,60.2V815.7m26,60.2V815.7m25.9,60.2V815.7m26,60.2V815.7m26,60.2V815.7m26,60.2V815.7m26,60.2V815.7m26,60.2V815.7m26,60.2V815.7m25.9,60.2V815.7m26,60.2V815.7m26,60.2V815.7m26,60.2V815.7m26,60.2V815.7m26,60.2V815.7m25.9,60.2V815.7m26,60.2V815.7m26,60.2V815.7m26,60.2V815.7m26,60.2V815.7m26,60.2V815.7m25.9,60.2V815.7m26,60.2V815.7m26,60.2V815.7m26,60.2V815.7m26,60.2V815.7" class="gc_101"/>
<path d="M116.9,1120.1v-144c0,-21.6,17.6,-39.1,39.2,-39.1H792.5v183.1Z" class="gd_101"/>
<path d="M119.5,1120.1V969.5H789.9v150.6Z" class="ge_101"/>
</svg>