<?xml version="1.0" encoding="UTF-8" standalone="no"?>
<!DOCTYPE svg PUBLIC "-//W3C//DTD SVG 1.1//EN"
"http://www.w3.org/Graphics/SVG/1.1/DTD/svg11.dtd">
<svg viewBox="0 0 909 1286" version="1.1" xmlns="http://www.w3.org/2000/svg" xmlns:xlink="http://www.w3.org/1999/xlink">
<defs>
<style type="text/css"><![CDATA[
.g0_55{
fill: none;
stroke: #000000;
stroke-width: 0.73;
stroke-linecap: butt;
stroke-linejoin: miter;
}
.g1_55{
}
.g2_55{
fill: none;
stroke: #02B5EE;
stroke-width: 2.191;
stroke-linecap: butt;
stroke-linejoin: miter;
}
.g3_55{
fill: #02B5EE;
stroke: #02B5EE;
stroke-width: 2.191;
stroke-linecap: butt;
stroke-linejoin: miter;
}
.g4_55{
fill: none;
stroke: #F81693;
stroke-width: 2.191;
stroke-linecap: butt;
stroke-linejoin: miter;
}
.g5_55{
fill: #F81693;
stroke: #F81693;
stroke-width: 2.191;
stroke-linecap: butt;
stroke-linejoin: miter;
}
]]></style>
</defs>
<path d="M277.1,586.1H629.6" class="g0_55"/>
<path d="M633.2,586.1l-5.8,-2.9l2.2,2.9l-2.2,2.9Z" class="g1_55"/>
<path d="M277.1,586.1V293.8" class="g0_55"/>
<path d="M277.1,290.2l-3,5.8l3,-2.2L280,296Z" class="g1_55"/>
<path d="M562,549.1l-6.5,-.9l-6.6,-.9l-6.5,-.9l-6.5,-1l-6.6,-1.1l-6.5,-1.1L516.3,542l-6.6,-1.2l-6.5,-1.3l-6.5,-1.4l-6.5,-1.5l-6.6,-1.5l-6.5,-1.7l-6.5,-1.8L464,529.7l-6.5,-2L451,525.5l-6.5,-2.4l-6.6,-2.5l-6.5,-2.8l-6.5,-3l-6.6,-3.3l-6.5,-3.6l-6.5,-4m114,38.7c0,0,-9.2,-1.7,-12.8,-2.5c-3.5,-.7,-8.3,-1.6,-12.7,-2.6c-2.2,-.6,-7.1,-1.8,-11.4,-2.8" class="g2_55"/>
<path d="M477.7,533.5c2.1,1.3,3.8,2.6,5.7,3.9c-.5,-1,-1,-1.9,-1.5,-2.9c.9,-.6,1.8,-1.2,2.7,-1.8c-2.3,.3,-4.5,.6,-6.9,.8Z" class="g3_55"/>
<path d="M348.3,364.2l3.5,10.5l3.6,9.6l3.6,8.8l3.5,8.1l3.6,7.3l3.6,6.9l3.5,6.3l3.6,5.9l3.5,5.4l3.6,5.1l3.6,4.8l3.5,4.5l3.6,4.2l3.5,3.9l3.6,3.8l3.6,3.5l3.5,3.3l3.6,3.2l3.6,3l3.5,2.8l3.6,2.7l3.5,2.6l3.6,2.5l3.6,2.3M361.4,398.5c0,0,3.9,8.5,5.6,11.7c1.6,3.2,3.8,7.6,6.2,11.4c1.2,2,3.9,6.2,6.3,9.9" class="g4_55"/>
<path d="M382.2,435.5c-.6,-2.3,-1,-4.4,-1.5,-6.7c-.3,1.1,-.6,2.1,-.9,3.2c-1,-.2,-2.1,-.4,-3.2,-.5c1.9,1.3,3.6,2.6,5.6,4Z" class="g5_55"/>
<path d="M405.3,502.8l-2.4,-2.7l-2.4,-2.8l-2.4,-2.9l-2.3,-3.1l-2.4,-3.2L391,484.7l-2.3,-3.6l-2.4,-3.9l-2.4,-4l-2.4,-4.3l-2.3,-4.6l-2.4,-4.9l-2.4,-5.2L372,448.7l-2.3,-5.9l-2.4,-6.4l-2.4,-6.8l-2.4,-7.3l-2.3,-7.9l-2.4,-8.5l-2.4,-9.2L353,386.8L350.7,376l-2.4,-11.8m35.4,108.7c0,0,-4.4,-8.3,-6,-11.5c-1.5,-3.3,-3.6,-7.7,-5.3,-11.9c-.9,-2.1,-2.7,-6.8,-4.2,-10.9" class="g2_55"/>
<path d="M366.5,434c.1,2.5,0,4.6,0,6.9c.5,-.9,1,-1.9,1.5,-2.8c1,.3,2,.7,3,1.1c-1.5,-1.7,-2.9,-3.3,-4.5,-5.2Z" class="g3_55"/>
<path d="M433.8,486.7l5.3,5.4l5.4,4.9l5.3,4.6l5.3,4.2l5.4,3.8l5.3,3.6l5.4,3.3l5.3,3.1l5.3,2.9l5.4,2.6l5.3,2.5l5.4,2.4l5.3,2.1l5.4,2.1l5.3,1.9l5.3,1.9l5.4,1.7l5.3,1.6l5.4,1.5l5.3,1.5l5.4,1.4l5.3,1.3l5.3,1.2l5.4,1.2M459.1,508.6c0,0,7.7,5.3,10.8,7.1c3.1,1.9,7.3,4.4,11.3,6.4c2.1,1.1,6.7,3.2,10.6,5" class="g4_55"/>
<path d="M496.2,529.2c-1.7,-1.7,-3.2,-3.3,-4.8,-4.9c.3,1,.6,2,.9,3.1c-.9,.4,-1.9,.8,-2.9,1.2c2.2,.2,4.4,.3,6.8,.6Z" class="g5_55"/>
</svg>