<?xml version="1.0" encoding="UTF-8" standalone="no"?>
<!DOCTYPE svg PUBLIC "-//W3C//DTD SVG 1.1//EN"
"http://www.w3.org/Graphics/SVG/1.1/DTD/svg11.dtd">
<svg viewBox="0 0 1286 909" version="1.1" xmlns="http://www.w3.org/2000/svg" xmlns:xlink="http://www.w3.org/1999/xlink">
<defs>
<style type="text/css"><![CDATA[
.g0_587{
fill: none;
stroke: #000000;
stroke-width: 0.73;
stroke-linecap: butt;
stroke-linejoin: miter;
}
.g1_587{
fill: #FFCCCC;
}
.g2_587{
fill: #AEF080;
}
.g3_587{
fill: none;
stroke: #5EE200;
stroke-width: 1.461;
stroke-linecap: butt;
stroke-linejoin: miter;
stroke-dasharray: 2,2;
}
.g4_587{
fill: none;
stroke: #02B5EE;
stroke-width: 1.262;
stroke-linecap: butt;
stroke-linejoin: miter;
}
.g5_587{
fill: none;
stroke: #02B5EE;
stroke-width: 0.73;
stroke-linecap: butt;
stroke-linejoin: miter;
}
]]></style>
</defs>
<path d="M193,83.4h900.3M193,210.6H843.1m-650.1,0H843.1M409.3,240.2V211m0,58.5V240.2m0,63.2V269.5" class="g0_587"/>
<path d="M469.9,303.4h59.5V270.5H469.9v32.9Z" class="g1_587"/>
<path d="M539.9,303.4H721.5V270.5H539.9v32.9Z" class="g2_587"/>
<path d="M735.7,297h92.8" class="g3_587"/>
<path d="M409.3,332.6V303.4m0,62.1V332.6" class="g0_587"/>
<path d="M544.6,361.1H687" class="g3_587"/>
<path d="M690.6,365.5h44.8V332.6H690.6v32.9Z" class="g2_587"/>
<path d="M741.4,365.5h90.7V332.6H741.4v32.9Z" class="g1_587"/>
<path d="M409.3,394.7V365.5m0,58.4V394.7m0,114.3V423.9" class="g0_587"/>
<path d="M440.6,473.3h62.2V440.4H440.6v32.9Z" class="g1_587"/>
<path d="M523.1,485H668.6" class="g4_587"/>
<path d="M409.3,538.2V509m0,102.3V538.2" class="g0_587"/>
<path d="M617.1,597.4h67.6" class="g5_587"/>
<path d="M758.3,587.5h73.8V554.6H758.3v32.9Z" class="g1_587"/>
<path d="M409.3,640.5V611.3m0,58.4V640.5m0,58.4V669.7M193,699.3H843.1m-650.1,0H843.1" class="g0_587"/>
</svg>