<?xml version="1.0" encoding="UTF-8" standalone="no"?>
<!DOCTYPE svg PUBLIC "-//W3C//DTD SVG 1.1//EN"
"http://www.w3.org/Graphics/SVG/1.1/DTD/svg11.dtd">
<svg viewBox="0 0 1286 909" version="1.1" xmlns="http://www.w3.org/2000/svg" xmlns:xlink="http://www.w3.org/1999/xlink">
<defs>
<style type="text/css"><![CDATA[
.g0_1231{
fill: none;
stroke: #000000;
stroke-width: 0.73;
stroke-linecap: butt;
stroke-linejoin: miter;
}
.g1_1231{
fill: none;
stroke: #000000;
stroke-width: 0.657;
stroke-linecap: butt;
stroke-linejoin: miter;
}
.g2_1231{
fill: #FDE8E9;
}
]]></style>
</defs>
<path d="M193,83.4h900.3" class="g0_1231"/>
<path d="M202.8,112.4H484.2M202.8,139V112.7M353.9,139V112.7M484.2,139V112.7M202.8,168.4V139m151.1,29.4V139" class="g1_1231"/>
<path d="M363.7,165.4h63.6V139H363.7v26.4Z" class="g2_1231"/>
<path d="M484.2,168.4V139M202.8,194.7V168.4m151.1,26.3V168.4m130.3,26.3V168.4M202.8,221V194.7M353.9,221V194.7M484.2,221V194.7M202.8,250.4V221m151.1,29.4V221" class="g1_1231"/>
<path d="M363.7,247.4H436V221H363.7v26.4Z" class="g2_1231"/>
<path d="M484.2,250.4V221M202.8,276.7V250.4m151.1,26.3V250.4m130.3,26.3V250.4M202.8,303V276.7M353.9,303V276.7M484.2,303V276.7M202.8,332.4V303m151.1,29.4V303" class="g1_1231"/>
<path d="M363.7,329.4h81.7V303H363.7v26.4Z" class="g2_1231"/>
<path d="M484.2,332.4V303M202.8,358.7V332.4m151.1,26.3V332.4m130.3,26.3V332.4M202.8,385V358.7M353.9,385V358.7M484.2,385V358.7M202.8,416.1V385m151.1,31.1V385" class="g1_1231"/>
<path d="M363.7,416.1h93.2V385H363.7v31.1Z" class="g2_1231"/>
<path d="M484.2,416.1V385M202.8,442.4V416.1m151.1,26.3V416.1m130.3,26.3V416.1M202.8,468.7V442.4m151.1,26.3V442.4m130.3,26.3V442.4M202.8,498.1V468.7m151.1,29.4V468.7" class="g1_1231"/>
<path d="M363.7,495.1H428V468.7H363.7v26.4Z" class="g2_1231"/>
<path d="M484.2,498.1V468.7M202.8,524.4V498.1m151.1,26.3V498.1m130.3,26.3V498.1M202.8,550.7V524.4m151.1,26.3V524.4m130.3,26.3V524.4M202.8,579.6V550.7m151.1,28.9V550.7" class="g1_1231"/>
<path d="M363.7,579.6h95.2V553.9H363.7v25.7Z" class="g2_1231"/>
<path d="M484.2,579.6V550.7M202.8,605.9V579.6m151.1,26.3V579.6m130.3,26.3V579.6M202.8,632.2V605.9m151.1,26.3V605.9m130.3,26.3V605.9M202.8,661.6V632.2m151.1,29.4V632.2" class="g1_1231"/>
<path d="M363.7,658.6H474.3V632.2H363.7v26.4Z" class="g2_1231"/>
<path d="M484.2,661.6V632.2M202.8,687.9V661.6m151.1,26.3V661.6m130.3,26.3V661.6M202.8,714.2V687.9m151.1,26.3V687.9m130.3,26.3V687.9M202.8,745.4V714.2m151.1,31.2V714.2" class="g1_1231"/>
<path d="M363.7,745.4h84.6V714.2H363.7v31.2Z" class="g2_1231"/>
<path d="M484.2,745.4V714.2M202.8,771.7V745.4m151.1,26.3V745.4m130.3,26.3V745.4M202.8,772H484.2M503.9,109.5h245m-245,26.6V109.8m107.3,26.3V109.8m137.7,26.3V109.8m-245,55.7V136.1m107.3,29.4V136.1" class="g1_1231"/>
<path d="M621,162.5h79.6V136.1H621v26.4Z" class="g2_1231"/>
<path d="M748.9,165.5V136.1m-245,55.7V165.5m107.3,26.3V165.5m137.7,26.3V165.5m-245,52.6V191.8m107.3,26.3V191.8m137.7,26.3V191.8m-245,55.7V218.1m107.3,29.4V218.1" class="g1_1231"/>
<path d="M621,244.5h91.2V218.1H621v26.4Z" class="g2_1231"/>
<path d="M748.9,247.5V218.1m-245,55.7V247.5m107.3,26.3V247.5m137.7,26.3V247.5m-245,52.6V273.8m107.3,26.3V273.8m137.7,26.3V273.8m-245,57.4V300.1m107.3,31.1V300.1" class="g1_1231"/>
<path d="M621,331.2H739.1V300.1H621v31.1Z" class="g2_1231"/>
<path d="M748.9,331.2V300.1m-245,57.4V331.2m107.3,26.3V331.2m137.7,26.3V331.2m-245,52.6V357.5m107.3,26.3V357.5m137.7,26.3V357.5M503.9,415V383.8M611.2,415V383.8" class="g1_1231"/>
<path d="M621,415h58.7V383.8H621V415Z" class="g2_1231"/>
<path d="M748.9,415V383.8m-245,57.5V415m107.3,26.3V415m137.7,26.3V415m-245,52.6V441.3m107.3,26.3V441.3m137.7,26.3V441.3m-245,57.5V467.6m107.3,31.2V467.6" class="g1_1231"/>
<path d="M621,498.8h95.4V467.6H621v31.2Z" class="g2_1231"/>
<path d="M748.9,498.8V467.6m-245,57.5V498.8m107.3,26.3V498.8m137.7,26.3V498.8m-245,52.6V525.1m107.3,26.3V525.1m137.7,26.3V525.1m-245,57.4V551.4m107.3,31.1V551.4" class="g1_1231"/>
<path d="M621,582.5h57.6V551.4H621v31.1Z" class="g2_1231"/>
<path d="M748.9,582.5V551.4m-245,57.4V582.5m107.3,26.3V582.5m137.7,26.3V582.5m-245,52.6V608.8m107.3,26.3V608.8m137.7,26.3V608.8m-245,57.5V635.1m107.3,31.2V635.1" class="g1_1231"/>
<path d="M621,666.3H732V635.1H621v31.2Z" class="g2_1231"/>
<path d="M748.9,666.3V635.1m-245,57.5V666.3m107.3,26.3V666.3m137.7,26.3V666.3m-245,52.6V692.6m107.3,26.3V692.6m137.7,26.3V692.6m-245,55.7V718.9m107.3,29.4V718.9" class="g1_1231"/>
<path d="M621,745.3H726.5V718.9H621v26.4Z" class="g2_1231"/>
<path d="M748.9,748.3V718.9m-245,55.7V748.3m107.3,26.3V748.3m137.7,26.3V748.3m-245,26.6h245M768.7,111.3h274.8M768.7,137.9V111.6m107.2,26.3V111.6m167.6,26.3V111.6M768.7,167.3V137.9m107.2,29.4V137.9" class="g1_1231"/>
<path d="M885.8,164.3h66.8V137.9H885.8v26.4Z" class="g2_1231"/>
<path d="M1043.5,167.3V137.9M768.7,193.6V167.3m107.2,26.3V167.3m167.6,26.3V167.3M768.7,219.9V193.6m107.2,26.3V193.6m167.6,26.3V193.6M768.7,249.3V219.9m107.2,29.4V219.9" class="g1_1231"/>
<path d="M885.8,246.3H989.3V219.9H885.8v26.4Z" class="g2_1231"/>
<path d="M1043.5,249.3V219.9M768.7,275.6V249.3m107.2,26.3V249.3m167.6,26.3V249.3M768.7,301.9V275.6m107.2,26.3V275.6m167.6,26.3V275.6M768.7,331.2V301.9m107.2,29.3V301.9" class="g1_1231"/>
<path d="M885.8,328.3h147.8V301.9H885.8v26.4Z" class="g2_1231"/>
<path d="M1043.5,331.2V301.9M768.7,357.5V331.2m107.2,26.3V331.2m167.6,26.3V331.2M768.7,383.8V357.5m107.2,26.3V357.5m167.6,26.3V357.5M768.7,413.2V383.8m107.2,29.4V383.8" class="g1_1231"/>
<path d="M885.8,410.3H992.1V383.8H885.8v26.5Z" class="g2_1231"/>
<path d="M1043.5,413.2V383.8M768.7,439.5V413.2m107.2,26.3V413.2m167.6,26.3V413.2M768.7,465.8V439.5m107.2,26.3V439.5m167.6,26.3V439.5M768.7,497V465.8M875.9,497V465.8" class="g1_1231"/>
<path d="M885.8,497H995.5V465.8H885.8V497Z" class="g2_1231"/>
<path d="M1043.5,497V465.8M768.7,523.3V497m107.2,26.3V497m167.6,26.3V497M768.7,549.6V523.3m107.2,26.3V523.3m167.6,26.3V523.3M768.7,580.7V549.6m107.2,31.1V549.6" class="g1_1231"/>
<path d="M885.8,580.7h93.6V549.6H885.8v31.1Z" class="g2_1231"/>
<path d="M1043.5,580.7V549.6M768.7,607V580.7M875.9,607V580.7M1043.5,607V580.7M768.7,633.3V607m107.2,26.3V607m167.6,26.3V607M768.7,662.7V633.3m107.2,29.4V633.3" class="g1_1231"/>
<path d="M931.3,659.8H992V633.3H931.3v26.5Z" class="g2_1231"/>
<path d="M1043.5,662.7V633.3M768.7,689V662.7M875.9,689V662.7M1043.5,689V662.7M768.7,715.3V689m107.2,26.3V689m167.6,26.3V689M768.7,746.5V715.3m107.2,31.2V715.3" class="g1_1231"/>
<path d="M885.8,746.5H929V715.3H885.8v31.2Z" class="g2_1231"/>
<path d="M1043.5,746.5V715.3M768.7,772.8V746.5m107.2,26.3V746.5m167.6,26.3V746.5M768.7,773.1h274.8" class="g1_1231"/>
</svg>