<?xml version="1.0" encoding="UTF-8" standalone="no"?>
<!DOCTYPE svg PUBLIC "-//W3C//DTD SVG 1.1//EN"
"http://www.w3.org/Graphics/SVG/1.1/DTD/svg11.dtd">
<svg viewBox="0 0 909 1286" version="1.1" xmlns="http://www.w3.org/2000/svg" xmlns:xlink="http://www.w3.org/1999/xlink">
<defs>
<style type="text/css"><![CDATA[
.g0_16{
fill: none;
stroke: #000000;
stroke-width: 0.73;
stroke-linecap: butt;
stroke-linejoin: miter;
}
.g1_16{
fill: none;
stroke: #F81693;
stroke-width: 0.73;
stroke-linecap: butt;
stroke-linejoin: miter;
}
.g2_16{
fill: none;
stroke: #02B5EE;
stroke-width: 0.73;
stroke-linecap: butt;
stroke-linejoin: miter;
}
.g3_16{
fill: none;
stroke: #02B5EE;
stroke-width: 1.461;
stroke-linecap: butt;
stroke-linejoin: miter;
}
]]></style>
</defs>
<path d="M116.9,179.9H678.7M307.3,209.5V180.3M179.2,240l31.3,18.6M179.2,240l-24.8,14.8m80.9,-11l-24.8,14.8M307.3,273V209.5" class="g0_16"/>
<path d="M439.9,255L421.7,244m31,11L471,244" class="g1_16"/>
<path d="M407.8,244.4l-18.3,10.9" class="g2_16"/>
<path d="M307.3,302.3V273m0,58.5V302.3" class="g0_16"/>
<path d="M374.3,330c1.3,0,2,-2.7,3.4,-2.7c1,0,1.8,1.3,2.7,2.7c.9,1.4,1.8,2.8,2.8,2.8c.9,0,1.8,-1.4,2.7,-2.8c.9,-1.4,1.7,-2.7,2.7,-2.7c1.4,0,2.1,2.7,3.5,2.7H396" class="g3_16"/>
<path d="M307.3,360.7V331.5M116.9,361.1H678.7" class="g0_16"/>
</svg>