<?xml version="1.0" encoding="UTF-8" standalone="no"?>
<!DOCTYPE svg PUBLIC "-//W3C//DTD SVG 1.1//EN"
"http://www.w3.org/Graphics/SVG/1.1/DTD/svg11.dtd">
<svg viewBox="0 0 909 1286" version="1.1" xmlns="http://www.w3.org/2000/svg" xmlns:xlink="http://www.w3.org/1999/xlink">
<defs>
<style type="text/css"><![CDATA[
.g0_29{
fill: none;
stroke: #000000;
stroke-width: 1.972;
stroke-linecap: butt;
stroke-linejoin: miter;
}
.g1_29{
fill: none;
stroke: #F81693;
stroke-width: 0.73;
stroke-linecap: butt;
stroke-linejoin: miter;
}
.g2_29{
fill: none;
stroke: #02B5EE;
stroke-width: 0.73;
stroke-linecap: butt;
stroke-linejoin: miter;
}
.g3_29{
fill: none;
stroke: #F81693;
stroke-width: 1.278;
stroke-linecap: butt;
stroke-linejoin: miter;
}
.g4_29{
fill: #F81693;
stroke: #F81693;
stroke-width: 1.155;
stroke-linecap: butt;
stroke-linejoin: round;
stroke-miterlimit: 1;
}
.g5_29{
fill: #7F7F7F;
stroke: #7F7F7F;
stroke-width: 1.155;
stroke-linecap: butt;
stroke-linejoin: round;
stroke-miterlimit: 1;
}
]]></style>
</defs>
<path d="M116.9,265.6H792.5m-1,90.9v-90m-674.6,91H792.5" class="g0_29"/>
<path d="M190,461.5l-31.2,18.6M190,461.5l31.2,18.6M190,535.6L158.8,517M190,535.6L221.2,517m0,-.2V480.3m-62.4,36.5V480.3m93.7,-18.8l-31.3,18.6m31.3,-18.6l31.2,18.6m-31.2,55.5L221.2,517m31.3,18.6L283.7,517m0,-.2V480.3m31.2,-18.8l-31.2,18.6m31.2,-18.6l31.3,18.6m0,36.7V480.3m-31.3,55.3L346.2,517m-31.3,18.6L283.7,517M188.9,469.1l-23,13.7m23,45.2l-23,-13.7m87.7,-45.2l-23,13.7m23,45.2l-23,-13.7M316,469.1l-23,13.7M316,528L293,514.3m84.4,-52.8l31.2,18.6m0,36.7V480.3m-31.2,55.3L408.6,517m-31.2,18.6L346.2,517m31.2,-55.5l-31.2,18.6m6,32V485m26.3,43l23,-13.7" class="g1_29"/>
<path d="M408.6,406.1l31.3,18.7m0,36.7V424.9m-31.3,55.4l31.3,-18.6m-62.5,-.2V424.9m31.2,-18.8l-31.2,18.7m30.2,-11l-23.1,13.7m23.1,45.1L384.5,458.9m86.6,-52.8l31.3,18.7m0,36.7V424.9m-31.3,55.4l31.3,-18.6m-31.3,18.6L439.9,461.7m31.2,-55.6l-31.2,18.7m32.3,-11l23,13.7m-23,45.1l23,-13.7m-49.3,-2.2v-27" class="g2_29"/>
<path d="M116.9,653.2H792.5m-1,90.9v-90m-674.6,91H792.5" class="g0_29"/>
<path d="M315.5,810.9l54.6,32.6m0,64.3v-64m-54.6,96.9l54.6,-32.6m-54.6,32.6L260.8,908.1m0,-.3v-64m54.7,-32.9l-54.7,32.6M206.1,810.9l54.7,32.6m-54.7,97.2l54.7,-32.6m-54.7,32.6L151.5,908.1m0,-.3v-64m54.6,-32.9l-54.6,32.6m52.7,-19.2l-40.3,24m40.3,79l-40.3,-24m149.6,-79l-40.2,24m40.2,79l-40.2,-24M424.8,810.9l54.6,32.6m0,64.3v-64m-54.6,96.9l54.6,-32.6m-54.6,32.6L370.1,908.1m54.7,-97.2l-54.7,32.6m52.8,-19.2l-40.3,24m40.3,79l-40.3,-24M534.1,810.9l54.7,32.6m0,64.3v-64m-54.7,96.9l54.7,-32.6m-54.7,32.6L479.4,908.1m54.7,-97.2l-54.7,32.6M536,824.3l40.3,24m-40.3,79l40.3,-24M490,899.4V852.1" class="g3_29"/>
<path d="M487.5,843.8c0,3.5,-2.2,6.6,-5.6,7.7c-3.3,1.1,-6.9,-.1,-9,-2.9c-2.1,-2.9,-2.1,-6.7,0,-9.5c2.1,-2.9,5.7,-4,9,-3c3.4,1.1,5.6,4.2,5.6,7.7Z" class="g4_29"/>
<path d="M542.2,810.9c0,3.5,-2.3,6.6,-5.6,7.7c-3.3,1.1,-7,-.1,-9,-2.9c-2.1,-2.9,-2.1,-6.7,0,-9.5c2,-2.9,5.7,-4.1,9,-3c3.3,1.1,5.6,4.2,5.6,7.7Z" class="g5_29"/>
<path d="M596.8,843.8c0,3.5,-2.2,6.6,-5.5,7.7c-3.4,1.1,-7,-.1,-9.1,-2.9c-2,-2.9,-2,-6.7,0,-9.5c2.1,-2.9,5.7,-4,9.1,-3c3.3,1.1,5.5,4.2,5.5,7.7Z" class="g5_29"/>
</svg>