<?xml version="1.0" encoding="UTF-8" standalone="no"?>
<!DOCTYPE svg PUBLIC "-//W3C//DTD SVG 1.1//EN"
"http://www.w3.org/Graphics/SVG/1.1/DTD/svg11.dtd">
<svg viewBox="0 0 909 1286" version="1.1" xmlns="http://www.w3.org/2000/svg" xmlns:xlink="http://www.w3.org/1999/xlink">
<defs>
<clipPath id="c0_73"><path d="M123.1,218.7V187h29.1v31.7Z"/></clipPath>
<clipPath id="c1_73"><path d="M122.1,219.2V186.5H153v32.7Z"/></clipPath>
<style type="text/css"><![CDATA[
.g0_73{
fill: #FFFFFF;
}
.g1_73{
}
.g2_73{
fill: none;
stroke: #000000;
stroke-width: 0.459;
stroke-linecap: butt;
stroke-linejoin: round;
}
.g3_73{
fill: none;
stroke: #000000;
stroke-width: 0.722;
stroke-linecap: round;
stroke-linejoin: miter;
}
.g4_73{
fill: none;
stroke: #000000;
stroke-width: 0.722;
stroke-linecap: round;
stroke-linejoin: round;
}
.g5_73{
fill: #D40000;
}
.g6_73{
fill: none;
stroke: #000000;
stroke-width: 0.578;
stroke-linecap: round;
stroke-linejoin: miter;
}
.g7_73{
fill: #E9C6AF;
}
.g8_73{
fill: none;
stroke: #695000;
stroke-width: 0.152;
stroke-linecap: round;
stroke-linejoin: round;
}
.g9_73{
fill: none;
stroke: #000000;
stroke-width: 1.461;
stroke-linecap: butt;
stroke-linejoin: miter;
}
.ga_73{
fill: none;
stroke: #000000;
stroke-width: 0.73;
stroke-linecap: butt;
stroke-linejoin: miter;
}
.gb_73{
fill: none;
stroke: #000000;
stroke-width: 2.739;
stroke-linecap: butt;
stroke-linejoin: miter;
}
.gc_73{
fill: #F81693;
fill-opacity: 0.25;
stroke: #F81693;
stroke-width: 0.73;
stroke-linecap: butt;
stroke-linejoin: miter;
stroke-opacity: 0.25;
}
.gd_73{
fill: #5EE200;
fill-opacity: 0.25;
stroke: #5EE200;
stroke-width: 0.73;
stroke-linecap: butt;
stroke-linejoin: miter;
stroke-opacity: 0.25;
}
.ge_73{
fill: #02B5EE;
fill-opacity: 0.25;
stroke: #02B5EE;
stroke-width: 0.73;
stroke-linecap: butt;
stroke-linejoin: miter;
stroke-opacity: 0.25;
}
.gf_73{
fill: #FFF200;
fill-opacity: 0.75;
stroke: #FFF200;
stroke-width: 0.73;
stroke-linecap: butt;
stroke-linejoin: miter;
stroke-opacity: 0.75;
}
]]></style>
</defs>
<path d="M117.7,318.3v-138H791.8v138Z" class="g0_73"/>
<path d="M117.7,318.3v-138H791.8v138Z" class="g9_73"/>
<g clip-path="url(#c1_73)">
<path clip-path="url(#c0_73)" d="M126.4,212.4c0,0,1.5,-.9,1.2,-1.3c-.1,-.1,-.3,-.1,-.6,0c-1.6,.3,-5,2.1,-3.3,4.1c1.4,1.6,6.4,2.4,11.7,1.4c7.3,-1.4,13.5,-5.5,11.1,-8.3c-1.6,-2,-6.7,-2.1,-10.8,-2.2c-2.1,0,-6.6,-.1,-8,-1.7c-.6,-.7,-.5,-1.6,.1,-2.2c1,-.9,3.8,-1.4,4,-1.5c.7,-.1,2.5,-.4,4.6,-.3c1.1,0,2.5,0,3.2,.9c.2,.3,.4,.6,.4,.7c0,0,0,.1,.1,.2c.1,.1,.4,.1,.5,.1c.5,-.1,1.5,-.5,2,-1.1c.3,-.2,.8,-.6,0,-1.5c-.9,-1.1,-2.3,-1.1,-4,-1.2c-2.3,0,-4.1,.4,-4.9,.5c-5.8,1.1,-11.1,4.6,-9,7c1.5,1.9,6.3,1.9,9,1.9c3.9,.1,8.4,.3,9.8,2c.6,.7,.9,1.9,-.4,2.9c-1.2,.9,-4,1.7,-5.8,2c-4.4,.9,-9.4,.2,-10.6,-1.2c0,-.1,-.5,-.6,-.3,-1.2Z" class="g1_73"/>
<path d="M131.5,214.8l-.2,-.2l.3,-4.6q.3,-5.6,.5,-5.9c.1,-.2,1.6,-2.3,3.3,-4.6c1.7,-2.4,4.3,-6.1,5.9,-8.3c1.5,-2.2,2.8,-3.9,2.9,-3.9c.4,0,.1,.4,-1.8,3.1c-1.2,1.6,-3.7,5.3,-5.7,8.1c-2,2.9,-3.6,5.2,-3.6,5.2c0,0,.5,.1,1,.2c2,.2,3.3,.6,4.5,1.2c.6,.3,1,.5,1.5,1.1c.8,.8,1.2,1.4,1.4,2.2c.1,.3,.1,.5,.2,.5c.1,0,.7,-.8,5.2,-7.6c2.4,-3.7,4.5,-6.7,4.6,-6.8c.2,-.3,.4,-.1,.2,.2c0,.1,-1.5,2.4,-3.2,5c-1.8,2.7,-3.8,5.7,-4.5,6.8c-1.5,2.4,-2.1,3.3,-2.3,3.8c-.2,.3,-.3,.4,-.9,.7c-.8,.4,-8.7,3.9,-8.9,4c-.1,0,-.3,-.1,-.4,-.2Z" class="g1_73"/>
<path d="M135.2,212.8c2.2,-.9,4,-1.7,4.6,-2q.7,-.4,.7,-1.4c-.2,-1.7,-1.4,-3.1,-3.6,-3.8c-1.2,-.4,-4.3,-.8,-4.4,-.6c0,0,-.1,1.5,-.2,3.1c-.1,1.7,-.2,3.3,-.2,3.6c-.1,1.2,.1,1.5,-.2,2.6c.1,.1,1.8,-.8,1.8,-.8c.1,0,.7,-.3,1.5,-.7Z" class="g1_73"/>
<path d="M131.5,214.8l-.2,-.2l.3,-4.6q.3,-5.6,.5,-5.9c.1,-.2,1.6,-2.3,3.3,-4.6c1.7,-2.4,4.3,-6.1,5.9,-8.3c1.5,-2.2,2.8,-3.9,2.9,-3.9c.4,0,.1,.4,-1.8,3.1c-1.2,1.6,-3.7,5.3,-5.7,8.1c-2,2.9,-3.6,5.2,-3.6,5.2c0,0,.5,.1,1,.2c2,.2,3.3,.6,4.5,1.2c.6,.3,1,.5,1.5,1.1c.8,.8,1.2,1.4,1.4,2.2c.1,.3,.1,.5,.2,.5c.1,0,.7,-.8,5.2,-7.6c2.4,-3.7,4.5,-6.7,4.6,-6.8c.2,-.3,.4,-.1,.2,.2c0,.1,-1.5,2.4,-3.2,5c-1.8,2.7,-3.8,5.7,-4.5,6.8c-1.5,2.4,-2.1,3.3,-2.3,3.8c-.2,.3,-.3,.4,-.9,.7c-.8,.4,-8.7,3.9,-8.9,4c-.1,0,-.3,-.1,-.4,-.2Zm3.7,-2c2.2,-.9,4,-1.7,4.6,-2q.7,-.4,.7,-1.4c-.2,-1.7,-1.4,-3.1,-3.6,-3.8c-1.2,-.4,-4.3,-.8,-4.4,-.6c0,0,-.1,1.5,-.2,3.1c-.1,1.7,-.2,3.3,-.2,3.6c-.1,1.2,.1,1.5,-.2,2.6c.1,.1,1.8,-.8,1.8,-.8c.1,0,.7,-.3,1.5,-.7Z" class="g2_73"/>
<path d="M135.3,204.2l11.2,-16m-8.2,17.2L149,189.6" class="g3_73"/>
<path d="M140.4,207.1l10,-14.5l.2,-.3" class="g4_73"/>
<path d="M134.1,203.8c-.4,0,-.8,-.1,-.9,-.1c0,0,2.5,-3.7,6.7,-9.6c1.9,-2.7,3.6,-5.2,3.8,-5.5c.2,-.4,.4,-.7,.5,-.7c.1,0,.7,.5,.9,.7c.1,.4,.1,.6,-.1,1.1c-.2,.5,-9.8,14.3,-9.9,14.3c-.1,0,-.5,-.1,-1,-.2Z" class="g5_73"/>
<path d="M137.6,204.6c-.2,-.1,-.8,-.3,-1.2,-.4l-.7,-.1l.3,-.4c.1,-.2,2.3,-3.3,4.8,-7l4.7,-6.7l.5,-.2c.9,-.5,1.6,-.5,2.1,0l.3,.3l-5,7.4c-3.1,4.4,-5.1,7.3,-5.1,7.3c-.1,0,-.4,-.1,-.7,-.2Z" class="g5_73"/>
<path d="M140,206c-.2,-.2,-.6,-.5,-.8,-.6c-.2,-.1,-.3,-.3,-.3,-.3c0,-.1,9.4,-14,9.8,-14.6c.1,-.1,.5,.3,.8,.7c.3,.4,.3,.6,.4,1.1c0,.3,0,.6,-.1,.7c-.2,.3,-9.1,13.1,-9.2,13.3c-.2,.2,-.2,.1,-.6,-.3Z" class="g5_73"/>
<path d="M141.6,208.7c0,-.1,-.1,-.3,-.1,-.6c-.1,-.2,-.3,-.6,-.4,-.8l-.3,-.4l4.7,-6.8c2.6,-3.7,4.8,-6.8,4.8,-6.8c.4,0,1,.7,1,1.1c0,.2,-.6,1.2,-1.9,3.1c-1.1,1.6,-3.1,4.7,-4.6,6.8c-3,4.4,-3.1,4.6,-3.2,4.4Z" class="g5_73"/>
<path d="M131.9,210.2c2.3,-.1,3.6,.7,4.1,2.3" class="g6_73"/>
<path d="M132,214.1c0,-.4,.1,-.4,.1,-1.3c0,-.8,0,-1,0,-1.4c0,-.2,0,-.6,0,-.7l.1,-.2c.1,0,.6,0,.7,0c.4,0,.8,.1,1.1,.2c.2,.1,.4,.2,.6,.3c.2,.2,.3,.2,.4,.4c.3,.2,.4,.4,.6,.7c0,.2,.1,.5,.1,.5c0,0,-1.5,.7,-1.8,.8c-.1,0,-.2,.1,-.3,.1c-1.1,.6,-1.4,.7,-1.6,.8Z" class="g1_73"/>
<path d="M136.2,212c-.6,-1.2,-1.8,-2,-3.4,-2.1l-.6,-.1v-.4c.1,-.3,.1,-1.3,.2,-2.2c0,-1,.1,-1.8,.1,-2l.1,-.2h.7c.8,.1,2.3,.3,3.1,.5c1.7,.5,3.1,1.4,3.6,2.5c.4,.8,.6,2.1,.3,2.4c-.1,.2,-.8,.5,-2.5,1.3c-1.6,.7,-1.5,.7,-1.6,.3Z" class="g7_73"/>
<path d="M136.2,212c-.6,-1.2,-1.8,-2,-3.4,-2.1l-.6,-.1v-.4c.1,-.3,.1,-1.3,.2,-2.2c0,-1,.1,-1.8,.1,-2l.1,-.2h.7c.8,.1,2.3,.3,3.1,.5c1.7,.5,3.1,1.4,3.6,2.5c.4,.8,.6,2.1,.3,2.4c-.1,.2,-.8,.5,-2.5,1.3c-1.6,.7,-1.5,.7,-1.6,.3Z" class="g8_73"/>
</g>
<path d="M152.7,212.2H597.3" class="ga_73"/>
<path d="M137.6,219.7v89.1" class="gb_73"/>
<path d="M184.9,398.9V348.2m0,94.6V398.9m0,73.1V442.8m0,58.4V472m0,58.4V501.2m0,58.4V530.4m0,58.5V559.6m0,58.5V588.9m0,58.4V618.1m0,63.9V647.3m0,438.8V682" class="ga_73"/>
<path d="M423,885.9c0,-21.5,-17.4,-39,-38.9,-39c-21.6,0,-39,17.5,-39,39c0,21.5,17.4,39,39,39c21.5,0,38.9,-17.5,38.9,-39Z" class="g9_73"/>
<path d="M367.8,850.4l-11.6,14.5l2.2,-10.1l-9.1,-5Z" class="g1_73"/>
<path d="M384.1,840.3l30.7,-30.7h-13V793.3H366.3v16.3h-13Z" class="gc_73"/>
<path d="M536.5,885.9L508.8,858.2v13H441.2v29.4h67.6v13Z" class="gd_73"/>
<path d="M637.4,885.9c0,-21.5,-17.4,-39,-39,-39c-21.5,0,-38.9,17.5,-38.9,39c0,21.5,17.4,39,38.9,39c21.6,0,39,-17.5,39,-39Z" class="g9_73"/>
<path d="M582.2,850.4l18.6,.7l-9.2,-5L593.9,836Z" class="g1_73"/>
<path d="M598.4,762.8L545.3,816h13v16.3h80.3V816h13Z" class="ge_73"/>
<path d="M598.4,931.4l-30.7,30.8h13v16.3h35.5V962.2h13Z" class="gc_73"/>
<path d="M306.1,749.5V691H676.4v58.5Z" class="gf_73"/>
<path d="M306.1,993.1v58.4H676.4V993.1Z" class="gf_73"/>
<path d="M184.9,1115.3v-29.2m0,58.4v-29.2" class="ga_73"/>
</svg>