<?xml version="1.0" encoding="UTF-8" standalone="no"?>
<!DOCTYPE svg PUBLIC "-//W3C//DTD SVG 1.1//EN"
"http://www.w3.org/Graphics/SVG/1.1/DTD/svg11.dtd">
<svg viewBox="0 0 1286 909" version="1.1" xmlns="http://www.w3.org/2000/svg" xmlns:xlink="http://www.w3.org/1999/xlink">
<defs>
<style type="text/css"><![CDATA[
.g0_1175{
fill: none;
stroke: #000000;
stroke-width: 0.73;
stroke-linecap: butt;
stroke-linejoin: miter;
}
.g1_1175{
fill: none;
stroke: #000000;
stroke-width: 0.584;
stroke-linecap: butt;
stroke-linejoin: miter;
}
.g2_1175{
fill: #FDE8E9;
}
]]></style>
</defs>
<path d="M193,83.4h900.3" class="g0_1175"/>
<path d="M206.6,114.6H515M206.6,138.3V114.9m192.6,23.4V114.9M515,138.3V114.9M206.6,164.4V138.3m192.6,26.1V138.3" class="g1_1175"/>
<path d="M408,161.7h57.9V138.3H408v23.4Z" class="g2_1175"/>
<path d="M515,164.4V138.3M206.6,187.8V164.4m192.6,23.4V164.4M515,187.8V164.4M206.6,211.1V187.8m192.6,23.3V187.8M515,211.1V187.8M206.6,235.3V211.1m192.6,24.2V211.1" class="g1_1175"/>
<path d="M408,232.6h61.9V214H408v18.6Z" class="g2_1175"/>
<path d="M515,235.3V211.1M206.6,258.6V235.3m192.6,23.3V235.3M515,258.6V235.3M206.6,282V258.6M399.2,282V258.6M515,282V258.6M206.6,309.7V282m192.6,27.7V282" class="g1_1175"/>
<path d="M408,309.7h98.3V282H408v27.7Z" class="g2_1175"/>
<path d="M515,309.7V282M206.6,333.1V309.7m192.6,23.4V309.7M515,333.1V309.7M206.6,356.5V333.1m192.6,23.4V333.1M515,356.5V333.1M206.6,382.6V356.5m192.6,26.1V356.5" class="g1_1175"/>
<path d="M408,380h53V356.5H408V380Z" class="g2_1175"/>
<path d="M515,382.6V356.5M206.6,406V382.6M399.2,406V382.6M515,406V382.6M206.6,429.4V406m192.6,23.4V406M515,429.4V406M206.6,455.5V429.4m192.6,26.1V429.4" class="g1_1175"/>
<path d="M408,452.8h63.1V429.4H408v23.4Z" class="g2_1175"/>
<path d="M515,455.5V429.4M206.6,478.8V455.5m192.6,23.3V455.5M515,478.8V455.5M206.6,502.2V478.8m192.6,23.4V478.8M515,502.2V478.8M206.6,528.3V502.2m192.6,26.1V502.2" class="g1_1175"/>
<path d="M408,525.7h58.3V502.2H408v23.5Z" class="g2_1175"/>
<path d="M515,528.3V502.2M206.6,551.7V528.3m192.6,23.4V528.3M515,551.7V528.3M206.6,575.1V551.7m192.6,23.4V551.7M515,575.1V551.7M206.6,601.2V575.1m192.6,26.1V575.1" class="g1_1175"/>
<path d="M408,598.6h84.3V575.1H408v23.5Z" class="g2_1175"/>
<path d="M515,601.2V575.1M206.6,624.6V601.2m192.6,23.4V601.2M515,624.6V601.2M206.6,648V624.6M399.2,648V624.6M515,648V624.6M206.6,674.1V648m192.6,26.1V648" class="g1_1175"/>
<path d="M408,671.5h66.6V648H408v23.5Z" class="g2_1175"/>
<path d="M515,674.1V648M206.6,697.5V674.1m192.6,23.4V674.1M515,697.5V674.1M206.6,720.8V697.5m192.6,23.3V697.5M515,720.8V697.5M206.6,745V720.8M399.2,745V720.8" class="g1_1175"/>
<path d="M408,742.4h62.7V723.7H408v18.7Z" class="g2_1175"/>
<path d="M515,745V720.8M206.6,768.4V745m192.6,23.4V745M515,768.4V745M206.6,768.7H515M532.6,112.2h310m-310,23.7V112.5m183.2,23.4V112.5m126.8,23.4V112.5m-310,51.1V135.9m183.2,27.7V135.9" class="g1_1175"/>
<path d="M724.5,163.6h64.9V135.9H724.5v27.7Z" class="g2_1175"/>
<path d="M842.6,163.6V135.9M532.6,187V163.6M715.8,187V163.6M842.6,187V163.6m-310,46.7V187m183.2,23.3V187m126.8,23.3V187m-310,49.1V210.3m183.2,25.8V210.3" class="g1_1175"/>
<path d="M724.5,236.1h52.2V213.2H724.5v22.9Z" class="g2_1175"/>
<path d="M842.6,236.1V210.3m-310,49.1V236.1m183.2,23.3V236.1m126.8,23.3V236.1m-310,46.7V259.4m183.2,23.4V259.4m126.8,23.4V259.4m-310,49.5V282.8m183.2,26.1V282.8" class="g1_1175"/>
<path d="M724.5,306.3H792V282.8H724.5v23.5Z" class="g2_1175"/>
<path d="M842.6,308.9V282.8m-310,49.5V308.9m183.2,23.4V308.9m126.8,23.4V308.9m-310,46.8V332.3m183.2,23.4V332.3m126.8,23.4V332.3m-310,49.5V355.7m183.2,26.1V355.7" class="g1_1175"/>
<path d="M724.5,379.2H833.9V355.7H724.5v23.5Z" class="g2_1175"/>
<path d="M842.6,381.8V355.7m-310,49.5V381.8m183.2,23.4V381.8m126.8,23.4V381.8m-310,46.8V405.2m183.2,23.4V405.2m126.8,23.4V405.2m-310,51.1V428.6m183.2,27.7V428.6" class="g1_1175"/>
<path d="M724.5,456.3h77.8V428.6H724.5v27.7Z" class="g2_1175"/>
<path d="M842.6,456.3V428.6m-310,51V456.3m183.2,23.3V456.3m126.8,23.3V456.3M532.6,503V479.6M715.8,503V479.6M842.6,503V479.6m-310,47.6V503m183.2,24.2V503" class="g1_1175"/>
<path d="M724.5,524.5h47.4V505.9H724.5v18.6Z" class="g2_1175"/>
<path d="M842.6,527.2V503m-310,47.5V527.2m183.2,23.3V527.2m126.8,23.3V527.2m-310,46.7V550.5m183.2,23.4V550.5m126.8,23.4V550.5M532.6,600V573.9M715.8,600V573.9" class="g1_1175"/>
<path d="M724.5,597.4h64.2V573.9H724.5v23.5Z" class="g2_1175"/>
<path d="M842.6,600V573.9m-310,49.5V600m183.2,23.4V600m126.8,23.4V600m-310,46.8V623.4m183.2,23.4V623.4m126.8,23.4V623.4m-310,51.1V646.8m183.2,27.7V646.8" class="g1_1175"/>
<path d="M724.5,674.5h66.2V646.8H724.5v27.7Z" class="g2_1175"/>
<path d="M842.6,674.5V646.8m-310,51.1V674.5m183.2,23.4V674.5m126.8,23.4V674.5m-310,46.7V697.9m183.2,23.3V697.9m126.8,23.3V697.9m-310,49.5V721.2m183.2,26.2V721.2" class="g1_1175"/>
<path d="M724.5,744.7h51.3V721.2H724.5v23.5Z" class="g2_1175"/>
<path d="M842.6,747.4V721.2m-310,49.5V747.4m183.2,23.3V747.4m126.8,23.3V747.4M532.6,771h310M860.2,109.5h286.2M860.2,133.1V109.7m153.7,23.4V109.7m132.5,23.4V109.7M860.2,159.2V133.1m153.7,26.1V133.1" class="g1_1175"/>
<path d="M1022.6,156.6h97V133.1h-97v23.5Z" class="g2_1175"/>
<path d="M1146.4,159.2V133.1M860.2,182.6V159.2m153.7,23.4V159.2m132.5,23.4V159.2M860.2,206V182.6M1013.9,206V182.6M1146.4,206V182.6M860.2,232.1V206m153.7,26.1V206" class="g1_1175"/>
<path d="M1022.6,229.5h115V206h-115v23.5Z" class="g2_1175"/>
<path d="M1146.4,232.1V206M860.2,255.5V232.1m153.7,23.4V232.1m132.5,23.4V232.1M860.2,278.9V255.5m153.7,23.4V255.5m132.5,23.4V255.5M860.2,306.6V278.9m153.7,27.7V278.9" class="g1_1175"/>
<path d="M1022.6,306.6h82V278.9h-82v27.7Z" class="g2_1175"/>
<path d="M1146.4,306.6V278.9m-286.2,51V306.6m153.7,23.3V306.6m132.5,23.3V306.6M860.2,353.3V329.9m153.7,23.4V329.9m132.5,23.4V329.9M860.2,381V353.3M1013.9,381V353.3" class="g1_1175"/>
<path d="M1022.6,381h82V353.3h-82V381Z" class="g2_1175"/>
<path d="M1146.4,381V353.3M860.2,404.4V381m153.7,23.4V381m132.5,23.4V381M860.2,427.8V404.4m153.7,23.4V404.4m132.5,23.4V404.4M860.2,455.5V427.8m153.7,27.7V427.8" class="g1_1175"/>
<path d="M1022.6,455.5h67.7V427.8h-67.7v27.7Z" class="g2_1175"/>
<path d="M1146.4,455.5V427.8m-286.2,51V455.5m153.7,23.3V455.5m132.5,23.3V455.5M860.2,502.2V478.8m153.7,23.4V478.8m132.5,23.4V478.8M860.2,528.3V502.2m153.7,26.1V502.2" class="g1_1175"/>
<path d="M1022.6,525.7h52.7V502.2h-52.7v23.5Z" class="g2_1175"/>
<path d="M1146.4,528.3V502.2M860.2,551.7V528.3m153.7,23.4V528.3m132.5,23.4V528.3M860.2,575.1V551.7m153.7,23.4V551.7m132.5,23.4V551.7M860.2,602.8V575.1m153.7,27.7V575.1" class="g1_1175"/>
<path d="M1022.6,602.8h85.1V575.1h-85.1v27.7Z" class="g2_1175"/>
<path d="M1146.4,602.8V575.1M860.2,626.2V602.8m153.7,23.4V602.8m132.5,23.4V602.8M860.2,649.6V626.2m153.7,23.4V626.2m132.5,23.4V626.2m-286.2,51V649.6m153.7,27.6V649.6" class="g1_1175"/>
<path d="M1022.6,677.2h101.1V649.6H1022.6v27.6Z" class="g2_1175"/>
<path d="M1146.4,677.2V649.6m-286.2,51V677.2m153.7,23.4V677.2m132.5,23.4V677.2M860.2,724V700.6M1013.9,724V700.6M1146.4,724V700.6M860.2,750.1V724m153.7,26.1V724" class="g1_1175"/>
<path d="M1022.6,747.5h55.5V724h-55.5v23.5Z" class="g2_1175"/>
<path d="M1146.4,750.1V724M860.2,773.5V750.1m153.7,23.4V750.1m132.5,23.4V750.1M860.2,773.8h286.2" class="g1_1175"/>
</svg>