<?xml version="1.0" encoding="UTF-8" standalone="no"?>
<!DOCTYPE svg PUBLIC "-//W3C//DTD SVG 1.1//EN"
"http://www.w3.org/Graphics/SVG/1.1/DTD/svg11.dtd">
<svg viewBox="0 0 909 1286" version="1.1" xmlns="http://www.w3.org/2000/svg" xmlns:xlink="http://www.w3.org/1999/xlink">
<defs>
<style type="text/css"><![CDATA[
.g0_5{
fill: none;
stroke: #000000;
stroke-width: 0.73;
stroke-linecap: butt;
stroke-linejoin: miter;
}
.g1_5{
fill: none;
stroke: #02B5EE;
stroke-width: 0.73;
stroke-linecap: butt;
stroke-linejoin: miter;
}
.g2_5{
fill: none;
stroke: #F81693;
stroke-width: 0.73;
stroke-linecap: butt;
stroke-linejoin: miter;
}
.g3_5{
fill: none;
stroke: #8007AC;
stroke-width: 0.73;
stroke-linecap: butt;
stroke-linejoin: miter;
}
.g4_5{
fill: none;
stroke: #8007AC;
stroke-width: 1.461;
stroke-linecap: butt;
stroke-linejoin: miter;
}
.g5_5{
fill: none;
stroke: #999999;
stroke-width: 2.191;
stroke-linecap: butt;
stroke-linejoin: miter;
}
.g6_5{
fill: #FFFFFF;
}
.g7_5{
fill: #FDE8E9;
}
]]></style>
</defs>
<path d="M116.9,179.9H785.1m-487,29.6V180.3m-69.4,80.1l24.9,14.8M228.7,260.4l-31.2,18.7M166.3,260.4l31.2,18.7M166.3,260.4L135,279.1m91.5,-18.7V234.9m4.4,25.5V234.9m-64.6,25.5V234.9m131.8,56.4V209.5" class="g0_5"/>
<path d="M490.3,264.3l18.3,10.9" class="g1_5"/>
<path d="M477.5,264.3l-18.2,10.9M427.8,264.3l18.3,10.9m-31,-10.9l-18.3,10.9" class="g2_5"/>
<path d="M481.7,255V234.9m4.4,20.1V234.9" class="g1_5"/>
<path d="M421.5,255V234.9" class="g3_5"/>
<path d="M298.1,320.5V291.3m0,58.5V320.5" class="g0_5"/>
<path d="M326.3,348.3c1.4,0,2.1,-2.7,3.5,-2.7c1,0,1.8,1.3,2.7,2.7c.9,1.4,1.8,2.7,2.8,2.7c.9,0,1.8,-1.3,2.7,-2.7c.9,-1.4,1.7,-2.7,2.7,-2.7c1.4,0,2.1,2.7,3.5,2.7H348" class="g4_5"/>
<path d="M743.7,343.8L728.4,329.5m0,14.3l15.3,-14.3" class="g5_5"/>
<path d="M298.1,379V349.8m0,105.7V379" class="g0_5"/>
<path d="M375.7,447.7V386.8c0,-2.9,2.4,-5.2,5.2,-5.2H579.4c2.9,0,5.2,2.3,5.2,5.2v60.9c0,2.9,-2.3,5.2,-5.2,5.2H380.9c-2.8,0,-5.2,-2.3,-5.2,-5.2Z" class="g6_5"/>
<path d="M441.2,476.2h77.9V462H441.2v14.2Z" class="g7_5"/>
<path d="M401.7,437.3H558.6V397.2H401.7v40.1Z" class="g7_5"/>
<path d="M298.1,484.7V455.5M116.9,485.1H785.1m-487,29.6V485.5M138.9,572.8h5.4m10.6,0h5.5m-21.2,20.4V573.1m42.4,-7.5l24.8,14.8M181.6,565.6l-31.2,18.7m0,.2l-22,-13.2m51,-5.7V540.1m4.4,25.5V540.1M160,593.2V573.1m-21.1,20.5h5.4m10.6,0h5.5m137.7,2.9V514.7" class="g0_5"/>
<path d="M430.6,572.8h5.5m10.6,0h5.4M431,593.2V573.1m48.7,-3.6L498,580.4M466.9,569.5l-24.8,14.8m0,.2L420.2,571.3" class="g2_5"/>
<path d="M471.1,560.2V540.1m4.4,20.1V540.1" class="g1_5"/>
<path d="M451.8,593.2V573.1m-21.2,20.5h5.5m10.6,0h5.4" class="g2_5"/>
<path d="M298.1,625.7V596.5m0,58.5V625.7" class="g0_5"/>
<path d="M741.7,649.1L726.4,634.8m0,14.3l15.3,-14.3" class="g5_5"/>
<path d="M298.1,684.2V655m0,105.7V684.2" class="g0_5"/>
<path d="M375.7,752.9V692c0,-2.9,2.4,-5.2,5.2,-5.2H608.6c2.8,0,5.2,2.3,5.2,5.2v60.9c0,2.9,-2.4,5.2,-5.2,5.2H380.9c-2.8,0,-5.2,-2.3,-5.2,-5.2Z" class="g6_5"/>
<path d="M459.7,783.6h70.1V767.2H459.7v16.4Z" class="g7_5"/>
<path d="M401.7,742.5H587.8V702.4H401.7v40.1Z" class="g7_5"/>
<path d="M298.1,789.9V760.7M116.9,790.3H785.1m-487,29.6V790.7M138.9,878h5.4m10.6,0h5.5m-21.2,20.4V878.3m42.4,-7.5l24.8,14.8M181.6,870.8l-31.2,18.7m0,.2l-22,-13.2m51,-5.7V845.3m4.4,25.5V845.3M160,898.4V878.3m-21.1,20.5h5.4m10.6,0h5.5m137.7,2.9V819.9" class="g0_5"/>
<path d="M430.6,878h5.5m10.6,0h5.4M431,898.4V878.3m48.7,-3.6L498,885.6M466.9,874.7l-24.8,14.8m0,.2L420.2,876.5" class="g2_5"/>
<path d="M471.1,865.4V845.3m4.4,20.1V845.3" class="g1_5"/>
<path d="M451.8,898.4V878.3m-21.2,20.5h5.5m10.6,0h5.4" class="g2_5"/>
<path d="M298.1,930.9V901.7m0,58.5V930.9" class="g0_5"/>
<path d="M728,954.3L712.6,940m0,14.3L728,940" class="g5_5"/>
<path d="M298.1,989.4V960.2m0,105.7V989.4" class="g0_5"/>
<path d="M375.7,1058.1V997.2c0,-2.9,2.4,-5.2,5.2,-5.2H608.6c2.8,0,5.2,2.3,5.2,5.2v60.9c0,2.9,-2.4,5.2,-5.2,5.2H380.9c-2.8,0,-5.2,-2.3,-5.2,-5.2Z" class="g6_5"/>
<path d="M463,1086.6h63.5v-14.2H463v14.2Z" class="g7_5"/>
<path d="M401.7,1047.7H587.8v-40.1H401.7v40.1Z" class="g7_5"/>
<path d="M298.1,1095.1v-29.2m-181.2,29.6H785.1" class="g0_5"/>
</svg>