<?xml version="1.0" encoding="UTF-8" standalone="no"?>
<!DOCTYPE svg PUBLIC "-//W3C//DTD SVG 1.1//EN"
"http://www.w3.org/Graphics/SVG/1.1/DTD/svg11.dtd">
<svg viewBox="0 0 909 1286" version="1.1" xmlns="http://www.w3.org/2000/svg" xmlns:xlink="http://www.w3.org/1999/xlink">
<defs>
<clipPath id="c0_149"><path d="M119.5,849.9V822.6H789.9v27.3Z"/></clipPath>
<style type="text/css"><![CDATA[
.g0_149{
fill: none;
stroke: #000000;
stroke-width: 0.73;
stroke-linecap: butt;
stroke-linejoin: miter;
}
.g1_149{
fill: #CBCEFB;
}
.g2_149{
fill: #FFFFFF;
}
.g3_149{
fill: #FFFEF5;
}
.g4_149{
fill: none;
stroke: #D6C944;
stroke-width: 0.365;
stroke-linecap: butt;
stroke-linejoin: miter;
}
.g5_149{
fill: #7F7F7F;
fill-opacity: 0.01;
}
.g6_149{
fill: #7F7F7F;
fill-opacity: 0.02;
}
.g7_149{
fill: #7F7F7F;
fill-opacity: 0.04;
}
.g8_149{
fill: #7F7F7F;
fill-opacity: 0.07;
}
.g9_149{
fill: #7F7F7F;
fill-opacity: 0.11;
}
.ga_149{
fill: #7F7F7F;
}
]]></style>
</defs>
<path d="M116.9,159.9H792.5m-668.1,20H785M124.8,204V180.3" class="g0_149"/>
<path d="M125.2,204H238.3V180.3H125.2V204Z" class="g1_149"/>
<path d="M238.7,204V180.3" class="g0_149"/>
<path d="M239,204H519.3V180.3H239V204Z" class="g1_149"/>
<path d="M519.7,204V180.3" class="g0_149"/>
<path d="M520.1,204H716V180.3H520.1V204Z" class="g1_149"/>
<path d="M716.4,204V180.3" class="g0_149"/>
<path d="M716.8,204h67.5V180.3H716.8V204Z" class="g1_149"/>
<path d="M784.6,204V180.3M124.4,204.4H785M124.8,228.5V204.7m113.9,23.8V204.7m281,23.8V204.7m196.7,23.8V204.7m68.2,23.8V204.7M124.8,252.2V228.5m113.9,23.7V228.5m281,23.7V228.5m196.7,23.7V228.5m68.2,23.7V228.5M124.4,252.6H785M124.8,276.7V253m113.9,23.7V253m281,23.7V253m196.7,23.7V253m68.2,23.7V253M124.4,277.1H785M124.8,301.2V277.4m113.9,23.8V277.4m281,23.8V277.4m196.7,23.8V277.4m68.2,23.8V277.4M124.4,301.5H785M124.8,325.6V301.9m113.9,23.7V301.9m281,23.7V301.9m196.7,23.7V301.9m68.2,23.7V301.9M124.4,326H785M124.8,350.1V326.4m113.9,23.7V326.4m281,23.7V326.4m196.7,23.7V326.4m68.2,23.7V326.4M124.4,350.5H785M124.8,374.6V350.9m113.9,23.7V350.9m281,23.7V350.9m196.7,23.7V350.9m68.2,23.7V350.9M124.4,375H785M124.8,399.1V375.3m113.9,23.8V375.3m281,23.8V375.3m196.7,23.8V375.3m68.2,23.8V375.3M124.4,399.4H785M124.8,423.5V399.8m113.9,23.7V399.8m281,23.7V399.8m196.7,23.7V399.8m68.2,23.7V399.8M124.4,423.9H785M124.8,448V424.3M238.7,448V424.3m281,23.7V424.3M716.4,448V424.3M784.6,448V424.3M124.4,448.4H785M124.8,472.5V448.7m113.9,23.8V448.7m281,23.8V448.7m196.7,23.8V448.7m68.2,23.8V448.7M124.8,496.2V472.5m113.9,23.7V472.5m281,23.7V472.5m196.7,23.7V472.5m68.2,23.7V472.5M124.4,496.6H785" class="g0_149"/>
<path d="M-2.9,790.8V725.3H912.4v65.5Z" class="g2_149"/>
<path d="M-.3,788.2V727.9H909.8v60.3Z" class="g3_149"/>
<path d="M-.3,779.9H909.8M-.3,753.9H909.8M-.3,727.9H909.8M-.3,788.2V727.9m25.9,60.3V727.9m26,60.3V727.9m26,60.3V727.9m26,60.3V727.9m26,60.3V727.9m25.9,60.3V727.9m26,60.3V727.9m26,60.3V727.9m26,60.3V727.9m26,60.3V727.9m26,60.3V727.9m25.9,60.3V727.9m26,60.3V727.9m26,60.3V727.9m26,60.3V727.9m26,60.3V727.9m26,60.3V727.9m26,60.3V727.9m25.9,60.3V727.9m26,60.3V727.9m26,60.3V727.9m26,60.3V727.9m26,60.3V727.9m26,60.3V727.9m25.9,60.3V727.9m26,60.3V727.9m26,60.3V727.9m26,60.3V727.9m26,60.3V727.9m26,60.3V727.9m25.9,60.3V727.9m26,60.3V727.9m26,60.3V727.9m26,60.3V727.9m26,60.3V727.9" class="g4_149"/>
<path d="M122.2,825.3c221.7,0,443.4,0,665,0V997c-221.6,-9.3,-443.3,-9.3,-665,0Z" class="g5_149"/>
<path d="M122.9,825.9c221.2,0,442.4,0,663.7,0V996.4C565.3,987,344.1,987,122.9,996.4Z" class="g6_149"/>
<path d="M123.5,826.6c220.8,0,441.6,0,662.5,0V995.8c-220.9,-9.4,-441.7,-9.4,-662.5,0Z" class="g7_149"/>
<path d="M124.1,827.2c220.4,0,440.8,0,661.2,0V995.1c-220.4,-9.3,-440.8,-9.3,-661.2,0Z" class="g8_149"/>
<path d="M124.7,827.8c220,0,440,0,660,0V994.5c-220,-9.3,-440,-9.3,-660,0Z" class="g9_149"/>
<path d="M125.4,828.4c219.5,0,439.1,0,658.7,0V993.9c-219.6,-9.4,-439.2,-9.4,-658.7,0Z" class="g9_149"/>
<path d="M126,829.1c219.1,0,438.3,0,657.5,0V993.3c-219.2,-9.4,-438.4,-9.4,-657.5,0Z" class="g8_149"/>
<path d="M126.6,829.7c218.8,0,437.5,0,656.3,0v163c-218.8,-9.4,-437.5,-9.4,-656.3,0Z" class="g7_149"/>
<path d="M127.2,830.3c218.4,0,436.7,0,655,0V992c-218.3,-9.3,-436.6,-9.3,-655,0Z" class="g6_149"/>
<path d="M127.9,830.9c217.9,0,435.8,0,653.7,0V991.4C563.7,982,345.8,982,127.9,991.4Z" class="g5_149"/>
<path d="M116.9,986.7V820H792.5V986.7Z" class="g2_149"/>
<path d="M119.5,984.1V852.5H789.9V984.1Z" class="g2_149"/>
<path d="M119.5,849.9V822.6H789.9v27.3Z" class="ga_149"/>
<g clip-path="url(#c0_149)">
<image x="119" y="822" width="672" height="28" xlink:href="shade/1.png"/>
</g>
<path d="M145.5,884.9H767.6M145.9,905.3V885.2" class="g0_149"/>
<path d="M146.3,905.3h75.9V885.2H146.3v20.1Z" class="g1_149"/>
<path d="M222.6,905.3V885.2" class="g0_149"/>
<path d="M222.9,905.3h95.3V885.2H222.9v20.1Z" class="g1_149"/>
<path d="M318.6,905.3V885.2" class="g0_149"/>
<path d="M318.9,905.3h89.5V885.2H318.9v20.1Z" class="g1_149"/>
<path d="M408.8,905.3V885.2" class="g0_149"/>
<path d="M409.1,905.3h103V885.2h-103v20.1Z" class="g1_149"/>
<path d="M512.5,905.3V885.2" class="g0_149"/>
<path d="M512.8,905.3H766.9V885.2H512.8v20.1Z" class="g1_149"/>
<path d="M767.2,905.3V885.2M145.5,905.7H767.6M145.9,926.2V906.1m76.7,20.1V906.1m96,20.1V906.1m90.2,20.1V906.1m103.7,20.1V906.1m254.7,20.1V906.1M145.5,926.5H767.6M145.9,947V926.9M222.6,947V926.9m96,20.1V926.9M408.8,947V926.9M512.5,947V926.9M767.2,947V926.9M145.5,947.3H767.6M145.9,967.8V947.7m76.7,20.1V947.7m96,20.1V947.7m90.2,20.1V947.7m103.7,20.1V947.7m254.7,20.1V947.7M145.5,968.2H767.6" class="g0_149"/>
</svg>