<?xml version="1.0" encoding="UTF-8" standalone="no"?>
<!DOCTYPE svg PUBLIC "-//W3C//DTD SVG 1.1//EN"
"http://www.w3.org/Graphics/SVG/1.1/DTD/svg11.dtd">
<svg viewBox="0 0 1286 909" version="1.1" xmlns="http://www.w3.org/2000/svg" xmlns:xlink="http://www.w3.org/1999/xlink">
<defs>
<style type="text/css"><![CDATA[
.g0_638{
fill: none;
stroke: #000000;
stroke-width: 0.73;
stroke-linecap: butt;
stroke-linejoin: miter;
}
.g1_638{
fill: #B3E9FA;
}
.g2_638{
fill: none;
stroke: #02B5EE;
stroke-width: 1.262;
stroke-linecap: butt;
stroke-linejoin: miter;
}
.g3_638{
fill: none;
stroke: #5EE200;
stroke-width: 1.262;
stroke-linecap: butt;
stroke-linejoin: miter;
}
.g4_638{
fill: #FFCCCC;
}
.g5_638{
fill: none;
stroke: #F81693;
stroke-width: 1.461;
stroke-linecap: butt;
stroke-linejoin: miter;
stroke-dasharray: 2,2;
}
]]></style>
</defs>
<path d="M193,83.4h900.3M193,210.6h892.3m-892.3,0h892.3M581.9,240.2V211m0,58.5V240.2m0,114.3v-85" class="g0_638"/>
<path d="M779.2,304.7V292.5c0,-2.9,2.3,-5.2,5.2,-5.2H900.3c2.9,0,5.2,2.3,5.2,5.2v12.2c0,2.9,-2.3,5.2,-5.2,5.2H784.4c-2.9,0,-5.2,-2.3,-5.2,-5.2Z" class="g1_638"/>
<path d="M776.6,330.5H908.1" class="g2_638"/>
<path d="M918.6,330.5h155.7" class="g3_638"/>
<path d="M581.9,383.7V354.5m0,58.4V383.7m0,114.3V412.9" class="g0_638"/>
<path d="M841.9,454.5V436c0,-2.9,2.3,-5.2,5.2,-5.2h81.2c2.9,0,5.2,2.3,5.2,5.2v18.5c0,2.9,-2.3,5.2,-5.2,5.2H847.1c-2.9,0,-5.2,-2.3,-5.2,-5.2Z" class="g1_638"/>
<path d="M839.3,474h96.8" class="g2_638"/>
<path d="M946.6,474h127.7" class="g3_638"/>
<path d="M581.9,527.2V498m0,58.4V527.2m0,114.2v-85" class="g0_638"/>
<path d="M592.8,617.4H672" class="g2_638"/>
<path d="M722.2,605.7h59.5V572.8H722.2v32.9Z" class="g4_638"/>
<path d="M795.9,599.3H878" class="g5_638"/>
<path d="M581.9,671.6V641.4m0,59.4V671.6M193,701.2h892.3m-892.3,0h892.3" class="g0_638"/>
</svg>