<?xml version="1.0" encoding="UTF-8" standalone="no"?>
<!DOCTYPE svg PUBLIC "-//W3C//DTD SVG 1.1//EN"
"http://www.w3.org/Graphics/SVG/1.1/DTD/svg11.dtd">
<svg viewBox="0 0 1286 909" version="1.1" xmlns="http://www.w3.org/2000/svg" xmlns:xlink="http://www.w3.org/1999/xlink">
<defs>
<style type="text/css"><![CDATA[
.g0_1225{
fill: none;
stroke: #000000;
stroke-width: 0.73;
stroke-linecap: butt;
stroke-linejoin: miter;
}
.g1_1225{
fill: none;
stroke: #000000;
stroke-width: 0.657;
stroke-linecap: butt;
stroke-linejoin: miter;
}
.g2_1225{
fill: #FDE8E9;
}
]]></style>
</defs>
<path d="M193,83.4h900.3" class="g0_1225"/>
<path d="M202.8,109.8H609.4M202.8,136.4V110.1m238.6,26.3V110.1m168,26.3V110.1M202.8,167.6V136.4m238.6,31.2V136.4" class="g1_1225"/>
<path d="M451.3,167.6H599.5V136.4H451.3v31.2Z" class="g2_1225"/>
<path d="M609.4,167.6V136.4M202.8,193.9V167.6m238.6,26.3V167.6m168,26.3V167.6M202.8,220.2V193.9m238.6,26.3V193.9m168,26.3V193.9M202.8,251.4V220.2m238.6,31.2V220.2" class="g1_1225"/>
<path d="M451.3,251.4h58.3V220.2H451.3v31.2Z" class="g2_1225"/>
<path d="M609.4,251.4V220.2M202.8,277.7V251.4m238.6,26.3V251.4m168,26.3V251.4M202.8,304V277.7M441.4,304V277.7m168,26.3V277.7M202.8,333.3V304m238.6,29.3V304" class="g1_1225"/>
<path d="M451.3,330.4h63.2V304H451.3v26.4Z" class="g2_1225"/>
<path d="M609.4,333.3V304M202.8,359.6V333.3m238.6,26.3V333.3m168,26.3V333.3M202.8,385.9V359.6m238.6,26.3V359.6m168,26.3V359.6M202.8,415.3V385.9m238.6,29.4V385.9" class="g1_1225"/>
<path d="M451.3,412.4h72.8V385.9H451.3v26.5Z" class="g2_1225"/>
<path d="M609.4,415.3V385.9M202.8,441.6V415.3m238.6,26.3V415.3m168,26.3V415.3M202.8,467.9V441.6m238.6,26.3V441.6m168,26.3V441.6M202.8,499.1V467.9m238.6,31.2V467.9" class="g1_1225"/>
<path d="M451.3,499.1H573.5V467.9H451.3v31.2Z" class="g2_1225"/>
<path d="M609.4,499.1V467.9M202.8,525.4V499.1m238.6,26.3V499.1m168,26.3V499.1M202.8,551.7V525.4m238.6,26.3V525.4m168,26.3V525.4M202.8,581.1V551.7m238.6,29.4V551.7" class="g1_1225"/>
<path d="M451.3,578.1h54.1V551.7H451.3v26.4Z" class="g2_1225"/>
<path d="M609.4,581.1V551.7M202.8,607.4V581.1m238.6,26.3V581.1m168,26.3V581.1M202.8,633.7V607.4m238.6,26.3V607.4m168,26.3V607.4M202.8,663V633.7M441.4,663V633.7" class="g1_1225"/>
<path d="M451.3,660.1h128V633.7h-128v26.4Z" class="g2_1225"/>
<path d="M609.4,663V633.7M202.8,689.3V663m238.6,26.3V663m168,26.3V663M202.8,715.7V689.3m238.6,26.4V689.3m168,26.4V689.3M202.8,745V715.7M441.4,745V715.7" class="g1_1225"/>
<path d="M451.3,742.1h99.6V715.6H451.3v26.5Z" class="g2_1225"/>
<path d="M609.4,745V715.7M202.8,771.3V745m238.6,26.3V745m168,26.3V745M629.1,111.5H827.8M629.1,138.1V111.8m85.4,26.3V111.8m113.3,26.3V111.8M629.1,167.5V138.1m85.4,29.4V138.1" class="g1_1225"/>
<path d="M724.4,164.5h64.8V138.1H724.4v26.4Z" class="g2_1225"/>
<path d="M827.8,167.5V138.1M629.1,193.8V167.5m85.4,26.3V167.5m113.3,26.3V167.5M629.1,220.1V193.8m85.4,26.3V193.8m113.3,26.3V193.8M629.1,249.5V220.1m85.4,29.4V220.1" class="g1_1225"/>
<path d="M724.4,246.5h60.2V220.1H724.4v26.4Z" class="g2_1225"/>
<path d="M827.8,249.5V220.1M629.1,275.8V249.5m85.4,26.3V249.5m113.3,26.3V249.5M629.1,302.1V275.8m85.4,26.3V275.8m113.3,26.3V275.8M629.1,329.2V302.1m85.4,27.1V302.1" class="g1_1225"/>
<path d="M724.4,326.3h58.3v-21H724.4v21Z" class="g2_1225"/>
<path d="M827.8,329.2V302.1M629.1,355.5V329.2m85.4,26.3V329.2m113.3,26.3V329.2M629.1,381.8V355.5m85.4,26.3V355.5m113.3,26.3V355.5M629.1,411.2V381.8m85.4,29.4V381.8" class="g1_1225"/>
<path d="M724.4,408.3h78.7V381.8H724.4v26.5Z" class="g2_1225"/>
<path d="M827.8,411.2V381.8M629.1,437.5V411.2m85.4,26.3V411.2m113.3,26.3V411.2M629.1,463.8V437.5m85.4,26.3V437.5m113.3,26.3V437.5M629.1,493.2V463.8m85.4,29.4V463.8" class="g1_1225"/>
<path d="M724.4,490.2H818V463.8H724.4v26.4Z" class="g2_1225"/>
<path d="M827.8,493.2V463.8M629.1,519.5V493.2m85.4,26.3V493.2m113.3,26.3V493.2M629.1,545.8V519.5m85.4,26.3V519.5m113.3,26.3V519.5M629.1,575.2V545.8m85.4,29.4V545.8" class="g1_1225"/>
<path d="M724.4,572.2h74.2V545.8H724.4v26.4Z" class="g2_1225"/>
<path d="M827.8,575.2V545.8M629.1,601.5V575.2m85.4,26.3V575.2m113.3,26.3V575.2M629.1,627.8V601.5m85.4,26.3V601.5m113.3,26.3V601.5M629.1,658.9V627.8m85.4,31.1V627.8" class="g1_1225"/>
<path d="M724.4,658.9h83.8V627.8H724.4v31.1Z" class="g2_1225"/>
<path d="M827.8,658.9V627.8M629.1,685.2V658.9m85.4,26.3V658.9m113.3,26.3V658.9M629.1,711.5V685.2m85.4,26.3V685.2m113.3,26.3V685.2M629.1,742.7V711.5m85.4,31.2V711.5" class="g1_1225"/>
<path d="M724.4,742.7h66.5V711.5H724.4v31.2Z" class="g2_1225"/>
<path d="M827.8,742.7V711.5M629.1,769V742.7M714.5,769V742.7M827.8,769V742.7M629.1,769.3H827.8M847.6,109.5h225.6M847.6,136.1V109.8M933,136.1V109.8m140.2,26.3V109.8M847.6,165.5V136.1M933,165.5V136.1" class="g1_1225"/>
<path d="M942.8,162.5h62.3V136.1H942.8v26.4Z" class="g2_1225"/>
<path d="M1073.2,165.5V136.1M847.6,191.8V165.5M933,191.8V165.5m140.2,26.3V165.5M847.6,218.1V191.8M933,218.1V191.8m140.2,26.3V191.8M847.6,247.5V218.1M933,247.5V218.1" class="g1_1225"/>
<path d="M942.8,244.5h49.3V218.1H942.8v26.4Z" class="g2_1225"/>
<path d="M1073.2,247.5V218.1M847.6,273.8V247.5M933,273.8V247.5m140.2,26.3V247.5M847.6,300.1V273.8M933,300.1V273.8m140.2,26.3V273.8M847.6,329.5V300.1M933,329.5V300.1" class="g1_1225"/>
<path d="M942.8,326.5h70.7V300.1H942.8v26.4Z" class="g2_1225"/>
<path d="M1073.2,329.5V300.1M847.6,355.8V329.5M933,355.8V329.5m140.2,26.3V329.5M847.6,382.1V355.8M933,382.1V355.8m140.2,26.3V355.8M847.6,411.4V382.1M933,411.4V382.1" class="g1_1225"/>
<path d="M942.8,408.5h95.4V382.1H942.8v26.4Z" class="g2_1225"/>
<path d="M1073.2,411.4V382.1M847.6,437.7V411.4M933,437.7V411.4m140.2,26.3V411.4M847.6,464V437.7M933,464V437.7M1073.2,464V437.7M847.6,495.2V464M933,495.2V464" class="g1_1225"/>
<path d="M942.8,495.2h120.5V464H942.8v31.2Z" class="g2_1225"/>
<path d="M1073.2,495.2V464M847.6,521.5V495.2M933,521.5V495.2m140.2,26.3V495.2M847.6,547.8V521.5M933,547.8V521.5m140.2,26.3V521.5M847.6,579V547.8M933,579V547.8" class="g1_1225"/>
<path d="M942.8,579h94.7V547.8H942.8V579Z" class="g2_1225"/>
<path d="M1073.2,579V547.8M847.6,605.3V579M933,605.3V579m140.2,26.3V579M847.6,631.6V605.3M933,631.6V605.3m140.2,26.3V605.3M847.6,660.9V631.6M933,660.9V631.6" class="g1_1225"/>
<path d="M942.8,658h110.1V631.6H942.8V658Z" class="g2_1225"/>
<path d="M1073.2,660.9V631.6M847.6,687.2V660.9M933,687.2V660.9m140.2,26.3V660.9M847.6,713.5V687.2M933,713.5V687.2m140.2,26.3V687.2M847.6,744.7V713.5M933,744.7V713.5" class="g1_1225"/>
<path d="M942.8,744.7h91.4V713.5H942.8v31.2Z" class="g2_1225"/>
<path d="M1073.2,744.7V713.5M847.6,771V744.7M933,771V744.7M1073.2,771V744.7M847.6,771.3h225.6" class="g1_1225"/>
</svg>