<?xml version="1.0" encoding="UTF-8" standalone="no"?>
<!DOCTYPE svg PUBLIC "-//W3C//DTD SVG 1.1//EN"
"http://www.w3.org/Graphics/SVG/1.1/DTD/svg11.dtd">
<svg viewBox="0 0 1286 909" version="1.1" xmlns="http://www.w3.org/2000/svg" xmlns:xlink="http://www.w3.org/1999/xlink">
<defs>
<style type="text/css"><![CDATA[
.g0_795{
fill: none;
stroke: #000000;
stroke-width: 0.73;
stroke-linecap: butt;
stroke-linejoin: miter;
}
.g1_795{
fill: #B3E9FA;
}
.g2_795{
fill: none;
stroke: #02B5EE;
stroke-width: 1.262;
stroke-linecap: butt;
stroke-linejoin: miter;
}
.g3_795{
fill: none;
stroke: #5EE200;
stroke-width: 1.262;
stroke-linecap: butt;
stroke-linejoin: miter;
}
.g4_795{
fill: none;
stroke: #02B5EE;
stroke-width: 0.73;
stroke-linecap: butt;
stroke-linejoin: miter;
}
]]></style>
</defs>
<path d="M193,83.4h900.3M193,111.6H878.7m-685.7,0H878.7M467.6,141.2V112m0,58.5V141.2m0,114.3v-85" class="g0_795"/>
<path d="M685,212V200.7c0,-2.8,2.3,-5.2,5.2,-5.2H790.7c2.8,0,5.2,2.4,5.2,5.2V212c0,2.9,-2.4,5.2,-5.2,5.2H690.2c-2.9,0,-5.2,-2.3,-5.2,-5.2Z" class="g1_795"/>
<path d="M682.4,231.5H798.5" class="g2_795"/>
<path d="M809,231.5h58.7" class="g3_795"/>
<path d="M467.6,284.7V255.5m0,58.4V284.7m0,114.3V313.9" class="g0_795"/>
<path d="M636.4,375h67.8" class="g2_795"/>
<path d="M467.6,428.2V399m0,102.2v-73" class="g0_795"/>
<path d="M749.5,487.4H867.7" class="g4_795"/>
<path d="M467.6,530.5V501.2m0,58.5V530.5m0,114.2v-85" class="g0_795"/>
<path d="M630.2,620.7H736.8" class="g2_795"/>
<path d="M467.6,673.9V644.7m0,58.5V673.9M193,703.5H878.7m-685.7,0H878.7" class="g0_795"/>
</svg>