<?xml version="1.0" encoding="UTF-8" standalone="no"?>
<!DOCTYPE svg PUBLIC "-//W3C//DTD SVG 1.1//EN"
"http://www.w3.org/Graphics/SVG/1.1/DTD/svg11.dtd">
<svg viewBox="0 0 1286 909" version="1.1" xmlns="http://www.w3.org/2000/svg" xmlns:xlink="http://www.w3.org/1999/xlink">
<defs>
<style type="text/css"><![CDATA[
.g0_559{
fill: none;
stroke: #000000;
stroke-width: 0.73;
stroke-linecap: butt;
stroke-linejoin: miter;
}
.g1_559{
fill: #B3E9FA;
}
.g2_559{
fill: none;
stroke: #02B5EE;
stroke-width: 0.73;
stroke-linecap: butt;
stroke-linejoin: miter;
}
.g3_559{
fill: none;
stroke: #5EE200;
stroke-width: 0.73;
stroke-linecap: butt;
stroke-linejoin: miter;
}
]]></style>
</defs>
<path d="M193,83.4h900.3M193,111.6h966.3m-966.3,0h966.3M527.6,141.2V112m0,102.3V141.2" class="g0_559"/>
<path d="M1028.5,176.5v-2.9c0,-2.9,2.4,-5.2,5.2,-5.2h22.1c2.9,0,5.2,2.3,5.2,5.2v2.9c0,2.9,-2.3,5.2,-5.2,5.2h-22.1c-2.8,0,-5.2,-2.3,-5.2,-5.2Z" class="g1_559"/>
<path d="M1025.9,200.4h37.7" class="g2_559"/>
<path d="M1069.7,200.4h78.7" class="g3_559"/>
<path d="M527.6,243.5V214.3M193,243.9h966.3m-966.3,0h966.3" class="g0_559"/>
</svg>