<?xml version="1.0" encoding="UTF-8" standalone="no"?>
<!DOCTYPE svg PUBLIC "-//W3C//DTD SVG 1.1//EN"
"http://www.w3.org/Graphics/SVG/1.1/DTD/svg11.dtd">
<svg viewBox="0 0 909 1286" version="1.1" xmlns="http://www.w3.org/2000/svg" xmlns:xlink="http://www.w3.org/1999/xlink">
<defs>
<clipPath id="c0_97"><path d="M119.5,288.6V255.1H446.9v33.5Z"/></clipPath>
<clipPath id="c1_97"><path d="M462.5,288.6V255.1H789.9v33.5Z"/></clipPath>
<style type="text/css"><![CDATA[
.g0_97{
fill: none;
stroke: #000000;
stroke-width: 0.73;
stroke-linecap: butt;
stroke-linejoin: miter;
}
.g1_97{
fill: #7F7F7F;
fill-opacity: 0.01;
}
.g2_97{
fill: #7F7F7F;
fill-opacity: 0.02;
}
.g3_97{
fill: #7F7F7F;
fill-opacity: 0.04;
}
.g4_97{
fill: #7F7F7F;
fill-opacity: 0.07;
}
.g5_97{
fill: #7F7F7F;
fill-opacity: 0.11;
}
.g6_97{
fill: #FFFFFF;
}
.g7_97{
fill: #7F7F7F;
}
.g8_97{
fill: #00AEEF;
}
.g9_97{
fill: #CBCEFB;
}
.ga_97{
fill: #EC008C;
}
.gb_97{
fill: #FFFEF5;
}
.gc_97{
fill: none;
stroke: #D6C944;
stroke-width: 0.365;
stroke-linecap: butt;
stroke-linejoin: miter;
}
.gd_97{
fill: #E81A58;
}
.ge_97{
fill: #401A1A;
}
]]></style>
</defs>
<path d="M116.9,159.9H792.5" class="g0_97"/>
<path d="M122.2,257.8c107.4,0,214.7,0,322,0V639.1c-107.3,-9.4,-214.6,-9.4,-322,0Z" class="g1_97"/>
<path d="M122.9,258.4c106.9,0,213.8,0,320.7,0v380c-106.9,-9.3,-213.8,-9.3,-320.7,0Z" class="g2_97"/>
<path d="M123.5,259.1c106.5,0,213,0,319.5,0V637.8c-106.5,-9.4,-213,-9.4,-319.5,0Z" class="g3_97"/>
<path d="M124.1,259.7c106.1,0,212.2,0,318.3,0V637.2c-106.1,-9.4,-212.2,-9.4,-318.3,0Z" class="g4_97"/>
<path d="M124.7,260.3c105.7,0,211.4,0,317,0V636.6c-105.6,-9.4,-211.3,-9.4,-317,0Z" class="g5_97"/>
<path d="M125.4,260.9c105.2,0,210.5,0,315.7,0v375c-105.2,-9.3,-210.5,-9.3,-315.7,0Z" class="g5_97"/>
<path d="M126,261.6c104.8,0,209.7,0,314.5,0V635.3C335.7,626,230.8,626,126,635.3Z" class="g4_97"/>
<path d="M126.6,262.2c104.4,0,208.8,0,313.3,0V634.7c-104.5,-9.4,-208.9,-9.4,-313.3,0Z" class="g3_97"/>
<path d="M127.2,262.8c104,0,208,0,312,0V634.1c-104,-9.4,-208,-9.4,-312,0Z" class="g2_97"/>
<path d="M127.9,263.4c103.5,0,207.1,0,310.7,0v370c-103.6,-9.3,-207.2,-9.3,-310.7,0Z" class="g1_97"/>
<path d="M116.9,628.8V252.5H449.5V628.8Z" class="g6_97"/>
<path d="M119.5,626.2v-335H446.9v335Z" class="g6_97"/>
<path d="M119.5,288.6V255.1H446.9v33.5Z" class="g7_97"/>
<g clip-path="url(#c0_97)">
<image x="119" y="254" width="329" height="34" xlink:href="shade/1.png"/>
</g>
<path d="M316.9,283.4h104V260.3h-104v23.1Z" class="g8_97"/>
<path d="M208.6,340.6H357.8M209,370.2V341" class="g0_97"/>
<path d="M209.4,370.2h74.4V341H209.4v29.2Z" class="g9_97"/>
<path d="M284.1,370.2V341" class="g0_97"/>
<path d="M284.5,370.2h72.6V341H284.5v29.2Z" class="g9_97"/>
<path d="M357.5,370.2V341M208.6,370.6H357.8M209,400.2V370.9m75.1,29.3V370.9m73.4,29.3V370.9M208.6,400.5H357.8M209,430.1V400.9m75.1,29.2V400.9m73.4,29.2V400.9M208.6,430.5H357.8M209,460.1V430.8m75.1,29.3V430.8m73.4,29.3V430.8M208.6,460.4H357.8M209,490V460.8M284.1,490V460.8M357.5,490V460.8M208.6,490.4H357.8M209,520V490.8M284.1,520V490.8M357.5,520V490.8M208.6,520.3H357.8M209,549.9V520.7m75.1,29.2V520.7m73.4,29.2V520.7M208.6,550.3H357.8M209,579.9V550.7m75.1,29.2V550.7m73.4,29.2V550.7M208.6,580.3H357.8M209,609.8V580.6m75.1,29.2V580.6m73.4,29.2V580.6M208.6,610.2H357.8" class="g0_97"/>
<path d="M465.2,257.8c107.4,0,214.7,0,322,0V502.2c-107.3,-9.3,-214.6,-9.3,-322,0Z" class="g1_97"/>
<path d="M465.8,258.4c107,0,213.9,0,320.8,0V501.6c-106.9,-9.3,-213.8,-9.3,-320.8,0Z" class="g2_97"/>
<path d="M466.5,259.1c106.5,0,213,0,319.5,0V501c-106.5,-9.4,-213,-9.4,-319.5,0Z" class="g3_97"/>
<path d="M467.1,259.7c106.1,0,212.2,0,318.2,0V500.4c-106,-9.4,-212.1,-9.4,-318.2,0Z" class="g4_97"/>
<path d="M467.7,260.3c105.7,0,211.3,0,317,0V499.8c-105.7,-9.4,-211.3,-9.4,-317,0Z" class="g5_97"/>
<path d="M468.3,260.9c105.3,0,210.5,0,315.8,0V499.1c-105.3,-9.3,-210.5,-9.3,-315.8,0Z" class="g5_97"/>
<path d="M469,261.6c104.8,0,209.6,0,314.5,0V498.5c-104.9,-9.3,-209.7,-9.3,-314.5,0Z" class="g4_97"/>
<path d="M469.6,262.2c104.4,0,208.8,0,313.2,0V497.9c-104.4,-9.4,-208.8,-9.4,-313.2,0Z" class="g3_97"/>
<path d="M470.2,262.8c104,0,208,0,312,0V497.3c-104,-9.4,-208,-9.4,-312,0Z" class="g2_97"/>
<path d="M470.8,263.4c103.6,0,207.2,0,310.8,0V496.6c-103.6,-9.3,-207.2,-9.3,-310.8,0Z" class="g1_97"/>
<path d="M459.9,492V252.5H792.5V492Z" class="g6_97"/>
<path d="M462.5,489.4V291.2H789.9V489.4Z" class="g6_97"/>
<path d="M462.5,288.6V255.1H789.9v33.5Z" class="g7_97"/>
<g clip-path="url(#c1_97)">
<image x="462" y="254" width="329" height="34" xlink:href="shade/2.png"/>
</g>
<path d="M675.7,283.4h88.2V260.3H675.7v23.1Z" class="ga_97"/>
<path d="M551.6,323.6H700.8M552,353.2V324" class="g0_97"/>
<path d="M552.3,353.2h74.5V324H552.3v29.2Z" class="g9_97"/>
<path d="M627.1,353.2V324" class="g0_97"/>
<path d="M627.5,353.2h72.6V324H627.5v29.2Z" class="g9_97"/>
<path d="M700.4,353.2V324M551.6,353.6H700.8M552,383.2V354m75.1,29.2V354m73.3,29.2V354M551.6,383.5H700.8M552,413.1V383.9m75.1,29.2V383.9m73.3,29.2V383.9M551.6,413.5H700.8M552,443.1V413.9m75.1,29.2V413.9m73.3,29.2V413.9M551.6,443.5H700.8M552,473V443.8M627.1,473V443.8M700.4,473V443.8M551.6,473.4H700.8" class="g0_97"/>
<path d="M-2.9,852.8V787.3H912.4v65.5Z" class="g6_97"/>
<path d="M-.3,850.2V789.9H909.8v60.3Z" class="gb_97"/>
<path d="M-.3,841.9H909.8M-.3,815.9H909.8M-.3,789.9H909.8M-.3,850.2V789.9m25.9,60.3V789.9m26,60.3V789.9m26,60.3V789.9m26,60.3V789.9m26,60.3V789.9m25.9,60.3V789.9m26,60.3V789.9m26,60.3V789.9m26,60.3V789.9m26,60.3V789.9m26,60.3V789.9m25.9,60.3V789.9m26,60.3V789.9m26,60.3V789.9m26,60.3V789.9m26,60.3V789.9m26,60.3V789.9m26,60.3V789.9m25.9,60.3V789.9m26,60.3V789.9m26,60.3V789.9m26,60.3V789.9m26,60.3V789.9m26,60.3V789.9m25.9,60.3V789.9m26,60.3V789.9m26,60.3V789.9m26,60.3V789.9m26,60.3V789.9m26,60.3V789.9m25.9,60.3V789.9m26,60.3V789.9m26,60.3V789.9m26,60.3V789.9m26,60.3V789.9" class="gc_97"/>
<path d="M116.9,1123.6V950.4c0,-21.7,17.6,-39.2,39.2,-39.2H792.5v212.4Z" class="gd_97"/>
<path d="M119.5,1123.6V943.7H789.9v179.9Z" class="ge_97"/>
</svg>