<?xml version="1.0" encoding="UTF-8" standalone="no"?>
<!DOCTYPE svg PUBLIC "-//W3C//DTD SVG 1.1//EN"
"http://www.w3.org/Graphics/SVG/1.1/DTD/svg11.dtd">
<svg viewBox="0 0 909 1286" version="1.1" xmlns="http://www.w3.org/2000/svg" xmlns:xlink="http://www.w3.org/1999/xlink">
<defs>
<style type="text/css"><![CDATA[
.g0_17{
fill: none;
stroke: #000000;
stroke-width: 0.73;
stroke-linecap: butt;
stroke-linejoin: miter;
}
.g1_17{
fill: none;
stroke: #000000;
stroke-width: 9.132;
stroke-linecap: butt;
stroke-linejoin: miter;
}
.g2_17{
fill: none;
stroke: #F81693;
stroke-width: 0.73;
stroke-linecap: butt;
stroke-linejoin: miter;
}
.g3_17{
fill: none;
stroke: #02B5EE;
stroke-width: 0.73;
stroke-linecap: butt;
stroke-linejoin: miter;
}
.g4_17{
fill: none;
stroke: #02B5EE;
stroke-width: 1.461;
stroke-linecap: butt;
stroke-linejoin: miter;
}
.g5_17{
fill: #FFFFFF;
}
.g6_17{
fill: #FDE8E9;
}
]]></style>
</defs>
<path d="M116.9,264.9H783.4M117.3,687.7V265.3M783,687.7V265.3M116.9,688H783.4" class="g0_17"/>
<path d="M126.1,693H792.5m-4.6,4.5V273.7" class="g1_17"/>
<path d="M116.9,728.9H758.5M362.1,758.5V729.3m-74,80.2l24.8,14.8M288.1,809.5l-31.2,18.6M225.6,809.5l31.3,18.6m-62.5,36.7V828.3m31.2,-18.8l-31.2,18.6m32.3,-10.9l23,13.7M163.2,809.5l31.2,18.6m-31.2,55.6L194.4,865m-31.2,18.7L131.9,865m0,-.2V828.3m31.3,-18.8l-31.3,18.6m32.3,-10.9l23.1,13.7M164.2,876l23.1,-13.7m-49.4,-2.2v-27m148,-23.6V783.9m4.4,25.6V783.9m71.8,111.3V758.5" class="g0_17"/>
<path d="M579.8,813.3l18.3,11M567,813.3l-18.2,11m-31.4,-11l18.2,11" class="g2_17"/>
<path d="M479.7,864.8V828.3m24.9,-15l-24.9,14.8" class="g3_17"/>
<path d="M517.4,819.4l18.2,10.9" class="g2_17"/>
<path d="M448.5,809.5l31.2,18.6m-31.2,55.6L479.7,865m-31.2,18.7L417.3,865m0,-.2V828.3m31.2,-18.8l-31.2,18.6m32.3,-10.9l23,13.7m-23,45.1l23,-13.7m-49.3,-2.2v-27" class="g3_17"/>
<path d="M571.2,804V783.9m4.4,20.1V783.9" class="g2_17"/>
<path d="M362.1,924.4V895.2m0,58.4V924.4m0,58.4V953.6m0,58.5V982.8" class="g0_17"/>
<path d="M428,1010.6c1.3,0,2,-2.7,3.4,-2.7c1,0,1.8,1.3,2.7,2.7c.9,1.4,1.8,2.7,2.8,2.7c1,0,1.8,-1.3,2.7,-2.7c.9,-1.4,1.8,-2.7,2.8,-2.7c1.3,0,2,2.7,3.4,2.7h3.9" class="g4_17"/>
<path d="M362.1,1041.3v-29.2m0,105.7v-76.5" class="g0_17"/>
<path d="M439.7,1110v-60.9c0,-2.9,2.3,-5.2,5.2,-5.2H614.1c2.9,0,5.2,2.3,5.2,5.2V1110c0,2.9,-2.3,5.2,-5.2,5.2H444.9c-2.9,0,-5.2,-2.3,-5.2,-5.2Z" class="g5_17"/>
<path d="M491.5,1138.5h76v-14.2h-76v14.2Z" class="g6_17"/>
<path d="M465.7,1099.6H593.3v-40.1H465.7v40.1Z" class="g6_17"/>
<path d="M362.1,1147v-29.2m-245.2,29.6H758.5" class="g0_17"/>
</svg>