<?xml version="1.0" encoding="UTF-8" standalone="no"?>
<!DOCTYPE svg PUBLIC "-//W3C//DTD SVG 1.1//EN"
"http://www.w3.org/Graphics/SVG/1.1/DTD/svg11.dtd">
<svg viewBox="0 0 909 1286" version="1.1" xmlns="http://www.w3.org/2000/svg" xmlns:xlink="http://www.w3.org/1999/xlink">
<defs>
<style type="text/css"><![CDATA[
.g0_20{
fill: none;
stroke: #000000;
stroke-width: 0.73;
stroke-linecap: butt;
stroke-linejoin: miter;
}
.g1_20{
fill: none;
stroke: #F81693;
stroke-width: 0.73;
stroke-linecap: butt;
stroke-linejoin: miter;
}
]]></style>
</defs>
<path d="M116.9,179.9H627.8M307.3,209.5V180.3M193.7,273.2v18.3m0,0l31.2,18.6m0,36.7V310.3m-31.2,55.4L224.9,347m-31.2,18.7L162.4,347m0,-.2V310.3m31.3,-18.8l-31.3,18.6m32.4,-10.9l23,13.7m-23,45.1l23,-13.7m-49.4,-2.2v-27m56.5,31.7L246.8,360M184.5,255.9L166.3,237.6M201,255.9l18.2,-18.3m88.1,172.6V209.5" class="g0_20"/>
<path d="M447,273v18.3m0,0l31.3,18.6m0,36.8V310.1M447,365.5l31.3,-18.7M447,365.5L415.8,346.8m0,-.1V310.1M447,291.3l-31.2,18.6M448.1,299l23,13.7m-23,45.1l23,-13.7m-49.3,-2.2v-27m56.5,31.8l21.9,13.1M478.3,346.7l21.9,13.1M437.9,255.7L419.6,237.4m34.7,18.3l18.3,-18.3" class="g1_20"/>
<path d="M307.3,439.4V410.2m0,58.5V439.4m0,58.5V468.7m0,58.4V497.9m0,58.4V527.1m0,58.5V556.3m0,58.5V585.6M116.9,615.2H627.8M307.3,644.7V615.5M182.7,708.3v18.3m0,0l31.2,18.6m0,36.7V745.4m-31.2,55.3l31.2,-18.6m-31.2,18.6L151.5,782.1m0,-.2V745.4m31.2,-18.8l-31.2,18.6m32.3,-11l23,13.7m-23,45.2l23,-13.7m-49.3,-2.2V750.1m25.2,50.6v25.6M173.6,691L155.3,672.7M190,691l18.3,-18.3m99,90.4V644.7" class="g0_20"/>
<path d="M447,708.3v18.3m0,0l31.3,18.6m0,36.7V745.4M447,800.7l31.3,-18.6M447,800.7L415.8,782.1m0,-.2V745.4M447,726.6l-31.2,18.6m32.3,-11l23,13.7m-23,45.2l23,-13.7m-49.3,-2.2V750.1M447,800.7v25.6m0,-25.6v25.6M437.9,691L419.6,672.7M454.3,691l18.3,-18.3" class="g1_20"/>
<path d="M307.3,792.3V763.1m0,58.5V792.3m0,58.5V821.6m0,58.4V850.8m0,58.4V880m0,58.4V909.2m0,58.5V938.4m0,58.5V967.7m0,58.4V996.9m0,58.4v-29.2m0,58.5v-29.3m-190.4,29.6H627.8" class="g0_20"/>
</svg>