<?xml version="1.0" encoding="UTF-8" standalone="no"?>
<!DOCTYPE svg PUBLIC "-//W3C//DTD SVG 1.1//EN"
"http://www.w3.org/Graphics/SVG/1.1/DTD/svg11.dtd">
<svg viewBox="0 0 909 1286" version="1.1" xmlns="http://www.w3.org/2000/svg" xmlns:xlink="http://www.w3.org/1999/xlink">
<defs>
<style type="text/css"><![CDATA[
.g0_34{
fill: none;
stroke: #000000;
stroke-width: 0.73;
stroke-linecap: butt;
stroke-linejoin: miter;
}
.g1_34{
fill: none;
stroke: #F81693;
stroke-width: 0.73;
stroke-linecap: butt;
stroke-linejoin: miter;
}
.g2_34{
fill: none;
stroke: #02B5EE;
stroke-width: 0.73;
stroke-linecap: butt;
stroke-linejoin: miter;
}
.g3_34{
fill: none;
stroke: #8007AC;
stroke-width: 0.73;
stroke-linecap: butt;
stroke-linejoin: miter;
}
.g4_34{
fill: none;
stroke: #7F7F7F;
stroke-width: 1.461;
stroke-linecap: butt;
stroke-linejoin: miter;
}
.g5_34{
fill: none;
stroke: #7F7F7F;
stroke-width: 1.461;
stroke-linecap: round;
stroke-linejoin: round;
}
.g6_34{
fill: none;
stroke: #8007AC;
stroke-width: 1.461;
stroke-linecap: butt;
stroke-linejoin: miter;
}
.g7_34{
fill: none;
stroke: #02B5EE;
stroke-width: 1.461;
stroke-linecap: butt;
stroke-linejoin: miter;
}
.g8_34{
fill: none;
stroke: #F81693;
stroke-width: 1.461;
stroke-linecap: butt;
stroke-linejoin: miter;
}
.g9_34{
fill: #FFFFFF;
}
.ga_34{
fill: #FDE8E9;
}
]]></style>
</defs>
<path d="M116.9,179.9H815.1M371.2,209.5V180.3M283.5,265l24.9,14.8m-56.1,40.6V283.8M283.5,265l-31.2,18.6M221.1,265l31.2,18.6m-31.2,55.6l31.2,-18.7m-31.2,18.7L189.8,320.5m0,-.1V283.8M221.1,265l-31.3,18.6m32.4,-10.9l23,13.7m-49.4,29.2v-27m26.4,42.9l23,-13.7M281.3,265V239.4m4.4,25.6V239.4m-64.6,99.8v25.5M189.8,320.4l-21.9,13.1m203.3,58.3V209.5" class="g0_34"/>
<path d="M578,265l24.8,14.8m-56,33.2V293M578,265l-24.8,14.8M515.5,265l24.9,14.8m-18.5,55.5l18.3,-10.9m-31.1,10.9L490.9,324.4M484.3,313V283.8M515.5,265l-31.2,18.6m32.3,-10.9l18.3,10.9M490.3,313V288.6m31.6,39.6l18.3,-11M575.8,265V239.4m4.4,25.6V239.4" class="g1_34"/>
<path d="M515.5,344.6v20.1" class="g2_34"/>
<path d="M478.8,324.7l-18.2,11" class="g3_34"/>
<path d="M371.2,421V391.8m0,58.4V421m0,58.4V450.2" class="g0_34"/>
<path d="M399.4,445H654" class="g4_34"/>
<path d="M650.1,439.3c.9,3.4,2.8,5,4.7,5.7c-1.9,.6,-3.8,2.3,-4.7,5.7" class="g5_34"/>
<path d="M399.4,478c1.4,0,2.1,-2.8,3.4,-2.8c1,0,1.9,1.4,2.8,2.8c.9,1.4,1.7,2.7,2.7,2.7c1,0,1.9,-1.3,2.8,-2.7c.8,-1.4,1.7,-2.8,2.7,-2.8c1.4,0,2.1,2.8,3.4,2.8h3.9" class="g6_34"/>
<path d="M528.8,478c1.4,0,2,-2.8,3.4,-2.8c1,0,1.9,1.4,2.8,2.8c.8,1.4,1.7,2.7,2.7,2.7c1,0,1.8,-1.3,2.7,-2.7c.9,-1.4,1.8,-2.8,2.8,-2.8c1.3,0,2,2.8,3.4,2.8h3.9" class="g7_34"/>
<path d="M655.5,478c1.4,0,2.1,-2.8,3.4,-2.8c1,0,1.9,1.4,2.8,2.8c.9,1.4,1.7,2.7,2.7,2.7c1,0,1.9,-1.3,2.8,-2.7c.8,-1.4,1.7,-2.8,2.7,-2.8c1,0,1.8,1.4,2.7,2.8c.9,1.4,1.8,2.7,2.8,2.7c1,0,1.8,-1.3,2.7,-2.7c.9,-1.4,1.8,-2.8,2.8,-2.8c.9,0,1.8,1.4,2.7,2.8c.9,1.4,1.7,2.7,2.7,2.7c1,0,1.9,-1.3,2.8,-2.7c.9,-1.4,1.7,-2.8,2.7,-2.8c1,0,1.9,1.4,2.7,2.8c.9,1.4,1.8,2.7,2.8,2.7c1,0,1.8,-1.3,2.7,-2.7c.9,-1.4,1.8,-2.8,2.8,-2.8c1,0,1.8,1.4,2.7,2.8c.9,1.4,1.8,2.7,2.7,2.7c1,0,1.9,-1.3,2.8,-2.7c.9,-1.4,1.7,-2.8,2.7,-2.8c1,0,1.9,1.4,2.8,2.8c.9,1.4,1.7,2.7,2.7,2.7c1,0,1.9,-1.3,2.7,-2.7c.9,-1.4,1.8,-2.8,2.8,-2.8c1,0,1.8,1.4,2.7,2.8c.9,1.4,1.8,2.7,2.8,2.7c1,0,1.8,-1.3,2.7,-2.7c.9,-1.4,1.8,-2.8,2.7,-2.8c1,0,1.9,1.4,2.8,2.8c.9,1.4,1.7,2.7,2.7,2.7c1,0,1.9,-1.3,2.8,-2.7c.9,-1.4,1.7,-2.8,2.7,-2.8c1,0,1.9,1.4,2.7,2.8c.9,1.4,1.8,2.7,2.8,2.7c1,0,1.8,-1.3,2.7,-2.7c.9,-1.4,1.8,-2.8,2.8,-2.8c1,0,1.8,1.4,2.7,2.8c.9,1.4,1.8,2.7,2.7,2.7c1,0,1.9,-1.3,2.8,-2.7c.9,-1.4,1.7,-2.8,2.7,-2.8c1,0,1.9,1.4,2.8,2.8c.9,1.4,1.7,2.7,2.7,2.7c1,0,1.8,-1.3,2.7,-2.7c.9,-1.4,1.8,-2.8,2.8,-2.8c1,0,1.8,1.4,2.7,2.8c.9,1.4,1.8,2.7,2.8,2.7c1,0,1.8,-1.3,2.7,-2.7c.9,-1.4,1.7,-2.8,2.7,-2.8c1,0,1.9,1.4,2.8,2.8c.9,1.4,1.7,2.7,2.7,2.7c1.4,0,2.1,-2.7,3.4,-2.7h4.9" class="g8_34"/>
<path d="M371.2,508.7V479.4m0,105.8V508.7" class="g0_34"/>
<path d="M448.8,577.4V516.5c0,-2.9,2.3,-5.2,5.2,-5.2H652.5c2.8,0,5.2,2.3,5.2,5.2v60.9c0,2.9,-2.4,5.2,-5.2,5.2H454c-2.9,0,-5.2,-2.3,-5.2,-5.2Z" class="g9_34"/>
<path d="M520.4,605.9H586V591.6H520.4v14.3Z" class="ga_34"/>
<path d="M474.8,567H631.7V526.9H474.8V567Z" class="ga_34"/>
<path d="M371.2,614.4V585.2M116.9,614.8H815.1M371.2,644.4V615.1m-69.4,84.8l24.8,14.8m-56,40.5V718.7m31.2,-18.8l-31.2,18.6M239.3,699.9l31.3,18.6m-31.3,55.6l31.3,-18.7m-31.3,18.7L208.1,755.4m0,-.2V718.7m31.2,-18.8l-31.2,18.6m32.3,-10.9l23,13.7m-49.3,29.2v-27m26.3,42.9l23,-13.7m36.2,-52.8V674.3m4.4,25.6V674.3m-64.7,99.8v25.5M208.1,755.2l-21.9,13.2m185,58.3V644.4" class="g0_34"/>
<path d="M596.3,699.9l24.8,14.8M565,747.9V727.8m31.3,-27.9l-24.9,14.8M533.8,699.9l24.8,14.8m-18.4,55.5l18.3,-10.9m-31.1,10.9L509.1,759.3m-6.5,-11.4V718.7m31.2,-18.8l-31.2,18.6m32.3,-10.9l18.3,10.9m-44.6,29.4V723.5m31.6,39.6l18.3,-11m35.6,-52.2V674.3m4.4,25.6V674.3" class="g1_34"/>
<path d="M533.8,779.5v20.1m-36.7,-40l-18.3,11" class="g2_34"/>
<path d="M371.2,855.9V826.7m0,58.4V855.9" class="g0_34"/>
<path d="M399.4,886.3c1.4,0,2.1,-2.8,3.4,-2.8c1,0,1.9,1.4,2.8,2.8c.9,1.4,1.7,2.7,2.7,2.7c1,0,1.9,-1.3,2.8,-2.7c.8,-1.4,1.7,-2.8,2.7,-2.8c1,0,1.8,1.4,2.7,2.8c.9,1.4,1.8,2.7,2.8,2.7c1,0,1.8,-1.3,2.7,-2.7c.9,-1.4,1.8,-2.8,2.8,-2.8c.9,0,1.8,1.4,2.7,2.8c.9,1.4,1.7,2.7,2.7,2.7c1,0,1.9,-1.3,2.8,-2.7c.9,-1.4,1.7,-2.8,2.7,-2.8c1,0,1.9,1.4,2.8,2.8c.8,1.4,1.7,2.7,2.7,2.7c1,0,1.8,-1.3,2.7,-2.7c.9,-1.4,1.8,-2.8,2.8,-2.8c1,0,1.8,1.4,2.7,2.8c.9,1.4,1.8,2.7,2.8,2.7c.9,0,1.8,-1.3,2.7,-2.7c.9,-1.4,1.7,-2.8,2.7,-2.8c1.4,0,2.1,2.8,3.5,2.8h1" class="g7_34"/>
<path d="M567.1,883.6c1.4,0,2.1,-2.7,3.4,-2.7c1,0,1.9,1.3,2.8,2.7c.9,1.5,1.7,2.8,2.7,2.8c1,0,1.9,-1.3,2.8,-2.8c.8,-1.4,1.7,-2.7,2.7,-2.7c1,0,1.8,1.3,2.7,2.7c.9,1.5,1.8,2.8,2.8,2.8c1,0,1.8,-1.3,2.7,-2.8c.9,-1.4,1.8,-2.7,2.8,-2.7c.9,0,1.8,1.3,2.7,2.7c.9,1.5,1.7,2.8,2.7,2.8c1,0,1.9,-1.3,2.8,-2.8c.9,-1.4,1.7,-2.7,2.7,-2.7c1,0,1.9,1.3,2.8,2.7c.8,1.5,1.7,2.8,2.7,2.8c1,0,1.8,-1.3,2.7,-2.8c.9,-1.4,1.8,-2.7,2.8,-2.7c1,0,1.8,1.3,2.7,2.7c.9,1.5,1.8,2.8,2.7,2.8c1,0,1.9,-1.3,2.8,-2.8c.9,-1.4,1.7,-2.7,2.7,-2.7c1,0,1.9,1.3,2.8,2.7c.9,1.5,1.7,2.8,2.7,2.8c1,0,1.9,-1.3,2.7,-2.8c.9,-1.4,1.8,-2.7,2.8,-2.7c1,0,1.8,1.3,2.7,2.7c.9,1.5,1.8,2.8,2.8,2.8c1,0,1.8,-1.3,2.7,-2.8c.9,-1.4,1.8,-2.7,2.7,-2.7c1,0,1.9,1.3,2.8,2.7c.9,1.5,1.7,2.8,2.7,2.8c1,0,1.9,-1.3,2.8,-2.8c.9,-1.4,1.7,-2.7,2.7,-2.7c1,0,1.9,1.3,2.7,2.7c.9,1.5,1.8,2.8,2.8,2.8c1,0,1.8,-1.3,2.7,-2.8c.9,-1.4,1.8,-2.7,2.8,-2.7c1,0,1.8,1.3,2.7,2.7c.9,1.5,1.8,2.8,2.7,2.8c1,0,1.9,-1.3,2.8,-2.8c.9,-1.4,1.7,-2.7,2.7,-2.7c1,0,1.9,1.3,2.8,2.7c.9,1.5,1.7,2.8,2.7,2.8c1,0,1.8,-1.3,2.7,-2.8c.9,-1.4,1.8,-2.7,2.8,-2.7c1,0,1.8,1.3,2.7,2.7c.9,1.5,1.8,2.8,2.8,2.8c1,0,1.8,-1.3,2.7,-2.8c.9,-1.4,1.8,-2.7,2.7,-2.7c1,0,1.9,1.3,2.8,2.7c.9,1.5,1.7,2.8,2.7,2.8c1.4,0,2.1,-2.8,3.4,-2.8h4.9" class="g8_34"/>
<path d="M371.2,914.3V885.1m0,105.8V914.3" class="g0_34"/>
<path d="M448.8,983.1v-61c0,-2.8,2.3,-5.2,5.2,-5.2H681.6c2.9,0,5.2,2.4,5.2,5.2v61c0,2.8,-2.3,5.2,-5.2,5.2H454c-2.9,0,-5.2,-2.4,-5.2,-5.2Z" class="g9_34"/>
<path d="M533.4,1011.5h68.9V997.3H533.4v14.2Z" class="ga_34"/>
<path d="M474.8,972.7h186V932.5h-186v40.2Z" class="ga_34"/>
<path d="M371.2,1020.1V990.9m-254.3,29.5H815.1" class="g0_34"/>
</svg>