<?xml version="1.0" encoding="UTF-8" standalone="no"?>
<!DOCTYPE svg PUBLIC "-//W3C//DTD SVG 1.1//EN"
"http://www.w3.org/Graphics/SVG/1.1/DTD/svg11.dtd">
<svg viewBox="0 0 1286 909" version="1.1" xmlns="http://www.w3.org/2000/svg" xmlns:xlink="http://www.w3.org/1999/xlink">
<defs>
<style type="text/css"><![CDATA[
.g0_1184{
fill: none;
stroke: #000000;
stroke-width: 0.73;
stroke-linecap: butt;
stroke-linejoin: miter;
}
.g1_1184{
fill: none;
stroke: #000000;
stroke-width: 0.584;
stroke-linecap: butt;
stroke-linejoin: miter;
}
.g2_1184{
fill: #FDE8E9;
}
]]></style>
</defs>
<path d="M193,83.4h900.3" class="g0_1184"/>
<path d="M206.6,109.5H499.8M206.6,133.1V109.7M409,133.1V109.7m90.8,23.4V109.7M206.6,159.2V133.1M409,159.2V133.1" class="g1_1184"/>
<path d="M417.7,156.6h69.9V133.1H417.7v23.5Z" class="g2_1184"/>
<path d="M499.8,159.2V133.1M206.6,182.6V159.2M409,182.6V159.2m90.8,23.4V159.2M206.6,206V182.6M409,206V182.6M499.8,206V182.6M206.6,233.7V206M409,233.7V206" class="g1_1184"/>
<path d="M417.7,233.7h69.2V206H417.7v27.7Z" class="g2_1184"/>
<path d="M499.8,233.7V206M206.6,257.1V233.7M409,257.1V233.7m90.8,23.4V233.7M206.6,280.4V257.1M409,280.4V257.1m90.8,23.3V257.1m-293.2,51V280.4M409,308.1V280.4" class="g1_1184"/>
<path d="M417.7,308.1h66.2V280.4H417.7v27.7Z" class="g2_1184"/>
<path d="M499.8,308.1V280.4M206.6,331.5V308.1M409,331.5V308.1m90.8,23.4V308.1M206.6,354.9V331.5M409,354.9V331.5m90.8,23.4V331.5M206.6,382.6V354.9M409,382.6V354.9" class="g1_1184"/>
<path d="M417.7,382.6h65.7V354.9H417.7v27.7Z" class="g2_1184"/>
<path d="M499.8,382.6V354.9M206.6,406V382.6M409,406V382.6M499.8,406V382.6M206.6,429.4V406M409,429.4V406m90.8,23.4V406M206.6,455.5V429.4M409,455.5V429.4" class="g1_1184"/>
<path d="M417.7,452.8h65.5V429.4H417.7v23.4Z" class="g2_1184"/>
<path d="M499.8,455.5V429.4M206.6,478.8V455.5M409,478.8V455.5m90.8,23.3V455.5M206.6,502.2V478.8M409,502.2V478.8m90.8,23.4V478.8M206.6,528.3V502.2M409,528.3V502.2" class="g1_1184"/>
<path d="M417.7,525.7h73.4V502.2H417.7v23.5Z" class="g2_1184"/>
<path d="M499.8,528.3V502.2M206.6,551.7V528.3M409,551.7V528.3m90.8,23.4V528.3M206.6,575.1V551.7M409,575.1V551.7m90.8,23.4V551.7M206.6,602.8V575.1M409,602.8V575.1" class="g1_1184"/>
<path d="M417.7,602.8h59.9V575.1H417.7v27.7Z" class="g2_1184"/>
<path d="M499.8,602.8V575.1M206.6,626.2V602.8M409,626.2V602.8m90.8,23.4V602.8M206.6,626.5H499.8M517.4,113H783.1M517.4,136.7V113.3m134.2,23.4V113.3m131.5,23.4V113.3M517.4,164.4V136.7m134.2,27.7V136.7" class="g1_1184"/>
<path d="M660.4,164.4h65.8V136.7H660.4v27.7Z" class="g2_1184"/>
<path d="M783.1,164.4V136.7M517.4,187.8V164.4m134.2,23.4V164.4m131.5,23.4V164.4M517.4,211.1V187.8m134.2,23.3V187.8m131.5,23.3V187.8M517.4,237.3V211.1m134.2,26.2V211.1" class="g1_1184"/>
<path d="M660.4,234.6h67.9V211.1H660.4v23.5Z" class="g2_1184"/>
<path d="M783.1,237.3V211.1M517.4,260.6V237.3m134.2,23.3V237.3m131.5,23.3V237.3M517.4,284V260.6M651.6,284V260.6M783.1,284V260.6M517.4,310.1V284m134.2,26.1V284" class="g1_1184"/>
<path d="M660.4,307.5h70.7V284H660.4v23.5Z" class="g2_1184"/>
<path d="M783.1,310.1V284M517.4,333.5V310.1m134.2,23.4V310.1m131.5,23.4V310.1M517.4,356.9V333.5m134.2,23.4V333.5m131.5,23.4V333.5M517.4,383V356.9M651.6,383V356.9" class="g1_1184"/>
<path d="M660.4,380.4H774.3V356.9H660.4v23.5Z" class="g2_1184"/>
<path d="M783.1,383V356.9M517.4,406.4V383m134.2,23.4V383m131.5,23.4V383M517.4,429.8V406.4m134.2,23.4V406.4m131.5,23.4V406.4M517.4,453.9V429.8m134.2,24.1V429.8" class="g1_1184"/>
<path d="M660.4,451.3h90.8V432.6H660.4v18.7Z" class="g2_1184"/>
<path d="M783.1,453.9V429.8M517.4,477.3V453.9m134.2,23.4V453.9m131.5,23.4V453.9M517.4,500.6V477.3m134.2,23.3V477.3m131.5,23.3V477.3M517.4,526.8V500.6m134.2,26.2V500.6" class="g1_1184"/>
<path d="M660.4,524.1h83.1V500.6H660.4v23.5Z" class="g2_1184"/>
<path d="M783.1,526.8V500.6M517.4,550.1V526.8m134.2,23.3V526.8m131.5,23.3V526.8M517.4,573.5V550.1m134.2,23.4V550.1m131.5,23.4V550.1M517.4,599.2V573.5m134.2,25.7V573.5" class="g1_1184"/>
<path d="M660.4,599.2h58.5V576.4H660.4v22.8Z" class="g2_1184"/>
<path d="M783.1,599.2V573.5M517.4,622.6V599.2m134.2,23.4V599.2m131.5,23.4V599.2M517.4,622.9H783.1M800.6,111.8h287.6M800.6,135.5V112.1m153.8,23.4V112.1m133.8,23.4V112.1M800.6,161.6V135.5m153.8,26.1V135.5" class="g1_1184"/>
<path d="M963.1,159h56.6V135.5H963.1V159Z" class="g2_1184"/>
<path d="M1088.2,161.6V135.5M800.6,185V161.6M954.4,185V161.6M1088.2,185V161.6M800.6,208.4V185m153.8,23.4V185m133.8,23.4V185M800.6,234.5V208.4m153.8,26.1V208.4" class="g1_1184"/>
<path d="M963.1,231.9H1018V208.4H963.1v23.5Z" class="g2_1184"/>
<path d="M1088.2,234.5V208.4M800.6,257.9V234.5m153.8,23.4V234.5m133.8,23.4V234.5M800.6,281.2V257.9m153.8,23.3V257.9m133.8,23.3V257.9M800.6,307.4V281.2m153.8,26.2V281.2" class="g1_1184"/>
<path d="M963.1,304.7h116.3V281.2H963.1v23.5Z" class="g2_1184"/>
<path d="M1088.2,307.4V281.2M800.6,330.7V307.4m153.8,23.3V307.4m133.8,23.3V307.4M800.6,354.1V330.7m153.8,23.4V330.7m133.8,23.4V330.7M800.6,380.2V354.1m153.8,26.1V354.1" class="g1_1184"/>
<path d="M963.1,377.6h72V354.1h-72v23.5Z" class="g2_1184"/>
<path d="M1088.2,380.2V354.1M800.6,403.6V380.2m153.8,23.4V380.2m133.8,23.4V380.2M800.6,427V403.6M954.4,427V403.6M1088.2,427V403.6M800.6,453.1V427m153.8,26.1V427" class="g1_1184"/>
<path d="M963.1,450.5h92.3V427H963.1v23.5Z" class="g2_1184"/>
<path d="M1088.2,453.1V427M800.6,476.5V453.1m153.8,23.4V453.1m133.8,23.4V453.1M800.6,499.9V476.5m153.8,23.4V476.5m133.8,23.4V476.5M800.6,527.6V499.9m153.8,27.7V499.9" class="g1_1184"/>
<path d="M963.1,527.6h83.1V499.9H963.1v27.7Z" class="g2_1184"/>
<path d="M1088.2,527.6V499.9m-287.6,51V527.6m153.8,23.3V527.6m133.8,23.3V527.6M800.6,574.3V550.9m153.8,23.4V550.9m133.8,23.4V550.9M800.6,600.4V574.3m153.8,26.1V574.3" class="g1_1184"/>
<path d="M963.1,597.8h48.7V574.3H963.1v23.5Z" class="g2_1184"/>
<path d="M1088.2,600.4V574.3M800.6,623.8V600.4m153.8,23.4V600.4m133.8,23.4V600.4M800.6,624.1h287.6" class="g1_1184"/>
</svg>