<?xml version="1.0" encoding="UTF-8" standalone="no"?>
<!DOCTYPE svg PUBLIC "-//W3C//DTD SVG 1.1//EN"
"http://www.w3.org/Graphics/SVG/1.1/DTD/svg11.dtd">
<svg viewBox="0 0 909 1286" version="1.1" xmlns="http://www.w3.org/2000/svg" xmlns:xlink="http://www.w3.org/1999/xlink">
<defs>
<clipPath id="c0_53"><path d="M119.5,215.7V182.1H789.9v33.6Z"/></clipPath>
<style type="text/css"><![CDATA[
.g0_53{
fill: none;
stroke: #000000;
stroke-width: 0.73;
stroke-linecap: butt;
stroke-linejoin: miter;
}
.g1_53{
fill: #7F7F7F;
fill-opacity: 0.01;
}
.g2_53{
fill: #7F7F7F;
fill-opacity: 0.02;
}
.g3_53{
fill: #7F7F7F;
fill-opacity: 0.04;
}
.g4_53{
fill: #7F7F7F;
fill-opacity: 0.07;
}
.g5_53{
fill: #7F7F7F;
fill-opacity: 0.11;
}
.g6_53{
fill: #FFFFFF;
}
.g7_53{
fill: #7F7F7F;
}
.g8_53{
fill: #EC008C;
}
.g9_53{
fill: #CBCEFB;
}
.ga_53{
fill: #FFFEF5;
}
.gb_53{
fill: none;
stroke: #D6C944;
stroke-width: 0.365;
stroke-linecap: butt;
stroke-linejoin: miter;
}
.gc_53{
fill: #E81A58;
}
.gd_53{
fill: #401A1A;
}
]]></style>
</defs>
<path d="M116.9,159.9H792.5" class="g0_53"/>
<path d="M122.2,184.8c221.7,0,443.4,0,665,0V502.7c-221.6,-9.4,-443.3,-9.4,-665,0Z" class="g1_53"/>
<path d="M122.9,185.4c221.2,0,442.4,0,663.7,0V502.1c-221.3,-9.4,-442.5,-9.4,-663.7,0Z" class="g2_53"/>
<path d="M123.5,186.1c220.8,0,441.6,0,662.5,0V501.4c-220.9,-9.3,-441.7,-9.3,-662.5,0Z" class="g3_53"/>
<path d="M124.1,186.7c220.4,0,440.8,0,661.2,0V500.8c-220.4,-9.3,-440.8,-9.3,-661.2,0Z" class="g4_53"/>
<path d="M124.7,187.3c220,0,440,0,660,0V500.2c-220,-9.4,-440,-9.4,-660,0Z" class="g5_53"/>
<path d="M125.4,187.9c219.5,0,439.1,0,658.7,0V499.6c-219.6,-9.4,-439.2,-9.4,-658.7,0Z" class="g5_53"/>
<path d="M126,188.6c219.1,0,438.3,0,657.5,0V498.9c-219.2,-9.3,-438.4,-9.3,-657.5,0Z" class="g4_53"/>
<path d="M126.6,189.2c218.8,0,437.5,0,656.3,0V498.3C564.1,489,345.4,489,126.6,498.3Z" class="g3_53"/>
<path d="M127.2,189.8c218.4,0,436.7,0,655,0V497.7c-218.3,-9.4,-436.6,-9.4,-655,0Z" class="g2_53"/>
<path d="M127.9,190.4c217.9,0,435.8,0,653.7,0V497.1c-217.9,-9.4,-435.8,-9.4,-653.7,0Z" class="g1_53"/>
<path d="M116.9,492.4V179.5H792.5V492.4Z" class="g6_53"/>
<path d="M119.5,489.8V218.2H789.9V489.8Z" class="g6_53"/>
<path d="M119.5,215.7V182.1H789.9v33.6Z" class="g7_53"/>
<g clip-path="url(#c0_53)">
<image x="119" y="181" width="672" height="34" xlink:href="shade/1.png"/>
</g>
<path d="M675.7,210.5h88.2V187.3H675.7v23.2Z" class="g8_53"/>
<path d="M369.4,234.2H540.1M369.8,263.8V234.6" class="g0_53"/>
<path d="M370.1,263.8h98.6V234.6H370.1v29.2Z" class="g9_53"/>
<path d="M469.1,263.8V234.6" class="g0_53"/>
<path d="M469.5,263.8h69.8V234.6H469.5v29.2Z" class="g9_53"/>
<path d="M539.7,263.8V234.6M369.4,264.2H540.1M369.8,293.7V264.5m99.3,29.2V264.5m70.6,29.2V264.5M369.4,294.1H540.1M369.8,323.7V294.5m99.3,29.2V294.5m70.6,29.2V294.5M369.4,324.1H540.1M369.8,353.7V324.4m99.3,29.3V324.4m70.6,29.3V324.4M369.4,354H540.1M369.8,383.6V354.4m99.3,29.2V354.4m70.6,29.2V354.4M369.4,384H540.1M369.8,413.6V384.3m99.3,29.3V384.3m70.6,29.3V384.3M369.4,413.9H540.1M369.8,443.5V414.3m99.3,29.2V414.3m70.6,29.2V414.3M369.4,443.9H540.1M369.8,473.5V444.3m99.3,29.2V444.3m70.6,29.2V444.3M369.4,473.8H540.1" class="g0_53"/>
<path d="M-2.9,645.5V580.1H912.4v65.4Z" class="g6_53"/>
<path d="M-.3,642.9V582.7H909.8v60.2Z" class="ga_53"/>
<path d="M-.3,634.6H909.8M-.3,608.6H909.8M-.3,582.7H909.8M-.3,642.9V582.7m25.9,60.2V582.7m26,60.2V582.7m26,60.2V582.7m26,60.2V582.7m26,60.2V582.7m25.9,60.2V582.7m26,60.2V582.7m26,60.2V582.7m26,60.2V582.7m26,60.2V582.7m26,60.2V582.7m25.9,60.2V582.7m26,60.2V582.7m26,60.2V582.7m26,60.2V582.7m26,60.2V582.7m26,60.2V582.7m26,60.2V582.7m25.9,60.2V582.7m26,60.2V582.7m26,60.2V582.7m26,60.2V582.7m26,60.2V582.7m26,60.2V582.7m25.9,60.2V582.7m26,60.2V582.7m26,60.2V582.7m26,60.2V582.7m26,60.2V582.7m26,60.2V582.7m25.9,60.2V582.7m26,60.2V582.7m26,60.2V582.7m26,60.2V582.7m26,60.2V582.7" class="gb_53"/>
<path d="M116.9,1120.9V743.1c0,-21.6,17.6,-39.1,39.2,-39.1H792.5v416.9Z" class="gc_53"/>
<path d="M119.5,1120.9V736.5H789.9v384.4Z" class="gd_53"/>
</svg>