<?xml version="1.0" encoding="UTF-8" standalone="no"?>
<!DOCTYPE svg PUBLIC "-//W3C//DTD SVG 1.1//EN"
"http://www.w3.org/Graphics/SVG/1.1/DTD/svg11.dtd">
<svg viewBox="0 0 1286 909" version="1.1" xmlns="http://www.w3.org/2000/svg" xmlns:xlink="http://www.w3.org/1999/xlink">
<defs>
<style type="text/css"><![CDATA[
.g0_591{
fill: none;
stroke: #000000;
stroke-width: 0.73;
stroke-linecap: butt;
stroke-linejoin: miter;
}
.g1_591{
fill: none;
stroke: #02B5EE;
stroke-width: 0.73;
stroke-linecap: butt;
stroke-linejoin: miter;
}
.g2_591{
fill: none;
stroke: #02B5EE;
stroke-width: 1.262;
stroke-linecap: butt;
stroke-linejoin: miter;
}
.g3_591{
fill: none;
stroke: #FFA313;
stroke-width: 1.262;
stroke-linecap: butt;
stroke-linejoin: miter;
}
]]></style>
</defs>
<path d="M193,83.4h900.3M193,111.6H988.4m-795.4,0H988.4M430.3,141.2V112m0,58.5V141.2m0,102.3v-73" class="g0_591"/>
<path d="M825.4,229.6h152" class="g1_591"/>
<path d="M430.3,272.7V243.5m0,58.5V272.7m0,114.3V302" class="g0_591"/>
<path d="M669.8,363H813.9" class="g2_591"/>
<path d="M430.3,416.2V387m0,102.3V416.2" class="g0_591"/>
<path d="M825.4,475.4h152" class="g1_591"/>
<path d="M430.3,518.5V489.3m0,58.4V518.5m0,60.1V547.7m0,60.1V578.6m0,58.4V607.8m0,114.2V637" class="g0_591"/>
<path d="M741.6,698.1h34.6" class="g2_591"/>
<path d="M786.8,698.1H977.4" class="g3_591"/>
<path d="M430.3,751.3V722M193,751.6H988.4m-795.4,0H988.4" class="g0_591"/>
</svg>