<?xml version="1.0" encoding="UTF-8" standalone="no"?>
<!DOCTYPE svg PUBLIC "-//W3C//DTD SVG 1.1//EN"
"http://www.w3.org/Graphics/SVG/1.1/DTD/svg11.dtd">
<svg viewBox="0 0 909 1286" version="1.1" xmlns="http://www.w3.org/2000/svg" xmlns:xlink="http://www.w3.org/1999/xlink">
<defs>
<style type="text/css"><![CDATA[
.g0_23{
fill: none;
stroke: #000000;
stroke-width: 1.461;
stroke-linecap: butt;
stroke-linejoin: miter;
}
.g1_23{
fill: none;
stroke: #000000;
stroke-width: 0.152;
stroke-linecap: butt;
stroke-linejoin: miter;
}
.g2_23{
fill: none;
stroke: #000000;
stroke-width: 0.73;
stroke-linecap: butt;
stroke-linejoin: miter;
}
.g3_23{
fill: none;
stroke: #F81693;
stroke-width: 1.278;
stroke-linecap: butt;
stroke-linejoin: miter;
}
.g4_23{
fill: #F81693;
stroke: #F81693;
stroke-width: 1.155;
stroke-linecap: butt;
stroke-linejoin: round;
stroke-miterlimit: 1;
}
.g5_23{
fill: #7F7F7F;
stroke: #7F7F7F;
stroke-width: 1.155;
stroke-linecap: butt;
stroke-linejoin: round;
stroke-miterlimit: 1;
}
.g6_23{
fill: none;
stroke: #F81693;
stroke-width: 0.73;
stroke-linecap: butt;
stroke-linejoin: miter;
}
.g7_23{
fill: none;
stroke: #02B5EE;
stroke-width: 0.73;
stroke-linecap: butt;
stroke-linejoin: miter;
}
.g8_23{
fill: none;
stroke: #02B5EE;
stroke-width: 1.461;
stroke-linecap: butt;
stroke-linejoin: miter;
}
]]></style>
</defs>
<path d="M117.7,423.9V198.5m18.2,-18.2H683.5" class="g0_23"/>
<path d="M117.3,198.5h.7" class="g1_23"/>
<path d="M135.9,180.3h17.9" class="g2_23"/>
<path d="M792.9,198.5h.7" class="g1_23"/>
<path d="M756.3,180.3h17.9m-292.8,172l31.2,18.6m0,36.8V371.1m-31.2,55.4l31.2,-18.7m-31.2,18.7L450.2,407.8m0,-.1V371.1m31.2,-18.8l-31.2,18.6M418.9,352.3l31.3,18.6m-31.3,55.6l31.3,-18.7m-31.3,18.7L387.7,407.8m0,-.1V371.1m31.2,-18.8l-31.2,18.6M417.8,360l-23,13.7m23,45.1l-23,-13.7M482.5,360l23,13.7m-23,45.1l23,-13.7m-61.4,-2.2v-27M450.2,297l31.2,18.6m0,36.7V315.8m-31.2,55.3l31.2,-18.6m-31.2,18.6L418.9,352.5m0,-.2V315.8M450.2,297l-31.3,18.6m30.2,-11L426,318.3m55.4,-76.7l31.2,18.6m0,36.8V260.4m-31.2,55.4l31.2,-18.7M450.2,297V260.4m31.2,-18.8l-31.2,18.6m32.3,-10.9l23,13.7m-23,45.1l23,-13.7M418.9,241.6l31.3,18.6m0,36.8V260.4m-31.3,55.4L387.7,297.1m0,-.1V260.4m31.2,-18.8l-31.2,18.6M420,249.3L443,263m-49.3,29.2v-27m-6,31.8l31.2,18.6m-31.2,55.5l31.2,-18.6m-31.2,18.6L356.5,352.5m0,-.2V315.8M387.7,297l-31.2,18.6m6,32V320.5M512.6,297l31.3,18.6m0,36.7V315.8m-31.3,55.3l31.3,-18.6m-31.3,18.6L481.4,352.5M512.6,297l-31.2,18.6m56.4,32V320.5" class="g2_23"/>
<path d="M117.3,424.3h.7" class="g1_23"/>
<path d="M135.9,442.5h17.9" class="g2_23"/>
<path d="M792.9,424.3h.7" class="g1_23"/>
<path d="M756.3,442.5h17.9" class="g2_23"/>
<path d="M135.9,442.2H775m18.2,-18.3V198.5" class="g0_23"/>
<path d="M523,614.8l54.7,32.6m0,64.3V647.8M523,744.6L577.7,712M523,744.6L468.4,712m0,-.3V647.8m54.6,-33l-54.6,32.6M413.7,614.8l54.7,32.6m-54.7,97.2L468.4,712m-54.7,32.6L359,712m0,-.3V647.8m54.7,-33L359,647.4M521.1,628.3l-40.3,23.9M369.6,703.4V656.1" class="g3_23"/>
<path d="M531.1,614.8c0,3.5,-2.3,6.6,-5.6,7.7c-3.3,1.1,-7,-.1,-9,-2.9c-2.1,-2.9,-2.1,-6.7,0,-9.5c2,-2.9,5.7,-4,9,-3c3.3,1.1,5.6,4.2,5.6,7.7Z" class="g4_23"/>
<path d="M577.7,518l54.6,32.6m0,64.2V550.9m-54.6,96.9l54.6,-32.7M523,614.8V550.9M577.7,518L523,550.6m56.6,-19.2l40.3,24m-40.3,78.9l40.3,-23.9" class="g3_23"/>
<path d="M531.1,550.9c0,3.5,-2.3,6.6,-5.6,7.7c-3.3,1.1,-7,-.1,-9,-2.9c-2.1,-2.9,-2.1,-6.7,0,-9.6c2,-2.8,5.7,-4,9,-2.9c3.3,1.1,5.6,4.2,5.6,7.7Z" class="g5_23"/>
<path d="M585.8,518c0,3.5,-2.3,6.6,-5.6,7.7c-3.4,1,-7,-.1,-9.1,-3c-2,-2.8,-2,-6.6,0,-9.5c2.1,-2.8,5.7,-4,9.1,-2.9c3.3,1.1,5.6,4.2,5.6,7.7Z" class="g5_23"/>
<path d="M632.3,614.8L687,647.4m0,64.3V647.8m-54.7,96.8L687,712m-54.7,32.6L577.7,712m54.6,-97.2l-54.6,32.6m98.7,56V656.1M523,808.5V744.6m-54.6,96.9L523,808.9m-54.6,32.6L413.7,808.9m0,-.4V744.6m54.7,-32.9l-54.7,32.6m52.7,-19.2l-40.2,24M466.4,828L426.2,804.1" class="g3_23"/>
<path d="M520.2,960.9l31.3,18.7m0,36.7V979.8m-31.3,55.3l31.3,-18.6m-31.3,18.6L489,1016.5m0,-.2V979.8m31.2,-18.9L489,979.6M457.8,960.9L489,979.6m-31.2,55.5L489,1016.5m-31.2,18.6l-31.3,-18.6m0,-.2V979.8m31.3,-18.9l-31.3,18.7m92.6,-11l-23,13.7m-63.5,29.2v-27M551.5,905.6l31.2,18.6m0,36.7V924.4m-31.2,55.4l31.2,-18.7m-62.5,-.2V924.4m31.3,-18.8l-31.3,18.6m32.4,-10.9l23,13.7m-23,45.1l23,-13.7m7.1,2.5l31.2,18.7m0,36.7V979.8m-31.2,55.3l31.2,-18.6m-31.2,18.6l-31.2,-18.6m31.2,-55.6l-31.2,18.7m56.4,31.9v-27m-87.7,87.1v-36.5M489,1090.4l31.2,-18.6M489,1090.4l-31.2,-18.6m0,-.2v-36.5M489,1016.3l-31.2,18.6M487.9,1024l-23,13.7m23,45.1l-23,-13.7" class="g6_23"/>
<path d="M489,905.6l31.2,18.6m0,36.7V924.4M489,979.8L457.8,961.1m0,-.2V924.4M489,905.6l-31.2,18.6m32.3,-10.9l23,13.7m-49.3,29.2v-27m87.7,87.1l31.2,18.6m0,36.7v-36.5m-31.2,55.3l31.2,-18.6m-31.2,18.6l-31.3,-18.6m0,-.2v-36.5M552.6,1024l23,13.7m-23,45.1l23,-13.7m-49.3,-2.2v-27.1" class="g7_23"/>
<path d="M276,1148.8c1.3,0,2,-2.7,3.4,-2.7c1,0,1.8,1.3,2.7,2.7c.9,1.5,1.8,2.8,2.8,2.8c1,0,1.8,-1.3,2.7,-2.8c.9,-1.4,1.8,-2.7,2.8,-2.7c.9,0,1.8,1.3,2.7,2.7c.9,1.5,1.7,2.8,2.7,2.8c1.4,0,2.1,-2.8,3.5,-2.8h3" class="g8_23"/>
</svg>