<?xml version="1.0" encoding="UTF-8" standalone="no"?>
<!DOCTYPE svg PUBLIC "-//W3C//DTD SVG 1.1//EN"
"http://www.w3.org/Graphics/SVG/1.1/DTD/svg11.dtd">
<svg viewBox="0 0 1286 909" version="1.1" xmlns="http://www.w3.org/2000/svg" xmlns:xlink="http://www.w3.org/1999/xlink">
<defs>
<style type="text/css"><![CDATA[
.g0_220{
fill: none;
stroke: #000000;
stroke-width: 0.73;
stroke-linecap: butt;
stroke-linejoin: miter;
}
.g1_220{
fill: #B3E9FA;
}
.g2_220{
fill: none;
stroke: #02B5EE;
stroke-width: 1.262;
stroke-linecap: butt;
stroke-linejoin: miter;
}
.g3_220{
fill: none;
stroke: #5EE200;
stroke-width: 1.262;
stroke-linecap: butt;
stroke-linejoin: miter;
}
.g4_220{
fill: none;
stroke: #02B5EE;
stroke-width: 0.73;
stroke-linecap: butt;
stroke-linejoin: miter;
}
]]></style>
</defs>
<path d="M193,83.4h900.3M193,210.6H812.9m-619.9,0H812.9M503.2,240.2V211m0,58.5V240.2m0,114.3v-85" class="g0_220"/>
<path d="M579.4,304.7V292.5c0,-2.9,2.3,-5.2,5.2,-5.2h49.6c2.9,0,5.2,2.3,5.2,5.2v12.2c0,2.9,-2.3,5.2,-5.2,5.2H584.6c-2.9,0,-5.2,-2.3,-5.2,-5.2Z" class="g1_220"/>
<path d="M576.8,330.5H642" class="g2_220"/>
<path d="M652.5,330.5H802" class="g3_220"/>
<path d="M503.2,383.7V354.5m0,58.4V383.7m0,114.3V412.9" class="g0_220"/>
<path d="M516.1,474H638.5" class="g2_220"/>
<path d="M503.2,527.2V498m0,102.2v-73" class="g0_220"/>
<path d="M683.8,586.4H802" class="g4_220"/>
<path d="M503.2,629.5V600.2M193,629.8H812.9m-619.9,0H812.9" class="g0_220"/>
</svg>