<?xml version="1.0" encoding="UTF-8" standalone="no"?>
<!DOCTYPE svg PUBLIC "-//W3C//DTD SVG 1.1//EN"
"http://www.w3.org/Graphics/SVG/1.1/DTD/svg11.dtd">
<svg viewBox="0 0 909 1286" version="1.1" xmlns="http://www.w3.org/2000/svg" xmlns:xlink="http://www.w3.org/1999/xlink">
<defs>
<style type="text/css"><![CDATA[
.g0_3{
fill: none;
stroke: #000000;
stroke-width: 0.73;
stroke-linecap: butt;
stroke-linejoin: miter;
}
.g1_3{
fill: none;
stroke: #5EE200;
stroke-width: 0.73;
stroke-linecap: butt;
stroke-linejoin: miter;
}
.g2_3{
fill: none;
stroke: #999999;
stroke-width: 2.191;
stroke-linecap: butt;
stroke-linejoin: miter;
}
]]></style>
</defs>
<path d="M116.9,179.9H659.1M285.3,209.5V180.3M201,252.2l31.2,18.7m0,36.7V271m-62.5,36.6h62.5m-62.5,0V271M201,252.2l-31.3,18.7m32.4,-11l23,13.7M285.3,379V209.5M443.9,354l10.6,-32.4" class="g0_3"/>
<path d="M448.9,307.6L420,286.6m31,18l-28.9,-21" class="g1_3"/>
<path d="M405.6,285.1l-28.9,21m-4.5,15.5L382.7,354m49.6,9.8H394.4M285.3,408.2V379m0,58.4V408.2m0,58.5V437.4m0,58.5V466.7m0,58.4V495.9m0,58.4V525.1" class="g0_3"/>
<path d="M347.8,548.4L332.7,534.1m0,14.3l15.1,-14.3" class="g2_3"/>
<path d="M285.3,583.6V554.3m0,58.5V583.6M116.9,613.1H659.1M285.3,642.7V613.5m-84.3,72l31.2,18.6m0,36.7V704.3M201,759.6L232.2,741M201,759.6L169.7,741m0,-.2V704.3M201,685.5l-31.3,18.6m32.4,-11l23,13.7m-23,45.2l23,-13.7m-49.3,-2.2V709M285.3,812.2V642.7" class="g0_3"/>
<path d="M423.5,790.9l31.6,-18.2m-29.8,21.4l31.6,-18.3" class="g1_3"/>
<path d="M463.9,759.6V724.9" class="g0_3"/>
<path d="M455.1,711.9L423.5,693.6m33.4,15.1L425.3,690.5" class="g1_3"/>
<path d="M408.5,692.1l-31.6,18.2" class="g0_3"/>
<path d="M370.8,724.9v34.7m-3.6,-34.7v34.7" class="g1_3"/>
<path d="M408.5,792.5L376.9,774.3m-91.6,67.2V812.2m0,58.5V841.5m0,58.4V870.7m0,58.4V899.9m0,58.5V929.1m0,58.5V958.4m0,58.4V987.6m0,58.4v-29.2m0,58.5V1046m-168.4,29.6H659.1" class="g0_3"/>
</svg>