<?xml version="1.0" encoding="UTF-8" standalone="no"?>
<!DOCTYPE svg PUBLIC "-//W3C//DTD SVG 1.1//EN"
"http://www.w3.org/Graphics/SVG/1.1/DTD/svg11.dtd">
<svg viewBox="0 0 1286 909" version="1.1" xmlns="http://www.w3.org/2000/svg" xmlns:xlink="http://www.w3.org/1999/xlink">
<defs>
<style type="text/css"><![CDATA[
.g0_370{
fill: none;
stroke: #000000;
stroke-width: 0.73;
stroke-linecap: butt;
stroke-linejoin: miter;
}
.g1_370{
fill: none;
stroke: #02B5EE;
stroke-width: 1.262;
stroke-linecap: butt;
stroke-linejoin: miter;
}
.g2_370{
fill: none;
stroke: #02B5EE;
stroke-width: 0.73;
stroke-linecap: butt;
stroke-linejoin: miter;
}
]]></style>
</defs>
<path d="M193,83.4h900.3M193,210.6h807.1m-807.1,0h807.1M596,240.2V211m0,58.5V240.2m0,114.3v-85" class="g0_370"/>
<path d="M675.8,330.5H755" class="g1_370"/>
<path d="M596,383.7V354.5m0,102.3V383.7" class="g0_370"/>
<path d="M955.3,442.9h33.8" class="g2_370"/>
<path d="M596,486V456.8m0,58.4V486m0,114.2v-85" class="g0_370"/>
<path d="M705,576.2h50" class="g1_370"/>
<path d="M596,629.5V600.2m0,102.3v-73" class="g0_370"/>
<path d="M904.7,688.6h84.4" class="g2_370"/>
<path d="M596,731.7V702.5m0,58.5V731.7M193,761.3h807.1m-807.1,0h807.1" class="g0_370"/>
</svg>