<?xml version="1.0" encoding="UTF-8" standalone="no"?>
<!DOCTYPE svg PUBLIC "-//W3C//DTD SVG 1.1//EN"
"http://www.w3.org/Graphics/SVG/1.1/DTD/svg11.dtd">
<svg viewBox="0 0 1286 909" version="1.1" xmlns="http://www.w3.org/2000/svg" xmlns:xlink="http://www.w3.org/1999/xlink">
<defs>
<style type="text/css"><![CDATA[
.g0_937{
fill: none;
stroke: #000000;
stroke-width: 0.73;
stroke-linecap: butt;
stroke-linejoin: miter;
}
.g1_937{
fill: #B3E9FA;
}
.g2_937{
fill: none;
stroke: #02B5EE;
stroke-width: 1.262;
stroke-linecap: butt;
stroke-linejoin: miter;
}
.g3_937{
fill: none;
stroke: #5EE200;
stroke-width: 1.262;
stroke-linecap: butt;
stroke-linejoin: miter;
}
.g4_937{
fill: none;
stroke: #02B5EE;
stroke-width: 0.73;
stroke-linecap: butt;
stroke-linejoin: miter;
}
]]></style>
</defs>
<path d="M193,83.4h900.3M193,111.6H992.6m-799.6,0H992.6M547.9,141.2V112m0,60.6V141.2m0,60.6V172.6m0,58.4V201.8m0,114.2V231" class="g0_937"/>
<path d="M797.7,266.3V254.1c0,-2.9,2.4,-5.2,5.2,-5.2h99c2.8,0,5.2,2.3,5.2,5.2v12.2c0,2.8,-2.4,5.2,-5.2,5.2h-99c-2.8,0,-5.2,-2.4,-5.2,-5.2Z" class="g1_937"/>
<path d="M795.1,292H909.7" class="g2_937"/>
<path d="M920.2,292h61.4" class="g3_937"/>
<path d="M547.9,345.3V316m0,58.5V345.3m0,114.2v-85" class="g0_937"/>
<path d="M726.2,435.5h91.9" class="g2_937"/>
<path d="M547.9,488.7V459.5m0,102.3V488.7" class="g0_937"/>
<path d="M931,547.9h50.6" class="g4_937"/>
<path d="M547.9,593.1V561.8m0,60.5V593.1m0,58.5V622.3m0,58.5V651.6M193,681.2H992.6m-799.6,0H992.6" class="g0_937"/>
</svg>