<?xml version="1.0" encoding="UTF-8" standalone="no"?>
<!DOCTYPE svg PUBLIC "-//W3C//DTD SVG 1.1//EN"
"http://www.w3.org/Graphics/SVG/1.1/DTD/svg11.dtd">
<svg viewBox="0 0 1286 909" version="1.1" xmlns="http://www.w3.org/2000/svg" xmlns:xlink="http://www.w3.org/1999/xlink">
<defs>
<style type="text/css"><![CDATA[
.g0_1174{
fill: none;
stroke: #000000;
stroke-width: 0.73;
stroke-linecap: butt;
stroke-linejoin: miter;
}
.g1_1174{
fill: none;
stroke: #000000;
stroke-width: 0.657;
stroke-linecap: butt;
stroke-linejoin: miter;
}
.g2_1174{
fill: #FDE8E9;
}
]]></style>
</defs>
<path d="M193,83.4h900.3" class="g0_1174"/>
<path d="M208.3,427.8H485.5M208.3,454.4V428.1m129.2,26.3V428.1m148,26.3V428.1M208.3,481.5V454.4m129.2,27.1V454.4" class="g1_1174"/>
<path d="M347.3,478.6h81.5v-21H347.3v21Z" class="g2_1174"/>
<path d="M485.5,481.5V454.4M208.3,507.8V481.5m129.2,26.3V481.5m148,26.3V481.5M208.3,534.1V507.8m129.2,26.3V507.8m148,26.3V507.8M208.3,565.3V534.1m129.2,31.2V534.1" class="g1_1174"/>
<path d="M347.3,565.3h49.3V534.1H347.3v31.2Z" class="g2_1174"/>
<path d="M485.5,565.3V534.1M208.3,591.6V565.3m129.2,26.3V565.3m148,26.3V565.3M208.3,617.9V591.6m129.2,26.3V591.6m148,26.3V591.6M208.3,647.3V617.9m129.2,29.4V617.9" class="g1_1174"/>
<path d="M347.3,644.3h81.3V617.9H347.3v26.4Z" class="g2_1174"/>
<path d="M485.5,647.3V617.9M208.3,673.6V647.3m129.2,26.3V647.3m148,26.3V647.3M208.3,699.9V673.6m129.2,26.3V673.6m148,26.3V673.6M208.3,731V699.9M337.5,731V699.9" class="g1_1174"/>
<path d="M347.3,731H475.6V699.9H347.3V731Z" class="g2_1174"/>
<path d="M485.5,731V699.9M208.3,757.3V731m129.2,26.3V731m148,26.3V731M208.3,783.6V757.3m129.2,26.3V757.3m148,26.3V757.3M208.3,812.6v-29m129.2,29v-29" class="g1_1174"/>
<path d="M347.3,812.6h98.8V786.9H347.3v25.7Z" class="g2_1174"/>
<path d="M485.5,812.6v-29M208.3,838.9V812.6m129.2,26.3V812.6m148,26.3V812.6M208.3,839.2H485.5M505.2,426.4H787.6M505.2,453.1V426.8m151.1,26.3V426.8m131.3,26.3V426.8M505.2,482.4V453.1m151.1,29.3V453.1" class="g1_1174"/>
<path d="M666.1,479.5h84.6V453.1H666.1v26.4Z" class="g2_1174"/>
<path d="M787.6,482.4V453.1M505.2,508.7V482.4m151.1,26.3V482.4m131.3,26.3V482.4M505.2,535V508.7M656.3,535V508.7M787.6,535V508.7M505.2,566.2V535m151.1,31.2V535" class="g1_1174"/>
<path d="M666.1,566.2h60V535h-60v31.2Z" class="g2_1174"/>
<path d="M787.6,566.2V535M505.2,592.5V566.2m151.1,26.3V566.2m131.3,26.3V566.2M505.2,618.8V592.5m151.1,26.3V592.5m131.3,26.3V592.5M505.2,648.2V618.8m151.1,29.4V618.8" class="g1_1174"/>
<path d="M666.1,645.2h63.8V618.8H666.1v26.4Z" class="g2_1174"/>
<path d="M787.6,648.2V618.8M505.2,674.5V648.2m151.1,26.3V648.2m131.3,26.3V648.2M505.2,700.8V674.5m151.1,26.3V674.5m131.3,26.3V674.5M505.2,730.2V700.8m151.1,29.4V700.8" class="g1_1174"/>
<path d="M666.1,727.2H777.7V700.8H666.1v26.4Z" class="g2_1174"/>
<path d="M787.6,730.2V700.8M505.2,756.5V730.2m151.1,26.3V730.2m131.3,26.3V730.2M505.2,782.8V756.5m151.1,26.3V756.5m131.3,26.3V756.5M505.2,813.9V782.8m151.1,31.1V782.8" class="g1_1174"/>
<path d="M666.1,813.9H764V782.8H666.1v31.1Z" class="g2_1174"/>
<path d="M787.6,813.9V782.8M505.2,840.2V813.9m151.1,26.3V813.9m131.3,26.3V813.9M505.2,840.5H787.6M807.3,427.8h275.5M807.3,454.4V428.1m151,26.3V428.1m124.5,26.3V428.1M807.3,483.8V454.4m151,29.4V454.4" class="g1_1174"/>
<path d="M968.2,480.8h48V454.4h-48v26.4Z" class="g2_1174"/>
<path d="M1082.8,483.8V454.4M807.3,510.1V483.8m151,26.3V483.8m124.5,26.3V483.8M807.3,536.4V510.1m151,26.3V510.1m124.5,26.3V510.1M807.3,567.5V536.4m151,31.1V536.4" class="g1_1174"/>
<path d="M968.2,567.5h74.7V536.4H968.2v31.1Z" class="g2_1174"/>
<path d="M1082.8,567.5V536.4M807.3,593.8V567.5m151,26.3V567.5m124.5,26.3V567.5M807.3,620.1V593.8m151,26.3V593.8m124.5,26.3V593.8M807.3,649.5V620.1m151,29.4V620.1" class="g1_1174"/>
<path d="M968.2,646.6h51.5V620.1H968.2v26.5Z" class="g2_1174"/>
<path d="M1082.8,649.5V620.1M807.3,675.8V649.5m151,26.3V649.5m124.5,26.3V649.5M807.3,702.1V675.8m151,26.3V675.8m124.5,26.3V675.8M807.3,731V702.1m151,28.9V702.1" class="g1_1174"/>
<path d="M968.2,731h76.5V705.3H968.2V731Z" class="g2_1174"/>
<path d="M1082.8,731V702.1M807.3,757.3V731m151,26.3V731m124.5,26.3V731M807.3,783.6V757.3m151,26.3V757.3m124.5,26.3V757.3M807.3,812.6v-29m151,29v-29" class="g1_1174"/>
<path d="M968.2,812.6h104.7V786.9H968.2v25.7Z" class="g2_1174"/>
<path d="M1082.8,812.6v-29M807.3,838.9V812.6m151,26.3V812.6m124.5,26.3V812.6M807.3,839.2h275.5" class="g1_1174"/>
</svg>