<?xml version="1.0" encoding="UTF-8" standalone="no"?>
<!DOCTYPE svg PUBLIC "-//W3C//DTD SVG 1.1//EN"
"http://www.w3.org/Graphics/SVG/1.1/DTD/svg11.dtd">
<svg viewBox="0 0 1286 909" version="1.1" xmlns="http://www.w3.org/2000/svg" xmlns:xlink="http://www.w3.org/1999/xlink">
<defs>
<style type="text/css"><![CDATA[
.g0_534{
fill: none;
stroke: #000000;
stroke-width: 0.73;
stroke-linecap: butt;
stroke-linejoin: miter;
}
.g1_534{
fill: #B3E9FA;
}
.g2_534{
fill: none;
stroke: #02B5EE;
stroke-width: 1.262;
stroke-linecap: butt;
stroke-linejoin: miter;
}
.g3_534{
fill: none;
stroke: #5EE200;
stroke-width: 1.262;
stroke-linecap: butt;
stroke-linejoin: miter;
}
]]></style>
</defs>
<path d="M193,83.4h900.3M193,111.6H882.6m-689.6,0H882.6M526.3,141.2V112m0,114.3V141.2" class="g0_534"/>
<path d="M599,182.8V164.3c0,-2.9,2.3,-5.2,5.2,-5.2h59.9c2.8,0,5.2,2.3,5.2,5.2v18.5c0,2.9,-2.4,5.2,-5.2,5.2H604.2c-2.9,0,-5.2,-2.3,-5.2,-5.2Z" class="g1_534"/>
<path d="M596.4,202.3h75.5" class="g2_534"/>
<path d="M682.4,202.3H871.6" class="g3_534"/>
<path d="M526.3,255.5V226.3M193,255.9H882.6m-689.6,0H882.6" class="g0_534"/>
</svg>