<?xml version="1.0" encoding="UTF-8" standalone="no"?>
<!DOCTYPE svg PUBLIC "-//W3C//DTD SVG 1.1//EN"
"http://www.w3.org/Graphics/SVG/1.1/DTD/svg11.dtd">
<svg viewBox="0 0 909 1286" version="1.1" xmlns="http://www.w3.org/2000/svg" xmlns:xlink="http://www.w3.org/1999/xlink">
<defs>
<style type="text/css"><![CDATA[
.g0_47{
fill: none;
stroke: #000000;
stroke-width: 0.73;
stroke-linecap: butt;
stroke-linejoin: miter;
}
.g1_47{
fill: #FDE8E9;
}
]]></style>
</defs>
<path d="M116.9,159.9H792.5" class="g0_47"/>
<path d="M336.5,321.8h61.6V293.9H336.5v27.9Z" class="g1_47"/>
<path d="M415,321.8h78.5V293.9H415v27.9Z" class="g1_47"/>
<path d="M252.1,438.6H364.3V410.8H252.1v27.8Z" class="g1_47"/>
<path d="M381.2,436.6h52.6V412.9H381.2v23.7Z" class="g1_47"/>
<path d="M450.7,436.6H601.1V412.9H450.7v23.7Z" class="g1_47"/>
<path d="M420.9,512.2h95.4V484.3H420.9v27.9Z" class="g1_47"/>
<path d="M437.8,541.8h78.5V514H437.8v27.8Z" class="g1_47"/>
<path d="M454.7,688h44.8V660.1H454.7V688Z" class="g1_47"/>
<path d="M516.3,688h78.6V660.1H516.3V688Z" class="g1_47"/>
<path d="M454.7,717.6h44.8V689.8H454.7v27.8Z" class="g1_47"/>
<path d="M516.3,717.6h44.8V689.8H516.3v27.8Z" class="g1_47"/>
<path d="M133.8,966H279.9V938.2H133.8V966Z" class="g1_47"/>
</svg>