<?xml version="1.0" encoding="UTF-8" standalone="no"?>
<!DOCTYPE svg PUBLIC "-//W3C//DTD SVG 1.1//EN"
"http://www.w3.org/Graphics/SVG/1.1/DTD/svg11.dtd">
<svg viewBox="0 0 909 1286" version="1.1" xmlns="http://www.w3.org/2000/svg" xmlns:xlink="http://www.w3.org/1999/xlink">
<defs>
<style type="text/css"><![CDATA[
.g0_15{
fill: none;
stroke: #000000;
stroke-width: 0.73;
stroke-linecap: butt;
stroke-linejoin: miter;
}
.g1_15{
fill: #FDE8E9;
}
]]></style>
</defs>
<path d="M116.9,159.9H792.5M143.1,309.3H766.3M143.5,329.8V309.7m63.2,20.1V309.7m103.7,20.1V309.7m90.2,20.1V309.7m103.7,20.1V309.7m90.2,20.1V309.7m171.4,20.1V309.7M143.5,349.9V329.8m63.2,20.1V329.8m103.7,20.1V329.8m90.2,20.1V329.8m103.7,20.1V329.8m90.2,20.1V329.8m171.4,20.1V329.8M143.1,350.2H766.3M143.5,375.1V350.6m63.2,24.5V350.6" class="g0_15"/>
<path d="M232.8,375.1h24.5V350.6H232.8v24.5Z" class="g1_15"/>
<path d="M310.4,375.1V350.6" class="g0_15"/>
<path d="M346.2,373.5h18.6V352.3H346.2v21.2Z" class="g1_15"/>
<path d="M400.6,375.1V350.6" class="g0_15"/>
<path d="M422.9,373.5h18.6V352.3H422.9v21.2Z" class="g1_15"/>
<path d="M504.3,375.1V350.6" class="g0_15"/>
<path d="M516,373.5h26.3V352.3H516v21.2Z" class="g1_15"/>
<path d="M594.5,375.1V350.6m171.4,24.5V350.6M143.1,375.4H766.3M143.5,400.3V375.8m63.2,24.5V375.8" class="g0_15"/>
<path d="M232.8,400.3h24.5V375.8H232.8v24.5Z" class="g1_15"/>
<path d="M310.4,400.3V375.8" class="g0_15"/>
<path d="M342.3,398.7h26.4V377.5H342.3v21.2Z" class="g1_15"/>
<path d="M400.6,400.3V375.8" class="g0_15"/>
<path d="M419,398.7h26.3V377.5H419v21.2Z" class="g1_15"/>
<path d="M504.3,400.3V375.8" class="g0_15"/>
<path d="M516,398.7h26.3V377.5H516v21.2Z" class="g1_15"/>
<path d="M594.5,400.3V375.8m171.4,24.5V375.8M143.1,400.6H766.3M143.5,425.5V401m63.2,24.5V401" class="g0_15"/>
<path d="M232.8,425.5h24.5V401H232.8v24.5Z" class="g1_15"/>
<path d="M310.4,425.5V401" class="g0_15"/>
<path d="M338.5,423.9h34V402.7h-34v21.2Z" class="g1_15"/>
<path d="M400.6,425.5V401" class="g0_15"/>
<path d="M419,423.9h26.3V402.7H419v21.2Z" class="g1_15"/>
<path d="M504.3,425.5V401" class="g0_15"/>
<path d="M519.8,423.9h18.7V402.7H519.8v21.2Z" class="g1_15"/>
<path d="M594.5,425.5V401m171.4,24.5V401M143.1,425.9H766.3" class="g0_15"/>
<path d="M372.1,508.9H552V481H372.1v27.9Z" class="g1_15"/>
<path d="M372.1,538.5H585.7V510.7H372.1v27.8Z" class="g1_15"/>
<path d="M695.8,624.2h20.5V600.4H695.8v23.8Z" class="g1_15"/>
<path d="M116.9,728.5H306.7V700.6H116.9v27.9Z" class="g1_15"/>
<path d="M560.1,755.7H628V731.9H560.1v23.8Z" class="g1_15"/>
<path d="M636.5,759.9h457.3v-28H636.5v28Z" class="g1_15"/>
<path d="M463.1,785.5h42.2V761.7H463.1v23.8Z" class="g1_15"/>
<path d="M522.2,785.5H758.7V761.7H522.2v23.8Z" class="g1_15"/>
<path d="M116.9,875.2H323.6V847.3H116.9v27.9Z" class="g1_15"/>
<path d="M234.7,901.1H585.5M235.1,930.7V901.5m73.3,29.2V901.5m276.7,29.2V901.5M234.7,931H585.5M235.1,960.6V931.4m73.3,29.2V931.4" class="g0_15"/>
<path d="M338.9,957.3h70.6V933.6H338.9v23.7Z" class="g1_15"/>
<path d="M426.4,957.3H554.6V933.6H426.4v23.7Z" class="g1_15"/>
<path d="M585.1,960.6V931.4M234.7,961H585.5M235.1,990.6V961.4m73.3,29.2V961.4" class="g0_15"/>
<path d="M329.3,987.3h89.8V963.6H329.3v23.7Z" class="g1_15"/>
<path d="M436,987.3H564.2V963.6H436v23.7Z" class="g1_15"/>
<path d="M585.1,990.6V961.4M234.7,991H585.5m-350.4,29.5V991.3m73.3,29.2V991.3" class="g0_15"/>
<path d="M319.7,1017.3h99.4V993.5H319.7v23.8Z" class="g1_15"/>
<path d="M436,1017.3H573.8V993.5H436v23.8Z" class="g1_15"/>
<path d="M585.1,1020.5V991.3m-350.4,29.6H585.5" class="g0_15"/>
</svg>