<?xml version="1.0" encoding="UTF-8" standalone="no"?>
<!DOCTYPE svg PUBLIC "-//W3C//DTD SVG 1.1//EN"
"http://www.w3.org/Graphics/SVG/1.1/DTD/svg11.dtd">
<svg viewBox="0 0 1286 909" version="1.1" xmlns="http://www.w3.org/2000/svg" xmlns:xlink="http://www.w3.org/1999/xlink">
<defs>
<style type="text/css"><![CDATA[
.g0_606{
fill: none;
stroke: #000000;
stroke-width: 0.73;
stroke-linecap: butt;
stroke-linejoin: miter;
}
.g1_606{
fill: #FFFFFF;
}
.g2_606{
fill: #E6CDEE;
}
.g3_606{
fill: #FFF7A4;
}
.g4_606{
fill: none;
stroke: #F81693;
stroke-width: 1.051;
stroke-linecap: butt;
stroke-linejoin: miter;
}
.g5_606{
fill: none;
stroke: #02B5EE;
stroke-width: 1.051;
stroke-linecap: butt;
stroke-linejoin: miter;
}
.g6_606{
fill: none;
stroke: #FFA313;
stroke-width: 1.051;
stroke-linecap: butt;
stroke-linejoin: miter;
}
.g7_606{
fill: none;
stroke: #8007AC;
stroke-width: 1.461;
stroke-linecap: butt;
stroke-linejoin: miter;
}
.g8_606{
fill: none;
stroke: #8007AC;
stroke-width: 1.157;
stroke-linecap: round;
stroke-linejoin: round;
}
.g9_606{
fill: none;
stroke: #FFA313;
stroke-width: 1.461;
stroke-linecap: butt;
stroke-linejoin: miter;
}
.ga_606{
fill: none;
stroke: #FFA313;
stroke-width: 1.131;
stroke-linecap: round;
stroke-linejoin: round;
}
.gb_606{
fill: none;
stroke: #F81693;
stroke-width: 0.73;
stroke-linecap: butt;
stroke-linejoin: miter;
}
.gc_606{
fill: none;
stroke: #FFA313;
stroke-width: 0.73;
stroke-linecap: butt;
stroke-linejoin: miter;
}
.gd_606{
fill: none;
stroke: #02B5EE;
stroke-width: 0.73;
stroke-linecap: butt;
stroke-linejoin: miter;
}
.ge_606{
fill: none;
stroke: #FFA313;
stroke-width: 1.168;
stroke-linecap: round;
stroke-linejoin: round;
}
]]></style>
</defs>
<path d="M193,83.4h900.3M193,111.6h923.2m-923.2,0h923.2M511.9,141.2V112m0,58.5V141.2m0,84V170.5" class="g0_606"/>
<path d="M653.7,217.4V178.3c0,-2.9,2.3,-5.2,5.2,-5.2H688c2.8,0,5.2,2.3,5.2,5.2v39.1c0,2.9,-2.4,5.2,-5.2,5.2H658.9c-2.9,0,-5.2,-2.3,-5.2,-5.2Z" class="g1_606"/>
<path d="M707.1,217.4V178.3c0,-2.9,2.4,-5.2,5.2,-5.2h29.3c2.8,0,5.2,2.3,5.2,5.2v39.1c0,2.9,-2.4,5.2,-5.2,5.2H712.3c-2.8,0,-5.2,-2.3,-5.2,-5.2Z" class="g1_606"/>
<path d="M760.7,217.4V178.3c0,-2.9,2.4,-5.2,5.2,-5.2h91.8c2.8,0,5.2,2.3,5.2,5.2v39.1c0,2.9,-2.4,5.2,-5.2,5.2H765.9c-2.8,0,-5.2,-2.3,-5.2,-5.2Z" class="g2_606"/>
<path d="M876.8,217.4V178.3c0,-2.9,2.3,-5.2,5.2,-5.2h215.4c2.9,0,5.2,2.3,5.2,5.2v39.1c0,2.9,-2.3,5.2,-5.2,5.2H882c-2.9,0,-5.2,-2.3,-5.2,-5.2Z" class="g3_606"/>
<path d="M511.9,254.5V225.2m0,109.5V254.5" class="g0_606"/>
<path d="M647.6,305V265.8c0,-2.8,2.3,-5.1,5.2,-5.1h29.1c2.9,0,5.2,2.3,5.2,5.1V305c0,2.9,-2.3,5.2,-5.2,5.2H652.8c-2.9,0,-5.2,-2.3,-5.2,-5.2Z" class="g1_606"/>
<path d="M645,314.8h53.4" class="g4_606"/>
<path d="M701,305V265.8c0,-2.8,2.4,-5.1,5.2,-5.1h29.3c2.9,0,5.2,2.3,5.2,5.1V305c0,2.9,-2.3,5.2,-5.2,5.2H706.2c-2.8,0,-5.2,-2.3,-5.2,-5.2Z" class="g1_606"/>
<path d="M698.4,314.8h44.9" class="g5_606"/>
<path d="M754.6,305V265.8c0,-2.8,2.4,-5.1,5.2,-5.1H975.3c2.8,0,5.2,2.3,5.2,5.1V305c0,2.9,-2.4,5.2,-5.2,5.2H759.8c-2.8,0,-5.2,-2.3,-5.2,-5.2Z" class="g3_606"/>
<path d="M752,314.8H983.1" class="g6_606"/>
<path d="M994.4,305V265.8c0,-2.8,2.3,-5.1,5.2,-5.1h91.7c2.9,0,5.2,2.3,5.2,5.1V305c0,2.9,-2.3,5.2,-5.2,5.2H999.6c-2.9,0,-5.2,-2.3,-5.2,-5.2Z" class="g2_606"/>
<path d="M813.1,225.4l232.4,32.7" class="g7_606"/>
<path d="M815.4,229.6c-.1,-1.5,-2.4,-3.9,-3,-4.3c.7,-.1,3.6,-1.9,4,-3.3" class="g8_606"/>
<path d="M988.5,225.6l-121,32.5" class="g9_606"/>
<path d="M984.7,222.6c.6,1.4,3.7,2.7,4.4,2.8c-.6,.4,-2.6,3.1,-2.4,4.6" class="ga_606"/>
<path d="M511.9,364.9V334.7m0,59.4V364.9m0,102.3V394.1" class="g0_606"/>
<path d="M522.9,453.3h34.4" class="gb_606"/>
<path d="M582.9,446.7V409.1c0,-2.9,2.3,-5.2,5.2,-5.2H714.8c2.9,0,5.2,2.3,5.2,5.2v37.6c0,2.9,-2.3,5.2,-5.2,5.2H588.1c-2.9,0,-5.2,-2.3,-5.2,-5.2Z" class="g2_606"/>
<path d="M748.2,446.7V409.1c0,-2.9,2.3,-5.2,5.2,-5.2h287.3c2.9,0,5.2,2.3,5.2,5.2v37.6c0,2.9,-2.3,5.2,-5.2,5.2H753.4c-2.9,0,-5.2,-2.3,-5.2,-5.2Z" class="g3_606"/>
<path d="M745.6,453.3h302.9" class="gc_606"/>
<path d="M1054.6,453.3h50.6" class="gd_606"/>
<path d="M511.9,496.4V467.2m0,58.4V496.4m0,82.5V525.6" class="g0_606"/>
<path d="M915.5,571.1V533.4c0,-2.8,2.4,-5.2,5.2,-5.2H1013c2.9,0,5.2,2.4,5.2,5.2v37.7c0,2.9,-2.3,5.2,-5.2,5.2H920.7c-2.8,0,-5.2,-2.3,-5.2,-5.2Z" class="g3_606"/>
<path d="M511.9,660.9v-82" class="g0_606"/>
<path d="M835.5,629.5V595.9c0,-2.9,2.3,-5.2,5.2,-5.2h88.5c2.9,0,5.2,2.3,5.2,5.2v33.6c0,2.9,-2.3,5.2,-5.2,5.2H840.7c-2.9,0,-5.2,-2.3,-5.2,-5.2Z" class="g3_606"/>
<path d="M832.9,638.1H943.1" class="gc_606"/>
<path d="M949.2,638.1h13.9" class="gb_606"/>
<path d="M971.8,629.5V595.9c0,-2.9,2.3,-5.2,5.2,-5.2h26.3c2.9,0,5.2,2.3,5.2,5.2v33.6c0,2.9,-2.3,5.2,-5.2,5.2H977c-2.9,0,-5.2,-2.3,-5.2,-5.2Z" class="g1_606"/>
<path d="M969.2,638.1h48" class="gd_606"/>
<path d="M884.9,586.8V575.1h139.2v37.6" class="g9_606"/>
<path d="M888.7,584c-1.4,.2,-3.5,2.8,-3.8,3.5c-.2,-.7,-2.3,-3.3,-3.7,-3.5" class="ge_606"/>
<path d="M511.9,690.1V660.9M193,690.5h923.2m-923.2,0h923.2" class="g0_606"/>
</svg>