<?xml version="1.0" encoding="UTF-8" standalone="no"?>
<!DOCTYPE svg PUBLIC "-//W3C//DTD SVG 1.1//EN"
"http://www.w3.org/Graphics/SVG/1.1/DTD/svg11.dtd">
<svg viewBox="0 0 1286 909" version="1.1" xmlns="http://www.w3.org/2000/svg" xmlns:xlink="http://www.w3.org/1999/xlink">
<defs>
<style type="text/css"><![CDATA[
.g0_355{
fill: none;
stroke: #000000;
stroke-width: 0.73;
stroke-linecap: butt;
stroke-linejoin: miter;
}
.g1_355{
fill: none;
stroke: #02B5EE;
stroke-width: 1.262;
stroke-linecap: butt;
stroke-linejoin: miter;
}
.g2_355{
fill: none;
stroke: #02B5EE;
stroke-width: 0.73;
stroke-linecap: butt;
stroke-linejoin: miter;
}
.g3_355{
fill: #B3E9FA;
}
.g4_355{
fill: none;
stroke: #5EE200;
stroke-width: 1.262;
stroke-linecap: butt;
stroke-linejoin: miter;
}
]]></style>
</defs>
<path d="M193,83.4h900.3M193,210.6H848.2m-655.2,0H848.2m-317,29.6V211m0,58.5V240.2m0,114.3v-85" class="g0_355"/>
<path d="M615.3,330.5h76.4" class="g1_355"/>
<path d="M531.2,383.7V354.5m0,102.3V383.7" class="g0_355"/>
<path d="M752.8,442.9h84.5" class="g2_355"/>
<path d="M531.2,486V456.8m0,58.4V486m0,114.2v-85" class="g0_355"/>
<path d="M611.8,556.8V538.2c0,-2.8,2.3,-5.1,5.2,-5.1H745.9c2.8,0,5.2,2.3,5.2,5.1v18.6c0,2.8,-2.4,5.2,-5.2,5.2H617c-2.9,0,-5.2,-2.4,-5.2,-5.2Z" class="g3_355"/>
<path d="M609.2,576.2H753.7" class="g1_355"/>
<path d="M764.2,576.2h73.1" class="g4_355"/>
<path d="M531.2,629.5V600.2m0,58.5V629.5m0,58.4V658.7M193,688.3H848.2m-655.2,0H848.2" class="g0_355"/>
</svg>