<?xml version="1.0" encoding="UTF-8" standalone="no"?>
<!DOCTYPE svg PUBLIC "-//W3C//DTD SVG 1.1//EN"
"http://www.w3.org/Graphics/SVG/1.1/DTD/svg11.dtd">
<svg viewBox="0 0 909 1286" version="1.1" xmlns="http://www.w3.org/2000/svg" xmlns:xlink="http://www.w3.org/1999/xlink">
<defs>
<style type="text/css"><![CDATA[
.g0_21{
fill: none;
stroke: #000000;
stroke-width: 0.73;
stroke-linecap: butt;
stroke-linejoin: miter;
}
.g1_21{
fill: #FFCCCC;
}
.g2_21{
fill: #C6EAFA;
}
]]></style>
</defs>
<path d="M116.9,159.9H792.5" class="g0_21"/>
<path d="M404.7,275v-9c0,-2.9,2.3,-5.2,5.1,-5.2H512c2.9,0,5.2,2.3,5.2,5.2v9c0,2.8,-2.3,5.2,-5.2,5.2H409.8c-2.8,0,-5.1,-2.4,-5.1,-5.2Z" class="g1_21"/>
<path d="M536.6,275v-9c0,-2.9,2.4,-5.2,5.2,-5.2h34.7c2.9,0,5.2,2.3,5.2,5.2v9c0,2.8,-2.3,5.2,-5.2,5.2H541.8c-2.8,0,-5.2,-2.4,-5.2,-5.2Z" class="g2_21"/>
<path d="M422.6,396.6V338.5c0,-2.9,2.4,-5.2,5.2,-5.2h42.1c2.9,0,5.2,2.3,5.2,5.2v58.1c0,2.8,-2.3,5.1,-5.2,5.1H427.8c-2.8,0,-5.2,-2.3,-5.2,-5.1Z" class="g1_21"/>
<path d="M502.6,364.6v-8.2c0,-2.9,2.3,-5.2,5.2,-5.2H525c2.9,0,5.2,2.3,5.2,5.2v8.2c0,2.8,-2.3,5.2,-5.2,5.2H507.8c-2.9,0,-5.2,-2.4,-5.2,-5.2Z" class="g2_21"/>
<path d="M422.6,649.7V591.6c0,-2.9,2.4,-5.2,5.2,-5.2h71.5c2.9,0,5.2,2.3,5.2,5.2v58.1c0,2.8,-2.3,5.2,-5.2,5.2H427.8c-2.8,0,-5.2,-2.4,-5.2,-5.2Z" class="g1_21"/>
<path d="M532,638.8V591.6c0,-2.9,2.4,-5.2,5.2,-5.2h43.7c2.8,0,5.2,2.3,5.2,5.2v47.2c0,2.9,-2.4,5.2,-5.2,5.2H537.2c-2.8,0,-5.2,-2.3,-5.2,-5.2Z" class="g2_21"/>
<path d="M208.5,741.6V683.5c0,-2.9,2.4,-5.2,5.2,-5.2h71.5c2.9,0,5.2,2.3,5.2,5.2v58.1c0,2.9,-2.3,5.2,-5.2,5.2H213.7c-2.8,0,-5.2,-2.3,-5.2,-5.2Z" class="g1_21"/>
</svg>