<?xml version="1.0" encoding="UTF-8" standalone="no"?>
<!DOCTYPE svg PUBLIC "-//W3C//DTD SVG 1.1//EN"
"http://www.w3.org/Graphics/SVG/1.1/DTD/svg11.dtd">
<svg viewBox="0 0 1286 909" version="1.1" xmlns="http://www.w3.org/2000/svg" xmlns:xlink="http://www.w3.org/1999/xlink">
<defs>
<style type="text/css"><![CDATA[
.g0_1080{
fill: none;
stroke: #000000;
stroke-width: 0.73;
stroke-linecap: butt;
stroke-linejoin: miter;
}
.g1_1080{
fill: #C6EAFA;
}
.g2_1080{
fill: none;
stroke: #02B5EE;
stroke-width: 1.262;
stroke-linecap: butt;
stroke-linejoin: miter;
}
.g3_1080{
fill: none;
stroke: #5EE200;
stroke-width: 1.262;
stroke-linecap: butt;
stroke-linejoin: miter;
}
.g4_1080{
fill: none;
stroke: #5EE200;
stroke-width: 0.73;
stroke-linecap: butt;
stroke-linejoin: miter;
}
.g5_1080{
fill: none;
stroke: #02B5EE;
stroke-width: 0.73;
stroke-linecap: butt;
stroke-linejoin: miter;
}
]]></style>
</defs>
<path d="M193,83.4h900.3M193,111.6H899.1m-706.1,0H899.1M458.5,141.2V112m0,114.3V141.2" class="g0_1080"/>
<path d="M720.7,191.8V148.9c0,-2.8,2.3,-5.1,5.2,-5.1h86.2c2.9,0,5.2,2.3,5.2,5.1v42.9c0,2.9,-2.3,5.2,-5.2,5.2H725.9c-2.9,0,-5.2,-2.3,-5.2,-5.2Z" class="g1_1080"/>
<path d="M624.8,202.3H819.9" class="g2_1080"/>
<path d="M830.5,202.3h57.6" class="g3_1080"/>
<path d="M458.5,255.5V226.3m0,102.2v-73" class="g0_1080"/>
<path d="M629.7,314.7H730.1" class="g4_1080"/>
<path d="M736.1,314.7h152" class="g5_1080"/>
<path d="M458.5,357.8V328.5m0,58.5V357.8m0,58.4V387m0,114.2v-85" class="g0_1080"/>
<path d="M720.7,466.8V423.9c0,-2.8,2.3,-5.2,5.2,-5.2h86.2c2.9,0,5.2,2.4,5.2,5.2v42.9c0,2.9,-2.3,5.2,-5.2,5.2H725.9c-2.9,0,-5.2,-2.3,-5.2,-5.2Z" class="g1_1080"/>
<path d="M615,477.3H819.9" class="g2_1080"/>
<path d="M830.5,477.3h57.6" class="g3_1080"/>
<path d="M458.5,530.5V501.2m0,102.3v-73" class="g0_1080"/>
<path d="M680.3,589.6H780.7" class="g4_1080"/>
<path d="M786.8,589.6H888.1" class="g5_1080"/>
<path d="M458.5,632.7V603.5M193,633.1H899.1m-706.1,0H899.1" class="g0_1080"/>
</svg>