<?xml version="1.0" encoding="UTF-8" standalone="no"?>
<!DOCTYPE svg PUBLIC "-//W3C//DTD SVG 1.1//EN"
"http://www.w3.org/Graphics/SVG/1.1/DTD/svg11.dtd">
<svg viewBox="0 0 1286 909" version="1.1" xmlns="http://www.w3.org/2000/svg" xmlns:xlink="http://www.w3.org/1999/xlink">
<defs>
<style type="text/css"><![CDATA[
.g0_60{
fill: none;
stroke: #000000;
stroke-width: 0.73;
stroke-linecap: butt;
stroke-linejoin: miter;
}
.g1_60{
fill: none;
stroke: #5EE200;
stroke-width: 0.73;
stroke-linecap: butt;
stroke-linejoin: miter;
}
.g2_60{
fill: none;
stroke: #02B5EE;
stroke-width: 0.73;
stroke-linecap: butt;
stroke-linejoin: miter;
}
.g3_60{
fill: none;
stroke: #02B5EE;
stroke-width: 1.262;
stroke-linecap: butt;
stroke-linejoin: miter;
}
.g4_60{
fill: none;
stroke: #5EE200;
stroke-width: 1.262;
stroke-linecap: butt;
stroke-linejoin: miter;
}
.g5_60{
fill: #FFCCCC;
}
]]></style>
</defs>
<path d="M193,83.4h900.3M193,111.6H761.3m-568.3,0H761.3M433.6,141.2V112m0,102.3V141.2" class="g0_60"/>
<path d="M513.3,200.4h34.4" class="g1_60"/>
<path d="M682.8,200.4h67.6" class="g2_60"/>
<path d="M433.6,243.5V214.3m0,58.4V243.5m0,114.3V272.7" class="g0_60"/>
<path d="M548.7,333.8H621" class="g3_60"/>
<path d="M727.9,333.8h22.5" class="g4_60"/>
<path d="M433.6,387V357.8m0,102.3V387" class="g0_60"/>
<path d="M563.9,446.2h34.5" class="g1_60"/>
<path d="M699.7,446.2h50.7" class="g2_60"/>
<path d="M433.6,489.3V460.1m0,58.4V489.3m0,60.5V518.5m0,60.5V549.8m0,58.5V579m0,114.3v-85" class="g0_60"/>
<path d="M506.6,669.3h97.6" class="g3_60"/>
<path d="M614.8,669.3h22.1" class="g4_60"/>
<path d="M657.9,657.6h92.5V624.7H657.9v32.9Z" class="g5_60"/>
<path d="M433.6,722.5V693.3m0,58.4V722.5M193,752.1H761.3m-568.3,0H761.3" class="g0_60"/>
</svg>