<?xml version="1.0" encoding="UTF-8" standalone="no"?>
<!DOCTYPE svg PUBLIC "-//W3C//DTD SVG 1.1//EN"
"http://www.w3.org/Graphics/SVG/1.1/DTD/svg11.dtd">
<svg viewBox="0 0 1286 909" version="1.1" xmlns="http://www.w3.org/2000/svg" xmlns:xlink="http://www.w3.org/1999/xlink">
<defs>
<style type="text/css"><![CDATA[
.g0_217{
fill: none;
stroke: #000000;
stroke-width: 0.73;
stroke-linecap: butt;
stroke-linejoin: miter;
}
.g1_217{
fill: none;
stroke: #02B5EE;
stroke-width: 1.262;
stroke-linecap: butt;
stroke-linejoin: miter;
}
.g2_217{
fill: none;
stroke: #02B5EE;
stroke-width: 0.73;
stroke-linecap: butt;
stroke-linejoin: miter;
}
.g3_217{
fill: #B3E9FA;
}
.g4_217{
fill: none;
stroke: #5EE200;
stroke-width: 1.262;
stroke-linecap: butt;
stroke-linejoin: miter;
}
]]></style>
</defs>
<path d="M193,83.4h900.3M193,210.6H934m-741,0H934M584.9,240.2V211m0,58.5V240.2m0,114.3v-85" class="g0_217"/>
<path d="M668.1,330.5h35.8" class="g1_217"/>
<path d="M584.9,383.7V354.5m0,102.3V383.7" class="g0_217"/>
<path d="M889.2,442.9H923" class="g2_217"/>
<path d="M584.9,486V456.8m0,58.4V486m0,114.2v-85" class="g0_217"/>
<path d="M598.5,556.8V538.2c0,-2.8,2.3,-5.1,5.2,-5.1H715.6c2.9,0,5.2,2.3,5.2,5.1v18.6c0,2.8,-2.3,5.2,-5.2,5.2H603.7c-2.9,0,-5.2,-2.4,-5.2,-5.2Z" class="g3_217"/>
<path d="M595.9,576.2H723.4" class="g1_217"/>
<path d="M733.9,576.2H923" class="g4_217"/>
<path d="M584.9,629.5V600.2M193,629.8H934m-741,0H934" class="g0_217"/>
</svg>