<?xml version="1.0" encoding="UTF-8" standalone="no"?>
<!DOCTYPE svg PUBLIC "-//W3C//DTD SVG 1.1//EN"
"http://www.w3.org/Graphics/SVG/1.1/DTD/svg11.dtd">
<svg viewBox="0 0 909 1286" version="1.1" xmlns="http://www.w3.org/2000/svg" xmlns:xlink="http://www.w3.org/1999/xlink">
<defs>
<style type="text/css"><![CDATA[
.g0_22{
fill: none;
stroke: #000000;
stroke-width: 0.73;
stroke-linecap: butt;
stroke-linejoin: miter;
}
.g1_22{
fill: none;
stroke: #F81693;
stroke-width: 0.73;
stroke-linecap: butt;
stroke-linejoin: miter;
}
.g2_22{
fill: none;
stroke: #02B5EE;
stroke-width: 0.73;
stroke-linecap: butt;
stroke-linejoin: miter;
}
.g3_22{
fill: none;
stroke: #7F7F7F;
stroke-width: 0.73;
stroke-linecap: butt;
stroke-linejoin: miter;
}
.g4_22{
fill: none;
stroke: #F81693;
stroke-width: 1.461;
stroke-linecap: butt;
stroke-linejoin: miter;
}
.g5_22{
fill: #FFFFFF;
}
.g6_22{
fill: #FDE8E9;
}
.g7_22{
fill: none;
stroke: #FFFFFF;
stroke-width: 0.73;
stroke-linecap: butt;
stroke-linejoin: miter;
}
]]></style>
</defs>
<path d="M116.9,179.9H642.5M298.1,209.5V180.3M166.3,265l31.2,18.6m0,36.8V283.8m-31.2,55.4l31.2,-18.7m-31.2,18.7L135,320.5m0,-.1V283.8M166.3,265L135,283.6m32.4,-10.9l23,13.7m-23,45.1l23,-13.7M141,315.6v-27M166.3,265V239.4m85.3,41.9l-18.3,-11m-35.8,13.5l21.9,-13.1m78.7,75.4V209.5" class="g0_22"/>
<path d="M394.1,268.8l18.2,11m6.6,40.6V293m-31.2,46.2l31.2,-18.7m-31.2,18.7L356.4,320.5m0,-.1V283.8m24.9,-15l-24.9,14.8m37.7,-8.7l18.2,10.9m-23.5,45.7l23,-13.7m-49.3,-2.2v-27m25.2,-29.1V239.4" class="g1_22"/>
<path d="M474.8,279.1l-18.3,-11" class="g2_22"/>
<path d="M424.4,279.4l18.3,-10.9" class="g3_22"/>
<path d="M298.1,375.3V346.1m0,58.5V375.3" class="g0_22"/>
<path d="M364,403.1c1.4,0,2.1,-2.7,3.5,-2.7c1,0,1.8,1.3,2.7,2.7c.9,1.4,1.8,2.7,2.7,2.7c1,0,1.9,-1.3,2.8,-2.7c.9,-1.4,1.7,-2.7,2.7,-2.7c1.4,0,2.1,2.7,3.4,2.7h3.9" class="g4_22"/>
<path d="M298.1,433.8V404.6m0,104.9V433.8" class="g0_22"/>
<path d="M375.7,501.7V441.6c0,-2.9,2.4,-5.2,5.2,-5.2H552.7c2.8,0,5.2,2.3,5.2,5.2v60.1c0,2.9,-2.4,5.2,-5.2,5.2H380.9c-2.8,0,-5.2,-2.3,-5.2,-5.2Z" class="g5_22"/>
<path d="M428,532.7h77.6V516H428v16.7Z" class="g6_22"/>
<path d="M401.7,491.3H531.9V452H401.7v39.3Z" class="g6_22"/>
<path d="M298.1,538.7V509.5M116.9,539.1H642.5M298.1,568.7V539.5M166.3,624.2l31.2,18.6m0,36.8V643m-31.2,55.4l31.2,-18.7m-31.2,18.7L135,679.7m0,-.1V643m31.3,-18.8L135,642.8m32.4,-10.9l23,13.7m-23,45.1l23,-13.7M141,674.8v-27" class="g0_22"/>
<path d="M203.9,572.7l24.8,14.8m0,36.7V587.7M197.5,643l31.2,-18.6" class="g7_22"/>
<path d="M166.3,624.2V596.8m24.8,-24.1l-18.3,11m78.8,56.8l-18.3,-11M197.5,643l21.9,-13.1m78.7,75.4V568.7" class="g0_22"/>
<path d="M394.1,628l18.2,11m6.6,40.6V652.2m-31.2,46.2l31.2,-18.7m-31.2,18.7L356.4,679.7m0,-.1V643m24.9,-15l-24.9,14.8m37.7,-8.7L412.3,645m-23.5,45.7l23,-13.7m-49.3,-2.2v-27" class="g1_22"/>
<path d="M425.3,572.7l24.8,14.8m0,36.7V587.7M418.9,643l31.2,-18.6" class="g7_22"/>
<path d="M387.7,624.2V596.8" class="g3_22"/>
<path d="M412.5,572.7l-18.2,11m80.5,54.6l-18.3,-11" class="g2_22"/>
<path d="M424.4,638.6l18.3,-10.9" class="g3_22"/>
<path d="M298.1,734.5V705.3m0,58.5V734.5" class="g0_22"/>
<path d="M364,764.9c1.4,0,2.1,-2.7,3.5,-2.7c1,0,1.8,1.3,2.7,2.7c.9,1.4,1.8,2.8,2.7,2.8c1,0,1.9,-1.4,2.8,-2.8c.9,-1.4,1.7,-2.7,2.7,-2.7c1,0,1.9,1.3,2.8,2.7c.9,1.4,1.7,2.8,2.7,2.8c1,0,1.9,-1.4,2.7,-2.8c.9,-1.4,1.8,-2.7,2.8,-2.7c1,0,1.8,1.3,2.7,2.7c.9,1.4,1.8,2.8,2.8,2.8c1,0,1.8,-1.4,2.7,-2.8c.9,-1.4,1.8,-2.7,2.7,-2.7c1,0,1.9,1.3,2.8,2.7c.9,1.4,1.7,2.8,2.7,2.8c1,0,1.9,-1.4,2.8,-2.8c.9,-1.4,1.7,-2.7,2.7,-2.7c1,0,1.8,1.3,2.7,2.7c.9,1.4,1.8,2.8,2.8,2.8c1,0,1.8,-1.4,2.7,-2.8c.9,-1.4,1.8,-2.7,2.8,-2.7c1.3,0,2,2.7,3.4,2.7h1" class="g4_22"/>
<path d="M298.1,793V763.8m0,98.6V793" class="g0_22"/>
<path d="M375.7,854.6V800.8c0,-2.9,2.4,-5.2,5.2,-5.2H563.4c2.9,0,5.2,2.3,5.2,5.2v53.8c0,2.9,-2.3,5.2,-5.2,5.2H380.9c-2.8,0,-5.2,-2.3,-5.2,-5.2Z" class="g5_22"/>
<path d="M438.5,885.6h67.4V868.9H438.5v16.7Z" class="g6_22"/>
<path d="M401.7,844.2H542.6v-33H401.7v33Z" class="g6_22"/>
<path d="M298.1,891.6V862.4M116.9,892H642.5" class="g0_22"/>
</svg>