<?xml version="1.0" encoding="UTF-8" standalone="no"?>
<!DOCTYPE svg PUBLIC "-//W3C//DTD SVG 1.1//EN"
"http://www.w3.org/Graphics/SVG/1.1/DTD/svg11.dtd">
<svg viewBox="0 0 909 1286" version="1.1" xmlns="http://www.w3.org/2000/svg" xmlns:xlink="http://www.w3.org/1999/xlink">
<defs>
<style type="text/css"><![CDATA[
.g0_35{
fill: none;
stroke: #000000;
stroke-width: 0.73;
stroke-linecap: butt;
stroke-linejoin: miter;
}
.g1_35{
fill: none;
stroke: #F81693;
stroke-width: 1.461;
stroke-linecap: butt;
stroke-linejoin: miter;
}
.g2_35{
fill: none;
stroke: #000000;
stroke-width: 1.461;
stroke-linecap: butt;
stroke-linejoin: miter;
}
.g3_35{
fill: none;
stroke: #000000;
stroke-width: 9.132;
stroke-linecap: butt;
stroke-linejoin: miter;
}
.g4_35{
fill: none;
stroke: #FFFFFF;
stroke-width: 0.73;
stroke-linecap: butt;
stroke-linejoin: miter;
}
.g5_35{
fill: none;
stroke: #5EE200;
stroke-width: 0.73;
stroke-linecap: butt;
stroke-linejoin: miter;
}
.g6_35{
fill: none;
stroke: #FFFFFF;
stroke-width: 0.152;
stroke-linecap: butt;
stroke-linejoin: miter;
}
.g7_35{
fill: none;
stroke: #F81693;
stroke-width: 0.73;
stroke-linecap: butt;
stroke-linejoin: miter;
}
.g8_35{
fill: none;
stroke: #02B5EE;
stroke-width: 0.73;
stroke-linecap: butt;
stroke-linejoin: miter;
}
]]></style>
</defs>
<path d="M116.9,261.9H783.4M117.3,504.6V262.3" class="g0_35"/>
<path d="M366.1,354.9c1.4,0,2,-2.8,3.4,-2.8c1,0,1.9,1.4,2.8,2.8c.8,1.4,1.7,2.7,2.7,2.7c1,0,1.8,-1.3,2.7,-2.7c.9,-1.4,1.8,-2.8,2.8,-2.8c1,0,1.8,1.4,2.7,2.8c.9,1.4,1.8,2.7,2.8,2.7c.9,0,1.8,-1.3,2.7,-2.7c.9,-1.4,1.7,-2.8,2.7,-2.8c1,0,1.9,1.4,2.8,2.8c.9,1.4,1.7,2.7,2.7,2.7c1,0,1.9,-1.3,2.7,-2.7c.9,-1.4,1.8,-2.8,2.8,-2.8c1,0,1.8,1.4,2.7,2.8c.9,1.4,1.8,2.7,2.8,2.7c1,0,1.8,-1.3,2.7,-2.7c.9,-1.4,1.8,-2.8,2.7,-2.8c1,0,1.9,1.4,2.8,2.8c.9,1.4,1.7,2.7,2.7,2.7c1,0,1.9,-1.3,2.8,-2.7c.9,-1.4,1.7,-2.8,2.7,-2.8c1,0,1.9,1.4,2.7,2.8c.9,1.4,1.8,2.7,2.8,2.7c1,0,1.8,-1.3,2.7,-2.7c.9,-1.4,1.8,-2.8,2.8,-2.8c1,0,1.8,1.4,2.7,2.8c.9,1.4,1.8,2.7,2.7,2.7c1,0,1.9,-1.3,2.8,-2.7c.9,-1.4,1.7,-2.8,2.7,-2.8c1,0,1.9,1.4,2.8,2.8c.9,1.4,1.7,2.7,2.7,2.7c1,0,1.9,-1.3,2.7,-2.7c.9,-1.4,1.8,-2.8,2.8,-2.8c1,0,1.8,1.4,2.7,2.8c.9,1.4,1.8,2.7,2.8,2.7c1,0,1.8,-1.3,2.7,-2.7c.9,-1.4,1.8,-2.8,2.7,-2.8c1.4,0,2.1,2.8,3.5,2.8h2.9" class="g1_35"/>
<path d="M353.5,441.8c-1.6,3.3,-5.5,5.5,-11,5.5H328c-5.5,0,-9.3,2.2,-11,5.5c-1.6,-3.3,-5.5,-5.5,-10.9,-5.5H291.5c-5.5,0,-9.3,-2.2,-11,-5.5m200,0c-1.6,3.3,-5.5,5.5,-10.9,5.5H455c-5.5,0,-9.3,2.2,-11,5.5c-1.6,-3.3,-5.4,-5.5,-10.9,-5.5H418.5c-5.5,0,-9.3,-2.2,-10.9,-5.5" class="g2_35"/>
<path d="M489.3,442.6c1.3,0,2,-2.8,3.4,-2.8c1,0,1.8,1.4,2.7,2.8c.9,1.4,1.8,2.7,2.8,2.7c1,0,1.8,-1.3,2.7,-2.7c.9,-1.4,1.8,-2.8,2.8,-2.8c.9,0,1.8,1.4,2.7,2.8c.9,1.4,1.7,2.7,2.7,2.7c1,0,1.9,-1.3,2.8,-2.7c.9,-1.4,1.7,-2.8,2.7,-2.8c1,0,1.9,1.4,2.8,2.8c.8,1.4,1.7,2.7,2.7,2.7c1,0,1.8,-1.3,2.7,-2.7c.9,-1.4,1.8,-2.8,2.8,-2.8c1,0,1.8,1.4,2.7,2.8c.9,1.4,1.8,2.7,2.8,2.7c.9,0,1.8,-1.3,2.7,-2.7c.9,-1.4,1.7,-2.8,2.7,-2.8c1,0,1.9,1.4,2.8,2.8c.9,1.4,1.7,2.7,2.7,2.7c1,0,1.9,-1.3,2.7,-2.7c.9,-1.4,1.8,-2.8,2.8,-2.8c1,0,1.8,1.4,2.7,2.8c.9,1.4,1.8,2.7,2.8,2.7c1,0,1.8,-1.3,2.7,-2.7c.9,-1.4,1.8,-2.8,2.7,-2.8c1,0,1.9,1.4,2.8,2.8c.9,1.4,1.7,2.7,2.7,2.7c1,0,1.9,-1.3,2.8,-2.7c.9,-1.4,1.7,-2.8,2.7,-2.8c1,0,1.9,1.4,2.7,2.8c.9,1.4,1.8,2.7,2.8,2.7c1,0,1.8,-1.3,2.7,-2.7c.9,-1.4,1.8,-2.8,2.8,-2.8c1,0,1.8,1.4,2.7,2.8c.9,1.4,1.8,2.7,2.7,2.7c1.4,0,2.1,-2.7,3.5,-2.7h.2" class="g1_35"/>
<path d="M783,504.6V262.3M116.9,505H783.4" class="g0_35"/>
<path d="M126.1,509.9H792.5m-4.6,4.6V270.7" class="g3_35"/>
<path d="M116.9,545.9h551M325.5,575.5V546.2M226,602.9l18.3,10.9m-55.9,40.6V617.8m24.8,-14.9l-24.8,14.8M157.1,599l31.3,18.7m-31.3,55.5l31.3,-18.6m-31.3,18.6L125.9,654.6m0,-.2V617.8M157.1,599l-31.2,18.7m6,31.9v-27m26.3,-15.9l23,13.7m-23,45.1l23,-13.7M282.1,599l31.2,18.7M282.1,599l-24.9,14.8m68.3,80V575.5" class="g0_35"/>
<path d="M507.5,591.5l18.3,11m-31.1,-11l-18.3,11" class="g4_35"/>
<path d="M460.7,620l-18.2,11M412.2,611.6l31.2,18.7m0,36.7V630.5m-31.2,55.3l31.2,-18.6m-31.2,18.6L380.9,667.2m0,-.2V630.5m31.3,-18.9l-31.3,18.7m32.3,-11L436.3,633m-23.1,45.1l23.1,-13.7m-49.4,-2.2v-27" class="g5_35"/>
<path d="M563.6,587.7l31.2,18.6M563.6,587.7l-24.9,14.8" class="g4_35"/>
<path d="M469.9,606.5l27.4,-16.4" class="g6_35"/>
<path d="M469.9,606.5l27.4,-16.4" class="g7_35"/>
<path d="M510.2,590.4l18.3,11" class="g6_35"/>
<path d="M510.2,590.4l18.3,11" class="g7_35"/>
<path d="M539.6,601l23.8,-14.2" class="g6_35"/>
<path d="M539.6,601l23.8,-14.2" class="g7_35"/>
<path d="M563.6,587.7l31.2,18.6" class="g6_35"/>
<path d="M563.6,587.7l31.2,18.6" class="g8_35"/>
<path d="M325.5,723.1V693.8m0,58.5V723.1m0,58.4V752.3m0,58.4V781.5m0,58.5V810.7M116.9,840.3h551" class="g0_35"/>
</svg>