<?xml version="1.0" encoding="UTF-8" standalone="no"?>
<!DOCTYPE svg PUBLIC "-//W3C//DTD SVG 1.1//EN"
"http://www.w3.org/Graphics/SVG/1.1/DTD/svg11.dtd">
<svg viewBox="0 0 909 1286" version="1.1" xmlns="http://www.w3.org/2000/svg" xmlns:xlink="http://www.w3.org/1999/xlink">
<defs>
<style type="text/css"><![CDATA[
.g0_7{
fill: none;
stroke: #000000;
stroke-width: 0.73;
stroke-linecap: butt;
stroke-linejoin: miter;
}
.g1_7{
}
.g2_7{
fill: none;
stroke: #999999;
stroke-width: 2.191;
stroke-linecap: butt;
stroke-linejoin: miter;
}
]]></style>
</defs>
<path d="M116.9,179.9H819.5m-448,29.6V180.3M158.7,225.9h9.2" class="g0_7"/>
<path d="M158.9,226.3h-1v-.8h1Z" class="g1_7"/>
<path d="M167.7,225.5h.9v.8h-.9Z" class="g1_7"/>
<path d="M158.7,223.5h9.2" class="g0_7"/>
<path d="M158.9,223.9h-1v-.7h1Z" class="g1_7"/>
<path d="M167.7,223.2h.9v.7h-.9Z" class="g1_7"/>
<path d="M158.7,221.2h9.2" class="g0_7"/>
<path d="M158.9,221.6h-1v-.8h1Z" class="g1_7"/>
<path d="M167.7,220.8h.9v.8h-.9Z" class="g1_7"/>
<path d="M186.5,223.5h9.2" class="g0_7"/>
<path d="M186.7,223.9h-.9v-.7h.9Z" class="g1_7"/>
<path d="M195.5,223.2h.9v.7h-.9Z" class="g1_7"/>
<path d="M228.8,225.1H238" class="g0_7"/>
<path d="M229,225.5h-.9v-.7h.9Z" class="g1_7"/>
<path d="M237.9,224.8h.9v.7h-.9Z" class="g1_7"/>
<path d="M228.8,222H238" class="g0_7"/>
<path d="M229,222.3h-.9v-.7h.9Z" class="g1_7"/>
<path d="M237.9,221.6h.9v.7h-.9Z" class="g1_7"/>
<path d="M271.2,223.5h9.2" class="g0_7"/>
<path d="M271.4,223.9h-.9v-.7h.9Z" class="g1_7"/>
<path d="M280.2,223.2h.9v.7h-.9Z" class="g1_7"/>
<path d="M313.5,225.1h9.2" class="g0_7"/>
<path d="M313.7,225.5h-.9v-.7h.9Z" class="g1_7"/>
<path d="M322.5,224.8h1v.7h-1Z" class="g1_7"/>
<path d="M313.5,222h9.2" class="g0_7"/>
<path d="M313.7,222.3h-.9v-.7h.9Z" class="g1_7"/>
<path d="M322.5,221.6h1v.7h-1Z" class="g1_7"/>
<path d="M371.5,238.7V209.5m0,63.5V238.7M482.5,260.2h9.2" class="g0_7"/>
<path d="M482.7,260.6h-.9v-.7h.9Z" class="g1_7"/>
<path d="M491.5,259.9h.9v.7h-.9Z" class="g1_7"/>
<path d="M482.5,257.9h9.2" class="g0_7"/>
<path d="M482.7,258.3h-.9v-.8h.9Z" class="g1_7"/>
<path d="M491.5,257.5h.9v.8h-.9Z" class="g1_7"/>
<path d="M482.5,255.5h9.2" class="g0_7"/>
<path d="M482.7,255.9h-.9v-.7h.9Z" class="g1_7"/>
<path d="M491.5,255.2h.9v.7h-.9Z" class="g1_7"/>
<path d="M510.3,257.9h9.2" class="g0_7"/>
<path d="M510.5,258.3h-.9v-.8h.9Z" class="g1_7"/>
<path d="M519.3,257.5h.9v.8h-.9Z" class="g1_7"/>
<path d="M552.7,259.5h9.2" class="g0_7"/>
<path d="M552.9,259.8h-1v-.7h1Z" class="g1_7"/>
<path d="M561.7,259.1h.9v.7h-.9Z" class="g1_7"/>
<path d="M552.7,256.3h9.2" class="g0_7"/>
<path d="M552.9,256.7h-1V256h1Z" class="g1_7"/>
<path d="M561.7,256h.9v.7h-.9Z" class="g1_7"/>
<path d="M595,257.9h9.2" class="g0_7"/>
<path d="M595.2,258.3h-.9v-.8h.9Z" class="g1_7"/>
<path d="M604,257.5h.9v.8H604Z" class="g1_7"/>
<path d="M637.4,259.5h9.1" class="g0_7"/>
<path d="M637.5,259.8h-.9v-.7h.9Z" class="g1_7"/>
<path d="M646.4,259.1h.9v.7h-.9Z" class="g1_7"/>
<path d="M637.4,256.3h9.1" class="g0_7"/>
<path d="M637.5,256.7h-.9V256h.9Z" class="g1_7"/>
<path d="M646.4,256h.9v.7h-.9Z" class="g1_7"/>
<path d="M371.5,302.3V273m0,63.6V302.3M483.5,323.8h9.2" class="g0_7"/>
<path d="M483.7,324.2h-.9v-.8h.9Z" class="g1_7"/>
<path d="M492.5,323.4h.9v.8h-.9Z" class="g1_7"/>
<path d="M483.5,321.5h9.2" class="g0_7"/>
<path d="M483.7,321.8h-.9v-.7h.9Z" class="g1_7"/>
<path d="M492.5,321.1h.9v.7h-.9Z" class="g1_7"/>
<path d="M483.5,319.1h9.2" class="g0_7"/>
<path d="M483.7,319.5h-.9v-.8h.9Z" class="g1_7"/>
<path d="M492.5,318.7h.9v.8h-.9Z" class="g1_7"/>
<path d="M511.3,321.5h9.2" class="g0_7"/>
<path d="M511.5,321.8h-.9v-.7h.9Z" class="g1_7"/>
<path d="M520.3,321.1h1v.7h-1Z" class="g1_7"/>
<path d="M553.7,323h9.2" class="g0_7"/>
<path d="M553.9,323.4h-1v-.7h1Z" class="g1_7"/>
<path d="M562.7,322.7h.9v.7h-.9Z" class="g1_7"/>
<path d="M553.7,319.9h9.2" class="g0_7"/>
<path d="M553.9,320.3h-1v-.8h1Z" class="g1_7"/>
<path d="M562.7,319.5h.9v.8h-.9Z" class="g1_7"/>
<path d="M596,321.5h9.2" class="g0_7"/>
<path d="M596.2,321.8h-.9v-.7h.9Z" class="g1_7"/>
<path d="M605,321.1h.9v.7H605Z" class="g1_7"/>
<path d="M638.4,323h9.2" class="g0_7"/>
<path d="M638.5,323.4h-.9v-.7h.9Z" class="g1_7"/>
<path d="M647.4,322.7h.9v.7h-.9Z" class="g1_7"/>
<path d="M638.4,319.9h9.2" class="g0_7"/>
<path d="M638.5,320.3h-.9v-.8h.9Z" class="g1_7"/>
<path d="M647.4,319.5h.9v.8h-.9Z" class="g1_7"/>
<path d="M371.5,365.8V336.6m0,58.5V365.8m0,58.5V395.1m0,58.4V424.3m0,58.4V453.5m0,58.5V482.7m0,58.5V512" class="g0_7"/>
<path d="M700.9,535.3L685.8,521m0,14.3L700.9,521" class="g2_7"/>
<path d="M371.5,570.4V541.2M116.9,570.8H819.5" class="g0_7"/>
</svg>