<?xml version="1.0" encoding="UTF-8" standalone="no"?>
<!DOCTYPE svg PUBLIC "-//W3C//DTD SVG 1.1//EN"
"http://www.w3.org/Graphics/SVG/1.1/DTD/svg11.dtd">
<svg viewBox="0 0 909 1286" version="1.1" xmlns="http://www.w3.org/2000/svg" xmlns:xlink="http://www.w3.org/1999/xlink">
<defs>
<style type="text/css"><![CDATA[
.g0_10{
fill: none;
stroke: #000000;
stroke-width: 0.73;
stroke-linecap: butt;
stroke-linejoin: miter;
}
.g1_10{
fill: #FDE8E9;
}
]]></style>
</defs>
<path d="M116.9,159.9H792.5" class="g0_10"/>
<path d="M167.6,341.8h61.6V314H167.6v27.8Z" class="g1_10"/>
<path d="M167.6,371.5H296.8V343.7H167.6v27.8Z" class="g1_10"/>
<path d="M167.6,401.2H296.8V373.3H167.6v27.9Z" class="g1_10"/>
<path d="M167.6,430.9H313.7V403H167.6v27.9Z" class="g1_10"/>
<path d="M167.6,460.5H279.9V432.7H167.6v27.8Z" class="g1_10"/>
<path d="M167.6,490.2H347.5V462.4H167.6v27.8Z" class="g1_10"/>
<path d="M167.6,519.9h163V492h-163v27.9Z" class="g1_10"/>
<path d="M116.9,797.5h163V769.7h-163v27.8Z" class="g1_10"/>
<path d="M313.8,795.5h20.5V771.7H313.8v23.8Z" class="g1_10"/>
<path d="M116.9,885.2H296.8V857.3H116.9v27.9Z" class="g1_10"/>
<path d="M330.6,883.2h20.5V859.4H330.6v23.8Z" class="g1_10"/>
<path d="M116.9,1060.5H229.2v-27.8H116.9v27.8Z" class="g1_10"/>
<path d="M263,1058.5h20.6v-23.7H263v23.7Z" class="g1_10"/>
</svg>