<?xml version="1.0" encoding="UTF-8" standalone="no"?>
<!DOCTYPE svg PUBLIC "-//W3C//DTD SVG 1.1//EN"
"http://www.w3.org/Graphics/SVG/1.1/DTD/svg11.dtd">
<svg viewBox="0 0 1286 909" version="1.1" xmlns="http://www.w3.org/2000/svg" xmlns:xlink="http://www.w3.org/1999/xlink">
<defs>
<style type="text/css"><![CDATA[
.g0_879{
fill: none;
stroke: #000000;
stroke-width: 0.73;
stroke-linecap: butt;
stroke-linejoin: miter;
}
.g1_879{
fill: none;
stroke: #02B5EE;
stroke-width: 1.262;
stroke-linecap: butt;
stroke-linejoin: miter;
}
.g2_879{
fill: none;
stroke: #02B5EE;
stroke-width: 0.73;
stroke-linecap: butt;
stroke-linejoin: miter;
}
]]></style>
</defs>
<path d="M193,83.4h900.3M193,111.6h850.3m-850.3,0h850.3M597.6,141.2V112m0,58.5V141.2m0,58.5V170.5m0,114.2v-85" class="g0_879"/>
<path d="M760,260.7H903" class="g1_879"/>
<path d="M597.6,314.9V284.7m0,103.2v-73" class="g0_879"/>
<path d="M846.5,374.1h185.8" class="g2_879"/>
<path d="M597.6,417.2V387.9m0,58.5V417.2m0,114.2v-85" class="g0_879"/>
<path d="M718.3,507.4h91.6" class="g1_879"/>
<path d="M597.6,560.6V531.4m0,102.3V560.6" class="g0_879"/>
<path d="M914.1,619.8h118.2" class="g2_879"/>
<path d="M597.6,662.9V633.7m0,58.4V662.9M193,692.5h850.3m-850.3,0h850.3" class="g0_879"/>
</svg>