<?xml version="1.0" encoding="UTF-8" standalone="no"?>
<!DOCTYPE svg PUBLIC "-//W3C//DTD SVG 1.1//EN"
"http://www.w3.org/Graphics/SVG/1.1/DTD/svg11.dtd">
<svg viewBox="0 0 909 1286" version="1.1" xmlns="http://www.w3.org/2000/svg" xmlns:xlink="http://www.w3.org/1999/xlink">
<defs>
<clipPath id="c0_69"><path d="M123.1,218.7V187h29.1v31.7Z"/></clipPath>
<clipPath id="c1_69"><path d="M123.1,370.5V338.8h29.1v31.7Z"/></clipPath>
<clipPath id="c2_69"><path d="M123.1,584.9V553.2h29.1v31.7Z"/></clipPath>
<clipPath id="c3_69"><path d="M123.1,736.6V704.9h29.1v31.7Z"/></clipPath>
<clipPath id="c4_69"><path d="M123.1,888.4V856.7h29.1v31.7Z"/></clipPath>
<clipPath id="c5_69"><path d="M122.9,1043.6v-34.7H152v34.7Z"/></clipPath>
<clipPath id="c6_69"><path d="M122.1,219.2V186.5H153v32.7Z"/></clipPath>
<clipPath id="c7_69"><path d="M122.1,371V338.3H153V371Z"/></clipPath>
<clipPath id="c8_69"><path d="M122.1,585.4V552.7H153v32.7Z"/></clipPath>
<clipPath id="c9_69"><path d="M122.1,737.1V704.4H153v32.7Z"/></clipPath>
<clipPath id="ca_69"><path d="M122.1,888.9V856.2H153v32.7Z"/></clipPath>
<clipPath id="cb_69"><path d="M122.1,1044.1v-36.2H153v36.2Z"/></clipPath>
<style type="text/css"><![CDATA[
.g0_69{
fill: none;
stroke: #000000;
stroke-width: 0.73;
stroke-linecap: butt;
stroke-linejoin: miter;
}
.g1_69{
fill: #FFFFFF;
}
.g2_69{
}
.g3_69{
fill: none;
stroke: #000000;
stroke-width: 0.459;
stroke-linecap: butt;
stroke-linejoin: round;
}
.g4_69{
fill: none;
stroke: #000000;
stroke-width: 0.722;
stroke-linecap: round;
stroke-linejoin: miter;
}
.g5_69{
fill: none;
stroke: #000000;
stroke-width: 0.722;
stroke-linecap: round;
stroke-linejoin: round;
}
.g6_69{
fill: #D40000;
}
.g7_69{
fill: none;
stroke: #000000;
stroke-width: 0.578;
stroke-linecap: round;
stroke-linejoin: miter;
}
.g8_69{
fill: #E9C6AF;
}
.g9_69{
fill: none;
stroke: #695000;
stroke-width: 0.152;
stroke-linecap: round;
stroke-linejoin: round;
}
.ga_69{
fill: none;
stroke: #000000;
stroke-width: 1.461;
stroke-linecap: butt;
stroke-linejoin: miter;
}
.gb_69{
fill: none;
stroke: #000000;
stroke-width: 2.739;
stroke-linecap: butt;
stroke-linejoin: miter;
}
.gc_69{
fill: #868686;
}
.gd_69{
fill: #242628;
}
.ge_69{
fill: #A0A0A0;
}
.gf_69{
fill: #C4956E;
}
.gg_69{
fill: #222426;
}
.gh_69{
fill: #202126;
}
.gi_69{
fill: #252427;
}
.gj_69{
fill: #222924;
}
]]></style>
</defs>
<path d="M116.9,159.9H792.5" class="g0_69"/>
<path d="M117.7,290.3v-110H791.8v110Z" class="g1_69"/>
<path d="M117.7,290.3v-110H791.8v110Z" class="ga_69"/>
<g clip-path="url(#c6_69)">
<path clip-path="url(#c0_69)" d="M126.4,212.4c0,0,1.5,-.9,1.2,-1.3c-.1,-.1,-.3,-.1,-.6,0c-1.6,.3,-5,2.1,-3.3,4.1c1.4,1.6,6.4,2.4,11.7,1.4c7.3,-1.4,13.5,-5.5,11.1,-8.3c-1.6,-2,-6.7,-2.1,-10.8,-2.2c-2.1,0,-6.6,-.1,-8,-1.7c-.6,-.7,-.5,-1.6,.1,-2.2c1,-.9,3.8,-1.4,4,-1.5c.7,-.1,2.5,-.4,4.6,-.3c1.1,0,2.5,0,3.2,.9c.2,.3,.4,.6,.4,.7c0,0,0,.1,.1,.2c.1,.1,.4,.1,.5,.1c.5,-.1,1.5,-.5,2,-1.1c.3,-.2,.8,-.6,0,-1.5c-.9,-1.1,-2.3,-1.2,-4,-1.2c-2.3,0,-4.1,.4,-4.9,.5c-5.8,1.1,-11.1,4.6,-9,7c1.5,1.9,6.3,1.9,9,1.9c3.9,.1,8.4,.3,9.8,2c.6,.7,.9,1.9,-.4,2.9c-1.2,.9,-4,1.7,-5.8,2c-4.4,.9,-9.4,.2,-10.6,-1.2c0,-.1,-.5,-.6,-.3,-1.2Z" class="g2_69"/>
<path d="M131.5,214.8l-.2,-.2l.3,-4.6q.3,-5.6,.5,-5.9c.1,-.2,1.6,-2.3,3.3,-4.6c1.7,-2.4,4.3,-6.1,5.9,-8.3c1.5,-2.2,2.8,-3.9,2.9,-3.9c.4,0,.1,.4,-1.8,3.1c-1.2,1.6,-3.7,5.3,-5.7,8.1c-2,2.9,-3.6,5.2,-3.6,5.2c0,0,.5,.1,1,.2c2,.2,3.3,.5,4.5,1.2c.6,.3,1,.5,1.5,1.1c.8,.8,1.2,1.4,1.4,2.2c.1,.3,.1,.5,.2,.5c.1,0,.7,-.8,5.2,-7.6c2.4,-3.7,4.5,-6.7,4.6,-6.8c.2,-.3,.4,-.1,.2,.2c0,.1,-1.5,2.4,-3.2,5c-1.8,2.7,-3.8,5.7,-4.5,6.8c-1.5,2.4,-2.1,3.3,-2.3,3.8c-.2,.3,-.3,.4,-.9,.7c-.8,.4,-8.7,3.9,-8.9,4c-.1,0,-.3,-.1,-.4,-.2Z" class="g2_69"/>
<path d="M135.2,212.8c2.2,-.9,4,-1.7,4.6,-2q.7,-.4,.7,-1.4c-.2,-1.7,-1.4,-3.1,-3.6,-3.8c-1.2,-.4,-4.3,-.8,-4.4,-.6c0,0,-.1,1.5,-.2,3.1c-.1,1.7,-.2,3.3,-.2,3.6c-.1,1.2,.1,1.5,-.2,2.6c.1,.1,1.8,-.8,1.8,-.8c.1,0,.7,-.3,1.5,-.7Z" class="g2_69"/>
<path d="M131.5,214.8l-.2,-.2l.3,-4.6q.3,-5.6,.5,-5.9c.1,-.2,1.6,-2.3,3.3,-4.6c1.7,-2.4,4.3,-6.1,5.9,-8.3c1.5,-2.2,2.8,-3.9,2.9,-3.9c.4,0,.1,.4,-1.8,3.1c-1.2,1.6,-3.7,5.3,-5.7,8.1c-2,2.9,-3.6,5.2,-3.6,5.2c0,0,.5,.1,1,.2c2,.2,3.3,.5,4.5,1.2c.6,.3,1,.5,1.5,1.1c.8,.8,1.2,1.4,1.4,2.2c.1,.3,.1,.5,.2,.5c.1,0,.7,-.8,5.2,-7.6c2.4,-3.7,4.5,-6.7,4.6,-6.8c.2,-.3,.4,-.1,.2,.2c0,.1,-1.5,2.4,-3.2,5c-1.8,2.7,-3.8,5.7,-4.5,6.8c-1.5,2.4,-2.1,3.3,-2.3,3.8c-.2,.3,-.3,.4,-.9,.7c-.8,.4,-8.7,3.9,-8.9,4c-.1,0,-.3,-.1,-.4,-.2Zm3.7,-2c2.2,-.9,4,-1.7,4.6,-2q.7,-.4,.7,-1.4c-.2,-1.7,-1.4,-3.1,-3.6,-3.8c-1.2,-.4,-4.3,-.8,-4.4,-.6c0,0,-.1,1.5,-.2,3.1c-.1,1.7,-.2,3.3,-.2,3.6c-.1,1.2,.1,1.5,-.2,2.6c.1,.1,1.8,-.8,1.8,-.8c.1,0,.7,-.3,1.5,-.7Z" class="g3_69"/>
<path d="M135.3,204.2l11.2,-16m-8.2,17.2L149,189.6" class="g4_69"/>
<path d="M140.4,207.1l10,-14.5l.2,-.3" class="g5_69"/>
<path d="M134.1,203.8c-.4,0,-.8,-.1,-.9,-.1c0,0,2.5,-3.7,6.7,-9.6c1.9,-2.7,3.6,-5.2,3.8,-5.5c.2,-.4,.4,-.7,.5,-.7c.1,0,.7,.5,.9,.7c.1,.4,.1,.6,-.1,1.1c-.2,.5,-9.8,14.3,-9.9,14.3c-.1,0,-.5,-.1,-1,-.2Z" class="g6_69"/>
<path d="M137.6,204.6c-.2,-.1,-.8,-.3,-1.2,-.4l-.7,-.1l.3,-.4c.1,-.2,2.3,-3.3,4.8,-7l4.7,-6.7l.5,-.2c.9,-.5,1.6,-.5,2.1,0l.3,.3l-5,7.4c-3.1,4.4,-5.1,7.3,-5.1,7.3c-.1,0,-.4,-.1,-.7,-.2Z" class="g6_69"/>
<path d="M140,206c-.2,-.2,-.6,-.5,-.8,-.6c-.2,-.1,-.3,-.3,-.3,-.3c0,-.1,9.4,-14,9.8,-14.6c.1,-.1,.5,.3,.8,.7c.3,.4,.3,.6,.4,1c0,.4,0,.7,-.1,.8c-.2,.3,-9.1,13.1,-9.2,13.3c-.2,.2,-.2,.1,-.6,-.3Z" class="g6_69"/>
<path d="M141.6,208.7c0,-.1,-.1,-.3,-.1,-.6c-.1,-.2,-.3,-.6,-.4,-.8l-.3,-.4l4.7,-6.8c2.6,-3.7,4.8,-6.8,4.8,-6.8c.4,0,1,.7,1,1.1c0,.2,-.6,1.2,-1.9,3.1c-1.1,1.6,-3.1,4.6,-4.6,6.8c-3,4.4,-3.1,4.6,-3.2,4.4Z" class="g6_69"/>
<path d="M131.9,210.2c2.3,-.1,3.6,.7,4.1,2.3" class="g7_69"/>
<path d="M132,214.1c0,-.4,.1,-.4,.1,-1.3c0,-.8,0,-1,0,-1.4c0,-.2,0,-.6,0,-.7l.1,-.2c.1,0,.6,0,.7,0c.4,0,.8,.1,1.1,.2c.2,.1,.4,.2,.6,.3c.2,.1,.3,.2,.4,.4c.3,.2,.4,.4,.6,.7c0,.2,.1,.5,.1,.5c0,0,-1.5,.7,-1.8,.8c-.1,0,-.2,.1,-.3,.1c-1.1,.6,-1.4,.7,-1.6,.8Z" class="g2_69"/>
<path d="M136.2,212c-.6,-1.2,-1.8,-2,-3.4,-2.1l-.6,-.1v-.4c.1,-.3,.1,-1.3,.2,-2.2c0,-1,.1,-1.8,.1,-2l.1,-.2h.7c.8,.1,2.3,.3,3.1,.5c1.7,.5,3.1,1.4,3.6,2.5c.4,.8,.6,2.1,.3,2.4c-.1,.2,-.8,.5,-2.5,1.3c-1.6,.7,-1.5,.7,-1.6,.3Z" class="g8_69"/>
<path d="M136.2,212c-.6,-1.2,-1.8,-2,-3.4,-2.1l-.6,-.1v-.4c.1,-.3,.1,-1.3,.2,-2.2c0,-1,.1,-1.8,.1,-2l.1,-.2h.7c.8,.1,2.3,.3,3.1,.5c1.7,.5,3.1,1.4,3.6,2.5c.4,.8,.6,2.1,.3,2.4c-.1,.2,-.8,.5,-2.5,1.3c-1.6,.7,-1.5,.7,-1.6,.3Z" class="g9_69"/>
</g>
<path d="M152.7,231.9H682.3" class="g0_69"/>
<path d="M137.6,237.1v43.8" class="gb_69"/>
<path d="M117.7,442.1V332H791.8V442.1Z" class="g1_69"/>
<path d="M117.7,442.1V332H791.8V442.1Z" class="ga_69"/>
<g clip-path="url(#c7_69)">
<path clip-path="url(#c1_69)" d="M126.4,364.1c0,0,1.5,-.9,1.2,-1.2c-.1,-.2,-.3,-.1,-.6,-.1c-1.6,.3,-5,2.1,-3.3,4.1c1.4,1.6,6.4,2.4,11.7,1.4c7.3,-1.4,13.5,-5.4,11.1,-8.3c-1.6,-1.9,-6.7,-2.1,-10.8,-2.2c-2.1,0,-6.6,0,-8,-1.7c-.6,-.7,-.5,-1.6,.1,-2.2c1,-.8,3.8,-1.4,4,-1.4c.7,-.2,2.5,-.4,4.6,-.4c1.1,0,2.5,0,3.2,1c.2,.2,.4,.5,.4,.6c0,.1,0,.2,.1,.2c.1,.1,.4,.1,.5,.1c.5,-.1,1.5,-.5,2,-1c.3,-.3,.8,-.7,0,-1.6c-.9,-1,-2.3,-1.1,-4,-1.1c-2.3,0,-4.1,.3,-4.9,.4c-5.8,1.1,-11.1,4.6,-9,7.1c1.5,1.8,6.3,1.8,9,1.9c3.9,0,8.4,.3,9.8,2c.6,.6,.9,1.8,-.4,2.8c-1.2,.9,-4,1.7,-5.8,2.1c-4.4,.8,-9.4,.1,-10.6,-1.3c0,-.1,-.5,-.6,-.3,-1.2Z" class="g2_69"/>
<path d="M131.5,366.5l-.2,-.2l.3,-4.5q.3,-5.6,.5,-6c.1,-.2,1.6,-2.3,3.3,-4.6c1.7,-2.4,4.3,-6.1,5.9,-8.3c1.5,-2.1,2.8,-3.9,2.9,-3.9c.4,0,.1,.4,-1.8,3.2c-1.2,1.6,-3.7,5.2,-5.7,8.1c-2,2.8,-3.6,5.1,-3.6,5.2c0,0,.5,0,1,.1c2,.2,3.3,.6,4.5,1.2c.6,.3,1,.6,1.5,1.1c.8,.8,1.2,1.4,1.4,2.2c.1,.3,.1,.5,.2,.5c.1,0,.7,-.8,5.2,-7.6c2.4,-3.6,4.5,-6.7,4.6,-6.8c.2,-.2,.4,-.1,.2,.2c0,.1,-1.5,2.4,-3.2,5.1c-1.8,2.6,-3.8,5.6,-4.5,6.7c-1.5,2.4,-2.1,3.3,-2.3,3.8c-.2,.3,-.3,.4,-.9,.7c-.8,.4,-8.7,3.9,-8.9,4c-.1,0,-.3,0,-.4,-.2Z" class="g2_69"/>
<path d="M135.2,364.6c2.2,-1,4,-1.8,4.6,-2.1c.7,-.3,.7,-.4,.7,-1.4c-.2,-1.7,-1.4,-3,-3.6,-3.7c-1.2,-.4,-4.3,-.9,-4.4,-.7c0,.1,-.1,1.5,-.2,3.2c-.1,1.7,-.2,3.3,-.2,3.6c-.1,1.1,.1,1.4,-.2,2.5c.1,.1,1.8,-.8,1.8,-.8c.1,0,.7,-.3,1.5,-.6Z" class="g2_69"/>
<path d="M131.5,366.5l-.2,-.2l.3,-4.5q.3,-5.6,.5,-6c.1,-.2,1.6,-2.3,3.3,-4.6c1.7,-2.4,4.3,-6.1,5.9,-8.3c1.5,-2.1,2.8,-3.9,2.9,-3.9c.4,0,.1,.4,-1.8,3.2c-1.2,1.6,-3.7,5.2,-5.7,8.1c-2,2.8,-3.6,5.1,-3.6,5.2c0,0,.5,0,1,.1c2,.2,3.3,.6,4.5,1.2c.6,.3,1,.6,1.5,1.1c.8,.8,1.2,1.4,1.4,2.2c.1,.3,.1,.5,.2,.5c.1,0,.7,-.8,5.2,-7.6c2.4,-3.6,4.5,-6.7,4.6,-6.8c.2,-.2,.4,-.1,.2,.2c0,.1,-1.5,2.4,-3.2,5.1c-1.8,2.6,-3.8,5.6,-4.5,6.7c-1.5,2.4,-2.1,3.3,-2.3,3.8c-.2,.3,-.3,.4,-.9,.7c-.8,.4,-8.7,3.9,-8.9,4c-.1,0,-.3,0,-.4,-.2Zm3.7,-1.9c2.2,-1,4,-1.8,4.6,-2.1c.7,-.3,.7,-.4,.7,-1.4c-.2,-1.7,-1.4,-3,-3.6,-3.7c-1.2,-.4,-4.3,-.9,-4.4,-.7c0,.1,-.1,1.5,-.2,3.2c-.1,1.7,-.2,3.3,-.2,3.6c-.1,1.1,.1,1.4,-.2,2.5c.1,.1,1.8,-.8,1.8,-.8c.1,0,.7,-.3,1.5,-.6Z" class="g3_69"/>
<path d="M135.3,356l11.2,-16.1m-8.2,17.2L149,341.4" class="g4_69"/>
<path d="M140.4,358.8l10,-14.4l.2,-.4" class="g5_69"/>
<path d="M134.1,355.6c-.4,-.1,-.8,-.2,-.9,-.2c0,0,2.5,-3.7,6.7,-9.6c1.9,-2.7,3.6,-5.2,3.8,-5.5c.2,-.3,.4,-.6,.5,-.6c.1,0,.7,.4,.9,.7c.1,.3,.1,.5,-.1,1c-.2,.5,-9.8,14.3,-9.9,14.3c-.1,0,-.5,-.1,-1,-.1Z" class="g6_69"/>
<path d="M137.6,356.3c-.2,-.1,-.8,-.2,-1.2,-.3l-.7,-.2l.3,-.4c.1,-.2,2.3,-3.3,4.8,-7l4.7,-6.6l.5,-.3c.9,-.5,1.6,-.5,2.1,0l.3,.3l-5,7.4c-3.1,4.5,-5.1,7.4,-5.1,7.4c-.1,0,-.4,-.1,-.7,-.3Z" class="g6_69"/>
<path d="M140,357.8c-.2,-.3,-.6,-.6,-.8,-.7c-.2,-.1,-.3,-.3,-.3,-.3c0,-.1,9.4,-14,9.8,-14.6c.1,0,.5,.4,.8,.8c.3,.4,.3,.5,.4,1c0,.3,0,.6,-.1,.7c-.2,.3,-9.1,13.2,-9.2,13.3q-.2,.2,-.6,-.2Z" class="g6_69"/>
<path d="M141.6,360.4c0,-.1,-.1,-.3,-.1,-.5c-.1,-.3,-.3,-.7,-.4,-.9l-.3,-.4l4.7,-6.8c2.6,-3.7,4.8,-6.8,4.8,-6.8c.4,0,1,.7,1,1.2c0,.1,-.6,1.1,-1.9,3c-1.1,1.6,-3.1,4.7,-4.6,6.9c-3,4.4,-3.1,4.5,-3.2,4.3Z" class="g6_69"/>
<path d="M131.9,361.9c2.3,-.1,3.6,.7,4.1,2.3" class="g7_69"/>
<path d="M132,365.8c0,-.3,.1,-.4,.1,-1.3c0,-.8,0,-.9,0,-1.3c0,-.3,0,-.6,0,-.8l.1,-.2c.1,0,.6,0,.7,0c.4,.1,.8,.2,1.1,.3c.2,0,.4,.2,.6,.3c.2,.1,.3,.2,.4,.3c.3,.3,.4,.5,.6,.8c0,.1,.1,.4,.1,.4c0,0,-1.5,.7,-1.8,.8c-.1,0,-.2,.1,-.3,.1c-1.1,.6,-1.4,.8,-1.6,.8Z" class="g2_69"/>
<path d="M136.2,363.7c-.6,-1.2,-1.8,-2,-3.4,-2.1h-.6v-.5c.1,-.3,.1,-1.3,.2,-2.2c0,-.9,.1,-1.8,.1,-1.9l.1,-.3l.7,.1c.8,0,2.3,.2,3.1,.5c1.7,.4,3.1,1.3,3.6,2.4c.4,.8,.6,2.1,.3,2.4c-.1,.2,-.8,.5,-2.5,1.3c-1.6,.7,-1.5,.7,-1.6,.3Z" class="g8_69"/>
<path d="M136.2,363.7c-.6,-1.2,-1.8,-2,-3.4,-2.1h-.6v-.5c.1,-.3,.1,-1.3,.2,-2.2c0,-.9,.1,-1.8,.1,-1.9l.1,-.3l.7,.1c.8,0,2.3,.2,3.1,.5c1.7,.4,3.1,1.3,3.6,2.4c.4,.8,.6,2.1,.3,2.4c-.1,.2,-.8,.5,-2.5,1.3c-1.6,.7,-1.5,.7,-1.6,.3Z" class="g9_69"/>
</g>
<path d="M152.7,383.6H412.1" class="g0_69"/>
<path d="M137.6,388.8v43.9" class="gb_69"/>
<path d="M117.7,656.5V546.4H791.8V656.5Z" class="g1_69"/>
<path d="M117.7,656.5V546.4H791.8V656.5Z" class="ga_69"/>
<g clip-path="url(#c8_69)">
<path clip-path="url(#c2_69)" d="M126.4,578.6c0,0,1.5,-1,1.2,-1.3c-.1,-.1,-.3,-.1,-.6,-.1c-1.6,.4,-5,2.2,-3.3,4.2c1.4,1.5,6.4,2.4,11.7,1.3c7.3,-1.4,13.5,-5.4,11.1,-8.2c-1.6,-2,-6.7,-2.2,-10.8,-2.2c-2.1,0,-6.6,-.1,-8,-1.8c-.6,-.7,-.5,-1.5,.1,-2.1c1,-.9,3.8,-1.5,4,-1.5c.7,-.1,2.5,-.4,4.6,-.4c1.1,0,2.5,.1,3.2,1c.2,.2,.4,.5,.4,.7c0,0,0,.1,.1,.2c.1,.1,.4,.1,.5,0c.5,-.1,1.5,-.5,2,-1c.3,-.2,.8,-.6,0,-1.5c-.9,-1.1,-2.3,-1.2,-4,-1.2c-2.3,0,-4.1,.3,-4.9,.5c-5.8,1.1,-11.1,4.5,-9,7c1.5,1.8,6.3,1.9,9,1.9c3.9,.1,8.4,.3,9.8,2c.6,.6,.9,1.8,-.4,2.9c-1.2,.9,-4,1.7,-5.8,2c-4.4,.9,-9.4,.2,-10.6,-1.3c0,0,-.5,-.5,-.3,-1.1Z" class="g2_69"/>
<path d="M131.5,581l-.2,-.2l.3,-4.6q.3,-5.6,.5,-6c.1,-.1,1.6,-2.2,3.3,-4.6c1.7,-2.3,4.3,-6.1,5.9,-8.2c1.5,-2.2,2.8,-4,2.9,-4c.4,0,.1,.4,-1.8,3.2c-1.2,1.6,-3.7,5.2,-5.7,8.1c-2,2.8,-3.6,5.2,-3.6,5.2c0,0,.5,.1,1,.1c2,.3,3.3,.6,4.5,1.2c.6,.4,1,.6,1.5,1.2c.8,.8,1.2,1.3,1.4,2.2c.1,.2,.1,.4,.2,.4c.1,0,.7,-.8,5.2,-7.5c2.4,-3.7,4.5,-6.8,4.6,-6.9c.2,-.2,.4,0,.2,.3c0,.1,-1.5,2.3,-3.2,5c-1.8,2.6,-3.8,5.7,-4.5,6.7c-1.5,2.4,-2.1,3.3,-2.3,3.8c-.2,.4,-.3,.4,-.9,.7c-.8,.4,-8.7,3.9,-8.9,4c-.1,.1,-.3,0,-.4,-.1Z" class="g2_69"/>
<path d="M135.2,579c2.2,-1,4,-1.7,4.6,-2.1c.7,-.3,.7,-.4,.7,-1.4c-.2,-1.7,-1.4,-3,-3.6,-3.7c-1.2,-.4,-4.3,-.8,-4.4,-.6c0,0,-.1,1.4,-.2,3.1c-.1,1.7,-.2,3.3,-.2,3.6c-.1,1.1,.1,1.4,-.2,2.5c.1,.2,1.8,-.8,1.8,-.8c.1,0,.7,-.2,1.5,-.6Z" class="g2_69"/>
<path d="M131.5,581l-.2,-.2l.3,-4.6q.3,-5.6,.5,-6c.1,-.1,1.6,-2.2,3.3,-4.6c1.7,-2.3,4.3,-6.1,5.9,-8.2c1.5,-2.2,2.8,-4,2.9,-4c.4,0,.1,.4,-1.8,3.2c-1.2,1.6,-3.7,5.2,-5.7,8.1c-2,2.8,-3.6,5.2,-3.6,5.2c0,0,.5,.1,1,.1c2,.3,3.3,.6,4.5,1.2c.6,.4,1,.6,1.5,1.2c.8,.8,1.2,1.3,1.4,2.2c.1,.2,.1,.4,.2,.4c.1,0,.7,-.8,5.2,-7.5c2.4,-3.7,4.5,-6.8,4.6,-6.9c.2,-.2,.4,0,.2,.3c0,.1,-1.5,2.3,-3.2,5c-1.8,2.6,-3.8,5.7,-4.5,6.7c-1.5,2.4,-2.1,3.3,-2.3,3.8c-.2,.4,-.3,.4,-.9,.7c-.8,.4,-8.7,3.9,-8.9,4c-.1,.1,-.3,0,-.4,-.1Zm3.7,-2c2.2,-1,4,-1.7,4.6,-2.1c.7,-.3,.7,-.4,.7,-1.4c-.2,-1.7,-1.4,-3,-3.6,-3.7c-1.2,-.4,-4.3,-.8,-4.4,-.6c0,0,-.1,1.4,-.2,3.1c-.1,1.7,-.2,3.3,-.2,3.6c-.1,1.1,.1,1.4,-.2,2.5c.1,.2,1.8,-.8,1.8,-.8c.1,0,.7,-.2,1.5,-.6Z" class="g3_69"/>
<path d="M135.3,570.4l11.2,-16m-8.2,17.1L149,555.8" class="g4_69"/>
<path d="M140.4,573.2l10,-14.4l.2,-.3" class="g5_69"/>
<path d="M134.1,570c-.4,-.1,-.8,-.1,-.9,-.1c0,-.1,2.5,-3.7,6.7,-9.6c1.9,-2.7,3.6,-5.2,3.8,-5.6c.2,-.3,.4,-.6,.5,-.6c.1,0,.7,.5,.9,.7c.1,.3,.1,.6,-.1,1.1c-.2,.5,-9.8,14.3,-9.9,14.2c-.1,0,-.5,0,-1,-.1Z" class="g6_69"/>
<path d="M137.6,570.8c-.2,-.1,-.8,-.3,-1.2,-.4l-.7,-.2l.3,-.3c.1,-.2,2.3,-3.4,4.8,-7l4.7,-6.7l.5,-.3c.9,-.5,1.6,-.5,2.1,0l.3,.3l-5,7.4c-3.1,4.5,-5.1,7.4,-5.1,7.4c-.1,0,-.4,-.1,-.7,-.2Z" class="g6_69"/>
<path d="M140,572.2c-.2,-.2,-.6,-.5,-.8,-.7c-.2,-.1,-.3,-.2,-.3,-.3c0,0,9.4,-13.9,9.8,-14.5c.1,-.1,.5,.3,.8,.7c.3,.4,.3,.6,.4,1c0,.4,0,.6,-.1,.8c-.2,.2,-9.1,13.1,-9.2,13.3q-.2,.1,-.6,-.3Z" class="g6_69"/>
<path d="M141.6,574.9c0,-.1,-.1,-.4,-.1,-.6c-.1,-.2,-.3,-.6,-.4,-.8l-.3,-.4l4.7,-6.8c2.6,-3.8,4.8,-6.8,4.8,-6.8c.4,0,1,.7,1,1.1c0,.2,-.6,1.2,-1.9,3.1c-1.1,1.5,-3.1,4.6,-4.6,6.8c-3,4.4,-3.1,4.5,-3.2,4.4Z" class="g6_69"/>
<path d="M131.9,576.3c2.3,-.1,3.6,.7,4.1,2.4" class="g7_69"/>
<path d="M132,580.3c0,-.4,.1,-.5,.1,-1.4c0,-.7,0,-.9,0,-1.3c0,-.3,0,-.6,0,-.7l.1,-.3c.1,0,.6,0,.7,.1c.4,0,.8,.1,1.1,.2c.2,.1,.4,.2,.6,.3c.2,.1,.3,.2,.4,.4c.3,.2,.4,.4,.6,.7c0,.2,.1,.5,.1,.5c0,0,-1.5,.7,-1.8,.7c-.1,.1,-.2,.1,-.3,.2c-1.1,.6,-1.4,.7,-1.6,.7Z" class="g2_69"/>
<path d="M136.2,578.2c-.6,-1.3,-1.8,-2,-3.4,-2.1l-.6,-.1v-.5c.1,-.3,.1,-1.2,.2,-2.2c0,-.9,.1,-1.8,.1,-1.9l.1,-.2h.7c.8,0,2.3,.3,3.1,.5c1.7,.4,3.1,1.4,3.6,2.5c.4,.8,.6,2.1,.3,2.4c-.1,.1,-.8,.5,-2.5,1.2c-1.6,.8,-1.5,.7,-1.6,.4Z" class="g8_69"/>
<path d="M136.2,578.2c-.6,-1.3,-1.8,-2,-3.4,-2.1l-.6,-.1v-.5c.1,-.3,.1,-1.2,.2,-2.2c0,-.9,.1,-1.8,.1,-1.9l.1,-.2h.7c.8,0,2.3,.3,3.1,.5c1.7,.4,3.1,1.4,3.6,2.5c.4,.8,.6,2.1,.3,2.4c-.1,.1,-.8,.5,-2.5,1.2c-1.6,.8,-1.5,.7,-1.6,.4Z" class="g9_69"/>
</g>
<path d="M152.7,598.1H423.6" class="g0_69"/>
<path d="M137.6,603.3v43.8" class="gb_69"/>
<path d="M117.7,808.2v-110H791.8v110Z" class="g1_69"/>
<path d="M117.7,808.2v-110H791.8v110Z" class="ga_69"/>
<g clip-path="url(#c9_69)">
<path clip-path="url(#c3_69)" d="M126.4,730.3c0,0,1.5,-.9,1.2,-1.3c-.1,-.1,-.3,-.1,-.6,0c-1.6,.3,-5,2.1,-3.3,4.1c1.4,1.6,6.4,2.4,11.7,1.4c7.3,-1.4,13.5,-5.5,11.1,-8.3c-1.6,-2,-6.7,-2.1,-10.8,-2.2c-2.1,0,-6.6,-.1,-8,-1.7c-.6,-.7,-.5,-1.6,.1,-2.2c1,-.9,3.8,-1.4,4,-1.5c.7,-.1,2.5,-.4,4.6,-.3c1.1,0,2.5,0,3.2,.9c.2,.3,.4,.6,.4,.7c0,0,0,.1,.1,.2c.1,.1,.4,.1,.5,.1c.5,-.1,1.5,-.6,2,-1.1c.3,-.2,.8,-.6,0,-1.5c-.9,-1.1,-2.3,-1.2,-4,-1.2c-2.3,0,-4.1,.4,-4.9,.5c-5.8,1.1,-11.1,4.6,-9,7c1.5,1.9,6.3,1.9,9,1.9c3.9,.1,8.4,.3,9.8,2c.6,.7,.9,1.9,-.4,2.9c-1.2,.9,-4,1.7,-5.8,2c-4.4,.9,-9.4,.2,-10.6,-1.2c0,-.1,-.5,-.6,-.3,-1.2Z" class="g2_69"/>
<path d="M131.5,732.7l-.2,-.2l.3,-4.6q.3,-5.6,.5,-5.9c.1,-.2,1.6,-2.3,3.3,-4.6c1.7,-2.4,4.3,-6.1,5.9,-8.3c1.5,-2.2,2.8,-3.9,2.9,-3.9c.4,0,.1,.4,-1.8,3.1c-1.2,1.6,-3.7,5.3,-5.7,8.1c-2,2.9,-3.6,5.2,-3.6,5.2c0,0,.5,.1,1,.2c2,.2,3.3,.5,4.5,1.2c.6,.3,1,.5,1.5,1.1c.8,.8,1.2,1.4,1.4,2.2c.1,.3,.1,.5,.2,.5c.1,0,.7,-.8,5.2,-7.6c2.4,-3.7,4.5,-6.7,4.6,-6.8c.2,-.3,.4,-.1,.2,.2c0,.1,-1.5,2.4,-3.2,5c-1.8,2.7,-3.8,5.7,-4.5,6.8c-1.5,2.4,-2.1,3.3,-2.3,3.8c-.2,.3,-.3,.4,-.9,.7c-.8,.4,-8.7,3.9,-8.9,4c-.1,0,-.3,-.1,-.4,-.2Z" class="g2_69"/>
<path d="M135.2,730.7c2.2,-.9,4,-1.7,4.6,-2q.7,-.4,.7,-1.5c-.2,-1.6,-1.4,-3,-3.6,-3.7c-1.2,-.4,-4.3,-.8,-4.4,-.6c0,0,-.1,1.5,-.2,3.1c-.1,1.7,-.2,3.3,-.2,3.6c-.1,1.2,.1,1.5,-.2,2.6c.1,.1,1.8,-.8,1.8,-.8c.1,0,.7,-.3,1.5,-.7Z" class="g2_69"/>
<path d="M131.5,732.7l-.2,-.2l.3,-4.6q.3,-5.6,.5,-5.9c.1,-.2,1.6,-2.3,3.3,-4.6c1.7,-2.4,4.3,-6.1,5.9,-8.3c1.5,-2.2,2.8,-3.9,2.9,-3.9c.4,0,.1,.4,-1.8,3.1c-1.2,1.6,-3.7,5.3,-5.7,8.1c-2,2.9,-3.6,5.2,-3.6,5.2c0,0,.5,.1,1,.2c2,.2,3.3,.5,4.5,1.2c.6,.3,1,.5,1.5,1.1c.8,.8,1.2,1.4,1.4,2.2c.1,.3,.1,.5,.2,.5c.1,0,.7,-.8,5.2,-7.6c2.4,-3.7,4.5,-6.7,4.6,-6.8c.2,-.3,.4,-.1,.2,.2c0,.1,-1.5,2.4,-3.2,5c-1.8,2.7,-3.8,5.7,-4.5,6.8c-1.5,2.4,-2.1,3.3,-2.3,3.8c-.2,.3,-.3,.4,-.9,.7c-.8,.4,-8.7,3.9,-8.9,4c-.1,0,-.3,-.1,-.4,-.2Zm3.7,-2c2.2,-.9,4,-1.7,4.6,-2q.7,-.4,.7,-1.5c-.2,-1.6,-1.4,-3,-3.6,-3.7c-1.2,-.4,-4.3,-.8,-4.4,-.6c0,0,-.1,1.5,-.2,3.1c-.1,1.7,-.2,3.3,-.2,3.6c-.1,1.2,.1,1.5,-.2,2.6c.1,.1,1.8,-.8,1.8,-.8c.1,0,.7,-.3,1.5,-.7Z" class="g3_69"/>
<path d="M135.3,722.1l11.2,-16m-8.2,17.1L149,707.5" class="g4_69"/>
<path d="M140.4,725l10,-14.5l.2,-.3" class="g5_69"/>
<path d="M134.1,721.7c-.4,0,-.8,-.1,-.9,-.1c0,0,2.5,-3.7,6.7,-9.6c1.9,-2.7,3.6,-5.2,3.8,-5.5c.2,-.4,.4,-.7,.5,-.7c.1,0,.7,.5,.9,.7c.1,.4,.1,.6,-.1,1.1c-.2,.5,-9.8,14.3,-9.9,14.3c-.1,0,-.5,-.1,-1,-.2Z" class="g6_69"/>
<path d="M137.6,722.5c-.2,-.1,-.8,-.3,-1.2,-.4l-.7,-.1l.3,-.4c.1,-.2,2.3,-3.3,4.8,-7l4.7,-6.7l.5,-.2c.9,-.5,1.6,-.5,2.1,0l.3,.3l-5,7.4c-3.1,4.4,-5.1,7.3,-5.1,7.3c-.1,0,-.4,-.1,-.7,-.2Z" class="g6_69"/>
<path d="M140,723.9c-.2,-.2,-.6,-.5,-.8,-.6c-.2,-.1,-.3,-.3,-.3,-.3c0,-.1,9.4,-14,9.8,-14.6c.1,-.1,.5,.3,.8,.7c.3,.4,.3,.6,.4,1c0,.4,0,.7,-.1,.8c-.2,.3,-9.1,13.1,-9.2,13.3c-.2,.2,-.2,.1,-.6,-.3Z" class="g6_69"/>
<path d="M141.6,726.6c0,-.1,-.1,-.3,-.1,-.6c-.1,-.2,-.3,-.6,-.4,-.8l-.3,-.4l4.7,-6.8c2.6,-3.7,4.8,-6.8,4.8,-6.8c.4,0,1,.7,1,1.1c0,.2,-.6,1.2,-1.9,3.1c-1.1,1.6,-3.1,4.6,-4.6,6.8c-3,4.4,-3.1,4.6,-3.2,4.4Z" class="g6_69"/>
<path d="M131.9,728.1c2.3,-.1,3.6,.7,4.1,2.3" class="g7_69"/>
<path d="M132,732c0,-.4,.1,-.4,.1,-1.3c0,-.8,0,-1,0,-1.4c0,-.2,0,-.6,0,-.7l.1,-.2c.1,0,.6,0,.7,0c.4,0,.8,.1,1.1,.2c.2,.1,.4,.2,.6,.3c.2,.1,.3,.2,.4,.4c.3,.2,.4,.4,.6,.7c0,.2,.1,.5,.1,.5c0,0,-1.5,.7,-1.8,.8c-.1,0,-.2,.1,-.3,.1c-1.1,.6,-1.4,.7,-1.6,.8Z" class="g2_69"/>
<path d="M136.2,729.9c-.6,-1.3,-1.8,-2,-3.4,-2.1l-.6,-.1v-.5c.1,-.2,.1,-1.2,.2,-2.1c0,-1,.1,-1.9,.1,-2l.1,-.2h.7c.8,.1,2.3,.3,3.1,.5c1.7,.5,3.1,1.4,3.6,2.5c.4,.8,.6,2.1,.3,2.4c-.1,.2,-.8,.5,-2.5,1.3c-1.6,.7,-1.5,.7,-1.6,.3Z" class="g8_69"/>
<path d="M136.2,729.9c-.6,-1.3,-1.8,-2,-3.4,-2.1l-.6,-.1v-.5c.1,-.2,.1,-1.2,.2,-2.1c0,-1,.1,-1.9,.1,-2l.1,-.2h.7c.8,.1,2.3,.3,3.1,.5c1.7,.5,3.1,1.4,3.6,2.5c.4,.8,.6,2.1,.3,2.4c-.1,.2,-.8,.5,-2.5,1.3c-1.6,.7,-1.5,.7,-1.6,.3Z" class="g9_69"/>
</g>
<path d="M152.7,749.8H491.2" class="g0_69"/>
<path d="M137.6,755v43.8" class="gb_69"/>
<path d="M117.7,960V849.9H791.8V960Z" class="g1_69"/>
<path d="M117.7,960V849.9H791.8V960Z" class="ga_69"/>
<g clip-path="url(#ca_69)">
<path clip-path="url(#c4_69)" d="M126.4,882c0,0,1.5,-.9,1.2,-1.2c-.1,-.2,-.3,-.1,-.6,-.1c-1.6,.3,-5,2.1,-3.3,4.1c1.4,1.6,6.4,2.4,11.7,1.4c7.3,-1.4,13.5,-5.4,11.1,-8.3c-1.6,-1.9,-6.7,-2.1,-10.8,-2.2c-2.1,0,-6.6,0,-8,-1.7c-.6,-.7,-.5,-1.6,.1,-2.2c1,-.8,3.8,-1.4,4,-1.4c.7,-.2,2.5,-.4,4.6,-.4c1.1,0,2.5,0,3.2,1c.2,.2,.4,.5,.4,.6c0,.1,0,.2,.1,.2c.1,.1,.4,.1,.5,.1c.5,-.1,1.5,-.5,2,-1c.3,-.3,.8,-.7,0,-1.6c-.9,-1,-2.3,-1.1,-4,-1.1c-2.3,0,-4.1,.3,-4.9,.4c-5.8,1.1,-11.1,4.6,-9,7.1c1.5,1.8,6.3,1.8,9,1.9c3.9,0,8.4,.3,9.8,2c.6,.6,.9,1.8,-.4,2.8c-1.2,.9,-4,1.7,-5.8,2.1c-4.4,.8,-9.4,.1,-10.6,-1.3c0,-.1,-.5,-.6,-.3,-1.2Z" class="g2_69"/>
<path d="M131.5,884.4l-.2,-.2l.3,-4.5q.3,-5.6,.5,-6c.1,-.2,1.6,-2.3,3.3,-4.6c1.7,-2.4,4.3,-6.1,5.9,-8.3c1.5,-2.1,2.8,-3.9,2.9,-3.9c.4,0,.1,.4,-1.8,3.2c-1.2,1.6,-3.7,5.2,-5.7,8.1c-2,2.8,-3.6,5.1,-3.6,5.2c0,0,.5,0,1,.1c2,.2,3.3,.6,4.5,1.2c.6,.3,1,.6,1.5,1.1c.8,.8,1.2,1.4,1.4,2.2c.1,.3,.1,.5,.2,.5c.1,0,.7,-.8,5.2,-7.6c2.4,-3.6,4.5,-6.7,4.6,-6.8c.2,-.2,.4,-.1,.2,.2c0,.1,-1.5,2.4,-3.2,5c-1.8,2.7,-3.8,5.7,-4.5,6.8c-1.5,2.4,-2.1,3.3,-2.3,3.8c-.2,.3,-.3,.4,-.9,.7c-.8,.4,-8.7,3.9,-8.9,4c-.1,0,-.3,0,-.4,-.2Z" class="g2_69"/>
<path d="M135.2,882.5c2.2,-1,4,-1.8,4.6,-2.1c.7,-.3,.7,-.4,.7,-1.4c-.2,-1.7,-1.4,-3,-3.6,-3.7c-1.2,-.4,-4.3,-.9,-4.4,-.7c0,.1,-.1,1.5,-.2,3.2c-.1,1.7,-.2,3.3,-.2,3.6c-.1,1.1,.1,1.4,-.2,2.5c.1,.1,1.8,-.8,1.8,-.8c.1,0,.7,-.3,1.5,-.6Z" class="g2_69"/>
<path d="M131.5,884.4l-.2,-.2l.3,-4.5q.3,-5.6,.5,-6c.1,-.2,1.6,-2.3,3.3,-4.6c1.7,-2.4,4.3,-6.1,5.9,-8.3c1.5,-2.1,2.8,-3.9,2.9,-3.9c.4,0,.1,.4,-1.8,3.2c-1.2,1.6,-3.7,5.2,-5.7,8.1c-2,2.8,-3.6,5.1,-3.6,5.2c0,0,.5,0,1,.1c2,.2,3.3,.6,4.5,1.2c.6,.3,1,.6,1.5,1.1c.8,.8,1.2,1.4,1.4,2.2c.1,.3,.1,.5,.2,.5c.1,0,.7,-.8,5.2,-7.6c2.4,-3.6,4.5,-6.7,4.6,-6.8c.2,-.2,.4,-.1,.2,.2c0,.1,-1.5,2.4,-3.2,5c-1.8,2.7,-3.8,5.7,-4.5,6.8c-1.5,2.4,-2.1,3.3,-2.3,3.8c-.2,.3,-.3,.4,-.9,.7c-.8,.4,-8.7,3.9,-8.9,4c-.1,0,-.3,0,-.4,-.2Zm3.7,-1.9c2.2,-1,4,-1.8,4.6,-2.1c.7,-.3,.7,-.4,.7,-1.4c-.2,-1.7,-1.4,-3,-3.6,-3.7c-1.2,-.4,-4.3,-.9,-4.4,-.7c0,.1,-.1,1.5,-.2,3.2c-.1,1.7,-.2,3.3,-.2,3.6c-.1,1.1,.1,1.4,-.2,2.5c.1,.1,1.8,-.8,1.8,-.8c.1,0,.7,-.3,1.5,-.6Z" class="g3_69"/>
<path d="M135.3,873.9l11.2,-16.1M138.3,875L149,859.3" class="g4_69"/>
<path d="M140.4,876.7l10,-14.4l.2,-.4" class="g5_69"/>
<path d="M134.1,873.5c-.4,-.1,-.8,-.2,-.9,-.2c0,0,2.5,-3.7,6.7,-9.6c1.9,-2.7,3.6,-5.2,3.8,-5.5c.2,-.3,.4,-.6,.5,-.6c.1,0,.7,.4,.9,.7c.1,.3,.1,.5,-.1,1c-.2,.5,-9.8,14.3,-9.9,14.3c-.1,0,-.5,-.1,-1,-.1Z" class="g6_69"/>
<path d="M137.6,874.2c-.2,-.1,-.8,-.2,-1.2,-.3l-.7,-.2l.3,-.4c.1,-.2,2.3,-3.3,4.8,-7l4.7,-6.6l.5,-.3c.9,-.5,1.6,-.5,2.1,0l.3,.3l-5,7.4c-3.1,4.5,-5.1,7.4,-5.1,7.4c-.1,0,-.4,-.1,-.7,-.3Z" class="g6_69"/>
<path d="M140,875.7c-.2,-.3,-.6,-.6,-.8,-.7c-.2,-.1,-.3,-.3,-.3,-.3c0,-.1,9.4,-14,9.8,-14.6c.1,0,.5,.4,.8,.8c.3,.4,.3,.5,.4,1c0,.3,0,.6,-.1,.7c-.2,.3,-9.1,13.2,-9.2,13.3q-.2,.2,-.6,-.2Z" class="g6_69"/>
<path d="M141.6,878.3c0,-.1,-.1,-.3,-.1,-.5c-.1,-.3,-.3,-.7,-.4,-.9l-.3,-.4l4.7,-6.8c2.6,-3.7,4.8,-6.8,4.8,-6.8c.4,0,1,.7,1,1.2c0,.1,-.6,1.1,-1.9,3c-1.1,1.6,-3.1,4.7,-4.6,6.9c-3,4.3,-3.1,4.5,-3.2,4.3Z" class="g6_69"/>
<path d="M131.9,879.8c2.3,-.1,3.6,.7,4.1,2.3" class="g7_69"/>
<path d="M132,883.7c0,-.3,.1,-.4,.1,-1.3c0,-.8,0,-.9,0,-1.4c0,-.2,0,-.5,0,-.7l.1,-.2c.1,0,.6,0,.7,0c.4,.1,.8,.2,1.1,.3c.2,0,.4,.2,.6,.3c.2,.1,.3,.2,.4,.3c.3,.3,.4,.5,.6,.8c0,.1,.1,.4,.1,.4c0,0,-1.5,.7,-1.8,.8c-.1,0,-.2,.1,-.3,.1c-1.1,.6,-1.4,.8,-1.6,.8Z" class="g2_69"/>
<path d="M136.2,881.6c-.6,-1.2,-1.8,-2,-3.4,-2.1h-.6V879c.1,-.3,.1,-1.3,.2,-2.2c0,-.9,.1,-1.8,.1,-1.9l.1,-.3l.7,.1c.8,0,2.3,.2,3.1,.5c1.7,.4,3.1,1.3,3.6,2.4c.4,.8,.6,2.1,.3,2.4c-.1,.2,-.8,.5,-2.5,1.3c-1.6,.7,-1.5,.7,-1.6,.3Z" class="g8_69"/>
<path d="M136.2,881.6c-.6,-1.2,-1.8,-2,-3.4,-2.1h-.6V879c.1,-.3,.1,-1.3,.2,-2.2c0,-.9,.1,-1.8,.1,-1.9l.1,-.3l.7,.1c.8,0,2.3,.2,3.1,.5c1.7,.4,3.1,1.3,3.6,2.4c.4,.8,.6,2.1,.3,2.4c-.1,.2,-.8,.5,-2.5,1.3c-1.6,.7,-1.5,.7,-1.6,.3Z" class="g9_69"/>
</g>
<path d="M152.7,901.5H524.9" class="g0_69"/>
<path d="M137.6,906.7v43.9" class="gb_69"/>
<path d="M117.7,1116.5V1001.6H791.8v114.9Z" class="g1_69"/>
<path d="M117.7,1116.5V1001.6H791.8v114.9Z" class="ga_69"/>
<g clip-path="url(#cb_69)">
<path clip-path="url(#c5_69)" d="M125.6,1043.5c-.1,-.1,-.1,-.3,0,-.3c0,-.2,.1,-1.3,0,-1.8c0,-.1,0,-.4,0,-.6c.1,-.9,.3,-2.2,.3,-2.3c0,0,0,-.2,.1,-.5c.1,-.5,.1,-.7,-.1,-1c-.3,-.6,-.9,-2,-1.1,-2.7c-.4,-1.8,-.5,-4.6,-.1,-6.1c.3,-1.1,.5,-1.2,.9,-.5c.3,.7,.4,.5,0,-.3c-.3,-.7,-.6,-2,-.5,-2.4c0,-.2,.2,-.7,.4,-1.1c.2,-.5,.4,-1,.5,-1.3c.1,-.4,.5,-.7,.9,-.5c.1,0,.2,.2,.3,.3q.2,.3,.1,-.2c-.1,-.3,-.2,-.5,-.1,-.6c0,0,0,-.1,0,-.3c.1,-.4,1,-2.1,1.6,-2.7c.3,-.2,.6,-.6,.7,-.7c.1,-.1,.5,-.4,.8,-.7c.3,-.2,.7,-.6,.9,-.8c.4,-.4,.7,-.4,.9,-.2q.2,.2,.2,-.1c0,-.2,0,-.5,0,-.6c.1,-.2,1.5,-1.1,2.1,-1.5c.3,-.1,.6,-.3,.8,-.4c.1,-.1,.3,-.2,.4,-.2c0,0,.4,-.2,.8,-.4c.4,-.2,.9,-.5,1,-.5c.2,-.1,.6,-.3,1,-.4c1.1,-.6,1.6,-.8,2.4,-1.1c.5,-.2,.9,-.3,1,-.3c0,-.1,.1,0,.3,.1l.2,.2l.4,-.4c.6,-.5,1.6,-.8,3.8,-1.1c.9,-.1,2.2,-.3,2.8,-.4l1,-.2l.1,.3q.1,.3,-.3,.4c-2.7,1.1,-4.6,2,-5.6,2.9c-.2,.2,-.4,.4,-.4,.4c-.1,0,-1.5,1.4,-1.5,1.5c0,.1,-.1,.2,-.2,.3c-.3,.2,-.6,.8,-.5,1.1c0,.2,-.1,.3,-.4,.5c-.3,.2,-.4,.3,-.4,.4c.2,.2,0,.9,-.2,1.2c-.7,.8,-1.7,2.3,-1.9,2.9c-.1,.1,-.2,.4,-.4,.7c-.2,.3,-.4,.8,-.5,1.1c-.4,1,-.4,.9,-1,1c-.5,0,-1.4,.3,-1.3,.4c0,0,.4,0,.9,-.1c1.1,-.1,1.2,0,.8,.7c-.4,.8,-.7,1.7,-.7,2.2c0,.3,-.2,.8,-.6,2.2c-.1,.4,-.3,.5,-.7,.8c-.5,.3,-.6,.3,-1.2,.3q-.7,0,-.6,.2c.1,.1,-.1,.5,-.5,1.3c-.3,.6,-.7,1.3,-.8,1.4c-.2,.1,-.4,.4,-.6,.7c-.2,.3,-.4,.6,-.5,.6c0,0,-.2,.1,-.3,.3c-.6,.8,-2.7,2.6,-3,2.6l.3,-3.2c.1,.1,.4,0,.6,-.3c.2,-.4,.5,-.5,1.1,-.6c.5,0,.6,-.1,1,-.5c.2,-.2,.6,-.9,.9,-1.4l.5,-.9l-.5,-.3c-.3,-.2,-.6,-.3,-.7,-.4c-.1,-.2,.4,-1,.7,-1.1c.2,-.1,.5,-.1,.7,-.1c.2,-.1,.5,-.2,.7,-.3c.3,-.2,.5,-.3,.7,-.3c.6,-.1,.8,-.4,.8,-1.3c.1,-1,.2,-1.1,.5,-1.2c.4,-.2,.7,-.1,.9,.1l.1,.3l.1,-.3c.1,-.3,.1,-.4,-.1,-.4c-.1,0,-.2,0,-.3,-.2c-.1,-.2,-.1,-.3,-.6,-.4c-.6,-.2,-.7,-.3,-.5,-.6c0,0,0,-.2,0,-.4c-.1,-.2,.4,-.7,1,-1c.5,-.1,.6,-.2,1.1,-1.2c.3,-.6,.8,-1.2,1,-1.5c.2,-.2,.5,-.5,.6,-.6c.1,-.2,.2,-.3,.4,-.3c.2,0,.4,0,.5,-.1c.2,-.2,.9,-1.2,.8,-1.2c0,0,-.2,.1,-.5,.2c-.8,.3,-1.8,.3,-2,-.1c-.2,-.3,.4,-1.1,.9,-1.2c.1,0,1.1,-.5,1.5,-.8c.1,-.1,.3,-.4,.5,-.7c.3,-.8,.8,-1.4,1.2,-1.5c.5,-.2,.7,-.3,.9,-.8c.2,-.4,.1,-.7,-.4,-.8c-.1,-.1,-.3,-.2,-.4,-.4c0,-.1,-.1,-.2,-.2,-.2c-.3,0,-3,1.1,-4.1,1.7c-.2,.1,-.5,.3,-.7,.5c-.1,.2,-.5,.6,-.9,.9c-.4,.3,-.9,.7,-1,1c-.1,.2,-.4,.6,-.7,.9c-.4,.3,-.4,.5,-.4,1.2c-.1,.4,0,.9,.1,1.1c.3,.7,.2,1.1,-.3,1.1c-.5,-.1,-.8,-.4,-1.3,-1.6c-.3,-.5,-.6,-1,-.6,-1c-.2,0,-.8,.8,-1.1,1.3c-.2,.5,-.3,.6,-.7,.8c-.5,.1,-.5,.2,-.7,.7c-.1,.3,-.1,.6,-.1,.8c.1,.1,.1,.2,.1,.3c-.1,.4,-.1,.8,.1,1.2c.2,.3,.3,.6,.3,.8c0,.2,.1,.6,.3,.9c.3,.6,.3,.7,.2,1.2c-.1,.3,-.1,.6,-.1,.7c-.1,.4,-.4,.3,-1.1,-.3c-.5,-.4,-1.2,-1.2,-2,-2.3c-.3,-.4,-.4,-.4,-.3,-.1c0,.1,-.1,.5,-.2,.8c-.2,.7,-.2,1.4,.2,1.8c.2,.2,.8,1.8,.9,2.2c0,.2,0,.4,.1,.5c.1,.3,.1,1,-.1,1.3c0,.1,0,.3,0,.4c0,.2,-.1,.3,-.2,.3c-.2,0,-.7,-.4,-1,-.7c-.1,-.1,-.3,-.3,-.5,-.5l-.2,-.3l-.1,.2c-.1,.3,0,.8,.1,1.2c.3,.8,.4,2.4,.2,2.9c-.1,.2,-.2,.4,-.4,.5c-.4,.3,-.3,.5,.4,1.5l.4,.5l.1,-.3c.1,-.2,.2,-.6,.3,-.9c.1,-.4,.2,-.9,.3,-1.1c.1,-.2,.2,-.5,.3,-.7q.1,-.6,2.3,-5.3q1,-2.1,1.9,-3.4c.7,-1.1,1.3,-2.1,1.9,-3c.8,-1.3,.9,-1.6,1.4,-2.2c.3,-.3,.7,-.8,.9,-1c.9,-1.2,1.1,-1.4,1.3,-1.4c.1,.1,.2,.1,.2,.2c0,0,-.2,.4,-.5,.8c-.3,.4,-.8,1.1,-1,1.6c-.9,1.4,-2.1,3.3,-2.5,3.9c-.2,.3,-.5,.8,-.6,1c-.1,.2,-.4,.6,-.5,.8c-.2,.3,-.3,.6,-.4,.8c0,.3,-.1,.7,-1.1,2.5c-.8,1.6,-1,2,-1.7,3.7c-.5,1.1,-.8,2.2,-.7,2.4l-.3,3.2c-.3,0,-.5,1.8,-.2,3c.1,.7,.1,1,-.2,1.2c-.6,.4,-1.1,1.2,-1.3,1.7c-.1,.4,-.2,.5,-.4,.5q-.2,0,-.3,-.1Z" class="gc_69"/>
<path d="M133.1,1030c-.1,-.1,-.3,-.1,-.4,-.1q-.1,0,0,.1c.1,.1,.3,.1,.4,.1c.2,0,.2,-.1,0,-.1Z" class="g1_69"/>
<path d="M144.5,1010.9q0,-.1,-.1,-.1c-.1,0,-.1,.1,-.2,.1c0,.1,0,.2,.1,.2c.1,-.1,.2,-.1,.2,-.2Z" class="g1_69"/>
<path d="M125.7,1043.5c-.1,0,-.1,-.1,-.1,-.3c.1,-.1,.1,-.8,.1,-1.7c0,-1.3,.1,-2.1,.4,-3.5l.1,-.6l-.5,-1c-.3,-.5,-.5,-1.2,-.6,-1.6c-.1,-.3,-.3,-.8,-.3,-.9c-.2,-.8,-.3,-2.9,-.3,-4c.1,-1.1,.5,-2.5,.7,-2.5c.1,0,.2,.1,.4,.5c.5,.8,.7,.7,.3,-.1c-.4,-.8,-.7,-1.8,-.7,-2.5c0,-.4,.5,-1.9,.9,-2.7c.2,-.3,.3,-.5,.5,-.5q.3,0,.9,.9l.5,.7l-.4,-.7c-.5,-1.2,-.4,-1.7,.3,-2.9c.3,-.6,.6,-1.1,.7,-1.2c.1,0,.4,-.3,.6,-.6c.3,-.3,.8,-.8,1.2,-1c.3,-.3,.7,-.7,.9,-.9c.4,-.4,.6,-.4,1,.2l.2,.4l-.1,-.5c-.1,-.8,0,-1,.8,-1.6c.5,-.3,.9,-.6,1,-.6c0,0,.1,0,.1,-.1c0,0,.1,-.1,.3,-.1q.2,0,.2,.1c-.1,.1,-.1,.2,-.2,.2c-.1,0,-.4,.2,-.7,.5c-.4,.3,-.8,.6,-.9,.7c-.3,.1,-.3,.2,-.3,.6c0,.3,.1,.7,.2,.9c.1,.5,.1,1,0,1c-.2,0,-.4,-.2,-.7,-.9l-.3,-.6l-.4,.2c-.1,.2,-.3,.3,-.3,.4c-.1,0,-.3,.2,-.6,.4c-.3,.3,-.6,.5,-.7,.6c-.1,.1,-.3,.4,-.6,.6c-.6,.6,-1.6,2.2,-1.5,2.5c.1,.4,1,2.3,1.7,3.5c.5,.9,.6,1.1,.4,1.1c-.2,-.1,-1.2,-.8,-1.6,-1.4c-.3,-.3,-.6,-.8,-.8,-.9c-.1,-.2,-.3,-.5,-.4,-.7c-.2,-.4,-.4,-.4,-.6,0c-.3,.5,-.8,2.1,-.9,2.5c-.1,.8,.6,2.6,1.5,3.8c.7,1,.7,1.2,-.1,.8c-.3,-.3,-1.3,-1.3,-1.5,-1.6c0,-.2,-.1,-.2,-.1,-.2c-.2,.1,-.4,1.1,-.4,1.7c0,.4,0,.8,-.1,.9c0,.1,0,.7,.1,1.3c.1,.6,.1,1.3,.1,1.5c.1,.6,1,3,1.1,3q.1,0,.1,-.1c0,0,.1,-.5,.3,-1.1c.2,-.6,.3,-1.2,.4,-1.4c0,-.2,.1,-.5,.1,-.6c.1,0,.2,-.3,.3,-.6c.1,-.5,.2,-.9,1.1,-2.7c.3,-.6,.7,-1.4,.9,-1.9c.8,-1.7,1.6,-3.2,2.2,-4.2c.7,-1,1.1,-1.6,1.9,-3c.2,-.4,.6,-.9,.7,-1.1c.2,-.2,.3,-.4,.3,-.5c.1,-.1,.3,-.4,.6,-.7c.2,-.3,.6,-.8,.8,-1c.9,-1.2,1.1,-1.4,1.2,-1.3c.2,.1,.2,.2,-.6,1.2c-.2,.3,-.6,.8,-.8,1.2c-.8,1.4,-2.1,3.4,-2.4,3.8c-.6,.9,-1.5,2.5,-1.5,2.8c0,.1,-.5,1.3,-1.2,2.6c-.7,1.3,-1.3,2.7,-1.5,3.1c-.1,.4,-.3,.8,-.3,.8c-.1,.1,-.5,1.3,-.6,1.8c0,.3,-.1,.7,-.1,1c-.2,.7,-.3,2,-.3,2c0,.1,.1,0,.3,-.1c.1,-.1,.3,-.3,.6,-.5c.2,-.1,.5,-.4,.8,-.7c.2,-.2,.4,-.4,.5,-.5c.6,-.6,.9,-.9,1.2,-1.4c.3,-.3,.6,-.7,.7,-.8c.3,-.3,1.2,-2,1.2,-2.1c-.1,-.1,-.4,-.3,-.9,-.5c-.9,-.5,-1,-.6,-.8,-.7c.1,-.1,1,0,1.8,.2c.2,0,.7,.1,1,0c.9,0,1.4,-.4,1.6,-1c.1,-.2,.2,-.6,.2,-.7c.1,-.3,.3,-1,.3,-1.6c.1,-.5,.4,-1.3,.6,-1.6l.2,-.3h-.5c-.5,.1,-1.6,-.1,-1.7,-.3c-.1,-.2,.7,-.6,1.6,-.8l.8,-.2l.2,-.6c.2,-.3,.3,-.7,.4,-.8c0,-.2,.1,-.4,.2,-.5c.1,-.1,.3,-.4,.4,-.6c0,-.2,.3,-.6,.4,-.9c1.4,-2,1.6,-2.3,1.5,-2.3c-.1,0,-.4,.1,-.6,.2c-.7,.3,-1.5,.4,-1.5,0c0,-.2,1.8,-1.3,2.7,-1.5q.4,-.1,.4,-.6c0,-.2,.2,-.6,.3,-.7c.1,-.2,.3,-.5,.4,-.7c.3,-.6,2.2,-2.2,3.2,-2.8c.7,-.4,1.8,-1,2.7,-1.4l.7,-.3l-1.6,.2c-2.6,.3,-3.7,.7,-4.4,1.5c-.3,.3,-.4,.4,-.5,.1c-.1,-.2,.6,-.9,1.2,-1.2c.6,-.2,1.7,-.5,2.4,-.6c.4,0,1.5,-.2,2.5,-.3c1.5,-.3,1.8,-.3,1.9,-.2c.4,.2,.3,.3,-.2,.5c-1.1,.5,-2.2,.9,-2.9,1.3c-.7,.3,-2,1,-2.2,1.2c-.1,.1,-.3,.3,-.6,.5c-.9,.7,-1.6,1.5,-1.8,1.8c-.1,.1,-.3,.4,-.4,.6c-.1,.1,-.3,.4,-.3,.6c0,.3,-.1,.5,-.4,.7c-.2,.1,-.5,.3,-.6,.3h-.2l.2,.1c.4,0,.5,.2,.3,.4c0,.1,-.1,.2,-.1,.3c.1,.1,-.1,.4,-.4,.6c-.2,.3,-.5,.7,-.6,.8c-.1,.2,-.3,.5,-.4,.8c-.4,.5,-.6,.9,-.7,1.1c0,.1,-.2,.5,-.4,.8c-.3,.5,-.4,.8,-.7,1.6c-.1,.3,-.2,.3,-.7,.4c-.7,.1,-1.5,.4,-1.4,.5c0,0,.4,0,.9,0c.8,-.2,.9,-.2,1,0c.1,.1,.1,.3,-.2,.7c-.3,.6,-.7,1.6,-.7,2.1c0,.3,-.3,1.3,-.6,2.2c-.1,.3,-.2,.5,-.6,.7c-.5,.3,-.6,.3,-1.2,.3c-.4,0,-.9,0,-1,-.1c-.2,0,-.5,-.1,-.8,-.1l-.6,-.1l.5,.2c.3,.1,.6,.2,.7,.2q.5,.1,.6,.2c.1,.1,-.9,2.1,-1.3,2.5c-.2,.2,-.5,.6,-.7,.8c-.1,.3,-.3,.5,-.4,.6c-.2,.1,-.4,.4,-.6,.6c-.4,.4,-1.3,1.3,-1.7,1.6c-.1,.1,-.4,.3,-.5,.4c-.1,.1,-.3,.3,-.5,.3c-.2,.1,-.3,.2,-.3,.5c-.1,.5,-.1,1.8,-.1,2.1c0,.1,.1,.4,.1,.8c.1,.5,.1,.6,-.2,.8c-.4,.4,-1,1.2,-1.3,1.8c-.1,.3,-.2,.5,-.2,.5c-.1,0,-.2,0,-.3,-.1Z" class="gd_69"/>
<path d="M128.2,1023.2q-.1,-.2,-.1,-.1c-.1,.1,0,.3,.1,.3c.1,0,.1,-.1,0,-.2Z" class="gd_69"/>
<path d="M139.7,1017.3c.2,-.1,.5,-.3,.7,-.4l.2,-.2l-.3,.1c-.5,0,-1.4,.5,-1.4,.7c0,.1,.3,0,.8,-.2Z" class="ge_69"/>
<path d="M139.7,1017.2c.4,-.2,.6,-.4,.2,-.2c-.3,.1,-.9,.4,-.7,.4c0,0,.3,-.1,.5,-.2Z" class="g1_69"/>
<path d="M134.9,1014c0,-.1,.6,-.5,.7,-.4q.2,.1,-.1,.2c-.1,.1,-.3,.2,-.4,.2q-.1,.1,-.2,0Z" class="gd_69"/>
<path d="M136.2,1013.3c.1,-.1,.2,-.2,.3,-.2q.2,0,.1,.1c-.1,.1,-.2,.2,-.3,.2q-.2,0,-.1,-.1Z" class="gd_69"/>
<path d="M137.1,1012.8c.1,-.2,.6,-.3,.7,-.2c0,0,-.5,.3,-.7,.3q-.1,0,0,-.1Z" class="gd_69"/>
<path d="M137.9,1012.4c0,0,.8,-.5,1.3,-.6c.3,-.1,.6,-.2,.7,-.3c.4,-.2,1.9,-.8,2.1,-.7c.2,.1,.1,.3,-.2,.3c-.5,.1,-1.7,.5,-3,1.1c-.6,.3,-.8,.4,-.9,.2Z" class="gd_69"/>
<path d="M125.7,1043.5c0,-.1,0,-.2,0,-.3c0,0,.1,-.6,.1,-1.2c0,-1.3,0,-1.9,.3,-4l.1,-.7l-.5,-1c-.3,-.6,-.5,-1.2,-.6,-1.6c-.1,-.3,-.2,-.7,-.2,-.9c-.3,-1.1,-.4,-4.2,-.1,-5.2c.1,-.4,.2,-.8,.2,-.9c.1,-.4,.2,-.3,.7,.3c.6,1.1,.9,1,.3,-.1c-.4,-.7,-.8,-2,-.8,-2.6c0,-.4,.6,-1.9,1,-2.7c.1,-.2,.2,-.4,.4,-.4c.2,0,.3,0,.5,.4c.5,.6,.6,.9,.5,.8c-.1,0,-.3,-.2,-.4,-.4c-.4,-.8,-.6,-.6,-1.2,.8c-.7,1.9,-.6,2.4,.7,4.8c.5,.8,.8,1.5,.7,1.5c-.2,.1,-1.4,-1.1,-1.7,-1.7c-.1,0,-.2,-.2,-.3,-.2q-.1,-.1,-.2,.1c-.3,.8,-.4,2.5,-.2,4c0,.5,.1,1.1,.1,1.4c0,.5,1,3.1,1.2,3.1c.1,0,.1,-.1,.1,-.3c0,-.1,.1,-.7,.3,-1.3c.2,-.5,.3,-1.1,.4,-1.3c0,-.2,0,-.3,.1,-.4c.1,0,.4,-1.1,.4,-1.2c0,0,.1,-.3,.2,-.6c.9,-1.8,1.3,-2.7,1.6,-3.5c.8,-1.5,1.6,-3.1,2.3,-4.2c.7,-1.1,1.3,-2.1,1.9,-3c.2,-.4,.5,-.9,.7,-1c.1,-.2,.3,-.4,.3,-.5c0,-.2,.6,-.8,.9,-1.1c.1,-.1,.3,-.4,.5,-.6c.6,-1,1,-1.4,1.1,-1.3q.1,0,-.6,.9c-.2,.4,-.7,1,-.9,1.4c-.8,1.4,-2,3.4,-2.3,3.7c-.6,.8,-1.6,2.7,-1.6,2.9c0,.2,-.5,1.3,-1.2,2.6c-.6,1.3,-1.3,2.6,-1.4,3c-.2,.4,-.4,1,-.6,1.4c-.2,.7,-.4,1.4,-.4,1.8c0,.1,-.1,.4,-.1,.7c-.1,.2,-.2,.7,-.2,1.1c-.1,.6,-.1,.8,.1,.8c.1,0,.2,-.1,.2,-.1c.1,-.1,.3,-.3,.6,-.5c.3,-.2,.5,-.5,.6,-.5c0,-.1,.3,-.3,.5,-.5c.7,-.7,1.1,-1.1,1.5,-1.7c.3,-.3,.6,-.7,.7,-.8c.2,-.2,1.1,-1.8,1.1,-2.1c0,-.1,-.1,-.2,-.6,-.4c-.7,-.4,-.6,-.4,.1,-.1c.3,.1,.6,.1,.7,.1c.4,-.1,.3,.3,-.2,1.3c-.3,.6,-.7,1.2,-.9,1.4c-.1,.2,-.4,.5,-.6,.8c-.2,.2,-.4,.5,-.5,.6c-.1,.1,-.3,.3,-.5,.5c-.1,.2,-.4,.4,-.6,.6c-.2,.2,-.5,.4,-.6,.6c-.1,.1,-.3,.3,-.3,.3c-.1,0,-.3,.1,-.5,.3c-.2,.2,-.5,.4,-.7,.5c-.2,.1,-.3,.2,-.3,.7c-.1,.3,-.1,.6,-.1,.7c0,0,0,.3,0,.5c0,.3,.1,.7,.1,1c.2,.8,.1,1.1,-.1,1.3c-.4,.2,-1.1,1.2,-1.3,1.7c-.2,.6,-.3,.6,-.5,.5Z" class="gf_69"/>
<path d="M134,1030c-.4,-.1,-.8,-.1,-1,-.2c-.2,0,-.4,-.1,-.5,-.1c-.1,0,-.3,0,-.4,-.1c-.1,0,-.3,0,-.4,0c-.1,0,-.2,0,-.3,0c-.1,-.3,.3,-.3,1.8,0c1.4,.3,2.5,-.1,2.7,-.9c0,-.2,.1,-.6,.2,-.8c.1,-.3,.2,-.6,.2,-.8c.1,-.4,.1,-.8,.3,-1.6c.1,-.3,.2,-.6,.4,-.8c.1,-.2,.2,-.3,.1,-.4c0,0,-.2,0,-.4,.1c-.4,.1,-1.6,-.1,-1.7,-.3c-.1,-.3,.8,-.7,2,-.8c.3,-.1,.4,-.1,.6,-.8c.6,-1.4,1.6,-3.2,2.9,-4.9c.1,-.1,.1,-.2,0,-.3c0,0,-.3,.1,-.7,.2c-.6,.3,-1.3,.4,-1.4,.2c0,-.1,0,-.2,.1,-.2q.2,-.1,.2,0c.1,.1,.1,.2,.1,.2c.3,0,1.3,-.5,1.6,-.7c.3,-.2,.6,-.3,.6,-.2c.1,.2,-.1,.9,-.2,1c-.2,.1,-.5,.5,-.7,.9c-.1,.1,-.4,.5,-.6,.8c-.3,.5,-.5,.9,-.6,1.2c-.1,.1,-.3,.5,-.4,.8c-.3,.5,-.6,1,-.8,1.6c-.1,.2,-.2,.3,-.7,.4c-.8,.1,-1.6,.4,-1.4,.6c0,0,.4,0,1,-.1c.8,-.1,.9,-.1,1,0c0,.1,-.1,.4,-.3,.7c-.3,.6,-.6,1.5,-.7,2.1c0,.2,-.1,.6,-.2,.9c-.1,.3,-.2,.7,-.2,.9c-.1,.5,-.4,.9,-.8,1.1c-.6,.3,-.7,.3,-1.4,.3Z" class="gf_69"/>
<path d="M129.6,1025.6c-.2,-.1,-.4,-.2,-.5,-.3c-.3,-.2,-1,-1,-1,-1.2c0,0,.1,0,.1,0c.1,0,.5,.4,.6,.5c.1,.1,.2,.2,.2,.2c.1,0,.1,-.1,-.1,-.4c-.1,-.1,-.3,-.5,-.4,-.7c-.1,-.3,-.4,-.9,-.6,-1.4c-.3,-.5,-.5,-1,-.5,-1.1c0,-.1,.2,-.6,.5,-1.1c.6,-1,1.6,-2.1,2.5,-2.8c.4,-.2,.8,-.6,.9,-.8c.4,-.5,.6,-.4,.9,.3c.2,.5,.3,.5,.4,.4c.1,0,.2,0,.2,0c0,0,.1,.2,.1,.4c.1,.6,-.1,.5,-.6,-.4c-.4,-.7,-.5,-.8,-.7,-.5c-.1,.2,-.7,.6,-1.1,.9c-.7,.5,-1.8,1.8,-2.5,3l-.4,.6l.7,1.4c.7,1.5,1.1,2.2,1.5,2.8c.2,.4,.2,.5,-.2,.2Z" class="gf_69"/>
<path d="M128.1,1023.7c-.1,-.1,0,-.2,0,-.2c.1,0,.1,.1,.2,.1c0,.1,0,.2,0,.2c-.1,0,-.2,-.1,-.2,-.1Z" class="gf_69"/>
<path d="M127.6,1022.7c-.3,-.6,-.2,-.8,0,-.5c.2,.2,.4,.8,.3,.9c-.1,.1,-.2,0,-.3,-.4Z" class="gf_69"/>
<path d="M140.1,1016.5c.5,-.3,1.1,-.4,1.2,-.3c.1,.1,-.1,.2,-.8,.4c-.8,.2,-.9,.2,-.4,-.1Z" class="gf_69"/>
<path d="M141.5,1016.1c0,-.1,0,-.3,0,-.5c0,-.5,.7,-1.7,1.3,-2.2c1.7,-1.7,3.9,-3,5.7,-3.6c.6,-.2,.6,-.3,-.1,-.2c-.3,.1,-1.3,.2,-2.2,.4c-1,.1,-1.9,.2,-2.1,.3c-.4,.2,-1.2,.7,-1.5,.9c-.2,.3,-.3,.4,-.4,.2c-.1,-.2,.9,-1,1.4,-1.2c1.1,-.3,1.4,-.4,2.1,-.5c.4,0,1.6,-.2,2.6,-.3c1.8,-.3,2,-.4,2.1,-.1c0,.1,-.3,.2,-.7,.4c-2.5,.9,-4.4,1.9,-5.3,2.8c-.2,.1,-.4,.3,-.4,.3c-.1,0,-.2,.1,-.3,.2c-.1,.1,-.3,.3,-.6,.6c-.2,.2,-.5,.5,-.6,.7c-.1,.2,-.3,.4,-.5,.6c-.1,.1,-.2,.4,-.3,.6c0,.4,-.1,.7,-.2,.6Z" class="gf_69"/>
<path d="M132.6,1016.5c-.1,-.1,-.2,-.7,-.1,-.9c0,-.1,.3,-.3,.6,-.5c.3,-.3,.7,-.5,.8,-.6l.2,-.1l-.1,.2c-.2,.2,-1,.9,-1.2,1c-.1,.1,-.2,.3,-.2,.4c0,.2,0,.4,0,.5q0,.2,0,0Z" class="gf_69"/>
<path d="M141.5,1011c.2,-.2,.5,-.3,.5,-.1c0,0,-.1,.1,-.3,.1q-.4,.1,-.2,0Z" class="gf_69"/>
<path d="M125.7,1043.5c0,-.1,0,-.2,0,-.3c0,0,.1,-.6,.1,-1.2c0,-1.2,0,-1.8,.4,-4.1q0,-.6,-.5,-1.6c-.3,-.6,-.5,-1.2,-.6,-1.6c-.1,-.3,-.2,-.7,-.2,-.9c-.3,-1.1,-.4,-4.2,-.1,-5.2c.1,-.4,.2,-.8,.2,-.9c.1,-.4,.2,-.3,.7,.3c.6,1.1,.9,1,.3,-.1c-.4,-.7,-.8,-2,-.8,-2.6c0,-.4,.6,-1.9,1,-2.7c.1,-.2,.2,-.4,.4,-.4c.2,0,.3,0,.5,.4c.5,.6,.6,.9,.5,.8c-.1,0,-.3,-.2,-.4,-.4c-.4,-.8,-.6,-.6,-1.2,.8c-.7,1.9,-.6,2.4,.7,4.8c.5,.8,.8,1.5,.7,1.5c-.2,.1,-1.4,-1.1,-1.7,-1.7c-.1,0,-.2,-.2,-.3,-.2q-.1,-.1,-.2,.1c-.3,.8,-.4,2.5,-.2,4c0,.5,.1,1.1,.1,1.4c0,.5,1,3.1,1.2,3.1c.1,0,.1,-.1,.1,-.3c0,-.1,.1,-.7,.3,-1.3c.2,-.5,.3,-1.1,.4,-1.3c0,-.2,0,-.3,.1,-.4c.1,0,.4,-1.1,.4,-1.2c0,0,.1,-.3,.2,-.6c.9,-1.8,1.3,-2.7,1.6,-3.5c.8,-1.5,1.6,-3.1,2.3,-4.2c.7,-1.1,1.3,-2.1,1.9,-3c.2,-.4,.5,-.9,.7,-1c.1,-.2,.3,-.4,.3,-.5c0,-.2,.6,-.8,.9,-1.1c.1,-.1,.3,-.4,.5,-.6c.6,-1,1,-1.4,1.1,-1.3q.1,0,-.7,1.1c-1.5,1.9,-2.3,3.2,-3.6,5.4c-.3,.3,-.7,1,-1,1.5c-.4,.5,-.5,.8,-.4,.8c.4,0,.3,.4,-.8,2.7c-.7,1.2,-1.4,2.6,-1.5,3c-.2,.4,-.4,1,-.6,1.4c-.2,.7,-.4,1.4,-.4,1.8c0,.1,-.1,.4,-.1,.7c-.1,.2,-.2,.7,-.2,1.1c-.1,.6,-.1,.8,.1,.8c.1,0,.2,-.1,.2,-.1c.1,-.1,.3,-.3,.6,-.5c.3,-.2,.5,-.5,.6,-.5c0,-.1,.3,-.3,.5,-.5c.7,-.7,1.1,-1.1,1.5,-1.7c.3,-.3,.6,-.7,.7,-.8c.2,-.2,1.1,-1.8,1.1,-2.1c0,-.1,-.1,-.2,-.6,-.4c-.7,-.4,-.6,-.4,.1,-.1c.3,.1,.6,.1,.7,.1c.4,-.1,.3,.3,-.2,1.3c-.3,.6,-.7,1.2,-.9,1.4c-.1,.2,-.4,.5,-.6,.8c-.2,.2,-.4,.5,-.5,.6c-.1,.1,-.3,.3,-.5,.5c-.1,.2,-.4,.4,-.6,.6c-.2,.2,-.5,.4,-.6,.6c-.1,.1,-.3,.3,-.3,.3c-.1,0,-.3,.1,-.5,.3c-.2,.2,-.5,.4,-.7,.5c-.2,.1,-.3,.2,-.3,.7c-.1,.3,-.1,.6,-.1,.7c0,0,0,.3,0,.5c0,.3,.1,.7,.1,1c.2,.8,.1,1.1,-.1,1.3c-.4,.2,-1.1,1.2,-1.3,1.7c-.2,.6,-.3,.6,-.5,.5Z" class="gg_69"/>
<path d="M134,1030c-.4,-.1,-.8,-.1,-1,-.2c-.2,0,-.4,-.1,-.5,-.1c-.1,0,-.3,0,-.4,-.1c-.1,0,-.3,0,-.4,0c-.1,0,-.2,0,-.3,0c-.1,-.3,.3,-.3,1.8,0c1.4,.3,2.5,-.1,2.7,-.9c0,-.2,.1,-.6,.2,-.8c.1,-.3,.2,-.6,.2,-.8c.1,-.4,.1,-.8,.3,-1.6c.1,-.3,.2,-.6,.4,-.8c.1,-.2,.2,-.3,.1,-.4c0,0,-.2,0,-.4,.1c-.4,.1,-1.6,-.1,-1.7,-.3c-.1,-.3,.8,-.7,2,-.8c.3,-.1,.4,-.1,.6,-.8c.6,-1.4,1.6,-3.2,2.9,-4.9c.1,-.1,.1,-.2,0,-.3c0,0,-.3,.1,-.7,.2c-.6,.3,-1.3,.4,-1.4,.2c0,-.1,0,-.2,.1,-.2q.2,-.1,.2,0c.1,.1,.1,.2,.1,.2c.3,0,1.3,-.5,1.6,-.7c.3,-.2,.6,-.3,.6,-.2c.1,.2,-.1,.9,-.2,1c-.2,.1,-.5,.5,-.7,.9c-.1,.1,-.4,.5,-.6,.8c-.3,.5,-.5,.9,-.6,1.2c-.1,.1,-.3,.5,-.4,.8c-.3,.5,-.6,1,-.8,1.6c-.1,.2,-.2,.3,-.7,.4c-.8,.1,-1.6,.4,-1.4,.6c0,0,.4,0,1,-.1c.8,-.1,.9,-.1,1,0c0,.1,-.1,.4,-.3,.7c-.3,.6,-.6,1.5,-.7,2.1c0,.2,-.1,.6,-.2,.9c-.1,.3,-.2,.7,-.2,.9c-.1,.5,-.4,.9,-.8,1.1c-.6,.3,-.7,.3,-1.4,.3Z" class="gg_69"/>
<path d="M129.6,1025.6c-.2,-.1,-.4,-.2,-.5,-.3c-.3,-.2,-1,-1,-1,-1.2c0,0,.1,0,.1,0c.1,0,.5,.4,.6,.5c.1,.1,.2,.2,.2,.2c.1,0,.1,-.1,-.1,-.4c-.1,-.1,-.3,-.5,-.4,-.7c-.1,-.3,-.4,-.9,-.6,-1.4c-.3,-.5,-.5,-1,-.5,-1.1c0,-.1,.2,-.6,.5,-1.1c.6,-1,1.6,-2.1,2.5,-2.8c.4,-.2,.8,-.6,.9,-.8c.4,-.5,.6,-.4,.9,.3c.2,.5,.3,.5,.4,.4c.1,0,.2,0,.2,0c0,0,.1,.2,.1,.4c.1,.6,-.1,.5,-.6,-.4c-.4,-.7,-.5,-.8,-.7,-.5c-.1,.2,-.7,.6,-1.1,.9c-.7,.5,-1.8,1.8,-2.5,3l-.4,.6l.7,1.4c.7,1.5,1.1,2.2,1.5,2.8c.2,.4,.2,.5,-.2,.2Z" class="gg_69"/>
<path d="M128.1,1023.7c-.1,-.1,0,-.2,0,-.2c.1,0,.1,.1,.2,.1c0,.1,0,.2,0,.2c-.1,0,-.2,-.1,-.2,-.1Z" class="gg_69"/>
<path d="M127.6,1022.7c-.3,-.6,-.2,-.8,0,-.5c.2,.2,.4,.8,.3,.9c-.1,.1,-.2,0,-.3,-.4Z" class="gg_69"/>
<path d="M140.1,1016.5c.5,-.3,1.1,-.4,1.2,-.3c.1,.1,-.1,.2,-.8,.4c-.8,.2,-.9,.2,-.4,-.1Z" class="gg_69"/>
<path d="M141.5,1016.1c0,-.1,0,-.3,0,-.5c0,-.5,.7,-1.7,1.3,-2.2c1.7,-1.7,3.9,-3,5.7,-3.6c.6,-.2,.6,-.3,-.1,-.2c-.3,.1,-1.3,.2,-2.2,.4c-1,.1,-1.9,.2,-2.1,.3c-.4,.2,-1.2,.7,-1.5,.9c-.2,.3,-.3,.4,-.4,.2c-.1,-.2,.9,-1,1.4,-1.2c1.1,-.3,1.4,-.4,2.1,-.5c.4,0,1.6,-.2,2.6,-.3c1.8,-.3,2,-.4,2.1,-.1c0,.1,-.3,.2,-.7,.4c-2.5,.9,-4.4,1.9,-5.3,2.8c-.2,.1,-.4,.3,-.4,.3c-.1,0,-.2,.1,-.3,.2c-.1,.1,-.3,.3,-.6,.6c-.2,.2,-.5,.5,-.6,.7c-.1,.2,-.3,.4,-.5,.6c-.1,.1,-.2,.4,-.3,.6c0,.4,-.1,.7,-.2,.6Z" class="gg_69"/>
<path d="M132.6,1016.5c-.1,-.1,-.2,-.7,-.1,-.9c0,-.1,.3,-.3,.6,-.5c.3,-.3,.7,-.5,.8,-.6l.2,-.1l-.1,.2c-.2,.2,-1,.9,-1.2,1c-.1,.1,-.2,.3,-.2,.4c0,.2,0,.4,0,.5q0,.2,0,0Z" class="gg_69"/>
<path d="M141.5,1011c.2,-.2,.5,-.3,.5,-.1c0,0,-.1,.1,-.3,.1q-.4,.1,-.2,0Z" class="gg_69"/>
<path d="M127.2,1041.1c.1,-.1,.1,-.2,.1,-.5c-.1,-.3,-.1,-.9,-.1,-1.4c0,-.6,0,-1,0,-1.1c0,0,0,-.2,0,-.3c0,-.1,.1,-.5,.1,-.8c.1,-1.3,.1,-1.5,.5,-3.1c0,-.2,.1,-.5,.1,-.7c.2,-1,1.2,-3.2,2.4,-5.4c.6,-1.3,.9,-2,.9,-2.2c0,0,-.3,.5,-.6,1.1c-.3,.6,-.7,1.4,-.9,1.8c-.9,1.7,-1.9,4,-2,4.5c0,.2,-.2,.6,-.3,.8c0,.3,-.1,.5,-.1,.5c.1,.1,-.3,1.3,-.5,1.8c0,.2,-.1,.6,-.1,.8c-.1,.3,-.2,.7,-.2,1.1c-.3,1,-.5,2.6,-.3,2.8c0,.1,.2,.2,.4,.3c.4,.2,.3,.2,.6,0Z" class="gf_69"/>
<path d="M124.9,1033.9c-.1,-.2,-.3,-2.1,-.3,-3.2c0,-.8,.1,-1.6,.2,-2.2c.1,-.4,.2,-.8,.2,-.9c.1,-.3,.3,-.2,.6,.3c.1,.2,.4,.6,.6,.8l.3,.4l-.1,-.4c-.1,-.2,-.4,-.7,-.5,-1.1c-.4,-.8,-.7,-2.2,-.6,-2.7c.1,-.4,.6,-1.6,.9,-2.3c.2,-.4,.6,-.6,.8,-.3c0,.1,0,.2,-.2,.2c-.2,0,-.3,.2,-.5,.5c-.6,1.3,-.8,2.3,-.8,2.9c.1,.3,.3,.9,.5,1.5c.3,.8,.5,1.1,1,1.8c.3,.4,.5,.8,.5,.8c0,.2,-.6,-.2,-.9,-.4c-.1,-.2,-.3,-.4,-.4,-.5c-.1,-.2,-.4,-.5,-.6,-.7l-.3,-.5l-.1,.3c-.4,.9,-.5,2.5,-.3,4.3c.1,1.2,.1,1.6,0,1.4Z" class="gh_69"/>
<path d="M133.7,1029.9c-.2,0,-.4,0,-.6,-.1c-.2,-.1,-.4,-.1,-.5,-.1c-.2,0,-.8,-.2,-.8,-.2c0,-.1,.5,0,1,.1c1.3,.2,2,.2,2.5,-.2c.4,-.2,.5,-.4,.8,-1.2c.2,-1,.3,-1.2,.3,-1.7c.1,-.6,.2,-1,.6,-1.7c.1,-.2,.2,-.5,.2,-.5c0,0,-.2,0,-.5,0c-.3,.1,-.5,.1,-1.1,0l-.6,-.2l.1,-.2c.2,-.2,.8,-.4,1.6,-.6l.7,-.1l.3,-.7c.5,-1.4,1.6,-3.2,2.4,-4.4c.3,-.4,.5,-.7,.4,-.8q0,-.1,-.7,.2q-.7,.3,-.7,.2c0,-.1,.2,-.1,.3,-.2c.2,0,.5,-.2,.8,-.4c.4,-.3,.7,-.4,.8,-.3c.2,.1,-.1,.8,-.5,1.2c-.7,.8,-2,3.1,-2.6,4.5c-.1,.3,-.2,.6,-.3,.7c0,.1,-.2,.2,-.3,.2c-.8,.1,-1,.2,-1.4,.3q-.5,.2,-.3,.4c0,0,.3,0,1,-.1c.7,-.1,.9,-.1,.9,0c.1,.1,-.1,.5,-.3,.9c-.4,.7,-.6,1.4,-.6,1.9c0,.2,-.1,.7,-.2,1c-.2,.4,-.2,.8,-.2,.8c0,0,-.1,.2,-.2,.5c-.3,.6,-1.2,1,-2.3,.8Z" class="gh_69"/>
<path d="M131.5,1029.6q0,-.1,.1,-.1c0,0,.1,0,.1,0c0,0,0,.1,-.1,.1h-.1Z" class="gh_69"/>
<path d="M129.3,1025.4c-.6,-.4,-1.3,-1.4,-.9,-1.1c.1,0,.3,.2,.3,.2c.1,.2,.4,.4,.5,.3c0,-.1,.5,.4,.6,.7c.1,.2,.1,.3,.1,.3c0,0,-.3,-.2,-.6,-.4Z" class="gh_69"/>
<path d="M128.8,1024.3c0,-.1,-.2,-.3,-.2,-.5c-.1,-.3,-.4,-.9,-.6,-1.4c-.3,-.4,-.5,-.9,-.6,-1.1c0,-.2,.8,-1.9,1.2,-2.2c.1,-.1,.4,-.5,.7,-.8c.3,-.2,.6,-.6,.8,-.7c.6,-.4,.9,-.7,1.3,-1.1c.2,-.2,.4,-.3,.4,-.3c.3,.1,.3,.3,.1,.3c-.1,0,-.4,.2,-.7,.5c-.4,.3,-.7,.6,-.7,.6c-.2,0,-.4,.2,-.9,.8c-.3,.3,-.5,.6,-.6,.6c0,0,-.9,1.3,-1.2,1.8c-.2,.5,-.2,.6,.4,1.8c.8,1.5,.9,1.9,.6,1.7Z" class="gh_69"/>
<path d="M127.2,1023c-.1,-.2,-.1,-.3,0,-.2c.1,0,.2,.1,.3,.2c0,.2,0,.3,0,.3c-.1,0,-.2,-.1,-.3,-.3Z" class="gh_69"/>
<path d="M127.6,1022.8c0,-.2,-.1,-.4,-.2,-.5c0,-.1,0,-.2,0,-.2c.1,0,.5,.5,.5,.8c0,.2,-.2,.1,-.3,-.1Z" class="gh_69"/>
<path d="M138.4,1017.7c0,-.1,.1,-.1,.2,-.1c0,0,.1,0,.2,0c0,.1,-.1,.1,-.2,.1c-.1,0,-.2,0,-.2,0Z" class="gh_69"/>
<path d="M132.5,1017.7c-.1,-.3,.1,-.5,.3,-.2c.1,.2,.1,.4,0,.4c-.1,0,-.2,0,-.3,-.2Z" class="gh_69"/>
<path d="M140.3,1016.5c-.1,-.1,.8,-.4,.9,-.3c.1,0,.1,.1,0,.2c-.3,.1,-.9,.2,-.9,.1Z" class="gh_69"/>
<path d="M132.2,1017.1q-.1,-.1,-.1,-.2q.1,-.1,.2,0c0,.1,0,.2,0,.2q-.1,0,-.1,0Z" class="gh_69"/>
<path d="M141.6,1016c-.1,-.2,0,-1,.2,-1.2c.1,-.1,.3,-.4,.4,-.7c.2,-.2,.4,-.5,.5,-.6c.1,0,.3,-.2,.4,-.3c.4,-.5,2,-1.7,2.8,-2.2c.8,-.4,1.9,-.9,2.8,-1.2c.6,-.3,.6,-.4,0,-.3c-.3,.1,-1.3,.2,-2.2,.3c-1.7,.3,-2,.3,-2.4,.5c-.4,.1,-1.2,.6,-1.5,.9c-.1,.1,-.2,.2,-.3,.2c-.2,0,.8,-1,1.2,-1.1c.7,-.3,1.8,-.5,2.4,-.6c.4,0,1.5,-.2,2.4,-.3c.9,-.2,1.7,-.3,1.8,-.3c.3,.1,.3,.3,0,.4c-1.4,.5,-2.5,1,-3.3,1.4c-.8,.4,-1.7,.9,-2,1.1c0,.1,-.2,.3,-.4,.4c-1,.9,-1.8,1.7,-2,1.9c-.1,.2,-.2,.4,-.3,.4c-.1,0,-.4,.7,-.4,1c0,.3,-.1,.4,-.1,.3Z" class="gh_69"/>
<path d="M132.6,1015.6c-.1,-.1,.6,-.6,1,-.8c.3,-.2,.2,-.1,-.2,.3c-.4,.4,-.8,.6,-.8,.5Z" class="gh_69"/>
<path d="M141.7,1011q-.1,-.1,0,-.1c.1,-.1,.3,-.1,.2,0c0,.1,-.1,.1,-.2,.1Z" class="gh_69"/>
<path d="M125.9,1036.7c-.1,-.1,-.1,-.2,0,-.3c0,0,.1,.1,.1,.2c.1,.1,.1,.2,.1,.2c-.1,0,-.2,-.1,-.2,-.1Z" class="gi_69"/>
<path d="M129,1036.1c0,0,0,-.1,.1,-.1q.2,-.1,.2,0c-.1,.2,-.4,.2,-.3,.1Z" class="gi_69"/>
<path d="M125.6,1036.1c0,-.1,0,-.2,.1,-.2c0,.1,.1,.1,.1,.2q0,.2,-.2,0Z" class="gi_69"/>
<path d="M129.5,1035.6c0,0,.2,-.2,.4,-.4c.2,-.1,.5,-.4,.5,-.5c.2,-.3,.4,-.4,.4,-.2c0,.1,-1,1.1,-1.2,1.2q-.1,0,-.1,-.1Z" class="gi_69"/>
<path d="M125.4,1035.4c-.1,-.1,-.1,-.3,-.1,-.4q0,-.1,.1,.1c0,.1,.1,.3,.1,.3q0,.2,-.1,0Z" class="gi_69"/>
<path d="M131.2,1033.8c.2,-.3,1,-1.2,1.1,-1.4q.1,0,.1,0c.1,.1,0,.2,-.2,.4c-.1,.1,-.4,.5,-.6,.8c-.5,.6,-.8,.8,-.4,.2Z" class="gi_69"/>
<path d="M124.8,1033.4c0,-.1,0,-.2,0,-.2q.1,0,.2,.1c0,0,0,.1,0,.2q-.1,0,-.2,-.1Z" class="gi_69"/>
<path d="M132.5,1032.2c0,-.3,.6,-1.2,.7,-1.2c.1,.1,-.6,1.3,-.7,1.4c0,0,0,-.1,0,-.2Z" class="gi_69"/>
<path d="M124.8,1032.7c-.1,0,-.1,-.2,-.1,-.3c.1,-.2,.2,0,.2,.3c0,.1,-.1,.1,-.1,0Z" class="gi_69"/>
<path d="M124.7,1032.1c0,-.1,0,-.3,0,-.3c.1,-.2,.1,0,.1,.3v.2Z" class="gi_69"/>
<path d="M133.2,1030.8c0,-.1,0,-.3,-.1,-.4c-.1,-.1,0,-.1,.1,-.2c.4,0,.5,.1,.2,.5q-.1,.2,-.2,.1Z" class="gi_69"/>
<path d="M124.6,1030.9c0,-.2,.1,-.9,.1,-.8c.1,0,.1,.4,0,.7c0,.1,-.1,.2,-.1,.1Z" class="gi_69"/>
<path d="M134,1029.9c-.3,0,-.6,0,-.7,-.1q-.2,-.1,.1,0c.1,0,.5,0,.9,0c.5,0,.6,-.1,1,-.3c.3,-.2,.5,-.5,.6,-.7c.2,-.4,.2,-.3,.1,.2c-.1,.3,-.3,.5,-.7,.7c-.5,.2,-.6,.2,-1.3,.2Z" class="gi_69"/>
<path d="M132.4,1029.6c-.4,0,-.4,-.1,-.1,-.1c.2,0,.3,.1,.3,.1q.1,.1,.1,.1c-.1,0,-.2,0,-.3,-.1Z" class="gi_69"/>
<path d="M127,1029.9c-.3,-.2,-.5,-.6,-.4,-.7c.1,0,0,-.1,-.1,-.3c-.3,-.6,-1,-2.2,-1,-2.3c0,-.1,.1,0,.3,.4c.1,.4,.6,1.2,1,1.8c.3,.7,.6,1.2,.6,1.2c-.1,0,-.2,-.1,-.4,-.1Z" class="gi_69"/>
<path d="M124.7,1029.6c-.1,-.1,0,-.8,.2,-.9c0,0,0,.1,0,.2c0,.5,-.1,.8,-.2,.7Z" class="gi_69"/>
<path d="M136.1,1028.1c0,-.1,.1,-.2,.1,-.3q.1,-.1,.1,.1c0,.1,-.1,.2,-.1,.3q-.1,.1,-.1,-.1Z" class="gi_69"/>
<path d="M126.2,1028.9q-.1,-.1,0,-.1c0,.1,.1,.2,.1,.2c0,.1,-.1,.1,-.1,-.1Z" class="gi_69"/>
<path d="M124.9,1028.5c0,0,0,-.2,.1,-.3c0,-.2,.1,-.4,.1,-.5c0,-.4,.3,-.2,.4,.2q0,.2,0,.2c-.1,-.2,-.4,-.2,-.4,-.1c.1,.1,-.1,.6,-.2,.5Z" class="gi_69"/>
<path d="M136.3,1027.5c0,-.1,.1,-.2,.1,-.4q.1,-.3,.1,.1c0,.2,-.1,.4,-.2,.3Z" class="gi_69"/>
<path d="M136.5,1026.2c0,-.1,0,-.2,.1,-.2c0,-.1,.1,0,0,.1c0,.1,0,.2,0,.2c-.1,.1,-.1,0,-.1,-.1Z" class="gi_69"/>
<path d="M136.7,1025.7c-.1,-.2,.1,-.6,.3,-1c.2,-.1,.2,-.3,.2,-.4c-.1,-.1,-.3,-.1,-.7,0c-.7,.1,-.8,0,-.1,-.2c.4,0,.8,-.1,.9,-.1c.3,-.1,.3,.1,-.1,.9c-.3,.5,-.5,.8,-.5,.8Z" class="gi_69"/>
<path d="M129.5,1025.5c-.1,0,-.3,-.2,-.5,-.3c-.3,-.2,-.7,-.8,-.5,-.8c.1,0,.2,.1,.2,.2c.1,.1,.3,.2,.4,.3c.2,.1,.4,.2,.6,.5c.3,.3,.2,.4,-.2,.1Z" class="gi_69"/>
<path d="M125.3,1025.6c0,-.2,0,-.4,0,-.5c.1,-.4,.6,-1.7,.7,-1.7c.1,-.1,.1,.1,-.2,.8c-.1,.4,-.3,1,-.3,1.2q-.1,.4,-.2,.2Z" class="gi_69"/>
<path d="M135.4,1024.2c-.2,-.1,-.3,-.1,-.3,-.2c-.1,-.1,.7,-.5,1,-.5c.3,0,.2,.1,-.2,.2c-.5,.2,-.6,.3,-.4,.4q.2,.1,-.1,.1Z" class="gi_69"/>
<path d="M128.8,1024.1c-.1,0,-.1,-.2,-.2,-.4q0,-.2,.1,0c0,.1,.1,.3,.1,.4q.1,.2,0,0Z" class="gi_69"/>
<path d="M136.9,1023.3c.1,0,.2,0,.3,0c.1,.1,0,.1,-.2,.1q-.3,0,-.1,-.1Z" class="gi_69"/>
<path d="M137.5,1023c.1,-.2,.2,-.3,.2,-.3c.1,0,-.1,.5,-.2,.6c0,0,0,-.1,0,-.3Z" class="gi_69"/>
<path d="M128.4,1023.2c-.1,-.1,-.2,-.2,-.1,-.3q0,-.1,.1,.1c.2,.3,.2,.4,0,.2Z" class="gi_69"/>
<path d="M137.9,1022.2c0,-.1,.1,-.2,.1,-.2c.1,0,0,.4,-.1,.4c-.1,0,-.1,-.1,0,-.2Z" class="gi_69"/>
<path d="M127.3,1023.1q-.1,-.2,0,-.2c.2,.1,.2,.2,.1,.2q0,.1,-.1,0Z" class="gi_69"/>
<path d="M126,1023.1c-.1,-.1,.5,-.9,.7,-.9c.3,0,.3,.2,.1,.3c-.2,0,-.4,.2,-.5,.4c-.1,.3,-.2,.3,-.3,.2Z" class="gi_69"/>
<path d="M127.6,1022.6c-.1,-.2,-.1,-.3,-.1,-.4c.1,0,.4,.5,.3,.6q0,.1,-.2,-.2Z" class="gi_69"/>
<path d="M138,1021.7c0,-.1,.2,-.4,.3,-.4c.1,-.1,.1,-.2,.2,-.3c.1,-.5,1,-1.9,2,-3.3c.1,-.3,.1,-.4,0,-.5c-.1,-.1,-.1,-.2,.1,-.3c.1,-.1,.2,-.1,.3,-.1c.2,.1,0,.8,-.2,1c-.3,.2,-1.4,1.9,-1.7,2.4c-.6,1.2,-.9,1.7,-1,1.5Z" class="gi_69"/>
<path d="M127.9,1022.2q-.1,-.1,0,-.1c0,0,.1,0,.1,0q0,.1,0,.2c0,0,-.1,0,-.1,-.1Z" class="gi_69"/>
<path d="M127.5,1021.6c0,-.1,0,-.2,0,-.3c0,-.1,0,0,.1,.2c.1,.1,.2,.2,.1,.2c0,0,-.1,0,-.2,-.1Z" class="gi_69"/>
<path d="M127.7,1020.8c-.1,-.1,0,-.4,.1,-.3c.1,0,.1,.1,0,.2c0,.1,-.1,.2,-.1,.1Z" class="gi_69"/>
<path d="M128,1020c0,-.1,.1,-.3,.3,-.4c.1,-.1,.2,-.3,.2,-.4c.1,0,.1,-.1,.2,-.1c.1,0,0,.2,-.4,.7c-.2,.3,-.3,.3,-.3,.2Z" class="gi_69"/>
<path d="M129,1018.7c.3,-.3,.8,-.8,.8,-.8c.1,0,-.4,.6,-.7,.9l-.2,.2Z" class="gi_69"/>
<path d="M132.6,1017.9c-.1,-.1,-.2,-.4,0,-.5c.1,0,.3,.4,.2,.5c0,0,-.1,0,-.2,0Z" class="gi_69"/>
<path d="M136.3,1017.4c.1,-.1,.2,-.2,.3,-.2l-.1,.2c-.1,.1,-.2,.2,-.3,.2c0,0,0,-.1,.1,-.2Z" class="gi_69"/>
<path d="M130.6,1017.3c.1,-.1,.2,-.2,.3,-.2c.1,0,-.2,.4,-.4,.4c-.1,0,0,-.1,.1,-.2Z" class="gi_69"/>
<path d="M140.7,1016.4c-.1,0,0,-.1,.1,-.1c.2,-.1,.4,-.1,.4,0c0,.1,-.4,.2,-.5,.1Z" class="gi_69"/>
<path d="M131.3,1016.6c.2,-.3,.5,-.4,.6,-.3c.1,.1,-.2,.3,-.7,.6c0,0,0,-.1,.1,-.3Z" class="gi_69"/>
<path d="M141.6,1015.2c0,0,.1,-.1,.1,-.2c.1,-.1,.2,-.2,.2,-.2c0,.1,0,.2,-.1,.3c-.1,.1,-.1,.2,-.2,.1Z" class="gi_69"/>
<path d="M142.2,1014.3c.2,-.5,.8,-1.1,2.4,-2.3c.8,-.7,2.6,-1.7,3.6,-2c1,-.3,1.1,-.4,1.1,-.6c-.2,-.2,.7,-.4,.9,-.2c.2,.1,.1,.3,-.1,.3c-.1,0,-.5,.1,-.8,.3c-.4,.1,-1,.4,-1.3,.5c-1.1,.4,-1.9,.8,-2.4,1.2c-.2,.2,-.5,.3,-.6,.4c-.1,0,-.4,.2,-.5,.4c-.2,.2,-.4,.3,-.4,.3c0,0,-.2,.1,-.4,.3c-1.1,1,-1.3,1.3,-1.3,1.5c0,.1,-.1,.2,-.2,.2c-.1,0,-.1,-.1,0,-.3Z" class="gi_69"/>
<path d="M133,1015.3q0,-.1,.1,-.1c0,0,.1,0,0,.1c0,0,0,.1,-.1,.1c0,0,0,-.1,0,-.1Z" class="gi_69"/>
<path d="M142.3,1011.3c0,0,0,-.1,.1,-.1c.1,-.1,.2,-.1,.2,-.1c0,0,0,.1,-.1,.2c-.1,0,-.2,.1,-.2,0Z" class="gi_69"/>
<path d="M143,1010.6c.1,-.2,.5,-.3,.5,-.2c.1,.1,-.3,.3,-.5,.4q-.2,.1,0,-.2Z" class="gi_69"/>
<path d="M144.6,1010c.1,0,.2,-.1,.3,-.1q.1,0,0,.1c-.1,0,-.2,.1,-.3,.1q-.1,0,0,-.1Z" class="gi_69"/>
<path d="M145.2,1009.9c0,-.1,.4,-.2,.9,-.2c.6,-.1,.9,-.1,.9,0c0,0,-.4,.1,-.9,.2c-.6,0,-.9,0,-.9,0Z" class="gi_69"/>
<path d="M147.1,1009.6c.1,0,.4,-.1,.9,-.1c.5,-.1,.7,-.1,.6,0c-.3,.1,-1.5,.2,-1.5,.1Z" class="gi_69"/>
<path d="M125.8,1043.4c0,0,0,-.3,0,-.7c0,-.4,0,-.7,0,-.7c0,-.1,0,-.9,0,-1q.1,-.1,.5,0c.9,.5,1.2,.3,1,-.7c-.1,-1,.1,-1.1,.3,-.1c.1,.7,.1,.8,-.2,1c-.6,.5,-1.5,2,-1.4,2.2c.1,0,0,0,-.1,.1c0,0,-.1,0,-.1,-.1Z" class="gj_69"/>
<path d="M127.3,1039.4c0,-.1,0,-.7,.1,-.8c.1,-.1,.1,0,.1,.4c-.1,.4,-.1,.5,-.2,.4Z" class="gj_69"/>
<path d="M127.3,1038.1c0,0,0,-.2,0,-.5c0,-.3,.1,-.8,.1,-1.1c.1,-1,.5,-3.2,.7,-3.2c0,0,0,.1,0,.3c0,.1,-.1,.4,-.1,.5c0,.1,-.1,.4,-.1,.6c-.2,.7,-.3,2.1,-.1,2.2c0,.1,0,.2,-.1,.2c0,0,-.1,.3,-.2,.5c0,.5,-.1,.7,-.2,.5Z" class="gj_69"/>
<path d="M126.2,1037.8c0,0,0,-.1,.1,-.2c0,0,0,-.2,0,-.3c-.1,-.2,.2,-.6,.3,-.5c0,.1,-.2,1.1,-.3,1.1l-.1,-.1Z" class="gj_69"/>
<path d="M125.9,1036.7c-.1,-.1,-.1,-.2,0,-.3c0,0,.1,.1,.1,.2c.1,.1,.1,.2,.1,.2c-.1,0,-.2,-.1,-.2,-.1Z" class="gj_69"/>
<path d="M126.5,1036.5c0,0,0,-.4,.2,-.8c.1,-.4,.2,-1,.3,-1.4c.1,-.4,.2,-.7,.3,-.8c.1,-.1,.1,0,0,.3c0,.3,-.1,.5,-.1,.6c-.1,.8,-.6,2.3,-.7,2.1Z" class="gj_69"/>
<path d="M129,1036.1c0,0,0,-.1,.1,-.1q.2,-.1,.2,0c-.1,.2,-.4,.2,-.3,.1Z" class="gj_69"/>
<path d="M125.6,1036.1c0,-.1,0,-.2,.1,-.2c0,.1,.1,.1,.1,.2q0,.2,-.2,0Z" class="gj_69"/>
<path d="M129.5,1035.6c0,0,.2,-.2,.4,-.4c.2,-.1,.5,-.4,.5,-.5c.2,-.3,.4,-.4,.4,-.2c0,.1,-1,1.1,-1.2,1.2q-.1,0,-.1,-.1Z" class="gj_69"/>
<path d="M125.4,1035.4c-.1,-.1,-.1,-.3,-.1,-.4q0,-.1,.1,.1c0,.1,.1,.3,.1,.3q0,.2,-.1,0Z" class="gj_69"/>
<path d="M131.2,1033.8c.2,-.3,1,-1.2,1.1,-1.4q.1,0,.1,0c.1,.1,0,.2,-.2,.4c-.1,.1,-.4,.5,-.6,.8c-.5,.6,-.8,.8,-.4,.2Z" class="gj_69"/>
<path d="M124.8,1033.4c0,-.1,0,-.2,0,-.2q.1,0,.2,.1c0,0,0,.1,0,.2q-.1,0,-.2,-.1Z" class="gj_69"/>
<path d="M128.1,1033.1c0,-.5,1.5,-4,2.7,-6.2c.2,-.4,.5,-.9,.5,-1.1c0,-.3,.2,-.5,.3,-.3c.1,.1,-.2,.8,-1.3,2.8c-.5,1,-1,2.1,-1.2,2.5c-.2,.6,-.6,1.5,-.9,2.1c-.1,.2,-.1,.3,-.1,.2Z" class="gj_69"/>
<path d="M127.5,1032.8c0,0,0,-.1,.1,-.1c0,0,.1,0,.1,0q0,.1,0,.1q-.1,0,-.2,0Z" class="gj_69"/>
<path d="M132.5,1032.2c0,-.3,.6,-1.2,.7,-1.2c.1,.1,-.6,1.3,-.7,1.4c0,0,0,-.1,0,-.2Z" class="gj_69"/>
<path d="M124.8,1032.7c-.1,0,-.1,-.2,-.1,-.3c.1,-.2,.2,0,.2,.3c0,.1,-.1,.1,-.1,0Z" class="gj_69"/>
<path d="M127.6,1032.2c0,0,0,-.1,.1,-.1q.1,0,.1,0c.1,.2,-.1,.2,-.2,.1Z" class="gj_69"/>
<path d="M124.7,1032.1c0,-.1,0,-.3,0,-.3c.1,-.2,.1,0,.1,.3v.2Z" class="gj_69"/>
<path d="M127.9,1031.8c-.1,0,.3,-.7,.4,-.6c0,0,-.1,.1,-.2,.3c-.1,.3,-.2,.4,-.2,.3Z" class="gj_69"/>
<path d="M133.2,1030.8c0,-.1,0,-.3,-.1,-.4c-.1,-.1,0,-.1,.1,-.2c.4,0,.5,.1,.2,.5q-.1,.2,-.2,.1Z" class="gj_69"/>
<path d="M128.3,1031c0,-.1,.2,-.6,.5,-1.1c.3,-.6,.4,-.8,.3,-.5c-.2,.5,-.9,1.9,-.8,1.6Z" class="gj_69"/>
<path d="M124.6,1030.9c0,-.2,.1,-.9,.1,-.8c.1,0,.1,.4,0,.7c0,.1,-.1,.2,-.1,.1Z" class="gj_69"/>
<path d="M134,1029.9c-.3,0,-.6,0,-.7,-.1q-.2,-.1,.1,0c.1,0,.5,0,.9,0c.5,0,.6,-.1,1,-.3c.3,-.2,.5,-.5,.6,-.7c.2,-.4,.2,-.3,.1,.2c-.1,.3,-.3,.5,-.7,.7c-.5,.2,-.6,.2,-1.3,.2Z" class="gj_69"/>
<path d="M132.4,1029.6c-.4,0,-.4,-.1,-.1,-.1c.2,0,.3,.1,.3,.1q.1,.1,.1,.1c-.1,0,-.2,0,-.3,-.1Z" class="gj_69"/>
<path d="M127,1029.9c-.3,-.2,-.5,-.6,-.4,-.7c.1,0,0,-.1,-.1,-.3c-.3,-.6,-1,-2.2,-1,-2.3c0,-.1,.1,0,.3,.4c.1,.4,.6,1.2,1,1.8c.3,.7,.6,1.2,.6,1.2c-.1,0,-.2,-.1,-.4,-.1Z" class="gj_69"/>
<path d="M124.7,1029.6c-.1,-.1,0,-.8,.2,-.9c0,0,0,.1,0,.2c0,.5,-.1,.8,-.2,.7Z" class="gj_69"/>
<path d="M136.1,1028.1c0,-.1,.1,-.2,.1,-.3q.1,-.1,.1,.1c0,.1,-.1,.2,-.1,.3q-.1,.1,-.1,-.1Z" class="gj_69"/>
<path d="M126.2,1028.9q-.1,-.1,0,-.1c0,.1,.1,.2,.1,.2c0,.1,-.1,.1,-.1,-.1Z" class="gj_69"/>
<path d="M129.3,1028.6c.1,-.2,.2,-.3,.2,-.3c.1,.1,0,.3,-.1,.4q-.2,.1,-.1,-.1Z" class="gj_69"/>
<path d="M129.8,1027.6c.1,-.3,.3,-.5,.3,-.6c0,0,.2,-.4,.5,-.9c.2,-.5,.6,-1.2,.7,-1.4c.2,-.2,.5,-.8,.8,-1.2c.4,-.7,.6,-.9,.7,-.8c0,.1,-.2,.4,-1,1.5c-.2,.4,-.5,.9,-.7,1.2c-.1,.2,-.3,.7,-.5,1.1c-.2,.4,-.5,1,-.6,1.2c-.3,.7,-.5,.6,-.2,-.1Z" class="gj_69"/>
<path d="M124.9,1028.5c0,0,0,-.2,.1,-.3c0,-.2,.1,-.4,.1,-.5c0,-.4,.3,-.2,.4,.2q0,.2,0,.2c-.1,-.2,-.4,-.2,-.4,-.1c.1,.1,-.1,.6,-.2,.5Z" class="gj_69"/>
<path d="M136.3,1027.5c0,-.1,.1,-.2,.1,-.4q.1,-.3,.1,.1c0,.2,-.1,.4,-.2,.3Z" class="gj_69"/>
<path d="M136.5,1026.2c0,-.1,0,-.2,.1,-.2c0,-.1,.1,0,0,.1c0,.1,0,.2,0,.2c-.1,.1,-.1,0,-.1,-.1Z" class="gj_69"/>
<path d="M136.7,1025.7c-.1,-.2,.1,-.6,.3,-1c.2,-.1,.2,-.3,.2,-.4c-.1,-.1,-.3,-.1,-.7,0c-.7,.1,-.8,0,-.1,-.2c.4,0,.8,-.1,.9,-.1c.3,-.1,.3,.1,-.1,.9c-.3,.5,-.5,.8,-.5,.8Z" class="gj_69"/>
<path d="M129.5,1025.5c-.1,0,-.3,-.2,-.5,-.3c-.3,-.2,-.7,-.8,-.5,-.8c.1,0,.2,.1,.2,.2c.1,.1,.3,.2,.4,.3c.2,.1,.4,.2,.6,.5c.3,.3,.2,.4,-.2,.1Z" class="gj_69"/>
<path d="M125.3,1025.6c0,-.2,0,-.4,0,-.5c.1,-.4,.6,-1.7,.7,-1.7c.1,-.1,.1,.1,-.2,.8c-.1,.4,-.3,1,-.3,1.2q-.1,.4,-.2,.2Z" class="gj_69"/>
<path d="M135.4,1024.2c-.2,-.1,-.3,-.1,-.3,-.2c-.1,-.1,.7,-.5,1,-.5c.3,0,.2,.1,-.2,.2c-.5,.2,-.6,.3,-.4,.4q.2,.1,-.1,.1Z" class="gj_69"/>
<path d="M128.8,1024.1c-.1,0,-.1,-.2,-.2,-.4q0,-.2,.1,0c0,.1,.1,.3,.1,.4q.1,.2,0,0Z" class="gj_69"/>
<path d="M136.9,1023.3c.1,0,.2,0,.3,0c.1,.1,0,.1,-.2,.1q-.3,0,-.1,-.1Z" class="gj_69"/>
<path d="M137.5,1023c.1,-.2,.2,-.3,.2,-.3c.1,0,-.1,.5,-.2,.6c0,0,0,-.1,0,-.3Z" class="gj_69"/>
<path d="M128.4,1023.2c-.1,-.1,-.2,-.2,-.1,-.3q0,-.1,.1,.1c.2,.3,.2,.4,0,.2Z" class="gj_69"/>
<path d="M137.9,1022.2c0,-.1,.1,-.2,.1,-.2c.1,0,0,.4,-.1,.4c-.1,0,-.1,-.1,0,-.2Z" class="gj_69"/>
<path d="M127.3,1023.1q-.1,-.2,0,-.2c.2,.1,.2,.2,.1,.2q0,.1,-.1,0Z" class="gj_69"/>
<path d="M126,1023.1c-.1,-.1,.5,-.9,.7,-.9c.3,0,.3,.2,.1,.3c-.2,0,-.4,.2,-.5,.4c-.1,.3,-.2,.3,-.3,.2Z" class="gj_69"/>
<path d="M127.6,1022.6c-.1,-.2,-.1,-.3,-.1,-.4c.1,0,.4,.5,.3,.6q0,.1,-.2,-.2Z" class="gj_69"/>
<path d="M133,1022.1c.1,-.2,.2,-.4,.3,-.3c.1,0,-.3,.6,-.4,.6c-.1,0,0,-.1,.1,-.3Z" class="gj_69"/>
<path d="M138,1021.7c0,-.1,.2,-.4,.3,-.4c.1,-.1,.1,-.2,.2,-.3c.1,-.5,1,-1.9,2,-3.3c.1,-.3,.1,-.4,0,-.5c-.1,-.1,-.1,-.2,.1,-.3c.1,-.1,.2,-.1,.3,-.1c.2,.1,0,.8,-.2,1c-.3,.2,-1.4,1.9,-1.7,2.4c-.6,1.2,-.9,1.7,-1,1.5Z" class="gj_69"/>
<path d="M127.9,1022.2q-.1,-.1,0,-.1c0,0,.1,0,.1,0q0,.1,0,.2c0,0,-.1,0,-.1,-.1Z" class="gj_69"/>
<path d="M133.4,1021.6c0,-.1,.5,-1,.8,-1.4c.1,-.2,.3,-.5,.4,-.6c.2,-.4,.8,-1.1,.9,-1c0,0,0,.1,-.1,.2c-.1,.1,-.3,.3,-.3,.4c-.1,0,-.3,.4,-.5,.7c-.3,.3,-.6,.8,-.7,1c-.3,.6,-.4,.8,-.5,.7Z" class="gj_69"/>
<path d="M127.5,1021.6c0,-.1,0,-.2,0,-.3c0,-.1,0,0,.1,.2c.1,.1,.2,.2,.1,.2c0,0,-.1,0,-.2,-.1Z" class="gj_69"/>
<path d="M127.7,1020.8c-.1,-.1,0,-.4,.1,-.3c.1,0,.1,.1,0,.2c0,.1,-.1,.2,-.1,.1Z" class="gj_69"/>
<path d="M128,1020c0,-.1,.1,-.3,.3,-.4c.1,-.1,.2,-.3,.2,-.4c.1,0,.1,-.1,.2,-.1c.1,0,0,.2,-.4,.7c-.2,.3,-.3,.3,-.3,.2Z" class="gj_69"/>
<path d="M129,1018.7c.3,-.3,.8,-.8,.8,-.8c.1,0,-.4,.6,-.7,.9l-.2,.2Z" class="gj_69"/>
<path d="M135.9,1017.9c.1,-.1,.2,-.2,.2,-.2c0,0,0,.2,-.1,.3l-.2,.2Z" class="gj_69"/>
<path d="M132.6,1017.9c-.1,-.1,-.2,-.4,0,-.5c.1,0,.3,.4,.2,.5c0,0,-.1,0,-.2,0Z" class="gj_69"/>
<path d="M130.6,1017.3c.1,-.1,.2,-.2,.3,-.2c.1,0,-.2,.4,-.4,.4c-.1,0,0,-.1,.1,-.2Z" class="gj_69"/>
<path d="M140.7,1016.4c-.1,0,0,-.1,.1,-.1c.2,-.1,.4,-.1,.4,0c0,.1,-.4,.2,-.5,.1Z" class="gj_69"/>
<path d="M131.3,1016.6c.2,-.3,.5,-.4,.6,-.3c.1,.1,-.2,.3,-.7,.6c0,0,0,-.1,.1,-.3Z" class="gj_69"/>
<path d="M141.6,1015.2c0,0,.1,-.1,.1,-.2c.1,-.1,.2,-.2,.2,-.2c0,.1,0,.2,-.1,.3c-.1,.1,-.1,.2,-.2,.1Z" class="gj_69"/>
<path d="M142.2,1014.3c.2,-.5,.8,-1.1,2.4,-2.3c.8,-.7,2.6,-1.7,3.6,-2c1,-.3,1.1,-.4,1.1,-.6c-.2,-.2,.7,-.4,.9,-.2c.2,.1,.1,.3,-.1,.3c-.1,0,-.5,.1,-.8,.3c-.4,.1,-1,.4,-1.3,.5c-1.1,.4,-1.9,.8,-2.4,1.2c-.2,.2,-.5,.3,-.6,.4c-.1,0,-.4,.2,-.5,.4c-.2,.2,-.4,.3,-.4,.3c0,0,-.2,.1,-.4,.3c-1.1,1,-1.3,1.3,-1.3,1.5c0,.1,-.1,.2,-.2,.2c-.1,0,-.1,-.1,0,-.3Z" class="gj_69"/>
<path d="M133,1015.3q0,-.1,.1,-.1c0,0,.1,0,0,.1c0,0,0,.1,-.1,.1c0,0,0,-.1,0,-.1Z" class="gj_69"/>
<path d="M142.3,1011.3c0,0,0,-.1,.1,-.1c.1,-.1,.2,-.1,.2,-.1c0,0,0,.1,-.1,.2c-.1,0,-.2,.1,-.2,0Z" class="gj_69"/>
<path d="M143,1010.6c.1,-.2,.5,-.3,.5,-.2c.1,.1,-.3,.3,-.5,.4q-.2,.1,0,-.2Z" class="gj_69"/>
<path d="M144.6,1010c.1,0,.2,-.1,.3,-.1q.1,0,0,.1c-.1,0,-.2,.1,-.3,.1q-.1,0,0,-.1Z" class="gj_69"/>
<path d="M145.2,1009.9c0,-.1,.4,-.2,.9,-.2c.6,-.1,.9,-.1,.9,0c0,0,-.4,.1,-.9,.2c-.6,0,-.9,0,-.9,0Z" class="gj_69"/>
<path d="M147.1,1009.6c.1,0,.4,-.1,.9,-.1c.5,-.1,.7,-.1,.6,0c-.3,.1,-1.5,.2,-1.5,.1Z" class="gj_69"/>
<path d="M128.2,1023.2q-.1,-.2,-.1,-.1c-.1,.1,0,.3,.1,.3c.1,0,.1,-.1,0,-.2Z" class="ge_69"/>
</g>
<path d="M152.7,1055H383.1" class="g0_69"/>
<path d="M137.6,1063.2v43.9" class="gb_69"/>
</svg>