<?xml version="1.0" encoding="UTF-8" standalone="no"?>
<!DOCTYPE svg PUBLIC "-//W3C//DTD SVG 1.1//EN"
"http://www.w3.org/Graphics/SVG/1.1/DTD/svg11.dtd">
<svg viewBox="0 0 909 1286" version="1.1" xmlns="http://www.w3.org/2000/svg" xmlns:xlink="http://www.w3.org/1999/xlink">
<defs>
<clipPath id="c0_20"><path d="M122.1,221V186.5H153V221Z"/></clipPath>
<style type="text/css"><![CDATA[
.g0_20{
fill: none;
stroke: #000000;
stroke-width: 0.73;
stroke-linecap: butt;
stroke-linejoin: miter;
}
.g1_20{
fill: #FFFFFF;
}
.g2_20{
fill: none;
stroke: #000000;
stroke-width: 1.461;
stroke-linecap: butt;
stroke-linejoin: miter;
}
.g3_20{
fill: #9F0202;
}
.g4_20{
fill: none;
stroke: #000000;
stroke-width: 0.375;
stroke-linecap: round;
stroke-linejoin: round;
}
.g5_20{
fill: none;
stroke: #000000;
stroke-width: 2.739;
stroke-linecap: butt;
stroke-linejoin: miter;
}
]]></style>
</defs>
<path d="M116.9,159.9H792.5" class="g0_20"/>
<path d="M117.7,428.5V180.3H791.8V428.5Z" class="g1_20"/>
<path d="M117.7,428.5V180.3H791.8V428.5Z" class="g2_20"/>
<path d="M156.8,344.1H783.7M157.1,375.7V344.4m626.3,31.3V344.4M157.1,401.5V375.7m626.3,25.8V375.7M156.8,401.9H783.7" class="g0_20"/>
<g clip-path="url(#c0_20)">
<path d="M133.8,209.9l-1,-.3c.6,-1.6,1.3,-2.9,1.9,-3.9c.7,-1,2,-2.3,3.7,-4c1.4,-1.2,2.3,-2.2,2.8,-2.9c.5,-.8,.9,-1.6,1.1,-2.4c.5,-1.7,.4,-3.2,-.4,-4.5c-.7,-1.3,-1.8,-2.2,-3.3,-2.6c-1.4,-.4,-2.5,-.4,-3.4,-.1c-.9,.4,-1.5,.8,-1.7,1.5c-.1,.5,-.1,1.2,.2,2c.2,.9,.3,1.5,.2,1.9c-.1,.4,-.4,.8,-.9,1c-.4,.3,-.9,.3,-1.4,.1c-.6,-.1,-1.1,-.6,-1.5,-1.3c-.4,-.7,-.4,-1.5,-.1,-2.5c.4,-1.5,1.5,-2.7,3.3,-3.4c1.9,-.7,4,-.8,6.6,0c3.1,.9,5.2,2.3,6.2,4.4c.8,1.5,1,2.9,.6,4.4c-.3,.9,-.9,1.9,-1.7,2.7c-.7,.9,-2,1.9,-3.8,2.9c-2.9,1.5,-4.7,2.7,-5.4,3.5c-.8,.8,-1.5,1.9,-2,3.5Z" class="g3_20"/>
<path d="M132.7,212.3c.7,.2,1.3,.6,1.7,1.2c.3,.6,.5,1.2,.3,1.8c-.2,.6,-.6,1.1,-1.2,1.4c-.7,.3,-1.3,.3,-2,.1c-.7,-.2,-1.3,-.6,-1.7,-1.2c-.3,-.6,-.4,-1.1,-.2,-1.8c.1,-.6,.5,-1,1.1,-1.3c.7,-.3,1.3,-.4,2,-.2Z" class="g3_20"/>
<path d="M133.8,209.9l-1,-.3c.6,-1.6,1.3,-2.9,1.9,-3.9c.7,-1,2,-2.3,3.7,-4c1.4,-1.2,2.3,-2.2,2.8,-2.9c.5,-.8,.9,-1.6,1.1,-2.4c.5,-1.7,.4,-3.2,-.4,-4.5c-.7,-1.3,-1.8,-2.2,-3.3,-2.6c-1.4,-.4,-2.5,-.4,-3.4,-.1c-.9,.4,-1.5,.8,-1.7,1.5c-.1,.5,-.1,1.2,.2,2c.2,.9,.3,1.5,.2,1.9c-.1,.4,-.4,.8,-.9,1c-.4,.3,-.9,.3,-1.4,.1c-.6,-.1,-1.1,-.6,-1.5,-1.3c-.4,-.7,-.4,-1.5,-.1,-2.5c.4,-1.5,1.5,-2.7,3.3,-3.4c1.9,-.7,4,-.8,6.6,0c3.1,.9,5.2,2.3,6.2,4.4c.8,1.5,1,2.9,.6,4.4c-.3,.9,-.9,1.9,-1.7,2.7c-.7,.9,-2,1.9,-3.8,2.9c-2.9,1.5,-4.7,2.7,-5.4,3.5c-.8,.8,-1.5,1.9,-2,3.5m-1.1,2.4c.8,.2,1.3,.6,1.7,1.2c.3,.6,.5,1.2,.3,1.8c-.2,.6,-.6,1.1,-1.2,1.4c-.7,.3,-1.3,.3,-2,.1c-.7,-.2,-1.3,-.6,-1.7,-1.2c-.3,-.6,-.4,-1.1,-.2,-1.8c.1,-.6,.5,-1,1.1,-1.3c.7,-.3,1.3,-.4,2,-.2" class="g4_20"/>
</g>
<path d="M152.7,216.3H410.2" class="g0_20"/>
<path d="M137.6,221.5V419.1" class="g5_20"/>
</svg>