<?xml version="1.0" encoding="UTF-8" standalone="no"?>
<!DOCTYPE svg PUBLIC "-//W3C//DTD SVG 1.1//EN"
"http://www.w3.org/Graphics/SVG/1.1/DTD/svg11.dtd">
<svg viewBox="0 0 909 1286" version="1.1" xmlns="http://www.w3.org/2000/svg" xmlns:xlink="http://www.w3.org/1999/xlink">
<defs>
<style type="text/css"><![CDATA[
.g0_6{
fill: none;
stroke: #000000;
stroke-width: 0.73;
stroke-linecap: butt;
stroke-linejoin: miter;
}
.g1_6{
}
.g2_6{
fill: none;
stroke: #999999;
stroke-width: 2.191;
stroke-linecap: butt;
stroke-linejoin: miter;
}
]]></style>
</defs>
<path d="M116.9,179.9h659m-448,29.6V180.3M158.7,225.9h9.2" class="g0_6"/>
<path d="M158.9,226.3h-1v-.8h1Z" class="g1_6"/>
<path d="M167.7,225.5h.9v.8h-.9Z" class="g1_6"/>
<path d="M158.7,223.5h9.2" class="g0_6"/>
<path d="M158.9,223.9h-1v-.7h1Z" class="g1_6"/>
<path d="M167.7,223.2h.9v.7h-.9Z" class="g1_6"/>
<path d="M158.7,221.2h9.2" class="g0_6"/>
<path d="M158.9,221.6h-1v-.8h1Z" class="g1_6"/>
<path d="M167.7,220.8h.9v.8h-.9Z" class="g1_6"/>
<path d="M327.9,238.7V209.5m0,58.4V238.7" class="g0_6"/>
<path d="M561.6,262L546.5,247.7m0,14.3l15.1,-14.3" class="g2_6"/>
<path d="M327.9,297.2V267.9m0,58.5V297.2m-211,29.5h659m-448,29.6V327.1M165.3,375.5h9.2" class="g0_6"/>
<path d="M165.5,375.9h-.9v-.7h.9Z" class="g1_6"/>
<path d="M174.3,375.2h.9v.7h-.9Z" class="g1_6"/>
<path d="M214.3,375.5h9.2" class="g0_6"/>
<path d="M214.5,375.9h-.9v-.7h.9Z" class="g1_6"/>
<path d="M223.3,375.2h.9v.7h-.9Z" class="g1_6"/>
<path d="M242.1,377.9h9.2" class="g0_6"/>
<path d="M242.3,378.2h-.9v-.7h.9Z" class="g1_6"/>
<path d="M251.1,377.5h1v.7h-1Z" class="g1_6"/>
<path d="M242.1,375.5h9.2" class="g0_6"/>
<path d="M242.3,375.9h-.9v-.7h.9Z" class="g1_6"/>
<path d="M251.1,375.2h1v.7h-1Z" class="g1_6"/>
<path d="M242.1,373.2h9.2" class="g0_6"/>
<path d="M242.3,373.5h-.9v-.7h.9Z" class="g1_6"/>
<path d="M251.1,372.8h1v.7h-1Z" class="g1_6"/>
<path d="M270,375.5h9.2" class="g0_6"/>
<path d="M270.1,375.9h-.9v-.7h.9Z" class="g1_6"/>
<path d="M279,375.2h.9v.7H279Z" class="g1_6"/>
<path d="M327.9,390.7V356.3M445.6,375.5h9.2" class="g0_6"/>
<path d="M445.8,375.9h-.9v-.7h.9Z" class="g1_6"/>
<path d="M454.6,375.2h.9v.7h-.9Z" class="g1_6"/>
<path d="M494.6,375.5h9.2" class="g0_6"/>
<path d="M494.8,375.9h-1v-.7h1Z" class="g1_6"/>
<path d="M503.6,375.2h.9v.7h-.9Z" class="g1_6"/>
<path d="M522.4,377.9h9.2" class="g0_6"/>
<path d="M522.6,378.2h-.9v-.7h.9Z" class="g1_6"/>
<path d="M531.4,377.5h.9v.7h-.9Z" class="g1_6"/>
<path d="M522.4,375.5h9.2" class="g0_6"/>
<path d="M522.6,375.9h-.9v-.7h.9Z" class="g1_6"/>
<path d="M531.4,375.2h.9v.7h-.9Z" class="g1_6"/>
<path d="M522.4,373.2h9.2" class="g0_6"/>
<path d="M522.6,373.5h-.9v-.7h.9Z" class="g1_6"/>
<path d="M531.4,372.8h.9v.7h-.9Z" class="g1_6"/>
<path d="M550.2,375.5h9.2" class="g0_6"/>
<path d="M550.4,375.9h-.9v-.7h.9Z" class="g1_6"/>
<path d="M559.2,375.2h.9v.7h-.9Z" class="g1_6"/>
<path d="M327.9,419.9V390.7m0,63.5V419.9M446.6,439.1h9.2" class="g0_6"/>
<path d="M446.8,439.4h-.9v-.7h.9Z" class="g1_6"/>
<path d="M455.6,438.7h.9v.7h-.9Z" class="g1_6"/>
<path d="M495.6,439.1h9.2" class="g0_6"/>
<path d="M495.8,439.4h-.9v-.7h.9Z" class="g1_6"/>
<path d="M504.6,438.7h.9v.7h-.9Z" class="g1_6"/>
<path d="M523.4,441.4h9.2" class="g0_6"/>
<path d="M523.6,441.8h-.9v-.7h.9Z" class="g1_6"/>
<path d="M532.4,441.1h.9v.7h-.9Z" class="g1_6"/>
<path d="M523.4,439.1h9.2" class="g0_6"/>
<path d="M523.6,439.4h-.9v-.7h.9Z" class="g1_6"/>
<path d="M532.4,438.7h.9v.7h-.9Z" class="g1_6"/>
<path d="M523.4,436.7h9.2" class="g0_6"/>
<path d="M523.6,437.1h-.9v-.7h.9Z" class="g1_6"/>
<path d="M532.4,436.4h.9v.7h-.9Z" class="g1_6"/>
<path d="M551.2,439.1h9.2" class="g0_6"/>
<path d="M551.4,439.4h-.9v-.7h.9Z" class="g1_6"/>
<path d="M560.2,438.7h1v.7h-1Z" class="g1_6"/>
<path d="M327.9,483.5V454.2m0,58.5V483.5m0,58.4V512.7m0,58.4V541.9" class="g0_6"/>
<path d="M635.3,565.2L620.2,550.9m0,14.3l15.1,-14.3" class="g2_6"/>
<path d="M327.9,600.4V571.1m0,58.5V600.4m-211,29.5h659m-448,29.6V630.3M158.7,676h9.2" class="g0_6"/>
<path d="M158.9,676.3h-1v-.7h1Z" class="g1_6"/>
<path d="M167.7,675.6h.9v.7h-.9Z" class="g1_6"/>
<path d="M158.7,673.6h9.2" class="g0_6"/>
<path d="M158.9,674h-1v-.8h1Z" class="g1_6"/>
<path d="M167.7,673.2h.9v.8h-.9Z" class="g1_6"/>
<path d="M158.7,671.3h9.2" class="g0_6"/>
<path d="M158.9,671.6h-1v-.7h1Z" class="g1_6"/>
<path d="M167.7,670.9h.9v.7h-.9Z" class="g1_6"/>
<path d="M186.5,673.6h9.2" class="g0_6"/>
<path d="M186.7,674h-.9v-.8h.9Z" class="g1_6"/>
<path d="M195.5,673.2h.9v.8h-.9Z" class="g1_6"/>
<path d="M228.8,675.2H238" class="g0_6"/>
<path d="M229,675.5h-.9v-.7h.9Z" class="g1_6"/>
<path d="M237.9,674.8h.9v.7h-.9Z" class="g1_6"/>
<path d="M228.8,672H238" class="g0_6"/>
<path d="M229,672.4h-.9v-.7h.9Z" class="g1_6"/>
<path d="M237.9,671.7h.9v.7h-.9Z" class="g1_6"/>
<path d="M327.9,688.8V659.5m0,63.6V688.8M438.9,710.3h9.2" class="g0_6"/>
<path d="M439.1,710.7h-.9v-.8h.9Z" class="g1_6"/>
<path d="M447.9,709.9h1v.8h-1Z" class="g1_6"/>
<path d="M438.9,707.9h9.2" class="g0_6"/>
<path d="M439.1,708.3h-.9v-.7h.9Z" class="g1_6"/>
<path d="M447.9,707.6h1v.7h-1Z" class="g1_6"/>
<path d="M438.9,705.6h9.2" class="g0_6"/>
<path d="M439.1,706h-.9v-.8h.9Z" class="g1_6"/>
<path d="M447.9,705.2h1v.8h-1Z" class="g1_6"/>
<path d="M466.8,707.9H476" class="g0_6"/>
<path d="M466.9,708.3H466v-.7h.9Z" class="g1_6"/>
<path d="M475.8,707.6h.9v.7h-.9Z" class="g1_6"/>
<path d="M509.1,709.5h9.2" class="g0_6"/>
<path d="M509.3,709.9h-.9v-.8h.9Z" class="g1_6"/>
<path d="M518.1,709.1h.9v.8h-.9Z" class="g1_6"/>
<path d="M509.1,706.4h9.2" class="g0_6"/>
<path d="M509.3,706.7h-.9V706h.9Z" class="g1_6"/>
<path d="M518.1,706h.9v.7h-.9Z" class="g1_6"/>
<path d="M327.9,752.3V723.1m0,63.6V752.3M439.9,773.9h9.2" class="g0_6"/>
<path d="M440.1,774.2h-.9v-.7h.9Z" class="g1_6"/>
<path d="M449,773.5h.9v.7H449Z" class="g1_6"/>
<path d="M439.9,771.5h9.2" class="g0_6"/>
<path d="M440.1,771.9h-.9v-.8h.9Z" class="g1_6"/>
<path d="M449,771.1h.9v.8H449Z" class="g1_6"/>
<path d="M439.9,769.2h9.2" class="g0_6"/>
<path d="M440.1,769.5h-.9v-.7h.9Z" class="g1_6"/>
<path d="M449,768.8h.9v.7H449Z" class="g1_6"/>
<path d="M467.8,771.5H477" class="g0_6"/>
<path d="M467.9,771.9H467v-.8h.9Z" class="g1_6"/>
<path d="M476.8,771.1h.9v.8h-.9Z" class="g1_6"/>
<path d="M510.1,773.1h9.2" class="g0_6"/>
<path d="M510.3,773.4h-.9v-.7h.9Z" class="g1_6"/>
<path d="M519.1,772.7h.9v.7h-.9Z" class="g1_6"/>
<path d="M510.1,769.9h9.2" class="g0_6"/>
<path d="M510.3,770.3h-.9v-.7h.9Z" class="g1_6"/>
<path d="M519.1,769.6h.9v.7h-.9Z" class="g1_6"/>
<path d="M327.9,815.9V786.7m0,58.4V815.9m0,58.4V845.1m0,58.5V874.3m0,58.5V903.6m0,58.4V932.8m0,58.4V962" class="g0_6"/>
<path d="M657.3,985.3L642.3,971m0,14.3l15,-14.3" class="g2_6"/>
<path d="M327.9,1020.5V991.2m-211,29.6h659" class="g0_6"/>
</svg>