<?xml version="1.0" encoding="UTF-8" standalone="no"?>
<!DOCTYPE svg PUBLIC "-//W3C//DTD SVG 1.1//EN"
"http://www.w3.org/Graphics/SVG/1.1/DTD/svg11.dtd">
<svg viewBox="0 0 1286 909" version="1.1" xmlns="http://www.w3.org/2000/svg" xmlns:xlink="http://www.w3.org/1999/xlink">
<defs>
<style type="text/css"><![CDATA[
.g0_1250{
fill: none;
stroke: #000000;
stroke-width: 0.73;
stroke-linecap: butt;
stroke-linejoin: miter;
}
.g1_1250{
fill: none;
stroke: #02B5EE;
stroke-width: 1.262;
stroke-linecap: butt;
stroke-linejoin: miter;
}
.g2_1250{
fill: none;
stroke: #5EE200;
stroke-width: 1.262;
stroke-linecap: butt;
stroke-linejoin: miter;
}
.g3_1250{
fill: none;
stroke: #FFA313;
stroke-width: 1.262;
stroke-linecap: butt;
stroke-linejoin: miter;
}
]]></style>
</defs>
<path d="M193,83.4h900.3M193,111.6h819.9m-819.9,0h819.9M581,141.2V112m0,114.3V141.2" class="g0_1250"/>
<path d="M782.5,202.3h78.3" class="g1_1250"/>
<path d="M871.3,202.3h96.2" class="g2_1250"/>
<path d="M978,202.3h23.9" class="g3_1250"/>
<path d="M581,255.5V226.3m0,58.4V255.5m0,114.2v-85" class="g0_1250"/>
<path d="M834,345.7h69.6" class="g1_1250"/>
<path d="M914.2,345.7h87.7" class="g2_1250"/>
<path d="M581,399V369.7m0,58.5V399m0,114.2v-85" class="g0_1250"/>
<path d="M731.1,489.2h34.7" class="g1_1250"/>
<path d="M776.3,489.2h225.6" class="g3_1250"/>
<path d="M581,542.4V513.2m0,58.5V542.4m0,59.4V571.7m0,115.2V601.8" class="g0_1250"/>
<path d="M718.6,662.9H871" class="g1_1250"/>
<path d="M881.5,662.9h22.1" class="g2_1250"/>
<path d="M914.2,662.9h87.7" class="g3_1250"/>
<path d="M581,716.1V686.9m0,58.4V716.1M193,745.7h819.9m-819.9,0h819.9" class="g0_1250"/>
</svg>