<?xml version="1.0" encoding="UTF-8" standalone="no"?>
<!DOCTYPE svg PUBLIC "-//W3C//DTD SVG 1.1//EN"
"http://www.w3.org/Graphics/SVG/1.1/DTD/svg11.dtd">
<svg viewBox="0 0 909 1286" version="1.1" xmlns="http://www.w3.org/2000/svg" xmlns:xlink="http://www.w3.org/1999/xlink">
<defs>
<clipPath id="c0_93"><path d="M119.5,282.8V249.3H789.9v33.5Z"/></clipPath>
<clipPath id="c1_93"><path d="M119.5,669.5V635.9H789.9v33.6Z"/></clipPath>
<style type="text/css"><![CDATA[
.g0_93{
fill: none;
stroke: #000000;
stroke-width: 0.73;
stroke-linecap: butt;
stroke-linejoin: miter;
}
.g1_93{
fill: #7F7F7F;
fill-opacity: 0.01;
}
.g2_93{
fill: #7F7F7F;
fill-opacity: 0.02;
}
.g3_93{
fill: #7F7F7F;
fill-opacity: 0.04;
}
.g4_93{
fill: #7F7F7F;
fill-opacity: 0.07;
}
.g5_93{
fill: #7F7F7F;
fill-opacity: 0.11;
}
.g6_93{
fill: #FFFFFF;
}
.g7_93{
fill: #7F7F7F;
}
.g8_93{
fill: #00AEEF;
}
.g9_93{
fill: #CBCEFB;
}
.ga_93{
fill: #EC008C;
}
]]></style>
</defs>
<path d="M116.9,159.9H792.5" class="g0_93"/>
<path d="M122.2,252c221.7,0,443.4,0,665,0V629c-221.6,-9.3,-443.3,-9.3,-665,0Z" class="g1_93"/>
<path d="M122.9,252.6c221.2,0,442.4,0,663.7,0V628.4C565.3,619,344.1,619,122.9,628.4Z" class="g2_93"/>
<path d="M123.5,253.2c220.8,0,441.6,0,662.5,0V627.8c-220.9,-9.4,-441.7,-9.4,-662.5,0Z" class="g3_93"/>
<path d="M124.1,253.8c220.4,0,440.8,0,661.2,0V627.1c-220.4,-9.3,-440.8,-9.3,-661.2,0Z" class="g4_93"/>
<path d="M124.7,254.5c220,0,440,0,660,0v372c-220,-9.3,-440,-9.3,-660,0Z" class="g5_93"/>
<path d="M125.4,255.1c219.5,0,439.1,0,658.7,0V625.9c-219.6,-9.4,-439.2,-9.4,-658.7,0Z" class="g5_93"/>
<path d="M126,255.7c219.1,0,438.3,0,657.5,0V625.3c-219.2,-9.4,-438.4,-9.4,-657.5,0Z" class="g4_93"/>
<path d="M126.6,256.3c218.8,0,437.5,0,656.3,0V624.6c-218.8,-9.3,-437.5,-9.3,-656.3,0Z" class="g3_93"/>
<path d="M127.2,257c218.4,0,436.7,0,655,0V624c-218.3,-9.3,-436.6,-9.3,-655,0Z" class="g2_93"/>
<path d="M127.9,257.6c217.9,0,435.8,0,653.7,0V623.4C563.7,614,345.8,614,127.9,623.4Z" class="g1_93"/>
<path d="M116.9,618.7v-372H792.5v372Z" class="g6_93"/>
<path d="M119.5,616.1V285.4H789.9V616.1Z" class="g6_93"/>
<path d="M119.5,282.8V249.3H789.9v33.5Z" class="g7_93"/>
<g clip-path="url(#c0_93)">
<image x="119" y="248" width="672" height="35" xlink:href="shade/1.png"/>
</g>
<path d="M659.9,277.6h104V254.5h-104v23.1Z" class="g8_93"/>
<path d="M209.8,330.6H699.6M210.2,360.2V330.9" class="g0_93"/>
<path d="M210.5,360.2H328.3V330.9H210.5v29.3Z" class="g9_93"/>
<path d="M328.7,360.2V330.9" class="g0_93"/>
<path d="M329,360.2h89.1V330.9H329v29.3Z" class="g9_93"/>
<path d="M418.4,360.2V330.9" class="g0_93"/>
<path d="M418.8,360.2H542.1V330.9H418.8v29.3Z" class="g9_93"/>
<path d="M542.4,360.2V330.9" class="g0_93"/>
<path d="M542.8,360.2H698.9V330.9H542.8v29.3Z" class="g9_93"/>
<path d="M699.3,360.2V330.9M209.8,360.5H699.6M210.2,390.1V360.9m118.5,29.2V360.9m89.7,29.2V360.9m124,29.2V360.9m156.9,29.2V360.9M209.8,390.5H699.6M210.2,420.1V390.8m118.5,29.3V390.8m89.7,29.3V390.8m124,29.3V390.8m156.9,29.3V390.8M209.8,420.4H699.6M210.2,450V420.8M328.7,450V420.8M418.4,450V420.8m124,29.2V420.8M699.3,450V420.8M209.8,450.4H699.6M210.2,480V450.8M328.7,480V450.8M418.4,480V450.8m124,29.2V450.8M699.3,480V450.8M209.8,480.3H699.6M210.2,509.9V480.7m118.5,29.2V480.7m89.7,29.2V480.7m124,29.2V480.7m156.9,29.2V480.7M209.8,510.3H699.6M210.2,539.9V510.7m118.5,29.2V510.7m89.7,29.2V510.7m124,29.2V510.7m156.9,29.2V510.7M209.8,540.3H699.6M210.2,569.8V540.6m118.5,29.2V540.6m89.7,29.2V540.6m124,29.2V540.6m156.9,29.2V540.6M209.8,570.2H699.6M210.2,599.8V570.6m118.5,29.2V570.6m89.7,29.2V570.6m124,29.2V570.6m156.9,29.2V570.6M209.8,600.2H699.6" class="g0_93"/>
<path d="M122.2,638.6c221.7,0,443.4,0,665,0v258c-221.6,-9.4,-443.3,-9.4,-665,0Z" class="g1_93"/>
<path d="M122.9,639.2c221.2,0,442.4,0,663.7,0V896c-221.3,-9.4,-442.5,-9.4,-663.7,0Z" class="g2_93"/>
<path d="M123.5,639.9c220.8,0,441.6,0,662.5,0V895.3C565.1,886,344.3,886,123.5,895.3Z" class="g3_93"/>
<path d="M124.1,640.5c220.4,0,440.8,0,661.2,0V894.7c-220.4,-9.3,-440.8,-9.3,-661.2,0Z" class="g4_93"/>
<path d="M124.7,641.1c220,0,440,0,660,0v253c-220,-9.4,-440,-9.4,-660,0Z" class="g5_93"/>
<path d="M125.4,641.7c219.5,0,439.1,0,658.7,0V893.5c-219.6,-9.4,-439.2,-9.4,-658.7,0Z" class="g5_93"/>
<path d="M126,642.4c219.1,0,438.3,0,657.5,0V892.8c-219.2,-9.3,-438.4,-9.3,-657.5,0Z" class="g4_93"/>
<path d="M126.6,643c218.8,0,437.5,0,656.3,0V892.2c-218.8,-9.3,-437.5,-9.3,-656.3,0Z" class="g3_93"/>
<path d="M127.2,643.6c218.4,0,436.7,0,655,0v248c-218.3,-9.4,-436.6,-9.4,-655,0Z" class="g2_93"/>
<path d="M127.9,644.2c217.9,0,435.8,0,653.7,0V891c-217.9,-9.4,-435.8,-9.4,-653.7,0Z" class="g1_93"/>
<path d="M116.9,886.3v-253H792.5v253Z" class="g6_93"/>
<path d="M119.5,883.7V672.1H789.9V883.7Z" class="g6_93"/>
<path d="M119.5,669.5V635.9H789.9v33.6Z" class="g7_93"/>
<g clip-path="url(#c1_93)">
<image x="119" y="635" width="672" height="34" xlink:href="shade/2.png"/>
</g>
<path d="M675.7,664.3h88.2V641.1H675.7v23.2Z" class="ga_93"/>
<path d="M340.6,688H568.8M341,717.6V688.4" class="g0_93"/>
<path d="M341.4,717.6H459.2V688.4H341.4v29.2Z" class="g9_93"/>
<path d="M459.5,717.6V688.4" class="g0_93"/>
<path d="M459.9,717.6H568.1V688.4H459.9v29.2Z" class="g9_93"/>
<path d="M568.4,717.6V688.4M340.6,718H568.8M341,747.6V718.3m118.5,29.3V718.3m108.9,29.3V718.3M340.6,747.9H568.8M341,777.5V748.3m118.5,29.2V748.3m108.9,29.2V748.3M340.6,777.9H568.8M341,807.5V778.2m118.5,29.3V778.2m108.9,29.3V778.2M340.6,807.8H568.8M341,837.4V808.2m118.5,29.2V808.2m108.9,29.2V808.2M340.6,837.8H568.8M341,867.4V838.1m118.5,29.3V838.1m108.9,29.3V838.1M340.6,867.7H568.8" class="g0_93"/>
</svg>