<?xml version="1.0" encoding="UTF-8" standalone="no"?>
<!DOCTYPE svg PUBLIC "-//W3C//DTD SVG 1.1//EN"
"http://www.w3.org/Graphics/SVG/1.1/DTD/svg11.dtd">
<svg viewBox="0 0 909 1286" version="1.1" xmlns="http://www.w3.org/2000/svg" xmlns:xlink="http://www.w3.org/1999/xlink">
<defs>
<style type="text/css"><![CDATA[
.g0_27{
fill: none;
stroke: #000000;
stroke-width: 0.73;
stroke-linecap: butt;
stroke-linejoin: miter;
}
.g1_27{
fill: #FDE8E9;
}
]]></style>
</defs>
<path d="M116.9,159.9H792.5" class="g0_27"/>
<path d="M167.6,212.5h43.9V184.6H167.6v27.9Z" class="g1_27"/>
<path d="M116.9,312.6h95.4V284.8H116.9v27.8Z" class="g1_27"/>
<path d="M420.9,387.9h64.3v-28H420.9v28Z" class="g1_27"/>
<path d="M116.9,488H246.1V460.1H116.9V488Z" class="g1_27"/>
<path d="M443.2,488h95.4V460.1H443.2V488Z" class="g1_27"/>
<path d="M668.2,488h95.4V460.1H668.2V488Z" class="g1_27"/>
<path d="M419.1,590.2H565.2V562.4H419.1v27.8Z" class="g1_27"/>
<path d="M232.2,619.9h61.6V592.1H232.2v27.8Z" class="g1_27"/>
<path d="M342.6,651.3h93.1V623.4H342.6v27.9Z" class="g1_27"/>
<path d="M452.6,651.3h65.5V623.4H452.6v27.9Z" class="g1_27"/>
<path d="M549.7,676.9h41.5V653.1H549.7v23.8Z" class="g1_27"/>
<path d="M608,681.1H766.5v-28H608v28Z" class="g1_27"/>
<path d="M342.6,706.7h44.3V682.9H342.6v23.8Z" class="g1_27"/>
<path d="M403.8,710.9h52.8v-28H403.8v28Z" class="g1_27"/>
<path d="M473.4,706.7h49.7V682.9H473.4v23.8Z" class="g1_27"/>
<path d="M133.8,842.4H244.6v-28H133.8v28Z" class="g1_27"/>
<path d="M612.8,901.3H725.1V873.4H612.8v27.9Z" class="g1_27"/>
<path d="M116.9,960.2H229.2V932.3H116.9v27.9Z" class="g1_27"/>
<path d="M244.8,958.1h37.3V934.4H244.8v23.7Z" class="g1_27"/>
<path d="M297.7,962.3H575.8V934.4H297.7v27.9Z" class="g1_27"/>
<path d="M167.9,1045.8H315.6v-23.7H167.9v23.7Z" class="g1_27"/>
<path d="M116.9,1137.7h44.8v-28H116.9v28Z" class="g1_27"/>
<path d="M175.9,1137.7H446.7v-28H175.9v28Z" class="g1_27"/>
</svg>