<?xml version="1.0" encoding="UTF-8" standalone="no"?>
<!DOCTYPE svg PUBLIC "-//W3C//DTD SVG 1.1//EN"
"http://www.w3.org/Graphics/SVG/1.1/DTD/svg11.dtd">
<svg viewBox="0 0 1286 909" version="1.1" xmlns="http://www.w3.org/2000/svg" xmlns:xlink="http://www.w3.org/1999/xlink">
<defs>
<style type="text/css"><![CDATA[
.g0_898{
fill: none;
stroke: #000000;
stroke-width: 0.73;
stroke-linecap: butt;
stroke-linejoin: miter;
}
.g1_898{
fill: none;
stroke: #02B5EE;
stroke-width: 1.262;
stroke-linecap: butt;
stroke-linejoin: miter;
}
.g2_898{
fill: none;
stroke: #02B5EE;
stroke-width: 0.73;
stroke-linecap: butt;
stroke-linejoin: miter;
}
.g3_898{
fill: #B3E9FA;
}
.g4_898{
fill: none;
stroke: #5EE200;
stroke-width: 1.262;
stroke-linecap: butt;
stroke-linejoin: miter;
}
]]></style>
</defs>
<path d="M193,83.4h900.3M193,210.6H890.5m-697.5,0H890.5M576.3,240.2V211m0,58.5V240.2m0,114.3v-85" class="g0_898"/>
<path d="M651.6,330.5h98.6" class="g1_898"/>
<path d="M576.3,383.7V354.5m0,102.3V383.7" class="g0_898"/>
<path d="M845.8,442.9h33.8" class="g2_898"/>
<path d="M576.3,486V456.8m0,58.4V486m0,114.2v-85" class="g0_898"/>
<path d="M589.9,556.8V538.2c0,-2.8,2.3,-5.1,5.2,-5.1h76.7c2.8,0,5.2,2.3,5.2,5.1v18.6c0,2.8,-2.4,5.2,-5.2,5.2H595.1c-2.9,0,-5.2,-2.4,-5.2,-5.2Z" class="g3_898"/>
<path d="M587.3,576.2h92.2" class="g1_898"/>
<path d="M690.1,576.2H879.6" class="g4_898"/>
<path d="M576.3,629.5V600.2m0,58.5V629.5m0,59.4V658.7m0,59.4V688.9M193,718.4H890.5m-697.5,0H890.5" class="g0_898"/>
</svg>