<?xml version="1.0" encoding="UTF-8" standalone="no"?>
<!DOCTYPE svg PUBLIC "-//W3C//DTD SVG 1.1//EN"
"http://www.w3.org/Graphics/SVG/1.1/DTD/svg11.dtd">
<svg viewBox="0 0 909 1286" version="1.1" xmlns="http://www.w3.org/2000/svg" xmlns:xlink="http://www.w3.org/1999/xlink">
<defs>
<style type="text/css"><![CDATA[
.g0_55{
fill: none;
stroke: #000000;
stroke-width: 0.73;
stroke-linecap: butt;
stroke-linejoin: miter;
}
.g1_55{
fill: #E81A58;
}
.g2_55{
fill: #401A1A;
}
.g3_55{
fill: #7F7F7F;
fill-opacity: 0.01;
}
.g4_55{
fill: #7F7F7F;
fill-opacity: 0.02;
}
.g5_55{
fill: #7F7F7F;
fill-opacity: 0.04;
}
.g6_55{
fill: #7F7F7F;
fill-opacity: 0.07;
}
.g7_55{
fill: #7F7F7F;
fill-opacity: 0.11;
}
.g8_55{
fill: #FFFFFF;
}
.g9_55{
fill: #CBCEFB;
}
]]></style>
</defs>
<path d="M116.9,159.9H792.5" class="g0_55"/>
<path d="M116.9,537.4V179.5H792.5V498.2c0,21.6,-17.5,39.2,-39.1,39.2Z" class="g1_55"/>
<path d="M119.5,534.8V179.5H789.9V498.2c0,20.2,-16.3,36.6,-36.5,36.6Z" class="g2_55"/>
<path d="M116.9,749.7V634.9c0,-21.6,17.6,-39.1,39.2,-39.1H792.5V710.6c0,21.6,-17.5,39.1,-39.1,39.1Z" class="g1_55"/>
<path d="M119.5,747.1V628.3H789.9v82.3c0,20.2,-16.3,36.5,-36.5,36.5Z" class="g2_55"/>
<path d="M122.2,769.7c221.7,0,443.4,0,665,0v251.7c-221.6,-9.3,-443.3,-9.3,-665,0Z" class="g3_55"/>
<path d="M122.9,770.3c221.2,0,442.4,0,663.7,0v250.5c-221.3,-9.3,-442.5,-9.3,-663.7,0Z" class="g4_55"/>
<path d="M123.5,770.9c220.8,0,441.6,0,662.5,0v249.3c-220.9,-9.4,-441.7,-9.4,-662.5,0Z" class="g5_55"/>
<path d="M124.1,771.5c220.4,0,440.8,0,661.2,0v248.1c-220.4,-9.4,-440.8,-9.4,-661.2,0Z" class="g6_55"/>
<path d="M124.7,772.1c220,0,440,0,660,0v246.8c-220,-9.3,-440,-9.3,-660,0Z" class="g7_55"/>
<path d="M125.4,772.8c219.5,0,439.1,0,658.7,0v245.5c-219.6,-9.3,-439.2,-9.3,-658.7,0Z" class="g7_55"/>
<path d="M126,773.4c219.1,0,438.3,0,657.5,0v244.3c-219.2,-9.4,-438.4,-9.4,-657.5,0Z" class="g6_55"/>
<path d="M126.6,774c218.8,0,437.5,0,656.3,0v243.1c-218.8,-9.4,-437.5,-9.4,-656.3,0Z" class="g5_55"/>
<path d="M127.2,774.6c218.4,0,436.7,0,655,0v241.8c-218.3,-9.3,-436.6,-9.3,-655,0Z" class="g4_55"/>
<path d="M127.9,775.3c217.9,0,435.8,0,653.7,0v240.5c-217.9,-9.3,-435.8,-9.3,-653.7,0Z" class="g3_55"/>
<path d="M116.9,1011.1V764.4H792.5v246.7Z" class="g8_55"/>
<path d="M119.5,1008.5V767H789.9v241.5Z" class="g8_55"/>
<path d="M350.2,782.9h209M350.6,812.5V783.3" class="g0_55"/>
<path d="M351,812.5H459.2V783.3H351v29.2Z" class="g9_55"/>
<path d="M459.5,812.5V783.3" class="g0_55"/>
<path d="M459.9,812.5h98.6V783.3H459.9v29.2Z" class="g9_55"/>
<path d="M558.9,812.5V783.3M350.2,812.9h209M350.6,842.5V813.2m108.9,29.3V813.2m99.4,29.3V813.2M350.2,842.8h209M350.6,872.4V843.2m108.9,29.2V843.2m99.4,29.2V843.2M350.2,872.8h209M350.6,902.4V873.1m108.9,29.3V873.1m99.4,29.3V873.1M350.2,902.7h209M350.6,932.3V903.1m108.9,29.2V903.1m99.4,29.2V903.1M350.2,932.7h209M350.6,962.3V933m108.9,29.3V933m99.4,29.3V933M350.2,962.6h209M350.6,992.2V963m108.9,29.2V963m99.4,29.2V963M350.2,992.6h209" class="g0_55"/>
</svg>