<?xml version="1.0" encoding="UTF-8" standalone="no"?>
<!DOCTYPE svg PUBLIC "-//W3C//DTD SVG 1.1//EN"
"http://www.w3.org/Graphics/SVG/1.1/DTD/svg11.dtd">
<svg viewBox="0 0 1286 909" version="1.1" xmlns="http://www.w3.org/2000/svg" xmlns:xlink="http://www.w3.org/1999/xlink">
<defs>
<style type="text/css"><![CDATA[
.g0_870{
fill: none;
stroke: #000000;
stroke-width: 0.73;
stroke-linecap: butt;
stroke-linejoin: miter;
}
.g1_870{
fill: #B3E9FA;
}
.g2_870{
fill: none;
stroke: #02B5EE;
stroke-width: 1.262;
stroke-linecap: butt;
stroke-linejoin: miter;
}
.g3_870{
fill: none;
stroke: #02B5EE;
stroke-width: 0.73;
stroke-linecap: butt;
stroke-linejoin: miter;
}
.g4_870{
fill: #FFCCCC;
}
.g5_870{
fill: none;
stroke: #F81693;
stroke-width: 1.461;
stroke-linecap: butt;
stroke-linejoin: miter;
stroke-dasharray: 2,2;
}
]]></style>
</defs>
<path d="M193,83.4h900.3M193,111.6H927.5m-734.5,0H927.5M531.1,141.2V112m0,58.5V141.2m0,114.3v-85" class="g0_870"/>
<path d="M544.7,205.7V193.5c0,-2.9,2.3,-5.2,5.2,-5.2h56.4c2.9,0,5.2,2.3,5.2,5.2v12.2c0,2.9,-2.3,5.2,-5.2,5.2H549.9c-2.9,0,-5.2,-2.3,-5.2,-5.2Z" class="g1_870"/>
<path d="M542.1,231.5h72" class="g2_870"/>
<path d="M531.1,284.7V255.5m0,102.3V284.7" class="g0_870"/>
<path d="M832.1,343.9h84.4" class="g3_870"/>
<path d="M531.1,387V357.8m0,58.4V387m0,114.2v-85" class="g0_870"/>
<path d="M650.3,477.3h35.9" class="g2_870"/>
<path d="M707.2,465.5h59.5V432.7H707.2v32.8Z" class="g4_870"/>
<path d="M780.8,459.1h132" class="g5_870"/>
<path d="M531.1,530.5V501.2m0,102.3v-73" class="g0_870"/>
<path d="M750.4,575.4h31.9" class="g5_870"/>
<path d="M792,579.8h73.8V546.9H792v32.9Z" class="g4_870"/>
<path d="M865.8,589.6h50.7" class="g3_870"/>
<path d="M531.1,632.7V603.5M193,633.1H927.5m-734.5,0H927.5" class="g0_870"/>
</svg>