<?xml version="1.0" encoding="UTF-8" standalone="no"?>
<!DOCTYPE svg PUBLIC "-//W3C//DTD SVG 1.1//EN"
"http://www.w3.org/Graphics/SVG/1.1/DTD/svg11.dtd">
<svg viewBox="0 0 909 1286" version="1.1" xmlns="http://www.w3.org/2000/svg" xmlns:xlink="http://www.w3.org/1999/xlink">
<defs>
<style type="text/css"><![CDATA[
.g0_23{
fill: none;
stroke: #000000;
stroke-width: 1.461;
stroke-linecap: butt;
stroke-linejoin: miter;
}
.g1_23{
fill: #FDE8E9;
}
.g2_23{
fill: none;
stroke: #000000;
stroke-width: 0.152;
stroke-linecap: butt;
stroke-linejoin: miter;
}
.g3_23{
fill: none;
stroke: #000000;
stroke-width: 0.73;
stroke-linecap: butt;
stroke-linejoin: miter;
}
.g4_23{
fill: none;
stroke: #000000;
stroke-width: 1.461;
stroke-linecap: butt;
stroke-linejoin: miter;
stroke-dasharray: 2,8;
}
.g5_23{
fill: none;
stroke: #F81693;
stroke-width: 1.461;
stroke-linecap: butt;
stroke-linejoin: miter;
}
.g6_23{
fill: none;
stroke: #02B5EE;
stroke-width: 1.461;
stroke-linecap: butt;
stroke-linejoin: miter;
}
]]></style>
</defs>
<path d="M117.7,545.2V312.4" class="g0_23"/>
<path d="M166.3,311.7h59.6V276.5H166.3v35.2Z" class="g1_23"/>
<path d="M329.3,294.1H775" class="g0_23"/>
<path d="M117.3,312.4h.7" class="g2_23"/>
<path d="M135.9,294.1h17.9" class="g3_23"/>
<path d="M792.9,312.4h.7" class="g2_23"/>
<path d="M756.3,294.1h17.9" class="g3_23"/>
<path d="M140.4,439.4h88.4" class="g4_23"/>
<path d="M271.2,435.8H311m-39.8,7.3H311m42.4,-7.3h39.8m-39.8,7.3h39.8m42.3,-7.3h39.9m-39.9,7.3h39.9m42.3,-7.3h39.9m-39.9,7.3h39.9m42.3,-7.3h39.9m-39.9,7.3h39.9" class="g5_23"/>
<path d="M682.1,439.4h88.4" class="g4_23"/>
<path d="M472.2,516.3H624.5v-33H472.2v33Z" class="g1_23"/>
<path d="M117.3,545.5h.7" class="g2_23"/>
<path d="M135.9,563.8h17.9" class="g3_23"/>
<path d="M792.9,545.5h.7" class="g2_23"/>
<path d="M756.3,563.8h17.9" class="g3_23"/>
<path d="M135.9,563.4H775m18.2,-18.2V312.4M117.7,879.7V640.6" class="g0_23"/>
<path d="M166.3,640h84V604.7h-84V640Z" class="g1_23"/>
<path d="M353.6,622.4H775" class="g0_23"/>
<path d="M117.3,640.6h.7" class="g2_23"/>
<path d="M135.9,622.4h17.9" class="g3_23"/>
<path d="M792.9,640.6h.7" class="g2_23"/>
<path d="M756.3,622.4h17.9" class="g3_23"/>
<path d="M154.1,767.7h88.4" class="g4_23"/>
<path d="M284.9,764h39.8m-39.8,7.4h39.8" class="g5_23"/>
<path d="M367.1,767.7h33.6" class="g6_23"/>
<path d="M400.7,767.7H510.3" class="g4_23"/>
<path d="M510.3,767.7h33.6" class="g6_23"/>
<path d="M586.2,764h39.9m-39.9,7.4h39.9" class="g5_23"/>
<path d="M668.4,767.7h88.4" class="g4_23"/>
<path d="M486.4,850.9H610.3V811.5H486.4v39.4Z" class="g1_23"/>
<path d="M117.3,880.1h.7" class="g2_23"/>
<path d="M135.9,898.4h17.9" class="g3_23"/>
<path d="M792.9,880.1h.7" class="g2_23"/>
<path d="M756.3,898.4h17.9" class="g3_23"/>
<path d="M135.9,898H775m18.2,-18.3V640.6M117.7,1143.9V975.2" class="g0_23"/>
<path d="M166.3,974.6h59.6V939.3H166.3v35.3Z" class="g1_23"/>
<path d="M329.3,956.9H775" class="g0_23"/>
<path d="M117.3,975.2h.7" class="g2_23"/>
<path d="M135.9,956.9h17.9" class="g3_23"/>
<path d="M792.9,975.2h.7" class="g2_23"/>
<path d="M756.3,956.9h17.9" class="g3_23"/>
<path d="M222.6,1102.3H311" class="g4_23"/>
<path d="M353.4,1098.6h39.8m-39.8,7.3h39.8" class="g5_23"/>
<path d="M435.5,1102.3h39.9" class="g6_23"/>
<path d="M517.7,1098.6h39.9m-39.9,7.3h39.9" class="g5_23"/>
<path d="M599.9,1102.3h88.4" class="g4_23"/>
<path d="M117.3,1144.3h.7" class="g2_23"/>
<path d="M135.9,1162.5h17.9" class="g3_23"/>
<path d="M792.9,1144.3h.7" class="g2_23"/>
<path d="M756.3,1162.5h17.9" class="g3_23"/>
<path d="M135.9,1162.2H775m18.2,-18.3V975.2" class="g0_23"/>
</svg>