<?xml version="1.0" encoding="UTF-8" standalone="no"?>
<!DOCTYPE svg PUBLIC "-//W3C//DTD SVG 1.1//EN"
"http://www.w3.org/Graphics/SVG/1.1/DTD/svg11.dtd">
<svg viewBox="0 0 909 1286" version="1.1" xmlns="http://www.w3.org/2000/svg" xmlns:xlink="http://www.w3.org/1999/xlink">
<defs>
<style type="text/css"><![CDATA[
.g0_25{
fill: none;
stroke: #000000;
stroke-width: 0.73;
stroke-linecap: butt;
stroke-linejoin: miter;
}
.g1_25{
fill: none;
stroke: #F81693;
stroke-width: 0.73;
stroke-linecap: butt;
stroke-linejoin: miter;
}
.g2_25{
fill: none;
stroke: #02B5EE;
stroke-width: 0.73;
stroke-linecap: butt;
stroke-linejoin: miter;
}
.g3_25{
fill: none;
stroke: #02B5EE;
stroke-width: 1.461;
stroke-linecap: butt;
stroke-linejoin: miter;
}
.g4_25{
fill: none;
stroke: #F81693;
stroke-width: 1.461;
stroke-linecap: butt;
stroke-linejoin: miter;
}
.g5_25{
fill: #FFFFFF;
}
.g6_25{
fill: #FDE8E9;
}
]]></style>
</defs>
<path d="M116.9,179.9H747.3M389.5,209.5V180.3M279,260.4l24.8,14.8m-56.1,33.3V279.3M279,260.4l-31.3,18.7M216.5,260.4l31.2,18.7M216.5,260.4l-31.2,18.7m31.2,-18.7V233m-31.2,46.3L160.4,264.5m22.7,14.8v25.5m4.3,-25.5v25.5m89.4,-44.4V234.9m4.3,25.5V234.9m108.4,92.9V209.5" class="g0_25"/>
<path d="M598.1,264.3l18.3,10.9" class="g1_25"/>
<path d="M560.5,308.5V288.4" class="g2_25"/>
<path d="M585.3,264.3L567,275.2M535.6,264.3l18.3,10.9M522.8,264.3l-18.2,10.9" class="g1_25"/>
<path d="M529.2,253.1V233" class="g2_25"/>
<path d="M491.6,275.4L473.3,264.5m22.5,20.2v20.1m4.4,-20.1v20.1M589.5,255V234.9m4.4,20.1V234.9" class="g1_25"/>
<path d="M389.5,357.1V327.8m0,58.5V357.1" class="g0_25"/>
<path d="M417.7,387.5c1.3,0,2,-2.8,3.4,-2.8c1,0,1.8,1.4,2.7,2.8c.9,1.4,1.8,2.7,2.8,2.7c1,0,1.8,-1.3,2.7,-2.7c.9,-1.4,1.8,-2.8,2.8,-2.8c1,0,1.8,1.4,2.7,2.8c.9,1.4,1.7,2.7,2.7,2.7c1,0,1.9,-1.3,2.8,-2.7c.9,-1.4,1.7,-2.8,2.7,-2.8c1,0,1.9,1.4,2.8,2.8c.9,1.4,1.7,2.7,2.7,2.7c1,0,1.8,-1.3,2.7,-2.7c.9,-1.4,1.8,-2.8,2.8,-2.8c1,0,1.8,1.4,2.7,2.8c.9,1.4,1.8,2.7,2.8,2.7c1,0,1.8,-1.3,2.7,-2.7c.9,-1.4,1.7,-2.8,2.7,-2.8c1,0,1.9,1.4,2.8,2.8c.9,1.4,1.7,2.7,2.7,2.7c1,0,1.9,-1.3,2.8,-2.7c.9,-1.4,1.7,-2.8,2.7,-2.8c1.4,0,2.1,2.8,3.4,2.8h1.1" class="g3_25"/>
<path d="M580,384.8c1.4,0,2.1,-2.7,3.4,-2.7c1,0,1.9,1.3,2.8,2.7c.9,1.4,1.7,2.8,2.7,2.8c1,0,1.9,-1.4,2.8,-2.8c.8,-1.4,1.7,-2.7,2.7,-2.7c1,0,1.8,1.3,2.7,2.7c.9,1.4,1.8,2.8,2.8,2.8c1,0,1.8,-1.4,2.7,-2.8c.9,-1.4,1.8,-2.7,2.8,-2.7c.9,0,1.8,1.3,2.7,2.7c.9,1.4,1.7,2.8,2.7,2.8c1,0,1.9,-1.4,2.8,-2.8c.9,-1.4,1.7,-2.7,2.7,-2.7c1,0,1.9,1.3,2.8,2.7c.8,1.4,1.7,2.8,2.7,2.8c1,0,1.8,-1.4,2.7,-2.8c.9,-1.4,1.8,-2.7,2.8,-2.7c1,0,1.8,1.3,2.7,2.7c.9,1.4,1.8,2.8,2.8,2.8c.9,0,1.8,-1.4,2.7,-2.8c.9,-1.4,1.7,-2.7,2.7,-2.7c1,0,1.9,1.3,2.8,2.7c.9,1.4,1.7,2.8,2.7,2.8c1,0,1.9,-1.4,2.7,-2.8c.9,-1.4,1.8,-2.7,2.8,-2.7c1,0,1.8,1.3,2.7,2.7c.9,1.4,1.8,2.8,2.8,2.8c1,0,1.8,-1.4,2.7,-2.8c.9,-1.4,1.8,-2.7,2.7,-2.7c1,0,1.9,1.3,2.8,2.7c.9,1.4,1.7,2.8,2.7,2.8c1,0,1.9,-1.4,2.8,-2.8c.9,-1.4,1.7,-2.7,2.7,-2.7c1,0,1.9,1.3,2.7,2.7c.9,1.4,1.8,2.8,2.8,2.8c1,0,1.8,-1.4,2.7,-2.8c.9,-1.4,1.8,-2.7,2.8,-2.7c1,0,1.8,1.3,2.7,2.7c.9,1.4,1.8,2.8,2.7,2.8c1,0,1.9,-1.4,2.8,-2.8c.9,-1.4,1.7,-2.7,2.7,-2.7c1,0,1.9,1.3,2.8,2.7c.9,1.4,1.7,2.8,2.7,2.8c1,0,1.9,-1.4,2.7,-2.8c.9,-1.4,1.8,-2.7,2.8,-2.7c1,0,1.8,1.3,2.7,2.7c.9,1.4,1.8,2.8,2.8,2.8c1,0,1.8,-1.4,2.7,-2.8c.9,-1.4,1.8,-2.7,2.7,-2.7c1,0,1.9,1.3,2.8,2.7c.9,1.4,1.7,2.8,2.7,2.8c1,0,1.9,-1.4,2.8,-2.8c.9,-1.4,1.7,-2.7,2.7,-2.7c1.4,0,2.1,2.7,3.4,2.7H733" class="g4_25"/>
<path d="M389.5,415.5V386.3m0,105.7V415.5" class="g0_25"/>
<path d="M467.1,484.2V423.3c0,-2.9,2.3,-5.2,5.2,-5.2H612.4c2.8,0,5.1,2.3,5.1,5.2v60.9c0,2.9,-2.3,5.2,-5.1,5.2H472.3c-2.9,0,-5.2,-2.3,-5.2,-5.2Z" class="g5_25"/>
<path d="M508.9,512.7h66.8V498.5H508.9v14.2Z" class="g6_25"/>
<path d="M493,473.8h98.6V433.7H493v40.1Z" class="g6_25"/>
<path d="M389.5,521.3V492M116.9,521.6H747.3M389.5,551.2V522M256.1,620.4l31.3,18.7M256.1,620.4l-31.2,18.7M193.7,620.4l31.2,18.7M193.7,620.4l-24.9,14.8M318.6,620.4l24.8,14.8M318.6,620.4l-31.2,18.7m29,-18.7V594.9m4.4,25.5V594.9m-33.4,44.4l31.2,-18.7m-62.5,-.2V583.9m24.9,-15l-24.9,14.8m.6,-1.1L234.8,569.5m20.8,17.9L233.7,574.2m22.4,46.2V646M191.5,620.4V594.9m4.3,25.5V594.9m193.7,74.7V551.2" class="g0_25"/>
<path d="M575.3,624.3l18.2,10.9m-31,-10.9l-18.3,10.9M506.4,620.4l24.8,14.8M506.4,620.4l-24.8,14.8M631.3,620.4l24.9,14.8M631.3,620.4l-24.8,14.8m22.7,-14.8V594.9m4.3,25.5V594.9m-27,40.5l25.2,-15m-62.8,-7.3V583.9m24.8,-15l-24.8,14.8m.5,-1.1L547.5,569.5m20.8,17.9L546.4,574.2" class="g1_25"/>
<path d="M568.9,627.7V646" class="g2_25"/>
<path d="M504.2,620.4V594.9m4.4,25.5V594.9" class="g1_25"/>
<path d="M389.5,698.8V669.6m0,58.4V698.8m0,58.4V728m0,58.5V757.2m0,58.5V786.5m0,58.4V815.7" class="g0_25"/>
<path d="M417.7,843.5c1.3,0,2,-2.8,3.4,-2.8c1,0,1.8,1.4,2.7,2.8c.9,1.4,1.8,2.7,2.8,2.7c1,0,1.8,-1.3,2.7,-2.7c.9,-1.4,1.8,-2.8,2.8,-2.8c1.3,0,2,2.8,3.4,2.8h3.9" class="g3_25"/>
<path d="M389.5,874.1V844.9m0,58.5V874.1m0,105.8V903.4" class="g0_25"/>
<path d="M467.1,972.1V911.2c0,-2.9,2.3,-5.2,5.2,-5.2H641.5c2.9,0,5.2,2.3,5.2,5.2v60.9c0,2.9,-2.3,5.2,-5.2,5.2H472.3c-2.9,0,-5.2,-2.3,-5.2,-5.2Z" class="g5_25"/>
<path d="M529.1,1000.6h55.6V986.3H529.1v14.3Z" class="g6_25"/>
<path d="M493,961.7H620.7V921.6H493v40.1Z" class="g6_25"/>
<path d="M389.5,1009.1V979.9m-272.6,29.6H747.3" class="g0_25"/>
</svg>