<?xml version="1.0" encoding="UTF-8" standalone="no"?>
<!DOCTYPE svg PUBLIC "-//W3C//DTD SVG 1.1//EN"
"http://www.w3.org/Graphics/SVG/1.1/DTD/svg11.dtd">
<svg viewBox="0 0 909 1286" version="1.1" xmlns="http://www.w3.org/2000/svg" xmlns:xlink="http://www.w3.org/1999/xlink">
<defs>
<style type="text/css"><![CDATA[
.g0_14{
fill: none;
stroke: #000000;
stroke-width: 0.73;
stroke-linecap: butt;
stroke-linejoin: miter;
}
.g1_14{
fill: none;
stroke: #02B5EE;
stroke-width: 0.73;
stroke-linecap: butt;
stroke-linejoin: miter;
}
.g2_14{
fill: none;
stroke: #F81693;
stroke-width: 0.73;
stroke-linecap: butt;
stroke-linejoin: miter;
}
.g3_14{
fill: #FFFFFF;
}
.g4_14{
fill: #FDE8E9;
}
]]></style>
</defs>
<path d="M116.9,179.9H602.7m-332,29.6V180.3m-39.4,45.3l24.8,14.7M218.5,225.6l-24.8,14.7m0,.2L168.1,225.2m25.6,15.3v25.6m77,25.2V209.5" class="g0_14"/>
<path d="M459.1,225.6l24.8,14.7M446.3,225.6L428,236.5" class="g1_14"/>
<path d="M412.3,254l-18.2,11m-18.5,-.5L353.5,251.3m34.2,30.5v18.3" class="g2_14"/>
<path d="M270.7,320.5V291.3m0,58.5V320.5m0,58.5V349.8m0,60V379m0,60.1V409.8m0,105V439.1" class="g0_14"/>
<path d="M348.3,507V446.8c0,-2.8,2.4,-5.2,5.2,-5.2h222c2.9,0,5.2,2.4,5.2,5.2V507c0,2.9,-2.3,5.2,-5.2,5.2h-222c-2.8,0,-5.2,-2.3,-5.2,-5.2Z" class="g3_14"/>
<path d="M420.7,537.9h87.6V521.2H420.7v16.7Z" class="g4_14"/>
<path d="M374.3,496.6H554.7V457.2H374.3v39.4Z" class="g4_14"/>
<path d="M270.7,544V514.8M116.9,544.4H602.7" class="g0_14"/>
</svg>