<?xml version="1.0" encoding="UTF-8" standalone="no"?>
<!DOCTYPE svg PUBLIC "-//W3C//DTD SVG 1.1//EN"
"http://www.w3.org/Graphics/SVG/1.1/DTD/svg11.dtd">
<svg viewBox="0 0 1286 909" version="1.1" xmlns="http://www.w3.org/2000/svg" xmlns:xlink="http://www.w3.org/1999/xlink">
<defs>
<style type="text/css"><![CDATA[
.g0_876{
fill: none;
stroke: #000000;
stroke-width: 0.73;
stroke-linecap: butt;
stroke-linejoin: miter;
}
.g1_876{
fill: none;
stroke: #5EE200;
stroke-width: 0.73;
stroke-linecap: butt;
stroke-linejoin: miter;
}
.g2_876{
fill: none;
stroke: #02B5EE;
stroke-width: 0.73;
stroke-linecap: butt;
stroke-linejoin: miter;
}
.g3_876{
fill: none;
stroke: #02B5EE;
stroke-width: 1.262;
stroke-linecap: butt;
stroke-linejoin: miter;
}
.g4_876{
fill: none;
stroke: #5EE200;
stroke-width: 1.262;
stroke-linecap: butt;
stroke-linejoin: miter;
}
]]></style>
</defs>
<path d="M193,83.4h900.3M193,111.6H935.7m-742.7,0H935.7M474.9,141.2V112m0,58.5V141.2m0,102.3v-73" class="g0_876"/>
<path d="M614.7,229.6h152" class="g1_876"/>
<path d="M772.8,229.6h152" class="g2_876"/>
<path d="M474.9,274.8V243.5m0,60.6V274.8m0,58.5V304.1m0,114.2v-85" class="g0_876"/>
<path d="M692.8,394.3h81" class="g3_876"/>
<path d="M784.3,394.3H924.8" class="g4_876"/>
<path d="M474.9,447.5V418.3m0,102.3V447.5" class="g0_876"/>
<path d="M783.6,506.7h67.5" class="g1_876"/>
<path d="M857.2,506.7h67.6" class="g2_876"/>
<path d="M474.9,551.9V520.6m0,60.6V551.9M193,581.5H935.7m-742.7,0H935.7" class="g0_876"/>
</svg>