<?xml version="1.0" encoding="UTF-8" standalone="no"?>
<!DOCTYPE svg PUBLIC "-//W3C//DTD SVG 1.1//EN"
"http://www.w3.org/Graphics/SVG/1.1/DTD/svg11.dtd">
<svg viewBox="0 0 909 1286" version="1.1" xmlns="http://www.w3.org/2000/svg" xmlns:xlink="http://www.w3.org/1999/xlink">
<defs>
<style type="text/css"><![CDATA[
.g0_87{
fill: none;
stroke: #000000;
stroke-width: 0.73;
stroke-linecap: butt;
stroke-linejoin: miter;
}
.g1_87{
fill: #E81A58;
}
.g2_87{
fill: #401A1A;
}
]]></style>
</defs>
<path d="M116.9,159.9H792.5" class="g0_87"/>
<path d="M116.9,508.1V179.5H792.5V469c0,21.6,-17.5,39.1,-39.1,39.1Z" class="g1_87"/>
<path d="M119.5,505.5v-326H789.9V469c0,20.2,-16.3,36.5,-36.5,36.5Z" class="g2_87"/>
<path d="M116.9,691.3V605.7c0,-21.6,17.6,-39.1,39.2,-39.1H792.5v85.6c0,21.6,-17.5,39.1,-39.1,39.1Z" class="g1_87"/>
<path d="M119.5,688.7V599.1H789.9v53.1c0,20.1,-16.3,36.5,-36.5,36.5Z" class="g2_87"/>
<path d="M116.9,1137.5V788.9c0,-21.6,17.6,-39.2,39.2,-39.2H792.5v387.8Z" class="g1_87"/>
<path d="M119.5,1137.5V782.2H789.9v355.3Z" class="g2_87"/>
</svg>