<?xml version="1.0" encoding="UTF-8" standalone="no"?>
<!DOCTYPE svg PUBLIC "-//W3C//DTD SVG 1.1//EN"
"http://www.w3.org/Graphics/SVG/1.1/DTD/svg11.dtd">
<svg viewBox="0 0 1286 909" version="1.1" xmlns="http://www.w3.org/2000/svg" xmlns:xlink="http://www.w3.org/1999/xlink">
<defs>
<style type="text/css"><![CDATA[
.g0_616{
fill: none;
stroke: #000000;
stroke-width: 0.73;
stroke-linecap: butt;
stroke-linejoin: miter;
}
.g1_616{
fill: #B3E9FA;
}
.g2_616{
fill: none;
stroke: #02B5EE;
stroke-width: 1.262;
stroke-linecap: butt;
stroke-linejoin: miter;
}
.g3_616{
fill: none;
stroke: #5EE200;
stroke-width: 1.262;
stroke-linecap: butt;
stroke-linejoin: miter;
}
]]></style>
</defs>
<path d="M193,83.4h900.3M193,210.6H617.5m-424.5,0H617.5M433,240.2V211m0,58.5V240.2m0,59.4V269.5m0,59.3V299.6m0,58.5V328.8m0,114.3v-85" class="g0_616"/>
<path d="M446.6,393.3V381.1c0,-2.9,2.3,-5.2,5.2,-5.2H531c2.8,0,5.2,2.3,5.2,5.2v12.2c0,2.9,-2.4,5.2,-5.2,5.2H451.8c-2.9,0,-5.2,-2.3,-5.2,-5.2Z" class="g1_616"/>
<path d="M444,419.1h94.8" class="g2_616"/>
<path d="M549.3,419.1h57.3" class="g3_616"/>
<path d="M433,472.3V443.1M193,472.7H617.5m-424.5,0H617.5" class="g0_616"/>
</svg>