<?xml version="1.0" encoding="UTF-8" standalone="no"?>
<!DOCTYPE svg PUBLIC "-//W3C//DTD SVG 1.1//EN"
"http://www.w3.org/Graphics/SVG/1.1/DTD/svg11.dtd">
<svg viewBox="0 0 1286 909" version="1.1" xmlns="http://www.w3.org/2000/svg" xmlns:xlink="http://www.w3.org/1999/xlink">
<defs>
<style type="text/css"><![CDATA[
.g0_881{
fill: none;
stroke: #000000;
stroke-width: 0.73;
stroke-linecap: butt;
stroke-linejoin: miter;
}
.g1_881{
fill: none;
stroke: #02B5EE;
stroke-width: 1.262;
stroke-linecap: butt;
stroke-linejoin: miter;
}
.g2_881{
fill: none;
stroke: #5EE200;
stroke-width: 1.262;
stroke-linecap: butt;
stroke-linejoin: miter;
}
.g3_881{
fill: none;
stroke: #5EE200;
stroke-width: 0.73;
stroke-linecap: butt;
stroke-linejoin: miter;
}
.g4_881{
fill: none;
stroke: #02B5EE;
stroke-width: 0.73;
stroke-linecap: butt;
stroke-linejoin: miter;
}
]]></style>
</defs>
<path d="M193,83.4h900.3M193,210.6H891.4m-698.4,0H891.4M530.5,240.2V211m0,58.5V240.2m0,114.3v-85" class="g0_881"/>
<path d="M627.8,330.5H847.5" class="g1_881"/>
<path d="M858,330.5h22.4" class="g2_881"/>
<path d="M530.5,383.7V354.5m0,102.3V383.7" class="g0_881"/>
<path d="M634.9,442.9h34.4" class="g3_881"/>
<path d="M669.3,442.9H880.4" class="g4_881"/>
<path d="M530.5,486V456.8m0,58.4V486m0,114.2v-85" class="g0_881"/>
<path d="M550.8,576.2h61.9" class="g1_881"/>
<path d="M530.5,629.5V600.2m0,102.3v-73" class="g0_881"/>
<path d="M829.8,688.6h50.6" class="g4_881"/>
<path d="M530.5,731.7V702.5m0,58.5V731.7M193,761.3H891.4m-698.4,0H891.4" class="g0_881"/>
</svg>