<?xml version="1.0" encoding="UTF-8" standalone="no"?>
<!DOCTYPE svg PUBLIC "-//W3C//DTD SVG 1.1//EN"
"http://www.w3.org/Graphics/SVG/1.1/DTD/svg11.dtd">
<svg viewBox="0 0 1286 909" version="1.1" xmlns="http://www.w3.org/2000/svg" xmlns:xlink="http://www.w3.org/1999/xlink">
<defs>
<style type="text/css"><![CDATA[
.g0_577{
fill: none;
stroke: #000000;
stroke-width: 0.73;
stroke-linecap: butt;
stroke-linejoin: miter;
}
.g1_577{
fill: #B3E9FA;
}
.g2_577{
fill: none;
stroke: #02B5EE;
stroke-width: 1.262;
stroke-linecap: butt;
stroke-linejoin: miter;
}
.g3_577{
fill: none;
stroke: #5EE200;
stroke-width: 1.262;
stroke-linecap: butt;
stroke-linejoin: miter;
}
.g4_577{
fill: none;
stroke: #FFA313;
stroke-width: 1.262;
stroke-linecap: butt;
stroke-linejoin: miter;
}
.g5_577{
fill: none;
stroke: #FFA313;
stroke-width: 0.73;
stroke-linecap: butt;
stroke-linejoin: miter;
}
.g6_577{
fill: none;
stroke: #02B5EE;
stroke-width: 0.73;
stroke-linecap: butt;
stroke-linejoin: miter;
}
]]></style>
</defs>
<path d="M193,83.4h900.3M193,111.6H995.9m-802.9,0H995.9M590.1,141.2V112m0,58.5V141.2m0,114.3v-85" class="g0_577"/>
<path d="M682.7,212V200.7c0,-2.8,2.3,-5.2,5.2,-5.2H793.1c2.8,0,5.2,2.4,5.2,5.2V212c0,2.9,-2.4,5.2,-5.2,5.2H687.9c-2.9,0,-5.2,-2.3,-5.2,-5.2Z" class="g1_577"/>
<path d="M680.1,231.5H800.9" class="g2_577"/>
<path d="M811.4,231.5H984.9" class="g3_577"/>
<path d="M590.1,284.7V255.5m0,58.4V284.7m0,114.3V313.9" class="g0_577"/>
<path d="M701.4,375h34.7" class="g2_577"/>
<path d="M746.6,375H984.9" class="g4_577"/>
<path d="M590.1,428.2V399m0,102.2v-73" class="g0_577"/>
<path d="M709.5,487.4H945" class="g5_577"/>
<path d="M951.1,487.4h33.8" class="g6_577"/>
<path d="M590.1,530.5V501.2M193,530.8H995.9m-802.9,0H995.9" class="g0_577"/>
</svg>