<?xml version="1.0" encoding="UTF-8" standalone="no"?>
<!DOCTYPE svg PUBLIC "-//W3C//DTD SVG 1.1//EN"
"http://www.w3.org/Graphics/SVG/1.1/DTD/svg11.dtd">
<svg viewBox="0 0 1286 909" version="1.1" xmlns="http://www.w3.org/2000/svg" xmlns:xlink="http://www.w3.org/1999/xlink">
<defs>
<style type="text/css"><![CDATA[
.g0_1239{
fill: none;
stroke: #000000;
stroke-width: 0.73;
stroke-linecap: butt;
stroke-linejoin: miter;
}
.g1_1239{
fill: #FDE8E9;
}
]]></style>
</defs>
<path d="M193,83.4h900.3M203.9,109.5H465.1M203.9,139.1V109.9m94.9,29.2V109.9m166.3,29.2V109.9M203.9,173.7V139.1m94.9,34.6V139.1" class="g0_1239"/>
<path d="M309.8,173.7H435V139.1H309.8v34.6Z" class="g1_1239"/>
<path d="M465.1,173.7V139.1M203.9,203V173.7M298.8,203V173.7M465.1,203V173.7M203.9,232.2V203m94.9,29.2V203m166.3,29.2V203M203.9,264.8V232.2m94.9,32.6V232.2" class="g0_1239"/>
<path d="M309.8,261.5H390V232.2H309.8v29.3Z" class="g1_1239"/>
<path d="M465.1,264.8V232.2M203.9,294V264.8M298.8,294V264.8M465.1,294V264.8M203.9,323.3V294m94.9,29.3V294m166.3,29.3V294M203.9,355.9V323.3m94.9,32.6V323.3" class="g0_1239"/>
<path d="M309.8,352.6H454.1V323.3H309.8v29.3Z" class="g1_1239"/>
<path d="M465.1,355.9V323.3M203.9,385.1V355.9m94.9,29.2V355.9m166.3,29.2V355.9M203.9,414.4V385.1m94.9,29.3V385.1m166.3,29.3V385.1M203.9,449V414.4M298.8,449V414.4" class="g0_1239"/>
<path d="M309.8,449H441.9V414.4H309.8V449Z" class="g1_1239"/>
<path d="M465.1,449V414.4M203.9,478.2V449m94.9,29.2V449m166.3,29.2V449M203.9,507.4V478.2m94.9,29.2V478.2m166.3,29.2V478.2M203.9,542V507.4M298.8,542V507.4" class="g0_1239"/>
<path d="M309.8,542H422.3V507.4H309.8V542Z" class="g1_1239"/>
<path d="M465.1,542V507.4M203.9,571.3V542m94.9,29.3V542m166.3,29.3V542M203.9,600.5V571.3m94.9,29.2V571.3m166.3,29.2V571.3M203.9,635.1V600.5m94.9,34.6V600.5" class="g0_1239"/>
<path d="M309.8,635.1H413.5V600.5H309.8v34.6Z" class="g1_1239"/>
<path d="M465.1,635.1V600.5M203.9,664.3V635.1m94.9,29.2V635.1m166.3,29.2V635.1M203.9,693.6V664.3m94.9,29.3V664.3m166.3,29.3V664.3M203.9,726.2V693.6m94.9,32.6V693.6" class="g0_1239"/>
<path d="M309.8,722.9h65.5V693.6H309.8v29.3Z" class="g1_1239"/>
<path d="M465.1,726.2V693.6M203.9,755.4V726.2m94.9,29.2V726.2m166.3,29.2V726.2M203.9,755.8H465.1M487,112.5H718.9M487,142.1V112.9m94.9,29.2V112.9m137,29.2V112.9M487,176.7V142.1m94.9,34.6V142.1" class="g0_1239"/>
<path d="M592.9,176.7H680V142.1H592.9v34.6Z" class="g1_1239"/>
<path d="M718.9,176.7V142.1M487,205.9V176.7m94.9,29.2V176.7m137,29.2V176.7M487,235.1V205.9m94.9,29.2V205.9m137,29.2V205.9M487,267.8V235.1m94.9,32.7V235.1" class="g0_1239"/>
<path d="M592.9,264.5H654V235.1H592.9v29.4Z" class="g1_1239"/>
<path d="M718.9,267.8V235.1M487,297V267.8M581.9,297V267.8m137,29.2V267.8M487,326.2V297m94.9,29.2V297m137,29.2V297M487,358.9V326.2m94.9,32.7V326.2" class="g0_1239"/>
<path d="M592.9,355.6H705V326.2H592.9v29.4Z" class="g1_1239"/>
<path d="M718.9,358.9V326.2M487,388.1V358.9m94.9,29.2V358.9m137,29.2V358.9M487,417.3V388.1m94.9,29.2V388.1m137,29.2V388.1M487,450V417.3M581.9,450V417.3" class="g0_1239"/>
<path d="M592.9,446.7h115V417.3h-115v29.4Z" class="g1_1239"/>
<path d="M718.9,450V417.3M487,479.2V450m94.9,29.2V450m137,29.2V450M487,508.4V479.2m94.9,29.2V479.2m137,29.2V479.2M487,541.1V508.4m94.9,32.7V508.4" class="g0_1239"/>
<path d="M592.9,537.8h59V508.4h-59v29.4Z" class="g1_1239"/>
<path d="M718.9,541.1V508.4M487,570.3V541.1m94.9,29.2V541.1m137,29.2V541.1M487,599.5V570.3m94.9,29.2V570.3m137,29.2V570.3M487,632.2V599.5m94.9,32.7V599.5" class="g0_1239"/>
<path d="M592.9,628.9h66V599.5h-66v29.4Z" class="g1_1239"/>
<path d="M718.9,632.2V599.5M487,661.4V632.2m94.9,29.2V632.2m137,29.2V632.2M487,690.6V661.4m94.9,29.2V661.4m137,29.2V661.4M487,723.2V690.6m94.9,32.6V690.6" class="g0_1239"/>
<path d="M592.9,720h84.4V690.6H592.9V720Z" class="g1_1239"/>
<path d="M718.9,723.2V690.6M487,752.5V723.2m94.9,29.3V723.2m137,29.3V723.2M487,752.8H718.9M740.8,112.7h384.9M740.8,142.3V113.1m228.7,29.2V113.1m156.2,29.2V113.1M740.8,175V142.3M969.5,175V142.3" class="g0_1239"/>
<path d="M980.4,171.7h82V142.3h-82v29.4Z" class="g1_1239"/>
<path d="M1125.7,175V142.3M740.8,204.2V175m228.7,29.2V175m156.2,29.2V175M740.8,233.4V204.2m228.7,29.2V204.2m156.2,29.2V204.2M740.8,266.1V233.4m228.7,32.7V233.4" class="g0_1239"/>
<path d="M980.4,262.8h128.5V233.4H980.4v29.4Z" class="g1_1239"/>
<path d="M1125.7,266.1V233.4M740.8,295.3V266.1m228.7,29.2V266.1m156.2,29.2V266.1M740.8,324.5V295.3m228.7,29.2V295.3m156.2,29.2V295.3M740.8,357.2V324.5m228.7,32.7V324.5" class="g0_1239"/>
<path d="M980.4,353.9h134.4V324.5H980.4v29.4Z" class="g1_1239"/>
<path d="M1125.7,357.2V324.5M740.8,386.4V357.2m228.7,29.2V357.2m156.2,29.2V357.2M740.8,415.6V386.4m228.7,29.2V386.4m156.2,29.2V386.4M740.8,445.8V415.6m228.7,30.2V415.6" class="g0_1239"/>
<path d="M980.4,442.5h72.4V419.2H980.4v23.3Z" class="g1_1239"/>
<path d="M1125.7,445.8V415.6M740.8,475V445.8M969.5,475V445.8M1125.7,475V445.8M740.8,504.2V475m228.7,29.2V475m156.2,29.2V475M740.8,538.8V504.2m228.7,34.6V504.2" class="g0_1239"/>
<path d="M980.4,538.8H1073V504.2H980.4v34.6Z" class="g1_1239"/>
<path d="M1125.7,538.8V504.2M740.8,568.1V538.8m228.7,29.3V538.8m156.2,29.3V538.8M740.8,597.3V568.1m228.7,29.2V568.1m156.2,29.2V568.1M740.8,631.9V597.3m228.7,34.6V597.3" class="g0_1239"/>
<path d="M980.4,631.9h107.2V597.3H980.4v34.6Z" class="g1_1239"/>
<path d="M1125.7,631.9V597.3M740.8,661.1V631.9m228.7,29.2V631.9m156.2,29.2V631.9M740.8,690.3V661.1m228.7,29.2V661.1m156.2,29.2V661.1M740.8,723V690.3M969.5,723V690.3" class="g0_1239"/>
<path d="M980.4,719.7h113.3V690.3H980.4v29.4Z" class="g1_1239"/>
<path d="M1125.7,723V690.3M740.8,752.2V723m228.7,29.2V723m156.2,29.2V723M740.8,752.6h384.9" class="g0_1239"/>
</svg>