<?xml version="1.0" encoding="UTF-8" standalone="no"?>
<!DOCTYPE svg PUBLIC "-//W3C//DTD SVG 1.1//EN"
"http://www.w3.org/Graphics/SVG/1.1/DTD/svg11.dtd">
<svg viewBox="0 0 909 1286" version="1.1" xmlns="http://www.w3.org/2000/svg" xmlns:xlink="http://www.w3.org/1999/xlink">
<defs>
<style type="text/css"><![CDATA[
.g0_12{
fill: none;
stroke: #000000;
stroke-width: 0.73;
stroke-linecap: butt;
stroke-linejoin: miter;
}
.g1_12{
fill: none;
stroke: #F81693;
stroke-width: 0.73;
stroke-linecap: butt;
stroke-linejoin: miter;
}
.g2_12{
fill: none;
stroke: #F81693;
stroke-width: 2.191;
stroke-linecap: butt;
stroke-linejoin: miter;
}
.g3_12{
fill: none;
stroke: #000000;
stroke-width: 0.73;
stroke-linecap: butt;
stroke-linejoin: miter;
stroke-dasharray: 1,4;
}
.g4_12{
fill: none;
stroke: #02B5EE;
stroke-width: 2.191;
stroke-linecap: butt;
stroke-linejoin: miter;
}
.g5_12{
fill: none;
stroke: #02B5EE;
stroke-width: 0.73;
stroke-linecap: butt;
stroke-linejoin: miter;
}
]]></style>
</defs>
<path d="M116.9,179.9H831.7m-470,29.6V180.3M150.4,280.1h41.1m-41.1,3.7h41.1m0,-1.9L212,246.3m0,0h30.5m35.7,-1.8h19.6m-19.6,3.7h19.6m35.7,-1.9H350m-139.5,1L189.9,211.7m23.7,33.7L193.1,209.8m-1.6,1H150.4m1.6,.9l-20.6,35.6m17.4,-37.5l-20.5,35.6m22.1,36.5L129.8,246.3m0,0l20.6,35.6m211.3,8.8V209.5" class="g0_12"/>
<path d="M469.2,280.1h41.1m-41.1,3.7h41.1m0,-1.9l20.5,-35.6" class="g1_12"/>
<path d="M530.8,246.3h27.4" class="g2_12"/>
<path d="M558.2,246.3h41.1" class="g3_12"/>
<path d="M599.3,246.3h23.3" class="g4_12"/>
<path d="M658.3,244.5h19.1m-19.1,3.7h19.1m35.7,-1.9h23.2" class="g5_12"/>
<path d="M529.2,247.3L508.7,211.7m23.7,33.7L511.9,209.8m-1.6,1H469.2m1.6,.9l-20.6,35.6m17.4,-37.5L447,245.4m22.2,36.5L448.6,246.3m0,0l13.7,23.8" class="g1_12"/>
<path d="M361.7,319.9V290.7m0,58.5V319.9m0,58.5V349.2m0,58.4V378.4m0,58.4V407.6m0,125.7V436.8m214.2,36l31.3,18.6M575.9,472.8l-31.2,18.6M577,480.5l23,13.7M513.5,472.8l31.2,18.6m0,36.8V491.6M513.5,547l31.2,-18.7M513.5,547L482.2,528.3m0,-.1V491.6m31.3,-18.8l-31.3,18.6m56.5,32v-27m-26.3,42.9L489.3,525.6m23.1,-45.1l-23.1,13.7M638.4,472.8l-31.2,18.6M361.7,562.5V533.3M116.9,562.9H831.7m-470,29.5V563.2M150.4,663.1h41.1m-41.1,3.6h41.1m0,-1.8L212,629.3m0,0h30.5m79.3,1.4h12.7m-124,-.5L189.9,594.6m23.7,33.8L193.1,592.8m-1.6,.9H150.4m1.6,.9l-20.6,35.6m17.4,-37.4l-20.5,35.6m22.1,36.5L129.8,629.3m0,0l20.6,35.6m211.3,8.8V592.4" class="g0_12"/>
<path d="M463.1,663.1h41.1m-41.1,3.6h41.1m0,-1.8l20.5,-35.6" class="g1_12"/>
<path d="M524.7,629.3h27.4" class="g2_12"/>
<path d="M552.1,629.3h41.1" class="g3_12"/>
<path d="M593.2,629.3h1.5" class="g4_12"/>
<path d="M674,629.3h1.4" class="g5_12"/>
<path d="M523.2,630.2L502.6,594.6m23.7,33.8L505.8,592.8m-1.6,.9H463.1m1.6,.9l-20.6,35.6m17.4,-37.4L441,628.4m22.1,36.5L442.5,629.3m0,0L456.2,653" class="g1_12"/>
<path d="M361.7,702.9V673.7m0,58.4V702.9m0,58.4V732.1m0,58.5V761.3m0,58.5V790.6m0,125.6V819.8m214.2,36l31.3,18.6M575.9,855.8l-31.2,18.6M513.5,855.8l31.2,18.6m0,36.7V874.6m-31.2,55.3l31.2,-18.6m-31.2,18.6L482.2,911.3m0,-.2V874.6m31.3,-18.8l-31.3,18.6m56.5,32V879.3m-26.3,43L489.3,908.6m23.1,-45.2l-23.1,13.7M638.4,855.8l-31.2,18.6M361.7,945.5V916.2M116.9,945.8H831.7" class="g0_12"/>
</svg>