<?xml version="1.0" encoding="UTF-8" standalone="no"?>
<!DOCTYPE svg PUBLIC "-//W3C//DTD SVG 1.1//EN"
"http://www.w3.org/Graphics/SVG/1.1/DTD/svg11.dtd">
<svg viewBox="0 0 909 1286" version="1.1" xmlns="http://www.w3.org/2000/svg" xmlns:xlink="http://www.w3.org/1999/xlink">
<defs>
<clipPath id="c0_151"><path d="M119.5,209.4V182.1H789.9v27.3Z"/></clipPath>
<clipPath id="c1_151"><path d="M119.5,840.9V813.6H789.9v27.3Z"/></clipPath>
<style type="text/css"><![CDATA[
.g0_151{
fill: none;
stroke: #000000;
stroke-width: 0.73;
stroke-linecap: butt;
stroke-linejoin: miter;
}
.g1_151{
fill: #7F7F7F;
fill-opacity: 0.01;
}
.g2_151{
fill: #7F7F7F;
fill-opacity: 0.02;
}
.g3_151{
fill: #7F7F7F;
fill-opacity: 0.04;
}
.g4_151{
fill: #7F7F7F;
fill-opacity: 0.07;
}
.g5_151{
fill: #7F7F7F;
fill-opacity: 0.11;
}
.g6_151{
fill: #FFFFFF;
}
.g7_151{
fill: #7F7F7F;
}
.g8_151{
fill: #CBCEFB;
}
]]></style>
</defs>
<path d="M116.9,159.9H792.5" class="g0_151"/>
<path d="M122.2,184.8c221.7,0,443.4,0,665,0v315c-221.6,-9.3,-443.3,-9.3,-665,0Z" class="g1_151"/>
<path d="M122.9,185.4c221.2,0,442.4,0,663.7,0V499.2c-221.3,-9.4,-442.5,-9.4,-663.7,0Z" class="g2_151"/>
<path d="M123.5,186.1c220.8,0,441.6,0,662.5,0V498.6c-220.9,-9.4,-441.7,-9.4,-662.5,0Z" class="g3_151"/>
<path d="M124.1,186.7c220.4,0,440.8,0,661.2,0V497.9c-220.4,-9.3,-440.8,-9.3,-661.2,0Z" class="g4_151"/>
<path d="M124.7,187.3c220,0,440,0,660,0v310c-220,-9.3,-440,-9.3,-660,0Z" class="g5_151"/>
<path d="M125.4,187.9c219.5,0,439.1,0,658.7,0V496.7c-219.6,-9.4,-439.2,-9.4,-658.7,0Z" class="g5_151"/>
<path d="M126,188.6c219.1,0,438.3,0,657.5,0V496.1c-219.2,-9.4,-438.4,-9.4,-657.5,0Z" class="g4_151"/>
<path d="M126.6,189.2c218.8,0,437.5,0,656.3,0V495.4c-218.8,-9.3,-437.5,-9.3,-656.3,0Z" class="g3_151"/>
<path d="M127.2,189.8c218.4,0,436.7,0,655,0v305c-218.3,-9.3,-436.6,-9.3,-655,0Z" class="g2_151"/>
<path d="M127.9,190.4c217.9,0,435.8,0,653.7,0V494.2c-217.9,-9.4,-435.8,-9.4,-653.7,0Z" class="g1_151"/>
<path d="M116.9,489.5v-310H792.5v310Z" class="g6_151"/>
<path d="M119.5,486.9V212H789.9V486.9Z" class="g6_151"/>
<path d="M119.5,209.4V182.1H789.9v27.3Z" class="g7_151"/>
<g clip-path="url(#c0_151)">
<image x="119" y="181" width="672" height="28" xlink:href="shade/1.png"/>
</g>
<path d="M252,261.3H657.4m-405,29.6V261.7" class="g0_151"/>
<path d="M252.8,290.9H364.1V261.7H252.8v29.2Z" class="g8_151"/>
<path d="M364.4,290.9V261.7" class="g0_151"/>
<path d="M364.8,290.9H493V261.7H364.8v29.2Z" class="g8_151"/>
<path d="M493.3,290.9V261.7" class="g0_151"/>
<path d="M493.7,290.9h72.8V261.7H493.7v29.2Z" class="g8_151"/>
<path d="M566.8,290.9V261.7" class="g0_151"/>
<path d="M567.2,290.9h89.5V261.7H567.2v29.2Z" class="g8_151"/>
<path d="M657,290.9V261.7M252,291.2H657.4m-405,29.6V291.6m112,29.2V291.6m128.9,29.2V291.6m73.5,29.2V291.6M657,320.8V291.6M252,321.2H657.4m-405,29.6V321.6m112,29.2V321.6m128.9,29.2V321.6m73.5,29.2V321.6M657,350.8V321.6M252,351.2H657.4m-405,29.5V351.5m112,29.2V351.5m128.9,29.2V351.5m73.5,29.2V351.5M657,380.7V351.5M252,381.1H657.4m-405,29.6V381.5m112,29.2V381.5m128.9,29.2V381.5m73.5,29.2V381.5M657,410.7V381.5M252,411.1H657.4m-405,29.5V411.4m112,29.2V411.4m128.9,29.2V411.4m73.5,29.2V411.4M657,440.6V411.4M252,441H657.4m-405,29.6V441.4m112,29.2V441.4m128.9,29.2V441.4m73.5,29.2V441.4M657,470.6V441.4M252,471H657.4" class="g0_151"/>
<path d="M122.2,816.3c221.7,0,443.4,0,665,0v225.1c-221.6,-9.3,-443.3,-9.3,-665,0Z" class="g1_151"/>
<path d="M122.9,816.9c221.2,0,442.4,0,663.7,0v223.9c-221.3,-9.4,-442.5,-9.4,-663.7,0Z" class="g2_151"/>
<path d="M123.5,817.5c220.8,0,441.6,0,662.5,0v222.7c-220.9,-9.4,-441.7,-9.4,-662.5,0Z" class="g3_151"/>
<path d="M124.1,818.2c220.4,0,440.8,0,661.2,0v221.3c-220.4,-9.3,-440.8,-9.3,-661.2,0Z" class="g4_151"/>
<path d="M124.7,818.8c220,0,440,0,660,0v220.1c-220,-9.3,-440,-9.3,-660,0Z" class="g5_151"/>
<path d="M125.4,819.4c219.5,0,439.1,0,658.7,0v218.9c-219.6,-9.4,-439.2,-9.4,-658.7,0Z" class="g5_151"/>
<path d="M126,820c219.1,0,438.3,0,657.5,0v217.7c-219.2,-9.4,-438.4,-9.4,-657.5,0Z" class="g4_151"/>
<path d="M126.6,820.6c218.8,0,437.5,0,656.3,0V1037c-218.8,-9.3,-437.5,-9.3,-656.3,0Z" class="g3_151"/>
<path d="M127.2,821.3c218.4,0,436.7,0,655,0v215.1c-218.3,-9.3,-436.6,-9.3,-655,0Z" class="g2_151"/>
<path d="M127.9,821.9c217.9,0,435.8,0,653.7,0v213.9c-217.9,-9.4,-435.8,-9.4,-653.7,0Z" class="g1_151"/>
<path d="M116.9,1031.1V811H792.5v220.1Z" class="g6_151"/>
<path d="M119.5,1028.5v-185H789.9v185Z" class="g6_151"/>
<path d="M119.5,840.9V813.6H789.9v27.3Z" class="g7_151"/>
<g clip-path="url(#c1_151)">
<image x="119" y="813" width="672" height="28" xlink:href="shade/2.png"/>
</g>
<path d="M225.7,892.7H683.8M226,922.3V893.1" class="g0_151"/>
<path d="M226.4,922.3H337.7V893.1H226.4v29.2Z" class="g8_151"/>
<path d="M338,922.3V893.1" class="g0_151"/>
<path d="M338.4,922.3H452V893.1H338.4v29.2Z" class="g8_151"/>
<path d="M452.3,922.3V893.1" class="g0_151"/>
<path d="M452.7,922.3H559.1V893.1H452.7v29.2Z" class="g8_151"/>
<path d="M559.4,922.3V893.1" class="g0_151"/>
<path d="M559.8,922.3H683.1V893.1H559.8v29.2Z" class="g8_151"/>
<path d="M683.4,922.3V893.1M225.7,922.7H683.8M226,952.3V923.1m112,29.2V923.1m114.3,29.2V923.1m107.1,29.2V923.1m124,29.2V923.1M225.7,952.7H683.8M226,982.2V953m112,29.2V953m114.3,29.2V953m107.1,29.2V953m124,29.2V953M225.7,982.6H683.8M226,1012.2V983m112,29.2V983m114.3,29.2V983m107.1,29.2V983m124,29.2V983m-457.7,29.6H683.8" class="g0_151"/>
</svg>