<?xml version="1.0" encoding="UTF-8" standalone="no"?>
<!DOCTYPE svg PUBLIC "-//W3C//DTD SVG 1.1//EN"
"http://www.w3.org/Graphics/SVG/1.1/DTD/svg11.dtd">
<svg viewBox="0 0 1286 909" version="1.1" xmlns="http://www.w3.org/2000/svg" xmlns:xlink="http://www.w3.org/1999/xlink">
<defs>
<style type="text/css"><![CDATA[
.g0_236{
fill: none;
stroke: #000000;
stroke-width: 0.73;
stroke-linecap: butt;
stroke-linejoin: miter;
}
.g1_236{
fill: none;
stroke: #02B5EE;
stroke-width: 1.262;
stroke-linecap: butt;
stroke-linejoin: miter;
}
.g2_236{
fill: #FFCCCC;
}
.g3_236{
fill: none;
stroke: #02B5EE;
stroke-width: 0.73;
stroke-linecap: butt;
stroke-linejoin: miter;
}
]]></style>
</defs>
<path d="M193,83.4h900.3M193,111.6h837.5m-837.5,0h837.5M577.3,141.2V112m0,114.3V141.2" class="g0_236"/>
<path d="M694.2,202.3h53.2" class="g1_236"/>
<path d="M893,190.6h126.6V157.7H893v32.9Z" class="g2_236"/>
<path d="M577.3,255.5V226.3m0,102.2v-73" class="g0_236"/>
<path d="M747,304.8H867.6V271.9H747v32.9Z" class="g2_236"/>
<path d="M968.9,314.7h50.7" class="g3_236"/>
<path d="M577.3,357.8V328.5m0,58.5V357.8m0,114.2V387" class="g0_236"/>
<path d="M728.3,448h53.2" class="g1_236"/>
<path d="M927.1,436.3h92.5V403.4H927.1v32.9Z" class="g2_236"/>
<path d="M577.3,501.2V472m0,102.3V501.2" class="g0_236"/>
<path d="M759.3,550.6H867.6V517.7H759.3v32.9Z" class="g2_236"/>
<path d="M968.9,560.4h50.7" class="g3_236"/>
<path d="M577.3,603.5V574.3m0,58.4V603.5m0,114.3V632.7" class="g0_236"/>
<path d="M803.8,693.8h99.7" class="g1_236"/>
<path d="M924.5,682.1h95.1V649.2H924.5v32.9Z" class="g2_236"/>
<path d="M577.3,747V717.8M193,747.4h837.5m-837.5,0h837.5" class="g0_236"/>
</svg>