<?xml version="1.0" encoding="UTF-8" standalone="no"?>
<!DOCTYPE svg PUBLIC "-//W3C//DTD SVG 1.1//EN"
"http://www.w3.org/Graphics/SVG/1.1/DTD/svg11.dtd">
<svg viewBox="0 0 1286 909" version="1.1" xmlns="http://www.w3.org/2000/svg" xmlns:xlink="http://www.w3.org/1999/xlink">
<defs>
<style type="text/css"><![CDATA[
.g0_600{
fill: none;
stroke: #000000;
stroke-width: 0.73;
stroke-linecap: butt;
stroke-linejoin: miter;
}
.g1_600{
fill: none;
stroke: #02B5EE;
stroke-width: 1.262;
stroke-linecap: butt;
stroke-linejoin: miter;
}
.g2_600{
fill: #FFCCCC;
}
.g3_600{
fill: none;
stroke: #02B5EE;
stroke-width: 0.73;
stroke-linecap: butt;
stroke-linejoin: miter;
}
.g4_600{
fill: none;
stroke: #FFA313;
stroke-width: 1.262;
stroke-linecap: butt;
stroke-linejoin: miter;
}
]]></style>
</defs>
<path d="M193,83.4h900.3M193,111.6H976.4m-783.4,0H976.4M587.3,141.2V112m0,114.3V141.2" class="g0_600"/>
<path d="M686.4,202.3H852" class="g1_600"/>
<path d="M873,190.6h92.5V157.7H873v32.9Z" class="g2_600"/>
<path d="M587.3,255.5V226.3m0,102.2v-73" class="g0_600"/>
<path d="M620.1,304.8H897.9V271.9H620.1v32.9Z" class="g2_600"/>
<path d="M897.9,314.7h67.6" class="g3_600"/>
<path d="M587.3,357.8V328.5m0,58.5V357.8m0,114.2V387" class="g0_600"/>
<path d="M742.5,448H852" class="g1_600"/>
<path d="M873,436.3h92.5V403.4H873v32.9Z" class="g2_600"/>
<path d="M587.3,501.2V472m0,102.3V501.2" class="g0_600"/>
<path d="M798.1,550.6H914.8V517.7H798.1v32.9Z" class="g2_600"/>
<path d="M914.8,560.4h50.7" class="g3_600"/>
<path d="M587.3,603.5V574.3m0,58.4V603.5m0,114.3V632.7" class="g0_600"/>
<path d="M714.6,693.8h34.6" class="g1_600"/>
<path d="M759.7,693.8H965.5" class="g4_600"/>
<path d="M587.3,747V717.8M193,747.4H976.4m-783.4,0H976.4" class="g0_600"/>
</svg>