<?xml version="1.0" encoding="UTF-8" standalone="no"?>
<!DOCTYPE svg PUBLIC "-//W3C//DTD SVG 1.1//EN"
"http://www.w3.org/Graphics/SVG/1.1/DTD/svg11.dtd">
<svg viewBox="0 0 909 1286" version="1.1" xmlns="http://www.w3.org/2000/svg" xmlns:xlink="http://www.w3.org/1999/xlink">
<defs>
<style type="text/css"><![CDATA[
.g0_1{
fill: none;
stroke: #000000;
stroke-width: 0.73;
stroke-linecap: butt;
stroke-linejoin: miter;
}
.g1_1{
fill: #FFFFFF;
}
.g2_1{
fill: none;
stroke: #02B5EE;
stroke-width: 1.461;
stroke-linecap: butt;
stroke-linejoin: miter;
}
]]></style>
</defs>
<path d="M231.9,335.3H677.6M494.9,364.9V335.7M326.7,356.5l31.2,18.6m0,36.7V375.3m-62.4,36.5h62.4m-62.4,0V375.3m31.2,-18.8l-31.2,18.6m32.3,-10.9l23,13.7m-49.3,29.2v-27m87.7,-23.6l31.2,18.6m0,36.7V375.3m-62.5,36.5h62.5M389.2,356.5l-31.3,18.6m32.4,-10.9l23,13.7m-49.4,27.9h50.6m80.4,22.7V364.9" class="g0_1"/>
<path d="M520.2,415.3V378.1c0,-2.9,2.3,-5.2,5.2,-5.2H647.5c2.9,0,5.2,2.3,5.2,5.2v37.2c0,2.9,-2.3,5.2,-5.2,5.2H525.4c-2.9,0,-5.2,-2.3,-5.2,-5.2Z" class="g1_1"/>
<path d="M546.2,412.2c1.3,0,2,-2.7,3.4,-2.7c1,0,1.8,1.3,2.7,2.7c.9,1.4,1.8,2.7,2.8,2.7c.9,0,1.8,-1.3,2.7,-2.7c.9,-1.4,1.7,-2.7,2.7,-2.7c1,0,1.9,1.3,2.8,2.7c.9,1.4,1.7,2.7,2.7,2.7c1,0,1.9,-1.3,2.8,-2.7c.8,-1.4,1.7,-2.7,2.7,-2.7c1,0,1.8,1.3,2.7,2.7c.9,1.4,1.8,2.7,2.8,2.7c1.3,0,2,-2.7,3.4,-2.7h1.8" class="g2_1"/>
<path d="M494.9,457.7V428.5m-263,29.6H677.6M494.9,487.6V458.4m-105.7,72L420.4,549m0,36.7V549.2m-31.2,55.3l31.2,-18.6m-31.2,18.6L357.9,585.9m0,-.2V549.2m31.3,-18.8L357.9,549M326.7,530.4L357.9,549m-31.2,55.5l31.2,-18.6m-31.2,18.6L295.5,585.9m0,-.2V549.2m31.2,-18.8L295.5,549m94.8,-10.9l23,13.7m-23,45.1l23,-13.7m-87.7,13.7l-23,-13.7m23,-45.1l-23,13.7M351.9,581V553.9m143,116.3V487.6" class="g0_1"/>
<path d="M508.8,662.4V625.2c0,-2.9,2.4,-5.2,5.2,-5.2H658.8c2.9,0,5.2,2.3,5.2,5.2v37.2c0,2.9,-2.3,5.2,-5.2,5.2H514c-2.8,0,-5.2,-2.3,-5.2,-5.2Z" class="g1_1"/>
<path d="M494.9,699.4V670.2m-263,29.6H677.6M494.9,729.4V700.2M243.2,793.4l24.4,49M247.3,793.3l22.8,45.9m-2.5,3.2l53.6,11.5m0,0l42.4,-34.6M320.2,850l39.7,-32.5m3.7,1.8l43.2,33.6m0,0L460.1,840m-52.4,8.9l49.8,-12m2.6,3.1l23.1,-49.6m0,0L458.9,741.3m20.3,49.1L456.4,744.5m2.5,-3.2L405.3,729.8m0,0l-42.4,34.7m43.3,-30.8l-39.6,32.5m-3.7,-1.7l.7,54.8m0,0l-.7,-54.8m0,0L319.6,730.8m0,0l-53.2,12.9m52.4,-8.9l-49.9,12m-2.5,-3.1l-23.2,49.7m251.7,60.9V729.4" class="g0_1"/>
<path d="M519.9,807.4V770.2c0,-2.9,2.3,-5.2,5.2,-5.2H647.8c2.9,0,5.2,2.3,5.2,5.2v37.2c0,2.9,-2.3,5.2,-5.2,5.2H525.1c-2.9,0,-5.2,-2.3,-5.2,-5.2Z" class="g1_1"/>
<path d="M545.8,804.3c1.4,0,2.1,-2.7,3.5,-2.7c1,0,1.8,1.3,2.7,2.7c.9,1.4,1.8,2.8,2.7,2.8c1,0,1.9,-1.4,2.8,-2.8c.9,-1.4,1.7,-2.7,2.7,-2.7c1,0,1.9,1.3,2.8,2.7c.9,1.4,1.7,2.8,2.7,2.8c1,0,1.8,-1.4,2.7,-2.8c.9,-1.4,1.8,-2.7,2.8,-2.7c1,0,1.8,1.3,2.7,2.7c.9,1.4,1.8,2.8,2.8,2.8c1.3,0,2,-2.8,3.4,-2.8h2.4" class="g2_1"/>
<path d="M494.9,883.5V854.3m-263,29.6H677.6" class="g0_1"/>
</svg>