<?xml version="1.0" encoding="UTF-8" standalone="no"?>
<!DOCTYPE svg PUBLIC "-//W3C//DTD SVG 1.1//EN"
"http://www.w3.org/Graphics/SVG/1.1/DTD/svg11.dtd">
<svg viewBox="0 0 909 1286" version="1.1" xmlns="http://www.w3.org/2000/svg" xmlns:xlink="http://www.w3.org/1999/xlink">
<defs>
<clipPath id="c0_30"><path d="M119.5,239V205.4H446.9V239Z"/></clipPath>
<clipPath id="c1_30"><path d="M460.4,239V205.4H787.8V239Z"/></clipPath>
<clipPath id="c2_30"><path d="M119.5,540V506.4H789.9V540Z"/></clipPath>
<style type="text/css"><![CDATA[
.g0_30{
fill: none;
stroke: #000000;
stroke-width: 0.73;
stroke-linecap: butt;
stroke-linejoin: miter;
}
.g1_30{
fill: #7F7F7F;
fill-opacity: 0.01;
}
.g2_30{
fill: #7F7F7F;
fill-opacity: 0.02;
}
.g3_30{
fill: #7F7F7F;
fill-opacity: 0.04;
}
.g4_30{
fill: #7F7F7F;
fill-opacity: 0.07;
}
.g5_30{
fill: #7F7F7F;
fill-opacity: 0.11;
}
.g6_30{
fill: #FFFFFF;
}
.g7_30{
fill: #7F7F7F;
}
.g8_30{
fill: #00AEEF;
}
.g9_30{
fill: #CBCEFB;
}
.ga_30{
fill: #EC008C;
}
.gb_30{
fill: #E81A58;
}
.gc_30{
fill: #401A1A;
}
]]></style>
</defs>
<path d="M116.9,159.9H792.5" class="g0_30"/>
<path d="M122.2,208.1c107.4,0,214.7,0,322,0V499.5c-107.3,-9.3,-214.6,-9.3,-322,0Z" class="g1_30"/>
<path d="M122.9,208.8c106.9,0,213.8,0,320.7,0V498.9c-106.9,-9.4,-213.8,-9.4,-320.7,0Z" class="g2_30"/>
<path d="M123.5,209.4c106.5,0,213,0,319.5,0V498.3c-106.5,-9.4,-213,-9.4,-319.5,0Z" class="g3_30"/>
<path d="M124.1,210c106.1,0,212.2,0,318.3,0V497.6c-106.1,-9.3,-212.2,-9.3,-318.3,0Z" class="g4_30"/>
<path d="M124.7,210.6c105.7,0,211.4,0,317,0V497c-105.6,-9.3,-211.3,-9.3,-317,0Z" class="g5_30"/>
<path d="M125.4,211.2c105.2,0,210.5,0,315.7,0V496.4C335.9,487,230.6,487,125.4,496.4Z" class="g5_30"/>
<path d="M126,211.9c104.8,0,209.7,0,314.5,0V495.8c-104.8,-9.4,-209.7,-9.4,-314.5,0Z" class="g4_30"/>
<path d="M126.6,212.5c104.4,0,208.8,0,313.3,0V495.1c-104.5,-9.3,-208.9,-9.3,-313.3,0Z" class="g3_30"/>
<path d="M127.2,213.1c104,0,208,0,312,0V494.5c-104,-9.3,-208,-9.3,-312,0Z" class="g2_30"/>
<path d="M127.9,213.7c103.5,0,207.1,0,310.7,0V493.9c-103.6,-9.4,-207.2,-9.4,-310.7,0Z" class="g1_30"/>
<path d="M116.9,489.2V202.8H449.5V489.2Z" class="g6_30"/>
<path d="M119.5,486.6v-245H446.9v245Z" class="g6_30"/>
<path d="M119.5,239V205.4H446.9V239Z" class="g7_30"/>
<g clip-path="url(#c0_30)">
<image x="119" y="205" width="329" height="34" xlink:href="shade/1.png"/>
</g>
<path d="M316.9,233.8h104V210.6h-104v23.2Z" class="g8_30"/>
<path d="M195.3,290.9H371.2M195.7,320.5V291.3" class="g0_30"/>
<path d="M196,320.5h62V291.3H196v29.2Z" class="g9_30"/>
<path d="M258.4,320.5V291.3" class="g0_30"/>
<path d="M258.8,320.5H319V291.3H258.8v29.2Z" class="g9_30"/>
<path d="M319.4,320.5V291.3" class="g0_30"/>
<path d="M319.8,320.5h50.6V291.3H319.8v29.2Z" class="g9_30"/>
<path d="M370.8,320.5V291.3M195.3,320.9H371.2M195.7,350.5V321.3m62.7,29.2V321.3m61,29.2V321.3m51.4,29.2V321.3M195.3,350.8H371.2M195.7,380.4V351.2m62.7,29.2V351.2m61,29.2V351.2m51.4,29.2V351.2M195.3,380.8H371.2M195.7,410.4V381.2m62.7,29.2V381.2m61,29.2V381.2m51.4,29.2V381.2M195.3,410.8H371.2M195.7,440.3V411.1m62.7,29.2V411.1m61,29.2V411.1m51.4,29.2V411.1M195.3,440.7H371.2M195.7,470.3V441.1m62.7,29.2V441.1m61,29.2V441.1m51.4,29.2V441.1M195.3,470.7H371.2" class="g0_30"/>
<path d="M463.1,208.1c107.3,0,214.6,0,322,0V499.5c-107.4,-9.3,-214.7,-9.3,-322,0Z" class="g1_30"/>
<path d="M463.7,208.8c106.9,0,213.8,0,320.7,0V498.9c-106.9,-9.4,-213.8,-9.4,-320.7,0Z" class="g2_30"/>
<path d="M464.3,209.4c106.5,0,213,0,319.5,0V498.3c-106.5,-9.4,-213,-9.4,-319.5,0Z" class="g3_30"/>
<path d="M464.9,210c106.1,0,212.2,0,318.3,0V497.6c-106.1,-9.3,-212.2,-9.3,-318.3,0Z" class="g4_30"/>
<path d="M465.6,210.6c105.6,0,211.3,0,317,0V497c-105.7,-9.3,-211.4,-9.3,-317,0Z" class="g5_30"/>
<path d="M466.2,211.2c105.2,0,210.5,0,315.7,0V496.4C676.7,487,571.4,487,466.2,496.4Z" class="g5_30"/>
<path d="M466.8,211.9c104.8,0,209.7,0,314.5,0V495.8c-104.8,-9.4,-209.7,-9.4,-314.5,0Z" class="g4_30"/>
<path d="M467.4,212.5c104.5,0,208.9,0,313.3,0V495.1c-104.4,-9.3,-208.8,-9.3,-313.3,0Z" class="g3_30"/>
<path d="M468.1,213.1c104,0,208,0,312,0V494.5c-104,-9.3,-208,-9.3,-312,0Z" class="g2_30"/>
<path d="M468.7,213.7c103.6,0,207.2,0,310.7,0V493.9c-103.5,-9.4,-207.1,-9.4,-310.7,0Z" class="g1_30"/>
<path d="M457.8,489.2V202.8H790.4V489.2Z" class="g6_30"/>
<path d="M460.4,486.6v-245H787.8v245Z" class="g6_30"/>
<path d="M460.4,239V205.4H787.8V239Z" class="g7_30"/>
<g clip-path="url(#c1_30)">
<image x="460" y="205" width="329" height="34" xlink:href="shade/2.png"/>
</g>
<path d="M657.8,233.8h104V210.6h-104v23.2Z" class="g8_30"/>
<path d="M536.1,290.9H712M536.5,320.5V291.3" class="g0_30"/>
<path d="M536.9,320.5h62V291.3h-62v29.2Z" class="g9_30"/>
<path d="M599.2,320.5V291.3" class="g0_30"/>
<path d="M599.6,320.5h60.3V291.3H599.6v29.2Z" class="g9_30"/>
<path d="M660.2,320.5V291.3" class="g0_30"/>
<path d="M660.6,320.5h50.7V291.3H660.6v29.2Z" class="g9_30"/>
<path d="M711.6,320.5V291.3M536.1,320.9H712M536.5,350.5V321.3m62.7,29.2V321.3m61,29.2V321.3m51.4,29.2V321.3M536.1,350.8H712M536.5,380.4V351.2m62.7,29.2V351.2m61,29.2V351.2m51.4,29.2V351.2M536.1,380.8H712M536.5,410.4V381.2m62.7,29.2V381.2m61,29.2V381.2m51.4,29.2V381.2M536.1,410.8H712M536.5,440.3V411.1m62.7,29.2V411.1m61,29.2V411.1m51.4,29.2V411.1M536.1,440.7H712M536.5,470.3V441.1m62.7,29.2V441.1m61,29.2V441.1m51.4,29.2V441.1M536.1,470.7H712" class="g0_30"/>
<path d="M122.2,509.1c221.7,0,443.4,0,665,0V916.9c-221.6,-9.4,-443.3,-9.4,-665,0Z" class="g1_30"/>
<path d="M122.9,509.8c221.2,0,442.4,0,663.7,0V916.2c-221.3,-9.3,-442.5,-9.3,-663.7,0Z" class="g2_30"/>
<path d="M123.5,510.4c220.8,0,441.6,0,662.5,0V915.6c-220.9,-9.3,-441.7,-9.3,-662.5,0Z" class="g3_30"/>
<path d="M124.1,511c220.4,0,440.8,0,661.2,0V915c-220.4,-9.4,-440.8,-9.4,-661.2,0Z" class="g4_30"/>
<path d="M124.7,511.6c220,0,440,0,660,0V914.4c-220,-9.4,-440,-9.4,-660,0Z" class="g5_30"/>
<path d="M125.4,512.2c219.5,0,439.1,0,658.7,0V913.7c-219.6,-9.3,-439.2,-9.3,-658.7,0Z" class="g5_30"/>
<path d="M126,512.9c219.1,0,438.3,0,657.5,0V913.1c-219.2,-9.3,-438.4,-9.3,-657.5,0Z" class="g4_30"/>
<path d="M126.6,513.5c218.8,0,437.5,0,656.3,0v399c-218.8,-9.4,-437.5,-9.4,-656.3,0Z" class="g3_30"/>
<path d="M127.2,514.1c218.4,0,436.7,0,655,0V911.9c-218.3,-9.4,-436.6,-9.4,-655,0Z" class="g2_30"/>
<path d="M127.9,514.7c217.9,0,435.8,0,653.7,0V911.2c-217.9,-9.3,-435.8,-9.3,-653.7,0Z" class="g1_30"/>
<path d="M116.9,906.6V503.8H792.5V906.6Z" class="g6_30"/>
<path d="M119.5,904V542.6H789.9V904Z" class="g6_30"/>
<path d="M119.5,540V506.4H789.9V540Z" class="g7_30"/>
<g clip-path="url(#c2_30)">
<image x="119" y="506" width="672" height="34" xlink:href="shade/3.png"/>
</g>
<path d="M675.7,534.8h88.2V511.6H675.7v23.2Z" class="ga_30"/>
<path d="M366.8,558.5H542.7M367.2,588.1V558.9" class="g0_30"/>
<path d="M367.5,588.1h62V558.9h-62v29.2Z" class="g9_30"/>
<path d="M429.9,588.1V558.9" class="g0_30"/>
<path d="M430.3,588.1h60.2V558.9H430.3v29.2Z" class="g9_30"/>
<path d="M490.9,588.1V558.9" class="g0_30"/>
<path d="M491.3,588.1h50.6V558.9H491.3v29.2Z" class="g9_30"/>
<path d="M542.3,588.1V558.9M366.8,588.5H542.7M367.2,618.1V588.8m62.7,29.3V588.8m61,29.3V588.8m51.4,29.3V588.8M366.8,618.4H542.7M367.2,648V618.8M429.9,648V618.8m61,29.2V618.8M542.3,648V618.8M366.8,648.4H542.7M367.2,678V648.7M429.9,678V648.7m61,29.3V648.7M542.3,678V648.7M366.8,678.3H542.7M367.2,707.9V678.7m62.7,29.2V678.7m61,29.2V678.7m51.4,29.2V678.7M366.8,708.3H542.7M367.2,737.9V708.6m62.7,29.3V708.6m61,29.3V708.6m51.4,29.3V708.6M366.8,738.2H542.7M367.2,767.8V738.6m62.7,29.2V738.6m61,29.2V738.6m51.4,29.2V738.6M366.8,768.2H542.7M367.2,797.8V768.6m62.7,29.2V768.6m61,29.2V768.6m51.4,29.2V768.6M366.8,798.1H542.7M367.2,827.7V798.5m62.7,29.2V798.5m61,29.2V798.5m51.4,29.2V798.5M366.8,828.1H542.7M367.2,857.7V828.5m62.7,29.2V828.5m61,29.2V828.5m51.4,29.2V828.5M366.8,858.1H542.7M367.2,887.6V858.4m62.7,29.2V858.4m61,29.2V858.4m51.4,29.2V858.4M366.8,888H542.7" class="g0_30"/>
<path d="M116.9,1118.9V1004.1c0,-21.6,17.6,-39.1,39.2,-39.1H792.5v153.9Z" class="gb_30"/>
<path d="M119.5,1118.9V997.5H789.9v121.4Z" class="gc_30"/>
</svg>