<?xml version="1.0" encoding="UTF-8" standalone="no"?>
<!DOCTYPE svg PUBLIC "-//W3C//DTD SVG 1.1//EN"
"http://www.w3.org/Graphics/SVG/1.1/DTD/svg11.dtd">
<svg viewBox="0 0 1286 909" version="1.1" xmlns="http://www.w3.org/2000/svg" xmlns:xlink="http://www.w3.org/1999/xlink">
<defs>
<style type="text/css"><![CDATA[
.g0_649{
fill: none;
stroke: #000000;
stroke-width: 0.73;
stroke-linecap: butt;
stroke-linejoin: miter;
}
.g1_649{
fill: #B3E9FA;
}
.g2_649{
fill: none;
stroke: #02B5EE;
stroke-width: 1.262;
stroke-linecap: butt;
stroke-linejoin: miter;
}
.g3_649{
fill: none;
stroke: #5EE200;
stroke-width: 1.262;
stroke-linecap: butt;
stroke-linejoin: miter;
}
]]></style>
</defs>
<path d="M193,83.4h900.3M193,210.6H691.4m-498.4,0H691.4M475.7,240.2V211m0,58.5V240.2m0,114.3v-85" class="g0_649"/>
<path d="M489.2,304.7V292.5c0,-2.9,2.3,-5.2,5.2,-5.2h66c2.8,0,5.2,2.3,5.2,5.2v12.2c0,2.9,-2.4,5.2,-5.2,5.2h-66c-2.9,0,-5.2,-2.3,-5.2,-5.2Z" class="g1_649"/>
<path d="M486.6,330.5h81.6" class="g2_649"/>
<path d="M578.7,330.5H680.4" class="g3_649"/>
<path d="M475.7,383.7V354.5m0,58.4V383.7m0,114.3V412.9" class="g0_649"/>
<path d="M524.1,474h85.3" class="g2_649"/>
<path d="M475.7,527.2V498M193,527.5H691.4m-498.4,0H691.4" class="g0_649"/>
</svg>