<?xml version="1.0" encoding="UTF-8" standalone="no"?>
<!DOCTYPE svg PUBLIC "-//W3C//DTD SVG 1.1//EN"
"http://www.w3.org/Graphics/SVG/1.1/DTD/svg11.dtd">
<svg viewBox="0 0 1286 909" version="1.1" xmlns="http://www.w3.org/2000/svg" xmlns:xlink="http://www.w3.org/1999/xlink">
<defs>
<style type="text/css"><![CDATA[
.g0_1238{
fill: none;
stroke: #000000;
stroke-width: 0.73;
stroke-linecap: butt;
stroke-linejoin: miter;
}
.g1_1238{
fill: none;
stroke: #000000;
stroke-width: 0.657;
stroke-linecap: butt;
stroke-linejoin: miter;
}
.g2_1238{
fill: #FDE8E9;
}
]]></style>
</defs>
<path d="M193,83.4h900.3" class="g0_1238"/>
<path d="M202.8,110.1H553.4M202.8,136.8V110.5m205.8,26.3V110.5m144.8,26.3V110.5M202.8,167.9V136.8m205.8,31.1V136.8" class="g1_1238"/>
<path d="M418.5,167.9h96.6V136.8H418.5v31.1Z" class="g2_1238"/>
<path d="M553.4,167.9V136.8M202.8,194.2V167.9m205.8,26.3V167.9m144.8,26.3V167.9M202.8,220.5V194.2m205.8,26.3V194.2m144.8,26.3V194.2M202.8,249.9V220.5m205.8,29.4V220.5" class="g1_1238"/>
<path d="M418.5,247h69.6V220.5H418.5V247Z" class="g2_1238"/>
<path d="M553.4,249.9V220.5M202.8,276.2V249.9m205.8,26.3V249.9m144.8,26.3V249.9M202.8,302.5V276.2m205.8,26.3V276.2m144.8,26.3V276.2M202.8,333.7V302.5m205.8,31.2V302.5" class="g1_1238"/>
<path d="M418.5,333.7H534.7V302.5H418.5v31.2Z" class="g2_1238"/>
<path d="M553.4,333.7V302.5M202.8,360V333.7M408.6,360V333.7M553.4,360V333.7M202.8,386.3V360m205.8,26.3V360m144.8,26.3V360M202.8,415.7V386.3m205.8,29.4V386.3" class="g1_1238"/>
<path d="M418.5,412.7h125V386.3h-125v26.4Z" class="g2_1238"/>
<path d="M553.4,415.7V386.3M202.8,442V415.7M408.6,442V415.7M553.4,442V415.7M202.8,468.3V442m205.8,26.3V442m144.8,26.3V442M202.8,497.6V468.3m205.8,29.3V468.3" class="g1_1238"/>
<path d="M418.5,494.7H480V468.3H418.5v26.4Z" class="g2_1238"/>
<path d="M553.4,497.6V468.3M202.8,523.9V497.6m205.8,26.3V497.6m144.8,26.3V497.6M202.8,550.2V523.9m205.8,26.3V523.9m144.8,26.3V523.9M202.8,579.6V550.2m205.8,29.4V550.2" class="g1_1238"/>
<path d="M418.5,576.7H471V550.2H418.5v26.5Z" class="g2_1238"/>
<path d="M553.4,579.6V550.2M202.8,605.9V579.6m205.8,26.3V579.6m144.8,26.3V579.6M202.8,632.2V605.9m205.8,26.3V605.9m144.8,26.3V605.9M202.8,663.4V632.2m205.8,31.2V632.2" class="g1_1238"/>
<path d="M418.5,663.4h98.3V632.2H418.5v31.2Z" class="g2_1238"/>
<path d="M553.4,663.4V632.2M202.8,689.7V663.4m205.8,26.3V663.4m144.8,26.3V663.4M202.8,716V689.7M408.6,716V689.7M553.4,716V689.7M202.8,745.4V716m205.8,29.4V716" class="g1_1238"/>
<path d="M418.5,742.4h72.8V716H418.5v26.4Z" class="g2_1238"/>
<path d="M553.4,745.4V716M202.8,771.7V745.4m205.8,26.3V745.4m144.8,26.3V745.4M202.8,772H553.4M573.1,109.5h506.4M573.1,136.1V109.8m293.3,26.3V109.8m213.1,26.3V109.8M573.1,167.3V136.1m293.3,31.2V136.1" class="g1_1238"/>
<path d="M876.3,167.3h92.8V136.1H876.3v31.2Z" class="g2_1238"/>
<path d="M1079.5,167.3V136.1M573.1,193.6V167.3m293.3,26.3V167.3m213.1,26.3V167.3M573.1,219.9V193.6m293.3,26.3V193.6m213.1,26.3V193.6M573.1,251V219.9M866.4,251V219.9" class="g1_1238"/>
<path d="M876.3,251H986.4V219.9H876.3V251Z" class="g2_1238"/>
<path d="M1079.5,251V219.9M573.1,277.3V251m293.3,26.3V251m213.1,26.3V251M573.1,303.6V277.3m293.3,26.3V277.3m213.1,26.3V277.3M573.1,334.8V303.6m293.3,31.2V303.6" class="g1_1238"/>
<path d="M876.3,334.8h79V303.6h-79v31.2Z" class="g2_1238"/>
<path d="M1079.5,334.8V303.6M573.1,361.1V334.8m293.3,26.3V334.8m213.1,26.3V334.8M573.1,387.4V361.1m293.3,26.3V361.1m213.1,26.3V361.1M573.1,418.5V387.4m293.3,31.1V387.4" class="g1_1238"/>
<path d="M876.3,418.5h41.8V387.4H876.3v31.1Z" class="g2_1238"/>
<path d="M1079.5,418.5V387.4M573.1,444.8V418.5m293.3,26.3V418.5m213.1,26.3V418.5M573.1,471.2V444.8m293.3,26.4V444.8m213.1,26.4V444.8M573.1,500.5V471.2m293.3,29.3V471.2" class="g1_1238"/>
<path d="M876.3,497.6h82.3V471.1H876.3v26.5Z" class="g2_1238"/>
<path d="M1079.5,500.5V471.2M573.1,526.8V500.5m293.3,26.3V500.5m213.1,26.3V500.5M573.1,553.1V526.8m293.3,26.3V526.8m213.1,26.3V526.8M573.1,582.5V553.1m293.3,29.4V553.1" class="g1_1238"/>
<path d="M876.3,579.6h193.3V553.1H876.3v26.5Z" class="g2_1238"/>
<path d="M1079.5,582.5V553.1M573.1,608.8V582.5m293.3,26.3V582.5m213.1,26.3V582.5M573.1,635.1V608.8m293.3,26.3V608.8m213.1,26.3V608.8M573.1,664V635.1M866.4,664V635.1" class="g1_1238"/>
<path d="M876.3,664H957V638.3H876.3V664Z" class="g2_1238"/>
<path d="M1079.5,664V635.1M573.1,690.3V664m293.3,26.3V664m213.1,26.3V664M573.1,716.6V690.3m293.3,26.3V690.3m213.1,26.3V690.3M573.1,746V716.6M866.4,746V716.6" class="g1_1238"/>
<path d="M876.3,743.1h90V716.6h-90v26.5Z" class="g2_1238"/>
<path d="M1079.5,746V716.6M573.1,772.3V746m293.3,26.3V746m213.1,26.3V746M573.1,772.7h506.4" class="g1_1238"/>
</svg>