<?xml version="1.0" encoding="UTF-8" standalone="no"?>
<!DOCTYPE svg PUBLIC "-//W3C//DTD SVG 1.1//EN"
"http://www.w3.org/Graphics/SVG/1.1/DTD/svg11.dtd">
<svg viewBox="0 0 1286 909" version="1.1" xmlns="http://www.w3.org/2000/svg" xmlns:xlink="http://www.w3.org/1999/xlink">
<defs>
<style type="text/css"><![CDATA[
.g0_1192{
fill: none;
stroke: #000000;
stroke-width: 0.73;
stroke-linecap: butt;
stroke-linejoin: miter;
}
.g1_1192{
fill: none;
stroke: #000000;
stroke-width: 0.62;
stroke-linecap: butt;
stroke-linejoin: miter;
}
.g2_1192{
fill: #FDE8E9;
}
]]></style>
</defs>
<path d="M193,83.4h900.3" class="g0_1192"/>
<path d="M202.3,109.5H452.7M202.3,134.6V109.8m122,24.8V109.8m128.4,24.8V109.8M202.3,164V134.6m122,29.4V134.6" class="g1_1192"/>
<path d="M333.6,164h86.8V134.6H333.6V164Z" class="g2_1192"/>
<path d="M452.7,164V134.6M202.3,188.9V164m122,24.9V164m128.4,24.9V164M202.3,213.7V188.9m122,24.8V188.9m128.4,24.8V188.9M202.3,241.5V213.7m122,27.8V213.7" class="g1_1192"/>
<path d="M333.6,238.7h84.1v-25H333.6v25Z" class="g2_1192"/>
<path d="M452.7,241.5V213.7M202.3,266.3V241.5m122,24.8V241.5m128.4,24.8V241.5M202.3,291.2V266.3m122,24.9V266.3m128.4,24.9V266.3M202.3,318.9V291.2m122,27.7V291.2" class="g1_1192"/>
<path d="M333.6,316.1h74V291.2h-74v24.9Z" class="g2_1192"/>
<path d="M452.7,318.9V291.2M202.3,343.7V318.9m122,24.8V318.9m128.4,24.8V318.9M202.3,368.6V343.7m122,24.9V343.7m128.4,24.9V343.7M202.3,398V368.6m122,29.4V368.6" class="g1_1192"/>
<path d="M333.6,398H443.3V368.6H333.6V398Z" class="g2_1192"/>
<path d="M452.7,398V368.6M202.3,422.8V398m122,24.8V398m128.4,24.8V398M202.3,447.7V422.8m122,24.9V422.8m128.4,24.9V422.8M202.3,477.1V447.7m122,29.4V447.7" class="g1_1192"/>
<path d="M333.6,477.1h88.3V447.7H333.6v29.4Z" class="g2_1192"/>
<path d="M452.7,477.1V447.7M202.3,502V477.1m122,24.9V477.1M452.7,502V477.1M202.3,526.8V502m122,24.8V502m128.4,24.8V502M202.3,554.5V526.8m122,27.7V526.8" class="g1_1192"/>
<path d="M333.6,551.7h82.9V526.8H333.6v24.9Z" class="g2_1192"/>
<path d="M452.7,554.5V526.8M202.3,579.4V554.5m122,24.9V554.5m128.4,24.9V554.5M202.3,604.2V579.4m122,24.8V579.4m128.4,24.8V579.4M202.3,633.6V604.2m122,29.4V604.2" class="g1_1192"/>
<path d="M333.6,633.6H394V604.2H333.6v29.4Z" class="g2_1192"/>
<path d="M452.7,633.6V604.2M202.3,658.5V633.6m122,24.9V633.6m128.4,24.9V633.6M202.3,683.3V658.5m122,24.8V658.5m128.4,24.8V658.5M202.3,712.8V683.3m122,29.5V683.3" class="g1_1192"/>
<path d="M333.6,712.8H441.8V683.3H333.6v29.5Z" class="g2_1192"/>
<path d="M452.7,712.8V683.3M202.3,737.6V712.8m122,24.8V712.8m128.4,24.8V712.8M202.3,737.9H452.7M471.3,110.3H711.7M471.3,135.5V110.6m101.3,24.9V110.6m139.1,24.9V110.6M471.3,163.2V135.5m101.3,27.7V135.5" class="g1_1192"/>
<path d="M581.9,160.4h85.4V135.5H581.9v24.9Z" class="g2_1192"/>
<path d="M711.7,163.2V135.5M471.3,188.1V163.2m101.3,24.9V163.2m139.1,24.9V163.2M471.3,212.9V188.1m101.3,24.8V188.1m139.1,24.8V188.1M471.3,242.3V212.9m101.3,29.4V212.9" class="g1_1192"/>
<path d="M581.9,242.3h96.3V212.9H581.9v29.4Z" class="g2_1192"/>
<path d="M711.7,242.3V212.9M471.3,267.2V242.3m101.3,24.9V242.3m139.1,24.9V242.3M471.3,292V267.2M572.6,292V267.2M711.7,292V267.2M471.3,319.7V292m101.3,27.7V292" class="g1_1192"/>
<path d="M581.9,316.9h69.2V292H581.9v24.9Z" class="g2_1192"/>
<path d="M711.7,319.7V292M471.3,344.6V319.7m101.3,24.9V319.7m139.1,24.9V319.7M471.3,369.4V344.6m101.3,24.8V344.6m139.1,24.8V344.6M471.3,398.8V369.4m101.3,29.4V369.4" class="g1_1192"/>
<path d="M581.9,398.8h59.6V369.4H581.9v29.4Z" class="g2_1192"/>
<path d="M711.7,398.8V369.4M471.3,423.7V398.8m101.3,24.9V398.8m139.1,24.9V398.8M471.3,448.5V423.7m101.3,24.8V423.7m139.1,24.8V423.7M471.3,476.3V448.5m101.3,27.8V448.5" class="g1_1192"/>
<path d="M581.9,473.5H674v-25H581.9v25Z" class="g2_1192"/>
<path d="M711.7,476.3V448.5M471.3,501.1V476.3m101.3,24.8V476.3m139.1,24.8V476.3M471.3,526V501.1M572.6,526V501.1M711.7,526V501.1M471.3,555.4V526m101.3,29.4V526" class="g1_1192"/>
<path d="M581.9,555.4h75.9V526H581.9v29.4Z" class="g2_1192"/>
<path d="M711.7,555.4V526M471.3,580.2V555.4m101.3,24.8V555.4m139.1,24.8V555.4M471.3,605.1V580.2m101.3,24.9V580.2m139.1,24.9V580.2M471.3,634.5V605.1m101.3,29.4V605.1" class="g1_1192"/>
<path d="M581.9,634.5H663V605.1H581.9v29.4Z" class="g2_1192"/>
<path d="M711.7,634.5V605.1M471.3,659.3V634.5m101.3,24.8V634.5m139.1,24.8V634.5M471.3,684.2V659.3m101.3,24.9V659.3m139.1,24.9V659.3M471.3,711.9V684.2m101.3,27.7V684.2" class="g1_1192"/>
<path d="M581.9,709.1H702.3V684.2H581.9v24.9Z" class="g2_1192"/>
<path d="M711.7,711.9V684.2M471.3,736.8V711.9m101.3,24.9V711.9m139.1,24.9V711.9M471.3,737.1H711.7M730.3,111.4h355.1M730.3,136.5V111.7M935,136.5V111.7m150.4,24.8V111.7M730.3,164.3V136.5M935,164.3V136.5" class="g1_1192"/>
<path d="M944.3,161.5h79.4v-25H944.3v25Z" class="g2_1192"/>
<path d="M1085.4,164.3V136.5M730.3,189.1V164.3M935,189.1V164.3m150.4,24.8V164.3M730.3,213.9V189.1M935,213.9V189.1m150.4,24.8V189.1M730.3,241.7V213.9M935,241.7V213.9" class="g1_1192"/>
<path d="M944.3,238.9h111.2v-25H944.3v25Z" class="g2_1192"/>
<path d="M1085.4,241.7V213.9M730.3,266.5V241.7M935,266.5V241.7m150.4,24.8V241.7M730.3,291.4V266.5M935,291.4V266.5m150.4,24.9V266.5M730.3,320.8V291.4M935,320.8V291.4" class="g1_1192"/>
<path d="M944.3,320.8h109.5V291.4H944.3v29.4Z" class="g2_1192"/>
<path d="M1085.4,320.8V291.4M730.3,345.6V320.8M935,345.6V320.8m150.4,24.8V320.8M730.3,370.5V345.6M935,370.5V345.6m150.4,24.9V345.6M730.3,397.8V370.5M935,397.8V370.5" class="g1_1192"/>
<path d="M944.3,397.8h74.2V373.5H944.3v24.3Z" class="g2_1192"/>
<path d="M1085.4,397.8V370.5M730.3,422.6V397.8M935,422.6V397.8m150.4,24.8V397.8M730.3,447.5V422.6M935,447.5V422.6m150.4,24.9V422.6M730.3,476.9V447.5M935,476.9V447.5" class="g1_1192"/>
<path d="M944.3,476.9h100.2V447.5H944.3v29.4Z" class="g2_1192"/>
<path d="M1085.4,476.9V447.5M730.3,501.7V476.9M935,501.7V476.9m150.4,24.8V476.9M730.3,526.6V501.7M935,526.6V501.7m150.4,24.9V501.7M730.3,554.3V526.6M935,554.3V526.6" class="g1_1192"/>
<path d="M944.3,551.5h54V526.6h-54v24.9Z" class="g2_1192"/>
<path d="M1085.4,554.3V526.6M730.3,579.2V554.3M935,579.2V554.3m150.4,24.9V554.3M730.3,604V579.2M935,604V579.2M1085.4,604V579.2M730.3,631.8V604M935,631.8V604" class="g1_1192"/>
<path d="M944.3,629h131.8V604H944.3v25Z" class="g2_1192"/>
<path d="M1085.4,631.8V604M730.3,656.6V631.8M935,656.6V631.8m150.4,24.8V631.8M730.3,681.4V656.6M935,681.4V656.6m150.4,24.8V656.6M730.3,710.9V681.4M935,710.9V681.4" class="g1_1192"/>
<path d="M944.3,710.9h120.8V681.4H944.3v29.5Z" class="g2_1192"/>
<path d="M1085.4,710.9V681.4M730.3,735.7V710.9M935,735.7V710.9m150.4,24.8V710.9M730.3,736h355.1" class="g1_1192"/>
</svg>