<?xml version="1.0" encoding="UTF-8" standalone="no"?>
<!DOCTYPE svg PUBLIC "-//W3C//DTD SVG 1.1//EN"
"http://www.w3.org/Graphics/SVG/1.1/DTD/svg11.dtd">
<svg viewBox="0 0 909 1286" version="1.1" xmlns="http://www.w3.org/2000/svg" xmlns:xlink="http://www.w3.org/1999/xlink">
<defs>
<clipPath id="c0_89"><path d="M122.8,259V231.8h29.1V259Z"/></clipPath>
<clipPath id="c1_89"><path d="M122.9,946V911.3H152V946Z"/></clipPath>
<clipPath id="c2_89"><path d="M122.1,260.4V231.2H153v29.2Z"/></clipPath>
<clipPath id="c3_89"><path d="M122.1,946.4V910.3H153v36.1Z"/></clipPath>
<style type="text/css"><![CDATA[
.g0_89{
fill: #FFFFFF;
}
.g1_89{
fill: none;
stroke: #000000;
stroke-width: 1.461;
stroke-linecap: butt;
stroke-linejoin: miter;
}
.g2_89{
fill: #808080;
}
.g3_89{
fill: none;
stroke: #000000;
stroke-width: 0.73;
stroke-linecap: butt;
stroke-linejoin: miter;
}
.g4_89{
fill: none;
stroke: #000000;
stroke-width: 2.739;
stroke-linecap: butt;
stroke-linejoin: miter;
}
.g5_89{
fill: #868686;
}
.g6_89{
fill: #242628;
}
.g7_89{
fill: #A0A0A0;
}
.g8_89{
fill: #C4956E;
}
.g9_89{
fill: #222426;
}
.ga_89{
fill: #202126;
}
.gb_89{
fill: #252427;
}
.gc_89{
fill: #222924;
}
]]></style>
</defs>
<path d="M117.7,442.6V223.7H791.8V442.6Z" class="g0_89"/>
<path d="M117.7,442.6V223.7H791.8V442.6Z" class="g1_89"/>
<path d="M485,373.6h21.6" class="g3_89"/>
<g clip-path="url(#c2_89)">
<path clip-path="url(#c0_89)" d="M140.5,238.9l8.3,8.3c2.4,2.4,2.4,6.3,0,8.7c-2.4,2.4,-6.3,2.4,-8.7,0L125.5,241.3c-1.9,-1.9,-1.9,-4.9,0,-6.8c1.9,-1.9,4.9,-1.9,6.8,0l14.6,14.6c1.3,1.3,1.3,3.5,0,4.9c-1.4,1.3,-3.6,1.3,-4.9,0l-8.3,-8.3l-1,.9l8.3,8.3c1.9,1.9,5,1.9,6.8,0c1.9,-1.8,1.9,-4.9,0,-6.8L133.3,233.6c-2.4,-2.4,-6.3,-2.4,-8.7,0c-2.4,2.4,-2.4,6.3,0,8.7l14.5,14.5c3,3,7.7,3,10.6,0c2.9,-2.9,2.9,-7.6,0,-10.6L141.4,238Z" class="g2_89"/>
</g>
<path d="M152.7,255.1H346.4" class="g3_89"/>
<path d="M137.6,260.9V433.2" class="g4_89"/>
<path d="M448.8,515.3h21.6m-10.8,59h37.5M480.9,668h37.5m-37.5,75.3h37.5" class="g3_89"/>
<path d="M117.7,1113.9V904H791.8v209.9Z" class="g0_89"/>
<path d="M117.7,1113.9V904H791.8v209.9Z" class="g1_89"/>
<path d="M475.1,1059.6h37.5" class="g3_89"/>
<g clip-path="url(#c3_89)">
<path clip-path="url(#c1_89)" d="M125.6,945.8c-.1,-.1,-.1,-.2,0,-.3c0,-.2,.1,-1.3,0,-1.7c0,-.2,0,-.5,0,-.7c.1,-.8,.3,-2.2,.3,-2.2c0,0,0,-.3,.1,-.6c.1,-.5,.1,-.6,-.1,-.9c-.3,-.6,-.9,-2,-1.1,-2.8c-.4,-1.8,-.5,-4.6,-.1,-6c.3,-1.1,.5,-1.2,.9,-.6c.3,.7,.4,.5,0,-.2c-.3,-.8,-.6,-2.1,-.5,-2.5c0,-.2,.2,-.6,.4,-1.1c.2,-.4,.4,-1,.5,-1.2c.1,-.5,.5,-.7,.9,-.6c.1,.1,.2,.2,.3,.4c.2,.3,.2,.2,.1,-.2c-.1,-.3,-.2,-.6,-.1,-.6c0,0,0,-.2,0,-.4c.1,-.4,1,-2,1.6,-2.6c.3,-.3,.6,-.6,.7,-.8c.1,-.1,.5,-.4,.8,-.6c.3,-.3,.7,-.6,.9,-.8c.4,-.4,.7,-.5,.9,-.2q.2,.1,.2,-.2c0,-.2,0,-.4,0,-.5c.1,-.2,1.5,-1.2,2.1,-1.5c.3,-.1,.6,-.3,.8,-.4c.1,-.1,.3,-.2,.4,-.2c0,0,.4,-.2,.8,-.5c.4,-.2,.9,-.4,1,-.5c.2,0,.6,-.2,1,-.4c1.1,-.5,1.6,-.7,2.4,-1.1c.5,-.1,.9,-.3,1,-.3c0,0,.1,0,.3,.1l.2,.2l.4,-.3c.6,-.6,1.6,-.9,3.8,-1.2c.9,-.1,2.2,-.3,2.8,-.4l1,-.1l.1,.3q.1,.2,-.3,.4c-2.7,1,-4.6,2,-5.6,2.8c-.2,.2,-.4,.4,-.4,.4c-.1,0,-1.5,1.4,-1.5,1.6c0,0,-.1,.2,-.2,.3c-.3,.1,-.6,.7,-.5,1.1c0,.1,-.1,.3,-.4,.5c-.3,.2,-.4,.3,-.4,.4c.2,.1,0,.9,-.2,1.1c-.7,.8,-1.7,2.3,-1.9,3c-.1,.1,-.2,.4,-.4,.7c-.2,.3,-.4,.8,-.5,1q-.4,1,-1,1c-.5,.1,-1.4,.4,-1.3,.5c0,0,.4,0,.9,-.1c1.1,-.2,1.2,-.1,.8,.7c-.4,.7,-.7,1.7,-.7,2.1c0,.3,-.2,.9,-.6,2.3c-.1,.3,-.3,.5,-.7,.7c-.5,.3,-.6,.3,-1.2,.3q-.7,0,-.6,.2c.1,.2,-.1,.5,-.5,1.4c-.3,.6,-.7,1.2,-.8,1.3c-.2,.1,-.4,.5,-.6,.8c-.2,.3,-.4,.5,-.5,.5c0,0,-.2,.1,-.3,.3c-.6,.8,-2.7,2.6,-3,2.7l.3,-3.3c.1,.2,.4,0,.6,-.2c.2,-.4,.5,-.6,1.1,-.6c.5,-.1,.6,-.1,1,-.5c.2,-.3,.6,-.9,.9,-1.4l.5,-1l-.5,-.3c-.3,-.1,-.6,-.3,-.7,-.4c-.1,-.2,.4,-.9,.7,-1.1c.2,0,.5,-.1,.7,-.1c.2,0,.5,-.1,.7,-.3c.3,-.1,.5,-.2,.7,-.3c.6,0,.8,-.4,.8,-1.3c.1,-.9,.2,-1,.5,-1.2c.4,-.1,.7,-.1,.9,.2l.1,.2l.1,-.2c.1,-.3,.1,-.5,-.1,-.4c-.1,0,-.2,-.1,-.3,-.3q-.1,-.2,-.6,-.4c-.6,-.2,-.7,-.3,-.5,-.5c0,-.1,0,-.3,0,-.4c-.1,-.3,.4,-.7,1,-1c.5,-.2,.6,-.3,1.1,-1.3c.3,-.5,.8,-1.2,1,-1.4c.2,-.2,.5,-.5,.6,-.7c.1,-.2,.2,-.2,.4,-.2c.2,0,.4,-.1,.5,-.2c.2,-.2,.9,-1.1,.8,-1.1c0,-.1,-.2,0,-.5,.2c-.8,.3,-1.8,.2,-2,-.1c-.2,-.3,.4,-1.2,.9,-1.2c.1,0,1.1,-.5,1.5,-.8c.1,-.1,.3,-.5,.5,-.8c.3,-.7,.8,-1.4,1.2,-1.5c.5,-.1,.7,-.3,.9,-.7c.2,-.4,.1,-.7,-.4,-.9c-.1,-.1,-.3,-.2,-.4,-.3c0,-.2,-.1,-.3,-.2,-.3c-.3,.1,-3,1.2,-4.1,1.7c-.2,.1,-.5,.4,-.7,.6c-.1,.1,-.5,.5,-.9,.8c-.4,.3,-.9,.8,-1,1c-.1,.3,-.4,.7,-.7,.9c-.4,.4,-.4,.5,-.4,1.2c-.1,.4,0,.9,.1,1.2c.3,.7,.2,1.1,-.3,1c-.5,0,-.8,-.3,-1.3,-1.5c-.3,-.6,-.6,-1.1,-.6,-1.1c-.2,.1,-.8,.8,-1.1,1.3c-.2,.6,-.3,.7,-.7,.8c-.5,.2,-.5,.3,-.7,.7c-.1,.3,-.1,.7,-.1,.8c.1,.1,.1,.3,.1,.3c-.1,.4,-.1,.8,.1,1.3c.2,.2,.3,.6,.3,.8c0,.1,.1,.5,.3,.9c.3,.6,.3,.7,.2,1.2c-.1,.2,-.1,.6,-.1,.7c-.1,.3,-.4,.2,-1.1,-.3c-.5,-.5,-1.2,-1.2,-2,-2.4c-.3,-.3,-.4,-.4,-.3,-.1c0,.2,-.1,.5,-.2,.9c-.2,.6,-.2,1.3,.2,1.7c.2,.3,.8,1.9,.9,2.3c0,.2,0,.4,.1,.5c.1,.2,.1,1,-.1,1.3c0,.1,0,.2,0,.4c0,.1,-.1,.2,-.2,.2c-.2,0,-.7,-.3,-1,-.7c-.1,-.1,-.3,-.3,-.5,-.4l-.2,-.3l-.1,.2c-.1,.2,0,.7,.1,1.1c.3,.8,.4,2.4,.2,3c-.1,.1,-.2,.4,-.4,.5c-.4,.3,-.3,.5,.4,1.4l.4,.5l.1,-.3c.1,-.1,.2,-.5,.3,-.9c.1,-.4,.2,-.8,.3,-1c.1,-.2,.2,-.6,.3,-.8q.1,-.5,2.3,-5.3q1,-2.1,1.9,-3.3c.7,-1.1,1.3,-2.1,1.9,-3.1c.8,-1.3,.9,-1.5,1.4,-2.1c.3,-.3,.7,-.8,.9,-1.1c.9,-1.1,1.1,-1.4,1.3,-1.3c.1,0,.2,.1,.2,.1c0,.1,-.2,.4,-.5,.9c-.3,.4,-.8,1.1,-1,1.5c-.9,1.5,-2.1,3.4,-2.5,4c-.2,.3,-.5,.7,-.6,.9c-.1,.2,-.4,.6,-.5,.9c-.2,.3,-.3,.6,-.4,.7c0,.3,-.1,.8,-1.1,2.6c-.8,1.5,-1,2,-1.7,3.7c-.5,1,-.8,2.2,-.7,2.3l-.3,3.3c-.3,0,-.5,1.8,-.2,2.9c.1,.8,.1,1,-.2,1.3c-.6,.4,-1.1,1.1,-1.3,1.6c-.1,.4,-.2,.6,-.4,.6c-.2,0,-.2,-.1,-.3,-.2Z" class="g5_89"/>
<path d="M133.1,932.3c-.1,-.1,-.3,-.1,-.4,-.1q-.1,0,0,.1c.1,.1,.3,.1,.4,.1q.2,0,0,-.1Z" class="g0_89"/>
<path d="M144.5,913.3q0,-.2,-.1,-.2c-.1,0,-.1,.1,-.2,.2q0,.1,.1,.1c.1,0,.2,-.1,.2,-.1Z" class="g0_89"/>
<path d="M125.7,945.9c-.1,-.1,-.1,-.2,-.1,-.3c.1,-.1,.1,-.9,.1,-1.7c0,-1.4,.1,-2.2,.4,-3.5l.1,-.6l-.5,-1c-.3,-.5,-.5,-1.3,-.6,-1.6c-.1,-.4,-.3,-.8,-.3,-1c-.2,-.7,-.3,-2.9,-.3,-3.9c.1,-1.1,.5,-2.6,.7,-2.6c.1,0,.2,.1,.4,.5c.5,.8,.7,.8,.3,0c-.4,-.9,-.7,-1.9,-.7,-2.5c0,-.5,.5,-1.9,.9,-2.8c.2,-.3,.3,-.4,.5,-.5q.3,0,.9,.9l.5,.8l-.4,-.8c-.5,-1.1,-.4,-1.7,.3,-2.9c.3,-.5,.6,-1,.7,-1.1c.1,-.1,.4,-.4,.6,-.7c.3,-.3,.8,-.7,1.2,-1c.3,-.2,.7,-.6,.9,-.8c.4,-.5,.6,-.4,1,.2l.2,.3l-.1,-.5c-.1,-.8,0,-.9,.8,-1.6c.5,-.3,.9,-.5,1,-.5c0,0,.1,-.1,.1,-.1c0,-.1,.1,-.1,.3,-.1c.2,-.1,.2,0,.2,.1c-.1,0,-.1,.1,-.2,.1c-.1,0,-.4,.3,-.7,.5c-.4,.3,-.8,.7,-.9,.7c-.3,.2,-.3,.3,-.3,.7c0,.3,.1,.7,.2,.9c.1,.4,.1,.9,0,.9c-.2,.1,-.4,-.2,-.7,-.8l-.3,-.7l-.4,.3c-.1,.1,-.3,.3,-.3,.3c-.1,0,-.3,.3,-.6,.5c-.3,.2,-.6,.5,-.7,.5c-.1,.1,-.3,.4,-.6,.7c-.6,.6,-1.6,2.2,-1.5,2.5c.1,.3,1,2.2,1.7,3.5c.5,.9,.6,1,.4,1c-.2,0,-1.2,-.8,-1.6,-1.4c-.3,-.3,-.6,-.7,-.8,-.9c-.1,-.2,-.3,-.5,-.4,-.6c-.2,-.5,-.4,-.5,-.6,0c-.3,.4,-.8,2.1,-.9,2.4c-.1,.8,.6,2.7,1.5,3.8c.7,1,.7,1.3,-.1,.8c-.3,-.2,-1.3,-1.2,-1.5,-1.6c0,-.1,-.1,-.2,-.1,-.2c-.2,.1,-.4,1.1,-.4,1.8c0,.3,0,.7,-.1,.8c0,.1,0,.7,.1,1.3c.1,.6,.1,1.3,.1,1.5c.1,.7,1,3.1,1.1,3.1c.1,0,.1,-.1,.1,-.1c0,-.1,.1,-.6,.3,-1.1c.2,-.6,.3,-1.3,.4,-1.5c0,-.2,.1,-.4,.1,-.5c.1,-.1,.2,-.4,.3,-.7c.1,-.5,.2,-.9,1.1,-2.7c.3,-.5,.7,-1.4,.9,-1.9c.8,-1.6,1.6,-3.2,2.2,-4.2c.7,-1,1.1,-1.6,1.9,-2.9c.2,-.4,.6,-.9,.7,-1.1c.2,-.2,.3,-.5,.3,-.6c.1,0,.3,-.3,.6,-.7c.2,-.3,.6,-.7,.8,-1c.9,-1.2,1.1,-1.3,1.2,-1.2c.2,.1,.2,.2,-.6,1.1c-.2,.3,-.6,.9,-.8,1.3c-.8,1.3,-2.1,3.4,-2.4,3.8c-.6,.8,-1.5,2.5,-1.5,2.7c0,.2,-.5,1.4,-1.2,2.7c-.7,1.3,-1.3,2.7,-1.5,3.1c-.1,.4,-.3,.7,-.3,.7c-.1,.1,-.5,1.3,-.6,1.8c0,.3,-.1,.7,-.1,1c-.2,.8,-.3,2,-.3,2.1c0,0,.1,0,.3,-.1c.1,-.1,.3,-.4,.6,-.5c.2,-.2,.5,-.5,.8,-.7c.2,-.2,.4,-.5,.5,-.5c.6,-.6,.9,-.9,1.2,-1.5c.3,-.3,.6,-.7,.7,-.8c.3,-.3,1.2,-2,1.2,-2.1c-.1,0,-.4,-.3,-.9,-.5c-.9,-.4,-1,-.6,-.8,-.7c.1,-.1,1,.1,1.8,.2c.2,.1,.7,.1,1,.1c.9,-.1,1.4,-.4,1.6,-1c.1,-.3,.2,-.6,.2,-.8c.1,-.3,.3,-1,.3,-1.5c.1,-.5,.4,-1.3,.6,-1.7l.2,-.3l-.5,.1c-.5,0,-1.6,-.2,-1.7,-.4c-.1,-.2,.7,-.6,1.6,-.8l.8,-.1l.2,-.6c.2,-.3,.3,-.7,.4,-.9c0,-.2,.1,-.4,.2,-.5c.1,0,.3,-.3,.4,-.6c0,-.2,.3,-.6,.4,-.9c1.4,-1.9,1.6,-2.2,1.5,-2.2c-.1,-.1,-.4,0,-.6,.2c-.7,.3,-1.5,.3,-1.5,0c0,-.3,1.8,-1.3,2.7,-1.6c.4,0,.4,-.1,.4,-.5c0,-.3,.2,-.6,.3,-.8c.1,-.2,.3,-.5,.4,-.7c.3,-.5,2.2,-2.2,3.2,-2.8c.7,-.4,1.8,-1,2.7,-1.3l.7,-.3l-1.6,.2c-2.6,.3,-3.7,.6,-4.4,1.4c-.3,.4,-.4,.4,-.5,.2c-.1,-.3,.6,-1,1.2,-1.2c.6,-.3,1.7,-.5,2.4,-.6c.4,-.1,1.5,-.2,2.5,-.4c1.5,-.2,1.8,-.3,1.9,-.2c.4,.2,.3,.4,-.2,.6c-1.1,.4,-2.2,.8,-2.9,1.2c-.7,.3,-2,1.1,-2.2,1.3c-.1,0,-.3,.2,-.6,.4c-.9,.8,-1.6,1.5,-1.8,1.8c-.1,.2,-.3,.5,-.4,.6c-.1,.1,-.3,.5,-.3,.7c0,.3,-.1,.5,-.4,.7c-.2,.1,-.5,.2,-.6,.2l-.2,.1h.2c.4,.1,.5,.2,.3,.4c0,.1,-.1,.3,-.1,.4c.1,0,-.1,.3,-.4,.6c-.2,.3,-.5,.6,-.6,.8c-.1,.2,-.3,.5,-.4,.7c-.4,.5,-.6,.9,-.7,1.2c0,.1,-.2,.4,-.4,.7c-.3,.5,-.4,.8,-.7,1.7c-.1,.3,-.2,.3,-.7,.4c-.7,.1,-1.5,.3,-1.4,.4c0,.1,.4,.1,.9,0c.8,-.1,.9,-.1,1,.1c.1,.1,.1,.3,-.2,.6c-.3,.6,-.7,1.7,-.7,2.2c0,.3,-.3,1.3,-.6,2.1c-.1,.3,-.2,.5,-.6,.7c-.5,.3,-.6,.4,-1.2,.4c-.4,0,-.9,-.1,-1,-.1c-.2,-.1,-.5,-.1,-.8,-.2l-.6,-.1l.5,.2c.3,.2,.6,.3,.7,.3q.5,0,.6,.2c.1,.1,-.9,2,-1.3,2.5c-.2,.2,-.5,.5,-.7,.8c-.1,.2,-.3,.5,-.4,.6c-.2,.1,-.4,.3,-.6,.5c-.4,.5,-1.3,1.4,-1.7,1.6c-.1,.1,-.4,.3,-.5,.4c-.1,.2,-.3,.3,-.5,.4c-.2,.1,-.3,.2,-.3,.4c-.1,.5,-.1,1.9,-.1,2.1c0,.1,.1,.5,.1,.8c.1,.6,.1,.7,-.2,.9c-.4,.3,-1,1.1,-1.3,1.7c-.1,.3,-.2,.6,-.2,.6c-.1,0,-.2,-.1,-.3,-.1Z" class="g6_89"/>
<path d="M128.2,925.5q-.1,-.2,-.1,-.1c-.1,.2,0,.3,.1,.3c.1,0,.1,-.1,0,-.2Z" class="g6_89"/>
<path d="M139.7,919.6c.2,-.1,.5,-.3,.7,-.4l.2,-.2l-.3,.1c-.5,.1,-1.4,.6,-1.4,.7c0,.1,.3,.1,.8,-.2Z" class="g7_89"/>
<path d="M139.7,919.6c.4,-.2,.6,-.4,.2,-.3c-.3,.1,-.9,.5,-.7,.5c0,0,.3,-.1,.5,-.2Z" class="g0_89"/>
<path d="M134.9,916.4c0,-.1,.6,-.6,.7,-.5c.2,.1,.2,.2,-.1,.3c-.1,0,-.3,.1,-.4,.2q-.1,0,-.2,0Z" class="g6_89"/>
<path d="M136.2,915.6c.1,-.1,.2,-.2,.3,-.2q.2,0,.1,.2c-.1,.1,-.2,.2,-.3,.2q-.2,0,-.1,-.2Z" class="g6_89"/>
<path d="M137.1,915.1c.1,-.2,.6,-.3,.7,-.2c0,.1,-.5,.4,-.7,.4q-.1,0,0,-.2Z" class="g6_89"/>
<path d="M137.9,914.8c0,-.1,.8,-.5,1.3,-.7c.3,0,.6,-.2,.7,-.2c.4,-.3,1.9,-.9,2.1,-.8c.2,.1,.1,.3,-.2,.4c-.5,0,-1.7,.4,-3,1.1c-.6,.2,-.8,.3,-.9,.2Z" class="g6_89"/>
<path d="M125.7,945.8c0,0,0,-.1,0,-.2c0,-.1,.1,-.6,.1,-1.2c0,-1.4,0,-1.9,.3,-4.1l.1,-.6l-.5,-1c-.3,-.7,-.5,-1.3,-.6,-1.6c-.1,-.4,-.2,-.8,-.2,-.9c-.3,-1.1,-.4,-4.2,-.1,-5.2c.1,-.4,.2,-.8,.2,-1c.1,-.4,.2,-.3,.7,.4c.6,1,.9,.9,.3,-.2c-.4,-.6,-.8,-2,-.8,-2.5c0,-.4,.6,-1.9,1,-2.7c.1,-.3,.2,-.5,.4,-.5c.2,0,.3,0,.5,.4c.5,.6,.6,.9,.5,.9c-.1,-.1,-.3,-.3,-.4,-.5c-.4,-.7,-.6,-.6,-1.2,.9c-.7,1.8,-.6,2.4,.7,4.7c.5,.9,.8,1.5,.7,1.5c-.2,.1,-1.4,-1,-1.7,-1.6c-.1,-.1,-.2,-.2,-.3,-.3q-.1,-.1,-.2,.1c-.3,.9,-.4,2.5,-.2,4.1c0,.5,.1,1.1,.1,1.3c0,.5,1,3.1,1.2,3.1c.1,0,.1,-.1,.1,-.2c0,-.2,.1,-.8,.3,-1.3c.2,-.6,.3,-1.2,.4,-1.4c0,-.2,0,-.3,.1,-.3c.1,0,.4,-1.1,.4,-1.2c0,0,.1,-.3,.2,-.7c.9,-1.8,1.3,-2.7,1.6,-3.4c.8,-1.6,1.6,-3.2,2.3,-4.2c.7,-1.2,1.3,-2.2,1.9,-3.1c.2,-.4,.5,-.8,.7,-1c.1,-.2,.3,-.4,.3,-.5c0,-.1,.6,-.8,.9,-1.1c.1,-.1,.3,-.3,.5,-.6c.6,-.9,1,-1.3,1.1,-1.3c.1,.1,.1,0,-.6,.9c-.2,.4,-.7,1.1,-.9,1.5c-.8,1.3,-2,3.3,-2.3,3.7c-.6,.7,-1.6,2.6,-1.6,2.9c0,.1,-.5,1.3,-1.2,2.5c-.6,1.3,-1.3,2.7,-1.4,3.1c-.2,.4,-.4,1,-.6,1.3c-.2,.7,-.4,1.5,-.4,1.9c0,.1,-.1,.4,-.1,.6c-.1,.2,-.2,.8,-.2,1.2c-.1,.6,-.1,.7,.1,.7c.1,0,.2,0,.2,-.1c.1,-.1,.3,-.3,.6,-.5c.3,-.2,.5,-.4,.6,-.5c0,-.1,.3,-.3,.5,-.5c.7,-.6,1.1,-1,1.5,-1.7c.3,-.3,.6,-.6,.7,-.7c.2,-.3,1.1,-1.9,1.1,-2.1c0,-.1,-.1,-.2,-.6,-.5c-.7,-.4,-.6,-.4,.1,-.1c.3,.1,.6,.2,.7,.2c.4,-.1,.3,.2,-.2,1.3c-.3,.6,-.7,1.2,-.9,1.4c-.1,.1,-.4,.5,-.6,.7c-.2,.3,-.4,.6,-.5,.7c-.1,0,-.3,.3,-.5,.4c-.1,.2,-.4,.5,-.6,.7c-.2,.1,-.5,.4,-.6,.5c-.1,.2,-.3,.3,-.3,.3c-.1,0,-.3,.2,-.5,.4c-.2,.2,-.5,.4,-.7,.4c-.2,.1,-.3,.2,-.3,.7c-.1,.4,-.1,.7,-.1,.7c0,.1,0,.3,0,.6c0,.2,.1,.7,.1,.9c.2,.9,.1,1.2,-.1,1.3c-.4,.3,-1.1,1.2,-1.3,1.8c-.2,.5,-.3,.6,-.5,.4Z" class="g8_89"/>
<path d="M134,932.3c-.4,0,-.8,-.1,-1,-.1c-.2,-.1,-.4,-.1,-.5,-.1c-.1,0,-.3,-.1,-.4,-.1c-.1,-.1,-.3,-.1,-.4,-.1c-.1,.1,-.2,.1,-.3,0c-.1,-.2,.3,-.2,1.8,.1c1.4,.2,2.5,-.2,2.7,-1c0,-.2,.1,-.6,.2,-.8c.1,-.2,.2,-.6,.2,-.8c.1,-.4,.1,-.8,.3,-1.6c.1,-.2,.2,-.6,.4,-.8c.1,-.1,.2,-.3,.1,-.3c0,-.1,-.2,-.1,-.4,0c-.4,.1,-1.6,-.1,-1.7,-.3c-.1,-.3,.8,-.7,2,-.8c.3,0,.4,-.1,.6,-.7c.6,-1.5,1.6,-3.3,2.9,-4.9c.1,-.2,.1,-.3,0,-.3c0,-.1,-.3,0,-.7,.2c-.6,.2,-1.3,.3,-1.4,.1c0,0,0,-.1,.1,-.2c.2,-.1,.2,0,.2,.1c.1,.1,.1,.2,.1,.1c.3,0,1.3,-.5,1.6,-.7c.3,-.2,.6,-.3,.6,-.1c.1,.1,-.1,.8,-.2,.9c-.2,.2,-.5,.6,-.7,.9c-.1,.2,-.4,.5,-.6,.8c-.3,.6,-.5,.9,-.6,1.2c-.1,.2,-.3,.5,-.4,.8c-.3,.5,-.6,1,-.8,1.7c-.1,.2,-.2,.2,-.7,.3c-.8,.1,-1.6,.5,-1.4,.6c0,.1,.4,.1,1,0c.8,-.1,.9,-.1,1,0c0,.1,-.1,.3,-.3,.6c-.3,.6,-.6,1.6,-.7,2.1c0,.3,-.1,.7,-.2,1c-.1,.3,-.2,.6,-.2,.8c-.1,.6,-.4,.9,-.8,1.1c-.6,.3,-.7,.4,-1.4,.3Z" class="g8_89"/>
<path d="M129.6,928c-.2,-.1,-.4,-.3,-.5,-.4c-.3,-.2,-1,-1,-1,-1.1c0,0,.1,-.1,.1,-.1c.1,0,.5,.4,.6,.6c.1,.1,.2,.1,.2,.1c.1,0,.1,-.1,-.1,-.3c-.1,-.2,-.3,-.5,-.4,-.8c-.1,-.2,-.4,-.8,-.6,-1.3c-.3,-.6,-.5,-1.1,-.5,-1.1c0,-.1,.2,-.6,.5,-1.1c.6,-1.1,1.6,-2.2,2.5,-2.8c.4,-.3,.8,-.6,.9,-.8c.4,-.5,.6,-.5,.9,.2c.2,.5,.3,.6,.4,.5c.1,0,.2,-.1,.2,-.1c0,.1,.1,.2,.1,.5c.1,.6,-.1,.4,-.6,-.4c-.4,-.7,-.5,-.8,-.7,-.5c-.1,.1,-.7,.6,-1.1,.9c-.7,.4,-1.8,1.8,-2.5,2.9l-.4,.7l.7,1.3c.7,1.5,1.1,2.3,1.5,2.8c.2,.4,.2,.6,-.2,.3Z" class="g8_89"/>
<path d="M128.1,926c-.1,-.1,0,-.2,0,-.2c.1,0,.1,.1,.2,.2c0,.1,0,.2,0,.2c-.1,0,-.2,-.1,-.2,-.2Z" class="g8_89"/>
<path d="M127.6,925c-.3,-.6,-.2,-.8,0,-.4c.2,.2,.4,.8,.3,.9c-.1,0,-.2,-.1,-.3,-.5Z" class="g8_89"/>
<path d="M140.1,918.9c.5,-.3,1.1,-.5,1.2,-.4c.1,.2,-.1,.2,-.8,.4c-.8,.3,-.9,.2,-.4,0Z" class="g8_89"/>
<path d="M141.5,918.4c0,0,0,-.2,0,-.4c0,-.5,.7,-1.7,1.3,-2.3c1.7,-1.6,3.9,-3,5.7,-3.5c.6,-.2,.6,-.4,-.1,-.3c-.3,.1,-1.3,.3,-2.2,.4c-1,.1,-1.9,.3,-2.1,.4c-.4,.1,-1.2,.6,-1.5,.9c-.2,.3,-.3,.3,-.4,.1c-.1,-.1,.9,-1,1.4,-1.1c1.1,-.4,1.4,-.5,2.1,-.5c.4,-.1,1.6,-.2,2.6,-.4c1.8,-.3,2,-.3,2.1,0c0,0,-.3,.2,-.7,.3c-2.5,1,-4.4,2,-5.3,2.8c-.2,.2,-.4,.3,-.4,.3c-.1,0,-.2,.1,-.3,.2c-.1,.1,-.3,.4,-.6,.6c-.2,.2,-.5,.6,-.6,.7c-.1,.2,-.3,.5,-.5,.6c-.1,.2,-.2,.5,-.3,.7c0,.3,-.1,.6,-.2,.5Z" class="g8_89"/>
<path d="M132.6,918.9c-.1,-.2,-.2,-.8,-.1,-1c0,-.1,.3,-.3,.6,-.5c.3,-.2,.7,-.4,.8,-.5l.2,-.2l-.1,.2c-.2,.3,-1,1,-1.2,1.1c-.1,0,-.2,.2,-.2,.4c0,.1,0,.3,0,.5q0,.1,0,0Z" class="g8_89"/>
<path d="M141.5,913.3c.2,-.2,.5,-.2,.5,-.1c0,.1,-.1,.1,-.3,.2q-.4,0,-.2,-.1Z" class="g8_89"/>
<path d="M125.7,945.8c0,0,0,-.1,0,-.2c0,-.1,.1,-.6,.1,-1.2c0,-1.3,0,-1.8,.4,-4.2q0,-.5,-.5,-1.5c-.3,-.7,-.5,-1.3,-.6,-1.6c-.1,-.4,-.2,-.8,-.2,-.9c-.3,-1.1,-.4,-4.2,-.1,-5.2c.1,-.4,.2,-.8,.2,-1c.1,-.4,.2,-.3,.7,.4c.6,1,.9,.9,.3,-.2c-.4,-.6,-.8,-2,-.8,-2.5c0,-.4,.6,-1.9,1,-2.7c.1,-.3,.2,-.5,.4,-.5c.2,0,.3,0,.5,.4c.5,.6,.6,.9,.5,.9c-.1,-.1,-.3,-.3,-.4,-.5c-.4,-.7,-.6,-.6,-1.2,.9c-.7,1.8,-.6,2.4,.7,4.7c.5,.9,.8,1.5,.7,1.5c-.2,.1,-1.4,-1,-1.7,-1.6c-.1,-.1,-.2,-.2,-.3,-.3q-.1,-.1,-.2,.1c-.3,.9,-.4,2.5,-.2,4.1c0,.5,.1,1.1,.1,1.3c0,.5,1,3.1,1.2,3.1c.1,0,.1,-.1,.1,-.2c0,-.2,.1,-.8,.3,-1.3c.2,-.6,.3,-1.2,.4,-1.4c0,-.2,0,-.3,.1,-.3c.1,0,.4,-1.1,.4,-1.2c0,0,.1,-.3,.2,-.7c.9,-1.8,1.3,-2.7,1.6,-3.4c.8,-1.6,1.6,-3.2,2.3,-4.2c.7,-1.2,1.3,-2.2,1.9,-3.1c.2,-.4,.5,-.8,.7,-1c.1,-.2,.3,-.4,.3,-.5c0,-.1,.6,-.8,.9,-1.1c.1,-.1,.3,-.3,.5,-.6c.6,-.9,1,-1.3,1.1,-1.3c.1,.1,.1,0,-.7,1.1c-1.5,2,-2.3,3.2,-3.6,5.4c-.3,.4,-.7,1.1,-1,1.5c-.4,.5,-.5,.8,-.4,.8c.4,.1,.3,.5,-.8,2.7c-.7,1.3,-1.4,2.7,-1.5,3.1c-.2,.4,-.4,1,-.6,1.3c-.2,.7,-.4,1.5,-.4,1.9c0,.1,-.1,.4,-.1,.6c-.1,.2,-.2,.8,-.2,1.2c-.1,.6,-.1,.7,.1,.7c.1,0,.2,0,.2,-.1c.1,-.1,.3,-.3,.6,-.5c.3,-.2,.5,-.4,.6,-.5c0,-.1,.3,-.3,.5,-.5c.7,-.6,1.1,-1,1.5,-1.7c.3,-.3,.6,-.6,.7,-.7c.2,-.3,1.1,-1.9,1.1,-2.1c0,-.1,-.1,-.2,-.6,-.5c-.7,-.4,-.6,-.4,.1,-.1c.3,.1,.6,.2,.7,.2c.4,-.1,.3,.2,-.2,1.3c-.3,.6,-.7,1.2,-.9,1.4c-.1,.1,-.4,.5,-.6,.7c-.2,.3,-.4,.6,-.5,.7c-.1,0,-.3,.3,-.5,.4c-.1,.2,-.4,.5,-.6,.7c-.2,.1,-.5,.4,-.6,.5c-.1,.2,-.3,.3,-.3,.3c-.1,0,-.3,.2,-.5,.4c-.2,.2,-.5,.4,-.7,.4c-.2,.1,-.3,.2,-.3,.7c-.1,.4,-.1,.7,-.1,.7c0,.1,0,.3,0,.6c0,.2,.1,.7,.1,.9c.2,.9,.1,1.2,-.1,1.3c-.4,.3,-1.1,1.2,-1.3,1.8c-.2,.5,-.3,.6,-.5,.4Z" class="g9_89"/>
<path d="M134,932.3c-.4,0,-.8,-.1,-1,-.1c-.2,-.1,-.4,-.1,-.5,-.1c-.1,0,-.3,-.1,-.4,-.1c-.1,-.1,-.3,-.1,-.4,-.1c-.1,.1,-.2,.1,-.3,0c-.1,-.2,.3,-.2,1.8,.1c1.4,.2,2.5,-.2,2.7,-1c0,-.2,.1,-.6,.2,-.8c.1,-.2,.2,-.6,.2,-.8c.1,-.4,.1,-.8,.3,-1.6c.1,-.2,.2,-.6,.4,-.8c.1,-.1,.2,-.3,.1,-.3c0,-.1,-.2,-.1,-.4,0c-.4,.1,-1.6,-.1,-1.7,-.3c-.1,-.3,.8,-.7,2,-.8c.3,0,.4,-.1,.6,-.7c.6,-1.5,1.6,-3.3,2.9,-4.9c.1,-.2,.1,-.3,0,-.3c0,-.1,-.3,0,-.7,.2c-.6,.2,-1.3,.3,-1.4,.1c0,0,0,-.1,.1,-.2c.2,-.1,.2,0,.2,.1c.1,.1,.1,.2,.1,.1c.3,0,1.3,-.5,1.6,-.7c.3,-.2,.6,-.3,.6,-.1c.1,.1,-.1,.8,-.2,.9c-.2,.2,-.5,.6,-.7,.9c-.1,.2,-.4,.5,-.6,.8c-.3,.6,-.5,.9,-.6,1.2c-.1,.2,-.3,.5,-.4,.8c-.3,.5,-.6,1,-.8,1.7c-.1,.2,-.2,.2,-.7,.3c-.8,.1,-1.6,.5,-1.4,.6c0,.1,.4,.1,1,0c.8,-.1,.9,-.1,1,0c0,.1,-.1,.3,-.3,.6c-.3,.6,-.6,1.6,-.7,2.1c0,.3,-.1,.7,-.2,1c-.1,.3,-.2,.6,-.2,.8c-.1,.6,-.4,.9,-.8,1.1c-.6,.3,-.7,.4,-1.4,.3Z" class="g9_89"/>
<path d="M129.6,928c-.2,-.1,-.4,-.3,-.5,-.4c-.3,-.2,-1,-1,-1,-1.1c0,0,.1,-.1,.1,-.1c.1,0,.5,.4,.6,.6c.1,.1,.2,.1,.2,.1c.1,0,.1,-.1,-.1,-.3c-.1,-.2,-.3,-.5,-.4,-.8c-.1,-.2,-.4,-.8,-.6,-1.3c-.3,-.6,-.5,-1.1,-.5,-1.1c0,-.1,.2,-.6,.5,-1.1c.6,-1.1,1.6,-2.2,2.5,-2.8c.4,-.3,.8,-.6,.9,-.8c.4,-.5,.6,-.5,.9,.2c.2,.5,.3,.6,.4,.5c.1,0,.2,-.1,.2,-.1c0,.1,.1,.2,.1,.5c.1,.6,-.1,.4,-.6,-.4c-.4,-.7,-.5,-.8,-.7,-.5c-.1,.1,-.7,.6,-1.1,.9c-.7,.4,-1.8,1.8,-2.5,2.9l-.4,.7l.7,1.3c.7,1.5,1.1,2.3,1.5,2.8c.2,.4,.2,.6,-.2,.3Z" class="g9_89"/>
<path d="M128.1,926c-.1,-.1,0,-.2,0,-.2c.1,0,.1,.1,.2,.2c0,.1,0,.2,0,.2c-.1,0,-.2,-.1,-.2,-.2Z" class="g9_89"/>
<path d="M127.6,925c-.3,-.6,-.2,-.8,0,-.4c.2,.2,.4,.8,.3,.9c-.1,0,-.2,-.1,-.3,-.5Z" class="g9_89"/>
<path d="M140.1,918.9c.5,-.3,1.1,-.5,1.2,-.4c.1,.2,-.1,.2,-.8,.4c-.8,.3,-.9,.2,-.4,0Z" class="g9_89"/>
<path d="M141.5,918.4c0,0,0,-.2,0,-.4c0,-.5,.7,-1.7,1.3,-2.3c1.7,-1.6,3.9,-3,5.7,-3.5c.6,-.2,.6,-.4,-.1,-.3c-.3,.1,-1.3,.3,-2.2,.4c-1,.1,-1.9,.3,-2.1,.4c-.4,.1,-1.2,.6,-1.5,.9c-.2,.3,-.3,.3,-.4,.1c-.1,-.1,.9,-1,1.4,-1.1c1.1,-.4,1.4,-.5,2.1,-.5c.4,-.1,1.6,-.2,2.6,-.4c1.8,-.3,2,-.3,2.1,0c0,0,-.3,.2,-.7,.3c-2.5,1,-4.4,2,-5.3,2.8c-.2,.2,-.4,.3,-.4,.3c-.1,0,-.2,.1,-.3,.2c-.1,.1,-.3,.4,-.6,.6c-.2,.2,-.5,.6,-.6,.7c-.1,.2,-.3,.5,-.5,.6c-.1,.2,-.2,.5,-.3,.7c0,.3,-.1,.6,-.2,.5Z" class="g9_89"/>
<path d="M132.6,918.9c-.1,-.2,-.2,-.8,-.1,-1c0,-.1,.3,-.3,.6,-.5c.3,-.2,.7,-.4,.8,-.5l.2,-.2l-.1,.2c-.2,.3,-1,1,-1.2,1.1c-.1,0,-.2,.2,-.2,.4c0,.1,0,.3,0,.5q0,.1,0,0Z" class="g9_89"/>
<path d="M141.5,913.3c.2,-.2,.5,-.2,.5,-.1c0,.1,-.1,.1,-.3,.2q-.4,0,-.2,-.1Z" class="g9_89"/>
<path d="M127.2,943.5c.1,-.1,.1,-.3,.1,-.6c-.1,-.2,-.1,-.9,-.1,-1.4c0,-.5,0,-1,0,-1c0,-.1,0,-.2,0,-.3c0,-.2,.1,-.5,.1,-.8c.1,-1.4,.1,-1.6,.5,-3.1c0,-.3,.1,-.6,.1,-.8c.2,-.9,1.2,-3.2,2.4,-5.4c.6,-1.3,.9,-2,.9,-2.1c0,0,-.3,.4,-.6,1c-.3,.6,-.7,1.4,-.9,1.8c-.9,1.8,-1.9,4,-2,4.5c0,.2,-.2,.6,-.3,.9c0,.2,-.1,.4,-.1,.5c.1,0,-.3,1.3,-.5,1.8c0,.2,-.1,.5,-.1,.8c-.1,.2,-.2,.7,-.2,1c-.3,1,-.5,2.6,-.3,2.9c0,0,.2,.2,.4,.2c.4,.2,.3,.2,.6,.1Z" class="g8_89"/>
<path d="M124.9,936.2c-.1,-.2,-.3,-2,-.3,-3.2c0,-.8,.1,-1.6,.2,-2.2c.1,-.3,.2,-.7,.2,-.8c.1,-.4,.3,-.3,.6,.2c.1,.3,.4,.7,.6,.9l.3,.4l-.1,-.4c-.1,-.3,-.4,-.8,-.5,-1.1c-.4,-.9,-.7,-2.2,-.6,-2.8c.1,-.4,.6,-1.6,.9,-2.2c.2,-.5,.6,-.6,.8,-.3q0,.1,-.2,.2c-.2,0,-.3,.1,-.5,.4c-.6,1.3,-.8,2.3,-.8,2.9c.1,.3,.3,1,.5,1.5c.3,.9,.5,1.2,1,1.8c.3,.4,.5,.8,.5,.9c0,.1,-.6,-.2,-.9,-.5c-.1,-.1,-.3,-.4,-.4,-.5c-.1,-.1,-.4,-.4,-.6,-.7l-.3,-.4l-.1,.2c-.4,.9,-.5,2.5,-.3,4.4c.1,1.1,.1,1.5,0,1.3Z" class="ga_89"/>
<path d="M133.7,932.3c-.2,0,-.4,-.1,-.6,-.2c-.2,0,-.4,-.1,-.5,-.1c-.2,.1,-.8,-.1,-.8,-.2c0,0,.5,0,1,.1c1.3,.3,2,.2,2.5,-.1c.4,-.3,.5,-.5,.8,-1.3c.2,-1,.3,-1.1,.3,-1.6c.1,-.6,.2,-1.1,.6,-1.7c.1,-.3,.2,-.5,.2,-.6c0,0,-.2,0,-.5,.1c-.3,.1,-.5,.1,-1.1,-.1l-.6,-.2l.1,-.1c.2,-.3,.8,-.5,1.6,-.6l.7,-.2l.3,-.6c.5,-1.4,1.6,-3.2,2.4,-4.4c.3,-.4,.5,-.8,.4,-.8q0,-.2,-.7,.1q-.7,.3,-.7,.2c0,0,.2,-.1,.3,-.1c.2,-.1,.5,-.3,.8,-.5c.4,-.2,.7,-.3,.8,-.3c.2,.2,-.1,.8,-.5,1.3c-.7,.7,-2,3,-2.6,4.5c-.1,.2,-.2,.5,-.3,.6c0,.1,-.2,.2,-.3,.2c-.8,.2,-1,.2,-1.4,.4q-.5,.2,-.3,.3c0,.1,.3,.1,1,0c.7,-.1,.9,-.1,.9,0c.1,0,-.1,.4,-.3,.8c-.4,.7,-.6,1.4,-.6,2c0,.2,-.1,.6,-.2,1c-.2,.4,-.2,.7,-.2,.7c0,.1,-.1,.3,-.2,.5c-.3,.7,-1.2,1,-2.3,.9Z" class="ga_89"/>
<path d="M131.5,931.9c0,0,0,-.1,.1,-.1c0,0,.1,0,.1,0q0,.1,-.1,.1q0,.1,-.1,0Z" class="ga_89"/>
<path d="M129.3,927.7c-.6,-.4,-1.3,-1.4,-.9,-1.1c.1,.1,.3,.2,.3,.3c.1,.1,.4,.3,.5,.2c0,0,.5,.5,.6,.8c.1,.1,.1,.2,.1,.2c0,0,-.3,-.1,-.6,-.4Z" class="ga_89"/>
<path d="M128.8,926.6c0,0,-.2,-.2,-.2,-.5c-.1,-.2,-.4,-.8,-.6,-1.3c-.3,-.5,-.5,-1,-.6,-1.1c0,-.2,.8,-1.9,1.2,-2.3c.1,-.1,.4,-.4,.7,-.7c.3,-.3,.6,-.6,.8,-.8c.6,-.4,.9,-.7,1.3,-1c.2,-.2,.4,-.4,.4,-.4c.3,.1,.3,.3,.1,.3c-.1,0,-.4,.3,-.7,.6c-.4,.3,-.7,.5,-.7,.5c-.2,0,-.4,.2,-.9,.9c-.3,.3,-.5,.5,-.6,.5c0,0,-.9,1.4,-1.2,1.8c-.2,.5,-.2,.6,.4,1.8c.8,1.6,.9,2,.6,1.7Z" class="ga_89"/>
<path d="M127.2,925.4c-.1,-.2,-.1,-.3,0,-.3c.1,0,.2,.2,.3,.3c0,.1,0,.2,0,.2c-.1,0,-.2,-.1,-.3,-.2Z" class="ga_89"/>
<path d="M127.6,925.1c0,-.1,-.1,-.3,-.2,-.4c0,-.1,0,-.2,0,-.2c.1,-.1,.5,.5,.5,.7c0,.3,-.2,.2,-.3,-.1Z" class="ga_89"/>
<path d="M138.4,920c0,0,.1,-.1,.2,-.1c0,0,.1,0,.2,.1c0,0,-.1,.1,-.2,.1c-.1,0,-.2,0,-.2,-.1Z" class="ga_89"/>
<path d="M132.5,920c-.1,-.3,.1,-.4,.3,-.2c.1,.3,.1,.5,0,.5c-.1,0,-.2,-.1,-.3,-.3Z" class="ga_89"/>
<path d="M140.3,918.9c-.1,-.1,.8,-.4,.9,-.3c.1,0,.1,.1,0,.1c-.3,.1,-.9,.2,-.9,.2Z" class="ga_89"/>
<path d="M132.2,919.4c-.1,0,-.1,-.1,-.1,-.2q.1,-.1,.2,.1c0,.1,0,.2,0,.2q-.1,0,-.1,-.1Z" class="ga_89"/>
<path d="M141.6,918.3c-.1,-.2,0,-.9,.2,-1.1c.1,-.2,.3,-.5,.4,-.7c.2,-.3,.4,-.5,.5,-.6c.1,-.1,.3,-.3,.4,-.4c.4,-.4,2,-1.7,2.8,-2.1c.8,-.5,1.9,-.9,2.8,-1.3c.6,-.2,.6,-.4,0,-.3c-.3,.1,-1.3,.3,-2.2,.4c-1.7,.2,-2,.3,-2.4,.4c-.4,.1,-1.2,.7,-1.5,.9c-.1,.2,-.2,.3,-.3,.2c-.2,0,.8,-.9,1.2,-1.1c.7,-.2,1.8,-.5,2.4,-.5c.4,-.1,1.5,-.2,2.4,-.4c.9,-.2,1.7,-.3,1.8,-.3c.3,.1,.3,.3,0,.4c-1.4,.6,-2.5,1,-3.3,1.4c-.8,.4,-1.7,1,-2,1.2c0,0,-.2,.2,-.4,.4c-1,.8,-1.8,1.6,-2,1.9c-.1,.2,-.2,.3,-.3,.3c-.1,0,-.4,.7,-.4,1.1c0,.2,-.1,.3,-.1,.2Z" class="ga_89"/>
<path d="M132.6,917.9c-.1,-.1,.6,-.5,1,-.8c.3,-.1,.2,0,-.2,.3c-.4,.4,-.8,.6,-.8,.5Z" class="ga_89"/>
<path d="M141.7,913.3c-.1,0,-.1,-.1,0,-.1c.1,-.1,.3,0,.2,.1c0,0,-.1,0,-.2,0Z" class="ga_89"/>
<path d="M125.9,939c-.1,-.1,-.1,-.2,0,-.2c0,-.1,.1,0,.1,.1c.1,.1,.1,.2,.1,.2c-.1,0,-.2,0,-.2,-.1Z" class="gb_89"/>
<path d="M129,938.5q0,-.1,.1,-.2q.2,0,.2,.1c-.1,.1,-.4,.2,-.3,.1Z" class="gb_89"/>
<path d="M125.6,938.4q0,-.1,.1,-.1c0,0,.1,.1,.1,.1q0,.2,-.2,0Z" class="gb_89"/>
<path d="M129.5,938c0,-.1,.2,-.2,.4,-.4c.2,-.2,.5,-.4,.5,-.6c.2,-.2,.4,-.3,.4,-.2c0,.1,-1,1.1,-1.2,1.2c-.1,.1,-.1,0,-.1,0Z" class="gb_89"/>
<path d="M125.4,937.8c-.1,-.2,-.1,-.3,-.1,-.4q0,-.2,.1,0c0,.1,.1,.3,.1,.4q0,.1,-.1,0Z" class="gb_89"/>
<path d="M131.2,936.2c.2,-.4,1,-1.3,1.1,-1.4q.1,-.1,.1,0c.1,0,0,.2,-.2,.3c-.1,.2,-.4,.6,-.6,.9c-.5,.6,-.8,.8,-.4,.2Z" class="gb_89"/>
<path d="M124.8,935.7c0,0,0,-.1,0,-.1c.1,-.1,.1,0,.2,0c0,.1,0,.2,0,.2q-.1,0,-.2,-.1Z" class="gb_89"/>
<path d="M132.5,934.6c0,-.3,.6,-1.3,.7,-1.2c.1,0,-.6,1.3,-.7,1.3c0,0,0,-.1,0,-.1Z" class="gb_89"/>
<path d="M124.8,935.1c-.1,-.1,-.1,-.2,-.1,-.3c.1,-.2,.2,-.1,.2,.2c0,.1,-.1,.2,-.1,.1Z" class="gb_89"/>
<path d="M124.7,934.4c0,-.1,0,-.2,0,-.3c.1,-.1,.1,.1,.1,.3v.2Z" class="gb_89"/>
<path d="M133.2,933.1c0,-.1,0,-.2,-.1,-.3c-.1,-.1,0,-.2,.1,-.2c.4,0,.5,.1,.2,.5q-.1,.2,-.2,0Z" class="gb_89"/>
<path d="M124.6,933.3c0,-.3,.1,-.9,.1,-.9c.1,.1,.1,.5,0,.7c0,.2,-.1,.2,-.1,.2Z" class="gb_89"/>
<path d="M134,932.3c-.3,0,-.6,-.1,-.7,-.1q-.2,-.1,.1,-.1c.1,0,.5,0,.9,0c.5,0,.6,0,1,-.3c.3,-.2,.5,-.4,.6,-.6c.2,-.5,.2,-.3,.1,.2c-.1,.2,-.3,.4,-.7,.6c-.5,.3,-.6,.3,-1.3,.3Z" class="gb_89"/>
<path d="M132.4,932q-.4,-.1,-.1,-.1c.2,0,.3,0,.3,.1q.1,0,.1,0c-.1,0,-.2,0,-.3,0Z" class="gb_89"/>
<path d="M127,932.2c-.3,-.2,-.5,-.6,-.4,-.6c.1,0,0,-.2,-.1,-.4c-.3,-.5,-1,-2.1,-1,-2.3c0,-.1,.1,0,.3,.5c.1,.3,.6,1.1,1,1.8c.3,.6,.6,1.2,.6,1.2c-.1,0,-.2,-.1,-.4,-.2Z" class="gb_89"/>
<path d="M124.7,932c-.1,-.1,0,-.9,.2,-1c0,0,0,.1,0,.3c0,.4,-.1,.8,-.2,.7Z" class="gb_89"/>
<path d="M136.1,930.5c0,-.1,.1,-.3,.1,-.3q.1,-.1,.1,0c0,.1,-.1,.3,-.1,.3c-.1,.2,-.1,.1,-.1,0Z" class="gb_89"/>
<path d="M126.2,931.3c-.1,-.1,-.1,-.2,0,-.1c0,.1,.1,.1,.1,.2c0,.1,-.1,0,-.1,-.1Z" class="gb_89"/>
<path d="M124.9,930.9c0,-.1,0,-.3,.1,-.4c0,-.1,.1,-.4,.1,-.5c0,-.3,.3,-.2,.4,.2c0,.2,0,.3,0,.2c-.1,-.1,-.4,-.2,-.4,0c.1,.1,-.1,.6,-.2,.5Z" class="gb_89"/>
<path d="M136.3,929.8c0,0,.1,-.2,.1,-.3q.1,-.3,.1,.1c0,.2,-.1,.3,-.2,.2Z" class="gb_89"/>
<path d="M136.5,928.6c0,-.1,0,-.3,.1,-.3c0,0,.1,0,0,.1c0,.1,0,.2,0,.3q-.1,0,-.1,-.1Z" class="gb_89"/>
<path d="M136.7,928c-.1,-.1,.1,-.6,.3,-.9c.2,-.2,.2,-.4,.2,-.4c-.1,-.1,-.3,-.1,-.7,-.1c-.7,.2,-.8,0,-.1,-.1c.4,-.1,.8,-.2,.9,-.2c.3,-.1,.3,.2,-.1,1c-.3,.4,-.5,.7,-.5,.7Z" class="gb_89"/>
<path d="M129.5,927.9c-.1,-.1,-.3,-.3,-.5,-.4c-.3,-.2,-.7,-.8,-.5,-.7c.1,0,.2,.1,.2,.2c.1,0,.3,.2,.4,.2c.2,.1,.4,.3,.6,.5c.3,.4,.2,.5,-.2,.2Z" class="gb_89"/>
<path d="M125.3,927.9c0,-.1,0,-.3,0,-.5c.1,-.3,.6,-1.6,.7,-1.7c.1,-.1,.1,.1,-.2,.8c-.1,.5,-.3,1,-.3,1.2q-.1,.4,-.2,.2Z" class="gb_89"/>
<path d="M135.4,926.5c-.2,0,-.3,-.1,-.3,-.1c-.1,-.1,.7,-.5,1,-.6c.3,0,.2,.1,-.2,.2c-.5,.2,-.6,.3,-.4,.5q.2,.1,-.1,0Z" class="gb_89"/>
<path d="M128.8,926.5c-.1,-.1,-.1,-.3,-.2,-.4q0,-.2,.1,-.1c0,.1,.1,.3,.1,.4q.1,.2,0,.1Z" class="gb_89"/>
<path d="M136.9,925.7c.1,-.1,.2,-.1,.3,0c.1,0,0,0,-.2,.1q-.3,0,-.1,-.1Z" class="gb_89"/>
<path d="M137.5,925.3c.1,-.1,.2,-.3,.2,-.3c.1,0,-.1,.6,-.2,.6c0,0,0,-.1,0,-.3Z" class="gb_89"/>
<path d="M128.4,925.5c-.1,0,-.2,-.2,-.1,-.2q0,-.2,.1,.1c.2,.2,.2,.3,0,.1Z" class="gb_89"/>
<path d="M137.9,924.5c0,-.1,.1,-.2,.1,-.2c.1,.1,0,.4,-.1,.4c-.1,.1,-.1,0,0,-.2Z" class="gb_89"/>
<path d="M127.3,925.4c-.1,-.1,-.1,-.2,0,-.1q.2,.1,.1,.2q0,.1,-.1,-.1Z" class="gb_89"/>
<path d="M126,925.4c-.1,-.1,.5,-.9,.7,-.9c.3,.1,.3,.2,.1,.3c-.2,.1,-.4,.2,-.5,.4c-.1,.3,-.2,.4,-.3,.2Z" class="gb_89"/>
<path d="M127.6,925c-.1,-.2,-.1,-.4,-.1,-.4c.1,-.1,.4,.4,.3,.6c0,.1,0,0,-.2,-.2Z" class="gb_89"/>
<path d="M138,924.1c0,-.1,.2,-.5,.3,-.5c.1,0,.1,-.1,.2,-.3c.1,-.4,1,-1.8,2,-3.3c.1,-.2,.1,-.3,0,-.4q-.1,-.2,.1,-.4c.1,0,.2,-.1,.3,0c.2,.1,0,.7,-.2,.9c-.3,.3,-1.4,2,-1.7,2.5c-.6,1.2,-.9,1.6,-1,1.5Z" class="gb_89"/>
<path d="M127.9,924.5c-.1,0,-.1,-.1,0,-.1c0,0,.1,0,.1,.1c0,0,0,.1,0,.1c0,0,-.1,0,-.1,-.1Z" class="gb_89"/>
<path d="M127.5,924c0,-.1,0,-.2,0,-.3q0,-.1,.1,.1c.1,.2,.2,.3,.1,.3c0,0,-.1,-.1,-.2,-.1Z" class="gb_89"/>
<path d="M127.7,923.2c-.1,-.1,0,-.4,.1,-.4c.1,0,.1,.1,0,.3c0,.1,-.1,.1,-.1,.1Z" class="gb_89"/>
<path d="M128,922.4c0,-.1,.1,-.3,.3,-.4c.1,-.2,.2,-.3,.2,-.4c.1,-.1,.1,-.2,.2,-.2c.1,0,0,.2,-.4,.7c-.2,.3,-.3,.4,-.3,.3Z" class="gb_89"/>
<path d="M129,921.1c.3,-.4,.8,-.9,.8,-.9c.1,.1,-.4,.7,-.7,1l-.2,.2Z" class="gb_89"/>
<path d="M132.6,920.2c-.1,-.1,-.2,-.4,0,-.4c.1,0,.3,.4,.2,.4c0,.1,-.1,.1,-.2,0Z" class="gb_89"/>
<path d="M136.3,919.7c.1,-.1,.2,-.2,.3,-.2c0,0,0,.1,-.1,.2c-.1,.1,-.2,.2,-.3,.3c0,0,0,-.1,.1,-.3Z" class="gb_89"/>
<path d="M130.6,919.6c.1,-.1,.2,-.2,.3,-.2c.1,0,-.2,.4,-.4,.4c-.1,0,0,-.1,.1,-.2Z" class="gb_89"/>
<path d="M140.7,918.8c-.1,-.1,0,-.1,.1,-.2c.2,0,.4,-.1,.4,0c0,.1,-.4,.2,-.5,.2Z" class="gb_89"/>
<path d="M131.3,918.9c.2,-.3,.5,-.4,.6,-.2c.1,0,-.2,.3,-.7,.5c0,0,0,-.1,.1,-.3Z" class="gb_89"/>
<path d="M141.6,917.6c0,0,.1,-.2,.1,-.3c.1,-.1,.2,-.2,.2,-.1c0,0,0,.1,-.1,.2q-.1,.2,-.2,.2Z" class="gb_89"/>
<path d="M142.2,916.6c.2,-.4,.8,-1,2.4,-2.3c.8,-.6,2.6,-1.6,3.6,-2c1,-.3,1.1,-.4,1.1,-.5c-.2,-.3,.7,-.5,.9,-.3c.2,.1,.1,.3,-.1,.3c-.1,0,-.5,.2,-.8,.3c-.4,.2,-1,.4,-1.3,.6c-1.1,.4,-1.9,.8,-2.4,1.1c-.2,.2,-.5,.4,-.6,.4c-.1,.1,-.4,.3,-.5,.4c-.2,.2,-.4,.4,-.4,.4c0,0,-.2,.1,-.4,.2c-1.1,1.1,-1.3,1.3,-1.3,1.5c0,.1,-.1,.2,-.2,.2q-.1,0,0,-.3Z" class="gb_89"/>
<path d="M133,917.6c0,0,0,-.1,.1,-.1c0,0,.1,.1,0,.1q0,.1,-.1,.1v-.1Z" class="gb_89"/>
<path d="M142.3,913.7c0,0,0,-.1,.1,-.2c.1,-.1,.2,-.1,.2,-.1c0,0,0,.1,-.1,.2c-.1,.1,-.2,.1,-.2,.1Z" class="gb_89"/>
<path d="M143,913c.1,-.2,.5,-.4,.5,-.3c.1,.1,-.3,.3,-.5,.4q-.2,.1,0,-.1Z" class="gb_89"/>
<path d="M144.6,912.4c.1,-.1,.2,-.1,.3,-.1c.1,-.1,.1,0,0,0c-.1,.1,-.2,.1,-.3,.1q-.1,0,0,0Z" class="gb_89"/>
<path d="M145.2,912.2c0,0,.4,-.1,.9,-.2c.6,0,.9,0,.9,0c0,.1,-.4,.2,-.9,.2c-.6,.1,-.9,.1,-.9,0Z" class="gb_89"/>
<path d="M147.1,912c.1,0,.4,-.1,.9,-.2c.5,0,.7,0,.6,0c-.3,.1,-1.5,.3,-1.5,.2Z" class="gb_89"/>
<path d="M125.8,945.8c0,0,0,-.4,0,-.8c0,-.3,0,-.7,0,-.7c0,-.1,0,-.8,0,-1q.1,-.1,.5,.1c.9,.4,1.2,.3,1,-.7c-.1,-1.1,.1,-1.2,.3,-.2c.1,.7,.1,.9,-.2,1.1c-.6,.5,-1.5,1.9,-1.4,2.1c.1,.1,0,.1,-.1,.1c0,0,-.1,0,-.1,0Z" class="gc_89"/>
<path d="M127.3,941.7c0,-.1,0,-.7,.1,-.8c.1,-.1,.1,.1,.1,.5c-.1,.3,-.1,.4,-.2,.3Z" class="gc_89"/>
<path d="M127.3,940.5c0,-.1,0,-.3,0,-.6c0,-.2,.1,-.7,.1,-1.1c.1,-.9,.5,-3.2,.7,-3.2c0,0,0,.2,0,.3c0,.2,-.1,.4,-.1,.6c0,.1,-.1,.4,-.1,.6c-.2,.6,-.3,2,-.1,2.2c0,0,0,.1,-.1,.1c0,.1,-.1,.3,-.2,.6c0,.5,-.1,.6,-.2,.5Z" class="gc_89"/>
<path d="M126.2,940.2c0,-.1,0,-.2,.1,-.2c0,-.1,0,-.2,0,-.4c-.1,-.2,.2,-.6,.3,-.4c0,0,-.2,1,-.3,1h-.1Z" class="gc_89"/>
<path d="M125.9,939c-.1,-.1,-.1,-.2,0,-.2c0,-.1,.1,0,.1,.1c.1,.1,.1,.2,.1,.2c-.1,0,-.2,0,-.2,-.1Z" class="gc_89"/>
<path d="M126.5,938.9c0,-.1,0,-.4,.2,-.8c.1,-.4,.2,-1.1,.3,-1.4c.1,-.4,.2,-.8,.3,-.8c.1,-.1,.1,0,0,.3c0,.2,-.1,.5,-.1,.5c-.1,.8,-.6,2.3,-.7,2.2Z" class="gc_89"/>
<path d="M129,938.5q0,-.1,.1,-.2q.2,0,.2,.1c-.1,.1,-.4,.2,-.3,.1Z" class="gc_89"/>
<path d="M125.6,938.4q0,-.1,.1,-.1c0,0,.1,.1,.1,.1q0,.2,-.2,0Z" class="gc_89"/>
<path d="M129.5,938c0,-.1,.2,-.2,.4,-.4c.2,-.2,.5,-.4,.5,-.6c.2,-.2,.4,-.3,.4,-.2c0,.1,-1,1.1,-1.2,1.2c-.1,.1,-.1,0,-.1,0Z" class="gc_89"/>
<path d="M125.4,937.8c-.1,-.2,-.1,-.3,-.1,-.4q0,-.2,.1,0c0,.1,.1,.3,.1,.4q0,.1,-.1,0Z" class="gc_89"/>
<path d="M131.2,936.2c.2,-.4,1,-1.3,1.1,-1.4q.1,-.1,.1,0c.1,0,0,.2,-.2,.3c-.1,.2,-.4,.6,-.6,.9c-.5,.6,-.8,.8,-.4,.2Z" class="gc_89"/>
<path d="M124.8,935.7c0,0,0,-.1,0,-.1c.1,-.1,.1,0,.2,0c0,.1,0,.2,0,.2q-.1,0,-.2,-.1Z" class="gc_89"/>
<path d="M128.1,935.5c0,-.5,1.5,-4,2.7,-6.2c.2,-.5,.5,-1,.5,-1.1c0,-.4,.2,-.5,.3,-.4c.1,.2,-.2,.9,-1.3,2.8c-.5,1,-1,2.2,-1.2,2.5c-.2,.6,-.6,1.5,-.9,2.2q-.1,.2,-.1,.2Z" class="gc_89"/>
<path d="M127.5,935.1l.1,-.1c0,0,.1,0,.1,.1c0,0,0,.1,0,.1q-.1,0,-.2,-.1Z" class="gc_89"/>
<path d="M132.5,934.6c0,-.3,.6,-1.3,.7,-1.2c.1,0,-.6,1.3,-.7,1.3c0,0,0,-.1,0,-.1Z" class="gc_89"/>
<path d="M124.8,935.1c-.1,-.1,-.1,-.2,-.1,-.3c.1,-.2,.2,-.1,.2,.2c0,.1,-.1,.2,-.1,.1Z" class="gc_89"/>
<path d="M127.6,934.6q0,-.1,.1,-.2q.1,0,.1,.1c.1,.1,-.1,.2,-.2,.1Z" class="gc_89"/>
<path d="M124.7,934.4c0,-.1,0,-.2,0,-.3c.1,-.1,.1,.1,.1,.3v.2Z" class="gc_89"/>
<path d="M127.9,934.2c-.1,-.1,.3,-.7,.4,-.7c0,0,-.1,.2,-.2,.4c-.1,.3,-.2,.3,-.2,.3Z" class="gc_89"/>
<path d="M133.2,933.1c0,-.1,0,-.2,-.1,-.3c-.1,-.1,0,-.2,.1,-.2c.4,0,.5,.1,.2,.5q-.1,.2,-.2,0Z" class="gc_89"/>
<path d="M128.3,933.3c0,-.1,.2,-.6,.5,-1.1c.3,-.5,.4,-.7,.3,-.5c-.2,.5,-.9,1.9,-.8,1.6Z" class="gc_89"/>
<path d="M124.6,933.3c0,-.3,.1,-.9,.1,-.9c.1,.1,.1,.5,0,.7c0,.2,-.1,.2,-.1,.2Z" class="gc_89"/>
<path d="M134,932.3c-.3,0,-.6,-.1,-.7,-.1q-.2,-.1,.1,-.1c.1,0,.5,0,.9,0c.5,0,.6,0,1,-.3c.3,-.2,.5,-.4,.6,-.6c.2,-.5,.2,-.3,.1,.2c-.1,.2,-.3,.4,-.7,.6c-.5,.3,-.6,.3,-1.3,.3Z" class="gc_89"/>
<path d="M132.4,932q-.4,-.1,-.1,-.1c.2,0,.3,0,.3,.1q.1,0,.1,0c-.1,0,-.2,0,-.3,0Z" class="gc_89"/>
<path d="M127,932.2c-.3,-.2,-.5,-.6,-.4,-.6c.1,0,0,-.2,-.1,-.4c-.3,-.5,-1,-2.1,-1,-2.3c0,-.1,.1,0,.3,.5c.1,.3,.6,1.1,1,1.8c.3,.6,.6,1.2,.6,1.2c-.1,0,-.2,-.1,-.4,-.2Z" class="gc_89"/>
<path d="M124.7,932c-.1,-.1,0,-.9,.2,-1c0,0,0,.1,0,.3c0,.4,-.1,.8,-.2,.7Z" class="gc_89"/>
<path d="M136.1,930.5c0,-.1,.1,-.3,.1,-.3q.1,-.1,.1,0c0,.1,-.1,.3,-.1,.3c-.1,.2,-.1,.1,-.1,0Z" class="gc_89"/>
<path d="M126.2,931.3c-.1,-.1,-.1,-.2,0,-.1c0,.1,.1,.1,.1,.2c0,.1,-.1,0,-.1,-.1Z" class="gc_89"/>
<path d="M129.3,930.9c.1,-.1,.2,-.2,.2,-.2c.1,0,0,.3,-.1,.4c-.2,.1,-.2,0,-.1,-.2Z" class="gc_89"/>
<path d="M129.8,930c.1,-.3,.3,-.6,.3,-.6c0,0,.2,-.5,.5,-1c.2,-.5,.6,-1.1,.7,-1.4c.2,-.2,.5,-.7,.8,-1.1c.4,-.7,.6,-1,.7,-.9c0,.1,-.2,.4,-1,1.6c-.2,.4,-.5,.9,-.7,1.1c-.1,.3,-.3,.8,-.5,1.2c-.2,.4,-.5,.9,-.6,1.2c-.3,.6,-.5,.6,-.2,-.1Z" class="gc_89"/>
<path d="M124.9,930.9c0,-.1,0,-.3,.1,-.4c0,-.1,.1,-.4,.1,-.5c0,-.3,.3,-.2,.4,.2c0,.2,0,.3,0,.2c-.1,-.1,-.4,-.2,-.4,0c.1,.1,-.1,.6,-.2,.5Z" class="gc_89"/>
<path d="M136.3,929.8c0,0,.1,-.2,.1,-.3q.1,-.3,.1,.1c0,.2,-.1,.3,-.2,.2Z" class="gc_89"/>
<path d="M136.5,928.6c0,-.1,0,-.3,.1,-.3c0,0,.1,0,0,.1c0,.1,0,.2,0,.3q-.1,0,-.1,-.1Z" class="gc_89"/>
<path d="M136.7,928c-.1,-.1,.1,-.6,.3,-.9c.2,-.2,.2,-.4,.2,-.4c-.1,-.1,-.3,-.1,-.7,-.1c-.7,.2,-.8,0,-.1,-.1c.4,-.1,.8,-.2,.9,-.2c.3,-.1,.3,.2,-.1,1c-.3,.4,-.5,.7,-.5,.7Z" class="gc_89"/>
<path d="M129.5,927.9c-.1,-.1,-.3,-.3,-.5,-.4c-.3,-.2,-.7,-.8,-.5,-.7c.1,0,.2,.1,.2,.2c.1,0,.3,.2,.4,.2c.2,.1,.4,.3,.6,.5c.3,.4,.2,.5,-.2,.2Z" class="gc_89"/>
<path d="M125.3,927.9c0,-.1,0,-.3,0,-.5c.1,-.3,.6,-1.6,.7,-1.7c.1,-.1,.1,.1,-.2,.8c-.1,.5,-.3,1,-.3,1.2q-.1,.4,-.2,.2Z" class="gc_89"/>
<path d="M135.4,926.5c-.2,0,-.3,-.1,-.3,-.1c-.1,-.1,.7,-.5,1,-.6c.3,0,.2,.1,-.2,.2c-.5,.2,-.6,.3,-.4,.5q.2,.1,-.1,0Z" class="gc_89"/>
<path d="M128.8,926.5c-.1,-.1,-.1,-.3,-.2,-.4q0,-.2,.1,-.1c0,.1,.1,.3,.1,.4q.1,.2,0,.1Z" class="gc_89"/>
<path d="M136.9,925.7c.1,-.1,.2,-.1,.3,0c.1,0,0,0,-.2,.1q-.3,0,-.1,-.1Z" class="gc_89"/>
<path d="M137.5,925.3c.1,-.1,.2,-.3,.2,-.3c.1,0,-.1,.6,-.2,.6c0,0,0,-.1,0,-.3Z" class="gc_89"/>
<path d="M128.4,925.5c-.1,0,-.2,-.2,-.1,-.2q0,-.2,.1,.1c.2,.2,.2,.3,0,.1Z" class="gc_89"/>
<path d="M137.9,924.5c0,-.1,.1,-.2,.1,-.2c.1,.1,0,.4,-.1,.4c-.1,.1,-.1,0,0,-.2Z" class="gc_89"/>
<path d="M127.3,925.4c-.1,-.1,-.1,-.2,0,-.1q.2,.1,.1,.2q0,.1,-.1,-.1Z" class="gc_89"/>
<path d="M126,925.4c-.1,-.1,.5,-.9,.7,-.9c.3,.1,.3,.2,.1,.3c-.2,.1,-.4,.2,-.5,.4c-.1,.3,-.2,.4,-.3,.2Z" class="gc_89"/>
<path d="M127.6,925c-.1,-.2,-.1,-.4,-.1,-.4c.1,-.1,.4,.4,.3,.6c0,.1,0,0,-.2,-.2Z" class="gc_89"/>
<path d="M133,924.4c.1,-.2,.2,-.3,.3,-.3c.1,.1,-.3,.7,-.4,.7c-.1,0,0,-.2,.1,-.4Z" class="gc_89"/>
<path d="M138,924.1c0,-.1,.2,-.5,.3,-.5c.1,0,.1,-.1,.2,-.3c.1,-.4,1,-1.8,2,-3.3c.1,-.2,.1,-.3,0,-.4q-.1,-.2,.1,-.4c.1,0,.2,-.1,.3,0c.2,.1,0,.7,-.2,.9c-.3,.3,-1.4,2,-1.7,2.5c-.6,1.2,-.9,1.6,-1,1.5Z" class="gc_89"/>
<path d="M127.9,924.5c-.1,0,-.1,-.1,0,-.1c0,0,.1,0,.1,.1c0,0,0,.1,0,.1c0,0,-.1,0,-.1,-.1Z" class="gc_89"/>
<path d="M133.4,923.9c0,0,.5,-.9,.8,-1.4c.1,-.1,.3,-.4,.4,-.6c.2,-.4,.8,-1,.9,-1c0,0,0,.1,-.1,.3c-.1,.1,-.3,.2,-.3,.3c-.1,.1,-.3,.4,-.5,.7c-.3,.4,-.6,.8,-.7,1.1c-.3,.5,-.4,.7,-.5,.6Z" class="gc_89"/>
<path d="M127.5,924c0,-.1,0,-.2,0,-.3q0,-.1,.1,.1c.1,.2,.2,.3,.1,.3c0,0,-.1,-.1,-.2,-.1Z" class="gc_89"/>
<path d="M127.7,923.2c-.1,-.1,0,-.4,.1,-.4c.1,0,.1,.1,0,.3c0,.1,-.1,.1,-.1,.1Z" class="gc_89"/>
<path d="M128,922.4c0,-.1,.1,-.3,.3,-.4c.1,-.2,.2,-.3,.2,-.4c.1,-.1,.1,-.2,.2,-.2c.1,0,0,.2,-.4,.7c-.2,.3,-.3,.4,-.3,.3Z" class="gc_89"/>
<path d="M129,921.1c.3,-.4,.8,-.9,.8,-.9c.1,.1,-.4,.7,-.7,1l-.2,.2Z" class="gc_89"/>
<path d="M135.9,920.3c.1,-.2,.2,-.3,.2,-.2c0,0,0,.1,-.1,.2l-.2,.2Z" class="gc_89"/>
<path d="M132.6,920.2c-.1,-.1,-.2,-.4,0,-.4c.1,0,.3,.4,.2,.4c0,.1,-.1,.1,-.2,0Z" class="gc_89"/>
<path d="M130.6,919.6c.1,-.1,.2,-.2,.3,-.2c.1,0,-.2,.4,-.4,.4c-.1,0,0,-.1,.1,-.2Z" class="gc_89"/>
<path d="M140.7,918.8c-.1,-.1,0,-.1,.1,-.2c.2,0,.4,-.1,.4,0c0,.1,-.4,.2,-.5,.2Z" class="gc_89"/>
<path d="M131.3,918.9c.2,-.3,.5,-.4,.6,-.2c.1,0,-.2,.3,-.7,.5c0,0,0,-.1,.1,-.3Z" class="gc_89"/>
<path d="M141.6,917.6c0,0,.1,-.2,.1,-.3c.1,-.1,.2,-.2,.2,-.1c0,0,0,.1,-.1,.2q-.1,.2,-.2,.2Z" class="gc_89"/>
<path d="M142.2,916.6c.2,-.4,.8,-1,2.4,-2.3c.8,-.6,2.6,-1.6,3.6,-2c1,-.3,1.1,-.4,1.1,-.5c-.2,-.3,.7,-.5,.9,-.3c.2,.1,.1,.3,-.1,.3c-.1,0,-.5,.2,-.8,.3c-.4,.2,-1,.4,-1.3,.6c-1.1,.4,-1.9,.8,-2.4,1.1c-.2,.2,-.5,.4,-.6,.4c-.1,.1,-.4,.3,-.5,.4c-.2,.2,-.4,.4,-.4,.4c0,0,-.2,.1,-.4,.2c-1.1,1.1,-1.3,1.3,-1.3,1.5c0,.1,-.1,.2,-.2,.2q-.1,0,0,-.3Z" class="gc_89"/>
<path d="M133,917.6c0,0,0,-.1,.1,-.1c0,0,.1,.1,0,.1q0,.1,-.1,.1v-.1Z" class="gc_89"/>
<path d="M142.3,913.7c0,0,0,-.1,.1,-.2c.1,-.1,.2,-.1,.2,-.1c0,0,0,.1,-.1,.2c-.1,.1,-.2,.1,-.2,.1Z" class="gc_89"/>
<path d="M143,913c.1,-.2,.5,-.4,.5,-.3c.1,.1,-.3,.3,-.5,.4q-.2,.1,0,-.1Z" class="gc_89"/>
<path d="M144.6,912.4c.1,-.1,.2,-.1,.3,-.1c.1,-.1,.1,0,0,0c-.1,.1,-.2,.1,-.3,.1q-.1,0,0,0Z" class="gc_89"/>
<path d="M145.2,912.2c0,0,.4,-.1,.9,-.2c.6,0,.9,0,.9,0c0,.1,-.4,.2,-.9,.2c-.6,.1,-.9,.1,-.9,0Z" class="gc_89"/>
<path d="M147.1,912c.1,0,.4,-.1,.9,-.2c.5,0,.7,0,.6,0c-.3,.1,-1.5,.3,-1.5,.2Z" class="gc_89"/>
<path d="M128.2,925.5q-.1,-.2,-.1,-.1c-.1,.2,0,.3,.1,.3c.1,0,.1,-.1,0,-.2Z" class="g7_89"/>
</g>
<path d="M152.7,937.6H456.8" class="g3_89"/>
<path d="M137.6,946.9v157.6" class="g4_89"/>
</svg>