<?xml version="1.0" encoding="UTF-8" standalone="no"?>
<!DOCTYPE svg PUBLIC "-//W3C//DTD SVG 1.1//EN"
"http://www.w3.org/Graphics/SVG/1.1/DTD/svg11.dtd">
<svg viewBox="0 0 1286 909" version="1.1" xmlns="http://www.w3.org/2000/svg" xmlns:xlink="http://www.w3.org/1999/xlink">
<defs>
<style type="text/css"><![CDATA[
.g0_906{
fill: none;
stroke: #000000;
stroke-width: 0.73;
stroke-linecap: butt;
stroke-linejoin: miter;
}
.g1_906{
fill: none;
stroke: #02B5EE;
stroke-width: 1.262;
stroke-linecap: butt;
stroke-linejoin: miter;
}
.g2_906{
fill: none;
stroke: #5EE200;
stroke-width: 1.262;
stroke-linecap: butt;
stroke-linejoin: miter;
}
.g3_906{
fill: none;
stroke: #5EE200;
stroke-width: 0.73;
stroke-linecap: butt;
stroke-linejoin: miter;
}
.g4_906{
fill: none;
stroke: #02B5EE;
stroke-width: 0.73;
stroke-linecap: butt;
stroke-linejoin: miter;
}
.g5_906{
fill: none;
stroke: #5EE200;
stroke-width: 1.461;
stroke-linecap: butt;
stroke-linejoin: miter;
stroke-dasharray: 2,2;
}
.g6_906{
fill: #AEF080;
}
.g7_906{
fill: none;
stroke: #FFA313;
stroke-width: 1.262;
stroke-linecap: butt;
stroke-linejoin: miter;
}
.g8_906{
fill: none;
stroke: #FFA313;
stroke-width: 0.73;
stroke-linecap: butt;
stroke-linejoin: miter;
}
]]></style>
</defs>
<path d="M193,83.4h900.3M193,210.6h832.5m-832.5,0h832.5M480,240.2V211m0,58.5V240.2m0,114.3v-85" class="g0_906"/>
<path d="M723.9,330.5h81" class="g1_906"/>
<path d="M815.4,330.5H851" class="g2_906"/>
<path d="M480,384.6V354.5m0,103.2V384.6" class="g0_906"/>
<path d="M845.6,443.8h67.6" class="g3_906"/>
<path d="M913.2,443.8h101.3" class="g4_906"/>
<path d="M480,486.9V457.7m0,58.5V486.9m0,114.3v-85" class="g0_906"/>
<path d="M681.4,577.2h81" class="g1_906"/>
<path d="M776.6,559.1h63.2" class="g5_906"/>
<path d="M854,565.5h78.1V532.6H854v32.9Z" class="g6_906"/>
<path d="M772.9,577.2H932.1" class="g2_906"/>
<path d="M942.6,577.2h71.9" class="g7_906"/>
<path d="M480,630.4V601.2m0,102.3V630.4" class="g0_906"/>
<path d="M621.7,675.4h48.9" class="g5_906"/>
<path d="M674.2,679.7H862.5V646.8H674.2v32.9Z" class="g6_906"/>
<path d="M618.1,689.6H879.4" class="g3_906"/>
<path d="M879.4,689.6h84.5" class="g8_906"/>
<path d="M963.9,689.6h50.6" class="g4_906"/>
<path d="M480,732.7V703.5M193,733.1h832.5m-832.5,0h832.5" class="g0_906"/>
</svg>