<?xml version="1.0" encoding="UTF-8" standalone="no"?>
<!DOCTYPE svg PUBLIC "-//W3C//DTD SVG 1.1//EN"
"http://www.w3.org/Graphics/SVG/1.1/DTD/svg11.dtd">
<svg viewBox="0 0 1286 909" version="1.1" xmlns="http://www.w3.org/2000/svg" xmlns:xlink="http://www.w3.org/1999/xlink">
<defs>
<style type="text/css"><![CDATA[
.g0_404{
fill: none;
stroke: #000000;
stroke-width: 0.73;
stroke-linecap: butt;
stroke-linejoin: miter;
}
.g1_404{
fill: #B3E9FA;
}
.g2_404{
fill: none;
stroke: #02B5EE;
stroke-width: 1.262;
stroke-linecap: butt;
stroke-linejoin: miter;
}
.g3_404{
fill: none;
stroke: #5EE200;
stroke-width: 1.262;
stroke-linecap: butt;
stroke-linejoin: miter;
}
]]></style>
</defs>
<path d="M193,83.4h900.3M193,111.6H985.1m-792.1,0H985.1M699,141.2V112m0,114.3V141.2" class="g0_404"/>
<path d="M712.6,176.5V164.3c0,-2.9,2.3,-5.2,5.2,-5.2h77.3c2.8,0,5.2,2.3,5.2,5.2v12.2c0,2.9,-2.4,5.2,-5.2,5.2H717.8c-2.9,0,-5.2,-2.3,-5.2,-5.2Z" class="g1_404"/>
<path d="M710,202.3h92.9" class="g2_404"/>
<path d="M813.4,202.3H974.2" class="g3_404"/>
<path d="M699,255.5V226.3m0,58.4V255.5m0,114.2v-85" class="g0_404"/>
<path d="M736.3,326.3V307.8c0,-2.9,2.3,-5.2,5.2,-5.2H853.9c2.9,0,5.2,2.3,5.2,5.2v18.5c0,2.8,-2.3,5.2,-5.2,5.2H741.5c-2.9,0,-5.2,-2.4,-5.2,-5.2Z" class="g1_404"/>
<path d="M733.7,345.7h128" class="g2_404"/>
<path d="M872.2,345.7h102" class="g3_404"/>
<path d="M699,399V369.7m0,58.5V399m0,114.2v-85" class="g0_404"/>
<path d="M730.5,463.4V451.2c0,-2.8,2.3,-5.2,5.2,-5.2h85.5c2.9,0,5.2,2.4,5.2,5.2v12.2c0,2.9,-2.3,5.2,-5.2,5.2H735.7c-2.9,0,-5.2,-2.3,-5.2,-5.2Z" class="g1_404"/>
<path d="M727.9,489.2H829" class="g2_404"/>
<path d="M839.5,489.2H974.2" class="g3_404"/>
<path d="M699,542.4V513.2M193,542.8H985.1m-792.1,0H985.1" class="g0_404"/>
</svg>