<?xml version="1.0" encoding="UTF-8" standalone="no"?>
<!DOCTYPE svg PUBLIC "-//W3C//DTD SVG 1.1//EN"
"http://www.w3.org/Graphics/SVG/1.1/DTD/svg11.dtd">
<svg viewBox="0 0 1286 909" version="1.1" xmlns="http://www.w3.org/2000/svg" xmlns:xlink="http://www.w3.org/1999/xlink">
<defs>
<style type="text/css"><![CDATA[
.g0_804{
fill: none;
stroke: #000000;
stroke-width: 0.73;
stroke-linecap: butt;
stroke-linejoin: miter;
}
.g1_804{
fill: none;
stroke: #02B5EE;
stroke-width: 1.262;
stroke-linecap: butt;
stroke-linejoin: miter;
}
.g2_804{
fill: none;
stroke: #02B5EE;
stroke-width: 0.73;
stroke-linecap: butt;
stroke-linejoin: miter;
}
]]></style>
</defs>
<path d="M193,83.4h900.3M193,111.6H933.3m-740.3,0H933.3M403.6,141.2V112m0,60.6V141.2m0,62.7V172.6m0,60.5V203.9m0,58.4V233.1m0,114.3V262.3" class="g0_804"/>
<path d="M595.1,323.4h51.8" class="g1_804"/>
<path d="M403.6,376.6V347.4m0,102.2v-73" class="g0_804"/>
<path d="M821,435.8H922.4" class="g2_804"/>
<path d="M403.6,478.9V449.6m0,58.5V478.9m0,114.2v-85" class="g0_804"/>
<path d="M748.6,569.1h59.2" class="g1_804"/>
<path d="M403.6,622.3V593.1m0,102.3V622.3" class="g0_804"/>
<path d="M871.7,681.5h50.7" class="g2_804"/>
<path d="M403.6,724.6V695.4M193,725H933.3M193,725H933.3" class="g0_804"/>
</svg>