<?xml version="1.0" encoding="UTF-8" standalone="no"?>
<!DOCTYPE svg PUBLIC "-//W3C//DTD SVG 1.1//EN"
"http://www.w3.org/Graphics/SVG/1.1/DTD/svg11.dtd">
<svg viewBox="0 0 1286 909" version="1.1" xmlns="http://www.w3.org/2000/svg" xmlns:xlink="http://www.w3.org/1999/xlink">
<defs>
<style type="text/css"><![CDATA[
.g0_973{
fill: none;
stroke: #000000;
stroke-width: 0.73;
stroke-linecap: butt;
stroke-linejoin: miter;
}
.g1_973{
fill: #E6CEEE;
}
.g2_973{
fill: #F81693;
}
.g3_973{
fill: #FFE6E6;
}
]]></style>
</defs>
<path d="M193,83.4h900.3M193,210.6H852.2m-659.2,0H852.2M431.4,240.2V211m0,58.5V240.2m0,77.3v-48" class="g0_973"/>
<path d="M442.3,313.7h76.2V280.8H442.3v32.9Z" class="g1_973"/>
<path d="M529,309.7V277.2c0,-4.3,3.5,-7.7,7.8,-7.7H600c4.3,0,7.8,3.4,7.8,7.7v32.5c0,4.3,-3.5,7.8,-7.8,7.8H536.8c-4.3,0,-7.8,-3.5,-7.8,-7.8Z" class="g2_973"/>
<path d="M531.6,309.7V277.2c0,-2.8,2.3,-5.2,5.2,-5.2H600c2.9,0,5.2,2.4,5.2,5.2v32.5c0,2.9,-2.3,5.2,-5.2,5.2H536.8c-2.9,0,-5.2,-2.3,-5.2,-5.2Z" class="g3_973"/>
<path d="M618.3,313.7h76.2V280.8H618.3v32.9Z" class="g1_973"/>
<path d="M431.4,347.7V317.5m0,73.1V347.7" class="g0_973"/>
<path d="M540,384.7h61.6V351.8H540v32.9Z" class="g1_973"/>
<path d="M601.6,382.8V355.5c0,-4.3,3.5,-7.8,7.8,-7.8h61.1c4.3,0,7.8,3.5,7.8,7.8v27.3c0,4.3,-3.5,7.8,-7.8,7.8H609.4c-4.3,0,-7.8,-3.5,-7.8,-7.8Z" class="g2_973"/>
<path d="M604.2,382.8V355.5c0,-2.9,2.3,-5.2,5.2,-5.2h61.1c2.8,0,5.2,2.3,5.2,5.2v27.3c0,2.8,-2.4,5.2,-5.2,5.2H609.4c-2.9,0,-5.2,-2.4,-5.2,-5.2Z" class="g3_973"/>
<path d="M745.8,384.7h95.4V351.8H745.8v32.9Z" class="g1_973"/>
<path d="M431.4,419.8V390.6M193,420.1H852.2m-659.2,0H852.2" class="g0_973"/>
</svg>