<?xml version="1.0" encoding="UTF-8" standalone="no"?>
<!DOCTYPE svg PUBLIC "-//W3C//DTD SVG 1.1//EN"
"http://www.w3.org/Graphics/SVG/1.1/DTD/svg11.dtd">
<svg viewBox="0 0 1286 909" version="1.1" xmlns="http://www.w3.org/2000/svg" xmlns:xlink="http://www.w3.org/1999/xlink">
<defs>
<style type="text/css"><![CDATA[
.g0_266{
fill: none;
stroke: #000000;
stroke-width: 0.73;
stroke-linecap: butt;
stroke-linejoin: miter;
}
.g1_266{
fill: #B3E9FA;
}
.g2_266{
fill: none;
stroke: #02B5EE;
stroke-width: 1.262;
stroke-linecap: butt;
stroke-linejoin: miter;
}
.g3_266{
fill: none;
stroke: #5EE200;
stroke-width: 1.262;
stroke-linecap: butt;
stroke-linejoin: miter;
}
]]></style>
</defs>
<path d="M193,83.4h900.3M193,111.6H841m-648,0H841M497.1,141.2V112m0,114.3V141.2" class="g0_266"/>
<path d="M589.4,176.5V164.3c0,-2.9,2.4,-5.2,5.2,-5.2H688c2.8,0,5.2,2.3,5.2,5.2v12.2c0,2.9,-2.4,5.2,-5.2,5.2H594.6c-2.8,0,-5.2,-2.3,-5.2,-5.2Z" class="g1_266"/>
<path d="M586.9,202.3H695.8" class="g2_266"/>
<path d="M706.3,202.3H830.1" class="g3_266"/>
<path d="M497.1,255.5V226.3m0,58.4V255.5m0,114.2v-85" class="g0_266"/>
<path d="M600,345.7h34.6" class="g2_266"/>
<path d="M497.1,399V369.7M193,399.3H841m-648,0H841" class="g0_266"/>
</svg>