<?xml version="1.0" encoding="UTF-8" standalone="no"?>
<!DOCTYPE svg PUBLIC "-//W3C//DTD SVG 1.1//EN"
"http://www.w3.org/Graphics/SVG/1.1/DTD/svg11.dtd">
<svg viewBox="0 0 909 1286" version="1.1" xmlns="http://www.w3.org/2000/svg" xmlns:xlink="http://www.w3.org/1999/xlink">
<defs>
<style type="text/css"><![CDATA[
.g0_35{
fill: none;
stroke: #000000;
stroke-width: 0.73;
stroke-linecap: butt;
stroke-linejoin: miter;
}
.g1_35{
fill: none;
stroke: #F81693;
stroke-width: 0.73;
stroke-linecap: butt;
stroke-linejoin: miter;
}
.g2_35{
fill: none;
stroke: #02B5EE;
stroke-width: 0.73;
stroke-linecap: butt;
stroke-linejoin: miter;
}
.g3_35{
fill: none;
stroke: #02B5EE;
stroke-width: 1.461;
stroke-linecap: butt;
stroke-linejoin: miter;
}
.g4_35{
fill: none;
stroke: #F81693;
stroke-width: 1.461;
stroke-linecap: butt;
stroke-linejoin: miter;
}
.g5_35{
fill: #FFFFFF;
}
.g6_35{
fill: #FDE8E9;
}
]]></style>
</defs>
<path d="M116.9,179.9H791.1M371.2,209.5V180.3M301.8,265l24.8,14.8m-56,40.6V283.8M301.8,265l-31.2,18.6M239.3,265l31.3,18.6m-31.3,55.6l31.3,-18.7m-31.3,18.7L208.1,320.5m0,-.1V283.8M239.3,265l-31.2,18.6m32.3,-10.9l23,13.7m-49.3,29.2v-27m26.3,42.9l23,-13.7M176.8,265l31.3,18.6m0,36.8H153.3M145.6,313V293m31.2,-28L152,279.8M299.6,265V239.4M304,265V239.4m67.2,152.4V209.5" class="g0_35"/>
<path d="M596.3,265l24.8,14.8M565,320.4V293m31.3,-28l-24.9,14.8m-31.2,-11l18.3,11m-24.7,59.4L565,320.5m-31.2,18.7L509,324.4M502.6,313V293m24.8,-24.2l-18.3,11m31.1,-4.9l18.3,10.9M508.6,313V293m26.3,38.5l23,-13.7" class="g1_35"/>
<path d="M471.3,265l24.9,14.8m-48.4,40.6h47.1M440.1,313V293m31.2,-28l-24.8,14.8" class="g2_35"/>
<path d="M594.1,265V239.4m4.4,25.6V239.4" class="g1_35"/>
<path d="M371.2,421V391.8m0,58.4V421" class="g0_35"/>
<path d="M399.4,451.4c1.4,0,2.1,-2.7,3.4,-2.7c1,0,1.9,1.3,2.8,2.7c.9,1.4,1.7,2.7,2.7,2.7c1,0,1.9,-1.3,2.8,-2.7c.8,-1.4,1.7,-2.7,2.7,-2.7c1,0,1.8,1.3,2.7,2.7c.9,1.4,1.8,2.7,2.8,2.7c1,0,1.8,-1.3,2.7,-2.7c.9,-1.4,1.8,-2.7,2.8,-2.7c.9,0,1.8,1.3,2.7,2.7c.9,1.4,1.7,2.7,2.7,2.7c1,0,1.9,-1.3,2.8,-2.7c.9,-1.4,1.7,-2.7,2.7,-2.7c1.4,0,2.1,2.7,3.4,2.7h1" class="g3_35"/>
<path d="M631.5,448.8c1.3,0,2,-2.8,3.4,-2.8c1,0,1.8,1.4,2.7,2.8c.9,1.4,1.8,2.7,2.8,2.7c1,0,1.8,-1.3,2.7,-2.7c.9,-1.4,1.8,-2.8,2.8,-2.8c.9,0,1.8,1.4,2.7,2.8c.9,1.4,1.7,2.7,2.7,2.7c1,0,1.9,-1.3,2.8,-2.7c.9,-1.4,1.7,-2.8,2.7,-2.8c1,0,1.9,1.4,2.8,2.8c.8,1.4,1.7,2.7,2.7,2.7c1,0,1.8,-1.3,2.7,-2.7c.9,-1.4,1.8,-2.8,2.8,-2.8c1,0,1.8,1.4,2.7,2.8c.9,1.4,1.8,2.7,2.7,2.7c1,0,1.9,-1.3,2.8,-2.7c.9,-1.4,1.7,-2.8,2.7,-2.8c1,0,1.9,1.4,2.8,2.8c.9,1.4,1.7,2.7,2.7,2.7c1,0,1.9,-1.3,2.7,-2.7c.9,-1.4,1.8,-2.8,2.8,-2.8c1,0,1.8,1.4,2.7,2.8c.9,1.4,1.8,2.7,2.8,2.7c1,0,1.8,-1.3,2.7,-2.7c.9,-1.4,1.8,-2.8,2.7,-2.8c1,0,1.9,1.4,2.8,2.8c.9,1.4,1.7,2.7,2.7,2.7c1,0,1.9,-1.3,2.8,-2.7c.9,-1.4,1.7,-2.8,2.7,-2.8c1,0,1.9,1.4,2.7,2.8c.9,1.4,1.8,2.7,2.8,2.7c1,0,1.8,-1.3,2.7,-2.7c.9,-1.4,1.8,-2.8,2.8,-2.8c1,0,1.8,1.4,2.7,2.8c.9,1.4,1.8,2.7,2.7,2.7c1,0,1.9,-1.3,2.8,-2.7c.9,-1.4,1.7,-2.8,2.7,-2.8c1,0,1.9,1.4,2.8,2.8c.9,1.4,1.7,2.7,2.7,2.7c1,0,1.9,-1.3,2.7,-2.7c.9,-1.4,1.8,-2.8,2.8,-2.8c1,0,1.8,1.4,2.7,2.8c.9,1.4,1.8,2.7,2.8,2.7c1,0,1.8,-1.3,2.7,-2.7c.9,-1.4,1.8,-2.8,2.7,-2.8c1,0,1.9,1.4,2.8,2.8c.9,1.4,1.7,2.7,2.7,2.7c1,0,1.9,-1.3,2.8,-2.7c.9,-1.4,1.7,-2.8,2.7,-2.8c1,0,1.8,1.4,2.7,2.8c.9,1.4,1.8,2.7,2.8,2.7c1.4,0,2,-2.7,3.4,-2.7h4.8" class="g4_35"/>
<path d="M371.2,479.4V450.2m0,105.8V479.4" class="g0_35"/>
<path d="M448.8,548.2v-61c0,-2.8,2.3,-5.2,5.2,-5.2H681.6c2.9,0,5.2,2.4,5.2,5.2v61c0,2.8,-2.3,5.2,-5.2,5.2H454c-2.9,0,-5.2,-2.4,-5.2,-5.2Z" class="g5_35"/>
<path d="M524.6,578.9h86.5V562.4H524.6v16.5Z" class="g6_35"/>
<path d="M474.8,537.8h186V497.6h-186v40.2Z" class="g6_35"/>
<path d="M371.2,585.2V556M116.9,585.6H791.1" class="g0_35"/>
</svg>