<?xml version="1.0" encoding="UTF-8" standalone="no"?>
<!DOCTYPE svg PUBLIC "-//W3C//DTD SVG 1.1//EN"
"http://www.w3.org/Graphics/SVG/1.1/DTD/svg11.dtd">
<svg viewBox="0 0 1286 909" version="1.1" xmlns="http://www.w3.org/2000/svg" xmlns:xlink="http://www.w3.org/1999/xlink">
<defs>
<style type="text/css"><![CDATA[
.g0_867{
fill: none;
stroke: #000000;
stroke-width: 0.73;
stroke-linecap: butt;
stroke-linejoin: miter;
}
.g1_867{
fill: none;
stroke: #02B5EE;
stroke-width: 1.262;
stroke-linecap: butt;
stroke-linejoin: miter;
}
.g2_867{
fill: none;
stroke: #5EE200;
stroke-width: 1.262;
stroke-linecap: butt;
stroke-linejoin: miter;
}
.g3_867{
fill: none;
stroke: #5EE200;
stroke-width: 0.73;
stroke-linecap: butt;
stroke-linejoin: miter;
}
.g4_867{
fill: none;
stroke: #02B5EE;
stroke-width: 0.73;
stroke-linecap: butt;
stroke-linejoin: miter;
}
.g5_867{
fill: none;
stroke: #FFA313;
stroke-width: 1.262;
stroke-linecap: butt;
stroke-linejoin: miter;
}
]]></style>
</defs>
<path d="M193,83.4h900.3M193,210.6H792.6m-599.6,0H792.6M479.9,240.2V211m0,58.5V240.2m0,116.7V269.5" class="g0_867"/>
<path d="M490.9,330.5H569" class="g1_867"/>
<path d="M579.5,330.5H683.3m10.5,0h87.8" class="g2_867"/>
<path d="M479.9,386.2V356.9m0,103.8V386.2" class="g0_867"/>
<path d="M500.2,445.3h84.4m6.1,0H691.1" class="g3_867"/>
<path d="M697.2,445.3h84.4" class="g4_867"/>
<path d="M479.9,489.9V460.7m0,58.4V489.9m0,114.2v-85" class="g0_867"/>
<path d="M551.5,580.2h99.2" class="g1_867"/>
<path d="M661.2,580.2h22.1" class="g2_867"/>
<path d="M693.8,580.2h87.8" class="g5_867"/>
<path d="M479.9,633.4V604.1M193,633.7H792.6m-599.6,0H792.6" class="g0_867"/>
</svg>