<?xml version="1.0" encoding="UTF-8" standalone="no"?>
<!DOCTYPE svg PUBLIC "-//W3C//DTD SVG 1.1//EN"
"http://www.w3.org/Graphics/SVG/1.1/DTD/svg11.dtd">
<svg viewBox="0 0 1286 909" version="1.1" xmlns="http://www.w3.org/2000/svg" xmlns:xlink="http://www.w3.org/1999/xlink">
<defs>
<style type="text/css"><![CDATA[
.g0_1235{
fill: none;
stroke: #000000;
stroke-width: 0.73;
stroke-linecap: butt;
stroke-linejoin: miter;
}
.g1_1235{
fill: #FDE8E9;
}
]]></style>
</defs>
<path d="M193,83.4h900.3M203.9,111.2H437M203.9,140.8V111.6m94.9,29.2V111.6M437,140.8V111.6M203.9,173.5V140.8m94.9,32.7V140.8" class="g0_1235"/>
<path d="M309.8,170.2h73.6V140.8H309.8v29.4Z" class="g1_1235"/>
<path d="M437,173.5V140.8M203.9,202.7V173.5m94.9,29.2V173.5M437,202.7V173.5M203.9,231.9V202.7m94.9,29.2V202.7M437,231.9V202.7M203.9,266.5V231.9m94.9,34.6V231.9" class="g0_1235"/>
<path d="M309.8,266.5H411.3V231.9H309.8v34.6Z" class="g1_1235"/>
<path d="M437,266.5V231.9M203.9,295.8V266.5m94.9,29.3V266.5M437,295.8V266.5M203.9,325V295.8M298.8,325V295.8M437,325V295.8M203.9,359.6V325m94.9,34.6V325" class="g0_1235"/>
<path d="M309.8,359.6h113V325h-113v34.6Z" class="g1_1235"/>
<path d="M437,359.6V325M203.9,388.8V359.6m94.9,29.2V359.6M437,388.8V359.6M203.9,418.1V388.8m94.9,29.3V388.8M437,418.1V388.8M203.9,450.7V418.1m94.9,32.6V418.1" class="g0_1235"/>
<path d="M309.8,447.4h82.9V418.1H309.8v29.3Z" class="g1_1235"/>
<path d="M437,450.7V418.1M203.9,479.9V450.7m94.9,29.2V450.7M437,479.9V450.7M203.9,509.1V479.9m94.9,29.2V479.9M437,509.1V479.9M203.9,543.8V509.1m94.9,34.7V509.1" class="g0_1235"/>
<path d="M309.8,543.8h93.4V509.1H309.8v34.7Z" class="g1_1235"/>
<path d="M437,543.8V509.1M203.9,573V543.8M298.8,573V543.8M437,573V543.8M203.9,602.2V573m94.9,29.2V573M437,602.2V573M203.9,634.9V602.2m94.9,32.7V602.2" class="g0_1235"/>
<path d="M309.8,631.6h46.1V602.2H309.8v29.4Z" class="g1_1235"/>
<path d="M437,634.9V602.2M203.9,664.1V634.9m94.9,29.2V634.9M437,664.1V634.9M203.9,693.3V664.1m94.9,29.2V664.1M437,693.3V664.1M203.9,726V693.3M298.8,726V693.3" class="g0_1235"/>
<path d="M309.8,722.7H426.1V693.3H309.8v29.4Z" class="g1_1235"/>
<path d="M437,726V693.3M203.9,755.2V726m94.9,29.2V726M437,755.2V726M203.9,755.5H437m22,-646H707.3M459,139.1V109.9m94.8,29.2V109.9m153.5,29.2V109.9M459,173.7V139.1m94.8,34.6V139.1" class="g0_1235"/>
<path d="M564.8,173.7h74V139.1h-74v34.6Z" class="g1_1235"/>
<path d="M707.3,173.7V139.1M459,203V173.7M553.8,203V173.7M707.3,203V173.7M459,232.2V203m94.8,29.2V203m153.5,29.2V203M459,264.3V232.2m94.8,32.1V232.2" class="g0_1235"/>
<path d="M564.8,264.3h66.6V235.7H564.8v28.6Z" class="g1_1235"/>
<path d="M707.3,264.3V232.2M459,293.5V264.3m94.8,29.2V264.3m153.5,29.2V264.3M459,322.8V293.5m94.8,29.3V293.5m153.5,29.3V293.5M459,357.4V322.8m94.8,34.6V322.8" class="g0_1235"/>
<path d="M564.8,357.4h77.7V322.8H564.8v34.6Z" class="g1_1235"/>
<path d="M707.3,357.4V322.8M459,386.6V357.4m94.8,29.2V357.4m153.5,29.2V357.4M459,415.8V386.6m94.8,29.2V386.6m153.5,29.2V386.6M459,448.5V415.8m94.8,32.7V415.8" class="g0_1235"/>
<path d="M564.8,445.2h73V415.8h-73v29.4Z" class="g1_1235"/>
<path d="M707.3,448.5V415.8M459,477.7V448.5m94.8,29.2V448.5m153.5,29.2V448.5M459,506.9V477.7m94.8,29.2V477.7m153.5,29.2V477.7M459,541.5V506.9m94.8,34.6V506.9" class="g0_1235"/>
<path d="M564.8,541.5H693.5V506.9H564.8v34.6Z" class="g1_1235"/>
<path d="M707.3,541.5V506.9M459,570.8V541.5m94.8,29.3V541.5m153.5,29.3V541.5M459,600V570.8M553.8,600V570.8M707.3,600V570.8M459,634.6V600m94.8,34.6V600" class="g0_1235"/>
<path d="M564.8,634.6H696.3V600H564.8v34.6Z" class="g1_1235"/>
<path d="M707.3,634.6V600M459,663.8V634.6m94.8,29.2V634.6m153.5,29.2V634.6M459,693.1V663.8m94.8,29.3V663.8m153.5,29.3V663.8M459,727.7V693.1m94.8,34.6V693.1" class="g0_1235"/>
<path d="M564.8,727.7H683V693.1H564.8v34.6Z" class="g1_1235"/>
<path d="M707.3,727.7V693.1M459,756.9V727.7m94.8,29.2V727.7m153.5,29.2V727.7M459,757.3H707.3M729.2,111.5H1025M729.2,141.1V111.9m155.7,29.2V111.9M1025,141.1V111.9M729.2,175.7V141.1m155.7,34.6V141.1" class="g0_1235"/>
<path d="M895.9,175.7H1011V141.1H895.9v34.6Z" class="g1_1235"/>
<path d="M1025,175.7V141.1M729.2,204.9V175.7m155.7,29.2V175.7M1025,204.9V175.7M729.2,234.2V204.9m155.7,29.3V204.9M1025,234.2V204.9M729.2,264.3V234.2m155.7,30.1V234.2" class="g0_1235"/>
<path d="M895.9,261h89.7V237.7H895.9V261Z" class="g1_1235"/>
<path d="M1025,264.3V234.2M729.2,293.5V264.3m155.7,29.2V264.3M1025,293.5V264.3M729.2,322.8V293.5m155.7,29.3V293.5M1025,322.8V293.5M729.2,357.4V322.8m155.7,34.6V322.8" class="g0_1235"/>
<path d="M895.9,357.4h104.8V322.8H895.9v34.6Z" class="g1_1235"/>
<path d="M1025,357.4V322.8M729.2,386.6V357.4m155.7,29.2V357.4M1025,386.6V357.4M729.2,415.8V386.6m155.7,29.2V386.6M1025,415.8V386.6M729.2,448.5V415.8m155.7,32.7V415.8" class="g0_1235"/>
<path d="M895.9,445.2h97.3V415.8H895.9v29.4Z" class="g1_1235"/>
<path d="M1025,448.5V415.8M729.2,477.7V448.5m155.7,29.2V448.5M1025,477.7V448.5M729.2,506.9V477.7m155.7,29.2V477.7M1025,506.9V477.7M729.2,541.5V506.9m155.7,34.6V506.9" class="g0_1235"/>
<path d="M895.9,541.5h98.7V506.9H895.9v34.6Z" class="g1_1235"/>
<path d="M1025,541.5V506.9M729.2,570.8V541.5m155.7,29.3V541.5M1025,570.8V541.5M729.2,600V570.8M884.9,600V570.8M1025,600V570.8M729.2,632.6V600m155.7,32.6V600" class="g0_1235"/>
<path d="M895.9,629.3h118.2V600H895.9v29.3Z" class="g1_1235"/>
<path d="M1025,632.6V600M729.2,661.9V632.6m155.7,29.3V632.6M1025,661.9V632.6M729.2,691.1V661.9m155.7,29.2V661.9M1025,691.1V661.9M729.2,725.7V691.1m155.7,34.6V691.1" class="g0_1235"/>
<path d="M895.9,725.7H992V691.1H895.9v34.6Z" class="g1_1235"/>
<path d="M1025,725.7V691.1M729.2,754.9V725.7m155.7,29.2V725.7M1025,754.9V725.7M729.2,755.3H1025" class="g0_1235"/>
</svg>