<?xml version="1.0" encoding="UTF-8" standalone="no"?>
<!DOCTYPE svg PUBLIC "-//W3C//DTD SVG 1.1//EN"
"http://www.w3.org/Graphics/SVG/1.1/DTD/svg11.dtd">
<svg viewBox="0 0 909 1286" version="1.1" xmlns="http://www.w3.org/2000/svg" xmlns:xlink="http://www.w3.org/1999/xlink">
<defs>
<style type="text/css"><![CDATA[
.g0_33{
fill: none;
stroke: #000000;
stroke-width: 0.73;
stroke-linecap: butt;
stroke-linejoin: miter;
}
.g1_33{
fill: none;
stroke: #F81693;
stroke-width: 0.73;
stroke-linecap: butt;
stroke-linejoin: miter;
}
.g2_33{
fill: none;
stroke: #02B5EE;
stroke-width: 0.73;
stroke-linecap: butt;
stroke-linejoin: miter;
}
.g3_33{
fill: none;
stroke: #02B5EE;
stroke-width: 1.461;
stroke-linecap: butt;
stroke-linejoin: miter;
}
.g4_33{
fill: none;
stroke: #000000;
stroke-width: 0.547;
stroke-linecap: butt;
stroke-linejoin: miter;
}
.g5_33{
fill: none;
stroke: #02B5EE;
stroke-width: 0.547;
stroke-linecap: butt;
stroke-linejoin: miter;
}
.g6_33{
fill: none;
stroke: #F81693;
stroke-width: 0.547;
stroke-linecap: butt;
stroke-linejoin: miter;
}
.g7_33{
fill: none;
stroke: #F81693;
stroke-width: 1.461;
stroke-linecap: butt;
stroke-linejoin: miter;
}
]]></style>
</defs>
<path d="M116.9,179.9H815.4M438.8,209.5V180.3M161,272.5L129.7,253.9M161,272.5l24.8,-14.8M161,272.5v25.6m56,-29.4l-18.2,-11m31,11l25.2,-15m-.3,0V228.1m31.2,44.4L254.7,253.9m184.1,64.8V209.5" class="g0_33"/>
<path d="M560.6,259.7l18.3,11" class="g1_33"/>
<path d="M523,311.2V274.7m24.9,-15L523,274.5M491.8,255.9L523,274.5m93.7,-18.6V219.3m-24.8,51.6l25.2,-15M648,274.7L616.7,256.1" class="g2_33"/>
<path d="M438.8,347.9V318.7m0,58.5V347.9" class="g0_33"/>
<path d="M505.8,375.7c1.3,0,2,-2.7,3.4,-2.7c1,0,1.8,1.3,2.7,2.7c.9,1.4,1.8,2.7,2.8,2.7c1,0,1.8,-1.3,2.7,-2.7c.9,-1.4,1.7,-2.7,2.7,-2.7c1.4,0,2.1,2.7,3.5,2.7h4.1" class="g3_33"/>
<path d="M438.8,406.4V377.2M116.9,406.7H815.4M438.8,436.3V407.1" class="g0_33"/>
<path d="M274.5,496.5l13.7,-8.2m-23.3,8.2L246,485.2m.3,0V457.8M222.9,443.7l23.4,14m-23.4,41.7l23.4,-14m-23.4,14l-23.5,-14m0,-.2V457.8m23.5,-14.1l-23.5,14m22.7,-8.2l-17.3,10.3m17.3,33.8L204.8,483.3m37,-1.6V461.4m74.8,38l23.4,-14m-23.4,14L297.9,488.3M340,485.2l23.4,14m0,27.6V499.4M340,540.9l23.4,-14m-23.4,14l-23.4,-14m0,-.1V499.4M339.2,491l-17.3,10.3m37,21.9V502.9m-19.7,32.2L321.9,524.8m41.5,2l16.5,9.8M199.4,457.8L183,448" class="g4_33"/>
<path d="M438.8,552.5V436.3" class="g0_33"/>
<path d="M630.5,496.5l13.7,-8.2m-23.3,8.2l-13.7,-8.2" class="g5_33"/>
<path d="M602.3,479.8V464.7M583.6,446.6l13.7,8.2m-18.4,44.6l18.6,-11.1m-18.6,11.1l-23.5,-14m0,-.2V464.7m18.7,-18.1l-13.7,8.2m13.7,-3.7l-13.7,8.3M578,493.6L560.8,483.3m37,-3.5V464.7m79.6,31.8l13.7,-8.2" class="g6_33"/>
<path d="M667.8,496.5l-13.7,-8.2" class="g5_33"/>
<path d="M700.8,488.1l13.7,8.2m4.9,25V506.2M696,540.9l18.6,-11.1M696,540.9l-23.4,-14m0,-.1V506.2m18.6,-13.6l-13.7,8.3m37.4,20.4V506.2m-19.7,28.9L677.9,524.8m45.6,5.2l13.7,8.3M551.3,454.6l-13.7,-8.3" class="g6_33"/>
<path d="M438.8,581.7V552.5m0,58.5V581.7" class="g0_33"/>
<path d="M504.7,612.1c1.3,0,2,-2.7,3.4,-2.7c1,0,1.8,1.3,2.7,2.7c.9,1.4,1.8,2.8,2.8,2.8c1,0,1.8,-1.4,2.7,-2.8c.9,-1.4,1.8,-2.7,2.8,-2.7c1,0,1.8,1.3,2.7,2.7c.9,1.4,1.7,2.8,2.7,2.8c1,0,1.9,-1.4,2.8,-2.8c.9,-1.4,1.7,-2.7,2.7,-2.7c1,0,1.9,1.3,2.8,2.7c.9,1.4,1.7,2.8,2.7,2.8c1,0,1.8,-1.4,2.7,-2.8c.9,-1.4,1.8,-2.7,2.8,-2.7c1,0,1.8,1.3,2.7,2.7c.9,1.4,1.8,2.8,2.8,2.8c1.3,0,2,-2.8,3.4,-2.8h.4" class="g3_33"/>
<path d="M633.8,609.5c1.4,0,2,-2.7,3.4,-2.7c1,0,1.9,1.3,2.8,2.7c.9,1.4,1.7,2.7,2.7,2.7c1,0,1.8,-1.3,2.7,-2.7c.9,-1.4,1.8,-2.7,2.8,-2.7c1.3,0,2,2.7,3.4,2.7h4.2" class="g7_33"/>
<path d="M438.8,640.2V611M116.9,640.5H815.4" class="g0_33"/>
</svg>