<?xml version="1.0" encoding="UTF-8" standalone="no"?>
<!DOCTYPE svg PUBLIC "-//W3C//DTD SVG 1.1//EN"
"http://www.w3.org/Graphics/SVG/1.1/DTD/svg11.dtd">
<svg viewBox="0 0 1286 909" version="1.1" xmlns="http://www.w3.org/2000/svg" xmlns:xlink="http://www.w3.org/1999/xlink">
<defs>
<style type="text/css"><![CDATA[
.g0_985{
fill: none;
stroke: #000000;
stroke-width: 0.73;
stroke-linecap: butt;
stroke-linejoin: miter;
}
.g1_985{
fill: #FFCCCC;
}
.g2_985{
fill: #AEF080;
}
.g3_985{
fill: none;
stroke: #5EE200;
stroke-width: 1.461;
stroke-linecap: butt;
stroke-linejoin: miter;
stroke-dasharray: 2,2;
}
.g4_985{
fill: #F81693;
}
.g5_985{
fill: #FFE6E6;
}
.g6_985{
fill: none;
stroke: #F81693;
stroke-width: 1.461;
stroke-linecap: butt;
stroke-linejoin: miter;
stroke-dasharray: 2,2;
}
]]></style>
</defs>
<path d="M193,83.4h900.3M193,210.6H937.4m-744.4,0H937.4M531,240.2V211m0,58.5V240.2m0,63.2V269.5" class="g0_985"/>
<path d="M604.5,303.4H664V270.5H604.5v32.9Z" class="g1_985"/>
<path d="M674.5,303.4H799.9V270.5H674.5v32.9Z" class="g2_985"/>
<path d="M814,297H922.7" class="g3_985"/>
<path d="M531,332.6V303.4m0,62.1V332.6" class="g0_985"/>
<path d="M549.3,361.1H654.6" class="g3_985"/>
<path d="M658.2,365.5h95.4V332.6H658.2v32.9Z" class="g2_985"/>
<path d="M759.7,365.5H926.4V332.6H759.7v32.9Z" class="g1_985"/>
<path d="M531,394.7V365.5m0,58.4V394.7m0,70.1V423.9" class="g0_985"/>
<path d="M639.1,457V431.7c0,-4.3,3.5,-7.8,7.8,-7.8h40.6c4.3,0,7.8,3.5,7.8,7.8V457c0,4.3,-3.5,7.8,-7.8,7.8H646.9c-4.3,0,-7.8,-3.5,-7.8,-7.8Z" class="g4_985"/>
<path d="M641.7,457V431.7c0,-2.8,2.3,-5.2,5.2,-5.2h40.6c2.8,0,5.2,2.4,5.2,5.2V457c0,2.8,-2.4,5.2,-5.2,5.2H646.9c-2.9,0,-5.2,-2.4,-5.2,-5.2Z" class="g5_985"/>
<path d="M738.7,457V431.7c0,-4.3,3.5,-7.8,7.8,-7.8h40.6c4.3,0,7.8,3.5,7.8,7.8V457c0,4.3,-3.5,7.8,-7.8,7.8H746.5c-4.3,0,-7.8,-3.5,-7.8,-7.8Z" class="g4_985"/>
<path d="M741.3,457V431.7c0,-2.8,2.3,-5.2,5.2,-5.2h40.6c2.8,0,5.2,2.4,5.2,5.2V457c0,2.8,-2.4,5.2,-5.2,5.2H746.5c-2.9,0,-5.2,-2.4,-5.2,-5.2Z" class="g5_985"/>
<path d="M809,460.8H922.8" class="g6_985"/>
<path d="M531,494V464.8m0,72.1V494" class="g0_985"/>
<path d="M630.1,526.6H754.9" class="g6_985"/>
<path d="M758.6,529.1V501.8c0,-4.3,3.5,-7.8,7.8,-7.8H878.1c4.3,0,7.8,3.5,7.8,7.8v27.3c0,4.3,-3.5,7.8,-7.8,7.8H766.4c-4.3,0,-7.8,-3.5,-7.8,-7.8Z" class="g4_985"/>
<path d="M761.2,529.1V501.8c0,-2.9,2.3,-5.2,5.2,-5.2H878.1c2.9,0,5.2,2.3,5.2,5.2v27.3c0,2.8,-2.3,5.2,-5.2,5.2H766.4c-2.9,0,-5.2,-2.4,-5.2,-5.2Z" class="g5_985"/>
<path d="M531,566.1V536.9m0,58.4V566.1m0,70V595.3" class="g0_985"/>
<path d="M704,628.3V603.1c0,-4.3,3.5,-7.8,7.8,-7.8h40.6c4.3,0,7.8,3.5,7.8,7.8v25.2c0,4.3,-3.5,7.8,-7.8,7.8H711.8c-4.3,0,-7.8,-3.5,-7.8,-7.8Z" class="g4_985"/>
<path d="M706.6,628.3V603.1c0,-2.9,2.3,-5.2,5.2,-5.2h40.6c2.8,0,5.2,2.3,5.2,5.2v25.2c0,2.9,-2.4,5.2,-5.2,5.2H711.8c-2.9,0,-5.2,-2.3,-5.2,-5.2Z" class="g5_985"/>
<path d="M803.6,628.3V603.1c0,-4.3,3.5,-7.8,7.8,-7.8H852c4.3,0,7.8,3.5,7.8,7.8v25.2c0,4.3,-3.5,7.8,-7.8,7.8H811.4c-4.3,0,-7.8,-3.5,-7.8,-7.8Z" class="g4_985"/>
<path d="M806.2,628.3V603.1c0,-2.9,2.4,-5.2,5.2,-5.2H852c2.9,0,5.2,2.3,5.2,5.2v25.2c0,2.9,-2.3,5.2,-5.2,5.2H811.4c-2.8,0,-5.2,-2.3,-5.2,-5.2Z" class="g5_985"/>
<path d="M874,625.9h48.8" class="g6_985"/>
<path d="M531,665.4V636.1m0,72.1V665.4" class="g0_985"/>
<path d="M545.6,698H754.9" class="g6_985"/>
<path d="M758.6,700.4V673.1c0,-4.3,3.5,-7.7,7.8,-7.7H878.1c4.3,0,7.8,3.4,7.8,7.7v27.3c0,4.3,-3.5,7.8,-7.8,7.8H766.4c-4.3,0,-7.8,-3.5,-7.8,-7.8Z" class="g4_985"/>
<path d="M761.2,700.4V673.1c0,-2.8,2.3,-5.1,5.2,-5.1H878.1c2.9,0,5.2,2.3,5.2,5.1v27.3c0,2.9,-2.3,5.2,-5.2,5.2H766.4c-2.9,0,-5.2,-2.3,-5.2,-5.2Z" class="g5_985"/>
<path d="M531,737.4V708.2M193,737.8H937.4m-744.4,0H937.4" class="g0_985"/>
</svg>