<?xml version="1.0" encoding="UTF-8" standalone="no"?>
<!DOCTYPE svg PUBLIC "-//W3C//DTD SVG 1.1//EN"
"http://www.w3.org/Graphics/SVG/1.1/DTD/svg11.dtd">
<svg viewBox="0 0 1286 909" version="1.1" xmlns="http://www.w3.org/2000/svg" xmlns:xlink="http://www.w3.org/1999/xlink">
<defs>
<style type="text/css"><![CDATA[
.g0_108{
fill: none;
stroke: #000000;
stroke-width: 0.73;
stroke-linecap: butt;
stroke-linejoin: miter;
}
.g1_108{
fill: #B3E9FA;
}
.g2_108{
fill: none;
stroke: #02B5EE;
stroke-width: 1.262;
stroke-linecap: butt;
stroke-linejoin: miter;
}
.g3_108{
fill: none;
stroke: #5EE200;
stroke-width: 1.262;
stroke-linecap: butt;
stroke-linejoin: miter;
}
]]></style>
</defs>
<path d="M193,83.4h900.3M193,111.6H798.1m-605.1,0H798.1M484.6,141.2V112m0,58.5V141.2m0,114.3v-85" class="g0_108"/>
<path d="M498.2,212V193.5c0,-2.9,2.3,-5.2,5.2,-5.2H625.9c2.8,0,5.2,2.3,5.2,5.2V212c0,2.9,-2.4,5.2,-5.2,5.2H503.4c-2.9,0,-5.2,-2.3,-5.2,-5.2Z" class="g1_108"/>
<path d="M495.6,231.5h138" class="g2_108"/>
<path d="M644.2,231.5H787.1" class="g3_108"/>
<path d="M484.6,284.7V255.5m0,58.4V284.7m0,114.3V313.9" class="g0_108"/>
<path d="M573.2,355.5V337c0,-2.9,2.4,-5.2,5.2,-5.2h87.9c2.9,0,5.2,2.3,5.2,5.2v18.5c0,2.9,-2.3,5.2,-5.2,5.2H578.4c-2.8,0,-5.2,-2.3,-5.2,-5.2Z" class="g1_108"/>
<path d="M570.6,375H674.1" class="g2_108"/>
<path d="M684.6,375H787.1" class="g3_108"/>
<path d="M484.6,428.2V399M193,428.5H798.1m-605.1,0H798.1" class="g0_108"/>
</svg>