<?xml version="1.0" encoding="UTF-8" standalone="no"?>
<!DOCTYPE svg PUBLIC "-//W3C//DTD SVG 1.1//EN"
"http://www.w3.org/Graphics/SVG/1.1/DTD/svg11.dtd">
<svg viewBox="0 0 909 1286" version="1.1" xmlns="http://www.w3.org/2000/svg" xmlns:xlink="http://www.w3.org/1999/xlink">
<defs>
<style type="text/css"><![CDATA[
.g0_3{
fill: #FDE8E9;
}
.g1_3{
fill: none;
stroke: #000000;
stroke-width: 0.73;
stroke-linecap: butt;
stroke-linejoin: miter;
}
.g2_3{
fill: none;
stroke: #000000;
stroke-width: 1.461;
stroke-linecap: butt;
stroke-linejoin: miter;
}
.g3_3{
fill: none;
stroke: #000000;
stroke-width: 9.132;
stroke-linecap: butt;
stroke-linejoin: miter;
}
.g4_3{
fill: none;
stroke: #F81693;
stroke-width: 0.73;
stroke-linecap: butt;
stroke-linejoin: miter;
}
.g5_3{
fill: none;
stroke: #02B5EE;
stroke-width: 0.73;
stroke-linecap: butt;
stroke-linejoin: miter;
}
.g6_3{
fill: none;
stroke: #02B5EE;
stroke-width: 1.461;
stroke-linecap: butt;
stroke-linejoin: miter;
}
.g7_3{
fill: none;
stroke: #999999;
stroke-width: 2.191;
stroke-linecap: butt;
stroke-linejoin: miter;
}
.g8_3{
fill: #FFFFFF;
}
]]></style>
</defs>
<path d="M165.8,241.8H278.1V210.6H165.8v31.2Z" class="g0_3"/>
<path d="M116.9,267.4H783.4M117.3,508.7v-241" class="g1_3"/>
<path d="M399.4,447.3c-1.6,3.3,-5.5,5.5,-10.9,5.5H373.9c-5.5,0,-9.3,2.2,-11,5.5c-1.6,-3.3,-5.5,-5.5,-10.9,-5.5H337.4c-5.5,0,-9.3,-2.2,-11,-5.5" class="g2_3"/>
<path d="M783,508.7v-241M116.9,509H783.4" class="g1_3"/>
<path d="M126.1,514H792.5m-4.6,4.5V276.1" class="g3_3"/>
<path d="M116.9,550H714.7M303.6,579.5V550.3M195.7,615.5l31.2,18.7M195.7,615.5l-24.9,14.8m80.9,-10.9l-24.8,14.8M303.6,676V579.5" class="g1_3"/>
<path d="M428.9,634.3L397.7,615.7" class="g4_3"/>
<path d="M397.7,615.5l-21.9,13.2m53.1,5.6L454.5,619" class="g5_3"/>
<path d="M303.6,705.2V676m0,58.4V705.2" class="g1_3"/>
<path d="M444.8,735.6c1.4,0,2.1,-2.7,3.5,-2.7c1,0,1.8,1.3,2.7,2.7c.9,1.4,1.8,2.7,2.8,2.7c.9,0,1.8,-1.3,2.7,-2.7c.9,-1.4,1.7,-2.7,2.7,-2.7c1,0,1.9,1.3,2.8,2.7c.9,1.4,1.7,2.7,2.7,2.7c1,0,1.9,-1.3,2.8,-2.7c.8,-1.4,1.7,-2.7,2.7,-2.7c1,0,1.8,1.3,2.7,2.7c.9,1.4,1.8,2.7,2.8,2.7c1,0,1.8,-1.3,2.7,-2.7c.9,-1.4,1.8,-2.7,2.8,-2.7c.9,0,1.8,1.3,2.7,2.7c.9,1.4,1.7,2.7,2.7,2.7c1,0,1.9,-1.3,2.8,-2.7c.9,-1.4,1.7,-2.7,2.7,-2.7c1,0,1.9,1.3,2.7,2.7c.9,1.4,1.8,2.7,2.8,2.7c1,0,1.8,-1.3,2.7,-2.7c.9,-1.4,1.8,-2.7,2.8,-2.7c1.3,0,2,2.7,3.4,2.7h1" class="g6_3"/>
<path d="M682.2,728.5L666.9,714.2m0,14.3l15.3,-14.3" class="g7_3"/>
<path d="M303.6,763.7V734.4m0,58.5V763.7m0,104.9V792.9" class="g1_3"/>
<path d="M381.2,860.8V800.7c0,-2.9,2.3,-5.2,5.2,-5.2H657.5c2.9,0,5.2,2.3,5.2,5.2v60.1c0,2.9,-2.3,5.2,-5.2,5.2H386.4c-2.9,0,-5.2,-2.3,-5.2,-5.2Z" class="g8_3"/>
<path d="M473.1,891.8h97.8V875.1H473.1v16.7Z" class="g0_3"/>
<path d="M407.2,850.4H636.8V811.1H407.2v39.3Z" class="g0_3"/>
<path d="M303.6,897.8V868.6m0,58.5V897.8M116.9,927.4H714.7" class="g1_3"/>
</svg>