<?xml version="1.0" encoding="UTF-8" standalone="no"?>
<!DOCTYPE svg PUBLIC "-//W3C//DTD SVG 1.1//EN"
"http://www.w3.org/Graphics/SVG/1.1/DTD/svg11.dtd">
<svg viewBox="0 0 1286 909" version="1.1" xmlns="http://www.w3.org/2000/svg" xmlns:xlink="http://www.w3.org/1999/xlink">
<defs>
<style type="text/css"><![CDATA[
.g0_149{
fill: none;
stroke: #000000;
stroke-width: 0.73;
stroke-linecap: butt;
stroke-linejoin: miter;
}
.g1_149{
fill: none;
stroke: #02B5EE;
stroke-width: 1.262;
stroke-linecap: butt;
stroke-linejoin: miter;
}
.g2_149{
fill: none;
stroke: #02B5EE;
stroke-width: 0.73;
stroke-linecap: butt;
stroke-linejoin: miter;
}
]]></style>
</defs>
<path d="M193,83.4h900.3M193,210.6h865.9m-865.9,0h865.9M626,240.2V211m0,58.5V240.2m0,114.3v-85" class="g0_149"/>
<path d="M662.5,330.5h35.8" class="g1_149"/>
<path d="M626,383.7V354.5m0,102.3V383.7" class="g0_149"/>
<path d="M1014.2,442.9H1048" class="g2_149"/>
<path d="M626,486V456.8m0,58.4V486m0,114.2v-85" class="g0_149"/>
<path d="M654.3,576.2h44" class="g1_149"/>
<path d="M626,629.5V600.2m0,102.3v-73" class="g0_149"/>
<path d="M963.5,688.6H1048" class="g2_149"/>
<path d="M626,731.7V702.5m0,58.5V731.7M193,761.3h865.9m-865.9,0h865.9" class="g0_149"/>
</svg>