<?xml version="1.0" encoding="UTF-8" standalone="no"?>
<!DOCTYPE svg PUBLIC "-//W3C//DTD SVG 1.1//EN"
"http://www.w3.org/Graphics/SVG/1.1/DTD/svg11.dtd">
<svg viewBox="0 0 1286 909" version="1.1" xmlns="http://www.w3.org/2000/svg" xmlns:xlink="http://www.w3.org/1999/xlink">
<defs>
<style type="text/css"><![CDATA[
.g0_271{
fill: none;
stroke: #000000;
stroke-width: 0.73;
stroke-linecap: butt;
stroke-linejoin: miter;
}
.g1_271{
fill: #B3E9FA;
}
.g2_271{
fill: none;
stroke: #02B5EE;
stroke-width: 1.262;
stroke-linecap: butt;
stroke-linejoin: miter;
}
.g3_271{
fill: none;
stroke: #5EE200;
stroke-width: 1.262;
stroke-linecap: butt;
stroke-linejoin: miter;
}
.g4_271{
fill: none;
stroke: #FFA313;
stroke-width: 1.262;
stroke-linecap: butt;
stroke-linejoin: miter;
}
]]></style>
</defs>
<path d="M193,83.4h900.3M193,111.6H926.8m-733.8,0H926.8M601.6,141.2V112m0,114.3V141.2" class="g0_271"/>
<path d="M686.5,176.5V164.3c0,-2.9,2.3,-5.2,5.2,-5.2H807.6c2.8,0,5.2,2.3,5.2,5.2v12.2c0,2.9,-2.4,5.2,-5.2,5.2H691.7c-2.9,0,-5.2,-2.3,-5.2,-5.2Z" class="g1_271"/>
<path d="M683.9,202.3H815.4" class="g2_271"/>
<path d="M825.9,202.3h90" class="g3_271"/>
<path d="M601.6,255.5V226.3m0,58.4V255.5m0,114.2v-85" class="g0_271"/>
<path d="M722.3,320V307.8c0,-2.9,2.3,-5.2,5.2,-5.2h94.2c2.9,0,5.2,2.3,5.2,5.2V320c0,2.8,-2.3,5.2,-5.2,5.2H727.5c-2.9,0,-5.2,-2.4,-5.2,-5.2Z" class="g1_271"/>
<path d="M719.7,345.7H829.5" class="g2_271"/>
<path d="M840,345.7h75.9" class="g4_271"/>
<path d="M601.6,399V369.7m0,58.5V399m0,114.2v-85" class="g0_271"/>
<path d="M615.1,463.4V451.2c0,-2.8,2.3,-5.2,5.2,-5.2H695c2.9,0,5.2,2.4,5.2,5.2v12.2c0,2.9,-2.3,5.2,-5.2,5.2H620.3c-2.9,0,-5.2,-2.3,-5.2,-5.2Z" class="g1_271"/>
<path d="M612.5,489.2h90.3" class="g2_271"/>
<path d="M713.3,489.2H915.9" class="g3_271"/>
<path d="M601.6,542.4V513.2m0,58.5V542.4m0,114.3v-85" class="g0_271"/>
<path d="M647.3,632.7h70" class="g2_271"/>
<path d="M727.8,632.7H915.9" class="g3_271"/>
<path d="M601.6,685.9V656.7m0,58.4V685.9M193,715.5H926.8m-733.8,0H926.8" class="g0_271"/>
</svg>