<?xml version="1.0" encoding="UTF-8" standalone="no"?>
<!DOCTYPE svg PUBLIC "-//W3C//DTD SVG 1.1//EN"
"http://www.w3.org/Graphics/SVG/1.1/DTD/svg11.dtd">
<svg viewBox="0 0 1286 909" version="1.1" xmlns="http://www.w3.org/2000/svg" xmlns:xlink="http://www.w3.org/1999/xlink">
<defs>
<style type="text/css"><![CDATA[
.g0_733{
fill: none;
stroke: #000000;
stroke-width: 0.73;
stroke-linecap: butt;
stroke-linejoin: miter;
}
.g1_733{
fill: none;
stroke: #02B5EE;
stroke-width: 1.262;
stroke-linecap: butt;
stroke-linejoin: miter;
}
.g2_733{
fill: #FFCCCC;
}
.g3_733{
fill: none;
stroke: #02B5EE;
stroke-width: 0.73;
stroke-linecap: butt;
stroke-linejoin: miter;
}
.g4_733{
fill: none;
stroke: #5EE200;
stroke-width: 0.73;
stroke-linecap: butt;
stroke-linejoin: miter;
}
]]></style>
</defs>
<path d="M193,83.4h900.3M193,111.6H773.4m-580.4,0H773.4M381.7,141.2V112m0,58.5V141.2m0,58.5V170.5m0,114.2v-85" class="g0_733"/>
<path d="M493.4,260.7h59.2" class="g1_733"/>
<path d="M670,249h92.5V216.1H670V249Z" class="g2_733"/>
<path d="M381.7,313.9V284.7m0,102.3V313.9" class="g0_733"/>
<path d="M438,373.1h34.3" class="g3_733"/>
<path d="M478.4,373.1h60.1" class="g4_733"/>
<path d="M670.6,363.2h58.1V330.4H670.6v32.8Z" class="g2_733"/>
<path d="M381.7,460.1V387" class="g0_733"/>
<path d="M485.3,436.3h57.6V403.4H485.3v32.9Z" class="g2_733"/>
<path d="M542.9,446.2h84.5" class="g4_733"/>
<path d="M711.8,446.2h50.7" class="g3_733"/>
<path d="M381.7,489.3V460.1M193,489.6H773.4m-580.4,0H773.4" class="g0_733"/>
</svg>