<?xml version="1.0" encoding="UTF-8" standalone="no"?>
<!DOCTYPE svg PUBLIC "-//W3C//DTD SVG 1.1//EN"
"http://www.w3.org/Graphics/SVG/1.1/DTD/svg11.dtd">
<svg viewBox="0 0 1286 909" version="1.1" xmlns="http://www.w3.org/2000/svg" xmlns:xlink="http://www.w3.org/1999/xlink">
<defs>
<style type="text/css"><![CDATA[
.g0_81{
fill: none;
stroke: #000000;
stroke-width: 0.73;
stroke-linecap: butt;
stroke-linejoin: miter;
}
.g1_81{
fill: #B3E9FA;
}
.g2_81{
fill: none;
stroke: #02B5EE;
stroke-width: 1.262;
stroke-linecap: butt;
stroke-linejoin: miter;
}
.g3_81{
fill: none;
stroke: #5EE200;
stroke-width: 1.262;
stroke-linecap: butt;
stroke-linejoin: miter;
}
]]></style>
</defs>
<path d="M193,83.4h900.3M193,111.6H781.3m-588.3,0H781.3M505.7,141.2V112m0,114.3V141.2" class="g0_81"/>
<path d="M561.4,176.5V164.3c0,-2.9,2.4,-5.2,5.2,-5.2h73.7c2.9,0,5.2,2.3,5.2,5.2v12.2c0,2.9,-2.3,5.2,-5.2,5.2H566.6c-2.8,0,-5.2,-2.3,-5.2,-5.2Z" class="g1_81"/>
<path d="M558.8,202.3h89.3" class="g2_81"/>
<path d="M658.6,202.3H770.3" class="g3_81"/>
<path d="M505.7,255.5V226.3M193,255.9H781.3m-588.3,0H781.3" class="g0_81"/>
</svg>