<?xml version="1.0" encoding="UTF-8" standalone="no"?>
<!DOCTYPE svg PUBLIC "-//W3C//DTD SVG 1.1//EN"
"http://www.w3.org/Graphics/SVG/1.1/DTD/svg11.dtd">
<svg viewBox="0 0 1286 909" version="1.1" xmlns="http://www.w3.org/2000/svg" xmlns:xlink="http://www.w3.org/1999/xlink">
<defs>
<style type="text/css"><![CDATA[
.g0_933{
fill: none;
stroke: #000000;
stroke-width: 0.73;
stroke-linecap: butt;
stroke-linejoin: miter;
}
.g1_933{
fill: none;
stroke: #02B5EE;
stroke-width: 1.262;
stroke-linecap: butt;
stroke-linejoin: miter;
}
.g2_933{
fill: none;
stroke: #FFA313;
stroke-width: 1.262;
stroke-linecap: butt;
stroke-linejoin: miter;
}
.g3_933{
fill: none;
stroke: #FFA313;
stroke-width: 0.73;
stroke-linecap: butt;
stroke-linejoin: miter;
}
.g4_933{
fill: none;
stroke: #02B5EE;
stroke-width: 0.73;
stroke-linecap: butt;
stroke-linejoin: miter;
}
]]></style>
</defs>
<path d="M193,83.4h900.3M193,210.6H878.1m-685.1,0H878.1M476.6,240.2V211m0,58.5V240.2m0,60.1V269.5m0,60V300.3m0,58.4V329.5m0,60.1V358.7m0,60.1V389.6m0,58.4V418.8m0,114.3V448" class="g0_933"/>
<path d="M585.7,509.1h34.6" class="g1_933"/>
<path d="M630.8,509.1h79.7" class="g2_933"/>
<path d="M476.6,562.3V533.1m0,102.2v-73" class="g0_933"/>
<path d="M726,621.5H827.3" class="g3_933"/>
<path d="M833.4,621.5h33.8" class="g4_933"/>
<path d="M476.6,666.7V635.3m0,60.6V666.7m0,58.4V695.9m0,58.4V725.1M193,754.7H878.1m-685.1,0H878.1" class="g0_933"/>
</svg>