<?xml version="1.0" encoding="UTF-8" standalone="no"?>
<!DOCTYPE svg PUBLIC "-//W3C//DTD SVG 1.1//EN"
"http://www.w3.org/Graphics/SVG/1.1/DTD/svg11.dtd">
<svg viewBox="0 0 909 1286" version="1.1" xmlns="http://www.w3.org/2000/svg" xmlns:xlink="http://www.w3.org/1999/xlink">
<defs>
<style type="text/css"><![CDATA[
.g0_60{
fill: none;
stroke: #000000;
stroke-width: 0.73;
stroke-linecap: butt;
stroke-linejoin: miter;
}
.g1_60{
fill: none;
stroke: #8007AC;
stroke-width: 0.66;
stroke-linecap: butt;
stroke-linejoin: round;
stroke-miterlimit: 1;
}
]]></style>
</defs>
<path d="M184.9,264.3V179.5m25.5,9.2h81.2m-80.8,27.8V188.7m80.4,27.8V188.7m-80.8,27.8h81.2m65.9,-27.8h77.7m-77.4,27.8V188.7m77.1,27.8V188.7m-77.4,27.8h77.7m57.3,-27.8h84.6m-84.3,27.8V188.7m83.9,27.8V188.7m-84.2,27.8h84.6M690.9,188.7h81.2m-80.9,27.8V188.7m80.5,27.8V188.7m-80.8,27.8h81.2M184.9,329.9V264.3m208.5,9.2h81.2m-80.9,27.8V273.5m80.5,27.8V273.5m-80.8,27.8h81.2m65.8,-27.8h77.8m-77.4,27.8V273.5m77,27.8V273.5m-77.4,27.8h77.8M184.9,415.9v-86m0,156.3V415.9m0,139.7V486.2m0,113.4v-44m0,102.7V599.6m90.3,2.3h77.7m-77.4,27.8V601.9m77.1,27.8V601.9m-77.4,27.8h77.7m57.3,-27.8h84.6m-84.3,27.8V601.9m83.9,27.8V601.9m-84.2,27.8h84.6m-309.9,98V658.3m0,113.4v-44m0,109.6V771.7m56.5,9.2H326m-84.3,27.8V780.9m83.9,27.8V780.9m-84.2,27.8H326M439.8,780.9H521m-80.8,27.8V780.9m80.4,27.8V780.9m-80.8,27.8H521m-336.1,110V837.3m0,150.8V918.7m0,99.7V988.1m0,79.6v-49.3" class="g0_60"/>
<path d="M517.3,1040.4l99.5,-16.5m-3.6,16.5l99.5,-16.5" class="g1_60"/>
<path d="M184.9,1098.1v-30.4m0,69.8v-39.4" class="g0_60"/>
</svg>