<?xml version="1.0" encoding="UTF-8" standalone="no"?>
<!DOCTYPE svg PUBLIC "-//W3C//DTD SVG 1.1//EN"
"http://www.w3.org/Graphics/SVG/1.1/DTD/svg11.dtd">
<svg viewBox="0 0 1286 909" version="1.1" xmlns="http://www.w3.org/2000/svg" xmlns:xlink="http://www.w3.org/1999/xlink">
<defs>
<style type="text/css"><![CDATA[
.g0_84{
fill: none;
stroke: #000000;
stroke-width: 0.73;
stroke-linecap: butt;
stroke-linejoin: miter;
}
.g1_84{
fill: #B3E9FA;
}
.g2_84{
fill: none;
stroke: #02B5EE;
stroke-width: 1.262;
stroke-linecap: butt;
stroke-linejoin: miter;
}
.g3_84{
fill: none;
stroke: #5EE200;
stroke-width: 1.262;
stroke-linecap: butt;
stroke-linejoin: miter;
}
]]></style>
</defs>
<path d="M193,83.4h900.3M193,111.6H992.7m-799.7,0H992.7M609.4,141.2V112m0,114.3V141.2" class="g0_84"/>
<path d="M698.5,176.5v-5c0,-2.8,2.4,-5.2,5.2,-5.2h52.2c2.9,0,5.2,2.4,5.2,5.2v5c0,2.9,-2.3,5.2,-5.2,5.2H703.7c-2.8,0,-5.2,-2.3,-5.2,-5.2Z" class="g1_84"/>
<path d="M695.9,202.3h67.8" class="g2_84"/>
<path d="M774.2,202.3H981.8" class="g3_84"/>
<path d="M609.4,255.5V226.3m0,58.4V255.5m0,114.2v-85" class="g0_84"/>
<path d="M688.5,320V307.8c0,-2.9,2.3,-5.2,5.2,-5.2H801.9c2.9,0,5.2,2.3,5.2,5.2V320c0,2.8,-2.3,5.2,-5.2,5.2H693.7c-2.9,0,-5.2,-2.4,-5.2,-5.2Z" class="g1_84"/>
<path d="M685.9,345.7H809.7" class="g2_84"/>
<path d="M820.2,345.7H981.8" class="g3_84"/>
<path d="M609.4,399V369.7m0,58.5V399m0,114.2v-85" class="g0_84"/>
<path d="M628.9,463.4V451.2c0,-2.8,2.4,-5.2,5.2,-5.2H734.5c2.9,0,5.2,2.4,5.2,5.2v12.2c0,2.9,-2.3,5.2,-5.2,5.2H634.1c-2.8,0,-5.2,-2.3,-5.2,-5.2Z" class="g1_84"/>
<path d="M626.3,489.2h116" class="g2_84"/>
<path d="M752.8,489.2h229" class="g3_84"/>
<path d="M609.4,542.4V513.2M193,542.8H992.7m-799.7,0H992.7" class="g0_84"/>
</svg>