<?xml version="1.0" encoding="UTF-8" standalone="no"?>
<!DOCTYPE svg PUBLIC "-//W3C//DTD SVG 1.1//EN"
"http://www.w3.org/Graphics/SVG/1.1/DTD/svg11.dtd">
<svg viewBox="0 0 1286 909" version="1.1" xmlns="http://www.w3.org/2000/svg" xmlns:xlink="http://www.w3.org/1999/xlink">
<defs>
<style type="text/css"><![CDATA[
.g0_802{
fill: none;
stroke: #000000;
stroke-width: 0.73;
stroke-linecap: butt;
stroke-linejoin: miter;
}
.g1_802{
fill: #B3E9FA;
}
.g2_802{
fill: none;
stroke: #02B5EE;
stroke-width: 1.262;
stroke-linecap: butt;
stroke-linejoin: miter;
}
.g3_802{
fill: none;
stroke: #5EE200;
stroke-width: 1.262;
stroke-linecap: butt;
stroke-linejoin: miter;
}
.g4_802{
fill: none;
stroke: #5EE200;
stroke-width: 0.73;
stroke-linecap: butt;
stroke-linejoin: miter;
}
.g5_802{
fill: none;
stroke: #02B5EE;
stroke-width: 0.73;
stroke-linecap: butt;
stroke-linejoin: miter;
}
]]></style>
</defs>
<path d="M193,83.4h900.3M193,210.6H795.5m-602.5,0H795.5M525.9,240.2V211m0,58.5V240.2m0,114.3v-85" class="g0_802"/>
<path d="M539.5,304.7v-5c0,-2.8,2.3,-5.2,5.2,-5.2H665.1c2.9,0,5.2,2.4,5.2,5.2v5c0,2.9,-2.3,5.2,-5.2,5.2H544.7c-2.9,0,-5.2,-2.3,-5.2,-5.2Z" class="g1_802"/>
<path d="M536.9,330.5h136" class="g2_802"/>
<path d="M683.4,330.5H784.5" class="g3_802"/>
<path d="M525.9,383.7V354.5m0,58.4V383.7m0,114.3V412.9" class="g0_802"/>
<path d="M598,474h48.8" class="g2_802"/>
<path d="M762.1,474h22.4" class="g3_802"/>
<path d="M525.9,527.2V498m0,102.2v-73" class="g0_802"/>
<path d="M565.3,586.4h34.5" class="g4_802"/>
<path d="M599.8,586.4h33.8" class="g5_802"/>
<path d="M525.9,629.5V600.2M193,629.8H795.5m-602.5,0H795.5" class="g0_802"/>
</svg>