<?xml version="1.0" encoding="UTF-8" standalone="no"?>
<!DOCTYPE svg PUBLIC "-//W3C//DTD SVG 1.1//EN"
"http://www.w3.org/Graphics/SVG/1.1/DTD/svg11.dtd">
<svg viewBox="0 0 1286 909" version="1.1" xmlns="http://www.w3.org/2000/svg" xmlns:xlink="http://www.w3.org/1999/xlink">
<defs>
<style type="text/css"><![CDATA[
.g0_1217{
fill: none;
stroke: #000000;
stroke-width: 0.73;
stroke-linecap: butt;
stroke-linejoin: miter;
}
.g1_1217{
fill: none;
stroke: #000000;
stroke-width: 0.657;
stroke-linecap: butt;
stroke-linejoin: miter;
}
.g2_1217{
fill: #FDE8E9;
}
]]></style>
</defs>
<path d="M193,83.4h900.3" class="g0_1217"/>
<path d="M202.8,109.5H500.2M202.8,136.1V109.8m140.1,26.3V109.8m157.3,26.3V109.8M202.8,167.3V136.1m140.1,31.2V136.1" class="g1_1217"/>
<path d="M352.8,167.3h88.3V136.1H352.8v31.2Z" class="g2_1217"/>
<path d="M500.2,167.3V136.1M202.8,193.6V167.3m140.1,26.3V167.3m157.3,26.3V167.3M202.8,219.9V193.6m140.1,26.3V193.6m157.3,26.3V193.6M202.8,251V219.9M342.9,251V219.9" class="g1_1217"/>
<path d="M352.8,251H485.4V219.9H352.8V251Z" class="g2_1217"/>
<path d="M500.2,251V219.9M202.8,277.3V251m140.1,26.3V251m157.3,26.3V251M202.8,303.6V277.3m140.1,26.3V277.3m157.3,26.3V277.3M202.8,333V303.6M342.9,333V303.6" class="g1_1217"/>
<path d="M352.8,330.1h43.7V303.6H352.8v26.5Z" class="g2_1217"/>
<path d="M500.2,333V303.6M202.8,359.3V333m140.1,26.3V333m157.3,26.3V333M202.8,385.6V359.3m140.1,26.3V359.3m157.3,26.3V359.3M202.8,415V385.6M342.9,415V385.6" class="g1_1217"/>
<path d="M352.8,412h61.1V385.6H352.8V412Z" class="g2_1217"/>
<path d="M500.2,415V385.6M202.8,441.3V415m140.1,26.3V415m157.3,26.3V415M202.8,467.6V441.3m140.1,26.3V441.3m157.3,26.3V441.3M202.8,498.8V467.6m140.1,31.2V467.6" class="g1_1217"/>
<path d="M352.8,498.8H490.4V467.6H352.8v31.2Z" class="g2_1217"/>
<path d="M500.2,498.8V467.6M202.8,525.1V498.8m140.1,26.3V498.8m157.3,26.3V498.8M202.8,551.4V525.1m140.1,26.3V525.1m157.3,26.3V525.1M202.8,580.7V551.4m140.1,29.3V551.4" class="g1_1217"/>
<path d="M352.8,577.8h90.9V551.4H352.8v26.4Z" class="g2_1217"/>
<path d="M500.2,580.7V551.4M202.8,607V580.7M342.9,607V580.7M500.2,607V580.7M202.8,633.3V607m140.1,26.3V607m157.3,26.3V607M202.8,662.7V633.3m140.1,29.4V633.3" class="g1_1217"/>
<path d="M352.8,659.8h90.9V633.3H352.8v26.5Z" class="g2_1217"/>
<path d="M500.2,662.7V633.3M202.8,689V662.7M342.9,689V662.7M500.2,689V662.7M202.8,715.3V689m140.1,26.3V689m157.3,26.3V689M202.8,744.7V715.3m140.1,29.4V715.3" class="g1_1217"/>
<path d="M352.8,741.7h137V715.3h-137v26.4Z" class="g2_1217"/>
<path d="M500.2,744.7V715.3M202.8,771V744.7M342.9,771V744.7M500.2,771V744.7M202.8,771.3H500.2M520,110.6H775.3M520,137.2V110.9m140.1,26.3V110.9m115.2,26.3V110.9M520,166.6V137.2m140.1,29.4V137.2" class="g1_1217"/>
<path d="M669.9,163.7h95.6V137.2H669.9v26.5Z" class="g2_1217"/>
<path d="M775.3,166.6V137.2M520,192.9V166.6m140.1,26.3V166.6m115.2,26.3V166.6M520,219.2V192.9m140.1,26.3V192.9m115.2,26.3V192.9M520,248.1V219.2m140.1,28.9V219.2" class="g1_1217"/>
<path d="M669.9,248.1h92.7V222.4H669.9v25.7Z" class="g2_1217"/>
<path d="M775.3,248.1V219.2M520,274.4V248.1m140.1,26.3V248.1m115.2,26.3V248.1M520,300.7V274.4m140.1,26.3V274.4m115.2,26.3V274.4M520,330.1V300.7m140.1,29.4V300.7" class="g1_1217"/>
<path d="M669.9,327.2h66.6V300.7H669.9v26.5Z" class="g2_1217"/>
<path d="M775.3,330.1V300.7M520,356.4V330.1m140.1,26.3V330.1m115.2,26.3V330.1M520,382.7V356.4m140.1,26.3V356.4m115.2,26.3V356.4M520,413.9V382.7m140.1,31.2V382.7" class="g1_1217"/>
<path d="M669.9,413.9h85.8V382.7H669.9v31.2Z" class="g2_1217"/>
<path d="M775.3,413.9V382.7M520,440.2V413.9m140.1,26.3V413.9m115.2,26.3V413.9M520,466.5V440.2m140.1,26.3V440.2m115.2,26.3V440.2M520,495.9V466.5m140.1,29.4V466.5" class="g1_1217"/>
<path d="M669.9,492.9H763V466.5H669.9v26.4Z" class="g2_1217"/>
<path d="M775.3,495.9V466.5M520,522.2V495.9m140.1,26.3V495.9m115.2,26.3V495.9M520,548.5V522.2m140.1,26.3V522.2m115.2,26.3V522.2M520,577.8V548.5m140.1,29.3V548.5" class="g1_1217"/>
<path d="M669.9,574.9h40.2V548.5H669.9v26.4Z" class="g2_1217"/>
<path d="M775.3,577.8V548.5M520,604.1V577.8m140.1,26.3V577.8m115.2,26.3V577.8M520,630.5V604.1m140.1,26.4V604.1m115.2,26.4V604.1M520,661.6V630.5m140.1,31.1V630.5" class="g1_1217"/>
<path d="M669.9,661.6H745V630.5H669.9v31.1Z" class="g2_1217"/>
<path d="M775.3,661.6V630.5M520,687.9V661.6m140.1,26.3V661.6m115.2,26.3V661.6M520,714.2V687.9m140.1,26.3V687.9m115.2,26.3V687.9M520,743.6V714.2m140.1,29.4V714.2" class="g1_1217"/>
<path d="M669.9,740.6h60.5V714.2H669.9v26.4Z" class="g2_1217"/>
<path d="M775.3,743.6V714.2M520,769.9V743.6m140.1,26.3V743.6m115.2,26.3V743.6M520,770.2H775.3M795,113.7h274.2M795,140.3V114m140.2,26.3V114m134,26.3V114M795,171.5V140.3m140.2,31.2V140.3" class="g1_1217"/>
<path d="M945,171.5h75.1V140.3H945v31.2Z" class="g2_1217"/>
<path d="M1069.2,171.5V140.3M795,197.8V171.5m140.2,26.3V171.5m134,26.3V171.5M795,224.1V197.8m140.2,26.3V197.8m134,26.3V197.8M795,251.3V224.1m140.2,27.2V224.1" class="g1_1217"/>
<path d="M945,248.3h95.7v-21H945v21Z" class="g2_1217"/>
<path d="M1069.2,251.3V224.1M795,277.6V251.3m140.2,26.3V251.3m134,26.3V251.3M795,303.9V277.6m140.2,26.3V277.6m134,26.3V277.6M795,333.2V303.9m140.2,29.3V303.9" class="g1_1217"/>
<path d="M945,330.3h56.8V303.9H945v26.4Z" class="g2_1217"/>
<path d="M1069.2,333.2V303.9M795,359.5V333.2m140.2,26.3V333.2m134,26.3V333.2M795,385.8V359.5m140.2,26.3V359.5m134,26.3V359.5M795,415.2V385.8m140.2,29.4V385.8" class="g1_1217"/>
<path d="M945,412.3h77.3V385.8H945v26.5Z" class="g2_1217"/>
<path d="M1069.2,415.2V385.8M795,441.5V415.2m140.2,26.3V415.2m134,26.3V415.2M795,467.8V441.5m140.2,26.3V441.5m134,26.3V441.5M795,497.2V467.8m140.2,29.4V467.8" class="g1_1217"/>
<path d="M945,494.2h77.3V467.8H945v26.4Z" class="g2_1217"/>
<path d="M1069.2,497.2V467.8M795,523.5V497.2m140.2,26.3V497.2m134,26.3V497.2M795,549.8V523.5m140.2,26.3V523.5m134,26.3V523.5M795,577V549.8M935.2,577V549.8" class="g1_1217"/>
<path d="M945,574h114.3V553H945v21Z" class="g2_1217"/>
<path d="M1069.2,577V549.8M795,603.3V577m140.2,26.3V577m134,26.3V577M795,629.6V603.3m140.2,26.3V603.3m134,26.3V603.3M795,656.7V629.6m140.2,27.1V629.6" class="g1_1217"/>
<path d="M945,653.8h103.9v-21H945v21Z" class="g2_1217"/>
<path d="M1069.2,656.7V629.6M795,683V656.7M935.2,683V656.7m134,26.3V656.7M795,709.3V683m140.2,26.3V683m134,26.3V683M795,740.5V709.3m140.2,31.2V709.3" class="g1_1217"/>
<path d="M945,740.5h94.4V709.3H945v31.2Z" class="g2_1217"/>
<path d="M1069.2,740.5V709.3M795,766.8V740.5m140.2,26.3V740.5m134,26.3V740.5M795,767.1h274.2" class="g1_1217"/>
</svg>