<?xml version="1.0" encoding="UTF-8" standalone="no"?>
<!DOCTYPE svg PUBLIC "-//W3C//DTD SVG 1.1//EN"
"http://www.w3.org/Graphics/SVG/1.1/DTD/svg11.dtd">
<svg viewBox="0 0 909 1286" version="1.1" xmlns="http://www.w3.org/2000/svg" xmlns:xlink="http://www.w3.org/1999/xlink">
<defs>
<style type="text/css"><![CDATA[
.g0_38{
fill: none;
stroke: #000000;
stroke-width: 0.73;
stroke-linecap: butt;
stroke-linejoin: miter;
}
.g1_38{
fill: none;
stroke: #8007AC;
stroke-width: 0.73;
stroke-linecap: butt;
stroke-linejoin: miter;
}
.g2_38{
fill: none;
stroke: #02B5EE;
stroke-width: 0.73;
stroke-linecap: butt;
stroke-linejoin: miter;
}
.g3_38{
fill: none;
stroke: #F81693;
stroke-width: 0.73;
stroke-linecap: butt;
stroke-linejoin: miter;
}
.g4_38{
fill: none;
stroke: #8007AC;
stroke-width: 1.461;
stroke-linecap: butt;
stroke-linejoin: miter;
}
.g5_38{
fill: none;
stroke: #5EE200;
stroke-width: 0.73;
stroke-linecap: butt;
stroke-linejoin: miter;
}
.g6_38{
fill: none;
stroke: #7F7F7F;
stroke-width: 1.461;
stroke-linecap: butt;
stroke-linejoin: miter;
}
.g7_38{
fill: none;
stroke: #7F7F7F;
stroke-width: 1.461;
stroke-linecap: round;
stroke-linejoin: round;
}
]]></style>
</defs>
<path d="M116.9,179.9H717.6M334.7,209.5V180.3M198.6,234.9l25.2,-15m-38,15l-25.2,-15m-30.9,18.8L161,220.1m93.7,18.6l31.2,-18.6m-31.2,18.6L223.4,220.1m93.7,18.6L285.9,220.1M190,244.2v20.1m4.4,-20.1v20.1m140.3,27V209.5" class="g0_38"/>
<path d="M456.5,234.9l18.3,-11m-31,11l-25.3,-15" class="g1_38"/>
<path d="M387.7,238.7l31.2,-18.6" class="g2_38"/>
<path d="M519,234.9l18.3,-11m-31.1,11L488,223.9m80.7,11l-18.3,-11" class="g3_38"/>
<path d="M448,244.2v20.1m4.3,-20.1v20.1" class="g1_38"/>
<path d="M334.7,320.5V291.3m0,58.5V320.5" class="g0_38"/>
<path d="M400.6,348.3c1.3,0,2,-2.7,3.4,-2.7c1,0,1.8,1.3,2.7,2.7c.9,1.4,1.8,2.7,2.8,2.7c1,0,1.8,-1.3,2.7,-2.7c.9,-1.4,1.8,-2.7,2.8,-2.7c1.3,0,2,2.7,3.4,2.7h3.9" class="g4_38"/>
<path d="M334.7,379V349.8m0,58.4V379m0,111V408.2" class="g0_38"/>
<path d="M416.7,433.6l25.2,-15m-38,15l-25.2,-15" class="g3_38"/>
<path d="M347.8,437.4l31.3,-18.6" class="g2_38"/>
<path d="M472.8,437.4L504,418.8m-31.2,18.6L441.5,418.8m93.7,18.6L504,418.8" class="g5_38"/>
<path d="M408.1,442.9V463m4.4,-20.1V463" class="g3_38"/>
<path d="M334.7,519.3V490m0,58.5V519.3" class="g0_38"/>
<path d="M401.7,552.3H527.2" class="g6_38"/>
<path d="M523.2,546.6c.9,3.4,2.8,5,4.7,5.7c-1.9,.7,-3.8,2.3,-4.7,5.7" class="g7_38"/>
<path d="M334.7,577.7V548.5m0,58.4V577.7m0,111.1V606.9" class="g0_38"/>
<path d="M416.7,632.3l25.2,-15m-38,15l-25.2,-15" class="g3_38"/>
<path d="M347.8,636.2l31.3,-18.7" class="g2_38"/>
<path d="M472.8,636.2L504,617.5m-31.2,18.7L441.5,617.5m93.7,18.7L504,617.5" class="g5_38"/>
<path d="M408.1,641.6v20.1m4.4,-20.1v20.1" class="g1_38"/>
<path d="M334.7,718V688.8m0,60.3V718" class="g0_38"/>
<path d="M400.2,753.4h177" class="g6_38"/>
<path d="M573.3,747.7c.8,3.4,2.7,5,4.7,5.7c-2,.7,-3.9,2.3,-4.7,5.7" class="g7_38"/>
<path d="M334.7,778.3V749.1M116.9,778.7H717.6" class="g0_38"/>
</svg>