<?xml version="1.0" encoding="UTF-8" standalone="no"?>
<!DOCTYPE svg PUBLIC "-//W3C//DTD SVG 1.1//EN"
"http://www.w3.org/Graphics/SVG/1.1/DTD/svg11.dtd">
<svg viewBox="0 0 1286 909" version="1.1" xmlns="http://www.w3.org/2000/svg" xmlns:xlink="http://www.w3.org/1999/xlink">
<defs>
<style type="text/css"><![CDATA[
.g0_830{
fill: none;
stroke: #000000;
stroke-width: 0.73;
stroke-linecap: butt;
stroke-linejoin: miter;
}
.g1_830{
fill: none;
stroke: #02B5EE;
stroke-width: 1.262;
stroke-linecap: butt;
stroke-linejoin: miter;
}
.g2_830{
fill: none;
stroke: #02B5EE;
stroke-width: 0.73;
stroke-linecap: butt;
stroke-linejoin: miter;
}
.g3_830{
fill: none;
stroke: #5EE200;
stroke-width: 1.262;
stroke-linecap: butt;
stroke-linejoin: miter;
}
.g4_830{
fill: #FFCCCC;
}
.g5_830{
fill: none;
stroke: #5EE200;
stroke-width: 0.73;
stroke-linecap: butt;
stroke-linejoin: miter;
}
]]></style>
</defs>
<path d="M193,83.4h900.3M193,111.6H758m-565,0H758M430.3,141.2V112m0,58.5V141.2m0,58.5V170.5m0,114.2v-85" class="g0_830"/>
<path d="M441.3,260.7H617.6" class="g1_830"/>
<path d="M430.3,314.9V284.7m0,103.2v-73" class="g0_830"/>
<path d="M561.2,374.1H747" class="g2_830"/>
<path d="M430.3,417.2V387.9m0,58.5V417.2m0,114.2v-85" class="g0_830"/>
<path d="M462.1,507.4h57.1" class="g1_830"/>
<path d="M529.7,507.4H633.5" class="g3_830"/>
<path d="M654.5,495.7H747V462.8H654.5v32.9Z" class="g4_830"/>
<path d="M430.3,560.6V531.4m0,102.3V560.6" class="g0_830"/>
<path d="M531.4,619.8h84.4" class="g5_830"/>
<path d="M621.9,609.9h91.3V577.1H621.9v32.8Z" class="g4_830"/>
<path d="M713.2,619.8H747" class="g2_830"/>
<path d="M430.3,662.9V633.7m0,58.4V662.9m0,58.5V692.1M193,721.7H758m-565,0H758" class="g0_830"/>
</svg>