<?xml version="1.0" encoding="UTF-8" standalone="no"?>
<!DOCTYPE svg PUBLIC "-//W3C//DTD SVG 1.1//EN"
"http://www.w3.org/Graphics/SVG/1.1/DTD/svg11.dtd">
<svg viewBox="0 0 1286 909" version="1.1" xmlns="http://www.w3.org/2000/svg" xmlns:xlink="http://www.w3.org/1999/xlink">
<defs>
<style type="text/css"><![CDATA[
.g0_701{
fill: none;
stroke: #000000;
stroke-width: 0.73;
stroke-linecap: butt;
stroke-linejoin: miter;
}
.g1_701{
fill: none;
stroke: #02B5EE;
stroke-width: 1.262;
stroke-linecap: butt;
stroke-linejoin: miter;
}
.g2_701{
fill: none;
stroke: #FFA313;
stroke-width: 1.262;
stroke-linecap: butt;
stroke-linejoin: miter;
}
.g3_701{
fill: none;
stroke: #FFA313;
stroke-width: 0.73;
stroke-linecap: butt;
stroke-linejoin: miter;
}
.g4_701{
fill: none;
stroke: #02B5EE;
stroke-width: 0.73;
stroke-linecap: butt;
stroke-linejoin: miter;
}
]]></style>
</defs>
<path d="M193,83.4h900.3M193,210.6H791.7m-598.7,0H791.7M406,240.2V211m0,58.5V240.2m0,114.3v-85" class="g0_701"/>
<path d="M482,330.5h34.6" class="g1_701"/>
<path d="M527.1,330.5H780.7" class="g2_701"/>
<path d="M406,383.7V354.5m0,102.3V383.7" class="g0_701"/>
<path d="M416.9,442.9H662.5" class="g3_701"/>
<path d="M746.9,442.9h33.8" class="g4_701"/>
<path d="M406,486V456.8m0,58.4V486m0,114.2v-85" class="g0_701"/>
<path d="M439.6,576.2h34.6" class="g1_701"/>
<path d="M484.7,576.2H651.4" class="g2_701"/>
<path d="M406,629.5V600.2m0,102.3v-73" class="g0_701"/>
<path d="M622.6,688.6h67.6" class="g3_701"/>
<path d="M696.3,688.6h84.4" class="g4_701"/>
<path d="M406,731.7V702.5m0,58.5V731.7M193,761.3H791.7m-598.7,0H791.7" class="g0_701"/>
</svg>