<?xml version="1.0" encoding="UTF-8" standalone="no"?>
<!DOCTYPE svg PUBLIC "-//W3C//DTD SVG 1.1//EN"
"http://www.w3.org/Graphics/SVG/1.1/DTD/svg11.dtd">
<svg viewBox="0 0 1286 909" version="1.1" xmlns="http://www.w3.org/2000/svg" xmlns:xlink="http://www.w3.org/1999/xlink">
<defs>
<style type="text/css"><![CDATA[
.g0_910{
fill: none;
stroke: #000000;
stroke-width: 0.73;
stroke-linecap: butt;
stroke-linejoin: miter;
}
.g1_910{
fill: none;
stroke: #02B5EE;
stroke-width: 1.262;
stroke-linecap: butt;
stroke-linejoin: miter;
}
.g2_910{
fill: none;
stroke: #5EE200;
stroke-width: 1.262;
stroke-linecap: butt;
stroke-linejoin: miter;
}
.g3_910{
fill: none;
stroke: #5EE200;
stroke-width: 0.73;
stroke-linecap: butt;
stroke-linejoin: miter;
}
.g4_910{
fill: none;
stroke: #02B5EE;
stroke-width: 0.73;
stroke-linecap: butt;
stroke-linejoin: miter;
}
]]></style>
</defs>
<path d="M193,83.4h900.3M193,210.6H834.6m-641.6,0H834.6m-358,29.6V211m0,58.5V240.2m0,114.3v-85" class="g0_910"/>
<path d="M637.9,330.5H790.7" class="g1_910"/>
<path d="M801.2,330.5h22.5" class="g2_910"/>
<path d="M476.6,383.7V354.5m0,102.3V383.7" class="g0_910"/>
<path d="M487.6,442.9H522" class="g3_910"/>
<path d="M528.1,442.9H823.7" class="g4_910"/>
<path d="M476.6,486V456.8m0,58.4V486m0,59.4V515.2m0,115.2v-85" class="g0_910"/>
<path d="M617,606.4H748.1" class="g1_910"/>
<path d="M758.6,606.4h65.1" class="g2_910"/>
<path d="M476.6,659.6V630.4M193,660H834.6M193,660H834.6" class="g0_910"/>
</svg>