<?xml version="1.0" encoding="UTF-8" standalone="no"?>
<!DOCTYPE svg PUBLIC "-//W3C//DTD SVG 1.1//EN"
"http://www.w3.org/Graphics/SVG/1.1/DTD/svg11.dtd">
<svg viewBox="0 0 909 1286" version="1.1" xmlns="http://www.w3.org/2000/svg" xmlns:xlink="http://www.w3.org/1999/xlink">
<defs>
<style type="text/css"><![CDATA[
.g0_4{
fill: none;
stroke: #000000;
stroke-width: 0.73;
stroke-linecap: butt;
stroke-linejoin: miter;
}
.g1_4{
fill: #FFFFFF;
}
.g2_4{
fill: none;
stroke: #02B5EE;
stroke-width: 1.461;
stroke-linecap: butt;
stroke-linejoin: miter;
}
.g3_4{
fill: none;
stroke: #000000;
stroke-width: 0.547;
stroke-linecap: butt;
stroke-linejoin: miter;
}
]]></style>
</defs>
<path d="M209.4,284.2H700M473.8,313.8V284.5M304.9,361.3h36.5m0,0V324.7m-36.5,0h36.5m-36.5,36.6V324.7m30.5,31.8v-27m-24.5,27v-27m61.4,-23.6l31.2,18.6m0,36.8V324.7m-31.2,55.4l31.2,-18.7m-31.2,18.7L341.1,361.4m31.2,-55.5l-31.2,18.6m32.3,-10.9l23,13.7m-23,45.1l23,-13.7M273.7,305.9l31.2,18.6m-31.2,55.6l31.2,-18.7m-31.2,18.7L242.4,361.4m0,-.1V324.7m31.3,-18.8l-31.3,18.6m30.2,-10.9l-23,13.7m23,45.1l-23,-13.7m224.2,18.6V313.8" class="g0_4"/>
<path d="M520.7,364.2V326.9c0,-2.8,2.4,-5.2,5.2,-5.2H669.7c2.9,0,5.2,2.4,5.2,5.2v37.3c0,2.8,-2.3,5.2,-5.2,5.2H525.9c-2.8,0,-5.2,-2.4,-5.2,-5.2Z" class="g1_4"/>
<path d="M546.7,357.4c1.4,0,2.1,-2.7,3.4,-2.7c1,0,1.9,1.3,2.8,2.7c.9,1.4,1.7,2.8,2.7,2.8c1.4,0,2.1,-2.8,3.5,-2.8h3.1" class="g2_4"/>
<path d="M473.8,406.6V377.3M209.4,406.9H700M473.8,436.5V407.3M341.4,492l31.3,18.7m0,36.7V510.8m-31.3,55.4l31.3,-18.6m-31.3,18.6L310.2,547.6m0,-.2V510.8M341.4,492l-31.2,18.7m32.3,-11l23,13.7m-23,45.1l23,-13.7m-49.3,-2.2v-27m56.5,-78.9l31.2,18.6m0,36.7V455.5m-31.2,55.3l31.2,-18.6M341.4,492V455.5m31.3,-18.8l-31.3,18.6m30.2,-10.9l-23,13.7m49.3,29.2v-27m-25.2,87.1L403.9,566m0,36.7V566.2m-31.2,55.3l31.2,-18.6m-31.2,18.6L341.4,602.9m0,-.2V566.2M397.9,598V570.9m-26.3,43l-23,-13.7M279,492l31.2,18.7M279,566.2l31.2,-18.6M279,566.2L247.7,547.6m0,-.2V510.8M279,492l-31.3,18.7m30.2,-11l-23.1,13.7m23.1,45.1L254.8,544.8m219,64.9V436.5" class="g0_4"/>
<path d="M518.9,541.7V504.5c0,-2.9,2.4,-5.2,5.2,-5.2H671.5c2.9,0,5.2,2.3,5.2,5.2v37.2c0,2.9,-2.3,5.2,-5.2,5.2H524.1c-2.8,0,-5.2,-2.3,-5.2,-5.2Z" class="g1_4"/>
<path d="M544.9,535c1.4,0,2.1,-2.8,3.5,-2.8c.9,0,1.8,1.4,2.7,2.8c.9,1.4,1.7,2.7,2.7,2.7c1,0,1.9,-1.3,2.8,-2.7c.9,-1.4,1.7,-2.8,2.7,-2.8c1.4,0,2.1,2.8,3.4,2.8H564" class="g2_4"/>
<path d="M473.8,638.9V609.7M209.4,639.3H700M473.8,668.8V639.6" class="g0_4"/>
<path d="M291.8,810.5l29.1,29M294.6,809.3L322,836.8m-1.1,2.7l-20.6,35.6m0,0l20.6,35.6M303.5,875.1l19,32.9m-1.6,2.7H362m0,0l20.5,-35.6M360.4,908l19,-32.9m3.1,0L362,839.5m0,0H320.9m0,0H362m0,0l29,-29m-30.2,26.3l27.5,-27.5m2.7,1.2L426.6,831m0,0l35.6,-20.5m-35.6,17.3l32.9,-18.9m2.7,1.6V769.4m0,0L426.6,748.8m32.9,22.1L426.6,752m0,-3.2L391,769.4m0,0v41.1m0,0V769.4m0,0L362,740.3m26.3,30.2L360.8,743m1.2,-2.7l20.5,-35.6m0,0L362,669.1m17.4,35.6l-19,-32.8m1.6,-2.8H320.9m0,0l-20.6,35.6m22.2,-32.8l-19,32.8m-3.2,0l20.6,35.6m0,0H362m0,0H320.9m0,0l-29.1,29.1M322,743l-27.4,27.5m-2.8,-1.1L256.2,748.8m0,0l-35.6,20.6M256.2,752l-32.8,18.9m-2.8,-1.5v41.1m0,0L256.2,831M223.4,808.9l32.8,18.9m0,3.2l35.6,-20.5m0,0V769.4m0,0v41.1" class="g3_4"/>
<path d="M473.8,911V668.8" class="g0_4"/>
<path d="M509.2,824.5V787.3c0,-2.9,2.3,-5.2,5.2,-5.2H681.3c2.9,0,5.2,2.3,5.2,5.2v37.2c0,2.9,-2.3,5.2,-5.2,5.2H514.4c-2.9,0,-5.2,-2.3,-5.2,-5.2Z" class="g1_4"/>
<path d="M535.2,817.8c1.3,0,2,-2.8,3.4,-2.8c1,0,1.9,1.4,2.7,2.8c.9,1.4,1.8,2.7,2.8,2.7c1,0,1.8,-1.3,2.7,-2.7c.9,-1.4,1.8,-2.8,2.8,-2.8c1,0,1.8,1.4,2.7,2.8c.9,1.4,1.8,2.7,2.7,2.7c1,0,1.9,-1.3,2.8,-2.7c.9,-1.4,1.7,-2.8,2.7,-2.8c1,0,1.9,1.4,2.8,2.8c.9,1.4,1.7,2.7,2.7,2.7c1.4,0,2.1,-2.7,3.4,-2.7h4.3" class="g2_4"/>
<path d="M473.8,940.2V911M209.4,940.6H700" class="g0_4"/>
</svg>