<?xml version="1.0" encoding="UTF-8" standalone="no"?>
<!DOCTYPE svg PUBLIC "-//W3C//DTD SVG 1.1//EN"
"http://www.w3.org/Graphics/SVG/1.1/DTD/svg11.dtd">
<svg viewBox="0 0 909 1286" version="1.1" xmlns="http://www.w3.org/2000/svg" xmlns:xlink="http://www.w3.org/1999/xlink">
<defs>
<clipPath id="c0_15"><path d="M123.1,295.6V263.9h29.1v31.7Z"/></clipPath>
<clipPath id="c1_15"><path d="M122.1,296.1V263.4H153v32.7Z"/></clipPath>
<style type="text/css"><![CDATA[
.g0_15{
fill: none;
stroke: #000000;
stroke-width: 0.73;
stroke-linecap: butt;
stroke-linejoin: miter;
}
.g1_15{
fill: #FFFFFF;
}
.g2_15{
fill: none;
stroke: #000000;
stroke-width: 1.461;
stroke-linecap: butt;
stroke-linejoin: miter;
}
.g3_15{
}
.g4_15{
fill: none;
stroke: #000000;
stroke-width: 0.459;
stroke-linecap: butt;
stroke-linejoin: round;
}
.g5_15{
fill: none;
stroke: #000000;
stroke-width: 0.722;
stroke-linecap: round;
stroke-linejoin: miter;
}
.g6_15{
fill: none;
stroke: #000000;
stroke-width: 0.722;
stroke-linecap: round;
stroke-linejoin: round;
}
.g7_15{
fill: #D40000;
}
.g8_15{
fill: none;
stroke: #000000;
stroke-width: 0.578;
stroke-linecap: round;
stroke-linejoin: miter;
}
.g9_15{
fill: #E9C6AF;
}
.ga_15{
fill: none;
stroke: #695000;
stroke-width: 0.152;
stroke-linecap: round;
stroke-linejoin: round;
}
.gb_15{
fill: none;
stroke: #000000;
stroke-width: 1.515;
stroke-linecap: butt;
stroke-linejoin: miter;
}
.gc_15{
fill: none;
stroke: #000000;
stroke-width: 2.739;
stroke-linecap: butt;
stroke-linejoin: miter;
}
.gd_15{
fill: #CCCCCC;
}
.ge_15{
fill: #FFCCCC;
stroke: #F81693;
stroke-width: 0.684;
stroke-linecap: butt;
stroke-linejoin: miter;
}
.gf_15{
fill: #C6EAFA;
stroke: #02B5EE;
stroke-width: 0.684;
stroke-linecap: butt;
stroke-linejoin: miter;
}
.gg_15{
fill: #FFF7A4;
stroke: #FFA313;
stroke-width: 0.684;
stroke-linecap: butt;
stroke-linejoin: miter;
}
.gh_15{
fill: #DFF9CC;
stroke: #5EE200;
stroke-width: 0.684;
stroke-linecap: butt;
stroke-linejoin: miter;
}
.gi_15{
fill: #E6CDEE;
stroke: #8007AC;
stroke-width: 0.684;
stroke-linecap: butt;
stroke-linejoin: miter;
}
.gj_15{
fill: none;
stroke: #000000;
stroke-width: 0.821;
stroke-linecap: butt;
stroke-linejoin: miter;
}
.gk_15{
fill: none;
stroke: #000000;
stroke-width: 0.547;
stroke-linecap: butt;
stroke-linejoin: miter;
}
]]></style>
</defs>
<path d="M116.9,159.9H792.5" class="g0_15"/>
<path d="M117.7,499.2V257.1H791.8V499.2Z" class="g1_15"/>
<path d="M117.7,499.2V257.1H791.8V499.2Z" class="g2_15"/>
<path d="M336.9,426.5h50.4" class="gb_15"/>
<g clip-path="url(#c1_15)">
<path clip-path="url(#c0_15)" d="M126.4,289.3c0,0,1.5,-.9,1.2,-1.3c-.1,-.1,-.3,-.1,-.6,0c-1.6,.3,-5,2.1,-3.3,4.1c1.4,1.6,6.4,2.4,11.7,1.4c7.3,-1.5,13.5,-5.5,11.1,-8.3c-1.6,-2,-6.7,-2.2,-10.8,-2.2c-2.1,0,-6.6,-.1,-8,-1.7c-.6,-.7,-.5,-1.6,.1,-2.2c1,-.9,3.8,-1.4,4,-1.5c.7,-.1,2.5,-.4,4.6,-.4c1.1,.1,2.5,.1,3.2,1c.2,.2,.4,.6,.4,.7c0,0,0,.1,.1,.2c.1,.1,.4,.1,.5,.1c.5,-.1,1.5,-.6,2,-1.1c.3,-.2,.8,-.6,0,-1.5c-.9,-1.1,-2.3,-1.2,-4,-1.2c-2.3,0,-4.1,.3,-4.9,.5c-5.8,1.1,-11.1,4.6,-9,7c1.5,1.8,6.3,1.9,9,1.9c3.9,.1,8.4,.3,9.8,2c.6,.7,.9,1.9,-.4,2.9c-1.2,.9,-4,1.7,-5.8,2c-4.4,.9,-9.4,.2,-10.6,-1.2c0,-.1,-.5,-.6,-.3,-1.2Z" class="g3_15"/>
<path d="M131.5,291.7l-.2,-.2l.3,-4.6q.3,-5.6,.5,-6c.1,-.1,1.6,-2.2,3.3,-4.6c1.7,-2.3,4.3,-6,5.9,-8.2c1.5,-2.2,2.8,-4,2.9,-4c.4,0,.1,.4,-1.8,3.2c-1.2,1.6,-3.7,5.3,-5.7,8.1c-2,2.9,-3.6,5.2,-3.6,5.2c0,0,.5,.1,1,.2c2,.2,3.3,.5,4.5,1.2c.6,.3,1,.5,1.5,1.1c.8,.8,1.2,1.4,1.4,2.2c.1,.2,.1,.4,.2,.4c.1,0,.7,-.8,5.2,-7.5c2.4,-3.7,4.5,-6.8,4.6,-6.8c.2,-.3,.4,-.1,.2,.2c0,.1,-1.5,2.3,-3.2,5c-1.8,2.7,-3.8,5.7,-4.5,6.7c-1.5,2.4,-2.1,3.4,-2.3,3.8c-.2,.4,-.3,.4,-.9,.8c-.8,.3,-8.7,3.9,-8.9,3.9c-.1,.1,-.3,0,-.4,-.1Z" class="g3_15"/>
<path d="M135.2,289.7c2.2,-.9,4,-1.7,4.6,-2.1c.7,-.3,.7,-.4,.7,-1.4c-.2,-1.7,-1.4,-3,-3.6,-3.7c-1.2,-.4,-4.3,-.8,-4.4,-.6c0,0,-.1,1.4,-.2,3.1c-.1,1.7,-.2,3.3,-.2,3.6c-.1,1.2,.1,1.4,-.2,2.6c.1,.1,1.8,-.8,1.8,-.8c.1,0,.7,-.3,1.5,-.7Z" class="g3_15"/>
<path d="M131.5,291.7l-.2,-.2l.3,-4.6q.3,-5.6,.5,-6c.1,-.1,1.6,-2.2,3.3,-4.6c1.7,-2.3,4.3,-6,5.9,-8.2c1.5,-2.2,2.8,-4,2.9,-4c.4,0,.1,.4,-1.8,3.2c-1.2,1.6,-3.7,5.3,-5.7,8.1c-2,2.9,-3.6,5.2,-3.6,5.2c0,0,.5,.1,1,.2c2,.2,3.3,.5,4.5,1.2c.6,.3,1,.5,1.5,1.1c.8,.8,1.2,1.4,1.4,2.2c.1,.2,.1,.4,.2,.4c.1,0,.7,-.8,5.2,-7.5c2.4,-3.7,4.5,-6.8,4.6,-6.8c.2,-.3,.4,-.1,.2,.2c0,.1,-1.5,2.3,-3.2,5c-1.8,2.7,-3.8,5.7,-4.5,6.7c-1.5,2.4,-2.1,3.4,-2.3,3.8c-.2,.4,-.3,.4,-.9,.8c-.8,.3,-8.7,3.9,-8.9,3.9c-.1,.1,-.3,0,-.4,-.1Zm3.7,-2c2.2,-.9,4,-1.7,4.6,-2.1c.7,-.3,.7,-.4,.7,-1.4c-.2,-1.7,-1.4,-3,-3.6,-3.7c-1.2,-.4,-4.3,-.8,-4.4,-.6c0,0,-.1,1.4,-.2,3.1c-.1,1.7,-.2,3.3,-.2,3.6c-.1,1.2,.1,1.4,-.2,2.6c.1,.1,1.8,-.8,1.8,-.8c.1,0,.7,-.3,1.5,-.7Z" class="g4_15"/>
<path d="M135.3,281.1l11.2,-16m-8.2,17.1L149,266.5" class="g5_15"/>
<path d="M140.4,283.9l10,-14.4l.2,-.3" class="g6_15"/>
<path d="M134.1,280.7c-.4,0,-.8,-.1,-.9,-.1c0,-.1,2.5,-3.7,6.7,-9.6c1.9,-2.7,3.6,-5.2,3.8,-5.6c.2,-.3,.4,-.6,.5,-.6c.1,0,.7,.5,.9,.7c.1,.3,.1,.6,-.1,1.1c-.2,.5,-9.8,14.3,-9.9,14.3c-.1,0,-.5,-.1,-1,-.2Z" class="g7_15"/>
<path d="M137.6,281.5c-.2,-.1,-.8,-.3,-1.2,-.4l-.7,-.2l.3,-.3c.1,-.2,2.3,-3.4,4.8,-7l4.7,-6.7l.5,-.3c.9,-.4,1.6,-.4,2.1,.1l.3,.2l-5,7.4c-3.1,4.5,-5.1,7.4,-5.1,7.4c-.1,0,-.4,-.1,-.7,-.2Z" class="g7_15"/>
<path d="M140,282.9c-.2,-.2,-.6,-.5,-.8,-.6c-.2,-.2,-.3,-.3,-.3,-.4c0,0,9.4,-13.9,9.8,-14.5c.1,-.1,.5,.3,.8,.7c.3,.4,.3,.6,.4,1c0,.4,0,.6,-.1,.8c-.2,.3,-9.1,13.1,-9.2,13.3q-.2,.1,-.6,-.3Z" class="g7_15"/>
<path d="M141.6,285.6c0,-.1,-.1,-.4,-.1,-.6c-.1,-.2,-.3,-.6,-.4,-.8l-.3,-.4l4.7,-6.8c2.6,-3.8,4.8,-6.8,4.8,-6.8c.4,0,1,.7,1,1.1c0,.2,-.6,1.2,-1.9,3.1c-1.1,1.6,-3.1,4.6,-4.6,6.8c-3,4.4,-3.1,4.6,-3.2,4.4Z" class="g7_15"/>
<path d="M131.9,287.1c2.3,-.1,3.6,.7,4.1,2.3" class="g8_15"/>
<path d="M132,291c0,-.4,.1,-.5,.1,-1.4c0,-.7,0,-.9,0,-1.3c0,-.3,0,-.6,0,-.7l.1,-.2c.1,-.1,.6,0,.7,0c.4,0,.8,.1,1.1,.2c.2,.1,.4,.2,.6,.3c.2,.1,.3,.2,.4,.4c.3,.2,.4,.4,.6,.7c0,.2,.1,.5,.1,.5c0,0,-1.5,.7,-1.8,.8c-.1,0,-.2,.1,-.3,.1c-1.1,.6,-1.4,.7,-1.6,.7v.1Z" class="g3_15"/>
<path d="M136.2,288.9c-.6,-1.3,-1.8,-2,-3.4,-2.1l-.6,-.1v-.5c.1,-.2,.1,-1.2,.2,-2.2c0,-.9,.1,-1.8,.1,-1.9l.1,-.2h.7c.8,.1,2.3,.3,3.1,.5c1.7,.4,3.1,1.4,3.6,2.5c.4,.8,.6,2.1,.3,2.4c-.1,.1,-.8,.5,-2.5,1.2c-1.6,.8,-1.5,.7,-1.6,.4Z" class="g9_15"/>
<path d="M136.2,288.9c-.6,-1.3,-1.8,-2,-3.4,-2.1l-.6,-.1v-.5c.1,-.2,.1,-1.2,.2,-2.2c0,-.9,.1,-1.8,.1,-1.9l.1,-.2h.7c.8,.1,2.3,.3,3.1,.5c1.7,.4,3.1,1.4,3.6,2.5c.4,.8,.6,2.1,.3,2.4c-.1,.1,-.8,.5,-2.5,1.2c-1.6,.8,-1.5,.7,-1.6,.4Z" class="ga_15"/>
</g>
<path d="M152.7,292.3H326.1" class="g0_15"/>
<path d="M137.6,297.5V489.8" class="gc_15"/>
<path d="M116.9,593.4h73.9V541.9H116.9v51.5Z" class="gd_15"/>
<path d="M253,593.4V541.9" class="g0_15"/>
<path d="M116.9,812.5h73.9V593.4H116.9V812.5Z" class="gd_15"/>
<path d="M253,812.5V593.4" class="g0_15"/>
<path d="M295.7,632.9c0,-7.3,-5.9,-13.2,-13.2,-13.2c-7.4,0,-13.3,5.9,-13.3,13.2c0,7.4,5.9,13.3,13.3,13.3c7.3,0,13.2,-5.9,13.2,-13.3Z" class="ge_15"/>
<path d="M334.7,632.9c0,-7.3,-5.9,-13.2,-13.3,-13.2c-7.3,0,-13.2,5.9,-13.2,13.2c0,7.3,5.9,13.3,13.2,13.3c7.4,0,13.3,-6,13.3,-13.3Z" class="gf_15"/>
<path d="M373.9,632.9c0,-7.4,-6,-13.5,-13.5,-13.5c-7.5,0,-13.5,6.1,-13.5,13.5c0,7.5,6,13.5,13.5,13.5c7.5,0,13.5,-6,13.5,-13.5Z" class="gg_15"/>
<path d="M413,632.9c0,-7.5,-6.1,-13.6,-13.6,-13.6c-7.5,0,-13.6,6.1,-13.6,13.6c0,7.5,6.1,13.6,13.6,13.6c7.5,0,13.6,-6.1,13.6,-13.6Z" class="gh_15"/>
<path d="M451.4,632.9c0,-7.2,-5.8,-13,-13,-13c-7.2,0,-13.1,5.8,-13.1,13c0,7.2,5.9,13,13.1,13c7.2,0,13,-5.8,13,-13Z" class="gi_15"/>
<path d="M296.1,632.9h11.7m27.2,0h11.5m27.8,0h11.2m27.8,0H425" class="gj_15"/>
<path d="M295.7,669.3C295.7,662,289.8,656,282.4,656c-7.3,0,-13.2,6,-13.2,13.3c0,7.3,5.9,13.3,13.2,13.3c7.4,0,13.3,-6,13.3,-13.3Z" class="gf_15"/>
<path d="M334.9,669.3c0,-7.5,-6,-13.5,-13.5,-13.5c-7.4,0,-13.5,6,-13.5,13.5c0,7.5,6.1,13.5,13.5,13.5c7.5,0,13.5,-6,13.5,-13.5Z" class="gg_15"/>
<path d="M374,669.3c0,-7.5,-6.1,-13.6,-13.6,-13.6c-7.5,0,-13.6,6.1,-13.6,13.6c0,7.5,6.1,13.6,13.6,13.6c7.5,0,13.6,-6.1,13.6,-13.6Z" class="gh_15"/>
<path d="M412.4,669.3c0,-7.2,-5.8,-13,-13,-13c-7.2,0,-13,5.8,-13,13c0,7.2,5.8,13,13,13c7.2,0,13,-5.8,13,-13Z" class="gi_15"/>
<path d="M451.6,669.3C451.6,662,445.7,656,438.4,656c-7.4,0,-13.3,6,-13.3,13.3c0,7.3,5.9,13.3,13.3,13.3c7.3,0,13.2,-6,13.2,-13.3Z" class="ge_15"/>
<path d="M296,669.3h11.6m27.7,0h11.2m27.8,0H386m26.7,0h12" class="gj_15"/>
<path d="M296.2,705.7c0,-7.5,-6,-13.5,-13.5,-13.5c-7.5,0,-13.5,6,-13.5,13.5c0,7.4,6,13.5,13.5,13.5c7.5,0,13.5,-6.1,13.5,-13.5Z" class="gg_15"/>
<path d="M335.3,705.7c0,-7.5,-6.1,-13.6,-13.6,-13.6c-7.5,0,-13.6,6.1,-13.6,13.6c0,7.5,6.1,13.6,13.6,13.6c7.5,0,13.6,-6.1,13.6,-13.6Z" class="gh_15"/>
<path d="M373.7,705.7c0,-7.2,-5.8,-13,-13,-13c-7.2,0,-13.1,5.8,-13.1,13c0,7.2,5.9,13,13.1,13c7.2,0,13,-5.8,13,-13Z" class="gi_15"/>
<path d="M412.9,705.7c0,-7.4,-5.9,-13.3,-13.3,-13.3c-7.3,0,-13.2,5.9,-13.2,13.3c0,7.3,5.9,13.3,13.2,13.3c7.4,0,13.3,-6,13.3,-13.3Z" class="ge_15"/>
<path d="M451.9,705.7c0,-7.3,-6,-13.3,-13.3,-13.3c-7.3,0,-13.2,6,-13.2,13.3c0,7.3,5.9,13.2,13.2,13.2c7.3,0,13.3,-5.9,13.3,-13.2Z" class="gf_15"/>
<path d="M296.6,705.7h11.2m27.8,0h11.7m26.7,0h12m27.3,0H425" class="gj_15"/>
<path d="M296.3,742.1c0,-7.5,-6,-13.6,-13.5,-13.6c-7.5,0,-13.6,6.1,-13.6,13.6c0,7.5,6.1,13.5,13.6,13.5c7.5,0,13.5,-6,13.5,-13.5Z" class="gh_15"/>
<path d="M334.8,742.1c0,-7.2,-5.9,-13.1,-13.1,-13.1c-7.1,0,-13,5.9,-13,13.1c0,7.1,5.9,13,13,13c7.2,0,13.1,-5.9,13.1,-13Z" class="gi_15"/>
<path d="M374,742.1c0,-7.4,-6,-13.3,-13.3,-13.3c-7.3,0,-13.3,5.9,-13.3,13.3c0,7.3,6,13.2,13.3,13.2c7.3,0,13.3,-5.9,13.3,-13.2Z" class="ge_15"/>
<path d="M413,742.1c0,-7.4,-6,-13.3,-13.3,-13.3c-7.3,0,-13.3,5.9,-13.3,13.3c0,7.3,6,13.2,13.3,13.2c7.3,0,13.3,-5.9,13.3,-13.2Z" class="gf_15"/>
<path d="M452.2,742.1c0,-7.5,-6.1,-13.6,-13.5,-13.6c-7.5,0,-13.5,6.1,-13.5,13.6c0,7.4,6,13.5,13.5,13.5c7.4,0,13.5,-6.1,13.5,-13.5Z" class="gg_15"/>
<path d="M296.7,742.1h11.7m26.7,0h12m27.2,0h11.8m27.2,0h11.5" class="gj_15"/>
<path d="M295.2,778.4c0,-7.2,-5.8,-13,-13,-13c-7.2,0,-13,5.8,-13,13c0,7.2,5.8,13.1,13,13.1c7.2,0,13,-5.9,13,-13.1Z" class="gi_15"/>
<path d="M334.5,778.4c0,-7.3,-6,-13.2,-13.3,-13.2c-7.3,0,-13.3,5.9,-13.3,13.2c0,7.4,6,13.3,13.3,13.3c7.3,0,13.3,-5.9,13.3,-13.3Z" class="ge_15"/>
<path d="M373.4,778.4c0,-7.3,-5.9,-13.2,-13.2,-13.2c-7.4,0,-13.3,5.9,-13.3,13.2c0,7.4,5.9,13.3,13.3,13.3c7.3,0,13.2,-5.9,13.2,-13.3Z" class="gf_15"/>
<path d="M412.7,778.4c0,-7.4,-6.1,-13.5,-13.6,-13.5c-7.4,0,-13.5,6.1,-13.5,13.5c0,7.5,6.1,13.6,13.5,13.6c7.5,0,13.6,-6.1,13.6,-13.6Z" class="gg_15"/>
<path d="M451.7,778.4c0,-7.5,-6.1,-13.5,-13.6,-13.5c-7.5,0,-13.6,6,-13.6,13.5c0,7.5,6.1,13.6,13.6,13.6c7.5,0,13.6,-6.1,13.6,-13.6Z" class="gh_15"/>
<path d="M295.6,778.4h12m27.2,0h11.8m27.2,0h11.5m27.7,0h11.2" class="gj_15"/>
<path d="M473.5,614.2c3.3,1.6,5.5,5.4,5.5,10.9v69.6c0,5.5,2.2,9.3,5.5,11c-3.3,1.6,-5.5,5.5,-5.5,10.9v69.6c0,5.5,-2.2,9.4,-5.5,11" class="g2_15"/>
<path d="M759.5,711.1c0,-32.3,-26.1,-58.5,-58.4,-58.5c-32.3,0,-58.5,26.2,-58.5,58.5c0,32.3,26.2,58.5,58.5,58.5c32.3,0,58.4,-26.2,58.4,-58.5Z" class="gk_15"/>
<path d="M769.9,693c0,-7.3,-5.9,-13.2,-13.2,-13.2c-7.3,0,-13.3,5.9,-13.3,13.2c0,7.4,6,13.3,13.3,13.3c7.3,0,13.2,-5.9,13.2,-13.3Z" class="gf_15"/>
<path d="M714.4,652.6c0,-7.3,-6,-13.2,-13.3,-13.2c-7.4,0,-13.3,5.9,-13.3,13.2c0,7.4,5.9,13.3,13.3,13.3c7.3,0,13.3,-5.9,13.3,-13.3Z" class="ge_15"/>
<path d="M659,693c0,-7.4,-6.1,-13.5,-13.5,-13.5C638,679.5,632,685.6,632,693c0,7.5,6,13.6,13.5,13.6c7.4,0,13.5,-6.1,13.5,-13.6Z" class="gg_15"/>
<path d="M680.3,758.4c0,-7.5,-6.1,-13.6,-13.6,-13.6c-7.5,0,-13.6,6.1,-13.6,13.6c0,7.5,6.1,13.6,13.6,13.6c7.5,0,13.6,-6.1,13.6,-13.6Z" class="gh_15"/>
<path d="M748.5,758.4c0,-7.2,-5.9,-13,-13.1,-13c-7.1,0,-13,5.8,-13,13c0,7.2,5.9,13,13,13c7.2,0,13.1,-5.8,13.1,-13Z" class="gi_15"/>
<path d="M116.9,1133.4h73.9V812.5H116.9v320.9Z" class="gd_15"/>
<path d="M253,1133.4V812.5m396,258.2h21.6m25,-192.9c16.9,16.9,17.1,44.3,.6,61.4m7,-.4c-2.4,.4,-4.9,.6,-7.3,.7c-.1,-2.4,-.3,-4.7,-.6,-6.9m.3,11.1c16,16.1,16.2,42,.6,58.3m7,-.5c-2.4,.4,-4.9,.7,-7.3,.8c-.1,-2.4,-.3,-4.7,-.7,-6.9m.4,11.1c17.7,17.7,17.9,46.3,.6,64.3m7,-.5c-2.4,.4,-4.9,.6,-7.3,.7c-.1,-2.3,-.3,-4.6,-.6,-6.9" class="g0_15"/>
</svg>