<?xml version="1.0" encoding="UTF-8" standalone="no"?>
<!DOCTYPE svg PUBLIC "-//W3C//DTD SVG 1.1//EN"
"http://www.w3.org/Graphics/SVG/1.1/DTD/svg11.dtd">
<svg viewBox="0 0 1286 909" version="1.1" xmlns="http://www.w3.org/2000/svg" xmlns:xlink="http://www.w3.org/1999/xlink">
<defs>
<style type="text/css"><![CDATA[
.g0_794{
fill: none;
stroke: #000000;
stroke-width: 0.73;
stroke-linecap: butt;
stroke-linejoin: miter;
}
.g1_794{
fill: none;
stroke: #02B5EE;
stroke-width: 1.262;
stroke-linecap: butt;
stroke-linejoin: miter;
}
.g2_794{
fill: none;
stroke: #02B5EE;
stroke-width: 0.73;
stroke-linecap: butt;
stroke-linejoin: miter;
}
]]></style>
</defs>
<path d="M193,83.4h900.3M193,210.6H878.7m-685.7,0H878.7M467.6,240.2V211m0,58.5V240.2m0,114.3v-85" class="g0_794"/>
<path d="M645.1,330.5h59.1" class="g1_794"/>
<path d="M467.6,383.7V354.5m0,102.3V383.7" class="g0_794"/>
<path d="M800.2,442.9h67.5" class="g2_794"/>
<path d="M467.6,486V456.8m0,58.4V486m0,114.2v-85" class="g0_794"/>
<path d="M668.6,576.2h35.6" class="g1_794"/>
<path d="M467.6,629.5V600.2m0,102.3v-73" class="g0_794"/>
<path d="M648.2,688.6H867.7" class="g2_794"/>
<path d="M467.6,731.7V702.5m0,58.5V731.7M193,761.3H878.7m-685.7,0H878.7" class="g0_794"/>
</svg>