<?xml version="1.0" encoding="UTF-8" standalone="no"?>
<!DOCTYPE svg PUBLIC "-//W3C//DTD SVG 1.1//EN"
"http://www.w3.org/Graphics/SVG/1.1/DTD/svg11.dtd">
<svg viewBox="0 0 1286 909" version="1.1" xmlns="http://www.w3.org/2000/svg" xmlns:xlink="http://www.w3.org/1999/xlink">
<defs>
<style type="text/css"><![CDATA[
.g0_206{
fill: none;
stroke: #000000;
stroke-width: 0.73;
stroke-linecap: butt;
stroke-linejoin: miter;
}
.g1_206{
fill: none;
stroke: #F81693;
stroke-width: 1.262;
stroke-linecap: butt;
stroke-linejoin: miter;
}
.g2_206{
fill: none;
stroke: #02B5EE;
stroke-width: 1.262;
stroke-linecap: butt;
stroke-linejoin: miter;
}
.g3_206{
fill: none;
stroke: #5EE200;
stroke-width: 1.262;
stroke-linecap: butt;
stroke-linejoin: miter;
}
.g4_206{
fill: none;
stroke: #F81693;
stroke-width: 0.73;
stroke-linecap: butt;
stroke-linejoin: miter;
}
.g5_206{
fill: none;
stroke: #5EE200;
stroke-width: 0.73;
stroke-linecap: butt;
stroke-linejoin: miter;
}
.g6_206{
fill: none;
stroke: #02B5EE;
stroke-width: 0.73;
stroke-linecap: butt;
stroke-linejoin: miter;
}
]]></style>
</defs>
<path d="M193,83.4h900.3M193,111.6H1344.8M193,111.6H1344.8M555.2,141.2V112m0,58.5V141.2m0,116.1V170.5" class="g0_206"/>
<path d="M596.1,231.5h20.6" class="g1_206"/>
<path d="M632.2,231.5h95" class="g2_206"/>
<path d="M737.7,231.5h193" class="g3_206"/>
<path d="M1090.4,231.5h243.4" class="g1_206"/>
<path d="M555.2,287.5V257.3m0,104.3V287.5" class="g0_206"/>
<path d="M664.1,346.7H834.9" class="g4_206"/>
<path d="M1080.5,346.7h152" class="g5_206"/>
<path d="M1232.5,346.7h101.3" class="g6_206"/>
<path d="M555.2,392.9V361.6m0,60.6V392.9m0,58.5V422.2m0,116V451.4" class="g0_206"/>
<path d="M571.2,512.4h20.6" class="g1_206"/>
<path d="M607.4,512.4h95" class="g2_206"/>
<path d="M712.9,512.4H930.7" class="g3_206"/>
<path d="M1090.4,512.4h243.4" class="g1_206"/>
<path d="M555.2,568.4V538.2m0,104.3V568.4" class="g0_206"/>
<path d="M731.7,627.6H902.5" class="g4_206"/>
<path d="M1148,627.6h84.5" class="g5_206"/>
<path d="M1232.5,627.6h101.3" class="g6_206"/>
<path d="M555.2,673.8V642.5m0,60.6V673.8m0,58.5V703.1M193,732.7H1344.8M193,732.7H1344.8" class="g0_206"/>
</svg>