<?xml version="1.0" encoding="UTF-8" standalone="no"?>
<!DOCTYPE svg PUBLIC "-//W3C//DTD SVG 1.1//EN"
"http://www.w3.org/Graphics/SVG/1.1/DTD/svg11.dtd">
<svg viewBox="0 0 1286 909" version="1.1" xmlns="http://www.w3.org/2000/svg" xmlns:xlink="http://www.w3.org/1999/xlink">
<defs>
<style type="text/css"><![CDATA[
.g0_975{
fill: none;
stroke: #000000;
stroke-width: 0.73;
stroke-linecap: butt;
stroke-linejoin: miter;
}
.g1_975{
fill: #FFCCCC;
}
.g2_975{
fill: #AEF080;
}
.g3_975{
fill: none;
stroke: #5EE200;
stroke-width: 1.461;
stroke-linecap: butt;
stroke-linejoin: miter;
stroke-dasharray: 2,2;
}
.g4_975{
fill: none;
stroke: #F81693;
stroke-width: 1.461;
stroke-linecap: butt;
stroke-linejoin: miter;
stroke-dasharray: 2,2;
}
]]></style>
</defs>
<path d="M193,83.4h900.3M193,210.6H735.5m-542.5,0H735.5M357.3,240.2V211m0,58.5V240.2m0,63.2V269.5" class="g0_975"/>
<path d="M378.8,303.4h59.5V270.5H378.8v32.9Z" class="g1_975"/>
<path d="M448.9,303.4H646.5V270.5H448.9v32.9Z" class="g2_975"/>
<path d="M660.7,297h60.2" class="g3_975"/>
<path d="M357.3,332.6V303.4m0,62.1V332.6" class="g0_975"/>
<path d="M538.4,361.1H571" class="g3_975"/>
<path d="M574.6,365.5h44.8V332.6H574.6v32.9Z" class="g2_975"/>
<path d="M625.4,365.5h99.2V332.6H625.4v32.9Z" class="g1_975"/>
<path d="M357.3,394.7V365.5m0,58.4V394.7m0,63.2v-34" class="g0_975"/>
<path d="M540.8,457.9h59.5V425H540.8v32.9Z" class="g1_975"/>
<path d="M614.5,451.5H720.9" class="g4_975"/>
<path d="M357.3,488.1V457.9m0,63V488.1" class="g0_975"/>
<path d="M557.8,516.6h49.5" class="g4_975"/>
<path d="M617,520.9H724.6V488.1H617v32.8Z" class="g1_975"/>
<path d="M357.3,552.3V520.9m0,60.6V552.3m0,58.4V581.5m0,63.8V610.7" class="g0_975"/>
<path d="M562.3,644.7h59.5V611.8H562.3v32.9Z" class="g1_975"/>
<path d="M635.9,644.6h85" class="g4_975"/>
<path d="M357.3,674.5V645.3m0,62.1V674.5" class="g0_975"/>
<path d="M592.2,703.1H641" class="g4_975"/>
<path d="M650.8,707.4h73.8V674.5H650.8v32.9Z" class="g1_975"/>
<path d="M357.3,736.6V707.4M193,737H735.5M193,737H735.5" class="g0_975"/>
</svg>