<?xml version="1.0" encoding="UTF-8" standalone="no"?>
<!DOCTYPE svg PUBLIC "-//W3C//DTD SVG 1.1//EN"
"http://www.w3.org/Graphics/SVG/1.1/DTD/svg11.dtd">
<svg viewBox="0 0 1286 909" version="1.1" xmlns="http://www.w3.org/2000/svg" xmlns:xlink="http://www.w3.org/1999/xlink">
<defs>
<style type="text/css"><![CDATA[
.g0_1241{
fill: none;
stroke: #000000;
stroke-width: 0.73;
stroke-linecap: butt;
stroke-linejoin: miter;
}
.g1_1241{
fill: #FDE8E9;
}
]]></style>
</defs>
<path d="M193,83.4h900.3M203.9,115H441.5M203.9,144.5V115.3m70.6,29.2V115.3m167,29.2V115.3M203.9,176.7V144.5m70.6,32.2V144.5" class="g0_1241"/>
<path d="M285.4,176.7h121V148.1h-121v28.6Z" class="g1_1241"/>
<path d="M441.5,176.7V144.5M203.9,205.9V176.7m70.6,29.2V176.7m167,29.2V176.7M203.9,235.1V205.9m70.6,29.2V205.9m167,29.2V205.9M203.9,267.3V235.1m70.6,32.2V235.1" class="g0_1241"/>
<path d="M285.4,267.3H351V238.7H285.4v28.6Z" class="g1_1241"/>
<path d="M441.5,267.3V235.1M203.9,296.5V267.3m70.6,29.2V267.3m167,29.2V267.3M203.9,325.7V296.5m70.6,29.2V296.5m167,29.2V296.5M203.9,360.3V325.7m70.6,34.6V325.7" class="g0_1241"/>
<path d="M285.4,360.3H430.5V325.7H285.4v34.6Z" class="g1_1241"/>
<path d="M441.5,360.3V325.7M203.9,389.6V360.3m70.6,29.3V360.3m167,29.3V360.3M203.9,418.8V389.6m70.6,29.2V389.6m167,29.2V389.6M203.9,451.4V418.8m70.6,32.6V418.8" class="g0_1241"/>
<path d="M285.4,448.1H401.5V418.8H285.4v29.3Z" class="g1_1241"/>
<path d="M441.5,451.4V418.8M203.9,480.7V451.4m70.6,29.3V451.4m167,29.3V451.4M203.9,509.9V480.7m70.6,29.2V480.7m167,29.2V480.7M203.9,542.5V509.9m70.6,32.6V509.9" class="g0_1241"/>
<path d="M285.4,539.2h92V509.9h-92v29.3Z" class="g1_1241"/>
<path d="M441.5,542.5V509.9M203.9,571.8V542.5m70.6,29.3V542.5m167,29.3V542.5M203.9,601V571.8M274.5,601V571.8m167,29.2V571.8M203.9,633.6V601m70.6,32.6V601" class="g0_1241"/>
<path d="M285.4,630.3h56.7V601H285.4v29.3Z" class="g1_1241"/>
<path d="M441.5,633.6V601M203.9,662.8V633.6m70.6,29.2V633.6m167,29.2V633.6M203.9,692.1V662.8m70.6,29.3V662.8m167,29.3V662.8M203.9,724.7V692.1m70.6,32.6V692.1" class="g0_1241"/>
<path d="M285.4,721.4h71.9V692.1H285.4v29.3Z" class="g1_1241"/>
<path d="M441.5,724.7V692.1M203.9,753.9V724.7m70.6,29.2V724.7m167,29.2V724.7M203.9,754.3H441.5M463.4,114.7H753.9M463.4,144.3V115.1m155.7,29.2V115.1m134.8,29.2V115.1M463.4,176.9V144.3m155.7,32.6V144.3" class="g0_1241"/>
<path d="M630,173.7h81.4V144.3H630v29.4Z" class="g1_1241"/>
<path d="M753.9,176.9V144.3M463.4,206.2V176.9m155.7,29.3V176.9m134.8,29.3V176.9M463.4,235.4V206.2m155.7,29.2V206.2m134.8,29.2V206.2M463.4,267.5V235.4m155.7,32.1V235.4" class="g0_1241"/>
<path d="M630,267.5h79.1V238.9H630v28.6Z" class="g1_1241"/>
<path d="M753.9,267.5V235.4M463.4,296.8V267.5m155.7,29.3V267.5m134.8,29.3V267.5M463.4,326V296.8M619.1,326V296.8M753.9,326V296.8M463.4,358.6V326m155.7,32.6V326" class="g0_1241"/>
<path d="M630,355.3h55V326H630v29.3Z" class="g1_1241"/>
<path d="M753.9,358.6V326M463.4,387.8V358.6m155.7,29.2V358.6m134.8,29.2V358.6M463.4,417.1V387.8m155.7,29.3V387.8m134.8,29.3V387.8M463.4,449.7V417.1m155.7,32.6V417.1" class="g0_1241"/>
<path d="M630,446.4h71.5V417.1H630v29.3Z" class="g1_1241"/>
<path d="M753.9,449.7V417.1M463.4,478.9V449.7m155.7,29.2V449.7m134.8,29.2V449.7M463.4,508.2V478.9m155.7,29.3V478.9m134.8,29.3V478.9M463.4,540.8V508.2m155.7,32.6V508.2" class="g0_1241"/>
<path d="M630,537.5H743V508.2H630v29.3Z" class="g1_1241"/>
<path d="M753.9,540.8V508.2M463.4,570V540.8M619.1,570V540.8M753.9,570V540.8M463.4,599.3V570m155.7,29.3V570m134.8,29.3V570M463.4,633.9V599.3m155.7,34.6V599.3" class="g0_1241"/>
<path d="M630,633.9H735.4V599.3H630v34.6Z" class="g1_1241"/>
<path d="M753.9,633.9V599.3M463.4,663.1V633.9m155.7,29.2V633.9m134.8,29.2V633.9M463.4,692.3V663.1m155.7,29.2V663.1m134.8,29.2V663.1M463.4,725V692.3M619.1,725V692.3" class="g0_1241"/>
<path d="M630,721.7H737.6V692.3H630v29.4Z" class="g1_1241"/>
<path d="M753.9,725V692.3M463.4,754.2V725m155.7,29.2V725m134.8,29.2V725M463.4,754.6H753.9M775.8,109.5h312.8M775.8,139.1V109.9m155.7,29.2V109.9m157.1,29.2V109.9M775.8,171.8V139.1m155.7,32.7V139.1" class="g0_1241"/>
<path d="M942.5,168.5h101.8V139.1H942.5v29.4Z" class="g1_1241"/>
<path d="M1088.6,171.8V139.1M775.8,201V171.8M931.5,201V171.8M1088.6,201V171.8M775.8,230.2V201m155.7,29.2V201m157.1,29.2V201M775.8,264.8V230.2m155.7,34.6V230.2" class="g0_1241"/>
<path d="M942.5,264.8H1060V230.2H942.5v34.6Z" class="g1_1241"/>
<path d="M1088.6,264.8V230.2M775.8,294V264.8M931.5,294V264.8M1088.6,294V264.8M775.8,323.3V294m155.7,29.3V294m157.1,29.3V294M775.8,357.9V323.3m155.7,34.6V323.3" class="g0_1241"/>
<path d="M942.5,357.9h79.3V323.3H942.5v34.6Z" class="g1_1241"/>
<path d="M1088.6,357.9V323.3M775.8,387.1V357.9m155.7,29.2V357.9m157.1,29.2V357.9M775.8,416.3V387.1m155.7,29.2V387.1m157.1,29.2V387.1M775.8,451V416.3M931.5,451V416.3" class="g0_1241"/>
<path d="M942.5,451h135.1V416.3H942.5V451Z" class="g1_1241"/>
<path d="M1088.6,451V416.3M775.8,480.2V451m155.7,29.2V451m157.1,29.2V451M775.8,509.4V480.2m155.7,29.2V480.2m157.1,29.2V480.2M775.8,544V509.4M931.5,544V509.4" class="g0_1241"/>
<path d="M942.5,544H1016V509.4H942.5V544Z" class="g1_1241"/>
<path d="M1088.6,544V509.4M775.8,573.2V544m155.7,29.2V544m157.1,29.2V544M775.8,602.5V573.2m155.7,29.3V573.2m157.1,29.3V573.2M775.8,637.1V602.5m155.7,34.6V602.5" class="g0_1241"/>
<path d="M942.5,637.1h81.7V602.5H942.5v34.6Z" class="g1_1241"/>
<path d="M1088.6,637.1V602.5M775.8,666.3V637.1m155.7,29.2V637.1m157.1,29.2V637.1M775.8,695.5V666.3m155.7,29.2V666.3m157.1,29.2V666.3M775.8,730.1V695.5m155.7,34.6V695.5" class="g0_1241"/>
<path d="M942.5,730.1h119.2V695.5H942.5v34.6Z" class="g1_1241"/>
<path d="M1088.6,730.1V695.5M775.8,759.4V730.1m155.7,29.3V730.1m157.1,29.3V730.1M775.8,759.7h312.8" class="g0_1241"/>
</svg>