<?xml version="1.0" encoding="UTF-8" standalone="no"?>
<!DOCTYPE svg PUBLIC "-//W3C//DTD SVG 1.1//EN"
"http://www.w3.org/Graphics/SVG/1.1/DTD/svg11.dtd">
<svg viewBox="0 0 909 1286" version="1.1" xmlns="http://www.w3.org/2000/svg" xmlns:xlink="http://www.w3.org/1999/xlink">
<defs>
<style type="text/css"><![CDATA[
.g0_39{
fill: none;
stroke: #000000;
stroke-width: 0.73;
stroke-linecap: butt;
stroke-linejoin: miter;
}
.g1_39{
fill: none;
stroke: #000000;
stroke-width: 1.461;
stroke-linecap: butt;
stroke-linejoin: miter;
}
.g2_39{
fill: none;
stroke: #000000;
stroke-width: 9.132;
stroke-linecap: butt;
stroke-linejoin: miter;
}
.g3_39{
fill: none;
stroke: #F81693;
stroke-width: 0.73;
stroke-linecap: butt;
stroke-linejoin: miter;
}
.g4_39{
fill: none;
stroke: #02B5EE;
stroke-width: 0.73;
stroke-linecap: butt;
stroke-linejoin: miter;
}
.g5_39{
fill: none;
stroke: #02B5EE;
stroke-width: 1.461;
stroke-linecap: butt;
stroke-linejoin: miter;
}
.g6_39{
fill: none;
stroke: #F81693;
stroke-width: 1.461;
stroke-linecap: butt;
stroke-linejoin: miter;
}
]]></style>
</defs>
<path d="M116.9,264.9H783.4M117.3,577.1V265.3" class="g0_39"/>
<path d="M458.4,357.2c-1.6,3.3,-5.5,5.5,-10.9,5.5H432.9c-5.5,0,-9.3,2.2,-11,5.5c-1.6,-3.3,-5.4,-5.5,-10.9,-5.5H396.4c-5.5,0,-9.3,-2.2,-11,-5.5" class="g1_39"/>
<path d="M783,577.1V265.3M116.9,577.5H783.4" class="g0_39"/>
<path d="M126.1,582.4H792.5m-4.6,4.6V273.7" class="g2_39"/>
<path d="M116.9,618.4H535.5M215.9,648V618.8m-43.3,84l24.9,14.8m0,36.7V717.8M135,754.3h62.5m-62.5,0V717.8m24.9,-15L135,717.6m56.5,31.9v-27m-50.5,27v-27m23.1,-29V673.4m4.3,20.1V673.4m47.5,92.9V648" class="g0_39"/>
<path d="M311.9,702.8l18.2,10.9m6.6,33.3V726.9m-54.8,27.4H329M274.2,747V726.9m24.9,-24.1l-18.3,10.9M330.7,747V726.9M280.3,747V726.9" class="g3_39"/>
<path d="M303.3,693.5V673.4m4.4,20.1V673.4" class="g4_39"/>
<path d="M215.9,795.6V766.3m0,58.5V795.6" class="g0_39"/>
<path d="M411.4,823.3c1.4,0,2.1,-2.7,3.4,-2.7c1,0,1.9,1.3,2.8,2.7c.9,1.4,1.7,2.8,2.7,2.8c1,0,1.9,-1.4,2.7,-2.8c.9,-1.4,1.8,-2.7,2.8,-2.7c1.4,0,2,2.7,3.4,2.7h3.9" class="g5_39"/>
<path d="M215.9,854V824.8m0,60.3V854" class="g0_39"/>
<path d="M282.9,883.6c1.4,0,2.1,-2.7,3.4,-2.7c1,0,1.9,1.3,2.8,2.7c.9,1.4,1.7,2.8,2.7,2.8c1,0,1.9,-1.4,2.8,-2.8c.9,-1.4,1.7,-2.7,2.7,-2.7c1.4,0,2.1,2.7,3.4,2.7h3.9" class="g5_39"/>
<path d="M356.5,883.6c1.3,0,2,-2.7,3.4,-2.7c1,0,1.8,1.3,2.7,2.7c.9,1.4,1.8,2.8,2.8,2.8c1,0,1.8,-1.4,2.7,-2.8c.9,-1.4,1.8,-2.7,2.7,-2.7c1,0,1.9,1.3,2.8,2.7c.9,1.4,1.7,2.8,2.7,2.8c1,0,1.9,-1.4,2.8,-2.8c.9,-1.4,1.7,-2.7,2.7,-2.7c1,0,1.8,1.3,2.7,2.7c.9,1.4,1.8,2.8,2.8,2.8c1.4,0,2,-2.8,3.4,-2.8h5" class="g6_39"/>
<path d="M215.9,914.3V885.1m-99,29.6H535.5" class="g0_39"/>
</svg>