<?xml version="1.0" encoding="UTF-8" standalone="no"?>
<!DOCTYPE svg PUBLIC "-//W3C//DTD SVG 1.1//EN"
"http://www.w3.org/Graphics/SVG/1.1/DTD/svg11.dtd">
<svg viewBox="0 0 1286 909" version="1.1" xmlns="http://www.w3.org/2000/svg" xmlns:xlink="http://www.w3.org/1999/xlink">
<defs>
<style type="text/css"><![CDATA[
.g0_539{
fill: none;
stroke: #000000;
stroke-width: 0.73;
stroke-linecap: butt;
stroke-linejoin: miter;
}
.g1_539{
fill: none;
stroke: #02B5EE;
stroke-width: 1.262;
stroke-linecap: butt;
stroke-linejoin: miter;
}
.g2_539{
fill: none;
stroke: #5EE200;
stroke-width: 1.262;
stroke-linecap: butt;
stroke-linejoin: miter;
}
.g3_539{
fill: none;
stroke: #FFA313;
stroke-width: 1.262;
stroke-linecap: butt;
stroke-linejoin: miter;
}
.g4_539{
fill: none;
stroke: #5EE200;
stroke-width: 0.73;
stroke-linecap: butt;
stroke-linejoin: miter;
}
.g5_539{
fill: none;
stroke: #FFA313;
stroke-width: 0.73;
stroke-linecap: butt;
stroke-linejoin: miter;
}
.g6_539{
fill: none;
stroke: #02B5EE;
stroke-width: 0.73;
stroke-linecap: butt;
stroke-linejoin: miter;
}
.g7_539{
fill: none;
stroke: #5EE200;
stroke-width: 1.461;
stroke-linecap: butt;
stroke-linejoin: miter;
stroke-dasharray: 2,2;
}
.g8_539{
fill: #AEF080;
}
]]></style>
</defs>
<path d="M193,83.4h900.3M193,210.6h831m-831,0h831M553.2,240.2V211m0,58.5V240.2m0,114.3v-85" class="g0_539"/>
<path d="M842.9,330.5h81" class="g1_539"/>
<path d="M934.4,330.5h18.3" class="g2_539"/>
<path d="M963.2,330.5H1013" class="g3_539"/>
<path d="M553.2,383.7V354.5m0,102.3V383.7" class="g0_539"/>
<path d="M817.7,442.9h32.1" class="g4_539"/>
<path d="M855.9,442.9H956.2" class="g5_539"/>
<path d="M962.3,442.9H1013" class="g6_539"/>
<path d="M553.2,486V456.8m0,58.4V486m0,116.1V515.2" class="g0_539"/>
<path d="M656,576.2h81.1" class="g1_539"/>
<path d="M755.8,576.2H774" class="g2_539"/>
<path d="M792.7,576.2h22.4" class="g3_539"/>
<path d="M829.3,558.1h70.8" class="g7_539"/>
<path d="M914.2,564.5H1013V531.6H914.2v32.9Z" class="g8_539"/>
<path d="M825.6,576.2H1013" class="g2_539"/>
<path d="M553.2,631.3V602.1m0,103.3V631.3" class="g0_539"/>
<path d="M567.8,676.2H800.7" class="g7_539"/>
<path d="M804.4,680.6h94.4V647.7H804.4v32.9Z" class="g8_539"/>
<path d="M564.2,690.5H915.7" class="g4_539"/>
<path d="M921.8,690.5h34.4" class="g5_539"/>
<path d="M962.3,690.5H1013" class="g6_539"/>
<path d="M553.2,734.6V705.4M193,735h831m-831,0h831" class="g0_539"/>
</svg>