<?xml version="1.0" encoding="UTF-8" standalone="no"?>
<!DOCTYPE svg PUBLIC "-//W3C//DTD SVG 1.1//EN"
"http://www.w3.org/Graphics/SVG/1.1/DTD/svg11.dtd">
<svg viewBox="0 0 1286 909" version="1.1" xmlns="http://www.w3.org/2000/svg" xmlns:xlink="http://www.w3.org/1999/xlink">
<defs>
<style type="text/css"><![CDATA[
.g0_95{
fill: none;
stroke: #000000;
stroke-width: 0.73;
stroke-linecap: butt;
stroke-linejoin: miter;
}
.g1_95{
fill: none;
stroke: #02B5EE;
stroke-width: 1.262;
stroke-linecap: butt;
stroke-linejoin: miter;
}
.g2_95{
fill: none;
stroke: #02B5EE;
stroke-width: 0.73;
stroke-linecap: butt;
stroke-linejoin: miter;
}
.g3_95{
fill: #FFCCCC;
}
]]></style>
</defs>
<path d="M193,83.4h900.3M193,111.6h932.2m-932.2,0h932.2M544.3,141.2V112m0,58.5V141.2m0,114.3v-85" class="g0_95"/>
<path d="M937.7,231.5h49.9" class="g1_95"/>
<path d="M544.3,284.7V255.5m0,102.3V284.7" class="g0_95"/>
<path d="M870.3,343.9H971.6" class="g2_95"/>
<path d="M544.3,387V357.8m0,58.4V387m0,114.2v-85" class="g0_95"/>
<path d="M891.7,477.3h79.2" class="g1_95"/>
<path d="M991.9,465.5h122.3V432.7H991.9v32.8Z" class="g3_95"/>
<path d="M544.3,530.5V501.2m0,102.3v-73" class="g0_95"/>
<path d="M854.7,579.8H979.1V546.9H854.7v32.9Z" class="g3_95"/>
<path d="M1063.6,589.6h50.6" class="g2_95"/>
<path d="M544.3,632.7V603.5m0,58.5V632.7m0,58.5V662M193,691.6h932.2m-932.2,0h932.2" class="g0_95"/>
</svg>