<?xml version="1.0" encoding="UTF-8" standalone="no"?>
<!DOCTYPE svg PUBLIC "-//W3C//DTD SVG 1.1//EN"
"http://www.w3.org/Graphics/SVG/1.1/DTD/svg11.dtd">
<svg viewBox="0 0 909 1286" version="1.1" xmlns="http://www.w3.org/2000/svg" xmlns:xlink="http://www.w3.org/1999/xlink">
<defs>
<style type="text/css"><![CDATA[
.g0_14{
fill: none;
stroke: #000000;
stroke-width: 0.73;
stroke-linecap: butt;
stroke-linejoin: miter;
}
.g1_14{
fill: #E81A58;
}
.g2_14{
fill: #401A1A;
}
]]></style>
</defs>
<path d="M116.9,159.9H792.5" class="g0_14"/>
<path d="M116.9,332.8V179.5H792.5V293.7c0,21.6,-17.5,39.1,-39.1,39.1Z" class="g1_14"/>
<path d="M119.5,330.2V179.5H789.9V293.7c0,20.1,-16.3,36.5,-36.5,36.5Z" class="g2_14"/>
<path d="M116.9,779V430.4c0,-21.6,17.6,-39.2,39.2,-39.2H792.5V739.8c0,21.6,-17.5,39.2,-39.1,39.2Z" class="g1_14"/>
<path d="M119.5,776.4V423.7H789.9V739.8c0,20.2,-16.3,36.6,-36.5,36.6Z" class="g2_14"/>
<path d="M116.9,1137.5v-261c0,-21.6,17.6,-39.1,39.2,-39.1H792.5v300.1Z" class="g1_14"/>
<path d="M119.5,1137.5V869.9H789.9v267.6Z" class="g2_14"/>
</svg>