<?xml version="1.0" encoding="UTF-8" standalone="no"?>
<!DOCTYPE svg PUBLIC "-//W3C//DTD SVG 1.1//EN"
"http://www.w3.org/Graphics/SVG/1.1/DTD/svg11.dtd">
<svg viewBox="0 0 909 1286" version="1.1" xmlns="http://www.w3.org/2000/svg" xmlns:xlink="http://www.w3.org/1999/xlink">
<defs>
<style type="text/css"><![CDATA[
.g0_80{
fill: none;
stroke: #000000;
stroke-width: 0.73;
stroke-linecap: butt;
stroke-linejoin: miter;
}
.g1_80{
fill: #FDE8E9;
}
]]></style>
</defs>
<path d="M116.9,159.9H792.5" class="g0_80"/>
<path d="M492.9,367.4H639V339.6H492.9v27.8Z" class="g1_80"/>
<path d="M116.9,455.1H296.8V427.2H116.9v27.9Z" class="g1_80"/>
<path d="M475.8,617.6H605V589.8H475.8v27.8Z" class="g1_80"/>
<path d="M387.2,647.3h78.5V619.5H387.2v27.8Z" class="g1_80"/>
<path d="M498.8,706.2H628V678.4H498.8v27.8Z" class="g1_80"/>
<path d="M404.1,735.9h61.6V708H404.1v27.9Z" class="g1_80"/>
<path d="M167.6,942.3H364.3V914.4H167.6v27.9Z" class="g1_80"/>
<path d="M167.6,1000.7H364.3V972.9H167.6v27.8Z" class="g1_80"/>
<path d="M116.9,1074.2H246.1v-27.8H116.9v27.8Z" class="g1_80"/>
<path d="M319.6,1132.7H415v-27.9H319.6v27.9Z" class="g1_80"/>
<path d="M431.9,1132.7h61.6v-27.9H431.9v27.9Z" class="g1_80"/>
</svg>