<?xml version="1.0" encoding="UTF-8" standalone="no"?>
<!DOCTYPE svg PUBLIC "-//W3C//DTD SVG 1.1//EN"
"http://www.w3.org/Graphics/SVG/1.1/DTD/svg11.dtd">
<svg viewBox="0 0 909 1286" version="1.1" xmlns="http://www.w3.org/2000/svg" xmlns:xlink="http://www.w3.org/1999/xlink">
<defs>
<style type="text/css"><![CDATA[
.g0_50{
fill: none;
stroke: #000000;
stroke-width: 0.73;
stroke-linecap: butt;
stroke-linejoin: miter;
}
.g1_50{
fill: #E81A58;
}
.g2_50{
fill: #401A1A;
}
.g3_50{
fill: #FDE8E9;
}
.g4_50{
fill: #FFFFFF;
stroke: #000000;
stroke-width: 0.913;
stroke-linecap: butt;
stroke-linejoin: miter;
}
.g5_50{
fill: none;
stroke: #000000;
stroke-width: 1.461;
stroke-linecap: butt;
stroke-linejoin: miter;
}
.g6_50{
fill: #FFFFFF;
}
]]></style>
</defs>
<path d="M116.9,159.9H792.5" class="g0_50"/>
<path d="M116.9,332.8V179.5H792.5V293.7c0,21.6,-17.5,39.1,-39.1,39.1Z" class="g1_50"/>
<path d="M119.5,330.2V179.5H789.9V293.7c0,20.1,-16.3,36.5,-36.5,36.5Z" class="g2_50"/>
<path d="M726.3,407.7h49.3V378.5H726.3v29.2Z" class="g3_50"/>
<path d="M116.9,628h27.9V600.1H116.9V628Z" class="g3_50"/>
<path d="M387.2,657.6H415V629.8H387.2v27.8Z" class="g3_50"/>
<path d="M483,702.8c0,-15.6,-12.6,-28.3,-28.3,-28.3c-15.6,0,-28.3,12.7,-28.3,28.3c0,15.7,12.7,28.4,28.3,28.4c15.7,0,28.3,-12.7,28.3,-28.4Z" class="g4_50"/>
<path d="M440.8,716.8h27.8V688.9H440.8v27.9Z" class="g3_50"/>
<path d="M587,806.8c0,-15.6,-12.7,-28.3,-28.3,-28.3c-15.7,0,-28.3,12.7,-28.3,28.3c0,15.6,12.6,28.3,28.3,28.3c15.6,0,28.3,-12.7,28.3,-28.3Z" class="g4_50"/>
<path d="M544.7,820.7h27.9V792.9H544.7v27.8Z" class="g3_50"/>
<path d="M379.1,806.8c0,-15.6,-12.7,-28.3,-28.3,-28.3c-15.6,0,-28.3,12.7,-28.3,28.3c0,15.6,12.7,28.3,28.3,28.3c15.6,0,28.3,-12.7,28.3,-28.3Z" class="g4_50"/>
<path d="M336.9,820.7h27.8V792.9H336.9v27.8Z" class="g3_50"/>
<path d="M475.1,723.2l63.2,63.3M434.4,723.2l-63.3,63.3" class="g5_50"/>
<path d="M318.7,916.1h44.7V888.3H318.7v27.8Z" class="g3_50"/>
<path d="M379.8,916.1h27.9V888.3H379.8v27.8Z" class="g3_50"/>
<path d="M424.1,916.1h61.6V888.3H424.1v27.8Z" class="g3_50"/>
<path d="M285.8,945.8h27.9V917.9H285.8v27.9Z" class="g3_50"/>
<path d="M330.6,945.8h61.6V917.9H330.6v27.9Z" class="g3_50"/>
<path d="M483,991c0,-15.6,-12.6,-28.3,-28.3,-28.3c-15.6,0,-28.3,12.7,-28.3,28.3c0,15.6,12.7,28.3,28.3,28.3c15.7,0,28.3,-12.7,28.3,-28.3Z" class="g4_50"/>
<path d="M440.8,1004.9h27.8V977.1H440.8v27.8Z" class="g3_50"/>
<path d="M587,1094.9c0,-15.6,-12.7,-28.3,-28.3,-28.3c-15.7,0,-28.3,12.7,-28.3,28.3c0,15.7,12.6,28.3,28.3,28.3c15.6,0,28.3,-12.6,28.3,-28.3Z" class="g4_50"/>
<path d="M544.7,1108.8h27.9V1081H544.7v27.8Z" class="g3_50"/>
<path d="M379.1,1094.9c0,-15.6,-12.7,-28.3,-28.3,-28.3c-15.6,0,-28.3,12.7,-28.3,28.3c0,15.7,12.7,28.3,28.3,28.3c15.6,0,28.3,-12.6,28.3,-28.3Z" class="g4_50"/>
<path d="M336.9,1108.8h27.8V1081H336.9v27.8Z" class="g3_50"/>
<path d="M475.1,1011.3l63.2,63.3" class="g5_50"/>
<path d="M486.7,1063h40v-40.1h-40V1063Z" class="g6_50"/>
<path d="M492.8,1056.9h27.8V1029H492.8v27.9Z" class="g3_50"/>
<path d="M434.4,1011.3l-63.3,63.3" class="g5_50"/>
<path d="M382.7,1063h40.1v-40.1H382.7V1063Z" class="g6_50"/>
<path d="M388.8,1056.9h27.9V1029H388.8v27.9Z" class="g3_50"/>
</svg>