<?xml version="1.0" encoding="UTF-8" standalone="no"?>
<!DOCTYPE svg PUBLIC "-//W3C//DTD SVG 1.1//EN"
"http://www.w3.org/Graphics/SVG/1.1/DTD/svg11.dtd">
<svg viewBox="0 0 1286 909" version="1.1" xmlns="http://www.w3.org/2000/svg" xmlns:xlink="http://www.w3.org/1999/xlink">
<defs>
<style type="text/css"><![CDATA[
.g0_1193{
fill: none;
stroke: #000000;
stroke-width: 0.73;
stroke-linecap: butt;
stroke-linejoin: miter;
}
.g1_1193{
fill: none;
stroke: #000000;
stroke-width: 0.584;
stroke-linecap: butt;
stroke-linejoin: miter;
}
.g2_1193{
fill: #FDE8E9;
}
]]></style>
</defs>
<path d="M193,83.4h900.3" class="g0_1193"/>
<path d="M201.7,112.2H499.4M201.7,135.9V112.5m173.2,23.4V112.5m124.5,23.4V112.5M201.7,162V135.9M374.9,162V135.9" class="g1_1193"/>
<path d="M383.7,159.4h71.4V135.9H383.7v23.5Z" class="g2_1193"/>
<path d="M499.4,162V135.9M201.7,185.4V162m173.2,23.4V162m124.5,23.4V162M201.7,208.8V185.4m173.2,23.4V185.4m124.5,23.4V185.4M201.7,236.5V208.8m173.2,27.7V208.8" class="g1_1193"/>
<path d="M383.7,236.5h94.5V208.8H383.7v27.7Z" class="g2_1193"/>
<path d="M499.4,236.5V208.8m-297.7,51V236.5m173.2,23.3V236.5m124.5,23.3V236.5M201.7,283.2V259.8m173.2,23.4V259.8m124.5,23.4V259.8M201.7,309.3V283.2m173.2,26.1V283.2" class="g1_1193"/>
<path d="M383.7,306.7h96.1V283.2H383.7v23.5Z" class="g2_1193"/>
<path d="M499.4,309.3V283.2M201.7,332.7V309.3m173.2,23.4V309.3m124.5,23.4V309.3M201.7,356.1V332.7m173.2,23.4V332.7m124.5,23.4V332.7M201.7,383.8V356.1m173.2,27.7V356.1" class="g1_1193"/>
<path d="M383.7,383.8h101V356.1h-101v27.7Z" class="g2_1193"/>
<path d="M499.4,383.8V356.1M201.7,407.2V383.8m173.2,23.4V383.8m124.5,23.4V383.8M201.7,430.5V407.2m173.2,23.3V407.2m124.5,23.3V407.2m-297.7,51V430.5m173.2,27.7V430.5" class="g1_1193"/>
<path d="M383.7,458.2h87.1V430.5H383.7v27.7Z" class="g2_1193"/>
<path d="M499.4,458.2V430.5M201.7,481.6V458.2m173.2,23.4V458.2m124.5,23.4V458.2M201.7,505V481.6M374.9,505V481.6M499.4,505V481.6M201.7,531.1V505m173.2,26.1V505" class="g1_1193"/>
<path d="M383.7,528.5H471V505H383.7v23.5Z" class="g2_1193"/>
<path d="M499.4,531.1V505M201.7,554.5V531.1m173.2,23.4V531.1m124.5,23.4V531.1M201.7,577.9V554.5m173.2,23.4V554.5m124.5,23.4V554.5M201.7,605.6V577.9m173.2,27.7V577.9" class="g1_1193"/>
<path d="M383.7,605.6h92.6V577.9H383.7v27.7Z" class="g2_1193"/>
<path d="M499.4,605.6V577.9m-297.7,51V605.6m173.2,23.3V605.6m124.5,23.3V605.6M201.7,652.3V628.9m173.2,23.4V628.9m124.5,23.4V628.9M201.7,676.5V652.3m173.2,24.2V652.3" class="g1_1193"/>
<path d="M383.7,673.8H490.6V655.2H383.7v18.6Z" class="g2_1193"/>
<path d="M499.4,676.5V652.3M201.7,699.8V676.5m173.2,23.3V676.5m124.5,23.3V676.5M201.7,723.2V699.8m173.2,23.4V699.8m124.5,23.4V699.8M201.7,747.4V723.2m173.2,24.2V723.2" class="g1_1193"/>
<path d="M383.7,744.7h50.1V726.1H383.7v18.6Z" class="g2_1193"/>
<path d="M499.4,747.4V723.2M201.7,770.7V747.4m173.2,23.3V747.4m124.5,23.3V747.4M201.7,771H499.4M516.9,109.5H822.4M516.9,133.1V109.7m163.5,23.4V109.7m142,23.4V109.7M516.9,159.2V133.1m163.5,26.1V133.1" class="g1_1193"/>
<path d="M689.2,156.6h70.9V133.1H689.2v23.5Z" class="g2_1193"/>
<path d="M822.4,159.2V133.1M516.9,182.6V159.2m163.5,23.4V159.2m142,23.4V159.2M516.9,206V182.6M680.4,206V182.6m142,23.4V182.6M516.9,233.7V206m163.5,27.7V206" class="g1_1193"/>
<path d="M689.2,233.7H759V206H689.2v27.7Z" class="g2_1193"/>
<path d="M822.4,233.7V206M516.9,257.1V233.7m163.5,23.4V233.7m142,23.4V233.7M516.9,280.4V257.1m163.5,23.3V257.1m142,23.3V257.1M516.9,306.6V280.4m163.5,26.2V280.4" class="g1_1193"/>
<path d="M689.2,303.9H813.6V280.4H689.2v23.5Z" class="g2_1193"/>
<path d="M822.4,306.6V280.4M516.9,329.9V306.6m163.5,23.3V306.6m142,23.3V306.6M516.9,353.3V329.9m163.5,23.4V329.9m142,23.4V329.9M516.9,379.4V353.3m163.5,26.1V353.3" class="g1_1193"/>
<path d="M689.2,376.8H753V353.3H689.2v23.5Z" class="g2_1193"/>
<path d="M822.4,379.4V353.3M516.9,402.8V379.4m163.5,23.4V379.4m142,23.4V379.4M516.9,426.2V402.8m163.5,23.4V402.8m142,23.4V402.8M516.9,453.9V426.2m163.5,27.7V426.2" class="g1_1193"/>
<path d="M689.2,453.9h70.7V426.2H689.2v27.7Z" class="g2_1193"/>
<path d="M822.4,453.9V426.2M516.9,477.3V453.9m163.5,23.4V453.9m142,23.4V453.9M516.9,500.6V477.3m163.5,23.3V477.3m142,23.3V477.3M516.9,526.8V500.6m163.5,26.2V500.6" class="g1_1193"/>
<path d="M689.2,524.1h53.9V500.6H689.2v23.5Z" class="g2_1193"/>
<path d="M822.4,526.8V500.6M516.9,550.1V526.8m163.5,23.3V526.8m142,23.3V526.8M516.9,573.5V550.1m163.5,23.4V550.1m142,23.4V550.1M516.9,601.2V573.5m163.5,27.7V573.5" class="g1_1193"/>
<path d="M689.2,601.2H809.1V573.5H689.2v27.7Z" class="g2_1193"/>
<path d="M822.4,601.2V573.5M516.9,624.6V601.2m163.5,23.4V601.2m142,23.4V601.2M516.9,648V624.6M680.4,648V624.6m142,23.4V624.6M516.9,675.7V648m163.5,27.7V648" class="g1_1193"/>
<path d="M689.2,675.7H812.8V648H689.2v27.7Z" class="g2_1193"/>
<path d="M822.4,675.7V648M516.9,699V675.7M680.4,699V675.7m142,23.3V675.7M516.9,722.4V699m163.5,23.4V699m142,23.4V699M516.9,750.1V722.4m163.5,27.7V722.4" class="g1_1193"/>
<path d="M689.2,750.1h44.5V722.4H689.2v27.7Z" class="g2_1193"/>
<path d="M822.4,750.1V722.4M516.9,773.5V750.1m163.5,23.4V750.1m142,23.4V750.1M516.9,773.8H822.4M839.9,111H1102M839.9,134.7V111.3m114.9,23.4V111.3M1102,134.7V111.3M839.9,162.4V134.7m114.9,27.7V134.7" class="g1_1193"/>
<path d="M963.5,162.4H1032V134.7H963.5v27.7Z" class="g2_1193"/>
<path d="M1102,162.4V134.7M839.9,185.8V162.4m114.9,23.4V162.4M1102,185.8V162.4M839.9,209.2V185.8m114.9,23.4V185.8M1102,209.2V185.8m-262.1,51V209.2m114.9,27.6V209.2" class="g1_1193"/>
<path d="M963.5,236.8h58.7V209.2H963.5v27.6Z" class="g2_1193"/>
<path d="M1102,236.8V209.2m-262.1,51V236.8m114.9,23.4V236.8M1102,260.2V236.8M839.9,283.6V260.2m114.9,23.4V260.2M1102,283.6V260.2M839.9,309.7V283.6m114.9,26.1V283.6" class="g1_1193"/>
<path d="M963.5,307.1H1038V283.6H963.5v23.5Z" class="g2_1193"/>
<path d="M1102,309.7V283.6M839.9,333.1V309.7m114.9,23.4V309.7M1102,333.1V309.7M839.9,356.5V333.1m114.9,23.4V333.1M1102,356.5V333.1M839.9,382.6V356.5m114.9,26.1V356.5" class="g1_1193"/>
<path d="M963.5,380h93.7V356.5H963.5V380Z" class="g2_1193"/>
<path d="M1102,382.6V356.5M839.9,406V382.6M954.8,406V382.6M1102,406V382.6M839.9,429.4V406m114.9,23.4V406M1102,429.4V406M839.9,455.5V429.4m114.9,26.1V429.4" class="g1_1193"/>
<path d="M963.5,452.8h112.9V429.4H963.5v23.4Z" class="g2_1193"/>
<path d="M1102,455.5V429.4M839.9,478.8V455.5m114.9,23.3V455.5M1102,478.8V455.5M839.9,502.2V478.8m114.9,23.4V478.8M1102,502.2V478.8M839.9,529.9V502.2m114.9,27.7V502.2" class="g1_1193"/>
<path d="M963.5,529.9h91V502.2h-91v27.7Z" class="g2_1193"/>
<path d="M1102,529.9V502.2M839.9,553.3V529.9m114.9,23.4V529.9M1102,553.3V529.9M839.9,576.7V553.3m114.9,23.4V553.3M1102,576.7V553.3M839.9,602.8V576.7m114.9,26.1V576.7" class="g1_1193"/>
<path d="M963.5,600.2h90V576.7h-90v23.5Z" class="g2_1193"/>
<path d="M1102,602.8V576.7M839.9,626.2V602.8m114.9,23.4V602.8M1102,626.2V602.8M839.9,649.6V626.2m114.9,23.4V626.2M1102,649.6V626.2M839.9,675.7V649.6m114.9,26.1V649.6" class="g1_1193"/>
<path d="M963.5,673h129.8V649.6H963.5V673Z" class="g2_1193"/>
<path d="M1102,675.7V649.6M839.9,699V675.7M954.8,699V675.7M1102,699V675.7M839.9,722.4V699m114.9,23.4V699M1102,722.4V699M839.9,748.5V722.4m114.9,26.1V722.4" class="g1_1193"/>
<path d="M963.5,745.9H1058V722.4H963.5v23.5Z" class="g2_1193"/>
<path d="M1102,748.5V722.4M839.9,771.9V748.5m114.9,23.4V748.5M1102,771.9V748.5M839.9,772.2H1102" class="g1_1193"/>
</svg>