<?xml version="1.0" encoding="UTF-8" standalone="no"?>
<!DOCTYPE svg PUBLIC "-//W3C//DTD SVG 1.1//EN"
"http://www.w3.org/Graphics/SVG/1.1/DTD/svg11.dtd">
<svg viewBox="0 0 1286 909" version="1.1" xmlns="http://www.w3.org/2000/svg" xmlns:xlink="http://www.w3.org/1999/xlink">
<defs>
<style type="text/css"><![CDATA[
.g0_1198{
fill: none;
stroke: #000000;
stroke-width: 0.73;
stroke-linecap: butt;
stroke-linejoin: miter;
}
.g1_1198{
fill: #FDE8E9;
}
]]></style>
</defs>
<path d="M193,83.4h900.3M203.9,112.5H518.6M203.9,142.1V112.9m192.2,29.2V112.9m122.5,29.2V112.9M203.9,172.2V142.1m192.2,30.1V142.1" class="g0_1198"/>
<path d="M407,169h78.4V145.6H407V169Z" class="g1_1198"/>
<path d="M518.6,172.2V142.1M203.9,201.5V172.2m192.2,29.3V172.2m122.5,29.3V172.2M203.9,230.7V201.5m192.2,29.2V201.5m122.5,29.2V201.5M203.9,263.3V230.7m192.2,32.6V230.7" class="g0_1198"/>
<path d="M407,260h69.9V230.7H407V260Z" class="g1_1198"/>
<path d="M518.6,263.3V230.7M203.9,292.6V263.3m192.2,29.3V263.3m122.5,29.3V263.3M203.9,321.8V292.6m192.2,29.2V292.6m122.5,29.2V292.6M203.9,356.4V321.8m192.2,34.6V321.8" class="g0_1198"/>
<path d="M407,356.4H507.6V321.8H407v34.6Z" class="g1_1198"/>
<path d="M518.6,356.4V321.8M203.9,385.6V356.4m192.2,29.2V356.4m122.5,29.2V356.4M203.9,414.8V385.6m192.2,29.2V385.6m122.5,29.2V385.6M203.9,447.5V414.8m192.2,32.7V414.8" class="g0_1198"/>
<path d="M407,444.2h60.3V414.8H407v29.4Z" class="g1_1198"/>
<path d="M518.6,447.5V414.8M203.9,476.7V447.5m192.2,29.2V447.5m122.5,29.2V447.5M203.9,505.9V476.7m192.2,29.2V476.7m122.5,29.2V476.7M203.9,538.6V505.9m192.2,32.7V505.9" class="g0_1198"/>
<path d="M407,535.3h95.5V505.9H407v29.4Z" class="g1_1198"/>
<path d="M518.6,538.6V505.9M203.9,567.8V538.6m192.2,29.2V538.6m122.5,29.2V538.6M203.9,597V567.8M396.1,597V567.8M518.6,597V567.8M203.9,629.7V597m192.2,32.7V597" class="g0_1198"/>
<path d="M407,626.4h71.5V597H407v29.4Z" class="g1_1198"/>
<path d="M518.6,629.7V597M203.9,658.9V629.7m192.2,29.2V629.7m122.5,29.2V629.7M203.9,688.1V658.9m192.2,29.2V658.9m122.5,29.2V658.9M203.9,722.7V688.1m192.2,34.6V688.1" class="g0_1198"/>
<path d="M407,722.7h83.7V688.1H407v34.6Z" class="g1_1198"/>
<path d="M518.6,722.7V688.1M203.9,752V722.7M396.1,752V722.7M518.6,752V722.7M203.9,752.3H518.6M540.5,112.2H752.1M540.5,141.8V112.6m94.9,29.2V112.6m116.7,29.2V112.6M540.5,174.5V141.8m94.9,32.7V141.8" class="g0_1198"/>
<path d="M646.3,171.2h56.2V141.8H646.3v29.4Z" class="g1_1198"/>
<path d="M752.1,174.5V141.8M540.5,203.7V174.5m94.9,29.2V174.5m116.7,29.2V174.5M540.5,232.9V203.7m94.9,29.2V203.7m116.7,29.2V203.7M540.5,265.6V232.9m94.9,32.7V232.9" class="g0_1198"/>
<path d="M646.3,262.3h79.9V232.9H646.3v29.4Z" class="g1_1198"/>
<path d="M752.1,265.6V232.9M540.5,294.8V265.6m94.9,29.2V265.6m116.7,29.2V265.6M540.5,324V294.8M635.4,324V294.8M752.1,324V294.8M540.5,356.7V324m94.9,32.7V324" class="g0_1198"/>
<path d="M646.3,353.4h94.8V324H646.3v29.4Z" class="g1_1198"/>
<path d="M752.1,356.7V324M540.5,385.9V356.7m94.9,29.2V356.7m116.7,29.2V356.7M540.5,415.1V385.9m94.9,29.2V385.9m116.7,29.2V385.9M540.5,447.7V415.1m94.9,32.6V415.1" class="g0_1198"/>
<path d="M646.3,444.5h63.1V415.1H646.3v29.4Z" class="g1_1198"/>
<path d="M752.1,447.7V415.1M540.5,477V447.7M635.4,477V447.7M752.1,477V447.7M540.5,506.2V477m94.9,29.2V477m116.7,29.2V477M540.5,538.8V506.2m94.9,32.6V506.2" class="g0_1198"/>
<path d="M646.3,535.5h34.6V506.2H646.3v29.3Z" class="g1_1198"/>
<path d="M752.1,538.8V506.2M540.5,568.1V538.8m94.9,29.3V538.8m116.7,29.3V538.8M540.5,597.3V568.1m94.9,29.2V568.1m116.7,29.2V568.1M540.5,631.9V597.3m94.9,34.6V597.3" class="g0_1198"/>
<path d="M646.3,631.9h84.6V597.3H646.3v34.6Z" class="g1_1198"/>
<path d="M752.1,631.9V597.3M540.5,661.1V631.9m94.9,29.2V631.9m116.7,29.2V631.9M540.5,690.3V661.1m94.9,29.2V661.1m116.7,29.2V661.1M540.5,723V690.3M635.4,723V690.3" class="g0_1198"/>
<path d="M646.3,719.7h47.2V690.3H646.3v29.4Z" class="g1_1198"/>
<path d="M752.1,723V690.3M540.5,752.2V723m94.9,29.2V723m116.7,29.2V723M540.5,752.6H752.1M774,109.5h276.1M774,139.1V109.9m119.2,29.2V109.9m156.9,29.2V109.9M774,171.3V139.1m119.2,32.2V139.1" class="g0_1198"/>
<path d="M904.1,171.3H981V142.7H904.1v28.6Z" class="g1_1198"/>
<path d="M1050.1,171.3V139.1M774,200.5V171.3m119.2,29.2V171.3m156.9,29.2V171.3M774,229.7V200.5m119.2,29.2V200.5m156.9,29.2V200.5M774,264.3V229.7m119.2,34.6V229.7" class="g0_1198"/>
<path d="M904.1,264.3h76.1V229.7H904.1v34.6Z" class="g1_1198"/>
<path d="M1050.1,264.3V229.7M774,293.5V264.3m119.2,29.2V264.3m156.9,29.2V264.3M774,322.8V293.5m119.2,29.3V293.5m156.9,29.3V293.5M774,357.4V322.8m119.2,34.6V322.8" class="g0_1198"/>
<path d="M904.1,357.4h92.8V322.8H904.1v34.6Z" class="g1_1198"/>
<path d="M1050.1,357.4V322.8M774,386.6V357.4m119.2,29.2V357.4m156.9,29.2V357.4M774,415.8V386.6m119.2,29.2V386.6m156.9,29.2V386.6M774,450.4V415.8m119.2,34.6V415.8" class="g0_1198"/>
<path d="M904.1,450.4h76.3V415.8H904.1v34.6Z" class="g1_1198"/>
<path d="M1050.1,450.4V415.8M774,479.7V450.4m119.2,29.3V450.4m156.9,29.3V450.4M774,508.9V479.7m119.2,29.2V479.7m156.9,29.2V479.7M774,541.5V508.9m119.2,32.6V508.9" class="g0_1198"/>
<path d="M904.1,538.3h99.5V508.9H904.1v29.4Z" class="g1_1198"/>
<path d="M1050.1,541.5V508.9M774,570.8V541.5m119.2,29.3V541.5m156.9,29.3V541.5M774,600V570.8M893.2,600V570.8M1050.1,600V570.8M774,632.6V600m119.2,32.6V600" class="g0_1198"/>
<path d="M904.1,629.3h58.4V600H904.1v29.3Z" class="g1_1198"/>
<path d="M1050.1,632.6V600M774,661.9V632.6m119.2,29.3V632.6m156.9,29.3V632.6M774,691.1V661.9m119.2,29.2V661.9m156.9,29.2V661.9M774,725.7V691.1m119.2,34.6V691.1" class="g0_1198"/>
<path d="M904.1,725.7h135V691.1h-135v34.6Z" class="g1_1198"/>
<path d="M1050.1,725.7V691.1M774,754.9V725.7m119.2,29.2V725.7m156.9,29.2V725.7M774,755.3h276.1" class="g0_1198"/>
</svg>