<?xml version="1.0" encoding="UTF-8" standalone="no"?>
<!DOCTYPE svg PUBLIC "-//W3C//DTD SVG 1.1//EN"
"http://www.w3.org/Graphics/SVG/1.1/DTD/svg11.dtd">
<svg viewBox="0 0 909 1286" version="1.1" xmlns="http://www.w3.org/2000/svg" xmlns:xlink="http://www.w3.org/1999/xlink">
<defs>
<style type="text/css"><![CDATA[
.g0_23{
fill: none;
stroke: #000000;
stroke-width: 0.73;
stroke-linecap: butt;
stroke-linejoin: miter;
}
.g1_23{
fill: none;
stroke: #F81693;
stroke-width: 0.73;
stroke-linecap: butt;
stroke-linejoin: miter;
}
.g2_23{
fill: none;
stroke: #5EE200;
stroke-width: 0.73;
stroke-linecap: butt;
stroke-linejoin: miter;
}
.g3_23{
fill: none;
stroke: #7F7F7F;
stroke-width: 0.73;
stroke-linecap: butt;
stroke-linejoin: miter;
}
.g4_23{
fill: none;
stroke: #02B5EE;
stroke-width: 0.73;
stroke-linecap: butt;
stroke-linejoin: miter;
}
.g5_23{
fill: none;
stroke: #5EE200;
stroke-width: 1.461;
stroke-linecap: butt;
stroke-linejoin: miter;
}
.g6_23{
fill: none;
stroke: #02B5EE;
stroke-width: 1.461;
stroke-linecap: butt;
stroke-linejoin: miter;
}
.g7_23{
fill: #FFFFFF;
}
.g8_23{
fill: #FDE8E9;
}
]]></style>
</defs>
<path d="M116.9,179.9H754.3m-374,29.6V180.3M248.5,228.5l31.2,18.6m0,36.7V247.3m-31.2,55.3L279.7,284m-31.2,18.6L217.2,284m0,-.2V247.3m31.3,-18.8l-31.3,18.6m32.3,-11l23.1,13.7M249.5,295l23.1,-13.7m-49.4,-2.2V252m109.6,1L301.6,234.3M332.8,253l31.3,-18.7m-30.2,11L357,231.6m-77.3,15.7l21.9,-13.2m-120,2l-18.3,11m53.9,.2L195.3,234.1m21.9,49.7L195.3,297m185,12.6V209.5" class="g0_23"/>
<path d="M558.5,232.3l18.2,11m6.6,40.5V256.4m-31.2,46.2L583.3,284m-31.2,18.6L527.2,287.8m-6.4,-11.3V256.4m24.9,-24.1l-18.3,11m31.1,-5l18.2,11M553.2,295l23,-13.7m-49.3,-4.8V256.4" class="g1_23"/>
<path d="M638.3,250.8L607.1,232.1m31.2,18.7l31.2,-18.7m-30.1,11l23,-13.7" class="g2_23"/>
<path d="M588.8,242.9l18.3,-11" class="g3_23"/>
<path d="M483.4,234l-18.3,10.9" class="g4_23"/>
<path d="M515.4,242.9l-18.3,-11" class="g3_23"/>
<path d="M515.4,288.2l-18.3,11" class="g1_23"/>
<path d="M380.3,338.8V309.6m0,58.4V338.8" class="g0_23"/>
<path d="M446.2,366.6c1.4,0,2.1,-2.8,3.5,-2.8c1,0,1.8,1.4,2.7,2.8c.9,1.4,1.7,2.7,2.7,2.7c1,0,1.9,-1.3,2.8,-2.7c.9,-1.4,1.7,-2.8,2.7,-2.8c1.4,0,2.1,2.8,3.4,2.8h3.9" class="g5_23"/>
<path d="M516.8,366.6c1.4,0,2.1,-2.8,3.5,-2.8c.9,0,1.8,1.4,2.7,2.8c.9,1.4,1.7,2.7,2.7,2.7c1,0,1.9,-1.3,2.8,-2.7c.9,-1.4,1.7,-2.8,2.7,-2.8c1.4,0,2.1,2.8,3.4,2.8h3.9" class="g6_23"/>
<path d="M380.3,397.2V368m0,105V397.2" class="g0_23"/>
<path d="M457.9,465.2V405c0,-2.8,2.4,-5.2,5.2,-5.2H630.4c2.8,0,5.2,2.4,5.2,5.2v60.2c0,2.8,-2.4,5.2,-5.2,5.2H463.1c-2.8,0,-5.2,-2.4,-5.2,-5.2Z" class="g7_23"/>
<path d="M513.1,496.1h67.3V479.4H513.1v16.7Z" class="g8_23"/>
<path d="M483.9,454.8H609.6V415.4H483.9v39.4Z" class="g8_23"/>
<path d="M380.3,502.2V473M116.9,502.6H754.3" class="g0_23"/>
</svg>