<?xml version="1.0" encoding="UTF-8" standalone="no"?>
<!DOCTYPE svg PUBLIC "-//W3C//DTD SVG 1.1//EN"
"http://www.w3.org/Graphics/SVG/1.1/DTD/svg11.dtd">
<svg viewBox="0 0 909 1286" version="1.1" xmlns="http://www.w3.org/2000/svg" xmlns:xlink="http://www.w3.org/1999/xlink">
<defs>
<clipPath id="c0_15"><path d="M122.1,376.3V345.4h30.8v30.9Z"/></clipPath>
<clipPath id="c1_15"><path d="M122.1,376.3v-31H153v31Z"/></clipPath>
<style type="text/css"><![CDATA[
.g0_15{
fill: #FFFFFF;
}
.g1_15{
fill: none;
stroke: #000000;
stroke-width: 1.461;
stroke-linecap: butt;
stroke-linejoin: miter;
}
.g2_15{
fill: none;
stroke: #000000;
stroke-width: 0.73;
stroke-linecap: butt;
stroke-linejoin: miter;
}
.g3_15{
fill: none;
stroke: #000000;
stroke-width: 2.739;
stroke-linecap: butt;
stroke-linejoin: miter;
}
.g4_15{
}
]]></style>
</defs>
<path d="M117.7,179.5V297H791.8V179.5Z" class="g0_15"/>
<path d="M117.7,179.5V297H791.8V179.5" class="g1_15"/>
<path d="M366.3,181.8h87.2m-86.8,29.3V181.8m86.4,29.3V181.8m-86.8,29.3h87.2M487,181.8h87.2m-86.8,29.3V181.8m86.4,29.3V181.8M487,211.1h87.2" class="g2_15"/>
<path d="M137.6,198.2v91.2" class="g3_15"/>
<path d="M117.7,627.1V338.7H791.8V627.1Z" class="g0_15"/>
<path d="M117.7,627.1V338.7H791.8V627.1Z" class="g1_15"/>
<path d="M360.4,409.6h77.8m-77.4,27.8V409.6m77,27.8V409.6m-77.4,27.8h77.8m57.2,-27.8h84.7m-84.3,27.8V409.6m83.9,27.8V409.6m-84.3,27.8h84.7M360.4,511.9h84.7m-84.3,27.8V511.9m83.9,27.8V511.9m-84.3,27.8h84.7m57.2,-27.8h77.8m-77.4,27.8V511.9m77,27.8V511.9m-77.4,27.8h77.8" class="g2_15"/>
<g clip-path="url(#c1_15)">
<path clip-path="url(#c0_15)" d="M141.2,368.9c-3.2,0,-6.1,-1.2,-8.4,-3.4c-2.2,-2.2,-3.4,-5.2,-3.4,-8.3c0,-3.2,1.2,-6.1,3.4,-8.3c2.3,-2.3,5.2,-3.5,8.4,-3.5c3.1,0,6.1,1.2,8.3,3.5c4.6,4.6,4.6,12,0,16.6c-2.2,2.2,-5.2,3.4,-8.3,3.4Z" class="g4_15"/>
<path d="M141.2,347.5c-2.6,0,-5.1,1,-6.9,2.8c-3.8,3.8,-3.8,10,0,13.8c1.8,1.8,4.3,2.8,6.9,2.8c2.6,0,5,-1,6.8,-2.8c1.9,-1.9,2.9,-4.3,2.9,-6.9c0,-2.6,-1,-5.1,-2.9,-6.9c-1.8,-1.8,-4.2,-2.8,-6.8,-2.8Z" class="g0_15"/>
<path d="M124.4,376.3l-2.3,-2.4l8.6,-8.6l2.4,2.4Z" class="g4_15"/>
</g>
<path d="M152.7,370.1H390.3" class="g2_15"/>
<path d="M137.6,376.7v241" class="g3_15"/>
</svg>