<?xml version="1.0" encoding="UTF-8" standalone="no"?>
<!DOCTYPE svg PUBLIC "-//W3C//DTD SVG 1.1//EN"
"http://www.w3.org/Graphics/SVG/1.1/DTD/svg11.dtd">
<svg viewBox="0 0 1286 909" version="1.1" xmlns="http://www.w3.org/2000/svg" xmlns:xlink="http://www.w3.org/1999/xlink">
<defs>
<style type="text/css"><![CDATA[
.g0_1145{
fill: none;
stroke: #000000;
stroke-width: 0.73;
stroke-linecap: butt;
stroke-linejoin: miter;
}
.g1_1145{
fill: none;
stroke: #5EE200;
stroke-width: 1.262;
stroke-linecap: butt;
stroke-linejoin: miter;
}
.g2_1145{
fill: none;
stroke: #02B5EE;
stroke-width: 1.262;
stroke-linecap: butt;
stroke-linejoin: miter;
}
.g3_1145{
fill: none;
stroke: #F81693;
stroke-width: 1.262;
stroke-linecap: butt;
stroke-linejoin: miter;
}
.g4_1145{
fill: none;
stroke: #F81693;
stroke-width: 0.73;
stroke-linecap: butt;
stroke-linejoin: miter;
}
.g5_1145{
fill: none;
stroke: #5EE200;
stroke-width: 0.73;
stroke-linecap: butt;
stroke-linejoin: miter;
}
.g6_1145{
fill: none;
stroke: #02B5EE;
stroke-width: 0.73;
stroke-linecap: butt;
stroke-linejoin: miter;
}
]]></style>
</defs>
<path d="M193,83.4h900.3M193,111.6h865.6m-865.6,0h865.6M503.4,141.2V112m0,58.5V141.2m0,114.3v-85" class="g0_1145"/>
<path d="M693.3,231.5h76.9" class="g1_1145"/>
<path d="M780.7,231.5H954.9" class="g2_1145"/>
<path d="M965.4,231.5h58" class="g3_1145"/>
<path d="M503.4,284.7V255.5m0,102.3V284.7" class="g0_1145"/>
<path d="M834.5,343.9H951" class="g4_1145"/>
<path d="M957.1,343.9h33.8" class="g5_1145"/>
<path d="M997,343.9h33.8" class="g6_1145"/>
<path d="M503.4,387V357.8m0,58.4V387m0,128.8V416.2" class="g0_1145"/>
<path d="M693.5,477.3h76.9" class="g1_1145"/>
<path d="M780.9,477.3h174" class="g2_1145"/>
<path d="M965.4,477.3h58" class="g3_1145"/>
<path d="M503.4,545V515.8m0,102.2V545" class="g0_1145"/>
<path d="M817.6,604.2H934.1" class="g4_1145"/>
<path d="M940.2,604.2H974" class="g5_1145"/>
<path d="M980.1,604.2h50.7" class="g6_1145"/>
<path d="M503.4,647.3V618m0,58.5V647.3m0,63.6V676.5m0,63.7V710.9M193,740.5h865.6m-865.6,0h865.6" class="g0_1145"/>
</svg>