<?xml version="1.0" encoding="UTF-8" standalone="no"?>
<!DOCTYPE svg PUBLIC "-//W3C//DTD SVG 1.1//EN"
"http://www.w3.org/Graphics/SVG/1.1/DTD/svg11.dtd">
<svg viewBox="0 0 909 1286" version="1.1" xmlns="http://www.w3.org/2000/svg" xmlns:xlink="http://www.w3.org/1999/xlink">
<defs>
<style type="text/css"><![CDATA[
.g0_16{
fill: none;
stroke: #000000;
stroke-width: 0.73;
stroke-linecap: butt;
stroke-linejoin: miter;
}
.g1_16{
fill: none;
stroke: #F81693;
stroke-width: 0.73;
stroke-linecap: butt;
stroke-linejoin: miter;
}
]]></style>
</defs>
<path d="M116.9,282.3H517.4M285.3,311.9V282.7m-84.3,72l31.2,18.6m0,36.7V373.5M201,428.8l31.2,-18.6M201,428.8L169.7,410.2m0,-.2V373.5M201,354.7l-31.3,18.6m32.4,-11l23,13.7m-23,45.2l23,-13.7m-49.3,-2.2V378.2M201,354.7V329.1m84.3,152.3V311.9" class="g0_16"/>
<path d="M409.6,354.7l31.2,18.6m0,36.7V373.5m-31.2,55.3l31.2,-18.6m-31.2,18.6L378.4,410.2m0,-.2V373.5m31.2,-18.8l-31.2,18.6m32.3,-11l23,13.7m-23,45.2l23,-13.7m-49.3,-2.2V378.2" class="g1_16"/>
<path d="M409.6,354.7V329.1M285.3,510.7V481.4m0,58.5V510.7m0,58.4V539.9m0,58.4V569.1m0,58.5V598.3m0,58.5V627.6m0,58.4V656.8M116.9,686.4H517.4M285.3,716V686.7m-84.3,72l31.2,18.6m0,36.7V777.5M201,832.9l31.2,-18.7M201,832.9L169.7,814.2m0,-.2V777.5M201,758.7l-31.3,18.6m32.4,-10.9l23,13.7m-23,45.1l23,-13.7m-49.3,-2.2v-27M201,758.7V733.1m84.3,152.4V716" class="g0_16"/>
<path d="M403.5,758.7l31.3,18.6m0,36.7V777.5m-31.3,55.4l31.3,-18.7m-31.3,18.7L372.3,814.2m0,-.2V777.5m31.2,-18.8l-31.2,18.6m32.3,-10.9l23,13.7m-23,45.1l23,-13.7m-49.3,-2.2v-27" class="g1_16"/>
<path d="M403.5,758.7V733.1M285.3,914.7V885.5m0,58.4V914.7m0,58.4V943.9m0,58.5V973.1m0,58.5v-29.2m0,58.4v-29.2m0,58.4v-29.2m-168.4,29.6H517.4" class="g0_16"/>
</svg>