<?xml version="1.0" encoding="UTF-8" standalone="no"?>
<!DOCTYPE svg PUBLIC "-//W3C//DTD SVG 1.1//EN"
"http://www.w3.org/Graphics/SVG/1.1/DTD/svg11.dtd">
<svg viewBox="0 0 1286 909" version="1.1" xmlns="http://www.w3.org/2000/svg" xmlns:xlink="http://www.w3.org/1999/xlink">
<defs>
<style type="text/css"><![CDATA[
.g0_433{
fill: none;
stroke: #000000;
stroke-width: 0.73;
stroke-linecap: butt;
stroke-linejoin: miter;
}
.g1_433{
fill: none;
stroke: #02B5EE;
stroke-width: 1.262;
stroke-linecap: butt;
stroke-linejoin: miter;
}
.g2_433{
fill: none;
stroke: #02B5EE;
stroke-width: 0.73;
stroke-linecap: butt;
stroke-linejoin: miter;
}
]]></style>
</defs>
<path d="M193,83.4h900.3M193,210.6H831.8m-638.8,0H831.8M462.4,240.2V211m0,58.5V240.2m0,114.3v-85" class="g0_433"/>
<path d="M477.1,330.5h75.4" class="g1_433"/>
<path d="M462.4,383.7V354.5m0,102.3V383.7" class="g0_433"/>
<path d="M787,442.9h33.8" class="g2_433"/>
<path d="M462.4,486V456.8m0,58.4V486m0,114.2v-85" class="g0_433"/>
<path d="M473.3,576.2h79.2" class="g1_433"/>
<path d="M462.4,629.5V600.2m0,102.3v-73" class="g0_433"/>
<path d="M787,688.6h33.8" class="g2_433"/>
<path d="M462.4,731.7V702.5m0,58.5V731.7M193,761.3H831.8m-638.8,0H831.8" class="g0_433"/>
</svg>