<?xml version="1.0" encoding="UTF-8" standalone="no"?>
<!DOCTYPE svg PUBLIC "-//W3C//DTD SVG 1.1//EN"
"http://www.w3.org/Graphics/SVG/1.1/DTD/svg11.dtd">
<svg viewBox="0 0 1286 909" version="1.1" xmlns="http://www.w3.org/2000/svg" xmlns:xlink="http://www.w3.org/1999/xlink">
<defs>
<style type="text/css"><![CDATA[
.g0_351{
fill: none;
stroke: #000000;
stroke-width: 0.73;
stroke-linecap: butt;
stroke-linejoin: miter;
}
.g1_351{
fill: #B3E9FA;
}
.g2_351{
fill: none;
stroke: #02B5EE;
stroke-width: 1.262;
stroke-linecap: butt;
stroke-linejoin: miter;
}
.g3_351{
fill: none;
stroke: #5EE200;
stroke-width: 1.262;
stroke-linecap: butt;
stroke-linejoin: miter;
}
.g4_351{
fill: none;
stroke: #02B5EE;
stroke-width: 0.73;
stroke-linecap: butt;
stroke-linejoin: miter;
}
]]></style>
</defs>
<path d="M193,83.4h900.3M193,210.6H889.8m-696.8,0H889.8M495.7,240.2V211m0,58.5V240.2m0,114.3v-85" class="g0_351"/>
<path d="M696,311V299.7c0,-2.8,2.4,-5.2,5.2,-5.2h81.3c2.9,0,5.2,2.4,5.2,5.2V311c0,2.9,-2.3,5.2,-5.2,5.2H701.2c-2.8,0,-5.2,-2.3,-5.2,-5.2Z" class="g1_351"/>
<path d="M693.4,330.5h96.9" class="g2_351"/>
<path d="M800.9,330.5h78" class="g3_351"/>
<path d="M495.7,383.7V354.5m0,58.4V383.7m0,114.3V412.9" class="g0_351"/>
<path d="M586.8,474H749.5" class="g2_351"/>
<path d="M495.7,528.1V498m0,103.2V528.1" class="g0_351"/>
<path d="M726.9,587.3h152" class="g4_351"/>
<path d="M495.7,632.5V601.2m0,60.5V632.5M193,662.1H889.8m-696.8,0H889.8" class="g0_351"/>
</svg>