<?xml version="1.0" encoding="UTF-8" standalone="no"?>
<!DOCTYPE svg PUBLIC "-//W3C//DTD SVG 1.1//EN"
"http://www.w3.org/Graphics/SVG/1.1/DTD/svg11.dtd">
<svg viewBox="0 0 1286 909" version="1.1" xmlns="http://www.w3.org/2000/svg" xmlns:xlink="http://www.w3.org/1999/xlink">
<defs>
<style type="text/css"><![CDATA[
.g0_36{
fill: none;
stroke: #000000;
stroke-width: 0.73;
stroke-linecap: butt;
stroke-linejoin: miter;
}
.g1_36{
fill: none;
stroke: #02B5EE;
stroke-width: 1.262;
stroke-linecap: butt;
stroke-linejoin: miter;
}
.g2_36{
fill: none;
stroke: #02B5EE;
stroke-width: 0.73;
stroke-linecap: butt;
stroke-linejoin: miter;
}
.g3_36{
fill: #B3E9FA;
}
.g4_36{
fill: none;
stroke: #5EE200;
stroke-width: 1.262;
stroke-linecap: butt;
stroke-linejoin: miter;
}
]]></style>
</defs>
<path d="M193,83.4h900.3M193,210.6H936.3m-743.3,0H936.3M546.7,240.2V211m0,58.5V240.2m0,114.3v-85" class="g0_36"/>
<path d="M610.2,330.5h92.7" class="g1_36"/>
<path d="M546.7,383.7V354.5m0,102.3V383.7" class="g0_36"/>
<path d="M857.8,442.9h67.5" class="g2_36"/>
<path d="M546.7,486V456.8m0,102.2V486" class="g0_36"/>
<path d="M557.7,545.2h67.5" class="g2_36"/>
<path d="M546.7,588.3V559m0,58.5V588.3m0,58.4V617.5m0,114.2v-85" class="g0_36"/>
<path d="M597.2,682V669.8c0,-2.9,2.3,-5.2,5.2,-5.2H740.9c2.8,0,5.2,2.3,5.2,5.2V682c0,2.8,-2.4,5.2,-5.2,5.2H602.4c-2.9,0,-5.2,-2.4,-5.2,-5.2Z" class="g3_36"/>
<path d="M594.6,707.8H748.7" class="g1_36"/>
<path d="M759.2,707.8H925.3" class="g4_36"/>
<path d="M546.7,761V731.7" class="g0_36"/>
</svg>