<?xml version="1.0" encoding="UTF-8" standalone="no"?>
<!DOCTYPE svg PUBLIC "-//W3C//DTD SVG 1.1//EN"
"http://www.w3.org/Graphics/SVG/1.1/DTD/svg11.dtd">
<svg viewBox="0 0 1286 909" version="1.1" xmlns="http://www.w3.org/2000/svg" xmlns:xlink="http://www.w3.org/1999/xlink">
<defs>
<style type="text/css"><![CDATA[
.g0_1191{
fill: none;
stroke: #000000;
stroke-width: 0.73;
stroke-linecap: butt;
stroke-linejoin: miter;
}
.g1_1191{
fill: none;
stroke: #000000;
stroke-width: 0.584;
stroke-linecap: butt;
stroke-linejoin: miter;
}
.g2_1191{
fill: #FDE8E9;
}
]]></style>
</defs>
<path d="M193,83.4h900.3" class="g0_1191"/>
<path d="M201.7,111.2H502.3M201.7,134.9V111.5m153.8,23.4V111.5m146.8,23.4V111.5M201.7,161V134.9M355.5,161V134.9" class="g1_1191"/>
<path d="M364.2,158.4h59.7V134.9H364.2v23.5Z" class="g2_1191"/>
<path d="M502.3,161V134.9M201.7,184.4V161m153.8,23.4V161m146.8,23.4V161M201.7,207.8V184.4m153.8,23.4V184.4m146.8,23.4V184.4M201.7,231.9V207.8m153.8,24.1V207.8" class="g1_1191"/>
<path d="M364.2,229.3h51.9V210.6H364.2v18.7Z" class="g2_1191"/>
<path d="M502.3,231.9V207.8M201.7,255.3V231.9m153.8,23.4V231.9m146.8,23.4V231.9M201.7,278.7V255.3m153.8,23.4V255.3m146.8,23.4V255.3M201.7,304.8V278.7m153.8,26.1V278.7" class="g1_1191"/>
<path d="M364.2,302.2H466.7V278.7H364.2v23.5Z" class="g2_1191"/>
<path d="M502.3,304.8V278.7M201.7,328.2V304.8m153.8,23.4V304.8m146.8,23.4V304.8M201.7,351.5V328.2m153.8,23.3V328.2m146.8,23.3V328.2M201.7,377.7V351.5m153.8,26.2V351.5" class="g1_1191"/>
<path d="M364.2,375h84.4V351.5H364.2V375Z" class="g2_1191"/>
<path d="M502.3,377.7V351.5M201.7,401V377.7M355.5,401V377.7M502.3,401V377.7M201.7,424.4V401m153.8,23.4V401m146.8,23.4V401M201.7,450.5V424.4m153.8,26.1V424.4" class="g1_1191"/>
<path d="M364.2,447.9H493.5V424.4H364.2v23.5Z" class="g2_1191"/>
<path d="M502.3,450.5V424.4M201.7,473.9V450.5m153.8,23.4V450.5m146.8,23.4V450.5M201.7,497.3V473.9m153.8,23.4V473.9m146.8,23.4V473.9M201.7,525V497.3M355.5,525V497.3" class="g1_1191"/>
<path d="M364.2,525h75.4V497.3H364.2V525Z" class="g2_1191"/>
<path d="M502.3,525V497.3M201.7,548.4V525m153.8,23.4V525m146.8,23.4V525M201.7,571.7V548.4m153.8,23.3V548.4m146.8,23.3V548.4m-300.6,51V571.7m153.8,27.7V571.7" class="g1_1191"/>
<path d="M364.2,599.4h70.5V571.7H364.2v27.7Z" class="g2_1191"/>
<path d="M502.3,599.4V571.7M201.7,622.8V599.4m153.8,23.4V599.4m146.8,23.4V599.4M201.7,646.2V622.8m153.8,23.4V622.8m146.8,23.4V622.8M201.7,672.3V646.2m153.8,26.1V646.2" class="g1_1191"/>
<path d="M364.2,669.7h80.9V646.2H364.2v23.5Z" class="g2_1191"/>
<path d="M502.3,672.3V646.2M201.7,695.7V672.3m153.8,23.4V672.3m146.8,23.4V672.3M201.7,719.1V695.7m153.8,23.4V695.7m146.8,23.4V695.7M201.7,746.8V719.1m153.8,27.7V719.1" class="g1_1191"/>
<path d="M364.2,746.8h54.1V719.1H364.2v27.7Z" class="g2_1191"/>
<path d="M502.3,746.8V719.1m-300.6,51V746.8m153.8,23.3V746.8m146.8,23.3V746.8M201.7,770.4H502.3M519.8,109.5H805.6M519.8,133.1V109.7m134.3,23.4V109.7m151.5,23.4V109.7M519.8,160.8V133.1m134.3,27.7V133.1" class="g1_1191"/>
<path d="M662.9,160.8H767.2V133.1H662.9v27.7Z" class="g2_1191"/>
<path d="M805.6,160.8V133.1M519.8,184.2V160.8m134.3,23.4V160.8m151.5,23.4V160.8M519.8,207.6V184.2m134.3,23.4V184.2m151.5,23.4V184.2M519.8,235.3V207.6m134.3,27.7V207.6" class="g1_1191"/>
<path d="M662.9,235.3H796.8V207.6H662.9v27.7Z" class="g2_1191"/>
<path d="M805.6,235.3V207.6m-285.8,51V235.3m134.3,23.3V235.3m151.5,23.3V235.3M519.8,282V258.6M654.1,282V258.6M805.6,282V258.6M519.8,308.1V282m134.3,26.1V282" class="g1_1191"/>
<path d="M662.9,305.5h88.8V282H662.9v23.5Z" class="g2_1191"/>
<path d="M805.6,308.1V282M519.8,331.5V308.1m134.3,23.4V308.1m151.5,23.4V308.1M519.8,354.9V331.5m134.3,23.4V331.5m151.5,23.4V331.5M519.8,381V354.9M654.1,381V354.9" class="g1_1191"/>
<path d="M662.9,378.4h75.9V354.9H662.9v23.5Z" class="g2_1191"/>
<path d="M805.6,381V354.9M519.8,404.4V381m134.3,23.4V381m151.5,23.4V381M519.8,427.8V404.4m134.3,23.4V404.4m151.5,23.4V404.4M519.8,453.9V427.8m134.3,26.1V427.8" class="g1_1191"/>
<path d="M662.9,451.3h82.5V427.8H662.9v23.5Z" class="g2_1191"/>
<path d="M805.6,453.9V427.8M519.8,477.3V453.9m134.3,23.4V453.9m151.5,23.4V453.9M519.8,500.6V477.3m134.3,23.3V477.3m151.5,23.3V477.3M519.8,526.8V500.6m134.3,26.2V500.6" class="g1_1191"/>
<path d="M662.9,524.1h97.3V500.6H662.9v23.5Z" class="g2_1191"/>
<path d="M805.6,526.8V500.6M519.8,550.1V526.8m134.3,23.3V526.8m151.5,23.3V526.8M519.8,573.5V550.1m134.3,23.4V550.1m151.5,23.4V550.1M519.8,599.6V573.5m134.3,26.1V573.5" class="g1_1191"/>
<path d="M662.9,597h58.3V573.5H662.9V597Z" class="g2_1191"/>
<path d="M805.6,599.6V573.5M519.8,623V599.6M654.1,623V599.6M805.6,623V599.6M519.8,646.4V623m134.3,23.4V623m151.5,23.4V623M519.8,674.1V646.4m134.3,27.7V646.4" class="g1_1191"/>
<path d="M662.9,674.1h66.6V646.4H662.9v27.7Z" class="g2_1191"/>
<path d="M805.6,674.1V646.4M519.8,697.5V674.1m134.3,23.4V674.1m151.5,23.4V674.1M519.8,720.8V697.5m134.3,23.3V697.5m151.5,23.3V697.5m-285.8,51V720.8m134.3,27.7V720.8" class="g1_1191"/>
<path d="M662.9,748.5H727V720.8H662.9v27.7Z" class="g2_1191"/>
<path d="M805.6,748.5V720.8M519.8,771.9V748.5m134.3,23.4V748.5m151.5,23.4V748.5M519.8,772.2H805.6M823.1,112h246.7M823.1,135.7V112.3m134.3,23.4V112.3m112.4,23.4V112.3M823.1,159.8V135.7m134.3,24.1V135.7" class="g1_1191"/>
<path d="M966.2,157.2h79.6V138.5H966.2v18.7Z" class="g2_1191"/>
<path d="M1069.8,159.8V135.7M823.1,183.2V159.8m134.3,23.4V159.8m112.4,23.4V159.8M823.1,206.6V183.2m134.3,23.4V183.2m112.4,23.4V183.2M823.1,232.7V206.6m134.3,26.1V206.6" class="g1_1191"/>
<path d="M966.2,230.1H1061V206.6H966.2v23.5Z" class="g2_1191"/>
<path d="M1069.8,232.7V206.6M823.1,256.1V232.7m134.3,23.4V232.7m112.4,23.4V232.7M823.1,279.5V256.1m134.3,23.4V256.1m112.4,23.4V256.1M823.1,305.6V279.5m134.3,26.1V279.5" class="g1_1191"/>
<path d="M966.2,302.9h66.5V279.5H966.2v23.4Z" class="g2_1191"/>
<path d="M1069.8,305.6V279.5M823.1,329V305.6M957.4,329V305.6M1069.8,329V305.6M823.1,352.3V329m134.3,23.3V329m112.4,23.3V329M823.1,378.4V352.3m134.3,26.1V352.3" class="g1_1191"/>
<path d="M966.2,375.8h42.1V352.3H966.2v23.5Z" class="g2_1191"/>
<path d="M1069.8,378.4V352.3M823.1,401.8V378.4m134.3,23.4V378.4m112.4,23.4V378.4M823.1,425.2V401.8m134.3,23.4V401.8m112.4,23.4V401.8M823.1,451.3V425.2m134.3,26.1V425.2" class="g1_1191"/>
<path d="M966.2,448.7h69.4V425.2H966.2v23.5Z" class="g2_1191"/>
<path d="M1069.8,451.3V425.2M823.1,474.7V451.3m134.3,23.4V451.3m112.4,23.4V451.3M823.1,498.1V474.7m134.3,23.4V474.7m112.4,23.4V474.7M823.1,525.8V498.1m134.3,27.7V498.1" class="g1_1191"/>
<path d="M966.2,525.8h66.6V498.1H966.2v27.7Z" class="g2_1191"/>
<path d="M1069.8,525.8V498.1M823.1,549.2V525.8m134.3,23.4V525.8m112.4,23.4V525.8M823.1,572.5V549.2m134.3,23.3V549.2m112.4,23.3V549.2M823.1,598.6V572.5m134.3,26.1V572.5" class="g1_1191"/>
<path d="M966.2,596h46.5V572.5H966.2V596Z" class="g2_1191"/>
<path d="M1069.8,598.6V572.5M823.1,622V598.6M957.4,622V598.6M1069.8,622V598.6M823.1,645.4V622m134.3,23.4V622m112.4,23.4V622M823.1,673.1V645.4m134.3,27.7V645.4" class="g1_1191"/>
<path d="M966.2,673.1h54.3V645.4H966.2v27.7Z" class="g2_1191"/>
<path d="M1069.8,673.1V645.4M823.1,696.5V673.1m134.3,23.4V673.1m112.4,23.4V673.1M823.1,719.9V696.5m134.3,23.4V696.5m112.4,23.4V696.5M823.1,746V719.9M957.4,746V719.9" class="g1_1191"/>
<path d="M966.2,743.3h47.1V719.9H966.2v23.4Z" class="g2_1191"/>
<path d="M1069.8,746V719.9M823.1,769.4V746m134.3,23.4V746m112.4,23.4V746M823.1,769.6h246.7" class="g1_1191"/>
</svg>