<?xml version="1.0" encoding="UTF-8" standalone="no"?>
<!DOCTYPE svg PUBLIC "-//W3C//DTD SVG 1.1//EN"
"http://www.w3.org/Graphics/SVG/1.1/DTD/svg11.dtd">
<svg viewBox="0 0 1286 909" version="1.1" xmlns="http://www.w3.org/2000/svg" xmlns:xlink="http://www.w3.org/1999/xlink">
<defs>
<style type="text/css"><![CDATA[
.g0_1224{
fill: none;
stroke: #000000;
stroke-width: 0.73;
stroke-linecap: butt;
stroke-linejoin: miter;
}
.g1_1224{
fill: #FDE8E9;
}
]]></style>
</defs>
<path d="M193,83.4h900.3M203.9,109.5H444.1M203.9,139.1V109.9m94.9,29.2V109.9m145.3,29.2V109.9M203.9,173.7V139.1m94.9,34.6V139.1" class="g0_1224"/>
<path d="M309.8,173.7h74.5V139.1H309.8v34.6Z" class="g1_1224"/>
<path d="M444.1,173.7V139.1M203.9,203V173.7M298.8,203V173.7M444.1,203V173.7M203.9,232.2V203m94.9,29.2V203m145.3,29.2V203M203.9,264.8V232.2m94.9,32.6V232.2" class="g0_1224"/>
<path d="M309.8,261.5h91.3V232.2H309.8v29.3Z" class="g1_1224"/>
<path d="M444.1,264.8V232.2M203.9,294V264.8M298.8,294V264.8M444.1,294V264.8M203.9,323.3V294m94.9,29.3V294m145.3,29.3V294M203.9,357.9V323.3m94.9,34.6V323.3" class="g0_1224"/>
<path d="M309.8,357.9H433.1V323.3H309.8v34.6Z" class="g1_1224"/>
<path d="M444.1,357.9V323.3M203.9,387.1V357.9m94.9,29.2V357.9m145.3,29.2V357.9M203.9,416.3V387.1m94.9,29.2V387.1m145.3,29.2V387.1M203.9,451V416.3M298.8,451V416.3" class="g0_1224"/>
<path d="M309.8,451h59.4V416.3H309.8V451Z" class="g1_1224"/>
<path d="M444.1,451V416.3M203.9,480.2V451m94.9,29.2V451m145.3,29.2V451M203.9,509.4V480.2m94.9,29.2V480.2m145.3,29.2V480.2M203.9,544V509.4M298.8,544V509.4" class="g0_1224"/>
<path d="M309.8,544h97.8V509.4H309.8V544Z" class="g1_1224"/>
<path d="M444.1,544V509.4M203.9,573.2V544m94.9,29.2V544m145.3,29.2V544M203.9,602.5V573.2m94.9,29.3V573.2m145.3,29.3V573.2M203.9,635.1V602.5m94.9,32.6V602.5" class="g0_1224"/>
<path d="M309.8,631.8h69.7V602.5H309.8v29.3Z" class="g1_1224"/>
<path d="M444.1,635.1V602.5M203.9,664.3V635.1m94.9,29.2V635.1m145.3,29.2V635.1M203.9,693.6V664.3m94.9,29.3V664.3m145.3,29.3V664.3M203.9,726.2V693.6m94.9,32.6V693.6" class="g0_1224"/>
<path d="M309.8,722.9H410V693.6H309.8v29.3Z" class="g1_1224"/>
<path d="M444.1,726.2V693.6M203.9,755.4V726.2m94.9,29.2V726.2m145.3,29.2V726.2M203.9,755.8H444.1M466,110.5H722.6M466,140.1V110.9m94.9,29.2V110.9m161.7,29.2V110.9M466,172.7V140.1m94.9,32.6V140.1" class="g0_1224"/>
<path d="M571.8,169.5h63.7V140.1H571.8v29.4Z" class="g1_1224"/>
<path d="M722.6,172.7V140.1M466,202V172.7M560.9,202V172.7M722.6,202V172.7M466,231.2V202m94.9,29.2V202m161.7,29.2V202M466,263.8V231.2m94.9,32.6V231.2" class="g0_1224"/>
<path d="M571.8,260.5H711.7V231.2H571.8v29.3Z" class="g1_1224"/>
<path d="M722.6,263.8V231.2M466,293.1V263.8m94.9,29.3V263.8m161.7,29.3V263.8M466,322.3V293.1m94.9,29.2V293.1m161.7,29.2V293.1M466,356.9V322.3m94.9,34.6V322.3" class="g0_1224"/>
<path d="M571.8,356.9h113V322.3h-113v34.6Z" class="g1_1224"/>
<path d="M722.6,356.9V322.3M466,386.1V356.9m94.9,29.2V356.9m161.7,29.2V356.9M466,415.4V386.1m94.9,29.3V386.1m161.7,29.3V386.1M466,450V415.4M560.9,450V415.4" class="g0_1224"/>
<path d="M571.8,450h94.3V415.4H571.8V450Z" class="g1_1224"/>
<path d="M722.6,450V415.4M466,479.2V450m94.9,29.2V450m161.7,29.2V450M466,508.4V479.2m94.9,29.2V479.2m161.7,29.2V479.2M466,543V508.4M560.9,543V508.4" class="g0_1224"/>
<path d="M571.8,543H679.7V508.4H571.8V543Z" class="g1_1224"/>
<path d="M722.6,543V508.4M466,572.3V543m94.9,29.3V543m161.7,29.3V543M466,601.5V572.3m94.9,29.2V572.3m161.7,29.2V572.3M466,634.1V601.5m94.9,32.6V601.5" class="g0_1224"/>
<path d="M571.8,630.8h100V601.5h-100v29.3Z" class="g1_1224"/>
<path d="M722.6,634.1V601.5M466,663.3V634.1m94.9,29.2V634.1m161.7,29.2V634.1M466,692.6V663.3m94.9,29.3V663.3m161.7,29.3V663.3M466,725.2V692.6m94.9,32.6V692.6" class="g0_1224"/>
<path d="M571.8,721.9H675.9V692.6H571.8v29.3Z" class="g1_1224"/>
<path d="M722.6,725.2V692.6M466,754.4V725.2m94.9,29.2V725.2m161.7,29.2V725.2M466,754.8H722.6M744.6,111h326m-326,29.6V111.4m119.2,29.2V111.4m206.8,29.2V111.4m-326,63.8V140.6m119.2,34.6V140.6" class="g0_1224"/>
<path d="M874.7,175.2h166.6V140.6H874.7v34.6Z" class="g1_1224"/>
<path d="M1070.6,175.2V140.6m-326,63.8V175.2m119.2,29.2V175.2m206.8,29.2V175.2m-326,58.5V204.4m119.2,29.3V204.4m206.8,29.3V204.4m-326,63.9V233.7m119.2,34.6V233.7" class="g0_1224"/>
<path d="M874.7,268.3H1010V233.7H874.7v34.6Z" class="g1_1224"/>
<path d="M1070.6,268.3V233.7m-326,63.8V268.3m119.2,29.2V268.3m206.8,29.2V268.3m-326,58.4V297.5m119.2,29.2V297.5m206.8,29.2V297.5m-326,63.8V326.7m119.2,34.6V326.7" class="g0_1224"/>
<path d="M874.7,361.3h90.2V326.7H874.7v34.6Z" class="g1_1224"/>
<path d="M1070.6,361.3V326.7m-326,63.9V361.3m119.2,29.3V361.3m206.8,29.3V361.3m-326,58.5V390.6m119.2,29.2V390.6m206.8,29.2V390.6m-326,61.8V419.8m119.2,32.6V419.8" class="g0_1224"/>
<path d="M874.7,449.2h150.5V419.8H874.7v29.4Z" class="g1_1224"/>
<path d="M1070.6,452.4V419.8m-326,61.9V452.4m119.2,29.3V452.4m206.8,29.3V452.4m-326,58.5V481.7m119.2,29.2V481.7m206.8,29.2V481.7m-326,61.8V510.9m119.2,32.6V510.9" class="g0_1224"/>
<path d="M874.7,540.2h184.9V510.9H874.7v29.3Z" class="g1_1224"/>
<path d="M1070.6,543.5V510.9m-326,61.9V543.5m119.2,29.3V543.5m206.8,29.3V543.5M744.6,602V572.8M863.8,602V572.8M1070.6,602V572.8m-326,61.3V602m119.2,32.1V602" class="g0_1224"/>
<path d="M874.7,634.1H957V605.5H874.7v28.6Z" class="g1_1224"/>
<path d="M1070.6,634.1V602m-326,61.3V634.1m119.2,29.2V634.1m206.8,29.2V634.1m-326,58.5V663.3m119.2,29.3V663.3m206.8,29.3V663.3m-326,61.4V692.6m119.2,32.1V692.6" class="g0_1224"/>
<path d="M874.7,724.7h65.5V696.1H874.7v28.6Z" class="g1_1224"/>
<path d="M1070.6,724.7V692.6m-326,61.3V724.7m119.2,29.2V724.7m206.8,29.2V724.7m-326,29.6h326" class="g0_1224"/>
</svg>