<?xml version="1.0" encoding="UTF-8" standalone="no"?>
<!DOCTYPE svg PUBLIC "-//W3C//DTD SVG 1.1//EN"
"http://www.w3.org/Graphics/SVG/1.1/DTD/svg11.dtd">
<svg viewBox="0 0 909 1286" version="1.1" xmlns="http://www.w3.org/2000/svg" xmlns:xlink="http://www.w3.org/1999/xlink">
<defs>
<clipPath id="c0_8"><path d="M134.6,309.7V279H782.7v30.7Z"/></clipPath>
<style type="text/css"><![CDATA[
.g0_8{
fill: none;
stroke: #000000;
stroke-width: 0.73;
stroke-linecap: butt;
stroke-linejoin: miter;
}
.g1_8{
fill: #7F7F7F;
}
.g2_8{
fill: #FFFFFF;
}
.g3_8{
fill: none;
stroke: #7F7F7F;
stroke-width: 0.73;
stroke-linecap: butt;
stroke-linejoin: miter;
stroke-dasharray: 6,6;
}
.g4_8{
fill: #FFFFFF;
stroke: #000000;
stroke-width: 0.73;
stroke-linecap: butt;
stroke-linejoin: miter;
}
.g5_8{
fill: none;
stroke: #000000;
stroke-width: 3.47;
stroke-linecap: butt;
stroke-linejoin: miter;
}
.g6_8{
fill: none;
stroke: #CDCDB4;
stroke-width: 2.739;
stroke-linecap: butt;
stroke-linejoin: miter;
}
]]></style>
</defs>
<path d="M116.9,159.9H792.5" class="g0_8"/>
<path d="M133.8,807.2V278.3H783.4V807.2Z" class="g1_8"/>
<path d="M134.6,806.5V310.4H782.7V806.5Z" class="g2_8"/>
<path d="M134.6,390.3H782.7" class="g3_8"/>
<path d="M134.6,309.7V279H782.7v30.7Z" class="g1_8"/>
<g clip-path="url(#c0_8)">
<image x="134" y="278" width="649" height="32" xlink:href="shade/1.png"/>
</g>
<path d="M159.5,320.8c0,-3,-2.4,-5.4,-5.5,-5.4c-3,0,-5.4,2.4,-5.4,5.4c0,3.1,2.4,5.5,5.4,5.5c3.1,0,5.5,-2.4,5.5,-5.5Z" class="g4_8"/>
<path d="M154,320.8c6.5,1.6,5.5,3.9,-2.2,5.2c-7.7,1.3,-19.3,1.1,-25.7,-.5c-4.2,-1,-5.4,-2.3,-3.2,-3.6c1.8,-1,5.8,-1.8,10.9,-2.2" class="g5_8"/>
<path d="M154,320.8c6.5,1.6,5.5,3.9,-2.2,5.2c-7.7,1.3,-19.3,1.1,-25.7,-.5c-4.2,-1,-5.4,-2.3,-3.2,-3.6c1.8,-1,5.8,-1.8,10.9,-2.2" class="g6_8"/>
<path d="M159.5,345.6c0,-3,-2.4,-5.4,-5.5,-5.4c-3,0,-5.4,2.4,-5.4,5.4c0,3.1,2.4,5.5,5.4,5.5c3.1,0,5.5,-2.4,5.5,-5.5Z" class="g4_8"/>
<path d="M154,345.6c6.5,1.6,5.5,3.9,-2.2,5.2c-7.7,1.3,-19.3,1.1,-25.7,-.5c-4.2,-1,-5.4,-2.3,-3.2,-3.6c1.8,-1,5.8,-1.8,10.9,-2.1" class="g5_8"/>
<path d="M154,345.6c6.5,1.6,5.5,3.9,-2.2,5.2c-7.7,1.3,-19.3,1.1,-25.7,-.5c-4.2,-1,-5.4,-2.3,-3.2,-3.6c1.8,-1,5.8,-1.8,10.9,-2.1" class="g6_8"/>
<path d="M159.5,370.4c0,-3,-2.4,-5.4,-5.5,-5.4c-3,0,-5.4,2.4,-5.4,5.4c0,3.1,2.4,5.5,5.4,5.5c3.1,0,5.5,-2.4,5.5,-5.5Z" class="g4_8"/>
<path d="M154,370.4c6.5,1.6,5.5,3.9,-2.2,5.2c-7.7,1.3,-19.3,1.1,-25.7,-.5c-4.2,-1,-5.4,-2.3,-3.2,-3.6c1.8,-1,5.8,-1.8,10.9,-2.1" class="g5_8"/>
<path d="M154,370.4c6.5,1.6,5.5,3.9,-2.2,5.2c-7.7,1.3,-19.3,1.1,-25.7,-.5c-4.2,-1,-5.4,-2.3,-3.2,-3.6c1.8,-1,5.8,-1.8,10.9,-2.1" class="g6_8"/>
<path d="M159.5,395.2c0,-3,-2.4,-5.4,-5.5,-5.4c-3,0,-5.4,2.4,-5.4,5.4c0,3.1,2.4,5.5,5.4,5.5c3.1,0,5.5,-2.4,5.5,-5.5Z" class="g4_8"/>
<path d="M154,395.2c6.5,1.6,5.5,3.9,-2.2,5.2c-7.7,1.3,-19.3,1.1,-25.7,-.5c-4.2,-1,-5.4,-2.3,-3.2,-3.6c1.8,-1,5.8,-1.8,10.9,-2.1" class="g5_8"/>
<path d="M154,395.2c6.5,1.6,5.5,3.9,-2.2,5.2c-7.7,1.3,-19.3,1.1,-25.7,-.5c-4.2,-1,-5.4,-2.3,-3.2,-3.6c1.8,-1,5.8,-1.8,10.9,-2.1" class="g6_8"/>
<path d="M159.5,420c0,-3,-2.4,-5.4,-5.5,-5.4c-3,0,-5.4,2.4,-5.4,5.4c0,3.1,2.4,5.5,5.4,5.5c3.1,0,5.5,-2.4,5.5,-5.5Z" class="g4_8"/>
<path d="M154,420c6.5,1.6,5.5,3.9,-2.2,5.2c-7.7,1.3,-19.3,1.1,-25.7,-.5c-4.2,-1,-5.4,-2.3,-3.2,-3.6c1.8,-1,5.8,-1.8,10.9,-2.1" class="g5_8"/>
<path d="M154,420c6.5,1.6,5.5,3.9,-2.2,5.2c-7.7,1.3,-19.3,1.1,-25.7,-.5c-4.2,-1,-5.4,-2.3,-3.2,-3.6c1.8,-1,5.8,-1.8,10.9,-2.1" class="g6_8"/>
<path d="M159.5,444.8c0,-3,-2.4,-5.4,-5.5,-5.4c-3,0,-5.4,2.4,-5.4,5.4c0,3.1,2.4,5.5,5.4,5.5c3.1,0,5.5,-2.4,5.5,-5.5Z" class="g4_8"/>
<path d="M154,444.8c6.5,1.6,5.5,3.9,-2.2,5.2c-7.7,1.3,-19.3,1.1,-25.7,-.5c-4.2,-1,-5.4,-2.3,-3.2,-3.6c1.8,-1,5.8,-1.8,10.9,-2.1" class="g5_8"/>
<path d="M154,444.8c6.5,1.6,5.5,3.9,-2.2,5.2c-7.7,1.3,-19.3,1.1,-25.7,-.5c-4.2,-1,-5.4,-2.3,-3.2,-3.6c1.8,-1,5.8,-1.8,10.9,-2.1" class="g6_8"/>
<path d="M159.5,469.6c0,-3,-2.4,-5.4,-5.5,-5.4c-3,0,-5.4,2.4,-5.4,5.4c0,3.1,2.4,5.5,5.4,5.5c3.1,0,5.5,-2.4,5.5,-5.5Z" class="g4_8"/>
<path d="M154,469.6c6.5,1.6,5.5,3.9,-2.2,5.2c-7.7,1.3,-19.3,1.1,-25.7,-.5c-4.2,-1,-5.4,-2.3,-3.2,-3.6c1.8,-1,5.8,-1.8,10.9,-2.1" class="g5_8"/>
<path d="M154,469.6c6.5,1.6,5.5,3.9,-2.2,5.2c-7.7,1.3,-19.3,1.1,-25.7,-.5c-4.2,-1,-5.4,-2.3,-3.2,-3.6c1.8,-1,5.8,-1.8,10.9,-2.1" class="g6_8"/>
<path d="M159.5,494.4c0,-3,-2.4,-5.4,-5.5,-5.4c-3,0,-5.4,2.4,-5.4,5.4c0,3.1,2.4,5.5,5.4,5.5c3.1,0,5.5,-2.4,5.5,-5.5Z" class="g4_8"/>
<path d="M154,494.4c6.5,1.6,5.5,3.9,-2.2,5.2c-7.7,1.3,-19.3,1.1,-25.7,-.5c-4.2,-1,-5.4,-2.3,-3.2,-3.6c1.8,-1,5.8,-1.8,10.9,-2.1" class="g5_8"/>
<path d="M154,494.4c6.5,1.6,5.5,3.9,-2.2,5.2c-7.7,1.3,-19.3,1.1,-25.7,-.5c-4.2,-1,-5.4,-2.3,-3.2,-3.6c1.8,-1,5.8,-1.8,10.9,-2.1" class="g6_8"/>
<path d="M159.5,519.3c0,-3.1,-2.4,-5.5,-5.5,-5.5c-3,0,-5.4,2.4,-5.4,5.5c0,3,2.4,5.4,5.4,5.4c3.1,0,5.5,-2.4,5.5,-5.4Z" class="g4_8"/>
<path d="M154,519.3c6.5,1.5,5.5,3.8,-2.2,5.1c-7.7,1.3,-19.3,1.1,-25.7,-.5c-4.2,-1,-5.4,-2.3,-3.2,-3.5c1.8,-1.1,5.8,-1.9,10.9,-2.2" class="g5_8"/>
<path d="M154,519.3c6.5,1.5,5.5,3.8,-2.2,5.1c-7.7,1.3,-19.3,1.1,-25.7,-.5c-4.2,-1,-5.4,-2.3,-3.2,-3.5c1.8,-1.1,5.8,-1.9,10.9,-2.2" class="g6_8"/>
<path d="M159.5,544.1c0,-3.1,-2.4,-5.5,-5.5,-5.5c-3,0,-5.4,2.4,-5.4,5.5c0,3,2.4,5.4,5.4,5.4c3.1,0,5.5,-2.4,5.5,-5.4Z" class="g4_8"/>
<path d="M154,544.1c6.5,1.5,5.5,3.8,-2.2,5.1c-7.7,1.3,-19.3,1.1,-25.7,-.4c-4.2,-1,-5.4,-2.4,-3.2,-3.6c1.8,-1.1,5.8,-1.9,10.9,-2.2" class="g5_8"/>
<path d="M154,544.1c6.5,1.5,5.5,3.8,-2.2,5.1c-7.7,1.3,-19.3,1.1,-25.7,-.4c-4.2,-1,-5.4,-2.4,-3.2,-3.6c1.8,-1.1,5.8,-1.9,10.9,-2.2" class="g6_8"/>
<path d="M159.5,568.9c0,-3.1,-2.4,-5.5,-5.5,-5.5c-3,0,-5.4,2.4,-5.4,5.5c0,3,2.4,5.4,5.4,5.4c3.1,0,5.5,-2.4,5.5,-5.4Z" class="g4_8"/>
<path d="M154,568.9c6.5,1.5,5.5,3.8,-2.2,5.1c-7.7,1.3,-19.3,1.1,-25.7,-.4c-4.2,-1,-5.4,-2.4,-3.2,-3.6c1.8,-1.1,5.8,-1.9,10.9,-2.2" class="g5_8"/>
<path d="M154,568.9c6.5,1.5,5.5,3.8,-2.2,5.1c-7.7,1.3,-19.3,1.1,-25.7,-.4c-4.2,-1,-5.4,-2.4,-3.2,-3.6c1.8,-1.1,5.8,-1.9,10.9,-2.2" class="g6_8"/>
<path d="M159.5,593.7c0,-3.1,-2.4,-5.5,-5.5,-5.5c-3,0,-5.4,2.4,-5.4,5.5c0,3,2.4,5.4,5.4,5.4c3.1,0,5.5,-2.4,5.5,-5.4Z" class="g4_8"/>
<path d="M154,593.7c6.5,1.5,5.5,3.8,-2.2,5.1c-7.7,1.3,-19.3,1.1,-25.7,-.4c-4.2,-1,-5.4,-2.4,-3.2,-3.6c1.8,-1.1,5.8,-1.9,10.9,-2.2" class="g5_8"/>
<path d="M154,593.7c6.5,1.5,5.5,3.8,-2.2,5.1c-7.7,1.3,-19.3,1.1,-25.7,-.4c-4.2,-1,-5.4,-2.4,-3.2,-3.6c1.8,-1.1,5.8,-1.9,10.9,-2.2" class="g6_8"/>
<path d="M159.5,618.5c0,-3.1,-2.4,-5.5,-5.5,-5.5c-3,0,-5.4,2.4,-5.4,5.5c0,3,2.4,5.4,5.4,5.4c3.1,0,5.5,-2.4,5.5,-5.4Z" class="g4_8"/>
<path d="M154,618.5c6.5,1.5,5.5,3.8,-2.2,5.1c-7.7,1.3,-19.3,1.1,-25.7,-.4c-4.2,-1,-5.4,-2.4,-3.2,-3.6c1.8,-1.1,5.8,-1.9,10.9,-2.2" class="g5_8"/>
<path d="M154,618.5c6.5,1.5,5.5,3.8,-2.2,5.1c-7.7,1.3,-19.3,1.1,-25.7,-.4c-4.2,-1,-5.4,-2.4,-3.2,-3.6c1.8,-1.1,5.8,-1.9,10.9,-2.2" class="g6_8"/>
<path d="M159.5,643.3c0,-3.1,-2.4,-5.5,-5.5,-5.5c-3,0,-5.4,2.4,-5.4,5.5c0,3,2.4,5.4,5.4,5.4c3.1,0,5.5,-2.4,5.5,-5.4Z" class="g4_8"/>
<path d="M154,643.3c6.5,1.5,5.5,3.8,-2.2,5.1c-7.7,1.3,-19.3,1.1,-25.7,-.4c-4.2,-1,-5.4,-2.4,-3.2,-3.6c1.8,-1.1,5.8,-1.9,10.9,-2.2" class="g5_8"/>
<path d="M154,643.3c6.5,1.5,5.5,3.8,-2.2,5.1c-7.7,1.3,-19.3,1.1,-25.7,-.4c-4.2,-1,-5.4,-2.4,-3.2,-3.6c1.8,-1.1,5.8,-1.9,10.9,-2.2" class="g6_8"/>
<path d="M159.5,668.1c0,-3.1,-2.4,-5.5,-5.5,-5.5c-3,0,-5.4,2.4,-5.4,5.5c0,3,2.4,5.4,5.4,5.4c3.1,0,5.5,-2.4,5.5,-5.4Z" class="g4_8"/>
<path d="M154,668.1c6.5,1.5,5.5,3.8,-2.2,5.1c-7.7,1.3,-19.3,1.1,-25.7,-.4c-4.2,-1,-5.4,-2.4,-3.2,-3.6c1.8,-1.1,5.8,-1.9,10.9,-2.2" class="g5_8"/>
<path d="M154,668.1c6.5,1.5,5.5,3.8,-2.2,5.1c-7.7,1.3,-19.3,1.1,-25.7,-.4c-4.2,-1,-5.4,-2.4,-3.2,-3.6c1.8,-1.1,5.8,-1.9,10.9,-2.2" class="g6_8"/>
<path d="M159.5,692.9c0,-3.1,-2.4,-5.5,-5.5,-5.5c-3,0,-5.4,2.4,-5.4,5.5c0,3,2.4,5.4,5.4,5.4c3.1,0,5.5,-2.4,5.5,-5.4Z" class="g4_8"/>
<path d="M154,692.9c6.5,1.5,5.5,3.8,-2.2,5.1c-7.7,1.3,-19.3,1.1,-25.7,-.4c-4.2,-1,-5.4,-2.4,-3.2,-3.6c1.8,-1,5.8,-1.8,10.9,-2.2" class="g5_8"/>
<path d="M154,692.9c6.5,1.5,5.5,3.8,-2.2,5.1c-7.7,1.3,-19.3,1.1,-25.7,-.4c-4.2,-1,-5.4,-2.4,-3.2,-3.6c1.8,-1,5.8,-1.8,10.9,-2.2" class="g6_8"/>
<path d="M159.5,717.7c0,-3.1,-2.4,-5.5,-5.5,-5.5c-3,0,-5.4,2.4,-5.4,5.5c0,3,2.4,5.4,5.4,5.4c3.1,0,5.5,-2.4,5.5,-5.4Z" class="g4_8"/>
<path d="M154,717.7c6.5,1.5,5.5,3.8,-2.2,5.1c-7.7,1.3,-19.3,1.1,-25.7,-.4c-4.2,-1,-5.4,-2.4,-3.2,-3.6c1.8,-1,5.8,-1.8,10.9,-2.2" class="g5_8"/>
<path d="M154,717.7c6.5,1.5,5.5,3.8,-2.2,5.1c-7.7,1.3,-19.3,1.1,-25.7,-.4c-4.2,-1,-5.4,-2.4,-3.2,-3.6c1.8,-1,5.8,-1.8,10.9,-2.2" class="g6_8"/>
<path d="M159.5,742.5c0,-3.1,-2.4,-5.5,-5.5,-5.5c-3,0,-5.4,2.4,-5.4,5.5c0,3,2.4,5.5,5.4,5.5c3.1,0,5.5,-2.5,5.5,-5.5Z" class="g4_8"/>
<path d="M154,742.5c6.5,1.5,5.5,3.8,-2.2,5.1c-7.7,1.3,-19.3,1.1,-25.7,-.4c-4.2,-1,-5.4,-2.4,-3.2,-3.6c1.8,-1,5.8,-1.8,10.9,-2.2" class="g5_8"/>
<path d="M154,742.5c6.5,1.5,5.5,3.8,-2.2,5.1c-7.7,1.3,-19.3,1.1,-25.7,-.4c-4.2,-1,-5.4,-2.4,-3.2,-3.6c1.8,-1,5.8,-1.8,10.9,-2.2" class="g6_8"/>
<path d="M159.5,767.3c0,-3.1,-2.4,-5.5,-5.5,-5.5c-3,0,-5.4,2.4,-5.4,5.5c0,3,2.4,5.5,5.4,5.5c3.1,0,5.5,-2.5,5.5,-5.5Z" class="g4_8"/>
<path d="M154,767.3c6.5,1.5,5.5,3.8,-2.2,5.1c-7.7,1.3,-19.3,1.1,-25.7,-.4c-4.2,-1,-5.4,-2.4,-3.2,-3.6c1.8,-1,5.8,-1.8,10.9,-2.2" class="g5_8"/>
<path d="M154,767.3c6.5,1.5,5.5,3.8,-2.2,5.1c-7.7,1.3,-19.3,1.1,-25.7,-.4c-4.2,-1,-5.4,-2.4,-3.2,-3.6c1.8,-1,5.8,-1.8,10.9,-2.2" class="g6_8"/>
<path d="M159.5,792.1c0,-3.1,-2.4,-5.5,-5.5,-5.5c-3,0,-5.4,2.4,-5.4,5.5c0,3,2.4,5.5,5.4,5.5c3.1,0,5.5,-2.5,5.5,-5.5Z" class="g4_8"/>
<path d="M154,792.1c6.5,1.5,5.5,3.8,-2.2,5.1c-7.7,1.3,-19.3,1.1,-25.7,-.4c-4.2,-1,-5.4,-2.4,-3.2,-3.6c1.8,-1,5.8,-1.8,10.9,-2.2" class="g5_8"/>
<path d="M154,792.1c6.5,1.5,5.5,3.8,-2.2,5.1c-7.7,1.3,-19.3,1.1,-25.7,-.4c-4.2,-1,-5.4,-2.4,-3.2,-3.6c1.8,-1,5.8,-1.8,10.9,-2.2" class="g6_8"/>
<path d="M195.3,728.8V497.2m100.4,15.9h82.4M223.4,586.7V557.5m0,89.5V617.7m0,77.3V678" class="g0_8"/>
</svg>