<?xml version="1.0" encoding="UTF-8" standalone="no"?>
<!DOCTYPE svg PUBLIC "-//W3C//DTD SVG 1.1//EN"
"http://www.w3.org/Graphics/SVG/1.1/DTD/svg11.dtd">
<svg viewBox="0 0 1286 909" version="1.1" xmlns="http://www.w3.org/2000/svg" xmlns:xlink="http://www.w3.org/1999/xlink">
<defs>
<style type="text/css"><![CDATA[
.g0_484{
fill: none;
stroke: #000000;
stroke-width: 0.73;
stroke-linecap: butt;
stroke-linejoin: miter;
}
.g1_484{
fill: #B3E9FA;
}
.g2_484{
fill: none;
stroke: #02B5EE;
stroke-width: 1.262;
stroke-linecap: butt;
stroke-linejoin: miter;
}
.g3_484{
fill: none;
stroke: #5EE200;
stroke-width: 1.262;
stroke-linecap: butt;
stroke-linejoin: miter;
}
.g4_484{
fill: none;
stroke: #5EE200;
stroke-width: 0.73;
stroke-linecap: butt;
stroke-linejoin: miter;
}
.g5_484{
fill: none;
stroke: #02B5EE;
stroke-width: 0.73;
stroke-linecap: butt;
stroke-linejoin: miter;
}
]]></style>
</defs>
<path d="M193,83.4h900.3M193,210.6h850m-850,0h850M637.4,240.2V211m0,58.5V240.2m0,114.3v-85" class="g0_484"/>
<path d="M738.3,311V292.5c0,-2.9,2.3,-5.2,5.1,-5.2H882c2.9,0,5.2,2.3,5.2,5.2V311c0,2.9,-2.3,5.2,-5.2,5.2H743.4c-2.8,0,-5.1,-2.3,-5.1,-5.2Z" class="g1_484"/>
<path d="M735.7,330.5H889.8" class="g2_484"/>
<path d="M900.3,330.5H1032" class="g3_484"/>
<path d="M637.4,383.7V354.5m0,58.4V383.7m0,114.3V412.9" class="g0_484"/>
<path d="M670,474h67.5" class="g2_484"/>
<path d="M748,474h284" class="g3_484"/>
<path d="M637.4,527.2V498m0,102.2v-73" class="g0_484"/>
<path d="M761.1,586.4H930.7" class="g4_484"/>
<path d="M930.7,586.4H1032" class="g5_484"/>
<path d="M637.4,629.5V600.2m0,58.5V629.5m0,58.4V658.7M193,688.3h850m-850,0h850" class="g0_484"/>
</svg>