<?xml version="1.0" encoding="UTF-8" standalone="no"?>
<!DOCTYPE svg PUBLIC "-//W3C//DTD SVG 1.1//EN"
"http://www.w3.org/Graphics/SVG/1.1/DTD/svg11.dtd">
<svg viewBox="0 0 1286 909" version="1.1" xmlns="http://www.w3.org/2000/svg" xmlns:xlink="http://www.w3.org/1999/xlink">
<defs>
<style type="text/css"><![CDATA[
.g0_277{
fill: none;
stroke: #000000;
stroke-width: 0.73;
stroke-linecap: butt;
stroke-linejoin: miter;
}
.g1_277{
fill: none;
stroke: #02B5EE;
stroke-width: 1.262;
stroke-linecap: butt;
stroke-linejoin: miter;
}
.g2_277{
fill: none;
stroke: #02B5EE;
stroke-width: 0.73;
stroke-linecap: butt;
stroke-linejoin: miter;
}
]]></style>
</defs>
<path d="M193,83.4h900.3M193,210.6H857.1m-664.1,0H857.1M483.5,240.2V211m0,58.5V240.2m0,60.1V269.5m0,60V300.3m0,58.4V329.5m0,114.3V358.7" class="g0_277"/>
<path d="M623.8,419.8h75" class="g1_277"/>
<path d="M483.5,473.9V443.8m0,103.2V473.9" class="g0_277"/>
<path d="M795.5,533.1h50.6" class="g2_277"/>
<path d="M483.5,576.2V547m0,58.4V576.2m0,114.3V605.4" class="g0_277"/>
<path d="M623.8,666.5h75" class="g1_277"/>
<path d="M483.5,719.7V690.5m0,58.4V719.7M193,749.3H857.1m-664.1,0H857.1" class="g0_277"/>
</svg>