<?xml version="1.0" encoding="UTF-8" standalone="no"?>
<!DOCTYPE svg PUBLIC "-//W3C//DTD SVG 1.1//EN"
"http://www.w3.org/Graphics/SVG/1.1/DTD/svg11.dtd">
<svg viewBox="0 0 909 1286" version="1.1" xmlns="http://www.w3.org/2000/svg" xmlns:xlink="http://www.w3.org/1999/xlink">
<defs>
<clipPath id="c0_16"><path d="M122.1,483V452.1h30.8V483Z"/></clipPath>
<clipPath id="c1_16"><path d="M122.9,901.3V866.6H152v34.7Z"/></clipPath>
<clipPath id="c2_16"><path d="M122.1,483V452H153v31Z"/></clipPath>
<clipPath id="c3_16"><path d="M122.1,901.7V865.6H153v36.1Z"/></clipPath>
<style type="text/css"><![CDATA[
.g0_16{
fill: none;
stroke: #000000;
stroke-width: 0.73;
stroke-linecap: butt;
stroke-linejoin: miter;
}
.g1_16{
fill: #FFFFFF;
}
.g2_16{
fill: #F2FFFF;
}
.g3_16{
fill: #FFFFFF;
stroke: #000000;
stroke-width: 0.73;
stroke-linecap: butt;
stroke-linejoin: miter;
}
.g4_16{
fill: none;
stroke: #000000;
stroke-width: 3.47;
stroke-linecap: butt;
stroke-linejoin: miter;
}
.g5_16{
fill: none;
stroke: #CDCDB4;
stroke-width: 2.739;
stroke-linecap: butt;
stroke-linejoin: miter;
}
.g6_16{
fill: none;
stroke: #5EE200;
stroke-width: 1.461;
stroke-linecap: butt;
stroke-linejoin: miter;
}
.g7_16{
fill: none;
stroke: #000000;
stroke-width: 1.461;
stroke-linecap: butt;
stroke-linejoin: miter;
}
.g8_16{
fill: none;
stroke: #000000;
stroke-width: 0.876;
stroke-linecap: butt;
stroke-linejoin: miter;
}
.g9_16{
}
.ga_16{
fill: none;
stroke: #000000;
stroke-width: 1.515;
stroke-linecap: butt;
stroke-linejoin: miter;
}
.gb_16{
fill: none;
stroke: #000000;
stroke-width: 2.739;
stroke-linecap: butt;
stroke-linejoin: miter;
}
.gc_16{
fill: none;
stroke: #000000;
stroke-width: 1.051;
stroke-linecap: butt;
stroke-linejoin: miter;
}
.gd_16{
fill: #868686;
}
.ge_16{
fill: #242628;
}
.gf_16{
fill: #A0A0A0;
}
.gg_16{
fill: #C4956E;
}
.gh_16{
fill: #222426;
}
.gi_16{
fill: #202126;
}
.gj_16{
fill: #252427;
}
.gk_16{
fill: #222924;
}
]]></style>
</defs>
<path d="M116.9,159.9H792.5" class="g0_16"/>
<path d="M116.9,387.4V179.5H792.5V387.4Z" class="g1_16"/>
<path d="M117.7,386.7V179.5H791.8V386.7Z" class="g2_16"/>
<path d="M142.6,190.6c0,-3,-2.4,-5.4,-5.4,-5.4c-3.1,0,-5.5,2.4,-5.5,5.4c0,3.1,2.4,5.5,5.5,5.5c3,0,5.4,-2.4,5.4,-5.5Z" class="g3_16"/>
<path d="M137.2,190.6c6.4,1.6,5.4,3.9,-2.3,5.2c-7.7,1.3,-19.2,1.1,-25.7,-.5c-4.2,-1,-5.4,-2.3,-3.2,-3.6c1.8,-1,5.8,-1.8,10.9,-2.1" class="g4_16"/>
<path d="M137.2,190.6c6.4,1.6,5.4,3.9,-2.3,5.2c-7.7,1.3,-19.2,1.1,-25.7,-.5c-4.2,-1,-5.4,-2.3,-3.2,-3.6c1.8,-1,5.8,-1.8,10.9,-2.1" class="g5_16"/>
<path d="M142.6,216.5c0,-3.1,-2.4,-5.5,-5.4,-5.5c-3.1,0,-5.5,2.4,-5.5,5.5c0,3,2.4,5.4,5.5,5.4c3,0,5.4,-2.4,5.4,-5.4Z" class="g3_16"/>
<path d="M137.2,216.5c6.4,1.5,5.4,3.8,-2.3,5.1c-7.7,1.3,-19.2,1.1,-25.7,-.5c-4.2,-1,-5.4,-2.3,-3.2,-3.5c1.8,-1.1,5.8,-1.9,10.9,-2.2" class="g4_16"/>
<path d="M137.2,216.5c6.4,1.5,5.4,3.8,-2.3,5.1c-7.7,1.3,-19.2,1.1,-25.7,-.5c-4.2,-1,-5.4,-2.3,-3.2,-3.5c1.8,-1.1,5.8,-1.9,10.9,-2.2" class="g5_16"/>
<path d="M142.6,242.3c0,-3.1,-2.4,-5.5,-5.4,-5.5c-3.1,0,-5.5,2.4,-5.5,5.5c0,3,2.4,5.4,5.5,5.4c3,0,5.4,-2.4,5.4,-5.4Z" class="g3_16"/>
<path d="M137.2,242.3c6.4,1.5,5.4,3.8,-2.3,5.1c-7.7,1.3,-19.2,1.1,-25.7,-.4c-4.2,-1,-5.4,-2.4,-3.2,-3.6c1.8,-1.1,5.8,-1.9,10.9,-2.2" class="g4_16"/>
<path d="M137.2,242.3c6.4,1.5,5.4,3.8,-2.3,5.1c-7.7,1.3,-19.2,1.1,-25.7,-.4c-4.2,-1,-5.4,-2.4,-3.2,-3.6c1.8,-1.1,5.8,-1.9,10.9,-2.2" class="g5_16"/>
<path d="M142.6,268.1c0,-3.1,-2.4,-5.5,-5.4,-5.5c-3.1,0,-5.5,2.4,-5.5,5.5c0,3,2.4,5.4,5.5,5.4c3,0,5.4,-2.4,5.4,-5.4Z" class="g3_16"/>
<path d="M137.2,268.1c6.4,1.5,5.4,3.8,-2.3,5.1c-7.7,1.3,-19.2,1.1,-25.7,-.4c-4.2,-1,-5.4,-2.4,-3.2,-3.6c1.8,-1.1,5.8,-1.9,10.9,-2.2" class="g4_16"/>
<path d="M137.2,268.1c6.4,1.5,5.4,3.8,-2.3,5.1c-7.7,1.3,-19.2,1.1,-25.7,-.4c-4.2,-1,-5.4,-2.4,-3.2,-3.6c1.8,-1.1,5.8,-1.9,10.9,-2.2" class="g5_16"/>
<path d="M142.6,293.9c0,-3.1,-2.4,-5.5,-5.4,-5.5c-3.1,0,-5.5,2.4,-5.5,5.5c0,3,2.4,5.4,5.5,5.4c3,0,5.4,-2.4,5.4,-5.4Z" class="g3_16"/>
<path d="M137.2,293.9c6.4,1.5,5.4,3.8,-2.3,5.1c-7.7,1.3,-19.2,1.1,-25.7,-.4c-4.2,-1,-5.4,-2.4,-3.2,-3.6c1.8,-1.1,5.8,-1.8,10.9,-2.2" class="g4_16"/>
<path d="M137.2,293.9c6.4,1.5,5.4,3.8,-2.3,5.1c-7.7,1.3,-19.2,1.1,-25.7,-.4c-4.2,-1,-5.4,-2.4,-3.2,-3.6c1.8,-1.1,5.8,-1.8,10.9,-2.2" class="g5_16"/>
<path d="M142.6,319.7c0,-3.1,-2.4,-5.5,-5.4,-5.5c-3.1,0,-5.5,2.4,-5.5,5.5c0,3,2.4,5.4,5.5,5.4c3,0,5.4,-2.4,5.4,-5.4Z" class="g3_16"/>
<path d="M137.2,319.7c6.4,1.5,5.4,3.8,-2.3,5.1c-7.7,1.3,-19.2,1.1,-25.7,-.4c-4.2,-1,-5.4,-2.4,-3.2,-3.6c1.8,-1,5.8,-1.8,10.9,-2.2" class="g4_16"/>
<path d="M137.2,319.7c6.4,1.5,5.4,3.8,-2.3,5.1c-7.7,1.3,-19.2,1.1,-25.7,-.4c-4.2,-1,-5.4,-2.4,-3.2,-3.6c1.8,-1,5.8,-1.8,10.9,-2.2" class="g5_16"/>
<path d="M142.6,345.5c0,-3.1,-2.4,-5.5,-5.4,-5.5c-3.1,0,-5.5,2.4,-5.5,5.5c0,3,2.4,5.5,5.5,5.5c3,0,5.4,-2.5,5.4,-5.5Z" class="g3_16"/>
<path d="M137.2,345.5c6.4,1.5,5.4,3.8,-2.3,5.1c-7.7,1.3,-19.2,1.1,-25.7,-.4c-4.2,-1,-5.4,-2.4,-3.2,-3.6c1.8,-1,5.8,-1.8,10.9,-2.2" class="g4_16"/>
<path d="M137.2,345.5c6.4,1.5,5.4,3.8,-2.3,5.1c-7.7,1.3,-19.2,1.1,-25.7,-.4c-4.2,-1,-5.4,-2.4,-3.2,-3.6c1.8,-1,5.8,-1.8,10.9,-2.2" class="g5_16"/>
<path d="M142.6,371.3c0,-3,-2.4,-5.5,-5.4,-5.5c-3.1,0,-5.5,2.5,-5.5,5.5c0,3,2.4,5.5,5.5,5.5c3,0,5.4,-2.5,5.4,-5.5Z" class="g3_16"/>
<path d="M137.2,371.3c6.4,1.5,5.4,3.8,-2.3,5.1c-7.7,1.3,-19.2,1.1,-25.7,-.4c-4.2,-1,-5.4,-2.4,-3.2,-3.6c1.8,-1,5.8,-1.8,10.9,-2.2" class="g4_16"/>
<path d="M137.2,371.3c6.4,1.5,5.4,3.8,-2.3,5.1c-7.7,1.3,-19.2,1.1,-25.7,-.4c-4.2,-1,-5.4,-2.4,-3.2,-3.6c1.8,-1,5.8,-1.8,10.9,-2.2" class="g5_16"/>
<path d="M487.9,221.6c1.3,0,2,-2.8,3.4,-2.8c1,0,1.8,1.4,2.7,2.8c.9,1.4,1.8,2.7,2.8,2.7c.9,0,1.8,-1.3,2.7,-2.7c.9,-1.4,1.7,-2.8,2.7,-2.8c1,0,1.9,1.4,2.8,2.8c.9,1.4,1.7,2.7,2.7,2.7c1,0,1.9,-1.3,2.8,-2.7c.8,-1.4,1.7,-2.8,2.7,-2.8c1.4,0,2,2.8,3.4,2.8h4.9M487.9,320c1.3,0,2,-2.8,3.4,-2.8c1,0,1.8,1.4,2.7,2.8c.9,1.4,1.8,2.7,2.8,2.7c.9,0,1.8,-1.3,2.7,-2.7c.9,-1.4,1.7,-2.8,2.7,-2.8c1,0,1.9,1.4,2.8,2.8c.9,1.4,1.7,2.7,2.7,2.7c1,0,1.9,-1.3,2.8,-2.7c.8,-1.4,1.7,-2.8,2.7,-2.8c1.4,0,2,2.8,3.4,2.8h4.8" class="g6_16"/>
<path d="M117.7,680.5V445.3H791.8V680.5Z" class="g1_16"/>
<path d="M117.7,680.5V445.3H791.8V680.5Z" class="g7_16"/>
<path d="M284,536h27.7" class="g8_16"/>
<path d="M484.1,607.8h47.8" class="ga_16"/>
<g clip-path="url(#c2_16)">
<path clip-path="url(#c0_16)" d="M141.2,475.6c-3.2,0,-6.1,-1.2,-8.4,-3.4c-2.2,-2.3,-3.4,-5.2,-3.4,-8.3c0,-3.2,1.2,-6.1,3.4,-8.4c2.3,-2.2,5.2,-3.4,8.4,-3.4c3.1,0,6.1,1.2,8.3,3.4c4.6,4.6,4.6,12.1,0,16.7c-2.2,2.2,-5.2,3.4,-8.3,3.4Z" class="g9_16"/>
<path d="M141.2,454.1c-2.6,0,-5.1,1,-6.9,2.9c-3.8,3.8,-3.8,9.9,0,13.7c1.8,1.9,4.3,2.9,6.9,2.9c2.6,0,5,-1,6.9,-2.9c1.8,-1.8,2.8,-4.2,2.8,-6.8c0,-2.6,-1,-5.1,-2.9,-6.9c-1.8,-1.9,-4.2,-2.9,-6.8,-2.9Z" class="g1_16"/>
<path d="M124.4,483l-2.3,-2.4l8.6,-8.7l2.4,2.4Z" class="g9_16"/>
</g>
<path d="M152.7,480H374.5" class="g0_16"/>
<path d="M137.6,485.2V671.1" class="gb_16"/>
<path d="M472,778.7h33.2" class="gc_16"/>
<path d="M117.7,984.1V859.3H791.8V984.1Z" class="g1_16"/>
<path d="M117.7,984.1V859.3H791.8V984.1Z" class="g7_16"/>
<g clip-path="url(#c3_16)">
<path clip-path="url(#c1_16)" d="M125.6,901.1c-.1,-.1,-.1,-.2,0,-.3c0,-.1,.1,-1.2,0,-1.7c0,-.2,0,-.4,0,-.6c.2,-.9,.3,-2.3,.3,-2.3c0,0,0,-.3,.1,-.6c.1,-.5,.1,-.6,-.1,-.9c-.3,-.6,-.9,-2,-1.1,-2.8c-.4,-1.8,-.5,-4.6,-.1,-6c.3,-1.1,.5,-1.2,.9,-.5c.3,.6,.4,.4,0,-.3c-.3,-.8,-.6,-2.1,-.5,-2.5c0,-.1,.2,-.6,.4,-1.1c.2,-.4,.4,-1,.5,-1.2c.2,-.5,.5,-.7,.9,-.6c.1,.1,.2,.3,.3,.4c.2,.3,.2,.2,.1,-.2c-.1,-.3,-.2,-.6,-.1,-.6c0,0,0,-.2,0,-.4c.1,-.4,1,-2,1.6,-2.6c.3,-.3,.6,-.6,.7,-.7c.1,-.2,.5,-.5,.8,-.7c.3,-.2,.7,-.6,.9,-.8c.4,-.4,.7,-.5,.9,-.2c.2,.2,.2,.1,.2,-.2c0,-.2,0,-.4,0,-.5c.1,-.2,1.5,-1.2,2.1,-1.5c.3,-.1,.6,-.3,.8,-.4c.1,-.1,.3,-.2,.4,-.2c0,0,.4,-.2,.8,-.5c.4,-.2,.9,-.4,1,-.5c.2,0,.6,-.2,1,-.4c1.1,-.5,1.6,-.7,2.4,-1c.5,-.2,.9,-.4,1,-.4c0,0,.1,0,.3,.1l.2,.2l.4,-.3c.6,-.6,1.6,-.9,3.8,-1.2c.9,-.1,2.2,-.3,2.8,-.4l1,-.1l.1,.3c.1,.2,.1,.3,-.3,.4c-2.7,1,-4.6,2,-5.5,2.9c-.3,.2,-.5,.3,-.5,.3c-.1,0,-1.5,1.5,-1.5,1.6c0,0,-.1,.2,-.2,.3c-.3,.2,-.6,.7,-.5,1.1c0,.1,-.1,.3,-.4,.5c-.3,.2,-.4,.3,-.4,.4c.2,.1,0,.9,-.2,1.2c-.7,.7,-1.7,2.2,-1.9,2.9c-.1,.1,-.2,.4,-.4,.7c-.2,.3,-.4,.8,-.5,1.1q-.4,.9,-1,.9c-.5,.1,-1.4,.4,-1.3,.5c0,0,.4,0,.9,-.1c1.1,-.1,1.2,0,.8,.7c-.4,.7,-.7,1.7,-.7,2.1c0,.4,-.2,.9,-.6,2.3c-.1,.3,-.3,.5,-.7,.7c-.5,.3,-.6,.3,-1.2,.4q-.7,0,-.6,.2c.1,.1,-.1,.4,-.5,1.3c-.3,.6,-.7,1.2,-.8,1.3c-.2,.2,-.4,.5,-.6,.8c-.2,.3,-.4,.5,-.5,.5c0,0,-.2,.2,-.3,.3c-.6,.8,-2.7,2.6,-3,2.7l.3,-3.3c.1,.2,.4,0,.6,-.2c.2,-.4,.5,-.6,1.1,-.6c.5,-.1,.6,-.1,1,-.5c.2,-.3,.6,-.9,.9,-1.4l.5,-1l-.5,-.2c-.3,-.2,-.6,-.4,-.7,-.5c-.1,-.2,.4,-.9,.7,-1c.2,-.1,.5,-.2,.7,-.2c.2,0,.5,-.1,.7,-.3c.3,-.1,.5,-.2,.7,-.3c.6,0,.8,-.4,.8,-1.3c.1,-.9,.2,-1,.5,-1.2c.4,-.1,.7,-.1,.9,.2l.1,.2l.1,-.2c.1,-.3,.1,-.4,-.1,-.4c-.1,0,-.2,-.1,-.3,-.3q-.1,-.2,-.6,-.4c-.6,-.2,-.7,-.3,-.5,-.5c0,-.1,0,-.3,0,-.4c-.1,-.3,.4,-.7,1,-1c.5,-.2,.6,-.3,1.1,-1.2c.3,-.6,.8,-1.3,1,-1.5c.2,-.2,.5,-.5,.6,-.7c.1,-.2,.2,-.2,.4,-.2c.2,0,.4,-.1,.5,-.2c.2,-.1,.9,-1.1,.8,-1.1c0,0,-.2,.1,-.5,.2c-.7,.3,-1.8,.3,-2,-.1c-.2,-.3,.4,-1.2,.9,-1.2c.1,0,1.1,-.5,1.5,-.8c.1,-.1,.3,-.5,.5,-.8c.3,-.7,.8,-1.4,1.2,-1.5c.5,-.1,.7,-.3,.9,-.7c.2,-.4,.1,-.7,-.4,-.9c-.1,0,-.3,-.2,-.4,-.3c0,-.1,-.1,-.2,-.2,-.2c-.3,0,-3,1.1,-4.1,1.6c-.2,.1,-.5,.4,-.7,.6c-.1,.1,-.5,.5,-.9,.8c-.4,.3,-.9,.8,-1,1c-.1,.3,-.4,.7,-.7,.9c-.4,.4,-.4,.5,-.4,1.2c-.1,.5,0,1,.1,1.2c.3,.7,.2,1.1,-.3,1c-.5,0,-.8,-.3,-1.3,-1.5c-.3,-.6,-.6,-1,-.6,-1c-.2,0,-.8,.7,-1.1,1.2c-.2,.6,-.3,.7,-.7,.8c-.5,.2,-.5,.3,-.7,.8c-.1,.2,-.1,.6,-.1,.7c.1,.1,.1,.3,.1,.3c-.1,.4,-.1,.8,.1,1.3c.2,.3,.3,.6,.3,.8c0,.1,.1,.5,.3,.9c.3,.6,.3,.7,.2,1.2c-.1,.3,-.1,.6,-.1,.7c-.1,.3,-.4,.2,-1.1,-.3c-.5,-.5,-1.2,-1.2,-2,-2.3c-.3,-.4,-.4,-.5,-.3,-.1c0,.1,-.1,.5,-.2,.8c-.2,.6,-.1,1.4,.2,1.7c.2,.3,.8,1.9,.9,2.3c0,.2,0,.4,.1,.5c.1,.2,.1,1,-.1,1.3c0,.1,0,.3,0,.4c0,.1,-.1,.2,-.2,.2c-.2,.1,-.7,-.3,-1,-.6c-.1,-.1,-.3,-.4,-.4,-.5l-.3,-.3l-.1,.2c-.1,.3,0,.7,.1,1.1c.3,.8,.4,2.4,.2,3c0,.1,-.2,.4,-.4,.5c-.4,.3,-.3,.5,.4,1.4l.4,.5l.1,-.2c.1,-.2,.2,-.6,.3,-1c.1,-.3,.2,-.8,.3,-1c.1,-.2,.2,-.6,.3,-.8q.1,-.5,2.3,-5.3c1,-2,1,-2.1,1.9,-3.3c.7,-1.1,1.3,-2.1,1.9,-3.1c.8,-1.3,.9,-1.5,1.4,-2.1c.3,-.3,.7,-.8,.9,-1c.9,-1.2,1.1,-1.5,1.3,-1.4c.1,0,.2,.1,.2,.1c0,.1,-.2,.5,-.5,.9c-.3,.4,-.8,1.1,-1,1.5c-.9,1.5,-2.1,3.4,-2.5,4c-.2,.3,-.5,.7,-.6,1c-.1,.2,-.4,.5,-.5,.8c-.2,.3,-.3,.6,-.3,.7c-.1,.3,-.2,.8,-1.2,2.6c-.8,1.5,-1,2,-1.7,3.7c-.5,1,-.8,2.2,-.7,2.3l-.3,3.3c-.3,0,-.5,1.8,-.2,2.9c.1,.8,.1,1.1,-.2,1.3c-.6,.4,-1.1,1.1,-1.3,1.6c-.1,.4,-.2,.6,-.4,.6c-.1,0,-.2,0,-.3,-.2Z" class="gd_16"/>
<path d="M133.1,887.6c-.1,0,-.3,-.1,-.3,-.1c-.2,0,-.2,.1,0,.2c0,0,.2,.1,.3,0q.2,0,0,-.1Z" class="g1_16"/>
<path d="M144.5,868.6c0,-.1,0,-.2,-.1,-.1q-.1,0,-.2,.1q0,.1,.1,.1c.1,0,.2,-.1,.2,-.1Z" class="g1_16"/>
<path d="M125.7,901.2c-.1,-.1,-.1,-.2,-.1,-.3c.1,-.1,.1,-.9,.1,-1.7c0,-1.4,.1,-2.2,.4,-3.5l.1,-.6l-.5,-1c-.2,-.5,-.5,-1.3,-.6,-1.6c-.1,-.4,-.3,-.8,-.3,-1c-.2,-.7,-.3,-2.8,-.3,-3.9c.1,-1.1,.5,-2.6,.7,-2.6c.1,0,.2,.1,.5,.6c.4,.7,.6,.7,.2,-.1c-.4,-.8,-.7,-1.9,-.7,-2.5c0,-.4,.5,-1.9,.9,-2.7c.2,-.4,.3,-.5,.5,-.5c.3,-.1,.3,0,.9,.9l.5,.7l-.4,-.8c-.5,-1.1,-.4,-1.7,.3,-2.9c.3,-.5,.6,-1,.7,-1.1c.1,-.1,.4,-.4,.6,-.7c.3,-.3,.8,-.7,1.2,-1c.3,-.2,.7,-.6,.9,-.8c.4,-.5,.7,-.4,1,.2l.2,.3l-.1,-.4c-.1,-.8,0,-1,.8,-1.7c.5,-.3,.9,-.5,1,-.5c0,0,.1,-.1,.1,-.1c0,-.1,.1,-.1,.3,-.1c.2,-.1,.2,0,.2,.1c-.1,0,-.1,.1,-.2,.1c-.1,0,-.4,.3,-.7,.6c-.4,.3,-.8,.6,-.9,.6c-.2,.2,-.3,.3,-.3,.7c.1,.3,.1,.7,.2,.9c.1,.4,.1,.9,0,1c-.2,0,-.4,-.3,-.7,-.9l-.3,-.7l-.4,.3c-.1,.1,-.3,.3,-.3,.3c-.1,.1,-.3,.3,-.6,.5c-.3,.2,-.6,.5,-.7,.6c-.1,.1,-.3,.3,-.6,.6c-.6,.6,-1.6,2.2,-1.5,2.5c.1,.3,1,2.2,1.7,3.5c.5,.9,.6,1,.4,1c-.2,0,-1.2,-.8,-1.6,-1.4c-.3,-.3,-.6,-.7,-.8,-.9c-.1,-.2,-.3,-.5,-.4,-.6c-.2,-.4,-.4,-.4,-.6,0c-.3,.4,-.8,2.1,-.9,2.4c-.1,.8,.6,2.7,1.5,3.8c.7,1,.7,1.3,-.1,.8c-.3,-.2,-1.2,-1.2,-1.5,-1.6c0,-.1,-.1,-.2,-.1,-.1c-.2,0,-.4,1,-.4,1.7c0,.3,0,.7,-.1,.8c0,.1,0,.7,.1,1.3c.1,.6,.1,1.3,.1,1.6c.1,.6,1,3,1.2,3c0,0,0,-.1,0,-.1c0,0,.1,-.5,.3,-1.1c.2,-.6,.3,-1.3,.4,-1.5c0,-.2,.1,-.4,.1,-.5c.1,-.1,.2,-.4,.3,-.7c.1,-.5,.2,-.9,1.1,-2.6c.3,-.6,.7,-1.5,.9,-2c.8,-1.6,1.6,-3.2,2.2,-4.2c.7,-1,1.1,-1.6,1.9,-2.9c.2,-.4,.6,-.9,.7,-1.1c.2,-.2,.3,-.5,.3,-.5c.1,-.1,.3,-.4,.6,-.7c.2,-.3,.6,-.8,.8,-1.1c.9,-1.2,1.1,-1.3,1.2,-1.2c.2,.1,.2,.2,-.6,1.1c-.2,.3,-.6,.9,-.8,1.3c-.8,1.3,-2.1,3.4,-2.4,3.8c-.6,.9,-1.5,2.5,-1.5,2.8c0,.1,-.5,1.3,-1.2,2.6c-.7,1.3,-1.3,2.7,-1.5,3.1c-.1,.4,-.3,.7,-.3,.8c-.1,0,-.5,1.2,-.6,1.8c0,.2,-.1,.7,-.1,.9c-.2,.8,-.3,2,-.3,2.1c0,0,.1,0,.3,-.1c.1,-.1,.3,-.3,.6,-.5c.2,-.2,.5,-.5,.8,-.7c.2,-.2,.4,-.4,.5,-.5c.6,-.6,.9,-.9,1.2,-1.4c.3,-.4,.6,-.7,.7,-.9c.3,-.2,1.2,-2,1.2,-2.1c-.1,0,-.4,-.2,-.9,-.5c-.9,-.4,-1,-.6,-.8,-.7c.1,0,1,.1,1.8,.3c.2,0,.7,0,1,0c.9,0,1.4,-.4,1.6,-1c.1,-.3,.2,-.6,.2,-.8c.1,-.3,.3,-1,.3,-1.5c.1,-.5,.4,-1.3,.6,-1.6l.2,-.4l-.5,.1c-.5,0,-1.6,-.2,-1.7,-.4c-.1,-.2,.7,-.6,1.6,-.8l.8,-.1l.2,-.6c.2,-.3,.3,-.7,.4,-.9c0,-.1,.1,-.4,.2,-.4c.1,-.1,.3,-.4,.4,-.6c.1,-.3,.3,-.7,.5,-.9c1.3,-2,1.5,-2.3,1.4,-2.3c-.1,0,-.4,.1,-.6,.2c-.7,.3,-1.5,.3,-1.5,0c0,-.3,1.8,-1.3,2.7,-1.6c.4,0,.4,-.1,.4,-.5c0,-.3,.2,-.6,.3,-.8c.1,-.2,.3,-.5,.4,-.7c.3,-.5,2.2,-2.1,3.2,-2.8c.7,-.4,1.8,-1,2.7,-1.3l.7,-.3l-1.6,.2c-2.6,.3,-3.7,.7,-4.4,1.4c-.3,.4,-.4,.4,-.5,.2c-.1,-.2,.6,-1,1.2,-1.2c.6,-.3,1.7,-.5,2.4,-.6c.4,0,1.5,-.2,2.5,-.4c1.5,-.2,1.8,-.3,1.9,-.2c.4,.2,.3,.4,-.2,.6c-1.1,.4,-2.2,.9,-2.9,1.2c-.7,.4,-2,1.1,-2.2,1.3c-.1,0,-.3,.2,-.5,.4c-1,.8,-1.7,1.5,-1.9,1.8c-.1,.2,-.3,.5,-.4,.6c-.1,.2,-.3,.5,-.3,.7c0,.3,-.1,.5,-.4,.7c-.2,.1,-.5,.2,-.6,.2l-.2,.1h.2c.4,.1,.5,.3,.3,.5c0,.1,-.1,.2,-.1,.3c.1,.1,-.1,.3,-.4,.6c-.2,.3,-.5,.6,-.6,.8c-.1,.2,-.3,.5,-.4,.7c-.4,.5,-.6,.9,-.7,1.2c0,.1,-.2,.4,-.4,.7c-.2,.5,-.4,.9,-.7,1.7c-.1,.3,-.2,.3,-.7,.4c-.7,.1,-1.5,.4,-1.4,.5c0,0,.4,0,.9,-.1c.8,-.1,.9,-.1,1,.1c.1,.1,.1,.3,-.2,.6c-.3,.6,-.7,1.7,-.7,2.2c0,.3,-.3,1.3,-.6,2.1c-.1,.3,-.2,.5,-.6,.8c-.5,.3,-.6,.3,-1.2,.3c-.4,0,-.9,0,-1,-.1c-.2,-.1,-.5,-.1,-.8,-.2h-.6l.5,.2c.3,.1,.6,.2,.7,.2c.5,0,.5,.1,.6,.2c.1,.1,-.9,2,-1.3,2.5c-.2,.2,-.5,.6,-.6,.8c-.2,.2,-.4,.5,-.5,.6c-.2,.1,-.4,.3,-.6,.5c-.4,.5,-1.3,1.4,-1.7,1.6c-.1,.1,-.4,.3,-.5,.5c-.1,.1,-.3,.2,-.5,.3c-.2,.1,-.3,.2,-.3,.4c-.1,.5,-.1,1.9,-.1,2.1c0,.1,.1,.5,.1,.8c.1,.6,.1,.7,-.2,.9c-.4,.4,-1,1.2,-1.2,1.7c-.2,.3,-.3,.6,-.3,.6c-.1,0,-.2,-.1,-.3,-.1Z" class="ge_16"/>
<path d="M128.2,880.8q-.1,-.2,-.1,-.1c-.1,.2,0,.4,.1,.4c.1,-.1,.1,-.2,0,-.3Z" class="ge_16"/>
<path d="M139.7,875c.2,-.2,.5,-.3,.7,-.5l.2,-.2l-.3,.1c-.5,.1,-1.4,.6,-1.4,.7c0,.1,.3,.1,.8,-.1Z" class="gf_16"/>
<path d="M139.7,874.9c.4,-.2,.6,-.4,.2,-.3c-.3,.1,-.9,.5,-.7,.5c0,0,.3,-.1,.5,-.2Z" class="g1_16"/>
<path d="M134.9,871.7c0,-.1,.6,-.5,.7,-.5c.2,.1,.2,.2,-.1,.3c-.1,0,-.3,.1,-.4,.2q-.1,0,-.2,0Z" class="ge_16"/>
<path d="M136.2,870.9c.1,-.1,.2,-.2,.3,-.2q.2,0,.1,.2c-.1,.1,-.2,.2,-.3,.2q-.2,0,-.1,-.2Z" class="ge_16"/>
<path d="M137.1,870.4c.1,-.1,.6,-.3,.7,-.2c0,.1,-.5,.4,-.7,.4q-.1,0,0,-.2Z" class="ge_16"/>
<path d="M137.9,870.1c0,-.1,.8,-.5,1.3,-.7c.3,0,.6,-.1,.7,-.2c.4,-.3,1.9,-.9,2.1,-.8c.2,.1,.1,.4,-.2,.4c-.5,0,-1.7,.5,-3,1.1c-.6,.3,-.8,.3,-.9,.2Z" class="ge_16"/>
<path d="M125.7,901.1c0,0,0,-.1,0,-.2c0,-.1,.1,-.6,.1,-1.2c0,-1.4,0,-1.9,.4,-4.1l.1,-.6l-.6,-1c-.3,-.7,-.5,-1.2,-.6,-1.6c-.1,-.3,-.2,-.8,-.2,-.9c-.3,-1.1,-.4,-4.2,-.1,-5.2c.1,-.4,.2,-.8,.2,-1c.1,-.4,.2,-.3,.7,.4c.6,1,.9,.9,.3,-.1c-.4,-.7,-.8,-2,-.8,-2.6c0,-.4,.6,-1.9,1,-2.7c.1,-.3,.3,-.4,.4,-.5c.2,0,.3,.1,.5,.4c.5,.6,.6,.9,.5,.9c-.1,0,-.3,-.2,-.4,-.5c-.4,-.7,-.6,-.6,-1.2,.9c-.7,1.8,-.6,2.4,.7,4.7c.5,.9,.8,1.5,.7,1.5c-.2,.1,-1.4,-1,-1.7,-1.6c-.1,-.1,-.2,-.2,-.3,-.3c-.1,-.1,-.1,0,-.2,.1c-.3,.9,-.4,2.6,-.2,4.1c0,.5,.1,1.1,.1,1.3c0,.6,1,3.2,1.2,3.1c.1,0,.1,-.1,.1,-.2c0,-.2,.1,-.7,.3,-1.3c.2,-.6,.3,-1.2,.4,-1.4c0,-.1,0,-.3,.1,-.3c.1,0,.4,-1.1,.4,-1.2c0,0,.1,-.3,.2,-.6c.9,-1.9,1.3,-2.8,1.6,-3.5c.8,-1.6,1.6,-3.2,2.3,-4.2c.7,-1.2,1.3,-2.1,1.9,-3.1c.2,-.3,.5,-.8,.7,-1c.1,-.2,.3,-.4,.3,-.5c0,-.1,.6,-.7,.9,-1.1c.1,-.1,.3,-.3,.5,-.6c.6,-.9,1,-1.3,1.1,-1.3c.1,.1,.1,0,-.6,.9c-.2,.4,-.7,1.1,-.9,1.5c-.8,1.4,-2,3.3,-2.3,3.7c-.6,.7,-1.6,2.6,-1.6,2.9c0,.1,-.5,1.3,-1.2,2.6c-.6,1.2,-1.3,2.6,-1.4,3c-.2,.4,-.4,1,-.6,1.3c-.2,.7,-.4,1.5,-.4,1.9c0,.1,-.1,.4,-.1,.6c-.1,.3,-.2,.8,-.2,1.2c-.1,.6,-.1,.7,.1,.7c.1,.1,.2,0,.2,-.1c.1,0,.3,-.3,.6,-.5c.3,-.2,.5,-.4,.6,-.5c0,-.1,.3,-.3,.5,-.5c.7,-.6,1.1,-1,1.5,-1.6c.3,-.4,.6,-.7,.7,-.8c.2,-.3,1.1,-1.9,1.1,-2.1c0,-.1,-.1,-.2,-.6,-.5c-.7,-.3,-.6,-.4,.1,-.1c.3,.1,.6,.2,.7,.2c.4,-.1,.3,.2,-.2,1.3c-.3,.6,-.7,1.2,-.9,1.4c-.1,.1,-.4,.5,-.6,.7c-.2,.3,-.4,.6,-.5,.7c-.1,.1,-.3,.3,-.5,.4c-.1,.2,-.4,.5,-.6,.7c-.2,.2,-.5,.4,-.6,.6c-.1,.1,-.3,.2,-.3,.2c-.1,0,-.3,.2,-.5,.4c-.2,.2,-.5,.4,-.7,.4c-.2,.1,-.3,.3,-.3,.7c-.1,.4,-.1,.7,-.1,.7c0,.1,0,.3,0,.6c0,.3,.1,.7,.1,.9c.2,.9,.1,1.2,-.1,1.4c-.4,.2,-1.1,1.2,-1.3,1.7c-.2,.5,-.3,.6,-.5,.4Z" class="gg_16"/>
<path d="M134,887.6c-.4,0,-.8,-.1,-1,-.1c-.2,-.1,-.4,-.1,-.5,-.1c-.1,0,-.3,0,-.4,-.1c-.1,-.1,-.3,-.1,-.4,0c-.1,0,-.2,0,-.3,-.1c-.1,-.2,.3,-.2,1.8,.1c1.4,.3,2.5,-.1,2.7,-1c0,-.2,.1,-.6,.2,-.8c.1,-.2,.2,-.6,.2,-.8c.1,-.3,.1,-.8,.3,-1.6c.1,-.2,.2,-.6,.4,-.7c.1,-.2,.2,-.4,.1,-.4c0,0,-.2,0,-.4,0c-.4,.1,-1.6,-.1,-1.7,-.3c-.1,-.2,.8,-.6,2,-.8c.3,0,.4,-.1,.6,-.7c.6,-1.5,1.6,-3.3,2.9,-4.9c.1,-.2,.1,-.3,0,-.3c0,0,-.3,0,-.7,.2c-.6,.2,-1.3,.3,-1.4,.1c0,0,0,-.1,.1,-.2q.2,0,.2,.1c.1,.1,.1,.2,.2,.2c.2,-.1,1.2,-.5,1.5,-.7c.3,-.3,.6,-.4,.6,-.2c.1,.1,-.1,.8,-.2,1c-.2,.1,-.5,.5,-.7,.9c-.1,.1,-.4,.4,-.6,.7c-.3,.6,-.5,.9,-.6,1.3c-.1,.1,-.3,.4,-.4,.7c-.3,.5,-.6,1.1,-.8,1.7c-.1,.2,-.2,.2,-.7,.3c-.8,.2,-1.6,.5,-1.4,.6c0,.1,.4,.1,1,0c.8,-.1,.9,-.1,1,0c0,.1,-.1,.4,-.3,.6c-.3,.6,-.6,1.6,-.7,2.1c0,.3,-.1,.7,-.2,1c-.1,.3,-.2,.7,-.2,.8c-.1,.6,-.4,.9,-.8,1.1c-.6,.4,-.7,.4,-1.4,.3Z" class="gg_16"/>
<path d="M129.6,883.3c-.2,-.1,-.4,-.3,-.5,-.4c-.3,-.2,-1,-1,-1,-1.1c0,0,.1,-.1,.1,-.1c.1,0,.5,.4,.6,.6c.1,.1,.2,.1,.2,.1c.1,0,.1,-.1,-.1,-.3c-.1,-.2,-.3,-.5,-.4,-.8c-.1,-.2,-.4,-.8,-.6,-1.3c-.3,-.5,-.5,-1,-.5,-1.1c0,-.1,.2,-.6,.5,-1.1c.6,-1,1.6,-2.2,2.5,-2.8c.4,-.3,.8,-.6,.9,-.8c.4,-.5,.6,-.5,.9,.2q.3,.6,.4,.5c.1,0,.2,0,.2,0c0,0,.1,.2,.1,.4c.1,.6,-.1,.4,-.6,-.4c-.4,-.7,-.5,-.8,-.7,-.5c-.1,.1,-.7,.6,-1.1,.9c-.7,.4,-1.8,1.8,-2.5,2.9l-.4,.7l.7,1.4c.7,1.4,1.1,2.2,1.5,2.7c.2,.4,.2,.6,-.2,.3Z" class="gg_16"/>
<path d="M128.1,881.3c-.1,-.1,0,-.1,0,-.1c.1,-.1,.1,0,.2,.1c0,.1,0,.2,0,.2c-.1,0,-.2,-.1,-.2,-.2Z" class="gg_16"/>
<path d="M127.6,880.3c-.3,-.6,-.2,-.8,0,-.4c.2,.2,.4,.8,.3,.9c-.1,0,-.2,-.1,-.3,-.5Z" class="gg_16"/>
<path d="M140.1,874.2c.5,-.3,1.1,-.5,1.2,-.4c.1,.2,-.1,.3,-.8,.4c-.8,.3,-.9,.3,-.4,0Z" class="gg_16"/>
<path d="M141.5,873.7c0,0,0,-.2,0,-.4c0,-.5,.7,-1.7,1.3,-2.3c1.8,-1.6,3.9,-3,5.7,-3.5c.6,-.2,.6,-.4,-.1,-.2c-.3,0,-1.3,.2,-2.2,.3c-1,.1,-1.9,.3,-2.1,.4c-.4,.1,-1.2,.6,-1.5,.9c-.2,.3,-.3,.3,-.4,.2c-.1,-.2,.9,-1,1.4,-1.2c1.1,-.4,1.4,-.4,2.1,-.5c.4,0,1.6,-.2,2.6,-.4c1.8,-.3,2,-.3,2.1,0c0,0,-.3,.2,-.7,.3c-2.5,1,-4.4,2,-5.3,2.8c-.2,.2,-.4,.3,-.4,.3c-.1,.1,-.2,.1,-.3,.2c-.1,.1,-.3,.4,-.6,.6c-.2,.2,-.5,.6,-.6,.8c-.1,.1,-.3,.4,-.5,.5c-.1,.2,-.2,.5,-.3,.7c0,.4,-.1,.6,-.2,.5Z" class="gg_16"/>
<path d="M132.6,874.2c-.1,-.2,-.2,-.7,-.1,-1c0,0,.3,-.3,.6,-.5c.3,-.2,.7,-.4,.8,-.5l.2,-.2l-.1,.2c-.2,.3,-1,1,-1.2,1.1c-.1,0,-.2,.2,-.2,.4c0,.1,0,.3,0,.5c.1,.1,0,.2,0,0Z" class="gg_16"/>
<path d="M141.5,868.6c.2,-.2,.5,-.2,.5,-.1c0,.1,-.1,.2,-.3,.2q-.4,0,-.2,-.1Z" class="gg_16"/>
<path d="M125.7,901.1c0,0,0,-.1,0,-.2c0,-.1,.1,-.6,.1,-1.2c0,-1.3,0,-1.8,.4,-4.2c.1,-.5,0,-.5,-.5,-1.5c-.3,-.7,-.5,-1.2,-.6,-1.6c-.1,-.3,-.2,-.8,-.2,-.9c-.3,-1.1,-.4,-4.2,-.1,-5.2c.1,-.4,.2,-.8,.2,-1c.1,-.4,.2,-.3,.7,.4c.6,1,.9,.9,.3,-.1c-.4,-.7,-.8,-2,-.8,-2.6c0,-.4,.6,-1.9,1,-2.7c.1,-.3,.3,-.4,.4,-.5c.2,0,.3,.1,.5,.4c.5,.6,.6,.9,.5,.9c-.1,0,-.3,-.2,-.4,-.5c-.4,-.7,-.6,-.6,-1.2,.9c-.7,1.8,-.6,2.4,.7,4.7c.5,.9,.8,1.5,.7,1.5c-.2,.1,-1.4,-1,-1.7,-1.6c-.1,-.1,-.2,-.2,-.3,-.3c-.1,-.1,-.1,0,-.2,.1c-.3,.9,-.4,2.6,-.2,4.1c0,.5,.1,1.1,.1,1.3c0,.6,1,3.2,1.2,3.1c.1,0,.1,-.1,.1,-.2c0,-.2,.1,-.7,.3,-1.3c.2,-.6,.3,-1.2,.4,-1.4c0,-.1,0,-.3,.1,-.3c.1,0,.4,-1.1,.4,-1.2c0,0,.1,-.3,.2,-.6c.9,-1.9,1.3,-2.8,1.6,-3.5c.8,-1.6,1.6,-3.2,2.3,-4.2c.7,-1.2,1.3,-2.1,1.9,-3.1c.2,-.3,.5,-.8,.7,-1c.1,-.2,.3,-.4,.3,-.5c0,-.1,.6,-.7,.9,-1.1c.1,-.1,.3,-.3,.5,-.6c.6,-.9,1,-1.3,1.1,-1.3c.1,.1,.1,0,-.7,1.1c-1.5,2,-2.3,3.2,-3.6,5.4c-.3,.4,-.7,1.1,-1,1.5c-.4,.6,-.5,.8,-.4,.9c.4,0,.3,.4,-.8,2.6c-.7,1.3,-1.4,2.7,-1.5,3.1c-.2,.4,-.4,1,-.6,1.3c-.2,.7,-.4,1.5,-.4,1.9c0,.1,-.1,.4,-.1,.6c-.1,.3,-.2,.8,-.2,1.2c-.1,.6,-.1,.7,.1,.7c.1,.1,.2,0,.2,-.1c.1,0,.3,-.3,.6,-.5c.3,-.2,.5,-.4,.6,-.5c0,-.1,.3,-.3,.5,-.5c.7,-.6,1.1,-1,1.5,-1.6c.3,-.4,.6,-.7,.7,-.8c.2,-.3,1.1,-1.9,1.1,-2.1c0,-.1,-.1,-.2,-.6,-.5c-.7,-.3,-.6,-.4,.1,-.1c.3,.1,.6,.2,.7,.2c.4,-.1,.3,.2,-.2,1.3c-.3,.6,-.7,1.2,-.9,1.4c-.1,.1,-.4,.5,-.6,.7c-.2,.3,-.4,.6,-.5,.7c-.1,.1,-.3,.3,-.5,.4c-.1,.2,-.4,.5,-.6,.7c-.2,.2,-.5,.4,-.6,.6c-.1,.1,-.3,.2,-.3,.2c-.1,0,-.3,.2,-.5,.4c-.2,.2,-.5,.4,-.7,.4c-.2,.1,-.3,.3,-.3,.7c-.1,.4,-.1,.7,-.1,.7c0,.1,0,.3,0,.6c0,.3,.1,.7,.1,.9c.2,.9,.1,1.2,-.1,1.4c-.4,.2,-1.1,1.2,-1.3,1.7c-.2,.5,-.3,.6,-.5,.4Z" class="gh_16"/>
<path d="M134,887.6c-.4,0,-.8,-.1,-1,-.1c-.2,-.1,-.4,-.1,-.5,-.1c-.1,0,-.3,0,-.4,-.1c-.1,-.1,-.3,-.1,-.4,0c-.1,0,-.2,0,-.3,-.1c-.1,-.2,.3,-.2,1.8,.1c1.4,.3,2.5,-.1,2.7,-1c0,-.2,.1,-.6,.2,-.8c.1,-.2,.2,-.6,.2,-.8c.1,-.3,.1,-.8,.3,-1.6c.1,-.2,.2,-.6,.4,-.7c.1,-.2,.2,-.4,.1,-.4c0,0,-.2,0,-.4,0c-.4,.1,-1.6,-.1,-1.7,-.3c-.1,-.2,.8,-.6,2,-.8c.3,0,.4,-.1,.6,-.7c.6,-1.5,1.6,-3.3,2.9,-4.9c.1,-.2,.1,-.3,0,-.3c0,0,-.3,0,-.7,.2c-.6,.2,-1.3,.3,-1.4,.1c0,0,0,-.1,.1,-.2q.2,0,.2,.1c.1,.1,.1,.2,.2,.2c.2,-.1,1.2,-.5,1.5,-.7c.3,-.3,.6,-.4,.6,-.2c.1,.1,-.1,.8,-.2,1c-.2,.1,-.5,.5,-.7,.9c-.1,.1,-.4,.4,-.6,.7c-.3,.6,-.5,.9,-.6,1.3c-.1,.1,-.3,.4,-.4,.7c-.3,.5,-.6,1.1,-.8,1.7c-.1,.2,-.2,.2,-.7,.3c-.8,.2,-1.6,.5,-1.4,.6c0,.1,.4,.1,1,0c.8,-.1,.9,-.1,1,0c0,.1,-.1,.4,-.3,.6c-.3,.6,-.6,1.6,-.7,2.1c0,.3,-.1,.7,-.2,1c-.1,.3,-.2,.7,-.2,.8c-.1,.6,-.4,.9,-.8,1.1c-.6,.4,-.7,.4,-1.4,.3Z" class="gh_16"/>
<path d="M129.6,883.3c-.2,-.1,-.4,-.3,-.5,-.4c-.3,-.2,-1,-1,-1,-1.1c0,0,.1,-.1,.1,-.1c.1,0,.5,.4,.6,.6c.1,.1,.2,.1,.2,.1c.1,0,.1,-.1,-.1,-.3c-.1,-.2,-.3,-.5,-.4,-.8c-.1,-.2,-.4,-.8,-.6,-1.3c-.3,-.5,-.5,-1,-.5,-1.1c0,-.1,.2,-.6,.5,-1.1c.6,-1,1.6,-2.2,2.5,-2.8c.4,-.3,.8,-.6,.9,-.8c.4,-.5,.6,-.5,.9,.2q.3,.6,.4,.5c.1,0,.2,0,.2,0c0,0,.1,.2,.1,.4c.1,.6,-.1,.4,-.6,-.4c-.4,-.7,-.5,-.8,-.7,-.5c-.1,.1,-.7,.6,-1.1,.9c-.7,.4,-1.8,1.8,-2.5,2.9l-.4,.7l.7,1.4c.7,1.4,1.1,2.2,1.5,2.7c.2,.4,.2,.6,-.2,.3Z" class="gh_16"/>
<path d="M128.1,881.3c-.1,-.1,0,-.1,0,-.1c.1,-.1,.1,0,.2,.1c0,.1,0,.2,0,.2c-.1,0,-.2,-.1,-.2,-.2Z" class="gh_16"/>
<path d="M127.6,880.3c-.3,-.6,-.2,-.8,0,-.4c.2,.2,.4,.8,.3,.9c-.1,0,-.2,-.1,-.3,-.5Z" class="gh_16"/>
<path d="M140.1,874.2c.5,-.3,1.1,-.5,1.2,-.4c.1,.2,-.1,.3,-.8,.4c-.8,.3,-.9,.3,-.4,0Z" class="gh_16"/>
<path d="M141.5,873.7c0,0,0,-.2,0,-.4c0,-.5,.7,-1.7,1.3,-2.3c1.8,-1.6,3.9,-3,5.7,-3.5c.6,-.2,.6,-.4,-.1,-.2c-.3,0,-1.3,.2,-2.2,.3c-1,.1,-1.9,.3,-2.1,.4c-.4,.1,-1.2,.6,-1.5,.9c-.2,.3,-.3,.3,-.4,.2c-.1,-.2,.9,-1,1.4,-1.2c1.1,-.4,1.4,-.4,2.1,-.5c.4,0,1.6,-.2,2.6,-.4c1.8,-.3,2,-.3,2.1,0c0,0,-.3,.2,-.7,.3c-2.5,1,-4.4,2,-5.3,2.8c-.2,.2,-.4,.3,-.4,.3c-.1,.1,-.2,.1,-.3,.2c-.1,.1,-.3,.4,-.6,.6c-.2,.2,-.5,.6,-.6,.8c-.1,.1,-.3,.4,-.5,.5c-.1,.2,-.2,.5,-.3,.7c0,.4,-.1,.6,-.2,.5Z" class="gh_16"/>
<path d="M132.6,874.2c-.1,-.2,-.2,-.7,-.1,-1c0,0,.3,-.3,.6,-.5c.3,-.2,.7,-.4,.8,-.5l.2,-.2l-.1,.2c-.2,.3,-1,1,-1.2,1.1c-.1,0,-.2,.2,-.2,.4c0,.1,0,.3,0,.5c.1,.1,0,.2,0,0Z" class="gh_16"/>
<path d="M141.5,868.6c.2,-.2,.5,-.2,.5,-.1c0,.1,-.1,.2,-.3,.2q-.4,0,-.2,-.1Z" class="gh_16"/>
<path d="M127.2,898.8c.1,-.1,.1,-.3,.1,-.6c-.1,-.2,-.1,-.8,-.1,-1.4c0,-.5,0,-1,0,-1c0,-.1,0,-.2,0,-.3c0,-.2,.1,-.5,.1,-.8c.1,-1.3,.1,-1.6,.5,-3.1c0,-.2,.1,-.6,.1,-.8c.2,-.9,1.2,-3.1,2.4,-5.4c.6,-1.3,.9,-2,.9,-2.1c0,0,-.3,.4,-.6,1c-.3,.6,-.7,1.4,-.9,1.8c-.9,1.8,-1.9,4,-2,4.5c0,.2,-.2,.6,-.3,.9c0,.2,-.1,.4,-.1,.5c.1,.1,-.3,1.3,-.5,1.8c0,.2,-.1,.6,-.1,.8c-.1,.2,-.2,.7,-.2,1c-.3,1,-.5,2.6,-.3,2.9c0,.1,.2,.2,.4,.2c.4,.2,.3,.2,.6,.1Z" class="gg_16"/>
<path d="M124.9,891.5c-.1,-.2,-.3,-2,-.3,-3.2c0,-.8,.1,-1.6,.2,-2.2c.1,-.3,.2,-.7,.2,-.8c.1,-.4,.3,-.3,.6,.2c.1,.3,.4,.7,.6,.9l.3,.4l-.1,-.4c-.1,-.2,-.3,-.7,-.5,-1.1c-.4,-.9,-.7,-2.2,-.6,-2.7c.1,-.4,.6,-1.6,.9,-2.3c.2,-.5,.6,-.6,.8,-.3q0,.1,-.2,.2c-.2,0,-.3,.1,-.4,.4c-.7,1.3,-.9,2.4,-.9,3c.1,.2,.3,.9,.5,1.4c.4,.9,.5,1.2,1,1.8c.3,.4,.5,.8,.5,.9c0,.1,-.6,-.2,-.9,-.5c-.1,-.1,-.2,-.3,-.4,-.5c-.1,-.1,-.4,-.4,-.6,-.7l-.3,-.4l-.1,.2c-.4,.9,-.5,2.5,-.3,4.4c.1,1.2,.1,1.6,0,1.3Z" class="gi_16"/>
<path d="M133.7,887.6c-.2,0,-.4,-.1,-.6,-.1c-.2,-.1,-.4,-.1,-.5,-.1c-.2,0,-.8,-.2,-.8,-.3c0,0,.5,.1,1,.2c1.3,.2,2,.1,2.5,-.2c.4,-.3,.5,-.5,.8,-1.3c.2,-1,.3,-1.1,.3,-1.6c.1,-.6,.2,-1,.6,-1.7c.1,-.3,.2,-.5,.2,-.6c0,0,-.2,0,-.5,.1c-.3,.1,-.5,.1,-1.1,-.1l-.6,-.1l.1,-.2c.2,-.2,.8,-.5,1.6,-.6l.7,-.1l.3,-.7c.5,-1.4,1.6,-3.2,2.4,-4.4c.3,-.4,.5,-.8,.4,-.8q0,-.2,-.7,.1q-.7,.4,-.7,.3c0,-.1,.2,-.2,.3,-.2c.2,0,.5,-.3,.8,-.5c.4,-.2,.7,-.3,.8,-.2c.2,.1,-.1,.7,-.5,1.2c-.7,.8,-2,3,-2.6,4.5c-.1,.3,-.2,.6,-.3,.7c0,0,-.2,.1,-.3,.2c-.8,.1,-1,.1,-1.4,.3q-.5,.2,-.3,.3c0,.1,.3,.1,1,0c.7,-.1,.9,-.1,.9,0c.1,.1,-.1,.4,-.3,.8c-.4,.7,-.6,1.4,-.6,2c0,.2,-.1,.6,-.2,1c-.2,.4,-.2,.7,-.2,.7c0,.1,-.1,.3,-.2,.5c-.3,.7,-1.2,1,-2.3,.9Z" class="gi_16"/>
<path d="M131.5,887.2c0,0,0,-.1,.1,-.1c0,0,.1,0,.1,.1h-.1q0,.1,-.1,0Z" class="gi_16"/>
<path d="M129.3,883.1c-.6,-.5,-1.3,-1.4,-.9,-1.2c.1,.1,.3,.2,.3,.3c.1,.2,.4,.3,.5,.3c0,-.1,.5,.4,.6,.7c.1,.1,.1,.2,.1,.2c0,.1,-.3,-.1,-.6,-.3Z" class="gi_16"/>
<path d="M128.8,881.9c0,0,-.2,-.2,-.2,-.5c-.1,-.2,-.4,-.8,-.6,-1.3c-.3,-.5,-.5,-1,-.6,-1.1c0,-.2,.8,-1.9,1.2,-2.3c.1,-.1,.4,-.4,.7,-.7c.3,-.3,.6,-.6,.8,-.8c.6,-.4,.9,-.7,1.3,-1c.2,-.2,.4,-.4,.5,-.3c.2,0,.2,.2,0,.2c0,.1,-.4,.3,-.7,.6c-.4,.3,-.7,.5,-.7,.5c-.2,0,-.4,.2,-.9,.9c-.3,.3,-.5,.5,-.6,.5c0,0,-.9,1.4,-1.2,1.8c-.2,.5,-.2,.6,.4,1.8c.8,1.6,.9,2,.6,1.7Z" class="gi_16"/>
<path d="M127.2,880.7c-.1,-.2,-.1,-.3,0,-.3c.1,0,.2,.2,.3,.3c0,.1,0,.2,0,.3c-.1,0,-.2,-.2,-.3,-.3Z" class="gi_16"/>
<path d="M127.6,880.4c0,-.1,-.1,-.3,-.2,-.4c0,-.1,0,-.2,0,-.2c.1,0,.5,.5,.5,.7c0,.3,-.2,.2,-.3,-.1Z" class="gi_16"/>
<path d="M138.4,875.3c0,0,.1,-.1,.2,-.1q.1,0,.2,.1c0,0,-.1,.1,-.2,.1c-.1,0,-.2,0,-.2,-.1Z" class="gi_16"/>
<path d="M132.5,875.3c-.1,-.3,.1,-.4,.3,-.1c.1,.2,.1,.4,0,.4c-.1,0,-.2,-.1,-.3,-.3Z" class="gi_16"/>
<path d="M140.3,874.2c-.1,-.1,.8,-.4,.9,-.3c.1,0,.1,.1,0,.1c-.3,.1,-.9,.2,-.9,.2Z" class="gi_16"/>
<path d="M132.2,874.7c-.1,0,-.1,-.1,0,-.2c0,-.1,0,0,.1,.1c0,.1,0,.2,0,.2q-.1,0,-.1,-.1Z" class="gi_16"/>
<path d="M141.6,873.6c-.1,-.2,0,-.9,.2,-1.1c.1,-.2,.3,-.5,.4,-.7c.2,-.3,.4,-.5,.5,-.6c.1,-.1,.3,-.3,.4,-.4c.4,-.4,2,-1.7,2.8,-2.1c.8,-.4,1.9,-.9,2.8,-1.3c.6,-.2,.6,-.4,0,-.2c-.3,0,-1.3,.2,-2.2,.3c-1.7,.2,-2,.3,-2.4,.4c-.4,.2,-1.2,.7,-1.5,1c-.1,.1,-.2,.2,-.3,.2c-.2,-.1,.8,-1,1.2,-1.2c.7,-.2,1.8,-.5,2.4,-.5c.4,-.1,1.5,-.2,2.4,-.4c.9,-.1,1.8,-.3,1.8,-.2c.3,0,.3,.2,0,.4c-1.4,.5,-2.5,.9,-3.3,1.4c-.8,.4,-1.7,.9,-2,1.1c0,0,-.2,.2,-.4,.4c-1,.8,-1.8,1.6,-2,1.9c-.1,.2,-.2,.3,-.3,.3c-.1,0,-.4,.7,-.4,1.1c0,.2,-.1,.3,-.1,.2Z" class="gi_16"/>
<path d="M132.6,873.2c-.1,0,.6,-.5,1,-.8c.3,-.1,.2,0,-.2,.4c-.4,.4,-.7,.5,-.8,.4Z" class="gi_16"/>
<path d="M141.7,868.6q-.1,0,0,-.1c.1,-.1,.3,0,.2,.1c0,0,-.1,.1,-.2,0Z" class="gi_16"/>
<path d="M125.9,894.3c-.1,-.1,-.1,-.2,0,-.2c0,0,.1,0,.1,.1c.1,.2,.1,.3,.1,.3c-.1,0,-.2,-.1,-.2,-.2Z" class="gj_16"/>
<path d="M129,893.8q0,-.1,.1,-.2q.2,0,.2,.1c-.1,.1,-.4,.2,-.3,.1Z" class="gj_16"/>
<path d="M125.7,893.7q-.1,-.1,0,-.1c0,0,.1,.1,.1,.2q0,.1,-.1,-.1Z" class="gj_16"/>
<path d="M129.5,893.3c0,0,.2,-.2,.4,-.4c.2,-.2,.5,-.4,.5,-.6c.2,-.2,.4,-.3,.4,-.2c0,.1,-1,1.1,-1.2,1.2q-.1,.1,-.1,0Z" class="gj_16"/>
<path d="M125.4,893.1c-.1,-.1,-.1,-.3,-.1,-.4c0,-.2,0,-.1,.1,0c0,.1,.1,.3,.1,.4q0,.2,-.1,0Z" class="gj_16"/>
<path d="M131.2,891.5c.2,-.4,1,-1.3,1.1,-1.4c.1,-.1,.1,0,.2,0c0,0,-.1,.2,-.2,.3c-.2,.2,-.5,.6,-.7,.9c-.5,.6,-.8,.8,-.4,.2Z" class="gj_16"/>
<path d="M124.8,891c0,0,0,-.1,0,-.1c.1,-.1,.1,0,.2,0c0,.1,0,.2,0,.2q-.1,0,-.2,-.1Z" class="gj_16"/>
<path d="M132.5,889.9c0,-.3,.6,-1.3,.7,-1.2c.1,0,-.6,1.3,-.7,1.3c0,0,0,-.1,0,-.1Z" class="gj_16"/>
<path d="M124.8,890.4c-.1,-.1,-.1,-.2,-.1,-.3c.1,-.2,.2,-.1,.2,.2c0,.1,-.1,.2,-.1,.1Z" class="gj_16"/>
<path d="M124.7,889.7c0,-.1,0,-.2,0,-.3c.1,-.1,.1,.1,.1,.3v.2Z" class="gj_16"/>
<path d="M133.2,888.5c0,-.1,0,-.3,-.1,-.4c-.1,-.1,0,-.2,.1,-.2c.4,0,.5,.1,.2,.5q-.1,.2,-.2,.1Z" class="gj_16"/>
<path d="M124.6,888.6c0,-.3,.1,-.9,.1,-.9c.1,.1,.1,.5,0,.7c0,.2,-.1,.2,-.1,.2Z" class="gj_16"/>
<path d="M134,887.6c-.3,0,-.6,-.1,-.7,-.1q-.2,-.1,.1,-.1c.1,0,.5,0,.9,0c.5,0,.6,0,1,-.3c.3,-.2,.5,-.4,.6,-.6c.2,-.4,.2,-.3,.1,.2c-.1,.3,-.3,.4,-.7,.6c-.5,.3,-.6,.3,-1.3,.3Z" class="gj_16"/>
<path d="M132.4,887.3q-.4,-.1,0,-.1c.1,0,.2,.1,.2,.1c.1,0,.1,.1,.1,.1c-.1,0,-.2,-.1,-.3,-.1Z" class="gj_16"/>
<path d="M127,887.5c-.3,-.2,-.5,-.6,-.4,-.6c.1,0,0,-.2,-.1,-.3c-.3,-.6,-1,-2.2,-1,-2.4c0,-.1,.1,0,.3,.5c.2,.3,.6,1.1,1,1.8c.3,.6,.6,1.2,.6,1.2c-.1,0,-.2,-.1,-.4,-.2Z" class="gj_16"/>
<path d="M124.7,887.3c-.1,-.1,0,-.9,.2,-.9c0,-.1,0,0,0,.2c0,.4,-.1,.8,-.2,.7Z" class="gj_16"/>
<path d="M136.1,885.8c0,-.1,.1,-.2,.1,-.3q.1,-.1,.1,0c0,.1,-.1,.3,-.1,.3q-.1,.2,-.1,0Z" class="gj_16"/>
<path d="M126.2,886.6q-.1,-.1,0,-.1c0,.1,.1,.2,.1,.2c0,.1,0,0,-.1,-.1Z" class="gj_16"/>
<path d="M124.9,886.2c0,-.1,0,-.2,.1,-.4c0,-.1,.1,-.3,.1,-.5c0,-.3,.3,-.2,.4,.2c0,.2,0,.3,0,.2c-.1,-.1,-.4,-.2,-.4,0c.1,.1,-.1,.6,-.2,.5Z" class="gj_16"/>
<path d="M136.3,885.1c0,0,.1,-.1,.1,-.3q.1,-.3,.1,.1c0,.2,-.1,.3,-.2,.2Z" class="gj_16"/>
<path d="M136.5,883.9c0,-.1,0,-.2,.1,-.3c0,0,.1,0,0,.1c0,.1,0,.2,0,.3q-.1,0,-.1,-.1Z" class="gj_16"/>
<path d="M136.7,883.3c-.1,-.1,.1,-.6,.3,-.9c.2,-.2,.2,-.4,.2,-.4c-.1,-.1,-.3,-.1,-.7,0c-.7,.1,-.8,-.1,-.1,-.2c.4,-.1,.8,-.1,.9,-.2c.3,-.1,.3,.2,-.1,1c-.3,.4,-.5,.8,-.5,.7Z" class="gj_16"/>
<path d="M129.5,883.2c-.1,-.1,-.3,-.2,-.5,-.4c-.3,-.2,-.7,-.8,-.5,-.7c.1,0,.2,.1,.2,.2c.1,.1,.3,.2,.4,.3c.2,0,.4,.2,.6,.4c.3,.4,.2,.5,-.2,.2Z" class="gj_16"/>
<path d="M125.3,883.2c0,-.1,0,-.3,0,-.5c.1,-.3,.6,-1.6,.7,-1.7c.1,-.1,.1,.1,-.2,.9c-.1,.4,-.3,.9,-.3,1.2c-.1,.3,-.1,.4,-.2,.1Z" class="gj_16"/>
<path d="M135.4,881.8c-.2,0,-.3,-.1,-.3,-.1c-.1,-.1,.7,-.5,1,-.5c.3,-.1,.2,0,-.2,.2c-.5,.1,-.6,.2,-.4,.4q.2,.1,-.1,0Z" class="gj_16"/>
<path d="M128.8,881.8c-.1,-.1,-.1,-.3,-.2,-.4q0,-.2,.1,0c0,.1,.1,.2,.1,.4q.1,.1,0,0Z" class="gj_16"/>
<path d="M136.9,881c.1,-.1,.2,-.1,.3,0c.1,0,0,.1,-.2,.1q-.3,0,-.1,-.1Z" class="gj_16"/>
<path d="M137.5,880.7c.1,-.2,.2,-.4,.2,-.4c.1,0,-.1,.6,-.2,.6c0,.1,0,-.1,0,-.2Z" class="gj_16"/>
<path d="M128.4,880.8c-.1,0,-.2,-.1,-.1,-.2q0,-.2,.1,.1q.2,.3,0,.1Z" class="gj_16"/>
<path d="M137.9,879.8c0,-.1,.1,-.2,.2,-.1c.1,0,-.1,.3,-.2,.4c-.1,0,-.1,-.1,0,-.3Z" class="gj_16"/>
<path d="M127.3,880.7c-.1,-.1,-.1,-.2,0,-.1q.2,.1,.1,.2q0,.1,-.1,-.1Z" class="gj_16"/>
<path d="M126,880.8c-.1,-.2,.5,-1,.7,-.9c.3,0,.3,.2,.1,.2c-.2,.1,-.4,.3,-.5,.4c-.1,.3,-.2,.4,-.3,.3Z" class="gj_16"/>
<path d="M127.6,880.3c-.1,-.2,-.1,-.4,-.1,-.4c.1,-.1,.4,.4,.3,.6c0,.1,0,0,-.2,-.2Z" class="gj_16"/>
<path d="M138,879.4c0,-.1,.2,-.5,.3,-.5c.1,0,.1,-.1,.2,-.3c.1,-.4,1,-1.8,2,-3.3c.1,-.2,.1,-.3,0,-.4c-.1,-.1,-.1,-.2,.1,-.3c.1,-.1,.2,-.2,.3,-.1c.2,.1,0,.7,-.2,.9c-.3,.3,-1.4,2,-1.7,2.5c-.6,1.2,-.9,1.6,-1,1.5Z" class="gj_16"/>
<path d="M127.9,879.9c-.1,-.1,-.1,-.2,0,-.2c0,0,.1,0,.1,.1c0,0,0,.1,0,.1c0,.1,-.1,0,-.1,0Z" class="gj_16"/>
<path d="M127.5,879.3c0,-.1,0,-.2,0,-.3q0,-.1,.1,.1c.1,.2,.2,.3,.1,.3c0,0,-.1,-.1,-.2,-.1Z" class="gj_16"/>
<path d="M127.7,878.5c-.1,-.1,0,-.4,.1,-.4c.1,0,.1,.2,0,.3c0,.1,-.1,.1,-.1,.1Z" class="gj_16"/>
<path d="M128,877.7c0,-.1,.1,-.3,.3,-.4c.1,-.2,.2,-.3,.2,-.4c.1,-.1,.1,-.2,.2,-.2c.1,0,0,.2,-.4,.7c-.2,.3,-.3,.4,-.3,.3Z" class="gj_16"/>
<path d="M129,876.4c.3,-.4,.8,-.9,.8,-.8c.1,0,-.4,.6,-.7,.9l-.2,.2Z" class="gj_16"/>
<path d="M132.7,875.5c-.2,-.1,-.2,-.4,-.1,-.4c.1,0,.3,.4,.2,.4c0,.1,-.1,.1,-.1,0Z" class="gj_16"/>
<path d="M136.3,875.1c.1,-.2,.2,-.3,.3,-.3c0,0,0,.1,-.1,.2c-.1,.2,-.2,.3,-.3,.3c0,0,0,-.1,.1,-.2Z" class="gj_16"/>
<path d="M130.6,875c.1,-.2,.2,-.2,.3,-.2c.1,-.1,-.2,.3,-.4,.3c-.1,0,0,0,.1,-.1Z" class="gj_16"/>
<path d="M140.7,874.1c-.1,0,0,-.1,.1,-.1c.2,-.1,.4,-.1,.4,-.1c0,.1,-.4,.3,-.5,.2Z" class="gj_16"/>
<path d="M131.3,874.3c.2,-.4,.5,-.5,.6,-.3c.1,0,-.2,.3,-.7,.5c0,.1,0,-.1,.1,-.2Z" class="gj_16"/>
<path d="M141.6,872.9c0,0,.1,-.2,.1,-.3c.1,-.1,.2,-.2,.2,-.1c0,0,0,.1,-.1,.3q-.1,.1,-.2,.1Z" class="gj_16"/>
<path d="M142.2,871.9c.2,-.4,.8,-1,2.4,-2.2c.8,-.7,2.6,-1.7,3.6,-2.1c1,-.3,1.1,-.4,1.1,-.5c-.2,-.2,.7,-.5,.9,-.3c.2,.2,.1,.3,-.1,.3c-.1,.1,-.5,.2,-.8,.3c-.4,.2,-1,.4,-1.3,.6c-1.1,.4,-1.9,.8,-2.4,1.2c-.2,.1,-.5,.3,-.6,.4c-.1,0,-.4,.2,-.5,.4c-.2,.1,-.4,.3,-.4,.3c0,0,-.2,.1,-.4,.2c-1.1,1.1,-1.3,1.3,-1.3,1.5c0,.1,-.1,.2,-.2,.2q-.1,0,0,-.3Z" class="gj_16"/>
<path d="M133,872.9c0,0,0,-.1,.1,-.1c0,0,.1,.1,0,.1q0,.1,-.1,.1v-.1Z" class="gj_16"/>
<path d="M142.3,869c0,0,0,-.1,.1,-.2c.1,0,.2,-.1,.2,-.1q0,.1,-.1,.2c-.1,.1,-.2,.1,-.2,.1Z" class="gj_16"/>
<path d="M143,868.3c.1,-.2,.5,-.3,.5,-.2c.1,0,-.3,.3,-.5,.4q-.2,0,0,-.2Z" class="gj_16"/>
<path d="M144.6,867.7c.1,-.1,.2,-.1,.3,-.1q.1,0,0,0c-.1,.1,-.2,.1,-.3,.1q-.1,0,0,0Z" class="gj_16"/>
<path d="M145.2,867.5c.1,0,.4,-.1,.9,-.1c.6,-.1,.9,-.1,.9,0c0,0,-.4,.1,-.9,.1c-.6,.1,-.9,.1,-.9,0Z" class="gj_16"/>
<path d="M147.1,867.3c.1,0,.4,-.1,.9,-.2c.5,0,.7,0,.6,0c-.3,.1,-1.5,.3,-1.5,.2Z" class="gj_16"/>
<path d="M125.8,901.1c0,0,0,-.4,0,-.7c0,-.4,0,-.8,0,-.8c0,-.1,0,-.8,0,-1q.1,-.1,.5,.1c.9,.5,1.2,.3,1,-.7c-.1,-1,.1,-1.2,.3,-.2c.1,.7,.1,.9,-.2,1.1c-.6,.5,-1.5,1.9,-1.4,2.1c.1,.1,0,.1,-.1,.1c0,0,-.1,0,-.1,0Z" class="gk_16"/>
<path d="M127.3,897c0,-.1,0,-.7,.1,-.7c.1,-.1,.1,0,.1,.4c-.1,.3,-.1,.4,-.2,.3Z" class="gk_16"/>
<path d="M127.3,895.8c0,0,0,-.3,0,-.6c0,-.2,.1,-.7,.1,-1c.1,-1,.5,-3.2,.7,-3.3c0,0,0,.2,0,.3c0,.2,-.1,.4,-.1,.6c0,.1,-.1,.4,-.1,.6c-.2,.6,-.3,2,-.1,2.2c0,0,0,.1,-.1,.2c0,0,-.1,.2,-.2,.5c0,.5,-.1,.6,-.2,.5Z" class="gk_16"/>
<path d="M126.3,895.5q-.1,-.1,0,-.2c0,-.1,0,-.2,0,-.4c-.1,-.2,.2,-.6,.3,-.4c0,.1,-.2,1,-.3,1Z" class="gk_16"/>
<path d="M125.9,894.3c-.1,-.1,-.1,-.2,0,-.2c0,0,.1,0,.1,.1c.1,.2,.1,.3,.1,.3c-.1,0,-.2,-.1,-.2,-.2Z" class="gk_16"/>
<path d="M126.5,894.2c0,-.1,0,-.4,.2,-.8c.1,-.4,.2,-1,.3,-1.4c.1,-.4,.2,-.8,.3,-.8c.1,-.1,.1,0,0,.3c0,.2,-.1,.5,-.1,.6c-.1,.7,-.6,2.2,-.7,2.1Z" class="gk_16"/>
<path d="M129,893.8q0,-.1,.1,-.2q.2,0,.2,.1c-.1,.1,-.4,.2,-.3,.1Z" class="gk_16"/>
<path d="M125.7,893.7q-.1,-.1,0,-.1c0,0,.1,.1,.1,.2q0,.1,-.1,-.1Z" class="gk_16"/>
<path d="M129.5,893.3c0,0,.2,-.2,.4,-.4c.2,-.2,.5,-.4,.5,-.6c.2,-.2,.4,-.3,.4,-.2c0,.1,-1,1.1,-1.2,1.2q-.1,.1,-.1,0Z" class="gk_16"/>
<path d="M125.4,893.1c-.1,-.1,-.1,-.3,-.1,-.4c0,-.2,0,-.1,.1,0c0,.1,.1,.3,.1,.4q0,.2,-.1,0Z" class="gk_16"/>
<path d="M131.2,891.5c.2,-.4,1,-1.3,1.1,-1.4c.1,-.1,.1,0,.2,0c0,0,-.1,.2,-.2,.3c-.2,.2,-.5,.6,-.7,.9c-.5,.6,-.8,.8,-.4,.2Z" class="gk_16"/>
<path d="M124.8,891c0,0,0,-.1,0,-.1c.1,-.1,.1,0,.2,0c0,.1,0,.2,0,.2q-.1,0,-.2,-.1Z" class="gk_16"/>
<path d="M128.1,890.8c0,-.5,1.5,-4,2.7,-6.2c.2,-.4,.5,-1,.5,-1.1c0,-.4,.2,-.5,.3,-.4c.1,.2,-.2,.9,-1.3,2.8c-.5,1.1,-1,2.2,-1.2,2.5c-.2,.6,-.6,1.5,-.9,2.2q-.1,.2,-.1,.2Z" class="gk_16"/>
<path d="M127.5,890.4h.1c0,-.1,.1,-.1,.1,0c0,0,0,.1,0,.1q-.1,0,-.2,-.1Z" class="gk_16"/>
<path d="M132.5,889.9c0,-.3,.6,-1.3,.7,-1.2c.1,0,-.6,1.3,-.7,1.3c0,0,0,-.1,0,-.1Z" class="gk_16"/>
<path d="M124.8,890.4c-.1,-.1,-.1,-.2,-.1,-.3c.1,-.2,.2,-.1,.2,.2c0,.1,-.1,.2,-.1,.1Z" class="gk_16"/>
<path d="M127.6,889.9c0,0,0,-.1,.1,-.1q.1,-.1,.1,0c.1,.1,-.1,.2,-.2,.1Z" class="gk_16"/>
<path d="M124.7,889.7c0,-.1,0,-.2,0,-.3c.1,-.1,.1,.1,.1,.3v.2Z" class="gk_16"/>
<path d="M127.9,889.5c-.1,-.1,.3,-.7,.4,-.7c0,0,-.1,.2,-.2,.4c-.1,.3,-.2,.4,-.2,.3Z" class="gk_16"/>
<path d="M133.2,888.5c0,-.1,0,-.3,-.1,-.4c-.1,-.1,0,-.2,.1,-.2c.4,0,.5,.1,.2,.5q-.1,.2,-.2,.1Z" class="gk_16"/>
<path d="M128.3,888.6c0,0,.2,-.5,.5,-1.1c.3,-.5,.4,-.7,.3,-.4c-.2,.5,-.9,1.8,-.8,1.5Z" class="gk_16"/>
<path d="M124.6,888.6c0,-.3,.1,-.9,.1,-.9c.1,.1,.1,.5,0,.7c0,.2,-.1,.2,-.1,.2Z" class="gk_16"/>
<path d="M134,887.6c-.3,0,-.6,-.1,-.7,-.1q-.2,-.1,.1,-.1c.1,0,.5,0,.9,0c.5,0,.6,0,1,-.3c.3,-.2,.5,-.4,.6,-.6c.2,-.4,.2,-.3,.1,.2c-.1,.3,-.3,.4,-.7,.6c-.5,.3,-.6,.3,-1.3,.3Z" class="gk_16"/>
<path d="M132.4,887.3q-.4,-.1,0,-.1c.1,0,.2,.1,.2,.1c.1,0,.1,.1,.1,.1c-.1,0,-.2,-.1,-.3,-.1Z" class="gk_16"/>
<path d="M127,887.5c-.3,-.2,-.5,-.6,-.4,-.6c.1,0,0,-.2,-.1,-.3c-.3,-.6,-1,-2.2,-1,-2.4c0,-.1,.1,0,.3,.5c.2,.3,.6,1.1,1,1.8c.3,.6,.6,1.2,.6,1.2c-.1,0,-.2,-.1,-.4,-.2Z" class="gk_16"/>
<path d="M124.7,887.3c-.1,-.1,0,-.9,.2,-.9c0,-.1,0,0,0,.2c0,.4,-.1,.8,-.2,.7Z" class="gk_16"/>
<path d="M136.1,885.8c0,-.1,.1,-.2,.1,-.3q.1,-.1,.1,0c0,.1,-.1,.3,-.1,.3q-.1,.2,-.1,0Z" class="gk_16"/>
<path d="M126.2,886.6q-.1,-.1,0,-.1c0,.1,.1,.2,.1,.2c0,.1,0,0,-.1,-.1Z" class="gk_16"/>
<path d="M129.3,886.2c.1,-.1,.2,-.2,.2,-.2c.1,0,0,.3,-.1,.4q-.2,.1,-.1,-.2Z" class="gk_16"/>
<path d="M129.8,885.3c.1,-.3,.3,-.6,.3,-.6c0,0,.2,-.5,.5,-1c.2,-.5,.6,-1.1,.7,-1.3c.2,-.3,.5,-.8,.8,-1.2c.4,-.7,.6,-1,.7,-.8c0,0,-.2,.4,-1,1.5c-.2,.4,-.5,.9,-.7,1.1c-.1,.3,-.3,.8,-.5,1.2c-.2,.4,-.5,.9,-.6,1.2c-.3,.7,-.5,.6,-.2,-.1Z" class="gk_16"/>
<path d="M124.9,886.2c0,-.1,0,-.2,.1,-.4c0,-.1,.1,-.3,.1,-.5c0,-.3,.3,-.2,.4,.2c0,.2,0,.3,0,.2c-.1,-.1,-.4,-.2,-.4,0c.1,.1,-.1,.6,-.2,.5Z" class="gk_16"/>
<path d="M136.3,885.1c0,0,.1,-.1,.1,-.3q.1,-.3,.1,.1c0,.2,-.1,.3,-.2,.2Z" class="gk_16"/>
<path d="M136.5,883.9c0,-.1,0,-.2,.1,-.3c0,0,.1,0,0,.1c0,.1,0,.2,0,.3q-.1,0,-.1,-.1Z" class="gk_16"/>
<path d="M136.7,883.3c-.1,-.1,.1,-.6,.3,-.9c.2,-.2,.2,-.4,.2,-.4c-.1,-.1,-.3,-.1,-.7,0c-.7,.1,-.8,-.1,-.1,-.2c.4,-.1,.8,-.1,.9,-.2c.3,-.1,.3,.2,-.1,1c-.3,.4,-.5,.8,-.5,.7Z" class="gk_16"/>
<path d="M129.5,883.2c-.1,-.1,-.3,-.2,-.5,-.4c-.3,-.2,-.7,-.8,-.5,-.7c.1,0,.2,.1,.2,.2c.1,.1,.3,.2,.4,.3c.2,0,.4,.2,.6,.4c.3,.4,.2,.5,-.2,.2Z" class="gk_16"/>
<path d="M125.3,883.2c0,-.1,0,-.3,0,-.5c.1,-.3,.6,-1.6,.7,-1.7c.1,-.1,.1,.1,-.2,.9c-.1,.4,-.3,.9,-.3,1.2c-.1,.3,-.1,.4,-.2,.1Z" class="gk_16"/>
<path d="M135.4,881.8c-.2,0,-.3,-.1,-.3,-.1c-.1,-.1,.7,-.5,1,-.5c.3,-.1,.2,0,-.2,.2c-.5,.1,-.6,.2,-.4,.4q.2,.1,-.1,0Z" class="gk_16"/>
<path d="M128.8,881.8c-.1,-.1,-.1,-.3,-.2,-.4q0,-.2,.1,0c0,.1,.1,.2,.1,.4q.1,.1,0,0Z" class="gk_16"/>
<path d="M136.9,881c.1,-.1,.2,-.1,.3,0c.1,0,0,.1,-.2,.1q-.3,0,-.1,-.1Z" class="gk_16"/>
<path d="M137.5,880.7c.1,-.2,.2,-.4,.2,-.4c.1,0,-.1,.6,-.2,.6c0,.1,0,-.1,0,-.2Z" class="gk_16"/>
<path d="M128.4,880.8c-.1,0,-.2,-.1,-.1,-.2q0,-.2,.1,.1q.2,.3,0,.1Z" class="gk_16"/>
<path d="M137.9,879.8c0,-.1,.1,-.2,.2,-.1c.1,0,-.1,.3,-.2,.4c-.1,0,-.1,-.1,0,-.3Z" class="gk_16"/>
<path d="M127.3,880.7c-.1,-.1,-.1,-.2,0,-.1q.2,.1,.1,.2q0,.1,-.1,-.1Z" class="gk_16"/>
<path d="M126,880.8c-.1,-.2,.5,-1,.7,-.9c.3,0,.3,.2,.1,.2c-.2,.1,-.4,.3,-.5,.4c-.1,.3,-.2,.4,-.3,.3Z" class="gk_16"/>
<path d="M127.6,880.3c-.1,-.2,-.1,-.4,-.1,-.4c.1,-.1,.4,.4,.3,.6c0,.1,0,0,-.2,-.2Z" class="gk_16"/>
<path d="M133,879.7c.1,-.2,.2,-.3,.3,-.3c.1,.1,-.3,.7,-.4,.7c-.1,0,0,-.2,.1,-.4Z" class="gk_16"/>
<path d="M138,879.4c0,-.1,.2,-.5,.3,-.5c.1,0,.1,-.1,.2,-.3c.1,-.4,1,-1.8,2,-3.3c.1,-.2,.1,-.3,0,-.4c-.1,-.1,-.1,-.2,.1,-.3c.1,-.1,.2,-.2,.3,-.1c.2,.1,0,.7,-.2,.9c-.3,.3,-1.4,2,-1.7,2.5c-.6,1.2,-.9,1.6,-1,1.5Z" class="gk_16"/>
<path d="M127.9,879.9c-.1,-.1,-.1,-.2,0,-.2c0,0,.1,0,.1,.1c0,0,0,.1,0,.1c0,.1,-.1,0,-.1,0Z" class="gk_16"/>
<path d="M133.4,879.3c0,-.1,.5,-1,.8,-1.5c.1,-.1,.3,-.4,.4,-.5c.2,-.5,.8,-1.1,.9,-1.1c0,0,0,.2,-.1,.3c-.1,.1,-.3,.2,-.3,.3c-.1,.1,-.3,.4,-.5,.8c-.3,.3,-.6,.8,-.7,1c-.3,.5,-.4,.7,-.5,.7Z" class="gk_16"/>
<path d="M127.5,879.3c0,-.1,0,-.2,0,-.3q0,-.1,.1,.1c.1,.2,.2,.3,.1,.3c0,0,-.1,-.1,-.2,-.1Z" class="gk_16"/>
<path d="M127.7,878.5c-.1,-.1,0,-.4,.1,-.4c.1,0,.1,.2,0,.3c0,.1,-.1,.1,-.1,.1Z" class="gk_16"/>
<path d="M128,877.7c0,-.1,.1,-.3,.3,-.4c.1,-.2,.2,-.3,.2,-.4c.1,-.1,.1,-.2,.2,-.2c.1,0,0,.2,-.4,.7c-.2,.3,-.3,.4,-.3,.3Z" class="gk_16"/>
<path d="M129,876.4c.3,-.4,.8,-.9,.8,-.8c.1,0,-.4,.6,-.7,.9l-.2,.2Z" class="gk_16"/>
<path d="M135.9,875.6c.1,-.1,.2,-.2,.2,-.2c0,0,0,.1,-.1,.2l-.2,.3Z" class="gk_16"/>
<path d="M132.7,875.5c-.2,-.1,-.2,-.4,-.1,-.4c.1,0,.3,.4,.2,.4c0,.1,-.1,.1,-.1,0Z" class="gk_16"/>
<path d="M130.6,875c.1,-.2,.2,-.2,.3,-.2c.1,-.1,-.2,.3,-.4,.3c-.1,0,0,0,.1,-.1Z" class="gk_16"/>
<path d="M140.7,874.1c-.1,0,0,-.1,.1,-.1c.2,-.1,.4,-.1,.4,-.1c0,.1,-.4,.3,-.5,.2Z" class="gk_16"/>
<path d="M131.3,874.3c.2,-.4,.5,-.5,.6,-.3c.1,0,-.2,.3,-.7,.5c0,.1,0,-.1,.1,-.2Z" class="gk_16"/>
<path d="M141.6,872.9c0,0,.1,-.2,.1,-.3c.1,-.1,.2,-.2,.2,-.1c0,0,0,.1,-.1,.3q-.1,.1,-.2,.1Z" class="gk_16"/>
<path d="M142.2,871.9c.2,-.4,.8,-1,2.4,-2.2c.8,-.7,2.6,-1.7,3.6,-2.1c1,-.3,1.1,-.4,1.1,-.5c-.2,-.2,.7,-.5,.9,-.3c.2,.2,.1,.3,-.1,.3c-.1,.1,-.5,.2,-.8,.3c-.4,.2,-1,.4,-1.3,.6c-1.1,.4,-1.9,.8,-2.4,1.2c-.2,.1,-.5,.3,-.6,.4c-.1,0,-.4,.2,-.5,.4c-.2,.1,-.4,.3,-.4,.3c0,0,-.2,.1,-.4,.2c-1.1,1.1,-1.3,1.3,-1.3,1.5c0,.1,-.1,.2,-.2,.2q-.1,0,0,-.3Z" class="gk_16"/>
<path d="M133,872.9c0,0,0,-.1,.1,-.1c0,0,.1,.1,0,.1q0,.1,-.1,.1v-.1Z" class="gk_16"/>
<path d="M142.3,869c0,0,0,-.1,.1,-.2c.1,0,.2,-.1,.2,-.1q0,.1,-.1,.2c-.1,.1,-.2,.1,-.2,.1Z" class="gk_16"/>
<path d="M143,868.3c.1,-.2,.5,-.3,.5,-.2c.1,0,-.3,.3,-.5,.4q-.2,0,0,-.2Z" class="gk_16"/>
<path d="M144.6,867.7c.1,-.1,.2,-.1,.3,-.1q.1,0,0,0c-.1,.1,-.2,.1,-.3,.1q-.1,0,0,0Z" class="gk_16"/>
<path d="M145.2,867.5c.1,0,.4,-.1,.9,-.1c.6,-.1,.9,-.1,.9,0c0,0,-.4,.1,-.9,.1c-.6,.1,-.9,.1,-.9,0Z" class="gk_16"/>
<path d="M147.1,867.3c.1,0,.4,-.1,.9,-.2c.5,0,.7,0,.6,0c-.3,.1,-1.5,.3,-1.5,.2Z" class="gk_16"/>
<path d="M128.2,880.8q-.1,-.2,-.1,-.1c-.1,.2,0,.4,.1,.4c.1,-.1,.1,-.2,0,-.3Z" class="gf_16"/>
</g>
<path d="M152.7,896.2H475.6" class="g0_16"/>
<path d="M137.6,904.4v70.3" class="gb_16"/>
<path d="M478.9,1129.7h15.6" class="g0_16"/>
</svg>