<?xml version="1.0" encoding="UTF-8" standalone="no"?>
<!DOCTYPE svg PUBLIC "-//W3C//DTD SVG 1.1//EN"
"http://www.w3.org/Graphics/SVG/1.1/DTD/svg11.dtd">
<svg viewBox="0 0 909 1286" version="1.1" xmlns="http://www.w3.org/2000/svg" xmlns:xlink="http://www.w3.org/1999/xlink">
<defs>
<style type="text/css"><![CDATA[
.g0_16{
fill: none;
stroke: #000000;
stroke-width: 0.73;
stroke-linecap: butt;
stroke-linejoin: miter;
}
.g1_16{
fill: #CCCCCC;
}
.g2_16{
fill: none;
stroke: #000000;
stroke-width: 0.584;
stroke-linecap: butt;
stroke-linejoin: miter;
}
.g3_16{
fill: #C6EAFA;
stroke: #02B5EE;
stroke-width: 0.73;
stroke-linecap: butt;
stroke-linejoin: miter;
}
.g4_16{
fill: #FFCCCC;
stroke: #F81693;
stroke-width: 0.73;
stroke-linecap: butt;
stroke-linejoin: miter;
}
.g5_16{
fill: #FFF7A4;
stroke: #FFA313;
stroke-width: 0.73;
stroke-linecap: butt;
stroke-linejoin: miter;
}
.g6_16{
fill: #DFF9CC;
stroke: #5EE200;
stroke-width: 0.73;
stroke-linecap: butt;
stroke-linejoin: miter;
}
.g7_16{
fill: none;
stroke: #000000;
stroke-width: 1.168;
stroke-linecap: butt;
stroke-linejoin: miter;
}
]]></style>
</defs>
<path d="M116.9,159.9H792.5" class="g0_16"/>
<path d="M116.9,232.1h73.9V202.8H116.9v29.3Z" class="g1_16"/>
<path d="M253,232.1V202.8" class="g0_16"/>
<path d="M116.9,545.1h73.9v-313H116.9v313Z" class="g1_16"/>
<path d="M253,545.1v-313" class="g0_16"/>
<path d="M367.7,296.6C367.7,273.7,349.1,255,326.1,255c-23,0,-41.6,18.7,-41.6,41.6c0,23,18.6,41.6,41.6,41.6c23,0,41.6,-18.6,41.6,-41.6Z" class="g2_16"/>
<path d="M298.7,296.6c0,-7.8,-6.4,-14.1,-14.2,-14.1c-7.8,0,-14.1,6.3,-14.1,14.1c0,7.8,6.3,14.2,14.1,14.2c7.8,0,14.2,-6.4,14.2,-14.2Z" class="g3_16"/>
<path d="M340.3,255c0,-7.8,-6.4,-14.1,-14.2,-14.1c-7.8,0,-14.1,6.3,-14.1,14.1c0,7.9,6.3,14.2,14.1,14.2c7.8,0,14.2,-6.3,14.2,-14.2Z" class="g4_16"/>
<path d="M340.5,338.2c0,-8,-6.4,-14.4,-14.4,-14.4c-8,0,-14.4,6.4,-14.4,14.4c0,8,6.4,14.4,14.4,14.4c8,0,14.4,-6.4,14.4,-14.4Z" class="g5_16"/>
<path d="M382.2,296.6c0,-8,-6.5,-14.5,-14.5,-14.5c-8,0,-14.5,6.5,-14.5,14.5c0,8,6.5,14.5,14.5,14.5c8,0,14.5,-6.5,14.5,-14.5Z" class="g6_16"/>
<path d="M486.6,296.6C486.6,273.6,468,255,445,255c-23,0,-41.6,18.6,-41.6,41.6c0,22.9,18.6,41.6,41.6,41.6c23,0,41.6,-18.7,41.6,-41.6Z" class="g2_16"/>
<path d="M459.1,255c0,-7.8,-6.3,-14.1,-14.1,-14.1c-7.8,0,-14.2,6.3,-14.2,14.1c0,7.8,6.4,14.1,14.2,14.1c7.8,0,14.1,-6.3,14.1,-14.1Z" class="g3_16"/>
<path d="M500.7,296.6c0,-7.8,-6.3,-14.2,-14.1,-14.2c-7.9,0,-14.2,6.4,-14.2,14.2c0,7.8,6.3,14.1,14.2,14.1c7.8,0,14.1,-6.3,14.1,-14.1Z" class="g4_16"/>
<path d="M417.8,296.6c0,-8,-6.4,-14.4,-14.4,-14.4c-8,0,-14.4,6.4,-14.4,14.4c0,7.9,6.4,14.4,14.4,14.4c8,0,14.4,-6.5,14.4,-14.4Z" class="g5_16"/>
<path d="M459.5,338.2c0,-8,-6.5,-14.5,-14.5,-14.5c-8,0,-14.5,6.5,-14.5,14.5c0,8,6.5,14.4,14.5,14.4c8,0,14.5,-6.4,14.5,-14.4Z" class="g6_16"/>
<path d="M605.2,296.9c0,-23,-18.6,-41.6,-41.5,-41.6c-23,0,-41.6,18.6,-41.6,41.6c0,22.9,18.6,41.6,41.6,41.6c22.9,0,41.5,-18.7,41.5,-41.6Z" class="g2_16"/>
<path d="M619.4,296.9c0,-7.8,-6.4,-14.2,-14.2,-14.2c-7.8,0,-14.1,6.4,-14.1,14.2c0,7.8,6.3,14.1,14.1,14.1c7.8,0,14.2,-6.3,14.2,-14.1Z" class="g3_16"/>
<path d="M577.8,338.5c0,-7.9,-6.3,-14.2,-14.1,-14.2c-7.9,0,-14.2,6.3,-14.2,14.2c0,7.8,6.3,14.1,14.2,14.1c7.8,0,14.1,-6.3,14.1,-14.1Z" class="g4_16"/>
<path d="M578.1,255.3c0,-8,-6.5,-14.4,-14.4,-14.4c-8,0,-14.5,6.4,-14.5,14.4c0,8,6.5,14.4,14.5,14.4c7.9,0,14.4,-6.4,14.4,-14.4Z" class="g5_16"/>
<path d="M536.6,296.9c0,-8,-6.5,-14.5,-14.5,-14.5c-8,0,-14.5,6.5,-14.5,14.5c0,8,6.5,14.5,14.5,14.5c8,0,14.5,-6.5,14.5,-14.5Z" class="g6_16"/>
<path d="M723.5,296.9c0,-22.9,-18.6,-41.6,-41.6,-41.6c-22.9,0,-41.5,18.7,-41.5,41.6c0,23,18.6,41.6,41.5,41.6c23,0,41.6,-18.6,41.6,-41.6Z" class="g2_16"/>
<path d="M696.1,338.5c0,-7.8,-6.4,-14.1,-14.2,-14.1c-7.8,0,-14.1,6.3,-14.1,14.1c0,7.8,6.3,14.1,14.1,14.1c7.8,0,14.2,-6.3,14.2,-14.1Z" class="g3_16"/>
<path d="M654.5,296.9c0,-7.8,-6.3,-14.1,-14.1,-14.1c-7.9,0,-14.2,6.3,-14.2,14.1c0,7.8,6.3,14.2,14.2,14.2c7.8,0,14.1,-6.4,14.1,-14.2Z" class="g4_16"/>
<path d="M737.9,296.9c0,-7.9,-6.4,-14.4,-14.4,-14.4c-8,0,-14.4,6.5,-14.4,14.4c0,8,6.4,14.4,14.4,14.4c8,0,14.4,-6.4,14.4,-14.4Z" class="g5_16"/>
<path d="M696.4,255.3c0,-8,-6.5,-14.4,-14.5,-14.4c-8,0,-14.5,6.4,-14.5,14.4c0,8,6.5,14.5,14.5,14.5c8,0,14.5,-6.5,14.5,-14.5Z" class="g6_16"/>
<path d="M733.1,361.1c-2.1,4.4,-7.3,7.3,-14.6,7.3H513.6c-7.3,0,-12.4,2.9,-14.6,7.3c-2.2,-4.4,-7.3,-7.3,-14.6,-7.3H279.5c-7.3,0,-12.4,-3,-14.6,-7.3" class="g7_16"/>
<path d="M545.6,483.9c0,-23,-18.6,-41.6,-41.6,-41.6c-23,0,-41.6,18.6,-41.6,41.6c0,22.9,18.6,41.5,41.6,41.5c23,0,41.6,-18.6,41.6,-41.5Z" class="g2_16"/>
<path d="M476.6,483.9c0,-7.8,-6.4,-14.2,-14.2,-14.2c-7.8,0,-14.1,6.4,-14.1,14.2c0,7.8,6.3,14.1,14.1,14.1c7.8,0,14.2,-6.3,14.2,-14.1Z" class="g3_16"/>
<path d="M518.2,442.3c0,-7.8,-6.4,-14.2,-14.2,-14.2c-7.8,0,-14.1,6.4,-14.1,14.2c0,7.8,6.3,14.2,14.1,14.2c7.8,0,14.2,-6.4,14.2,-14.2Z" class="g4_16"/>
<path d="M518.4,525.4C518.4,517.5,512,511,504,511c-8,0,-14.4,6.5,-14.4,14.4c0,8,6.4,14.5,14.4,14.5c8,0,14.4,-6.5,14.4,-14.5Z" class="g5_16"/>
<path d="M560.1,483.9c0,-8,-6.5,-14.5,-14.5,-14.5c-8,0,-14.5,6.5,-14.5,14.5c0,8,6.5,14.5,14.5,14.5c8,0,14.5,-6.5,14.5,-14.5Z" class="g6_16"/>
<path d="M116.9,628.6h73.9V545.1H116.9v83.5Z" class="g1_16"/>
<path d="M253,628.6V545.1" class="g0_16"/>
<path d="M116.9,860.1h73.9V628.6H116.9V860.1Z" class="g1_16"/>
<path d="M253,860.1V628.6" class="g0_16"/>
</svg>