<?xml version="1.0" encoding="UTF-8" standalone="no"?>
<!DOCTYPE svg PUBLIC "-//W3C//DTD SVG 1.1//EN"
"http://www.w3.org/Graphics/SVG/1.1/DTD/svg11.dtd">
<svg viewBox="0 0 1286 909" version="1.1" xmlns="http://www.w3.org/2000/svg" xmlns:xlink="http://www.w3.org/1999/xlink">
<defs>
<style type="text/css"><![CDATA[
.g0_1210{
fill: none;
stroke: #000000;
stroke-width: 0.73;
stroke-linecap: butt;
stroke-linejoin: miter;
}
.g1_1210{
fill: none;
stroke: #000000;
stroke-width: 0.62;
stroke-linecap: butt;
stroke-linejoin: miter;
}
.g2_1210{
fill: #FDE8E9;
}
]]></style>
</defs>
<path d="M193,83.4h900.3" class="g0_1210"/>
<path d="M207.4,109.5H457.8M207.4,134.6V109.8m101.4,24.8V109.8m149,24.8V109.8M207.4,162.4V134.6m101.4,27.8V134.6" class="g1_1210"/>
<path d="M318.1,159.6h91.1v-25H318.1v25Z" class="g2_1210"/>
<path d="M457.8,162.4V134.6M207.4,187.2V162.4m101.4,24.8V162.4m149,24.8V162.4M207.4,212.1V187.2m101.4,24.9V187.2m149,24.9V187.2M207.4,239.8V212.1m101.4,27.7V212.1" class="g1_1210"/>
<path d="M318.1,237h82.5V212.1H318.1V237Z" class="g2_1210"/>
<path d="M457.8,239.8V212.1M207.4,264.6V239.8m101.4,24.8V239.8m149,24.8V239.8M207.4,289.5V264.6m101.4,24.9V264.6m149,24.9V264.6M207.4,317.2V289.5m101.4,27.7V289.5" class="g1_1210"/>
<path d="M318.1,314.4H431.6V289.5H318.1v24.9Z" class="g2_1210"/>
<path d="M457.8,317.2V289.5M207.4,342.1V317.2m101.4,24.9V317.2m149,24.9V317.2M207.4,366.9V342.1m101.4,24.8V342.1m149,24.8V342.1M207.4,396.3V366.9m101.4,29.4V366.9" class="g1_1210"/>
<path d="M318.1,396.3h84.8V366.9H318.1v29.4Z" class="g2_1210"/>
<path d="M457.8,396.3V366.9M207.4,421.2V396.3m101.4,24.9V396.3m149,24.9V396.3M207.4,446V421.2M308.8,446V421.2m149,24.8V421.2M207.4,473.8V446m101.4,27.8V446" class="g1_1210"/>
<path d="M318.1,471h60.4V446H318.1v25Z" class="g2_1210"/>
<path d="M457.8,473.8V446M207.4,498.6V473.8m101.4,24.8V473.8m149,24.8V473.8M207.4,523.4V498.6m101.4,24.8V498.6m149,24.8V498.6M207.4,552.9V523.4m101.4,29.5V523.4" class="g1_1210"/>
<path d="M318.1,552.9H448.5V523.4H318.1v29.5Z" class="g2_1210"/>
<path d="M457.8,552.9V523.4M207.4,577.7V552.9m101.4,24.8V552.9m149,24.8V552.9M207.4,602.5V577.7m101.4,24.8V577.7m149,24.8V577.7M207.4,632V602.5M308.8,632V602.5" class="g1_1210"/>
<path d="M318.1,632h98.1V602.5H318.1V632Z" class="g2_1210"/>
<path d="M457.8,632V602.5M207.4,656.8V632m101.4,24.8V632m149,24.8V632M207.4,681.7V656.8m101.4,24.9V656.8m149,24.9V656.8M207.4,711.1V681.7m101.4,29.4V681.7" class="g1_1210"/>
<path d="M318.1,711.1h63.6V681.7H318.1v29.4Z" class="g2_1210"/>
<path d="M457.8,711.1V681.7M207.4,735.9V711.1m101.4,24.8V711.1m149,24.8V711.1M207.4,736.2H457.8M476.4,111.4h325m-325,25.1V111.7m173.7,24.8V111.7m151.3,24.8V111.7m-325,54.2V136.5m173.7,29.4V136.5" class="g1_1210"/>
<path d="M659.4,165.9h89.8V136.5H659.4v29.4Z" class="g2_1210"/>
<path d="M801.4,165.9V136.5m-325,54.3V165.9m173.7,24.9V165.9m151.3,24.9V165.9m-325,49.7V190.8m173.7,24.8V190.8m151.3,24.8V190.8m-325,52.6V215.6m173.7,27.8V215.6" class="g1_1210"/>
<path d="M659.4,240.6h72.4v-25H659.4v25Z" class="g2_1210"/>
<path d="M801.4,243.4V215.6m-325,52.6V243.4m173.7,24.8V243.4m151.3,24.8V243.4M476.4,293V268.2M650.1,293V268.2M801.4,293V268.2m-325,54.3V293m173.7,29.5V293" class="g1_1210"/>
<path d="M659.4,322.5H792.1V293H659.4v29.5Z" class="g2_1210"/>
<path d="M801.4,322.5V293m-325,54.3V322.5m173.7,24.8V322.5m151.3,24.8V322.5m-325,49.7V347.3m173.7,24.9V347.3m151.3,24.9V347.3m-325,52.6V372.2m173.7,27.7V372.2" class="g1_1210"/>
<path d="M659.4,397.1H769.7V372.2H659.4v24.9Z" class="g2_1210"/>
<path d="M801.4,399.9V372.2m-325,52.5V399.9m173.7,24.8V399.9m151.3,24.8V399.9m-325,49.7V424.7m173.7,24.9V424.7m151.3,24.9V424.7m-325,52.2V449.6m173.7,27.3V449.6" class="g1_1210"/>
<path d="M659.4,476.9h81.3V452.6H659.4v24.3Z" class="g2_1210"/>
<path d="M801.4,476.9V449.6m-325,52.1V476.9m173.7,24.8V476.9m151.3,24.8V476.9m-325,49.7V501.7m173.7,24.9V501.7m151.3,24.9V501.7m-325,52.6V526.6m173.7,27.7V526.6" class="g1_1210"/>
<path d="M659.4,551.5h94.4V526.6H659.4v24.9Z" class="g2_1210"/>
<path d="M801.4,554.3V526.6m-325,52.6V554.3m173.7,24.9V554.3m151.3,24.9V554.3M476.4,604V579.2M650.1,604V579.2M801.4,604V579.2m-325,52.6V604m173.7,27.8V604" class="g1_1210"/>
<path d="M659.4,629H765.5V604H659.4v25Z" class="g2_1210"/>
<path d="M801.4,631.8V604m-325,52.6V631.8m173.7,24.8V631.8m151.3,24.8V631.8m-325,49.6V656.6m173.7,24.8V656.6m151.3,24.8V656.6m-325,52.6V681.4m173.7,27.8V681.4" class="g1_1210"/>
<path d="M659.4,706.4h61.7v-25H659.4v25Z" class="g2_1210"/>
<path d="M801.4,709.2V681.4M476.4,734V709.2M650.1,734V709.2M801.4,734V709.2m-325,25.1h325M820,113h265M820,138.2V113.4m122,24.8V113.4m143,24.8V113.4M820,167.6V138.2m122,29.4V138.2" class="g1_1210"/>
<path d="M951.3,167.6H1013V138.2H951.3v29.4Z" class="g2_1210"/>
<path d="M1085,167.6V138.2M820,192.5V167.6m122,24.9V167.6m143,24.9V167.6M820,217.3V192.5m122,24.8V192.5m143,24.8V192.5M820,245V217.3M942,245V217.3" class="g1_1210"/>
<path d="M951.3,242.2h94.1V217.3H951.3v24.9Z" class="g2_1210"/>
<path d="M1085,245V217.3M820,269.9V245m122,24.9V245m143,24.9V245M820,294.7V269.9m122,24.8V269.9m143,24.8V269.9M820,320.4V294.7m122,25.7V294.7" class="g1_1210"/>
<path d="M951.3,317.6h89.1V297.8H951.3v19.8Z" class="g2_1210"/>
<path d="M1085,320.4V294.7M820,345.2V320.4m122,24.8V320.4m143,24.8V320.4M820,370V345.2M942,370V345.2M1085,370V345.2M820,397.8V370m122,27.8V370" class="g1_1210"/>
<path d="M951.3,395h82.2V370H951.3v25Z" class="g2_1210"/>
<path d="M1085,397.8V370M820,422.6V397.8m122,24.8V397.8m143,24.8V397.8M820,447.5V422.6m122,24.9V422.6m143,24.9V422.6M820,475.2V447.5m122,27.7V447.5" class="g1_1210"/>
<path d="M951.3,472.4h109.6V447.5H951.3v24.9Z" class="g2_1210"/>
<path d="M1085,475.2V447.5M820,500.1V475.2m122,24.9V475.2m143,24.9V475.2M820,524.9V500.1m122,24.8V500.1m143,24.8V500.1M820,552.7V524.9m122,27.8V524.9" class="g1_1210"/>
<path d="M951.3,549.9h72.4v-25H951.3v25Z" class="g2_1210"/>
<path d="M1085,552.7V524.9M820,577.5V552.7m122,24.8V552.7m143,24.8V552.7M820,602.3V577.5m122,24.8V577.5m143,24.8V577.5M820,630.1V602.3m122,27.8V602.3" class="g1_1210"/>
<path d="M951.3,627.3h67.5v-25H951.3v25Z" class="g2_1210"/>
<path d="M1085,630.1V602.3M820,654.9V630.1m122,24.8V630.1m143,24.8V630.1M820,679.8V654.9m122,24.9V654.9m143,24.9V654.9M820,707.5V679.8m122,27.7V679.8" class="g1_1210"/>
<path d="M951.3,704.7h124.4V679.8H951.3v24.9Z" class="g2_1210"/>
<path d="M1085,707.5V679.8M820,732.3V707.5m122,24.8V707.5m143,24.8V707.5M820,732.7h265" class="g1_1210"/>
</svg>