<?xml version="1.0" encoding="UTF-8" standalone="no"?>
<!DOCTYPE svg PUBLIC "-//W3C//DTD SVG 1.1//EN"
"http://www.w3.org/Graphics/SVG/1.1/DTD/svg11.dtd">
<svg viewBox="0 0 909 1286" version="1.1" xmlns="http://www.w3.org/2000/svg" xmlns:xlink="http://www.w3.org/1999/xlink">
<defs>
<style type="text/css"><![CDATA[
.g0_22{
fill: none;
stroke: #000000;
stroke-width: 0.73;
stroke-linecap: butt;
stroke-linejoin: miter;
}
.g1_22{
fill: none;
stroke: #000000;
stroke-width: 0.803;
stroke-linecap: square;
stroke-linejoin: miter;
}
.g2_22{
fill: none;
stroke: #000000;
stroke-width: 1.461;
stroke-linecap: butt;
stroke-linejoin: miter;
}
.g3_22{
fill: #FFCCCC;
}
.g4_22{
fill: #FFF7A4;
}
.g5_22{
fill: #DFF9CC;
}
.g6_22{
fill: #FFFFFF;
}
]]></style>
</defs>
<path d="M116.9,159.9H792.5" class="g0_22"/>
<path d="M117.3,201.1H349.4M117.3,231H349.4M117.3,201.1V231m46.4,-29.9V231m46.4,-29.9V231m46.4,-29.9V231m46.4,-29.9V231m46.5,-29.9V231M117.3,288.8H349.4M117.3,318.7H349.4M117.3,288.8v29.9m46.4,-29.9v29.9m46.4,-29.9v29.9m46.4,-29.9v29.9m46.4,-29.9v29.9m46.5,-29.9v29.9M117.3,376.5H349.4M117.3,406.4H349.4M117.3,376.5v29.9m46.4,-29.9v29.9m46.4,-29.9v29.9m46.4,-29.9v29.9m46.4,-29.9v29.9m46.5,-29.9v29.9M117.3,464.1H349.4m-232.1,30H349.4m-232.1,-30v30m46.4,-30v30m46.4,-30v30m46.4,-30v30m46.4,-30v30m46.5,-30v30M117.3,551.8H349.4m-232.1,30H349.4m-232.1,-30v30m46.4,-30v30m46.4,-30v30m46.4,-30v30m46.4,-30v30m46.5,-30v30" class="g1_22"/>
<path d="M485.6,179.5c3.2,1.7,5.4,5.5,5.4,11v190c0,5.4,2.2,9.3,5.5,10.9c-3.3,1.7,-5.5,5.5,-5.5,11v190c0,5.5,-2.2,9.3,-5.4,10.9" class="g2_22"/>
<path d="M305.3,720.7V662.6c0,-2.8,2.3,-5.2,5.2,-5.2H382c2.9,0,5.2,2.4,5.2,5.2v58.1c0,2.9,-2.3,5.2,-5.2,5.2H310.5c-2.9,0,-5.2,-2.3,-5.2,-5.2Z" class="g3_22"/>
<path d="M116.9,851.1h47.2v30H116.9v-30Zm93.6,0h46.4v30H210.5v-30Zm92.8,0h46.4v30H303.3v-30Zm-139.2,30h46.4v30H164.1v-30Zm92.8,0h46.4v30H256.9v-30Zm-140,30h47.2V941H116.9V911.1Zm93.6,0h46.4V941H210.5V911.1Zm92.8,0h46.4V941H303.3V911.1ZM164.1,941h46.4v30H164.1V941Zm92.8,0h46.4v30H256.9V941Zm-140,30h47.2v29.9H116.9V971Zm93.6,0h46.4v29.9H210.5V971Zm92.8,0h46.4v29.9H303.3V971Z" class="g4_22"/>
<path d="M164.1,851.1h46.4v30H164.1v-30Zm92.8,0h46.4v30H256.9v-30Zm-140,30h47.2v30H116.9v-30Zm93.6,0h46.4v30H210.5v-30Zm92.8,0h46.4v30H303.3v-30Zm-139.2,30h46.4V941H164.1V911.1Zm92.8,0h46.4V941H256.9V911.1ZM116.9,941h47.2v30H116.9V941Zm93.6,0h46.4v30H210.5V941Zm92.8,0h46.4v30H303.3V941ZM164.1,971h46.4v29.9H164.1V971Zm92.8,0h46.4v29.9H256.9V971Z" class="g5_22"/>
<path d="M116.9,851.1h47.2v30H116.9v-30Zm47.2,30h46.4v30H164.1v-30Zm46.4,30h46.4V941H210.5V911.1ZM256.9,941h46.4v30H256.9V941Zm46.4,30h46.4v29.9H303.3V971Z" class="g6_22"/>
<path d="M117.3,851.5H349.4m-232.1,30H349.4M117.3,911.4H349.4m-232.1,30H349.4M117.3,971.3H349.4m-232.1,30H349.4M117.3,851.5v149.8M163.7,851.5v149.8M210.1,851.5v149.8M256.5,851.5v149.8M302.9,851.5v149.8M349.4,851.5v149.8" class="g1_22"/>
<path d="M539.2,984.7V926.6c0,-2.9,2.4,-5.2,5.2,-5.2h71.5c2.9,0,5.2,2.3,5.2,5.2v58.1c0,2.8,-2.3,5.1,-5.2,5.1H544.4c-2.8,0,-5.2,-2.3,-5.2,-5.1Z" class="g3_22"/>
</svg>