<?xml version="1.0" encoding="UTF-8" standalone="no"?>
<!DOCTYPE svg PUBLIC "-//W3C//DTD SVG 1.1//EN"
"http://www.w3.org/Graphics/SVG/1.1/DTD/svg11.dtd">
<svg viewBox="0 0 1286 909" version="1.1" xmlns="http://www.w3.org/2000/svg" xmlns:xlink="http://www.w3.org/1999/xlink">
<defs>
<style type="text/css"><![CDATA[
.g0_692{
fill: none;
stroke: #000000;
stroke-width: 0.73;
stroke-linecap: butt;
stroke-linejoin: miter;
}
.g1_692{
fill: none;
stroke: #02B5EE;
stroke-width: 1.262;
stroke-linecap: butt;
stroke-linejoin: miter;
}
.g2_692{
fill: none;
stroke: #5EE200;
stroke-width: 1.262;
stroke-linecap: butt;
stroke-linejoin: miter;
}
.g3_692{
fill: none;
stroke: #5EE200;
stroke-width: 0.73;
stroke-linecap: butt;
stroke-linejoin: miter;
}
.g4_692{
fill: none;
stroke: #02B5EE;
stroke-width: 0.73;
stroke-linecap: butt;
stroke-linejoin: miter;
}
.g5_692{
fill: #B3E9FA;
}
]]></style>
</defs>
<path d="M193,83.4h900.3M193,210.6h846.1m-846.1,0h846.1M564.3,240.2V211m0,58.5V240.2m0,114.3v-85" class="g0_692"/>
<path d="M795.9,330.5h36" class="g1_692"/>
<path d="M842.4,330.5h22.2" class="g2_692"/>
<path d="M564.3,383.7V354.5m0,102.3V383.7" class="g0_692"/>
<path d="M943.2,442.9h34.2" class="g3_692"/>
<path d="M977.4,442.9h50.7" class="g4_692"/>
<path d="M564.3,486V456.8m0,58.4V486m0,114.2v-85" class="g0_692"/>
<path d="M785.4,556.8V538.2c0,-2.8,2.3,-5.1,5.2,-5.1h79.3c2.9,0,5.2,2.3,5.2,5.1v18.6c0,2.8,-2.3,5.2,-5.2,5.2H790.6c-2.9,0,-5.2,-2.4,-5.2,-5.2Z" class="g5_692"/>
<path d="M782.8,576.2h94.9" class="g1_692"/>
<path d="M888.2,576.2h139.9" class="g2_692"/>
<path d="M564.3,629.5V600.2m0,58.5V629.5m0,58.4V658.7M193,688.3h846.1m-846.1,0h846.1" class="g0_692"/>
</svg>