<?xml version="1.0" encoding="UTF-8" standalone="no"?>
<!DOCTYPE svg PUBLIC "-//W3C//DTD SVG 1.1//EN"
"http://www.w3.org/Graphics/SVG/1.1/DTD/svg11.dtd">
<svg viewBox="0 0 909 1286" version="1.1" xmlns="http://www.w3.org/2000/svg" xmlns:xlink="http://www.w3.org/1999/xlink">
<defs>
<style type="text/css"><![CDATA[
.g0_33{
fill: none;
stroke: #000000;
stroke-width: 0.73;
stroke-linecap: butt;
stroke-linejoin: miter;
}
.g1_33{
fill: #FDE8E9;
}
.g2_33{
fill: none;
stroke: #FFA313;
stroke-width: 0.73;
stroke-linecap: butt;
stroke-linejoin: miter;
}
]]></style>
</defs>
<path d="M116.9,159.9H792.5" class="g0_33"/>
<path d="M353.4,208.3h46.2V184.6H353.4v23.7Z" class="g1_33"/>
<path d="M551.6,210.3h61.6V182.5H551.6v27.8Z" class="g1_33"/>
<path d="M399.8,269.2H500.6V241.4H399.8v27.8Z" class="g1_33"/>
<path d="M730.9,269.2h61.6V241.4H730.9v27.8Z" class="g1_33"/>
<path d="M125.4,298.9H305.2V271.1H125.4v27.8Z" class="g1_33"/>
<path d="M201.4,357.4h78.5V329.5H201.4v27.9Z" class="g1_33"/>
<path d="M296.8,357.4H409.1V329.5H296.8v27.9Z" class="g1_33"/>
<path d="M116.9,416.3H229.2V388.4H116.9v27.9Z" class="g1_33"/>
<path d="M595.9,416.3H725V388.4H595.9v27.9Z" class="g1_33"/>
<path d="M437.3,785.1H584.8V729.5H437.3v55.6Z" class="g1_33"/>
<path d="M444.9,757.6H577.1" class="g2_33"/>
<path d="M288.3,858.7h39.2V830.8H288.3v27.9Z" class="g1_33"/>
<path d="M344.4,854.5H487V830.8H344.4v23.7Z" class="g1_33"/>
<path d="M437.8,944.2h78.5V916.4H437.8v27.8Z" class="g1_33"/>
<path d="M116.9,1003.1h78.6V975.3H116.9v27.8Z" class="g1_33"/>
</svg>