<?xml version="1.0" encoding="UTF-8" standalone="no"?>
<!DOCTYPE svg PUBLIC "-//W3C//DTD SVG 1.1//EN"
"http://www.w3.org/Graphics/SVG/1.1/DTD/svg11.dtd">
<svg viewBox="0 0 909 1286" version="1.1" xmlns="http://www.w3.org/2000/svg" xmlns:xlink="http://www.w3.org/1999/xlink">
<defs>
<style type="text/css"><![CDATA[
.g0_26{
fill: none;
stroke: #000000;
stroke-width: 0.73;
stroke-linecap: butt;
stroke-linejoin: miter;
}
.g1_26{
fill: none;
stroke: #F81693;
stroke-width: 0.73;
stroke-linecap: butt;
stroke-linejoin: miter;
}
.g2_26{
fill: none;
stroke: #02B5EE;
stroke-width: 0.73;
stroke-linecap: butt;
stroke-linejoin: miter;
}
.g3_26{
fill: none;
stroke: #FFFFFF;
stroke-width: 0.73;
stroke-linecap: butt;
stroke-linejoin: miter;
}
.g4_26{
fill: none;
stroke: #7F7F7F;
stroke-width: 1.461;
stroke-linecap: butt;
stroke-linejoin: miter;
}
.g5_26{
fill: none;
stroke: #7F7F7F;
stroke-width: 1.461;
stroke-linecap: round;
stroke-linejoin: round;
}
.g6_26{
fill: none;
stroke: #02B5EE;
stroke-width: 1.461;
stroke-linecap: butt;
stroke-linejoin: miter;
}
.g7_26{
fill: none;
stroke: #5EE200;
stroke-width: 0.73;
stroke-linecap: butt;
stroke-linejoin: miter;
}
.g8_26{
fill: none;
stroke: #5EE200;
stroke-width: 1.461;
stroke-linecap: butt;
stroke-linejoin: miter;
}
]]></style>
</defs>
<path d="M116.9,282.3H543.5M206.8,311.9V282.7m-29.6,44l11,18.3M164.4,326.7L153.5,345m53.3,21.4V311.9m0,83.7V366.4M116.9,396H543.5M206.8,425.5V396.3" class="g0_26"/>
<path d="M127.9,466.6l14.4,-23.9" class="g1_26"/>
<path d="M154,435.4h21.9M154,497.9h21.9" class="g0_26"/>
<path d="M127.9,466.6l14.4,24" class="g1_26"/>
<path d="M206.8,507.4V425.5" class="g0_26"/>
<path d="M218.5,471h16.3m22.2,0h16.3" class="g2_26"/>
<path d="M273.3,471h27.4" class="g3_26"/>
<path d="M300.7,471h19.9m42.4,0h19.9" class="g1_26"/>
<path d="M382.9,471h27.4" class="g3_26"/>
<path d="M410.3,471h16.2m22.3,0h16.3" class="g2_26"/>
<path d="M206.8,536.6V507.4m0,58.4V536.6m0,58.4V565.8m0,58.5V595" class="g0_26"/>
<path d="M218.1,589.8H408" class="g4_26"/>
<path d="M404.1,584.1c.8,3.4,2.7,5,4.6,5.7c-1.9,.7,-3.8,2.3,-4.6,5.7" class="g5_26"/>
<path d="M344.8,622.8c1.4,0,2.1,-2.7,3.5,-2.7c1,0,1.8,1.3,2.7,2.7c.9,1.4,1.8,2.7,2.8,2.7c.9,0,1.8,-1.3,2.7,-2.7c.9,-1.4,1.7,-2.7,2.7,-2.7c1.4,0,2.1,2.7,3.5,2.7h4.1" class="g6_26"/>
<path d="M206.8,653.5V624.3m-89.9,29.6H543.5M206.8,683.4V654.2" class="g0_26"/>
<path d="M127.9,724.5l14.4,-23.9" class="g1_26"/>
<path d="M154,693.3h21.9M154,755.8h21.9" class="g0_26"/>
<path d="M127.9,724.5l14.4,24" class="g1_26"/>
<path d="M206.8,765.3V683.4" class="g0_26"/>
<path d="M218.5,728.9h18.4m18,0h18.4" class="g7_26"/>
<path d="M273.3,728.9h27.4" class="g3_26"/>
<path d="M300.7,728.9h19.9m42.4,0h19.9" class="g1_26"/>
<path d="M382.9,728.9h27.4" class="g3_26"/>
<path d="M410.3,728.9h18.4m18,0h18.4" class="g7_26"/>
<path d="M206.8,794.5V765.3m0,58.4V794.5m0,58.4V823.7m0,58.5V852.9" class="g0_26"/>
<path d="M218.1,845.8h305" class="g4_26"/>
<path d="M519.2,840.1c.8,3.5,2.7,5.1,4.6,5.7c-1.9,.7,-3.8,2.3,-4.6,5.8" class="g5_26"/>
<path d="M344.8,880.7c1.4,0,2.1,-2.7,3.5,-2.7c1,0,1.8,1.3,2.7,2.7c.9,1.4,1.8,2.8,2.8,2.8c.9,0,1.8,-1.4,2.7,-2.8c.9,-1.4,1.7,-2.7,2.7,-2.7c1,0,1.9,1.3,2.8,2.7c.9,1.4,1.7,2.8,2.7,2.8c1,0,1.9,-1.4,2.8,-2.8c.8,-1.4,1.7,-2.7,2.7,-2.7c1.4,0,2,2.7,3.4,2.7h5.2m137.5,1.6c-1.6,3.3,-5.4,5.5,-10.9,5.5H462.6c-5.5,0,-9.3,2.2,-10.9,5.5c-1.7,-3.3,-5.5,-5.5,-11,-5.5H397.9c-5.4,0,-9.3,-2.2,-10.9,-5.5" class="g8_26"/>
<path d="M206.8,911.4V882.2m0,58.4V911.4M116.9,941H543.5" class="g0_26"/>
</svg>