<?xml version="1.0" encoding="UTF-8" standalone="no"?>
<!DOCTYPE svg PUBLIC "-//W3C//DTD SVG 1.1//EN"
"http://www.w3.org/Graphics/SVG/1.1/DTD/svg11.dtd">
<svg viewBox="0 0 1286 909" version="1.1" xmlns="http://www.w3.org/2000/svg" xmlns:xlink="http://www.w3.org/1999/xlink">
<defs>
<style type="text/css"><![CDATA[
.g0_813{
fill: none;
stroke: #000000;
stroke-width: 0.73;
stroke-linecap: butt;
stroke-linejoin: miter;
}
.g1_813{
fill: none;
stroke: #02B5EE;
stroke-width: 1.262;
stroke-linecap: butt;
stroke-linejoin: miter;
}
.g2_813{
fill: none;
stroke: #5EE200;
stroke-width: 1.262;
stroke-linecap: butt;
stroke-linejoin: miter;
}
.g3_813{
fill: #FFCCCC;
}
.g4_813{
fill: none;
stroke: #5EE200;
stroke-width: 0.73;
stroke-linecap: butt;
stroke-linejoin: miter;
}
.g5_813{
fill: none;
stroke: #02B5EE;
stroke-width: 0.73;
stroke-linecap: butt;
stroke-linejoin: miter;
}
.g6_813{
fill: none;
stroke: #F81693;
stroke-width: 1.461;
stroke-linecap: butt;
stroke-linejoin: miter;
stroke-dasharray: 2,2;
}
]]></style>
</defs>
<path d="M193,83.4h900.3M193,210.6H956.4m-763.4,0H956.4M553.2,240.2V211m0,58.5V240.2m0,114.3v-85" class="g0_813"/>
<path d="M651.7,330.5h84.9" class="g1_813"/>
<path d="M747.1,330.5h22.4" class="g2_813"/>
<path d="M790.5,318.8H945.4V285.9H790.5v32.9Z" class="g3_813"/>
<path d="M553.2,383.7V354.5m0,102.3V383.7" class="g0_813"/>
<path d="M564.2,433h284V400.1h-284V433Z" class="g3_813"/>
<path d="M854.3,442.9h34.4" class="g4_813"/>
<path d="M894.8,442.9h50.6" class="g5_813"/>
<path d="M553.2,486V456.8m0,58.4V486m0,114.2v-85" class="g0_813"/>
<path d="M607.6,576.2h84.9" class="g1_813"/>
<path d="M703,576.2h22.4" class="g2_813"/>
<path d="M775.6,564.5h59.6V531.6H775.6v32.9Z" class="g3_813"/>
<path d="M849.3,564.4h63.3" class="g6_813"/>
<path d="M553.2,629.5V600.2m0,102.3v-73" class="g0_813"/>
<path d="M626.2,674.4h81.7" class="g6_813"/>
<path d="M723.7,678.8H831.3V645.9H723.7v32.9Z" class="g3_813"/>
<path d="M854.3,688.6h34.4" class="g4_813"/>
<path d="M894.8,688.6h50.6" class="g5_813"/>
<path d="M553.2,731.7V702.5m0,58.5V731.7M193,761.3H956.4m-763.4,0H956.4" class="g0_813"/>
</svg>