<?xml version="1.0" encoding="UTF-8" standalone="no"?>
<!DOCTYPE svg PUBLIC "-//W3C//DTD SVG 1.1//EN"
"http://www.w3.org/Graphics/SVG/1.1/DTD/svg11.dtd">
<svg viewBox="0 0 1286 909" version="1.1" xmlns="http://www.w3.org/2000/svg" xmlns:xlink="http://www.w3.org/1999/xlink">
<defs>
<style type="text/css"><![CDATA[
.g0_91{
fill: none;
stroke: #000000;
stroke-width: 0.73;
stroke-linecap: butt;
stroke-linejoin: miter;
}
.g1_91{
fill: #B3E9FA;
}
.g2_91{
fill: none;
stroke: #02B5EE;
stroke-width: 1.262;
stroke-linecap: butt;
stroke-linejoin: miter;
}
.g3_91{
fill: none;
stroke: #5EE200;
stroke-width: 1.262;
stroke-linecap: butt;
stroke-linejoin: miter;
}
]]></style>
</defs>
<path d="M193,83.4h900.3M193,210.6H813.6m-620.6,0H813.6M510.2,240.2V211m0,58.5V240.2m0,114.3v-85" class="g0_91"/>
<path d="M523.7,311V292.5c0,-2.9,2.4,-5.2,5.2,-5.2h94c2.9,0,5.2,2.3,5.2,5.2V311c0,2.9,-2.3,5.2,-5.2,5.2h-94c-2.8,0,-5.2,-2.3,-5.2,-5.2Z" class="g1_91"/>
<path d="M521.1,330.5H630.7" class="g2_91"/>
<path d="M641.2,330.5H802.6" class="g3_91"/>
<path d="M510.2,383.7V354.5M193,384.1H813.6m-620.6,0H813.6" class="g0_91"/>
</svg>