<?xml version="1.0" encoding="UTF-8" standalone="no"?>
<!DOCTYPE svg PUBLIC "-//W3C//DTD SVG 1.1//EN"
"http://www.w3.org/Graphics/SVG/1.1/DTD/svg11.dtd">
<svg viewBox="0 0 909 1286" version="1.1" xmlns="http://www.w3.org/2000/svg" xmlns:xlink="http://www.w3.org/1999/xlink">
<defs>
<clipPath id="c0_136"><path d="M119.5,288.6V255.1H446.9v33.5Z"/></clipPath>
<clipPath id="c1_136"><path d="M462.5,288.6V255.1H789.9v33.5Z"/></clipPath>
<style type="text/css"><![CDATA[
.g0_136{
fill: none;
stroke: #000000;
stroke-width: 0.73;
stroke-linecap: butt;
stroke-linejoin: miter;
}
.g1_136{
fill: #7F7F7F;
fill-opacity: 0.01;
}
.g2_136{
fill: #7F7F7F;
fill-opacity: 0.02;
}
.g3_136{
fill: #7F7F7F;
fill-opacity: 0.04;
}
.g4_136{
fill: #7F7F7F;
fill-opacity: 0.07;
}
.g5_136{
fill: #7F7F7F;
fill-opacity: 0.11;
}
.g6_136{
fill: #FFFFFF;
}
.g7_136{
fill: #7F7F7F;
}
.g8_136{
fill: #00AEEF;
}
.g9_136{
fill: #CBCEFB;
}
.ga_136{
fill: #EC008C;
}
]]></style>
</defs>
<path d="M116.9,159.9H792.5" class="g0_136"/>
<path d="M122.2,257.8c107.4,0,214.7,0,322,0v561c-107.3,-9.4,-214.6,-9.4,-322,0Z" class="g1_136"/>
<path d="M122.9,258.4c106.9,0,213.8,0,320.7,0V818.2c-106.9,-9.4,-213.8,-9.4,-320.7,0Z" class="g2_136"/>
<path d="M123.5,259.1c106.5,0,213,0,319.5,0V817.5c-106.5,-9.3,-213,-9.3,-319.5,0Z" class="g3_136"/>
<path d="M124.1,259.7c106.1,0,212.2,0,318.3,0V816.9c-106.1,-9.3,-212.2,-9.3,-318.3,0Z" class="g4_136"/>
<path d="M124.7,260.3c105.7,0,211.4,0,317,0v556c-105.6,-9.4,-211.3,-9.4,-317,0Z" class="g5_136"/>
<path d="M125.4,260.9c105.2,0,210.5,0,315.7,0V815.7c-105.2,-9.4,-210.5,-9.4,-315.7,0Z" class="g5_136"/>
<path d="M126,261.5c104.8,0,209.7,0,314.5,0V815C335.7,805.7,230.8,805.7,126,815Z" class="g4_136"/>
<path d="M126.6,262.2c104.4,0,208.8,0,313.3,0V814.4c-104.5,-9.3,-208.9,-9.3,-313.3,0Z" class="g3_136"/>
<path d="M127.2,262.8c104,0,208,0,312,0v551c-104,-9.4,-208,-9.4,-312,0Z" class="g2_136"/>
<path d="M127.9,263.4c103.5,0,207.1,0,310.7,0V813.2c-103.6,-9.4,-207.2,-9.4,-310.7,0Z" class="g1_136"/>
<path d="M116.9,808.5v-556H449.5v556Z" class="g6_136"/>
<path d="M119.5,805.9V291.2H446.9V805.9Z" class="g6_136"/>
<path d="M119.5,288.6V255.1H446.9v33.5Z" class="g7_136"/>
<g clip-path="url(#c0_136)">
<image x="119" y="254" width="329" height="34" xlink:href="shade/1.png"/>
</g>
<path d="M316.9,283.4h104V260.3h-104v23.1Z" class="g8_136"/>
<path d="M188.1,340.6H378.4M188.5,370.2V341" class="g0_136"/>
<path d="M188.8,370.2h98.6V341H188.8v29.2Z" class="g9_136"/>
<path d="M287.8,370.2V341" class="g0_136"/>
<path d="M288.2,370.2h89.4V341H288.2v29.2Z" class="g9_136"/>
<path d="M378,370.2V341M188.1,370.6H378.4M188.5,400.2V370.9m99.3,29.3V370.9M378,400.2V370.9M188.1,400.5H378.4M188.5,430.1V400.9m99.3,29.2V400.9M378,430.1V400.9M188.1,430.5H378.4M188.5,460.1V430.8m99.3,29.3V430.8M378,460.1V430.8M188.1,460.4H378.4M188.5,490V460.8M287.8,490V460.8M378,490V460.8M188.1,490.4H378.4M188.5,520V490.8M287.8,520V490.8M378,520V490.8M188.1,520.3H378.4M188.5,549.9V520.7m99.3,29.2V520.7M378,549.9V520.7M188.1,550.3H378.4M188.5,579.9V550.7m99.3,29.2V550.7M378,579.9V550.7M188.1,580.3H378.4M188.5,609.8V580.6m99.3,29.2V580.6M378,609.8V580.6M188.1,610.2H378.4M188.5,639.8V610.6m99.3,29.2V610.6M378,639.8V610.6M188.1,640.2H378.4M188.5,669.7V640.5m99.3,29.2V640.5M378,669.7V640.5M188.1,670.1H378.4M188.5,699.7V670.5m99.3,29.2V670.5M378,699.7V670.5M188.1,700.1H378.4M188.5,729.7V700.4m99.3,29.3V700.4M378,729.7V700.4M188.1,730H378.4M188.5,759.6V730.4m99.3,29.2V730.4M378,759.6V730.4M188.1,760H378.4M188.5,789.6V760.3m99.3,29.3V760.3M378,789.6V760.3M188.1,789.9H378.4" class="g0_136"/>
<path d="M465.2,257.8c107.4,0,214.7,0,322,0V442.3c-107.3,-9.3,-214.6,-9.3,-322,0Z" class="g1_136"/>
<path d="M465.8,258.4c107,0,213.9,0,320.8,0V441.7c-106.9,-9.3,-213.8,-9.3,-320.8,0Z" class="g2_136"/>
<path d="M466.5,259.1c106.5,0,213,0,319.5,0v182c-106.5,-9.4,-213,-9.4,-319.5,0Z" class="g3_136"/>
<path d="M467.1,259.7c106.1,0,212.2,0,318.2,0V440.5c-106,-9.4,-212.1,-9.4,-318.2,0Z" class="g4_136"/>
<path d="M467.7,260.3c105.7,0,211.3,0,317,0V439.8c-105.7,-9.3,-211.3,-9.3,-317,0Z" class="g5_136"/>
<path d="M468.3,260.9c105.3,0,210.5,0,315.8,0V439.2c-105.3,-9.3,-210.5,-9.3,-315.8,0Z" class="g5_136"/>
<path d="M469,261.6c104.8,0,209.6,0,314.5,0v177c-104.9,-9.4,-209.7,-9.4,-314.5,0Z" class="g4_136"/>
<path d="M469.6,262.2c104.4,0,208.8,0,313.2,0V438C678.4,428.6,574,428.6,469.6,438Z" class="g3_136"/>
<path d="M470.2,262.8c104,0,208,0,312,0V437.4c-104,-9.4,-208,-9.4,-312,0Z" class="g2_136"/>
<path d="M470.8,263.4c103.6,0,207.2,0,310.8,0V436.7c-103.6,-9.3,-207.2,-9.3,-310.8,0Z" class="g1_136"/>
<path d="M459.9,432.1V252.5H792.5V432.1Z" class="g6_136"/>
<path d="M462.5,429.5V291.2H789.9V429.5Z" class="g6_136"/>
<path d="M462.5,288.6V255.1H789.9v33.5Z" class="g7_136"/>
<g clip-path="url(#c1_136)">
<image x="462" y="254" width="329" height="34" xlink:href="shade/2.png"/>
</g>
<path d="M675.7,283.4h88.2V260.3H675.7v23.1Z" class="ga_136"/>
<path d="M555.3,323.6H697.2M555.6,353.2V324" class="g0_136"/>
<path d="M556,353.2h69.8V324H556v29.2Z" class="g9_136"/>
<path d="M626.2,353.2V324" class="g0_136"/>
<path d="M626.6,353.2h69.8V324H626.6v29.2Z" class="g9_136"/>
<path d="M696.8,353.2V324M555.3,353.6H697.2M555.6,383.2V354m70.6,29.2V354m70.6,29.2V354M555.3,383.5H697.2M555.6,413.1V383.9m70.6,29.2V383.9m70.6,29.2V383.9M555.3,413.5H697.2" class="g0_136"/>
</svg>