<?xml version="1.0" encoding="UTF-8" standalone="no"?>
<!DOCTYPE svg PUBLIC "-//W3C//DTD SVG 1.1//EN"
"http://www.w3.org/Graphics/SVG/1.1/DTD/svg11.dtd">
<svg viewBox="0 0 1286 909" version="1.1" xmlns="http://www.w3.org/2000/svg" xmlns:xlink="http://www.w3.org/1999/xlink">
<defs>
<style type="text/css"><![CDATA[
.g0_123{
fill: none;
stroke: #000000;
stroke-width: 0.73;
stroke-linecap: butt;
stroke-linejoin: miter;
}
.g1_123{
fill: none;
stroke: #02B5EE;
stroke-width: 1.262;
stroke-linecap: butt;
stroke-linejoin: miter;
}
.g2_123{
fill: none;
stroke: #02B5EE;
stroke-width: 0.73;
stroke-linecap: butt;
stroke-linejoin: miter;
}
.g3_123{
fill: none;
stroke: #5EE200;
stroke-width: 1.262;
stroke-linecap: butt;
stroke-linejoin: miter;
}
]]></style>
</defs>
<path d="M193,83.4h900.3M193,111.6h827.1m-827.1,0h827.1M592.4,141.2V112m0,114.3V141.2" class="g0_123"/>
<path d="M789.1,202.3h40.2" class="g1_123"/>
<path d="M592.4,256.4V226.3m0,103.2V256.4" class="g0_123"/>
<path d="M941.6,315.6h67.5" class="g2_123"/>
<path d="M592.4,358.7V329.5m0,58.4V358.7m0,114.3V387.9" class="g0_123"/>
<path d="M793.4,449h35.9" class="g1_123"/>
<path d="M592.4,502.2V473m0,102.2v-73" class="g0_123"/>
<path d="M975.4,561.4h33.7" class="g2_123"/>
<path d="M592.4,604.5V575.2m0,58.5V604.5m0,114.2v-85" class="g0_123"/>
<path d="M756.1,694.7H910.8" class="g1_123"/>
<path d="M921.4,694.7h87.7" class="g3_123"/>
<path d="M592.4,747.9V718.7M193,748.3h827.1m-827.1,0h827.1" class="g0_123"/>
</svg>