<?xml version="1.0" encoding="UTF-8" standalone="no"?>
<!DOCTYPE svg PUBLIC "-//W3C//DTD SVG 1.1//EN"
"http://www.w3.org/Graphics/SVG/1.1/DTD/svg11.dtd">
<svg viewBox="0 0 1286 909" version="1.1" xmlns="http://www.w3.org/2000/svg" xmlns:xlink="http://www.w3.org/1999/xlink">
<defs>
<style type="text/css"><![CDATA[
.g0_1177{
fill: none;
stroke: #000000;
stroke-width: 0.73;
stroke-linecap: butt;
stroke-linejoin: miter;
}
.g1_1177{
fill: none;
stroke: #000000;
stroke-width: 0.657;
stroke-linecap: butt;
stroke-linejoin: miter;
}
.g2_1177{
fill: #FDE8E9;
}
]]></style>
</defs>
<path d="M193,83.4h900.3" class="g0_1177"/>
<path d="M208.3,113.9H526.7M208.3,140.6V114.3m206.1,26.3V114.3m112.3,26.3V114.3M208.3,170V140.6M414.4,170V140.6" class="g1_1177"/>
<path d="M424.2,167h46.2V140.6H424.2V167Z" class="g2_1177"/>
<path d="M526.7,170V140.6M208.3,196.3V170m206.1,26.3V170m112.3,26.3V170M208.3,222.6V196.3m206.1,26.3V196.3m112.3,26.3V196.3M208.3,251.5V222.6m206.1,28.9V222.6" class="g1_1177"/>
<path d="M424.2,251.5h92.7V225.8H424.2v25.7Z" class="g2_1177"/>
<path d="M526.7,251.5V222.6M208.3,277.8V251.5m206.1,26.3V251.5m112.3,26.3V251.5M208.3,304.1V277.8m206.1,26.3V277.8m112.3,26.3V277.8M208.3,331.2V304.1m206.1,27.1V304.1" class="g1_1177"/>
<path d="M424.2,328.3h70.5v-21H424.2v21Z" class="g2_1177"/>
<path d="M526.7,331.2V304.1M208.3,357.5V331.2m206.1,26.3V331.2m112.3,26.3V331.2M208.3,383.8V357.5m206.1,26.3V357.5m112.3,26.3V357.5M208.3,411V383.8M414.4,411V383.8" class="g1_1177"/>
<path d="M424.2,408h70.5V387H424.2v21Z" class="g2_1177"/>
<path d="M526.7,411V383.8M208.3,437.3V411m206.1,26.3V411m112.3,26.3V411M208.3,463.6V437.3m206.1,26.3V437.3m112.3,26.3V437.3M208.3,493V463.6M414.4,493V463.6" class="g1_1177"/>
<path d="M424.2,490h64.4V463.6H424.2V490Z" class="g2_1177"/>
<path d="M526.7,493V463.6M208.3,519.3V493m206.1,26.3V493m112.3,26.3V493M208.3,545.6V519.3m206.1,26.3V519.3m112.3,26.3V519.3M208.3,572.7V545.6m206.1,27.1V545.6" class="g1_1177"/>
<path d="M424.2,569.8h56.3v-21H424.2v21Z" class="g2_1177"/>
<path d="M526.7,572.7V545.6M208.3,599V572.7M414.4,599V572.7M526.7,599V572.7M208.3,625.3V599m206.1,26.3V599m112.3,26.3V599M208.3,652.5V625.3m206.1,27.2V625.3" class="g1_1177"/>
<path d="M424.2,649.5h56.3v-21H424.2v21Z" class="g2_1177"/>
<path d="M526.7,652.5V625.3M208.3,678.8V652.5m206.1,26.3V652.5m112.3,26.3V652.5M208.3,705.1V678.8m206.1,26.3V678.8m112.3,26.3V678.8M208.3,736.2V705.1m206.1,31.1V705.1" class="g1_1177"/>
<path d="M424.2,736.2h81.2V705.1H424.2v31.1Z" class="g2_1177"/>
<path d="M526.7,736.2V705.1M208.3,762.5V736.2m206.1,26.3V736.2m112.3,26.3V736.2M208.3,762.9H526.7M546.5,110.6H816.6M546.5,137.2V110.9m129.1,26.3V110.9m141,26.3V110.9M546.5,166.2v-29m129.1,29v-29" class="g1_1177"/>
<path d="M685.5,166.2h96.1V140.4H685.5v25.8Z" class="g2_1177"/>
<path d="M816.6,166.2v-29M546.5,192.5V166.2m129.1,26.3V166.2m141,26.3V166.2M546.5,218.8V192.5m129.1,26.3V192.5m141,26.3V192.5M546.5,245.9V218.8m129.1,27.1V218.8" class="g1_1177"/>
<path d="M685.5,243h90.9V222H685.5v21Z" class="g2_1177"/>
<path d="M816.6,245.9V218.8M546.5,272.2V245.9m129.1,26.3V245.9m141,26.3V245.9M546.5,298.5V272.2m129.1,26.3V272.2m141,26.3V272.2M546.5,327.9V298.5m129.1,29.4V298.5" class="g1_1177"/>
<path d="M685.5,324.9h71.9V298.5H685.5v26.4Z" class="g2_1177"/>
<path d="M816.6,327.9V298.5M546.5,354.2V327.9m129.1,26.3V327.9m141,26.3V327.9M546.5,380.5V354.2m129.1,26.3V354.2m141,26.3V354.2M546.5,409.9V380.5m129.1,29.4V380.5" class="g1_1177"/>
<path d="M685.5,406.9h78.1V380.5H685.5v26.4Z" class="g2_1177"/>
<path d="M816.6,409.9V380.5M546.5,436.2V409.9m129.1,26.3V409.9m141,26.3V409.9M546.5,462.5V436.2m129.1,26.3V436.2m141,26.3V436.2M546.5,491.9V462.5m129.1,29.4V462.5" class="g1_1177"/>
<path d="M685.5,488.9h99.3V462.5H685.5v26.4Z" class="g2_1177"/>
<path d="M816.6,491.9V462.5M546.5,518.2V491.9m129.1,26.3V491.9m141,26.3V491.9M546.5,544.5V518.2m129.1,26.3V518.2m141,26.3V518.2M546.5,575.6V544.5m129.1,31.1V544.5" class="g1_1177"/>
<path d="M685.5,575.6H806.7V544.5H685.5v31.1Z" class="g2_1177"/>
<path d="M816.6,575.6V544.5M546.5,601.9V575.6m129.1,26.3V575.6m141,26.3V575.6M546.5,628.2V601.9m129.1,26.3V601.9m141,26.3V601.9M546.5,657.6V628.2m129.1,29.4V628.2" class="g1_1177"/>
<path d="M685.5,654.6H803.8V628.2H685.5v26.4Z" class="g2_1177"/>
<path d="M816.6,657.6V628.2M546.5,683.9V657.6m129.1,26.3V657.6m141,26.3V657.6M546.5,710.2V683.9m129.1,26.3V683.9m141,26.3V683.9M546.5,739.6V710.2m129.1,29.4V710.2" class="g1_1177"/>
<path d="M685.5,736.6h92V710.2h-92v26.4Z" class="g2_1177"/>
<path d="M816.6,739.6V710.2M546.5,765.9V739.6m129.1,26.3V739.6m141,26.3V739.6M546.5,766.2H816.6M836.3,109.5h276.5M836.3,136.1V109.8m151.1,26.3V109.8m125.4,26.3V109.8M836.3,165.5V136.1m151.1,29.4V136.1" class="g1_1177"/>
<path d="M997.2,162.5h95.3V136.1H997.2v26.4Z" class="g2_1177"/>
<path d="M1112.8,165.5V136.1M836.3,191.8V165.5m151.1,26.3V165.5m125.4,26.3V165.5M836.3,218.1V191.8m151.1,26.3V191.8m125.4,26.3V191.8M836.3,247.5V218.1m151.1,29.4V218.1" class="g1_1177"/>
<path d="M997.2,244.5h70.4V218.1H997.2v26.4Z" class="g2_1177"/>
<path d="M1112.8,247.5V218.1M836.3,273.8V247.5m151.1,26.3V247.5m125.4,26.3V247.5M836.3,300.1V273.8m151.1,26.3V273.8m125.4,26.3V273.8M836.3,329.5V300.1m151.1,29.4V300.1" class="g1_1177"/>
<path d="M997.2,326.5h93V300.1h-93v26.4Z" class="g2_1177"/>
<path d="M1112.8,329.5V300.1M836.3,355.8V329.5m151.1,26.3V329.5m125.4,26.3V329.5M836.3,382.1V355.8m151.1,26.3V355.8m125.4,26.3V355.8M836.3,411V382.1M987.4,411V382.1" class="g1_1177"/>
<path d="M997.2,411h67.6V385.3H997.2V411Z" class="g2_1177"/>
<path d="M1112.8,411V382.1M836.3,437.3V411m151.1,26.3V411m125.4,26.3V411M836.3,463.6V437.3m151.1,26.3V437.3m125.4,26.3V437.3M836.3,493V463.6M987.4,493V463.6" class="g1_1177"/>
<path d="M997.2,490h52V463.6h-52V490Z" class="g2_1177"/>
<path d="M1112.8,493V463.6M836.3,519.3V493m151.1,26.3V493m125.4,26.3V493M836.3,545.6V519.3m151.1,26.3V519.3m125.4,26.3V519.3M836.3,575V545.6M987.4,575V545.6" class="g1_1177"/>
<path d="M997.2,572h70.1V545.6H997.2V572Z" class="g2_1177"/>
<path d="M1112.8,575V545.6M836.3,601.3V575m151.1,26.3V575m125.4,26.3V575M836.3,627.6V601.3m151.1,26.3V601.3m125.4,26.3V601.3M836.3,656.9V627.6m151.1,29.3V627.6" class="g1_1177"/>
<path d="M997.2,654h70.6V627.6H997.2V654Z" class="g2_1177"/>
<path d="M1112.8,656.9V627.6M836.3,683.2V656.9m151.1,26.3V656.9m125.4,26.3V656.9M836.3,709.5V683.2m151.1,26.3V683.2m125.4,26.3V683.2M836.3,740.7V709.5m151.1,31.2V709.5" class="g1_1177"/>
<path d="M997.2,740.7H1103V709.5H997.2v31.2Z" class="g2_1177"/>
<path d="M1112.8,740.7V709.5M836.3,767V740.7M987.4,767V740.7M1112.8,767V740.7M836.3,767.3h276.5" class="g1_1177"/>
</svg>