<?xml version="1.0" encoding="UTF-8" standalone="no"?>
<!DOCTYPE svg PUBLIC "-//W3C//DTD SVG 1.1//EN"
"http://www.w3.org/Graphics/SVG/1.1/DTD/svg11.dtd">
<svg viewBox="0 0 1286 909" version="1.1" xmlns="http://www.w3.org/2000/svg" xmlns:xlink="http://www.w3.org/1999/xlink">
<defs>
<style type="text/css"><![CDATA[
.g0_1230{
fill: none;
stroke: #000000;
stroke-width: 0.73;
stroke-linecap: butt;
stroke-linejoin: miter;
}
.g1_1230{
fill: #FDE8E9;
}
]]></style>
</defs>
<path d="M193,83.4h900.3M203.9,114h221m-221,29.6V114.3m70.6,29.3V114.3m150.4,29.3V114.3m-221,61.4V143.6m70.6,32.1V143.6" class="g0_1230"/>
<path d="M285.4,175.7h80V147.1h-80v28.6Z" class="g1_1230"/>
<path d="M424.9,175.7V143.6m-221,61.3V175.7m70.6,29.2V175.7m150.4,29.2V175.7m-221,58.5V204.9m70.6,29.3V204.9m150.4,29.3V204.9m-221,63.9V234.2m70.6,34.6V234.2" class="g0_1230"/>
<path d="M285.4,268.8H394.3V234.2H285.4v34.6Z" class="g1_1230"/>
<path d="M424.9,268.8V234.2M203.9,298V268.8M274.5,298V268.8M424.9,298V268.8m-221,58.4V298m70.6,29.2V298m150.4,29.2V298m-221,61.9V327.2m70.6,32.7V327.2" class="g0_1230"/>
<path d="M285.4,356.6h94.9V327.2H285.4v29.4Z" class="g1_1230"/>
<path d="M424.9,359.9V327.2m-221,61.9V359.9m70.6,29.2V359.9m150.4,29.2V359.9m-221,58.4V389.1m70.6,29.2V389.1m150.4,29.2V389.1m-221,63.8V418.3m70.6,34.6V418.3" class="g0_1230"/>
<path d="M285.4,452.9h92.1V418.3H285.4v34.6Z" class="g1_1230"/>
<path d="M424.9,452.9V418.3m-221,63.8V452.9m70.6,29.2V452.9m150.4,29.2V452.9m-221,58.5V482.1m70.6,29.3V482.1m150.4,29.3V482.1M203.9,544V511.4M274.5,544V511.4" class="g0_1230"/>
<path d="M285.4,540.7H413.9V511.4H285.4v29.3Z" class="g1_1230"/>
<path d="M424.9,544V511.4m-221,61.8V544m70.6,29.2V544m150.4,29.2V544m-221,58.5V573.2m70.6,29.3V573.2m150.4,29.3V573.2m-221,61.4V602.5m70.6,32.1V602.5" class="g0_1230"/>
<path d="M285.4,634.6H364V606H285.4v28.6Z" class="g1_1230"/>
<path d="M424.9,634.6V602.5m-221,61.3V634.6m70.6,29.2V634.6m150.4,29.2V634.6m-221,58.5V663.8m70.6,29.3V663.8m150.4,29.3V663.8m-221,61.9V693.1m70.6,32.6V693.1" class="g0_1230"/>
<path d="M285.4,722.4h58.4V693.1H285.4v29.3Z" class="g1_1230"/>
<path d="M424.9,725.7V693.1m-221,61.8V725.7m70.6,29.2V725.7m150.4,29.2V725.7m-221,29.6h221M446.8,112.7H715.2M446.8,142.3V113.1M566,142.3V113.1m149.2,29.2V113.1M446.8,176.9V142.3M566,176.9V142.3" class="g0_1230"/>
<path d="M577,176.9H702.4V142.3H577v34.6Z" class="g1_1230"/>
<path d="M715.2,176.9V142.3M446.8,206.2V176.9M566,206.2V176.9m149.2,29.3V176.9M446.8,235.4V206.2M566,235.4V206.2m149.2,29.2V206.2M446.8,268V235.4M566,268V235.4" class="g0_1230"/>
<path d="M577,264.7H704.3V235.4H577v29.3Z" class="g1_1230"/>
<path d="M715.2,268V235.4M446.8,297.3V268M566,297.3V268m149.2,29.3V268M446.8,326.5V297.3M566,326.5V297.3m149.2,29.2V297.3M446.8,361.1V326.5M566,361.1V326.5" class="g0_1230"/>
<path d="M577,361.1h73.3V326.5H577v34.6Z" class="g1_1230"/>
<path d="M715.2,361.1V326.5M446.8,390.3V361.1M566,390.3V361.1m149.2,29.2V361.1M446.8,419.5V390.3M566,419.5V390.3m149.2,29.2V390.3M446.8,454.2V419.5M566,454.2V419.5" class="g0_1230"/>
<path d="M577,454.2h78.6V419.5H577v34.7Z" class="g1_1230"/>
<path d="M715.2,454.2V419.5M446.8,483.4V454.2M566,483.4V454.2m149.2,29.2V454.2M446.8,512.6V483.4M566,512.6V483.4m149.2,29.2V483.4M446.8,545.3V512.6M566,545.3V512.6" class="g0_1230"/>
<path d="M577,542h97.9V512.6H577V542Z" class="g1_1230"/>
<path d="M715.2,545.3V512.6M446.8,574.5V545.3M566,574.5V545.3m149.2,29.2V545.3M446.8,603.7V574.5M566,603.7V574.5m149.2,29.2V574.5M446.8,636.3V603.7M566,636.3V603.7" class="g0_1230"/>
<path d="M577,633.1h97.6V603.7H577v29.4Z" class="g1_1230"/>
<path d="M715.2,636.3V603.7M446.8,665.6V636.3M566,665.6V636.3m149.2,29.3V636.3M446.8,694.8V665.6M566,694.8V665.6m149.2,29.2V665.6M446.8,726.9V694.8M566,726.9V694.8" class="g0_1230"/>
<path d="M577,726.9H695.8V698.4H577v28.5Z" class="g1_1230"/>
<path d="M715.2,726.9V694.8M446.8,756.2V726.9M566,756.2V726.9m149.2,29.3V726.9M446.8,756.5H715.2m22,-647H971.6M737.2,139.1V109.9M832,139.1V109.9m139.6,29.2V109.9M737.2,173.7V139.1M832,173.7V139.1" class="g0_1230"/>
<path d="M843,173.7h53.3V139.1H843v34.6Z" class="g1_1230"/>
<path d="M971.6,173.7V139.1M737.2,203V173.7M832,203V173.7M971.6,203V173.7M737.2,232.2V203M832,232.2V203m139.6,29.2V203M737.2,266.8V232.2M832,266.8V232.2" class="g0_1230"/>
<path d="M843,266.8h97.8V232.2H843v34.6Z" class="g1_1230"/>
<path d="M971.6,266.8V232.2M737.2,296V266.8M832,296V266.8M971.6,296V266.8M737.2,325.2V296M832,325.2V296m139.6,29.2V296M737.2,359.9V325.2M832,359.9V325.2" class="g0_1230"/>
<path d="M843,359.9H953.6V325.2H843v34.7Z" class="g1_1230"/>
<path d="M971.6,359.9V325.2M737.2,389.1V359.9M832,389.1V359.9m139.6,29.2V359.9M737.2,418.3V389.1M832,418.3V389.1m139.6,29.2V389.1M737.2,452.9V418.3M832,452.9V418.3" class="g0_1230"/>
<path d="M843,452.9H956V418.3H843v34.6Z" class="g1_1230"/>
<path d="M971.6,452.9V418.3M737.2,482.1V452.9M832,482.1V452.9m139.6,29.2V452.9M737.2,511.4V482.1M832,511.4V482.1m139.6,29.3V482.1M737.2,544V511.4M832,544V511.4" class="g0_1230"/>
<path d="M843,540.7h88.9V511.4H843v29.3Z" class="g1_1230"/>
<path d="M971.6,544V511.4M737.2,573.2V544M832,573.2V544m139.6,29.2V544M737.2,602.5V573.2M832,602.5V573.2m139.6,29.3V573.2M737.2,637.1V602.5M832,637.1V602.5" class="g0_1230"/>
<path d="M843,637.1h68.4V602.5H843v34.6Z" class="g1_1230"/>
<path d="M971.6,637.1V602.5M737.2,666.3V637.1M832,666.3V637.1m139.6,29.2V637.1M737.2,695.5V666.3M832,695.5V666.3m139.6,29.2V666.3M737.2,730.1V695.5M832,730.1V695.5" class="g0_1230"/>
<path d="M843,730.1H960.7V695.5H843v34.6Z" class="g1_1230"/>
<path d="M971.6,730.1V695.5M737.2,759.4V730.1M832,759.4V730.1m139.6,29.3V730.1M737.2,759.7H971.6" class="g0_1230"/>
</svg>