<?xml version="1.0" encoding="UTF-8" standalone="no"?>
<!DOCTYPE svg PUBLIC "-//W3C//DTD SVG 1.1//EN"
"http://www.w3.org/Graphics/SVG/1.1/DTD/svg11.dtd">
<svg viewBox="0 0 909 1286" version="1.1" xmlns="http://www.w3.org/2000/svg" xmlns:xlink="http://www.w3.org/1999/xlink">
<defs>
<style type="text/css"><![CDATA[
.g0_2{
fill: none;
stroke: #000000;
stroke-width: 0.73;
stroke-linecap: butt;
stroke-linejoin: miter;
}
.g1_2{
fill: #FFFFFF;
}
.g2_2{
fill: none;
stroke: #02B5EE;
stroke-width: 1.461;
stroke-linecap: butt;
stroke-linejoin: miter;
}
]]></style>
</defs>
<path d="M126.8,282.3H782.7M609.4,311.9V282.7M294.8,303.5l-31.2,18.7m31.2,-18.7l31.3,18.7m-31.3,55.5L263.6,359.1m31.2,18.6l31.3,-18.6m0,-.2V322.3m-62.5,36.6V322.3m93.7,-18.8l-31.2,18.7m31.2,-18.7l31.2,18.7m-31.2,55.5L326.1,359.1m31.2,18.6l31.2,-18.6m0,-.2V322.3m31.3,-18.8l-31.3,18.7m31.3,-18.7L451,322.2m0,36.7V322.3m-31.2,55.4L451,359.1m-31.2,18.6L388.5,359.1m32.4,-47.9l23,13.7m-23,45.1l23,-13.7M358.4,370l-23,-13.7m23,-45.1l-23,13.7M293.7,370l-23,-13.7m23,-45.1l-23,13.7m123.5,29.2v-27m215.2,48.4V311.9" class="g0_2"/>
<path d="M623.3,358.7V325.1c0,-2.9,2.3,-5.2,5.2,-5.2H763.9c2.9,0,5.2,2.3,5.2,5.2v33.6c0,2.8,-2.3,5.2,-5.2,5.2H628.5c-2.9,0,-5.2,-2.4,-5.2,-5.2Z" class="g1_2"/>
<path d="M609.4,404.7V375.5M126.8,405.1H782.7M609.4,434.7V405.5M329.9,426.3l31.2,18.6m0,36.7V445.1m-31.2,55.3l31.2,-18.6m-31.2,18.6L298.7,481.8m0,-.2V445.1m31.2,-18.8l-31.2,18.6M267.4,426.3l31.3,18.6m-31.3,55.5l31.3,-18.6m-31.3,18.6L236.2,481.8m0,-.2V445.1m31.2,-18.8l-31.2,18.6m30.1,-11l-23,13.7m23,45.2l-23,-13.7m85.5,-45.2l-23,13.7m23,45.2l-23,-13.7m86.6,-52.8l31.2,18.6m0,36.7V445.1m-31.2,55.3l31.2,-18.6m-31.2,18.6L361.1,481.8m31.3,-55.5l-31.3,18.6m30.2,-11l-23,13.7m23,45.2l-23,-13.7m86.5,-52.8l31.3,18.6m0,36.7V445.1m-31.3,55.3l31.3,-18.6m-31.3,18.6L423.6,481.8m31.2,-55.5l-31.2,18.6m32.3,-11L479,447.6m-23.1,45.2L479,479.1m-49.4,-2.2V449.8m179.8,48.4V434.7" class="g0_2"/>
<path d="M631.4,481.4V447.9c0,-2.9,2.3,-5.2,5.2,-5.2H755.8c2.9,0,5.2,2.3,5.2,5.2v33.5c0,2.9,-2.3,5.2,-5.2,5.2H636.6c-2.9,0,-5.2,-2.3,-5.2,-5.2Z" class="g1_2"/>
<path d="M657.4,478.3c1.3,0,2,-2.7,3.4,-2.7c1,0,1.8,1.3,2.7,2.7c.9,1.4,1.8,2.8,2.8,2.8c1,0,1.8,-1.4,2.7,-2.8c.9,-1.4,1.8,-2.7,2.8,-2.7c1,0,1.8,1.3,2.7,2.7c.9,1.4,1.7,2.8,2.7,2.8c1,0,1.9,-1.4,2.8,-2.8c.9,-1.4,1.7,-2.7,2.7,-2.7c1.4,0,2.1,2.7,3.4,2.7h.4" class="g2_2"/>
<path d="M609.4,527.5V498.2M126.8,527.8H782.7M609.4,557.4V528.2M302.5,549l31.2,18.6m0,36.8V567.8m-31.2,55.4l31.2,-18.7m-31.2,18.7L271.3,604.5m0,-.1V567.8M302.5,549l-31.2,18.6M240,549l31.3,18.6M240,623.2l31.3,-18.7M240,623.2L208.8,604.5m0,-.1V567.8M240,549l-31.2,18.6m30.1,-10.9l-23,13.7m23,45.1l-23,-13.7m85.5,-45.1l-23,13.7m23,45.1l-23,-13.7M365,549l31.2,18.6m0,36.8V567.8M365,623.2l31.2,-18.7M365,623.2L333.7,604.5M365,549l-31.3,18.6m30.2,-10.9l-23,13.7m23,45.1l-23,-13.7M427.4,549l31.3,18.6m0,36.8V567.8m-31.3,55.4l31.3,-18.7m-31.3,18.7L396.2,604.5M427.4,549l-31.2,18.6m30.2,-10.9l-23.1,13.7m23.1,45.1L403.3,601.8M489.9,549l31.3,18.6m0,36.8V567.8m-31.3,55.4l31.3,-18.7m-31.3,18.7L458.7,604.5M489.9,549l-31.2,18.6M491,556.7l23,13.7m-23,45.1l23,-13.7m-49.3,-2.2v-27M609.4,621V557.4" class="g0_2"/>
<path d="M627.9,607.8V570.6c0,-2.9,2.4,-5.2,5.2,-5.2H759.3c2.8,0,5.2,2.3,5.2,5.2v37.2c0,2.9,-2.4,5.2,-5.2,5.2H633.1c-2.8,0,-5.2,-2.3,-5.2,-5.2Z" class="g1_2"/>
<path d="M653.9,604.7c1.4,0,2.1,-2.7,3.4,-2.7c1,0,1.9,1.3,2.8,2.7c.9,1.4,1.7,2.8,2.7,2.8c1,0,1.9,-1.4,2.8,-2.8c.9,-1.4,1.7,-2.7,2.7,-2.7c1,0,1.9,1.3,2.7,2.7c.9,1.4,1.8,2.8,2.8,2.8c1,0,1.8,-1.4,2.7,-2.8c.9,-1.4,1.8,-2.7,2.8,-2.7c1,0,1.8,1.3,2.7,2.7c.9,1.4,1.8,2.8,2.7,2.8c1.4,0,2.1,-2.8,3.5,-2.8H690" class="g2_2"/>
<path d="M609.4,650.2V621M126.8,650.6H782.7M609.4,680.2V650.9M275.1,671.8l31.2,18.6m0,36.7V690.6m-31.2,55.3l31.2,-18.6m-31.2,18.6L243.9,727.3m0,-.2V690.6m31.2,-18.8l-31.2,18.6M212.6,671.8l31.3,18.6m-31.3,55.5l31.3,-18.6m-31.3,18.6L181.4,727.3m0,-.2V690.6m31.2,-18.8l-31.2,18.6m30.1,-11l-23,13.7m23,45.1l-23,-13.7M274,679.4l-23,13.7m23,45.1L251,724.5m86.6,-52.7l31.2,18.6m0,36.7V690.6m-31.2,55.3l31.2,-18.6m-31.2,18.6L306.3,727.3m31.3,-55.5l-31.3,18.6m30.2,-11l-23,13.7m23,45.1l-23,-13.7M400,671.8l31.3,18.6m0,36.7V690.6M400,745.9l31.3,-18.6M400,745.9L368.8,727.3M400,671.8l-31.2,18.6m30.2,-11l-23.1,13.7M399,738.2L375.9,724.5m86.6,-52.7l31.3,18.6m0,36.7V690.6m-31.3,55.3l31.3,-18.6m-31.3,18.6L431.3,727.3m31.2,-55.5l-31.2,18.6m30.1,-11l-23,13.7m23,45.1l-23,-13.7M525,671.8l31.2,18.6m0,36.7V690.6M525,745.9l31.2,-18.6M525,745.9L493.8,727.3M525,671.8l-31.2,18.6m32.3,-11l23,13.7m-23,45.1l23,-13.7m-49.3,-2.1V695.3m109.6,48.4V680.2" class="g0_2"/>
<path d="M630.7,726.9V693.3c0,-2.8,2.3,-5.2,5.2,-5.2H756.5c2.9,0,5.2,2.4,5.2,5.2v33.6c0,2.9,-2.3,5.2,-5.2,5.2H635.9c-2.9,0,-5.2,-2.3,-5.2,-5.2Z" class="g1_2"/>
<path d="M656.7,723.8c1.4,0,2,-2.7,3.4,-2.7c1,0,1.9,1.3,2.7,2.7c.9,1.4,1.8,2.8,2.8,2.8c1,0,1.8,-1.4,2.7,-2.8c.9,-1.4,1.8,-2.7,2.8,-2.7c1,0,1.8,1.3,2.7,2.7c.9,1.4,1.8,2.8,2.7,2.8c1,0,1.9,-1.4,2.8,-2.8c.9,-1.4,1.7,-2.7,2.7,-2.7c1.4,0,2.1,2.7,3.4,2.7h1.8" class="g2_2"/>
<path d="M609.4,772.9V743.7M126.8,773.3H782.7M609.4,802.9V773.7M247.7,794.5l31.2,18.6m0,36.7V813.3m-31.2,55.4L278.9,850m-31.2,18.7L216.5,850m0,-.2V813.3m31.2,-18.8l-31.2,18.6M185.2,794.5l31.3,18.6m-31.3,55.6L216.5,850m-31.3,18.7L154,850m0,-.2V813.3m31.2,-18.8L154,813.1m30.1,-10.9l-23,13.7m23,45.1l-23,-13.7m85.5,-45.1l-23,13.7m23,45.1l-23,-13.7m86.6,-52.8l31.2,18.6m0,36.7V813.3m-31.2,55.4L341.4,850m-31.2,18.7L278.9,850m31.3,-55.5l-31.3,18.6m30.2,-10.9l-23,13.7m23,45.1l-23,-13.7m86.6,-52.8l31.2,18.6m0,36.7V813.3m-31.2,55.4L403.9,850m-31.2,18.7L341.4,850m31.3,-55.5l-31.3,18.6m30.2,-10.9l-23.1,13.7M371.6,861L348.5,847.3m86.6,-52.8l31.3,18.6m0,36.7V813.3m-31.3,55.4L466.4,850m-31.3,18.7L403.9,850m31.2,-55.5l-31.2,18.6M434,802.2l-23,13.7M434,861L411,847.3m86.6,-52.8l31.2,18.6m0,36.7V813.3m-31.2,55.4L528.8,850m-31.2,18.7L466.4,850m31.2,-55.5l-31.2,18.6m30.1,-10.9l-23,13.7m23,45.1l-23,-13.7m86.6,-52.8l31.2,18.6m0,36.7V813.3m-31.2,55.4L591.3,850m-31.2,18.7L528.8,850m31.3,-55.5l-31.3,18.6m32.4,-10.9l23,13.7m-23,45.1l23,-13.7m-49.3,-2.2v-27m74.5,48.4V802.9" class="g0_2"/>
<path d="M627.6,853.3V816.1c0,-2.9,2.4,-5.2,5.2,-5.2H759.6c2.8,0,5.2,2.3,5.2,5.2v37.2c0,2.9,-2.4,5.2,-5.2,5.2H632.8c-2.8,0,-5.2,-2.3,-5.2,-5.2Z" class="g1_2"/>
<path d="M653.6,850.2c1.4,0,2.1,-2.7,3.4,-2.7c1,0,1.9,1.3,2.8,2.7c.9,1.4,1.7,2.8,2.7,2.8c1,0,1.9,-1.4,2.8,-2.8c.8,-1.4,1.7,-2.7,2.7,-2.7c1,0,1.8,1.3,2.7,2.7c.9,1.4,1.8,2.8,2.8,2.8c1,0,1.8,-1.4,2.7,-2.8c.9,-1.4,1.8,-2.7,2.8,-2.7c.9,0,1.8,1.3,2.7,2.7c.9,1.4,1.7,2.8,2.7,2.8c1.4,0,2.1,-2.8,3.5,-2.8h2.4" class="g2_2"/>
<path d="M609.4,895.7V866.5M126.8,896.1H782.7" class="g0_2"/>
</svg>