<?xml version="1.0" encoding="UTF-8" standalone="no"?>
<!DOCTYPE svg PUBLIC "-//W3C//DTD SVG 1.1//EN"
"http://www.w3.org/Graphics/SVG/1.1/DTD/svg11.dtd">
<svg viewBox="0 0 909 1286" version="1.1" xmlns="http://www.w3.org/2000/svg" xmlns:xlink="http://www.w3.org/1999/xlink">
<defs>
<clipPath id="c0_66"><path d="M123.1,218.7V187h29.1v31.7Z"/></clipPath>
<clipPath id="c1_66"><path d="M122.1,219.2V186.5H153v32.7Z"/></clipPath>
<style type="text/css"><![CDATA[
.g0_66{
fill: #FFFFFF;
}
.g1_66{
fill: none;
stroke: #000000;
stroke-width: 1.461;
stroke-linecap: butt;
stroke-linejoin: miter;
}
.g2_66{
}
.g3_66{
fill: none;
stroke: #000000;
stroke-width: 0.459;
stroke-linecap: butt;
stroke-linejoin: round;
}
.g4_66{
fill: none;
stroke: #000000;
stroke-width: 0.722;
stroke-linecap: round;
stroke-linejoin: miter;
}
.g5_66{
fill: none;
stroke: #000000;
stroke-width: 0.722;
stroke-linecap: round;
stroke-linejoin: round;
}
.g6_66{
fill: #D40000;
}
.g7_66{
fill: none;
stroke: #000000;
stroke-width: 0.578;
stroke-linecap: round;
stroke-linejoin: miter;
}
.g8_66{
fill: #E9C6AF;
}
.g9_66{
fill: none;
stroke: #695000;
stroke-width: 0.152;
stroke-linecap: round;
stroke-linejoin: round;
}
.ga_66{
fill: none;
stroke: #000000;
stroke-width: 0.73;
stroke-linecap: butt;
stroke-linejoin: miter;
}
.gb_66{
fill: none;
stroke: #000000;
stroke-width: 2.739;
stroke-linecap: butt;
stroke-linejoin: miter;
}
.gc_66{
fill: #FFF200;
fill-opacity: 0.75;
stroke: #FFF200;
stroke-width: 0.73;
stroke-linecap: butt;
stroke-linejoin: miter;
stroke-opacity: 0.75;
}
.gd_66{
fill: none;
stroke: #5EE200;
stroke-width: 2.191;
stroke-linecap: butt;
stroke-linejoin: miter;
}
.ge_66{
fill: #5EE200;
stroke: #5EE200;
stroke-width: 2.191;
stroke-linecap: butt;
stroke-linejoin: miter;
}
.gf_66{
fill: none;
stroke: #8007AC;
stroke-width: 2.191;
stroke-linecap: butt;
stroke-linejoin: miter;
}
.gg_66{
fill: #8007AC;
stroke: #8007AC;
stroke-width: 2.191;
stroke-linecap: butt;
stroke-linejoin: miter;
}
.gh_66{
fill: #F81693;
fill-opacity: 0.25;
stroke: #F81693;
stroke-width: 0.73;
stroke-linecap: butt;
stroke-linejoin: miter;
stroke-opacity: 0.25;
}
.gi_66{
fill: #FFA313;
fill-opacity: 0.5;
stroke: #FFA313;
stroke-width: 0.73;
stroke-linecap: butt;
stroke-linejoin: miter;
stroke-opacity: 0.5;
}
.gj_66{
fill: #02B5EE;
fill-opacity: 0.25;
stroke: #02B5EE;
stroke-width: 0.73;
stroke-linecap: butt;
stroke-linejoin: miter;
stroke-opacity: 0.25;
}
]]></style>
</defs>
<path d="M117.7,360.4V180.3H791.8V360.4Z" class="g0_66"/>
<path d="M117.7,360.4V180.3H791.8V360.4Z" class="g1_66"/>
<path d="M411.5,303.2h43.4m28.7,0H529" class="ga_66"/>
<g clip-path="url(#c1_66)">
<path clip-path="url(#c0_66)" d="M126.4,212.4c0,0,1.5,-.9,1.2,-1.3c-.1,-.1,-.3,-.1,-.6,0c-1.6,.3,-5,2.1,-3.3,4.1c1.4,1.6,6.4,2.4,11.7,1.4c7.3,-1.4,13.5,-5.5,11.1,-8.3c-1.6,-2,-6.7,-2.1,-10.8,-2.2c-2.1,0,-6.6,-.1,-8,-1.7c-.6,-.7,-.5,-1.6,.1,-2.2c1,-.9,3.8,-1.4,4,-1.5c.7,-.1,2.5,-.4,4.6,-.3c1.1,0,2.5,0,3.2,.9c.2,.3,.4,.6,.4,.7c0,0,0,.1,.1,.2c.1,.1,.4,.1,.5,.1c.5,-.1,1.5,-.5,2,-1.1c.3,-.2,.8,-.6,0,-1.5c-.9,-1.1,-2.3,-1.2,-4,-1.2c-2.3,0,-4.1,.4,-4.9,.5c-5.8,1.1,-11.1,4.6,-9,7c1.5,1.9,6.3,1.9,9,1.9c3.9,.1,8.4,.3,9.8,2c.6,.7,.9,1.9,-.4,2.9c-1.2,.9,-4,1.7,-5.8,2c-4.4,.9,-9.4,.2,-10.6,-1.2c0,-.1,-.5,-.6,-.3,-1.2Z" class="g2_66"/>
<path d="M131.5,214.8l-.2,-.2l.3,-4.6q.3,-5.6,.5,-5.9c.1,-.2,1.6,-2.3,3.3,-4.6c1.7,-2.4,4.3,-6.1,5.9,-8.3c1.5,-2.2,2.8,-3.9,2.9,-3.9c.4,0,.1,.4,-1.8,3.1c-1.2,1.6,-3.7,5.3,-5.7,8.1c-2,2.9,-3.6,5.2,-3.6,5.2c0,0,.5,.1,1,.2c2,.2,3.3,.5,4.5,1.2c.6,.3,1,.5,1.5,1.1c.8,.8,1.2,1.4,1.4,2.2c.1,.3,.1,.5,.2,.5c.1,0,.7,-.8,5.2,-7.6c2.4,-3.7,4.5,-6.7,4.6,-6.8c.2,-.3,.4,-.1,.2,.2c0,.1,-1.5,2.4,-3.2,5c-1.8,2.7,-3.8,5.7,-4.5,6.8c-1.5,2.4,-2.1,3.3,-2.3,3.8c-.2,.3,-.3,.4,-.9,.7c-.8,.4,-8.7,3.9,-8.9,4c-.1,0,-.3,-.1,-.4,-.2Z" class="g2_66"/>
<path d="M135.2,212.8c2.2,-.9,4,-1.7,4.6,-2q.7,-.4,.7,-1.4c-.2,-1.7,-1.4,-3.1,-3.6,-3.8c-1.2,-.4,-4.3,-.8,-4.4,-.6c0,0,-.1,1.5,-.2,3.1c-.1,1.7,-.2,3.3,-.2,3.6c-.1,1.2,.1,1.5,-.2,2.6c.1,.1,1.8,-.8,1.8,-.8c.1,0,.7,-.3,1.5,-.7Z" class="g2_66"/>
<path d="M131.5,214.8l-.2,-.2l.3,-4.6q.3,-5.6,.5,-5.9c.1,-.2,1.6,-2.3,3.3,-4.6c1.7,-2.4,4.3,-6.1,5.9,-8.3c1.5,-2.2,2.8,-3.9,2.9,-3.9c.4,0,.1,.4,-1.8,3.1c-1.2,1.6,-3.7,5.3,-5.7,8.1c-2,2.9,-3.6,5.2,-3.6,5.2c0,0,.5,.1,1,.2c2,.2,3.3,.5,4.5,1.2c.6,.3,1,.5,1.5,1.1c.8,.8,1.2,1.4,1.4,2.2c.1,.3,.1,.5,.2,.5c.1,0,.7,-.8,5.2,-7.6c2.4,-3.7,4.5,-6.7,4.6,-6.8c.2,-.3,.4,-.1,.2,.2c0,.1,-1.5,2.4,-3.2,5c-1.8,2.7,-3.8,5.7,-4.5,6.8c-1.5,2.4,-2.1,3.3,-2.3,3.8c-.2,.3,-.3,.4,-.9,.7c-.8,.4,-8.7,3.9,-8.9,4c-.1,0,-.3,-.1,-.4,-.2Zm3.7,-2c2.2,-.9,4,-1.7,4.6,-2q.7,-.4,.7,-1.4c-.2,-1.7,-1.4,-3.1,-3.6,-3.8c-1.2,-.4,-4.3,-.8,-4.4,-.6c0,0,-.1,1.5,-.2,3.1c-.1,1.7,-.2,3.3,-.2,3.6c-.1,1.2,.1,1.5,-.2,2.6c.1,.1,1.8,-.8,1.8,-.8c.1,0,.7,-.3,1.5,-.7Z" class="g3_66"/>
<path d="M135.3,204.2l11.2,-16m-8.2,17.2L149,189.6" class="g4_66"/>
<path d="M140.4,207.1l10,-14.5l.2,-.3" class="g5_66"/>
<path d="M134.1,203.8c-.4,0,-.8,-.1,-.9,-.1c0,0,2.5,-3.7,6.7,-9.6c1.9,-2.7,3.6,-5.2,3.8,-5.5c.2,-.4,.4,-.7,.5,-.7c.1,0,.7,.5,.9,.7c.1,.4,.1,.6,-.1,1.1c-.2,.5,-9.8,14.3,-9.9,14.3c-.1,0,-.5,-.1,-1,-.2Z" class="g6_66"/>
<path d="M137.6,204.6c-.2,-.1,-.8,-.3,-1.2,-.4l-.7,-.1l.3,-.4c.1,-.2,2.3,-3.3,4.8,-7l4.7,-6.7l.5,-.2c.9,-.5,1.6,-.5,2.1,0l.3,.3l-5,7.4c-3.1,4.4,-5.1,7.3,-5.1,7.3c-.1,0,-.4,-.1,-.7,-.2Z" class="g6_66"/>
<path d="M140,206c-.2,-.2,-.6,-.5,-.8,-.6c-.2,-.1,-.3,-.3,-.3,-.3c0,-.1,9.4,-14,9.8,-14.6c.1,-.1,.5,.3,.8,.7c.3,.4,.3,.6,.4,1c0,.4,0,.7,-.1,.8c-.2,.3,-9.1,13.1,-9.2,13.3c-.2,.2,-.2,.1,-.6,-.3Z" class="g6_66"/>
<path d="M141.6,208.7c0,-.1,-.1,-.3,-.1,-.6c-.1,-.2,-.3,-.6,-.4,-.8l-.3,-.4l4.7,-6.8c2.6,-3.7,4.8,-6.8,4.8,-6.8c.4,0,1,.7,1,1.1c0,.2,-.6,1.2,-1.9,3.1c-1.1,1.6,-3.1,4.6,-4.6,6.8c-3,4.4,-3.1,4.6,-3.2,4.4Z" class="g6_66"/>
<path d="M131.9,210.2c2.3,-.1,3.6,.7,4.1,2.3" class="g7_66"/>
<path d="M132,214.1c0,-.4,.1,-.4,.1,-1.3c0,-.8,0,-1,0,-1.4c0,-.2,0,-.6,0,-.7l.1,-.2c.1,0,.6,0,.7,0c.4,0,.8,.1,1.1,.2c.2,.1,.4,.2,.6,.3c.2,.1,.3,.2,.4,.4c.3,.2,.4,.4,.6,.7c0,.2,.1,.5,.1,.5c0,0,-1.5,.7,-1.8,.8c-.1,0,-.2,.1,-.3,.1c-1.1,.6,-1.4,.7,-1.6,.8Z" class="g2_66"/>
<path d="M136.2,212c-.6,-1.2,-1.8,-2,-3.4,-2.1l-.6,-.1v-.4c.1,-.3,.1,-1.3,.2,-2.2c0,-1,.1,-1.8,.1,-2l.1,-.2h.7c.8,.1,2.3,.3,3.1,.5c1.7,.5,3.1,1.4,3.6,2.5c.4,.8,.6,2.1,.3,2.4c-.1,.2,-.8,.5,-2.5,1.3c-1.6,.7,-1.5,.7,-1.6,.3Z" class="g8_66"/>
<path d="M136.2,212c-.6,-1.2,-1.8,-2,-3.4,-2.1l-.6,-.1v-.4c.1,-.3,.1,-1.3,.2,-2.2c0,-1,.1,-1.8,.1,-2l.1,-.2h.7c.8,.1,2.3,.3,3.1,.5c1.7,.5,3.1,1.4,3.6,2.5c.4,.8,.6,2.1,.3,2.4c-.1,.2,-.8,.5,-2.5,1.3c-1.6,.7,-1.5,.7,-1.6,.3Z" class="g9_66"/>
</g>
<path d="M152.7,212.2H829" class="ga_66"/>
<path d="M137.6,219.7V351" class="gb_66"/>
<path d="M184.9,443.7V390.3m0,693.9V443.7" class="ga_66"/>
<path d="M276.9,507.5V449.1H432.8v58.4Z" class="gc_66"/>
<path d="M315.8,575.8h78m0,0c0,0,-57.8,0,-65,0c-7.2,0,8.5,0,13,0c2.3,0,7.4,0,11.8,0" class="gd_66"/>
<path d="M358.4,575.8c-2.3,-.8,-4.3,-1.7,-6.4,-2.5c.7,.8,1.4,1.7,2.1,2.5c-.7,.8,-1.4,1.6,-2.1,2.4c2.1,-.8,4.1,-1.6,6.4,-2.4Z" class="ge_66"/>
<path d="M315.8,653.7V575.8m0,0c0,0,0,57.7,0,64.9c0,7.2,0,-8.5,0,-13c0,-2.3,0,-7.3,0,-11.7" class="gf_66"/>
<path d="M315.8,611.1c-.8,2.3,-1.6,4.4,-2.4,6.5c.8,-.7,1.6,-1.5,2.4,-2.2c.8,.7,1.7,1.5,2.5,2.2c-.8,-2.1,-1.7,-4.2,-2.5,-6.5Z" class="gg_66"/>
<path d="M393.8,653.7h-78m0,0c0,0,57.8,0,65,0c7.2,0,-8.5,0,-13,0c-2.3,0,-7.3,0,-11.7,0" class="gd_66"/>
<path d="M351.2,653.7c2.3,.8,4.4,1.6,6.5,2.4c-.7,-.8,-1.5,-1.6,-2.2,-2.4c.7,-.8,1.5,-1.6,2.2,-2.4c-2.1,.8,-4.2,1.6,-6.5,2.4Z" class="ge_66"/>
<path d="M393.8,575.8v77.9m0,0c0,0,0,-57.7,0,-65c0,-7.2,0,8.5,0,13c0,2.3,0,7.4,0,11.8" class="gf_66"/>
<path d="M393.8,618.3c.8,-2.3,1.6,-4.3,2.4,-6.4c-.8,.7,-1.6,1.4,-2.4,2.1c-.8,-.7,-1.6,-1.4,-2.4,-2.1c.8,2.1,1.6,4.1,2.4,6.4Z" class="gg_66"/>
<path d="M354.8,565.3l30.8,-30.7h-13V518.2H337.1v16.4h-13Z" class="gh_66"/>
<path d="M354.8,715.4l30.8,-30.8h-13V668.3H337.1v16.3h-13Z" class="gi_66"/>
<path d="M276.9,721.9v58.5H432.8V721.9Z" class="gc_66"/>
<path d="M315.8,848.6h78m0,0c0,0,-57.8,0,-65,0c-7.2,0,8.5,0,13,0c2.3,0,7.4,0,11.8,0" class="gd_66"/>
<path d="M358.4,848.6c-2.3,-.8,-4.3,-1.6,-6.4,-2.4c.7,.8,1.4,1.6,2.1,2.4c-.7,.8,-1.4,1.6,-2.1,2.4c2.1,-.8,4.1,-1.6,6.4,-2.4Z" class="ge_66"/>
<path d="M315.8,926.5V848.6m0,0c0,0,0,57.7,0,65c0,7.2,0,-8.5,0,-13c0,-2.3,0,-7.4,0,-11.8" class="gf_66"/>
<path d="M315.8,884c-.8,2.3,-1.6,4.3,-2.4,6.4c.8,-.7,1.6,-1.4,2.4,-2.1c.8,.7,1.7,1.4,2.5,2.1c-.8,-2.1,-1.7,-4.1,-2.5,-6.4Z" class="gg_66"/>
<path d="M393.8,926.5h-78m0,0c0,0,57.8,0,65,0c7.2,0,-8.5,0,-13,0c-2.3,0,-7.3,0,-11.7,0" class="gd_66"/>
<path d="M351.2,926.5c2.3,.8,4.4,1.7,6.5,2.5c-.7,-.8,-1.5,-1.7,-2.2,-2.5c.7,-.8,1.5,-1.6,2.2,-2.4c-2.1,.8,-4.2,1.6,-6.5,2.4Z" class="ge_66"/>
<path d="M393.8,848.6v77.9m0,0c0,0,0,-57.7,0,-64.9c0,-7.2,0,8.5,0,13c0,2.3,0,7.3,0,11.7" class="gf_66"/>
<path d="M393.8,891.2c.8,-2.3,1.6,-4.4,2.4,-6.5c-.8,.7,-1.6,1.5,-2.4,2.2c-.8,-.7,-1.6,-1.5,-2.4,-2.2c.8,2.1,1.6,4.2,2.4,6.5Z" class="gg_66"/>
<path d="M354.8,838.1l30.8,-30.7h-13V791H337.1v16.4h-13Z" class="gi_66"/>
<path d="M354.8,988.2l30.7,-30.7h-13V941.1H337.1v16.4h-13Z" class="gj_66"/>
<path d="M276.9,994.8v58.4H432.8V994.8Z" class="gc_66"/>
<path d="M549.7,507.5V449.1H705.6v58.4Z" class="gc_66"/>
<path d="M588.7,575.8h77.9m0,0c0,0,-57.7,0,-64.9,0c-7.2,0,8.5,0,13,0c2.3,0,7.3,0,11.7,0" class="gd_66"/>
<path d="M631.2,575.8c-2.3,-.8,-4.3,-1.7,-6.4,-2.5c.7,.8,1.4,1.7,2.2,2.5c-.8,.8,-1.5,1.6,-2.2,2.4c2.1,-.8,4.1,-1.6,6.4,-2.4Z" class="ge_66"/>
<path d="M588.7,926.5V575.8m0,214.3c0,0,0,-9.4,0,-13c0,-3.6,0,-8.5,0,-13c0,-2.3,0,-7.3,0,-11.7" class="gf_66"/>
<path d="M588.7,747.6c-.8,2.3,-1.6,4.3,-2.4,6.4c.8,-.7,1.6,-1.4,2.4,-2.1c.8,.7,1.6,1.4,2.4,2.1c-.8,-2.1,-1.6,-4.1,-2.4,-6.4Z" class="gg_66"/>
<path d="M666.6,575.8V926.5m0,-214.3c0,0,0,9.4,0,13c0,3.6,0,8.5,0,13c0,2.3,0,7.3,0,11.7" class="gf_66"/>
<path d="M666.6,754.7c.8,-2.3,1.6,-4.3,2.4,-6.4c-.8,.7,-1.6,1.4,-2.4,2.1c-.8,-.7,-1.6,-1.4,-2.4,-2.1c.8,2.1,1.6,4.1,2.4,6.4Z" class="gg_66"/>
<path d="M627.7,565.3l30.7,-30.7h-13V518.2H609.9v16.4h-13Z" class="gh_66"/>
<path d="M666.6,926.5H588.7m0,0c0,0,57.7,0,64.9,0c7.3,0,-8.4,0,-12.9,0c-2.4,0,-7.4,0,-11.8,0" class="gd_66"/>
<path d="M624.1,926.5c2.3,.8,4.3,1.7,6.4,2.5c-.7,-.8,-1.4,-1.7,-2.1,-2.5c.7,-.8,1.4,-1.6,2.1,-2.4c-2.1,.8,-4.1,1.6,-6.4,2.4Z" class="ge_66"/>
<path d="M627.7,988.2l30.7,-30.7h-13V941.1H609.9v16.4h-13Z" class="gj_66"/>
<path d="M549.7,994.8v58.4H705.6V994.8Z" class="gc_66"/>
<path d="M184.9,1113.4v-29.2m0,58.4v-29.2" class="ga_66"/>
</svg>