<?xml version="1.0" encoding="UTF-8" standalone="no"?>
<!DOCTYPE svg PUBLIC "-//W3C//DTD SVG 1.1//EN"
"http://www.w3.org/Graphics/SVG/1.1/DTD/svg11.dtd">
<svg viewBox="0 0 909 1286" version="1.1" xmlns="http://www.w3.org/2000/svg" xmlns:xlink="http://www.w3.org/1999/xlink">
<defs>
<style type="text/css"><![CDATA[
.g0_36{
fill: #FDE8E9;
}
.g1_36{
fill: none;
stroke: #000000;
stroke-width: 0.73;
stroke-linecap: butt;
stroke-linejoin: miter;
}
.g2_36{
fill: none;
stroke: #F81693;
stroke-width: 0.73;
stroke-linecap: butt;
stroke-linejoin: miter;
}
.g3_36{
fill: none;
stroke: #02B5EE;
stroke-width: 0.73;
stroke-linecap: butt;
stroke-linejoin: miter;
}
.g4_36{
fill: #FFFFFF;
}
.g5_36{
fill: none;
stroke: #02B5EE;
stroke-width: 1.461;
stroke-linecap: butt;
stroke-linejoin: miter;
}
.g6_36{
fill: none;
stroke: #F81693;
stroke-width: 1.461;
stroke-linecap: butt;
stroke-linejoin: miter;
}
]]></style>
</defs>
<path d="M176.6,241.8h92V210.6h-92v31.2Z" class="g0_36"/>
<path d="M116.9,287.8H679.2M298.1,317.4V288.2m-97.7,74.5V344.4m4.8,18.3V344.4m4.9,36.4l22.1,13.1M190.7,380.8l-22.1,13.1m129.5,23.6V317.4" class="g1_36"/>
<path d="M421.8,362.7V344.4m4.8,18.3V344.4m4.9,36.4l22.1,13.1" class="g2_36"/>
<path d="M412.2,380.8l-22.1,13.1" class="g3_36"/>
<path d="M298.1,446.7V417.5m0,58.5V446.7m0,58.5V476m0,58.4V505.2m0,58.4V534.4m0,58.5V563.6m0,58.5V592.9m0,105.7V622.1" class="g1_36"/>
<path d="M375.7,690.8V629.9c0,-2.9,2.4,-5.2,5.2,-5.2H608.6c2.8,0,5.2,2.3,5.2,5.2v60.9c0,2.9,-2.4,5.2,-5.2,5.2H380.9c-2.8,0,-5.2,-2.3,-5.2,-5.2Z" class="g4_36"/>
<path d="M456.3,719.3h76.9V705.1H456.3v14.2Z" class="g0_36"/>
<path d="M401.7,680.4H587.8V640.3H401.7v40.1Z" class="g0_36"/>
<path d="M298.1,727.8V698.6M116.9,728.2H679.2M298.1,757.8V728.6m-69.4,84.7l24.9,14.8m-31.3,55.5l-25.2,-15m.4,0V832.1m31.2,-18.8l-31.2,18.6M166.3,813.3l31.2,18.6m-31.2,55.6l31.2,-18.7m-31.2,18.7L135,868.8m0,-.2V832.1m31.3,-18.8L135,831.9M167.4,821l23,13.7M141,863.9v-27m26.4,42.9l23,-13.7m36.1,-52.8V787.7m4.4,25.6V787.7m67.2,115.8V757.8" class="g1_36"/>
<path d="M450.1,813.3L475,828.1" class="g2_36"/>
<path d="M443.8,883.6L425.5,872.7" class="g3_36"/>
<path d="M418.9,861.3V841.2m31.2,-27.9l-24.8,14.8M387.7,813.3l24.8,14.8m-24.8,59.4l24.8,-14.8m-24.8,14.8L356.4,868.8m0,-.2V832.1m31.3,-18.8l-31.3,18.6M388.8,821L407,831.9m-44.5,32v-27m26.3,42.9l18.2,-11m41,-55.5V787.7m4.3,25.6V787.7" class="g2_36"/>
<path d="M298.1,932.8V903.5m0,58.5V932.8" class="g1_36"/>
<path d="M326.3,960.5c1.4,0,2.1,-2.7,3.5,-2.7c1,0,1.8,1.3,2.7,2.7c.9,1.4,1.8,2.8,2.8,2.8c.9,0,1.8,-1.4,2.7,-2.8c.9,-1.4,1.7,-2.7,2.7,-2.7c1.4,0,2.1,2.7,3.5,2.7H348" class="g5_36"/>
<path d="M423.7,960.5c1.4,0,2.1,-2.7,3.5,-2.7c1,0,1.8,1.3,2.7,2.7c.9,1.4,1.8,2.8,2.7,2.8c1,0,1.9,-1.4,2.8,-2.8c.9,-1.4,1.7,-2.7,2.7,-2.7c1,0,1.9,1.3,2.8,2.7c.9,1.4,1.7,2.8,2.7,2.8c1,0,1.9,-1.4,2.7,-2.8c.9,-1.4,1.8,-2.7,2.8,-2.7c1,0,1.8,1.3,2.7,2.7c.9,1.4,1.8,2.8,2.8,2.8c1,0,1.8,-1.4,2.7,-2.8c.9,-1.4,1.8,-2.7,2.7,-2.7c1,0,1.9,1.3,2.8,2.7c.9,1.4,1.7,2.8,2.7,2.8c1,0,1.9,-1.4,2.8,-2.8c.9,-1.4,1.7,-2.7,2.7,-2.7c1,0,1.8,1.3,2.7,2.7c.9,1.4,1.8,2.8,2.8,2.8c1,0,1.8,-1.4,2.7,-2.8c.9,-1.4,1.8,-2.7,2.8,-2.7c1,0,1.8,1.3,2.7,2.7c.9,1.4,1.7,2.8,2.7,2.8c1,0,1.9,-1.4,2.8,-2.8c.9,-1.4,1.7,-2.7,2.7,-2.7c1,0,1.9,1.3,2.8,2.7c.9,1.4,1.7,2.8,2.7,2.8c1,0,1.8,-1.4,2.7,-2.8c.9,-1.4,1.8,-2.7,2.8,-2.7c1,0,1.8,1.3,2.7,2.7c.9,1.4,1.8,2.8,2.8,2.8c1,0,1.8,-1.4,2.7,-2.8c.9,-1.4,1.7,-2.7,2.7,-2.7c1,0,1.9,1.3,2.8,2.7c.9,1.4,1.7,2.8,2.7,2.8c1,0,1.9,-1.4,2.8,-2.8c.9,-1.4,1.7,-2.7,2.7,-2.7c1,0,1.8,1.3,2.7,2.7c.9,1.4,1.8,2.8,2.8,2.8c1,0,1.8,-1.4,2.7,-2.8c.9,-1.4,1.8,-2.7,2.8,-2.7c.9,0,1.8,1.3,2.7,2.7c.9,1.4,1.7,2.8,2.7,2.8c1,0,1.9,-1.4,2.8,-2.8c.9,-1.4,1.7,-2.7,2.7,-2.7c1,0,1.9,1.3,2.8,2.7c.8,1.4,1.7,2.8,2.7,2.8c1,0,1.8,-1.4,2.7,-2.8c.9,-1.4,1.8,-2.7,2.8,-2.7c1,0,1.8,1.3,2.7,2.7c.9,1.4,1.8,2.8,2.8,2.8c1.3,0,2,-2.8,3.4,-2.8h4.8" class="g6_36"/>
<path d="M298.1,991.2V962m0,105.7V991.2" class="g1_36"/>
<path d="M375.7,1059.9V999c0,-2.9,2.4,-5.2,5.2,-5.2H637.8c2.8,0,5.2,2.3,5.2,5.2v60.9c0,2.9,-2.4,5.2,-5.2,5.2H380.9c-2.8,0,-5.2,-2.3,-5.2,-5.2Z" class="g4_36"/>
<path d="M467.3,1088.4h84.1v-14.2H467.3v14.2Z" class="g0_36"/>
<path d="M401.7,1049.5H617v-40.1H401.7v40.1Z" class="g0_36"/>
<path d="M298.1,1097v-29.3m-181.2,29.6H679.2" class="g1_36"/>
</svg>