<?xml version="1.0" encoding="UTF-8" standalone="no"?>
<!DOCTYPE svg PUBLIC "-//W3C//DTD SVG 1.1//EN"
"http://www.w3.org/Graphics/SVG/1.1/DTD/svg11.dtd">
<svg viewBox="0 0 1286 909" version="1.1" xmlns="http://www.w3.org/2000/svg" xmlns:xlink="http://www.w3.org/1999/xlink">
<defs>
<style type="text/css"><![CDATA[
.g0_402{
fill: none;
stroke: #000000;
stroke-width: 0.73;
stroke-linecap: butt;
stroke-linejoin: miter;
}
.g1_402{
fill: none;
stroke: #5EE200;
stroke-width: 0.73;
stroke-linecap: butt;
stroke-linejoin: miter;
}
.g2_402{
fill: none;
stroke: #02B5EE;
stroke-width: 0.73;
stroke-linecap: butt;
stroke-linejoin: miter;
}
.g3_402{
fill: #B3E9FA;
}
.g4_402{
fill: none;
stroke: #02B5EE;
stroke-width: 1.262;
stroke-linecap: butt;
stroke-linejoin: miter;
}
.g5_402{
fill: none;
stroke: #5EE200;
stroke-width: 1.262;
stroke-linecap: butt;
stroke-linejoin: miter;
}
]]></style>
</defs>
<path d="M193,83.4h900.3M193,111.6h952.5m-952.5,0h952.5M629.4,141.2V112m0,102.3V141.2" class="g0_402"/>
<path d="M796,200.4h34.5" class="g1_402"/>
<path d="M1050.1,200.4h84.4" class="g2_402"/>
<path d="M629.4,243.5V214.3m0,58.4V243.5m0,114.3V272.7" class="g0_402"/>
<path d="M789.8,314.3V303c0,-2.8,2.3,-5.2,5.2,-5.2h70.5c2.9,0,5.2,2.4,5.2,5.2v11.3c0,2.9,-2.3,5.2,-5.2,5.2H795c-2.9,0,-5.2,-2.3,-5.2,-5.2Z" class="g3_402"/>
<path d="M787.2,333.8h86.1" class="g4_402"/>
<path d="M883.8,333.8h250.7" class="g5_402"/>
<path d="M629.4,387V357.8m0,58.4V387m0,114.2v-85" class="g0_402"/>
<path d="M864.1,457.8V439.3c0,-2.9,2.3,-5.2,5.1,-5.2H985.8c2.9,0,5.2,2.3,5.2,5.2v18.5c0,2.8,-2.3,5.2,-5.2,5.2H869.2c-2.8,0,-5.1,-2.4,-5.1,-5.2Z" class="g3_402"/>
<path d="M861.5,477.3H993.6" class="g4_402"/>
<path d="M1004.1,477.3h130.4" class="g5_402"/>
<path d="M629.4,530.5V501.2M193,530.8h952.5m-952.5,0h952.5" class="g0_402"/>
</svg>