<?xml version="1.0" encoding="UTF-8" standalone="no"?>
<!DOCTYPE svg PUBLIC "-//W3C//DTD SVG 1.1//EN"
"http://www.w3.org/Graphics/SVG/1.1/DTD/svg11.dtd">
<svg viewBox="0 0 909 1286" version="1.1" xmlns="http://www.w3.org/2000/svg" xmlns:xlink="http://www.w3.org/1999/xlink">
<defs>
<style type="text/css"><![CDATA[
.g0_2{
fill: none;
stroke: #000000;
stroke-width: 0.73;
stroke-linecap: butt;
stroke-linejoin: miter;
}
.g1_2{
fill: none;
stroke: #000000;
stroke-width: 9.132;
stroke-linecap: butt;
stroke-linejoin: miter;
}
.g2_2{
fill: none;
stroke: #02B5EE;
stroke-width: 1.461;
stroke-linecap: butt;
stroke-linejoin: miter;
}
.g3_2{
fill: none;
stroke: #999999;
stroke-width: 2.191;
stroke-linecap: butt;
stroke-linejoin: miter;
}
]]></style>
</defs>
<path d="M116.9,261.9H783.4M117.3,358.8V262.3M783,358.8V262.3M116.9,359.2H783.4" class="g0_2"/>
<path d="M126.1,364.1H792.5m-4.6,4.6v-98" class="g1_2"/>
<path d="M116.9,400.1H730.8M234.2,429.7V400.5m-52.4,35.6l24.8,14.8m0,36.7V451.1m-24.8,51.5l25.2,-15m-38,15l-25.2,-15m.4,0V451.1m24.8,-15l-24.8,14.8m90,60.6V429.7m65.2,6.4l24.9,14.8m0,36.7V451.1m-24.9,51.5l25.2,-15m-38,15l-25.2,-15m.4,0V451.1m24.8,-15l-24.8,14.8m-27.6,89.9V511.5m0,60.1V540.8" class="g0_2"/>
<path d="M245.5,573.3c1.4,0,2.1,-2.7,3.5,-2.7c.9,0,1.8,1.3,2.7,2.7c.9,1.4,1.7,2.7,2.7,2.7c1,0,1.9,-1.3,2.8,-2.7c.9,-1.4,1.7,-2.7,2.7,-2.7c1,0,1.9,1.3,2.8,2.7c.8,1.4,1.7,2.7,2.7,2.7c1,0,1.8,-1.3,2.7,-2.7c.9,-1.4,1.8,-2.7,2.8,-2.7c1,0,1.8,1.3,2.7,2.7c.9,1.4,1.8,2.7,2.7,2.7c1,0,1.9,-1.3,2.8,-2.7c.9,-1.4,1.7,-2.7,2.7,-2.7c1,0,1.9,1.3,2.8,2.7c.9,1.4,1.7,2.7,2.7,2.7c1,0,1.9,-1.3,2.7,-2.7c.9,-1.4,1.8,-2.7,2.8,-2.7c1,0,1.8,1.3,2.7,2.7c.9,1.4,1.8,2.7,2.8,2.7c1,0,1.8,-1.3,2.7,-2.7c.9,-1.4,1.8,-2.7,2.7,-2.7c1,0,1.9,1.3,2.8,2.7c.9,1.4,1.7,2.7,2.7,2.7c1,0,1.9,-1.3,2.8,-2.7c.9,-1.4,1.7,-2.7,2.7,-2.7c1.4,0,2.1,2.7,3.4,2.7h2.6" class="g2_2"/>
<path d="M499,565.7L483.9,551.4m0,14.3L499,551.4" class="g3_2"/>
<path d="M234.2,600.8V571.6m0,58.5V600.8M116.9,630.4H730.8M234.2,660V630.8m-52.4,35.6l18.2,11m6.6,40.5V690.5m-62.4,27.4h62.4m-62.4,0V681.4m24.8,-15l-24.8,14.8m90,60.6V660m65.2,6.4l18.3,11m6.6,40.5V690.5m-62.5,27.4h62.5m-62.5,0V681.4m24.8,-15l-24.8,14.8m-27.6,89.9V741.8m0,58.5V771.1m0,58.4V800.3m0,58.4V829.5m0,58.5V858.7m0,60.1V888" class="g0_2"/>
<path d="M245.5,920.5c1.4,0,2.1,-2.7,3.5,-2.7c.9,0,1.8,1.3,2.7,2.7c.9,1.4,1.7,2.7,2.7,2.7c1,0,1.9,-1.3,2.8,-2.7c.9,-1.4,1.7,-2.7,2.7,-2.7c1,0,1.9,1.3,2.8,2.7c.8,1.4,1.7,2.7,2.7,2.7c1,0,1.8,-1.3,2.7,-2.7c.9,-1.4,1.8,-2.7,2.8,-2.7c1,0,1.8,1.3,2.7,2.7c.9,1.4,1.8,2.7,2.7,2.7c1,0,1.9,-1.3,2.8,-2.7c.9,-1.4,1.7,-2.7,2.7,-2.7c1,0,1.9,1.3,2.8,2.7c.9,1.4,1.7,2.7,2.7,2.7c1,0,1.9,-1.3,2.7,-2.7c.9,-1.4,1.8,-2.7,2.8,-2.7c1,0,1.8,1.3,2.7,2.7c.9,1.4,1.8,2.7,2.8,2.7c1,0,1.8,-1.3,2.7,-2.7c.9,-1.4,1.8,-2.7,2.7,-2.7c1,0,1.9,1.3,2.8,2.7c.9,1.4,1.7,2.7,2.7,2.7c1,0,1.9,-1.3,2.8,-2.7c.9,-1.4,1.7,-2.7,2.7,-2.7c1.4,0,2.1,2.7,3.4,2.7h2.6m50.9,-6.8c-1.7,3.3,-5.5,5.5,-11,5.5h-3.5c-5.5,0,-9.3,2.2,-10.9,5.5c-1.7,-3.3,-5.5,-5.5,-11,-5.5h-3.5c-5.5,0,-9.3,-2.2,-11,-5.5m88.6,0c-1.4,3.3,-4.7,5.5,-9.4,5.5c-4.7,0,-8,2.2,-9.4,5.5c-1.5,-3.3,-4.8,-5.5,-9.5,-5.5c-4.7,0,-8,-2.2,-9.4,-5.5" class="g2_2"/>
<path d="M581.3,912.9L566.2,898.6m0,14.3l15.1,-14.3" class="g3_2"/>
<path d="M234.2,948V918.8m0,58.5V948M116.9,977.6H730.8" class="g0_2"/>
</svg>