<?xml version="1.0" encoding="UTF-8" standalone="no"?>
<!DOCTYPE svg PUBLIC "-//W3C//DTD SVG 1.1//EN"
"http://www.w3.org/Graphics/SVG/1.1/DTD/svg11.dtd">
<svg viewBox="0 0 1286 909" version="1.1" xmlns="http://www.w3.org/2000/svg" xmlns:xlink="http://www.w3.org/1999/xlink">
<defs>
<style type="text/css"><![CDATA[
.g0_323{
fill: none;
stroke: #000000;
stroke-width: 0.73;
stroke-linecap: butt;
stroke-linejoin: miter;
}
.g1_323{
fill: none;
stroke: #02B5EE;
stroke-width: 1.262;
stroke-linecap: butt;
stroke-linejoin: miter;
}
.g2_323{
fill: none;
stroke: #02B5EE;
stroke-width: 0.73;
stroke-linecap: butt;
stroke-linejoin: miter;
}
]]></style>
</defs>
<path d="M193,83.4h900.3M193,210.6H758.9m-565.9,0H758.9M381.7,240.2V211m0,58.5V240.2m0,114.3v-85" class="g0_323"/>
<path d="M546.3,330.5h72.3" class="g1_323"/>
<path d="M381.7,384.6V354.5m0,103.2V384.6" class="g0_323"/>
<path d="M680.4,443.8H748" class="g2_323"/>
<path d="M381.7,486.9V457.7m0,58.5V486.9m0,114.3v-85" class="g0_323"/>
<path d="M545,577.2h73.6" class="g1_323"/>
<path d="M381.7,630.4V601.2m0,102.3V630.4" class="g0_323"/>
<path d="M663.5,689.6H748" class="g2_323"/>
<path d="M381.7,732.7V703.5M193,733.1H758.9m-565.9,0H758.9" class="g0_323"/>
</svg>