<?xml version="1.0" encoding="UTF-8" standalone="no"?>
<!DOCTYPE svg PUBLIC "-//W3C//DTD SVG 1.1//EN"
"http://www.w3.org/Graphics/SVG/1.1/DTD/svg11.dtd">
<svg viewBox="0 0 909 1286" version="1.1" xmlns="http://www.w3.org/2000/svg" xmlns:xlink="http://www.w3.org/1999/xlink">
<defs>
<clipPath id="c0_62"><path d="M119.5,282.8V249.3H789.9v33.5Z"/></clipPath>
<clipPath id="c1_62"><path d="M119.5,553.8V520.3H789.9v33.5Z"/></clipPath>
<clipPath id="c2_62"><path d="M119.5,914.7V881.2H789.9v33.5Z"/></clipPath>
<style type="text/css"><![CDATA[
.g0_62{
fill: none;
stroke: #000000;
stroke-width: 0.73;
stroke-linecap: butt;
stroke-linejoin: miter;
}
.g1_62{
fill: #7F7F7F;
fill-opacity: 0.01;
}
.g2_62{
fill: #7F7F7F;
fill-opacity: 0.02;
}
.g3_62{
fill: #7F7F7F;
fill-opacity: 0.04;
}
.g4_62{
fill: #7F7F7F;
fill-opacity: 0.07;
}
.g5_62{
fill: #7F7F7F;
fill-opacity: 0.11;
}
.g6_62{
fill: #FFFFFF;
}
.g7_62{
fill: #7F7F7F;
}
.g8_62{
fill: #00AEEF;
}
.g9_62{
fill: #CBCEFB;
}
.ga_62{
fill: #EC008C;
}
]]></style>
</defs>
<path d="M116.9,159.9H792.5" class="g0_62"/>
<path d="M122.2,252c221.7,0,443.4,0,665,0V513.4c-221.6,-9.4,-443.3,-9.4,-665,0Z" class="g1_62"/>
<path d="M122.9,252.6c221.2,0,442.4,0,663.7,0V512.8c-221.3,-9.4,-442.5,-9.4,-663.7,0Z" class="g2_62"/>
<path d="M123.5,253.2c220.8,0,441.6,0,662.5,0V512.1c-220.9,-9.3,-441.7,-9.3,-662.5,0Z" class="g3_62"/>
<path d="M124.1,253.8c220.4,0,440.8,0,661.2,0V511.5c-220.4,-9.3,-440.8,-9.3,-661.2,0Z" class="g4_62"/>
<path d="M124.7,254.5c220,0,440,0,660,0V510.9c-220,-9.4,-440,-9.4,-660,0Z" class="g5_62"/>
<path d="M125.4,255.1c219.5,0,439.1,0,658.7,0V510.3c-219.6,-9.4,-439.2,-9.4,-658.7,0Z" class="g5_62"/>
<path d="M126,255.7c219.1,0,438.3,0,657.5,0V509.6c-219.2,-9.3,-438.4,-9.3,-657.5,0Z" class="g4_62"/>
<path d="M126.6,256.3c218.8,0,437.5,0,656.3,0V509c-218.8,-9.3,-437.5,-9.3,-656.3,0Z" class="g3_62"/>
<path d="M127.2,257c218.4,0,436.7,0,655,0V508.4c-218.3,-9.4,-436.6,-9.4,-655,0Z" class="g2_62"/>
<path d="M127.9,257.6c217.9,0,435.8,0,653.7,0V507.8c-217.9,-9.4,-435.8,-9.4,-653.7,0Z" class="g1_62"/>
<path d="M116.9,503.1V246.7H792.5V503.1Z" class="g6_62"/>
<path d="M119.5,500.5V285.4H789.9V500.5Z" class="g6_62"/>
<path d="M119.5,282.8V249.3H789.9v33.5Z" class="g7_62"/>
<g clip-path="url(#c0_62)">
<image x="119" y="248" width="672" height="35" xlink:href="shade/1.png"/>
</g>
<path d="M659.9,277.6h104V254.5h-104v23.1Z" class="g8_62"/>
<path d="M332.8,334.8H576.7M333.1,364.4V335.1" class="g0_62"/>
<path d="M333.5,364.4H460.9V335.1H333.5v29.3Z" class="g9_62"/>
<path d="M461.2,364.4V335.1" class="g0_62"/>
<path d="M461.6,364.4H576V335.1H461.6v29.3Z" class="g9_62"/>
<path d="M576.3,364.4V335.1M332.8,364.7H576.7M333.1,394.3V365.1m128.1,29.2V365.1m115.1,29.2V365.1M332.8,394.7H576.7M333.1,424.3V395m128.1,29.3V395m115.1,29.3V395M332.8,424.6H576.7M333.1,454.2V425m128.1,29.2V425m115.1,29.2V425M332.8,454.6H576.7M333.1,484.2V455m128.1,29.2V455m115.1,29.2V455M332.8,484.5H576.7" class="g0_62"/>
<path d="M122.2,523c221.7,0,443.4,0,665,0V874.3c-221.6,-9.4,-443.3,-9.4,-665,0Z" class="g1_62"/>
<path d="M122.9,523.6c221.2,0,442.4,0,663.7,0V873.7c-221.3,-9.4,-442.5,-9.4,-663.7,0Z" class="g2_62"/>
<path d="M123.5,524.3c220.8,0,441.6,0,662.5,0V873.1c-220.9,-9.4,-441.7,-9.4,-662.5,0Z" class="g3_62"/>
<path d="M124.1,524.9c220.4,0,440.8,0,661.2,0V872.4c-220.4,-9.3,-440.8,-9.3,-661.2,0Z" class="g4_62"/>
<path d="M124.7,525.5c220,0,440,0,660,0V871.8c-220,-9.4,-440,-9.4,-660,0Z" class="g5_62"/>
<path d="M125.4,526.1c219.5,0,439.1,0,658.7,0V871.2c-219.6,-9.4,-439.2,-9.4,-658.7,0Z" class="g5_62"/>
<path d="M126,526.8c219.1,0,438.3,0,657.5,0V870.6c-219.2,-9.4,-438.4,-9.4,-657.5,0Z" class="g4_62"/>
<path d="M126.6,527.4c218.8,0,437.5,0,656.3,0V869.9c-218.8,-9.3,-437.5,-9.3,-656.3,0Z" class="g3_62"/>
<path d="M127.2,528c218.4,0,436.7,0,655,0V869.3c-218.3,-9.3,-436.6,-9.3,-655,0Z" class="g2_62"/>
<path d="M127.9,528.6c217.9,0,435.8,0,653.7,0V868.7c-217.9,-9.4,-435.8,-9.4,-653.7,0Z" class="g1_62"/>
<path d="M116.9,864V517.7H792.5V864Z" class="g6_62"/>
<path d="M119.5,861.4v-305H789.9v305Z" class="g6_62"/>
<path d="M119.5,553.8V520.3H789.9v33.5Z" class="g7_62"/>
<g clip-path="url(#c1_62)">
<image x="119" y="520" width="672" height="34" xlink:href="shade/2.png"/>
</g>
<path d="M659.9,548.6h104V525.5h-104v23.1Z" class="g8_62"/>
<path d="M283.5,605.8H626M283.9,635.4V606.2" class="g0_62"/>
<path d="M284.2,635.4H397.8V606.2H284.2v29.2Z" class="g9_62"/>
<path d="M398.2,635.4V606.2" class="g0_62"/>
<path d="M398.5,635.4H525.9V606.2H398.5v29.2Z" class="g9_62"/>
<path d="M526.3,635.4V606.2" class="g0_62"/>
<path d="M526.6,635.4h98.6V606.2H526.6v29.2Z" class="g9_62"/>
<path d="M625.6,635.4V606.2M283.5,635.8H626M283.9,665.4V636.1m114.3,29.3V636.1m128.1,29.3V636.1m99.3,29.3V636.1M283.5,665.7H626M283.9,695.3V666.1m114.3,29.2V666.1m128.1,29.2V666.1m99.3,29.2V666.1M283.5,695.7H626M283.9,725.3V696m114.3,29.3V696m128.1,29.3V696m99.3,29.3V696M283.5,725.6H626M283.9,755.2V726m114.3,29.2V726m128.1,29.2V726m99.3,29.2V726M283.5,755.6H626M283.9,785.2V756m114.3,29.2V756m128.1,29.2V756m99.3,29.2V756M283.5,785.5H626M283.9,815.1V785.9m114.3,29.2V785.9m128.1,29.2V785.9m99.3,29.2V785.9M283.5,815.5H626M283.9,845.1V815.9m114.3,29.2V815.9m128.1,29.2V815.9m99.3,29.2V815.9M283.5,845.5H626" class="g0_62"/>
<path d="M122.2,883.9c221.7,0,443.4,0,665,0v228c-221.6,-9.3,-443.3,-9.3,-665,0Z" class="g1_62"/>
<path d="M122.9,884.5c221.2,0,442.4,0,663.7,0v226.8c-221.3,-9.4,-442.5,-9.4,-663.7,0Z" class="g2_62"/>
<path d="M123.5,885.2c220.8,0,441.6,0,662.5,0v225.5c-220.9,-9.4,-441.7,-9.4,-662.5,0Z" class="g3_62"/>
<path d="M124.1,885.8c220.4,0,440.8,0,661.2,0V1110c-220.4,-9.3,-440.8,-9.3,-661.2,0Z" class="g4_62"/>
<path d="M124.7,886.4c220,0,440,0,660,0v223c-220,-9.3,-440,-9.3,-660,0Z" class="g5_62"/>
<path d="M125.4,887c219.5,0,439.1,0,658.7,0v221.8c-219.6,-9.4,-439.2,-9.4,-658.7,0Z" class="g5_62"/>
<path d="M126,887.7c219.1,0,438.3,0,657.5,0v220.5c-219.2,-9.4,-438.4,-9.4,-657.5,0Z" class="g4_62"/>
<path d="M126.6,888.3c218.8,0,437.5,0,656.3,0v219.3c-218.8,-9.4,-437.5,-9.4,-656.3,0Z" class="g3_62"/>
<path d="M127.2,888.9c218.4,0,436.7,0,655,0v218c-218.3,-9.3,-436.6,-9.3,-655,0Z" class="g2_62"/>
<path d="M127.9,889.5c217.9,0,435.8,0,653.7,0v216.8c-217.9,-9.3,-435.8,-9.3,-653.7,0Z" class="g1_62"/>
<path d="M116.9,1101.6v-223H792.5v223Z" class="g6_62"/>
<path d="M119.5,1099V917.3H789.9V1099Z" class="g6_62"/>
<path d="M119.5,914.7V881.2H789.9v33.5Z" class="g7_62"/>
<g clip-path="url(#c2_62)">
<image x="119" y="880" width="672" height="35" xlink:href="shade/3.png"/>
</g>
<path d="M675.7,909.5h88.2V886.4H675.7v23.1Z" class="ga_62"/>
<path d="M372.6,933.3H536.8M373,962.9V933.7" class="g0_62"/>
<path d="M373.3,962.9H429V933.7H373.3v29.2Z" class="g9_62"/>
<path d="M429.4,962.9V933.7" class="g0_62"/>
<path d="M429.8,962.9H536.1V933.7H429.8v29.2Z" class="g9_62"/>
<path d="M536.5,962.9V933.7M372.6,963.3H536.8M373,992.8V963.6m56.4,29.2V963.6m107.1,29.2V963.6M372.6,993.2H536.8M373,1022.8V993.6m56.4,29.2V993.6m107.1,29.2V993.6m-163.9,29.6H536.8M373,1052.8v-29.3m56.4,29.3v-29.3m107.1,29.3v-29.3m-163.9,29.6H536.8M373,1082.7v-29.2m56.4,29.2v-29.2m107.1,29.2v-29.2m-163.9,29.6H536.8" class="g0_62"/>
</svg>