<?xml version="1.0" encoding="UTF-8" standalone="no"?>
<!DOCTYPE svg PUBLIC "-//W3C//DTD SVG 1.1//EN"
"http://www.w3.org/Graphics/SVG/1.1/DTD/svg11.dtd">
<svg viewBox="0 0 1286 909" version="1.1" xmlns="http://www.w3.org/2000/svg" xmlns:xlink="http://www.w3.org/1999/xlink">
<defs>
<style type="text/css"><![CDATA[
.g0_1244{
fill: none;
stroke: #000000;
stroke-width: 0.73;
stroke-linecap: butt;
stroke-linejoin: miter;
}
.g1_1244{
fill: none;
stroke: #000000;
stroke-width: 0.62;
stroke-linecap: butt;
stroke-linejoin: miter;
}
.g2_1244{
fill: #FDE8E9;
}
]]></style>
</defs>
<path d="M193,83.4h900.3" class="g0_1244"/>
<path d="M207.4,109.5H440.1M207.4,134.6V109.8m80.7,24.8V109.8m152,24.8V109.8M207.4,164V134.6M288.1,164V134.6" class="g1_1244"/>
<path d="M297.4,164h53.3V134.6H297.4V164Z" class="g2_1244"/>
<path d="M440.1,164V134.6M207.4,188.9V164m80.7,24.9V164m152,24.9V164M207.4,213.7V188.9m80.7,24.8V188.9m152,24.8V188.9M207.4,243.2V213.7m80.7,29.5V213.7" class="g1_1244"/>
<path d="M297.4,243.2H401V213.7H297.4v29.5Z" class="g2_1244"/>
<path d="M440.1,243.2V213.7M207.4,268V243.2M288.1,268V243.2m152,24.8V243.2M207.4,292.8V268m80.7,24.8V268m152,24.8V268M207.4,322.3V292.8m80.7,29.5V292.8" class="g1_1244"/>
<path d="M297.4,322.3h73.9V292.8H297.4v29.5Z" class="g2_1244"/>
<path d="M440.1,322.3V292.8M207.4,347.1V322.3m80.7,24.8V322.3m152,24.8V322.3M207.4,371.9V347.1m80.7,24.8V347.1m152,24.8V347.1M207.4,399.7V371.9m80.7,27.8V371.9" class="g1_1244"/>
<path d="M297.4,396.9h62.9v-25H297.4v25Z" class="g2_1244"/>
<path d="M440.1,399.7V371.9M207.4,424.5V399.7m80.7,24.8V399.7m152,24.8V399.7M207.4,449.4V424.5m80.7,24.9V424.5m152,24.9V424.5M207.4,478.8V449.4m80.7,29.4V449.4" class="g1_1244"/>
<path d="M297.4,478.8H430.8V449.4H297.4v29.4Z" class="g2_1244"/>
<path d="M440.1,478.8V449.4M207.4,503.6V478.8m80.7,24.8V478.8m152,24.8V478.8M207.4,528.5V503.6m80.7,24.9V503.6m152,24.9V503.6M207.4,556.2V528.5m80.7,27.7V528.5" class="g1_1244"/>
<path d="M297.4,553.4h34.9V528.5H297.4v24.9Z" class="g2_1244"/>
<path d="M440.1,556.2V528.5M207.4,581.1V556.2m80.7,24.9V556.2m152,24.9V556.2M207.4,605.9V581.1m80.7,24.8V581.1m152,24.8V581.1M207.4,633.6V605.9m80.7,27.7V605.9" class="g1_1244"/>
<path d="M297.4,630.9H344v-25H297.4v25Z" class="g2_1244"/>
<path d="M440.1,633.6V605.9M207.4,658.5V633.6m80.7,24.9V633.6m152,24.9V633.6M207.4,683.3V658.5m80.7,24.8V658.5m152,24.8V658.5M207.4,712.8V683.3m80.7,29.5V683.3" class="g1_1244"/>
<path d="M297.4,712.8h81.5V683.3H297.4v29.5Z" class="g2_1244"/>
<path d="M440.1,712.8V683.3M207.4,737.6V712.8m80.7,24.8V712.8m152,24.8V712.8M207.4,737.9H440.1M458.8,109.5H739.4M458.8,134.6V109.8m153,24.8V109.8m127.6,24.8V109.8M458.8,162.4V134.6m153,27.8V134.6" class="g1_1244"/>
<path d="M621.1,159.6h53.8v-25H621.1v25Z" class="g2_1244"/>
<path d="M739.4,162.4V134.6M458.8,187.2V162.4m153,24.8V162.4m127.6,24.8V162.4M458.8,212.1V187.2m153,24.9V187.2m127.6,24.9V187.2M458.8,241.5V212.1m153,29.4V212.1" class="g1_1244"/>
<path d="M621.1,241.5h70.7V212.1H621.1v29.4Z" class="g2_1244"/>
<path d="M739.4,241.5V212.1M458.8,266.3V241.5m153,24.8V241.5m127.6,24.8V241.5M458.8,291.2V266.3m153,24.9V266.3m127.6,24.9V266.3M458.8,320.6V291.2m153,29.4V291.2" class="g1_1244"/>
<path d="M621.1,320.6h81V291.2h-81v29.4Z" class="g2_1244"/>
<path d="M739.4,320.6V291.2M458.8,345.4V320.6m153,24.8V320.6m127.6,24.8V320.6M458.8,370.3V345.4m153,24.9V345.4m127.6,24.9V345.4M458.8,398V370.3m153,27.7V370.3" class="g1_1244"/>
<path d="M621.1,395.2h88.1V370.3H621.1v24.9Z" class="g2_1244"/>
<path d="M739.4,398V370.3M458.8,422.8V398m153,24.8V398m127.6,24.8V398M458.8,447.7V422.8m153,24.9V422.8m127.6,24.9V422.8M458.8,477.1V447.7m153,29.4V447.7" class="g1_1244"/>
<path d="M621.1,477.1h67.8V447.7H621.1v29.4Z" class="g2_1244"/>
<path d="M739.4,477.1V447.7M458.8,502V477.1m153,24.9V477.1M739.4,502V477.1M458.8,526.8V502m153,24.8V502m127.6,24.8V502M458.8,556.2V526.8m153,29.4V526.8" class="g1_1244"/>
<path d="M621.1,556.2h56.2V526.8H621.1v29.4Z" class="g2_1244"/>
<path d="M739.4,556.2V526.8M458.8,581.1V556.2m153,24.9V556.2m127.6,24.9V556.2M458.8,605.9V581.1m153,24.8V581.1m127.6,24.8V581.1M458.8,635.3V605.9m153,29.4V605.9" class="g1_1244"/>
<path d="M621.1,635.3h92.5V605.9H621.1v29.4Z" class="g2_1244"/>
<path d="M739.4,635.3V605.9M458.8,660.2V635.3m153,24.9V635.3m127.6,24.9V635.3M458.8,685V660.2m153,24.8V660.2M739.4,685V660.2M458.8,712.8V685m153,27.8V685" class="g1_1244"/>
<path d="M621.1,710h109V685h-109v25Z" class="g2_1244"/>
<path d="M739.4,712.8V685M458.8,737.6V712.8m153,24.8V712.8m127.6,24.8V712.8M458.8,737.9H739.4M758,113.5h328.4M758,138.6V113.8m215,24.8V113.8m113.4,24.8V113.8M758,168V138.6M973,168V138.6" class="g1_1244"/>
<path d="M982.3,168H1076V138.6H982.3V168Z" class="g2_1244"/>
<path d="M1086.4,168V138.6M758,192.9V168m215,24.9V168m113.4,24.9V168M758,217.7V192.9m215,24.8V192.9m113.4,24.8V192.9M758,247.1V217.7m215,29.4V217.7" class="g1_1244"/>
<path d="M982.3,247.1h60.6V217.7H982.3v29.4Z" class="g2_1244"/>
<path d="M1086.4,247.1V217.7M758,272V247.1M973,272V247.1M1086.4,272V247.1M758,296.8V272m215,24.8V272m113.4,24.8V272M758,322.5V296.8m215,25.7V296.8" class="g1_1244"/>
<path d="M982.3,319.7H1048V299.9H982.3v19.8Z" class="g2_1244"/>
<path d="M1086.4,322.5V296.8M758,347.3V322.5m215,24.8V322.5m113.4,24.8V322.5M758,372.2V347.3m215,24.9V347.3m113.4,24.9V347.3M758,397.8V372.2m215,25.6V372.2" class="g1_1244"/>
<path d="M982.3,395H1048V375.2H982.3V395Z" class="g2_1244"/>
<path d="M1086.4,397.8V372.2M758,422.6V397.8m215,24.8V397.8m113.4,24.8V397.8M758,447.5V422.6m215,24.9V422.6m113.4,24.9V422.6M758,473.1V447.5m215,25.6V447.5" class="g1_1244"/>
<path d="M982.3,470.3H1049V450.5H982.3v19.8Z" class="g2_1244"/>
<path d="M1086.4,473.1V447.5M758,498V473.1M973,498V473.1M1086.4,498V473.1M758,522.8V498m215,24.8V498m113.4,24.8V498M758,552.2V522.8m215,29.4V522.8" class="g1_1244"/>
<path d="M982.3,552.2h94.8V522.8H982.3v29.4Z" class="g2_1244"/>
<path d="M1086.4,552.2V522.8M758,577.1V552.2m215,24.9V552.2m113.4,24.9V552.2M758,601.9V577.1m215,24.8V577.1m113.4,24.8V577.1M758,629.7V601.9m215,27.8V601.9" class="g1_1244"/>
<path d="M982.3,626.9h93.3v-25H982.3v25Z" class="g2_1244"/>
<path d="M1086.4,629.7V601.9M758,654.5V629.7m215,24.8V629.7m113.4,24.8V629.7M758,679.3V654.5m215,24.8V654.5m113.4,24.8V654.5M758,708.8V679.3m215,29.5V679.3" class="g1_1244"/>
<path d="M982.3,708.8h79.2V679.3H982.3v29.5Z" class="g2_1244"/>
<path d="M1086.4,708.8V679.3M758,733.6V708.8m215,24.8V708.8m113.4,24.8V708.8M758,733.9h328.4" class="g1_1244"/>
</svg>