<?xml version="1.0" encoding="UTF-8" standalone="no"?>
<!DOCTYPE svg PUBLIC "-//W3C//DTD SVG 1.1//EN"
"http://www.w3.org/Graphics/SVG/1.1/DTD/svg11.dtd">
<svg viewBox="0 0 909 1286" version="1.1" xmlns="http://www.w3.org/2000/svg" xmlns:xlink="http://www.w3.org/1999/xlink">
<defs>
<style type="text/css"><![CDATA[
.g0_6{
fill: none;
stroke: #000000;
stroke-width: 0.73;
stroke-linecap: butt;
stroke-linejoin: miter;
}
.g1_6{
fill: #FFFFFF;
}
]]></style>
</defs>
<path d="M224.5,282.3H684.9m-197,29.6V282.7M382,358.3L413.2,377m0,36.7V377.1M382,432.5l31.2,-18.6M382,432.5L350.7,413.9m0,-.2V377.1M382,358.3L350.7,377M319.5,358.3L350.7,377m-31.2,55.5l31.2,-18.6m-31.2,18.6L288.3,413.9m0,-.2V377.1m31.2,-18.8L288.3,377m30.1,-11l-23,13.7m23,45.1l-23,-13.7M383.1,366l23,13.7m-23,45.1l23,-13.7m-61.4,-2.2v-27m6,-78.9L382,321.6m0,36.7V321.8m-31.3,55.3L382,358.5m-31.3,18.6L319.5,358.5m0,-.2V321.8M350.7,303l-31.2,18.6m32.3,-10.9l23.1,13.7m113,105.9V311.9" class="g0_6"/>
<path d="M501.8,389.7V352.5c0,-2.9,2.4,-5.2,5.2,-5.2H666.2c2.8,0,5.2,2.3,5.2,5.2v37.2c0,2.9,-2.4,5.2,-5.2,5.2H507c-2.8,0,-5.2,-2.3,-5.2,-5.2Z" class="g1_6"/>
<path d="M487.9,459.5V430.3M224.5,459.9H684.9m-197,29.6V460.2m-69.4,75.7l31.2,18.6m0,36.7V554.7M418.5,610l31.2,-18.6M418.5,610L387.3,591.4m0,-.2V554.7m31.2,-18.8l-31.2,18.6M356,535.9l31.3,18.6M356,610l31.3,-18.6M356,610L324.8,591.4m0,-.2V554.7M356,535.9l-31.2,18.6m92.6,-11l-23,13.7m49.3,29.3V559.4m-26.3,43l-23,-13.7m-39.5,13.7l-23,-13.7M356,646.6V610m-31.2,55.4L356,646.7m-31.2,18.7L293.6,646.7m0,-.1V610m31.2,-18.8l-31.2,18.6m32.3,47.9l23,-13.7m-49.3,-2.2v-27m-6,-78.9l31.2,18.6M293.6,610l31.2,-18.6M293.6,610L262.3,591.4m0,-.2V554.7m31.3,-18.8l-31.3,18.6m32.4,-11l23,13.7m-49.3,29.3V559.4M387.3,480.5l31.2,18.7m0,36.7V499.3m-31.2,55.4l31.2,-18.6m-31.2,18.6L356,536.1m0,-.2V499.3m31.3,-18.8L356,499.2m32.4,-11l23,13.7m-49.3,29.2v-27M487.9,662.6V489.5" class="g0_6"/>
<path d="M524.1,594.7V557.4c0,-2.8,2.3,-5.1,5.2,-5.1H643.9c2.9,0,5.2,2.3,5.2,5.1v37.3c0,2.8,-2.3,5.2,-5.2,5.2H529.3c-2.9,0,-5.2,-2.4,-5.2,-5.2Z" class="g1_6"/>
<path d="M487.9,691.9V662.6M224.5,692.2H684.9m-197,29.6V692.6M382,768.2l31.2,18.6m0,36.8V787M382,842.4l31.2,-18.7M382,842.4L350.7,823.7m0,-.1V787M382,768.2l-31.3,18.6M319.5,768.2l31.2,18.6m-31.2,55.6l31.2,-18.7m-31.2,18.7L288.3,823.7m0,-.1V787m31.2,-18.8l-31.2,18.6m6,32v-27m26.3,42.9l23,-13.7m39.5,13.7l23,-13.7M350.7,712.9L382,731.5m0,36.7V731.7M350.7,787L382,768.4M350.7,787L319.5,768.4m0,-.2V731.7m31.2,-18.8l-31.2,18.6m30.1,-11l-23,13.7m23,45.1l-23,-13.7m49.3,-2.1V736.4m37.3,-23.5l31.2,18.6m0,36.7V731.7M413.2,787l31.2,-18.6M413.2,787L382,768.4m31.2,-55.5L382,731.5m32.3,-11l23,13.7m-23,45.1l23,-13.7m50.6,74.6V721.8" class="g0_6"/>
<path d="M531.4,799.6v-33c0,-2.9,2.3,-5.2,5.2,-5.2h100c2.9,0,5.2,2.3,5.2,5.2v33c0,2.9,-2.3,5.2,-5.2,5.2h-100c-2.9,0,-5.2,-2.3,-5.2,-5.2Z" class="g1_6"/>
<path d="M487.9,869.4V840.2M224.5,869.8H684.9m-197,29.6V870.1M382,1000.5l31.2,18.7m0,36.7v-36.5M382,1074.7l31.2,-18.6M382,1074.7l-31.3,-18.6m0,-.2v-36.5M382,1000.5l-31.3,18.7m-31.2,-18.7l31.2,18.7m-31.2,55.5l31.2,-18.6m-31.2,18.6l-31.2,-18.6m0,-.2v-36.5m31.2,-18.9l-31.2,18.7m30.1,-11l-23,13.7m23,45.1l-23,-13.7m87.7,-45.1l23,13.7m-23,45.1l23,-13.7m-61.4,-2.2v-27m6,-78.9L382,963.8m0,36.7V964m-31.3,55.4L382,1000.7m-31.3,18.7l-31.2,-18.7m0,-.2V964m31.2,-18.8l-31.2,18.6m30.1,-10.9l-23,13.7M382,889.9l31.2,18.6m0,36.7V908.7M382,964l31.2,-18.6m-62.5,-.2V908.7M382,889.9l-31.3,18.6m32.4,-11l23,13.7m-23,45.1l23,-13.7M319.5,889.9l31.2,18.6m0,36.7V908.7M319.5,964L288.3,945.4m0,-.2V908.7m31.2,-18.8l-31.2,18.6m32.3,-11l23,13.7m-49.3,29.3V913.4m-6,31.8l31.2,18.6m-31.2,55.6l31.2,-18.7m-31.2,18.7L257,1000.7m0,-.2V964m31.3,-18.8L257,963.8m6.1,32v-27M413.2,945.2l31.2,18.6m0,36.7V964m-31.2,55.4l31.2,-18.7m-31.2,18.7L382,1000.7m31.2,-55.5L382,963.8m56.4,32v-27m49.5,103.7V899.4" class="g0_6"/>
<path d="M521,1000.9V971.5c0,-2.9,2.3,-5.2,5.2,-5.2H647c2.9,0,5.2,2.3,5.2,5.2v29.4c0,2.9,-2.3,5.2,-5.2,5.2H526.2c-2.9,0,-5.2,-2.3,-5.2,-5.2Z" class="g1_6"/>
<path d="M487.9,1101.7v-29.2m-263.4,29.6H684.9" class="g0_6"/>
</svg>