<?xml version="1.0" encoding="UTF-8" standalone="no"?>
<!DOCTYPE svg PUBLIC "-//W3C//DTD SVG 1.1//EN"
"http://www.w3.org/Graphics/SVG/1.1/DTD/svg11.dtd">
<svg viewBox="0 0 909 1286" version="1.1" xmlns="http://www.w3.org/2000/svg" xmlns:xlink="http://www.w3.org/1999/xlink">
<defs>
<style type="text/css"><![CDATA[
.g0_27{
fill: none;
stroke: #000000;
stroke-width: 1.461;
stroke-linecap: butt;
stroke-linejoin: miter;
}
.g1_27{
fill: none;
stroke: #000000;
stroke-width: 0.152;
stroke-linecap: butt;
stroke-linejoin: miter;
}
.g2_27{
fill: none;
stroke: #000000;
stroke-width: 0.73;
stroke-linecap: butt;
stroke-linejoin: miter;
}
.g3_27{
fill: none;
stroke: #7F7F7F;
stroke-width: 2.191;
stroke-linecap: butt;
stroke-linejoin: miter;
}
.g4_27{
fill: none;
stroke: #F81693;
stroke-width: 0.73;
stroke-linecap: butt;
stroke-linejoin: miter;
}
.g5_27{
fill: none;
stroke: #02B5EE;
stroke-width: 0.73;
stroke-linecap: butt;
stroke-linejoin: miter;
}
.g6_27{
fill: none;
stroke: #F81693;
stroke-width: 1.278;
stroke-linecap: butt;
stroke-linejoin: miter;
}
.g7_27{
fill: #F81693;
stroke: #F81693;
stroke-width: 1.155;
stroke-linecap: butt;
stroke-linejoin: round;
stroke-miterlimit: 1;
}
.g8_27{
fill: #7F7F7F;
stroke: #7F7F7F;
stroke-width: 1.155;
stroke-linecap: butt;
stroke-linejoin: round;
stroke-miterlimit: 1;
}
.g9_27{
fill: none;
stroke: #F81693;
stroke-width: 0.632;
stroke-linecap: butt;
stroke-linejoin: miter;
}
.ga_27{
fill: none;
stroke: #02B5EE;
stroke-width: 0.632;
stroke-linecap: butt;
stroke-linejoin: miter;
}
]]></style>
</defs>
<path d="M117.7,370.9V198.5m18.2,-18.2H704.4" class="g0_27"/>
<path d="M117.3,198.5h.7" class="g1_27"/>
<path d="M135.9,180.3h17.9" class="g2_27"/>
<path d="M792.9,198.5h.7" class="g1_27"/>
<path d="M756.3,180.3h17.9m-292.8,119L512.6,318m0,36.7V318.2m-31.2,55.3l31.2,-18.6m-31.2,18.6L450.2,354.9m0,-.2V318.2m31.2,-18.9L450.2,318M418.9,299.3L450.2,318m-31.3,55.5l31.3,-18.6m-31.3,18.6L387.7,354.9m0,-.2V318.2m31.2,-18.9L387.7,318m6,31.9v-27M420,365.8l23,-13.7m39.5,13.7l23,-13.7M450.2,244l31.2,18.6m0,36.7V262.8m-31.2,55.4l31.2,-18.7m-31.2,18.7L418.9,299.5m0,-.2V262.8M450.2,244l-31.3,18.6m30.2,-10.9L426,265.4m23.1,45.1L426,296.8m49.4,-2.2v-27M512.6,244l31.3,18.6m0,36.7V262.8m-31.3,55.4l31.3,-18.7m-31.3,18.7L481.4,299.5M512.6,244l-31.2,18.6m32.3,-10.9l23,13.7m-23,45.1l23,-13.7" class="g2_27"/>
<path d="M117.3,371.3h.7" class="g1_27"/>
<path d="M135.9,389.6h17.9" class="g2_27"/>
<path d="M792.9,371.3h.7" class="g1_27"/>
<path d="M756.3,389.6h17.9" class="g2_27"/>
<path d="M135.9,389.2H775m18.2,-18.3V198.5" class="g0_27"/>
<path d="M437.4,569.6L212.2,421m0,148.6L437.4,421" class="g3_27"/>
<path d="M353.7,482.5L385,501.2m0,36.7V501.3m-31.3,55.4L385,538m-31.3,18.7L322.5,538m0,-.1V501.3m31.2,-18.8l-31.2,18.7M291.3,482.5l31.2,18.7m-31.2,55.5L322.5,538m-31.2,18.7L260,538m0,-.1V501.3m31.3,-18.8L260,501.2m6.1,31.9v-27M292.4,549l23,-13.7M354.8,549l23,-13.7M322.5,427.2l31.2,18.6m0,36.7V446m-31.2,55.3l31.2,-18.6m-31.2,18.6L291.3,482.7m0,-.2V446m31.2,-18.8l-31.2,18.6m30.1,-11l-23,13.7m23,45.2L298.4,480m49.3,-2.2V450.7" class="g4_27"/>
<path d="M385,427.2l31.2,18.6m0,36.7V446M385,501.3l31.2,-18.6M385,501.3L353.7,482.7M385,427.2l-31.3,18.6m32.4,-11l23,13.7m-23,45.2l23,-13.7" class="g5_27"/>
<path d="M639.2,482.5l31.2,18.7m0,36.7V501.3m-31.2,55.4L670.4,538m-31.2,18.7L608,538m0,-.1V501.3m31.2,-18.8L608,501.2M576.7,482.5L608,501.2m-31.3,55.5L608,538m-31.3,18.7L545.5,538m0,-.1V501.3m31.2,-18.8l-31.2,18.7m6,31.9v-27M577.8,549l23,-13.7M640.3,549l23,-13.7" class="g4_27"/>
<path d="M608,427.2l31.2,18.6m0,36.7V446M608,501.3l31.2,-18.6M608,501.3L576.7,482.7m0,-.2V446M608,427.2l-31.3,18.6m30.2,-11l-23,13.7m23,45.2L583.9,480m49.3,-2.2V450.7" class="g5_27"/>
<path d="M670.4,427.2l31.3,18.6m0,36.7V446m-31.3,55.3l31.3,-18.6m-31.3,18.6L639.2,482.7m31.2,-55.5l-31.2,18.6m32.3,-11l23,13.7m-23,45.2l23,-13.7" class="g4_27"/>
<path d="M291.7,785.3l32.9,-54.7m0,0h64m32.9,54.7L388.6,730.6m32.9,54.7L388.6,840m-64,0h64M291.7,785.3L324.6,840M305.1,783.4l25,-41.6m2.8,87.6h47.3m8.3,-98.8l33,-54.6m0,0h63.9m32.9,54.6L485.4,676m32.9,54.6l-32.9,54.7m-63.9,0h63.9M429.8,686.5h47.3M402,732.6l24.9,41.5m91.4,-43.5h64m32.9,54.7L582.3,730.6m32.9,54.7L582.3,840m-64,0h64M485.4,785.3L518.3,840m83.5,-56.6l-25,-41.6m-50.2,87.6H574" class="g6_27"/>
<path d="M526.4,730.6c0,3.6,-2.2,6.7,-5.6,7.7c-3.3,1.1,-7,-.1,-9,-2.9c-2.1,-2.8,-2.1,-6.7,0,-9.5c2,-2.8,5.7,-4,9,-2.9c3.4,1,5.6,4.1,5.6,7.6Z" class="g7_27"/>
<path d="M590.3,730.6c0,3.6,-2.2,6.7,-5.5,7.7c-3.4,1.1,-7,-.1,-9.1,-2.9c-2,-2.8,-2,-6.7,0,-9.5c2.1,-2.8,5.7,-4,9.1,-2.9c3.3,1,5.5,4.1,5.5,7.6Z" class="g8_27"/>
<path d="M623.3,785.3c0,3.5,-2.3,6.6,-5.6,7.7c-3.3,1.1,-7,-.1,-9.1,-2.9c-2,-2.9,-2,-6.7,0,-9.5c2.1,-2.9,5.8,-4.1,9.1,-3c3.3,1.1,5.6,4.2,5.6,7.7Z" class="g8_27"/>
<path d="M423.2,959.5L405.5,927.7m18.4,-31.8l-18.3,31.7m54.7,-32.3l-36.4,.5m36.4,-.5L478,927m0,.2l-18.3,31.6m-36.5,.7l36.4,-.5m17.7,31.7L459.6,959m54.8,-32.5L478,927m36.4,-.5l17.7,31.7m0,.2L513.8,990m-36.5,.7l36.4,-.5m10.8,-30.7l-13.6,23.4m-1.3,-50.3l-26.8,.3M455.5,901.4l-26.8,.3" class="g9_27"/>
<path d="M422.6,1023L404.9,991.3m18.3,-31.8L405,991.1m54.7,-32.3l-36.4,.5m36.4,-.5l17.7,31.8m-.1,.1l-18.2,31.7m-36.5,.6l36.4,-.5m-31.6,-5.6l26.8,-.3M456.8,966l13.1,23.4M426.1,966.6L412.6,990" class="ga_27"/>
<path d="M368.5,991.8L350.8,960m18.3,-31.7l-18.2,31.6m54.7,-32.3l-36.4,.5m36.4,-.5l17.7,31.7m-54.8,32.5l36.4,-.5m-33.5,-6.7L358.3,961.2m42.5,-27.5L374,934" class="g9_27"/>
</svg>