<?xml version="1.0" encoding="UTF-8" standalone="no"?>
<!DOCTYPE svg PUBLIC "-//W3C//DTD SVG 1.1//EN"
"http://www.w3.org/Graphics/SVG/1.1/DTD/svg11.dtd">
<svg viewBox="0 0 1286 909" version="1.1" xmlns="http://www.w3.org/2000/svg" xmlns:xlink="http://www.w3.org/1999/xlink">
<defs>
<style type="text/css"><![CDATA[
.g0_1183{
fill: none;
stroke: #000000;
stroke-width: 0.73;
stroke-linecap: butt;
stroke-linejoin: miter;
}
.g1_1183{
fill: none;
stroke: #000000;
stroke-width: 0.657;
stroke-linecap: butt;
stroke-linejoin: miter;
}
.g2_1183{
fill: #FDE8E9;
}
]]></style>
</defs>
<path d="M193,83.4h900.3" class="g0_1183"/>
<path d="M208.3,109.5H466.1M208.3,136.1V109.8m129.2,26.3V109.8m128.6,26.3V109.8M208.3,165.5V136.1m129.2,29.4V136.1" class="g1_1183"/>
<path d="M347.3,162.5h72.6V136.1H347.3v26.4Z" class="g2_1183"/>
<path d="M466.1,165.5V136.1M208.3,191.8V165.5m129.2,26.3V165.5m128.6,26.3V165.5M208.3,218.1V191.8m129.2,26.3V191.8m128.6,26.3V191.8M208.3,249.3V218.1m129.2,31.2V218.1" class="g1_1183"/>
<path d="M347.3,249.3H456.2V218.1H347.3v31.2Z" class="g2_1183"/>
<path d="M466.1,249.3V218.1M208.3,275.6V249.3m129.2,26.3V249.3m128.6,26.3V249.3M208.3,301.9V275.6m129.2,26.3V275.6m128.6,26.3V275.6M208.3,331.2V301.9m129.2,29.3V301.9" class="g1_1183"/>
<path d="M347.3,328.3h94.1V301.9H347.3v26.4Z" class="g2_1183"/>
<path d="M466.1,331.2V301.9M208.3,357.5V331.2m129.2,26.3V331.2m128.6,26.3V331.2M208.3,383.8V357.5m129.2,26.3V357.5m128.6,26.3V357.5M208.3,413.2V383.8m129.2,29.4V383.8" class="g1_1183"/>
<path d="M347.3,410.3h56.2V383.8H347.3v26.5Z" class="g2_1183"/>
<path d="M466.1,413.2V383.8M208.3,439.5V413.2m129.2,26.3V413.2m128.6,26.3V413.2M208.3,465.8V439.5m129.2,26.3V439.5m128.6,26.3V439.5M208.3,495.2V465.8m129.2,29.4V465.8" class="g1_1183"/>
<path d="M347.3,492.2H412V465.8H347.3v26.4Z" class="g2_1183"/>
<path d="M466.1,495.2V465.8M208.3,521.5V495.2m129.2,26.3V495.2m128.6,26.3V495.2M208.3,547.8V521.5m129.2,26.3V521.5m128.6,26.3V521.5M208.3,577.2V547.8m129.2,29.4V547.8" class="g1_1183"/>
<path d="M347.3,574.2h66.6V547.8H347.3v26.4Z" class="g2_1183"/>
<path d="M466.1,577.2V547.8M208.3,603.5V577.2m129.2,26.3V577.2m128.6,26.3V577.2M208.3,629.8V603.5m129.2,26.3V603.5m128.6,26.3V603.5M208.3,659.2V629.8m129.2,29.4V629.8" class="g1_1183"/>
<path d="M347.3,656.2h47.4V629.8H347.3v26.4Z" class="g2_1183"/>
<path d="M466.1,659.2V629.8M208.3,685.5V659.2m129.2,26.3V659.2m128.6,26.3V659.2M208.3,711.8V685.5m129.2,26.3V685.5m128.6,26.3V685.5M208.3,742.9V711.8m129.2,31.1V711.8" class="g1_1183"/>
<path d="M347.3,742.9h85V711.8h-85v31.1Z" class="g2_1183"/>
<path d="M466.1,742.9V711.8M208.3,769.2V742.9m129.2,26.3V742.9m128.6,26.3V742.9M208.3,769.6H466.1m19.7,-659H764.7M485.8,137.2V110.9m151.1,26.3V110.9m127.8,26.3V110.9M485.8,168.4V137.2m151.1,31.2V137.2" class="g1_1183"/>
<path d="M646.7,168.4H754.8V137.2H646.7v31.2Z" class="g2_1183"/>
<path d="M764.7,168.4V137.2M485.8,194.7V168.4m151.1,26.3V168.4m127.8,26.3V168.4M485.8,221V194.7M636.9,221V194.7M764.7,221V194.7M485.8,250.4V221m151.1,29.4V221" class="g1_1183"/>
<path d="M646.7,247.4h60V221h-60v26.4Z" class="g2_1183"/>
<path d="M764.7,250.4V221M485.8,276.7V250.4m151.1,26.3V250.4m127.8,26.3V250.4M485.8,303V276.7M636.9,303V276.7M764.7,303V276.7M485.8,332.4V303m151.1,29.4V303" class="g1_1183"/>
<path d="M646.7,329.4h36.5V303H646.7v26.4Z" class="g2_1183"/>
<path d="M764.7,332.4V303M485.8,358.7V332.4m151.1,26.3V332.4m127.8,26.3V332.4M485.8,385V358.7M636.9,385V358.7M764.7,385V358.7M485.8,414.3V385m151.1,29.3V385" class="g1_1183"/>
<path d="M646.7,411.4h93V385h-93v26.4Z" class="g2_1183"/>
<path d="M764.7,414.3V385M485.8,440.6V414.3m151.1,26.3V414.3m127.8,26.3V414.3M485.8,466.9V440.6m151.1,26.3V440.6m127.8,26.3V440.6M485.8,496.3V466.9m151.1,29.4V466.9" class="g1_1183"/>
<path d="M646.7,493.4h78V466.9h-78v26.5Z" class="g2_1183"/>
<path d="M764.7,496.3V466.9M485.8,522.6V496.3m151.1,26.3V496.3m127.8,26.3V496.3M485.8,548.9V522.6m151.1,26.3V522.6m127.8,26.3V522.6M485.8,577.8V548.9m151.1,28.9V548.9" class="g1_1183"/>
<path d="M646.7,577.8h47.8V552.1H646.7v25.7Z" class="g2_1183"/>
<path d="M764.7,577.8V548.9M485.8,604.1V577.8m151.1,26.3V577.8m127.8,26.3V577.8M485.8,630.5V604.1m151.1,26.4V604.1m127.8,26.4V604.1M485.8,659.8V630.5m151.1,29.3V630.5" class="g1_1183"/>
<path d="M646.7,656.9h57.9V630.4H646.7v26.5Z" class="g2_1183"/>
<path d="M764.7,659.8V630.5M485.8,686.1V659.8m151.1,26.3V659.8m127.8,26.3V659.8M485.8,712.4V686.1m151.1,26.3V686.1m127.8,26.3V686.1M485.8,741.8V712.4m151.1,29.4V712.4" class="g1_1183"/>
<path d="M646.7,738.9h66.5V712.4H646.7v26.5Z" class="g2_1183"/>
<path d="M764.7,741.8V712.4M485.8,768.1V741.8m151.1,26.3V741.8m127.8,26.3V741.8M485.8,768.4H764.7M784.4,111.3h264.5M784.4,137.9V111.6m151.1,26.3V111.6m113.4,26.3V111.6M784.4,165.1V137.9m151.1,27.2V137.9" class="g1_1183"/>
<path d="M945.3,162.1h56.9v-21H945.3v21Z" class="g2_1183"/>
<path d="M1048.9,165.1V137.9M784.4,191.4V165.1m151.1,26.3V165.1m113.4,26.3V165.1M784.4,217.7V191.4m151.1,26.3V191.4m113.4,26.3V191.4M784.4,248.8V217.7m151.1,31.1V217.7" class="g1_1183"/>
<path d="M945.3,248.8h61.2V217.7H945.3v31.1Z" class="g2_1183"/>
<path d="M1048.9,248.8V217.7M784.4,275.1V248.8m151.1,26.3V248.8m113.4,26.3V248.8M784.4,301.4V275.1m151.1,26.3V275.1m113.4,26.3V275.1M784.4,332.6V301.4m151.1,31.2V301.4" class="g1_1183"/>
<path d="M945.3,332.6H1039V301.4H945.3v31.2Z" class="g2_1183"/>
<path d="M1048.9,332.6V301.4M784.4,358.9V332.6m151.1,26.3V332.6m113.4,26.3V332.6M784.4,385.2V358.9m151.1,26.3V358.9m113.4,26.3V358.9M784.4,414.6V385.2m151.1,29.4V385.2" class="g1_1183"/>
<path d="M945.3,411.6h93.5V385.2H945.3v26.4Z" class="g2_1183"/>
<path d="M1048.9,414.6V385.2M784.4,440.9V414.6m151.1,26.3V414.6m113.4,26.3V414.6M784.4,467.2V440.9m151.1,26.3V440.9m113.4,26.3V440.9M784.4,498.3V467.2m151.1,31.1V467.2" class="g1_1183"/>
<path d="M945.3,498.3H993V467.2H945.3v31.1Z" class="g2_1183"/>
<path d="M1048.9,498.3V467.2M784.4,524.6V498.3m151.1,26.3V498.3m113.4,26.3V498.3M784.4,550.9V524.6m151.1,26.3V524.6m113.4,26.3V524.6M784.4,579.8V550.9m151.1,28.9V550.9" class="g1_1183"/>
<path d="M945.3,579.8h66V554.1h-66v25.7Z" class="g2_1183"/>
<path d="M1048.9,579.8V550.9M784.4,606.2V579.8m151.1,26.4V579.8m113.4,26.4V579.8M784.4,632.5V606.2m151.1,26.3V606.2m113.4,26.3V606.2M784.4,661.4V632.5m151.1,28.9V632.5" class="g1_1183"/>
<path d="M945.3,661.4H1004V635.7H945.3v25.7Z" class="g2_1183"/>
<path d="M1048.9,661.4V632.5M784.4,687.7V661.4m151.1,26.3V661.4m113.4,26.3V661.4M784.4,714V687.7M935.5,714V687.7M1048.9,714V687.7M784.4,741.1V714m151.1,27.1V714" class="g1_1183"/>
<path d="M945.3,738.2h57.4v-21H945.3v21Z" class="g2_1183"/>
<path d="M1048.9,741.1V714M784.4,767.4V741.1m151.1,26.3V741.1m113.4,26.3V741.1M784.4,767.8h264.5" class="g1_1183"/>
</svg>