<?xml version="1.0" encoding="UTF-8" standalone="no"?>
<!DOCTYPE svg PUBLIC "-//W3C//DTD SVG 1.1//EN"
"http://www.w3.org/Graphics/SVG/1.1/DTD/svg11.dtd">
<svg viewBox="0 0 1286 909" version="1.1" xmlns="http://www.w3.org/2000/svg" xmlns:xlink="http://www.w3.org/1999/xlink">
<defs>
<style type="text/css"><![CDATA[
.g0_301{
fill: none;
stroke: #000000;
stroke-width: 0.73;
stroke-linecap: butt;
stroke-linejoin: miter;
}
]]></style>
</defs>
<path d="M193,83.4h900.3M193,210.6H782.5m-589.5,0H782.5M508.2,240.2V211m0,58.5V240.2m0,59.4V269.5m0,59.3V299.6m0,58.5V328.8m0,59.4V358.1m0,59.4V388.2m0,58.5V417.5m0,59.4V446.7m0,59.4V476.9m0,58.4V506.1m0,59.4V535.3m0,59.4V565.5m0,58.4V594.7m0,59.4V623.9m0,59.4V654.1m0,58.4V683.3m0,58.5V712.5M193,742.1H782.5m-589.5,0H782.5" class="g0_301"/>
</svg>