<?xml version="1.0" encoding="UTF-8" standalone="no"?>
<!DOCTYPE svg PUBLIC "-//W3C//DTD SVG 1.1//EN"
"http://www.w3.org/Graphics/SVG/1.1/DTD/svg11.dtd">
<svg viewBox="0 0 1286 909" version="1.1" xmlns="http://www.w3.org/2000/svg" xmlns:xlink="http://www.w3.org/1999/xlink">
<defs>
<style type="text/css"><![CDATA[
.g0_1157{
fill: none;
stroke: #000000;
stroke-width: 0.73;
stroke-linecap: butt;
stroke-linejoin: miter;
}
.g1_1157{
fill: #E6CEEE;
}
.g2_1157{
fill: none;
stroke: #02B5EE;
stroke-width: 1.461;
stroke-linecap: butt;
stroke-linejoin: miter;
}
.g3_1157{
fill: none;
stroke: #000000;
stroke-width: 0.733;
stroke-linecap: round;
stroke-linejoin: round;
}
]]></style>
</defs>
<path d="M193,83.4h900.3M193,111.6H843.2m-650.2,0H843.2M595.5,141.2V112m0,58.5V141.2m0,58.5V170.5m0,62.1V199.7" class="g0_1157"/>
<path d="M606.4,232.6H781.8V199.7H606.4v32.9Z" class="g1_1157"/>
<path d="M611.9,237c1.4,0,2.1,-2.7,3.4,-2.7c1,0,1.9,1.4,2.8,2.7c.8,1.4,1.7,2.8,2.7,2.8c1,0,1.9,-1.4,2.7,-2.8c.9,-1.3,1.8,-2.7,2.8,-2.7c1,0,1.9,1.4,2.7,2.7c.9,1.4,1.8,2.8,2.8,2.8c1,0,1.8,-1.4,2.7,-2.8c.9,-1.3,1.7,-2.7,2.7,-2.7c1,0,1.9,1.4,2.8,2.7c.9,1.4,1.7,2.8,2.7,2.8c1,0,1.9,-1.4,2.8,-2.8c.8,-1.3,1.7,-2.7,2.7,-2.7c1,0,1.9,1.4,2.7,2.7c.9,1.4,1.8,2.8,2.8,2.8c1,0,1.8,-1.4,2.7,-2.8c.9,-1.3,1.8,-2.7,2.8,-2.7c1,0,1.8,1.4,2.7,2.7c.9,1.4,1.7,2.8,2.7,2.8c1,0,1.9,-1.4,2.8,-2.8c.9,-1.3,1.7,-2.7,2.7,-2.7c1,0,1.9,1.4,2.8,2.7c.8,1.4,1.7,2.8,2.7,2.8c1,0,1.9,-1.4,2.7,-2.8c.9,-1.3,1.8,-2.7,2.8,-2.7c1,0,1.8,1.4,2.7,2.7c.9,1.4,1.8,2.8,2.8,2.8c1,0,1.8,-1.4,2.7,-2.8c.9,-1.3,1.7,-2.7,2.7,-2.7c1,0,1.9,1.4,2.8,2.7c.9,1.4,1.7,2.8,2.7,2.8c1,0,1.9,-1.4,2.8,-2.8c.8,-1.3,1.7,-2.7,2.7,-2.7c1,0,1.9,1.4,2.7,2.7c.9,1.4,1.8,2.8,2.8,2.8c1,0,1.8,-1.4,2.7,-2.8c.9,-1.3,1.8,-2.7,2.8,-2.7c1,0,1.8,1.4,2.7,2.7c.9,1.4,1.7,2.8,2.7,2.8c1,0,1.9,-1.4,2.8,-2.8c.8,-1.3,1.7,-2.7,2.7,-2.7c1,0,1.9,1.4,2.8,2.7c.8,1.4,1.7,2.8,2.7,2.8c1,0,1.9,-1.4,2.7,-2.8c.9,-1.3,1.8,-2.7,2.8,-2.7c1,0,1.8,1.4,2.7,2.7c.9,1.4,1.8,2.8,2.8,2.8c1,0,1.8,-1.4,2.7,-2.8c.9,-1.3,1.7,-2.7,2.7,-2.7c1,0,1.9,1.4,2.8,2.7c.8,1.4,1.7,2.8,2.7,2.8c1,0,1.9,-1.4,2.8,-2.8c.8,-1.3,1.7,-2.7,2.7,-2.7c1,0,1.9,1.4,2.7,2.7c.9,1.4,1.8,2.8,2.8,2.8c1,0,1.8,-1.4,2.7,-2.8c.9,-1.3,1.8,-2.7,2.8,-2.7c1.3,0,2,2.7,3.4,2.7h4.1" class="g2_1157"/>
<path d="M595.5,262.7V232.6m0,59.4V262.7m0,58.5V292m0,58.4V321.2m0,160.7V350.4" class="g0_1157"/>
<path d="M667.6,388.8h63V355.9h-63v32.9Z" class="g1_1157"/>
<path d="M636.7,476.4H769.9V443.6H636.7v32.8Z" class="g1_1157"/>
<path d="M642.1,479.9c1.4,0,2.1,-2.8,3.5,-2.8c1,0,1.8,1.4,2.7,2.8c.9,1.3,1.7,2.7,2.7,2.7c1,0,1.9,-1.4,2.8,-2.7c.9,-1.4,1.7,-2.8,2.7,-2.8c1,0,1.9,1.4,2.8,2.8c.8,1.3,1.7,2.7,2.7,2.7c1,0,1.9,-1.4,2.7,-2.7c.9,-1.4,1.8,-2.8,2.8,-2.8c1,0,1.9,1.4,2.7,2.8c.9,1.3,1.8,2.7,2.8,2.7c1,0,1.8,-1.4,2.7,-2.7c.9,-1.4,1.7,-2.8,2.7,-2.8c1,0,1.9,1.4,2.8,2.8c.9,1.3,1.7,2.7,2.7,2.7c1,0,1.9,-1.4,2.8,-2.7c.8,-1.4,1.7,-2.8,2.7,-2.8c1,0,1.9,1.4,2.7,2.8c.9,1.3,1.8,2.7,2.8,2.7c1,0,1.8,-1.4,2.7,-2.7c.9,-1.4,1.8,-2.8,2.8,-2.8c1,0,1.8,1.4,2.7,2.8c.9,1.3,1.7,2.7,2.7,2.7c1,0,1.9,-1.4,2.8,-2.7c.9,-1.4,1.7,-2.8,2.7,-2.8c1,0,1.9,1.4,2.8,2.8c.8,1.3,1.7,2.7,2.7,2.7c1,0,1.9,-1.4,2.7,-2.7c.9,-1.4,1.8,-2.8,2.8,-2.8c1,0,1.8,1.4,2.7,2.8c.9,1.3,1.8,2.7,2.8,2.7c1,0,1.8,-1.4,2.7,-2.7c.9,-1.4,1.7,-2.8,2.7,-2.8c1,0,1.9,1.4,2.8,2.8c.9,1.3,1.7,2.7,2.7,2.7c1,0,1.9,-1.4,2.8,-2.7c.8,-1.4,1.7,-2.8,2.7,-2.8c1,0,1.9,1.4,2.7,2.8c.9,1.3,1.8,2.7,2.8,2.7c1,0,1.8,-1.4,2.7,-2.7c.9,-1.4,1.8,-2.8,2.8,-2.8c1,0,1.8,1.4,2.7,2.8c.9,1.3,1.7,2.7,2.7,2.7c1.4,0,2.1,-2.7,3.5,-2.7h.3" class="g2_1157"/>
<path d="M724.3,438.1V394.2" class="g3_1157"/>
<path d="M595.5,512.1V481.9m0,60.3V512.1m0,59.4V542.2m0,58.5V571.5M193,601.1H843.2m-650.2,0H843.2" class="g0_1157"/>
</svg>