<?xml version="1.0" encoding="UTF-8" standalone="no"?>
<!DOCTYPE svg PUBLIC "-//W3C//DTD SVG 1.1//EN"
"http://www.w3.org/Graphics/SVG/1.1/DTD/svg11.dtd">
<svg viewBox="0 0 1286 909" version="1.1" xmlns="http://www.w3.org/2000/svg" xmlns:xlink="http://www.w3.org/1999/xlink">
<defs>
<style type="text/css"><![CDATA[
.g0_426{
fill: none;
stroke: #000000;
stroke-width: 0.73;
stroke-linecap: butt;
stroke-linejoin: miter;
}
.g1_426{
fill: #FFCCCC;
}
.g2_426{
fill: none;
stroke: #02B5EE;
stroke-width: 1.262;
stroke-linecap: butt;
stroke-linejoin: miter;
}
.g3_426{
fill: none;
stroke: #02B5EE;
stroke-width: 0.73;
stroke-linecap: butt;
stroke-linejoin: miter;
}
.g4_426{
fill: #B3E9FA;
}
.g5_426{
fill: none;
stroke: #5EE200;
stroke-width: 1.262;
stroke-linecap: butt;
stroke-linejoin: miter;
}
]]></style>
</defs>
<path d="M193,83.4h900.3M193,210.6H854.7m-661.7,0H854.7M520.3,240.2V211m0,58.5V240.2m0,114.3v-85" class="g0_426"/>
<path d="M541.8,318.8h59.5V285.9H541.8v32.9Z" class="g1_426"/>
<path d="M611.8,330.5h101" class="g2_426"/>
<path d="M520.3,383.7V354.5m0,102.3V383.7" class="g0_426"/>
<path d="M687.9,442.9h33.7" class="g3_426"/>
<path d="M727.7,433h116V400.1h-116V433Z" class="g1_426"/>
<path d="M520.3,486V456.8m0,58.4V486m0,114.2v-85" class="g0_426"/>
<path d="M630.1,556.8V545.5c0,-2.9,2.3,-5.2,5.2,-5.2h89.4c2.9,0,5.2,2.3,5.2,5.2v11.3c0,2.8,-2.3,5.2,-5.2,5.2H635.3c-2.9,0,-5.2,-2.4,-5.2,-5.2Z" class="g4_426"/>
<path d="M627.5,576.2h105" class="g2_426"/>
<path d="M743,576.2H843.7" class="g5_426"/>
<path d="M520.3,629.5V600.2m0,58.5V629.5m0,58.4V658.7M193,688.3H854.7m-661.7,0H854.7" class="g0_426"/>
</svg>