<?xml version="1.0" encoding="UTF-8" standalone="no"?>
<!DOCTYPE svg PUBLIC "-//W3C//DTD SVG 1.1//EN"
"http://www.w3.org/Graphics/SVG/1.1/DTD/svg11.dtd">
<svg viewBox="0 0 1286 909" version="1.1" xmlns="http://www.w3.org/2000/svg" xmlns:xlink="http://www.w3.org/1999/xlink">
<defs>
<style type="text/css"><![CDATA[
.g0_317{
fill: none;
stroke: #000000;
stroke-width: 0.73;
stroke-linecap: butt;
stroke-linejoin: miter;
}
.g1_317{
fill: #B3E9FA;
}
.g2_317{
fill: none;
stroke: #02B5EE;
stroke-width: 1.262;
stroke-linecap: butt;
stroke-linejoin: miter;
}
.g3_317{
fill: none;
stroke: #5EE200;
stroke-width: 1.262;
stroke-linecap: butt;
stroke-linejoin: miter;
}
]]></style>
</defs>
<path d="M193,83.4h900.3M193,210.6H1296.7M193,210.6H1296.7m-661,29.6V211m0,58.5V240.2m0,114.3v-85" class="g0_317"/>
<path d="M953.2,304.7V292.5c0,-2.9,2.4,-5.2,5.2,-5.2h100.5c2.8,0,5.2,2.3,5.2,5.2v12.2c0,2.9,-2.4,5.2,-5.2,5.2H958.4c-2.8,0,-5.2,-2.3,-5.2,-5.2Z" class="g1_317"/>
<path d="M950.6,330.5h116.1" class="g2_317"/>
<path d="M1077.2,330.5h208.5" class="g3_317"/>
<path d="M635.7,383.7V354.5m0,58.4V383.7m0,114.3V412.9" class="g0_317"/>
<path d="M1052.8,448.2V436c0,-2.9,2.3,-5.2,5.2,-5.2h55.1c2.9,0,5.2,2.3,5.2,5.2v12.2c0,2.8,-2.3,5.2,-5.2,5.2H1058c-2.9,0,-5.2,-2.4,-5.2,-5.2Z" class="g1_317"/>
<path d="M1050.2,474h70.7" class="g2_317"/>
<path d="M1131.4,474h154.3" class="g3_317"/>
<path d="M635.7,527.2V498m0,58.4V527.2m0,114.2v-85" class="g0_317"/>
<path d="M854.6,591.6V579.4c0,-2.8,2.3,-5.2,5.2,-5.2H963.7c2.9,0,5.2,2.4,5.2,5.2v12.2c0,2.9,-2.3,5.2,-5.2,5.2H859.8c-2.9,0,-5.2,-2.3,-5.2,-5.2Z" class="g1_317"/>
<path d="M852,617.4H971.5" class="g2_317"/>
<path d="M982,617.4h303.7" class="g3_317"/>
<path d="M635.7,670.6V641.4m0,58.5V670.6m0,58.5V699.9M193,729.5H1296.7M193,729.5H1296.7" class="g0_317"/>
</svg>