<?xml version="1.0" encoding="UTF-8" standalone="no"?>
<!DOCTYPE svg PUBLIC "-//W3C//DTD SVG 1.1//EN"
"http://www.w3.org/Graphics/SVG/1.1/DTD/svg11.dtd">
<svg viewBox="0 0 1286 909" version="1.1" xmlns="http://www.w3.org/2000/svg" xmlns:xlink="http://www.w3.org/1999/xlink">
<defs>
<style type="text/css"><![CDATA[
.g0_1187{
fill: none;
stroke: #000000;
stroke-width: 0.73;
stroke-linecap: butt;
stroke-linejoin: miter;
}
.g1_1187{
fill: none;
stroke: #000000;
stroke-width: 0.584;
stroke-linecap: butt;
stroke-linejoin: miter;
}
.g2_1187{
fill: #FDE8E9;
}
]]></style>
</defs>
<path d="M193,83.4h900.3" class="g0_1187"/>
<path d="M206.6,110.2H489.5M206.6,133.9V110.5m112.9,23.4V110.5m170,23.4V110.5M206.6,161.6V133.9m112.9,27.7V133.9" class="g1_1187"/>
<path d="M328.3,161.6h86.1V133.9H328.3v27.7Z" class="g2_1187"/>
<path d="M489.5,161.6V133.9M206.6,185V161.6M319.5,185V161.6m170,23.4V161.6M206.6,208.4V185m112.9,23.4V185m170,23.4V185M206.6,234.5V208.4m112.9,26.1V208.4" class="g1_1187"/>
<path d="M328.3,231.9H480.7V208.4H328.3v23.5Z" class="g2_1187"/>
<path d="M489.5,234.5V208.4M206.6,257.9V234.5m112.9,23.4V234.5m170,23.4V234.5M206.6,281.2V257.9m112.9,23.3V257.9m170,23.3V257.9M206.6,307.4V281.2m112.9,26.2V281.2" class="g1_1187"/>
<path d="M328.3,304.7h96.9V281.2H328.3v23.5Z" class="g2_1187"/>
<path d="M489.5,307.4V281.2M206.6,330.7V307.4m112.9,23.3V307.4m170,23.3V307.4M206.6,354.1V330.7m112.9,23.4V330.7m170,23.4V330.7M206.6,381.8V354.1m112.9,27.7V354.1" class="g1_1187"/>
<path d="M328.3,381.8H442.5V354.1H328.3v27.7Z" class="g2_1187"/>
<path d="M489.5,381.8V354.1M206.6,405.2V381.8m112.9,23.4V381.8m170,23.4V381.8M206.6,428.6V405.2m112.9,23.4V405.2m170,23.4V405.2M206.6,456.3V428.6m112.9,27.7V428.6" class="g1_1187"/>
<path d="M328.3,456.3H445.2V428.6H328.3v27.7Z" class="g2_1187"/>
<path d="M489.5,456.3V428.6m-282.9,51V456.3m112.9,23.3V456.3m170,23.3V456.3M206.6,479.9H489.5M507,109.5H768.9M507,133.1V109.7m132.4,23.4V109.7m129.5,23.4V109.7M507,160.8V133.1m132.4,27.7V133.1" class="g1_1187"/>
<path d="M648.1,160.8H760.2V133.1H648.1v27.7Z" class="g2_1187"/>
<path d="M768.9,160.8V133.1M507,184.2V160.8m132.4,23.4V160.8m129.5,23.4V160.8M507,207.6V184.2m132.4,23.4V184.2m129.5,23.4V184.2M507,235.3V207.6m132.4,27.7V207.6" class="g1_1187"/>
<path d="M648.1,235.3h79.1V207.6H648.1v27.7Z" class="g2_1187"/>
<path d="M768.9,235.3V207.6M507,258.7V235.3m132.4,23.4V235.3m129.5,23.4V235.3M507,282V258.7M639.4,282V258.7M768.9,282V258.7M507,309.7V282m132.4,27.7V282" class="g1_1187"/>
<path d="M648.1,309.7H754.2V282H648.1v27.7Z" class="g2_1187"/>
<path d="M768.9,309.7V282M507,333.1V309.7m132.4,23.4V309.7m129.5,23.4V309.7M507,356.5V333.1m132.4,23.4V333.1m129.5,23.4V333.1M507,382.6V356.5m132.4,26.1V356.5" class="g1_1187"/>
<path d="M648.1,380h95.3V356.5H648.1V380Z" class="g2_1187"/>
<path d="M768.9,382.6V356.5M507,406V382.6M639.4,406V382.6M768.9,406V382.6M507,429.4V406m132.4,23.4V406m129.5,23.4V406M507,457V429.4M639.4,457V429.4" class="g1_1187"/>
<path d="M648.1,457H749V429.4H648.1V457Z" class="g2_1187"/>
<path d="M768.9,457V429.4M507,480.4V457m132.4,23.4V457m129.5,23.4V457M507,480.7H768.9M786.5,111h278.3M786.5,134.7V111.3m112.9,23.4V111.3m165.4,23.4V111.3M786.5,160.8V134.7m112.9,26.1V134.7" class="g1_1187"/>
<path d="M908.1,158.2h83.8V134.7H908.1v23.5Z" class="g2_1187"/>
<path d="M1064.8,160.8V134.7M786.5,184.2V160.8m112.9,23.4V160.8m165.4,23.4V160.8M786.5,207.6V184.2m112.9,23.4V184.2m165.4,23.4V184.2M786.5,233.7V207.6m112.9,26.1V207.6" class="g1_1187"/>
<path d="M908.1,231.1h79.7V207.6H908.1v23.5Z" class="g2_1187"/>
<path d="M1064.8,233.7V207.6M786.5,257.1V233.7m112.9,23.4V233.7m165.4,23.4V233.7M786.5,280.5V257.1m112.9,23.4V257.1m165.4,23.4V257.1m-278.3,51V280.5m112.9,27.6V280.5" class="g1_1187"/>
<path d="M908.1,308.1H1056V280.5H908.1v27.6Z" class="g2_1187"/>
<path d="M1064.8,308.1V280.5m-278.3,51V308.1m112.9,23.4V308.1m165.4,23.4V308.1M786.5,354.9V331.5m112.9,23.4V331.5m165.4,23.4V331.5M786.5,382.6V354.9m112.9,27.7V354.9" class="g1_1187"/>
<path d="M908.1,382.6h137.6V354.9H908.1v27.7Z" class="g2_1187"/>
<path d="M1064.8,382.6V354.9M786.5,406V382.6M899.4,406V382.6M1064.8,406V382.6M786.5,429.4V406m112.9,23.4V406m165.4,23.4V406M786.5,455.5V429.4m112.9,26.1V429.4" class="g1_1187"/>
<path d="M908.1,452.8h84.1V429.4H908.1v23.4Z" class="g2_1187"/>
<path d="M1064.8,455.5V429.4M786.5,478.8V455.5m112.9,23.3V455.5m165.4,23.3V455.5M786.5,479.1h278.3" class="g1_1187"/>
</svg>