<?xml version="1.0" encoding="UTF-8" standalone="no"?>
<!DOCTYPE svg PUBLIC "-//W3C//DTD SVG 1.1//EN"
"http://www.w3.org/Graphics/SVG/1.1/DTD/svg11.dtd">
<svg viewBox="0 0 1286 909" version="1.1" xmlns="http://www.w3.org/2000/svg" xmlns:xlink="http://www.w3.org/1999/xlink">
<defs>
<style type="text/css"><![CDATA[
.g0_177{
fill: none;
stroke: #000000;
stroke-width: 0.73;
stroke-linecap: butt;
stroke-linejoin: miter;
}
.g1_177{
fill: none;
stroke: #F81693;
stroke-width: 0.73;
stroke-linecap: butt;
stroke-linejoin: miter;
}
.g2_177{
fill: #FFF7A4;
}
.g3_177{
fill: none;
stroke: #FFA313;
stroke-width: 0.73;
stroke-linecap: butt;
stroke-linejoin: miter;
}
.g4_177{
fill: none;
stroke: #02B5EE;
stroke-width: 0.73;
stroke-linecap: butt;
stroke-linejoin: miter;
}
.g5_177{
fill: none;
stroke: #F81693;
stroke-width: 1.262;
stroke-linecap: butt;
stroke-linejoin: miter;
}
.g6_177{
fill: none;
stroke: #02B5EE;
stroke-width: 1.262;
stroke-linecap: butt;
stroke-linejoin: miter;
}
.g7_177{
fill: none;
stroke: #FFA313;
stroke-width: 1.262;
stroke-linecap: butt;
stroke-linejoin: miter;
}
]]></style>
</defs>
<path d="M193,83.4h900.3M193,111.6H917.3m-724.3,0H917.3M480,141.2V112m0,103.4V141.2" class="g0_177"/>
<path d="M507.8,200.4H608.2" class="g1_177"/>
<path d="M692.7,190.6h61.6V157.7H692.7v32.9Z" class="g2_177"/>
<path d="M608.2,200.4H821.9" class="g3_177"/>
<path d="M821.9,200.4h84.4" class="g4_177"/>
<path d="M480,244.6V215.4m0,58.4V244.6m0,116.1V273.8" class="g0_177"/>
<path d="M596,334.8h20.6" class="g5_177"/>
<path d="M632.1,334.8h22.7" class="g6_177"/>
<path d="M771,323.1h59.7V290.2H771v32.9Z" class="g2_177"/>
<path d="M665.3,334.8H830.7" class="g7_177"/>
<path d="M841.2,334.8h65.1" class="g5_177"/>
<path d="M480,389.9V360.7M480,464V389.9" class="g0_177"/>
<path d="M491,449.1H591.3" class="g1_177"/>
<path d="M675.8,439.2h61.6V406.3H675.8v32.9Z" class="g2_177"/>
<path d="M591.3,449.1H821.9" class="g3_177"/>
<path d="M821.9,449.1h84.4" class="g4_177"/>
<path d="M480,493.2V464m0,58.5V493.2m0,114.3v-85" class="g0_177"/>
<path d="M565.2,583.5h34.6" class="g6_177"/>
<path d="M610.3,583.5h296" class="g7_177"/>
<path d="M480,636.7V607.5m0,102.3V636.7" class="g0_177"/>
<path d="M736.8,695.9H872.5" class="g3_177"/>
<path d="M872.5,695.9h33.8" class="g4_177"/>
<path d="M480,739V709.8M193,739.3H917.3m-724.3,0H917.3" class="g0_177"/>
</svg>