<?xml version="1.0" encoding="UTF-8" standalone="no"?>
<!DOCTYPE svg PUBLIC "-//W3C//DTD SVG 1.1//EN"
"http://www.w3.org/Graphics/SVG/1.1/DTD/svg11.dtd">
<svg viewBox="0 0 1286 909" version="1.1" xmlns="http://www.w3.org/2000/svg" xmlns:xlink="http://www.w3.org/1999/xlink">
<defs>
<style type="text/css"><![CDATA[
.g0_331{
fill: none;
stroke: #000000;
stroke-width: 0.73;
stroke-linecap: butt;
stroke-linejoin: miter;
}
.g1_331{
fill: none;
stroke: #02B5EE;
stroke-width: 1.262;
stroke-linecap: butt;
stroke-linejoin: miter;
}
.g2_331{
fill: none;
stroke: #5EE200;
stroke-width: 1.262;
stroke-linecap: butt;
stroke-linejoin: miter;
}
.g3_331{
fill: #B3E9FA;
}
]]></style>
</defs>
<path d="M193,83.4h900.3M193,111.6h942.3m-942.3,0h942.3M663.1,141.2V112m0,114.3V141.2" class="g0_331"/>
<path d="M912.3,202.3H1027" class="g1_331"/>
<path d="M1037.5,202.3h86.9" class="g2_331"/>
<path d="M663.1,255.5V226.3m0,58.4V255.5m0,114.2v-85" class="g0_331"/>
<path d="M791.3,320V307.8c0,-2.9,2.3,-5.2,5.2,-5.2h68.3c2.8,0,5.2,2.3,5.2,5.2V320c0,2.8,-2.4,5.2,-5.2,5.2H796.5c-2.9,0,-5.2,-2.4,-5.2,-5.2Z" class="g3_331"/>
<path d="M788.7,345.7h83.9" class="g1_331"/>
<path d="M883.1,345.7h241.3" class="g2_331"/>
<path d="M663.1,399V369.7m0,58.5V399m0,114.2v-85" class="g0_331"/>
<path d="M789.8,469.7V458.5c0,-2.9,2.3,-5.2,5.2,-5.2h73.6c2.9,0,5.2,2.3,5.2,5.2v11.2c0,2.9,-2.3,5.2,-5.2,5.2H795c-2.9,0,-5.2,-2.3,-5.2,-5.2Z" class="g3_331"/>
<path d="M787.2,489.2h89.2" class="g1_331"/>
<path d="M886.9,489.2h237.5" class="g2_331"/>
<path d="M663.1,542.4V513.2m0,58.5V542.4m0,114.3v-85" class="g0_331"/>
<path d="M746.1,606.9V594.7c0,-2.9,2.3,-5.2,5.2,-5.2h75.1c2.8,0,5.2,2.3,5.2,5.2v12.2c0,2.9,-2.4,5.2,-5.2,5.2H751.3c-2.9,0,-5.2,-2.3,-5.2,-5.2Z" class="g3_331"/>
<path d="M743.5,632.7h90.7" class="g1_331"/>
<path d="M844.7,632.7h279.7" class="g2_331"/>
<path d="M663.1,685.9V656.7m0,58.4V685.9m0,58.5V715.1M193,744.7h942.3m-942.3,0h942.3" class="g0_331"/>
</svg>