<?xml version="1.0" encoding="UTF-8" standalone="no"?>
<!DOCTYPE svg PUBLIC "-//W3C//DTD SVG 1.1//EN"
"http://www.w3.org/Graphics/SVG/1.1/DTD/svg11.dtd">
<svg viewBox="0 0 909 1286" version="1.1" xmlns="http://www.w3.org/2000/svg" xmlns:xlink="http://www.w3.org/1999/xlink">
<defs>
<style type="text/css"><![CDATA[
.g0_3{
fill: #FDE8E9;
}
.g1_3{
fill: none;
stroke: #000000;
stroke-width: 0.73;
stroke-linecap: butt;
stroke-linejoin: miter;
}
.g2_3{
fill: #FFFFFF;
}
]]></style>
</defs>
<path d="M165.8,239.4h63.1V213.2H165.8v26.2Z" class="g0_3"/>
<path d="M258.9,285.4H650.6M449.2,315V285.8m-69.4,39L411,343.5m0,36.7V343.7m0,36.5H356.3m-7.7,-7.3V343.7m31.2,-18.9l-31.2,18.7M317.3,324.8l31.3,18.7M317.3,399l24.9,-14.8M317.3,399L286.1,380.4m0,-.2V343.7m31.2,-18.9l-31.2,18.7m30.1,47.8l-23,-13.7m23,-45.1l-23,13.7m49.4,26.7V348.4m62.4,27v-27m44.2,48.4V315" class="g1_3"/>
<path d="M483.9,370.9V337.3c0,-2.9,2.4,-5.2,5.2,-5.2H611c2.9,0,5.2,2.3,5.2,5.2v33.6c0,2.8,-2.3,5.2,-5.2,5.2H489.1c-2.8,0,-5.2,-2.4,-5.2,-5.2Z" class="g2_3"/>
<path d="M449.2,426V396.8M258.9,426.4H650.6M449.2,456V426.8m-69.4,39.1L411,484.5m0,36.7V484.7M379.8,540L411,521.4M379.8,540L355,525.2m-6.4,-11.3V484.7m31.2,-18.8l-31.2,18.6M317.3,465.9l31.3,18.6M317.3,540l24.9,-14.8M317.3,540L286.1,521.4m0,-.2V484.7m31.2,-18.8l-31.2,18.6m30.1,-11l-23,13.7m23,45.1l-23,-13.7m87.7,-45.1l23,13.7m-23,45.1l23,-13.7m45.3,19.2V456" class="g1_3"/>
<path d="M463.4,515.5V478.3c0,-2.9,2.4,-5.2,5.2,-5.2H631.5c2.9,0,5.2,2.3,5.2,5.2v37.2c0,2.9,-2.3,5.2,-5.2,5.2H468.6c-2.8,0,-5.2,-2.3,-5.2,-5.2Z" class="g2_3"/>
<path d="M449.2,567V537.8M258.9,567.4H650.6M449.2,597V567.8M317.3,588.6l31.3,18.6m0,29.4V607.4m-62.5,36.5h54.8m-54.8,0V607.4m31.2,-18.8l-31.2,18.6m32.3,-10.9L341.5,610m-49.4,29.2v-27m87.7,-23.6L411,607.2m0,36.7V607.4m-62.4,36.5H411M379.8,588.6l-31.2,18.6m32.3,-10.9l23,13.7m45.3,50.6V597" class="g1_3"/>
<path d="M463.1,647.4V610.2c0,-2.9,2.4,-5.2,5.2,-5.2H631.8c2.9,0,5.2,2.3,5.2,5.2v37.2c0,2.9,-2.3,5.2,-5.2,5.2H468.3c-2.8,0,-5.2,-2.3,-5.2,-5.2Z" class="g2_3"/>
<path d="M449.2,689.8V660.6M258.9,690.2H650.6" class="g1_3"/>
</svg>