<?xml version="1.0" encoding="UTF-8" standalone="no"?>
<!DOCTYPE svg PUBLIC "-//W3C//DTD SVG 1.1//EN"
"http://www.w3.org/Graphics/SVG/1.1/DTD/svg11.dtd">
<svg viewBox="0 0 1286 909" version="1.1" xmlns="http://www.w3.org/2000/svg" xmlns:xlink="http://www.w3.org/1999/xlink">
<defs>
<style type="text/css"><![CDATA[
.g0_302{
fill: none;
stroke: #000000;
stroke-width: 0.73;
stroke-linecap: butt;
stroke-linejoin: miter;
}
.g1_302{
fill: none;
stroke: #02B5EE;
stroke-width: 1.262;
stroke-linecap: butt;
stroke-linejoin: miter;
}
.g2_302{
fill: none;
stroke: #5EE200;
stroke-width: 1.262;
stroke-linecap: butt;
stroke-linejoin: miter;
}
.g3_302{
fill: none;
stroke: #5EE200;
stroke-width: 0.73;
stroke-linecap: butt;
stroke-linejoin: miter;
}
.g4_302{
fill: none;
stroke: #02B5EE;
stroke-width: 0.73;
stroke-linecap: butt;
stroke-linejoin: miter;
}
.g5_302{
fill: #B3E9FA;
}
]]></style>
</defs>
<path d="M193,83.4h900.3M193,111.6H782.5m-589.5,0H782.5M508.2,141.2V112m0,114.3V141.2" class="g0_302"/>
<path d="M525,202.3h81" class="g1_302"/>
<path d="M616.5,202.3h82.4" class="g2_302"/>
<path d="M508.2,255.5V226.3m0,102.2v-73" class="g0_302"/>
<path d="M568.9,314.7H704" class="g3_302"/>
<path d="M704,314.7h67.5" class="g4_302"/>
<path d="M508.2,357.8V328.5m0,58.5V357.8m0,114.2V387" class="g0_302"/>
<path d="M521.7,422.2V410c0,-2.8,2.4,-5.2,5.2,-5.2h71.9c2.8,0,5.2,2.4,5.2,5.2v12.2c0,2.9,-2.4,5.2,-5.2,5.2H526.9c-2.8,0,-5.2,-2.3,-5.2,-5.2Z" class="g5_302"/>
<path d="M519.1,448h87.5" class="g1_302"/>
<path d="M617.1,448H771.5" class="g2_302"/>
<path d="M508.2,501.2V472M193,501.6H782.5m-589.5,0H782.5" class="g0_302"/>
</svg>