<?xml version="1.0" encoding="UTF-8" standalone="no"?>
<!DOCTYPE svg PUBLIC "-//W3C//DTD SVG 1.1//EN"
"http://www.w3.org/Graphics/SVG/1.1/DTD/svg11.dtd">
<svg viewBox="0 0 909 1286" version="1.1" xmlns="http://www.w3.org/2000/svg" xmlns:xlink="http://www.w3.org/1999/xlink">
<defs>
<clipPath id="c0_153"><path d="M119.5,285.3V258H789.9v27.3Z"/></clipPath>
<clipPath id="c1_153"><path d="M119.5,520.1V492.8H789.9v27.3Z"/></clipPath>
<clipPath id="c2_153"><path d="M119.5,724.9V697.6H789.9v27.3Z"/></clipPath>
<style type="text/css"><![CDATA[
.g0_153{
fill: none;
stroke: #000000;
stroke-width: 0.73;
stroke-linecap: butt;
stroke-linejoin: miter;
}
.g1_153{
fill: #7F7F7F;
fill-opacity: 0.01;
}
.g2_153{
fill: #7F7F7F;
fill-opacity: 0.02;
}
.g3_153{
fill: #7F7F7F;
fill-opacity: 0.04;
}
.g4_153{
fill: #7F7F7F;
fill-opacity: 0.07;
}
.g5_153{
fill: #7F7F7F;
fill-opacity: 0.11;
}
.g6_153{
fill: #FFFFFF;
}
.g7_153{
fill: #7F7F7F;
}
.g8_153{
fill: #CBCEFB;
}
]]></style>
</defs>
<path d="M116.9,159.9H792.5" class="g0_153"/>
<path d="M122.2,260.7c221.7,0,443.4,0,665,0V485.9c-221.6,-9.4,-443.3,-9.4,-665,0Z" class="g1_153"/>
<path d="M122.9,261.4c221.2,0,442.4,0,663.7,0V485.2c-221.3,-9.3,-442.5,-9.3,-663.7,0Z" class="g2_153"/>
<path d="M123.5,262c220.8,0,441.6,0,662.5,0V484.6c-220.9,-9.3,-441.7,-9.3,-662.5,0Z" class="g3_153"/>
<path d="M124.1,262.6c220.4,0,440.8,0,661.2,0V484c-220.4,-9.4,-440.8,-9.4,-661.2,0Z" class="g4_153"/>
<path d="M124.7,263.2c220,0,440,0,660,0V483.4c-220,-9.4,-440,-9.4,-660,0Z" class="g5_153"/>
<path d="M125.4,263.9c219.5,0,439.1,0,658.7,0V482.7c-219.6,-9.3,-439.2,-9.3,-658.7,0Z" class="g5_153"/>
<path d="M126,264.5c219.1,0,438.3,0,657.5,0V482.1c-219.2,-9.3,-438.4,-9.3,-657.5,0Z" class="g4_153"/>
<path d="M126.6,265.1c218.8,0,437.5,0,656.3,0V481.5c-218.8,-9.4,-437.5,-9.4,-656.3,0Z" class="g3_153"/>
<path d="M127.2,265.7c218.4,0,436.7,0,655,0V480.9c-218.3,-9.4,-436.6,-9.4,-655,0Z" class="g2_153"/>
<path d="M127.9,266.3c217.9,0,435.8,0,653.7,0V480.2c-217.9,-9.3,-435.8,-9.3,-653.7,0Z" class="g1_153"/>
<path d="M116.9,475.6V255.4H792.5V475.6Z" class="g6_153"/>
<path d="M119.5,473V287.9H789.9V473Z" class="g6_153"/>
<path d="M119.5,285.3V258H789.9v27.3Z" class="g7_153"/>
<g clip-path="url(#c0_153)">
<image x="119" y="257" width="672" height="28" xlink:href="shade/1.png"/>
</g>
<path d="M296.1,337.2H613.4M296.5,366.8V337.6" class="g0_153"/>
<path d="M296.8,366.8H408.1V337.6H296.8v29.2Z" class="g8_153"/>
<path d="M408.5,366.8V337.6" class="g0_153"/>
<path d="M408.8,366.8H522.4V337.6H408.8v29.2Z" class="g8_153"/>
<path d="M522.8,366.8V337.6" class="g0_153"/>
<path d="M523.1,366.8h89.5V337.6H523.1v29.2Z" class="g8_153"/>
<path d="M613,366.8V337.6M296.1,367.2H613.4M296.5,396.7V367.5m112,29.2V367.5m114.3,29.2V367.5M613,396.7V367.5M296.1,397.1H613.4M296.5,426.7V397.5m112,29.2V397.5m114.3,29.2V397.5M613,426.7V397.5M296.1,427.1H613.4M296.5,456.6V427.4m112,29.2V427.4m114.3,29.2V427.4M613,456.6V427.4M296.1,457H613.4" class="g0_153"/>
<path d="M122.2,495.5c221.7,0,443.4,0,665,0V690.7c-221.6,-9.4,-443.3,-9.4,-665,0Z" class="g1_153"/>
<path d="M122.9,496.1c221.2,0,442.4,0,663.7,0V690c-221.3,-9.3,-442.5,-9.3,-663.7,0Z" class="g2_153"/>
<path d="M123.5,496.7c220.8,0,441.6,0,662.5,0V689.4c-220.9,-9.3,-441.7,-9.3,-662.5,0Z" class="g3_153"/>
<path d="M124.1,497.4c220.4,0,440.8,0,661.2,0V688.8c-220.4,-9.4,-440.8,-9.4,-661.2,0Z" class="g4_153"/>
<path d="M124.7,498c220,0,440,0,660,0V688.2c-220,-9.4,-440,-9.4,-660,0Z" class="g5_153"/>
<path d="M125.4,498.6c219.5,0,439.1,0,658.7,0V687.5c-219.6,-9.3,-439.2,-9.3,-658.7,0Z" class="g5_153"/>
<path d="M126,499.2c219.1,0,438.3,0,657.5,0V686.9c-219.2,-9.3,-438.4,-9.3,-657.5,0Z" class="g4_153"/>
<path d="M126.6,499.8c218.8,0,437.5,0,656.3,0V686.3c-218.8,-9.4,-437.5,-9.4,-656.3,0Z" class="g3_153"/>
<path d="M127.2,500.5c218.4,0,436.7,0,655,0V685.7c-218.3,-9.4,-436.6,-9.4,-655,0Z" class="g2_153"/>
<path d="M127.9,501.1c217.9,0,435.8,0,653.7,0V685c-217.9,-9.3,-435.8,-9.3,-653.7,0Z" class="g1_153"/>
<path d="M116.9,680.4V490.2H792.5V680.4Z" class="g6_153"/>
<path d="M119.5,677.8V522.7H789.9V677.8Z" class="g6_153"/>
<path d="M119.5,520.1V492.8H789.9v27.3Z" class="g7_153"/>
<g clip-path="url(#c1_153)">
<image x="119" y="492" width="672" height="28" xlink:href="shade/2.png"/>
</g>
<path d="M307.3,571.9H602.2M307.6,601.5V572.3" class="g0_153"/>
<path d="M308,601.5H419.3V572.3H308v29.2Z" class="g8_153"/>
<path d="M419.6,601.5V572.3" class="g0_153"/>
<path d="M420,601.5h89.5V572.3H420v29.2Z" class="g8_153"/>
<path d="M509.8,601.5V572.3" class="g0_153"/>
<path d="M510.2,601.5h91.3V572.3H510.2v29.2Z" class="g8_153"/>
<path d="M601.8,601.5V572.3M307.3,601.9H602.2M307.6,631.5V602.3m112,29.2V602.3m90.2,29.2V602.3m92,29.2V602.3M307.3,631.9H602.2M307.6,661.4V632.2m112,29.2V632.2m90.2,29.2V632.2m92,29.2V632.2M307.3,661.8H602.2" class="g0_153"/>
<path d="M122.2,700.3c221.7,0,443.4,0,665,0v315c-221.6,-9.4,-443.3,-9.4,-665,0Z" class="g1_153"/>
<path d="M122.9,700.9c221.2,0,442.4,0,663.7,0v313.7c-221.3,-9.3,-442.5,-9.3,-663.7,0Z" class="g2_153"/>
<path d="M123.5,701.5c220.8,0,441.6,0,662.5,0V1014c-220.9,-9.3,-441.7,-9.3,-662.5,0Z" class="g3_153"/>
<path d="M124.1,702.1c220.4,0,440.8,0,661.2,0v311.3c-220.4,-9.4,-440.8,-9.4,-661.2,0Z" class="g4_153"/>
<path d="M124.7,702.8c220,0,440,0,660,0v310c-220,-9.4,-440,-9.4,-660,0Z" class="g5_153"/>
<path d="M125.4,703.4c219.5,0,439.1,0,658.7,0v308.7c-219.6,-9.3,-439.2,-9.3,-658.7,0Z" class="g5_153"/>
<path d="M126,704c219.1,0,438.3,0,657.5,0v307.5c-219.2,-9.3,-438.4,-9.3,-657.5,0Z" class="g4_153"/>
<path d="M126.6,704.6c218.8,0,437.5,0,656.3,0v306.3c-218.8,-9.4,-437.5,-9.4,-656.3,0Z" class="g3_153"/>
<path d="M127.2,705.3c218.4,0,436.7,0,655,0v305c-218.3,-9.4,-436.6,-9.4,-655,0Z" class="g2_153"/>
<path d="M127.9,705.9c217.9,0,435.8,0,653.7,0v303.7c-217.9,-9.3,-435.8,-9.3,-653.7,0Z" class="g1_153"/>
<path d="M116.9,1005V695H792.5v310Z" class="g6_153"/>
<path d="M119.5,1002.4v-275H789.9v275Z" class="g6_153"/>
<path d="M119.5,724.9V697.6H789.9v27.3Z" class="g7_153"/>
<g clip-path="url(#c2_153)">
<image x="119" y="697" width="672" height="28" xlink:href="shade/3.png"/>
</g>
<path d="M288.8,776.7H620.7M289.2,806.3V777.1" class="g0_153"/>
<path d="M289.5,806.3H400.8V777.1H289.5v29.2Z" class="g8_153"/>
<path d="M401.2,806.3V777.1" class="g0_153"/>
<path d="M401.5,806.3H529.7V777.1H401.5v29.2Z" class="g8_153"/>
<path d="M530.1,806.3V777.1" class="g0_153"/>
<path d="M530.5,806.3h89.4V777.1H530.5v29.2Z" class="g8_153"/>
<path d="M620.3,806.3V777.1M288.8,806.7H620.7M289.2,836.3V807.1m112,29.2V807.1m128.9,29.2V807.1m90.2,29.2V807.1M288.8,836.6H620.7M289.2,866.2V837m112,29.2V837m128.9,29.2V837m90.2,29.2V837M288.8,866.6H620.7M289.2,896.2V867m112,29.2V867m128.9,29.2V867m90.2,29.2V867M288.8,896.6H620.7M289.2,926.1V896.9m112,29.2V896.9m128.9,29.2V896.9m90.2,29.2V896.9M288.8,926.5H620.7M289.2,956.1V926.9m112,29.2V926.9m128.9,29.2V926.9m90.2,29.2V926.9M288.8,956.5H620.7M289.2,986.1V956.8m112,29.3V956.8m128.9,29.3V956.8m90.2,29.3V956.8M288.8,986.4H620.7" class="g0_153"/>
</svg>