<?xml version="1.0" encoding="UTF-8" standalone="no"?>
<!DOCTYPE svg PUBLIC "-//W3C//DTD SVG 1.1//EN"
"http://www.w3.org/Graphics/SVG/1.1/DTD/svg11.dtd">
<svg viewBox="0 0 1286 909" version="1.1" xmlns="http://www.w3.org/2000/svg" xmlns:xlink="http://www.w3.org/1999/xlink">
<defs>
<style type="text/css"><![CDATA[
.g0_491{
fill: none;
stroke: #000000;
stroke-width: 0.73;
stroke-linecap: butt;
stroke-linejoin: miter;
}
.g1_491{
fill: none;
stroke: #02B5EE;
stroke-width: 1.262;
stroke-linecap: butt;
stroke-linejoin: miter;
}
.g2_491{
fill: none;
stroke: #02B5EE;
stroke-width: 0.73;
stroke-linecap: butt;
stroke-linejoin: miter;
}
]]></style>
</defs>
<path d="M193,83.4h900.3M193,210.6H732.3m-539.3,0H732.3M333,240.2V211m0,58.5V240.2m0,114.3v-85" class="g0_491"/>
<path d="M344,330.5H522" class="g1_491"/>
<path d="M333,383.7V354.5m0,102.3V383.7" class="g0_491"/>
<path d="M620,442.9H721.3" class="g2_491"/>
<path d="M333,486V456.8m0,58.4V486m0,114.2v-85" class="g0_491"/>
<path d="M406.9,576.2h178" class="g1_491"/>
<path d="M333,629.5V600.2m0,102.3v-73" class="g0_491"/>
<path d="M620,688.6H721.3" class="g2_491"/>
<path d="M333,731.7V702.5M193,732.1H732.3m-539.3,0H732.3" class="g0_491"/>
</svg>