<?xml version="1.0" encoding="UTF-8" standalone="no"?>
<!DOCTYPE svg PUBLIC "-//W3C//DTD SVG 1.1//EN"
"http://www.w3.org/Graphics/SVG/1.1/DTD/svg11.dtd">
<svg viewBox="0 0 909 1286" version="1.1" xmlns="http://www.w3.org/2000/svg" xmlns:xlink="http://www.w3.org/1999/xlink">
<defs>
<style type="text/css"><![CDATA[
.g0_28{
fill: none;
stroke: #000000;
stroke-width: 0.73;
stroke-linecap: butt;
stroke-linejoin: miter;
}
.g1_28{
fill: #FDE8E9;
}
]]></style>
</defs>
<path d="M116.9,159.9H792.5" class="g0_28"/>
<path d="M562.5,212.5h93.1V184.6H562.5v27.9Z" class="g1_28"/>
<path d="M116.9,378.2h48.7V354.4H116.9v23.8Z" class="g1_28"/>
<path d="M182.5,382.4H431.3v-28H182.5v28Z" class="g1_28"/>
<path d="M606.7,407.9h48.6V384.2H606.7v23.7Z" class="g1_28"/>
<path d="M116.9,468.4H259.2V440.6H116.9v27.8Z" class="g1_28"/>
<path d="M276,466.4H509.6V442.7H276v23.7Z" class="g1_28"/>
<path d="M116.9,585.3H259.2V557.5H116.9v27.8Z" class="g1_28"/>
<path d="M274.4,583.3H454.3V559.5H274.4v23.8Z" class="g1_28"/>
<path d="M116.9,671h53.8V647.2H116.9V671Z" class="g1_28"/>
<path d="M187.6,671H357.3V647.2H187.6V671Z" class="g1_28"/>
<path d="M116.9,729.4h56.6V705.7H116.9v23.7Z" class="g1_28"/>
<path d="M190.4,733.6H388.5V705.7H190.4v27.9Z" class="g1_28"/>
<path d="M116.9,817.1h47.4V793.3H116.9v23.8Z" class="g1_28"/>
<path d="M179.8,821.3H394.7v-28H179.8v28Z" class="g1_28"/>
<path d="M116.9,904.8h60V881h-60v23.8Z" class="g1_28"/>
<path d="M116.9,965.2H246.1V937.4H116.9v27.8Z" class="g1_28"/>
<path d="M260.8,963.2h47.8V939.5H260.8v23.7Z" class="g1_28"/>
<path d="M323.4,967.4H544V939.5H323.4v27.9Z" class="g1_28"/>
<path d="M361.9,1036.3h48.6v-23.8H361.9v23.8Z" class="g1_28"/>
<path d="M427.4,1040.5H645.6v-28H427.4v28Z" class="g1_28"/>
<path d="M308.4,1070.2h89.5v-27.9H308.4v27.9Z" class="g1_28"/>
</svg>