<?xml version="1.0" encoding="UTF-8" standalone="no"?>
<!DOCTYPE svg PUBLIC "-//W3C//DTD SVG 1.1//EN"
"http://www.w3.org/Graphics/SVG/1.1/DTD/svg11.dtd">
<svg viewBox="0 0 909 1286" version="1.1" xmlns="http://www.w3.org/2000/svg" xmlns:xlink="http://www.w3.org/1999/xlink">
<defs>
<style type="text/css"><![CDATA[
.g0_106{
fill: none;
stroke: #000000;
stroke-width: 0.73;
stroke-linecap: butt;
stroke-linejoin: miter;
}
.g1_106{
fill: #FDE8E9;
}
]]></style>
</defs>
<path d="M116.9,159.9H792.5" class="g0_106"/>
<path d="M420.9,210.3h44.8V182.5H420.9v27.8Z" class="g1_106"/>
<path d="M482.6,210.3h61.6V182.5H482.6v27.8Z" class="g1_106"/>
<path d="M218.3,385.7H263V357.8H218.3v27.9Z" class="g1_106"/>
<path d="M167.6,415.4h44.7V387.5H167.6v27.9Z" class="g1_106"/>
<path d="M167.6,445h44.7V417.2H167.6V445Z" class="g1_106"/>
<path d="M218.3,474.7H263V446.9H218.3v27.8Z" class="g1_106"/>
<path d="M420.9,650H600.8V622.2H420.9V650Z" class="g1_106"/>
<path d="M184.5,708.5H296.8V680.6H184.5v27.9Z" class="g1_106"/>
<path d="M167.6,738.2h78.5V710.3H167.6v27.9Z" class="g1_106"/>
<path d="M317.3,840.5h78.5V812.6H317.3v27.9Z" class="g1_106"/>
<path d="M446.4,840.5H508V812.6H446.4v27.9Z" class="g1_106"/>
<path d="M454.7,942.7h44.8V914.9H454.7v27.8Z" class="g1_106"/>
<path d="M420.9,972.4h44.8V944.6H420.9v27.8Z" class="g1_106"/>
<path d="M167.6,1118.5h44.7v-27.8H167.6v27.8Z" class="g1_106"/>
</svg>