<?xml version="1.0" encoding="UTF-8" standalone="no"?>
<!DOCTYPE svg PUBLIC "-//W3C//DTD SVG 1.1//EN"
"http://www.w3.org/Graphics/SVG/1.1/DTD/svg11.dtd">
<svg viewBox="0 0 909 1286" version="1.1" xmlns="http://www.w3.org/2000/svg" xmlns:xlink="http://www.w3.org/1999/xlink">
<defs>
<style type="text/css"><![CDATA[
.g0_22{
fill: none;
stroke: #000000;
stroke-width: 1.461;
stroke-linecap: butt;
stroke-linejoin: miter;
}
.g1_22{
fill: none;
stroke: #000000;
stroke-width: 0.152;
stroke-linecap: butt;
stroke-linejoin: miter;
}
.g2_22{
fill: none;
stroke: #000000;
stroke-width: 0.73;
stroke-linecap: butt;
stroke-linejoin: miter;
}
.g3_22{
fill: none;
stroke: #F81693;
stroke-width: 2.191;
stroke-linecap: butt;
stroke-linejoin: miter;
}
.g4_22{
fill: #C6EAFA;
}
.g5_22{
fill: none;
stroke: #F81693;
stroke-width: 2.191;
stroke-linecap: butt;
stroke-linejoin: miter;
stroke-dasharray: 6,6;
}
.g6_22{
fill: none;
stroke: #F81693;
stroke-width: 1.826;
stroke-linecap: butt;
stroke-linejoin: miter;
}
.g7_22{
fill: #F81693;
stroke: #F81693;
stroke-width: 1.65;
stroke-linecap: butt;
stroke-linejoin: round;
stroke-miterlimit: 1;
}
.g8_22{
fill: #7F7F7F;
stroke: #7F7F7F;
stroke-width: 1.65;
stroke-linecap: butt;
stroke-linejoin: round;
stroke-miterlimit: 1;
}
.g9_22{
fill: none;
stroke: #F81693;
stroke-width: 1.095;
stroke-linecap: butt;
stroke-linejoin: miter;
}
.ga_22{
fill: none;
stroke: #02B5EE;
stroke-width: 1.095;
stroke-linecap: butt;
stroke-linejoin: miter;
}
]]></style>
</defs>
<path d="M117.7,373V198.5m18.2,-18.2H645.3" class="g0_22"/>
<path d="M117.3,198.5h.7" class="g1_22"/>
<path d="M135.9,180.3h17.9" class="g2_22"/>
<path d="M792.9,198.5h.7" class="g1_22"/>
<path d="M756.3,180.3h17.9M473.7,301.4L505,320.1m0,36.7V320.2m-31.3,55.4L505,357m-31.3,18.6L442.5,357m0,-.2V320.2m31.2,-18.8l-31.2,18.7m32.3,-11l23,13.7m-23,45.1l23,-13.7M448.5,352V325M505,246.1l31.2,18.6m0,36.7V264.9M505,320.3l31.2,-18.7m-62.5,-.2V264.9M505,246.1l-31.3,18.6m30.2,-10.9l-23.1,13.7m49.4,29.2v-27m-119,31.7l31.3,18.7m-31.3,55.5L442.5,357m-31.3,18.6L380,357m0,-.2V320.2m31.2,-18.8L380,320.1m30.2,-11l-23.1,13.7m23.1,45.1L387.1,354.2" class="g2_22"/>
<path d="M117.3,373.4h.7" class="g1_22"/>
<path d="M135.9,391.7h17.9" class="g2_22"/>
<path d="M792.9,373.4h.7" class="g1_22"/>
<path d="M756.3,391.7h17.9" class="g2_22"/>
<path d="M135.9,391.3H775M793.2,373V198.5" class="g0_22"/>
<path d="M261.8,488.3l31.3,18.6m0,36.7V507.1m-31.3,55.3l31.3,-18.6m-31.3,18.6L230.6,543.8m0,-.2V507.1m31.2,-18.8l-31.2,18.6m32.3,-11L286,509.6m-23.1,45.1L286,541m-49.4,-2.2v-27m56.5,-78.9l31.2,18.6m0,36.8V451.7m-31.2,55.4l31.2,-18.7m-62.5,-.1V451.7m31.3,-18.8l-31.3,18.6M292,440.6l-23,13.7m49.3,29.2v-27M199.4,488.3l31.2,18.6m-31.2,55.5l31.2,-18.6m-31.2,18.6L168.1,543.8m0,-.2V507.1m31.3,-18.8l-31.3,18.6m30.2,-11l-23,13.7m23,45.1L175.3,541" class="g2_22"/>
<path d="M144.8,527H352.7" class="g3_22"/>
<path d="M230.6,527V423.1H352.7V527Z" class="g4_22"/>
<path d="M389.5,533.2l18.8,-31.3m0,0h36.5m18.8,31.3L444.8,501.9m18.8,31.3l-18.8,31.2m-36.5,0h36.5M389.5,533.2l18.8,31.2M397.2,532.1l14.2,-23.8m1.6,50.1h27.1M444.8,502l18.8,-31.3m0,0h36.6M519,502L500.2,470.7M519,502l-18.8,31.2m-36.6,0h36.6M468.4,476.7h27M452.5,503l14.2,23.8M519,501.9h36.5m18.8,31.3L555.5,501.9m18.8,31.3l-18.8,31.2m-36.5,0h36.5M500.2,533.2L519,564.4m47.7,-32.3L552.4,508.3m-28.7,50.1h27.1" class="g2_22"/>
<path d="M456.7,501H690.5" class="g3_22"/>
<path d="M456.7,534.8H690.5" class="g5_22"/>
<path d="M530.2,670.3l78.1,46.6m0,91.8V717.3M530.2,855.7l78.1,-46.6m-78.1,46.6L452.1,809.1m0,-.4V717.3m78.1,-47l-78.1,46.6m-78,-46.6l78,46.6m-78,138.8l78,-46.6m-78,46.6L296,809.1m0,-.4V717.3m78.1,-47L296,716.9M527.5,689.5l-57.6,34.2m123.3,73.1V729.2M527.5,836.5L469.9,802.3M371.3,689.5l-57.5,34.2m57.5,112.8L313.8,802.3" class="g6_22"/>
<path d="M463.7,717.3c0,5.1,-3.2,9.5,-8,11c-4.8,1.6,-10,-.1,-12.9,-4.2c-2.9,-4,-2.9,-9.5,0,-13.5c2.9,-4.1,8.1,-5.8,12.9,-4.2c4.8,1.5,8,5.9,8,10.9Z" class="g7_22"/>
<path d="M541.8,670.3c0,5,-3.2,9.4,-8,11c-4.8,1.5,-10,-.2,-12.9,-4.2c-3,-4,-3,-9.5,0,-13.6c2.9,-4,8.1,-5.7,12.9,-4.2c4.8,1.6,8,6,8,11Z" class="g8_22"/>
<path d="M619.9,717.3c0,5.1,-3.3,9.5,-8,11c-4.8,1.6,-10,-.1,-12.9,-4.2c-3,-4,-3,-9.5,0,-13.5c2.9,-4.1,8.1,-5.8,12.9,-4.2c4.7,1.5,8,5.9,8,10.9Z" class="g8_22"/>
<path d="M486.7,975.2l46.8,28m0,55v-54.8m-46.8,83.1l46.8,-28m-46.8,28l-46.9,-28m0,-.3v-54.8m46.9,-28.2l-46.9,28m48.5,-16.5l34.5,20.6M488.3,1075l34.5,-20.6m-73.9,-3.3v-40.5" class="g9_22"/>
<path d="M533.5,892.2l46.9,28m0,55V920.4m-46.9,83l46.9,-27.9m-93.7,-.3V920.4m46.8,-28.2l-46.8,28m45.2,-16.5l-34.5,20.6m73.9,43.8V927.6" class="ga_22"/>
<path d="M393,975.2l46.8,28M393,1086.5l46.8,-28m-46.8,28l-46.9,-28m0,-.3v-54.8M393,975.2l-46.9,28m45.2,-16.5l-34.5,20.6m34.5,67.7l-34.5,-20.6" class="g9_22"/>
</svg>