<?xml version="1.0" encoding="UTF-8" standalone="no"?>
<!DOCTYPE svg PUBLIC "-//W3C//DTD SVG 1.1//EN"
"http://www.w3.org/Graphics/SVG/1.1/DTD/svg11.dtd">
<svg viewBox="0 0 1286 909" version="1.1" xmlns="http://www.w3.org/2000/svg" xmlns:xlink="http://www.w3.org/1999/xlink">
<defs>
<style type="text/css"><![CDATA[
.g0_1029{
fill: none;
stroke: #000000;
stroke-width: 0.73;
stroke-linecap: butt;
stroke-linejoin: miter;
}
.g1_1029{
fill: #E6CEEE;
}
.g2_1029{
fill: none;
stroke: #02B5EE;
stroke-width: 1.262;
stroke-linecap: butt;
stroke-linejoin: miter;
}
.g3_1029{
fill: none;
stroke: #02B5EE;
stroke-width: 0.73;
stroke-linecap: butt;
stroke-linejoin: miter;
}
.g4_1029{
fill: #FFCCCC;
}
.g5_1029{
fill: none;
stroke: #F81693;
stroke-width: 1.461;
stroke-linecap: butt;
stroke-linejoin: miter;
stroke-dasharray: 2,2;
}
]]></style>
</defs>
<path d="M193,83.4h900.3M193,210.6H722.6m-529.6,0H722.6M382.7,240.2V211m0,58.5V240.2m0,64.1V269.5" class="g0_1029"/>
<path d="M501.7,304.3h68V271.4h-68v32.9Z" class="g1_1029"/>
<path d="M382.7,333.5V304.3m0,62.1V333.5" class="g0_1029"/>
<path d="M650,366.4h61.7V333.5H650v32.9Z" class="g1_1029"/>
<path d="M382.7,395.6V366.4m0,58.4V395.6m0,114.2v-85" class="g0_1029"/>
<path d="M393.7,474.1h38.5V441.3H393.7v32.8Z" class="g1_1029"/>
<path d="M471.9,485.9h80" class="g2_1029"/>
<path d="M382.7,539.1V509.8m0,102.3v-73" class="g0_1029"/>
<path d="M582.5,598.2h50.6" class="g3_1029"/>
<path d="M650,588.4h61.7V555.5H650v32.9Z" class="g1_1029"/>
<path d="M382.7,641.3V612.1m0,58.5V641.3m0,63.2V670.6" class="g0_1029"/>
<path d="M547.3,704.5H662.2V671.6H547.3v32.9Z" class="g4_1029"/>
<path d="M676.3,698.1H708" class="g5_1029"/>
<path d="M382.7,733.7V704.5M193,734.1H722.6m-529.6,0H722.6" class="g0_1029"/>
</svg>