<?xml version="1.0" encoding="UTF-8" standalone="no"?>
<!DOCTYPE svg PUBLIC "-//W3C//DTD SVG 1.1//EN"
"http://www.w3.org/Graphics/SVG/1.1/DTD/svg11.dtd">
<svg viewBox="0 0 1286 909" version="1.1" xmlns="http://www.w3.org/2000/svg" xmlns:xlink="http://www.w3.org/1999/xlink">
<defs>
<style type="text/css"><![CDATA[
.g0_1186{
fill: none;
stroke: #000000;
stroke-width: 0.73;
stroke-linecap: butt;
stroke-linejoin: miter;
}
.g1_1186{
fill: #FDE8E9;
}
]]></style>
</defs>
<path d="M193,83.4h900.3M210,426.5H473.9M210,456V426.8M302.5,456V426.8M473.9,456V426.8M210,490.7V456m92.5,34.7V456" class="g0_1186"/>
<path d="M313.4,490.7H462.9V456H313.4v34.7Z" class="g1_1186"/>
<path d="M473.9,490.7V456M210,519.9V490.7m92.5,29.2V490.7m171.4,29.2V490.7M210,549.1V519.9m92.5,29.2V519.9m171.4,29.2V519.9M210,583.7V549.1m92.5,34.6V549.1" class="g0_1186"/>
<path d="M313.4,583.7h95.3V549.1H313.4v34.6Z" class="g1_1186"/>
<path d="M473.9,583.7V549.1M210,613V583.7M302.5,613V583.7M473.9,613V583.7M210,642.2V613m92.5,29.2V613m171.4,29.2V613M210,676.8V642.2m92.5,34.6V642.2" class="g0_1186"/>
<path d="M313.4,676.8h80.2V642.2H313.4v34.6Z" class="g1_1186"/>
<path d="M473.9,676.8V642.2M210,706V676.8M302.5,706V676.8M473.9,706V676.8M210,735.2V706m92.5,29.2V706m171.4,29.2V706M210,769.9V735.2m92.5,34.7V735.2" class="g0_1186"/>
<path d="M313.4,769.9h94.3V735.2H313.4v34.7Z" class="g1_1186"/>
<path d="M473.9,769.9V735.2M210,799.1V769.9m92.5,29.2V769.9m171.4,29.2V769.9M210,828.3V799.1m92.5,29.2V799.1m171.4,29.2V799.1M210,862.9V828.3m92.5,34.6V828.3" class="g0_1186"/>
<path d="M313.4,862.9h90.9V828.3H313.4v34.6Z" class="g1_1186"/>
<path d="M473.9,862.9V828.3M210,892.1V862.9m92.5,29.2V862.9m171.4,29.2V862.9M210,892.5H473.9M495.8,432.2H990.4M495.8,461.8V432.6M722,461.8V432.6m268.4,29.2V432.6M495.8,496.4V461.8M722,496.4V461.8" class="g0_1186"/>
<path d="M733,496.4H859.4V461.8H733v34.6Z" class="g1_1186"/>
<path d="M990.4,496.4V461.8M495.8,525.6V496.4M722,525.6V496.4m268.4,29.2V496.4M495.8,554.9V525.6M722,554.9V525.6m268.4,29.3V525.6M495.8,587.5V554.9M722,587.5V554.9" class="g0_1186"/>
<path d="M733,584.2h87.2V554.9H733v29.3Z" class="g1_1186"/>
<path d="M990.4,587.5V554.9M495.8,616.7V587.5M722,616.7V587.5m268.4,29.2V587.5M495.8,646V616.7M722,646V616.7M990.4,646V616.7M495.8,678.6V646M722,678.6V646" class="g0_1186"/>
<path d="M733,675.3h91.5V646H733v29.3Z" class="g1_1186"/>
<path d="M990.4,678.6V646M495.8,707.8V678.6M722,707.8V678.6m268.4,29.2V678.6M495.8,737V707.8M722,737V707.8M990.4,737V707.8M495.8,767.9V737M722,767.9V737m268.4,30.9V737M495.8,797.1V767.9M722,797.1V767.9m268.4,29.2V767.9M495.8,826.3V797.1M722,826.3V797.1m268.4,29.2V797.1M495.8,857.2V826.3M722,857.2V826.3m268.4,30.9V826.3M495.8,886.4V857.2M722,886.4V857.2m268.4,29.2V857.2M495.8,886.8H990.4" class="g0_1186"/>
</svg>