<?xml version="1.0" encoding="UTF-8" standalone="no"?>
<!DOCTYPE svg PUBLIC "-//W3C//DTD SVG 1.1//EN"
"http://www.w3.org/Graphics/SVG/1.1/DTD/svg11.dtd">
<svg viewBox="0 0 1286 909" version="1.1" xmlns="http://www.w3.org/2000/svg" xmlns:xlink="http://www.w3.org/1999/xlink">
<defs>
<style type="text/css"><![CDATA[
.g0_1151{
fill: none;
stroke: #000000;
stroke-width: 0.73;
stroke-linecap: butt;
stroke-linejoin: miter;
}
.g1_1151{
fill: none;
stroke: #02B5EE;
stroke-width: 1.461;
stroke-linecap: butt;
stroke-linejoin: miter;
stroke-dasharray: 2,2;
}
.g2_1151{
fill: #B3E9FA;
}
.g3_1151{
fill: none;
stroke: #02B5EE;
stroke-width: 1.262;
stroke-linecap: butt;
stroke-linejoin: miter;
}
.g4_1151{
fill: none;
stroke: #02B5EE;
stroke-width: 0.73;
stroke-linecap: butt;
stroke-linejoin: miter;
}
.g5_1151{
fill: none;
stroke: #5EE200;
stroke-width: 1.461;
stroke-linecap: butt;
stroke-linejoin: miter;
stroke-dasharray: 2,2;
}
.g6_1151{
fill: #AEF080;
}
.g7_1151{
fill: none;
stroke: #5EE200;
stroke-width: 0.73;
stroke-linecap: butt;
stroke-linejoin: miter;
}
]]></style>
</defs>
<path d="M193,83.4h900.3M193,111.6H1209.8M193,111.6H1209.8M696.5,141.2V112m0,58.5V141.2m0,58.5V170.5m0,114.2v-85" class="g0_1151"/>
<path d="M998.8,242.6h95.3" class="g1_1151"/>
<path d="M1110.8,234.9V222.7c0,-2.8,2.4,-5.2,5.2,-5.2h75.1c2.8,0,5.2,2.4,5.2,5.2v12.2c0,2.9,-2.4,5.2,-5.2,5.2H1116c-2.8,0,-5.2,-2.3,-5.2,-5.2Z" class="g2_1151"/>
<path d="M995.2,260.7h203.7" class="g3_1151"/>
<path d="M696.5,313.9V284.7m0,102.3V313.9" class="g0_1151"/>
<path d="M988.5,351.2v-7c0,-2.9,2.4,-5.2,5.2,-5.2h73.7c2.8,0,5.2,2.3,5.2,5.2v7c0,2.9,-2.4,5.2,-5.2,5.2H993.7c-2.8,0,-5.2,-2.3,-5.2,-5.2Z" class="g2_1151"/>
<path d="M1078.8,358.9h116.4" class="g1_1151"/>
<path d="M985.9,373.1h213" class="g4_1151"/>
<path d="M696.5,416.2V387m0,58.4V416.2m0,63.2v-34" class="g0_1151"/>
<path d="M974.8,473h102.8" class="g5_1151"/>
<path d="M1091.8,479.4h33.4V446.5h-33.4v32.9Z" class="g6_1151"/>
<path d="M1139.3,473c.7,0,1,-1,1.7,-1c.4,0,.8,.5,1.3,1c.4,.5,.8,1,1.3,1c.4,0,.8,-.5,1.3,-1c.4,-.5,.8,-1,1.3,-1c.4,0,.8,.5,1.3,1c.4,.5,.8,1,1.2,1c.5,0,.9,-.5,1.3,-1c.5,-.5,.9,-1,1.3,-1c.5,0,.9,.5,1.3,1c.5,.5,.9,1,1.3,1c.5,0,.9,-.5,1.3,-1c.5,-.5,.9,-1,1.3,-1c.5,0,.9,.5,1.3,1c.5,.5,.9,1,1.3,1c.5,0,.9,-.5,1.3,-1c.5,-.5,.9,-1,1.3,-1c.5,0,.9,.5,1.3,1c.5,.5,.9,1,1.3,1c.5,0,.9,-.5,1.3,-1c.5,-.5,.9,-1,1.3,-1c.5,0,.9,.5,1.3,1c.5,.5,.9,1,1.3,1c.5,0,.9,-.5,1.3,-1c.4,-.5,.9,-1,1.3,-1c.5,0,.9,.5,1.3,1c.4,.5,.9,1,1.3,1c.5,0,.9,-.5,1.3,-1c.4,-.5,.9,-1,1.3,-1c.5,0,.9,.5,1.3,1c.4,.5,.9,1,1.3,1c.5,0,.9,-.5,1.3,-1c.4,-.5,.9,-1,1.3,-1c.5,0,.9,.5,1.3,1c.4,.5,.9,1,1.3,1c.5,0,.9,-.5,1.3,-1c.4,-.5,.9,-1,1.3,-1c.5,0,.9,.5,1.3,1c.4,.5,.9,1,1.3,1c.5,0,.9,-.5,1.3,-1c.4,-.5,.8,-1,1.3,-1c.7,0,1,1,1.6,1h.7" class="g7_1151"/>
<path d="M696.5,508.6V479.4m0,62.1V508.6" class="g0_1151"/>
<path d="M928.4,537.1h124.8" class="g5_1151"/>
<path d="M1066.6,537.1c.7,0,1,-1,1.6,-1c.5,0,.9,.5,1.3,1c.4,.5,.9,1.1,1.3,1.1c.5,0,.9,-.6,1.3,-1.1c.4,-.5,.9,-1,1.3,-1c.5,0,.9,.5,1.3,1c.4,.5,.9,1.1,1.3,1.1c.5,0,.9,-.6,1.3,-1.1c.4,-.5,.9,-1,1.3,-1c.5,0,.9,.5,1.3,1c.4,.5,.8,1.1,1.3,1.1c.5,0,.9,-.6,1.3,-1.1c.4,-.5,.8,-1,1.3,-1c.5,0,.9,.5,1.3,1c.4,.5,.8,1.1,1.3,1.1c.5,0,.9,-.6,1.3,-1.1c.4,-.5,.8,-1,1.3,-1c.5,0,.9,.5,1.3,1c.4,.5,.8,1.1,1.3,1.1c.5,0,.9,-.6,1.3,-1.1c.4,-.5,.8,-1,1.3,-1c.5,0,.9,.5,1.3,1c.4,.5,.8,1.1,1.3,1.1c.5,0,.9,-.6,1.3,-1.1c.4,-.5,.8,-1,1.3,-1c.5,0,.9,.5,1.3,1c.4,.5,.8,1.1,1.3,1.1c.5,0,.9,-.6,1.3,-1.1c.4,-.5,.8,-1,1.3,-1c.5,0,.9,.5,1.3,1c.4,.5,.8,1.1,1.3,1.1c.5,0,.9,-.6,1.3,-1.1c.4,-.5,.8,-1,1.3,-1c.5,0,.9,.5,1.3,1c.4,.5,.8,1.1,1.3,1.1c.5,0,.9,-.6,1.3,-1.1c.4,-.5,.8,-1,1.3,-1c.5,0,.9,.5,1.3,1c.4,.5,.8,1.1,1.3,1.1c.5,0,.9,-.6,1.3,-1.1c.4,-.5,.8,-1,1.3,-1c.5,0,.9,.5,1.3,1c.4,.5,.8,1.1,1.3,1.1c.5,0,.9,-.6,1.3,-1.1c.4,-.5,.8,-1,1.3,-1c.5,0,.9,.5,1.3,1c.4,.5,.8,1.1,1.3,1.1c.5,0,.9,-.6,1.3,-1.1c.4,-.5,.8,-1,1.3,-1c.5,0,.9,.5,1.3,1c.4,.5,.8,1.1,1.3,1.1c.5,0,.9,-.6,1.3,-1.1c.4,-.5,.8,-1,1.3,-1c.5,0,.9,.5,1.3,1c.4,.5,.8,1.1,1.3,1.1c.5,0,.9,-.6,1.3,-1.1c.4,-.5,.8,-1,1.3,-1c.5,0,.9,.5,1.3,1c.4,.5,.8,1.1,1.3,1.1c.5,0,.9,-.6,1.3,-1.1c.4,-.5,.8,-1,1.3,-1c.5,0,.9,.5,1.3,1c.4,.5,.8,1.1,1.3,1.1c.5,0,.9,-.6,1.3,-1.1c.4,-.5,.8,-1,1.3,-1c.5,0,.9,.5,1.3,1c.4,.5,.8,1.1,1.3,1.1c.5,0,.9,-.6,1.3,-1.1c.4,-.5,.8,-1,1.3,-1c.5,0,.9,.5,1.3,1c.4,.5,.8,1.1,1.3,1.1c.4,0,.9,-.6,1.3,-1.1c.4,-.5,.8,-1,1.3,-1c.6,0,.9,1,1.6,1h1.8" class="g7_1151"/>
<path d="M1174.9,541.5h24V508.6h-24v32.9Z" class="g6_1151"/>
<path d="M696.5,572.8V541.5m0,60.5V572.8m0,58.5V602m0,63.2V631.3" class="g0_1151"/>
<path d="M919.6,658.8h102.7" class="g5_1151"/>
<path d="M1036.5,665.2h33.4V632.3h-33.4v32.9Z" class="g6_1151"/>
<path d="M1084.1,658.8c.6,0,.9,-1,1.6,-1c.5,0,.9,.5,1.3,1c.4,.5,.8,1.1,1.3,1.1c.5,0,.9,-.6,1.3,-1.1c.4,-.5,.8,-1,1.3,-1c.5,0,.9,.5,1.3,1c.4,.5,.8,1.1,1.3,1.1c.5,0,.9,-.6,1.3,-1.1c.4,-.5,.8,-1,1.3,-1c.5,0,.9,.5,1.3,1c.4,.5,.8,1.1,1.3,1.1c.5,0,.9,-.6,1.3,-1.1c.4,-.5,.8,-1,1.3,-1c.5,0,.9,.5,1.3,1c.4,.5,.8,1.1,1.3,1.1c.5,0,.9,-.6,1.3,-1.1c.4,-.5,.8,-1,1.3,-1c.5,0,.9,.5,1.3,1c.4,.5,.8,1.1,1.3,1.1c.4,0,.9,-.6,1.3,-1.1c.4,-.5,.8,-1,1.3,-1c.4,0,.9,.5,1.3,1c.4,.5,.8,1.1,1.3,1.1c.4,0,.9,-.6,1.3,-1.1c.4,-.5,.8,-1,1.3,-1c.4,0,.9,.5,1.3,1c.4,.5,.8,1.1,1.3,1.1c.4,0,.9,-.6,1.3,-1.1c.4,-.5,.8,-1,1.3,-1c.4,0,.9,.5,1.3,1c.4,.5,.8,1.1,1.3,1.1c.4,0,.9,-.6,1.3,-1.1c.4,-.5,.8,-1,1.3,-1c.4,0,.9,.5,1.3,1c.4,.5,.8,1.1,1.3,1.1c.4,0,.8,-.6,1.3,-1.1c.4,-.5,.8,-1,1.3,-1c.4,0,.8,.5,1.3,1c.4,.5,.8,1.1,1.3,1.1c.4,0,.8,-.6,1.3,-1.1c.4,-.5,.8,-1,1.3,-1c.4,0,.8,.5,1.3,1c.4,.5,.8,1.1,1.3,1.1c.4,0,.8,-.6,1.3,-1.1c.4,-.5,.8,-1,1.3,-1c.4,0,.8,.5,1.3,1c.4,.5,.8,1.1,1.3,1.1c.4,0,.8,-.6,1.3,-1.1c.4,-.5,.8,-1,1.3,-1c.4,0,.8,.5,1.3,1c.4,.5,.8,1.1,1.3,1.1c.4,0,.8,-.6,1.2,-1.1c.5,-.5,.9,-1,1.3,-1c.5,0,.9,.5,1.3,1c.5,.5,.9,1.1,1.3,1.1c.5,0,.9,-.6,1.3,-1.1c.5,-.5,.9,-1,1.3,-1c.5,0,.9,.5,1.3,1c.5,.5,.9,1.1,1.3,1.1c.5,0,.9,-.6,1.3,-1.1c.5,-.5,.9,-1,1.3,-1c.5,0,.9,.5,1.3,1c.5,.5,.9,1.1,1.3,1.1c.5,0,.9,-.6,1.3,-1.1c.5,-.5,.9,-1,1.3,-1c.5,0,.9,.5,1.3,1c.5,.5,.9,1.1,1.3,1.1c.5,0,.9,-.6,1.3,-1.1c.5,-.5,.9,-1,1.3,-1c.5,0,.9,.5,1.3,1c.4,.5,.9,1.1,1.3,1.1c.5,0,.9,-.6,1.3,-1.1c.4,-.5,.9,-1,1.3,-1c.5,0,.9,.5,1.3,1c.4,.5,.9,1.1,1.3,1.1c.5,0,.9,-.6,1.3,-1.1c.4,-.5,.9,-1,1.3,-1c.5,0,.9,.5,1.3,1c.4,.5,.9,1.1,1.3,1.1c.5,0,.9,-.6,1.3,-1.1c.4,-.5,.9,-1,1.3,-1c.5,0,.9,.5,1.3,1c.4,.5,.9,1.1,1.3,1.1c.7,0,1,-1.1,1.6,-1.1h1.4" class="g7_1151"/>
<path d="M696.5,694.4V665.2m0,58.5V694.4M193,724H1209.8M193,724H1209.8" class="g0_1151"/>
</svg>