<?xml version="1.0" encoding="UTF-8" standalone="no"?>
<!DOCTYPE svg PUBLIC "-//W3C//DTD SVG 1.1//EN"
"http://www.w3.org/Graphics/SVG/1.1/DTD/svg11.dtd">
<svg viewBox="0 0 909 1286" version="1.1" xmlns="http://www.w3.org/2000/svg" xmlns:xlink="http://www.w3.org/1999/xlink">
<defs>
<clipPath id="c0_23"><path d="M119.5,239V205.4H446.9V239Z"/></clipPath>
<clipPath id="c1_23"><path d="M462.5,239V205.4H789.9V239Z"/></clipPath>
<style type="text/css"><![CDATA[
.g0_23{
fill: none;
stroke: #000000;
stroke-width: 0.73;
stroke-linecap: butt;
stroke-linejoin: miter;
}
.g1_23{
fill: #7F7F7F;
fill-opacity: 0.01;
}
.g2_23{
fill: #7F7F7F;
fill-opacity: 0.02;
}
.g3_23{
fill: #7F7F7F;
fill-opacity: 0.04;
}
.g4_23{
fill: #7F7F7F;
fill-opacity: 0.07;
}
.g5_23{
fill: #7F7F7F;
fill-opacity: 0.11;
}
.g6_23{
fill: #FFFFFF;
}
.g7_23{
fill: #7F7F7F;
}
.g8_23{
fill: #00AEEF;
}
.g9_23{
fill: #CBCEFB;
}
.ga_23{
fill: #EC008C;
}
.gb_23{
fill: #E81A58;
}
.gc_23{
fill: #401A1A;
}
]]></style>
</defs>
<path d="M116.9,159.9H792.5" class="g0_23"/>
<path d="M122.2,208.1c107.4,0,214.7,0,322,0v437c-107.3,-9.4,-214.6,-9.4,-322,0Z" class="g1_23"/>
<path d="M122.9,208.8c106.9,0,213.8,0,320.7,0V644.5c-106.9,-9.4,-213.8,-9.4,-320.7,0Z" class="g2_23"/>
<path d="M123.5,209.4c106.5,0,213,0,319.5,0V643.8c-106.5,-9.3,-213,-9.3,-319.5,0Z" class="g3_23"/>
<path d="M124.1,210c106.1,0,212.2,0,318.3,0V643.2c-106.1,-9.3,-212.2,-9.3,-318.3,0Z" class="g4_23"/>
<path d="M124.7,210.6c105.7,0,211.4,0,317,0v432c-105.6,-9.4,-211.3,-9.4,-317,0Z" class="g5_23"/>
<path d="M125.4,211.2c105.2,0,210.5,0,315.7,0V642c-105.2,-9.4,-210.5,-9.4,-315.7,0Z" class="g5_23"/>
<path d="M126,211.9c104.8,0,209.7,0,314.5,0V641.3C335.7,632,230.8,632,126,641.3Z" class="g4_23"/>
<path d="M126.6,212.5c104.4,0,208.8,0,313.3,0V640.7c-104.5,-9.3,-208.9,-9.3,-313.3,0Z" class="g3_23"/>
<path d="M127.2,213.1c104,0,208,0,312,0v427c-104,-9.4,-208,-9.4,-312,0Z" class="g2_23"/>
<path d="M127.9,213.7c103.5,0,207.1,0,310.7,0V639.5c-103.6,-9.4,-207.2,-9.4,-310.7,0Z" class="g1_23"/>
<path d="M116.9,634.8v-432H449.5v432Z" class="g6_23"/>
<path d="M119.5,632.2V241.6H446.9V632.2Z" class="g6_23"/>
<path d="M119.5,239V205.4H446.9V239Z" class="g7_23"/>
<g clip-path="url(#c0_23)">
<image x="119" y="205" width="329" height="34" xlink:href="shade/1.png"/>
</g>
<path d="M316.9,233.8h104V210.6h-104v23.2Z" class="g8_23"/>
<path d="M180.9,286.7H385.6M181.3,316.3V287.1" class="g0_23"/>
<path d="M181.6,316.3h62.1V287.1H181.6v29.2Z" class="g9_23"/>
<path d="M244,316.3V287.1" class="g0_23"/>
<path d="M244.4,316.3h69.8V287.1H244.4v29.2Z" class="g9_23"/>
<path d="M314.6,316.3V287.1" class="g0_23"/>
<path d="M315,316.3h69.8V287.1H315v29.2Z" class="g9_23"/>
<path d="M385.2,316.3V287.1M180.9,316.7H385.6M181.3,346.3V317.1M244,346.3V317.1m70.6,29.2V317.1m70.6,29.2V317.1M180.9,346.6H385.6M181.3,376.2V347M244,376.2V347m70.6,29.2V347m70.6,29.2V347M180.9,376.6H385.6M181.3,406.2V377M244,406.2V377m70.6,29.2V377m70.6,29.2V377M180.9,406.6H385.6M181.3,436.1V406.9M244,436.1V406.9m70.6,29.2V406.9m70.6,29.2V406.9M180.9,436.5H385.6M181.3,466.1V436.9M244,466.1V436.9m70.6,29.2V436.9m70.6,29.2V436.9M180.9,466.5H385.6M181.3,496.1V466.8M244,496.1V466.8m70.6,29.3V466.8m70.6,29.3V466.8M180.9,496.4H385.6M181.3,526V496.8M244,526V496.8M314.6,526V496.8M385.2,526V496.8M180.9,526.4H385.6M181.3,556V526.7M244,556V526.7M314.6,556V526.7M385.2,556V526.7M180.9,556.3H385.6M181.3,585.9V556.7M244,585.9V556.7m70.6,29.2V556.7m70.6,29.2V556.7M180.9,586.3H385.6M181.3,615.9V586.6M244,615.9V586.6m70.6,29.3V586.6m70.6,29.3V586.6M180.9,616.2H385.6" class="g0_23"/>
<path d="M465.2,208.1c107.4,0,214.7,0,322,0V542.4c-107.3,-9.3,-214.6,-9.3,-322,0Z" class="g1_23"/>
<path d="M465.8,208.8c107,0,213.9,0,320.8,0v333c-106.9,-9.3,-213.8,-9.3,-320.8,0Z" class="g2_23"/>
<path d="M466.5,209.4c106.5,0,213,0,319.5,0V541.2c-106.5,-9.4,-213,-9.4,-319.5,0Z" class="g3_23"/>
<path d="M467.1,210c106.1,0,212.2,0,318.2,0V540.6c-106,-9.4,-212.1,-9.4,-318.2,0Z" class="g4_23"/>
<path d="M467.7,210.6c105.7,0,211.3,0,317,0V539.9c-105.7,-9.3,-211.3,-9.3,-317,0Z" class="g5_23"/>
<path d="M468.3,211.2c105.3,0,210.5,0,315.8,0V539.3C678.8,530,573.6,530,468.3,539.3Z" class="g5_23"/>
<path d="M469,211.9c104.8,0,209.6,0,314.5,0V538.7c-104.9,-9.4,-209.7,-9.4,-314.5,0Z" class="g4_23"/>
<path d="M469.6,212.5c104.4,0,208.8,0,313.2,0V538.1c-104.4,-9.4,-208.8,-9.4,-313.2,0Z" class="g3_23"/>
<path d="M470.2,213.1c104,0,208,0,312,0V537.4c-104,-9.3,-208,-9.3,-312,0Z" class="g2_23"/>
<path d="M470.8,213.7c103.6,0,207.2,0,310.8,0V536.8c-103.6,-9.3,-207.2,-9.3,-310.8,0Z" class="g1_23"/>
<path d="M459.9,532.1V202.8H792.5V532.1Z" class="g6_23"/>
<path d="M462.5,529.5V241.6H789.9V529.5Z" class="g6_23"/>
<path d="M462.5,239V205.4H789.9V239Z" class="g7_23"/>
<g clip-path="url(#c1_23)">
<image x="462" y="205" width="329" height="34" xlink:href="shade/2.png"/>
</g>
<path d="M675.7,233.8h88.2V210.6H675.7v23.2Z" class="ga_23"/>
<path d="M523.9,274H728.5M524.3,303.5V274.3" class="g0_23"/>
<path d="M524.6,303.5h62V274.3h-62v29.2Z" class="g9_23"/>
<path d="M587,303.5V274.3" class="g0_23"/>
<path d="M587.4,303.5h69.8V274.3H587.4v29.2Z" class="g9_23"/>
<path d="M657.6,303.5V274.3" class="g0_23"/>
<path d="M657.9,303.5h69.9V274.3H657.9v29.2Z" class="g9_23"/>
<path d="M728.2,303.5V274.3M523.9,303.9H728.5M524.3,333.5V304.3M587,333.5V304.3m70.6,29.2V304.3m70.6,29.2V304.3M523.9,333.9H728.5M524.3,363.4V334.2M587,363.4V334.2m70.6,29.2V334.2m70.6,29.2V334.2M523.9,363.8H728.5M524.3,393.4V364.2M587,393.4V364.2m70.6,29.2V364.2m70.6,29.2V364.2M523.9,393.8H728.5M524.3,423.4V394.1M587,423.4V394.1m70.6,29.3V394.1m70.6,29.3V394.1M523.9,423.7H728.5M524.3,453.3V424.1M587,453.3V424.1m70.6,29.2V424.1m70.6,29.2V424.1M523.9,453.7H728.5M524.3,483.3V454M587,483.3V454m70.6,29.3V454m70.6,29.3V454M523.9,483.6H728.5M524.3,513.2V484M587,513.2V484m70.6,29.2V484m70.6,29.2V484M523.9,513.6H728.5" class="g0_23"/>
<path d="M116.9,1100.7V869c0,-21.6,17.6,-39.1,39.2,-39.1H792.5v231.7c0,21.6,-17.5,39.1,-39.1,39.1Z" class="gb_23"/>
<path d="M119.5,1098.1V862.3H789.9v199.3c0,20.1,-16.3,36.5,-36.5,36.5Z" class="gc_23"/>
</svg>