<?xml version="1.0" encoding="UTF-8" standalone="no"?>
<!DOCTYPE svg PUBLIC "-//W3C//DTD SVG 1.1//EN"
"http://www.w3.org/Graphics/SVG/1.1/DTD/svg11.dtd">
<svg viewBox="0 0 1286 909" version="1.1" xmlns="http://www.w3.org/2000/svg" xmlns:xlink="http://www.w3.org/1999/xlink">
<defs>
<style type="text/css"><![CDATA[
.g0_917{
fill: none;
stroke: #000000;
stroke-width: 0.73;
stroke-linecap: butt;
stroke-linejoin: miter;
}
.g1_917{
fill: none;
stroke: #02B5EE;
stroke-width: 1.262;
stroke-linecap: butt;
stroke-linejoin: miter;
}
.g2_917{
fill: #FFCCCC;
}
.g3_917{
fill: none;
stroke: #02B5EE;
stroke-width: 0.73;
stroke-linecap: butt;
stroke-linejoin: miter;
}
.g4_917{
fill: none;
stroke: #FFA313;
stroke-width: 1.262;
stroke-linecap: butt;
stroke-linejoin: miter;
}
.g5_917{
fill: none;
stroke: #FFA313;
stroke-width: 0.73;
stroke-linecap: butt;
stroke-linejoin: miter;
}
]]></style>
</defs>
<path d="M193,83.4h900.3M193,111.6H967.1m-774.1,0H967.1M478.9,141.2V112m0,114.3V141.2" class="g0_917"/>
<path d="M594,202.3h63.6" class="g1_917"/>
<path d="M863.7,190.6h92.5V157.7H863.7v32.9Z" class="g2_917"/>
<path d="M478.9,255.5V226.3m0,102.2v-73" class="g0_917"/>
<path d="M729.7,304.8h91.4V271.9H729.7v32.9Z" class="g2_917"/>
<path d="M922.4,314.7h33.8" class="g3_917"/>
<path d="M478.9,357.8V328.5m0,58.5V357.8m0,114.2V387" class="g0_917"/>
<path d="M631.8,448h34.6" class="g1_917"/>
<path d="M676.9,448H810.6" class="g4_917"/>
<path d="M478.9,501.2V472m0,102.3V501.2" class="g0_917"/>
<path d="M804.2,560.4H922.4" class="g5_917"/>
<path d="M922.4,560.4h33.8" class="g3_917"/>
<path d="M478.9,603.5V574.3M193,603.9H967.1m-774.1,0H967.1" class="g0_917"/>
</svg>