<?xml version="1.0" encoding="UTF-8" standalone="no"?>
<!DOCTYPE svg PUBLIC "-//W3C//DTD SVG 1.1//EN"
"http://www.w3.org/Graphics/SVG/1.1/DTD/svg11.dtd">
<svg viewBox="0 0 909 1286" version="1.1" xmlns="http://www.w3.org/2000/svg" xmlns:xlink="http://www.w3.org/1999/xlink">
<defs>
<clipPath id="c0_12"><path d="M122.1,297.8V263.4H153v34.4Z"/></clipPath>
<style type="text/css"><![CDATA[
.g0_12{
fill: none;
stroke: #000000;
stroke-width: 0.73;
stroke-linecap: butt;
stroke-linejoin: miter;
}
.g1_12{
fill: #FFFFFF;
}
.g2_12{
fill: #9F0202;
}
.g3_12{
fill: none;
stroke: #000000;
stroke-width: 0.375;
stroke-linecap: round;
stroke-linejoin: round;
}
.g4_12{
fill: none;
stroke: #000000;
stroke-width: 1.461;
stroke-linecap: butt;
stroke-linejoin: miter;
}
.g5_12{
fill: none;
stroke: #000000;
stroke-width: 2.739;
stroke-linecap: butt;
stroke-linejoin: miter;
}
.g6_12{
fill: #FED0E9;
}
.g7_12{
fill: #FFCCCC;
}
]]></style>
</defs>
<path d="M116.9,159.9H792.5" class="g0_12"/>
<path d="M117.7,399.8V257.1H791.8V399.8Z" class="g1_12"/>
<path d="M117.7,399.8V257.1H791.8V399.8Z" class="g4_12"/>
<g clip-path="url(#c0_12)">
<path d="M133.8,286.8l-1,-.3c.6,-1.6,1.3,-3,1.9,-4c.7,-1,2,-2.3,3.7,-3.9c1.4,-1.3,2.3,-2.2,2.8,-3c.5,-.7,.9,-1.5,1.1,-2.3c.5,-1.7,.4,-3.2,-.4,-4.5c-.7,-1.3,-1.8,-2.2,-3.3,-2.6c-1.4,-.4,-2.5,-.4,-3.4,-.1c-.9,.3,-1.5,.8,-1.7,1.5c-.1,.5,-.1,1.1,.2,2c.2,.9,.3,1.5,.2,1.8c-.1,.5,-.4,.9,-.9,1.1c-.4,.2,-.9,.3,-1.4,.1c-.6,-.2,-1.1,-.6,-1.5,-1.3c-.4,-.7,-.4,-1.6,-.1,-2.6c.4,-1.5,1.5,-2.6,3.3,-3.3c1.9,-.8,4,-.8,6.6,-.1c3.1,.9,5.2,2.4,6.2,4.4c.8,1.5,1,3,.5,4.4c-.2,1,-.8,1.9,-1.6,2.8c-.7,.9,-2,1.9,-3.8,2.9c-2.9,1.5,-4.7,2.7,-5.4,3.5c-.8,.7,-1.5,1.9,-2,3.5Z" class="g2_12"/>
<path d="M132.7,289.2c.7,.2,1.3,.6,1.7,1.2c.3,.5,.4,1.2,.3,1.8c-.2,.6,-.6,1,-1.2,1.4c-.7,.2,-1.3,.3,-2,.1c-.7,-.2,-1.3,-.6,-1.7,-1.2c-.3,-.6,-.4,-1.2,-.2,-1.8c.1,-.6,.5,-1.1,1.1,-1.4c.7,-.3,1.3,-.3,2,-.1Z" class="g2_12"/>
<path d="M133.8,286.8l-1,-.3c.6,-1.6,1.3,-3,1.9,-4c.7,-1,2,-2.3,3.7,-3.9c1.4,-1.3,2.3,-2.2,2.8,-3c.5,-.7,.9,-1.5,1.1,-2.3c.5,-1.7,.4,-3.2,-.4,-4.5c-.7,-1.3,-1.8,-2.2,-3.3,-2.6c-1.4,-.4,-2.5,-.4,-3.4,-.1c-.9,.3,-1.5,.8,-1.7,1.5c-.1,.5,-.1,1.1,.2,2c.2,.9,.3,1.5,.2,1.8c-.1,.5,-.4,.9,-.9,1.1c-.4,.2,-.9,.3,-1.4,.1c-.6,-.2,-1.1,-.6,-1.5,-1.3c-.4,-.7,-.4,-1.6,-.1,-2.6c.4,-1.5,1.5,-2.6,3.3,-3.3c1.9,-.8,4,-.8,6.6,-.1c3.1,.9,5.2,2.4,6.2,4.4c.8,1.5,1,3,.5,4.4c-.2,1,-.8,1.9,-1.6,2.8c-.7,.9,-2,1.9,-3.8,2.9c-2.9,1.5,-4.7,2.7,-5.4,3.5c-.8,.7,-1.5,1.9,-2,3.5m-1.1,2.4c.8,.2,1.3,.6,1.7,1.2c.3,.5,.4,1.2,.3,1.8c-.2,.6,-.6,1,-1.2,1.4c-.7,.2,-1.3,.3,-2,.1c-.7,-.2,-1.3,-.6,-1.7,-1.2c-.3,-.6,-.4,-1.2,-.2,-1.8c.1,-.6,.5,-1.1,1.1,-1.4c.7,-.3,1.3,-.3,2,-.1" class="g3_12"/>
</g>
<path d="M152.7,293.2h369" class="g0_12"/>
<path d="M137.6,298.4v91.9" class="g5_12"/>
<path d="M161.2,1120.3V442.5" class="g0_12"/>
<path d="M407.4,877.2V842.5c0,-2.9,2.4,-5.2,5.2,-5.2H547.9c2.8,0,5.2,2.3,5.2,5.2v34.7c0,2.9,-2.4,5.2,-5.2,5.2H412.6c-2.8,0,-5.2,-2.3,-5.2,-5.2Z" class="g6_12"/>
<path d="M485.6,962.9V929.3c0,-2.9,2.3,-5.2,5.2,-5.2h57.1c2.8,0,5.2,2.3,5.2,5.2v33.6c0,2.8,-2.4,5.2,-5.2,5.2H490.8c-2.9,0,-5.2,-2.4,-5.2,-5.2Z" class="g7_12"/>
<path d="M582.2,1086.8h21.6M665.6,858.5c23.8,23.8,24,62.3,.6,86.3m7,-.2c-2.4,.3,-4.8,.4,-7.2,.5c-.1,-2.4,-.2,-4.7,-.5,-7m.1,11.2c18.9,19,19.1,49.6,.6,68.8m7.1,-.4c-2.5,.3,-4.9,.5,-7.3,.6c-.1,-2.3,-.3,-4.6,-.6,-6.9m.2,11.2c17.7,17.6,17.9,46.3,.6,64.2m7.1,-.4c-2.5,.4,-4.9,.6,-7.3,.7c-.1,-2.4,-.3,-4.7,-.7,-6.9m-504.1,69.3v-29.2" class="g0_12"/>
</svg>