<?xml version="1.0" encoding="UTF-8" standalone="no"?>
<!DOCTYPE svg PUBLIC "-//W3C//DTD SVG 1.1//EN"
"http://www.w3.org/Graphics/SVG/1.1/DTD/svg11.dtd">
<svg viewBox="0 0 909 1286" version="1.1" xmlns="http://www.w3.org/2000/svg" xmlns:xlink="http://www.w3.org/1999/xlink">
<defs>
<style type="text/css"><![CDATA[
.g0_21{
fill: none;
stroke: #000000;
stroke-width: 1.461;
stroke-linecap: butt;
stroke-linejoin: miter;
}
.g1_21{
fill: none;
stroke: #000000;
stroke-width: 0.152;
stroke-linecap: butt;
stroke-linejoin: miter;
}
.g2_21{
fill: none;
stroke: #000000;
stroke-width: 0.73;
stroke-linecap: butt;
stroke-linejoin: miter;
}
.g3_21{
fill: none;
stroke: #F81693;
stroke-width: 2.191;
stroke-linecap: butt;
stroke-linejoin: miter;
}
.g4_21{
fill: #C6EAFA;
}
.g5_21{
fill: none;
stroke: #F81693;
stroke-width: 1.826;
stroke-linecap: butt;
stroke-linejoin: miter;
}
.g6_21{
fill: #F81693;
stroke: #F81693;
stroke-width: 1.65;
stroke-linecap: butt;
stroke-linejoin: round;
stroke-miterlimit: 1;
}
.g7_21{
fill: #7F7F7F;
stroke: #7F7F7F;
stroke-width: 1.65;
stroke-linecap: butt;
stroke-linejoin: round;
stroke-miterlimit: 1;
}
.g8_21{
fill: #02B5EE;
stroke: #02B5EE;
stroke-width: 1.65;
stroke-linecap: butt;
stroke-linejoin: round;
stroke-miterlimit: 1;
}
.g9_21{
fill: none;
stroke: #02B5EE;
stroke-width: 1.095;
stroke-linecap: butt;
stroke-linejoin: miter;
}
.ga_21{
fill: none;
stroke: #F81693;
stroke-width: 1.095;
stroke-linecap: butt;
stroke-linejoin: miter;
}
]]></style>
</defs>
<path d="M117.7,343.8V198.5m18.2,-18.2H631.5" class="g0_21"/>
<path d="M117.3,198.5h.7" class="g1_21"/>
<path d="M135.9,180.3h17.9" class="g2_21"/>
<path d="M792.9,198.5h.7" class="g1_21"/>
<path d="M756.3,180.3h17.9M455.5,291.6l31.2,-18.7m0,-.1V236.2m-62.5,0h62.5m-62.5,36.6V236.2m31.3,55.4L424.2,272.9m6,-30.6h50.6m5.9,30.5l31.2,18.6m0,36.7V291.6m-31.2,55.3l31.2,-18.6m-31.2,18.6L455.5,328.3m0,-.2V291.6m30.1,-11.2l-23,13.7m49.3,29.3V296.3m-26.3,42.9l-23,-13.7m-7.1,2.6V291.6m-31.3,55.3l31.3,-18.6m-31.3,18.6L393,328.3m0,-.2V291.6m31.2,-18.8L393,291.4m30.1,-11l-23,13.7m23,45.1l-23,-13.7" class="g2_21"/>
<path d="M117.3,344.2h.7" class="g1_21"/>
<path d="M135.9,362.4h17.9" class="g2_21"/>
<path d="M792.9,344.2h.7" class="g1_21"/>
<path d="M756.3,362.4h17.9" class="g2_21"/>
<path d="M135.9,362.1H775m18.2,-18.3V198.5" class="g0_21"/>
<path d="M244.2,478.4l31.2,-18.6m0,-.2V423m-62.5,0h62.5m-62.5,36.6V423m31.3,55.4L212.9,459.8M219,429.1h50.6m5.8,30.5l31.2,18.6m0,36.7V478.4m-31.2,55.3l31.2,-18.6m-31.2,18.6L244.2,515.1m0,-.2V478.4m30.1,-11.2l-23,13.7m49.3,29.3V483.1m-26.3,43l-23,-13.7m-7.1,2.5V478.4m-31.3,55.3l31.3,-18.6m-31.3,18.6L181.7,515.1m0,-.2V478.4m31.2,-18.8l-31.2,18.6m30.1,-11l-23,13.7m23,45.2l-23,-13.7" class="g2_21"/>
<path d="M166.2,497.8H348.1" class="g3_21"/>
<path d="M244.2,497.8V393.9H348.1V497.8Z" class="g4_21"/>
<path d="M608,461.7l-31.3,18.6m0,.2V517m62.5,0H576.7m62.5,-36.5V517M608,461.7l31.2,18.6m-6,30.7H582.6m-5.9,-30.5L545.5,461.9m0,-36.8v36.6m31.2,-55.4L545.5,425m31.2,-18.7L608,425m0,.1v36.6m-30.2,11.1l23,-13.7M551.5,429.9v27M577.8,414l23,13.7m7.2,-2.6v36.6m31.2,-55.4L608,425m31.2,-18.7L670.4,425m0,.1v36.6m-31.2,18.8l31.2,-18.6m-30.1,10.9l23,-13.7M640.3,414l23,13.7" class="g2_21"/>
<path d="M530,445.8H711.9" class="g3_21"/>
<path d="M608,497.8V393.9H711.9V497.8Z" class="g4_21"/>
<path d="M530.2,646.3l78.1,46.6m0,91.7V693.3M530.2,831.7l78.1,-46.6m-78.1,46.6L452.1,785.1m0,-.5V693.3m78.1,-47l-78.1,46.6m-78,-46.6l78,46.6m-78,138.8l78,-46.6m-78,46.6L296,785.1m0,-.5V693.3m78.1,-47L296,692.9M527.5,665.5l-57.6,34.2m123.3,73.1V705.2M527.5,812.5L469.9,778.3M371.3,665.5l-57.5,34.2m57.5,112.8L313.8,778.3" class="g5_21"/>
<path d="M463.7,693.3c0,5,-3.2,9.5,-8,11c-4.8,1.5,-10,-.1,-12.9,-4.2c-2.9,-4,-2.9,-9.5,0,-13.6c2.9,-4,8.1,-5.7,12.9,-4.2c4.8,1.6,8,6,8,11Z" class="g6_21"/>
<path d="M541.8,646.3c0,5,-3.2,9.4,-8,11c-4.8,1.5,-10,-.2,-12.9,-4.2c-3,-4.1,-3,-9.6,0,-13.6c2.9,-4.1,8.1,-5.7,12.9,-4.2c4.8,1.5,8,6,8,11Z" class="g7_21"/>
<path d="M619.9,693.3c0,5,-3.3,9.5,-8,11c-4.8,1.5,-10,-.1,-12.9,-4.2c-3,-4,-3,-9.5,0,-13.6c2.9,-4,8.1,-5.7,12.9,-4.2c4.7,1.6,8,6,8,11Z" class="g7_21"/>
<path d="M619.9,784.7c0,5,-3.3,9.4,-8,10.9c-4.8,1.6,-10,-.1,-12.9,-4.2c-3,-4,-3,-9.5,0,-13.5c2.9,-4.1,8.1,-5.8,12.9,-4.2c4.7,1.5,8,5.9,8,11Z" class="g7_21"/>
<path d="M541.8,831.7c0,5,-3.2,9.4,-8,11c-4.8,1.5,-10,-.2,-12.9,-4.2c-3,-4.1,-3,-9.6,0,-13.6c2.9,-4,8.1,-5.7,12.9,-4.2c4.8,1.5,8,6,8,11Z" class="g7_21"/>
<path d="M463.7,784.7c0,5,-3.2,9.4,-8,10.9c-4.8,1.6,-10,-.1,-12.9,-4.2c-2.9,-4,-2.9,-9.5,0,-13.5c2.9,-4.1,8.1,-5.8,12.9,-4.2c4.8,1.5,8,5.9,8,11Z" class="g8_21"/>
<path d="M385.6,831.7c0,5,-3.2,9.4,-8,11c-4.7,1.5,-10,-.2,-12.9,-4.2c-2.9,-4.1,-2.9,-9.6,0,-13.6c2.9,-4,8.2,-5.7,12.9,-4.2c4.8,1.5,8,6,8,11Z" class="g7_21"/>
<path d="M459.3,976.6l-46.9,27.9m0,.3v54.8m93.7,0H412.4m93.7,-54.8v54.8m-46.8,-83l46.8,27.9m-9,46.1H421.2" class="g9_21"/>
<path d="M412.4,1004.8L365.6,976.9m0,-55.1v54.8m46.8,-83l-46.8,27.9m46.8,-27.9l46.9,27.9m0,.3v54.8m-45.2,16.7l34.5,-20.5m-74,-43.9v40.6m39.5,-64.4l34.5,20.5m10.7,-3.8v54.8m46.8,-83l-46.8,27.9m46.8,-27.9L553,921.5m0,.3v54.8m-46.9,28.2L553,976.9m-45.2,16.4l34.5,-20.5M507.8,905.1l34.5,20.5" class="ga_21"/>
</svg>