<?xml version="1.0" encoding="UTF-8" standalone="no"?>
<!DOCTYPE svg PUBLIC "-//W3C//DTD SVG 1.1//EN"
"http://www.w3.org/Graphics/SVG/1.1/DTD/svg11.dtd">
<svg viewBox="0 0 1286 909" version="1.1" xmlns="http://www.w3.org/2000/svg" xmlns:xlink="http://www.w3.org/1999/xlink">
<defs>
<style type="text/css"><![CDATA[
.g0_627{
fill: none;
stroke: #000000;
stroke-width: 0.73;
stroke-linecap: butt;
stroke-linejoin: miter;
}
.g1_627{
fill: none;
stroke: #02B5EE;
stroke-width: 1.262;
stroke-linecap: butt;
stroke-linejoin: miter;
}
.g2_627{
fill: none;
stroke: #FFA313;
stroke-width: 1.262;
stroke-linecap: butt;
stroke-linejoin: miter;
}
.g3_627{
fill: none;
stroke: #FFA313;
stroke-width: 0.73;
stroke-linecap: butt;
stroke-linejoin: miter;
}
.g4_627{
fill: none;
stroke: #02B5EE;
stroke-width: 0.73;
stroke-linecap: butt;
stroke-linejoin: miter;
}
]]></style>
</defs>
<path d="M193,83.4h900.3M193,210.6H823.1m-630.1,0H823.1M430.3,240.2V211m0,58.5V240.2m0,114.3v-85" class="g0_627"/>
<path d="M521.5,330.5h34.6" class="g1_627"/>
<path d="M566.7,330.5H682.8" class="g2_627"/>
<path d="M430.3,384.6V354.5m0,103.2V384.6" class="g0_627"/>
<path d="M727.7,443.8h50.7" class="g3_627"/>
<path d="M778.4,443.8h33.8" class="g4_627"/>
<path d="M430.3,486.9V457.7m0,58.5V486.9m0,114.3v-85" class="g0_627"/>
<path d="M441.3,577.2h34.6" class="g1_627"/>
<path d="M486.4,577.2H812.2" class="g2_627"/>
<path d="M430.3,631.3V601.2m0,103.2V631.3" class="g0_627"/>
<path d="M591.9,690.5H778.4" class="g3_627"/>
<path d="M778.4,690.5h33.8" class="g4_627"/>
<path d="M430.3,733.6V704.4M193,734H823.1M193,734H823.1" class="g0_627"/>
</svg>