<?xml version="1.0" encoding="UTF-8" standalone="no"?>
<!DOCTYPE svg PUBLIC "-//W3C//DTD SVG 1.1//EN"
"http://www.w3.org/Graphics/SVG/1.1/DTD/svg11.dtd">
<svg viewBox="0 0 1286 909" version="1.1" xmlns="http://www.w3.org/2000/svg" xmlns:xlink="http://www.w3.org/1999/xlink">
<defs>
<style type="text/css"><![CDATA[
.g0_723{
fill: none;
stroke: #000000;
stroke-width: 0.73;
stroke-linecap: butt;
stroke-linejoin: miter;
}
.g1_723{
fill: #FFCCCC;
}
.g2_723{
fill: none;
stroke: #FFA313;
stroke-width: 0.73;
stroke-linecap: butt;
stroke-linejoin: miter;
}
.g3_723{
fill: none;
stroke: #02B5EE;
stroke-width: 0.73;
stroke-linecap: butt;
stroke-linejoin: miter;
}
.g4_723{
fill: none;
stroke: #02B5EE;
stroke-width: 1.262;
stroke-linecap: butt;
stroke-linejoin: miter;
}
.g5_723{
fill: none;
stroke: #5EE200;
stroke-width: 1.262;
stroke-linecap: butt;
stroke-linejoin: miter;
}
]]></style>
</defs>
<path d="M193,83.4h900.3M193,111.6h818.8m-818.8,0h818.8M504.3,141.2V112m0,102.3V141.2" class="g0_723"/>
<path d="M694.7,190.6H802.9V157.7H694.7v32.9Z" class="g1_723"/>
<path d="M809,200.4H910.4" class="g2_723"/>
<path d="M916.4,200.4h84.5" class="g3_723"/>
<path d="M504.3,243.5V214.3m0,58.4V243.5m0,114.3V272.7" class="g0_723"/>
<path d="M874.5,333.8h59.2" class="g4_723"/>
<path d="M944.2,333.8h56.7" class="g5_723"/>
<path d="M504.3,387V357.8m0,58.4V387m0,58.4V416.2m0,58.5V445.4m0,59.4V474.7m0,59.4V504.8M193,534.4h818.8m-818.8,0h818.8" class="g0_723"/>
</svg>