<?xml version="1.0" encoding="UTF-8" standalone="no"?>
<!DOCTYPE svg PUBLIC "-//W3C//DTD SVG 1.1//EN"
"http://www.w3.org/Graphics/SVG/1.1/DTD/svg11.dtd">
<svg viewBox="0 0 909 1286" version="1.1" xmlns="http://www.w3.org/2000/svg" xmlns:xlink="http://www.w3.org/1999/xlink">
<defs>
<style type="text/css"><![CDATA[
.g0_41{
fill: none;
stroke: #000000;
stroke-width: 0.73;
stroke-linecap: butt;
stroke-linejoin: miter;
}
.g1_41{
fill: #FDE8E9;
}
]]></style>
</defs>
<path d="M116.9,159.9H792.5" class="g0_41"/>
<path d="M212,212.5H697.5V184.6H212v27.9Z" class="g1_41"/>
<path d="M586.9,286H749.8V258.2H586.9V286Z" class="g1_41"/>
<path d="M236.3,315.7H348.6V287.8H236.3v27.9Z" class="g1_41"/>
<path d="M116.9,403.4H313.7V375.5H116.9v27.9Z" class="g1_41"/>
<path d="M116.9,491h163V463.2h-163V491Z" class="g1_41"/>
<path d="M116.9,660.9h44.8V633.1H116.9v27.8Z" class="g1_41"/>
<path d="M405.7,719.8H518V692H405.7v27.8Z" class="g1_41"/>
<path d="M336.5,749.5H448.8V721.6H336.5v27.9Z" class="g1_41"/>
<path d="M322.9,808.4H435.2V780.5H322.9v27.9Z" class="g1_41"/>
<path d="M557.3,808.4H669.6V780.5H557.3v27.9Z" class="g1_41"/>
<path d="M133.8,866.8H246.1V839H133.8v27.8Z" class="g1_41"/>
<path d="M579.2,866.8H691.5V839H579.2v27.8Z" class="g1_41"/>
<path d="M116.9,952.5h48.2V928.7H116.9v23.8Z" class="g1_41"/>
<path d="M525.7,954.5h78.5V926.6H525.7v27.9Z" class="g1_41"/>
<path d="M285.8,1012.9h95.4V985.1H285.8v27.8Z" class="g1_41"/>
</svg>