<?xml version="1.0" encoding="UTF-8" standalone="no"?>
<!DOCTYPE svg PUBLIC "-//W3C//DTD SVG 1.1//EN"
"http://www.w3.org/Graphics/SVG/1.1/DTD/svg11.dtd">
<svg viewBox="0 0 1286 909" version="1.1" xmlns="http://www.w3.org/2000/svg" xmlns:xlink="http://www.w3.org/1999/xlink">
<defs>
<style type="text/css"><![CDATA[
.g0_1159{
fill: none;
stroke: #000000;
stroke-width: 0.73;
stroke-linecap: butt;
stroke-linejoin: miter;
}
.g1_1159{
fill: none;
stroke: #F81693;
stroke-width: 1.262;
stroke-linecap: butt;
stroke-linejoin: miter;
}
.g2_1159{
fill: none;
stroke: #02B5EE;
stroke-width: 1.262;
stroke-linecap: butt;
stroke-linejoin: miter;
}
.g3_1159{
fill: none;
stroke: #F81693;
stroke-width: 0.73;
stroke-linecap: butt;
stroke-linejoin: miter;
}
.g4_1159{
fill: none;
stroke: #02B5EE;
stroke-width: 0.73;
stroke-linecap: butt;
stroke-linejoin: miter;
}
]]></style>
</defs>
<path d="M193,83.4h900.3M193,111.6h988.1m-988.1,0h988.1M753.3,141.2V112m0,58.5V141.2m0,114.3v-85" class="g0_1159"/>
<path d="M841.6,231.5H860" class="g1_1159"/>
<path d="M870.5,231.5h52" class="g2_1159"/>
<path d="M979.1,231.5h24.3" class="g1_1159"/>
<path d="M1013.9,231.5h156.2" class="g2_1159"/>
<path d="M753.3,284.7V255.5m0,102.3V284.7" class="g0_1159"/>
<path d="M829.4,343.9h32.1" class="g3_1159"/>
<path d="M867.6,343.9h49.7" class="g4_1159"/>
<path d="M990.9,343.9h35.5" class="g3_1159"/>
<path d="M1032.5,343.9h137.6" class="g4_1159"/>
<path d="M753.3,387V357.8m0,58.4V387m0,114.2v-85" class="g0_1159"/>
<path d="M852.8,477.3h18.3" class="g1_1159"/>
<path d="M881.6,477.3h52" class="g2_1159"/>
<path d="M990.3,477.3h24.2" class="g1_1159"/>
<path d="M1025,477.3h145.1" class="g2_1159"/>
<path d="M753.3,530.5V501.2m0,102.3v-73" class="g0_1159"/>
<path d="M812.5,589.6h32.1" class="g3_1159"/>
<path d="M850.7,589.6h49.7" class="g4_1159"/>
<path d="M974,589.6h35.5" class="g3_1159"/>
<path d="M1015.6,589.6h154.5" class="g4_1159"/>
<path d="M753.3,632.7V603.5M193,633.1h988.1m-988.1,0h988.1" class="g0_1159"/>
</svg>