<?xml version="1.0" encoding="UTF-8" standalone="no"?>
<!DOCTYPE svg PUBLIC "-//W3C//DTD SVG 1.1//EN"
"http://www.w3.org/Graphics/SVG/1.1/DTD/svg11.dtd">
<svg viewBox="0 0 1286 909" version="1.1" xmlns="http://www.w3.org/2000/svg" xmlns:xlink="http://www.w3.org/1999/xlink">
<defs>
<style type="text/css"><![CDATA[
.g0_211{
fill: none;
stroke: #000000;
stroke-width: 0.73;
stroke-linecap: butt;
stroke-linejoin: miter;
}
.g1_211{
fill: none;
stroke: #02B5EE;
stroke-width: 1.262;
stroke-linecap: butt;
stroke-linejoin: miter;
}
.g2_211{
fill: none;
stroke: #5EE200;
stroke-width: 1.262;
stroke-linecap: butt;
stroke-linejoin: miter;
}
.g3_211{
fill: #FFCCCC;
}
.g4_211{
fill: none;
stroke: #5EE200;
stroke-width: 0.73;
stroke-linecap: butt;
stroke-linejoin: miter;
}
.g5_211{
fill: none;
stroke: #02B5EE;
stroke-width: 0.73;
stroke-linecap: butt;
stroke-linejoin: miter;
}
.g6_211{
fill: none;
stroke: #FFA313;
stroke-width: 1.262;
stroke-linecap: butt;
stroke-linejoin: miter;
}
.g7_211{
fill: none;
stroke: #FFA313;
stroke-width: 0.73;
stroke-linecap: butt;
stroke-linejoin: miter;
}
]]></style>
</defs>
<path d="M193,83.4h900.3M193,111.6H837m-644,0H837M549.7,141.2V112m0,114.3V141.2" class="g0_211"/>
<path d="M560.6,202.3h103" class="g1_211"/>
<path d="M674.1,202.3h22.2" class="g2_211"/>
<path d="M717.3,190.6H826V157.7H717.3v32.9Z" class="g3_211"/>
<path d="M549.7,255.5V226.3m0,102.2v-73" class="g0_211"/>
<path d="M573.7,304.8H758V271.9H573.7v32.9Z" class="g3_211"/>
<path d="M758,314.7h34.2" class="g4_211"/>
<path d="M792.2,314.7H826" class="g5_211"/>
<path d="M549.7,357.8V328.5m0,58.5V357.8m0,114.2V387" class="g0_211"/>
<path d="M596.6,448h96.3" class="g1_211"/>
<path d="M703.4,448h24.3" class="g2_211"/>
<path d="M738.2,448H826" class="g6_211"/>
<path d="M549.7,501.2V472m0,58.5V501.2m0,114.3v-85" class="g0_211"/>
<path d="M623.5,591.5h75.4" class="g1_211"/>
<path d="M709.4,591.5h18.3" class="g2_211"/>
<path d="M738.2,591.5H826" class="g6_211"/>
<path d="M549.7,644.7V615.5m0,102.3V644.7" class="g0_211"/>
<path d="M659.8,703.9h32.1" class="g4_211"/>
<path d="M691.9,703.9H792.2" class="g7_211"/>
<path d="M792.2,703.9H826" class="g5_211"/>
<path d="M549.7,747V717.8M193,747.4H837m-644,0H837" class="g0_211"/>
</svg>