<?xml version="1.0" encoding="UTF-8" standalone="no"?>
<!DOCTYPE svg PUBLIC "-//W3C//DTD SVG 1.1//EN"
"http://www.w3.org/Graphics/SVG/1.1/DTD/svg11.dtd">
<svg viewBox="0 0 909 1286" version="1.1" xmlns="http://www.w3.org/2000/svg" xmlns:xlink="http://www.w3.org/1999/xlink">
<defs>
<clipPath id="c0_59"><path d="M119.5,288.6V255.1H446.9v33.5Z"/></clipPath>
<clipPath id="c1_59"><path d="M460.4,288.6V255.1H787.8v33.5Z"/></clipPath>
<clipPath id="c2_59"><path d="M119.5,529.7V496.2H789.9v33.5Z"/></clipPath>
<style type="text/css"><![CDATA[
.g0_59{
fill: none;
stroke: #000000;
stroke-width: 0.73;
stroke-linecap: butt;
stroke-linejoin: miter;
}
.g1_59{
fill: #7F7F7F;
fill-opacity: 0.01;
}
.g2_59{
fill: #7F7F7F;
fill-opacity: 0.02;
}
.g3_59{
fill: #7F7F7F;
fill-opacity: 0.04;
}
.g4_59{
fill: #7F7F7F;
fill-opacity: 0.07;
}
.g5_59{
fill: #7F7F7F;
fill-opacity: 0.11;
}
.g6_59{
fill: #FFFFFF;
}
.g7_59{
fill: #7F7F7F;
}
.g8_59{
fill: #00AEEF;
}
.g9_59{
fill: #CBCEFB;
}
]]></style>
</defs>
<path d="M116.9,159.9H792.5" class="g0_59"/>
<path d="M122.2,257.8c107.4,0,214.7,0,322,0V489.3c-107.3,-9.4,-214.6,-9.4,-322,0Z" class="g1_59"/>
<path d="M122.9,258.4c106.9,0,213.8,0,320.7,0V488.7c-106.9,-9.4,-213.8,-9.4,-320.7,0Z" class="g2_59"/>
<path d="M123.5,259.1c106.5,0,213,0,319.5,0V488c-106.5,-9.3,-213,-9.3,-319.5,0Z" class="g3_59"/>
<path d="M124.1,259.7c106.1,0,212.2,0,318.3,0V487.4c-106.1,-9.3,-212.2,-9.3,-318.3,0Z" class="g4_59"/>
<path d="M124.7,260.3c105.7,0,211.4,0,317,0V486.8c-105.6,-9.4,-211.3,-9.4,-317,0Z" class="g5_59"/>
<path d="M125.4,260.9c105.2,0,210.5,0,315.7,0V486.2c-105.2,-9.4,-210.5,-9.4,-315.7,0Z" class="g5_59"/>
<path d="M126,261.6c104.8,0,209.7,0,314.5,0V485.5c-104.8,-9.3,-209.7,-9.3,-314.5,0Z" class="g4_59"/>
<path d="M126.6,262.2c104.4,0,208.8,0,313.3,0V484.9c-104.5,-9.3,-208.9,-9.3,-313.3,0Z" class="g3_59"/>
<path d="M127.2,262.8c104,0,208,0,312,0V484.3c-104,-9.4,-208,-9.4,-312,0Z" class="g2_59"/>
<path d="M127.9,263.4c103.5,0,207.1,0,310.7,0V483.7c-103.6,-9.4,-207.2,-9.4,-310.7,0Z" class="g1_59"/>
<path d="M116.9,479V252.5H449.5V479Z" class="g6_59"/>
<path d="M119.5,476.4V291.2H446.9V476.4Z" class="g6_59"/>
<path d="M119.5,288.6V255.1H446.9v33.5Z" class="g7_59"/>
<g clip-path="url(#c0_59)">
<image x="119" y="254" width="329" height="34" xlink:href="shade/1.png"/>
</g>
<path d="M316.9,283.4h104V260.3h-104v23.1Z" class="g8_59"/>
<path d="M173.9,340.6H392.5M174.3,370.2V341" class="g0_59"/>
<path d="M174.7,370.2H282.9V341H174.7v29.2Z" class="g9_59"/>
<path d="M283.2,370.2V341" class="g0_59"/>
<path d="M283.6,370.2H391.8V341H283.6v29.2Z" class="g9_59"/>
<path d="M392.2,370.2V341M173.9,370.6H392.5M174.3,400.2V370.9m108.9,29.3V370.9m109,29.3V370.9M173.9,400.5H392.5M174.3,430.1V400.9m108.9,29.2V400.9m109,29.2V400.9M173.9,430.5H392.5M174.3,460.1V430.8m108.9,29.3V430.8m109,29.3V430.8M173.9,460.4H392.5" class="g0_59"/>
<path d="M463.1,257.8c107.3,0,214.6,0,322,0V455.1c-107.4,-9.3,-214.7,-9.3,-322,0Z" class="g1_59"/>
<path d="M463.7,258.4c106.9,0,213.8,0,320.7,0V454.5c-106.9,-9.4,-213.8,-9.4,-320.7,0Z" class="g2_59"/>
<path d="M464.3,259.1c106.5,0,213,0,319.5,0V453.9c-106.5,-9.4,-213,-9.4,-319.5,0Z" class="g3_59"/>
<path d="M464.9,259.7c106.1,0,212.2,0,318.3,0V453.3c-106.1,-9.4,-212.2,-9.4,-318.3,0Z" class="g4_59"/>
<path d="M465.6,260.3c105.6,0,211.3,0,317,0V452.6c-105.7,-9.3,-211.4,-9.3,-317,0Z" class="g5_59"/>
<path d="M466.2,260.9c105.2,0,210.5,0,315.7,0V452c-105.2,-9.3,-210.5,-9.3,-315.7,0Z" class="g5_59"/>
<path d="M466.8,261.6c104.8,0,209.7,0,314.5,0V451.4C676.5,442,571.6,442,466.8,451.4Z" class="g4_59"/>
<path d="M467.4,262.2c104.5,0,208.9,0,313.3,0V450.8c-104.4,-9.4,-208.8,-9.4,-313.3,0Z" class="g3_59"/>
<path d="M468.1,262.8c104,0,208,0,312,0V450.1c-104,-9.3,-208,-9.3,-312,0Z" class="g2_59"/>
<path d="M468.7,263.4c103.6,0,207.2,0,310.7,0V449.5c-103.5,-9.3,-207.1,-9.3,-310.7,0Z" class="g1_59"/>
<path d="M457.8,444.8V252.5H790.4V444.8Z" class="g6_59"/>
<path d="M460.4,442.2v-151H787.8v151Z" class="g6_59"/>
<path d="M460.4,288.6V255.1H787.8v33.5Z" class="g7_59"/>
<g clip-path="url(#c1_59)">
<image x="460" y="254" width="329" height="34" xlink:href="shade/2.png"/>
</g>
<path d="M657.8,283.4h104V260.3h-104v23.1Z" class="g8_59"/>
<path d="M548.3,336.4H699.8M548.7,366V336.8" class="g0_59"/>
<path d="M549,366h98.7V336.8H549V366Z" class="g9_59"/>
<path d="M648,366V336.8" class="g0_59"/>
<path d="M648.4,366h50.7V336.8H648.4V366Z" class="g9_59"/>
<path d="M699.4,366V336.8M548.3,366.4H699.8M548.7,396V366.7M648,396V366.7M699.4,396V366.7M548.3,396.3H699.8M548.7,425.9V396.7M648,425.9V396.7m51.4,29.2V396.7M548.3,426.3H699.8" class="g0_59"/>
<path d="M122.2,498.9c221.7,0,443.4,0,665,0v531c-221.6,-9.3,-443.3,-9.3,-665,0Z" class="g1_59"/>
<path d="M122.9,499.5c221.2,0,442.4,0,663.7,0v529.8c-221.3,-9.4,-442.5,-9.4,-663.7,0Z" class="g2_59"/>
<path d="M123.5,500.1c220.8,0,441.6,0,662.5,0v528.6c-220.9,-9.4,-441.7,-9.4,-662.5,0Z" class="g3_59"/>
<path d="M124.1,500.8c220.4,0,440.8,0,661.2,0V1028c-220.4,-9.3,-440.8,-9.3,-661.2,0Z" class="g4_59"/>
<path d="M124.7,501.4c220,0,440,0,660,0v526c-220,-9.3,-440,-9.3,-660,0Z" class="g5_59"/>
<path d="M125.4,502c219.5,0,439.1,0,658.7,0v524.8c-219.6,-9.4,-439.2,-9.4,-658.7,0Z" class="g5_59"/>
<path d="M126,502.6c219.1,0,438.3,0,657.5,0v523.6c-219.2,-9.4,-438.4,-9.4,-657.5,0Z" class="g4_59"/>
<path d="M126.6,503.3c218.8,0,437.5,0,656.3,0v522.2c-218.8,-9.3,-437.5,-9.3,-656.3,0Z" class="g3_59"/>
<path d="M127.2,503.9c218.4,0,436.7,0,655,0v521c-218.3,-9.3,-436.6,-9.3,-655,0Z" class="g2_59"/>
<path d="M127.9,504.5c217.9,0,435.8,0,653.7,0v519.8c-217.9,-9.4,-435.8,-9.4,-653.7,0Z" class="g1_59"/>
<path d="M116.9,1019.6v-526H792.5v526Z" class="g6_59"/>
<path d="M119.5,1017V532.3H789.9V1017Z" class="g6_59"/>
<path d="M119.5,529.7V496.2H789.9v33.5Z" class="g7_59"/>
<g clip-path="url(#c2_59)">
<image x="119" y="495" width="672" height="35" xlink:href="shade/3.png"/>
</g>
<path d="M659.9,524.5h104V501.4h-104v23.1Z" class="g8_59"/>
<path d="M231.7,581.7h446M232.1,611.3V582.1" class="g0_59"/>
<path d="M232.4,611.3H350.2V582.1H232.4v29.2Z" class="g9_59"/>
<path d="M350.6,611.3V582.1" class="g0_59"/>
<path d="M351,611.3H459.2V582.1H351v29.2Z" class="g9_59"/>
<path d="M459.5,611.3V582.1" class="g0_59"/>
<path d="M459.9,611.3h98.6V582.1H459.9v29.2Z" class="g9_59"/>
<path d="M558.9,611.3V582.1" class="g0_59"/>
<path d="M559.2,611.3H677V582.1H559.2v29.2Z" class="g9_59"/>
<path d="M677.4,611.3V582.1M231.7,611.7h446M232.1,641.3V612m118.5,29.3V612m108.9,29.3V612m99.4,29.3V612m118.5,29.3V612M231.7,641.6h446M232.1,671.2V642m118.5,29.2V642m108.9,29.2V642m99.4,29.2V642m118.5,29.2V642M231.7,671.6h446M232.1,701.2V671.9m118.5,29.3V671.9m108.9,29.3V671.9m99.4,29.3V671.9m118.5,29.3V671.9M231.7,701.5h446M232.1,731.1V701.9m118.5,29.2V701.9m108.9,29.2V701.9m99.4,29.2V701.9m118.5,29.2V701.9M231.7,731.5h446M232.1,761.1V731.8m118.5,29.3V731.8m108.9,29.3V731.8m99.4,29.3V731.8m118.5,29.3V731.8M231.7,761.4h446M232.1,791V761.8M350.6,791V761.8M459.5,791V761.8M558.9,791V761.8M677.4,791V761.8M231.7,791.4h446M232.1,821V791.8M350.6,821V791.8M459.5,821V791.8M558.9,821V791.8M677.4,821V791.8M231.7,821.3h446M232.1,850.9V821.7m118.5,29.2V821.7m108.9,29.2V821.7m99.4,29.2V821.7m118.5,29.2V821.7M231.7,851.3h446M232.1,880.9V851.7m118.5,29.2V851.7m108.9,29.2V851.7m99.4,29.2V851.7m118.5,29.2V851.7M231.7,881.3h446M232.1,910.8V881.6m118.5,29.2V881.6m108.9,29.2V881.6m99.4,29.2V881.6m118.5,29.2V881.6M231.7,911.2h446M232.1,940.8V911.6m118.5,29.2V911.6m108.9,29.2V911.6m99.4,29.2V911.6m118.5,29.2V911.6M231.7,941.2h446M232.1,970.7V941.5m118.5,29.2V941.5m108.9,29.2V941.5m99.4,29.2V941.5m118.5,29.2V941.5M231.7,971.1h446m-445.6,29.6V971.5m118.5,29.2V971.5m108.9,29.2V971.5m99.4,29.2V971.5m118.5,29.2V971.5m-445.7,29.6h446" class="g0_59"/>
</svg>