<?xml version="1.0" encoding="UTF-8" standalone="no"?>
<!DOCTYPE svg PUBLIC "-//W3C//DTD SVG 1.1//EN"
"http://www.w3.org/Graphics/SVG/1.1/DTD/svg11.dtd">
<svg viewBox="0 0 1286 909" version="1.1" xmlns="http://www.w3.org/2000/svg" xmlns:xlink="http://www.w3.org/1999/xlink">
<defs>
<style type="text/css"><![CDATA[
.g0_39{
fill: none;
stroke: #000000;
stroke-width: 0.73;
stroke-linecap: butt;
stroke-linejoin: miter;
}
.g1_39{
fill: none;
stroke: #02B5EE;
stroke-width: 1.262;
stroke-linecap: butt;
stroke-linejoin: miter;
}
.g2_39{
fill: none;
stroke: #02B5EE;
stroke-width: 0.73;
stroke-linecap: butt;
stroke-linejoin: miter;
}
.g3_39{
fill: none;
stroke: #FFA313;
stroke-width: 1.262;
stroke-linecap: butt;
stroke-linejoin: miter;
}
.g4_39{
fill: none;
stroke: #FFA313;
stroke-width: 0.73;
stroke-linecap: butt;
stroke-linejoin: miter;
}
]]></style>
</defs>
<path d="M193,83.4h900.3M573.9,141.2V112m0,58.5V141.2m0,58.5V170.5m0,114.2v-85" class="g0_39"/>
<path d="M710.7,260.7H818.4" class="g1_39"/>
<path d="M573.9,313.9V284.7m0,102.3V313.9" class="g0_39"/>
<path d="M754.4,373.1H957.1" class="g2_39"/>
<path d="M573.9,416.2V387m0,58.4V416.2m0,114.3V445.4" class="g0_39"/>
<path d="M589.2,506.5h34.6" class="g1_39"/>
<path d="M634.3,506.5H800.4" class="g3_39"/>
<path d="M573.9,559.7V530.5m0,102.2v-73" class="g0_39"/>
<path d="M815.9,618.9H917.2" class="g4_39"/>
<path d="M923.3,618.9h33.8" class="g2_39"/>
<path d="M573.9,662V632.7M193,662.3H968.1m-775.1,0H968.1" class="g0_39"/>
</svg>