<?xml version="1.0" encoding="UTF-8" standalone="no"?>
<!DOCTYPE svg PUBLIC "-//W3C//DTD SVG 1.1//EN"
"http://www.w3.org/Graphics/SVG/1.1/DTD/svg11.dtd">
<svg viewBox="0 0 909 1286" version="1.1" xmlns="http://www.w3.org/2000/svg" xmlns:xlink="http://www.w3.org/1999/xlink">
<defs>
<style type="text/css"><![CDATA[
.g0_51{
fill: none;
stroke: #000000;
stroke-width: 0.73;
stroke-linecap: butt;
stroke-linejoin: miter;
}
.g1_51{
fill: #FDE8E9;
}
.g2_51{
fill: #FFFFFF;
stroke: #000000;
stroke-width: 0.913;
stroke-linecap: butt;
stroke-linejoin: miter;
}
.g3_51{
fill: none;
stroke: #000000;
stroke-width: 1.461;
stroke-linecap: butt;
stroke-linejoin: miter;
}
]]></style>
</defs>
<path d="M116.9,159.9H792.5" class="g0_51"/>
<path d="M422.8,298h27.8V270.2H422.8V298Z" class="g1_51"/>
<path d="M467.5,298h61.6V270.2H467.5V298Z" class="g1_51"/>
<path d="M370.3,327.7h27.8V299.8H370.3v27.9Z" class="g1_51"/>
<path d="M415,327.7h61.6V299.8H415v27.9Z" class="g1_51"/>
<path d="M427.2,372.9c0,-15.6,-12.7,-28.3,-28.3,-28.3c-15.7,0,-28.3,12.7,-28.3,28.3c0,15.6,12.6,28.3,28.3,28.3c15.6,0,28.3,-12.7,28.3,-28.3Z" class="g2_51"/>
<path d="M385,386.8h27.8V359H385v27.8Z" class="g1_51"/>
<path d="M523.4,476.8c0,-11.3,-9.2,-20.5,-20.6,-20.5c-11.3,0,-20.5,9.2,-20.5,20.5c0,11.4,9.2,20.6,20.5,20.6c11.4,0,20.6,-9.2,20.6,-20.6Z" class="g2_51"/>
<path d="M315.5,476.8c0,-11.3,-9.2,-20.5,-20.6,-20.5c-11.3,0,-20.5,9.2,-20.5,20.5c0,11.4,9.2,20.6,20.5,20.6c11.4,0,20.6,-9.2,20.6,-20.6Z" class="g2_51"/>
<path d="M635.1,580.8c0,-15.7,-12.7,-28.3,-28.3,-28.3c-15.7,0,-28.3,12.6,-28.3,28.3c0,15.6,12.6,28.3,28.3,28.3c15.6,0,28.3,-12.7,28.3,-28.3Z" class="g2_51"/>
<path d="M592.8,594.7h27.9V566.8H592.8v27.9Z" class="g1_51"/>
<path d="M427.2,580.8c0,-15.7,-12.7,-28.3,-28.3,-28.3c-15.7,0,-28.3,12.6,-28.3,28.3c0,15.6,12.6,28.3,28.3,28.3c15.6,0,28.3,-12.7,28.3,-28.3Z" class="g2_51"/>
<path d="M385,594.7h27.8V566.8H385v27.9Z" class="g1_51"/>
<path d="M419.2,393.2L488,462M378.5,393.2L309.8,462m207.9,29.7l68.7,68.7M488,491.7l-68.8,68.7" class="g3_51"/>
<path d="M674.3,690.1H719V662.2H674.3v27.9Z" class="g1_51"/>
<path d="M674.3,719.8H719V691.9H674.3v27.9Z" class="g1_51"/>
<path d="M437.8,778.7h44.8V750.8H437.8v27.9Z" class="g1_51"/>
<path d="M336.5,837.6h44.7V809.7H336.5v27.9Z" class="g1_51"/>
<path d="M235.2,867.2H263V839.4H235.2v27.8Z" class="g1_51"/>
<path d="M475.3,904.7c0,-11.4,-9.2,-20.6,-20.6,-20.6c-11.3,0,-20.5,9.2,-20.5,20.6c0,11.3,9.2,20.5,20.5,20.5c11.4,0,20.6,-9.2,20.6,-20.5Z" class="g2_51"/>
<path d="M587,1008.6C587,993,574.3,980.3,558.7,980.3c-15.7,0,-28.3,12.7,-28.3,28.3c0,15.6,12.6,28.3,28.3,28.3c15.6,0,28.3,-12.7,28.3,-28.3Z" class="g2_51"/>
<path d="M544.7,1022.5h27.9V994.7H544.7v27.8Z" class="g1_51"/>
<path d="M379.1,1008.6c0,-15.6,-12.7,-28.3,-28.3,-28.3c-15.6,0,-28.3,12.7,-28.3,28.3c0,15.6,12.7,28.3,28.3,28.3c15.6,0,28.3,-12.7,28.3,-28.3Z" class="g2_51"/>
<path d="M336.9,1022.5h27.8V994.7H336.9v27.8Z" class="g1_51"/>
<path d="M469.6,919.5l68.7,68.8M439.9,919.5l-68.8,68.8" class="g3_51"/>
<path d="M437.8,1117.9h44.8v-27.8H437.8v27.8Z" class="g1_51"/>
<path d="M499.5,1117.9h44.7v-27.8H499.5v27.8Z" class="g1_51"/>
</svg>