<?xml version="1.0" encoding="UTF-8" standalone="no"?>
<!DOCTYPE svg PUBLIC "-//W3C//DTD SVG 1.1//EN"
"http://www.w3.org/Graphics/SVG/1.1/DTD/svg11.dtd">
<svg viewBox="0 0 1286 909" version="1.1" xmlns="http://www.w3.org/2000/svg" xmlns:xlink="http://www.w3.org/1999/xlink">
<defs>
<style type="text/css"><![CDATA[
.g0_869{
fill: none;
stroke: #000000;
stroke-width: 0.73;
stroke-linecap: butt;
stroke-linejoin: miter;
}
.g1_869{
fill: none;
stroke: #02B5EE;
stroke-width: 1.262;
stroke-linecap: butt;
stroke-linejoin: miter;
}
.g2_869{
fill: none;
stroke: #02B5EE;
stroke-width: 0.73;
stroke-linecap: butt;
stroke-linejoin: miter;
}
]]></style>
</defs>
<path d="M193,83.4h900.3M193,210.6H927.5m-734.5,0H927.5M531.1,240.2V211m0,58.5V240.2m0,114.3v-85" class="g0_869"/>
<path d="M700.9,330.5h70" class="g1_869"/>
<path d="M531.1,383.7V354.5m0,102.3V383.7" class="g0_869"/>
<path d="M865.8,442.9h50.7" class="g2_869"/>
<path d="M531.1,486V456.8m0,58.4V486m0,114.2v-85" class="g0_869"/>
<path d="M689.9,576.2h81" class="g1_869"/>
<path d="M531.1,629.5V600.2m0,102.3v-73" class="g0_869"/>
<path d="M882.7,688.6h33.8" class="g2_869"/>
<path d="M531.1,731.7V702.5m0,58.5V731.7M193,761.3H927.5m-734.5,0H927.5" class="g0_869"/>
</svg>