<?xml version="1.0" encoding="UTF-8" standalone="no"?>
<!DOCTYPE svg PUBLIC "-//W3C//DTD SVG 1.1//EN"
"http://www.w3.org/Graphics/SVG/1.1/DTD/svg11.dtd">
<svg viewBox="0 0 1286 909" version="1.1" xmlns="http://www.w3.org/2000/svg" xmlns:xlink="http://www.w3.org/1999/xlink">
<defs>
<style type="text/css"><![CDATA[
.g0_1043{
fill: none;
stroke: #000000;
stroke-width: 0.73;
stroke-linecap: butt;
stroke-linejoin: miter;
}
.g1_1043{
fill: #F81693;
}
.g2_1043{
fill: #FFE6E6;
}
.g3_1043{
fill: none;
stroke: #F81693;
stroke-width: 1.461;
stroke-linecap: butt;
stroke-linejoin: miter;
stroke-dasharray: 2,2;
}
.g4_1043{
fill: none;
stroke: #8007AC;
stroke-width: 1.461;
stroke-linecap: butt;
stroke-linejoin: miter;
}
]]></style>
</defs>
<path d="M193,83.4h900.3M193,111.6H1237.1M193,111.6H1237.1M490.4,141.2V112m0,58.5V141.2m0,77.3v-48" class="g0_1043"/>
<path d="M530.5,210.7V178.3c0,-4.4,3.5,-7.8,7.8,-7.8h56.9c4.3,0,7.7,3.4,7.7,7.8v32.4c0,4.3,-3.4,7.8,-7.7,7.8H538.3c-4.3,0,-7.8,-3.5,-7.8,-7.8Z" class="g1_1043"/>
<path d="M533.1,210.7V178.3c0,-2.9,2.4,-5.2,5.2,-5.2h56.9c2.8,0,5.2,2.3,5.2,5.2v32.4c0,2.9,-2.4,5.2,-5.2,5.2H538.3c-2.8,0,-5.2,-2.3,-5.2,-5.2Z" class="g2_1043"/>
<path d="M617.1,214.6H991.3" class="g3_1043"/>
<path d="M1005.4,210.7V178.3c0,-4.4,3.5,-7.8,7.8,-7.8h56.3c4.3,0,7.8,3.4,7.8,7.8v32.4c0,4.3,-3.5,7.8,-7.8,7.8h-56.3c-4.3,0,-7.8,-3.5,-7.8,-7.8Z" class="g1_1043"/>
<path d="M1008,210.7V178.3c0,-2.9,2.4,-5.2,5.2,-5.2h56.3c2.8,0,5.2,2.3,5.2,5.2v32.4c0,2.9,-2.4,5.2,-5.2,5.2h-56.3c-2.8,0,-5.2,-2.3,-5.2,-5.2Z" class="g2_1043"/>
<path d="M490.4,247.7V218.5m0,72.1V247.7" class="g0_1043"/>
<path d="M973,280.4h87.9" class="g3_1043"/>
<path d="M1064.5,282.8V255.5c0,-4.3,3.5,-7.8,7.8,-7.8h94.9c4.3,0,7.8,3.5,7.8,7.8v27.3c0,4.3,-3.5,7.8,-7.8,7.8h-94.9c-4.3,0,-7.8,-3.5,-7.8,-7.8Z" class="g1_1043"/>
<path d="M1067.1,282.8V255.5c0,-2.8,2.3,-5.2,5.2,-5.2h94.9c2.8,0,5.2,2.4,5.2,5.2v27.3c0,2.9,-2.4,5.2,-5.2,5.2h-94.9c-2.9,0,-5.2,-2.3,-5.2,-5.2Z" class="g2_1043"/>
<path d="M490.4,319.8V290.6m0,58.5V319.8m0,70.1V349.1" class="g0_1043"/>
<path d="M967.4,382.1V356.9c0,-4.3,3.5,-7.8,7.8,-7.8h40.5c4.3,0,7.8,3.5,7.8,7.8v25.2c0,4.3,-3.5,7.8,-7.8,7.8H975.2c-4.3,0,-7.8,-3.5,-7.8,-7.8Z" class="g1_1043"/>
<path d="M970,382.1V356.9c0,-2.9,2.3,-5.2,5.2,-5.2h40.5c2.9,0,5.2,2.3,5.2,5.2v25.2c0,2.9,-2.3,5.2,-5.2,5.2H975.2c-2.9,0,-5.2,-2.3,-5.2,-5.2Z" class="g2_1043"/>
<path d="M1102.3,382.1V356.9c0,-4.3,3.5,-7.8,7.8,-7.8h40.6c4.3,0,7.8,3.5,7.8,7.8v25.2c0,4.3,-3.5,7.8,-7.8,7.8h-40.6c-4.3,0,-7.8,-3.5,-7.8,-7.8Z" class="g1_1043"/>
<path d="M1104.9,382.1V356.9c0,-2.9,2.4,-5.2,5.2,-5.2h40.6c2.9,0,5.2,2.3,5.2,5.2v25.2c0,2.9,-2.3,5.2,-5.2,5.2h-40.6c-2.8,0,-5.2,-2.3,-5.2,-5.2Z" class="g2_1043"/>
<path d="M1172.7,379.6h20.6" class="g3_1043"/>
<path d="M490.4,420.1V389.9m0,73V420.1" class="g0_1043"/>
<path d="M997.5,450.6h11.2" class="g3_1043"/>
<path d="M1012.3,455.1V427.8c0,-4.3,3.5,-7.7,7.8,-7.7h111.8c4.3,0,7.8,3.4,7.8,7.7v27.3c0,4.3,-3.5,7.8,-7.8,7.8H1020.1c-4.3,0,-7.8,-3.5,-7.8,-7.8Z" class="g1_1043"/>
<path d="M1014.9,455.1V427.8c0,-2.8,2.4,-5.1,5.2,-5.1h111.8c2.8,0,5.2,2.3,5.2,5.1v27.3c0,2.9,-2.4,5.2,-5.2,5.2H1020.1c-2.8,0,-5.2,-2.3,-5.2,-5.2Z" class="g2_1043"/>
<path d="M490.4,492.1V462.9m0,58.5V492.1m0,77.3v-48" class="g0_1043"/>
<path d="M907.9,561.6V529.2c0,-4.3,3.5,-7.8,7.8,-7.8h63.2c4.3,0,7.8,3.5,7.8,7.8v32.4c0,4.3,-3.5,7.8,-7.8,7.8H915.7c-4.3,0,-7.8,-3.5,-7.8,-7.8Z" class="g1_1043"/>
<path d="M910.5,561.6V529.2c0,-2.9,2.3,-5.2,5.2,-5.2h63.2c2.8,0,5.2,2.3,5.2,5.2v32.4c0,2.9,-2.4,5.2,-5.2,5.2H915.7c-2.9,0,-5.2,-2.3,-5.2,-5.2Z" class="g2_1043"/>
<path d="M1226.1,562.2c-1.6,3.3,-5.5,5.5,-10.9,5.5h-92.6c-5.5,0,-9.3,2.2,-11,5.5c-1.6,-3.3,-5.4,-5.5,-10.9,-5.5h-92.6c-5.4,0,-9.3,-2.2,-10.9,-5.5" class="g4_1043"/>
<path d="M490.4,598.7V569.4m0,58.5V598.7m0,58.4V627.9m0,77.3V657.1" class="g0_1043"/>
<path d="M1042.9,697.4V664.9c0,-4.3,3.5,-7.8,7.8,-7.8h63.2c4.3,0,7.8,3.5,7.8,7.8v32.5c0,4.3,-3.5,7.8,-7.8,7.8h-63.2c-4.3,0,-7.8,-3.5,-7.8,-7.8Z" class="g1_1043"/>
<path d="M1045.5,697.4V664.9c0,-2.9,2.4,-5.2,5.2,-5.2h63.2c2.9,0,5.2,2.3,5.2,5.2v32.5c0,2.8,-2.3,5.2,-5.2,5.2h-63.2c-2.8,0,-5.2,-2.4,-5.2,-5.2Z" class="g2_1043"/>
<path d="M1226.1,695.8c-1.6,3.3,-5.5,5.5,-10.9,5.5h-25.1c-5.4,0,-9.3,2.2,-10.9,5.5c-1.7,-3.3,-5.5,-5.5,-11,-5.5h-25c-5.5,0,-9.3,-2.2,-11,-5.5" class="g4_1043"/>
<path d="M490.4,734.4V705.2M193,734.8H1237.1M193,734.8H1237.1" class="g0_1043"/>
</svg>