<?xml version="1.0" encoding="UTF-8" standalone="no"?>
<!DOCTYPE svg PUBLIC "-//W3C//DTD SVG 1.1//EN"
"http://www.w3.org/Graphics/SVG/1.1/DTD/svg11.dtd">
<svg viewBox="0 0 909 1286" version="1.1" xmlns="http://www.w3.org/2000/svg" xmlns:xlink="http://www.w3.org/1999/xlink">
<defs>
<clipPath id="c0_54"><path d="M122.9,422.7V388.1H152v34.6Z"/></clipPath>
<clipPath id="c1_54"><path d="M122.1,423.2V387H153v36.2Z"/></clipPath>
<style type="text/css"><![CDATA[
.g0_54{
fill: #FFFFFF;
}
.g1_54{
fill: none;
stroke: #000000;
stroke-width: 1.461;
stroke-linecap: butt;
stroke-linejoin: miter;
}
.g2_54{
fill: none;
stroke: #000000;
stroke-width: 0.73;
stroke-linecap: butt;
stroke-linejoin: miter;
}
.g3_54{
}
.g4_54{
fill: none;
stroke: #5EE200;
stroke-width: 2.191;
stroke-linecap: butt;
stroke-linejoin: miter;
}
.g5_54{
fill: #5EE200;
stroke: #5EE200;
stroke-width: 2.191;
stroke-linecap: butt;
stroke-linejoin: miter;
}
.g6_54{
fill: none;
stroke: #A045C1;
stroke-width: 2.191;
stroke-linecap: butt;
stroke-linejoin: miter;
}
.g7_54{
fill: #A045C1;
stroke: #A045C1;
stroke-width: 2.191;
stroke-linecap: butt;
stroke-linejoin: miter;
}
.g8_54{
fill: #868686;
}
.g9_54{
fill: #242628;
}
.ga_54{
fill: #A0A0A0;
}
.gb_54{
fill: #C4956E;
}
.gc_54{
fill: #222426;
}
.gd_54{
fill: #202126;
}
.ge_54{
fill: #252427;
}
.gf_54{
fill: #222924;
}
.gg_54{
fill: none;
stroke: #000000;
stroke-width: 2.739;
stroke-linecap: butt;
stroke-linejoin: miter;
}
]]></style>
</defs>
<path d="M117.7,815.6V380.7H791.8V815.6Z" class="g0_54"/>
<path d="M117.7,815.6V380.7H791.8V815.6Z" class="g1_54"/>
<path d="M190.6,780.5H543.1" class="g2_54"/>
<path d="M546.8,780.5L541,777.6l2.1,2.9l-2.1,2.9Z" class="g3_54"/>
<path d="M190.6,780.5V488.3" class="g2_54"/>
<path d="M190.6,484.6l-2.9,5.8l2.9,-2.1l3,2.1Z" class="g3_54"/>
<path d="M475.6,743.5l-6.6,-.9l-6.5,-.9l-6.5,-.9l-6.6,-1l-6.5,-1.1l-6.5,-1.1l-6.5,-1.2l-6.6,-1.2l-6.5,-1.3l-6.5,-1.4L403.7,731l-6.5,-1.5l-6.5,-1.7L384.1,726l-6.5,-1.9l-6.5,-2l-6.5,-2.2L358,717.5L351.5,715L345,712.2l-6.6,-3l-6.5,-3.3l-6.5,-3.6l-6.5,-4m114,38.7c0,0,-9.3,-1.7,-12.8,-2.4c-3.5,-.7,-8.3,-1.7,-12.7,-2.7c-2.3,-.6,-7.2,-1.8,-11.4,-2.8" class="g4_54"/>
<path d="M391.3,727.9c2,1.4,3.8,2.6,5.7,3.9c-.5,-.9,-1,-1.9,-1.5,-2.8c.8,-.7,1.7,-1.3,2.6,-1.9c-2.2,.3,-4.4,.6,-6.8,.8Z" class="g5_54"/>
<path d="M261.9,558.6l3.5,10.5l3.6,9.7l3.5,8.7l3.6,8.1l3.6,7.4l3.5,6.8l3.6,6.3l3.6,5.9l3.5,5.4l3.6,5.2l3.5,4.7l3.6,4.5l3.6,4.2l3.5,4l3.6,3.7l3.5,3.5l3.6,3.3l3.6,3.2l3.5,3l3.6,2.8l3.6,2.7l3.5,2.6l3.6,2.5l3.5,2.3M274.9,592.9c0,0,4,8.5,5.6,11.7c1.7,3.2,3.9,7.6,6.2,11.4c1.2,2,4,6.2,6.4,9.9" class="g4_54"/>
<path d="M295.8,629.9c-.6,-2.3,-1.1,-4.4,-1.6,-6.7c-.2,1.1,-.5,2.1,-.8,3.2c-1.1,-.2,-2.1,-.4,-3.2,-.5c1.8,1.3,3.6,2.6,5.6,4Z" class="g5_54"/>
<path d="M318.8,697.2l-2.3,-2.7l-2.4,-2.7l-2.4,-3l-2.3,-3L307,682.5l-2.4,-3.4l-2.4,-3.6l-2.3,-3.9l-2.4,-4l-2.4,-4.3l-2.4,-4.6l-2.3,-4.9L288,648.6l-2.4,-5.5l-2.4,-5.9l-2.3,-6.4L278.5,624l-2.4,-7.3l-2.4,-7.9l-2.3,-8.4L269,591.2l-2.4,-10l-2.4,-10.8l-2.3,-11.8m35.4,108.7c0,0,-4.4,-8.3,-6,-11.5c-1.6,-3.3,-3.6,-7.7,-5.3,-11.9c-.9,-2.1,-2.7,-6.8,-4.2,-10.9" class="g6_54"/>
<path d="M280.1,628.4c0,2.5,0,4.6,0,6.9c.5,-.9,1,-1.9,1.5,-2.8c1,.3,2,.7,3,1.1c-1.5,-1.7,-3,-3.3,-4.5,-5.2Z" class="g7_54"/>
<path d="M347.3,681.1l5.4,5.4l5.3,5l5.4,4.5l5.3,4.2l5.4,3.8l5.3,3.6l5.3,3.3l5.4,3.1l5.3,2.9l5.4,2.6l5.3,2.5l5.4,2.4l5.3,2.2l5.3,2l5.4,2l5.3,1.8l5.4,1.7l5.3,1.6l5.4,1.5l5.3,1.5l5.3,1.4l5.4,1.3l5.3,1.2l5.4,1.2M372.6,703c0,0,7.8,5.3,10.9,7.1c3.1,1.9,7.3,4.4,11.3,6.4c2.1,1.1,6.6,3.2,10.6,5" class="g6_54"/>
<path d="M409.8,723.6c-1.7,-1.7,-3.2,-3.3,-4.8,-4.9c.3,1,.6,2,.9,3.1c-1,.4,-2,.8,-3,1.3c2.3,.1,4.5,.2,6.9,.5Z" class="g7_54"/>
<g clip-path="url(#c1_54)">
<path clip-path="url(#c0_54)" d="M125.6,422.6c-.1,-.1,-.1,-.3,0,-.3c0,-.2,.1,-1.3,0,-1.8c0,-.1,0,-.4,0,-.6c.1,-.9,.3,-2.2,.3,-2.3c0,0,0,-.2,.1,-.5c.1,-.5,.1,-.6,-.1,-1c-.3,-.6,-.9,-2,-1.1,-2.7c-.4,-1.8,-.5,-4.6,-.1,-6.1c.3,-1.1,.5,-1.2,.9,-.5c.3,.7,.4,.5,0,-.3c-.3,-.7,-.6,-2,-.5,-2.4c0,-.2,.2,-.7,.4,-1.1c.2,-.5,.4,-1,.5,-1.2c.1,-.5,.5,-.8,.9,-.6c.1,0,.2,.2,.3,.4q.2,.2,.1,-.3c-.1,-.3,-.2,-.5,-.1,-.6c0,0,0,-.1,0,-.3c.1,-.4,1,-2.1,1.6,-2.7c.3,-.2,.6,-.6,.7,-.7c.1,-.1,.5,-.4,.8,-.7c.3,-.2,.7,-.5,.9,-.7c.4,-.4,.7,-.5,.9,-.3q.2,.2,.2,-.1c0,-.2,0,-.4,0,-.5c.1,-.3,1.5,-1.2,2.1,-1.5c.3,-.2,.6,-.4,.8,-.5c.1,-.1,.3,-.2,.4,-.2c0,0,.4,-.2,.8,-.4c.4,-.2,.9,-.5,1,-.5c.2,-.1,.6,-.3,1,-.4c1.1,-.6,1.6,-.8,2.4,-1.1c.5,-.1,.9,-.3,1,-.3c0,-.1,.1,0,.3,.1l.2,.2l.4,-.4c.6,-.5,1.6,-.8,3.8,-1.1c.9,-.1,2.2,-.3,2.8,-.4l1,-.1l.1,.2q.1,.3,-.3,.5c-2.7,1,-4.6,1.9,-5.6,2.8c-.2,.2,-.4,.4,-.4,.4c-.1,0,-1.5,1.4,-1.5,1.5c0,.1,-.1,.2,-.2,.3c-.3,.2,-.6,.8,-.5,1.1c0,.2,-.1,.3,-.4,.5c-.3,.2,-.4,.4,-.4,.4c.2,.2,0,1,-.2,1.2c-.7,.8,-1.7,2.3,-1.9,2.9c-.1,.1,-.2,.4,-.4,.7c-.2,.4,-.4,.8,-.5,1.1c-.4,1,-.4,.9,-1,1c-.5,0,-1.4,.3,-1.3,.4c0,0,.4,0,.9,0c1.1,-.2,1.2,-.1,.8,.6c-.4,.8,-.7,1.7,-.7,2.2c0,.3,-.2,.8,-.6,2.3c-.1,.3,-.3,.4,-.7,.7c-.5,.3,-.6,.3,-1.2,.3q-.7,0,-.6,.2c.1,.1,-.1,.5,-.5,1.3c-.3,.7,-.7,1.3,-.8,1.4c-.2,.1,-.4,.4,-.6,.7c-.2,.3,-.4,.6,-.5,.6c0,0,-.2,.1,-.3,.3c-.6,.8,-2.7,2.6,-3,2.6l.3,-3.2c.1,.1,.4,0,.6,-.3c.2,-.4,.5,-.5,1.1,-.6c.5,0,.6,-.1,1,-.5c.2,-.2,.6,-.8,.9,-1.4l.5,-.9l-.5,-.3c-.3,-.1,-.6,-.3,-.7,-.4c-.1,-.2,.4,-1,.7,-1.1c.2,-.1,.5,-.1,.7,-.1c.2,-.1,.5,-.2,.7,-.3c.3,-.2,.5,-.3,.7,-.3c.6,-.1,.8,-.4,.8,-1.3c.1,-.9,.2,-1.1,.5,-1.2c.4,-.2,.7,-.1,.9,.1l.1,.3l.1,-.3c.1,-.3,.1,-.4,-.1,-.4c-.1,0,-.2,0,-.3,-.2c-.1,-.2,-.1,-.3,-.6,-.4c-.6,-.2,-.7,-.3,-.5,-.6c0,0,0,-.2,0,-.3c-.1,-.3,.4,-.8,1,-1c.5,-.2,.6,-.3,1.1,-1.3c.3,-.6,.8,-1.2,1,-1.5c.2,-.2,.5,-.5,.6,-.6c.1,-.2,.2,-.3,.4,-.3c.2,0,.4,0,.5,-.1c.2,-.2,.9,-1.2,.8,-1.2c0,0,-.2,.1,-.5,.2c-.8,.3,-1.8,.3,-2,0c-.2,-.4,.4,-1.2,.9,-1.2c.1,-.1,1.1,-.6,1.5,-.8c.1,-.2,.3,-.5,.5,-.8c.3,-.8,.8,-1.4,1.2,-1.5c.5,-.2,.7,-.3,.9,-.8c.2,-.4,.1,-.6,-.4,-.8c-.1,-.1,-.3,-.2,-.4,-.4c0,-.1,-.1,-.2,-.2,-.2c-.3,.1,-3,1.1,-4.1,1.7c-.2,.1,-.5,.3,-.7,.5c-.1,.2,-.5,.6,-.9,.9c-.4,.3,-.9,.7,-1,1c-.1,.2,-.4,.6,-.7,.9c-.4,.4,-.4,.5,-.4,1.2c-.1,.4,0,.9,.1,1.1c.3,.8,.2,1.2,-.3,1.1c-.5,-.1,-.8,-.4,-1.3,-1.6c-.3,-.5,-.6,-1,-.6,-1c-.2,0,-.8,.8,-1.1,1.3c-.2,.5,-.3,.6,-.7,.8q-.5,.2,-.7,.7c-.1,.3,-.1,.6,-.1,.8c.1,.1,.1,.2,.1,.3c-.1,.4,-.1,.8,.1,1.2c.2,.3,.3,.7,.3,.8c0,.2,.1,.6,.3,.9c.3,.6,.3,.7,.2,1.2c-.1,.3,-.1,.6,-.1,.8c-.1,.3,-.4,.2,-1.1,-.4c-.5,-.4,-1.2,-1.2,-2,-2.3c-.3,-.4,-.4,-.4,-.3,-.1c0,.1,-.1,.5,-.2,.8c-.2,.7,-.2,1.4,.2,1.8c.2,.3,.8,1.9,.9,2.3c0,.1,0,.4,.1,.5c.1,.2,.1,.9,-.1,1.2c0,.1,0,.3,0,.4c0,.2,-.1,.3,-.2,.3c-.2,0,-.7,-.4,-1,-.7c-.1,-.1,-.3,-.3,-.5,-.5l-.2,-.3l-.1,.2c-.1,.3,0,.8,.1,1.2c.3,.8,.4,2.4,.2,2.9c-.1,.2,-.2,.4,-.4,.5c-.4,.3,-.3,.6,.4,1.5l.4,.5l.1,-.3c.1,-.2,.2,-.6,.3,-.9c.1,-.4,.2,-.9,.3,-1.1c.1,-.1,.2,-.5,.3,-.7q.1,-.6,2.3,-5.3q1,-2.1,1.9,-3.4c.7,-1.1,1.3,-2,1.9,-3c.8,-1.3,.9,-1.6,1.4,-2.1c.3,-.4,.7,-.8,.9,-1.1c.9,-1.1,1.1,-1.4,1.3,-1.3c.1,0,.2,.1,.2,.1c0,0,-.2,.4,-.5,.8c-.3,.4,-.8,1.1,-1,1.6c-.9,1.4,-2.1,3.3,-2.5,3.9c-.2,.4,-.5,.8,-.6,1c-.1,.2,-.4,.6,-.5,.9c-.2,.2,-.3,.5,-.4,.7c0,.3,-.1,.7,-1.1,2.5c-.8,1.6,-1,2,-1.7,3.7c-.5,1.1,-.8,2.2,-.7,2.4l-.3,3.2c-.3,.1,-.5,1.9,-.2,3c.1,.7,.1,1,-.2,1.2c-.6,.5,-1.1,1.2,-1.3,1.7c-.1,.4,-.2,.5,-.4,.5c-.2,.1,-.2,0,-.3,-.1Z" class="g8_54"/>
<path d="M133.1,409.1c-.1,-.1,-.3,-.1,-.4,-.1q-.1,0,0,.1c.1,.1,.3,.1,.4,.1q.2,0,0,-.1Z" class="g0_54"/>
<path d="M144.5,390q0,-.1,-.1,-.1c-.1,0,-.1,.1,-.2,.2q0,.1,.1,.1c.1,0,.2,-.1,.2,-.2Z" class="g0_54"/>
<path d="M125.7,422.6c-.1,0,-.1,-.1,-.1,-.3c.1,-.1,.1,-.8,.1,-1.6c0,-1.4,.1,-2.2,.4,-3.6l.1,-.6l-.5,-.9c-.3,-.6,-.5,-1.3,-.6,-1.7c-.1,-.3,-.3,-.8,-.3,-.9c-.2,-.7,-.3,-2.9,-.3,-4c.1,-1,.5,-2.5,.7,-2.5c.1,0,.2,.1,.4,.5c.5,.8,.7,.8,.3,-.1c-.4,-.8,-.7,-1.8,-.7,-2.4c0,-.5,.5,-2,.9,-2.8c.2,-.3,.3,-.5,.5,-.5q.3,0,.9,.9l.5,.7l-.4,-.7c-.5,-1.2,-.4,-1.7,.3,-2.9c.3,-.6,.6,-1.1,.7,-1.1c.1,-.1,.4,-.4,.6,-.7c.3,-.3,.8,-.8,1.2,-1c.3,-.3,.7,-.6,.9,-.9c.4,-.4,.6,-.4,1,.2l.2,.4l-.1,-.5c-.1,-.8,0,-1,.8,-1.6c.5,-.3,.9,-.6,1,-.6c0,0,.1,0,.1,-.1c0,0,.1,-.1,.3,-.1q.2,0,.2,.1c-.1,.1,-.1,.2,-.2,.2c-.1,0,-.4,.2,-.7,.5c-.4,.3,-.8,.6,-.9,.7c-.3,.1,-.3,.2,-.3,.7c0,.3,.1,.6,.2,.8c.1,.5,.1,1,0,1c-.2,0,-.4,-.2,-.7,-.9l-.3,-.6l-.4,.2c-.1,.2,-.3,.3,-.3,.4c-.1,0,-.3,.2,-.6,.4c-.3,.3,-.6,.5,-.7,.6c-.1,.1,-.3,.4,-.6,.6c-.6,.6,-1.6,2.2,-1.5,2.6c.1,.3,1,2.2,1.7,3.4c.5,.9,.6,1.1,.4,1.1c-.2,-.1,-1.2,-.8,-1.6,-1.4c-.3,-.3,-.6,-.7,-.8,-.9c-.1,-.2,-.3,-.5,-.4,-.7c-.2,-.4,-.4,-.4,-.6,0c-.3,.5,-.8,2.1,-.9,2.5c-.1,.8,.6,2.6,1.5,3.8c.7,1,.7,1.3,-.1,.8c-.3,-.2,-1.3,-1.3,-1.5,-1.6c0,-.1,-.1,-.2,-.1,-.2c-.2,.1,-.4,1.1,-.4,1.7c0,.4,0,.8,-.1,.9c0,.1,0,.7,.1,1.3c.1,.6,.1,1.3,.1,1.5c.1,.7,1,3,1.1,3q.1,0,.1,-.1c0,0,.1,-.5,.3,-1.1c.2,-.6,.3,-1.2,.4,-1.4c0,-.2,.1,-.5,.1,-.5c.1,-.1,.2,-.4,.3,-.7c.1,-.5,.2,-.9,1.1,-2.7c.3,-.6,.7,-1.4,.9,-1.9c.8,-1.7,1.6,-3.2,2.2,-4.2c.7,-1,1.1,-1.6,1.9,-3c.2,-.4,.6,-.8,.7,-1.1c.2,-.2,.3,-.4,.3,-.5c.1,-.1,.3,-.4,.6,-.7c.2,-.3,.6,-.8,.8,-1c.9,-1.2,1.1,-1.4,1.2,-1.3c.2,.1,.2,.2,-.6,1.2c-.2,.3,-.6,.8,-.8,1.2c-.8,1.4,-2.1,3.5,-2.4,3.9c-.6,.8,-1.5,2.5,-1.5,2.7c0,.1,-.5,1.3,-1.2,2.6c-.7,1.3,-1.3,2.7,-1.5,3.1c-.1,.4,-.3,.8,-.3,.8c-.1,.1,-.5,1.3,-.6,1.8c0,.3,-.1,.7,-.1,1c-.2,.7,-.3,2,-.3,2.1c0,0,.1,-.1,.3,-.2c.1,-.1,.3,-.3,.6,-.4c.2,-.2,.5,-.5,.8,-.7c.2,-.3,.4,-.5,.5,-.5c.6,-.6,.9,-1,1.2,-1.5c.3,-.3,.6,-.7,.7,-.8c.3,-.3,1.2,-2,1.2,-2.1c-.1,-.1,-.4,-.3,-.9,-.5c-.9,-.5,-1,-.6,-.8,-.7c.1,-.1,1,0,1.8,.2c.2,.1,.7,.1,1,.1c.9,-.1,1.4,-.4,1.6,-1.1c.1,-.2,.2,-.6,.2,-.7c.1,-.3,.3,-1,.3,-1.6c.1,-.5,.4,-1.3,.6,-1.6l.2,-.3h-.5c-.5,.1,-1.6,-.1,-1.7,-.3c-.1,-.2,.7,-.6,1.6,-.8l.8,-.2l.2,-.6c.2,-.3,.3,-.7,.4,-.8c0,-.2,.1,-.4,.2,-.5c.1,-.1,.3,-.3,.4,-.6c0,-.2,.3,-.6,.4,-.9c1.4,-1.9,1.6,-2.3,1.5,-2.3c-.1,0,-.4,.1,-.6,.2c-.7,.4,-1.5,.4,-1.5,.1c0,-.3,1.8,-1.4,2.7,-1.6q.4,-.1,.4,-.5c0,-.3,.2,-.7,.3,-.8c.1,-.2,.3,-.5,.4,-.7c.3,-.6,2.2,-2.2,3.2,-2.8c.7,-.4,1.8,-1,2.7,-1.4l.7,-.3l-1.6,.2c-2.6,.4,-3.7,.7,-4.4,1.5c-.3,.3,-.4,.4,-.5,.1c-.1,-.2,.6,-.9,1.2,-1.1c.6,-.3,1.7,-.6,2.4,-.7c.4,0,1.5,-.2,2.5,-.3c1.5,-.3,1.8,-.3,1.9,-.2c.4,.2,.3,.3,-.2,.5c-1.1,.5,-2.2,.9,-2.9,1.3c-.7,.3,-2,1,-2.2,1.2c-.1,.1,-.3,.3,-.6,.5c-.9,.8,-1.6,1.5,-1.8,1.8c-.1,.2,-.3,.4,-.4,.6c-.1,.1,-.3,.4,-.3,.6c0,.4,-.1,.5,-.4,.7c-.2,.2,-.5,.3,-.6,.3h-.2l.2,.1c.4,0,.5,.2,.3,.4c0,.1,-.1,.3,-.1,.3c.1,.1,-.1,.4,-.4,.7c-.2,.2,-.5,.6,-.6,.8c-.1,.1,-.3,.5,-.4,.7c-.4,.5,-.6,.9,-.7,1.1c0,.1,-.2,.5,-.4,.8c-.3,.5,-.4,.8,-.7,1.6c-.1,.3,-.2,.4,-.7,.4c-.7,.1,-1.5,.4,-1.4,.5c0,0,.4,0,.9,0c.8,-.1,.9,-.1,1,0c.1,.1,.1,.3,-.2,.7c-.3,.6,-.7,1.7,-.7,2.1c0,.4,-.3,1.3,-.6,2.2c-.1,.3,-.2,.5,-.6,.7c-.5,.3,-.6,.3,-1.2,.3c-.4,0,-.9,0,-1,0c-.2,-.1,-.5,-.2,-.8,-.2l-.6,-.1l.5,.2c.3,.1,.6,.2,.7,.2q.5,.1,.6,.2c.1,.2,-.9,2.1,-1.3,2.5c-.2,.2,-.5,.6,-.7,.8c-.1,.3,-.3,.5,-.4,.6c-.2,.1,-.4,.4,-.6,.6c-.4,.5,-1.3,1.3,-1.7,1.6c-.1,.1,-.4,.3,-.5,.4c-.1,.1,-.3,.3,-.5,.3c-.2,.1,-.3,.2,-.3,.5c-.1,.5,-.1,1.8,-.1,2.1c0,.1,.1,.4,.1,.8c.1,.6,.1,.7,-.2,.9c-.4,.3,-1,1.1,-1.3,1.7c-.1,.3,-.2,.5,-.2,.5c-.1,0,-.2,0,-.3,-.1Z" class="g9_54"/>
<path d="M128.2,402.3q-.1,-.2,-.1,-.1c-.1,.2,0,.3,.1,.3c.1,0,.1,-.1,0,-.2Z" class="g9_54"/>
<path d="M139.7,396.4c.2,-.1,.5,-.3,.7,-.4l.2,-.2l-.3,.1c-.5,.1,-1.4,.5,-1.4,.7c0,.1,.3,0,.8,-.2Z" class="ga_54"/>
<path d="M139.7,396.3c.4,-.2,.6,-.4,.2,-.2c-.3,.1,-.9,.4,-.7,.4c0,0,.3,-.1,.5,-.2Z" class="g0_54"/>
<path d="M134.9,393.1c0,-.1,.6,-.5,.7,-.4q.2,.1,-.1,.2c-.1,.1,-.3,.2,-.4,.2q-.1,.1,-.2,0Z" class="g9_54"/>
<path d="M136.2,392.4c.1,-.1,.2,-.2,.3,-.2q.2,0,.1,.1c-.1,.1,-.2,.2,-.3,.2q-.2,.1,-.1,-.1Z" class="g9_54"/>
<path d="M137.1,391.9c.1,-.2,.6,-.3,.7,-.2c0,0,-.5,.3,-.7,.3q-.1,0,0,-.1Z" class="g9_54"/>
<path d="M137.9,391.5c0,0,.8,-.4,1.3,-.6c.3,-.1,.6,-.2,.7,-.3c.4,-.2,1.9,-.8,2.1,-.7c.2,.1,.1,.3,-.2,.3c-.5,.1,-1.7,.5,-3,1.1c-.6,.3,-.8,.4,-.9,.2Z" class="g9_54"/>
<path d="M125.7,422.6c0,-.1,0,-.2,0,-.3c0,0,.1,-.6,.1,-1.2c0,-1.3,0,-1.9,.3,-4l.1,-.7l-.5,-1c-.3,-.6,-.5,-1.2,-.6,-1.6c-.1,-.3,-.2,-.7,-.2,-.9c-.3,-1,-.4,-4.1,-.1,-5.2c.1,-.4,.2,-.8,.2,-.9c.1,-.4,.2,-.3,.7,.3c.6,1.1,.9,1,.3,-.1c-.4,-.6,-.8,-2,-.8,-2.6c0,-.3,.6,-1.9,1,-2.7c.1,-.2,.2,-.4,.4,-.4c.2,0,.3,0,.5,.4c.5,.6,.6,.9,.5,.8c-.1,0,-.3,-.2,-.4,-.4c-.4,-.8,-.6,-.6,-1.2,.8c-.7,1.9,-.6,2.4,.7,4.8c.5,.8,.8,1.5,.7,1.5c-.2,.1,-1.4,-1.1,-1.7,-1.6c-.1,-.1,-.2,-.3,-.3,-.3q-.1,-.1,-.2,.1c-.3,.8,-.4,2.5,-.2,4c0,.5,.1,1.2,.1,1.4c0,.5,1,3.1,1.2,3.1c.1,0,.1,-.1,.1,-.3c0,-.1,.1,-.7,.3,-1.3c.2,-.5,.3,-1.1,.4,-1.3c0,-.2,0,-.3,.1,-.3c.1,-.1,.4,-1.2,.4,-1.2c0,-.1,.1,-.4,.2,-.7c.9,-1.8,1.3,-2.7,1.6,-3.5c.8,-1.5,1.6,-3.1,2.3,-4.1c.7,-1.2,1.3,-2.2,1.9,-3.1c.2,-.4,.5,-.8,.7,-1c.1,-.2,.3,-.4,.3,-.5c0,-.1,.6,-.8,.9,-1.1c.1,-.1,.3,-.4,.5,-.6c.6,-1,1,-1.4,1.1,-1.3q.1,0,-.6,.9c-.2,.4,-.7,1,-.9,1.4c-.8,1.4,-2,3.4,-2.3,3.7c-.6,.8,-1.6,2.7,-1.6,2.9c0,.2,-.5,1.3,-1.2,2.6c-.6,1.3,-1.3,2.6,-1.4,3c-.2,.4,-.4,1,-.6,1.4c-.2,.7,-.4,1.4,-.4,1.8c0,.2,-.1,.4,-.1,.7c-.1,.2,-.2,.7,-.2,1.1c-.1,.6,-.1,.8,.1,.8c.1,0,.2,-.1,.2,-.1c.1,-.1,.3,-.3,.6,-.5c.3,-.2,.5,-.5,.6,-.5c0,-.1,.3,-.3,.5,-.5c.7,-.6,1.1,-1.1,1.5,-1.7c.3,-.3,.6,-.7,.7,-.8c.2,-.2,1.1,-1.8,1.1,-2c0,-.2,-.1,-.3,-.6,-.5c-.7,-.4,-.6,-.4,.1,-.1c.3,.1,.6,.2,.7,.1c.4,-.1,.3,.3,-.2,1.3c-.3,.6,-.7,1.3,-.9,1.4c-.1,.2,-.4,.5,-.6,.8c-.2,.2,-.4,.5,-.5,.6c-.1,.1,-.3,.3,-.5,.5c-.1,.2,-.4,.5,-.6,.6c-.2,.2,-.5,.5,-.6,.6c-.1,.2,-.3,.3,-.3,.3c-.1,0,-.3,.1,-.5,.3c-.2,.2,-.5,.4,-.7,.5c-.2,.1,-.3,.2,-.3,.7c-.1,.3,-.1,.6,-.1,.7c0,0,0,.3,0,.5c0,.3,.1,.7,.1,1c.2,.8,.1,1.1,-.1,1.3c-.4,.2,-1.1,1.2,-1.3,1.8c-.2,.5,-.3,.5,-.5,.4Z" class="gb_54"/>
<path d="M134,409.1c-.4,0,-.8,-.1,-1,-.2c-.2,0,-.4,-.1,-.5,-.1c-.1,0,-.3,0,-.4,-.1c-.1,0,-.3,0,-.4,0c-.1,.1,-.2,0,-.3,0c-.1,-.2,.3,-.2,1.8,.1c1.4,.2,2.5,-.2,2.7,-1c0,-.2,.1,-.6,.2,-.8c.1,-.3,.2,-.6,.2,-.8c.1,-.4,.1,-.8,.3,-1.6c.1,-.3,.2,-.6,.4,-.8c.1,-.1,.2,-.3,.1,-.4c0,0,-.2,0,-.4,.1c-.4,.1,-1.6,-.1,-1.7,-.3c-.1,-.3,.8,-.7,2,-.8c.3,-.1,.4,-.1,.6,-.8c.6,-1.4,1.6,-3.2,2.9,-4.9c.1,-.1,.1,-.2,0,-.3c0,0,-.3,.1,-.7,.2c-.6,.3,-1.3,.4,-1.4,.2c0,-.1,0,-.2,.1,-.2q.2,-.1,.2,.1c.1,0,.1,.1,.1,.1c.3,0,1.3,-.5,1.6,-.7c.3,-.2,.6,-.3,.6,-.2c.1,.2,-.1,.9,-.2,1c-.2,.1,-.5,.5,-.7,.9c-.1,.1,-.4,.5,-.6,.8c-.3,.6,-.5,.9,-.6,1.2c-.1,.1,-.3,.5,-.4,.8c-.3,.5,-.6,1,-.8,1.6c-.1,.3,-.2,.3,-.7,.4c-.8,.1,-1.6,.4,-1.4,.6c0,0,.4,0,1,-.1c.8,-.1,.9,-.1,1,0c0,.1,-.1,.4,-.3,.7c-.3,.6,-.6,1.6,-.7,2.1c0,.2,-.1,.6,-.2,.9c-.1,.3,-.2,.7,-.2,.9c-.1,.5,-.4,.9,-.8,1.1c-.6,.3,-.7,.3,-1.4,.3Z" class="gb_54"/>
<path d="M129.6,404.7c-.2,-.1,-.4,-.2,-.5,-.3c-.3,-.2,-1,-1,-1,-1.1c0,-.1,.1,-.1,.1,-.1c.1,0,.5,.4,.6,.5c.1,.1,.2,.2,.2,.2c.1,0,.1,-.1,-.1,-.3c-.1,-.2,-.3,-.6,-.4,-.8c-.1,-.3,-.4,-.9,-.6,-1.4c-.3,-.5,-.5,-1,-.5,-1.1c0,-.1,.2,-.6,.5,-1.1c.6,-1,1.6,-2.1,2.5,-2.8c.4,-.2,.8,-.6,.9,-.8c.4,-.5,.6,-.4,.9,.3c.2,.5,.3,.5,.4,.5c.1,-.1,.2,-.1,.2,-.1c0,0,.1,.2,.1,.4c.1,.6,-.1,.5,-.6,-.3c-.4,-.8,-.5,-.9,-.7,-.6c-.1,.2,-.7,.6,-1.1,.9c-.7,.5,-1.8,1.8,-2.5,3l-.4,.6l.7,1.4c.7,1.5,1.1,2.2,1.5,2.8c.2,.4,.2,.5,-.2,.2Z" class="gb_54"/>
<path d="M128.1,402.8c-.1,-.1,0,-.2,0,-.2c.1,0,.1,.1,.2,.1c0,.1,0,.2,0,.2c-.1,0,-.2,0,-.2,-.1Z" class="gb_54"/>
<path d="M127.6,401.8c-.3,-.6,-.2,-.8,0,-.5c.2,.3,.4,.8,.3,1c-.1,0,-.2,-.1,-.3,-.5Z" class="gb_54"/>
<path d="M140.1,395.6c.5,-.2,1.1,-.4,1.2,-.3c.1,.1,-.1,.2,-.8,.4c-.8,.2,-.9,.2,-.4,-.1Z" class="gb_54"/>
<path d="M141.5,395.2c0,-.1,0,-.3,0,-.5c0,-.5,.7,-1.7,1.3,-2.2c1.7,-1.7,3.9,-3,5.7,-3.6c.6,-.2,.6,-.3,-.1,-.2c-.3,.1,-1.3,.2,-2.2,.4c-1,.1,-1.9,.3,-2.1,.3c-.4,.2,-1.2,.7,-1.5,1c-.2,.2,-.3,.3,-.4,.1c-.1,-.2,.9,-1,1.4,-1.2c1.1,-.3,1.4,-.4,2.1,-.5c.4,0,1.6,-.2,2.6,-.3c1.8,-.3,2,-.3,2.1,-.1c0,.1,-.3,.3,-.7,.4c-2.5,.9,-4.4,1.9,-5.3,2.8c-.2,.1,-.4,.3,-.4,.3c-.1,0,-.2,.1,-.3,.2c-.1,.1,-.3,.3,-.6,.6c-.2,.2,-.5,.5,-.6,.7c-.1,.2,-.3,.5,-.5,.6c-.1,.2,-.2,.4,-.3,.6c0,.4,-.1,.7,-.2,.6Z" class="gb_54"/>
<path d="M132.6,395.7c-.1,-.2,-.2,-.8,-.1,-1c0,-.1,.3,-.3,.6,-.5c.3,-.2,.7,-.5,.8,-.6l.2,-.1l-.1,.2c-.2,.2,-1,.9,-1.2,1c-.1,.1,-.2,.3,-.2,.4c0,.2,0,.4,0,.5q0,.2,0,.1Z" class="gb_54"/>
<path d="M141.5,390.1c.2,-.2,.5,-.3,.5,-.1c0,0,-.1,.1,-.3,.1q-.4,.1,-.2,0Z" class="gb_54"/>
<path d="M125.7,422.6c0,-.1,0,-.2,0,-.3c0,0,.1,-.6,.1,-1.2c0,-1.2,0,-1.8,.4,-4.1c0,-.5,0,-.6,-.5,-1.6c-.3,-.6,-.5,-1.2,-.6,-1.6c-.1,-.3,-.2,-.7,-.2,-.9c-.3,-1,-.4,-4.1,-.1,-5.2c.1,-.4,.2,-.8,.2,-.9c.1,-.4,.2,-.3,.7,.3c.6,1.1,.9,1,.3,-.1c-.4,-.6,-.8,-2,-.8,-2.6c0,-.3,.6,-1.9,1,-2.7c.1,-.2,.2,-.4,.4,-.4c.2,0,.3,0,.5,.4c.5,.6,.6,.9,.5,.8c-.1,0,-.3,-.2,-.4,-.4c-.4,-.8,-.6,-.6,-1.2,.8c-.7,1.9,-.6,2.4,.7,4.8c.5,.8,.8,1.5,.7,1.5c-.2,.1,-1.4,-1.1,-1.7,-1.6c-.1,-.1,-.2,-.3,-.3,-.3q-.1,-.1,-.2,.1c-.3,.8,-.4,2.5,-.2,4c0,.5,.1,1.2,.1,1.4c0,.5,1,3.1,1.2,3.1c.1,0,.1,-.1,.1,-.3c0,-.1,.1,-.7,.3,-1.3c.2,-.5,.3,-1.1,.4,-1.3c0,-.2,0,-.3,.1,-.3c.1,-.1,.4,-1.2,.4,-1.2c0,-.1,.1,-.4,.2,-.7c.9,-1.8,1.3,-2.7,1.6,-3.5c.8,-1.5,1.6,-3.1,2.3,-4.1c.7,-1.2,1.3,-2.2,1.9,-3.1c.2,-.4,.5,-.8,.7,-1c.1,-.2,.3,-.4,.3,-.5c0,-.1,.6,-.8,.9,-1.1c.1,-.1,.3,-.4,.5,-.6c.6,-1,1,-1.4,1.1,-1.3q.1,0,-.7,1.1c-1.5,1.9,-2.3,3.2,-3.6,5.4c-.3,.4,-.7,1,-1,1.5c-.4,.5,-.5,.8,-.4,.8c.4,0,.3,.4,-.8,2.7c-.7,1.3,-1.4,2.6,-1.5,3c-.2,.4,-.4,1,-.6,1.4c-.2,.7,-.4,1.4,-.4,1.8c0,.2,-.1,.4,-.1,.7c-.1,.2,-.2,.7,-.2,1.1c-.1,.6,-.1,.8,.1,.8c.1,0,.2,-.1,.2,-.1c.1,-.1,.3,-.3,.6,-.5c.3,-.2,.5,-.5,.6,-.5c0,-.1,.3,-.3,.5,-.5c.7,-.6,1.1,-1.1,1.5,-1.7c.3,-.3,.6,-.7,.7,-.8c.2,-.2,1.1,-1.8,1.1,-2c0,-.2,-.1,-.3,-.6,-.5c-.7,-.4,-.6,-.4,.1,-.1c.3,.1,.6,.2,.7,.1c.4,-.1,.3,.3,-.2,1.3c-.3,.6,-.7,1.3,-.9,1.4c-.1,.2,-.4,.5,-.6,.8c-.2,.2,-.4,.5,-.5,.6c-.1,.1,-.3,.3,-.5,.5c-.1,.2,-.4,.5,-.6,.6c-.2,.2,-.5,.5,-.6,.6c-.1,.2,-.3,.3,-.3,.3c-.1,0,-.3,.1,-.5,.3c-.2,.2,-.5,.4,-.7,.5c-.2,.1,-.3,.2,-.3,.7c-.1,.3,-.1,.6,-.1,.7c0,0,0,.3,0,.5c0,.3,.1,.7,.1,1c.2,.8,.1,1.1,-.1,1.3c-.4,.2,-1.1,1.2,-1.3,1.8c-.2,.5,-.3,.5,-.5,.4Z" class="gc_54"/>
<path d="M134,409.1c-.4,0,-.8,-.1,-1,-.2c-.2,0,-.4,-.1,-.5,-.1c-.1,0,-.3,0,-.4,-.1c-.1,0,-.3,0,-.4,0c-.1,.1,-.2,0,-.3,0c-.1,-.2,.3,-.2,1.8,.1c1.4,.2,2.5,-.2,2.7,-1c0,-.2,.1,-.6,.2,-.8c.1,-.3,.2,-.6,.2,-.8c.1,-.4,.1,-.8,.3,-1.6c.1,-.3,.2,-.6,.4,-.8c.1,-.1,.2,-.3,.1,-.4c0,0,-.2,0,-.4,.1c-.4,.1,-1.6,-.1,-1.7,-.3c-.1,-.3,.8,-.7,2,-.8c.3,-.1,.4,-.1,.6,-.8c.6,-1.4,1.6,-3.2,2.9,-4.9c.1,-.1,.1,-.2,0,-.3c0,0,-.3,.1,-.7,.2c-.6,.3,-1.3,.4,-1.4,.2c0,-.1,0,-.2,.1,-.2q.2,-.1,.2,.1c.1,0,.1,.1,.1,.1c.3,0,1.3,-.5,1.6,-.7c.3,-.2,.6,-.3,.6,-.2c.1,.2,-.1,.9,-.2,1c-.2,.1,-.5,.5,-.7,.9c-.1,.1,-.4,.5,-.6,.8c-.3,.6,-.5,.9,-.6,1.2c-.1,.1,-.3,.5,-.4,.8c-.3,.5,-.6,1,-.8,1.6c-.1,.3,-.2,.3,-.7,.4c-.8,.1,-1.6,.4,-1.4,.6c0,0,.4,0,1,-.1c.8,-.1,.9,-.1,1,0c0,.1,-.1,.4,-.3,.7c-.3,.6,-.6,1.6,-.7,2.1c0,.2,-.1,.6,-.2,.9c-.1,.3,-.2,.7,-.2,.9c-.1,.5,-.4,.9,-.8,1.1c-.6,.3,-.7,.3,-1.4,.3Z" class="gc_54"/>
<path d="M129.6,404.7c-.2,-.1,-.4,-.2,-.5,-.3c-.3,-.2,-1,-1,-1,-1.1c0,-.1,.1,-.1,.1,-.1c.1,0,.5,.4,.6,.5c.1,.1,.2,.2,.2,.2c.1,0,.1,-.1,-.1,-.3c-.1,-.2,-.3,-.6,-.4,-.8c-.1,-.3,-.4,-.9,-.6,-1.4c-.3,-.5,-.5,-1,-.5,-1.1c0,-.1,.2,-.6,.5,-1.1c.6,-1,1.6,-2.1,2.5,-2.8c.4,-.2,.8,-.6,.9,-.8c.4,-.5,.6,-.4,.9,.3c.2,.5,.3,.5,.4,.5c.1,-.1,.2,-.1,.2,-.1c0,0,.1,.2,.1,.4c.1,.6,-.1,.5,-.6,-.3c-.4,-.8,-.5,-.9,-.7,-.6c-.1,.2,-.7,.6,-1.1,.9c-.7,.5,-1.8,1.8,-2.5,3l-.4,.6l.7,1.4c.7,1.5,1.1,2.2,1.5,2.8c.2,.4,.2,.5,-.2,.2Z" class="gc_54"/>
<path d="M128.1,402.8c-.1,-.1,0,-.2,0,-.2c.1,0,.1,.1,.2,.1c0,.1,0,.2,0,.2c-.1,0,-.2,0,-.2,-.1Z" class="gc_54"/>
<path d="M127.6,401.8c-.3,-.6,-.2,-.8,0,-.5c.2,.3,.4,.8,.3,1c-.1,0,-.2,-.1,-.3,-.5Z" class="gc_54"/>
<path d="M140.1,395.6c.5,-.2,1.1,-.4,1.2,-.3c.1,.1,-.1,.2,-.8,.4c-.8,.2,-.9,.2,-.4,-.1Z" class="gc_54"/>
<path d="M141.5,395.2c0,-.1,0,-.3,0,-.5c0,-.5,.7,-1.7,1.3,-2.2c1.7,-1.7,3.9,-3,5.7,-3.6c.6,-.2,.6,-.3,-.1,-.2c-.3,.1,-1.3,.2,-2.2,.4c-1,.1,-1.9,.3,-2.1,.3c-.4,.2,-1.2,.7,-1.5,1c-.2,.2,-.3,.3,-.4,.1c-.1,-.2,.9,-1,1.4,-1.2c1.1,-.3,1.4,-.4,2.1,-.5c.4,0,1.6,-.2,2.6,-.3c1.8,-.3,2,-.3,2.1,-.1c0,.1,-.3,.3,-.7,.4c-2.5,.9,-4.4,1.9,-5.3,2.8c-.2,.1,-.4,.3,-.4,.3c-.1,0,-.2,.1,-.3,.2c-.1,.1,-.3,.3,-.6,.6c-.2,.2,-.5,.5,-.6,.7c-.1,.2,-.3,.5,-.5,.6c-.1,.2,-.2,.4,-.3,.6c0,.4,-.1,.7,-.2,.6Z" class="gc_54"/>
<path d="M132.6,395.7c-.1,-.2,-.2,-.8,-.1,-1c0,-.1,.3,-.3,.6,-.5c.3,-.2,.7,-.5,.8,-.6l.2,-.1l-.1,.2c-.2,.2,-1,.9,-1.2,1c-.1,.1,-.2,.3,-.2,.4c0,.2,0,.4,0,.5q0,.2,0,.1Z" class="gc_54"/>
<path d="M141.5,390.1c.2,-.2,.5,-.3,.5,-.1c0,0,-.1,.1,-.3,.1q-.4,.1,-.2,0Z" class="gc_54"/>
<path d="M127.2,420.2c.1,-.1,.1,-.2,.1,-.5c-.1,-.3,-.1,-.9,-.1,-1.4c0,-.6,0,-1,0,-1.1c0,0,0,-.2,0,-.3c0,-.1,.1,-.5,.1,-.8c.1,-1.3,.1,-1.5,.5,-3.1c0,-.2,.1,-.5,.1,-.7c.2,-1,1.2,-3.2,2.4,-5.4c.6,-1.3,.9,-2,.9,-2.2c0,0,-.3,.5,-.6,1.1c-.3,.6,-.7,1.4,-.9,1.8c-.9,1.7,-1.9,4,-2,4.5c0,.2,-.2,.6,-.3,.8c0,.3,-.1,.5,-.1,.5c.1,.1,-.3,1.3,-.5,1.8c0,.2,-.1,.6,-.1,.9c-.1,.2,-.2,.7,-.2,1c-.3,1,-.5,2.6,-.3,2.8c0,.1,.2,.2,.4,.3c.4,.2,.3,.2,.6,0Z" class="gb_54"/>
<path d="M124.9,413c-.1,-.2,-.3,-2.1,-.3,-3.2c0,-.8,.1,-1.6,.2,-2.2c.1,-.4,.2,-.7,.2,-.9c.1,-.3,.3,-.2,.6,.3c.1,.3,.4,.6,.6,.9l.3,.3l-.1,-.4c-.1,-.2,-.4,-.7,-.5,-1.1c-.4,-.8,-.7,-2.2,-.6,-2.7c.1,-.4,.6,-1.6,.9,-2.3c.2,-.4,.6,-.6,.8,-.3q0,.2,-.2,.2c-.2,0,-.3,.2,-.5,.5c-.6,1.3,-.8,2.3,-.8,2.9c.1,.3,.3,.9,.5,1.5c.3,.8,.5,1.1,1,1.8c.3,.4,.5,.8,.5,.8c0,.2,-.6,-.1,-.9,-.4c-.1,-.2,-.3,-.4,-.4,-.5c-.1,-.1,-.4,-.5,-.6,-.7l-.3,-.5l-.1,.3c-.4,.9,-.5,2.5,-.3,4.3c.1,1.2,.1,1.6,0,1.4Z" class="gd_54"/>
<path d="M133.7,409.1c-.2,-.1,-.4,-.1,-.6,-.2c-.2,0,-.4,-.1,-.5,-.1c-.2,0,-.8,-.2,-.8,-.2c0,0,.5,0,1,.1c1.3,.2,2,.2,2.5,-.2c.4,-.2,.5,-.4,.8,-1.2c.2,-1,.3,-1.2,.3,-1.6c.1,-.7,.2,-1.1,.6,-1.7c.1,-.3,.2,-.6,.2,-.6c0,0,-.2,0,-.5,0c-.3,.1,-.5,.1,-1.1,0l-.6,-.2l.1,-.2c.2,-.2,.8,-.4,1.6,-.6l.7,-.1l.3,-.7c.5,-1.3,1.6,-3.2,2.4,-4.4c.3,-.4,.5,-.7,.4,-.8q0,-.1,-.7,.2q-.7,.3,-.7,.2c0,0,.2,-.1,.3,-.2c.2,0,.5,-.2,.8,-.4c.4,-.3,.7,-.3,.8,-.3c.2,.1,-.1,.8,-.5,1.2c-.7,.8,-2,3.1,-2.6,4.5c-.1,.3,-.2,.6,-.3,.7c0,.1,-.2,.2,-.3,.2c-.8,.1,-1,.2,-1.4,.3c-.5,.2,-.5,.3,-.3,.4c0,0,.3,0,1,-.1c.7,-.1,.9,-.1,.9,0c.1,.1,-.1,.5,-.3,.9c-.4,.7,-.6,1.4,-.6,1.9c0,.2,-.1,.7,-.2,1.1c-.2,.3,-.2,.7,-.2,.7c0,0,-.1,.2,-.2,.5c-.3,.6,-1.2,1,-2.3,.9Z" class="gd_54"/>
<path d="M131.5,408.7q0,-.1,.1,-.1c0,0,.1,0,.1,0c0,0,0,.1,-.1,.1h-.1Z" class="gd_54"/>
<path d="M129.3,404.5c-.6,-.4,-1.3,-1.4,-.9,-1.1c.1,.1,.3,.2,.3,.3c.1,.1,.4,.3,.5,.2c0,-.1,.5,.4,.6,.7c.1,.2,.1,.3,.1,.3c0,0,-.3,-.2,-.6,-.4Z" class="gd_54"/>
<path d="M128.8,403.4c0,0,-.2,-.3,-.2,-.5c-.1,-.3,-.4,-.9,-.6,-1.3c-.3,-.5,-.5,-1,-.6,-1.1c0,-.3,.8,-1.9,1.2,-2.3c.1,-.1,.4,-.5,.7,-.7c.3,-.3,.6,-.7,.8,-.8c.6,-.4,.9,-.7,1.3,-1.1c.2,-.2,.4,-.3,.4,-.3c.3,.1,.3,.3,.1,.3c-.1,0,-.4,.2,-.7,.5c-.4,.3,-.7,.6,-.7,.6c-.2,0,-.4,.2,-.9,.8c-.3,.3,-.5,.6,-.6,.6c0,0,-.9,1.3,-1.2,1.8c-.2,.5,-.2,.6,.4,1.8c.8,1.5,.9,1.9,.6,1.7Z" class="gd_54"/>
<path d="M127.2,402.1c-.1,-.1,-.1,-.2,0,-.2c.1,0,.2,.1,.3,.3c0,.1,0,.2,0,.2c-.1,0,-.2,-.1,-.3,-.3Z" class="gd_54"/>
<path d="M127.6,401.9c0,-.2,-.1,-.4,-.2,-.5c0,-.1,0,-.2,0,-.2c.1,0,.5,.6,.5,.8c0,.2,-.2,.1,-.3,-.1Z" class="gd_54"/>
<path d="M138.4,396.8c0,-.1,.1,-.1,.2,-.1c0,0,.1,0,.2,0c0,.1,-.1,.1,-.2,.1c-.1,0,-.2,0,-.2,0Z" class="gd_54"/>
<path d="M132.5,396.8c-.1,-.3,.1,-.5,.3,-.2c.1,.3,.1,.4,0,.4c-.1,.1,-.2,0,-.3,-.2Z" class="gd_54"/>
<path d="M140.3,395.6c-.1,-.1,.8,-.4,.9,-.3q.1,.1,0,.2c-.3,.1,-.9,.2,-.9,.1Z" class="gd_54"/>
<path d="M132.2,396.2c-.1,0,-.1,-.1,-.1,-.2q.1,-.1,.2,.1q0,.1,0,.1c-.1,.1,-.1,0,-.1,0Z" class="gd_54"/>
<path d="M141.6,395.1c-.1,-.2,0,-1,.2,-1.2c.1,-.1,.3,-.4,.4,-.7c.2,-.2,.4,-.5,.5,-.6c.1,0,.3,-.2,.4,-.3c.4,-.5,2,-1.7,2.8,-2.1c.8,-.5,1.9,-1,2.8,-1.3c.6,-.3,.6,-.4,0,-.3c-.3,.1,-1.3,.2,-2.2,.3c-1.7,.3,-2,.3,-2.4,.5c-.4,.1,-1.2,.6,-1.5,.9c-.1,.1,-.2,.2,-.3,.2c-.2,0,.8,-1,1.2,-1.1c.7,-.3,1.8,-.5,2.4,-.6c.4,0,1.5,-.2,2.4,-.3c.9,-.2,1.7,-.3,1.8,-.3c.3,.1,.3,.3,0,.4c-1.4,.5,-2.5,1,-3.3,1.4c-.8,.4,-1.7,.9,-2,1.1c0,.1,-.2,.3,-.4,.4c-1,.9,-1.8,1.7,-2,2c-.1,.1,-.2,.3,-.3,.3c-.1,0,-.4,.7,-.4,1c0,.3,-.1,.4,-.1,.3Z" class="gd_54"/>
<path d="M132.6,394.7c-.1,-.1,.6,-.6,1,-.8c.3,-.2,.2,0,-.2,.3c-.4,.4,-.8,.6,-.8,.5Z" class="gd_54"/>
<path d="M141.7,390.1q-.1,-.1,0,-.1c.1,-.1,.3,-.1,.2,.1c0,0,-.1,0,-.2,0Z" class="gd_54"/>
<path d="M125.9,415.8c-.1,-.1,-.1,-.2,0,-.3c0,0,.1,.1,.1,.2c.1,.1,.1,.2,.1,.2c-.1,0,-.2,-.1,-.2,-.1Z" class="ge_54"/>
<path d="M129,415.2c0,0,0,-.1,.1,-.1q.2,-.1,.2,.1c-.1,.1,-.4,.1,-.3,0Z" class="ge_54"/>
<path d="M125.6,415.2c0,-.1,0,-.2,.1,-.1c0,0,.1,.1,.1,.1q0,.2,-.2,0Z" class="ge_54"/>
<path d="M129.5,414.8c0,-.1,.2,-.3,.4,-.5c.2,-.1,.5,-.4,.5,-.5c.2,-.3,.4,-.4,.4,-.2c0,.1,-1,1.1,-1.2,1.2q-.1,0,-.1,0Z" class="ge_54"/>
<path d="M125.4,414.5c-.1,-.1,-.1,-.3,-.1,-.3q0,-.2,.1,0c0,.1,.1,.3,.1,.4q0,.1,-.1,-.1Z" class="ge_54"/>
<path d="M131.2,413c.2,-.4,1,-1.3,1.1,-1.5q.1,0,.1,0c.1,.1,0,.2,-.2,.4c-.1,.1,-.4,.5,-.6,.8c-.5,.7,-.8,.8,-.4,.3Z" class="ge_54"/>
<path d="M124.8,412.5q0,-.1,0,-.2q.1,0,.2,.1q0,.1,0,.2q-.1,0,-.2,-.1Z" class="ge_54"/>
<path d="M132.5,411.3c0,-.2,.6,-1.2,.7,-1.2c.1,.1,-.6,1.4,-.7,1.4c0,0,0,-.1,0,-.2Z" class="ge_54"/>
<path d="M124.8,411.9c-.1,-.1,-.1,-.2,-.1,-.3c.1,-.3,.2,-.1,.2,.2c0,.1,-.1,.1,-.1,.1Z" class="ge_54"/>
<path d="M124.7,411.2c0,-.1,0,-.3,0,-.3c.1,-.1,.1,0,.1,.3v.2Z" class="ge_54"/>
<path d="M133.2,409.9c0,-.1,0,-.2,-.1,-.3c-.1,-.2,0,-.2,.1,-.2c.4,-.1,.5,.1,.2,.4c-.1,.2,-.1,.3,-.2,.1Z" class="ge_54"/>
<path d="M124.6,410c0,-.2,.1,-.9,.1,-.8c.1,0,.1,.5,0,.7c0,.1,-.1,.2,-.1,.1Z" class="ge_54"/>
<path d="M134,409c-.3,0,-.6,0,-.7,-.1q-.2,0,.1,0c.1,0,.5,0,.9,0c.5,0,.6,0,1,-.3c.3,-.2,.5,-.5,.6,-.7c.2,-.4,.2,-.3,.1,.2c-.1,.3,-.3,.5,-.7,.7c-.5,.3,-.6,.3,-1.3,.2Z" class="ge_54"/>
<path d="M132.4,408.8c-.4,-.1,-.4,-.2,-.1,-.1c.2,0,.3,0,.3,0q.1,.1,.1,.1c-.1,0,-.2,0,-.3,0Z" class="ge_54"/>
<path d="M127,409c-.3,-.2,-.5,-.6,-.4,-.6c.1,0,0,-.2,-.1,-.4c-.3,-.6,-1,-2.2,-1,-2.3c0,-.1,.1,0,.3,.4c.1,.4,.6,1.2,1,1.8c.3,.7,.6,1.2,.6,1.2c-.1,0,-.2,0,-.4,-.1Z" class="ge_54"/>
<path d="M124.7,408.8c-.1,-.2,0,-.9,.2,-1c0,0,0,.1,0,.3c0,.4,-.1,.8,-.2,.7Z" class="ge_54"/>
<path d="M136.1,407.3c0,-.1,.1,-.3,.1,-.4q.1,-.1,.1,.1c0,.1,-.1,.2,-.1,.3q-.1,.1,-.1,0Z" class="ge_54"/>
<path d="M126.2,408.1c-.1,-.1,-.1,-.2,0,-.1c0,0,.1,.1,.1,.2c0,0,-.1,0,-.1,-.1Z" class="ge_54"/>
<path d="M124.9,407.6c0,0,0,-.2,.1,-.3c0,-.2,.1,-.4,.1,-.5c0,-.4,.3,-.2,.4,.2c0,.2,0,.3,0,.2c-.1,-.2,-.4,-.2,-.4,-.1c.1,.1,-.1,.6,-.2,.5Z" class="ge_54"/>
<path d="M136.3,406.6c0,0,.1,-.2,.1,-.4q.1,-.3,.1,.1c0,.2,-.1,.4,-.2,.3Z" class="ge_54"/>
<path d="M136.5,405.3c0,-.1,0,-.2,.1,-.2c0,-.1,.1,0,0,.1c0,.1,0,.2,0,.2c-.1,.1,-.1,0,-.1,-.1Z" class="ge_54"/>
<path d="M136.7,404.8c-.1,-.1,.1,-.6,.3,-.9c.2,-.2,.2,-.4,.2,-.5c-.1,0,-.3,0,-.7,0c-.7,.1,-.8,0,-.1,-.2c.4,0,.8,-.1,.9,-.1c.3,-.1,.3,.1,-.1,.9c-.3,.5,-.5,.8,-.5,.8Z" class="ge_54"/>
<path d="M129.5,404.7c-.1,-.1,-.3,-.3,-.5,-.4c-.3,-.2,-.7,-.8,-.5,-.8c.1,.1,.2,.1,.2,.2c.1,.1,.3,.2,.4,.3c.2,.1,.4,.2,.6,.5c.3,.3,.2,.4,-.2,.2Z" class="ge_54"/>
<path d="M125.3,404.7c0,-.1,0,-.4,0,-.5c.1,-.3,.6,-1.7,.7,-1.7c.1,-.1,.1,.1,-.2,.8c-.1,.4,-.3,1,-.3,1.2q-.1,.4,-.2,.2Z" class="ge_54"/>
<path d="M135.4,403.3c-.2,-.1,-.3,-.1,-.3,-.2c-.1,-.1,.7,-.5,1,-.5c.3,0,.2,.1,-.2,.2c-.5,.2,-.6,.3,-.4,.4q.2,.1,-.1,.1Z" class="ge_54"/>
<path d="M128.8,403.3c-.1,-.1,-.1,-.3,-.2,-.5q0,-.2,.1,0c0,.1,.1,.3,.1,.4q.1,.2,0,.1Z" class="ge_54"/>
<path d="M136.9,402.5c.1,-.1,.2,-.1,.3,-.1c.1,.1,0,.1,-.2,.1c-.3,.1,-.3,0,-.1,0Z" class="ge_54"/>
<path d="M137.5,402.1c.1,-.2,.2,-.3,.2,-.3c.1,0,-.1,.5,-.2,.6c0,0,0,-.1,0,-.3Z" class="ge_54"/>
<path d="M128.4,402.3c-.1,-.1,-.2,-.2,-.1,-.3q0,-.1,.1,.1c.2,.3,.2,.4,0,.2Z" class="ge_54"/>
<path d="M137.9,401.3c0,-.1,.1,-.2,.1,-.2c.1,.1,0,.4,-.1,.4c-.1,0,-.1,-.1,0,-.2Z" class="ge_54"/>
<path d="M127.3,402.2q-.1,-.2,0,-.1c.2,0,.2,.1,.1,.2l-.1,-.1Z" class="ge_54"/>
<path d="M126,402.2c-.1,-.1,.5,-.9,.7,-.9c.3,0,.3,.2,.1,.3c-.2,0,-.4,.2,-.5,.4c-.1,.3,-.2,.3,-.3,.2Z" class="ge_54"/>
<path d="M127.6,401.7c-.1,-.1,-.1,-.3,-.1,-.4c.1,0,.4,.5,.3,.6q0,.1,-.2,-.2Z" class="ge_54"/>
<path d="M138,400.8c0,-.1,.2,-.4,.3,-.4c.1,0,.1,-.2,.2,-.3c.1,-.5,1,-1.9,2,-3.3c.1,-.3,.1,-.4,0,-.5c-.1,-.1,-.1,-.2,.1,-.3c.1,-.1,.2,-.1,.3,-.1c.2,.1,0,.8,-.2,1c-.3,.2,-1.4,1.9,-1.7,2.4c-.6,1.2,-.9,1.7,-1,1.5Z" class="ge_54"/>
<path d="M127.9,401.3q-.1,-.1,0,-.1c0,0,.1,0,.1,0q0,.1,0,.2c0,0,-.1,0,-.1,-.1Z" class="ge_54"/>
<path d="M127.5,400.7c0,-.1,0,-.2,0,-.3c0,-.1,0,0,.1,.2c.1,.1,.2,.2,.1,.3c0,0,-.1,-.1,-.2,-.2Z" class="ge_54"/>
<path d="M127.7,400c-.1,-.2,0,-.5,.1,-.4c.1,0,.1,.1,0,.2c0,.1,-.1,.2,-.1,.2Z" class="ge_54"/>
<path d="M128,399.1c0,-.1,.1,-.3,.3,-.4c.1,-.1,.2,-.3,.2,-.3c.1,-.1,.1,-.2,.2,-.2c.1,0,0,.2,-.4,.7c-.2,.3,-.3,.4,-.3,.2Z" class="ge_54"/>
<path d="M129,397.9c.3,-.4,.8,-.9,.8,-.9c.1,0,-.4,.6,-.7,.9l-.2,.2Z" class="ge_54"/>
<path d="M132.6,397c-.1,-.1,-.2,-.4,0,-.4c.1,-.1,.3,.3,.2,.4c0,0,-.1,0,-.2,0Z" class="ge_54"/>
<path d="M136.3,396.5c.1,-.1,.2,-.2,.3,-.2c0,0,0,.1,-.1,.2c-.1,.1,-.2,.2,-.3,.2c0,0,0,-.1,.1,-.2Z" class="ge_54"/>
<path d="M130.6,396.4c.1,-.1,.2,-.2,.3,-.2c.1,0,-.2,.4,-.4,.4c-.1,0,0,-.1,.1,-.2Z" class="ge_54"/>
<path d="M140.7,395.5c-.1,0,0,0,.1,-.1c.2,-.1,.4,-.1,.4,0c0,.1,-.4,.2,-.5,.1Z" class="ge_54"/>
<path d="M131.3,395.7c.2,-.3,.5,-.4,.6,-.3c.1,.1,-.2,.3,-.7,.6c0,0,0,-.1,.1,-.3Z" class="ge_54"/>
<path d="M141.6,394.4c0,-.1,.1,-.2,.1,-.3c.1,-.1,.2,-.2,.2,-.2c0,.1,0,.2,-.1,.3c-.1,.1,-.1,.2,-.2,.2Z" class="ge_54"/>
<path d="M142.2,393.4c.2,-.5,.8,-1.1,2.4,-2.3c.8,-.7,2.6,-1.7,3.6,-2c1,-.3,1.1,-.4,1.1,-.6c-.2,-.2,.7,-.4,.9,-.2c.2,.1,.1,.3,-.1,.3c-.1,0,-.5,.1,-.8,.3c-.4,.2,-1,.4,-1.3,.5c-1.1,.5,-1.9,.9,-2.4,1.2c-.2,.2,-.5,.4,-.6,.4c-.1,.1,-.4,.2,-.5,.4c-.2,.2,-.4,.3,-.4,.3c0,0,-.2,.1,-.4,.3c-1.1,1,-1.3,1.3,-1.3,1.5c0,.1,-.1,.2,-.2,.2c-.1,0,-.1,-.1,0,-.3Z" class="ge_54"/>
<path d="M133,394.4q0,-.1,.1,-.1c0,0,.1,0,0,.1c0,0,0,.1,-.1,.1c0,0,0,-.1,0,-.1Z" class="ge_54"/>
<path d="M142.3,390.5c0,-.1,0,-.2,.1,-.2c.1,-.1,.2,-.1,.2,-.1c0,0,0,.1,-.1,.2c-.1,.1,-.2,.1,-.2,.1Z" class="ge_54"/>
<path d="M143,389.8c.1,-.3,.5,-.4,.5,-.3c.1,.1,-.3,.3,-.5,.4q-.2,.1,0,-.1Z" class="ge_54"/>
<path d="M144.6,389.1c.1,0,.2,-.1,.3,-.1q.1,0,0,.1c-.1,0,-.2,.1,-.3,.1q-.1,0,0,-.1Z" class="ge_54"/>
<path d="M145.2,389c0,-.1,.4,-.1,.9,-.2c.6,0,.9,0,.9,0c0,.1,-.4,.1,-.9,.2c-.6,0,-.9,0,-.9,0Z" class="ge_54"/>
<path d="M147.1,388.7c.1,0,.4,-.1,.9,-.1c.5,-.1,.7,-.1,.6,0c-.3,.1,-1.5,.2,-1.5,.1Z" class="ge_54"/>
<path d="M125.8,422.5c0,0,0,-.3,0,-.7c0,-.4,0,-.7,0,-.7c0,-.1,0,-.9,0,-1q.1,-.1,.5,.1c.9,.4,1.2,.2,1,-.8c-.1,-1,.1,-1.1,.3,-.1c.1,.7,.1,.9,-.2,1c-.6,.5,-1.5,2,-1.4,2.2c.1,0,0,.1,-.1,.1c0,0,-.1,0,-.1,-.1Z" class="gf_54"/>
<path d="M127.3,418.5c0,-.1,0,-.7,.1,-.8c.1,-.1,.1,0,.1,.4c-.1,.4,-.1,.5,-.2,.4Z" class="gf_54"/>
<path d="M127.3,417.3c0,-.1,0,-.3,0,-.6c0,-.3,.1,-.8,.1,-1.1c.1,-1,.5,-3.2,.7,-3.2c0,0,0,.1,0,.3c0,.1,-.1,.4,-.1,.5c0,.2,-.1,.4,-.1,.7c-.2,.6,-.3,2,-.1,2.1c0,.1,0,.2,-.1,.2c0,0,-.1,.3,-.2,.6c0,.4,-.1,.6,-.2,.5Z" class="gf_54"/>
<path d="M126.2,416.9c0,0,0,-.1,.1,-.2c0,0,0,-.2,0,-.3c-.1,-.2,.2,-.6,.3,-.5c0,.1,-.2,1.1,-.3,1.1l-.1,-.1Z" class="gf_54"/>
<path d="M125.9,415.8c-.1,-.1,-.1,-.2,0,-.3c0,0,.1,.1,.1,.2c.1,.1,.1,.2,.1,.2c-.1,0,-.2,-.1,-.2,-.1Z" class="gf_54"/>
<path d="M126.5,415.6c0,0,0,-.4,.2,-.8c.1,-.4,.2,-1,.3,-1.4c.1,-.4,.2,-.7,.3,-.8c.1,-.1,.1,0,0,.3c0,.3,-.1,.5,-.1,.6c-.1,.8,-.6,2.3,-.7,2.1Z" class="gf_54"/>
<path d="M129,415.2c0,0,0,-.1,.1,-.1q.2,-.1,.2,.1c-.1,.1,-.4,.1,-.3,0Z" class="gf_54"/>
<path d="M125.6,415.2c0,-.1,0,-.2,.1,-.1c0,0,.1,.1,.1,.1q0,.2,-.2,0Z" class="gf_54"/>
<path d="M129.5,414.8c0,-.1,.2,-.3,.4,-.5c.2,-.1,.5,-.4,.5,-.5c.2,-.3,.4,-.4,.4,-.2c0,.1,-1,1.1,-1.2,1.2q-.1,0,-.1,0Z" class="gf_54"/>
<path d="M125.4,414.5c-.1,-.1,-.1,-.3,-.1,-.3q0,-.2,.1,0c0,.1,.1,.3,.1,.4q0,.1,-.1,-.1Z" class="gf_54"/>
<path d="M131.2,413c.2,-.4,1,-1.3,1.1,-1.5q.1,0,.1,0c.1,.1,0,.2,-.2,.4c-.1,.1,-.4,.5,-.6,.8c-.5,.7,-.8,.8,-.4,.3Z" class="gf_54"/>
<path d="M124.8,412.5q0,-.1,0,-.2q.1,0,.2,.1q0,.1,0,.2q-.1,0,-.2,-.1Z" class="gf_54"/>
<path d="M128.1,412.2c0,-.5,1.5,-4,2.7,-6.1c.2,-.5,.5,-1,.5,-1.2c0,-.3,.2,-.5,.3,-.3c.1,.1,-.2,.8,-1.3,2.8c-.5,1,-1,2.1,-1.2,2.5c-.2,.6,-.6,1.5,-.9,2.1c-.1,.2,-.1,.3,-.1,.2Z" class="gf_54"/>
<path d="M127.5,411.9c0,0,0,-.1,.1,-.1c0,0,.1,0,.1,0q0,.1,0,.1q-.1,0,-.2,0Z" class="gf_54"/>
<path d="M132.5,411.3c0,-.2,.6,-1.2,.7,-1.2c.1,.1,-.6,1.4,-.7,1.4c0,0,0,-.1,0,-.2Z" class="gf_54"/>
<path d="M124.8,411.9c-.1,-.1,-.1,-.2,-.1,-.3c.1,-.3,.2,-.1,.2,.2c0,.1,-.1,.1,-.1,.1Z" class="gf_54"/>
<path d="M127.6,411.3c0,0,0,-.1,.1,-.1q.1,0,.1,0c.1,.2,-.1,.3,-.2,.1Z" class="gf_54"/>
<path d="M124.7,411.2c0,-.1,0,-.3,0,-.3c.1,-.1,.1,0,.1,.3v.2Z" class="gf_54"/>
<path d="M127.9,410.9c-.1,0,.3,-.7,.4,-.6c0,0,-.1,.2,-.2,.3c-.1,.3,-.2,.4,-.2,.3Z" class="gf_54"/>
<path d="M133.2,409.9c0,-.1,0,-.2,-.1,-.3c-.1,-.2,0,-.2,.1,-.2c.4,-.1,.5,.1,.2,.4c-.1,.2,-.1,.3,-.2,.1Z" class="gf_54"/>
<path d="M128.3,410.1c0,-.1,.2,-.6,.5,-1.1c.3,-.6,.4,-.8,.3,-.5c-.2,.5,-.9,1.9,-.8,1.6Z" class="gf_54"/>
<path d="M124.6,410c0,-.2,.1,-.9,.1,-.8c.1,0,.1,.5,0,.7c0,.1,-.1,.2,-.1,.1Z" class="gf_54"/>
<path d="M134,409c-.3,0,-.6,0,-.7,-.1q-.2,0,.1,0c.1,0,.5,0,.9,0c.5,0,.6,0,1,-.3c.3,-.2,.5,-.5,.6,-.7c.2,-.4,.2,-.3,.1,.2c-.1,.3,-.3,.5,-.7,.7c-.5,.3,-.6,.3,-1.3,.2Z" class="gf_54"/>
<path d="M132.4,408.8c-.4,-.1,-.4,-.2,-.1,-.1c.2,0,.3,0,.3,0q.1,.1,.1,.1c-.1,0,-.2,0,-.3,0Z" class="gf_54"/>
<path d="M127,409c-.3,-.2,-.5,-.6,-.4,-.6c.1,0,0,-.2,-.1,-.4c-.3,-.6,-1,-2.2,-1,-2.3c0,-.1,.1,0,.3,.4c.1,.4,.6,1.2,1,1.8c.3,.7,.6,1.2,.6,1.2c-.1,0,-.2,0,-.4,-.1Z" class="gf_54"/>
<path d="M124.7,408.8c-.1,-.2,0,-.9,.2,-1c0,0,0,.1,0,.3c0,.4,-.1,.8,-.2,.7Z" class="gf_54"/>
<path d="M136.1,407.3c0,-.1,.1,-.3,.1,-.4q.1,-.1,.1,.1c0,.1,-.1,.2,-.1,.3q-.1,.1,-.1,0Z" class="gf_54"/>
<path d="M126.2,408.1c-.1,-.1,-.1,-.2,0,-.1c0,0,.1,.1,.1,.2c0,0,-.1,0,-.1,-.1Z" class="gf_54"/>
<path d="M129.3,407.7c.1,-.2,.2,-.3,.2,-.3c.1,.1,0,.3,-.1,.5q-.2,0,-.1,-.2Z" class="gf_54"/>
<path d="M129.8,406.7c.1,-.3,.3,-.5,.3,-.6c0,0,.2,-.4,.5,-.9c.2,-.5,.6,-1.2,.7,-1.4c.2,-.2,.5,-.7,.8,-1.1c.4,-.8,.6,-1,.7,-.9c0,.1,-.2,.4,-1,1.6c-.2,.3,-.5,.8,-.7,1.1c-.1,.2,-.3,.7,-.5,1.1c-.2,.4,-.5,1,-.6,1.2c-.3,.7,-.5,.6,-.2,-.1Z" class="gf_54"/>
<path d="M124.9,407.6c0,0,0,-.2,.1,-.3c0,-.2,.1,-.4,.1,-.5c0,-.4,.3,-.2,.4,.2c0,.2,0,.3,0,.2c-.1,-.2,-.4,-.2,-.4,-.1c.1,.1,-.1,.6,-.2,.5Z" class="gf_54"/>
<path d="M136.3,406.6c0,0,.1,-.2,.1,-.4q.1,-.3,.1,.1c0,.2,-.1,.4,-.2,.3Z" class="gf_54"/>
<path d="M136.5,405.3c0,-.1,0,-.2,.1,-.2c0,-.1,.1,0,0,.1c0,.1,0,.2,0,.2c-.1,.1,-.1,0,-.1,-.1Z" class="gf_54"/>
<path d="M136.7,404.8c-.1,-.1,.1,-.6,.3,-.9c.2,-.2,.2,-.4,.2,-.5c-.1,0,-.3,0,-.7,0c-.7,.1,-.8,0,-.1,-.2c.4,0,.8,-.1,.9,-.1c.3,-.1,.3,.1,-.1,.9c-.3,.5,-.5,.8,-.5,.8Z" class="gf_54"/>
<path d="M129.5,404.7c-.1,-.1,-.3,-.3,-.5,-.4c-.3,-.2,-.7,-.8,-.5,-.8c.1,.1,.2,.1,.2,.2c.1,.1,.3,.2,.4,.3c.2,.1,.4,.2,.6,.5c.3,.3,.2,.4,-.2,.2Z" class="gf_54"/>
<path d="M125.3,404.7c0,-.1,0,-.4,0,-.5c.1,-.3,.6,-1.7,.7,-1.7c.1,-.1,.1,.1,-.2,.8c-.1,.4,-.3,1,-.3,1.2q-.1,.4,-.2,.2Z" class="gf_54"/>
<path d="M135.4,403.3c-.2,-.1,-.3,-.1,-.3,-.2c-.1,-.1,.7,-.5,1,-.5c.3,0,.2,.1,-.2,.2c-.5,.2,-.6,.3,-.4,.4q.2,.1,-.1,.1Z" class="gf_54"/>
<path d="M128.8,403.3c-.1,-.1,-.1,-.3,-.2,-.5q0,-.2,.1,0c0,.1,.1,.3,.1,.4q.1,.2,0,.1Z" class="gf_54"/>
<path d="M136.9,402.5c.1,-.1,.2,-.1,.3,-.1c.1,.1,0,.1,-.2,.1c-.3,.1,-.3,0,-.1,0Z" class="gf_54"/>
<path d="M137.5,402.1c.1,-.2,.2,-.3,.2,-.3c.1,0,-.1,.5,-.2,.6c0,0,0,-.1,0,-.3Z" class="gf_54"/>
<path d="M128.4,402.3c-.1,-.1,-.2,-.2,-.1,-.3q0,-.1,.1,.1c.2,.3,.2,.4,0,.2Z" class="gf_54"/>
<path d="M137.9,401.3c0,-.1,.1,-.2,.1,-.2c.1,.1,0,.4,-.1,.4c-.1,0,-.1,-.1,0,-.2Z" class="gf_54"/>
<path d="M127.3,402.2q-.1,-.2,0,-.1c.2,0,.2,.1,.1,.2l-.1,-.1Z" class="gf_54"/>
<path d="M126,402.2c-.1,-.1,.5,-.9,.7,-.9c.3,0,.3,.2,.1,.3c-.2,0,-.4,.2,-.5,.4c-.1,.3,-.2,.3,-.3,.2Z" class="gf_54"/>
<path d="M127.6,401.7c-.1,-.1,-.1,-.3,-.1,-.4c.1,0,.4,.5,.3,.6q0,.1,-.2,-.2Z" class="gf_54"/>
<path d="M133,401.2c.1,-.2,.2,-.4,.3,-.3c.1,0,-.3,.6,-.4,.7c-.1,0,0,-.2,.1,-.4Z" class="gf_54"/>
<path d="M138,400.8c0,-.1,.2,-.4,.3,-.4c.1,0,.1,-.2,.2,-.3c.1,-.5,1,-1.9,2,-3.3c.1,-.3,.1,-.4,0,-.5c-.1,-.1,-.1,-.2,.1,-.3c.1,-.1,.2,-.1,.3,-.1c.2,.1,0,.8,-.2,1c-.3,.2,-1.4,1.9,-1.7,2.4c-.6,1.2,-.9,1.7,-1,1.5Z" class="gf_54"/>
<path d="M127.9,401.3q-.1,-.1,0,-.1c0,0,.1,0,.1,0q0,.1,0,.2c0,0,-.1,0,-.1,-.1Z" class="gf_54"/>
<path d="M133.4,400.7c0,-.1,.5,-1,.8,-1.4c.1,-.2,.3,-.4,.4,-.6c.2,-.4,.8,-1.1,.9,-1c0,0,0,.1,-.1,.2c-.1,.1,-.3,.3,-.3,.4c-.1,0,-.3,.4,-.5,.7c-.3,.3,-.6,.8,-.7,1.1c-.3,.5,-.4,.7,-.5,.6Z" class="gf_54"/>
<path d="M127.5,400.7c0,-.1,0,-.2,0,-.3c0,-.1,0,0,.1,.2c.1,.1,.2,.2,.1,.3c0,0,-.1,-.1,-.2,-.2Z" class="gf_54"/>
<path d="M127.7,400c-.1,-.2,0,-.5,.1,-.4c.1,0,.1,.1,0,.2c0,.1,-.1,.2,-.1,.2Z" class="gf_54"/>
<path d="M128,399.1c0,-.1,.1,-.3,.3,-.4c.1,-.1,.2,-.3,.2,-.3c.1,-.1,.1,-.2,.2,-.2c.1,0,0,.2,-.4,.7c-.2,.3,-.3,.4,-.3,.2Z" class="gf_54"/>
<path d="M129,397.9c.3,-.4,.8,-.9,.8,-.9c.1,0,-.4,.6,-.7,.9l-.2,.2Z" class="gf_54"/>
<path d="M135.9,397c.1,-.1,.2,-.2,.2,-.2c0,0,0,.2,-.1,.3l-.2,.2Z" class="gf_54"/>
<path d="M132.6,397c-.1,-.1,-.2,-.4,0,-.4c.1,-.1,.3,.3,.2,.4c0,0,-.1,0,-.2,0Z" class="gf_54"/>
<path d="M130.6,396.4c.1,-.1,.2,-.2,.3,-.2c.1,0,-.2,.4,-.4,.4c-.1,0,0,-.1,.1,-.2Z" class="gf_54"/>
<path d="M140.7,395.5c-.1,0,0,0,.1,-.1c.2,-.1,.4,-.1,.4,0c0,.1,-.4,.2,-.5,.1Z" class="gf_54"/>
<path d="M131.3,395.7c.2,-.3,.5,-.4,.6,-.3c.1,.1,-.2,.3,-.7,.6c0,0,0,-.1,.1,-.3Z" class="gf_54"/>
<path d="M141.6,394.4c0,-.1,.1,-.2,.1,-.3c.1,-.1,.2,-.2,.2,-.2c0,.1,0,.2,-.1,.3c-.1,.1,-.1,.2,-.2,.2Z" class="gf_54"/>
<path d="M142.2,393.4c.2,-.5,.8,-1.1,2.4,-2.3c.8,-.7,2.6,-1.7,3.6,-2c1,-.3,1.1,-.4,1.1,-.6c-.2,-.2,.7,-.4,.9,-.2c.2,.1,.1,.3,-.1,.3c-.1,0,-.5,.1,-.8,.3c-.4,.2,-1,.4,-1.3,.5c-1.1,.5,-1.9,.9,-2.4,1.2c-.2,.2,-.5,.4,-.6,.4c-.1,.1,-.4,.2,-.5,.4c-.2,.2,-.4,.3,-.4,.3c0,0,-.2,.1,-.4,.3c-1.1,1,-1.3,1.3,-1.3,1.5c0,.1,-.1,.2,-.2,.2c-.1,0,-.1,-.1,0,-.3Z" class="gf_54"/>
<path d="M133,394.4q0,-.1,.1,-.1c0,0,.1,0,0,.1c0,0,0,.1,-.1,.1c0,0,0,-.1,0,-.1Z" class="gf_54"/>
<path d="M142.3,390.5c0,-.1,0,-.2,.1,-.2c.1,-.1,.2,-.1,.2,-.1c0,0,0,.1,-.1,.2c-.1,.1,-.2,.1,-.2,.1Z" class="gf_54"/>
<path d="M143,389.8c.1,-.3,.5,-.4,.5,-.3c.1,.1,-.3,.3,-.5,.4q-.2,.1,0,-.1Z" class="gf_54"/>
<path d="M144.6,389.1c.1,0,.2,-.1,.3,-.1q.1,0,0,.1c-.1,0,-.2,.1,-.3,.1q-.1,0,0,-.1Z" class="gf_54"/>
<path d="M145.2,389c0,-.1,.4,-.1,.9,-.2c.6,0,.9,0,.9,0c0,.1,-.4,.1,-.9,.2c-.6,0,-.9,0,-.9,0Z" class="gf_54"/>
<path d="M147.1,388.7c.1,0,.4,-.1,.9,-.1c.5,-.1,.7,-.1,.6,0c-.3,.1,-1.5,.2,-1.5,.1Z" class="gf_54"/>
<path d="M128.2,402.3q-.1,-.2,-.1,-.1c-.1,.2,0,.3,.1,.3c.1,0,.1,-.1,0,-.2Z" class="ga_54"/>
</g>
<path d="M152.7,414.4H433.1" class="g2_54"/>
<path d="M137.6,423.6V806.2" class="gg_54"/>
</svg>