<?xml version="1.0" encoding="UTF-8" standalone="no"?>
<!DOCTYPE svg PUBLIC "-//W3C//DTD SVG 1.1//EN"
"http://www.w3.org/Graphics/SVG/1.1/DTD/svg11.dtd">
<svg viewBox="0 0 909 1286" version="1.1" xmlns="http://www.w3.org/2000/svg" xmlns:xlink="http://www.w3.org/1999/xlink">
<defs>
<style type="text/css"><![CDATA[
.g0_5{
fill: none;
stroke: #000000;
stroke-width: 0.73;
stroke-linecap: butt;
stroke-linejoin: miter;
}
.g1_5{
fill: #FFFFFF;
}
]]></style>
</defs>
<path d="M265.2,282.3h379M419,311.9V282.7m-44.8,42.9l18.3,11m6.6,40.5V349.7M367.8,396l31.3,-18.7M367.8,396L336.6,377.3m0,-.2V340.6m24.9,-15l-24.9,14.8M305.4,321.8l31.2,18.6M305.4,396l31.2,-18.7M305.4,396L274.1,377.3m0,-.2V340.6m31.3,-18.8l-31.3,18.6m30.2,-10.9l-23,13.7m23,45.1l-23,-13.7m92.9,-42.9l18.3,10.9m-23.6,45.7L392,374.6m-61.4,-2.2v-27M419,393.8V311.9" class="g0_5"/>
<path d="M467.4,367.8V334.2c0,-2.8,2.4,-5.2,5.2,-5.2H591c2.9,0,5.2,2.4,5.2,5.2v33.6c0,2.9,-2.3,5.2,-5.2,5.2H472.6c-2.8,0,-5.2,-2.3,-5.2,-5.2Z" class="g1_5"/>
<path d="M419,423V393.8M265.2,423.4h379M419,452.9V423.7m-51.2,39.1l24.9,14.8m6.4,33.2v-20M367.8,537l24.9,-14.8M367.8,537L336.6,518.3m0,-.1V481.6m31.2,-18.8l-31.2,18.6M305.4,462.8l31.2,18.6M305.4,537l31.2,-18.7M305.4,537L274.1,518.3m0,-.1V481.6m31.3,-18.8l-31.3,18.6m30.2,-10.9l-23,13.7m23,45.1l-23,-13.7m87.6,-45.1l18.3,10.9m-18.3,47.9l18.3,-11m-56.6,-4.9v-27M419,534.8V452.9" class="g0_5"/>
<path d="M457.9,512.5V475.3c0,-2.9,2.3,-5.2,5.2,-5.2H600.5c2.9,0,5.2,2.3,5.2,5.2v37.2c0,2.8,-2.3,5.2,-5.2,5.2H463.1c-2.9,0,-5.2,-2.4,-5.2,-5.2Z" class="g1_5"/>
<path d="M419,564V534.8M265.2,564.4h379M419,594V564.7m-44.8,42.9l24.9,14.8m0,36.8V622.6M367.8,678l31.3,-18.7M367.8,678L336.6,659.3m0,-.1V622.6m24.9,-15l-24.9,14.8M311.8,607.6l24.8,14.8M305.4,678l31.2,-18.7M305.4,678L274.1,659.3m0,-.1V622.6m24.9,-15l-24.9,14.8M299,615.9l-18.3,10.9m23.6,43.5l-23,-13.7m92.9,-40.7l18.3,10.9m-23.6,43.5L392,656.6m-61.4,-2.2v-27M419,675.8V594" class="g0_5"/>
<path d="M432.9,653.5V616.3c0,-2.9,2.3,-5.2,5.2,-5.2H625.5c2.9,0,5.2,2.3,5.2,5.2v37.2c0,2.8,-2.3,5.2,-5.2,5.2H438.1c-2.9,0,-5.2,-2.4,-5.2,-5.2Z" class="g1_5"/>
<path d="M419,705V675.8M265.2,705.4h379M419,735V705.7m-44.8,43l24.9,14.8m0,29.4V763.6M367.8,819l24.9,-14.8M367.8,819L336.6,800.4m0,-.2V763.6m24.9,-14.9l-24.9,14.8M311.8,748.7l24.8,14.8m-24.8,51.6L337,800.2m-38,14.9L273.8,800.2m.3,0V763.6M299,748.7l-24.9,14.8M299,756.9l-18.3,10.9M299,806.9L280.7,796m93.5,-39.1l18.3,10.9m-23.6,43.5l18.3,-10.9m-56.6,-5v-27M419,816.8V735" class="g0_5"/>
<path d="M468.5,794.5V757.3c0,-2.9,2.3,-5.2,5.2,-5.2H589.9c2.9,0,5.2,2.3,5.2,5.2v37.2c0,2.9,-2.3,5.2,-5.2,5.2H473.7c-2.9,0,-5.2,-2.3,-5.2,-5.2Z" class="g1_5"/>
<path d="M419,846V816.8M265.2,846.4h379M419,876V846.7m-44.8,43l24.9,14.8m0,29.4V904.6m-62.5,36.6h54.8m-54.8,0V904.6m24.9,-14.9l-24.9,14.8M305.4,885.8l31.2,18.7m-24.8,51.7l25.2,-15m-38,15l-25.2,-15m.3,0V913.8m31.3,-28l-24.9,14.8M299,947.9L280.7,937m23.6,-43.5l-18.3,11m44.6,31.9v-27m62.5,24.5V909.4M419,957.8V876" class="g0_5"/>
<path d="M462.9,935.5V898.3c0,-2.9,2.4,-5.2,5.2,-5.2H595.5c2.8,0,5.2,2.3,5.2,5.2v37.2c0,2.9,-2.4,5.2,-5.2,5.2H468.1c-2.8,0,-5.2,-2.3,-5.2,-5.2Z" class="g1_5"/>
<path d="M419,987V957.8M265.2,987.4h379" class="g0_5"/>
</svg>