<?xml version="1.0" encoding="UTF-8" standalone="no"?>
<!DOCTYPE svg PUBLIC "-//W3C//DTD SVG 1.1//EN"
"http://www.w3.org/Graphics/SVG/1.1/DTD/svg11.dtd">
<svg viewBox="0 0 909 1286" version="1.1" xmlns="http://www.w3.org/2000/svg" xmlns:xlink="http://www.w3.org/1999/xlink">
<defs>
<style type="text/css"><![CDATA[
.g0_71{
fill: none;
stroke: #000000;
stroke-width: 0.73;
stroke-linecap: butt;
stroke-linejoin: miter;
}
.g1_71{
fill: #FDE8E9;
}
]]></style>
</defs>
<path d="M116.9,159.9H792.5" class="g0_71"/>
<path d="M116.9,292.5h163V264.7h-163v27.8Z" class="g1_71"/>
<path d="M235.2,497.1H415V469.2H235.2v27.9Z" class="g1_71"/>
<path d="M252.1,614h44.7V586.1H252.1V614Z" class="g1_71"/>
<path d="M539.2,672.9h78.5V645H539.2v27.9Z" class="g1_71"/>
<path d="M116.9,702.6H246.1V674.7H116.9v27.9Z" class="g1_71"/>
<path d="M116.9,790.2H263V762.4H116.9v27.8Z" class="g1_71"/>
<path d="M302.7,819.9h95.4V792.1H302.7v27.8Z" class="g1_71"/>
<path d="M322.1,878.8h163V851h-163v27.8Z" class="g1_71"/>
<path d="M218.3,908.5H263V880.6H218.3v27.9Z" class="g1_71"/>
<path d="M116.9,1049.1H296.8v-27.8H116.9v27.8Z" class="g1_71"/>
</svg>