<?xml version="1.0" encoding="UTF-8" standalone="no"?>
<!DOCTYPE svg PUBLIC "-//W3C//DTD SVG 1.1//EN"
"http://www.w3.org/Graphics/SVG/1.1/DTD/svg11.dtd">
<svg viewBox="0 0 909 1286" version="1.1" xmlns="http://www.w3.org/2000/svg" xmlns:xlink="http://www.w3.org/1999/xlink">
<defs>
<clipPath id="c0_10"><path d="M134.6,216.4V185.7H782.7v30.7Z"/></clipPath>
<style type="text/css"><![CDATA[
.g0_10{
fill: none;
stroke: #000000;
stroke-width: 0.73;
stroke-linecap: butt;
stroke-linejoin: miter;
}
.g1_10{
fill: #7F7F7F;
}
.g2_10{
fill: #FFFFFF;
}
.g3_10{
fill: none;
stroke: #7F7F7F;
stroke-width: 0.73;
stroke-linecap: butt;
stroke-linejoin: miter;
stroke-dasharray: 6,6;
}
.g4_10{
fill: #FFFFFF;
stroke: #000000;
stroke-width: 0.73;
stroke-linecap: butt;
stroke-linejoin: miter;
}
.g5_10{
fill: none;
stroke: #000000;
stroke-width: 3.47;
stroke-linecap: butt;
stroke-linejoin: miter;
}
.g6_10{
fill: none;
stroke: #CDCDB4;
stroke-width: 2.739;
stroke-linecap: butt;
stroke-linejoin: miter;
}
.g7_10{
fill: #FDE8E9;
}
.g8_10{
fill: none;
stroke: #FFA313;
stroke-width: 0.73;
stroke-linecap: butt;
stroke-linejoin: miter;
}
]]></style>
</defs>
<path d="M116.9,159.9H792.5" class="g0_10"/>
<path d="M133.8,713.9V185H783.4V713.9Z" class="g1_10"/>
<path d="M134.6,713.2V217.1H782.7V713.2Z" class="g2_10"/>
<path d="M134.6,297H782.7" class="g3_10"/>
<path d="M134.6,216.4V185.7H782.7v30.7Z" class="g1_10"/>
<g clip-path="url(#c0_10)">
<image x="134" y="185" width="649" height="31" xlink:href="shade/1.png"/>
</g>
<path d="M159.5,227.5c0,-3,-2.4,-5.5,-5.5,-5.5c-3,0,-5.4,2.5,-5.4,5.5c0,3,2.4,5.5,5.4,5.5c3.1,0,5.5,-2.5,5.5,-5.5Z" class="g4_10"/>
<path d="M154,227.5c6.5,1.6,5.5,3.9,-2.2,5.2c-7.7,1.3,-19.3,1.1,-25.7,-.5c-4.2,-1,-5.4,-2.4,-3.2,-3.6c1.8,-1,5.8,-1.8,10.9,-2.2" class="g5_10"/>
<path d="M154,227.5c6.5,1.6,5.5,3.9,-2.2,5.2c-7.7,1.3,-19.3,1.1,-25.7,-.5c-4.2,-1,-5.4,-2.4,-3.2,-3.6c1.8,-1,5.8,-1.8,10.9,-2.2" class="g6_10"/>
<path d="M159.5,252.3c0,-3,-2.4,-5.5,-5.5,-5.5c-3,0,-5.4,2.5,-5.4,5.5c0,3,2.4,5.5,5.4,5.5c3.1,0,5.5,-2.5,5.5,-5.5Z" class="g4_10"/>
<path d="M154,252.3c6.5,1.6,5.5,3.9,-2.2,5.2c-7.7,1.3,-19.3,1.1,-25.7,-.5c-4.2,-1,-5.4,-2.4,-3.2,-3.6c1.8,-1,5.8,-1.8,10.9,-2.2" class="g5_10"/>
<path d="M154,252.3c6.5,1.6,5.5,3.9,-2.2,5.2c-7.7,1.3,-19.3,1.1,-25.7,-.5c-4.2,-1,-5.4,-2.4,-3.2,-3.6c1.8,-1,5.8,-1.8,10.9,-2.2" class="g6_10"/>
<path d="M159.5,277.1c0,-3,-2.4,-5.5,-5.5,-5.5c-3,0,-5.4,2.5,-5.4,5.5c0,3,2.4,5.5,5.4,5.5c3.1,0,5.5,-2.5,5.5,-5.5Z" class="g4_10"/>
<path d="M154,277.1c6.5,1.6,5.5,3.9,-2.2,5.2c-7.7,1.3,-19.3,1.1,-25.7,-.5c-4.2,-1,-5.4,-2.4,-3.2,-3.6c1.8,-1,5.8,-1.8,10.9,-2.2" class="g5_10"/>
<path d="M154,277.1c6.5,1.6,5.5,3.9,-2.2,5.2c-7.7,1.3,-19.3,1.1,-25.7,-.5c-4.2,-1,-5.4,-2.4,-3.2,-3.6c1.8,-1,5.8,-1.8,10.9,-2.2" class="g6_10"/>
<path d="M159.5,301.9c0,-3,-2.4,-5.5,-5.5,-5.5c-3,0,-5.4,2.5,-5.4,5.5c0,3,2.4,5.5,5.4,5.5c3.1,0,5.5,-2.5,5.5,-5.5Z" class="g4_10"/>
<path d="M154,301.9c6.5,1.6,5.5,3.9,-2.2,5.2c-7.7,1.3,-19.3,1.1,-25.7,-.5c-4.2,-1,-5.4,-2.4,-3.2,-3.6c1.8,-1,5.8,-1.8,10.9,-2.2" class="g5_10"/>
<path d="M154,301.9c6.5,1.6,5.5,3.9,-2.2,5.2c-7.7,1.3,-19.3,1.1,-25.7,-.5c-4.2,-1,-5.4,-2.4,-3.2,-3.6c1.8,-1,5.8,-1.8,10.9,-2.2" class="g6_10"/>
<path d="M159.5,326.7c0,-3,-2.4,-5.5,-5.5,-5.5c-3,0,-5.4,2.5,-5.4,5.5c0,3,2.4,5.5,5.4,5.5c3.1,0,5.5,-2.5,5.5,-5.5Z" class="g4_10"/>
<path d="M154,326.7c6.5,1.6,5.5,3.9,-2.2,5.2c-7.7,1.3,-19.3,1.1,-25.7,-.5c-4.2,-1,-5.4,-2.4,-3.2,-3.6c1.8,-1,5.8,-1.8,10.9,-2.2" class="g5_10"/>
<path d="M154,326.7c6.5,1.6,5.5,3.9,-2.2,5.2c-7.7,1.3,-19.3,1.1,-25.7,-.5c-4.2,-1,-5.4,-2.4,-3.2,-3.6c1.8,-1,5.8,-1.8,10.9,-2.2" class="g6_10"/>
<path d="M159.5,351.5c0,-3,-2.4,-5.5,-5.5,-5.5c-3,0,-5.4,2.5,-5.4,5.5c0,3.1,2.4,5.5,5.4,5.5c3.1,0,5.5,-2.4,5.5,-5.5Z" class="g4_10"/>
<path d="M154,351.5c6.5,1.6,5.5,3.9,-2.2,5.2c-7.7,1.3,-19.3,1.1,-25.7,-.5c-4.2,-1,-5.4,-2.4,-3.2,-3.6c1.8,-1,5.8,-1.8,10.9,-2.2" class="g5_10"/>
<path d="M154,351.5c6.5,1.6,5.5,3.9,-2.2,5.2c-7.7,1.3,-19.3,1.1,-25.7,-.5c-4.2,-1,-5.4,-2.4,-3.2,-3.6c1.8,-1,5.8,-1.8,10.9,-2.2" class="g6_10"/>
<path d="M159.5,376.3c0,-3,-2.4,-5.5,-5.5,-5.5c-3,0,-5.4,2.5,-5.4,5.5c0,3.1,2.4,5.5,5.4,5.5c3.1,0,5.5,-2.4,5.5,-5.5Z" class="g4_10"/>
<path d="M154,376.3c6.5,1.6,5.5,3.9,-2.2,5.2c-7.7,1.3,-19.3,1.1,-25.7,-.5c-4.2,-1,-5.4,-2.3,-3.2,-3.6c1.8,-1,5.8,-1.8,10.9,-2.2" class="g5_10"/>
<path d="M154,376.3c6.5,1.6,5.5,3.9,-2.2,5.2c-7.7,1.3,-19.3,1.1,-25.7,-.5c-4.2,-1,-5.4,-2.3,-3.2,-3.6c1.8,-1,5.8,-1.8,10.9,-2.2" class="g6_10"/>
<path d="M159.5,401.1c0,-3,-2.4,-5.5,-5.5,-5.5c-3,0,-5.4,2.5,-5.4,5.5c0,3.1,2.4,5.5,5.4,5.5c3.1,0,5.5,-2.4,5.5,-5.5Z" class="g4_10"/>
<path d="M154,401.1c6.5,1.6,5.5,3.9,-2.2,5.2c-7.7,1.3,-19.3,1.1,-25.7,-.5c-4.2,-1,-5.4,-2.3,-3.2,-3.6c1.8,-1,5.8,-1.8,10.9,-2.2" class="g5_10"/>
<path d="M154,401.1c6.5,1.6,5.5,3.9,-2.2,5.2c-7.7,1.3,-19.3,1.1,-25.7,-.5c-4.2,-1,-5.4,-2.3,-3.2,-3.6c1.8,-1,5.8,-1.8,10.9,-2.2" class="g6_10"/>
<path d="M159.5,425.9c0,-3,-2.4,-5.4,-5.5,-5.4c-3,0,-5.4,2.4,-5.4,5.4c0,3.1,2.4,5.5,5.4,5.5c3.1,0,5.5,-2.4,5.5,-5.5Z" class="g4_10"/>
<path d="M154,425.9c6.5,1.6,5.5,3.9,-2.2,5.2c-7.7,1.3,-19.3,1.1,-25.7,-.5c-4.2,-1,-5.4,-2.3,-3.2,-3.6c1.8,-1,5.8,-1.8,10.9,-2.2" class="g5_10"/>
<path d="M154,425.9c6.5,1.6,5.5,3.9,-2.2,5.2c-7.7,1.3,-19.3,1.1,-25.7,-.5c-4.2,-1,-5.4,-2.3,-3.2,-3.6c1.8,-1,5.8,-1.8,10.9,-2.2" class="g6_10"/>
<path d="M159.5,450.7c0,-3,-2.4,-5.4,-5.5,-5.4c-3,0,-5.4,2.4,-5.4,5.4c0,3.1,2.4,5.5,5.4,5.5c3.1,0,5.5,-2.4,5.5,-5.5Z" class="g4_10"/>
<path d="M154,450.7c6.5,1.6,5.5,3.9,-2.2,5.2c-7.7,1.3,-19.3,1.1,-25.7,-.5c-4.2,-1,-5.4,-2.3,-3.2,-3.6c1.8,-1,5.8,-1.8,10.9,-2.2" class="g5_10"/>
<path d="M154,450.7c6.5,1.6,5.5,3.9,-2.2,5.2c-7.7,1.3,-19.3,1.1,-25.7,-.5c-4.2,-1,-5.4,-2.3,-3.2,-3.6c1.8,-1,5.8,-1.8,10.9,-2.2" class="g6_10"/>
<path d="M159.5,475.5c0,-3,-2.4,-5.4,-5.5,-5.4c-3,0,-5.4,2.4,-5.4,5.4c0,3.1,2.4,5.5,5.4,5.5c3.1,0,5.5,-2.4,5.5,-5.5Z" class="g4_10"/>
<path d="M154,475.5c6.5,1.6,5.5,3.9,-2.2,5.2c-7.7,1.3,-19.3,1.1,-25.7,-.5c-4.2,-1,-5.4,-2.3,-3.2,-3.6c1.8,-1,5.8,-1.8,10.9,-2.1" class="g5_10"/>
<path d="M154,475.5c6.5,1.6,5.5,3.9,-2.2,5.2c-7.7,1.3,-19.3,1.1,-25.7,-.5c-4.2,-1,-5.4,-2.3,-3.2,-3.6c1.8,-1,5.8,-1.8,10.9,-2.1" class="g6_10"/>
<path d="M159.5,500.3c0,-3,-2.4,-5.4,-5.5,-5.4c-3,0,-5.4,2.4,-5.4,5.4c0,3.1,2.4,5.5,5.4,5.5c3.1,0,5.5,-2.4,5.5,-5.5Z" class="g4_10"/>
<path d="M154,500.3c6.5,1.6,5.5,3.9,-2.2,5.2c-7.7,1.3,-19.3,1.1,-25.7,-.5c-4.2,-1,-5.4,-2.3,-3.2,-3.6c1.8,-1,5.8,-1.8,10.9,-2.1" class="g5_10"/>
<path d="M154,500.3c6.5,1.6,5.5,3.9,-2.2,5.2c-7.7,1.3,-19.3,1.1,-25.7,-.5c-4.2,-1,-5.4,-2.3,-3.2,-3.6c1.8,-1,5.8,-1.8,10.9,-2.1" class="g6_10"/>
<path d="M159.5,525.1c0,-3,-2.4,-5.4,-5.5,-5.4c-3,0,-5.4,2.4,-5.4,5.4c0,3.1,2.4,5.5,5.4,5.5c3.1,0,5.5,-2.4,5.5,-5.5Z" class="g4_10"/>
<path d="M154,525.1c6.5,1.6,5.5,3.9,-2.2,5.2c-7.7,1.3,-19.3,1.1,-25.7,-.5c-4.2,-1,-5.4,-2.3,-3.2,-3.6c1.8,-1,5.8,-1.8,10.9,-2.1" class="g5_10"/>
<path d="M154,525.1c6.5,1.6,5.5,3.9,-2.2,5.2c-7.7,1.3,-19.3,1.1,-25.7,-.5c-4.2,-1,-5.4,-2.3,-3.2,-3.6c1.8,-1,5.8,-1.8,10.9,-2.1" class="g6_10"/>
<path d="M159.5,549.9c0,-3,-2.4,-5.4,-5.5,-5.4c-3,0,-5.4,2.4,-5.4,5.4c0,3.1,2.4,5.5,5.4,5.5c3.1,0,5.5,-2.4,5.5,-5.5Z" class="g4_10"/>
<path d="M154,549.9c6.5,1.6,5.5,3.9,-2.2,5.2c-7.7,1.3,-19.3,1.1,-25.7,-.5c-4.2,-1,-5.4,-2.3,-3.2,-3.6c1.8,-1,5.8,-1.8,10.9,-2.1" class="g5_10"/>
<path d="M154,549.9c6.5,1.6,5.5,3.9,-2.2,5.2c-7.7,1.3,-19.3,1.1,-25.7,-.5c-4.2,-1,-5.4,-2.3,-3.2,-3.6c1.8,-1,5.8,-1.8,10.9,-2.1" class="g6_10"/>
<path d="M159.5,574.7c0,-3,-2.4,-5.4,-5.5,-5.4c-3,0,-5.4,2.4,-5.4,5.4c0,3.1,2.4,5.5,5.4,5.5c3.1,0,5.5,-2.4,5.5,-5.5Z" class="g4_10"/>
<path d="M154,574.7c6.5,1.6,5.5,3.9,-2.2,5.2c-7.7,1.3,-19.3,1.1,-25.7,-.5c-4.2,-1,-5.4,-2.3,-3.2,-3.6c1.8,-1,5.8,-1.8,10.9,-2.1" class="g5_10"/>
<path d="M154,574.7c6.5,1.6,5.5,3.9,-2.2,5.2c-7.7,1.3,-19.3,1.1,-25.7,-.5c-4.2,-1,-5.4,-2.3,-3.2,-3.6c1.8,-1,5.8,-1.8,10.9,-2.1" class="g6_10"/>
<path d="M159.5,599.5c0,-3,-2.4,-5.4,-5.5,-5.4c-3,0,-5.4,2.4,-5.4,5.4c0,3.1,2.4,5.5,5.4,5.5c3.1,0,5.5,-2.4,5.5,-5.5Z" class="g4_10"/>
<path d="M154,599.5c6.5,1.6,5.5,3.9,-2.2,5.2c-7.7,1.3,-19.3,1.1,-25.7,-.5c-4.2,-1,-5.4,-2.3,-3.2,-3.6c1.8,-1,5.8,-1.8,10.9,-2.1" class="g5_10"/>
<path d="M154,599.5c6.5,1.6,5.5,3.9,-2.2,5.2c-7.7,1.3,-19.3,1.1,-25.7,-.5c-4.2,-1,-5.4,-2.3,-3.2,-3.6c1.8,-1,5.8,-1.8,10.9,-2.1" class="g6_10"/>
<path d="M159.5,624.3c0,-3,-2.4,-5.4,-5.5,-5.4c-3,0,-5.4,2.4,-5.4,5.4c0,3.1,2.4,5.5,5.4,5.5c3.1,0,5.5,-2.4,5.5,-5.5Z" class="g4_10"/>
<path d="M154,624.3c6.5,1.6,5.5,3.9,-2.2,5.2c-7.7,1.3,-19.3,1.1,-25.7,-.5c-4.2,-1,-5.4,-2.3,-3.2,-3.6c1.8,-1,5.8,-1.8,10.9,-2.1" class="g5_10"/>
<path d="M154,624.3c6.5,1.6,5.5,3.9,-2.2,5.2c-7.7,1.3,-19.3,1.1,-25.7,-.5c-4.2,-1,-5.4,-2.3,-3.2,-3.6c1.8,-1,5.8,-1.8,10.9,-2.1" class="g6_10"/>
<path d="M159.5,649.2c0,-3.1,-2.4,-5.5,-5.5,-5.5c-3,0,-5.4,2.4,-5.4,5.5c0,3,2.4,5.4,5.4,5.4c3.1,0,5.5,-2.4,5.5,-5.4Z" class="g4_10"/>
<path d="M154,649.2c6.5,1.5,5.5,3.8,-2.2,5.1c-7.7,1.3,-19.3,1.1,-25.7,-.5c-4.2,-1,-5.4,-2.3,-3.2,-3.6c1.8,-1,5.8,-1.8,10.9,-2.1" class="g5_10"/>
<path d="M154,649.2c6.5,1.5,5.5,3.8,-2.2,5.1c-7.7,1.3,-19.3,1.1,-25.7,-.5c-4.2,-1,-5.4,-2.3,-3.2,-3.6c1.8,-1,5.8,-1.8,10.9,-2.1" class="g6_10"/>
<path d="M159.5,674c0,-3.1,-2.4,-5.5,-5.5,-5.5c-3,0,-5.4,2.4,-5.4,5.5c0,3,2.4,5.4,5.4,5.4c3.1,0,5.5,-2.4,5.5,-5.4Z" class="g4_10"/>
<path d="M154,674c6.5,1.5,5.5,3.8,-2.2,5.1c-7.7,1.3,-19.3,1.1,-25.7,-.5c-4.2,-1,-5.4,-2.3,-3.2,-3.5c1.8,-1.1,5.8,-1.9,10.9,-2.2" class="g5_10"/>
<path d="M154,674c6.5,1.5,5.5,3.8,-2.2,5.1c-7.7,1.3,-19.3,1.1,-25.7,-.5c-4.2,-1,-5.4,-2.3,-3.2,-3.5c1.8,-1.1,5.8,-1.9,10.9,-2.2" class="g6_10"/>
<path d="M159.5,698.8c0,-3.1,-2.4,-5.5,-5.5,-5.5c-3,0,-5.4,2.4,-5.4,5.5c0,3,2.4,5.4,5.4,5.4c3.1,0,5.5,-2.4,5.5,-5.4Z" class="g4_10"/>
<path d="M154,698.8c6.5,1.5,5.5,3.8,-2.2,5.1c-7.7,1.3,-19.3,1.1,-25.7,-.4c-4.2,-1,-5.4,-2.4,-3.2,-3.6c1.8,-1.1,5.8,-1.9,10.9,-2.2" class="g5_10"/>
<path d="M154,698.8c6.5,1.5,5.5,3.8,-2.2,5.1c-7.7,1.3,-19.3,1.1,-25.7,-.4c-4.2,-1,-5.4,-2.4,-3.2,-3.6c1.8,-1.1,5.8,-1.9,10.9,-2.2" class="g6_10"/>
<path d="M195.3,635.5V403.9m100.4,15.9h82.4M223.4,493.4V464.1m0,89.5V524.4m0,77.3v-17" class="g0_10"/>
<path d="M336.5,834.6H361V787H336.5v47.6Z" class="g7_10"/>
<path d="M344.2,812h9.1" class="g8_10"/>
<path d="M268.9,864.2h42V836.4h-42v27.8Z" class="g7_10"/>
<path d="M577.8,914.8H590m-112.1,87.6h12.2m-35.5,73.1h12.3m-53.4,43.8h12.3" class="g0_10"/>
</svg>