<?xml version="1.0" encoding="UTF-8" standalone="no"?>
<!DOCTYPE svg PUBLIC "-//W3C//DTD SVG 1.1//EN"
"http://www.w3.org/Graphics/SVG/1.1/DTD/svg11.dtd">
<svg viewBox="0 0 909 1286" version="1.1" xmlns="http://www.w3.org/2000/svg" xmlns:xlink="http://www.w3.org/1999/xlink">
<defs>
<style type="text/css"><![CDATA[
.g0_8{
fill: none;
stroke: #000000;
stroke-width: 0.73;
stroke-linecap: butt;
stroke-linejoin: miter;
}
.g1_8{
fill: none;
stroke: #F81693;
stroke-width: 0.73;
stroke-linecap: butt;
stroke-linejoin: miter;
}
.g2_8{
fill: #FFFFFF;
}
]]></style>
</defs>
<path d="M203.3,284.2H706.2M466.7,313.8V284.5" class="g0_8"/>
<path d="M334.8,379.5L366,360.9m0,-.2V324.2m-62.5,0H366m-62.5,36.5V324.2m31.3,55.3L303.5,360.9m6.1,-30.7h50.6" class="g1_8"/>
<path d="M366,360.7l31.2,18.6m0,36.8V379.5M366,434.9l31.2,-18.7M366,434.9L334.8,416.2m0,-.1V379.5m30.1,-11.1l-23,13.7m49.3,29.2v-27m-26.3,42.9l-23,-13.7m-7.1,2.6V379.5m-31.3,55.4l31.3,-18.7m-31.3,18.7L272.3,416.2m0,-.1V379.5m31.2,-18.8l-31.2,18.6m30.1,-10.9l-23,13.7m23,45.1l-23,-13.7m187.3,18.6V313.8" class="g0_8"/>
<path d="M494.9,391.6V354.3c0,-2.8,2.4,-5.2,5.2,-5.2h173c2.8,0,5.2,2.4,5.2,5.2v37.3c0,2.8,-2.4,5.2,-5.2,5.2h-173c-2.8,0,-5.2,-2.4,-5.2,-5.2Z" class="g2_8"/>
<path d="M466.7,461.3V432.1M203.3,461.7H706.2M466.7,491.3V462.1" class="g0_8"/>
<path d="M389.6,537.7l31.2,18.6m0,36.7V556.5M358.3,593h62.5m-62.5,0V556.5m31.3,-18.8l-31.3,18.6m56.5,32v-27" class="g1_8"/>
<path d="M358.3,482.4L389.6,501m0,36.7V501.2m-31.3,55.3L327.1,537.9m0,-.2V501.2m31.2,-18.8L327.1,501m30.1,-11l-23,13.7m49.3,29.2v-27m-26.3,42.9l-23,-13.7m-7.1,2.6l31.2,18.6m-31.2,55.6l31.2,-18.7m-31.2,18.7L295.9,593.2m0,-.2V556.5m31.2,-18.8l-31.2,18.6m6,32v-27m26.3,42.9l23,-13.7M264.6,537.7l31.3,18.6m-31.3,55.6l31.3,-18.7m-31.3,18.7L233.4,593.2m0,-.2V556.5m31.2,-18.8l-31.2,18.6m30.1,-10.9l-23,13.7m23,45.1l-23,-13.7m226.2,19.2V491.3" class="g0_8"/>
<path d="M480.6,569.1V531.9c0,-2.9,2.3,-5.2,5.2,-5.2H687.4c2.9,0,5.2,2.3,5.2,5.2v37.2c0,2.9,-2.3,5.2,-5.2,5.2H485.8c-2.9,0,-5.2,-2.3,-5.2,-5.2Z" class="g2_8"/>
<path d="M466.7,638.9V609.7M203.3,639.3H706.2M466.7,668.8V639.6" class="g0_8"/>
<path d="M371.3,734.6L402.5,716m0,-.2V679.3m-62.4,0h62.4m-62.4,36.5V679.3m31.2,55.3L340.1,716m6,-30.7h50.6" class="g1_8"/>
<path d="M402.5,715.8l31.3,18.6m0,36.7V734.6m-31.3,55.3l31.3,-18.6m-31.3,18.6L371.3,771.3m0,-.2V734.6m32.3,-11.1l23.1,13.7m-23.1,45.1l23.1,-13.7m-55.4,2.5V734.6m-31.2,55.3l31.2,-18.6m-31.2,18.6L308.8,771.3m0,-.2V734.6m31.3,-18.8l-31.3,18.6m6.1,32V739.3m26.3,43l23,-13.7M277.6,715.8l31.2,18.6m-31.2,55.5l31.2,-18.6m-31.2,18.6L246.4,771.3m0,-.2V734.6m31.2,-18.8l-31.2,18.6m30.1,-10.9l-23,13.7m23,45.1l-23,-13.7m213.2,18.6V668.8" class="g0_8"/>
<path d="M501.6,746.6V709.4c0,-2.8,2.3,-5.2,5.2,-5.2H666.4c2.9,0,5.2,2.4,5.2,5.2v37.2c0,2.9,-2.3,5.2,-5.2,5.2H506.8c-2.9,0,-5.2,-2.3,-5.2,-5.2Z" class="g2_8"/>
<path d="M466.7,816.4V787.2M203.3,816.8H706.2" class="g0_8"/>
</svg>