<?xml version="1.0" encoding="UTF-8" standalone="no"?>
<!DOCTYPE svg PUBLIC "-//W3C//DTD SVG 1.1//EN"
"http://www.w3.org/Graphics/SVG/1.1/DTD/svg11.dtd">
<svg viewBox="0 0 909 1286" version="1.1" xmlns="http://www.w3.org/2000/svg" xmlns:xlink="http://www.w3.org/1999/xlink">
<defs>
<style type="text/css"><![CDATA[
.g0_9{
fill: none;
stroke: #000000;
stroke-width: 0.73;
stroke-linecap: butt;
stroke-linejoin: miter;
}
.g1_9{
fill: #FDE8E9;
}
.g2_9{
fill: none;
stroke: #FFA313;
stroke-width: 0.73;
stroke-linecap: butt;
stroke-linejoin: miter;
}
]]></style>
</defs>
<path d="M116.9,159.9H792.5" class="g0_9"/>
<path d="M497.1,228.2h33.8V179.5H497.1v48.7Z" class="g1_9"/>
<path d="M504.8,205.6h18.4" class="g2_9"/>
<path d="M440.9,284.1h39.3V259.7H440.9v24.4Z" class="g1_9"/>
<path d="M440.9,346.2h60.3V317.7H440.9v28.5Z" class="g1_9"/>
<path d="M440.9,382.1h77.5V353.5H440.9v28.6Z" class="g1_9"/>
<path d="M116.9,444.3h96V415.7h-96v28.6Z" class="g1_9"/>
<path d="M300.9,441.5h61.6V413.6H300.9v27.9Z" class="g1_9"/>
<path d="M437.8,517.8h78.5V490H437.8v27.8Z" class="g1_9"/>
<path d="M375.9,547.5h44.7V519.6H375.9v27.9Z" class="g1_9"/>
<path d="M395.4,620.6h9.9" class="g0_9"/>
<path d="M429.7,689.8H514V563.9H429.7V689.8Z" class="g1_9"/>
<path d="M437.4,626.9h69" class="g2_9"/>
<path d="M116.9,787.1h61.7V759.2H116.9v27.9Z" class="g1_9"/>
<path d="M302.7,1024.7h59.9V958.8H302.7v65.9Z" class="g1_9"/>
<path d="M396.4,1000.3h39.7V976.6H396.4v23.7Z" class="g1_9"/>
<path d="M474,1000.3h20.5V976.6H474v23.7Z" class="g1_9"/>
<path d="M270.5,1054.4h27.9v-27.9H270.5v27.9Z" class="g1_9"/>
<path d="M435.3,1136.7h77.1v-65.9H435.3v65.9Z" class="g1_9"/>
</svg>