<?xml version="1.0" encoding="UTF-8" standalone="no"?>
<!DOCTYPE svg PUBLIC "-//W3C//DTD SVG 1.1//EN"
"http://www.w3.org/Graphics/SVG/1.1/DTD/svg11.dtd">
<svg viewBox="0 0 909 1286" version="1.1" xmlns="http://www.w3.org/2000/svg" xmlns:xlink="http://www.w3.org/1999/xlink">
<defs>
<style type="text/css"><![CDATA[
.g0_21{
fill: none;
stroke: #000000;
stroke-width: 0.73;
stroke-linecap: butt;
stroke-linejoin: miter;
}
.g1_21{
fill: none;
stroke: #F81693;
stroke-width: 0.73;
stroke-linecap: butt;
stroke-linejoin: miter;
}
.g2_21{
fill: none;
stroke: #02B5EE;
stroke-width: 0.73;
stroke-linecap: butt;
stroke-linejoin: miter;
}
.g3_21{
fill: #FFFFFF;
}
.g4_21{
fill: #FDE8E9;
}
.g5_21{
fill: none;
stroke: #7F7F7F;
stroke-width: 0.73;
stroke-linecap: butt;
stroke-linejoin: miter;
}
.g6_21{
fill: none;
stroke: #F81693;
stroke-width: 1.461;
stroke-linecap: butt;
stroke-linejoin: miter;
}
.g7_21{
fill: none;
stroke: #02B5EE;
stroke-width: 1.461;
stroke-linecap: butt;
stroke-linejoin: miter;
}
]]></style>
</defs>
<path d="M116.9,179.9H761.8M380.3,209.5V180.3m-214,48.2l31.2,18.6m0,36.7V247.3m-31.2,55.3L197.5,284m-31.2,18.6L135,284m0,-.2V247.3m31.3,-18.8L135,247.1m32.4,-11l23,13.7m-23,45.2l23,-13.7M141,279.1V252m116.9,-3.4L233.1,233.8m24.8,14.8l31.3,-18.7m-91.7,17.4l21.9,-13.2m160.9,75.5V209.5" class="g0_21"/>
<path d="M469.9,228.5l31.2,18.6m0,36.7V247.3m-31.2,55.3L501.1,284m-31.2,18.6L438.6,284m0,-.2V247.3m31.3,-18.8l-31.3,18.6m32.4,-11l23,13.7M471,295l23,-13.7m-49.3,-2.2V252" class="g1_21"/>
<path d="M561.6,248.6L536.7,233.8m24.9,14.8l31.2,-18.7m-91.7,17.4L523,234.1" class="g2_21"/>
<path d="M380.3,338.8V309.6m0,58.4V338.8m0,58.4V368m0,105V397.2" class="g0_21"/>
<path d="M457.9,465.2V405c0,-2.8,2.4,-5.2,5.2,-5.2H657.7c2.9,0,5.2,2.4,5.2,5.2v60.2c0,2.8,-2.3,5.2,-5.2,5.2H463.1c-2.8,0,-5.2,-2.4,-5.2,-5.2Z" class="g3_21"/>
<path d="M526.7,496.1h67.4V479.4H526.7v16.7Z" class="g4_21"/>
<path d="M483.9,454.8h153V415.4h-153v39.4Z" class="g4_21"/>
<path d="M380.3,502.2V473M116.9,502.6H761.8M380.3,532.2V502.9M248.5,551.1l31.2,18.7m0,36.7V570m-31.2,55.3l31.2,-18.6m-31.2,18.6L217.2,606.7m0,-.2V570m31.3,-18.9l-31.3,18.7m32.3,-11l23.1,13.7m-23.1,45.1l23.1,-13.7m-49.4,-2.2v-27m109.6,.9L301.6,557m31.2,18.6L364.1,557m-30.2,11L357,554.3M279.7,570l21.9,-13.2M181.6,618L163.3,607m53.9,-.5l-21.9,13.1m185,12.7V532.2" class="g0_21"/>
<path d="M558.5,555l18.2,10.9m6.6,40.6V579.1m-31.2,46.2l31.2,-18.6m-31.2,18.6L527.2,610.5m-6.4,-11.3V579.1M545.7,555l-18.3,10.9M558.5,561l18.2,11m-23.5,45.6l23,-13.7m-49.3,-4.7V579.1" class="g1_21"/>
<path d="M645.6,569.1L620.7,554.3m24.9,14.8l31.2,-18.7m-30.1,11l23,-13.7" class="g2_21"/>
<path d="M588.8,565.6l18.3,-11" class="g5_21"/>
<path d="M483.4,619.8L465.1,608.9m50.3,2l-18.3,10.9" class="g1_21"/>
<path d="M380.3,661.5V632.3m0,58.4V661.5" class="g0_21"/>
<path d="M446.2,689.2c1.4,0,2.1,-2.7,3.5,-2.7c1,0,1.8,1.3,2.7,2.7c.9,1.4,1.7,2.8,2.7,2.8c1,0,1.9,-1.4,2.8,-2.8c.9,-1.4,1.7,-2.7,2.7,-2.7c1.4,0,2.1,2.7,3.4,2.7h3.9" class="g6_21"/>
<path d="M540.9,689.2c1.4,0,2.1,-2.7,3.4,-2.7c1,0,1.9,1.3,2.8,2.7c.9,1.4,1.7,2.8,2.7,2.8c1,0,1.8,-1.4,2.7,-2.8c.9,-1.4,1.8,-2.7,2.8,-2.7c1.3,0,2,2.7,3.4,2.7h3.9m37.6,0c1.3,0,2,-2.7,3.4,-2.7c1,0,1.8,1.3,2.7,2.7c.9,1.4,1.8,2.8,2.8,2.8c1,0,1.8,-1.4,2.7,-2.8c.9,-1.4,1.8,-2.7,2.8,-2.7c1.3,0,2,2.7,3.4,2.7h3.9" class="g7_21"/>
<path d="M380.3,719.9V690.7m0,98.6V719.9" class="g0_21"/>
<path d="M457.9,781.5V727.7c0,-2.9,2.4,-5.2,5.2,-5.2H639.6c2.8,0,5.2,2.3,5.2,5.2v53.8c0,2.9,-2.4,5.2,-5.2,5.2H463.1c-2.8,0,-5.2,-2.3,-5.2,-5.2Z" class="g3_21"/>
<path d="M522.7,812.5H580V795.8H522.7v16.7Z" class="g4_21"/>
<path d="M483.9,771.1H618.8v-33H483.9v33Z" class="g4_21"/>
<path d="M380.3,818.6V789.3M116.9,818.9H761.8" class="g0_21"/>
</svg>