<?xml version="1.0" encoding="UTF-8" standalone="no"?>
<!DOCTYPE svg PUBLIC "-//W3C//DTD SVG 1.1//EN"
"http://www.w3.org/Graphics/SVG/1.1/DTD/svg11.dtd">
<svg viewBox="0 0 1286 909" version="1.1" xmlns="http://www.w3.org/2000/svg" xmlns:xlink="http://www.w3.org/1999/xlink">
<defs>
<style type="text/css"><![CDATA[
.g0_364{
fill: none;
stroke: #000000;
stroke-width: 0.73;
stroke-linecap: butt;
stroke-linejoin: miter;
}
.g1_364{
fill: none;
stroke: #02B5EE;
stroke-width: 1.262;
stroke-linecap: butt;
stroke-linejoin: miter;
}
.g2_364{
fill: none;
stroke: #5EE200;
stroke-width: 1.461;
stroke-linecap: butt;
stroke-linejoin: miter;
stroke-dasharray: 2,2;
}
.g3_364{
fill: #AEF080;
}
.g4_364{
fill: none;
stroke: #FFA313;
stroke-width: 1.262;
stroke-linecap: butt;
stroke-linejoin: miter;
}
.g5_364{
fill: none;
stroke: #FFA313;
stroke-width: 0.73;
stroke-linecap: butt;
stroke-linejoin: miter;
}
.g6_364{
fill: none;
stroke: #02B5EE;
stroke-width: 0.73;
stroke-linecap: butt;
stroke-linejoin: miter;
}
]]></style>
</defs>
<path d="M193,83.4h900.3M193,210.6H725.2m-532.2,0H725.2M455.7,240.2V211m0,58.5V240.2m0,114.3v-85" class="g0_364"/>
<path d="M480.8,330.5h34.7" class="g1_364"/>
<path d="M529.6,312.4h31.7" class="g2_364"/>
<path d="M575.4,318.8H714.2V285.9H575.4v32.9Z" class="g3_364"/>
<path d="M526,330.5H714.2" class="g4_364"/>
<path d="M455.7,383.7V354.5m0,102.3V383.7" class="g0_364"/>
<path d="M470.3,428.7H536" class="g2_364"/>
<path d="M539.7,433h44.7V400.1H539.7V433Z" class="g3_364"/>
<path d="M588.1,428.7h65.7" class="g2_364"/>
<path d="M466.6,442.9H657.4" class="g5_364"/>
<path d="M663.5,442.9h50.7" class="g6_364"/>
<path d="M455.7,486V456.8M193,486.3H725.2m-532.2,0H725.2" class="g0_364"/>
</svg>