<?xml version="1.0" encoding="UTF-8" standalone="no"?>
<!DOCTYPE svg PUBLIC "-//W3C//DTD SVG 1.1//EN"
"http://www.w3.org/Graphics/SVG/1.1/DTD/svg11.dtd">
<svg viewBox="0 0 1286 909" version="1.1" xmlns="http://www.w3.org/2000/svg" xmlns:xlink="http://www.w3.org/1999/xlink">
<defs>
<style type="text/css"><![CDATA[
.g0_725{
fill: none;
stroke: #000000;
stroke-width: 0.73;
stroke-linecap: butt;
stroke-linejoin: miter;
}
.g1_725{
fill: #B3E9FA;
}
.g2_725{
fill: none;
stroke: #02B5EE;
stroke-width: 1.262;
stroke-linecap: butt;
stroke-linejoin: miter;
}
.g3_725{
fill: none;
stroke: #5EE200;
stroke-width: 1.262;
stroke-linecap: butt;
stroke-linejoin: miter;
}
]]></style>
</defs>
<path d="M193,83.4h900.3M193,111.6H994.1m-801.1,0H994.1M579.3,141.2V112m0,58.5V141.2m0,58.5V170.5m0,114.2v-85" class="g0_725"/>
<path d="M744.8,234.9V222.7c0,-2.8,2.3,-5.2,5.2,-5.2H871.7c2.9,0,5.2,2.4,5.2,5.2v12.2c0,2.9,-2.3,5.2,-5.2,5.2H750c-2.9,0,-5.2,-2.3,-5.2,-5.2Z" class="g1_725"/>
<path d="M742.2,260.7H879.5" class="g2_725"/>
<path d="M890,260.7h93.1" class="g3_725"/>
<path d="M579.3,313.9V284.7m0,58.5V313.9m0,114.3v-85" class="g0_725"/>
<path d="M811.4,378.4V366.2c0,-2.9,2.3,-5.2,5.2,-5.2h50.5c2.9,0,5.2,2.3,5.2,5.2v12.2c0,2.9,-2.3,5.2,-5.2,5.2H816.6c-2.9,0,-5.2,-2.3,-5.2,-5.2Z" class="g1_725"/>
<path d="M808.8,404.2h66.1" class="g2_725"/>
<path d="M885.4,404.2h97.7" class="g3_725"/>
<path d="M579.3,457.4V428.2M193,457.8H994.1m-801.1,0H994.1" class="g0_725"/>
</svg>