<?xml version="1.0" encoding="UTF-8" standalone="no"?>
<!DOCTYPE svg PUBLIC "-//W3C//DTD SVG 1.1//EN"
"http://www.w3.org/Graphics/SVG/1.1/DTD/svg11.dtd">
<svg viewBox="0 0 1286 909" version="1.1" xmlns="http://www.w3.org/2000/svg" xmlns:xlink="http://www.w3.org/1999/xlink">
<defs>
<style type="text/css"><![CDATA[
.g0_213{
fill: none;
stroke: #000000;
stroke-width: 0.73;
stroke-linecap: butt;
stroke-linejoin: miter;
}
.g1_213{
fill: #B3E9FA;
}
.g2_213{
fill: none;
stroke: #02B5EE;
stroke-width: 1.262;
stroke-linecap: butt;
stroke-linejoin: miter;
}
.g3_213{
fill: none;
stroke: #5EE200;
stroke-width: 1.262;
stroke-linecap: butt;
stroke-linejoin: miter;
}
]]></style>
</defs>
<path d="M193,83.4h900.3M193,210.6H937.4m-744.4,0H937.4M537.3,240.2V211m0,58.5V240.2m0,114.3v-85" class="g0_213"/>
<path d="M550.8,311V292.5c0,-2.9,2.4,-5.2,5.2,-5.2H687c2.9,0,5.2,2.3,5.2,5.2V311c0,2.9,-2.3,5.2,-5.2,5.2H556c-2.8,0,-5.2,-2.3,-5.2,-5.2Z" class="g1_213"/>
<path d="M548.2,330.5H694.8" class="g2_213"/>
<path d="M705.3,330.5H926.4" class="g3_213"/>
<path d="M537.3,383.7V354.5m0,58.4V383.7m0,114.3V412.9" class="g0_213"/>
<path d="M691.5,448.2V436c0,-2.9,2.4,-5.2,5.2,-5.2h71.5c2.8,0,5.2,2.3,5.2,5.2v12.2c0,2.8,-2.4,5.2,-5.2,5.2H696.7c-2.8,0,-5.2,-2.4,-5.2,-5.2Z" class="g1_213"/>
<path d="M688.9,474H776" class="g2_213"/>
<path d="M786.5,474H926.4" class="g3_213"/>
<path d="M537.3,527.2V498m0,58.4V527.2m0,114.2v-85" class="g0_213"/>
<path d="M634,598V579.4c0,-2.8,2.4,-5.2,5.2,-5.2H799.4c2.9,0,5.2,2.4,5.2,5.2V598c0,2.8,-2.3,5.2,-5.2,5.2H639.2c-2.8,0,-5.2,-2.4,-5.2,-5.2Z" class="g1_213"/>
<path d="M631.4,617.4H807.2" class="g2_213"/>
<path d="M817.7,617.4H926.4" class="g3_213"/>
<path d="M537.3,670.6V641.4M193,671H937.4M193,671H937.4" class="g0_213"/>
</svg>