<?xml version="1.0" encoding="UTF-8" standalone="no"?>
<!DOCTYPE svg PUBLIC "-//W3C//DTD SVG 1.1//EN"
"http://www.w3.org/Graphics/SVG/1.1/DTD/svg11.dtd">
<svg viewBox="0 0 909 1286" version="1.1" xmlns="http://www.w3.org/2000/svg" xmlns:xlink="http://www.w3.org/1999/xlink">
<defs>
<style type="text/css"><![CDATA[
.g0_67{
fill: none;
stroke: #000000;
stroke-width: 0.73;
stroke-linecap: butt;
stroke-linejoin: miter;
}
.g1_67{
fill: #7F7F7F;
}
.g2_67{
fill: #FFFFFF;
}
.g3_67{
fill: #FFFFFF;
stroke: #000000;
stroke-width: 0.73;
stroke-linecap: butt;
stroke-linejoin: miter;
}
.g4_67{
fill: none;
stroke: #000000;
stroke-width: 3.47;
stroke-linecap: butt;
stroke-linejoin: miter;
}
.g5_67{
fill: none;
stroke: #CDCDB4;
stroke-width: 2.739;
stroke-linecap: butt;
stroke-linejoin: miter;
}
.g6_67{
fill: #E81A58;
}
.g7_67{
fill: #401A1A;
}
]]></style>
</defs>
<path d="M116.9,159.9H792.5" class="g0_67"/>
<path d="M116.9,375.2V179.5H766.5V375.2Z" class="g1_67"/>
<path d="M117.7,374.4V179.5H765.8V374.4Z" class="g2_67"/>
<path d="M142.6,190.6c0,-3,-2.4,-5.4,-5.4,-5.4c-3.1,0,-5.5,2.4,-5.5,5.4c0,3.1,2.4,5.5,5.5,5.5c3,0,5.4,-2.4,5.4,-5.5Z" class="g3_67"/>
<path d="M137.2,190.6c6.4,1.6,5.4,3.9,-2.3,5.2c-7.7,1.3,-19.2,1.1,-25.7,-.5c-4.2,-1,-5.4,-2.3,-3.2,-3.6c1.8,-1,5.8,-1.8,10.9,-2.1" class="g4_67"/>
<path d="M137.2,190.6c6.4,1.6,5.4,3.9,-2.3,5.2c-7.7,1.3,-19.2,1.1,-25.7,-.5c-4.2,-1,-5.4,-2.3,-3.2,-3.6c1.8,-1,5.8,-1.8,10.9,-2.1" class="g5_67"/>
<path d="M142.6,214.9c0,-3,-2.4,-5.5,-5.4,-5.5c-3.1,0,-5.5,2.5,-5.5,5.5c0,3,2.4,5.5,5.5,5.5c3,0,5.4,-2.5,5.4,-5.5Z" class="g3_67"/>
<path d="M137.2,214.9c6.4,1.6,5.4,3.9,-2.3,5.2c-7.7,1.3,-19.2,1.1,-25.7,-.5c-4.2,-1,-5.4,-2.4,-3.2,-3.6c1.8,-1,5.8,-1.8,10.9,-2.2" class="g4_67"/>
<path d="M137.2,214.9c6.4,1.6,5.4,3.9,-2.3,5.2c-7.7,1.3,-19.2,1.1,-25.7,-.5c-4.2,-1,-5.4,-2.4,-3.2,-3.6c1.8,-1,5.8,-1.8,10.9,-2.2" class="g5_67"/>
<path d="M142.6,239.2c0,-3,-2.4,-5.5,-5.4,-5.5c-3.1,0,-5.5,2.5,-5.5,5.5c0,3,2.4,5.5,5.5,5.5c3,0,5.4,-2.5,5.4,-5.5Z" class="g3_67"/>
<path d="M137.2,239.2c6.4,1.5,5.4,3.8,-2.3,5.1c-7.7,1.3,-19.2,1.1,-25.7,-.4c-4.2,-1,-5.4,-2.4,-3.2,-3.6c1.8,-1,5.8,-1.8,10.9,-2.2" class="g4_67"/>
<path d="M137.2,239.2c6.4,1.5,5.4,3.8,-2.3,5.1c-7.7,1.3,-19.2,1.1,-25.7,-.4c-4.2,-1,-5.4,-2.4,-3.2,-3.6c1.8,-1,5.8,-1.8,10.9,-2.2" class="g5_67"/>
<path d="M142.6,263.5c0,-3.1,-2.4,-5.5,-5.4,-5.5c-3.1,0,-5.5,2.4,-5.5,5.5c0,3,2.4,5.4,5.5,5.4c3,0,5.4,-2.4,5.4,-5.4Z" class="g3_67"/>
<path d="M137.2,263.5c6.4,1.5,5.4,3.8,-2.3,5.1c-7.7,1.3,-19.2,1.1,-25.7,-.4c-4.2,-1,-5.4,-2.4,-3.2,-3.6c1.8,-1,5.8,-1.8,10.9,-2.2" class="g4_67"/>
<path d="M137.2,263.5c6.4,1.5,5.4,3.8,-2.3,5.1c-7.7,1.3,-19.2,1.1,-25.7,-.4c-4.2,-1,-5.4,-2.4,-3.2,-3.6c1.8,-1,5.8,-1.8,10.9,-2.2" class="g5_67"/>
<path d="M142.6,287.7c0,-3,-2.4,-5.4,-5.4,-5.4c-3.1,0,-5.5,2.4,-5.5,5.4c0,3.1,2.4,5.5,5.5,5.5c3,0,5.4,-2.4,5.4,-5.5Z" class="g3_67"/>
<path d="M137.2,287.7c6.4,1.6,5.4,3.9,-2.3,5.2c-7.7,1.3,-19.2,1.1,-25.7,-.5c-4.2,-1,-5.4,-2.3,-3.2,-3.6c1.8,-1,5.8,-1.8,10.9,-2.1" class="g4_67"/>
<path d="M137.2,287.7c6.4,1.6,5.4,3.9,-2.3,5.2c-7.7,1.3,-19.2,1.1,-25.7,-.5c-4.2,-1,-5.4,-2.3,-3.2,-3.6c1.8,-1,5.8,-1.8,10.9,-2.1" class="g5_67"/>
<path d="M142.6,312c0,-3,-2.4,-5.5,-5.4,-5.5c-3.1,0,-5.5,2.5,-5.5,5.5c0,3,2.4,5.5,5.5,5.5c3,0,5.4,-2.5,5.4,-5.5Z" class="g3_67"/>
<path d="M137.2,312c6.4,1.6,5.4,3.9,-2.3,5.2c-7.7,1.3,-19.2,1.1,-25.7,-.5c-4.2,-1,-5.4,-2.4,-3.2,-3.6c1.8,-1,5.8,-1.8,10.9,-2.2" class="g4_67"/>
<path d="M137.2,312c6.4,1.6,5.4,3.9,-2.3,5.2c-7.7,1.3,-19.2,1.1,-25.7,-.5c-4.2,-1,-5.4,-2.4,-3.2,-3.6c1.8,-1,5.8,-1.8,10.9,-2.2" class="g5_67"/>
<path d="M142.6,336.3c0,-3,-2.4,-5.5,-5.4,-5.5c-3.1,0,-5.5,2.5,-5.5,5.5c0,3,2.4,5.5,5.5,5.5c3,0,5.4,-2.5,5.4,-5.5Z" class="g3_67"/>
<path d="M137.2,336.3c6.4,1.5,5.4,3.8,-2.3,5.1c-7.7,1.3,-19.2,1.1,-25.7,-.4c-4.2,-1,-5.4,-2.4,-3.2,-3.6c1.8,-1,5.8,-1.8,10.9,-2.2" class="g4_67"/>
<path d="M137.2,336.3c6.4,1.5,5.4,3.8,-2.3,5.1c-7.7,1.3,-19.2,1.1,-25.7,-.4c-4.2,-1,-5.4,-2.4,-3.2,-3.6c1.8,-1,5.8,-1.8,10.9,-2.2" class="g5_67"/>
<path d="M142.6,360.6c0,-3.1,-2.4,-5.5,-5.4,-5.5c-3.1,0,-5.5,2.4,-5.5,5.5c0,3,2.4,5.4,5.5,5.4c3,0,5.4,-2.4,5.4,-5.4Z" class="g3_67"/>
<path d="M137.2,360.6c6.4,1.5,5.4,3.8,-2.3,5.1c-7.7,1.3,-19.2,1.1,-25.7,-.4c-4.2,-1,-5.4,-2.4,-3.2,-3.6c1.8,-1.1,5.8,-1.9,10.9,-2.2" class="g4_67"/>
<path d="M137.2,360.6c6.4,1.5,5.4,3.8,-2.3,5.1c-7.7,1.3,-19.2,1.1,-25.7,-.4c-4.2,-1,-5.4,-2.4,-3.2,-3.6c1.8,-1.1,5.8,-1.9,10.9,-2.2" class="g5_67"/>
<path d="M116.9,1117V472.7c0,-21.6,17.6,-39.1,39.2,-39.1H792.5V1117Z" class="g6_67"/>
<path d="M119.5,1117V469.5H789.9V1117Z" class="g7_67"/>
</svg>