<?xml version="1.0" encoding="UTF-8" standalone="no"?>
<!DOCTYPE svg PUBLIC "-//W3C//DTD SVG 1.1//EN"
"http://www.w3.org/Graphics/SVG/1.1/DTD/svg11.dtd">
<svg viewBox="0 0 1286 909" version="1.1" xmlns="http://www.w3.org/2000/svg" xmlns:xlink="http://www.w3.org/1999/xlink">
<defs>
<style type="text/css"><![CDATA[
.g0_329{
fill: none;
stroke: #000000;
stroke-width: 0.73;
stroke-linecap: butt;
stroke-linejoin: miter;
}
.g1_329{
fill: none;
stroke: #02B5EE;
stroke-width: 1.262;
stroke-linecap: butt;
stroke-linejoin: miter;
}
.g2_329{
fill: none;
stroke: #5EE200;
stroke-width: 1.262;
stroke-linecap: butt;
stroke-linejoin: miter;
}
.g3_329{
fill: none;
stroke: #FFA313;
stroke-width: 1.262;
stroke-linecap: butt;
stroke-linejoin: miter;
}
.g4_329{
fill: none;
stroke: #5EE200;
stroke-width: 0.73;
stroke-linecap: butt;
stroke-linejoin: miter;
}
.g5_329{
fill: none;
stroke: #FFA313;
stroke-width: 0.73;
stroke-linecap: butt;
stroke-linejoin: miter;
}
.g6_329{
fill: none;
stroke: #02B5EE;
stroke-width: 0.73;
stroke-linecap: butt;
stroke-linejoin: miter;
}
]]></style>
</defs>
<path d="M193,83.4h900.3M193,210.6h942.3m-942.3,0h942.3M663.1,240.2V211m0,58.5V240.2m0,114.3v-85" class="g0_329"/>
<path d="M818.5,330.5h81.1" class="g1_329"/>
<path d="M910.1,330.5h99" class="g2_329"/>
<path d="M1019.6,330.5h104.8" class="g3_329"/>
<path d="M663.1,383.7V354.5m0,102.3V383.7" class="g0_329"/>
<path d="M674,442.9h84.5" class="g4_329"/>
<path d="M764.6,442.9h269.2" class="g5_329"/>
<path d="M1039.9,442.9h84.5" class="g6_329"/>
<path d="M663.1,486V456.8m0,58.4V486m0,114.2v-85" class="g0_329"/>
<path d="M911.9,576.2h73.8" class="g1_329"/>
<path d="M663.1,629.5V600.2m0,102.3v-73" class="g0_329"/>
<path d="M1056.8,688.6h67.6" class="g6_329"/>
<path d="M663.1,731.7V702.5m0,58.5V731.7M193,761.3h942.3m-942.3,0h942.3" class="g0_329"/>
</svg>