<?xml version="1.0" encoding="UTF-8" standalone="no"?>
<!DOCTYPE svg PUBLIC "-//W3C//DTD SVG 1.1//EN"
"http://www.w3.org/Graphics/SVG/1.1/DTD/svg11.dtd">
<svg viewBox="0 0 909 1286" version="1.1" xmlns="http://www.w3.org/2000/svg" xmlns:xlink="http://www.w3.org/1999/xlink">
<defs>
<clipPath id="c0_7"><path d="M123.1,715.9V684.2h29.1v31.7Z"/></clipPath>
<clipPath id="c1_7"><path d="M122.1,716.4V683.7H153v32.7Z"/></clipPath>
<style type="text/css"><![CDATA[
.g0_7{
fill: none;
stroke: #000000;
stroke-width: 0.73;
stroke-linecap: butt;
stroke-linejoin: miter;
}
.g1_7{
fill: none;
stroke: #8007AC;
stroke-width: 0.66;
stroke-linecap: butt;
stroke-linejoin: round;
stroke-miterlimit: 1;
}
.g2_7{
fill: none;
stroke: #000000;
stroke-width: 0.657;
stroke-linecap: butt;
stroke-linejoin: miter;
}
.g3_7{
fill: #FFFFFF;
}
.g4_7{
fill: none;
stroke: #000000;
stroke-width: 1.461;
stroke-linecap: butt;
stroke-linejoin: miter;
}
.g5_7{
}
.g6_7{
fill: none;
stroke: #000000;
stroke-width: 0.459;
stroke-linecap: butt;
stroke-linejoin: round;
}
.g7_7{
fill: none;
stroke: #000000;
stroke-width: 0.722;
stroke-linecap: round;
stroke-linejoin: miter;
}
.g8_7{
fill: none;
stroke: #000000;
stroke-width: 0.722;
stroke-linecap: round;
stroke-linejoin: round;
}
.g9_7{
fill: #D40000;
}
.ga_7{
fill: none;
stroke: #000000;
stroke-width: 0.578;
stroke-linecap: round;
stroke-linejoin: miter;
}
.gb_7{
fill: #E9C6AF;
}
.gc_7{
fill: none;
stroke: #695000;
stroke-width: 0.152;
stroke-linecap: round;
stroke-linejoin: round;
}
.gd_7{
fill: none;
stroke: #000000;
stroke-width: 2.739;
stroke-linecap: butt;
stroke-linejoin: miter;
}
]]></style>
</defs>
<path d="M489.1,280.6h18.5m-39.4,20.8h57.6m-36.7,25.5h18.5m-39.4,20.8h57.6" class="g0_7"/>
<path d="M492.6,368.6l18.3,-18.3m37,4.7l18.2,-18.2" class="g1_7"/>
<path d="M489.1,375.1h18.5m-39.4,20.8h57.6m-36.7,25.5h18.5m-39.4,20.8h57.6M383.6,488.5h30m75.5,-20.8h18.5m-39.4,20.8h57.6" class="g0_7"/>
<path d="M331.6,535.6l18.8,-18.7" class="g1_7"/>
<path d="M326.1,536.6H356m52.6,0h30.9" class="g0_7"/>
<path d="M419.4,558l18.7,-18.7" class="g1_7"/>
<path d="M489.1,515.8h18.5" class="g0_7"/>
<path d="M505.7,535.6l18.8,-18.7" class="g1_7"/>
<path d="M468.2,536.6h57.6" class="g0_7"/>
<path d="M492.4,557.5l9.1,-18.3m61.9,-3.8l9.1,-18.3" class="g1_7"/>
<path d="M552.5,536.6h30.8" class="g0_7"/>
<path d="M563.3,558L582,539.3" class="g1_7"/>
<path d="M387.5,580h15.6m20.1,-12.3h18.4M468.2,580h15.6m17.6,0h30M387.5,623h15.6m20.1,-12.2h18.4M468.2,623h15.6M601.1,302.9c11.5,11.4,11.7,30,.6,41.7m7.2,-.7c-2.5,.5,-5,.9,-7.4,1c-.1,-2.3,-.5,-4.6,-1,-6.8m.6,59.2c11.5,11.5,11.7,30,.6,41.8m7.2,-.8c-2.5,.5,-5,.9,-7.4,1c-.1,-2.3,-.5,-4.6,-1,-6.7m.6,11c11.5,11.5,11.7,30,.6,41.8m7.2,-.8c-2.5,.5,-5,.9,-7.4,1c-.1,-2.3,-.5,-4.6,-1,-6.7" class="g0_7"/>
<path d="M691.9,473.1h88.4" class="g2_7"/>
<path d="M601.1,489.9c12,12,12.2,31.4,.6,43.6m7.1,-.7c-2.4,.5,-4.9,.9,-7.3,1c-.1,-2.3,-.5,-4.6,-.9,-6.8" class="g0_7"/>
<path d="M631.7,511.9h27.8" class="g2_7"/>
<path d="M601.1,581.4c10.6,10.6,10.8,27.7,.6,38.6m7.2,-.9c-2.5,.6,-5,1,-7.4,1.1c-.2,-2.3,-.5,-4.6,-1.1,-6.7" class="g0_7"/>
<path d="M658.1,600h26.6" class="g2_7"/>
<path d="M117.7,903.4v-226H791.8v226Z" class="g3_7"/>
<path d="M117.7,903.4v-226H791.8v226Z" class="g4_7"/>
<path d="M405.2,829.6h15.6m20.1,-12.2h18.5m26.5,12.2h15.6" class="g0_7"/>
<g clip-path="url(#c1_7)">
<path clip-path="url(#c0_7)" d="M126.4,709.5c0,0,1.5,-.9,1.2,-1.2c-.1,-.1,-.3,-.1,-.6,-.1c-1.6,.3,-5,2.1,-3.3,4.2c1.4,1.5,6.4,2.3,11.7,1.3c7.3,-1.4,13.5,-5.4,11.1,-8.3c-1.6,-1.9,-6.7,-2.1,-10.8,-2.2c-2.1,0,-6.6,0,-8,-1.7c-.6,-.7,-.5,-1.6,.1,-2.2c1,-.8,3.8,-1.4,4,-1.4c.7,-.1,2.5,-.4,4.6,-.4c1.1,0,2.5,0,3.2,1c.2,.2,.4,.5,.4,.6c0,.1,0,.2,.1,.2c.1,.2,.4,.1,.5,.1c.5,-.1,1.5,-.5,2,-1c.3,-.3,.8,-.7,0,-1.6c-.9,-1,-2.3,-1.1,-4,-1.1c-2.3,0,-4.1,.3,-4.9,.4c-5.8,1.2,-11.1,4.6,-9,7.1c1.5,1.8,6.3,1.8,9,1.9c3.9,0,8.4,.3,9.8,2c.6,.6,.9,1.8,-.4,2.8c-1.2,1,-4,1.7,-5.8,2.1c-4.4,.8,-9.4,.1,-10.6,-1.3c0,0,-.5,-.6,-.3,-1.2Z" class="g5_7"/>
<path d="M131.5,711.9l-.2,-.2l.3,-4.5q.3,-5.6,.5,-6c.1,-.2,1.6,-2.2,3.3,-4.6c1.7,-2.4,4.3,-6.1,5.9,-8.2c1.5,-2.2,2.8,-4,2.9,-4c.4,0,.1,.4,-1.8,3.2c-1.2,1.6,-3.7,5.2,-5.7,8.1c-2,2.8,-3.6,5.2,-3.6,5.2c0,0,.5,.1,1,.1c2,.2,3.3,.6,4.5,1.2c.6,.3,1,.6,1.5,1.1c.8,.8,1.2,1.4,1.4,2.3c.1,.2,.1,.4,.2,.4c.1,0,.7,-.8,5.2,-7.6c2.4,-3.6,4.5,-6.7,4.6,-6.8c.2,-.2,.4,0,.2,.2c0,.2,-1.5,2.4,-3.2,5.1c-1.8,2.6,-3.8,5.7,-4.5,6.7c-1.5,2.4,-2.1,3.3,-2.3,3.8c-.2,.3,-.3,.4,-.9,.7c-.8,.4,-8.7,3.9,-8.9,4c-.1,0,-.3,0,-.4,-.2Z" class="g5_7"/>
<path d="M135.2,710c2.2,-1,4,-1.8,4.6,-2.1c.7,-.3,.7,-.4,.7,-1.4c-.2,-1.7,-1.4,-3,-3.6,-3.7c-1.2,-.4,-4.3,-.9,-4.4,-.7c0,.1,-.1,1.5,-.2,3.2c-.1,1.7,-.2,3.3,-.2,3.6c-.1,1.1,.1,1.4,-.2,2.5c.1,.1,1.8,-.8,1.8,-.8c.1,0,.7,-.3,1.5,-.6Z" class="g5_7"/>
<path d="M131.5,711.9l-.2,-.2l.3,-4.5q.3,-5.6,.5,-6c.1,-.2,1.6,-2.2,3.3,-4.6c1.7,-2.4,4.3,-6.1,5.9,-8.2c1.5,-2.2,2.8,-4,2.9,-4c.4,0,.1,.4,-1.8,3.2c-1.2,1.6,-3.7,5.2,-5.7,8.1c-2,2.8,-3.6,5.2,-3.6,5.2c0,0,.5,.1,1,.1c2,.2,3.3,.6,4.5,1.2c.6,.3,1,.6,1.5,1.1c.8,.8,1.2,1.4,1.4,2.3c.1,.2,.1,.4,.2,.4c.1,0,.7,-.8,5.2,-7.6c2.4,-3.6,4.5,-6.7,4.6,-6.8c.2,-.2,.4,0,.2,.2c0,.2,-1.5,2.4,-3.2,5.1c-1.8,2.6,-3.8,5.7,-4.5,6.7c-1.5,2.4,-2.1,3.3,-2.3,3.8c-.2,.3,-.3,.4,-.9,.7c-.8,.4,-8.7,3.9,-8.9,4c-.1,0,-.3,0,-.4,-.2Zm3.7,-1.9c2.2,-1,4,-1.8,4.6,-2.1c.7,-.3,.7,-.4,.7,-1.4c-.2,-1.7,-1.4,-3,-3.6,-3.7c-1.2,-.4,-4.3,-.9,-4.4,-.7c0,.1,-.1,1.5,-.2,3.2c-.1,1.7,-.2,3.3,-.2,3.6c-.1,1.1,.1,1.4,-.2,2.5c.1,.1,1.8,-.8,1.8,-.8c.1,0,.7,-.3,1.5,-.6Z" class="g6_7"/>
<path d="M135.3,701.4l11.2,-16.1m-8.2,17.2L149,686.8" class="g7_7"/>
<path d="M140.4,704.2l10,-14.4l.2,-.4" class="g8_7"/>
<path d="M134.1,701c-.4,-.1,-.8,-.2,-.9,-.2c0,0,2.5,-3.7,6.7,-9.6c1.9,-2.7,3.6,-5.2,3.8,-5.5c.2,-.3,.4,-.6,.5,-.6c.1,0,.7,.5,.9,.7c.1,.3,.1,.5,-.1,1.1c-.2,.5,-9.8,14.2,-9.9,14.2c-.1,0,-.5,0,-1,-.1Z" class="g9_7"/>
<path d="M137.6,701.8c-.2,-.2,-.8,-.3,-1.2,-.4l-.7,-.2l.3,-.3c.1,-.2,2.3,-3.4,4.8,-7.1l4.7,-6.6l.5,-.3c.9,-.5,1.6,-.5,2.1,0l.3,.3l-5,7.4c-3.1,4.5,-5.1,7.4,-5.1,7.4c-.1,0,-.4,-.1,-.7,-.2Z" class="g9_7"/>
<path d="M140,703.2c-.2,-.3,-.6,-.6,-.8,-.7c-.2,-.1,-.3,-.2,-.3,-.3c0,-.1,9.4,-14,9.8,-14.5c.1,-.1,.5,.3,.8,.7c.3,.4,.3,.5,.4,1c0,.3,0,.6,-.1,.7c-.2,.3,-9.1,13.2,-9.2,13.4q-.2,.1,-.6,-.3Z" class="g9_7"/>
<path d="M141.6,705.8c0,0,-.1,-.3,-.1,-.5c-.1,-.3,-.3,-.6,-.4,-.9l-.3,-.4l4.7,-6.7c2.6,-3.8,4.8,-6.8,4.8,-6.8c.4,0,1,.7,1,1.1c0,.1,-.6,1.2,-1.9,3.1c-1.1,1.5,-3.1,4.6,-4.6,6.8c-3,4.4,-3.1,4.5,-3.2,4.3Z" class="g9_7"/>
<path d="M131.9,707.3c2.3,-.1,3.6,.7,4.1,2.3" class="ga_7"/>
<path d="M132,711.2c0,-.3,.1,-.4,.1,-1.3c0,-.8,0,-.9,0,-1.3c0,-.3,0,-.6,0,-.7l.1,-.3c.1,0,.6,0,.7,0c.4,.1,.8,.2,1.1,.3c.2,0,.4,.2,.6,.3c.2,.1,.3,.2,.4,.4c.3,.2,.4,.4,.6,.7c0,.1,.1,.4,.1,.4c0,.1,-1.5,.7,-1.8,.8c-.1,.1,-.2,.1,-.3,.1c-1.1,.6,-1.4,.8,-1.6,.8Z" class="g5_7"/>
<path d="M136.2,709.1c-.6,-1.2,-1.8,-1.9,-3.4,-2.1h-.6v-.5c.1,-.3,.1,-1.3,.2,-2.2c0,-.9,.1,-1.8,.1,-1.9l.1,-.3l.7,.1c.8,0,2.3,.3,3.1,.5c1.7,.4,3.1,1.4,3.6,2.4c.4,.8,.6,2.1,.3,2.5c-.1,.1,-.8,.4,-2.5,1.2c-1.6,.7,-1.5,.7,-1.6,.3Z" class="gb_7"/>
<path d="M136.2,709.1c-.6,-1.2,-1.8,-1.9,-3.4,-2.1h-.6v-.5c.1,-.3,.1,-1.3,.2,-2.2c0,-.9,.1,-1.8,.1,-1.9l.1,-.3l.7,.1c.8,0,2.3,.3,3.1,.5c1.7,.4,3.1,1.4,3.6,2.4c.4,.8,.6,2.1,.3,2.5c-.1,.1,-.8,.4,-2.5,1.2c-1.6,.7,-1.5,.7,-1.6,.3Z" class="gc_7"/>
</g>
<path d="M152.7,709.3H546.6" class="g0_7"/>
<path d="M137.6,716.8V894" class="gd_7"/>
<path d="M417,1065.7h15.7m20,-12.2h18.5" class="g0_7"/>
</svg>