<?xml version="1.0" encoding="UTF-8" standalone="no"?>
<!DOCTYPE svg PUBLIC "-//W3C//DTD SVG 1.1//EN"
"http://www.w3.org/Graphics/SVG/1.1/DTD/svg11.dtd">
<svg viewBox="0 0 1286 909" version="1.1" xmlns="http://www.w3.org/2000/svg" xmlns:xlink="http://www.w3.org/1999/xlink">
<defs>
<style type="text/css"><![CDATA[
.g0_379{
fill: none;
stroke: #000000;
stroke-width: 0.73;
stroke-linecap: butt;
stroke-linejoin: miter;
}
.g1_379{
fill: none;
stroke: #02B5EE;
stroke-width: 0.73;
stroke-linecap: butt;
stroke-linejoin: miter;
}
.g2_379{
fill: #B3E9FA;
}
.g3_379{
fill: none;
stroke: #02B5EE;
stroke-width: 1.262;
stroke-linecap: butt;
stroke-linejoin: miter;
}
]]></style>
</defs>
<path d="M193,83.4h900.3M193,111.6h878.7m-878.7,0h878.7M506.8,141.2V112m0,102.3V141.2" class="g0_379"/>
<path d="M976.3,200.4h84.4" class="g1_379"/>
<path d="M506.8,243.5V214.3m0,58.4V243.5m0,114.3V272.7" class="g0_379"/>
<path d="M702.9,308V295.8c0,-2.9,2.3,-5.2,5.2,-5.2h50.5c2.8,0,5.2,2.3,5.2,5.2V308c0,2.9,-2.4,5.2,-5.2,5.2H708.1c-2.9,0,-5.2,-2.3,-5.2,-5.2Z" class="g2_379"/>
<path d="M700.3,333.8h66.1" class="g3_379"/>
<path d="M506.8,387V357.8m0,102.3V387" class="g0_379"/>
<path d="M976.3,446.2h84.4" class="g1_379"/>
<path d="M506.8,489.3V460.1M193,489.6h878.7m-878.7,0h878.7" class="g0_379"/>
</svg>