<?xml version="1.0" encoding="UTF-8" standalone="no"?>
<!DOCTYPE svg PUBLIC "-//W3C//DTD SVG 1.1//EN"
"http://www.w3.org/Graphics/SVG/1.1/DTD/svg11.dtd">
<svg viewBox="0 0 1286 909" version="1.1" xmlns="http://www.w3.org/2000/svg" xmlns:xlink="http://www.w3.org/1999/xlink">
<defs>
<style type="text/css"><![CDATA[
.g0_1242{
fill: none;
stroke: #000000;
stroke-width: 0.73;
stroke-linecap: butt;
stroke-linejoin: miter;
}
.g1_1242{
fill: none;
stroke: #000000;
stroke-width: 0.584;
stroke-linecap: butt;
stroke-linejoin: miter;
}
.g2_1242{
fill: #FDE8E9;
}
]]></style>
</defs>
<path d="M193,83.4h900.3" class="g0_1242"/>
<path d="M206.6,112.4H462M206.6,136.1V112.7m114.8,23.4V112.7M462,136.1V112.7M206.6,162.2V136.1m114.8,26.1V136.1" class="g1_1242"/>
<path d="M330.2,159.6h60.4V136.1H330.2v23.5Z" class="g2_1242"/>
<path d="M462,162.2V136.1M206.6,185.6V162.2m114.8,23.4V162.2M462,185.6V162.2M206.6,209V185.6M321.4,209V185.6M462,209V185.6M206.6,234.7V209m114.8,25.7V209" class="g1_1242"/>
<path d="M330.2,234.7H436.6V211.8H330.2v22.9Z" class="g2_1242"/>
<path d="M462,234.7V209M206.6,258.1V234.7m114.8,23.4V234.7M462,258.1V234.7M206.6,281.4V258.1m114.8,23.3V258.1M462,281.4V258.1M206.6,305.6V281.4m114.8,24.2V281.4" class="g1_1242"/>
<path d="M330.2,302.9h55.9V284.3H330.2v18.6Z" class="g2_1242"/>
<path d="M462,305.6V281.4M206.6,329V305.6M321.4,329V305.6M462,329V305.6M206.6,352.3V329m114.8,23.3V329M462,352.3V329M206.6,378.4V352.3m114.8,26.1V352.3" class="g1_1242"/>
<path d="M330.2,375.8h82.7V352.3H330.2v23.5Z" class="g2_1242"/>
<path d="M462,378.4V352.3M206.6,401.8V378.4m114.8,23.4V378.4M462,401.8V378.4M206.6,425.2V401.8m114.8,23.4V401.8M462,425.2V401.8M206.6,452.9V425.2m114.8,27.7V425.2" class="g1_1242"/>
<path d="M330.2,452.9h123V425.2h-123v27.7Z" class="g2_1242"/>
<path d="M462,452.9V425.2M206.6,476.3V452.9m114.8,23.4V452.9M462,476.3V452.9M206.6,499.7V476.3m114.8,23.4V476.3M462,499.7V476.3M206.6,527.4V499.7m114.8,27.7V499.7" class="g1_1242"/>
<path d="M330.2,527.4H445V499.7H330.2v27.7Z" class="g2_1242"/>
<path d="M462,527.4V499.7m-255.4,51V527.4m114.8,23.3V527.4M462,550.7V527.4M206.6,574.1V550.7m114.8,23.4V550.7M462,574.1V550.7M206.6,598.2V574.1m114.8,24.1V574.1" class="g1_1242"/>
<path d="M330.2,595.6h84.3V577H330.2v18.6Z" class="g2_1242"/>
<path d="M462,598.2V574.1M206.6,621.6V598.2m114.8,23.4V598.2M462,621.6V598.2M206.6,645V621.6M321.4,645V621.6M462,645V621.6M206.6,672.7V645m114.8,27.7V645" class="g1_1242"/>
<path d="M330.2,672.7H431.9V645H330.2v27.7Z" class="g2_1242"/>
<path d="M462,672.7V645M206.6,696.1V672.7m114.8,23.4V672.7M462,696.1V672.7M206.6,719.5V696.1m114.8,23.4V696.1M462,719.5V696.1m-255.4,51V719.5m114.8,27.6V719.5" class="g1_1242"/>
<path d="M330.2,747.1H439.3V719.5H330.2v27.6Z" class="g2_1242"/>
<path d="M462,747.1V719.5m-255.4,51V747.1m114.8,23.4V747.1M462,770.5V747.1M206.6,770.8H462M479.5,109.5h249m-249,23.6V109.7m114.8,23.4V109.7m134.2,23.4V109.7m-249,51.1V133.1m114.8,27.7V133.1" class="g1_1242"/>
<path d="M603.1,160.8h61.7V133.1H603.1v27.7Z" class="g2_1242"/>
<path d="M728.5,160.8V133.1m-249,51.1V160.8m114.8,23.4V160.8m134.2,23.4V160.8m-249,46.8V184.2m114.8,23.4V184.2m134.2,23.4V184.2m-249,51.1V207.6m114.8,27.7V207.6" class="g1_1242"/>
<path d="M603.1,235.3H719.7V207.6H603.1v27.7Z" class="g2_1242"/>
<path d="M728.5,235.3V207.6m-249,51V235.3m114.8,23.3V235.3m134.2,23.3V235.3M479.5,282V258.6M594.3,282V258.6M728.5,282V258.6m-249,51.1V282m114.8,27.7V282" class="g1_1242"/>
<path d="M603.1,309.7h90.7V282H603.1v27.7Z" class="g2_1242"/>
<path d="M728.5,309.7V282m-249,51.1V309.7m114.8,23.4V309.7m134.2,23.4V309.7m-249,46.8V333.1m114.8,23.4V333.1m134.2,23.4V333.1m-249,49.5V356.5m114.8,26.1V356.5" class="g1_1242"/>
<path d="M603.1,380h49.6V356.5H603.1V380Z" class="g2_1242"/>
<path d="M728.5,382.6V356.5M479.5,406V382.6M594.3,406V382.6M728.5,406V382.6m-249,46.8V406m114.8,23.4V406m134.2,23.4V406m-249,49.5V429.4m114.8,26.1V429.4" class="g1_1242"/>
<path d="M603.1,452.8H703.2V429.4H603.1v23.4Z" class="g2_1242"/>
<path d="M728.5,455.5V429.4m-249,49.4V455.5m114.8,23.3V455.5m134.2,23.3V455.5m-249,46.7V478.8m114.8,23.4V478.8m134.2,23.4V478.8m-249,51.1V502.2m114.8,27.7V502.2" class="g1_1242"/>
<path d="M603.1,529.9H686V502.2H603.1v27.7Z" class="g2_1242"/>
<path d="M728.5,529.9V502.2m-249,51.1V529.9m114.8,23.4V529.9m134.2,23.4V529.9m-249,46.8V553.3m114.8,23.4V553.3m134.2,23.4V553.3m-249,51.1V576.7m114.8,27.7V576.7" class="g1_1242"/>
<path d="M603.1,604.4H706.4V576.7H603.1v27.7Z" class="g2_1242"/>
<path d="M728.5,604.4V576.7m-249,51.1V604.4m114.8,23.4V604.4m134.2,23.4V604.4m-249,46.7V627.8m114.8,23.3V627.8m134.2,23.3V627.8m-249,49.4V651.1m114.8,26.1V651.1" class="g1_1242"/>
<path d="M603.1,674.6h75V651.1h-75v23.5Z" class="g2_1242"/>
<path d="M728.5,677.2V651.1m-249,49.5V677.2m114.8,23.4V677.2m134.2,23.4V677.2M479.5,724V700.6M594.3,724V700.6M728.5,724V700.6m-249,49.5V724m114.8,26.1V724" class="g1_1242"/>
<path d="M603.1,747.5h63.2V724H603.1v23.5Z" class="g2_1242"/>
<path d="M728.5,750.1V724m-249,49.5V750.1m114.8,23.4V750.1m134.2,23.4V750.1m-249,23.7h249M746,111.8h326.7M746,135.5V112.1m202.4,23.4V112.1m124.3,23.4V112.1M746,161.6V135.5m202.4,26.1V135.5" class="g1_1242"/>
<path d="M957.2,159h59.6V135.5H957.2V159Z" class="g2_1242"/>
<path d="M1072.7,161.6V135.5M746,185V161.6M948.4,185V161.6M1072.7,185V161.6M746,208.4V185m202.4,23.4V185m124.3,23.4V185M746,236.1V208.4m202.4,27.7V208.4" class="g1_1242"/>
<path d="M957.2,236.1h106.7V208.4H957.2v27.7Z" class="g2_1242"/>
<path d="M1072.7,236.1V208.4M746,259.4V236.1m202.4,23.3V236.1m124.3,23.3V236.1M746,282.8V259.4m202.4,23.4V259.4m124.3,23.4V259.4M746,308.9V282.8m202.4,26.1V282.8" class="g1_1242"/>
<path d="M957.2,306.3h78.3V282.8H957.2v23.5Z" class="g2_1242"/>
<path d="M1072.7,308.9V282.8M746,332.3V308.9m202.4,23.4V308.9m124.3,23.4V308.9M746,355.7V332.3m202.4,23.4V332.3m124.3,23.4V332.3M746,381.8V355.7m202.4,26.1V355.7" class="g1_1242"/>
<path d="M957.2,379.2h55.5V355.7H957.2v23.5Z" class="g2_1242"/>
<path d="M1072.7,381.8V355.7M746,405.2V381.8m202.4,23.4V381.8m124.3,23.4V381.8M746,428.6V405.2m202.4,23.4V405.2m124.3,23.4V405.2M746,456.3V428.6m202.4,27.7V428.6" class="g1_1242"/>
<path d="M957.2,456.3h85V428.6h-85v27.7Z" class="g2_1242"/>
<path d="M1072.7,456.3V428.6M746,479.6V456.3m202.4,23.3V456.3m124.3,23.3V456.3M746,503V479.6M948.4,503V479.6M1072.7,503V479.6M746,529.1V503m202.4,26.1V503" class="g1_1242"/>
<path d="M957.2,526.5h93.2V503H957.2v23.5Z" class="g2_1242"/>
<path d="M1072.7,529.1V503M746,552.5V529.1m202.4,23.4V529.1m124.3,23.4V529.1M746,575.9V552.5m202.4,23.4V552.5m124.3,23.4V552.5M746,602V575.9M948.4,602V575.9" class="g1_1242"/>
<path d="M957.2,599.4h84.3V575.9H957.2v23.5Z" class="g2_1242"/>
<path d="M1072.7,602V575.9M746,625.4V602m202.4,23.4V602m124.3,23.4V602M746,648.8V625.4m202.4,23.4V625.4m124.3,23.4V625.4M746,674.9V648.8m202.4,26.1V648.8" class="g1_1242"/>
<path d="M957.2,672.2h54.4V648.8H957.2v23.4Z" class="g2_1242"/>
<path d="M1072.7,674.9V648.8M746,698.3V674.9m202.4,23.4V674.9m124.3,23.4V674.9M746,721.6V698.3m202.4,23.3V698.3m124.3,23.3V698.3M746,747.8V721.6m202.4,26.2V721.6" class="g1_1242"/>
<path d="M957.2,745.1h72.3V721.6H957.2v23.5Z" class="g2_1242"/>
<path d="M1072.7,747.8V721.6M746,771.1V747.8m202.4,23.3V747.8m124.3,23.3V747.8M746,771.4h326.7" class="g1_1242"/>
</svg>