<?xml version="1.0" encoding="UTF-8" standalone="no"?>
<!DOCTYPE svg PUBLIC "-//W3C//DTD SVG 1.1//EN"
"http://www.w3.org/Graphics/SVG/1.1/DTD/svg11.dtd">
<svg viewBox="0 0 909 1286" version="1.1" xmlns="http://www.w3.org/2000/svg" xmlns:xlink="http://www.w3.org/1999/xlink">
<defs>
<clipPath id="c0_145"><path d="M119.5,579.3V545.8H446.9v33.5Z"/></clipPath>
<clipPath id="c1_145"><path d="M462.5,579.3V545.8H789.9v33.5Z"/></clipPath>
<style type="text/css"><![CDATA[
.g0_145{
fill: none;
stroke: #000000;
stroke-width: 0.73;
stroke-linecap: butt;
stroke-linejoin: miter;
}
.g1_145{
fill: #E81A58;
}
.g2_145{
fill: #401A1A;
}
.g3_145{
fill: #7F7F7F;
fill-opacity: 0.01;
}
.g4_145{
fill: #7F7F7F;
fill-opacity: 0.02;
}
.g5_145{
fill: #7F7F7F;
fill-opacity: 0.04;
}
.g6_145{
fill: #7F7F7F;
fill-opacity: 0.07;
}
.g7_145{
fill: #7F7F7F;
fill-opacity: 0.11;
}
.g8_145{
fill: #FFFFFF;
}
.g9_145{
fill: #7F7F7F;
}
.ga_145{
fill: #00AEEF;
}
.gb_145{
fill: #CBCEFB;
}
.gc_145{
fill: #EC008C;
}
]]></style>
</defs>
<path d="M116.9,159.9H792.5" class="g0_145"/>
<path d="M116.9,478.9V179.5H792.5V439.8c0,21.6,-17.5,39.1,-39.1,39.1Z" class="g1_145"/>
<path d="M119.5,476.3V179.5H789.9V439.8c0,20.2,-16.3,36.5,-36.5,36.5Z" class="g2_145"/>
<path d="M122.2,548.5c107.4,0,214.7,0,322,0v586.7c-107.3,-9.3,-214.6,-9.3,-322,0Z" class="g3_145"/>
<path d="M122.9,549.1c106.9,0,213.8,0,320.7,0v585.5c-106.9,-9.3,-213.8,-9.3,-320.7,0Z" class="g4_145"/>
<path d="M123.5,549.8c106.5,0,213,0,319.5,0V1134c-106.5,-9.4,-213,-9.4,-319.5,0Z" class="g5_145"/>
<path d="M124.1,550.4c106.1,0,212.2,0,318.3,0v583c-106.1,-9.4,-212.2,-9.4,-318.3,0Z" class="g6_145"/>
<path d="M124.7,551c105.7,0,211.4,0,317,0v581.7c-105.6,-9.3,-211.3,-9.3,-317,0Z" class="g7_145"/>
<path d="M125.4,551.6c105.2,0,210.5,0,315.7,0v580.5c-105.2,-9.3,-210.5,-9.3,-315.7,0Z" class="g7_145"/>
<path d="M126,552.2c104.8,0,209.7,0,314.5,0v579.3c-104.8,-9.4,-209.7,-9.4,-314.5,0Z" class="g6_145"/>
<path d="M126.6,552.9c104.4,0,208.8,0,313.3,0v578c-104.5,-9.4,-208.9,-9.4,-313.3,0Z" class="g5_145"/>
<path d="M127.2,553.5c104,0,208,0,312,0v576.7c-104,-9.3,-208,-9.3,-312,0Z" class="g4_145"/>
<path d="M127.9,554.1c103.5,0,207.1,0,310.7,0v575.5c-103.6,-9.3,-207.2,-9.3,-310.7,0Z" class="g3_145"/>
<path d="M116.9,1124.9V543.2H449.5v581.7Z" class="g8_145"/>
<path d="M119.5,1122.3V581.9H446.9v540.4Z" class="g8_145"/>
<path d="M119.5,579.3V545.8H446.9v33.5Z" class="g9_145"/>
<g clip-path="url(#c0_145)">
<image x="119" y="545" width="329" height="34" xlink:href="shade/1.png"/>
</g>
<path d="M316.9,574.1h104V551h-104v23.1Z" class="ga_145"/>
<path d="M197.9,627.1H368.6M198.3,656.7V627.5" class="g0_145"/>
<path d="M198.6,656.7h89.1V627.5H198.6v29.2Z" class="gb_145"/>
<path d="M288,656.7V627.5" class="g0_145"/>
<path d="M288.4,656.7h79.4V627.5H288.4v29.2Z" class="gb_145"/>
<path d="M368.2,656.7V627.5M197.9,657.1H368.6M198.3,686.7V657.4M288,686.7V657.4m80.2,29.3V657.4M197.9,687H368.6M198.3,716.6V687.4M288,716.6V687.4m80.2,29.2V687.4M197.9,717H368.6M198.3,746.6V717.3M288,746.6V717.3m80.2,29.3V717.3M197.9,746.9H368.6M198.3,776.5V747.3M288,776.5V747.3m80.2,29.2V747.3M197.9,776.9H368.6M198.3,806.5V777.2M288,806.5V777.2m80.2,29.3V777.2M197.9,806.8H368.6M198.3,836.4V807.2M288,836.4V807.2m80.2,29.2V807.2M197.9,836.8H368.6M198.3,866.4V837.2M288,866.4V837.2m80.2,29.2V837.2M197.9,866.7H368.6M198.3,896.3V867.1M288,896.3V867.1m80.2,29.2V867.1M197.9,896.7H368.6M198.3,926.3V897.1M288,926.3V897.1m80.2,29.2V897.1M197.9,926.7H368.6M198.3,956.2V927M288,956.2V927m80.2,29.2V927M197.9,956.6H368.6M198.3,986.2V957M288,986.2V957m80.2,29.2V957M197.9,986.6H368.6m-170.3,29.6V986.9m89.7,29.3V986.9m80.2,29.3V986.9m-170.3,29.6H368.6m-170.3,29.6v-29.2m89.7,29.2v-29.2m80.2,29.2v-29.2m-170.3,29.6H368.6m-170.3,29.6v-29.3m89.7,29.3v-29.3m80.2,29.3v-29.3m-170.3,29.6H368.6M198.3,1106v-29.2M288,1106v-29.2m80.2,29.2v-29.2m-170.3,29.6H368.6" class="g0_145"/>
<path d="M465.2,548.5c107.4,0,214.7,0,322,0V792.9c-107.3,-9.3,-214.6,-9.3,-322,0Z" class="g3_145"/>
<path d="M465.8,549.1c107,0,213.9,0,320.8,0V792.3C679.7,783,572.8,783,465.8,792.3Z" class="g4_145"/>
<path d="M466.5,549.8c106.5,0,213,0,319.5,0V791.7c-106.5,-9.4,-213,-9.4,-319.5,0Z" class="g5_145"/>
<path d="M467.1,550.4c106.1,0,212.2,0,318.2,0V791.1c-106,-9.4,-212.1,-9.4,-318.2,0Z" class="g6_145"/>
<path d="M467.7,551c105.7,0,211.3,0,317,0V790.5c-105.7,-9.4,-211.3,-9.4,-317,0Z" class="g7_145"/>
<path d="M468.3,551.6c105.3,0,210.5,0,315.8,0V789.8c-105.3,-9.3,-210.5,-9.3,-315.8,0Z" class="g7_145"/>
<path d="M469,552.2c104.8,0,209.6,0,314.5,0v237c-104.9,-9.4,-209.7,-9.4,-314.5,0Z" class="g6_145"/>
<path d="M469.6,552.9c104.4,0,208.8,0,313.2,0V788.6c-104.4,-9.4,-208.8,-9.4,-313.2,0Z" class="g5_145"/>
<path d="M470.2,553.5c104,0,208,0,312,0V788c-104,-9.4,-208,-9.4,-312,0Z" class="g4_145"/>
<path d="M470.8,554.1c103.6,0,207.2,0,310.8,0V787.3C678,778,574.4,778,470.8,787.3Z" class="g3_145"/>
<path d="M459.9,782.7V543.2H792.5V782.7Z" class="g8_145"/>
<path d="M462.5,780.1V581.9H789.9V780.1Z" class="g8_145"/>
<path d="M462.5,579.3V545.8H789.9v33.5Z" class="g9_145"/>
<g clip-path="url(#c1_145)">
<image x="462" y="545" width="329" height="34" xlink:href="shade/2.png"/>
</g>
<path d="M675.7,574.1h88.2V551H675.7v23.1Z" class="gc_145"/>
<path d="M545.8,614.3H706.6M546.2,643.9V614.7" class="g0_145"/>
<path d="M546.5,643.9h69.9V614.7H546.5v29.2Z" class="gb_145"/>
<path d="M616.4,643.9h38.8V614.7H616.4v29.2Z" class="gb_145"/>
<path d="M655.2,643.9h50.7V614.7H655.2v29.2Z" class="gb_145"/>
<path d="M706.2,643.9V614.7M545.8,644.3H706.6M546.2,673.9V644.6m160,29.3V644.6M545.8,674.2H706.6M546.2,703.8V674.6m160,29.2V674.6M545.8,704.2H706.6M546.2,733.8V704.6m160,29.2V704.6M545.8,734.1H706.6M546.2,763.7V734.5m160,29.2V734.5M545.8,764.1H706.6" class="g0_145"/>
</svg>