<?xml version="1.0" encoding="UTF-8" standalone="no"?>
<!DOCTYPE svg PUBLIC "-//W3C//DTD SVG 1.1//EN"
"http://www.w3.org/Graphics/SVG/1.1/DTD/svg11.dtd">
<svg viewBox="0 0 1286 909" version="1.1" xmlns="http://www.w3.org/2000/svg" xmlns:xlink="http://www.w3.org/1999/xlink">
<defs>
<style type="text/css"><![CDATA[
.g0_946{
fill: none;
stroke: #000000;
stroke-width: 0.73;
stroke-linecap: butt;
stroke-linejoin: miter;
}
.g1_946{
fill: none;
stroke: #02B5EE;
stroke-width: 1.262;
stroke-linecap: butt;
stroke-linejoin: miter;
}
.g2_946{
fill: none;
stroke: #02B5EE;
stroke-width: 0.73;
stroke-linecap: butt;
stroke-linejoin: miter;
}
.g3_946{
fill: #B3E9FA;
}
.g4_946{
fill: none;
stroke: #5EE200;
stroke-width: 1.262;
stroke-linecap: butt;
stroke-linejoin: miter;
}
]]></style>
</defs>
<path d="M193,83.4h900.3M193,210.6H900.7m-707.7,0H900.7M535.2,240.2V211m0,58.5V240.2m0,59.4V269.5m0,59.3V299.6m0,58.5V328.8m0,114.3v-85" class="g0_946"/>
<path d="M631.1,419.1H715" class="g1_946"/>
<path d="M535.2,473.3V443.1m0,103.2v-73" class="g0_946"/>
<path d="M839.1,532.4h50.6" class="g2_946"/>
<path d="M535.2,575.5V546.3m0,58.5V575.5m0,114.3v-85" class="g0_946"/>
<path d="M548.7,646.3V627.8c0,-2.9,2.4,-5.2,5.2,-5.2H661.5c2.8,0,5.2,2.3,5.2,5.2v18.5c0,2.9,-2.4,5.2,-5.2,5.2H553.9c-2.8,0,-5.2,-2.3,-5.2,-5.2Z" class="g3_946"/>
<path d="M546.1,665.8H669.3m77.7,0h44" class="g1_946"/>
<path d="M801.6,665.8h58.9" class="g4_946"/>
<path d="M535.2,719V689.8m0,58.4V719M193,748.6H900.7m-707.7,0H900.7" class="g0_946"/>
</svg>