<?xml version="1.0" encoding="UTF-8" standalone="no"?>
<!DOCTYPE svg PUBLIC "-//W3C//DTD SVG 1.1//EN"
"http://www.w3.org/Graphics/SVG/1.1/DTD/svg11.dtd">
<svg viewBox="0 0 1286 909" version="1.1" xmlns="http://www.w3.org/2000/svg" xmlns:xlink="http://www.w3.org/1999/xlink">
<defs>
<style type="text/css"><![CDATA[
.g0_101{
fill: none;
stroke: #000000;
stroke-width: 0.73;
stroke-linecap: butt;
stroke-linejoin: miter;
}
.g1_101{
fill: none;
stroke: #02B5EE;
stroke-width: 1.262;
stroke-linecap: butt;
stroke-linejoin: miter;
}
.g2_101{
fill: none;
stroke: #5EE200;
stroke-width: 1.262;
stroke-linecap: butt;
stroke-linejoin: miter;
}
.g3_101{
fill: none;
stroke: #5EE200;
stroke-width: 0.73;
stroke-linecap: butt;
stroke-linejoin: miter;
}
.g4_101{
fill: none;
stroke: #02B5EE;
stroke-width: 0.73;
stroke-linecap: butt;
stroke-linejoin: miter;
}
.g5_101{
fill: none;
stroke: #FFA313;
stroke-width: 1.262;
stroke-linecap: butt;
stroke-linejoin: miter;
}
]]></style>
</defs>
<path d="M193,83.4h900.3M193,210.6H932.6m-739.6,0H932.6M598.2,240.2V211m0,58.5V240.2m0,128.8V269.5" class="g0_101"/>
<path d="M609.2,330.5H823.3" class="g1_101"/>
<path d="M833.8,330.5h87.8" class="g2_101"/>
<path d="M598.2,398.2V369m0,111.2v-82" class="g0_101"/>
<path d="M669.2,457.4H769.6" class="g3_101"/>
<path d="M769.6,457.4h152" class="g4_101"/>
<path d="M598.2,509.4V480.2m0,58.4V509.4m0,114.2v-85" class="g0_101"/>
<path d="M788.7,599.7h34.6" class="g1_101"/>
<path d="M833.8,599.7h87.8" class="g5_101"/>
<path d="M598.2,652.9V623.6m0,58.5V652.9m0,58.4V682.1M193,711.7H932.6m-739.6,0H932.6" class="g0_101"/>
</svg>