<?xml version="1.0" encoding="UTF-8" standalone="no"?>
<!DOCTYPE svg PUBLIC "-//W3C//DTD SVG 1.1//EN"
"http://www.w3.org/Graphics/SVG/1.1/DTD/svg11.dtd">
<svg viewBox="0 0 909 1286" version="1.1" xmlns="http://www.w3.org/2000/svg" xmlns:xlink="http://www.w3.org/1999/xlink">
<defs>
<style type="text/css"><![CDATA[
.g0_4{
fill: none;
stroke: #000000;
stroke-width: 0.73;
stroke-linecap: butt;
stroke-linejoin: miter;
}
.g1_4{
fill: none;
stroke: #F81693;
stroke-width: 0.73;
stroke-linecap: butt;
stroke-linejoin: miter;
}
.g2_4{
fill: none;
stroke: #02B5EE;
stroke-width: 0.73;
stroke-linecap: butt;
stroke-linejoin: miter;
}
.g3_4{
fill: none;
stroke: #02B5EE;
stroke-width: 1.461;
stroke-linecap: butt;
stroke-linejoin: miter;
}
.g4_4{
fill: none;
stroke: #999999;
stroke-width: 2.191;
stroke-linecap: butt;
stroke-linejoin: miter;
}
.g5_4{
fill: #FFFFFF;
}
.g6_4{
fill: #FDE8E9;
}
.g7_4{
fill: none;
stroke: #8007AC;
stroke-width: 0.73;
stroke-linecap: butt;
stroke-linejoin: miter;
}
.g8_4{
fill: none;
stroke: #8007AC;
stroke-width: 1.461;
stroke-linecap: butt;
stroke-linejoin: miter;
}
]]></style>
</defs>
<path d="M116.9,179.9H837M307.3,209.5V180.3m-96.1,60.2L180,221.9m31.2,18.6l31.2,-18.6M180,221.7l-22,13.2m53.2,5.6v25.6m31.2,-44.4l21.9,13.2m43,56.4V209.5" class="g0_4"/>
<path d="M475.5,240.5L444.3,221.9m31.2,18.6l31.3,-18.6" class="g1_4"/>
<path d="M444.3,221.7l-21.9,13.2m53.1,5.6v25.6m31.3,-44.4l21.9,13.2" class="g2_4"/>
<path d="M307.3,320.5V291.3m0,58.5V320.5" class="g0_4"/>
<path d="M467.1,350.9c1.4,0,2.1,-2.7,3.5,-2.7c1,0,1.8,1.3,2.7,2.7c.9,1.4,1.8,2.8,2.8,2.8c.9,0,1.8,-1.4,2.7,-2.8c.9,-1.4,1.7,-2.7,2.7,-2.7c1,0,1.9,1.3,2.8,2.7c.9,1.4,1.7,2.8,2.7,2.8c1,0,1.9,-1.4,2.8,-2.8c.8,-1.4,1.7,-2.7,2.7,-2.7c1,0,1.8,1.3,2.7,2.7c.9,1.4,1.8,2.8,2.8,2.8c1,0,1.8,-1.4,2.7,-2.8c.9,-1.4,1.8,-2.7,2.7,-2.7c1,0,1.9,1.3,2.8,2.7c.9,1.4,1.7,2.8,2.7,2.8c1,0,1.9,-1.4,2.8,-2.8c.9,-1.4,1.7,-2.7,2.7,-2.7c1,0,1.9,1.3,2.7,2.7c.9,1.4,1.8,2.8,2.8,2.8c1,0,1.8,-1.4,2.7,-2.8c.9,-1.4,1.8,-2.7,2.8,-2.7c1,0,1.8,1.3,2.7,2.7c.9,1.4,1.8,2.8,2.7,2.8c1,0,1.9,-1.4,2.8,-2.8c.9,-1.4,1.7,-2.7,2.7,-2.7c1,0,1.9,1.3,2.8,2.7c.9,1.4,1.7,2.8,2.7,2.8c1,0,1.9,-1.4,2.7,-2.8c.9,-1.4,1.8,-2.7,2.8,-2.7c1.4,0,2,2.7,3.4,2.7h3.6" class="g3_4"/>
<path d="M742,343.8L726.6,329.5m0,14.3L742,329.5" class="g4_4"/>
<path d="M307.3,379V349.8m0,58.4V379m0,104.9V408.2" class="g0_4"/>
<path d="M384.9,476.1V416c0,-2.9,2.3,-5.2,5.2,-5.2H559c2.9,0,5.2,2.3,5.2,5.2v60.1c0,2.9,-2.3,5.2,-5.2,5.2H390.1c-2.9,0,-5.2,-2.3,-5.2,-5.2Z" class="g5_4"/>
<path d="M440.8,507.1h67.4V490.4H440.8v16.7Z" class="g6_4"/>
<path d="M410.9,465.7H538.2V426.4H410.9v39.3Z" class="g6_4"/>
<path d="M307.3,513.2V483.9m0,58.5V513.2M116.9,542.7H837M307.3,572.3V543.1m-95.4,93.2V608.5m24.9,-15l-24.9,14.8m0,28H177.2m1.8,0L154.2,621.5m57.7,14.8v27m0,-.9l-24.8,14.8m24.8,-40.9h34.7m23,14.9L244.4,636.3m62.9,54.4V572.3" class="g0_4"/>
<path d="M476.3,626.8V608.5m24.8,-15l-24.8,14.8" class="g7_4"/>
<path d="M467.1,636.3H441.5" class="g1_4"/>
<path d="M427.3,634.3L409,623.3" class="g2_4"/>
<path d="M476.3,645v18.3m0,0l-24.9,14.8" class="g7_4"/>
<path d="M485.4,636.3H511" class="g1_4"/>
<path d="M543.7,646.9l-18.3,-11" class="g2_4"/>
<path d="M307.3,719.9V690.7m0,58.4V719.9" class="g0_4"/>
<path d="M373.2,750.3c1.3,0,2,-2.7,3.4,-2.7c1,0,1.8,1.3,2.7,2.7c.9,1.4,1.8,2.8,2.8,2.8c1,0,1.8,-1.4,2.7,-2.8c.9,-1.4,1.8,-2.7,2.8,-2.7c.9,0,1.8,1.3,2.7,2.7c.9,1.4,1.7,2.8,2.7,2.8c1,0,1.9,-1.4,2.8,-2.8c.9,-1.4,1.7,-2.7,2.7,-2.7c1,0,1.9,1.3,2.8,2.7c.8,1.4,1.7,2.8,2.7,2.8c1,0,1.8,-1.4,2.7,-2.8c.9,-1.4,1.8,-2.7,2.8,-2.7c1,0,1.8,1.3,2.7,2.7c.9,1.4,1.8,2.8,2.8,2.8c.9,0,1.8,-1.4,2.7,-2.8c.9,-1.4,1.7,-2.7,2.7,-2.7c1,0,1.9,1.3,2.8,2.7c.9,1.4,1.7,2.8,2.7,2.8c1,0,1.9,-1.4,2.8,-2.8c.8,-1.4,1.7,-2.7,2.7,-2.7c1,0,1.8,1.3,2.7,2.7c.9,1.4,1.8,2.8,2.8,2.8c1,0,1.8,-1.4,2.7,-2.8c.9,-1.4,1.8,-2.7,2.8,-2.7c1.3,0,2,2.7,3.4,2.7h2" class="g8_4"/>
<path d="M741.2,750.3c1.4,0,2.1,-2.7,3.5,-2.7c1,0,1.8,1.3,2.7,2.7c.9,1.4,1.7,2.8,2.7,2.8c1,0,1.9,-1.4,2.8,-2.8c.9,-1.4,1.7,-2.7,2.7,-2.7c1,0,1.9,1.3,2.8,2.7c.9,1.4,1.7,2.8,2.7,2.8c1,0,1.8,-1.4,2.7,-2.8c.9,-1.4,1.8,-2.7,2.8,-2.7c1,0,1.8,1.3,2.7,2.7c.9,1.4,1.8,2.8,2.8,2.8c.9,0,1.8,-1.4,2.7,-2.8c.9,-1.4,1.7,-2.7,2.7,-2.7c1,0,1.9,1.3,2.8,2.7c.9,1.4,1.7,2.8,2.7,2.8c1,0,1.9,-1.4,2.8,-2.8c.8,-1.4,1.7,-2.7,2.7,-2.7c1,0,1.8,1.3,2.7,2.7c.9,1.4,1.8,2.8,2.8,2.8c1,0,1.8,-1.4,2.7,-2.8c.9,-1.4,1.8,-2.7,2.8,-2.7c1.3,0,2,2.7,3.4,2.7h1" class="g3_4"/>
<path d="M307.3,778.4V749.1m0,58.5V778.4m0,104.9V807.6" class="g0_4"/>
<path d="M384.9,875.5V815.4c0,-2.9,2.3,-5.2,5.2,-5.2H657.4c2.9,0,5.2,2.3,5.2,5.2v60.1c0,2.9,-2.3,5.2,-5.2,5.2H390.1c-2.9,0,-5.2,-2.3,-5.2,-5.2Z" class="g5_4"/>
<path d="M469.8,906.5H577.7V889.8H469.8v16.7Z" class="g6_4"/>
<path d="M410.9,865.1H636.7V825.8H410.9v39.3Z" class="g6_4"/>
<path d="M307.3,912.5V883.3m0,58.5V912.5M116.9,942.1H837" class="g0_4"/>
</svg>