<?xml version="1.0" encoding="UTF-8" standalone="no"?>
<!DOCTYPE svg PUBLIC "-//W3C//DTD SVG 1.1//EN"
"http://www.w3.org/Graphics/SVG/1.1/DTD/svg11.dtd">
<svg viewBox="0 0 1286 909" version="1.1" xmlns="http://www.w3.org/2000/svg" xmlns:xlink="http://www.w3.org/1999/xlink">
<defs>
<style type="text/css"><![CDATA[
.g0_1269{
fill: none;
stroke: #000000;
stroke-width: 0.73;
stroke-linecap: butt;
stroke-linejoin: miter;
}
.g1_1269{
fill: none;
stroke: #02B5EE;
stroke-width: 1.262;
stroke-linecap: butt;
stroke-linejoin: miter;
}
.g2_1269{
fill: none;
stroke: #5EE200;
stroke-width: 1.262;
stroke-linecap: butt;
stroke-linejoin: miter;
}
.g3_1269{
fill: #FFF7A4;
}
.g4_1269{
fill: none;
stroke: #FFA313;
stroke-width: 1.262;
stroke-linecap: butt;
stroke-linejoin: miter;
}
]]></style>
</defs>
<path d="M193,83.4h900.3M193,111.6h819.9m-819.9,0h819.9M581,141.2V112m0,58.5V141.2m0,114.3v-85" class="g0_1269"/>
<path d="M702.7,231.5h67.5" class="g1_1269"/>
<path d="M780.7,231.5h22.1" class="g2_1269"/>
<path d="M581,284.7V255.5m0,58.4V284.7M581,399V313.9" class="g0_1269"/>
<path d="M700.6,375h34.6" class="g1_1269"/>
<path d="M901.3,363.2h100.6V330.4H901.3v32.8Z" class="g3_1269"/>
<path d="M745.7,375h256.2" class="g4_1269"/>
<path d="M581,428.2V399m0,58.4V428.2m0,114.2v-85" class="g0_1269"/>
<path d="M736.3,518.4h34.6" class="g1_1269"/>
<path d="M901.3,506.7h100.6V473.8H901.3v32.9Z" class="g3_1269"/>
<path d="M781.4,518.4h220.5" class="g4_1269"/>
<path d="M581,571.7V542.4m0,58.5V571.7m0,60V600.9m0,60V631.7M193,661.3h819.9m-819.9,0h819.9" class="g0_1269"/>
</svg>