<?xml version="1.0" encoding="UTF-8" standalone="no"?>
<!DOCTYPE svg PUBLIC "-//W3C//DTD SVG 1.1//EN"
"http://www.w3.org/Graphics/SVG/1.1/DTD/svg11.dtd">
<svg viewBox="0 0 1286 909" version="1.1" xmlns="http://www.w3.org/2000/svg" xmlns:xlink="http://www.w3.org/1999/xlink">
<defs>
<style type="text/css"><![CDATA[
.g0_572{
fill: none;
stroke: #000000;
stroke-width: 0.73;
stroke-linecap: butt;
stroke-linejoin: miter;
}
.g1_572{
fill: none;
stroke: #F81693;
stroke-width: 1.461;
stroke-linecap: butt;
stroke-linejoin: miter;
stroke-dasharray: 2,2;
}
.g2_572{
fill: #F81693;
}
.g3_572{
fill: #FFE6E6;
}
.g4_572{
fill: #B3E9FA;
}
.g5_572{
fill: none;
stroke: #02B5EE;
stroke-width: 1.461;
stroke-linecap: butt;
stroke-linejoin: miter;
stroke-dasharray: 2,2;
}
.g6_572{
fill: none;
stroke: #02B5EE;
stroke-width: 0.73;
stroke-linecap: butt;
stroke-linejoin: miter;
}
.g7_572{
fill: none;
stroke: #02B5EE;
stroke-width: 1.051;
stroke-linecap: butt;
stroke-linejoin: miter;
}
.g8_572{
fill: none;
stroke: #000000;
stroke-width: 0.733;
stroke-linecap: round;
stroke-linejoin: round;
}
]]></style>
</defs>
<path d="M193,83.4h900.3M193,111.6H1219.8M193,111.6H1219.8M566.3,141.2V112m0,102.3V141.2" class="g0_572"/>
<path d="M657.5,186.2h64.7" class="g1_572"/>
<path d="M725.9,188.6V161.4c0,-4.3,3.5,-7.8,7.8,-7.8H845.4c4.3,0,7.8,3.5,7.8,7.8v27.2c0,4.3,-3.5,7.8,-7.8,7.8H733.7c-4.3,0,-7.8,-3.5,-7.8,-7.8Z" class="g2_572"/>
<path d="M728.5,188.6V161.4c0,-2.9,2.3,-5.2,5.2,-5.2H845.4c2.9,0,5.2,2.3,5.2,5.2v27.2c0,2.9,-2.3,5.2,-5.2,5.2H733.7c-2.9,0,-5.2,-2.3,-5.2,-5.2Z" class="g3_572"/>
<path d="M952.4,176.5v-2.9c0,-2.9,2.4,-5.2,5.2,-5.2h1.5c2.9,0,5.2,2.3,5.2,5.2v2.9c0,2.9,-2.3,5.2,-5.2,5.2h-1.5c-2.8,0,-5.2,-2.3,-5.2,-5.2Z" class="g4_572"/>
<path d="M970.6,186.2h234.6" class="g5_572"/>
<path d="M949.8,200.4h259.1" class="g6_572"/>
<path d="M566.3,243.5V214.3m0,60.5V243.5m0,62.7V274.8m0,60.6V306.2m0,58.4V335.4m0,211.6V364.6" class="g0_572"/>
<path d="M731.3,509.4h68.9" class="g5_572"/>
<path d="M727.7,521.5h76.1" class="g7_572"/>
<path d="M812.6,506.6V483.8c0,-4.3,3.5,-7.8,7.8,-7.8h35.5c4.3,0,7.8,3.5,7.8,7.8v22.8c0,4.3,-3.5,7.8,-7.8,7.8H820.4c-4.3,0,-7.8,-3.5,-7.8,-7.8Z" class="g2_572"/>
<path d="M815.2,506.6V483.8c0,-2.8,2.3,-5.2,5.2,-5.2h35.5c2.9,0,5.2,2.4,5.2,5.2v22.8c0,2.9,-2.3,5.2,-5.2,5.2H820.4c-2.9,0,-5.2,-2.3,-5.2,-5.2Z" class="g3_572"/>
<path d="M980.6,501.9v-14c0,-2.8,2.3,-5.2,5.2,-5.2h31.7c2.9,0,5.2,2.4,5.2,5.2v14c0,2.8,-2.3,5.2,-5.2,5.2H985.8c-2.9,0,-5.2,-2.4,-5.2,-5.2Z" class="g4_572"/>
<path d="M978,521.5h47.3" class="g7_572"/>
<path d="M1034.1,506.6V483.8c0,-4.3,3.5,-7.8,7.8,-7.8h35.5c4.3,0,7.8,3.5,7.8,7.8v22.8c0,4.3,-3.5,7.8,-7.8,7.8h-35.5c-4.3,0,-7.8,-3.5,-7.8,-7.8Z" class="g2_572"/>
<path d="M1036.7,506.6V483.8c0,-2.8,2.3,-5.2,5.2,-5.2h35.5c2.9,0,5.2,2.4,5.2,5.2v22.8c0,2.9,-2.3,5.2,-5.2,5.2h-35.5c-2.9,0,-5.2,-2.3,-5.2,-5.2Z" class="g3_572"/>
<path d="M1097.6,509.5h87.3" class="g1_572"/>
<path d="M958.1,455.7V404.1" class="g8_572"/>
<path d="M566.3,577.2V547m0,103.2v-73" class="g0_572"/>
<path d="M657.5,622.1h64.7" class="g1_572"/>
<path d="M725.9,624.6V597.3c0,-4.3,3.5,-7.8,7.8,-7.8H845.4c4.3,0,7.8,3.5,7.8,7.8v27.3c0,4.3,-3.5,7.8,-7.8,7.8H733.7c-4.3,0,-7.8,-3.5,-7.8,-7.8Z" class="g2_572"/>
<path d="M728.5,624.6V597.3c0,-2.9,2.3,-5.2,5.2,-5.2H845.4c2.9,0,5.2,2.3,5.2,5.2v27.3c0,2.8,-2.3,5.2,-5.2,5.2H733.7c-2.9,0,-5.2,-2.4,-5.2,-5.2Z" class="g3_572"/>
<path d="M952.4,612.4v-2.9c0,-2.9,2.4,-5.2,5.2,-5.2h1.5c2.9,0,5.2,2.3,5.2,5.2v2.9c0,2.9,-2.3,5.2,-5.2,5.2h-1.5c-2.8,0,-5.2,-2.3,-5.2,-5.2Z" class="g4_572"/>
<path d="M970.6,622.1h234.6" class="g5_572"/>
<path d="M949.8,636.3h259.1" class="g6_572"/>
<path d="M566.3,679.4V650.2m0,58.5V679.4m0,58.5V708.7M193,738.3H1219.8M193,738.3H1219.8" class="g0_572"/>
</svg>