<?xml version="1.0" encoding="UTF-8" standalone="no"?>
<!DOCTYPE svg PUBLIC "-//W3C//DTD SVG 1.1//EN"
"http://www.w3.org/Graphics/SVG/1.1/DTD/svg11.dtd">
<svg viewBox="0 0 1286 909" version="1.1" xmlns="http://www.w3.org/2000/svg" xmlns:xlink="http://www.w3.org/1999/xlink">
<defs>
<style type="text/css"><![CDATA[
.g0_224{
fill: none;
stroke: #000000;
stroke-width: 0.73;
stroke-linecap: butt;
stroke-linejoin: miter;
}
.g1_224{
fill: none;
stroke: #02B5EE;
stroke-width: 1.262;
stroke-linecap: butt;
stroke-linejoin: miter;
}
]]></style>
</defs>
<path d="M193,83.4h900.3M193,210.6H841.6m-648.6,0H841.6M478.9,240.2V211m0,58.5V240.2m0,114.3v-85" class="g0_224"/>
<path d="M560.2,330.5h47.1" class="g1_224"/>
<path d="M478.9,383.7V354.5m0,58.4V383.7m0,114.3V412.9" class="g0_224"/>
<path d="M489.9,474H537" class="g1_224"/>
<path d="M478.9,527.2V498m0,58.4V527.2m0,114.2v-85" class="g0_224"/>
<path d="M580.4,617.4h47.1" class="g1_224"/>
<path d="M478.9,670.6V641.4m0,58.5V670.6m0,58.5V699.9M193,729.5H841.6m-648.6,0H841.6" class="g0_224"/>
</svg>