<?xml version="1.0" encoding="UTF-8" standalone="no"?>
<!DOCTYPE svg PUBLIC "-//W3C//DTD SVG 1.1//EN"
"http://www.w3.org/Graphics/SVG/1.1/DTD/svg11.dtd">
<svg viewBox="0 0 1286 909" version="1.1" xmlns="http://www.w3.org/2000/svg" xmlns:xlink="http://www.w3.org/1999/xlink">
<defs>
<style type="text/css"><![CDATA[
.g0_103{
fill: none;
stroke: #000000;
stroke-width: 0.73;
stroke-linecap: butt;
stroke-linejoin: miter;
}
.g1_103{
fill: none;
stroke: #02B5EE;
stroke-width: 1.262;
stroke-linecap: butt;
stroke-linejoin: miter;
}
.g2_103{
fill: none;
stroke: #5EE200;
stroke-width: 1.262;
stroke-linecap: butt;
stroke-linejoin: miter;
}
.g3_103{
fill: none;
stroke: #5EE200;
stroke-width: 0.73;
stroke-linecap: butt;
stroke-linejoin: miter;
}
.g4_103{
fill: none;
stroke: #02B5EE;
stroke-width: 0.73;
stroke-linecap: butt;
stroke-linejoin: miter;
}
]]></style>
</defs>
<path d="M193,83.4h900.3M193,210.6H947.4m-754.4,0H947.4M590.1,240.2V211m0,58.5V240.2m0,114.3v-85" class="g0_103"/>
<path d="M675.2,330.5h99.2" class="g1_103"/>
<path d="M784.9,330.5h22.2" class="g2_103"/>
<path d="M590.1,383.7V354.5m0,102.3V383.7" class="g0_103"/>
<path d="M673.5,442.9h34.3" class="g3_103"/>
<path d="M885.8,442.9h50.7" class="g4_103"/>
<path d="M590.1,486V456.8m0,58.4V486m0,116.7V515.2" class="g0_103"/>
<path d="M771.8,576.2h99" class="g1_103"/>
<path d="M881.3,576.2h22.5m10.5,0h22.2" class="g2_103"/>
<path d="M590.1,631.9V602.7m0,58.4V631.9m0,58.5V661.1M193,690.7H947.4m-754.4,0H947.4" class="g0_103"/>
</svg>