<?xml version="1.0" encoding="UTF-8" standalone="no"?>
<!DOCTYPE svg PUBLIC "-//W3C//DTD SVG 1.1//EN"
"http://www.w3.org/Graphics/SVG/1.1/DTD/svg11.dtd">
<svg viewBox="0 0 909 1286" version="1.1" xmlns="http://www.w3.org/2000/svg" xmlns:xlink="http://www.w3.org/1999/xlink">
<defs>
<style type="text/css"><![CDATA[
.g0_4{
fill: none;
stroke: #000000;
stroke-width: 0.73;
stroke-linecap: butt;
stroke-linejoin: miter;
}
.g1_4{
fill: #FFFFFF;
}
.g2_4{
fill: #FDE8E9;
}
]]></style>
</defs>
<path d="M116.9,179.9H606.1M248.8,209.5V180.3m-68.5,74.5V236.5m4.8,18.3V236.5m4.9,36.4l18.3,18.2M173.6,272.9l-18.3,18.2m93.5,58V209.5" class="g0_4"/>
<path d="M326.4,341.3V281.1c0,-2.8,2.3,-5.2,5.2,-5.2H523.2c2.9,0,5.2,2.4,5.2,5.2v60.2c0,2.8,-2.3,5.2,-5.2,5.2H331.6c-2.9,0,-5.2,-2.4,-5.2,-5.2Z" class="g1_4"/>
<path d="M403.9,266.9H451V250.2H403.9v16.7Z" class="g2_4"/>
<path d="M352.4,330.9H502.5V291.5H352.4v39.4Z" class="g2_4"/>
<path d="M248.8,378.3V349.1M116.9,378.6H606.1M248.8,408.2V379m-68.5,74.5V435.3m4.8,18.2V435.3m4.9,36.3l18.3,18.3M173.6,471.6l-18.3,18.3m93.5,57.9V408.2" class="g0_4"/>
<path d="M326.4,540V479.9c0,-2.9,2.3,-5.2,5.2,-5.2H578.9c2.9,0,5.2,2.3,5.2,5.2V540c0,2.9,-2.3,5.2,-5.2,5.2H331.6c-2.9,0,-5.2,-2.3,-5.2,-5.2Z" class="g1_4"/>
<path d="M421.6,465.6H489V448.9H421.6v16.7Z" class="g2_4"/>
<path d="M352.4,529.6H558.1V490.3H352.4v39.3Z" class="g2_4"/>
<path d="M248.8,577V547.8M116.9,577.4H606.1" class="g0_4"/>
</svg>