<?xml version="1.0" encoding="UTF-8" standalone="no"?>
<!DOCTYPE svg PUBLIC "-//W3C//DTD SVG 1.1//EN"
"http://www.w3.org/Graphics/SVG/1.1/DTD/svg11.dtd">
<svg viewBox="0 0 1286 909" version="1.1" xmlns="http://www.w3.org/2000/svg" xmlns:xlink="http://www.w3.org/1999/xlink">
<defs>
<style type="text/css"><![CDATA[
.g0_808{
fill: none;
stroke: #000000;
stroke-width: 0.73;
stroke-linecap: butt;
stroke-linejoin: miter;
}
.g1_808{
fill: #B3E9FA;
}
.g2_808{
fill: none;
stroke: #02B5EE;
stroke-width: 1.262;
stroke-linecap: butt;
stroke-linejoin: miter;
}
.g3_808{
fill: none;
stroke: #5EE200;
stroke-width: 1.262;
stroke-linecap: butt;
stroke-linejoin: miter;
}
]]></style>
</defs>
<path d="M193,83.4h900.3M193,111.6h811.8m-811.8,0h811.8M495.9,141.2V112m0,114.3V141.2" class="g0_808"/>
<path d="M757.9,176.5V164.3c0,-2.9,2.3,-5.2,5.2,-5.2h75.8c2.8,0,5.2,2.3,5.2,5.2v12.2c0,2.9,-2.4,5.2,-5.2,5.2H763.1c-2.9,0,-5.2,-2.3,-5.2,-5.2Z" class="g1_808"/>
<path d="M755.3,202.3h91.4" class="g2_808"/>
<path d="M857.2,202.3H993.9" class="g3_808"/>
<path d="M495.9,255.5V226.3M193,255.9h811.8m-811.8,0h811.8" class="g0_808"/>
</svg>