<?xml version="1.0" encoding="UTF-8" standalone="no"?>
<!DOCTYPE svg PUBLIC "-//W3C//DTD SVG 1.1//EN"
"http://www.w3.org/Graphics/SVG/1.1/DTD/svg11.dtd">
<svg viewBox="0 0 1286 909" version="1.1" xmlns="http://www.w3.org/2000/svg" xmlns:xlink="http://www.w3.org/1999/xlink">
<defs>
<style type="text/css"><![CDATA[
.g0_502{
fill: none;
stroke: #000000;
stroke-width: 0.73;
stroke-linecap: butt;
stroke-linejoin: miter;
}
.g1_502{
fill: #B3E9FA;
}
.g2_502{
fill: none;
stroke: #02B5EE;
stroke-width: 1.262;
stroke-linecap: butt;
stroke-linejoin: miter;
}
.g3_502{
fill: none;
stroke: #5EE200;
stroke-width: 1.262;
stroke-linecap: butt;
stroke-linejoin: miter;
}
]]></style>
</defs>
<path d="M193,83.4h900.3M193,210.6H751.7m-558.7,0H751.7M447.9,240.2V211m0,58.5V240.2m0,114.3v-85" class="g0_502"/>
<path d="M461.4,304.7V292.5c0,-2.9,2.4,-5.2,5.2,-5.2h88.8c2.9,0,5.2,2.3,5.2,5.2v12.2c0,2.9,-2.3,5.2,-5.2,5.2H466.6c-2.8,0,-5.2,-2.3,-5.2,-5.2Z" class="g1_502"/>
<path d="M458.8,330.5H563.2" class="g2_502"/>
<path d="M573.7,330.5H740.8" class="g3_502"/>
<path d="M447.9,383.7V354.5M193,384.1H751.7m-558.7,0H751.7" class="g0_502"/>
</svg>