<?xml version="1.0" encoding="UTF-8" standalone="no"?>
<!DOCTYPE svg PUBLIC "-//W3C//DTD SVG 1.1//EN"
"http://www.w3.org/Graphics/SVG/1.1/DTD/svg11.dtd">
<svg viewBox="0 0 909 1286" version="1.1" xmlns="http://www.w3.org/2000/svg" xmlns:xlink="http://www.w3.org/1999/xlink">
<defs>
<style type="text/css"><![CDATA[
.g0_13{
fill: none;
stroke: #000000;
stroke-width: 0.73;
stroke-linecap: butt;
stroke-linejoin: miter;
}
.g1_13{
fill: none;
stroke: #F81693;
stroke-width: 0.73;
stroke-linecap: butt;
stroke-linejoin: miter;
}
.g2_13{
fill: none;
stroke: #02B5EE;
stroke-width: 0.73;
stroke-linecap: butt;
stroke-linejoin: miter;
}
.g3_13{
fill: none;
stroke: #02B5EE;
stroke-width: 1.461;
stroke-linecap: butt;
stroke-linejoin: miter;
}
.g4_13{
fill: #FFFFFF;
}
.g5_13{
fill: #FDE8E9;
}
]]></style>
</defs>
<path d="M116.9,179.9H790.2m-419,29.6V180.3m-165.7,84L224.3,233m0,0h36.6m18.8,31.3L260.9,233m18.8,31.3l-18.8,31.2m-36.6,0h36.6M205.5,264.3l18.8,31.2M213.2,263.2l14.2,-23.8M272,263.2L257.8,239.4m-28.7,50.1h27M169,264.3h36.5M154.6,240.4L169,264.3m-1.3,-.6l-13.1,22m17.7,-20.9l-13.2,21.9M279.7,264.3h36.5m14.4,23.9L316.2,264.3m1.3,.5l13.1,-21.9m-17.9,20.8l13.2,-21.9m45.3,67.8V209.5" class="g0_13"/>
<path d="M504.4,257l11.3,-18.8M526.1,233h22m21.7,24L558.5,238.2m11.3,33.4l-14.4,23.9m-36.6,0h36.6m-51,-23.9l14.4,23.9m-8.4,-37.8l11.3,-18.8m42.1,18.8L552.4,238.9m-28.8,50.6h27" class="g1_13"/>
<path d="M463.5,264.3H500M449,240.4l14.5,23.9m-1.3,-.6l-13.2,22m17.8,-20.9l-13.2,21.9M574.2,264.3h36.5m14.4,23.9L610.7,264.3m1.3,.5l13.1,-21.9m-17.9,20.8l13.2,-21.9" class="g2_13"/>
<path d="M371.2,338.8V309.6m0,58.4V338.8" class="g0_13"/>
<path d="M507.2,369.2c1.4,0,2.1,-2.7,3.4,-2.7c1,0,1.9,1.3,2.8,2.7c.9,1.4,1.7,2.7,2.7,2.7c1,0,1.9,-1.3,2.8,-2.7c.9,-1.4,1.7,-2.7,2.7,-2.7c1,0,1.9,1.3,2.7,2.7c.9,1.4,1.8,2.7,2.8,2.7c1,0,1.8,-1.3,2.7,-2.7c.9,-1.4,1.8,-2.7,2.8,-2.7c1,0,1.8,1.3,2.7,2.7c.9,1.4,1.8,2.7,2.7,2.7c1,0,1.9,-1.3,2.8,-2.7c.9,-1.4,1.7,-2.7,2.7,-2.7c1,0,1.9,1.3,2.8,2.7c.9,1.4,1.7,2.7,2.7,2.7c1,0,1.8,-1.3,2.7,-2.7c.9,-1.4,1.8,-2.7,2.8,-2.7c1,0,1.8,1.3,2.7,2.7c.9,1.4,1.8,2.7,2.8,2.7c1,0,1.8,-1.3,2.7,-2.7c.9,-1.4,1.7,-2.7,2.7,-2.7c1.4,0,2.1,2.7,3.5,2.7h1" class="g3_13"/>
<path d="M371.2,397.2V368m0,105.8V397.2" class="g0_13"/>
<path d="M448.8,466V405c0,-2.8,2.3,-5.2,5.2,-5.2H681.6c2.9,0,5.2,2.4,5.2,5.2v61c0,2.8,-2.3,5.2,-5.2,5.2H454c-2.9,0,-5.2,-2.4,-5.2,-5.2Z" class="g4_13"/>
<path d="M522.6,496.7H613V480.2H522.6v16.5Z" class="g5_13"/>
<path d="M474.8,455.6h186V415.4h-186v40.2Z" class="g5_13"/>
<path d="M371.2,503V473.8M116.9,503.4H790.2m-419,29.5V503.7M233.3,588.5l31.2,18.6m0,36.7V607.3m-31.2,55.3L264.5,644m-31.2,18.6L202.1,644m0,-.2V607.3m31.2,-18.8l-31.2,18.6M170.8,588.5l31.3,18.6m-31.3,55.5L202.1,644m-31.3,18.6L139.6,644m0,-.2V607.3m31.2,-18.8l-31.2,18.6m30.1,-11l-23,13.7m23,45.2l-23,-13.7m85.5,-45.2l-23,13.7m49.3,29.3V612m-26.3,43l-23,-13.7m86.6,-52.8l24.8,14.8M295.8,588.5l-31.3,18.6m29.1,-18.6V562.9m4.4,25.6V562.9m73.2,106.7V532.9" class="g0_13"/>
<path d="M534.2,592.3l18.2,11m6.6,33.2V616.4m-24.8,42.4l18.2,-11m-31,11l-25.2,-15m.3,0V607.3m24.9,-15l-24.9,14.8M471.7,592.3l24.8,14.8m-24.8,51.7l25.2,-15m-38,15l-18.3,-11m-6.5,-11.3V616.4m24.8,-24.1l-18.3,11m18.3,-5l-18.3,11m18.3,42.4l-18.3,-11m80.8,-40.2l-18.3,11m49.9,25V616.4m-31.6,34.2l-18.3,-11" class="g1_13"/>
<path d="M590.2,588.5l24.9,14.8M590.2,588.5l-24.8,14.8m22.7,-14.8V562.9m4.3,25.6V562.9" class="g2_13"/>
<path d="M371.2,698.8V669.6m0,58.4V698.8" class="g0_13"/>
<path d="M576.7,726.6c1.4,0,2.1,-2.8,3.4,-2.8c1,0,1.9,1.4,2.8,2.8c.9,1.4,1.7,2.7,2.7,2.7c1,0,1.9,-1.3,2.8,-2.7c.8,-1.4,1.7,-2.8,2.7,-2.8c1.4,0,2,2.8,3.4,2.8h3.9" class="g3_13"/>
<path d="M371.2,757.2V728m0,105.8V757.2" class="g0_13"/>
<path d="M448.8,826V765c0,-2.8,2.3,-5.2,5.2,-5.2H678.5c2.9,0,5.2,2.4,5.2,5.2v61c0,2.8,-2.3,5.2,-5.2,5.2H454c-2.9,0,-5.2,-2.4,-5.2,-5.2Z" class="g4_13"/>
<path d="M521.6,856.7h89.3V840.2H521.6v16.5Z" class="g5_13"/>
<path d="M474.8,815.6H657.7V775.4H474.8v40.2Z" class="g5_13"/>
<path d="M371.2,863V833.8M116.9,863.4H790.2" class="g0_13"/>
</svg>