<?xml version="1.0" encoding="UTF-8" standalone="no"?>
<!DOCTYPE svg PUBLIC "-//W3C//DTD SVG 1.1//EN"
"http://www.w3.org/Graphics/SVG/1.1/DTD/svg11.dtd">
<svg viewBox="0 0 909 1286" version="1.1" xmlns="http://www.w3.org/2000/svg" xmlns:xlink="http://www.w3.org/1999/xlink">
<defs>
<clipPath id="c0_15"><path d="M122.1,346.1V315.2h30.8v30.9Z"/></clipPath>
<clipPath id="c1_15"><path d="M123.1,705.1V673.4h29.1v31.7Z"/></clipPath>
<clipPath id="c2_15"><path d="M122.1,346.1v-31H153v31Z"/></clipPath>
<clipPath id="c3_15"><path d="M122.1,705.6V672.9H153v32.7Z"/></clipPath>
<style type="text/css"><![CDATA[
.g0_15{
fill: none;
stroke: #000000;
stroke-width: 0.73;
stroke-linecap: butt;
stroke-linejoin: miter;
}
.g1_15{
fill: #FFFFFF;
}
.g2_15{
fill: none;
stroke: #000000;
stroke-width: 1.461;
stroke-linecap: butt;
stroke-linejoin: miter;
}
.g3_15{
}
.g4_15{
fill: none;
stroke: #000000;
stroke-width: 1.515;
stroke-linecap: butt;
stroke-linejoin: miter;
}
.g5_15{
fill: none;
stroke: #000000;
stroke-width: 2.739;
stroke-linecap: butt;
stroke-linejoin: miter;
}
.g6_15{
fill: none;
stroke: #000000;
stroke-width: 0.459;
stroke-linecap: butt;
stroke-linejoin: round;
}
.g7_15{
fill: none;
stroke: #000000;
stroke-width: 0.722;
stroke-linecap: round;
stroke-linejoin: miter;
}
.g8_15{
fill: none;
stroke: #000000;
stroke-width: 0.722;
stroke-linecap: round;
stroke-linejoin: round;
}
.g9_15{
fill: #D40000;
}
.ga_15{
fill: none;
stroke: #000000;
stroke-width: 0.578;
stroke-linecap: round;
stroke-linejoin: miter;
}
.gb_15{
fill: #E9C6AF;
}
.gc_15{
fill: none;
stroke: #695000;
stroke-width: 0.152;
stroke-linecap: round;
stroke-linejoin: round;
}
.gd_15{
fill: #F2FFFF;
}
.ge_15{
fill: #FFFFFF;
stroke: #000000;
stroke-width: 0.73;
stroke-linecap: butt;
stroke-linejoin: miter;
}
.gf_15{
fill: none;
stroke: #000000;
stroke-width: 3.47;
stroke-linecap: butt;
stroke-linejoin: miter;
}
.gg_15{
fill: none;
stroke: #CDCDB4;
stroke-width: 2.739;
stroke-linecap: butt;
stroke-linejoin: miter;
}
.gh_15{
fill: #7F7F7F;
}
]]></style>
</defs>
<path d="M116.9,159.9H792.5" class="g0_15"/>
<path d="M117.7,627.6V308.5H791.8V627.6Z" class="g1_15"/>
<path d="M117.7,627.6V308.5H791.8V627.6Z" class="g2_15"/>
<path d="M484.1,554.9h47.8" class="g4_15"/>
<g clip-path="url(#c2_15)">
<path clip-path="url(#c0_15)" d="M141.2,338.8c-3.2,0,-6.1,-1.3,-8.4,-3.5c-2.2,-2.2,-3.4,-5.2,-3.4,-8.3c0,-3.1,1.2,-6.1,3.4,-8.3c2.3,-2.2,5.2,-3.5,8.4,-3.5c3.1,0,6.1,1.3,8.3,3.5c4.6,4.6,4.6,12,0,16.6c-2.2,2.2,-5.2,3.5,-8.3,3.5Z" class="g3_15"/>
<path d="M141.2,317.3c-2.6,0,-5.1,1,-6.9,2.8c-3.8,3.8,-3.8,10,0,13.8c1.8,1.8,4.3,2.8,6.9,2.8c2.6,0,5,-1,6.9,-2.8c1.8,-1.9,2.8,-4.3,2.8,-6.9c0,-2.6,-1,-5,-2.9,-6.9c-1.8,-1.8,-4.2,-2.8,-6.8,-2.8Z" class="g1_15"/>
<path d="M124.4,346.1l-2.3,-2.4l8.6,-8.6l2.4,2.4Z" class="g3_15"/>
</g>
<path d="M152.7,343.2H374.5" class="g0_15"/>
<path d="M137.6,348.4V618.2" class="g5_15"/>
<path d="M117.7,852.1V666.6H791.8V852.1Z" class="g1_15"/>
<path d="M117.7,852.1V666.6H791.8V852.1Z" class="g2_15"/>
<g clip-path="url(#c3_15)">
<path clip-path="url(#c1_15)" d="M126.4,698.7c0,0,1.5,-.9,1.2,-1.2c-.1,-.2,-.3,-.1,-.6,-.1c-1.6,.3,-5,2.1,-3.3,4.1c1.4,1.6,6.4,2.4,11.7,1.4c7.3,-1.4,13.5,-5.4,11.1,-8.3c-1.6,-1.9,-6.7,-2.1,-10.8,-2.2c-2.1,0,-6.6,0,-8,-1.7c-.6,-.7,-.5,-1.6,.1,-2.2c1,-.8,3.8,-1.4,4,-1.4c.7,-.2,2.5,-.5,4.6,-.4c1.1,0,2.5,0,3.2,1c.3,.2,.4,.5,.4,.6c0,.1,0,.2,.1,.2c.1,.1,.4,.1,.5,.1c.5,-.1,1.5,-.5,2,-1c.3,-.3,.8,-.7,0,-1.6c-.9,-1,-2.3,-1.1,-4,-1.1c-2.3,-.1,-4.1,.3,-4.9,.4c-5.8,1.1,-11.1,4.6,-9,7.1c1.5,1.8,6.3,1.8,9,1.9c3.9,0,8.4,.3,9.8,2c.6,.6,.9,1.8,-.4,2.8c-1.2,.9,-4,1.7,-5.8,2.1c-4.4,.8,-9.4,.1,-10.6,-1.3c0,-.1,-.5,-.6,-.3,-1.2Z" class="g3_15"/>
<path d="M131.5,701.1l-.2,-.2l.3,-4.5c.3,-5.6,.3,-5.7,.5,-6c.1,-.2,1.6,-2.3,3.3,-4.6c1.7,-2.4,4.3,-6.1,5.9,-8.3c1.5,-2.1,2.8,-3.9,2.9,-3.9c.4,0,.1,.4,-1.8,3.2c-1.2,1.6,-3.7,5.2,-5.7,8c-2,2.9,-3.6,5.2,-3.6,5.3c0,0,.5,0,1,.1c2,.2,3.3,.6,4.5,1.2c.6,.3,1,.6,1.5,1.1c.8,.8,1.2,1.4,1.4,2.2c.1,.3,.2,.5,.2,.5c.1,0,.7,-.8,5.2,-7.6c2.4,-3.6,4.5,-6.7,4.6,-6.8c.2,-.2,.4,-.1,.2,.2c0,.1,-1.5,2.4,-3.2,5c-1.8,2.7,-3.8,5.7,-4.5,6.8c-1.5,2.4,-2.1,3.3,-2.3,3.8c-.2,.3,-.3,.4,-.9,.7c-.8,.4,-8.7,3.9,-8.9,4c-.1,0,-.3,0,-.4,-.2Z" class="g3_15"/>
<path d="M135.2,699.2c2.2,-1,4,-1.8,4.6,-2.1c.7,-.3,.7,-.4,.7,-1.4c-.2,-1.7,-1.4,-3,-3.6,-3.7c-1.2,-.4,-4.3,-.9,-4.4,-.7c0,.1,-.1,1.5,-.2,3.2c-.1,1.7,-.2,3.3,-.2,3.6c-.1,1.1,.1,1.4,-.2,2.5c.1,.1,1.8,-.8,1.8,-.8c.1,0,.7,-.3,1.5,-.6Z" class="g3_15"/>
<path d="M131.5,701.1l-.2,-.2l.3,-4.5c.3,-5.6,.3,-5.7,.5,-6c.1,-.2,1.6,-2.3,3.3,-4.6c1.7,-2.4,4.3,-6.1,5.9,-8.3c1.5,-2.1,2.8,-3.9,2.9,-3.9c.4,0,.1,.4,-1.8,3.2c-1.2,1.6,-3.7,5.2,-5.7,8c-2,2.9,-3.6,5.2,-3.6,5.3c0,0,.5,0,1,.1c2,.2,3.3,.6,4.5,1.2c.6,.3,1,.6,1.5,1.1c.8,.8,1.2,1.4,1.4,2.2c.1,.3,.2,.5,.2,.5c.1,0,.7,-.8,5.2,-7.6c2.4,-3.6,4.5,-6.7,4.6,-6.8c.2,-.2,.4,-.1,.2,.2c0,.1,-1.5,2.4,-3.2,5c-1.8,2.7,-3.8,5.7,-4.5,6.8c-1.5,2.4,-2.1,3.3,-2.3,3.8c-.2,.3,-.3,.4,-.9,.7c-.8,.4,-8.7,3.9,-8.9,4c-.1,0,-.3,0,-.4,-.2Zm3.7,-1.9c2.2,-1,4,-1.8,4.6,-2.1c.7,-.3,.7,-.4,.7,-1.4c-.2,-1.7,-1.4,-3,-3.6,-3.7c-1.2,-.4,-4.3,-.9,-4.4,-.7c0,.1,-.1,1.5,-.2,3.2c-.1,1.7,-.2,3.3,-.2,3.6c-.1,1.1,.1,1.4,-.2,2.5c.1,.1,1.8,-.8,1.8,-.8c.1,0,.7,-.3,1.5,-.6Z" class="g6_15"/>
<path d="M135.3,690.6l11.2,-16.1m-8.2,17.2L149,676" class="g7_15"/>
<path d="M140.4,693.4l10,-14.4l.2,-.4" class="g8_15"/>
<path d="M134.1,690.2c-.4,-.1,-.8,-.2,-.9,-.2c0,0,2.5,-3.7,6.7,-9.6c1.9,-2.7,3.6,-5.2,3.8,-5.5c.2,-.4,.4,-.6,.5,-.6c.1,0,.7,.4,.9,.7c.1,.3,.1,.5,-.1,1c-.2,.5,-9.8,14.3,-9.9,14.3c-.1,0,-.5,-.1,-1,-.1Z" class="g9_15"/>
<path d="M137.6,690.9c-.2,-.1,-.8,-.2,-1.2,-.3l-.7,-.2l.3,-.4c.1,-.2,2.3,-3.3,4.8,-7l4.7,-6.6l.5,-.3c.9,-.5,1.6,-.5,2.1,0l.3,.3l-5,7.4c-3,4.5,-5.1,7.4,-5.1,7.4c-.1,0,-.4,-.1,-.7,-.3Z" class="g9_15"/>
<path d="M140,692.4c-.2,-.3,-.6,-.6,-.8,-.7c-.2,-.1,-.3,-.3,-.3,-.3c0,-.1,9.4,-14,9.8,-14.6c.1,0,.5,.4,.8,.8c.3,.4,.3,.5,.4,1c0,.3,0,.6,-.1,.7c-.2,.3,-9.1,13.2,-9.2,13.3q-.2,.2,-.6,-.2Z" class="g9_15"/>
<path d="M141.6,695c0,-.1,-.1,-.3,-.1,-.5c-.1,-.3,-.3,-.7,-.4,-.9l-.3,-.4l4.7,-6.8c2.6,-3.7,4.8,-6.8,4.8,-6.8c.4,0,1,.7,1,1.2c0,.1,-.6,1.1,-1.9,3c-1.1,1.6,-3.1,4.7,-4.6,6.9c-3,4.3,-3.1,4.5,-3.2,4.3Z" class="g9_15"/>
<path d="M131.9,696.5c2.3,-.1,3.6,.7,4.1,2.3" class="ga_15"/>
<path d="M132,700.4c0,-.4,.1,-.4,.1,-1.3c0,-.8,0,-.9,0,-1.4c0,-.2,0,-.5,0,-.7l.1,-.2c.1,0,.6,0,.7,0c.4,.1,.8,.2,1.1,.3c.2,0,.5,.2,.6,.3c.2,.1,.3,.2,.4,.3c.3,.3,.4,.5,.6,.8c0,.1,.2,.4,.1,.4c0,0,-1.5,.7,-1.8,.8c-.1,0,-.2,.1,-.3,.1c-1.1,.6,-1.4,.8,-1.6,.8Z" class="g3_15"/>
<path d="M136.2,698.3c-.6,-1.2,-1.8,-2,-3.4,-2.1h-.6v-.5c.1,-.3,.1,-1.3,.2,-2.2c0,-1,.1,-1.8,.1,-2l.1,-.2l.7,.1c.8,0,2.3,.2,3.1,.5c1.7,.4,3.1,1.3,3.6,2.4c.4,.8,.6,2.1,.3,2.4c-.1,.2,-.8,.5,-2.5,1.3c-1.6,.7,-1.5,.7,-1.6,.3Z" class="gb_15"/>
<path d="M136.2,698.3c-.6,-1.2,-1.8,-2,-3.4,-2.1h-.6v-.5c.1,-.3,.1,-1.3,.2,-2.2c0,-1,.1,-1.8,.1,-2l.1,-.2l.7,.1c.8,0,2.3,.2,3.1,.5c1.7,.4,3.1,1.3,3.6,2.4c.4,.8,.6,2.1,.3,2.4c-.1,.2,-.8,.5,-2.5,1.3c-1.6,.7,-1.5,.7,-1.6,.3Z" class="gc_15"/>
</g>
<path d="M152.7,701.8H393.6" class="g0_15"/>
<path d="M137.6,707V842.7" class="g5_15"/>
<path d="M116.9,1138.2V895H792.5v243.2Z" class="g1_15"/>
<path d="M117.7,1138.2V895.7H791.8v242.5Z" class="gd_15"/>
<path d="M142.6,906.1c0,-3,-2.4,-5.5,-5.4,-5.5c-3.1,0,-5.5,2.5,-5.5,5.5c0,3,2.4,5.5,5.5,5.5c3,0,5.4,-2.5,5.4,-5.5Z" class="ge_15"/>
<path d="M137.2,906.1c6.4,1.5,5.4,3.8,-2.3,5.1c-7.7,1.3,-19.2,1.1,-25.7,-.4c-4.2,-1,-5.4,-2.4,-3.2,-3.6c1.8,-1,5.8,-1.8,10.9,-2.2" class="gf_15"/>
<path d="M137.2,906.1c6.4,1.5,5.4,3.8,-2.3,5.1c-7.7,1.3,-19.2,1.1,-25.7,-.4c-4.2,-1,-5.4,-2.4,-3.2,-3.6c1.8,-1,5.8,-1.8,10.9,-2.2" class="gg_15"/>
<path d="M142.6,930.3c0,-3.1,-2.4,-5.5,-5.4,-5.5c-3.1,0,-5.5,2.4,-5.5,5.5c0,3,2.4,5.4,5.5,5.4c3,0,5.4,-2.4,5.4,-5.4Z" class="ge_15"/>
<path d="M137.2,930.3c6.4,1.5,5.4,3.8,-2.3,5.1c-7.7,1.3,-19.2,1.1,-25.7,-.4c-4.2,-1,-5.4,-2.4,-3.2,-3.6c1.8,-1.1,5.8,-1.9,10.9,-2.2" class="gf_15"/>
<path d="M137.2,930.3c6.4,1.5,5.4,3.8,-2.3,5.1c-7.7,1.3,-19.2,1.1,-25.7,-.4c-4.2,-1,-5.4,-2.4,-3.2,-3.6c1.8,-1.1,5.8,-1.9,10.9,-2.2" class="gg_15"/>
<path d="M142.6,954.4c0,-3,-2.4,-5.4,-5.4,-5.4c-3.1,0,-5.5,2.4,-5.5,5.4c0,3.1,2.4,5.5,5.5,5.5c3,0,5.4,-2.4,5.4,-5.5Z" class="ge_15"/>
<path d="M137.2,954.4c6.4,1.6,5.4,3.9,-2.3,5.2c-7.7,1.3,-19.2,1.1,-25.7,-.5c-4.2,-1,-5.4,-2.3,-3.2,-3.6c1.8,-1,5.8,-1.8,10.9,-2.2" class="gf_15"/>
<path d="M137.2,954.4c6.4,1.6,5.4,3.9,-2.3,5.2c-7.7,1.3,-19.2,1.1,-25.7,-.5c-4.2,-1,-5.4,-2.3,-3.2,-3.6c1.8,-1,5.8,-1.8,10.9,-2.2" class="gg_15"/>
<path d="M142.6,978.6c0,-3,-2.4,-5.5,-5.4,-5.5c-3.1,0,-5.5,2.5,-5.5,5.5c0,3,2.4,5.5,5.5,5.5c3,0,5.4,-2.5,5.4,-5.5Z" class="ge_15"/>
<path d="M137.2,978.6c6.4,1.6,5.4,3.9,-2.3,5.2c-7.7,1.2,-19.2,1,-25.7,-.5c-4.2,-1,-5.4,-2.4,-3.2,-3.6c1.8,-1,5.8,-1.8,10.9,-2.2" class="gf_15"/>
<path d="M137.2,978.6c6.4,1.6,5.4,3.9,-2.3,5.2c-7.7,1.2,-19.2,1,-25.7,-.5c-4.2,-1,-5.4,-2.4,-3.2,-3.6c1.8,-1,5.8,-1.8,10.9,-2.2" class="gg_15"/>
<path d="M142.6,1002.8c0,-3,-2.4,-5.5,-5.4,-5.5c-3.1,0,-5.5,2.5,-5.5,5.5c0,3,2.4,5.5,5.5,5.5c3,0,5.4,-2.5,5.4,-5.5Z" class="ge_15"/>
<path d="M137.2,1002.8c6.4,1.5,5.4,3.8,-2.3,5.1c-7.7,1.3,-19.2,1.1,-25.7,-.4c-4.2,-1,-5.4,-2.4,-3.2,-3.6c1.8,-1,5.8,-1.8,10.9,-2.2" class="gf_15"/>
<path d="M137.2,1002.8c6.4,1.5,5.4,3.8,-2.3,5.1c-7.7,1.3,-19.2,1.1,-25.7,-.4c-4.2,-1,-5.4,-2.4,-3.2,-3.6c1.8,-1,5.8,-1.8,10.9,-2.2" class="gg_15"/>
<path d="M142.6,1027c0,-3.1,-2.4,-5.5,-5.4,-5.5c-3.1,0,-5.5,2.4,-5.5,5.5c0,3,2.4,5.4,5.5,5.4c3,0,5.4,-2.4,5.4,-5.4Z" class="ge_15"/>
<path d="M137.2,1027c6.4,1.5,5.4,3.8,-2.3,5.1c-7.7,1.3,-19.2,1.1,-25.7,-.4c-4.2,-1,-5.4,-2.4,-3.2,-3.6c1.8,-1.1,5.8,-1.9,10.9,-2.2" class="gf_15"/>
<path d="M137.2,1027c6.4,1.5,5.4,3.8,-2.3,5.1c-7.7,1.3,-19.2,1.1,-25.7,-.4c-4.2,-1,-5.4,-2.4,-3.2,-3.6c1.8,-1.1,5.8,-1.9,10.9,-2.2" class="gg_15"/>
<path d="M142.6,1051.1c0,-3,-2.4,-5.4,-5.4,-5.4c-3.1,0,-5.5,2.4,-5.5,5.4c0,3.1,2.4,5.5,5.5,5.5c3,0,5.4,-2.4,5.4,-5.5Z" class="ge_15"/>
<path d="M137.2,1051.1c6.4,1.6,5.4,3.9,-2.3,5.2c-7.7,1.3,-19.2,1.1,-25.7,-.5c-4.2,-1,-5.4,-2.3,-3.2,-3.6c1.8,-1,5.8,-1.8,10.9,-2.2" class="gf_15"/>
<path d="M137.2,1051.1c6.4,1.6,5.4,3.9,-2.3,5.2c-7.7,1.3,-19.2,1.1,-25.7,-.5c-4.2,-1,-5.4,-2.3,-3.2,-3.6c1.8,-1,5.8,-1.8,10.9,-2.2" class="gg_15"/>
<path d="M142.6,1075.3c0,-3,-2.4,-5.5,-5.4,-5.5c-3.1,0,-5.5,2.5,-5.5,5.5c0,3,2.4,5.5,5.5,5.5c3,0,5.4,-2.5,5.4,-5.5Z" class="ge_15"/>
<path d="M137.2,1075.3c6.4,1.6,5.4,3.9,-2.3,5.2c-7.7,1.3,-19.2,1.1,-25.7,-.5c-4.2,-1,-5.4,-2.4,-3.2,-3.6c1.8,-1,5.8,-1.8,10.9,-2.2" class="gf_15"/>
<path d="M137.2,1075.3c6.4,1.6,5.4,3.9,-2.3,5.2c-7.7,1.3,-19.2,1.1,-25.7,-.5c-4.2,-1,-5.4,-2.4,-3.2,-3.6c1.8,-1,5.8,-1.8,10.9,-2.2" class="gg_15"/>
<path d="M142.6,1099.5c0,-3,-2.4,-5.5,-5.4,-5.5c-3.1,0,-5.5,2.5,-5.5,5.5c0,3,2.4,5.5,5.5,5.5c3,0,5.4,-2.5,5.4,-5.5Z" class="ge_15"/>
<path d="M137.2,1099.5c6.4,1.5,5.4,3.8,-2.3,5.1c-7.7,1.3,-19.2,1.1,-25.7,-.4c-4.2,-1,-5.4,-2.4,-3.2,-3.6c1.8,-1,5.8,-1.8,10.9,-2.2" class="gf_15"/>
<path d="M137.2,1099.5c6.4,1.5,5.4,3.8,-2.3,5.1c-7.7,1.3,-19.2,1.1,-25.7,-.4c-4.2,-1,-5.4,-2.4,-3.2,-3.6c1.8,-1,5.8,-1.8,10.9,-2.2" class="gg_15"/>
<path d="M142.6,1123.7c0,-3.1,-2.4,-5.5,-5.4,-5.5c-3.1,0,-5.5,2.4,-5.5,5.5c0,3,2.4,5.4,5.5,5.4c3,0,5.4,-2.4,5.4,-5.4Z" class="ge_15"/>
<path d="M137.2,1123.7c6.4,1.5,5.4,3.8,-2.3,5.1c-7.7,1.3,-19.2,1.1,-25.7,-.4c-4.2,-1,-5.4,-2.4,-3.2,-3.6c1.8,-1.1,5.8,-1.9,10.9,-2.2" class="gf_15"/>
<path d="M137.2,1123.7c6.4,1.5,5.4,3.8,-2.3,5.1c-7.7,1.3,-19.2,1.1,-25.7,-.4c-4.2,-1,-5.4,-2.4,-3.2,-3.6c1.8,-1.1,5.8,-1.9,10.9,-2.2" class="gg_15"/>
<path d="M168.9,926.7v-7.6c0,-4.3,3.5,-7.8,7.8,-7.8h56.7c4.3,0,7.8,3.5,7.8,7.8v7.6c0,4.3,-3.5,7.7,-7.8,7.7H176.7c-4.3,0,-7.8,-3.4,-7.8,-7.7Z" class="g1_15"/>
<path d="M171.5,926.7v-7.6c0,-2.9,2.3,-5.2,5.2,-5.2h56.7c2.9,0,5.2,2.3,5.2,5.2v7.6c0,2.8,-2.3,5.1,-5.2,5.1H176.7c-2.9,0,-5.2,-2.3,-5.2,-5.1Z" class="g1_15"/>
<path d="M243.8,908.7h-5.2v5.2h5.2Z" class="gh_15"/>
<path d="M171.5,908.7h-5.2v5.2h5.2Z" class="gh_15"/>
<path d="M171.5,931.8h-5.2V937h5.2Z" class="gh_15"/>
<path d="M243.8,931.8h-5.2V937h5.2Z" class="gh_15"/>
<path d="M174.1,911.3H236m-61.9,23.1H236" class="g0_15"/>
</svg>