<?xml version="1.0" encoding="UTF-8" standalone="no"?>
<!DOCTYPE svg PUBLIC "-//W3C//DTD SVG 1.1//EN"
"http://www.w3.org/Graphics/SVG/1.1/DTD/svg11.dtd">
<svg viewBox="0 0 909 1286" version="1.1" xmlns="http://www.w3.org/2000/svg" xmlns:xlink="http://www.w3.org/1999/xlink">
<defs>
<clipPath id="c0_71"><path d="M119.5,215.6V182.1H789.9v33.5Z"/></clipPath>
<style type="text/css"><![CDATA[
.g0_71{
fill: none;
stroke: #000000;
stroke-width: 0.73;
stroke-linecap: butt;
stroke-linejoin: miter;
}
.g1_71{
fill: #7F7F7F;
fill-opacity: 0.01;
}
.g2_71{
fill: #7F7F7F;
fill-opacity: 0.02;
}
.g3_71{
fill: #7F7F7F;
fill-opacity: 0.04;
}
.g4_71{
fill: #7F7F7F;
fill-opacity: 0.07;
}
.g5_71{
fill: #7F7F7F;
fill-opacity: 0.11;
}
.g6_71{
fill: #FFFFFF;
}
.g7_71{
fill: #7F7F7F;
}
.g8_71{
fill: #EC008C;
}
.g9_71{
fill: #CBCEFB;
}
.ga_71{
fill: #FFFEF5;
}
.gb_71{
fill: none;
stroke: #D6C944;
stroke-width: 0.365;
stroke-linecap: butt;
stroke-linejoin: miter;
}
.gc_71{
fill: #E81A58;
}
.gd_71{
fill: #401A1A;
}
]]></style>
</defs>
<path d="M116.9,159.9H792.5" class="g0_71"/>
<path d="M122.2,184.8c221.7,0,443.4,0,665,0v258c-221.6,-9.4,-443.3,-9.4,-665,0Z" class="g1_71"/>
<path d="M122.9,185.4c221.2,0,442.4,0,663.7,0V442.2c-221.3,-9.4,-442.5,-9.4,-663.7,0Z" class="g2_71"/>
<path d="M123.5,186.1c220.8,0,441.6,0,662.5,0V441.5c-220.9,-9.3,-441.7,-9.3,-662.5,0Z" class="g3_71"/>
<path d="M124.1,186.7c220.4,0,440.8,0,661.2,0V440.9c-220.4,-9.3,-440.8,-9.3,-661.2,0Z" class="g4_71"/>
<path d="M124.7,187.3c220,0,440,0,660,0v253c-220,-9.4,-440,-9.4,-660,0Z" class="g5_71"/>
<path d="M125.4,187.9c219.5,0,439.1,0,658.7,0V439.7c-219.6,-9.4,-439.2,-9.4,-658.7,0Z" class="g5_71"/>
<path d="M126,188.6c219.1,0,438.3,0,657.5,0V439C564.3,429.7,345.1,429.7,126,439Z" class="g4_71"/>
<path d="M126.6,189.2c218.8,0,437.5,0,656.3,0V438.4c-218.8,-9.3,-437.5,-9.3,-656.3,0Z" class="g3_71"/>
<path d="M127.2,189.8c218.4,0,436.7,0,655,0v248c-218.3,-9.4,-436.6,-9.4,-655,0Z" class="g2_71"/>
<path d="M127.9,190.4c217.9,0,435.8,0,653.7,0V437.2c-217.9,-9.4,-435.8,-9.4,-653.7,0Z" class="g1_71"/>
<path d="M116.9,432.5v-253H792.5v253Z" class="g6_71"/>
<path d="M119.5,429.9V218.2H789.9V429.9Z" class="g6_71"/>
<path d="M119.5,215.6V182.1H789.9v33.5Z" class="g7_71"/>
<g clip-path="url(#c0_71)">
<image x="119" y="181" width="672" height="34" xlink:href="shade/1.png"/>
</g>
<path d="M675.7,210.5h88.2V187.3H675.7v23.2Z" class="g8_71"/>
<path d="M382.4,234.2H527M382.8,263.8V234.6" class="g0_71"/>
<path d="M383.1,263.8h72.6V234.6H383.1v29.2Z" class="g9_71"/>
<path d="M456.1,263.8V234.6" class="g0_71"/>
<path d="M456.5,263.8h69.8V234.6H456.5v29.2Z" class="g9_71"/>
<path d="M526.7,263.8V234.6M382.4,264.2H527M382.8,293.7V264.5m73.3,29.2V264.5m70.6,29.2V264.5M382.4,294.1H527M382.8,323.7V294.5m73.3,29.2V294.5m70.6,29.2V294.5M382.4,324.1H527M382.8,353.7V324.4m73.3,29.3V324.4m70.6,29.3V324.4M382.4,354H527M382.8,383.6V354.4m73.3,29.2V354.4m70.6,29.2V354.4M382.4,384H527M382.8,413.6V384.3m73.3,29.3V384.3m70.6,29.3V384.3M382.4,413.9H527" class="g0_71"/>
<path d="M-2.9,585.6V520.2H912.4v65.4Z" class="g6_71"/>
<path d="M-.3,583V522.8H909.8V583Z" class="ga_71"/>
<path d="M-.3,574.7H909.8M-.3,548.7H909.8M-.3,522.8H909.8M-.3,583V522.8M25.6,583V522.8m26,60.2V522.8m26,60.2V522.8m26,60.2V522.8m26,60.2V522.8M155.5,583V522.8m26,60.2V522.8m26,60.2V522.8m26,60.2V522.8m26,60.2V522.8m26,60.2V522.8M311.4,583V522.8m26,60.2V522.8m26,60.2V522.8m26,60.2V522.8m26,60.2V522.8m26,60.2V522.8m26,60.2V522.8M493.3,583V522.8m26,60.2V522.8m26,60.2V522.8m26,60.2V522.8m26,60.2V522.8m26,60.2V522.8M649.2,583V522.8m26,60.2V522.8m26,60.2V522.8m26,60.2V522.8m26,60.2V522.8m26,60.2V522.8M805.1,583V522.8m26,60.2V522.8m26,60.2V522.8m26,60.2V522.8m26,60.2V522.8" class="gb_71"/>
<path d="M116.9,1031.8V741.7c0,-21.7,17.6,-39.2,39.2,-39.2H792.5V992.7c0,21.6,-17.5,39.1,-39.1,39.1Z" class="gc_71"/>
<path d="M119.5,1029.2V735H789.9V992.7c0,20.1,-16.3,36.5,-36.5,36.5Z" class="gd_71"/>
</svg>