<?xml version="1.0" encoding="UTF-8" standalone="no"?>
<!DOCTYPE svg PUBLIC "-//W3C//DTD SVG 1.1//EN"
"http://www.w3.org/Graphics/SVG/1.1/DTD/svg11.dtd">
<svg viewBox="0 0 1286 909" version="1.1" xmlns="http://www.w3.org/2000/svg" xmlns:xlink="http://www.w3.org/1999/xlink">
<defs>
<style type="text/css"><![CDATA[
.g0_233{
fill: none;
stroke: #000000;
stroke-width: 0.73;
stroke-linecap: butt;
stroke-linejoin: miter;
}
.g1_233{
fill: #B3E9FA;
}
.g2_233{
fill: none;
stroke: #02B5EE;
stroke-width: 1.262;
stroke-linecap: butt;
stroke-linejoin: miter;
}
.g3_233{
fill: none;
stroke: #5EE200;
stroke-width: 1.262;
stroke-linecap: butt;
stroke-linejoin: miter;
}
]]></style>
</defs>
<path d="M193,83.4h900.3M193,210.6H724.5m-531.5,0H724.5M483,240.2V211m0,58.5V240.2m0,114.3v-85" class="g0_233"/>
<path d="M496.5,304.7V292.5c0,-2.9,2.3,-5.2,5.2,-5.2h79.2c2.9,0,5.2,2.3,5.2,5.2v12.2c0,2.9,-2.3,5.2,-5.2,5.2H501.7c-2.9,0,-5.2,-2.3,-5.2,-5.2Z" class="g1_233"/>
<path d="M493.9,330.5h94.8" class="g2_233"/>
<path d="M599.2,330.5H713.6" class="g3_233"/>
<path d="M483,383.7V354.5M193,384.1H724.5m-531.5,0H724.5" class="g0_233"/>
</svg>