<?xml version="1.0" encoding="UTF-8" standalone="no"?>
<!DOCTYPE svg PUBLIC "-//W3C//DTD SVG 1.1//EN"
"http://www.w3.org/Graphics/SVG/1.1/DTD/svg11.dtd">
<svg viewBox="0 0 1286 909" version="1.1" xmlns="http://www.w3.org/2000/svg" xmlns:xlink="http://www.w3.org/1999/xlink">
<defs>
<style type="text/css"><![CDATA[
.g0_298{
fill: none;
stroke: #000000;
stroke-width: 0.73;
stroke-linecap: butt;
stroke-linejoin: miter;
}
.g1_298{
fill: none;
stroke: #02B5EE;
stroke-width: 1.262;
stroke-linecap: butt;
stroke-linejoin: miter;
}
.g2_298{
fill: none;
stroke: #5EE200;
stroke-width: 1.262;
stroke-linecap: butt;
stroke-linejoin: miter;
}
.g3_298{
fill: none;
stroke: #5EE200;
stroke-width: 0.73;
stroke-linecap: butt;
stroke-linejoin: miter;
}
.g4_298{
fill: none;
stroke: #02B5EE;
stroke-width: 0.73;
stroke-linecap: butt;
stroke-linejoin: miter;
}
]]></style>
</defs>
<path d="M193,83.4h900.3M193,210.6H959.7m-766.7,0H959.7M454.6,240.2V211m0,58.5V240.2m0,114.3v-85" class="g0_298"/>
<path d="M736.3,330.5h81.1" class="g1_298"/>
<path d="M827.9,330.5h48.3" class="g2_298"/>
<path d="M454.6,383.7V354.5m0,102.3V383.7" class="g0_298"/>
<path d="M763,442.9H881.2" class="g3_298"/>
<path d="M881.2,442.9h67.6" class="g4_298"/>
<path d="M454.6,486V456.8m0,58.4V486m0,114.2v-85" class="g0_298"/>
<path d="M793.2,576.2h53.2" class="g1_298"/>
<path d="M856.9,576.2h91.9" class="g2_298"/>
<path d="M454.6,629.5V600.2m0,102.3v-73" class="g0_298"/>
<path d="M813,688.6h68.2" class="g3_298"/>
<path d="M881.2,688.6h67.6" class="g4_298"/>
<path d="M454.6,731.7V702.5M193,732.1H959.7m-766.7,0H959.7" class="g0_298"/>
</svg>