<?xml version="1.0" encoding="UTF-8" standalone="no"?>
<!DOCTYPE svg PUBLIC "-//W3C//DTD SVG 1.1//EN"
"http://www.w3.org/Graphics/SVG/1.1/DTD/svg11.dtd">
<svg viewBox="0 0 1286 909" version="1.1" xmlns="http://www.w3.org/2000/svg" xmlns:xlink="http://www.w3.org/1999/xlink">
<defs>
<style type="text/css"><![CDATA[
.g0_1206{
fill: none;
stroke: #000000;
stroke-width: 0.73;
stroke-linecap: butt;
stroke-linejoin: miter;
}
.g1_1206{
fill: #FDE8E9;
}
]]></style>
</defs>
<path d="M193,83.4h900.3M210,109.5H530.7M210,139.1V109.9m167.8,29.2V109.9m152.9,29.2V109.9M210,171.8V139.1m167.8,32.7V139.1" class="g0_1206"/>
<path d="M388.8,168.5h87.1V139.1H388.8v29.4Z" class="g1_1206"/>
<path d="M530.7,171.8V139.1M210,201V171.8M377.8,201V171.8M530.7,201V171.8M210,230.2V201m167.8,29.2V201m152.9,29.2V201M210,262.9V230.2m167.8,32.7V230.2" class="g0_1206"/>
<path d="M388.8,259.6H514.3V230.2H388.8v29.4Z" class="g1_1206"/>
<path d="M530.7,262.9V230.2M210,292.1V262.9m167.8,29.2V262.9m152.9,29.2V262.9M210,321.3V292.1m167.8,29.2V292.1m152.9,29.2V292.1M210,353.9V321.3m167.8,32.6V321.3" class="g0_1206"/>
<path d="M388.8,350.7h78.8V321.3H388.8v29.4Z" class="g1_1206"/>
<path d="M530.7,353.9V321.3M210,383.2V353.9m167.8,29.3V353.9m152.9,29.3V353.9M210,412.4V383.2m167.8,29.2V383.2m152.9,29.2V383.2M210,445V412.4M377.8,445V412.4" class="g0_1206"/>
<path d="M388.8,441.7H509.4V412.4H388.8v29.3Z" class="g1_1206"/>
<path d="M530.7,445V412.4M210,474.3V445m167.8,29.3V445m152.9,29.3V445M210,503.5V474.3m167.8,29.2V474.3m152.9,29.2V474.3M210,536.1V503.5m167.8,32.6V503.5" class="g0_1206"/>
<path d="M388.8,532.8H519.7V503.5H388.8v29.3Z" class="g1_1206"/>
<path d="M530.7,536.1V503.5M210,565.4V536.1m167.8,29.3V536.1m152.9,29.3V536.1M210,594.6V565.4m167.8,29.2V565.4m152.9,29.2V565.4M210,629.2V594.6m167.8,34.6V594.6" class="g0_1206"/>
<path d="M388.8,629.2h76.9V594.6H388.8v34.6Z" class="g1_1206"/>
<path d="M530.7,629.2V594.6M210,658.4V629.2m167.8,29.2V629.2m152.9,29.2V629.2M210,687.6V658.4m167.8,29.2V658.4m152.9,29.2V658.4M210,720.3V687.6m167.8,32.7V687.6" class="g0_1206"/>
<path d="M388.8,717h66.9V687.6H388.8V717Z" class="g1_1206"/>
<path d="M530.7,720.3V687.6M210,749.5V720.3m167.8,29.2V720.3m152.9,29.2V720.3m21.9,-566H921.5M552.6,183.9V154.7m216.5,29.2V154.7m152.4,29.2V154.7M552.6,216.6V183.9m216.5,32.7V183.9" class="g0_1206"/>
<path d="M780,213.3h92.3V183.9H780v29.4Z" class="g1_1206"/>
<path d="M921.5,216.6V183.9M552.6,245.8V216.6m216.5,29.2V216.6m152.4,29.2V216.6M552.6,246.2H921.5M552.6,275.8V246.5m216.5,29.3V246.5m152.4,29.3V246.5M552.6,310.4V275.8m216.5,34.6V275.8" class="g0_1206"/>
<path d="M780,310.4H910.6V275.8H780v34.6Z" class="g1_1206"/>
<path d="M921.5,310.4V275.8M552.6,339.6V310.4m216.5,29.2V310.4m152.4,29.2V310.4M552.6,368.8V339.6m216.5,29.2V339.6m152.4,29.2V339.6M552.6,401.5V368.8m216.5,32.7V368.8" class="g0_1206"/>
<path d="M780,398.2h93.5V368.8H780v29.4Z" class="g1_1206"/>
<path d="M921.5,401.5V368.8M552.6,430.7V401.5m216.5,29.2V401.5m152.4,29.2V401.5M552.6,459.9V430.7m216.5,29.2V430.7m152.4,29.2V430.7M552.6,492.6V459.9m216.5,32.7V459.9" class="g0_1206"/>
<path d="M780,489.3h80.1V459.9H780v29.4Z" class="g1_1206"/>
<path d="M921.5,492.6V459.9M552.6,521.8V492.6m216.5,29.2V492.6m152.4,29.2V492.6M552.6,551V521.8M769.1,551V521.8M921.5,551V521.8M552.6,583.6V551m216.5,32.6V551" class="g0_1206"/>
<path d="M780,580.4h93.9V551H780v29.4Z" class="g1_1206"/>
<path d="M921.5,583.6V551M552.6,612.9V583.6m216.5,29.3V583.6m152.4,29.3V583.6M552.6,642.1V612.9m216.5,29.2V612.9m152.4,29.2V612.9M552.6,674.7V642.1m216.5,32.6V642.1" class="g0_1206"/>
<path d="M780,671.5H899V642.1H780v29.4Z" class="g1_1206"/>
<path d="M921.5,674.7V642.1M552.6,704V674.7M769.1,704V674.7M921.5,704V674.7M552.6,704.3H921.5" class="g0_1206"/>
</svg>