<?xml version="1.0" encoding="UTF-8" standalone="no"?>
<!DOCTYPE svg PUBLIC "-//W3C//DTD SVG 1.1//EN"
"http://www.w3.org/Graphics/SVG/1.1/DTD/svg11.dtd">
<svg viewBox="0 0 1286 909" version="1.1" xmlns="http://www.w3.org/2000/svg" xmlns:xlink="http://www.w3.org/1999/xlink">
<defs>
<style type="text/css"><![CDATA[
.g0_1046{
fill: none;
stroke: #000000;
stroke-width: 0.73;
stroke-linecap: butt;
stroke-linejoin: miter;
}
.g1_1046{
fill: none;
stroke: #5EE200;
stroke-width: 0.73;
stroke-linecap: butt;
stroke-linejoin: miter;
}
.g2_1046{
fill: none;
stroke: #FFA313;
stroke-width: 0.73;
stroke-linecap: butt;
stroke-linejoin: miter;
}
.g3_1046{
fill: none;
stroke: #02B5EE;
stroke-width: 0.73;
stroke-linecap: butt;
stroke-linejoin: miter;
}
.g4_1046{
fill: #E6CEEE;
}
.g5_1046{
fill: none;
stroke: #F81693;
stroke-width: 1.461;
stroke-linecap: butt;
stroke-linejoin: miter;
}
.g6_1046{
fill: #F81693;
}
.g7_1046{
fill: #FFE6E6;
}
.g8_1046{
fill: none;
stroke: #8007AC;
stroke-width: 1.461;
stroke-linecap: butt;
stroke-linejoin: miter;
}
.g9_1046{
fill: none;
stroke: #F81693;
stroke-width: 1.461;
stroke-linecap: butt;
stroke-linejoin: miter;
stroke-dasharray: 2,2;
}
]]></style>
</defs>
<path d="M193,83.4h900.3M193,111.6H969.6m-776.6,0H969.6M542.5,141.2V112m0,58.5V141.2m0,102.3v-73" class="g0_1046"/>
<path d="M652.1,229.6h50.7" class="g1_1046"/>
<path d="M702.8,229.6H804.1" class="g2_1046"/>
<path d="M804.1,229.6h50.7" class="g3_1046"/>
<path d="M871.7,219.8h87V186.9h-87v32.9Z" class="g4_1046"/>
<path d="M542.5,272.7V243.5m0,58.5V272.7m0,58.5V302m0,80.8V331.2" class="g0_1046"/>
<path d="M668.4,327.5c1.7,-3.3,5.5,-5.4,11,-5.4h62.3c5.5,0,9.3,-2.2,11,-5.5c1.6,3.3,5.4,5.5,10.9,5.5h62.3c5.5,0,9.3,2.1,11,5.4" class="g5_1046"/>
<path d="M668.4,375V339c0,-4.3,3.5,-7.8,7.8,-7.8H829.1c4.3,0,7.8,3.5,7.8,7.8v36c0,4.3,-3.5,7.8,-7.8,7.8H676.2c-4.3,0,-7.8,-3.5,-7.8,-7.8Z" class="g6_1046"/>
<path d="M671,375V339c0,-2.9,2.4,-5.2,5.2,-5.2H829.1c2.9,0,5.2,2.3,5.2,5.2v36c0,2.8,-2.3,5.2,-5.2,5.2H676.2c-2.8,0,-5.2,-2.4,-5.2,-5.2Z" class="g7_1046"/>
<path d="M847.4,375c1.4,0,2.1,-2.8,3.4,-2.8c1,0,1.9,1.4,2.8,2.8c.8,1.3,1.7,2.7,2.7,2.7c1,0,1.9,-1.4,2.7,-2.7c.9,-1.4,1.8,-2.8,2.8,-2.8c1,0,1.8,1.4,2.7,2.8c.9,1.3,1.8,2.7,2.8,2.7c1,0,1.8,-1.4,2.7,-2.7c.9,-1.4,1.7,-2.8,2.7,-2.8c1,0,1.9,1.4,2.8,2.8c.9,1.3,1.7,2.7,2.7,2.7c1,0,1.9,-1.4,2.8,-2.7c.8,-1.4,1.7,-2.8,2.7,-2.8c1,0,1.9,1.4,2.7,2.8c.9,1.3,1.8,2.7,2.8,2.7c1,0,1.8,-1.4,2.7,-2.7c.9,-1.4,1.8,-2.8,2.8,-2.8c1,0,1.8,1.4,2.7,2.8c.9,1.3,1.7,2.7,2.7,2.7c1,0,1.9,-1.4,2.8,-2.7c.9,-1.4,1.7,-2.8,2.7,-2.8c1,0,1.9,1.4,2.8,2.8c.8,1.3,1.7,2.7,2.7,2.7c1,0,1.9,-1.4,2.7,-2.7c.9,-1.4,1.8,-2.8,2.8,-2.8c1,0,1.8,1.4,2.7,2.8c.9,1.3,1.8,2.7,2.8,2.7c1.3,0,2,-2.7,3.4,-2.7h.2" class="g8_1046"/>
<path d="M542.5,412.9V382.8m0,59.4V412.9m0,58.5V442.2m0,58.4V471.4m0,80.8V500.6" class="g0_1046"/>
<path d="M693.6,497c1.6,-3.3,5.4,-5.5,10.9,-5.5h62.3c5.5,0,9.3,-2.2,11,-5.5c1.6,3.3,5.5,5.5,10.9,5.5h62.4c5.4,0,9.3,2.2,10.9,5.5" class="g5_1046"/>
<path d="M693.6,544.4v-36c0,-4.3,3.4,-7.8,7.8,-7.8H854.2c4.3,0,7.8,3.5,7.8,7.8v36c0,4.3,-3.5,7.8,-7.8,7.8H701.4c-4.4,0,-7.8,-3.5,-7.8,-7.8Z" class="g6_1046"/>
<path d="M696.2,544.4v-36c0,-2.9,2.3,-5.2,5.2,-5.2H854.2c2.9,0,5.2,2.3,5.2,5.2v36c0,2.9,-2.3,5.2,-5.2,5.2H701.4c-2.9,0,-5.2,-2.3,-5.2,-5.2Z" class="g7_1046"/>
<path d="M872.5,544.4c1.4,0,2.1,-2.7,3.4,-2.7c1,0,1.9,1.3,2.8,2.7c.9,1.4,1.7,2.7,2.7,2.7c1,0,1.9,-1.3,2.8,-2.7c.8,-1.4,1.7,-2.7,2.7,-2.7c1,0,1.9,1.3,2.7,2.7c.9,1.4,1.8,2.7,2.8,2.7c1,0,1.9,-1.3,2.7,-2.7c.9,-1.4,1.8,-2.7,2.8,-2.7c1,0,1.8,1.3,2.7,2.7c.9,1.4,1.7,2.7,2.7,2.7c1,0,1.9,-1.3,2.8,-2.7c.9,-1.4,1.7,-2.7,2.7,-2.7c1,0,1.9,1.3,2.8,2.7c.8,1.4,1.7,2.7,2.7,2.7c1,0,1.9,-1.3,2.7,-2.7c.9,-1.4,1.8,-2.7,2.8,-2.7c1.4,0,2,2.7,3.4,2.7h2.5" class="g8_1046"/>
<path d="M542.5,582.4V552.2m0,59.4V582.4m0,58.4V611.6m0,77.3V640.8" class="g0_1046"/>
<path d="M746.8,678.6h50.5" class="g9_1046"/>
<path d="M811.5,681.1V648.6c0,-4.3,3.5,-7.8,7.8,-7.8h63.2c4.3,0,7.8,3.5,7.8,7.8v32.5c0,4.3,-3.5,7.8,-7.8,7.8H819.3c-4.3,0,-7.8,-3.5,-7.8,-7.8Z" class="g6_1046"/>
<path d="M814.1,681.1V648.6c0,-2.9,2.3,-5.2,5.2,-5.2h63.2c2.8,0,5.2,2.3,5.2,5.2v32.5c0,2.8,-2.4,5.2,-5.2,5.2H819.3c-2.9,0,-5.2,-2.4,-5.2,-5.2Z" class="g7_1046"/>
<path d="M904.4,678.6H955" class="g9_1046"/>
<path d="M542.5,718.1V688.9m0,58.4V718.1M193,747.7H969.6m-776.6,0H969.6" class="g0_1046"/>
</svg>