<?xml version="1.0" encoding="UTF-8" standalone="no"?>
<!DOCTYPE svg PUBLIC "-//W3C//DTD SVG 1.1//EN"
"http://www.w3.org/Graphics/SVG/1.1/DTD/svg11.dtd">
<svg viewBox="0 0 909 1286" version="1.1" xmlns="http://www.w3.org/2000/svg" xmlns:xlink="http://www.w3.org/1999/xlink">
<defs>
<style type="text/css"><![CDATA[
.g0_20{
fill: none;
stroke: #000000;
stroke-width: 0.73;
stroke-linecap: butt;
stroke-linejoin: miter;
}
.g1_20{
fill: none;
stroke: #02B5EE;
stroke-width: 0.73;
stroke-linecap: butt;
stroke-linejoin: miter;
}
.g2_20{
fill: none;
stroke: #8007AC;
stroke-width: 0.73;
stroke-linecap: butt;
stroke-linejoin: miter;
}
.g3_20{
fill: none;
stroke: #F81693;
stroke-width: 0.73;
stroke-linecap: butt;
stroke-linejoin: miter;
}
.g4_20{
fill: none;
stroke: #8007AC;
stroke-width: 1.461;
stroke-linecap: butt;
stroke-linejoin: miter;
}
.g5_20{
fill: none;
stroke: #02B5EE;
stroke-width: 1.461;
stroke-linecap: butt;
stroke-linejoin: miter;
}
.g6_20{
fill: none;
stroke: #FFA313;
stroke-width: 0.73;
stroke-linecap: butt;
stroke-linejoin: miter;
}
.g7_20{
fill: none;
stroke: #7F7F7F;
stroke-width: 0.73;
stroke-linecap: butt;
stroke-linejoin: miter;
}
.g8_20{
fill: none;
stroke: #FFA313;
stroke-width: 1.461;
stroke-linecap: butt;
stroke-linejoin: miter;
}
]]></style>
</defs>
<path d="M116.9,179.9H834.2M426,209.5V180.3M228.7,278.7L260,297.3m0,36.8V297.5m-31.3,55.4L260,334.2m-31.3,18.7L197.5,334.2m0,-.1V297.5m31.2,-18.8l-31.2,18.6M166.3,278.7l31.2,18.6m-31.2,55.6l31.2,-18.7m-31.2,18.7L135,334.2m0,-.1V297.5m31.3,-18.8L135,297.3m30.2,-10.9l-23.1,13.7m23.1,45.1L142.1,331.5m87.7,-45.1l23,13.7m-23,45.1l23,-13.7m-61.3,-2.2v-27m6,-78.9L228.7,242m0,36.7V242.2M260,223.4L291.2,242m0,36.7V242.2m-62.5,36.5V242.2M260,223.4L228.7,242m93.7,-18.6L353.7,242M322.4,223.4L291.2,242m62.5,.2l24.8,-14.8m-27,14.8v25.5m4.4,-25.5v25.5M426,364.4V209.5" class="g0_20"/>
<path d="M584.4,282.5l24.8,14.8m0,36.8V297.5M578,352.9l31.2,-18.7M578,352.9L546.8,334.2m0,-.1V297.5m24.8,-15l-24.8,14.8M515.5,278.7l31.3,18.6m-31.3,55.6l31.3,-18.7m-31.3,18.7L484.3,334.2m0,-.1V297.5m31.2,-18.8l-31.2,18.6m30.1,-10.9l-23,13.7m23,45.1l-23,-13.7m93,-40.7l18.3,10.9m-23.6,43.5l23,-13.7m-61.4,-2.2v-27" class="g1_20"/>
<path d="M553.2,227.2l18.2,11m6.6,33.2V251.3" class="g2_20"/>
<path d="M615.6,227.2l18.3,11" class="g3_20"/>
<path d="M640.5,271.4V251.3" class="g2_20"/>
<path d="M578,271.4V251.3" class="g1_20"/>
<path d="M602.8,227.2l-18.2,11m93.5,-11l18.3,11m-31.1,-11l-18.2,11m62.2,.1l18.3,-10.9m-26.8,20.3v20m4.3,-20v20" class="g3_20"/>
<path d="M426,393.6V364.4m0,58.4V393.6" class="g0_20"/>
<path d="M491.9,421.4c1.4,0,2.1,-2.8,3.4,-2.8c1,0,1.9,1.4,2.8,2.8c.9,1.4,1.7,2.7,2.7,2.7c1,0,1.9,-1.3,2.7,-2.7c.9,-1.4,1.8,-2.8,2.8,-2.8c1.4,0,2,2.8,3.4,2.8h3.9" class="g4_20"/>
<path d="M426,452V422.8" class="g0_20"/>
<path d="M542.6,450.6c1.3,0,2,-2.8,3.4,-2.8c1,0,1.8,1.4,2.7,2.8c.9,1.4,1.8,2.7,2.8,2.7c1,0,1.8,-1.3,2.7,-2.7c.9,-1.4,1.8,-2.8,2.8,-2.8c1.3,0,2,2.8,3.4,2.8h3.9" class="g5_20"/>
<path d="M426,481.3V452m0,58.5V481.3m0,58.4V510.5m0,58.4V539.7m0,58.5V568.9m0,58.5V598.2m0,58.4V627.4m0,184.1V656.6" class="g0_20"/>
<path d="M584.4,729.7l24.8,14.8m0,36.7V744.7M578,800l31.2,-18.6M578,800L546.8,781.4m0,-.2V744.7m24.8,-15l-24.8,14.8M515.5,725.8l31.3,18.7M515.5,800l31.3,-18.6M515.5,800L484.3,781.4m0,-.2V744.7m31.2,-18.9l-31.2,18.7m30.1,-11l-23,13.7m23,45.1l-23,-13.7m93,-40.7l18.3,11m-23.6,43.4l23,-13.7m-61.4,-2.2v-27" class="g3_20"/>
<path d="M553.2,674.3l18.2,11m6.6,33.2V698.4" class="g2_20"/>
<path d="M615.6,674.3l18.3,11" class="g6_20"/>
<path d="M640.5,718.5V698.4" class="g2_20"/>
<path d="M578,718.5V698.4" class="g7_20"/>
<path d="M602.8,674.3l-18.2,11m93.5,-11l18.3,11m-31.1,-11l-18.2,11m62.2,.2l18.3,-11m-26.8,20.3v20.1m4.3,-20.1v20.1" class="g6_20"/>
<path d="M426,840.7V811.5m0,58.5V840.7" class="g0_20"/>
<path d="M493,873.8c1.3,0,2,-2.8,3.4,-2.8c1,0,1.9,1.4,2.7,2.8c.9,1.4,1.8,2.7,2.8,2.7c1,0,1.8,-1.3,2.7,-2.7c.9,-1.4,1.8,-2.8,2.8,-2.8c1,0,1.8,1.4,2.7,2.8c.9,1.4,1.8,2.7,2.7,2.7c1,0,1.9,-1.3,2.8,-2.7c.9,-1.4,1.7,-2.8,2.7,-2.8c1,0,1.9,1.4,2.8,2.8c.9,1.4,1.7,2.7,2.7,2.7c1,0,1.8,-1.3,2.7,-2.7c.9,-1.4,1.8,-2.8,2.8,-2.8c1,0,1.8,1.4,2.7,2.8c.9,1.4,1.8,2.7,2.8,2.7c1,0,1.8,-1.3,2.7,-2.7c.9,-1.4,1.7,-2.8,2.7,-2.8c1,0,1.9,1.4,2.8,2.8c.9,1.4,1.7,2.7,2.7,2.7c1,0,1.9,-1.3,2.8,-2.7c.9,-1.4,1.7,-2.8,2.7,-2.8c1,0,1.8,1.4,2.7,2.8c.9,1.4,1.8,2.7,2.8,2.7c1.3,0,2,-2.7,3.4,-2.7h.5" class="g4_20"/>
<path d="M426,899.2V870" class="g0_20"/>
<path d="M628.1,897.7c1.4,0,2,-2.7,3.4,-2.7c1,0,1.9,1.3,2.8,2.7c.9,1.4,1.7,2.8,2.7,2.8c1,0,1.8,-1.4,2.7,-2.8c.9,-1.4,1.8,-2.7,2.8,-2.7c1.3,0,2,2.7,3.4,2.7h3.9" class="g8_20"/>
<path d="M426,928.4V899.2M116.9,928.8H834.2" class="g0_20"/>
</svg>