<?xml version="1.0" encoding="UTF-8" standalone="no"?>
<!DOCTYPE svg PUBLIC "-//W3C//DTD SVG 1.1//EN"
"http://www.w3.org/Graphics/SVG/1.1/DTD/svg11.dtd">
<svg viewBox="0 0 1286 909" version="1.1" xmlns="http://www.w3.org/2000/svg" xmlns:xlink="http://www.w3.org/1999/xlink">
<defs>
<style type="text/css"><![CDATA[
.g0_705{
fill: none;
stroke: #000000;
stroke-width: 0.73;
stroke-linecap: butt;
stroke-linejoin: miter;
}
.g1_705{
fill: none;
stroke: #02B5EE;
stroke-width: 1.262;
stroke-linecap: butt;
stroke-linejoin: miter;
}
.g2_705{
fill: none;
stroke: #02B5EE;
stroke-width: 0.73;
stroke-linecap: butt;
stroke-linejoin: miter;
}
.g3_705{
fill: #FFF7A4;
}
]]></style>
</defs>
<path d="M193,83.4h900.3M193,210.6H767.6m-574.6,0H767.6M457.9,240.2V211m0,58.5V240.2m0,114.3v-85" class="g0_705"/>
<path d="M573.3,330.5H618" class="g1_705"/>
<path d="M457.9,383.7V354.5m0,102.3V383.7" class="g0_705"/>
<path d="M706,442.9h50.6" class="g2_705"/>
<path d="M457.9,486V456.8m0,58.4V486m0,64V515.2" class="g0_705"/>
<path d="M541.6,550h74.7V517.1H541.6V550Z" class="g3_705"/>
<path d="M457.9,580.2V550m0,63.1V580.2" class="g0_705"/>
<path d="M661.2,613.1h95.4V580.2H661.2v32.9Z" class="g3_705"/>
<path d="M457.9,642.3V613.1m0,58.4V642.3m0,64V671.5" class="g0_705"/>
<path d="M554,706.3h74.8V673.5H554v32.8Z" class="g3_705"/>
<path d="M457.9,735.6V706.3M193,735.9H767.6m-574.6,0H767.6" class="g0_705"/>
</svg>