<?xml version="1.0" encoding="UTF-8" standalone="no"?>
<!DOCTYPE svg PUBLIC "-//W3C//DTD SVG 1.1//EN"
"http://www.w3.org/Graphics/SVG/1.1/DTD/svg11.dtd">
<svg viewBox="0 0 1286 909" version="1.1" xmlns="http://www.w3.org/2000/svg" xmlns:xlink="http://www.w3.org/1999/xlink">
<defs>
<style type="text/css"><![CDATA[
.g0_630{
fill: none;
stroke: #000000;
stroke-width: 0.73;
stroke-linecap: butt;
stroke-linejoin: miter;
}
.g1_630{
fill: none;
stroke: #02B5EE;
stroke-width: 1.262;
stroke-linecap: butt;
stroke-linejoin: miter;
}
.g2_630{
fill: none;
stroke: #FFA313;
stroke-width: 1.262;
stroke-linecap: butt;
stroke-linejoin: miter;
}
.g3_630{
fill: none;
stroke: #FFA313;
stroke-width: 0.73;
stroke-linecap: butt;
stroke-linejoin: miter;
}
.g4_630{
fill: none;
stroke: #02B5EE;
stroke-width: 0.73;
stroke-linecap: butt;
stroke-linejoin: miter;
}
]]></style>
</defs>
<path d="M193,83.4h900.3M193,111.6H974.4m-781.4,0H974.4M478.9,141.2V112m0,114.3V141.2" class="g0_630"/>
<path d="M687.8,202.3h34.6" class="g1_630"/>
<path d="M732.9,202.3H834.1" class="g2_630"/>
<path d="M478.9,255.5V226.3m0,102.2v-73" class="g0_630"/>
<path d="M710.1,314.7H845.2" class="g3_630"/>
<path d="M929.7,314.7h33.8" class="g4_630"/>
<path d="M478.9,357.8V328.5m0,58.5V357.8m0,114.2V387" class="g0_630"/>
<path d="M631.5,448h34.6" class="g1_630"/>
<path d="M676.6,448H834.1" class="g2_630"/>
<path d="M478.9,502.2V472m0,103.2v-73" class="g0_630"/>
<path d="M760.8,561.4H862.1" class="g3_630"/>
<path d="M929.7,561.4h33.8" class="g4_630"/>
<path d="M478.9,604.5V575.2M193,604.8H974.4m-781.4,0H974.4" class="g0_630"/>
</svg>