<?xml version="1.0" encoding="UTF-8" standalone="no"?>
<!DOCTYPE svg PUBLIC "-//W3C//DTD SVG 1.1//EN"
"http://www.w3.org/Graphics/SVG/1.1/DTD/svg11.dtd">
<svg viewBox="0 0 909 1286" version="1.1" xmlns="http://www.w3.org/2000/svg" xmlns:xlink="http://www.w3.org/1999/xlink">
<defs>
<style type="text/css"><![CDATA[
.g0_15{
fill: none;
stroke: #000000;
stroke-width: 0.73;
stroke-linecap: butt;
stroke-linejoin: miter;
}
.g1_15{
fill: #FDE8E9;
}
]]></style>
</defs>
<path d="M116.9,159.9H792.5" class="g0_15"/>
<path d="M628.8,315.4h78.5V287.5H628.8v27.9Z" class="g1_15"/>
<path d="M522.3,403h78.5V375.2H522.3V403Z" class="g1_15"/>
<path d="M275.3,444.8h30.1V421.1H275.3v23.7Z" class="g1_15"/>
<path d="M275.3,474.1h30.1V450.3H275.3v23.8Z" class="g1_15"/>
<path d="M275.3,503.3h43.6V479.5H275.3v23.8Z" class="g1_15"/>
<path d="M539.2,607.6h78.5V579.8H539.2v27.8Z" class="g1_15"/>
<path d="M319.6,637.3H415V609.4H319.6v27.9Z" class="g1_15"/>
<path d="M533.2,637.3h95.4V609.4H533.2v27.9Z" class="g1_15"/>
<path d="M255.2,666.9h78.5V639.1H255.2v27.8Z" class="g1_15"/>
<path d="M350.6,669.3H516.2V641.2H350.6v28.1Z" class="g1_15"/>
<path d="M116.9,699H313.7V671.1H116.9V699Z" class="g1_15"/>
<path d="M623.6,757.9H719V730H623.6v27.9Z" class="g1_15"/>
<path d="M526.2,816.8h44.7V788.9H526.2v27.9Z" class="g1_15"/>
<path d="M201.4,846.5h78.5V818.6H201.4v27.9Z" class="g1_15"/>
<path d="M623.6,905.3h78.5V877.5H623.6v27.8Z" class="g1_15"/>
<path d="M697.1,964.2h78.5V936.4H697.1v27.8Z" class="g1_15"/>
</svg>