<?xml version="1.0" encoding="UTF-8" standalone="no"?>
<!DOCTYPE svg PUBLIC "-//W3C//DTD SVG 1.1//EN"
"http://www.w3.org/Graphics/SVG/1.1/DTD/svg11.dtd">
<svg viewBox="0 0 909 1286" version="1.1" xmlns="http://www.w3.org/2000/svg" xmlns:xlink="http://www.w3.org/1999/xlink">
<defs>
<style type="text/css"><![CDATA[
.g0_146{
fill: none;
stroke: #000000;
stroke-width: 0.73;
stroke-linecap: butt;
stroke-linejoin: miter;
}
.g1_146{
fill: #FFFFFF;
}
.g2_146{
fill: #FFFEF5;
}
.g3_146{
fill: none;
stroke: #D6C944;
stroke-width: 0.365;
stroke-linecap: butt;
stroke-linejoin: miter;
}
.g4_146{
fill: #E81A58;
}
.g5_146{
fill: #401A1A;
}
]]></style>
</defs>
<path d="M116.9,159.9H792.5" class="g0_146"/>
<path d="M-2.9,350.1V284.7H912.4v65.4Z" class="g1_146"/>
<path d="M-.3,347.5V287.3H909.8v60.2Z" class="g2_146"/>
<path d="M-.3,339.2H909.8M-.3,313.2H909.8M-.3,287.3H909.8M-.3,347.5V287.3m25.9,60.2V287.3m26,60.2V287.3m26,60.2V287.3m26,60.2V287.3m26,60.2V287.3m25.9,60.2V287.3m26,60.2V287.3m26,60.2V287.3m26,60.2V287.3m26,60.2V287.3m26,60.2V287.3m25.9,60.2V287.3m26,60.2V287.3m26,60.2V287.3m26,60.2V287.3m26,60.2V287.3m26,60.2V287.3m26,60.2V287.3m25.9,60.2V287.3m26,60.2V287.3m26,60.2V287.3m26,60.2V287.3m26,60.2V287.3m26,60.2V287.3m25.9,60.2V287.3m26,60.2V287.3m26,60.2V287.3m26,60.2V287.3m26,60.2V287.3m26,60.2V287.3m25.9,60.2V287.3m26,60.2V287.3m26,60.2V287.3m26,60.2V287.3m26,60.2V287.3" class="g3_146"/>
<path d="M116.9,1117.8V418.5c0,-21.6,17.6,-39.2,39.2,-39.2H792.5v699.3c0,21.6,-17.5,39.2,-39.1,39.2Z" class="g4_146"/>
<path d="M119.5,1115.2V411.8H789.9v666.8c0,20.2,-16.3,36.6,-36.5,36.6Z" class="g5_146"/>
</svg>