<?xml version="1.0" encoding="UTF-8" standalone="no"?>
<!DOCTYPE svg PUBLIC "-//W3C//DTD SVG 1.1//EN"
"http://www.w3.org/Graphics/SVG/1.1/DTD/svg11.dtd">
<svg viewBox="0 0 909 1286" version="1.1" xmlns="http://www.w3.org/2000/svg" xmlns:xlink="http://www.w3.org/1999/xlink">
<defs>
<style type="text/css"><![CDATA[
.g0_23{
fill: none;
stroke: #000000;
stroke-width: 0.73;
stroke-linecap: butt;
stroke-linejoin: miter;
}
.g1_23{
fill: #FFFFFF;
}
.g2_23{
fill: #EDEFEF;
}
.g3_23{
fill: #FFFFFF;
stroke: #000000;
stroke-width: 0.73;
stroke-linecap: butt;
stroke-linejoin: miter;
}
.g4_23{
fill: none;
stroke: #000000;
stroke-width: 3.47;
stroke-linecap: butt;
stroke-linejoin: miter;
}
.g5_23{
fill: none;
stroke: #CDCDB4;
stroke-width: 2.739;
stroke-linecap: butt;
stroke-linejoin: miter;
}
.g6_23{
fill: none;
stroke: #000000;
stroke-width: 0.803;
stroke-linecap: square;
stroke-linejoin: miter;
}
.g7_23{
fill: none;
stroke: #000000;
stroke-width: 1.461;
stroke-linecap: butt;
stroke-linejoin: miter;
}
]]></style>
</defs>
<path d="M116.9,159.9H792.5" class="g0_23"/>
<path d="M116.9,820.2V179.5H792.5V820.2Z" class="g1_23"/>
<path d="M117.7,819.5v-640H791.8v640Z" class="g2_23"/>
<path d="M142.6,190.6c0,-3,-2.4,-5.4,-5.4,-5.4c-3.1,0,-5.5,2.4,-5.5,5.4c0,3.1,2.4,5.5,5.5,5.5c3,0,5.4,-2.4,5.4,-5.5Z" class="g3_23"/>
<path d="M137.2,190.6c6.4,1.6,5.4,3.9,-2.3,5.2c-7.7,1.3,-19.2,1.1,-25.7,-.5c-4.2,-1,-5.4,-2.3,-3.2,-3.6c1.8,-1,5.8,-1.8,10.9,-2.1" class="g4_23"/>
<path d="M137.2,190.6c6.4,1.6,5.4,3.9,-2.3,5.2c-7.7,1.3,-19.2,1.1,-25.7,-.5c-4.2,-1,-5.4,-2.3,-3.2,-3.6c1.8,-1,5.8,-1.8,10.9,-2.1" class="g5_23"/>
<path d="M142.6,215.2c0,-3,-2.4,-5.5,-5.4,-5.5c-3.1,0,-5.5,2.5,-5.5,5.5c0,3.1,2.4,5.5,5.5,5.5c3,0,5.4,-2.4,5.4,-5.5Z" class="g3_23"/>
<path d="M137.2,215.2c6.4,1.6,5.4,3.9,-2.3,5.2c-7.7,1.3,-19.2,1.1,-25.7,-.5c-4.2,-1,-5.4,-2.3,-3.2,-3.6c1.8,-1,5.8,-1.8,10.9,-2.2" class="g4_23"/>
<path d="M137.2,215.2c6.4,1.6,5.4,3.9,-2.3,5.2c-7.7,1.3,-19.2,1.1,-25.7,-.5c-4.2,-1,-5.4,-2.3,-3.2,-3.6c1.8,-1,5.8,-1.8,10.9,-2.2" class="g5_23"/>
<path d="M142.6,239.8c0,-3,-2.4,-5.5,-5.4,-5.5c-3.1,0,-5.5,2.5,-5.5,5.5c0,3,2.4,5.5,5.5,5.5c3,0,5.4,-2.5,5.4,-5.5Z" class="g3_23"/>
<path d="M137.2,239.8c6.4,1.6,5.4,3.9,-2.3,5.2c-7.7,1.3,-19.2,1.1,-25.7,-.5c-4.2,-1,-5.4,-2.4,-3.2,-3.6c1.8,-1,5.8,-1.8,10.9,-2.2" class="g4_23"/>
<path d="M137.2,239.8c6.4,1.6,5.4,3.9,-2.3,5.2c-7.7,1.3,-19.2,1.1,-25.7,-.5c-4.2,-1,-5.4,-2.4,-3.2,-3.6c1.8,-1,5.8,-1.8,10.9,-2.2" class="g5_23"/>
<path d="M142.6,264.4c0,-3,-2.4,-5.5,-5.4,-5.5c-3.1,0,-5.5,2.5,-5.5,5.5c0,3,2.4,5.5,5.5,5.5c3,0,5.4,-2.5,5.4,-5.5Z" class="g3_23"/>
<path d="M137.2,264.4c6.4,1.5,5.4,3.8,-2.3,5.1c-7.7,1.3,-19.2,1.1,-25.7,-.4c-4.2,-1,-5.4,-2.4,-3.2,-3.6c1.8,-1,5.8,-1.8,10.9,-2.2" class="g4_23"/>
<path d="M137.2,264.4c6.4,1.5,5.4,3.8,-2.3,5.1c-7.7,1.3,-19.2,1.1,-25.7,-.4c-4.2,-1,-5.4,-2.4,-3.2,-3.6c1.8,-1,5.8,-1.8,10.9,-2.2" class="g5_23"/>
<path d="M142.6,289c0,-3,-2.4,-5.5,-5.4,-5.5c-3.1,0,-5.5,2.5,-5.5,5.5c0,3,2.4,5.5,5.5,5.5c3,0,5.4,-2.5,5.4,-5.5Z" class="g3_23"/>
<path d="M137.2,289c6.4,1.5,5.4,3.8,-2.3,5.1c-7.7,1.3,-19.2,1.1,-25.7,-.4c-4.2,-1,-5.4,-2.4,-3.2,-3.6c1.8,-1,5.8,-1.8,10.9,-2.2" class="g4_23"/>
<path d="M137.2,289c6.4,1.5,5.4,3.8,-2.3,5.1c-7.7,1.3,-19.2,1.1,-25.7,-.4c-4.2,-1,-5.4,-2.4,-3.2,-3.6c1.8,-1,5.8,-1.8,10.9,-2.2" class="g5_23"/>
<path d="M142.6,313.6c0,-3.1,-2.4,-5.5,-5.4,-5.5c-3.1,0,-5.5,2.4,-5.5,5.5c0,3,2.4,5.4,5.5,5.4c3,0,5.4,-2.4,5.4,-5.4Z" class="g3_23"/>
<path d="M137.2,313.6c6.4,1.5,5.4,3.8,-2.3,5.1c-7.7,1.3,-19.2,1.1,-25.7,-.4c-4.2,-1,-5.4,-2.4,-3.2,-3.6c1.8,-1.1,5.8,-1.8,10.9,-2.2" class="g4_23"/>
<path d="M137.2,313.6c6.4,1.5,5.4,3.8,-2.3,5.1c-7.7,1.3,-19.2,1.1,-25.7,-.4c-4.2,-1,-5.4,-2.4,-3.2,-3.6c1.8,-1.1,5.8,-1.8,10.9,-2.2" class="g5_23"/>
<path d="M142.6,338.2c0,-3.1,-2.4,-5.5,-5.4,-5.5c-3.1,0,-5.5,2.4,-5.5,5.5c0,3,2.4,5.4,5.5,5.4c3,0,5.4,-2.4,5.4,-5.4Z" class="g3_23"/>
<path d="M137.2,338.2c6.4,1.5,5.4,3.8,-2.3,5.1c-7.7,1.3,-19.2,1.1,-25.7,-.5c-4.2,-1,-5.4,-2.3,-3.2,-3.6c1.8,-1,5.8,-1.8,10.9,-2.1" class="g4_23"/>
<path d="M137.2,338.2c6.4,1.5,5.4,3.8,-2.3,5.1c-7.7,1.3,-19.2,1.1,-25.7,-.5c-4.2,-1,-5.4,-2.3,-3.2,-3.6c1.8,-1,5.8,-1.8,10.9,-2.1" class="g5_23"/>
<path d="M142.6,362.7c0,-3,-2.4,-5.4,-5.4,-5.4c-3.1,0,-5.5,2.4,-5.5,5.4c0,3.1,2.4,5.5,5.5,5.5c3,0,5.4,-2.4,5.4,-5.5Z" class="g3_23"/>
<path d="M137.2,362.7c6.4,1.6,5.4,3.9,-2.3,5.2c-7.7,1.3,-19.2,1.1,-25.7,-.5c-4.2,-1,-5.4,-2.3,-3.2,-3.6c1.8,-1,5.8,-1.8,10.9,-2.1" class="g4_23"/>
<path d="M137.2,362.7c6.4,1.6,5.4,3.9,-2.3,5.2c-7.7,1.3,-19.2,1.1,-25.7,-.5c-4.2,-1,-5.4,-2.3,-3.2,-3.6c1.8,-1,5.8,-1.8,10.9,-2.1" class="g5_23"/>
<path d="M142.6,387.3c0,-3,-2.4,-5.5,-5.4,-5.5c-3.1,0,-5.5,2.5,-5.5,5.5c0,3,2.4,5.5,5.5,5.5c3,0,5.4,-2.5,5.4,-5.5Z" class="g3_23"/>
<path d="M137.2,387.3c6.4,1.6,5.4,3.9,-2.3,5.2c-7.7,1.3,-19.2,1.1,-25.7,-.5c-4.2,-1,-5.4,-2.4,-3.2,-3.6c1.8,-1,5.8,-1.8,10.9,-2.2" class="g4_23"/>
<path d="M137.2,387.3c6.4,1.6,5.4,3.9,-2.3,5.2c-7.7,1.3,-19.2,1.1,-25.7,-.5c-4.2,-1,-5.4,-2.4,-3.2,-3.6c1.8,-1,5.8,-1.8,10.9,-2.2" class="g5_23"/>
<path d="M142.6,411.9c0,-3,-2.4,-5.5,-5.4,-5.5c-3.1,0,-5.5,2.5,-5.5,5.5c0,3,2.4,5.5,5.5,5.5c3,0,5.4,-2.5,5.4,-5.5Z" class="g3_23"/>
<path d="M137.2,411.9c6.4,1.6,5.4,3.9,-2.3,5.2c-7.7,1.2,-19.2,1,-25.7,-.5c-4.2,-1,-5.4,-2.4,-3.2,-3.6c1.8,-1,5.8,-1.8,10.9,-2.2" class="g4_23"/>
<path d="M137.2,411.9c6.4,1.6,5.4,3.9,-2.3,5.2c-7.7,1.2,-19.2,1,-25.7,-.5c-4.2,-1,-5.4,-2.4,-3.2,-3.6c1.8,-1,5.8,-1.8,10.9,-2.2" class="g5_23"/>
<path d="M142.6,436.5c0,-3,-2.4,-5.5,-5.4,-5.5c-3.1,0,-5.5,2.5,-5.5,5.5c0,3,2.4,5.5,5.5,5.5c3,0,5.4,-2.5,5.4,-5.5Z" class="g3_23"/>
<path d="M137.2,436.5c6.4,1.5,5.4,3.8,-2.3,5.1c-7.7,1.3,-19.2,1.1,-25.7,-.4c-4.2,-1,-5.4,-2.4,-3.2,-3.6c1.8,-1,5.8,-1.8,10.9,-2.2" class="g4_23"/>
<path d="M137.2,436.5c6.4,1.5,5.4,3.8,-2.3,5.1c-7.7,1.3,-19.2,1.1,-25.7,-.4c-4.2,-1,-5.4,-2.4,-3.2,-3.6c1.8,-1,5.8,-1.8,10.9,-2.2" class="g5_23"/>
<path d="M142.6,461.1c0,-3.1,-2.4,-5.5,-5.4,-5.5c-3.1,0,-5.5,2.4,-5.5,5.5c0,3,2.4,5.5,5.5,5.5c3,0,5.4,-2.5,5.4,-5.5Z" class="g3_23"/>
<path d="M137.2,461.1c6.4,1.5,5.4,3.8,-2.3,5.1c-7.7,1.3,-19.2,1.1,-25.7,-.4c-4.2,-1,-5.4,-2.4,-3.2,-3.6c1.8,-1,5.8,-1.8,10.9,-2.2" class="g4_23"/>
<path d="M137.2,461.1c6.4,1.5,5.4,3.8,-2.3,5.1c-7.7,1.3,-19.2,1.1,-25.7,-.4c-4.2,-1,-5.4,-2.4,-3.2,-3.6c1.8,-1,5.8,-1.8,10.9,-2.2" class="g5_23"/>
<path d="M142.6,485.7c0,-3.1,-2.4,-5.5,-5.4,-5.5c-3.1,0,-5.5,2.4,-5.5,5.5c0,3,2.4,5.4,5.5,5.4c3,0,5.4,-2.4,5.4,-5.4Z" class="g3_23"/>
<path d="M137.2,485.7c6.4,1.5,5.4,3.8,-2.3,5.1c-7.7,1.3,-19.2,1.1,-25.7,-.4c-4.2,-1,-5.4,-2.4,-3.2,-3.6c1.8,-1.1,5.8,-1.9,10.9,-2.2" class="g4_23"/>
<path d="M137.2,485.7c6.4,1.5,5.4,3.8,-2.3,5.1c-7.7,1.3,-19.2,1.1,-25.7,-.4c-4.2,-1,-5.4,-2.4,-3.2,-3.6c1.8,-1.1,5.8,-1.9,10.9,-2.2" class="g5_23"/>
<path d="M142.6,510.2c0,-3,-2.4,-5.4,-5.4,-5.4c-3.1,0,-5.5,2.4,-5.5,5.4c0,3.1,2.4,5.5,5.5,5.5c3,0,5.4,-2.4,5.4,-5.5Z" class="g3_23"/>
<path d="M137.2,510.2c6.4,1.6,5.4,3.9,-2.3,5.2c-7.7,1.3,-19.2,1.1,-25.7,-.5c-4.2,-1,-5.4,-2.3,-3.2,-3.6c1.8,-1,5.8,-1.8,10.9,-2.1" class="g4_23"/>
<path d="M137.2,510.2c6.4,1.6,5.4,3.9,-2.3,5.2c-7.7,1.3,-19.2,1.1,-25.7,-.5c-4.2,-1,-5.4,-2.3,-3.2,-3.6c1.8,-1,5.8,-1.8,10.9,-2.1" class="g5_23"/>
<path d="M142.6,534.8c0,-3,-2.4,-5.4,-5.4,-5.4c-3.1,0,-5.5,2.4,-5.5,5.4c0,3.1,2.4,5.5,5.5,5.5c3,0,5.4,-2.4,5.4,-5.5Z" class="g3_23"/>
<path d="M137.2,534.8c6.4,1.6,5.4,3.9,-2.3,5.2c-7.7,1.3,-19.2,1.1,-25.7,-.5c-4.2,-1,-5.4,-2.3,-3.2,-3.6c1.8,-1,5.8,-1.8,10.9,-2.2" class="g4_23"/>
<path d="M137.2,534.8c6.4,1.6,5.4,3.9,-2.3,5.2c-7.7,1.3,-19.2,1.1,-25.7,-.5c-4.2,-1,-5.4,-2.3,-3.2,-3.6c1.8,-1,5.8,-1.8,10.9,-2.2" class="g5_23"/>
<path d="M142.6,559.4c0,-3,-2.4,-5.5,-5.4,-5.5c-3.1,0,-5.5,2.5,-5.5,5.5c0,3,2.4,5.5,5.5,5.5c3,0,5.4,-2.5,5.4,-5.5Z" class="g3_23"/>
<path d="M137.2,559.4c6.4,1.6,5.4,3.9,-2.3,5.2c-7.7,1.3,-19.2,1.1,-25.7,-.5c-4.2,-1,-5.4,-2.4,-3.2,-3.6c1.8,-1,5.8,-1.8,10.9,-2.2" class="g4_23"/>
<path d="M137.2,559.4c6.4,1.6,5.4,3.9,-2.3,5.2c-7.7,1.3,-19.2,1.1,-25.7,-.5c-4.2,-1,-5.4,-2.4,-3.2,-3.6c1.8,-1,5.8,-1.8,10.9,-2.2" class="g5_23"/>
<path d="M142.6,584c0,-3,-2.4,-5.5,-5.4,-5.5c-3.1,0,-5.5,2.5,-5.5,5.5c0,3,2.4,5.5,5.5,5.5c3,0,5.4,-2.5,5.4,-5.5Z" class="g3_23"/>
<path d="M137.2,584c6.4,1.5,5.4,3.8,-2.3,5.1c-7.7,1.3,-19.2,1.1,-25.7,-.4c-4.2,-1,-5.4,-2.4,-3.2,-3.6c1.8,-1,5.8,-1.8,10.9,-2.2" class="g4_23"/>
<path d="M137.2,584c6.4,1.5,5.4,3.8,-2.3,5.1c-7.7,1.3,-19.2,1.1,-25.7,-.4c-4.2,-1,-5.4,-2.4,-3.2,-3.6c1.8,-1,5.8,-1.8,10.9,-2.2" class="g5_23"/>
<path d="M142.6,608.6c0,-3,-2.4,-5.5,-5.4,-5.5c-3.1,0,-5.5,2.5,-5.5,5.5c0,3,2.4,5.5,5.5,5.5c3,0,5.4,-2.5,5.4,-5.5Z" class="g3_23"/>
<path d="M137.2,608.6c6.4,1.5,5.4,3.8,-2.3,5.1c-7.7,1.3,-19.2,1.1,-25.7,-.4c-4.2,-1,-5.4,-2.4,-3.2,-3.6c1.8,-1,5.8,-1.8,10.9,-2.2" class="g4_23"/>
<path d="M137.2,608.6c6.4,1.5,5.4,3.8,-2.3,5.1c-7.7,1.3,-19.2,1.1,-25.7,-.4c-4.2,-1,-5.4,-2.4,-3.2,-3.6c1.8,-1,5.8,-1.8,10.9,-2.2" class="g5_23"/>
<path d="M142.6,633.2c0,-3.1,-2.4,-5.5,-5.4,-5.5c-3.1,0,-5.5,2.4,-5.5,5.5c0,3,2.4,5.4,5.5,5.4c3,0,5.4,-2.4,5.4,-5.4Z" class="g3_23"/>
<path d="M137.2,633.2c6.4,1.5,5.4,3.8,-2.3,5.1c-7.7,1.3,-19.2,1.1,-25.7,-.4c-4.2,-1,-5.4,-2.4,-3.2,-3.6c1.8,-1,5.8,-1.8,10.9,-2.2" class="g4_23"/>
<path d="M137.2,633.2c6.4,1.5,5.4,3.8,-2.3,5.1c-7.7,1.3,-19.2,1.1,-25.7,-.4c-4.2,-1,-5.4,-2.4,-3.2,-3.6c1.8,-1,5.8,-1.8,10.9,-2.2" class="g5_23"/>
<path d="M142.6,657.8c0,-3.1,-2.4,-5.5,-5.4,-5.5c-3.1,0,-5.5,2.4,-5.5,5.5c0,3,2.4,5.4,5.5,5.4c3,0,5.4,-2.4,5.4,-5.4Z" class="g3_23"/>
<path d="M137.2,657.8c6.4,1.5,5.4,3.8,-2.3,5.1c-7.7,1.3,-19.2,1.1,-25.7,-.4c-4.2,-1,-5.4,-2.4,-3.2,-3.6c1.8,-1.1,5.8,-1.9,10.9,-2.2" class="g4_23"/>
<path d="M137.2,657.8c6.4,1.5,5.4,3.8,-2.3,5.1c-7.7,1.3,-19.2,1.1,-25.7,-.4c-4.2,-1,-5.4,-2.4,-3.2,-3.6c1.8,-1.1,5.8,-1.9,10.9,-2.2" class="g5_23"/>
<path d="M142.6,682.3c0,-3,-2.4,-5.4,-5.4,-5.4c-3.1,0,-5.5,2.4,-5.5,5.4c0,3.1,2.4,5.5,5.5,5.5c3,0,5.4,-2.4,5.4,-5.5Z" class="g3_23"/>
<path d="M137.2,682.3c6.4,1.6,5.4,3.9,-2.3,5.2c-7.7,1.3,-19.2,1.1,-25.7,-.5c-4.2,-1,-5.4,-2.3,-3.2,-3.6c1.8,-1,5.8,-1.8,10.9,-2.1" class="g4_23"/>
<path d="M137.2,682.3c6.4,1.6,5.4,3.9,-2.3,5.2c-7.7,1.3,-19.2,1.1,-25.7,-.5c-4.2,-1,-5.4,-2.3,-3.2,-3.6c1.8,-1,5.8,-1.8,10.9,-2.1" class="g5_23"/>
<path d="M142.6,706.9c0,-3,-2.4,-5.5,-5.4,-5.5c-3.1,0,-5.5,2.5,-5.5,5.5c0,3.1,2.4,5.5,5.5,5.5c3,0,5.4,-2.4,5.4,-5.5Z" class="g3_23"/>
<path d="M137.2,706.9c6.4,1.6,5.4,3.9,-2.3,5.2c-7.7,1.3,-19.2,1.1,-25.7,-.5c-4.2,-1,-5.4,-2.4,-3.2,-3.6c1.8,-1,5.8,-1.8,10.9,-2.2" class="g4_23"/>
<path d="M137.2,706.9c6.4,1.6,5.4,3.9,-2.3,5.2c-7.7,1.3,-19.2,1.1,-25.7,-.5c-4.2,-1,-5.4,-2.4,-3.2,-3.6c1.8,-1,5.8,-1.8,10.9,-2.2" class="g5_23"/>
<path d="M142.6,731.5c0,-3,-2.4,-5.5,-5.4,-5.5c-3.1,0,-5.5,2.5,-5.5,5.5c0,3,2.4,5.5,5.5,5.5c3,0,5.4,-2.5,5.4,-5.5Z" class="g3_23"/>
<path d="M137.2,731.5c6.4,1.6,5.4,3.9,-2.3,5.2c-7.7,1.3,-19.2,1.1,-25.7,-.5c-4.2,-1,-5.4,-2.4,-3.2,-3.6c1.8,-1,5.8,-1.8,10.9,-2.2" class="g4_23"/>
<path d="M137.2,731.5c6.4,1.6,5.4,3.9,-2.3,5.2c-7.7,1.3,-19.2,1.1,-25.7,-.5c-4.2,-1,-5.4,-2.4,-3.2,-3.6c1.8,-1,5.8,-1.8,10.9,-2.2" class="g5_23"/>
<path d="M142.6,756.1c0,-3,-2.4,-5.5,-5.4,-5.5c-3.1,0,-5.5,2.5,-5.5,5.5c0,3,2.4,5.5,5.5,5.5c3,0,5.4,-2.5,5.4,-5.5Z" class="g3_23"/>
<path d="M137.2,756.1c6.4,1.5,5.4,3.8,-2.3,5.1c-7.7,1.3,-19.2,1.1,-25.7,-.4c-4.2,-1,-5.4,-2.4,-3.2,-3.6c1.8,-1,5.8,-1.8,10.9,-2.2" class="g4_23"/>
<path d="M137.2,756.1c6.4,1.5,5.4,3.8,-2.3,5.1c-7.7,1.3,-19.2,1.1,-25.7,-.4c-4.2,-1,-5.4,-2.4,-3.2,-3.6c1.8,-1,5.8,-1.8,10.9,-2.2" class="g5_23"/>
<path d="M142.6,780.7c0,-3,-2.4,-5.5,-5.4,-5.5c-3.1,0,-5.5,2.5,-5.5,5.5c0,3,2.4,5.5,5.5,5.5c3,0,5.4,-2.5,5.4,-5.5Z" class="g3_23"/>
<path d="M137.2,780.7c6.4,1.5,5.4,3.8,-2.3,5.1c-7.7,1.3,-19.2,1.1,-25.7,-.4c-4.2,-1,-5.4,-2.4,-3.2,-3.6c1.8,-1,5.8,-1.8,10.9,-2.2" class="g4_23"/>
<path d="M137.2,780.7c6.4,1.5,5.4,3.8,-2.3,5.1c-7.7,1.3,-19.2,1.1,-25.7,-.4c-4.2,-1,-5.4,-2.4,-3.2,-3.6c1.8,-1,5.8,-1.8,10.9,-2.2" class="g5_23"/>
<path d="M142.6,805.3c0,-3.1,-2.4,-5.5,-5.4,-5.5c-3.1,0,-5.5,2.4,-5.5,5.5c0,3,2.4,5.4,5.5,5.4c3,0,5.4,-2.4,5.4,-5.4Z" class="g3_23"/>
<path d="M137.2,805.3c6.4,1.5,5.4,3.8,-2.3,5.1c-7.7,1.3,-19.2,1.1,-25.7,-.4c-4.2,-1,-5.4,-2.4,-3.2,-3.6c1.8,-1.1,5.8,-1.9,10.9,-2.2" class="g4_23"/>
<path d="M137.2,805.3c6.4,1.5,5.4,3.8,-2.3,5.1c-7.7,1.3,-19.2,1.1,-25.7,-.4c-4.2,-1,-5.4,-2.4,-3.2,-3.6c1.8,-1.1,5.8,-1.9,10.9,-2.2" class="g5_23"/>
<path d="M169.3,209.6H389.5m-220.2,30H389.5m-220.2,-30v30m44,-30v30m44,-30v30m44.1,-30v30m44,-30v30m44.1,-30v30M169.3,281.7H389.5M169.3,311.6H389.5M169.3,281.7v29.9m44,-29.9v29.9m44,-29.9v29.9m44.1,-29.9v29.9m44,-29.9v29.9m44.1,-29.9v29.9M169.3,353.8H389.5M169.3,383.7H389.5M169.3,353.8v29.9m44,-29.9v29.9m44,-29.9v29.9m44.1,-29.9v29.9m44,-29.9v29.9m44.1,-29.9v29.9M169.3,425.9H389.5M169.3,455.8H389.5M169.3,425.9v29.9m44,-29.9v29.9m44,-29.9v29.9m44.1,-29.9v29.9m44,-29.9v29.9m44.1,-29.9v29.9" class="g6_23"/>
<path d="M523.3,195.8c3.3,1.7,5.5,5.5,5.5,11V321.7c0,5.5,2.1,9.4,5.4,11c-3.3,1.7,-5.4,5.5,-5.4,11V458.6c0,5.5,-2.2,9.3,-5.5,11" class="g7_23"/>
</svg>