<?xml version="1.0" encoding="UTF-8" standalone="no"?>
<!DOCTYPE svg PUBLIC "-//W3C//DTD SVG 1.1//EN"
"http://www.w3.org/Graphics/SVG/1.1/DTD/svg11.dtd">
<svg viewBox="0 0 1286 909" version="1.1" xmlns="http://www.w3.org/2000/svg" xmlns:xlink="http://www.w3.org/1999/xlink">
<defs>
<style type="text/css"><![CDATA[
.g0_118{
fill: none;
stroke: #000000;
stroke-width: 0.73;
stroke-linecap: butt;
stroke-linejoin: miter;
}
.g1_118{
fill: none;
stroke: #02B5EE;
stroke-width: 1.262;
stroke-linecap: butt;
stroke-linejoin: miter;
}
.g2_118{
fill: none;
stroke: #FFA313;
stroke-width: 1.262;
stroke-linecap: butt;
stroke-linejoin: miter;
}
.g3_118{
fill: none;
stroke: #FFA313;
stroke-width: 0.73;
stroke-linecap: butt;
stroke-linejoin: miter;
}
.g4_118{
fill: none;
stroke: #02B5EE;
stroke-width: 0.73;
stroke-linecap: butt;
stroke-linejoin: miter;
}
]]></style>
</defs>
<path d="M193,83.4h900.3M193,210.6H953.6m-760.6,0H953.6M584.8,240.2V211m0,58.5V240.2m0,60.1V269.5m0,60V300.3m0,58.4V329.5m0,59.4V358.7m0,59.4V388.9m0,58.5V418.1m0,114.3v-85" class="g0_118"/>
<path d="M690.8,508.4h34.6" class="g1_118"/>
<path d="M736,508.4H942.7" class="g2_118"/>
<path d="M584.8,561.6V532.4m0,102.3V561.6" class="g0_118"/>
<path d="M595.8,620.8H908.9" class="g3_118"/>
<path d="M908.9,620.8h33.8" class="g4_118"/>
<path d="M584.8,663.9V634.7m0,58.4V663.9m0,58.4V693.1M193,722.7H953.6m-760.6,0H953.6" class="g0_118"/>
</svg>