<?xml version="1.0" encoding="UTF-8" standalone="no"?>
<!DOCTYPE svg PUBLIC "-//W3C//DTD SVG 1.1//EN"
"http://www.w3.org/Graphics/SVG/1.1/DTD/svg11.dtd">
<svg viewBox="0 0 909 1286" version="1.1" xmlns="http://www.w3.org/2000/svg" xmlns:xlink="http://www.w3.org/1999/xlink">
<defs>
<clipPath id="c0_6"><path d="M122.1,523.6V492.7h30.8v30.9Z"/></clipPath>
<clipPath id="c1_6"><path d="M122.1,523.6v-31H153v31Z"/></clipPath>
<style type="text/css"><![CDATA[
.g0_6{
fill: none;
stroke: #000000;
stroke-width: 0.73;
stroke-linecap: butt;
stroke-linejoin: miter;
}
.g1_6{
fill: #FFFFFF;
}
.g2_6{
fill: none;
stroke: #000000;
stroke-width: 1.461;
stroke-linecap: butt;
stroke-linejoin: miter;
}
.g3_6{
fill: none;
stroke: #000000;
stroke-width: 1.095;
stroke-linecap: butt;
stroke-linejoin: miter;
}
.g4_6{
}
.g5_6{
fill: none;
stroke: #000000;
stroke-width: 2.739;
stroke-linecap: butt;
stroke-linejoin: miter;
}
]]></style>
</defs>
<path d="M116.9,159.9H792.5" class="g0_6"/>
<path d="M117.7,881.6V485.9H791.8V881.6Z" class="g1_6"/>
<path d="M117.7,881.6V485.9H791.8V881.6Z" class="g2_6"/>
<path d="M484,671.4h28.3" class="g3_6"/>
<path d="M368.8,810.2h47.7" class="g2_6"/>
<g clip-path="url(#c1_6)">
<path clip-path="url(#c0_6)" d="M141.2,516.2c-3.2,0,-6.1,-1.2,-8.4,-3.4c-2.2,-2.3,-3.4,-5.2,-3.4,-8.3c0,-3.2,1.2,-6.1,3.4,-8.4c2.3,-2.2,5.2,-3.4,8.4,-3.4c3.1,0,6.1,1.2,8.3,3.4c4.6,4.6,4.6,12.1,0,16.7c-2.2,2.2,-5.2,3.4,-8.3,3.4Z" class="g4_6"/>
<path d="M141.2,494.7c-2.6,0,-5.1,1,-6.9,2.9c-3.8,3.8,-3.8,9.9,0,13.7c1.8,1.9,4.3,2.9,6.9,2.9c2.6,0,5,-1,6.9,-2.9c1.8,-1.8,2.8,-4.3,2.8,-6.8c0,-2.7,-1,-5.1,-2.9,-6.9c-1.8,-1.9,-4.2,-2.9,-6.8,-2.9Z" class="g1_6"/>
<path d="M124.4,523.6l-2.3,-2.4l8.6,-8.7l2.4,2.4Z" class="g4_6"/>
</g>
<path d="M152.7,520.6h186" class="g0_6"/>
<path d="M137.6,525.8V872.2" class="g5_6"/>
</svg>