<?xml version="1.0" encoding="UTF-8" standalone="no"?>
<!DOCTYPE svg PUBLIC "-//W3C//DTD SVG 1.1//EN"
"http://www.w3.org/Graphics/SVG/1.1/DTD/svg11.dtd">
<svg viewBox="0 0 1286 909" version="1.1" xmlns="http://www.w3.org/2000/svg" xmlns:xlink="http://www.w3.org/1999/xlink">
<defs>
<style type="text/css"><![CDATA[
.g0_617{
fill: none;
stroke: #000000;
stroke-width: 0.73;
stroke-linecap: butt;
stroke-linejoin: miter;
}
.g1_617{
fill: #E6CEEE;
}
.g2_617{
fill: none;
stroke: #8007AC;
stroke-width: 1.461;
stroke-linecap: butt;
stroke-linejoin: miter;
}
]]></style>
</defs>
<path d="M193,83.4h900.3M193,210.6H723.4m-530.4,0H723.4m-343,29.6V211m0,58.5V240.2m0,64.1V269.5" class="g0_617"/>
<path d="M497,304.3h64.2V271.4H497v32.9Z" class="g1_617"/>
<path d="M502.5,302.4c1.4,0,2.1,-2.7,3.4,-2.7c1,0,1.9,1.4,2.8,2.7c.9,1.4,1.7,2.8,2.7,2.8c1,0,1.9,-1.4,2.8,-2.8c.8,-1.3,1.7,-2.7,2.7,-2.7c1,0,1.9,1.4,2.7,2.7c.9,1.4,1.8,2.8,2.8,2.8c1,0,1.9,-1.4,2.7,-2.8c.9,-1.3,1.8,-2.7,2.8,-2.7c1,0,1.8,1.4,2.7,2.7c.9,1.4,1.7,2.8,2.7,2.8c1,0,1.9,-1.4,2.8,-2.8c.9,-1.3,1.7,-2.7,2.7,-2.7c1,0,1.9,1.4,2.8,2.7c.8,1.4,1.7,2.8,2.7,2.8c1,0,1.9,-1.4,2.7,-2.8c.9,-1.3,1.8,-2.7,2.8,-2.7c1.4,0,2,2.7,3.4,2.7h2.5" class="g2_617"/>
<path d="M604.4,304.3H712.5V271.4H604.4v32.9Z" class="g1_617"/>
<path d="M380.4,334.4V304.3m0,63V334.4" class="g0_617"/>
<path d="M513,367.3H626V334.4H513v32.9Z" class="g1_617"/>
<path d="M380.4,396.5V367.3m0,60.6V396.5m0,60.6V427.9M193,457.4H723.4m-530.4,0H723.4" class="g0_617"/>
</svg>