<?xml version="1.0" encoding="UTF-8" standalone="no"?>
<!DOCTYPE svg PUBLIC "-//W3C//DTD SVG 1.1//EN"
"http://www.w3.org/Graphics/SVG/1.1/DTD/svg11.dtd">
<svg viewBox="0 0 1286 909" version="1.1" xmlns="http://www.w3.org/2000/svg" xmlns:xlink="http://www.w3.org/1999/xlink">
<defs>
<style type="text/css"><![CDATA[
.g0_915{
fill: none;
stroke: #000000;
stroke-width: 0.73;
stroke-linecap: butt;
stroke-linejoin: miter;
}
.g1_915{
fill: none;
stroke: #F81693;
stroke-width: 1.461;
stroke-linecap: butt;
stroke-linejoin: miter;
stroke-dasharray: 2,2;
}
.g2_915{
fill: #FFCCCC;
}
.g3_915{
fill: none;
stroke: #02B5EE;
stroke-width: 0.73;
stroke-linecap: butt;
stroke-linejoin: miter;
}
.g4_915{
fill: none;
stroke: #02B5EE;
stroke-width: 1.262;
stroke-linecap: butt;
stroke-linejoin: miter;
}
.g5_915{
fill: none;
stroke: #5EE200;
stroke-width: 1.262;
stroke-linecap: butt;
stroke-linejoin: miter;
}
.g6_915{
fill: none;
stroke: #FFA313;
stroke-width: 1.262;
stroke-linecap: butt;
stroke-linejoin: miter;
}
]]></style>
</defs>
<path d="M193,83.4h900.3M193,111.6H982.5m-789.5,0H982.5M530.3,141.2V112m0,102.3V141.2" class="g0_915"/>
<path d="M625.2,186.2h81.7" class="g1_915"/>
<path d="M716.7,190.6h90.6V157.7H716.7v32.9Z" class="g2_915"/>
<path d="M887.1,200.4h84.4" class="g3_915"/>
<path d="M530.3,245.6V214.3m0,62.6V245.6m0,60.6V276.9m0,58.5V306.2m0,114.2v-85" class="g0_915"/>
<path d="M745.7,396.4h92.7" class="g4_915"/>
<path d="M848.9,396.4h24.3" class="g5_915"/>
<path d="M883.7,396.4h87.8" class="g6_915"/>
<path d="M530.3,449.6V420.4M193,450H982.5M193,450H982.5" class="g0_915"/>
</svg>