<?xml version="1.0" encoding="UTF-8" standalone="no"?>
<!DOCTYPE svg PUBLIC "-//W3C//DTD SVG 1.1//EN"
"http://www.w3.org/Graphics/SVG/1.1/DTD/svg11.dtd">
<svg viewBox="0 0 1286 909" version="1.1" xmlns="http://www.w3.org/2000/svg" xmlns:xlink="http://www.w3.org/1999/xlink">
<defs>
<style type="text/css"><![CDATA[
.g0_883{
fill: none;
stroke: #000000;
stroke-width: 0.73;
stroke-linecap: butt;
stroke-linejoin: miter;
}
.g1_883{
fill: none;
stroke: #02B5EE;
stroke-width: 1.262;
stroke-linecap: butt;
stroke-linejoin: miter;
}
.g2_883{
fill: none;
stroke: #5EE200;
stroke-width: 1.262;
stroke-linecap: butt;
stroke-linejoin: miter;
}
.g3_883{
fill: none;
stroke: #02B5EE;
stroke-width: 0.73;
stroke-linecap: butt;
stroke-linejoin: miter;
}
]]></style>
</defs>
<path d="M193,83.4h900.3M193,210.6H783.8m-590.8,0H783.8M457.9,240.2V211m0,58.5V240.2m0,114.3v-85" class="g0_883"/>
<path d="M468.9,330.5h96.5" class="g1_883"/>
<path d="M575.9,330.5H598" class="g2_883"/>
<path d="M457.9,383.7V354.5m0,58.4V383.7m0,114.3V412.9" class="g0_883"/>
<path d="M529.4,474H643.5" class="g1_883"/>
<path d="M457.9,527.2V498m0,102.2v-73" class="g0_883"/>
<path d="M705.3,586.4h67.5" class="g3_883"/>
<path d="M457.9,631.6V600.2m0,60.6V631.6m0,58.4V660.8m0,58.4V690M193,719.6H783.8m-590.8,0H783.8" class="g0_883"/>
</svg>