<?xml version="1.0" encoding="UTF-8" standalone="no"?>
<!DOCTYPE svg PUBLIC "-//W3C//DTD SVG 1.1//EN"
"http://www.w3.org/Graphics/SVG/1.1/DTD/svg11.dtd">
<svg viewBox="0 0 909 1286" version="1.1" xmlns="http://www.w3.org/2000/svg" xmlns:xlink="http://www.w3.org/1999/xlink">
<defs>
<style type="text/css"><![CDATA[
.g0_10{
fill: #FDE8E9;
}
.g1_10{
fill: none;
stroke: #000000;
stroke-width: 0.73;
stroke-linecap: butt;
stroke-linejoin: miter;
}
.g2_10{
fill: none;
stroke: #02B5EE;
stroke-width: 0.73;
stroke-linecap: butt;
stroke-linejoin: miter;
}
.g3_10{
fill: none;
stroke: #F81693;
stroke-width: 0.73;
stroke-linecap: butt;
stroke-linejoin: miter;
}
.g4_10{
fill: #FFFFFF;
}
.g5_10{
fill: none;
stroke: #02B5EE;
stroke-width: 1.461;
stroke-linecap: butt;
stroke-linejoin: miter;
}
]]></style>
</defs>
<path d="M524.3,242.6H644.1V217H524.3v25.6Z" class="g0_10"/>
<path d="M116.9,288.6H852.4M380.3,318.2V289M184.5,382.8l31.3,18.7M184.5,382.8l-24.8,14.8M247,382.8V346.3m-31.2,55.4L247,383m31.2,18.7L309.5,383m-31.3,18.7L247,383m24.8,-51.7L247,346.1m62.5,36.7l24.8,14.8m-27,-14.8V357.3m4.4,25.5V357.3M247.5,345L225.6,331.9m20.8,17.9L224.5,336.6m-42.2,46.2V357.3m4.4,25.5V357.3m193.6,61V318.2" class="g1_10"/>
<path d="M521.9,382.8l24.9,14.8M521.9,382.8l-24.8,14.8m87.3,-22.1V346.3" class="g2_10"/>
<path d="M559.5,397.8l18.3,-10.9" class="g3_10"/>
<path d="M622,397.8l25.2,-15" class="g2_10"/>
<path d="M609.2,397.8L591,386.9" class="g3_10"/>
<path d="M609.2,331.3l-24.8,14.8m62.5,36.7l24.8,14.8m-27,-14.8V357.3m4.3,25.5V357.3M584.9,345L563,331.9m20.8,17.9L561.9,336.6m-42.2,46.2V357.3m4.4,25.5V357.3" class="g2_10"/>
<path d="M380.3,447.5V418.3m0,58.4V447.5m0,58.4V476.7m0,58.5V505.9m0,58.5V535.2m0,58.4V564.4m0,89.3V593.6" class="g1_10"/>
<path d="M411.1,645.9V601.4c0,-2.9,2.4,-5.2,5.2,-5.2H833.7c2.9,0,5.2,2.3,5.2,5.2v44.5c0,2.8,-2.3,5.2,-5.2,5.2H416.3c-2.8,0,-5.2,-2.4,-5.2,-5.2Z" class="g4_10"/>
<path d="M544.9,640.1c1.4,0,2.1,-2.7,3.4,-2.7c1,0,1.9,1.3,2.8,2.7c.9,1.4,1.7,2.8,2.7,2.8c1,0,1.9,-1.4,2.8,-2.8c.8,-1.4,1.7,-2.7,2.7,-2.7c1,0,1.8,1.3,2.7,2.7c.9,1.4,1.8,2.8,2.8,2.8c1,0,1.8,-1.4,2.7,-2.8c.9,-1.4,1.8,-2.7,2.8,-2.7c.9,0,1.8,1.3,2.7,2.7c.9,1.4,1.7,2.8,2.7,2.8c1,0,1.9,-1.4,2.8,-2.8c.9,-1.4,1.7,-2.7,2.7,-2.7c1,0,1.9,1.3,2.8,2.7c.8,1.4,1.7,2.8,2.7,2.8c1,0,1.8,-1.4,2.7,-2.8c.9,-1.4,1.8,-2.7,2.8,-2.7c1,0,1.8,1.3,2.7,2.7c.9,1.4,1.8,2.8,2.8,2.8c.9,0,1.8,-1.4,2.7,-2.8c.9,-1.4,1.7,-2.7,2.7,-2.7c1,0,1.9,1.3,2.8,2.7c.9,1.4,1.7,2.8,2.7,2.8c1,0,1.9,-1.4,2.7,-2.8c.9,-1.4,1.8,-2.7,2.8,-2.7c1,0,1.8,1.3,2.7,2.7c.9,1.4,1.8,2.8,2.8,2.8c1,0,1.8,-1.4,2.7,-2.8c.9,-1.4,1.8,-2.7,2.7,-2.7c1.4,0,2.1,2.7,3.5,2.7H632" class="g5_10"/>
<path d="M380.3,682.9V653.7M116.9,683.2H852.4" class="g1_10"/>
</svg>