<?xml version="1.0" encoding="UTF-8" standalone="no"?>
<!DOCTYPE svg PUBLIC "-//W3C//DTD SVG 1.1//EN"
"http://www.w3.org/Graphics/SVG/1.1/DTD/svg11.dtd">
<svg viewBox="0 0 909 1286" version="1.1" xmlns="http://www.w3.org/2000/svg" xmlns:xlink="http://www.w3.org/1999/xlink">
<defs>
<clipPath id="c0_150"><path d="M119.5,416.8V389.5H789.9v27.3Z"/></clipPath>
<clipPath id="c1_150"><path d="M119.5,821.3V794.1H789.9v27.2Z"/></clipPath>
<style type="text/css"><![CDATA[
.g0_150{
fill: none;
stroke: #000000;
stroke-width: 0.73;
stroke-linecap: butt;
stroke-linejoin: miter;
}
.g1_150{
fill: #7F7F7F;
fill-opacity: 0.01;
}
.g2_150{
fill: #7F7F7F;
fill-opacity: 0.02;
}
.g3_150{
fill: #7F7F7F;
fill-opacity: 0.04;
}
.g4_150{
fill: #7F7F7F;
fill-opacity: 0.07;
}
.g5_150{
fill: #7F7F7F;
fill-opacity: 0.11;
}
.g6_150{
fill: #FFFFFF;
}
.g7_150{
fill: #7F7F7F;
}
.g8_150{
fill: #CBCEFB;
}
]]></style>
</defs>
<path d="M116.9,159.9H792.5" class="g0_150"/>
<path d="M122.2,392.2c221.7,0,443.4,0,665,0V626.4c-221.6,-9.3,-443.3,-9.3,-665,0Z" class="g1_150"/>
<path d="M122.9,392.9c221.2,0,442.4,0,663.7,0V625.8c-221.3,-9.4,-442.5,-9.4,-663.7,0Z" class="g2_150"/>
<path d="M123.5,393.5c220.8,0,441.6,0,662.5,0V625.2c-220.9,-9.4,-441.7,-9.4,-662.5,0Z" class="g3_150"/>
<path d="M124.1,394.1c220.4,0,440.8,0,661.2,0V624.5c-220.4,-9.3,-440.8,-9.3,-661.2,0Z" class="g4_150"/>
<path d="M124.7,394.7c220,0,440,0,660,0V623.9c-220,-9.3,-440,-9.3,-660,0Z" class="g5_150"/>
<path d="M125.4,395.4c219.5,0,439.1,0,658.7,0V623.3c-219.6,-9.4,-439.2,-9.4,-658.7,0Z" class="g5_150"/>
<path d="M126,396c219.1,0,438.3,0,657.5,0V622.7c-219.2,-9.4,-438.4,-9.4,-657.5,0Z" class="g4_150"/>
<path d="M126.6,396.6c218.8,0,437.5,0,656.3,0V622c-218.8,-9.3,-437.5,-9.3,-656.3,0Z" class="g3_150"/>
<path d="M127.2,397.2c218.4,0,436.7,0,655,0V621.4c-218.3,-9.3,-436.6,-9.3,-655,0Z" class="g2_150"/>
<path d="M127.9,397.9c217.9,0,435.8,0,653.7,0V620.8c-217.9,-9.4,-435.8,-9.4,-653.7,0Z" class="g1_150"/>
<path d="M116.9,616.1V386.9H792.5V616.1Z" class="g6_150"/>
<path d="M119.5,613.5V419.4H789.9V613.5Z" class="g6_150"/>
<path d="M119.5,416.8V389.5H789.9v27.3Z" class="g7_150"/>
<g clip-path="url(#c0_150)">
<image x="119" y="389" width="672" height="28" xlink:href="shade/1.png"/>
</g>
<path d="M155.9,451.8H753.5M156.3,472.3V452.2" class="g0_150"/>
<path d="M156.7,472.3h75.9V452.2H156.7v20.1Z" class="g8_150"/>
<path d="M233,472.3V452.2" class="g0_150"/>
<path d="M233.4,472.3h95.2V452.2H233.4v20.1Z" class="g8_150"/>
<path d="M329,472.3V452.2" class="g0_150"/>
<path d="M329.3,472.3h89.5V452.2H329.3v20.1Z" class="g8_150"/>
<path d="M419.2,472.3V452.2" class="g0_150"/>
<path d="M419.5,472.3h103V452.2h-103v20.1Z" class="g8_150"/>
<path d="M522.9,472.3V452.2" class="g0_150"/>
<path d="M523.3,472.3h89.4V452.2H523.3v20.1Z" class="g8_150"/>
<path d="M613.1,472.3V452.2" class="g0_150"/>
<path d="M613.5,472.3h62.6V452.2H613.5v20.1Z" class="g8_150"/>
<path d="M676.4,472.3V452.2" class="g0_150"/>
<path d="M676.8,472.3h76V452.2h-76v20.1Z" class="g8_150"/>
<path d="M753.1,472.3V452.2M155.9,472.6H753.5M156.3,493.1V473M233,493.1V473m96,20.1V473m90.2,20.1V473m103.7,20.1V473m90.2,20.1V473m63.3,20.1V473m76.7,20.1V473M155.9,493.5H753.5M156.3,513.9V493.8M233,513.9V493.8m96,20.1V493.8m90.2,20.1V493.8m103.7,20.1V493.8m90.2,20.1V493.8m63.3,20.1V493.8m76.7,20.1V493.8M155.9,514.3H753.5M156.3,534.7V514.6M233,534.7V514.6m96,20.1V514.6m90.2,20.1V514.6m103.7,20.1V514.6m90.2,20.1V514.6m63.3,20.1V514.6m76.7,20.1V514.6M155.9,535.1H753.5M156.3,555.6V535.5M233,555.6V535.5m96,20.1V535.5m90.2,20.1V535.5m103.7,20.1V535.5m90.2,20.1V535.5m63.3,20.1V535.5m76.7,20.1V535.5M155.9,555.9H753.5M156.3,576.4V556.3M233,576.4V556.3m96,20.1V556.3m90.2,20.1V556.3m103.7,20.1V556.3m90.2,20.1V556.3m63.3,20.1V556.3m76.7,20.1V556.3M155.9,576.7H753.5M156.3,597.2V577.1M233,597.2V577.1m96,20.1V577.1m90.2,20.1V577.1m103.7,20.1V577.1m90.2,20.1V577.1m63.3,20.1V577.1m76.7,20.1V577.1M155.9,597.6H753.5" class="g0_150"/>
<path d="M122.2,796.8c221.7,0,443.4,0,665,0v225.1c-221.6,-9.4,-443.3,-9.4,-665,0Z" class="g1_150"/>
<path d="M122.9,797.4c221.2,0,442.4,0,663.7,0v223.9c-221.3,-9.4,-442.5,-9.4,-663.7,0Z" class="g2_150"/>
<path d="M123.5,798c220.8,0,441.6,0,662.5,0v222.6c-220.9,-9.3,-441.7,-9.3,-662.5,0Z" class="g3_150"/>
<path d="M124.1,798.6c220.4,0,440.8,0,661.2,0V1020c-220.4,-9.3,-440.8,-9.3,-661.2,0Z" class="g4_150"/>
<path d="M124.7,799.3c220,0,440,0,660,0v220.1c-220,-9.4,-440,-9.4,-660,0Z" class="g5_150"/>
<path d="M125.4,799.9c219.5,0,439.1,0,658.7,0v218.9c-219.6,-9.4,-439.2,-9.4,-658.7,0Z" class="g5_150"/>
<path d="M126,800.5c219.1,0,438.3,0,657.5,0v217.6c-219.2,-9.3,-438.4,-9.3,-657.5,0Z" class="g4_150"/>
<path d="M126.6,801.1c218.8,0,437.5,0,656.3,0v216.4c-218.8,-9.3,-437.5,-9.3,-656.3,0Z" class="g3_150"/>
<path d="M127.2,801.8c218.4,0,436.7,0,655,0v215.1c-218.3,-9.4,-436.6,-9.4,-655,0Z" class="g2_150"/>
<path d="M127.9,802.4c217.9,0,435.8,0,653.7,0v213.9c-217.9,-9.4,-435.8,-9.4,-653.7,0Z" class="g1_150"/>
<path d="M116.9,1011.6V791.5H792.5v220.1Z" class="g6_150"/>
<path d="M119.5,1009V823.9H789.9V1009Z" class="g6_150"/>
<path d="M119.5,821.3V794.1H789.9v27.2Z" class="g7_150"/>
<g clip-path="url(#c1_150)">
<image x="119" y="793" width="672" height="28" xlink:href="shade/2.png"/>
</g>
<path d="M225.7,873.2H683.8M226,902.8V873.6" class="g0_150"/>
<path d="M226.4,902.8H337.7V873.6H226.4v29.2Z" class="g8_150"/>
<path d="M338,902.8V873.6" class="g0_150"/>
<path d="M338.4,902.8H452V873.6H338.4v29.2Z" class="g8_150"/>
<path d="M452.3,902.8V873.6" class="g0_150"/>
<path d="M452.7,902.8H559.1V873.6H452.7v29.2Z" class="g8_150"/>
<path d="M559.4,902.8V873.6" class="g0_150"/>
<path d="M559.8,902.8H683.1V873.6H559.8v29.2Z" class="g8_150"/>
<path d="M683.4,902.8V873.6M225.7,903.2H683.8M226,932.8V903.5m112,29.3V903.5m114.3,29.3V903.5m107.1,29.3V903.5m124,29.3V903.5M225.7,933.1H683.8M226,962.7V933.5m112,29.2V933.5m114.3,29.2V933.5m107.1,29.2V933.5m124,29.2V933.5M225.7,963.1H683.8M226,992.7V963.5m112,29.2V963.5m114.3,29.2V963.5m107.1,29.2V963.5m124,29.2V963.5M225.7,993H683.8" class="g0_150"/>
</svg>