<?xml version="1.0" encoding="UTF-8" standalone="no"?>
<!DOCTYPE svg PUBLIC "-//W3C//DTD SVG 1.1//EN"
"http://www.w3.org/Graphics/SVG/1.1/DTD/svg11.dtd">
<svg viewBox="0 0 909 1286" version="1.1" xmlns="http://www.w3.org/2000/svg" xmlns:xlink="http://www.w3.org/1999/xlink">
<defs>
<style type="text/css"><![CDATA[
.g0_24{
fill: none;
stroke: #000000;
stroke-width: 0.73;
stroke-linecap: butt;
stroke-linejoin: miter;
}
.g1_24{
fill: none;
stroke: #8007AC;
stroke-width: 0.66;
stroke-linecap: butt;
stroke-linejoin: round;
stroke-miterlimit: 1;
}
]]></style>
</defs>
<path d="M116.9,159.9H792.5M419.8,198.3h46.3M200.8,251.7H247" class="g0_24"/>
<path d="M417.8,320.7l9.1,-18.2" class="g1_24"/>
<path d="M486.9,313.4h46.2" class="g0_24"/>
<path d="M499.8,334.2L508.9,316" class="g1_24"/>
<path d="M419.8,392.6h41.3M419.8,516.9h39.9m-34.6,79.2h41.3" class="g0_24"/>
<path d="M466.7,600.7L492.2,588" class="g1_24"/>
<path d="M419.8,615.8h73.7" class="g0_24"/>
<path d="M443.9,632l25.5,-12.7" class="g1_24"/>
<path d="M419.8,690.2h41.3M388.9,900.7h45.7m-43.5,25.2h41.3M481.2,902h18.3m-38.3,23.9h41.3M439.8,966h18.3m-38.3,23.8h41.3m-21.3,52.9h18.3m-38.3,23.9h56.3" class="g0_24"/>
</svg>