<?xml version="1.0" encoding="UTF-8" standalone="no"?>
<!DOCTYPE svg PUBLIC "-//W3C//DTD SVG 1.1//EN"
"http://www.w3.org/Graphics/SVG/1.1/DTD/svg11.dtd">
<svg viewBox="0 0 909 1286" version="1.1" xmlns="http://www.w3.org/2000/svg" xmlns:xlink="http://www.w3.org/1999/xlink">
<defs>
<style type="text/css"><![CDATA[
.g0_38{
fill: #FDE8E9;
}
.g1_38{
fill: none;
stroke: #000000;
stroke-width: 0.73;
stroke-linecap: butt;
stroke-linejoin: miter;
}
.g2_38{
fill: none;
stroke: #7F7F7F;
stroke-width: 1.461;
stroke-linecap: butt;
stroke-linejoin: miter;
}
.g3_38{
fill: none;
stroke: #7F7F7F;
stroke-width: 1.461;
stroke-linecap: round;
stroke-linejoin: round;
}
.g4_38{
fill: none;
stroke: #000000;
stroke-width: 9.132;
stroke-linecap: butt;
stroke-linejoin: miter;
}
.g5_38{
fill: none;
stroke: #F81693;
stroke-width: 0.73;
stroke-linecap: butt;
stroke-linejoin: miter;
}
.g6_38{
fill: none;
stroke: #02B5EE;
stroke-width: 0.73;
stroke-linecap: butt;
stroke-linejoin: miter;
}
.g7_38{
fill: none;
stroke: #8007AC;
stroke-width: 0.73;
stroke-linecap: butt;
stroke-linejoin: miter;
}
.g8_38{
fill: none;
stroke: #02B5EE;
stroke-width: 1.461;
stroke-linecap: butt;
stroke-linejoin: miter;
}
.g9_38{
fill: none;
stroke: #8007AC;
stroke-width: 1.461;
stroke-linecap: butt;
stroke-linejoin: miter;
}
.ga_38{
fill: none;
stroke: #F81693;
stroke-width: 1.461;
stroke-linecap: butt;
stroke-linejoin: miter;
}
.gb_38{
fill: #FFFFFF;
}
]]></style>
</defs>
<path d="M176.6,241.8H471.2V210.6H176.6v31.2Z" class="g0_38"/>
<path d="M116.9,267.4H783.4M117.3,589.6V267.7" class="g1_38"/>
<path d="M186.6,496.2H304.7" class="g2_38"/>
<path d="M300.7,490.5c.9,3.4,2.8,5,4.7,5.7c-1.9,.6,-3.8,2.2,-4.7,5.7" class="g3_38"/>
<path d="M783,589.6V267.7M116.9,590H783.4" class="g1_38"/>
<path d="M126.1,594.9H792.5m-4.6,4.6V276.1" class="g4_38"/>
<path d="M116.9,630.9H778.2M289,660.5V631.3m-67.9,80.2l24.8,14.8M221.1,711.5l-31.3,18.6m0,.2L165,715.5m22.6,14.8v25.5M192,730.3v25.5m26.9,-44.3V685.9m4.3,25.6V685.9m65.8,93V660.5" class="g1_38"/>
<path d="M439.7,715.3l18.3,11m-31.1,-11l-18.2,11" class="g5_38"/>
<path d="M395.7,726.4L377.4,715.5" class="g6_38"/>
<path d="M399.9,735.8v20m4.4,-20v20" class="g7_38"/>
<path d="M431.1,706V685.9m4.4,20.1V685.9" class="g5_38"/>
<path d="M289,808.1V778.9m0,58.4V808.1m0,58.4V837.3m0,58.5V866.5m0,58.5V895.8m0,58.4V925" class="g1_38"/>
<path d="M354.5,952.7c1.4,0,2.1,-2.7,3.4,-2.7c1,0,1.9,1.3,2.8,2.7c.9,1.4,1.7,2.8,2.7,2.8c1,0,1.9,-1.4,2.8,-2.8c.9,-1.4,1.7,-2.7,2.7,-2.7c1.4,0,2.1,2.7,3.4,2.7h3.9" class="g8_38"/>
<path d="M451.9,952.7c1.4,0,2.1,-2.7,3.4,-2.7c1,0,1.9,1.3,2.8,2.7c.9,1.4,1.7,2.8,2.7,2.8c1,0,1.9,-1.4,2.8,-2.8c.9,-1.4,1.7,-2.7,2.7,-2.7c1.4,0,2.1,2.7,3.4,2.7h3.9" class="g9_38"/>
<path d="M517.4,952.7c1.4,0,2.1,-2.7,3.5,-2.7c1,0,1.8,1.3,2.7,2.7c.9,1.4,1.7,2.8,2.7,2.8c1,0,1.9,-1.4,2.8,-2.8c.9,-1.4,1.7,-2.7,2.7,-2.7c1,0,1.9,1.3,2.8,2.7c.9,1.4,1.7,2.8,2.7,2.8c1,0,1.8,-1.4,2.7,-2.8c.9,-1.4,1.8,-2.7,2.8,-2.7c1,0,1.8,1.3,2.7,2.7c.9,1.4,1.8,2.8,2.8,2.8c.9,0,1.8,-1.4,2.7,-2.8c.9,-1.4,1.7,-2.7,2.7,-2.7c1,0,1.9,1.3,2.8,2.7c.9,1.4,1.7,2.8,2.7,2.8c1,0,1.9,-1.4,2.8,-2.8c.8,-1.4,1.7,-2.7,2.7,-2.7c1,0,1.8,1.3,2.7,2.7c.9,1.4,1.8,2.8,2.8,2.8c1,0,1.8,-1.4,2.7,-2.8c.9,-1.4,1.8,-2.7,2.8,-2.7c.9,0,1.8,1.3,2.7,2.7c.9,1.4,1.7,2.8,2.7,2.8c1,0,1.9,-1.4,2.8,-2.8c.9,-1.4,1.7,-2.7,2.7,-2.7c1,0,1.9,1.3,2.8,2.7c.8,1.4,1.7,2.8,2.7,2.8c1,0,1.8,-1.4,2.7,-2.8c.9,-1.4,1.8,-2.7,2.8,-2.7c1,0,1.8,1.3,2.7,2.7c.9,1.4,1.8,2.8,2.8,2.8c.9,0,1.8,-1.4,2.7,-2.8c.9,-1.4,1.7,-2.7,2.7,-2.7c1,0,1.9,1.3,2.8,2.7c.9,1.4,1.7,2.8,2.7,2.8c1,0,1.9,-1.4,2.8,-2.8c.8,-1.4,1.7,-2.7,2.7,-2.7c1,0,1.8,1.3,2.7,2.7c.9,1.4,1.8,2.8,2.8,2.8c1,0,1.8,-1.4,2.7,-2.8c.9,-1.4,1.8,-2.7,2.7,-2.7c1,0,1.9,1.3,2.8,2.7c.9,1.4,1.7,2.8,2.7,2.8c1.4,0,2.1,-2.8,3.5,-2.8H643" class="ga_38"/>
<path d="M289,983.4V954.2m0,105.7V983.4" class="g1_38"/>
<path d="M366.6,1052.2v-61c0,-2.8,2.3,-5.2,5.2,-5.2H599.4c2.9,0,5.2,2.4,5.2,5.2v61c0,2.8,-2.3,5.1,-5.2,5.1H371.8c-2.9,0,-5.2,-2.3,-5.2,-5.1Z" class="gb_38"/>
<path d="M452.3,1080.6h66.6v-14.2H452.3v14.2Z" class="g0_38"/>
<path d="M392.6,1041.8H578.7v-40.2H392.6v40.2Z" class="g0_38"/>
<path d="M289,1089.2v-29.3m-172.1,29.6H778.2" class="g1_38"/>
</svg>