<?xml version="1.0" encoding="UTF-8" standalone="no"?>
<!DOCTYPE svg PUBLIC "-//W3C//DTD SVG 1.1//EN"
"http://www.w3.org/Graphics/SVG/1.1/DTD/svg11.dtd">
<svg viewBox="0 0 909 1286" version="1.1" xmlns="http://www.w3.org/2000/svg" xmlns:xlink="http://www.w3.org/1999/xlink">
<defs>
<style type="text/css"><![CDATA[
.g0_11{
fill: none;
stroke: #000000;
stroke-width: 0.73;
stroke-linecap: butt;
stroke-linejoin: miter;
}
.g1_11{
fill: #FFFFFF;
}
.g2_11{
fill: none;
stroke: #02B5EE;
stroke-width: 0.73;
stroke-linecap: butt;
stroke-linejoin: miter;
}
.g3_11{
fill: none;
stroke: #F81693;
stroke-width: 0.73;
stroke-linecap: butt;
stroke-linejoin: miter;
}
.g4_11{
fill: #FDE8E9;
}
]]></style>
</defs>
<path d="M116.9,282.3H532.4M234.2,311.9V282.7m-66.8,51.1l24.8,14.8M154.6,333.8l-24.9,14.8m104.5,20.9V311.9" class="g0_11"/>
<path d="M248.1,361.7v-42c0,-2.8,2.4,-5.2,5.2,-5.2H355.7c2.9,0,5.2,2.4,5.2,5.2v42c0,2.8,-2.3,5.2,-5.2,5.2H253.3c-2.8,0,-5.2,-2.4,-5.2,-5.2Z" class="g1_11"/>
<path d="M234.2,398.7V369.5m0,58.4V398.7M116.9,428.3H532.4M234.2,457.9V428.6m-66.8,45.3l24.8,14.8M154.6,473.9l-18.3,11m97.9,18.3V457.9" class="g0_11"/>
<path d="M358.6,473.9l24.9,14.8M345.8,473.9l-18.2,11" class="g2_11"/>
<path d="M311.9,502.4l-18.3,11" class="g3_11"/>
<path d="M234.2,532.4V503.2m0,58.4V532.4m0,58.4V561.6m0,63.7V590.8m0,63.7V625.3M116.9,654.9H532.4M234.2,684.5V655.2m-39.5,45.3l24.9,14.8M182,700.5l-18.3,11m70.5,18.3V684.5" class="g0_11"/>
<path d="M386,700.5l24.9,14.8M373.2,700.5l-18.2,11" class="g2_11"/>
<path d="M339.3,729L321,740" class="g3_11"/>
<path d="M234.2,759V729.8m0,58.4V759m0,58.4V788.2m0,60.1V817.4m0,60.1V848.3m0,104.9V877.5" class="g0_11"/>
<path d="M311.8,945.4V885.3c0,-2.9,2.3,-5.2,5.2,-5.2H505.2c2.9,0,5.2,2.3,5.2,5.2v60.1c0,2.9,-2.3,5.2,-5.2,5.2H317c-2.9,0,-5.2,-2.3,-5.2,-5.2Z" class="g1_11"/>
<path d="M382.5,976.4h57.2V959.7H382.5v16.7Z" class="g4_11"/>
<path d="M337.8,935H484.4V895.7H337.8V935Z" class="g4_11"/>
<path d="M234.2,982.4V953.2M116.9,982.8H532.4" class="g0_11"/>
</svg>