<?xml version="1.0" encoding="UTF-8" standalone="no"?>
<!DOCTYPE svg PUBLIC "-//W3C//DTD SVG 1.1//EN"
"http://www.w3.org/Graphics/SVG/1.1/DTD/svg11.dtd">
<svg viewBox="0 0 1286 909" version="1.1" xmlns="http://www.w3.org/2000/svg" xmlns:xlink="http://www.w3.org/1999/xlink">
<defs>
<style type="text/css"><![CDATA[
.g0_155{
fill: none;
stroke: #000000;
stroke-width: 0.73;
stroke-linecap: butt;
stroke-linejoin: miter;
}
.g1_155{
fill: none;
stroke: #02B5EE;
stroke-width: 1.262;
stroke-linecap: butt;
stroke-linejoin: miter;
}
.g2_155{
fill: none;
stroke: #5EE200;
stroke-width: 1.262;
stroke-linecap: butt;
stroke-linejoin: miter;
}
.g3_155{
fill: none;
stroke: #5EE200;
stroke-width: 0.73;
stroke-linecap: butt;
stroke-linejoin: miter;
}
.g4_155{
fill: none;
stroke: #02B5EE;
stroke-width: 0.73;
stroke-linecap: butt;
stroke-linejoin: miter;
}
]]></style>
</defs>
<path d="M193,83.4h900.3M193,111.6H906.4m-713.4,0H906.4M457.9,141.2V112m0,114.3V141.2" class="g0_155"/>
<path d="M604,202.3H717.2" class="g1_155"/>
<path d="M727.7,202.3h22.2" class="g2_155"/>
<path d="M457.9,255.5V226.3m0,102.2v-73" class="g0_155"/>
<path d="M691.6,314.7h34.3" class="g3_155"/>
<path d="M827.9,314.7h67.6" class="g4_155"/>
<path d="M457.9,357.8V328.5m0,58.5V357.8m0,114.2V387" class="g0_155"/>
<path d="M693.4,448H862.5" class="g1_155"/>
<path d="M873,448h22.5" class="g2_155"/>
<path d="M457.9,501.2V472m0,102.3V501.2" class="g0_155"/>
<path d="M742.8,560.4h34.4" class="g3_155"/>
<path d="M777.2,560.4H895.5" class="g4_155"/>
<path d="M457.9,605.6V574.3m0,60.6V605.6m0,58.5V634.9m0,58.4V664.1M193,693.7H906.4m-713.4,0H906.4" class="g0_155"/>
</svg>