<?xml version="1.0" encoding="UTF-8" standalone="no"?>
<!DOCTYPE svg PUBLIC "-//W3C//DTD SVG 1.1//EN"
"http://www.w3.org/Graphics/SVG/1.1/DTD/svg11.dtd">
<svg viewBox="0 0 909 1286" version="1.1" xmlns="http://www.w3.org/2000/svg" xmlns:xlink="http://www.w3.org/1999/xlink">
<defs>
<style type="text/css"><![CDATA[
.g0_75{
fill: none;
stroke: #000000;
stroke-width: 0.73;
stroke-linecap: butt;
stroke-linejoin: miter;
}
.g1_75{
fill: none;
stroke: #000000;
stroke-width: 1.461;
stroke-linecap: butt;
stroke-linejoin: miter;
}
.g2_75{
}
.g3_75{
fill: #F81693;
fill-opacity: 0.25;
stroke: #F81693;
stroke-width: 0.73;
stroke-linecap: butt;
stroke-linejoin: miter;
stroke-opacity: 0.25;
}
.g4_75{
fill: #02B5EE;
fill-opacity: 0.25;
stroke: #02B5EE;
stroke-width: 0.73;
stroke-linecap: butt;
stroke-linejoin: miter;
stroke-opacity: 0.25;
}
.g5_75{
fill: #5EE200;
fill-opacity: 0.25;
stroke: #5EE200;
stroke-width: 0.73;
stroke-linecap: butt;
stroke-linejoin: miter;
stroke-opacity: 0.25;
}
.g6_75{
fill: #FFF200;
fill-opacity: 0.75;
stroke: #FFF200;
stroke-width: 0.73;
stroke-linecap: butt;
stroke-linejoin: miter;
stroke-opacity: 0.75;
}
]]></style>
</defs>
<path d="M184.9,564.1V179.5" class="g0_75"/>
<path d="M550,363.9c0,-21.5,-17.5,-39,-39,-39c-21.5,0,-39,17.5,-39,39c0,21.5,17.5,39,39,39c21.5,0,39,-17.5,39,-39Z" class="g1_75"/>
<path d="M494.8,328.4l-11.7,14.5l2.2,-10.1l-9.1,-5Z" class="g2_75"/>
<path d="M511,308.6l30.7,-30.7h-13V261.5H493.2v16.4H480.3Z" class="g3_75"/>
<path d="M511,464.5l30.7,-30.7h-13V417.4H493.3v16.4h-13Z" class="g4_75"/>
<path d="M705.4,363.9L677.7,336.2v13H565.1v29.4H677.7v13Z" class="g5_75"/>
<path d="M277.1,247V188.5H588.9V247Z" class="g6_75"/>
<path d="M277.1,471.1v58.5H588.9V471.1Z" class="g6_75"/>
<path d="M184.9,593.3V564.1m0,58.5V593.3m0,66.4V622.6m0,421.7V659.7" class="g0_75"/>
<path d="M394.1,844.1c0,-21.6,-17.5,-39,-39,-39c-21.5,0,-39,17.4,-39,39c0,21.5,17.5,38.9,39,38.9c21.5,0,39,-17.4,39,-38.9Z" class="g1_75"/>
<path d="M338.9,808.6l18.5,.7l-9.1,-5l2.2,-10.2Z" class="g2_75"/>
<path d="M355.1,743.5l-30.7,30.7h13v16.3h35.4V774.2h13Z" class="g4_75"/>
<path d="M355.1,889.6l-30.7,30.7h13v16.4h35.4V920.3h13Z" class="g3_75"/>
<path d="M550,844.1c0,-21.6,-17.5,-39,-39,-39c-21.5,0,-39,17.4,-39,39c0,21.5,17.5,38.9,39,38.9c21.5,0,39,-17.4,39,-38.9Z" class="g1_75"/>
<path d="M494.8,808.6l-11.7,14.5l2.2,-10.2L476.2,808Z" class="g2_75"/>
<path d="M511,788.8l30.7,-30.7h-13V741.7H493.2v16.4H480.3Z" class="g3_75"/>
<path d="M511,944.7L541.7,914h-13V897.6H493.3V914h-13Z" class="g4_75"/>
<path d="M705.4,844.1L677.7,816.4v13H565.1v29.3H677.7v13Z" class="g5_75"/>
<path d="M277.1,727.1V668.7H588.9v58.4Z" class="g6_75"/>
<path d="M277.1,951.3v58.4H588.9V951.3Z" class="g6_75"/>
<path d="M184.9,1073.5v-29.2m0,58.4v-29.2m0,58.4v-29.2" class="g0_75"/>
</svg>