<?xml version="1.0" encoding="UTF-8" standalone="no"?>
<!DOCTYPE svg PUBLIC "-//W3C//DTD SVG 1.1//EN"
"http://www.w3.org/Graphics/SVG/1.1/DTD/svg11.dtd">
<svg viewBox="0 0 1286 909" version="1.1" xmlns="http://www.w3.org/2000/svg" xmlns:xlink="http://www.w3.org/1999/xlink">
<defs>
<style type="text/css"><![CDATA[
.g0_858{
fill: none;
stroke: #000000;
stroke-width: 0.73;
stroke-linecap: butt;
stroke-linejoin: miter;
}
.g1_858{
fill: #B3E9FA;
}
.g2_858{
fill: none;
stroke: #02B5EE;
stroke-width: 1.262;
stroke-linecap: butt;
stroke-linejoin: miter;
}
.g3_858{
fill: none;
stroke: #5EE200;
stroke-width: 1.262;
stroke-linecap: butt;
stroke-linejoin: miter;
}
.g4_858{
fill: none;
stroke: #5EE200;
stroke-width: 0.73;
stroke-linecap: butt;
stroke-linejoin: miter;
}
.g5_858{
fill: none;
stroke: #02B5EE;
stroke-width: 0.73;
stroke-linecap: butt;
stroke-linejoin: miter;
}
]]></style>
</defs>
<path d="M193,83.4h900.3M193,111.6H792.5m-599.5,0H792.5M474.4,141.2V112m0,114.3V141.2" class="g0_858"/>
<path d="M620.8,176.5V164.3c0,-2.9,2.4,-5.2,5.2,-5.2h79.9c2.9,0,5.2,2.3,5.2,5.2v12.2c0,2.9,-2.3,5.2,-5.2,5.2H626c-2.8,0,-5.2,-2.3,-5.2,-5.2Z" class="g1_858"/>
<path d="M618.2,202.3h95.5" class="g2_858"/>
<path d="M724.2,202.3h57.4" class="g3_858"/>
<path d="M474.4,255.5V226.3m0,58.4V255.5m0,59.4V284.7m0,59.4V314.9m0,58.4V344.1m0,114.3V373.3" class="g0_858"/>
<path d="M525.8,434.4h57.1" class="g2_858"/>
<path d="M593.5,434.4H781.6" class="g3_858"/>
<path d="M474.4,487.6V458.4m0,102.2v-73" class="g0_858"/>
<path d="M646.4,546.8h84.5" class="g4_858"/>
<path d="M730.9,546.8h50.7" class="g5_858"/>
<path d="M474.4,589.9V560.6M193,590.2H792.5m-599.5,0H792.5" class="g0_858"/>
</svg>