<?xml version="1.0" encoding="UTF-8" standalone="no"?>
<!DOCTYPE svg PUBLIC "-//W3C//DTD SVG 1.1//EN"
"http://www.w3.org/Graphics/SVG/1.1/DTD/svg11.dtd">
<svg viewBox="0 0 1286 909" version="1.1" xmlns="http://www.w3.org/2000/svg" xmlns:xlink="http://www.w3.org/1999/xlink">
<defs>
<style type="text/css"><![CDATA[
.g0_770{
fill: none;
stroke: #000000;
stroke-width: 0.73;
stroke-linecap: butt;
stroke-linejoin: miter;
}
.g1_770{
fill: none;
stroke: #02B5EE;
stroke-width: 1.262;
stroke-linecap: butt;
stroke-linejoin: miter;
}
.g2_770{
fill: #B3E9FA;
}
.g3_770{
fill: none;
stroke: #5EE200;
stroke-width: 1.262;
stroke-linecap: butt;
stroke-linejoin: miter;
}
]]></style>
</defs>
<path d="M193,83.4h900.3M193,210.6H711.5m-518.5,0H711.5M457.4,240.2V211m0,58.5V240.2m0,114.3v-85" class="g0_770"/>
<path d="M468.3,330.5H569.6" class="g1_770"/>
<path d="M457.4,383.7V354.5m0,58.4V383.7m0,114.3V412.9" class="g0_770"/>
<path d="M552.7,448.2v-5c0,-2.9,2.3,-5.2,5.2,-5.2h67c2.9,0,5.2,2.3,5.2,5.2v5c0,2.8,-2.3,5.2,-5.2,5.2h-67c-2.9,0,-5.2,-2.4,-5.2,-5.2Z" class="g2_770"/>
<path d="M550.1,474h82.6" class="g1_770"/>
<path d="M643.2,474h57.3" class="g3_770"/>
<path d="M457.4,527.2V498M193,527.5H711.5m-518.5,0H711.5" class="g0_770"/>
</svg>