<?xml version="1.0" encoding="UTF-8" standalone="no"?>
<!DOCTYPE svg PUBLIC "-//W3C//DTD SVG 1.1//EN"
"http://www.w3.org/Graphics/SVG/1.1/DTD/svg11.dtd">
<svg viewBox="0 0 1286 909" version="1.1" xmlns="http://www.w3.org/2000/svg" xmlns:xlink="http://www.w3.org/1999/xlink">
<defs>
<style type="text/css"><![CDATA[
.g0_863{
fill: none;
stroke: #000000;
stroke-width: 0.73;
stroke-linecap: butt;
stroke-linejoin: miter;
}
.g1_863{
fill: none;
stroke: #5EE200;
stroke-width: 0.73;
stroke-linecap: butt;
stroke-linejoin: miter;
}
.g2_863{
fill: none;
stroke: #02B5EE;
stroke-width: 0.73;
stroke-linecap: butt;
stroke-linejoin: miter;
}
.g3_863{
fill: #B3E9FA;
}
.g4_863{
fill: none;
stroke: #02B5EE;
stroke-width: 1.262;
stroke-linecap: butt;
stroke-linejoin: miter;
}
.g5_863{
fill: none;
stroke: #5EE200;
stroke-width: 1.262;
stroke-linecap: butt;
stroke-linejoin: miter;
}
]]></style>
</defs>
<path d="M193,83.4h900.3M193,111.6h885.2m-885.2,0h885.2M595.9,141.2V112m0,102.3V141.2" class="g0_863"/>
<path d="M813.4,200.4h34.3" class="g1_863"/>
<path d="M982.8,200.4h84.5" class="g2_863"/>
<path d="M595.9,243.5V214.3m0,58.4V243.5m0,114.3V272.7" class="g0_863"/>
<path d="M850.9,308V295.8c0,-2.9,2.4,-5.2,5.2,-5.2h79.4c2.8,0,5.2,2.3,5.2,5.2V308c0,2.9,-2.4,5.2,-5.2,5.2H856.1c-2.8,0,-5.2,-2.3,-5.2,-5.2Z" class="g3_863"/>
<path d="M848.3,333.8h95" class="g4_863"/>
<path d="M953.8,333.8h113.5" class="g5_863"/>
<path d="M595.9,387V357.8m0,58.4V387m0,114.2v-85" class="g0_863"/>
<path d="M910.6,451.5v-5c0,-2.9,2.4,-5.2,5.2,-5.2h82.5c2.8,0,5.1,2.3,5.1,5.2v5c0,2.8,-2.3,5.2,-5.1,5.2H915.8c-2.8,0,-5.2,-2.4,-5.2,-5.2Z" class="g3_863"/>
<path d="M908,477.3h98" class="g4_863"/>
<path d="M1016.6,477.3h50.7" class="g5_863"/>
<path d="M595.9,530.5V501.2m0,58.5V530.5m0,59.4V559.7m0,59.4V589.9M193,619.4h885.2m-885.2,0h885.2" class="g0_863"/>
</svg>