<?xml version="1.0" encoding="UTF-8" standalone="no"?>
<!DOCTYPE svg PUBLIC "-//W3C//DTD SVG 1.1//EN"
"http://www.w3.org/Graphics/SVG/1.1/DTD/svg11.dtd">
<svg viewBox="0 0 1286 909" version="1.1" xmlns="http://www.w3.org/2000/svg" xmlns:xlink="http://www.w3.org/1999/xlink">
<defs>
<style type="text/css"><![CDATA[
.g0_305{
fill: none;
stroke: #000000;
stroke-width: 0.73;
stroke-linecap: butt;
stroke-linejoin: miter;
}
.g1_305{
fill: none;
stroke: #02B5EE;
stroke-width: 1.262;
stroke-linecap: butt;
stroke-linejoin: miter;
}
.g2_305{
fill: none;
stroke: #5EE200;
stroke-width: 1.262;
stroke-linecap: butt;
stroke-linejoin: miter;
}
.g3_305{
fill: none;
stroke: #5EE200;
stroke-width: 0.73;
stroke-linecap: butt;
stroke-linejoin: miter;
}
.g4_305{
fill: none;
stroke: #02B5EE;
stroke-width: 0.73;
stroke-linecap: butt;
stroke-linejoin: miter;
}
]]></style>
</defs>
<path d="M193,83.4h900.3M193,210.6H587m-394,0H587M333,240.2V211m0,58.5V240.2m0,114.3v-85" class="g0_305"/>
<path d="M344,330.5h51.7" class="g1_305"/>
<path d="M553.6,330.5H576" class="g2_305"/>
<path d="M333,383.7V354.5m0,102.3V383.7" class="g0_305"/>
<path d="M423.3,442.9h34.5" class="g3_305"/>
<path d="M525.3,442.9H576" class="g4_305"/>
<path d="M333,486V456.8M333,559V486" class="g0_305"/>
<path d="M423.3,545.2h34.5" class="g3_305"/>
<path d="M457.8,545.2h33.8" class="g4_305"/>
<path d="M333,590.4V559m0,60.6V590.4M193,620H587m-394,0H587" class="g0_305"/>
</svg>