<?xml version="1.0" encoding="UTF-8" standalone="no"?>
<!DOCTYPE svg PUBLIC "-//W3C//DTD SVG 1.1//EN"
"http://www.w3.org/Graphics/SVG/1.1/DTD/svg11.dtd">
<svg viewBox="0 0 1286 909" version="1.1" xmlns="http://www.w3.org/2000/svg" xmlns:xlink="http://www.w3.org/1999/xlink">
<defs>
<style type="text/css"><![CDATA[
.g0_634{
fill: none;
stroke: #000000;
stroke-width: 0.73;
stroke-linecap: butt;
stroke-linejoin: miter;
}
.g1_634{
fill: #B3E9FA;
}
.g2_634{
fill: none;
stroke: #02B5EE;
stroke-width: 1.262;
stroke-linecap: butt;
stroke-linejoin: miter;
}
.g3_634{
fill: none;
stroke: #5EE200;
stroke-width: 1.262;
stroke-linecap: butt;
stroke-linejoin: miter;
}
.g4_634{
fill: #FFCCCC;
}
.g5_634{
fill: none;
stroke: #02B5EE;
stroke-width: 0.73;
stroke-linecap: butt;
stroke-linejoin: miter;
}
]]></style>
</defs>
<path d="M193,83.4h900.3M193,210.6H893.8m-700.8,0H893.8M563.6,240.2V211m0,58.5V240.2m0,114.3v-85" class="g0_634"/>
<path d="M577.1,304.7V292.5c0,-2.9,2.4,-5.2,5.2,-5.2h74.1c2.8,0,5.2,2.3,5.2,5.2v12.2c0,2.9,-2.4,5.2,-5.2,5.2H582.3c-2.8,0,-5.2,-2.3,-5.2,-5.2Z" class="g1_634"/>
<path d="M574.5,330.5h89.6" class="g2_634"/>
<path d="M674.7,330.5H882.8" class="g3_634"/>
<path d="M563.6,383.7V354.5m0,58.4V383.7m0,114.3V412.9" class="g0_634"/>
<path d="M720.9,474h32.2" class="g2_634"/>
<path d="M774.1,462.2H882.8V429.4H774.1v32.8Z" class="g4_634"/>
<path d="M563.6,527.2V498m0,102.2v-73" class="g0_634"/>
<path d="M681.7,576.5H849.1V543.6H681.7v32.9Z" class="g4_634"/>
<path d="M849.1,586.4h33.7" class="g5_634"/>
<path d="M563.6,629.5V600.2M193,629.8H893.8m-700.8,0H893.8" class="g0_634"/>
</svg>