<?xml version="1.0" encoding="UTF-8" standalone="no"?>
<!DOCTYPE svg PUBLIC "-//W3C//DTD SVG 1.1//EN"
"http://www.w3.org/Graphics/SVG/1.1/DTD/svg11.dtd">
<svg viewBox="0 0 1286 909" version="1.1" xmlns="http://www.w3.org/2000/svg" xmlns:xlink="http://www.w3.org/1999/xlink">
<defs>
<style type="text/css"><![CDATA[
.g0_683{
fill: none;
stroke: #000000;
stroke-width: 0.73;
stroke-linecap: butt;
stroke-linejoin: miter;
}
.g1_683{
fill: none;
stroke: #02B5EE;
stroke-width: 0.73;
stroke-linecap: butt;
stroke-linejoin: miter;
}
.g2_683{
fill: #B3E9FA;
}
.g3_683{
fill: none;
stroke: #02B5EE;
stroke-width: 1.262;
stroke-linecap: butt;
stroke-linejoin: miter;
}
.g4_683{
fill: none;
stroke: #5EE200;
stroke-width: 1.262;
stroke-linecap: butt;
stroke-linejoin: miter;
}
.g5_683{
fill: none;
stroke: #FFA313;
stroke-width: 1.262;
stroke-linecap: butt;
stroke-linejoin: miter;
}
]]></style>
</defs>
<path d="M193,83.4h900.3M193,111.6H968.4m-775.4,0H968.4M506.7,141.2V112m0,58.5V141.2m0,102.3v-73" class="g0_683"/>
<path d="M771.7,229.6H957.5" class="g1_683"/>
<path d="M506.7,274.8V243.5m0,60.6V274.8m0,58.5V304.1m0,114.2v-85" class="g0_683"/>
<path d="M703.6,368.5V356.3c0,-2.8,2.3,-5.2,5.2,-5.2h78.4c2.9,0,5.2,2.4,5.2,5.2v12.2c0,2.9,-2.3,5.2,-5.2,5.2H708.8c-2.9,0,-5.2,-2.3,-5.2,-5.2Z" class="g2_683"/>
<path d="M701,394.3h94" class="g3_683"/>
<path d="M805.5,394.3h152" class="g4_683"/>
<path d="M506.7,447.5V418.3m0,58.5V447.5m0,114.3v-85" class="g0_683"/>
<path d="M770.8,518.3V499.8c0,-2.9,2.3,-5.2,5.2,-5.2h59.2c2.8,0,5.2,2.3,5.2,5.2v18.5c0,2.9,-2.4,5.2,-5.2,5.2H776c-2.9,0,-5.2,-2.3,-5.2,-5.2Z" class="g2_683"/>
<path d="M768.2,537.8H843" class="g3_683"/>
<path d="M853.5,537.8h104" class="g4_683"/>
<path d="M506.7,591V561.8m0,58.4V591m0,114.3V620.2" class="g0_683"/>
<path d="M681.8,681.3h34.6" class="g3_683"/>
<path d="M726.9,681.3H828.1" class="g5_683"/>
<path d="M506.7,734.5V705.3M193,734.9H968.4m-775.4,0H968.4" class="g0_683"/>
</svg>