<?xml version="1.0" encoding="UTF-8" standalone="no"?>
<!DOCTYPE svg PUBLIC "-//W3C//DTD SVG 1.1//EN"
"http://www.w3.org/Graphics/SVG/1.1/DTD/svg11.dtd">
<svg viewBox="0 0 1286 909" version="1.1" xmlns="http://www.w3.org/2000/svg" xmlns:xlink="http://www.w3.org/1999/xlink">
<defs>
<style type="text/css"><![CDATA[
.g0_861{
fill: none;
stroke: #000000;
stroke-width: 0.73;
stroke-linecap: butt;
stroke-linejoin: miter;
}
.g1_861{
fill: none;
stroke: #02B5EE;
stroke-width: 1.262;
stroke-linecap: butt;
stroke-linejoin: miter;
}
.g2_861{
fill: none;
stroke: #5EE200;
stroke-width: 1.262;
stroke-linecap: butt;
stroke-linejoin: miter;
}
.g3_861{
fill: none;
stroke: #5EE200;
stroke-width: 0.73;
stroke-linecap: butt;
stroke-linejoin: miter;
}
.g4_861{
fill: none;
stroke: #02B5EE;
stroke-width: 0.73;
stroke-linecap: butt;
stroke-linejoin: miter;
}
]]></style>
</defs>
<path d="M193,83.4h900.3M193,210.6h885.2m-885.2,0h885.2M595.9,240.2V211m0,58.5V240.2m0,59.4V269.5m0,59.3V299.6m0,58.5V328.8m0,114.3v-85" class="g0_861"/>
<path d="M803.9,419.1h75.4" class="g1_861"/>
<path d="M889.8,419.1h177.5" class="g2_861"/>
<path d="M595.9,472.3V443.1m0,102.3V472.3" class="g0_861"/>
<path d="M909.2,531.5h67.5" class="g3_861"/>
<path d="M982.8,531.5h84.5" class="g4_861"/>
<path d="M595.9,576.7V545.4m0,60.5V576.7m0,58.5V605.9m0,114.3v-85" class="g0_861"/>
<path d="M820.8,696.2h61.5" class="g1_861"/>
<path d="M1044.8,696.2h22.5" class="g2_861"/>
<path d="M595.9,749.4V720.2M193,749.8h885.2m-885.2,0h885.2" class="g0_861"/>
</svg>