<?xml version="1.0" encoding="UTF-8" standalone="no"?>
<!DOCTYPE svg PUBLIC "-//W3C//DTD SVG 1.1//EN"
"http://www.w3.org/Graphics/SVG/1.1/DTD/svg11.dtd">
<svg viewBox="0 0 1286 909" version="1.1" xmlns="http://www.w3.org/2000/svg" xmlns:xlink="http://www.w3.org/1999/xlink">
<defs>
<style type="text/css"><![CDATA[
.g0_234{
fill: none;
stroke: #000000;
stroke-width: 0.73;
stroke-linecap: butt;
stroke-linejoin: miter;
}
.g1_234{
fill: none;
stroke: #02B5EE;
stroke-width: 1.262;
stroke-linecap: butt;
stroke-linejoin: miter;
}
.g2_234{
fill: none;
stroke: #5EE200;
stroke-width: 1.262;
stroke-linecap: butt;
stroke-linejoin: miter;
}
.g3_234{
fill: none;
stroke: #5EE200;
stroke-width: 0.73;
stroke-linecap: butt;
stroke-linejoin: miter;
}
.g4_234{
fill: none;
stroke: #02B5EE;
stroke-width: 0.73;
stroke-linecap: butt;
stroke-linejoin: miter;
}
.g5_234{
fill: none;
stroke: #FFA313;
stroke-width: 1.262;
stroke-linecap: butt;
stroke-linejoin: miter;
}
.g6_234{
fill: none;
stroke: #FFA313;
stroke-width: 0.73;
stroke-linecap: butt;
stroke-linejoin: miter;
}
]]></style>
</defs>
<path d="M193,83.4h900.3M193,210.6h837.5m-837.5,0h837.5M577.3,240.2V211m0,58.5V240.2m0,114.3v-85" class="g0_234"/>
<path d="M735.4,330.5h45.5" class="g1_234"/>
<path d="M791.4,330.5h98.8" class="g2_234"/>
<path d="M577.3,383.7V354.5m0,102.3V383.7" class="g0_234"/>
<path d="M867.6,442.9h50.6" class="g3_234"/>
<path d="M918.2,442.9h101.4" class="g4_234"/>
<path d="M577.3,486V456.8m0,58.4V486m0,114.2v-85" class="g0_234"/>
<path d="M854.2,576.2h49" class="g1_234"/>
<path d="M913.7,576.2h18.2" class="g2_234"/>
<path d="M942.4,576.2h77.2" class="g5_234"/>
<path d="M577.3,629.5V600.2m0,102.3v-73" class="g0_234"/>
<path d="M884.5,688.6h50.6" class="g3_234"/>
<path d="M935.1,688.6h50.7" class="g6_234"/>
<path d="M985.8,688.6h33.8" class="g4_234"/>
<path d="M577.3,731.7V702.5M193,732.1h837.5m-837.5,0h837.5" class="g0_234"/>
</svg>