<?xml version="1.0" encoding="UTF-8" standalone="no"?>
<!DOCTYPE svg PUBLIC "-//W3C//DTD SVG 1.1//EN"
"http://www.w3.org/Graphics/SVG/1.1/DTD/svg11.dtd">
<svg viewBox="0 0 1286 909" version="1.1" xmlns="http://www.w3.org/2000/svg" xmlns:xlink="http://www.w3.org/1999/xlink">
<defs>
<style type="text/css"><![CDATA[
.g0_666{
fill: none;
stroke: #000000;
stroke-width: 0.73;
stroke-linecap: butt;
stroke-linejoin: miter;
}
.g1_666{
fill: none;
stroke: #02B5EE;
stroke-width: 1.262;
stroke-linecap: butt;
stroke-linejoin: miter;
}
.g2_666{
fill: none;
stroke: #5EE200;
stroke-width: 1.262;
stroke-linecap: butt;
stroke-linejoin: miter;
}
.g3_666{
fill: none;
stroke: #5EE200;
stroke-width: 0.73;
stroke-linecap: butt;
stroke-linejoin: miter;
}
.g4_666{
fill: none;
stroke: #02B5EE;
stroke-width: 0.73;
stroke-linecap: butt;
stroke-linejoin: miter;
}
.g5_666{
fill: none;
stroke: #FFA313;
stroke-width: 1.262;
stroke-linecap: butt;
stroke-linejoin: miter;
}
.g6_666{
fill: none;
stroke: #FFA313;
stroke-width: 0.73;
stroke-linecap: butt;
stroke-linejoin: miter;
}
]]></style>
</defs>
<path d="M193,83.4h900.3M193,111.6h872.9m-872.9,0h872.9M527.6,141.2V112m0,58.5V141.2m0,114.3v-85" class="g0_666"/>
<path d="M870.7,231.5h44" class="g1_666"/>
<path d="M925.2,231.5h22.5" class="g2_666"/>
<path d="M527.6,284.7V255.5m0,102.3V284.7" class="g0_666"/>
<path d="M986.8,343.9h34.4" class="g3_666"/>
<path d="M1021.2,343.9H1055" class="g4_666"/>
<path d="M527.6,387V357.8m0,58.4V387m0,114.2v-85" class="g0_666"/>
<path d="M891,477.3h61.4" class="g1_666"/>
<path d="M963,477.3h18.2" class="g2_666"/>
<path d="M991.7,477.3H1055" class="g5_666"/>
<path d="M527.6,531.4V501.2m0,103.3V531.4" class="g0_666"/>
<path d="M852.3,590.6H970.5" class="g3_666"/>
<path d="M970.5,590.6h50.7" class="g6_666"/>
<path d="M1021.2,590.6H1055" class="g4_666"/>
<path d="M527.6,633.7V604.5m0,58.4V633.7m0,58.4V662.9M193,692.5h872.9m-872.9,0h872.9" class="g0_666"/>
</svg>