<?xml version="1.0" encoding="UTF-8" standalone="no"?>
<!DOCTYPE svg PUBLIC "-//W3C//DTD SVG 1.1//EN"
"http://www.w3.org/Graphics/SVG/1.1/DTD/svg11.dtd">
<svg viewBox="0 0 1286 909" version="1.1" xmlns="http://www.w3.org/2000/svg" xmlns:xlink="http://www.w3.org/1999/xlink">
<defs>
<style type="text/css"><![CDATA[
.g0_644{
fill: none;
stroke: #000000;
stroke-width: 0.73;
stroke-linecap: butt;
stroke-linejoin: miter;
}
.g1_644{
fill: #B3E9FA;
}
.g2_644{
fill: none;
stroke: #02B5EE;
stroke-width: 1.262;
stroke-linecap: butt;
stroke-linejoin: miter;
}
.g3_644{
fill: none;
stroke: #5EE200;
stroke-width: 1.262;
stroke-linecap: butt;
stroke-linejoin: miter;
}
]]></style>
</defs>
<path d="M193,83.4h900.3M193,210.6H793.2m-600.2,0H793.2M499.5,240.2V211m0,58.5V240.2m0,114.3v-85" class="g0_644"/>
<path d="M513.1,311V292.5c0,-2.9,2.3,-5.2,5.2,-5.2H620.9c2.9,0,5.2,2.3,5.2,5.2V311c0,2.9,-2.3,5.2,-5.2,5.2H518.3c-2.9,0,-5.2,-2.3,-5.2,-5.2Z" class="g1_644"/>
<path d="M510.5,330.5H628.7" class="g2_644"/>
<path d="M639.2,330.5h143" class="g3_644"/>
<path d="M499.5,383.7V354.5M193,384.1H793.2m-600.2,0H793.2" class="g0_644"/>
</svg>