<?xml version="1.0" encoding="UTF-8" standalone="no"?>
<!DOCTYPE svg PUBLIC "-//W3C//DTD SVG 1.1//EN"
"http://www.w3.org/Graphics/SVG/1.1/DTD/svg11.dtd">
<svg viewBox="0 0 1286 909" version="1.1" xmlns="http://www.w3.org/2000/svg" xmlns:xlink="http://www.w3.org/1999/xlink">
<defs>
<style type="text/css"><![CDATA[
.g0_953{
fill: none;
stroke: #000000;
stroke-width: 0.73;
stroke-linecap: butt;
stroke-linejoin: miter;
}
.g1_953{
fill: none;
stroke: #02B5EE;
stroke-width: 1.262;
stroke-linecap: butt;
stroke-linejoin: miter;
}
.g2_953{
fill: none;
stroke: #02B5EE;
stroke-width: 0.73;
stroke-linecap: butt;
stroke-linejoin: miter;
}
]]></style>
</defs>
<path d="M193,83.4h900.3M193,210.6H865.8m-672.8,0H865.8M480,240.2V211m0,58.5V240.2m0,114.3v-85" class="g0_953"/>
<path d="M491,330.5h79.1" class="g1_953"/>
<path d="M480,384.6V354.5m0,103.2V384.6" class="g0_953"/>
<path d="M821.1,443.8h33.8" class="g2_953"/>
<path d="M480,486.9V457.7m0,58.5V486.9m0,114.3v-85" class="g0_953"/>
<path d="M565,577.2h79.2" class="g1_953"/>
<path d="M480,631.3V601.2m0,103.2V631.3" class="g0_953"/>
<path d="M787.3,690.5h67.6" class="g2_953"/>
<path d="M480,733.6V704.4M193,734H865.8M193,734H865.8" class="g0_953"/>
</svg>