<?xml version="1.0" encoding="UTF-8" standalone="no"?>
<!DOCTYPE svg PUBLIC "-//W3C//DTD SVG 1.1//EN"
"http://www.w3.org/Graphics/SVG/1.1/DTD/svg11.dtd">
<svg viewBox="0 0 909 1286" version="1.1" xmlns="http://www.w3.org/2000/svg" xmlns:xlink="http://www.w3.org/1999/xlink">
<defs>
<style type="text/css"><![CDATA[
.g0_11{
fill: none;
stroke: #000000;
stroke-width: 0.73;
stroke-linecap: butt;
stroke-linejoin: miter;
}
.g1_11{
}
.g2_11{
fill: none;
stroke: #5EE200;
stroke-width: 0.73;
stroke-linecap: butt;
stroke-linejoin: miter;
}
.g3_11{
fill: none;
stroke: #F81693;
stroke-width: 0.73;
stroke-linecap: butt;
stroke-linejoin: miter;
stroke-dasharray: 6,6;
}
.g4_11{
fill: none;
stroke: #02B5EE;
stroke-width: 0.73;
stroke-linecap: butt;
stroke-linejoin: miter;
stroke-dasharray: 6,6;
}
.g5_11{
fill: none;
stroke: #000000;
stroke-width: 1.095;
stroke-linecap: butt;
stroke-linejoin: miter;
}
.g6_11{
fill: none;
stroke: #5EE200;
stroke-width: 1.095;
stroke-linecap: butt;
stroke-linejoin: miter;
}
.g7_11{
fill: none;
stroke: #5EE200;
stroke-width: 3.287;
stroke-linecap: butt;
stroke-linejoin: miter;
}
.g8_11{
fill: #5EE200;
stroke: #5EE200;
stroke-width: 3.287;
stroke-linecap: butt;
stroke-linejoin: miter;
}
.g9_11{
fill: none;
stroke: #F81693;
stroke-width: 1.095;
stroke-linecap: butt;
stroke-linejoin: miter;
stroke-dasharray: 9,6;
}
.ga_11{
fill: none;
stroke: #F81693;
stroke-width: 3.287;
stroke-linecap: butt;
stroke-linejoin: miter;
stroke-dasharray: 9,6;
}
.gb_11{
fill: #F81693;
stroke: #F81693;
stroke-width: 3.287;
stroke-linecap: butt;
stroke-linejoin: miter;
}
.gc_11{
fill: none;
stroke: #02B5EE;
stroke-width: 1.095;
stroke-linecap: butt;
stroke-linejoin: miter;
stroke-dasharray: 9,9;
}
.gd_11{
fill: none;
stroke: #02B5EE;
stroke-width: 3.287;
stroke-linecap: butt;
stroke-linejoin: miter;
stroke-dasharray: 9,6;
}
.ge_11{
fill: #02B5EE;
stroke: #02B5EE;
stroke-width: 3.287;
stroke-linecap: butt;
stroke-linejoin: miter;
}
]]></style>
</defs>
<path d="M116.9,159.9H792.5m-635,414.2H510" class="g0_11"/>
<path d="M513.7,574.1l-5.8,-3l2.1,3l-2.1,2.9Z" class="g1_11"/>
<path d="M157.5,574.1V281.8" class="g0_11"/>
<path d="M157.5,278.2l-2.9,5.8l2.9,-2.2l3,2.2Z" class="g1_11"/>
<path d="M187.2,278.2l13.6,93l13.6,48.5L228,449.5l13.6,20.1l13.6,14.6l13.6,11l13.6,8.6l13.6,6.9l13.6,5.6l13.6,4.8l13.7,4l13.6,3.4l13.6,3l13.6,2.7l13.6,2.3l13.6,2.1l13.6,1.8l13.6,1.7l13.6,1.5l13.6,1.4l13.6,1.2l13.6,1.2l13.6,1l13.6,1M216.9,278.2l12.4,51l12.3,36L254,392l12.4,20.7l12.3,16.4l12.4,13.5l12.4,11.1l12.3,9.4l12.4,8l12.4,7l12.3,6.1l12.4,5.3l12.4,4.8l12.3,4.2l12.4,3.8l12.4,3.5l12.3,3.1l12.4,2.9l12.4,2.6l12.3,2.4l12.4,2.2l12.4,2.1l12.3,1.9l12.4,1.8M246.6,278.2L257.7,311l11.1,26.4L280,358.9l11.1,17.9L302.2,392l11.2,13l11.1,11.3l11.1,9.8l11.1,8.7l11.2,7.8l11.1,6.9l11.1,6.2l11.2,5.6l11.1,5.2l11.1,4.6l11.2,4.3l11.1,4l11.1,3.6l11.1,3.4l11.2,3.1l11.1,2.9l11.1,2.8l11.2,2.5l11.1,2.4M276.3,278.2l9.8,22.7l9.9,19.5l9.9,17l9.9,14.7l9.9,13.1l9.9,11.6l9.9,10.4l9.9,9.3l9.9,8.5l9.9,7.7l9.9,7l9.9,6.4l9.9,5.9l9.9,5.5l9.9,5.1l9.8,4.7l9.9,4.3l9.9,4.1l9.9,3.8l9.9,3.6l9.9,3.4l9.9,3.1l9.9,3l9.9,2.8" class="g2_11"/>
<path d="M157.5,463.1H513.7M157.5,352.1H513.7" class="g3_11"/>
<path d="M276.3,574.1V278.2M395,574.1V278.2" class="g4_11"/>
<path d="M661.1,507.5h18.8" class="g2_11"/>
<path d="M188.3,1032.8H717.1" class="g5_11"/>
<path d="M722.6,1032.8l-8.8,-4.4l3.3,4.4l-3.3,4.3Z" class="g1_11"/>
<path d="M188.3,1032.8V594.4" class="g5_11"/>
<path d="M188.3,588.9l-4.3,8.8l4.3,-3.3l4.4,3.3Z" class="g1_11"/>
<path d="M232.9,588.9l20.4,139.5l20.4,72.8l20.4,44.7l20.4,30.2l20.4,21.8l20.4,16.5l20.4,12.9l20.4,10.4l20.4,8.5l20.4,7.1l20.4,6l20.4,5.2l20.4,4.5l20.4,3.9l20.4,3.5l20.4,3.1l20.5,2.8l20.4,2.5l20.4,2.2l20.4,2.1l20.4,1.9l20.4,1.7l20.4,1.6l20.4,1.5M277.4,588.9l18.5,76.5l18.6,54.1L333,759.6l18.6,31.1l18.5,24.7l18.6,20.1l18.5,16.7l18.6,14.1l18.5,12.1l18.6,10.4l18.5,9.1l18.6,8l18.5,7.2l18.6,6.3l18.5,5.8l18.6,5.1l18.5,4.7l18.6,4.3l18.5,3.9l18.6,3.7l18.5,3.3l18.6,3.1l18.5,2.8l18.6,2.7M321.9,588.9l16.7,49.3l16.7,39.5L372,710l16.7,26.9l16.7,22.7l16.7,19.5L438.8,796l16.7,14.8l16.7,13.1l16.7,11.6l16.7,10.4l16.6,9.3l16.7,8.5l16.7,7.7l16.7,7l16.7,6.4l16.7,5.9l16.7,5.5l16.7,5.1l16.7,4.6l16.7,4.4l16.7,4.1l16.7,3.8l16.7,3.6" class="g6_11"/>
<path d="M366.4,699.9l7.4,13.3l7.5,12.3l7.4,11.4l7.4,10.5l7.4,9.9l7.4,9.2l7.5,8.5l7.4,8.1l7.4,7.6l7.4,7.1l7.4,6.7l7.5,6.3l7.4,6l7.4,5.7l7.4,5.4l7.4,5.1l7.5,4.9l7.4,4.6l7.4,4.5l7.4,4.2l7.4,4l7.5,3.9l7.4,3.7l7.4,3.5M401.9,755.1c0,0,8.8,11,12.3,15.1c3.5,4.1,8.4,9.6,13.1,14.5c2.4,2.4,7.9,7.6,12.7,12.2" class="g7_11"/>
<path d="M445.3,801.8c-1.7,-3.2,-3.1,-6.2,-4.6,-9.2c0,1.6,-.1,3.2,-.1,4.8c-1.6,.2,-3.2,.3,-4.9,.4c3.2,1.3,6.2,2.6,9.6,4Z" class="g8_11"/>
<path d="M366.4,588.9l14.9,34.2l14.8,29.2l14.8,25.4l14.9,22.2l14.8,19.6l14.9,17.4l14.8,15.5l14.8,14.1L500,779.1l14.8,11.6l14.9,10.5l14.8,9.6l14.8,8.9l14.9,8.2l14.8,7.6l14.9,7l14.8,6.6l14.8,6.1l14.9,5.8l14.8,5.3l14.9,5.1l14.8,4.7l14.8,4.5l14.9,4.2" class="g6_11"/>
<path d="M188.3,866.3H722.6" class="g9_11"/>
<path d="M544.5,866.3H366.4m147.5,0c0,0,-14,0,-19.5,0c-5.4,0,-12.7,0,-19.4,0c-3.5,0,-11.1,0,-17.7,0" class="ga_11"/>
<path d="M450.1,866.3c3.4,1.2,6.5,2.4,9.7,3.6c-1.1,-1.2,-2.2,-2.4,-3.3,-3.6c1.1,-1.2,2.2,-2.4,3.3,-3.6c-3.2,1.2,-6.3,2.4,-9.7,3.6Z" class="gb_11"/>
<path d="M188.3,699.9H722.6" class="g9_11"/>
<path d="M366.4,1032.8V588.9" class="gc_11"/>
<path d="M366.4,866.3V699.9m0,141.7c0,0,0,-14.1,0,-19.5c0,-5.4,0,-12.8,0,-19.5c0,-3.5,0,-11,0,-17.6" class="gd_11"/>
<path d="M366.4,777.7c-1.2,3.5,-2.4,6.5,-3.6,9.7c1.2,-1.1,2.4,-2.2,3.6,-3.2c1.2,1,2.4,2.1,3.6,3.2c-1.2,-3.2,-2.4,-6.2,-3.6,-9.7Z" class="ge_11"/>
<path d="M544.5,1032.8V588.9" class="gc_11"/>
</svg>