<?xml version="1.0" encoding="UTF-8" standalone="no"?>
<!DOCTYPE svg PUBLIC "-//W3C//DTD SVG 1.1//EN"
"http://www.w3.org/Graphics/SVG/1.1/DTD/svg11.dtd">
<svg viewBox="0 0 1286 909" version="1.1" xmlns="http://www.w3.org/2000/svg" xmlns:xlink="http://www.w3.org/1999/xlink">
<defs>
<style type="text/css"><![CDATA[
.g0_42{
fill: none;
stroke: #000000;
stroke-width: 0.73;
stroke-linecap: butt;
stroke-linejoin: miter;
}
.g1_42{
fill: none;
stroke: #5EE200;
stroke-width: 0.73;
stroke-linecap: butt;
stroke-linejoin: miter;
}
.g2_42{
fill: #B3E9FA;
}
.g3_42{
fill: none;
stroke: #02B5EE;
stroke-width: 1.262;
stroke-linecap: butt;
stroke-linejoin: miter;
}
.g4_42{
fill: none;
stroke: #5EE200;
stroke-width: 1.262;
stroke-linecap: butt;
stroke-linejoin: miter;
}
]]></style>
</defs>
<path d="M193,83.4h900.3M193,111.6H899.5m-706.5,0H899.5M551.4,141.2V112m0,102.3V141.2" class="g0_42"/>
<path d="M621.8,200.4h34.5" class="g1_42"/>
<path d="M551.4,243.5V214.3m0,58.4V243.5m0,114.3V272.7" class="g0_42"/>
<path d="M564.9,308V295.8c0,-2.9,2.4,-5.2,5.2,-5.2h71c2.9,0,5.2,2.3,5.2,5.2V308c0,2.9,-2.3,5.2,-5.2,5.2h-71c-2.8,0,-5.2,-2.3,-5.2,-5.2Z" class="g2_42"/>
<path d="M562.3,333.8h86.6" class="g3_42"/>
<path d="M659.4,333.8H888.6" class="g4_42"/>
<path d="M551.4,387V357.8m0,58.4V387m0,114.2v-85" class="g0_42"/>
<path d="M756,477.3h66.9" class="g3_42"/>
<path d="M833.4,477.3h22.5m10.5,0h22.2" class="g4_42"/>
<path d="M551.4,530.5V501.2M193,530.8H899.5m-706.5,0H899.5" class="g0_42"/>
</svg>