<?xml version="1.0" encoding="UTF-8" standalone="no"?>
<!DOCTYPE svg PUBLIC "-//W3C//DTD SVG 1.1//EN"
"http://www.w3.org/Graphics/SVG/1.1/DTD/svg11.dtd">
<svg viewBox="0 0 1286 909" version="1.1" xmlns="http://www.w3.org/2000/svg" xmlns:xlink="http://www.w3.org/1999/xlink">
<defs>
<style type="text/css"><![CDATA[
.g0_1234{
fill: none;
stroke: #000000;
stroke-width: 0.73;
stroke-linecap: butt;
stroke-linejoin: miter;
}
.g1_1234{
fill: none;
stroke: #000000;
stroke-width: 0.657;
stroke-linecap: butt;
stroke-linejoin: miter;
}
.g2_1234{
fill: #FDE8E9;
}
]]></style>
</defs>
<path d="M193,83.4h900.3" class="g0_1234"/>
<path d="M202.8,109.5H460.7M202.8,136.1V109.8m107.3,26.3V109.8m150.6,26.3V109.8M202.8,165.5V136.1m107.3,29.4V136.1" class="g1_1234"/>
<path d="M320,162.5h60V136.1H320v26.4Z" class="g2_1234"/>
<path d="M460.7,165.5V136.1M202.8,191.8V165.5m107.3,26.3V165.5m150.6,26.3V165.5M202.8,218.1V191.8m107.3,26.3V191.8m150.6,26.3V191.8M202.8,247.5V218.1m107.3,29.4V218.1" class="g1_1234"/>
<path d="M320,244.5H450.8V218.1H320v26.4Z" class="g2_1234"/>
<path d="M460.7,247.5V218.1M202.8,273.8V247.5m107.3,26.3V247.5m150.6,26.3V247.5M202.8,300.1V273.8m107.3,26.3V273.8m150.6,26.3V273.8M202.8,331.2V300.1m107.3,31.1V300.1" class="g1_1234"/>
<path d="M320,331.2H446V300.1H320v31.1Z" class="g2_1234"/>
<path d="M460.7,331.2V300.1M202.8,357.5V331.2m107.3,26.3V331.2m150.6,26.3V331.2M202.8,383.8V357.5m107.3,26.3V357.5m150.6,26.3V357.5M202.8,413.2V383.8m107.3,29.4V383.8" class="g1_1234"/>
<path d="M320,410.3h55.1V383.8H320v26.5Z" class="g2_1234"/>
<path d="M460.7,413.2V383.8M202.8,439.5V413.2m107.3,26.3V413.2m150.6,26.3V413.2M202.8,465.8V439.5m107.3,26.3V439.5m150.6,26.3V439.5M202.8,495.2V465.8m107.3,29.4V465.8" class="g1_1234"/>
<path d="M320,492.2h57.8V465.8H320v26.4Z" class="g2_1234"/>
<path d="M460.7,495.2V465.8M202.8,521.5V495.2m107.3,26.3V495.2m150.6,26.3V495.2M202.8,547.8V521.5m107.3,26.3V521.5m150.6,26.3V521.5M202.8,577.2V547.8m107.3,29.4V547.8" class="g1_1234"/>
<path d="M320,574.2h57.2V547.8H320v26.4Z" class="g2_1234"/>
<path d="M460.7,577.2V547.8M202.8,603.5V577.2m107.3,26.3V577.2m150.6,26.3V577.2M202.8,629.8V603.5m107.3,26.3V603.5m150.6,26.3V603.5M202.8,660.9V629.8m107.3,31.1V629.8" class="g1_1234"/>
<path d="M320,660.9H437.8V629.8H320v31.1Z" class="g2_1234"/>
<path d="M460.7,660.9V629.8M202.8,687.2V660.9m107.3,26.3V660.9m150.6,26.3V660.9M202.8,713.5V687.2m107.3,26.3V687.2m150.6,26.3V687.2M202.8,744.7V713.5m107.3,31.2V713.5" class="g1_1234"/>
<path d="M320,744.7h96.6V713.5H320v31.2Z" class="g2_1234"/>
<path d="M460.7,744.7V713.5M202.8,771V744.7M310.1,771V744.7M460.7,771V744.7M202.8,771.3H460.7M480.4,112.4H810.8M480.4,139V112.7M664.3,139V112.7M810.8,139V112.7M480.4,168.4V139m183.9,29.4V139" class="g1_1234"/>
<path d="M674.2,165.4H775V139H674.2v26.4Z" class="g2_1234"/>
<path d="M810.8,168.4V139M480.4,194.7V168.4m183.9,26.3V168.4m146.5,26.3V168.4M480.4,221V194.7M664.3,221V194.7M810.8,221V194.7M480.4,249.9V221m183.9,28.9V221" class="g1_1234"/>
<path d="M674.2,249.9h70.5V224.2H674.2v25.7Z" class="g2_1234"/>
<path d="M810.8,249.9V221M480.4,276.2V249.9m183.9,26.3V249.9m146.5,26.3V249.9M480.4,302.5V276.2m183.9,26.3V276.2m146.5,26.3V276.2M480.4,331.9V302.5m183.9,29.4V302.5" class="g1_1234"/>
<path d="M674.2,328.9H789.4V302.5H674.2v26.4Z" class="g2_1234"/>
<path d="M810.8,331.9V302.5M480.4,358.2V331.9m183.9,26.3V331.9m146.5,26.3V331.9M480.4,384.5V358.2m183.9,26.3V358.2m146.5,26.3V358.2M480.4,413.9V384.5m183.9,29.4V384.5" class="g1_1234"/>
<path d="M674.2,410.9h85.7V384.5H674.2v26.4Z" class="g2_1234"/>
<path d="M810.8,413.9V384.5M480.4,440.2V413.9m183.9,26.3V413.9m146.5,26.3V413.9M480.4,466.5V440.2m183.9,26.3V440.2m146.5,26.3V440.2M480.4,495.9V466.5m183.9,29.4V466.5" class="g1_1234"/>
<path d="M674.2,492.9H801V466.5H674.2v26.4Z" class="g2_1234"/>
<path d="M810.8,495.9V466.5M480.4,522.2V495.9m183.9,26.3V495.9m146.5,26.3V495.9M480.4,548.5V522.2m183.9,26.3V522.2m146.5,26.3V522.2M480.4,577.8V548.5m183.9,29.3V548.5" class="g1_1234"/>
<path d="M674.2,574.9h65.2V548.5H674.2v26.4Z" class="g2_1234"/>
<path d="M810.8,577.8V548.5M480.4,604.1V577.8m183.9,26.3V577.8m146.5,26.3V577.8M480.4,630.5V604.1m183.9,26.4V604.1m146.5,26.4V604.1M480.4,659.8V630.5m183.9,29.3V630.5" class="g1_1234"/>
<path d="M674.2,656.9h65.7V630.5H674.2v26.4Z" class="g2_1234"/>
<path d="M810.8,659.8V630.5M480.4,686.1V659.8m183.9,26.3V659.8m146.5,26.3V659.8M480.4,712.4V686.1m183.9,26.3V686.1m146.5,26.3V686.1M480.4,741.8V712.4m183.9,29.4V712.4" class="g1_1234"/>
<path d="M674.2,738.9h70.2V712.4H674.2v26.5Z" class="g2_1234"/>
<path d="M810.8,741.8V712.4M480.4,768.1V741.8m183.9,26.3V741.8m146.5,26.3V741.8M480.4,768.4H810.8m5.5,-657.8h274.6M816.3,137.2V110.9m118.2,26.3V110.9m156.4,26.3V110.9M816.3,168.4V137.2m118.2,31.2V137.2" class="g1_1234"/>
<path d="M944.4,168.4h131.5V137.2H944.4v31.2Z" class="g2_1234"/>
<path d="M1090.9,168.4V137.2M816.3,194.7V168.4m118.2,26.3V168.4m156.4,26.3V168.4M816.3,221V194.7M934.5,221V194.7M1090.9,221V194.7M816.3,250.4V221m118.2,29.4V221" class="g1_1234"/>
<path d="M944.4,247.4h85.4V221H944.4v26.4Z" class="g2_1234"/>
<path d="M1090.9,250.4V221M816.3,276.7V250.4m118.2,26.3V250.4m156.4,26.3V250.4M816.3,303V276.7M934.5,303V276.7M1090.9,303V276.7M816.3,334.1V303m118.2,31.1V303" class="g1_1234"/>
<path d="M944.4,334.1h89.5V303H944.4v31.1Z" class="g2_1234"/>
<path d="M1090.9,334.1V303M816.3,360.4V334.1m118.2,26.3V334.1m156.4,26.3V334.1M816.3,386.7V360.4m118.2,26.3V360.4m156.4,26.3V360.4M816.3,413.9V386.7m118.2,27.2V386.7" class="g1_1234"/>
<path d="M944.4,410.9h47.5v-21H944.4v21Z" class="g2_1234"/>
<path d="M1090.9,413.9V386.7M816.3,440.2V413.9m118.2,26.3V413.9m156.4,26.3V413.9M816.3,466.5V440.2m118.2,26.3V440.2m156.4,26.3V440.2M816.3,495.9V466.5m118.2,29.4V466.5" class="g1_1234"/>
<path d="M944.4,492.9h70.2V466.5H944.4v26.4Z" class="g2_1234"/>
<path d="M1090.9,495.9V466.5M816.3,522.2V495.9m118.2,26.3V495.9m156.4,26.3V495.9M816.3,548.5V522.2m118.2,26.3V522.2m156.4,26.3V522.2M816.3,577.8V548.5m118.2,29.3V548.5" class="g1_1234"/>
<path d="M944.4,574.9h92.9V548.5H944.4v26.4Z" class="g2_1234"/>
<path d="M1090.9,577.8V548.5M816.3,604.1V577.8m118.2,26.3V577.8m156.4,26.3V577.8M816.3,630.5V604.1m118.2,26.4V604.1m156.4,26.4V604.1M816.3,661.6V630.5m118.2,31.1V630.5" class="g1_1234"/>
<path d="M944.4,661.6h36.8V630.5H944.4v31.1Z" class="g2_1234"/>
<path d="M1090.9,661.6V630.5M816.3,687.9V661.6m118.2,26.3V661.6m156.4,26.3V661.6M816.3,714.2V687.9m118.2,26.3V687.9m156.4,26.3V687.9M816.3,743.6V714.2m118.2,29.4V714.2" class="g1_1234"/>
<path d="M944.4,740.6H1081V714.2H944.4v26.4Z" class="g2_1234"/>
<path d="M1090.9,743.6V714.2M816.3,769.9V743.6m118.2,26.3V743.6m156.4,26.3V743.6M816.3,770.2h274.6" class="g1_1234"/>
</svg>