<?xml version="1.0" encoding="UTF-8" standalone="no"?>
<!DOCTYPE svg PUBLIC "-//W3C//DTD SVG 1.1//EN"
"http://www.w3.org/Graphics/SVG/1.1/DTD/svg11.dtd">
<svg viewBox="0 0 1286 909" version="1.1" xmlns="http://www.w3.org/2000/svg" xmlns:xlink="http://www.w3.org/1999/xlink">
<defs>
<style type="text/css"><![CDATA[
.g0_390{
fill: none;
stroke: #000000;
stroke-width: 0.73;
stroke-linecap: butt;
stroke-linejoin: miter;
}
.g1_390{
fill: none;
stroke: #02B5EE;
stroke-width: 1.262;
stroke-linecap: butt;
stroke-linejoin: miter;
}
.g2_390{
fill: none;
stroke: #5EE200;
stroke-width: 1.262;
stroke-linecap: butt;
stroke-linejoin: miter;
}
.g3_390{
fill: #FFCCCC;
}
.g4_390{
fill: none;
stroke: #5EE200;
stroke-width: 0.73;
stroke-linecap: butt;
stroke-linejoin: miter;
}
.g5_390{
fill: none;
stroke: #02B5EE;
stroke-width: 0.73;
stroke-linecap: butt;
stroke-linejoin: miter;
}
]]></style>
</defs>
<path d="M193,83.4h900.3M193,210.6h853.1m-853.1,0h853.1M650.2,240.2V211m0,58.5V240.2m0,114.3v-85" class="g0_390"/>
<path d="M760.3,330.5H887.4" class="g1_390"/>
<path d="M897.9,330.5h22.2" class="g2_390"/>
<path d="M941.1,318.8h94.1V285.9H941.1v32.9Z" class="g3_390"/>
<path d="M650.2,383.7V354.5m0,102.3V383.7" class="g0_390"/>
<path d="M785.2,442.9h34.3" class="g4_390"/>
<path d="M825.6,433h57.6V400.1H825.6V433Z" class="g3_390"/>
<path d="M883.2,442.9h152" class="g5_390"/>
<path d="M650.2,486V456.8m0,58.4V486m0,114.2v-85" class="g0_390"/>
<path d="M755.8,576.2H887.4" class="g1_390"/>
<path d="M897.9,576.2h22.2" class="g2_390"/>
<path d="M941.1,564.5h94.1V531.6H941.1v32.9Z" class="g3_390"/>
<path d="M650.2,629.5V600.2m0,102.3v-73" class="g0_390"/>
<path d="M785.2,688.6h34.3" class="g4_390"/>
<path d="M825.6,678.8h57.6V645.9H825.6v32.9Z" class="g3_390"/>
<path d="M883.2,688.6h152" class="g5_390"/>
<path d="M650.2,731.7V702.5m0,58.5V731.7M193,761.3h853.1m-853.1,0h853.1" class="g0_390"/>
</svg>