<?xml version="1.0" encoding="UTF-8" standalone="no"?>
<!DOCTYPE svg PUBLIC "-//W3C//DTD SVG 1.1//EN"
"http://www.w3.org/Graphics/SVG/1.1/DTD/svg11.dtd">
<svg viewBox="0 0 1286 909" version="1.1" xmlns="http://www.w3.org/2000/svg" xmlns:xlink="http://www.w3.org/1999/xlink">
<defs>
<style type="text/css"><![CDATA[
.g0_245{
fill: none;
stroke: #000000;
stroke-width: 0.73;
stroke-linecap: butt;
stroke-linejoin: miter;
}
.g1_245{
fill: none;
stroke: #02B5EE;
stroke-width: 1.262;
stroke-linecap: butt;
stroke-linejoin: miter;
}
.g2_245{
fill: none;
stroke: #5EE200;
stroke-width: 1.262;
stroke-linecap: butt;
stroke-linejoin: miter;
}
.g3_245{
fill: none;
stroke: #5EE200;
stroke-width: 0.73;
stroke-linecap: butt;
stroke-linejoin: miter;
}
.g4_245{
fill: none;
stroke: #02B5EE;
stroke-width: 0.73;
stroke-linecap: butt;
stroke-linejoin: miter;
}
.g5_245{
fill: #B3E9FA;
}
]]></style>
</defs>
<path d="M193,83.4h900.3M193,210.6H893.9m-700.9,0H893.9M574.6,240.2V211m0,58.5V240.2m0,114.3v-85" class="g0_245"/>
<path d="M692,330.5H850" class="g1_245"/>
<path d="M860.5,330.5H883" class="g2_245"/>
<path d="M574.6,383.7V354.5m0,102.3V383.7" class="g0_245"/>
<path d="M713.4,442.9h34.5" class="g3_245"/>
<path d="M747.9,442.9H883" class="g4_245"/>
<path d="M574.6,486V456.8m0,58.4V486m0,114.2v-85" class="g0_245"/>
<path d="M588.2,550.5V538.2c0,-2.8,2.3,-5.1,5.2,-5.1h44c2.9,0,5.2,2.3,5.2,5.1v12.3c0,2.8,-2.3,5.1,-5.2,5.1h-44c-2.9,0,-5.2,-2.3,-5.2,-5.1Z" class="g5_245"/>
<path d="M585.6,576.2h59.6" class="g1_245"/>
<path d="M655.7,576.2H883" class="g2_245"/>
<path d="M574.6,629.5V600.2m0,58.5V629.5m0,58.4V658.7M193,688.3H893.9m-700.9,0H893.9" class="g0_245"/>
</svg>