<?xml version="1.0" encoding="UTF-8" standalone="no"?>
<!DOCTYPE svg PUBLIC "-//W3C//DTD SVG 1.1//EN"
"http://www.w3.org/Graphics/SVG/1.1/DTD/svg11.dtd">
<svg viewBox="0 0 1286 909" version="1.1" xmlns="http://www.w3.org/2000/svg" xmlns:xlink="http://www.w3.org/1999/xlink">
<defs>
<style type="text/css"><![CDATA[
.g0_605{
fill: none;
stroke: #000000;
stroke-width: 0.73;
stroke-linecap: butt;
stroke-linejoin: miter;
}
.g1_605{
fill: none;
stroke: #F81693;
stroke-width: 1.262;
stroke-linecap: butt;
stroke-linejoin: miter;
}
.g2_605{
fill: none;
stroke: #02B5EE;
stroke-width: 1.262;
stroke-linecap: butt;
stroke-linejoin: miter;
}
.g3_605{
fill: none;
stroke: #F81693;
stroke-width: 0.73;
stroke-linecap: butt;
stroke-linejoin: miter;
}
.g4_605{
fill: none;
stroke: #02B5EE;
stroke-width: 0.73;
stroke-linecap: butt;
stroke-linejoin: miter;
}
.g5_605{
fill: none;
stroke: #FFA313;
stroke-width: 1.262;
stroke-linecap: butt;
stroke-linejoin: miter;
}
.g6_605{
fill: none;
stroke: #FFA313;
stroke-width: 0.73;
stroke-linecap: butt;
stroke-linejoin: miter;
}
]]></style>
</defs>
<path d="M193,83.4h900.3M193,111.6H933.3m-740.3,0H933.3M495.7,141.2V112m0,116.1V141.2" class="g0_605"/>
<path d="M702.2,202.3h20.6" class="g1_605"/>
<path d="M738.4,202.3H758" class="g2_605"/>
<path d="M768.5,202.3H922.3" class="g1_605"/>
<path d="M495.7,257.3V228.1m0,103.3V257.3" class="g0_605"/>
<path d="M684.9,316.5H855.7" class="g3_605"/>
<path d="M855.7,316.5h66.6" class="g4_605"/>
<path d="M495.7,360.7V331.4m0,58.5V360.7m0,116V389.9" class="g0_605"/>
<path d="M666.3,450.9h20.6" class="g1_605"/>
<path d="M702.5,450.9h22.6" class="g2_605"/>
<path d="M735.6,450.9H758" class="g5_605"/>
<path d="M768.5,450.9H922.3" class="g1_605"/>
<path d="M495.7,506V476.7m0,103.4V506" class="g0_605"/>
<path d="M687.9,565.1H858.7" class="g3_605"/>
<path d="M858.7,565.1h13" class="g6_605"/>
<path d="M871.7,565.1h50.6" class="g4_605"/>
<path d="M495.7,609.3V580.1M193,609.7H933.3m-740.3,0H933.3" class="g0_605"/>
</svg>