<?xml version="1.0" encoding="UTF-8" standalone="no"?>
<!DOCTYPE svg PUBLIC "-//W3C//DTD SVG 1.1//EN"
"http://www.w3.org/Graphics/SVG/1.1/DTD/svg11.dtd">
<svg viewBox="0 0 909 1286" version="1.1" xmlns="http://www.w3.org/2000/svg" xmlns:xlink="http://www.w3.org/1999/xlink">
<defs>
<style type="text/css"><![CDATA[
.g0_29{
fill: none;
stroke: #000000;
stroke-width: 0.73;
stroke-linecap: butt;
stroke-linejoin: miter;
}
.g1_29{
fill: none;
stroke: #8007AC;
stroke-width: 0.73;
stroke-linecap: butt;
stroke-linejoin: miter;
}
.g2_29{
fill: none;
stroke: #F81693;
stroke-width: 0.73;
stroke-linecap: butt;
stroke-linejoin: miter;
}
.g3_29{
fill: none;
stroke: #7F7F7F;
stroke-width: 0.73;
stroke-linecap: butt;
stroke-linejoin: miter;
}
.g4_29{
fill: none;
stroke: #02B5EE;
stroke-width: 0.73;
stroke-linecap: butt;
stroke-linejoin: miter;
}
.g5_29{
fill: none;
stroke: #02B5EE;
stroke-width: 1.461;
stroke-linecap: butt;
stroke-linejoin: miter;
}
.g6_29{
fill: none;
stroke: #8007AC;
stroke-width: 1.461;
stroke-linecap: butt;
stroke-linejoin: miter;
}
.g7_29{
fill: none;
stroke: #5EE200;
stroke-width: 0.73;
stroke-linecap: butt;
stroke-linejoin: miter;
}
.g8_29{
fill: none;
stroke: #5EE200;
stroke-width: 1.461;
stroke-linecap: butt;
stroke-linejoin: miter;
}
.g9_29{
fill: none;
stroke: #F81693;
stroke-width: 1.461;
stroke-linecap: butt;
stroke-linejoin: miter;
}
]]></style>
</defs>
<path d="M116.9,179.9H848.5M343.8,209.5V180.3m-115.1,103L260,301.9m0,36.7V302.1m-31.3,55.3L260,338.8m-31.3,18.6L197.5,338.8m0,-.2V302.1m31.2,-18.8l-31.2,18.6M166.3,283.3l31.2,18.6m-31.2,55.5l31.2,-18.6m-31.2,18.6L135,338.8m0,-.2V302.1m31.3,-18.8L135,301.9m30.2,-11l-23.1,13.7m23.1,45.2L142.1,336.1m87.7,-45.2l23,13.7m-23,45.2l23,-13.7m-61.3,-2.2V306.8M260,227.9l31.2,18.7m-62.5,36.7V255.9m31.3,-28l-24.9,14.8m56.1,4h36.5m.8,0L313.8,222.4m-23,24.3l14.6,-24.3m38.4,142V209.5" class="g0_29"/>
<path d="M502.2,287.1L527,301.9m0,36.7V302.1m-31.2,55.3L527,338.8m-31.2,18.6L464.6,338.8m0,-.2V302.1m24.8,-15l-24.8,14.8M433.3,283.3l31.3,18.6m-31.3,55.5l31.3,-18.6m-31.3,18.6L402.1,338.8m0,-.2V302.1m31.2,-18.8l-31.2,18.6m30.1,-11l-23,13.7m23,45.2l-23,-13.7m93,-40.8l18.3,11m-23.6,43.5l23,-13.7m-61.4,-2.2V306.8" class="g1_29"/>
<path d="M533.4,231.8l24.9,14.8" class="g2_29"/>
<path d="M495.8,276V255.9" class="g1_29"/>
<path d="M520.7,231.8l-18.3,10.9" class="g3_29"/>
<path d="M566,246.7h21.1" class="g2_29"/>
<path d="M583.1,219.3l11,18.3M570.3,219.3l-10.9,18.3" class="g4_29"/>
<path d="M343.8,393.6V364.4m0,58.4V393.6" class="g0_29"/>
<path d="M409.7,424c1.4,0,2.1,-2.7,3.4,-2.7c1,0,1.9,1.3,2.8,2.7c.9,1.4,1.7,2.7,2.7,2.7c1,0,1.9,-1.3,2.7,-2.7c.9,-1.4,1.8,-2.7,2.8,-2.7c1,0,1.8,1.3,2.7,2.7c.9,1.4,1.8,2.7,2.8,2.7c1,0,1.8,-1.3,2.7,-2.7c.9,-1.4,1.8,-2.7,2.7,-2.7c1,0,1.9,1.3,2.8,2.7c.9,1.4,1.7,2.7,2.7,2.7c1,0,1.9,-1.3,2.8,-2.7c.9,-1.4,1.7,-2.7,2.7,-2.7c1.4,0,2.1,2.7,3.4,2.7h1" class="g5_29"/>
<path d="M529.7,421.4c1.4,0,2,-2.8,3.4,-2.8c1,0,1.9,1.4,2.8,2.8c.8,1.4,1.7,2.7,2.7,2.7c1,0,1.8,-1.3,2.7,-2.7c.9,-1.4,1.8,-2.8,2.8,-2.8c1.3,0,2,2.8,3.4,2.8h3.9m8.2,0c1.4,0,2.1,-2.8,3.4,-2.8c1,0,1.9,1.4,2.8,2.8c.9,1.4,1.7,2.7,2.7,2.7c1,0,1.9,-1.3,2.8,-2.7c.9,-1.4,1.7,-2.8,2.7,-2.8c1.4,0,2.1,2.8,3.4,2.8h3.9" class="g6_29"/>
<path d="M343.8,452V422.8m0,58.5V452m0,184.2V481.3" class="g0_29"/>
<path d="M502.2,558.9L527,573.7m0,36.7V573.9m-31.2,55.3L527,610.6m-31.2,18.6L464.6,610.6m0,-.2V573.9m24.8,-15l-24.8,14.8M433.3,555.1l31.3,18.6m-31.3,55.5l31.3,-18.6m-31.3,18.6L402.1,610.6m0,-.2V573.9m31.2,-18.8l-31.2,18.6m30.1,-11l-23,13.7m23,45.2l-23,-13.7m93,-40.8l18.3,11m-23.6,43.5l23,-13.7m-61.4,-2.2V578.6" class="g7_29"/>
<path d="M527,499.7l31.3,18.6" class="g4_29"/>
<path d="M495.8,547.8V527.7" class="g7_29"/>
<path d="M527,499.7l-24.8,14.8" class="g3_29"/>
<path d="M558.3,518.5h36.5m.7,0L580.9,494.2m-23,24.3l14.6,-24.3" class="g2_29"/>
<path d="M343.8,665.4V636.2m0,58.4V665.4" class="g0_29"/>
<path d="M419,693.2c1.4,0,2.1,-2.8,3.4,-2.8c1,0,1.9,1.3,2.8,2.8c.9,1.4,1.7,2.7,2.7,2.7c1,0,1.9,-1.3,2.8,-2.7c.9,-1.5,1.7,-2.8,2.7,-2.8c1.4,0,2.1,2.8,3.4,2.8h3.9" class="g8_29"/>
<path d="M680.5,693.2c1.3,0,2,-2.8,3.4,-2.8c1,0,1.8,1.3,2.7,2.8c.9,1.4,1.8,2.7,2.8,2.7c1,0,1.8,-1.3,2.7,-2.7c.9,-1.5,1.8,-2.8,2.8,-2.8c1,0,1.8,1.3,2.7,2.8c.9,1.4,1.7,2.7,2.7,2.7c1,0,1.9,-1.3,2.8,-2.7c.9,-1.5,1.7,-2.8,2.7,-2.8c1.4,0,2.1,2.8,3.4,2.8h.2m62.4,-3.7c-1.6,3.3,-5.5,5.5,-10.9,5.5h-9.4c-5.4,0,-9.3,2.2,-10.9,5.5c-1.7,-3.3,-5.5,-5.5,-11,-5.5h-9.3c-5.5,0,-9.3,-2.2,-10.9,-5.5" class="g9_29"/>
<path d="M343.8,723.8V694.6M116.9,724.2H848.5M343.8,753.8V724.6m-108.7,52L260,791.4m0,29.4V791.6m-62.5,36.5h54.8m-54.8,0V791.6m24.8,-15l-24.8,14.8M166.3,772.8l31.2,18.6m-31.2,55.5l31.2,-18.6m-31.2,18.6L135,828.3m0,-.2V791.6m31.3,-18.8L135,791.4m30.2,-10.9l-23.1,13.7m23.1,45.1L142.1,825.6m49.4,-2.2V796.3m152.3,57.6V753.8" class="g0_29"/>
<path d="M502.2,776.6L527,791.4m0,29.4V791.6m-54.8,36.5h47.2" class="g4_29"/>
<path d="M464.6,820.8V800.7" class="g2_29"/>
<path d="M489.4,776.6l-18.2,11" class="g4_29"/>
<path d="M433.3,772.8l24.9,14.8m-24.9,59.3l24.9,-14.7m-24.9,14.7L402.1,828.3m0,-.2V791.6m31.2,-18.8l-31.2,18.6m30.1,-10.9l-23,13.7m23,45.1l-23,-13.7m49.3,-4.8V800.7" class="g2_29"/>
<path d="M343.8,883.1V853.9m0,58.4V883.1" class="g0_29"/>
<path d="M409.7,913.5c1.4,0,2.1,-2.7,3.4,-2.7c1,0,1.9,1.3,2.8,2.7c.9,1.4,1.7,2.7,2.7,2.7c1,0,1.9,-1.3,2.7,-2.7c.9,-1.4,1.8,-2.7,2.8,-2.7c1,0,1.8,1.3,2.7,2.7c.9,1.4,1.8,2.7,2.8,2.7c1,0,1.8,-1.3,2.7,-2.7c.9,-1.4,1.8,-2.7,2.7,-2.7c1,0,1.9,1.3,2.8,2.7c.9,1.4,1.7,2.7,2.7,2.7c1,0,1.9,-1.3,2.8,-2.7c.9,-1.4,1.7,-2.7,2.7,-2.7c1.4,0,2.1,2.7,3.4,2.7h1" class="g5_29"/>
<path d="M343.8,941.6V912.3m0,58.5V941.6m0,129.3V970.8" class="g0_29"/>
<path d="M502.2,993.6l18.3,11m6.5,33.2v-20.1m-62.4,27.4h54.8m-54.8,0v-36.5m24.8,-15l-24.8,14.8" class="g2_29"/>
<path d="M433.3,989.8l31.3,18.6m-31.3,55.5l31.3,-18.6m-31.3,18.6l-31.2,-18.6m0,-.2v-36.5m31.2,-18.8l-31.2,18.6m30.1,-11l-23,13.7m23,45.2l-23,-13.7m49.3,-2.2v-27.1" class="g4_29"/>
<path d="M343.8,1100.1v-29.2m0,58.4v-29.2" class="g0_29"/>
<path d="M455.4,1130.5c1.4,0,2,-2.7,3.4,-2.7c1,0,1.9,1.3,2.8,2.7c.8,1.4,1.7,2.7,2.7,2.7c1,0,1.8,-1.3,2.7,-2.7c.9,-1.4,1.8,-2.7,2.8,-2.7c1,0,1.8,1.3,2.7,2.7c.9,1.4,1.8,2.7,2.8,2.7c.9,0,1.8,-1.3,2.7,-2.7c.9,-1.4,1.7,-2.7,2.7,-2.7c1,0,1.9,1.3,2.8,2.7c.9,1.4,1.7,2.7,2.7,2.7c1,0,1.9,-1.3,2.8,-2.7c.8,-1.4,1.7,-2.7,2.7,-2.7c1.4,0,2,2.7,3.4,2.7h1m71.4,-2.6c1.3,0,2,-2.8,3.4,-2.8c1,0,1.8,1.4,2.7,2.8c.9,1.4,1.8,2.7,2.8,2.7c1,0,1.8,-1.3,2.7,-2.7c.9,-1.4,1.8,-2.8,2.7,-2.8c1,0,1.9,1.4,2.8,2.8c.9,1.4,1.7,2.7,2.7,2.7c1,0,1.9,-1.3,2.8,-2.7c.9,-1.4,1.7,-2.8,2.7,-2.8c1,0,1.9,1.4,2.7,2.8c.9,1.4,1.8,2.7,2.8,2.7c1,0,1.8,-1.3,2.7,-2.7c.9,-1.4,1.8,-2.8,2.8,-2.8c1,0,1.8,1.4,2.7,2.8c.9,1.4,1.8,2.7,2.7,2.7c1,0,1.9,-1.3,2.8,-2.7c.9,-1.4,1.7,-2.8,2.7,-2.8c1.4,0,2.1,2.8,3.4,2.8h.2m36,-3.7c-1.4,3.3,-4.5,5.5,-9,5.5c-4.5,0,-7.7,2.2,-9,5.5c-1.4,-3.3,-4.5,-5.5,-9,-5.5c-4.5,0,-7.7,-2.2,-9,-5.5" class="g9_29"/>
<path d="M343.8,1158.6v-29.3m-226.9,29.6H848.5" class="g0_29"/>
</svg>