<?xml version="1.0" encoding="UTF-8" standalone="no"?>
<!DOCTYPE svg PUBLIC "-//W3C//DTD SVG 1.1//EN"
"http://www.w3.org/Graphics/SVG/1.1/DTD/svg11.dtd">
<svg viewBox="0 0 1286 909" version="1.1" xmlns="http://www.w3.org/2000/svg" xmlns:xlink="http://www.w3.org/1999/xlink">
<defs>
<style type="text/css"><![CDATA[
.g0_111{
fill: none;
stroke: #000000;
stroke-width: 0.73;
stroke-linecap: butt;
stroke-linejoin: miter;
}
.g1_111{
fill: none;
stroke: #02B5EE;
stroke-width: 1.262;
stroke-linecap: butt;
stroke-linejoin: miter;
}
.g2_111{
fill: none;
stroke: #5EE200;
stroke-width: 1.262;
stroke-linecap: butt;
stroke-linejoin: miter;
}
.g3_111{
fill: none;
stroke: #5EE200;
stroke-width: 0.73;
stroke-linecap: butt;
stroke-linejoin: miter;
}
.g4_111{
fill: none;
stroke: #02B5EE;
stroke-width: 0.73;
stroke-linecap: butt;
stroke-linejoin: miter;
}
]]></style>
</defs>
<path d="M193,83.4h900.3M193,111.6H910.4m-717.4,0H910.4M582.9,141.2V112m0,114.3V141.2" class="g0_111"/>
<path d="M593.9,202.3H703.2" class="g1_111"/>
<path d="M713.7,202.3h22.2" class="g2_111"/>
<path d="M582.9,256.4V226.3m0,103.2V256.4" class="g0_111"/>
<path d="M670.2,315.6h34.3" class="g3_111"/>
<path d="M831.8,315.6h67.6" class="g4_111"/>
<path d="M582.9,358.7V329.5m0,58.4V358.7m0,114.3V387.9" class="g0_111"/>
<path d="M610.4,449h92.8" class="g1_111"/>
<path d="M713.7,449h22.2" class="g2_111"/>
<path d="M582.9,502.2V473m0,102.2v-73" class="g0_111"/>
<path d="M670.2,561.4h34.3" class="g3_111"/>
<path d="M831.8,561.4h67.6" class="g4_111"/>
<path d="M582.9,604.5V575.2M193,604.8H910.4m-717.4,0H910.4" class="g0_111"/>
</svg>