<?xml version="1.0" encoding="UTF-8" standalone="no"?>
<!DOCTYPE svg PUBLIC "-//W3C//DTD SVG 1.1//EN"
"http://www.w3.org/Graphics/SVG/1.1/DTD/svg11.dtd">
<svg viewBox="0 0 909 1286" version="1.1" xmlns="http://www.w3.org/2000/svg" xmlns:xlink="http://www.w3.org/1999/xlink">
<defs>
<style type="text/css"><![CDATA[
.g0_28{
fill: none;
stroke: #000000;
stroke-width: 1.461;
stroke-linecap: butt;
stroke-linejoin: miter;
}
.g1_28{
fill: none;
stroke: #000000;
stroke-width: 0.152;
stroke-linecap: butt;
stroke-linejoin: miter;
}
.g2_28{
fill: none;
stroke: #000000;
stroke-width: 0.73;
stroke-linecap: butt;
stroke-linejoin: miter;
}
.g3_28{
fill: none;
stroke: #7F7F7F;
stroke-width: 2.191;
stroke-linecap: butt;
stroke-linejoin: miter;
}
.g4_28{
fill: none;
stroke: #F81693;
stroke-width: 0.73;
stroke-linecap: butt;
stroke-linejoin: miter;
}
.g5_28{
fill: none;
stroke: #02B5EE;
stroke-width: 0.73;
stroke-linecap: butt;
stroke-linejoin: miter;
}
.g6_28{
fill: none;
stroke: #F81693;
stroke-width: 1.278;
stroke-linecap: butt;
stroke-linejoin: miter;
}
.g7_28{
fill: #F81693;
stroke: #F81693;
stroke-width: 1.155;
stroke-linecap: butt;
stroke-linejoin: round;
stroke-miterlimit: 1;
}
.g8_28{
fill: #7F7F7F;
stroke: #7F7F7F;
stroke-width: 1.155;
stroke-linecap: butt;
stroke-linejoin: round;
stroke-miterlimit: 1;
}
.g9_28{
fill: none;
stroke: #F81693;
stroke-width: 0.632;
stroke-linecap: butt;
stroke-linejoin: miter;
}
.ga_28{
fill: none;
stroke: #02B5EE;
stroke-width: 0.632;
stroke-linecap: butt;
stroke-linejoin: miter;
}
.gb_28{
fill: none;
stroke: #02B5EE;
stroke-width: 1.461;
stroke-linecap: butt;
stroke-linejoin: miter;
}
]]></style>
</defs>
<path d="M117.7,427.8V198.5m18.2,-18.2H665.7" class="g0_28"/>
<path d="M117.3,198.5h.7" class="g1_28"/>
<path d="M135.9,180.3h17.9" class="g2_28"/>
<path d="M792.9,198.5h.7" class="g1_28"/>
<path d="M756.3,180.3h17.9M390.1,356.2l31.2,18.7m0,36.7V375m-31.2,55.4l31.2,-18.6m-31.2,18.6L358.8,411.8m0,-.2V375m31.3,-18.8l-31.3,18.7M327.6,356.2l31.2,18.7m-31.2,55.5l31.2,-18.6m-31.2,18.6L296.4,411.8m0,-.2V375m31.2,-18.8l-31.2,18.7m30.1,-11l-23,13.7m23,45.1L303.5,409M389,363.9l-23.1,13.7M389,422.7L365.9,409m86.6,-52.8l31.3,18.7m0,36.7V375m-31.3,55.4l31.3,-18.6m-31.3,18.6L421.3,411.8m31.2,-55.6l-31.2,18.7m30.1,-11l-23,13.7m23,45.1L428.4,409M483.8,300.9L515,319.5m0,36.7V319.7M483.8,375L515,356.4m-62.5,-.2V319.7m31.3,-18.8l-31.3,18.6m30.2,-10.9l-23,13.7m23,45.1l-23,-13.7M515,245.5l31.2,18.7m0,36.7V264.4M515,319.7l31.2,-18.6m-62.4,-.2V264.4M515,245.5l-31.2,18.7m32.3,-11l23,13.7m-23,45.1l23,-13.7m-49.3,-2.2v-27" class="g2_28"/>
<path d="M117.3,428.2h.7" class="g1_28"/>
<path d="M135.9,446.5h17.9" class="g2_28"/>
<path d="M792.9,428.2h.7" class="g1_28"/>
<path d="M756.3,446.5h17.9" class="g2_28"/>
<path d="M135.9,446.1H775m18.2,-18.3V198.5" class="g0_28"/>
<path d="M440.4,681.3L136.1,477.9m0,203.4L440.4,477.9" class="g3_28"/>
<path d="M277.6,594.2l31.3,18.6m0,36.8V613m-31.3,55.4l31.3,-18.7m-31.3,18.7L246.4,649.7m0,-.1V613m31.2,-18.8l-31.2,18.6M215.2,594.2l31.2,18.6m-31.2,55.6l31.2,-18.7m-31.2,18.7L183.9,649.7m0,-.1V613m31.3,-18.8l-31.3,18.6m30.2,-10.9l-23,13.7m23,45.1L191.1,647m85.4,-45.1l-23,13.7m23,45.1L253.5,647m86.6,-52.8l31.2,18.6m0,36.8V613m-31.2,55.4l31.2,-18.7m-31.2,18.7L308.9,649.7m31.2,-55.5l-31.2,18.6M339,601.9l-23,13.7m23,45.1L316,647" class="g4_28"/>
<path d="M371.3,538.9l31.3,18.6m0,36.7V557.7M371.3,613l31.3,-18.6m-62.5,-.2V557.7m31.2,-18.8l-31.2,18.6m30.1,-11l-23,13.7m23,45.2l-23,-13.7M402.6,483.5l31.2,18.7m0,36.7V502.3m-31.2,55.4L433.8,539m-62.5,-.1V502.3m31.3,-18.8l-31.3,18.7m32.4,-11l23,13.7m-23,45.1l23,-13.7m-49.3,-2.2v-27" class="g5_28"/>
<path d="M642.2,594.2l31.3,18.6m0,36.8V613m-31.3,55.4l31.3,-18.7m-31.3,18.7L611,649.7m0,-.1V613m31.2,-18.8L611,612.8M579.8,594.2L611,612.8m-31.2,55.6L611,649.7m-31.2,18.7L548.5,649.7m0,-.1V613m31.3,-18.8l-31.3,18.6m30.2,-10.9l-23,13.7m23,45.1L555.7,647M605,644.8v-27m38.3,42.9L666.4,647" class="g4_28"/>
<path d="M517.3,594.2l31.2,18.6m-31.2,55.6l31.2,-18.7m-31.2,18.7L486.1,649.7m0,-.1V613m31.2,-18.8l-31.2,18.6m30.1,-10.9l-23,13.7m23,45.1L493.2,647" class="g5_28"/>
<path d="M673.5,538.9l31.2,18.6m0,36.7V557.7M673.5,613l31.2,-18.6m-62.5,-.2V557.7m31.3,-18.8l-31.3,18.6m32.4,-11l23,13.7m-23,45.2l23,-13.7m-49.3,-2.2V562.4" class="g4_28"/>
<path d="M704.7,483.5l31.2,18.7m0,36.7V502.3m-31.2,55.4l31.2,-18.6m-62.4,-.2V502.3m31.2,-18.8l-31.2,18.7m30.1,-11l-23,13.7m49.3,29.2v-27" class="g5_28"/>
<path d="M291.7,904.4l32.9,-54.6m0,0h64m32.9,54.6L388.6,849.8m32.9,54.6l-32.9,54.7m-64,0h64M291.7,904.4l32.9,54.7M305.1,902.5l25,-41.5m2.8,87.5h47.3m8.3,-98.7l33,-54.7m0,0h63.9m32.9,54.7L485.4,795.1m32.9,54.7l-32.9,54.6m-63.9,0h63.9M429.8,805.7h47.3m-75.1,46l24.9,41.5m91.4,-43.4h64m32.9,54.6L582.3,849.8m32.9,54.6l-32.9,54.7m-64,0h64M485.4,904.4l32.9,54.7m83.5,-56.6L576.8,861m-50.2,87.5H574" class="g6_28"/>
<path d="M526.4,849.8c0,3.5,-2.2,6.6,-5.6,7.7c-3.3,1,-7,-.1,-9,-3c-2.1,-2.8,-2.1,-6.6,0,-9.5c2,-2.8,5.7,-4,9,-2.9c3.4,1.1,5.6,4.2,5.6,7.7Z" class="g7_28"/>
<path d="M590.3,849.8c0,3.5,-2.2,6.6,-5.5,7.7c-3.4,1,-7,-.1,-9.1,-3c-2,-2.8,-2,-6.6,0,-9.5c2.1,-2.8,5.7,-4,9.1,-2.9c3.3,1.1,5.5,4.2,5.5,7.7Z" class="g8_28"/>
<path d="M623.3,904.4c0,3.5,-2.3,6.6,-5.6,7.7c-3.3,1.1,-7,-.1,-9.1,-2.9c-2,-2.8,-2,-6.7,0,-9.5c2.1,-2.9,5.8,-4,9.1,-3c3.3,1.1,5.6,4.2,5.6,7.7Z" class="g8_28"/>
<path d="M246.1,1085.3l-17.8,-31.8m18.4,-31.8l-18.3,31.7m54.7,-32.3l-36.3,.5m36.3,-.5l17.8,31.7m-.1,.2l-18.3,31.6m-36.4,.7l36.3,-.5m17.8,31.7l-17.8,-31.7m54.8,-32.5l-36.3,.5m36.3,-.5l17.8,31.8m-.1,.1l-18.3,31.7m-36.4,.6l36.3,-.5m-31.6,-5.6l26.8,-.3m2.7,-50.6l13,23.4m-43.8,-22.8l-13.5,23.4m-11.7,-56.3l-26.8,.3" class="g9_28"/>
<path d="M354.3,1147.8L336.5,1116m54.8,-32.5l-36.3,.6m36.3,-.6l17.8,31.8m-.1,.1l-18.3,31.7m-36.4,.7l36.3,-.6M359,1141.7l26.8,-.4m2.7,-50.6l13,23.4" class="ga_28"/>
<path d="M191.3,1117.6l-17.7,-31.7M192,1054.1l-18.3,31.6m54.7,-32.3l-36.4,.5m54.1,31.4l-18.3,31.6m-36.5,.7l36.4,-.5m-33.5,-6.7L181.1,1087m42.5,-27.5l-26.8,.3m41.7,26.6l-13.6,23.4" class="g9_28"/>
<path d="M136.6,1149.9l-17.7,-31.7m18.3,-31.8L119,1118m54.7,-32.3l-36.4,.5m54,31.4l-18.2,31.6m-36.5,.7l36.4,-.5m-31.6,-5.6l26.8,-.3m-28.1,-50l-13.5,23.4" class="ga_28"/>
<path d="M471,1122.4c1.3,0,2,-2.7,3.4,-2.7c1,0,1.8,1.3,2.7,2.7c.9,1.4,1.8,2.8,2.8,2.8c1,0,1.8,-1.4,2.7,-2.8c.9,-1.4,1.7,-2.7,2.7,-2.7c1,0,1.9,1.3,2.8,2.7c.9,1.4,1.7,2.8,2.7,2.8c1.4,0,2.1,-2.8,3.4,-2.8h3.1" class="gb_28"/>
</svg>