<?xml version="1.0" encoding="UTF-8" standalone="no"?>
<!DOCTYPE svg PUBLIC "-//W3C//DTD SVG 1.1//EN"
"http://www.w3.org/Graphics/SVG/1.1/DTD/svg11.dtd">
<svg viewBox="0 0 1286 909" version="1.1" xmlns="http://www.w3.org/2000/svg" xmlns:xlink="http://www.w3.org/1999/xlink">
<defs>
<style type="text/css"><![CDATA[
.g0_270{
fill: none;
stroke: #000000;
stroke-width: 0.73;
stroke-linecap: butt;
stroke-linejoin: miter;
}
.g1_270{
fill: none;
stroke: #02B5EE;
stroke-width: 1.262;
stroke-linecap: butt;
stroke-linejoin: miter;
}
.g2_270{
fill: none;
stroke: #5EE200;
stroke-width: 1.262;
stroke-linecap: butt;
stroke-linejoin: miter;
}
.g3_270{
fill: none;
stroke: #5EE200;
stroke-width: 0.73;
stroke-linecap: butt;
stroke-linejoin: miter;
}
.g4_270{
fill: none;
stroke: #02B5EE;
stroke-width: 0.73;
stroke-linecap: butt;
stroke-linejoin: miter;
}
.g5_270{
fill: #B3E9FA;
}
]]></style>
</defs>
<path d="M193,83.4h900.3M193,210.6H926.8m-733.8,0H926.8M601.6,240.2V211m0,58.5V240.2m0,114.3v-85" class="g0_270"/>
<path d="M708.2,330.5H882.9" class="g1_270"/>
<path d="M893.5,330.5h22.4" class="g2_270"/>
<path d="M601.6,383.7V354.5m0,102.3V383.7" class="g0_270"/>
<path d="M689.6,442.9H724" class="g3_270"/>
<path d="M730.1,442.9H915.9" class="g4_270"/>
<path d="M601.6,486V456.8m0,58.4V486m0,114.2v-85" class="g0_270"/>
<path d="M757.7,550.5V538.2c0,-2.8,2.3,-5.1,5.2,-5.1h89.6c2.9,0,5.2,2.3,5.2,5.1v12.3c0,2.8,-2.3,5.1,-5.2,5.1H762.9c-2.9,0,-5.2,-2.3,-5.2,-5.1Z" class="g5_270"/>
<path d="M755.1,576.2H860.3" class="g1_270"/>
<path d="M870.8,576.2h45.1" class="g2_270"/>
<path d="M601.6,629.5V600.2m0,58.5V629.5m0,58.4V658.7M193,688.3H926.8m-733.8,0H926.8" class="g0_270"/>
</svg>