<?xml version="1.0" encoding="UTF-8" standalone="no"?>
<!DOCTYPE svg PUBLIC "-//W3C//DTD SVG 1.1//EN"
"http://www.w3.org/Graphics/SVG/1.1/DTD/svg11.dtd">
<svg viewBox="0 0 909 1286" version="1.1" xmlns="http://www.w3.org/2000/svg" xmlns:xlink="http://www.w3.org/1999/xlink">
<defs>
<clipPath id="c0_38"><path d="M119.5,433.2V399.7H446.9v33.5Z"/></clipPath>
<clipPath id="c1_38"><path d="M462.5,433.2V399.7H789.9v33.5Z"/></clipPath>
<style type="text/css"><![CDATA[
.g0_38{
fill: none;
stroke: #000000;
stroke-width: 0.73;
stroke-linecap: butt;
stroke-linejoin: miter;
}
.g1_38{
fill: #E81A58;
}
.g2_38{
fill: #401A1A;
}
.g3_38{
fill: #7F7F7F;
fill-opacity: 0.01;
}
.g4_38{
fill: #7F7F7F;
fill-opacity: 0.02;
}
.g5_38{
fill: #7F7F7F;
fill-opacity: 0.04;
}
.g6_38{
fill: #7F7F7F;
fill-opacity: 0.07;
}
.g7_38{
fill: #7F7F7F;
fill-opacity: 0.11;
}
.g8_38{
fill: #FFFFFF;
}
.g9_38{
fill: #7F7F7F;
}
.ga_38{
fill: #00AEEF;
}
.gb_38{
fill: #CBCEFB;
}
]]></style>
</defs>
<path d="M116.9,159.9H792.5" class="g0_38"/>
<path d="M116.9,332.8V179.5H792.5V293.7c0,21.6,-17.5,39.1,-39.1,39.1Z" class="g1_38"/>
<path d="M119.5,330.2V179.5H789.9V293.7c0,20.1,-16.3,36.5,-36.5,36.5Z" class="g2_38"/>
<path d="M122.2,402.4c107.4,0,214.7,0,322,0V839.3c-107.3,-9.3,-214.6,-9.3,-322,0Z" class="g3_38"/>
<path d="M122.9,403c106.9,0,213.8,0,320.7,0V838.7c-106.9,-9.3,-213.8,-9.3,-320.7,0Z" class="g4_38"/>
<path d="M123.5,403.6c106.5,0,213,0,319.5,0V838.1c-106.5,-9.4,-213,-9.4,-319.5,0Z" class="g5_38"/>
<path d="M124.1,404.3c106.1,0,212.2,0,318.3,0V837.5c-106.1,-9.4,-212.2,-9.4,-318.3,0Z" class="g6_38"/>
<path d="M124.7,404.9c105.7,0,211.4,0,317,0V836.8c-105.6,-9.3,-211.3,-9.3,-317,0Z" class="g7_38"/>
<path d="M125.4,405.5c105.2,0,210.5,0,315.7,0V836.2c-105.2,-9.3,-210.5,-9.3,-315.7,0Z" class="g7_38"/>
<path d="M126,406.1c104.8,0,209.7,0,314.5,0V835.6c-104.8,-9.4,-209.7,-9.4,-314.5,0Z" class="g6_38"/>
<path d="M126.6,406.8c104.4,0,208.8,0,313.3,0V835C335.4,825.6,231,825.6,126.6,835Z" class="g5_38"/>
<path d="M127.2,407.4c104,0,208,0,312,0V834.3c-104,-9.3,-208,-9.3,-312,0Z" class="g4_38"/>
<path d="M127.9,408c103.5,0,207.1,0,310.7,0V833.7c-103.6,-9.3,-207.2,-9.3,-310.7,0Z" class="g3_38"/>
<path d="M116.9,829V397.1H449.5V829Z" class="g8_38"/>
<path d="M119.5,826.4V435.8H446.9V826.4Z" class="g8_38"/>
<path d="M119.5,433.2V399.7H446.9v33.5Z" class="g9_38"/>
<g clip-path="url(#c0_38)">
<image x="119" y="399" width="329" height="34" xlink:href="shade/1.png"/>
</g>
<path d="M316.9,428h104V404.9h-104V428Z" class="ga_38"/>
<path d="M180.9,481H385.6M181.3,510.6V481.4" class="g0_38"/>
<path d="M181.6,510.6h62.1V481.4H181.6v29.2Z" class="gb_38"/>
<path d="M244,510.6V481.4" class="g0_38"/>
<path d="M244.4,510.6h69.8V481.4H244.4v29.2Z" class="gb_38"/>
<path d="M314.6,510.6V481.4" class="g0_38"/>
<path d="M315,510.6h69.8V481.4H315v29.2Z" class="gb_38"/>
<path d="M385.2,510.6V481.4M180.9,510.9H385.6M181.3,540.5V511.3M244,540.5V511.3m70.6,29.2V511.3m70.6,29.2V511.3M180.9,540.9H385.6M181.3,570.5V541.3M244,570.5V541.3m70.6,29.2V541.3m70.6,29.2V541.3M180.9,570.9H385.6M181.3,600.4V571.2M244,600.4V571.2m70.6,29.2V571.2m70.6,29.2V571.2M180.9,600.8H385.6M181.3,630.4V601.2M244,630.4V601.2m70.6,29.2V601.2m70.6,29.2V601.2M180.9,630.8H385.6M181.3,660.4V631.1M244,660.4V631.1m70.6,29.3V631.1m70.6,29.3V631.1M180.9,660.7H385.6M181.3,690.3V661.1M244,690.3V661.1m70.6,29.2V661.1m70.6,29.2V661.1M180.9,690.7H385.6M181.3,720.3V691M244,720.3V691m70.6,29.3V691m70.6,29.3V691M180.9,720.6H385.6M181.3,750.2V721M244,750.2V721m70.6,29.2V721m70.6,29.2V721M180.9,750.6H385.6M181.3,780.2V750.9M244,780.2V750.9m70.6,29.3V750.9m70.6,29.3V750.9M180.9,780.5H385.6M181.3,810.1V780.9M244,810.1V780.9m70.6,29.2V780.9m70.6,29.2V780.9M180.9,810.5H385.6" class="g0_38"/>
<path d="M465.2,402.4c107.4,0,214.7,0,322,0V693.8c-107.3,-9.4,-214.6,-9.4,-322,0Z" class="g3_38"/>
<path d="M465.8,403c107,0,213.9,0,320.8,0V693.1c-106.9,-9.3,-213.8,-9.3,-320.8,0Z" class="g4_38"/>
<path d="M466.5,403.6c106.5,0,213,0,319.5,0V692.5c-106.5,-9.3,-213,-9.3,-319.5,0Z" class="g5_38"/>
<path d="M467.1,404.3c106.1,0,212.2,0,318.2,0V691.9c-106,-9.4,-212.1,-9.4,-318.2,0Z" class="g6_38"/>
<path d="M467.7,404.9c105.7,0,211.3,0,317,0V691.3c-105.7,-9.4,-211.3,-9.4,-317,0Z" class="g7_38"/>
<path d="M468.3,405.5c105.3,0,210.5,0,315.8,0V690.6c-105.3,-9.3,-210.5,-9.3,-315.8,0Z" class="g7_38"/>
<path d="M469,406.1c104.8,0,209.6,0,314.5,0V690C678.6,680.7,573.8,680.7,469,690Z" class="g6_38"/>
<path d="M469.6,406.8c104.4,0,208.8,0,313.2,0V689.4C678.4,680,574,680,469.6,689.4Z" class="g5_38"/>
<path d="M470.2,407.4c104,0,208,0,312,0V688.8c-104,-9.4,-208,-9.4,-312,0Z" class="g4_38"/>
<path d="M470.8,408c103.6,0,207.2,0,310.8,0V688.2c-103.6,-9.4,-207.2,-9.4,-310.8,0Z" class="g3_38"/>
<path d="M459.9,683.5V397.1H792.5V683.5Z" class="g8_38"/>
<path d="M462.5,680.9V435.8H789.9V680.9Z" class="g8_38"/>
<path d="M462.5,433.2V399.7H789.9v33.5Z" class="g9_38"/>
<g clip-path="url(#c1_38)">
<image x="462" y="399" width="329" height="34" xlink:href="shade/2.png"/>
</g>
<path d="M659.9,428h104V404.9h-104V428Z" class="ga_38"/>
<path d="M538.3,485.2H714.2M538.6,514.8V485.6" class="g0_38"/>
<path d="M539,514.8h62V485.6H539v29.2Z" class="gb_38"/>
<path d="M601.4,514.8V485.6" class="g0_38"/>
<path d="M601.7,514.8H662V485.6H601.7v29.2Z" class="gb_38"/>
<path d="M662.4,514.8V485.6" class="g0_38"/>
<path d="M662.7,514.8h50.7V485.6H662.7v29.2Z" class="gb_38"/>
<path d="M713.8,514.8V485.6M538.3,515.2H714.2M538.6,544.7V515.5m62.8,29.2V515.5m61,29.2V515.5m51.4,29.2V515.5M538.3,545.1H714.2M538.6,574.7V545.5m62.8,29.2V545.5m61,29.2V545.5m51.4,29.2V545.5M538.3,575.1H714.2M538.6,604.6V575.4m62.8,29.2V575.4m61,29.2V575.4m51.4,29.2V575.4M538.3,605H714.2M538.6,634.6V605.4m62.8,29.2V605.4m61,29.2V605.4m51.4,29.2V605.4M538.3,635H714.2M538.6,664.6V635.3m62.8,29.3V635.3m61,29.3V635.3m51.4,29.3V635.3M538.3,664.9H714.2" class="g0_38"/>
</svg>