<?xml version="1.0" encoding="UTF-8" standalone="no"?>
<!DOCTYPE svg PUBLIC "-//W3C//DTD SVG 1.1//EN"
"http://www.w3.org/Graphics/SVG/1.1/DTD/svg11.dtd">
<svg viewBox="0 0 1286 909" version="1.1" xmlns="http://www.w3.org/2000/svg" xmlns:xlink="http://www.w3.org/1999/xlink">
<defs>
<style type="text/css"><![CDATA[
.g0_1204{
fill: none;
stroke: #000000;
stroke-width: 0.73;
stroke-linecap: butt;
stroke-linejoin: miter;
}
.g1_1204{
fill: none;
stroke: #000000;
stroke-width: 0.62;
stroke-linecap: butt;
stroke-linejoin: miter;
}
.g2_1204{
fill: #FDE8E9;
}
]]></style>
</defs>
<path d="M193,83.4h900.3" class="g0_1204"/>
<path d="M202.3,111.6H460.6M202.3,136.7V111.9m122,24.8V111.9m136.3,24.8V111.9M202.3,162.4V136.7m122,25.7V136.7" class="g1_1204"/>
<path d="M333.6,159.6H447.1V139.8H333.6v19.8Z" class="g2_1204"/>
<path d="M460.6,162.4V136.7M202.3,187.2V162.4m122,24.8V162.4m136.3,24.8V162.4M202.3,212.1V187.2m122,24.9V187.2m136.3,24.9V187.2M202.3,239.8V212.1m122,27.7V212.1" class="g1_1204"/>
<path d="M333.6,237h60.5V212.1H333.6V237Z" class="g2_1204"/>
<path d="M460.6,239.8V212.1M202.3,264.6V239.8m122,24.8V239.8m136.3,24.8V239.8M202.3,289.5V264.6m122,24.9V264.6m136.3,24.9V264.6M202.3,318.9V289.5m122,29.4V289.5" class="g1_1204"/>
<path d="M333.6,318.9H451.3V289.5H333.6v29.4Z" class="g2_1204"/>
<path d="M460.6,318.9V289.5M202.3,343.7V318.9m122,24.8V318.9m136.3,24.8V318.9M202.3,368.6V343.7m122,24.9V343.7m136.3,24.9V343.7M202.3,396.3V368.6m122,27.7V368.6" class="g1_1204"/>
<path d="M333.6,393.5h92.1V368.6H333.6v24.9Z" class="g2_1204"/>
<path d="M460.6,396.3V368.6M202.3,421.2V396.3m122,24.9V396.3m136.3,24.9V396.3M202.3,446V421.2m122,24.8V421.2M460.6,446V421.2M202.3,471.7V446m122,25.7V446" class="g1_1204"/>
<path d="M333.6,468.9H381V449H333.6v19.9Z" class="g2_1204"/>
<path d="M460.6,471.7V446M202.3,496.5V471.7m122,24.8V471.7m136.3,24.8V471.7M202.3,521.3V496.5m122,24.8V496.5m136.3,24.8V496.5M202.3,549.1V521.3m122,27.8V521.3" class="g1_1204"/>
<path d="M333.6,546.3h83.3v-25H333.6v25Z" class="g2_1204"/>
<path d="M460.6,549.1V521.3M202.3,573.9V549.1m122,24.8V549.1m136.3,24.8V549.1M202.3,598.8V573.9m122,24.9V573.9m136.3,24.9V573.9M202.3,628.2V598.8m122,29.4V598.8" class="g1_1204"/>
<path d="M333.6,628.2h76.8V598.8H333.6v29.4Z" class="g2_1204"/>
<path d="M460.6,628.2V598.8M202.3,653V628.2m122,24.8V628.2M460.6,653V628.2M202.3,677.9V653m122,24.9V653m136.3,24.9V653M202.3,705.6V677.9m122,27.7V677.9" class="g1_1204"/>
<path d="M333.6,702.8h69.5V677.9H333.6v24.9Z" class="g2_1204"/>
<path d="M460.6,705.6V677.9M202.3,730.5V705.6m122,24.9V705.6m136.3,24.9V705.6M202.3,730.8H460.6M479.2,109.5H790.7M479.2,134.6V109.8m142.7,24.8V109.8m168.8,24.8V109.8M479.2,164V134.6M621.9,164V134.6" class="g1_1204"/>
<path d="M631.2,164h88.2V134.6H631.2V164Z" class="g2_1204"/>
<path d="M790.7,164V134.6M479.2,188.9V164m142.7,24.9V164m168.8,24.9V164M479.2,213.7V188.9m142.7,24.8V188.9m168.8,24.8V188.9M479.2,243.2V213.7m142.7,29.5V213.7" class="g1_1204"/>
<path d="M631.2,243.2H781.4V213.7H631.2v29.5Z" class="g2_1204"/>
<path d="M790.7,243.2V213.7M479.2,268V243.2M621.9,268V243.2M790.7,268V243.2M479.2,292.8V268m142.7,24.8V268m168.8,24.8V268M479.2,320.6V292.8m142.7,27.8V292.8" class="g1_1204"/>
<path d="M631.2,317.8h47.1v-25H631.2v25Z" class="g2_1204"/>
<path d="M790.7,320.6V292.8M479.2,345.4V320.6m142.7,24.8V320.6m168.8,24.8V320.6M479.2,370.3V345.4m142.7,24.9V345.4m168.8,24.9V345.4M479.2,398V370.3M621.9,398V370.3" class="g1_1204"/>
<path d="M631.2,395.2h88.6V370.3H631.2v24.9Z" class="g2_1204"/>
<path d="M790.7,398V370.3M479.2,422.8V398m142.7,24.8V398m168.8,24.8V398M479.2,447.7V422.8m142.7,24.9V422.8m168.8,24.9V422.8M479.2,475.4V447.7m142.7,27.7V447.7" class="g1_1204"/>
<path d="M631.2,472.6H711V447.7H631.2v24.9Z" class="g2_1204"/>
<path d="M790.7,475.4V447.7M479.2,500.3V475.4m142.7,24.9V475.4m168.8,24.9V475.4M479.2,525.1V500.3m142.7,24.8V500.3m168.8,24.8V500.3M479.2,552.9V525.1m142.7,27.8V525.1" class="g1_1204"/>
<path d="M631.2,550.1H735.9v-25H631.2v25Z" class="g2_1204"/>
<path d="M790.7,552.9V525.1M479.2,577.7V552.9m142.7,24.8V552.9m168.8,24.8V552.9M479.2,602.5V577.7m142.7,24.8V577.7m168.8,24.8V577.7M479.2,630.3V602.5m142.7,27.8V602.5" class="g1_1204"/>
<path d="M631.2,627.5h132v-25h-132v25Z" class="g2_1204"/>
<path d="M790.7,630.3V602.5M479.2,655.1V630.3m142.7,24.8V630.3m168.8,24.8V630.3M479.2,680V655.1M621.9,680V655.1M790.7,680V655.1M479.2,707.7V680m142.7,27.7V680" class="g1_1204"/>
<path d="M631.2,704.9H767.9V680H631.2v24.9Z" class="g2_1204"/>
<path d="M790.7,707.7V680M479.2,732.6V707.7m142.7,24.9V707.7m168.8,24.9V707.7M479.2,732.9H790.7M809.4,109.7h266.9M809.4,134.8V110M952,134.8V110m124.3,24.8V110M809.4,162.6V134.8M952,162.6V134.8" class="g1_1204"/>
<path d="M961.4,159.8H1067v-25H961.4v25Z" class="g2_1204"/>
<path d="M1076.3,162.6V134.8M809.4,187.4V162.6M952,187.4V162.6m124.3,24.8V162.6M809.4,212.3V187.4M952,212.3V187.4m124.3,24.9V187.4M809.4,239.6V212.3M952,239.6V212.3" class="g1_1204"/>
<path d="M961.4,239.6h56.8V215.3H961.4v24.3Z" class="g2_1204"/>
<path d="M1076.3,239.6V212.3M809.4,264.4V239.6M952,264.4V239.6m124.3,24.8V239.6M809.4,289.3V264.4M952,289.3V264.4m124.3,24.9V264.4M809.4,317V289.3M952,317V289.3" class="g1_1204"/>
<path d="M961.4,314.2h66.7V289.3H961.4v24.9Z" class="g2_1204"/>
<path d="M1076.3,317V289.3M809.4,341.9V317M952,341.9V317m124.3,24.9V317M809.4,366.7V341.9M952,366.7V341.9m124.3,24.8V341.9M809.4,394.4V366.7M952,394.4V366.7" class="g1_1204"/>
<path d="M961.4,391.6h91.2V366.7H961.4v24.9Z" class="g2_1204"/>
<path d="M1076.3,394.4V366.7M809.4,419.3V394.4M952,419.3V394.4m124.3,24.9V394.4M809.4,444.1V419.3M952,444.1V419.3m124.3,24.8V419.3M809.4,473.5V444.1M952,473.5V444.1" class="g1_1204"/>
<path d="M961.4,473.5h44.7V444.1H961.4v29.4Z" class="g2_1204"/>
<path d="M1076.3,473.5V444.1M809.4,498.4V473.5M952,498.4V473.5m124.3,24.9V473.5M809.4,523.2V498.4M952,523.2V498.4m124.3,24.8V498.4M809.4,551V523.2M952,551V523.2" class="g1_1204"/>
<path d="M961.4,548.2h59.8v-25H961.4v25Z" class="g2_1204"/>
<path d="M1076.3,551V523.2M809.4,575.8V551M952,575.8V551m124.3,24.8V551M809.4,600.7V575.8M952,600.7V575.8m124.3,24.9V575.8M809.4,630.1V600.7M952,630.1V600.7" class="g1_1204"/>
<path d="M961.4,630.1h104.4V600.7H961.4v29.4Z" class="g2_1204"/>
<path d="M1076.3,630.1V600.7M809.4,654.9V630.1M952,654.9V630.1m124.3,24.8V630.1M809.4,679.8V654.9M952,679.8V654.9m124.3,24.9V654.9M809.4,707.5V679.8M952,707.5V679.8" class="g1_1204"/>
<path d="M961.4,704.7h66.4V679.8H961.4v24.9Z" class="g2_1204"/>
<path d="M1076.3,707.5V679.8M809.4,732.3V707.5M952,732.3V707.5m124.3,24.8V707.5M809.4,732.7h266.9" class="g1_1204"/>
</svg>