<?xml version="1.0" encoding="UTF-8" standalone="no"?>
<!DOCTYPE svg PUBLIC "-//W3C//DTD SVG 1.1//EN"
"http://www.w3.org/Graphics/SVG/1.1/DTD/svg11.dtd">
<svg viewBox="0 0 1286 909" version="1.1" xmlns="http://www.w3.org/2000/svg" xmlns:xlink="http://www.w3.org/1999/xlink">
<defs>
<style type="text/css"><![CDATA[
.g0_588{
fill: none;
stroke: #000000;
stroke-width: 0.73;
stroke-linecap: butt;
stroke-linejoin: miter;
}
.g1_588{
fill: #FFCCCC;
}
.g2_588{
fill: none;
stroke: #02B5EE;
stroke-width: 1.262;
stroke-linecap: butt;
stroke-linejoin: miter;
}
.g3_588{
fill: none;
stroke: #02B5EE;
stroke-width: 0.73;
stroke-linecap: butt;
stroke-linejoin: miter;
}
.g4_588{
fill: none;
stroke: #5EE200;
stroke-width: 1.262;
stroke-linecap: butt;
stroke-linejoin: miter;
}
.g5_588{
fill: none;
stroke: #5EE200;
stroke-width: 0.73;
stroke-linecap: butt;
stroke-linejoin: miter;
}
]]></style>
</defs>
<path d="M193,83.4h900.3M193,111.6H843.1m-650.1,0H843.1M409.3,141.2V112m0,114.3V141.2" class="g0_588"/>
<path d="M474.8,190.6h62.1V157.7H474.8v32.9Z" class="g1_588"/>
<path d="M557.3,202.3H702.8" class="g2_588"/>
<path d="M409.3,255.5V226.3m0,102.2v-73" class="g0_588"/>
<path d="M617.1,314.7h67.6" class="g3_588"/>
<path d="M758.3,304.8h73.8V271.9H758.3v32.9Z" class="g1_588"/>
<path d="M409.3,357.8V328.5m0,58.5V357.8m0,59.4V387m0,59.4V417.2m0,58.4V446.4m0,114.2v-85" class="g0_588"/>
<path d="M436.7,536.6H564.4" class="g2_588"/>
<path d="M574.9,536.6h22.2" class="g4_588"/>
<path d="M409.3,589.9V560.6m0,102.3v-73" class="g0_588"/>
<path d="M603,649h34.2" class="g5_588"/>
<path d="M764.6,649h67.5" class="g3_588"/>
<path d="M409.3,692.1V662.9M193,692.5H843.1m-650.1,0H843.1" class="g0_588"/>
</svg>