<?xml version="1.0" encoding="UTF-8" standalone="no"?>
<!DOCTYPE svg PUBLIC "-//W3C//DTD SVG 1.1//EN"
"http://www.w3.org/Graphics/SVG/1.1/DTD/svg11.dtd">
<svg viewBox="0 0 909 1286" version="1.1" xmlns="http://www.w3.org/2000/svg" xmlns:xlink="http://www.w3.org/1999/xlink">
<defs>
<style type="text/css"><![CDATA[
.g0_36{
fill: none;
stroke: #000000;
stroke-width: 0.73;
stroke-linecap: butt;
stroke-linejoin: miter;
}
]]></style>
</defs>
<path d="M184.9,228.4V181m109.8,2.3h77.7M295,211.1V183.3m77.1,27.8V183.3m-77.4,27.8h77.7M406,183.3h81.2m-80.8,27.8V183.3m80.4,27.8V183.3M406,211.1h81.2M610.1,183.3h77.7m-77.4,27.8V183.3m77.1,27.8V183.3m-77.4,27.8h77.7M184.9,257.6V228.4m0,58.5V257.6m0,98.8V286.9m0,102.2V356.4m5.8,2.3h77.8m-77.4,27.8V358.7m77,27.8V358.7m-77.4,27.8h77.8m33.6,-27.8h81.2m-80.9,27.8V358.7m80.5,27.8V358.7m-80.8,27.8h81.2M184.9,462.2V389.1m0,102.3V462.2m0,58.4V491.4m0,102.3V520.6m0,116.9V593.7m0,87.7V637.5m0,73.1V681.4m0,52.9V710.6" class="g0_36"/>
</svg>