<?xml version="1.0" encoding="UTF-8" standalone="no"?>
<!DOCTYPE svg PUBLIC "-//W3C//DTD SVG 1.1//EN"
"http://www.w3.org/Graphics/SVG/1.1/DTD/svg11.dtd">
<svg viewBox="0 0 909 1286" version="1.1" xmlns="http://www.w3.org/2000/svg" xmlns:xlink="http://www.w3.org/1999/xlink">
<defs>
<style type="text/css"><![CDATA[
.g0_12{
fill: none;
stroke: #000000;
stroke-width: 0.73;
stroke-linecap: butt;
stroke-linejoin: miter;
}
.g1_12{
fill: none;
stroke: #02B5EE;
stroke-width: 0.73;
stroke-linecap: butt;
stroke-linejoin: miter;
}
.g2_12{
fill: none;
stroke: #F81693;
stroke-width: 0.73;
stroke-linecap: butt;
stroke-linejoin: miter;
}
.g3_12{
fill: #FFFFFF;
}
.g4_12{
fill: #FDE8E9;
}
]]></style>
</defs>
<path d="M116.9,179.9H598.7M307.3,209.5V180.3M197.5,258.8L172.6,244m24.9,14.8L222.3,244M260,258.8L235.1,244m72.2,47.3V209.5" class="g0_12"/>
<path d="M480.1,225.6l24.8,14.7M467.3,225.6l-18.2,10.9" class="g1_12"/>
<path d="M433.3,254l-18.2,11m.9,-.5L391.1,249.7" class="g2_12"/>
<path d="M307.3,320.5V291.3m0,58.5V320.5m0,58.5V349.8m0,60V379m0,60.1V409.8m0,105V439.1" class="g0_12"/>
<path d="M384.9,507V446.8c0,-2.8,2.3,-5.2,5.2,-5.2h159c2.9,0,5.2,2.4,5.2,5.2V507c0,2.9,-2.3,5.2,-5.2,5.2h-159c-2.9,0,-5.2,-2.3,-5.2,-5.2Z" class="g3_12"/>
<path d="M441,537.9h57.2V521.2H441v16.7Z" class="g4_12"/>
<path d="M410.9,496.6H528.3V457.2H410.9v39.4Z" class="g4_12"/>
<path d="M307.3,544V514.8M116.9,544.4H598.7M307.3,574V544.7M188.4,604.5l31.2,18.6M188.4,604.5l-24.9,14.8m93.7,-11l24.9,14.8M244.4,608.3l-24.8,14.8m87.7,32.7V574" class="g0_12"/>
<path d="M516.6,590l24.9,14.8M503.8,590l-18.2,11" class="g1_12"/>
<path d="M469.9,618.5l-18.3,11M421.3,610.1l31.2,18.7M421.3,610.1l-24.9,14.8" class="g2_12"/>
<path d="M307.3,685V655.8m0,58.4V685m0,58.5V714.2m0,60.1V743.5m0,60V774.3m0,97.7V803.5" class="g0_12"/>
<path d="M384.9,864.2V811.3c0,-2.9,2.3,-5.2,5.2,-5.2H571.5c2.8,0,5.2,2.3,5.2,5.2v52.9c0,2.9,-2.4,5.2,-5.2,5.2H390.1c-2.9,0,-5.2,-2.3,-5.2,-5.2Z" class="g3_12"/>
<path d="M447.1,895.2h67.4V878.5H447.1v16.7Z" class="g4_12"/>
<path d="M410.9,853.8H550.7V821.7H410.9v32.1Z" class="g4_12"/>
<path d="M307.3,901.2V872M116.9,901.6H598.7" class="g0_12"/>
</svg>