<?xml version="1.0" encoding="UTF-8" standalone="no"?>
<!DOCTYPE svg PUBLIC "-//W3C//DTD SVG 1.1//EN"
"http://www.w3.org/Graphics/SVG/1.1/DTD/svg11.dtd">
<svg viewBox="0 0 909 1286" version="1.1" xmlns="http://www.w3.org/2000/svg" xmlns:xlink="http://www.w3.org/1999/xlink">
<defs>
<clipPath id="c0_95"><path d="M123.1,296.1V264.4h29.1v31.7Z"/></clipPath>
<clipPath id="c1_95"><path d="M122.1,296.6V263.9H153v32.7Z"/></clipPath>
<style type="text/css"><![CDATA[
.g0_95{
fill: #FFFFFF;
}
.g1_95{
}
.g2_95{
fill: none;
stroke: #000000;
stroke-width: 0.459;
stroke-linecap: butt;
stroke-linejoin: round;
}
.g3_95{
fill: none;
stroke: #000000;
stroke-width: 0.722;
stroke-linecap: round;
stroke-linejoin: miter;
}
.g4_95{
fill: none;
stroke: #000000;
stroke-width: 0.722;
stroke-linecap: round;
stroke-linejoin: round;
}
.g5_95{
fill: #D40000;
}
.g6_95{
fill: none;
stroke: #000000;
stroke-width: 0.578;
stroke-linecap: round;
stroke-linejoin: miter;
}
.g7_95{
fill: #E9C6AF;
}
.g8_95{
fill: none;
stroke: #695000;
stroke-width: 0.152;
stroke-linecap: round;
stroke-linejoin: round;
}
.g9_95{
fill: none;
stroke: #000000;
stroke-width: 1.461;
stroke-linecap: butt;
stroke-linejoin: miter;
}
.ga_95{
fill: none;
stroke: #000000;
stroke-width: 0.73;
stroke-linecap: butt;
stroke-linejoin: miter;
}
.gb_95{
fill: none;
stroke: #000000;
stroke-width: 2.739;
stroke-linecap: butt;
stroke-linejoin: miter;
}
.gc_95{
fill: none;
stroke: #5EE200;
stroke-width: 0.73;
stroke-linecap: butt;
stroke-linejoin: miter;
stroke-opacity: 0;
}
.gd_95{
fill: none;
stroke: #02B5EE;
stroke-width: 2.191;
stroke-linecap: butt;
stroke-linejoin: miter;
}
.ge_95{
fill: #02B5EE;
stroke: #02B5EE;
stroke-width: 2.191;
stroke-linecap: butt;
stroke-linejoin: miter;
}
.gf_95{
fill: none;
stroke: #F81693;
stroke-width: 0.73;
stroke-linecap: butt;
stroke-linejoin: miter;
stroke-opacity: 0;
stroke-dasharray: 6,4;
}
.gg_95{
fill: none;
stroke: #F81693;
stroke-width: 2.191;
stroke-linecap: butt;
stroke-linejoin: miter;
}
.gh_95{
fill: #F81693;
stroke: #F81693;
stroke-width: 2.191;
stroke-linecap: butt;
stroke-linejoin: miter;
}
.gi_95{
fill: none;
stroke: #02B5EE;
stroke-width: 0.73;
stroke-linecap: butt;
stroke-linejoin: miter;
stroke-opacity: 0;
stroke-dasharray: 6,6;
}
.gj_95{
fill: none;
stroke: #000000;
stroke-width: 2.191;
stroke-linecap: butt;
stroke-linejoin: miter;
stroke-dasharray: 6,4;
}
.gk_95{
stroke: #000000;
stroke-width: 2.191;
stroke-linecap: butt;
stroke-linejoin: miter;
}
]]></style>
</defs>
<path d="M117.7,397.2V257.6H791.8V397.2Z" class="g0_95"/>
<path d="M117.7,397.2V257.6H791.8V397.2Z" class="g9_95"/>
<g clip-path="url(#c1_95)">
<path clip-path="url(#c0_95)" d="M126.4,289.8c0,0,1.5,-1,1.2,-1.3c-.1,-.1,-.3,-.1,-.6,-.1c-1.6,.4,-5,2.2,-3.3,4.2c1.4,1.6,6.4,2.4,11.7,1.4c7.3,-1.5,13.5,-5.5,11.1,-8.3c-1.6,-2,-6.7,-2.2,-10.8,-2.2c-2.1,0,-6.6,-.1,-8,-1.8c-.6,-.7,-.5,-1.5,.1,-2.1c1,-.9,3.8,-1.4,4,-1.5c.7,-.1,2.5,-.4,4.6,-.4c1.1,.1,2.5,.1,3.2,1c.2,.2,.4,.6,.4,.7c0,0,0,.1,.1,.2c.1,.1,.4,.1,.5,0c.5,0,1.5,-.5,2,-1c.3,-.2,.8,-.6,0,-1.5c-.9,-1.1,-2.3,-1.2,-4,-1.2c-2.3,0,-4.1,.3,-4.9,.5c-5.8,1.1,-11.1,4.6,-9,7c1.5,1.8,6.3,1.9,9,1.9c3.9,.1,8.4,.3,9.8,2c.6,.6,.9,1.8,-.4,2.9c-1.2,.9,-4,1.7,-5.8,2c-4.4,.9,-9.4,.2,-10.6,-1.3c0,0,-.5,-.5,-.3,-1.1Z" class="g1_95"/>
<path d="M131.5,292.2l-.2,-.2l.3,-4.6q.3,-5.6,.5,-6c.1,-.1,1.6,-2.2,3.3,-4.6c1.7,-2.3,4.3,-6,5.9,-8.2c1.5,-2.2,2.8,-4,2.9,-4c.4,0,.1,.4,-1.8,3.2c-1.2,1.6,-3.7,5.3,-5.7,8.1c-2,2.8,-3.6,5.2,-3.6,5.2c0,0,.5,.1,1,.1c2,.3,3.3,.6,4.5,1.3c.6,.3,1,.5,1.5,1.1c.8,.8,1.2,1.4,1.4,2.2c.1,.2,.1,.4,.2,.4c.1,0,.7,-.8,5.2,-7.5c2.4,-3.7,4.5,-6.8,4.6,-6.9c.2,-.2,.4,0,.2,.3c0,.1,-1.5,2.3,-3.2,5c-1.8,2.6,-3.8,5.7,-4.5,6.7c-1.5,2.4,-2.1,3.4,-2.3,3.8c-.2,.4,-.3,.4,-.9,.7c-.8,.4,-8.7,4,-8.9,4c-.1,.1,-.3,0,-.4,-.1Z" class="g1_95"/>
<path d="M135.2,290.2c2.2,-1,4,-1.7,4.6,-2.1c.7,-.3,.7,-.4,.7,-1.4c-.2,-1.7,-1.4,-3,-3.6,-3.7c-1.2,-.4,-4.3,-.8,-4.4,-.6c0,0,-.1,1.4,-.2,3.1c-.1,1.7,-.2,3.3,-.2,3.6c-.1,1.1,.1,1.4,-.2,2.6c.1,.1,1.8,-.9,1.8,-.9c.1,0,.7,-.2,1.5,-.6Z" class="g1_95"/>
<path d="M131.5,292.2l-.2,-.2l.3,-4.6q.3,-5.6,.5,-6c.1,-.1,1.6,-2.2,3.3,-4.6c1.7,-2.3,4.3,-6,5.9,-8.2c1.5,-2.2,2.8,-4,2.9,-4c.4,0,.1,.4,-1.8,3.2c-1.2,1.6,-3.7,5.3,-5.7,8.1c-2,2.8,-3.6,5.2,-3.6,5.2c0,0,.5,.1,1,.1c2,.3,3.3,.6,4.5,1.3c.6,.3,1,.5,1.5,1.1c.8,.8,1.2,1.4,1.4,2.2c.1,.2,.1,.4,.2,.4c.1,0,.7,-.8,5.2,-7.5c2.4,-3.7,4.5,-6.8,4.6,-6.9c.2,-.2,.4,0,.2,.3c0,.1,-1.5,2.3,-3.2,5c-1.8,2.6,-3.8,5.7,-4.5,6.7c-1.5,2.4,-2.1,3.4,-2.3,3.8c-.2,.4,-.3,.4,-.9,.7c-.8,.4,-8.7,4,-8.9,4c-.1,.1,-.3,0,-.4,-.1Zm3.7,-2c2.2,-1,4,-1.7,4.6,-2.1c.7,-.3,.7,-.4,.7,-1.4c-.2,-1.7,-1.4,-3,-3.6,-3.7c-1.2,-.4,-4.3,-.8,-4.4,-.6c0,0,-.1,1.4,-.2,3.1c-.1,1.7,-.2,3.3,-.2,3.6c-.1,1.1,.1,1.4,-.2,2.6c.1,.1,1.8,-.9,1.8,-.9c.1,0,.7,-.2,1.5,-.6Z" class="g2_95"/>
<path d="M135.3,281.6l11.2,-16m-8.2,17.1L149,267" class="g3_95"/>
<path d="M140.4,284.4l10,-14.4l.2,-.3" class="g4_95"/>
<path d="M134.1,281.2c-.4,-.1,-.8,-.1,-.9,-.1c0,-.1,2.5,-3.7,6.7,-9.6c1.9,-2.7,3.6,-5.2,3.8,-5.6c.2,-.3,.4,-.6,.5,-.6c.1,0,.7,.5,.9,.7c.1,.3,.1,.6,-.1,1.1c-.2,.5,-9.8,14.3,-9.9,14.3c-.1,0,-.5,-.1,-1,-.2Z" class="g5_95"/>
<path d="M137.6,282c-.2,-.1,-.8,-.3,-1.2,-.4l-.7,-.2l.3,-.3c.1,-.2,2.3,-3.4,4.8,-7l4.7,-6.7l.5,-.3c.9,-.5,1.6,-.4,2.1,.1l.3,.2l-5,7.4c-3.1,4.5,-5.1,7.4,-5.1,7.4c-.1,0,-.4,-.1,-.7,-.2Z" class="g5_95"/>
<path d="M140,283.4c-.2,-.2,-.6,-.5,-.8,-.6c-.2,-.2,-.3,-.3,-.3,-.4c0,0,9.4,-13.9,9.8,-14.5c.1,-.1,.5,.3,.8,.7c.3,.4,.3,.6,.4,1c0,.4,0,.6,-.1,.8c-.2,.2,-9.1,13.1,-9.2,13.3q-.2,.1,-.6,-.3Z" class="g5_95"/>
<path d="M141.6,286.1c0,-.1,-.1,-.4,-.1,-.6c-.1,-.2,-.3,-.6,-.4,-.8l-.3,-.4l4.7,-6.8c2.6,-3.8,4.8,-6.8,4.8,-6.8c.4,0,1,.7,1,1.1c0,.2,-.6,1.2,-1.9,3.1c-1.1,1.6,-3.1,4.6,-4.6,6.8c-3,4.4,-3.1,4.6,-3.2,4.4Z" class="g5_95"/>
<path d="M131.9,287.5c2.3,-.1,3.6,.8,4.1,2.4" class="g6_95"/>
<path d="M132,291.5c0,-.4,.1,-.5,.1,-1.4c0,-.7,0,-.9,0,-1.3c0,-.3,0,-.6,0,-.7l.1,-.2v-.1c.1,0,.6,.1,.7,.1c.4,0,.8,.1,1.1,.2c.2,.1,.4,.2,.6,.3c.2,.1,.3,.2,.4,.4c.3,.2,.4,.4,.6,.7c0,.2,.1,.5,.1,.5c0,0,-1.5,.7,-1.8,.8c-.1,0,-.2,0,-.3,.1c-1.1,.6,-1.4,.7,-1.6,.7v.1Z" class="g1_95"/>
<path d="M136.2,289.4c-.6,-1.3,-1.8,-2,-3.4,-2.1l-.6,-.1v-.5c.1,-.2,.1,-1.2,.2,-2.2c0,-.9,.1,-1.8,.1,-1.9l.1,-.2h.7c.8,0,2.3,.3,3.1,.5c1.7,.4,3.1,1.4,3.6,2.5c.4,.8,.6,2.1,.3,2.4c-.1,.1,-.8,.5,-2.5,1.2c-1.6,.8,-1.5,.7,-1.6,.4Z" class="g7_95"/>
<path d="M136.2,289.4c-.6,-1.3,-1.8,-2,-3.4,-2.1l-.6,-.1v-.5c.1,-.2,.1,-1.2,.2,-2.2c0,-.9,.1,-1.8,.1,-1.9l.1,-.2h.7c.8,0,2.3,.3,3.1,.5c1.7,.4,3.1,1.4,3.6,2.5c.4,.8,.6,2.1,.3,2.4c-.1,.1,-.8,.5,-2.5,1.2c-1.6,.8,-1.5,.7,-1.6,.4Z" class="g8_95"/>
</g>
<path d="M152.7,289.5H445.3" class="ga_95"/>
<path d="M137.6,297.1v90.7" class="gb_95"/>
<path d="M184.9,984.1V427.2m136,337.7H673.4" class="ga_95"/>
<path d="M677,764.9L671.2,762l2.2,2.9l-2.2,3Z" class="g1_95"/>
<path d="M320.9,764.9V472.7" class="ga_95"/>
<path d="M320.9,469l-3,5.9l3,-2.2l2.9,2.2Z" class="g1_95"/>
<path d="M350.5,469l13.7,93l13.6,48.6l13.6,29.7L405,660.5L418.6,675l13.6,11l13.6,8.6l13.6,6.9l13.6,5.7l13.6,4.7l13.6,4.1l13.6,3.4l13.6,3L541,725l13.6,2.4l13.6,2l13.6,1.9l13.6,1.6l13.6,1.6l13.6,1.3l13.6,1.3l13.6,1.1l13.6,1.1l13.6,1M380.2,469l12.4,51.1l12.4,36l12.3,26.7l12.4,20.7L442.1,620l12.3,13.4l12.4,11.2l12.4,9.4l12.3,8l12.4,7l12.4,6l12.3,5.4l12.4,4.7l12.4,4.3l12.3,3.8l12.4,3.4l12.4,3.2l12.3,2.8l12.4,2.7l12.4,2.4l12.3,2.2l12.4,2l12.4,1.9l12.3,1.8M409.9,469.1L421,501.9l11.2,26.3l11.1,21.5l11.1,18l11.2,15.1l11.1,13l11.1,11.3l11.1,9.9l11.2,8.7l11.1,7.7l11.1,6.9l11.2,6.3l11.1,5.6l11.1,5.1l11.2,4.7l11.1,4.3l11.1,3.9l11.2,3.7l11.1,3.4l11.1,3.1l11.1,2.9l11.2,2.7l11.1,2.6L677,691" class="gc_95"/>
<path d="M439.6,543l4.9,8.9l5,8.2l4.9,7.6l5,7l4.9,6.6l5,6.1l4.9,5.7l5,5.4l4.9,5l5,4.8l4.9,4.5l4.9,4.2l5,4l4.9,3.8l5,3.6l4.9,3.4l5,3.2l4.9,3.1l5,3l4.9,2.8l5,2.7l4.9,2.5l5,2.5l4.9,2.4M463.2,579.8c0,0,5.9,7.4,8.2,10.1c2.4,2.7,5.6,6.4,8.8,9.6c1.6,1.7,5.2,5.1,8.4,8.2" class="gd_95"/>
<path d="M492.1,611c-1.1,-2.2,-2,-4.1,-3,-6.2c0,1.1,0,2.2,-.1,3.2c-1,.1,-2.1,.2,-3.2,.3c2.1,.9,4.1,1.7,6.3,2.7Z" class="ge_95"/>
<path d="M439.6,469l9.9,22.8l9.9,19.5l9.9,16.9l9.9,14.8l9.9,13.1l9.8,11.6l9.9,10.4l9.9,9.3l9.9,8.4l9.9,7.7l9.9,7.1l9.9,6.4l9.9,5.9l9.9,5.5l9.9,5l9.9,4.7l9.9,4.4l9.9,4.1l9.9,3.8l9.9,3.6l9.9,3.3l9.8,3.2l9.9,3l9.9,2.8" class="gc_95"/>
<path d="M320.9,654H677" class="gf_95"/>
<path d="M558.3,543H439.6m98.3,0c0,0,-9.4,0,-13,0c-3.6,0,-8.5,0,-13,0c-2.3,0,-7.3,0,-11.7,0" class="gg_95"/>
<path d="M495.4,543c2.3,.8,4.3,1.6,6.4,2.4c-.7,-.8,-1.4,-1.6,-2.1,-2.4c.7,-.8,1.4,-1.6,2.1,-2.4c-2.1,.8,-4.1,1.6,-6.4,2.4Z" class="gh_95"/>
<path d="M320.9,543H677" class="gf_95"/>
<path d="M439.6,764.9V469" class="gi_95"/>
<path d="M558.3,654V543m0,94.5c0,0,0,-9.4,0,-13c0,-3.6,0,-8.5,0,-13c0,-2.3,0,-7.4,0,-11.8" class="gj_95"/>
<path d="M558.3,594.9c-.8,2.3,-1.6,4.3,-2.4,6.5c.8,-.8,1.6,-1.5,2.4,-2.2c.8,.7,1.6,1.4,2.4,2.2c-.8,-2.2,-1.6,-4.2,-2.4,-6.5Z" class="gk_95"/>
<path d="M558.3,764.9V469" class="gi_95"/>
<path d="M248,918.6h21.6" class="ga_95"/>
</svg>