<?xml version="1.0" encoding="UTF-8" standalone="no"?>
<!DOCTYPE svg PUBLIC "-//W3C//DTD SVG 1.1//EN"
"http://www.w3.org/Graphics/SVG/1.1/DTD/svg11.dtd">
<svg viewBox="0 0 1286 909" version="1.1" xmlns="http://www.w3.org/2000/svg" xmlns:xlink="http://www.w3.org/1999/xlink">
<defs>
<style type="text/css"><![CDATA[
.g0_162{
fill: none;
stroke: #000000;
stroke-width: 0.73;
stroke-linecap: butt;
stroke-linejoin: miter;
}
.g1_162{
fill: none;
stroke: #02B5EE;
stroke-width: 1.262;
stroke-linecap: butt;
stroke-linejoin: miter;
}
.g2_162{
fill: none;
stroke: #5EE200;
stroke-width: 1.262;
stroke-linecap: butt;
stroke-linejoin: miter;
}
.g3_162{
fill: none;
stroke: #5EE200;
stroke-width: 0.73;
stroke-linecap: butt;
stroke-linejoin: miter;
}
.g4_162{
fill: none;
stroke: #02B5EE;
stroke-width: 0.73;
stroke-linecap: butt;
stroke-linejoin: miter;
}
.g5_162{
fill: none;
stroke: #F81693;
stroke-width: 1.262;
stroke-linecap: butt;
stroke-linejoin: miter;
}
.g6_162{
fill: none;
stroke: #5EE200;
stroke-width: 1.461;
stroke-linecap: butt;
stroke-linejoin: miter;
stroke-dasharray: 2,2;
}
.g7_162{
fill: #AEF080;
}
.g8_162{
fill: none;
stroke: #FFA313;
stroke-width: 1.262;
stroke-linecap: butt;
stroke-linejoin: miter;
}
.g9_162{
fill: none;
stroke: #F81693;
stroke-width: 0.73;
stroke-linecap: butt;
stroke-linejoin: miter;
}
.ga_162{
fill: none;
stroke: #FFA313;
stroke-width: 0.73;
stroke-linecap: butt;
stroke-linejoin: miter;
}
]]></style>
</defs>
<path d="M193,83.4h900.3M193,111.6h840.4m-840.4,0h840.4M533.6,141.2V112m0,58.5V141.2m0,58.5V170.5m0,114.2v-85" class="g0_162"/>
<path d="M659.3,260.7H815" class="g1_162"/>
<path d="M825.5,260.7h22.2" class="g2_162"/>
<path d="M533.6,314.9V284.7m0,103.2v-73" class="g0_162"/>
<path d="M544.5,374.1H658.7" class="g3_162"/>
<path d="M887.3,374.1h135.2" class="g4_162"/>
<path d="M533.6,417.2V387.9m0,58.5V417.2m0,114.2v-85" class="g0_162"/>
<path d="M569.7,507.4h22.4" class="g5_162"/>
<path d="M602.6,507.4h22.6" class="g1_162"/>
<path d="M639.4,489.3H691" class="g6_162"/>
<path d="M705.1,495.7h85.6V462.8H705.1v32.9Z" class="g7_162"/>
<path d="M635.8,507.4H790.7" class="g8_162"/>
<path d="M818.1,507.4h22.1" class="g5_162"/>
<path d="M860.6,507.4h22.7" class="g1_162"/>
<path d="M907.3,489.3h111.5" class="g6_162"/>
<path d="M903.6,507.4h118.9" class="g8_162"/>
<path d="M533.6,560.6V531.4m0,102.3V560.6" class="g0_162"/>
<path d="M652.7,619.8h13" class="g9_162"/>
<path d="M671.7,619.8h13.1" class="g4_162"/>
<path d="M694.6,603.6h29" class="g6_162"/>
<path d="M733.4,609.9h54.1V577.1H733.4v32.8Z" class="g7_162"/>
<path d="M690.9,619.8h96.6" class="ga_162"/>
<path d="M803.3,619.8h12.9" class="g9_162"/>
<path d="M828,619.8h13.1" class="g4_162"/>
<path d="M856.5,603.6h63.8" class="g6_162"/>
<path d="M930,609.9h54.1V577.1H930v32.8Z" class="g7_162"/>
<path d="M852.9,619.8H984.1" class="ga_162"/>
<path d="M533.6,706.8V633.7" class="g0_162"/>
<path d="M650.6,692.9h34.5" class="g9_162"/>
<path d="M688.7,678.6h48.9" class="g6_162"/>
<path d="M741.2,683H786V650.1H741.2V683Z" class="g7_162"/>
<path d="M685.1,692.9H786" class="ga_162"/>
<path d="M786,692.9h50.6" class="g4_162"/>
<path d="M853.5,692.9h34.3" class="g9_162"/>
<path d="M891.5,678.6h31.9" class="g6_162"/>
<path d="M927.1,683h44.7V650.1H927.1V683Z" class="g7_162"/>
<path d="M887.8,692.9h84" class="ga_162"/>
<path d="M971.8,692.9h50.7" class="g4_162"/>
<path d="M533.6,736V706.8M193,736.3h840.4m-840.4,0h840.4" class="g0_162"/>
</svg>