<?xml version="1.0" encoding="UTF-8" standalone="no"?>
<!DOCTYPE svg PUBLIC "-//W3C//DTD SVG 1.1//EN"
"http://www.w3.org/Graphics/SVG/1.1/DTD/svg11.dtd">
<svg viewBox="0 0 909 1286" version="1.1" xmlns="http://www.w3.org/2000/svg" xmlns:xlink="http://www.w3.org/1999/xlink">
<defs>
<clipPath id="c0_45"><path d="M119.5,215.7V182.1H789.9v33.6Z"/></clipPath>
<clipPath id="c1_45"><path d="M119.5,771.6V738.1H446.9v33.5Z"/></clipPath>
<clipPath id="c2_45"><path d="M460.4,771.6V738.1H787.8v33.5Z"/></clipPath>
<clipPath id="c3_45"><path d="M119.5,1008.5V974.9H789.9v33.6Z"/></clipPath>
<style type="text/css"><![CDATA[
.g0_45{
fill: none;
stroke: #000000;
stroke-width: 0.73;
stroke-linecap: butt;
stroke-linejoin: miter;
}
.g1_45{
fill: #7F7F7F;
fill-opacity: 0.01;
}
.g2_45{
fill: #7F7F7F;
fill-opacity: 0.02;
}
.g3_45{
fill: #7F7F7F;
fill-opacity: 0.04;
}
.g4_45{
fill: #7F7F7F;
fill-opacity: 0.07;
}
.g5_45{
fill: #7F7F7F;
fill-opacity: 0.11;
}
.g6_45{
fill: #FFFFFF;
}
.g7_45{
fill: #7F7F7F;
}
.g8_45{
fill: #EC008C;
}
.g9_45{
fill: #CBCEFB;
}
.ga_45{
fill: #E81A58;
}
.gb_45{
fill: #401A1A;
}
.gc_45{
fill: #00AEEF;
}
]]></style>
</defs>
<path d="M116.9,159.9H792.5" class="g0_45"/>
<path d="M122.2,184.8c221.7,0,443.4,0,665,0V323c-221.6,-9.4,-443.3,-9.4,-665,0Z" class="g1_45"/>
<path d="M122.9,185.4c221.2,0,442.4,0,663.7,0V322.3C565.3,313,344.1,313,122.9,322.3Z" class="g2_45"/>
<path d="M123.5,186.1c220.8,0,441.6,0,662.5,0V321.7c-220.9,-9.3,-441.7,-9.3,-662.5,0Z" class="g3_45"/>
<path d="M124.1,186.7c220.4,0,440.8,0,661.2,0V321.1c-220.4,-9.4,-440.8,-9.4,-661.2,0Z" class="g4_45"/>
<path d="M124.7,187.3c220,0,440,0,660,0V320.5c-220,-9.4,-440,-9.4,-660,0Z" class="g5_45"/>
<path d="M125.4,187.9c219.5,0,439.1,0,658.7,0V319.8c-219.6,-9.3,-439.2,-9.3,-658.7,0Z" class="g5_45"/>
<path d="M126,188.6c219.1,0,438.3,0,657.5,0V319.2c-219.2,-9.3,-438.4,-9.3,-657.5,0Z" class="g4_45"/>
<path d="M126.6,189.2c218.8,0,437.5,0,656.3,0V318.6c-218.8,-9.4,-437.5,-9.4,-656.3,0Z" class="g3_45"/>
<path d="M127.2,189.8c218.4,0,436.7,0,655,0V318c-218.3,-9.4,-436.6,-9.4,-655,0Z" class="g2_45"/>
<path d="M127.9,190.4c217.9,0,435.8,0,653.7,0V317.3C563.7,308,345.8,308,127.9,317.3Z" class="g1_45"/>
<path d="M116.9,312.7V179.5H792.5V312.7Z" class="g6_45"/>
<path d="M119.5,310.1V218.2H789.9v91.9Z" class="g6_45"/>
<path d="M119.5,215.7V182.1H789.9v33.6Z" class="g7_45"/>
<g clip-path="url(#c0_45)">
<image x="119" y="181" width="672" height="34" xlink:href="shade/1.png"/>
</g>
<path d="M675.7,210.5h88.2V187.3H675.7v23.2Z" class="g8_45"/>
<path d="M383.8,234.2H525.7M384.1,263.8V234.6" class="g0_45"/>
<path d="M384.5,263.8h60.3V234.6H384.5v29.2Z" class="g9_45"/>
<path d="M445.1,263.8V234.6" class="g0_45"/>
<path d="M445.5,263.8h79.4V234.6H445.5v29.2Z" class="g9_45"/>
<path d="M525.3,263.8V234.6M383.8,264.2H525.7M384.1,293.7V264.5m61,29.2V264.5m80.2,29.2V264.5M383.8,294.1H525.7" class="g0_45"/>
<path d="M116.9,671.2v-261c0,-21.6,17.6,-39.1,39.2,-39.1H792.5V632c0,21.6,-17.5,39.2,-39.1,39.2Z" class="ga_45"/>
<path d="M119.5,668.6V432.8H789.9V632c0,20.2,-16.3,36.6,-36.5,36.6Z" class="gb_45"/>
<path d="M122.2,740.8c107.4,0,214.7,0,322,0V968c-107.3,-9.3,-214.6,-9.3,-322,0Z" class="g1_45"/>
<path d="M122.9,741.4c106.9,0,213.8,0,320.7,0v226C336.7,958,229.8,958,122.9,967.4Z" class="g2_45"/>
<path d="M123.5,742c106.5,0,213,0,319.5,0V966.8c-106.5,-9.4,-213,-9.4,-319.5,0Z" class="g3_45"/>
<path d="M124.1,742.6c106.1,0,212.2,0,318.3,0V966.2c-106.1,-9.4,-212.2,-9.4,-318.3,0Z" class="g4_45"/>
<path d="M124.7,743.3c105.7,0,211.4,0,317,0V965.5c-105.6,-9.3,-211.3,-9.3,-317,0Z" class="g5_45"/>
<path d="M125.4,743.9c105.2,0,210.5,0,315.7,0v221c-105.2,-9.3,-210.5,-9.3,-315.7,0Z" class="g5_45"/>
<path d="M126,744.5c104.8,0,209.7,0,314.5,0V964.3c-104.8,-9.4,-209.7,-9.4,-314.5,0Z" class="g4_45"/>
<path d="M126.6,745.1c104.4,0,208.8,0,313.3,0V963.7c-104.5,-9.4,-208.9,-9.4,-313.3,0Z" class="g3_45"/>
<path d="M127.2,745.7c104,0,208,0,312,0V963c-104,-9.3,-208,-9.3,-312,0Z" class="g2_45"/>
<path d="M127.9,746.4c103.5,0,207.1,0,310.7,0v216c-103.6,-9.3,-207.2,-9.3,-310.7,0Z" class="g1_45"/>
<path d="M116.9,957.7V735.5H449.5V957.7Z" class="g6_45"/>
<path d="M119.5,955.1V774.2H446.9V955.1Z" class="g6_45"/>
<path d="M119.5,771.6V738.1H446.9v33.5Z" class="g7_45"/>
<g clip-path="url(#c1_45)">
<image x="119" y="737" width="329" height="34" xlink:href="shade/2.png"/>
</g>
<path d="M316.9,766.4h104V743.3h-104v23.1Z" class="gc_45"/>
<path d="M231.5,819.4H335M231.8,849V819.7" class="g0_45"/>
<path d="M232.2,849h41.1V819.7H232.2V849Z" class="g9_45"/>
<path d="M273.6,849V819.7" class="g0_45"/>
<path d="M274,849h60.3V819.7H274V849Z" class="g9_45"/>
<path d="M334.6,849V819.7M231.5,849.3H335M231.8,878.9V849.7m41.8,29.2V849.7m61,29.2V849.7M231.5,879.3H335M231.8,908.9V879.6m41.8,29.3V879.6m61,29.3V879.6M231.5,909.2H335M231.8,938.8V909.6m41.8,29.2V909.6m61,29.2V909.6M231.5,939.2H335" class="g0_45"/>
<path d="M463.1,740.8c107.3,0,214.6,0,322,0V968c-107.4,-9.3,-214.7,-9.3,-322,0Z" class="g1_45"/>
<path d="M463.7,741.4c106.9,0,213.8,0,320.7,0v226C677.5,958,570.6,958,463.7,967.4Z" class="g2_45"/>
<path d="M464.3,742c106.5,0,213,0,319.5,0V966.8c-106.5,-9.4,-213,-9.4,-319.5,0Z" class="g3_45"/>
<path d="M464.9,742.6c106.1,0,212.2,0,318.3,0V966.2c-106.1,-9.4,-212.2,-9.4,-318.3,0Z" class="g4_45"/>
<path d="M465.6,743.3c105.6,0,211.3,0,317,0V965.5c-105.7,-9.3,-211.4,-9.3,-317,0Z" class="g5_45"/>
<path d="M466.2,743.9c105.2,0,210.5,0,315.7,0v221c-105.2,-9.3,-210.5,-9.3,-315.7,0Z" class="g5_45"/>
<path d="M466.8,744.5c104.8,0,209.7,0,314.5,0V964.3c-104.8,-9.4,-209.7,-9.4,-314.5,0Z" class="g4_45"/>
<path d="M467.4,745.1c104.5,0,208.9,0,313.3,0V963.7c-104.4,-9.4,-208.8,-9.4,-313.3,0Z" class="g3_45"/>
<path d="M468.1,745.7c104,0,208,0,312,0V963c-104,-9.3,-208,-9.3,-312,0Z" class="g2_45"/>
<path d="M468.7,746.4c103.6,0,207.2,0,310.7,0v216c-103.5,-9.3,-207.1,-9.3,-310.7,0Z" class="g1_45"/>
<path d="M457.8,957.7V735.5H790.4V957.7Z" class="g6_45"/>
<path d="M460.4,955.1V774.2H787.8V955.1Z" class="g6_45"/>
<path d="M460.4,771.6V738.1H787.8v33.5Z" class="g7_45"/>
<g clip-path="url(#c2_45)">
<image x="460" y="737" width="329" height="34" xlink:href="shade/3.png"/>
</g>
<path d="M657.8,766.4h104V743.3h-104v23.1Z" class="gc_45"/>
<path d="M572.3,819.4H675.8M572.7,849V819.7" class="g0_45"/>
<path d="M573,849h41.1V819.7H573V849Z" class="g9_45"/>
<path d="M614.5,849V819.7" class="g0_45"/>
<path d="M614.8,849h60.3V819.7H614.8V849Z" class="g9_45"/>
<path d="M675.5,849V819.7M572.3,849.3H675.8M572.7,878.9V849.7m41.8,29.2V849.7m61,29.2V849.7M572.3,879.3H675.8M572.7,908.9V879.6m41.8,29.3V879.6m61,29.3V879.6M572.3,909.2H675.8M572.7,938.8V909.6m41.8,29.2V909.6m61,29.2V909.6M572.3,939.2H675.8" class="g0_45"/>
<path d="M122.2,977.6c221.7,0,443.4,0,665,0v138.2c-221.6,-9.4,-443.3,-9.4,-665,0Z" class="g1_45"/>
<path d="M122.9,978.3c221.2,0,442.4,0,663.7,0v136.9c-221.3,-9.4,-442.5,-9.4,-663.7,0Z" class="g2_45"/>
<path d="M123.5,978.9c220.8,0,441.6,0,662.5,0v135.6c-220.9,-9.3,-441.7,-9.3,-662.5,0Z" class="g3_45"/>
<path d="M124.1,979.5c220.4,0,440.8,0,661.2,0v134.4c-220.4,-9.3,-440.8,-9.3,-661.2,0Z" class="g4_45"/>
<path d="M124.7,980.1c220,0,440,0,660,0v133.2c-220,-9.4,-440,-9.4,-660,0Z" class="g5_45"/>
<path d="M125.4,980.8c219.5,0,439.1,0,658.7,0v131.9c-219.6,-9.4,-439.2,-9.4,-658.7,0Z" class="g5_45"/>
<path d="M126,981.4c219.1,0,438.3,0,657.5,0V1112c-219.2,-9.3,-438.4,-9.3,-657.5,0Z" class="g4_45"/>
<path d="M126.6,982c218.8,0,437.5,0,656.3,0v129.4c-218.8,-9.3,-437.5,-9.3,-656.3,0Z" class="g3_45"/>
<path d="M127.2,982.6c218.4,0,436.7,0,655,0v128.2c-218.3,-9.4,-436.6,-9.4,-655,0Z" class="g2_45"/>
<path d="M127.9,983.3c217.9,0,435.8,0,653.7,0v126.9c-217.9,-9.4,-435.8,-9.4,-653.7,0Z" class="g1_45"/>
<path d="M116.9,1105.5V972.3H792.5v133.2Z" class="g6_45"/>
<path d="M119.5,1102.9v-91.8H789.9v91.8Z" class="g6_45"/>
<path d="M119.5,1008.5V974.9H789.9v33.6Z" class="g7_45"/>
<g clip-path="url(#c3_45)">
<image x="119" y="974" width="672" height="34" xlink:href="shade/4.png"/>
</g>
<path d="M675.7,1003.3h88.2V980.1H675.7v23.2Z" class="g8_45"/>
<path d="M383.8,1027H525.7m-141.6,29.6v-29.2" class="g0_45"/>
<path d="M384.5,1056.6h60.3v-29.2H384.5v29.2Z" class="g9_45"/>
<path d="M445.1,1056.6v-29.2" class="g0_45"/>
<path d="M445.5,1056.6h79.4v-29.2H445.5v29.2Z" class="g9_45"/>
<path d="M525.3,1056.6v-29.2M383.8,1057H525.7m-141.6,29.6v-29.3m61,29.3v-29.3m80.2,29.3v-29.3m-141.5,29.6H525.7" class="g0_45"/>
</svg>