<?xml version="1.0" encoding="UTF-8" standalone="no"?>
<!DOCTYPE svg PUBLIC "-//W3C//DTD SVG 1.1//EN"
"http://www.w3.org/Graphics/SVG/1.1/DTD/svg11.dtd">
<svg viewBox="0 0 909 1286" version="1.1" xmlns="http://www.w3.org/2000/svg" xmlns:xlink="http://www.w3.org/1999/xlink">
<defs>
<style type="text/css"><![CDATA[
.g0{
fill: #FDE8E9;
}
.g1{
fill: none;
stroke: #000000;
stroke-width: 0.73;
stroke-linecap: butt;
stroke-linejoin: miter;
}
.g2{
fill: #FFFFFF;
}
.g3{
fill: none;
stroke: #02B5EE;
stroke-width: 1.461;
stroke-linecap: butt;
stroke-linejoin: miter;
}
.g4{
fill: none;
stroke: #5EE200;
stroke-width: 1.461;
stroke-linecap: butt;
stroke-linejoin: miter;
}
]]></style>
</defs>
<path d="M165.8,243.6h86.3V213.2H165.8v30.4Z" class="g0"/>
<path d="M189.7,289.7h530M434.8,319.2V290M327.6,318.6l24.9,14.8m0,36.7V333.6m-24.9,51.5l25.2,-15m-38,15l-25.2,-15m.4,0V333.6m24.8,-15L290,333.4m6,32V338.3m87.7,-23.5l31.2,18.6m0,36.7V333.6m-31.2,55.3l31.2,-18.6m-31.2,18.6L352.5,370.3m31.2,-55.5l-31.2,18.6m6,32V338.3m26.3,-15.9l23,13.7m-23,45.1l23,-13.7m-149,-52.7L290,333.4m-31.2,55.5L290,370.3m-31.2,18.6L227.5,370.3m0,-.2V333.6m31.3,-18.8l-31.3,18.6m30.2,-11l-23,13.7m23,45.1l-23,-13.7m200.1,19.2V319.2" class="g1"/>
<path d="M448.8,376.2V327c0,-2.8,2.3,-5.2,5.2,-5.2H701c2.8,0,5.2,2.4,5.2,5.2v49.2c0,2.9,-2.4,5.2,-5.2,5.2H454c-2.9,0,-5.2,-2.3,-5.2,-5.2Z" class="g2"/>
<path d="M598.3,363.2c-1.6,3.2,-5.5,5.4,-10.9,5.4h-3.5c-5.5,0,-9.4,2.2,-11,5.5c-1.7,-3.3,-5.5,-5.5,-11,-5.5h-3.5c-5.5,0,-9.3,-2.2,-10.9,-5.4" class="g3"/>
<path d="M636.1,363.2c-1.5,3.2,-4.8,5.4,-9.5,5.4c-4.7,0,-8,2.2,-9.4,5.5c-1.4,-3.3,-4.7,-5.5,-9.4,-5.5c-4.8,0,-8.1,-2.2,-9.5,-5.4" class="g4"/>
<path d="M434.8,415.9V386.7M189.7,416.3h530" class="g1"/>
</svg>