<?xml version="1.0" encoding="UTF-8" standalone="no"?>
<!DOCTYPE svg PUBLIC "-//W3C//DTD SVG 1.1//EN"
"http://www.w3.org/Graphics/SVG/1.1/DTD/svg11.dtd">
<svg viewBox="0 0 1286 909" version="1.1" xmlns="http://www.w3.org/2000/svg" xmlns:xlink="http://www.w3.org/1999/xlink">
<defs>
<style type="text/css"><![CDATA[
.g0_535{
fill: none;
stroke: #000000;
stroke-width: 0.73;
stroke-linecap: butt;
stroke-linejoin: miter;
}
.g1_535{
fill: #B3E9FA;
}
.g2_535{
fill: none;
stroke: #02B5EE;
stroke-width: 1.262;
stroke-linecap: butt;
stroke-linejoin: miter;
}
.g3_535{
fill: none;
stroke: #5EE200;
stroke-width: 1.262;
stroke-linecap: butt;
stroke-linejoin: miter;
}
.g4_535{
fill: #FFCCCC;
}
.g5_535{
fill: none;
stroke: #5EE200;
stroke-width: 0.73;
stroke-linecap: butt;
stroke-linejoin: miter;
}
.g6_535{
fill: none;
stroke: #02B5EE;
stroke-width: 0.73;
stroke-linecap: butt;
stroke-linejoin: miter;
}
]]></style>
</defs>
<path d="M193,83.4h900.3M193,210.6H874.5m-681.5,0H874.5M519.2,240.2V211m0,58.5V240.2m0,114.3v-85" class="g0_535"/>
<path d="M545,304.7V292.5c0,-2.9,2.3,-5.2,5.2,-5.2H671.8c2.8,0,5.2,2.3,5.2,5.2v12.2c0,2.9,-2.4,5.2,-5.2,5.2H550.2c-2.9,0,-5.2,-2.3,-5.2,-5.2Z" class="g1_535"/>
<path d="M542.4,330.5H679.6" class="g2_535"/>
<path d="M690.1,330.5H863.6" class="g3_535"/>
<path d="M519.2,383.7V354.5m0,58.4V383.7m0,114.3V412.9" class="g0_535"/>
<path d="M530.2,474H708.1" class="g2_535"/>
<path d="M718.7,474h22.1" class="g3_535"/>
<path d="M761.8,462.2H863.6V429.4H761.8v32.8Z" class="g4_535"/>
<path d="M519.2,527.2V498m0,102.2v-73" class="g0_535"/>
<path d="M628.2,576.5H795.5V543.6H628.2v32.9Z" class="g4_535"/>
<path d="M795.5,586.4h34.3" class="g5_535"/>
<path d="M829.8,586.4h33.8" class="g6_535"/>
<path d="M519.2,629.5V600.2M193,629.8H874.5m-681.5,0H874.5" class="g0_535"/>
</svg>