<?xml version="1.0" encoding="UTF-8" standalone="no"?>
<!DOCTYPE svg PUBLIC "-//W3C//DTD SVG 1.1//EN"
"http://www.w3.org/Graphics/SVG/1.1/DTD/svg11.dtd">
<svg viewBox="0 0 909 1286" version="1.1" xmlns="http://www.w3.org/2000/svg" xmlns:xlink="http://www.w3.org/1999/xlink">
<defs>
<clipPath id="c0_47"><path d="M119.5,288.6V255.1H446.9v33.5Z"/></clipPath>
<clipPath id="c1_47"><path d="M460.4,288.6V255.1H787.8v33.5Z"/></clipPath>
<clipPath id="c2_47"><path d="M119.5,525.5V492H789.9v33.5Z"/></clipPath>
<style type="text/css"><![CDATA[
.g0_47{
fill: none;
stroke: #000000;
stroke-width: 0.73;
stroke-linecap: butt;
stroke-linejoin: miter;
}
.g1_47{
fill: #7F7F7F;
fill-opacity: 0.01;
}
.g2_47{
fill: #7F7F7F;
fill-opacity: 0.02;
}
.g3_47{
fill: #7F7F7F;
fill-opacity: 0.04;
}
.g4_47{
fill: #7F7F7F;
fill-opacity: 0.07;
}
.g5_47{
fill: #7F7F7F;
fill-opacity: 0.11;
}
.g6_47{
fill: #FFFFFF;
}
.g7_47{
fill: #7F7F7F;
}
.g8_47{
fill: #00AEEF;
}
.g9_47{
fill: #CBCEFB;
}
.ga_47{
fill: #EC008C;
}
.gb_47{
fill: #FFFEF5;
}
.gc_47{
fill: none;
stroke: #D6C944;
stroke-width: 0.365;
stroke-linecap: butt;
stroke-linejoin: miter;
}
.gd_47{
fill: #E81A58;
}
.ge_47{
fill: #401A1A;
}
]]></style>
</defs>
<path d="M116.9,159.9H792.5" class="g0_47"/>
<path d="M122.2,257.8c107.4,0,214.7,0,322,0V485.1c-107.3,-9.4,-214.6,-9.4,-322,0Z" class="g1_47"/>
<path d="M122.9,258.4c106.9,0,213.8,0,320.7,0V484.5c-106.9,-9.4,-213.8,-9.4,-320.7,0Z" class="g2_47"/>
<path d="M123.5,259.1c106.5,0,213,0,319.5,0V483.8c-106.5,-9.3,-213,-9.3,-319.5,0Z" class="g3_47"/>
<path d="M124.1,259.7c106.1,0,212.2,0,318.3,0V483.2c-106.1,-9.3,-212.2,-9.3,-318.3,0Z" class="g4_47"/>
<path d="M124.7,260.3c105.7,0,211.4,0,317,0V482.6c-105.6,-9.4,-211.3,-9.4,-317,0Z" class="g5_47"/>
<path d="M125.4,260.9c105.2,0,210.5,0,315.7,0V482c-105.2,-9.4,-210.5,-9.4,-315.7,0Z" class="g5_47"/>
<path d="M126,261.6c104.8,0,209.7,0,314.5,0V481.3C335.7,472,230.8,472,126,481.3Z" class="g4_47"/>
<path d="M126.6,262.2c104.4,0,208.8,0,313.3,0V480.7c-104.5,-9.3,-208.9,-9.3,-313.3,0Z" class="g3_47"/>
<path d="M127.2,262.8c104,0,208,0,312,0V480.1c-104,-9.4,-208,-9.4,-312,0Z" class="g2_47"/>
<path d="M127.9,263.4c103.5,0,207.1,0,310.7,0V479.5c-103.6,-9.4,-207.2,-9.4,-310.7,0Z" class="g1_47"/>
<path d="M116.9,474.8V252.5H449.5V474.8Z" class="g6_47"/>
<path d="M119.5,472.2v-181H446.9v181Z" class="g6_47"/>
<path d="M119.5,288.6V255.1H446.9v33.5Z" class="g7_47"/>
<g clip-path="url(#c0_47)">
<image x="119" y="254" width="329" height="34" xlink:href="shade/1.png"/>
</g>
<path d="M316.9,283.4h104V260.3h-104v23.1Z" class="g8_47"/>
<path d="M231.5,336.4H335M231.8,366V336.8" class="g0_47"/>
<path d="M232.2,366h41.1V336.8H232.2V366Z" class="g9_47"/>
<path d="M273.6,366V336.8" class="g0_47"/>
<path d="M274,366h60.3V336.8H274V366Z" class="g9_47"/>
<path d="M334.6,366V336.8M231.5,366.4H335M231.8,396V366.7M273.6,396V366.7m61,29.3V366.7M231.5,396.3H335M231.8,425.9V396.7m41.8,29.2V396.7m61,29.2V396.7M231.5,426.3H335M231.8,455.9V426.6m41.8,29.3V426.6m61,29.3V426.6M231.5,456.2H335" class="g0_47"/>
<path d="M463.1,257.8c107.3,0,214.6,0,322,0V485.1c-107.4,-9.4,-214.7,-9.4,-322,0Z" class="g1_47"/>
<path d="M463.7,258.4c106.9,0,213.8,0,320.7,0V484.5c-106.9,-9.4,-213.8,-9.4,-320.7,0Z" class="g2_47"/>
<path d="M464.3,259.1c106.5,0,213,0,319.5,0V483.8c-106.5,-9.3,-213,-9.3,-319.5,0Z" class="g3_47"/>
<path d="M464.9,259.7c106.1,0,212.2,0,318.3,0V483.2c-106.1,-9.3,-212.2,-9.3,-318.3,0Z" class="g4_47"/>
<path d="M465.6,260.3c105.6,0,211.3,0,317,0V482.6c-105.7,-9.4,-211.4,-9.4,-317,0Z" class="g5_47"/>
<path d="M466.2,260.9c105.2,0,210.5,0,315.7,0V482c-105.2,-9.4,-210.5,-9.4,-315.7,0Z" class="g5_47"/>
<path d="M466.8,261.6c104.8,0,209.7,0,314.5,0V481.3C676.5,472,571.6,472,466.8,481.3Z" class="g4_47"/>
<path d="M467.4,262.2c104.5,0,208.9,0,313.3,0V480.7c-104.4,-9.3,-208.8,-9.3,-313.3,0Z" class="g3_47"/>
<path d="M468.1,262.8c104,0,208,0,312,0V480.1c-104,-9.4,-208,-9.4,-312,0Z" class="g2_47"/>
<path d="M468.7,263.4c103.6,0,207.2,0,310.7,0V479.5c-103.5,-9.4,-207.1,-9.4,-310.7,0Z" class="g1_47"/>
<path d="M457.8,474.8V252.5H790.4V474.8Z" class="g6_47"/>
<path d="M460.4,472.2v-181H787.8v181Z" class="g6_47"/>
<path d="M460.4,288.6V255.1H787.8v33.5Z" class="g7_47"/>
<g clip-path="url(#c1_47)">
<image x="460" y="254" width="329" height="34" xlink:href="shade/2.png"/>
</g>
<path d="M657.8,283.4h104V260.3h-104v23.1Z" class="g8_47"/>
<path d="M572.3,336.4H675.8M572.7,366V336.8" class="g0_47"/>
<path d="M573,366h41.1V336.8H573V366Z" class="g9_47"/>
<path d="M614.5,366V336.8" class="g0_47"/>
<path d="M614.8,366h60.3V336.8H614.8V366Z" class="g9_47"/>
<path d="M675.5,366V336.8M572.3,366.4H675.8M572.7,396V366.7M614.5,396V366.7m61,29.3V366.7M572.3,396.3H675.8M572.7,425.9V396.7m41.8,29.2V396.7m61,29.2V396.7M572.3,426.3H675.8M572.7,455.9V426.6m41.8,29.3V426.6m61,29.3V426.6M572.3,456.2H675.8" class="g0_47"/>
<path d="M122.2,494.7c221.7,0,443.4,0,665,0V662.8c-221.6,-9.4,-443.3,-9.4,-665,0Z" class="g1_47"/>
<path d="M122.9,495.3c221.2,0,442.4,0,663.7,0V662.2c-221.3,-9.4,-442.5,-9.4,-663.7,0Z" class="g2_47"/>
<path d="M123.5,495.9c220.8,0,441.6,0,662.5,0V661.5c-220.9,-9.3,-441.7,-9.3,-662.5,0Z" class="g3_47"/>
<path d="M124.1,496.6c220.4,0,440.8,0,661.2,0V660.9c-220.4,-9.3,-440.8,-9.3,-661.2,0Z" class="g4_47"/>
<path d="M124.7,497.2c220,0,440,0,660,0V660.3c-220,-9.4,-440,-9.4,-660,0Z" class="g5_47"/>
<path d="M125.4,497.8c219.5,0,439.1,0,658.7,0V659.7c-219.6,-9.4,-439.2,-9.4,-658.7,0Z" class="g5_47"/>
<path d="M126,498.4c219.1,0,438.3,0,657.5,0V659C564.3,649.7,345.1,649.7,126,659Z" class="g4_47"/>
<path d="M126.6,499.1c218.8,0,437.5,0,656.3,0V658.4c-218.8,-9.3,-437.5,-9.3,-656.3,0Z" class="g3_47"/>
<path d="M127.2,499.7c218.4,0,436.7,0,655,0V657.8c-218.3,-9.4,-436.6,-9.4,-655,0Z" class="g2_47"/>
<path d="M127.9,500.3c217.9,0,435.8,0,653.7,0V657.2c-217.9,-9.4,-435.8,-9.4,-653.7,0Z" class="g1_47"/>
<path d="M116.9,652.5V489.4H792.5V652.5Z" class="g6_47"/>
<path d="M119.5,649.9V528.1H789.9V649.9Z" class="g6_47"/>
<path d="M119.5,525.5V492H789.9v33.5Z" class="g7_47"/>
<g clip-path="url(#c2_47)">
<image x="119" y="491" width="672" height="34" xlink:href="shade/3.png"/>
</g>
<path d="M675.7,520.3h88.2V497.2H675.7v23.1Z" class="ga_47"/>
<path d="M403,544.1H506.5M403.3,573.7V544.4" class="g0_47"/>
<path d="M403.7,573.7h41.1V544.4H403.7v29.3Z" class="g9_47"/>
<path d="M445.1,573.7V544.4" class="g0_47"/>
<path d="M445.5,573.7h60.3V544.4H445.5v29.3Z" class="g9_47"/>
<path d="M506.1,573.7V544.4M403,574H506.5M403.3,603.6V574.4m41.8,29.2V574.4m61,29.2V574.4M403,604H506.5M403.3,633.6V604.4m41.8,29.2V604.4m61,29.2V604.4M403,633.9H506.5" class="g0_47"/>
<path d="M-2.9,805.6V740.2H912.4v65.4Z" class="g6_47"/>
<path d="M-.3,803V742.8H909.8V803Z" class="gb_47"/>
<path d="M-.3,794.7H909.8M-.3,768.8H909.8M-.3,742.8H909.8M-.3,803V742.8M25.6,803V742.8m26,60.2V742.8m26,60.2V742.8m26,60.2V742.8m26,60.2V742.8M155.5,803V742.8m26,60.2V742.8m26,60.2V742.8m26,60.2V742.8m26,60.2V742.8m26,60.2V742.8M311.4,803V742.8m26,60.2V742.8m26,60.2V742.8m26,60.2V742.8m26,60.2V742.8m26,60.2V742.8m26,60.2V742.8M493.3,803V742.8m26,60.2V742.8m26,60.2V742.8m26,60.2V742.8m26,60.2V742.8m26,60.2V742.8M649.2,803V742.8m26,60.2V742.8m26,60.2V742.8m26,60.2V742.8m26,60.2V742.8m26,60.2V742.8M805.1,803V742.8m26,60.2V742.8m26,60.2V742.8m26,60.2V742.8m26,60.2V742.8" class="gc_47"/>
<path d="M116.9,1134.9V903.2c0,-21.6,17.6,-39.1,39.2,-39.1H792.5v270.8Z" class="gd_47"/>
<path d="M119.5,1134.9V896.6H789.9v238.3Z" class="ge_47"/>
</svg>