<?xml version="1.0" encoding="UTF-8" standalone="no"?>
<!DOCTYPE svg PUBLIC "-//W3C//DTD SVG 1.1//EN"
"http://www.w3.org/Graphics/SVG/1.1/DTD/svg11.dtd">
<svg viewBox="0 0 1286 909" version="1.1" xmlns="http://www.w3.org/2000/svg" xmlns:xlink="http://www.w3.org/1999/xlink">
<defs>
<style type="text/css"><![CDATA[
.g0_1202{
fill: none;
stroke: #000000;
stroke-width: 0.73;
stroke-linecap: butt;
stroke-linejoin: miter;
}
.g1_1202{
fill: #FDE8E9;
}
]]></style>
</defs>
<path d="M193,83.4h900.3M203.9,112.5H533.3M203.9,142.1V112.9m192.2,29.2V112.9m137.2,29.2V112.9M203.9,174.7V142.1m192.2,32.6V142.1" class="g0_1202"/>
<path d="M407,171.4h70.3V142.1H407v29.3Z" class="g1_1202"/>
<path d="M533.3,174.7V142.1M203.9,203.9V174.7m192.2,29.2V174.7m137.2,29.2V174.7M203.9,233.2V203.9m192.2,29.3V203.9m137.2,29.3V203.9M203.9,265.8V233.2m192.2,32.6V233.2" class="g0_1202"/>
<path d="M407,262.5h73.5V233.2H407v29.3Z" class="g1_1202"/>
<path d="M533.3,265.8V233.2M203.9,295V265.8M396.1,295V265.8M533.3,295V265.8M203.9,324.3V295m192.2,29.3V295m137.2,29.3V295M203.9,356.9V324.3m192.2,32.6V324.3" class="g0_1202"/>
<path d="M407,353.6H508.4V324.3H407v29.3Z" class="g1_1202"/>
<path d="M533.3,356.9V324.3M203.9,386.1V356.9m192.2,29.2V356.9m137.2,29.2V356.9M203.9,415.4V386.1m192.2,29.3V386.1m137.2,29.3V386.1M203.9,448V415.4M396.1,448V415.4" class="g0_1202"/>
<path d="M407,444.7H511V415.3H407v29.4Z" class="g1_1202"/>
<path d="M533.3,448V415.4M203.9,477.2V448m192.2,29.2V448m137.2,29.2V448M203.9,506.4V477.2m192.2,29.2V477.2m137.2,29.2V477.2M203.9,539.1V506.4m192.2,32.7V506.4" class="g0_1202"/>
<path d="M407,535.8h97.2V506.4H407v29.4Z" class="g1_1202"/>
<path d="M533.3,539.1V506.4M203.9,568.3V539.1m192.2,29.2V539.1m137.2,29.2V539.1M203.9,597.5V568.3m192.2,29.2V568.3m137.2,29.2V568.3M203.9,630.2V597.5m192.2,32.7V597.5" class="g0_1202"/>
<path d="M407,626.9H522.4V597.5H407v29.4Z" class="g1_1202"/>
<path d="M533.3,630.2V597.5M203.9,659.4V630.2m192.2,29.2V630.2m137.2,29.2V630.2M203.9,688.6V659.4m192.2,29.2V659.4m137.2,29.2V659.4M203.9,721.3V688.6m192.2,32.7V688.6" class="g0_1202"/>
<path d="M407,718h75.3V688.6H407V718Z" class="g1_1202"/>
<path d="M533.3,721.3V688.6M203.9,750.5V721.3m192.2,29.2V721.3m137.2,29.2V721.3M203.9,750.9H533.3m22,-641.4H946.8M555.3,139.1V109.9m240.8,29.2V109.9m150.7,29.2V109.9M555.3,171.8V139.1m240.8,32.7V139.1" class="g0_1202"/>
<path d="M807,168.5h86.5V139.1H807v29.4Z" class="g1_1202"/>
<path d="M946.8,171.8V139.1M555.3,201V171.8M796.1,201V171.8M946.8,201V171.8M555.3,230.2V201m240.8,29.2V201m150.7,29.2V201M555.3,264.8V230.2m240.8,34.6V230.2" class="g0_1202"/>
<path d="M807,264.8H918V230.2H807v34.6Z" class="g1_1202"/>
<path d="M946.8,264.8V230.2M555.3,294V264.8M796.1,294V264.8M946.8,294V264.8M555.3,323.3V294m240.8,29.3V294m150.7,29.3V294M555.3,355.9V323.3m240.8,32.6V323.3" class="g0_1202"/>
<path d="M807,352.6h93.3V323.3H807v29.3Z" class="g1_1202"/>
<path d="M946.8,355.9V323.3M555.3,385.1V355.9m240.8,29.2V355.9m150.7,29.2V355.9M555.3,414.4V385.1m240.8,29.3V385.1m150.7,29.3V385.1M555.3,449V414.4M796.1,449V414.4" class="g0_1202"/>
<path d="M807,449h65.3V414.4H807V449Z" class="g1_1202"/>
<path d="M946.8,449V414.4M555.3,478.2V449m240.8,29.2V449m150.7,29.2V449M555.3,507.4V478.2m240.8,29.2V478.2m150.7,29.2V478.2M555.3,542V507.4M796.1,542V507.4" class="g0_1202"/>
<path d="M807,542H914V507.4H807V542Z" class="g1_1202"/>
<path d="M946.8,542V507.4M555.3,571.3V542m240.8,29.3V542m150.7,29.3V542M555.3,600.5V571.3m240.8,29.2V571.3m150.7,29.2V571.3M555.3,633.1V600.5m240.8,32.6V600.5" class="g0_1202"/>
<path d="M807,629.8h98.4V600.5H807v29.3Z" class="g1_1202"/>
<path d="M946.8,633.1V600.5M555.3,662.4V633.1m240.8,29.3V633.1m150.7,29.3V633.1M555.3,691.6V662.4m240.8,29.2V662.4m150.7,29.2V662.4M555.3,724.2V691.6m240.8,32.6V691.6" class="g0_1202"/>
<path d="M807,720.9H935.8V691.6H807v29.3Z" class="g1_1202"/>
<path d="M946.8,724.2V691.6M555.3,753.5V724.2m240.8,29.3V724.2m150.7,29.3V724.2M555.3,753.8H946.8" class="g0_1202"/>
</svg>