<?xml version="1.0" encoding="UTF-8" standalone="no"?>
<!DOCTYPE svg PUBLIC "-//W3C//DTD SVG 1.1//EN"
"http://www.w3.org/Graphics/SVG/1.1/DTD/svg11.dtd">
<svg viewBox="0 0 1286 909" version="1.1" xmlns="http://www.w3.org/2000/svg" xmlns:xlink="http://www.w3.org/1999/xlink">
<defs>
<style type="text/css"><![CDATA[
.g0_369{
fill: none;
stroke: #000000;
stroke-width: 0.73;
stroke-linecap: butt;
stroke-linejoin: miter;
}
.g1_369{
fill: none;
stroke: #02B5EE;
stroke-width: 1.262;
stroke-linecap: butt;
stroke-linejoin: miter;
}
.g2_369{
fill: none;
stroke: #5EE200;
stroke-width: 1.262;
stroke-linecap: butt;
stroke-linejoin: miter;
}
.g3_369{
fill: none;
stroke: #5EE200;
stroke-width: 0.73;
stroke-linecap: butt;
stroke-linejoin: miter;
}
.g4_369{
fill: none;
stroke: #02B5EE;
stroke-width: 0.73;
stroke-linecap: butt;
stroke-linejoin: miter;
}
.g5_369{
fill: none;
stroke: #FFA313;
stroke-width: 1.262;
stroke-linecap: butt;
stroke-linejoin: miter;
}
]]></style>
</defs>
<path d="M193,83.4h900.3M193,111.6H770.5m-577.5,0H770.5M433.6,141.2V112m0,58.5V141.2m0,114.3v-85" class="g0_369"/>
<path d="M497.4,231.5h66" class="g1_369"/>
<path d="M573.9,231.5h22.2" class="g2_369"/>
<path d="M433.6,284.7V255.5m0,102.3V284.7" class="g0_369"/>
<path d="M530.4,343.9h34.3" class="g3_369"/>
<path d="M692,343.9h67.6" class="g4_369"/>
<path d="M433.6,387V357.8m0,58.4V387m0,114.2v-85" class="g0_369"/>
<path d="M444.5,477.3h34.7" class="g1_369"/>
<path d="M489.7,477.3H630.2" class="g5_369"/>
<path d="M433.6,530.5V501.2M193,530.8H770.5m-577.5,0H770.5" class="g0_369"/>
</svg>