<?xml version="1.0" encoding="UTF-8" standalone="no"?>
<!DOCTYPE svg PUBLIC "-//W3C//DTD SVG 1.1//EN"
"http://www.w3.org/Graphics/SVG/1.1/DTD/svg11.dtd">
<svg viewBox="0 0 909 1286" version="1.1" xmlns="http://www.w3.org/2000/svg" xmlns:xlink="http://www.w3.org/1999/xlink">
<defs>
<clipPath id="c0_129"><path d="M119.5,714.4V680.8H336.1v33.6Z"/></clipPath>
<clipPath id="c1_129"><path d="M573.4,714.3V680.8H789.9v33.5Z"/></clipPath>
<style type="text/css"><![CDATA[
.g0_129{
fill: none;
stroke: #000000;
stroke-width: 0.73;
stroke-linecap: butt;
stroke-linejoin: miter;
}
.g1_129{
fill: #E81A58;
}
.g2_129{
fill: #401A1A;
}
.g3_129{
fill: #7F7F7F;
fill-opacity: 0.01;
}
.g4_129{
fill: #7F7F7F;
fill-opacity: 0.02;
}
.g5_129{
fill: #7F7F7F;
fill-opacity: 0.04;
}
.g6_129{
fill: #7F7F7F;
fill-opacity: 0.07;
}
.g7_129{
fill: #7F7F7F;
fill-opacity: 0.11;
}
.g8_129{
fill: #FFFFFF;
}
.g9_129{
fill: #7F7F7F;
}
.ga_129{
fill: #00AEEF;
}
.gb_129{
fill: #CBCEFB;
}
]]></style>
</defs>
<path d="M116.9,159.9H792.5" class="g0_129"/>
<path d="M116.9,613.9V323.8c0,-21.6,17.6,-39.1,39.2,-39.1H792.5V574.8c0,21.6,-17.5,39.1,-39.1,39.1Z" class="g1_129"/>
<path d="M119.5,611.3V317.1H789.9V574.8c0,20.2,-16.3,36.5,-36.5,36.5Z" class="g2_129"/>
<path d="M122.2,683.5c70.4,0,140.8,0,211.2,0V910.8c-70.4,-9.4,-140.8,-9.4,-211.2,0Z" class="g3_129"/>
<path d="M122.9,684.1c69.9,0,139.9,0,209.8,0V910.2c-69.9,-9.4,-139.9,-9.4,-209.8,0Z" class="g4_129"/>
<path d="M123.5,684.8c69.5,0,139.1,0,208.6,0V909.5c-69.5,-9.3,-139.1,-9.3,-208.6,0Z" class="g5_129"/>
<path d="M124.1,685.4c69.1,0,138.3,0,207.4,0V908.9c-69.1,-9.3,-138.3,-9.3,-207.4,0Z" class="g6_129"/>
<path d="M124.7,686c68.7,0,137.5,0,206.2,0V908.3c-68.7,-9.4,-137.5,-9.4,-206.2,0Z" class="g7_129"/>
<path d="M125.4,686.6c68.3,0,136.5,0,204.8,0V907.7c-68.3,-9.4,-136.5,-9.4,-204.8,0Z" class="g7_129"/>
<path d="M126,687.3c67.9,0,135.7,0,203.6,0V907.1c-67.9,-9.4,-135.7,-9.4,-203.6,0Z" class="g6_129"/>
<path d="M126.6,687.9c67.5,0,134.9,0,202.4,0V906.4c-67.5,-9.3,-134.9,-9.3,-202.4,0Z" class="g5_129"/>
<path d="M127.2,688.5c67.1,0,134.1,0,201.2,0V905.8c-67.1,-9.4,-134.1,-9.4,-201.2,0Z" class="g4_129"/>
<path d="M127.9,689.1c66.6,0,133.2,0,199.9,0V905.2c-66.7,-9.4,-133.3,-9.4,-199.9,0Z" class="g3_129"/>
<path d="M116.9,900.5V678.2H338.7V900.5Z" class="g8_129"/>
<path d="M119.5,897.9v-181H336.1v181Z" class="g8_129"/>
<path d="M119.5,714.4V680.8H336.1v33.6Z" class="g9_129"/>
<g clip-path="url(#c0_129)">
<image x="119" y="680" width="218" height="34" xlink:href="shade/1.png"/>
</g>
<path d="M206.1,709.2h104V686h-104v23.2Z" class="ga_129"/>
<path d="M182.3,762.1h91m-90.6,29.6V762.5" class="g0_129"/>
<path d="M183.1,791.7h89.4V762.5H183.1v29.2Z" class="gb_129"/>
<path d="M272.9,791.7V762.5m-90.6,29.6h91m-90.6,29.6V792.4m90.2,29.3V792.4M182.3,822h91m-90.6,29.6V822.4m90.2,29.2V822.4M182.3,852h91m-90.6,29.6V852.4m90.2,29.2V852.4m-90.6,29.5h91" class="g0_129"/>
<path d="M576.1,683.5c70.4,0,140.7,0,211.1,0v441.2c-70.4,-9.4,-140.7,-9.4,-211.1,0Z" class="g3_129"/>
<path d="M576.7,684.1c70,0,139.9,0,209.9,0V1124c-70,-9.3,-139.9,-9.3,-209.9,0Z" class="g4_129"/>
<path d="M577.3,684.8c69.6,0,139.1,0,208.7,0v438.6c-69.6,-9.3,-139.1,-9.3,-208.7,0Z" class="g5_129"/>
<path d="M578,685.4c69.1,0,138.2,0,207.3,0v437.4c-69.1,-9.4,-138.2,-9.4,-207.3,0Z" class="g6_129"/>
<path d="M578.6,686c68.7,0,137.4,0,206.1,0v436.2c-68.7,-9.4,-137.4,-9.4,-206.1,0Z" class="g7_129"/>
<path d="M579.2,686.6c68.3,0,136.6,0,204.9,0v435c-68.3,-9.4,-136.6,-9.4,-204.9,0Z" class="g7_129"/>
<path d="M579.8,687.3c67.9,0,135.8,0,203.7,0v433.6c-67.9,-9.3,-135.8,-9.3,-203.7,0Z" class="g6_129"/>
<path d="M580.4,687.9c67.5,0,135,0,202.4,0v432.4c-67.4,-9.3,-134.9,-9.3,-202.4,0Z" class="g5_129"/>
<path d="M581.1,688.5c67,0,134.1,0,201.1,0v431.2c-67,-9.4,-134.1,-9.4,-201.1,0Z" class="g4_129"/>
<path d="M581.7,689.1c66.6,0,133.3,0,199.9,0v430c-66.6,-9.4,-133.3,-9.4,-199.9,0Z" class="g3_129"/>
<path d="M570.8,1114.4V678.2H792.5v436.2Z" class="g8_129"/>
<path d="M573.4,1111.8V716.9H789.9v394.9Z" class="g8_129"/>
<path d="M573.4,714.3V680.8H789.9v33.5Z" class="g9_129"/>
<g clip-path="url(#c1_129)">
<image x="573" y="680" width="218" height="34" xlink:href="shade/2.png"/>
</g>
<path d="M659.9,709.1h104V686h-104v23.1Z" class="ga_129"/>
<path d="M605.7,766.3H757.6M606,795.9V766.7" class="g0_129"/>
<path d="M606.4,795.9h60.3V766.7H606.4v29.2Z" class="gb_129"/>
<path d="M667,795.9V766.7" class="g0_129"/>
<path d="M667.4,795.9h89.5V766.7H667.4v29.2Z" class="gb_129"/>
<path d="M757.2,795.9V766.7M605.7,796.3H757.6M606,825.9V796.6m61,29.3V796.6m90.2,29.3V796.6M605.7,826.2H757.6M606,855.8V826.6m61,29.2V826.6m90.2,29.2V826.6M605.7,856.2H757.6M606,885.8V856.6m61,29.2V856.6m90.2,29.2V856.6M605.7,886.1H757.6M606,915.7V886.5m61,29.2V886.5m90.2,29.2V886.5M605.7,916.1H757.6M606,945.7V916.5m61,29.2V916.5m90.2,29.2V916.5M605.7,946.1H757.6M606,975.6V946.4m61,29.2V946.4m90.2,29.2V946.4M605.7,976H757.6M606,1005.6V976.4m61,29.2V976.4m90.2,29.2V976.4M605.7,1006H757.6M606,1035.6v-29.3m61,29.3v-29.3m90.2,29.3v-29.3m-151.5,29.6H757.6M606,1065.5v-29.2m61,29.2v-29.2m90.2,29.2v-29.2m-151.5,29.6H757.6M606,1095.5v-29.3m61,29.3v-29.3m90.2,29.3v-29.3m-151.5,29.6H757.6" class="g0_129"/>
</svg>