<?xml version="1.0" encoding="UTF-8" standalone="no"?>
<!DOCTYPE svg PUBLIC "-//W3C//DTD SVG 1.1//EN"
"http://www.w3.org/Graphics/SVG/1.1/DTD/svg11.dtd">
<svg viewBox="0 0 909 1286" version="1.1" xmlns="http://www.w3.org/2000/svg" xmlns:xlink="http://www.w3.org/1999/xlink">
<defs>
<style type="text/css"><![CDATA[
.g0_36{
fill: none;
stroke: #000000;
stroke-width: 0.73;
stroke-linecap: butt;
stroke-linejoin: miter;
}
.g1_36{
fill: #FDE8E9;
}
]]></style>
</defs>
<path d="M116.9,159.9H792.5" class="g0_36"/>
<path d="M476.1,210.3H656V182.5H476.1v27.8Z" class="g1_36"/>
<path d="M116.9,298H246.1V270.2H116.9V298Z" class="g1_36"/>
<path d="M116.9,385.7H296.8V357.8H116.9v27.9Z" class="g1_36"/>
<path d="M116.9,471.3h53.7V447.6H116.9v23.7Z" class="g1_36"/>
<path d="M185.6,475.5H417.9V447.6H185.6v27.9Z" class="g1_36"/>
<path d="M432.9,473.4h95.4V445.5H432.9v27.9Z" class="g1_36"/>
<path d="M133.8,529.8h39.8V506H133.8v23.8Z" class="g1_36"/>
<path d="M167.6,619.5H313.7V591.6H167.6v27.9Z" class="g1_36"/>
<path d="M116.9,678.4H313.7V650.5H116.9v27.9Z" class="g1_36"/>
<path d="M347.5,678.4h61.6V650.5H347.5v27.9Z" class="g1_36"/>
<path d="M426,678.4h61.6V650.5H426v27.9Z" class="g1_36"/>
<path d="M655.2,737.3h44.7V709.4H655.2v27.9Z" class="g1_36"/>
<path d="M133.8,766.9H313.7V739.1H133.8v27.8Z" class="g1_36"/>
<path d="M116.9,854.6H313.7V826.8H116.9v27.8Z" class="g1_36"/>
<path d="M116.9,971.5H263V943.7H116.9v27.8Z" class="g1_36"/>
<path d="M169.4,1059.2H349.3v-27.9H169.4v27.9Z" class="g1_36"/>
</svg>