<?xml version="1.0" encoding="UTF-8" standalone="no"?>
<!DOCTYPE svg PUBLIC "-//W3C//DTD SVG 1.1//EN"
"http://www.w3.org/Graphics/SVG/1.1/DTD/svg11.dtd">
<svg viewBox="0 0 1286 909" version="1.1" xmlns="http://www.w3.org/2000/svg" xmlns:xlink="http://www.w3.org/1999/xlink">
<defs>
<style type="text/css"><![CDATA[
.g0_260{
fill: none;
stroke: #000000;
stroke-width: 0.73;
stroke-linecap: butt;
stroke-linejoin: miter;
}
.g1_260{
fill: none;
stroke: #02B5EE;
stroke-width: 1.262;
stroke-linecap: butt;
stroke-linejoin: miter;
}
.g2_260{
fill: none;
stroke: #5EE200;
stroke-width: 1.262;
stroke-linecap: butt;
stroke-linejoin: miter;
}
.g3_260{
fill: none;
stroke: #FFA313;
stroke-width: 1.262;
stroke-linecap: butt;
stroke-linejoin: miter;
}
.g4_260{
fill: none;
stroke: #5EE200;
stroke-width: 0.73;
stroke-linecap: butt;
stroke-linejoin: miter;
}
.g5_260{
fill: none;
stroke: #FFA313;
stroke-width: 0.73;
stroke-linecap: butt;
stroke-linejoin: miter;
}
.g6_260{
fill: none;
stroke: #02B5EE;
stroke-width: 0.73;
stroke-linecap: butt;
stroke-linejoin: miter;
}
]]></style>
</defs>
<path d="M193,83.4h900.3M193,111.6h956.7m-956.7,0h956.7M646.9,141.2V112m0,58.5V141.2m0,114.3v-85" class="g0_260"/>
<path d="M876.2,231.5h131.5" class="g1_260"/>
<path d="M1018.3,231.5h22.1" class="g2_260"/>
<path d="M1050.9,231.5h87.8" class="g3_260"/>
<path d="M646.9,284.7V255.5m0,102.3V284.7" class="g0_260"/>
<path d="M936.5,343.9h34.3" class="g4_260"/>
<path d="M970.8,343.9h100.4" class="g5_260"/>
<path d="M1071.2,343.9h67.5" class="g6_260"/>
<path d="M646.9,387V357.8m0,58.4V387m0,114.2v-85" class="g0_260"/>
<path d="M940.5,477.3h67.2" class="g1_260"/>
<path d="M1018.3,477.3h22.1" class="g2_260"/>
<path d="M1050.9,477.3h87.8" class="g3_260"/>
<path d="M646.9,530.5V501.2m0,58.5V530.5m0,114.2v-85" class="g0_260"/>
<path d="M822.7,620.7h53.5" class="g1_260"/>
<path d="M886.7,620.7h22.2" class="g2_260"/>
<path d="M646.9,673.9V644.7m0,58.5V673.9M193,703.5h956.7m-956.7,0h956.7" class="g0_260"/>
</svg>