<?xml version="1.0" encoding="UTF-8" standalone="no"?>
<!DOCTYPE svg PUBLIC "-//W3C//DTD SVG 1.1//EN"
"http://www.w3.org/Graphics/SVG/1.1/DTD/svg11.dtd">
<svg viewBox="0 0 909 1286" version="1.1" xmlns="http://www.w3.org/2000/svg" xmlns:xlink="http://www.w3.org/1999/xlink">
<defs>
<style type="text/css"><![CDATA[
.g0_37{
fill: none;
stroke: #000000;
stroke-width: 0.73;
stroke-linecap: butt;
stroke-linejoin: miter;
}
.g1_37{
fill: none;
stroke: #F81693;
stroke-width: 0.73;
stroke-linecap: butt;
stroke-linejoin: miter;
}
.g2_37{
fill: none;
stroke: #8007AC;
stroke-width: 0.73;
stroke-linecap: butt;
stroke-linejoin: miter;
}
.g3_37{
fill: none;
stroke: #02B5EE;
stroke-width: 0.73;
stroke-linecap: butt;
stroke-linejoin: miter;
}
.g4_37{
fill: none;
stroke: #02B5EE;
stroke-width: 1.461;
stroke-linecap: butt;
stroke-linejoin: miter;
}
.g5_37{
fill: none;
stroke: #7F7F7F;
stroke-width: 1.461;
stroke-linecap: butt;
stroke-linejoin: miter;
}
.g6_37{
fill: none;
stroke: #7F7F7F;
stroke-width: 1.461;
stroke-linecap: round;
stroke-linejoin: round;
}
]]></style>
</defs>
<path d="M116.9,179.9h588M343.8,209.5V180.3M260,274.7V238.2m-24.9,51.5l25.2,-15m-38,15l-25.2,-15m.4,0V238.2M166.3,219.3L197.5,238m-31.2,55.5l31.2,-18.6m-31.2,18.6L135,274.9m0,-.2V238.2m31.3,-18.9L135,238m32.4,-11l23,13.7M141,269.9v-27m26.4,42.9l23,-13.7M291.2,219.3L322.4,238m0,36.7V238.2m-31.2,55.3l31.2,-18.6m-31.2,18.6L260,274.9m31.2,-55.6L260,238m32.3,-11l23,13.7m-23,45.1l23,-13.7M266,269.9v-27M226.5,299v20.1M230.9,299v20.1m112.9,27V209.5" class="g0_37"/>
<path d="M527,274.7V238.2" class="g1_37"/>
<path d="M502.2,289.7l25.2,-15" class="g2_37"/>
<path d="M489.4,289.7l-25.2,-15m.4,0V238.2M433.3,219.3L464.6,238m-31.3,55.5l31.3,-18.6m-31.3,18.6L402.1,274.9m0,-.2V238.2m31.2,-18.9L402.1,238m32.3,-11l23.1,13.7m-49.4,29.2v-27m26.3,42.9l23.1,-13.7" class="g3_37"/>
<path d="M558.3,219.3L589.5,238m0,36.7V238.2m-31.2,55.3l31.2,-18.6m-31.2,18.6L527,274.9m31.3,-55.6L527,238m32.4,-11l23,13.7m-23,45.1l23,-13.7m-49.3,-2.2v-27" class="g1_37"/>
<path d="M493.6,299v20.1M498,299v20.1" class="g2_37"/>
<path d="M343.8,375.3V346.1m0,58.5V375.3m0,58.5V404.6m0,58.4V433.8m0,165.8V463" class="g0_37"/>
<path d="M487.2,528.2V491.7m-24.9,51.5l25.3,-15m-38,15l-25.3,-15m.4,0V491.7M393.5,472.9l31.2,18.6M393.5,547l31.2,-18.6M393.5,547L362.2,528.4m0,-.2V491.7m31.3,-18.8l-31.3,18.6m32.4,-11l23,13.7m-49.3,29.3V496.4m26.3,43l23,-13.7M518.4,472.9l31.3,18.6m0,36.7V491.7M518.4,547l31.3,-18.6M518.4,547L487.2,528.4m31.2,-55.5l-31.2,18.6m32.3,-11l23,13.7m-23,45.2l23,-13.7m-49.3,-2.2V496.4" class="g3_37"/>
<path d="M453.8,552.5v20.1m4.3,-20.1v20.1" class="g1_37"/>
<path d="M343.8,628.9V599.6m0,58.5V628.9" class="g0_37"/>
<path d="M410.8,656.6c1.4,0,2,-2.7,3.4,-2.7c1,0,1.9,1.3,2.7,2.7c.9,1.4,1.8,2.8,2.8,2.8c1,0,1.8,-1.4,2.7,-2.8c.9,-1.4,1.8,-2.7,2.8,-2.7c1.3,0,2,2.7,3.4,2.7h4.1" class="g4_37"/>
<path d="M343.8,687.3V658.1m0,58.4V687.3m0,165.9V716.5" class="g0_37"/>
<path d="M487.2,781.7V745.2m-24.9,51.5l25.3,-15m-38,15l-25.3,-15m.4,0V745.2M393.5,726.4L424.7,745m-31.2,55.6l31.2,-18.7m-31.2,18.7L362.2,781.9m0,-.2V745.2m31.3,-18.8L362.2,745m32.4,-10.9l23,13.7M368.3,777V750m26.3,42.9l23,-13.7M518.4,726.4L549.7,745m0,36.7V745.2m-31.3,55.4l31.3,-18.7m-31.3,18.7L487.2,781.9m31.2,-55.5L487.2,745m32.3,-10.9l23,13.7m-23,45.1l23,-13.7M493.2,777V750" class="g3_37"/>
<path d="M453.8,806v20.1M458.1,806v20.1" class="g2_37"/>
<path d="M343.8,882.4V853.2m0,60.3V882.4" class="g0_37"/>
<path d="M409.3,879H555.2" class="g5_37"/>
<path d="M551.3,873.3c.8,3.4,2.7,5,4.7,5.7c-2,.7,-3.9,2.3,-4.7,5.7" class="g6_37"/>
<path d="M453.1,912c1.4,0,2.1,-2.7,3.5,-2.7c1,0,1.8,1.3,2.7,2.7c.9,1.4,1.8,2.8,2.7,2.8c1,0,1.9,-1.4,2.8,-2.8c.9,-1.4,1.7,-2.7,2.7,-2.7c1.4,0,2.1,2.7,3.4,2.7h4.2" class="g4_37"/>
<path d="M343.8,942.7V913.5M116.9,943.1h588" class="g0_37"/>
</svg>