<?xml version="1.0" encoding="UTF-8" standalone="no"?>
<!DOCTYPE svg PUBLIC "-//W3C//DTD SVG 1.1//EN"
"http://www.w3.org/Graphics/SVG/1.1/DTD/svg11.dtd">
<svg viewBox="0 0 1286 909" version="1.1" xmlns="http://www.w3.org/2000/svg" xmlns:xlink="http://www.w3.org/1999/xlink">
<defs>
<style type="text/css"><![CDATA[
.g0_230{
fill: none;
stroke: #000000;
stroke-width: 0.73;
stroke-linecap: butt;
stroke-linejoin: miter;
}
.g1_230{
fill: none;
stroke: #02B5EE;
stroke-width: 1.262;
stroke-linecap: butt;
stroke-linejoin: miter;
}
.g2_230{
fill: #FFCCCC;
}
.g3_230{
fill: none;
stroke: #02B5EE;
stroke-width: 0.73;
stroke-linecap: butt;
stroke-linejoin: miter;
}
.g4_230{
fill: none;
stroke: #5EE200;
stroke-width: 1.262;
stroke-linecap: butt;
stroke-linejoin: miter;
}
.g5_230{
fill: none;
stroke: #5EE200;
stroke-width: 0.73;
stroke-linecap: butt;
stroke-linejoin: miter;
}
]]></style>
</defs>
<path d="M193,83.4h900.3M193,210.6H856.2m-663.2,0H856.2M531,240.2V211m0,58.5V240.2m0,114.3v-85" class="g0_230"/>
<path d="M639.5,330.5h58.2" class="g1_230"/>
<path d="M718.7,318.8H845.3V285.9H718.7v32.9Z" class="g2_230"/>
<path d="M531,383.7V354.5m0,102.3V383.7" class="g0_230"/>
<path d="M601.9,433H777.7V400.1H601.9V433Z" class="g2_230"/>
<path d="M777.7,442.9h67.6" class="g3_230"/>
<path d="M531,486V456.8m0,58.4V486m0,114.2v-85" class="g0_230"/>
<path d="M649.1,576.2h34.8" class="g1_230"/>
<path d="M694.4,576.2h35.8" class="g4_230"/>
<path d="M751.2,564.5h94.1V531.6H751.2v32.9Z" class="g2_230"/>
<path d="M531,629.5V600.2m0,102.3v-73" class="g0_230"/>
<path d="M581.3,678.8H765.6V645.9H581.3v32.9Z" class="g2_230"/>
<path d="M771.6,688.6h33.8" class="g5_230"/>
<path d="M811.5,688.6h33.8" class="g3_230"/>
<path d="M531,731.7V702.5m0,58.5V731.7M193,761.3H856.2m-663.2,0H856.2" class="g0_230"/>
</svg>