<?xml version="1.0" encoding="UTF-8" standalone="no"?>
<!DOCTYPE svg PUBLIC "-//W3C//DTD SVG 1.1//EN"
"http://www.w3.org/Graphics/SVG/1.1/DTD/svg11.dtd">
<svg viewBox="0 0 1286 909" version="1.1" xmlns="http://www.w3.org/2000/svg" xmlns:xlink="http://www.w3.org/1999/xlink">
<defs>
<style type="text/css"><![CDATA[
.g0_192{
fill: none;
stroke: #000000;
stroke-width: 0.73;
stroke-linecap: butt;
stroke-linejoin: miter;
}
.g1_192{
fill: none;
stroke: #F81693;
stroke-width: 1.262;
stroke-linecap: butt;
stroke-linejoin: miter;
}
.g2_192{
fill: none;
stroke: #02B5EE;
stroke-width: 1.262;
stroke-linecap: butt;
stroke-linejoin: miter;
}
.g3_192{
fill: none;
stroke: #5EE200;
stroke-width: 1.262;
stroke-linecap: butt;
stroke-linejoin: miter;
}
.g4_192{
fill: none;
stroke: #F81693;
stroke-width: 0.73;
stroke-linecap: butt;
stroke-linejoin: miter;
}
.g5_192{
fill: none;
stroke: #02B5EE;
stroke-width: 0.73;
stroke-linecap: butt;
stroke-linejoin: miter;
}
]]></style>
</defs>
<path d="M193,83.4h900.3M193,210.6h911.2m-911.2,0h911.2M666,240.2V211m0,58.5V240.2m0,60.1V269.5m0,60V300.3m0,58.4V329.5m0,114.3V358.7" class="g0_192"/>
<path d="M945.1,419.8h22.5" class="g1_192"/>
<path d="M978.1,419.8h82.5" class="g2_192"/>
<path d="M1071.1,419.8h22.2" class="g3_192"/>
<path d="M666,473V443.8m0,58.4V473m0,116.1V502.2" class="g0_192"/>
<path d="M708.5,563.3h20.6" class="g1_192"/>
<path d="M744.7,563.3h95.8" class="g2_192"/>
<path d="M980.3,563.3h113" class="g1_192"/>
<path d="M666,618.3V589.1m0,103.3V618.3" class="g0_192"/>
<path d="M676.9,677.5H864.6" class="g4_192"/>
<path d="M1042.6,677.5h50.7" class="g5_192"/>
<path d="M666,721.6V692.4M193,722h911.2M193,722h911.2" class="g0_192"/>
</svg>