<?xml version="1.0" encoding="UTF-8" standalone="no"?>
<!DOCTYPE svg PUBLIC "-//W3C//DTD SVG 1.1//EN"
"http://www.w3.org/Graphics/SVG/1.1/DTD/svg11.dtd">
<svg viewBox="0 0 1286 909" version="1.1" xmlns="http://www.w3.org/2000/svg" xmlns:xlink="http://www.w3.org/1999/xlink">
<defs>
<style type="text/css"><![CDATA[
.g0_269{
fill: none;
stroke: #000000;
stroke-width: 0.73;
stroke-linecap: butt;
stroke-linejoin: miter;
}
.g1_269{
fill: #B3E9FA;
}
.g2_269{
fill: none;
stroke: #02B5EE;
stroke-width: 1.262;
stroke-linecap: butt;
stroke-linejoin: miter;
}
.g3_269{
fill: none;
stroke: #5EE200;
stroke-width: 1.262;
stroke-linecap: butt;
stroke-linejoin: miter;
}
]]></style>
</defs>
<path d="M193,83.4h900.3M193,210.6H645.7m-452.7,0H645.7M431.9,240.2V211m0,58.5V240.2m0,114.3v-85" class="g0_269"/>
<path d="M445.4,304.7V292.5c0,-2.9,2.4,-5.2,5.2,-5.2h55.6c2.9,0,5.2,2.3,5.2,5.2v12.2c0,2.9,-2.3,5.2,-5.2,5.2H450.6c-2.8,0,-5.2,-2.3,-5.2,-5.2Z" class="g1_269"/>
<path d="M442.8,330.5H514" class="g2_269"/>
<path d="M524.5,330.5H634.7" class="g3_269"/>
<path d="M431.9,383.7V354.5m0,58.4V383.7m0,114.3V412.9" class="g0_269"/>
<path d="M469.8,448.2V436c0,-2.9,2.3,-5.2,5.2,-5.2h38.5c2.9,0,5.2,2.3,5.2,5.2v12.2c0,2.8,-2.3,5.2,-5.2,5.2H475c-2.9,0,-5.2,-2.4,-5.2,-5.2Z" class="g1_269"/>
<path d="M467.2,474h54.1" class="g2_269"/>
<path d="M531.8,474H634.7" class="g3_269"/>
<path d="M431.9,527.2V498M193,527.5H645.7m-452.7,0H645.7" class="g0_269"/>
</svg>