<?xml version="1.0" encoding="UTF-8" standalone="no"?>
<!DOCTYPE svg PUBLIC "-//W3C//DTD SVG 1.1//EN"
"http://www.w3.org/Graphics/SVG/1.1/DTD/svg11.dtd">
<svg viewBox="0 0 909 1286" version="1.1" xmlns="http://www.w3.org/2000/svg" xmlns:xlink="http://www.w3.org/1999/xlink">
<defs>
<style type="text/css"><![CDATA[
.g0_7{
fill: none;
stroke: #000000;
stroke-width: 0.73;
stroke-linecap: butt;
stroke-linejoin: miter;
}
.g1_7{
fill: #FFFFFF;
}
]]></style>
</defs>
<path d="M223.8,179.9H685.6M542,209.5V180.3M381.3,310.7l31.2,18.6m0,36.7V329.5m-31.2,55.3l31.2,-18.6m-31.2,18.6L350,366.2m0,-.2V329.5m31.3,-18.8L350,329.3M318.8,310.7L350,329.3m-31.2,55.5L350,366.2m-31.2,18.6L287.6,366.2m0,-.2V329.5m31.2,-18.8l-31.2,18.6m30.1,-11l-23,13.7m23,45.2l-23,-13.7m87.7,-45.2l23,13.7m-23,45.2l23,-13.7M344,361.3V334.2m99.7,-23.5L475,329.3m0,36.7V329.5m-31.3,55.3L475,366.2m-31.3,18.6L412.5,366.2m31.2,-55.5l-31.2,18.6m32.3,-11l23,13.7m-23,45.2l23,-13.7M475,255.3L506.2,274m0,36.7V274.1M475,329.5l31.2,-18.6m-62.5,-.2V274.1M475,255.3L443.7,274m30.2,-11l-23,13.7m49.3,29.2v-27M443.7,200L475,218.6m0,36.7V218.8m-31.3,55.3L412.5,255.5m0,-.2V218.8M443.7,200l-31.2,18.6m32.3,-10.9l23,13.7m-49.3,29.2V223.5M350,255.3L381.3,274m0,36.7V274.1M350,329.5l31.3,-18.6M350,329.5L318.8,310.9m0,-.2V274.1M350,255.3L318.8,274m32.3,-11l23,13.7M381.3,200l31.2,18.6m0,36.7V218.8m-31.2,55.3l31.2,-18.6M350,255.3V218.8M381.3,200L350,218.6m30.2,-10.9l-23,13.7M318.8,200L350,218.6m0,36.7V218.8m-31.2,55.3L287.6,255.5m0,-.2V218.8M318.8,200l-31.2,18.6m30.1,-10.9l-23,13.7m-7.1,33.9L318.8,274m-31.2,55.5l31.2,-18.6m-31.2,18.6L256.3,310.9m0,-.2V274.1m31.3,-18.8L256.3,274m6.1,31.9v-27M288.7,263l23,13.7M412.5,255.3L443.7,274m0,36.7V274.1m-31.2,55.4l31.2,-18.6m-31.2,18.6L381.3,310.9m31.2,-55.6L381.3,274M542,382.6V209.5" class="g0_7"/>
<path d="M555.9,311V277.5c0,-2.9,2.4,-5.2,5.2,-5.2H666.9c2.8,0,5.2,2.3,5.2,5.2V311c0,2.9,-2.4,5.2,-5.2,5.2H561.1c-2.8,0,-5.2,-2.3,-5.2,-5.2Z" class="g1_7"/>
<path d="M542,411.9V382.6M223.8,412.2H685.6" class="g0_7"/>
</svg>