<?xml version="1.0" encoding="UTF-8" standalone="no"?>
<!DOCTYPE svg PUBLIC "-//W3C//DTD SVG 1.1//EN"
"http://www.w3.org/Graphics/SVG/1.1/DTD/svg11.dtd">
<svg viewBox="0 0 1286 909" version="1.1" xmlns="http://www.w3.org/2000/svg" xmlns:xlink="http://www.w3.org/1999/xlink">
<defs>
<style type="text/css"><![CDATA[
.g0_94{
fill: none;
stroke: #000000;
stroke-width: 0.73;
stroke-linecap: butt;
stroke-linejoin: miter;
}
.g1_94{
fill: none;
stroke: #02B5EE;
stroke-width: 1.262;
stroke-linecap: butt;
stroke-linejoin: miter;
}
.g2_94{
fill: none;
stroke: #02B5EE;
stroke-width: 0.73;
stroke-linecap: butt;
stroke-linejoin: miter;
}
.g3_94{
fill: #B3E9FA;
}
]]></style>
</defs>
<path d="M193,83.4h900.3M193,210.6h932.2m-932.2,0h932.2M544.3,240.2V211m0,58.5V240.2m0,114.3v-85" class="g0_94"/>
<path d="M937.7,330.5h49.9" class="g1_94"/>
<path d="M544.3,383.7V354.5m0,102.3V383.7" class="g0_94"/>
<path d="M1012.9,442.9h101.3" class="g2_94"/>
<path d="M544.3,486V456.8m0,58.4V486m0,114.2v-85" class="g0_94"/>
<path d="M754.3,550.5V538.2c0,-2.8,2.3,-5.1,5.2,-5.1h94.3c2.9,0,5.2,2.3,5.2,5.1v12.3c0,2.8,-2.3,5.1,-5.2,5.1H759.5c-2.9,0,-5.2,-2.3,-5.2,-5.1Z" class="g3_94"/>
<path d="M751.7,576.2H861.6" class="g1_94"/>
<path d="M544.3,629.5V600.2m0,102.3v-73" class="g0_94"/>
<path d="M1046.7,688.6h67.5" class="g2_94"/>
<path d="M544.3,731.7V702.5m0,58.5V731.7M193,761.3h932.2m-932.2,0h932.2" class="g0_94"/>
</svg>