<?xml version="1.0" encoding="UTF-8" standalone="no"?>
<!DOCTYPE svg PUBLIC "-//W3C//DTD SVG 1.1//EN"
"http://www.w3.org/Graphics/SVG/1.1/DTD/svg11.dtd">
<svg viewBox="0 0 1286 909" version="1.1" xmlns="http://www.w3.org/2000/svg" xmlns:xlink="http://www.w3.org/1999/xlink">
<defs>
<style type="text/css"><![CDATA[
.g0_962{
fill: none;
stroke: #000000;
stroke-width: 0.73;
stroke-linecap: butt;
stroke-linejoin: miter;
}
.g1_962{
fill: #B3E9FA;
}
.g2_962{
fill: none;
stroke: #02B5EE;
stroke-width: 1.262;
stroke-linecap: butt;
stroke-linejoin: miter;
}
.g3_962{
fill: none;
stroke: #5EE200;
stroke-width: 1.262;
stroke-linecap: butt;
stroke-linejoin: miter;
}
]]></style>
</defs>
<path d="M193,83.4h900.3M193,111.6H1264.7M193,111.6H1264.7m-328,29.6V112" class="g0_962"/>
<path d="M580.5,176.5V164.3c0,-2.9,2.3,-5.2,5.2,-5.2h94.1c2.8,0,5.1,2.3,5.1,5.2v12.2c0,2.9,-2.3,5.2,-5.1,5.2H585.7c-2.9,0,-5.2,-2.3,-5.2,-5.2Z" class="g1_962"/>
<path d="M577.9,202.3H687.5" class="g2_962"/>
<path d="M698.1,202.3H925.7" class="g3_962"/>
<path d="M936.7,226.3V141.2m0,114.3V226.3m0,58.4V255.5m0,114.2v-85" class="g0_962"/>
<path d="M1021.3,326.3V307.8c0,-2.9,2.3,-5.2,5.2,-5.2h91.3c2.9,0,5.2,2.3,5.2,5.2v18.5c0,2.8,-2.3,5.2,-5.2,5.2h-91.3c-2.9,0,-5.2,-2.4,-5.2,-5.2Z" class="g1_962"/>
<path d="M1018.7,345.7h106.9" class="g2_962"/>
<path d="M1136.1,345.7h117.7" class="g3_962"/>
<path d="M936.7,399V369.7m0,58.5V399" class="g0_962"/>
<path d="M483.1,463.4V451.2c0,-2.8,2.3,-5.2,5.2,-5.2h76.6c2.9,0,5.2,2.4,5.2,5.2v12.2c0,2.9,-2.3,5.2,-5.2,5.2H488.3c-2.9,0,-5.2,-2.3,-5.2,-5.2Z" class="g1_962"/>
<path d="M480.5,489.2h92.2" class="g2_962"/>
<path d="M583.2,489.2H700.9" class="g3_962"/>
<path d="M936.7,513.2v-85m0,114.2V513.2m0,58.5V542.4m0,114.3v-85" class="g0_962"/>
<path d="M950.2,606.9v-5c0,-2.8,2.4,-5.2,5.2,-5.2H1000c2.9,0,5.2,2.4,5.2,5.2v5c0,2.9,-2.3,5.2,-5.2,5.2H955.4c-2.8,0,-5.2,-2.3,-5.2,-5.2Z" class="g1_962"/>
<path d="M947.6,632.7h60.2" class="g2_962"/>
<path d="M1018.3,632.7h235.5" class="g3_962"/>
<path d="M936.7,685.9V656.7M193,686.3H1264.7M193,686.3H1264.7" class="g0_962"/>
</svg>