<?xml version="1.0" encoding="UTF-8" standalone="no"?>
<!DOCTYPE svg PUBLIC "-//W3C//DTD SVG 1.1//EN"
"http://www.w3.org/Graphics/SVG/1.1/DTD/svg11.dtd">
<svg viewBox="0 0 909 1286" version="1.1" xmlns="http://www.w3.org/2000/svg" xmlns:xlink="http://www.w3.org/1999/xlink">
<defs>
<style type="text/css"><![CDATA[
.g0_63{
fill: none;
stroke: #000000;
stroke-width: 0.73;
stroke-linecap: butt;
stroke-linejoin: miter;
}
.g1_63{
fill: #FCA2D4;
stroke: #000000;
stroke-width: 0.73;
stroke-linecap: butt;
stroke-linejoin: miter;
}
.g2_63{
fill: #9AE1F8;
stroke: #000000;
stroke-width: 0.73;
stroke-linecap: butt;
stroke-linejoin: miter;
}
.g3_63{
fill: #BFF399;
stroke: #000000;
stroke-width: 0.73;
stroke-linecap: butt;
stroke-linejoin: miter;
}
.g4_63{
fill: #CC9CDE;
stroke: #000000;
stroke-width: 0.73;
stroke-linecap: butt;
stroke-linejoin: miter;
}
]]></style>
</defs>
<path d="M116.9,159.9H792.5" class="g0_63"/>
<path d="M484.3,620c0,-9.2,-7.4,-16.6,-16.6,-16.6c-9.1,0,-16.5,7.4,-16.5,16.6c0,9.1,7.4,16.5,16.5,16.5c9.2,0,16.6,-7.4,16.6,-16.5Z" class="g1_63"/>
<path d="M380.3,697.9c0,-9.1,-7.4,-16.5,-16.5,-16.5c-9.2,0,-16.6,7.4,-16.6,16.5c0,9.1,7.4,16.6,16.6,16.6c9.1,0,16.5,-7.5,16.5,-16.6Z" class="g2_63"/>
<path d="M454.2,630.1l-76.9,57.7" class="g0_63"/>
<path d="M328.4,775.9c0,-9.2,-7.5,-16.6,-16.6,-16.6c-9.1,0,-16.5,7.4,-16.5,16.6c0,9.1,7.4,16.5,16.5,16.5c9.1,0,16.6,-7.4,16.6,-16.5Z" class="g3_63"/>
<path d="M354.4,712l-33.2,49.8" class="g0_63"/>
<path d="M302.4,853.8c0,-9.1,-7.4,-16.5,-16.6,-16.5c-9.1,0,-16.5,7.4,-16.5,16.5c0,9.2,7.4,16.6,16.5,16.6c9.2,0,16.6,-7.4,16.6,-16.6Z" class="g4_63"/>
<path d="M306.5,791.9l-15.3,45.9" class="g0_63"/>
<path d="M354.3,853.8c0,-9.1,-7.4,-16.5,-16.5,-16.5c-9.2,0,-16.6,7.4,-16.6,16.5c0,9.2,7.4,16.6,16.6,16.6c9.1,0,16.5,-7.4,16.5,-16.6Z" class="g4_63"/>
<path d="M317.2,791.9l15.2,45.9" class="g0_63"/>
<path d="M432.3,775.9c0,-9.2,-7.4,-16.6,-16.6,-16.6c-9.1,0,-16.5,7.4,-16.5,16.6c0,9.1,7.4,16.5,16.5,16.5c9.2,0,16.6,-7.4,16.6,-16.5Z" class="g3_63"/>
<path d="M373.2,712l33.2,49.8" class="g0_63"/>
<path d="M435.7,853.8c0,-11,-8.9,-20,-20,-20c-11,0,-19.9,9,-19.9,20c0,11,8.9,20,19.9,20c11.1,0,20,-9,20,-20Z" class="g4_63"/>
<path d="M415.7,792.8v40.7" class="g0_63"/>
<path d="M588.2,697.9c0,-9.1,-7.4,-16.5,-16.5,-16.5c-9.2,0,-16.6,7.4,-16.6,16.5c0,9.1,7.4,16.6,16.6,16.6c9.1,0,16.5,-7.5,16.5,-16.6Z" class="g2_63"/>
<path d="M481.2,630.1l76.9,57.7" class="g0_63"/>
<path d="M536.2,775.9c0,-9.2,-7.4,-16.6,-16.5,-16.6c-9.2,0,-16.6,7.4,-16.6,16.6c0,9.1,7.4,16.5,16.6,16.5c9.1,0,16.5,-7.4,16.5,-16.5Z" class="g3_63"/>
<path d="M562.3,712l-33.2,49.8" class="g0_63"/>
<path d="M640.2,775.9c0,-9.2,-7.4,-16.6,-16.6,-16.6c-9.1,0,-16.5,7.4,-16.5,16.6c0,9.1,7.4,16.5,16.5,16.5c9.2,0,16.6,-7.4,16.6,-16.5Z" class="g3_63"/>
<path d="M581,712l33.2,49.8" class="g0_63"/>
</svg>