<?xml version="1.0" encoding="UTF-8" standalone="no"?>
<!DOCTYPE svg PUBLIC "-//W3C//DTD SVG 1.1//EN"
"http://www.w3.org/Graphics/SVG/1.1/DTD/svg11.dtd">
<svg viewBox="0 0 1286 909" version="1.1" xmlns="http://www.w3.org/2000/svg" xmlns:xlink="http://www.w3.org/1999/xlink">
<defs>
<style type="text/css"><![CDATA[
.g0_1255{
fill: none;
stroke: #000000;
stroke-width: 0.73;
stroke-linecap: butt;
stroke-linejoin: miter;
}
.g1_1255{
fill: none;
stroke: #02B5EE;
stroke-width: 1.262;
stroke-linecap: butt;
stroke-linejoin: miter;
}
.g2_1255{
fill: none;
stroke: #5EE200;
stroke-width: 1.262;
stroke-linecap: butt;
stroke-linejoin: miter;
}
]]></style>
</defs>
<path d="M193,83.4h900.3M193,111.6h819.9m-819.9,0h819.9M581,141.2V112m0,58.5V141.2m0,58.5V170.5m0,114.2v-85" class="g0_1255"/>
<path d="M682,260.7H805.8" class="g1_1255"/>
<path d="M816.3,260.7h22.1" class="g2_1255"/>
<path d="M581,313.9V284.7m0,58.5V313.9m0,114.3v-85" class="g0_1255"/>
<path d="M743.6,404.2h94.8" class="g1_1255"/>
<path d="M581,457.4V428.2m0,58.4V457.4m0,114.3V486.6" class="g0_1255"/>
<path d="M758,547.7h80.4" class="g1_1255"/>
<path d="M581,600.9V571.7m0,58.4V600.9m0,114.2v-85" class="g0_1255"/>
<path d="M761.6,691.1h76.8" class="g1_1255"/>
<path d="M581,744.4V715.1M193,744.7h819.9m-819.9,0h819.9" class="g0_1255"/>
</svg>