<?xml version="1.0" encoding="UTF-8" standalone="no"?>
<!DOCTYPE svg PUBLIC "-//W3C//DTD SVG 1.1//EN"
"http://www.w3.org/Graphics/SVG/1.1/DTD/svg11.dtd">
<svg viewBox="0 0 909 1286" version="1.1" xmlns="http://www.w3.org/2000/svg" xmlns:xlink="http://www.w3.org/1999/xlink">
<defs>
<style type="text/css"><![CDATA[
.g0_8{
fill: none;
stroke: #000000;
stroke-width: 0.73;
stroke-linecap: butt;
stroke-linejoin: miter;
}
.g1_8{
fill: #E81A58;
}
.g2_8{
fill: #401A1A;
}
.g3_8{
fill: #7F7F7F;
fill-opacity: 0.01;
}
.g4_8{
fill: #7F7F7F;
fill-opacity: 0.02;
}
.g5_8{
fill: #7F7F7F;
fill-opacity: 0.04;
}
.g6_8{
fill: #7F7F7F;
fill-opacity: 0.07;
}
.g7_8{
fill: #7F7F7F;
fill-opacity: 0.11;
}
.g8_8{
fill: #FFFFFF;
}
.g9_8{
fill: #CBCEFB;
}
.ga_8{
fill: #CBC04F;
}
.gb_8{
}
]]></style>
</defs>
<path d="M116.9,159.9H792.5" class="g0_8"/>
<path d="M116.9,303.6V179.5H792.5v84.9c0,21.7,-17.5,39.2,-39.1,39.2Z" class="g1_8"/>
<path d="M119.5,301V179.5H789.9v84.9c0,20.2,-16.3,36.6,-36.5,36.6Z" class="g2_8"/>
<path d="M116.9,457.5V401.1c0,-21.6,17.6,-39.1,39.2,-39.1H792.5v56.4c0,21.6,-17.5,39.1,-39.1,39.1Z" class="g1_8"/>
<path d="M119.5,454.9V394.5H789.9v23.9c0,20.2,-16.3,36.5,-36.5,36.5Z" class="g2_8"/>
<path d="M122.2,477.4c221.7,0,443.4,0,665,0V639.3c-221.6,-9.3,-443.3,-9.3,-665,0Z" class="g3_8"/>
<path d="M122.9,478c221.2,0,442.4,0,663.7,0V638.7c-221.3,-9.3,-442.5,-9.3,-663.7,0Z" class="g4_8"/>
<path d="M123.5,478.7c220.8,0,441.6,0,662.5,0V638.1c-220.9,-9.4,-441.7,-9.4,-662.5,0Z" class="g5_8"/>
<path d="M124.1,479.3c220.4,0,440.8,0,661.2,0V637.5c-220.4,-9.4,-440.8,-9.4,-661.2,0Z" class="g6_8"/>
<path d="M124.7,479.9c220,0,440,0,660,0V636.8c-220,-9.3,-440,-9.3,-660,0Z" class="g7_8"/>
<path d="M125.4,480.5c219.5,0,439.1,0,658.7,0V636.2c-219.6,-9.3,-439.2,-9.3,-658.7,0Z" class="g7_8"/>
<path d="M126,481.2c219.1,0,438.3,0,657.5,0V635.6c-219.2,-9.4,-438.4,-9.4,-657.5,0Z" class="g6_8"/>
<path d="M126.6,481.8c218.8,0,437.5,0,656.3,0V635c-218.8,-9.4,-437.5,-9.4,-656.3,0Z" class="g5_8"/>
<path d="M127.2,482.4c218.4,0,436.7,0,655,0V634.3c-218.3,-9.3,-436.6,-9.3,-655,0Z" class="g4_8"/>
<path d="M127.9,483c217.9,0,435.8,0,653.7,0V633.7c-217.9,-9.3,-435.8,-9.3,-653.7,0Z" class="g3_8"/>
<path d="M116.9,629V472.1H792.5V629Z" class="g8_8"/>
<path d="M119.5,626.4V474.7H789.9V626.4Z" class="g8_8"/>
<path d="M217.2,490.7h475M217.6,520.3V491" class="g0_8"/>
<path d="M218,520.3h88.2V491H218v29.3Z" class="g9_8"/>
<path d="M306.5,520.3V491" class="g0_8"/>
<path d="M306.9,520.3H418.7V491H306.9v29.3Z" class="g9_8"/>
<path d="M419.1,520.3V491" class="g0_8"/>
<path d="M419.5,520.3h60.2V491H419.5v29.3Z" class="g9_8"/>
<path d="M480.1,520.3V491" class="g0_8"/>
<path d="M480.5,520.3h50.6V491H480.5v29.3Z" class="g9_8"/>
<path d="M531.5,520.3V491" class="g0_8"/>
<path d="M531.9,520.3h89V491h-89v29.3Z" class="g9_8"/>
<path d="M621.3,520.3V491" class="g0_8"/>
<path d="M621.6,520.3h69.9V491H621.6v29.3Z" class="g9_8"/>
<path d="M691.9,520.3V491M217.2,520.6h475M217.6,550.2V521m88.9,29.2V521m112.6,29.2V521m61,29.2V521m51.4,29.2V521m89.8,29.2V521m70.6,29.2V521M217.2,550.6h475M217.6,580.2V550.9m88.9,29.3V550.9m112.6,29.3V550.9m61,29.3V550.9m51.4,29.3V550.9m89.8,29.3V550.9m70.6,29.3V550.9M217.2,580.5h475M217.6,610.1V580.9m88.9,29.2V580.9m112.6,29.2V580.9m61,29.2V580.9m51.4,29.2V580.9m89.8,29.2V580.9m70.6,29.2V580.9M217.2,610.5h475" class="g0_8"/>
<path d="M116.9,825.5V751.1c0,-4.4,3.5,-7.8,7.8,-7.8h660c4.3,0,7.8,3.4,7.8,7.8v74.4c0,4.3,-3.5,7.8,-7.8,7.8h-660c-4.3,0,-7.8,-3.5,-7.8,-7.8Z" class="ga_8"/>
<path d="M119.5,825.5V775.7H789.9v49.8c0,2.8,-2.3,5.2,-5.2,5.2h-660c-2.8,0,-5.2,-2.4,-5.2,-5.2Z" class="gb_8"/>
<path d="M116.9,973.9V899.5c0,-4.3,3.5,-7.8,7.8,-7.8h660c4.3,0,7.8,3.5,7.8,7.8v74.4c0,4.3,-3.5,7.8,-7.8,7.8h-660c-4.3,0,-7.8,-3.5,-7.8,-7.8Z" class="ga_8"/>
<path d="M119.5,973.9V924.2H789.9v49.7c0,2.9,-2.3,5.2,-5.2,5.2h-660c-2.8,0,-5.2,-2.3,-5.2,-5.2Z" class="gb_8"/>
</svg>