<?xml version="1.0" encoding="UTF-8" standalone="no"?>
<!DOCTYPE svg PUBLIC "-//W3C//DTD SVG 1.1//EN"
"http://www.w3.org/Graphics/SVG/1.1/DTD/svg11.dtd">
<svg viewBox="0 0 1286 909" version="1.1" xmlns="http://www.w3.org/2000/svg" xmlns:xlink="http://www.w3.org/1999/xlink">
<defs>
<style type="text/css"><![CDATA[
.g0_968{
fill: none;
stroke: #000000;
stroke-width: 0.73;
stroke-linecap: butt;
stroke-linejoin: miter;
}
.g1_968{
fill: none;
stroke: #000000;
stroke-width: 0.657;
stroke-linecap: butt;
stroke-linejoin: miter;
}
.g2_968{
fill: #FDE8E9;
}
]]></style>
</defs>
<path d="M193,83.4h900.3" class="g0_968"/>
<path d="M208.3,429.1H516.9M208.3,455.7V429.4m172.9,26.3V429.4m135.7,26.3V429.4M208.3,485.1V455.7m172.9,29.4V455.7" class="g1_968"/>
<path d="M391.1,482.1H507V455.7H391.1v26.4Z" class="g2_968"/>
<path d="M516.9,485.1V455.7M208.3,511.4V485.1m172.9,26.3V485.1m135.7,26.3V485.1M208.3,537.7V511.4m172.9,26.3V511.4m135.7,26.3V511.4M208.3,567.1V537.7m172.9,29.4V537.7" class="g1_968"/>
<path d="M391.1,564.1H507V537.7H391.1v26.4Z" class="g2_968"/>
<path d="M516.9,567.1V537.7M208.3,593.4V567.1m172.9,26.3V567.1m135.7,26.3V567.1M208.3,619.7V593.4m172.9,26.3V593.4m135.7,26.3V593.4M208.3,649.1V619.7m172.9,29.4V619.7" class="g1_968"/>
<path d="M391.1,646.1H507V619.7H391.1v26.4Z" class="g2_968"/>
<path d="M516.9,649.1V619.7M208.3,675.4V649.1m172.9,26.3V649.1m135.7,26.3V649.1M208.3,701.7V675.4m172.9,26.3V675.4m135.7,26.3V675.4M208.3,731V701.7M381.2,731V701.7" class="g1_968"/>
<path d="M391.1,728.1H507V701.7H391.1v26.4Z" class="g2_968"/>
<path d="M516.9,731V701.7M208.3,757.3V731m172.9,26.3V731m135.7,26.3V731M208.3,783.6V757.3m172.9,26.3V757.3M208.3,813V783.6M381.2,813V783.6" class="g1_968"/>
<path d="M391.1,810.1h47V783.6h-47v26.5Z" class="g2_968"/>
<path d="M516.9,813V783.6M208.3,839.3V813m172.9,26.3V813m135.7,26.3V813M208.3,839.7H516.9M536.6,426.4H783.2M536.6,453.1V426.8m107.3,26.3V426.8m139.3,26.3V426.8M536.6,482.4V453.1m107.3,29.3V453.1" class="g1_968"/>
<path d="M653.7,479.5H766.5V453.1H653.7v26.4Z" class="g2_968"/>
<path d="M783.2,482.4V453.1M536.6,508.7V482.4m107.3,26.3V482.4m139.3,26.3V482.4M536.6,535V508.7M643.9,535V508.7M783.2,535V508.7M536.6,564.4V535m107.3,29.4V535" class="g1_968"/>
<path d="M653.7,561.5H698V535H653.7v26.5Z" class="g2_968"/>
<path d="M783.2,564.4V535M536.6,590.7V564.4m107.3,26.3V564.4m139.3,26.3V564.4M536.6,617V590.7M643.9,617V590.7M783.2,617V590.7M536.6,648.2V617m107.3,31.2V617" class="g1_968"/>
<path d="M653.7,648.2h84.7V617H653.7v31.2Z" class="g2_968"/>
<path d="M783.2,648.2V617M536.6,674.5V648.2m107.3,26.3V648.2m139.3,26.3V648.2M536.6,700.8V674.5m107.3,26.3V674.5m139.3,26.3V674.5M536.6,731.9V700.8m107.3,31.1V700.8" class="g1_968"/>
<path d="M653.7,731.9H773.3V700.8H653.7v31.1Z" class="g2_968"/>
<path d="M783.2,731.9V700.8M536.6,758.2V731.9m107.3,26.3V731.9m139.3,26.3V731.9M536.6,784.5V758.2m107.3,26.3V758.2m139.3,26.3V758.2M536.6,815.7V784.5m107.3,31.2V784.5" class="g1_968"/>
<path d="M653.7,815.7h98.2V784.5H653.7v31.2Z" class="g2_968"/>
<path d="M783.2,815.7V784.5M536.6,842V815.7M643.9,842V815.7M783.2,842V815.7M536.6,842.3H783.2M802.9,426.6h273m-273,26.7V427m85.4,26.3V427m187.6,26.3V427m-273,53.4V453.3m85.4,27.1V453.3" class="g1_968"/>
<path d="M898.2,477.5h61.5v-21H898.2v21Z" class="g2_968"/>
<path d="M1075.9,480.4V453.3m-273,53.4V480.4m85.4,26.3V480.4m187.6,26.3V480.4M802.9,533V506.7M888.3,533V506.7M1075.9,533V506.7m-273,57.5V533m85.4,31.2V533" class="g1_968"/>
<path d="M898.2,564.2h92V533h-92v31.2Z" class="g2_968"/>
<path d="M1075.9,564.2V533m-273,57.5V564.2m85.4,26.3V564.2m187.6,26.3V564.2m-273,52.6V590.5m85.4,26.3V590.5m187.6,26.3V590.5m-273,57.4V616.8m85.4,31.1V616.8" class="g1_968"/>
<path d="M898.2,647.9h125.7V616.8H898.2v31.1Z" class="g2_968"/>
<path d="M1075.9,647.9V616.8m-273,57.4V647.9m85.4,26.3V647.9m187.6,26.3V647.9m-273,52.6V674.2m85.4,26.3V674.2m187.6,26.3V674.2m-273,57.5V700.5m85.4,31.2V700.5" class="g1_968"/>
<path d="M898.2,731.7h167.9V700.5H898.2v31.2Z" class="g2_968"/>
<path d="M1075.9,731.7V700.5M802.9,758V731.7M888.3,758V731.7M1075.9,758V731.7m-273,52.6V758m85.4,26.3V758m187.6,26.3V758m-273,57.5V784.3m85.4,31.2V784.3" class="g1_968"/>
<path d="M898.2,815.5h80.2V784.3H898.2v31.2Z" class="g2_968"/>
<path d="M1075.9,815.5V784.3m-273,57.5V815.5m85.4,26.3V815.5m187.6,26.3V815.5m-273,26.6h273" class="g1_968"/>
</svg>