<?xml version="1.0" encoding="UTF-8" standalone="no"?>
<!DOCTYPE svg PUBLIC "-//W3C//DTD SVG 1.1//EN"
"http://www.w3.org/Graphics/SVG/1.1/DTD/svg11.dtd">
<svg viewBox="0 0 909 1286" version="1.1" xmlns="http://www.w3.org/2000/svg" xmlns:xlink="http://www.w3.org/1999/xlink">
<defs>
<style type="text/css"><![CDATA[
.g0_84{
fill: none;
stroke: #000000;
stroke-width: 0.73;
stroke-linecap: butt;
stroke-linejoin: miter;
}
.g1_84{
fill: #FDE8E9;
}
]]></style>
</defs>
<path d="M116.9,159.9H792.5" class="g0_84"/>
<path d="M167.6,380H263V352.1H167.6V380Z" class="g1_84"/>
<path d="M302.7,564.2h78.5V536.4H302.7v27.8Z" class="g1_84"/>
<path d="M465.7,564.2h61.6V536.4H465.7v27.8Z" class="g1_84"/>
<path d="M319.6,593.9h44.7V566H319.6v27.9Z" class="g1_84"/>
<path d="M252.1,623.6h78.5V595.7H252.1v27.9Z" class="g1_84"/>
<path d="M364.3,623.6h44.8V595.7H364.3v27.9Z" class="g1_84"/>
<path d="M167.6,842.7H313.7V814.9H167.6v27.8Z" class="g1_84"/>
<path d="M252.1,1027h78.5V999.1H252.1V1027Z" class="g1_84"/>
<path d="M336.5,1056.7H415v-27.9H336.5v27.9Z" class="g1_84"/>
<path d="M268.9,1086.3h78.6v-27.8H268.9v27.8Z" class="g1_84"/>
<path d="M404.1,1116h78.5v-27.8H404.1V1116Z" class="g1_84"/>
<path d="M420.9,1145.7h78.6v-27.9H420.9v27.9Z" class="g1_84"/>
</svg>