<?xml version="1.0" encoding="UTF-8" standalone="no"?>
<!DOCTYPE svg PUBLIC "-//W3C//DTD SVG 1.1//EN"
"http://www.w3.org/Graphics/SVG/1.1/DTD/svg11.dtd">
<svg viewBox="0 0 909 1286" version="1.1" xmlns="http://www.w3.org/2000/svg" xmlns:xlink="http://www.w3.org/1999/xlink">
<defs>
<style type="text/css"><![CDATA[
.g0_2{
fill: none;
stroke: #000000;
stroke-width: 0.73;
stroke-linecap: butt;
stroke-linejoin: miter;
}
.g1_2{
fill: none;
stroke: #999999;
stroke-width: 2.191;
stroke-linecap: butt;
stroke-linejoin: miter;
}
]]></style>
</defs>
<path d="M279.4,208.7V179.5m0,58.5V208.7" class="g0_2"/>
<path d="M546.7,232.1L531.6,217.8m0,14.3l15.1,-14.3" class="g1_2"/>
<path d="M279.4,267.2V238m0,58.4V267.2m0,58.4V296.4" class="g0_2"/>
<path d="M512.9,319.7L497.8,305.4m0,14.3l15.1,-14.3" class="g1_2"/>
<path d="M279.4,354.9V325.6m0,58.5V354.9m0,58.4V384.1" class="g0_2"/>
<path d="M538.8,407.4L523.7,393.1m0,14.3l15.1,-14.3" class="g1_2"/>
<path d="M279.4,442.5V413.3m0,58.5V442.5m0,58.5V471.8" class="g0_2"/>
<path d="M513.1,495.1L498,480.8m0,14.3l15.1,-14.3" class="g1_2"/>
<path d="M279.4,530.2V501" class="g0_2"/>
</svg>