<?xml version="1.0" encoding="UTF-8" standalone="no"?>
<!DOCTYPE svg PUBLIC "-//W3C//DTD SVG 1.1//EN"
"http://www.w3.org/Graphics/SVG/1.1/DTD/svg11.dtd">
<svg viewBox="0 0 1286 909" version="1.1" xmlns="http://www.w3.org/2000/svg" xmlns:xlink="http://www.w3.org/1999/xlink">
<defs>
<style type="text/css"><![CDATA[
.g0_658{
fill: none;
stroke: #000000;
stroke-width: 0.73;
stroke-linecap: butt;
stroke-linejoin: miter;
}
.g1_658{
fill: none;
stroke: #02B5EE;
stroke-width: 1.262;
stroke-linecap: butt;
stroke-linejoin: miter;
}
.g2_658{
fill: none;
stroke: #5EE200;
stroke-width: 1.262;
stroke-linecap: butt;
stroke-linejoin: miter;
}
.g3_658{
fill: none;
stroke: #FFA313;
stroke-width: 1.262;
stroke-linecap: butt;
stroke-linejoin: miter;
}
]]></style>
</defs>
<path d="M193,83.4h900.3M193,210.6H732.1m-539.1,0H732.1M457.9,240.2V211m0,58.5V240.2m0,114.3v-85" class="g0_658"/>
<path d="M468.9,330.5H572" class="g1_658"/>
<path d="M582.5,330.5h22.2" class="g2_658"/>
<path d="M457.9,383.7V354.5m0,58.4V383.7m0,114.3V412.9" class="g0_658"/>
<path d="M513,474h59" class="g1_658"/>
<path d="M582.5,474h22.2" class="g2_658"/>
<path d="M457.9,527.2V498m0,58.4V527.2m0,114.2v-85" class="g0_658"/>
<path d="M578.5,617.4h40.2" class="g1_658"/>
<path d="M629.2,617.4h22.4" class="g2_658"/>
<path d="M662.1,617.4h59" class="g3_658"/>
<path d="M457.9,671.6V641.4m0,59.4V671.6M193,701.2H732.1m-539.1,0H732.1" class="g0_658"/>
</svg>