<?xml version="1.0" encoding="UTF-8" standalone="no"?>
<!DOCTYPE svg PUBLIC "-//W3C//DTD SVG 1.1//EN"
"http://www.w3.org/Graphics/SVG/1.1/DTD/svg11.dtd">
<svg viewBox="0 0 1286 909" version="1.1" xmlns="http://www.w3.org/2000/svg" xmlns:xlink="http://www.w3.org/1999/xlink">
<defs>
<style type="text/css"><![CDATA[
.g0_109{
fill: none;
stroke: #000000;
stroke-width: 0.73;
stroke-linecap: butt;
stroke-linejoin: miter;
}
.g1_109{
fill: #B3E9FA;
}
.g2_109{
fill: none;
stroke: #02B5EE;
stroke-width: 1.262;
stroke-linecap: butt;
stroke-linejoin: miter;
}
.g3_109{
fill: none;
stroke: #5EE200;
stroke-width: 1.262;
stroke-linecap: butt;
stroke-linejoin: miter;
}
]]></style>
</defs>
<path d="M193,83.4h900.3M193,210.6H829.4m-636.4,0H829.4M538.3,240.2V211m0,58.5V240.2m0,114.3v-85" class="g0_109"/>
<path d="M551.9,304.7V292.5c0,-2.9,2.3,-5.2,5.2,-5.2h49.3c2.9,0,5.2,2.3,5.2,5.2v12.2c0,2.9,-2.3,5.2,-5.2,5.2H557.1c-2.9,0,-5.2,-2.3,-5.2,-5.2Z" class="g1_109"/>
<path d="M549.3,330.5h64.9" class="g2_109"/>
<path d="M624.8,330.5H818.5" class="g3_109"/>
<path d="M538.3,383.7V354.5m0,58.4V383.7m0,114.3V412.9" class="g0_109"/>
<path d="M598,448.2V436c0,-2.9,2.4,-5.2,5.2,-5.2h97.3c2.8,0,5.2,2.3,5.2,5.2v12.2c0,2.8,-2.4,5.2,-5.2,5.2H603.2c-2.8,0,-5.2,-2.4,-5.2,-5.2Z" class="g1_109"/>
<path d="M595.4,474H708.3" class="g2_109"/>
<path d="M718.8,474h99.7" class="g3_109"/>
<path d="M538.3,527.2V498M193,527.5H829.4m-636.4,0H829.4" class="g0_109"/>
</svg>