<?xml version="1.0" encoding="UTF-8" standalone="no"?>
<!DOCTYPE svg PUBLIC "-//W3C//DTD SVG 1.1//EN"
"http://www.w3.org/Graphics/SVG/1.1/DTD/svg11.dtd">
<svg viewBox="0 0 1286 909" version="1.1" xmlns="http://www.w3.org/2000/svg" xmlns:xlink="http://www.w3.org/1999/xlink">
<defs>
<style type="text/css"><![CDATA[
.g0_777{
fill: none;
stroke: #000000;
stroke-width: 0.73;
stroke-linecap: butt;
stroke-linejoin: miter;
}
.g1_777{
fill: none;
stroke: #02B5EE;
stroke-width: 1.262;
stroke-linecap: butt;
stroke-linejoin: miter;
}
.g2_777{
fill: none;
stroke: #02B5EE;
stroke-width: 0.73;
stroke-linecap: butt;
stroke-linejoin: miter;
}
.g3_777{
fill: #B3E9FA;
}
.g4_777{
fill: none;
stroke: #5EE200;
stroke-width: 1.262;
stroke-linecap: butt;
stroke-linejoin: miter;
}
]]></style>
</defs>
<path d="M193,83.4h900.3M193,210.6h843m-843,0h843M632.3,240.2V211m0,58.5V240.2m0,114.3v-85" class="g0_777"/>
<path d="M830.5,330.5h49" class="g1_777"/>
<path d="M632.3,383.7V354.5m0,102.3V383.7" class="g0_777"/>
<path d="M991.3,442.9h33.8" class="g2_777"/>
<path d="M632.3,488.1V456.8m0,60.5V488.1m0,58.4V517.3m0,114.3V546.5" class="g0_777"/>
<path d="M692.1,588.1V569.6c0,-2.9,2.3,-5.2,5.1,-5.2h96.3c2.8,0,5.2,2.3,5.2,5.2v18.5c0,2.9,-2.4,5.2,-5.2,5.2H697.2c-2.8,0,-5.1,-2.3,-5.1,-5.2Z" class="g3_777"/>
<path d="M689.5,607.6H801.2" class="g1_777"/>
<path d="M811.8,607.6h213.3" class="g4_777"/>
<path d="M632.3,660.8V631.6m0,58.4V660.8m0,58.4V690M193,719.6h843m-843,0h843" class="g0_777"/>
</svg>