<?xml version="1.0" encoding="UTF-8" standalone="no"?>
<!DOCTYPE svg PUBLIC "-//W3C//DTD SVG 1.1//EN"
"http://www.w3.org/Graphics/SVG/1.1/DTD/svg11.dtd">
<svg viewBox="0 0 1286 909" version="1.1" xmlns="http://www.w3.org/2000/svg" xmlns:xlink="http://www.w3.org/1999/xlink">
<defs>
<style type="text/css"><![CDATA[
.g0_682{
fill: none;
stroke: #000000;
stroke-width: 0.73;
stroke-linecap: butt;
stroke-linejoin: miter;
}
.g1_682{
fill: none;
stroke: #02B5EE;
stroke-width: 1.262;
stroke-linecap: butt;
stroke-linejoin: miter;
}
.g2_682{
fill: none;
stroke: #5EE200;
stroke-width: 1.262;
stroke-linecap: butt;
stroke-linejoin: miter;
}
.g3_682{
fill: none;
stroke: #5EE200;
stroke-width: 0.73;
stroke-linecap: butt;
stroke-linejoin: miter;
}
.g4_682{
fill: none;
stroke: #02B5EE;
stroke-width: 0.73;
stroke-linecap: butt;
stroke-linejoin: miter;
}
]]></style>
</defs>
<path d="M193,83.4h900.3M193,111.6H968.4m-775.4,0H968.4M506.7,141.2V112m0,114.3V141.2" class="g0_682"/>
<path d="M718,202.3h77.5" class="g1_682"/>
<path d="M806,202.3h22.1" class="g2_682"/>
<path d="M506.7,256.4V226.3m0,103.2V256.4" class="g0_682"/>
<path d="M643.9,315.6h34.2" class="g3_682"/>
<path d="M873,315.6h84.5" class="g4_682"/>
<path d="M506.7,358.7V329.5m0,58.4V358.7m0,114.3V387.9" class="g0_682"/>
<path d="M702.8,449H828.1" class="g1_682"/>
<path d="M506.7,503.1V473m0,103.2V503.1" class="g0_682"/>
<path d="M923.7,562.3h33.8" class="g4_682"/>
<path d="M506.7,605.4V576.2m0,58.4V605.4m0,114.3V634.6" class="g0_682"/>
<path d="M758.1,695.7h70" class="g1_682"/>
<path d="M506.7,748.9V719.7M193,749.3H968.4m-775.4,0H968.4" class="g0_682"/>
</svg>