<?xml version="1.0" encoding="UTF-8" standalone="no"?>
<!DOCTYPE svg PUBLIC "-//W3C//DTD SVG 1.1//EN"
"http://www.w3.org/Graphics/SVG/1.1/DTD/svg11.dtd">
<svg viewBox="0 0 909 1286" version="1.1" xmlns="http://www.w3.org/2000/svg" xmlns:xlink="http://www.w3.org/1999/xlink">
<defs>
<style type="text/css"><![CDATA[
.g0_4{
fill: #FDE8E9;
}
.g1_4{
fill: none;
stroke: #000000;
stroke-width: 0.73;
stroke-linecap: butt;
stroke-linejoin: miter;
}
.g2_4{
fill: #FFFFFF;
}
]]></style>
</defs>
<path d="M165.8,239.4h44.9V218.7H165.8v20.7Z" class="g0_4"/>
<path d="M288.2,285.4h333M442,315V285.8m-44.7,42.9l18.3,10.9m6.5,40.6V352.8m-62.4,27.4h62.4m-62.4,0V343.7m24.8,-15l-24.8,14.8M328.4,324.8l31.3,18.7M328.4,399l31.3,-18.6M328.4,399L297.2,380.4m0,-.2V343.7m31.2,-18.9l-31.2,18.7m30.1,47.8l-23,-13.7m23,-45.1l-23,13.7m49.3,29.2v-27m62.5,27V351M442,396.8V315" class="g1_4"/>
<path d="M456,370.9V337.3c0,-2.9,2.3,-5.2,5.2,-5.2H602.4c2.9,0,5.2,2.3,5.2,5.2v33.6c0,2.8,-2.3,5.2,-5.2,5.2H461.2c-2.9,0,-5.2,-2.4,-5.2,-5.2Z" class="g2_4"/>
<path d="M442,426V396.8M288.2,426.4h333M442,456V426.8m-44.7,42.9l24.8,14.8m0,29.4V484.7M390.9,540l24.8,-14.8M390.9,540L359.7,521.4m0,-.2V484.7m24.8,-15l-24.8,14.8M328.4,465.9l31.3,18.6M328.4,540l31.3,-18.6M328.4,540L297.2,521.4m0,-.2V484.7m31.2,-18.8l-31.2,18.6m30.1,-11l-23,13.7m23,45.1l-23,-13.7m93,-40.7l18.3,11M392,532.3l18.3,-10.9m-56.7,-5v-27M442,537.8V456" class="g1_4"/>
<path d="M458.5,515.5V478.3c0,-2.9,2.3,-5.2,5.2,-5.2H599.9c2.9,0,5.2,2.3,5.2,5.2v37.2c0,2.9,-2.3,5.2,-5.2,5.2H463.7c-2.9,0,-5.2,-2.3,-5.2,-5.2Z" class="g2_4"/>
<path d="M442,567V537.8M288.2,567.4h333" class="g1_4"/>
<path d="M165.8,650h45.4V629.3H165.8V650Z" class="g0_4"/>
<path d="M290,696H619.4M443.8,725.6V696.4m-44.7,42.9l24.8,14.8m0,36.7V754.3m-24.8,51.5l25.2,-15m-38,15l-25.2,-15m.3,0V754.3m24.9,-15l-24.9,14.8M330.2,735.4l31.2,18.7m-31.2,55.5L361.4,791m-31.2,18.6L299,791m0,-.2V754.3m31.2,-18.9L299,754.1m30.1,-11l-23,13.7m23,45.1l-23,-13.7m93,-40.7l18.2,11m-18.2,39l18.2,-10.9M355.4,786V759m88.4,48.4V725.6" class="g1_4"/>
<path d="M457.7,785.1V747.9c0,-2.9,2.4,-5.2,5.2,-5.2H600.7c2.8,0,5.2,2.3,5.2,5.2v37.2c0,2.9,-2.4,5.2,-5.2,5.2H462.9c-2.8,0,-5.2,-2.3,-5.2,-5.2Z" class="g2_4"/>
<path d="M443.8,836.6V807.4M290,837H619.4" class="g1_4"/>
</svg>