<?xml version="1.0" encoding="UTF-8" standalone="no"?>
<!DOCTYPE svg PUBLIC "-//W3C//DTD SVG 1.1//EN"
"http://www.w3.org/Graphics/SVG/1.1/DTD/svg11.dtd">
<svg viewBox="0 0 1286 909" version="1.1" xmlns="http://www.w3.org/2000/svg" xmlns:xlink="http://www.w3.org/1999/xlink">
<defs>
<style type="text/css"><![CDATA[
.g0_541{
fill: none;
stroke: #000000;
stroke-width: 0.73;
stroke-linecap: butt;
stroke-linejoin: miter;
}
.g1_541{
fill: none;
stroke: #02B5EE;
stroke-width: 1.262;
stroke-linecap: butt;
stroke-linejoin: miter;
}
.g2_541{
fill: none;
stroke: #5EE200;
stroke-width: 1.262;
stroke-linecap: butt;
stroke-linejoin: miter;
}
.g3_541{
fill: none;
stroke: #5EE200;
stroke-width: 0.73;
stroke-linecap: butt;
stroke-linejoin: miter;
}
.g4_541{
fill: none;
stroke: #02B5EE;
stroke-width: 0.73;
stroke-linecap: butt;
stroke-linejoin: miter;
}
]]></style>
</defs>
<path d="M193,83.4h900.3M193,210.6H797.4m-604.4,0H797.4M432.6,240.2V211m0,58.5V240.2m0,114.3v-85" class="g0_541"/>
<path d="M494.5,330.5H688.1" class="g1_541"/>
<path d="M698.6,330.5h87.8" class="g2_541"/>
<path d="M432.6,384.6V354.5m0,103.2V384.6" class="g0_541"/>
<path d="M511.1,443.8H611.5" class="g3_541"/>
<path d="M617.5,443.8H786.4" class="g4_541"/>
<path d="M432.6,486.9V457.7m0,58.5V486.9m0,114.3v-85" class="g0_541"/>
<path d="M549.4,577.2H688.1" class="g1_541"/>
<path d="M698.6,577.2h87.8" class="g2_541"/>
<path d="M432.6,631.3V601.2m0,103.2V631.3" class="g0_541"/>
<path d="M511.1,690.5H611.5" class="g3_541"/>
<path d="M617.5,690.5H786.4" class="g4_541"/>
<path d="M432.6,733.6V704.4M193,734H797.4M193,734H797.4" class="g0_541"/>
</svg>