<?xml version="1.0" encoding="UTF-8" standalone="no"?>
<!DOCTYPE svg PUBLIC "-//W3C//DTD SVG 1.1//EN"
"http://www.w3.org/Graphics/SVG/1.1/DTD/svg11.dtd">
<svg viewBox="0 0 909 1286" version="1.1" xmlns="http://www.w3.org/2000/svg" xmlns:xlink="http://www.w3.org/1999/xlink">
<defs>
<style type="text/css"><![CDATA[
.g0_13{
fill: none;
stroke: #000000;
stroke-width: 0.73;
stroke-linecap: butt;
stroke-linejoin: miter;
}
.g1_13{
fill: none;
stroke: #02B5EE;
stroke-width: 0.73;
stroke-linecap: butt;
stroke-linejoin: miter;
}
.g2_13{
fill: none;
stroke: #F81693;
stroke-width: 0.73;
stroke-linecap: butt;
stroke-linejoin: miter;
}
.g3_13{
fill: #FFFFFF;
}
.g4_13{
fill: #FDE8E9;
}
]]></style>
</defs>
<path d="M116.9,179.9h523M343.8,209.5V180.3M188.4,240l31.2,18.6M188.4,240l-24.9,14.8M250.8,240l31.3,18.6M250.8,240l-31.2,18.6m87.3,-14.8l-24.8,14.8m61.7,32.7V209.5" class="g0_13"/>
<path d="M589.7,225.6l24.8,14.7M576.9,225.6l-18.3,10.9" class="g1_13"/>
<path d="M542.9,254l-18.2,11m-61.6,-.5L438.3,249.7m24.8,14.8l31.2,-18.7m31.3,18.7L494.4,245.8" class="g2_13"/>
<path d="M343.8,320.5V291.3m0,58.5V320.5m0,58.5V349.8m0,60V379m0,60.1V409.8m0,105V439.1" class="g0_13"/>
<path d="M421.4,507V446.8c0,-2.8,2.3,-5.2,5.2,-5.2H585.8c2.8,0,5.2,2.4,5.2,5.2V507c0,2.9,-2.4,5.2,-5.2,5.2H426.6c-2.9,0,-5.2,-2.3,-5.2,-5.2Z" class="g3_13"/>
<path d="M477.6,537.9h57.2V521.2H477.6v16.7Z" class="g4_13"/>
<path d="M447.4,496.6H565V457.2H447.4v39.4Z" class="g4_13"/>
<path d="M343.8,544V514.8M116.9,544.4h523M343.8,574V544.7m-91.5,69.4L221.1,595.5m0,-.2l-22,13.2M167.9,589.7l31.2,18.6m0,36.7V608.5m-31.2,55.3l31.2,-18.6m-31.2,18.6L136.7,645.2m0,-.2V608.5m31.2,-18.8l-31.2,18.6m32.3,-11L192,611m-23,45.2l23,-13.7m-49.3,-2.2V613.2m201.1,79.1V574" class="g0_13"/>
<path d="M525.8,599.2L550.6,614M513,599.2l-18.3,10.9" class="g1_13"/>
<path d="M479,627.7l-18.3,10.9M430.4,619.3l31.3,18.6m0,36.7V638.1m-31.3,55.3l31.3,-18.6m-31.3,18.6L399.2,674.8m0,-.2V638.1m31.2,-18.8l-31.2,18.6m32.3,-11l23,13.7m-23,45.1l23,-13.7m-49.3,-2.1V642.8" class="g2_13"/>
<path d="M343.8,721.5V692.3m0,58.5V721.5m0,58.5V750.8m0,60V780m0,60.1V810.8m0,105V840.1" class="g0_13"/>
<path d="M421.4,908V847.9c0,-2.9,2.3,-5.2,5.2,-5.2H612.7c2.8,0,5.2,2.3,5.2,5.2V908c0,2.9,-2.4,5.2,-5.2,5.2H426.6c-2.9,0,-5.2,-2.3,-5.2,-5.2Z" class="g3_13"/>
<path d="M485.9,938.9h67.4V922.2H485.9v16.7Z" class="g4_13"/>
<path d="M447.4,897.6H591.9V858.2H447.4v39.4Z" class="g4_13"/>
<path d="M343.8,945V915.8M116.9,945.4h523" class="g0_13"/>
</svg>