<?xml version="1.0" encoding="UTF-8" standalone="no"?>
<!DOCTYPE svg PUBLIC "-//W3C//DTD SVG 1.1//EN"
"http://www.w3.org/Graphics/SVG/1.1/DTD/svg11.dtd">
<svg viewBox="0 0 1286 909" version="1.1" xmlns="http://www.w3.org/2000/svg" xmlns:xlink="http://www.w3.org/1999/xlink">
<defs>
<style type="text/css"><![CDATA[
.g0_366{
fill: none;
stroke: #000000;
stroke-width: 0.73;
stroke-linecap: butt;
stroke-linejoin: miter;
}
.g1_366{
fill: none;
stroke: #02B5EE;
stroke-width: 1.262;
stroke-linecap: butt;
stroke-linejoin: miter;
}
.g2_366{
fill: none;
stroke: #5EE200;
stroke-width: 1.262;
stroke-linecap: butt;
stroke-linejoin: miter;
}
.g3_366{
fill: none;
stroke: #FFA313;
stroke-width: 1.262;
stroke-linecap: butt;
stroke-linejoin: miter;
}
.g4_366{
fill: none;
stroke: #5EE200;
stroke-width: 0.73;
stroke-linecap: butt;
stroke-linejoin: miter;
}
.g5_366{
fill: none;
stroke: #FFA313;
stroke-width: 0.73;
stroke-linecap: butt;
stroke-linejoin: miter;
}
.g6_366{
fill: none;
stroke: #02B5EE;
stroke-width: 0.73;
stroke-linecap: butt;
stroke-linejoin: miter;
}
]]></style>
</defs>
<path d="M193,83.4h900.3M193,111.6H809.5m-616.5,0H809.5M498.7,141.2V112m0,58.5V141.2m0,58.5V170.5m0,114.2v-85" class="g0_366"/>
<path d="M642.1,260.7h67.4" class="g1_366"/>
<path d="M720,260.7h18.3" class="g2_366"/>
<path d="M748.8,260.7h49.8" class="g3_366"/>
<path d="M498.7,314.9V284.7m0,103.2v-73" class="g0_366"/>
<path d="M581.7,374.1h32" class="g4_366"/>
<path d="M613.7,374.1H714.1" class="g5_366"/>
<path d="M714.1,374.1h84.5" class="g6_366"/>
<path d="M498.7,417.2V387.9m0,58.5V417.2m0,114.2v-85" class="g0_366"/>
<path d="M665.4,507.4h44.1" class="g1_366"/>
<path d="M720,507.4h18.3" class="g2_366"/>
<path d="M748.8,507.4h49.8" class="g3_366"/>
<path d="M498.7,561.6V531.4m0,103.2v-73" class="g0_366"/>
<path d="M581.7,620.8h32" class="g4_366"/>
<path d="M613.7,620.8H714.1" class="g5_366"/>
<path d="M714.1,620.8h84.5" class="g6_366"/>
<path d="M498.7,663.9V634.6m0,58.5V663.9m0,58.4V693.1M193,722.7H809.5m-616.5,0H809.5" class="g0_366"/>
</svg>