<?xml version="1.0" encoding="UTF-8" standalone="no"?>
<!DOCTYPE svg PUBLIC "-//W3C//DTD SVG 1.1//EN"
"http://www.w3.org/Graphics/SVG/1.1/DTD/svg11.dtd">
<svg viewBox="0 0 909 1286" version="1.1" xmlns="http://www.w3.org/2000/svg" xmlns:xlink="http://www.w3.org/1999/xlink">
<defs>
<style type="text/css"><![CDATA[
.g0_57{
fill: none;
stroke: #000000;
stroke-width: 0.73;
stroke-linecap: butt;
stroke-linejoin: miter;
}
.g1_57{
fill: #7F7F7F;
fill-opacity: 0.01;
}
.g2_57{
fill: #7F7F7F;
fill-opacity: 0.02;
}
.g3_57{
fill: #7F7F7F;
fill-opacity: 0.04;
}
.g4_57{
fill: #7F7F7F;
fill-opacity: 0.07;
}
.g5_57{
fill: #7F7F7F;
fill-opacity: 0.11;
}
.g6_57{
fill: #FFFFFF;
}
.g7_57{
fill: #CBCEFB;
}
.g8_57{
fill: #E81A58;
}
.g9_57{
fill: #401A1A;
}
]]></style>
</defs>
<path d="M116.9,159.9H792.5" class="g0_57"/>
<path d="M122.2,184.8c221.7,0,443.4,0,665,0V376.7c-221.6,-9.4,-443.3,-9.4,-665,0Z" class="g1_57"/>
<path d="M122.9,185.4c221.2,0,442.4,0,663.7,0V376.1c-221.3,-9.4,-442.5,-9.4,-663.7,0Z" class="g2_57"/>
<path d="M123.5,186.1c220.8,0,441.6,0,662.5,0V375.4c-220.9,-9.3,-441.7,-9.3,-662.5,0Z" class="g3_57"/>
<path d="M124.1,186.7c220.4,0,440.8,0,661.2,0V374.8c-220.4,-9.3,-440.8,-9.3,-661.2,0Z" class="g4_57"/>
<path d="M124.7,187.3c220,0,440,0,660,0V374.2c-220,-9.4,-440,-9.4,-660,0Z" class="g5_57"/>
<path d="M125.4,187.9c219.5,0,439.1,0,658.7,0V373.6c-219.6,-9.4,-439.2,-9.4,-658.7,0Z" class="g5_57"/>
<path d="M126,188.6c219.1,0,438.3,0,657.5,0V373C564.3,363.6,345.1,363.6,126,373Z" class="g4_57"/>
<path d="M126.6,189.2c218.8,0,437.5,0,656.3,0V372.3C564.1,363,345.4,363,126.6,372.3Z" class="g3_57"/>
<path d="M127.2,189.8c218.4,0,436.7,0,655,0V371.7c-218.3,-9.3,-436.6,-9.3,-655,0Z" class="g2_57"/>
<path d="M127.9,190.4c217.9,0,435.8,0,653.7,0V371.1c-217.9,-9.4,-435.8,-9.4,-653.7,0Z" class="g1_57"/>
<path d="M116.9,366.4V179.5H792.5V366.4Z" class="g6_57"/>
<path d="M119.5,363.8V182.1H789.9V363.8Z" class="g6_57"/>
<path d="M273.9,198.1H635.5M274.3,227.7V198.4" class="g0_57"/>
<path d="M274.7,227.7h89.5V198.4H274.7v29.3Z" class="g7_57"/>
<path d="M364.5,227.7V198.4" class="g0_57"/>
<path d="M364.9,227.7h55.7V198.4H364.9v29.3Z" class="g7_57"/>
<path d="M420.9,227.7V198.4" class="g0_57"/>
<path d="M421.3,227.7H527.7V198.4H421.3v29.3Z" class="g7_57"/>
<path d="M528,227.7V198.4" class="g0_57"/>
<path d="M528.4,227.7H634.8V198.4H528.4v29.3Z" class="g7_57"/>
<path d="M635.1,227.7V198.4M273.9,228H635.5M274.3,257.6V228.4m90.2,29.2V228.4m56.4,29.2V228.4M528,257.6V228.4m107.1,29.2V228.4M273.9,258H635.5M274.3,287.6V258.4m90.2,29.2V258.4m56.4,29.2V258.4M528,287.6V258.4m107.1,29.2V258.4M273.9,287.9H635.5M274.3,317.5V288.3m90.2,29.2V288.3m56.4,29.2V288.3M528,317.5V288.3m107.1,29.2V288.3M273.9,317.9H635.5M274.3,347.5V318.3m90.2,29.2V318.3m56.4,29.2V318.3M528,347.5V318.3m107.1,29.2V318.3M273.9,347.9H635.5" class="g0_57"/>
<path d="M116.9,1134V522.4c0,-21.6,17.6,-39.1,39.2,-39.1H792.5V1134Z" class="g8_57"/>
<path d="M119.5,1134V545H789.9v589Z" class="g9_57"/>
</svg>