<?xml version="1.0" encoding="UTF-8" standalone="no"?>
<!DOCTYPE svg PUBLIC "-//W3C//DTD SVG 1.1//EN"
"http://www.w3.org/Graphics/SVG/1.1/DTD/svg11.dtd">
<svg viewBox="0 0 1286 909" version="1.1" xmlns="http://www.w3.org/2000/svg" xmlns:xlink="http://www.w3.org/1999/xlink">
<defs>
<style type="text/css"><![CDATA[
.g0_837{
fill: none;
stroke: #000000;
stroke-width: 0.73;
stroke-linecap: butt;
stroke-linejoin: miter;
}
.g1_837{
fill: none;
stroke: #02B5EE;
stroke-width: 1.262;
stroke-linecap: butt;
stroke-linejoin: miter;
}
.g2_837{
fill: none;
stroke: #5EE200;
stroke-width: 1.262;
stroke-linecap: butt;
stroke-linejoin: miter;
}
.g3_837{
fill: none;
stroke: #5EE200;
stroke-width: 0.73;
stroke-linecap: butt;
stroke-linejoin: miter;
}
.g4_837{
fill: none;
stroke: #02B5EE;
stroke-width: 0.73;
stroke-linecap: butt;
stroke-linejoin: miter;
}
]]></style>
</defs>
<path d="M193,83.4h900.3M193,210.6H691.8m-498.8,0H691.8M382.7,240.2V211m0,58.5V240.2m0,114.3v-85" class="g0_837"/>
<path d="M422.9,330.5H574.1" class="g1_837"/>
<path d="M584.7,330.5h96.1" class="g2_837"/>
<path d="M382.7,383.7V354.5m0,102.3V383.7" class="g0_837"/>
<path d="M393.7,442.9h50.6" class="g3_837"/>
<path d="M444.3,442.9H680.8" class="g4_837"/>
<path d="M382.7,486V456.8m0,58.4V486m0,114.2v-85" class="g0_837"/>
<path d="M512.5,576.2h61.6" class="g1_837"/>
<path d="M584.7,576.2h96.1" class="g2_837"/>
<path d="M382.7,629.5V600.2m0,102.3v-73" class="g0_837"/>
<path d="M596.3,688.6H647" class="g3_837"/>
<path d="M647,688.6h33.8" class="g4_837"/>
<path d="M382.7,731.7V702.5M193,732.1H691.8m-498.8,0H691.8" class="g0_837"/>
</svg>