<?xml version="1.0" encoding="UTF-8" standalone="no"?>
<!DOCTYPE svg PUBLIC "-//W3C//DTD SVG 1.1//EN"
"http://www.w3.org/Graphics/SVG/1.1/DTD/svg11.dtd">
<svg viewBox="0 0 1286 909" version="1.1" xmlns="http://www.w3.org/2000/svg" xmlns:xlink="http://www.w3.org/1999/xlink">
<defs>
<style type="text/css"><![CDATA[
.g0_56{
fill: none;
stroke: #000000;
stroke-width: 0.73;
stroke-linecap: butt;
stroke-linejoin: miter;
}
.g1_56{
fill: none;
stroke: #5EE200;
stroke-width: 0.73;
stroke-linecap: butt;
stroke-linejoin: miter;
}
.g2_56{
fill: none;
stroke: #02B5EE;
stroke-width: 0.73;
stroke-linecap: butt;
stroke-linejoin: miter;
}
.g3_56{
fill: #B3E9FA;
}
.g4_56{
fill: none;
stroke: #02B5EE;
stroke-width: 1.262;
stroke-linecap: butt;
stroke-linejoin: miter;
}
.g5_56{
fill: none;
stroke: #5EE200;
stroke-width: 1.262;
stroke-linecap: butt;
stroke-linejoin: miter;
}
]]></style>
</defs>
<path d="M193,83.4h900.3M193,111.6H761.3m-568.3,0H761.3m-258,29.6V112m0,103.7V141.2" class="g0_56"/>
<path d="M568.6,200.4H603m6.1,0H710.4" class="g1_56"/>
<path d="M716.5,200.4h33.8" class="g2_56"/>
<path d="M503.3,245V215.7m0,58.5V245m0,114.2v-85" class="g0_56"/>
<path d="M547.4,309.4V297.2c0,-2.8,2.3,-5.2,5.2,-5.2h74.6c2.9,0,5.2,2.4,5.2,5.2v12.2c0,2.9,-2.3,5.2,-5.2,5.2H552.6c-2.9,0,-5.2,-2.3,-5.2,-5.2Z" class="g3_56"/>
<path d="M544.8,335.2H635" class="g4_56"/>
<path d="M645.6,335.2H750.3" class="g5_56"/>
<path d="M503.3,388.4V359.2M193,388.8H761.3m-568.3,0H761.3" class="g0_56"/>
</svg>