<?xml version="1.0" encoding="UTF-8" standalone="no"?>
<!DOCTYPE svg PUBLIC "-//W3C//DTD SVG 1.1//EN"
"http://www.w3.org/Graphics/SVG/1.1/DTD/svg11.dtd">
<svg viewBox="0 0 1286 909" version="1.1" xmlns="http://www.w3.org/2000/svg" xmlns:xlink="http://www.w3.org/1999/xlink">
<defs>
<style type="text/css"><![CDATA[
.g0_679{
fill: none;
stroke: #000000;
stroke-width: 0.73;
stroke-linecap: butt;
stroke-linejoin: miter;
}
.g1_679{
fill: #B3E9FA;
}
.g2_679{
fill: none;
stroke: #02B5EE;
stroke-width: 1.262;
stroke-linecap: butt;
stroke-linejoin: miter;
}
.g3_679{
fill: none;
stroke: #5EE200;
stroke-width: 1.262;
stroke-linecap: butt;
stroke-linejoin: miter;
}
]]></style>
</defs>
<path d="M193,83.4h900.3M193,210.6H859.8m-666.8,0H859.8M552.1,240.2V211m0,58.5V240.2m0,114.3v-85" class="g0_679"/>
<path d="M597.6,304.7V292.5c0,-2.9,2.3,-5.2,5.2,-5.2h94.3c2.8,0,5.2,2.3,5.2,5.2v12.2c0,2.9,-2.4,5.2,-5.2,5.2H602.8c-2.9,0,-5.2,-2.3,-5.2,-5.2Z" class="g1_679"/>
<path d="M595,330.5H704.9" class="g2_679"/>
<path d="M715.4,330.5H848.9" class="g3_679"/>
<path d="M552.1,383.7V354.5m0,58.4V383.7m0,114.3V412.9" class="g0_679"/>
<path d="M565.7,448.2V436c0,-2.9,2.3,-5.2,5.2,-5.2h95.3c2.9,0,5.2,2.3,5.2,5.2v12.2c0,2.8,-2.3,5.2,-5.2,5.2H570.9c-2.9,0,-5.2,-2.4,-5.2,-5.2Z" class="g1_679"/>
<path d="M563.1,474H674" class="g2_679"/>
<path d="M684.5,474H848.9" class="g3_679"/>
<path d="M552.1,527.2V498m0,58.4V527.2m0,114.2v-85" class="g0_679"/>
<path d="M565.7,591.6V579.4c0,-2.8,2.3,-5.2,5.2,-5.2h95.3c2.9,0,5.2,2.4,5.2,5.2v12.2c0,2.9,-2.3,5.2,-5.2,5.2H570.9c-2.9,0,-5.2,-2.3,-5.2,-5.2Z" class="g1_679"/>
<path d="M563.1,617.4H674" class="g2_679"/>
<path d="M684.5,617.4H848.9" class="g3_679"/>
<path d="M552.1,670.6V641.4M193,671H859.8M193,671H859.8" class="g0_679"/>
</svg>