<?xml version="1.0" encoding="UTF-8" standalone="no"?>
<!DOCTYPE svg PUBLIC "-//W3C//DTD SVG 1.1//EN"
"http://www.w3.org/Graphics/SVG/1.1/DTD/svg11.dtd">
<svg viewBox="0 0 1286 909" version="1.1" xmlns="http://www.w3.org/2000/svg" xmlns:xlink="http://www.w3.org/1999/xlink">
<defs>
<style type="text/css"><![CDATA[
.g0_1196{
fill: none;
stroke: #000000;
stroke-width: 0.73;
stroke-linecap: butt;
stroke-linejoin: miter;
}
.g1_1196{
fill: #FDE8E9;
}
]]></style>
</defs>
<path d="M193,83.4h900.3M203.9,111.8H713.1M203.9,141.3V112.1m325.9,29.2V112.1m183.3,29.2V112.1M203.9,174V141.3M529.8,174V141.3" class="g0_1196"/>
<path d="M540.8,170.7h82.5V141.3H540.8v29.4Z" class="g1_1196"/>
<path d="M713.1,174V141.3M203.9,203.2V174m325.9,29.2V174m183.3,29.2V174M203.9,232.4V203.2m325.9,29.2V203.2m183.3,29.2V203.2M203.9,265.1V232.4m325.9,32.7V232.4" class="g0_1196"/>
<path d="M540.8,261.8H651.2V232.4H540.8v29.4Z" class="g1_1196"/>
<path d="M713.1,265.1V232.4M203.9,294.3V265.1m325.9,29.2V265.1m183.3,29.2V265.1M203.9,323.5V294.3m325.9,29.2V294.3m183.3,29.2V294.3M203.9,358.1V323.5m325.9,34.6V323.5" class="g0_1196"/>
<path d="M540.8,358.1H651.7V323.5H540.8v34.6Z" class="g1_1196"/>
<path d="M713.1,358.1V323.5M203.9,387.4V358.1m325.9,29.3V358.1m183.3,29.3V358.1M203.9,416.6V387.4m325.9,29.2V387.4m183.3,29.2V387.4M203.9,451.2V416.6m325.9,34.6V416.6" class="g0_1196"/>
<path d="M540.8,451.2H693.2V416.6H540.8v34.6Z" class="g1_1196"/>
<path d="M713.1,451.2V416.6M203.9,480.4V451.2m325.9,29.2V451.2m183.3,29.2V451.2M203.9,509.7V480.4m325.9,29.3V480.4m183.3,29.3V480.4M203.9,541.8V509.7m325.9,32.1V509.7" class="g0_1196"/>
<path d="M540.8,541.8H691.5V513.2H540.8v28.6Z" class="g1_1196"/>
<path d="M713.1,541.8V509.7M203.9,571V541.8M529.8,571V541.8M713.1,571V541.8M203.9,600.2V571m325.9,29.2V571m183.3,29.2V571M203.9,632.9V600.2m325.9,32.7V600.2" class="g0_1196"/>
<path d="M540.8,629.6H702.1V600.2H540.8v29.4Z" class="g1_1196"/>
<path d="M713.1,632.9V600.2M203.9,662.1V632.9m325.9,29.2V632.9m183.3,29.2V632.9M203.9,691.3V662.1m325.9,29.2V662.1m183.3,29.2V662.1M203.9,724V691.3M529.8,724V691.3" class="g0_1196"/>
<path d="M540.8,720.7h62.7V691.3H540.8v29.4Z" class="g1_1196"/>
<path d="M713.1,724V691.3M203.9,753.2V724m325.9,29.2V724m183.3,29.2V724M203.9,753.6H713.1M735,109.5h315.2M735,139.1V109.9m180,29.2V109.9m135.2,29.2V109.9M735,171.8V139.1m180,32.7V139.1" class="g0_1196"/>
<path d="M926,168.5h67.9V139.1H926v29.4Z" class="g1_1196"/>
<path d="M1050.2,171.8V139.1M735,201V171.8M915,201V171.8M1050.2,201V171.8M735,230.2V201m180,29.2V201m135.2,29.2V201M735,264.8V230.2m180,34.6V230.2" class="g0_1196"/>
<path d="M926,264.8h113.2V230.2H926v34.6Z" class="g1_1196"/>
<path d="M1050.2,264.8V230.2M735,294V264.8M915,294V264.8M1050.2,294V264.8M735,323.3V294m180,29.3V294m135.2,29.3V294M735,355.9V323.3m180,32.6V323.3" class="g0_1196"/>
<path d="M926,352.6h57.6V323.3H926v29.3Z" class="g1_1196"/>
<path d="M1050.2,355.9V323.3M735,385.1V355.9m180,29.2V355.9m135.2,29.2V355.9M735,414.4V385.1m180,29.3V385.1m135.2,29.3V385.1M735,449V414.4M915,449V414.4" class="g0_1196"/>
<path d="M926,449h105V414.4H926V449Z" class="g1_1196"/>
<path d="M1050.2,449V414.4M735,478.2V449m180,29.2V449m135.2,29.2V449M735,507.4V478.2m180,29.2V478.2m135.2,29.2V478.2M735,540.1V507.4m180,32.7V507.4" class="g0_1196"/>
<path d="M926,536.8h110.1V507.4H926v29.4Z" class="g1_1196"/>
<path d="M1050.2,540.1V507.4M735,569.3V540.1m180,29.2V540.1m135.2,29.2V540.1M735,598.5V569.3m180,29.2V569.3m135.2,29.2V569.3M735,633.1V598.5m180,34.6V598.5" class="g0_1196"/>
<path d="M926,633.1h96V598.5H926v34.6Z" class="g1_1196"/>
<path d="M1050.2,633.1V598.5M735,662.4V633.1m180,29.3V633.1m135.2,29.3V633.1M735,691.6V662.4m180,29.2V662.4m135.2,29.2V662.4M735,726.2V691.6m180,34.6V691.6" class="g0_1196"/>
<path d="M926,726.2h104.9V691.6H926v34.6Z" class="g1_1196"/>
<path d="M1050.2,726.2V691.6M735,755.4V726.2m180,29.2V726.2m135.2,29.2V726.2M735,755.8h315.2" class="g0_1196"/>
</svg>