<?xml version="1.0" encoding="UTF-8" standalone="no"?>
<!DOCTYPE svg PUBLIC "-//W3C//DTD SVG 1.1//EN"
"http://www.w3.org/Graphics/SVG/1.1/DTD/svg11.dtd">
<svg viewBox="0 0 1286 909" version="1.1" xmlns="http://www.w3.org/2000/svg" xmlns:xlink="http://www.w3.org/1999/xlink">
<defs>
<style type="text/css"><![CDATA[
.g0_1221{
fill: none;
stroke: #000000;
stroke-width: 0.73;
stroke-linecap: butt;
stroke-linejoin: miter;
}
.g1_1221{
fill: #FDE8E9;
}
]]></style>
</defs>
<path d="M193,83.4h900.3M203.9,109.5H437.4M203.9,139.1V109.9m70.6,29.2V109.9m162.9,29.2V109.9M203.9,173.7V139.1m70.6,34.6V139.1" class="g0_1221"/>
<path d="M285.4,173.7h68.3V139.1H285.4v34.6Z" class="g1_1221"/>
<path d="M437.4,173.7V139.1M203.9,203V173.7M274.5,203V173.7M437.4,203V173.7M203.9,232.2V203m70.6,29.2V203m162.9,29.2V203M203.9,264.8V232.2m70.6,32.6V232.2" class="g0_1221"/>
<path d="M285.4,261.5h136V232.2h-136v29.3Z" class="g1_1221"/>
<path d="M437.4,264.8V232.2M203.9,294V264.8M274.5,294V264.8M437.4,294V264.8M203.9,323.3V294m70.6,29.3V294m162.9,29.3V294M203.9,357.9V323.3m70.6,34.6V323.3" class="g0_1221"/>
<path d="M285.4,357.9H426.5V323.3H285.4v34.6Z" class="g1_1221"/>
<path d="M437.4,357.9V323.3M203.9,387.1V357.9m70.6,29.2V357.9m162.9,29.2V357.9M203.9,416.3V387.1m70.6,29.2V387.1m162.9,29.2V387.1M203.9,448.5V416.3m70.6,32.2V416.3" class="g0_1221"/>
<path d="M285.4,448.5h92.5V419.9H285.4v28.6Z" class="g1_1221"/>
<path d="M437.4,448.5V416.3M203.9,477.7V448.5m70.6,29.2V448.5m162.9,29.2V448.5M203.9,506.9V477.7m70.6,29.2V477.7m162.9,29.2V477.7M203.9,539.6V506.9m70.6,32.7V506.9" class="g0_1221"/>
<path d="M285.4,536.3H425.2V506.9H285.4v29.4Z" class="g1_1221"/>
<path d="M437.4,539.6V506.9M203.9,568.8V539.6m70.6,29.2V539.6m162.9,29.2V539.6M203.9,598V568.8M274.5,598V568.8M437.4,598V568.8M203.9,630.7V598m70.6,32.7V598" class="g0_1221"/>
<path d="M285.4,627.4h73.9V598H285.4v29.4Z" class="g1_1221"/>
<path d="M437.4,630.7V598M203.9,659.9V630.7m70.6,29.2V630.7m162.9,29.2V630.7M203.9,689.1V659.9m70.6,29.2V659.9m162.9,29.2V659.9M203.9,721.8V689.1m70.6,32.7V689.1" class="g0_1221"/>
<path d="M285.4,718.5H419.8V689.1H285.4v29.4Z" class="g1_1221"/>
<path d="M437.4,721.8V689.1M203.9,751V721.8M274.5,751V721.8M437.4,751V721.8M203.9,751.3H437.4m22,-640.5H698.9M459.4,140.4V111.1m70.5,29.3V111.1m169,29.3V111.1M459.4,172.5V140.4m70.5,32.1V140.4" class="g0_1221"/>
<path d="M540.9,172.5h65.8V143.9H540.9v28.6Z" class="g1_1221"/>
<path d="M698.9,172.5V140.4M459.4,201.7V172.5m70.5,29.2V172.5m169,29.2V172.5M459.4,230.9V201.7m70.5,29.2V201.7m169,29.2V201.7M459.4,263.1V230.9m70.5,32.2V230.9" class="g0_1221"/>
<path d="M540.9,263.1H644.5V234.5H540.9v28.6Z" class="g1_1221"/>
<path d="M698.9,263.1V230.9M459.4,292.3V263.1m70.5,29.2V263.1m169,29.2V263.1M459.4,321.5V292.3m70.5,29.2V292.3m169,29.2V292.3M459.4,354.2V321.5m70.5,32.7V321.5" class="g0_1221"/>
<path d="M540.9,350.9h86.9V321.5H540.9v29.4Z" class="g1_1221"/>
<path d="M698.9,354.2V321.5M459.4,383.4V354.2m70.5,29.2V354.2m169,29.2V354.2M459.4,412.6V383.4m70.5,29.2V383.4m169,29.2V383.4M459.4,447.2V412.6m70.5,34.6V412.6" class="g0_1221"/>
<path d="M540.9,447.2H688V412.6H540.9v34.6Z" class="g1_1221"/>
<path d="M698.9,447.2V412.6M459.4,476.5V447.2m70.5,29.3V447.2m169,29.3V447.2M459.4,505.7V476.5m70.5,29.2V476.5m169,29.2V476.5M459.4,538.3V505.7m70.5,32.6V505.7" class="g0_1221"/>
<path d="M540.9,535h95.4V505.7H540.9V535Z" class="g1_1221"/>
<path d="M698.9,538.3V505.7M459.4,567.6V538.3m70.5,29.3V538.3m169,29.3V538.3M459.4,596.8V567.6m70.5,29.2V567.6m169,29.2V567.6M459.4,629.4V596.8m70.5,32.6V596.8" class="g0_1221"/>
<path d="M540.9,626.1h87.5V596.8H540.9v29.3Z" class="g1_1221"/>
<path d="M698.9,629.4V596.8M459.4,658.6V629.4m70.5,29.2V629.4m169,29.2V629.4M459.4,687.9V658.6m70.5,29.3V658.6m169,29.3V658.6M459.4,720.5V687.9m70.5,32.6V687.9" class="g0_1221"/>
<path d="M540.9,717.2H669.3V687.9H540.9v29.3Z" class="g1_1221"/>
<path d="M698.9,720.5V687.9M459.4,749.7V720.5m70.5,29.2V720.5m169,29.2V720.5M459.4,750.1H698.9M720.8,110.3H959.6M720.8,139.9V110.6m70.6,29.3V110.6m168.2,29.3V110.6M720.8,172.5V139.9m70.6,32.6V139.9" class="g0_1221"/>
<path d="M802.4,169.2H916.1V139.9H802.4v29.3Z" class="g1_1221"/>
<path d="M959.6,172.5V139.9M720.8,201.7V172.5m70.6,29.2V172.5m168.2,29.2V172.5M720.8,230.9V201.7m70.6,29.2V201.7m168.2,29.2V201.7M720.8,263.6V230.9m70.6,32.7V230.9" class="g0_1221"/>
<path d="M802.4,260.3h51.9V230.9H802.4v29.4Z" class="g1_1221"/>
<path d="M959.6,263.6V230.9M720.8,292.8V263.6m70.6,29.2V263.6m168.2,29.2V263.6M720.8,322V292.8M791.4,322V292.8M959.6,322V292.8M720.8,354.7V322m70.6,32.7V322" class="g0_1221"/>
<path d="M802.4,351.4h89V322h-89v29.4Z" class="g1_1221"/>
<path d="M959.6,354.7V322M720.8,383.9V354.7m70.6,29.2V354.7m168.2,29.2V354.7M720.8,413.1V383.9m70.6,29.2V383.9m168.2,29.2V383.9M720.8,445.8V413.1m70.6,32.7V413.1" class="g0_1221"/>
<path d="M802.4,442.5h110V413.1h-110v29.4Z" class="g1_1221"/>
<path d="M959.6,445.8V413.1M720.8,475V445.8M791.4,475V445.8M959.6,475V445.8M720.8,504.2V475m70.6,29.2V475m168.2,29.2V475M720.8,538.8V504.2m70.6,34.6V504.2" class="g0_1221"/>
<path d="M802.4,538.8H926.8V504.2H802.4v34.6Z" class="g1_1221"/>
<path d="M959.6,538.8V504.2M720.8,568.1V538.8m70.6,29.3V538.8m168.2,29.3V538.8M720.8,597.3V568.1m70.6,29.2V568.1m168.2,29.2V568.1M720.8,629.9V597.3m70.6,32.6V597.3" class="g0_1221"/>
<path d="M802.4,626.6H948.6V597.3H802.4v29.3Z" class="g1_1221"/>
<path d="M959.6,629.9V597.3M720.8,659.2V629.9m70.6,29.3V629.9m168.2,29.3V629.9M720.8,688.4V659.2m70.6,29.2V659.2m168.2,29.2V659.2M720.8,721V688.4M791.4,721V688.4" class="g0_1221"/>
<path d="M802.4,717.7H916.3V688.4H802.4v29.3Z" class="g1_1221"/>
<path d="M959.6,721V688.4M720.8,750.2V721m70.6,29.2V721m168.2,29.2V721M720.8,750.6H959.6" class="g0_1221"/>
</svg>