<?xml version="1.0" encoding="UTF-8" standalone="no"?>
<!DOCTYPE svg PUBLIC "-//W3C//DTD SVG 1.1//EN"
"http://www.w3.org/Graphics/SVG/1.1/DTD/svg11.dtd">
<svg viewBox="0 0 1286 909" version="1.1" xmlns="http://www.w3.org/2000/svg" xmlns:xlink="http://www.w3.org/1999/xlink">
<defs>
<style type="text/css"><![CDATA[
.g0_875{
fill: none;
stroke: #000000;
stroke-width: 0.73;
stroke-linecap: butt;
stroke-linejoin: miter;
}
.g1_875{
fill: #B3E9FA;
}
.g2_875{
fill: none;
stroke: #02B5EE;
stroke-width: 1.262;
stroke-linecap: butt;
stroke-linejoin: miter;
}
.g3_875{
fill: none;
stroke: #5EE200;
stroke-width: 1.262;
stroke-linecap: butt;
stroke-linejoin: miter;
}
]]></style>
</defs>
<path d="M193,83.4h900.3M193,210.6H935.7m-742.7,0H935.7M474.9,240.2V211m0,58.5V240.2m0,114.3v-85" class="g0_875"/>
<path d="M649.9,311V292.5c0,-2.9,2.4,-5.2,5.2,-5.2H762c2.8,0,5.1,2.3,5.1,5.2V311c0,2.9,-2.3,5.2,-5.1,5.2H655.1c-2.8,0,-5.2,-2.3,-5.2,-5.2Z" class="g1_875"/>
<path d="M647.3,330.5H769.7" class="g2_875"/>
<path d="M474.9,383.7V354.5m0,58.4V383.7m0,114.3V412.9" class="g0_875"/>
<path d="M693.6,448.2v-5c0,-2.9,2.4,-5.2,5.2,-5.2h70.9c2.9,0,5.2,2.3,5.2,5.2v5c0,2.8,-2.3,5.2,-5.2,5.2H698.8c-2.8,0,-5.2,-2.4,-5.2,-5.2Z" class="g1_875"/>
<path d="M691,474h86.5" class="g2_875"/>
<path d="M788,474H924.8" class="g3_875"/>
<path d="M474.9,527.2V498m0,58.4V527.2m0,59.4V556.4m0,59.4V586.6m0,58.4V615.8m0,114.2V645" class="g0_875"/>
<path d="M674.8,706.1h88.3" class="g2_875"/>
<path d="M773.6,706.1H924.8" class="g3_875"/>
<path d="M474.9,759.3V730M193,759.6H935.7m-742.7,0H935.7" class="g0_875"/>
</svg>