<?xml version="1.0" encoding="UTF-8" standalone="no"?>
<!DOCTYPE svg PUBLIC "-//W3C//DTD SVG 1.1//EN"
"http://www.w3.org/Graphics/SVG/1.1/DTD/svg11.dtd">
<svg viewBox="0 0 1286 909" version="1.1" xmlns="http://www.w3.org/2000/svg" xmlns:xlink="http://www.w3.org/1999/xlink">
<defs>
<style type="text/css"><![CDATA[
.g0_40{
fill: none;
stroke: #000000;
stroke-width: 0.73;
stroke-linecap: butt;
stroke-linejoin: miter;
}
.g1_40{
fill: none;
stroke: #02B5EE;
stroke-width: 1.262;
stroke-linecap: butt;
stroke-linejoin: miter;
}
.g2_40{
fill: #B3E9FA;
}
.g3_40{
fill: none;
stroke: #5EE200;
stroke-width: 1.262;
stroke-linecap: butt;
stroke-linejoin: miter;
}
]]></style>
</defs>
<path d="M193,83.4h900.3M193,210.6h911.6m-911.6,0h911.6M682.5,240.2V211m0,58.5V240.2m0,114.3v-85" class="g0_40"/>
<path d="M877.6,330.5h79.6" class="g1_40"/>
<path d="M682.5,383.7V354.5m0,58.4V383.7m0,114.3V412.9" class="g0_40"/>
<path d="M696.1,448.2V436c0,-2.9,2.3,-5.2,5.2,-5.2H820.4c2.9,0,5.2,2.3,5.2,5.2v12.2c0,2.8,-2.3,5.2,-5.2,5.2H701.3c-2.9,0,-5.2,-2.4,-5.2,-5.2Z" class="g2_40"/>
<path d="M693.5,474H828.2" class="g1_40"/>
<path d="M838.7,474h255" class="g3_40"/>
<path d="M682.5,527.2V498M193,527.5h911.6m-911.6,0h911.6" class="g0_40"/>
</svg>