<?xml version="1.0" encoding="UTF-8" standalone="no"?>
<!DOCTYPE svg PUBLIC "-//W3C//DTD SVG 1.1//EN"
"http://www.w3.org/Graphics/SVG/1.1/DTD/svg11.dtd">
<svg viewBox="0 0 1286 909" version="1.1" xmlns="http://www.w3.org/2000/svg" xmlns:xlink="http://www.w3.org/1999/xlink">
<defs>
<style type="text/css"><![CDATA[
.g0_358{
fill: none;
stroke: #000000;
stroke-width: 0.73;
stroke-linecap: butt;
stroke-linejoin: miter;
}
.g1_358{
fill: #B3E9FA;
}
.g2_358{
fill: none;
stroke: #02B5EE;
stroke-width: 1.262;
stroke-linecap: butt;
stroke-linejoin: miter;
}
.g3_358{
fill: none;
stroke: #5EE200;
stroke-width: 1.262;
stroke-linecap: butt;
stroke-linejoin: miter;
}
.g4_358{
fill: none;
stroke: #5EE200;
stroke-width: 0.73;
stroke-linecap: butt;
stroke-linejoin: miter;
}
.g5_358{
fill: none;
stroke: #02B5EE;
stroke-width: 0.73;
stroke-linecap: butt;
stroke-linejoin: miter;
}
.g6_358{
fill: #FFCCCC;
}
]]></style>
</defs>
<path d="M193,83.4h900.3M193,111.6h831.2m-831.2,0h831.2M560.8,141.2V112m0,58.5V141.2m0,114.3v-85" class="g0_358"/>
<path d="M750.6,205.7V193.5c0,-2.9,2.3,-5.2,5.2,-5.2h74.4c2.8,0,5.2,2.3,5.2,5.2v12.2c0,2.9,-2.4,5.2,-5.2,5.2H755.8c-2.9,0,-5.2,-2.3,-5.2,-5.2Z" class="g1_358"/>
<path d="M748,231.5h89.9" class="g2_358"/>
<path d="M848.5,231.5h164.7" class="g3_358"/>
<path d="M560.8,284.7V255.5m0,58.4V284.7m0,114.3V313.9" class="g0_358"/>
<path d="M782.1,375H980.3" class="g2_358"/>
<path d="M990.8,375h22.4" class="g3_358"/>
<path d="M560.8,428.2V399m0,102.2v-73" class="g0_358"/>
<path d="M820.7,487.4h34.5" class="g4_358"/>
<path d="M861.2,487.4h152" class="g5_358"/>
<path d="M560.8,530.5V501.2m0,58.5V530.5m0,114.2v-85" class="g0_358"/>
<path d="M571.7,620.7h59.5" class="g2_358"/>
<path d="M652.2,609h361V576.1h-361V609Z" class="g6_358"/>
<path d="M560.8,674.9V644.7m0,59.4V674.9M193,704.5h831.2m-831.2,0h831.2" class="g0_358"/>
</svg>