<?xml version="1.0" encoding="UTF-8" standalone="no"?>
<!DOCTYPE svg PUBLIC "-//W3C//DTD SVG 1.1//EN"
"http://www.w3.org/Graphics/SVG/1.1/DTD/svg11.dtd">
<svg viewBox="0 0 1286 909" version="1.1" xmlns="http://www.w3.org/2000/svg" xmlns:xlink="http://www.w3.org/1999/xlink">
<defs>
<style type="text/css"><![CDATA[
.g0_1069{
fill: none;
stroke: #000000;
stroke-width: 0.73;
stroke-linecap: butt;
stroke-linejoin: miter;
}
.g1_1069{
fill: #FFCCCC;
}
.g2_1069{
fill: none;
stroke: #5EE200;
stroke-width: 1.461;
stroke-linecap: butt;
stroke-linejoin: miter;
stroke-dasharray: 2,2;
}
.g3_1069{
fill: #AEF080;
}
]]></style>
</defs>
<path d="M193,497.4H849.5m-656.5,0H849.5M550.6,527V497.8m0,58.4V527m0,62.7V556.2" class="g0_1069"/>
<path d="M636.6,589.1h56.8V556.2H636.6v32.9Z" class="g1_1069"/>
<path d="M707.6,589h49.8" class="g2_1069"/>
<path d="M771.5,589.1h67.1V556.2H771.5v32.9Z" class="g3_1069"/>
<path d="M550.6,619.9V589.7m0,63.1V619.9" class="g0_1069"/>
<path d="M613.7,648.4h48.9" class="g2_1069"/>
<path d="M666.2,652.8H711V619.9H666.2v32.9Z" class="g3_1069"/>
<path d="M717.1,652.8h99.1V619.9H717.1v32.9Z" class="g1_1069"/>
<path d="M819.8,648.4h15.1" class="g2_1069"/>
<path d="M550.6,682V652.8m0,58.4V682m0,58.5V711.2M193,740.8H849.5m-656.5,0H849.5" class="g0_1069"/>
</svg>