<?xml version="1.0" encoding="UTF-8" standalone="no"?>
<!DOCTYPE svg PUBLIC "-//W3C//DTD SVG 1.1//EN"
"http://www.w3.org/Graphics/SVG/1.1/DTD/svg11.dtd">
<svg viewBox="0 0 909 1286" version="1.1" xmlns="http://www.w3.org/2000/svg" xmlns:xlink="http://www.w3.org/1999/xlink">
<defs>
<clipPath id="c0_132"><path d="M119.5,282.8V249.3H789.9v33.5Z"/></clipPath>
<clipPath id="c1_132"><path d="M119.5,519.7V486.2H789.9v33.5Z"/></clipPath>
<clipPath id="c2_132"><path d="M119.5,756.6V723H789.9v33.6Z"/></clipPath>
<style type="text/css"><![CDATA[
.g0_132{
fill: none;
stroke: #000000;
stroke-width: 0.73;
stroke-linecap: butt;
stroke-linejoin: miter;
}
.g1_132{
fill: #7F7F7F;
fill-opacity: 0.01;
}
.g2_132{
fill: #7F7F7F;
fill-opacity: 0.02;
}
.g3_132{
fill: #7F7F7F;
fill-opacity: 0.04;
}
.g4_132{
fill: #7F7F7F;
fill-opacity: 0.07;
}
.g5_132{
fill: #7F7F7F;
fill-opacity: 0.11;
}
.g6_132{
fill: #FFFFFF;
}
.g7_132{
fill: #7F7F7F;
}
.g8_132{
fill: #00AEEF;
}
.g9_132{
fill: #CBCEFB;
}
.ga_132{
fill: #EC008C;
}
.gb_132{
fill: #FFFEF5;
}
.gc_132{
fill: none;
stroke: #D6C944;
stroke-width: 0.365;
stroke-linecap: butt;
stroke-linejoin: miter;
}
]]></style>
</defs>
<path d="M116.9,159.9H792.5" class="g0_132"/>
<path d="M122.2,252c221.7,0,443.4,0,665,0V479.2c-221.6,-9.3,-443.3,-9.3,-665,0Z" class="g1_132"/>
<path d="M122.9,252.6c221.2,0,442.4,0,663.7,0v226c-221.3,-9.3,-442.5,-9.3,-663.7,0Z" class="g2_132"/>
<path d="M123.5,253.2c220.8,0,441.6,0,662.5,0V478c-220.9,-9.4,-441.7,-9.4,-662.5,0Z" class="g3_132"/>
<path d="M124.1,253.8c220.4,0,440.8,0,661.2,0V477.4C564.9,468,344.5,468,124.1,477.4Z" class="g4_132"/>
<path d="M124.7,254.5c220,0,440,0,660,0V476.7c-220,-9.3,-440,-9.3,-660,0Z" class="g5_132"/>
<path d="M125.4,255.1c219.5,0,439.1,0,658.7,0v221c-219.6,-9.3,-439.2,-9.3,-658.7,0Z" class="g5_132"/>
<path d="M126,255.7c219.1,0,438.3,0,657.5,0V475.5c-219.2,-9.4,-438.4,-9.4,-657.5,0Z" class="g4_132"/>
<path d="M126.6,256.3c218.8,0,437.5,0,656.3,0V474.9c-218.8,-9.4,-437.5,-9.4,-656.3,0Z" class="g3_132"/>
<path d="M127.2,257c218.4,0,436.7,0,655,0V474.2c-218.3,-9.3,-436.6,-9.3,-655,0Z" class="g2_132"/>
<path d="M127.9,257.6c217.9,0,435.8,0,653.7,0v216c-217.9,-9.3,-435.8,-9.3,-653.7,0Z" class="g1_132"/>
<path d="M116.9,468.9V246.7H792.5V468.9Z" class="g6_132"/>
<path d="M119.5,466.3V285.4H789.9V466.3Z" class="g6_132"/>
<path d="M119.5,282.8V249.3H789.9v33.5Z" class="g7_132"/>
<g clip-path="url(#c0_132)">
<image x="119" y="248" width="672" height="35" xlink:href="shade/1.png"/>
</g>
<path d="M659.9,277.6h104V254.5h-104v23.1Z" class="g8_132"/>
<path d="M260.5,330.6H649M260.8,360.2V330.9" class="g0_132"/>
<path d="M261.2,360.2h89V330.9h-89v29.3Z" class="g9_132"/>
<path d="M350.6,360.2V330.9" class="g0_132"/>
<path d="M351,360.2h98.6V330.9H351v29.3Z" class="g9_132"/>
<path d="M449.9,360.2V330.9" class="g0_132"/>
<path d="M450.3,360.2h98.6V330.9H450.3v29.3Z" class="g9_132"/>
<path d="M549.3,360.2V330.9" class="g0_132"/>
<path d="M549.6,360.2h98.6V330.9H549.6v29.3Z" class="g9_132"/>
<path d="M648.6,360.2V330.9M260.5,360.5H649M260.8,390.1V360.9m89.8,29.2V360.9m99.3,29.2V360.9m99.4,29.2V360.9m99.3,29.2V360.9M260.5,390.5H649M260.8,420.1V390.8m89.8,29.3V390.8m99.3,29.3V390.8m99.4,29.3V390.8m99.3,29.3V390.8M260.5,420.4H649M260.8,450V420.8M350.6,450V420.8M449.9,450V420.8M549.3,450V420.8M648.6,450V420.8M260.5,450.4H649" class="g0_132"/>
<path d="M122.2,488.9c221.7,0,443.4,0,665,0V716.1c-221.6,-9.3,-443.3,-9.3,-665,0Z" class="g1_132"/>
<path d="M122.9,489.5c221.2,0,442.4,0,663.7,0v226c-221.3,-9.4,-442.5,-9.4,-663.7,0Z" class="g2_132"/>
<path d="M123.5,490.1c220.8,0,441.6,0,662.5,0V714.9c-220.9,-9.4,-441.7,-9.4,-662.5,0Z" class="g3_132"/>
<path d="M124.1,490.7c220.4,0,440.8,0,661.2,0V714.3c-220.4,-9.4,-440.8,-9.4,-661.2,0Z" class="g4_132"/>
<path d="M124.7,491.4c220,0,440,0,660,0V713.6c-220,-9.3,-440,-9.3,-660,0Z" class="g5_132"/>
<path d="M125.4,492c219.5,0,439.1,0,658.7,0V713c-219.6,-9.3,-439.2,-9.3,-658.7,0Z" class="g5_132"/>
<path d="M126,492.6c219.1,0,438.3,0,657.5,0V712.4C564.3,703,345.1,703,126,712.4Z" class="g4_132"/>
<path d="M126.6,493.2c218.8,0,437.5,0,656.3,0V711.8c-218.8,-9.4,-437.5,-9.4,-656.3,0Z" class="g3_132"/>
<path d="M127.2,493.8c218.4,0,436.7,0,655,0V711.1c-218.3,-9.3,-436.6,-9.3,-655,0Z" class="g2_132"/>
<path d="M127.9,494.5c217.9,0,435.8,0,653.7,0v216c-217.9,-9.3,-435.8,-9.3,-653.7,0Z" class="g1_132"/>
<path d="M116.9,705.8V483.6H792.5V705.8Z" class="g6_132"/>
<path d="M119.5,703.2V522.3H789.9V703.2Z" class="g6_132"/>
<path d="M119.5,519.7V486.2H789.9v33.5Z" class="g7_132"/>
<g clip-path="url(#c1_132)">
<image x="119" y="485" width="672" height="34" xlink:href="shade/2.png"/>
</g>
<path d="M659.9,514.5h104V491.3h-104v23.2Z" class="g8_132"/>
<path d="M260.5,567.5H649M260.8,597.1V567.8" class="g0_132"/>
<path d="M261.2,597.1h89V567.8h-89v29.3Z" class="g9_132"/>
<path d="M350.6,597.1V567.8" class="g0_132"/>
<path d="M351,597.1h98.6V567.8H351v29.3Z" class="g9_132"/>
<path d="M449.9,597.1V567.8" class="g0_132"/>
<path d="M450.3,597.1h98.6V567.8H450.3v29.3Z" class="g9_132"/>
<path d="M549.3,597.1V567.8" class="g0_132"/>
<path d="M549.6,597.1h98.6V567.8H549.6v29.3Z" class="g9_132"/>
<path d="M648.6,597.1V567.8M260.5,597.4H649M260.8,627V597.8M350.6,627V597.8M449.9,627V597.8M549.3,627V597.8M648.6,627V597.8M260.5,627.4H649M260.8,657V627.7M350.6,657V627.7M449.9,657V627.7M549.3,657V627.7M648.6,657V627.7M260.5,657.3H649M260.8,686.9V657.7m89.8,29.2V657.7m99.3,29.2V657.7m99.4,29.2V657.7m99.3,29.2V657.7M260.5,687.3H649" class="g0_132"/>
<path d="M122.2,725.7c221.7,0,443.4,0,665,0V863.9c-221.6,-9.4,-443.3,-9.4,-665,0Z" class="g1_132"/>
<path d="M122.9,726.4c221.2,0,442.4,0,663.7,0V863.3c-221.3,-9.4,-442.5,-9.4,-663.7,0Z" class="g2_132"/>
<path d="M123.5,727c220.8,0,441.6,0,662.5,0V862.6c-220.9,-9.3,-441.7,-9.3,-662.5,0Z" class="g3_132"/>
<path d="M124.1,727.6c220.4,0,440.8,0,661.2,0V862c-220.4,-9.3,-440.8,-9.3,-661.2,0Z" class="g4_132"/>
<path d="M124.7,728.2c220,0,440,0,660,0V861.4c-220,-9.4,-440,-9.4,-660,0Z" class="g5_132"/>
<path d="M125.4,728.9c219.5,0,439.1,0,658.7,0V860.8c-219.6,-9.4,-439.2,-9.4,-658.7,0Z" class="g5_132"/>
<path d="M126,729.5c219.1,0,438.3,0,657.5,0V860.1c-219.2,-9.3,-438.4,-9.3,-657.5,0Z" class="g4_132"/>
<path d="M126.6,730.1c218.8,0,437.5,0,656.3,0V859.5c-218.8,-9.3,-437.5,-9.3,-656.3,0Z" class="g3_132"/>
<path d="M127.2,730.7c218.4,0,436.7,0,655,0V858.9c-218.3,-9.4,-436.6,-9.4,-655,0Z" class="g2_132"/>
<path d="M127.9,731.4c217.9,0,435.8,0,653.7,0V858.3c-217.9,-9.4,-435.8,-9.4,-653.7,0Z" class="g1_132"/>
<path d="M116.9,853.6V720.4H792.5V853.6Z" class="g6_132"/>
<path d="M119.5,851V759.2H789.9V851Z" class="g6_132"/>
<path d="M119.5,756.6V723H789.9v33.6Z" class="g7_132"/>
<g clip-path="url(#c2_132)">
<image x="119" y="722" width="672" height="34" xlink:href="shade/3.png"/>
</g>
<path d="M675.7,751.4h88.2V728.2H675.7v23.2Z" class="ga_132"/>
<path d="M409.7,775.1h90m-89.6,29.6V775.5" class="g0_132"/>
<path d="M410.4,804.7H499V775.5H410.4v29.2Z" class="g9_132"/>
<path d="M499.4,804.7V775.5m-89.7,29.6h90m-89.6,29.6V805.4m89.3,29.3V805.4M409.7,835h90" class="g0_132"/>
<path d="M-2.9,1081.6v-65.5H912.4v65.5Z" class="g6_132"/>
<path d="M-.3,1079v-60.3H909.8V1079Z" class="gb_132"/>
<path d="M-.3,1070.7H909.8M-.3,1044.7H909.8M-.3,1018.8H909.8M-.3,1079v-60.3M25.6,1079v-60.3m26,60.3v-60.3m26,60.3v-60.3m26,60.3v-60.3m26,60.3v-60.3m25.9,60.3v-60.3m26,60.3v-60.3m26,60.3v-60.3m26,60.3v-60.3m26,60.3v-60.3m26,60.3v-60.3m25.9,60.3v-60.3m26,60.3v-60.3m26,60.3v-60.3m26,60.3v-60.3m26,60.3v-60.3m26,60.3v-60.3m26,60.3v-60.3m25.9,60.3v-60.3m26,60.3v-60.3m26,60.3v-60.3m26,60.3v-60.3m26,60.3v-60.3m26,60.3v-60.3m25.9,60.3v-60.3m26,60.3v-60.3m26,60.3v-60.3m26,60.3v-60.3m26,60.3v-60.3m26,60.3v-60.3m25.9,60.3v-60.3m26,60.3v-60.3m26,60.3v-60.3m26,60.3v-60.3m26,60.3v-60.3" class="gc_132"/>
</svg>