<?xml version="1.0" encoding="UTF-8" standalone="no"?>
<!DOCTYPE svg PUBLIC "-//W3C//DTD SVG 1.1//EN"
"http://www.w3.org/Graphics/SVG/1.1/DTD/svg11.dtd">
<svg viewBox="0 0 1286 909" version="1.1" xmlns="http://www.w3.org/2000/svg" xmlns:xlink="http://www.w3.org/1999/xlink">
<defs>
<style type="text/css"><![CDATA[
.g0_1103{
fill: none;
stroke: #000000;
stroke-width: 0.73;
stroke-linecap: butt;
stroke-linejoin: miter;
}
.g1_1103{
fill: #FFF7A4;
}
.g2_1103{
fill: #F81693;
}
.g3_1103{
fill: #FFE6E6;
}
.g4_1103{
fill: none;
stroke: #5EE200;
stroke-width: 1.461;
stroke-linecap: butt;
stroke-linejoin: miter;
stroke-dasharray: 2,2;
}
.g5_1103{
fill: none;
stroke: #F81693;
stroke-width: 1.461;
stroke-linecap: butt;
stroke-linejoin: miter;
stroke-dasharray: 2,2;
}
.g6_1103{
fill: #AEF080;
}
]]></style>
</defs>
<path d="M193,83.4h900.3M193,111.6H919.4m-726.4,0H919.4M455.7,141.2V112m0,62.1V141.2" class="g0_1103"/>
<path d="M773.1,174.1h44.8V141.2H773.1v32.9Z" class="g1_1103"/>
<path d="M455.7,203.3V174.1m0,58.5V203.3m0,70.1V232.6" class="g0_1103"/>
<path d="M650.4,265.6V240.4c0,-4.4,3.5,-7.8,7.8,-7.8h40.5c4.3,0,7.8,3.4,7.8,7.8v25.2c0,4.3,-3.5,7.8,-7.8,7.8H658.2c-4.3,0,-7.8,-3.5,-7.8,-7.8Z" class="g2_1103"/>
<path d="M653,265.6V240.4c0,-2.9,2.3,-5.2,5.2,-5.2h40.5c2.9,0,5.2,2.3,5.2,5.2v25.2c0,2.9,-2.3,5.2,-5.2,5.2H658.2c-2.9,0,-5.2,-2.3,-5.2,-5.2Z" class="g3_1103"/>
<path d="M720.7,269.4h79" class="g4_1103"/>
<path d="M813.8,265.6V240.4c0,-4.4,3.5,-7.8,7.8,-7.8h40.6c4.3,0,7.8,3.4,7.8,7.8v25.2c0,4.3,-3.5,7.8,-7.8,7.8H821.6c-4.3,0,-7.8,-3.5,-7.8,-7.8Z" class="g2_1103"/>
<path d="M816.4,265.6V240.4c0,-2.9,2.3,-5.2,5.2,-5.2h40.6c2.9,0,5.2,2.3,5.2,5.2v25.2c0,2.9,-2.3,5.2,-5.2,5.2H821.6c-2.9,0,-5.2,-2.3,-5.2,-5.2Z" class="g3_1103"/>
<path d="M884.1,263.1h20.7" class="g5_1103"/>
<path d="M455.7,302.6V273.4m0,72.1V302.6" class="g0_1103"/>
<path d="M699.5,335.2h32.6" class="g5_1103"/>
<path d="M735.7,337.7V310.4c0,-4.3,3.5,-7.8,7.8,-7.8h94.9c4.3,0,7.8,3.5,7.8,7.8v27.3c0,4.3,-3.5,7.8,-7.8,7.8H743.5c-4.3,0,-7.8,-3.5,-7.8,-7.8Z" class="g2_1103"/>
<path d="M738.3,337.7V310.4c0,-2.9,2.4,-5.2,5.2,-5.2h94.9c2.9,0,5.2,2.3,5.2,5.2v27.3c0,2.8,-2.3,5.2,-5.2,5.2H743.5c-2.8,0,-5.2,-2.4,-5.2,-5.2Z" class="g3_1103"/>
<path d="M855.9,335.2h48.9" class="g4_1103"/>
<path d="M455.7,374.7V345.5m0,58.4V374.7m0,70V403.9" class="g0_1103"/>
<path d="M649.3,436.9V411.7c0,-4.3,3.5,-7.8,7.8,-7.8h40.5c4.3,0,7.8,3.5,7.8,7.8v25.2c0,4.4,-3.5,7.8,-7.8,7.8H657.1c-4.3,0,-7.8,-3.4,-7.8,-7.8Z" class="g2_1103"/>
<path d="M651.9,436.9V411.7c0,-2.9,2.3,-5.2,5.2,-5.2h40.5c2.9,0,5.2,2.3,5.2,5.2v25.2c0,2.9,-2.3,5.2,-5.2,5.2H657.1c-2.9,0,-5.2,-2.3,-5.2,-5.2Z" class="g3_1103"/>
<path d="M719.6,434.5h80.1" class="g4_1103"/>
<path d="M813.8,436.9V411.7c0,-4.3,3.5,-7.8,7.8,-7.8h40.6c4.3,0,7.8,3.5,7.8,7.8v25.2c0,4.4,-3.5,7.8,-7.8,7.8H821.6c-4.3,0,-7.8,-3.4,-7.8,-7.8Z" class="g2_1103"/>
<path d="M816.4,436.9V411.7c0,-2.9,2.3,-5.2,5.2,-5.2h40.6c2.9,0,5.2,2.3,5.2,5.2v25.2c0,2.9,-2.3,5.2,-5.2,5.2H821.6c-2.9,0,-5.2,-2.3,-5.2,-5.2Z" class="g3_1103"/>
<path d="M884.1,434.5h20.7" class="g5_1103"/>
<path d="M455.7,474V444.7m0,72.1V474" class="g0_1103"/>
<path d="M699.5,506.6h32.6" class="g5_1103"/>
<path d="M735.7,509V481.8c0,-4.3,3.5,-7.8,7.8,-7.8h94.9c4.3,0,7.8,3.5,7.8,7.8V509c0,4.3,-3.5,7.8,-7.8,7.8H743.5c-4.3,0,-7.8,-3.5,-7.8,-7.8Z" class="g2_1103"/>
<path d="M738.3,509V481.8c0,-2.9,2.4,-5.2,5.2,-5.2h94.9c2.9,0,5.2,2.3,5.2,5.2V509c0,2.9,-2.3,5.2,-5.2,5.2H743.5c-2.8,0,-5.2,-2.3,-5.2,-5.2Z" class="g3_1103"/>
<path d="M855.9,506.6h48.9" class="g4_1103"/>
<path d="M455.7,546.1V516.8m0,58.5V546.1m0,63.6V575.3" class="g0_1103"/>
<path d="M826.8,603.7h78" class="g4_1103"/>
<path d="M455.7,639V609.7m0,62.1V639" class="g0_1103"/>
<path d="M696.9,667.5h82.6" class="g4_1103"/>
<path d="M884.5,671.8h23.9V639H884.5v32.8Z" class="g6_1103"/>
<path d="M455.7,703.2V671.8m0,60.6V703.2M193,732.8H919.4m-726.4,0H919.4" class="g0_1103"/>
</svg>