<?xml version="1.0" encoding="UTF-8" standalone="no"?>
<!DOCTYPE svg PUBLIC "-//W3C//DTD SVG 1.1//EN"
"http://www.w3.org/Graphics/SVG/1.1/DTD/svg11.dtd">
<svg viewBox="0 0 1286 909" version="1.1" xmlns="http://www.w3.org/2000/svg" xmlns:xlink="http://www.w3.org/1999/xlink">
<defs>
<style type="text/css"><![CDATA[
.g0_492{
fill: none;
stroke: #000000;
stroke-width: 0.73;
stroke-linecap: butt;
stroke-linejoin: miter;
}
.g1_492{
fill: #B3E9FA;
}
.g2_492{
fill: none;
stroke: #02B5EE;
stroke-width: 1.262;
stroke-linecap: butt;
stroke-linejoin: miter;
}
.g3_492{
fill: none;
stroke: #5EE200;
stroke-width: 1.262;
stroke-linecap: butt;
stroke-linejoin: miter;
}
.g4_492{
fill: none;
stroke: #FFA313;
stroke-width: 1.262;
stroke-linecap: butt;
stroke-linejoin: miter;
}
.g5_492{
fill: none;
stroke: #FFA313;
stroke-width: 0.73;
stroke-linecap: butt;
stroke-linejoin: miter;
}
.g6_492{
fill: none;
stroke: #02B5EE;
stroke-width: 0.73;
stroke-linecap: butt;
stroke-linejoin: miter;
}
]]></style>
</defs>
<path d="M193,83.4h900.3M193,210.6h879.1m-879.1,0h879.1M566.3,240.2V211m0,58.5V240.2m0,114.3v-85" class="g0_492"/>
<path d="M758.8,311V292.5c0,-2.9,2.3,-5.2,5.2,-5.2H902.6c2.9,0,5.2,2.3,5.2,5.2V311c0,2.9,-2.3,5.2,-5.2,5.2H764c-2.9,0,-5.2,-2.3,-5.2,-5.2Z" class="g1_492"/>
<path d="M756.2,330.5H910.4" class="g2_492"/>
<path d="M920.9,330.5h140.2" class="g3_492"/>
<path d="M566.3,383.7V354.5m0,58.4V383.7m0,114.3V412.9" class="g0_492"/>
<path d="M758.4,474H793" class="g2_492"/>
<path d="M803.6,474h257.5" class="g4_492"/>
<path d="M566.3,527.2V498m0,102.2v-73" class="g0_492"/>
<path d="M742,586.4h279.3" class="g5_492"/>
<path d="M1027.4,586.4h33.7" class="g6_492"/>
<path d="M566.3,629.5V600.2m0,58.5V629.5m0,58.4V658.7M193,688.3h879.1m-879.1,0h879.1" class="g0_492"/>
</svg>