<?xml version="1.0" encoding="UTF-8" standalone="no"?>
<!DOCTYPE svg PUBLIC "-//W3C//DTD SVG 1.1//EN"
"http://www.w3.org/Graphics/SVG/1.1/DTD/svg11.dtd">
<svg viewBox="0 0 909 1286" version="1.1" xmlns="http://www.w3.org/2000/svg" xmlns:xlink="http://www.w3.org/1999/xlink">
<defs>
<style type="text/css"><![CDATA[
.g0_2{
fill: #FDE8E9;
}
.g1_2{
fill: none;
stroke: #000000;
stroke-width: 0.73;
stroke-linecap: butt;
stroke-linejoin: miter;
}
.g2_2{
fill: #FFFFFF;
}
]]></style>
</defs>
<path d="M165.8,239.4h42.1V213.5H165.8v25.9Z" class="g0_2"/>
<path d="M258.7,285.4H650.8M430.7,315V285.8m-69.4,39l24.9,14.8m6.4,40.6V352.8m-62.5,27.4h62.5m-62.5,0V343.7m31.2,-18.9l-31.2,18.7M298.9,324.8l31.2,18.7M298.9,399l31.2,-18.6M298.9,399L267.6,380.4m0,-.2V343.7m31.3,-18.9l-31.3,18.7m30.2,-11l-23,13.7m23,45.1l-23,-13.7m49.3,-2.2v-27m36.1,-15.9l-23,13.7m-1.1,28h50.6m44,22.6V315" class="g1_2"/>
<path d="M462.1,370.9V337.3c0,-2.9,2.4,-5.2,5.2,-5.2H614.5c2.9,0,5.2,2.3,5.2,5.2v33.6c0,2.8,-2.3,5.2,-5.2,5.2H467.3c-2.8,0,-5.2,-2.4,-5.2,-5.2Z" class="g2_2"/>
<path d="M430.7,426V396.8m-172,29.6H650.8M430.7,456V426.8m-69.4,39.1l24.9,14.7m6.4,40.6V493.8m-62.5,27.4h62.5m-62.5,0V484.7m31.2,-18.8l-31.2,18.6M298.9,465.9l31.2,18.6M298.9,540l31.2,-18.6M298.9,540L267.6,521.4m0,-.2V484.7m31.3,-18.8l-31.3,18.6m30.2,-11l-23,13.7m23,45.1l-23,-13.7m49.3,-2.2v-27m106.6,48.4V456" class="g1_2"/>
<path d="M469.7,511.9V478.3c0,-2.9,2.3,-5.2,5.2,-5.2H607c2.9,0,5.2,2.3,5.2,5.2v33.6c0,2.8,-2.3,5.2,-5.2,5.2H474.9c-2.9,0,-5.2,-2.4,-5.2,-5.2Z" class="g2_2"/>
<path d="M430.7,567V537.8m-172,29.6H650.8M430.7,597V567.8m-60.2,39.1l24.8,14.8m6.4,40.5V634.8M370.5,681l31.2,-18.6M370.5,681L339.2,662.4m0,-.2V625.7m31.3,-18.8l-31.3,18.6M308,606.9l31.2,18.6M308,681l31.2,-18.6M308,681L276.8,662.4m0,-.2V625.7M308,606.9l-31.2,18.6m30.1,-11l-23,13.7m23,45.1l-23,-13.7m87.7,-45.1l18.2,11m-18.2,47.8l23,-13.7m-61.4,-2.1V630.4m97.5,48.4V597" class="g1_2"/>
<path d="M464.7,656.5V619.3c0,-2.9,2.3,-5.2,5.2,-5.2H612c2.9,0,5.2,2.3,5.2,5.2v37.2c0,2.9,-2.3,5.2,-5.2,5.2H469.9c-2.9,0,-5.2,-2.3,-5.2,-5.2Z" class="g2_2"/>
<path d="M430.7,708.1V678.8m-172,29.6H650.8M430.7,738V708.8m-60.2,39.1l24.8,14.8m6.4,40.5V775.8M370.5,822l31.2,-18.6M370.5,822L339.2,803.4m0,-.2V766.7m31.3,-18.8l-31.3,18.6M308,747.9l31.2,18.6M308,822l31.2,-18.6M308,822L276.8,803.4m0,-.2V766.7M308,747.9l-31.2,18.6m30.1,-11l-23,13.7m23,45.2l-23,-13.7m49.3,-2.2V771.4m38.4,43l23,-13.7m36.1,19.1V738" class="g1_2"/>
<path d="M444.7,793.9V760.3c0,-2.9,2.3,-5.2,5.2,-5.2H632c2.9,0,5.2,2.3,5.2,5.2v33.6c0,2.9,-2.3,5.2,-5.2,5.2H449.9c-2.9,0,-5.2,-2.3,-5.2,-5.2Z" class="g2_2"/>
<path d="M430.7,849.1V819.8m-172,29.6H650.8M430.7,879V849.8m-60.2,39.1l24.8,14.8m6.4,40.5V916.8M370.5,963l31.2,-18.6M370.5,963L339.2,944.4m0,-.2V907.7m31.3,-18.8l-31.3,18.6M308,888.9l31.2,18.6M308,963l31.2,-18.6M308,963L276.8,944.4m0,-.2V907.7M308,888.9l-31.2,18.6m6,32V912.4m26.3,-15.8l23,13.6m-23,45.2l23,-13.7m98.6,19.1V879" class="g1_2"/>
<path d="M460.3,934.9V901.3c0,-2.8,2.3,-5.2,5.2,-5.2H616.4c2.9,0,5.2,2.4,5.2,5.2v33.6c0,2.9,-2.3,5.2,-5.2,5.2H465.5c-2.9,0,-5.2,-2.3,-5.2,-5.2Z" class="g2_2"/>
<path d="M430.7,990.1V960.8m-172,29.6H650.8M430.7,1020V990.8m-69.4,39.1l24.9,14.8m6.4,40.5v-27.4m-62.5,27.4h62.5m-62.5,0v-36.5m31.2,-18.8l-31.2,18.6m-31.2,-18.6l31.2,18.6M298.9,1104l31.2,-18.6M298.9,1104l-31.3,-18.6m0,-.2v-36.5m31.3,-18.8l-31.3,18.6m30.2,-10.9l-23,13.7m23,45.1l-23,-13.7m85.4,-45.1l-23,13.7m-1.1,27.9h50.6m44,22.7V1020" class="g1_2"/>
<path d="M455.5,1075.9v-33.6c0,-2.8,2.4,-5.2,5.2,-5.2H621.1c2.9,0,5.2,2.4,5.2,5.2v33.6c0,2.9,-2.3,5.2,-5.2,5.2H460.7c-2.8,0,-5.2,-2.3,-5.2,-5.2Z" class="g2_2"/>
<path d="M430.7,1131.1v-29.2m-172,29.5H650.8" class="g1_2"/>
</svg>