<?xml version="1.0" encoding="UTF-8" standalone="no"?>
<!DOCTYPE svg PUBLIC "-//W3C//DTD SVG 1.1//EN"
"http://www.w3.org/Graphics/SVG/1.1/DTD/svg11.dtd">
<svg viewBox="0 0 1286 909" version="1.1" xmlns="http://www.w3.org/2000/svg" xmlns:xlink="http://www.w3.org/1999/xlink">
<defs>
<style type="text/css"><![CDATA[
.g0_874{
fill: none;
stroke: #000000;
stroke-width: 0.73;
stroke-linecap: butt;
stroke-linejoin: miter;
}
.g1_874{
fill: #FFCCCC;
}
.g2_874{
fill: none;
stroke: #F81693;
stroke-width: 1.461;
stroke-linecap: butt;
stroke-linejoin: miter;
stroke-dasharray: 2,2;
}
.g3_874{
fill: none;
stroke: #02B5EE;
stroke-width: 1.262;
stroke-linecap: butt;
stroke-linejoin: miter;
}
.g4_874{
fill: none;
stroke: #02B5EE;
stroke-width: 0.73;
stroke-linecap: butt;
stroke-linejoin: miter;
}
]]></style>
</defs>
<path d="M193,83.4h900.3M193,210.6H744.7m-551.7,0H744.7M431.4,240.2V211m0,58.5V240.2m0,63.2V269.5" class="g0_874"/>
<path d="M517.1,303.4h56.8V270.5H517.1v32.9Z" class="g1_874"/>
<path d="M588.1,297h142" class="g2_874"/>
<path d="M431.4,332.6V303.4m0,62.1V332.6" class="g0_874"/>
<path d="M457.8,361.1h99.5" class="g2_874"/>
<path d="M567,365.5H733.7V332.6H567v32.9Z" class="g1_874"/>
<path d="M431.4,394.7V365.5m0,58.4V394.7m0,60.6V423.9m0,60.6V455.3m0,58.4V484.5m0,114.2v-85" class="g0_874"/>
<path d="M523.5,574.8h69.9" class="g3_874"/>
<path d="M431.4,628V598.7m0,102.3V628" class="g0_874"/>
<path d="M581.7,687.1h152" class="g4_874"/>
<path d="M431.4,730.3V701M193,730.6H744.7m-551.7,0H744.7" class="g0_874"/>
</svg>