<?xml version="1.0" encoding="UTF-8" standalone="no"?>
<!DOCTYPE svg PUBLIC "-//W3C//DTD SVG 1.1//EN"
"http://www.w3.org/Graphics/SVG/1.1/DTD/svg11.dtd">
<svg viewBox="0 0 1286 909" version="1.1" xmlns="http://www.w3.org/2000/svg" xmlns:xlink="http://www.w3.org/1999/xlink">
<defs>
<style type="text/css"><![CDATA[
.g0_832{
fill: none;
stroke: #000000;
stroke-width: 0.73;
stroke-linecap: butt;
stroke-linejoin: miter;
}
.g1_832{
fill: none;
stroke: #02B5EE;
stroke-width: 1.262;
stroke-linecap: butt;
stroke-linejoin: miter;
}
.g2_832{
fill: none;
stroke: #5EE200;
stroke-width: 1.262;
stroke-linecap: butt;
stroke-linejoin: miter;
}
.g3_832{
fill: none;
stroke: #5EE200;
stroke-width: 0.73;
stroke-linecap: butt;
stroke-linejoin: miter;
}
.g4_832{
fill: none;
stroke: #02B5EE;
stroke-width: 0.73;
stroke-linecap: butt;
stroke-linejoin: miter;
}
.g5_832{
fill: #B3E9FA;
}
]]></style>
</defs>
<path d="M193,83.4h900.3M193,210.6H719.3m-526.3,0H719.3M446.1,240.2V211m0,58.5V240.2m0,114.3v-85" class="g0_832"/>
<path d="M457.1,330.5H675.4" class="g1_832"/>
<path d="M685.9,330.5h22.4" class="g2_832"/>
<path d="M446.1,383.7V354.5m0,102.3V383.7" class="g0_832"/>
<path d="M549.6,442.9H584" class="g3_832"/>
<path d="M590.1,442.9H708.3" class="g4_832"/>
<path d="M446.1,486V456.8m0,58.4V486m0,114.2v-85" class="g0_832"/>
<path d="M518.1,550.5V538.2c0,-2.8,2.4,-5.1,5.2,-5.1h116c2.9,0,5.2,2.3,5.2,5.1v12.3c0,2.8,-2.3,5.1,-5.2,5.1h-116c-2.8,0,-5.2,-2.3,-5.2,-5.1Z" class="g5_832"/>
<path d="M515.5,576.2H647.1" class="g1_832"/>
<path d="M657.6,576.2h50.7" class="g2_832"/>
<path d="M446.1,629.5V600.2M193,629.8H719.3m-526.3,0H719.3" class="g0_832"/>
</svg>