<?xml version="1.0" encoding="UTF-8" standalone="no"?>
<!DOCTYPE svg PUBLIC "-//W3C//DTD SVG 1.1//EN"
"http://www.w3.org/Graphics/SVG/1.1/DTD/svg11.dtd">
<svg viewBox="0 0 1286 909" version="1.1" xmlns="http://www.w3.org/2000/svg" xmlns:xlink="http://www.w3.org/1999/xlink">
<defs>
<style type="text/css"><![CDATA[
.g0_860{
fill: none;
stroke: #000000;
stroke-width: 0.73;
stroke-linecap: butt;
stroke-linejoin: miter;
}
.g1_860{
fill: none;
stroke: #02B5EE;
stroke-width: 1.262;
stroke-linecap: butt;
stroke-linejoin: miter;
}
.g2_860{
fill: none;
stroke: #5EE200;
stroke-width: 1.262;
stroke-linecap: butt;
stroke-linejoin: miter;
}
.g3_860{
fill: none;
stroke: #5EE200;
stroke-width: 0.73;
stroke-linecap: butt;
stroke-linejoin: miter;
}
.g4_860{
fill: none;
stroke: #02B5EE;
stroke-width: 0.73;
stroke-linecap: butt;
stroke-linejoin: miter;
}
]]></style>
</defs>
<path d="M193,83.4h900.3M193,210.6H701.5m-508.5,0H701.5M431.4,240.2V211m0,58.5V240.2m0,114.3v-85" class="g0_860"/>
<path d="M442.3,330.5h81" class="g1_860"/>
<path d="M533.8,330.5H690.6" class="g2_860"/>
<path d="M431.4,383.7V354.5m0,102.3V383.7" class="g0_860"/>
<path d="M538.6,442.9H623" class="g3_860"/>
<path d="M623,442.9h67.6" class="g4_860"/>
<path d="M431.4,486V456.8m0,58.4V486m0,114.2v-85" class="g0_860"/>
<path d="M470.1,576.2h53.2" class="g1_860"/>
<path d="M533.8,576.2H690.6" class="g2_860"/>
<path d="M431.4,629.5V600.2m0,102.3v-73" class="g0_860"/>
<path d="M555.5,688.6h84.4" class="g3_860"/>
<path d="M639.9,688.6h50.7" class="g4_860"/>
<path d="M431.4,731.7V702.5M193,732.1H701.5m-508.5,0H701.5" class="g0_860"/>
</svg>