<?xml version="1.0" encoding="UTF-8" standalone="no"?>
<!DOCTYPE svg PUBLIC "-//W3C//DTD SVG 1.1//EN"
"http://www.w3.org/Graphics/SVG/1.1/DTD/svg11.dtd">
<svg viewBox="0 0 1286 909" version="1.1" xmlns="http://www.w3.org/2000/svg" xmlns:xlink="http://www.w3.org/1999/xlink">
<defs>
<style type="text/css"><![CDATA[
.g0_429{
fill: none;
stroke: #000000;
stroke-width: 0.73;
stroke-linecap: butt;
stroke-linejoin: miter;
}
.g1_429{
fill: none;
stroke: #02B5EE;
stroke-width: 1.262;
stroke-linecap: butt;
stroke-linejoin: miter;
}
.g2_429{
fill: none;
stroke: #02B5EE;
stroke-width: 0.73;
stroke-linecap: butt;
stroke-linejoin: miter;
}
]]></style>
</defs>
<path d="M193,83.4h900.3M193,210.6h904.4m-904.4,0h904.4M568.8,240.2V211m0,58.5V240.2m0,114.3v-85" class="g0_429"/>
<path d="M894.1,330.5H930" class="g1_429"/>
<path d="M568.8,383.7V354.5m0,102.3V383.7" class="g0_429"/>
<path d="M1052.6,442.9h33.8" class="g2_429"/>
<path d="M568.8,488.1V456.8m0,60.5V488.1m0,58.4V517.3m0,114.3V546.5" class="g0_429"/>
<path d="M866.4,607.6H930" class="g1_429"/>
<path d="M568.8,660.8V631.6m0,102.2v-73" class="g0_429"/>
<path d="M1052.6,720h33.8" class="g2_429"/>
<path d="M568.8,763.1V733.8M193,763.4h904.4m-904.4,0h904.4" class="g0_429"/>
</svg>