<?xml version="1.0" encoding="UTF-8" standalone="no"?>
<!DOCTYPE svg PUBLIC "-//W3C//DTD SVG 1.1//EN"
"http://www.w3.org/Graphics/SVG/1.1/DTD/svg11.dtd">
<svg viewBox="0 0 1286 909" version="1.1" xmlns="http://www.w3.org/2000/svg" xmlns:xlink="http://www.w3.org/1999/xlink">
<defs>
<style type="text/css"><![CDATA[
.g0_938{
fill: none;
stroke: #000000;
stroke-width: 0.73;
stroke-linecap: butt;
stroke-linejoin: miter;
}
.g1_938{
fill: #B3E9FA;
}
.g2_938{
fill: none;
stroke: #02B5EE;
stroke-width: 1.262;
stroke-linecap: butt;
stroke-linejoin: miter;
}
.g3_938{
fill: none;
stroke: #5EE200;
stroke-width: 1.262;
stroke-linecap: butt;
stroke-linejoin: miter;
}
]]></style>
</defs>
<path d="M193,83.4h900.3M193,111.6H992.6m-799.6,0H992.6M547.9,141.2V112m0,114.3V141.2" class="g0_938"/>
<path d="M719.5,176.5V164.3c0,-2.9,2.3,-5.2,5.2,-5.2h92.7c2.9,0,5.2,2.3,5.2,5.2v12.2c0,2.9,-2.3,5.2,-5.2,5.2H724.7c-2.9,0,-5.2,-2.3,-5.2,-5.2Z" class="g1_938"/>
<path d="M716.9,202.3H825.2" class="g2_938"/>
<path d="M835.7,202.3H981.6" class="g3_938"/>
<path d="M547.9,255.5V226.3m0,58.4V255.5m0,114.2v-85" class="g0_938"/>
<path d="M561.4,320V307.8c0,-2.9,2.3,-5.2,5.2,-5.2H694.8c2.9,0,5.2,2.3,5.2,5.2V320c0,2.8,-2.3,5.2,-5.2,5.2H566.6c-2.9,0,-5.2,-2.4,-5.2,-5.2Z" class="g1_938"/>
<path d="M558.8,345.7H702.6" class="g2_938"/>
<path d="M713.1,345.7H981.6" class="g3_938"/>
<path d="M547.9,399V369.7m0,58.5V399m0,114.2v-85" class="g0_938"/>
<path d="M750.2,463.4V451.2c0,-2.8,2.4,-5.2,5.2,-5.2H811c2.9,0,5.2,2.4,5.2,5.2v12.2c0,2.9,-2.3,5.2,-5.2,5.2H755.4c-2.8,0,-5.2,-2.3,-5.2,-5.2Z" class="g1_938"/>
<path d="M747.6,489.2h71.2" class="g2_938"/>
<path d="M829.3,489.2H981.6" class="g3_938"/>
<path d="M547.9,542.4V513.2m0,58.5V542.4m0,114.3v-85" class="g0_938"/>
<path d="M782.5,632.7h35.6" class="g2_938"/>
<path d="M547.9,685.9V656.7m0,58.4V685.9M193,715.5H992.6m-799.6,0H992.6" class="g0_938"/>
</svg>