<?xml version="1.0" encoding="UTF-8" standalone="no"?>
<!DOCTYPE svg PUBLIC "-//W3C//DTD SVG 1.1//EN"
"http://www.w3.org/Graphics/SVG/1.1/DTD/svg11.dtd">
<svg viewBox="0 0 909 1286" version="1.1" xmlns="http://www.w3.org/2000/svg" xmlns:xlink="http://www.w3.org/1999/xlink">
<defs>
<style type="text/css"><![CDATA[
.g0_32{
fill: none;
stroke: #000000;
stroke-width: 0.73;
stroke-linecap: butt;
stroke-linejoin: miter;
}
.g1_32{
fill: none;
stroke: #7F7F7F;
stroke-width: 1.461;
stroke-linecap: butt;
stroke-linejoin: miter;
}
.g2_32{
fill: none;
stroke: #8007AC;
stroke-width: 1.461;
stroke-linecap: butt;
stroke-linejoin: miter;
}
.g3_32{
fill: none;
stroke: #F81693;
stroke-width: 1.461;
stroke-linecap: butt;
stroke-linejoin: miter;
}
.g4_32{
fill: none;
stroke: #000000;
stroke-width: 1.461;
stroke-linecap: butt;
stroke-linejoin: miter;
}
.g5_32{
fill: none;
stroke: #000000;
stroke-width: 9.132;
stroke-linecap: butt;
stroke-linejoin: miter;
}
.g6_32{
fill: none;
stroke: #F81693;
stroke-width: 0.73;
stroke-linecap: butt;
stroke-linejoin: miter;
}
.g7_32{
fill: none;
stroke: #8007AC;
stroke-width: 0.73;
stroke-linecap: butt;
stroke-linejoin: miter;
}
.g8_32{
fill: none;
stroke: #FFFFFF;
stroke-width: 0.152;
stroke-linecap: butt;
stroke-linejoin: miter;
}
.g9_32{
fill: none;
stroke: #02B5EE;
stroke-width: 0.73;
stroke-linecap: butt;
stroke-linejoin: miter;
}
.ga_32{
fill: none;
stroke: #FFFFFF;
stroke-width: 0.73;
stroke-linecap: butt;
stroke-linejoin: miter;
}
.gb_32{
fill: none;
stroke: #5EE200;
stroke-width: 0.73;
stroke-linecap: butt;
stroke-linejoin: miter;
}
]]></style>
</defs>
<path d="M116.9,261.9H783.4M117.3,592.3v-330" class="g0_32"/>
<path d="M186.6,322.5c1.6,-3.3,5.5,-5.5,11,-5.5h64.6c5.5,0,9.4,-2.1,11,-5.4c1.6,3.3,5.5,5.4,11,5.4h64.6c5.5,0,9.4,2.2,11,5.5" class="g1_32"/>
<path d="M276.3,360.1c1.4,0,2.1,-2.7,3.5,-2.7c1,0,1.8,1.3,2.7,2.7c.9,1.4,1.8,2.8,2.7,2.8c1,0,1.9,-1.4,2.8,-2.8c.9,-1.4,1.7,-2.7,2.7,-2.7c1,0,1.9,1.3,2.8,2.7c.9,1.4,1.7,2.8,2.7,2.8c1,0,1.9,-1.4,2.7,-2.8c.9,-1.4,1.8,-2.7,2.8,-2.7c1,0,1.8,1.3,2.7,2.7c.9,1.4,1.8,2.8,2.8,2.8c1,0,1.8,-1.4,2.7,-2.8c.9,-1.4,1.8,-2.7,2.7,-2.7c1,0,1.9,1.3,2.8,2.7c.9,1.4,1.7,2.8,2.7,2.8c1,0,1.9,-1.4,2.8,-2.8c.9,-1.4,1.7,-2.7,2.7,-2.7c1,0,1.9,1.3,2.7,2.7c.9,1.4,1.8,2.8,2.8,2.8c1,0,1.8,-1.4,2.7,-2.8c.9,-1.4,1.8,-2.7,2.8,-2.7c1,0,1.8,1.3,2.7,2.7c.9,1.4,1.8,2.8,2.7,2.8c1,0,1.9,-1.4,2.8,-2.8c.9,-1.4,1.7,-2.7,2.7,-2.7c1,0,1.9,1.3,2.8,2.7c.9,1.4,1.7,2.8,2.7,2.8c1.4,0,2.1,-2.8,3.4,-2.8h5.4" class="g2_32"/>
<path d="M366.1,442.6c1.4,0,2,-2.8,3.4,-2.8c1,0,1.9,1.4,2.8,2.8c.8,1.4,1.7,2.7,2.7,2.7c1,0,1.8,-1.3,2.7,-2.7c.9,-1.4,1.8,-2.8,2.8,-2.8c1,0,1.8,1.4,2.7,2.8c.9,1.4,1.8,2.7,2.8,2.7c.9,0,1.8,-1.3,2.7,-2.7c.9,-1.4,1.7,-2.8,2.7,-2.8c1,0,1.9,1.4,2.8,2.8c.9,1.4,1.7,2.7,2.7,2.7c1,0,1.9,-1.3,2.7,-2.7c.9,-1.4,1.8,-2.8,2.8,-2.8c1,0,1.8,1.4,2.7,2.8c.9,1.4,1.8,2.7,2.8,2.7c1,0,1.8,-1.3,2.7,-2.7c.9,-1.4,1.8,-2.8,2.7,-2.8c1,0,1.9,1.4,2.8,2.8c.9,1.4,1.7,2.7,2.7,2.7c1,0,1.9,-1.3,2.8,-2.7c.9,-1.4,1.7,-2.8,2.7,-2.8c1,0,1.9,1.4,2.7,2.8c.9,1.4,1.8,2.7,2.8,2.7c1,0,1.8,-1.3,2.7,-2.7c.9,-1.4,1.8,-2.8,2.8,-2.8c1,0,1.8,1.4,2.7,2.8c.9,1.4,1.8,2.7,2.7,2.7c1,0,1.9,-1.3,2.8,-2.7c.9,-1.4,1.7,-2.8,2.7,-2.8c1,0,1.9,1.4,2.8,2.8c.9,1.4,1.7,2.7,2.7,2.7c1,0,1.9,-1.3,2.7,-2.7c.9,-1.4,1.8,-2.8,2.8,-2.8c1,0,1.8,1.4,2.7,2.8c.9,1.4,1.8,2.7,2.8,2.7c1,0,1.8,-1.3,2.7,-2.7c.9,-1.4,1.8,-2.8,2.7,-2.8c1,0,1.9,1.4,2.8,2.8c.9,1.4,1.7,2.7,2.7,2.7c1.4,0,2.1,-2.7,3.4,-2.7h4.9" class="g3_32"/>
<path d="M353.5,529.5c-1.6,3.3,-5.5,5.5,-11,5.5H328c-5.5,0,-9.3,2.2,-11,5.5c-1.6,-3.3,-5.5,-5.5,-10.9,-5.5H291.5c-5.5,0,-9.3,-2.2,-11,-5.5m200,0c-1.6,3.3,-5.5,5.5,-10.9,5.5H455c-5.5,0,-9.3,2.2,-11,5.5c-1.6,-3.3,-5.4,-5.5,-10.9,-5.5H418.5c-5.5,0,-9.3,-2.2,-10.9,-5.5" class="g4_32"/>
<path d="M489.3,535.5c1.3,0,2,-2.8,3.4,-2.8c1,0,1.8,1.4,2.7,2.8c.9,1.4,1.8,2.7,2.8,2.7c1,0,1.8,-1.3,2.7,-2.7c.9,-1.4,1.8,-2.8,2.8,-2.8c.9,0,1.8,1.4,2.7,2.8c.9,1.4,1.7,2.7,2.7,2.7c1,0,1.9,-1.3,2.8,-2.7c.9,-1.4,1.7,-2.8,2.7,-2.8c1,0,1.9,1.4,2.8,2.8c.8,1.4,1.7,2.7,2.7,2.7c1,0,1.8,-1.3,2.7,-2.7c.9,-1.4,1.8,-2.8,2.8,-2.8c1,0,1.8,1.4,2.7,2.8c.9,1.4,1.8,2.7,2.8,2.7c.9,0,1.8,-1.3,2.7,-2.7c.9,-1.4,1.7,-2.8,2.7,-2.8c1,0,1.9,1.4,2.8,2.8c.9,1.4,1.7,2.7,2.7,2.7c1,0,1.9,-1.3,2.7,-2.7c.9,-1.4,1.8,-2.8,2.8,-2.8c1,0,1.8,1.4,2.7,2.8c.9,1.4,1.8,2.7,2.8,2.7c1,0,1.8,-1.3,2.7,-2.7c.9,-1.4,1.8,-2.8,2.7,-2.8c1,0,1.9,1.4,2.8,2.8c.9,1.4,1.7,2.7,2.7,2.7c1,0,1.9,-1.3,2.8,-2.7c.9,-1.4,1.7,-2.8,2.7,-2.8c1,0,1.9,1.4,2.7,2.8c.9,1.4,1.8,2.7,2.8,2.7c1,0,1.8,-1.3,2.7,-2.7c.9,-1.4,1.8,-2.8,2.8,-2.8c1,0,1.8,1.4,2.7,2.8c.9,1.4,1.8,2.7,2.7,2.7c1.4,0,2.1,-2.7,3.5,-2.7h5.4" class="g3_32"/>
<path d="M783,592.3v-330M116.9,592.6H783.4" class="g0_32"/>
<path d="M126.1,597.6H792.5m-4.6,4.5V270.7" class="g5_32"/>
<path d="M116.9,633.6H676.4M325.5,663.1V633.9M157.1,668.4l31.3,18.7m0,36.7V687.3m-31.3,55.3L188.4,724m-31.3,18.6L125.9,724m0,-.2V687.3m31.2,-18.9l-31.2,18.7m32.3,-11l23,13.7m-23,45.1l23,-13.7M131.9,719V692m110.5,-7.3l-18.2,-11m31,11l25.2,-15m30.9,18.8L280.1,669.9m-91.7,17.4l21.9,-13.2M325.5,745V663.1" class="g0_32"/>
<path d="M405.9,668.4l31.3,18.7m0,36.7V687.3m-31.3,55.3L437.2,724m-31.3,18.6L374.7,724m0,-.2V687.3m31.2,-18.9l-31.2,18.7m32.3,-11l23.1,13.7M407,734.9l23.1,-13.7M380.7,719V692" class="g6_32"/>
<path d="M491.2,684.7L473,673.7m31,11l25.2,-15m30.9,18.8L528.9,669.9" class="g7_32"/>
<path d="M528.9,669.7l29.2,17.6" class="g8_32"/>
<path d="M528.9,669.7l29.2,17.6" class="g9_32"/>
<path d="M437.2,687.3l21.9,-13.2" class="g7_32"/>
<path d="M325.5,774.2V745m0,58.4V774.2m0,58.4V803.4m0,58.5V832.6m0,147.6V861.9" class="g0_32"/>
<path d="M507.5,877.9l18.3,11m-31.1,-11l-18.3,11" class="ga_32"/>
<path d="M460.7,906.4l-18.2,11M412.2,898l31.2,18.7m0,36.7V916.8m-31.2,55.4l31.2,-18.6m-31.2,18.6L380.9,953.6m0,-.2V916.8M412.2,898l-31.3,18.7m32.3,-11l23.1,13.7m-23.1,45.1l23.1,-13.7m-49.4,-2.2v-27" class="gb_32"/>
<path d="M563.6,874.1l31.2,18.6M563.6,874.1l-24.9,14.8" class="ga_32"/>
<path d="M469.9,892.9l27.4,-16.4" class="g8_32"/>
<path d="M469.9,892.9l27.4,-16.4" class="g6_32"/>
<path d="M510.2,876.8l18.3,11" class="g8_32"/>
<path d="M510.2,876.8l18.3,11" class="g6_32"/>
<path d="M539.6,887.4l23.8,-14.2" class="g8_32"/>
<path d="M539.6,887.4l23.8,-14.2" class="g6_32"/>
<path d="M563.6,874.1l31.2,18.6" class="g8_32"/>
<path d="M563.6,874.1l31.2,18.6" class="g9_32"/>
<path d="M325.5,1009.5V980.2m0,58.5v-29.2m0,58.4v-29.2m0,58.4v-29.2m0,58.5v-29.3m-208.6,29.6H676.4" class="g0_32"/>
</svg>