<?xml version="1.0" encoding="UTF-8" standalone="no"?>
<!DOCTYPE svg PUBLIC "-//W3C//DTD SVG 1.1//EN"
"http://www.w3.org/Graphics/SVG/1.1/DTD/svg11.dtd">
<svg viewBox="0 0 1286 909" version="1.1" xmlns="http://www.w3.org/2000/svg" xmlns:xlink="http://www.w3.org/1999/xlink">
<defs>
<style type="text/css"><![CDATA[
.g0_934{
fill: none;
stroke: #000000;
stroke-width: 0.73;
stroke-linecap: butt;
stroke-linejoin: miter;
}
.g1_934{
fill: none;
stroke: #02B5EE;
stroke-width: 1.262;
stroke-linecap: butt;
stroke-linejoin: miter;
}
.g2_934{
fill: none;
stroke: #5EE200;
stroke-width: 1.262;
stroke-linecap: butt;
stroke-linejoin: miter;
}
.g3_934{
fill: none;
stroke: #5EE200;
stroke-width: 0.73;
stroke-linecap: butt;
stroke-linejoin: miter;
}
.g4_934{
fill: none;
stroke: #02B5EE;
stroke-width: 0.73;
stroke-linecap: butt;
stroke-linejoin: miter;
}
.g5_934{
fill: none;
stroke: #FFA313;
stroke-width: 1.262;
stroke-linecap: butt;
stroke-linejoin: miter;
}
.g6_934{
fill: none;
stroke: #FFA313;
stroke-width: 0.73;
stroke-linecap: butt;
stroke-linejoin: miter;
}
]]></style>
</defs>
<path d="M193,83.4h900.3M193,111.6H878.1m-685.1,0H878.1M476.6,141.2V112m0,128.8V141.2" class="g0_934"/>
<path d="M610.2,202.3H768.8" class="g1_934"/>
<path d="M779.4,202.3h87.8" class="g2_934"/>
<path d="M476.6,270V240.8m0,111.2V270" class="g0_934"/>
<path d="M642.5,329.2H742.8" class="g3_934"/>
<path d="M748.9,329.2H867.2" class="g4_934"/>
<path d="M476.6,381.2V352m0,58.4V381.2m0,114.2v-85" class="g0_934"/>
<path d="M533.4,471.4h53" class="g1_934"/>
<path d="M596.9,471.4H710.5" class="g5_934"/>
<path d="M476.6,524.7V495.4m0,102.3v-73" class="g0_934"/>
<path d="M658.4,583.8h84.4" class="g6_934"/>
<path d="M748.9,583.8H867.2" class="g4_934"/>
<path d="M476.6,626.9V597.7m0,58.5V626.9m0,58.5V656.2M193,685.7H878.1m-685.1,0H878.1" class="g0_934"/>
</svg>