<?xml version="1.0" encoding="UTF-8" standalone="no"?>
<!DOCTYPE svg PUBLIC "-//W3C//DTD SVG 1.1//EN"
"http://www.w3.org/Graphics/SVG/1.1/DTD/svg11.dtd">
<svg viewBox="0 0 909 1286" version="1.1" xmlns="http://www.w3.org/2000/svg" xmlns:xlink="http://www.w3.org/1999/xlink">
<defs>
<style type="text/css"><![CDATA[
.g0_128{
fill: none;
stroke: #000000;
stroke-width: 0.73;
stroke-linecap: butt;
stroke-linejoin: miter;
}
.g1_128{
fill: #E81A58;
}
.g2_128{
fill: #401A1A;
}
.g3_128{
fill: #7F7F7F;
fill-opacity: 0.01;
}
.g4_128{
fill: #7F7F7F;
fill-opacity: 0.02;
}
.g5_128{
fill: #7F7F7F;
fill-opacity: 0.04;
}
.g6_128{
fill: #7F7F7F;
fill-opacity: 0.07;
}
.g7_128{
fill: #7F7F7F;
fill-opacity: 0.11;
}
.g8_128{
fill: #FFFFFF;
}
.g9_128{
fill: #CBCEFB;
}
]]></style>
</defs>
<path d="M116.9,159.9H792.5" class="g0_128"/>
<path d="M116.9,479.6V218.7c0,-21.7,17.6,-39.2,39.2,-39.2H792.5V440.4c0,21.7,-17.5,39.2,-39.1,39.2Z" class="g1_128"/>
<path d="M119.5,477V212H789.9V440.4c0,20.2,-16.3,36.6,-36.5,36.6Z" class="g2_128"/>
<path d="M122.2,499.5c221.7,0,443.4,0,665,0V871.1c-221.6,-9.4,-443.3,-9.4,-665,0Z" class="g3_128"/>
<path d="M122.9,500.1c221.2,0,442.4,0,663.7,0V870.5c-221.3,-9.4,-442.5,-9.4,-663.7,0Z" class="g4_128"/>
<path d="M123.5,500.7c220.8,0,441.6,0,662.5,0V869.8c-220.9,-9.3,-441.7,-9.3,-662.5,0Z" class="g5_128"/>
<path d="M124.1,501.4c220.4,0,440.8,0,661.2,0V869.2c-220.4,-9.3,-440.8,-9.3,-661.2,0Z" class="g6_128"/>
<path d="M124.7,502c220,0,440,0,660,0V868.6c-220,-9.4,-440,-9.4,-660,0Z" class="g7_128"/>
<path d="M125.4,502.6c219.5,0,439.1,0,658.7,0V868c-219.6,-9.4,-439.2,-9.4,-658.7,0Z" class="g7_128"/>
<path d="M126,503.2c219.1,0,438.3,0,657.5,0V867.3C564.3,858,345.1,858,126,867.3Z" class="g6_128"/>
<path d="M126.6,503.8c218.8,0,437.5,0,656.3,0V866.7c-218.8,-9.3,-437.5,-9.3,-656.3,0Z" class="g5_128"/>
<path d="M127.2,504.5c218.4,0,436.7,0,655,0V866.1c-218.3,-9.4,-436.6,-9.4,-655,0Z" class="g4_128"/>
<path d="M127.9,505.1c217.9,0,435.8,0,653.7,0V865.5c-217.9,-9.4,-435.8,-9.4,-653.7,0Z" class="g3_128"/>
<path d="M116.9,860.8V494.2H792.5V860.8Z" class="g8_128"/>
<path d="M119.5,858.2V496.8H789.9V858.2Z" class="g8_128"/>
<path d="M333.7,512.7H575.8M334,542.3V513.1" class="g0_128"/>
<path d="M334.4,542.3h60.3V513.1H334.4v29.2Z" class="g9_128"/>
<path d="M395,542.3V513.1" class="g0_128"/>
<path d="M395.4,542.3h89.5V513.1H395.4v29.2Z" class="g9_128"/>
<path d="M485.2,542.3V513.1" class="g0_128"/>
<path d="M485.6,542.3h89.5V513.1H485.6v29.2Z" class="g9_128"/>
<path d="M575.4,542.3V513.1M333.7,542.7H575.8M334,572.3V543.1m61,29.2V543.1m90.2,29.2V543.1m90.2,29.2V543.1M333.7,572.6H575.8M334,602.2V573m61,29.2V573m90.2,29.2V573m90.2,29.2V573M333.7,602.6H575.8M334,632.2V603m61,29.2V603m90.2,29.2V603m90.2,29.2V603M333.7,632.6H575.8M334,662.1V632.9m61,29.2V632.9m90.2,29.2V632.9m90.2,29.2V632.9M333.7,662.5H575.8M334,692.1V662.9m61,29.2V662.9m90.2,29.2V662.9m90.2,29.2V662.9M333.7,692.5H575.8M334,722.1V692.8m61,29.3V692.8m90.2,29.3V692.8m90.2,29.3V692.8M333.7,722.4H575.8M334,752V722.8M395,752V722.8M485.2,752V722.8M575.4,752V722.8M333.7,752.4H575.8M334,782V752.7M395,782V752.7M485.2,782V752.7M575.4,782V752.7M333.7,782.3H575.8M334,811.9V782.7m61,29.2V782.7m90.2,29.2V782.7m90.2,29.2V782.7M333.7,812.3H575.8M334,841.9V812.6m61,29.3V812.6m90.2,29.3V812.6m90.2,29.3V812.6M333.7,842.2H575.8" class="g0_128"/>
</svg>