<?xml version="1.0" encoding="UTF-8" standalone="no"?>
<!DOCTYPE svg PUBLIC "-//W3C//DTD SVG 1.1//EN"
"http://www.w3.org/Graphics/SVG/1.1/DTD/svg11.dtd">
<svg viewBox="0 0 1286 909" version="1.1" xmlns="http://www.w3.org/2000/svg" xmlns:xlink="http://www.w3.org/1999/xlink">
<defs>
<style type="text/css"><![CDATA[
.g0_584{
fill: none;
stroke: #000000;
stroke-width: 0.73;
stroke-linecap: butt;
stroke-linejoin: miter;
}
.g1_584{
fill: none;
stroke: #02B5EE;
stroke-width: 1.461;
stroke-linecap: butt;
stroke-linejoin: miter;
stroke-dasharray: 2,2;
}
.g2_584{
fill: #B3E9FA;
}
.g3_584{
fill: none;
stroke: #02B5EE;
stroke-width: 1.262;
stroke-linecap: butt;
stroke-linejoin: miter;
}
.g4_584{
fill: none;
stroke: #02B5EE;
stroke-width: 0.73;
stroke-linecap: butt;
stroke-linejoin: miter;
}
]]></style>
</defs>
<path d="M193,83.4h900.3M193,210.6H727.3m-534.3,0H727.3M428,240.2V211m0,58.5V240.2m0,114.3v-85" class="g0_584"/>
<path d="M442.6,312.4H589.7" class="g1_584"/>
<path d="M606.5,311.2V292.5c0,-2.9,2.3,-5.2,5.2,-5.2h96.8c2.9,0,5.2,2.3,5.2,5.2v18.7c0,2.9,-2.3,5.2,-5.2,5.2H611.7c-2.9,0,-5.2,-2.3,-5.2,-5.2Z" class="g2_584"/>
<path d="M438.9,330.5H716.3" class="g3_584"/>
<path d="M428,383.7V354.5m0,102.3V383.7" class="g0_584"/>
<path d="M550.6,421v-7c0,-2.9,2.3,-5.2,5.1,-5.2h56.8c2.9,0,5.2,2.3,5.2,5.2v7c0,2.8,-2.3,5.2,-5.2,5.2H555.7c-2.8,0,-5.1,-2.4,-5.1,-5.2Z" class="g2_584"/>
<path d="M630,428.7h82.6" class="g1_584"/>
<path d="M548,442.9H716.3" class="g4_584"/>
<path d="M428,486V456.8M193,486.3H727.3m-534.3,0H727.3" class="g0_584"/>
</svg>