<?xml version="1.0" encoding="UTF-8" standalone="no"?>
<!DOCTYPE svg PUBLIC "-//W3C//DTD SVG 1.1//EN"
"http://www.w3.org/Graphics/SVG/1.1/DTD/svg11.dtd">
<svg viewBox="0 0 909 1286" version="1.1" xmlns="http://www.w3.org/2000/svg" xmlns:xlink="http://www.w3.org/1999/xlink">
<defs>
<style type="text/css"><![CDATA[
.g0_32{
fill: none;
stroke: #000000;
stroke-width: 0.73;
stroke-linecap: butt;
stroke-linejoin: miter;
}
.g1_32{
fill: #FDE8E9;
}
]]></style>
</defs>
<path d="M116.9,159.9H792.5" class="g0_32"/>
<path d="M125.4,210.3h95.4V182.5H125.4v27.8Z" class="g1_32"/>
<path d="M474.1,210.3h78.5V182.5H474.1v27.8Z" class="g1_32"/>
<path d="M116.9,269.2h78.6V241.4H116.9v27.8Z" class="g1_32"/>
<path d="M437.8,356.9H550.1V329.1H437.8v27.8Z" class="g1_32"/>
<path d="M184.5,444.6H306.9V416.7H184.5v27.9Z" class="g1_32"/>
<path d="M238.5,532.3H332V506.5H238.5v25.8Z" class="g1_32"/>
<path d="M558.1,532.3h95.5V504.4H558.1v27.9Z" class="g1_32"/>
<path d="M268.9,562h78.6V534.2H268.9V562Z" class="g1_32"/>
<path d="M116.9,620.9h44.8V593H116.9v27.9Z" class="g1_32"/>
<path d="M387.2,620.9h61.7V593H387.2v27.9Z" class="g1_32"/>
<path d="M488.5,665.2H600.8V637.3H488.5v27.9Z" class="g1_32"/>
<path d="M420.9,694.9H567V667H420.9v27.9Z" class="g1_32"/>
<path d="M116.9,797.1h78.6V769.3H116.9v27.8Z" class="g1_32"/>
<path d="M116.9,856H229.2V828.2H116.9V856Z" class="g1_32"/>
<path d="M500.5,856H622.9V828.2H500.5V856Z" class="g1_32"/>
<path d="M133.8,972.9H234.6V945.1H133.8v27.8Z" class="g1_32"/>
</svg>