<?xml version="1.0" encoding="UTF-8" standalone="no"?>
<!DOCTYPE svg PUBLIC "-//W3C//DTD SVG 1.1//EN"
"http://www.w3.org/Graphics/SVG/1.1/DTD/svg11.dtd">
<svg viewBox="0 0 1286 909" version="1.1" xmlns="http://www.w3.org/2000/svg" xmlns:xlink="http://www.w3.org/1999/xlink">
<defs>
<style type="text/css"><![CDATA[
.g0_110{
fill: none;
stroke: #000000;
stroke-width: 0.73;
stroke-linecap: butt;
stroke-linejoin: miter;
}
.g1_110{
fill: none;
stroke: #02B5EE;
stroke-width: 1.262;
stroke-linecap: butt;
stroke-linejoin: miter;
}
.g2_110{
fill: none;
stroke: #5EE200;
stroke-width: 1.262;
stroke-linecap: butt;
stroke-linejoin: miter;
}
.g3_110{
fill: #B3E9FA;
}
]]></style>
</defs>
<path d="M193,83.4h900.3M193,210.6H910.4m-717.4,0H910.4M582.9,240.2V211m0,58.5V240.2m0,114.3v-85" class="g0_110"/>
<path d="M648.1,330.5h80" class="g1_110"/>
<path d="M738.6,330.5h22.1" class="g2_110"/>
<path d="M582.9,383.7V354.5m0,58.4V383.7m0,114.3V412.9" class="g0_110"/>
<path d="M701.7,474h35.7" class="g1_110"/>
<path d="M747.9,474H770" class="g2_110"/>
<path d="M582.9,527.2V498m0,58.4V527.2m0,114.2v-85" class="g0_110"/>
<path d="M629.2,591.6V579.4c0,-2.8,2.4,-5.2,5.2,-5.2h102c2.8,0,5.1,2.4,5.1,5.2v12.2c0,2.9,-2.3,5.2,-5.1,5.2h-102c-2.8,0,-5.2,-2.3,-5.2,-5.2Z" class="g3_110"/>
<path d="M626.6,617.4H744.1" class="g1_110"/>
<path d="M754.7,617.4H899.4" class="g2_110"/>
<path d="M582.9,670.6V641.4m0,58.5V670.6m0,58.5V699.9M193,729.5H910.4m-717.4,0H910.4" class="g0_110"/>
</svg>