<?xml version="1.0" encoding="UTF-8" standalone="no"?>
<!DOCTYPE svg PUBLIC "-//W3C//DTD SVG 1.1//EN"
"http://www.w3.org/Graphics/SVG/1.1/DTD/svg11.dtd">
<svg viewBox="0 0 1286 909" version="1.1" xmlns="http://www.w3.org/2000/svg" xmlns:xlink="http://www.w3.org/1999/xlink">
<defs>
<style type="text/css"><![CDATA[
.g0_342{
fill: none;
stroke: #000000;
stroke-width: 0.73;
stroke-linecap: butt;
stroke-linejoin: miter;
}
.g1_342{
fill: none;
stroke: #5EE200;
stroke-width: 0.73;
stroke-linecap: butt;
stroke-linejoin: miter;
}
.g2_342{
fill: none;
stroke: #02B5EE;
stroke-width: 0.73;
stroke-linecap: butt;
stroke-linejoin: miter;
}
.g3_342{
fill: none;
stroke: #02B5EE;
stroke-width: 1.262;
stroke-linecap: butt;
stroke-linejoin: miter;
}
]]></style>
</defs>
<path d="M193,83.4h900.3M193,111.6h908.9m-908.9,0h908.9M600.5,141.2V112m0,102.3V141.2" class="g0_342"/>
<path d="M803.9,200.4H972.8" class="g1_342"/>
<path d="M1040.3,200.4H1091" class="g2_342"/>
<path d="M600.5,243.5V214.3m0,58.4V243.5m0,114.3V272.7" class="g0_342"/>
<path d="M669.8,333.8h70" class="g3_342"/>
<path d="M600.5,387V357.8m0,102.3V387" class="g0_342"/>
<path d="M1023.4,446.2H1091" class="g2_342"/>
<path d="M600.5,489.3V460.1m0,58.4V489.3m0,114.2v-85" class="g0_342"/>
<path d="M695.7,579.5h44.1" class="g3_342"/>
<path d="M600.5,632.7V603.5m0,102.3V632.7" class="g0_342"/>
<path d="M1057.2,691.9H1091" class="g2_342"/>
<path d="M600.5,735V705.8M193,735.4h908.9m-908.9,0h908.9" class="g0_342"/>
</svg>