<?xml version="1.0" encoding="UTF-8" standalone="no"?>
<!DOCTYPE svg PUBLIC "-//W3C//DTD SVG 1.1//EN"
"http://www.w3.org/Graphics/SVG/1.1/DTD/svg11.dtd">
<svg viewBox="0 0 1286 909" version="1.1" xmlns="http://www.w3.org/2000/svg" xmlns:xlink="http://www.w3.org/1999/xlink">
<defs>
<style type="text/css"><![CDATA[
.g0_1243{
fill: none;
stroke: #000000;
stroke-width: 0.73;
stroke-linecap: butt;
stroke-linejoin: miter;
}
.g1_1243{
fill: none;
stroke: #000000;
stroke-width: 0.584;
stroke-linecap: butt;
stroke-linejoin: miter;
}
.g2_1243{
fill: #FDE8E9;
}
]]></style>
</defs>
<path d="M193,83.4h900.3" class="g0_1243"/>
<path d="M206.6,110.2H421M206.6,133.9V110.5m75.9,23.4V110.5M421,133.9V110.5M206.6,161.6V133.9m75.9,27.7V133.9" class="g1_1243"/>
<path d="M291.3,161.6H387V133.9H291.3v27.7Z" class="g2_1243"/>
<path d="M421,161.6V133.9M206.6,185V161.6M282.5,185V161.6M421,185V161.6M206.6,208.4V185m75.9,23.4V185M421,208.4V185M206.6,232.5V208.4m75.9,24.1V208.4" class="g1_1243"/>
<path d="M291.3,229.9h94.3V211.2H291.3v18.7Z" class="g2_1243"/>
<path d="M421,232.5V208.4M206.6,255.9V232.5m75.9,23.4V232.5M421,255.9V232.5M206.6,279.3V255.9m75.9,23.4V255.9M421,279.3V255.9M206.6,305.4V279.3m75.9,26.1V279.3" class="g1_1243"/>
<path d="M291.3,302.7h58.3V279.3H291.3v23.4Z" class="g2_1243"/>
<path d="M421,305.4V279.3M206.6,328.8V305.4m75.9,23.4V305.4M421,328.8V305.4M206.6,352.1V328.8m75.9,23.3V328.8M421,352.1V328.8M206.6,378.2V352.1m75.9,26.1V352.1" class="g1_1243"/>
<path d="M291.3,375.6h50V352.1h-50v23.5Z" class="g2_1243"/>
<path d="M421,378.2V352.1M206.6,401.6V378.2m75.9,23.4V378.2M421,401.6V378.2M206.6,425V401.6M282.5,425V401.6M421,425V401.6M206.6,451.1V425m75.9,26.1V425" class="g1_1243"/>
<path d="M291.3,448.5h48.4V425H291.3v23.5Z" class="g2_1243"/>
<path d="M421,451.1V425M206.6,474.5V451.1m75.9,23.4V451.1M421,474.5V451.1M206.6,497.9V474.5m75.9,23.4V474.5M421,497.9V474.5M206.6,525.6V497.9m75.9,27.7V497.9" class="g1_1243"/>
<path d="M291.3,525.6h92.9V497.9H291.3v27.7Z" class="g2_1243"/>
<path d="M421,525.6V497.9M206.6,549V525.6M282.5,549V525.6M421,549V525.6M206.6,572.3V549m75.9,23.3V549M421,572.3V549M206.6,600V572.3M282.5,600V572.3" class="g1_1243"/>
<path d="M291.3,600H412.2V572.3H291.3V600Z" class="g2_1243"/>
<path d="M421,600V572.3M206.6,623.4V600m75.9,23.4V600M421,623.4V600M206.6,646.8V623.4m75.9,23.4V623.4M421,646.8V623.4M206.6,672.9V646.8m75.9,26.1V646.8" class="g1_1243"/>
<path d="M291.3,670.3h82.9V646.8H291.3v23.5Z" class="g2_1243"/>
<path d="M421,672.9V646.8M206.6,696.3V672.9m75.9,23.4V672.9M421,696.3V672.9M206.6,719.7V696.3m75.9,23.4V696.3M421,719.7V696.3M206.6,747.4V719.7m75.9,27.7V719.7" class="g1_1243"/>
<path d="M291.3,747.4h89.1V719.7H291.3v27.7Z" class="g2_1243"/>
<path d="M421,747.4V719.7m-214.4,51V747.4m75.9,23.3V747.4M421,770.7V747.4M206.6,771H421M438.5,109.5H784.4M438.5,133.1V109.7m202.4,23.4V109.7m143.5,23.4V109.7M438.5,160.8V133.1m202.4,27.7V133.1" class="g1_1243"/>
<path d="M649.7,160.8H769.4V133.1H649.7v27.7Z" class="g2_1243"/>
<path d="M784.4,160.8V133.1M438.5,184.2V160.8m202.4,23.4V160.8m143.5,23.4V160.8M438.5,207.6V184.2m202.4,23.4V184.2m143.5,23.4V184.2M438.5,235.3V207.6m202.4,27.7V207.6" class="g1_1243"/>
<path d="M649.7,235.3h69.2V207.6H649.7v27.7Z" class="g2_1243"/>
<path d="M784.4,235.3V207.6m-345.9,51V235.3m202.4,23.3V235.3m143.5,23.3V235.3M438.5,282V258.6M640.9,282V258.6M784.4,282V258.6M438.5,308.1V282m202.4,26.1V282" class="g1_1243"/>
<path d="M649.7,305.5h36.4V282H649.7v23.5Z" class="g2_1243"/>
<path d="M784.4,308.1V282M438.5,331.5V308.1m202.4,23.4V308.1m143.5,23.4V308.1M438.5,354.9V331.5m202.4,23.4V331.5m143.5,23.4V331.5M438.5,381V354.9M640.9,381V354.9" class="g1_1243"/>
<path d="M649.7,378.4h73.2V354.9H649.7v23.5Z" class="g2_1243"/>
<path d="M784.4,381V354.9M438.5,404.4V381m202.4,23.4V381m143.5,23.4V381M438.5,427.8V404.4m202.4,23.4V404.4m143.5,23.4V404.4M438.5,455.5V427.8m202.4,27.7V427.8" class="g1_1243"/>
<path d="M649.7,455.5h95.8V427.8H649.7v27.7Z" class="g2_1243"/>
<path d="M784.4,455.5V427.8m-345.9,51V455.5m202.4,23.3V455.5m143.5,23.3V455.5M438.5,502.2V478.8m202.4,23.4V478.8m143.5,23.4V478.8M438.5,528.3V502.2m202.4,26.1V502.2" class="g1_1243"/>
<path d="M649.7,525.7h38.1V502.2H649.7v23.5Z" class="g2_1243"/>
<path d="M784.4,528.3V502.2M438.5,551.7V528.3m202.4,23.4V528.3m143.5,23.4V528.3M438.5,575.1V551.7m202.4,23.4V551.7m143.5,23.4V551.7M438.5,601.2V575.1m202.4,26.1V575.1" class="g1_1243"/>
<path d="M649.7,598.6h82.9V575.1H649.7v23.5Z" class="g2_1243"/>
<path d="M784.4,601.2V575.1M438.5,624.6V601.2m202.4,23.4V601.2m143.5,23.4V601.2M438.5,648V624.6M640.9,648V624.6M784.4,648V624.6M438.5,675.7V648m202.4,27.7V648" class="g1_1243"/>
<path d="M649.7,675.7h126V648h-126v27.7Z" class="g2_1243"/>
<path d="M784.4,675.7V648M438.5,699V675.7M640.9,699V675.7M784.4,699V675.7M438.5,722.4V699m202.4,23.4V699m143.5,23.4V699M438.5,748.1V722.4m202.4,25.7V722.4" class="g1_1243"/>
<path d="M649.7,748.1h72.7V725.3H649.7v22.8Z" class="g2_1243"/>
<path d="M784.4,748.1V722.4M438.5,771.5V748.1m202.4,23.4V748.1m143.5,23.4V748.1M438.5,771.8H784.4M802,111h251.5M802,134.7V111.3m95.3,23.4V111.3m156.2,23.4V111.3M802,162.4V134.7m95.3,27.7V134.7" class="g1_1243"/>
<path d="M906.1,162.4h77V134.7h-77v27.7Z" class="g2_1243"/>
<path d="M1053.5,162.4V134.7M802,185.8V162.4m95.3,23.4V162.4m156.2,23.4V162.4M802,209.2V185.8m95.3,23.4V185.8m156.2,23.4V185.8M802,233.3V209.2m95.3,24.1V209.2" class="g1_1243"/>
<path d="M906.1,230.7h73.5V212H906.1v18.7Z" class="g2_1243"/>
<path d="M1053.5,233.3V209.2M802,256.7V233.3m95.3,23.4V233.3m156.2,23.4V233.3M802,280V256.7M897.3,280V256.7M1053.5,280V256.7M802,307.7V280m95.3,27.7V280" class="g1_1243"/>
<path d="M906.1,307.7h44.1V280H906.1v27.7Z" class="g2_1243"/>
<path d="M1053.5,307.7V280M802,331.1V307.7m95.3,23.4V307.7m156.2,23.4V307.7M802,354.5V331.1m95.3,23.4V331.1m156.2,23.4V331.1M802,380.6V354.5m95.3,26.1V354.5" class="g1_1243"/>
<path d="M906.1,378h117.4V354.5H906.1V378Z" class="g2_1243"/>
<path d="M1053.5,380.6V354.5M802,404V380.6M897.3,404V380.6M1053.5,404V380.6M802,427.4V404m95.3,23.4V404m156.2,23.4V404M802,453.5V427.4m95.3,26.1V427.4" class="g1_1243"/>
<path d="M906.1,450.9h65.1V427.4H906.1v23.5Z" class="g2_1243"/>
<path d="M1053.5,453.5V427.4M802,476.9V453.5m95.3,23.4V453.5m156.2,23.4V453.5M802,500.2V476.9m95.3,23.3V476.9m156.2,23.3V476.9M802,527.9V500.2m95.3,27.7V500.2" class="g1_1243"/>
<path d="M906.1,527.9h83.6V500.2H906.1v27.7Z" class="g2_1243"/>
<path d="M1053.5,527.9V500.2M802,551.3V527.9m95.3,23.4V527.9m156.2,23.4V527.9M802,574.7V551.3m95.3,23.4V551.3m156.2,23.4V551.3M802,600.8V574.7m95.3,26.1V574.7" class="g1_1243"/>
<path d="M906.1,598.2h76.8V574.7H906.1v23.5Z" class="g2_1243"/>
<path d="M1053.5,600.8V574.7M802,624.2V600.8m95.3,23.4V600.8m156.2,23.4V600.8M802,647.6V624.2m95.3,23.4V624.2m156.2,23.4V624.2M802,673.7V647.6m95.3,26.1V647.6" class="g1_1243"/>
<path d="M906.1,671.1h138.6V647.6H906.1v23.5Z" class="g2_1243"/>
<path d="M1053.5,673.7V647.6M802,697.1V673.7m95.3,23.4V673.7m156.2,23.4V673.7M802,720.4V697.1m95.3,23.3V697.1m156.2,23.3V697.1M802,746.6V720.4m95.3,26.2V720.4" class="g1_1243"/>
<path d="M906.1,743.9H954V720.4H906.1v23.5Z" class="g2_1243"/>
<path d="M1053.5,746.6V720.4M802,769.9V746.6m95.3,23.3V746.6m156.2,23.3V746.6M802,770.2h251.5" class="g1_1243"/>
</svg>