<?xml version="1.0" encoding="UTF-8" standalone="no"?>
<!DOCTYPE svg PUBLIC "-//W3C//DTD SVG 1.1//EN"
"http://www.w3.org/Graphics/SVG/1.1/DTD/svg11.dtd">
<svg viewBox="0 0 1286 909" version="1.1" xmlns="http://www.w3.org/2000/svg" xmlns:xlink="http://www.w3.org/1999/xlink">
<defs>
<style type="text/css"><![CDATA[
.g0_1245{
fill: none;
stroke: #000000;
stroke-width: 0.73;
stroke-linecap: butt;
stroke-linejoin: miter;
}
.g1_1245{
fill: none;
stroke: #000000;
stroke-width: 0.657;
stroke-linecap: butt;
stroke-linejoin: miter;
}
.g2_1245{
fill: #FDE8E9;
}
]]></style>
</defs>
<path d="M193,83.4h900.3" class="g0_1245"/>
<path d="M202.8,111.3H481.1M202.8,137.9V111.6m107.3,26.3V111.6m171,26.3V111.6M202.8,167.3V137.9m107.3,29.4V137.9" class="g1_1245"/>
<path d="M320,164.3h68.9V137.9H320v26.4Z" class="g2_1245"/>
<path d="M481.1,167.3V137.9M202.8,193.6V167.3m107.3,26.3V167.3m171,26.3V167.3M202.8,219.9V193.6m107.3,26.3V193.6m171,26.3V193.6M202.8,249.3V219.9m107.3,29.4V219.9" class="g1_1245"/>
<path d="M320,246.3H428.8V219.9H320v26.4Z" class="g2_1245"/>
<path d="M481.1,249.3V219.9M202.8,275.6V249.3m107.3,26.3V249.3m171,26.3V249.3M202.8,301.9V275.6m107.3,26.3V275.6m171,26.3V275.6M202.8,333V301.9M310.1,333V301.9" class="g1_1245"/>
<path d="M320,333h82.5V301.9H320V333Z" class="g2_1245"/>
<path d="M481.1,333V301.9M202.8,359.3V333m107.3,26.3V333m171,26.3V333M202.8,385.6V359.3m107.3,26.3V359.3m171,26.3V359.3M202.8,415V385.6M310.1,415V385.6" class="g1_1245"/>
<path d="M320,412h66.6V385.6H320V412Z" class="g2_1245"/>
<path d="M481.1,415V385.6M202.8,441.3V415m107.3,26.3V415m171,26.3V415M202.8,467.6V441.3m107.3,26.3V441.3m171,26.3V441.3M202.8,498.8V467.6m107.3,31.2V467.6" class="g1_1245"/>
<path d="M320,498.8H443.6V467.6H320v31.2Z" class="g2_1245"/>
<path d="M481.1,498.8V467.6M202.8,525.1V498.8m107.3,26.3V498.8m171,26.3V498.8M202.8,551.4V525.1m107.3,26.3V525.1m171,26.3V525.1M202.8,578.5V551.4m107.3,27.1V551.4" class="g1_1245"/>
<path d="M320,575.6h65.3v-21H320v21Z" class="g2_1245"/>
<path d="M481.1,578.5V551.4M202.8,604.8V578.5m107.3,26.3V578.5m171,26.3V578.5M202.8,631.1V604.8m107.3,26.3V604.8m171,26.3V604.8M202.8,660.5V631.1m107.3,29.4V631.1" class="g1_1245"/>
<path d="M320,657.5H471.2V631.1H320v26.4Z" class="g2_1245"/>
<path d="M481.1,660.5V631.1M202.8,686.8V660.5m107.3,26.3V660.5m171,26.3V660.5M202.8,687.1H481.1M500.8,110.4H779.1M500.8,137V110.7M640.9,137V110.7M779.1,137V110.7M500.8,166.4V137m140.1,29.4V137" class="g1_1245"/>
<path d="M650.8,163.4h50.8V137H650.8v26.4Z" class="g2_1245"/>
<path d="M779.1,166.4V137M500.8,192.7V166.4m140.1,26.3V166.4m138.2,26.3V166.4M500.8,219V192.7M640.9,219V192.7M779.1,219V192.7M500.8,248.4V219m140.1,29.4V219" class="g1_1245"/>
<path d="M650.8,245.4h71.5V219H650.8v26.4Z" class="g2_1245"/>
<path d="M779.1,248.4V219M500.8,274.7V248.4m140.1,26.3V248.4m138.2,26.3V248.4M500.8,301V274.7M640.9,301V274.7M779.1,301V274.7M500.8,332.1V301m140.1,31.1V301" class="g1_1245"/>
<path d="M650.8,332.1H763.4V301H650.8v31.1Z" class="g2_1245"/>
<path d="M779.1,332.1V301M500.8,358.4V332.1m140.1,26.3V332.1m138.2,26.3V332.1M500.8,384.7V358.4m140.1,26.3V358.4m138.2,26.3V358.4M500.8,415.9V384.7m140.1,31.2V384.7" class="g1_1245"/>
<path d="M650.8,415.9h62.6V384.7H650.8v31.2Z" class="g2_1245"/>
<path d="M779.1,415.9V384.7M500.8,442.2V415.9m140.1,26.3V415.9m138.2,26.3V415.9M500.8,468.5V442.2m140.1,26.3V442.2m138.2,26.3V442.2M500.8,497.9V468.5m140.1,29.4V468.5" class="g1_1245"/>
<path d="M650.8,494.9h75.6V468.5H650.8v26.4Z" class="g2_1245"/>
<path d="M779.1,497.9V468.5M500.8,524.2V497.9m140.1,26.3V497.9m138.2,26.3V497.9M500.8,550.5V524.2m140.1,26.3V524.2m138.2,26.3V524.2M500.8,577.6V550.5m140.1,27.1V550.5" class="g1_1245"/>
<path d="M650.8,574.7h57v-21h-57v21Z" class="g2_1245"/>
<path d="M779.1,577.6V550.5M500.8,603.9V577.6m140.1,26.3V577.6m138.2,26.3V577.6M500.8,630.2V603.9m140.1,26.3V603.9m138.2,26.3V603.9M500.8,661.4V630.2m140.1,31.2V630.2" class="g1_1245"/>
<path d="M650.8,661.4H769.2V630.2H650.8v31.2Z" class="g2_1245"/>
<path d="M779.1,661.4V630.2M500.8,687.7V661.4m140.1,26.3V661.4m138.2,26.3V661.4M500.8,688H779.1M798.8,109.5h221.4M798.8,136.1V109.8m63.5,26.3V109.8m157.9,26.3V109.8M798.8,165.5V136.1m63.5,29.4V136.1" class="g1_1245"/>
<path d="M872.2,162.5h81.1V136.1H872.2v26.4Z" class="g2_1245"/>
<path d="M1020.2,165.5V136.1M798.8,191.8V165.5m63.5,26.3V165.5m157.9,26.3V165.5M798.8,218.1V191.8m63.5,26.3V191.8m157.9,26.3V191.8M798.8,247V218.1M862.3,247V218.1" class="g1_1245"/>
<path d="M872.2,247H931V221.3H872.2V247Z" class="g2_1245"/>
<path d="M1020.2,247V218.1M798.8,273.3V247m63.5,26.3V247m157.9,26.3V247M798.8,299.6V273.3m63.5,26.3V273.3m157.9,26.3V273.3M798.8,330.8V299.6m63.5,31.2V299.6" class="g1_1245"/>
<path d="M872.2,330.8h130.6V299.6H872.2v31.2Z" class="g2_1245"/>
<path d="M1020.2,330.8V299.6M798.8,357.1V330.8m63.5,26.3V330.8m157.9,26.3V330.8M798.8,383.4V357.1m63.5,26.3V357.1m157.9,26.3V357.1M798.8,412.8V383.4m63.5,29.4V383.4" class="g1_1245"/>
<path d="M872.2,409.8h96.6V383.4H872.2v26.4Z" class="g2_1245"/>
<path d="M1020.2,412.8V383.4M798.8,439.1V412.8m63.5,26.3V412.8m157.9,26.3V412.8M798.8,465.4V439.1m63.5,26.3V439.1m157.9,26.3V439.1M798.8,494.8V465.4m63.5,29.4V465.4" class="g1_1245"/>
<path d="M872.2,491.8H976.7V465.4H872.2v26.4Z" class="g2_1245"/>
<path d="M1020.2,494.8V465.4M798.8,521.1V494.8m63.5,26.3V494.8m157.9,26.3V494.8M798.8,547.4V521.1m63.5,26.3V521.1m157.9,26.3V521.1M798.8,578.5V547.4m63.5,31.1V547.4" class="g1_1245"/>
<path d="M872.2,578.5h116V547.4h-116v31.1Z" class="g2_1245"/>
<path d="M1020.2,578.5V547.4M798.8,604.8V578.5m63.5,26.3V578.5m157.9,26.3V578.5M798.8,631.1V604.8m63.5,26.3V604.8m157.9,26.3V604.8M798.8,662.3V631.1m63.5,31.2V631.1" class="g1_1245"/>
<path d="M872.2,662.3h138.2V631.1H872.2v31.2Z" class="g2_1245"/>
<path d="M1020.2,662.3V631.1M798.8,688.6V662.3m63.5,26.3V662.3m157.9,26.3V662.3M798.8,688.9h221.4" class="g1_1245"/>
</svg>