<?xml version="1.0" encoding="UTF-8" standalone="no"?>
<!DOCTYPE svg PUBLIC "-//W3C//DTD SVG 1.1//EN"
"http://www.w3.org/Graphics/SVG/1.1/DTD/svg11.dtd">
<svg viewBox="0 0 1286 909" version="1.1" xmlns="http://www.w3.org/2000/svg" xmlns:xlink="http://www.w3.org/1999/xlink">
<defs>
<style type="text/css"><![CDATA[
.g0_83{
fill: none;
stroke: #000000;
stroke-width: 0.73;
stroke-linecap: butt;
stroke-linejoin: miter;
}
.g1_83{
fill: none;
stroke: #02B5EE;
stroke-width: 1.262;
stroke-linecap: butt;
stroke-linejoin: miter;
}
.g2_83{
fill: none;
stroke: #5EE200;
stroke-width: 1.262;
stroke-linecap: butt;
stroke-linejoin: miter;
}
.g3_83{
fill: none;
stroke: #5EE200;
stroke-width: 0.73;
stroke-linecap: butt;
stroke-linejoin: miter;
}
.g4_83{
fill: none;
stroke: #02B5EE;
stroke-width: 0.73;
stroke-linecap: butt;
stroke-linejoin: miter;
}
.g5_83{
fill: #B3E9FA;
}
]]></style>
</defs>
<path d="M193,83.4h900.3M193,210.6H992.7m-799.7,0H992.7M609.4,240.2V211m0,58.5V240.2m0,114.3v-85" class="g0_83"/>
<path d="M765.9,330.5H948.8" class="g1_83"/>
<path d="M959.3,330.5h22.5" class="g2_83"/>
<path d="M609.4,383.7V354.5m0,102.3V383.7" class="g0_83"/>
<path d="M620.3,442.9h34.5" class="g3_83"/>
<path d="M660.9,442.9H981.8" class="g4_83"/>
<path d="M609.4,486V456.8m0,58.4V486m0,114.2v-85" class="g0_83"/>
<path d="M690.5,550.5V538.2c0,-2.8,2.4,-5.1,5.2,-5.1h60.2c2.9,0,5.2,2.3,5.2,5.1v12.3c0,2.8,-2.3,5.1,-5.2,5.1H695.7c-2.8,0,-5.2,-2.3,-5.2,-5.1Z" class="g5_83"/>
<path d="M687.9,576.2h75.8" class="g1_83"/>
<path d="M774.2,576.2H981.8" class="g2_83"/>
<path d="M609.4,629.5V600.2m0,58.5V629.5m0,58.4V658.7M193,688.3H992.7m-799.7,0H992.7" class="g0_83"/>
</svg>