<?xml version="1.0" encoding="UTF-8" standalone="no"?>
<!DOCTYPE svg PUBLIC "-//W3C//DTD SVG 1.1//EN"
"http://www.w3.org/Graphics/SVG/1.1/DTD/svg11.dtd">
<svg viewBox="0 0 909 1286" version="1.1" xmlns="http://www.w3.org/2000/svg" xmlns:xlink="http://www.w3.org/1999/xlink">
<defs>
<style type="text/css"><![CDATA[
.g0_58{
fill: none;
stroke: #000000;
stroke-width: 0.73;
stroke-linecap: butt;
stroke-linejoin: miter;
}
.g1_58{
fill: #E81A58;
}
.g2_58{
fill: #401A1A;
}
]]></style>
</defs>
<path d="M116.9,159.9H792.5" class="g0_58"/>
<path d="M116.9,303.6V179.5H792.5v84.9c0,21.7,-17.5,39.2,-39.1,39.2Z" class="g1_58"/>
<path d="M119.5,301V179.5H789.9v84.9c0,20.2,-16.3,36.6,-36.5,36.6Z" class="g2_58"/>
<path d="M116.9,930.3V459.6c0,-21.6,17.6,-39.1,39.2,-39.1H792.5V891.2c0,21.6,-17.5,39.1,-39.1,39.1Z" class="g1_58"/>
<path d="M119.5,927.7V456.3H789.9V891.2c0,20.1,-16.3,36.5,-36.5,36.5Z" class="g2_58"/>
<path d="M116.9,1116.8v-88.9c0,-21.6,17.6,-39.2,39.2,-39.2H792.5v128.1Z" class="g1_58"/>
<path d="M119.5,1116.8v-92.2H789.9v92.2Z" class="g2_58"/>
</svg>