<?xml version="1.0" encoding="UTF-8" standalone="no"?>
<!DOCTYPE svg PUBLIC "-//W3C//DTD SVG 1.1//EN"
"http://www.w3.org/Graphics/SVG/1.1/DTD/svg11.dtd">
<svg viewBox="0 0 1286 909" version="1.1" xmlns="http://www.w3.org/2000/svg" xmlns:xlink="http://www.w3.org/1999/xlink">
<defs>
<style type="text/css"><![CDATA[
.g0_306{
fill: none;
stroke: #000000;
stroke-width: 0.73;
stroke-linecap: butt;
stroke-linejoin: miter;
}
.g1_306{
fill: none;
stroke: #02B5EE;
stroke-width: 1.262;
stroke-linecap: butt;
stroke-linejoin: miter;
}
.g2_306{
fill: none;
stroke: #5EE200;
stroke-width: 1.262;
stroke-linecap: butt;
stroke-linejoin: miter;
}
.g3_306{
fill: none;
stroke: #FFA313;
stroke-width: 1.262;
stroke-linecap: butt;
stroke-linejoin: miter;
}
.g4_306{
fill: none;
stroke: #5EE200;
stroke-width: 0.73;
stroke-linecap: butt;
stroke-linejoin: miter;
}
.g5_306{
fill: none;
stroke: #FFA313;
stroke-width: 0.73;
stroke-linecap: butt;
stroke-linejoin: miter;
}
.g6_306{
fill: none;
stroke: #02B5EE;
stroke-width: 0.73;
stroke-linecap: butt;
stroke-linejoin: miter;
}
]]></style>
</defs>
<path d="M193,83.4h900.3M193,210.6H680.2m-487.2,0H680.2M333,240.2V211m0,58.5V240.2m0,114.3v-85" class="g0_306"/>
<path d="M482,330.5h49" class="g1_306"/>
<path d="M541.5,330.5h22.4" class="g2_306"/>
<path d="M574.4,330.5h94.9" class="g3_306"/>
<path d="M333,383.7V354.5m0,102.3V383.7" class="g0_306"/>
<path d="M516.6,442.9H551" class="g4_306"/>
<path d="M551,442.9h84.5" class="g5_306"/>
<path d="M635.5,442.9h33.8" class="g6_306"/>
<path d="M333,486V456.8m0,58.4V486m0,60.5V515.2m0,60.6V546.5M193,576.1H680.2m-487.2,0H680.2" class="g0_306"/>
</svg>