<?xml version="1.0" encoding="UTF-8" standalone="no"?>
<!DOCTYPE svg PUBLIC "-//W3C//DTD SVG 1.1//EN"
"http://www.w3.org/Graphics/SVG/1.1/DTD/svg11.dtd">
<svg viewBox="0 0 1286 909" version="1.1" xmlns="http://www.w3.org/2000/svg" xmlns:xlink="http://www.w3.org/1999/xlink">
<defs>
<style type="text/css"><![CDATA[
.g0_1010{
fill: none;
stroke: #000000;
stroke-width: 0.73;
stroke-linecap: butt;
stroke-linejoin: miter;
}
.g1_1010{
fill: #F81693;
}
.g2_1010{
fill: #FFE6E6;
}
.g3_1010{
fill: none;
stroke: #F81693;
stroke-width: 1.461;
stroke-linecap: butt;
stroke-linejoin: miter;
stroke-dasharray: 2,2;
}
.g4_1010{
fill: #FFCCCC;
}
]]></style>
</defs>
<path d="M193,83.4h900.3M193,210.6H844.9m-651.9,0H844.9M483.5,240.2V211m0,58.5V240.2m0,80.8V269.5" class="g0_1010"/>
<path d="M551.1,313.2v-36c0,-4.3,3.5,-7.8,7.8,-7.8h83.6c4.3,0,7.8,3.5,7.8,7.8v36c0,4.3,-3.5,7.8,-7.8,7.8H558.9c-4.3,0,-7.8,-3.5,-7.8,-7.8Z" class="g1_1010"/>
<path d="M553.7,313.2v-36c0,-2.8,2.4,-5.2,5.2,-5.2h83.6c2.8,0,5.2,2.4,5.2,5.2v36c0,2.9,-2.4,5.2,-5.2,5.2H558.9c-2.8,0,-5.2,-2.3,-5.2,-5.2Z" class="g2_1010"/>
<path d="M713.3,311.1V285.9c0,-4.3,3.5,-7.8,7.8,-7.8h40.6c4.3,0,7.8,3.5,7.8,7.8v25.2c0,4.3,-3.5,7.8,-7.8,7.8H721.1c-4.3,0,-7.8,-3.5,-7.8,-7.8Z" class="g1_1010"/>
<path d="M715.9,311.1V285.9c0,-2.9,2.3,-5.2,5.2,-5.2h40.6c2.9,0,5.2,2.3,5.2,5.2v25.2c0,2.9,-2.3,5.2,-5.2,5.2H721.1c-2.9,0,-5.2,-2.3,-5.2,-5.2Z" class="g2_1010"/>
<path d="M783.6,308.7h46.7" class="g3_1010"/>
<path d="M483.5,350.3V321m0,62.1V350.3" class="g0_1010"/>
<path d="M507.8,378.8H609.3" class="g3_1010"/>
<path d="M619,383.1H760.3V350.3H619v32.8Z" class="g4_1010"/>
<path d="M483.5,412.4V383.1m0,60.6V412.4m0,62.6V443.7m0,60.5V475m0,58.5V504.2m0,80.8V533.5" class="g0_1010"/>
<path d="M529.8,577.2V541.3c0,-4.4,3.5,-7.8,7.8,-7.8h83.5c4.3,0,7.8,3.4,7.8,7.8v35.9c0,4.3,-3.5,7.8,-7.8,7.8H537.6c-4.3,0,-7.8,-3.5,-7.8,-7.8Z" class="g1_1010"/>
<path d="M532.4,577.2V541.3c0,-2.9,2.3,-5.2,5.2,-5.2h83.5c2.9,0,5.2,2.3,5.2,5.2v35.9c0,2.9,-2.3,5.2,-5.2,5.2H537.6c-2.9,0,-5.2,-2.3,-5.2,-5.2Z" class="g2_1010"/>
<path d="M713.3,575.1V549.9c0,-4.3,3.5,-7.8,7.8,-7.8h40.6c4.3,0,7.8,3.5,7.8,7.8v25.2c0,4.3,-3.5,7.8,-7.8,7.8H721.1c-4.3,0,-7.8,-3.5,-7.8,-7.8Z" class="g1_1010"/>
<path d="M715.9,575.1V549.9c0,-2.9,2.3,-5.2,5.2,-5.2h40.6c2.9,0,5.2,2.3,5.2,5.2v25.2c0,2.9,-2.3,5.2,-5.2,5.2H721.1c-2.9,0,-5.2,-2.3,-5.2,-5.2Z" class="g2_1010"/>
<path d="M783.6,572.7h46.7" class="g3_1010"/>
<path d="M483.5,614.3V585m0,62.1V614.3" class="g0_1010"/>
<path d="M507.8,642.8H626.1" class="g3_1010"/>
<path d="M635.9,647.1H777.2V614.3H635.9v32.8Z" class="g4_1010"/>
<path d="M483.5,676.4V647.1m0,60.6V676.4m0,60.5V707.7M193,737.3H844.9m-651.9,0H844.9" class="g0_1010"/>
</svg>