<?xml version="1.0" encoding="UTF-8" standalone="no"?>
<!DOCTYPE svg PUBLIC "-//W3C//DTD SVG 1.1//EN"
"http://www.w3.org/Graphics/SVG/1.1/DTD/svg11.dtd">
<svg viewBox="0 0 1286 909" version="1.1" xmlns="http://www.w3.org/2000/svg" xmlns:xlink="http://www.w3.org/1999/xlink">
<defs>
<style type="text/css"><![CDATA[
.g0_560{
fill: none;
stroke: #000000;
stroke-width: 0.73;
stroke-linecap: butt;
stroke-linejoin: miter;
}
.g1_560{
fill: #B3E9FA;
}
.g2_560{
fill: none;
stroke: #02B5EE;
stroke-width: 1.262;
stroke-linecap: butt;
stroke-linejoin: miter;
}
.g3_560{
fill: none;
stroke: #5EE200;
stroke-width: 1.262;
stroke-linecap: butt;
stroke-linejoin: miter;
}
.g4_560{
fill: #FFCCCC;
}
.g5_560{
fill: none;
stroke: #02B5EE;
stroke-width: 0.73;
stroke-linecap: butt;
stroke-linejoin: miter;
}
]]></style>
</defs>
<path d="M193,83.4h900.3M193,210.6H956.1m-763.1,0H956.1M479,240.2V211m0,58.5V240.2m0,114.3v-85" class="g0_560"/>
<path d="M694.8,304.7V292.5c0,-2.9,2.4,-5.2,5.2,-5.2H802.3c2.9,0,5.2,2.3,5.2,5.2v12.2c0,2.9,-2.3,5.2,-5.2,5.2H700c-2.8,0,-5.2,-2.3,-5.2,-5.2Z" class="g1_560"/>
<path d="M692.2,330.5H810.1" class="g2_560"/>
<path d="M820.6,330.5H945.1" class="g3_560"/>
<path d="M479,383.7V354.5m0,58.4V383.7M479,498V412.9" class="g0_560"/>
<path d="M735.7,474h79.7" class="g2_560"/>
<path d="M836.4,462.2H945.1V429.4H836.4v32.8Z" class="g4_560"/>
<path d="M479,527.2V498m0,102.2v-73" class="g0_560"/>
<path d="M490,576.5H742.4V543.6H490v32.9Z" class="g4_560"/>
<path d="M742.4,586.4H945.1" class="g5_560"/>
<path d="M479,629.5V600.2m0,58.5V629.5m0,58.4V658.7M193,688.3H956.1m-763.1,0H956.1" class="g0_560"/>
</svg>