<?xml version="1.0" encoding="UTF-8" standalone="no"?>
<!DOCTYPE svg PUBLIC "-//W3C//DTD SVG 1.1//EN"
"http://www.w3.org/Graphics/SVG/1.1/DTD/svg11.dtd">
<svg viewBox="0 0 1286 909" version="1.1" xmlns="http://www.w3.org/2000/svg" xmlns:xlink="http://www.w3.org/1999/xlink">
<defs>
<style type="text/css"><![CDATA[
.g0_764{
fill: none;
stroke: #000000;
stroke-width: 0.73;
stroke-linecap: butt;
stroke-linejoin: miter;
}
.g1_764{
fill: #E6CDEE;
}
.g2_764{
fill: none;
stroke: #02B5EE;
stroke-width: 1.262;
stroke-linecap: butt;
stroke-linejoin: miter;
}
.g3_764{
fill: none;
stroke: #5EE200;
stroke-width: 1.461;
stroke-linecap: butt;
stroke-linejoin: miter;
stroke-dasharray: 2,2;
}
.g4_764{
fill: #AEF080;
}
.g5_764{
fill: none;
stroke: #FFA313;
stroke-width: 1.262;
stroke-linecap: butt;
stroke-linejoin: miter;
}
.g6_764{
fill: none;
stroke: #FFA313;
stroke-width: 0.73;
stroke-linecap: butt;
stroke-linejoin: miter;
}
.g7_764{
fill: none;
stroke: #02B5EE;
stroke-width: 0.73;
stroke-linecap: butt;
stroke-linejoin: miter;
}
.g8_764{
fill: #FFF7A4;
}
]]></style>
</defs>
<path d="M193,83.4h900.3M193,111.6H915.6m-722.6,0H915.6M555.3,141.2V112m0,58.5V141.2m0,58.5V170.5m0,114.3V199.7" class="g0_764"/>
<path d="M600.5,250.3V207.5c0,-2.9,2.3,-5.2,5.2,-5.2H734.8c2.9,0,5.2,2.3,5.2,5.2v42.8c0,2.9,-2.3,5.2,-5.2,5.2H605.7c-2.9,0,-5.2,-2.3,-5.2,-5.2Z" class="g1_764"/>
<path d="M742.6,260.8h22.7" class="g2_764"/>
<path d="M779.4,242.7h35" class="g3_764"/>
<path d="M828.6,249.1h76.1V216.2H828.6v32.9Z" class="g4_764"/>
<path d="M775.8,260.8H904.7" class="g5_764"/>
<path d="M555.3,315V284.8m0,103.2V315" class="g0_764"/>
<path d="M612.9,364.3H758V331.4H612.9v32.9Z" class="g4_764"/>
<path d="M761.7,359.9h48.8" class="g3_764"/>
<path d="M612.9,374.1H814.1" class="g6_764"/>
<path d="M820.2,374.1h84.5" class="g7_764"/>
<path d="M555.3,417.2V388m0,58.5V417.2m0,60.6V446.5m0,62.6V477.8m0,60.5V509.1m0,58.5V538.3m0,64.1V567.6" class="g0_764"/>
<path d="M688.7,602.4h89.4V569.5H688.7v32.9Z" class="g8_764"/>
<path d="M555.3,632.6V602.4m0,63V632.6" class="g0_764"/>
<path d="M825.5,665.4h79.2V632.6H825.5v32.8Z" class="g8_764"/>
<path d="M555.3,694.7V665.4M193,695H915.6M193,695H915.6" class="g0_764"/>
</svg>