<?xml version="1.0" encoding="UTF-8" standalone="no"?>
<!DOCTYPE svg PUBLIC "-//W3C//DTD SVG 1.1//EN"
"http://www.w3.org/Graphics/SVG/1.1/DTD/svg11.dtd">
<svg viewBox="0 0 1286 909" version="1.1" xmlns="http://www.w3.org/2000/svg" xmlns:xlink="http://www.w3.org/1999/xlink">
<defs>
<style type="text/css"><![CDATA[
.g0_791{
fill: none;
stroke: #000000;
stroke-width: 0.73;
stroke-linecap: butt;
stroke-linejoin: miter;
}
.g1_791{
fill: none;
stroke: #02B5EE;
stroke-width: 1.262;
stroke-linecap: butt;
stroke-linejoin: miter;
}
.g2_791{
fill: none;
stroke: #02B5EE;
stroke-width: 0.73;
stroke-linecap: butt;
stroke-linejoin: miter;
}
.g3_791{
fill: #B3E9FA;
}
.g4_791{
fill: none;
stroke: #5EE200;
stroke-width: 1.262;
stroke-linecap: butt;
stroke-linejoin: miter;
}
]]></style>
</defs>
<path d="M193,83.4h900.3M193,210.6h848.9m-848.9,0h848.9M651.7,240.2V211m0,58.5V240.2m0,114.3v-85" class="g0_791"/>
<path d="M808.3,330.5h59.1" class="g1_791"/>
<path d="M651.7,383.7V354.5m0,102.3V383.7" class="g0_791"/>
<path d="M997.1,442.9h33.8" class="g2_791"/>
<path d="M651.7,486V456.8m0,58.4V486m0,114.2v-85" class="g0_791"/>
<path d="M665.2,550.5V538.2c0,-2.8,2.4,-5.1,5.2,-5.1h55.8c2.9,0,5.2,2.3,5.2,5.1v12.3c0,2.8,-2.3,5.1,-5.2,5.1H670.4c-2.8,0,-5.2,-2.3,-5.2,-5.1Z" class="g3_791"/>
<path d="M662.6,576.2H734" class="g1_791"/>
<path d="M744.5,576.2h57.3" class="g4_791"/>
<path d="M651.7,629.5V600.2m0,58.5V629.5m0,58.4V658.7M193,688.3h848.9m-848.9,0h848.9" class="g0_791"/>
</svg>