<?xml version="1.0" encoding="UTF-8" standalone="no"?>
<!DOCTYPE svg PUBLIC "-//W3C//DTD SVG 1.1//EN"
"http://www.w3.org/Graphics/SVG/1.1/DTD/svg11.dtd">
<svg viewBox="0 0 1286 909" version="1.1" xmlns="http://www.w3.org/2000/svg" xmlns:xlink="http://www.w3.org/1999/xlink">
<defs>
<style type="text/css"><![CDATA[
.g0_847{
fill: none;
stroke: #000000;
stroke-width: 0.73;
stroke-linecap: butt;
stroke-linejoin: miter;
}
.g1_847{
fill: none;
stroke: #02B5EE;
stroke-width: 1.262;
stroke-linecap: butt;
stroke-linejoin: miter;
}
.g2_847{
fill: none;
stroke: #FFA313;
stroke-width: 1.262;
stroke-linecap: butt;
stroke-linejoin: miter;
}
.g3_847{
fill: none;
stroke: #FFA313;
stroke-width: 0.73;
stroke-linecap: butt;
stroke-linejoin: miter;
}
.g4_847{
fill: none;
stroke: #02B5EE;
stroke-width: 0.73;
stroke-linecap: butt;
stroke-linejoin: miter;
}
]]></style>
</defs>
<path d="M193,83.4h900.3M193,111.6h921.2m-921.2,0h921.2M528.6,141.2V112m0,60.6V141.2m0,60.6V172.6m0,58.4V201.8m0,114.2V231" class="g0_847"/>
<path d="M739.7,292h34.6" class="g1_847"/>
<path d="M784.8,292h318.5" class="g2_847"/>
<path d="M528.6,345.3V316m0,102.3v-73" class="g0_847"/>
<path d="M832.4,404.4h237.1" class="g3_847"/>
<path d="M1069.5,404.4h33.8" class="g4_847"/>
<path d="M528.6,447.5V418.3m0,58.5V447.5m0,114.3v-85" class="g0_847"/>
<path d="M821.1,537.8h34.6" class="g1_847"/>
<path d="M866.2,537.8h237.1" class="g2_847"/>
<path d="M528.6,591V561.8M193,591.4h921.2m-921.2,0h921.2" class="g0_847"/>
</svg>