<?xml version="1.0" encoding="UTF-8" standalone="no"?>
<!DOCTYPE svg PUBLIC "-//W3C//DTD SVG 1.1//EN"
"http://www.w3.org/Graphics/SVG/1.1/DTD/svg11.dtd">
<svg viewBox="0 0 1286 909" version="1.1" xmlns="http://www.w3.org/2000/svg" xmlns:xlink="http://www.w3.org/1999/xlink">
<defs>
<style type="text/css"><![CDATA[
.g0_833{
fill: none;
stroke: #000000;
stroke-width: 0.73;
stroke-linecap: butt;
stroke-linejoin: miter;
}
.g1_833{
fill: #B3E9FA;
}
.g2_833{
fill: none;
stroke: #02B5EE;
stroke-width: 1.262;
stroke-linecap: butt;
stroke-linejoin: miter;
}
.g3_833{
fill: none;
stroke: #5EE200;
stroke-width: 1.262;
stroke-linecap: butt;
stroke-linejoin: miter;
}
]]></style>
</defs>
<path d="M193,83.4h900.3M193,210.6H883.1m-690.1,0H883.1M577.4,240.2V211m0,58.5V240.2m0,114.3v-85" class="g0_833"/>
<path d="M590.9,304.7V292.5c0,-2.9,2.4,-5.2,5.2,-5.2h80.6c2.8,0,5.1,2.3,5.1,5.2v12.2c0,2.9,-2.3,5.2,-5.1,5.2H596.1c-2.8,0,-5.2,-2.3,-5.2,-5.2Z" class="g1_833"/>
<path d="M588.3,330.5h96.1" class="g2_833"/>
<path d="M695,330.5H872.1" class="g3_833"/>
<path d="M577.4,383.7V354.5M193,384.1H883.1m-690.1,0H883.1" class="g0_833"/>
</svg>