<?xml version="1.0" encoding="UTF-8" standalone="no"?>
<!DOCTYPE svg PUBLIC "-//W3C//DTD SVG 1.1//EN"
"http://www.w3.org/Graphics/SVG/1.1/DTD/svg11.dtd">
<svg viewBox="0 0 909 1286" version="1.1" xmlns="http://www.w3.org/2000/svg" xmlns:xlink="http://www.w3.org/1999/xlink">
<defs>
<clipPath id="c0_35"><path d="M123.1,594.6V562.8h29.1v31.8Z"/></clipPath>
<clipPath id="c1_35"><path d="M122.1,595.1V562.4H153v32.7Z"/></clipPath>
<style type="text/css"><![CDATA[
.g0_35{
fill: #FFFFFF;
}
.g1_35{
fill: none;
stroke: #000000;
stroke-width: 1.461;
stroke-linecap: butt;
stroke-linejoin: miter;
}
.g2_35{
}
.g3_35{
fill: none;
stroke: #000000;
stroke-width: 0.459;
stroke-linecap: butt;
stroke-linejoin: round;
}
.g4_35{
fill: none;
stroke: #000000;
stroke-width: 0.722;
stroke-linecap: round;
stroke-linejoin: miter;
}
.g5_35{
fill: none;
stroke: #000000;
stroke-width: 0.722;
stroke-linecap: round;
stroke-linejoin: round;
}
.g6_35{
fill: #D40000;
}
.g7_35{
fill: none;
stroke: #000000;
stroke-width: 0.578;
stroke-linecap: round;
stroke-linejoin: miter;
}
.g8_35{
fill: #E9C6AF;
}
.g9_35{
fill: none;
stroke: #695000;
stroke-width: 0.152;
stroke-linecap: round;
stroke-linejoin: round;
}
.ga_35{
fill: none;
stroke: #000000;
stroke-width: 0.73;
stroke-linecap: butt;
stroke-linejoin: miter;
}
.gb_35{
fill: none;
stroke: #000000;
stroke-width: 2.739;
stroke-linecap: butt;
stroke-linejoin: miter;
}
]]></style>
</defs>
<path d="M117.7,729V556.1H791.8V729Z" class="g0_35"/>
<path d="M117.7,729V556.1H791.8V729Z" class="g1_35"/>
<path d="M410.1,628.4h77.8m-77.4,27.8V628.4m77,27.8V628.4m-77.4,27.8h77.8m33.5,-27.8h81.2m-80.8,27.8V628.4m80.5,27.8V628.4m-80.9,27.8h81.2" class="ga_35"/>
<g clip-path="url(#c1_35)">
<path clip-path="url(#c0_35)" d="M126.4,588.2c0,0,1.5,-.9,1.2,-1.2c-.1,-.2,-.3,-.2,-.6,-.1c-1.6,.3,-5,2.1,-3.3,4.1c1.4,1.6,6.4,2.4,11.7,1.4c7.3,-1.4,13.5,-5.4,11.1,-8.3c-1.6,-1.9,-6.7,-2.1,-10.8,-2.2c-2.1,0,-6.6,-.1,-8,-1.7c-.6,-.7,-.5,-1.6,.1,-2.2c1,-.9,3.8,-1.4,4,-1.4c.7,-.2,2.5,-.5,4.6,-.4c1.1,0,2.5,0,3.2,.9c.2,.3,.4,.6,.4,.7c0,.1,0,.2,.1,.2c.1,.1,.4,.1,.5,.1c.5,-.1,1.5,-.5,2,-1c.3,-.3,.8,-.7,0,-1.6c-.9,-1,-2.3,-1.1,-4,-1.1c-2.3,-.1,-4.1,.3,-4.9,.4c-5.8,1.1,-11.1,4.6,-9,7c1.5,1.9,6.3,1.9,9,2c3.9,0,8.4,.2,9.8,2c.6,.6,.9,1.8,-.4,2.8c-1.2,.9,-4,1.7,-5.8,2.1c-4.4,.8,-9.4,.1,-10.6,-1.3c0,-.1,-.5,-.6,-.3,-1.2Z" class="g2_35"/>
<path d="M131.5,590.6l-.2,-.2l.3,-4.5c.3,-5.6,.3,-5.7,.5,-6c.1,-.2,1.6,-2.3,3.3,-4.6c1.7,-2.4,4.3,-6.1,5.9,-8.3c1.5,-2.2,2.8,-3.9,2.9,-3.9c.4,0,.1,.4,-1.8,3.2c-1.2,1.6,-3.7,5.2,-5.7,8c-2,2.9,-3.6,5.2,-3.6,5.2c0,.1,.5,.1,1,.2c2,.2,3.3,.6,4.5,1.2c.6,.3,1,.6,1.5,1.1c.8,.8,1.2,1.4,1.4,2.2c.1,.3,.1,.5,.2,.5c.1,0,.7,-.8,5.2,-7.6c2.4,-3.7,4.5,-6.7,4.6,-6.8c.2,-.2,.4,-.1,.2,.2c0,.1,-1.5,2.4,-3.2,5c-1.8,2.7,-3.8,5.7,-4.5,6.8c-1.5,2.4,-2.1,3.3,-2.3,3.8c-.2,.3,-.3,.4,-.9,.7c-.8,.4,-8.7,3.9,-8.9,4c-.1,0,-.3,0,-.4,-.2Z" class="g2_35"/>
<path d="M135.2,588.7c2.2,-1,4,-1.8,4.6,-2.1q.7,-.4,.7,-1.4c-.2,-1.7,-1.4,-3,-3.6,-3.8c-1.2,-.4,-4.3,-.8,-4.4,-.6c0,.1,-.1,1.5,-.2,3.2c-.1,1.6,-.2,3.3,-.2,3.6c-.1,1.1,.1,1.4,-.2,2.5c.1,.1,1.8,-.8,1.8,-.8c.1,0,.7,-.3,1.5,-.6Z" class="g2_35"/>
<path d="M131.5,590.6l-.2,-.2l.3,-4.5c.3,-5.6,.3,-5.7,.5,-6c.1,-.2,1.6,-2.3,3.3,-4.6c1.7,-2.4,4.3,-6.1,5.9,-8.3c1.5,-2.2,2.8,-3.9,2.9,-3.9c.4,0,.1,.4,-1.8,3.2c-1.2,1.6,-3.7,5.2,-5.7,8c-2,2.9,-3.6,5.2,-3.6,5.2c0,.1,.5,.1,1,.2c2,.2,3.3,.6,4.5,1.2c.6,.3,1,.6,1.5,1.1c.8,.8,1.2,1.4,1.4,2.2c.1,.3,.1,.5,.2,.5c.1,0,.7,-.8,5.2,-7.6c2.4,-3.7,4.5,-6.7,4.6,-6.8c.2,-.2,.4,-.1,.2,.2c0,.1,-1.5,2.4,-3.2,5c-1.8,2.7,-3.8,5.7,-4.5,6.8c-1.5,2.4,-2.1,3.3,-2.3,3.8c-.2,.3,-.3,.4,-.9,.7c-.8,.4,-8.7,3.9,-8.9,4c-.1,0,-.3,0,-.4,-.2Zm3.7,-1.9c2.2,-1,4,-1.8,4.6,-2.1q.7,-.4,.7,-1.4c-.2,-1.7,-1.4,-3,-3.6,-3.8c-1.2,-.4,-4.3,-.8,-4.4,-.6c0,.1,-.1,1.5,-.2,3.2c-.1,1.6,-.2,3.3,-.2,3.6c-.1,1.1,.1,1.4,-.2,2.5c.1,.1,1.8,-.8,1.8,-.8c.1,0,.7,-.3,1.5,-.6Z" class="g3_35"/>
<path d="M135.3,580.1L146.5,564m-8.2,17.2L149,565.5" class="g4_35"/>
<path d="M140.4,582.9l10,-14.5l.2,-.3" class="g5_35"/>
<path d="M134.1,579.7c-.4,-.1,-.8,-.2,-.9,-.2c0,0,2.5,-3.7,6.7,-9.6c1.9,-2.7,3.6,-5.2,3.8,-5.5c.2,-.4,.4,-.6,.5,-.6c.1,0,.7,.4,.9,.6c.1,.4,.1,.6,-.1,1.1c-.2,.5,-9.8,14.3,-9.9,14.3c-.1,0,-.5,-.1,-1,-.1Z" class="g6_35"/>
<path d="M137.6,580.4c-.2,-.1,-.8,-.3,-1.2,-.4l-.7,-.1l.3,-.4c.1,-.2,2.3,-3.3,4.8,-7l4.7,-6.7l.5,-.2c.9,-.5,1.6,-.5,2.1,0l.3,.3l-5,7.4c-3.1,4.5,-5.1,7.4,-5.1,7.3c-.1,0,-.4,-.1,-.7,-.2Z" class="g6_35"/>
<path d="M140,581.9c-.2,-.3,-.6,-.6,-.8,-.7c-.2,-.1,-.3,-.3,-.3,-.3c0,-.1,9.4,-14,9.8,-14.6c.1,-.1,.5,.3,.8,.8c.3,.3,.3,.5,.4,1c0,.3,0,.6,-.1,.7c-.2,.3,-9.1,13.1,-9.2,13.3q-.2,.2,-.6,-.2Z" class="g6_35"/>
<path d="M141.6,584.5c0,-.1,-.1,-.3,-.1,-.6c-.1,-.2,-.3,-.6,-.4,-.8l-.3,-.4l4.7,-6.8c2.6,-3.7,4.8,-6.8,4.8,-6.8c.4,0,1,.7,1,1.2c0,.1,-.6,1.1,-1.9,3c-1.1,1.6,-3.1,4.7,-4.6,6.8c-3,4.4,-3.1,4.6,-3.2,4.4Z" class="g6_35"/>
<path d="M131.9,586c2.3,-.1,3.6,.7,4.1,2.3" class="g7_35"/>
<path d="M132,589.9c0,-.4,.1,-.4,.1,-1.3c0,-.8,0,-1,0,-1.4c0,-.2,0,-.5,0,-.7l.1,-.2c.1,0,.6,0,.7,0c.4,.1,.8,.1,1.1,.3c.2,0,.4,.2,.6,.3c.2,.1,.3,.2,.4,.3c.3,.3,.4,.5,.6,.8c0,.1,.1,.4,.1,.4c0,0,-1.5,.7,-1.8,.8c-.1,0,-.2,.1,-.3,.1c-1.1,.6,-1.4,.8,-1.6,.8Z" class="g2_35"/>
<path d="M136.2,587.8c-.6,-1.2,-1.8,-2,-3.4,-2.1h-.6v-.5c.1,-.3,.1,-1.3,.2,-2.2c0,-1,.1,-1.8,.1,-2l.1,-.2l.7,.1c.8,0,2.3,.2,3.1,.4c1.7,.5,3.1,1.4,3.6,2.5c.4,.8,.6,2.1,.3,2.4c-.1,.2,-.8,.5,-2.5,1.3c-1.6,.7,-1.5,.7,-1.6,.3Z" class="g8_35"/>
<path d="M136.2,587.8c-.6,-1.2,-1.8,-2,-3.4,-2.1h-.6v-.5c.1,-.3,.1,-1.3,.2,-2.2c0,-1,.1,-1.8,.1,-2l.1,-.2l.7,.1c.8,0,2.3,.2,3.1,.4c1.7,.5,3.1,1.4,3.6,2.5c.4,.8,.6,2.1,.3,2.4c-.1,.2,-.8,.5,-2.5,1.3c-1.6,.7,-1.5,.7,-1.6,.3Z" class="g9_35"/>
</g>
<path d="M152.7,588H679.8" class="ga_35"/>
<path d="M137.6,595.5V719.6" class="gb_35"/>
<path d="M184.9,795.1V759m0,79.9V795.1m0,87.6V838.9m0,116.9V882.7m0,102.3V955.8m0,58.4V985m0,102.3v-73.1m0,113.4v-40.3" class="ga_35"/>
</svg>