<?xml version="1.0" encoding="UTF-8" standalone="no"?>
<!DOCTYPE svg PUBLIC "-//W3C//DTD SVG 1.1//EN"
"http://www.w3.org/Graphics/SVG/1.1/DTD/svg11.dtd">
<svg viewBox="0 0 909 1286" version="1.1" xmlns="http://www.w3.org/2000/svg" xmlns:xlink="http://www.w3.org/1999/xlink">
<defs>
<style type="text/css"><![CDATA[
.g0_140{
fill: none;
stroke: #000000;
stroke-width: 0.73;
stroke-linecap: butt;
stroke-linejoin: miter;
}
.g1_140{
fill: #7F7F7F;
fill-opacity: 0.01;
}
.g2_140{
fill: #7F7F7F;
fill-opacity: 0.02;
}
.g3_140{
fill: #7F7F7F;
fill-opacity: 0.04;
}
.g4_140{
fill: #7F7F7F;
fill-opacity: 0.07;
}
.g5_140{
fill: #7F7F7F;
fill-opacity: 0.11;
}
.g6_140{
fill: #FFFFFF;
}
.g7_140{
fill: #CBCEFB;
}
.g8_140{
fill: #E81A58;
}
.g9_140{
fill: #401A1A;
}
]]></style>
</defs>
<path d="M116.9,159.9H792.5" class="g0_140"/>
<path d="M122.2,184.8c221.7,0,443.4,0,665,0V616.3c-221.6,-9.3,-443.3,-9.3,-665,0Z" class="g1_140"/>
<path d="M122.9,185.4c221.2,0,442.4,0,663.7,0V615.7c-221.3,-9.3,-442.5,-9.3,-663.7,0Z" class="g2_140"/>
<path d="M123.5,186.1c220.8,0,441.6,0,662.5,0v429c-220.9,-9.4,-441.7,-9.4,-662.5,0Z" class="g3_140"/>
<path d="M124.1,186.7c220.4,0,440.8,0,661.2,0V614.5c-220.4,-9.4,-440.8,-9.4,-661.2,0Z" class="g4_140"/>
<path d="M124.7,187.3c220,0,440,0,660,0V613.8c-220,-9.3,-440,-9.3,-660,0Z" class="g5_140"/>
<path d="M125.4,187.9c219.5,0,439.1,0,658.7,0V613.2c-219.6,-9.3,-439.2,-9.3,-658.7,0Z" class="g5_140"/>
<path d="M126,188.6c219.1,0,438.3,0,657.5,0v424c-219.2,-9.4,-438.4,-9.4,-657.5,0Z" class="g4_140"/>
<path d="M126.6,189.2c218.8,0,437.5,0,656.3,0V612c-218.8,-9.4,-437.5,-9.4,-656.3,0Z" class="g3_140"/>
<path d="M127.2,189.8c218.4,0,436.7,0,655,0V611.3c-218.3,-9.3,-436.6,-9.3,-655,0Z" class="g2_140"/>
<path d="M127.9,190.4c217.9,0,435.8,0,653.7,0V610.7c-217.9,-9.3,-435.8,-9.3,-653.7,0Z" class="g1_140"/>
<path d="M116.9,606V179.5H792.5V606Z" class="g6_140"/>
<path d="M119.5,603.4V182.1H789.9V603.4Z" class="g6_140"/>
<path d="M404.7,198.1H504.8m-99.7,29.6V198.4" class="g0_140"/>
<path d="M405.4,227.7H504V198.4H405.4v29.3Z" class="g7_140"/>
<path d="M504.4,227.7V198.4M404.7,228H504.8m-99.7,29.6V228.4m99.3,29.2V228.4M404.7,258H504.8m-99.7,29.6V258.4m99.3,29.2V258.4m-99.7,29.5H504.8m-99.7,29.6V288.3m99.3,29.2V288.3m-99.7,29.6H504.8m-99.7,29.6V318.3m99.3,29.2V318.3m-99.7,29.5H504.8m-99.7,29.6V348.2m99.3,29.2V348.2m-99.7,29.6H504.8m-99.7,29.6V378.2m99.3,29.2V378.2m-99.7,29.6H504.8m-99.7,29.5V408.1m99.3,29.2V408.1m-99.7,29.6H504.8m-99.7,29.6V438.1m99.3,29.2V438.1m-99.7,29.6H504.8m-99.7,29.6V468m99.3,29.3V468m-99.7,29.6H504.8m-99.7,29.6V498m99.3,29.2V498m-99.7,29.6H504.8m-99.7,29.6V527.9m99.3,29.3V527.9m-99.7,29.6H504.8m-99.7,29.6V557.9m99.3,29.2V557.9m-99.7,29.6H504.8" class="g0_140"/>
<path d="M116.9,1137.2V759.4c0,-21.6,17.6,-39.2,39.2,-39.2H792.5v417Z" class="g8_140"/>
<path d="M119.5,1137.2V752.7H789.9v384.5Z" class="g9_140"/>
</svg>