<?xml version="1.0" encoding="UTF-8" standalone="no"?>
<!DOCTYPE svg PUBLIC "-//W3C//DTD SVG 1.1//EN"
"http://www.w3.org/Graphics/SVG/1.1/DTD/svg11.dtd">
<svg viewBox="0 0 909 1286" version="1.1" xmlns="http://www.w3.org/2000/svg" xmlns:xlink="http://www.w3.org/1999/xlink">
<defs>
<style type="text/css"><![CDATA[
.g0_18{
fill: none;
stroke: #000000;
stroke-width: 0.73;
stroke-linecap: butt;
stroke-linejoin: miter;
}
.g1_18{
fill: none;
stroke: #F81693;
stroke-width: 0.73;
stroke-linecap: butt;
stroke-linejoin: miter;
}
]]></style>
</defs>
<path d="M116.9,179.9H780.8m-437,29.6V180.3M201,252.2l31.2,18.7m0,36.7V271M201,326.4l31.2,-18.6M201,326.4L169.7,307.8m0,-.2V271M201,252.2l-31.3,18.7m32.4,-11l23,13.7m-23,45.1l23,-13.7m-49.3,-2.2v-27M201,252.2V226.6m0,99.8V352m142.8,27V209.5" class="g0_18"/>
<path d="M495.7,252.2L527,270.9m0,36.7V271m-31.3,55.4L527,307.8m-31.3,18.6L464.5,307.8m0,-.2V271m31.2,-18.8l-31.2,18.7m32.3,-11l23.1,13.7m-23.1,45.1L519.9,305m-49.4,-2.2v-27" class="g1_18"/>
<path d="M495.7,252.2V226.6m0,99.8V352" class="g0_18"/>
<path d="M495.7,252.2V226.6m0,99.8V352" class="g1_18"/>
<path d="M343.8,408.2V379m0,58.4V408.2m0,58.5V437.4m0,58.5V466.7m0,58.4V495.9m0,58.4V525.1m0,58.5V554.3M116.9,583.9H780.8m-437,29.6V584.3M230.2,656.4l31.2,18.7m0,36.7V675.2m-31.2,55.4L261.4,712m-31.2,18.6L199,712m0,-.2V675.2m31.2,-18.8L199,675.1m32.3,-11l23,13.7m-23,45.1l23,-13.7M205,707V680m25.2,-23.6V630.9m31.2,80.9l21.9,13.1M199,711.8l-22,13.1m166.8,67.4V613.5" class="g0_18"/>
<path d="M501.8,656.3l31.3,18.6m0,36.7V675.1m-31.3,55.3l31.3,-18.6m-31.3,18.6L470.6,711.8m0,-.2V675.1m31.2,-18.8l-31.2,18.6m32.3,-11l23,13.7m-23,45.1l23,-13.7m-49.3,-2.2v-27" class="g1_18"/>
<path d="M501.8,656.3V630.7m31.3,80.9L555,724.7M470.6,711.6l-21.9,13.1" class="g0_18"/>
<path d="M501.8,656.3V630.7m31.3,80.9L555,724.7M470.6,711.6l-21.9,13.1" class="g1_18"/>
<path d="M343.8,821.6V792.3m0,58.5V821.6m0,58.4V850.8m0,58.4V880m0,58.5V909.2m0,58.5V938.5m0,58.4V967.7M116.9,997.3H780.8" class="g0_18"/>
</svg>