<?xml version="1.0" encoding="UTF-8" standalone="no"?>
<!DOCTYPE svg PUBLIC "-//W3C//DTD SVG 1.1//EN"
"http://www.w3.org/Graphics/SVG/1.1/DTD/svg11.dtd">
<svg viewBox="0 0 909 1286" version="1.1" xmlns="http://www.w3.org/2000/svg" xmlns:xlink="http://www.w3.org/1999/xlink">
<defs>
<clipPath id="c0_152"><path d="M119.5,209.4V182.1H789.9v27.3Z"/></clipPath>
<clipPath id="c1_152"><path d="M119.5,534V506.7H789.9V534Z"/></clipPath>
<style type="text/css"><![CDATA[
.g0_152{
fill: none;
stroke: #000000;
stroke-width: 0.73;
stroke-linecap: butt;
stroke-linejoin: miter;
}
.g1_152{
fill: #7F7F7F;
fill-opacity: 0.01;
}
.g2_152{
fill: #7F7F7F;
fill-opacity: 0.02;
}
.g3_152{
fill: #7F7F7F;
fill-opacity: 0.04;
}
.g4_152{
fill: #7F7F7F;
fill-opacity: 0.07;
}
.g5_152{
fill: #7F7F7F;
fill-opacity: 0.11;
}
.g6_152{
fill: #FFFFFF;
}
.g7_152{
fill: #7F7F7F;
}
.g8_152{
fill: #CBCEFB;
}
]]></style>
</defs>
<path d="M116.9,159.9H792.5" class="g0_152"/>
<path d="M122.2,184.8c221.7,0,443.4,0,665,0v315c-221.6,-9.3,-443.3,-9.3,-665,0Z" class="g1_152"/>
<path d="M122.9,185.4c221.2,0,442.4,0,663.7,0V499.2c-221.3,-9.4,-442.5,-9.4,-663.7,0Z" class="g2_152"/>
<path d="M123.5,186.1c220.8,0,441.6,0,662.5,0V498.6c-220.9,-9.4,-441.7,-9.4,-662.5,0Z" class="g3_152"/>
<path d="M124.1,186.7c220.4,0,440.8,0,661.2,0V497.9c-220.4,-9.3,-440.8,-9.3,-661.2,0Z" class="g4_152"/>
<path d="M124.7,187.3c220,0,440,0,660,0v310c-220,-9.3,-440,-9.3,-660,0Z" class="g5_152"/>
<path d="M125.4,187.9c219.5,0,439.1,0,658.7,0V496.7c-219.6,-9.4,-439.2,-9.4,-658.7,0Z" class="g5_152"/>
<path d="M126,188.6c219.1,0,438.3,0,657.5,0V496.1c-219.2,-9.4,-438.4,-9.4,-657.5,0Z" class="g4_152"/>
<path d="M126.6,189.2c218.8,0,437.5,0,656.3,0V495.4c-218.8,-9.3,-437.5,-9.3,-656.3,0Z" class="g3_152"/>
<path d="M127.2,189.8c218.4,0,436.7,0,655,0v305c-218.3,-9.3,-436.6,-9.3,-655,0Z" class="g2_152"/>
<path d="M127.9,190.4c217.9,0,435.8,0,653.7,0V494.2c-217.9,-9.4,-435.8,-9.4,-653.7,0Z" class="g1_152"/>
<path d="M116.9,489.5v-310H792.5v310Z" class="g6_152"/>
<path d="M119.5,486.9V212H789.9V486.9Z" class="g6_152"/>
<path d="M119.5,209.4V182.1H789.9v27.3Z" class="g7_152"/>
<g clip-path="url(#c0_152)">
<image x="119" y="181" width="672" height="28" xlink:href="shade/1.png"/>
</g>
<path d="M288.8,261.3H620.7M289.2,290.9V261.7" class="g0_152"/>
<path d="M289.5,290.9H400.8V261.7H289.5v29.2Z" class="g8_152"/>
<path d="M401.2,290.9V261.7" class="g0_152"/>
<path d="M401.5,290.9H529.7V261.7H401.5v29.2Z" class="g8_152"/>
<path d="M530.1,290.9V261.7" class="g0_152"/>
<path d="M530.5,290.9h89.4V261.7H530.5v29.2Z" class="g8_152"/>
<path d="M620.3,290.9V261.7M288.8,291.2H620.7M289.2,320.8V291.6m112,29.2V291.6m128.9,29.2V291.6m90.2,29.2V291.6M288.8,321.2H620.7M289.2,350.8V321.6m112,29.2V321.6m128.9,29.2V321.6m90.2,29.2V321.6M288.8,351.2H620.7M289.2,380.7V351.5m112,29.2V351.5m128.9,29.2V351.5m90.2,29.2V351.5M288.8,381.1H620.7M289.2,410.7V381.5m112,29.2V381.5m128.9,29.2V381.5m90.2,29.2V381.5M288.8,411.1H620.7M289.2,440.6V411.4m112,29.2V411.4m128.9,29.2V411.4m90.2,29.2V411.4M288.8,441H620.7M289.2,470.6V441.4m112,29.2V441.4m128.9,29.2V441.4m90.2,29.2V441.4M288.8,471H620.7" class="g0_152"/>
<path d="M122.2,509.4c221.7,0,443.4,0,665,0V734.6c-221.6,-9.4,-443.3,-9.4,-665,0Z" class="g1_152"/>
<path d="M122.9,510.1c221.2,0,442.4,0,663.7,0V733.9c-221.3,-9.3,-442.5,-9.3,-663.7,0Z" class="g2_152"/>
<path d="M123.5,510.7c220.8,0,441.6,0,662.5,0V733.3C565.1,724,344.3,724,123.5,733.3Z" class="g3_152"/>
<path d="M124.1,511.3c220.4,0,440.8,0,661.2,0V732.7c-220.4,-9.4,-440.8,-9.4,-661.2,0Z" class="g4_152"/>
<path d="M124.7,511.9c220,0,440,0,660,0V732.1c-220,-9.4,-440,-9.4,-660,0Z" class="g5_152"/>
<path d="M125.4,512.6c219.5,0,439.1,0,658.7,0V731.4c-219.6,-9.3,-439.2,-9.3,-658.7,0Z" class="g5_152"/>
<path d="M126,513.2c219.1,0,438.3,0,657.5,0V730.8c-219.2,-9.3,-438.4,-9.3,-657.5,0Z" class="g4_152"/>
<path d="M126.6,513.8c218.8,0,437.5,0,656.3,0V730.2c-218.8,-9.4,-437.5,-9.4,-656.3,0Z" class="g3_152"/>
<path d="M127.2,514.4c218.4,0,436.7,0,655,0V729.6c-218.3,-9.4,-436.6,-9.4,-655,0Z" class="g2_152"/>
<path d="M127.9,515c217.9,0,435.8,0,653.7,0V728.9c-217.9,-9.3,-435.8,-9.3,-653.7,0Z" class="g1_152"/>
<path d="M116.9,724.3V504.1H792.5V724.3Z" class="g6_152"/>
<path d="M119.5,721.7V536.6H789.9V721.7Z" class="g6_152"/>
<path d="M119.5,534V506.7H789.9V534Z" class="g7_152"/>
<g clip-path="url(#c1_152)">
<image x="119" y="506" width="672" height="28" xlink:href="shade/2.png"/>
</g>
<path d="M353.2,585.9H556.3M353.5,615.5V586.3" class="g0_152"/>
<path d="M353.9,615.5H482.1V586.3H353.9v29.2Z" class="g8_152"/>
<path d="M482.4,615.5V586.3" class="g0_152"/>
<path d="M482.8,615.5h72.8V586.3H482.8v29.2Z" class="g8_152"/>
<path d="M555.9,615.5V586.3M353.2,615.9H556.3M353.5,645.4V616.2m128.9,29.2V616.2m73.5,29.2V616.2M353.2,645.8H556.3M353.5,675.4V646.2m128.9,29.2V646.2m73.5,29.2V646.2M353.2,675.8H556.3M353.5,705.3V676.1m128.9,29.2V676.1m73.5,29.2V676.1M353.2,705.7H556.3" class="g0_152"/>
</svg>