<?xml version="1.0" encoding="UTF-8" standalone="no"?>
<!DOCTYPE svg PUBLIC "-//W3C//DTD SVG 1.1//EN"
"http://www.w3.org/Graphics/SVG/1.1/DTD/svg11.dtd">
<svg viewBox="0 0 1286 909" version="1.1" xmlns="http://www.w3.org/2000/svg" xmlns:xlink="http://www.w3.org/1999/xlink">
<defs>
<style type="text/css"><![CDATA[
.g0_1232{
fill: none;
stroke: #000000;
stroke-width: 0.73;
stroke-linecap: butt;
stroke-linejoin: miter;
}
.g1_1232{
fill: #FDE8E9;
}
]]></style>
</defs>
<path d="M193,83.4h900.3M203.9,109.5H436M203.9,139.1V109.9m94.9,29.2V109.9M436,139.1V109.9M203.9,171.8V139.1m94.9,32.7V139.1" class="g0_1232"/>
<path d="M309.8,168.5h79.7V139.1H309.8v29.4Z" class="g1_1232"/>
<path d="M436,171.8V139.1M203.9,201V171.8M298.8,201V171.8M436,201V171.8M203.9,230.2V201m94.9,29.2V201M436,230.2V201M203.9,264.8V230.2m94.9,34.6V230.2" class="g0_1232"/>
<path d="M309.8,264.8H410.3V230.2H309.8v34.6Z" class="g1_1232"/>
<path d="M436,264.8V230.2M203.9,294V264.8M298.8,294V264.8M436,294V264.8M203.9,323.3V294m94.9,29.3V294M436,323.3V294M203.9,357.9V323.3m94.9,34.6V323.3" class="g0_1232"/>
<path d="M309.8,357.9H413V323.3H309.8v34.6Z" class="g1_1232"/>
<path d="M436,357.9V323.3M203.9,387.1V357.9m94.9,29.2V357.9M436,387.1V357.9M203.9,416.3V387.1m94.9,29.2V387.1M436,416.3V387.1M203.9,449V416.3M298.8,449V416.3" class="g0_1232"/>
<path d="M309.8,445.7h93.6V416.3H309.8v29.4Z" class="g1_1232"/>
<path d="M436,449V416.3M203.9,478.2V449m94.9,29.2V449M436,478.2V449M203.9,507.4V478.2m94.9,29.2V478.2M436,507.4V478.2M203.9,540.1V507.4m94.9,32.7V507.4" class="g0_1232"/>
<path d="M309.8,536.8h90V507.4h-90v29.4Z" class="g1_1232"/>
<path d="M436,540.1V507.4M203.9,569.3V540.1m94.9,29.2V540.1M436,569.3V540.1M203.9,598.5V569.3m94.9,29.2V569.3M436,598.5V569.3M203.9,633.1V598.5m94.9,34.6V598.5" class="g0_1232"/>
<path d="M309.8,633.1H417V598.5H309.8v34.6Z" class="g1_1232"/>
<path d="M436,633.1V598.5M203.9,662.4V633.1m94.9,29.3V633.1M436,662.4V633.1M203.9,691.6V662.4m94.9,29.2V662.4M436,691.6V662.4M203.9,724.2V691.6m94.9,32.6V691.6" class="g0_1232"/>
<path d="M309.8,720.9H425.1V691.6H309.8v29.3Z" class="g1_1232"/>
<path d="M436,724.2V691.6M203.9,753.5V724.2m94.9,29.3V724.2M436,753.5V724.2M203.9,753.8H436m22,-643H760M458,140.4V111.1m143.5,29.3V111.1M760,140.4V111.1M458,173V140.4M601.5,173V140.4" class="g0_1232"/>
<path d="M612.4,169.7h97.1V140.4H612.4v29.3Z" class="g1_1232"/>
<path d="M760,173V140.4M458,202.2V173m143.5,29.2V173M760,202.2V173M458,231.4V202.2m143.5,29.2V202.2M760,231.4V202.2M458,266.1V231.4m143.5,34.7V231.4" class="g0_1232"/>
<path d="M612.4,266.1h96.2V231.4H612.4v34.7Z" class="g1_1232"/>
<path d="M760,266.1V231.4M458,295.3V266.1m143.5,29.2V266.1M760,295.3V266.1M458,324.5V295.3m143.5,29.2V295.3M760,324.5V295.3M458,356.7V324.5m143.5,32.2V324.5" class="g0_1232"/>
<path d="M612.4,356.7H717.1V328.1H612.4v28.6Z" class="g1_1232"/>
<path d="M760,356.7V324.5M458,385.9V356.7m143.5,29.2V356.7M760,385.9V356.7M458,415.1V385.9m143.5,29.2V385.9M760,415.1V385.9M458,447.7V415.1m143.5,32.6V415.1" class="g0_1232"/>
<path d="M612.4,444.5H749.1V415.1H612.4v29.4Z" class="g1_1232"/>
<path d="M760,447.7V415.1M458,477V447.7M601.5,477V447.7M760,477V447.7M458,506.2V477m143.5,29.2V477M760,506.2V477M458,540.8V506.2m143.5,34.6V506.2" class="g0_1232"/>
<path d="M612.4,540.8h97.7V506.2H612.4v34.6Z" class="g1_1232"/>
<path d="M760,540.8V506.2M458,570V540.8M601.5,570V540.8M760,570V540.8M458,599.3V570m143.5,29.3V570M760,599.3V570M458,631.9V599.3m143.5,32.6V599.3" class="g0_1232"/>
<path d="M612.4,628.6H727.2V599.3H612.4v29.3Z" class="g1_1232"/>
<path d="M760,631.9V599.3M458,661.1V631.9m143.5,29.2V631.9M760,661.1V631.9M458,690.3V661.1m143.5,29.2V661.1M760,690.3V661.1M458,723V690.3M601.5,723V690.3" class="g0_1232"/>
<path d="M612.4,719.7h59.8V690.3H612.4v29.4Z" class="g1_1232"/>
<path d="M760,723V690.3M458,752.2V723m143.5,29.2V723M760,752.2V723M458,752.6H760M781.9,110.8h237.2M781.9,140.4V111.1m94.9,29.3V111.1m142.3,29.3V111.1M781.9,173V140.4M876.8,173V140.4" class="g0_1232"/>
<path d="M887.8,169.7h117.5V140.4H887.8v29.3Z" class="g1_1232"/>
<path d="M1019.1,173V140.4M781.9,202.2V173m94.9,29.2V173m142.3,29.2V173M781.9,231.4V202.2m94.9,29.2V202.2m142.3,29.2V202.2M781.9,263.6V231.4m94.9,32.2V231.4" class="g0_1232"/>
<path d="M887.8,263.6h53V235h-53v28.6Z" class="g1_1232"/>
<path d="M1019.1,263.6V231.4M781.9,292.8V263.6m94.9,29.2V263.6m142.3,29.2V263.6M781.9,322V292.8M876.8,322V292.8M1019.1,322V292.8M781.9,354.7V322m94.9,32.7V322" class="g0_1232"/>
<path d="M887.8,351.4h120.3V322H887.8v29.4Z" class="g1_1232"/>
<path d="M1019.1,354.7V322M781.9,383.9V354.7m94.9,29.2V354.7m142.3,29.2V354.7M781.9,413.1V383.9m94.9,29.2V383.9m142.3,29.2V383.9M781.9,447.7V413.1m94.9,34.6V413.1" class="g0_1232"/>
<path d="M887.8,447.7h72.4V413.1H887.8v34.6Z" class="g1_1232"/>
<path d="M1019.1,447.7V413.1M781.9,477V447.7M876.8,477V447.7M1019.1,477V447.7M781.9,506.2V477m94.9,29.2V477m142.3,29.2V477M781.9,538.8V506.2m94.9,32.6V506.2" class="g0_1232"/>
<path d="M887.8,535.5h119.5V506.2H887.8v29.3Z" class="g1_1232"/>
<path d="M1019.1,538.8V506.2M781.9,568.1V538.8m94.9,29.3V538.8m142.3,29.3V538.8M781.9,597.3V568.1m94.9,29.2V568.1m142.3,29.2V568.1M781.9,629.9V597.3m94.9,32.6V597.3" class="g0_1232"/>
<path d="M887.8,626.6H998.3V597.3H887.8v29.3Z" class="g1_1232"/>
<path d="M1019.1,629.9V597.3M781.9,659.2V629.9m94.9,29.3V629.9m142.3,29.3V629.9M781.9,688.4V659.2m94.9,29.2V659.2m142.3,29.2V659.2M781.9,723V688.4M876.8,723V688.4" class="g0_1232"/>
<path d="M887.8,723H993.5V688.4H887.8V723Z" class="g1_1232"/>
<path d="M1019.1,723V688.4M781.9,752.2V723m94.9,29.2V723m142.3,29.2V723M781.9,752.6h237.2" class="g0_1232"/>
</svg>