<?xml version="1.0" encoding="UTF-8" standalone="no"?>
<!DOCTYPE svg PUBLIC "-//W3C//DTD SVG 1.1//EN"
"http://www.w3.org/Graphics/SVG/1.1/DTD/svg11.dtd">
<svg viewBox="0 0 1286 909" version="1.1" xmlns="http://www.w3.org/2000/svg" xmlns:xlink="http://www.w3.org/1999/xlink">
<defs>
<style type="text/css"><![CDATA[
.g0_554{
fill: none;
stroke: #000000;
stroke-width: 0.73;
stroke-linecap: butt;
stroke-linejoin: miter;
}
.g1_554{
fill: #B3E9FA;
}
.g2_554{
fill: none;
stroke: #02B5EE;
stroke-width: 1.262;
stroke-linecap: butt;
stroke-linejoin: miter;
}
.g3_554{
fill: none;
stroke: #5EE200;
stroke-width: 1.262;
stroke-linecap: butt;
stroke-linejoin: miter;
}
.g4_554{
fill: #FFCCCC;
}
]]></style>
</defs>
<path d="M193,83.4h900.3M193,210.6H968.4m-775.4,0H968.4M533.6,240.2V211m0,58.5V240.2m0,114.3v-85" class="g0_554"/>
<path d="M735.2,304.7V292.5c0,-2.9,2.3,-5.2,5.2,-5.2h72.8c2.9,0,5.2,2.3,5.2,5.2v12.2c0,2.9,-2.3,5.2,-5.2,5.2H740.4c-2.9,0,-5.2,-2.3,-5.2,-5.2Z" class="g1_554"/>
<path d="M732.6,330.5H821" class="g2_554"/>
<path d="M831.6,330.5H957.5" class="g3_554"/>
<path d="M533.6,383.7V354.5m0,58.4V383.7m0,114.3V412.9" class="g0_554"/>
<path d="M589.5,454.5V436c0,-2.9,2.3,-5.2,5.2,-5.2H737.3c2.9,0,5.2,2.3,5.2,5.2v18.5c0,2.9,-2.3,5.2,-5.2,5.2H594.7c-2.9,0,-5.2,-2.3,-5.2,-5.2Z" class="g1_554"/>
<path d="M586.9,474H745.1" class="g2_554"/>
<path d="M755.6,474H957.5" class="g3_554"/>
<path d="M533.6,527.2V498m0,58.4V527.2m0,114.2v-85" class="g0_554"/>
<path d="M544.5,617.4h41.4" class="g2_554"/>
<path d="M596.4,617.4H834.7" class="g3_554"/>
<path d="M855.7,605.7H957.5V572.8H855.7v32.9Z" class="g4_554"/>
<path d="M533.6,670.6V641.4m0,58.5V670.6M193,700.2H968.4m-775.4,0H968.4" class="g0_554"/>
</svg>