<?xml version="1.0" encoding="UTF-8" standalone="no"?>
<!DOCTYPE svg PUBLIC "-//W3C//DTD SVG 1.1//EN"
"http://www.w3.org/Graphics/SVG/1.1/DTD/svg11.dtd">
<svg viewBox="0 0 1286 909" version="1.1" xmlns="http://www.w3.org/2000/svg" xmlns:xlink="http://www.w3.org/1999/xlink">
<defs>
<style type="text/css"><![CDATA[
.g0_367{
fill: none;
stroke: #000000;
stroke-width: 0.73;
stroke-linecap: butt;
stroke-linejoin: miter;
}
.g1_367{
fill: none;
stroke: #02B5EE;
stroke-width: 1.262;
stroke-linecap: butt;
stroke-linejoin: miter;
}
.g2_367{
fill: none;
stroke: #5EE200;
stroke-width: 1.262;
stroke-linecap: butt;
stroke-linejoin: miter;
}
.g3_367{
fill: none;
stroke: #5EE200;
stroke-width: 0.73;
stroke-linecap: butt;
stroke-linejoin: miter;
}
.g4_367{
fill: none;
stroke: #02B5EE;
stroke-width: 0.73;
stroke-linecap: butt;
stroke-linejoin: miter;
}
]]></style>
</defs>
<path d="M193,83.4h900.3M193,111.6H809.5m-616.5,0H809.5M498.7,141.2V112m0,114.3V141.2" class="g0_367"/>
<path d="M509.7,202.3h81.4" class="g1_367"/>
<path d="M601.7,202.3h22.1" class="g2_367"/>
<path d="M498.7,255.5V226.3m0,102.2v-73" class="g0_367"/>
<path d="M518.8,314.7H553" class="g3_367"/>
<path d="M714.1,314.7h84.5" class="g4_367"/>
<path d="M498.7,357.8V328.5m0,58.5V357.8m0,114.2V387" class="g0_367"/>
<path d="M585.8,448H653" class="g1_367"/>
<path d="M498.7,501.2V472m0,102.3V501.2" class="g0_367"/>
<path d="M731,560.4h67.6" class="g4_367"/>
<path d="M498.7,603.5V574.3M193,603.9H809.5m-616.5,0H809.5" class="g0_367"/>
</svg>