<?xml version="1.0" encoding="UTF-8" standalone="no"?>
<!DOCTYPE svg PUBLIC "-//W3C//DTD SVG 1.1//EN"
"http://www.w3.org/Graphics/SVG/1.1/DTD/svg11.dtd">
<svg viewBox="0 0 909 1286" version="1.1" xmlns="http://www.w3.org/2000/svg" xmlns:xlink="http://www.w3.org/1999/xlink">
<defs>
<style type="text/css"><![CDATA[
.g0_15{
fill: none;
stroke: #000000;
stroke-width: 1.972;
stroke-linecap: butt;
stroke-linejoin: miter;
}
.g1_15{
fill: none;
stroke: #000000;
stroke-width: 0.73;
stroke-linecap: butt;
stroke-linejoin: miter;
}
.g2_15{
fill: none;
stroke: #F81693;
stroke-width: 2.191;
stroke-linecap: butt;
stroke-linejoin: miter;
}
.g3_15{
fill: #C6EAFA;
}
.g4_15{
fill: #FFB3B3;
stroke: #9CD5F2;
stroke-width: 2.739;
stroke-linecap: butt;
stroke-linejoin: miter;
}
]]></style>
</defs>
<path d="M116.9,265.6H792.5m-1,165.9v-165m-674.6,166H792.5" class="g0_15"/>
<path d="M396,529.7l-31.3,18.7M396,529.7l31.2,18.7M396,603.9L364.7,585.3M396,603.9l31.2,-18.6m0,-.2V548.5m-62.5,36.6V548.5m93.7,-18.8l-31.2,18.7m31.2,-18.7l31.3,18.7m-31.3,55.5L427.2,585.3m31.2,18.6l31.3,-18.6m0,-.2V548.5m31.2,-18.8l-31.2,18.7m31.2,-18.7l31.2,18.7m0,36.7V548.5m-31.2,55.4l31.2,-18.6m-31.2,18.6L489.7,585.3M394.9,537.4l-23.1,13.7m23.1,45.1L371.8,582.5m87.7,-45.1l-23,13.7m23,45.1l-23,-13.7m58.8,-2.2v-27M522,537.4l23,13.7m-23,45.1l23,-13.7m7.1,-108.1L583.4,493m0,36.7V493.2m-31.3,55.3l31.3,-18.6m-62.5,-.2V493.2m31.2,-18.8L520.9,493M551,482.1l-23,13.7M577.3,525V497.9" class="g1_15"/>
<path d="M299.7,568.5H611.6" class="g2_15"/>
<path d="M455.6,568.5V464.6h156V568.5Z" class="g3_15"/>
<path d="M792.3,388.2c-2.8,-10.5,-14,-19,-24.8,-19c-10.9,0,-22,8.5,-24.8,19c-8.5,-6.8,-22.5,-7.2,-31.3,-.8c-8.8,6.4,-12.8,19.8,-8.9,30c-10.8,-.6,-22.4,7.3,-25.7,17.7c-3.4,10.3,1.3,23.5,10.4,29.5c-9.1,5.9,-13.8,19.1,-10.4,29.4c3.3,10.4,14.9,18.3,25.7,17.7c-3.9,10.2,.1,23.6,8.9,30c8.8,6.4,22.8,6,31.3,-.8c2.8,10.5,13.9,19,24.8,19c10.8,0,22,-8.5,24.8,-19c8.4,6.8,22.4,7.2,31.2,.8c8.8,-6.4,12.8,-19.8,8.9,-30c10.9,.6,22.4,-7.3,25.8,-17.7c3.3,-10.3,-1.3,-23.5,-10.5,-29.4c9.2,-6,13.8,-19.2,10.5,-29.5c-3.4,-10.4,-14.9,-18.3,-25.8,-17.7c3.9,-10.2,-.1,-23.6,-8.9,-30c-8.8,-6.4,-22.8,-6,-31.2,.8ZM647.1,516.5c0,-4.4,-4.3,-8,-9.6,-8c-5.2,0,-9.5,3.6,-9.5,8c0,4.5,4.3,8.1,9.5,8.1c5.3,0,9.6,-3.6,9.6,-8.1Zm25.4,-8.2c0,-6.7,-6.4,-12.1,-14.3,-12.1c-7.9,0,-14.3,5.4,-14.3,12.1c0,6.6,6.4,12,14.3,12c7.9,0,14.3,-5.4,14.3,-12Z" class="g4_15"/>
<path d="M396,709.8l-31.3,18.6M396,709.8l31.2,18.6M396,783.9L364.7,765.3M396,783.9l31.2,-18.6m0,-.2V728.6m-62.5,36.5V728.6m93.7,-18.8l-31.2,18.6m31.2,-18.6l31.3,18.6m-31.3,55.5L427.2,765.3m31.2,18.6l31.3,-18.6m0,-.2V728.6m31.2,-18.8l-31.2,18.6m31.2,-18.6l31.2,18.6m0,36.7V728.6m-31.2,55.3l31.2,-18.6m-31.2,18.6L489.7,765.3M394.9,717.5l-23.1,13.7m23.1,45.1L371.8,762.6m49.4,-2.2v-27m38.3,-15.9l23,13.7m-23,45.1l23,-13.7M522,717.5l23,13.7m-23,45.1l23,-13.7M364.7,654.4L396,673.1m0,36.7V673.3m-31.3,55.3L333.5,710m0,-.2V673.3m31.2,-18.9l-31.2,18.7m32.3,-11l23,13.7M339.5,705V678" class="g1_15"/>
<path d="M299.7,748.6H611.6" class="g2_15"/>
<path d="M455.6,748.6v-104h156v104Z" class="g3_15"/>
<path d="M458.4,945.7l31.3,18.6m0,36.7V964.5m-31.3,55.3l31.3,-18.6m-31.3,18.6l-31.2,-18.6m0,-.2V964.5m31.2,-18.8l-31.2,18.6M396,945.7l31.2,18.6M396,1019.8l31.2,-18.6M396,1019.8l-31.3,-18.6m0,-.2V964.5M396,945.7l-31.3,18.6m30.2,-11L371.8,967m49.4,29.3V969.2m-26.3,43L371.8,998.5m87.7,-45.2l23,13.7m-23,45.2l23,-13.7m7.2,-108.2L520.9,909m0,36.7V909.1m-31.2,55.4l31.2,-18.6m-62.5,-.2V909.1m31.3,-18.8L458.4,909m30.2,-11l-23.1,13.7m49.4,29.2v-27m6,-78.9l31.2,18.6m0,36.7V853.8m-31.2,55.3l31.2,-18.6m-62.4,-.2V853.8M520.9,835l-31.2,18.6m30.1,-10.9l-23,13.7m49.3,29.2V858.5" class="g1_15"/>
<path d="M299.7,984.4H611.6" class="g2_15"/>
<path d="M455.6,984.4V815.5h156V984.4Z" class="g3_15"/>
</svg>