<?xml version="1.0" encoding="UTF-8" standalone="no"?>
<!DOCTYPE svg PUBLIC "-//W3C//DTD SVG 1.1//EN"
"http://www.w3.org/Graphics/SVG/1.1/DTD/svg11.dtd">
<svg viewBox="0 0 1286 909" version="1.1" xmlns="http://www.w3.org/2000/svg" xmlns:xlink="http://www.w3.org/1999/xlink">
<defs>
<style type="text/css"><![CDATA[
.g0_840{
fill: none;
stroke: #000000;
stroke-width: 0.73;
stroke-linecap: butt;
stroke-linejoin: miter;
}
.g1_840{
fill: #B3E9FA;
}
.g2_840{
fill: none;
stroke: #02B5EE;
stroke-width: 1.262;
stroke-linecap: butt;
stroke-linejoin: miter;
}
.g3_840{
fill: none;
stroke: #5EE200;
stroke-width: 1.262;
stroke-linecap: butt;
stroke-linejoin: miter;
}
.g4_840{
fill: none;
stroke: #5EE200;
stroke-width: 0.73;
stroke-linecap: butt;
stroke-linejoin: miter;
}
.g5_840{
fill: none;
stroke: #02B5EE;
stroke-width: 0.73;
stroke-linecap: butt;
stroke-linejoin: miter;
}
]]></style>
</defs>
<path d="M193,83.4h900.3M193,210.6H761.2m-568.2,0H761.2M519.1,240.2V211m0,58.5V240.2m0,114.3v-85" class="g0_840"/>
<path d="M576.1,304.7V292.5c0,-2.9,2.3,-5.2,5.2,-5.2h99.9c2.9,0,5.2,2.3,5.2,5.2v12.2c0,2.9,-2.3,5.2,-5.2,5.2H581.3c-2.9,0,-5.2,-2.3,-5.2,-5.2Z" class="g1_840"/>
<path d="M573.5,330.5H689" class="g2_840"/>
<path d="M699.5,330.5h50.8" class="g3_840"/>
<path d="M519.1,383.7V354.5m0,58.4V383.7m0,114.3V412.9" class="g0_840"/>
<path d="M531.4,474H717.3" class="g2_840"/>
<path d="M727.8,474h22.5" class="g3_840"/>
<path d="M519.1,527.2V498m0,102.2v-73" class="g0_840"/>
<path d="M530,586.4h34.5" class="g4_840"/>
<path d="M564.5,586.4H750.3" class="g5_840"/>
<path d="M519.1,629.5V600.2M193,629.8H761.2m-568.2,0H761.2" class="g0_840"/>
</svg>