<?xml version="1.0" encoding="UTF-8" standalone="no"?>
<!DOCTYPE svg PUBLIC "-//W3C//DTD SVG 1.1//EN"
"http://www.w3.org/Graphics/SVG/1.1/DTD/svg11.dtd">
<svg viewBox="0 0 1286 909" version="1.1" xmlns="http://www.w3.org/2000/svg" xmlns:xlink="http://www.w3.org/1999/xlink">
<defs>
<style type="text/css"><![CDATA[
.g0_909{
fill: none;
stroke: #000000;
stroke-width: 0.73;
stroke-linecap: butt;
stroke-linejoin: miter;
}
.g1_909{
fill: #B3E9FA;
}
.g2_909{
fill: none;
stroke: #02B5EE;
stroke-width: 1.262;
stroke-linecap: butt;
stroke-linejoin: miter;
}
.g3_909{
fill: none;
stroke: #5EE200;
stroke-width: 1.262;
stroke-linecap: butt;
stroke-linejoin: miter;
}
]]></style>
</defs>
<path d="M193,83.4h900.3M193,111.6H961.2m-768.2,0H961.2M625.9,141.2V112m0,114.3V141.2" class="g0_909"/>
<path d="M746.7,176.5V164.3c0,-2.9,2.3,-5.2,5.2,-5.2h55.9c2.8,0,5.2,2.3,5.2,5.2v12.2c0,2.9,-2.4,5.2,-5.2,5.2H751.9c-2.9,0,-5.2,-2.3,-5.2,-5.2Z" class="g1_909"/>
<path d="M744.1,202.3h71.5" class="g2_909"/>
<path d="M826.1,202.3H950.2" class="g3_909"/>
<path d="M625.9,255.5V226.3m0,58.4V255.5m0,114.2v-85" class="g0_909"/>
<path d="M698.1,326.3V307.8c0,-2.9,2.3,-5.2,5.2,-5.2H769c2.9,0,5.2,2.3,5.2,5.2v18.5c0,2.8,-2.3,5.2,-5.2,5.2H703.3c-2.9,0,-5.2,-2.4,-5.2,-5.2Z" class="g1_909"/>
<path d="M695.5,345.7h81.3" class="g2_909"/>
<path d="M787.4,345.7H950.2" class="g3_909"/>
<path d="M625.9,399V369.7M193,399.3H961.2m-768.2,0H961.2" class="g0_909"/>
</svg>