<?xml version="1.0" encoding="UTF-8" standalone="no"?>
<!DOCTYPE svg PUBLIC "-//W3C//DTD SVG 1.1//EN"
"http://www.w3.org/Graphics/SVG/1.1/DTD/svg11.dtd">
<svg viewBox="0 0 1286 909" version="1.1" xmlns="http://www.w3.org/2000/svg" xmlns:xlink="http://www.w3.org/1999/xlink">
<defs>
<style type="text/css"><![CDATA[
.g0_251{
fill: none;
stroke: #000000;
stroke-width: 0.73;
stroke-linecap: butt;
stroke-linejoin: miter;
}
.g1_251{
fill: #B3E9FA;
}
.g2_251{
fill: none;
stroke: #02B5EE;
stroke-width: 1.262;
stroke-linecap: butt;
stroke-linejoin: miter;
}
.g3_251{
fill: none;
stroke: #5EE200;
stroke-width: 1.262;
stroke-linecap: butt;
stroke-linejoin: miter;
}
.g4_251{
fill: none;
stroke: #5EE200;
stroke-width: 0.73;
stroke-linecap: butt;
stroke-linejoin: miter;
}
.g5_251{
fill: none;
stroke: #02B5EE;
stroke-width: 0.73;
stroke-linecap: butt;
stroke-linejoin: miter;
}
]]></style>
</defs>
<path d="M193,83.4h900.3M193,111.6h895.4m-895.4,0h895.4M619.3,141.2V112m0,58.5V141.2m0,114.3v-85" class="g0_251"/>
<path d="M673.2,212V193.5c0,-2.9,2.4,-5.2,5.2,-5.2H796.6c2.9,0,5.2,2.3,5.2,5.2V212c0,2.9,-2.3,5.2,-5.2,5.2H678.4c-2.8,0,-5.2,-2.3,-5.2,-5.2Z" class="g1_251"/>
<path d="M670.6,231.5H804.4" class="g2_251"/>
<path d="M814.9,231.5h262.5" class="g3_251"/>
<path d="M619.3,284.7V255.5m0,58.4V284.7m0,114.3V313.9" class="g0_251"/>
<path d="M866,355.5V337c0,-2.9,2.3,-5.2,5.2,-5.2h57c2.9,0,5.2,2.3,5.2,5.2v18.5c0,2.9,-2.3,5.2,-5.2,5.2h-57c-2.9,0,-5.2,-2.3,-5.2,-5.2Z" class="g1_251"/>
<path d="M863.4,375H936" class="g2_251"/>
<path d="M946.5,375h130.9" class="g3_251"/>
<path d="M619.3,428.2V399m0,58.4V428.2m0,114.2v-85" class="g0_251"/>
<path d="M893.8,518.4h150.7" class="g2_251"/>
<path d="M1055,518.4h22.4" class="g3_251"/>
<path d="M619.3,571.7V542.4m0,102.3v-73" class="g0_251"/>
<path d="M874.1,630.8h34.4" class="g4_251"/>
<path d="M908.5,630.8h168.9" class="g5_251"/>
<path d="M619.3,673.9V644.7m0,58.5V673.9m0,58.5V703.2M193,732.8h895.4m-895.4,0h895.4" class="g0_251"/>
</svg>