<?xml version="1.0" encoding="UTF-8" standalone="no"?>
<!DOCTYPE svg PUBLIC "-//W3C//DTD SVG 1.1//EN"
"http://www.w3.org/Graphics/SVG/1.1/DTD/svg11.dtd">
<svg viewBox="0 0 1286 909" version="1.1" xmlns="http://www.w3.org/2000/svg" xmlns:xlink="http://www.w3.org/1999/xlink">
<defs>
<style type="text/css"><![CDATA[
.g0_106{
fill: none;
stroke: #000000;
stroke-width: 0.73;
stroke-linecap: butt;
stroke-linejoin: miter;
}
.g1_106{
fill: none;
stroke: #02B5EE;
stroke-width: 1.262;
stroke-linecap: butt;
stroke-linejoin: miter;
}
.g2_106{
fill: none;
stroke: #5EE200;
stroke-width: 1.262;
stroke-linecap: butt;
stroke-linejoin: miter;
}
.g3_106{
fill: none;
stroke: #5EE200;
stroke-width: 0.73;
stroke-linecap: butt;
stroke-linejoin: miter;
}
.g4_106{
fill: none;
stroke: #02B5EE;
stroke-width: 0.73;
stroke-linecap: butt;
stroke-linejoin: miter;
}
]]></style>
</defs>
<path d="M193,83.4h900.3M193,210.6H771.7m-578.7,0H771.7M433.6,240.2V211m0,58.5V240.2m0,114.3v-85" class="g0_106"/>
<path d="M444.5,330.5H582.4" class="g1_106"/>
<path d="M592.9,330.5h22.2" class="g2_106"/>
<path d="M433.6,383.7V354.5m0,102.3V383.7" class="g0_106"/>
<path d="M531.5,442.9h34.3" class="g3_106"/>
<path d="M693.1,442.9h67.6" class="g4_106"/>
<path d="M433.6,486V456.8m0,58.4V486m0,114.2v-85" class="g0_106"/>
<path d="M448.2,576.2H571.6" class="g1_106"/>
<path d="M582.1,576.2h22.5" class="g2_106"/>
<path d="M433.6,629.5V600.2m0,102.3v-73" class="g0_106"/>
<path d="M480.9,688.6h34.4" class="g3_106"/>
<path d="M693.1,688.6h67.6" class="g4_106"/>
<path d="M433.6,731.7V702.5M193,732.1H771.7m-578.7,0H771.7" class="g0_106"/>
</svg>