<?xml version="1.0" encoding="UTF-8" standalone="no"?>
<!DOCTYPE svg PUBLIC "-//W3C//DTD SVG 1.1//EN"
"http://www.w3.org/Graphics/SVG/1.1/DTD/svg11.dtd">
<svg viewBox="0 0 1286 909" version="1.1" xmlns="http://www.w3.org/2000/svg" xmlns:xlink="http://www.w3.org/1999/xlink">
<defs>
<style type="text/css"><![CDATA[
.g0_381{
fill: none;
stroke: #000000;
stroke-width: 0.73;
stroke-linecap: butt;
stroke-linejoin: miter;
}
.g1_381{
fill: none;
stroke: #02B5EE;
stroke-width: 1.262;
stroke-linecap: butt;
stroke-linejoin: miter;
}
.g2_381{
fill: none;
stroke: #5EE200;
stroke-width: 1.262;
stroke-linecap: butt;
stroke-linejoin: miter;
}
.g3_381{
fill: #FFCCCC;
}
.g4_381{
fill: none;
stroke: #5EE200;
stroke-width: 0.73;
stroke-linecap: butt;
stroke-linejoin: miter;
}
.g5_381{
fill: none;
stroke: #02B5EE;
stroke-width: 0.73;
stroke-linecap: butt;
stroke-linejoin: miter;
}
.g6_381{
fill: #B3E9FA;
}
]]></style>
</defs>
<path d="M193,83.4h900.3M193,210.6H851.6m-658.6,0H851.6M559.4,240.2V211m0,58.5V240.2m0,114.3v-85" class="g0_381"/>
<path d="M584.1,330.5h67.4" class="g1_381"/>
<path d="M662,330.5h65.1" class="g2_381"/>
<path d="M748.2,318.8h92.4V285.9H748.2v32.9Z" class="g3_381"/>
<path d="M559.4,383.7V354.5m0,102.3V383.7" class="g0_381"/>
<path d="M614.2,433h91.3V400.1H614.2V433Z" class="g3_381"/>
<path d="M705.5,442.9h33.8" class="g4_381"/>
<path d="M739.3,442.9H840.6" class="g5_381"/>
<path d="M559.4,486V456.8m0,58.4V486m0,58.4V515.2m0,114.3V544.4" class="g0_381"/>
<path d="M572.9,579.7V567.5c0,-2.9,2.4,-5.2,5.2,-5.2h56.2c2.8,0,5.2,2.3,5.2,5.2v12.2c0,2.8,-2.4,5.2,-5.2,5.2H578.1c-2.8,0,-5.2,-2.4,-5.2,-5.2Z" class="g6_381"/>
<path d="M570.3,605.5H642" class="g1_381"/>
<path d="M652.6,605.5h188" class="g2_381"/>
<path d="M559.4,658.7V629.5M193,659H851.6M193,659H851.6" class="g0_381"/>
</svg>