<?xml version="1.0" encoding="UTF-8" standalone="no"?>
<!DOCTYPE svg PUBLIC "-//W3C//DTD SVG 1.1//EN"
"http://www.w3.org/Graphics/SVG/1.1/DTD/svg11.dtd">
<svg viewBox="0 0 1286 909" version="1.1" xmlns="http://www.w3.org/2000/svg" xmlns:xlink="http://www.w3.org/1999/xlink">
<defs>
<style type="text/css"><![CDATA[
.g0_1219{
fill: none;
stroke: #000000;
stroke-width: 0.73;
stroke-linecap: butt;
stroke-linejoin: miter;
}
.g1_1219{
fill: none;
stroke: #000000;
stroke-width: 0.584;
stroke-linecap: butt;
stroke-linejoin: miter;
}
.g2_1219{
fill: #FDE8E9;
}
]]></style>
</defs>
<path d="M193,83.4h900.3" class="g0_1219"/>
<path d="M201.7,109.7H413.4M201.7,133.3V109.9m95.4,23.4V109.9m116.3,23.4V109.9M201.7,159.4V133.3m95.4,26.1V133.3" class="g1_1219"/>
<path d="M305.9,156.8h64.9V133.3H305.9v23.5Z" class="g2_1219"/>
<path d="M413.4,159.4V133.3M201.7,182.8V159.4m95.4,23.4V159.4m116.3,23.4V159.4M201.7,206.2V182.8m95.4,23.4V182.8m116.3,23.4V182.8M201.7,232.3V206.2m95.4,26.1V206.2" class="g1_1219"/>
<path d="M305.9,229.7h64.9V206.2H305.9v23.5Z" class="g2_1219"/>
<path d="M413.4,232.3V206.2M201.7,255.7V232.3m95.4,23.4V232.3m116.3,23.4V232.3M201.7,279.1V255.7m95.4,23.4V255.7m116.3,23.4V255.7M201.7,305.2V279.1m95.4,26.1V279.1" class="g1_1219"/>
<path d="M305.9,302.6h64.9V279.1H305.9v23.5Z" class="g2_1219"/>
<path d="M413.4,305.2V279.1M201.7,328.6V305.2m95.4,23.4V305.2m116.3,23.4V305.2M201.7,351.9V328.6m95.4,23.3V328.6m116.3,23.3V328.6M201.7,377.7V351.9m95.4,25.8V351.9" class="g1_1219"/>
<path d="M305.9,377.7h42.4V354.8H305.9v22.9Z" class="g2_1219"/>
<path d="M413.4,377.7V351.9M201.7,401V377.7M297.1,401V377.7M413.4,401V377.7M201.7,424.4V401m95.4,23.4V401m116.3,23.4V401M201.7,452.1V424.4m95.4,27.7V424.4" class="g1_1219"/>
<path d="M305.9,452.1h56.4V424.4H305.9v27.7Z" class="g2_1219"/>
<path d="M413.4,452.1V424.4M201.7,475.5V452.1m95.4,23.4V452.1m116.3,23.4V452.1M201.7,498.9V475.5m95.4,23.4V475.5m116.3,23.4V475.5M201.7,526.6V498.9m95.4,27.7V498.9" class="g1_1219"/>
<path d="M305.9,526.6h98.7V498.9H305.9v27.7Z" class="g2_1219"/>
<path d="M413.4,526.6V498.9m-211.7,51V526.6m95.4,23.3V526.6m116.3,23.3V526.6M201.7,573.3V549.9m95.4,23.4V549.9m116.3,23.4V549.9M201.7,601V573.3M297.1,601V573.3" class="g1_1219"/>
<path d="M305.9,601h98.7V573.3H305.9V601Z" class="g2_1219"/>
<path d="M413.4,601V573.3M201.7,624.4V601m95.4,23.4V601m116.3,23.4V601M201.7,647.8V624.4m95.4,23.4V624.4m116.3,23.4V624.4M201.7,673.9V647.8m95.4,26.1V647.8" class="g1_1219"/>
<path d="M305.9,671.3h80.8V647.8H305.9v23.5Z" class="g2_1219"/>
<path d="M413.4,673.9V647.8M201.7,697.3V673.9m95.4,23.4V673.9m116.3,23.4V673.9M201.7,720.6V697.3m95.4,23.3V697.3m116.3,23.3V697.3M201.7,746.8V720.6m95.4,26.2V720.6" class="g1_1219"/>
<path d="M305.9,744.1h58.3V720.6H305.9v23.5Z" class="g2_1219"/>
<path d="M413.4,746.8V720.6M201.7,770.1V746.8m95.4,23.3V746.8m116.3,23.3V746.8M201.7,770.4H413.4M430.9,111.2H684.3M430.9,134.9V111.5m114.9,23.4V111.5m138.5,23.4V111.5M430.9,161V134.9M545.8,161V134.9" class="g1_1219"/>
<path d="M554.5,158.4h38.1V134.9H554.5v23.5Z" class="g2_1219"/>
<path d="M684.3,161V134.9M430.9,184.4V161m114.9,23.4V161m138.5,23.4V161M430.9,207.8V184.4m114.9,23.4V184.4m138.5,23.4V184.4M430.9,233.9V207.8m114.9,26.1V207.8" class="g1_1219"/>
<path d="M554.5,231.3h38.1V207.8H554.5v23.5Z" class="g2_1219"/>
<path d="M684.3,233.9V207.8M430.9,257.3V233.9m114.9,23.4V233.9m138.5,23.4V233.9M430.9,280.7V257.3m114.9,23.4V257.3m138.5,23.4V257.3M430.9,306.8V280.7m114.9,26.1V280.7" class="g1_1219"/>
<path d="M554.5,304.1h59.6V280.7H554.5v23.4Z" class="g2_1219"/>
<path d="M684.3,306.8V280.7M430.9,330.1V306.8m114.9,23.3V306.8m138.5,23.3V306.8M430.9,353.5V330.1m114.9,23.4V330.1m138.5,23.4V330.1M430.9,379.6V353.5m114.9,26.1V353.5" class="g1_1219"/>
<path d="M554.5,377h59.6V353.5H554.5V377Z" class="g2_1219"/>
<path d="M684.3,379.6V353.5M430.9,403V379.6M545.8,403V379.6M684.3,403V379.6M430.9,426.4V403m114.9,23.4V403m138.5,23.4V403M430.9,452.5V426.4m114.9,26.1V426.4" class="g1_1219"/>
<path d="M554.5,449.9h65.1V426.4H554.5v23.5Z" class="g2_1219"/>
<path d="M684.3,452.5V426.4M430.9,475.9V452.5m114.9,23.4V452.5m138.5,23.4V452.5M430.9,499.3V475.9m114.9,23.4V475.9m138.5,23.4V475.9M430.9,523.4V499.3m114.9,24.1V499.3" class="g1_1219"/>
<path d="M554.5,520.8h50.2V502.1H554.5v18.7Z" class="g2_1219"/>
<path d="M684.3,523.4V499.3M430.9,546.8V523.4m114.9,23.4V523.4m138.5,23.4V523.4M430.9,570.2V546.8m114.9,23.4V546.8m138.5,23.4V546.8M430.9,596.3V570.2m114.9,26.1V570.2" class="g1_1219"/>
<path d="M554.5,593.7h90.2V570.2H554.5v23.5Z" class="g2_1219"/>
<path d="M684.3,596.3V570.2M430.9,619.7V596.3m114.9,23.4V596.3m138.5,23.4V596.3M430.9,643V619.7M545.8,643V619.7M684.3,643V619.7m-253.4,51V643m114.9,27.7V643" class="g1_1219"/>
<path d="M554.5,670.7H675.6V643H554.5v27.7Z" class="g2_1219"/>
<path d="M684.3,670.7V643M430.9,694.1V670.7m114.9,23.4V670.7m138.5,23.4V670.7M430.9,717.5V694.1m114.9,23.4V694.1m138.5,23.4V694.1M430.9,745.2V717.5m114.9,27.7V717.5" class="g1_1219"/>
<path d="M554.5,745.2H661.7V717.5H554.5v27.7Z" class="g2_1219"/>
<path d="M684.3,745.2V717.5M430.9,768.6V745.2m114.9,23.4V745.2m138.5,23.4V745.2M430.9,768.9H684.3M701.9,109.5h421.4M701.9,133.1V109.7m280.2,23.4V109.7m141.2,23.4V109.7M701.9,159.2V133.1m280.2,26.1V133.1" class="g1_1219"/>
<path d="M990.8,156.6h62.3V133.1H990.8v23.5Z" class="g2_1219"/>
<path d="M1123.3,159.2V133.1M701.9,182.6V159.2m280.2,23.4V159.2m141.2,23.4V159.2M701.9,206V182.6M982.1,206V182.6M1123.3,206V182.6M701.9,232.1V206m280.2,26.1V206" class="g1_1219"/>
<path d="M990.8,229.5h57.9V206H990.8v23.5Z" class="g2_1219"/>
<path d="M1123.3,232.1V206M701.9,255.5V232.1m280.2,23.4V232.1m141.2,23.4V232.1M701.9,278.9V255.5m280.2,23.4V255.5m141.2,23.4V255.5M701.9,305V278.9M982.1,305V278.9" class="g1_1219"/>
<path d="M990.8,302.4h70V278.9h-70v23.5Z" class="g2_1219"/>
<path d="M1123.3,305V278.9M701.9,328.4V305m280.2,23.4V305m141.2,23.4V305M701.9,351.7V328.4m280.2,23.3V328.4m141.2,23.3V328.4M701.9,377.9V351.7m280.2,26.2V351.7" class="g1_1219"/>
<path d="M990.8,375.2h123.8V351.7H990.8v23.5Z" class="g2_1219"/>
<path d="M1123.3,377.9V351.7M701.9,401.2V377.9m280.2,23.3V377.9m141.2,23.3V377.9M701.9,424.6V401.2m280.2,23.4V401.2m141.2,23.4V401.2M701.9,452.3V424.6m280.2,27.7V424.6" class="g1_1219"/>
<path d="M990.8,452.3h52.5V424.6H990.8v27.7Z" class="g2_1219"/>
<path d="M1123.3,452.3V424.6M701.9,475.7V452.3m280.2,23.4V452.3m141.2,23.4V452.3M701.9,499.1V475.7m280.2,23.4V475.7m141.2,23.4V475.7M701.9,526.8V499.1m280.2,27.7V499.1" class="g1_1219"/>
<path d="M990.8,526.8h52.5V499.1H990.8v27.7Z" class="g2_1219"/>
<path d="M1123.3,526.8V499.1m-421.4,51V526.8m280.2,23.3V526.8m141.2,23.3V526.8M701.9,573.5V550.1m280.2,23.4V550.1m141.2,23.4V550.1M701.9,599.6V573.5m280.2,26.1V573.5" class="g1_1219"/>
<path d="M990.8,597h47.9V573.5H990.8V597Z" class="g2_1219"/>
<path d="M1123.3,599.6V573.5M701.9,623V599.6M982.1,623V599.6M1123.3,623V599.6M701.9,646.4V623m280.2,23.4V623m141.2,23.4V623M701.9,672.5V646.4m280.2,26.1V646.4" class="g1_1219"/>
<path d="M990.8,669.9h71.6V646.4H990.8v23.5Z" class="g2_1219"/>
<path d="M1123.3,672.5V646.4M701.9,695.9V672.5m280.2,23.4V672.5m141.2,23.4V672.5M701.9,719.3V695.9m280.2,23.4V695.9m141.2,23.4V695.9M701.9,747V719.3M982.1,747V719.3" class="g1_1219"/>
<path d="M990.8,747h54.3V719.3H990.8V747Z" class="g2_1219"/>
<path d="M1123.3,747V719.3m-421.4,51V747m280.2,23.3V747m141.2,23.3V747M701.9,770.6h421.4" class="g1_1219"/>
</svg>