<?xml version="1.0" encoding="UTF-8" standalone="no"?>
<!DOCTYPE svg PUBLIC "-//W3C//DTD SVG 1.1//EN"
"http://www.w3.org/Graphics/SVG/1.1/DTD/svg11.dtd">
<svg viewBox="0 0 1286 909" version="1.1" xmlns="http://www.w3.org/2000/svg" xmlns:xlink="http://www.w3.org/1999/xlink">
<defs>
<style type="text/css"><![CDATA[
.g0_503{
fill: none;
stroke: #000000;
stroke-width: 0.73;
stroke-linecap: butt;
stroke-linejoin: miter;
}
.g1_503{
fill: #B3E9FA;
}
.g2_503{
fill: none;
stroke: #02B5EE;
stroke-width: 1.262;
stroke-linecap: butt;
stroke-linejoin: miter;
}
.g3_503{
fill: none;
stroke: #5EE200;
stroke-width: 1.262;
stroke-linecap: butt;
stroke-linejoin: miter;
}
.g4_503{
fill: none;
stroke: #FFA313;
stroke-width: 1.262;
stroke-linecap: butt;
stroke-linejoin: miter;
}
.g5_503{
fill: none;
stroke: #FFA313;
stroke-width: 0.73;
stroke-linecap: butt;
stroke-linejoin: miter;
}
.g6_503{
fill: none;
stroke: #02B5EE;
stroke-width: 0.73;
stroke-linecap: butt;
stroke-linejoin: miter;
}
]]></style>
</defs>
<path d="M193,83.4h900.3M193,210.6H758.6m-565.6,0H758.6M451.3,240.2V211m0,58.5V240.2m0,114.3v-85" class="g0_503"/>
<path d="M552.4,311V299.7c0,-2.8,2.3,-5.2,5.2,-5.2h57.3c2.8,0,5.2,2.4,5.2,5.2V311c0,2.9,-2.4,5.2,-5.2,5.2H557.6c-2.9,0,-5.2,-2.3,-5.2,-5.2Z" class="g1_503"/>
<path d="M549.8,330.5h72.9" class="g2_503"/>
<path d="M633.2,330.5H747.7" class="g3_503"/>
<path d="M451.3,383.7V354.5m0,58.4V383.7m0,114.3V412.9" class="g0_503"/>
<path d="M462.2,474h34.7" class="g2_503"/>
<path d="M507.4,474H747.7" class="g4_503"/>
<path d="M451.3,528.1V498m0,103.2V528.1" class="g0_503"/>
<path d="M527.5,587.3H713.9" class="g5_503"/>
<path d="M713.9,587.3h33.8" class="g6_503"/>
<path d="M451.3,630.4V601.2m0,58.4V630.4m0,58.5V659.6M193,689.2H758.6m-565.6,0H758.6" class="g0_503"/>
</svg>