<?xml version="1.0" encoding="UTF-8" standalone="no"?>
<!DOCTYPE svg PUBLIC "-//W3C//DTD SVG 1.1//EN"
"http://www.w3.org/Graphics/SVG/1.1/DTD/svg11.dtd">
<svg viewBox="0 0 1286 909" version="1.1" xmlns="http://www.w3.org/2000/svg" xmlns:xlink="http://www.w3.org/1999/xlink">
<defs>
<style type="text/css"><![CDATA[
.g0_1051{
fill: none;
stroke: #000000;
stroke-width: 0.73;
stroke-linecap: butt;
stroke-linejoin: miter;
}
.g1_1051{
fill: #E6CEEE;
}
.g2_1051{
fill: #FFF7A4;
}
.g3_1051{
fill: #FFCCCC;
}
.g4_1051{
fill: none;
stroke: #F81693;
stroke-width: 1.461;
stroke-linecap: butt;
stroke-linejoin: miter;
stroke-dasharray: 2,2;
}
]]></style>
</defs>
<path d="M193,83.4h900.3M193,210.6h867.2m-867.2,0h867.2M620.3,240.2V211m0,58.5V240.2m0,59.4V269.5m0,59.3V299.6m0,58.5V328.8m0,59.4V358.1m0,59.4V388.2m0,58.5V417.5m0,64V446.7" class="g0_1051"/>
<path d="M906.2,481.5h143.1V448.6H906.2v32.9Z" class="g1_1051"/>
<path d="M620.3,510.7V481.5m0,62.1V510.7" class="g0_1051"/>
<path d="M987.6,543.6h61.7V510.7H987.6v32.9Z" class="g2_1051"/>
<path d="M620.3,572.8V543.6m0,58.4V572.8m0,60.6V602m0,60.6V633.4m0,58.4V662.6m0,63.2v-34" class="g0_1051"/>
<path d="M873.2,725.8h93.6V692.9H873.2v32.9Z" class="g3_1051"/>
<path d="M981,719.4h64.6" class="g4_1051"/>
<path d="M620.3,755V725.8M193,755.4h867.2m-867.2,0h867.2" class="g0_1051"/>
</svg>