<?xml version="1.0" encoding="UTF-8" standalone="no"?>
<!DOCTYPE svg PUBLIC "-//W3C//DTD SVG 1.1//EN"
"http://www.w3.org/Graphics/SVG/1.1/DTD/svg11.dtd">
<svg viewBox="0 0 909 1286" version="1.1" xmlns="http://www.w3.org/2000/svg" xmlns:xlink="http://www.w3.org/1999/xlink">
<defs>
<style type="text/css"><![CDATA[
.g0_27{
fill: none;
stroke: #000000;
stroke-width: 0.73;
stroke-linecap: butt;
stroke-linejoin: miter;
}
.g1_27{
fill: none;
stroke: #F81693;
stroke-width: 0.73;
stroke-linecap: butt;
stroke-linejoin: miter;
}
.g2_27{
fill: none;
stroke: #02B5EE;
stroke-width: 0.73;
stroke-linecap: butt;
stroke-linejoin: miter;
}
.g3_27{
fill: none;
stroke: #FFFFFF;
stroke-width: 0.73;
stroke-linecap: butt;
stroke-linejoin: miter;
}
.g4_27{
fill: none;
stroke: #7F7F7F;
stroke-width: 1.461;
stroke-linecap: butt;
stroke-linejoin: miter;
}
.g5_27{
fill: none;
stroke: #7F7F7F;
stroke-width: 1.461;
stroke-linecap: round;
stroke-linejoin: round;
}
.g6_27{
fill: none;
stroke: #02B5EE;
stroke-width: 1.461;
stroke-linecap: butt;
stroke-linejoin: miter;
}
]]></style>
</defs>
<path d="M116.9,179.9H476.4M206.8,209.5V180.3m-43.3,38.3l18.3,11m-18.3,55.5l18.3,-11" class="g0_27"/>
<path d="M150.7,285.1l-25.2,-15m.4,0V233.6m24.8,-15l-24.8,14.8" class="g1_27"/>
<path d="M206.8,291.3V209.5" class="g0_27"/>
<path d="M218.5,255h16.3m22.2,0h16.3" class="g2_27"/>
<path d="M273.3,255h27.4" class="g3_27"/>
<path d="M300.7,255h2.4m77.4,0h2.4" class="g1_27"/>
<path d="M382.9,255h27.4" class="g3_27"/>
<path d="M410.3,255h16.2m22.3,0h16.3" class="g2_27"/>
<path d="M206.8,320.5V291.3m0,58.5V320.5m0,58.5V349.8m0,58.4V379" class="g0_27"/>
<path d="M218.1,373.7H383.7" class="g4_27"/>
<path d="M379.8,368c.8,3.5,2.7,5.1,4.6,5.7c-1.9,.7,-3.8,2.3,-4.6,5.7" class="g5_27"/>
<path d="M320.5,406.7c1.4,0,2.1,-2.7,3.5,-2.7c1,0,1.8,1.3,2.7,2.7c.9,1.4,1.8,2.8,2.7,2.8c1,0,1.9,-1.4,2.8,-2.8c.9,-1.4,1.7,-2.7,2.7,-2.7c1.4,0,2.1,2.7,3.5,2.7h4.1" class="g6_27"/>
<path d="M206.8,437.4V408.2m-89.9,29.6H476.4" class="g0_27"/>
</svg>