<?xml version="1.0" encoding="UTF-8" standalone="no"?>
<!DOCTYPE svg PUBLIC "-//W3C//DTD SVG 1.1//EN"
"http://www.w3.org/Graphics/SVG/1.1/DTD/svg11.dtd">
<svg viewBox="0 0 1286 909" version="1.1" xmlns="http://www.w3.org/2000/svg" xmlns:xlink="http://www.w3.org/1999/xlink">
<defs>
<style type="text/css"><![CDATA[
.g0_1170{
fill: none;
stroke: #000000;
stroke-width: 0.73;
stroke-linecap: butt;
stroke-linejoin: miter;
}
.g1_1170{
fill: none;
stroke: #02B5EE;
stroke-width: 1.262;
stroke-linecap: butt;
stroke-linejoin: miter;
}
.g2_1170{
fill: none;
stroke: #5EE200;
stroke-width: 1.262;
stroke-linecap: butt;
stroke-linejoin: miter;
}
.g3_1170{
fill: none;
stroke: #5EE200;
stroke-width: 0.73;
stroke-linecap: butt;
stroke-linejoin: miter;
}
.g4_1170{
fill: none;
stroke: #02B5EE;
stroke-width: 0.73;
stroke-linecap: butt;
stroke-linejoin: miter;
}
.g5_1170{
fill: #B3E9FA;
}
]]></style>
</defs>
<path d="M193,83.4h900.3M193,111.6H982.8m-789.8,0H982.8M573,141.2V112m0,58.5V141.2m0,114.3v-85" class="g0_1170"/>
<path d="M584,231.5H692.1" class="g1_1170"/>
<path d="M702.6,231.5H971.9" class="g2_1170"/>
<path d="M573,284.7V255.5m0,102.3V284.7" class="g0_1170"/>
<path d="M767.3,343.9H887.4" class="g3_1170"/>
<path d="M887.4,343.9h84.5" class="g4_1170"/>
<path d="M573,387V357.8m0,58.4V387m0,114.2v-85" class="g0_1170"/>
<path d="M696.9,457.8V439.3c0,-2.9,2.3,-5.2,5.2,-5.2h98.2c2.9,0,5.2,2.3,5.2,5.2v18.5c0,2.8,-2.3,5.2,-5.2,5.2H702.1c-2.9,0,-5.2,-2.4,-5.2,-5.2Z" class="g5_1170"/>
<path d="M694.3,477.3H808.1" class="g1_1170"/>
<path d="M818.6,477.3H971.9" class="g2_1170"/>
<path d="M573,530.5V501.2m0,58.5V530.5m0,114.2v-85" class="g0_1170"/>
<path d="M688.4,601.2V590c0,-2.9,2.4,-5.2,5.2,-5.2H800.3c2.9,0,5.2,2.3,5.2,5.2v11.2c0,2.9,-2.3,5.2,-5.2,5.2H693.6c-2.8,0,-5.2,-2.3,-5.2,-5.2Z" class="g5_1170"/>
<path d="M685.8,620.7H808.1" class="g1_1170"/>
<path d="M818.6,620.7H971.9" class="g2_1170"/>
<path d="M573,673.9V644.7M193,674.3H982.8m-789.8,0H982.8" class="g0_1170"/>
</svg>