<?xml version="1.0" encoding="UTF-8" standalone="no"?>
<!DOCTYPE svg PUBLIC "-//W3C//DTD SVG 1.1//EN"
"http://www.w3.org/Graphics/SVG/1.1/DTD/svg11.dtd">
<svg viewBox="0 0 909 1286" version="1.1" xmlns="http://www.w3.org/2000/svg" xmlns:xlink="http://www.w3.org/1999/xlink">
<defs>
<clipPath id="c0_35"><path d="M119.5,463.1V429.6H446.9v33.5Z"/></clipPath>
<clipPath id="c1_35"><path d="M460.4,463.1V429.6H787.8v33.5Z"/></clipPath>
<style type="text/css"><![CDATA[
.g0_35{
fill: none;
stroke: #000000;
stroke-width: 0.73;
stroke-linecap: butt;
stroke-linejoin: miter;
}
.g1_35{
fill: #E81A58;
}
.g2_35{
fill: #401A1A;
}
.g3_35{
fill: #7F7F7F;
fill-opacity: 0.01;
}
.g4_35{
fill: #7F7F7F;
fill-opacity: 0.02;
}
.g5_35{
fill: #7F7F7F;
fill-opacity: 0.04;
}
.g6_35{
fill: #7F7F7F;
fill-opacity: 0.07;
}
.g7_35{
fill: #7F7F7F;
fill-opacity: 0.11;
}
.g8_35{
fill: #FFFFFF;
}
.g9_35{
fill: #7F7F7F;
}
.ga_35{
fill: #00AEEF;
}
.gb_35{
fill: #CBCEFB;
}
]]></style>
</defs>
<path d="M116.9,159.9H792.5" class="g0_35"/>
<path d="M116.9,362.7v-144c0,-21.7,17.6,-39.2,39.2,-39.2H792.5V323.6c0,21.6,-17.5,39.1,-39.1,39.1Z" class="g1_35"/>
<path d="M119.5,360.1V212H789.9V323.6c0,20.1,-16.3,36.5,-36.5,36.5Z" class="g2_35"/>
<path d="M122.2,432.3c107.4,0,214.7,0,322,0V869.2c-107.3,-9.3,-214.6,-9.3,-322,0Z" class="g3_35"/>
<path d="M122.9,432.9c106.9,0,213.8,0,320.7,0V868.6c-106.9,-9.4,-213.8,-9.4,-320.7,0Z" class="g4_35"/>
<path d="M123.5,433.5c106.5,0,213,0,319.5,0V868c-106.5,-9.4,-213,-9.4,-319.5,0Z" class="g5_35"/>
<path d="M124.1,434.1c106.1,0,212.2,0,318.3,0V867.3C336.3,858,230.2,858,124.1,867.3Z" class="g6_35"/>
<path d="M124.7,434.8c105.7,0,211.4,0,317,0V866.7c-105.6,-9.3,-211.3,-9.3,-317,0Z" class="g7_35"/>
<path d="M125.4,435.4c105.2,0,210.5,0,315.7,0V866.1c-105.2,-9.4,-210.5,-9.4,-315.7,0Z" class="g7_35"/>
<path d="M126,436c104.8,0,209.7,0,314.5,0V865.5c-104.8,-9.4,-209.7,-9.4,-314.5,0Z" class="g6_35"/>
<path d="M126.6,436.6c104.4,0,208.8,0,313.3,0V864.9c-104.5,-9.4,-208.9,-9.4,-313.3,0Z" class="g5_35"/>
<path d="M127.2,437.3c104,0,208,0,312,0V864.2c-104,-9.3,-208,-9.3,-312,0Z" class="g4_35"/>
<path d="M127.9,437.9c103.5,0,207.1,0,310.7,0V863.6c-103.6,-9.3,-207.2,-9.3,-310.7,0Z" class="g3_35"/>
<path d="M116.9,858.9V427H449.5V858.9Z" class="g8_35"/>
<path d="M119.5,856.3V465.7H446.9V856.3Z" class="g8_35"/>
<path d="M119.5,463.1V429.6H446.9v33.5Z" class="g9_35"/>
<g clip-path="url(#c0_35)">
<image x="119" y="429" width="329" height="34" xlink:href="shade/1.png"/>
</g>
<path d="M316.9,457.9h104V434.8h-104v23.1Z" class="ga_35"/>
<path d="M180.9,510.9H385.6M181.3,540.5V511.2" class="g0_35"/>
<path d="M181.6,540.5h62.1V511.2H181.6v29.3Z" class="gb_35"/>
<path d="M244,540.5V511.2" class="g0_35"/>
<path d="M244.4,540.5h69.8V511.2H244.4v29.3Z" class="gb_35"/>
<path d="M314.6,540.5V511.2" class="g0_35"/>
<path d="M315,540.5h69.8V511.2H315v29.3Z" class="gb_35"/>
<path d="M385.2,540.5V511.2M180.9,540.8H385.6M181.3,570.4V541.2M244,570.4V541.2m70.6,29.2V541.2m70.6,29.2V541.2M180.9,570.8H385.6M181.3,600.4V571.1M244,600.4V571.1m70.6,29.3V571.1m70.6,29.3V571.1M180.9,600.7H385.6M181.3,630.3V601.1M244,630.3V601.1m70.6,29.2V601.1m70.6,29.2V601.1M180.9,630.7H385.6M181.3,660.3V631.1M244,660.3V631.1m70.6,29.2V631.1m70.6,29.2V631.1M180.9,660.6H385.6M181.3,690.2V661M244,690.2V661m70.6,29.2V661m70.6,29.2V661M180.9,690.6H385.6M181.3,720.2V691M244,720.2V691m70.6,29.2V691m70.6,29.2V691M180.9,720.6H385.6M181.3,750.1V720.9M244,750.1V720.9m70.6,29.2V720.9m70.6,29.2V720.9M180.9,750.5H385.6M181.3,780.1V750.9M244,780.1V750.9m70.6,29.2V750.9m70.6,29.2V750.9M180.9,780.5H385.6M181.3,810.1V780.8M244,810.1V780.8m70.6,29.3V780.8m70.6,29.3V780.8M180.9,810.4H385.6M181.3,840V810.8M244,840V810.8M314.6,840V810.8M385.2,840V810.8M180.9,840.4H385.6" class="g0_35"/>
<path d="M463.1,432.3c107.3,0,214.6,0,322,0V723.6c-107.4,-9.3,-214.7,-9.3,-322,0Z" class="g3_35"/>
<path d="M463.7,432.9c106.9,0,213.8,0,320.7,0V723c-106.9,-9.3,-213.8,-9.3,-320.7,0Z" class="g4_35"/>
<path d="M464.3,433.5c106.5,0,213,0,319.5,0V722.4c-106.5,-9.4,-213,-9.4,-319.5,0Z" class="g5_35"/>
<path d="M464.9,434.1c106.1,0,212.2,0,318.3,0V721.8c-106.1,-9.4,-212.2,-9.4,-318.3,0Z" class="g6_35"/>
<path d="M465.6,434.8c105.6,0,211.3,0,317,0V721.2c-105.7,-9.4,-211.4,-9.4,-317,0Z" class="g7_35"/>
<path d="M466.2,435.4c105.2,0,210.5,0,315.7,0V720.5c-105.2,-9.3,-210.5,-9.3,-315.7,0Z" class="g7_35"/>
<path d="M466.8,436c104.8,0,209.7,0,314.5,0V719.9c-104.8,-9.3,-209.7,-9.3,-314.5,0Z" class="g6_35"/>
<path d="M467.4,436.6c104.5,0,208.9,0,313.3,0V719.3c-104.4,-9.4,-208.8,-9.4,-313.3,0Z" class="g5_35"/>
<path d="M468.1,437.3c104,0,208,0,312,0V718.7c-104,-9.4,-208,-9.4,-312,0Z" class="g4_35"/>
<path d="M468.7,437.9c103.6,0,207.2,0,310.7,0V718c-103.5,-9.3,-207.1,-9.3,-310.7,0Z" class="g3_35"/>
<path d="M457.8,713.4V427H790.4V713.4Z" class="g8_35"/>
<path d="M460.4,710.8V465.7H787.8V710.8Z" class="g8_35"/>
<path d="M460.4,463.1V429.6H787.8v33.5Z" class="g9_35"/>
<g clip-path="url(#c1_35)">
<image x="460" y="429" width="329" height="34" xlink:href="shade/2.png"/>
</g>
<path d="M657.8,457.9h104V434.8h-104v23.1Z" class="ga_35"/>
<path d="M536.1,515.1H712M536.5,544.7V515.4" class="g0_35"/>
<path d="M536.9,544.7h62V515.4h-62v29.3Z" class="gb_35"/>
<path d="M599.2,544.7V515.4" class="g0_35"/>
<path d="M599.6,544.7h60.3V515.4H599.6v29.3Z" class="gb_35"/>
<path d="M660.2,544.7V515.4" class="g0_35"/>
<path d="M660.6,544.7h50.7V515.4H660.6v29.3Z" class="gb_35"/>
<path d="M711.6,544.7V515.4M536.1,545H712M536.5,574.6V545.4m62.7,29.2V545.4m61,29.2V545.4m51.4,29.2V545.4M536.1,575H712M536.5,604.6V575.3m62.7,29.3V575.3m61,29.3V575.3m51.4,29.3V575.3M536.1,604.9H712M536.5,634.5V605.3m62.7,29.2V605.3m61,29.2V605.3m51.4,29.2V605.3M536.1,634.9H712M536.5,664.5V635.3m62.7,29.2V635.3m61,29.2V635.3m51.4,29.2V635.3M536.1,664.8H712M536.5,694.4V665.2m62.7,29.2V665.2m61,29.2V665.2m51.4,29.2V665.2M536.1,694.8H712" class="g0_35"/>
</svg>