<?xml version="1.0" encoding="UTF-8" standalone="no"?>
<!DOCTYPE svg PUBLIC "-//W3C//DTD SVG 1.1//EN"
"http://www.w3.org/Graphics/SVG/1.1/DTD/svg11.dtd">
<svg viewBox="0 0 909 1286" version="1.1" xmlns="http://www.w3.org/2000/svg" xmlns:xlink="http://www.w3.org/1999/xlink">
<defs>
<style type="text/css"><![CDATA[
.g0_24{
fill: none;
stroke: #000000;
stroke-width: 0.73;
stroke-linecap: butt;
stroke-linejoin: miter;
}
.g1_24{
fill: none;
stroke: #F81693;
stroke-width: 0.73;
stroke-linecap: butt;
stroke-linejoin: miter;
}
.g2_24{
fill: none;
stroke: #02B5EE;
stroke-width: 0.73;
stroke-linecap: butt;
stroke-linejoin: miter;
}
.g3_24{
fill: none;
stroke: #02B5EE;
stroke-width: 1.461;
stroke-linecap: butt;
stroke-linejoin: miter;
}
.g4_24{
fill: #FFFFFF;
}
.g5_24{
fill: #FDE8E9;
}
]]></style>
</defs>
<path d="M116.9,179.9H687M307.3,209.5V180.3M193.7,260.4l24.8,14.8M193.7,260.4l-31.3,18.7m0,.2L137.6,264.5m24.8,14.8v25.5m29.1,-44.4V234.9m4.3,25.5V234.9m111.5,92.9V209.5" class="g0_24"/>
<path d="M430.6,264.3l18.3,10.9M417.8,264.3l-18.2,10.9m-13,.2L368.3,264.5" class="g1_24"/>
<path d="M393,284.7v20.1" class="g2_24"/>
<path d="M422,255V234.9m4.4,20.1V234.9" class="g1_24"/>
<path d="M307.3,357.1V327.8m0,58.5V357.1m0,58.4V386.3m0,58.4V415.5m0,58.5V444.7m0,58.5V474" class="g0_24"/>
<path d="M335.5,501.7c1.3,0,2,-2.7,3.4,-2.7c1,0,1.9,1.3,2.7,2.7c.9,1.4,1.8,2.8,2.8,2.8c1,0,1.8,-1.4,2.7,-2.8c.9,-1.4,1.8,-2.7,2.8,-2.7c1.3,0,2,2.7,3.4,2.7h3.9" class="g3_24"/>
<path d="M307.3,532.4V503.2m0,105.7V532.4" class="g0_24"/>
<path d="M384.9,601.1V540.2c0,-2.9,2.3,-5.2,5.2,-5.2H501c2.8,0,5.2,2.3,5.2,5.2v60.9c0,2.9,-2.4,5.2,-5.2,5.2H390.1c-2.9,0,-5.2,-2.3,-5.2,-5.2Z" class="g4_24"/>
<path d="M417.5,629.6h56.1V615.4H417.5v14.2Z" class="g5_24"/>
<path d="M410.9,590.7h69.3V550.6H410.9v40.1Z" class="g5_24"/>
<path d="M307.3,638.2V608.9M116.9,638.5H687M307.3,668.1V638.9m-64.9,80.2l24.9,14.8m-56.1,33.2V737.9m31.2,-18.8l-31.2,18.6M180,719.1l31.2,18.6M180,719.1l-24.9,14.8m85.1,-14.8V693.5m4.4,25.6V693.5m62.7,93V668.1" class="g0_24"/>
<path d="M479.4,722.9l18.2,11" class="g1_24"/>
<path d="M441.7,767.1V747" class="g2_24"/>
<path d="M466.6,722.9l-18.3,11m-31.4,-11l18.3,11" class="g1_24"/>
<path d="M404.1,722.9l-18.3,11" class="g2_24"/>
<path d="M470.8,713.6V693.5m4.4,20.1V693.5" class="g1_24"/>
<path d="M307.3,815.7V786.5m0,58.4V815.7m0,58.4V844.9m0,58.5V874.1m0,58.5V903.4m0,58.4V932.6" class="g0_24"/>
<path d="M335.5,963c1.3,0,2,-2.8,3.4,-2.8c1,0,1.9,1.4,2.7,2.8c.9,1.4,1.8,2.7,2.8,2.7c1,0,1.8,-1.3,2.7,-2.7c.9,-1.4,1.8,-2.8,2.8,-2.8c1,0,1.8,1.4,2.7,2.8c.9,1.4,1.8,2.7,2.7,2.7c1,0,1.9,-1.3,2.8,-2.7c.9,-1.4,1.7,-2.8,2.7,-2.8c1,0,1.9,1.4,2.8,2.8c.9,1.4,1.7,2.7,2.7,2.7c1,0,1.8,-1.3,2.7,-2.7c.9,-1.4,1.8,-2.8,2.8,-2.8c1,0,1.8,1.4,2.7,2.8c.9,1.4,1.8,2.7,2.8,2.7c1,0,1.8,-1.3,2.7,-2.7c.9,-1.4,1.7,-2.8,2.7,-2.8c1,0,1.9,1.4,2.8,2.8c.9,1.4,1.7,2.7,2.7,2.7c1,0,1.9,-1.3,2.8,-2.7c.9,-1.4,1.7,-2.8,2.7,-2.8c1.4,0,2.1,2.8,3.4,2.8h1.1" class="g3_24"/>
<path d="M307.3,991V961.8m0,105.8V991" class="g0_24"/>
<path d="M384.9,1059.8v-61c0,-2.8,2.3,-5.2,5.2,-5.2H617.7c2.9,0,5.2,2.4,5.2,5.2v61c0,2.8,-2.3,5.2,-5.2,5.2H390.1c-2.9,0,-5.2,-2.4,-5.2,-5.2Z" class="g4_24"/>
<path d="M468.9,1090.4h70V1074h-70v16.4Z" class="g5_24"/>
<path d="M410.9,1049.4h186v-40.2h-186v40.2Z" class="g5_24"/>
<path d="M307.3,1096.8v-29.2m-190.4,29.5H687" class="g0_24"/>
</svg>