<?xml version="1.0" encoding="UTF-8" standalone="no"?>
<!DOCTYPE svg PUBLIC "-//W3C//DTD SVG 1.1//EN"
"http://www.w3.org/Graphics/SVG/1.1/DTD/svg11.dtd">
<svg viewBox="0 0 909 1286" version="1.1" xmlns="http://www.w3.org/2000/svg" xmlns:xlink="http://www.w3.org/1999/xlink">
<defs>
<style type="text/css"><![CDATA[
.g0_54{
fill: none;
stroke: #000000;
stroke-width: 0.73;
stroke-linecap: butt;
stroke-linejoin: miter;
}
.g1_54{
fill: #FFFFFF;
}
.g2_54{
fill: #EDEFEF;
}
.g3_54{
fill: #FFFFFF;
stroke: #000000;
stroke-width: 0.73;
stroke-linecap: butt;
stroke-linejoin: miter;
}
.g4_54{
fill: none;
stroke: #000000;
stroke-width: 3.47;
stroke-linecap: butt;
stroke-linejoin: miter;
}
.g5_54{
fill: none;
stroke: #CDCDB4;
stroke-width: 2.739;
stroke-linecap: butt;
stroke-linejoin: miter;
}
.g6_54{
fill: #3F3F3F;
}
.g7_54{
fill: #F2F2F2;
}
.g8_54{
fill: none;
stroke: #3F3F3F;
stroke-width: 0.73;
stroke-linecap: butt;
stroke-linejoin: miter;
stroke-dasharray: 6,6;
}
.g9_54{
fill: #FCA2D4;
}
.ga_54{
fill: #9AE1F8;
}
.gb_54{
fill: #CCCCCC;
}
.gc_54{
fill: none;
stroke: #7F7F7F;
stroke-width: 1.689;
stroke-linecap: butt;
stroke-linejoin: miter;
}
]]></style>
</defs>
<path d="M116.9,159.9H792.5" class="g0_54"/>
<path d="M116.9,1114.4V179.5H792.5v934.9Z" class="g1_54"/>
<path d="M117.7,1114.4V179.5H791.8v934.9Z" class="g2_54"/>
<path d="M142.6,190.6c0,-3,-2.4,-5.4,-5.4,-5.4c-3.1,0,-5.5,2.4,-5.5,5.4c0,3.1,2.4,5.5,5.5,5.5c3,0,5.4,-2.4,5.4,-5.5Z" class="g3_54"/>
<path d="M137.2,190.6c6.4,1.6,5.4,3.9,-2.3,5.2c-7.7,1.3,-19.2,1.1,-25.7,-.5c-4.2,-1,-5.4,-2.3,-3.2,-3.6c1.8,-1,5.8,-1.8,10.9,-2.1" class="g4_54"/>
<path d="M137.2,190.6c6.4,1.6,5.4,3.9,-2.3,5.2c-7.7,1.3,-19.2,1.1,-25.7,-.5c-4.2,-1,-5.4,-2.3,-3.2,-3.6c1.8,-1,5.8,-1.8,10.9,-2.1" class="g5_54"/>
<path d="M142.6,214.6c0,-3.1,-2.4,-5.5,-5.4,-5.5c-3.1,0,-5.5,2.4,-5.5,5.5c0,3,2.4,5.5,5.5,5.5c3,0,5.4,-2.5,5.4,-5.5Z" class="g3_54"/>
<path d="M137.2,214.6c6.4,1.5,5.4,3.8,-2.3,5.1c-7.7,1.3,-19.2,1.1,-25.7,-.4c-4.2,-1,-5.4,-2.4,-3.2,-3.6c1.8,-1,5.8,-1.8,10.9,-2.2" class="g4_54"/>
<path d="M137.2,214.6c6.4,1.5,5.4,3.8,-2.3,5.1c-7.7,1.3,-19.2,1.1,-25.7,-.4c-4.2,-1,-5.4,-2.4,-3.2,-3.6c1.8,-1,5.8,-1.8,10.9,-2.2" class="g5_54"/>
<path d="M142.6,238.5c0,-3,-2.4,-5.5,-5.4,-5.5c-3.1,0,-5.5,2.5,-5.5,5.5c0,3,2.4,5.5,5.5,5.5c3,0,5.4,-2.5,5.4,-5.5Z" class="g3_54"/>
<path d="M137.2,238.5c6.4,1.6,5.4,3.9,-2.3,5.2c-7.7,1.3,-19.2,1,-25.7,-.5c-4.2,-1,-5.4,-2.4,-3.2,-3.6c1.8,-1,5.8,-1.8,10.9,-2.2" class="g4_54"/>
<path d="M137.2,238.5c6.4,1.6,5.4,3.9,-2.3,5.2c-7.7,1.3,-19.2,1,-25.7,-.5c-4.2,-1,-5.4,-2.4,-3.2,-3.6c1.8,-1,5.8,-1.8,10.9,-2.2" class="g5_54"/>
<path d="M142.6,262.4c0,-3,-2.4,-5.4,-5.4,-5.4c-3.1,0,-5.5,2.4,-5.5,5.4c0,3.1,2.4,5.5,5.5,5.5c3,0,5.4,-2.4,5.4,-5.5Z" class="g3_54"/>
<path d="M137.2,262.4c6.4,1.6,5.4,3.9,-2.3,5.2c-7.7,1.3,-19.2,1.1,-25.7,-.5c-4.2,-1,-5.4,-2.3,-3.2,-3.6c1.8,-1,5.8,-1.8,10.9,-2.1" class="g4_54"/>
<path d="M137.2,262.4c6.4,1.6,5.4,3.9,-2.3,5.2c-7.7,1.3,-19.2,1.1,-25.7,-.5c-4.2,-1,-5.4,-2.3,-3.2,-3.6c1.8,-1,5.8,-1.8,10.9,-2.1" class="g5_54"/>
<path d="M142.6,286.4c0,-3,-2.4,-5.5,-5.4,-5.5c-3.1,0,-5.5,2.5,-5.5,5.5c0,3,2.4,5.5,5.5,5.5c3,0,5.4,-2.5,5.4,-5.5Z" class="g3_54"/>
<path d="M137.2,286.4c6.4,1.5,5.4,3.8,-2.3,5.1c-7.7,1.3,-19.2,1.1,-25.7,-.4c-4.2,-1,-5.4,-2.4,-3.2,-3.6c1.8,-1,5.8,-1.8,10.9,-2.2" class="g4_54"/>
<path d="M137.2,286.4c6.4,1.5,5.4,3.8,-2.3,5.1c-7.7,1.3,-19.2,1.1,-25.7,-.4c-4.2,-1,-5.4,-2.4,-3.2,-3.6c1.8,-1,5.8,-1.8,10.9,-2.2" class="g5_54"/>
<path d="M142.6,310.3c0,-3,-2.4,-5.5,-5.4,-5.5c-3.1,0,-5.5,2.5,-5.5,5.5c0,3,2.4,5.5,5.5,5.5c3,0,5.4,-2.5,5.4,-5.5Z" class="g3_54"/>
<path d="M137.2,310.3c6.4,1.6,5.4,3.9,-2.3,5.2c-7.7,1.3,-19.2,1.1,-25.7,-.5c-4.2,-1,-5.4,-2.4,-3.2,-3.6c1.8,-1,5.8,-1.8,10.9,-2.2" class="g4_54"/>
<path d="M137.2,310.3c6.4,1.6,5.4,3.9,-2.3,5.2c-7.7,1.3,-19.2,1.1,-25.7,-.5c-4.2,-1,-5.4,-2.4,-3.2,-3.6c1.8,-1,5.8,-1.8,10.9,-2.2" class="g5_54"/>
<path d="M142.6,334.2c0,-3,-2.4,-5.4,-5.4,-5.4c-3.1,0,-5.5,2.4,-5.5,5.4c0,3.1,2.4,5.5,5.5,5.5c3,0,5.4,-2.4,5.4,-5.5Z" class="g3_54"/>
<path d="M137.2,334.2c6.4,1.6,5.4,3.9,-2.3,5.2c-7.7,1.3,-19.2,1.1,-25.7,-.5c-4.2,-1,-5.4,-2.3,-3.2,-3.6c1.8,-1,5.8,-1.8,10.9,-2.1" class="g4_54"/>
<path d="M137.2,334.2c6.4,1.6,5.4,3.9,-2.3,5.2c-7.7,1.3,-19.2,1.1,-25.7,-.5c-4.2,-1,-5.4,-2.3,-3.2,-3.6c1.8,-1,5.8,-1.8,10.9,-2.1" class="g5_54"/>
<path d="M142.6,358.2c0,-3,-2.4,-5.5,-5.4,-5.5c-3.1,0,-5.5,2.5,-5.5,5.5c0,3,2.4,5.5,5.5,5.5c3,0,5.4,-2.5,5.4,-5.5Z" class="g3_54"/>
<path d="M137.2,358.2c6.4,1.5,5.4,3.8,-2.3,5.1c-7.7,1.3,-19.2,1.1,-25.7,-.4c-4.2,-1,-5.4,-2.4,-3.2,-3.6c1.8,-1,5.8,-1.8,10.9,-2.2" class="g4_54"/>
<path d="M137.2,358.2c6.4,1.5,5.4,3.8,-2.3,5.1c-7.7,1.3,-19.2,1.1,-25.7,-.4c-4.2,-1,-5.4,-2.4,-3.2,-3.6c1.8,-1,5.8,-1.8,10.9,-2.2" class="g5_54"/>
<path d="M142.6,382.1c0,-3,-2.4,-5.5,-5.4,-5.5c-3.1,0,-5.5,2.5,-5.5,5.5c0,3,2.4,5.5,5.5,5.5c3,0,5.4,-2.5,5.4,-5.5Z" class="g3_54"/>
<path d="M137.2,382.1c6.4,1.6,5.4,3.9,-2.3,5.2c-7.7,1.3,-19.2,1.1,-25.7,-.5c-4.2,-1,-5.4,-2.4,-3.2,-3.6c1.8,-1,5.8,-1.8,10.9,-2.2" class="g4_54"/>
<path d="M137.2,382.1c6.4,1.6,5.4,3.9,-2.3,5.2c-7.7,1.3,-19.2,1.1,-25.7,-.5c-4.2,-1,-5.4,-2.4,-3.2,-3.6c1.8,-1,5.8,-1.8,10.9,-2.2" class="g5_54"/>
<path d="M142.6,406.1c0,-3.1,-2.4,-5.5,-5.4,-5.5c-3.1,0,-5.5,2.4,-5.5,5.5c0,3,2.4,5.4,5.5,5.4c3,0,5.4,-2.4,5.4,-5.4Z" class="g3_54"/>
<path d="M137.2,406.1c6.4,1.5,5.4,3.8,-2.3,5.1c-7.7,1.3,-19.2,1.1,-25.7,-.5c-4.2,-1,-5.4,-2.3,-3.2,-3.5c1.8,-1.1,5.8,-1.9,10.9,-2.2" class="g4_54"/>
<path d="M137.2,406.1c6.4,1.5,5.4,3.8,-2.3,5.1c-7.7,1.3,-19.2,1.1,-25.7,-.5c-4.2,-1,-5.4,-2.3,-3.2,-3.5c1.8,-1.1,5.8,-1.9,10.9,-2.2" class="g5_54"/>
<path d="M142.6,430c0,-3,-2.4,-5.5,-5.4,-5.5c-3.1,0,-5.5,2.5,-5.5,5.5c0,3,2.4,5.5,5.5,5.5c3,0,5.4,-2.5,5.4,-5.5Z" class="g3_54"/>
<path d="M137.2,430c6.4,1.5,5.4,3.8,-2.3,5.1c-7.7,1.3,-19.2,1.1,-25.7,-.4c-4.2,-1,-5.4,-2.4,-3.2,-3.6c1.8,-1,5.8,-1.8,10.9,-2.2" class="g4_54"/>
<path d="M137.2,430c6.4,1.5,5.4,3.8,-2.3,5.1c-7.7,1.3,-19.2,1.1,-25.7,-.4c-4.2,-1,-5.4,-2.4,-3.2,-3.6c1.8,-1,5.8,-1.8,10.9,-2.2" class="g5_54"/>
<path d="M142.6,453.9c0,-3,-2.4,-5.5,-5.4,-5.5c-3.1,0,-5.5,2.5,-5.5,5.5c0,3,2.4,5.5,5.5,5.5c3,0,5.4,-2.5,5.4,-5.5Z" class="g3_54"/>
<path d="M137.2,453.9c6.4,1.6,5.4,3.9,-2.3,5.2c-7.7,1.3,-19.2,1.1,-25.7,-.5c-4.2,-1,-5.4,-2.4,-3.2,-3.6c1.8,-1,5.8,-1.8,10.9,-2.2" class="g4_54"/>
<path d="M137.2,453.9c6.4,1.6,5.4,3.9,-2.3,5.2c-7.7,1.3,-19.2,1.1,-25.7,-.5c-4.2,-1,-5.4,-2.4,-3.2,-3.6c1.8,-1,5.8,-1.8,10.9,-2.2" class="g5_54"/>
<path d="M142.6,477.9c0,-3.1,-2.4,-5.5,-5.4,-5.5c-3.1,0,-5.5,2.4,-5.5,5.5c0,3,2.4,5.4,5.5,5.4c3,0,5.4,-2.4,5.4,-5.4Z" class="g3_54"/>
<path d="M137.2,477.9c6.4,1.5,5.4,3.8,-2.3,5.1c-7.7,1.3,-19.2,1.1,-25.7,-.4c-4.2,-1,-5.4,-2.4,-3.2,-3.6c1.8,-1.1,5.8,-1.9,10.9,-2.2" class="g4_54"/>
<path d="M137.2,477.9c6.4,1.5,5.4,3.8,-2.3,5.1c-7.7,1.3,-19.2,1.1,-25.7,-.4c-4.2,-1,-5.4,-2.4,-3.2,-3.6c1.8,-1.1,5.8,-1.9,10.9,-2.2" class="g5_54"/>
<path d="M142.6,501.8c0,-3,-2.4,-5.5,-5.4,-5.5c-3.1,0,-5.5,2.5,-5.5,5.5c0,3,2.4,5.5,5.5,5.5c3,0,5.4,-2.5,5.4,-5.5Z" class="g3_54"/>
<path d="M137.2,501.8c6.4,1.5,5.4,3.8,-2.3,5.1c-7.7,1.3,-19.2,1.1,-25.7,-.4c-4.2,-1,-5.4,-2.4,-3.2,-3.6c1.8,-1,5.8,-1.8,10.9,-2.2" class="g4_54"/>
<path d="M137.2,501.8c6.4,1.5,5.4,3.8,-2.3,5.1c-7.7,1.3,-19.2,1.1,-25.7,-.4c-4.2,-1,-5.4,-2.4,-3.2,-3.6c1.8,-1,5.8,-1.8,10.9,-2.2" class="g5_54"/>
<path d="M142.6,525.7c0,-3,-2.4,-5.5,-5.4,-5.5c-3.1,0,-5.5,2.5,-5.5,5.5c0,3.1,2.4,5.5,5.5,5.5c3,0,5.4,-2.4,5.4,-5.5Z" class="g3_54"/>
<path d="M137.2,525.7c6.4,1.6,5.4,3.9,-2.3,5.2c-7.7,1.3,-19.2,1.1,-25.7,-.5c-4.2,-1,-5.4,-2.3,-3.2,-3.6c1.8,-1,5.8,-1.8,10.9,-2.2" class="g4_54"/>
<path d="M137.2,525.7c6.4,1.6,5.4,3.9,-2.3,5.2c-7.7,1.3,-19.2,1.1,-25.7,-.5c-4.2,-1,-5.4,-2.3,-3.2,-3.6c1.8,-1,5.8,-1.8,10.9,-2.2" class="g5_54"/>
<path d="M142.6,549.7c0,-3.1,-2.4,-5.5,-5.4,-5.5c-3.1,0,-5.5,2.4,-5.5,5.5c0,3,2.4,5.4,5.5,5.4c3,0,5.4,-2.4,5.4,-5.4Z" class="g3_54"/>
<path d="M137.2,549.7c6.4,1.5,5.4,3.8,-2.3,5.1c-7.7,1.3,-19.2,1.1,-25.7,-.4c-4.2,-1,-5.4,-2.4,-3.2,-3.6c1.8,-1.1,5.8,-1.9,10.9,-2.2" class="g4_54"/>
<path d="M137.2,549.7c6.4,1.5,5.4,3.8,-2.3,5.1c-7.7,1.3,-19.2,1.1,-25.7,-.4c-4.2,-1,-5.4,-2.4,-3.2,-3.6c1.8,-1.1,5.8,-1.9,10.9,-2.2" class="g5_54"/>
<path d="M142.6,573.6c0,-3,-2.4,-5.5,-5.4,-5.5c-3.1,0,-5.5,2.5,-5.5,5.5c0,3,2.4,5.5,5.5,5.5c3,0,5.4,-2.5,5.4,-5.5Z" class="g3_54"/>
<path d="M137.2,573.6c6.4,1.5,5.4,3.8,-2.3,5.1c-7.7,1.3,-19.2,1.1,-25.7,-.4c-4.2,-1,-5.4,-2.4,-3.2,-3.6c1.8,-1,5.8,-1.8,10.9,-2.2" class="g4_54"/>
<path d="M137.2,573.6c6.4,1.5,5.4,3.8,-2.3,5.1c-7.7,1.3,-19.2,1.1,-25.7,-.4c-4.2,-1,-5.4,-2.4,-3.2,-3.6c1.8,-1,5.8,-1.8,10.9,-2.2" class="g5_54"/>
<path d="M142.6,597.5c0,-3,-2.4,-5.4,-5.4,-5.4c-3.1,0,-5.5,2.4,-5.5,5.4c0,3.1,2.4,5.5,5.5,5.5c3,0,5.4,-2.4,5.4,-5.5Z" class="g3_54"/>
<path d="M137.2,597.5c6.4,1.6,5.4,3.9,-2.3,5.2c-7.7,1.3,-19.2,1.1,-25.7,-.5c-4.2,-1,-5.4,-2.3,-3.2,-3.6c1.8,-1,5.8,-1.8,10.9,-2.2" class="g4_54"/>
<path d="M137.2,597.5c6.4,1.6,5.4,3.9,-2.3,5.2c-7.7,1.3,-19.2,1.1,-25.7,-.5c-4.2,-1,-5.4,-2.3,-3.2,-3.6c1.8,-1,5.8,-1.8,10.9,-2.2" class="g5_54"/>
<path d="M142.6,621.5c0,-3.1,-2.4,-5.5,-5.4,-5.5c-3.1,0,-5.5,2.4,-5.5,5.5c0,3,2.4,5.4,5.5,5.4c3,0,5.4,-2.4,5.4,-5.4Z" class="g3_54"/>
<path d="M137.2,621.5c6.4,1.5,5.4,3.8,-2.3,5.1c-7.7,1.3,-19.2,1.1,-25.7,-.4c-4.2,-1,-5.4,-2.4,-3.2,-3.6c1.8,-1,5.8,-1.8,10.9,-2.2" class="g4_54"/>
<path d="M137.2,621.5c6.4,1.5,5.4,3.8,-2.3,5.1c-7.7,1.3,-19.2,1.1,-25.7,-.4c-4.2,-1,-5.4,-2.4,-3.2,-3.6c1.8,-1,5.8,-1.8,10.9,-2.2" class="g5_54"/>
<path d="M142.6,645.4c0,-3,-2.4,-5.5,-5.4,-5.5c-3.1,0,-5.5,2.5,-5.5,5.5c0,3,2.4,5.5,5.5,5.5c3,0,5.4,-2.5,5.4,-5.5Z" class="g3_54"/>
<path d="M137.2,645.4c6.4,1.5,5.4,3.9,-2.3,5.2c-7.7,1.2,-19.2,1,-25.7,-.5c-4.2,-1,-5.4,-2.4,-3.2,-3.6c1.8,-1,5.8,-1.8,10.9,-2.2" class="g4_54"/>
<path d="M137.2,645.4c6.4,1.5,5.4,3.9,-2.3,5.2c-7.7,1.2,-19.2,1,-25.7,-.5c-4.2,-1,-5.4,-2.4,-3.2,-3.6c1.8,-1,5.8,-1.8,10.9,-2.2" class="g5_54"/>
<path d="M142.6,669.3c0,-3,-2.4,-5.4,-5.4,-5.4c-3.1,0,-5.5,2.4,-5.5,5.4c0,3.1,2.4,5.5,5.5,5.5c3,0,5.4,-2.4,5.4,-5.5Z" class="g3_54"/>
<path d="M137.2,669.3c6.4,1.6,5.4,3.9,-2.3,5.2c-7.7,1.3,-19.2,1.1,-25.7,-.5c-4.2,-1,-5.4,-2.3,-3.2,-3.6c1.8,-1,5.8,-1.8,10.9,-2.1" class="g4_54"/>
<path d="M137.2,669.3c6.4,1.6,5.4,3.9,-2.3,5.2c-7.7,1.3,-19.2,1.1,-25.7,-.5c-4.2,-1,-5.4,-2.3,-3.2,-3.6c1.8,-1,5.8,-1.8,10.9,-2.1" class="g5_54"/>
<path d="M142.6,693.3c0,-3.1,-2.4,-5.5,-5.4,-5.5c-3.1,0,-5.5,2.4,-5.5,5.5c0,3,2.4,5.5,5.5,5.5c3,0,5.4,-2.5,5.4,-5.5Z" class="g3_54"/>
<path d="M137.2,693.3c6.4,1.5,5.4,3.8,-2.3,5.1c-7.7,1.3,-19.2,1.1,-25.7,-.4c-4.2,-1,-5.4,-2.4,-3.2,-3.6c1.8,-1,5.8,-1.8,10.9,-2.2" class="g4_54"/>
<path d="M137.2,693.3c6.4,1.5,5.4,3.8,-2.3,5.1c-7.7,1.3,-19.2,1.1,-25.7,-.4c-4.2,-1,-5.4,-2.4,-3.2,-3.6c1.8,-1,5.8,-1.8,10.9,-2.2" class="g5_54"/>
<path d="M142.6,717.2c0,-3,-2.4,-5.5,-5.4,-5.5c-3.1,0,-5.5,2.5,-5.5,5.5c0,3,2.4,5.5,5.5,5.5c3,0,5.4,-2.5,5.4,-5.5Z" class="g3_54"/>
<path d="M137.2,717.2c6.4,1.6,5.4,3.9,-2.3,5.2c-7.7,1.3,-19.2,1.1,-25.7,-.5c-4.2,-1,-5.4,-2.4,-3.2,-3.6c1.8,-1,5.8,-1.8,10.9,-2.2" class="g4_54"/>
<path d="M137.2,717.2c6.4,1.6,5.4,3.9,-2.3,5.2c-7.7,1.3,-19.2,1.1,-25.7,-.5c-4.2,-1,-5.4,-2.4,-3.2,-3.6c1.8,-1,5.8,-1.8,10.9,-2.2" class="g5_54"/>
<path d="M142.6,741.1c0,-3,-2.4,-5.4,-5.4,-5.4c-3.1,0,-5.5,2.4,-5.5,5.4c0,3.1,2.4,5.5,5.5,5.5c3,0,5.4,-2.4,5.4,-5.5Z" class="g3_54"/>
<path d="M137.2,741.1c6.4,1.6,5.4,3.9,-2.3,5.2c-7.7,1.3,-19.2,1.1,-25.7,-.5c-4.2,-1,-5.4,-2.3,-3.2,-3.6c1.8,-1,5.8,-1.8,10.9,-2.1" class="g4_54"/>
<path d="M137.2,741.1c6.4,1.6,5.4,3.9,-2.3,5.2c-7.7,1.3,-19.2,1.1,-25.7,-.5c-4.2,-1,-5.4,-2.3,-3.2,-3.6c1.8,-1,5.8,-1.8,10.9,-2.1" class="g5_54"/>
<path d="M142.6,765.1c0,-3,-2.4,-5.5,-5.4,-5.5c-3.1,0,-5.5,2.5,-5.5,5.5c0,3,2.4,5.5,5.5,5.5c3,0,5.4,-2.5,5.4,-5.5Z" class="g3_54"/>
<path d="M137.2,765.1c6.4,1.5,5.4,3.8,-2.3,5.1c-7.7,1.3,-19.2,1.1,-25.7,-.4c-4.2,-1,-5.4,-2.4,-3.2,-3.6c1.8,-1,5.8,-1.8,10.9,-2.2" class="g4_54"/>
<path d="M137.2,765.1c6.4,1.5,5.4,3.8,-2.3,5.1c-7.7,1.3,-19.2,1.1,-25.7,-.4c-4.2,-1,-5.4,-2.4,-3.2,-3.6c1.8,-1,5.8,-1.8,10.9,-2.2" class="g5_54"/>
<path d="M142.6,789c0,-3,-2.4,-5.5,-5.4,-5.5c-3.1,0,-5.5,2.5,-5.5,5.5c0,3,2.4,5.5,5.5,5.5c3,0,5.4,-2.5,5.4,-5.5Z" class="g3_54"/>
<path d="M137.2,789c6.4,1.6,5.4,3.9,-2.3,5.2c-7.7,1.3,-19.2,1.1,-25.7,-.5c-4.2,-1,-5.4,-2.4,-3.2,-3.6c1.8,-1,5.8,-1.8,10.9,-2.2" class="g4_54"/>
<path d="M137.2,789c6.4,1.6,5.4,3.9,-2.3,5.2c-7.7,1.3,-19.2,1.1,-25.7,-.5c-4.2,-1,-5.4,-2.4,-3.2,-3.6c1.8,-1,5.8,-1.8,10.9,-2.2" class="g5_54"/>
<path d="M142.6,812.9c0,-3,-2.4,-5.4,-5.4,-5.4c-3.1,0,-5.5,2.4,-5.5,5.4c0,3.1,2.4,5.5,5.5,5.5c3,0,5.4,-2.4,5.4,-5.5Z" class="g3_54"/>
<path d="M137.2,812.9c6.4,1.6,5.4,3.9,-2.3,5.2c-7.7,1.3,-19.2,1.1,-25.7,-.5c-4.2,-1,-5.4,-2.3,-3.2,-3.6c1.8,-1,5.8,-1.8,10.9,-2.1" class="g4_54"/>
<path d="M137.2,812.9c6.4,1.6,5.4,3.9,-2.3,5.2c-7.7,1.3,-19.2,1.1,-25.7,-.5c-4.2,-1,-5.4,-2.3,-3.2,-3.6c1.8,-1,5.8,-1.8,10.9,-2.1" class="g5_54"/>
<path d="M142.6,836.9c0,-3,-2.4,-5.5,-5.4,-5.5c-3.1,0,-5.5,2.5,-5.5,5.5c0,3,2.4,5.5,5.5,5.5c3,0,5.4,-2.5,5.4,-5.5Z" class="g3_54"/>
<path d="M137.2,836.9c6.4,1.5,5.4,3.8,-2.3,5.1c-7.7,1.3,-19.2,1.1,-25.7,-.4c-4.2,-1,-5.4,-2.4,-3.2,-3.6c1.8,-1,5.8,-1.8,10.9,-2.2" class="g4_54"/>
<path d="M137.2,836.9c6.4,1.5,5.4,3.8,-2.3,5.1c-7.7,1.3,-19.2,1.1,-25.7,-.4c-4.2,-1,-5.4,-2.4,-3.2,-3.6c1.8,-1,5.8,-1.8,10.9,-2.2" class="g5_54"/>
<path d="M142.6,860.8c0,-3,-2.4,-5.5,-5.4,-5.5c-3.1,0,-5.5,2.5,-5.5,5.5c0,3,2.4,5.5,5.5,5.5c3,0,5.4,-2.5,5.4,-5.5Z" class="g3_54"/>
<path d="M137.2,860.8c6.4,1.6,5.4,3.9,-2.3,5.2c-7.7,1.3,-19.2,1.1,-25.7,-.5c-4.2,-1,-5.4,-2.4,-3.2,-3.6c1.8,-1,5.8,-1.8,10.9,-2.2" class="g4_54"/>
<path d="M137.2,860.8c6.4,1.6,5.4,3.9,-2.3,5.2c-7.7,1.3,-19.2,1.1,-25.7,-.5c-4.2,-1,-5.4,-2.4,-3.2,-3.6c1.8,-1,5.8,-1.8,10.9,-2.2" class="g5_54"/>
<path d="M142.6,884.8c0,-3.1,-2.4,-5.5,-5.4,-5.5c-3.1,0,-5.5,2.4,-5.5,5.5c0,3,2.4,5.4,5.5,5.4c3,0,5.4,-2.4,5.4,-5.4Z" class="g3_54"/>
<path d="M137.2,884.8c6.4,1.5,5.4,3.8,-2.3,5.1c-7.7,1.3,-19.2,1.1,-25.7,-.4c-4.2,-1,-5.4,-2.4,-3.2,-3.6c1.8,-1.1,5.8,-1.9,10.9,-2.2" class="g4_54"/>
<path d="M137.2,884.8c6.4,1.5,5.4,3.8,-2.3,5.1c-7.7,1.3,-19.2,1.1,-25.7,-.4c-4.2,-1,-5.4,-2.4,-3.2,-3.6c1.8,-1.1,5.8,-1.9,10.9,-2.2" class="g5_54"/>
<path d="M142.6,908.7c0,-3,-2.4,-5.5,-5.4,-5.5c-3.1,0,-5.5,2.5,-5.5,5.5c0,3,2.4,5.5,5.5,5.5c3,0,5.4,-2.5,5.4,-5.5Z" class="g3_54"/>
<path d="M137.2,908.7c6.4,1.5,5.4,3.8,-2.3,5.1c-7.7,1.3,-19.2,1.1,-25.7,-.4c-4.2,-1,-5.4,-2.4,-3.2,-3.6c1.8,-1,5.8,-1.8,10.9,-2.2" class="g4_54"/>
<path d="M137.2,908.7c6.4,1.5,5.4,3.8,-2.3,5.1c-7.7,1.3,-19.2,1.1,-25.7,-.4c-4.2,-1,-5.4,-2.4,-3.2,-3.6c1.8,-1,5.8,-1.8,10.9,-2.2" class="g5_54"/>
<path d="M142.6,932.6c0,-3,-2.4,-5.5,-5.4,-5.5c-3.1,0,-5.5,2.5,-5.5,5.5c0,3.1,2.4,5.5,5.5,5.5c3,0,5.4,-2.4,5.4,-5.5Z" class="g3_54"/>
<path d="M137.2,932.6c6.4,1.6,5.4,3.9,-2.3,5.2c-7.7,1.3,-19.2,1.1,-25.7,-.5c-4.2,-1,-5.4,-2.4,-3.2,-3.6c1.8,-1,5.8,-1.8,10.9,-2.2" class="g4_54"/>
<path d="M137.2,932.6c6.4,1.6,5.4,3.9,-2.3,5.2c-7.7,1.3,-19.2,1.1,-25.7,-.5c-4.2,-1,-5.4,-2.4,-3.2,-3.6c1.8,-1,5.8,-1.8,10.9,-2.2" class="g5_54"/>
<path d="M142.6,956.6c0,-3.1,-2.4,-5.5,-5.4,-5.5c-3.1,0,-5.5,2.4,-5.5,5.5c0,3,2.4,5.4,5.5,5.4c3,0,5.4,-2.4,5.4,-5.4Z" class="g3_54"/>
<path d="M137.2,956.6c6.4,1.5,5.4,3.8,-2.3,5.1c-7.7,1.3,-19.2,1.1,-25.7,-.4c-4.2,-1,-5.4,-2.4,-3.2,-3.6c1.8,-1.1,5.8,-1.9,10.9,-2.2" class="g4_54"/>
<path d="M137.2,956.6c6.4,1.5,5.4,3.8,-2.3,5.1c-7.7,1.3,-19.2,1.1,-25.7,-.4c-4.2,-1,-5.4,-2.4,-3.2,-3.6c1.8,-1.1,5.8,-1.9,10.9,-2.2" class="g5_54"/>
<path d="M142.6,980.5c0,-3,-2.4,-5.5,-5.4,-5.5c-3.1,0,-5.5,2.5,-5.5,5.5c0,3,2.4,5.5,5.5,5.5c3,0,5.4,-2.5,5.4,-5.5Z" class="g3_54"/>
<path d="M137.2,980.5c6.4,1.5,5.4,3.8,-2.3,5.1c-7.7,1.3,-19.2,1.1,-25.7,-.4c-4.2,-1,-5.4,-2.4,-3.2,-3.6c1.8,-1,5.8,-1.8,10.9,-2.2" class="g4_54"/>
<path d="M137.2,980.5c6.4,1.5,5.4,3.8,-2.3,5.1c-7.7,1.3,-19.2,1.1,-25.7,-.4c-4.2,-1,-5.4,-2.4,-3.2,-3.6c1.8,-1,5.8,-1.8,10.9,-2.2" class="g5_54"/>
<path d="M142.6,1004.4c0,-3,-2.4,-5.5,-5.4,-5.5c-3.1,0,-5.5,2.5,-5.5,5.5c0,3.1,2.4,5.5,5.5,5.5c3,0,5.4,-2.4,5.4,-5.5Z" class="g3_54"/>
<path d="M137.2,1004.4c6.4,1.6,5.4,3.9,-2.3,5.2c-7.7,1.3,-19.2,1.1,-25.7,-.5c-4.2,-1,-5.4,-2.3,-3.2,-3.6c1.8,-1,5.8,-1.8,10.9,-2.2" class="g4_54"/>
<path d="M137.2,1004.4c6.4,1.6,5.4,3.9,-2.3,5.2c-7.7,1.3,-19.2,1.1,-25.7,-.5c-4.2,-1,-5.4,-2.3,-3.2,-3.6c1.8,-1,5.8,-1.8,10.9,-2.2" class="g5_54"/>
<path d="M142.6,1028.4c0,-3.1,-2.4,-5.5,-5.4,-5.5c-3.1,0,-5.5,2.4,-5.5,5.5c0,3,2.4,5.4,5.5,5.4c3,0,5.4,-2.4,5.4,-5.4Z" class="g3_54"/>
<path d="M137.2,1028.4c6.4,1.5,5.4,3.8,-2.3,5.1c-7.7,1.3,-19.2,1.1,-25.7,-.4c-4.2,-1,-5.4,-2.4,-3.2,-3.6c1.8,-1.1,5.8,-1.9,10.9,-2.2" class="g4_54"/>
<path d="M137.2,1028.4c6.4,1.5,5.4,3.8,-2.3,5.1c-7.7,1.3,-19.2,1.1,-25.7,-.4c-4.2,-1,-5.4,-2.4,-3.2,-3.6c1.8,-1.1,5.8,-1.9,10.9,-2.2" class="g5_54"/>
<path d="M142.6,1052.3c0,-3,-2.4,-5.5,-5.4,-5.5c-3.1,0,-5.5,2.5,-5.5,5.5c0,3,2.4,5.5,5.5,5.5c3,0,5.4,-2.5,5.4,-5.5Z" class="g3_54"/>
<path d="M137.2,1052.3c6.4,1.5,5.4,3.8,-2.3,5.1c-7.7,1.3,-19.2,1.1,-25.7,-.4c-4.2,-1,-5.4,-2.4,-3.2,-3.6c1.8,-1,5.8,-1.8,10.9,-2.2" class="g4_54"/>
<path d="M137.2,1052.3c6.4,1.5,5.4,3.8,-2.3,5.1c-7.7,1.3,-19.2,1.1,-25.7,-.4c-4.2,-1,-5.4,-2.4,-3.2,-3.6c1.8,-1,5.8,-1.8,10.9,-2.2" class="g5_54"/>
<path d="M142.6,1076.2c0,-3,-2.4,-5.4,-5.4,-5.4c-3.1,0,-5.5,2.4,-5.5,5.4c0,3.1,2.4,5.5,5.5,5.5c3,0,5.4,-2.4,5.4,-5.5Z" class="g3_54"/>
<path d="M137.2,1076.2c6.4,1.6,5.4,3.9,-2.3,5.2c-7.7,1.3,-19.2,1.1,-25.7,-.5c-4.2,-1,-5.4,-2.3,-3.2,-3.6c1.8,-1,5.8,-1.8,10.9,-2.2" class="g4_54"/>
<path d="M137.2,1076.2c6.4,1.6,5.4,3.9,-2.3,5.2c-7.7,1.3,-19.2,1.1,-25.7,-.5c-4.2,-1,-5.4,-2.3,-3.2,-3.6c1.8,-1,5.8,-1.8,10.9,-2.2" class="g5_54"/>
<path d="M142.6,1100.2c0,-3.1,-2.4,-5.5,-5.4,-5.5c-3.1,0,-5.5,2.4,-5.5,5.5c0,3,2.4,5.4,5.5,5.4c3,0,5.4,-2.4,5.4,-5.4Z" class="g3_54"/>
<path d="M137.2,1100.2c6.4,1.5,5.4,3.8,-2.3,5.1c-7.7,1.3,-19.2,1.1,-25.7,-.4c-4.2,-1,-5.4,-2.4,-3.2,-3.6c1.8,-1,5.8,-1.8,10.9,-2.2" class="g4_54"/>
<path d="M137.2,1100.2c6.4,1.5,5.4,3.8,-2.3,5.1c-7.7,1.3,-19.2,1.1,-25.7,-.4c-4.2,-1,-5.4,-2.4,-3.2,-3.6c1.8,-1,5.8,-1.8,10.9,-2.2" class="g5_54"/>
<path d="M168.9,790.2V329.5c0,-4.3,3.5,-7.7,7.8,-7.7H758c4.3,0,7.8,3.4,7.8,7.7V790.2c0,4.3,-3.5,7.8,-7.8,7.8H176.7c-4.3,0,-7.8,-3.5,-7.8,-7.8Z" class="g6_54"/>
<path d="M171.5,790.2V364.5H763.2V790.2c0,2.9,-2.3,5.2,-5.2,5.2H176.7c-2.9,0,-5.2,-2.3,-5.2,-5.2Z" class="g7_54"/>
<path d="M171.5,551.9H763.2" class="g8_54"/>
<path d="M197.1,402h61.6" class="g0_54"/>
<path d="M406.8,519.2c0,-9.5,-7.7,-17.1,-17.2,-17.1c-9.4,0,-17.1,7.6,-17.1,17.1c0,9.4,7.7,17.1,17.1,17.1c9.5,0,17.2,-7.7,17.2,-17.1Z" class="g9_54"/>
<path d="M562.7,519.2c0,-9.5,-7.7,-17.1,-17.2,-17.1c-9.4,0,-17.1,7.6,-17.1,17.1c0,9.4,7.7,17.1,17.1,17.1c9.5,0,17.2,-7.7,17.2,-17.1Z" class="ga_54"/>
<path d="M545.5,493.2v-26H233.7v26Z" class="gb_54"/>
<path d="M233.7,467.2c2.6,-5.1,8.5,-8.4,16.9,-8.4H372.7c8.5,0,14.4,-3.4,16.9,-8.5c2.6,5.1,8.5,8.5,16.9,8.5H528.7c8.4,0,14.3,3.3,16.8,8.4" class="gc_54"/>
<path d="M233.7,493.2H701.5m-311.9,8.6v-19m155.9,19v-19M197.1,589.3h61.6" class="g0_54"/>
<path d="M406.8,706.5c0,-9.4,-7.7,-17.1,-17.2,-17.1c-9.4,0,-17.1,7.7,-17.1,17.1c0,9.5,7.7,17.2,17.1,17.2c9.5,0,17.2,-7.7,17.2,-17.2Z" class="ga_54"/>
<path d="M562.7,706.5c0,-9.4,-7.7,-17.1,-17.2,-17.1c-9.4,0,-17.1,7.7,-17.1,17.1c0,9.5,7.7,17.2,17.1,17.2c9.5,0,17.2,-7.7,17.2,-17.2Z" class="g9_54"/>
<path d="M389.6,680.5V654.6H233.7v25.9Z" class="gb_54"/>
<path d="M233.7,654.6c2.6,-5.1,8.5,-8.5,16.9,-8.5h44.2c8.4,0,14.4,-3.4,16.9,-8.4c2.5,5,8.4,8.4,16.9,8.4h44.1c8.5,0,14.4,3.4,16.9,8.5" class="gc_54"/>
<path d="M233.7,680.5H701.5m-311.9,8.6V670.2m155.9,18.9V670.2" class="g0_54"/>
<path d="M391.7,749.9H543.5M397,756l-6.2,-6.1l6.2,-6.1m141.2,0l6.2,6.1l-6.2,6.1" class="gc_54"/>
</svg>