<?xml version="1.0" encoding="UTF-8" standalone="no"?>
<!DOCTYPE svg PUBLIC "-//W3C//DTD SVG 1.1//EN"
"http://www.w3.org/Graphics/SVG/1.1/DTD/svg11.dtd">
<svg viewBox="0 0 1286 909" version="1.1" xmlns="http://www.w3.org/2000/svg" xmlns:xlink="http://www.w3.org/1999/xlink">
<defs>
<style type="text/css"><![CDATA[
.g0_88{
fill: none;
stroke: #000000;
stroke-width: 0.73;
stroke-linecap: butt;
stroke-linejoin: miter;
}
.g1_88{
fill: #B3E9FA;
}
.g2_88{
fill: none;
stroke: #02B5EE;
stroke-width: 1.262;
stroke-linecap: butt;
stroke-linejoin: miter;
}
.g3_88{
fill: none;
stroke: #5EE200;
stroke-width: 1.262;
stroke-linecap: butt;
stroke-linejoin: miter;
}
]]></style>
</defs>
<path d="M193,83.4h900.3M193,210.6h833.6m-833.6,0h833.6M608.1,240.2V211m0,58.5V240.2m0,114.3v-85" class="g0_88"/>
<path d="M621.7,311V292.5c0,-2.9,2.3,-5.2,5.2,-5.2H737.8c2.9,0,5.2,2.3,5.2,5.2V311c0,2.9,-2.3,5.2,-5.2,5.2H626.9c-2.9,0,-5.2,-2.3,-5.2,-5.2Z" class="g1_88"/>
<path d="M619.1,330.5H745.6" class="g2_88"/>
<path d="M756.1,330.5h259.5" class="g3_88"/>
<path d="M608.1,383.7V354.5m0,58.4V383.7m0,114.3V412.9" class="g0_88"/>
<path d="M729,448.2V436c0,-2.9,2.3,-5.2,5.2,-5.2H846.5c2.9,0,5.2,2.3,5.2,5.2v12.2c0,2.8,-2.3,5.2,-5.2,5.2H734.2c-2.9,0,-5.2,-2.4,-5.2,-5.2Z" class="g1_88"/>
<path d="M726.4,474H854.3" class="g2_88"/>
<path d="M864.8,474h150.8" class="g3_88"/>
<path d="M608.1,527.2V498M193,527.5h833.6m-833.6,0h833.6" class="g0_88"/>
</svg>