<?xml version="1.0" encoding="UTF-8" standalone="no"?>
<!DOCTYPE svg PUBLIC "-//W3C//DTD SVG 1.1//EN"
"http://www.w3.org/Graphics/SVG/1.1/DTD/svg11.dtd">
<svg viewBox="0 0 1286 909" version="1.1" xmlns="http://www.w3.org/2000/svg" xmlns:xlink="http://www.w3.org/1999/xlink">
<defs>
<style type="text/css"><![CDATA[
.g0_186{
fill: none;
stroke: #000000;
stroke-width: 0.73;
stroke-linecap: butt;
stroke-linejoin: miter;
}
.g1_186{
fill: none;
stroke: #02B5EE;
stroke-width: 1.262;
stroke-linecap: butt;
stroke-linejoin: miter;
}
.g2_186{
fill: none;
stroke: #5EE200;
stroke-width: 1.262;
stroke-linecap: butt;
stroke-linejoin: miter;
}
.g3_186{
fill: none;
stroke: #5EE200;
stroke-width: 0.73;
stroke-linecap: butt;
stroke-linejoin: miter;
}
.g4_186{
fill: none;
stroke: #02B5EE;
stroke-width: 0.73;
stroke-linecap: butt;
stroke-linejoin: miter;
}
]]></style>
</defs>
<path d="M193,83.4h900.3M193,111.6H905.7m-712.7,0H905.7M596,141.2V112m0,58.5V141.2m0,114.3v-85" class="g0_186"/>
<path d="M670.4,231.5H861.8" class="g1_186"/>
<path d="M872.3,231.5h22.4" class="g2_186"/>
<path d="M596,284.7V255.5m0,102.3V284.7" class="g0_186"/>
<path d="M657.6,343.9H692" class="g3_186"/>
<path d="M692,343.9H894.7" class="g4_186"/>
<path d="M596,387V357.8m0,58.4V387m0,114.2v-85" class="g0_186"/>
<path d="M711.1,477.3H861.8" class="g1_186"/>
<path d="M872.3,477.3h22.4" class="g2_186"/>
<path d="M596,530.5V501.2m0,102.3v-73" class="g0_186"/>
<path d="M606.9,589.6h34.5" class="g3_186"/>
<path d="M641.4,589.6H894.7" class="g4_186"/>
<path d="M596,632.7V603.5M193,633.1H905.7m-712.7,0H905.7" class="g0_186"/>
</svg>