<?xml version="1.0" encoding="UTF-8" standalone="no"?>
<!DOCTYPE svg PUBLIC "-//W3C//DTD SVG 1.1//EN"
"http://www.w3.org/Graphics/SVG/1.1/DTD/svg11.dtd">
<svg viewBox="0 0 1286 909" version="1.1" xmlns="http://www.w3.org/2000/svg" xmlns:xlink="http://www.w3.org/1999/xlink">
<defs>
<style type="text/css"><![CDATA[
.g0_187{
fill: none;
stroke: #000000;
stroke-width: 0.73;
stroke-linecap: butt;
stroke-linejoin: miter;
}
.g1_187{
fill: none;
stroke: #02B5EE;
stroke-width: 1.262;
stroke-linecap: butt;
stroke-linejoin: miter;
}
.g2_187{
fill: none;
stroke: #5EE200;
stroke-width: 1.262;
stroke-linecap: butt;
stroke-linejoin: miter;
}
.g3_187{
fill: none;
stroke: #5EE200;
stroke-width: 0.73;
stroke-linecap: butt;
stroke-linejoin: miter;
}
.g4_187{
fill: none;
stroke: #02B5EE;
stroke-width: 0.73;
stroke-linecap: butt;
stroke-linejoin: miter;
}
]]></style>
</defs>
<path d="M193,83.4h900.3M193,210.6H813.4m-620.4,0H813.4M600.5,240.2V211m0,58.5V240.2m0,114.3v-85" class="g0_187"/>
<path d="M611.8,330.5h68" class="g1_187"/>
<path d="M690.3,330.5h22.2m10.5,0h79.5" class="g2_187"/>
<path d="M600.5,383.7V354.5m0,58.4V383.7m0,116.7V412.9" class="g0_187"/>
<path d="M611.5,474h68" class="g1_187"/>
<path d="M690,474h22.5m10.5,0h79.5" class="g2_187"/>
<path d="M600.5,529.6V500.4m0,103.7V529.6" class="g0_187"/>
<path d="M637.6,588.8h34.5m6,0h50.7" class="g3_187"/>
<path d="M734.9,588.8h67.6" class="g4_187"/>
<path d="M600.5,633.4V604.1M193,633.7H813.4m-620.4,0H813.4" class="g0_187"/>
</svg>