<?xml version="1.0" encoding="UTF-8" standalone="no"?>
<!DOCTYPE svg PUBLIC "-//W3C//DTD SVG 1.1//EN"
"http://www.w3.org/Graphics/SVG/1.1/DTD/svg11.dtd">
<svg viewBox="0 0 1286 909" version="1.1" xmlns="http://www.w3.org/2000/svg" xmlns:xlink="http://www.w3.org/1999/xlink">
<defs>
<style type="text/css"><![CDATA[
.g0_582{
fill: none;
stroke: #000000;
stroke-width: 0.73;
stroke-linecap: butt;
stroke-linejoin: miter;
}
.g1_582{
fill: none;
stroke: #02B5EE;
stroke-width: 1.262;
stroke-linecap: butt;
stroke-linejoin: miter;
}
.g2_582{
fill: none;
stroke: #5EE200;
stroke-width: 1.262;
stroke-linecap: butt;
stroke-linejoin: miter;
}
.g3_582{
fill: none;
stroke: #5EE200;
stroke-width: 0.73;
stroke-linecap: butt;
stroke-linejoin: miter;
}
.g4_582{
fill: none;
stroke: #02B5EE;
stroke-width: 0.73;
stroke-linecap: butt;
stroke-linejoin: miter;
}
]]></style>
</defs>
<path d="M193,83.4h900.3M193,210.6H753.9m-560.9,0H753.9m-296,29.6V211m0,58.5V240.2m0,114.3v-85" class="g0_582"/>
<path d="M468.9,330.5h77.9" class="g1_582"/>
<path d="M557.3,330.5h22.5" class="g2_582"/>
<path d="M457.9,383.7V354.5m0,102.3V383.7" class="g0_582"/>
<path d="M476.3,442.9h34.5" class="g3_582"/>
<path d="M675.4,442.9H743" class="g4_582"/>
<path d="M457.9,486V456.8m0,58.4V486m0,114.2v-85" class="g0_582"/>
<path d="M501.5,576.2h78" class="g1_582"/>
<path d="M457.9,629.5V600.2m0,58.5V629.5m0,58.4V658.7M193,688.3H753.9m-560.9,0H753.9" class="g0_582"/>
</svg>