<?xml version="1.0" encoding="UTF-8" standalone="no"?>
<!DOCTYPE svg PUBLIC "-//W3C//DTD SVG 1.1//EN"
"http://www.w3.org/Graphics/SVG/1.1/DTD/svg11.dtd">
<svg viewBox="0 0 909 1286" version="1.1" xmlns="http://www.w3.org/2000/svg" xmlns:xlink="http://www.w3.org/1999/xlink">
<defs>
<style type="text/css"><![CDATA[
.g0_134{
fill: none;
stroke: #000000;
stroke-width: 0.73;
stroke-linecap: butt;
stroke-linejoin: miter;
}
.g1_134{
fill: #E81A58;
}
.g2_134{
fill: #401A1A;
}
.g3_134{
fill: #7F7F7F;
fill-opacity: 0.01;
}
.g4_134{
fill: #7F7F7F;
fill-opacity: 0.02;
}
.g5_134{
fill: #7F7F7F;
fill-opacity: 0.04;
}
.g6_134{
fill: #7F7F7F;
fill-opacity: 0.07;
}
.g7_134{
fill: #7F7F7F;
fill-opacity: 0.11;
}
.g8_134{
fill: #FFFFFF;
}
.g9_134{
fill: #CBCEFB;
}
]]></style>
</defs>
<path d="M116.9,159.9H792.5" class="g0_134"/>
<path d="M116.9,391.2V179.5H792.5V352.1c0,21.6,-17.5,39.1,-39.1,39.1Z" class="g1_134"/>
<path d="M119.5,388.6V179.5H789.9V352.1c0,20.2,-16.3,36.5,-36.5,36.5Z" class="g2_134"/>
<path d="M122.2,411.2c221.7,0,443.4,0,665,0V932.5c-221.6,-9.3,-443.3,-9.3,-665,0Z" class="g3_134"/>
<path d="M122.9,411.8c221.2,0,442.4,0,663.7,0V931.9c-221.3,-9.4,-442.5,-9.4,-663.7,0Z" class="g4_134"/>
<path d="M123.5,412.4c220.8,0,441.6,0,662.5,0V931.3c-220.9,-9.4,-441.7,-9.4,-662.5,0Z" class="g5_134"/>
<path d="M124.1,413c220.4,0,440.8,0,661.2,0V930.7c-220.4,-9.4,-440.8,-9.4,-661.2,0Z" class="g6_134"/>
<path d="M124.7,413.6c220,0,440,0,660,0V930c-220,-9.3,-440,-9.3,-660,0Z" class="g7_134"/>
<path d="M125.4,414.3c219.5,0,439.1,0,658.7,0V929.4c-219.6,-9.3,-439.2,-9.3,-658.7,0Z" class="g7_134"/>
<path d="M126,414.9c219.1,0,438.3,0,657.5,0V928.8c-219.2,-9.4,-438.4,-9.4,-657.5,0Z" class="g6_134"/>
<path d="M126.6,415.5c218.8,0,437.5,0,656.3,0V928.2c-218.8,-9.4,-437.5,-9.4,-656.3,0Z" class="g5_134"/>
<path d="M127.2,416.1c218.4,0,436.7,0,655,0V927.5c-218.3,-9.3,-436.6,-9.3,-655,0Z" class="g4_134"/>
<path d="M127.9,416.8c217.9,0,435.8,0,653.7,0V926.9c-217.9,-9.3,-435.8,-9.3,-653.7,0Z" class="g3_134"/>
<path d="M116.9,922.2V405.9H792.5V922.2Z" class="g8_134"/>
<path d="M119.5,919.6V408.5H789.9V919.6Z" class="g8_134"/>
<path d="M383.8,424.4H525.7M384.1,454V424.8" class="g0_134"/>
<path d="M384.5,454h69.9V424.8H384.5V454Z" class="g9_134"/>
<path d="M454.7,454V424.8" class="g0_134"/>
<path d="M455.1,454h69.8V424.8H455.1V454Z" class="g9_134"/>
<path d="M525.3,454V424.8M383.8,454.4H525.7M384.1,484V454.7M454.7,484V454.7M525.3,484V454.7M383.8,484.3H525.7M384.1,513.9V484.7m70.6,29.2V484.7m70.6,29.2V484.7M383.8,514.3H525.7M384.1,543.9V514.6m70.6,29.3V514.6m70.6,29.3V514.6M383.8,544.2H525.7M384.1,573.8V544.6m70.6,29.2V544.6m70.6,29.2V544.6M383.8,574.2H525.7M384.1,603.8V574.5m70.6,29.3V574.5m70.6,29.3V574.5M383.8,604.1H525.7M384.1,633.7V604.5m70.6,29.2V604.5m70.6,29.2V604.5M383.8,634.1H525.7M384.1,663.7V634.5m70.6,29.2V634.5m70.6,29.2V634.5M383.8,664H525.7M384.1,693.6V664.4m70.6,29.2V664.4m70.6,29.2V664.4M383.8,694H525.7M384.1,723.6V694.4m70.6,29.2V694.4m70.6,29.2V694.4M383.8,724H525.7M384.1,753.5V724.3m70.6,29.2V724.3m70.6,29.2V724.3M383.8,753.9H525.7M384.1,783.5V754.3m70.6,29.2V754.3m70.6,29.2V754.3M383.8,783.9H525.7M384.1,813.5V784.2m70.6,29.3V784.2m70.6,29.3V784.2M383.8,813.8H525.7M384.1,843.4V814.2m70.6,29.2V814.2m70.6,29.2V814.2M383.8,843.8H525.7M384.1,873.4V844.1m70.6,29.3V844.1m70.6,29.3V844.1M383.8,873.7H525.7M384.1,903.3V874.1m70.6,29.2V874.1m70.6,29.2V874.1M383.8,903.7H525.7" class="g0_134"/>
</svg>