<?xml version="1.0" encoding="UTF-8" standalone="no"?>
<!DOCTYPE svg PUBLIC "-//W3C//DTD SVG 1.1//EN"
"http://www.w3.org/Graphics/SVG/1.1/DTD/svg11.dtd">
<svg viewBox="0 0 1286 909" version="1.1" xmlns="http://www.w3.org/2000/svg" xmlns:xlink="http://www.w3.org/1999/xlink">
<defs>
<style type="text/css"><![CDATA[
.g0_435{
fill: none;
stroke: #000000;
stroke-width: 0.73;
stroke-linecap: butt;
stroke-linejoin: miter;
}
.g1_435{
fill: #B3E9FA;
}
.g2_435{
fill: none;
stroke: #02B5EE;
stroke-width: 1.262;
stroke-linecap: butt;
stroke-linejoin: miter;
}
.g3_435{
fill: none;
stroke: #5EE200;
stroke-width: 1.262;
stroke-linecap: butt;
stroke-linejoin: miter;
}
]]></style>
</defs>
<path d="M193,83.4h900.3M193,210.6H890.2m-697.2,0H890.2M559.3,240.2V211m0,58.5V240.2m0,114.3v-85" class="g0_435"/>
<path d="M736.9,304.7V292.5c0,-2.9,2.3,-5.2,5.2,-5.2h56.3c2.9,0,5.2,2.3,5.2,5.2v12.2c0,2.9,-2.3,5.2,-5.2,5.2H742.1c-2.9,0,-5.2,-2.3,-5.2,-5.2Z" class="g1_435"/>
<path d="M734.3,330.5h71.9" class="g2_435"/>
<path d="M816.7,330.5h62.5" class="g3_435"/>
<path d="M559.3,383.7V354.5m0,58.4V383.7m0,114.3V412.9" class="g0_435"/>
<path d="M600,448.2V436c0,-2.9,2.3,-5.2,5.2,-5.2h91.6c2.9,0,5.2,2.3,5.2,5.2v12.2c0,2.8,-2.3,5.2,-5.2,5.2H605.2c-2.9,0,-5.2,-2.4,-5.2,-5.2Z" class="g1_435"/>
<path d="M597.4,474H704.6" class="g2_435"/>
<path d="M715.1,474H879.2" class="g3_435"/>
<path d="M559.3,527.2V498m0,58.4V527.2m0,114.2v-85" class="g0_435"/>
<path d="M572.8,598V579.4c0,-2.8,2.4,-5.2,5.2,-5.2h95c2.9,0,5.2,2.4,5.2,5.2V598c0,2.8,-2.3,5.2,-5.2,5.2H578c-2.8,0,-5.2,-2.4,-5.2,-5.2Z" class="g1_435"/>
<path d="M570.2,617.4H680.8" class="g2_435"/>
<path d="M691.3,617.4H879.2" class="g3_435"/>
<path d="M559.3,670.6V641.4M193,671H890.2M193,671H890.2" class="g0_435"/>
</svg>