<?xml version="1.0" encoding="UTF-8" standalone="no"?>
<!DOCTYPE svg PUBLIC "-//W3C//DTD SVG 1.1//EN"
"http://www.w3.org/Graphics/SVG/1.1/DTD/svg11.dtd">
<svg viewBox="0 0 1286 909" version="1.1" xmlns="http://www.w3.org/2000/svg" xmlns:xlink="http://www.w3.org/1999/xlink">
<defs>
<style type="text/css"><![CDATA[
.g0_1063{
fill: none;
stroke: #000000;
stroke-width: 0.73;
stroke-linecap: butt;
stroke-linejoin: miter;
}
.g1_1063{
fill: none;
stroke: #F81693;
stroke-width: 0.73;
stroke-linecap: butt;
stroke-linejoin: miter;
}
.g2_1063{
fill: none;
stroke: #FFA313;
stroke-width: 0.73;
stroke-linecap: butt;
stroke-linejoin: miter;
}
.g3_1063{
fill: none;
stroke: #02B5EE;
stroke-width: 0.73;
stroke-linecap: butt;
stroke-linejoin: miter;
}
.g4_1063{
fill: none;
stroke: #5EE200;
stroke-width: 0.73;
stroke-linecap: butt;
stroke-linejoin: miter;
}
.g5_1063{
fill: #FFCCCC;
}
.g6_1063{
fill: none;
stroke: #F81693;
stroke-width: 1.262;
stroke-linecap: butt;
stroke-linejoin: miter;
}
.g7_1063{
fill: none;
stroke: #02B5EE;
stroke-width: 1.262;
stroke-linecap: butt;
stroke-linejoin: miter;
}
]]></style>
</defs>
<path d="M193,83.4h900.3M193,111.6H821.1m-628.1,0H821.1M425.7,141.2V112m0,111.2v-82" class="g0_1063"/>
<path d="M622.3,200.4h67.6" class="g1_1063"/>
<path d="M696,200.4h34.4" class="g2_1063"/>
<path d="M736.5,200.4h33.8" class="g3_1063"/>
<path d="M776.3,200.4h33.8" class="g4_1063"/>
<path d="M425.7,252.4V223.2m0,58.4V252.4m0,128.8V281.6" class="g0_1063"/>
<path d="M549.8,332.2V289.3c0,-2.8,2.4,-5.2,5.2,-5.2H664.9c2.9,0,5.2,2.4,5.2,5.2v42.9c0,2.9,-2.3,5.2,-5.2,5.2H555c-2.8,0,-5.2,-2.3,-5.2,-5.2Z" class="g5_1063"/>
<path d="M547.2,342.7h136" class="g6_1063"/>
<path d="M693.7,342.7H810.1" class="g7_1063"/>
<path d="M425.7,410.4V381.2m0,111.1V410.4" class="g0_1063"/>
<path d="M702.7,469.6h67.6" class="g3_1063"/>
<path d="M776.3,469.6h33.8" class="g1_1063"/>
<path d="M425.7,521.6V492.3M193,521.9H821.1m-628.1,0H821.1" class="g0_1063"/>
</svg>