<?xml version="1.0" encoding="UTF-8" standalone="no"?>
<!DOCTYPE svg PUBLIC "-//W3C//DTD SVG 1.1//EN"
"http://www.w3.org/Graphics/SVG/1.1/DTD/svg11.dtd">
<svg viewBox="0 0 1286 909" version="1.1" xmlns="http://www.w3.org/2000/svg" xmlns:xlink="http://www.w3.org/1999/xlink">
<defs>
<style type="text/css"><![CDATA[
.g0_423{
fill: none;
stroke: #000000;
stroke-width: 0.73;
stroke-linecap: butt;
stroke-linejoin: miter;
}
.g1_423{
fill: none;
stroke: #02B5EE;
stroke-width: 1.262;
stroke-linecap: butt;
stroke-linejoin: miter;
}
.g2_423{
fill: none;
stroke: #5EE200;
stroke-width: 1.262;
stroke-linecap: butt;
stroke-linejoin: miter;
}
.g3_423{
fill: none;
stroke: #5EE200;
stroke-width: 0.73;
stroke-linecap: butt;
stroke-linejoin: miter;
}
.g4_423{
fill: none;
stroke: #02B5EE;
stroke-width: 0.73;
stroke-linecap: butt;
stroke-linejoin: miter;
}
]]></style>
</defs>
<path d="M193,83.4h900.3M193,210.6H615.7m-422.7,0H615.7M357.3,240.2V211m0,58.5V240.2m0,114.3v-85" class="g0_423"/>
<path d="M394.9,330.5H452" class="g1_423"/>
<path d="M462.5,330.5H604.8" class="g2_423"/>
<path d="M357.3,383.7V354.5m0,102.3V383.7" class="g0_423"/>
<path d="M485.9,442.9h68.2" class="g3_423"/>
<path d="M554.1,442.9h50.7" class="g4_423"/>
<path d="M357.3,486V456.8m0,58.4V486m0,114.2v-85" class="g0_423"/>
<path d="M396.6,576.2h57.2" class="g1_423"/>
<path d="M464.3,576.2H604.8" class="g2_423"/>
<path d="M357.3,629.5V600.2m0,102.3v-73" class="g0_423"/>
<path d="M368.3,688.6H554.1" class="g3_423"/>
<path d="M554.1,688.6h50.7" class="g4_423"/>
<path d="M357.3,731.7V702.5M193,732.1H615.7m-422.7,0H615.7" class="g0_423"/>
</svg>