<?xml version="1.0" encoding="UTF-8" standalone="no"?>
<!DOCTYPE svg PUBLIC "-//W3C//DTD SVG 1.1//EN"
"http://www.w3.org/Graphics/SVG/1.1/DTD/svg11.dtd">
<svg viewBox="0 0 1286 909" version="1.1" xmlns="http://www.w3.org/2000/svg" xmlns:xlink="http://www.w3.org/1999/xlink">
<defs>
<style type="text/css"><![CDATA[
.g0_339{
fill: none;
stroke: #000000;
stroke-width: 0.73;
stroke-linecap: butt;
stroke-linejoin: miter;
}
.g1_339{
fill: none;
stroke: #02B5EE;
stroke-width: 1.262;
stroke-linecap: butt;
stroke-linejoin: miter;
}
.g2_339{
fill: none;
stroke: #02B5EE;
stroke-width: 0.73;
stroke-linecap: butt;
stroke-linejoin: miter;
}
.g3_339{
fill: none;
stroke: #F81693;
stroke-width: 1.262;
stroke-linecap: butt;
stroke-linejoin: miter;
}
.g4_339{
fill: none;
stroke: #5EE200;
stroke-width: 1.262;
stroke-linecap: butt;
stroke-linejoin: miter;
}
]]></style>
</defs>
<path d="M193,83.4h900.3M193,111.6h888.7m-888.7,0h888.7M554.1,141.2V112m0,58.5V141.2m0,58.5V170.5m0,114.2v-85" class="g0_339"/>
<path d="M867.8,260.7h73.6" class="g1_339"/>
<path d="M554.1,313.9V284.7m0,102.3V313.9" class="g0_339"/>
<path d="M1020.1,373.1h50.7" class="g2_339"/>
<path d="M554.1,416.2V387m0,58.4V416.2m0,114.3V445.4" class="g0_339"/>
<path d="M565,506.5h87.4" class="g1_339"/>
<path d="M662.9,506.5H674" class="g3_339"/>
<path d="M684.5,506.5h67.4" class="g1_339"/>
<path d="M762.4,506.5H863.3" class="g4_339"/>
<path d="M554.1,559.7V530.5M193,560.1h888.7m-888.7,0h888.7" class="g0_339"/>
</svg>