<?xml version="1.0" encoding="UTF-8" standalone="no"?>
<!DOCTYPE svg PUBLIC "-//W3C//DTD SVG 1.1//EN"
"http://www.w3.org/Graphics/SVG/1.1/DTD/svg11.dtd">
<svg viewBox="0 0 909 1286" version="1.1" xmlns="http://www.w3.org/2000/svg" xmlns:xlink="http://www.w3.org/1999/xlink">
<defs>
<style type="text/css"><![CDATA[
.g0_9{
fill: none;
stroke: #000000;
stroke-width: 0.73;
stroke-linecap: butt;
stroke-linejoin: miter;
}
.g1_9{
fill: none;
stroke: #F81693;
stroke-width: 0.73;
stroke-linecap: butt;
stroke-linejoin: miter;
}
.g2_9{
fill: none;
stroke: #02B5EE;
stroke-width: 0.73;
stroke-linecap: butt;
stroke-linejoin: miter;
}
.g3_9{
fill: none;
stroke: #02B5EE;
stroke-width: 1.461;
stroke-linecap: butt;
stroke-linejoin: miter;
}
.g4_9{
fill: #FDE8E9;
}
.g5_9{
fill: #FFFFFF;
}
]]></style>
</defs>
<path d="M116.9,179.9H625.1M285.3,209.5V180.3M201,252.2l31.2,18.7m0,36.7V271M201,326.4l31.2,-18.6M201,326.4L169.7,307.8m0,-.2V271M201,252.2l-31.3,18.7m32.4,-11l23,13.7m-23,45.1l23,-13.7m-49.3,-2.2v-27M201,252.2V226.6m0,99.8V352m84.3,27V209.5" class="g0_9"/>
<path d="M443.7,256.1L462,267m6.5,33.3V280.2m-24.8,42.3L462,311.6m-31.1,10.9L405.7,307.6m.4,0V271m24.8,-14.9l-24.8,14.8m37.6,-8.8L462,273m-18.3,42.4L462,304.5m-49.9,-1.7v-27m25.2,-29.1V226.6" class="g1_9"/>
<path d="M437.3,331.9V352" class="g2_9"/>
<path d="M285.3,408.2V379m0,58.4V408.2" class="g0_9"/>
<path d="M426.3,436c1.4,0,2.1,-2.8,3.5,-2.8c.9,0,1.8,1.4,2.7,2.8c.9,1.4,1.7,2.7,2.7,2.7c1,0,1.9,-1.3,2.8,-2.7c.9,-1.4,1.7,-2.8,2.7,-2.8c1.4,0,2.1,2.8,3.4,2.8H448" class="g3_9"/>
<path d="M285.3,466.7V437.4m0,58.5V466.7m0,198.7V495.9m152,42.7l24.8,14.8m6.4,33.3V566.6m-24.8,42.3L462,598m-31.1,10.9L405.7,594m.4,0V557.4m31.2,-18.8l-31.2,18.7m32.3,-11l18.3,11m-13,44.5L462,590.9m-49.9,-1.7v-27" class="g0_9"/>
<path d="M462,567.1h21V547.6H462v19.5Z" class="g4_9"/>
<path d="M462,606.4h28.3V586.8H462v19.6Z" class="g4_9"/>
<path d="M431.6,623.7h21.9V600.5H431.6v23.2Z" class="g4_9"/>
<path d="M437.3,538.6V513.1m0,105.2v20.1m-152,102.7V665.4" class="g0_9"/>
<path d="M363,733.3V673.2c0,-2.9,2.3,-5.2,5.1,-5.2H536.4c2.9,0,5.2,2.3,5.2,5.2v60.1c0,2.9,-2.3,5.2,-5.2,5.2H368.1c-2.8,0,-5.1,-2.3,-5.1,-5.2Z" class="g5_9"/>
<path d="M413.5,764.3H491V747.6H413.5v16.7Z" class="g4_9"/>
<path d="M388.9,722.9H515.6V683.6H388.9v39.3Z" class="g4_9"/>
<path d="M285.3,770.3V741.1m0,58.5V770.3M116.9,799.9H625.1" class="g0_9"/>
</svg>