<?xml version="1.0" encoding="UTF-8" standalone="no"?>
<!DOCTYPE svg PUBLIC "-//W3C//DTD SVG 1.1//EN"
"http://www.w3.org/Graphics/SVG/1.1/DTD/svg11.dtd">
<svg viewBox="0 0 909 1286" version="1.1" xmlns="http://www.w3.org/2000/svg" xmlns:xlink="http://www.w3.org/1999/xlink">
<defs>
<style type="text/css"><![CDATA[
.g0_17{
fill: none;
stroke: #000000;
stroke-width: 0.73;
stroke-linecap: butt;
stroke-linejoin: miter;
}
.g1_17{
fill: none;
stroke: #F81693;
stroke-width: 0.73;
stroke-linecap: butt;
stroke-linejoin: miter;
}
.g2_17{
fill: none;
stroke: #02B5EE;
stroke-width: 0.73;
stroke-linecap: butt;
stroke-linejoin: miter;
}
.g3_17{
fill: #FFD9D9;
}
.g4_17{
}
]]></style>
</defs>
<path d="M116.9,179.9H900.3M504.4,209.5V180.3M167.6,257h15.7m10.6,-11.4V225.9m0,42.5V288m10.6,-31h19.9m280,50.2V209.5" class="g0_17"/>
<path d="M623,257h8.8" class="g1_17"/>
<path d="M642.4,245.6V225.9m0,42.5V288" class="g2_17"/>
<path d="M653,257h19.9" class="g1_17"/>
<path d="M504.4,336.4V307.2m0,58.4V336.4m0,69.6V365.6" class="g0_17"/>
<path d="M583.3,406H706.1V365.6H583.3V406Z" class="g3_17"/>
<path d="M626.2,390.3h9.2" class="g0_17"/>
<path d="M626.4,390.7h-.9v-.8h.9Z" class="g4_17"/>
<path d="M635.2,389.9h.9v.8h-.9Z" class="g4_17"/>
<path d="M654,390.3h9.2" class="g0_17"/>
<path d="M654.2,390.7h-.9v-.8h.9Z" class="g4_17"/>
<path d="M663,389.9h.9v.8H663Z" class="g4_17"/>
<path d="M504.4,435.2V406m0,58.5V435.2m0,58.5V464.5m0,58.4V493.7m0,58.4V522.9m0,58.5V552.1m0,58.5V581.4M116.9,610.9H900.3M504.4,640.5V611.3M196,686.2h19.5M196,689.9h19.5M251.3,688h19.5m10.6,-10V657m32.7,-8.7h15.8m35.7,-3.2h19.6m-19.6,3.7h19.6M306.5,688h19.6m107.8,-1.8h19.5m-19.5,3.7h19.5m51,13.3V640.5" class="g0_17"/>
<path d="M592.2,686.2h19.6m-19.6,3.7h19.6M647.5,688h19.6" class="g1_17"/>
<path d="M677.7,678V657m32.7,-8.7h15.8m35.7,-3.2h19.6m-19.6,3.7h19.6" class="g2_17"/>
<path d="M702.8,688h19.6m107.7,-1.8h19.6m-19.6,3.7h19.6" class="g1_17"/>
<path d="M504.4,732.4V703.2m0,58.4V732.4m0,69.6V761.6" class="g0_17"/>
<path d="M549.5,802H870.1V761.6H549.5V802Z" class="g3_17"/>
<path d="M620.8,787.9H630" class="g0_17"/>
<path d="M621,788.2h-.9v-.7h.9Z" class="g4_17"/>
<path d="M629.8,787.5h.9v.7h-.9Z" class="g4_17"/>
<path d="M620.8,784.7H630" class="g0_17"/>
<path d="M621,785.1h-.9v-.7h.9Z" class="g4_17"/>
<path d="M629.8,784.4h.9v.7h-.9Z" class="g4_17"/>
<path d="M663.2,786.3h9.2" class="g0_17"/>
<path d="M663.3,786.7h-.9v-.8h.9Z" class="g4_17"/>
<path d="M672.2,785.9h.9v.8h-.9Z" class="g4_17"/>
<path d="M705.5,786.3h9.2" class="g0_17"/>
<path d="M705.7,786.7h-.9v-.8h.9Z" class="g4_17"/>
<path d="M714.5,785.9h.9v.8h-.9Z" class="g4_17"/>
<path d="M818,787.9h9.1" class="g0_17"/>
<path d="M818.1,788.2h-.9v-.7h.9Z" class="g4_17"/>
<path d="M827,787.5h.9v.7H827Z" class="g4_17"/>
<path d="M818,784.7h9.1" class="g0_17"/>
<path d="M818.1,785.1h-.9v-.7h.9Z" class="g4_17"/>
<path d="M827,784.4h.9v.7H827Z" class="g4_17"/>
<path d="M504.4,831.2V802m0,58.5V831.2m0,58.5V860.5m0,58.4V889.7m0,58.4V918.9m0,58.5V948.1m0,58.5V977.4m-387.5,29.5H900.3" class="g0_17"/>
</svg>