<?xml version="1.0" encoding="UTF-8" standalone="no"?>
<!DOCTYPE svg PUBLIC "-//W3C//DTD SVG 1.1//EN"
"http://www.w3.org/Graphics/SVG/1.1/DTD/svg11.dtd">
<svg viewBox="0 0 909 1286" version="1.1" xmlns="http://www.w3.org/2000/svg" xmlns:xlink="http://www.w3.org/1999/xlink">
<defs>
<style type="text/css"><![CDATA[
.g0_17{
fill: none;
stroke: #000000;
stroke-width: 0.73;
stroke-linecap: butt;
stroke-linejoin: miter;
}
.g1_17{
fill: none;
stroke: #F81693;
stroke-width: 0.73;
stroke-linecap: butt;
stroke-linejoin: miter;
}
]]></style>
</defs>
<path d="M116.9,179.9H691.8M307.3,209.5V180.3M184.5,252.4L215.8,271m0,36.8V271.2m-31.3,55.4l31.3,-18.7m-31.3,18.7L153.3,307.9m0,-.1V271.2m31.2,-18.8L153.3,271m32.3,-10.9l23,13.7m-23,45.1l23,-13.7M159.3,303V276m25.2,-23.6V226.8m31.3,44.4l21.9,-13.1m69.6,130.2V209.5" class="g0_17"/>
<path d="M459.2,252.2l31.2,18.7m0,36.7V271m-31.2,55.4l31.2,-18.6m-31.2,18.6L428,307.8m0,-.2V271m31.2,-18.8L428,270.9m32.3,-11l23,13.7m-23,45.1l23,-13.7M434,302.8v-27" class="g1_17"/>
<path d="M459.2,252.2V226.6M490.4,271l22,-13.1" class="g0_17"/>
<path d="M459.2,252.2V226.6M490.4,271l22,-13.1" class="g1_17"/>
<path d="M307.3,417.5V388.3m0,58.5V417.5m0,58.5V446.8m0,58.4V476m0,58.4V505.2m0,58.4V534.4m0,58.5V563.6M116.9,593.2H691.8M307.3,622.8V593.6M184.5,665.7l31.3,18.7m0,36.7V684.6m-31.3,55.3l31.3,-18.6m-31.3,18.6L153.3,721.3m0,-.2V684.6m31.2,-18.9l-31.2,18.7m32.3,-11l23,13.7m-23,45.1l23,-13.7m-49.3,-2.2v-27m25.2,-23.6V640.2m31.3,80.9l21.9,13.1m69.6,67.4V622.8" class="g0_17"/>
<path d="M459.2,665.6l31.2,18.6m0,36.7V684.4m-31.2,55.3l31.2,-18.6m-31.2,18.6L428,721.1m0,-.2V684.4m31.2,-18.8L428,684.2m32.3,-11l23,13.7m-23,45.2l23,-13.7M434,716.2V689.1" class="g1_17"/>
<path d="M459.2,665.6V640m31.2,80.9l22,13.2" class="g0_17"/>
<path d="M459.2,665.6V640m31.2,80.9l22,13.2" class="g1_17"/>
<path d="M307.3,830.9V801.6m0,58.5V830.9m0,58.4V860.1m0,58.4V889.3m0,58.5V918.5m0,58.5V947.8m0,58.4V977m-190.4,29.6H691.8" class="g0_17"/>
</svg>