<?xml version="1.0" encoding="UTF-8" standalone="no"?>
<!DOCTYPE svg PUBLIC "-//W3C//DTD SVG 1.1//EN"
"http://www.w3.org/Graphics/SVG/1.1/DTD/svg11.dtd">
<svg viewBox="0 0 909 1286" version="1.1" xmlns="http://www.w3.org/2000/svg" xmlns:xlink="http://www.w3.org/1999/xlink">
<defs>
<clipPath id="c0_10"><path d="M119.5,215.7V182.1H789.9v33.6Z"/></clipPath>
<clipPath id="c1_10"><path d="M119.5,452.5V419H789.9v33.5Z"/></clipPath>
<clipPath id="c2_10"><path d="M119.5,844.1V810.6H789.9v33.5Z"/></clipPath>
<style type="text/css"><![CDATA[
.g0_10{
fill: none;
stroke: #000000;
stroke-width: 0.73;
stroke-linecap: butt;
stroke-linejoin: miter;
}
.g1_10{
fill: #7F7F7F;
fill-opacity: 0.01;
}
.g2_10{
fill: #7F7F7F;
fill-opacity: 0.02;
}
.g3_10{
fill: #7F7F7F;
fill-opacity: 0.04;
}
.g4_10{
fill: #7F7F7F;
fill-opacity: 0.07;
}
.g5_10{
fill: #7F7F7F;
fill-opacity: 0.11;
}
.g6_10{
fill: #FFFFFF;
}
.g7_10{
fill: #7F7F7F;
}
.g8_10{
fill: #00AEEF;
}
.g9_10{
fill: #CBCEFB;
}
.ga_10{
fill: #EC008C;
}
.gb_10{
fill: #E81A58;
}
.gc_10{
fill: #401A1A;
}
]]></style>
</defs>
<path d="M116.9,159.9H792.5" class="g0_10"/>
<path d="M122.2,184.8c221.7,0,443.4,0,665,0V412.1c-221.6,-9.4,-443.3,-9.4,-665,0Z" class="g1_10"/>
<path d="M122.9,185.4c221.2,0,442.4,0,663.7,0V411.5c-221.3,-9.4,-442.5,-9.4,-663.7,0Z" class="g2_10"/>
<path d="M123.5,186.1c220.8,0,441.6,0,662.5,0V410.8c-220.9,-9.3,-441.7,-9.3,-662.5,0Z" class="g3_10"/>
<path d="M124.1,186.7c220.4,0,440.8,0,661.2,0V410.2c-220.4,-9.3,-440.8,-9.3,-661.2,0Z" class="g4_10"/>
<path d="M124.7,187.3c220,0,440,0,660,0V409.6c-220,-9.4,-440,-9.4,-660,0Z" class="g5_10"/>
<path d="M125.4,187.9c219.5,0,439.1,0,658.7,0V409c-219.6,-9.4,-439.2,-9.4,-658.7,0Z" class="g5_10"/>
<path d="M126,188.6c219.1,0,438.3,0,657.5,0V408.4C564.3,399,345.1,399,126,408.4Z" class="g4_10"/>
<path d="M126.6,189.2c218.8,0,437.5,0,656.3,0V407.7c-218.8,-9.3,-437.5,-9.3,-656.3,0Z" class="g3_10"/>
<path d="M127.2,189.8c218.4,0,436.7,0,655,0V407.1c-218.3,-9.4,-436.6,-9.4,-655,0Z" class="g2_10"/>
<path d="M127.9,190.4c217.9,0,435.8,0,653.7,0V406.5c-217.9,-9.4,-435.8,-9.4,-653.7,0Z" class="g1_10"/>
<path d="M116.9,401.8V179.5H792.5V401.8Z" class="g6_10"/>
<path d="M119.5,399.2v-181H789.9v181Z" class="g6_10"/>
<path d="M119.5,215.7V182.1H789.9v33.6Z" class="g7_10"/>
<g clip-path="url(#c0_10)">
<image x="119" y="181" width="672" height="34" xlink:href="shade/1.png"/>
</g>
<path d="M659.9,210.5h104V187.3h-104v23.2Z" class="g8_10"/>
<path d="M217.2,263.4h475M217.6,293V263.8" class="g0_10"/>
<path d="M218,293h88.2V263.8H218V293Z" class="g9_10"/>
<path d="M306.5,293V263.8" class="g0_10"/>
<path d="M306.9,293H418.7V263.8H306.9V293Z" class="g9_10"/>
<path d="M419.1,293V263.8" class="g0_10"/>
<path d="M419.5,293h60.2V263.8H419.5V293Z" class="g9_10"/>
<path d="M480.1,293V263.8" class="g0_10"/>
<path d="M480.5,293h50.6V263.8H480.5V293Z" class="g9_10"/>
<path d="M531.5,293V263.8" class="g0_10"/>
<path d="M531.9,293h89V263.8h-89V293Z" class="g9_10"/>
<path d="M621.3,293V263.8" class="g0_10"/>
<path d="M621.6,293h69.9V263.8H621.6V293Z" class="g9_10"/>
<path d="M691.9,293V263.8M217.2,293.4h475M217.6,323V293.7M306.5,323V293.7M419.1,323V293.7m61,29.3V293.7M531.5,323V293.7M621.3,323V293.7M691.9,323V293.7M217.2,323.3h475M217.6,352.9V323.7m88.9,29.2V323.7m112.6,29.2V323.7m61,29.2V323.7m51.4,29.2V323.7m89.8,29.2V323.7m70.6,29.2V323.7M217.2,353.3h475M217.6,382.9V353.7m88.9,29.2V353.7m112.6,29.2V353.7m61,29.2V353.7m51.4,29.2V353.7m89.8,29.2V353.7m70.6,29.2V353.7M217.2,383.2h475" class="g0_10"/>
<path d="M122.2,421.7c221.7,0,443.4,0,665,0v228c-221.6,-9.3,-443.3,-9.3,-665,0Z" class="g1_10"/>
<path d="M122.9,422.3c221.2,0,442.4,0,663.7,0V649.1c-221.3,-9.4,-442.5,-9.4,-663.7,0Z" class="g2_10"/>
<path d="M123.5,423c220.8,0,441.6,0,662.5,0V648.5c-220.9,-9.4,-441.7,-9.4,-662.5,0Z" class="g3_10"/>
<path d="M124.1,423.6c220.4,0,440.8,0,661.2,0V647.8c-220.4,-9.3,-440.8,-9.3,-661.2,0Z" class="g4_10"/>
<path d="M124.7,424.2c220,0,440,0,660,0v223c-220,-9.3,-440,-9.3,-660,0Z" class="g5_10"/>
<path d="M125.4,424.8c219.5,0,439.1,0,658.7,0V646.6c-219.6,-9.4,-439.2,-9.4,-658.7,0Z" class="g5_10"/>
<path d="M126,425.5c219.1,0,438.3,0,657.5,0V646C564.3,636.6,345.1,636.6,126,646Z" class="g4_10"/>
<path d="M126.6,426.1c218.8,0,437.5,0,656.3,0V645.3C564.1,636,345.4,636,126.6,645.3Z" class="g3_10"/>
<path d="M127.2,426.7c218.4,0,436.7,0,655,0v218c-218.3,-9.3,-436.6,-9.3,-655,0Z" class="g2_10"/>
<path d="M127.9,427.3c217.9,0,435.8,0,653.7,0V644.1c-217.9,-9.4,-435.8,-9.4,-653.7,0Z" class="g1_10"/>
<path d="M116.9,639.4v-223H792.5v223Z" class="g6_10"/>
<path d="M119.5,636.8V455.1H789.9V636.8Z" class="g6_10"/>
<path d="M119.5,452.5V419H789.9v33.5Z" class="g7_10"/>
<g clip-path="url(#c1_10)">
<image x="119" y="418" width="672" height="34" xlink:href="shade/2.png"/>
</g>
<path d="M675.7,447.3h88.2V424.2H675.7v23.1Z" class="ga_10"/>
<path d="M204.1,471.1H705.4M204.5,500.7V471.5" class="g0_10"/>
<path d="M204.8,500.7H319.3V471.5H204.8v29.2Z" class="g9_10"/>
<path d="M319.7,500.7V471.5" class="g0_10"/>
<path d="M320.1,500.7H431.9V471.5H320.1v29.2Z" class="g9_10"/>
<path d="M432.3,500.7V471.5" class="g0_10"/>
<path d="M432.6,500.7h60.3V471.5H432.6v29.2Z" class="g9_10"/>
<path d="M493.2,500.7V471.5" class="g0_10"/>
<path d="M493.6,500.7h50.7V471.5H493.6v29.2Z" class="g9_10"/>
<path d="M544.7,500.7V471.5" class="g0_10"/>
<path d="M545,500.7h89V471.5H545v29.2Z" class="g9_10"/>
<path d="M634.4,500.7V471.5" class="g0_10"/>
<path d="M634.8,500.7h69.8V471.5H634.8v29.2Z" class="g9_10"/>
<path d="M705,500.7V471.5M204.1,501.1H705.4M204.5,530.6V501.4m115.2,29.2V501.4m112.6,29.2V501.4m60.9,29.2V501.4m51.5,29.2V501.4m89.7,29.2V501.4M705,530.6V501.4M204.1,531H705.4M204.5,560.6V531.4m115.2,29.2V531.4m112.6,29.2V531.4m60.9,29.2V531.4m51.5,29.2V531.4m89.7,29.2V531.4M705,560.6V531.4M204.1,561H705.4M204.5,590.5V561.3m115.2,29.2V561.3m112.6,29.2V561.3m60.9,29.2V561.3m51.5,29.2V561.3m89.7,29.2V561.3M705,590.5V561.3M204.1,590.9H705.4M204.5,620.5V591.3m115.2,29.2V591.3m112.6,29.2V591.3m60.9,29.2V591.3m51.5,29.2V591.3m89.7,29.2V591.3M705,620.5V591.3M204.1,620.9H705.4" class="g0_10"/>
<path d="M116.9,793.4V737c0,-21.6,17.6,-39.1,39.2,-39.1H792.5v56.3c0,21.6,-17.5,39.2,-39.1,39.2Z" class="gb_10"/>
<path d="M119.5,790.8V730.3H789.9v23.9c0,20.2,-16.3,36.6,-36.5,36.6Z" class="gc_10"/>
<path d="M122.2,813.3c221.7,0,443.4,0,665,0v257.2c-221.6,-9.4,-443.3,-9.4,-665,0Z" class="g1_10"/>
<path d="M122.9,813.9c221.2,0,442.4,0,663.7,0v256c-221.3,-9.4,-442.5,-9.4,-663.7,0Z" class="g2_10"/>
<path d="M123.5,814.5c220.8,0,441.6,0,662.5,0v254.7c-220.9,-9.3,-441.7,-9.3,-662.5,0Z" class="g3_10"/>
<path d="M124.1,815.1c220.4,0,440.8,0,661.2,0v253.5c-220.4,-9.3,-440.8,-9.3,-661.2,0Z" class="g4_10"/>
<path d="M124.7,815.8c220,0,440,0,660,0V1068c-220,-9.4,-440,-9.4,-660,0Z" class="g5_10"/>
<path d="M125.4,816.4c219.5,0,439.1,0,658.7,0v251c-219.6,-9.4,-439.2,-9.4,-658.7,0Z" class="g5_10"/>
<path d="M126,817c219.1,0,438.3,0,657.5,0v249.7c-219.2,-9.3,-438.4,-9.3,-657.5,0Z" class="g4_10"/>
<path d="M126.6,817.6c218.8,0,437.5,0,656.3,0v248.5c-218.8,-9.3,-437.5,-9.3,-656.3,0Z" class="g3_10"/>
<path d="M127.2,818.3c218.4,0,436.7,0,655,0v247.2c-218.3,-9.4,-436.6,-9.4,-655,0Z" class="g2_10"/>
<path d="M127.9,818.9c217.9,0,435.8,0,653.7,0v246c-217.9,-9.4,-435.8,-9.4,-653.7,0Z" class="g1_10"/>
<path d="M116.9,1060.2V808H792.5v252.2Z" class="g6_10"/>
<path d="M119.5,1057.6V846.7H789.9v210.9Z" class="g6_10"/>
<path d="M119.5,844.1V810.6H789.9v33.5Z" class="g7_10"/>
<g clip-path="url(#c2_10)">
<image x="119" y="810" width="672" height="34" xlink:href="shade/3.png"/>
</g>
<path d="M659.9,838.9h104V815.8h-104v23.1Z" class="g8_10"/>
<path d="M204.1,891.9H705.4M204.5,921.5V892.2" class="g0_10"/>
<path d="M204.8,921.5H319.3V892.2H204.8v29.3Z" class="g9_10"/>
<path d="M319.7,921.5V892.2" class="g0_10"/>
<path d="M320.1,921.5H431.9V892.2H320.1v29.3Z" class="g9_10"/>
<path d="M432.3,921.5V892.2" class="g0_10"/>
<path d="M432.6,921.5h60.3V892.2H432.6v29.3Z" class="g9_10"/>
<path d="M493.2,921.5V892.2" class="g0_10"/>
<path d="M493.6,921.5h50.7V892.2H493.6v29.3Z" class="g9_10"/>
<path d="M544.7,921.5V892.2" class="g0_10"/>
<path d="M545,921.5h89V892.2H545v29.3Z" class="g9_10"/>
<path d="M634.4,921.5V892.2" class="g0_10"/>
<path d="M634.8,921.5h69.8V892.2H634.8v29.3Z" class="g9_10"/>
<path d="M705,921.5V892.2M204.1,921.8H705.4M204.5,951.4V922.2m115.2,29.2V922.2m112.6,29.2V922.2m60.9,29.2V922.2m51.5,29.2V922.2m89.7,29.2V922.2M705,951.4V922.2M204.1,951.8H705.4M204.5,981.4V952.1m115.2,29.3V952.1m112.6,29.3V952.1m60.9,29.3V952.1m51.5,29.3V952.1m89.7,29.3V952.1M705,981.4V952.1M204.1,981.7H705.4m-500.9,29.6V982.1m115.2,29.2V982.1m112.6,29.2V982.1m60.9,29.2V982.1m51.5,29.2V982.1m89.7,29.2V982.1m70.6,29.2V982.1m-500.9,29.6H705.4m-500.9,29.6v-29.2m115.2,29.2v-29.2m112.6,29.2v-29.2m60.9,29.2v-29.2m51.5,29.2v-29.2m89.7,29.2v-29.2m70.6,29.2v-29.2m-500.9,29.5H705.4" class="g0_10"/>
</svg>