<?xml version="1.0" encoding="UTF-8" standalone="no"?>
<!DOCTYPE svg PUBLIC "-//W3C//DTD SVG 1.1//EN"
"http://www.w3.org/Graphics/SVG/1.1/DTD/svg11.dtd">
<svg viewBox="0 0 1286 909" version="1.1" xmlns="http://www.w3.org/2000/svg" xmlns:xlink="http://www.w3.org/1999/xlink">
<defs>
<style type="text/css"><![CDATA[
.g0_943{
fill: none;
stroke: #000000;
stroke-width: 0.73;
stroke-linecap: butt;
stroke-linejoin: miter;
}
.g1_943{
fill: none;
stroke: #02B5EE;
stroke-width: 1.262;
stroke-linecap: butt;
stroke-linejoin: miter;
}
.g2_943{
fill: none;
stroke: #5EE200;
stroke-width: 1.262;
stroke-linecap: butt;
stroke-linejoin: miter;
}
.g3_943{
fill: none;
stroke: #5EE200;
stroke-width: 0.73;
stroke-linecap: butt;
stroke-linejoin: miter;
}
.g4_943{
fill: none;
stroke: #02B5EE;
stroke-width: 0.73;
stroke-linecap: butt;
stroke-linejoin: miter;
}
]]></style>
</defs>
<path d="M193,83.4h900.3M193,210.6H897m-704,0H897M455.7,240.2V211m0,58.5V240.2m0,114.3v-85" class="g0_943"/>
<path d="M660.3,330.5H853.1" class="g1_943"/>
<path d="M863.6,330.5h22.5" class="g2_943"/>
<path d="M455.7,384.6V354.5m0,103.2V384.6" class="g0_943"/>
<path d="M710.4,443.8h34.5" class="g3_943"/>
<path d="M751,443.8H886.1" class="g4_943"/>
<path d="M455.7,486.9V457.7m0,58.5V486.9m0,114.3v-85" class="g0_943"/>
<path d="M651.6,577.2H853.1" class="g1_943"/>
<path d="M863.6,577.2h22.5" class="g2_943"/>
<path d="M455.7,630.4V601.2m0,102.3V630.4" class="g0_943"/>
<path d="M665.9,689.6h34.4" class="g3_943"/>
<path d="M700.3,689.6H886.1" class="g4_943"/>
<path d="M455.7,732.7V703.5M193,733.1H897m-704,0H897" class="g0_943"/>
</svg>