<?xml version="1.0" encoding="UTF-8" standalone="no"?>
<!DOCTYPE svg PUBLIC "-//W3C//DTD SVG 1.1//EN"
"http://www.w3.org/Graphics/SVG/1.1/DTD/svg11.dtd">
<svg viewBox="0 0 1286 909" version="1.1" xmlns="http://www.w3.org/2000/svg" xmlns:xlink="http://www.w3.org/1999/xlink">
<defs>
<style type="text/css"><![CDATA[
.g0_1166{
fill: none;
stroke: #000000;
stroke-width: 0.73;
stroke-linecap: butt;
stroke-linejoin: miter;
}
.g1_1166{
fill: none;
stroke: #F81693;
stroke-width: 1.461;
stroke-linecap: butt;
stroke-linejoin: miter;
}
.g2_1166{
fill: #FFCCCC;
}
.g3_1166{
fill: none;
stroke: #F81693;
stroke-width: 1.461;
stroke-linecap: butt;
stroke-linejoin: miter;
stroke-dasharray: 2,2;
}
.g4_1166{
fill: #C6EAFA;
}
.g5_1166{
fill: none;
stroke: #C083D5;
stroke-width: 2.191;
stroke-linecap: butt;
stroke-linejoin: miter;
}
.g6_1166{
fill: none;
stroke: #F81693;
stroke-width: 1.051;
stroke-linecap: butt;
stroke-linejoin: miter;
}
.g7_1166{
fill: none;
stroke: #02B5EE;
stroke-width: 1.051;
stroke-linecap: butt;
stroke-linejoin: miter;
}
.g8_1166{
fill: none;
stroke: #02B5EE;
stroke-width: 1.461;
stroke-linecap: butt;
stroke-linejoin: miter;
}
.g9_1166{
fill: none;
stroke: #02B5EE;
stroke-width: 0.834;
stroke-linecap: round;
stroke-linejoin: round;
}
.ga_1166{
fill: none;
stroke: #F81693;
stroke-width: 1.113;
stroke-linecap: round;
stroke-linejoin: round;
}
]]></style>
</defs>
<path d="M193,83.4h900.3M193,111.6h949.2m-949.2,0h949.2m-493,29.6V112m0,58.5V141.2m0,60.1V170.5" class="g0_1166"/>
<path d="M998.1,199.8c1.4,0,2.1,-2.7,3.5,-2.7c1,0,1.8,1.4,2.7,2.7c.9,1.4,1.7,2.8,2.7,2.8c1,0,1.9,-1.4,2.8,-2.8c.8,-1.3,1.7,-2.7,2.7,-2.7c1,0,1.9,1.4,2.8,2.7c.8,1.4,1.7,2.8,2.7,2.8c1,0,1.9,-1.4,2.7,-2.8c.9,-1.3,1.8,-2.7,2.8,-2.7c1,0,1.8,1.4,2.7,2.7c.9,1.4,1.8,2.8,2.8,2.8c1,0,1.8,-1.4,2.7,-2.8c.9,-1.3,1.7,-2.7,2.7,-2.7c1,0,1.9,1.4,2.8,2.7c.8,1.4,1.7,2.8,2.7,2.8c1.4,0,2.1,-2.8,3.4,-2.8h.7" class="g1_1166"/>
<path d="M649.2,231.5V201.3m0,59.4V231.5m0,58.4V260.7m0,63.2v-34" class="g0_1166"/>
<path d="M953.4,323.9h139.4V291H953.4v32.9Z" class="g2_1166"/>
<path d="M1106.9,317.5h20.6" class="g3_1166"/>
<path d="M649.2,354V323.9m0,63V354" class="g0_1166"/>
<path d="M1002.7,380.5h11.2" class="g3_1166"/>
<path d="M1023.6,386.9h107.6V354H1023.6v32.9Z" class="g2_1166"/>
<path d="M649.2,416.1V386.9m0,58.5V416.1m0,59.4V445.4m0,60.3V475.5m0,90.4V505.7" class="g0_1166"/>
<path d="M827.6,552.7V519.5c0,-2.8,2.3,-5.2,5.2,-5.2H934.1c2.9,0,5.2,2.4,5.2,5.2v33.2c0,2.9,-2.3,5.2,-5.2,5.2H832.8c-2.9,0,-5.2,-2.3,-5.2,-5.2Z" class="g4_1166"/>
<path d="M953.3,552.7V513.5c0,-2.9,2.3,-5.2,5.2,-5.2h56.8c2.9,0,5.2,2.3,5.2,5.2v39.2c0,2.9,-2.3,5.2,-5.2,5.2H958.5c-2.9,0,-5.2,-2.3,-5.2,-5.2Z" class="g2_1166"/>
<path d="M649.2,595.1V565.9m0,122V595.1" class="g0_1166"/>
<path d="M762.2,663.9L690.7,613.3m0,50.6l71.5,-50.6" class="g5_1166"/>
<path d="M795.3,658.2V619c0,-2.9,2.3,-5.2,5.2,-5.2h56.8c2.9,0,5.2,2.3,5.2,5.2v39.2c0,2.8,-2.3,5.2,-5.2,5.2H800.5c-2.9,0,-5.2,-2.4,-5.2,-5.2Z" class="g2_1166"/>
<path d="M792.7,667.9h81.2" class="g6_1166"/>
<path d="M885.2,658.2V625c0,-2.9,2.3,-5.2,5.2,-5.2H991.7c2.9,0,5.2,2.3,5.2,5.2v33.2c0,2.8,-2.3,5.2,-5.2,5.2H890.4c-2.9,0,-5.2,-2.4,-5.2,-5.2Z" class="g4_1166"/>
<path d="M882.6,667.9h233.8" class="g7_1166"/>
<path d="M884.4,561.4l56.7,55.8" class="g8_1166"/>
<path d="M883.8,566.1c.8,-1.2,.4,-4.5,.1,-5.2c.7,.3,4,.6,5.2,-.2" class="g9_1166"/>
<path d="M985.7,560.9L828.9,611.2" class="g1_1166"/>
<path d="M981.8,558.1c.7,1.3,3.8,2.5,4.6,2.6c-.6,.4,-2.5,3.2,-2.3,4.7" class="ga_1166"/>
<path d="M649.2,717.1V687.9M193,717.5h949.2m-949.2,0h949.2" class="g0_1166"/>
</svg>