<?xml version="1.0" encoding="UTF-8" standalone="no"?>
<!DOCTYPE svg PUBLIC "-//W3C//DTD SVG 1.1//EN"
"http://www.w3.org/Graphics/SVG/1.1/DTD/svg11.dtd">
<svg viewBox="0 0 1286 909" version="1.1" xmlns="http://www.w3.org/2000/svg" xmlns:xlink="http://www.w3.org/1999/xlink">
<defs>
<style type="text/css"><![CDATA[
.g0_793{
fill: none;
stroke: #000000;
stroke-width: 0.73;
stroke-linecap: butt;
stroke-linejoin: miter;
}
.g1_793{
fill: #B3E9FA;
}
.g2_793{
fill: none;
stroke: #02B5EE;
stroke-width: 1.262;
stroke-linecap: butt;
stroke-linejoin: miter;
}
.g3_793{
fill: none;
stroke: #5EE200;
stroke-width: 1.262;
stroke-linecap: butt;
stroke-linejoin: miter;
}
]]></style>
</defs>
<path d="M193,83.4h900.3M193,210.6H809.3m-616.3,0H809.3m-289,29.6V211m0,58.5V240.2m0,114.3v-85" class="g0_793"/>
<path d="M550.4,304.7V292.5c0,-2.9,2.4,-5.2,5.2,-5.2h87.7c2.8,0,5.2,2.3,5.2,5.2v12.2c0,2.9,-2.4,5.2,-5.2,5.2H555.6c-2.8,0,-5.2,-2.3,-5.2,-5.2Z" class="g1_793"/>
<path d="M547.8,330.5H651.1" class="g2_793"/>
<path d="M661.6,330.5H798.3" class="g3_793"/>
<path d="M520.3,383.7V354.5m0,58.4V383.7m0,114.3V412.9" class="g0_793"/>
<path d="M533.9,448.2V436c0,-2.9,2.3,-5.2,5.2,-5.2h62c2.9,0,5.2,2.3,5.2,5.2v12.2c0,2.8,-2.3,5.2,-5.2,5.2h-62c-2.9,0,-5.2,-2.4,-5.2,-5.2Z" class="g1_793"/>
<path d="M531.3,474h77.6" class="g2_793"/>
<path d="M619.4,474H798.3" class="g3_793"/>
<path d="M520.3,527.2V498M193,527.5H809.3m-616.3,0H809.3" class="g0_793"/>
</svg>