<?xml version="1.0" encoding="UTF-8" standalone="no"?>
<!DOCTYPE svg PUBLIC "-//W3C//DTD SVG 1.1//EN"
"http://www.w3.org/Graphics/SVG/1.1/DTD/svg11.dtd">
<svg viewBox="0 0 1286 909" version="1.1" xmlns="http://www.w3.org/2000/svg" xmlns:xlink="http://www.w3.org/1999/xlink">
<defs>
<style type="text/css"><![CDATA[
.g0_940{
fill: none;
stroke: #000000;
stroke-width: 0.73;
stroke-linecap: butt;
stroke-linejoin: miter;
}
.g1_940{
fill: none;
stroke: #02B5EE;
stroke-width: 1.262;
stroke-linecap: butt;
stroke-linejoin: miter;
}
.g2_940{
fill: none;
stroke: #FFA313;
stroke-width: 1.262;
stroke-linecap: butt;
stroke-linejoin: miter;
}
.g3_940{
fill: none;
stroke: #FFA313;
stroke-width: 0.73;
stroke-linecap: butt;
stroke-linejoin: miter;
}
.g4_940{
fill: none;
stroke: #02B5EE;
stroke-width: 0.73;
stroke-linecap: butt;
stroke-linejoin: miter;
}
.g5_940{
fill: #B3E9FA;
}
.g6_940{
fill: none;
stroke: #5EE200;
stroke-width: 1.262;
stroke-linecap: butt;
stroke-linejoin: miter;
}
]]></style>
</defs>
<path d="M193,83.4h900.3M193,210.6H940.1m-747.1,0H940.1M594.8,240.2V211m0,58.5V240.2m0,114.3v-85" class="g0_940"/>
<path d="M619.4,330.5H654" class="g1_940"/>
<path d="M664.5,330.5H798.2" class="g2_940"/>
<path d="M594.8,383.7V354.5m0,102.3V383.7" class="g0_940"/>
<path d="M771.1,442.9H889.3" class="g3_940"/>
<path d="M895.4,442.9h33.7" class="g4_940"/>
<path d="M594.8,486V456.8m0,58.4V486m0,114.2v-85" class="g0_940"/>
<path d="M639.3,550.5V538.2c0,-2.8,2.3,-5.1,5.2,-5.1H787.7c2.9,0,5.2,2.3,5.2,5.1v12.3c0,2.8,-2.3,5.1,-5.2,5.1H644.5c-2.9,0,-5.2,-2.3,-5.2,-5.1Z" class="g5_940"/>
<path d="M636.7,576.2H795.5" class="g1_940"/>
<path d="M806,576.2H929.1" class="g6_940"/>
<path d="M594.8,629.5V600.2m0,58.5V629.5m0,58.4V658.7M193,688.3H940.1m-747.1,0H940.1" class="g0_940"/>
</svg>