<?xml version="1.0" encoding="UTF-8" standalone="no"?>
<!DOCTYPE svg PUBLIC "-//W3C//DTD SVG 1.1//EN"
"http://www.w3.org/Graphics/SVG/1.1/DTD/svg11.dtd">
<svg viewBox="0 0 909 1286" version="1.1" xmlns="http://www.w3.org/2000/svg" xmlns:xlink="http://www.w3.org/1999/xlink">
<defs>
<clipPath id="c0_84"><path d="M119.5,215.6V182.1H789.9v33.5Z"/></clipPath>
<style type="text/css"><![CDATA[
.g0_84{
fill: none;
stroke: #000000;
stroke-width: 0.73;
stroke-linecap: butt;
stroke-linejoin: miter;
}
.g1_84{
fill: #7F7F7F;
fill-opacity: 0.01;
}
.g2_84{
fill: #7F7F7F;
fill-opacity: 0.02;
}
.g3_84{
fill: #7F7F7F;
fill-opacity: 0.04;
}
.g4_84{
fill: #7F7F7F;
fill-opacity: 0.07;
}
.g5_84{
fill: #7F7F7F;
fill-opacity: 0.11;
}
.g6_84{
fill: #FFFFFF;
}
.g7_84{
fill: #7F7F7F;
}
.g8_84{
fill: #EC008C;
}
.g9_84{
fill: #CBCEFB;
}
.ga_84{
fill: #FFFEF5;
}
.gb_84{
fill: none;
stroke: #D6C944;
stroke-width: 0.365;
stroke-linecap: butt;
stroke-linejoin: miter;
}
.gc_84{
fill: #E81A58;
}
.gd_84{
fill: #401A1A;
}
]]></style>
</defs>
<path d="M116.9,159.9H792.5" class="g0_84"/>
<path d="M122.2,184.8c221.7,0,443.4,0,665,0V532.6c-221.6,-9.3,-443.3,-9.3,-665,0Z" class="g1_84"/>
<path d="M122.9,185.4c221.2,0,442.4,0,663.7,0V532c-221.3,-9.3,-442.5,-9.3,-663.7,0Z" class="g2_84"/>
<path d="M123.5,186.1c220.8,0,441.6,0,662.5,0V531.4C565.1,522,344.3,522,123.5,531.4Z" class="g3_84"/>
<path d="M124.1,186.7c220.4,0,440.8,0,661.2,0V530.8c-220.4,-9.4,-440.8,-9.4,-661.2,0Z" class="g4_84"/>
<path d="M124.7,187.3c220,0,440,0,660,0V530.1c-220,-9.3,-440,-9.3,-660,0Z" class="g5_84"/>
<path d="M125.4,187.9c219.5,0,439.1,0,658.7,0V529.5c-219.6,-9.3,-439.2,-9.3,-658.7,0Z" class="g5_84"/>
<path d="M126,188.6c219.1,0,438.3,0,657.5,0V528.9c-219.2,-9.4,-438.4,-9.4,-657.5,0Z" class="g4_84"/>
<path d="M126.6,189.2c218.8,0,437.5,0,656.3,0V528.3c-218.8,-9.4,-437.5,-9.4,-656.3,0Z" class="g3_84"/>
<path d="M127.2,189.8c218.4,0,436.7,0,655,0V527.7c-218.3,-9.4,-436.6,-9.4,-655,0Z" class="g2_84"/>
<path d="M127.9,190.4c217.9,0,435.8,0,653.7,0V527c-217.9,-9.3,-435.8,-9.3,-653.7,0Z" class="g1_84"/>
<path d="M116.9,522.3V179.5H792.5V522.3Z" class="g6_84"/>
<path d="M119.5,519.8V218.2H789.9V519.8Z" class="g6_84"/>
<path d="M119.5,215.6V182.1H789.9v33.5Z" class="g7_84"/>
<g clip-path="url(#c0_84)">
<image x="119" y="181" width="672" height="34" xlink:href="shade/1.png"/>
</g>
<path d="M675.7,210.5h88.2V187.3H675.7v23.2Z" class="g8_84"/>
<path d="M214.3,234.2H695.2M214.6,263.8V234.6" class="g0_84"/>
<path d="M215,263.8H380.7V234.6H215v29.2Z" class="g9_84"/>
<path d="M381.1,263.8V234.6" class="g0_84"/>
<path d="M381.5,263.8H528V234.6H381.5v29.2Z" class="g9_84"/>
<path d="M528.4,263.8V234.6" class="g0_84"/>
<path d="M528.7,263.8H694.4V234.6H528.7v29.2Z" class="g9_84"/>
<path d="M694.8,263.8V234.6M214.3,264.2H695.2M214.6,293.7V264.5m166.5,29.2V264.5m147.3,29.2V264.5m166.4,29.2V264.5M214.3,294.1H695.2M214.6,323.7V294.5m166.5,29.2V294.5m147.3,29.2V294.5m166.4,29.2V294.5M214.3,324.1H695.2M214.6,353.7V324.4m166.5,29.3V324.4m147.3,29.3V324.4m166.4,29.3V324.4M214.3,354H695.2M214.6,383.6V354.4m166.5,29.2V354.4m147.3,29.2V354.4m166.4,29.2V354.4M214.3,384H695.2M214.6,413.6V384.3m166.5,29.3V384.3m147.3,29.3V384.3m166.4,29.3V384.3M214.3,413.9H695.2M214.6,443.5V414.3m166.5,29.2V414.3m147.3,29.2V414.3m166.4,29.2V414.3M214.3,443.9H695.2M214.6,473.5V444.3m166.5,29.2V444.3m147.3,29.2V444.3m166.4,29.2V444.3M214.3,473.8H695.2M214.6,503.4V474.2m166.5,29.2V474.2m147.3,29.2V474.2m166.4,29.2V474.2M214.3,503.8H695.2" class="g0_84"/>
<path d="M-2.9,721.2V655.7H912.4v65.5Z" class="g6_84"/>
<path d="M-.3,718.6V658.3H909.8v60.3Z" class="ga_84"/>
<path d="M-.3,710.3H909.8M-.3,684.3H909.8M-.3,658.3H909.8M-.3,718.6V658.3m25.9,60.3V658.3m26,60.3V658.3m26,60.3V658.3m26,60.3V658.3m26,60.3V658.3m25.9,60.3V658.3m26,60.3V658.3m26,60.3V658.3m26,60.3V658.3m26,60.3V658.3m26,60.3V658.3m25.9,60.3V658.3m26,60.3V658.3m26,60.3V658.3m26,60.3V658.3m26,60.3V658.3m26,60.3V658.3m26,60.3V658.3m25.9,60.3V658.3m26,60.3V658.3m26,60.3V658.3m26,60.3V658.3m26,60.3V658.3m26,60.3V658.3m25.9,60.3V658.3m26,60.3V658.3m26,60.3V658.3m26,60.3V658.3m26,60.3V658.3m26,60.3V658.3m25.9,60.3V658.3m26,60.3V658.3m26,60.3V658.3m26,60.3V658.3m26,60.3V658.3" class="gb_84"/>
<path d="M116.9,1108.9V818.7c0,-21.6,17.6,-39.1,39.2,-39.1H792.5v290.2c0,21.6,-17.5,39.1,-39.1,39.1Z" class="gc_84"/>
<path d="M119.5,1106.3V812.1H789.9v257.7c0,20.1,-16.3,36.5,-36.5,36.5Z" class="gd_84"/>
</svg>