<?xml version="1.0" encoding="UTF-8" standalone="no"?>
<!DOCTYPE svg PUBLIC "-//W3C//DTD SVG 1.1//EN"
"http://www.w3.org/Graphics/SVG/1.1/DTD/svg11.dtd">
<svg viewBox="0 0 1286 909" version="1.1" xmlns="http://www.w3.org/2000/svg" xmlns:xlink="http://www.w3.org/1999/xlink">
<defs>
<style type="text/css"><![CDATA[
.g0_96{
fill: none;
stroke: #000000;
stroke-width: 0.73;
stroke-linecap: butt;
stroke-linejoin: miter;
}
.g1_96{
fill: #B3E9FA;
}
.g2_96{
fill: none;
stroke: #02B5EE;
stroke-width: 1.262;
stroke-linecap: butt;
stroke-linejoin: miter;
}
.g3_96{
fill: none;
stroke: #5EE200;
stroke-width: 1.262;
stroke-linecap: butt;
stroke-linejoin: miter;
}
.g4_96{
fill: none;
stroke: #02B5EE;
stroke-width: 0.73;
stroke-linecap: butt;
stroke-linejoin: miter;
}
]]></style>
</defs>
<path d="M193,83.4h900.3M193,111.6h932.2m-932.2,0h932.2M544.3,141.2V112m0,114.3V141.2" class="g0_96"/>
<path d="M864.5,176.5V164.3c0,-2.9,2.3,-5.2,5.2,-5.2H970c2.9,0,5.2,2.3,5.2,5.2v12.2c0,2.9,-2.3,5.2,-5.2,5.2H869.7c-2.9,0,-5.2,-2.3,-5.2,-5.2Z" class="g1_96"/>
<path d="M861.9,202.3H977.8" class="g2_96"/>
<path d="M988.3,202.3h125.9" class="g3_96"/>
<path d="M544.3,255.5V226.3m0,58.4V255.5m0,114.2v-85" class="g0_96"/>
<path d="M808.9,345.7h49.9" class="g2_96"/>
<path d="M544.3,399.9V369.7m0,103.3V399.9" class="g0_96"/>
<path d="M1063.6,459.1h50.6" class="g4_96"/>
<path d="M544.3,502.2V473m0,58.4V502.2m0,114.2v-85" class="g0_96"/>
<path d="M913.5,592.5h62.1" class="g2_96"/>
<path d="M544.3,645.7V616.4m0,102.3v-73" class="g0_96"/>
<path d="M1046.7,704.8h67.5" class="g4_96"/>
<path d="M544.3,747.9V718.7M193,748.3h932.2m-932.2,0h932.2" class="g0_96"/>
</svg>