<?xml version="1.0" encoding="UTF-8" standalone="no"?>
<!DOCTYPE svg PUBLIC "-//W3C//DTD SVG 1.1//EN"
"http://www.w3.org/Graphics/SVG/1.1/DTD/svg11.dtd">
<svg viewBox="0 0 1286 909" version="1.1" xmlns="http://www.w3.org/2000/svg" xmlns:xlink="http://www.w3.org/1999/xlink">
<defs>
<style type="text/css"><![CDATA[
.g0_1216{
fill: none;
stroke: #000000;
stroke-width: 0.73;
stroke-linecap: butt;
stroke-linejoin: miter;
}
.g1_1216{
fill: #FDE8E9;
}
]]></style>
</defs>
<path d="M193,83.4h900.3M203.9,110.8H653.2M203.9,140.4V111.1m192.2,29.3V111.1m257.1,29.3V111.1M203.9,173V140.4M396.1,173V140.4" class="g0_1216"/>
<path d="M407,169.7H642.2V140.4H407v29.3Z" class="g1_1216"/>
<path d="M653.2,173V140.4M203.9,202.2V173m192.2,29.2V173m257.1,29.2V173M203.9,231.4V202.2m192.2,29.2V202.2m257.1,29.2V202.2M203.9,264.1V231.4m192.2,32.7V231.4" class="g0_1216"/>
<path d="M407,260.8h78.9V231.4H407v29.4Z" class="g1_1216"/>
<path d="M653.2,264.1V231.4M203.9,293.3V264.1m192.2,29.2V264.1m257.1,29.2V264.1M203.9,322.5V293.3m192.2,29.2V293.3m257.1,29.2V293.3M203.9,354.7V322.5m192.2,32.2V322.5" class="g0_1216"/>
<path d="M407,354.7h58.2V326.1H407v28.6Z" class="g1_1216"/>
<path d="M653.2,354.7V322.5M203.9,383.9V354.7m192.2,29.2V354.7m257.1,29.2V354.7M203.9,413.1V383.9m192.2,29.2V383.9m257.1,29.2V383.9M203.9,445.3V413.1m192.2,32.2V413.1" class="g0_1216"/>
<path d="M407,445.3h58.2V416.7H407v28.6Z" class="g1_1216"/>
<path d="M653.2,445.3V413.1M203.9,474.5V445.3m192.2,29.2V445.3m257.1,29.2V445.3M203.9,503.7V474.5m192.2,29.2V474.5m257.1,29.2V474.5M203.9,538.3V503.7m192.2,34.6V503.7" class="g0_1216"/>
<path d="M407,538.3h84.8V503.7H407v34.6Z" class="g1_1216"/>
<path d="M653.2,538.3V503.7M203.9,567.6V538.3m192.2,29.3V538.3m257.1,29.3V538.3M203.9,596.8V567.6m192.2,29.2V567.6m257.1,29.2V567.6M203.9,629.4V596.8m192.2,32.6V596.8" class="g0_1216"/>
<path d="M407,626.1h52.6V596.8H407v29.3Z" class="g1_1216"/>
<path d="M653.2,629.4V596.8M203.9,658.6V629.4m192.2,29.2V629.4m257.1,29.2V629.4M203.9,687.9V658.6m192.2,29.3V658.6m257.1,29.3V658.6M203.9,720.5V687.9m192.2,32.6V687.9" class="g0_1216"/>
<path d="M407,717.2h52.6V687.9H407v29.3Z" class="g1_1216"/>
<path d="M653.2,720.5V687.9M203.9,749.7V720.5m192.2,29.2V720.5m257.1,29.2V720.5M203.9,750.1H653.2M675.1,113.7H866.9M675.1,143.3V114.1m70.5,29.2V114.1m121.3,29.2V114.1M675.1,176V143.3M745.6,176V143.3" class="g0_1216"/>
<path d="M756.6,172.7h65.1V143.3H756.6v29.4Z" class="g1_1216"/>
<path d="M866.9,176V143.3M675.1,205.2V176m70.5,29.2V176m121.3,29.2V176M675.1,234.4V205.2m70.5,29.2V205.2m121.3,29.2V205.2M675.1,267V234.4M745.6,267V234.4" class="g0_1216"/>
<path d="M756.6,263.8h65.1V234.4H756.6v29.4Z" class="g1_1216"/>
<path d="M866.9,267V234.4M675.1,296.3V267m70.5,29.3V267m121.3,29.3V267M675.1,325.5V296.3m70.5,29.2V296.3m121.3,29.2V296.3M675.1,358.1V325.5m70.5,32.6V325.5" class="g0_1216"/>
<path d="M756.6,354.9h73V325.5h-73v29.4Z" class="g1_1216"/>
<path d="M866.9,358.1V325.5M675.1,387.4V358.1m70.5,29.3V358.1m121.3,29.3V358.1M675.1,416.6V387.4m70.5,29.2V387.4m121.3,29.2V387.4M675.1,449.2V416.6m70.5,32.6V416.6" class="g0_1216"/>
<path d="M756.6,445.9h90V416.6h-90v29.3Z" class="g1_1216"/>
<path d="M866.9,449.2V416.6M675.1,478.5V449.2m70.5,29.3V449.2m121.3,29.3V449.2M675.1,507.7V478.5m70.5,29.2V478.5m121.3,29.2V478.5M675.1,537.8V507.7m70.5,30.1V507.7" class="g0_1216"/>
<path d="M756.6,534.6h90V511.2h-90v23.4Z" class="g1_1216"/>
<path d="M866.9,537.8V507.7M675.1,567.1V537.8m70.5,29.3V537.8m121.3,29.3V537.8M675.1,596.3V567.1m70.5,29.2V567.1m121.3,29.2V567.1M675.1,626.5V596.3m70.5,30.2V596.3" class="g0_1216"/>
<path d="M756.6,623.2h90V599.9h-90v23.3Z" class="g1_1216"/>
<path d="M866.9,626.5V596.3M675.1,655.7V626.5m70.5,29.2V626.5m121.3,29.2V626.5M675.1,684.9V655.7m70.5,29.2V655.7m121.3,29.2V655.7M675.1,717.6V684.9m70.5,32.7V684.9" class="g0_1216"/>
<path d="M756.6,714.3H856V684.9H756.6v29.4Z" class="g1_1216"/>
<path d="M866.9,717.6V684.9M675.1,746.8V717.6m70.5,29.2V717.6m121.3,29.2V717.6M675.1,747.1H866.9M888.8,109.5h217.4M888.8,139.1V109.9m70.6,29.2V109.9m146.8,29.2V109.9M888.8,173.7V139.1m70.6,34.6V139.1" class="g0_1216"/>
<path d="M970.4,173.7h98.1V139.1H970.4v34.6Z" class="g1_1216"/>
<path d="M1106.2,173.7V139.1M888.8,203V173.7M959.4,203V173.7M1106.2,203V173.7M888.8,232.2V203m70.6,29.2V203m146.8,29.2V203M888.8,262.3V232.2m70.6,30.1V232.2" class="g0_1216"/>
<path d="M970.4,259.1h92.8V235.7H970.4v23.4Z" class="g1_1216"/>
<path d="M1106.2,262.3V232.2M888.8,291.6V262.3m70.6,29.3V262.3m146.8,29.3V262.3M888.8,320.8V291.6m70.6,29.2V291.6m146.8,29.2V291.6M888.8,353.4V320.8m70.6,32.6V320.8" class="g0_1216"/>
<path d="M970.4,350.2h100.1V320.8H970.4v29.4Z" class="g1_1216"/>
<path d="M1106.2,353.4V320.8M888.8,382.7V353.4m70.6,29.3V353.4m146.8,29.3V353.4M888.8,411.9V382.7m70.6,29.2V382.7m146.8,29.2V382.7M888.8,444.5V411.9m70.6,32.6V411.9" class="g0_1216"/>
<path d="M970.4,441.2h100.1V411.9H970.4v29.3Z" class="g1_1216"/>
<path d="M1106.2,444.5V411.9M888.8,473.8V444.5m70.6,29.3V444.5m146.8,29.3V444.5M888.8,503V473.8M959.4,503V473.8M1106.2,503V473.8M888.8,537.6V503m70.6,34.6V503" class="g0_1216"/>
<path d="M970.4,537.6h124.9V503H970.4v34.6Z" class="g1_1216"/>
<path d="M1106.2,537.6V503M888.8,566.8V537.6m70.6,29.2V537.6m146.8,29.2V537.6M888.8,596V566.8M959.4,596V566.8M1106.2,596V566.8M888.8,628.7V596m70.6,32.7V596" class="g0_1216"/>
<path d="M970.4,625.4h55.2V596H970.4v29.4Z" class="g1_1216"/>
<path d="M1106.2,628.7V596M888.8,657.9V628.7m70.6,29.2V628.7m146.8,29.2V628.7M888.8,687.1V657.9m70.6,29.2V657.9m146.8,29.2V657.9M888.8,721.8V687.1m70.6,34.7V687.1" class="g0_1216"/>
<path d="M970.4,721.8h98.1V687.1H970.4v34.7Z" class="g1_1216"/>
<path d="M1106.2,721.8V687.1M888.8,751V721.8M959.4,751V721.8M1106.2,751V721.8M888.8,751.3h217.4" class="g0_1216"/>
</svg>