<?xml version="1.0" encoding="UTF-8" standalone="no"?>
<!DOCTYPE svg PUBLIC "-//W3C//DTD SVG 1.1//EN"
"http://www.w3.org/Graphics/SVG/1.1/DTD/svg11.dtd">
<svg viewBox="0 0 909 1286" version="1.1" xmlns="http://www.w3.org/2000/svg" xmlns:xlink="http://www.w3.org/1999/xlink">
<defs>
<clipPath id="c0_7"><path d="M122.9,352.1V317.4H152v34.7Z"/></clipPath>
<clipPath id="c1_7"><path d="M122.1,352.5V316.4H153v36.1Z"/></clipPath>
<style type="text/css"><![CDATA[
.g0_7{
fill: none;
stroke: #000000;
stroke-width: 0.73;
stroke-linecap: butt;
stroke-linejoin: miter;
}
.g1_7{
fill: #FFFFFF;
}
.g2_7{
fill: none;
stroke: #000000;
stroke-width: 1.461;
stroke-linecap: butt;
stroke-linejoin: miter;
}
.g3_7{
}
.g4_7{
fill: none;
stroke: #02B5EE;
stroke-width: 2.739;
stroke-linecap: butt;
stroke-linejoin: miter;
}
.g5_7{
fill: #02B5EE;
stroke: #02B5EE;
stroke-width: 2.45;
stroke-linecap: butt;
stroke-linejoin: miter;
}
.g6_7{
fill: none;
stroke: #F81693;
stroke-width: 2.739;
stroke-linecap: butt;
stroke-linejoin: miter;
}
.g7_7{
fill: #F81693;
stroke: #F81693;
stroke-width: 2.349;
stroke-linecap: butt;
stroke-linejoin: miter;
}
.g8_7{
fill: #F81693;
stroke: #F81693;
stroke-width: 0.537;
stroke-linecap: butt;
stroke-linejoin: miter;
}
.g9_7{
fill: #868686;
}
.ga_7{
fill: #242628;
}
.gb_7{
fill: #A0A0A0;
}
.gc_7{
fill: #C4956E;
}
.gd_7{
fill: #222426;
}
.ge_7{
fill: #202126;
}
.gf_7{
fill: #252427;
}
.gg_7{
fill: #222924;
}
.gh_7{
fill: none;
stroke: #000000;
stroke-width: 2.739;
stroke-linecap: butt;
stroke-linejoin: miter;
}
]]></style>
</defs>
<path d="M116.9,159.9H792.5" class="g0_7"/>
<path d="M117.7,907.4V310.1H791.8V907.4Z" class="g1_7"/>
<path d="M117.7,907.4V310.1H791.8V907.4Z" class="g2_7"/>
<path d="M377.5,545.7c0,-2.2,-1.7,-3.9,-3.9,-3.9c-2.1,0,-3.9,1.7,-3.9,3.9c0,2.1,1.8,3.9,3.9,3.9c2.2,0,3.9,-1.8,3.9,-3.9Z" class="g3_7"/>
<path d="M221.6,467.7c0,-2.1,-1.7,-3.9,-3.9,-3.9c-2.1,0,-3.9,1.8,-3.9,3.9c0,2.2,1.8,3.9,3.9,3.9c2.2,0,3.9,-1.7,3.9,-3.9Z" class="g3_7"/>
<path d="M373.6,545.7l-147,-73.5" class="g4_7"/>
<path d="M221.2,469.5l5.9,6.4l-1.1,-4l3.8,-1.6Z" class="g5_7"/>
<path d="M396.1,715.2c0,-2.2,-1.7,-3.9,-3.9,-3.9c-2.1,0,-3.9,1.7,-3.9,3.9c0,2.1,1.8,3.9,3.9,3.9c2.2,0,3.9,-1.8,3.9,-3.9Z" class="g3_7"/>
<path d="M240.2,637.2c0,-2.1,-1.7,-3.9,-3.9,-3.9c-2.2,0,-3.9,1.8,-3.9,3.9c0,2.2,1.7,3.9,3.9,3.9c2.2,0,3.9,-1.7,3.9,-3.9Z" class="g3_7"/>
<path d="M201.2,832.1c0,-2.1,-1.7,-3.9,-3.9,-3.9c-2.1,0,-3.9,1.8,-3.9,3.9c0,2.2,1.8,3.9,3.9,3.9c2.2,0,3.9,-1.7,3.9,-3.9Z" class="g3_7"/>
<path d="M197.3,832.1L383.7,720.3" class="g6_7"/>
<path d="M388.9,717.2l-8.6,1.5l3.9,1.3l-.7,4Z" class="g7_7"/>
<path d="M197.3,832.1L234.3,647" class="g6_7"/>
<path d="M235.5,641.1l-4.6,7.3l3.6,-2.1l2.5,3.3Z" class="g8_7"/>
<path d="M392.2,715.2l-147,-73.5" class="g4_7"/>
<path d="M239.8,639l5.9,6.4l-1.1,-4l3.8,-1.6Z" class="g5_7"/>
<g clip-path="url(#c1_7)">
<path clip-path="url(#c0_7)" d="M125.6,352c-.1,-.1,-.1,-.3,0,-.4c0,-.1,.1,-1.2,0,-1.7c0,-.1,0,-.4,0,-.6c.2,-.9,.3,-2.2,.3,-2.3c0,0,0,-.3,.1,-.6c.1,-.4,.1,-.6,-.1,-.9c-.3,-.6,-.9,-2,-1.1,-2.8c-.4,-1.8,-.5,-4.5,-.1,-6c.3,-1.1,.5,-1.2,.9,-.5c.3,.6,.4,.4,0,-.3c-.3,-.7,-.6,-2.1,-.5,-2.5c0,-.1,.2,-.6,.4,-1.1c.2,-.4,.4,-.9,.5,-1.2c.2,-.4,.5,-.7,.9,-.5c.1,0,.2,.2,.3,.3c.2,.3,.2,.2,.1,-.2c-.1,-.3,-.2,-.6,-.1,-.6c0,0,0,-.2,0,-.3c.1,-.5,1,-2.1,1.6,-2.7c.3,-.3,.6,-.6,.7,-.7c.1,-.2,.5,-.5,.8,-.7c.3,-.2,.7,-.6,.9,-.8c.4,-.4,.7,-.5,.9,-.2q.2,.2,.2,-.2c0,-.1,0,-.4,0,-.5c.1,-.2,1.5,-1.1,2.1,-1.5c.3,-.1,.6,-.3,.8,-.4c.1,-.1,.3,-.2,.4,-.2c0,0,.4,-.2,.8,-.4c.4,-.3,.9,-.5,1,-.6c.2,0,.6,-.2,1,-.4c1.1,-.5,1.6,-.7,2.4,-1c.5,-.2,.9,-.3,1,-.4c0,0,.1,0,.3,.2l.2,.2l.4,-.4c.6,-.5,1.6,-.8,3.8,-1.1c.9,-.2,2.2,-.4,2.8,-.4l1,-.2l.1,.3c.1,.2,.1,.3,-.3,.4c-2.7,1,-4.6,2,-5.5,2.9c-.3,.2,-.5,.3,-.5,.3c-.1,.1,-1.5,1.5,-1.5,1.6c0,.1,-.1,.2,-.2,.3c-.3,.2,-.6,.7,-.5,1.1c0,.2,-.1,.3,-.4,.5c-.3,.2,-.4,.3,-.4,.4c.2,.2,0,.9,-.2,1.2c-.7,.7,-1.7,2.2,-1.9,2.9c-.1,.1,-.2,.4,-.4,.7c-.2,.3,-.4,.8,-.5,1.1q-.4,.9,-1,1c-.5,0,-1.4,.3,-1.3,.4c0,0,.4,0,.9,-.1c1.1,-.1,1.2,0,.8,.7c-.4,.8,-.7,1.7,-.7,2.1c0,.4,-.2,.9,-.6,2.3c-.1,.4,-.3,.5,-.7,.8c-.5,.2,-.6,.3,-1.2,.3q-.7,0,-.6,.2c.1,.1,-.1,.5,-.5,1.3c-.3,.6,-.7,1.2,-.8,1.4c-.2,.1,-.4,.4,-.6,.7c-.2,.3,-.4,.5,-.5,.5c0,0,-.2,.2,-.3,.3c-.6,.9,-2.7,2.7,-3,2.7l.3,-3.2c.1,.1,.4,-.1,.6,-.3c.2,-.4,.5,-.6,1.1,-.6c.5,-.1,.6,-.1,1,-.5c.2,-.2,.6,-.9,.9,-1.4l.5,-1l-.5,-.2c-.3,-.2,-.6,-.4,-.7,-.4c-.1,-.2,.4,-1,.7,-1.1c.2,-.1,.5,-.2,.7,-.2c.2,0,.5,-.1,.7,-.3c.3,-.1,.5,-.2,.7,-.2c.6,-.1,.8,-.4,.8,-1.3c.1,-1,.2,-1.1,.5,-1.2c.4,-.2,.7,-.2,.9,.1l.1,.2l.1,-.2c.1,-.3,.1,-.4,-.1,-.4c-.1,0,-.2,0,-.3,-.2q-.1,-.3,-.6,-.5c-.6,-.1,-.7,-.2,-.5,-.5c0,-.1,0,-.2,0,-.4c-.1,-.3,.4,-.7,1,-1c.5,-.1,.6,-.2,1.1,-1.2c.3,-.6,.8,-1.3,1,-1.5c.2,-.2,.5,-.5,.6,-.6c.1,-.2,.2,-.3,.4,-.3c.2,0,.4,0,.5,-.1c.2,-.2,.9,-1.2,.8,-1.2c0,0,-.2,.1,-.5,.2c-.7,.3,-1.8,.3,-2,-.1c-.2,-.3,.4,-1.1,.9,-1.2c.1,0,1.1,-.5,1.5,-.8c.1,-.1,.3,-.4,.5,-.8c.3,-.7,.8,-1.3,1.2,-1.5c.5,-.1,.7,-.3,.9,-.7c.2,-.4,.1,-.7,-.4,-.9c-.1,0,-.3,-.2,-.4,-.3c0,-.1,-.1,-.2,-.2,-.2c-.3,0,-3,1.1,-4.1,1.7c-.2,.1,-.5,.3,-.7,.5c-.1,.2,-.5,.6,-.9,.9c-.4,.3,-.9,.7,-1,.9c-.1,.3,-.4,.7,-.7,.9c-.4,.4,-.4,.5,-.4,1.2c-.1,.5,0,1,.1,1.2c.3,.7,.2,1.1,-.3,1.1c-.5,-.1,-.8,-.4,-1.3,-1.6c-.3,-.6,-.6,-1,-.6,-1c-.2,0,-.8,.7,-1.1,1.3c-.2,.5,-.3,.6,-.7,.8c-.5,.1,-.5,.2,-.7,.7c-.1,.3,-.1,.6,-.1,.7c.1,.2,.1,.3,.1,.3c-.1,.4,-.1,.9,.1,1.3c.2,.3,.3,.6,.3,.8c0,.1,.1,.5,.3,.9c.3,.6,.3,.7,.2,1.2c-.1,.3,-.1,.6,-.1,.7c-.1,.4,-.4,.3,-1.1,-.3c-.5,-.4,-1.2,-1.2,-2,-2.3c-.3,-.4,-.4,-.5,-.3,-.1c0,.1,-.1,.5,-.2,.8c-.2,.6,-.1,1.4,.2,1.7c.2,.3,.8,1.9,.9,2.3c0,.2,0,.4,.1,.5c.1,.2,.1,1,-.1,1.3c0,.1,0,.3,0,.4c0,.1,-.1,.2,-.2,.3c-.2,0,-.7,-.4,-1,-.7c-.1,-.1,-.3,-.3,-.4,-.5l-.3,-.3l-.1,.2c-.1,.3,0,.7,.1,1.2c.3,.8,.4,2.3,.2,2.9c0,.2,-.2,.4,-.4,.5c-.4,.3,-.3,.5,.4,1.5l.4,.5l.1,-.3c.1,-.2,.2,-.6,.3,-1c.1,-.3,.2,-.8,.3,-1c.1,-.2,.2,-.5,.3,-.8q.1,-.5,2.3,-5.3c1,-2,1,-2.1,1.9,-3.3c.7,-1.1,1.3,-2.1,1.9,-3c.8,-1.4,.9,-1.6,1.4,-2.2c.3,-.3,.7,-.8,.9,-1c.9,-1.2,1.1,-1.5,1.3,-1.4c.1,.1,.2,.1,.2,.2c0,0,-.2,.4,-.5,.8c-.3,.4,-.8,1.1,-1,1.5c-.9,1.5,-2.1,3.4,-2.5,4c-.2,.3,-.5,.8,-.6,1c-.1,.2,-.4,.6,-.5,.8c-.2,.3,-.3,.6,-.3,.7c-.1,.4,-.2,.8,-1.2,2.6c-.8,1.6,-1,2,-1.7,3.7c-.5,1.1,-.8,2.2,-.7,2.4l-.3,3.2c-.3,0,-.5,1.8,-.2,2.9c.1,.8,.1,1.1,-.2,1.3c-.6,.4,-1.1,1.1,-1.3,1.7c-.1,.3,-.2,.5,-.4,.5c-.1,0,-.2,0,-.3,-.1Z" class="g9_7"/>
<path d="M133.1,338.4c-.1,0,-.3,-.1,-.3,-.1q-.2,.1,0,.2c0,0,.2,.1,.3,.1c.2,0,.2,-.1,0,-.2Z" class="g1_7"/>
<path d="M144.5,319.4q0,-.1,-.1,-.1q-.1,0,-.2,.1q0,.1,.1,.1c.1,0,.2,0,.2,-.1Z" class="g1_7"/>
<path d="M125.7,352q-.1,-.1,-.1,-.3c.1,-.1,.1,-.9,.1,-1.7c0,-1.4,.1,-2.2,.4,-3.5l.1,-.6l-.5,-1c-.2,-.5,-.5,-1.2,-.6,-1.6c-.1,-.4,-.3,-.8,-.3,-1c-.2,-.7,-.3,-2.8,-.3,-3.9c.1,-1.1,.5,-2.6,.7,-2.6c.1,0,.2,.2,.5,.6c.4,.8,.6,.7,.2,-.1c-.4,-.8,-.7,-1.9,-.7,-2.5c0,-.4,.5,-1.9,.9,-2.7c.2,-.4,.3,-.5,.5,-.5c.3,-.1,.3,0,.9,.9l.5,.7l-.4,-.8c-.5,-1.1,-.4,-1.6,.3,-2.9c.3,-.5,.6,-1,.7,-1.1c.1,-.1,.4,-.4,.6,-.7c.3,-.2,.8,-.7,1.2,-.9c.3,-.3,.7,-.7,.9,-.9c.4,-.4,.7,-.4,1,.2l.2,.4l-.1,-.5c-.1,-.8,0,-1,.8,-1.6c.5,-.3,.9,-.6,1,-.6c0,0,.1,-.1,.1,-.1c0,-.1,.1,-.1,.3,-.1q.2,0,.2,.1q-.1,.1,-.2,.1c-.1,0,-.4,.3,-.7,.6c-.4,.3,-.8,.6,-.9,.7c-.2,.1,-.3,.2,-.3,.6c.1,.3,.1,.7,.2,.9c.1,.4,.1,1,0,1c-.2,0,-.4,-.3,-.7,-.9l-.3,-.6l-.4,.2c-.1,.2,-.3,.3,-.3,.3c-.1,.1,-.3,.3,-.6,.5c-.3,.2,-.6,.5,-.7,.6c-.1,.1,-.3,.3,-.6,.6c-.6,.6,-1.6,2.2,-1.5,2.5c.1,.4,1,2.2,1.7,3.5c.5,.9,.6,1,.4,1c-.2,0,-1.2,-.8,-1.6,-1.4c-.3,-.3,-.6,-.7,-.8,-.9c-.1,-.1,-.3,-.4,-.4,-.6c-.2,-.4,-.4,-.4,-.6,0c-.3,.5,-.8,2.1,-.9,2.4c-.1,.8,.6,2.7,1.5,3.8c.7,1,.7,1.3,-.1,.8c-.3,-.2,-1.2,-1.2,-1.5,-1.6c0,-.1,-.1,-.1,-.1,-.1c-.2,0,-.4,1.1,-.4,1.7c0,.3,0,.7,-.1,.9c0,.1,0,.7,.1,1.3c.1,.6,.1,1.2,.1,1.5c.1,.6,1,3,1.2,3V345c0,0,.1,-.5,.3,-1.1c.2,-.6,.3,-1.2,.4,-1.5c0,-.2,.1,-.4,.1,-.5c.1,-.1,.2,-.4,.3,-.6c.1,-.6,.2,-.9,1.1,-2.7c.3,-.6,.7,-1.5,.9,-1.9c.8,-1.7,1.6,-3.3,2.2,-4.3c.7,-.9,1.1,-1.6,1.9,-2.9c.2,-.4,.6,-.9,.7,-1.1c.2,-.2,.3,-.4,.3,-.5c.1,-.1,.3,-.4,.6,-.7c.2,-.3,.6,-.8,.8,-1c.9,-1.3,1.1,-1.4,1.2,-1.3c.2,.1,.2,.2,-.6,1.1c-.2,.3,-.6,.9,-.8,1.3c-.8,1.3,-2.1,3.4,-2.4,3.8c-.6,.9,-1.5,2.5,-1.5,2.8c0,.1,-.5,1.3,-1.2,2.6c-.7,1.3,-1.3,2.7,-1.5,3.1c-.1,.4,-.3,.7,-.3,.8c-.1,.1,-.5,1.3,-.6,1.8c0,.2,-.1,.7,-.1,1c-.2,.7,-.3,2,-.3,2c0,.1,.1,0,.3,-.1c.1,-.1,.3,-.3,.6,-.5c.2,-.1,.5,-.5,.8,-.7c.2,-.2,.4,-.4,.5,-.5c.6,-.6,.9,-.9,1.2,-1.4c.3,-.4,.6,-.7,.7,-.8c.3,-.3,1.2,-2,1.2,-2.1c-.1,-.1,-.4,-.3,-.9,-.6c-.9,-.4,-1,-.6,-.8,-.7c.1,0,1,.1,1.8,.3c.2,0,.7,.1,1,0c.9,0,1.4,-.4,1.6,-1c.1,-.3,.2,-.6,.2,-.8c.1,-.3,.3,-1,.3,-1.5c.1,-.5,.4,-1.3,.6,-1.6l.2,-.4l-.5,.1c-.5,.1,-1.6,-.2,-1.7,-.4c-.1,-.2,.7,-.6,1.6,-.7l.8,-.2l.2,-.6c.2,-.3,.3,-.7,.4,-.9c0,-.1,.1,-.3,.2,-.4c.1,-.1,.3,-.4,.4,-.6c.1,-.3,.3,-.7,.5,-.9c1.3,-2,1.5,-2.3,1.4,-2.3c-.1,0,-.4,.1,-.6,.2c-.7,.3,-1.5,.3,-1.5,0c0,-.3,1.8,-1.3,2.7,-1.5c.4,-.1,.4,-.2,.4,-.6c0,-.2,.2,-.6,.3,-.8c.1,-.1,.3,-.4,.4,-.6c.3,-.6,2.2,-2.2,3.2,-2.9c.7,-.4,1.8,-.9,2.7,-1.3l.7,-.3l-1.6,.2c-2.6,.3,-3.7,.7,-4.4,1.4c-.3,.4,-.4,.4,-.5,.2c-.1,-.2,.6,-.9,1.2,-1.2c.6,-.3,1.7,-.5,2.4,-.6c.4,0,1.5,-.2,2.5,-.4c1.5,-.2,1.8,-.2,1.9,-.1c.4,.1,.3,.3,-.2,.5c-1.1,.4,-2.2,.9,-2.9,1.2c-.7,.4,-2,1.1,-2.2,1.3c-.1,0,-.3,.2,-.5,.4c-1,.8,-1.7,1.5,-1.9,1.9c-.1,.1,-.3,.4,-.4,.5c-.1,.2,-.3,.5,-.3,.7c0,.3,-.1,.5,-.4,.7c-.2,.1,-.5,.3,-.6,.3h-.2h.2c.4,.1,.5,.3,.3,.5c0,.1,-.1,.2,-.1,.3c.1,.1,-.1,.4,-.4,.6c-.2,.3,-.5,.7,-.6,.8c-.1,.2,-.3,.5,-.4,.8c-.4,.4,-.6,.9,-.7,1.1c0,.1,-.2,.4,-.4,.7c-.2,.6,-.4,.9,-.7,1.7c-.1,.3,-.2,.3,-.7,.4c-.7,.1,-1.5,.4,-1.4,.5c0,0,.4,0,.9,-.1c.8,-.1,.9,-.1,1,.1c.1,.1,.1,.3,-.2,.6c-.3,.6,-.7,1.7,-.7,2.2c0,.3,-.3,1.3,-.6,2.1c-.1,.4,-.2,.5,-.6,.8c-.5,.3,-.6,.3,-1.2,.3c-.4,0,-.9,0,-1,-.1c-.2,0,-.5,-.1,-.8,-.2h-.6l.5,.2c.3,.1,.6,.2,.7,.2q.5,.1,.6,.2c.1,.1,-.9,2,-1.3,2.5c-.2,.2,-.5,.6,-.6,.8c-.2,.2,-.4,.5,-.5,.6c-.2,.1,-.4,.4,-.6,.5c-.4,.5,-1.3,1.4,-1.7,1.7c-.1,.1,-.4,.3,-.5,.4c-.1,.1,-.3,.3,-.5,.3c-.2,.1,-.3,.2,-.3,.4c-.1,.5,-.1,1.9,-.1,2.1c0,.1,.1,.5,.1,.9c.1,.5,.1,.6,-.2,.8c-.4,.4,-1,1.2,-1.2,1.8c-.2,.3,-.3,.5,-.3,.5c-.1,0,-.2,0,-.3,-.1Z" class="ga_7"/>
<path d="M128.2,331.6c-.1,-.1,-.1,-.2,-.1,-.1c-.1,.2,0,.4,.1,.4c.1,0,.1,-.1,0,-.3Z" class="ga_7"/>
<path d="M139.7,325.8c.2,-.1,.5,-.3,.7,-.4l.2,-.2h-.3c-.5,.1,-1.4,.6,-1.4,.7c0,.2,.3,.1,.8,-.1Z" class="gb_7"/>
<path d="M139.7,325.7c.4,-.2,.6,-.4,.2,-.3c-.3,.1,-.9,.5,-.7,.5c0,0,.3,-.1,.5,-.2Z" class="g1_7"/>
<path d="M134.9,322.5c0,-.1,.6,-.5,.7,-.5c.2,.1,.2,.2,-.1,.3c-.1,.1,-.3,.2,-.4,.2q-.1,0,-.2,0Z" class="ga_7"/>
<path d="M136.2,321.8c.1,-.1,.2,-.2,.3,-.2q.2,-.1,.1,.1c-.1,.1,-.2,.2,-.3,.2q-.2,0,-.1,-.1Z" class="ga_7"/>
<path d="M137.1,321.2c.1,-.1,.6,-.3,.7,-.1c0,0,-.5,.3,-.7,.3q-.1,0,0,-.2Z" class="ga_7"/>
<path d="M137.9,320.9c0,-.1,.8,-.5,1.3,-.6c.3,-.1,.6,-.2,.7,-.3c.4,-.3,1.9,-.8,2.1,-.8c.2,.2,.1,.4,-.2,.4c-.5,.1,-1.7,.5,-3,1.1c-.6,.3,-.8,.3,-.9,.2Z" class="ga_7"/>
<path d="M125.7,352c0,-.1,0,-.2,0,-.3c0,-.1,.1,-.6,.1,-1.2c0,-1.4,0,-1.9,.4,-4l.1,-.7l-.6,-1c-.3,-.6,-.5,-1.2,-.6,-1.6c-.1,-.3,-.2,-.7,-.2,-.9c-.3,-1.1,-.4,-4.2,-.1,-5.2c.1,-.4,.2,-.8,.2,-.9c.1,-.4,.2,-.4,.7,.3c.6,1,.9,1,.3,-.1c-.4,-.7,-.8,-2,-.8,-2.6c0,-.4,.6,-1.9,1,-2.7c.1,-.3,.3,-.4,.4,-.4c.2,-.1,.3,0,.5,.4c.5,.6,.6,.8,.5,.8c-.1,0,-.3,-.2,-.4,-.4c-.4,-.8,-.6,-.6,-1.2,.8c-.7,1.9,-.6,2.4,.7,4.7c.5,.9,.8,1.5,.7,1.6c-.2,.1,-1.4,-1.1,-1.7,-1.7c-.1,-.1,-.2,-.2,-.3,-.3q-.1,0,-.2,.2c-.3,.8,-.4,2.5,-.2,4c0,.5,.1,1.1,.1,1.3c0,.6,1,3.2,1.2,3.2c.1,0,.1,-.2,.1,-.3c0,-.1,.1,-.7,.3,-1.3c.2,-.6,.3,-1.2,.4,-1.4c0,-.1,0,-.3,.1,-.3c.1,0,.4,-1.1,.4,-1.2c0,0,.1,-.3,.2,-.6c.9,-1.8,1.3,-2.7,1.6,-3.5c.8,-1.6,1.6,-3.2,2.3,-4.2c.7,-1.2,1.3,-2.1,1.9,-3c.2,-.4,.5,-.9,.7,-1.1c.1,-.1,.3,-.3,.3,-.4c0,-.2,.6,-.8,.9,-1.2c.1,0,.3,-.3,.5,-.6c.6,-.9,1,-1.3,1.1,-1.3c.1,.1,.1,0,-.6,1c-.2,.3,-.7,1,-.9,1.4c-.8,1.4,-2,3.3,-2.3,3.7c-.6,.8,-1.6,2.6,-1.6,2.9c0,.2,-.5,1.3,-1.2,2.6c-.6,1.2,-1.3,2.6,-1.4,3c-.2,.4,-.4,1,-.6,1.4c-.2,.6,-.4,1.4,-.4,1.8c0,.1,-.1,.4,-.1,.6c-.1,.3,-.2,.8,-.2,1.2c-.1,.6,-.1,.8,.1,.8c.1,0,.2,-.1,.2,-.2c.1,0,.3,-.2,.6,-.5c.3,-.2,.5,-.4,.6,-.5c0,0,.3,-.3,.5,-.4c.7,-.7,1.1,-1.1,1.5,-1.7c.3,-.4,.6,-.7,.7,-.8c.2,-.2,1.1,-1.9,1.1,-2.1c0,-.1,-.1,-.2,-.6,-.4c-.7,-.4,-.6,-.5,.1,-.2c.3,.1,.6,.2,.7,.2c.4,-.1,.3,.3,-.2,1.3c-.3,.6,-.7,1.2,-.9,1.4c-.1,.1,-.4,.5,-.6,.7c-.2,.3,-.4,.6,-.5,.7c-.1,.1,-.3,.3,-.5,.5c-.1,.1,-.4,.4,-.6,.6c-.2,.2,-.5,.4,-.6,.6c-.1,.1,-.3,.2,-.3,.2c-.1,0,-.3,.2,-.5,.4c-.2,.2,-.5,.4,-.7,.5c-.2,0,-.3,.2,-.3,.7c-.1,.3,-.1,.6,-.1,.7c0,0,0,.3,0,.5c0,.3,.1,.7,.1,1c.2,.8,.1,1.1,-.1,1.3c-.4,.2,-1.1,1.2,-1.3,1.7c-.2,.5,-.3,.6,-.5,.5Z" class="gc_7"/>
<path d="M134,338.4c-.4,0,-.8,0,-1,-.1c-.2,-.1,-.4,-.1,-.5,-.1c-.1,0,-.3,0,-.4,-.1c-.1,0,-.3,-.1,-.4,0c-.1,0,-.2,0,-.3,0c-.1,-.3,.3,-.3,1.8,0c1.4,.3,2.5,-.1,2.7,-.9c0,-.3,.1,-.6,.2,-.9c.1,-.2,.2,-.6,.2,-.8c.1,-.3,.1,-.7,.3,-1.5c.1,-.3,.2,-.7,.4,-.8c.1,-.2,.2,-.3,.1,-.4c0,0,-.2,0,-.4,0c-.4,.1,-1.6,-.1,-1.7,-.3c-.1,-.2,.8,-.6,2,-.8c.3,0,.4,-.1,.6,-.7c.6,-1.4,1.6,-3.2,2.9,-4.9c.1,-.1,.1,-.3,0,-.3c0,0,-.3,.1,-.7,.2c-.6,.3,-1.3,.3,-1.4,.1c0,0,0,-.1,.1,-.1q.2,-.1,.2,0c.1,.1,.1,.2,.2,.2c.2,0,1.2,-.5,1.5,-.7c.3,-.3,.6,-.3,.6,-.2c.1,.1,-.1,.9,-.2,1c-.2,.1,-.5,.5,-.7,.9c-.1,.1,-.4,.5,-.6,.8c-.3,.5,-.5,.8,-.6,1.2c-.1,.1,-.3,.4,-.4,.7c-.3,.6,-.6,1.1,-.8,1.7c-.1,.2,-.2,.3,-.7,.3c-.8,.2,-1.6,.5,-1.4,.7c0,0,.4,0,1,-.1c.8,-.1,.9,-.1,1,0c0,.1,-.1,.4,-.3,.7c-.3,.5,-.6,1.5,-.7,2.1c0,.2,-.1,.6,-.2,.9c-.1,.3,-.2,.7,-.2,.8c-.1,.6,-.4,.9,-.8,1.2c-.6,.3,-.7,.3,-1.4,.2Z" class="gc_7"/>
<path d="M129.6,334.1c-.2,-.1,-.4,-.2,-.5,-.4c-.3,-.2,-1,-1,-1,-1.1c0,0,.1,0,.1,0c.1,-.1,.5,.3,.6,.5c.1,.1,.2,.2,.2,.1c.1,0,.1,-.1,-.1,-.3c-.1,-.1,-.3,-.5,-.4,-.7c-.1,-.3,-.4,-.9,-.6,-1.4c-.3,-.5,-.5,-1,-.5,-1.1c0,-.1,.2,-.6,.5,-1.1c.6,-1,1.6,-2.2,2.5,-2.8c.4,-.2,.8,-.6,.9,-.8c.4,-.5,.6,-.5,.9,.2q.3,.6,.4,.5c.1,0,.2,0,.2,0c0,0,.1,.2,.1,.4c.1,.6,-.1,.5,-.6,-.4c-.4,-.7,-.5,-.8,-.7,-.5c-.1,.2,-.7,.6,-1.1,.9c-.7,.5,-1.8,1.8,-2.5,2.9l-.4,.7l.7,1.4c.7,1.5,1.1,2.2,1.5,2.8c.2,.4,.2,.5,-.2,.2Z" class="gc_7"/>
<path d="M128.1,332.1c-.1,0,0,-.1,0,-.1q.1,0,.2,.1c0,.1,0,.2,0,.2c-.1,0,-.2,-.1,-.2,-.2Z" class="gc_7"/>
<path d="M127.6,331.2c-.3,-.6,-.2,-.8,0,-.5c.2,.2,.4,.8,.3,.9c-.1,.1,-.2,-.1,-.3,-.4Z" class="gc_7"/>
<path d="M140.1,325c.5,-.3,1.1,-.5,1.2,-.3c.1,.1,-.1,.2,-.8,.4c-.8,.2,-.9,.2,-.4,-.1Z" class="gc_7"/>
<path d="M141.5,324.5c0,0,0,-.2,0,-.4c0,-.5,.7,-1.7,1.3,-2.2c1.8,-1.7,3.9,-3.1,5.7,-3.6c.6,-.2,.6,-.4,-.1,-.2c-.3,0,-1.3,.2,-2.2,.3c-1,.2,-1.9,.3,-2.1,.4c-.4,.1,-1.2,.6,-1.5,.9c-.2,.3,-.3,.3,-.4,.2c-.1,-.2,.9,-1,1.4,-1.2c1.1,-.3,1.4,-.4,2.1,-.5c.4,0,1.6,-.2,2.6,-.4c1.8,-.3,2,-.3,2.1,0c0,.1,-.3,.2,-.7,.4c-2.5,.9,-4.4,1.9,-5.3,2.7c-.2,.2,-.4,.4,-.4,.4c-.1,0,-.2,.1,-.3,.2c-.1,.1,-.3,.3,-.6,.5c-.2,.3,-.5,.6,-.6,.8c-.1,.2,-.3,.4,-.5,.6c-.1,.1,-.2,.4,-.3,.6c0,.4,-.1,.6,-.2,.5Z" class="gc_7"/>
<path d="M132.6,325c-.1,-.1,-.2,-.7,-.1,-1c0,0,.3,-.3,.6,-.5c.3,-.2,.7,-.4,.8,-.5l.2,-.1l-.1,.2c-.2,.2,-1,.9,-1.2,1c-.1,.1,-.2,.2,-.2,.4c0,.1,0,.4,0,.5c.1,.2,0,.2,0,0Z" class="gc_7"/>
<path d="M141.5,319.4c.2,-.2,.5,-.2,.5,-.1c0,.1,-.1,.2,-.3,.2q-.4,.1,-.2,-.1Z" class="gc_7"/>
<path d="M125.7,352c0,-.1,0,-.2,0,-.3c0,-.1,.1,-.6,.1,-1.2c0,-1.3,0,-1.8,.4,-4.2c.1,-.5,0,-.5,-.5,-1.5c-.3,-.6,-.5,-1.2,-.6,-1.6c-.1,-.3,-.2,-.7,-.2,-.9c-.3,-1.1,-.4,-4.2,-.1,-5.2c.1,-.4,.2,-.8,.2,-.9c.1,-.4,.2,-.4,.7,.3c.6,1,.9,1,.3,-.1c-.4,-.7,-.8,-2,-.8,-2.6c0,-.4,.6,-1.9,1,-2.7c.1,-.3,.3,-.4,.4,-.4c.2,-.1,.3,0,.5,.4c.5,.6,.6,.8,.5,.8c-.1,0,-.3,-.2,-.4,-.4c-.4,-.8,-.6,-.6,-1.2,.8c-.7,1.9,-.6,2.4,.7,4.7c.5,.9,.8,1.5,.7,1.6c-.2,.1,-1.4,-1.1,-1.7,-1.7c-.1,-.1,-.2,-.2,-.3,-.3q-.1,0,-.2,.2c-.3,.8,-.4,2.5,-.2,4c0,.5,.1,1.1,.1,1.3c0,.6,1,3.2,1.2,3.2c.1,0,.1,-.2,.1,-.3c0,-.1,.1,-.7,.3,-1.3c.2,-.6,.3,-1.2,.4,-1.4c0,-.1,0,-.3,.1,-.3c.1,0,.4,-1.1,.4,-1.2c0,0,.1,-.3,.2,-.6c.9,-1.8,1.3,-2.7,1.6,-3.5c.8,-1.6,1.6,-3.2,2.3,-4.2c.7,-1.2,1.3,-2.1,1.9,-3c.2,-.4,.5,-.9,.7,-1.1c.1,-.1,.3,-.3,.3,-.4c0,-.2,.6,-.8,.9,-1.2c.1,0,.3,-.3,.5,-.6c.6,-.9,1,-1.3,1.1,-1.3c.1,.1,.1,0,-.7,1.1c-1.5,2,-2.3,3.3,-3.6,5.4c-.3,.4,-.7,1.1,-1,1.5c-.4,.6,-.5,.9,-.4,.9c.4,0,.3,.4,-.8,2.6c-.7,1.3,-1.4,2.7,-1.5,3.1c-.2,.4,-.4,1,-.6,1.4c-.2,.6,-.4,1.4,-.4,1.8c0,.1,-.1,.4,-.1,.6c-.1,.3,-.2,.8,-.2,1.2c-.1,.6,-.1,.8,.1,.8c.1,0,.2,-.1,.2,-.2c.1,0,.3,-.2,.6,-.5c.3,-.2,.5,-.4,.6,-.5c0,0,.3,-.3,.5,-.4c.7,-.7,1.1,-1.1,1.5,-1.7c.3,-.4,.6,-.7,.7,-.8c.2,-.2,1.1,-1.9,1.1,-2.1c0,-.1,-.1,-.2,-.6,-.4c-.7,-.4,-.6,-.5,.1,-.2c.3,.1,.6,.2,.7,.2c.4,-.1,.3,.3,-.2,1.3c-.3,.6,-.7,1.2,-.9,1.4c-.1,.1,-.4,.5,-.6,.7c-.2,.3,-.4,.6,-.5,.7c-.1,.1,-.3,.3,-.5,.5c-.1,.1,-.4,.4,-.6,.6c-.2,.2,-.5,.4,-.6,.6c-.1,.1,-.3,.2,-.3,.2c-.1,0,-.3,.2,-.5,.4c-.2,.2,-.5,.4,-.7,.5c-.2,0,-.3,.2,-.3,.7c-.1,.3,-.1,.6,-.1,.7c0,0,0,.3,0,.5c0,.3,.1,.7,.1,1c.2,.8,.1,1.1,-.1,1.3c-.4,.2,-1.1,1.2,-1.3,1.7c-.2,.5,-.3,.6,-.5,.5Z" class="gd_7"/>
<path d="M134,338.4c-.4,0,-.8,0,-1,-.1c-.2,-.1,-.4,-.1,-.5,-.1c-.1,0,-.3,0,-.4,-.1c-.1,0,-.3,-.1,-.4,0c-.1,0,-.2,0,-.3,0c-.1,-.3,.3,-.3,1.8,0c1.4,.3,2.5,-.1,2.7,-.9c0,-.3,.1,-.6,.2,-.9c.1,-.2,.2,-.6,.2,-.8c.1,-.3,.1,-.7,.3,-1.5c.1,-.3,.2,-.7,.4,-.8c.1,-.2,.2,-.3,.1,-.4c0,0,-.2,0,-.4,0c-.4,.1,-1.6,-.1,-1.7,-.3c-.1,-.2,.8,-.6,2,-.8c.3,0,.4,-.1,.6,-.7c.6,-1.4,1.6,-3.2,2.9,-4.9c.1,-.1,.1,-.3,0,-.3c0,0,-.3,.1,-.7,.2c-.6,.3,-1.3,.3,-1.4,.1c0,0,0,-.1,.1,-.1q.2,-.1,.2,0c.1,.1,.1,.2,.2,.2c.2,0,1.2,-.5,1.5,-.7c.3,-.3,.6,-.3,.6,-.2c.1,.1,-.1,.9,-.2,1c-.2,.1,-.5,.5,-.7,.9c-.1,.1,-.4,.5,-.6,.8c-.3,.5,-.5,.8,-.6,1.2c-.1,.1,-.3,.4,-.4,.7c-.3,.6,-.6,1.1,-.8,1.7c-.1,.2,-.2,.3,-.7,.3c-.8,.2,-1.6,.5,-1.4,.7c0,0,.4,0,1,-.1c.8,-.1,.9,-.1,1,0c0,.1,-.1,.4,-.3,.7c-.3,.5,-.6,1.5,-.7,2.1c0,.2,-.1,.6,-.2,.9c-.1,.3,-.2,.7,-.2,.8c-.1,.6,-.4,.9,-.8,1.2c-.6,.3,-.7,.3,-1.4,.2Z" class="gd_7"/>
<path d="M129.6,334.1c-.2,-.1,-.4,-.2,-.5,-.4c-.3,-.2,-1,-1,-1,-1.1c0,0,.1,0,.1,0c.1,-.1,.5,.3,.6,.5c.1,.1,.2,.2,.2,.1c.1,0,.1,-.1,-.1,-.3c-.1,-.1,-.3,-.5,-.4,-.7c-.1,-.3,-.4,-.9,-.6,-1.4c-.3,-.5,-.5,-1,-.5,-1.1c0,-.1,.2,-.6,.5,-1.1c.6,-1,1.6,-2.2,2.5,-2.8c.4,-.2,.8,-.6,.9,-.8c.4,-.5,.6,-.5,.9,.2q.3,.6,.4,.5c.1,0,.2,0,.2,0c0,0,.1,.2,.1,.4c.1,.6,-.1,.5,-.6,-.4c-.4,-.7,-.5,-.8,-.7,-.5c-.1,.2,-.7,.6,-1.1,.9c-.7,.5,-1.8,1.8,-2.5,2.9l-.4,.7l.7,1.4c.7,1.5,1.1,2.2,1.5,2.8c.2,.4,.2,.5,-.2,.2Z" class="gd_7"/>
<path d="M128.1,332.1c-.1,0,0,-.1,0,-.1q.1,0,.2,.1c0,.1,0,.2,0,.2c-.1,0,-.2,-.1,-.2,-.2Z" class="gd_7"/>
<path d="M127.6,331.2c-.3,-.6,-.2,-.8,0,-.5c.2,.2,.4,.8,.3,.9c-.1,.1,-.2,-.1,-.3,-.4Z" class="gd_7"/>
<path d="M140.1,325c.5,-.3,1.1,-.5,1.2,-.3c.1,.1,-.1,.2,-.8,.4c-.8,.2,-.9,.2,-.4,-.1Z" class="gd_7"/>
<path d="M141.5,324.5c0,0,0,-.2,0,-.4c0,-.5,.7,-1.7,1.3,-2.2c1.8,-1.7,3.9,-3.1,5.7,-3.6c.6,-.2,.6,-.4,-.1,-.2c-.3,0,-1.3,.2,-2.2,.3c-1,.2,-1.9,.3,-2.1,.4c-.4,.1,-1.2,.6,-1.5,.9c-.2,.3,-.3,.3,-.4,.2c-.1,-.2,.9,-1,1.4,-1.2c1.1,-.3,1.4,-.4,2.1,-.5c.4,0,1.6,-.2,2.6,-.4c1.8,-.3,2,-.3,2.1,0c0,.1,-.3,.2,-.7,.4c-2.5,.9,-4.4,1.9,-5.3,2.7c-.2,.2,-.4,.4,-.4,.4c-.1,0,-.2,.1,-.3,.2c-.1,.1,-.3,.3,-.6,.5c-.2,.3,-.5,.6,-.6,.8c-.1,.2,-.3,.4,-.5,.6c-.1,.1,-.2,.4,-.3,.6c0,.4,-.1,.6,-.2,.5Z" class="gd_7"/>
<path d="M132.6,325c-.1,-.1,-.2,-.7,-.1,-1c0,0,.3,-.3,.6,-.5c.3,-.2,.7,-.4,.8,-.5l.2,-.1l-.1,.2c-.2,.2,-1,.9,-1.2,1c-.1,.1,-.2,.2,-.2,.4c0,.1,0,.4,0,.5c.1,.2,0,.2,0,0Z" class="gd_7"/>
<path d="M141.5,319.4c.2,-.2,.5,-.2,.5,-.1c0,.1,-.1,.2,-.3,.2q-.4,.1,-.2,-.1Z" class="gd_7"/>
<path d="M127.2,349.6c.1,-.1,.1,-.3,.1,-.6c-.1,-.2,-.1,-.8,-.1,-1.4c0,-.5,0,-1,0,-1c0,0,0,-.2,0,-.3c0,-.1,.1,-.5,.1,-.8c.1,-1.3,.1,-1.6,.5,-3.1c0,-.2,.1,-.6,.1,-.8c.2,-.9,1.2,-3.1,2.4,-5.4c.6,-1.3,.9,-2,.9,-2.1c0,0,-.3,.5,-.6,1.1c-.3,.6,-.7,1.3,-.9,1.7c-.9,1.8,-1.9,4.1,-2,4.6c0,.2,-.2,.5,-.3,.8c0,.2,-.1,.5,-.1,.5c.1,.1,-.3,1.3,-.5,1.8c0,.2,-.1,.6,-.1,.8c-.1,.3,-.2,.7,-.2,1c-.3,1,-.5,2.6,-.3,2.9c0,.1,.2,.2,.4,.3c.4,.1,.3,.1,.6,0Z" class="gc_7"/>
<path d="M124.9,342.3c-.1,-.2,-.3,-2,-.3,-3.1c0,-.9,.1,-1.7,.2,-2.3c.1,-.3,.2,-.7,.2,-.8c.1,-.3,.3,-.2,.6,.3c.1,.2,.4,.6,.6,.8l.3,.4l-.1,-.4c-.1,-.2,-.3,-.7,-.5,-1.1c-.4,-.9,-.7,-2.2,-.6,-2.7c.1,-.4,.6,-1.6,.9,-2.3c.2,-.5,.6,-.6,.8,-.3c0,.1,0,.2,-.2,.2c-.2,0,-.3,.1,-.4,.4c-.7,1.3,-.9,2.4,-.9,3c.1,.2,.3,.9,.5,1.4c.4,.9,.5,1.2,1,1.8c.3,.5,.5,.9,.5,.9c0,.2,-.6,-.2,-.9,-.5c-.1,-.1,-.2,-.3,-.4,-.4c-.1,-.2,-.4,-.5,-.6,-.7l-.3,-.5l-.1,.2c-.4,1,-.5,2.5,-.3,4.4c.1,1.2,.1,1.6,0,1.3Z" class="ge_7"/>
<path d="M133.7,338.4c-.2,0,-.4,-.1,-.6,-.1c-.2,-.1,-.4,-.1,-.5,-.1c-.2,0,-.8,-.2,-.8,-.2c0,-.1,.5,0,1,.1c1.3,.2,2,.1,2.5,-.2c.4,-.3,.5,-.5,.8,-1.3c.2,-1,.3,-1.1,.3,-1.6c.1,-.6,.2,-1,.6,-1.7c.1,-.3,.2,-.5,.2,-.5c0,-.1,-.2,0,-.5,0c-.3,.1,-.5,.1,-1.1,0l-.6,-.2l.1,-.2c.2,-.2,.8,-.5,1.6,-.6l.7,-.1l.3,-.7c.5,-1.4,1.6,-3.2,2.4,-4.4c.3,-.4,.5,-.7,.4,-.8q0,-.1,-.7,.2q-.7,.3,-.7,.2c0,-.1,.2,-.1,.3,-.2c.2,0,.5,-.2,.8,-.4c.4,-.3,.7,-.4,.8,-.3c.2,.1,-.1,.8,-.5,1.2c-.7,.8,-2,3.1,-2.6,4.5c-.1,.3,-.2,.6,-.3,.7c0,.1,-.2,.2,-.3,.2c-.8,.1,-1,.1,-1.4,.3q-.5,.2,-.3,.3c0,.1,.3,.1,1,0c.7,-.1,.9,-.1,.9,0c.1,.1,-.1,.4,-.3,.8c-.4,.8,-.6,1.5,-.6,2c0,.2,-.1,.6,-.2,1c-.2,.4,-.2,.7,-.2,.8c0,0,-.1,.2,-.2,.4c-.3,.7,-1.2,1,-2.3,.9Z" class="ge_7"/>
<path d="M131.5,338l.1,-.1c0,0,.1,.1,.1,.1l-.1,.1l-.1,-.1Z" class="ge_7"/>
<path d="M129.3,333.9c-.6,-.5,-1.3,-1.4,-.9,-1.2c.1,.1,.3,.3,.3,.3c.1,.2,.4,.4,.5,.3c0,-.1,.5,.4,.6,.7c.1,.1,.1,.3,.1,.3c0,0,-.3,-.2,-.6,-.4Z" class="ge_7"/>
<path d="M128.8,332.8c0,-.1,-.2,-.3,-.2,-.5c-.1,-.3,-.4,-.9,-.6,-1.4c-.3,-.5,-.5,-1,-.6,-1.1c0,-.2,.8,-1.9,1.2,-2.2c.1,-.2,.4,-.5,.7,-.8c.3,-.3,.6,-.6,.8,-.7c.6,-.5,.9,-.7,1.3,-1.1c.2,-.2,.4,-.4,.5,-.3c.2,0,.2,.2,0,.3c0,0,-.4,.2,-.7,.5c-.4,.3,-.7,.5,-.7,.5c-.2,.1,-.4,.3,-.9,.9c-.3,.3,-.5,.5,-.6,.6c0,0,-.9,1.3,-1.2,1.7c-.2,.5,-.2,.6,.4,1.9c.8,1.5,.9,1.9,.6,1.7Z" class="ge_7"/>
<path d="M127.2,331.5c-.1,-.2,-.1,-.3,0,-.3c.1,.1,.2,.2,.3,.3c0,.2,0,.3,0,.3c-.1,0,-.2,-.2,-.3,-.3Z" class="ge_7"/>
<path d="M127.6,331.2c0,-.1,-.1,-.3,-.2,-.4c0,-.1,0,-.2,0,-.2c.1,0,.5,.5,.5,.7c0,.3,-.2,.2,-.3,-.1Z" class="ge_7"/>
<path d="M138.4,326.1c0,0,.1,-.1,.2,-.1c.1,0,.1,.1,.2,.1c0,.1,-.1,.1,-.2,.1c-.1,0,-.2,0,-.2,-.1Z" class="ge_7"/>
<path d="M132.5,326.2c-.1,-.3,.1,-.5,.3,-.2c.1,.2,.1,.4,0,.4c-.1,0,-.2,0,-.3,-.2Z" class="ge_7"/>
<path d="M140.3,325c-.1,-.1,.8,-.4,.9,-.3c.1,0,.1,.1,0,.2c-.3,.1,-.9,.2,-.9,.1Z" class="ge_7"/>
<path d="M132.2,325.6c-.1,-.1,-.1,-.2,0,-.2q0,-.1,.1,0c0,.1,0,.2,0,.2q-.1,0,-.1,0Z" class="ge_7"/>
<path d="M141.6,324.4c-.1,-.1,0,-.9,.2,-1.1c.1,-.1,.3,-.5,.4,-.7c.2,-.2,.4,-.5,.5,-.6c.1,-.1,.3,-.2,.4,-.3c.4,-.5,2,-1.7,2.8,-2.2c.8,-.4,1.9,-.9,2.8,-1.3c.6,-.2,.6,-.4,0,-.2c-.3,0,-1.3,.2,-2.2,.3c-1.7,.3,-2,.3,-2.4,.5c-.4,.1,-1.2,.6,-1.5,.9c-.1,.1,-.2,.2,-.3,.2c-.2,-.1,.8,-1,1.2,-1.1c.7,-.3,1.8,-.5,2.4,-.6c.4,0,1.5,-.2,2.4,-.4c.9,-.1,1.8,-.2,1.8,-.2c.3,0,.3,.2,0,.4c-1.4,.5,-2.5,1,-3.3,1.4c-.8,.4,-1.7,.9,-2,1.1c0,.1,-.2,.2,-.4,.4c-1,.9,-1.8,1.6,-2,1.9c-.1,.2,-.2,.3,-.3,.4c-.1,0,-.4,.7,-.4,1c0,.2,-.1,.3,-.1,.2Z" class="ge_7"/>
<path d="M132.6,324c-.1,0,.6,-.5,1,-.7c.3,-.2,.2,-.1,-.2,.3c-.4,.4,-.7,.6,-.8,.4Z" class="ge_7"/>
<path d="M141.7,319.4q-.1,0,0,-.1c.1,-.1,.3,0,.2,.1c0,.1,-.1,.1,-.2,0Z" class="ge_7"/>
<path d="M125.9,345.1c-.1,-.1,-.1,-.2,0,-.2c0,0,.1,0,.1,.2c.1,.1,.1,.2,.1,.2c-.1,0,-.2,-.1,-.2,-.2Z" class="gf_7"/>
<path d="M129,344.6q0,-.1,.1,-.1q.2,-.1,.2,0c-.1,.2,-.4,.2,-.3,.1Z" class="gf_7"/>
<path d="M125.7,344.5c-.1,0,-.1,-.1,0,-.1c0,0,.1,.1,.1,.2c0,.2,0,.1,-.1,-.1Z" class="gf_7"/>
<path d="M129.5,344.1c0,0,.2,-.2,.4,-.4c.2,-.1,.5,-.4,.5,-.6c.2,-.2,.4,-.3,.4,-.1c0,.1,-1,1.1,-1.2,1.2q-.1,0,-.1,-.1Z" class="gf_7"/>
<path d="M125.4,343.9c-.1,-.1,-.1,-.3,-.1,-.4q0,-.1,.1,.1c0,.1,.1,.2,.1,.3q0,.2,-.1,0Z" class="gf_7"/>
<path d="M131.2,342.3c.2,-.3,1,-1.2,1.1,-1.4q.1,0,.2,0c0,.1,-.1,.2,-.2,.4c-.2,.1,-.5,.5,-.7,.8c-.5,.6,-.8,.8,-.4,.2Z" class="gf_7"/>
<path d="M124.8,341.9c0,-.1,0,-.2,0,-.2q.1,0,.2,0c0,.1,0,.2,0,.2c-.1,.1,-.1,0,-.2,0Z" class="gf_7"/>
<path d="M132.5,340.7c0,-.3,.6,-1.2,.7,-1.2c.1,.1,-.6,1.3,-.7,1.3v-.1Z" class="gf_7"/>
<path d="M124.8,341.2c-.1,0,-.1,-.2,-.1,-.3c.1,-.2,.2,0,.2,.2c0,.2,-.1,.2,-.1,.1Z" class="gf_7"/>
<path d="M124.7,340.6c0,-.2,0,-.3,0,-.3c.1,-.2,.1,0,.1,.2v.3Z" class="gf_7"/>
<path d="M133.2,339.3c0,-.1,0,-.3,-.1,-.4c-.1,-.1,0,-.2,.1,-.2c.4,0,.5,.1,.2,.5q-.1,.2,-.2,.1Z" class="gf_7"/>
<path d="M124.6,339.4c0,-.2,.1,-.9,.1,-.9c.1,.1,.1,.5,0,.8c0,.1,-.1,.2,-.1,.1Z" class="gf_7"/>
<path d="M134,338.4c-.3,0,-.6,0,-.7,-.1q-.2,-.1,.1,-.1c.1,.1,.5,.1,.9,.1c.5,0,.6,-.1,1,-.4c.3,-.1,.5,-.4,.6,-.6c.2,-.4,.2,-.3,.1,.2c-.1,.3,-.3,.4,-.7,.6c-.5,.3,-.6,.3,-1.3,.3Z" class="gf_7"/>
<path d="M132.4,338.1c-.4,0,-.4,-.1,0,-.1c.1,0,.2,.1,.2,.1c.1,0,.1,.1,.1,.1c-.1,0,-.2,0,-.3,-.1Z" class="gf_7"/>
<path d="M127,338.3c-.3,-.2,-.5,-.6,-.4,-.6c.1,0,0,-.1,-.1,-.3c-.3,-.6,-1,-2.2,-1,-2.4c0,-.1,.1,.1,.3,.5c.2,.3,.6,1.2,1,1.8c.3,.7,.6,1.2,.6,1.2c-.1,0,-.2,-.1,-.4,-.2Z" class="gf_7"/>
<path d="M124.7,338.1c-.1,-.1,0,-.8,.2,-.9c0,-.1,0,0,0,.2c0,.5,-.1,.8,-.2,.7Z" class="gf_7"/>
<path d="M136.1,336.6c0,-.1,.1,-.2,.1,-.3q.1,-.1,.1,.1c0,.1,-.1,.2,-.1,.3q-.1,.1,-.1,-.1Z" class="gf_7"/>
<path d="M126.2,337.4q-.1,-.1,0,-.1c0,.1,.1,.2,.1,.2c0,.1,0,0,-.1,-.1Z" class="gf_7"/>
<path d="M124.9,337c0,-.1,0,-.2,.1,-.4c0,-.1,.1,-.3,.1,-.5c0,-.3,.3,-.2,.4,.3c0,.1,0,.2,0,.1c-.1,-.1,-.4,-.1,-.4,0c.1,.1,-.1,.6,-.2,.5Z" class="gf_7"/>
<path d="M136.3,335.9c0,0,.1,-.1,.1,-.3q.1,-.3,.1,.1c0,.2,-.1,.3,-.2,.2Z" class="gf_7"/>
<path d="M136.5,334.7c0,-.1,0,-.2,.1,-.3c0,0,.1,0,0,.2c0,.1,0,.2,0,.2q-.1,0,-.1,-.1Z" class="gf_7"/>
<path d="M136.7,334.2c-.1,-.2,.1,-.7,.3,-1c.2,-.2,.2,-.4,.2,-.4c-.1,-.1,-.3,-.1,-.7,0c-.7,.1,-.8,-.1,-.1,-.2c.4,-.1,.8,-.1,.9,-.1c.3,-.1,.3,.1,-.1,.9c-.3,.4,-.5,.8,-.5,.8Z" class="gf_7"/>
<path d="M129.5,334c-.1,-.1,-.3,-.2,-.5,-.3c-.3,-.3,-.7,-.9,-.5,-.8c.1,0,.2,.1,.2,.2c.1,.1,.3,.2,.4,.3c.2,.1,.4,.2,.6,.4c.3,.4,.2,.5,-.2,.2Z" class="gf_7"/>
<path d="M125.3,334.1c0,-.2,0,-.4,0,-.5c.1,-.4,.6,-1.7,.7,-1.8c.1,0,.1,.1,-.2,.9c-.1,.4,-.3,.9,-.3,1.2q-.1,.4,-.2,.2Z" class="gf_7"/>
<path d="M135.4,332.6c-.2,0,-.3,0,-.3,-.1c-.1,-.1,.7,-.5,1,-.5c.3,0,.2,.1,-.2,.2c-.5,.1,-.6,.3,-.4,.4q.2,.1,-.1,0Z" class="gf_7"/>
<path d="M128.8,332.6c-.1,-.1,-.1,-.2,-.2,-.4q0,-.2,.1,0c0,.1,.1,.3,.1,.4c.1,.1,.1,.2,0,0Z" class="gf_7"/>
<path d="M136.9,331.8c.1,0,.2,-.1,.3,0c.1,0,0,.1,-.2,.1q-.3,0,-.1,-.1Z" class="gf_7"/>
<path d="M137.5,331.5c.1,-.2,.2,-.3,.2,-.4c.1,0,-.1,.6,-.2,.6c0,.1,0,0,0,-.2Z" class="gf_7"/>
<path d="M128.4,331.7c-.1,-.1,-.2,-.2,-.1,-.3q0,-.1,.1,.1q.2,.3,0,.2Z" class="gf_7"/>
<path d="M137.9,330.7c0,-.2,.1,-.2,.2,-.2c.1,0,-.1,.4,-.2,.4c-.1,0,-.1,-.1,0,-.2Z" class="gf_7"/>
<path d="M127.3,331.5q-.1,-.1,0,-.1q.2,.1,.1,.2q0,.1,-.1,-.1Z" class="gf_7"/>
<path d="M126,331.6c-.1,-.2,.5,-.9,.7,-.9c.3,0,.3,.2,.1,.3c-.2,0,-.4,.2,-.5,.3c-.1,.3,-.2,.4,-.3,.3Z" class="gf_7"/>
<path d="M127.6,331.1c-.1,-.2,-.1,-.4,-.1,-.4c.1,-.1,.4,.4,.3,.6q0,.1,-.2,-.2Z" class="gf_7"/>
<path d="M138,330.2c0,-.1,.2,-.5,.3,-.5c.1,0,.1,-.1,.2,-.3c.1,-.4,1,-1.8,2,-3.3c.1,-.2,.1,-.3,0,-.4c-.1,-.1,-.1,-.2,.1,-.3c.1,-.1,.2,-.1,.3,-.1c.2,.1,0,.7,-.2,.9c-.3,.3,-1.4,2,-1.7,2.5c-.6,1.2,-.9,1.7,-1,1.5Z" class="gf_7"/>
<path d="M127.9,330.7c-.1,-.1,-.1,-.2,0,-.2c0,0,.1,.1,.1,.1c0,0,0,.1,0,.1c0,.1,-.1,0,-.1,0Z" class="gf_7"/>
<path d="M127.5,330.1c0,-.1,0,-.2,0,-.3c0,-.1,0,0,.1,.2c.1,.1,.2,.2,.1,.2c0,0,-.1,0,-.2,-.1Z" class="gf_7"/>
<path d="M127.7,329.3c-.1,-.1,0,-.4,.1,-.4c.1,.1,.1,.2,0,.3c0,.1,-.1,.2,-.1,.1Z" class="gf_7"/>
<path d="M128,328.5c0,-.1,.1,-.3,.3,-.4c.1,-.1,.2,-.3,.2,-.4q.1,-.1,.2,-.1c.1,0,0,.2,-.4,.6c-.2,.3,-.3,.4,-.3,.3Z" class="gf_7"/>
<path d="M129,327.2c.3,-.4,.8,-.9,.8,-.8c.1,0,-.4,.6,-.7,.9l-.2,.2Z" class="gf_7"/>
<path d="M132.7,326.3c-.2,-.1,-.2,-.4,-.1,-.4c.1,0,.3,.4,.2,.5c0,0,-.1,0,-.1,-.1Z" class="gf_7"/>
<path d="M136.3,325.9c.1,-.2,.2,-.3,.3,-.3c0,0,0,.1,-.1,.3c-.1,.1,-.2,.2,-.3,.2c0,0,0,-.1,.1,-.2Z" class="gf_7"/>
<path d="M130.6,325.8c.1,-.1,.2,-.2,.3,-.2c.1,0,-.2,.3,-.4,.3c-.1,.1,0,0,.1,-.1Z" class="gf_7"/>
<path d="M140.7,324.9c-.1,0,0,-.1,.1,-.1c.2,-.1,.4,-.1,.4,0c0,.1,-.4,.2,-.5,.1Z" class="gf_7"/>
<path d="M131.3,325.1c.2,-.3,.5,-.5,.6,-.3c.1,.1,-.2,.3,-.7,.6c0,0,0,-.1,.1,-.3Z" class="gf_7"/>
<path d="M141.6,323.7c0,0,.1,-.1,.1,-.3c.1,-.1,.2,-.1,.2,-.1c0,0,0,.2,-.1,.3q-.1,.1,-.2,.1Z" class="gf_7"/>
<path d="M142.2,322.8c.2,-.5,.8,-1.1,2.4,-2.3c.8,-.7,2.6,-1.7,3.6,-2.1c1,-.3,1.1,-.4,1.1,-.5c-.2,-.2,.7,-.5,.9,-.3c.2,.2,.1,.3,-.1,.4c-.1,0,-.5,.1,-.8,.3c-.4,.1,-1,.4,-1.3,.5c-1.1,.4,-1.9,.8,-2.4,1.2c-.2,.1,-.5,.3,-.6,.4c-.1,0,-.4,.2,-.5,.4c-.2,.1,-.4,.3,-.4,.3c0,0,-.2,.1,-.4,.3c-1.1,1,-1.3,1.3,-1.3,1.4c0,.2,-.1,.3,-.2,.3c-.1,0,-.1,-.1,0,-.3Z" class="gf_7"/>
<path d="M133,323.8q0,-.1,.1,-.1c0,0,.1,0,0,0q0,.1,-.1,.1Z" class="gf_7"/>
<path d="M142.3,319.8c0,0,0,-.1,.1,-.2c.1,0,.2,-.1,.2,0c0,0,0,.1,-.1,.1c-.1,.1,-.2,.2,-.2,.1Z" class="gf_7"/>
<path d="M143,319.1c.1,-.2,.5,-.3,.5,-.2c.1,0,-.3,.3,-.5,.4q-.2,0,0,-.2Z" class="gf_7"/>
<path d="M144.6,318.5c.1,-.1,.2,-.1,.3,-.1q.1,0,0,.1c-.1,0,-.2,0,-.3,.1c-.1,0,-.1,-.1,0,-.1Z" class="gf_7"/>
<path d="M145.2,318.3c.1,0,.4,-.1,.9,-.1c.6,-.1,.9,-.1,.9,0c0,0,-.4,.1,-.9,.1c-.6,.1,-.9,.1,-.9,0Z" class="gf_7"/>
<path d="M147.1,318.1c.1,0,.4,-.1,.9,-.1c.5,-.1,.7,-.1,.6,-.1c-.3,.1,-1.5,.3,-1.5,.2Z" class="gf_7"/>
<path d="M125.8,351.9c0,0,0,-.3,0,-.7c0,-.4,0,-.7,0,-.8c0,0,0,-.8,0,-.9q.1,-.2,.5,0c.9,.5,1.2,.3,1,-.7c-.1,-1,.1,-1.1,.3,-.2c.1,.8,.1,.9,-.2,1.1c-.6,.5,-1.5,1.9,-1.4,2.2c.1,0,0,0,-.1,0c0,0,-.1,0,-.1,0Z" class="gg_7"/>
<path d="M127.3,347.8c0,0,0,-.7,.1,-.7c.1,-.1,.1,0,.1,.4c-.1,.3,-.1,.4,-.2,.3Z" class="gg_7"/>
<path d="M127.3,346.6c0,0,0,-.3,0,-.5c0,-.3,.1,-.8,.1,-1.1c.1,-1,.5,-3.2,.7,-3.2c0,0,0,.1,0,.2c0,.2,-.1,.4,-.1,.6c0,.1,-.1,.4,-.1,.6c-.2,.6,-.3,2,-.1,2.2q0,.1,-.1,.2c0,0,-.1,.3,-.2,.5c0,.5,-.1,.7,-.2,.5Z" class="gg_7"/>
<path d="M126.3,346.3c-.1,0,-.1,-.1,0,-.2c0,0,0,-.2,0,-.3c-.1,-.2,.2,-.7,.3,-.5c0,.1,-.2,1.1,-.3,1.1c0,0,0,-.1,0,-.1Z" class="gg_7"/>
<path d="M125.9,345.1c-.1,-.1,-.1,-.2,0,-.2c0,0,.1,0,.1,.2c.1,.1,.1,.2,.1,.2c-.1,0,-.2,-.1,-.2,-.2Z" class="gg_7"/>
<path d="M126.5,345c0,-.1,0,-.4,.2,-.8c.1,-.4,.2,-1,.3,-1.4c.1,-.4,.2,-.8,.3,-.8c.1,-.1,.1,0,0,.3c0,.2,-.1,.5,-.1,.6c-.1,.8,-.6,2.3,-.7,2.1Z" class="gg_7"/>
<path d="M129,344.6q0,-.1,.1,-.1q.2,-.1,.2,0c-.1,.2,-.4,.2,-.3,.1Z" class="gg_7"/>
<path d="M125.7,344.5c-.1,0,-.1,-.1,0,-.1c0,0,.1,.1,.1,.2c0,.2,0,.1,-.1,-.1Z" class="gg_7"/>
<path d="M129.5,344.1c0,0,.2,-.2,.4,-.4c.2,-.1,.5,-.4,.5,-.6c.2,-.2,.4,-.3,.4,-.1c0,.1,-1,1.1,-1.2,1.2q-.1,0,-.1,-.1Z" class="gg_7"/>
<path d="M125.4,343.9c-.1,-.1,-.1,-.3,-.1,-.4q0,-.1,.1,.1c0,.1,.1,.2,.1,.3q0,.2,-.1,0Z" class="gg_7"/>
<path d="M131.2,342.3c.2,-.3,1,-1.2,1.1,-1.4q.1,0,.2,0c0,.1,-.1,.2,-.2,.4c-.2,.1,-.5,.5,-.7,.8c-.5,.6,-.8,.8,-.4,.2Z" class="gg_7"/>
<path d="M124.8,341.9c0,-.1,0,-.2,0,-.2q.1,0,.2,0c0,.1,0,.2,0,.2c-.1,.1,-.1,0,-.2,0Z" class="gg_7"/>
<path d="M128.1,341.6c0,-.5,1.5,-4,2.7,-6.2c.2,-.4,.5,-.9,.5,-1.1c0,-.3,.2,-.5,.3,-.3c.1,.1,-.2,.8,-1.3,2.7c-.5,1.1,-1,2.2,-1.2,2.5c-.2,.6,-.6,1.6,-.9,2.2c-.1,.2,-.1,.3,-.1,.2Z" class="gg_7"/>
<path d="M127.5,341.3c0,0,0,-.1,.1,-.1c0,-.1,.1,0,.1,0q0,.1,0,.1q-.1,0,-.2,0Z" class="gg_7"/>
<path d="M132.5,340.7c0,-.3,.6,-1.2,.7,-1.2c.1,.1,-.6,1.3,-.7,1.3v-.1Z" class="gg_7"/>
<path d="M124.8,341.2c-.1,0,-.1,-.2,-.1,-.3c.1,-.2,.2,0,.2,.2c0,.2,-.1,.2,-.1,.1Z" class="gg_7"/>
<path d="M127.6,340.7c0,0,0,-.1,.1,-.1c.1,-.1,.1,0,.1,0c.1,.1,-.1,.2,-.2,.1Z" class="gg_7"/>
<path d="M124.7,340.6c0,-.2,0,-.3,0,-.3c.1,-.2,.1,0,.1,.2v.3Z" class="gg_7"/>
<path d="M127.9,340.3c-.1,-.1,.3,-.7,.4,-.7c0,.1,-.1,.2,-.2,.4c-.1,.3,-.2,.4,-.2,.3Z" class="gg_7"/>
<path d="M133.2,339.3c0,-.1,0,-.3,-.1,-.4c-.1,-.1,0,-.2,.1,-.2c.4,0,.5,.1,.2,.5q-.1,.2,-.2,.1Z" class="gg_7"/>
<path d="M128.3,339.5c0,-.1,.2,-.6,.5,-1.2c.3,-.5,.4,-.7,.3,-.4c-.2,.5,-.9,1.8,-.8,1.6Z" class="gg_7"/>
<path d="M124.6,339.4c0,-.2,.1,-.9,.1,-.9c.1,.1,.1,.5,0,.8c0,.1,-.1,.2,-.1,.1Z" class="gg_7"/>
<path d="M134,338.4c-.3,0,-.6,0,-.7,-.1q-.2,-.1,.1,-.1c.1,.1,.5,.1,.9,.1c.5,0,.6,-.1,1,-.4c.3,-.1,.5,-.4,.6,-.6c.2,-.4,.2,-.3,.1,.2c-.1,.3,-.3,.4,-.7,.6c-.5,.3,-.6,.3,-1.3,.3Z" class="gg_7"/>
<path d="M132.4,338.1c-.4,0,-.4,-.1,0,-.1c.1,0,.2,.1,.2,.1c.1,0,.1,.1,.1,.1c-.1,0,-.2,0,-.3,-.1Z" class="gg_7"/>
<path d="M127,338.3c-.3,-.2,-.5,-.6,-.4,-.6c.1,0,0,-.1,-.1,-.3c-.3,-.6,-1,-2.2,-1,-2.4c0,-.1,.1,.1,.3,.5c.2,.3,.6,1.2,1,1.8c.3,.7,.6,1.2,.6,1.2c-.1,0,-.2,-.1,-.4,-.2Z" class="gg_7"/>
<path d="M124.7,338.1c-.1,-.1,0,-.8,.2,-.9c0,-.1,0,0,0,.2c0,.5,-.1,.8,-.2,.7Z" class="gg_7"/>
<path d="M136.1,336.6c0,-.1,.1,-.2,.1,-.3q.1,-.1,.1,.1c0,.1,-.1,.2,-.1,.3q-.1,.1,-.1,-.1Z" class="gg_7"/>
<path d="M126.2,337.4q-.1,-.1,0,-.1c0,.1,.1,.2,.1,.2c0,.1,0,0,-.1,-.1Z" class="gg_7"/>
<path d="M129.3,337.1c.1,-.2,.2,-.3,.2,-.3c.1,.1,0,.3,-.1,.4q-.2,.1,-.1,-.1Z" class="gg_7"/>
<path d="M129.8,336.1c.1,-.3,.3,-.6,.3,-.6c0,0,.2,-.4,.5,-.9c.2,-.6,.6,-1.2,.7,-1.4c.2,-.3,.5,-.8,.8,-1.2c.4,-.7,.6,-1,.7,-.8c0,0,-.2,.4,-1,1.5c-.2,.4,-.5,.9,-.7,1.1c-.1,.3,-.3,.8,-.5,1.2c-.2,.4,-.5,1,-.6,1.2c-.3,.7,-.5,.6,-.2,-.1Z" class="gg_7"/>
<path d="M124.9,337c0,-.1,0,-.2,.1,-.4c0,-.1,.1,-.3,.1,-.5c0,-.3,.3,-.2,.4,.3c0,.1,0,.2,0,.1c-.1,-.1,-.4,-.1,-.4,0c.1,.1,-.1,.6,-.2,.5Z" class="gg_7"/>
<path d="M136.3,335.9c0,0,.1,-.1,.1,-.3q.1,-.3,.1,.1c0,.2,-.1,.3,-.2,.2Z" class="gg_7"/>
<path d="M136.5,334.7c0,-.1,0,-.2,.1,-.3c0,0,.1,0,0,.2c0,.1,0,.2,0,.2q-.1,0,-.1,-.1Z" class="gg_7"/>
<path d="M136.7,334.2c-.1,-.2,.1,-.7,.3,-1c.2,-.2,.2,-.4,.2,-.4c-.1,-.1,-.3,-.1,-.7,0c-.7,.1,-.8,-.1,-.1,-.2c.4,-.1,.8,-.1,.9,-.1c.3,-.1,.3,.1,-.1,.9c-.3,.4,-.5,.8,-.5,.8Z" class="gg_7"/>
<path d="M129.5,334c-.1,-.1,-.3,-.2,-.5,-.3c-.3,-.3,-.7,-.9,-.5,-.8c.1,0,.2,.1,.2,.2c.1,.1,.3,.2,.4,.3c.2,.1,.4,.2,.6,.4c.3,.4,.2,.5,-.2,.2Z" class="gg_7"/>
<path d="M125.3,334.1c0,-.2,0,-.4,0,-.5c.1,-.4,.6,-1.7,.7,-1.8c.1,0,.1,.1,-.2,.9c-.1,.4,-.3,.9,-.3,1.2q-.1,.4,-.2,.2Z" class="gg_7"/>
<path d="M135.4,332.6c-.2,0,-.3,0,-.3,-.1c-.1,-.1,.7,-.5,1,-.5c.3,0,.2,.1,-.2,.2c-.5,.1,-.6,.3,-.4,.4q.2,.1,-.1,0Z" class="gg_7"/>
<path d="M128.8,332.6c-.1,-.1,-.1,-.2,-.2,-.4q0,-.2,.1,0c0,.1,.1,.3,.1,.4c.1,.1,.1,.2,0,0Z" class="gg_7"/>
<path d="M136.9,331.8c.1,0,.2,-.1,.3,0c.1,0,0,.1,-.2,.1q-.3,0,-.1,-.1Z" class="gg_7"/>
<path d="M137.5,331.5c.1,-.2,.2,-.3,.2,-.4c.1,0,-.1,.6,-.2,.6c0,.1,0,0,0,-.2Z" class="gg_7"/>
<path d="M128.4,331.7c-.1,-.1,-.2,-.2,-.1,-.3q0,-.1,.1,.1q.2,.3,0,.2Z" class="gg_7"/>
<path d="M137.9,330.7c0,-.2,.1,-.2,.2,-.2c.1,0,-.1,.4,-.2,.4c-.1,0,-.1,-.1,0,-.2Z" class="gg_7"/>
<path d="M127.3,331.5q-.1,-.1,0,-.1q.2,.1,.1,.2q0,.1,-.1,-.1Z" class="gg_7"/>
<path d="M126,331.6c-.1,-.2,.5,-.9,.7,-.9c.3,0,.3,.2,.1,.3c-.2,0,-.4,.2,-.5,.3c-.1,.3,-.2,.4,-.3,.3Z" class="gg_7"/>
<path d="M127.6,331.1c-.1,-.2,-.1,-.4,-.1,-.4c.1,-.1,.4,.4,.3,.6q0,.1,-.2,-.2Z" class="gg_7"/>
<path d="M133,330.6c.1,-.3,.2,-.4,.3,-.4c.1,.1,-.3,.7,-.4,.7c-.1,0,0,-.1,.1,-.3Z" class="gg_7"/>
<path d="M138,330.2c0,-.1,.2,-.5,.3,-.5c.1,0,.1,-.1,.2,-.3c.1,-.4,1,-1.8,2,-3.3c.1,-.2,.1,-.3,0,-.4c-.1,-.1,-.1,-.2,.1,-.3c.1,-.1,.2,-.1,.3,-.1c.2,.1,0,.7,-.2,.9c-.3,.3,-1.4,2,-1.7,2.5c-.6,1.2,-.9,1.7,-1,1.5Z" class="gg_7"/>
<path d="M127.9,330.7c-.1,-.1,-.1,-.2,0,-.2c0,0,.1,.1,.1,.1c0,0,0,.1,0,.1c0,.1,-.1,0,-.1,0Z" class="gg_7"/>
<path d="M133.4,330.1c0,-.1,.5,-1,.8,-1.4c.1,-.2,.3,-.5,.4,-.6c.2,-.4,.8,-1.1,.9,-1.1c0,.1,0,.2,-.1,.3c-.1,.1,-.3,.3,-.3,.3c-.1,.1,-.3,.5,-.5,.8c-.3,.3,-.6,.8,-.7,1c-.3,.6,-.4,.7,-.5,.7Z" class="gg_7"/>
<path d="M127.5,330.1c0,-.1,0,-.2,0,-.3c0,-.1,0,0,.1,.2c.1,.1,.2,.2,.1,.2c0,0,-.1,0,-.2,-.1Z" class="gg_7"/>
<path d="M127.7,329.3c-.1,-.1,0,-.4,.1,-.4c.1,.1,.1,.2,0,.3c0,.1,-.1,.2,-.1,.1Z" class="gg_7"/>
<path d="M128,328.5c0,-.1,.1,-.3,.3,-.4c.1,-.1,.2,-.3,.2,-.4q.1,-.1,.2,-.1c.1,0,0,.2,-.4,.6c-.2,.3,-.3,.4,-.3,.3Z" class="gg_7"/>
<path d="M129,327.2c.3,-.4,.8,-.9,.8,-.8c.1,0,-.4,.6,-.7,.9l-.2,.2Z" class="gg_7"/>
<path d="M135.9,326.4c.1,-.1,.2,-.2,.2,-.2c0,0,0,.1,-.1,.3l-.2,.2Z" class="gg_7"/>
<path d="M132.7,326.3c-.2,-.1,-.2,-.4,-.1,-.4c.1,0,.3,.4,.2,.5c0,0,-.1,0,-.1,-.1Z" class="gg_7"/>
<path d="M130.6,325.8c.1,-.1,.2,-.2,.3,-.2c.1,0,-.2,.3,-.4,.3c-.1,.1,0,0,.1,-.1Z" class="gg_7"/>
<path d="M140.7,324.9c-.1,0,0,-.1,.1,-.1c.2,-.1,.4,-.1,.4,0c0,.1,-.4,.2,-.5,.1Z" class="gg_7"/>
<path d="M131.3,325.1c.2,-.3,.5,-.5,.6,-.3c.1,.1,-.2,.3,-.7,.6c0,0,0,-.1,.1,-.3Z" class="gg_7"/>
<path d="M141.6,323.7c0,0,.1,-.1,.1,-.3c.1,-.1,.2,-.1,.2,-.1c0,0,0,.2,-.1,.3q-.1,.1,-.2,.1Z" class="gg_7"/>
<path d="M142.2,322.8c.2,-.5,.8,-1.1,2.4,-2.3c.8,-.7,2.6,-1.7,3.6,-2.1c1,-.3,1.1,-.4,1.1,-.5c-.2,-.2,.7,-.5,.9,-.3c.2,.2,.1,.3,-.1,.4c-.1,0,-.5,.1,-.8,.3c-.4,.1,-1,.4,-1.3,.5c-1.1,.4,-1.9,.8,-2.4,1.2c-.2,.1,-.5,.3,-.6,.4c-.1,0,-.4,.2,-.5,.4c-.2,.1,-.4,.3,-.4,.3c0,0,-.2,.1,-.4,.3c-1.1,1,-1.3,1.3,-1.3,1.4c0,.2,-.1,.3,-.2,.3c-.1,0,-.1,-.1,0,-.3Z" class="gg_7"/>
<path d="M133,323.8q0,-.1,.1,-.1c0,0,.1,0,0,0q0,.1,-.1,.1Z" class="gg_7"/>
<path d="M142.3,319.8c0,0,0,-.1,.1,-.2c.1,0,.2,-.1,.2,0c0,0,0,.1,-.1,.1c-.1,.1,-.2,.2,-.2,.1Z" class="gg_7"/>
<path d="M143,319.1c.1,-.2,.5,-.3,.5,-.2c.1,0,-.3,.3,-.5,.4q-.2,0,0,-.2Z" class="gg_7"/>
<path d="M144.6,318.5c.1,-.1,.2,-.1,.3,-.1q.1,0,0,.1c-.1,0,-.2,0,-.3,.1c-.1,0,-.1,-.1,0,-.1Z" class="gg_7"/>
<path d="M145.2,318.3c.1,0,.4,-.1,.9,-.1c.6,-.1,.9,-.1,.9,0c0,0,-.4,.1,-.9,.1c-.6,.1,-.9,.1,-.9,0Z" class="gg_7"/>
<path d="M147.1,318.1c.1,0,.4,-.1,.9,-.1c.5,-.1,.7,-.1,.6,-.1c-.3,.1,-1.5,.3,-1.5,.2Z" class="gg_7"/>
<path d="M128.2,331.6c-.1,-.1,-.1,-.2,-.1,-.1c-.1,.2,0,.4,.1,.4c.1,0,.1,-.1,0,-.3Z" class="gb_7"/>
</g>
<path d="M152.7,347H314" class="g0_7"/>
<path d="M137.6,355.3V897.9" class="gh_7"/>
</svg>