<?xml version="1.0" encoding="UTF-8" standalone="no"?>
<!DOCTYPE svg PUBLIC "-//W3C//DTD SVG 1.1//EN"
"http://www.w3.org/Graphics/SVG/1.1/DTD/svg11.dtd">
<svg viewBox="0 0 1286 909" version="1.1" xmlns="http://www.w3.org/2000/svg" xmlns:xlink="http://www.w3.org/1999/xlink">
<defs>
<style type="text/css"><![CDATA[
.g0_826{
fill: none;
stroke: #000000;
stroke-width: 0.73;
stroke-linecap: butt;
stroke-linejoin: miter;
}
.g1_826{
fill: #B3E9FA;
}
.g2_826{
fill: none;
stroke: #02B5EE;
stroke-width: 1.262;
stroke-linecap: butt;
stroke-linejoin: miter;
}
.g3_826{
fill: none;
stroke: #5EE200;
stroke-width: 1.262;
stroke-linecap: butt;
stroke-linejoin: miter;
}
]]></style>
</defs>
<path d="M193,83.4h900.3M193,210.6H907m-714,0H907M551.3,240.2V211m0,58.5V240.2m0,114.3v-85" class="g0_826"/>
<path d="M564.9,311V299.7c0,-2.8,2.3,-5.2,5.1,-5.2h91.6c2.9,0,5.2,2.4,5.2,5.2V311c0,2.9,-2.3,5.2,-5.2,5.2H570c-2.8,0,-5.1,-2.3,-5.1,-5.2Z" class="g1_826"/>
<path d="M562.3,330.5H669.4" class="g2_826"/>
<path d="M679.9,330.5H896.1" class="g3_826"/>
<path d="M551.3,383.7V354.5m0,58.4V383.7m0,114.3V412.9" class="g0_826"/>
<path d="M685.3,448.2V436c0,-2.9,2.3,-5.2,5.2,-5.2H819.1c2.9,0,5.2,2.3,5.2,5.2v12.2c0,2.8,-2.3,5.2,-5.2,5.2H690.5c-2.9,0,-5.2,-2.4,-5.2,-5.2Z" class="g1_826"/>
<path d="M682.7,474H826.9" class="g2_826"/>
<path d="M837.4,474h58.7" class="g3_826"/>
<path d="M551.3,527.2V498m0,58.4V527.2m0,114.2v-85" class="g0_826"/>
<path d="M697.4,617.4H808.8" class="g2_826"/>
<path d="M551.3,670.6V641.4M193,671H907m-714,0H907" class="g0_826"/>
</svg>