<?xml version="1.0" encoding="UTF-8" standalone="no"?>
<!DOCTYPE svg PUBLIC "-//W3C//DTD SVG 1.1//EN"
"http://www.w3.org/Graphics/SVG/1.1/DTD/svg11.dtd">
<svg viewBox="0 0 1286 909" version="1.1" xmlns="http://www.w3.org/2000/svg" xmlns:xlink="http://www.w3.org/1999/xlink">
<defs>
<style type="text/css"><![CDATA[
.g0_65{
fill: none;
stroke: #000000;
stroke-width: 0.73;
stroke-linecap: butt;
stroke-linejoin: miter;
}
.g1_65{
fill: #B3E9FA;
}
.g2_65{
fill: none;
stroke: #02B5EE;
stroke-width: 1.262;
stroke-linecap: butt;
stroke-linejoin: miter;
}
.g3_65{
fill: none;
stroke: #5EE200;
stroke-width: 1.262;
stroke-linecap: butt;
stroke-linejoin: miter;
}
]]></style>
</defs>
<path d="M193,83.4h900.3M193,210.6H899.6m-706.6,0H899.6M532.7,240.2V211m0,58.5V240.2m0,114.3v-85" class="g0_65"/>
<path d="M568.9,304.7V292.5c0,-2.9,2.3,-5.2,5.2,-5.2h96c2.8,0,5.2,2.3,5.2,5.2v12.2c0,2.9,-2.4,5.2,-5.2,5.2h-96c-2.9,0,-5.2,-2.3,-5.2,-5.2Z" class="g1_65"/>
<path d="M566.3,330.5H677.8" class="g2_65"/>
<path d="M688.4,330.5H888.7" class="g3_65"/>
<path d="M532.7,383.7V354.5m0,58.4V383.7m0,114.3V412.9" class="g0_65"/>
<path d="M546.2,454.5V436c0,-2.9,2.4,-5.2,5.2,-5.2H670.1c2.8,0,5.2,2.3,5.2,5.2v18.5c0,2.9,-2.4,5.2,-5.2,5.2H551.4c-2.8,0,-5.2,-2.3,-5.2,-5.2Z" class="g1_65"/>
<path d="M543.6,474H677.8" class="g2_65"/>
<path d="M688.4,474H888.7" class="g3_65"/>
<path d="M532.7,527.2V498M193,527.5H899.6m-706.6,0H899.6" class="g0_65"/>
</svg>