<?xml version="1.0" encoding="UTF-8" standalone="no"?>
<!DOCTYPE svg PUBLIC "-//W3C//DTD SVG 1.1//EN"
"http://www.w3.org/Graphics/SVG/1.1/DTD/svg11.dtd">
<svg viewBox="0 0 1286 909" version="1.1" xmlns="http://www.w3.org/2000/svg" xmlns:xlink="http://www.w3.org/1999/xlink">
<defs>
<style type="text/css"><![CDATA[
.g0_1240{
fill: none;
stroke: #000000;
stroke-width: 0.73;
stroke-linecap: butt;
stroke-linejoin: miter;
}
.g1_1240{
fill: none;
stroke: #000000;
stroke-width: 0.657;
stroke-linecap: butt;
stroke-linejoin: miter;
}
.g2_1240{
fill: #FDE8E9;
}
]]></style>
</defs>
<path d="M193,83.4h900.3" class="g0_1240"/>
<path d="M202.8,112.2H665.7M202.8,138.8V112.5M518,138.8V112.5m147.7,26.3V112.5M202.8,169.9V138.8M518,169.9V138.8" class="g1_1240"/>
<path d="M527.9,169.9h71.5V138.8H527.9v31.1Z" class="g2_1240"/>
<path d="M665.7,169.9V138.8M202.8,196.2V169.9M518,196.2V169.9m147.7,26.3V169.9M202.8,222.5V196.2M518,222.5V196.2m147.7,26.3V196.2M202.8,251.9V222.5M518,251.9V222.5" class="g1_1240"/>
<path d="M527.9,249h128V222.5h-128V249Z" class="g2_1240"/>
<path d="M665.7,251.9V222.5M202.8,278.2V251.9M518,278.2V251.9m147.7,26.3V251.9M202.8,304.5V278.2M518,304.5V278.2m147.7,26.3V278.2M202.8,331.7V304.5M518,331.7V304.5" class="g1_1240"/>
<path d="M527.9,328.7H602v-21H527.9v21Z" class="g2_1240"/>
<path d="M665.7,331.7V304.5M202.8,358V331.7M518,358V331.7M665.7,358V331.7M202.8,384.3V358M518,384.3V358m147.7,26.3V358M202.8,413.7V384.3M518,413.7V384.3" class="g1_1240"/>
<path d="M527.9,410.7H641V384.3H527.9v26.4Z" class="g2_1240"/>
<path d="M665.7,413.7V384.3M202.8,440V413.7M518,440V413.7M665.7,440V413.7M202.8,466.3V440M518,466.3V440m147.7,26.3V440M202.8,495.6V466.3M518,495.6V466.3" class="g1_1240"/>
<path d="M527.9,492.7H630.2V466.3H527.9v26.4Z" class="g2_1240"/>
<path d="M665.7,495.6V466.3M202.8,521.9V495.6M518,521.9V495.6m147.7,26.3V495.6M202.8,548.2V521.9M518,548.2V521.9m147.7,26.3V521.9M202.8,577.6V548.2M518,577.6V548.2" class="g1_1240"/>
<path d="M527.9,574.7h65.9V548.2H527.9v26.5Z" class="g2_1240"/>
<path d="M665.7,577.6V548.2M202.8,603.9V577.6M518,603.9V577.6m147.7,26.3V577.6M202.8,630.2V603.9M518,630.2V603.9m147.7,26.3V603.9M202.8,659.6V630.2M518,659.6V630.2" class="g1_1240"/>
<path d="M527.9,656.6h52.2V630.2H527.9v26.4Z" class="g2_1240"/>
<path d="M665.7,659.6V630.2M202.8,685.9V659.6M518,685.9V659.6m147.7,26.3V659.6M202.8,712.2V685.9M518,712.2V685.9m147.7,26.3V685.9M202.8,743.4V712.2M518,743.4V712.2" class="g1_1240"/>
<path d="M527.9,743.4H652.1V712.2H527.9v31.2Z" class="g2_1240"/>
<path d="M665.7,743.4V712.2M202.8,769.7V743.4M518,769.7V743.4m147.7,26.3V743.4M202.8,770H665.7M685.5,109.5h362.2M685.5,136.1V109.8m205.7,26.3V109.8m156.5,26.3V109.8M685.5,165.5V136.1m205.7,29.4V136.1" class="g1_1240"/>
<path d="M901.1,162.5h136.7V136.1H901.1v26.4Z" class="g2_1240"/>
<path d="M1047.7,165.5V136.1M685.5,191.8V165.5m205.7,26.3V165.5m156.5,26.3V165.5M685.5,218.1V191.8m205.7,26.3V191.8m156.5,26.3V191.8M685.5,249.3V218.1m205.7,31.2V218.1" class="g1_1240"/>
<path d="M901.1,249.3h122.5V218.1H901.1v31.2Z" class="g2_1240"/>
<path d="M1047.7,249.3V218.1M685.5,275.6V249.3m205.7,26.3V249.3m156.5,26.3V249.3M685.5,301.9V275.6m205.7,26.3V275.6m156.5,26.3V275.6M685.5,333V301.9M891.2,333V301.9" class="g1_1240"/>
<path d="M901.1,333h99.7V301.9H901.1V333Z" class="g2_1240"/>
<path d="M1047.7,333V301.9M685.5,359.3V333m205.7,26.3V333m156.5,26.3V333M685.5,385.6V359.3m205.7,26.3V359.3m156.5,26.3V359.3M685.5,415V385.6M891.2,415V385.6" class="g1_1240"/>
<path d="M901.1,412h91.3V385.6H901.1V412Z" class="g2_1240"/>
<path d="M1047.7,415V385.6M685.5,441.3V415m205.7,26.3V415m156.5,26.3V415M685.5,467.6V441.3m205.7,26.3V441.3m156.5,26.3V441.3M685.5,498.8V467.6m205.7,31.2V467.6" class="g1_1240"/>
<path d="M901.1,498.8H1029V467.6H901.1v31.2Z" class="g2_1240"/>
<path d="M1047.7,498.8V467.6M685.5,525.1V498.8m205.7,26.3V498.8m156.5,26.3V498.8M685.5,551.4V525.1m205.7,26.3V525.1m156.5,26.3V525.1M685.5,582.5V551.4m205.7,31.1V551.4" class="g1_1240"/>
<path d="M901.1,582.5h83.4V551.4H901.1v31.1Z" class="g2_1240"/>
<path d="M1047.7,582.5V551.4M685.5,608.8V582.5m205.7,26.3V582.5m156.5,26.3V582.5M685.5,635.1V608.8m205.7,26.3V608.8m156.5,26.3V608.8M685.5,664V635.1M891.2,664V635.1" class="g1_1240"/>
<path d="M901.1,664h46.4V638.3H901.1V664Z" class="g2_1240"/>
<path d="M1047.7,664V635.1M685.5,690.3V664m205.7,26.3V664m156.5,26.3V664M685.5,716.6V690.3m205.7,26.3V690.3m156.5,26.3V690.3M685.5,746V716.6M891.2,746V716.6" class="g1_1240"/>
<path d="M901.1,743.1h77V716.6h-77v26.5Z" class="g2_1240"/>
<path d="M1047.7,746V716.6M685.5,772.3V746m205.7,26.3V746m156.5,26.3V746M685.5,772.7h362.2" class="g1_1240"/>
</svg>