<?xml version="1.0" encoding="UTF-8" standalone="no"?>
<!DOCTYPE svg PUBLIC "-//W3C//DTD SVG 1.1//EN"
"http://www.w3.org/Graphics/SVG/1.1/DTD/svg11.dtd">
<svg viewBox="0 0 909 1286" version="1.1" xmlns="http://www.w3.org/2000/svg" xmlns:xlink="http://www.w3.org/1999/xlink">
<defs>
<clipPath id="c0_43"><path d="M119.5,726.1V692.6H446.9v33.5Z"/></clipPath>
<clipPath id="c1_43"><path d="M119.5,952.6V929.5H789.9v23.1Z"/></clipPath>
<style type="text/css"><![CDATA[
.g0_43{
fill: none;
stroke: #000000;
stroke-width: 0.73;
stroke-linecap: butt;
stroke-linejoin: miter;
}
.g1_43{
fill: #E81A58;
}
.g2_43{
fill: #401A1A;
}
.g3_43{
fill: #7F7F7F;
fill-opacity: 0.01;
}
.g4_43{
fill: #7F7F7F;
fill-opacity: 0.02;
}
.g5_43{
fill: #7F7F7F;
fill-opacity: 0.04;
}
.g6_43{
fill: #7F7F7F;
fill-opacity: 0.07;
}
.g7_43{
fill: #7F7F7F;
fill-opacity: 0.11;
}
.g8_43{
fill: #FFFFFF;
}
.g9_43{
fill: #7F7F7F;
}
.ga_43{
fill: #00AEEF;
}
.gb_43{
fill: #CBCEFB;
}
]]></style>
</defs>
<path d="M116.9,159.9H792.5" class="g0_43"/>
<path d="M116.9,625.7V218.6c0,-21.6,17.6,-39.1,39.2,-39.1H792.5V586.6c0,21.6,-17.5,39.1,-39.1,39.1Z" class="g1_43"/>
<path d="M119.5,623.1V212H789.9V586.6c0,20.1,-16.3,36.5,-36.5,36.5Z" class="g2_43"/>
<path d="M122.2,695.3c107.4,0,214.7,0,322,0V922.6c-107.3,-9.4,-214.6,-9.4,-322,0Z" class="g3_43"/>
<path d="M122.9,695.9c106.9,0,213.8,0,320.7,0v226c-106.9,-9.3,-213.8,-9.3,-320.7,0Z" class="g4_43"/>
<path d="M123.5,696.5c106.5,0,213,0,319.5,0V921.3C336.5,912,230,912,123.5,921.3Z" class="g5_43"/>
<path d="M124.1,697.2c106.1,0,212.2,0,318.3,0V920.7c-106.1,-9.4,-212.2,-9.4,-318.3,0Z" class="g6_43"/>
<path d="M124.7,697.8c105.7,0,211.4,0,317,0V920.1c-105.6,-9.4,-211.3,-9.4,-317,0Z" class="g7_43"/>
<path d="M125.4,698.4c105.2,0,210.5,0,315.7,0v221c-105.2,-9.3,-210.5,-9.3,-315.7,0Z" class="g7_43"/>
<path d="M126,699c104.8,0,209.7,0,314.5,0V918.8c-104.8,-9.3,-209.7,-9.3,-314.5,0Z" class="g6_43"/>
<path d="M126.6,699.6c104.4,0,208.8,0,313.3,0V918.2c-104.5,-9.4,-208.9,-9.4,-313.3,0Z" class="g5_43"/>
<path d="M127.2,700.3c104,0,208,0,312,0V917.6c-104,-9.4,-208,-9.4,-312,0Z" class="g4_43"/>
<path d="M127.9,700.9c103.5,0,207.1,0,310.7,0v216c-103.6,-9.3,-207.2,-9.3,-310.7,0Z" class="g3_43"/>
<path d="M116.9,912.3V690H449.5V912.3Z" class="g8_43"/>
<path d="M119.5,909.7v-181H446.9v181Z" class="g8_43"/>
<path d="M119.5,726.1V692.6H446.9v33.5Z" class="g9_43"/>
<g clip-path="url(#c0_43)">
<image x="119" y="692" width="329" height="34" xlink:href="shade/1.png"/>
</g>
<path d="M316.9,720.9h104V697.8h-104v23.1Z" class="ga_43"/>
<path d="M231.5,773.9H335M231.8,803.5V774.3" class="g0_43"/>
<path d="M232.2,803.5h41.1V774.3H232.2v29.2Z" class="gb_43"/>
<path d="M273.6,803.5V774.3" class="g0_43"/>
<path d="M274,803.5h60.3V774.3H274v29.2Z" class="gb_43"/>
<path d="M334.6,803.5V774.3M231.5,803.8H335M231.8,833.4V804.2m41.8,29.2V804.2m61,29.2V804.2M231.5,833.8H335M231.8,863.4V834.2m41.8,29.2V834.2m61,29.2V834.2M231.5,863.8H335M231.8,893.3V864.1m41.8,29.2V864.1m61,29.2V864.1M231.5,893.7H335" class="g0_43"/>
<path d="M122.2,932.2c221.7,0,443.4,0,665,0v204.1c-221.6,-9.3,-443.3,-9.3,-665,0Z" class="g3_43"/>
<path d="M122.9,932.8c221.2,0,442.4,0,663.7,0v202.9c-221.3,-9.4,-442.5,-9.4,-663.7,0Z" class="g4_43"/>
<path d="M123.5,933.4c220.8,0,441.6,0,662.5,0v201.7c-220.9,-9.4,-441.7,-9.4,-662.5,0Z" class="g5_43"/>
<path d="M124.1,934c220.4,0,440.8,0,661.2,0v200.4c-220.4,-9.3,-440.8,-9.3,-661.2,0Z" class="g6_43"/>
<path d="M124.7,934.7c220,0,440,0,660,0v199.1c-220,-9.3,-440,-9.3,-660,0Z" class="g7_43"/>
<path d="M125.4,935.3c219.5,0,439.1,0,658.7,0v197.9c-219.6,-9.4,-439.2,-9.4,-658.7,0Z" class="g7_43"/>
<path d="M126,935.9c219.1,0,438.3,0,657.5,0v196.7c-219.2,-9.4,-438.4,-9.4,-657.5,0Z" class="g6_43"/>
<path d="M126.6,936.5c218.8,0,437.5,0,656.3,0v195.4c-218.8,-9.3,-437.5,-9.3,-656.3,0Z" class="g5_43"/>
<path d="M127.2,937.2c218.4,0,436.7,0,655,0v194.1c-218.3,-9.3,-436.6,-9.3,-655,0Z" class="g4_43"/>
<path d="M127.9,937.8c217.9,0,435.8,0,653.7,0v192.9c-217.9,-9.4,-435.8,-9.4,-653.7,0Z" class="g3_43"/>
<path d="M116.9,1126V926.9H792.5V1126Z" class="g8_43"/>
<path d="M119.5,1123.4V955.2H789.9v168.2Z" class="g8_43"/>
<path d="M119.5,952.6V929.5H789.9v23.1Z" class="g9_43"/>
<g clip-path="url(#c1_43)">
<image x="119" y="929" width="672" height="23" xlink:href="shade/2.png"/>
</g>
<path d="M403,987.6H506.5m-103.2,29.6V988" class="g0_43"/>
<path d="M403.7,1017.2h41.1V988H403.7v29.2Z" class="gb_43"/>
<path d="M445.1,1017.2V988" class="g0_43"/>
<path d="M445.5,1017.2h60.3V988H445.5v29.2Z" class="gb_43"/>
<path d="M506.1,1017.2V988M403,1017.6H506.5m-103.2,29.6V1018m41.8,29.2V1018m61,29.2V1018M403,1047.6H506.5m-103.2,29.5v-29.2m41.8,29.2v-29.2m61,29.2v-29.2M403,1077.5H506.5m-103.2,29.6v-29.2m41.8,29.2v-29.2m61,29.2v-29.2M403,1107.5H506.5" class="g0_43"/>
</svg>