<?xml version="1.0" encoding="UTF-8" standalone="no"?>
<!DOCTYPE svg PUBLIC "-//W3C//DTD SVG 1.1//EN"
"http://www.w3.org/Graphics/SVG/1.1/DTD/svg11.dtd">
<svg viewBox="0 0 909 1286" version="1.1" xmlns="http://www.w3.org/2000/svg" xmlns:xlink="http://www.w3.org/1999/xlink">
<defs>
<style type="text/css"><![CDATA[
.g0_15{
fill: none;
stroke: #000000;
stroke-width: 0.73;
stroke-linecap: butt;
stroke-linejoin: miter;
}
.g1_15{
fill: none;
stroke: #F81693;
stroke-width: 0.73;
stroke-linecap: butt;
stroke-linejoin: miter;
}
.g2_15{
fill: none;
stroke: #02B5EE;
stroke-width: 0.73;
stroke-linecap: butt;
stroke-linejoin: miter;
}
.g3_15{
fill: none;
stroke: #02B5EE;
stroke-width: 1.461;
stroke-linecap: butt;
stroke-linejoin: miter;
}
.g4_15{
fill: #FFFFFF;
}
.g5_15{
fill: #FDE8E9;
}
]]></style>
</defs>
<path d="M116.9,179.9H674.1M307.3,209.5V180.3m-136.5,87l31.3,18.6m0,36.7V286.1m-24.9,51.5l25.2,-15m-38,15l-25.2,-15m.4,0V286.1m31.2,-18.8l-31.2,18.6M171.9,275l23,13.7m-17.7,40.7l18.3,-11m-49.9,-.5v-27m87.7,-23.6l24.8,14.8M233.3,267.3l-31.2,18.6m29,-18.6V241.7m4.4,25.6V241.7m71.8,118.1V209.5" class="g0_15"/>
<path d="M401.4,260.4l24.8,14.8m6.4,33.3V288.4m-24.8,42.4l18.2,-11m-31,11l-25.2,-15m.3,0V279.3m31.3,-18.9l-31.3,18.7m32.4,-11l18.2,11m-12.9,44.5L426,312.7M376.2,311V284" class="g1_15"/>
<path d="M463.8,260.4l24.9,14.8M463.8,260.4L439,275.2m22.7,-14.8V234.9m4.3,25.5V234.9" class="g2_15"/>
<path d="M307.3,389V359.8m0,58.5V389" class="g0_15"/>
<path d="M443,416.8c1.4,0,2.1,-2.7,3.4,-2.7c1,0,1.9,1.3,2.8,2.7c.9,1.4,1.7,2.7,2.7,2.7c1,0,1.9,-1.3,2.7,-2.7c.9,-1.4,1.8,-2.7,2.8,-2.7c1.4,0,2,2.7,3.4,2.7h3.9" class="g3_15"/>
<path d="M307.3,447.5V418.3m0,105.7V447.5" class="g0_15"/>
<path d="M384.9,516.2V455.3c0,-2.9,2.3,-5.2,5.2,-5.2H588.5c2.9,0,5.2,2.3,5.2,5.2v60.9c0,2.9,-2.3,5.2,-5.2,5.2H390.1c-2.9,0,-5.2,-2.3,-5.2,-5.2Z" class="g4_15"/>
<path d="M452.9,544.7h72.8V530.5H452.9v14.2Z" class="g5_15"/>
<path d="M410.9,505.8H567.7V465.7H410.9v40.1Z" class="g5_15"/>
<path d="M307.3,553.2V524M116.9,553.6H674.1M307.3,583.2V554M146,626.1l14.4,-23.9m0,0h36.5m18.9,31.2L196.9,602.2m18.9,31.2l-18.9,31.2m-36.5,0h36.5M146,640.7l14.4,23.9m4.8,-56.4h27m15.9,26.3l-14.3,23.8M152,640l11.3,18.8m52.5,-25.4h36.5m14.4,23.9L252.3,633.4m1.3,.6l13.1,-22m-17.9,20.9l13.2,-22m45.3,72.4V583.2" class="g0_15"/>
<path d="M376.5,626.1l11.4,-18.8m10.4,-5.1h21.9m21.7,23.9L430.6,607.3m11.3,33.4l-14.4,23.9m-36.5,0h36.5m-51,-23.9L391,664.6m7.3,-56.4h20.1M435.9,640l-11.3,18.8M382.6,640l11.3,18.8" class="g1_15"/>
<path d="M446.3,633.4h36.5m14.5,23.9L482.8,633.4m1.3,.6l13.2,-22m-17.9,20.9l13.1,-22" class="g2_15"/>
<path d="M307.3,712.5V683.3m0,58.4V712.5" class="g0_15"/>
<path d="M443,740.3c1.4,0,2.1,-2.8,3.4,-2.8c1,0,1.9,1.4,2.8,2.8c.9,1.4,1.7,2.7,2.7,2.7c1,0,1.9,-1.3,2.7,-2.7c.9,-1.4,1.8,-2.8,2.8,-2.8c1.4,0,2,2.8,3.4,2.8h3.9" class="g3_15"/>
<path d="M307.3,770.9V741.7m0,105.8V770.9" class="g0_15"/>
<path d="M384.9,839.7v-61c0,-2.8,2.3,-5.2,5.2,-5.2H646.9c2.9,0,5.2,2.4,5.2,5.2v61c0,2.8,-2.3,5.2,-5.2,5.2H390.1c-2.9,0,-5.2,-2.4,-5.2,-5.2Z" class="g4_15"/>
<path d="M475,868.2h87V853.9H475v14.3Z" class="g5_15"/>
<path d="M410.9,829.3H626.1V789.1H410.9v40.2Z" class="g5_15"/>
<path d="M307.3,876.7V847.5M116.9,877.1H674.1" class="g0_15"/>
</svg>