<?xml version="1.0" encoding="UTF-8" standalone="no"?>
<!DOCTYPE svg PUBLIC "-//W3C//DTD SVG 1.1//EN"
"http://www.w3.org/Graphics/SVG/1.1/DTD/svg11.dtd">
<svg viewBox="0 0 909 1286" version="1.1" xmlns="http://www.w3.org/2000/svg" xmlns:xlink="http://www.w3.org/1999/xlink">
<defs>
<clipPath id="c0_104"><path d="M119.5,275.8V244.7H789.9v31.1Z"/></clipPath>
<clipPath id="c1_104"><path d="M119.5,503.4V472.3H789.9v31.1Z"/></clipPath>
<style type="text/css"><![CDATA[
.g0_104{
fill: none;
stroke: #000000;
stroke-width: 0.73;
stroke-linecap: butt;
stroke-linejoin: miter;
}
.g1_104{
fill: #7F7F7F;
fill-opacity: 0.01;
}
.g2_104{
fill: #7F7F7F;
fill-opacity: 0.02;
}
.g3_104{
fill: #7F7F7F;
fill-opacity: 0.04;
}
.g4_104{
fill: #7F7F7F;
fill-opacity: 0.07;
}
.g5_104{
fill: #7F7F7F;
fill-opacity: 0.11;
}
.g6_104{
fill: #FFFFFF;
}
.g7_104{
fill: #7F7F7F;
}
.g8_104{
fill: #00AEEF;
}
.g9_104{
fill: #CBCEFB;
}
.ga_104{
fill: #EC008C;
}
.gb_104{
fill: #FFFEF5;
}
.gc_104{
fill: none;
stroke: #D6C944;
stroke-width: 0.365;
stroke-linecap: butt;
stroke-linejoin: miter;
}
.gd_104{
fill: #E81A58;
}
.ge_104{
fill: #401A1A;
}
]]></style>
</defs>
<path d="M116.9,159.9H792.5" class="g0_104"/>
<path d="M122.2,247.4c221.7,0,443.4,0,665,0V469.9c-221.6,-9.3,-443.3,-9.3,-665,0Z" class="g1_104"/>
<path d="M122.9,248c221.2,0,442.4,0,663.7,0V469.3C565.3,460,344.1,460,122.9,469.3Z" class="g2_104"/>
<path d="M123.5,248.6c220.8,0,441.6,0,662.5,0V468.7c-220.9,-9.4,-441.7,-9.4,-662.5,0Z" class="g3_104"/>
<path d="M124.1,249.3c220.4,0,440.8,0,661.2,0V468.1c-220.4,-9.4,-440.8,-9.4,-661.2,0Z" class="g4_104"/>
<path d="M124.7,249.9c220,0,440,0,660,0V467.4c-220,-9.3,-440,-9.3,-660,0Z" class="g5_104"/>
<path d="M125.4,250.5c219.5,0,439.1,0,658.7,0V466.8c-219.6,-9.3,-439.2,-9.3,-658.7,0Z" class="g5_104"/>
<path d="M126,251.1c219.1,0,438.3,0,657.5,0V466.2c-219.2,-9.4,-438.4,-9.4,-657.5,0Z" class="g4_104"/>
<path d="M126.6,251.8c218.8,0,437.5,0,656.3,0V465.6c-218.8,-9.4,-437.5,-9.4,-656.3,0Z" class="g3_104"/>
<path d="M127.2,252.4c218.4,0,436.7,0,655,0V464.9c-218.3,-9.3,-436.6,-9.3,-655,0Z" class="g2_104"/>
<path d="M127.9,253c217.9,0,435.8,0,653.7,0V464.3C563.7,455,345.8,455,127.9,464.3Z" class="g1_104"/>
<path d="M116.9,459.6V242.1H792.5V459.6Z" class="g6_104"/>
<path d="M119.5,457V278.4H789.9V457Z" class="g6_104"/>
<path d="M119.5,275.8V244.7H789.9v31.1Z" class="g7_104"/>
<g clip-path="url(#c0_104)">
<image x="119" y="244" width="672" height="32" xlink:href="shade/1.png"/>
</g>
<path d="M678.5,270.6h85.4V249.9H678.5v20.7Z" class="g8_104"/>
<path d="M147.4,316.2H762M147.8,336.6V316.5" class="g0_104"/>
<path d="M148.1,336.6h68.5V316.5H148.1v20.1Z" class="g9_104"/>
<path d="M217,336.6V316.5" class="g0_104"/>
<path d="M217.4,336.6h52.9V316.5H217.4v20.1Z" class="g9_104"/>
<path d="M270.7,336.6V316.5" class="g0_104"/>
<path d="M271.1,336.6H324V316.5H271.1v20.1Z" class="g9_104"/>
<path d="M324.4,336.6V316.5" class="g0_104"/>
<path d="M324.7,336.6h53V316.5h-53v20.1Z" class="g9_104"/>
<path d="M378.1,336.6V316.5" class="g0_104"/>
<path d="M378.4,336.6h53V316.5h-53v20.1Z" class="g9_104"/>
<path d="M431.8,336.6V316.5" class="g0_104"/>
<path d="M432.1,336.6h53V316.5h-53v20.1Z" class="g9_104"/>
<path d="M485.4,336.6V316.5" class="g0_104"/>
<path d="M485.8,336.6h53V316.5h-53v20.1Z" class="g9_104"/>
<path d="M539.1,336.6V316.5" class="g0_104"/>
<path d="M539.5,336.6h53V316.5h-53v20.1Z" class="g9_104"/>
<path d="M592.8,336.6V316.5" class="g0_104"/>
<path d="M593.2,336.6h53V316.5h-53v20.1Z" class="g9_104"/>
<path d="M646.5,336.6V316.5" class="g0_104"/>
<path d="M646.9,336.6h52.9V316.5H646.9v20.1Z" class="g9_104"/>
<path d="M700.2,336.6V316.5" class="g0_104"/>
<path d="M700.6,336.6h60.7V316.5H700.6v20.1Z" class="g9_104"/>
<path d="M761.7,336.6V316.5M147.4,337H762M147.8,357.4V337.3M217,357.4V337.3m53.7,20.1V337.3m53.7,20.1V337.3m53.7,20.1V337.3m53.7,20.1V337.3m53.6,20.1V337.3m53.7,20.1V337.3m53.7,20.1V337.3m53.7,20.1V337.3m53.7,20.1V337.3m61.5,20.1V337.3M147.4,357.8H762M147.8,378.3V358.2M217,378.3V358.2m53.7,20.1V358.2m53.7,20.1V358.2m53.7,20.1V358.2m53.7,20.1V358.2m53.6,20.1V358.2m53.7,20.1V358.2m53.7,20.1V358.2m53.7,20.1V358.2m53.7,20.1V358.2m61.5,20.1V358.2M147.4,378.6H762M147.8,399.1V379M217,399.1V379m53.7,20.1V379m53.7,20.1V379m53.7,20.1V379m53.7,20.1V379m53.6,20.1V379m53.7,20.1V379m53.7,20.1V379m53.7,20.1V379m53.7,20.1V379m61.5,20.1V379M147.4,399.4H762M147.8,419.9V399.8M217,419.9V399.8m53.7,20.1V399.8m53.7,20.1V399.8m53.7,20.1V399.8m53.7,20.1V399.8m53.6,20.1V399.8m53.7,20.1V399.8m53.7,20.1V399.8m53.7,20.1V399.8m53.7,20.1V399.8m61.5,20.1V399.8M147.4,420.3H762M147.8,440.7V420.6M217,440.7V420.6m53.7,20.1V420.6m53.7,20.1V420.6m53.7,20.1V420.6m53.7,20.1V420.6m53.6,20.1V420.6m53.7,20.1V420.6m53.7,20.1V420.6m53.7,20.1V420.6m53.7,20.1V420.6m61.5,20.1V420.6M147.4,441.1H762" class="g0_104"/>
<path d="M122.2,475c221.7,0,443.4,0,665,0V613.2c-221.6,-9.3,-443.3,-9.3,-665,0Z" class="g1_104"/>
<path d="M122.9,475.6c221.2,0,442.4,0,663.7,0v137c-221.3,-9.3,-442.5,-9.3,-663.7,0Z" class="g2_104"/>
<path d="M123.5,476.2c220.8,0,441.6,0,662.5,0V612c-220.9,-9.4,-441.7,-9.4,-662.5,0Z" class="g3_104"/>
<path d="M124.1,476.9c220.4,0,440.8,0,661.2,0V611.4C564.9,602,344.5,602,124.1,611.4Z" class="g4_104"/>
<path d="M124.7,477.5c220,0,440,0,660,0V610.7c-220,-9.3,-440,-9.3,-660,0Z" class="g5_104"/>
<path d="M125.4,478.1c219.5,0,439.1,0,658.7,0v132c-219.6,-9.3,-439.2,-9.3,-658.7,0Z" class="g5_104"/>
<path d="M126,478.7c219.1,0,438.3,0,657.5,0V609.5c-219.2,-9.4,-438.4,-9.4,-657.5,0Z" class="g4_104"/>
<path d="M126.6,479.4c218.8,0,437.5,0,656.3,0V608.9c-218.8,-9.4,-437.5,-9.4,-656.3,0Z" class="g3_104"/>
<path d="M127.2,480c218.4,0,436.7,0,655,0V608.3c-218.3,-9.4,-436.6,-9.4,-655,0Z" class="g2_104"/>
<path d="M127.9,480.6c217.9,0,435.8,0,653.7,0v127c-217.9,-9.3,-435.8,-9.3,-653.7,0Z" class="g1_104"/>
<path d="M116.9,603V469.7H792.5V603Z" class="g6_104"/>
<path d="M119.5,600.4V506H789.9v94.4Z" class="g6_104"/>
<path d="M119.5,503.4V472.3H789.9v31.1Z" class="g7_104"/>
<g clip-path="url(#c1_104)">
<image x="119" y="471" width="672" height="32" xlink:href="shade/2.png"/>
</g>
<path d="M691.2,498.2h72.7V477.5H691.2v20.7Z" class="ga_104"/>
<path d="M147.4,521.9H762M147.8,542.4V522.3" class="g0_104"/>
<path d="M148.1,542.4h68.5V522.3H148.1v20.1Z" class="g9_104"/>
<path d="M217,542.4V522.3" class="g0_104"/>
<path d="M217.4,542.4h52.9V522.3H217.4v20.1Z" class="g9_104"/>
<path d="M270.7,542.4V522.3" class="g0_104"/>
<path d="M271.1,542.4H324V522.3H271.1v20.1Z" class="g9_104"/>
<path d="M324.4,542.4V522.3" class="g0_104"/>
<path d="M324.7,542.4h53V522.3h-53v20.1Z" class="g9_104"/>
<path d="M378.1,542.4V522.3" class="g0_104"/>
<path d="M378.4,542.4h53V522.3h-53v20.1Z" class="g9_104"/>
<path d="M431.8,542.4V522.3" class="g0_104"/>
<path d="M432.1,542.4h53V522.3h-53v20.1Z" class="g9_104"/>
<path d="M485.4,542.4V522.3" class="g0_104"/>
<path d="M485.8,542.4h53V522.3h-53v20.1Z" class="g9_104"/>
<path d="M539.1,542.4V522.3" class="g0_104"/>
<path d="M539.5,542.4h53V522.3h-53v20.1Z" class="g9_104"/>
<path d="M592.8,542.4V522.3" class="g0_104"/>
<path d="M593.2,542.4h53V522.3h-53v20.1Z" class="g9_104"/>
<path d="M646.5,542.4V522.3" class="g0_104"/>
<path d="M646.9,542.4h52.9V522.3H646.9v20.1Z" class="g9_104"/>
<path d="M700.2,542.4V522.3" class="g0_104"/>
<path d="M700.6,542.4h60.7V522.3H700.6v20.1Z" class="g9_104"/>
<path d="M761.7,542.4V522.3M147.4,542.8H762M147.8,563.2V543.1M217,563.2V543.1m53.7,20.1V543.1m53.7,20.1V543.1m53.7,20.1V543.1m53.7,20.1V543.1m53.6,20.1V543.1m53.7,20.1V543.1m53.7,20.1V543.1m53.7,20.1V543.1m53.7,20.1V543.1m61.5,20.1V543.1M147.4,563.6H762M147.8,584V563.9M217,584V563.9M270.7,584V563.9M324.4,584V563.9M378.1,584V563.9M431.8,584V563.9M485.4,584V563.9M539.1,584V563.9M592.8,584V563.9M646.5,584V563.9M700.2,584V563.9M761.7,584V563.9M147.4,584.4H762" class="g0_104"/>
<path d="M-2.9,836.5V771H912.4v65.5Z" class="g6_104"/>
<path d="M-.3,833.9V773.6H909.8v60.3Z" class="gb_104"/>
<path d="M-.3,825.6H909.8M-.3,799.6H909.8M-.3,773.6H909.8M-.3,833.9V773.6m25.9,60.3V773.6m26,60.3V773.6m26,60.3V773.6m26,60.3V773.6m26,60.3V773.6m25.9,60.3V773.6m26,60.3V773.6m26,60.3V773.6m26,60.3V773.6m26,60.3V773.6m26,60.3V773.6m25.9,60.3V773.6m26,60.3V773.6m26,60.3V773.6m26,60.3V773.6m26,60.3V773.6m26,60.3V773.6m26,60.3V773.6m25.9,60.3V773.6m26,60.3V773.6m26,60.3V773.6m26,60.3V773.6m26,60.3V773.6m26,60.3V773.6m25.9,60.3V773.6m26,60.3V773.6m26,60.3V773.6m26,60.3V773.6m26,60.3V773.6m26,60.3V773.6m25.9,60.3V773.6m26,60.3V773.6m26,60.3V773.6m26,60.3V773.6m26,60.3V773.6" class="gc_104"/>
<path d="M116.9,1136.5V904.8c0,-21.6,17.6,-39.1,39.2,-39.1H792.5v270.8Z" class="gd_104"/>
<path d="M119.5,1136.5V898.2H789.9v238.3Z" class="ge_104"/>
</svg>