<?xml version="1.0" encoding="UTF-8" standalone="no"?>
<!DOCTYPE svg PUBLIC "-//W3C//DTD SVG 1.1//EN"
"http://www.w3.org/Graphics/SVG/1.1/DTD/svg11.dtd">
<svg viewBox="0 0 1286 909" version="1.1" xmlns="http://www.w3.org/2000/svg" xmlns:xlink="http://www.w3.org/1999/xlink">
<defs>
<style type="text/css"><![CDATA[
.g0_76{
fill: none;
stroke: #000000;
stroke-width: 0.73;
stroke-linecap: butt;
stroke-linejoin: miter;
}
.g1_76{
fill: none;
stroke: #02B5EE;
stroke-width: 1.262;
stroke-linecap: butt;
stroke-linejoin: miter;
}
.g2_76{
fill: none;
stroke: #02B5EE;
stroke-width: 0.73;
stroke-linecap: butt;
stroke-linejoin: miter;
}
]]></style>
</defs>
<path d="M193,83.4h900.3M193,210.6H812.7m-619.7,0H812.7M430.3,240.2V211m0,58.5V240.2m0,114.3v-85" class="g0_76"/>
<path d="M441.3,330.5H670.8" class="g1_76"/>
<path d="M430.3,383.7V354.5m0,102.3V383.7" class="g0_76"/>
<path d="M649.8,442.9h152" class="g2_76"/>
<path d="M430.3,486V456.8m0,102.2V486" class="g0_76"/>
<path d="M649.8,545.2h152" class="g2_76"/>
<path d="M430.3,588.3V559m0,58.5V588.3m0,114.2v-85" class="g0_76"/>
<path d="M479.1,678.5H670.8" class="g1_76"/>
<path d="M430.3,731.7V702.5m0,58.5V731.7M193,761.3H812.7m-619.7,0H812.7" class="g0_76"/>
</svg>