<?xml version="1.0" encoding="UTF-8" standalone="no"?>
<!DOCTYPE svg PUBLIC "-//W3C//DTD SVG 1.1//EN"
"http://www.w3.org/Graphics/SVG/1.1/DTD/svg11.dtd">
<svg viewBox="0 0 909 1286" version="1.1" xmlns="http://www.w3.org/2000/svg" xmlns:xlink="http://www.w3.org/1999/xlink">
<defs>
<style type="text/css"><![CDATA[
.g0_14{
fill: none;
stroke: #000000;
stroke-width: 0.73;
stroke-linecap: butt;
stroke-linejoin: miter;
}
.g1_14{
fill: none;
stroke: #F81693;
stroke-width: 0.73;
stroke-linecap: butt;
stroke-linejoin: miter;
}
.g2_14{
fill: none;
stroke: #02B5EE;
stroke-width: 0.73;
stroke-linecap: butt;
stroke-linejoin: miter;
}
.g3_14{
fill: none;
stroke: #02B5EE;
stroke-width: 1.461;
stroke-linecap: butt;
stroke-linejoin: miter;
}
.g4_14{
fill: #FFFFFF;
}
.g5_14{
fill: #FDE8E9;
}
]]></style>
</defs>
<path d="M116.9,179.9H760.2M307.3,209.5V180.3m-130.1,84l24.9,14.8m0,36.7V279.3m-62.5,36.5h62.5m-62.5,0V279.3m24.8,-15l-24.8,14.8M196,311V284m-50.4,27V284m87.7,-23.6l24.8,14.8M233.3,260.4l-31.2,18.7m29,-18.7V234.9m4.4,25.5V234.9m71.8,92.9V209.5" class="g0_14"/>
<path d="M407.8,264.3L426,275.2m6.6,40.6V288.4m-62.5,27.4h62.5m-62.5,0V279.3m24.9,-15l-24.9,14.8M426.6,311V286.6M376.2,311V284" class="g1_14"/>
<path d="M463.8,260.4l24.9,14.8M463.8,260.4L439,275.2m22.7,-14.8V234.9m4.3,25.5V234.9" class="g2_14"/>
<path d="M307.3,357.1V327.8m0,58.5V357.1m0,58.4V386.3m0,58.4V415.5" class="g0_14"/>
<path d="M409.4,443.3c1.4,0,2.1,-2.8,3.5,-2.8c1,0,1.8,1.4,2.7,2.8c.9,1.4,1.8,2.7,2.7,2.7c1,0,1.9,-1.3,2.8,-2.7c.9,-1.4,1.7,-2.8,2.7,-2.8c1.4,0,2.1,2.8,3.4,2.8h3.9" class="g3_14"/>
<path d="M307.3,474V444.7m0,105.8V474" class="g0_14"/>
<path d="M384.9,542.7V481.8c0,-2.9,2.3,-5.2,5.2,-5.2H556.2c2.9,0,5.2,2.3,5.2,5.2v60.9c0,2.9,-2.3,5.2,-5.2,5.2H390.1c-2.9,0,-5.2,-2.3,-5.2,-5.2Z" class="g4_14"/>
<path d="M438.5,571.2h69.3V556.9H438.5v14.3Z" class="g5_14"/>
<path d="M410.9,532.3H535.4V492.2H410.9v40.1Z" class="g5_14"/>
<path d="M307.3,579.7V550.5M116.9,580.1H760.2M307.3,609.7V580.4M177.2,664.5l24.9,14.8m0,36.7V679.4M139.6,716h62.5m-62.5,0V679.4m24.8,-14.9l-24.8,14.8M196,711.2v-27m-50.4,27v-27m87.7,-23.6l24.8,14.8M233.3,660.6l-31.2,18.7m29,-18.7V635.1m4.4,25.5V635.1M307.3,728V609.7" class="g0_14"/>
<path d="M407.8,664.5L426,675.4m6.6,40.6V688.6M370.1,716h62.5m-62.5,0V679.4M395,664.5l-24.9,14.8m56.5,31.9V686.7m-50.4,24.5v-27" class="g1_14"/>
<path d="M463.8,660.6l24.9,14.8M463.8,660.6L439,675.4m22.7,-14.8V635.1m4.3,25.5V635.1" class="g2_14"/>
<path d="M307.3,757.2V728m0,58.5V757.2" class="g0_14"/>
<path d="M450.5,785c1.4,0,2.1,-2.7,3.4,-2.7c1,0,1.9,1.3,2.8,2.7c.9,1.4,1.7,2.7,2.7,2.7c1,0,1.8,-1.3,2.7,-2.7c.9,-1.4,1.8,-2.7,2.8,-2.7c1.3,0,2,2.7,3.4,2.7h3.9" class="g3_14"/>
<path d="M307.3,815.7V786.5m0,105.7V815.7" class="g0_14"/>
<path d="M384.9,884.4V823.5c0,-2.9,2.3,-5.2,5.2,-5.2H530.2c2.8,0,5.2,2.3,5.2,5.2v60.9c0,2.9,-2.4,5.2,-5.2,5.2H390.1c-2.9,0,-5.2,-2.3,-5.2,-5.2Z" class="g4_14"/>
<path d="M426.4,912.9h67.4V898.7H426.4v14.2Z" class="g5_14"/>
<path d="M410.9,874h98.5V833.9H410.9V874Z" class="g5_14"/>
<path d="M307.3,921.4V892.2M116.9,921.8H760.2" class="g0_14"/>
</svg>