<?xml version="1.0" encoding="UTF-8" standalone="no"?>
<!DOCTYPE svg PUBLIC "-//W3C//DTD SVG 1.1//EN"
"http://www.w3.org/Graphics/SVG/1.1/DTD/svg11.dtd">
<svg viewBox="0 0 1286 909" version="1.1" xmlns="http://www.w3.org/2000/svg" xmlns:xlink="http://www.w3.org/1999/xlink">
<defs>
<style type="text/css"><![CDATA[
.g0_829{
fill: none;
stroke: #000000;
stroke-width: 0.73;
stroke-linecap: butt;
stroke-linejoin: miter;
}
.g1_829{
fill: none;
stroke: #02B5EE;
stroke-width: 1.262;
stroke-linecap: butt;
stroke-linejoin: miter;
}
.g2_829{
fill: none;
stroke: #02B5EE;
stroke-width: 0.73;
stroke-linecap: butt;
stroke-linejoin: miter;
}
.g3_829{
fill: none;
stroke: #FFA313;
stroke-width: 1.262;
stroke-linecap: butt;
stroke-linejoin: miter;
}
.g4_829{
fill: none;
stroke: #FFA313;
stroke-width: 0.73;
stroke-linecap: butt;
stroke-linejoin: miter;
}
]]></style>
</defs>
<path d="M193,83.4h900.3M193,210.6H758m-565,0H758M430.3,240.2V211m0,58.5V240.2m0,114.3v-85" class="g0_829"/>
<path d="M493.2,330.5H608.3" class="g1_829"/>
<path d="M430.3,383.7V354.5m0,102.3V383.7" class="g0_829"/>
<path d="M628.8,442.9H747" class="g2_829"/>
<path d="M430.3,486V456.8m0,58.4V486m0,114.2v-85" class="g0_829"/>
<path d="M481.9,576.2h34.7" class="g1_829"/>
<path d="M527.1,576.2H747" class="g3_829"/>
<path d="M430.3,630.4V600.2m0,103.3V630.4" class="g0_829"/>
<path d="M512.3,689.6H707.2" class="g4_829"/>
<path d="M713.2,689.6H747" class="g2_829"/>
<path d="M430.3,732.7V703.5M193,733.1H758m-565,0H758" class="g0_829"/>
</svg>