<?xml version="1.0" encoding="UTF-8" standalone="no"?>
<!DOCTYPE svg PUBLIC "-//W3C//DTD SVG 1.1//EN"
"http://www.w3.org/Graphics/SVG/1.1/DTD/svg11.dtd">
<svg viewBox="0 0 1286 909" version="1.1" xmlns="http://www.w3.org/2000/svg" xmlns:xlink="http://www.w3.org/1999/xlink">
<defs>
<style type="text/css"><![CDATA[
.g0_392{
fill: none;
stroke: #000000;
stroke-width: 0.73;
stroke-linecap: butt;
stroke-linejoin: miter;
}
.g1_392{
fill: none;
stroke: #02B5EE;
stroke-width: 1.262;
stroke-linecap: butt;
stroke-linejoin: miter;
}
.g2_392{
fill: #FFCCCC;
}
.g3_392{
fill: none;
stroke: #02B5EE;
stroke-width: 0.73;
stroke-linecap: butt;
stroke-linejoin: miter;
}
.g4_392{
fill: none;
stroke: #5EE200;
stroke-width: 1.262;
stroke-linecap: butt;
stroke-linejoin: miter;
}
.g5_392{
fill: none;
stroke: #5EE200;
stroke-width: 0.73;
stroke-linecap: butt;
stroke-linejoin: miter;
}
]]></style>
</defs>
<path d="M193,83.4h900.3M193,210.6H666.6m-473.6,0H666.6M384.4,240.2V211m0,58.5V240.2m0,114.3v-85" class="g0_392"/>
<path d="M428.8,330.5h104" class="g1_392"/>
<path d="M553.8,318.8H655.6V285.9H553.8v32.9Z" class="g2_392"/>
<path d="M384.4,383.7V354.5m0,102.3V383.7" class="g0_392"/>
<path d="M395.4,433H588V400.1H395.4V433Z" class="g2_392"/>
<path d="M588,442.9h67.6" class="g3_392"/>
<path d="M384.4,486V456.8m0,58.4V486m0,114.2v-85" class="g0_392"/>
<path d="M464.8,576.2H622.6" class="g1_392"/>
<path d="M633.2,576.2h22.4" class="g4_392"/>
<path d="M384.4,629.5V600.2m0,102.3v-73" class="g0_392"/>
<path d="M469.1,688.6h34.5" class="g5_392"/>
<path d="M503.6,688.6h152" class="g3_392"/>
<path d="M384.4,731.7V702.5m0,58.5V731.7M193,761.3H666.6m-473.6,0H666.6" class="g0_392"/>
</svg>