<?xml version="1.0" encoding="UTF-8" standalone="no"?>
<!DOCTYPE svg PUBLIC "-//W3C//DTD SVG 1.1//EN"
"http://www.w3.org/Graphics/SVG/1.1/DTD/svg11.dtd">
<svg viewBox="0 0 1286 909" version="1.1" xmlns="http://www.w3.org/2000/svg" xmlns:xlink="http://www.w3.org/1999/xlink">
<defs>
<style type="text/css"><![CDATA[
.g0_811{
fill: none;
stroke: #000000;
stroke-width: 0.73;
stroke-linecap: butt;
stroke-linejoin: miter;
}
.g1_811{
fill: none;
stroke: #02B5EE;
stroke-width: 1.262;
stroke-linecap: butt;
stroke-linejoin: miter;
}
.g2_811{
fill: none;
stroke: #5EE200;
stroke-width: 1.262;
stroke-linecap: butt;
stroke-linejoin: miter;
}
.g3_811{
fill: none;
stroke: #5EE200;
stroke-width: 0.73;
stroke-linecap: butt;
stroke-linejoin: miter;
}
.g4_811{
fill: none;
stroke: #02B5EE;
stroke-width: 0.73;
stroke-linecap: butt;
stroke-linejoin: miter;
}
]]></style>
</defs>
<path d="M193,83.4h900.3M193,210.6H987.6m-794.6,0H987.6m-511,29.6V211m0,58.5V240.2m0,114.3v-85" class="g0_811"/>
<path d="M487.6,330.5h81" class="g1_811"/>
<path d="M579.1,330.5H976.6" class="g2_811"/>
<path d="M476.6,383.7V354.5m0,102.3V383.7" class="g0_811"/>
<path d="M785.7,442.9H919.9" class="g3_811"/>
<path d="M925.9,442.9h50.7" class="g4_811"/>
<path d="M476.6,486V456.8m0,58.4V486m0,114.2v-85" class="g0_811"/>
<path d="M798.8,576.2h79.5" class="g1_811"/>
<path d="M888.8,576.2h87.8" class="g2_811"/>
<path d="M476.6,629.5V600.2M193,629.8H987.6m-794.6,0H987.6" class="g0_811"/>
</svg>