<?xml version="1.0" encoding="UTF-8" standalone="no"?>
<!DOCTYPE svg PUBLIC "-//W3C//DTD SVG 1.1//EN"
"http://www.w3.org/Graphics/SVG/1.1/DTD/svg11.dtd">
<svg viewBox="0 0 1286 909" version="1.1" xmlns="http://www.w3.org/2000/svg" xmlns:xlink="http://www.w3.org/1999/xlink">
<defs>
<style type="text/css"><![CDATA[
.g0_893{
fill: none;
stroke: #000000;
stroke-width: 0.73;
stroke-linecap: butt;
stroke-linejoin: miter;
}
.g1_893{
fill: none;
stroke: #02B5EE;
stroke-width: 1.262;
stroke-linecap: butt;
stroke-linejoin: miter;
}
.g2_893{
fill: none;
stroke: #02B5EE;
stroke-width: 0.73;
stroke-linecap: butt;
stroke-linejoin: miter;
}
.g3_893{
fill: none;
stroke: #5EE200;
stroke-width: 0.73;
stroke-linecap: butt;
stroke-linejoin: miter;
}
]]></style>
</defs>
<path d="M193,83.4h900.3M193,210.6H901.9m-708.9,0H901.9M407,240.2V211m0,58.5V240.2m0,114.3v-85" class="g0_893"/>
<path d="M619.6,330.5h81" class="g1_893"/>
<path d="M407,383.7V354.5m0,102.3V383.7" class="g0_893"/>
<path d="M857.1,442.9h33.8" class="g2_893"/>
<path d="M407,486V456.8m0,58.4V486m0,114.2v-85" class="g0_893"/>
<path d="M563.4,576.2h61.5" class="g1_893"/>
<path d="M407,629.5V600.2m0,102.3v-73" class="g0_893"/>
<path d="M601.5,688.6H637" class="g2_893"/>
<path d="M643.1,688.6h60.1" class="g3_893"/>
<path d="M407,731.7V702.5M193,732.1H901.9m-708.9,0H901.9" class="g0_893"/>
</svg>