<?xml version="1.0" encoding="UTF-8" standalone="no"?>
<!DOCTYPE svg PUBLIC "-//W3C//DTD SVG 1.1//EN"
"http://www.w3.org/Graphics/SVG/1.1/DTD/svg11.dtd">
<svg viewBox="0 0 1286 909" version="1.1" xmlns="http://www.w3.org/2000/svg" xmlns:xlink="http://www.w3.org/1999/xlink">
<defs>
<style type="text/css"><![CDATA[
.g0_419{
fill: none;
stroke: #000000;
stroke-width: 0.73;
stroke-linecap: butt;
stroke-linejoin: miter;
}
.g1_419{
fill: none;
stroke: #02B5EE;
stroke-width: 1.262;
stroke-linecap: butt;
stroke-linejoin: miter;
}
.g2_419{
fill: none;
stroke: #5EE200;
stroke-width: 1.262;
stroke-linecap: butt;
stroke-linejoin: miter;
}
.g3_419{
fill: none;
stroke: #5EE200;
stroke-width: 0.73;
stroke-linecap: butt;
stroke-linejoin: miter;
}
.g4_419{
fill: none;
stroke: #02B5EE;
stroke-width: 0.73;
stroke-linecap: butt;
stroke-linejoin: miter;
}
]]></style>
</defs>
<path d="M193,83.4h900.3M193,210.6H849.1m-656.1,0H849.1M553,240.2V211m0,58.5V240.2m0,114.3v-85" class="g0_419"/>
<path d="M656.8,330.5h83" class="g1_419"/>
<path d="M750.3,330.5h87.8" class="g2_419"/>
<path d="M553,383.7V354.5m0,102.3V383.7" class="g0_419"/>
<path d="M704,442.9h66.6" class="g3_419"/>
<path d="M770.6,442.9h67.5" class="g4_419"/>
<path d="M193,457.1H849.1m-656.1,0H849.1M553,486.7V457.5m0,114.2v-85" class="g0_419"/>
<path d="M563.9,547.8h61.3" class="g1_419"/>
<path d="M750.3,547.8h87.8" class="g2_419"/>
<path d="M553,601V571.7M553,674V601" class="g0_419"/>
<path d="M585.7,660.1h66.6" class="g3_419"/>
<path d="M719.9,660.1H838.1" class="g4_419"/>
<path d="M193,674.4H849.1m-656.1,0H849.1M553,704V674.8m0,58.4V704M193,733.6H849.1m-656.1,0H849.1" class="g0_419"/>
</svg>