<?xml version="1.0" encoding="UTF-8" standalone="no"?>
<!DOCTYPE svg PUBLIC "-//W3C//DTD SVG 1.1//EN"
"http://www.w3.org/Graphics/SVG/1.1/DTD/svg11.dtd">
<svg viewBox="0 0 909 1286" version="1.1" xmlns="http://www.w3.org/2000/svg" xmlns:xlink="http://www.w3.org/1999/xlink">
<defs>
<style type="text/css"><![CDATA[
.g0_11{
fill: none;
stroke: #000000;
stroke-width: 0.73;
stroke-linecap: butt;
stroke-linejoin: miter;
}
.g1_11{
fill: #FDE8E9;
}
]]></style>
</defs>
<path d="M116.9,159.9H792.5" class="g0_11"/>
<path d="M488.5,210.3h61.6V182.5H488.5v27.8Z" class="g1_11"/>
<path d="M285.8,312.6h78.5V284.8H285.8v27.8Z" class="g1_11"/>
<path d="M370.3,716.3H482.6V688.4H370.3v27.9Z" class="g1_11"/>
<path d="M167.6,818.6H263V790.7H167.6v27.9Z" class="g1_11"/>
<path d="M488.5,848.2H685.2V820.4H488.5v27.8Z" class="g1_11"/>
<path d="M218.3,877.9h61.6V850.1H218.3v27.8Z" class="g1_11"/>
<path d="M235.2,936.4h61.6V908.5H235.2v27.9Z" class="g1_11"/>
<path d="M488.5,966H685.2V938.2H488.5V966Z" class="g1_11"/>
<path d="M329.8,1010.3H442.1V982.5H329.8v27.8Z" class="g1_11"/>
<path d="M493,1010.3h95.4V982.5H493v27.8Z" class="g1_11"/>
<path d="M459,1040H655.8v-27.9H459V1040Z" class="g1_11"/>
<path d="M287.3,1098.4h61.6v-27.8H287.3v27.8Z" class="g1_11"/>
</svg>