<?xml version="1.0" encoding="UTF-8" standalone="no"?>
<!DOCTYPE svg PUBLIC "-//W3C//DTD SVG 1.1//EN"
"http://www.w3.org/Graphics/SVG/1.1/DTD/svg11.dtd">
<svg viewBox="0 0 1286 909" version="1.1" xmlns="http://www.w3.org/2000/svg" xmlns:xlink="http://www.w3.org/1999/xlink">
<defs>
<style type="text/css"><![CDATA[
.g0_180{
fill: none;
stroke: #000000;
stroke-width: 0.73;
stroke-linecap: butt;
stroke-linejoin: miter;
}
.g1_180{
fill: none;
stroke: #02B5EE;
stroke-width: 1.262;
stroke-linecap: butt;
stroke-linejoin: miter;
}
.g2_180{
fill: none;
stroke: #5EE200;
stroke-width: 1.262;
stroke-linecap: butt;
stroke-linejoin: miter;
}
.g3_180{
fill: none;
stroke: #5EE200;
stroke-width: 0.73;
stroke-linecap: butt;
stroke-linejoin: miter;
}
.g4_180{
fill: none;
stroke: #02B5EE;
stroke-width: 0.73;
stroke-linecap: butt;
stroke-linejoin: miter;
}
]]></style>
</defs>
<path d="M193,83.4h900.3M193,210.6H811.4m-618.4,0H811.4M525.3,240.2V211m0,58.5V240.2m0,114.3v-85" class="g0_180"/>
<path d="M579.7,330.5H767.4" class="g1_180"/>
<path d="M778,330.5h22.4" class="g2_180"/>
<path d="M525.3,383.7V354.5m0,102.3V383.7" class="g0_180"/>
<path d="M613.9,442.9h34.5" class="g3_180"/>
<path d="M648.4,442.9h152" class="g4_180"/>
<path d="M525.3,488.1V456.8m0,60.5V488.1m0,58.4V517.3m0,114.3V546.5" class="g0_180"/>
<path d="M614.3,607.6h87.8" class="g1_180"/>
<path d="M712.6,607.6h87.8" class="g2_180"/>
<path d="M525.3,660.8V631.6m0,58.4V660.8M193,690.4H811.4m-618.4,0H811.4" class="g0_180"/>
</svg>