<?xml version="1.0" encoding="UTF-8" standalone="no"?>
<!DOCTYPE svg PUBLIC "-//W3C//DTD SVG 1.1//EN"
"http://www.w3.org/Graphics/SVG/1.1/DTD/svg11.dtd">
<svg viewBox="0 0 1286 909" version="1.1" xmlns="http://www.w3.org/2000/svg" xmlns:xlink="http://www.w3.org/1999/xlink">
<defs>
<style type="text/css"><![CDATA[
.g0_200{
fill: none;
stroke: #000000;
stroke-width: 0.73;
stroke-linecap: butt;
stroke-linejoin: miter;
}
.g1_200{
fill: none;
stroke: #02B5EE;
stroke-width: 1.262;
stroke-linecap: butt;
stroke-linejoin: miter;
}
.g2_200{
fill: #FFCCCC;
}
.g3_200{
fill: none;
stroke: #02B5EE;
stroke-width: 0.73;
stroke-linecap: butt;
stroke-linejoin: miter;
}
.g4_200{
fill: none;
stroke: #5EE200;
stroke-width: 1.262;
stroke-linecap: butt;
stroke-linejoin: miter;
}
.g5_200{
fill: none;
stroke: #5EE200;
stroke-width: 0.73;
stroke-linecap: butt;
stroke-linejoin: miter;
}
]]></style>
</defs>
<path d="M193,83.4h900.3M193,111.6H827.4m-634.4,0H827.4M407,141.2V112m0,114.3V141.2" class="g0_200"/>
<path d="M655.8,202.3h47.1" class="g1_200"/>
<path d="M724,190.6h92.4V157.7H724v32.9Z" class="g2_200"/>
<path d="M407,255.5V226.3m0,102.2v-73" class="g0_200"/>
<path d="M640.6,304.8H748.8V271.9H640.6v32.9Z" class="g2_200"/>
<path d="M748.8,314.7h67.6" class="g3_200"/>
<path d="M407,357.8V328.5m0,58.5V357.8M407,472V387" class="g0_200"/>
<path d="M566.9,448h63.6" class="g1_200"/>
<path d="M641,448h45.7" class="g4_200"/>
<path d="M707.7,436.3H816.4V403.4H707.7v32.9Z" class="g2_200"/>
<path d="M407,501.2V472m0,102.3V501.2" class="g0_200"/>
<path d="M556.2,550.6H715.1V517.7H556.2v32.9Z" class="g2_200"/>
<path d="M715.1,560.4h33.7" class="g5_200"/>
<path d="M748.8,560.4h67.6" class="g3_200"/>
<path d="M407,603.5V574.3m0,58.4V603.5m0,114.3V632.7" class="g0_200"/>
<path d="M485.1,693.8h61.4" class="g1_200"/>
<path d="M557,693.8h63" class="g4_200"/>
<path d="M641,682.1H816.4V649.2H641v32.9Z" class="g2_200"/>
<path d="M407,747V717.8M193,747.4H827.4m-634.4,0H827.4" class="g0_200"/>
</svg>