<?xml version="1.0" encoding="UTF-8" standalone="no"?>
<!DOCTYPE svg PUBLIC "-//W3C//DTD SVG 1.1//EN"
"http://www.w3.org/Graphics/SVG/1.1/DTD/svg11.dtd">
<svg viewBox="0 0 1286 909" version="1.1" xmlns="http://www.w3.org/2000/svg" xmlns:xlink="http://www.w3.org/1999/xlink">
<defs>
<style type="text/css"><![CDATA[
.g0_248{
fill: none;
stroke: #000000;
stroke-width: 0.73;
stroke-linecap: butt;
stroke-linejoin: miter;
}
.g1_248{
fill: #B3E9FA;
}
.g2_248{
fill: none;
stroke: #02B5EE;
stroke-width: 1.262;
stroke-linecap: butt;
stroke-linejoin: miter;
}
.g3_248{
fill: none;
stroke: #5EE200;
stroke-width: 1.262;
stroke-linecap: butt;
stroke-linejoin: miter;
}
]]></style>
</defs>
<path d="M193,83.4h900.3M193,111.6h858.4m-858.4,0h858.4M543.8,141.2V112m0,60.6V141.2m0,60.6V172.6m0,58.4V201.8m0,58.4V231m0,114.3V260.2" class="g0_248"/>
<path d="M772,301.8V283.3c0,-2.9,2.3,-5.2,5.2,-5.2H916c2.9,0,5.2,2.3,5.2,5.2v18.5c0,2.9,-2.3,5.2,-5.2,5.2H777.2c-2.9,0,-5.2,-2.3,-5.2,-5.2Z" class="g1_248"/>
<path d="M769.4,321.3H923.8" class="g2_248"/>
<path d="M934.3,321.3h106.2" class="g3_248"/>
<path d="M543.8,374.5V345.3m0,58.4V374.5m0,114.2v-85" class="g0_248"/>
<path d="M834,439v-5c0,-2.9,2.3,-5.2,5.2,-5.2h68.1c2.8,0,5.1,2.3,5.1,5.2v5c0,2.8,-2.3,5.1,-5.1,5.1H839.2c-2.9,0,-5.2,-2.3,-5.2,-5.1Z" class="g1_248"/>
<path d="M831.4,464.7H915" class="g2_248"/>
<path d="M925.6,464.7h114.9" class="g3_248"/>
<path d="M543.8,518V488.7m0,58.5V518m0,114.2v-85" class="g0_248"/>
<path d="M808.3,608.2h61.5" class="g2_248"/>
<path d="M1018,608.2h22.5" class="g3_248"/>
<path d="M543.8,661.4V632.2m0,58.5V661.4M193,691h858.4M193,691h858.4" class="g0_248"/>
</svg>