<?xml version="1.0" encoding="UTF-8" standalone="no"?>
<!DOCTYPE svg PUBLIC "-//W3C//DTD SVG 1.1//EN"
"http://www.w3.org/Graphics/SVG/1.1/DTD/svg11.dtd">
<svg viewBox="0 0 1286 909" version="1.1" xmlns="http://www.w3.org/2000/svg" xmlns:xlink="http://www.w3.org/1999/xlink">
<defs>
<style type="text/css"><![CDATA[
.g0_536{
fill: none;
stroke: #000000;
stroke-width: 0.73;
stroke-linecap: butt;
stroke-linejoin: miter;
}
.g1_536{
fill: none;
stroke: #02B5EE;
stroke-width: 1.262;
stroke-linecap: butt;
stroke-linejoin: miter;
}
.g2_536{
fill: none;
stroke: #5EE200;
stroke-width: 1.262;
stroke-linecap: butt;
stroke-linejoin: miter;
}
.g3_536{
fill: #FFCCCC;
}
.g4_536{
fill: none;
stroke: #5EE200;
stroke-width: 0.73;
stroke-linecap: butt;
stroke-linejoin: miter;
}
.g5_536{
fill: none;
stroke: #02B5EE;
stroke-width: 0.73;
stroke-linecap: butt;
stroke-linejoin: miter;
}
]]></style>
</defs>
<path d="M193,83.4h900.3M193,210.6H690.5m-497.5,0H690.5M409.3,240.2V211m0,58.5V240.2m0,114.3v-85" class="g0_536"/>
<path d="M420.2,330.5h97" class="g1_536"/>
<path d="M527.7,330.5h22.1" class="g2_536"/>
<path d="M570.9,318.8H679.6V285.9H570.9v32.9Z" class="g3_536"/>
<path d="M409.3,383.7V354.5m0,102.3V383.7" class="g0_536"/>
<path d="M421.2,442.9h34.3" class="g4_536"/>
<path d="M461.6,433H628.9V400.1H461.6V433Z" class="g3_536"/>
<path d="M628.9,442.9h50.7" class="g5_536"/>
<path d="M409.3,486V456.8m0,58.4V486m0,114.2v-85" class="g0_536"/>
<path d="M538.1,576.2h54.2" class="g1_536"/>
<path d="M409.3,629.5V600.2M193,629.8H690.5m-497.5,0H690.5" class="g0_536"/>
</svg>