<?xml version="1.0" encoding="UTF-8" standalone="no"?>
<!DOCTYPE svg PUBLIC "-//W3C//DTD SVG 1.1//EN"
"http://www.w3.org/Graphics/SVG/1.1/DTD/svg11.dtd">
<svg viewBox="0 0 1286 909" version="1.1" xmlns="http://www.w3.org/2000/svg" xmlns:xlink="http://www.w3.org/1999/xlink">
<defs>
<style type="text/css"><![CDATA[
.g0_815{
fill: none;
stroke: #000000;
stroke-width: 0.73;
stroke-linecap: butt;
stroke-linejoin: miter;
}
.g1_815{
fill: none;
stroke: #02B5EE;
stroke-width: 1.262;
stroke-linecap: butt;
stroke-linejoin: miter;
}
.g2_815{
fill: none;
stroke: #5EE200;
stroke-width: 1.262;
stroke-linecap: butt;
stroke-linejoin: miter;
}
.g3_815{
fill: none;
stroke: #5EE200;
stroke-width: 0.73;
stroke-linecap: butt;
stroke-linejoin: miter;
}
.g4_815{
fill: none;
stroke: #02B5EE;
stroke-width: 0.73;
stroke-linecap: butt;
stroke-linejoin: miter;
}
]]></style>
</defs>
<path d="M193,83.4h900.3M193,210.6H740.4m-547.4,0H740.4M409.3,240.2V211m0,58.5V240.2m0,114.3v-85" class="g0_815"/>
<path d="M420.2,330.5H567.4" class="g1_815"/>
<path d="M577.9,330.5h22.2" class="g2_815"/>
<path d="M409.3,383.7V354.5m0,102.3V383.7" class="g0_815"/>
<path d="M517.1,442.9h34.3" class="g3_815"/>
<path d="M678.7,442.9h50.7" class="g4_815"/>
<path d="M409.3,486V456.8m0,58.4V486m0,114.2v-85" class="g0_815"/>
<path d="M472.9,576.2h94.5" class="g1_815"/>
<path d="M577.9,576.2h22.2" class="g2_815"/>
<path d="M409.3,629.5V600.2m0,102.3v-73" class="g0_815"/>
<path d="M517.1,688.6h34.3" class="g3_815"/>
<path d="M678.7,688.6h50.7" class="g4_815"/>
<path d="M409.3,731.7V702.5m0,58.5V731.7M193,761.3H740.4m-547.4,0H740.4" class="g0_815"/>
</svg>