<?xml version="1.0" encoding="UTF-8" standalone="no"?>
<!DOCTYPE svg PUBLIC "-//W3C//DTD SVG 1.1//EN"
"http://www.w3.org/Graphics/SVG/1.1/DTD/svg11.dtd">
<svg viewBox="0 0 909 1286" version="1.1" xmlns="http://www.w3.org/2000/svg" xmlns:xlink="http://www.w3.org/1999/xlink">
<defs>
<style type="text/css"><![CDATA[
.g0_4{
fill: none;
stroke: #000000;
stroke-width: 0.73;
stroke-linecap: butt;
stroke-linejoin: miter;
}
.g1_4{
}
.g2_4{
fill: none;
stroke: #999999;
stroke-width: 2.191;
stroke-linecap: butt;
stroke-linejoin: miter;
}
]]></style>
</defs>
<path d="M116.9,179.9H855.2M385.3,209.5V180.3M165.3,225.1h9.2" class="g0_4"/>
<path d="M165.5,225.5h-.9v-.7h.9Z" class="g1_4"/>
<path d="M174.3,224.8h.9v.7h-.9Z" class="g1_4"/>
<path d="M165.3,222h9.2" class="g0_4"/>
<path d="M165.5,222.3h-.9v-.7h.9Z" class="g1_4"/>
<path d="M174.3,221.6h.9v.7h-.9Z" class="g1_4"/>
<path d="M193.1,225.1h9.2" class="g0_4"/>
<path d="M193.3,225.5h-.9v-.7h.9Z" class="g1_4"/>
<path d="M202.2,224.8h.9v.7h-.9Z" class="g1_4"/>
<path d="M193.1,222h9.2" class="g0_4"/>
<path d="M193.3,222.3h-.9v-.7h.9Z" class="g1_4"/>
<path d="M202.2,221.6h.9v.7h-.9Z" class="g1_4"/>
<path d="M385.3,238.7V209.5m0,58.4V238.7m0,58.5V267.9" class="g0_4"/>
<path d="M669.6,291.2L654.5,276.9m0,14.3l15.1,-14.3" class="g2_4"/>
<path d="M385.3,326.4V297.2m0,58.4V326.4M116.9,356H855.2M385.3,385.6V356.3M263.8,401.2H273" class="g0_4"/>
<path d="M264,401.6h-.9v-.8h.9Z" class="g1_4"/>
<path d="M272.8,400.8h.9v.8h-.9Z" class="g1_4"/>
<path d="M263.8,398.1H273" class="g0_4"/>
<path d="M264,398.4h-.9v-.7h.9Z" class="g1_4"/>
<path d="M272.8,397.7h.9v.7h-.9Z" class="g1_4"/>
<path d="M306.2,399.6h9.2" class="g0_4"/>
<path d="M306.4,400h-1v-.7h1Z" class="g1_4"/>
<path d="M315.2,399.3h.9v.7h-.9Z" class="g1_4"/>
<path d="M385.3,414.8V385.6m0,58.4V414.8m0,58.4V444m0,63.6V473.2M601.5,494h9.2" class="g0_4"/>
<path d="M601.7,494.3h-.9v-.7h.9Z" class="g1_4"/>
<path d="M610.5,493.6h1v.7h-1Z" class="g1_4"/>
<path d="M601.5,490.8h9.2" class="g0_4"/>
<path d="M601.7,491.2h-.9v-.7h.9Z" class="g1_4"/>
<path d="M610.5,490.5h1v.7h-1Z" class="g1_4"/>
<path d="M643.9,492.4h9.2" class="g0_4"/>
<path d="M644.1,492.8h-1V492h1Z" class="g1_4"/>
<path d="M652.9,492h.9v.8h-.9Z" class="g1_4"/>
<path d="M385.3,536.8V507.6m0,63.5V536.8M602.5,557.5h9.2" class="g0_4"/>
<path d="M602.7,557.9h-.9v-.7h.9Z" class="g1_4"/>
<path d="M611.5,557.2h1v.7h-1Z" class="g1_4"/>
<path d="M602.5,554.4h9.2" class="g0_4"/>
<path d="M602.7,554.8h-.9V554h.9Z" class="g1_4"/>
<path d="M611.5,554h1v.8h-1Z" class="g1_4"/>
<path d="M644.9,556h9.2" class="g0_4"/>
<path d="M645.1,556.3h-1v-.7h1Z" class="g1_4"/>
<path d="M653.9,555.6h.9v.7h-.9Z" class="g1_4"/>
<path d="M385.3,600.4V571.1m0,58.5V600.4m0,58.4V629.6m0,58.4V658.8m0,58.5V688" class="g0_4"/>
<path d="M647.9,711.3L632.8,697m0,14.3L647.9,697" class="g2_4"/>
<path d="M385.3,746.5V717.3M116.9,746.8H855.2M385.3,776.4V747.2M193.7,792.1h9.2" class="g0_4"/>
<path d="M193.9,792.4H193v-.7h.9Z" class="g1_4"/>
<path d="M202.7,791.7h.9v.7h-.9Z" class="g1_4"/>
<path d="M193.7,788.9h9.2" class="g0_4"/>
<path d="M193.9,789.3H193v-.7h.9Z" class="g1_4"/>
<path d="M202.7,788.6h.9v.7h-.9Z" class="g1_4"/>
<path d="M236.1,790.5h9.2" class="g0_4"/>
<path d="M236.3,790.9h-1v-.8h1Z" class="g1_4"/>
<path d="M245.1,790.1h.9v.8h-.9Z" class="g1_4"/>
<path d="M285.1,790.5h9.2" class="g0_4"/>
<path d="M285.2,790.9h-.9v-.8h.9Z" class="g1_4"/>
<path d="M294.1,790.1h.9v.8h-.9Z" class="g1_4"/>
<path d="M327.4,792.1h9.2" class="g0_4"/>
<path d="M327.6,792.4h-.9v-.7h.9Z" class="g1_4"/>
<path d="M336.4,791.7h.9v.7h-.9Z" class="g1_4"/>
<path d="M327.4,788.9h9.2" class="g0_4"/>
<path d="M327.6,789.3h-.9v-.7h.9Z" class="g1_4"/>
<path d="M336.4,788.6h.9v.7h-.9Z" class="g1_4"/>
<path d="M385.3,805.7V776.4m0,63.6V805.7M531.4,826.4h9.2" class="g0_4"/>
<path d="M531.6,826.8h-.9V826h.9Z" class="g1_4"/>
<path d="M540.4,826h1v.8h-1Z" class="g1_4"/>
<path d="M531.4,823.3h9.2" class="g0_4"/>
<path d="M531.6,823.6h-.9v-.7h.9Z" class="g1_4"/>
<path d="M540.4,822.9h1v.7h-1Z" class="g1_4"/>
<path d="M573.8,824.8H583" class="g0_4"/>
<path d="M574,825.2h-1v-.7h1Z" class="g1_4"/>
<path d="M582.8,824.5h.9v.7h-.9Z" class="g1_4"/>
<path d="M622.8,824.8H632" class="g0_4"/>
<path d="M622.9,825.2H622v-.7h.9Z" class="g1_4"/>
<path d="M631.8,824.5h.9v.7h-.9Z" class="g1_4"/>
<path d="M665.1,826.4h9.2" class="g0_4"/>
<path d="M665.3,826.8h-.9V826h.9Z" class="g1_4"/>
<path d="M674.1,826h.9v.8h-.9Z" class="g1_4"/>
<path d="M665.1,823.3h9.2" class="g0_4"/>
<path d="M665.3,823.6h-.9v-.7h.9Z" class="g1_4"/>
<path d="M674.1,822.9h.9v.7h-.9Z" class="g1_4"/>
<path d="M385.3,869.2V840m0,63.6V869.2M532.4,890h9.2" class="g0_4"/>
<path d="M532.6,890.3h-.9v-.7h.9Z" class="g1_4"/>
<path d="M541.4,889.6h1v.7h-1Z" class="g1_4"/>
<path d="M532.4,886.8h9.2" class="g0_4"/>
<path d="M532.6,887.2h-.9v-.7h.9Z" class="g1_4"/>
<path d="M541.4,886.5h1v.7h-1Z" class="g1_4"/>
<path d="M574.8,888.4H584" class="g0_4"/>
<path d="M575,888.8h-1V888h1Z" class="g1_4"/>
<path d="M583.8,888h.9v.8h-.9Z" class="g1_4"/>
<path d="M623.8,888.4H633" class="g0_4"/>
<path d="M624,888.8h-1V888h1Z" class="g1_4"/>
<path d="M632.8,888h.9v.8h-.9Z" class="g1_4"/>
<path d="M666.1,890h9.2" class="g0_4"/>
<path d="M666.3,890.3h-.9v-.7h.9Z" class="g1_4"/>
<path d="M675.1,889.6h.9v.7h-.9Z" class="g1_4"/>
<path d="M666.1,886.8h9.2" class="g0_4"/>
<path d="M666.3,887.2h-.9v-.7h.9Z" class="g1_4"/>
<path d="M675.1,886.5h.9v.7h-.9Z" class="g1_4"/>
<path d="M385.3,932.8V903.6m0,58.4V932.8m0,58.4V962m0,58.5V991.2m0,58.5v-29.2M116.9,1050H855.2" class="g0_4"/>
</svg>