<?xml version="1.0" encoding="UTF-8" standalone="no"?>
<!DOCTYPE svg PUBLIC "-//W3C//DTD SVG 1.1//EN"
"http://www.w3.org/Graphics/SVG/1.1/DTD/svg11.dtd">
<svg viewBox="0 0 1286 909" version="1.1" xmlns="http://www.w3.org/2000/svg" xmlns:xlink="http://www.w3.org/1999/xlink">
<defs>
<style type="text/css"><![CDATA[
.g0_613{
fill: none;
stroke: #000000;
stroke-width: 0.73;
stroke-linecap: butt;
stroke-linejoin: miter;
}
.g1_613{
fill: none;
stroke: #02B5EE;
stroke-width: 1.262;
stroke-linecap: butt;
stroke-linejoin: miter;
}
.g2_613{
fill: none;
stroke: #02B5EE;
stroke-width: 0.73;
stroke-linecap: butt;
stroke-linejoin: miter;
}
.g3_613{
fill: none;
stroke: #FFA313;
stroke-width: 1.262;
stroke-linecap: butt;
stroke-linejoin: miter;
}
.g4_613{
fill: none;
stroke: #FFA313;
stroke-width: 0.73;
stroke-linecap: butt;
stroke-linejoin: miter;
}
]]></style>
</defs>
<path d="M193,83.4h900.3M193,111.6H893.5m-700.5,0H893.5m-394,29.6V112m0,58.5V141.2m0,114.3v-85" class="g0_613"/>
<path d="M651,231.5h61.5" class="g1_613"/>
<path d="M499.5,284.7V255.5m0,102.3V284.7" class="g0_613"/>
<path d="M798,343.9h84.5" class="g2_613"/>
<path d="M499.5,389.1V357.8m0,62.6V389.1m0,60.5V420.4m0,58.5V449.6m0,114.3v-85" class="g0_613"/>
<path d="M608.1,539.9h34.6" class="g1_613"/>
<path d="M653.2,539.9H882.5" class="g3_613"/>
<path d="M499.5,593.1V563.9m0,102.3V593.1" class="g0_613"/>
<path d="M653.8,652.3H848.7" class="g4_613"/>
<path d="M848.7,652.3h33.8" class="g2_613"/>
<path d="M499.5,695.4V666.2m0,58.4V695.4M193,725H893.5M193,725H893.5" class="g0_613"/>
</svg>