<?xml version="1.0" encoding="UTF-8" standalone="no"?>
<!DOCTYPE svg PUBLIC "-//W3C//DTD SVG 1.1//EN"
"http://www.w3.org/Graphics/SVG/1.1/DTD/svg11.dtd">
<svg viewBox="0 0 1286 909" version="1.1" xmlns="http://www.w3.org/2000/svg" xmlns:xlink="http://www.w3.org/1999/xlink">
<defs>
<style type="text/css"><![CDATA[
.g0_333{
fill: none;
stroke: #000000;
stroke-width: 0.73;
stroke-linecap: butt;
stroke-linejoin: miter;
}
.g1_333{
fill: #FFCCCC;
}
.g2_333{
fill: #AEF080;
}
.g3_333{
fill: none;
stroke: #5EE200;
stroke-width: 1.461;
stroke-linecap: butt;
stroke-linejoin: miter;
stroke-dasharray: 2,2;
}
.g4_333{
fill: none;
stroke: #02B5EE;
stroke-width: 1.262;
stroke-linecap: butt;
stroke-linejoin: miter;
}
]]></style>
</defs>
<path d="M193,83.4h900.3M193,210.6H961.6m-768.6,0H961.6M596,240.2V211m0,58.5V240.2m0,63.2V269.5" class="g0_333"/>
<path d="M654.5,303.4h59.6V270.5H654.5v32.9Z" class="g1_333"/>
<path d="M724.6,303.4H872.5V270.5H724.6v32.9Z" class="g2_333"/>
<path d="M886.7,297H947" class="g3_333"/>
<path d="M596,332.6V303.4m0,62.1V332.6" class="g0_333"/>
<path d="M789.7,361.1h32.7" class="g3_333"/>
<path d="M826,365.5h27.9V332.6H826v32.9Z" class="g2_333"/>
<path d="M859.9,365.5h90.7V332.6H859.9v32.9Z" class="g1_333"/>
<path d="M596,394.7V365.5m0,58.4V394.7m0,63.2v-34" class="g0_333"/>
<path d="M617.5,457.9H677V425H617.5v32.9Z" class="g1_333"/>
<path d="M687.5,457.9h148V425h-148v32.9Z" class="g2_333"/>
<path d="M849.6,451.5H947" class="g3_333"/>
<path d="M596,488.1V457.9m0,63V488.1" class="g0_333"/>
<path d="M790.4,516.6h32" class="g3_333"/>
<path d="M826,520.9h27.9V488.1H826v32.8Z" class="g2_333"/>
<path d="M859.9,520.9h90.7V488.1H859.9v32.8Z" class="g1_333"/>
<path d="M596,550.2V520.9m0,58.5V550.2m0,114.2v-85" class="g0_333"/>
<path d="M728.2,640.4h93.1" class="g4_333"/>
<path d="M596,693.6V664.4m0,58.5V693.6M193,723.2H961.6m-768.6,0H961.6" class="g0_333"/>
</svg>