<?xml version="1.0" encoding="UTF-8" standalone="no"?>
<!DOCTYPE svg PUBLIC "-//W3C//DTD SVG 1.1//EN"
"http://www.w3.org/Graphics/SVG/1.1/DTD/svg11.dtd">
<svg viewBox="0 0 1286 909" version="1.1" xmlns="http://www.w3.org/2000/svg" xmlns:xlink="http://www.w3.org/1999/xlink">
<defs>
<style type="text/css"><![CDATA[
.g0_1209{
fill: none;
stroke: #000000;
stroke-width: 0.73;
stroke-linecap: butt;
stroke-linejoin: miter;
}
.g1_1209{
fill: #FDE8E9;
}
]]></style>
</defs>
<path d="M193,83.4h900.3M203.9,113H434.3M203.9,142.6V113.4m70.6,29.2V113.4m159.8,29.2V113.4M203.9,174.7V142.6m70.6,32.1V142.6" class="g0_1209"/>
<path d="M285.4,174.7H390.2V146.1H285.4v28.6Z" class="g1_1209"/>
<path d="M434.3,174.7V142.6M203.9,203.9V174.7m70.6,29.2V174.7m159.8,29.2V174.7M203.9,233.2V203.9m70.6,29.3V203.9m159.8,29.3V203.9M203.9,265.3V233.2m70.6,32.1V233.2" class="g0_1209"/>
<path d="M285.4,265.3H406.9V236.7H285.4v28.6Z" class="g1_1209"/>
<path d="M434.3,265.3V233.2M203.9,294.5V265.3m70.6,29.2V265.3m159.8,29.2V265.3M203.9,323.8V294.5m70.6,29.3V294.5m159.8,29.3V294.5M203.9,355.9V323.8m70.6,32.1V323.8" class="g0_1209"/>
<path d="M285.4,355.9h81.2V327.3H285.4v28.6Z" class="g1_1209"/>
<path d="M434.3,355.9V323.8M203.9,385.1V355.9m70.6,29.2V355.9m159.8,29.2V355.9M203.9,414.3V385.1m70.6,29.2V385.1m159.8,29.2V385.1M203.9,447V414.3M274.5,447V414.3" class="g0_1209"/>
<path d="M285.4,443.7h81V414.3h-81v29.4Z" class="g1_1209"/>
<path d="M434.3,447V414.3M203.9,476.2V447m70.6,29.2V447m159.8,29.2V447M203.9,505.4V476.2m70.6,29.2V476.2m159.8,29.2V476.2M203.9,538.1V505.4m70.6,32.7V505.4" class="g0_1209"/>
<path d="M285.4,534.8h90.2V505.4H285.4v29.4Z" class="g1_1209"/>
<path d="M434.3,538.1V505.4M203.9,567.3V538.1m70.6,29.2V538.1m159.8,29.2V538.1M203.9,596.5V567.3m70.6,29.2V567.3m159.8,29.2V567.3M203.9,629.2V596.5m70.6,32.7V596.5" class="g0_1209"/>
<path d="M285.4,625.9h65.9V596.5H285.4v29.4Z" class="g1_1209"/>
<path d="M434.3,629.2V596.5M203.9,658.4V629.2m70.6,29.2V629.2m159.8,29.2V629.2M203.9,687.6V658.4m70.6,29.2V658.4m159.8,29.2V658.4M203.9,722.2V687.6m70.6,34.6V687.6" class="g0_1209"/>
<path d="M285.4,722.2h138V687.6h-138v34.6Z" class="g1_1209"/>
<path d="M434.3,722.2V687.6M203.9,751.5V722.2m70.6,29.3V722.2m159.8,29.3V722.2M203.9,751.8H434.3m22,-642.3H698.2M456.3,139.1V109.9m70.5,29.2V109.9m171.4,29.2V109.9M456.3,173.7V139.1m70.5,34.6V139.1" class="g0_1209"/>
<path d="M537.8,173.7H658.9V139.1H537.8v34.6Z" class="g1_1209"/>
<path d="M698.2,173.7V139.1M456.3,203V173.7M526.8,203V173.7M698.2,203V173.7M456.3,232.2V203m70.5,29.2V203m171.4,29.2V203M456.3,266.8V232.2m70.5,34.6V232.2" class="g0_1209"/>
<path d="M537.8,266.8h90.8V232.2H537.8v34.6Z" class="g1_1209"/>
<path d="M698.2,266.8V232.2M456.3,296V266.8M526.8,296V266.8M698.2,296V266.8M456.3,325.2V296m70.5,29.2V296m171.4,29.2V296M456.3,357.4V325.2m70.5,32.2V325.2" class="g0_1209"/>
<path d="M537.8,357.4H687.3V328.8H537.8v28.6Z" class="g1_1209"/>
<path d="M698.2,357.4V325.2M456.3,386.6V357.4m70.5,29.2V357.4m171.4,29.2V357.4M456.3,415.8V386.6m70.5,29.2V386.6m171.4,29.2V386.6M456.3,448.5V415.8m70.5,32.7V415.8" class="g0_1209"/>
<path d="M537.8,445.2h93V415.8h-93v29.4Z" class="g1_1209"/>
<path d="M698.2,448.5V415.8M456.3,477.7V448.5m70.5,29.2V448.5m171.4,29.2V448.5M456.3,506.9V477.7m70.5,29.2V477.7m171.4,29.2V477.7M456.3,539.6V506.9m70.5,32.7V506.9" class="g0_1209"/>
<path d="M537.8,536.3h99.3V506.9H537.8v29.4Z" class="g1_1209"/>
<path d="M698.2,539.6V506.9M456.3,568.8V539.6m70.5,29.2V539.6m171.4,29.2V539.6M456.3,598V568.8M526.8,598V568.8M698.2,598V568.8M456.3,632.6V598m70.5,34.6V598" class="g0_1209"/>
<path d="M537.8,632.6h89.8V598H537.8v34.6Z" class="g1_1209"/>
<path d="M698.2,632.6V598M456.3,661.9V632.6m70.5,29.3V632.6m171.4,29.3V632.6M456.3,691.1V661.9m70.5,29.2V661.9m171.4,29.2V661.9M456.3,725.7V691.1m70.5,34.6V691.1" class="g0_1209"/>
<path d="M537.8,725.7H600V691.1H537.8v34.6Z" class="g1_1209"/>
<path d="M698.2,725.7V691.1M456.3,754.9V725.7m70.5,29.2V725.7m171.4,29.2V725.7M456.3,755.3H698.2m22,-641.6H929.7M720.2,143.3V114.1m70.5,29.2V114.1m139,29.2V114.1M720.2,176V143.3M790.7,176V143.3" class="g0_1209"/>
<path d="M801.7,172.7h48.8V143.3H801.7v29.4Z" class="g1_1209"/>
<path d="M929.7,176V143.3M720.2,205.2V176m70.5,29.2V176m139,29.2V176M720.2,234.4V205.2m70.5,29.2V205.2m139,29.2V205.2M720.2,269V234.4M790.7,269V234.4" class="g0_1209"/>
<path d="M801.7,269H918.5V234.4H801.7V269Z" class="g1_1209"/>
<path d="M929.7,269V234.4M720.2,298.2V269m70.5,29.2V269m139,29.2V269M720.2,327.5V298.2m70.5,29.3V298.2m139,29.3V298.2M720.2,357.6V327.5m70.5,30.1V327.5" class="g0_1209"/>
<path d="M801.7,354.4h78.9V331H801.7v23.4Z" class="g1_1209"/>
<path d="M929.7,357.6V327.5M720.2,386.9V357.6m70.5,29.3V357.6m139,29.3V357.6M720.2,416.1V386.9m70.5,29.2V386.9m139,29.2V386.9M720.2,450.7V416.1m70.5,34.6V416.1" class="g0_1209"/>
<path d="M801.7,450.7h72V416.1h-72v34.6Z" class="g1_1209"/>
<path d="M929.7,450.7V416.1M720.2,479.9V450.7m70.5,29.2V450.7m139,29.2V450.7M720.2,509.1V479.9m70.5,29.2V479.9m139,29.2V479.9M720.2,541.8V509.1m70.5,32.7V509.1" class="g0_1209"/>
<path d="M801.7,538.5H912.2V509.1H801.7v29.4Z" class="g1_1209"/>
<path d="M929.7,541.8V509.1M720.2,571V541.8M790.7,571V541.8m139,29.2V541.8M720.2,600.2V571m70.5,29.2V571m139,29.2V571M720.2,630.4V600.2m70.5,30.2V600.2" class="g0_1209"/>
<path d="M801.7,627.1h72V603.8h-72v23.3Z" class="g1_1209"/>
<path d="M929.7,630.4V600.2M720.2,659.6V630.4m70.5,29.2V630.4m139,29.2V630.4M720.2,688.9V659.6m70.5,29.3V659.6m139,29.3V659.6M720.2,721.5V688.9m70.5,32.6V688.9" class="g0_1209"/>
<path d="M801.7,718.2H918.8V688.9H801.7v29.3Z" class="g1_1209"/>
<path d="M929.7,721.5V688.9M720.2,750.7V721.5m70.5,29.2V721.5m139,29.2V721.5M720.2,751.1H929.7" class="g0_1209"/>
</svg>