<?xml version="1.0" encoding="UTF-8" standalone="no"?>
<!DOCTYPE svg PUBLIC "-//W3C//DTD SVG 1.1//EN"
"http://www.w3.org/Graphics/SVG/1.1/DTD/svg11.dtd">
<svg viewBox="0 0 909 1286" version="1.1" xmlns="http://www.w3.org/2000/svg" xmlns:xlink="http://www.w3.org/1999/xlink">
<defs>
<style type="text/css"><![CDATA[
.g0_9{
fill: none;
stroke: #000000;
stroke-width: 0.73;
stroke-linecap: butt;
stroke-linejoin: miter;
}
.g1_9{
fill: none;
stroke: #02B5EE;
stroke-width: 0.73;
stroke-linecap: butt;
stroke-linejoin: miter;
}
.g2_9{
fill: none;
stroke: #F81693;
stroke-width: 0.73;
stroke-linecap: butt;
stroke-linejoin: miter;
}
.g3_9{
fill: #FFFFFF;
}
.g4_9{
fill: none;
stroke: #F81693;
stroke-width: 1.461;
stroke-linecap: butt;
stroke-linejoin: miter;
}
]]></style>
</defs>
<path d="M144.6,284.2H764.9M554.1,313.8V284.5" class="g0_9"/>
<path d="M349.1,379.5l31.3,-18.6m0,-.2V324.2m-62.5,0h62.5m-62.5,36.5V324.2m31.2,55.3L317.9,360.9m6,-30.7h50.6" class="g1_9"/>
<path d="M380.4,360.7l31.2,18.6m0,36.8V379.5m-31.2,55.4l31.2,-18.7m-31.2,18.7L349.1,416.2m0,-.1V379.5m30.2,-11.1l-23,13.7m49.3,29.2v-27m-26.3,42.9l-23,-13.7m-7.2,2.6V379.5m-31.2,55.4l31.2,-18.7m-31.2,18.7L286.7,416.2m0,-.1V379.5m31.2,-18.8l-31.2,18.6m30.1,-10.9l-23,13.7m23,45.1l-23,-13.7" class="g2_9"/>
<path d="M554.1,432.1V313.8" class="g0_9"/>
<path d="M568,391.6V354.3c0,-2.8,2.3,-5.2,5.2,-5.2H746.1c2.9,0,5.2,2.4,5.2,5.2v37.3c0,2.8,-2.3,5.2,-5.2,5.2H573.2c-2.9,0,-5.2,-2.4,-5.2,-5.2Z" class="g3_9"/>
<path d="M554.1,461.3V432.1M144.6,461.7H764.9M554.1,491.3V462.1m-205,130.4l31.3,18.6m0,36.7V611.3m-31.3,55.4L380.4,648m-31.3,18.7L317.9,648m0,-.2V611.3m31.2,-18.8l-31.2,18.6m32.3,-10.9l23.1,13.7M350.2,659l23.1,-13.7m-49.4,-2.2v-27" class="g0_9"/>
<path d="M380.4,537.1l31.2,18.7m0,36.7V556m-31.2,55.3l31.2,-18.6m-62.5,-.2V556m31.3,-18.9l-31.3,18.7m30.2,-11l-23,13.7m49.3,29.2v-27m6,-78.9l31.2,18.6m0,36.7V500.6M411.6,556l31.2,-18.7m-62.4,-.2V500.6m31.2,-18.8l-31.2,18.6m30.1,-10.9l-23,13.7m49.3,29.2v-27M380.4,647.8l31.2,18.7m0,36.7V666.7M380.4,722l31.2,-18.6M380.4,722L349.1,703.4m0,-.2V666.7m56.5,31.7v-27m-26.3,42.9l-23,-13.7m55.3,2.6l31.2,18.6m0,36.7V722m-31.2,55.3l31.2,-18.6m-31.2,18.6L380.4,758.7m0,-.2V722m56.4,31.8v-27m-26.3,42.9L387.5,756M286.7,592.5l31.2,18.6m-31.2,55.6L317.9,648m-31.2,18.7L255.4,648m0,-.2V611.3m31.3,-18.8l-31.3,18.6m30.2,-10.9l-23,13.7m23,45.1l-23,-13.7M224.2,592.5l31.2,18.6m-31.2,55.6L255.4,648m-31.2,18.7L193,648m0,-.2V611.3m31.2,-18.8L193,611.1m30.1,-10.9l-23,13.7m23,45.1l-23,-13.7" class="g2_9"/>
<path d="M554.1,774.1V491.3" class="g0_9"/>
<path d="M572.5,651.3V614.1c0,-2.9,2.3,-5.2,5.2,-5.2h164c2.8,0,5.2,2.3,5.2,5.2v37.2c0,2.9,-2.4,5.2,-5.2,5.2h-164c-2.9,0,-5.2,-2.3,-5.2,-5.2Z" class="g3_9"/>
<path d="M598.5,644.6c1.3,0,2,-2.8,3.4,-2.8c1,0,1.8,1.3,2.7,2.8c.9,1.4,1.8,2.7,2.8,2.7c.9,0,1.8,-1.3,2.7,-2.7c.9,-1.5,1.7,-2.8,2.7,-2.8c1.4,0,2.1,2.8,3.5,2.8h1.2" class="g4_9"/>
<path d="M554.1,803.3V774.1M144.6,803.6H764.9" class="g0_9"/>
</svg>