<?xml version="1.0" encoding="UTF-8" standalone="no"?>
<!DOCTYPE svg PUBLIC "-//W3C//DTD SVG 1.1//EN"
"http://www.w3.org/Graphics/SVG/1.1/DTD/svg11.dtd">
<svg viewBox="0 0 1286 909" version="1.1" xmlns="http://www.w3.org/2000/svg" xmlns:xlink="http://www.w3.org/1999/xlink">
<defs>
<style type="text/css"><![CDATA[
.g0_1041{
fill: none;
stroke: #000000;
stroke-width: 0.73;
stroke-linecap: butt;
stroke-linejoin: miter;
}
.g1_1041{
fill: #FFCCCC;
}
.g2_1041{
fill: none;
stroke: #F81693;
stroke-width: 1.461;
stroke-linecap: butt;
stroke-linejoin: miter;
stroke-dasharray: 2,2;
}
.g3_1041{
fill: #AEF080;
}
.g4_1041{
fill: none;
stroke: #5EE200;
stroke-width: 1.461;
stroke-linecap: butt;
stroke-linejoin: miter;
stroke-dasharray: 2,2;
}
]]></style>
</defs>
<path d="M193,83.4h900.3M193,210.6H687.9m-494.9,0H687.9M382.7,240.2V211m0,58.5V240.2m0,59.4V269.5m0,59.3V299.6m0,58.5V328.8m0,63.2V358.1" class="g0_1041"/>
<path d="M486.1,392h59.6V359.1H486.1V392Z" class="g1_1041"/>
<path d="M559.8,385.6H673.3" class="g2_1041"/>
<path d="M382.7,422.2V392m0,63.1V422.2" class="g0_1041"/>
<path d="M519.3,450.7h31.9" class="g2_1041"/>
<path d="M561,455.1H677V422.2H561v32.9Z" class="g1_1041"/>
<path d="M382.7,484.3V455.1m0,58.4V484.3m0,63.2v-34" class="g0_1041"/>
<path d="M463.4,547.5h68.8V514.6H463.4v32.9Z" class="g1_1041"/>
<path d="M542.7,547.5h56.2V514.6H542.7v32.9Z" class="g3_1041"/>
<path d="M613.1,541.1h60.2" class="g4_1041"/>
<path d="M382.7,577.6V547.5m0,63V577.6" class="g0_1041"/>
<path d="M431.7,606.1h32.6" class="g4_1041"/>
<path d="M467.9,610.5h44.8V577.6H467.9v32.9Z" class="g3_1041"/>
<path d="M518.7,610.5H677V577.6H518.7v32.9Z" class="g1_1041"/>
<path d="M382.7,639.7V610.5m0,58.5V639.7m0,63.2V669" class="g0_1041"/>
<path d="M404.2,702.9h59.5V670H404.2v32.9Z" class="g1_1041"/>
<path d="M474.2,702.9H600.5V670H474.2v32.9Z" class="g3_1041"/>
<path d="M614.7,696.5h58.6" class="g4_1041"/>
<path d="M382.7,732.1V702.9m0,58.5V732.1M193,761.7H687.9m-494.9,0H687.9" class="g0_1041"/>
</svg>