<?xml version="1.0" encoding="UTF-8" standalone="no"?>
<!DOCTYPE svg PUBLIC "-//W3C//DTD SVG 1.1//EN"
"http://www.w3.org/Graphics/SVG/1.1/DTD/svg11.dtd">
<svg viewBox="0 0 909 1286" version="1.1" xmlns="http://www.w3.org/2000/svg" xmlns:xlink="http://www.w3.org/1999/xlink">
<defs>
<style type="text/css"><![CDATA[
.g0_19{
fill: none;
stroke: #000000;
stroke-width: 0.73;
stroke-linecap: butt;
stroke-linejoin: miter;
}
.g1_19{
fill: none;
stroke: #F81693;
stroke-width: 0.73;
stroke-linecap: butt;
stroke-linejoin: miter;
}
.g2_19{
fill: none;
stroke: #02B5EE;
stroke-width: 0.73;
stroke-linecap: butt;
stroke-linejoin: miter;
}
.g3_19{
fill: #C6EAFA;
}
.g4_19{
}
]]></style>
</defs>
<path d="M116.9,179.9H713.3m-406,29.6V180.3M182.7,273v18.3m0,0l31.2,18.6m0,36.8V310.1m-31.2,55.4l31.2,-18.7m-31.2,18.7L151.5,346.8m0,-.1V310.1m31.2,-18.8l-31.2,18.6M183.8,299l23,13.7m-23,45.1l23,-13.7m-49.3,-2.2v-27m16.1,-59.2L155.3,237.4M190,255.7l18.3,-18.3m99,90.4V209.5M447,273v18.3" class="g0_19"/>
<path d="M447,291.3l31.3,18.6m0,36.8V310.1M447,365.5l31.3,-18.7M447,365.5L415.8,346.8m0,-.1V310.1M447,291.3l-31.2,18.6M448.1,299l23,13.7m-23,45.1l23,-13.7m-49.3,-2.2v-27" class="g1_19"/>
<path d="M437.9,255.7L419.6,237.4m34.7,18.3l18.3,-18.3" class="g2_19"/>
<path d="M307.3,357.1V327.8m0,58.5V357.1m0,58.4V386.3m0,58.4V415.5m0,69.6V444.7" class="g0_19"/>
<path d="M386.1,485.1H509V444.7H386.1v40.4Z" class="g3_19"/>
<path d="M429.1,469.4h9.1" class="g0_19"/>
<path d="M429.2,469.8h-.9V469h.9Z" class="g4_19"/>
<path d="M438.1,469h.9v.8h-.9Z" class="g4_19"/>
<path d="M456.9,469.4h9.2" class="g0_19"/>
<path d="M457.1,469.8h-1V469h1Z" class="g4_19"/>
<path d="M465.9,469h.9v.8h-.9Z" class="g4_19"/>
<path d="M307.3,514.3V485.1m0,58.5V514.3m0,58.5V543.6m0,58.4V572.8m0,58.4V602M116.9,631.6H713.3m-406,29.6V632M193.7,724.9v18.3m0,0l31.2,18.6m0,36.7V762m-31.2,55.4l31.2,-18.7m-31.2,18.7L162.4,798.7m0,-.2V762m31.3,-18.8l-31.3,18.6m32.4,-10.9l23,13.7m-23,45.1l23,-13.7m-49.4,-2.2v-27M224.9,762l21.9,-13.1M184.5,707.6L166.3,689.3M201,707.6l18.2,-18.3m88.1,172.6V661.2" class="g0_19"/>
<path d="M447,724.8V743m0,0l31.3,18.6m0,36.8V761.8M447,817.2l31.3,-18.7M447,817.2L415.8,798.5m0,-.1V761.8M447,743l-31.2,18.6m32.3,-10.9l23,13.7m-23,45.1l23,-13.7m-49.3,-2.2v-27m56.5,-4.8l21.9,-13.1m-21.9,13.1l21.9,-13.1M437.9,707.4L419.6,689.1m34.7,18.3l18.3,-18.3" class="g1_19"/>
<path d="M307.3,891.2V861.9m0,58.5V891.2m0,58.4V920.4m0,58.4V949.6m0,58.4V978.8m0,58.5V1008m0,58.5v-29.2m-190.4,29.6H713.3" class="g0_19"/>
</svg>