<?xml version="1.0" encoding="UTF-8" standalone="no"?>
<!DOCTYPE svg PUBLIC "-//W3C//DTD SVG 1.1//EN"
"http://www.w3.org/Graphics/SVG/1.1/DTD/svg11.dtd">
<svg viewBox="0 0 1286 909" version="1.1" xmlns="http://www.w3.org/2000/svg" xmlns:xlink="http://www.w3.org/1999/xlink">
<defs>
<style type="text/css"><![CDATA[
.g0_988{
fill: none;
stroke: #000000;
stroke-width: 0.73;
stroke-linecap: butt;
stroke-linejoin: miter;
}
.g1_988{
fill: none;
stroke: #02B5EE;
stroke-width: 1.262;
stroke-linecap: butt;
stroke-linejoin: miter;
}
.g2_988{
fill: none;
stroke: #5EE200;
stroke-width: 1.262;
stroke-linecap: butt;
stroke-linejoin: miter;
}
.g3_988{
fill: none;
stroke: #5EE200;
stroke-width: 0.73;
stroke-linecap: butt;
stroke-linejoin: miter;
}
.g4_988{
fill: none;
stroke: #02B5EE;
stroke-width: 0.73;
stroke-linecap: butt;
stroke-linejoin: miter;
}
.g5_988{
fill: none;
stroke: #F81693;
stroke-width: 1.262;
stroke-linecap: butt;
stroke-linejoin: miter;
}
.g6_988{
fill: none;
stroke: #F81693;
stroke-width: 0.73;
stroke-linecap: butt;
stroke-linejoin: miter;
}
]]></style>
</defs>
<path d="M193,83.4h900.3M193,111.6H843m-650,0H843M435.1,141.2V112m0,114.3V141.2" class="g0_988"/>
<path d="M627.1,202.3H733.8" class="g1_988"/>
<path d="M744.3,202.3h87.8" class="g2_988"/>
<path d="M435.1,255.5V226.3m0,102.2v-73" class="g0_988"/>
<path d="M624.3,314.7H724.7" class="g3_988"/>
<path d="M730.7,314.7H832.1" class="g4_988"/>
<path d="M435.1,357.8V328.5m0,58.5V357.8m0,116V387" class="g0_988"/>
<path d="M451,448h20.7" class="g5_988"/>
<path d="M588,448H708.6" class="g1_988"/>
<path d="M719.1,448h113" class="g5_988"/>
<path d="M435.1,503.1V473.8m0,103.4V503.1" class="g0_988"/>
<path d="M514,562.2H651" class="g6_988"/>
<path d="M747.6,562.2h84.5" class="g4_988"/>
<path d="M435.1,606.4V577.2M193,606.8H843m-650,0H843" class="g0_988"/>
</svg>