<?xml version="1.0" encoding="UTF-8" standalone="no"?>
<!DOCTYPE svg PUBLIC "-//W3C//DTD SVG 1.1//EN"
"http://www.w3.org/Graphics/SVG/1.1/DTD/svg11.dtd">
<svg viewBox="0 0 909 1286" version="1.1" xmlns="http://www.w3.org/2000/svg" xmlns:xlink="http://www.w3.org/1999/xlink">
<defs>
<style type="text/css"><![CDATA[
.g0_1{
fill: #FDE8E9;
}
.g1_1{
fill: none;
stroke: #000000;
stroke-width: 0.73;
stroke-linecap: butt;
stroke-linejoin: miter;
}
.g2_1{
fill: none;
stroke: #02B5EE;
stroke-width: 0.73;
stroke-linecap: butt;
stroke-linejoin: miter;
}
.g3_1{
fill: none;
stroke: #F81693;
stroke-width: 0.73;
stroke-linecap: butt;
stroke-linejoin: miter;
}
.g4_1{
fill: #FFFFFF;
}
.g5_1{
fill: none;
stroke: #999999;
stroke-width: 2.191;
stroke-linecap: butt;
stroke-linejoin: miter;
}
]]></style>
</defs>
<path d="M397.6,294.2H499.8V268H397.6v26.2Z" class="g0_1"/>
<path d="M709.7,292.3h70.6V270H709.7v22.3Z" class="g0_1"/>
<path d="M116.9,340.2h643m-480,29.6V340.5m-97.8,74.6V396.8m4.8,18.3V396.8m4.9,36.4l22.1,13.1M172.5,433.2l-22.1,13.1m129.5,23.6V369.8" class="g1_1"/>
<path d="M419.1,415.1V396.8m4.7,18.3V396.8m5,36.4l22.1,13.1" class="g2_1"/>
<path d="M409.4,433.2l-22.1,13.1" class="g3_1"/>
<path d="M279.9,499.1V469.9m0,58.4V499.1m0,58.4V528.3m0,58.5V557.5m0,84V586.8" class="g1_1"/>
<path d="M310.7,633.7V594.6c0,-2.9,2.3,-5.2,5.2,-5.2H541.3c2.9,0,5.2,2.3,5.2,5.2v39.1c0,2.9,-2.3,5.2,-5.2,5.2H315.9c-2.9,0,-5.2,-2.3,-5.2,-5.2Z" class="g4_1"/>
<path d="M718.5,626.2L703.2,611.9m0,14.3l15.3,-14.3" class="g5_1"/>
<path d="M279.9,670.8V641.5m0,105.8V670.8" class="g1_1"/>
<path d="M357.5,739.5V678.6c0,-2.9,2.3,-5.2,5.2,-5.2H473.6c2.8,0,5.2,2.3,5.2,5.2v60.9c0,2.9,-2.4,5.2,-5.2,5.2H362.7c-2.9,0,-5.2,-2.3,-5.2,-5.2Z" class="g4_1"/>
<path d="M386.1,768h64.1V753.7H386.1V768Z" class="g0_1"/>
<path d="M383.5,729.1h69.3V689H383.5v40.1Z" class="g0_1"/>
<path d="M279.9,776.5V747.3m-163,29.6h643m-480,29.6V777.2m-79.5,74.6V833.5m4.8,18.3V833.5m4.9,36.3L232.2,883M190.7,869.8L168.6,883m111.3,23.6V806.5" class="g1_1"/>
<path d="M437.3,851.8V833.5m4.8,18.3V833.5m4.9,36.3L469.1,883" class="g2_1"/>
<path d="M427.7,869.8L405.6,883" class="g3_1"/>
<path d="M279.9,935.8V906.6m0,58.4V935.8" class="g1_1"/>
<path d="M620.2,959.1L604.9,944.8m0,14.3l15.3,-14.3" class="g5_1"/>
<path d="M279.9,994.2V965m0,105.8V994.2" class="g1_1"/>
<path d="M357.5,1063v-61c0,-2.8,2.3,-5.2,5.2,-5.2H473.6c2.8,0,5.2,2.4,5.2,5.2v61c0,2.8,-2.4,5.2,-5.2,5.2H362.7c-2.9,0,-5.2,-2.4,-5.2,-5.2Z" class="g4_1"/>
<path d="M388.7,1091.4h58.9v-14.2H388.7v14.2Z" class="g0_1"/>
<path d="M383.5,1052.6h69.3v-40.2H383.5v40.2Z" class="g0_1"/>
<path d="M279.9,1100v-29.2m-163,29.5h643" class="g1_1"/>
</svg>