<?xml version="1.0" encoding="UTF-8" standalone="no"?>
<!DOCTYPE svg PUBLIC "-//W3C//DTD SVG 1.1//EN"
"http://www.w3.org/Graphics/SVG/1.1/DTD/svg11.dtd">
<svg viewBox="0 0 909 1286" version="1.1" xmlns="http://www.w3.org/2000/svg" xmlns:xlink="http://www.w3.org/1999/xlink">
<defs>
<style type="text/css"><![CDATA[
.g0_87{
fill: none;
stroke: #000000;
stroke-width: 0.73;
stroke-linecap: butt;
stroke-linejoin: miter;
}
.g1_87{
fill: #FDE8E9;
}
]]></style>
</defs>
<path d="M116.9,159.9H792.5" class="g0_87"/>
<path d="M167.6,210.3h78.5V182.5H167.6v27.8Z" class="g1_87"/>
<path d="M167.6,240H296.8V212.2H167.6V240Z" class="g1_87"/>
<path d="M167.6,269.7h44.7V241.8H167.6v27.9Z" class="g1_87"/>
<path d="M167.6,299.4h44.7V271.5H167.6v27.9Z" class="g1_87"/>
<path d="M527.3,343.6H639.6V315.8H527.3v27.8Z" class="g1_87"/>
<path d="M439.6,431.3H568.7V403.5H439.6v27.8Z" class="g1_87"/>
<path d="M439.8,548.2h163V520.4h-163v27.8Z" class="g1_87"/>
<path d="M116.9,694.3H246.1V666.5H116.9v27.8Z" class="g1_87"/>
<path d="M261.9,692.3h49V668.6h-49v23.7Z" class="g1_87"/>
<path d="M326.6,696.5H541.8V668.6H326.6v27.9Z" class="g1_87"/>
<path d="M434.3,782H580.4V754.2H434.3V782Z" class="g1_87"/>
<path d="M440.8,869.7H654.4V841.8H440.8v27.9Z" class="g1_87"/>
<path d="M440.1,1015.8H620V987.9H440.1v27.9Z" class="g1_87"/>
<path d="M440.1,1103.5h163v-27.9h-163v27.9Z" class="g1_87"/>
</svg>