<?xml version="1.0" encoding="UTF-8" standalone="no"?>
<!DOCTYPE svg PUBLIC "-//W3C//DTD SVG 1.1//EN"
"http://www.w3.org/Graphics/SVG/1.1/DTD/svg11.dtd">
<svg viewBox="0 0 1286 909" version="1.1" xmlns="http://www.w3.org/2000/svg" xmlns:xlink="http://www.w3.org/1999/xlink">
<defs>
<style type="text/css"><![CDATA[
.g0_1205{
fill: none;
stroke: #000000;
stroke-width: 0.73;
stroke-linecap: butt;
stroke-linejoin: miter;
}
.g1_1205{
fill: none;
stroke: #000000;
stroke-width: 0.657;
stroke-linecap: butt;
stroke-linejoin: miter;
}
.g2_1205{
fill: #FDE8E9;
}
]]></style>
</defs>
<path d="M193,83.4h900.3" class="g0_1205"/>
<path d="M202.8,112.2H436.2M202.8,138.8V112.5m107.3,26.3V112.5m126.1,26.3V112.5M202.8,168.2V138.8m107.3,29.4V138.8" class="g1_1205"/>
<path d="M320,165.2h86.9V138.8H320v26.4Z" class="g2_1205"/>
<path d="M436.2,168.2V138.8M202.8,194.5V168.2m107.3,26.3V168.2m126.1,26.3V168.2M202.8,220.8V194.5m107.3,26.3V194.5m126.1,26.3V194.5M202.8,250.1V220.8m107.3,29.3V220.8" class="g1_1205"/>
<path d="M320,247.2h53.4V220.8H320v26.4Z" class="g2_1205"/>
<path d="M436.2,250.1V220.8M202.8,276.4V250.1m107.3,26.3V250.1m126.1,26.3V250.1M202.8,302.7V276.4m107.3,26.3V276.4m126.1,26.3V276.4M202.8,332.1V302.7m107.3,29.4V302.7" class="g1_1205"/>
<path d="M320,329.2h65V302.7H320v26.5Z" class="g2_1205"/>
<path d="M436.2,332.1V302.7M202.8,358.4V332.1m107.3,26.3V332.1m126.1,26.3V332.1M202.8,384.7V358.4m107.3,26.3V358.4m126.1,26.3V358.4M202.8,414.1V384.7m107.3,29.4V384.7" class="g1_1205"/>
<path d="M320,411.1h92.2V384.7H320v26.4Z" class="g2_1205"/>
<path d="M436.2,414.1V384.7M202.8,440.4V414.1m107.3,26.3V414.1m126.1,26.3V414.1M202.8,466.7V440.4m107.3,26.3V440.4m126.1,26.3V440.4M202.8,496.1V466.7m107.3,29.4V466.7" class="g1_1205"/>
<path d="M320,493.1h69.3V466.7H320v26.4Z" class="g2_1205"/>
<path d="M436.2,496.1V466.7M202.8,522.4V496.1m107.3,26.3V496.1m126.1,26.3V496.1M202.8,548.7V522.4m107.3,26.3V522.4m126.1,26.3V522.4M202.8,579.8V548.7m107.3,31.1V548.7" class="g1_1205"/>
<path d="M320,579.8h60.5V548.7H320v31.1Z" class="g2_1205"/>
<path d="M436.2,579.8V548.7M202.8,606.2V579.8m107.3,26.4V579.8m126.1,26.4V579.8M202.8,632.5V606.2m107.3,26.3V606.2m126.1,26.3V606.2M202.8,663.6V632.5m107.3,31.1V632.5" class="g1_1205"/>
<path d="M320,663.6H426.3V632.5H320v31.1Z" class="g2_1205"/>
<path d="M436.2,663.6V632.5M202.8,689.9V663.6m107.3,26.3V663.6m126.1,26.3V663.6M202.8,716.2V689.9m107.3,26.3V689.9m126.1,26.3V689.9M202.8,745.6V716.2m107.3,29.4V716.2" class="g1_1205"/>
<path d="M320,742.6h72.7V716.2H320v26.4Z" class="g2_1205"/>
<path d="M436.2,745.6V716.2M202.8,771.9V745.6m107.3,26.3V745.6m126.1,26.3V745.6M202.8,772.2H436.2M455.9,111.3H814.8M455.9,137.9V111.6m173,26.3V111.6m185.9,26.3V111.6M455.9,167.3V137.9m173,29.4V137.9" class="g1_1205"/>
<path d="M638.7,164.3h82.9V137.9H638.7v26.4Z" class="g2_1205"/>
<path d="M814.8,167.3V137.9M455.9,193.6V167.3m173,26.3V167.3m185.9,26.3V167.3M455.9,219.9V193.6m173,26.3V193.6m185.9,26.3V193.6M455.9,249.3V219.9m173,29.4V219.9" class="g1_1205"/>
<path d="M638.7,246.3h77.5V219.9H638.7v26.4Z" class="g2_1205"/>
<path d="M814.8,249.3V219.9M455.9,275.6V249.3m173,26.3V249.3m185.9,26.3V249.3M455.9,301.9V275.6m173,26.3V275.6m185.9,26.3V275.6M455.9,333V301.9m173,31.1V301.9" class="g1_1205"/>
<path d="M638.7,333H753.2V301.9H638.7V333Z" class="g2_1205"/>
<path d="M814.8,333V301.9M455.9,359.3V333m173,26.3V333m185.9,26.3V333M455.9,385.6V359.3m173,26.3V359.3m185.9,26.3V359.3M455.9,415V385.6m173,29.4V385.6" class="g1_1205"/>
<path d="M638.7,412h87.8V385.6H638.7V412Z" class="g2_1205"/>
<path d="M814.8,415V385.6M455.9,441.3V415m173,26.3V415m185.9,26.3V415M455.9,467.6V441.3m173,26.3V441.3m185.9,26.3V441.3M455.9,498.8V467.6m173,31.2V467.6" class="g1_1205"/>
<path d="M638.7,498.8H705V467.6H638.7v31.2Z" class="g2_1205"/>
<path d="M814.8,498.8V467.6M455.9,525.1V498.8m173,26.3V498.8m185.9,26.3V498.8M455.9,551.4V525.1m173,26.3V525.1m185.9,26.3V525.1M455.9,582.5V551.4m173,31.1V551.4" class="g1_1205"/>
<path d="M638.7,582.5H805V551.4H638.7v31.1Z" class="g2_1205"/>
<path d="M814.8,582.5V551.4M455.9,608.8V582.5m173,26.3V582.5m185.9,26.3V582.5M455.9,635.1V608.8m173,26.3V608.8m185.9,26.3V608.8M455.9,664.5V635.1m173,29.4V635.1" class="g1_1205"/>
<path d="M638.7,661.5h78.5V635.1H638.7v26.4Z" class="g2_1205"/>
<path d="M814.8,664.5V635.1M455.9,690.8V664.5m173,26.3V664.5m185.9,26.3V664.5M455.9,717.1V690.8m173,26.3V690.8m185.9,26.3V690.8M455.9,746.5V717.1m173,29.4V717.1" class="g1_1205"/>
<path d="M638.7,743.5h95.8V717.1H638.7v26.4Z" class="g2_1205"/>
<path d="M814.8,746.5V717.1M455.9,772.8V746.5m173,26.3V746.5m185.9,26.3V746.5M455.9,773.1H814.8M834.6,109.5h282.9M834.6,136.1V109.8m129.1,26.3V109.8m153.8,26.3V109.8M834.6,167.3V136.1m129.1,31.2V136.1" class="g1_1205"/>
<path d="M973.6,167.3h55.8V136.1H973.6v31.2Z" class="g2_1205"/>
<path d="M1117.5,167.3V136.1M834.6,193.6V167.3m129.1,26.3V167.3m153.8,26.3V167.3M834.6,219.9V193.6m129.1,26.3V193.6m153.8,26.3V193.6M834.6,249.3V219.9m129.1,29.4V219.9" class="g1_1205"/>
<path d="M973.6,246.3h69.7V219.9H973.6v26.4Z" class="g2_1205"/>
<path d="M1117.5,249.3V219.9M834.6,275.6V249.3m129.1,26.3V249.3m153.8,26.3V249.3M834.6,301.9V275.6m129.1,26.3V275.6m153.8,26.3V275.6M834.6,331.2V301.9m129.1,29.3V301.9" class="g1_1205"/>
<path d="M973.6,328.3h109.6V301.9H973.6v26.4Z" class="g2_1205"/>
<path d="M1117.5,331.2V301.9M834.6,357.5V331.2m129.1,26.3V331.2m153.8,26.3V331.2M834.6,383.8V357.5m129.1,26.3V357.5m153.8,26.3V357.5M834.6,413.2V383.8m129.1,29.4V383.8" class="g1_1205"/>
<path d="M973.6,410.3h86V383.8h-86v26.5Z" class="g2_1205"/>
<path d="M1117.5,413.2V383.8M834.6,439.5V413.2m129.1,26.3V413.2m153.8,26.3V413.2M834.6,465.8V439.5m129.1,26.3V439.5m153.8,26.3V439.5M834.6,497V465.8M963.7,497V465.8" class="g1_1205"/>
<path d="M973.6,497h120V465.8h-120V497Z" class="g2_1205"/>
<path d="M1117.5,497V465.8M834.6,523.3V497m129.1,26.3V497m153.8,26.3V497M834.6,549.6V523.3m129.1,26.3V523.3m153.8,26.3V523.3M834.6,580.7V549.6m129.1,31.1V549.6" class="g1_1205"/>
<path d="M973.6,580.7h134.1V549.6H973.6v31.1Z" class="g2_1205"/>
<path d="M1117.5,580.7V549.6M834.6,607V580.7M963.7,607V580.7M1117.5,607V580.7M834.6,633.3V607m129.1,26.3V607m153.8,26.3V607M834.6,664.5V633.3m129.1,31.2V633.3" class="g1_1205"/>
<path d="M973.6,664.5h127.6V633.3H973.6v31.2Z" class="g2_1205"/>
<path d="M1117.5,664.5V633.3M834.6,690.8V664.5m129.1,26.3V664.5m153.8,26.3V664.5M834.6,717.1V690.8m129.1,26.3V690.8m153.8,26.3V690.8M834.6,748.3V717.1m129.1,31.2V717.1" class="g1_1205"/>
<path d="M973.6,748.3h96.6V717.1H973.6v31.2Z" class="g2_1205"/>
<path d="M1117.5,748.3V717.1M834.6,774.6V748.3m129.1,26.3V748.3m153.8,26.3V748.3M834.6,774.9h282.9" class="g1_1205"/>
</svg>