<?xml version="1.0" encoding="UTF-8" standalone="no"?>
<!DOCTYPE svg PUBLIC "-//W3C//DTD SVG 1.1//EN"
"http://www.w3.org/Graphics/SVG/1.1/DTD/svg11.dtd">
<svg viewBox="0 0 909 1286" version="1.1" xmlns="http://www.w3.org/2000/svg" xmlns:xlink="http://www.w3.org/1999/xlink">
<defs>
<style type="text/css"><![CDATA[
.g0_3{
fill: none;
stroke: #000000;
stroke-width: 0.73;
stroke-linecap: butt;
stroke-linejoin: miter;
}
.g1_3{
fill: #FDE8E9;
}
]]></style>
</defs>
<path d="M116.9,159.9H792.5" class="g0_3"/>
<path d="M387.2,417.6h61.6V389.8H387.2v27.8Z" class="g1_3"/>
<path d="M606.7,447.3h61.6V419.5H606.7v27.8Z" class="g1_3"/>
<path d="M640.5,477h61.6V449.1H640.5V477Z" class="g1_3"/>
<path d="M116.9,579.3h163V551.4h-163v27.9Z" class="g1_3"/>
<path d="M268.9,623.6h78.6V595.7H268.9v27.9Z" class="g1_3"/>
<path d="M437.8,653.2h78.5V625.4H437.8v27.8Z" class="g1_3"/>
<path d="M539.2,682.9h78.5V655.1H539.2v27.8Z" class="g1_3"/>
<path d="M116.9,903H246.1V875.2H116.9V903Z" class="g1_3"/>
<path d="M368.2,990.7H565V962.8H368.2v27.9Z" class="g1_3"/>
<path d="M684.7,992.8H792.5V964.9H684.7v27.9Z" class="g1_3"/>
<path d="M125.4,1022.5H491V994.7H125.4v27.8Z" class="g1_3"/>
</svg>