<?xml version="1.0" encoding="UTF-8" standalone="no"?>
<!DOCTYPE svg PUBLIC "-//W3C//DTD SVG 1.1//EN"
"http://www.w3.org/Graphics/SVG/1.1/DTD/svg11.dtd">
<svg viewBox="0 0 1286 909" version="1.1" xmlns="http://www.w3.org/2000/svg" xmlns:xlink="http://www.w3.org/1999/xlink">
<defs>
<style type="text/css"><![CDATA[
.g0_1022{
fill: none;
stroke: #000000;
stroke-width: 0.73;
stroke-linecap: butt;
stroke-linejoin: miter;
}
.g1_1022{
fill: #E6CEEE;
}
.g2_1022{
fill: #FFCCCC;
}
.g3_1022{
fill: none;
stroke: #F81693;
stroke-width: 1.461;
stroke-linecap: butt;
stroke-linejoin: miter;
stroke-dasharray: 2,2;
}
]]></style>
</defs>
<path d="M193,83.4h900.3M193,111.6H754.6m-561.6,0H754.6M381.7,141.2V112m0,58.5V141.2m0,58.5V170.5m0,63.6V199.7m0,63.7V234.1m0,62.1V263.4" class="g0_1022"/>
<path d="M665.1,296.2h78.6V263.4H665.1v32.8Z" class="g1_1022"/>
<path d="M381.7,325.5V296.2m0,58.5V325.5m0,63.1V354.7" class="g0_1022"/>
<path d="M477.2,388.6H629.5V355.8H477.2v32.8Z" class="g2_1022"/>
<path d="M643.6,382.2H740" class="g3_1022"/>
<path d="M381.7,417.9V388.6m0,62.1V417.9" class="g0_1022"/>
<path d="M643.9,446.4h50" class="g3_1022"/>
<path d="M703.6,450.7h40.1V417.9H703.6v32.8Z" class="g2_1022"/>
<path d="M381.7,480V450.7M193,480.3H754.6m-561.6,0H754.6" class="g0_1022"/>
</svg>