<?xml version="1.0" encoding="UTF-8" standalone="no"?>
<!DOCTYPE svg PUBLIC "-//W3C//DTD SVG 1.1//EN"
"http://www.w3.org/Graphics/SVG/1.1/DTD/svg11.dtd">
<svg viewBox="0 0 1286 909" version="1.1" xmlns="http://www.w3.org/2000/svg" xmlns:xlink="http://www.w3.org/1999/xlink">
<defs>
<style type="text/css"><![CDATA[
.g0_205{
fill: none;
stroke: #000000;
stroke-width: 0.73;
stroke-linecap: butt;
stroke-linejoin: miter;
}
.g1_205{
fill: none;
stroke: #02B5EE;
stroke-width: 1.262;
stroke-linecap: butt;
stroke-linejoin: miter;
}
.g2_205{
fill: none;
stroke: #FFA313;
stroke-width: 1.262;
stroke-linecap: butt;
stroke-linejoin: miter;
}
.g3_205{
fill: none;
stroke: #FFA313;
stroke-width: 0.73;
stroke-linecap: butt;
stroke-linejoin: miter;
}
.g4_205{
fill: none;
stroke: #02B5EE;
stroke-width: 0.73;
stroke-linecap: butt;
stroke-linejoin: miter;
}
.g5_205{
fill: none;
stroke: #000000;
stroke-width: 0.733;
stroke-linecap: round;
stroke-linejoin: round;
}
]]></style>
</defs>
<path d="M193,83.4h900.3M193,210.6H832.9m-639.9,0H832.9M430.3,240.2V211m0,58.5V240.2m0,114.3v-85" class="g0_205"/>
<path d="M497.2,330.5h34.7" class="g1_205"/>
<path d="M542.4,330.5H822" class="g2_205"/>
<path d="M430.3,383.7V354.5m0,102.3V383.7" class="g0_205"/>
<path d="M475.1,442.9H788.2" class="g3_205"/>
<path d="M788.2,442.9H822" class="g4_205"/>
<path d="M430.3,486V456.8m0,128.8V486" class="g0_205"/>
<path d="M562,513.9v15.4m0,16.9v11.6M666.3,501.9h60.3m-43.9,71.7h43.9" class="g5_205"/>
<path d="M430.3,614.9V585.6M193,615.2H832.9m-639.9,0H832.9" class="g0_205"/>
</svg>