<?xml version="1.0" encoding="UTF-8" standalone="no"?>
<!DOCTYPE svg PUBLIC "-//W3C//DTD SVG 1.1//EN"
"http://www.w3.org/Graphics/SVG/1.1/DTD/svg11.dtd">
<svg viewBox="0 0 1286 909" version="1.1" xmlns="http://www.w3.org/2000/svg" xmlns:xlink="http://www.w3.org/1999/xlink">
<defs>
<style type="text/css"><![CDATA[
.g0_1006{
fill: none;
stroke: #000000;
stroke-width: 0.73;
stroke-linecap: butt;
stroke-linejoin: miter;
}
.g1_1006{
fill: #FFCCCC;
}
.g2_1006{
fill: none;
stroke: #F81693;
stroke-width: 1.461;
stroke-linecap: butt;
stroke-linejoin: miter;
stroke-dasharray: 2,2;
}
.g3_1006{
fill: none;
stroke: #02B5EE;
stroke-width: 1.262;
stroke-linecap: butt;
stroke-linejoin: miter;
}
]]></style>
</defs>
<path d="M193,83.4h900.3M193,210.6h821.4m-821.4,0h821.4M430.3,240.2V211m0,58.5V240.2m0,63.2V269.5" class="g0_1006"/>
<path d="M864.8,303.4H927V270.5H864.8v32.9Z" class="g1_1006"/>
<path d="M941.1,297h58.7" class="g2_1006"/>
<path d="M430.3,333.6V303.4m0,63V333.6" class="g0_1006"/>
<path d="M819.7,362.1H903" class="g2_1006"/>
<path d="M912.8,366.4h90.6V333.6H912.8v32.8Z" class="g1_1006"/>
<path d="M430.3,397.8V366.4m0,60.6V397.8m0,58.4V427m0,63.2v-34" class="g0_1006"/>
<path d="M848.6,490.2h62.1V457.3H848.6v32.9Z" class="g1_1006"/>
<path d="M924.9,483.8h74.9" class="g2_1006"/>
<path d="M430.3,520.3V490.2m0,63V520.3" class="g0_1006"/>
<path d="M819.7,548.8H903" class="g2_1006"/>
<path d="M912.8,553.2h90.6V520.3H912.8v32.9Z" class="g1_1006"/>
<path d="M430.3,584.5V553.2m0,60.6V584.5m0,58.5V613.8m0,114.2V643" class="g0_1006"/>
<path d="M706.4,692.3h59.5V659.4H706.4v32.9Z" class="g1_1006"/>
<path d="M776.4,704h97.7" class="g3_1006"/>
<path d="M430.3,757.2V728M193,757.6h821.4m-821.4,0h821.4" class="g0_1006"/>
</svg>