<?xml version="1.0" encoding="UTF-8" standalone="no"?>
<!DOCTYPE svg PUBLIC "-//W3C//DTD SVG 1.1//EN"
"http://www.w3.org/Graphics/SVG/1.1/DTD/svg11.dtd">
<svg viewBox="0 0 1286 909" version="1.1" xmlns="http://www.w3.org/2000/svg" xmlns:xlink="http://www.w3.org/1999/xlink">
<defs>
<style type="text/css"><![CDATA[
.g0_1124{
fill: none;
stroke: #000000;
stroke-width: 0.73;
stroke-linecap: butt;
stroke-linejoin: miter;
}
.g1_1124{
fill: none;
stroke: #5EE200;
stroke-width: 1.461;
stroke-linecap: butt;
stroke-linejoin: miter;
stroke-dasharray: 2,2;
}
.g2_1124{
fill: #F81693;
}
.g3_1124{
fill: #FFE6E6;
}
.g4_1124{
fill: #AEF080;
}
.g5_1124{
fill: none;
stroke: #F81693;
stroke-width: 1.461;
stroke-linecap: butt;
stroke-linejoin: miter;
stroke-dasharray: 2,2;
}
]]></style>
</defs>
<path d="M193,83.4h900.3M193,111.6H1348.9M193,111.6H1348.9M734.5,141.2V112m0,70.1V141.2" class="g0_1124"/>
<path d="M909.2,171.8h105.5" class="g1_1124"/>
<path d="M1028.9,174.3V149c0,-4.3,3.5,-7.8,7.8,-7.8H1079c4.3,0,7.8,3.5,7.8,7.8v25.3c0,4.3,-3.5,7.8,-7.8,7.8h-42.3c-4.3,0,-7.8,-3.5,-7.8,-7.8Z" class="g2_1124"/>
<path d="M1031.5,174.3V149c0,-2.8,2.3,-5.2,5.2,-5.2H1079c2.9,0,5.2,2.4,5.2,5.2v25.3c0,2.8,-2.3,5.2,-5.2,5.2h-42.3c-2.9,0,-5.2,-2.4,-5.2,-5.2Z" class="g3_1124"/>
<path d="M1097.3,178.2h92.9V145.3h-92.9v32.9Z" class="g4_1124"/>
<path d="M1200.7,174.3V149c0,-4.3,3.5,-7.8,7.8,-7.8H1249c4.3,0,7.8,3.5,7.8,7.8v25.3c0,4.3,-3.5,7.8,-7.8,7.8h-40.5c-4.3,0,-7.8,-3.5,-7.8,-7.8Z" class="g2_1124"/>
<path d="M1203.3,174.3V149c0,-2.8,2.3,-5.2,5.2,-5.2H1249c2.9,0,5.2,2.4,5.2,5.2v25.3c0,2.8,-2.3,5.2,-5.2,5.2h-40.5c-2.9,0,-5.2,-2.4,-5.2,-5.2Z" class="g3_1124"/>
<path d="M1271,178.1h63.3" class="g5_1124"/>
<path d="M734.5,211.3V182.1m0,72.1V211.3" class="g0_1124"/>
<path d="M959.2,243.9h107" class="g5_1124"/>
<path d="M1069.9,246.4V219.1c0,-4.3,3.5,-7.8,7.8,-7.8h44.1c4.3,0,7.8,3.5,7.8,7.8v27.3c0,4.3,-3.5,7.8,-7.8,7.8h-44.1c-4.3,0,-7.8,-3.5,-7.8,-7.8Z" class="g2_1124"/>
<path d="M1072.5,246.4V219.1c0,-2.9,2.3,-5.2,5.2,-5.2h44.1c2.9,0,5.2,2.3,5.2,5.2v27.3c0,2.8,-2.3,5.2,-5.2,5.2h-44.1c-2.9,0,-5.2,-2.4,-5.2,-5.2Z" class="g3_1124"/>
<path d="M1135.7,248.3h95.4V215.4h-95.4v32.9Z" class="g4_1124"/>
<path d="M1234.8,243.9h99.5" class="g1_1124"/>
<path d="M734.5,285.5V254.2m0,60.5V285.5m0,58.4V314.7m0,70V343.9" class="g0_1124"/>
<path d="M951.9,374.5h105.5" class="g1_1124"/>
<path d="M1071.6,376.9V351.7c0,-4.3,3.5,-7.8,7.8,-7.8h42.3c4.3,0,7.8,3.5,7.8,7.8v25.2c0,4.4,-3.5,7.8,-7.8,7.8h-42.3c-4.3,0,-7.8,-3.4,-7.8,-7.8Z" class="g2_1124"/>
<path d="M1074.2,376.9V351.7c0,-2.9,2.3,-5.2,5.2,-5.2h42.3c2.8,0,5.2,2.3,5.2,5.2v25.2c0,2.9,-2.4,5.2,-5.2,5.2h-42.3c-2.9,0,-5.2,-2.3,-5.2,-5.2Z" class="g3_1124"/>
<path d="M1140,380.9h92.8V348H1140v32.9Z" class="g4_1124"/>
<path d="M1243.3,376.9V351.7c0,-4.3,3.5,-7.8,7.8,-7.8h40.6c4.3,0,7.8,3.5,7.8,7.8v25.2c0,4.4,-3.5,7.8,-7.8,7.8h-40.6c-4.3,0,-7.8,-3.4,-7.8,-7.8Z" class="g2_1124"/>
<path d="M1245.9,376.9V351.7c0,-2.9,2.4,-5.2,5.2,-5.2h40.6c2.9,0,5.2,2.3,5.2,5.2v25.2c0,2.9,-2.3,5.2,-5.2,5.2h-40.6c-2.8,0,-5.2,-2.3,-5.2,-5.2Z" class="g3_1124"/>
<path d="M734.5,414V384.7m0,72.1V414" class="g0_1124"/>
<path d="M1016.7,446.6h49.5" class="g5_1124"/>
<path d="M1069.9,449V421.8c0,-4.3,3.5,-7.8,7.8,-7.8h44.1c4.3,0,7.8,3.5,7.8,7.8V449c0,4.3,-3.5,7.8,-7.8,7.8h-44.1c-4.3,0,-7.8,-3.5,-7.8,-7.8Z" class="g2_1124"/>
<path d="M1072.5,449V421.8c0,-2.9,2.3,-5.2,5.2,-5.2h44.1c2.9,0,5.2,2.3,5.2,5.2V449c0,2.9,-2.3,5.2,-5.2,5.2h-44.1c-2.9,0,-5.2,-2.3,-5.2,-5.2Z" class="g3_1124"/>
<path d="M1135.7,451h95.4V418.1h-95.4V451Z" class="g4_1124"/>
<path d="M1234.8,446.6h99.5" class="g1_1124"/>
<path d="M734.5,488.2V456.8m0,60.6V488.2m0,58.4V517.4m0,60.1V546.6m0,60.1V577.5m0,58.4V606.7m0,60.1V635.9m0,60.1V666.8M193,696.3H1348.9M193,696.3H1348.9" class="g0_1124"/>
</svg>