<?xml version="1.0" encoding="UTF-8" standalone="no"?>
<!DOCTYPE svg PUBLIC "-//W3C//DTD SVG 1.1//EN"
"http://www.w3.org/Graphics/SVG/1.1/DTD/svg11.dtd">
<svg viewBox="0 0 1286 909" version="1.1" xmlns="http://www.w3.org/2000/svg" xmlns:xlink="http://www.w3.org/1999/xlink">
<defs>
<style type="text/css"><![CDATA[
.g0_611{
fill: none;
stroke: #000000;
stroke-width: 0.73;
stroke-linecap: butt;
stroke-linejoin: miter;
}
.g1_611{
fill: #F81693;
}
.g2_611{
fill: #FFE6E6;
}
.g3_611{
fill: #AEF080;
}
.g4_611{
fill: none;
stroke: #F81693;
stroke-width: 1.461;
stroke-linecap: butt;
stroke-linejoin: miter;
stroke-dasharray: 2,2;
}
.g5_611{
fill: none;
stroke: #5EE200;
stroke-width: 1.461;
stroke-linecap: butt;
stroke-linejoin: miter;
stroke-dasharray: 2,2;
}
]]></style>
</defs>
<path d="M193,83.4h900.3M193,210.6h919.6m-919.6,0h919.6M450.9,240.2V211m0,58.5V240.2m0,59.4V269.5m0,59.3V299.6m0,58.5V328.8m0,77.3v-48" class="g0_611"/>
<path d="M859.7,398.3V365.9c0,-4.3,3.5,-7.8,7.8,-7.8h77.6c4.3,0,7.8,3.5,7.8,7.8v32.4c0,4.3,-3.5,7.8,-7.8,7.8H867.5c-4.3,0,-7.8,-3.5,-7.8,-7.8Z" class="g1_611"/>
<path d="M862.3,398.3V365.9c0,-2.9,2.4,-5.2,5.2,-5.2h77.6c2.9,0,5.2,2.3,5.2,5.2v32.4c0,2.9,-2.3,5.2,-5.2,5.2H867.5c-2.8,0,-5.2,-2.3,-5.2,-5.2Z" class="g2_611"/>
<path d="M963.4,402.3h33.4V369.4H963.4v32.9Z" class="g3_611"/>
<path d="M1007.3,398.3V373.1c0,-4.3,3.5,-7.8,7.8,-7.8h40.6c4.3,0,7.8,3.5,7.8,7.8v25.2c0,4.3,-3.5,7.8,-7.8,7.8h-40.6c-4.3,0,-7.8,-3.5,-7.8,-7.8Z" class="g1_611"/>
<path d="M1009.9,398.3V373.1c0,-2.9,2.3,-5.2,5.2,-5.2h40.6c2.9,0,5.2,2.3,5.2,5.2v25.2c0,2.9,-2.3,5.2,-5.2,5.2h-40.6c-2.9,0,-5.2,-2.3,-5.2,-5.2Z" class="g2_611"/>
<path d="M1077.6,395.9H1098" class="g4_611"/>
<path d="M450.9,435.4V406.1m0,72.1V435.4" class="g0_611"/>
<path d="M963.4,465.9h11" class="g4_611"/>
<path d="M978.1,470.4V443.1c0,-4.3,3.4,-7.7,7.8,-7.7h77.9c4.3,0,7.8,3.4,7.8,7.7v27.3c0,4.3,-3.5,7.8,-7.8,7.8H985.9c-4.4,0,-7.8,-3.5,-7.8,-7.8Z" class="g1_611"/>
<path d="M980.7,470.4V443.1c0,-2.8,2.3,-5.1,5.2,-5.1h77.9c2.9,0,5.2,2.3,5.2,5.1v27.3c0,2.9,-2.3,5.2,-5.2,5.2H985.9c-2.9,0,-5.2,-2.3,-5.2,-5.2Z" class="g2_611"/>
<path d="M1077.7,472.3h23.9V439.5h-23.9v32.8Z" class="g3_611"/>
<path d="M450.9,507.4V478.2m0,58.5V507.4m0,70.1V536.7" class="g0_611"/>
<path d="M819,567.2H949.3" class="g5_611"/>
<path d="M963.4,573.6h33.4V540.8H963.4v32.8Z" class="g3_611"/>
<path d="M1007.3,569.7V544.5c0,-4.3,3.5,-7.8,7.8,-7.8h40.6c4.3,0,7.8,3.5,7.8,7.8v25.2c0,4.3,-3.5,7.8,-7.8,7.8h-40.6c-4.3,0,-7.8,-3.5,-7.8,-7.8Z" class="g1_611"/>
<path d="M1009.9,569.7V544.5c0,-2.9,2.3,-5.2,5.2,-5.2h40.6c2.9,0,5.2,2.3,5.2,5.2v25.2c0,2.9,-2.3,5.2,-5.2,5.2h-40.6c-2.9,0,-5.2,-2.3,-5.2,-5.2Z" class="g2_611"/>
<path d="M1077.6,567.2H1098" class="g4_611"/>
<path d="M450.9,606.7V577.5m0,72.1V606.7" class="g0_611"/>
<path d="M907.3,637.3h11" class="g4_611"/>
<path d="M921.9,641.8V614.5c0,-4.3,3.5,-7.8,7.8,-7.8h78c4.3,0,7.8,3.5,7.8,7.8v27.3c0,4.3,-3.5,7.8,-7.8,7.8h-78c-4.3,0,-7.8,-3.5,-7.8,-7.8Z" class="g1_611"/>
<path d="M924.5,641.8V614.5c0,-2.9,2.3,-5.2,5.2,-5.2h78c2.8,0,5.2,2.3,5.2,5.2v27.3c0,2.9,-2.4,5.2,-5.2,5.2h-78c-2.9,0,-5.2,-2.3,-5.2,-5.2Z" class="g2_611"/>
<path d="M1025.2,639.3H1074" class="g5_611"/>
<path d="M1077.7,643.7h23.9V610.8h-23.9v32.9Z" class="g3_611"/>
<path d="M450.9,678.8V649.6m0,58.4V678.8m0,58.5V708M193,737.6h919.6m-919.6,0h919.6" class="g0_611"/>
</svg>