<?xml version="1.0" encoding="UTF-8" standalone="no"?>
<!DOCTYPE svg PUBLIC "-//W3C//DTD SVG 1.1//EN"
"http://www.w3.org/Graphics/SVG/1.1/DTD/svg11.dtd">
<svg viewBox="0 0 1286 909" version="1.1" xmlns="http://www.w3.org/2000/svg" xmlns:xlink="http://www.w3.org/1999/xlink">
<defs>
<style type="text/css"><![CDATA[
.g0_439{
fill: none;
stroke: #000000;
stroke-width: 0.73;
stroke-linecap: butt;
stroke-linejoin: miter;
}
.g1_439{
fill: none;
stroke: #02B5EE;
stroke-width: 1.262;
stroke-linecap: butt;
stroke-linejoin: miter;
}
.g2_439{
fill: none;
stroke: #5EE200;
stroke-width: 1.262;
stroke-linecap: butt;
stroke-linejoin: miter;
}
]]></style>
</defs>
<path d="M193,83.4h900.3M193,210.6H799.4m-606.4,0H799.4M478.9,240.2V211m0,58.5V240.2m0,114.3v-85" class="g0_439"/>
<path d="M649.2,330.5h71" class="g1_439"/>
<path d="M478.9,383.7V354.5m0,58.4V383.7m0,114.3V412.9" class="g0_439"/>
<path d="M655.3,474h64.9" class="g1_439"/>
<path d="M478.9,527.2V498m0,58.4V527.2m0,114.2v-85" class="g0_439"/>
<path d="M527.7,617.4h63.6" class="g1_439"/>
<path d="M601.8,617.4H788.5" class="g2_439"/>
<path d="M478.9,671.6V641.4m0,59.4V671.6M193,701.2H799.4m-606.4,0H799.4" class="g0_439"/>
</svg>