<?xml version="1.0" encoding="UTF-8" standalone="no"?>
<!DOCTYPE svg PUBLIC "-//W3C//DTD SVG 1.1//EN"
"http://www.w3.org/Graphics/SVG/1.1/DTD/svg11.dtd">
<svg viewBox="0 0 909 1286" version="1.1" xmlns="http://www.w3.org/2000/svg" xmlns:xlink="http://www.w3.org/1999/xlink">
<defs>
<clipPath id="c0_86"><path d="M119.5,239V205.4H446.9V239Z"/></clipPath>
<clipPath id="c1_86"><path d="M462.5,239V205.4H789.9V239Z"/></clipPath>
<style type="text/css"><![CDATA[
.g0_86{
fill: none;
stroke: #000000;
stroke-width: 0.73;
stroke-linecap: butt;
stroke-linejoin: miter;
}
.g1_86{
fill: #7F7F7F;
fill-opacity: 0.01;
}
.g2_86{
fill: #7F7F7F;
fill-opacity: 0.02;
}
.g3_86{
fill: #7F7F7F;
fill-opacity: 0.04;
}
.g4_86{
fill: #7F7F7F;
fill-opacity: 0.07;
}
.g5_86{
fill: #7F7F7F;
fill-opacity: 0.11;
}
.g6_86{
fill: #FFFFFF;
}
.g7_86{
fill: #7F7F7F;
}
.g8_86{
fill: #00AEEF;
}
.g9_86{
fill: #CBCEFB;
}
.ga_86{
fill: #EC008C;
}
.gb_86{
fill: #FFFEF5;
}
.gc_86{
fill: none;
stroke: #D6C944;
stroke-width: 0.365;
stroke-linecap: butt;
stroke-linejoin: miter;
}
.gd_86{
fill: #E81A58;
}
.ge_86{
fill: #401A1A;
}
]]></style>
</defs>
<path d="M116.9,159.9H792.5" class="g0_86"/>
<path d="M122.2,208.1c107.4,0,214.7,0,322,0V465.4c-107.3,-9.4,-214.6,-9.4,-322,0Z" class="g1_86"/>
<path d="M122.9,208.8c106.9,0,213.8,0,320.7,0V464.7c-106.9,-9.3,-213.8,-9.3,-320.7,0Z" class="g2_86"/>
<path d="M123.5,209.4c106.5,0,213,0,319.5,0V464.1c-106.5,-9.3,-213,-9.3,-319.5,0Z" class="g3_86"/>
<path d="M124.1,210c106.1,0,212.2,0,318.3,0V463.5c-106.1,-9.4,-212.2,-9.4,-318.3,0Z" class="g4_86"/>
<path d="M124.7,210.6c105.7,0,211.4,0,317,0V462.9c-105.6,-9.4,-211.3,-9.4,-317,0Z" class="g5_86"/>
<path d="M125.4,211.2c105.2,0,210.5,0,315.7,0v251c-105.2,-9.3,-210.5,-9.3,-315.7,0Z" class="g5_86"/>
<path d="M126,211.9c104.8,0,209.7,0,314.5,0V461.6c-104.8,-9.3,-209.7,-9.3,-314.5,0Z" class="g4_86"/>
<path d="M126.6,212.5c104.4,0,208.8,0,313.3,0V461C335.4,451.6,231,451.6,126.6,461Z" class="g3_86"/>
<path d="M127.2,213.1c104,0,208,0,312,0V460.4c-104,-9.4,-208,-9.4,-312,0Z" class="g2_86"/>
<path d="M127.9,213.7c103.5,0,207.1,0,310.7,0v246c-103.6,-9.3,-207.2,-9.3,-310.7,0Z" class="g1_86"/>
<path d="M116.9,455.1V202.8H449.5V455.1Z" class="g6_86"/>
<path d="M119.5,452.5V241.6H446.9V452.5Z" class="g6_86"/>
<path d="M119.5,239V205.4H446.9V239Z" class="g7_86"/>
<g clip-path="url(#c0_86)">
<image x="119" y="205" width="329" height="34" xlink:href="shade/1.png"/>
</g>
<path d="M316.9,233.8h104V210.6h-104v23.2Z" class="g8_86"/>
<path d="M169.1,286.7H397.3M169.5,316.3V287.1" class="g0_86"/>
<path d="M169.9,316.3H316.4V287.1H169.9v29.2Z" class="g9_86"/>
<path d="M316.8,316.3V287.1" class="g0_86"/>
<path d="M317.1,316.3h79.5V287.1H317.1v29.2Z" class="g9_86"/>
<path d="M397,316.3V287.1M169.1,316.7H397.3M169.5,346.3V317.1m147.3,29.2V317.1M397,346.3V317.1M169.1,346.6H397.3M169.5,376.2V347m147.3,29.2V347M397,376.2V347M169.1,376.6H397.3M169.5,406.2V377m147.3,29.2V377M397,406.2V377M169.1,406.6H397.3M169.5,436.1V406.9m147.3,29.2V406.9M397,436.1V406.9M169.1,436.5H397.3" class="g0_86"/>
<path d="M465.2,208.1c107.4,0,214.7,0,322,0V452.6c-107.3,-9.4,-214.6,-9.4,-322,0Z" class="g1_86"/>
<path d="M465.8,208.8c107,0,213.9,0,320.8,0V451.9c-106.9,-9.3,-213.8,-9.3,-320.8,0Z" class="g2_86"/>
<path d="M466.5,209.4c106.5,0,213,0,319.5,0V451.3C679.5,442,573,442,466.5,451.3Z" class="g3_86"/>
<path d="M467.1,210c106.1,0,212.2,0,318.2,0V450.7c-106,-9.4,-212.1,-9.4,-318.2,0Z" class="g4_86"/>
<path d="M467.7,210.6c105.7,0,211.3,0,317,0V450.1c-105.7,-9.4,-211.3,-9.4,-317,0Z" class="g5_86"/>
<path d="M468.3,211.2c105.3,0,210.5,0,315.8,0V449.5c-105.3,-9.4,-210.5,-9.4,-315.8,0Z" class="g5_86"/>
<path d="M469,211.9c104.8,0,209.6,0,314.5,0V448.8c-104.9,-9.3,-209.7,-9.3,-314.5,0Z" class="g4_86"/>
<path d="M469.6,212.5c104.4,0,208.8,0,313.2,0V448.2c-104.4,-9.4,-208.8,-9.4,-313.2,0Z" class="g3_86"/>
<path d="M470.2,213.1c104,0,208,0,312,0V447.6c-104,-9.4,-208,-9.4,-312,0Z" class="g2_86"/>
<path d="M470.8,213.7c103.6,0,207.2,0,310.8,0V447C678,437.6,574.4,437.6,470.8,447Z" class="g1_86"/>
<path d="M459.9,442.3V202.8H792.5V442.3Z" class="g6_86"/>
<path d="M462.5,439.7V241.6H789.9V439.7Z" class="g6_86"/>
<path d="M462.5,239V205.4H789.9V239Z" class="g7_86"/>
<g clip-path="url(#c1_86)">
<image x="462" y="205" width="329" height="34" xlink:href="shade/2.png"/>
</g>
<path d="M675.7,233.8h88.2V210.6H675.7v23.2Z" class="ga_86"/>
<path d="M512.1,274H740.3M512.5,303.5V274.3" class="g0_86"/>
<path d="M512.9,303.5H659.4V274.3H512.9v29.2Z" class="g9_86"/>
<path d="M659.8,303.5V274.3" class="g0_86"/>
<path d="M660.1,303.5h79.5V274.3H660.1v29.2Z" class="g9_86"/>
<path d="M739.9,303.5V274.3M512.1,303.9H740.3M512.5,333.5V304.3m147.3,29.2V304.3m80.1,29.2V304.3M512.1,333.9H740.3M512.5,363.4V334.2m147.3,29.2V334.2m80.1,29.2V334.2M512.1,363.8H740.3M512.5,393.4V364.2m147.3,29.2V364.2m80.1,29.2V364.2M512.1,393.8H740.3M512.5,423.4V394.1m147.3,29.3V394.1m80.1,29.3V394.1M512.1,423.7H740.3" class="g0_86"/>
<path d="M-2.9,679.1V613.6H912.4v65.5Z" class="g6_86"/>
<path d="M-.3,676.5V616.2H909.8v60.3Z" class="gb_86"/>
<path d="M-.3,668.2H909.8M-.3,642.2H909.8M-.3,616.2H909.8M-.3,676.5V616.2m25.9,60.3V616.2m26,60.3V616.2m26,60.3V616.2m26,60.3V616.2m26,60.3V616.2m25.9,60.3V616.2m26,60.3V616.2m26,60.3V616.2m26,60.3V616.2m26,60.3V616.2m26,60.3V616.2m25.9,60.3V616.2m26,60.3V616.2m26,60.3V616.2m26,60.3V616.2m26,60.3V616.2m26,60.3V616.2m26,60.3V616.2m25.9,60.3V616.2m26,60.3V616.2m26,60.3V616.2m26,60.3V616.2m26,60.3V616.2m26,60.3V616.2m25.9,60.3V616.2m26,60.3V616.2m26,60.3V616.2m26,60.3V616.2m26,60.3V616.2m26,60.3V616.2m25.9,60.3V616.2m26,60.3V616.2m26,60.3V616.2m26,60.3V616.2m26,60.3V616.2" class="gc_86"/>
<path d="M116.9,1125.2V776.6c0,-21.6,17.6,-39.1,39.2,-39.1H792.5v387.7Z" class="gd_86"/>
<path d="M119.5,1125.2V770H789.9v355.2Z" class="ge_86"/>
</svg>