<?xml version="1.0" encoding="UTF-8" standalone="no"?>
<!DOCTYPE svg PUBLIC "-//W3C//DTD SVG 1.1//EN"
"http://www.w3.org/Graphics/SVG/1.1/DTD/svg11.dtd">
<svg viewBox="0 0 1286 909" version="1.1" xmlns="http://www.w3.org/2000/svg" xmlns:xlink="http://www.w3.org/1999/xlink">
<defs>
<style type="text/css"><![CDATA[
.g0_1227{
fill: none;
stroke: #000000;
stroke-width: 0.73;
stroke-linecap: butt;
stroke-linejoin: miter;
}
.g1_1227{
fill: #FDE8E9;
}
]]></style>
</defs>
<path d="M193,83.4h900.3M203.9,110.5H496.6M203.9,140.1V110.9m119.2,29.2V110.9m173.5,29.2V110.9M203.9,172.7V140.1m119.2,32.6V140.1" class="g0_1227"/>
<path d="M334.1,169.5H474.8V140.1H334.1v29.4Z" class="g1_1227"/>
<path d="M496.6,172.7V140.1M203.9,202V172.7M323.1,202V172.7M496.6,202V172.7M203.9,231.2V202m119.2,29.2V202m173.5,29.2V202M203.9,265.8V231.2m119.2,34.6V231.2" class="g0_1227"/>
<path d="M334.1,265.8H452.3V231.2H334.1v34.6Z" class="g1_1227"/>
<path d="M496.6,265.8V231.2M203.9,295V265.8M323.1,295V265.8M496.6,295V265.8M203.9,324.3V295m119.2,29.3V295m173.5,29.3V295M203.9,356.9V324.3m119.2,32.6V324.3" class="g0_1227"/>
<path d="M334.1,353.6h97.7V324.3H334.1v29.3Z" class="g1_1227"/>
<path d="M496.6,356.9V324.3M203.9,386.1V356.9m119.2,29.2V356.9m173.5,29.2V356.9M203.9,415.4V386.1m119.2,29.3V386.1m173.5,29.3V386.1M203.9,448V415.4M323.1,448V415.4" class="g0_1227"/>
<path d="M334.1,444.7h95.6V415.3H334.1v29.4Z" class="g1_1227"/>
<path d="M496.6,448V415.4M203.9,477.2V448m119.2,29.2V448m173.5,29.2V448M203.9,506.4V477.2m119.2,29.2V477.2m173.5,29.2V477.2M203.9,541.1V506.4m119.2,34.7V506.4" class="g0_1227"/>
<path d="M334.1,541.1h114V506.4h-114v34.7Z" class="g1_1227"/>
<path d="M496.6,541.1V506.4M203.9,570.3V541.1m119.2,29.2V541.1m173.5,29.2V541.1M203.9,599.5V570.3m119.2,29.2V570.3m173.5,29.2V570.3M203.9,634.1V599.5m119.2,34.6V599.5" class="g0_1227"/>
<path d="M334.1,634.1H485.6V599.5H334.1v34.6Z" class="g1_1227"/>
<path d="M496.6,634.1V599.5M203.9,663.3V634.1m119.2,29.2V634.1m173.5,29.2V634.1M203.9,692.6V663.3m119.2,29.3V663.3m173.5,29.3V663.3M203.9,727.2V692.6m119.2,34.6V692.6" class="g0_1227"/>
<path d="M334.1,727.2h90.5V692.6H334.1v34.6Z" class="g1_1227"/>
<path d="M496.6,727.2V692.6M203.9,756.4V727.2m119.2,29.2V727.2m173.5,29.2V727.2M203.9,756.8H496.6M518.5,109.5H778.2M518.5,139.1V109.9m70.6,29.2V109.9m189.1,29.2V109.9M518.5,173.7V139.1m70.6,34.6V139.1" class="g0_1227"/>
<path d="M600,173.7H737.3V139.1H600v34.6Z" class="g1_1227"/>
<path d="M778.2,173.7V139.1M518.5,203V173.7M589.1,203V173.7M778.2,203V173.7M518.5,232.2V203m70.6,29.2V203m189.1,29.2V203M518.5,266.8V232.2m70.6,34.6V232.2" class="g0_1227"/>
<path d="M600,266.8H767.2V232.2H600v34.6Z" class="g1_1227"/>
<path d="M778.2,266.8V232.2M518.5,296V266.8M589.1,296V266.8M778.2,296V266.8M518.5,325.2V296m70.6,29.2V296m189.1,29.2V296M518.5,357.9V325.2m70.6,32.7V325.2" class="g0_1227"/>
<path d="M600,354.6H719.8V325.2H600v29.4Z" class="g1_1227"/>
<path d="M778.2,357.9V325.2M518.5,387.1V357.9m70.6,29.2V357.9m189.1,29.2V357.9M518.5,416.3V387.1m70.6,29.2V387.1m189.1,29.2V387.1M518.5,451V416.3M589.1,451V416.3" class="g0_1227"/>
<path d="M600,451H715.5V416.3H600V451Z" class="g1_1227"/>
<path d="M778.2,451V416.3M518.5,480.2V451m70.6,29.2V451m189.1,29.2V451M518.5,509.4V480.2m70.6,29.2V480.2m189.1,29.2V480.2M518.5,544V509.4M589.1,544V509.4" class="g0_1227"/>
<path d="M600,544H734.3V509.4H600V544Z" class="g1_1227"/>
<path d="M778.2,544V509.4M518.5,573.2V544m70.6,29.2V544m189.1,29.2V544M518.5,602.5V573.2m70.6,29.3V573.2m189.1,29.3V573.2M518.5,637.1V602.5m70.6,34.6V602.5" class="g0_1227"/>
<path d="M600,637.1h89.5V602.5H600v34.6Z" class="g1_1227"/>
<path d="M778.2,637.1V602.5M518.5,666.3V637.1m70.6,29.2V637.1m189.1,29.2V637.1M518.5,695.5V666.3m70.6,29.2V666.3m189.1,29.2V666.3M518.5,728.2V695.5m70.6,32.7V695.5" class="g0_1227"/>
<path d="M600,724.9h65V695.5H600v29.4Z" class="g1_1227"/>
<path d="M778.2,728.2V695.5M518.5,757.4V728.2m70.6,29.2V728.2m189.1,29.2V728.2M518.5,757.8H778.2M800.1,111.5h239.8M800.1,141.1V111.9M895,141.1V111.9m144.9,29.2V111.9M800.1,175.7V141.1M895,175.7V141.1" class="g0_1227"/>
<path d="M905.9,175.7h122.7V141.1H905.9v34.6Z" class="g1_1227"/>
<path d="M1039.9,175.7V141.1M800.1,204.9V175.7M895,204.9V175.7m144.9,29.2V175.7M800.1,234.2V204.9M895,234.2V204.9m144.9,29.3V204.9M800.1,266.8V234.2M895,266.8V234.2" class="g0_1227"/>
<path d="M905.9,263.5h76.5V234.2H905.9v29.3Z" class="g1_1227"/>
<path d="M1039.9,266.8V234.2M800.1,296V266.8M895,296V266.8M1039.9,296V266.8M800.1,325.2V296M895,325.2V296m144.9,29.2V296M800.1,359.9V325.2M895,359.9V325.2" class="g0_1227"/>
<path d="M905.9,359.9h71.5V325.2H905.9v34.7Z" class="g1_1227"/>
<path d="M1039.9,359.9V325.2M800.1,389.1V359.9M895,389.1V359.9m144.9,29.2V359.9M800.1,418.3V389.1M895,418.3V389.1m144.9,29.2V389.1M800.1,451V418.3M895,451V418.3" class="g0_1227"/>
<path d="M905.9,447.7h85.5V418.3H905.9v29.4Z" class="g1_1227"/>
<path d="M1039.9,451V418.3M800.1,480.2V451M895,480.2V451m144.9,29.2V451M800.1,509.4V480.2M895,509.4V480.2m144.9,29.2V480.2M800.1,542V509.4M895,542V509.4" class="g0_1227"/>
<path d="M905.9,538.8h92.9V509.4H905.9v29.4Z" class="g1_1227"/>
<path d="M1039.9,542V509.4M800.1,571.3V542M895,571.3V542m144.9,29.3V542M800.1,600.5V571.3M895,600.5V571.3m144.9,29.2V571.3M800.1,635.1V600.5M895,635.1V600.5" class="g0_1227"/>
<path d="M905.9,635.1h87.5V600.5H905.9v34.6Z" class="g1_1227"/>
<path d="M1039.9,635.1V600.5M800.1,664.3V635.1M895,664.3V635.1m144.9,29.2V635.1M800.1,693.6V664.3M895,693.6V664.3m144.9,29.3V664.3M800.1,726.2V693.6M895,726.2V693.6" class="g0_1227"/>
<path d="M905.9,722.9h123V693.6h-123v29.3Z" class="g1_1227"/>
<path d="M1039.9,726.2V693.6M800.1,755.4V726.2M895,755.4V726.2m144.9,29.2V726.2M800.1,755.8h239.8" class="g0_1227"/>
</svg>