<?xml version="1.0" encoding="UTF-8" standalone="no"?>
<!DOCTYPE svg PUBLIC "-//W3C//DTD SVG 1.1//EN"
"http://www.w3.org/Graphics/SVG/1.1/DTD/svg11.dtd">
<svg viewBox="0 0 1286 909" version="1.1" xmlns="http://www.w3.org/2000/svg" xmlns:xlink="http://www.w3.org/1999/xlink">
<defs>
<style type="text/css"><![CDATA[
.g0_368{
fill: none;
stroke: #000000;
stroke-width: 0.73;
stroke-linecap: butt;
stroke-linejoin: miter;
}
.g1_368{
fill: none;
stroke: #02B5EE;
stroke-width: 1.262;
stroke-linecap: butt;
stroke-linejoin: miter;
}
.g2_368{
fill: none;
stroke: #5EE200;
stroke-width: 1.262;
stroke-linecap: butt;
stroke-linejoin: miter;
}
.g3_368{
fill: none;
stroke: #5EE200;
stroke-width: 0.73;
stroke-linecap: butt;
stroke-linejoin: miter;
}
.g4_368{
fill: none;
stroke: #02B5EE;
stroke-width: 0.73;
stroke-linecap: butt;
stroke-linejoin: miter;
}
]]></style>
</defs>
<path d="M193,83.4h900.3M193,210.6H770.5m-577.5,0H770.5M433.6,240.2V211m0,58.5V240.2m0,114.3v-85" class="g0_368"/>
<path d="M524.4,330.5h73.1" class="g1_368"/>
<path d="M608.1,330.5h22.1" class="g2_368"/>
<path d="M433.6,383.7V354.5m0,102.3V383.7" class="g0_368"/>
<path d="M547.3,442.9h34.3" class="g3_368"/>
<path d="M708.9,442.9h50.7" class="g4_368"/>
<path d="M433.6,486V456.8m0,58.4V486m0,114.2v-85" class="g0_368"/>
<path d="M462.4,576.2h101" class="g1_368"/>
<path d="M573.9,576.2h22.2" class="g2_368"/>
<path d="M433.6,629.5V600.2m0,102.3v-73" class="g0_368"/>
<path d="M530.4,688.6h34.3" class="g3_368"/>
<path d="M692,688.6h67.6" class="g4_368"/>
<path d="M433.6,731.7V702.5m0,58.5V731.7M193,761.3H770.5m-577.5,0H770.5" class="g0_368"/>
</svg>