<?xml version="1.0" encoding="UTF-8" standalone="no"?>
<!DOCTYPE svg PUBLIC "-//W3C//DTD SVG 1.1//EN"
"http://www.w3.org/Graphics/SVG/1.1/DTD/svg11.dtd">
<svg viewBox="0 0 1286 909" version="1.1" xmlns="http://www.w3.org/2000/svg" xmlns:xlink="http://www.w3.org/1999/xlink">
<defs>
<style type="text/css"><![CDATA[
.g0_1212{
fill: none;
stroke: #000000;
stroke-width: 0.73;
stroke-linecap: butt;
stroke-linejoin: miter;
}
.g1_1212{
fill: #FDE8E9;
}
]]></style>
</defs>
<path d="M193,83.4h900.3M203.9,111.5H436.4M203.9,141.1V111.9m70.6,29.2V111.9m161.9,29.2V111.9M203.9,173.7V141.1m70.6,32.6V141.1" class="g0_1212"/>
<path d="M285.4,170.4h75.5V141.1H285.4v29.3Z" class="g1_1212"/>
<path d="M436.4,173.7V141.1M203.9,203V173.7M274.5,203V173.7M436.4,203V173.7M203.9,232.2V203m70.6,29.2V203m161.9,29.2V203M203.9,264.8V232.2m70.6,32.6V232.2" class="g0_1212"/>
<path d="M285.4,261.5h85.8V232.2H285.4v29.3Z" class="g1_1212"/>
<path d="M436.4,264.8V232.2M203.9,294V264.8M274.5,294V264.8M436.4,294V264.8M203.9,323.3V294m70.6,29.3V294m161.9,29.3V294M203.9,355.9V323.3m70.6,32.6V323.3" class="g0_1212"/>
<path d="M285.4,352.6h70.3V323.3H285.4v29.3Z" class="g1_1212"/>
<path d="M436.4,355.9V323.3M203.9,385.1V355.9m70.6,29.2V355.9m161.9,29.2V355.9M203.9,414.4V385.1m70.6,29.3V385.1m161.9,29.3V385.1M203.9,447V414.4M274.5,447V414.4" class="g0_1212"/>
<path d="M285.4,443.7H395V414.4H285.4v29.3Z" class="g1_1212"/>
<path d="M436.4,447V414.4M203.9,476.2V447m70.6,29.2V447m161.9,29.2V447M203.9,505.5V476.2m70.6,29.3V476.2m161.9,29.3V476.2M203.9,538.1V505.5m70.6,32.6V505.5" class="g0_1212"/>
<path d="M285.4,534.8H400.5V505.5H285.4v29.3Z" class="g1_1212"/>
<path d="M436.4,538.1V505.5M203.9,567.3V538.1m70.6,29.2V538.1m161.9,29.2V538.1M203.9,596.5V567.3m70.6,29.2V567.3m161.9,29.2V567.3M203.9,631.2V596.5m70.6,34.7V596.5" class="g0_1212"/>
<path d="M285.4,631.2H425.5V596.5H285.4v34.7Z" class="g1_1212"/>
<path d="M436.4,631.2V596.5M203.9,660.4V631.2m70.6,29.2V631.2m161.9,29.2V631.2M203.9,689.6V660.4m70.6,29.2V660.4m161.9,29.2V660.4M203.9,722.3V689.6m70.6,32.7V689.6" class="g0_1212"/>
<path d="M285.4,719h60V689.6h-60V719Z" class="g1_1212"/>
<path d="M436.4,722.3V689.6M203.9,751.5V722.3m70.6,29.2V722.3m161.9,29.2V722.3M203.9,751.8H436.4m22,-642.3H699M458.4,139.1V109.9m70.5,29.2V109.9M699,139.1V109.9M458.4,171.8V139.1m70.5,32.7V139.1" class="g0_1212"/>
<path d="M539.9,168.5H648.4V139.1H539.9v29.4Z" class="g1_1212"/>
<path d="M699,171.8V139.1M458.4,201V171.8M528.9,201V171.8M699,201V171.8M458.4,230.2V201m70.5,29.2V201M699,230.2V201M458.4,264.8V230.2m70.5,34.6V230.2" class="g0_1212"/>
<path d="M539.9,264.8H688V230.2H539.9v34.6Z" class="g1_1212"/>
<path d="M699,264.8V230.2M458.4,294V264.8M528.9,294V264.8M699,294V264.8M458.4,323.3V294m70.5,29.3V294M699,323.3V294M458.4,355.9V323.3m70.5,32.6V323.3" class="g0_1212"/>
<path d="M539.9,352.6h94.5V323.3H539.9v29.3Z" class="g1_1212"/>
<path d="M699,355.9V323.3M458.4,385.1V355.9m70.5,29.2V355.9M699,385.1V355.9M458.4,414.4V385.1m70.5,29.3V385.1M699,414.4V385.1M458.4,447V414.4M528.9,447V414.4" class="g0_1212"/>
<path d="M539.9,443.7h56.4V414.4H539.9v29.3Z" class="g1_1212"/>
<path d="M699,447V414.4M458.4,476.2V447m70.5,29.2V447M699,476.2V447M458.4,505.5V476.2m70.5,29.3V476.2M699,505.5V476.2M458.4,540.1V505.5m70.5,34.6V505.5" class="g0_1212"/>
<path d="M539.9,540.1h85.6V505.5H539.9v34.6Z" class="g1_1212"/>
<path d="M699,540.1V505.5M458.4,569.3V540.1m70.5,29.2V540.1M699,569.3V540.1M458.4,598.5V569.3m70.5,29.2V569.3M699,598.5V569.3M458.4,633.1V598.5m70.5,34.6V598.5" class="g0_1212"/>
<path d="M539.9,633.1h89.9V598.5H539.9v34.6Z" class="g1_1212"/>
<path d="M699,633.1V598.5M458.4,662.4V633.1m70.5,29.3V633.1M699,662.4V633.1M458.4,691.6V662.4m70.5,29.2V662.4M699,691.6V662.4M458.4,724.2V691.6m70.5,32.6V691.6" class="g0_1212"/>
<path d="M539.9,720.9H666.5V691.6H539.9v29.3Z" class="g1_1212"/>
<path d="M699,724.2V691.6M458.4,753.5V724.2m70.5,29.3V724.2M699,753.5V724.2M458.4,753.8H699m21.9,-642H973.3M720.9,141.3V112.1m70.6,29.2V112.1m181.8,29.2V112.1M720.9,174V141.3M791.5,174V141.3" class="g0_1212"/>
<path d="M802.4,170.7H912.5V141.3H802.4v29.4Z" class="g1_1212"/>
<path d="M973.3,174V141.3M720.9,203.2V174m70.6,29.2V174m181.8,29.2V174M720.9,232.4V203.2m70.6,29.2V203.2m181.8,29.2V203.2M720.9,265.1V232.4m70.6,32.7V232.4" class="g0_1212"/>
<path d="M802.4,261.8H902V232.4H802.4v29.4Z" class="g1_1212"/>
<path d="M973.3,265.1V232.4M720.9,294.3V265.1m70.6,29.2V265.1m181.8,29.2V265.1M720.9,323.5V294.3m70.6,29.2V294.3m181.8,29.2V294.3M720.9,358.1V323.5m70.6,34.6V323.5" class="g0_1212"/>
<path d="M802.4,358.1H962.3V323.5H802.4v34.6Z" class="g1_1212"/>
<path d="M973.3,358.1V323.5M720.9,387.4V358.1m70.6,29.3V358.1m181.8,29.3V358.1M720.9,416.6V387.4m70.6,29.2V387.4m181.8,29.2V387.4M720.9,451.2V416.6m70.6,34.6V416.6" class="g0_1212"/>
<path d="M802.4,451.2h81.9V416.6H802.4v34.6Z" class="g1_1212"/>
<path d="M973.3,451.2V416.6M720.9,480.4V451.2m70.6,29.2V451.2m181.8,29.2V451.2M720.9,509.7V480.4m70.6,29.3V480.4m181.8,29.3V480.4M720.9,539.8V509.7m70.6,30.1V509.7" class="g0_1212"/>
<path d="M802.4,536.5H920.1V513.2H802.4v23.3Z" class="g1_1212"/>
<path d="M973.3,539.8V509.7M720.9,569V539.8M791.5,569V539.8M973.3,569V539.8M720.9,598.3V569m70.6,29.3V569m181.8,29.3V569M720.9,630.9V598.3m70.6,32.6V598.3" class="g0_1212"/>
<path d="M802.4,627.6H910V598.3H802.4v29.3Z" class="g1_1212"/>
<path d="M973.3,630.9V598.3M720.9,660.1V630.9m70.6,29.2V630.9m181.8,29.2V630.9M720.9,689.4V660.1m70.6,29.3V660.1m181.8,29.3V660.1M720.9,722V689.4M791.5,722V689.4" class="g0_1212"/>
<path d="M802.4,718.7h74.7V689.4H802.4v29.3Z" class="g1_1212"/>
<path d="M973.3,722V689.4M720.9,751.2V722m70.6,29.2V722m181.8,29.2V722M720.9,751.6H973.3" class="g0_1212"/>
</svg>