<?xml version="1.0" encoding="UTF-8" standalone="no"?>
<!DOCTYPE svg PUBLIC "-//W3C//DTD SVG 1.1//EN"
"http://www.w3.org/Graphics/SVG/1.1/DTD/svg11.dtd">
<svg viewBox="0 0 1286 909" version="1.1" xmlns="http://www.w3.org/2000/svg" xmlns:xlink="http://www.w3.org/1999/xlink">
<defs>
<style type="text/css"><![CDATA[
.g0_739{
fill: none;
stroke: #000000;
stroke-width: 0.73;
stroke-linecap: butt;
stroke-linejoin: miter;
}
.g1_739{
fill: #FFCCCC;
}
.g2_739{
fill: #AEF080;
}
.g3_739{
fill: none;
stroke: #5EE200;
stroke-width: 1.461;
stroke-linecap: butt;
stroke-linejoin: miter;
stroke-dasharray: 2,2;
}
.g4_739{
fill: #E6CEEE;
}
]]></style>
</defs>
<path d="M193,83.4h900.3M193,210.6H926.9m-733.9,0H926.9M506.5,240.2V211m0,58.5V240.2m0,63.2V269.5" class="g0_739"/>
<path d="M682.2,303.4h59.6V270.5H682.2v32.9Z" class="g1_739"/>
<path d="M752.3,303.4h85.6V270.5H752.3v32.9Z" class="g2_739"/>
<path d="M852.1,297h60.2" class="g3_739"/>
<path d="M506.5,332.6V303.4m0,62.1V332.6" class="g0_739"/>
<path d="M788.9,361.1h32.6" class="g3_739"/>
<path d="M825.1,365.5h44.8V332.6H825.1v32.9Z" class="g2_739"/>
<path d="M876,365.5h40V332.6H876v32.9Z" class="g1_739"/>
<path d="M506.5,394.7V365.5m0,58.4V394.7m0,60.6V423.9m0,60.6V455.3m0,58.4V484.5m0,63.2v-34" class="g0_739"/>
<path d="M604.4,547.7h59.5V514.8H604.4v32.9Z" class="g1_739"/>
<path d="M674.4,547.7H823.3V514.8H674.4v32.9Z" class="g2_739"/>
<path d="M837.4,541.3h74.9" class="g3_739"/>
<path d="M506.5,577.8V547.7m0,63V577.8" class="g0_739"/>
<path d="M628.4,606.4H804.6" class="g3_739"/>
<path d="M808.2,610.7H853V577.8H808.2v32.9Z" class="g2_739"/>
<path d="M859.1,610.7H916V577.8H859.1v32.9Z" class="g1_739"/>
<path d="M506.5,639.9V610.7m0,58.5V639.9m0,64.1V669.2" class="g0_739"/>
<path d="M629.8,704H742.3V671.1H629.8V704Z" class="g4_739"/>
<path d="M506.5,733.2V704M193,733.6H926.9m-733.9,0H926.9" class="g0_739"/>
</svg>