<?xml version="1.0" encoding="UTF-8" standalone="no"?>
<!DOCTYPE svg PUBLIC "-//W3C//DTD SVG 1.1//EN"
"http://www.w3.org/Graphics/SVG/1.1/DTD/svg11.dtd">
<svg viewBox="0 0 909 1286" version="1.1" xmlns="http://www.w3.org/2000/svg" xmlns:xlink="http://www.w3.org/1999/xlink">
<defs>
<style type="text/css"><![CDATA[
.g0_24{
fill: none;
stroke: #000000;
stroke-width: 1.461;
stroke-linecap: butt;
stroke-linejoin: miter;
}
.g1_24{
fill: none;
stroke: #000000;
stroke-width: 0.152;
stroke-linecap: butt;
stroke-linejoin: miter;
}
.g2_24{
fill: none;
stroke: #000000;
stroke-width: 0.73;
stroke-linecap: butt;
stroke-linejoin: miter;
}
.g3_24{
fill: none;
stroke: #F81693;
stroke-width: 1.278;
stroke-linecap: butt;
stroke-linejoin: miter;
}
.g4_24{
fill: #F81693;
stroke: #F81693;
stroke-width: 1.155;
stroke-linecap: butt;
stroke-linejoin: round;
stroke-miterlimit: 1;
}
.g5_24{
fill: #7F7F7F;
stroke: #7F7F7F;
stroke-width: 1.155;
stroke-linecap: butt;
stroke-linejoin: round;
stroke-miterlimit: 1;
}
.g6_24{
fill: none;
stroke: #02B5EE;
stroke-width: 1.278;
stroke-linecap: butt;
stroke-linejoin: miter;
}
.g7_24{
fill: none;
stroke: #F81693;
stroke-width: 1.107;
stroke-linecap: butt;
stroke-linejoin: miter;
}
.g8_24{
fill: #F81693;
stroke: #F81693;
stroke-width: 1;
stroke-linecap: butt;
stroke-linejoin: round;
stroke-miterlimit: 1;
}
.g9_24{
fill: none;
stroke: #02B5EE;
stroke-width: 1.107;
stroke-linecap: butt;
stroke-linejoin: miter;
}
.ga_24{
fill: #7F7F7F;
stroke: #7F7F7F;
stroke-width: 1;
stroke-linecap: butt;
stroke-linejoin: round;
stroke-miterlimit: 1;
}
]]></style>
</defs>
<path d="M117.7,371.2V198.5m18.2,-18.2H655.7" class="g0_24"/>
<path d="M117.3,198.5h.7" class="g1_24"/>
<path d="M135.9,180.3h17.9" class="g2_24"/>
<path d="M792.9,198.5h.7" class="g1_24"/>
<path d="M756.3,180.3h17.9M455.5,299.6l31.2,18.6m0,36.8V318.4M424.2,355h62.5m-62.5,0V318.4m31.3,-18.8l-31.3,18.6m6,32v-27m87.7,-23.6l31.3,18.6m0,36.8V318.4m-31.3,55.4l31.3,-18.7m-31.3,18.7L486.7,355.1m31.2,-55.5l-31.2,18.6m56.4,32v-27m-26.3,42.9l-23,-13.7M393,299.6l31.2,18.6M393,373.8l31.2,-18.7M393,373.8L361.7,355.1m0,-.1V318.4M393,299.6l-31.3,18.6m30.2,-10.9l-23,13.7m23,45.1l-23,-13.7M486.7,244.3l31.2,18.6m0,36.7V263.1m-31.2,55.3l31.2,-18.6m-31.2,18.6L455.5,299.8m0,-.2V263.1m31.2,-18.8l-31.2,18.6m30.1,-11l-23,13.7m49.3,29.3V267.8m-26.3,43l-23,-13.7" class="g2_24"/>
<path d="M117.3,371.6h.7" class="g1_24"/>
<path d="M135.9,389.8h17.9" class="g2_24"/>
<path d="M792.9,371.6h.7" class="g1_24"/>
<path d="M756.3,389.8h17.9" class="g2_24"/>
<path d="M135.9,389.5H775m18.2,-18.3V198.5" class="g0_24"/>
<path d="M280.7,537.8l54.7,32.6m0,64.2V570.7M226,634.6H335.4m-109.4,0V570.7m54.7,-32.9L226,570.4m10.6,55.9V579" class="g3_24"/>
<path d="M343.5,570.7c0,3.5,-2.3,6.6,-5.6,7.7c-3.4,1.1,-7,-.1,-9.1,-3c-2,-2.8,-2,-6.6,0,-9.5c2.1,-2.8,5.7,-4,9.1,-2.9c3.3,1.1,5.6,4.2,5.6,7.7Z" class="g4_24"/>
<path d="M390,537.8l54.7,32.6m0,64.2V570.7M390,667.5l54.7,-32.6M390,667.5L335.4,634.9M390,537.8l-54.6,32.6m98.7,55.9V579m-46,75.1l-40.3,-24" class="g3_24"/>
<path d="M398.1,537.8c0,3.5,-2.2,6.6,-5.6,7.7c-3.3,1,-7,-.2,-9,-3c-2.1,-2.8,-2.1,-6.7,0,-9.5c2,-2.8,5.7,-4,9,-2.9c3.4,1.1,5.6,4.2,5.6,7.7Z" class="g5_24"/>
<path d="M452.8,570.7c0,3.5,-2.3,6.6,-5.6,7.7c-3.3,1.1,-7,-.1,-9.1,-3c-2,-2.8,-2,-6.6,0,-9.5c2.1,-2.8,5.8,-4,9.1,-2.9c3.3,1.1,5.6,4.2,5.6,7.7Z" class="g5_24"/>
<path d="M171.4,537.8L226,570.4m-54.6,97.1L226,634.9m-54.6,32.6L116.7,634.9m0,-.3V570.7m54.7,-32.9l-54.7,32.6m52.8,-19.2l-40.3,24m40.3,78.9l-40.3,-24" class="g3_24"/>
<path d="M335.4,440.9L390,473.5m0,64.3v-64m-54.6,96.9L390,538.1m-54.6,32.6L280.7,538.1m0,-.3v-64m54.7,-32.9l-54.7,32.6m52.7,-19.2l-40.2,24m86.3,51.1V482.1m-46.1,75.2l-40.2,-24" class="g6_24"/>
<path d="M668.8,619.4L637.7,563.9m32.2,-55.7l-32,55.4m126.6,-.7L669.9,508.2m94.6,54.7l-31.9,55.3m-63.8,1.2l63.6,-.9m18.8,-53.7l-23.6,41" class="g7_24"/>
<path d="M757.5,558.8c1.8,-3,5.3,-4.6,8.7,-3.8c3.4,.7,6,3.5,6.4,7c.3,3.5,-1.6,6.8,-4.8,8.3c-3.2,1.4,-6.9,.6,-9.3,-2c-2.3,-2.6,-2.7,-6.4,-1,-9.5Z" class="g8_24"/>
<path d="M574.1,564.8l-31,-55.6m32.1,-55.7l-32,55.4M639,452.4l-63.7,.9m63.7,-.9l31,55.5m-95.9,56.9l63.6,-.9M580.2,466l-23.7,41m77.4,-42.1l22.9,41" class="g9_24"/>
<path d="M763.4,674.1l-31,-55.6m95.9,-56.8l-63.6,.9m63.6,-.9l31.1,55.6m-.2,.2l-32,55.4m-63.8,1.2l63.7,-.9m-55.3,-9.8l46.9,-.6m4.6,-88.5l22.9,40.9" class="g7_24"/>
<path d="M821.3,557.6c1.8,-3,5.3,-4.6,8.7,-3.8c3.4,.7,6,3.6,6.4,7c.3,3.5,-1.6,6.8,-4.8,8.3c-3.2,1.4,-6.9,.6,-9.3,-2c-2.3,-2.6,-2.7,-6.4,-1,-9.5Z" class="ga_24"/>
<path d="M852.2,613.5c1.8,-3,5.3,-4.6,8.7,-3.9c3.4,.8,6,3.6,6.4,7.1c.3,3.5,-1.6,6.8,-4.8,8.2c-3.2,1.4,-7,.6,-9.3,-2c-2.3,-2.6,-2.7,-6.4,-1,-9.4Z" class="ga_24"/>
<path d="M573,676L542,620.4m32.1,-55.6l-32,55.3m95.8,-56.5l-63.6,.9m63.6,-.9l31,55.5m-.1,.3l-32,55.4M573,676l63.6,-.9m-55.2,-9.8l46.8,-.6M579.1,577.2l-23.7,41m77.4,-42l22.9,40.9" class="g7_24"/>
</svg>