<?xml version="1.0" encoding="UTF-8" standalone="no"?>
<!DOCTYPE svg PUBLIC "-//W3C//DTD SVG 1.1//EN"
"http://www.w3.org/Graphics/SVG/1.1/DTD/svg11.dtd">
<svg viewBox="0 0 909 1286" version="1.1" xmlns="http://www.w3.org/2000/svg" xmlns:xlink="http://www.w3.org/1999/xlink">
<defs>
<clipPath id="c0_64"><path d="M117.7,210.9V180.2H765.8v30.7Z"/></clipPath>
<style type="text/css"><![CDATA[
.g0_64{
fill: none;
stroke: #000000;
stroke-width: 0.73;
stroke-linecap: butt;
stroke-linejoin: miter;
}
.g1_64{
fill: #7F7F7F;
}
.g2_64{
fill: #FFFFFF;
}
.g3_64{
fill: #FFFFFF;
stroke: #000000;
stroke-width: 0.73;
stroke-linecap: butt;
stroke-linejoin: miter;
}
.g4_64{
fill: none;
stroke: #000000;
stroke-width: 3.47;
stroke-linecap: butt;
stroke-linejoin: miter;
}
.g5_64{
fill: none;
stroke: #CDCDB4;
stroke-width: 2.739;
stroke-linecap: butt;
stroke-linejoin: miter;
}
]]></style>
</defs>
<path d="M116.9,159.9H792.5" class="g0_64"/>
<path d="M116.9,1136.9V179.5H766.5v957.4Z" class="g1_64"/>
<path d="M117.7,1136.9V211.6H765.8v925.3Z" class="g2_64"/>
<path d="M117.7,210.9V180.2H765.8v30.7Z" class="g1_64"/>
<g clip-path="url(#c0_64)">
<image x="117" y="179" width="650" height="32" xlink:href="shade/1.png"/>
</g>
<path d="M142.6,222c0,-3,-2.4,-5.5,-5.4,-5.5c-3.1,0,-5.5,2.5,-5.5,5.5c0,3.1,2.4,5.5,5.5,5.5c3,0,5.4,-2.4,5.4,-5.5Z" class="g3_64"/>
<path d="M137.2,222c6.4,1.6,5.4,3.9,-2.3,5.2c-7.7,1.3,-19.2,1.1,-25.7,-.5c-4.2,-1,-5.4,-2.3,-3.2,-3.6c1.8,-1,5.8,-1.8,10.9,-2.2" class="g4_64"/>
<path d="M137.2,222c6.4,1.6,5.4,3.9,-2.3,5.2c-7.7,1.3,-19.2,1.1,-25.7,-.5c-4.2,-1,-5.4,-2.3,-3.2,-3.6c1.8,-1,5.8,-1.8,10.9,-2.2" class="g5_64"/>
<path d="M142.6,246.4c0,-3.1,-2.4,-5.5,-5.4,-5.5c-3.1,0,-5.5,2.4,-5.5,5.5c0,3,2.4,5.4,5.5,5.4c3,0,5.4,-2.4,5.4,-5.4Z" class="g3_64"/>
<path d="M137.2,246.4c6.4,1.5,5.4,3.8,-2.3,5.1c-7.7,1.3,-19.2,1.1,-25.7,-.4c-4.2,-1,-5.4,-2.4,-3.2,-3.6c1.8,-1.1,5.8,-1.9,10.9,-2.2" class="g4_64"/>
<path d="M137.2,246.4c6.4,1.5,5.4,3.8,-2.3,5.1c-7.7,1.3,-19.2,1.1,-25.7,-.4c-4.2,-1,-5.4,-2.4,-3.2,-3.6c1.8,-1.1,5.8,-1.9,10.9,-2.2" class="g5_64"/>
<path d="M142.6,270.7c0,-3,-2.4,-5.5,-5.4,-5.5c-3.1,0,-5.5,2.5,-5.5,5.5c0,3,2.4,5.5,5.5,5.5c3,0,5.4,-2.5,5.4,-5.5Z" class="g3_64"/>
<path d="M137.2,270.7c6.4,1.5,5.4,3.8,-2.3,5.1c-7.7,1.3,-19.2,1.1,-25.7,-.4c-4.2,-1,-5.4,-2.4,-3.2,-3.6c1.8,-1,5.8,-1.8,10.9,-2.2" class="g4_64"/>
<path d="M137.2,270.7c6.4,1.5,5.4,3.8,-2.3,5.1c-7.7,1.3,-19.2,1.1,-25.7,-.4c-4.2,-1,-5.4,-2.4,-3.2,-3.6c1.8,-1,5.8,-1.8,10.9,-2.2" class="g5_64"/>
<path d="M142.6,295c0,-3,-2.4,-5.5,-5.4,-5.5c-3.1,0,-5.5,2.5,-5.5,5.5c0,3,2.4,5.5,5.5,5.5c3,0,5.4,-2.5,5.4,-5.5Z" class="g3_64"/>
<path d="M137.2,295c6.4,1.6,5.4,3.9,-2.3,5.2c-7.7,1.3,-19.2,1.1,-25.7,-.5c-4.2,-1,-5.4,-2.4,-3.2,-3.6c1.8,-1,5.8,-1.8,10.9,-2.2" class="g4_64"/>
<path d="M137.2,295c6.4,1.6,5.4,3.9,-2.3,5.2c-7.7,1.3,-19.2,1.1,-25.7,-.5c-4.2,-1,-5.4,-2.4,-3.2,-3.6c1.8,-1,5.8,-1.8,10.9,-2.2" class="g5_64"/>
<path d="M142.6,319.3c0,-3,-2.4,-5.4,-5.4,-5.4c-3.1,0,-5.5,2.4,-5.5,5.4c0,3.1,2.4,5.5,5.5,5.5c3,0,5.4,-2.4,5.4,-5.5Z" class="g3_64"/>
<path d="M137.2,319.3c6.4,1.6,5.4,3.9,-2.3,5.2c-7.7,1.3,-19.2,1.1,-25.7,-.5c-4.2,-1,-5.4,-2.3,-3.2,-3.6c1.8,-1,5.8,-1.8,10.9,-2.1" class="g4_64"/>
<path d="M137.2,319.3c6.4,1.6,5.4,3.9,-2.3,5.2c-7.7,1.3,-19.2,1.1,-25.7,-.5c-4.2,-1,-5.4,-2.3,-3.2,-3.6c1.8,-1,5.8,-1.8,10.9,-2.1" class="g5_64"/>
<path d="M142.6,343.7c0,-3.1,-2.4,-5.5,-5.4,-5.5c-3.1,0,-5.5,2.4,-5.5,5.5c0,3,2.4,5.5,5.5,5.5c3,0,5.4,-2.5,5.4,-5.5Z" class="g3_64"/>
<path d="M137.2,343.7c6.4,1.5,5.4,3.8,-2.3,5.1c-7.7,1.3,-19.2,1.1,-25.7,-.4c-4.2,-1,-5.4,-2.4,-3.2,-3.6c1.8,-1,5.8,-1.8,10.9,-2.2" class="g4_64"/>
<path d="M137.2,343.7c6.4,1.5,5.4,3.8,-2.3,5.1c-7.7,1.3,-19.2,1.1,-25.7,-.4c-4.2,-1,-5.4,-2.4,-3.2,-3.6c1.8,-1,5.8,-1.8,10.9,-2.2" class="g5_64"/>
<path d="M142.6,368c0,-3,-2.4,-5.5,-5.4,-5.5c-3.1,0,-5.5,2.5,-5.5,5.5c0,3,2.4,5.5,5.5,5.5c3,0,5.4,-2.5,5.4,-5.5Z" class="g3_64"/>
<path d="M137.2,368c6.4,1.5,5.4,3.9,-2.3,5.1c-7.7,1.3,-19.2,1.1,-25.7,-.4c-4.2,-1,-5.4,-2.4,-3.2,-3.6c1.8,-1,5.8,-1.8,10.9,-2.2" class="g4_64"/>
<path d="M137.2,368c6.4,1.5,5.4,3.9,-2.3,5.1c-7.7,1.3,-19.2,1.1,-25.7,-.4c-4.2,-1,-5.4,-2.4,-3.2,-3.6c1.8,-1,5.8,-1.8,10.9,-2.2" class="g5_64"/>
<path d="M142.6,392.3c0,-3,-2.4,-5.4,-5.4,-5.4c-3.1,0,-5.5,2.4,-5.5,5.4c0,3.1,2.4,5.5,5.5,5.5c3,0,5.4,-2.4,5.4,-5.5Z" class="g3_64"/>
<path d="M137.2,392.3c6.4,1.6,5.4,3.9,-2.3,5.2c-7.7,1.3,-19.2,1.1,-25.7,-.5c-4.2,-1,-5.4,-2.3,-3.2,-3.6c1.8,-1,5.8,-1.8,10.9,-2.2" class="g4_64"/>
<path d="M137.2,392.3c6.4,1.6,5.4,3.9,-2.3,5.2c-7.7,1.3,-19.2,1.1,-25.7,-.5c-4.2,-1,-5.4,-2.3,-3.2,-3.6c1.8,-1,5.8,-1.8,10.9,-2.2" class="g5_64"/>
<path d="M142.6,416.7c0,-3.1,-2.4,-5.5,-5.4,-5.5c-3.1,0,-5.5,2.4,-5.5,5.5c0,3,2.4,5.4,5.5,5.4c3,0,5.4,-2.4,5.4,-5.4Z" class="g3_64"/>
<path d="M137.2,416.7c6.4,1.5,5.4,3.8,-2.3,5.1c-7.7,1.3,-19.2,1.1,-25.7,-.4c-4.2,-1,-5.4,-2.4,-3.2,-3.6c1.8,-1.1,5.8,-1.9,10.9,-2.2" class="g4_64"/>
<path d="M137.2,416.7c6.4,1.5,5.4,3.8,-2.3,5.1c-7.7,1.3,-19.2,1.1,-25.7,-.4c-4.2,-1,-5.4,-2.4,-3.2,-3.6c1.8,-1.1,5.8,-1.9,10.9,-2.2" class="g5_64"/>
<path d="M142.6,441c0,-3,-2.4,-5.5,-5.4,-5.5c-3.1,0,-5.5,2.5,-5.5,5.5c0,3,2.4,5.5,5.5,5.5c3,0,5.4,-2.5,5.4,-5.5Z" class="g3_64"/>
<path d="M137.2,441c6.4,1.5,5.4,3.8,-2.3,5.1c-7.7,1.3,-19.2,1.1,-25.7,-.4c-4.2,-1,-5.4,-2.4,-3.2,-3.6c1.8,-1,5.8,-1.8,10.9,-2.2" class="g4_64"/>
<path d="M137.2,441c6.4,1.5,5.4,3.8,-2.3,5.1c-7.7,1.3,-19.2,1.1,-25.7,-.4c-4.2,-1,-5.4,-2.4,-3.2,-3.6c1.8,-1,5.8,-1.8,10.9,-2.2" class="g5_64"/>
<path d="M142.6,465.3c0,-3,-2.4,-5.5,-5.4,-5.5c-3.1,0,-5.5,2.5,-5.5,5.5c0,3,2.4,5.5,5.5,5.5c3,0,5.4,-2.5,5.4,-5.5Z" class="g3_64"/>
<path d="M137.2,465.3c6.4,1.6,5.4,3.9,-2.3,5.2c-7.7,1.3,-19.2,1.1,-25.7,-.5c-4.2,-1,-5.4,-2.4,-3.2,-3.6c1.8,-1,5.8,-1.8,10.9,-2.2" class="g4_64"/>
<path d="M137.2,465.3c6.4,1.6,5.4,3.9,-2.3,5.2c-7.7,1.3,-19.2,1.1,-25.7,-.5c-4.2,-1,-5.4,-2.4,-3.2,-3.6c1.8,-1,5.8,-1.8,10.9,-2.2" class="g5_64"/>
<path d="M142.6,489.6c0,-3,-2.4,-5.4,-5.4,-5.4c-3.1,0,-5.5,2.4,-5.5,5.4c0,3.1,2.4,5.5,5.5,5.5c3,0,5.4,-2.4,5.4,-5.5Z" class="g3_64"/>
<path d="M137.2,489.6c6.4,1.6,5.4,3.9,-2.3,5.2c-7.7,1.3,-19.2,1.1,-25.7,-.5c-4.2,-1,-5.4,-2.3,-3.2,-3.6c1.8,-1,5.8,-1.8,10.9,-2.1" class="g4_64"/>
<path d="M137.2,489.6c6.4,1.6,5.4,3.9,-2.3,5.2c-7.7,1.3,-19.2,1.1,-25.7,-.5c-4.2,-1,-5.4,-2.3,-3.2,-3.6c1.8,-1,5.8,-1.8,10.9,-2.1" class="g5_64"/>
<path d="M142.6,514c0,-3,-2.4,-5.5,-5.4,-5.5c-3.1,0,-5.5,2.5,-5.5,5.5c0,3,2.4,5.5,5.5,5.5c3,0,5.4,-2.5,5.4,-5.5Z" class="g3_64"/>
<path d="M137.2,514c6.4,1.5,5.4,3.8,-2.3,5.1c-7.7,1.3,-19.2,1.1,-25.7,-.4c-4.2,-1,-5.4,-2.4,-3.2,-3.6c1.8,-1,5.8,-1.8,10.9,-2.2" class="g4_64"/>
<path d="M137.2,514c6.4,1.5,5.4,3.8,-2.3,5.1c-7.7,1.3,-19.2,1.1,-25.7,-.4c-4.2,-1,-5.4,-2.4,-3.2,-3.6c1.8,-1,5.8,-1.8,10.9,-2.2" class="g5_64"/>
<path d="M142.6,538.3c0,-3,-2.4,-5.5,-5.4,-5.5c-3.1,0,-5.5,2.5,-5.5,5.5c0,3,2.4,5.5,5.5,5.5c3,0,5.4,-2.5,5.4,-5.5Z" class="g3_64"/>
<path d="M137.2,538.3c6.4,1.6,5.4,3.9,-2.3,5.2c-7.7,1.2,-19.2,1,-25.7,-.5c-4.2,-1,-5.4,-2.4,-3.2,-3.6c1.8,-1,5.8,-1.8,10.9,-2.2" class="g4_64"/>
<path d="M137.2,538.3c6.4,1.6,5.4,3.9,-2.3,5.2c-7.7,1.2,-19.2,1,-25.7,-.5c-4.2,-1,-5.4,-2.4,-3.2,-3.6c1.8,-1,5.8,-1.8,10.9,-2.2" class="g5_64"/>
<path d="M142.6,562.6c0,-3,-2.4,-5.4,-5.4,-5.4c-3.1,0,-5.5,2.4,-5.5,5.4c0,3.1,2.4,5.5,5.5,5.5c3,0,5.4,-2.4,5.4,-5.5Z" class="g3_64"/>
<path d="M137.2,562.6c6.4,1.6,5.4,3.9,-2.3,5.2c-7.7,1.3,-19.2,1.1,-25.7,-.5c-4.2,-1,-5.4,-2.3,-3.2,-3.6c1.8,-1,5.8,-1.8,10.9,-2.1" class="g4_64"/>
<path d="M137.2,562.6c6.4,1.6,5.4,3.9,-2.3,5.2c-7.7,1.3,-19.2,1.1,-25.7,-.5c-4.2,-1,-5.4,-2.3,-3.2,-3.6c1.8,-1,5.8,-1.8,10.9,-2.1" class="g5_64"/>
<path d="M142.6,587c0,-3.1,-2.4,-5.5,-5.4,-5.5c-3.1,0,-5.5,2.4,-5.5,5.5c0,3,2.4,5.4,5.5,5.4c3,0,5.4,-2.4,5.4,-5.4Z" class="g3_64"/>
<path d="M137.2,587c6.4,1.5,5.4,3.8,-2.3,5.1c-7.7,1.3,-19.2,1.1,-25.7,-.4c-4.2,-1,-5.4,-2.4,-3.2,-3.6c1.8,-1.1,5.8,-1.9,10.9,-2.2" class="g4_64"/>
<path d="M137.2,587c6.4,1.5,5.4,3.8,-2.3,5.1c-7.7,1.3,-19.2,1.1,-25.7,-.4c-4.2,-1,-5.4,-2.4,-3.2,-3.6c1.8,-1.1,5.8,-1.9,10.9,-2.2" class="g5_64"/>
<path d="M142.6,611.3c0,-3,-2.4,-5.5,-5.4,-5.5c-3.1,0,-5.5,2.5,-5.5,5.5c0,3,2.4,5.5,5.5,5.5c3,0,5.4,-2.5,5.4,-5.5Z" class="g3_64"/>
<path d="M137.2,611.3c6.4,1.5,5.4,3.8,-2.3,5.1c-7.7,1.3,-19.2,1.1,-25.7,-.4c-4.2,-1,-5.4,-2.4,-3.2,-3.6c1.8,-1,5.8,-1.8,10.9,-2.2" class="g4_64"/>
<path d="M137.2,611.3c6.4,1.5,5.4,3.8,-2.3,5.1c-7.7,1.3,-19.2,1.1,-25.7,-.4c-4.2,-1,-5.4,-2.4,-3.2,-3.6c1.8,-1,5.8,-1.8,10.9,-2.2" class="g5_64"/>
<path d="M142.6,635.6c0,-3,-2.4,-5.5,-5.4,-5.5c-3.1,0,-5.5,2.5,-5.5,5.5c0,3,2.4,5.5,5.5,5.5c3,0,5.4,-2.5,5.4,-5.5Z" class="g3_64"/>
<path d="M137.2,635.6c6.4,1.6,5.4,3.9,-2.3,5.2c-7.7,1.3,-19.2,1.1,-25.7,-.5c-4.2,-1,-5.4,-2.4,-3.2,-3.6c1.8,-1,5.8,-1.8,10.9,-2.2" class="g4_64"/>
<path d="M137.2,635.6c6.4,1.6,5.4,3.9,-2.3,5.2c-7.7,1.3,-19.2,1.1,-25.7,-.5c-4.2,-1,-5.4,-2.4,-3.2,-3.6c1.8,-1,5.8,-1.8,10.9,-2.2" class="g5_64"/>
<path d="M142.6,660c0,-3.1,-2.4,-5.5,-5.4,-5.5c-3.1,0,-5.5,2.4,-5.5,5.5c0,3,2.4,5.4,5.5,5.4c3,0,5.4,-2.4,5.4,-5.4Z" class="g3_64"/>
<path d="M137.2,660c6.4,1.5,5.4,3.8,-2.3,5.1c-7.7,1.3,-19.2,1.1,-25.7,-.5c-4.2,-1,-5.4,-2.3,-3.2,-3.6c1.8,-1,5.8,-1.8,10.9,-2.1" class="g4_64"/>
<path d="M137.2,660c6.4,1.5,5.4,3.8,-2.3,5.1c-7.7,1.3,-19.2,1.1,-25.7,-.5c-4.2,-1,-5.4,-2.3,-3.2,-3.6c1.8,-1,5.8,-1.8,10.9,-2.1" class="g5_64"/>
<path d="M142.6,684.3c0,-3,-2.4,-5.5,-5.4,-5.5c-3.1,0,-5.5,2.5,-5.5,5.5c0,3,2.4,5.5,5.5,5.5c3,0,5.4,-2.5,5.4,-5.5Z" class="g3_64"/>
<path d="M137.2,684.3c6.4,1.5,5.4,3.8,-2.3,5.1c-7.7,1.3,-19.2,1.1,-25.7,-.4c-4.2,-1,-5.4,-2.4,-3.2,-3.6c1.8,-1,5.8,-1.8,10.9,-2.2" class="g4_64"/>
<path d="M137.2,684.3c6.4,1.5,5.4,3.8,-2.3,5.1c-7.7,1.3,-19.2,1.1,-25.7,-.4c-4.2,-1,-5.4,-2.4,-3.2,-3.6c1.8,-1,5.8,-1.8,10.9,-2.2" class="g5_64"/>
<path d="M142.6,708.6c0,-3,-2.4,-5.5,-5.4,-5.5c-3.1,0,-5.5,2.5,-5.5,5.5c0,3,2.4,5.5,5.5,5.5c3,0,5.4,-2.5,5.4,-5.5Z" class="g3_64"/>
<path d="M137.2,708.6c6.4,1.6,5.4,3.9,-2.3,5.2c-7.7,1.3,-19.2,1.1,-25.7,-.5c-4.2,-1,-5.4,-2.4,-3.2,-3.6c1.8,-1,5.8,-1.8,10.9,-2.2" class="g4_64"/>
<path d="M137.2,708.6c6.4,1.6,5.4,3.9,-2.3,5.2c-7.7,1.3,-19.2,1.1,-25.7,-.5c-4.2,-1,-5.4,-2.4,-3.2,-3.6c1.8,-1,5.8,-1.8,10.9,-2.2" class="g5_64"/>
<path d="M142.6,732.9c0,-3,-2.4,-5.4,-5.4,-5.4c-3.1,0,-5.5,2.4,-5.5,5.4c0,3.1,2.4,5.5,5.5,5.5c3,0,5.4,-2.4,5.4,-5.5Z" class="g3_64"/>
<path d="M137.2,732.9c6.4,1.6,5.4,3.9,-2.3,5.2c-7.7,1.3,-19.2,1.1,-25.7,-.5c-4.2,-1,-5.4,-2.3,-3.2,-3.6c1.8,-1,5.8,-1.8,10.9,-2.1" class="g4_64"/>
<path d="M137.2,732.9c6.4,1.6,5.4,3.9,-2.3,5.2c-7.7,1.3,-19.2,1.1,-25.7,-.5c-4.2,-1,-5.4,-2.3,-3.2,-3.6c1.8,-1,5.8,-1.8,10.9,-2.1" class="g5_64"/>
<path d="M142.6,757.3c0,-3.1,-2.4,-5.5,-5.4,-5.5c-3.1,0,-5.5,2.4,-5.5,5.5c0,3,2.4,5.4,5.5,5.4c3,0,5.4,-2.4,5.4,-5.4Z" class="g3_64"/>
<path d="M137.2,757.3c6.4,1.5,5.4,3.8,-2.3,5.1c-7.7,1.3,-19.2,1.1,-25.7,-.4c-4.2,-1,-5.4,-2.4,-3.2,-3.6c1.8,-1,5.8,-1.8,10.9,-2.2" class="g4_64"/>
<path d="M137.2,757.3c6.4,1.5,5.4,3.8,-2.3,5.1c-7.7,1.3,-19.2,1.1,-25.7,-.4c-4.2,-1,-5.4,-2.4,-3.2,-3.6c1.8,-1,5.8,-1.8,10.9,-2.2" class="g5_64"/>
<path d="M142.6,781.6c0,-3,-2.4,-5.5,-5.4,-5.5c-3.1,0,-5.5,2.5,-5.5,5.5c0,3,2.4,5.5,5.5,5.5c3,0,5.4,-2.5,5.4,-5.5Z" class="g3_64"/>
<path d="M137.2,781.6c6.4,1.5,5.4,3.8,-2.3,5.1c-7.7,1.3,-19.2,1.1,-25.7,-.4c-4.2,-1,-5.4,-2.4,-3.2,-3.6c1.8,-1,5.8,-1.8,10.9,-2.2" class="g4_64"/>
<path d="M137.2,781.6c6.4,1.5,5.4,3.8,-2.3,5.1c-7.7,1.3,-19.2,1.1,-25.7,-.4c-4.2,-1,-5.4,-2.4,-3.2,-3.6c1.8,-1,5.8,-1.8,10.9,-2.2" class="g5_64"/>
<path d="M142.6,805.9c0,-3,-2.4,-5.5,-5.4,-5.5c-3.1,0,-5.5,2.5,-5.5,5.5c0,3.1,2.4,5.5,5.5,5.5c3,0,5.4,-2.4,5.4,-5.5Z" class="g3_64"/>
<path d="M137.2,805.9c6.4,1.6,5.4,3.9,-2.3,5.2c-7.7,1.3,-19.2,1.1,-25.7,-.5c-4.2,-1,-5.4,-2.4,-3.2,-3.6c1.8,-1,5.8,-1.8,10.9,-2.2" class="g4_64"/>
<path d="M137.2,805.9c6.4,1.6,5.4,3.9,-2.3,5.2c-7.7,1.3,-19.2,1.1,-25.7,-.5c-4.2,-1,-5.4,-2.4,-3.2,-3.6c1.8,-1,5.8,-1.8,10.9,-2.2" class="g5_64"/>
<path d="M142.6,830.3c0,-3.1,-2.4,-5.5,-5.4,-5.5c-3.1,0,-5.5,2.4,-5.5,5.5c0,3,2.4,5.4,5.5,5.4c3,0,5.4,-2.4,5.4,-5.4Z" class="g3_64"/>
<path d="M137.2,830.3c6.4,1.5,5.4,3.8,-2.3,5.1c-7.7,1.3,-19.2,1.1,-25.7,-.5c-4.2,-1,-5.4,-2.3,-3.2,-3.5c1.8,-1.1,5.8,-1.9,10.9,-2.2" class="g4_64"/>
<path d="M137.2,830.3c6.4,1.5,5.4,3.8,-2.3,5.1c-7.7,1.3,-19.2,1.1,-25.7,-.5c-4.2,-1,-5.4,-2.3,-3.2,-3.5c1.8,-1.1,5.8,-1.9,10.9,-2.2" class="g5_64"/>
<path d="M142.6,854.6c0,-3,-2.4,-5.5,-5.4,-5.5c-3.1,0,-5.5,2.5,-5.5,5.5c0,3,2.4,5.5,5.5,5.5c3,0,5.4,-2.5,5.4,-5.5Z" class="g3_64"/>
<path d="M137.2,854.6c6.4,1.5,5.4,3.8,-2.3,5.1c-7.7,1.3,-19.2,1.1,-25.7,-.4c-4.2,-1,-5.4,-2.4,-3.2,-3.6c1.8,-1,5.8,-1.8,10.9,-2.2" class="g4_64"/>
<path d="M137.2,854.6c6.4,1.5,5.4,3.8,-2.3,5.1c-7.7,1.3,-19.2,1.1,-25.7,-.4c-4.2,-1,-5.4,-2.4,-3.2,-3.6c1.8,-1,5.8,-1.8,10.9,-2.2" class="g5_64"/>
<path d="M142.6,878.9c0,-3,-2.4,-5.5,-5.4,-5.5c-3.1,0,-5.5,2.5,-5.5,5.5c0,3,2.4,5.5,5.5,5.5c3,0,5.4,-2.5,5.4,-5.5Z" class="g3_64"/>
<path d="M137.2,878.9c6.4,1.6,5.4,3.9,-2.3,5.2c-7.7,1.3,-19.2,1.1,-25.7,-.5c-4.2,-1,-5.4,-2.4,-3.2,-3.6c1.8,-1,5.8,-1.8,10.9,-2.2" class="g4_64"/>
<path d="M137.2,878.9c6.4,1.6,5.4,3.9,-2.3,5.2c-7.7,1.3,-19.2,1.1,-25.7,-.5c-4.2,-1,-5.4,-2.4,-3.2,-3.6c1.8,-1,5.8,-1.8,10.9,-2.2" class="g5_64"/>
<path d="M142.6,903.2c0,-3,-2.4,-5.4,-5.4,-5.4c-3.1,0,-5.5,2.4,-5.5,5.4c0,3.1,2.4,5.5,5.5,5.5c3,0,5.4,-2.4,5.4,-5.5Z" class="g3_64"/>
<path d="M137.2,903.2c6.4,1.6,5.4,3.9,-2.3,5.2c-7.7,1.3,-19.2,1.1,-25.7,-.5c-4.2,-1,-5.4,-2.3,-3.2,-3.6c1.8,-1,5.8,-1.8,10.9,-2.1" class="g4_64"/>
<path d="M137.2,903.2c6.4,1.6,5.4,3.9,-2.3,5.2c-7.7,1.3,-19.2,1.1,-25.7,-.5c-4.2,-1,-5.4,-2.3,-3.2,-3.6c1.8,-1,5.8,-1.8,10.9,-2.1" class="g5_64"/>
<path d="M142.6,927.6c0,-3.1,-2.4,-5.5,-5.4,-5.5c-3.1,0,-5.5,2.4,-5.5,5.5c0,3,2.4,5.4,5.5,5.4c3,0,5.4,-2.4,5.4,-5.4Z" class="g3_64"/>
<path d="M137.2,927.6c6.4,1.5,5.4,3.8,-2.3,5.1c-7.7,1.3,-19.2,1.1,-25.7,-.4c-4.2,-1,-5.4,-2.4,-3.2,-3.6c1.8,-1,5.8,-1.8,10.9,-2.2" class="g4_64"/>
<path d="M137.2,927.6c6.4,1.5,5.4,3.8,-2.3,5.1c-7.7,1.3,-19.2,1.1,-25.7,-.4c-4.2,-1,-5.4,-2.4,-3.2,-3.6c1.8,-1,5.8,-1.8,10.9,-2.2" class="g5_64"/>
<path d="M142.6,951.9c0,-3,-2.4,-5.5,-5.4,-5.5c-3.1,0,-5.5,2.5,-5.5,5.5c0,3,2.4,5.5,5.5,5.5c3,0,5.4,-2.5,5.4,-5.5Z" class="g3_64"/>
<path d="M137.2,951.9c6.4,1.5,5.4,3.8,-2.3,5.1c-7.7,1.3,-19.2,1.1,-25.7,-.4c-4.2,-1,-5.4,-2.4,-3.2,-3.6c1.8,-1,5.8,-1.8,10.9,-2.2" class="g4_64"/>
<path d="M137.2,951.9c6.4,1.5,5.4,3.8,-2.3,5.1c-7.7,1.3,-19.2,1.1,-25.7,-.4c-4.2,-1,-5.4,-2.4,-3.2,-3.6c1.8,-1,5.8,-1.8,10.9,-2.2" class="g5_64"/>
<path d="M142.6,976.2c0,-3,-2.4,-5.5,-5.4,-5.5c-3.1,0,-5.5,2.5,-5.5,5.5c0,3.1,2.4,5.5,5.5,5.5c3,0,5.4,-2.4,5.4,-5.5Z" class="g3_64"/>
<path d="M137.2,976.2c6.4,1.6,5.4,3.9,-2.3,5.2c-7.7,1.3,-19.2,1.1,-25.7,-.5c-4.2,-1,-5.4,-2.3,-3.2,-3.6c1.8,-1,5.8,-1.8,10.9,-2.2" class="g4_64"/>
<path d="M137.2,976.2c6.4,1.6,5.4,3.9,-2.3,5.2c-7.7,1.3,-19.2,1.1,-25.7,-.5c-4.2,-1,-5.4,-2.3,-3.2,-3.6c1.8,-1,5.8,-1.8,10.9,-2.2" class="g5_64"/>
<path d="M142.6,1000.6c0,-3.1,-2.4,-5.5,-5.4,-5.5c-3.1,0,-5.5,2.4,-5.5,5.5c0,3,2.4,5.4,5.5,5.4c3,0,5.4,-2.4,5.4,-5.4Z" class="g3_64"/>
<path d="M137.2,1000.6c6.4,1.5,5.4,3.8,-2.3,5.1c-7.7,1.3,-19.2,1.1,-25.7,-.4c-4.2,-1,-5.4,-2.4,-3.2,-3.6c1.8,-1.1,5.8,-1.9,10.9,-2.2" class="g4_64"/>
<path d="M137.2,1000.6c6.4,1.5,5.4,3.8,-2.3,5.1c-7.7,1.3,-19.2,1.1,-25.7,-.4c-4.2,-1,-5.4,-2.4,-3.2,-3.6c1.8,-1.1,5.8,-1.9,10.9,-2.2" class="g5_64"/>
<path d="M142.6,1024.9c0,-3,-2.4,-5.5,-5.4,-5.5c-3.1,0,-5.5,2.5,-5.5,5.5c0,3,2.4,5.5,5.5,5.5c3,0,5.4,-2.5,5.4,-5.5Z" class="g3_64"/>
<path d="M137.2,1024.9c6.4,1.5,5.4,3.8,-2.3,5.1c-7.7,1.3,-19.2,1.1,-25.7,-.4c-4.2,-1,-5.4,-2.4,-3.2,-3.6c1.8,-1,5.8,-1.8,10.9,-2.2" class="g4_64"/>
<path d="M137.2,1024.9c6.4,1.5,5.4,3.8,-2.3,5.1c-7.7,1.3,-19.2,1.1,-25.7,-.4c-4.2,-1,-5.4,-2.4,-3.2,-3.6c1.8,-1,5.8,-1.8,10.9,-2.2" class="g5_64"/>
<path d="M142.6,1049.2c0,-3,-2.4,-5.5,-5.4,-5.5c-3.1,0,-5.5,2.5,-5.5,5.5c0,3,2.4,5.5,5.5,5.5c3,0,5.4,-2.5,5.4,-5.5Z" class="g3_64"/>
<path d="M137.2,1049.2c6.4,1.6,5.4,3.9,-2.3,5.2c-7.7,1.3,-19.2,1.1,-25.7,-.5c-4.2,-1,-5.4,-2.4,-3.2,-3.6c1.8,-1,5.8,-1.8,10.9,-2.2" class="g4_64"/>
<path d="M137.2,1049.2c6.4,1.6,5.4,3.9,-2.3,5.2c-7.7,1.3,-19.2,1.1,-25.7,-.5c-4.2,-1,-5.4,-2.4,-3.2,-3.6c1.8,-1,5.8,-1.8,10.9,-2.2" class="g5_64"/>
<path d="M142.6,1073.5c0,-3,-2.4,-5.4,-5.4,-5.4c-3.1,0,-5.5,2.4,-5.5,5.4c0,3.1,2.4,5.5,5.5,5.5c3,0,5.4,-2.4,5.4,-5.5Z" class="g3_64"/>
<path d="M137.2,1073.5c6.4,1.6,5.4,3.9,-2.3,5.2c-7.7,1.3,-19.2,1.1,-25.7,-.5c-4.2,-1,-5.4,-2.3,-3.2,-3.6c1.8,-1,5.8,-1.8,10.9,-2.1" class="g4_64"/>
<path d="M137.2,1073.5c6.4,1.6,5.4,3.9,-2.3,5.2c-7.7,1.3,-19.2,1.1,-25.7,-.5c-4.2,-1,-5.4,-2.3,-3.2,-3.6c1.8,-1,5.8,-1.8,10.9,-2.1" class="g5_64"/>
<path d="M142.6,1097.9c0,-3.1,-2.4,-5.5,-5.4,-5.5c-3.1,0,-5.5,2.4,-5.5,5.5c0,3,2.4,5.5,5.5,5.5c3,0,5.4,-2.5,5.4,-5.5Z" class="g3_64"/>
<path d="M137.2,1097.9c6.4,1.5,5.4,3.8,-2.3,5.1c-7.7,1.3,-19.2,1.1,-25.7,-.4c-4.2,-1,-5.4,-2.4,-3.2,-3.6c1.8,-1,5.8,-1.8,10.9,-2.2" class="g4_64"/>
<path d="M137.2,1097.9c6.4,1.5,5.4,3.8,-2.3,5.1c-7.7,1.3,-19.2,1.1,-25.7,-.4c-4.2,-1,-5.4,-2.4,-3.2,-3.6c1.8,-1,5.8,-1.8,10.9,-2.2" class="g5_64"/>
<path d="M142.6,1122.2c0,-3,-2.4,-5.5,-5.4,-5.5c-3.1,0,-5.5,2.5,-5.5,5.5c0,3,2.4,5.5,5.5,5.5c3,0,5.4,-2.5,5.4,-5.5Z" class="g3_64"/>
<path d="M137.2,1122.2c6.4,1.5,5.4,3.9,-2.3,5.1c-7.7,1.3,-19.2,1.1,-25.7,-.4c-4.2,-1,-5.4,-2.4,-3.2,-3.6c1.8,-1,5.8,-1.8,10.9,-2.2" class="g4_64"/>
<path d="M137.2,1122.2c6.4,1.5,5.4,3.9,-2.3,5.1c-7.7,1.3,-19.2,1.1,-25.7,-.4c-4.2,-1,-5.4,-2.4,-3.2,-3.6c1.8,-1,5.8,-1.8,10.9,-2.2" class="g5_64"/>
<path d="M352.3,479.9h36.4m28.7,328.7h50.5" class="g0_64"/>
</svg>