<?xml version="1.0" encoding="UTF-8" standalone="no"?>
<!DOCTYPE svg PUBLIC "-//W3C//DTD SVG 1.1//EN"
"http://www.w3.org/Graphics/SVG/1.1/DTD/svg11.dtd">
<svg viewBox="0 0 909 1286" version="1.1" xmlns="http://www.w3.org/2000/svg" xmlns:xlink="http://www.w3.org/1999/xlink">
<defs>
<clipPath id="c0_77"><path d="M119.5,282.8V249.3H789.9v33.5Z"/></clipPath>
<style type="text/css"><![CDATA[
.g0_77{
fill: none;
stroke: #000000;
stroke-width: 0.73;
stroke-linecap: butt;
stroke-linejoin: miter;
}
.g1_77{
fill: #7F7F7F;
fill-opacity: 0.01;
}
.g2_77{
fill: #7F7F7F;
fill-opacity: 0.02;
}
.g3_77{
fill: #7F7F7F;
fill-opacity: 0.04;
}
.g4_77{
fill: #7F7F7F;
fill-opacity: 0.07;
}
.g5_77{
fill: #7F7F7F;
fill-opacity: 0.11;
}
.g6_77{
fill: #FFFFFF;
}
.g7_77{
fill: #7F7F7F;
}
.g8_77{
fill: #EC008C;
}
.g9_77{
fill: #CBCEFB;
}
.ga_77{
fill: #FFFEF5;
}
.gb_77{
fill: none;
stroke: #D6C944;
stroke-width: 0.365;
stroke-linecap: butt;
stroke-linejoin: miter;
}
.gc_77{
fill: #E81A58;
}
.gd_77{
fill: #401A1A;
}
]]></style>
</defs>
<path d="M116.9,159.9H792.5" class="g0_77"/>
<path d="M122.2,252c221.7,0,443.4,0,665,0V659.7c-221.6,-9.4,-443.3,-9.4,-665,0Z" class="g1_77"/>
<path d="M122.9,252.6c221.2,0,442.4,0,663.7,0V659.1c-221.3,-9.4,-442.5,-9.4,-663.7,0Z" class="g2_77"/>
<path d="M123.5,253.2c220.8,0,441.6,0,662.5,0V658.4c-220.9,-9.3,-441.7,-9.3,-662.5,0Z" class="g3_77"/>
<path d="M124.1,253.8c220.4,0,440.8,0,661.2,0v404c-220.4,-9.3,-440.8,-9.3,-661.2,0Z" class="g4_77"/>
<path d="M124.7,254.5c220,0,440,0,660,0V657.2c-220,-9.4,-440,-9.4,-660,0Z" class="g5_77"/>
<path d="M125.4,255.1c219.5,0,439.1,0,658.7,0V656.6c-219.6,-9.4,-439.2,-9.4,-658.7,0Z" class="g5_77"/>
<path d="M126,255.7c219.1,0,438.3,0,657.5,0V655.9c-219.2,-9.3,-438.4,-9.3,-657.5,0Z" class="g4_77"/>
<path d="M126.6,256.3c218.8,0,437.5,0,656.3,0v399C564.1,646,345.4,646,126.6,655.3Z" class="g3_77"/>
<path d="M127.2,257c218.4,0,436.7,0,655,0V654.7c-218.3,-9.4,-436.6,-9.4,-655,0Z" class="g2_77"/>
<path d="M127.9,257.6c217.9,0,435.8,0,653.7,0V654.1c-217.9,-9.4,-435.8,-9.4,-653.7,0Z" class="g1_77"/>
<path d="M116.9,649.4V246.7H792.5V649.4Z" class="g6_77"/>
<path d="M119.5,646.8V285.4H789.9V646.8Z" class="g6_77"/>
<path d="M119.5,282.8V249.3H789.9v33.5Z" class="g7_77"/>
<g clip-path="url(#c0_77)">
<image x="119" y="248" width="672" height="35" xlink:href="shade/1.png"/>
</g>
<path d="M675.7,277.6h88.2V254.5H675.7v23.1Z" class="g8_77"/>
<path d="M321.9,301.3H587.5M322.3,330.9V301.7" class="g0_77"/>
<path d="M322.6,330.9h62V301.7h-62v29.2Z" class="g9_77"/>
<path d="M385,330.9V301.7" class="g0_77"/>
<path d="M385.4,330.9h69.8V301.7H385.4v29.2Z" class="g9_77"/>
<path d="M455.6,330.9V301.7" class="g0_77"/>
<path d="M456,330.9h69.8V301.7H456v29.2Z" class="g9_77"/>
<path d="M526.2,330.9V301.7" class="g0_77"/>
<path d="M526.5,330.9h60.3V301.7H526.5v29.2Z" class="g9_77"/>
<path d="M587.2,330.9V301.7M321.9,331.3H587.5M322.3,360.9V331.7M385,360.9V331.7m70.6,29.2V331.7m70.6,29.2V331.7m61,29.2V331.7M321.9,361.3H587.5M322.3,390.8V361.6M385,390.8V361.6m70.6,29.2V361.6m70.6,29.2V361.6m61,29.2V361.6M321.9,391.2H587.5M322.3,420.8V391.6M385,420.8V391.6m70.6,29.2V391.6m70.6,29.2V391.6m61,29.2V391.6M321.9,421.2H587.5M322.3,450.8V421.5M385,450.8V421.5m70.6,29.3V421.5m70.6,29.3V421.5m61,29.3V421.5M321.9,451.1H587.5M322.3,480.7V451.5M385,480.7V451.5m70.6,29.2V451.5m70.6,29.2V451.5m61,29.2V451.5M321.9,481.1H587.5M322.3,510.7V481.4M385,510.7V481.4m70.6,29.3V481.4m70.6,29.3V481.4m61,29.3V481.4M321.9,511H587.5M322.3,540.6V511.4M385,540.6V511.4m70.6,29.2V511.4m70.6,29.2V511.4m61,29.2V511.4M321.9,541H587.5M322.3,570.6V541.3M385,570.6V541.3m70.6,29.3V541.3m70.6,29.3V541.3m61,29.3V541.3M321.9,570.9H587.5M322.3,600.5V571.3M385,600.5V571.3m70.6,29.2V571.3m70.6,29.2V571.3m61,29.2V571.3M321.9,600.9H587.5M322.3,630.5V601.3M385,630.5V601.3m70.6,29.2V601.3m70.6,29.2V601.3m61,29.2V601.3M321.9,630.8H587.5" class="g0_77"/>
<path d="M-2.9,930.4V864.9H912.4v65.5Z" class="g6_77"/>
<path d="M-.3,927.8V867.5H909.8v60.3Z" class="ga_77"/>
<path d="M-.3,919.5H909.8M-.3,893.5H909.8M-.3,867.5H909.8M-.3,927.8V867.5m25.9,60.3V867.5m26,60.3V867.5m26,60.3V867.5m26,60.3V867.5m26,60.3V867.5m25.9,60.3V867.5m26,60.3V867.5m26,60.3V867.5m26,60.3V867.5m26,60.3V867.5m26,60.3V867.5m25.9,60.3V867.5m26,60.3V867.5m26,60.3V867.5m26,60.3V867.5m26,60.3V867.5m26,60.3V867.5m26,60.3V867.5m25.9,60.3V867.5m26,60.3V867.5m26,60.3V867.5m26,60.3V867.5m26,60.3V867.5m26,60.3V867.5m25.9,60.3V867.5m26,60.3V867.5m26,60.3V867.5m26,60.3V867.5m26,60.3V867.5m26,60.3V867.5m25.9,60.3V867.5m26,60.3V867.5m26,60.3V867.5m26,60.3V867.5m26,60.3V867.5" class="gb_77"/>
<path d="M116.9,1113.6V1028c0,-21.6,17.6,-39.2,39.2,-39.2H792.5v124.8Z" class="gc_77"/>
<path d="M119.5,1113.6v-92.3H789.9v92.3Z" class="gd_77"/>
</svg>