<?xml version="1.0" encoding="UTF-8" standalone="no"?>
<!DOCTYPE svg PUBLIC "-//W3C//DTD SVG 1.1//EN"
"http://www.w3.org/Graphics/SVG/1.1/DTD/svg11.dtd">
<svg viewBox="0 0 1286 909" version="1.1" xmlns="http://www.w3.org/2000/svg" xmlns:xlink="http://www.w3.org/1999/xlink">
<defs>
<style type="text/css"><![CDATA[
.g0_441{
fill: none;
stroke: #000000;
stroke-width: 0.73;
stroke-linecap: butt;
stroke-linejoin: miter;
}
.g1_441{
fill: none;
stroke: #02B5EE;
stroke-width: 1.262;
stroke-linecap: butt;
stroke-linejoin: miter;
}
.g2_441{
fill: none;
stroke: #02B5EE;
stroke-width: 0.73;
stroke-linecap: butt;
stroke-linejoin: miter;
}
.g3_441{
fill: none;
stroke: #5EE200;
stroke-width: 1.262;
stroke-linecap: butt;
stroke-linejoin: miter;
}
]]></style>
</defs>
<path d="M193,83.4h900.3M193,111.6H799.4m-606.4,0H799.4M478.9,141.2V112m0,58.5V141.2m0,58.5V170.5m0,59.4V199.7m0,59.4V229.9m0,58.4V259.1m0,114.2v-85" class="g0_441"/>
<path d="M568,349.3h93.8" class="g1_441"/>
<path d="M478.9,402.6V373.3m0,102.3v-73" class="g0_441"/>
<path d="M687.1,461.7H788.5" class="g2_441"/>
<path d="M478.9,504.8V475.6m0,58.5V504.8m0,114.3v-85" class="g0_441"/>
<path d="M490.6,595.1H566" class="g1_441"/>
<path d="M576.5,595.1H715.9" class="g3_441"/>
<path d="M478.9,648.3V619.1m0,58.4V648.3m0,58.5V677.5M193,707.1H799.4m-606.4,0H799.4" class="g0_441"/>
</svg>