<?xml version="1.0" encoding="UTF-8" standalone="no"?>
<!DOCTYPE svg PUBLIC "-//W3C//DTD SVG 1.1//EN"
"http://www.w3.org/Graphics/SVG/1.1/DTD/svg11.dtd">
<svg viewBox="0 0 1286 909" version="1.1" xmlns="http://www.w3.org/2000/svg" xmlns:xlink="http://www.w3.org/1999/xlink">
<defs>
<style type="text/css"><![CDATA[
.g0_175{
fill: none;
stroke: #000000;
stroke-width: 0.73;
stroke-linecap: butt;
stroke-linejoin: miter;
}
.g1_175{
fill: #FFCCCC;
}
.g2_175{
fill: none;
stroke: #5EE200;
stroke-width: 1.461;
stroke-linecap: butt;
stroke-linejoin: miter;
stroke-dasharray: 2,2;
}
.g3_175{
fill: #AEF080;
}
.g4_175{
fill: none;
stroke: #F81693;
stroke-width: 1.461;
stroke-linecap: butt;
stroke-linejoin: miter;
stroke-dasharray: 2,2;
}
]]></style>
</defs>
<path d="M193,83.4h900.3M193,210.6H917.3m-724.3,0H917.3M480,240.2V211m0,58.5V240.2m0,59.4V269.5m0,59.3V299.6m0,58.5V328.8m0,62.1V358.1" class="g0_175"/>
<path d="M655.7,390.9h59.5V358.1H655.7v32.8Z" class="g1_175"/>
<path d="M729.4,384.6h35" class="g2_175"/>
<path d="M778.6,390.9H906.3V358.1H778.6v32.8Z" class="g3_175"/>
<path d="M480,420.2V390.9m0,62.1V420.2" class="g0_175"/>
<path d="M615.8,453h44.7V420.2H615.8V453Z" class="g3_175"/>
<path d="M664.2,448.7H713" class="g2_175"/>
<path d="M722.7,453H906.3V420.2H722.7V453Z" class="g1_175"/>
<path d="M480,484.4V453m0,60.6V484.4m0,58.4V513.6m0,63.8V542.8" class="g0_175"/>
<path d="M703.2,576.8h75.7V543.9H703.2v32.9Z" class="g1_175"/>
<path d="M793.1,576.7H902.7" class="g4_175"/>
<path d="M480,606.6V577.4m0,62.1V606.6" class="g0_175"/>
<path d="M697.9,635.2H713" class="g4_175"/>
<path d="M722.7,639.5H906.3V606.6H722.7v32.9Z" class="g1_175"/>
<path d="M480,668.7V639.5m0,58.5V668.7m0,60.6V698m0,60.5V729.3M193,758.9H917.3m-724.3,0H917.3" class="g0_175"/>
</svg>