<?xml version="1.0" encoding="UTF-8" standalone="no"?>
<!DOCTYPE svg PUBLIC "-//W3C//DTD SVG 1.1//EN"
"http://www.w3.org/Graphics/SVG/1.1/DTD/svg11.dtd">
<svg viewBox="0 0 1286 909" version="1.1" xmlns="http://www.w3.org/2000/svg" xmlns:xlink="http://www.w3.org/1999/xlink">
<defs>
<style type="text/css"><![CDATA[
.g0_790{
fill: none;
stroke: #000000;
stroke-width: 0.73;
stroke-linecap: butt;
stroke-linejoin: miter;
}
.g1_790{
fill: #B3E9FA;
}
.g2_790{
fill: none;
stroke: #02B5EE;
stroke-width: 1.262;
stroke-linecap: butt;
stroke-linejoin: miter;
}
.g3_790{
fill: none;
stroke: #5EE200;
stroke-width: 1.262;
stroke-linecap: butt;
stroke-linejoin: miter;
}
]]></style>
</defs>
<path d="M193,83.4h900.3M193,210.6H960.4m-767.4,0H960.4M597.3,240.2V211m0,58.5V240.2m0,114.3v-85" class="g0_790"/>
<path d="M661.4,311V292.5c0,-2.9,2.4,-5.2,5.2,-5.2h98.5c2.8,0,5.2,2.3,5.2,5.2V311c0,2.9,-2.4,5.2,-5.2,5.2H666.6c-2.8,0,-5.2,-2.3,-5.2,-5.2Z" class="g1_790"/>
<path d="M658.8,330.5H772.9" class="g2_790"/>
<path d="M783.4,330.5h166" class="g3_790"/>
<path d="M597.3,383.7V354.5m0,58.4V383.7m0,114.3V412.9" class="g0_790"/>
<path d="M610.9,454.5V436c0,-2.9,2.3,-5.2,5.2,-5.2h149c2.8,0,5.2,2.3,5.2,5.2v18.5c0,2.9,-2.4,5.2,-5.2,5.2h-149c-2.9,0,-5.2,-2.3,-5.2,-5.2Z" class="g1_790"/>
<path d="M608.3,474H772.9" class="g2_790"/>
<path d="M783.4,474h166" class="g3_790"/>
<path d="M597.3,527.2V498M193,527.5H960.4m-767.4,0H960.4" class="g0_790"/>
</svg>