<?xml version="1.0" encoding="UTF-8" standalone="no"?>
<!DOCTYPE svg PUBLIC "-//W3C//DTD SVG 1.1//EN"
"http://www.w3.org/Graphics/SVG/1.1/DTD/svg11.dtd">
<svg viewBox="0 0 909 1286" version="1.1" xmlns="http://www.w3.org/2000/svg" xmlns:xlink="http://www.w3.org/1999/xlink">
<defs>
<clipPath id="c0_95"><path d="M119.5,215.7V182.1H789.9v33.6Z"/></clipPath>
<style type="text/css"><![CDATA[
.g0_95{
fill: none;
stroke: #000000;
stroke-width: 0.73;
stroke-linecap: butt;
stroke-linejoin: miter;
}
.g1_95{
fill: #7F7F7F;
fill-opacity: 0.01;
}
.g2_95{
fill: #7F7F7F;
fill-opacity: 0.02;
}
.g3_95{
fill: #7F7F7F;
fill-opacity: 0.04;
}
.g4_95{
fill: #7F7F7F;
fill-opacity: 0.07;
}
.g5_95{
fill: #7F7F7F;
fill-opacity: 0.11;
}
.g6_95{
fill: #FFFFFF;
}
.g7_95{
fill: #7F7F7F;
}
.g8_95{
fill: #EC008C;
}
.g9_95{
fill: #CBCEFB;
}
.ga_95{
fill: #FFFEF5;
}
.gb_95{
fill: none;
stroke: #D6C944;
stroke-width: 0.365;
stroke-linecap: butt;
stroke-linejoin: miter;
}
.gc_95{
fill: #E81A58;
}
.gd_95{
fill: #401A1A;
}
]]></style>
</defs>
<path d="M116.9,159.9H792.5" class="g0_95"/>
<path d="M122.2,184.8c221.7,0,443.4,0,665,0v228c-221.6,-9.3,-443.3,-9.3,-665,0Z" class="g1_95"/>
<path d="M122.9,185.4c221.2,0,442.4,0,663.7,0V412.2c-221.3,-9.4,-442.5,-9.4,-663.7,0Z" class="g2_95"/>
<path d="M123.5,186.1c220.8,0,441.6,0,662.5,0V411.6c-220.9,-9.4,-441.7,-9.4,-662.5,0Z" class="g3_95"/>
<path d="M124.1,186.7c220.4,0,440.8,0,661.2,0V411c-220.4,-9.4,-440.8,-9.4,-661.2,0Z" class="g4_95"/>
<path d="M124.7,187.3c220,0,440,0,660,0v223c-220,-9.3,-440,-9.3,-660,0Z" class="g5_95"/>
<path d="M125.4,187.9c219.5,0,439.1,0,658.7,0V409.7c-219.6,-9.3,-439.2,-9.3,-658.7,0Z" class="g5_95"/>
<path d="M126,188.6c219.1,0,438.3,0,657.5,0V409.1c-219.2,-9.4,-438.4,-9.4,-657.5,0Z" class="g4_95"/>
<path d="M126.6,189.2c218.8,0,437.5,0,656.3,0V408.5c-218.8,-9.4,-437.5,-9.4,-656.3,0Z" class="g3_95"/>
<path d="M127.2,189.8c218.4,0,436.7,0,655,0v218c-218.3,-9.3,-436.6,-9.3,-655,0Z" class="g2_95"/>
<path d="M127.9,190.4c217.9,0,435.8,0,653.7,0V407.2c-217.9,-9.3,-435.8,-9.3,-653.7,0Z" class="g1_95"/>
<path d="M116.9,402.5v-223H792.5v223Z" class="g6_95"/>
<path d="M119.5,399.9V218.3H789.9V399.9Z" class="g6_95"/>
<path d="M119.5,215.7V182.1H789.9v33.6Z" class="g7_95"/>
<g clip-path="url(#c0_95)">
<image x="119" y="181" width="672" height="34" xlink:href="shade/1.png"/>
</g>
<path d="M675.7,210.5h88.2V187.3H675.7v23.2Z" class="g8_95"/>
<path d="M366.8,234.2H542.7M367.2,263.8V234.6" class="g0_95"/>
<path d="M367.5,263.8h62V234.6h-62v29.2Z" class="g9_95"/>
<path d="M429.9,263.8V234.6" class="g0_95"/>
<path d="M430.3,263.8h60.2V234.6H430.3v29.2Z" class="g9_95"/>
<path d="M490.9,263.8V234.6" class="g0_95"/>
<path d="M491.3,263.8h50.6V234.6H491.3v29.2Z" class="g9_95"/>
<path d="M542.3,263.8V234.6M366.8,264.2H542.7M367.2,293.7V264.5m62.7,29.2V264.5m61,29.2V264.5m51.4,29.2V264.5M366.8,294.1H542.7M367.2,323.7V294.5m62.7,29.2V294.5m61,29.2V294.5m51.4,29.2V294.5M366.8,324.1H542.7M367.2,353.7V324.4m62.7,29.3V324.4m61,29.3V324.4m51.4,29.3V324.4M366.8,354H542.7M367.2,383.6V354.4m62.7,29.2V354.4m61,29.2V354.4m51.4,29.2V354.4M366.8,384H542.7" class="g0_95"/>
<path d="M-2.9,630.6V565.1H912.4v65.5Z" class="g6_95"/>
<path d="M-.3,628V567.7H909.8V628Z" class="ga_95"/>
<path d="M-.3,619.7H909.8M-.3,593.7H909.8M-.3,567.7H909.8M-.3,628V567.7M25.6,628V567.7m26,60.3V567.7m26,60.3V567.7m26,60.3V567.7m26,60.3V567.7M155.5,628V567.7m26,60.3V567.7m26,60.3V567.7m26,60.3V567.7m26,60.3V567.7m26,60.3V567.7M311.4,628V567.7m26,60.3V567.7m26,60.3V567.7m26,60.3V567.7m26,60.3V567.7m26,60.3V567.7m26,60.3V567.7M493.3,628V567.7m26,60.3V567.7m26,60.3V567.7m26,60.3V567.7m26,60.3V567.7m26,60.3V567.7M649.2,628V567.7m26,60.3V567.7m26,60.3V567.7m26,60.3V567.7m26,60.3V567.7m26,60.3V567.7M805.1,628V567.7m26,60.3V567.7m26,60.3V567.7m26,60.3V567.7m26,60.3V567.7" class="gb_95"/>
<path d="M116.9,1135.2V728.1c0,-21.6,17.6,-39.1,39.2,-39.1H792.5v446.2Z" class="gc_95"/>
<path d="M119.5,1135.2V721.5H789.9v413.7Z" class="gd_95"/>
</svg>