<?xml version="1.0" encoding="UTF-8" standalone="no"?>
<!DOCTYPE svg PUBLIC "-//W3C//DTD SVG 1.1//EN"
"http://www.w3.org/Graphics/SVG/1.1/DTD/svg11.dtd">
<svg viewBox="0 0 909 1286" version="1.1" xmlns="http://www.w3.org/2000/svg" xmlns:xlink="http://www.w3.org/1999/xlink">
<defs>
<clipPath id="c0_12"><path d="M119.5,392.9V359.4H789.9v33.5Z"/></clipPath>
<clipPath id="c1_12"><path d="M119.5,659.7V626.2H789.9v33.5Z"/></clipPath>
<style type="text/css"><![CDATA[
.g0_12{
fill: none;
stroke: #000000;
stroke-width: 0.73;
stroke-linecap: butt;
stroke-linejoin: miter;
}
.g1_12{
fill: #E81A58;
}
.g2_12{
fill: #401A1A;
}
.g3_12{
fill: #7F7F7F;
fill-opacity: 0.01;
}
.g4_12{
fill: #7F7F7F;
fill-opacity: 0.02;
}
.g5_12{
fill: #7F7F7F;
fill-opacity: 0.04;
}
.g6_12{
fill: #7F7F7F;
fill-opacity: 0.07;
}
.g7_12{
fill: #7F7F7F;
fill-opacity: 0.11;
}
.g8_12{
fill: #FFFFFF;
}
.g9_12{
fill: #7F7F7F;
}
.ga_12{
fill: #00AEEF;
}
.gb_12{
fill: #CBCEFB;
}
.gc_12{
fill: #EC008C;
}
]]></style>
</defs>
<path d="M116.9,159.9H792.5" class="g0_12"/>
<path d="M116.9,342.2V285.8c0,-21.6,17.6,-39.1,39.2,-39.1H792.5V303c0,21.6,-17.5,39.2,-39.1,39.2Z" class="g1_12"/>
<path d="M119.5,339.6V279.1H789.9V303c0,20.2,-16.3,36.6,-36.5,36.6Z" class="g2_12"/>
<path d="M122.2,362.1c221.7,0,443.4,0,665,0V619.3c-221.6,-9.4,-443.3,-9.4,-665,0Z" class="g3_12"/>
<path d="M122.9,362.7c221.2,0,442.4,0,663.7,0v256c-221.3,-9.4,-442.5,-9.4,-663.7,0Z" class="g4_12"/>
<path d="M123.5,363.3c220.8,0,441.6,0,662.5,0V618c-220.9,-9.3,-441.7,-9.3,-662.5,0Z" class="g5_12"/>
<path d="M124.1,363.9c220.4,0,440.8,0,661.2,0V617.4c-220.4,-9.3,-440.8,-9.3,-661.2,0Z" class="g6_12"/>
<path d="M124.7,364.6c220,0,440,0,660,0V616.8c-220,-9.4,-440,-9.4,-660,0Z" class="g7_12"/>
<path d="M125.4,365.2c219.5,0,439.1,0,658.7,0v251c-219.6,-9.4,-439.2,-9.4,-658.7,0Z" class="g7_12"/>
<path d="M126,365.8c219.1,0,438.3,0,657.5,0V615.5c-219.2,-9.3,-438.4,-9.3,-657.5,0Z" class="g6_12"/>
<path d="M126.6,366.4c218.8,0,437.5,0,656.3,0V614.9c-218.8,-9.3,-437.5,-9.3,-656.3,0Z" class="g5_12"/>
<path d="M127.2,367.1c218.4,0,436.7,0,655,0V614.3c-218.3,-9.4,-436.6,-9.4,-655,0Z" class="g4_12"/>
<path d="M127.9,367.7c217.9,0,435.8,0,653.7,0v246c-217.9,-9.4,-435.8,-9.4,-653.7,0Z" class="g3_12"/>
<path d="M116.9,609V356.8H792.5V609Z" class="g8_12"/>
<path d="M119.5,606.4V395.5H789.9V606.4Z" class="g8_12"/>
<path d="M119.5,392.9V359.4H789.9v33.5Z" class="g9_12"/>
<g clip-path="url(#c0_12)">
<image x="119" y="359" width="672" height="34" xlink:href="shade/1.png"/>
</g>
<path d="M659.9,387.7h104V364.6h-104v23.1Z" class="ga_12"/>
<path d="M217.2,440.7h475M217.6,470.3V441" class="g0_12"/>
<path d="M218,470.3h88.2V441H218v29.3Z" class="gb_12"/>
<path d="M306.5,470.3V441" class="g0_12"/>
<path d="M306.9,470.3H418.7V441H306.9v29.3Z" class="gb_12"/>
<path d="M419.1,470.3V441" class="g0_12"/>
<path d="M419.5,470.3h60.2V441H419.5v29.3Z" class="gb_12"/>
<path d="M480.1,470.3V441" class="g0_12"/>
<path d="M480.5,470.3h50.6V441H480.5v29.3Z" class="gb_12"/>
<path d="M531.5,470.3V441" class="g0_12"/>
<path d="M531.9,470.3h89V441h-89v29.3Z" class="gb_12"/>
<path d="M621.3,470.3V441" class="g0_12"/>
<path d="M621.6,470.3h69.9V441H621.6v29.3Z" class="gb_12"/>
<path d="M691.9,470.3V441M217.2,470.6h475M217.6,500.2V471m88.9,29.2V471m112.6,29.2V471m61,29.2V471m51.4,29.2V471m89.8,29.2V471m70.6,29.2V471M217.2,500.6h475M217.6,530.2V500.9m88.9,29.3V500.9m112.6,29.3V500.9m61,29.3V500.9m51.4,29.3V500.9m89.8,29.3V500.9m70.6,29.3V500.9M217.2,530.5h475M217.6,560.1V530.9m88.9,29.2V530.9m112.6,29.2V530.9m61,29.2V530.9m51.4,29.2V530.9m89.8,29.2V530.9m70.6,29.2V530.9M217.2,560.5h475M217.6,590.1V560.8m88.9,29.3V560.8m112.6,29.3V560.8m61,29.3V560.8m51.4,29.3V560.8m89.8,29.3V560.8m70.6,29.3V560.8M217.2,590.4h475" class="g0_12"/>
<path d="M122.2,628.9c221.7,0,443.4,0,665,0v198c-221.6,-9.3,-443.3,-9.3,-665,0Z" class="g3_12"/>
<path d="M122.9,629.5c221.2,0,442.4,0,663.7,0V826.3C565.3,817,344.1,817,122.9,826.3Z" class="g4_12"/>
<path d="M123.5,630.2c220.8,0,441.6,0,662.5,0V825.7c-220.9,-9.4,-441.7,-9.4,-662.5,0Z" class="g5_12"/>
<path d="M124.1,630.8c220.4,0,440.8,0,661.2,0V825.1c-220.4,-9.4,-440.8,-9.4,-661.2,0Z" class="g6_12"/>
<path d="M124.7,631.4c220,0,440,0,660,0V824.5c-220,-9.4,-440,-9.4,-660,0Z" class="g7_12"/>
<path d="M125.4,632c219.5,0,439.1,0,658.7,0V823.8c-219.6,-9.3,-439.2,-9.3,-658.7,0Z" class="g7_12"/>
<path d="M126,632.6c219.1,0,438.3,0,657.5,0V823.2c-219.2,-9.3,-438.4,-9.3,-657.5,0Z" class="g6_12"/>
<path d="M126.6,633.3c218.8,0,437.5,0,656.3,0V822.6c-218.8,-9.4,-437.5,-9.4,-656.3,0Z" class="g5_12"/>
<path d="M127.2,633.9c218.4,0,436.7,0,655,0V822c-218.3,-9.4,-436.6,-9.4,-655,0Z" class="g4_12"/>
<path d="M127.9,634.5c217.9,0,435.8,0,653.7,0V821.3C563.7,812,345.8,812,127.9,821.3Z" class="g3_12"/>
<path d="M116.9,816.7V623.6H792.5V816.7Z" class="g8_12"/>
<path d="M119.5,814.1V662.3H789.9V814.1Z" class="g8_12"/>
<path d="M119.5,659.7V626.2H789.9v33.5Z" class="g9_12"/>
<g clip-path="url(#c1_12)">
<image x="119" y="625" width="672" height="35" xlink:href="shade/2.png"/>
</g>
<path d="M675.7,654.5h88.2V631.4H675.7v23.1Z" class="gc_12"/>
<path d="M217.2,678.3h475M217.6,707.9V678.7" class="g0_12"/>
<path d="M218,707.9h88.2V678.7H218v29.2Z" class="gb_12"/>
<path d="M306.5,707.9V678.7" class="g0_12"/>
<path d="M306.9,707.9H418.7V678.7H306.9v29.2Z" class="gb_12"/>
<path d="M419.1,707.9V678.7" class="g0_12"/>
<path d="M419.5,707.9h60.2V678.7H419.5v29.2Z" class="gb_12"/>
<path d="M480.1,707.9V678.7" class="g0_12"/>
<path d="M480.5,707.9h50.6V678.7H480.5v29.2Z" class="gb_12"/>
<path d="M531.5,707.9V678.7" class="g0_12"/>
<path d="M531.9,707.9h89V678.7h-89v29.2Z" class="gb_12"/>
<path d="M621.3,707.9V678.7" class="g0_12"/>
<path d="M621.6,707.9h69.9V678.7H621.6v29.2Z" class="gb_12"/>
<path d="M691.9,707.9V678.7M217.2,708.2h475M217.6,737.8V708.6m88.9,29.2V708.6m112.6,29.2V708.6m61,29.2V708.6m51.4,29.2V708.6m89.8,29.2V708.6m70.6,29.2V708.6M217.2,738.2h475M217.6,767.8V738.6m88.9,29.2V738.6m112.6,29.2V738.6m61,29.2V738.6m51.4,29.2V738.6m89.8,29.2V738.6m70.6,29.2V738.6M217.2,768.2h475M217.6,797.7V768.5m88.9,29.2V768.5m112.6,29.2V768.5m61,29.2V768.5m51.4,29.2V768.5m89.8,29.2V768.5m70.6,29.2V768.5M217.2,798.1h475" class="g0_12"/>
</svg>