<?xml version="1.0" encoding="UTF-8" standalone="no"?>
<!DOCTYPE svg PUBLIC "-//W3C//DTD SVG 1.1//EN"
"http://www.w3.org/Graphics/SVG/1.1/DTD/svg11.dtd">
<svg viewBox="0 0 1286 909" version="1.1" xmlns="http://www.w3.org/2000/svg" xmlns:xlink="http://www.w3.org/1999/xlink">
<defs>
<style type="text/css"><![CDATA[
.g0_340{
fill: none;
stroke: #000000;
stroke-width: 0.73;
stroke-linecap: butt;
stroke-linejoin: miter;
}
.g1_340{
fill: none;
stroke: #02B5EE;
stroke-width: 1.262;
stroke-linecap: butt;
stroke-linejoin: miter;
}
.g2_340{
fill: none;
stroke: #5EE200;
stroke-width: 1.262;
stroke-linecap: butt;
stroke-linejoin: miter;
}
.g3_340{
fill: #FFCCCC;
}
.g4_340{
fill: none;
stroke: #5EE200;
stroke-width: 0.73;
stroke-linecap: butt;
stroke-linejoin: miter;
}
.g5_340{
fill: none;
stroke: #02B5EE;
stroke-width: 0.73;
stroke-linecap: butt;
stroke-linejoin: miter;
}
]]></style>
</defs>
<path d="M193,83.4h900.3M193,210.6H768.7m-575.7,0H768.7M406,240.2V211m0,58.5V240.2m0,59.4V269.5m0,59.3V299.6m0,58.5V328.8m0,59.4V358.1m0,59.4V388.2m0,58.5V417.5m0,114.2v-85" class="g0_340"/>
<path d="M416.9,507.7H498" class="g1_340"/>
<path d="M508.5,507.7H610.1" class="g2_340"/>
<path d="M631.2,496H757.8V463.1H631.2V496Z" class="g3_340"/>
<path d="M406,560.9V531.7M406,634V560.9" class="g0_340"/>
<path d="M502.2,610.2H644.3V577.4H502.2v32.8Z" class="g3_340"/>
<path d="M650.3,620.1h33.8" class="g4_340"/>
<path d="M690.2,620.1h67.6" class="g5_340"/>
<path d="M406,663.2V634m0,58.4V663.2M193,692.8H768.7m-575.7,0H768.7" class="g0_340"/>
</svg>