<?xml version="1.0" encoding="UTF-8" standalone="no"?>
<!DOCTYPE svg PUBLIC "-//W3C//DTD SVG 1.1//EN"
"http://www.w3.org/Graphics/SVG/1.1/DTD/svg11.dtd">
<svg viewBox="0 0 1286 909" version="1.1" xmlns="http://www.w3.org/2000/svg" xmlns:xlink="http://www.w3.org/1999/xlink">
<defs>
<style type="text/css"><![CDATA[
.g0_563{
fill: none;
stroke: #000000;
stroke-width: 0.73;
stroke-linecap: butt;
stroke-linejoin: miter;
}
.g1_563{
fill: none;
stroke: #02B5EE;
stroke-width: 1.262;
stroke-linecap: butt;
stroke-linejoin: miter;
}
.g2_563{
fill: none;
stroke: #5EE200;
stroke-width: 1.262;
stroke-linecap: butt;
stroke-linejoin: miter;
}
.g3_563{
fill: none;
stroke: #FFA313;
stroke-width: 1.262;
stroke-linecap: butt;
stroke-linejoin: miter;
}
.g4_563{
fill: none;
stroke: #5EE200;
stroke-width: 0.73;
stroke-linecap: butt;
stroke-linejoin: miter;
}
.g5_563{
fill: none;
stroke: #FFA313;
stroke-width: 0.73;
stroke-linecap: butt;
stroke-linejoin: miter;
}
.g6_563{
fill: none;
stroke: #02B5EE;
stroke-width: 0.73;
stroke-linecap: butt;
stroke-linejoin: miter;
}
.g7_563{
fill: #FFCCCC;
}
]]></style>
</defs>
<path d="M193,83.4h900.3M193,210.6H881.2m-688.2,0H881.2M523,240.2V211m0,58.5V240.2m0,114.3v-85" class="g0_563"/>
<path d="M719.7,330.5h35.6" class="g1_563"/>
<path d="M765.8,330.5h22.4" class="g2_563"/>
<path d="M798.8,330.5h71.4" class="g3_563"/>
<path d="M523,383.7V354.5m0,102.3V383.7" class="g0_563"/>
<path d="M734.4,442.9h34.5" class="g4_563"/>
<path d="M768.9,442.9h67.5" class="g5_563"/>
<path d="M836.4,442.9h33.8" class="g6_563"/>
<path d="M523,486V456.8m0,58.4V486m0,114.2v-85" class="g0_563"/>
<path d="M639.1,576.2h35.7" class="g1_563"/>
<path d="M685.3,576.2h71.4" class="g2_563"/>
<path d="M777.8,564.5h92.4V531.6H777.8v32.9Z" class="g7_563"/>
<path d="M523,629.5V600.2m0,102.3v-73" class="g0_563"/>
<path d="M534,678.8H768.9V645.9H534v32.9Z" class="g7_563"/>
<path d="M768.9,688.6h67.5" class="g4_563"/>
<path d="M836.4,688.6h33.8" class="g6_563"/>
<path d="M523,731.7V702.5M193,732.1H881.2m-688.2,0H881.2" class="g0_563"/>
</svg>