<?xml version="1.0" encoding="UTF-8" standalone="no"?>
<!DOCTYPE svg PUBLIC "-//W3C//DTD SVG 1.1//EN"
"http://www.w3.org/Graphics/SVG/1.1/DTD/svg11.dtd">
<svg viewBox="0 0 1286 909" version="1.1" xmlns="http://www.w3.org/2000/svg" xmlns:xlink="http://www.w3.org/1999/xlink">
<defs>
<style type="text/css"><![CDATA[
.g0_519{
fill: none;
stroke: #000000;
stroke-width: 0.73;
stroke-linecap: butt;
stroke-linejoin: miter;
}
.g1_519{
fill: none;
stroke: #02B5EE;
stroke-width: 1.262;
stroke-linecap: butt;
stroke-linejoin: miter;
}
.g2_519{
fill: none;
stroke: #FFA313;
stroke-width: 1.262;
stroke-linecap: butt;
stroke-linejoin: miter;
}
.g3_519{
fill: none;
stroke: #FFA313;
stroke-width: 0.73;
stroke-linecap: butt;
stroke-linejoin: miter;
}
.g4_519{
fill: none;
stroke: #02B5EE;
stroke-width: 0.73;
stroke-linecap: butt;
stroke-linejoin: miter;
}
.g5_519{
fill: none;
stroke: #5EE200;
stroke-width: 1.262;
stroke-linecap: butt;
stroke-linejoin: miter;
}
.g6_519{
fill: none;
stroke: #5EE200;
stroke-width: 0.73;
stroke-linecap: butt;
stroke-linejoin: miter;
}
]]></style>
</defs>
<path d="M193,83.4h900.3M193,111.6h818.1m-818.1,0h818.1M503.3,141.2V112m0,114.3V141.2" class="g0_519"/>
<path d="M737.3,202.3h34.6" class="g1_519"/>
<path d="M782.4,202.3h217.7" class="g2_519"/>
<path d="M503.3,255.5V226.3m0,102.2v-73" class="g0_519"/>
<path d="M545.8,314.7H960.3" class="g3_519"/>
<path d="M966.4,314.7h33.7" class="g4_519"/>
<path d="M503.3,357.8V328.5m0,58.5V357.8m0,114.2V387" class="g0_519"/>
<path d="M765.9,448H901.8" class="g1_519"/>
<path d="M912.3,448h87.8" class="g5_519"/>
<path d="M503.3,501.2V472m0,102.3V501.2" class="g0_519"/>
<path d="M741.7,560.4H842" class="g6_519"/>
<path d="M848.1,560.4h152" class="g4_519"/>
<path d="M503.3,603.5V574.3m0,58.4V603.5m0,60.6V632.7m0,60.6V664.1M193,693.7h818.1m-818.1,0h818.1" class="g0_519"/>
</svg>