<?xml version="1.0" encoding="UTF-8" standalone="no"?>
<!DOCTYPE svg PUBLIC "-//W3C//DTD SVG 1.1//EN"
"http://www.w3.org/Graphics/SVG/1.1/DTD/svg11.dtd">
<svg viewBox="0 0 909 1286" version="1.1" xmlns="http://www.w3.org/2000/svg" xmlns:xlink="http://www.w3.org/1999/xlink">
<defs>
<style type="text/css"><![CDATA[
.g0_76{
fill: none;
stroke: #000000;
stroke-width: 0.73;
stroke-linecap: butt;
stroke-linejoin: miter;
}
.g1_76{
fill: #E81A58;
}
.g2_76{
fill: #401A1A;
}
]]></style>
</defs>
<path d="M116.9,159.9H792.5" class="g0_76"/>
<path d="M116.9,275V218.7c0,-21.7,17.6,-39.2,39.2,-39.2H792.5v56.4c0,21.6,-17.5,39.1,-39.1,39.1Z" class="g1_76"/>
<path d="M119.5,272.4V212H789.9v23.9c0,20.2,-16.3,36.5,-36.5,36.5Z" class="g2_76"/>
<path d="M116.9,458.2V372.6c0,-21.6,17.6,-39.1,39.2,-39.1H792.5V419c0,21.6,-17.5,39.2,-39.1,39.2Z" class="g1_76"/>
<path d="M119.5,455.6V365.9H789.9V419c0,20.2,-16.3,36.6,-36.5,36.6Z" class="g2_76"/>
<path d="M116.9,787.4V555.7c0,-21.6,17.6,-39.1,39.2,-39.1H792.5V748.3c0,21.6,-17.5,39.1,-39.1,39.1Z" class="g1_76"/>
<path d="M119.5,784.8V549.1H789.9V748.3c0,20.2,-16.3,36.5,-36.5,36.5Z" class="g2_76"/>
<path d="M116.9,941.4V885c0,-21.6,17.6,-39.1,39.2,-39.1H792.5v56.3c0,21.6,-17.5,39.2,-39.1,39.2Z" class="g1_76"/>
<path d="M119.5,938.8V878.4H789.9v23.8c0,20.2,-16.3,36.6,-36.5,36.6Z" class="g2_76"/>
</svg>