<?xml version="1.0" encoding="UTF-8" standalone="no"?>
<!DOCTYPE svg PUBLIC "-//W3C//DTD SVG 1.1//EN"
"http://www.w3.org/Graphics/SVG/1.1/DTD/svg11.dtd">
<svg viewBox="0 0 1286 909" version="1.1" xmlns="http://www.w3.org/2000/svg" xmlns:xlink="http://www.w3.org/1999/xlink">
<defs>
<style type="text/css"><![CDATA[
.g0_1067{
fill: none;
stroke: #000000;
stroke-width: 0.73;
stroke-linecap: butt;
stroke-linejoin: miter;
}
.g1_1067{
fill: #E6CEEE;
}
.g2_1067{
fill: #F81693;
}
.g3_1067{
fill: #FFE6E6;
}
]]></style>
</defs>
<path d="M193,83.4h900.3M193,111.6h951.6m-951.6,0h951.6M501,141.2V112m0,62.1V141.2" class="g0_1067"/>
<path d="M1054.2,174.1h79.5V141.2h-79.5v32.9Z" class="g1_1067"/>
<path d="M501,203.3V174.1m0,58.5V203.3m0,77.3v-48" class="g0_1067"/>
<path d="M649.1,276.8H754.7V243.9H649.1v32.9Z" class="g1_1067"/>
<path d="M782.2,272.8V240.4c0,-4.4,3.4,-7.8,7.8,-7.8h63.1c4.4,0,7.8,3.4,7.8,7.8v32.4c0,4.3,-3.4,7.8,-7.8,7.8H790c-4.4,0,-7.8,-3.5,-7.8,-7.8Z" class="g2_1067"/>
<path d="M784.8,272.8V240.4c0,-2.9,2.3,-5.2,5.2,-5.2h63.1c2.9,0,5.2,2.3,5.2,5.2v32.4c0,2.9,-2.3,5.2,-5.2,5.2H790c-2.9,0,-5.2,-2.3,-5.2,-5.2Z" class="g3_1067"/>
<path d="M1018.5,276.8h115.2V243.9H1018.5v32.9Z" class="g1_1067"/>
<path d="M501,309.8V280.6m0,72.1V309.8" class="g0_1067"/>
<path d="M627.2,346.8H782.4V314H627.2v32.8Z" class="g1_1067"/>
<path d="M805.4,344.9V317.6c0,-4.3,3.5,-7.8,7.8,-7.8h77.9c4.3,0,7.8,3.5,7.8,7.8v27.3c0,4.3,-3.5,7.8,-7.8,7.8H813.2c-4.3,0,-7.8,-3.5,-7.8,-7.8Z" class="g2_1067"/>
<path d="M808,344.9V317.6c0,-2.8,2.3,-5.2,5.2,-5.2h77.9c2.9,0,5.2,2.4,5.2,5.2v27.3c0,2.9,-2.3,5.2,-5.2,5.2H813.2c-2.9,0,-5.2,-2.3,-5.2,-5.2Z" class="g3_1067"/>
<path d="M978.6,346.8h155.1V314H978.6v32.8Z" class="g1_1067"/>
<path d="M501,381.9V352.7M193,382.3h951.6m-951.6,0h951.6" class="g0_1067"/>
</svg>