<?xml version="1.0" encoding="UTF-8" standalone="no"?>
<!DOCTYPE svg PUBLIC "-//W3C//DTD SVG 1.1//EN"
"http://www.w3.org/Graphics/SVG/1.1/DTD/svg11.dtd">
<svg viewBox="0 0 1286 909" version="1.1" xmlns="http://www.w3.org/2000/svg" xmlns:xlink="http://www.w3.org/1999/xlink">
<defs>
<style type="text/css"><![CDATA[
.g0_360{
fill: none;
stroke: #000000;
stroke-width: 0.73;
stroke-linecap: butt;
stroke-linejoin: miter;
}
.g1_360{
fill: #B3E9FA;
}
.g2_360{
fill: none;
stroke: #02B5EE;
stroke-width: 1.262;
stroke-linecap: butt;
stroke-linejoin: miter;
}
.g3_360{
fill: none;
stroke: #5EE200;
stroke-width: 1.262;
stroke-linecap: butt;
stroke-linejoin: miter;
}
]]></style>
</defs>
<path d="M193,83.4h900.3M193,210.6H834m-641,0H834M509.1,240.2V211m0,58.5V240.2m0,114.3v-85" class="g0_360"/>
<path d="M671.9,304.7V292.5c0,-2.9,2.3,-5.2,5.2,-5.2H786.4c2.9,0,5.2,2.3,5.2,5.2v12.2c0,2.9,-2.3,5.2,-5.2,5.2H677.1c-2.9,0,-5.2,-2.3,-5.2,-5.2Z" class="g1_360"/>
<path d="M669.3,330.5H794.2" class="g2_360"/>
<path d="M804.7,330.5H823" class="g3_360"/>
<path d="M509.1,383.7V354.5m0,58.4V383.7m0,114.3V412.9" class="g0_360"/>
<path d="M522.7,454.5V443.2c0,-2.9,2.3,-5.2,5.2,-5.2H674.3c2.9,0,5.2,2.3,5.2,5.2v11.3c0,2.9,-2.3,5.2,-5.2,5.2H527.9c-2.9,0,-5.2,-2.3,-5.2,-5.2Z" class="g1_360"/>
<path d="M520.1,474h162" class="g2_360"/>
<path d="M692.6,474H823" class="g3_360"/>
<path d="M509.1,527.2V498M193,527.5H834m-641,0H834" class="g0_360"/>
</svg>