<?xml version="1.0" encoding="UTF-8" standalone="no"?>
<!DOCTYPE svg PUBLIC "-//W3C//DTD SVG 1.1//EN"
"http://www.w3.org/Graphics/SVG/1.1/DTD/svg11.dtd">
<svg viewBox="0 0 909 1286" version="1.1" xmlns="http://www.w3.org/2000/svg" xmlns:xlink="http://www.w3.org/1999/xlink">
<defs>
<style type="text/css"><![CDATA[
.g0_26{
fill: none;
stroke: #000000;
stroke-width: 0.73;
stroke-linecap: butt;
stroke-linejoin: miter;
}
.g1_26{
fill: #FDE8E9;
}
]]></style>
</defs>
<path d="M116.9,159.9H792.5" class="g0_26"/>
<path d="M167.6,210.3h44.7V182.5H167.6v27.8Z" class="g1_26"/>
<path d="M229.2,208.3h20.9V184.6H229.2v23.7Z" class="g1_26"/>
<path d="M167.6,240h78.5V212.2H167.6V240Z" class="g1_26"/>
<path d="M263,238h54.1V214.2H263V238Z" class="g1_26"/>
<path d="M350.9,238H383V214.2H350.9V238Z" class="g1_26"/>
<path d="M168.6,284.3h97.2V256.5H168.6v27.8Z" class="g1_26"/>
<path d="M491.4,284.3H671.3V256.5H491.4v27.8Z" class="g1_26"/>
<path d="M336.5,342.7h95.4V314.9H336.5v27.8Z" class="g1_26"/>
<path d="M499.5,340.7h22.6V317H499.5v23.7Z" class="g1_26"/>
<path d="M539,340.7h64.2V317H539v23.7Z" class="g1_26"/>
<path d="M116.9,401.6h44.8V373.8H116.9v27.8Z" class="g1_26"/>
<path d="M178.6,401.6H290.9V373.8H178.6v27.8Z" class="g1_26"/>
<path d="M509.6,489.3H638.7V461.5H509.6v27.8Z" class="g1_26"/>
<path d="M560.4,547.8H622V519.9H560.4v27.9Z" class="g1_26"/>
<path d="M253.5,635.4h146V607.6h-146v27.8Z" class="g1_26"/>
<path d="M336.5,693.9H516.3V666H336.5v27.9Z" class="g1_26"/>
<path d="M285.8,735.7h87.5V711.9H285.8v23.8Z" class="g1_26"/>
<path d="M335.9,765.6h51V741.2h-51v24.4Z" class="g1_26"/>
<path d="M167.6,794.1h44.6V770.4H167.6v23.7Z" class="g1_26"/>
<path d="M553.7,927.7H682.9V899.8H553.7v27.9Z" class="g1_26"/>
<path d="M116.9,1015.3H229.2V987.5H116.9v27.8Z" class="g1_26"/>
<path d="M116.9,1103h95.4v-27.8H116.9V1103Z" class="g1_26"/>
<path d="M116.9,1132.7h44.8v-27.9H116.9v27.9Z" class="g1_26"/>
</svg>