<?xml version="1.0" encoding="UTF-8" standalone="no"?>
<!DOCTYPE svg PUBLIC "-//W3C//DTD SVG 1.1//EN"
"http://www.w3.org/Graphics/SVG/1.1/DTD/svg11.dtd">
<svg viewBox="0 0 909 1286" version="1.1" xmlns="http://www.w3.org/2000/svg" xmlns:xlink="http://www.w3.org/1999/xlink">
<defs>
<clipPath id="c0_4"><path d="M124.3,280.4c-3.9,0,-7,-3.1,-7,-7c0,-3.8,3.1,-7,7,-7c3.9,0,7,3.2,7,7c0,3.9,-3.1,7,-7,7Z"/></clipPath>
<clipPath id="c1_4"><path d="M599.5,280.4c-3.9,0,-7.1,-3.1,-7.1,-7c0,-3.8,3.2,-7,7.1,-7c3.8,0,7,3.2,7,7c0,3.9,-3.2,7,-7,7Z"/></clipPath>
<style type="text/css"><![CDATA[
.g0_4{
fill: none;
stroke: #000000;
stroke-width: 0.73;
stroke-linecap: butt;
stroke-linejoin: miter;
}
.g1_4{
fill: none;
stroke: #000000;
stroke-width: 0.73;
stroke-linecap: round;
stroke-linejoin: round;
}
.g2_4{
fill: #FFF200;
stroke: #FF0000;
stroke-width: 3.653;
stroke-linecap: butt;
stroke-linejoin: miter;
}
.g3_4{
fill: none;
stroke: #8007AC;
stroke-width: 0.66;
stroke-linecap: butt;
stroke-linejoin: round;
stroke-miterlimit: 1;
}
]]></style>
</defs>
<path d="M117.3,367H257.6V226.7H117.3ZM304.4,320.2H164.1V179.9H304.4Zm0,0L257.6,367M304.4,179.9l-46.8,46.8m-140.3,0l46.8,-46.8M117.3,367l46.8,-46.8" class="g0_4"/>
<g clip-path="url(#c0_4)">
<image x="116" y="266" width="16" height="14" xlink:href="shade/1.png"/>
</g>
<path d="M118,308.5H257.6" class="g0_4"/>
<path d="M121.5,312.9c-.7,-2.6,-2.3,-3.9,-3.8,-4.4c1.5,-.5,3.1,-1.7,3.8,-4.4" class="g1_4"/>
<path d="M580.2,273.4l9.4,3l-5.1,5.1l6.5,.5l-8,10.6l10.4,-6.2l-1.7,8.2l5,-5.5l1.1,8.4l2.6,-7.9l3.6,6l-.1,-7.6l8.4,7.5l-5.5,-11.1h5l-3,-5.1l11.2,-.9l-10.5,-5l6.7,-4.2l-7.4,-1.6l3.1,-5.2l-5.1,.1l3.5,-8.4l-6.4,4.8L605.3,247l-4.9,10.3l-2.3,-4.9l-1.4,5.4l-6,-7.6l2.7,10.3l-7.2,-3.4l4.8,7.8l-10.8,-1.2l9.4,6.7Z" class="g2_4"/>
<path d="M459.1,367H599.5V226.7H459.1ZM646.2,320.2H505.9V179.9H646.2Zm0,0L599.5,367M646.2,179.9l-46.7,46.8m-140.4,0l46.8,-46.8M459.1,367l46.8,-46.8" class="g0_4"/>
<g clip-path="url(#c1_4)">
<image x="592" y="266" width="15" height="14" xlink:href="shade/2.png"/>
</g>
<path d="M459.1,308.5H598.7" class="g0_4"/>
<path d="M595.3,304.1c.7,2.7,2.2,3.9,3.8,4.4c-1.6,.5,-3.1,1.8,-3.8,4.4" class="g1_4"/>
<path d="M423.5,583.1H646.4M423.5,654.5h48M201.8,708h48" class="g0_4"/>
<path d="M421.6,776.2L430.7,758" class="g3_4"/>
<path d="M492.3,768.9h47.9" class="g0_4"/>
<path d="M505.9,789.7L515,771.5" class="g3_4"/>
<path d="M423.5,848.2h43m-43,122.6h39.9m30.3,79.3h43" class="g0_4"/>
<path d="M537,1054.9l26.4,-13.2m-3.5,13.2l26.4,-13.2" class="g3_4"/>
<path d="M423.5,1124.6h43" class="g0_4"/>
</svg>