<?xml version="1.0" encoding="UTF-8" standalone="no"?>
<!DOCTYPE svg PUBLIC "-//W3C//DTD SVG 1.1//EN"
"http://www.w3.org/Graphics/SVG/1.1/DTD/svg11.dtd">
<svg viewBox="0 0 1286 909" version="1.1" xmlns="http://www.w3.org/2000/svg" xmlns:xlink="http://www.w3.org/1999/xlink">
<defs>
<style type="text/css"><![CDATA[
.g0_1079{
fill: none;
stroke: #000000;
stroke-width: 0.73;
stroke-linecap: butt;
stroke-linejoin: miter;
}
.g1_1079{
fill: #FFCCCC;
}
.g2_1079{
fill: none;
stroke: #F81693;
stroke-width: 1.461;
stroke-linecap: butt;
stroke-linejoin: miter;
stroke-dasharray: 2,2;
}
.g3_1079{
fill: none;
stroke: #02B5EE;
stroke-width: 1.262;
stroke-linecap: butt;
stroke-linejoin: miter;
}
.g4_1079{
fill: none;
stroke: #02B5EE;
stroke-width: 0.73;
stroke-linecap: butt;
stroke-linejoin: miter;
}
]]></style>
</defs>
<path d="M193,83.4h900.3M193,210.6H899.1m-706.1,0H899.1M458.5,240.2V211m0,58.5V240.2m0,63.2V269.5" class="g0_1079"/>
<path d="M688.1,303.4H827.5V270.5H688.1v32.9Z" class="g1_1079"/>
<path d="M841.6,297h42.9" class="g2_1079"/>
<path d="M458.5,332.6V303.4m0,62.1V332.6" class="g0_1079"/>
<path d="M772.7,361.1h31.9" class="g2_1079"/>
<path d="M814.4,365.5h73.7V332.6H814.4v32.9Z" class="g1_1079"/>
<path d="M458.5,394.7V365.5m0,58.4V394.7m0,114.3V423.9" class="g0_1079"/>
<path d="M469.4,485H588.3" class="g3_1079"/>
<path d="M638.5,473.3H777.9V440.4H638.5v32.9Z" class="g1_1079"/>
<path d="M792,473.2h63.3" class="g2_1079"/>
<path d="M458.5,538.2V509m0,102.3V538.2" class="g0_1079"/>
<path d="M574.7,583.1h81.7" class="g2_1079"/>
<path d="M666.1,587.5h73.8V554.6H666.1v32.9Z" class="g1_1079"/>
<path d="M762.9,597.4H888.1" class="g4_1079"/>
<path d="M458.5,640.5V611.3m0,58.4V640.5m0,58.4V669.7m0,58.5V698.9M193,728.5H899.1m-706.1,0H899.1" class="g0_1079"/>
</svg>