<?xml version="1.0" encoding="UTF-8" standalone="no"?>
<!DOCTYPE svg PUBLIC "-//W3C//DTD SVG 1.1//EN"
"http://www.w3.org/Graphics/SVG/1.1/DTD/svg11.dtd">
<svg viewBox="0 0 1286 909" version="1.1" xmlns="http://www.w3.org/2000/svg" xmlns:xlink="http://www.w3.org/1999/xlink">
<defs>
<style type="text/css"><![CDATA[
.g0_465{
fill: none;
stroke: #000000;
stroke-width: 0.73;
stroke-linecap: butt;
stroke-linejoin: miter;
}
.g1_465{
fill: none;
stroke: #02B5EE;
stroke-width: 1.262;
stroke-linecap: butt;
stroke-linejoin: miter;
}
.g2_465{
fill: none;
stroke: #FFA313;
stroke-width: 1.262;
stroke-linecap: butt;
stroke-linejoin: miter;
}
.g3_465{
fill: none;
stroke: #FFA313;
stroke-width: 0.73;
stroke-linecap: butt;
stroke-linejoin: miter;
}
.g4_465{
fill: none;
stroke: #02B5EE;
stroke-width: 0.73;
stroke-linecap: butt;
stroke-linejoin: miter;
}
]]></style>
</defs>
<path d="M193,83.4h900.3M193,210.6H825.5m-632.5,0H825.5M406,240.2V211m0,58.5V240.2m0,114.3v-85" class="g0_465"/>
<path d="M494.8,330.5h34.6" class="g1_465"/>
<path d="M539.9,330.5H814.5" class="g2_465"/>
<path d="M406,383.7V354.5m0,102.3V383.7" class="g0_465"/>
<path d="M416.9,442.9H696.3" class="g3_465"/>
<path d="M780.7,442.9h33.8" class="g4_465"/>
<path d="M406,486V456.8m0,58.4V486m0,114.2v-85" class="g0_465"/>
<path d="M456.4,576.2H491" class="g1_465"/>
<path d="M501.5,576.2h313" class="g2_465"/>
<path d="M406,629.5V600.2m0,102.3v-73" class="g0_465"/>
<path d="M509.8,688.6H696.3" class="g3_465"/>
<path d="M780.7,688.6h33.8" class="g4_465"/>
<path d="M406,731.7V702.5m0,58.5V731.7M193,761.3H825.5m-632.5,0H825.5" class="g0_465"/>
</svg>