<?xml version="1.0" encoding="UTF-8" standalone="no"?>
<!DOCTYPE svg PUBLIC "-//W3C//DTD SVG 1.1//EN"
"http://www.w3.org/Graphics/SVG/1.1/DTD/svg11.dtd">
<svg viewBox="0 0 909 1286" version="1.1" xmlns="http://www.w3.org/2000/svg" xmlns:xlink="http://www.w3.org/1999/xlink">
<defs>
<clipPath id="c0_48"><path d="M123.1,695.9V664.2h29.1v31.7Z"/></clipPath>
<clipPath id="c1_48"><path d="M122.1,696.4V663.7H153v32.7Z"/></clipPath>
<style type="text/css"><![CDATA[
.g0_48{
fill: none;
stroke: #000000;
stroke-width: 0.73;
stroke-linecap: butt;
stroke-linejoin: miter;
}
.g1_48{
fill: none;
stroke: #000000;
stroke-width: 0.657;
stroke-linecap: butt;
stroke-linejoin: miter;
}
.g2_48{
fill: #FFFFFF;
}
.g3_48{
fill: none;
stroke: #000000;
stroke-width: 1.461;
stroke-linecap: butt;
stroke-linejoin: miter;
}
.g4_48{
}
.g5_48{
fill: none;
stroke: #000000;
stroke-width: 0.459;
stroke-linecap: butt;
stroke-linejoin: round;
}
.g6_48{
fill: none;
stroke: #000000;
stroke-width: 0.722;
stroke-linecap: round;
stroke-linejoin: miter;
}
.g7_48{
fill: none;
stroke: #000000;
stroke-width: 0.722;
stroke-linecap: round;
stroke-linejoin: round;
}
.g8_48{
fill: #D40000;
}
.g9_48{
fill: none;
stroke: #000000;
stroke-width: 0.578;
stroke-linecap: round;
stroke-linejoin: miter;
}
.ga_48{
fill: #E9C6AF;
}
.gb_48{
fill: none;
stroke: #695000;
stroke-width: 0.152;
stroke-linecap: round;
stroke-linejoin: round;
}
.gc_48{
fill: none;
stroke: #000000;
stroke-width: 2.739;
stroke-linecap: butt;
stroke-linejoin: miter;
}
]]></style>
</defs>
<path d="M417.8,379.1h44.1m-3,54.8h19.5m-.8,164.4h25.1M584.5,325.7c13.8,13.8,14,36.2,.6,50.3m7.1,-.6c-2.5,.5,-5,.8,-7.4,.9c-.1,-2.4,-.4,-4.7,-.8,-6.9" class="g0_48"/>
<path d="M637.4,357.6h39.7" class="g1_48"/>
<path d="M584.5,380.5c13.8,13.8,14,36.2,.6,50.3m7.1,-.6c-2.5,.5,-5,.7,-7.4,.9c-.1,-2.4,-.4,-4.7,-.8,-6.9" class="g0_48"/>
<path d="M117.7,868.8V657.4H791.8V868.8Z" class="g2_48"/>
<path d="M117.7,868.8V657.4H791.8V868.8Z" class="g3_48"/>
<path d="M518.4,780.4h25.1M219,824.2h25.1m107.8,0H377m71.2,0h25.1" class="g0_48"/>
<g clip-path="url(#c1_48)">
<path clip-path="url(#c0_48)" d="M126.4,689.6c0,0,1.5,-.9,1.2,-1.3c-.1,-.1,-.3,-.1,-.6,0c-1.6,.3,-5,2.1,-3.3,4.1c1.4,1.6,6.4,2.4,11.7,1.4c7.3,-1.4,13.5,-5.5,11.1,-8.3c-1.6,-2,-6.7,-2.1,-10.8,-2.2c-2.1,0,-6.6,-.1,-8,-1.7c-.6,-.7,-.5,-1.6,.1,-2.2c1,-.9,3.8,-1.4,4,-1.5c.7,-.1,2.5,-.4,4.6,-.4c1.1,.1,2.5,.1,3.2,1c.2,.3,.4,.6,.4,.7c0,0,0,.1,.1,.2c.1,.1,.4,.1,.5,.1c.5,-.1,1.5,-.6,2,-1.1c.3,-.2,.8,-.6,0,-1.5c-.9,-1.1,-2.3,-1.2,-4,-1.2c-2.3,0,-4.1,.3,-4.9,.5c-5.8,1.1,-11.1,4.6,-9,7c1.5,1.8,6.3,1.9,9,1.9c3.9,.1,8.4,.3,9.8,2c.6,.7,.9,1.9,-.4,2.9c-1.2,.9,-4,1.7,-5.8,2c-4.4,.9,-9.4,.2,-10.6,-1.2c0,-.1,-.5,-.6,-.3,-1.2Z" class="g4_48"/>
<path d="M131.5,692l-.2,-.2l.3,-4.6q.3,-5.6,.5,-6c.1,-.1,1.6,-2.2,3.3,-4.6c1.7,-2.3,4.3,-6,5.9,-8.2c1.5,-2.2,2.8,-4,2.9,-4c.4,0,.1,.4,-1.8,3.2c-1.2,1.6,-3.7,5.3,-5.7,8.1c-2,2.9,-3.6,5.2,-3.6,5.2c0,0,.5,.1,1,.2c2,.2,3.3,.5,4.5,1.2c.6,.3,1,.5,1.5,1.1c.8,.8,1.2,1.4,1.4,2.2c.1,.2,.1,.4,.2,.4c.1,0,.7,-.8,5.2,-7.5c2.4,-3.7,4.5,-6.7,4.6,-6.8c.2,-.3,.4,-.1,.2,.2c0,.1,-1.5,2.4,-3.2,5c-1.8,2.7,-3.8,5.7,-4.5,6.8c-1.5,2.3,-2.1,3.3,-2.3,3.7c-.2,.4,-.3,.5,-.9,.8c-.8,.4,-8.7,3.9,-8.9,3.9c-.1,.1,-.3,0,-.4,-.1Z" class="g4_48"/>
<path d="M135.2,690c2.2,-.9,4,-1.7,4.6,-2c.7,-.4,.7,-.5,.7,-1.5c-.2,-1.7,-1.4,-3,-3.6,-3.7c-1.2,-.4,-4.3,-.8,-4.4,-.6c0,0,-.1,1.4,-.2,3.1c-.1,1.7,-.2,3.3,-.2,3.6c-.1,1.2,.1,1.5,-.2,2.6c.1,.1,1.8,-.8,1.8,-.8c.1,0,.7,-.3,1.5,-.7Z" class="g4_48"/>
<path d="M131.5,692l-.2,-.2l.3,-4.6q.3,-5.6,.5,-6c.1,-.1,1.6,-2.2,3.3,-4.6c1.7,-2.3,4.3,-6,5.9,-8.2c1.5,-2.2,2.8,-4,2.9,-4c.4,0,.1,.4,-1.8,3.2c-1.2,1.6,-3.7,5.3,-5.7,8.1c-2,2.9,-3.6,5.2,-3.6,5.2c0,0,.5,.1,1,.2c2,.2,3.3,.5,4.5,1.2c.6,.3,1,.5,1.5,1.1c.8,.8,1.2,1.4,1.4,2.2c.1,.2,.1,.4,.2,.4c.1,0,.7,-.8,5.2,-7.5c2.4,-3.7,4.5,-6.7,4.6,-6.8c.2,-.3,.4,-.1,.2,.2c0,.1,-1.5,2.4,-3.2,5c-1.8,2.7,-3.8,5.7,-4.5,6.8c-1.5,2.3,-2.1,3.3,-2.3,3.7c-.2,.4,-.3,.5,-.9,.8c-.8,.4,-8.7,3.9,-8.9,3.9c-.1,.1,-.3,0,-.4,-.1Zm3.7,-2c2.2,-.9,4,-1.7,4.6,-2c.7,-.4,.7,-.5,.7,-1.5c-.2,-1.7,-1.4,-3,-3.6,-3.7c-1.2,-.4,-4.3,-.8,-4.4,-.6c0,0,-.1,1.4,-.2,3.1c-.1,1.7,-.2,3.3,-.2,3.6c-.1,1.2,.1,1.5,-.2,2.6c.1,.1,1.8,-.8,1.8,-.8c.1,0,.7,-.3,1.5,-.7Z" class="g5_48"/>
<path d="M135.3,681.4l11.2,-16m-8.2,17.1L149,666.8" class="g6_48"/>
<path d="M140.4,684.2l10,-14.4l.2,-.3" class="g7_48"/>
<path d="M134.1,681c-.4,0,-.8,-.1,-.9,-.1c0,-.1,2.5,-3.7,6.7,-9.6c1.9,-2.7,3.6,-5.2,3.8,-5.6c.2,-.3,.4,-.6,.5,-.6c.1,0,.7,.5,.9,.7c.1,.3,.1,.6,-.1,1.1c-.2,.5,-9.8,14.3,-9.9,14.3c-.1,0,-.5,-.1,-1,-.2Z" class="g8_48"/>
<path d="M137.6,681.8c-.2,-.1,-.8,-.3,-1.2,-.4l-.7,-.1l.3,-.4c.1,-.2,2.3,-3.4,4.8,-7l4.7,-6.7l.5,-.3c.9,-.4,1.6,-.4,2.1,.1l.3,.3l-5,7.3c-3.1,4.5,-5.1,7.4,-5.1,7.4c-.1,0,-.4,-.1,-.7,-.2Z" class="g8_48"/>
<path d="M140,683.2c-.2,-.2,-.6,-.5,-.8,-.6c-.2,-.2,-.3,-.3,-.3,-.4c0,0,9.4,-13.9,9.8,-14.5c.1,-.1,.5,.3,.8,.7c.3,.4,.3,.6,.4,1c0,.4,0,.6,-.1,.8c-.2,.3,-9.1,13.1,-9.2,13.3c-.2,.2,-.2,.1,-.6,-.3Z" class="g8_48"/>
<path d="M141.6,685.9c0,-.1,-.1,-.3,-.1,-.6c-.1,-.2,-.3,-.6,-.4,-.8l-.3,-.4l4.7,-6.8c2.6,-3.7,4.8,-6.8,4.8,-6.8c.4,0,1,.7,1,1.1c0,.2,-.6,1.2,-1.9,3.1c-1.1,1.6,-3.1,4.6,-4.6,6.8c-3,4.4,-3.1,4.6,-3.2,4.4Z" class="g8_48"/>
<path d="M131.9,687.4c2.3,-.1,3.6,.7,4.1,2.3" class="g9_48"/>
<path d="M132,691.3c0,-.4,.1,-.4,.1,-1.4c0,-.7,0,-.9,0,-1.3c0,-.3,0,-.6,0,-.7l.1,-.2c.1,0,.6,0,.7,0c.4,0,.8,.1,1.1,.2c.2,.1,.4,.2,.6,.3c.2,.1,.3,.2,.4,.4c.3,.2,.4,.4,.6,.7c0,.2,.1,.5,.1,.5c0,0,-1.5,.7,-1.8,.8c-.1,0,-.2,.1,-.3,.1c-1.1,.6,-1.4,.7,-1.6,.8Z" class="g4_48"/>
<path d="M136.2,689.2c-.6,-1.3,-1.8,-2,-3.4,-2.1l-.6,-.1v-.5c.1,-.2,.1,-1.2,.2,-2.2c0,-.9,.1,-1.8,.1,-1.9l.1,-.2h.7c.8,.1,2.3,.3,3.1,.5c1.7,.4,3.1,1.4,3.6,2.5c.4,.8,.6,2.1,.3,2.4c-.1,.1,-.8,.5,-2.5,1.3c-1.6,.7,-1.5,.6,-1.6,.3Z" class="ga_48"/>
<path d="M136.2,689.2c-.6,-1.3,-1.8,-2,-3.4,-2.1l-.6,-.1v-.5c.1,-.2,.1,-1.2,.2,-2.2c0,-.9,.1,-1.8,.1,-1.9l.1,-.2h.7c.8,.1,2.3,.3,3.1,.5c1.7,.4,3.1,1.4,3.6,2.5c.4,.8,.6,2.1,.3,2.4c-.1,.1,-.8,.5,-2.5,1.3c-1.6,.7,-1.5,.6,-1.6,.3Z" class="gb_48"/>
</g>
<path d="M152.7,689.4H546.6" class="g0_48"/>
<path d="M137.6,696.9V859.4" class="gc_48"/>
</svg>