<?xml version="1.0" encoding="UTF-8" standalone="no"?>
<!DOCTYPE svg PUBLIC "-//W3C//DTD SVG 1.1//EN"
"http://www.w3.org/Graphics/SVG/1.1/DTD/svg11.dtd">
<svg viewBox="0 0 1286 909" version="1.1" xmlns="http://www.w3.org/2000/svg" xmlns:xlink="http://www.w3.org/1999/xlink">
<defs>
<style type="text/css"><![CDATA[
.g0_188{
fill: none;
stroke: #000000;
stroke-width: 0.73;
stroke-linecap: butt;
stroke-linejoin: miter;
}
.g1_188{
fill: #B3E9FA;
}
.g2_188{
fill: none;
stroke: #02B5EE;
stroke-width: 1.262;
stroke-linecap: butt;
stroke-linejoin: miter;
}
.g3_188{
fill: none;
stroke: #5EE200;
stroke-width: 1.262;
stroke-linecap: butt;
stroke-linejoin: miter;
}
.g4_188{
fill: #FFCCCC;
}
.g5_188{
fill: none;
stroke: #02B5EE;
stroke-width: 0.73;
stroke-linecap: butt;
stroke-linejoin: miter;
}
]]></style>
</defs>
<path d="M193,83.4h900.3M193,210.6h841.8m-841.8,0h841.8M659,240.2V211m0,58.5V240.2m0,114.3v-85" class="g0_188"/>
<path d="M672.6,304.7V292.5c0,-2.9,2.3,-5.2,5.2,-5.2h70.3c2.9,0,5.2,2.3,5.2,5.2v12.2c0,2.9,-2.3,5.2,-5.2,5.2H677.8c-2.9,0,-5.2,-2.3,-5.2,-5.2Z" class="g1_188"/>
<path d="M670,330.5h85.9" class="g2_188"/>
<path d="M766.4,330.5h257.4" class="g3_188"/>
<path d="M659,383.7V354.5m0,58.4V383.7M659,498V412.9" class="g0_188"/>
<path d="M833,474h75.7" class="g2_188"/>
<path d="M929.7,462.2h94.1V429.4H929.7v32.8Z" class="g4_188"/>
<path d="M659,527.2V498m0,102.2v-73" class="g0_188"/>
<path d="M898.7,576.5h57.5V543.6H898.7v32.9Z" class="g4_188"/>
<path d="M956.2,586.4h67.6" class="g5_188"/>
<path d="M659,629.5V600.2m0,58.5V629.5m0,58.4V658.7M193,688.3h841.8m-841.8,0h841.8" class="g0_188"/>
</svg>