<?xml version="1.0" encoding="UTF-8" standalone="no"?>
<!DOCTYPE svg PUBLIC "-//W3C//DTD SVG 1.1//EN"
"http://www.w3.org/Graphics/SVG/1.1/DTD/svg11.dtd">
<svg viewBox="0 0 1286 909" version="1.1" xmlns="http://www.w3.org/2000/svg" xmlns:xlink="http://www.w3.org/1999/xlink">
<defs>
<style type="text/css"><![CDATA[
.g0_957{
fill: none;
stroke: #000000;
stroke-width: 0.73;
stroke-linecap: butt;
stroke-linejoin: miter;
}
.g1_957{
fill: none;
stroke: #02B5EE;
stroke-width: 1.262;
stroke-linecap: butt;
stroke-linejoin: miter;
}
.g2_957{
fill: none;
stroke: #5EE200;
stroke-width: 1.262;
stroke-linecap: butt;
stroke-linejoin: miter;
}
.g3_957{
fill: none;
stroke: #5EE200;
stroke-width: 0.73;
stroke-linecap: butt;
stroke-linejoin: miter;
}
.g4_957{
fill: none;
stroke: #02B5EE;
stroke-width: 0.73;
stroke-linecap: butt;
stroke-linejoin: miter;
}
.g5_957{
fill: #B3E9FA;
}
]]></style>
</defs>
<path d="M193,83.4h900.3M193,111.6h915.4m-915.4,0h915.4M676.8,141.2V112m0,114.3V141.2" class="g0_957"/>
<path d="M870.9,202.3h44" class="g1_957"/>
<path d="M925.4,202.3h41" class="g2_957"/>
<path d="M676.8,255.5V226.3m0,102.2v-73" class="g0_957"/>
<path d="M911.6,314.7h50.7" class="g3_957"/>
<path d="M962.3,314.7h135.1" class="g4_957"/>
<path d="M676.8,357.8V328.5m0,58.5V357.8m0,114.2V387" class="g0_957"/>
<path d="M854.4,422.2V410c0,-2.8,2.3,-5.2,5.2,-5.2H981.7c2.9,0,5.2,2.4,5.2,5.2v12.2c0,2.9,-2.3,5.2,-5.2,5.2H859.6c-2.9,0,-5.2,-2.3,-5.2,-5.2Z" class="g5_957"/>
<path d="M851.8,448H989.5" class="g1_957"/>
<path d="M1000,448h97.4" class="g2_957"/>
<path d="M676.8,501.2V472m0,58.5V501.2m0,114.3v-85" class="g0_957"/>
<path d="M687.7,591.5h61.5" class="g1_957"/>
<path d="M900.5,591.5h22.1" class="g2_957"/>
<path d="M676.8,644.7V615.5m0,102.3V644.7" class="g0_957"/>
<path d="M894.2,703.9h34.3" class="g3_957"/>
<path d="M1013,703.9h84.4" class="g4_957"/>
<path d="M676.8,747V717.8M193,747.4h915.4m-915.4,0h915.4" class="g0_957"/>
</svg>