<?xml version="1.0" encoding="UTF-8" standalone="no"?>
<!DOCTYPE svg PUBLIC "-//W3C//DTD SVG 1.1//EN"
"http://www.w3.org/Graphics/SVG/1.1/DTD/svg11.dtd">
<svg viewBox="0 0 1286 909" version="1.1" xmlns="http://www.w3.org/2000/svg" xmlns:xlink="http://www.w3.org/1999/xlink">
<defs>
<style type="text/css"><![CDATA[
.g0_1233{
fill: none;
stroke: #000000;
stroke-width: 0.73;
stroke-linecap: butt;
stroke-linejoin: miter;
}
.g1_1233{
fill: #FDE8E9;
}
]]></style>
</defs>
<path d="M193,83.4h900.3M203.9,111.5H449.5M203.9,141.1V111.9m94.9,29.2V111.9m150.7,29.2V111.9M203.9,173.7V141.1m94.9,32.6V141.1" class="g0_1233"/>
<path d="M309.8,170.4H438.6V141.1H309.8v29.3Z" class="g1_1233"/>
<path d="M449.5,173.7V141.1M203.9,203V173.7M298.8,203V173.7M449.5,203V173.7M203.9,232.2V203m94.9,29.2V203m150.7,29.2V203M203.9,264.8V232.2m94.9,32.6V232.2" class="g0_1233"/>
<path d="M309.8,261.5H412.7V232.2H309.8v29.3Z" class="g1_1233"/>
<path d="M449.5,264.8V232.2M203.9,294V264.8M298.8,294V264.8M449.5,294V264.8M203.9,323.3V294m94.9,29.3V294m150.7,29.3V294M203.9,355.4V323.3m94.9,32.1V323.3" class="g0_1233"/>
<path d="M309.8,355.4h82.8V326.8H309.8v28.6Z" class="g1_1233"/>
<path d="M449.5,355.4V323.3M203.9,384.6V355.4m94.9,29.2V355.4m150.7,29.2V355.4M203.9,413.9V384.6m94.9,29.3V384.6m150.7,29.3V384.6M203.9,446.5V413.9m94.9,32.6V413.9" class="g0_1233"/>
<path d="M309.8,443.2h73.8V413.9H309.8v29.3Z" class="g1_1233"/>
<path d="M449.5,446.5V413.9M203.9,475.7V446.5m94.9,29.2V446.5m150.7,29.2V446.5M203.9,505V475.7M298.8,505V475.7M449.5,505V475.7M203.9,539.6V505m94.9,34.6V505" class="g0_1233"/>
<path d="M309.8,539.6h59.8V505H309.8v34.6Z" class="g1_1233"/>
<path d="M449.5,539.6V505M203.9,568.8V539.6m94.9,29.2V539.6m150.7,29.2V539.6M203.9,598V568.8M298.8,598V568.8M449.5,598V568.8M203.9,630.7V598m94.9,32.7V598" class="g0_1233"/>
<path d="M309.8,627.4h77V598h-77v29.4Z" class="g1_1233"/>
<path d="M449.5,630.7V598M203.9,659.9V630.7m94.9,29.2V630.7m150.7,29.2V630.7M203.9,689.1V659.9m94.9,29.2V659.9m150.7,29.2V659.9M203.9,723.7V689.1m94.9,34.6V689.1" class="g0_1233"/>
<path d="M309.8,723.7H437V689.1H309.8v34.6Z" class="g1_1233"/>
<path d="M449.5,723.7V689.1M203.9,752.9V723.7m94.9,29.2V723.7m150.7,29.2V723.7M203.9,753.3H449.5M471.4,109.5h252m-252,29.6V109.9m94.9,29.2V109.9m157.1,29.2V109.9m-252,63.8V139.1m94.9,34.6V139.1" class="g0_1233"/>
<path d="M577.3,173.7H708.9V139.1H577.3v34.6Z" class="g1_1233"/>
<path d="M723.4,173.7V139.1M471.4,203V173.7M566.3,203V173.7M723.4,203V173.7m-252,58.5V203m94.9,29.2V203m157.1,29.2V203m-252,61.8V232.2m94.9,32.6V232.2" class="g0_1233"/>
<path d="M577.3,261.5h60.4V232.2H577.3v29.3Z" class="g1_1233"/>
<path d="M723.4,264.8V232.2M471.4,294V264.8M566.3,294V264.8M723.4,294V264.8m-252,58.5V294m94.9,29.3V294m157.1,29.3V294m-252,63.9V323.3m94.9,34.6V323.3" class="g0_1233"/>
<path d="M577.3,357.9H712.4V323.3H577.3v34.6Z" class="g1_1233"/>
<path d="M723.4,357.9V323.3m-252,63.8V357.9m94.9,29.2V357.9m157.1,29.2V357.9m-252,58.4V387.1m94.9,29.2V387.1m157.1,29.2V387.1m-252,61.4V416.3m94.9,32.2V416.3" class="g0_1233"/>
<path d="M577.3,448.5h79.8V419.9H577.3v28.6Z" class="g1_1233"/>
<path d="M723.4,448.5V416.3m-252,61.4V448.5m94.9,29.2V448.5m157.1,29.2V448.5m-252,58.4V477.7m94.9,29.2V477.7m157.1,29.2V477.7m-252,61.9V506.9m94.9,32.7V506.9" class="g0_1233"/>
<path d="M577.3,536.3h74V506.9h-74v29.4Z" class="g1_1233"/>
<path d="M723.4,539.6V506.9m-252,61.9V539.6m94.9,29.2V539.6m157.1,29.2V539.6M471.4,598V568.8M566.3,598V568.8M723.4,598V568.8m-252,63.8V598m94.9,34.6V598" class="g0_1233"/>
<path d="M577.3,632.6h98.8V598H577.3v34.6Z" class="g1_1233"/>
<path d="M723.4,632.6V598m-252,63.9V632.6m94.9,29.3V632.6m157.1,29.3V632.6m-252,58.5V661.9m94.9,29.2V661.9m157.1,29.2V661.9m-252,63.8V691.1m94.9,34.6V691.1" class="g0_1233"/>
<path d="M577.3,725.7H710.9V691.1H577.3v34.6Z" class="g1_1233"/>
<path d="M723.4,725.7V691.1m-252,63.8V725.7m94.9,29.2V725.7m157.1,29.2V725.7m-252,29.6h252m21.9,-645H1069M745.3,139.9V110.6M901,139.9V110.6m168,29.3V110.6M745.3,174.5V139.9M901,174.5V139.9" class="g0_1233"/>
<path d="M912,174.5h121.8V139.9H912v34.6Z" class="g1_1233"/>
<path d="M1069,174.5V139.9M745.3,203.7V174.5M901,203.7V174.5m168,29.2V174.5M745.3,232.9V203.7M901,232.9V203.7m168,29.2V203.7M745.3,265.6V232.9M901,265.6V232.9" class="g0_1233"/>
<path d="M912,262.3h103.6V232.9H912v29.4Z" class="g1_1233"/>
<path d="M1069,265.6V232.9M745.3,294.8V265.6M901,294.8V265.6m168,29.2V265.6M745.3,324V294.8M901,324V294.8M1069,324V294.8M745.3,356.7V324M901,356.7V324" class="g0_1233"/>
<path d="M912,353.4h141.3V324H912v29.4Z" class="g1_1233"/>
<path d="M1069,356.7V324M745.3,385.9V356.7M901,385.9V356.7m168,29.2V356.7M745.3,415.1V385.9M901,415.1V385.9m168,29.2V385.9M745.3,447.7V415.1M901,447.7V415.1" class="g0_1233"/>
<path d="M912,444.5h134.3V415.1H912v29.4Z" class="g1_1233"/>
<path d="M1069,447.7V415.1M745.3,477V447.7M901,477V447.7M1069,477V447.7M745.3,506.2V477M901,506.2V477m168,29.2V477M745.3,540.8V506.2M901,540.8V506.2" class="g0_1233"/>
<path d="M912,540.8h146.1V506.2H912v34.6Z" class="g1_1233"/>
<path d="M1069,540.8V506.2M745.3,570V540.8M901,570V540.8M1069,570V540.8M745.3,599.3V570M901,599.3V570m168,29.3V570M745.3,633.9V599.3M901,633.9V599.3" class="g0_1233"/>
<path d="M912,633.9h80.9V599.3H912v34.6Z" class="g1_1233"/>
<path d="M1069,633.9V599.3M745.3,663.1V633.9M901,663.1V633.9m168,29.2V633.9M745.3,692.3V663.1M901,692.3V663.1m168,29.2V663.1M745.3,725V692.3M901,725V692.3" class="g0_1233"/>
<path d="M912,721.7h65.5V692.3H912v29.4Z" class="g1_1233"/>
<path d="M1069,725V692.3M745.3,754.2V725M901,754.2V725m168,29.2V725M745.3,754.6H1069" class="g0_1233"/>
</svg>