<?xml version="1.0" encoding="UTF-8" standalone="no"?>
<!DOCTYPE svg PUBLIC "-//W3C//DTD SVG 1.1//EN"
"http://www.w3.org/Graphics/SVG/1.1/DTD/svg11.dtd">
<svg viewBox="0 0 909 1286" version="1.1" xmlns="http://www.w3.org/2000/svg" xmlns:xlink="http://www.w3.org/1999/xlink">
<defs>
<style type="text/css"><![CDATA[
.g0_16{
fill: none;
stroke: #000000;
stroke-width: 0.73;
stroke-linecap: butt;
stroke-linejoin: miter;
}
.g1_16{
fill: #FDE8E9;
}
]]></style>
</defs>
<path d="M116.9,159.9H792.5" class="g0_16"/>
<path d="M116.9,266.8h80.3V243H116.9v23.8Z" class="g1_16"/>
<path d="M379.1,268.8H558.9V240.9H379.1v27.9Z" class="g1_16"/>
<path d="M133.8,489.8H279.9V461.9H133.8v27.9Z" class="g1_16"/>
<path d="M505.4,517h20.5V493.2H505.4V517Z" class="g1_16"/>
<path d="M591.9,575.4h20.5V551.7H591.9v23.7Z" class="g1_16"/>
<path d="M697.1,577.5h61.6V549.6H697.1v27.9Z" class="g1_16"/>
<path d="M436,604.7h20.6V580.9H436v23.8Z" class="g1_16"/>
<path d="M167.6,635.9h61.6V608.1H167.6v27.8Z" class="g1_16"/>
<path d="M663.3,694.8H775.6V667H663.3v27.8Z" class="g1_16"/>
<path d="M133.8,811.7H263V783.9H133.8v27.8Z" class="g1_16"/>
<path d="M563.8,838.9h24.7V815.2H563.8v23.7Z" class="g1_16"/>
<path d="M717.1,838.9h20.6V815.2H717.1v23.7Z" class="g1_16"/>
<path d="M133.8,868.1h49.3V844.4H133.8v23.7Z" class="g1_16"/>
<path d="M133.8,1091.2H279.9v-27.9H133.8v27.9Z" class="g1_16"/>
<path d="M301.8,1118.4H332v-23.8H301.8v23.8Z" class="g1_16"/>
</svg>