<?xml version="1.0" encoding="UTF-8" standalone="no"?>
<!DOCTYPE svg PUBLIC "-//W3C//DTD SVG 1.1//EN"
"http://www.w3.org/Graphics/SVG/1.1/DTD/svg11.dtd">
<svg viewBox="0 0 1286 909" version="1.1" xmlns="http://www.w3.org/2000/svg" xmlns:xlink="http://www.w3.org/1999/xlink">
<defs>
<style type="text/css"><![CDATA[
.g0_1123{
fill: none;
stroke: #000000;
stroke-width: 0.73;
stroke-linecap: butt;
stroke-linejoin: miter;
}
.g1_1123{
fill: #F81693;
}
.g2_1123{
fill: #FFE6E6;
}
.g3_1123{
fill: none;
stroke: #F81693;
stroke-width: 1.461;
stroke-linecap: butt;
stroke-linejoin: miter;
stroke-dasharray: 2,2;
}
.g4_1123{
fill: #FFCCCC;
}
.g5_1123{
fill: none;
stroke: #5EE200;
stroke-width: 1.461;
stroke-linecap: butt;
stroke-linejoin: miter;
stroke-dasharray: 2,2;
}
.g6_1123{
fill: #AEF080;
}
]]></style>
</defs>
<path d="M193,83.4h900.3M193,111.6H1348.9M193,111.6H1348.9M734.5,141.2V112m0,58.5V141.2m0,58.5V170.5m0,85V199.7" class="g0_1123"/>
<path d="M1000.6,243.5v-36c0,-4.3,3.5,-7.8,7.8,-7.8h83.5c4.3,0,7.8,3.5,7.8,7.8v36c0,4.3,-3.5,7.8,-7.8,7.8h-83.5c-4.3,0,-7.8,-3.5,-7.8,-7.8Z" class="g1_1123"/>
<path d="M1003.2,243.5v-36c0,-2.9,2.3,-5.2,5.2,-5.2h83.5c2.8,0,5.2,2.3,5.2,5.2v36c0,2.8,-2.4,5.2,-5.2,5.2h-83.5c-2.9,0,-5.2,-2.4,-5.2,-5.2Z" class="g2_1123"/>
<path d="M1184.1,247.7V208.9c0,-4.3,3.5,-7.8,7.8,-7.8h73.7c4.3,0,7.8,3.5,7.8,7.8v38.8c0,4.3,-3.5,7.8,-7.8,7.8h-73.7c-4.3,0,-7.8,-3.5,-7.8,-7.8Z" class="g1_1123"/>
<path d="M1186.7,247.7V208.9c0,-2.9,2.3,-5.2,5.2,-5.2h73.7c2.9,0,5.2,2.3,5.2,5.2v38.8c0,2.8,-2.3,5.2,-5.2,5.2h-73.7c-2.9,0,-5.2,-2.4,-5.2,-5.2Z" class="g2_1123"/>
<path d="M734.5,284.7V255.5m0,62.1V284.7" class="g0_1123"/>
<path d="M961.1,313.2h118.3" class="g3_1123"/>
<path d="M1089.2,317.6h141.3V284.7H1089.2v32.9Z" class="g4_1123"/>
<path d="M734.5,346.8V317.6m0,58.4V346.8m0,60.5V376m0,62.7V407.3m0,60.6V438.7m0,58.4V467.9m0,70V497.1" class="g0_1123"/>
<path d="M1015.6,527.7h44.6" class="g5_1123"/>
<path d="M1074.3,530.1V504.9c0,-4.3,3.5,-7.8,7.8,-7.8h42.3c4.3,0,7.8,3.5,7.8,7.8v25.2c0,4.3,-3.5,7.8,-7.8,7.8h-42.3c-4.3,0,-7.8,-3.5,-7.8,-7.8Z" class="g1_1123"/>
<path d="M1076.9,530.1V504.9c0,-2.9,2.4,-5.2,5.2,-5.2h42.3c2.9,0,5.2,2.3,5.2,5.2v25.2c0,2.9,-2.3,5.2,-5.2,5.2h-42.3c-2.8,0,-5.2,-2.3,-5.2,-5.2Z" class="g2_1123"/>
<path d="M1142.7,534.1h92.9V501.2h-92.9v32.9Z" class="g6_1123"/>
<path d="M1246.1,530.1V504.9c0,-4.3,3.5,-7.8,7.8,-7.8h40.6c4.3,0,7.8,3.5,7.8,7.8v25.2c0,4.3,-3.5,7.8,-7.8,7.8h-40.6c-4.3,0,-7.8,-3.5,-7.8,-7.8Z" class="g1_1123"/>
<path d="M1248.7,530.1V504.9c0,-2.9,2.3,-5.2,5.2,-5.2h40.6c2.8,0,5.2,2.3,5.2,5.2v25.2c0,2.9,-2.4,5.2,-5.2,5.2h-40.6c-2.9,0,-5.2,-2.3,-5.2,-5.2Z" class="g2_1123"/>
<path d="M734.5,567.2V537.9m0,72.1V567.2" class="g0_1123"/>
<path d="M1085.9,599.8h47.9" class="g3_1123"/>
<path d="M1137.4,602.2V574.9c0,-4.3,3.5,-7.7,7.8,-7.7h44.2c4.3,0,7.8,3.4,7.8,7.7v27.3c0,4.3,-3.5,7.8,-7.8,7.8h-44.2c-4.3,0,-7.8,-3.5,-7.8,-7.8Z" class="g1_1123"/>
<path d="M1140,602.2V574.9c0,-2.8,2.3,-5.2,5.2,-5.2h44.2c2.9,0,5.2,2.4,5.2,5.2v27.3c0,2.9,-2.3,5.2,-5.2,5.2h-44.2c-2.9,0,-5.2,-2.3,-5.2,-5.2Z" class="g2_1123"/>
<path d="M1203.3,604.1h78.5V571.3h-78.5v32.8Z" class="g6_1123"/>
<path d="M1285.4,599.8h48.9" class="g5_1123"/>
<path d="M734.5,641.4V610m0,60.6V641.4m0,58.4V670.6m0,58.4V699.8M193,729.4H1348.9M193,729.4H1348.9" class="g0_1123"/>
</svg>