<?xml version="1.0" encoding="UTF-8" standalone="no"?>
<!DOCTYPE svg PUBLIC "-//W3C//DTD SVG 1.1//EN"
"http://www.w3.org/Graphics/SVG/1.1/DTD/svg11.dtd">
<svg viewBox="0 0 1286 909" version="1.1" xmlns="http://www.w3.org/2000/svg" xmlns:xlink="http://www.w3.org/1999/xlink">
<defs>
<style type="text/css"><![CDATA[
.g0_55{
fill: none;
stroke: #000000;
stroke-width: 0.73;
stroke-linecap: butt;
stroke-linejoin: miter;
}
.g1_55{
fill: none;
stroke: #02B5EE;
stroke-width: 1.262;
stroke-linecap: butt;
stroke-linejoin: miter;
}
.g2_55{
fill: none;
stroke: #02B5EE;
stroke-width: 0.73;
stroke-linecap: butt;
stroke-linejoin: miter;
}
.g3_55{
fill: none;
stroke: #5EE200;
stroke-width: 1.262;
stroke-linecap: butt;
stroke-linejoin: miter;
}
]]></style>
</defs>
<path d="M193,83.4h900.3M193,210.6H761.3m-568.3,0H761.3m-258,29.6V211m0,58.5V240.2m0,114.3v-85" class="g0_55"/>
<path d="M567.6,330.5h44" class="g1_55"/>
<path d="M503.3,383.7V354.5m0,102.3V383.7" class="g0_55"/>
<path d="M699.6,442.9h50.7" class="g2_55"/>
<path d="M503.3,488.1V456.8m0,60.5V488.1m0,58.4V517.3m0,116.7V546.5" class="g0_55"/>
<path d="M514.2,607.6h59.2" class="g1_55"/>
<path d="M583.9,607.6h22.5m10.5,0H750.3" class="g3_55"/>
<path d="M503.3,663.2V634m0,58.5V663.2M193,692.8H761.3m-568.3,0H761.3" class="g0_55"/>
</svg>