<?xml version="1.0" encoding="UTF-8" standalone="no"?>
<!DOCTYPE svg PUBLIC "-//W3C//DTD SVG 1.1//EN"
"http://www.w3.org/Graphics/SVG/1.1/DTD/svg11.dtd">
<svg viewBox="0 0 1286 909" version="1.1" xmlns="http://www.w3.org/2000/svg" xmlns:xlink="http://www.w3.org/1999/xlink">
<defs>
<style type="text/css"><![CDATA[
.g0_315{
fill: none;
stroke: #000000;
stroke-width: 0.73;
stroke-linecap: butt;
stroke-linejoin: miter;
}
.g1_315{
fill: none;
stroke: #02B5EE;
stroke-width: 1.262;
stroke-linecap: butt;
stroke-linejoin: miter;
}
.g2_315{
fill: #FFCCCC;
}
.g3_315{
fill: none;
stroke: #02B5EE;
stroke-width: 0.73;
stroke-linecap: butt;
stroke-linejoin: miter;
}
.g4_315{
fill: none;
stroke: #5EE200;
stroke-width: 1.262;
stroke-linecap: butt;
stroke-linejoin: miter;
}
]]></style>
</defs>
<path d="M193,83.4h900.3M193,210.6H967m-774,0H967M638.2,240.2V211m0,58.5V240.2m0,114.3v-85" class="g0_315"/>
<path d="M714.9,330.5H826.3" class="g1_315"/>
<path d="M847.3,318.8H956V285.9H847.3v32.9Z" class="g2_315"/>
<path d="M638.2,383.7V354.5m0,102.3V383.7" class="g0_315"/>
<path d="M780.3,433H888.5V400.1H780.3V433Z" class="g2_315"/>
<path d="M888.5,442.9H956" class="g3_315"/>
<path d="M638.2,486V456.8m0,58.4V486m0,114.2v-85" class="g0_315"/>
<path d="M749,576.2H852.4" class="g1_315"/>
<path d="M862.9,576.2h22.2" class="g4_315"/>
<path d="M638.2,629.5V600.2m0,58.5V629.5m0,58.4V658.7M193,688.3H967m-774,0H967" class="g0_315"/>
</svg>