<?xml version="1.0" encoding="UTF-8" standalone="no"?>
<!DOCTYPE svg PUBLIC "-//W3C//DTD SVG 1.1//EN"
"http://www.w3.org/Graphics/SVG/1.1/DTD/svg11.dtd">
<svg viewBox="0 0 1286 909" version="1.1" xmlns="http://www.w3.org/2000/svg" xmlns:xlink="http://www.w3.org/1999/xlink">
<defs>
<style type="text/css"><![CDATA[
.g0_1237{
fill: none;
stroke: #000000;
stroke-width: 0.73;
stroke-linecap: butt;
stroke-linejoin: miter;
}
.g1_1237{
fill: none;
stroke: #000000;
stroke-width: 0.657;
stroke-linecap: butt;
stroke-linejoin: miter;
}
.g2_1237{
fill: #FDE8E9;
}
]]></style>
</defs>
<path d="M193,83.4h900.3" class="g0_1237"/>
<path d="M202.8,110.4H463.5M202.8,137V110.7M288.2,137V110.7M463.5,137V110.7M202.8,168.2V137m85.4,31.2V137" class="g1_1237"/>
<path d="M298.1,168.2H450.9V137H298.1v31.2Z" class="g2_1237"/>
<path d="M463.5,168.2V137M202.8,194.5V168.2m85.4,26.3V168.2m175.3,26.3V168.2M202.8,220.8V194.5m85.4,26.3V194.5m175.3,26.3V194.5M202.8,250.1V220.8m85.4,29.3V220.8" class="g1_1237"/>
<path d="M298.1,247.2h43.5V220.8H298.1v26.4Z" class="g2_1237"/>
<path d="M463.5,250.1V220.8M202.8,276.4V250.1m85.4,26.3V250.1m175.3,26.3V250.1M202.8,302.7V276.4m85.4,26.3V276.4m175.3,26.3V276.4M202.8,332.1V302.7m85.4,29.4V302.7" class="g1_1237"/>
<path d="M298.1,329.2h49.3V302.7H298.1v26.5Z" class="g2_1237"/>
<path d="M463.5,332.1V302.7M202.8,358.4V332.1m85.4,26.3V332.1m175.3,26.3V332.1M202.8,384.7V358.4m85.4,26.3V358.4m175.3,26.3V358.4M202.8,415.9V384.7m85.4,31.2V384.7" class="g1_1237"/>
<path d="M298.1,415.9H453.6V384.7H298.1v31.2Z" class="g2_1237"/>
<path d="M463.5,415.9V384.7M202.8,442.2V415.9m85.4,26.3V415.9m175.3,26.3V415.9M202.8,468.5V442.2m85.4,26.3V442.2m175.3,26.3V442.2M202.8,497.9V468.5m85.4,29.4V468.5" class="g1_1237"/>
<path d="M298.1,494.9h55.6V468.5H298.1v26.4Z" class="g2_1237"/>
<path d="M463.5,497.9V468.5M202.8,524.2V497.9m85.4,26.3V497.9m175.3,26.3V497.9M202.8,550.5V524.2m85.4,26.3V524.2m175.3,26.3V524.2M202.8,579.8V550.5m85.4,29.3V550.5" class="g1_1237"/>
<path d="M298.1,576.9h75V550.5h-75v26.4Z" class="g2_1237"/>
<path d="M463.5,579.8V550.5M202.8,606.2V579.8m85.4,26.4V579.8m175.3,26.4V579.8M202.8,632.5V606.2m85.4,26.3V606.2m175.3,26.3V606.2M202.8,663.6V632.5m85.4,31.1V632.5" class="g1_1237"/>
<path d="M298.1,663.6H406.2V632.5H298.1v31.1Z" class="g2_1237"/>
<path d="M463.5,663.6V632.5M202.8,689.9V663.6m85.4,26.3V663.6m175.3,26.3V663.6M202.8,716.2V689.9m85.4,26.3V689.9m175.3,26.3V689.9M202.8,747.4V716.2m85.4,31.2V716.2" class="g1_1237"/>
<path d="M298.1,747.4h90.2V716.2H298.1v31.2Z" class="g2_1237"/>
<path d="M463.5,747.4V716.2M202.8,773.7V747.4m85.4,26.3V747.4m175.3,26.3V747.4M202.8,774H463.5M483.2,109.5H854.5M483.2,136.1V109.8m227.7,26.3V109.8m143.6,26.3V109.8M483.2,165.5V136.1m227.7,29.4V136.1" class="g1_1237"/>
<path d="M720.7,162.5H828.5V136.1H720.7v26.4Z" class="g2_1237"/>
<path d="M854.5,165.5V136.1M483.2,191.8V165.5m227.7,26.3V165.5m143.6,26.3V165.5M483.2,218.1V191.8m227.7,26.3V191.8m143.6,26.3V191.8M483.2,249.3V218.1m227.7,31.2V218.1" class="g1_1237"/>
<path d="M720.7,249.3H822.2V218.1H720.7v31.2Z" class="g2_1237"/>
<path d="M854.5,249.3V218.1M483.2,275.6V249.3m227.7,26.3V249.3m143.6,26.3V249.3M483.2,301.9V275.6m227.7,26.3V275.6m143.6,26.3V275.6M483.2,333V301.9M710.9,333V301.9" class="g1_1237"/>
<path d="M720.7,333h97.9V301.9H720.7V333Z" class="g2_1237"/>
<path d="M854.5,333V301.9M483.2,359.3V333m227.7,26.3V333m143.6,26.3V333M483.2,385.6V359.3m227.7,26.3V359.3m143.6,26.3V359.3M483.2,415V385.6M710.9,415V385.6" class="g1_1237"/>
<path d="M720.7,412h62.6V385.6H720.7V412Z" class="g2_1237"/>
<path d="M854.5,415V385.6M483.2,441.3V415m227.7,26.3V415m143.6,26.3V415M483.2,467.6V441.3m227.7,26.3V441.3m143.6,26.3V441.3M483.2,498.8V467.6m227.7,31.2V467.6" class="g1_1237"/>
<path d="M720.7,498.8h76.4V467.6H720.7v31.2Z" class="g2_1237"/>
<path d="M854.5,498.8V467.6M483.2,525.1V498.8m227.7,26.3V498.8m143.6,26.3V498.8M483.2,551.4V525.1m227.7,26.3V525.1m143.6,26.3V525.1M483.2,582.5V551.4m227.7,31.1V551.4" class="g1_1237"/>
<path d="M720.7,582.5h93V551.4h-93v31.1Z" class="g2_1237"/>
<path d="M854.5,582.5V551.4M483.2,608.8V582.5m227.7,26.3V582.5m143.6,26.3V582.5M483.2,635.1V608.8m227.7,26.3V608.8m143.6,26.3V608.8M483.2,666.3V635.1m227.7,31.2V635.1" class="g1_1237"/>
<path d="M720.7,666.3h112V635.1h-112v31.2Z" class="g2_1237"/>
<path d="M854.5,666.3V635.1M483.2,692.6V666.3m227.7,26.3V666.3m143.6,26.3V666.3M483.2,718.9V692.6m227.7,26.3V692.6m143.6,26.3V692.6M483.2,748.3V718.9m227.7,29.4V718.9" class="g1_1237"/>
<path d="M720.7,745.3H844.6V718.9H720.7v26.4Z" class="g2_1237"/>
<path d="M854.5,748.3V718.9M483.2,774.6V748.3m227.7,26.3V748.3m143.6,26.3V748.3M483.2,774.9H854.5M874.2,112.4h251.7M874.2,139V112.7M981.5,139V112.7M1125.9,139V112.7M874.2,170.2V139m107.3,31.2V139" class="g1_1237"/>
<path d="M991.3,170.2H1116V139H991.3v31.2Z" class="g2_1237"/>
<path d="M1125.9,170.2V139M874.2,196.5V170.2m107.3,26.3V170.2m144.4,26.3V170.2M874.2,222.8V196.5m107.3,26.3V196.5m144.4,26.3V196.5M874.2,253.9V222.8m107.3,31.1V222.8" class="g1_1237"/>
<path d="M991.3,253.9h97.4V222.8H991.3v31.1Z" class="g2_1237"/>
<path d="M1125.9,253.9V222.8M874.2,280.2V253.9m107.3,26.3V253.9m144.4,26.3V253.9M874.2,306.5V280.2m107.3,26.3V280.2m144.4,26.3V280.2M874.2,335.9V306.5m107.3,29.4V306.5" class="g1_1237"/>
<path d="M991.3,332.9h110.2V306.5H991.3v26.4Z" class="g2_1237"/>
<path d="M1125.9,335.9V306.5M874.2,362.2V335.9m107.3,26.3V335.9m144.4,26.3V335.9M874.2,388.5V362.2m107.3,26.3V362.2m144.4,26.3V362.2M874.2,417.9V388.5m107.3,29.4V388.5" class="g1_1237"/>
<path d="M991.3,414.9h112.5V388.5H991.3v26.4Z" class="g2_1237"/>
<path d="M1125.9,417.9V388.5M874.2,444.2V417.9m107.3,26.3V417.9m144.4,26.3V417.9M874.2,470.5V444.2m107.3,26.3V444.2m144.4,26.3V444.2M874.2,499.9V470.5m107.3,29.4V470.5" class="g1_1237"/>
<path d="M991.3,496.9h110.1V470.5H991.3v26.4Z" class="g2_1237"/>
<path d="M1125.9,499.9V470.5M874.2,526.2V499.9m107.3,26.3V499.9m144.4,26.3V499.9M874.2,552.5V526.2m107.3,26.3V526.2m144.4,26.3V526.2M874.2,581.4V552.5m107.3,28.9V552.5" class="g1_1237"/>
<path d="M991.3,581.4h79.2V555.7H991.3v25.7Z" class="g2_1237"/>
<path d="M1125.9,581.4V552.5M874.2,607.7V581.4m107.3,26.3V581.4m144.4,26.3V581.4M874.2,634V607.7M981.5,634V607.7M1125.9,634V607.7M874.2,663.4V634m107.3,29.4V634" class="g1_1237"/>
<path d="M991.3,660.4H1056V634H991.3v26.4Z" class="g2_1237"/>
<path d="M1125.9,663.4V634M874.2,689.7V663.4m107.3,26.3V663.4m144.4,26.3V663.4M874.2,716V689.7M981.5,716V689.7M1125.9,716V689.7M874.2,745.4V716m107.3,29.4V716" class="g1_1237"/>
<path d="M991.3,742.4h124.1V716H991.3v26.4Z" class="g2_1237"/>
<path d="M1125.9,745.4V716M874.2,771.7V745.4m107.3,26.3V745.4m144.4,26.3V745.4M874.2,772h251.7" class="g1_1237"/>
</svg>