<?xml version="1.0" encoding="UTF-8" standalone="no"?>
<!DOCTYPE svg PUBLIC "-//W3C//DTD SVG 1.1//EN"
"http://www.w3.org/Graphics/SVG/1.1/DTD/svg11.dtd">
<svg viewBox="0 0 1286 909" version="1.1" xmlns="http://www.w3.org/2000/svg" xmlns:xlink="http://www.w3.org/1999/xlink">
<defs>
<style type="text/css"><![CDATA[
.g0_303{
fill: none;
stroke: #000000;
stroke-width: 0.73;
stroke-linecap: butt;
stroke-linejoin: miter;
}
.g1_303{
fill: #B3E9FA;
}
.g2_303{
fill: none;
stroke: #02B5EE;
stroke-width: 1.262;
stroke-linecap: butt;
stroke-linejoin: miter;
}
.g3_303{
fill: none;
stroke: #5EE200;
stroke-width: 1.262;
stroke-linecap: butt;
stroke-linejoin: miter;
}
.g4_303{
fill: none;
stroke: #02B5EE;
stroke-width: 0.73;
stroke-linecap: butt;
stroke-linejoin: miter;
}
]]></style>
</defs>
<path d="M193,83.4h900.3M193,210.6H849.3m-656.3,0H849.3M433,240.2V211m0,58.5V240.2m0,60.1V269.5m0,60V300.3m0,58.4V329.5m0,114.3V358.7" class="g0_303"/>
<path d="M662.2,400.3V381.8c0,-2.9,2.3,-5.2,5.2,-5.2h95.3c2.9,0,5.2,2.3,5.2,5.2v18.5c0,2.9,-2.3,5.2,-5.2,5.2H667.4c-2.9,0,-5.2,-2.3,-5.2,-5.2Z" class="g1_303"/>
<path d="M659.6,419.8H770.5" class="g2_303"/>
<path d="M781,419.8h57.3" class="g3_303"/>
<path d="M433,473V443.8m0,58.4V473m0,114.2v-85" class="g0_303"/>
<path d="M488.7,563.3h63.6" class="g2_303"/>
<path d="M433,616.5V587.2m0,102.3v-73" class="g0_303"/>
<path d="M720.1,675.6h33.8" class="g4_303"/>
<path d="M433,718.7V689.5m0,58.5V718.7M193,748.3H849.3m-656.3,0H849.3" class="g0_303"/>
</svg>