<?xml version="1.0" encoding="UTF-8" standalone="no"?>
<!DOCTYPE svg PUBLIC "-//W3C//DTD SVG 1.1//EN"
"http://www.w3.org/Graphics/SVG/1.1/DTD/svg11.dtd">
<svg viewBox="0 0 1286 909" version="1.1" xmlns="http://www.w3.org/2000/svg" xmlns:xlink="http://www.w3.org/1999/xlink">
<defs>
<style type="text/css"><![CDATA[
.g0_275{
fill: none;
stroke: #000000;
stroke-width: 0.73;
stroke-linecap: butt;
stroke-linejoin: miter;
}
.g1_275{
fill: none;
stroke: #02B5EE;
stroke-width: 1.262;
stroke-linecap: butt;
stroke-linejoin: miter;
}
.g2_275{
fill: none;
stroke: #02B5EE;
stroke-width: 0.73;
stroke-linecap: butt;
stroke-linejoin: miter;
}
]]></style>
</defs>
<path d="M193,83.4h900.3M193,111.6h897.4m-897.4,0h897.4M426.7,141.2V112m0,58.5V141.2m0,58.5V170.5m0,114.2v-85" class="g0_275"/>
<path d="M828.1,260.7h70" class="g1_275"/>
<path d="M426.7,313.9V284.7m0,102.3V313.9" class="g0_275"/>
<path d="M1045.6,373.1h33.8" class="g2_275"/>
<path d="M426.7,416.2V387m0,58.4V416.2m0,114.3V445.4" class="g0_275"/>
<path d="M774.4,506.5h35.8" class="g1_275"/>
<path d="M426.7,559.7V530.5m0,102.2v-73" class="g0_275"/>
<path d="M1045.6,618.9h33.8" class="g2_275"/>
<path d="M426.7,662V632.7m0,58.5V662m0,58.4V691.2M193,720.8h897.4m-897.4,0h897.4" class="g0_275"/>
</svg>