<?xml version="1.0" encoding="UTF-8" standalone="no"?>
<!DOCTYPE svg PUBLIC "-//W3C//DTD SVG 1.1//EN"
"http://www.w3.org/Graphics/SVG/1.1/DTD/svg11.dtd">
<svg viewBox="0 0 1286 909" version="1.1" xmlns="http://www.w3.org/2000/svg" xmlns:xlink="http://www.w3.org/1999/xlink">
<defs>
<style type="text/css"><![CDATA[
.g0_1215{
fill: none;
stroke: #000000;
stroke-width: 0.73;
stroke-linecap: butt;
stroke-linejoin: miter;
}
.g1_1215{
fill: none;
stroke: #000000;
stroke-width: 0.62;
stroke-linecap: butt;
stroke-linejoin: miter;
}
.g2_1215{
fill: #FDE8E9;
}
]]></style>
</defs>
<path d="M193,83.4h900.3" class="g0_1215"/>
<path d="M202.3,111.4H478.5M202.3,136.5V111.7m132.3,24.8V111.7m143.9,24.8V111.7M202.3,163.8V136.5m132.3,27.3V136.5" class="g1_1215"/>
<path d="M343.9,163.8H446.7V139.5H343.9v24.3Z" class="g2_1215"/>
<path d="M478.5,163.8V136.5M202.3,188.7V163.8m132.3,24.9V163.8m143.9,24.9V163.8M202.3,213.5V188.7m132.3,24.8V188.7m143.9,24.8V188.7M202.3,241.3V213.5m132.3,27.8V213.5" class="g1_1215"/>
<path d="M343.9,238.5h75.3v-25H343.9v25Z" class="g2_1215"/>
<path d="M478.5,241.3V213.5M202.3,266.1V241.3m132.3,24.8V241.3m143.9,24.8V241.3M202.3,290.9V266.1m132.3,24.8V266.1m143.9,24.8V266.1M202.3,318.7V290.9m132.3,27.8V290.9" class="g1_1215"/>
<path d="M343.9,315.9h58.9v-25H343.9v25Z" class="g2_1215"/>
<path d="M478.5,318.7V290.9M202.3,343.5V318.7m132.3,24.8V318.7m143.9,24.8V318.7M202.3,368.4V343.5m132.3,24.9V343.5m143.9,24.9V343.5M202.3,396.1V368.4m132.3,27.7V368.4" class="g1_1215"/>
<path d="M343.9,393.3h58.9V368.4H343.9v24.9Z" class="g2_1215"/>
<path d="M478.5,396.1V368.4M202.3,421V396.1M334.6,421V396.1M478.5,421V396.1M202.3,445.8V421m132.3,24.8V421m143.9,24.8V421M202.3,475.2V445.8m132.3,29.4V445.8" class="g1_1215"/>
<path d="M343.9,475.2h90.4V445.8H343.9v29.4Z" class="g2_1215"/>
<path d="M478.5,475.2V445.8M202.3,500.1V475.2m132.3,24.9V475.2m143.9,24.9V475.2M202.3,524.9V500.1m132.3,24.8V500.1m143.9,24.8V500.1M202.3,554.3V524.9m132.3,29.4V524.9" class="g1_1215"/>
<path d="M343.9,554.3H451.3V524.9H343.9v29.4Z" class="g2_1215"/>
<path d="M478.5,554.3V524.9M202.3,579.2V554.3m132.3,24.9V554.3m143.9,24.9V554.3M202.3,604V579.2M334.6,604V579.2M478.5,604V579.2M202.3,629.7V604m132.3,25.7V604" class="g1_1215"/>
<path d="M343.9,626.9h53.9V607H343.9v19.9Z" class="g2_1215"/>
<path d="M478.5,629.7V604M202.3,654.5V629.7m132.3,24.8V629.7m143.9,24.8V629.7M202.3,679.3V654.5m132.3,24.8V654.5m143.9,24.8V654.5M202.3,708.8V679.3m132.3,29.5V679.3" class="g1_1215"/>
<path d="M343.9,708.8H469.1V679.3H343.9v29.5Z" class="g2_1215"/>
<path d="M478.5,708.8V679.3M202.3,733.6V708.8m132.3,24.8V708.8m143.9,24.8V708.8M202.3,733.9H478.5M497.1,109.5H765.2M497.1,134.6V109.8m153,24.8V109.8m115.1,24.8V109.8M497.1,162.4V134.6m153,27.8V134.6" class="g1_1215"/>
<path d="M659.4,159.6h59.9v-25H659.4v25Z" class="g2_1215"/>
<path d="M765.2,162.4V134.6M497.1,187.2V162.4m153,24.8V162.4m115.1,24.8V162.4M497.1,212.1V187.2m153,24.9V187.2m115.1,24.9V187.2M497.1,239.8V212.1m153,27.7V212.1" class="g1_1215"/>
<path d="M659.4,237h59.9V212.1H659.4V237Z" class="g2_1215"/>
<path d="M765.2,239.8V212.1M497.1,264.6V239.8m153,24.8V239.8m115.1,24.8V239.8M497.1,289.5V264.6m153,24.9V264.6m115.1,24.9V264.6M497.1,318.9V289.5m153,29.4V289.5" class="g1_1215"/>
<path d="M659.4,318.9h62.2V289.5H659.4v29.4Z" class="g2_1215"/>
<path d="M765.2,318.9V289.5M497.1,343.7V318.9m153,24.8V318.9m115.1,24.8V318.9M497.1,368.6V343.7m153,24.9V343.7m115.1,24.9V343.7M497.1,398V368.6m153,29.4V368.6" class="g1_1215"/>
<path d="M659.4,398h62.2V368.6H659.4V398Z" class="g2_1215"/>
<path d="M765.2,398V368.6M497.1,422.9V398m153,24.9V398m115.1,24.9V398M497.1,447.7V422.9m153,24.8V422.9m115.1,24.8V422.9M497.1,477.1V447.7m153,29.4V447.7" class="g1_1215"/>
<path d="M659.4,477.1h62.2V447.7H659.4v29.4Z" class="g2_1215"/>
<path d="M765.2,477.1V447.7M497.1,502V477.1m153,24.9V477.1M765.2,502V477.1M497.1,526.8V502m153,24.8V502m115.1,24.8V502M497.1,552.4V526.8m153,25.6V526.8" class="g1_1215"/>
<path d="M659.4,549.6h65.8V529.8H659.4v19.8Z" class="g2_1215"/>
<path d="M765.2,552.4V526.8M497.1,577.3V552.4m153,24.9V552.4m115.1,24.9V552.4M497.1,602.1V577.3m153,24.8V577.3m115.1,24.8V577.3M497.1,631.5V602.1m153,29.4V602.1" class="g1_1215"/>
<path d="M659.4,631.5h70.3V602.1H659.4v29.4Z" class="g2_1215"/>
<path d="M765.2,631.5V602.1M497.1,656.4V631.5m153,24.9V631.5m115.1,24.9V631.5M497.1,681.2V656.4m153,24.8V656.4m115.1,24.8V656.4M497.1,710.6V681.2m153,29.4V681.2" class="g1_1215"/>
<path d="M659.4,710.6h96.5V681.2H659.4v29.4Z" class="g2_1215"/>
<path d="M765.2,710.6V681.2M497.1,735.5V710.6m153,24.9V710.6m115.1,24.9V710.6M497.1,735.8H765.2M783.8,110.9h323.8M783.8,136.1V111.2m194.4,24.9V111.2m129.4,24.9V111.2M783.8,165.5V136.1m194.4,29.4V136.1" class="g1_1215"/>
<path d="M987.5,165.5h70.3V136.1H987.5v29.4Z" class="g2_1215"/>
<path d="M1107.6,165.5V136.1M783.8,190.4V165.5m194.4,24.9V165.5m129.4,24.9V165.5M783.8,215.2V190.4m194.4,24.8V190.4m129.4,24.8V190.4M783.8,244.6V215.2m194.4,29.4V215.2" class="g1_1215"/>
<path d="M987.5,244.6h70.3V215.2H987.5v29.4Z" class="g2_1215"/>
<path d="M1107.6,244.6V215.2M783.8,269.5V244.6m194.4,24.9V244.6m129.4,24.9V244.6M783.8,294.3V269.5m194.4,24.8V269.5m129.4,24.8V269.5M783.8,322V294.3M978.2,322V294.3" class="g1_1215"/>
<path d="M987.5,319.3h107.3v-25H987.5v25Z" class="g2_1215"/>
<path d="M1107.6,322V294.3M783.8,346.9V322m194.4,24.9V322m129.4,24.9V322M783.8,371.7V346.9m194.4,24.8V346.9m129.4,24.8V346.9M783.8,399.5V371.7m194.4,27.8V371.7" class="g1_1215"/>
<path d="M987.5,396.7h107.3v-25H987.5v25Z" class="g2_1215"/>
<path d="M1107.6,399.5V371.7M783.8,424.3V399.5m194.4,24.8V399.5m129.4,24.8V399.5M783.8,449.2V424.3m194.4,24.9V424.3m129.4,24.9V424.3M783.8,476.9V449.2m194.4,27.7V449.2" class="g1_1215"/>
<path d="M987.5,474.1h107.3V449.2H987.5v24.9Z" class="g2_1215"/>
<path d="M1107.6,476.9V449.2M783.8,501.7V476.9m194.4,24.8V476.9m129.4,24.8V476.9M783.8,526.6V501.7m194.4,24.9V501.7m129.4,24.9V501.7M783.8,554.3V526.6m194.4,27.7V526.6" class="g1_1215"/>
<path d="M987.5,551.5h67V526.6h-67v24.9Z" class="g2_1215"/>
<path d="M1107.6,554.3V526.6M783.8,579.2V554.3m194.4,24.9V554.3m129.4,24.9V554.3M783.8,604V579.2M978.2,604V579.2M1107.6,604V579.2M783.8,631.8V604m194.4,27.8V604" class="g1_1215"/>
<path d="M987.5,629h67V604h-67v25Z" class="g2_1215"/>
<path d="M1107.6,631.8V604M783.8,656.6V631.8m194.4,24.8V631.8m129.4,24.8V631.8M783.8,681.4V656.6m194.4,24.8V656.6m129.4,24.8V656.6M783.8,709.2V681.4m194.4,27.8V681.4" class="g1_1215"/>
<path d="M987.5,706.4h110.8v-25H987.5v25Z" class="g2_1215"/>
<path d="M1107.6,709.2V681.4M783.8,734V709.2M978.2,734V709.2M1107.6,734V709.2M783.8,734.3h323.8" class="g1_1215"/>
</svg>