<?xml version="1.0" encoding="UTF-8" standalone="no"?>
<!DOCTYPE svg PUBLIC "-//W3C//DTD SVG 1.1//EN"
"http://www.w3.org/Graphics/SVG/1.1/DTD/svg11.dtd">
<svg viewBox="0 0 909 1286" version="1.1" xmlns="http://www.w3.org/2000/svg" xmlns:xlink="http://www.w3.org/1999/xlink">
<defs>
<style type="text/css"><![CDATA[
.g0_15{
fill: none;
stroke: #000000;
stroke-width: 0.73;
stroke-linecap: butt;
stroke-linejoin: miter;
}
.g1_15{
fill: none;
stroke: #F81693;
stroke-width: 0.73;
stroke-linecap: butt;
stroke-linejoin: miter;
}
.g2_15{
fill: none;
stroke: #02B5EE;
stroke-width: 0.73;
stroke-linecap: butt;
stroke-linejoin: miter;
}
]]></style>
</defs>
<path d="M116.9,179.9H817.7M307.3,209.5V180.3M248.5,300.4V282.2m0,-74.2l31.2,18.7m0,36.7V226.8m-31.2,55.4l31.2,-18.7m-31.2,18.7L217.2,263.5m0,-.1V226.8M248.5,208l-31.3,18.7m56.5,31.9v-27m-26.3,42.9L224.3,260.8m23.1,-45.1l-23.1,13.7m15,80.5H213.7m-74.7,0l18.9,-31.2m0,0h36.5m18.8,31.2L194.4,278.7m18.8,31.2l-18.8,31.3m-36.5,0h36.5M139,309.9l18.9,31.3m4.7,-56.5h27M205.5,311l-14.2,23.8M146.7,311L161,334.8m87.5,-16.1V337m0,0l31.2,18.6m0,36.7V355.8m-31.2,55.3l31.2,-18.6m-31.2,18.6L217.2,392.5m0,-.2V355.8M248.5,337l-31.3,18.6m56.5,32V360.5m-26.3,43L224.3,389.8m23.1,-45.2l-23.1,13.7m34,-48.4h25.6m23.4,91V209.5" class="g0_15"/>
<path d="M497.3,300.4V282.2" class="g1_15"/>
<path d="M497.3,208l31.2,18.7m0,36.7V226.8m-31.2,55.4l31.2,-18.7m-31.2,18.7L466,263.5m0,-.1V226.8M497.3,208L466,226.7m56.5,31.9v-27m-26.3,42.9l-23,-13.7m23,-45.1l-23,13.7" class="g2_15"/>
<path d="M488.1,309.9H462.6" class="g1_15"/>
<path d="M387.9,309.9l18.8,-31.2m0,0h36.5M462,309.9L443.2,278.7M462,309.9l-18.8,31.3m-36.5,0h36.5M387.9,309.9l18.8,31.3m4.7,-56.5h27.1M454.3,311l-14.2,23.8M395.5,311l14.3,23.8" class="g2_15"/>
<path d="M497.3,318.7V337" class="g1_15"/>
<path d="M497.3,337l31.2,18.6m0,36.7V355.8m-31.2,55.3l31.2,-18.6m-31.2,18.6L466,392.5m0,-.2V355.8M497.3,337L466,355.6m56.5,32V360.5m-26.3,43l-23,-13.7m23,-45.2l-23,13.7" class="g2_15"/>
<path d="M507.1,309.9h25.6" class="g1_15"/>
<path d="M307.3,430.1V400.9m0,58.5V430.1m0,58.5V459.4m0,58.4V488.6m0,58.4V517.8m0,58.4V547m0,58.5V576.2M116.9,605.8H817.7" class="g0_15"/>
</svg>