<?xml version="1.0" encoding="UTF-8" standalone="no"?>
<!DOCTYPE svg PUBLIC "-//W3C//DTD SVG 1.1//EN"
"http://www.w3.org/Graphics/SVG/1.1/DTD/svg11.dtd">
<svg viewBox="0 0 1286 909" version="1.1" xmlns="http://www.w3.org/2000/svg" xmlns:xlink="http://www.w3.org/1999/xlink">
<defs>
<style type="text/css"><![CDATA[
.g0_618{
fill: none;
stroke: #000000;
stroke-width: 0.73;
stroke-linecap: butt;
stroke-linejoin: miter;
}
.g1_618{
fill: #F81693;
}
.g2_618{
fill: #FFE6E6;
}
.g3_618{
fill: none;
stroke: #F81693;
stroke-width: 1.461;
stroke-linecap: butt;
stroke-linejoin: miter;
stroke-dasharray: 2,2;
}
]]></style>
</defs>
<path d="M193,83.4h900.3M193,210.6h910.3m-910.3,0h910.3M533,240.2V211m0,58.5V240.2m0,70.1V269.5" class="g0_618"/>
<path d="M868.9,302.5V277.2c0,-4.3,3.5,-7.7,7.8,-7.7h40.6c4.3,0,7.8,3.4,7.8,7.7v25.3c0,4.3,-3.5,7.8,-7.8,7.8H876.7c-4.3,0,-7.8,-3.5,-7.8,-7.8Z" class="g1_618"/>
<path d="M871.5,302.5V277.2c0,-2.8,2.4,-5.2,5.2,-5.2h40.6c2.9,0,5.2,2.4,5.2,5.2v25.3c0,2.8,-2.3,5.2,-5.2,5.2H876.7c-2.8,0,-5.2,-2.4,-5.2,-5.2Z" class="g2_618"/>
<path d="M968.6,302.5V277.2c0,-4.3,3.4,-7.7,7.7,-7.7h40.6c4.3,0,7.8,3.4,7.8,7.7v25.3c0,4.3,-3.5,7.8,-7.8,7.8H976.3c-4.3,0,-7.7,-3.5,-7.7,-7.8Z" class="g1_618"/>
<path d="M971.2,302.5V277.2c0,-2.8,2.3,-5.2,5.1,-5.2h40.6c2.9,0,5.2,2.4,5.2,5.2v25.3c0,2.8,-2.3,5.2,-5.2,5.2H976.3c-2.8,0,-5.1,-2.4,-5.1,-5.2Z" class="g2_618"/>
<path d="M1038.9,306.3h49.8" class="g3_618"/>
<path d="M533,339.5V310.3m0,72.1V339.5" class="g0_618"/>
<path d="M753.8,372.1H937.7" class="g3_618"/>
<path d="M941.4,374.6V347.3c0,-4.3,3.5,-7.8,7.8,-7.8H1044c4.3,0,7.8,3.5,7.8,7.8v27.3c0,4.3,-3.5,7.8,-7.8,7.8H949.2c-4.3,0,-7.8,-3.5,-7.8,-7.8Z" class="g1_618"/>
<path d="M944,374.6V347.3c0,-2.9,2.3,-5.2,5.2,-5.2H1044c2.9,0,5.2,2.3,5.2,5.2v27.3c0,2.8,-2.3,5.2,-5.2,5.2H949.2c-2.9,0,-5.2,-2.4,-5.2,-5.2Z" class="g2_618"/>
<path d="M533,411.6V382.4m0,58.4V411.6m0,60.5V440.8m0,62.7V472.1m0,60.6V503.5m0,58.4V532.7m0,70V561.9" class="g0_618"/>
<path d="M836.3,594.9V569.7c0,-4.3,3.5,-7.8,7.8,-7.8h40.5c4.3,0,7.8,3.5,7.8,7.8v25.2c0,4.3,-3.5,7.8,-7.8,7.8H844.1c-4.3,0,-7.8,-3.5,-7.8,-7.8Z" class="g1_618"/>
<path d="M838.9,594.9V569.7c0,-2.9,2.3,-5.2,5.2,-5.2h40.5c2.9,0,5.2,2.3,5.2,5.2v25.2c0,2.9,-2.3,5.2,-5.2,5.2H844.1c-2.9,0,-5.2,-2.3,-5.2,-5.2Z" class="g2_618"/>
<path d="M935.9,594.9V569.7c0,-4.3,3.5,-7.8,7.8,-7.8h40.5c4.4,0,7.8,3.5,7.8,7.8v25.2c0,4.3,-3.4,7.8,-7.8,7.8H943.7c-4.3,0,-7.8,-3.5,-7.8,-7.8Z" class="g1_618"/>
<path d="M938.5,594.9V569.7c0,-2.9,2.3,-5.2,5.2,-5.2h40.5c2.9,0,5.2,2.3,5.2,5.2v25.2c0,2.9,-2.3,5.2,-5.2,5.2H943.7c-2.9,0,-5.2,-2.3,-5.2,-5.2Z" class="g2_618"/>
<path d="M1006.2,598.8h82.5" class="g3_618"/>
<path d="M533,632V602.7m0,72.1V632" class="g0_618"/>
<path d="M799.4,664.6H937.7" class="g3_618"/>
<path d="M941.4,667V639.7c0,-4.3,3.5,-7.7,7.8,-7.7H1044c4.3,0,7.8,3.4,7.8,7.7V667c0,4.3,-3.5,7.8,-7.8,7.8H949.2c-4.3,0,-7.8,-3.5,-7.8,-7.8Z" class="g1_618"/>
<path d="M944,667V639.7c0,-2.8,2.3,-5.1,5.2,-5.1H1044c2.9,0,5.2,2.3,5.2,5.1V667c0,2.9,-2.3,5.2,-5.2,5.2H949.2c-2.9,0,-5.2,-2.3,-5.2,-5.2Z" class="g2_618"/>
<path d="M533,704.1V674.8m0,58.5V704.1M193,733.6h910.3m-910.3,0h910.3" class="g0_618"/>
</svg>