<?xml version="1.0" encoding="UTF-8" standalone="no"?>
<!DOCTYPE svg PUBLIC "-//W3C//DTD SVG 1.1//EN"
"http://www.w3.org/Graphics/SVG/1.1/DTD/svg11.dtd">
<svg viewBox="0 0 909 1286" version="1.1" xmlns="http://www.w3.org/2000/svg" xmlns:xlink="http://www.w3.org/1999/xlink">
<defs>
<style type="text/css"><![CDATA[
.g0_56{
fill: none;
stroke: #000000;
stroke-width: 0.73;
stroke-linecap: butt;
stroke-linejoin: miter;
}
.g1_56{
fill: #FDE8E9;
}
]]></style>
</defs>
<path d="M116.9,159.9H792.5" class="g0_56"/>
<path d="M556.1,268.8H668.3V240.9H556.1v27.9Z" class="g1_56"/>
<path d="M167.6,313.1H313.7V285.2H167.6v27.9Z" class="g1_56"/>
<path d="M404.1,342.7h146V314.9h-146v27.8Z" class="g1_56"/>
<path d="M116.9,416.3H263V388.4H116.9v27.9Z" class="g1_56"/>
<path d="M116.9,562.4h95.4V534.5H116.9v27.9Z" class="g1_56"/>
<path d="M167.6,604.2h52.6V580.4H167.6v23.8Z" class="g1_56"/>
<path d="M237.1,604.2H387.5V580.4H237.1v23.8Z" class="g1_56"/>
<path d="M167.6,633.4h57.3V609.7H167.6v23.7Z" class="g1_56"/>
<path d="M241.8,633.4H447V609.7H241.8v23.7Z" class="g1_56"/>
<path d="M116.9,737.7H246.1V709.9H116.9v27.8Z" class="g1_56"/>
<path d="M167.6,779.5h46.1V755.8H167.6v23.7Z" class="g1_56"/>
<path d="M230.6,783.7H496.3V755.8H230.6v27.9Z" class="g1_56"/>
<path d="M116.9,883.8H229.2V856H116.9v27.8Z" class="g1_56"/>
<path d="M116.9,942.7h163V914.9h-163v27.8Z" class="g1_56"/>
<path d="M496.9,942.7H643V914.9H496.9v27.8Z" class="g1_56"/>
<path d="M116.9,1030.4H296.8v-27.8H116.9v27.8Z" class="g1_56"/>
<path d="M312.5,1030.4H492.3v-27.8H312.5v27.8Z" class="g1_56"/>
<path d="M387.2,1060.1h146v-27.9h-146v27.9Z" class="g1_56"/>
<path d="M116.9,1119H364.3v-27.9H116.9V1119Z" class="g1_56"/>
</svg>