<?xml version="1.0" encoding="UTF-8" standalone="no"?>
<!DOCTYPE svg PUBLIC "-//W3C//DTD SVG 1.1//EN"
"http://www.w3.org/Graphics/SVG/1.1/DTD/svg11.dtd">
<svg viewBox="0 0 909 1286" version="1.1" xmlns="http://www.w3.org/2000/svg" xmlns:xlink="http://www.w3.org/1999/xlink">
<defs>
<clipPath id="c0_24"><path d="M123.1,218.7V187h29.1v31.7Z"/></clipPath>
<clipPath id="c1_24"><path d="M122.1,219.2V186.5H153v32.7Z"/></clipPath>
<style type="text/css"><![CDATA[
.g0_24{
fill: none;
stroke: #000000;
stroke-width: 0.73;
stroke-linecap: butt;
stroke-linejoin: miter;
}
.g1_24{
fill: #FFFFFF;
}
.g2_24{
}
.g3_24{
fill: none;
stroke: #000000;
stroke-width: 0.459;
stroke-linecap: butt;
stroke-linejoin: round;
}
.g4_24{
fill: none;
stroke: #000000;
stroke-width: 0.722;
stroke-linecap: round;
stroke-linejoin: miter;
}
.g5_24{
fill: none;
stroke: #000000;
stroke-width: 0.722;
stroke-linecap: round;
stroke-linejoin: round;
}
.g6_24{
fill: #D40000;
}
.g7_24{
fill: none;
stroke: #000000;
stroke-width: 0.578;
stroke-linecap: round;
stroke-linejoin: miter;
}
.g8_24{
fill: #E9C6AF;
}
.g9_24{
fill: none;
stroke: #695000;
stroke-width: 0.152;
stroke-linecap: round;
stroke-linejoin: round;
}
.ga_24{
fill: none;
stroke: #000000;
stroke-width: 1.461;
stroke-linecap: butt;
stroke-linejoin: miter;
}
.gb_24{
fill: none;
stroke: #000000;
stroke-width: 2.739;
stroke-linecap: butt;
stroke-linejoin: miter;
}
.gc_24{
fill: #EDEFEF;
}
.gd_24{
fill: #FFFFFF;
stroke: #000000;
stroke-width: 0.73;
stroke-linecap: butt;
stroke-linejoin: miter;
}
.ge_24{
fill: none;
stroke: #000000;
stroke-width: 3.47;
stroke-linecap: butt;
stroke-linejoin: miter;
}
.gf_24{
fill: none;
stroke: #CDCDB4;
stroke-width: 2.739;
stroke-linecap: butt;
stroke-linejoin: miter;
}
.gg_24{
fill: none;
stroke: #7F7F7F;
stroke-width: 2.191;
stroke-linecap: butt;
stroke-linejoin: miter;
}
.gh_24{
fill: #4C4C4C;
}
.gi_24{
fill: #999999;
}
]]></style>
</defs>
<path d="M116.9,159.9H792.5" class="g0_24"/>
<path d="M117.7,575.5V180.3H791.8V575.5Z" class="g1_24"/>
<path d="M117.7,575.5V180.3H791.8V575.5Z" class="ga_24"/>
<g clip-path="url(#c1_24)">
<path clip-path="url(#c0_24)" d="M126.4,212.4c0,0,1.5,-.9,1.2,-1.3c-.1,-.1,-.3,-.1,-.6,0c-1.6,.3,-5,2.1,-3.3,4.1c1.4,1.6,6.4,2.4,11.7,1.4c7.3,-1.4,13.5,-5.5,11.1,-8.3c-1.6,-2,-6.7,-2.1,-10.8,-2.2c-2.1,0,-6.6,-.1,-8,-1.7c-.6,-.7,-.5,-1.6,.1,-2.2c1,-.9,3.8,-1.4,4,-1.5c.7,-.1,2.5,-.4,4.6,-.3c1.1,0,2.5,0,3.2,.9c.2,.3,.4,.6,.4,.7c0,0,0,.1,.1,.2c.1,.1,.4,.1,.5,.1c.5,-.1,1.5,-.6,2,-1.1c.3,-.2,.8,-.6,0,-1.5c-.9,-1.1,-2.3,-1.2,-4,-1.2c-2.3,0,-4.1,.4,-4.9,.5c-5.8,1.1,-11.1,4.6,-9,7c1.5,1.9,6.3,1.9,9,1.9c3.9,.1,8.4,.3,9.8,2c.6,.7,.9,1.9,-.4,2.9c-1.2,.9,-4,1.7,-5.8,2c-4.4,.9,-9.4,.2,-10.6,-1.2c0,-.1,-.5,-.6,-.3,-1.2Z" class="g2_24"/>
<path d="M131.5,214.8l-.2,-.2l.3,-4.6q.3,-5.6,.5,-6c.1,-.1,1.6,-2.2,3.3,-4.5c1.7,-2.4,4.3,-6.1,5.9,-8.3c1.5,-2.2,2.8,-3.9,2.9,-3.9c.4,0,.1,.4,-1.8,3.1c-1.2,1.6,-3.7,5.3,-5.7,8.1c-2,2.9,-3.6,5.2,-3.6,5.2c0,0,.5,.1,1,.2c2,.2,3.3,.5,4.5,1.2c.6,.3,1,.5,1.5,1.1c.8,.8,1.2,1.4,1.4,2.2c.1,.2,.1,.5,.2,.5c.1,0,.7,-.8,5.2,-7.6c2.4,-3.7,4.5,-6.7,4.6,-6.8c.2,-.3,.4,-.1,.2,.2c0,.1,-1.5,2.4,-3.2,5c-1.8,2.7,-3.8,5.7,-4.5,6.8c-1.5,2.4,-2.1,3.3,-2.3,3.8c-.2,.3,-.3,.4,-.9,.7c-.8,.4,-8.7,3.9,-8.9,4c-.1,0,-.3,-.1,-.4,-.2Z" class="g2_24"/>
<path d="M135.2,212.8c2.2,-.9,4,-1.7,4.6,-2c.7,-.4,.7,-.5,.7,-1.5c-.2,-1.6,-1.4,-3,-3.6,-3.7c-1.2,-.4,-4.3,-.8,-4.4,-.6c0,0,-.1,1.5,-.2,3.1c-.1,1.7,-.2,3.3,-.2,3.6c-.1,1.2,.1,1.5,-.2,2.6c.1,.1,1.8,-.8,1.8,-.8c.1,0,.7,-.3,1.5,-.7Z" class="g2_24"/>
<path d="M131.5,214.8l-.2,-.2l.3,-4.6q.3,-5.6,.5,-6c.1,-.1,1.6,-2.2,3.3,-4.5c1.7,-2.4,4.3,-6.1,5.9,-8.3c1.5,-2.2,2.8,-3.9,2.9,-3.9c.4,0,.1,.4,-1.8,3.1c-1.2,1.6,-3.7,5.3,-5.7,8.1c-2,2.9,-3.6,5.2,-3.6,5.2c0,0,.5,.1,1,.2c2,.2,3.3,.5,4.5,1.2c.6,.3,1,.5,1.5,1.1c.8,.8,1.2,1.4,1.4,2.2c.1,.2,.1,.5,.2,.5c.1,0,.7,-.8,5.2,-7.6c2.4,-3.7,4.5,-6.7,4.6,-6.8c.2,-.3,.4,-.1,.2,.2c0,.1,-1.5,2.4,-3.2,5c-1.8,2.7,-3.8,5.7,-4.5,6.8c-1.5,2.4,-2.1,3.3,-2.3,3.8c-.2,.3,-.3,.4,-.9,.7c-.8,.4,-8.7,3.9,-8.9,4c-.1,0,-.3,-.1,-.4,-.2Zm3.7,-2c2.2,-.9,4,-1.7,4.6,-2c.7,-.4,.7,-.5,.7,-1.5c-.2,-1.6,-1.4,-3,-3.6,-3.7c-1.2,-.4,-4.3,-.8,-4.4,-.6c0,0,-.1,1.5,-.2,3.1c-.1,1.7,-.2,3.3,-.2,3.6c-.1,1.2,.1,1.5,-.2,2.6c.1,.1,1.8,-.8,1.8,-.8c.1,0,.7,-.3,1.5,-.7Z" class="g3_24"/>
<path d="M135.3,204.2l11.2,-16m-8.2,17.1L149,189.6" class="g4_24"/>
<path d="M140.4,207.1l10,-14.5l.2,-.3" class="g5_24"/>
<path d="M134.1,203.8c-.4,0,-.8,-.1,-.9,-.1c0,-.1,2.5,-3.7,6.7,-9.6c1.9,-2.7,3.6,-5.2,3.8,-5.5c.2,-.4,.4,-.7,.5,-.7c.1,0,.7,.5,.9,.7c.1,.4,.1,.6,-.1,1.1c-.2,.5,-9.8,14.3,-9.9,14.3c-.1,0,-.5,-.1,-1,-.2Z" class="g6_24"/>
<path d="M137.6,204.6c-.2,-.1,-.8,-.3,-1.2,-.4l-.7,-.1l.3,-.4c.1,-.2,2.3,-3.3,4.8,-7l4.7,-6.7l.5,-.3c.9,-.4,1.6,-.4,2.1,.1l.3,.3l-5,7.4c-3.1,4.4,-5.1,7.3,-5.1,7.3c-.1,0,-.4,-.1,-.7,-.2Z" class="g6_24"/>
<path d="M140,206c-.2,-.2,-.6,-.5,-.8,-.6c-.2,-.1,-.3,-.3,-.3,-.3c0,-.1,9.4,-14,9.8,-14.6c.1,-.1,.5,.3,.8,.7c.3,.4,.3,.6,.4,1c0,.4,0,.7,-.1,.8c-.2,.3,-9.1,13.1,-9.2,13.3c-.2,.2,-.2,.1,-.6,-.3Z" class="g6_24"/>
<path d="M141.6,208.7c0,-.1,-.1,-.3,-.1,-.6c-.1,-.2,-.3,-.6,-.4,-.8l-.3,-.4l4.7,-6.8c2.6,-3.7,4.8,-6.8,4.8,-6.8c.4,0,1,.7,1,1.1c0,.2,-.6,1.2,-1.9,3.1c-1.1,1.6,-3.1,4.6,-4.6,6.8c-3,4.4,-3.1,4.6,-3.2,4.4Z" class="g6_24"/>
<path d="M131.9,210.2c2.3,-.1,3.6,.7,4.1,2.3" class="g7_24"/>
<path d="M132,214.1c0,-.4,.1,-.4,.1,-1.3c0,-.8,0,-1,0,-1.4c0,-.2,0,-.6,0,-.7l.1,-.2c.1,0,.6,0,.7,0c.4,0,.8,.1,1.1,.2c.2,.1,.4,.2,.6,.3c.2,.1,.3,.2,.4,.4c.3,.2,.4,.4,.6,.7c0,.2,.1,.5,.1,.5c0,0,-1.5,.7,-1.8,.8c-.1,0,-.2,.1,-.3,.1c-1.1,.6,-1.4,.7,-1.6,.8Z" class="g2_24"/>
<path d="M136.2,212c-.6,-1.3,-1.8,-2,-3.4,-2.1l-.6,-.1v-.5c.1,-.2,.1,-1.2,.2,-2.1c0,-1,.1,-1.9,.1,-2l.1,-.2h.7c.8,.1,2.3,.3,3.1,.5c1.7,.5,3.1,1.4,3.6,2.5c.4,.8,.6,2.1,.3,2.4c-.1,.2,-.8,.5,-2.5,1.3c-1.6,.7,-1.5,.7,-1.6,.3Z" class="g8_24"/>
<path d="M136.2,212c-.6,-1.3,-1.8,-2,-3.4,-2.1l-.6,-.1v-.5c.1,-.2,.1,-1.2,.2,-2.1c0,-1,.1,-1.9,.1,-2l.1,-.2h.7c.8,.1,2.3,.3,3.1,.5c1.7,.5,3.1,1.4,3.6,2.5c.4,.8,.6,2.1,.3,2.4c-.1,.2,-.8,.5,-2.5,1.3c-1.6,.7,-1.5,.7,-1.6,.3Z" class="g9_24"/>
</g>
<path d="M152.7,215.5H501.9" class="g0_24"/>
<path d="M137.6,220.7V566.1" class="gb_24"/>
<path d="M116.9,1047.3V619.7H792.5v427.6Z" class="g1_24"/>
<path d="M117.7,1047.3V620.5H791.8v426.8Z" class="gc_24"/>
<path d="M142.6,630.8c0,-3,-2.4,-5.4,-5.4,-5.4c-3.1,0,-5.5,2.4,-5.5,5.4c0,3.1,2.4,5.5,5.5,5.5c3,0,5.4,-2.4,5.4,-5.5Z" class="gd_24"/>
<path d="M137.2,630.8c6.4,1.6,5.4,3.9,-2.3,5.2c-7.7,1.3,-19.2,1.1,-25.7,-.5c-4.2,-1,-5.4,-2.3,-3.2,-3.6c1.8,-1,5.8,-1.8,10.9,-2.1" class="ge_24"/>
<path d="M137.2,630.8c6.4,1.6,5.4,3.9,-2.3,5.2c-7.7,1.3,-19.2,1.1,-25.7,-.5c-4.2,-1,-5.4,-2.3,-3.2,-3.6c1.8,-1,5.8,-1.8,10.9,-2.1" class="gf_24"/>
<path d="M142.6,655.9c0,-3,-2.4,-5.5,-5.4,-5.5c-3.1,0,-5.5,2.5,-5.5,5.5c0,3,2.4,5.5,5.5,5.5c3,0,5.4,-2.5,5.4,-5.5Z" class="gd_24"/>
<path d="M137.2,655.9c6.4,1.6,5.4,3.9,-2.3,5.2c-7.7,1.3,-19.2,1.1,-25.7,-.5c-4.2,-1,-5.4,-2.4,-3.2,-3.6c1.8,-1,5.8,-1.8,10.9,-2.2" class="ge_24"/>
<path d="M137.2,655.9c6.4,1.6,5.4,3.9,-2.3,5.2c-7.7,1.3,-19.2,1.1,-25.7,-.5c-4.2,-1,-5.4,-2.4,-3.2,-3.6c1.8,-1,5.8,-1.8,10.9,-2.2" class="gf_24"/>
<path d="M142.6,681c0,-3,-2.4,-5.5,-5.4,-5.5c-3.1,0,-5.5,2.5,-5.5,5.5c0,3,2.4,5.5,5.5,5.5c3,0,5.4,-2.5,5.4,-5.5Z" class="gd_24"/>
<path d="M137.2,681c6.4,1.5,5.4,3.8,-2.3,5.1c-7.7,1.3,-19.2,1.1,-25.7,-.4c-4.2,-1,-5.4,-2.4,-3.2,-3.6c1.8,-1,5.8,-1.8,10.9,-2.2" class="ge_24"/>
<path d="M137.2,681c6.4,1.5,5.4,3.8,-2.3,5.1c-7.7,1.3,-19.2,1.1,-25.7,-.4c-4.2,-1,-5.4,-2.4,-3.2,-3.6c1.8,-1,5.8,-1.8,10.9,-2.2" class="gf_24"/>
<path d="M142.6,706c0,-3,-2.4,-5.4,-5.4,-5.4c-3.1,0,-5.5,2.4,-5.5,5.4c0,3.1,2.4,5.5,5.5,5.5c3,0,5.4,-2.4,5.4,-5.5Z" class="gd_24"/>
<path d="M137.2,706c6.4,1.6,5.4,3.9,-2.3,5.2c-7.7,1.3,-19.2,1.1,-25.7,-.5c-4.2,-1,-5.4,-2.3,-3.2,-3.6c1.8,-1,5.8,-1.8,10.9,-2.1" class="ge_24"/>
<path d="M137.2,706c6.4,1.6,5.4,3.9,-2.3,5.2c-7.7,1.3,-19.2,1.1,-25.7,-.5c-4.2,-1,-5.4,-2.3,-3.2,-3.6c1.8,-1,5.8,-1.8,10.9,-2.1" class="gf_24"/>
<path d="M142.6,731.1c0,-3,-2.4,-5.5,-5.4,-5.5c-3.1,0,-5.5,2.5,-5.5,5.5c0,3,2.4,5.5,5.5,5.5c3,0,5.4,-2.5,5.4,-5.5Z" class="gd_24"/>
<path d="M137.2,731.1c6.4,1.6,5.4,3.9,-2.3,5.2c-7.7,1.3,-19.2,1.1,-25.7,-.5c-4.2,-1,-5.4,-2.4,-3.2,-3.6c1.8,-1,5.8,-1.8,10.9,-2.2" class="ge_24"/>
<path d="M137.2,731.1c6.4,1.6,5.4,3.9,-2.3,5.2c-7.7,1.3,-19.2,1.1,-25.7,-.5c-4.2,-1,-5.4,-2.4,-3.2,-3.6c1.8,-1,5.8,-1.8,10.9,-2.2" class="gf_24"/>
<path d="M142.6,756.2c0,-3,-2.4,-5.5,-5.4,-5.5c-3.1,0,-5.5,2.5,-5.5,5.5c0,3,2.4,5.5,5.5,5.5c3,0,5.4,-2.5,5.4,-5.5Z" class="gd_24"/>
<path d="M137.2,756.2c6.4,1.5,5.4,3.8,-2.3,5.1c-7.7,1.3,-19.2,1.1,-25.7,-.4c-4.2,-1,-5.4,-2.4,-3.2,-3.6c1.8,-1,5.8,-1.8,10.9,-2.2" class="ge_24"/>
<path d="M137.2,756.2c6.4,1.5,5.4,3.8,-2.3,5.1c-7.7,1.3,-19.2,1.1,-25.7,-.4c-4.2,-1,-5.4,-2.4,-3.2,-3.6c1.8,-1,5.8,-1.8,10.9,-2.2" class="gf_24"/>
<path d="M142.6,781.2c0,-3,-2.4,-5.4,-5.4,-5.4c-3.1,0,-5.5,2.4,-5.5,5.4c0,3.1,2.4,5.5,5.5,5.5c3,0,5.4,-2.4,5.4,-5.5Z" class="gd_24"/>
<path d="M137.2,781.2c6.4,1.6,5.4,3.9,-2.3,5.2c-7.7,1.3,-19.2,1.1,-25.7,-.5c-4.2,-1,-5.4,-2.3,-3.2,-3.6c1.8,-1,5.8,-1.8,10.9,-2.1" class="ge_24"/>
<path d="M137.2,781.2c6.4,1.6,5.4,3.9,-2.3,5.2c-7.7,1.3,-19.2,1.1,-25.7,-.5c-4.2,-1,-5.4,-2.3,-3.2,-3.6c1.8,-1,5.8,-1.8,10.9,-2.1" class="gf_24"/>
<path d="M142.6,806.3c0,-3,-2.4,-5.5,-5.4,-5.5c-3.1,0,-5.5,2.5,-5.5,5.5c0,3,2.4,5.5,5.5,5.5c3,0,5.4,-2.5,5.4,-5.5Z" class="gd_24"/>
<path d="M137.2,806.3c6.4,1.6,5.4,3.9,-2.3,5.2c-7.7,1.3,-19.2,1.1,-25.7,-.5c-4.2,-1,-5.4,-2.4,-3.2,-3.6c1.8,-1,5.8,-1.8,10.9,-2.2" class="ge_24"/>
<path d="M137.2,806.3c6.4,1.6,5.4,3.9,-2.3,5.2c-7.7,1.3,-19.2,1.1,-25.7,-.5c-4.2,-1,-5.4,-2.4,-3.2,-3.6c1.8,-1,5.8,-1.8,10.9,-2.2" class="gf_24"/>
<path d="M142.6,831.4c0,-3,-2.4,-5.5,-5.4,-5.5c-3.1,0,-5.5,2.5,-5.5,5.5c0,3,2.4,5.5,5.5,5.5c3,0,5.4,-2.5,5.4,-5.5Z" class="gd_24"/>
<path d="M137.2,831.4c6.4,1.5,5.4,3.8,-2.3,5.1c-7.7,1.3,-19.2,1.1,-25.7,-.4c-4.2,-1,-5.4,-2.4,-3.2,-3.6c1.8,-1,5.8,-1.8,10.9,-2.2" class="ge_24"/>
<path d="M137.2,831.4c6.4,1.5,5.4,3.8,-2.3,5.1c-7.7,1.3,-19.2,1.1,-25.7,-.4c-4.2,-1,-5.4,-2.4,-3.2,-3.6c1.8,-1,5.8,-1.8,10.9,-2.2" class="gf_24"/>
<path d="M142.6,856.4c0,-3,-2.4,-5.4,-5.4,-5.4c-3.1,0,-5.5,2.4,-5.5,5.4c0,3.1,2.4,5.5,5.5,5.5c3,0,5.4,-2.4,5.4,-5.5Z" class="gd_24"/>
<path d="M137.2,856.4c6.4,1.6,5.4,3.9,-2.3,5.2c-7.7,1.3,-19.2,1.1,-25.7,-.5c-4.2,-1,-5.4,-2.3,-3.2,-3.6c1.8,-1,5.8,-1.8,10.9,-2.1" class="ge_24"/>
<path d="M137.2,856.4c6.4,1.6,5.4,3.9,-2.3,5.2c-7.7,1.3,-19.2,1.1,-25.7,-.5c-4.2,-1,-5.4,-2.3,-3.2,-3.6c1.8,-1,5.8,-1.8,10.9,-2.1" class="gf_24"/>
<path d="M142.6,881.5c0,-3,-2.4,-5.5,-5.4,-5.5c-3.1,0,-5.5,2.5,-5.5,5.5c0,3,2.4,5.5,5.5,5.5c3,0,5.4,-2.5,5.4,-5.5Z" class="gd_24"/>
<path d="M137.2,881.5c6.4,1.6,5.4,3.9,-2.3,5.2c-7.7,1.3,-19.2,1.1,-25.7,-.5c-4.2,-1,-5.4,-2.4,-3.2,-3.6c1.8,-1,5.8,-1.8,10.9,-2.2" class="ge_24"/>
<path d="M137.2,881.5c6.4,1.6,5.4,3.9,-2.3,5.2c-7.7,1.3,-19.2,1.1,-25.7,-.5c-4.2,-1,-5.4,-2.4,-3.2,-3.6c1.8,-1,5.8,-1.8,10.9,-2.2" class="gf_24"/>
<path d="M142.6,906.6c0,-3,-2.4,-5.5,-5.4,-5.5c-3.1,0,-5.5,2.5,-5.5,5.5c0,3,2.4,5.5,5.5,5.5c3,0,5.4,-2.5,5.4,-5.5Z" class="gd_24"/>
<path d="M137.2,906.6c6.4,1.5,5.4,3.8,-2.3,5.1c-7.7,1.3,-19.2,1.1,-25.7,-.4c-4.2,-1,-5.4,-2.4,-3.2,-3.6c1.8,-1,5.8,-1.8,10.9,-2.2" class="ge_24"/>
<path d="M137.2,906.6c6.4,1.5,5.4,3.8,-2.3,5.1c-7.7,1.3,-19.2,1.1,-25.7,-.4c-4.2,-1,-5.4,-2.4,-3.2,-3.6c1.8,-1,5.8,-1.8,10.9,-2.2" class="gf_24"/>
<path d="M142.6,931.6c0,-3,-2.4,-5.4,-5.4,-5.4c-3.1,0,-5.5,2.4,-5.5,5.4c0,3.1,2.4,5.5,5.5,5.5c3,0,5.4,-2.4,5.4,-5.5Z" class="gd_24"/>
<path d="M137.2,931.6c6.4,1.6,5.4,3.9,-2.3,5.2c-7.7,1.3,-19.2,1.1,-25.7,-.5c-4.2,-1,-5.4,-2.3,-3.2,-3.6c1.8,-1,5.8,-1.8,10.9,-2.1" class="ge_24"/>
<path d="M137.2,931.6c6.4,1.6,5.4,3.9,-2.3,5.2c-7.7,1.3,-19.2,1.1,-25.7,-.5c-4.2,-1,-5.4,-2.3,-3.2,-3.6c1.8,-1,5.8,-1.8,10.9,-2.1" class="gf_24"/>
<path d="M142.6,956.7c0,-3,-2.4,-5.5,-5.4,-5.5c-3.1,0,-5.5,2.5,-5.5,5.5c0,3,2.4,5.5,5.5,5.5c3,0,5.4,-2.5,5.4,-5.5Z" class="gd_24"/>
<path d="M137.2,956.7c6.4,1.6,5.4,3.9,-2.3,5.2c-7.7,1.3,-19.2,1.1,-25.7,-.5c-4.2,-1,-5.4,-2.4,-3.2,-3.6c1.8,-1,5.8,-1.8,10.9,-2.2" class="ge_24"/>
<path d="M137.2,956.7c6.4,1.6,5.4,3.9,-2.3,5.2c-7.7,1.3,-19.2,1.1,-25.7,-.5c-4.2,-1,-5.4,-2.4,-3.2,-3.6c1.8,-1,5.8,-1.8,10.9,-2.2" class="gf_24"/>
<path d="M142.6,981.8c0,-3,-2.4,-5.5,-5.4,-5.5c-3.1,0,-5.5,2.5,-5.5,5.5c0,3,2.4,5.5,5.5,5.5c3,0,5.4,-2.5,5.4,-5.5Z" class="gd_24"/>
<path d="M137.2,981.8c6.4,1.5,5.4,3.8,-2.3,5.1c-7.7,1.3,-19.2,1.1,-25.7,-.4c-4.2,-1,-5.4,-2.4,-3.2,-3.6c1.8,-1,5.8,-1.8,10.9,-2.2" class="ge_24"/>
<path d="M137.2,981.8c6.4,1.5,5.4,3.8,-2.3,5.1c-7.7,1.3,-19.2,1.1,-25.7,-.4c-4.2,-1,-5.4,-2.4,-3.2,-3.6c1.8,-1,5.8,-1.8,10.9,-2.2" class="gf_24"/>
<path d="M142.6,1006.8c0,-3,-2.4,-5.4,-5.4,-5.4c-3.1,0,-5.5,2.4,-5.5,5.4c0,3.1,2.4,5.5,5.5,5.5c3,0,5.4,-2.4,5.4,-5.5Z" class="gd_24"/>
<path d="M137.2,1006.8c6.4,1.6,5.4,3.9,-2.3,5.2c-7.7,1.3,-19.2,1.1,-25.7,-.5c-4.2,-1,-5.4,-2.3,-3.2,-3.6c1.8,-1,5.8,-1.8,10.9,-2.1" class="ge_24"/>
<path d="M137.2,1006.8c6.4,1.6,5.4,3.9,-2.3,5.2c-7.7,1.3,-19.2,1.1,-25.7,-.5c-4.2,-1,-5.4,-2.3,-3.2,-3.6c1.8,-1,5.8,-1.8,10.9,-2.1" class="gf_24"/>
<path d="M142.6,1031.9c0,-3,-2.4,-5.5,-5.4,-5.5c-3.1,0,-5.5,2.5,-5.5,5.5c0,3,2.4,5.5,5.5,5.5c3,0,5.4,-2.5,5.4,-5.5Z" class="gd_24"/>
<path d="M137.2,1031.9c6.4,1.6,5.4,3.9,-2.3,5.2c-7.7,1.3,-19.2,1.1,-25.7,-.5c-4.2,-1,-5.4,-2.4,-3.2,-3.6c1.8,-1,5.8,-1.8,10.9,-2.2" class="ge_24"/>
<path d="M137.2,1031.9c6.4,1.6,5.4,3.9,-2.3,5.2c-7.7,1.3,-19.2,1.1,-25.7,-.5c-4.2,-1,-5.4,-2.4,-3.2,-3.6c1.8,-1,5.8,-1.8,10.9,-2.2" class="gf_24"/>
<path d="M184.5,664.9h39" class="gg_24"/>
<path d="M163.2,652.3c.6,-.6,1.9,-2.3,3.4,-1.2c1.5,1.2,2.3,3.5,3.5,6.9c2.2,-6.9,12.5,-16,17.1,-18.3c-4.6,3.4,-13.4,14.9,-15.7,21.7l-2.6,2.1c-1.1,-3.4,-2.3,-10.1,-5.7,-11.2Z" class="gh_24"/>
<path d="M157.4,654.9c.5,-.4,1.5,-1.7,2.7,-.8c1.1,.8,1.7,2.6,2.6,5.3c1.8,-5.3,9.7,-12.4,13.3,-14.2c-3.6,2.7,-10.4,11.5,-12.1,16.8l-2.1,1.6c-.8,-2.7,-1.7,-7.8,-4.4,-8.7Z" class="gi_24"/>
</svg>