<?xml version="1.0" encoding="UTF-8" standalone="no"?>
<!DOCTYPE svg PUBLIC "-//W3C//DTD SVG 1.1//EN"
"http://www.w3.org/Graphics/SVG/1.1/DTD/svg11.dtd">
<svg viewBox="0 0 909 1286" version="1.1" xmlns="http://www.w3.org/2000/svg" xmlns:xlink="http://www.w3.org/1999/xlink">
<defs>
<style type="text/css"><![CDATA[
.g0_30{
fill: none;
stroke: #000000;
stroke-width: 1.972;
stroke-linecap: butt;
stroke-linejoin: miter;
}
.g1_30{
fill: none;
stroke: #02B5EE;
stroke-width: 1.278;
stroke-linecap: butt;
stroke-linejoin: miter;
}
.g2_30{
fill: #F81693;
stroke: #F81693;
stroke-width: 1.155;
stroke-linecap: butt;
stroke-linejoin: round;
stroke-miterlimit: 1;
}
.g3_30{
fill: #7F7F7F;
stroke: #7F7F7F;
stroke-width: 1.155;
stroke-linecap: butt;
stroke-linejoin: round;
stroke-miterlimit: 1;
}
.g4_30{
fill: #02B5EE;
stroke: #02B5EE;
stroke-width: 1.155;
stroke-linecap: butt;
stroke-linejoin: round;
stroke-miterlimit: 1;
}
]]></style>
</defs>
<path d="M116.9,180.5H792.5m-1,310.1V181.5M116.9,491.6H792.5" class="g0_30"/>
<path d="M392.2,607.3l54.6,32.6m0,64.2V640.2M392.2,737l54.6,-32.6M392.2,737L337.5,704.4m0,-.3V640.2m54.7,-32.9l-54.7,32.6M282.8,607.3l54.7,32.6M282.8,737l54.7,-32.6M282.8,737L228.2,704.4m0,-.3V640.2m54.6,-32.9l-54.6,32.6M390.3,620.7l-40.3,24m86.3,51.1V648.5m-46,75.1L350,699.6M280.9,620.7l-40.2,24m40.2,78.9l-40.2,-24" class="g1_30"/>
<path d="M345.6,704.1c0,3.5,-2.3,6.6,-5.6,7.7c-3.3,1.1,-7,-.1,-9,-2.9c-2.1,-2.9,-2.1,-6.7,0,-9.5c2,-2.9,5.7,-4,9,-3c3.3,1.1,5.6,4.2,5.6,7.7Z" class="g2_30"/>
<path d="M290.9,737c0,3.6,-2.2,6.7,-5.6,7.7c-3.3,1.1,-6.9,-.1,-9,-2.9c-2.1,-2.8,-2.1,-6.7,0,-9.5c2.1,-2.8,5.7,-4,9,-2.9c3.4,1,5.6,4.1,5.6,7.6Z" class="g3_30"/>
<path d="M236.3,704.1c0,3.5,-2.3,6.6,-5.6,7.7c-3.3,1.1,-7,-.1,-9.1,-2.9c-2,-2.9,-2,-6.7,0,-9.5c2.1,-2.9,5.8,-4,9.1,-3c3.3,1.1,5.6,4.2,5.6,7.7Z" class="g3_30"/>
<path d="M236.3,640.2c0,3.5,-2.3,6.6,-5.6,7.7c-3.3,1.1,-7,-.1,-9.1,-3c-2,-2.8,-2,-6.6,0,-9.5c2.1,-2.8,5.8,-4,9.1,-2.9c3.3,1.1,5.6,4.2,5.6,7.7Z" class="g3_30"/>
<path d="M290.9,607.3c0,3.5,-2.2,6.6,-5.6,7.7c-3.3,1,-6.9,-.1,-9,-3c-2.1,-2.8,-2.1,-6.6,0,-9.5c2.1,-2.8,5.7,-4,9,-2.9c3.4,1.1,5.6,4.2,5.6,7.7Z" class="g3_30"/>
<path d="M345.6,640.2c0,3.5,-2.3,6.6,-5.6,7.7c-3.3,1.1,-7,-.1,-9,-3c-2.1,-2.8,-2.1,-6.6,0,-9.5c2,-2.8,5.7,-4,9,-2.9c3.3,1.1,5.6,4.2,5.6,7.7Z" class="g4_30"/>
<path d="M652,607.3l54.7,32.6m0,64.2V640.2M652,737l54.7,-32.6M652,737L597.4,704.4m0,-.3V640.2M652,607.3l-54.6,32.6M542.7,607.3l54.7,32.6M542.7,737l54.7,-32.6M542.7,737L488,704.4m0,-.3V640.2m54.7,-32.9L488,639.9M650.1,620.7l-40.3,24m86.3,51.1V648.5m-46,75.1l-40.3,-24m-69,-78.9l-40.3,24m40.3,78.9l-40.3,-24" class="g1_30"/>
<path d="M605.4,704.1c0,3.5,-2.2,6.6,-5.5,7.7c-3.4,1.1,-7,-.1,-9.1,-2.9c-2,-2.9,-2,-6.7,0,-9.5c2.1,-2.9,5.7,-4,9.1,-3c3.3,1.1,5.5,4.2,5.5,7.7Z" class="g4_30"/>
<path d="M550.8,737c0,3.6,-2.3,6.7,-5.6,7.7c-3.3,1.1,-7,-.1,-9,-2.9c-2.1,-2.8,-2.1,-6.7,0,-9.5c2,-2.8,5.7,-4,9,-2.9c3.3,1,5.6,4.1,5.6,7.6Z" class="g3_30"/>
<path d="M496.1,704.1c0,3.5,-2.2,6.6,-5.6,7.7c-3.3,1.1,-6.9,-.1,-9,-2.9c-2.1,-2.9,-2.1,-6.7,0,-9.5c2.1,-2.9,5.7,-4,9,-3c3.4,1.1,5.6,4.2,5.6,7.7Z" class="g3_30"/>
<path d="M496.1,640.2c0,3.5,-2.2,6.6,-5.6,7.7c-3.3,1.1,-6.9,-.1,-9,-3c-2.1,-2.8,-2.1,-6.6,0,-9.5c2.1,-2.8,5.7,-4,9,-2.9c3.4,1.1,5.6,4.2,5.6,7.7Z" class="g3_30"/>
<path d="M550.8,607.3c0,3.5,-2.3,6.6,-5.6,7.7c-3.3,1,-7,-.1,-9,-3c-2.1,-2.8,-2.1,-6.6,0,-9.5c2,-2.8,5.7,-4,9,-2.9c3.3,1.1,5.6,4.2,5.6,7.7Z" class="g3_30"/>
<path d="M605.4,640.2c0,3.5,-2.2,6.6,-5.5,7.7c-3.4,1.1,-7,-.1,-9.1,-3c-2,-2.8,-2,-6.6,0,-9.5c2.1,-2.8,5.7,-4,9.1,-2.9c3.3,1.1,5.5,4.2,5.5,7.7Z" class="g2_30"/>
</svg>