<?xml version="1.0" encoding="UTF-8" standalone="no"?>
<!DOCTYPE svg PUBLIC "-//W3C//DTD SVG 1.1//EN"
"http://www.w3.org/Graphics/SVG/1.1/DTD/svg11.dtd">
<svg viewBox="0 0 1286 909" version="1.1" xmlns="http://www.w3.org/2000/svg" xmlns:xlink="http://www.w3.org/1999/xlink">
<defs>
<style type="text/css"><![CDATA[
.g0_992{
fill: none;
stroke: #000000;
stroke-width: 0.73;
stroke-linecap: butt;
stroke-linejoin: miter;
}
.g1_992{
fill: #FFCCCC;
}
.g2_992{
fill: none;
stroke: #F81693;
stroke-width: 1.461;
stroke-linecap: butt;
stroke-linejoin: miter;
}
.g3_992{
fill: none;
stroke: #F81693;
stroke-width: 1.461;
stroke-linecap: butt;
stroke-linejoin: miter;
stroke-dasharray: 2,2;
}
.g4_992{
fill: none;
stroke: #02B5EE;
stroke-width: 1.262;
stroke-linecap: butt;
stroke-linejoin: miter;
}
.g5_992{
fill: none;
stroke: #5EE200;
stroke-width: 1.262;
stroke-linecap: butt;
stroke-linejoin: miter;
}
.g6_992{
fill: none;
stroke: #5EE200;
stroke-width: 0.73;
stroke-linecap: butt;
stroke-linejoin: miter;
}
.g7_992{
fill: none;
stroke: #02B5EE;
stroke-width: 0.73;
stroke-linecap: butt;
stroke-linejoin: miter;
}
]]></style>
</defs>
<path d="M193,83.4h900.3M193,210.6H789.6m-596.6,0H789.6M467.7,240.2V211m0,58.5V240.2m0,63.2V269.5" class="g0_992"/>
<path d="M596.8,303.4h59.5V270.5H596.8v32.9Z" class="g1_992"/>
<path d="M612.8,301.6c1.4,0,2.1,-2.8,3.4,-2.8c1,0,1.9,1.4,2.8,2.8c.9,1.3,1.7,2.7,2.7,2.7c1,0,1.9,-1.4,2.8,-2.7c.8,-1.4,1.7,-2.8,2.7,-2.8c1,0,1.9,1.4,2.7,2.8c.9,1.3,1.8,2.7,2.8,2.7c1.4,0,2,-2.7,3.4,-2.7h4.2" class="g2_992"/>
<path d="M670.5,297H774.9" class="g3_992"/>
<path d="M467.7,333.6V303.4m0,59.4V333.6m0,58.4V362.8m0,60.1V392m0,60.1V422.9m0,58.4V452.1m0,114.2v-85" class="g0_992"/>
<path d="M617.7,542.3H703" class="g4_992"/>
<path d="M713.5,542.3h65.1" class="g5_992"/>
<path d="M467.7,596.5V566.3m0,103.3V596.5" class="g0_992"/>
<path d="M560,655.7h83.5" class="g6_992"/>
<path d="M643.5,655.7H778.6" class="g7_992"/>
<path d="M467.7,700.9V669.6m0,60.5V700.9M193,730.5H789.6m-596.6,0H789.6" class="g0_992"/>
</svg>