<?xml version="1.0" encoding="UTF-8" standalone="no"?>
<!DOCTYPE svg PUBLIC "-//W3C//DTD SVG 1.1//EN"
"http://www.w3.org/Graphics/SVG/1.1/DTD/svg11.dtd">
<svg viewBox="0 0 1286 909" version="1.1" xmlns="http://www.w3.org/2000/svg" xmlns:xlink="http://www.w3.org/1999/xlink">
<defs>
<style type="text/css"><![CDATA[
.g0_819{
fill: none;
stroke: #000000;
stroke-width: 0.73;
stroke-linecap: butt;
stroke-linejoin: miter;
}
.g1_819{
fill: none;
stroke: #02B5EE;
stroke-width: 1.262;
stroke-linecap: butt;
stroke-linejoin: miter;
}
.g2_819{
fill: none;
stroke: #02B5EE;
stroke-width: 0.73;
stroke-linecap: butt;
stroke-linejoin: miter;
}
]]></style>
</defs>
<path d="M193,83.4h900.3M193,210.6H815m-622,0H815M454.6,240.2V211m0,58.5V240.2m0,114.3v-85" class="g0_819"/>
<path d="M587.4,330.5h87.2" class="g1_819"/>
<path d="M454.6,383.7V354.5m0,102.3V383.7" class="g0_819"/>
<path d="M736.5,442.9H804" class="g2_819"/>
<path d="M454.6,486V456.8m0,58.4V486m0,114.2v-85" class="g0_819"/>
<path d="M538,576.2H674.6" class="g1_819"/>
<path d="M454.6,630.4V600.2m0,103.3V630.4" class="g0_819"/>
<path d="M685.8,689.6H804" class="g2_819"/>
<path d="M454.6,732.7V703.5M193,733.1H815m-622,0H815" class="g0_819"/>
</svg>