<?xml version="1.0" encoding="UTF-8" standalone="no"?>
<!DOCTYPE svg PUBLIC "-//W3C//DTD SVG 1.1//EN"
"http://www.w3.org/Graphics/SVG/1.1/DTD/svg11.dtd">
<svg viewBox="0 0 1286 909" version="1.1" xmlns="http://www.w3.org/2000/svg" xmlns:xlink="http://www.w3.org/1999/xlink">
<defs>
<style type="text/css"><![CDATA[
.g0_98{
fill: none;
stroke: #000000;
stroke-width: 0.73;
stroke-linecap: butt;
stroke-linejoin: miter;
}
.g1_98{
fill: #B3E9FA;
}
.g2_98{
fill: none;
stroke: #02B5EE;
stroke-width: 1.262;
stroke-linecap: butt;
stroke-linejoin: miter;
}
.g3_98{
fill: none;
stroke: #5EE200;
stroke-width: 1.262;
stroke-linecap: butt;
stroke-linejoin: miter;
}
.g4_98{
fill: #FFCCCC;
}
.g5_98{
fill: none;
stroke: #5EE200;
stroke-width: 0.73;
stroke-linecap: butt;
stroke-linejoin: miter;
}
.g6_98{
fill: none;
stroke: #02B5EE;
stroke-width: 0.73;
stroke-linecap: butt;
stroke-linejoin: miter;
}
]]></style>
</defs>
<path d="M193,83.4h900.3M193,111.6h932.2m-932.2,0h932.2M544.3,141.2V112m0,114.3V141.2" class="g0_98"/>
<path d="M871.5,176.5V164.3c0,-2.9,2.3,-5.2,5.2,-5.2h49.2c2.9,0,5.2,2.3,5.2,5.2v12.2c0,2.9,-2.3,5.2,-5.2,5.2H876.7c-2.9,0,-5.2,-2.3,-5.2,-5.2Z" class="g1_98"/>
<path d="M868.9,202.3h64.8" class="g2_98"/>
<path d="M944.2,202.3h170" class="g3_98"/>
<path d="M544.3,255.5V226.3m0,58.4V255.5m0,114.2v-85" class="g0_98"/>
<path d="M980.3,345.7h44.1" class="g2_98"/>
<path d="M1045.4,334h68.8V301.1h-68.8V334Z" class="g4_98"/>
<path d="M544.3,399V369.7m0,60.6V399m0,60.5V430.3m0,58.4V459.5m0,114.3V488.7" class="g0_98"/>
<path d="M920.7,549.8h79.2" class="g2_98"/>
<path d="M1010.4,549.8h103.8" class="g3_98"/>
<path d="M544.3,603V573.8m0,102.2V603" class="g0_98"/>
<path d="M888.6,662.2h168.9" class="g5_98"/>
<path d="M1063.6,662.2h50.6" class="g6_98"/>
<path d="M544.3,705.3V676M193,705.6h932.2m-932.2,0h932.2" class="g0_98"/>
</svg>