<?xml version="1.0" encoding="UTF-8" standalone="no"?>
<!DOCTYPE svg PUBLIC "-//W3C//DTD SVG 1.1//EN"
"http://www.w3.org/Graphics/SVG/1.1/DTD/svg11.dtd">
<svg viewBox="0 0 909 1286" version="1.1" xmlns="http://www.w3.org/2000/svg" xmlns:xlink="http://www.w3.org/1999/xlink">
<defs>
<style type="text/css"><![CDATA[
.g0_13{
fill: none;
stroke: #000000;
stroke-width: 0.73;
stroke-linecap: butt;
stroke-linejoin: miter;
}
.g1_13{
fill: none;
stroke: #999999;
stroke-width: 2.191;
stroke-linecap: butt;
stroke-linejoin: miter;
}
]]></style>
</defs>
<path d="M182.4,179.9H727M445.8,209.5V180.3M268.3,328.2h36.5m0,0l22.8,-28.7m0,0l-8,-35.6m0,0L286.5,248m0,0l-33,15.9m0,0l-8.1,35.6m0,0l22.9,28.7m2.4,-5.1h31.7m19.8,-22.8L315,267.6m-64.1,32.7l7.2,-32.7m187.7,96.8V209.5m0,184.1V364.4" class="g0_13"/>
<path d="M662.8,387.7L607.9,369.2m0,18.5l54.9,-18.5" class="g1_13"/>
<path d="M445.8,422.8V393.6M182.4,423.2H727M445.8,452.8V423.6m-144.6,119h36.5m0,0l25.9,-25.9m0,0V480.2m0,0l-25.9,-26m0,0H301.2m0,0l-26,26m0,0v36.5m0,0l26,25.9M281.3,514.5V482.4M304,537.2h32.1m22.7,-22.7V482.4M304,459.7h32.1m109.7,93.2V452.8m0,129.3V552.9" class="g0_13"/>
<path d="M666.6,576.2L592.2,557.7m0,18.5l74.4,-18.5" class="g1_13"/>
<path d="M445.8,611.3V582.1M182.4,611.7H727M445.8,641.3V612.1M339.9,684l31.2,18.6m0,36.8V702.8m-31.2,55.4l31.2,-18.7m-31.2,18.7L308.6,739.5m0,-.1V702.8M339.9,684l-31.3,18.6M277.4,684l31.2,18.6m-31.2,55.6l31.2,-18.7m-31.2,18.7L246.2,739.5m0,-.1V702.8M277.4,684l-31.2,18.6M341,691.7l23,13.7m-23,45.1l23,-13.7m-87.7,13.7l-23,-13.7m23,-45.1l-23,13.7m49.3,29.2v-27M445.8,810.8V641.3m0,198.7V810.8m0,58.4V840M182.4,869.6H727M445.8,899.2V870M240.9,890.8l-31.3,18.6m31.3,-18.6l31.2,18.6m-31.2,55.5L209.6,946.3m31.3,18.6l31.2,-18.6m0,-.2V909.6m-62.5,36.5V909.6m93.8,-18.8l-31.3,18.6m31.3,-18.6l31.2,18.6m-31.2,55.5L272.1,946.3m31.3,18.6l31.2,-18.6m0,-.2V909.6m31.2,-18.8l-31.2,18.6m31.2,-18.6l31.3,18.6m0,36.7V909.6m-31.3,55.3l31.3,-18.6m-31.3,18.6L334.6,946.3m32.3,-47.8l23,13.7m-23,45.1l23,-13.7m-85.5,13.7l-23,-13.7m23,-45.1l-23,13.7m-41.6,45.1l-23,-13.7m23,-45.1l-23,13.7m123.4,29.2V914.3m105.6,48.4V899.2m0,92.8V962.7" class="g0_13"/>
<path d="M640.6,986.1L595.8,971.8m0,14.3l44.8,-14.3" class="g1_13"/>
<path d="M445.8,1021.2V992m-263.4,29.6H727" class="g0_13"/>
</svg>