<?xml version="1.0" encoding="UTF-8" standalone="no"?>
<!DOCTYPE svg PUBLIC "-//W3C//DTD SVG 1.1//EN"
"http://www.w3.org/Graphics/SVG/1.1/DTD/svg11.dtd">
<svg viewBox="0 0 1286 909" version="1.1" xmlns="http://www.w3.org/2000/svg" xmlns:xlink="http://www.w3.org/1999/xlink">
<defs>
<style type="text/css"><![CDATA[
.g0_845{
fill: none;
stroke: #000000;
stroke-width: 0.73;
stroke-linecap: butt;
stroke-linejoin: miter;
}
.g1_845{
fill: #B3E9FA;
}
.g2_845{
fill: none;
stroke: #02B5EE;
stroke-width: 1.262;
stroke-linecap: butt;
stroke-linejoin: miter;
}
.g3_845{
fill: none;
stroke: #5EE200;
stroke-width: 1.262;
stroke-linecap: butt;
stroke-linejoin: miter;
}
]]></style>
</defs>
<path d="M193,83.4h900.3M193,210.6H694.8m-501.8,0H694.8m-200,29.6V211m0,58.5V240.2m0,114.3v-85" class="g0_845"/>
<path d="M508.3,311V292.5c0,-2.9,2.3,-5.2,5.2,-5.2H614.8c2.9,0,5.2,2.3,5.2,5.2V311c0,2.9,-2.3,5.2,-5.2,5.2H513.5c-2.9,0,-5.2,-2.3,-5.2,-5.2Z" class="g1_845"/>
<path d="M505.7,330.5H622.6" class="g2_845"/>
<path d="M633.1,330.5h50.7" class="g3_845"/>
<path d="M494.8,383.7V354.5M193,384.1H694.8m-501.8,0H694.8" class="g0_845"/>
</svg>