<?xml version="1.0" encoding="UTF-8" standalone="no"?>
<!DOCTYPE svg PUBLIC "-//W3C//DTD SVG 1.1//EN"
"http://www.w3.org/Graphics/SVG/1.1/DTD/svg11.dtd">
<svg viewBox="0 0 1286 909" version="1.1" xmlns="http://www.w3.org/2000/svg" xmlns:xlink="http://www.w3.org/1999/xlink">
<defs>
<style type="text/css"><![CDATA[
.g0_1127{
fill: none;
stroke: #000000;
stroke-width: 0.73;
stroke-linecap: butt;
stroke-linejoin: miter;
}
.g1_1127{
fill: #B3E9FA;
}
.g2_1127{
fill: none;
stroke: #02B5EE;
stroke-width: 1.461;
stroke-linecap: butt;
stroke-linejoin: miter;
stroke-dasharray: 2,2;
}
.g3_1127{
fill: none;
stroke: #02B5EE;
stroke-width: 0.73;
stroke-linecap: butt;
stroke-linejoin: miter;
}
.g4_1127{
fill: none;
stroke: #02B5EE;
stroke-width: 1.262;
stroke-linecap: butt;
stroke-linejoin: miter;
}
]]></style>
</defs>
<path d="M193,83.4h900.3M193,111.6h845.4m-845.4,0h845.4M476.6,141.2V112m0,59.4V141.2m0,103.3V171.4" class="g0_1127"/>
<path d="M765,206.6v-2.9c0,-2.8,2.3,-5.1,5.2,-5.1h1.5c2.9,0,5.2,2.3,5.2,5.1v2.9c0,2.9,-2.3,5.2,-5.2,5.2h-1.5c-2.9,0,-5.2,-2.3,-5.2,-5.2Z" class="g1_1127"/>
<path d="M789.2,216.4h234.6" class="g2_1127"/>
<path d="M671.9,230.6h355.6" class="g3_1127"/>
<path d="M476.6,273.7V244.5m0,58.4V273.7m0,114.2v-85" class="g0_1127"/>
<path d="M814.5,352.1h60" class="g2_1127"/>
<path d="M891.3,338.2V326c0,-2.9,2.3,-5.2,5.2,-5.2h123.2c2.9,0,5.2,2.3,5.2,5.2v12.2c0,2.8,-2.3,5.2,-5.2,5.2H896.5c-2.9,0,-5.2,-2.4,-5.2,-5.2Z" class="g1_1127"/>
<path d="M810.8,364h216.7" class="g4_1127"/>
<path d="M476.6,417.2V387.9m0,102.3v-73" class="g0_1127"/>
<path d="M490.2,454.4v-7c0,-2.9,2.3,-5.2,5.2,-5.2H771.7c2.9,0,5.2,2.3,5.2,5.2v7c0,2.9,-2.3,5.2,-5.2,5.2H495.4c-2.9,0,-5.2,-2.3,-5.2,-5.2Z" class="g1_1127"/>
<path d="M789.2,462.1h234.6" class="g2_1127"/>
<path d="M487.6,476.3h539.9" class="g3_1127"/>
<path d="M476.6,519.4V490.2m0,58.5V519.4m0,114.3v-85" class="g0_1127"/>
<path d="M779.3,591.6h95.2" class="g2_1127"/>
<path d="M891.3,583.9V571.7c0,-2.9,2.3,-5.2,5.2,-5.2h123.2c2.9,0,5.2,2.3,5.2,5.2v12.2c0,2.9,-2.3,5.2,-5.2,5.2H896.5c-2.9,0,-5.2,-2.3,-5.2,-5.2Z" class="g1_1127"/>
<path d="M775.7,609.7h251.8" class="g4_1127"/>
<path d="M476.6,662.9V633.7m0,58.4V662.9M193,692.5h845.4m-845.4,0h845.4" class="g0_1127"/>
</svg>