<?xml version="1.0" encoding="UTF-8" standalone="no"?>
<!DOCTYPE svg PUBLIC "-//W3C//DTD SVG 1.1//EN"
"http://www.w3.org/Graphics/SVG/1.1/DTD/svg11.dtd">
<svg viewBox="0 0 909 1286" version="1.1" xmlns="http://www.w3.org/2000/svg" xmlns:xlink="http://www.w3.org/1999/xlink">
<defs>
<style type="text/css"><![CDATA[
.g0_18{
fill: none;
stroke: #000000;
stroke-width: 0.73;
stroke-linecap: butt;
stroke-linejoin: miter;
}
.g1_18{
fill: none;
stroke: #FFFFFF;
stroke-width: 0.73;
stroke-linecap: butt;
stroke-linejoin: miter;
}
.g2_18{
fill: none;
stroke: #02B5EE;
stroke-width: 0.73;
stroke-linecap: butt;
stroke-linejoin: miter;
}
.g3_18{
fill: none;
stroke: #02B5EE;
stroke-width: 1.461;
stroke-linecap: butt;
stroke-linejoin: miter;
}
.g4_18{
fill: none;
stroke: #8007AC;
stroke-width: 0.73;
stroke-linecap: butt;
stroke-linejoin: miter;
}
.g5_18{
fill: none;
stroke: #FFA313;
stroke-width: 0.73;
stroke-linecap: butt;
stroke-linejoin: miter;
}
.g6_18{
fill: none;
stroke: #FFA313;
stroke-width: 1.461;
stroke-linecap: butt;
stroke-linejoin: miter;
}
.g7_18{
fill: none;
stroke: #8007AC;
stroke-width: 1.461;
stroke-linecap: butt;
stroke-linejoin: miter;
}
]]></style>
</defs>
<path d="M116.9,179.9H857.6M380.3,209.5V180.3M179.9,242.2L148.6,223.5m31.3,18.7l31.2,-18.7M236,238.3L210.8,223.4" class="g0_18"/>
<path d="M258.1,240.4h29.2m0,0h29.2" class="g1_18"/>
<path d="M380.3,273V209.5" class="g0_18"/>
<path d="M483.5,242.2L452.3,223.5m31.2,18.7l31.2,-18.7m24.9,14.8L514.4,223.4" class="g2_18"/>
<path d="M561.7,240.4h29.2m0,0h29.2" class="g1_18"/>
<path d="M380.3,302.3V273m0,58.5V302.3" class="g0_18"/>
<path d="M596.7,330c1.3,0,2,-2.7,3.4,-2.7c1,0,1.8,1.3,2.7,2.7c.9,1.4,1.8,2.8,2.8,2.8c1,0,1.8,-1.4,2.7,-2.8c.9,-1.4,1.7,-2.7,2.7,-2.7c1.4,0,2.1,2.7,3.5,2.7h4.1" class="g3_18"/>
<path d="M380.3,360.7V331.5M116.9,361.1H857.6M380.3,390.7V361.4m-214,93.9L197.5,474m0,36.7V474.1m-31.2,55.4l31.2,-18.6m-31.2,18.6L135,510.9m0,-.2V474.1m31.3,-18.8L135,474m32.4,-11l23,13.7m-23,45.1l23,-13.7M141,505.9v-27m25.3,-23.6V429.8m31.2,44.3L219.4,461m-53.1,68.5v25.6m214,27V390.7" class="g0_18"/>
<path d="M469.9,455.3L501.1,474m0,36.7V474.1m-31.2,55.4l31.2,-18.6m-31.2,18.6L438.6,510.9m0,-.2V474.1m31.3,-18.8L438.6,474M471,463l23,13.7m-23,45.1l23,-13.7m-49.3,-2.2v-27" class="g2_18"/>
<path d="M469.9,455.3V429.8m31.2,44.3L523,461m-21.9,49.7L523,523.8m-53.1,5.7v25.6" class="g1_18"/>
<path d="M469.9,455.3V429.8" class="g2_18"/>
<path d="M501.1,474.1L523,461" class="g4_18"/>
<path d="M469.9,529.5v25.6" class="g5_18"/>
<path d="M380.3,611.3V582.1m0,58.4V611.3" class="g0_18"/>
<path d="M547.8,639.1c1.4,0,2.1,-2.8,3.5,-2.8c1,0,1.8,1.4,2.7,2.8c.9,1.4,1.8,2.7,2.8,2.7c.9,0,1.8,-1.3,2.7,-2.7c.9,-1.4,1.7,-2.8,2.7,-2.8c1.4,0,2.1,2.8,3.5,2.8h3.8" class="g6_18"/>
<path d="M653.3,639.1c1.3,0,2,-2.8,3.4,-2.8c1,0,1.8,1.4,2.7,2.8c.9,1.4,1.8,2.7,2.8,2.7c1,0,1.8,-1.3,2.7,-2.7c.9,-1.4,1.8,-2.8,2.7,-2.8c1.4,0,2.1,2.8,3.5,2.8H675" class="g7_18"/>
<path d="M380.3,669.8V640.5M116.9,670.1H857.6" class="g0_18"/>
</svg>