<?xml version="1.0" encoding="UTF-8" standalone="no"?>
<!DOCTYPE svg PUBLIC "-//W3C//DTD SVG 1.1//EN"
"http://www.w3.org/Graphics/SVG/1.1/DTD/svg11.dtd">
<svg viewBox="0 0 1286 909" version="1.1" xmlns="http://www.w3.org/2000/svg" xmlns:xlink="http://www.w3.org/1999/xlink">
<defs>
<style type="text/css"><![CDATA[
.g0_747{
fill: none;
stroke: #000000;
stroke-width: 0.73;
stroke-linecap: butt;
stroke-linejoin: miter;
}
.g1_747{
fill: #FFCCCC;
}
.g2_747{
fill: none;
stroke: #F81693;
stroke-width: 1.461;
stroke-linecap: butt;
stroke-linejoin: miter;
stroke-dasharray: 2,2;
}
]]></style>
</defs>
<path d="M193,83.4h900.3M193,210.6h881.6m-881.6,0h881.6M504.3,240.2V211m0,58.5V240.2m0,62.8V269.5" class="g0_747"/>
<path d="M888.4,302.3h59.5V269.5H888.4v32.8Z" class="g1_747"/>
<path d="M962.1,302.2H1060" class="g2_747"/>
<path d="M504.3,332.2V303m0,62.1V332.2" class="g0_747"/>
<path d="M889.1,360.7h65.7" class="g2_747"/>
<path d="M964.6,365.1h99.1V332.2H964.6v32.9Z" class="g1_747"/>
<path d="M504.3,394.3V365.1m0,58.4V394.3m0,63.2v-34" class="g0_747"/>
<path d="M834.3,457.5h68.8V424.6H834.3v32.9Z" class="g1_747"/>
<path d="M917.3,451.1H1060" class="g2_747"/>
<path d="M504.3,487.6V457.5m0,63V487.6" class="g0_747"/>
<path d="M737.1,516.2H853.5" class="g2_747"/>
<path d="M863.2,520.5h200.5V487.6H863.2v32.9Z" class="g1_747"/>
<path d="M504.3,549.7V520.5m0,58.5V549.7m0,63.2V579" class="g0_747"/>
<path d="M877.3,612.9h66.6V580H877.3v32.9Z" class="g1_747"/>
<path d="M958.1,606.5H1060" class="g2_747"/>
<path d="M504.3,642.1V612.9m0,62.1V642.1" class="g0_747"/>
<path d="M855.3,670.7H921" class="g2_747"/>
<path d="M930.8,675h132.9V642.1H930.8V675Z" class="g1_747"/>
<path d="M504.3,706.3V675m0,60.6V706.3M193,735.9h881.6m-881.6,0h881.6" class="g0_747"/>
</svg>