<?xml version="1.0" encoding="UTF-8" standalone="no"?>
<!DOCTYPE svg PUBLIC "-//W3C//DTD SVG 1.1//EN"
"http://www.w3.org/Graphics/SVG/1.1/DTD/svg11.dtd">
<svg viewBox="0 0 1286 909" version="1.1" xmlns="http://www.w3.org/2000/svg" xmlns:xlink="http://www.w3.org/1999/xlink">
<defs>
<style type="text/css"><![CDATA[
.g0_417{
fill: none;
stroke: #000000;
stroke-width: 0.73;
stroke-linecap: butt;
stroke-linejoin: miter;
}
.g1_417{
fill: #B3E9FA;
}
.g2_417{
fill: none;
stroke: #02B5EE;
stroke-width: 1.262;
stroke-linecap: butt;
stroke-linejoin: miter;
}
.g3_417{
fill: none;
stroke: #5EE200;
stroke-width: 1.262;
stroke-linecap: butt;
stroke-linejoin: miter;
}
]]></style>
</defs>
<path d="M193,83.4h900.3M193,210.6H829.8m-636.8,0H829.8M520.3,240.2V211m0,58.5V240.2m0,114.3v-85" class="g0_417"/>
<path d="M553.1,304.7V292.5c0,-2.9,2.3,-5.2,5.2,-5.2h63.3c2.9,0,5.2,2.3,5.2,5.2v12.2c0,2.9,-2.3,5.2,-5.2,5.2H558.3c-2.9,0,-5.2,-2.3,-5.2,-5.2Z" class="g1_417"/>
<path d="M550.5,330.5h78.9" class="g2_417"/>
<path d="M639.9,330.5h179" class="g3_417"/>
<path d="M520.3,383.7V354.5m0,58.4V383.7m0,114.3V412.9" class="g0_417"/>
<path d="M551.3,448.2V436c0,-2.9,2.4,-5.2,5.2,-5.2h94.6c2.9,0,5.2,2.3,5.2,5.2v12.2c0,2.8,-2.3,5.2,-5.2,5.2H556.5c-2.8,0,-5.2,-2.4,-5.2,-5.2Z" class="g1_417"/>
<path d="M548.7,474H658.9" class="g2_417"/>
<path d="M669.4,474H818.9" class="g3_417"/>
<path d="M520.3,527.2V498m0,58.4V527.2m0,114.2v-85" class="g0_417"/>
<path d="M551.3,591.6V579.4c0,-2.8,2.4,-5.2,5.2,-5.2h65.1c2.9,0,5.2,2.4,5.2,5.2v12.2c0,2.9,-2.3,5.2,-5.2,5.2H556.5c-2.8,0,-5.2,-2.3,-5.2,-5.2Z" class="g1_417"/>
<path d="M548.7,617.4h80.7" class="g2_417"/>
<path d="M639.9,617.4h179" class="g3_417"/>
<path d="M520.3,670.6V641.4m0,58.5V670.6m0,58.5V699.9M193,729.5H829.8m-636.8,0H829.8" class="g0_417"/>
</svg>