<?xml version="1.0" encoding="UTF-8" standalone="no"?>
<!DOCTYPE svg PUBLIC "-//W3C//DTD SVG 1.1//EN"
"http://www.w3.org/Graphics/SVG/1.1/DTD/svg11.dtd">
<svg viewBox="0 0 1286 909" version="1.1" xmlns="http://www.w3.org/2000/svg" xmlns:xlink="http://www.w3.org/1999/xlink">
<defs>
<style type="text/css"><![CDATA[
.g0_90{
fill: none;
stroke: #000000;
stroke-width: 0.73;
stroke-linecap: butt;
stroke-linejoin: miter;
}
.g1_90{
fill: none;
stroke: #02B5EE;
stroke-width: 1.262;
stroke-linecap: butt;
stroke-linejoin: miter;
}
.g2_90{
fill: none;
stroke: #5EE200;
stroke-width: 1.262;
stroke-linecap: butt;
stroke-linejoin: miter;
}
.g3_90{
fill: none;
stroke: #5EE200;
stroke-width: 0.73;
stroke-linecap: butt;
stroke-linejoin: miter;
}
.g4_90{
fill: none;
stroke: #02B5EE;
stroke-width: 0.73;
stroke-linecap: butt;
stroke-linejoin: miter;
}
]]></style>
</defs>
<path d="M193,83.4h900.3M193,210.6H700.7m-507.7,0H700.7M406,240.2V211m0,58.5V240.2m0,60.1V269.5m0,60V300.3m0,58.4V329.5m0,60.1V358.7m0,60.1V389.6m0,58.4V418.8m0,114.3V448" class="g0_90"/>
<path d="M470.8,509.1h81.1" class="g1_90"/>
<path d="M562.4,509.1H689.8" class="g2_90"/>
<path d="M406,562.3V533.1m0,102.2v-73" class="g0_90"/>
<path d="M599.2,621.5H633" class="g3_90"/>
<path d="M639.1,621.5h50.7" class="g4_90"/>
<path d="M406,664.6V635.3M193,664.9H700.7m-507.7,0H700.7" class="g0_90"/>
</svg>