<?xml version="1.0" encoding="UTF-8" standalone="no"?>
<!DOCTYPE svg PUBLIC "-//W3C//DTD SVG 1.1//EN"
"http://www.w3.org/Graphics/SVG/1.1/DTD/svg11.dtd">
<svg viewBox="0 0 1286 909" version="1.1" xmlns="http://www.w3.org/2000/svg" xmlns:xlink="http://www.w3.org/1999/xlink">
<defs>
<style type="text/css"><![CDATA[
.g0_716{
fill: none;
stroke: #000000;
stroke-width: 0.73;
stroke-linecap: butt;
stroke-linejoin: miter;
}
.g1_716{
fill: #B3E9FA;
}
.g2_716{
fill: none;
stroke: #02B5EE;
stroke-width: 1.262;
stroke-linecap: butt;
stroke-linejoin: miter;
}
.g3_716{
fill: none;
stroke: #5EE200;
stroke-width: 1.262;
stroke-linecap: butt;
stroke-linejoin: miter;
}
]]></style>
</defs>
<path d="M193,83.4h900.3M193,111.6H926.5m-733.5,0H926.5M582.2,141.2V112m0,114.3V141.2" class="g0_716"/>
<path d="M617.5,176.5v-5c0,-2.8,2.4,-5.2,5.2,-5.2h89c2.9,0,5.2,2.4,5.2,5.2v5c0,2.9,-2.3,5.2,-5.2,5.2h-89c-2.8,0,-5.2,-2.3,-5.2,-5.2Z" class="g1_716"/>
<path d="M614.9,202.3H719.5" class="g2_716"/>
<path d="M730,202.3H915.6" class="g3_716"/>
<path d="M582.2,255.5V226.3m0,58.4V255.5m0,114.2v-85" class="g0_716"/>
<path d="M595.8,326.3V307.8c0,-2.9,2.3,-5.2,5.2,-5.2H735.4c2.8,0,5.2,2.3,5.2,5.2v18.5c0,2.8,-2.4,5.2,-5.2,5.2H601c-2.9,0,-5.2,-2.4,-5.2,-5.2Z" class="g1_716"/>
<path d="M593.2,345.7h150" class="g2_716"/>
<path d="M753.7,345.7H915.6" class="g3_716"/>
<path d="M582.2,399V369.7M193,399.3H926.5m-733.5,0H926.5" class="g0_716"/>
</svg>