<?xml version="1.0" encoding="UTF-8" standalone="no"?>
<!DOCTYPE svg PUBLIC "-//W3C//DTD SVG 1.1//EN"
"http://www.w3.org/Graphics/SVG/1.1/DTD/svg11.dtd">
<svg viewBox="0 0 1286 909" version="1.1" xmlns="http://www.w3.org/2000/svg" xmlns:xlink="http://www.w3.org/1999/xlink">
<defs>
<style type="text/css"><![CDATA[
.g0_1040{
fill: none;
stroke: #000000;
stroke-width: 0.73;
stroke-linecap: butt;
stroke-linejoin: miter;
}
.g1_1040{
fill: #E6CEEE;
}
]]></style>
</defs>
<path d="M193,83.4h900.3M193,210.6H703.3m-510.3,0H703.3m-346,29.6V211m0,58.5V240.2m0,64.1V269.5" class="g0_1040"/>
<path d="M400.2,304.3H544.5V271.4H400.2v32.9Z" class="g1_1040"/>
<path d="M357.3,333.5V304.3m0,62.1V333.5" class="g0_1040"/>
<path d="M529.4,366.4H683.9V333.5H529.4v32.9Z" class="g1_1040"/>
<path d="M357.3,395.6V366.4m0,58.4V395.6m0,64V424.8" class="g0_1040"/>
<path d="M425.1,459.6H544.5V426.8H425.1v32.8Z" class="g1_1040"/>
<path d="M357.3,488.9V459.6m0,62.1V488.9" class="g0_1040"/>
<path d="M478.7,521.7H683.9V488.9H478.7v32.8Z" class="g1_1040"/>
<path d="M357.3,551V521.7M193,551.3H703.3m-510.3,0H703.3" class="g0_1040"/>
</svg>