<?xml version="1.0" encoding="UTF-8" standalone="no"?>
<!DOCTYPE svg PUBLIC "-//W3C//DTD SVG 1.1//EN"
"http://www.w3.org/Graphics/SVG/1.1/DTD/svg11.dtd">
<svg viewBox="0 0 1286 909" version="1.1" xmlns="http://www.w3.org/2000/svg" xmlns:xlink="http://www.w3.org/1999/xlink">
<defs>
<style type="text/css"><![CDATA[
.g0_648{
fill: none;
stroke: #000000;
stroke-width: 0.73;
stroke-linecap: butt;
stroke-linejoin: miter;
}
.g1_648{
fill: none;
stroke: #02B5EE;
stroke-width: 1.262;
stroke-linecap: butt;
stroke-linejoin: miter;
}
.g2_648{
fill: none;
stroke: #02B5EE;
stroke-width: 0.73;
stroke-linecap: butt;
stroke-linejoin: miter;
}
.g3_648{
fill: #B3E9FA;
}
.g4_648{
fill: none;
stroke: #5EE200;
stroke-width: 1.262;
stroke-linecap: butt;
stroke-linejoin: miter;
}
]]></style>
</defs>
<path d="M193,83.4h900.3M193,111.6H841.5m-648.5,0H841.5M525.6,141.2V112m0,114.3V141.2" class="g0_648"/>
<path d="M649.6,202.3h84.5" class="g1_648"/>
<path d="M525.6,255.5V226.3m0,102.2v-73" class="g0_648"/>
<path d="M678.5,314.7h50.7" class="g2_648"/>
<path d="M525.6,357.8V328.5m0,58.5V357.8m0,114.2V387" class="g0_648"/>
<path d="M646.5,448H750.2" class="g1_648"/>
<path d="M525.6,501.2V472m0,58.5V501.2m0,114.3v-85" class="g0_648"/>
<path d="M612.9,572V553.5c0,-2.9,2.3,-5.2,5.2,-5.2H743.7c2.8,0,5.1,2.3,5.1,5.2V572c0,2.9,-2.3,5.2,-5.1,5.2H618.1c-2.9,0,-5.2,-2.3,-5.2,-5.2Z" class="g3_648"/>
<path d="M610.3,591.5H751.4" class="g1_648"/>
<path d="M762,591.5h68.5" class="g4_648"/>
<path d="M525.6,644.7V615.5M193,645.1H841.5m-648.5,0H841.5" class="g0_648"/>
</svg>