<?xml version="1.0" encoding="UTF-8" standalone="no"?>
<!DOCTYPE svg PUBLIC "-//W3C//DTD SVG 1.1//EN"
"http://www.w3.org/Graphics/SVG/1.1/DTD/svg11.dtd">
<svg viewBox="0 0 909 1286" version="1.1" xmlns="http://www.w3.org/2000/svg" xmlns:xlink="http://www.w3.org/1999/xlink">
<defs>
<style type="text/css"><![CDATA[
.g0_52{
fill: none;
stroke: #000000;
stroke-width: 0.73;
stroke-linecap: butt;
stroke-linejoin: miter;
}
.g1_52{
fill: #FDE8E9;
}
.g2_52{
fill: none;
stroke: #FFA313;
stroke-width: 0.73;
stroke-linecap: butt;
stroke-linejoin: miter;
}
]]></style>
</defs>
<path d="M116.9,159.9H792.5" class="g0_52"/>
<path d="M640.5,212.5h73.7V184.6H640.5v27.9Z" class="g1_52"/>
<path d="M116.9,271.4H229.2V243.6H116.9v27.8Z" class="g1_52"/>
<path d="M488.5,359.1H600.8V331.2H488.5v27.9Z" class="g1_52"/>
<path d="M638.1,418h95.4V390.1H638.1V418Z" class="g1_52"/>
<path d="M116.9,505.7H330.6V477.8H116.9v27.9Z" class="g1_52"/>
<path d="M167.6,607.9H364.3V580.1H167.6v27.8Z" class="g1_52"/>
<path d="M167.6,637.6H263V609.8H167.6v27.8Z" class="g1_52"/>
<path d="M167.6,667.3h44.7V639.4H167.6v27.9Z" class="g1_52"/>
<path d="M229.2,667.3H341.5V639.4H229.2v27.9Z" class="g1_52"/>
<path d="M116.9,738.8h61.8V715H116.9v23.8Z" class="g1_52"/>
<path d="M193.2,738.8H434.7V715H193.2v23.8Z" class="g1_52"/>
<path d="M449.1,740.8H561.4V712.9H449.1v27.9Z" class="g1_52"/>
<path d="M116.9,826.4h61V802.7h-61v23.7Z" class="g1_52"/>
<path d="M193.8,830.6H379.6V802.7H193.8v27.9Z" class="g1_52"/>
<path d="M395.4,828.5H507.7V800.6H395.4v27.9Z" class="g1_52"/>
<path d="M116.9,916.1h61.7V888.3H116.9v27.8Z" class="g1_52"/>
<path d="M348,981.9H561.5V932.6H348v49.3Z" class="g1_52"/>
<path d="M430.7,958.6H553.8" class="g2_52"/>
<path d="M116.9,1055.4h61.7v-27.8H116.9v27.8Z" class="g1_52"/>
<path d="M194.3,1055.4h78.6v-27.8H194.3v27.8Z" class="g1_52"/>
<path d="M370.4,1128.5H539v-27.9H370.4v27.9Z" class="g1_52"/>
</svg>