<?xml version="1.0" encoding="UTF-8" standalone="no"?>
<!DOCTYPE svg PUBLIC "-//W3C//DTD SVG 1.1//EN"
"http://www.w3.org/Graphics/SVG/1.1/DTD/svg11.dtd">
<svg viewBox="0 0 1286 909" version="1.1" xmlns="http://www.w3.org/2000/svg" xmlns:xlink="http://www.w3.org/1999/xlink">
<defs>
<style type="text/css"><![CDATA[
.g0_321{
fill: none;
stroke: #000000;
stroke-width: 0.73;
stroke-linecap: butt;
stroke-linejoin: miter;
}
.g1_321{
fill: #B3E9FA;
}
.g2_321{
fill: none;
stroke: #02B5EE;
stroke-width: 1.262;
stroke-linecap: butt;
stroke-linejoin: miter;
}
.g3_321{
fill: none;
stroke: #5EE200;
stroke-width: 1.262;
stroke-linecap: butt;
stroke-linejoin: miter;
}
]]></style>
</defs>
<path d="M193,83.4h900.3M193,111.6h845.5m-845.5,0h845.5M652.7,141.2V112m0,114.3V141.2" class="g0_321"/>
<path d="M666.3,176.5V164.3c0,-2.9,2.3,-5.2,5.2,-5.2H776.6c2.8,0,5.2,2.3,5.2,5.2v12.2c0,2.9,-2.4,5.2,-5.2,5.2H671.5c-2.9,0,-5.2,-2.3,-5.2,-5.2Z" class="g1_321"/>
<path d="M663.7,202.3H784.3" class="g2_321"/>
<path d="M794.9,202.3h232.6" class="g3_321"/>
<path d="M652.7,255.5V226.3M193,255.9h845.5m-845.5,0h845.5" class="g0_321"/>
</svg>