<?xml version="1.0" encoding="UTF-8" standalone="no"?>
<!DOCTYPE svg PUBLIC "-//W3C//DTD SVG 1.1//EN"
"http://www.w3.org/Graphics/SVG/1.1/DTD/svg11.dtd">
<svg viewBox="0 0 1286 909" version="1.1" xmlns="http://www.w3.org/2000/svg" xmlns:xlink="http://www.w3.org/1999/xlink">
<defs>
<style type="text/css"><![CDATA[
.g0_1086{
fill: none;
stroke: #000000;
stroke-width: 0.73;
stroke-linecap: butt;
stroke-linejoin: miter;
}
.g1_1086{
fill: #FFCCCC;
}
.g2_1086{
fill: none;
stroke: #F81693;
stroke-width: 1.461;
stroke-linecap: butt;
stroke-linejoin: miter;
stroke-dasharray: 2,2;
}
.g3_1086{
fill: #E6CEEE;
}
.g4_1086{
fill: #F81693;
}
.g5_1086{
fill: #FFE6E6;
}
]]></style>
</defs>
<path d="M193,83.4h900.3M193,210.6H988.6m-795.6,0H988.6M455.7,240.2V211m0,58.5V240.2m0,66.7V269.5" class="g0_1086"/>
<path d="M734.5,305.6h68.8V272.7H734.5v32.9Z" class="g1_1086"/>
<path d="M817.5,306.2H974" class="g2_1086"/>
<path d="M455.7,336.1V306.9m0,62.1V336.1" class="g0_1086"/>
<path d="M862.2,364.6h15.1" class="g2_1086"/>
<path d="M887,369h90.7V336.1H887V369Z" class="g1_1086"/>
<path d="M455.7,400.3V369m0,60.6V400.3m0,58.5V429.6m0,63.1V458.8" class="g0_1086"/>
<path d="M826.9,492.7h56.8V459.9H826.9v32.8Z" class="g1_1086"/>
<path d="M897.9,486.3H974" class="g2_1086"/>
<path d="M455.7,522V492.7m0,60.6V522m0,60.5V553.3m0,58.4V582.5m0,77.3V611.7" class="g0_1086"/>
<path d="M730.6,655.9h71.7V623.1H730.6v32.8Z" class="g3_1086"/>
<path d="M812.9,652V619.5c0,-4.3,3.4,-7.8,7.8,-7.8h63.2c4.3,0,7.7,3.5,7.7,7.8V652c0,4.3,-3.4,7.8,-7.7,7.8H820.7c-4.4,0,-7.8,-3.5,-7.8,-7.8Z" class="g4_1086"/>
<path d="M815.5,652V619.5c0,-2.8,2.3,-5.2,5.2,-5.2h63.2c2.8,0,5.1,2.4,5.1,5.2V652c0,2.9,-2.3,5.2,-5.1,5.2H820.7c-2.9,0,-5.2,-2.3,-5.2,-5.2Z" class="g5_1086"/>
<path d="M902.2,655.9h75.5V623.1H902.2v32.8Z" class="g3_1086"/>
<path d="M455.7,689V659.8m0,72.1V689" class="g0_1086"/>
<path d="M785.6,726h27.8V693.1H785.6V726Z" class="g3_1086"/>
<path d="M813.4,724.1V696.8c0,-4.3,3.5,-7.8,7.8,-7.8h27.3c4.3,0,7.8,3.5,7.8,7.8v27.3c0,4.3,-3.5,7.8,-7.8,7.8H821.2c-4.3,0,-7.8,-3.5,-7.8,-7.8Z" class="g4_1086"/>
<path d="M816,724.1V696.8c0,-2.9,2.4,-5.2,5.2,-5.2h27.3c2.9,0,5.2,2.3,5.2,5.2v27.3c0,2.9,-2.3,5.2,-5.2,5.2H821.2c-2.8,0,-5.2,-2.3,-5.2,-5.2Z" class="g5_1086"/>
<path d="M856.3,726h78.5V693.1H856.3V726Z" class="g3_1086"/>
<path d="M934.8,724.1V696.8c0,-4.3,3.5,-7.8,7.8,-7.8h27.3c4.3,0,7.8,3.5,7.8,7.8v27.3c0,4.3,-3.5,7.8,-7.8,7.8H942.6c-4.3,0,-7.8,-3.5,-7.8,-7.8Z" class="g4_1086"/>
<path d="M937.4,724.1V696.8c0,-2.9,2.3,-5.2,5.2,-5.2h27.3c2.9,0,5.2,2.3,5.2,5.2v27.3c0,2.9,-2.3,5.2,-5.2,5.2H942.6c-2.9,0,-5.2,-2.3,-5.2,-5.2Z" class="g5_1086"/>
<path d="M455.7,761.1V731.9M193,761.5H988.6m-795.6,0H988.6" class="g0_1086"/>
</svg>