<?xml version="1.0" encoding="UTF-8" standalone="no"?>
<!DOCTYPE svg PUBLIC "-//W3C//DTD SVG 1.1//EN"
"http://www.w3.org/Graphics/SVG/1.1/DTD/svg11.dtd">
<svg viewBox="0 0 1286 909" version="1.1" xmlns="http://www.w3.org/2000/svg" xmlns:xlink="http://www.w3.org/1999/xlink">
<defs>
<style type="text/css"><![CDATA[
.g0_436{
fill: none;
stroke: #000000;
stroke-width: 0.73;
stroke-linecap: butt;
stroke-linejoin: miter;
}
.g1_436{
fill: #B3E9FA;
}
.g2_436{
fill: none;
stroke: #02B5EE;
stroke-width: 1.262;
stroke-linecap: butt;
stroke-linejoin: miter;
}
.g3_436{
fill: none;
stroke: #5EE200;
stroke-width: 1.262;
stroke-linecap: butt;
stroke-linejoin: miter;
}
.g4_436{
fill: none;
stroke: #02B5EE;
stroke-width: 0.73;
stroke-linecap: butt;
stroke-linejoin: miter;
}
]]></style>
</defs>
<path d="M193,83.4h900.3M193,210.6H733.6m-540.6,0H733.6M474.5,240.2V211m0,58.5V240.2m0,114.3v-85" class="g0_436"/>
<path d="M508.8,311V292.5c0,-2.9,2.3,-5.2,5.2,-5.2h90.5c2.8,0,5.2,2.3,5.2,5.2V311c0,2.9,-2.4,5.2,-5.2,5.2H514c-2.9,0,-5.2,-2.3,-5.2,-5.2Z" class="g1_436"/>
<path d="M506.2,330.5H612.3" class="g2_436"/>
<path d="M622.8,330.5h99.8" class="g3_436"/>
<path d="M474.5,383.7V354.5m0,58.4V383.7m0,114.3V412.9" class="g0_436"/>
<path d="M527.7,474H577" class="g2_436"/>
<path d="M474.5,527.2V498m0,102.2v-73" class="g0_436"/>
<path d="M655,586.4h67.6" class="g4_436"/>
<path d="M474.5,629.5V600.2M193,629.8H733.6m-540.6,0H733.6" class="g0_436"/>
</svg>