<?xml version="1.0" encoding="UTF-8" standalone="no"?>
<!DOCTYPE svg PUBLIC "-//W3C//DTD SVG 1.1//EN"
"http://www.w3.org/Graphics/SVG/1.1/DTD/svg11.dtd">
<svg viewBox="0 0 1286 909" version="1.1" xmlns="http://www.w3.org/2000/svg" xmlns:xlink="http://www.w3.org/1999/xlink">
<defs>
<style type="text/css"><![CDATA[
.g0_346{
fill: none;
stroke: #000000;
stroke-width: 0.73;
stroke-linecap: butt;
stroke-linejoin: miter;
}
.g1_346{
fill: none;
stroke: #02B5EE;
stroke-width: 1.262;
stroke-linecap: butt;
stroke-linejoin: miter;
}
.g2_346{
fill: none;
stroke: #5EE200;
stroke-width: 1.262;
stroke-linecap: butt;
stroke-linejoin: miter;
}
.g3_346{
fill: none;
stroke: #5EE200;
stroke-width: 0.73;
stroke-linecap: butt;
stroke-linejoin: miter;
}
.g4_346{
fill: none;
stroke: #02B5EE;
stroke-width: 0.73;
stroke-linecap: butt;
stroke-linejoin: miter;
}
]]></style>
</defs>
<path d="M193,83.4h900.3M193,210.6H896.8m-703.8,0H896.8M528.6,240.2V211m0,58.5V240.2m0,114.3v-85" class="g0_346"/>
<path d="M699.1,330.5H852.9" class="g1_346"/>
<path d="M863.4,330.5h22.4" class="g2_346"/>
<path d="M528.6,383.7V354.5m0,102.3V383.7" class="g0_346"/>
<path d="M710.2,442.9h34.4" class="g3_346"/>
<path d="M750.7,442.9H885.8" class="g4_346"/>
<path d="M528.6,488.1V456.8m0,60.5V488.1m0,58.4V517.3m0,58.5V546.5m0,114.3v-85" class="g0_346"/>
<path d="M688,636.8H852.9" class="g1_346"/>
<path d="M863.4,636.8h22.4" class="g2_346"/>
<path d="M528.6,690V660.8m0,58.4V690M193,719.6H896.8m-703.8,0H896.8" class="g0_346"/>
</svg>