<?xml version="1.0" encoding="UTF-8" standalone="no"?>
<!DOCTYPE svg PUBLIC "-//W3C//DTD SVG 1.1//EN"
"http://www.w3.org/Graphics/SVG/1.1/DTD/svg11.dtd">
<svg viewBox="0 0 909 1286" version="1.1" xmlns="http://www.w3.org/2000/svg" xmlns:xlink="http://www.w3.org/1999/xlink">
<defs>
<style type="text/css"><![CDATA[
.g0_22{
fill: none;
stroke: #000000;
stroke-width: 0.73;
stroke-linecap: butt;
stroke-linejoin: miter;
}
.g1_22{
fill: none;
stroke: #02B5EE;
stroke-width: 0.73;
stroke-linecap: butt;
stroke-linejoin: miter;
}
.g2_22{
fill: none;
stroke: #F81693;
stroke-width: 0.73;
stroke-linecap: butt;
stroke-linejoin: miter;
}
.g3_22{
fill: none;
stroke: #8007AC;
stroke-width: 0.73;
stroke-linecap: butt;
stroke-linejoin: miter;
}
.g4_22{
fill: none;
stroke: #5EE200;
stroke-width: 0.73;
stroke-linecap: butt;
stroke-linejoin: miter;
}
.g5_22{
fill: none;
stroke: #02B5EE;
stroke-width: 1.461;
stroke-linecap: butt;
stroke-linejoin: miter;
}
.g6_22{
fill: none;
stroke: #5EE200;
stroke-width: 1.461;
stroke-linecap: butt;
stroke-linejoin: miter;
}
.g7_22{
fill: none;
stroke: #8007AC;
stroke-width: 1.461;
stroke-linecap: butt;
stroke-linejoin: miter;
}
]]></style>
</defs>
<path d="M116.9,179.9H855.5M444.3,209.5V180.3M216.5,260.4l31.2,18.7m0,36.7V279.3m-31.2,55.3L247.7,316m-31.2,18.6L185.3,316m0,-.2V279.3m31.2,-18.9l-31.2,18.7m32.3,-11l23,13.7m-23,45.1l23,-13.7M191.3,311V284M279,260.4l31.2,18.7M279,260.4l-31.3,18.7M279,260.4V234.9m31.2,44.4l21.9,-13.2M216.5,334.6v25.6M185.3,315.8l-22,13.1m281,53.7V209.5" class="g0_22"/>
<path d="M584,260.4l31.3,18.7m0,36.7V279.3M584,334.6L615.3,316M584,334.6L552.8,316m0,-.2V279.3M584,260.4l-31.2,18.7m32.3,-11l23,13.7m-23,45.1l23,-13.7M558.8,311V284" class="g1_22"/>
<path d="M652.9,264.3l18.3,10.9" class="g2_22"/>
<path d="M640.1,264.3l-24.8,14.8" class="g1_22"/>
<path d="M646.5,255V234.9" class="g2_22"/>
<path d="M683.2,274.9l18.3,-11" class="g3_22"/>
<path d="M584,334.6v25.6M552.8,315.8l-21.9,13.1" class="g4_22"/>
<path d="M444.3,411.9V382.6m0,58.5V411.9m0,58.4V441.1m0,58.4V470.3m0,58.5V499.5" class="g0_22"/>
<path d="M510.2,527.3c1.3,0,2,-2.7,3.4,-2.7c1,0,1.8,1.3,2.7,2.7c.9,1.4,1.8,2.7,2.8,2.7c1,0,1.8,-1.3,2.7,-2.7c.9,-1.4,1.8,-2.7,2.8,-2.7c1.3,0,2,2.7,3.4,2.7h3.9" class="g5_22"/>
<path d="M540.1,529.9c1.4,0,2.1,-2.7,3.4,-2.7c1,0,1.9,1.3,2.8,2.7c.9,1.4,1.7,2.8,2.7,2.8c1,0,1.8,-1.4,2.7,-2.8c.9,-1.4,1.8,-2.7,2.8,-2.7c1,0,1.8,1.3,2.7,2.7c.9,1.4,1.8,2.8,2.8,2.8c1,0,1.8,-1.4,2.7,-2.8c.9,-1.4,1.7,-2.7,2.7,-2.7c1,0,1.9,1.3,2.8,2.7c.9,1.4,1.7,2.8,2.7,2.8c1,0,1.9,-1.4,2.8,-2.8c.9,-1.4,1.7,-2.7,2.7,-2.7c1,0,1.8,1.3,2.7,2.7c.9,1.4,1.8,2.8,2.8,2.8c1,0,1.8,-1.4,2.7,-2.8c.9,-1.4,1.8,-2.7,2.8,-2.7c1,0,1.8,1.3,2.7,2.7c.9,1.4,1.7,2.8,2.7,2.8c1,0,1.9,-1.4,2.8,-2.8c.9,-1.4,1.7,-2.7,2.7,-2.7c1.4,0,2.1,2.7,3.4,2.7h1.1" class="g6_22"/>
<path d="M444.3,558V528.8" class="g0_22"/>
<path d="M628.4,556.5c1.4,0,2,-2.7,3.4,-2.7c1,0,1.9,1.3,2.8,2.7c.8,1.4,1.7,2.8,2.7,2.8c1,0,1.8,-1.4,2.7,-2.8c.9,-1.4,1.8,-2.7,2.8,-2.7c1.3,0,2,2.7,3.4,2.7h3.9" class="g7_22"/>
<path d="M444.3,587.2V558M116.9,587.6H855.5M444.3,617.2V587.9M248.5,631.6l31.2,18.6m0,36.7V650.4m-31.2,55.4l31.2,-18.7m-31.2,18.7L217.2,687.1m0,-.2V650.4m31.3,-18.8l-31.3,18.6m32.3,-10.9L272.6,653m-23.1,45.1l23.1,-13.7m-49.4,-2.2v-27m94.1,-19.8l18.3,11m-31.1,-11l-24.8,14.8M347.6,646l18.3,-10.9M217.2,686.9l-21.9,13.2m249,26.3V617.2" class="g0_22"/>
<path d="M616,631.6l31.2,18.6m0,36.7V650.4M616,705.8l31.2,-18.7M616,705.8L584.8,687.1m0,-.2V650.4M616,631.6l-31.2,18.6m32.3,-10.9l23,13.7m-23,45.1l23,-13.7m-49.3,-2.2v-27" class="g1_22"/>
<path d="M684.9,635.4l18.2,11" class="g2_22"/>
<path d="M672.1,635.4l-24.9,14.8" class="g1_22"/>
<path d="M715.2,646l18.3,-10.9" class="g2_22"/>
<path d="M584.8,686.9l-22,13.2" class="g4_22"/>
<path d="M444.3,755.6V726.4m0,58.4V755.6m0,58.5V784.8m0,58.5V814.1m0,58.4V843.3" class="g0_22"/>
<path d="M510.2,871c1.3,0,2,-2.7,3.4,-2.7c1,0,1.8,1.3,2.7,2.7c.9,1.5,1.8,2.8,2.8,2.8c1,0,1.8,-1.3,2.7,-2.8c.9,-1.4,1.8,-2.7,2.8,-2.7c1.3,0,2,2.7,3.4,2.7h3.9" class="g5_22"/>
<path d="M540.1,871c1.4,0,2.1,-2.7,3.4,-2.7c1,0,1.9,1.3,2.8,2.7c.9,1.5,1.7,2.8,2.7,2.8c1,0,1.8,-1.3,2.7,-2.8c.9,-1.4,1.8,-2.7,2.8,-2.7c1.4,0,2,2.7,3.4,2.7h3.9" class="g6_22"/>
<path d="M444.3,901.7V872.5m0,58.5V901.7M116.9,931.3H855.5" class="g0_22"/>
</svg>