<?xml version="1.0" encoding="UTF-8" standalone="no"?>
<!DOCTYPE svg PUBLIC "-//W3C//DTD SVG 1.1//EN"
"http://www.w3.org/Graphics/SVG/1.1/DTD/svg11.dtd">
<svg viewBox="0 0 1286 909" version="1.1" xmlns="http://www.w3.org/2000/svg" xmlns:xlink="http://www.w3.org/1999/xlink">
<defs>
<style type="text/css"><![CDATA[
.g0_422{
fill: none;
stroke: #000000;
stroke-width: 0.73;
stroke-linecap: butt;
stroke-linejoin: miter;
}
.g1_422{
fill: none;
stroke: #02B5EE;
stroke-width: 1.262;
stroke-linecap: butt;
stroke-linejoin: miter;
}
.g2_422{
fill: none;
stroke: #5EE200;
stroke-width: 1.262;
stroke-linecap: butt;
stroke-linejoin: miter;
}
.g3_422{
fill: #FFCCCC;
}
.g4_422{
fill: none;
stroke: #5EE200;
stroke-width: 0.73;
stroke-linecap: butt;
stroke-linejoin: miter;
}
.g5_422{
fill: none;
stroke: #02B5EE;
stroke-width: 0.73;
stroke-linecap: butt;
stroke-linejoin: miter;
}
]]></style>
</defs>
<path d="M193,83.4h900.3M193,111.6H982.3m-789.3,0H982.3M629.8,141.2V112m0,114.3V141.2" class="g0_422"/>
<path d="M704.9,202.3h78.2" class="g1_422"/>
<path d="M793.6,202.3H816" class="g2_422"/>
<path d="M837,190.6H971.3V157.7H837v32.9Z" class="g3_422"/>
<path d="M629.8,255.5V226.3m0,102.2v-73" class="g0_422"/>
<path d="M694.2,304.8H852.4V271.9H694.2v32.9Z" class="g3_422"/>
<path d="M852.4,314.7h34.5" class="g4_422"/>
<path d="M886.9,314.7h84.4" class="g5_422"/>
<path d="M629.8,357.8V328.5m0,58.5V357.8m0,59.4V387m0,59.4V417.2M193,446.8H982.3m-789.3,0H982.3" class="g0_422"/>
</svg>