<?xml version="1.0" encoding="UTF-8" standalone="no"?>
<!DOCTYPE svg PUBLIC "-//W3C//DTD SVG 1.1//EN"
"http://www.w3.org/Graphics/SVG/1.1/DTD/svg11.dtd">
<svg viewBox="0 0 909 1286" version="1.1" xmlns="http://www.w3.org/2000/svg" xmlns:xlink="http://www.w3.org/1999/xlink">
<defs>
<clipPath id="c0_50"><path d="M119.5,282.8V249.3H789.9v33.5Z"/></clipPath>
<clipPath id="c1_50"><path d="M119.5,639.5V606H789.9v33.5Z"/></clipPath>
<style type="text/css"><![CDATA[
.g0_50{
fill: none;
stroke: #000000;
stroke-width: 0.73;
stroke-linecap: butt;
stroke-linejoin: miter;
}
.g1_50{
fill: #7F7F7F;
fill-opacity: 0.01;
}
.g2_50{
fill: #7F7F7F;
fill-opacity: 0.02;
}
.g3_50{
fill: #7F7F7F;
fill-opacity: 0.04;
}
.g4_50{
fill: #7F7F7F;
fill-opacity: 0.07;
}
.g5_50{
fill: #7F7F7F;
fill-opacity: 0.11;
}
.g6_50{
fill: #FFFFFF;
}
.g7_50{
fill: #7F7F7F;
}
.g8_50{
fill: #00AEEF;
}
.g9_50{
fill: #CBCEFB;
}
.ga_50{
fill: #EC008C;
}
.gb_50{
fill: #FFFEF5;
}
.gc_50{
fill: none;
stroke: #D6C944;
stroke-width: 0.365;
stroke-linecap: butt;
stroke-linejoin: miter;
}
]]></style>
</defs>
<path d="M116.9,159.9H792.5" class="g0_50"/>
<path d="M122.2,252c221.7,0,443.4,0,665,0V599.1c-221.6,-9.4,-443.3,-9.4,-665,0Z" class="g1_50"/>
<path d="M122.9,252.6c221.2,0,442.4,0,663.7,0V598.4c-221.3,-9.3,-442.5,-9.3,-663.7,0Z" class="g2_50"/>
<path d="M123.5,253.2c220.8,0,441.6,0,662.5,0V597.8c-220.9,-9.3,-441.7,-9.3,-662.5,0Z" class="g3_50"/>
<path d="M124.1,253.8c220.4,0,440.8,0,661.2,0V597.2c-220.4,-9.4,-440.8,-9.4,-661.2,0Z" class="g4_50"/>
<path d="M124.7,254.5c220,0,440,0,660,0V596.6c-220,-9.4,-440,-9.4,-660,0Z" class="g5_50"/>
<path d="M125.4,255.1c219.5,0,439.1,0,658.7,0V595.9c-219.6,-9.3,-439.2,-9.3,-658.7,0Z" class="g5_50"/>
<path d="M126,255.7c219.1,0,438.3,0,657.5,0V595.3C564.3,586,345.1,586,126,595.3Z" class="g4_50"/>
<path d="M126.6,256.3c218.8,0,437.5,0,656.3,0V594.7c-218.8,-9.4,-437.5,-9.4,-656.3,0Z" class="g3_50"/>
<path d="M127.2,257c218.4,0,436.7,0,655,0V594.1c-218.3,-9.4,-436.6,-9.4,-655,0Z" class="g2_50"/>
<path d="M127.9,257.6c217.9,0,435.8,0,653.7,0V593.4c-217.9,-9.3,-435.8,-9.3,-653.7,0Z" class="g1_50"/>
<path d="M116.9,588.8V246.7H792.5V588.8Z" class="g6_50"/>
<path d="M119.5,586.2V285.4H789.9V586.2Z" class="g6_50"/>
<path d="M119.5,282.8V249.3H789.9v33.5Z" class="g7_50"/>
<g clip-path="url(#c0_50)">
<image x="119" y="248" width="672" height="35" xlink:href="shade/1.png"/>
</g>
<path d="M659.9,277.6h104V254.5h-104v23.1Z" class="g8_50"/>
<path d="M356.9,330.6H552.6M357.2,360.2V330.9" class="g0_50"/>
<path d="M357.6,360.2h89V330.9h-89v29.3Z" class="g9_50"/>
<path d="M447,360.2V330.9" class="g0_50"/>
<path d="M447.3,360.2H551.9V330.9H447.3v29.3Z" class="g9_50"/>
<path d="M552.2,360.2V330.9M356.9,360.5H552.6M357.2,390.1V360.9M447,390.1V360.9m105.2,29.2V360.9M356.9,390.5H552.6M357.2,420.1V390.8M447,420.1V390.8m105.2,29.3V390.8M356.9,420.4H552.6M357.2,450V420.8M447,450V420.8M552.2,450V420.8M356.9,450.4H552.6M357.2,480V450.8M447,480V450.8M552.2,480V450.8M356.9,480.3H552.6M357.2,509.9V480.7M447,509.9V480.7m105.2,29.2V480.7M356.9,510.3H552.6M357.2,539.9V510.7M447,539.9V510.7m105.2,29.2V510.7M356.9,540.3H552.6M357.2,569.8V540.6M447,569.8V540.6m105.2,29.2V540.6M356.9,570.2H552.6" class="g0_50"/>
<path d="M122.2,608.7c221.7,0,443.4,0,665,0V866.6c-221.6,-9.3,-443.3,-9.3,-665,0Z" class="g1_50"/>
<path d="M122.9,609.3c221.2,0,442.4,0,663.7,0V866c-221.3,-9.4,-442.5,-9.4,-663.7,0Z" class="g2_50"/>
<path d="M123.5,609.9c220.8,0,441.6,0,662.5,0V865.4C565.1,856,344.3,856,123.5,865.4Z" class="g3_50"/>
<path d="M124.1,610.5c220.4,0,440.8,0,661.2,0V864.8c-220.4,-9.4,-440.8,-9.4,-661.2,0Z" class="g4_50"/>
<path d="M124.7,611.2c220,0,440,0,660,0V864.1c-220,-9.3,-440,-9.3,-660,0Z" class="g5_50"/>
<path d="M125.4,611.8c219.5,0,439.1,0,658.7,0V863.5c-219.6,-9.3,-439.2,-9.3,-658.7,0Z" class="g5_50"/>
<path d="M126,612.4c219.1,0,438.3,0,657.5,0V862.9c-219.2,-9.4,-438.4,-9.4,-657.5,0Z" class="g4_50"/>
<path d="M126.6,613c218.8,0,437.5,0,656.3,0V862.3c-218.8,-9.4,-437.5,-9.4,-656.3,0Z" class="g3_50"/>
<path d="M127.2,613.7c218.4,0,436.7,0,655,0V861.6c-218.3,-9.3,-436.6,-9.3,-655,0Z" class="g2_50"/>
<path d="M127.9,614.3c217.9,0,435.8,0,653.7,0V861c-217.9,-9.3,-435.8,-9.3,-653.7,0Z" class="g1_50"/>
<path d="M116.9,856.3V603.4H792.5V856.3Z" class="g6_50"/>
<path d="M119.5,853.7V642.1H789.9V853.7Z" class="g6_50"/>
<path d="M119.5,639.5V606H789.9v33.5Z" class="g7_50"/>
<g clip-path="url(#c1_50)">
<image x="119" y="605" width="672" height="34" xlink:href="shade/2.png"/>
</g>
<path d="M675.7,634.3h88.2V611.2H675.7v23.1Z" class="ga_50"/>
<path d="M281.9,658.1H627.5M282.3,687.6V658.4" class="g0_50"/>
<path d="M282.7,687.6h55.7V658.4H282.7v29.2Z" class="g9_50"/>
<path d="M338.7,687.6V658.4" class="g0_50"/>
<path d="M339.1,687.6h89V658.4h-89v29.2Z" class="g9_50"/>
<path d="M428.5,687.6V658.4" class="g0_50"/>
<path d="M428.8,687.6h98.6V658.4H428.8v29.2Z" class="g9_50"/>
<path d="M527.8,687.6V658.4" class="g0_50"/>
<path d="M528.2,687.6h98.6V658.4H528.2v29.2Z" class="g9_50"/>
<path d="M627.2,687.6V658.4M281.9,688H627.5M282.3,717.6V688.4m56.4,29.2V688.4m89.8,29.2V688.4m99.3,29.2V688.4m99.4,29.2V688.4M281.9,718H627.5M282.3,747.6V718.3m56.4,29.3V718.3m89.8,29.3V718.3m99.3,29.3V718.3m99.4,29.3V718.3M281.9,747.9H627.5M282.3,777.5V748.3m56.4,29.2V748.3m89.8,29.2V748.3m99.3,29.2V748.3m99.4,29.2V748.3M281.9,777.9H627.5M282.3,807.5V778.2m56.4,29.3V778.2m89.8,29.3V778.2m99.3,29.3V778.2m99.4,29.3V778.2M281.9,807.8H627.5M282.3,837.4V808.2m56.4,29.2V808.2m89.8,29.2V808.2m99.3,29.2V808.2m99.4,29.2V808.2M281.9,837.8H627.5" class="g0_50"/>
<path d="M-2.9,1009.5V944H912.4v65.5Z" class="g6_50"/>
<path d="M-.3,1006.9V946.6H909.8v60.3Z" class="gb_50"/>
<path d="M-.3,998.6H909.8M-.3,972.6H909.8M-.3,946.6H909.8M-.3,1006.9V946.6m25.9,60.3V946.6m26,60.3V946.6m26,60.3V946.6m26,60.3V946.6m26,60.3V946.6m25.9,60.3V946.6m26,60.3V946.6m26,60.3V946.6m26,60.3V946.6m26,60.3V946.6m26,60.3V946.6m25.9,60.3V946.6m26,60.3V946.6m26,60.3V946.6m26,60.3V946.6m26,60.3V946.6m26,60.3V946.6m26,60.3V946.6m25.9,60.3V946.6m26,60.3V946.6m26,60.3V946.6m26,60.3V946.6m26,60.3V946.6m26,60.3V946.6m25.9,60.3V946.6m26,60.3V946.6m26,60.3V946.6m26,60.3V946.6m26,60.3V946.6m26,60.3V946.6m25.9,60.3V946.6m26,60.3V946.6m26,60.3V946.6m26,60.3V946.6m26,60.3V946.6" class="gc_50"/>
</svg>