<?xml version="1.0" encoding="UTF-8" standalone="no"?>
<!DOCTYPE svg PUBLIC "-//W3C//DTD SVG 1.1//EN"
"http://www.w3.org/Graphics/SVG/1.1/DTD/svg11.dtd">
<svg viewBox="0 0 1286 909" version="1.1" xmlns="http://www.w3.org/2000/svg" xmlns:xlink="http://www.w3.org/1999/xlink">
<defs>
<style type="text/css"><![CDATA[
.g0_455{
fill: none;
stroke: #000000;
stroke-width: 0.73;
stroke-linecap: butt;
stroke-linejoin: miter;
}
.g1_455{
fill: none;
stroke: #02B5EE;
stroke-width: 1.262;
stroke-linecap: butt;
stroke-linejoin: miter;
}
.g2_455{
fill: #FFCCCC;
}
.g3_455{
fill: none;
stroke: #5EE200;
stroke-width: 0.73;
stroke-linecap: butt;
stroke-linejoin: miter;
}
.g4_455{
fill: none;
stroke: #02B5EE;
stroke-width: 0.73;
stroke-linecap: butt;
stroke-linejoin: miter;
}
.g5_455{
fill: none;
stroke: #5EE200;
stroke-width: 1.262;
stroke-linecap: butt;
stroke-linejoin: miter;
}
.g6_455{
fill: none;
stroke: #FFA313;
stroke-width: 1.262;
stroke-linecap: butt;
stroke-linejoin: miter;
}
.g7_455{
fill: none;
stroke: #FFA313;
stroke-width: 0.73;
stroke-linecap: butt;
stroke-linejoin: miter;
}
]]></style>
</defs>
<path d="M193,83.4h900.3M193,210.6h975.9m-975.9,0h975.9M600.7,240.2V211m0,58.5V240.2m0,114.3v-85" class="g0_455"/>
<path d="M890.8,330.5h75.8" class="g1_455"/>
<path d="M987.6,318.8h93.8V285.9H987.6v32.9Z" class="g2_455"/>
<path d="M600.7,383.7V354.5m0,102.3V383.7" class="g0_455"/>
<path d="M992.4,442.9h34.3" class="g3_455"/>
<path d="M1032.8,433h91.3V400.1h-91.3V433Z" class="g2_455"/>
<path d="M1124.1,442.9h33.8" class="g4_455"/>
<path d="M600.7,486V456.8m0,58.4V486m0,116.1V515.2" class="g0_455"/>
<path d="M880.6,576.2h75.8" class="g1_455"/>
<path d="M975.1,576.2h18.2" class="g5_455"/>
<path d="M1012,576.2h22.4" class="g6_455"/>
<path d="M1044.9,576.2h113" class="g5_455"/>
<path d="M600.7,631.3V602.1m0,103.3V631.3" class="g0_455"/>
<path d="M935.8,690.5h137" class="g3_455"/>
<path d="M1072.8,690.5h51.3" class="g7_455"/>
<path d="M1124.1,690.5h33.8" class="g4_455"/>
<path d="M600.7,734.6V705.4M193,735h975.9M193,735h975.9" class="g0_455"/>
</svg>