<?xml version="1.0" encoding="UTF-8" standalone="no"?>
<!DOCTYPE svg PUBLIC "-//W3C//DTD SVG 1.1//EN"
"http://www.w3.org/Graphics/SVG/1.1/DTD/svg11.dtd">
<svg viewBox="0 0 909 1286" version="1.1" xmlns="http://www.w3.org/2000/svg" xmlns:xlink="http://www.w3.org/1999/xlink">
<defs>
<clipPath id="c0_124"><path d="M119.5,282.8V249.3H789.9v33.5Z"/></clipPath>
<clipPath id="c1_124"><path d="M119.5,853.4V819.9H789.9v33.5Z"/></clipPath>
<style type="text/css"><![CDATA[
.g0_124{
fill: none;
stroke: #000000;
stroke-width: 0.73;
stroke-linecap: butt;
stroke-linejoin: miter;
}
.g1_124{
fill: #7F7F7F;
fill-opacity: 0.01;
}
.g2_124{
fill: #7F7F7F;
fill-opacity: 0.02;
}
.g3_124{
fill: #7F7F7F;
fill-opacity: 0.04;
}
.g4_124{
fill: #7F7F7F;
fill-opacity: 0.07;
}
.g5_124{
fill: #7F7F7F;
fill-opacity: 0.11;
}
.g6_124{
fill: #FFFFFF;
}
.g7_124{
fill: #7F7F7F;
}
.g8_124{
fill: #00AEEF;
}
.g9_124{
fill: #CBCEFB;
}
.ga_124{
fill: #EC008C;
}
]]></style>
</defs>
<path d="M116.9,159.9H792.5" class="g0_124"/>
<path d="M122.2,252c221.7,0,443.4,0,665,0V812.9c-221.6,-9.3,-443.3,-9.3,-665,0Z" class="g1_124"/>
<path d="M122.9,252.6c221.2,0,442.4,0,663.7,0V812.3C565.3,803,344.1,803,122.9,812.3Z" class="g2_124"/>
<path d="M123.5,253.2c220.8,0,441.6,0,662.5,0V811.7c-220.9,-9.4,-441.7,-9.4,-662.5,0Z" class="g3_124"/>
<path d="M124.1,253.8c220.4,0,440.8,0,661.2,0V811.1c-220.4,-9.4,-440.8,-9.4,-661.2,0Z" class="g4_124"/>
<path d="M124.7,254.5c220,0,440,0,660,0V810.4c-220,-9.3,-440,-9.3,-660,0Z" class="g5_124"/>
<path d="M125.4,255.1c219.5,0,439.1,0,658.7,0V809.8c-219.6,-9.3,-439.2,-9.3,-658.7,0Z" class="g5_124"/>
<path d="M126,255.7c219.1,0,438.3,0,657.5,0V809.2c-219.2,-9.4,-438.4,-9.4,-657.5,0Z" class="g4_124"/>
<path d="M126.6,256.3c218.8,0,437.5,0,656.3,0V808.6c-218.8,-9.4,-437.5,-9.4,-656.3,0Z" class="g3_124"/>
<path d="M127.2,257c218.4,0,436.7,0,655,0V807.9c-218.3,-9.3,-436.6,-9.3,-655,0Z" class="g2_124"/>
<path d="M127.9,257.6c217.9,0,435.8,0,653.7,0V807.3C563.7,798,345.8,798,127.9,807.3Z" class="g1_124"/>
<path d="M116.9,802.6V246.7H792.5V802.6Z" class="g6_124"/>
<path d="M119.5,800V285.4H789.9V800Z" class="g6_124"/>
<path d="M119.5,282.8V249.3H789.9v33.5Z" class="g7_124"/>
<g clip-path="url(#c0_124)">
<image x="119" y="248" width="672" height="35" xlink:href="shade/1.png"/>
</g>
<path d="M659.9,277.6h104V254.5h-104v23.1Z" class="g8_124"/>
<path d="M259.5,334.8H650M259.8,364.4V335.1" class="g0_124"/>
<path d="M260.2,364.4H378V335.1H260.2v29.3Z" class="g9_124"/>
<path d="M378.4,364.4V335.1" class="g0_124"/>
<path d="M378.7,364.4H525.3V335.1H378.7v29.3Z" class="g9_124"/>
<path d="M525.6,364.4V335.1" class="g0_124"/>
<path d="M526,364.4H649.2V335.1H526v29.3Z" class="g9_124"/>
<path d="M649.6,364.4V335.1M259.5,364.7H650M259.8,394.3V365.1m118.6,29.2V365.1m147.2,29.2V365.1m124,29.2V365.1M259.5,394.7H650M259.8,424.3V395m118.6,29.3V395m147.2,29.3V395m124,29.3V395M259.5,424.6H650M259.8,454.2V425m118.6,29.2V425m147.2,29.2V425m124,29.2V425M259.5,454.6H650M259.8,484.2V455m118.6,29.2V455m147.2,29.2V455m124,29.2V455M259.5,484.5H650M259.8,514.1V484.9m118.6,29.2V484.9m147.2,29.2V484.9m124,29.2V484.9M259.5,514.5H650M259.8,544.1V514.9m118.6,29.2V514.9m147.2,29.2V514.9m124,29.2V514.9M259.5,544.5H650M259.8,574V544.8M378.4,574V544.8M525.6,574V544.8m124,29.2V544.8M259.5,574.4H650M259.8,604V574.8M378.4,604V574.8M525.6,604V574.8m124,29.2V574.8M259.5,604.4H650M259.8,634V604.7M378.4,634V604.7M525.6,634V604.7m124,29.3V604.7M259.5,634.3H650M259.8,663.9V634.7m118.6,29.2V634.7m147.2,29.2V634.7m124,29.2V634.7M259.5,664.3H650M259.8,693.9V664.6m118.6,29.3V664.6m147.2,29.3V664.6m124,29.3V664.6M259.5,694.2H650M259.8,723.8V694.6m118.6,29.2V694.6m147.2,29.2V694.6m124,29.2V694.6M259.5,724.2H650M259.8,753.8V724.5m118.6,29.3V724.5m147.2,29.3V724.5m124,29.3V724.5M259.5,754.1H650M259.8,783.7V754.5m118.6,29.2V754.5m147.2,29.2V754.5m124,29.2V754.5M259.5,784.1H650" class="g0_124"/>
<path d="M122.2,822.6c221.7,0,443.4,0,665,0v168c-221.6,-9.3,-443.3,-9.3,-665,0Z" class="g1_124"/>
<path d="M122.9,823.2c221.2,0,442.4,0,663.7,0V990c-221.3,-9.3,-442.5,-9.3,-663.7,0Z" class="g2_124"/>
<path d="M123.5,823.8c220.8,0,441.6,0,662.5,0V989.4C565.1,980,344.3,980,123.5,989.4Z" class="g3_124"/>
<path d="M124.1,824.4c220.4,0,440.8,0,661.2,0V988.8c-220.4,-9.4,-440.8,-9.4,-661.2,0Z" class="g4_124"/>
<path d="M124.7,825c220,0,440,0,660,0V988.2c-220,-9.4,-440,-9.4,-660,0Z" class="g5_124"/>
<path d="M125.4,825.7c219.5,0,439.1,0,658.7,0V987.5c-219.6,-9.3,-439.2,-9.3,-658.7,0Z" class="g5_124"/>
<path d="M126,826.3c219.1,0,438.3,0,657.5,0V986.9c-219.2,-9.4,-438.4,-9.4,-657.5,0Z" class="g4_124"/>
<path d="M126.6,826.9c218.8,0,437.5,0,656.3,0V986.3c-218.8,-9.4,-437.5,-9.4,-656.3,0Z" class="g3_124"/>
<path d="M127.2,827.5c218.4,0,436.7,0,655,0V985.7c-218.3,-9.4,-436.6,-9.4,-655,0Z" class="g2_124"/>
<path d="M127.9,828.2c217.9,0,435.8,0,653.7,0V985c-217.9,-9.3,-435.8,-9.3,-653.7,0Z" class="g1_124"/>
<path d="M116.9,980.4V817.3H792.5V980.4Z" class="g6_124"/>
<path d="M119.5,977.8V856H789.9V977.8Z" class="g6_124"/>
<path d="M119.5,853.4V819.9H789.9v33.5Z" class="g7_124"/>
<g clip-path="url(#c1_124)">
<image x="119" y="819" width="672" height="34" xlink:href="shade/2.png"/>
</g>
<path d="M675.7,848.2h88.2V825.1H675.7v23.1Z" class="ga_124"/>
<path d="M395.1,871.9H514.3M395.5,901.5V872.3" class="g0_124"/>
<path d="M395.8,901.5H513.6V872.3H395.8v29.2Z" class="g9_124"/>
<path d="M514,901.5V872.3M395.1,901.9H514.3M395.5,931.5V902.3M514,931.5V902.3M395.1,931.8H514.3M395.5,961.4V932.2M514,961.4V932.2M395.1,961.8H514.3" class="g0_124"/>
</svg>