<?xml version="1.0" encoding="UTF-8" standalone="no"?>
<!DOCTYPE svg PUBLIC "-//W3C//DTD SVG 1.1//EN"
"http://www.w3.org/Graphics/SVG/1.1/DTD/svg11.dtd">
<svg viewBox="0 0 1286 909" version="1.1" xmlns="http://www.w3.org/2000/svg" xmlns:xlink="http://www.w3.org/1999/xlink">
<defs>
<style type="text/css"><![CDATA[
.g0_1059{
fill: none;
stroke: #000000;
stroke-width: 0.73;
stroke-linecap: butt;
stroke-linejoin: miter;
}
.g1_1059{
fill: #E6CEEE;
}
.g2_1059{
fill: none;
stroke: #02B5EE;
stroke-width: 1.262;
stroke-linecap: butt;
stroke-linejoin: miter;
}
.g3_1059{
fill: none;
stroke: #5EE200;
stroke-width: 1.262;
stroke-linecap: butt;
stroke-linejoin: miter;
}
.g4_1059{
fill: none;
stroke: #5EE200;
stroke-width: 0.73;
stroke-linecap: butt;
stroke-linejoin: miter;
}
.g5_1059{
fill: none;
stroke: #02B5EE;
stroke-width: 0.73;
stroke-linecap: butt;
stroke-linejoin: miter;
}
]]></style>
</defs>
<path d="M193,83.4h900.3M193,111.6H973.1m-780.1,0H973.1M478.9,141.2V112m0,58.5V141.2m0,64.1V170.5" class="g0_1059"/>
<path d="M771.7,205.3h140V172.4h-140v32.9Z" class="g1_1059"/>
<path d="M478.9,234.5V205.3m0,62.1V234.5" class="g0_1059"/>
<path d="M777.4,267.4H931.9V234.5H777.4v32.9Z" class="g1_1059"/>
<path d="M478.9,296.6V267.4m0,58.4V296.6m0,114.2v-85" class="g0_1059"/>
<path d="M718.2,375.1h95.4V342.3H718.2v32.8Z" class="g1_1059"/>
<path d="M853.3,386.9H900" class="g2_1059"/>
<path d="M910.5,386.9h22.4" class="g3_1059"/>
<path d="M478.9,440.1V410.8m0,102.3v-73" class="g0_1059"/>
<path d="M781.6,499.2H816" class="g4_1059"/>
<path d="M816,499.2h50.7" class="g5_1059"/>
<path d="M883.6,489.4h78.5V456.5H883.6v32.9Z" class="g1_1059"/>
<path d="M478.9,542.4V513.1m0,58.5V542.4m0,60.5V571.6m0,60.5V602.9m0,58.5V632.1m0,58.5V661.4M193,690.9H973.1m-780.1,0H973.1" class="g0_1059"/>
</svg>