<?xml version="1.0" encoding="UTF-8" standalone="no"?>
<!DOCTYPE svg PUBLIC "-//W3C//DTD SVG 1.1//EN"
"http://www.w3.org/Graphics/SVG/1.1/DTD/svg11.dtd">
<svg viewBox="0 0 909 1286" version="1.1" xmlns="http://www.w3.org/2000/svg" xmlns:xlink="http://www.w3.org/1999/xlink">
<defs>
<clipPath id="c0_33"><path d="M119.5,215.7V182.1H789.9v33.6Z"/></clipPath>
<style type="text/css"><![CDATA[
.g0_33{
fill: none;
stroke: #000000;
stroke-width: 0.73;
stroke-linecap: butt;
stroke-linejoin: miter;
}
.g1_33{
fill: #7F7F7F;
fill-opacity: 0.01;
}
.g2_33{
fill: #7F7F7F;
fill-opacity: 0.02;
}
.g3_33{
fill: #7F7F7F;
fill-opacity: 0.04;
}
.g4_33{
fill: #7F7F7F;
fill-opacity: 0.07;
}
.g5_33{
fill: #7F7F7F;
fill-opacity: 0.11;
}
.g6_33{
fill: #FFFFFF;
}
.g7_33{
fill: #7F7F7F;
}
.g8_33{
fill: #EC008C;
}
.g9_33{
fill: #CBCEFB;
}
.ga_33{
fill: #E81A58;
}
.gb_33{
fill: #401A1A;
}
]]></style>
</defs>
<path d="M116.9,159.9H792.5" class="g0_33"/>
<path d="M122.2,184.8c221.7,0,443.4,0,665,0v228c-221.6,-9.3,-443.3,-9.3,-665,0Z" class="g1_33"/>
<path d="M122.9,185.4c221.2,0,442.4,0,663.7,0V412.2c-221.3,-9.4,-442.5,-9.4,-663.7,0Z" class="g2_33"/>
<path d="M123.5,186.1c220.8,0,441.6,0,662.5,0V411.6c-220.9,-9.4,-441.7,-9.4,-662.5,0Z" class="g3_33"/>
<path d="M124.1,186.7c220.4,0,440.8,0,661.2,0V411c-220.4,-9.4,-440.8,-9.4,-661.2,0Z" class="g4_33"/>
<path d="M124.7,187.3c220,0,440,0,660,0v223c-220,-9.3,-440,-9.3,-660,0Z" class="g5_33"/>
<path d="M125.4,187.9c219.5,0,439.1,0,658.7,0V409.7c-219.6,-9.3,-439.2,-9.3,-658.7,0Z" class="g5_33"/>
<path d="M126,188.6c219.1,0,438.3,0,657.5,0V409.1c-219.2,-9.4,-438.4,-9.4,-657.5,0Z" class="g4_33"/>
<path d="M126.6,189.2c218.8,0,437.5,0,656.3,0V408.5c-218.8,-9.4,-437.5,-9.4,-656.3,0Z" class="g3_33"/>
<path d="M127.2,189.8c218.4,0,436.7,0,655,0v218c-218.3,-9.3,-436.6,-9.3,-655,0Z" class="g2_33"/>
<path d="M127.9,190.4c217.9,0,435.8,0,653.7,0V407.2c-217.9,-9.3,-435.8,-9.3,-653.7,0Z" class="g1_33"/>
<path d="M116.9,402.5v-223H792.5v223Z" class="g6_33"/>
<path d="M119.5,399.9V218.3H789.9V399.9Z" class="g6_33"/>
<path d="M119.5,215.7V182.1H789.9v33.6Z" class="g7_33"/>
<g clip-path="url(#c0_33)">
<image x="119" y="181" width="672" height="34" xlink:href="shade/1.png"/>
</g>
<path d="M675.7,210.5h88.2V187.3H675.7v23.2Z" class="g8_33"/>
<path d="M423,234.2h63.5m-63.1,29.6V234.6" class="g0_33"/>
<path d="M423.7,263.8h62V234.6h-62v29.2Z" class="g9_33"/>
<path d="M486.1,263.8V234.6M423,264.2h63.5m-63.1,29.5V264.5m62.7,29.2V264.5M423,294.1h63.5m-63.1,29.6V294.5m62.7,29.2V294.5M423,324.1h63.5m-63.1,29.6V324.4m62.7,29.3V324.4M423,354h63.5m-63.1,29.6V354.4m62.7,29.2V354.4M423,384h63.5" class="g0_33"/>
<path d="M116.9,701.7v-144c0,-21.6,17.6,-39.1,39.2,-39.1H792.5v144c0,21.6,-17.5,39.1,-39.1,39.1Z" class="ga_33"/>
<path d="M119.5,699.1v-148H789.9V662.6c0,20.2,-16.3,36.5,-36.5,36.5Z" class="gb_33"/>
<path d="M116.9,972.6V828.5c0,-21.6,17.6,-39.1,39.2,-39.1H792.5v144c0,21.6,-17.5,39.2,-39.1,39.2Z" class="ga_33"/>
<path d="M119.5,970V821.9H789.9V933.4c0,20.2,-16.3,36.6,-36.5,36.6Z" class="gb_33"/>
</svg>