<?xml version="1.0" encoding="UTF-8" standalone="no"?>
<!DOCTYPE svg PUBLIC "-//W3C//DTD SVG 1.1//EN"
"http://www.w3.org/Graphics/SVG/1.1/DTD/svg11.dtd">
<svg viewBox="0 0 1286 909" version="1.1" xmlns="http://www.w3.org/2000/svg" xmlns:xlink="http://www.w3.org/1999/xlink">
<defs>
<style type="text/css"><![CDATA[
.g0_405{
fill: none;
stroke: #000000;
stroke-width: 0.73;
stroke-linecap: butt;
stroke-linejoin: miter;
}
.g1_405{
fill: #E6CEEE;
}
.g2_405{
fill: #B3E9FA;
}
.g3_405{
fill: none;
stroke: #02B5EE;
stroke-width: 1.262;
stroke-linecap: butt;
stroke-linejoin: miter;
}
.g4_405{
fill: none;
stroke: #5EE200;
stroke-width: 1.262;
stroke-linecap: butt;
stroke-linejoin: miter;
}
.g5_405{
fill: #FFCCCC;
}
]]></style>
</defs>
<path d="M193,83.4h900.3M193,210.6h917.2m-917.2,0h917.2M536.5,240.2V211m0,58.5V240.2m0,64.1V269.5" class="g0_405"/>
<path d="M1027.8,304.3h71.5V271.4h-71.5v32.9Z" class="g1_405"/>
<path d="M536.5,333.5V304.3m0,62.1V333.5" class="g0_405"/>
<path d="M1003.9,366.4h95.4V333.5h-95.4v32.9Z" class="g1_405"/>
<path d="M536.5,397.7V366.4m0,62.6V397.7m0,60.5V429m0,58.5V458.2m0,114.3v-85" class="g0_405"/>
<path d="M754.2,522.7V510.5c0,-2.9,2.3,-5.2,5.2,-5.2H832c2.8,0,5.2,2.3,5.2,5.2v12.2c0,2.9,-2.4,5.2,-5.2,5.2H759.4c-2.9,0,-5.2,-2.3,-5.2,-5.2Z" class="g2_405"/>
<path d="M751.6,548.5h88.2" class="g3_405"/>
<path d="M850.3,548.5h249" class="g4_405"/>
<path d="M536.5,601.7V572.5m0,58.4V601.7m0,114.3V630.9" class="g0_405"/>
<path d="M944.4,692h44.1" class="g3_405"/>
<path d="M1009.5,680.3h89.8V647.4h-89.8v32.9Z" class="g5_405"/>
<path d="M536.5,745.2V716M193,745.6h917.2m-917.2,0h917.2" class="g0_405"/>
</svg>