<?xml version="1.0" encoding="UTF-8" standalone="no"?>
<!DOCTYPE svg PUBLIC "-//W3C//DTD SVG 1.1//EN"
"http://www.w3.org/Graphics/SVG/1.1/DTD/svg11.dtd">
<svg viewBox="0 0 1286 909" version="1.1" xmlns="http://www.w3.org/2000/svg" xmlns:xlink="http://www.w3.org/1999/xlink">
<defs>
<style type="text/css"><![CDATA[
.g0_1050{
fill: none;
stroke: #000000;
stroke-width: 0.73;
stroke-linecap: butt;
stroke-linejoin: miter;
}
.g1_1050{
fill: none;
stroke: #F81693;
stroke-width: 1.262;
stroke-linecap: butt;
stroke-linejoin: miter;
}
.g2_1050{
fill: none;
stroke: #02B5EE;
stroke-width: 1.262;
stroke-linecap: butt;
stroke-linejoin: miter;
}
.g3_1050{
fill: #F81693;
}
.g4_1050{
fill: #FFE6E6;
}
.g5_1050{
fill: none;
stroke: #F81693;
stroke-width: 0.73;
stroke-linecap: butt;
stroke-linejoin: miter;
}
.g6_1050{
fill: none;
stroke: #02B5EE;
stroke-width: 0.73;
stroke-linecap: butt;
stroke-linejoin: miter;
}
]]></style>
</defs>
<path d="M193,83.4h900.3M193,111.6h827.2m-827.2,0h827.2M566.4,141.2V112m0,114.3V141.2" class="g0_1050"/>
<path d="M755.6,202.3h18.3" class="g1_1050"/>
<path d="M784.4,202.3h92.1" class="g2_1050"/>
<path d="M903.9,186.6V154.1c0,-4.3,3.5,-7.8,7.8,-7.8h56.2c4.3,0,7.8,3.5,7.8,7.8v32.5c0,4.3,-3.5,7.8,-7.8,7.8H911.7c-4.3,0,-7.8,-3.5,-7.8,-7.8Z" class="g3_1050"/>
<path d="M906.5,186.6V154.1c0,-2.8,2.3,-5.2,5.2,-5.2h56.2c2.9,0,5.2,2.4,5.2,5.2v32.5c0,2.9,-2.3,5.2,-5.2,5.2H911.7c-2.9,0,-5.2,-2.3,-5.2,-5.2Z" class="g4_1050"/>
<path d="M566.4,256.4V226.3m0,103.2V256.4" class="g0_1050"/>
<path d="M729.1,315.6h32.1" class="g5_1050"/>
<path d="M767.3,315.6H884.6" class="g6_1050"/>
<path d="M907.5,303.8V276.6c0,-4.4,3.5,-7.8,7.8,-7.8h61.1c4.3,0,7.8,3.4,7.8,7.8v27.2c0,4.3,-3.5,7.8,-7.8,7.8H915.3c-4.3,0,-7.8,-3.5,-7.8,-7.8Z" class="g3_1050"/>
<path d="M910.1,303.8V276.6c0,-2.9,2.4,-5.2,5.2,-5.2h61.1c2.9,0,5.2,2.3,5.2,5.2v27.2c0,2.9,-2.3,5.2,-5.2,5.2H915.3c-2.8,0,-5.2,-2.3,-5.2,-5.2Z" class="g4_1050"/>
<path d="M566.4,358.7V329.5M193,359.1h827.2m-827.2,0h827.2" class="g0_1050"/>
</svg>