<?xml version="1.0" encoding="UTF-8" standalone="no"?>
<!DOCTYPE svg PUBLIC "-//W3C//DTD SVG 1.1//EN"
"http://www.w3.org/Graphics/SVG/1.1/DTD/svg11.dtd">
<svg viewBox="0 0 909 1286" version="1.1" xmlns="http://www.w3.org/2000/svg" xmlns:xlink="http://www.w3.org/1999/xlink">
<defs>
<clipPath id="c0_109"><path d="M119.5,618.5V585H446.9v33.5Z"/></clipPath>
<clipPath id="c1_109"><path d="M462.5,618.5V585H789.9v33.5Z"/></clipPath>
<style type="text/css"><![CDATA[
.g0_109{
fill: none;
stroke: #000000;
stroke-width: 0.73;
stroke-linecap: butt;
stroke-linejoin: miter;
}
.g1_109{
fill: #E81A58;
}
.g2_109{
fill: #401A1A;
}
.g3_109{
fill: #7F7F7F;
fill-opacity: 0.01;
}
.g4_109{
fill: #7F7F7F;
fill-opacity: 0.02;
}
.g5_109{
fill: #7F7F7F;
fill-opacity: 0.04;
}
.g6_109{
fill: #7F7F7F;
fill-opacity: 0.07;
}
.g7_109{
fill: #7F7F7F;
fill-opacity: 0.11;
}
.g8_109{
fill: #FFFFFF;
}
.g9_109{
fill: #7F7F7F;
}
.ga_109{
fill: #00AEEF;
}
.gb_109{
fill: #CBCEFB;
}
.gc_109{
fill: #EC008C;
}
.gd_109{
fill: #FFFEF5;
}
.ge_109{
fill: none;
stroke: #D6C944;
stroke-width: 0.365;
stroke-linecap: butt;
stroke-linejoin: miter;
}
]]></style>
</defs>
<path d="M116.9,159.9H792.5" class="g0_109"/>
<path d="M116.9,274.4V179.5H792.5v55.7c0,21.6,-17.5,39.2,-39.1,39.2Z" class="g1_109"/>
<path d="M119.5,271.8V179.5H789.9v55.7c0,20.2,-16.3,36.6,-36.5,36.6Z" class="g2_109"/>
<path d="M116.9,518.1V371.9c0,-21.6,17.6,-39.1,39.2,-39.1H792.5V479c0,21.6,-17.5,39.1,-39.1,39.1Z" class="g1_109"/>
<path d="M119.5,515.5v-148H789.9V479c0,20.2,-16.3,36.5,-36.5,36.5Z" class="g2_109"/>
<path d="M122.2,587.7c107.4,0,214.7,0,322,0V815c-107.3,-9.4,-214.6,-9.4,-322,0Z" class="g3_109"/>
<path d="M122.9,588.3c106.9,0,213.8,0,320.7,0V814.4C336.7,805,229.8,805,122.9,814.4Z" class="g4_109"/>
<path d="M123.5,589c106.5,0,213,0,319.5,0V813.7c-106.5,-9.3,-213,-9.3,-319.5,0Z" class="g5_109"/>
<path d="M124.1,589.6c106.1,0,212.2,0,318.3,0V813.1c-106.1,-9.3,-212.2,-9.3,-318.3,0Z" class="g6_109"/>
<path d="M124.7,590.2c105.7,0,211.4,0,317,0V812.5c-105.6,-9.4,-211.3,-9.4,-317,0Z" class="g7_109"/>
<path d="M125.4,590.8c105.2,0,210.5,0,315.7,0V811.9c-105.2,-9.4,-210.5,-9.4,-315.7,0Z" class="g7_109"/>
<path d="M126,591.5c104.8,0,209.7,0,314.5,0V811.2c-104.8,-9.3,-209.7,-9.3,-314.5,0Z" class="g6_109"/>
<path d="M126.6,592.1c104.4,0,208.8,0,313.3,0V810.6c-104.5,-9.3,-208.9,-9.3,-313.3,0Z" class="g5_109"/>
<path d="M127.2,592.7c104,0,208,0,312,0V810c-104,-9.4,-208,-9.4,-312,0Z" class="g4_109"/>
<path d="M127.9,593.3c103.5,0,207.1,0,310.7,0V809.4C335,800,231.4,800,127.9,809.4Z" class="g3_109"/>
<path d="M116.9,804.7V582.4H449.5V804.7Z" class="g8_109"/>
<path d="M119.5,802.1v-181H446.9v181Z" class="g8_109"/>
<path d="M119.5,618.5V585H446.9v33.5Z" class="g9_109"/>
<g clip-path="url(#c0_109)">
<image x="119" y="584" width="329" height="34" xlink:href="shade/1.png"/>
</g>
<path d="M316.9,613.3h104V590.2h-104v23.1Z" class="ga_109"/>
<path d="M233.2,666.3H333.3m-99.7,29.6V666.7" class="g0_109"/>
<path d="M233.9,695.9h98.6V666.7H233.9v29.2Z" class="gb_109"/>
<path d="M332.9,695.9V666.7m-99.7,29.6H333.3m-99.7,29.6V696.6m99.3,29.3V696.6m-99.7,29.6H333.3m-99.7,29.6V726.6m99.3,29.2V726.6m-99.7,29.6H333.3m-99.7,29.6V756.6m99.3,29.2V756.6m-99.7,29.5H333.3" class="g0_109"/>
<path d="M465.2,587.7c107.4,0,214.7,0,322,0V742.3c-107.3,-9.4,-214.6,-9.4,-322,0Z" class="g3_109"/>
<path d="M465.8,588.3c107,0,213.9,0,320.8,0V741.7c-106.9,-9.4,-213.8,-9.4,-320.8,0Z" class="g4_109"/>
<path d="M466.5,589c106.5,0,213,0,319.5,0V741c-106.5,-9.3,-213,-9.3,-319.5,0Z" class="g5_109"/>
<path d="M467.1,589.6c106.1,0,212.2,0,318.2,0V740.4c-106,-9.3,-212.1,-9.3,-318.2,0Z" class="g6_109"/>
<path d="M467.7,590.2c105.7,0,211.3,0,317,0V739.8c-105.7,-9.4,-211.3,-9.4,-317,0Z" class="g7_109"/>
<path d="M468.3,590.8c105.3,0,210.5,0,315.8,0V739.2c-105.3,-9.4,-210.5,-9.4,-315.8,0Z" class="g7_109"/>
<path d="M469,591.5c104.8,0,209.6,0,314.5,0V738.6c-104.9,-9.4,-209.7,-9.4,-314.5,0Z" class="g6_109"/>
<path d="M469.6,592.1c104.4,0,208.8,0,313.2,0V737.9c-104.4,-9.3,-208.8,-9.3,-313.2,0Z" class="g5_109"/>
<path d="M470.2,592.7c104,0,208,0,312,0V737.3c-104,-9.4,-208,-9.4,-312,0Z" class="g4_109"/>
<path d="M470.8,593.3c103.6,0,207.2,0,310.8,0V736.7c-103.6,-9.4,-207.2,-9.4,-310.8,0Z" class="g3_109"/>
<path d="M459.9,732V582.4H792.5V732Z" class="g8_109"/>
<path d="M462.5,729.4V621.1H789.9V729.4Z" class="g8_109"/>
<path d="M462.5,618.5V585H789.9v33.5Z" class="g9_109"/>
<g clip-path="url(#c1_109)">
<image x="462" y="584" width="329" height="34" xlink:href="shade/2.png"/>
</g>
<path d="M675.7,613.3h88.2V590.2H675.7v23.1Z" class="gc_109"/>
<path d="M493,653.5H759.5M493.3,683.1V653.9" class="g0_109"/>
<path d="M493.7,683.1h98.6V653.9H493.7v29.2Z" class="gb_109"/>
<path d="M592.7,683.1V653.9" class="g0_109"/>
<path d="M593,683.1H758.7V653.9H593v29.2Z" class="gb_109"/>
<path d="M759.1,683.1V653.9M493,683.5H759.5M493.3,713.1V683.9m99.4,29.2V683.9m166.4,29.2V683.9M493,713.4H759.5" class="g0_109"/>
<path d="M-2.9,1099.9v-65.4H912.4v65.4Z" class="g8_109"/>
<path d="M-.3,1097.3v-60.2H909.8v60.2Z" class="gd_109"/>
<path d="M-.3,1089H909.8M-.3,1063H909.8M-.3,1037.1H909.8M-.3,1097.3v-60.2m25.9,60.2v-60.2m26,60.2v-60.2m26,60.2v-60.2m26,60.2v-60.2m26,60.2v-60.2m25.9,60.2v-60.2m26,60.2v-60.2m26,60.2v-60.2m26,60.2v-60.2m26,60.2v-60.2m26,60.2v-60.2m25.9,60.2v-60.2m26,60.2v-60.2m26,60.2v-60.2m26,60.2v-60.2m26,60.2v-60.2m26,60.2v-60.2m26,60.2v-60.2m25.9,60.2v-60.2m26,60.2v-60.2m26,60.2v-60.2m26,60.2v-60.2m26,60.2v-60.2m26,60.2v-60.2m25.9,60.2v-60.2m26,60.2v-60.2m26,60.2v-60.2m26,60.2v-60.2m26,60.2v-60.2m26,60.2v-60.2m25.9,60.2v-60.2m26,60.2v-60.2m26,60.2v-60.2m26,60.2v-60.2m26,60.2v-60.2" class="ge_109"/>
</svg>