<?xml version="1.0" encoding="UTF-8" standalone="no"?>
<!DOCTYPE svg PUBLIC "-//W3C//DTD SVG 1.1//EN"
"http://www.w3.org/Graphics/SVG/1.1/DTD/svg11.dtd">
<svg viewBox="0 0 1286 909" version="1.1" xmlns="http://www.w3.org/2000/svg" xmlns:xlink="http://www.w3.org/1999/xlink">
<defs>
<style type="text/css"><![CDATA[
.g0_1009{
fill: none;
stroke: #000000;
stroke-width: 0.73;
stroke-linecap: butt;
stroke-linejoin: miter;
}
.g1_1009{
fill: none;
stroke: #F81693;
stroke-width: 1.461;
stroke-linecap: butt;
stroke-linejoin: miter;
stroke-dasharray: 2,2;
}
.g2_1009{
fill: #FFCCCC;
}
.g3_1009{
fill: none;
stroke: #F81693;
stroke-width: 1.262;
stroke-linecap: butt;
stroke-linejoin: miter;
}
.g4_1009{
fill: none;
stroke: #02B5EE;
stroke-width: 1.262;
stroke-linecap: butt;
stroke-linejoin: miter;
}
.g5_1009{
fill: none;
stroke: #F81693;
stroke-width: 0.73;
stroke-linecap: butt;
stroke-linejoin: miter;
}
.g6_1009{
fill: none;
stroke: #02B5EE;
stroke-width: 0.73;
stroke-linecap: butt;
stroke-linejoin: miter;
}
]]></style>
</defs>
<path d="M193,83.4h900.3M193,111.6h821.4m-821.4,0h821.4M430.3,141.2V112m0,62.1V141.2" class="g0_1009"/>
<path d="M761.3,169.7H827" class="g1_1009"/>
<path d="M836.8,174.1h166.6V141.2H836.8v32.9Z" class="g2_1009"/>
<path d="M430.3,203.3V174.1m0,58.5V203.3m0,114.3v-85" class="g0_1009"/>
<path d="M622.1,281.9H741.6V249H622.1v32.9Z" class="g2_1009"/>
<path d="M752.2,293.6h18.2" class="g3_1009"/>
<path d="M780.9,293.6h93.2" class="g4_1009"/>
<path d="M430.3,346.8V317.6m0,102.3V346.8" class="g0_1009"/>
<path d="M441.3,406H626" class="g5_1009"/>
<path d="M816.1,406h84.5" class="g6_1009"/>
<path d="M912.8,396.1h90.6V363.2H912.8v32.9Z" class="g2_1009"/>
<path d="M430.3,449.1V419.9m0,58.4V449.1m0,60.5V478.3m0,60.6V509.6M193,539.2h821.4m-821.4,0h821.4" class="g0_1009"/>
</svg>