<?xml version="1.0" encoding="UTF-8" standalone="no"?>
<!DOCTYPE svg PUBLIC "-//W3C//DTD SVG 1.1//EN"
"http://www.w3.org/Graphics/SVG/1.1/DTD/svg11.dtd">
<svg viewBox="0 0 909 1286" version="1.1" xmlns="http://www.w3.org/2000/svg" xmlns:xlink="http://www.w3.org/1999/xlink">
<defs>
<style type="text/css"><![CDATA[
.g0_1{
fill: none;
stroke: #000000;
stroke-width: 0.73;
stroke-linecap: butt;
stroke-linejoin: miter;
}
]]></style>
</defs>
<path d="M158.2,364.2V334.9m0,58.5V364.2m0,58.4V393.4m0,58.4V422.6m0,58.5V451.8m0,58.5V481.1m0,58.4V510.3m0,58.4V539.5m0,58.5V568.7m0,58.5V598m0,58.4V627.2m0,58.4V656.4m0,58.5V685.6m0,58.5V714.9m0,58.4V744.1m0,58.4V773.3m0,58.4V802.5m0,58.5V831.7m0,58.5V861m0,58.4V890.2" class="g0_1"/>
</svg>