<?xml version="1.0" encoding="UTF-8" standalone="no"?>
<!DOCTYPE svg PUBLIC "-//W3C//DTD SVG 1.1//EN"
"http://www.w3.org/Graphics/SVG/1.1/DTD/svg11.dtd">
<svg viewBox="0 0 909 1286" version="1.1" xmlns="http://www.w3.org/2000/svg" xmlns:xlink="http://www.w3.org/1999/xlink">
<defs>
<clipPath id="c0_28"><path d="M123.1,526.3V494.6h29.1v31.7Z"/></clipPath>
<clipPath id="c1_28"><path d="M122.9,808.1V773.4H152v34.7Z"/></clipPath>
<clipPath id="c2_28"><path d="M122.1,526.8V494.1H153v32.7Z"/></clipPath>
<clipPath id="c3_28"><path d="M122.1,808.5V772.3H153v36.2Z"/></clipPath>
<style type="text/css"><![CDATA[
.g0_28{
fill: none;
stroke: #000000;
stroke-width: 0.73;
stroke-linecap: butt;
stroke-linejoin: miter;
}
.g1_28{
fill: #FFFFFF;
}
.g2_28{
fill: #EDEFEF;
}
.g3_28{
fill: #FFFFFF;
stroke: #000000;
stroke-width: 0.73;
stroke-linecap: butt;
stroke-linejoin: miter;
}
.g4_28{
fill: none;
stroke: #000000;
stroke-width: 3.47;
stroke-linecap: butt;
stroke-linejoin: miter;
}
.g5_28{
fill: none;
stroke: #CDCDB4;
stroke-width: 2.739;
stroke-linecap: butt;
stroke-linejoin: miter;
}
.g6_28{
}
.g7_28{
fill: none;
stroke: #000000;
stroke-width: 0.459;
stroke-linecap: butt;
stroke-linejoin: round;
}
.g8_28{
fill: none;
stroke: #000000;
stroke-width: 0.722;
stroke-linecap: round;
stroke-linejoin: miter;
}
.g9_28{
fill: none;
stroke: #000000;
stroke-width: 0.722;
stroke-linecap: round;
stroke-linejoin: round;
}
.ga_28{
fill: #D40000;
}
.gb_28{
fill: none;
stroke: #000000;
stroke-width: 0.578;
stroke-linecap: round;
stroke-linejoin: miter;
}
.gc_28{
fill: #E9C6AF;
}
.gd_28{
fill: none;
stroke: #695000;
stroke-width: 0.152;
stroke-linecap: round;
stroke-linejoin: round;
}
.ge_28{
fill: none;
stroke: #000000;
stroke-width: 1.461;
stroke-linecap: butt;
stroke-linejoin: miter;
}
.gf_28{
fill: none;
stroke: #000000;
stroke-width: 2.739;
stroke-linecap: butt;
stroke-linejoin: miter;
}
.gg_28{
fill: #868686;
}
.gh_28{
fill: #242628;
}
.gi_28{
fill: #A0A0A0;
}
.gj_28{
fill: #C4956E;
}
.gk_28{
fill: #222426;
}
.gl_28{
fill: #202126;
}
.gm_28{
fill: #252427;
}
.gn_28{
fill: #222924;
}
]]></style>
</defs>
<path d="M116.9,159.9H792.5" class="g0_28"/>
<path d="M116.9,398.5v-219H792.5v219Z" class="g1_28"/>
<path d="M117.7,397.7V179.5H791.8V397.7Z" class="g2_28"/>
<path d="M142.6,190.6c0,-3,-2.4,-5.4,-5.4,-5.4c-3.1,0,-5.5,2.4,-5.5,5.4c0,3.1,2.4,5.5,5.5,5.5c3,0,5.4,-2.4,5.4,-5.5Z" class="g3_28"/>
<path d="M137.2,190.6c6.4,1.6,5.4,3.9,-2.3,5.2c-7.7,1.3,-19.2,1.1,-25.7,-.5c-4.2,-1,-5.4,-2.3,-3.2,-3.6c1.8,-1,5.8,-1.8,10.9,-2.1" class="g4_28"/>
<path d="M137.2,190.6c6.4,1.6,5.4,3.9,-2.3,5.2c-7.7,1.3,-19.2,1.1,-25.7,-.5c-4.2,-1,-5.4,-2.3,-3.2,-3.6c1.8,-1,5.8,-1.8,10.9,-2.1" class="g5_28"/>
<path d="M142.6,214.8c0,-3,-2.4,-5.5,-5.4,-5.5c-3.1,0,-5.5,2.5,-5.5,5.5c0,3,2.4,5.5,5.5,5.5c3,0,5.4,-2.5,5.4,-5.5Z" class="g3_28"/>
<path d="M137.2,214.8c6.4,1.6,5.4,3.9,-2.3,5.2c-7.7,1.3,-19.2,1.1,-25.7,-.5c-4.2,-1,-5.4,-2.4,-3.2,-3.6c1.8,-1,5.8,-1.8,10.9,-2.2" class="g4_28"/>
<path d="M137.2,214.8c6.4,1.6,5.4,3.9,-2.3,5.2c-7.7,1.3,-19.2,1.1,-25.7,-.5c-4.2,-1,-5.4,-2.4,-3.2,-3.6c1.8,-1,5.8,-1.8,10.9,-2.2" class="g5_28"/>
<path d="M142.6,239c0,-3,-2.4,-5.5,-5.4,-5.5c-3.1,0,-5.5,2.5,-5.5,5.5c0,3,2.4,5.5,5.5,5.5c3,0,5.4,-2.5,5.4,-5.5Z" class="g3_28"/>
<path d="M137.2,239c6.4,1.5,5.4,3.8,-2.3,5.1c-7.7,1.3,-19.2,1.1,-25.7,-.4c-4.2,-1,-5.4,-2.4,-3.2,-3.6c1.8,-1,5.8,-1.8,10.9,-2.2" class="g4_28"/>
<path d="M137.2,239c6.4,1.5,5.4,3.8,-2.3,5.1c-7.7,1.3,-19.2,1.1,-25.7,-.4c-4.2,-1,-5.4,-2.4,-3.2,-3.6c1.8,-1,5.8,-1.8,10.9,-2.2" class="g5_28"/>
<path d="M142.6,263.1c0,-3,-2.4,-5.4,-5.4,-5.4c-3.1,0,-5.5,2.4,-5.5,5.4c0,3.1,2.4,5.5,5.5,5.5c3,0,5.4,-2.4,5.4,-5.5Z" class="g3_28"/>
<path d="M137.2,263.1c6.4,1.6,5.4,3.9,-2.3,5.2c-7.7,1.3,-19.2,1.1,-25.7,-.5c-4.2,-1,-5.4,-2.3,-3.2,-3.6c1.8,-1,5.8,-1.8,10.9,-2.1" class="g4_28"/>
<path d="M137.2,263.1c6.4,1.6,5.4,3.9,-2.3,5.2c-7.7,1.3,-19.2,1.1,-25.7,-.5c-4.2,-1,-5.4,-2.3,-3.2,-3.6c1.8,-1,5.8,-1.8,10.9,-2.1" class="g5_28"/>
<path d="M142.6,287.3c0,-3,-2.4,-5.5,-5.4,-5.5c-3.1,0,-5.5,2.5,-5.5,5.5c0,3,2.4,5.5,5.5,5.5c3,0,5.4,-2.5,5.4,-5.5Z" class="g3_28"/>
<path d="M137.2,287.3c6.4,1.6,5.4,3.9,-2.3,5.2c-7.7,1.3,-19.2,1,-25.7,-.5c-4.2,-1,-5.4,-2.4,-3.2,-3.6c1.8,-1,5.8,-1.8,10.9,-2.2" class="g4_28"/>
<path d="M137.2,287.3c6.4,1.6,5.4,3.9,-2.3,5.2c-7.7,1.3,-19.2,1,-25.7,-.5c-4.2,-1,-5.4,-2.4,-3.2,-3.6c1.8,-1,5.8,-1.8,10.9,-2.2" class="g5_28"/>
<path d="M142.6,311.5c0,-3.1,-2.4,-5.5,-5.4,-5.5c-3.1,0,-5.5,2.4,-5.5,5.5c0,3,2.4,5.5,5.5,5.5c3,0,5.4,-2.5,5.4,-5.5Z" class="g3_28"/>
<path d="M137.2,311.5c6.4,1.5,5.4,3.8,-2.3,5.1c-7.7,1.3,-19.2,1.1,-25.7,-.4c-4.2,-1,-5.4,-2.4,-3.2,-3.6c1.8,-1,5.8,-1.8,10.9,-2.2" class="g4_28"/>
<path d="M137.2,311.5c6.4,1.5,5.4,3.8,-2.3,5.1c-7.7,1.3,-19.2,1.1,-25.7,-.4c-4.2,-1,-5.4,-2.4,-3.2,-3.6c1.8,-1,5.8,-1.8,10.9,-2.2" class="g5_28"/>
<path d="M142.6,335.6c0,-3,-2.4,-5.4,-5.4,-5.4c-3.1,0,-5.5,2.4,-5.5,5.4c0,3.1,2.4,5.5,5.5,5.5c3,0,5.4,-2.4,5.4,-5.5Z" class="g3_28"/>
<path d="M137.2,335.6c6.4,1.6,5.4,3.9,-2.3,5.2c-7.7,1.3,-19.2,1.1,-25.7,-.5c-4.2,-1,-5.4,-2.3,-3.2,-3.6c1.8,-1,5.8,-1.8,10.9,-2.1" class="g4_28"/>
<path d="M137.2,335.6c6.4,1.6,5.4,3.9,-2.3,5.2c-7.7,1.3,-19.2,1.1,-25.7,-.5c-4.2,-1,-5.4,-2.3,-3.2,-3.6c1.8,-1,5.8,-1.8,10.9,-2.1" class="g5_28"/>
<path d="M142.6,359.8c0,-3,-2.4,-5.5,-5.4,-5.5c-3.1,0,-5.5,2.5,-5.5,5.5c0,3,2.4,5.5,5.5,5.5c3,0,5.4,-2.5,5.4,-5.5Z" class="g3_28"/>
<path d="M137.2,359.8c6.4,1.5,5.4,3.9,-2.3,5.1c-7.7,1.3,-19.2,1.1,-25.7,-.4c-4.2,-1,-5.4,-2.4,-3.2,-3.6c1.8,-1,5.8,-1.8,10.9,-2.2" class="g4_28"/>
<path d="M137.2,359.8c6.4,1.5,5.4,3.9,-2.3,5.1c-7.7,1.3,-19.2,1.1,-25.7,-.4c-4.2,-1,-5.4,-2.4,-3.2,-3.6c1.8,-1,5.8,-1.8,10.9,-2.2" class="g5_28"/>
<path d="M142.6,384c0,-3.1,-2.4,-5.5,-5.4,-5.5c-3.1,0,-5.5,2.4,-5.5,5.5c0,3,2.4,5.4,5.5,5.4c3,0,5.4,-2.4,5.4,-5.4Z" class="g3_28"/>
<path d="M137.2,384c6.4,1.5,5.4,3.8,-2.3,5.1c-7.7,1.3,-19.2,1.1,-25.7,-.4c-4.2,-1,-5.4,-2.4,-3.2,-3.6c1.8,-1,5.8,-1.8,10.9,-2.2" class="g4_28"/>
<path d="M137.2,384c6.4,1.5,5.4,3.8,-2.3,5.1c-7.7,1.3,-19.2,1.1,-25.7,-.4c-4.2,-1,-5.4,-2.4,-3.2,-3.6c1.8,-1,5.8,-1.8,10.9,-2.2" class="g5_28"/>
<path d="M117.7,724.4V487.8H791.8V724.4Z" class="g1_28"/>
<path d="M117.7,724.4V487.8H791.8V724.4Z" class="ge_28"/>
<g clip-path="url(#c2_28)">
<path clip-path="url(#c0_28)" d="M126.4,520c0,0,1.5,-.9,1.2,-1.3c-.1,-.1,-.3,-.1,-.6,0c-1.6,.3,-5,2.1,-3.3,4.1c1.4,1.6,6.4,2.4,11.7,1.4c7.3,-1.4,13.5,-5.5,11.1,-8.3c-1.6,-2,-6.7,-2.1,-10.8,-2.2c-2.1,0,-6.6,-.1,-8,-1.7c-.6,-.7,-.5,-1.6,.1,-2.2c1,-.9,3.8,-1.4,4,-1.5c.7,-.1,2.5,-.4,4.6,-.4c1.1,.1,2.5,.1,3.2,1c.2,.3,.4,.6,.4,.7c0,0,0,.1,.1,.2c.1,.1,.4,.1,.5,.1c.5,-.1,1.5,-.6,2,-1.1c.3,-.2,.8,-.6,0,-1.5c-.9,-1.1,-2.3,-1.2,-4,-1.2c-2.3,0,-4.1,.3,-4.9,.5c-5.8,1.1,-11.1,4.6,-9,7c1.5,1.8,6.3,1.9,9,1.9c3.9,.1,8.4,.3,9.8,2c.6,.7,.9,1.9,-.4,2.9c-1.2,.9,-4,1.7,-5.8,2c-4.4,.9,-9.4,.2,-10.6,-1.2c0,-.1,-.5,-.6,-.3,-1.2Z" class="g6_28"/>
<path d="M131.5,522.4l-.2,-.2l.3,-4.6q.3,-5.6,.5,-6c.1,-.1,1.6,-2.2,3.3,-4.6c1.7,-2.3,4.3,-6,5.9,-8.2c1.5,-2.2,2.8,-4,2.9,-4c.4,0,.1,.4,-1.8,3.2c-1.2,1.6,-3.7,5.3,-5.7,8.1c-2,2.9,-3.6,5.2,-3.6,5.2c0,0,.5,.1,1,.2c2,.2,3.3,.5,4.5,1.2c.6,.3,1,.5,1.5,1.1c.8,.8,1.2,1.4,1.4,2.2c.1,.2,.1,.4,.2,.4c.1,0,.7,-.8,5.2,-7.5c2.4,-3.7,4.5,-6.7,4.6,-6.8c.2,-.3,.4,-.1,.2,.2c0,.1,-1.5,2.3,-3.2,5c-1.8,2.7,-3.8,5.7,-4.5,6.7c-1.5,2.4,-2.1,3.4,-2.3,3.8c-.2,.4,-.3,.5,-.9,.8c-.8,.3,-8.7,3.9,-8.9,3.9c-.1,.1,-.3,0,-.4,-.1Z" class="g6_28"/>
<path d="M135.2,520.4c2.2,-.9,4,-1.7,4.6,-2c.7,-.4,.7,-.5,.7,-1.5c-.2,-1.7,-1.4,-3,-3.6,-3.7c-1.2,-.4,-4.3,-.8,-4.4,-.6c0,0,-.1,1.4,-.2,3.1c-.1,1.7,-.2,3.3,-.2,3.6c-.1,1.2,.1,1.4,-.2,2.6c.1,.1,1.8,-.8,1.8,-.8c.1,0,.7,-.3,1.5,-.7Z" class="g6_28"/>
<path d="M131.5,522.4l-.2,-.2l.3,-4.6q.3,-5.6,.5,-6c.1,-.1,1.6,-2.2,3.3,-4.6c1.7,-2.3,4.3,-6,5.9,-8.2c1.5,-2.2,2.8,-4,2.9,-4c.4,0,.1,.4,-1.8,3.2c-1.2,1.6,-3.7,5.3,-5.7,8.1c-2,2.9,-3.6,5.2,-3.6,5.2c0,0,.5,.1,1,.2c2,.2,3.3,.5,4.5,1.2c.6,.3,1,.5,1.5,1.1c.8,.8,1.2,1.4,1.4,2.2c.1,.2,.1,.4,.2,.4c.1,0,.7,-.8,5.2,-7.5c2.4,-3.7,4.5,-6.7,4.6,-6.8c.2,-.3,.4,-.1,.2,.2c0,.1,-1.5,2.3,-3.2,5c-1.8,2.7,-3.8,5.7,-4.5,6.7c-1.5,2.4,-2.1,3.4,-2.3,3.8c-.2,.4,-.3,.5,-.9,.8c-.8,.3,-8.7,3.9,-8.9,3.9c-.1,.1,-.3,0,-.4,-.1Zm3.7,-2c2.2,-.9,4,-1.7,4.6,-2c.7,-.4,.7,-.5,.7,-1.5c-.2,-1.7,-1.4,-3,-3.6,-3.7c-1.2,-.4,-4.3,-.8,-4.4,-.6c0,0,-.1,1.4,-.2,3.1c-.1,1.7,-.2,3.3,-.2,3.6c-.1,1.2,.1,1.4,-.2,2.6c.1,.1,1.8,-.8,1.8,-.8c.1,0,.7,-.3,1.5,-.7Z" class="g7_28"/>
<path d="M135.3,511.8l11.2,-16m-8.2,17.1L149,497.2" class="g8_28"/>
<path d="M140.4,514.6l10,-14.4l.2,-.3" class="g9_28"/>
<path d="M134.1,511.4c-.4,0,-.8,-.1,-.9,-.1c0,-.1,2.5,-3.7,6.7,-9.6c1.9,-2.7,3.6,-5.2,3.8,-5.6c.2,-.3,.4,-.6,.5,-.6c.1,0,.7,.5,.9,.7c.1,.3,.1,.6,-.1,1.1c-.2,.5,-9.8,14.3,-9.9,14.3c-.1,0,-.5,-.1,-1,-.2Z" class="ga_28"/>
<path d="M137.6,512.2c-.2,-.1,-.8,-.3,-1.2,-.4l-.7,-.2l.3,-.3c.1,-.2,2.3,-3.4,4.8,-7l4.7,-6.7l.5,-.3c.9,-.4,1.6,-.4,2.1,.1l.3,.3l-5,7.3c-3.1,4.5,-5.1,7.4,-5.1,7.4c-.1,0,-.4,-.1,-.7,-.2Z" class="ga_28"/>
<path d="M140,513.6c-.2,-.2,-.6,-.5,-.8,-.6c-.2,-.2,-.3,-.3,-.3,-.4c0,0,9.4,-13.9,9.8,-14.5c.1,-.1,.5,.3,.8,.7c.3,.4,.3,.6,.4,1c0,.4,0,.6,-.1,.8c-.2,.3,-9.1,13.1,-9.2,13.3q-.2,.1,-.6,-.3Z" class="ga_28"/>
<path d="M141.6,516.3c0,-.1,-.1,-.3,-.1,-.6c-.1,-.2,-.3,-.6,-.4,-.8l-.3,-.4l4.7,-6.8c2.6,-3.7,4.8,-6.8,4.8,-6.8c.4,0,1,.7,1,1.1c0,.2,-.6,1.2,-1.9,3.1c-1.1,1.6,-3.1,4.6,-4.6,6.8c-3,4.4,-3.1,4.6,-3.2,4.4Z" class="ga_28"/>
<path d="M131.9,517.8c2.3,-.1,3.6,.7,4.1,2.3" class="gb_28"/>
<path d="M132,521.7c0,-.4,.1,-.5,.1,-1.4c0,-.7,0,-.9,0,-1.3c0,-.3,0,-.6,0,-.7l.1,-.2c.1,-.1,.6,0,.7,0c.4,0,.8,.1,1.1,.2c.2,.1,.4,.2,.6,.3c.2,.1,.3,.2,.4,.4c.3,.2,.4,.4,.6,.7c0,.2,.1,.5,.1,.5c0,0,-1.5,.7,-1.8,.8c-.1,0,-.2,.1,-.3,.1c-1.1,.6,-1.4,.7,-1.6,.8Z" class="g6_28"/>
<path d="M136.2,519.6c-.6,-1.3,-1.8,-2,-3.4,-2.1l-.6,-.1v-.5c.1,-.2,.1,-1.2,.2,-2.2c0,-.9,.1,-1.8,.1,-1.9l.1,-.2h.7c.8,.1,2.3,.3,3.1,.5c1.7,.4,3.1,1.4,3.6,2.5c.4,.8,.6,2.1,.3,2.4c-.1,.1,-.8,.5,-2.5,1.3c-1.6,.7,-1.5,.6,-1.6,.3Z" class="gc_28"/>
<path d="M136.2,519.6c-.6,-1.3,-1.8,-2,-3.4,-2.1l-.6,-.1v-.5c.1,-.2,.1,-1.2,.2,-2.2c0,-.9,.1,-1.8,.1,-1.9l.1,-.2h.7c.8,.1,2.3,.3,3.1,.5c1.7,.4,3.1,1.4,3.6,2.5c.4,.8,.6,2.1,.3,2.4c-.1,.1,-.8,.5,-2.5,1.3c-1.6,.7,-1.5,.6,-1.6,.3Z" class="gd_28"/>
</g>
<path d="M152.7,523H552.5" class="g0_28"/>
<path d="M137.6,528.2V715" class="gf_28"/>
<path d="M117.7,1008.2V766H791.8v242.2Z" class="g1_28"/>
<path d="M117.7,1008.2V766H791.8v242.2Z" class="ge_28"/>
<g clip-path="url(#c3_28)">
<path clip-path="url(#c1_28)" d="M125.6,807.9c-.1,-.1,-.1,-.2,0,-.3c0,-.2,.1,-1.3,0,-1.7c0,-.2,0,-.5,0,-.7c.1,-.9,.3,-2.2,.3,-2.2c0,-.1,0,-.3,.1,-.6c.1,-.5,.1,-.6,-.1,-1c-.3,-.5,-.9,-2,-1.1,-2.7c-.4,-1.8,-.5,-4.6,-.1,-6.1c.3,-1.1,.5,-1.2,.9,-.5c.3,.7,.4,.5,0,-.3c-.3,-.7,-.6,-2,-.5,-2.4c0,-.2,.2,-.7,.4,-1.1c.2,-.4,.4,-1,.5,-1.2c.1,-.5,.5,-.7,.9,-.6c.1,.1,.2,.2,.3,.4q.2,.2,.1,-.3c-.1,-.3,-.2,-.5,-.1,-.5c0,-.1,0,-.2,0,-.4c.1,-.4,1,-2.1,1.6,-2.7c.3,-.2,.6,-.5,.7,-.7c.1,-.1,.5,-.4,.8,-.6c.3,-.3,.7,-.6,.9,-.8c.4,-.4,.7,-.5,.9,-.2q.2,.1,.2,-.2c0,-.2,0,-.4,0,-.5c.1,-.2,1.5,-1.2,2.1,-1.5c.3,-.1,.6,-.3,.8,-.4c.1,-.2,.3,-.3,.4,-.3c0,0,.4,-.2,.8,-.4c.4,-.2,.9,-.4,1,-.5c.2,-.1,.6,-.2,1,-.4c1.1,-.5,1.6,-.8,2.4,-1.1c.5,-.1,.9,-.3,1,-.3c0,-.1,.1,0,.3,.1l.2,.2l.4,-.4c.6,-.5,1.6,-.8,3.8,-1.1c.9,-.1,2.2,-.3,2.8,-.4l1,-.1l.1,.2q.1,.3,-.3,.5c-2.7,1,-4.6,2,-5.6,2.8c-.2,.2,-.4,.4,-.4,.4c-.1,0,-1.5,1.4,-1.5,1.5c0,.1,-.1,.2,-.2,.3c-.3,.2,-.6,.8,-.5,1.1c0,.2,-.1,.4,-.4,.6c-.3,.2,-.4,.3,-.4,.4c.2,.1,0,.9,-.2,1.1c-.7,.8,-1.7,2.3,-1.9,2.9c-.1,.1,-.2,.5,-.4,.8c-.2,.3,-.4,.7,-.5,1c-.4,1,-.4,.9,-1,1c-.5,0,-1.4,.3,-1.3,.4c0,.1,.4,0,.9,0c1.1,-.2,1.2,-.1,.8,.7c-.4,.7,-.7,1.6,-.7,2.1c0,.3,-.2,.8,-.6,2.3c-.1,.3,-.3,.5,-.7,.7c-.5,.3,-.6,.3,-1.2,.3q-.7,0,-.6,.2c.1,.2,-.1,.5,-.5,1.4c-.3,.6,-.7,1.2,-.8,1.3c-.2,.1,-.4,.5,-.6,.8c-.2,.2,-.4,.5,-.5,.5c0,0,-.2,.1,-.3,.3c-.6,.8,-2.7,2.6,-3,2.6l.3,-3.2c.1,.2,.4,0,.6,-.3c.2,-.3,.5,-.5,1.1,-.6c.5,0,.6,-.1,1,-.5c.2,-.2,.6,-.8,.9,-1.4l.5,-.9l-.5,-.3c-.3,-.1,-.6,-.3,-.7,-.4c-.1,-.2,.4,-.9,.7,-1.1c.2,0,.5,-.1,.7,-.1c.2,0,.5,-.2,.7,-.3c.3,-.1,.5,-.3,.7,-.3c.6,0,.8,-.4,.8,-1.3c.1,-.9,.2,-1.1,.5,-1.2c.4,-.2,.7,-.1,.9,.2l.1,.2l.1,-.3c.1,-.3,.1,-.4,-.1,-.4c-.1,.1,-.2,0,-.3,-.2c-.1,-.2,-.1,-.3,-.6,-.4c-.6,-.2,-.7,-.3,-.5,-.5c0,-.1,0,-.3,0,-.4c-.1,-.3,.4,-.8,1,-1c.5,-.2,.6,-.3,1.1,-1.3c.3,-.6,.8,-1.2,1,-1.4c.2,-.3,.5,-.6,.6,-.7c.1,-.2,.2,-.3,.4,-.2c.2,0,.4,-.1,.5,-.2c.2,-.2,.9,-1.1,.8,-1.2c0,0,-.2,.1,-.5,.2c-.8,.4,-1.8,.3,-2,0c-.2,-.3,.4,-1.2,.9,-1.2c.1,0,1.1,-.5,1.5,-.8c.1,-.1,.3,-.5,.5,-.8c.3,-.8,.8,-1.4,1.2,-1.5c.5,-.1,.7,-.3,.9,-.7c.2,-.5,.1,-.7,-.4,-.9c-.1,-.1,-.3,-.2,-.4,-.3c0,-.2,-.1,-.3,-.2,-.3c-.3,.1,-3,1.1,-4.1,1.7c-.2,.1,-.5,.4,-.7,.5c-.1,.2,-.5,.6,-.9,.9c-.4,.3,-.9,.7,-1,1c-.1,.2,-.4,.6,-.7,.9c-.4,.4,-.4,.5,-.4,1.2c-.1,.4,0,.9,.1,1.2c.3,.7,.2,1.1,-.3,1c-.5,0,-.8,-.4,-1.3,-1.5c-.3,-.6,-.6,-1.1,-.6,-1.1c-.2,.1,-.8,.8,-1.1,1.3c-.2,.5,-.3,.6,-.7,.8q-.5,.2,-.7,.7c-.1,.3,-.1,.7,-.1,.8c.1,.1,.1,.2,.1,.3c-.1,.4,-.1,.8,.1,1.3c.2,.2,.3,.6,.3,.7c0,.2,.1,.6,.3,1c.3,.5,.3,.7,.2,1.1c-.1,.3,-.1,.7,-.1,.8c-.1,.3,-.4,.2,-1.1,-.3c-.5,-.5,-1.2,-1.2,-2,-2.4c-.3,-.4,-.4,-.4,-.3,-.1c0,.1,-.1,.5,-.2,.8c-.2,.7,-.2,1.4,.2,1.8c.2,.3,.8,1.9,.9,2.3c0,.1,0,.4,.1,.5c.1,.2,.1,.9,-.1,1.2c0,.1,0,.3,0,.4c0,.2,-.1,.3,-.2,.3c-.2,0,-.7,-.4,-1,-.7c-.1,-.1,-.3,-.3,-.5,-.5l-.2,-.2l-.1,.1c-.1,.3,0,.8,.1,1.2c.3,.8,.4,2.4,.2,3c-.1,.1,-.2,.3,-.4,.4c-.4,.3,-.3,.6,.4,1.5l.4,.5l.1,-.3c.1,-.1,.2,-.5,.3,-.9c.1,-.4,.2,-.8,.3,-1c.1,-.2,.2,-.6,.3,-.8q.1,-.5,2.3,-5.3q1,-2.1,1.9,-3.3c.7,-1.2,1.3,-2.1,1.9,-3.1c.8,-1.3,.9,-1.6,1.4,-2.1c.3,-.4,.7,-.8,.9,-1.1c.9,-1.1,1.1,-1.4,1.3,-1.3c.1,0,.2,.1,.2,.1c0,.1,-.2,.4,-.5,.8c-.3,.5,-.8,1.2,-1,1.6c-.9,1.4,-2.1,3.4,-2.5,3.9c-.2,.4,-.5,.8,-.6,1c-.1,.2,-.4,.6,-.5,.9c-.2,.2,-.3,.6,-.4,.7c0,.3,-.1,.7,-1.1,2.6c-.8,1.5,-1,1.9,-1.7,3.7c-.5,1,-.8,2.1,-.7,2.3l-.3,3.2c-.3,.1,-.5,1.9,-.2,3c.1,.7,.1,1,-.2,1.2c-.6,.5,-1.1,1.2,-1.3,1.7c-.1,.4,-.2,.5,-.4,.6c-.2,0,-.2,-.1,-.3,-.2Z" class="gg_28"/>
<path d="M133.1,794.4c-.1,-.1,-.3,-.1,-.4,-.1q-.1,0,0,.1c.1,.1,.3,.1,.4,.1q.2,0,0,-.1Z" class="g1_28"/>
<path d="M144.5,775.3q0,-.1,-.1,-.1c-.1,0,-.1,.1,-.2,.2q0,.1,.1,.1c.1,0,.2,-.1,.2,-.2Z" class="g1_28"/>
<path d="M125.7,808c-.1,-.1,-.1,-.2,-.1,-.3c.1,-.2,.1,-.9,.1,-1.7c0,-1.4,.1,-2.2,.4,-3.5l.1,-.7l-.5,-.9c-.3,-.6,-.5,-1.3,-.6,-1.7c-.1,-.3,-.3,-.8,-.3,-.9c-.2,-.7,-.3,-2.9,-.3,-4c.1,-1,.5,-2.5,.7,-2.5c.1,0,.2,.1,.4,.5c.5,.8,.7,.8,.3,0c-.4,-.9,-.7,-1.9,-.7,-2.5c0,-.5,.5,-2,.9,-2.8c.2,-.3,.3,-.5,.5,-.5q.3,0,.9,.9l.5,.7l-.4,-.7c-.5,-1.1,-.4,-1.7,.3,-2.9c.3,-.5,.6,-1,.7,-1.1c.1,-.1,.4,-.4,.6,-.7c.3,-.3,.8,-.7,1.2,-1c.3,-.2,.7,-.6,.9,-.8c.4,-.5,.6,-.5,1,.1l.2,.4l-.1,-.5c-.1,-.8,0,-1,.8,-1.6c.5,-.3,.9,-.5,1,-.6c0,0,.1,0,.1,-.1c0,0,.1,-.1,.3,-.1q.2,0,.2,.1c-.1,.1,-.1,.2,-.2,.2c-.1,0,-.4,.2,-.7,.5c-.4,.3,-.8,.6,-.9,.7c-.3,.1,-.3,.3,-.3,.7c0,.3,.1,.7,.2,.8c.1,.5,.1,1,0,1c-.2,0,-.4,-.2,-.7,-.8l-.3,-.7l-.4,.3c-.1,.1,-.3,.3,-.3,.3c-.1,0,-.3,.2,-.6,.5c-.3,.2,-.6,.4,-.7,.5c-.1,.1,-.3,.4,-.6,.6c-.6,.7,-1.6,2.3,-1.5,2.6c.1,.3,1,2.2,1.7,3.5c.5,.9,.6,1,.4,1c-.2,0,-1.2,-.8,-1.6,-1.4c-.3,-.3,-.6,-.7,-.8,-.9c-.1,-.2,-.3,-.5,-.4,-.7c-.2,-.4,-.4,-.4,-.6,0c-.3,.5,-.8,2.1,-.9,2.5c-.1,.8,.6,2.7,1.5,3.8c.7,1,.7,1.3,-.1,.8c-.3,-.2,-1.3,-1.2,-1.5,-1.6c0,-.1,-.1,-.2,-.1,-.2c-.2,.1,-.4,1.1,-.4,1.7c0,.4,0,.8,-.1,.9c0,.1,0,.7,.1,1.3c.1,.6,.1,1.3,.1,1.5c.1,.7,1,3.1,1.1,3q.1,0,.1,0c0,-.1,.1,-.6,.3,-1.2c.2,-.5,.3,-1.2,.4,-1.4c0,-.2,.1,-.4,.1,-.5c.1,-.1,.2,-.4,.3,-.7c.1,-.5,.2,-.9,1.1,-2.7c.3,-.5,.7,-1.4,.9,-1.9c.8,-1.7,1.6,-3.2,2.2,-4.2c.7,-1,1.1,-1.6,1.9,-3c.2,-.3,.6,-.8,.7,-1c.2,-.2,.3,-.5,.3,-.6c.1,-.1,.3,-.4,.6,-.7c.2,-.3,.6,-.7,.8,-1c.9,-1.2,1.1,-1.3,1.2,-1.3c.2,.1,.2,.2,-.6,1.2c-.2,.3,-.6,.8,-.8,1.2c-.8,1.4,-2.1,3.5,-2.4,3.9c-.6,.8,-1.5,2.5,-1.5,2.7c0,.2,-.5,1.4,-1.2,2.7c-.7,1.3,-1.3,2.6,-1.5,3c-.1,.4,-.3,.8,-.3,.8c-.1,.1,-.5,1.3,-.6,1.8c0,.3,-.1,.7,-.1,1c-.2,.7,-.3,2,-.3,2.1c0,0,.1,0,.3,-.1c.1,-.2,.3,-.4,.6,-.5c.2,-.2,.5,-.5,.8,-.7c.2,-.3,.4,-.5,.5,-.5c.6,-.6,.9,-1,1.2,-1.5c.3,-.3,.6,-.7,.7,-.8c.3,-.3,1.2,-2,1.2,-2.1c-.1,0,-.4,-.3,-.9,-.5c-.9,-.5,-1,-.6,-.8,-.7c.1,-.1,1,0,1.8,.2c.2,.1,.7,.1,1,.1c.9,-.1,1.4,-.4,1.6,-1.1c.1,-.2,.2,-.5,.2,-.7c.1,-.3,.3,-1,.3,-1.6c.1,-.5,.4,-1.2,.6,-1.6l.2,-.3h-.5c-.5,.1,-1.6,-.1,-1.7,-.3c-.1,-.2,.7,-.6,1.6,-.8l.8,-.2l.2,-.5c.2,-.4,.3,-.8,.4,-.9c0,-.2,.1,-.4,.2,-.5c.1,-.1,.3,-.3,.4,-.6c0,-.2,.3,-.6,.4,-.9c1.4,-1.9,1.6,-2.3,1.5,-2.3c-.1,0,-.4,.1,-.6,.2c-.7,.4,-1.5,.4,-1.5,.1c0,-.3,1.8,-1.3,2.7,-1.6q.4,-.1,.4,-.5c0,-.3,.2,-.6,.3,-.8c.1,-.2,.3,-.5,.4,-.7c.3,-.5,2.2,-2.2,3.2,-2.8c.7,-.4,1.8,-1,2.7,-1.3l.7,-.3l-1.6,.2c-2.6,.3,-3.7,.6,-4.4,1.4c-.3,.4,-.4,.4,-.5,.1c-.1,-.2,.6,-.9,1.2,-1.1c.6,-.3,1.7,-.6,2.4,-.6c.4,-.1,1.5,-.2,2.5,-.4c1.5,-.3,1.8,-.3,1.9,-.2c.4,.2,.3,.4,-.2,.6c-1.1,.4,-2.2,.8,-2.9,1.2c-.7,.3,-2,1,-2.2,1.2c-.1,.1,-.3,.3,-.6,.5c-.9,.8,-1.6,1.5,-1.8,1.8c-.1,.2,-.3,.4,-.4,.6c-.1,.1,-.3,.4,-.3,.7c0,.3,-.1,.4,-.4,.6c-.2,.2,-.5,.3,-.6,.3h-.2l.2,.1c.4,.1,.5,.2,.3,.4c0,.1,-.1,.3,-.1,.3c.1,.1,-.1,.4,-.4,.7c-.2,.2,-.5,.6,-.6,.8c-.1,.1,-.3,.5,-.4,.7c-.4,.5,-.6,.9,-.7,1.2c0,.1,-.2,.4,-.4,.7c-.3,.5,-.4,.8,-.7,1.6c-.1,.3,-.2,.4,-.7,.5c-.7,.1,-1.5,.3,-1.4,.4c0,.1,.4,0,.9,0c.8,-.1,.9,-.1,1,0c.1,.2,.1,.3,-.2,.7c-.3,.6,-.7,1.7,-.7,2.1c0,.4,-.3,1.3,-.6,2.2c-.1,.3,-.2,.5,-.6,.7c-.5,.3,-.6,.3,-1.2,.4c-.4,0,-.9,-.1,-1,-.1c-.2,-.1,-.5,-.2,-.8,-.2l-.6,-.1l.5,.2c.3,.1,.6,.2,.7,.3q.5,0,.6,.1c.1,.2,-.9,2.1,-1.3,2.6c-.2,.2,-.5,.5,-.7,.8c-.1,.2,-.3,.5,-.4,.6c-.2,.1,-.4,.3,-.6,.5c-.4,.5,-1.3,1.4,-1.7,1.6c-.1,.1,-.4,.3,-.5,.4c-.1,.1,-.3,.3,-.5,.4c-.2,0,-.3,.2,-.3,.4c-.1,.5,-.1,1.9,-.1,2.1c0,.1,.1,.5,.1,.8c.1,.6,.1,.7,-.2,.9c-.4,.3,-1,1.1,-1.3,1.7c-.1,.3,-.2,.5,-.2,.6c-.1,0,-.2,-.1,-.3,-.1Z" class="gh_28"/>
<path d="M128.2,787.6q-.1,-.2,-.1,-.1c-.1,.2,0,.3,.1,.3c.1,0,.1,-.1,0,-.2Z" class="gh_28"/>
<path d="M139.7,781.7c.2,-.1,.5,-.3,.7,-.4l.2,-.2l-.3,.1c-.5,.1,-1.4,.6,-1.4,.7c0,.1,.3,0,.8,-.2Z" class="gi_28"/>
<path d="M139.7,781.7c.4,-.2,.6,-.4,.2,-.3c-.3,.1,-.9,.4,-.7,.4c0,0,.3,0,.5,-.1Z" class="g1_28"/>
<path d="M134.9,778.4c0,-.1,.6,-.5,.7,-.4c.2,.1,.2,.2,-.1,.3c-.1,0,-.3,.1,-.4,.1q-.1,.1,-.2,0Z" class="gh_28"/>
<path d="M136.2,777.7c.1,-.1,.2,-.2,.3,-.2q.2,0,.1,.2c-.1,.1,-.2,.2,-.3,.2q-.2,0,-.1,-.2Z" class="gh_28"/>
<path d="M137.1,777.2c.1,-.2,.6,-.3,.7,-.2c0,.1,-.5,.3,-.7,.4c-.1,0,-.1,-.1,0,-.2Z" class="gh_28"/>
<path d="M137.9,776.9c0,-.1,.8,-.5,1.3,-.7c.3,-.1,.6,-.2,.7,-.3c.4,-.2,1.9,-.8,2.1,-.7c.2,.1,.1,.3,-.2,.3c-.5,.1,-1.7,.5,-3,1.1c-.6,.3,-.8,.4,-.9,.3Z" class="gh_28"/>
<path d="M125.7,807.9c0,0,0,-.2,0,-.2c0,-.1,.1,-.7,.1,-1.3c0,-1.3,0,-1.9,.3,-4l.1,-.6l-.5,-1.1c-.3,-.6,-.5,-1.2,-.6,-1.5c-.1,-.4,-.2,-.8,-.2,-1c-.3,-1,-.4,-4.1,-.1,-5.2c.1,-.3,.2,-.8,.2,-.9c.1,-.4,.2,-.3,.7,.3c.6,1.1,.9,1,.3,-.1c-.4,-.6,-.8,-2,-.8,-2.6c0,-.3,.6,-1.9,1,-2.6c.1,-.3,.2,-.5,.4,-.5c.2,0,.3,0,.5,.4c.5,.6,.6,.9,.5,.8c-.1,0,-.3,-.2,-.4,-.4c-.4,-.7,-.6,-.6,-1.2,.9c-.7,1.8,-.6,2.4,.7,4.7c.5,.8,.8,1.5,.7,1.5c-.2,.1,-1.4,-1.1,-1.7,-1.6c-.1,-.1,-.2,-.2,-.3,-.3q-.1,-.1,-.2,.1c-.3,.8,-.4,2.5,-.2,4c0,.6,.1,1.2,.1,1.4c0,.5,1,3.1,1.2,3.1c.1,0,.1,-.1,.1,-.3c0,-.1,.1,-.7,.3,-1.2c.2,-.6,.3,-1.2,.4,-1.4c0,-.2,0,-.3,.1,-.3c.1,0,.4,-1.1,.4,-1.2c0,-.1,.1,-.3,.2,-.7c.9,-1.8,1.3,-2.7,1.6,-3.5c.8,-1.5,1.6,-3.1,2.3,-4.1c.7,-1.2,1.3,-2.2,1.9,-3.1c.2,-.4,.5,-.8,.7,-1c.1,-.2,.3,-.4,.3,-.5c0,-.1,.6,-.8,.9,-1.1c.1,-.1,.3,-.4,.5,-.6c.6,-.9,1,-1.4,1.1,-1.3q.1,0,-.6,.9c-.2,.4,-.7,1,-.9,1.5c-.8,1.3,-2,3.3,-2.3,3.7c-.6,.7,-1.6,2.6,-1.6,2.9c0,.1,-.5,1.3,-1.2,2.5c-.6,1.3,-1.3,2.6,-1.4,3c-.2,.4,-.4,1.1,-.6,1.4c-.2,.7,-.4,1.5,-.4,1.9c0,.1,-.1,.4,-.1,.6c-.1,.2,-.2,.7,-.2,1.2c-.1,.6,-.1,.7,.1,.7c.1,0,.2,0,.2,-.1c.1,-.1,.3,-.3,.6,-.5c.3,-.2,.5,-.4,.6,-.5c0,-.1,.3,-.3,.5,-.5c.7,-.6,1.1,-1.1,1.5,-1.7c.3,-.3,.6,-.7,.7,-.8c.2,-.2,1.1,-1.8,1.1,-2c0,-.2,-.1,-.2,-.6,-.5c-.7,-.4,-.6,-.4,.1,-.1c.3,.1,.6,.2,.7,.1c.4,-.1,.3,.3,-.2,1.3c-.3,.6,-.7,1.3,-.9,1.4c-.1,.2,-.4,.5,-.6,.8c-.2,.3,-.4,.5,-.5,.6c-.1,.1,-.3,.3,-.5,.5c-.1,.2,-.4,.5,-.6,.6c-.2,.2,-.5,.5,-.6,.6c-.1,.2,-.3,.3,-.3,.3c-.1,0,-.3,.2,-.5,.4c-.2,.2,-.5,.4,-.7,.4c-.2,.1,-.3,.2,-.3,.7c-.1,.3,-.1,.7,-.1,.7c0,0,0,.3,0,.6c0,.2,.1,.7,.1,.9c.2,.9,.1,1.2,-.1,1.3c-.4,.3,-1.1,1.2,-1.3,1.8c-.2,.5,-.3,.5,-.5,.4Z" class="gj_28"/>
<path d="M134,794.4c-.4,0,-.8,-.1,-1,-.2c-.2,0,-.4,-.1,-.5,-.1c-.1,.1,-.3,0,-.4,0c-.1,-.1,-.3,-.1,-.4,-.1c-.1,.1,-.2,.1,-.3,0c-.1,-.2,.3,-.2,1.8,.1c1.4,.2,2.5,-.2,2.7,-1c0,-.2,.1,-.6,.2,-.8c.1,-.2,.2,-.6,.2,-.8c.1,-.4,.1,-.8,.3,-1.6c.1,-.3,.2,-.6,.4,-.8c.1,-.1,.2,-.3,.1,-.3c0,-.1,-.2,-.1,-.4,0c-.4,.1,-1.6,-.1,-1.7,-.3c-.1,-.3,.8,-.7,2,-.8c.3,-.1,.4,-.1,.6,-.8c.6,-1.4,1.6,-3.2,2.9,-4.9c.1,-.1,.1,-.2,0,-.2c0,-.1,-.3,0,-.7,.1c-.6,.3,-1.3,.4,-1.4,.2c0,-.1,0,-.2,.1,-.2q.2,-.1,.2,.1q.1,.1,.1,.1c.3,0,1.3,-.5,1.6,-.7c.3,-.2,.6,-.3,.6,-.2c.1,.2,-.1,.9,-.2,1c-.2,.1,-.5,.6,-.7,.9c-.1,.2,-.4,.5,-.6,.8c-.3,.6,-.5,.9,-.6,1.2c-.1,.1,-.3,.5,-.4,.8c-.3,.5,-.6,1,-.8,1.6c-.1,.3,-.2,.3,-.7,.4c-.8,.1,-1.6,.5,-1.4,.6c0,.1,.4,0,1,0c.8,-.2,.9,-.2,1,0c0,0,-.1,.3,-.3,.6c-.3,.6,-.6,1.6,-.7,2.1c0,.2,-.1,.7,-.2,1c-.1,.3,-.2,.6,-.2,.8c-.1,.5,-.4,.9,-.8,1.1c-.6,.3,-.7,.3,-1.4,.3Z" class="gj_28"/>
<path d="M129.6,790.1c-.2,-.1,-.4,-.3,-.5,-.4c-.3,-.2,-1,-1,-1,-1.1c0,-.1,.1,-.1,.1,-.1c.1,0,.5,.4,.6,.6c.1,0,.2,.1,.2,.1c.1,0,.1,-.1,-.1,-.3c-.1,-.2,-.3,-.5,-.4,-.8c-.1,-.2,-.4,-.9,-.6,-1.4c-.3,-.5,-.5,-1,-.5,-1.1c0,-.1,.2,-.6,.5,-1.1c.6,-1,1.6,-2.1,2.5,-2.8c.4,-.2,.8,-.5,.9,-.7c.4,-.5,.6,-.5,.9,.2c.2,.5,.3,.5,.4,.5c.1,-.1,.2,-.1,.2,-.1c0,0,.1,.2,.1,.4c.1,.6,-.1,.5,-.6,-.3c-.4,-.8,-.5,-.8,-.7,-.5c-.1,.1,-.7,.6,-1.1,.8c-.7,.5,-1.8,1.8,-2.5,3l-.4,.7l.7,1.3c.7,1.5,1.1,2.2,1.5,2.8c.2,.4,.2,.5,-.2,.3Z" class="gj_28"/>
<path d="M128.1,788.1c-.1,-.1,0,-.2,0,-.2c.1,0,.1,.1,.2,.2q0,.1,0,.1c-.1,0,-.2,0,-.2,-.1Z" class="gj_28"/>
<path d="M127.6,787.1c-.3,-.6,-.2,-.8,0,-.5c.2,.3,.4,.9,.3,1c-.1,0,-.2,-.1,-.3,-.5Z" class="gj_28"/>
<path d="M140.1,781c.5,-.3,1.1,-.5,1.2,-.4c.1,.2,-.1,.2,-.8,.4c-.8,.2,-.9,.2,-.4,0Z" class="gj_28"/>
<path d="M141.5,780.5c0,0,0,-.2,0,-.5c0,-.4,.7,-1.6,1.3,-2.2c1.7,-1.7,3.9,-3,5.7,-3.6c.6,-.2,.6,-.3,-.1,-.2c-.3,.1,-1.3,.2,-2.2,.4c-1,.1,-1.9,.3,-2.1,.3c-.4,.2,-1.2,.7,-1.5,1c-.2,.2,-.3,.3,-.4,.1c-.1,-.2,.9,-1,1.4,-1.1c1.1,-.4,1.4,-.5,2.1,-.5c.4,-.1,1.6,-.2,2.6,-.4c1.8,-.3,2,-.3,2.1,-.1c0,.1,-.3,.3,-.7,.4c-2.5,.9,-4.4,1.9,-5.3,2.8c-.2,.2,-.4,.3,-.4,.3c-.1,0,-.2,.1,-.3,.2c-.1,.1,-.3,.4,-.6,.6c-.2,.2,-.5,.6,-.6,.7c-.1,.2,-.3,.5,-.5,.6c-.1,.2,-.2,.5,-.3,.7c0,.3,-.1,.6,-.2,.5Z" class="gj_28"/>
<path d="M132.6,781c-.1,-.2,-.2,-.8,-.1,-1c0,-.1,.3,-.3,.6,-.5c.3,-.2,.7,-.5,.8,-.5l.2,-.2l-.1,.2c-.2,.3,-1,.9,-1.2,1.1c-.1,0,-.2,.2,-.2,.3c0,.2,0,.4,0,.5q0,.2,0,.1Z" class="gj_28"/>
<path d="M141.5,775.4c.2,-.2,.5,-.2,.5,-.1c0,.1,-.1,.1,-.3,.2q-.4,0,-.2,-.1Z" class="gj_28"/>
<path d="M125.7,807.9c0,0,0,-.2,0,-.2c0,-.1,.1,-.7,.1,-1.3c0,-1.2,0,-1.8,.4,-4.1c0,-.5,0,-.6,-.5,-1.6c-.3,-.6,-.5,-1.2,-.6,-1.5c-.1,-.4,-.2,-.8,-.2,-1c-.3,-1,-.4,-4.1,-.1,-5.2c.1,-.3,.2,-.8,.2,-.9c.1,-.4,.2,-.3,.7,.3c.6,1.1,.9,1,.3,-.1c-.4,-.6,-.8,-2,-.8,-2.6c0,-.3,.6,-1.9,1,-2.6c.1,-.3,.2,-.5,.4,-.5c.2,0,.3,0,.5,.4c.5,.6,.6,.9,.5,.8c-.1,0,-.3,-.2,-.4,-.4c-.4,-.7,-.6,-.6,-1.2,.9c-.7,1.8,-.6,2.4,.7,4.7c.5,.8,.8,1.5,.7,1.5c-.2,.1,-1.4,-1.1,-1.7,-1.6c-.1,-.1,-.2,-.2,-.3,-.3q-.1,-.1,-.2,.1c-.3,.8,-.4,2.5,-.2,4c0,.6,.1,1.2,.1,1.4c0,.5,1,3.1,1.2,3.1c.1,0,.1,-.1,.1,-.3c0,-.1,.1,-.7,.3,-1.2c.2,-.6,.3,-1.2,.4,-1.4c0,-.2,0,-.3,.1,-.3c.1,0,.4,-1.1,.4,-1.2c0,-.1,.1,-.3,.2,-.7c.9,-1.8,1.3,-2.7,1.6,-3.5c.8,-1.5,1.6,-3.1,2.3,-4.1c.7,-1.2,1.3,-2.2,1.9,-3.1c.2,-.4,.5,-.8,.7,-1c.1,-.2,.3,-.4,.3,-.5c0,-.1,.6,-.8,.9,-1.1c.1,-.1,.3,-.4,.5,-.6c.6,-.9,1,-1.4,1.1,-1.3q.1,0,-.7,1.1c-1.5,1.9,-2.3,3.2,-3.6,5.4c-.3,.4,-.7,1,-1,1.5c-.4,.5,-.5,.8,-.4,.8c.4,0,.3,.4,-.8,2.7c-.7,1.3,-1.4,2.6,-1.5,3c-.2,.4,-.4,1.1,-.6,1.4c-.2,.7,-.4,1.5,-.4,1.9c0,.1,-.1,.4,-.1,.6c-.1,.2,-.2,.7,-.2,1.2c-.1,.6,-.1,.7,.1,.7c.1,0,.2,0,.2,-.1c.1,-.1,.3,-.3,.6,-.5c.3,-.2,.5,-.4,.6,-.5c0,-.1,.3,-.3,.5,-.5c.7,-.6,1.1,-1.1,1.5,-1.7c.3,-.3,.6,-.7,.7,-.8c.2,-.2,1.1,-1.8,1.1,-2c0,-.2,-.1,-.2,-.6,-.5c-.7,-.4,-.6,-.4,.1,-.1c.3,.1,.6,.2,.7,.1c.4,-.1,.3,.3,-.2,1.3c-.3,.6,-.7,1.3,-.9,1.4c-.1,.2,-.4,.5,-.6,.8c-.2,.3,-.4,.5,-.5,.6c-.1,.1,-.3,.3,-.5,.5c-.1,.2,-.4,.5,-.6,.6c-.2,.2,-.5,.5,-.6,.6c-.1,.2,-.3,.3,-.3,.3c-.1,0,-.3,.2,-.5,.4c-.2,.2,-.5,.4,-.7,.4c-.2,.1,-.3,.2,-.3,.7c-.1,.3,-.1,.7,-.1,.7c0,0,0,.3,0,.6c0,.2,.1,.7,.1,.9c.2,.9,.1,1.2,-.1,1.3c-.4,.3,-1.1,1.2,-1.3,1.8c-.2,.5,-.3,.5,-.5,.4Z" class="gk_28"/>
<path d="M134,794.4c-.4,0,-.8,-.1,-1,-.2c-.2,0,-.4,-.1,-.5,-.1c-.1,.1,-.3,0,-.4,0c-.1,-.1,-.3,-.1,-.4,-.1c-.1,.1,-.2,.1,-.3,0c-.1,-.2,.3,-.2,1.8,.1c1.4,.2,2.5,-.2,2.7,-1c0,-.2,.1,-.6,.2,-.8c.1,-.2,.2,-.6,.2,-.8c.1,-.4,.1,-.8,.3,-1.6c.1,-.3,.2,-.6,.4,-.8c.1,-.1,.2,-.3,.1,-.3c0,-.1,-.2,-.1,-.4,0c-.4,.1,-1.6,-.1,-1.7,-.3c-.1,-.3,.8,-.7,2,-.8c.3,-.1,.4,-.1,.6,-.8c.6,-1.4,1.6,-3.2,2.9,-4.9c.1,-.1,.1,-.2,0,-.2c0,-.1,-.3,0,-.7,.1c-.6,.3,-1.3,.4,-1.4,.2c0,-.1,0,-.2,.1,-.2q.2,-.1,.2,.1q.1,.1,.1,.1c.3,0,1.3,-.5,1.6,-.7c.3,-.2,.6,-.3,.6,-.2c.1,.2,-.1,.9,-.2,1c-.2,.1,-.5,.6,-.7,.9c-.1,.2,-.4,.5,-.6,.8c-.3,.6,-.5,.9,-.6,1.2c-.1,.1,-.3,.5,-.4,.8c-.3,.5,-.6,1,-.8,1.6c-.1,.3,-.2,.3,-.7,.4c-.8,.1,-1.6,.5,-1.4,.6c0,.1,.4,0,1,0c.8,-.2,.9,-.2,1,0c0,0,-.1,.3,-.3,.6c-.3,.6,-.6,1.6,-.7,2.1c0,.2,-.1,.7,-.2,1c-.1,.3,-.2,.6,-.2,.8c-.1,.5,-.4,.9,-.8,1.1c-.6,.3,-.7,.3,-1.4,.3Z" class="gk_28"/>
<path d="M129.6,790.1c-.2,-.1,-.4,-.3,-.5,-.4c-.3,-.2,-1,-1,-1,-1.1c0,-.1,.1,-.1,.1,-.1c.1,0,.5,.4,.6,.6c.1,0,.2,.1,.2,.1c.1,0,.1,-.1,-.1,-.3c-.1,-.2,-.3,-.5,-.4,-.8c-.1,-.2,-.4,-.9,-.6,-1.4c-.3,-.5,-.5,-1,-.5,-1.1c0,-.1,.2,-.6,.5,-1.1c.6,-1,1.6,-2.1,2.5,-2.8c.4,-.2,.8,-.5,.9,-.7c.4,-.5,.6,-.5,.9,.2c.2,.5,.3,.5,.4,.5c.1,-.1,.2,-.1,.2,-.1c0,0,.1,.2,.1,.4c.1,.6,-.1,.5,-.6,-.3c-.4,-.8,-.5,-.8,-.7,-.5c-.1,.1,-.7,.6,-1.1,.8c-.7,.5,-1.8,1.8,-2.5,3l-.4,.7l.7,1.3c.7,1.5,1.1,2.2,1.5,2.8c.2,.4,.2,.5,-.2,.3Z" class="gk_28"/>
<path d="M128.1,788.1c-.1,-.1,0,-.2,0,-.2c.1,0,.1,.1,.2,.2q0,.1,0,.1c-.1,0,-.2,0,-.2,-.1Z" class="gk_28"/>
<path d="M127.6,787.1c-.3,-.6,-.2,-.8,0,-.5c.2,.3,.4,.9,.3,1c-.1,0,-.2,-.1,-.3,-.5Z" class="gk_28"/>
<path d="M140.1,781c.5,-.3,1.1,-.5,1.2,-.4c.1,.2,-.1,.2,-.8,.4c-.8,.2,-.9,.2,-.4,0Z" class="gk_28"/>
<path d="M141.5,780.5c0,0,0,-.2,0,-.5c0,-.4,.7,-1.6,1.3,-2.2c1.7,-1.7,3.9,-3,5.7,-3.6c.6,-.2,.6,-.3,-.1,-.2c-.3,.1,-1.3,.2,-2.2,.4c-1,.1,-1.9,.3,-2.1,.3c-.4,.2,-1.2,.7,-1.5,1c-.2,.2,-.3,.3,-.4,.1c-.1,-.2,.9,-1,1.4,-1.1c1.1,-.4,1.4,-.5,2.1,-.5c.4,-.1,1.6,-.2,2.6,-.4c1.8,-.3,2,-.3,2.1,-.1c0,.1,-.3,.3,-.7,.4c-2.5,.9,-4.4,1.9,-5.3,2.8c-.2,.2,-.4,.3,-.4,.3c-.1,0,-.2,.1,-.3,.2c-.1,.1,-.3,.4,-.6,.6c-.2,.2,-.5,.6,-.6,.7c-.1,.2,-.3,.5,-.5,.6c-.1,.2,-.2,.5,-.3,.7c0,.3,-.1,.6,-.2,.5Z" class="gk_28"/>
<path d="M132.6,781c-.1,-.2,-.2,-.8,-.1,-1c0,-.1,.3,-.3,.6,-.5c.3,-.2,.7,-.5,.8,-.5l.2,-.2l-.1,.2c-.2,.3,-1,.9,-1.2,1.1c-.1,0,-.2,.2,-.2,.3c0,.2,0,.4,0,.5q0,.2,0,.1Z" class="gk_28"/>
<path d="M141.5,775.4c.2,-.2,.5,-.2,.5,-.1c0,.1,-.1,.1,-.3,.2q-.4,0,-.2,-.1Z" class="gk_28"/>
<path d="M127.2,805.5c.1,0,.1,-.2,.1,-.5c-.1,-.2,-.1,-.9,-.1,-1.4c0,-.5,0,-1,0,-1.1c0,0,0,-.1,0,-.3c0,-.1,.1,-.4,.1,-.7c.1,-1.4,.1,-1.6,.5,-3.2c0,-.2,.1,-.5,.1,-.7c.2,-.9,1.2,-3.2,2.4,-5.4c.6,-1.3,.9,-2,.9,-2.1c0,-.1,-.3,.4,-.6,1c-.3,.6,-.7,1.4,-.9,1.8c-.9,1.7,-1.9,4,-2,4.5c0,.2,-.2,.6,-.3,.8c0,.3,-.1,.5,-.1,.5c.1,.1,-.3,1.3,-.5,1.8c0,.3,-.1,.6,-.1,.9c-.1,.2,-.2,.7,-.2,1c-.3,1,-.5,2.6,-.3,2.9c0,0,.2,.1,.4,.2c.4,.2,.3,.2,.6,0Z" class="gj_28"/>
<path d="M124.9,798.3c-.1,-.2,-.3,-2.1,-.3,-3.2c0,-.8,.1,-1.6,.2,-2.2c.1,-.4,.2,-.7,.2,-.8c.1,-.4,.3,-.3,.6,.2c.1,.3,.4,.7,.6,.9l.3,.4l-.1,-.4c-.1,-.3,-.4,-.8,-.5,-1.2c-.4,-.8,-.7,-2.2,-.6,-2.7c.1,-.4,.6,-1.6,.9,-2.2c.2,-.5,.6,-.7,.8,-.3q0,.1,-.2,.1c-.2,.1,-.3,.2,-.5,.5c-.6,1.3,-.8,2.3,-.8,2.9c.1,.3,.3,1,.5,1.5c.3,.8,.5,1.1,1,1.8c.3,.4,.5,.8,.5,.9c0,.1,-.6,-.2,-.9,-.5c-.1,-.2,-.3,-.4,-.4,-.5c-.1,-.1,-.4,-.4,-.6,-.7l-.3,-.5l-.1,.3c-.4,.9,-.5,2.5,-.3,4.3c.1,1.2,.1,1.6,0,1.4Z" class="gl_28"/>
<path d="M133.7,794.4c-.2,0,-.4,-.1,-.6,-.2c-.2,0,-.4,-.1,-.5,-.1c-.2,0,-.8,-.1,-.8,-.2c0,0,.5,0,1,.1c1.3,.2,2,.2,2.5,-.2c.4,-.2,.5,-.4,.8,-1.2c.2,-1,.3,-1.2,.3,-1.6c.1,-.6,.2,-1.1,.6,-1.7c.1,-.3,.2,-.6,.2,-.6c0,0,-.2,0,-.5,.1c-.3,0,-.5,0,-1.1,-.1l-.6,-.2l.1,-.1c.2,-.3,.8,-.5,1.6,-.7l.7,-.1l.3,-.6c.5,-1.4,1.6,-3.3,2.4,-4.5c.3,-.3,.5,-.7,.4,-.8q0,-.1,-.7,.2q-.7,.3,-.7,.2c0,0,.2,-.1,.3,-.1c.2,-.1,.5,-.3,.8,-.5c.4,-.2,.7,-.3,.8,-.3c.2,.1,-.1,.8,-.5,1.2c-.7,.8,-2,3.1,-2.6,4.6c-.1,.2,-.2,.5,-.3,.6c0,.1,-.2,.2,-.3,.2c-.8,.1,-1,.2,-1.4,.3c-.5,.2,-.5,.3,-.3,.4c0,.1,.3,0,1,0c.7,-.1,.9,-.1,.9,0c.1,0,-.1,.4,-.3,.8c-.4,.7,-.6,1.4,-.6,2c0,.1,-.1,.6,-.2,1c-.2,.3,-.2,.7,-.2,.7c0,0,-.1,.3,-.2,.5c-.3,.6,-1.2,1,-2.3,.9Z" class="gl_28"/>
<path d="M131.5,794q0,-.1,.1,-.1c0,0,.1,0,.1,0c0,0,0,.1,-.1,.1h-.1Z" class="gl_28"/>
<path d="M129.3,789.8c-.6,-.4,-1.3,-1.4,-.9,-1.1c.1,.1,.3,.2,.3,.3c.1,.1,.4,.3,.5,.2c0,-.1,.5,.4,.6,.7c.1,.2,.1,.3,.1,.3c0,0,-.3,-.2,-.6,-.4Z" class="gl_28"/>
<path d="M128.8,788.7c0,0,-.2,-.3,-.2,-.5c-.1,-.2,-.4,-.8,-.6,-1.3c-.3,-.5,-.5,-1,-.6,-1.1c0,-.2,.8,-1.9,1.2,-2.3c.1,-.1,.4,-.4,.7,-.7c.3,-.3,.6,-.7,.8,-.8c.6,-.4,.9,-.7,1.3,-1.1c.2,-.2,.4,-.3,.4,-.3c.3,.1,.3,.3,.1,.3c-.1,0,-.4,.3,-.7,.6c-.4,.2,-.7,.5,-.7,.5c-.2,0,-.4,.2,-.9,.9c-.3,.3,-.5,.5,-.6,.5c0,0,-.9,1.3,-1.2,1.8c-.2,.5,-.2,.6,.4,1.8c.8,1.5,.9,2,.6,1.7Z" class="gl_28"/>
<path d="M127.2,787.4c-.1,-.1,-.1,-.2,0,-.2c.1,0,.2,.1,.3,.3c0,.1,0,.2,0,.2c-.1,0,-.2,-.1,-.3,-.3Z" class="gl_28"/>
<path d="M127.6,787.2c0,-.2,-.1,-.4,-.2,-.5c0,-.1,0,-.2,0,-.2c.1,0,.5,.6,.5,.8c0,.2,-.2,.1,-.3,-.1Z" class="gl_28"/>
<path d="M138.4,782.1c0,-.1,.1,-.1,.2,-.1c0,0,.1,0,.2,.1c0,0,-.1,0,-.2,.1c-.1,0,-.2,-.1,-.2,-.1Z" class="gl_28"/>
<path d="M132.5,782.1c-.1,-.3,.1,-.5,.3,-.2c.1,.3,.1,.4,0,.5c-.1,0,-.2,-.1,-.3,-.3Z" class="gl_28"/>
<path d="M140.3,780.9c-.1,0,.8,-.3,.9,-.3q.1,.1,0,.2c-.3,.1,-.9,.2,-.9,.1Z" class="gl_28"/>
<path d="M132.2,781.5c-.1,0,-.1,-.1,-.1,-.2q.1,-.1,.2,.1c0,.1,0,.2,0,.2c-.1,0,-.1,-.1,-.1,-.1Z" class="gl_28"/>
<path d="M141.6,780.4c-.1,-.2,0,-1,.2,-1.2c.1,-.1,.3,-.4,.4,-.6c.2,-.3,.4,-.6,.5,-.6c.1,-.1,.3,-.3,.4,-.4c.4,-.4,2,-1.7,2.8,-2.1c.8,-.5,1.9,-1,2.8,-1.3c.6,-.3,.6,-.4,0,-.3c-.3,.1,-1.3,.2,-2.2,.4c-1.7,.2,-2,.2,-2.4,.4c-.4,.1,-1.2,.7,-1.5,.9c-.1,.1,-.2,.2,-.3,.2c-.2,0,.8,-.9,1.2,-1.1c.7,-.2,1.8,-.5,2.4,-.6c.4,0,1.5,-.2,2.4,-.3c.9,-.2,1.7,-.3,1.8,-.3c.3,.1,.3,.3,0,.4c-1.4,.6,-2.5,1,-3.3,1.4c-.8,.4,-1.7,1,-2,1.2c0,0,-.2,.2,-.4,.4c-1,.8,-1.8,1.6,-2,1.9c-.1,.1,-.2,.3,-.3,.3c-.1,0,-.4,.7,-.4,1.1c0,.2,-.1,.3,-.1,.2Z" class="gl_28"/>
<path d="M132.6,780c-.1,-.1,.6,-.6,1,-.8c.3,-.1,.2,0,-.2,.3c-.4,.4,-.8,.6,-.8,.5Z" class="gl_28"/>
<path d="M141.7,775.4c-.1,0,-.1,-.1,0,-.1c.1,-.1,.3,0,.2,.1c0,0,-.1,0,-.2,0Z" class="gl_28"/>
<path d="M125.9,801.1c-.1,-.1,-.1,-.2,0,-.2c0,-.1,.1,0,.1,.1c.1,.1,.1,.2,.1,.2c-.1,0,-.2,0,-.2,-.1Z" class="gm_28"/>
<path d="M129,800.5c0,0,0,-.1,.1,-.1c.2,-.1,.2,0,.2,.1c-.1,.1,-.4,.2,-.3,0Z" class="gm_28"/>
<path d="M125.6,800.5c0,-.1,0,-.2,.1,-.1c0,0,.1,.1,.1,.1q0,.2,-.2,0Z" class="gm_28"/>
<path d="M129.5,800.1c0,-.1,.2,-.3,.4,-.4c.2,-.2,.5,-.5,.5,-.6c.2,-.3,.4,-.4,.4,-.2c0,.1,-1,1.1,-1.2,1.2q-.1,0,-.1,0Z" class="gm_28"/>
<path d="M125.4,799.8c-.1,-.1,-.1,-.2,-.1,-.3q0,-.2,.1,0c0,.1,.1,.3,.1,.4q0,.1,-.1,-.1Z" class="gm_28"/>
<path d="M131.2,798.3c.2,-.4,1,-1.3,1.1,-1.4q.1,-.1,.1,0c.1,0,0,.2,-.2,.3c-.1,.2,-.4,.5,-.6,.8c-.5,.7,-.8,.9,-.4,.3Z" class="gm_28"/>
<path d="M124.8,797.8c0,0,0,-.1,0,-.2q.1,0,.2,.1c0,.1,0,.2,0,.2q-.1,0,-.2,-.1Z" class="gm_28"/>
<path d="M132.5,796.6c0,-.2,.6,-1.2,.7,-1.1c.1,0,-.6,1.3,-.7,1.3c0,0,0,-.1,0,-.2Z" class="gm_28"/>
<path d="M124.8,797.2c-.1,-.1,-.1,-.2,-.1,-.3c.1,-.2,.2,-.1,.2,.2c0,.1,-.1,.2,-.1,.1Z" class="gm_28"/>
<path d="M124.7,796.5c0,-.1,0,-.2,0,-.3c.1,-.1,.1,0,.1,.3v.2Z" class="gm_28"/>
<path d="M133.2,795.2c0,-.1,0,-.2,-.1,-.3c-.1,-.2,0,-.2,.1,-.2c.4,-.1,.5,.1,.2,.5q-.1,.2,-.2,0Z" class="gm_28"/>
<path d="M124.6,795.4c0,-.3,.1,-.9,.1,-.9c.1,0,.1,.5,0,.7c0,.1,-.1,.2,-.1,.2Z" class="gm_28"/>
<path d="M134,794.4c-.3,-.1,-.6,-.1,-.7,-.1q-.2,-.1,.1,-.1c.1,0,.5,0,.9,0c.5,0,.6,0,1,-.3c.3,-.2,.5,-.5,.6,-.6c.2,-.5,.2,-.3,.1,.1c-.1,.3,-.3,.5,-.7,.7c-.5,.3,-.6,.3,-1.3,.3Z" class="gm_28"/>
<path d="M132.4,794.1c-.4,-.1,-.4,-.2,-.1,-.1c.2,0,.3,0,.3,.1q.1,0,.1,0c-.1,0,-.2,0,-.3,0Z" class="gm_28"/>
<path d="M127,794.3c-.3,-.2,-.5,-.6,-.4,-.6c.1,0,0,-.2,-.1,-.4c-.3,-.5,-1,-2.1,-1,-2.3c0,-.1,.1,0,.3,.5c.1,.3,.6,1.1,1,1.8c.3,.6,.6,1.2,.6,1.2c-.1,0,-.2,-.1,-.4,-.2Z" class="gm_28"/>
<path d="M124.7,794.1c-.1,-.1,0,-.9,.2,-1c0,0,0,.1,0,.3c0,.4,-.1,.8,-.2,.7Z" class="gm_28"/>
<path d="M136.1,792.6c0,-.1,.1,-.3,.1,-.3q.1,-.2,.1,0c0,.1,-.1,.2,-.1,.3q-.1,.1,-.1,0Z" class="gm_28"/>
<path d="M126.2,793.4c-.1,-.1,-.1,-.2,0,-.1c0,0,.1,.1,.1,.2c0,0,-.1,0,-.1,-.1Z" class="gm_28"/>
<path d="M124.9,792.9c0,0,0,-.2,.1,-.3c0,-.1,.1,-.4,.1,-.5c0,-.4,.3,-.2,.4,.2c0,.2,0,.3,0,.2c-.1,-.1,-.4,-.2,-.4,-.1c.1,.1,-.1,.6,-.2,.5Z" class="gm_28"/>
<path d="M136.3,791.9c0,0,.1,-.2,.1,-.3c.1,-.4,.1,-.3,.1,.1c0,.2,-.1,.3,-.2,.2Z" class="gm_28"/>
<path d="M136.5,790.6c0,-.1,0,-.2,.1,-.2c0,-.1,.1,0,0,.1c0,.1,0,.2,0,.2q-.1,.1,-.1,-.1Z" class="gm_28"/>
<path d="M136.7,790.1c-.1,-.1,.1,-.6,.3,-.9c.2,-.2,.2,-.4,.2,-.5c-.1,0,-.3,0,-.7,0c-.7,.1,-.8,0,-.1,-.2c.4,0,.8,-.1,.9,-.1c.3,-.1,.3,.2,-.1,.9c-.3,.5,-.5,.8,-.5,.8Z" class="gm_28"/>
<path d="M129.5,790c-.1,-.1,-.3,-.3,-.5,-.4c-.3,-.2,-.7,-.8,-.5,-.7c.1,0,.2,.1,.2,.1c.1,.1,.3,.3,.4,.3c.2,.1,.4,.3,.6,.5c.3,.4,.2,.4,-.2,.2Z" class="gm_28"/>
<path d="M125.3,790c0,-.1,0,-.4,0,-.5c.1,-.3,.6,-1.7,.7,-1.7c.1,-.1,.1,.1,-.2,.8c-.1,.4,-.3,1,-.3,1.2q-.1,.4,-.2,.2Z" class="gm_28"/>
<path d="M135.4,788.6c-.2,0,-.3,-.1,-.3,-.1c-.1,-.1,.7,-.5,1,-.6c.3,0,.2,.1,-.2,.2c-.5,.2,-.6,.3,-.4,.4q.2,.2,-.1,.1Z" class="gm_28"/>
<path d="M128.8,788.6c-.1,-.1,-.1,-.3,-.2,-.4q0,-.3,.1,-.1c0,.1,.1,.3,.1,.4q.1,.2,0,.1Z" class="gm_28"/>
<path d="M136.9,787.8c.1,-.1,.2,-.1,.3,-.1c.1,.1,0,.1,-.2,.1q-.3,.1,-.1,0Z" class="gm_28"/>
<path d="M137.5,787.4c.1,-.2,.2,-.3,.2,-.3c.1,0,-.1,.5,-.2,.6c0,0,0,-.1,0,-.3Z" class="gm_28"/>
<path d="M128.4,787.6c-.1,-.1,-.2,-.2,-.1,-.3q0,-.1,.1,.1c.2,.3,.2,.4,0,.2Z" class="gm_28"/>
<path d="M137.9,786.6c0,-.1,.1,-.2,.1,-.2c.1,.1,0,.4,-.1,.4c-.1,0,-.1,-.1,0,-.2Z" class="gm_28"/>
<path d="M127.3,787.5q-.1,-.2,0,-.1c.2,0,.2,.1,.1,.2c0,.1,0,0,-.1,-.1Z" class="gm_28"/>
<path d="M126,787.5c-.1,-.1,.5,-.9,.7,-.9c.3,0,.3,.2,.1,.3c-.2,.1,-.4,.2,-.5,.4c-.1,.3,-.2,.3,-.3,.2Z" class="gm_28"/>
<path d="M127.6,787c-.1,-.1,-.1,-.3,-.1,-.3c.1,-.1,.4,.4,.3,.6c0,.1,0,0,-.2,-.3Z" class="gm_28"/>
<path d="M138,786.2c0,-.1,.2,-.5,.3,-.5c.1,0,.1,-.2,.2,-.3c.1,-.4,1,-1.9,2,-3.3c.1,-.2,.1,-.3,0,-.5q-.1,-.1,.1,-.3c.1,-.1,.2,-.1,.3,0c.2,.1,0,.7,-.2,.9c-.3,.2,-1.4,2,-1.7,2.5c-.6,1.1,-.9,1.6,-1,1.5Z" class="gm_28"/>
<path d="M127.9,786.6c-.1,0,-.1,-.1,0,-.1c0,0,.1,0,.1,.1c0,0,0,.1,0,.1c0,0,-.1,0,-.1,-.1Z" class="gm_28"/>
<path d="M127.5,786c0,0,0,-.2,0,-.2q0,-.1,.1,.1c.1,.1,.2,.3,.1,.3c0,0,-.1,-.1,-.2,-.2Z" class="gm_28"/>
<path d="M127.7,785.3c-.1,-.2,0,-.5,.1,-.4c.1,0,.1,.1,0,.2c0,.2,-.1,.2,-.1,.2Z" class="gm_28"/>
<path d="M128,784.4c0,-.1,.1,-.2,.3,-.4c.1,-.1,.2,-.3,.2,-.3c.1,-.1,.1,-.2,.2,-.2c.1,0,0,.2,-.4,.7c-.2,.3,-.3,.4,-.3,.2Z" class="gm_28"/>
<path d="M129,783.2c.3,-.4,.8,-.9,.8,-.9c.1,.1,-.4,.7,-.7,1l-.2,.1Z" class="gm_28"/>
<path d="M132.6,782.3c-.1,-.1,-.2,-.4,0,-.4c.1,0,.3,.3,.2,.4c0,0,-.1,0,-.2,0Z" class="gm_28"/>
<path d="M136.3,781.8c.1,-.1,.2,-.2,.3,-.2c0,0,0,.1,-.1,.2c-.1,.1,-.2,.2,-.3,.2c0,0,0,-.1,.1,-.2Z" class="gm_28"/>
<path d="M130.6,781.7c.1,-.1,.2,-.2,.3,-.2c.1,0,-.2,.4,-.4,.4c-.1,0,0,-.1,.1,-.2Z" class="gm_28"/>
<path d="M140.7,780.9c-.1,-.1,0,-.1,.1,-.2c.2,-.1,.4,-.1,.4,0c0,.1,-.4,.2,-.5,.2Z" class="gm_28"/>
<path d="M131.3,781c.2,-.3,.5,-.4,.6,-.3c.1,.1,-.2,.3,-.7,.6c0,0,0,-.1,.1,-.3Z" class="gm_28"/>
<path d="M141.6,779.7c0,-.1,.1,-.2,.1,-.3c.1,-.1,.2,-.2,.2,-.2c0,.1,0,.2,-.1,.3c-.1,.1,-.1,.2,-.2,.2Z" class="gm_28"/>
<path d="M142.2,778.7c.2,-.4,.8,-1,2.4,-2.3c.8,-.7,2.6,-1.6,3.6,-2c1,-.3,1.1,-.4,1.1,-.5c-.2,-.3,.7,-.5,.9,-.3c.2,.1,.1,.3,-.1,.3c-.1,0,-.5,.2,-.8,.3c-.4,.2,-1,.4,-1.3,.6c-1.1,.4,-1.9,.8,-2.4,1.1c-.2,.2,-.5,.4,-.6,.4c-.1,.1,-.4,.2,-.5,.4c-.2,.2,-.4,.3,-.4,.3c0,0,-.2,.2,-.4,.3c-1.1,1.1,-1.3,1.3,-1.3,1.5c0,.1,-.1,.2,-.2,.2c-.1,0,-.1,-.1,0,-.3Z" class="gm_28"/>
<path d="M133,779.7c0,0,0,-.1,.1,-.1c0,0,.1,0,0,.1c0,0,0,.1,-.1,.1v-.1Z" class="gm_28"/>
<path d="M142.3,775.8q0,-.1,.1,-.2c.1,-.1,.2,-.1,.2,-.1c0,0,0,.1,-.1,.2c-.1,.1,-.2,.1,-.2,.1Z" class="gm_28"/>
<path d="M143,775.1c.1,-.2,.5,-.4,.5,-.3c.1,.1,-.3,.3,-.5,.4q-.2,.1,0,-.1Z" class="gm_28"/>
<path d="M144.6,774.4c.1,0,.2,-.1,.3,-.1c.1,0,.1,.1,0,.1c-.1,.1,-.2,.1,-.3,.1q-.1,0,0,-.1Z" class="gm_28"/>
<path d="M145.2,774.3c0,-.1,.4,-.1,.9,-.2c.6,0,.9,0,.9,0c0,.1,-.4,.2,-.9,.2c-.6,.1,-.9,0,-.9,0Z" class="gm_28"/>
<path d="M147.1,774.1c.1,-.1,.4,-.1,.9,-.2c.5,-.1,.7,-.1,.6,0c-.3,.1,-1.5,.2,-1.5,.2Z" class="gm_28"/>
<path d="M125.8,807.9c0,-.1,0,-.4,0,-.8c0,-.4,0,-.7,0,-.7c0,-.1,0,-.8,0,-1q.1,-.1,.5,.1c.9,.4,1.2,.3,1,-.8c-.1,-1,.1,-1.1,.3,-.1c.1,.7,.1,.9,-.2,1.1c-.6,.5,-1.5,1.9,-1.4,2.1c.1,0,0,.1,-.1,.1c0,0,-.1,0,-.1,0Z" class="gn_28"/>
<path d="M127.3,803.8c0,-.1,0,-.7,.1,-.8c.1,-.1,.1,0,.1,.4c-.1,.4,-.1,.5,-.2,.4Z" class="gn_28"/>
<path d="M127.3,802.6c0,-.1,0,-.3,0,-.6c0,-.2,.1,-.7,.1,-1.1c.1,-1,.5,-3.2,.7,-3.2c0,0,0,.1,0,.3c0,.1,-.1,.4,-.1,.5c0,.2,-.1,.5,-.1,.7c-.2,.6,-.3,2,-.1,2.2c0,0,0,.1,-.1,.1c0,.1,-.1,.3,-.2,.6c0,.4,-.1,.6,-.2,.5Z" class="gn_28"/>
<path d="M126.2,802.2c0,0,0,-.1,.1,-.1c0,-.1,0,-.3,0,-.4c-.1,-.2,.2,-.6,.3,-.5c0,.1,-.2,1.1,-.3,1.1l-.1,-.1Z" class="gn_28"/>
<path d="M125.9,801.1c-.1,-.1,-.1,-.2,0,-.2c0,-.1,.1,0,.1,.1c.1,.1,.1,.2,.1,.2c-.1,0,-.2,0,-.2,-.1Z" class="gn_28"/>
<path d="M126.5,800.9c0,0,0,-.4,.2,-.8c.1,-.3,.2,-1,.3,-1.4c.1,-.3,.2,-.7,.3,-.8c.1,0,.1,.1,0,.4c0,.2,-.1,.5,-.1,.5c-.1,.8,-.6,2.3,-.7,2.1Z" class="gn_28"/>
<path d="M129,800.5c0,0,0,-.1,.1,-.1c.2,-.1,.2,0,.2,.1c-.1,.1,-.4,.2,-.3,0Z" class="gn_28"/>
<path d="M125.6,800.5c0,-.1,0,-.2,.1,-.1c0,0,.1,.1,.1,.1q0,.2,-.2,0Z" class="gn_28"/>
<path d="M129.5,800.1c0,-.1,.2,-.3,.4,-.4c.2,-.2,.5,-.5,.5,-.6c.2,-.3,.4,-.4,.4,-.2c0,.1,-1,1.1,-1.2,1.2q-.1,0,-.1,0Z" class="gn_28"/>
<path d="M125.4,799.8c-.1,-.1,-.1,-.2,-.1,-.3q0,-.2,.1,0c0,.1,.1,.3,.1,.4q0,.1,-.1,-.1Z" class="gn_28"/>
<path d="M131.2,798.3c.2,-.4,1,-1.3,1.1,-1.4q.1,-.1,.1,0c.1,0,0,.2,-.2,.3c-.1,.2,-.4,.5,-.6,.8c-.5,.7,-.8,.9,-.4,.3Z" class="gn_28"/>
<path d="M124.8,797.8c0,0,0,-.1,0,-.2q.1,0,.2,.1c0,.1,0,.2,0,.2q-.1,0,-.2,-.1Z" class="gn_28"/>
<path d="M128.1,797.5c0,-.4,1.5,-4,2.7,-6.1c.2,-.5,.5,-1,.5,-1.2c0,-.3,.2,-.5,.3,-.3c.1,.2,-.2,.8,-1.3,2.8c-.5,1,-1,2.1,-1.2,2.5c-.2,.6,-.6,1.5,-.9,2.2c-.1,.1,-.1,.2,-.1,.1Z" class="gn_28"/>
<path d="M127.5,797.2l.1,-.1c0,0,.1,0,.1,.1c-.1,.1,-.1,0,-.2,0Z" class="gn_28"/>
<path d="M132.5,796.6c0,-.2,.6,-1.2,.7,-1.1c.1,0,-.6,1.3,-.7,1.3c0,0,0,-.1,0,-.2Z" class="gn_28"/>
<path d="M124.8,797.2c-.1,-.1,-.1,-.2,-.1,-.3c.1,-.2,.2,-.1,.2,.2c0,.1,-.1,.2,-.1,.1Z" class="gn_28"/>
<path d="M127.6,796.7q0,-.1,.1,-.2q.1,0,.1,.1c.1,.1,-.1,.2,-.2,.1Z" class="gn_28"/>
<path d="M124.7,796.5c0,-.1,0,-.2,0,-.3c.1,-.1,.1,0,.1,.3v.2Z" class="gn_28"/>
<path d="M127.9,796.3c-.1,-.1,.3,-.7,.4,-.7c0,0,-.1,.2,-.2,.4c-.1,.2,-.2,.3,-.2,.3Z" class="gn_28"/>
<path d="M133.2,795.2c0,-.1,0,-.2,-.1,-.3c-.1,-.2,0,-.2,.1,-.2c.4,-.1,.5,.1,.2,.5q-.1,.2,-.2,0Z" class="gn_28"/>
<path d="M128.3,795.4c0,-.1,.2,-.6,.5,-1.1c.3,-.6,.4,-.8,.3,-.5c-.2,.5,-.9,1.9,-.8,1.6Z" class="gn_28"/>
<path d="M124.6,795.4c0,-.3,.1,-.9,.1,-.9c.1,0,.1,.5,0,.7c0,.1,-.1,.2,-.1,.2Z" class="gn_28"/>
<path d="M134,794.4c-.3,-.1,-.6,-.1,-.7,-.1q-.2,-.1,.1,-.1c.1,0,.5,0,.9,0c.5,0,.6,0,1,-.3c.3,-.2,.5,-.5,.6,-.6c.2,-.5,.2,-.3,.1,.1c-.1,.3,-.3,.5,-.7,.7c-.5,.3,-.6,.3,-1.3,.3Z" class="gn_28"/>
<path d="M132.4,794.1c-.4,-.1,-.4,-.2,-.1,-.1c.2,0,.3,0,.3,.1q.1,0,.1,0c-.1,0,-.2,0,-.3,0Z" class="gn_28"/>
<path d="M127,794.3c-.3,-.2,-.5,-.6,-.4,-.6c.1,0,0,-.2,-.1,-.4c-.3,-.5,-1,-2.1,-1,-2.3c0,-.1,.1,0,.3,.5c.1,.3,.6,1.1,1,1.8c.3,.6,.6,1.2,.6,1.2c-.1,0,-.2,-.1,-.4,-.2Z" class="gn_28"/>
<path d="M124.7,794.1c-.1,-.1,0,-.9,.2,-1c0,0,0,.1,0,.3c0,.4,-.1,.8,-.2,.7Z" class="gn_28"/>
<path d="M136.1,792.6c0,-.1,.1,-.3,.1,-.3q.1,-.2,.1,0c0,.1,-.1,.2,-.1,.3q-.1,.1,-.1,0Z" class="gn_28"/>
<path d="M126.2,793.4c-.1,-.1,-.1,-.2,0,-.1c0,0,.1,.1,.1,.2c0,0,-.1,0,-.1,-.1Z" class="gn_28"/>
<path d="M129.3,793c.1,-.1,.2,-.3,.2,-.2c.1,0,0,.3,-.1,.4c-.2,.1,-.2,0,-.1,-.2Z" class="gn_28"/>
<path d="M129.8,792.1c.1,-.3,.3,-.6,.3,-.6c0,-.1,.2,-.5,.5,-1c.2,-.5,.6,-1.1,.7,-1.4c.2,-.2,.5,-.7,.8,-1.1c.4,-.8,.6,-1,.7,-.9c0,.1,-.2,.4,-1,1.6c-.2,.3,-.5,.9,-.7,1.1c-.1,.2,-.3,.8,-.5,1.2c-.2,.4,-.5,.9,-.6,1.2c-.3,.6,-.5,.5,-.2,-.1Z" class="gn_28"/>
<path d="M124.9,792.9c0,0,0,-.2,.1,-.3c0,-.1,.1,-.4,.1,-.5c0,-.4,.3,-.2,.4,.2c0,.2,0,.3,0,.2c-.1,-.1,-.4,-.2,-.4,-.1c.1,.1,-.1,.6,-.2,.5Z" class="gn_28"/>
<path d="M136.3,791.9c0,0,.1,-.2,.1,-.3c.1,-.4,.1,-.3,.1,.1c0,.2,-.1,.3,-.2,.2Z" class="gn_28"/>
<path d="M136.5,790.6c0,-.1,0,-.2,.1,-.2c0,-.1,.1,0,0,.1c0,.1,0,.2,0,.2q-.1,.1,-.1,-.1Z" class="gn_28"/>
<path d="M136.7,790.1c-.1,-.1,.1,-.6,.3,-.9c.2,-.2,.2,-.4,.2,-.5c-.1,0,-.3,0,-.7,0c-.7,.1,-.8,0,-.1,-.2c.4,0,.8,-.1,.9,-.1c.3,-.1,.3,.2,-.1,.9c-.3,.5,-.5,.8,-.5,.8Z" class="gn_28"/>
<path d="M129.5,790c-.1,-.1,-.3,-.3,-.5,-.4c-.3,-.2,-.7,-.8,-.5,-.7c.1,0,.2,.1,.2,.1c.1,.1,.3,.3,.4,.3c.2,.1,.4,.3,.6,.5c.3,.4,.2,.4,-.2,.2Z" class="gn_28"/>
<path d="M125.3,790c0,-.1,0,-.4,0,-.5c.1,-.3,.6,-1.7,.7,-1.7c.1,-.1,.1,.1,-.2,.8c-.1,.4,-.3,1,-.3,1.2q-.1,.4,-.2,.2Z" class="gn_28"/>
<path d="M135.4,788.6c-.2,0,-.3,-.1,-.3,-.1c-.1,-.1,.7,-.5,1,-.6c.3,0,.2,.1,-.2,.2c-.5,.2,-.6,.3,-.4,.4q.2,.2,-.1,.1Z" class="gn_28"/>
<path d="M128.8,788.6c-.1,-.1,-.1,-.3,-.2,-.4q0,-.3,.1,-.1c0,.1,.1,.3,.1,.4q.1,.2,0,.1Z" class="gn_28"/>
<path d="M136.9,787.8c.1,-.1,.2,-.1,.3,-.1c.1,.1,0,.1,-.2,.1q-.3,.1,-.1,0Z" class="gn_28"/>
<path d="M137.5,787.4c.1,-.2,.2,-.3,.2,-.3c.1,0,-.1,.5,-.2,.6c0,0,0,-.1,0,-.3Z" class="gn_28"/>
<path d="M128.4,787.6c-.1,-.1,-.2,-.2,-.1,-.3q0,-.1,.1,.1c.2,.3,.2,.4,0,.2Z" class="gn_28"/>
<path d="M137.9,786.6c0,-.1,.1,-.2,.1,-.2c.1,.1,0,.4,-.1,.4c-.1,0,-.1,-.1,0,-.2Z" class="gn_28"/>
<path d="M127.3,787.5q-.1,-.2,0,-.1c.2,0,.2,.1,.1,.2c0,.1,0,0,-.1,-.1Z" class="gn_28"/>
<path d="M126,787.5c-.1,-.1,.5,-.9,.7,-.9c.3,0,.3,.2,.1,.3c-.2,.1,-.4,.2,-.5,.4c-.1,.3,-.2,.3,-.3,.2Z" class="gn_28"/>
<path d="M127.6,787c-.1,-.1,-.1,-.3,-.1,-.3c.1,-.1,.4,.4,.3,.6c0,.1,0,0,-.2,-.3Z" class="gn_28"/>
<path d="M133,786.5c.1,-.2,.2,-.3,.3,-.3c.1,.1,-.3,.7,-.4,.7c-.1,0,0,-.2,.1,-.4Z" class="gn_28"/>
<path d="M138,786.2c0,-.1,.2,-.5,.3,-.5c.1,0,.1,-.2,.2,-.3c.1,-.4,1,-1.9,2,-3.3c.1,-.2,.1,-.3,0,-.5q-.1,-.1,.1,-.3c.1,-.1,.2,-.1,.3,0c.2,.1,0,.7,-.2,.9c-.3,.2,-1.4,2,-1.7,2.5c-.6,1.1,-.9,1.6,-1,1.5Z" class="gn_28"/>
<path d="M127.9,786.6c-.1,0,-.1,-.1,0,-.1c0,0,.1,0,.1,.1c0,0,0,.1,0,.1c0,0,-.1,0,-.1,-.1Z" class="gn_28"/>
<path d="M133.4,786c0,0,.5,-1,.8,-1.4c.1,-.2,.3,-.4,.4,-.6c.2,-.4,.8,-1.1,.9,-1c0,0,0,.1,-.1,.2c-.1,.2,-.3,.3,-.3,.4c-.1,.1,-.3,.4,-.5,.7c-.3,.4,-.6,.8,-.7,1.1c-.3,.5,-.4,.7,-.5,.6Z" class="gn_28"/>
<path d="M127.5,786c0,0,0,-.2,0,-.2q0,-.1,.1,.1c.1,.1,.2,.3,.1,.3c0,0,-.1,-.1,-.2,-.2Z" class="gn_28"/>
<path d="M127.7,785.3c-.1,-.2,0,-.5,.1,-.4c.1,0,.1,.1,0,.2c0,.2,-.1,.2,-.1,.2Z" class="gn_28"/>
<path d="M128,784.4c0,-.1,.1,-.2,.3,-.4c.1,-.1,.2,-.3,.2,-.3c.1,-.1,.1,-.2,.2,-.2c.1,0,0,.2,-.4,.7c-.2,.3,-.3,.4,-.3,.2Z" class="gn_28"/>
<path d="M129,783.2c.3,-.4,.8,-.9,.8,-.9c.1,.1,-.4,.7,-.7,1l-.2,.1Z" class="gn_28"/>
<path d="M135.9,782.4c.1,-.2,.2,-.3,.2,-.3c0,.1,0,.2,-.1,.3l-.2,.2Z" class="gn_28"/>
<path d="M132.6,782.3c-.1,-.1,-.2,-.4,0,-.4c.1,0,.3,.3,.2,.4c0,0,-.1,0,-.2,0Z" class="gn_28"/>
<path d="M130.6,781.7c.1,-.1,.2,-.2,.3,-.2c.1,0,-.2,.4,-.4,.4c-.1,0,0,-.1,.1,-.2Z" class="gn_28"/>
<path d="M140.7,780.9c-.1,-.1,0,-.1,.1,-.2c.2,-.1,.4,-.1,.4,0c0,.1,-.4,.2,-.5,.2Z" class="gn_28"/>
<path d="M131.3,781c.2,-.3,.5,-.4,.6,-.3c.1,.1,-.2,.3,-.7,.6c0,0,0,-.1,.1,-.3Z" class="gn_28"/>
<path d="M141.6,779.7c0,-.1,.1,-.2,.1,-.3c.1,-.1,.2,-.2,.2,-.2c0,.1,0,.2,-.1,.3c-.1,.1,-.1,.2,-.2,.2Z" class="gn_28"/>
<path d="M142.2,778.7c.2,-.4,.8,-1,2.4,-2.3c.8,-.7,2.6,-1.6,3.6,-2c1,-.3,1.1,-.4,1.1,-.5c-.2,-.3,.7,-.5,.9,-.3c.2,.1,.1,.3,-.1,.3c-.1,0,-.5,.2,-.8,.3c-.4,.2,-1,.4,-1.3,.6c-1.1,.4,-1.9,.8,-2.4,1.1c-.2,.2,-.5,.4,-.6,.4c-.1,.1,-.4,.2,-.5,.4c-.2,.2,-.4,.3,-.4,.3c0,0,-.2,.2,-.4,.3c-1.1,1.1,-1.3,1.3,-1.3,1.5c0,.1,-.1,.2,-.2,.2c-.1,0,-.1,-.1,0,-.3Z" class="gn_28"/>
<path d="M133,779.7c0,0,0,-.1,.1,-.1c0,0,.1,0,0,.1c0,0,0,.1,-.1,.1v-.1Z" class="gn_28"/>
<path d="M142.3,775.8q0,-.1,.1,-.2c.1,-.1,.2,-.1,.2,-.1c0,0,0,.1,-.1,.2c-.1,.1,-.2,.1,-.2,.1Z" class="gn_28"/>
<path d="M143,775.1c.1,-.2,.5,-.4,.5,-.3c.1,.1,-.3,.3,-.5,.4q-.2,.1,0,-.1Z" class="gn_28"/>
<path d="M144.6,774.4c.1,0,.2,-.1,.3,-.1c.1,0,.1,.1,0,.1c-.1,.1,-.2,.1,-.3,.1q-.1,0,0,-.1Z" class="gn_28"/>
<path d="M145.2,774.3c0,-.1,.4,-.1,.9,-.2c.6,0,.9,0,.9,0c0,.1,-.4,.2,-.9,.2c-.6,.1,-.9,0,-.9,0Z" class="gn_28"/>
<path d="M147.1,774.1c.1,-.1,.4,-.1,.9,-.2c.5,-.1,.7,-.1,.6,0c-.3,.1,-1.5,.2,-1.5,.2Z" class="gn_28"/>
<path d="M128.2,787.6q-.1,-.2,-.1,-.1c-.1,.2,0,.3,.1,.3c.1,0,.1,-.1,0,-.2Z" class="gi_28"/>
</g>
<path d="M152.7,803H371.5" class="g0_28"/>
<path d="M137.6,811.2V998.8" class="gf_28"/>
</svg>