<?xml version="1.0" encoding="UTF-8" standalone="no"?>
<!DOCTYPE svg PUBLIC "-//W3C//DTD SVG 1.1//EN"
"http://www.w3.org/Graphics/SVG/1.1/DTD/svg11.dtd">
<svg viewBox="0 0 909 1286" version="1.1" xmlns="http://www.w3.org/2000/svg" xmlns:xlink="http://www.w3.org/1999/xlink">
<defs>
<clipPath id="c0"><path d="M122.9,299.1V264.5H152v34.6Z"/></clipPath>
<clipPath id="c1"><path d="M122.9,666.1V631.5H152v34.6Z"/></clipPath>
<clipPath id="c2"><path d="M122.1,299.6V263.4H153v36.2Z"/></clipPath>
<clipPath id="c3"><path d="M122.1,666.6V630.4H153v36.2Z"/></clipPath>
<style type="text/css"><![CDATA[
.g0{
fill: none;
stroke: #000000;
stroke-width: 0.73;
stroke-linecap: butt;
stroke-linejoin: miter;
}
.g1{
fill: #FFFFFF;
}
.g2{
fill: none;
stroke: #000000;
stroke-width: 1.461;
stroke-linecap: butt;
stroke-linejoin: miter;
}
.g3{
fill: #C6EAFA;
}
.g4{
fill: #868686;
}
.g5{
fill: #242628;
}
.g6{
fill: #A0A0A0;
}
.g7{
fill: #C4956E;
}
.g8{
fill: #222426;
}
.g9{
fill: #202126;
}
.ga{
fill: #252427;
}
.gb{
fill: #222924;
}
.gc{
fill: #FFCCCC;
}
.gd{
fill: none;
stroke: #000000;
stroke-width: 2.739;
stroke-linecap: butt;
stroke-linejoin: miter;
}
]]></style>
</defs>
<path d="M116.9,159.9H792.5" class="g0"/>
<path d="M117.7,582.5V257.1H791.8V582.5Z" class="g1"/>
<path d="M117.7,582.5V257.1H791.8V582.5Z" class="g2"/>
<path d="M468.4,422.5V414c0,-2.9,2.3,-5.2,5.2,-5.2h45.1c2.9,0,5.2,2.3,5.2,5.2v8.5c0,2.9,-2.3,5.2,-5.2,5.2H473.6c-2.9,0,-5.2,-2.3,-5.2,-5.2Z" class="g3"/>
<path d="M536.4,422.5V414c0,-2.9,2.4,-5.2,5.2,-5.2h88.7c2.9,0,5.2,2.3,5.2,5.2v8.5c0,2.9,-2.3,5.2,-5.2,5.2H541.6c-2.8,0,-5.2,-2.3,-5.2,-5.2Z" class="g1"/>
<path d="M648,426.9V414c0,-2.9,2.3,-5.2,5.2,-5.2H730c2.8,0,5.2,2.3,5.2,5.2v12.9c0,2.9,-2.4,5.2,-5.2,5.2H653.2c-2.9,0,-5.2,-2.3,-5.2,-5.2Z" class="gc"/>
<g clip-path="url(#c2)">
<path clip-path="url(#c0)" d="M125.6,299c-.1,-.1,-.1,-.2,0,-.3c0,-.2,.1,-1.3,0,-1.7c0,-.2,0,-.5,0,-.7c.2,-.9,.3,-2.2,.3,-2.2c0,-.1,0,-.3,.1,-.6c.1,-.5,.1,-.6,-.1,-1c-.3,-.5,-.9,-2,-1.1,-2.7c-.4,-1.8,-.5,-4.6,-.1,-6.1c.3,-1.1,.5,-1.2,.9,-.5c.3,.7,.4,.5,0,-.3c-.3,-.7,-.6,-2,-.5,-2.4c0,-.2,.2,-.7,.4,-1.1c.2,-.5,.4,-1,.5,-1.2c.2,-.5,.5,-.8,.9,-.6c.1,0,.2,.2,.3,.4q.2,.2,.1,-.3c-.1,-.3,-.2,-.5,-.1,-.5c0,-.1,0,-.2,0,-.4c.1,-.4,1,-2.1,1.6,-2.7c.3,-.2,.6,-.5,.7,-.7c.1,-.1,.5,-.4,.8,-.7c.3,-.2,.7,-.5,.9,-.7c.4,-.4,.7,-.5,.9,-.3q.2,.2,.2,-.1c0,-.2,0,-.4,0,-.5c.1,-.3,1.5,-1.2,2.1,-1.5c.3,-.2,.6,-.3,.8,-.5c.1,-.1,.3,-.2,.4,-.2c0,0,.4,-.2,.8,-.4c.4,-.2,.9,-.5,1,-.5c.2,-.1,.6,-.3,1,-.4c1.1,-.5,1.6,-.8,2.4,-1.1c.5,-.1,.9,-.3,1,-.3c0,-.1,.1,0,.3,.1l.2,.2l.4,-.4c.6,-.5,1.6,-.8,3.8,-1.1c.9,-.1,2.2,-.3,2.8,-.4l1,-.1l.1,.2q.1,.3,-.3,.5c-2.7,1,-4.6,1.9,-5.5,2.8c-.3,.2,-.5,.4,-.5,.4c-.1,0,-1.5,1.4,-1.5,1.5c0,.1,-.1,.2,-.2,.3c-.3,.2,-.6,.8,-.5,1.1c0,.2,-.1,.3,-.4,.5c-.3,.2,-.4,.4,-.4,.4c.2,.2,0,1,-.2,1.2c-.7,.8,-1.7,2.3,-1.9,2.9c-.1,.1,-.2,.5,-.4,.8c-.2,.3,-.4,.7,-.5,1c-.4,1,-.4,.9,-1,1c-.5,0,-1.4,.3,-1.3,.4c0,.1,.4,0,.9,0c1.1,-.2,1.2,-.1,.8,.6c-.4,.8,-.7,1.7,-.7,2.2c0,.3,-.2,.8,-.6,2.3c-.1,.3,-.3,.4,-.7,.7c-.5,.3,-.6,.3,-1.2,.3q-.7,0,-.6,.2c.1,.2,-.1,.5,-.5,1.3c-.3,.7,-.7,1.3,-.8,1.4c-.2,.1,-.4,.4,-.6,.7c-.2,.3,-.4,.6,-.5,.6c0,0,-.2,.1,-.3,.3c-.6,.8,-2.7,2.6,-3,2.6l.3,-3.2c.1,.1,.4,0,.6,-.3c.2,-.3,.5,-.5,1.1,-.6c.5,0,.6,-.1,1,-.5c.2,-.2,.6,-.8,.9,-1.4l.5,-.9l-.5,-.3c-.3,-.1,-.6,-.3,-.7,-.4c-.1,-.2,.4,-1,.7,-1.1c.2,-.1,.5,-.1,.7,-.1c.2,-.1,.5,-.2,.7,-.3c.3,-.2,.5,-.3,.7,-.3c.6,-.1,.8,-.4,.8,-1.3c.1,-.9,.2,-1.1,.5,-1.2c.4,-.2,.7,-.1,.9,.2l.1,.2l.1,-.3c.1,-.3,.1,-.4,-.1,-.4c-.1,0,-.2,0,-.3,-.2c-.1,-.2,-.1,-.3,-.6,-.4c-.6,-.2,-.7,-.3,-.5,-.5c0,-.1,0,-.3,0,-.4c-.1,-.3,.4,-.8,1,-1c.5,-.2,.6,-.3,1.1,-1.3c.3,-.6,.8,-1.2,1,-1.4c.2,-.3,.5,-.6,.6,-.7c.1,-.2,.2,-.3,.4,-.3c.2,.1,.4,0,.5,-.1c.2,-.2,.9,-1.2,.8,-1.2c0,0,-.2,.1,-.5,.2c-.7,.3,-1.8,.3,-2,0c-.2,-.4,.4,-1.2,.9,-1.2c.1,-.1,1.1,-.6,1.5,-.8c.1,-.2,.3,-.5,.5,-.8c.3,-.8,.8,-1.4,1.2,-1.5c.5,-.1,.7,-.3,.9,-.8c.2,-.4,.1,-.6,-.4,-.8c-.1,-.1,-.3,-.2,-.4,-.4c0,-.1,-.1,-.2,-.2,-.2c-.3,.1,-3,1.1,-4.1,1.7c-.2,.1,-.5,.3,-.7,.5c-.1,.2,-.5,.6,-.9,.9c-.4,.3,-.9,.7,-1,1c-.1,.2,-.4,.6,-.7,.9c-.4,.4,-.4,.5,-.4,1.2c-.1,.4,0,.9,.1,1.2c.3,.7,.2,1.1,-.3,1c-.5,0,-.8,-.4,-1.3,-1.5c-.3,-.6,-.6,-1.1,-.6,-1.1c-.2,0,-.8,.8,-1.1,1.3c-.2,.5,-.3,.6,-.7,.8q-.5,.2,-.7,.7c-.1,.3,-.1,.7,-.1,.8c.1,.1,.1,.2,.1,.3c-.1,.4,-.1,.8,.1,1.2c.2,.3,.3,.7,.3,.8c0,.2,.1,.6,.3,.9c.3,.6,.3,.7,.2,1.2c-.1,.3,-.1,.6,-.1,.8c-.1,.3,-.4,.2,-1.1,-.3c-.5,-.5,-1.2,-1.2,-2,-2.4c-.3,-.4,-.4,-.4,-.3,-.1c0,.1,-.1,.5,-.2,.8c-.2,.7,-.1,1.4,.2,1.8c.2,.3,.8,1.9,.9,2.3c0,.1,0,.4,.1,.5c.1,.2,.1,.9,-.1,1.2c0,.1,0,.3,0,.4c0,.2,-.1,.3,-.2,.3c-.2,0,-.7,-.4,-1,-.7c-.1,-.1,-.3,-.3,-.4,-.5l-.3,-.3l-.1,.2c-.1,.3,0,.8,.1,1.2c.3,.8,.4,2.4,.2,3c0,.1,-.2,.3,-.4,.4c-.4,.3,-.3,.6,.4,1.5l.4,.5l.1,-.3c.1,-.1,.2,-.6,.3,-.9c.1,-.4,.2,-.9,.3,-1c.1,-.2,.2,-.6,.3,-.8c.1,-.5,.1,-.6,2.3,-5.3q1,-2.1,1.9,-3.4c.7,-1.1,1.3,-2,1.9,-3c.8,-1.3,.9,-1.6,1.4,-2.1c.3,-.4,.7,-.8,.9,-1.1c.9,-1.1,1.1,-1.4,1.3,-1.3c.1,0,.2,.1,.2,.1c0,0,-.2,.4,-.5,.8c-.3,.5,-.8,1.1,-1,1.6c-.9,1.4,-2.1,3.3,-2.5,3.9c-.2,.4,-.5,.8,-.6,1c-.1,.2,-.4,.6,-.5,.9c-.2,.2,-.3,.6,-.3,.7c-.1,.3,-.2,.7,-1.2,2.5c-.8,1.6,-1,2,-1.7,3.8c-.5,1,-.8,2.1,-.7,2.3l-.3,3.2c-.3,.1,-.5,1.9,-.2,3c.1,.7,.1,1,-.2,1.2c-.6,.5,-1.1,1.2,-1.3,1.7c-.1,.4,-.2,.5,-.4,.5c-.1,.1,-.2,0,-.3,-.1Z" class="g4"/>
<path d="M133.1,285.5c-.1,-.1,-.3,-.1,-.3,-.1q-.2,0,0,.1c0,.1,.2,.1,.3,.1q.2,0,0,-.1Z" class="g1"/>
<path d="M144.5,266.4q0,-.1,-.1,-.1c-.1,0,-.1,.1,-.2,.2q0,.1,.1,.1c.1,0,.2,-.1,.2,-.2Z" class="g1"/>
<path d="M125.7,299.1c-.1,-.1,-.1,-.2,-.1,-.4c.1,-.1,.1,-.8,.1,-1.6c0,-1.4,.1,-2.2,.4,-3.6l.1,-.6l-.5,-.9c-.2,-.6,-.5,-1.3,-.6,-1.7c-.1,-.3,-.3,-.8,-.3,-.9c-.2,-.7,-.3,-2.9,-.3,-4c.1,-1,.5,-2.5,.7,-2.5c.1,0,.2,.1,.5,.5c.4,.8,.6,.8,.2,-.1c-.4,-.8,-.7,-1.8,-.7,-2.4c0,-.5,.5,-2,.9,-2.8c.2,-.3,.3,-.5,.5,-.5q.3,0,.9,.9l.5,.7l-.4,-.7c-.5,-1.1,-.4,-1.7,.3,-2.9c.3,-.5,.6,-1,.7,-1.1c.1,-.1,.4,-.4,.6,-.7c.3,-.3,.8,-.8,1.2,-1c.3,-.3,.7,-.6,.9,-.9c.4,-.4,.7,-.4,1,.2l.2,.4l-.1,-.5c-.1,-.8,0,-1,.8,-1.6c.5,-.3,.9,-.6,1,-.6c0,0,.1,0,.1,-.1c0,0,.1,-.1,.3,-.1q.2,0,.2,.1c-.1,.1,-.1,.2,-.2,.2c-.1,0,-.4,.2,-.7,.5c-.4,.3,-.8,.6,-.9,.7c-.2,.1,-.3,.2,-.3,.7c.1,.3,.1,.6,.2,.8c.1,.5,.1,1,0,1c-.2,0,-.4,-.2,-.7,-.9l-.3,-.6l-.4,.2c-.1,.2,-.3,.3,-.3,.4c-.1,0,-.3,.2,-.6,.5c-.3,.2,-.6,.4,-.7,.5c-.1,.1,-.3,.4,-.6,.6c-.6,.6,-1.6,2.3,-1.5,2.6c.1,.3,1,2.2,1.7,3.4c.5,1,.6,1.1,.4,1.1c-.2,0,-1.2,-.8,-1.6,-1.4c-.3,-.3,-.6,-.7,-.8,-.9c-.1,-.2,-.3,-.5,-.4,-.7c-.2,-.4,-.4,-.4,-.6,0c-.3,.5,-.8,2.1,-.9,2.5c-.1,.8,.6,2.6,1.5,3.8c.7,1,.7,1.3,-.1,.8c-.3,-.2,-1.2,-1.3,-1.5,-1.6c0,-.1,-.1,-.2,-.1,-.2c-.2,.1,-.4,1.1,-.4,1.7c0,.4,0,.8,-.1,.9c0,.1,0,.7,.1,1.3c.1,.6,.1,1.3,.1,1.5c.1,.7,1,3,1.2,3c0,-.1,.1,-.6,.3,-1.2c.2,-.6,.3,-1.2,.4,-1.4c0,-.2,.1,-.5,.1,-.5c.1,-.1,.2,-.4,.3,-.7c.1,-.5,.2,-.9,1.1,-2.7c.3,-.6,.7,-1.4,.9,-1.9c.8,-1.7,1.6,-3.2,2.2,-4.2c.7,-1,1.1,-1.6,1.9,-3c.2,-.4,.6,-.8,.7,-1c.2,-.3,.3,-.5,.3,-.6c.1,-.1,.3,-.4,.6,-.7c.2,-.3,.6,-.7,.8,-1c.9,-1.2,1.1,-1.4,1.2,-1.3c.2,.1,.2,.2,-.6,1.2c-.2,.3,-.6,.8,-.8,1.2c-.8,1.4,-2.1,3.5,-2.4,3.9c-.6,.8,-1.5,2.5,-1.5,2.7c0,.2,-.5,1.3,-1.2,2.6c-.7,1.3,-1.3,2.7,-1.5,3.1c-.1,.4,-.3,.8,-.3,.8c-.1,.1,-.5,1.3,-.6,1.8c0,.3,-.1,.7,-.1,1c-.2,.7,-.3,2,-.3,2.1c0,0,.1,-.1,.3,-.2c.1,-.1,.3,-.3,.6,-.4c.2,-.2,.5,-.5,.8,-.7c.2,-.3,.4,-.5,.5,-.5c.6,-.6,.9,-1,1.2,-1.5c.3,-.3,.6,-.7,.7,-.8c.3,-.3,1.2,-2,1.2,-2.1c-.1,-.1,-.4,-.3,-.9,-.5c-.9,-.5,-1,-.6,-.8,-.7c.1,-.1,1,0,1.8,.2c.2,.1,.7,.1,1,.1c.9,-.1,1.4,-.4,1.6,-1.1c.1,-.2,.2,-.6,.2,-.7c.1,-.3,.3,-1,.3,-1.6c.1,-.5,.4,-1.3,.6,-1.6l.2,-.3h-.5c-.5,.1,-1.6,-.1,-1.7,-.3c-.1,-.2,.7,-.6,1.6,-.8l.8,-.2l.2,-.6c.2,-.3,.3,-.7,.4,-.8c0,-.2,.1,-.4,.2,-.5c.1,-.1,.3,-.3,.4,-.6c.1,-.2,.3,-.6,.5,-.9c1.3,-1.9,1.5,-2.3,1.4,-2.3c-.1,0,-.4,.1,-.6,.2c-.7,.4,-1.5,.4,-1.5,.1c0,-.3,1.8,-1.4,2.7,-1.6q.4,-.1,.4,-.5c0,-.3,.2,-.6,.3,-.8c.1,-.2,.3,-.5,.4,-.7c.3,-.5,2.2,-2.2,3.2,-2.8c.7,-.4,1.8,-1,2.7,-1.4l.7,-.3l-1.6,.2c-2.6,.4,-3.7,.7,-4.4,1.5c-.3,.3,-.4,.4,-.5,.1c-.1,-.2,.6,-.9,1.2,-1.1c.6,-.3,1.7,-.6,2.4,-.7c.4,0,1.5,-.2,2.5,-.3c1.5,-.3,1.8,-.3,1.9,-.2c.4,.2,.3,.3,-.2,.5c-1.1,.5,-2.2,.9,-2.9,1.3c-.7,.3,-2,1,-2.2,1.2c-.1,.1,-.3,.3,-.5,.5c-1,.8,-1.7,1.5,-1.9,1.8c-.1,.2,-.3,.4,-.4,.6c-.1,.1,-.3,.4,-.3,.6c0,.4,-.1,.5,-.4,.7c-.2,.2,-.5,.3,-.6,.3h-.2l.2,.1c.4,0,.5,.2,.3,.4c0,.1,-.1,.3,-.1,.3c.1,.1,-.1,.4,-.4,.7c-.2,.2,-.5,.6,-.6,.8c-.1,.1,-.3,.5,-.4,.7c-.4,.5,-.6,.9,-.7,1.1c0,.1,-.2,.5,-.4,.8c-.2,.5,-.4,.8,-.7,1.6c-.1,.3,-.2,.4,-.7,.4c-.7,.2,-1.5,.4,-1.4,.5c0,.1,.4,0,.9,0c.8,-.1,.9,-.1,1,0c.1,.1,.1,.3,-.2,.7c-.3,.6,-.7,1.7,-.7,2.1c0,.4,-.3,1.3,-.6,2.2c-.1,.3,-.2,.5,-.6,.7c-.5,.3,-.6,.3,-1.2,.3c-.4,0,-.9,0,-1,0c-.2,-.1,-.5,-.2,-.8,-.2l-.6,-.1l.5,.2c.3,.1,.6,.2,.7,.3q.5,0,.6,.1c.1,.2,-.9,2.1,-1.3,2.5c-.2,.3,-.5,.6,-.6,.8c-.2,.3,-.4,.5,-.5,.6c-.2,.1,-.4,.4,-.6,.6c-.4,.5,-1.3,1.3,-1.7,1.6c-.1,.1,-.4,.3,-.5,.4c-.1,.1,-.3,.3,-.5,.3c-.2,.1,-.3,.3,-.3,.5c-.1,.5,-.1,1.8,-.1,2.1c0,.1,.1,.4,.1,.8c.1,.6,.1,.7,-.2,.9c-.4,.3,-1,1.1,-1.2,1.7c-.2,.3,-.3,.5,-.3,.5c-.1,0,-.2,0,-.3,0Z" class="g5"/>
<path d="M128.2,278.7q-.1,-.2,-.1,-.1c-.1,.2,0,.3,.1,.3c.1,0,.1,-.1,0,-.2Z" class="g5"/>
<path d="M139.7,272.8c.2,-.1,.5,-.3,.7,-.4l.2,-.2l-.3,.1c-.5,.1,-1.4,.5,-1.4,.7c0,.1,.3,0,.8,-.2Z" class="g6"/>
<path d="M139.7,272.7c.4,-.2,.6,-.4,.2,-.2c-.3,.1,-.9,.4,-.7,.4c0,0,.3,-.1,.5,-.2Z" class="g1"/>
<path d="M134.9,269.5c0,-.1,.6,-.5,.7,-.4c.2,.1,.2,.2,-.1,.3c-.1,0,-.3,.1,-.4,.1q-.1,.1,-.2,0Z" class="g5"/>
<path d="M136.2,268.8c.1,-.1,.2,-.2,.3,-.2q.2,0,.1,.2c-.1,.1,-.2,.1,-.3,.2q-.2,0,-.1,-.2Z" class="g5"/>
<path d="M137.1,268.3c.1,-.2,.6,-.3,.7,-.2c0,.1,-.5,.3,-.7,.3c-.1,.1,-.1,0,0,-.1Z" class="g5"/>
<path d="M137.9,268c0,-.1,.8,-.5,1.3,-.7c.3,-.1,.6,-.2,.7,-.3c.4,-.2,1.9,-.8,2.1,-.7c.2,.1,.1,.3,-.2,.3c-.5,.1,-1.7,.5,-3,1.1c-.6,.3,-.8,.4,-.9,.3Z" class="g5"/>
<path d="M125.7,299c0,-.1,0,-.2,0,-.2c0,-.1,.1,-.7,.1,-1.3c0,-1.3,0,-1.9,.4,-4l.1,-.6l-.6,-1.1c-.3,-.6,-.5,-1.2,-.6,-1.6c-.1,-.3,-.2,-.7,-.2,-.9c-.3,-1,-.4,-4.1,-.1,-5.2c.1,-.4,.2,-.8,.2,-.9c.1,-.4,.2,-.3,.7,.3c.6,1.1,.9,1,.3,-.1c-.4,-.6,-.8,-2,-.8,-2.6c0,-.3,.6,-1.9,1,-2.7c.1,-.2,.3,-.4,.4,-.4c.2,0,.3,0,.5,.4c.5,.6,.6,.9,.5,.8c-.1,0,-.3,-.2,-.4,-.4c-.4,-.8,-.6,-.6,-1.2,.9c-.7,1.8,-.6,2.3,.7,4.7c.5,.8,.8,1.5,.7,1.5c-.2,.1,-1.4,-1.1,-1.7,-1.6c-.1,-.1,-.2,-.3,-.3,-.3q-.1,-.1,-.2,.1c-.3,.8,-.4,2.5,-.2,4c0,.6,.1,1.2,.1,1.4c0,.5,1,3.1,1.2,3.1c.1,0,.1,-.1,.1,-.3c0,-.1,.1,-.7,.3,-1.3c.2,-.5,.3,-1.1,.4,-1.3c0,-.2,0,-.3,.1,-.3c.1,-.1,.4,-1.1,.4,-1.2c0,-.1,.1,-.4,.2,-.7c.9,-1.8,1.3,-2.7,1.6,-3.5c.8,-1.5,1.6,-3.1,2.3,-4.1c.7,-1.2,1.3,-2.2,1.9,-3.1c.2,-.4,.5,-.8,.7,-1c.1,-.2,.3,-.4,.3,-.5c0,-.1,.6,-.8,.9,-1.1c.1,-.1,.3,-.4,.5,-.6c.6,-1,1,-1.4,1.1,-1.3q.1,0,-.6,.9c-.2,.4,-.7,1,-.9,1.4c-.8,1.4,-2,3.4,-2.3,3.7c-.6,.8,-1.6,2.7,-1.6,2.9c0,.2,-.5,1.4,-1.2,2.6c-.6,1.3,-1.3,2.6,-1.4,3c-.2,.4,-.4,1,-.6,1.4c-.2,.7,-.4,1.4,-.4,1.8c0,.2,-.1,.4,-.1,.7c-.1,.2,-.2,.7,-.2,1.1c-.1,.6,-.1,.8,.1,.8c.1,0,.2,0,.2,-.1c.1,-.1,.3,-.3,.6,-.5c.3,-.2,.5,-.5,.6,-.5c0,-.1,.3,-.3,.5,-.5c.7,-.6,1.1,-1.1,1.5,-1.7c.3,-.3,.6,-.7,.7,-.8c.2,-.2,1.1,-1.8,1.1,-2c0,-.2,-.1,-.2,-.6,-.5c-.7,-.4,-.6,-.4,.1,-.1c.3,.1,.6,.2,.7,.1c.4,-.1,.3,.3,-.2,1.3c-.3,.6,-.7,1.3,-.9,1.4c-.1,.2,-.4,.5,-.6,.8c-.2,.2,-.4,.5,-.5,.6c-.1,.1,-.3,.3,-.5,.5c-.1,.2,-.4,.5,-.6,.6c-.2,.2,-.5,.5,-.6,.6c-.1,.2,-.3,.3,-.3,.3c-.1,0,-.3,.2,-.5,.4c-.2,.2,-.5,.4,-.7,.4c-.2,.1,-.3,.2,-.3,.7c-.1,.3,-.1,.6,-.1,.7c0,0,0,.3,0,.6c0,.2,.1,.6,.1,.9c.2,.8,.1,1.1,-.1,1.3c-.4,.3,-1.1,1.2,-1.3,1.8c-.2,.5,-.3,.5,-.5,.4Z" class="g7"/>
<path d="M134,285.5c-.4,0,-.8,-.1,-1,-.2c-.2,0,-.4,-.1,-.5,-.1c-.1,0,-.3,0,-.4,-.1c-.1,0,-.3,0,-.4,0c-.1,.1,-.2,0,-.3,0c-.1,-.2,.3,-.2,1.8,.1c1.4,.2,2.5,-.2,2.7,-1c0,-.2,.1,-.6,.2,-.8c.1,-.3,.2,-.6,.2,-.8c.1,-.4,.1,-.8,.3,-1.6c.1,-.3,.2,-.6,.4,-.8c.1,-.1,.2,-.3,.1,-.3c0,-.1,-.2,-.1,-.4,0c-.4,.1,-1.6,-.1,-1.7,-.3c-.1,-.3,.8,-.7,2,-.8c.3,-.1,.4,-.1,.6,-.8c.6,-1.4,1.6,-3.2,2.9,-4.9c.1,-.1,.1,-.2,0,-.3c0,0,-.3,.1,-.7,.2c-.6,.3,-1.3,.4,-1.4,.2c0,-.1,0,-.2,.1,-.2q.2,-.1,.2,.1q.1,.1,.2,.1c.2,0,1.2,-.5,1.5,-.7c.3,-.2,.6,-.3,.6,-.2c.1,.2,-.1,.9,-.2,1c-.2,.1,-.5,.6,-.7,.9c-.1,.1,-.4,.5,-.6,.8c-.3,.6,-.5,.9,-.6,1.2c-.1,.1,-.3,.5,-.4,.8c-.3,.5,-.6,1,-.8,1.6c-.1,.3,-.2,.3,-.7,.4c-.8,.1,-1.6,.4,-1.4,.6c0,.1,.4,0,1,-.1c.8,-.1,.9,-.1,1,.1c0,0,-.1,.3,-.3,.6c-.3,.6,-.6,1.6,-.7,2.1c0,.2,-.1,.6,-.2,.9c-.1,.3,-.2,.7,-.2,.9c-.1,.5,-.4,.9,-.8,1.1c-.6,.3,-.7,.3,-1.4,.3Z" class="g7"/>
<path d="M129.6,281.2c-.2,-.1,-.4,-.3,-.5,-.4c-.3,-.2,-1,-1,-1,-1.1c0,-.1,.1,-.1,.1,-.1c.1,0,.5,.4,.6,.5c.1,.1,.2,.2,.2,.2c.1,0,.1,-.1,-.1,-.3c-.1,-.2,-.3,-.5,-.4,-.8c-.1,-.3,-.4,-.9,-.6,-1.4c-.3,-.5,-.5,-1,-.5,-1.1c0,-.1,.2,-.6,.5,-1.1c.6,-1,1.6,-2.1,2.5,-2.8c.4,-.2,.8,-.6,.9,-.8c.4,-.5,.6,-.4,.9,.3q.3,.5,.4,.5c.1,-.1,.2,-.1,.2,-.1c0,0,.1,.2,.1,.4c.1,.6,-.1,.5,-.6,-.3c-.4,-.8,-.5,-.9,-.7,-.6c-.1,.2,-.7,.6,-1.1,.9c-.7,.5,-1.8,1.8,-2.5,3l-.4,.6l.7,1.4c.7,1.5,1.1,2.2,1.5,2.8c.2,.4,.2,.5,-.2,.3Z" class="g7"/>
<path d="M128.1,279.2c-.1,-.1,0,-.2,0,-.2c.1,0,.1,.1,.2,.2c0,0,0,.1,0,.1c-.1,0,-.2,0,-.2,-.1Z" class="g7"/>
<path d="M127.6,278.2c-.3,-.6,-.2,-.8,0,-.5c.2,.3,.4,.8,.3,1c-.1,0,-.2,-.1,-.3,-.5Z" class="g7"/>
<path d="M140.1,272c.5,-.2,1.1,-.4,1.2,-.3c.1,.1,-.1,.2,-.8,.4c-.8,.2,-.9,.2,-.4,-.1Z" class="g7"/>
<path d="M141.5,271.6c0,-.1,0,-.3,0,-.5c0,-.4,.7,-1.7,1.3,-2.2c1.8,-1.7,3.9,-3,5.7,-3.6c.6,-.2,.6,-.3,-.1,-.2c-.3,.1,-1.3,.2,-2.2,.4c-1,.1,-1.9,.3,-2.1,.3c-.4,.2,-1.2,.7,-1.5,1c-.2,.2,-.3,.3,-.4,.1c-.1,-.2,.9,-1,1.4,-1.2c1.1,-.3,1.4,-.4,2.1,-.5c.4,0,1.6,-.2,2.6,-.3c1.8,-.3,2,-.3,2.1,-.1c0,.1,-.3,.3,-.7,.4c-2.5,.9,-4.4,1.9,-5.3,2.8c-.2,.2,-.4,.3,-.4,.3c-.1,0,-.2,.1,-.3,.2c-.1,.1,-.3,.4,-.6,.6c-.2,.2,-.5,.5,-.6,.7c-.1,.2,-.3,.5,-.5,.6c-.1,.2,-.2,.5,-.3,.7c0,.3,-.1,.6,-.2,.5Z" class="g7"/>
<path d="M132.6,272.1c-.1,-.2,-.2,-.8,-.1,-1c0,-.1,.3,-.3,.6,-.5c.3,-.2,.7,-.5,.8,-.5l.2,-.2l-.1,.2c-.2,.2,-1,.9,-1.2,1c-.1,.1,-.2,.3,-.2,.4c0,.2,0,.4,0,.5c.1,.2,0,.2,0,.1Z" class="g7"/>
<path d="M141.5,266.5c.2,-.2,.5,-.3,.5,-.1c0,0,-.1,.1,-.3,.1q-.4,.1,-.2,0Z" class="g7"/>
<path d="M125.7,299c0,-.1,0,-.2,0,-.2c0,-.1,.1,-.7,.1,-1.3c0,-1.2,0,-1.8,.4,-4.1c.1,-.5,0,-.6,-.5,-1.6c-.3,-.6,-.5,-1.2,-.6,-1.6c-.1,-.3,-.2,-.7,-.2,-.9c-.3,-1,-.4,-4.1,-.1,-5.2c.1,-.4,.2,-.8,.2,-.9c.1,-.4,.2,-.3,.7,.3c.6,1.1,.9,1,.3,-.1c-.4,-.6,-.8,-2,-.8,-2.6c0,-.3,.6,-1.9,1,-2.7c.1,-.2,.3,-.4,.4,-.4c.2,0,.3,0,.5,.4c.5,.6,.6,.9,.5,.8c-.1,0,-.3,-.2,-.4,-.4c-.4,-.8,-.6,-.6,-1.2,.9c-.7,1.8,-.6,2.3,.7,4.7c.5,.8,.8,1.5,.7,1.5c-.2,.1,-1.4,-1.1,-1.7,-1.6c-.1,-.1,-.2,-.3,-.3,-.3q-.1,-.1,-.2,.1c-.3,.8,-.4,2.5,-.2,4c0,.6,.1,1.2,.1,1.4c0,.5,1,3.1,1.2,3.1c.1,0,.1,-.1,.1,-.3c0,-.1,.1,-.7,.3,-1.3c.2,-.5,.3,-1.1,.4,-1.3c0,-.2,0,-.3,.1,-.3c.1,-.1,.4,-1.1,.4,-1.2c0,-.1,.1,-.4,.2,-.7c.9,-1.8,1.3,-2.7,1.6,-3.5c.8,-1.5,1.6,-3.1,2.3,-4.1c.7,-1.2,1.3,-2.2,1.9,-3.1c.2,-.4,.5,-.8,.7,-1c.1,-.2,.3,-.4,.3,-.5c0,-.1,.6,-.8,.9,-1.1c.1,-.1,.3,-.4,.5,-.6c.6,-1,1,-1.4,1.1,-1.3q.1,0,-.7,1.1c-1.5,1.9,-2.3,3.2,-3.6,5.4c-.3,.4,-.7,1,-1,1.5c-.4,.5,-.5,.8,-.4,.8c.4,0,.3,.4,-.8,2.7c-.7,1.3,-1.4,2.6,-1.5,3c-.2,.4,-.4,1,-.6,1.4c-.2,.7,-.4,1.4,-.4,1.8c0,.2,-.1,.4,-.1,.7c-.1,.2,-.2,.7,-.2,1.1c-.1,.6,-.1,.8,.1,.8c.1,0,.2,0,.2,-.1c.1,-.1,.3,-.3,.6,-.5c.3,-.2,.5,-.5,.6,-.5c0,-.1,.3,-.3,.5,-.5c.7,-.6,1.1,-1.1,1.5,-1.7c.3,-.3,.6,-.7,.7,-.8c.2,-.2,1.1,-1.8,1.1,-2c0,-.2,-.1,-.2,-.6,-.5c-.7,-.4,-.6,-.4,.1,-.1c.3,.1,.6,.2,.7,.1c.4,-.1,.3,.3,-.2,1.3c-.3,.6,-.7,1.3,-.9,1.4c-.1,.2,-.4,.5,-.6,.8c-.2,.2,-.4,.5,-.5,.6c-.1,.1,-.3,.3,-.5,.5c-.1,.2,-.4,.5,-.6,.6c-.2,.2,-.5,.5,-.6,.6c-.1,.2,-.3,.3,-.3,.3c-.1,0,-.3,.2,-.5,.4c-.2,.2,-.5,.4,-.7,.4c-.2,.1,-.3,.2,-.3,.7c-.1,.3,-.1,.6,-.1,.7c0,0,0,.3,0,.6c0,.2,.1,.6,.1,.9c.2,.8,.1,1.1,-.1,1.3c-.4,.3,-1.1,1.2,-1.3,1.8c-.2,.5,-.3,.5,-.5,.4Z" class="g8"/>
<path d="M134,285.5c-.4,0,-.8,-.1,-1,-.2c-.2,0,-.4,-.1,-.5,-.1c-.1,0,-.3,0,-.4,-.1c-.1,0,-.3,0,-.4,0c-.1,.1,-.2,0,-.3,0c-.1,-.2,.3,-.2,1.8,.1c1.4,.2,2.5,-.2,2.7,-1c0,-.2,.1,-.6,.2,-.8c.1,-.3,.2,-.6,.2,-.8c.1,-.4,.1,-.8,.3,-1.6c.1,-.3,.2,-.6,.4,-.8c.1,-.1,.2,-.3,.1,-.3c0,-.1,-.2,-.1,-.4,0c-.4,.1,-1.6,-.1,-1.7,-.3c-.1,-.3,.8,-.7,2,-.8c.3,-.1,.4,-.1,.6,-.8c.6,-1.4,1.6,-3.2,2.9,-4.9c.1,-.1,.1,-.2,0,-.3c0,0,-.3,.1,-.7,.2c-.6,.3,-1.3,.4,-1.4,.2c0,-.1,0,-.2,.1,-.2q.2,-.1,.2,.1q.1,.1,.2,.1c.2,0,1.2,-.5,1.5,-.7c.3,-.2,.6,-.3,.6,-.2c.1,.2,-.1,.9,-.2,1c-.2,.1,-.5,.6,-.7,.9c-.1,.1,-.4,.5,-.6,.8c-.3,.6,-.5,.9,-.6,1.2c-.1,.1,-.3,.5,-.4,.8c-.3,.5,-.6,1,-.8,1.6c-.1,.3,-.2,.3,-.7,.4c-.8,.1,-1.6,.4,-1.4,.6c0,.1,.4,0,1,-.1c.8,-.1,.9,-.1,1,.1c0,0,-.1,.3,-.3,.6c-.3,.6,-.6,1.6,-.7,2.1c0,.2,-.1,.6,-.2,.9c-.1,.3,-.2,.7,-.2,.9c-.1,.5,-.4,.9,-.8,1.1c-.6,.3,-.7,.3,-1.4,.3Z" class="g8"/>
<path d="M129.6,281.2c-.2,-.1,-.4,-.3,-.5,-.4c-.3,-.2,-1,-1,-1,-1.1c0,-.1,.1,-.1,.1,-.1c.1,0,.5,.4,.6,.5c.1,.1,.2,.2,.2,.2c.1,0,.1,-.1,-.1,-.3c-.1,-.2,-.3,-.5,-.4,-.8c-.1,-.3,-.4,-.9,-.6,-1.4c-.3,-.5,-.5,-1,-.5,-1.1c0,-.1,.2,-.6,.5,-1.1c.6,-1,1.6,-2.1,2.5,-2.8c.4,-.2,.8,-.6,.9,-.8c.4,-.5,.6,-.4,.9,.3q.3,.5,.4,.5c.1,-.1,.2,-.1,.2,-.1c0,0,.1,.2,.1,.4c.1,.6,-.1,.5,-.6,-.3c-.4,-.8,-.5,-.9,-.7,-.6c-.1,.2,-.7,.6,-1.1,.9c-.7,.5,-1.8,1.8,-2.5,3l-.4,.6l.7,1.4c.7,1.5,1.1,2.2,1.5,2.8c.2,.4,.2,.5,-.2,.3Z" class="g8"/>
<path d="M128.1,279.2c-.1,-.1,0,-.2,0,-.2c.1,0,.1,.1,.2,.2c0,0,0,.1,0,.1c-.1,0,-.2,0,-.2,-.1Z" class="g8"/>
<path d="M127.6,278.2c-.3,-.6,-.2,-.8,0,-.5c.2,.3,.4,.8,.3,1c-.1,0,-.2,-.1,-.3,-.5Z" class="g8"/>
<path d="M140.1,272c.5,-.2,1.1,-.4,1.2,-.3c.1,.1,-.1,.2,-.8,.4c-.8,.2,-.9,.2,-.4,-.1Z" class="g8"/>
<path d="M141.5,271.6c0,-.1,0,-.3,0,-.5c0,-.4,.7,-1.7,1.3,-2.2c1.8,-1.7,3.9,-3,5.7,-3.6c.6,-.2,.6,-.3,-.1,-.2c-.3,.1,-1.3,.2,-2.2,.4c-1,.1,-1.9,.3,-2.1,.3c-.4,.2,-1.2,.7,-1.5,1c-.2,.2,-.3,.3,-.4,.1c-.1,-.2,.9,-1,1.4,-1.2c1.1,-.3,1.4,-.4,2.1,-.5c.4,0,1.6,-.2,2.6,-.3c1.8,-.3,2,-.3,2.1,-.1c0,.1,-.3,.3,-.7,.4c-2.5,.9,-4.4,1.9,-5.3,2.8c-.2,.2,-.4,.3,-.4,.3c-.1,0,-.2,.1,-.3,.2c-.1,.1,-.3,.4,-.6,.6c-.2,.2,-.5,.5,-.6,.7c-.1,.2,-.3,.5,-.5,.6c-.1,.2,-.2,.5,-.3,.7c0,.3,-.1,.6,-.2,.5Z" class="g8"/>
<path d="M132.6,272.1c-.1,-.2,-.2,-.8,-.1,-1c0,-.1,.3,-.3,.6,-.5c.3,-.2,.7,-.5,.8,-.5l.2,-.2l-.1,.2c-.2,.2,-1,.9,-1.2,1c-.1,.1,-.2,.3,-.2,.4c0,.2,0,.4,0,.5c.1,.2,0,.2,0,.1Z" class="g8"/>
<path d="M141.5,266.5c.2,-.2,.5,-.3,.5,-.1c0,0,-.1,.1,-.3,.1q-.4,.1,-.2,0Z" class="g8"/>
<path d="M127.2,296.6c.1,-.1,.1,-.2,.1,-.5c-.1,-.3,-.1,-.9,-.1,-1.4c0,-.6,0,-1,0,-1.1c0,0,0,-.1,0,-.3c0,-.1,.1,-.5,.1,-.8c.1,-1.3,.1,-1.5,.5,-3.1c0,-.2,.1,-.5,.1,-.7c.2,-1,1.2,-3.2,2.4,-5.4c.6,-1.3,.9,-2,.9,-2.1c0,-.1,-.3,.4,-.6,1c-.3,.6,-.7,1.4,-.9,1.8c-.9,1.7,-1.9,4,-2,4.5c0,.2,-.2,.6,-.3,.8c0,.3,-.1,.5,-.1,.5c.1,.1,-.3,1.3,-.5,1.8c0,.2,-.1,.6,-.1,.9c-.1,.2,-.2,.7,-.2,1c-.3,1,-.5,2.6,-.3,2.8c0,.1,.2,.2,.4,.3c.4,.2,.3,.2,.6,0Z" class="g7"/>
<path d="M124.9,289.4c-.1,-.2,-.3,-2.1,-.3,-3.2c0,-.8,.1,-1.6,.2,-2.2c.1,-.4,.2,-.7,.2,-.9c.1,-.3,.3,-.2,.6,.3c.1,.3,.4,.6,.6,.9l.3,.3l-.1,-.4c-.1,-.2,-.3,-.7,-.5,-1.1c-.4,-.8,-.7,-2.2,-.6,-2.7c.1,-.4,.6,-1.6,.9,-2.3c.2,-.4,.6,-.6,.8,-.3q0,.2,-.2,.2c-.2,0,-.3,.2,-.4,.5c-.7,1.3,-.9,2.3,-.9,2.9c.1,.3,.3,.9,.5,1.5c.4,.8,.5,1.1,1,1.8c.3,.4,.5,.8,.5,.8c0,.2,-.6,-.1,-.9,-.4c-.1,-.2,-.2,-.4,-.4,-.5c-.1,-.1,-.4,-.5,-.6,-.7l-.3,-.5l-.1,.3c-.4,.9,-.5,2.5,-.3,4.3c.1,1.2,.1,1.6,0,1.4Z" class="g9"/>
<path d="M133.7,285.5c-.2,-.1,-.4,-.1,-.6,-.2c-.2,0,-.4,-.1,-.5,-.1c-.2,0,-.8,-.2,-.8,-.2c0,0,.5,0,1,.1c1.3,.2,2,.2,2.5,-.2c.4,-.2,.5,-.4,.8,-1.2c.2,-1,.3,-1.2,.3,-1.6c.1,-.6,.2,-1.1,.6,-1.7c.1,-.3,.2,-.6,.2,-.6c0,0,-.2,0,-.5,.1c-.3,0,-.5,0,-1.1,-.1l-.6,-.2l.1,-.2c.2,-.2,.8,-.4,1.6,-.6l.7,-.1l.3,-.7c.5,-1.3,1.6,-3.2,2.4,-4.4c.3,-.3,.5,-.7,.4,-.8q0,-.1,-.7,.2q-.7,.3,-.7,.2c0,0,.2,-.1,.3,-.2c.2,0,.5,-.2,.8,-.4c.4,-.3,.7,-.3,.8,-.3c.2,.1,-.1,.8,-.5,1.2c-.7,.8,-2,3.1,-2.6,4.5c-.1,.3,-.2,.6,-.3,.7c0,.1,-.2,.2,-.3,.2c-.8,.1,-1,.2,-1.4,.3c-.5,.2,-.5,.3,-.3,.4c0,0,.3,0,1,0c.7,-.2,.9,-.2,.9,-.1c.1,.1,-.1,.5,-.3,.9c-.4,.7,-.6,1.4,-.6,1.9c0,.2,-.1,.7,-.2,1.1c-.2,.3,-.2,.7,-.2,.7c0,0,-.1,.2,-.2,.5c-.3,.6,-1.2,1,-2.3,.9Z" class="g9"/>
<path d="M131.5,285.1q0,-.1,.1,-.1c0,0,.1,0,.1,0c0,0,0,.1,-.1,.1h-.1Z" class="g9"/>
<path d="M129.3,280.9c-.6,-.4,-1.3,-1.4,-.9,-1.1c.1,.1,.3,.2,.3,.3c.1,.1,.4,.3,.5,.2c0,-.1,.5,.4,.6,.7c.1,.2,.1,.3,.1,.3c0,0,-.3,-.2,-.6,-.4Z" class="g9"/>
<path d="M128.8,279.8c0,0,-.2,-.3,-.2,-.5c-.1,-.3,-.4,-.9,-.6,-1.3c-.3,-.5,-.5,-1,-.6,-1.1c0,-.3,.8,-1.9,1.2,-2.3c.1,-.1,.4,-.5,.7,-.7c.3,-.3,.6,-.7,.8,-.8c.6,-.4,.9,-.7,1.3,-1.1c.2,-.2,.4,-.3,.5,-.3c.2,.1,.2,.3,0,.3c0,0,-.4,.2,-.7,.5c-.4,.3,-.7,.6,-.7,.6c-.2,0,-.4,.2,-.9,.8c-.3,.3,-.5,.6,-.6,.6c0,0,-.9,1.3,-1.2,1.8c-.2,.5,-.2,.6,.4,1.8c.8,1.5,.9,2,.6,1.7Z" class="g9"/>
<path d="M127.2,278.5c-.1,-.1,-.1,-.2,0,-.2c.1,0,.2,.1,.3,.3c0,.1,0,.2,0,.2c-.1,0,-.2,-.1,-.3,-.3Z" class="g9"/>
<path d="M127.6,278.3c0,-.2,-.1,-.4,-.2,-.5c0,-.1,0,-.2,0,-.2c.1,0,.5,.6,.5,.8c0,.2,-.2,.1,-.3,-.1Z" class="g9"/>
<path d="M138.4,273.2c0,-.1,.1,-.1,.2,-.1q.1,0,.2,0c0,.1,-.1,.1,-.2,.1c-.1,.1,-.2,0,-.2,0Z" class="g9"/>
<path d="M132.5,273.2c-.1,-.3,.1,-.5,.3,-.2c.1,.3,.1,.4,0,.5c-.1,0,-.2,-.1,-.3,-.3Z" class="g9"/>
<path d="M140.3,272c-.1,-.1,.8,-.4,.9,-.3q.1,.1,0,.2c-.3,.1,-.9,.2,-.9,.1Z" class="g9"/>
<path d="M132.2,272.6c-.1,0,-.1,-.1,0,-.2q0,-.1,.1,.1q0,.1,0,.1c-.1,.1,-.1,0,-.1,0Z" class="g9"/>
<path d="M141.6,271.5c-.1,-.2,0,-1,.2,-1.2c.1,-.1,.3,-.4,.4,-.7c.2,-.2,.4,-.5,.5,-.5c.1,-.1,.3,-.3,.4,-.4c.4,-.4,2,-1.7,2.8,-2.1c.8,-.5,1.9,-1,2.8,-1.3c.6,-.3,.6,-.4,0,-.3c-.3,.1,-1.3,.2,-2.2,.3c-1.7,.3,-2,.3,-2.4,.5c-.4,.1,-1.2,.6,-1.5,.9c-.1,.1,-.2,.2,-.3,.2c-.2,0,.8,-1,1.2,-1.1c.7,-.3,1.8,-.5,2.4,-.6c.4,0,1.5,-.2,2.4,-.3c.9,-.2,1.8,-.3,1.8,-.3c.3,.1,.3,.3,0,.4c-1.4,.5,-2.5,1,-3.3,1.4c-.8,.4,-1.7,1,-2,1.1c0,.1,-.2,.3,-.4,.4c-1,.9,-1.8,1.7,-2,2c-.1,.1,-.2,.3,-.3,.3c-.1,0,-.4,.7,-.4,1c0,.3,-.1,.4,-.1,.3Z" class="g9"/>
<path d="M132.6,271.1c-.1,-.1,.6,-.6,1,-.8c.3,-.1,.2,0,-.2,.3c-.4,.4,-.7,.6,-.8,.5Z" class="g9"/>
<path d="M141.7,266.5q-.1,-.1,0,-.1c.1,-.1,.3,-.1,.2,.1c0,0,-.1,0,-.2,0Z" class="g9"/>
<path d="M125.9,292.2c-.1,-.1,-.1,-.2,0,-.2c0,-.1,.1,0,.1,.1c.1,.1,.1,.2,.1,.2c-.1,0,-.2,0,-.2,-.1Z" class="ga"/>
<path d="M129,291.6c0,0,0,-.1,.1,-.1q.2,-.1,.2,.1c-.1,.1,-.4,.2,-.3,0Z" class="ga"/>
<path d="M125.7,291.6c-.1,-.1,-.1,-.2,0,-.1c0,0,.1,.1,.1,.1q0,.2,-.1,0Z" class="ga"/>
<path d="M129.5,291.2c0,-.1,.2,-.3,.4,-.4c.2,-.2,.5,-.5,.5,-.6c.2,-.3,.4,-.4,.4,-.2c0,.1,-1,1.1,-1.2,1.2q-.1,0,-.1,0Z" class="ga"/>
<path d="M125.4,290.9c-.1,-.1,-.1,-.2,-.1,-.3q0,-.2,.1,0c0,.1,.1,.3,.1,.4q0,.1,-.1,-.1Z" class="ga"/>
<path d="M131.2,289.4c.2,-.4,1,-1.3,1.1,-1.5q.1,0,.2,.1c0,0,-.1,.2,-.2,.3c-.2,.1,-.5,.5,-.7,.8c-.5,.7,-.8,.8,-.4,.3Z" class="ga"/>
<path d="M124.8,288.9q0,-.1,0,-.2q.1,0,.2,.1q0,.1,0,.2q-.1,0,-.2,-.1Z" class="ga"/>
<path d="M132.5,287.7c0,-.2,.6,-1.2,.7,-1.1c.1,0,-.6,1.3,-.7,1.3c0,0,0,-.1,0,-.2Z" class="ga"/>
<path d="M124.8,288.3c-.1,-.1,-.1,-.2,-.1,-.3c.1,-.3,.2,-.1,.2,.2c0,.1,-.1,.1,-.1,.1Z" class="ga"/>
<path d="M124.7,287.6c0,-.1,0,-.3,0,-.3c.1,-.1,.1,0,.1,.3v.2Z" class="ga"/>
<path d="M133.2,286.3c0,-.1,0,-.2,-.1,-.3c-.1,-.2,0,-.2,.1,-.2c.4,-.1,.5,.1,.2,.5q-.1,.2,-.2,0Z" class="ga"/>
<path d="M124.6,286.4c0,-.2,.1,-.8,.1,-.8c.1,0,.1,.5,0,.7c0,.1,-.1,.2,-.1,.1Z" class="ga"/>
<path d="M134,285.4c-.3,0,-.6,0,-.7,-.1q-.2,0,.1,0c.1,0,.5,0,.9,0c.5,0,.6,0,1,-.3c.3,-.2,.5,-.5,.6,-.7c.2,-.4,.2,-.3,.1,.2c-.1,.3,-.3,.5,-.7,.7c-.5,.3,-.6,.3,-1.3,.2Z" class="ga"/>
<path d="M132.4,285.2c-.4,-.1,-.4,-.2,0,-.1c.1,0,.2,0,.2,0q.1,.1,.1,.1c-.1,0,-.2,0,-.3,0Z" class="ga"/>
<path d="M127,285.4c-.3,-.2,-.5,-.6,-.4,-.6c.1,0,0,-.2,-.1,-.4c-.3,-.6,-1,-2.2,-1,-2.3c0,-.1,.1,0,.3,.4c.2,.4,.6,1.2,1,1.8c.3,.7,.6,1.2,.6,1.2c-.1,0,-.2,0,-.4,-.1Z" class="ga"/>
<path d="M124.7,285.2c-.1,-.2,0,-.9,.2,-1c0,0,0,.1,0,.3c0,.4,-.1,.8,-.2,.7Z" class="ga"/>
<path d="M136.1,283.7c0,-.1,.1,-.3,.1,-.4q.1,-.1,.1,.1c0,.1,-.1,.2,-.1,.3q-.1,.1,-.1,0Z" class="ga"/>
<path d="M126.2,284.5c-.1,-.1,-.1,-.2,0,-.1c0,0,.1,.1,.1,.2l-.1,-.1Z" class="ga"/>
<path d="M124.9,284c0,0,0,-.2,.1,-.3c0,-.2,.1,-.4,.1,-.5c0,-.4,.3,-.2,.4,.2c0,.2,0,.3,0,.2c-.1,-.2,-.4,-.2,-.4,-.1c.1,.1,-.1,.6,-.2,.5Z" class="ga"/>
<path d="M136.3,283c0,0,.1,-.2,.1,-.4c.1,-.3,.1,-.2,.1,.1c0,.2,-.1,.4,-.2,.3Z" class="ga"/>
<path d="M136.5,281.7c0,-.1,0,-.2,.1,-.2c0,-.1,.1,0,0,.1c0,.1,0,.2,0,.2q-.1,.1,-.1,-.1Z" class="ga"/>
<path d="M136.7,281.2c-.1,-.1,.1,-.6,.3,-.9c.2,-.2,.2,-.4,.2,-.5c-.1,0,-.3,0,-.7,0c-.7,.1,-.8,0,-.1,-.2c.4,0,.8,-.1,.9,-.1c.3,-.1,.3,.1,-.1,.9c-.3,.5,-.5,.8,-.5,.8Z" class="ga"/>
<path d="M129.5,281.1c-.1,-.1,-.3,-.3,-.5,-.4c-.3,-.2,-.7,-.8,-.5,-.8c.1,.1,.2,.2,.2,.2c.1,.1,.3,.2,.4,.3c.2,.1,.4,.3,.6,.5c.3,.4,.2,.4,-.2,.2Z" class="ga"/>
<path d="M125.3,281.1c0,-.1,0,-.4,0,-.5c.1,-.3,.6,-1.7,.7,-1.7c.1,-.1,.1,.1,-.2,.8c-.1,.4,-.3,1,-.3,1.2q-.1,.4,-.2,.2Z" class="ga"/>
<path d="M135.4,279.7c-.2,0,-.3,-.1,-.3,-.2c-.1,0,.7,-.5,1,-.5c.3,0,.2,.1,-.2,.2c-.5,.2,-.6,.3,-.4,.4q.2,.2,-.1,.1Z" class="ga"/>
<path d="M128.8,279.7c-.1,-.1,-.1,-.3,-.2,-.4q0,-.3,.1,-.1c0,.1,.1,.3,.1,.4q.1,.2,0,.1Z" class="ga"/>
<path d="M136.9,278.9c.1,-.1,.2,-.1,.3,-.1c.1,.1,0,.1,-.2,.1c-.3,.1,-.3,0,-.1,0Z" class="ga"/>
<path d="M137.5,278.5c.1,-.2,.2,-.3,.2,-.3c.1,0,-.1,.5,-.2,.6c0,0,0,-.1,0,-.3Z" class="ga"/>
<path d="M128.4,278.7c-.1,-.1,-.2,-.2,-.1,-.3q0,-.1,.1,.1c.2,.3,.2,.4,0,.2Z" class="ga"/>
<path d="M137.9,277.7c0,-.1,.1,-.2,.2,-.2c.1,.1,-.1,.4,-.2,.4c-.1,0,-.1,-.1,0,-.2Z" class="ga"/>
<path d="M127.3,278.6q-.1,-.2,0,-.1c.2,0,.2,.1,.1,.2l-.1,-.1Z" class="ga"/>
<path d="M126,278.6c-.1,-.1,.5,-.9,.7,-.9c.3,0,.3,.2,.1,.3c-.2,0,-.4,.2,-.5,.4c-.1,.3,-.2,.3,-.3,.2Z" class="ga"/>
<path d="M127.6,278.1c-.1,-.1,-.1,-.3,-.1,-.4c.1,0,.4,.5,.3,.6q0,.1,-.2,-.2Z" class="ga"/>
<path d="M138,277.2c0,-.1,.2,-.4,.3,-.4c.1,0,.1,-.2,.2,-.3c.1,-.4,1,-1.9,2,-3.3c.1,-.2,.1,-.4,0,-.5c-.1,-.1,-.1,-.2,.1,-.3c.1,-.1,.2,-.1,.3,-.1c.2,.1,0,.8,-.2,1c-.3,.2,-1.4,1.9,-1.7,2.4c-.6,1.2,-.9,1.7,-1,1.5Z" class="ga"/>
<path d="M127.9,277.7q-.1,-.1,0,-.1c0,0,.1,0,.1,0q0,.1,0,.2c0,0,-.1,0,-.1,-.1Z" class="ga"/>
<path d="M127.5,277.1c0,-.1,0,-.2,0,-.2q0,-.1,.1,.1c.1,.1,.2,.3,.1,.3c0,0,-.1,-.1,-.2,-.2Z" class="ga"/>
<path d="M127.7,276.4c-.1,-.2,0,-.5,.1,-.4c.1,0,.1,.1,0,.2c0,.2,-.1,.2,-.1,.2Z" class="ga"/>
<path d="M128,275.5c0,-.1,.1,-.2,.3,-.4c.1,-.1,.2,-.3,.2,-.3c.1,-.1,.1,-.2,.2,-.2c.1,0,0,.2,-.4,.7c-.2,.3,-.3,.4,-.3,.2Z" class="ga"/>
<path d="M129,274.3c.3,-.4,.8,-.9,.8,-.9c.1,.1,-.4,.7,-.7,1l-.2,.1Z" class="ga"/>
<path d="M132.7,273.4c-.2,-.1,-.2,-.4,-.1,-.4c.1,0,.3,.3,.2,.4c0,0,-.1,0,-.1,0Z" class="ga"/>
<path d="M136.3,272.9c.1,-.1,.2,-.2,.3,-.2c0,0,0,.1,-.1,.2c-.1,.1,-.2,.2,-.3,.2c0,0,0,-.1,.1,-.2Z" class="ga"/>
<path d="M130.6,272.8c.1,-.1,.2,-.2,.3,-.2c.1,0,-.2,.4,-.4,.4c-.1,0,0,-.1,.1,-.2Z" class="ga"/>
<path d="M140.7,271.9c-.1,0,0,0,.1,-.1c.2,-.1,.4,-.1,.4,0c0,.1,-.4,.2,-.5,.1Z" class="ga"/>
<path d="M131.3,272.1c.2,-.3,.5,-.4,.6,-.3c.1,.1,-.2,.3,-.7,.6c0,0,0,-.1,.1,-.3Z" class="ga"/>
<path d="M141.6,270.8c0,-.1,.1,-.2,.1,-.3c.1,-.1,.2,-.2,.2,-.2c0,.1,0,.2,-.1,.3c-.1,.1,-.1,.2,-.2,.2Z" class="ga"/>
<path d="M142.2,269.8c.2,-.5,.8,-1.1,2.4,-2.3c.8,-.7,2.6,-1.7,3.6,-2c1,-.3,1.1,-.4,1.1,-.6c-.2,-.2,.7,-.4,.9,-.2c.2,.1,.1,.3,-.1,.3c-.1,0,-.5,.1,-.8,.3c-.4,.2,-1,.4,-1.3,.5c-1.1,.5,-1.9,.9,-2.4,1.2c-.2,.2,-.5,.4,-.6,.4c-.1,.1,-.4,.2,-.5,.4c-.2,.2,-.4,.3,-.4,.3c0,0,-.2,.2,-.4,.3c-1.1,1,-1.3,1.3,-1.3,1.5c0,.1,-.1,.2,-.2,.2c-.1,0,-.1,-.1,0,-.3Z" class="ga"/>
<path d="M133,270.8c0,0,0,-.1,.1,-.1c0,0,.1,0,0,.1c0,0,0,.1,-.1,.1c0,0,0,-.1,0,-.1Z" class="ga"/>
<path d="M142.3,266.9c0,-.1,0,-.2,.1,-.2c.1,-.1,.2,-.1,.2,-.1c0,0,0,.1,-.1,.2c-.1,.1,-.2,.1,-.2,.1Z" class="ga"/>
<path d="M143,266.2c.1,-.3,.5,-.4,.5,-.3c.1,.1,-.3,.3,-.5,.4q-.2,.1,0,-.1Z" class="ga"/>
<path d="M144.6,265.5c.1,0,.2,-.1,.3,-.1q.1,0,0,.1c-.1,0,-.2,.1,-.3,.1q-.1,0,0,-.1Z" class="ga"/>
<path d="M145.2,265.4c.1,-.1,.4,-.1,.9,-.2c.6,0,.9,0,.9,0c0,.1,-.4,.1,-.9,.2c-.6,0,-.9,0,-.9,0Z" class="ga"/>
<path d="M147.1,265.1c.1,0,.4,-.1,.9,-.1c.5,-.1,.7,-.1,.6,0c-.3,.1,-1.5,.2,-1.5,.1Z" class="ga"/>
<path d="M125.8,298.9c0,0,0,-.3,0,-.7c0,-.4,0,-.7,0,-.7c0,-.1,0,-.9,0,-1q.1,-.1,.5,.1c.9,.4,1.2,.2,1,-.8c-.1,-1,.1,-1.1,.3,-.1c.1,.7,.1,.9,-.2,1c-.6,.6,-1.5,2,-1.4,2.2c.1,0,0,.1,-.1,.1c0,0,-.1,0,-.1,-.1Z" class="gb"/>
<path d="M127.3,294.9c0,-.1,0,-.7,.1,-.8c.1,-.1,.1,0,.1,.4c-.1,.4,-.1,.5,-.2,.4Z" class="gb"/>
<path d="M127.3,293.7c0,-.1,0,-.3,0,-.6c0,-.3,.1,-.8,.1,-1.1c.1,-1,.5,-3.2,.7,-3.2c0,0,0,.1,0,.3c0,.1,-.1,.4,-.1,.5c0,.2,-.1,.4,-.1,.7c-.2,.6,-.3,2,-.1,2.1c0,.1,0,.2,-.1,.2c0,.1,-.1,.3,-.2,.6c0,.4,-.1,.6,-.2,.5Z" class="gb"/>
<path d="M126.3,293.3c-.1,0,-.1,-.1,0,-.1c0,-.1,0,-.3,0,-.4c-.1,-.2,.2,-.6,.3,-.5c0,.1,-.2,1.1,-.3,1.1v-.1Z" class="gb"/>
<path d="M125.9,292.2c-.1,-.1,-.1,-.2,0,-.2c0,-.1,.1,0,.1,.1c.1,.1,.1,.2,.1,.2c-.1,0,-.2,0,-.2,-.1Z" class="gb"/>
<path d="M126.5,292c0,0,0,-.4,.2,-.8c.1,-.4,.2,-1,.3,-1.4c.1,-.4,.2,-.7,.3,-.8c.1,-.1,.1,0,0,.3c0,.3,-.1,.5,-.1,.6c-.1,.8,-.6,2.3,-.7,2.1Z" class="gb"/>
<path d="M129,291.6c0,0,0,-.1,.1,-.1q.2,-.1,.2,.1c-.1,.1,-.4,.2,-.3,0Z" class="gb"/>
<path d="M125.7,291.6c-.1,-.1,-.1,-.2,0,-.1c0,0,.1,.1,.1,.1q0,.2,-.1,0Z" class="gb"/>
<path d="M129.5,291.2c0,-.1,.2,-.3,.4,-.4c.2,-.2,.5,-.5,.5,-.6c.2,-.3,.4,-.4,.4,-.2c0,.1,-1,1.1,-1.2,1.2q-.1,0,-.1,0Z" class="gb"/>
<path d="M125.4,290.9c-.1,-.1,-.1,-.2,-.1,-.3q0,-.2,.1,0c0,.1,.1,.3,.1,.4q0,.1,-.1,-.1Z" class="gb"/>
<path d="M131.2,289.4c.2,-.4,1,-1.3,1.1,-1.5q.1,0,.2,.1c0,0,-.1,.2,-.2,.3c-.2,.1,-.5,.5,-.7,.8c-.5,.7,-.8,.8,-.4,.3Z" class="gb"/>
<path d="M124.8,288.9q0,-.1,0,-.2q.1,0,.2,.1q0,.1,0,.2q-.1,0,-.2,-.1Z" class="gb"/>
<path d="M128.1,288.6c0,-.4,1.5,-4,2.7,-6.1c.2,-.5,.5,-1,.5,-1.2c0,-.3,.2,-.5,.3,-.3c.1,.1,-.2,.8,-1.3,2.8c-.5,1,-1,2.1,-1.2,2.5c-.2,.6,-.6,1.5,-.9,2.2c-.1,.1,-.1,.2,-.1,.1Z" class="gb"/>
<path d="M127.5,288.3c0,0,0,-.1,.1,-.1c0,0,.1,0,.1,0q0,.1,0,.1q-.1,0,-.2,0Z" class="gb"/>
<path d="M132.5,287.7c0,-.2,.6,-1.2,.7,-1.1c.1,0,-.6,1.3,-.7,1.3c0,0,0,-.1,0,-.2Z" class="gb"/>
<path d="M124.8,288.3c-.1,-.1,-.1,-.2,-.1,-.3c.1,-.3,.2,-.1,.2,.2c0,.1,-.1,.1,-.1,.1Z" class="gb"/>
<path d="M127.6,287.8q0,-.1,.1,-.2q.1,0,.1,.1c.1,.1,-.1,.2,-.2,.1Z" class="gb"/>
<path d="M124.7,287.6c0,-.1,0,-.3,0,-.3c.1,-.1,.1,0,.1,.3v.2Z" class="gb"/>
<path d="M127.9,287.4c-.1,-.1,.3,-.8,.4,-.7c0,0,-.1,.2,-.2,.3c-.1,.3,-.2,.4,-.2,.4Z" class="gb"/>
<path d="M133.2,286.3c0,-.1,0,-.2,-.1,-.3c-.1,-.2,0,-.2,.1,-.2c.4,-.1,.5,.1,.2,.5q-.1,.2,-.2,0Z" class="gb"/>
<path d="M128.3,286.5c0,-.1,.2,-.6,.5,-1.1c.3,-.6,.4,-.8,.3,-.5c-.2,.5,-.9,1.9,-.8,1.6Z" class="gb"/>
<path d="M124.6,286.4c0,-.2,.1,-.8,.1,-.8c.1,0,.1,.5,0,.7c0,.1,-.1,.2,-.1,.1Z" class="gb"/>
<path d="M134,285.4c-.3,0,-.6,0,-.7,-.1q-.2,0,.1,0c.1,0,.5,0,.9,0c.5,0,.6,0,1,-.3c.3,-.2,.5,-.5,.6,-.7c.2,-.4,.2,-.3,.1,.2c-.1,.3,-.3,.5,-.7,.7c-.5,.3,-.6,.3,-1.3,.2Z" class="gb"/>
<path d="M132.4,285.2c-.4,-.1,-.4,-.2,0,-.1c.1,0,.2,0,.2,0q.1,.1,.1,.1c-.1,0,-.2,0,-.3,0Z" class="gb"/>
<path d="M127,285.4c-.3,-.2,-.5,-.6,-.4,-.6c.1,0,0,-.2,-.1,-.4c-.3,-.6,-1,-2.2,-1,-2.3c0,-.1,.1,0,.3,.4c.2,.4,.6,1.2,1,1.8c.3,.7,.6,1.2,.6,1.2c-.1,0,-.2,0,-.4,-.1Z" class="gb"/>
<path d="M124.7,285.2c-.1,-.2,0,-.9,.2,-1c0,0,0,.1,0,.3c0,.4,-.1,.8,-.2,.7Z" class="gb"/>
<path d="M136.1,283.7c0,-.1,.1,-.3,.1,-.4q.1,-.1,.1,.1c0,.1,-.1,.2,-.1,.3q-.1,.1,-.1,0Z" class="gb"/>
<path d="M126.2,284.5c-.1,-.1,-.1,-.2,0,-.1c0,0,.1,.1,.1,.2l-.1,-.1Z" class="gb"/>
<path d="M129.3,284.1c.1,-.2,.2,-.3,.2,-.3c.1,.1,0,.3,-.1,.5q-.2,0,-.1,-.2Z" class="gb"/>
<path d="M129.8,283.1c.1,-.3,.3,-.5,.3,-.5c0,-.1,.2,-.5,.5,-1c.2,-.5,.6,-1.1,.7,-1.4c.2,-.2,.5,-.7,.8,-1.1c.4,-.8,.6,-1,.7,-.9c0,.1,-.2,.4,-1,1.6c-.2,.3,-.5,.8,-.7,1.1c-.1,.2,-.3,.8,-.5,1.2c-.2,.4,-.5,.9,-.6,1.1c-.3,.7,-.5,.6,-.2,-.1Z" class="gb"/>
<path d="M124.9,284c0,0,0,-.2,.1,-.3c0,-.2,.1,-.4,.1,-.5c0,-.4,.3,-.2,.4,.2c0,.2,0,.3,0,.2c-.1,-.2,-.4,-.2,-.4,-.1c.1,.1,-.1,.6,-.2,.5Z" class="gb"/>
<path d="M136.3,283c0,0,.1,-.2,.1,-.4c.1,-.3,.1,-.2,.1,.1c0,.2,-.1,.4,-.2,.3Z" class="gb"/>
<path d="M136.5,281.7c0,-.1,0,-.2,.1,-.2c0,-.1,.1,0,0,.1c0,.1,0,.2,0,.2q-.1,.1,-.1,-.1Z" class="gb"/>
<path d="M136.7,281.2c-.1,-.1,.1,-.6,.3,-.9c.2,-.2,.2,-.4,.2,-.5c-.1,0,-.3,0,-.7,0c-.7,.1,-.8,0,-.1,-.2c.4,0,.8,-.1,.9,-.1c.3,-.1,.3,.1,-.1,.9c-.3,.5,-.5,.8,-.5,.8Z" class="gb"/>
<path d="M129.5,281.1c-.1,-.1,-.3,-.3,-.5,-.4c-.3,-.2,-.7,-.8,-.5,-.8c.1,.1,.2,.2,.2,.2c.1,.1,.3,.2,.4,.3c.2,.1,.4,.3,.6,.5c.3,.4,.2,.4,-.2,.2Z" class="gb"/>
<path d="M125.3,281.1c0,-.1,0,-.4,0,-.5c.1,-.3,.6,-1.7,.7,-1.7c.1,-.1,.1,.1,-.2,.8c-.1,.4,-.3,1,-.3,1.2q-.1,.4,-.2,.2Z" class="gb"/>
<path d="M135.4,279.7c-.2,0,-.3,-.1,-.3,-.2c-.1,0,.7,-.5,1,-.5c.3,0,.2,.1,-.2,.2c-.5,.2,-.6,.3,-.4,.4q.2,.2,-.1,.1Z" class="gb"/>
<path d="M128.8,279.7c-.1,-.1,-.1,-.3,-.2,-.4q0,-.3,.1,-.1c0,.1,.1,.3,.1,.4q.1,.2,0,.1Z" class="gb"/>
<path d="M136.9,278.9c.1,-.1,.2,-.1,.3,-.1c.1,.1,0,.1,-.2,.1c-.3,.1,-.3,0,-.1,0Z" class="gb"/>
<path d="M137.5,278.5c.1,-.2,.2,-.3,.2,-.3c.1,0,-.1,.5,-.2,.6c0,0,0,-.1,0,-.3Z" class="gb"/>
<path d="M128.4,278.7c-.1,-.1,-.2,-.2,-.1,-.3q0,-.1,.1,.1c.2,.3,.2,.4,0,.2Z" class="gb"/>
<path d="M137.9,277.7c0,-.1,.1,-.2,.2,-.2c.1,.1,-.1,.4,-.2,.4c-.1,0,-.1,-.1,0,-.2Z" class="gb"/>
<path d="M127.3,278.6q-.1,-.2,0,-.1c.2,0,.2,.1,.1,.2l-.1,-.1Z" class="gb"/>
<path d="M126,278.6c-.1,-.1,.5,-.9,.7,-.9c.3,0,.3,.2,.1,.3c-.2,0,-.4,.2,-.5,.4c-.1,.3,-.2,.3,-.3,.2Z" class="gb"/>
<path d="M127.6,278.1c-.1,-.1,-.1,-.3,-.1,-.4c.1,0,.4,.5,.3,.6q0,.1,-.2,-.2Z" class="gb"/>
<path d="M133,277.6c.1,-.2,.2,-.4,.3,-.3c.1,0,-.3,.6,-.4,.7c-.1,0,0,-.2,.1,-.4Z" class="gb"/>
<path d="M138,277.2c0,-.1,.2,-.4,.3,-.4c.1,0,.1,-.2,.2,-.3c.1,-.4,1,-1.9,2,-3.3c.1,-.2,.1,-.4,0,-.5c-.1,-.1,-.1,-.2,.1,-.3c.1,-.1,.2,-.1,.3,-.1c.2,.1,0,.8,-.2,1c-.3,.2,-1.4,1.9,-1.7,2.4c-.6,1.2,-.9,1.7,-1,1.5Z" class="gb"/>
<path d="M127.9,277.7q-.1,-.1,0,-.1c0,0,.1,0,.1,0q0,.1,0,.2c0,0,-.1,0,-.1,-.1Z" class="gb"/>
<path d="M133.4,277.1c0,-.1,.5,-1,.8,-1.4c.1,-.2,.3,-.4,.4,-.6c.2,-.4,.8,-1.1,.9,-1c0,0,0,.1,-.1,.2c-.1,.1,-.3,.3,-.3,.4c-.1,.1,-.3,.4,-.5,.7c-.3,.3,-.6,.8,-.7,1.1c-.3,.5,-.4,.7,-.5,.6Z" class="gb"/>
<path d="M127.5,277.1c0,-.1,0,-.2,0,-.2q0,-.1,.1,.1c.1,.1,.2,.3,.1,.3c0,0,-.1,-.1,-.2,-.2Z" class="gb"/>
<path d="M127.7,276.4c-.1,-.2,0,-.5,.1,-.4c.1,0,.1,.1,0,.2c0,.2,-.1,.2,-.1,.2Z" class="gb"/>
<path d="M128,275.5c0,-.1,.1,-.2,.3,-.4c.1,-.1,.2,-.3,.2,-.3c.1,-.1,.1,-.2,.2,-.2c.1,0,0,.2,-.4,.7c-.2,.3,-.3,.4,-.3,.2Z" class="gb"/>
<path d="M129,274.3c.3,-.4,.8,-.9,.8,-.9c.1,.1,-.4,.7,-.7,1l-.2,.1Z" class="gb"/>
<path d="M135.9,273.5c.1,-.2,.2,-.3,.2,-.3c0,.1,0,.2,-.1,.3l-.2,.2Z" class="gb"/>
<path d="M132.7,273.4c-.2,-.1,-.2,-.4,-.1,-.4c.1,0,.3,.3,.2,.4c0,0,-.1,0,-.1,0Z" class="gb"/>
<path d="M130.6,272.8c.1,-.1,.2,-.2,.3,-.2c.1,0,-.2,.4,-.4,.4c-.1,0,0,-.1,.1,-.2Z" class="gb"/>
<path d="M140.7,271.9c-.1,0,0,0,.1,-.1c.2,-.1,.4,-.1,.4,0c0,.1,-.4,.2,-.5,.1Z" class="gb"/>
<path d="M131.3,272.1c.2,-.3,.5,-.4,.6,-.3c.1,.1,-.2,.3,-.7,.6c0,0,0,-.1,.1,-.3Z" class="gb"/>
<path d="M141.6,270.8c0,-.1,.1,-.2,.1,-.3c.1,-.1,.2,-.2,.2,-.2c0,.1,0,.2,-.1,.3c-.1,.1,-.1,.2,-.2,.2Z" class="gb"/>
<path d="M142.2,269.8c.2,-.5,.8,-1.1,2.4,-2.3c.8,-.7,2.6,-1.7,3.6,-2c1,-.3,1.1,-.4,1.1,-.6c-.2,-.2,.7,-.4,.9,-.2c.2,.1,.1,.3,-.1,.3c-.1,0,-.5,.1,-.8,.3c-.4,.2,-1,.4,-1.3,.5c-1.1,.5,-1.9,.9,-2.4,1.2c-.2,.2,-.5,.4,-.6,.4c-.1,.1,-.4,.2,-.5,.4c-.2,.2,-.4,.3,-.4,.3c0,0,-.2,.2,-.4,.3c-1.1,1,-1.3,1.3,-1.3,1.5c0,.1,-.1,.2,-.2,.2c-.1,0,-.1,-.1,0,-.3Z" class="gb"/>
<path d="M133,270.8c0,0,0,-.1,.1,-.1c0,0,.1,0,0,.1c0,0,0,.1,-.1,.1c0,0,0,-.1,0,-.1Z" class="gb"/>
<path d="M142.3,266.9c0,-.1,0,-.2,.1,-.2c.1,-.1,.2,-.1,.2,-.1c0,0,0,.1,-.1,.2c-.1,.1,-.2,.1,-.2,.1Z" class="gb"/>
<path d="M143,266.2c.1,-.3,.5,-.4,.5,-.3c.1,.1,-.3,.3,-.5,.4q-.2,.1,0,-.1Z" class="gb"/>
<path d="M144.6,265.5c.1,0,.2,-.1,.3,-.1q.1,0,0,.1c-.1,0,-.2,.1,-.3,.1q-.1,0,0,-.1Z" class="gb"/>
<path d="M145.2,265.4c.1,-.1,.4,-.1,.9,-.2c.6,0,.9,0,.9,0c0,.1,-.4,.1,-.9,.2c-.6,0,-.9,0,-.9,0Z" class="gb"/>
<path d="M147.1,265.1c.1,0,.4,-.1,.9,-.1c.5,-.1,.7,-.1,.6,0c-.3,.1,-1.5,.2,-1.5,.1Z" class="gb"/>
<path d="M128.2,278.7q-.1,-.2,-.1,-.1c-.1,.2,0,.3,.1,.3c.1,0,.1,-.1,0,-.2Z" class="g6"/>
</g>
<path d="M152.7,294.1H432.2" class="g0"/>
<path d="M137.6,302.3V573.1" class="gd"/>
<path d="M117.7,949.5V624.1H791.8V949.5Z" class="g1"/>
<path d="M117.7,949.5V624.1H791.8V949.5Z" class="g2"/>
<path d="M457.2,789.5V781c0,-2.9,2.3,-5.2,5.2,-5.2h76.8c2.9,0,5.2,2.3,5.2,5.2v8.5c0,2.9,-2.3,5.2,-5.2,5.2H462.4c-2.9,0,-5.2,-2.3,-5.2,-5.2Z" class="gc"/>
<path d="M556.9,789.5V781c0,-2.9,2.3,-5.2,5.2,-5.2h88.7c2.8,0,5.2,2.3,5.2,5.2v8.5c0,2.9,-2.4,5.2,-5.2,5.2H562.1c-2.9,0,-5.2,-2.3,-5.2,-5.2Z" class="g1"/>
<path d="M668.4,789.5V781c0,-2.9,2.4,-5.2,5.2,-5.2h65.8c2.9,0,5.2,2.3,5.2,5.2v8.5c0,2.9,-2.3,5.2,-5.2,5.2H673.6c-2.8,0,-5.2,-2.3,-5.2,-5.2Z" class="g3"/>
<g clip-path="url(#c3)">
<path clip-path="url(#c1)" d="M125.6,666c-.1,-.1,-.1,-.3,0,-.3c0,-.2,.1,-1.3,0,-1.7c0,-.2,0,-.5,0,-.7c.2,-.9,.3,-2.2,.3,-2.3c0,0,0,-.2,.1,-.5c.1,-.5,.1,-.6,-.1,-1c-.3,-.5,-.9,-2,-1.1,-2.7c-.4,-1.8,-.5,-4.6,-.1,-6.1c.3,-1.1,.5,-1.2,.9,-.5c.3,.7,.4,.5,0,-.3c-.3,-.7,-.6,-2,-.5,-2.4c0,-.2,.2,-.7,.4,-1.1c.2,-.5,.4,-1,.5,-1.2c.2,-.5,.5,-.8,.9,-.6c.1,0,.2,.2,.3,.4q.2,.2,.1,-.3c-.1,-.3,-.2,-.5,-.1,-.6c0,0,0,-.1,0,-.3c.1,-.4,1,-2.1,1.6,-2.7c.3,-.2,.6,-.5,.7,-.7c.1,-.1,.5,-.4,.8,-.7c.3,-.2,.7,-.5,.9,-.7c.4,-.4,.7,-.5,.9,-.3q.2,.2,.2,-.1c0,-.2,0,-.4,0,-.5c.1,-.3,1.5,-1.2,2.1,-1.5c.3,-.2,.6,-.4,.8,-.5c.1,-.1,.3,-.2,.4,-.2c0,0,.4,-.2,.8,-.4c.4,-.2,.9,-.5,1,-.5c.2,-.1,.6,-.3,1,-.4c1.1,-.5,1.6,-.8,2.4,-1.1c.5,-.1,.9,-.3,1,-.3c0,-.1,.1,0,.3,.1l.2,.2l.4,-.4c.6,-.5,1.6,-.8,3.8,-1.1c.9,-.1,2.2,-.3,2.8,-.4l1,-.1l.1,.2q.1,.3,-.3,.5c-2.7,1,-4.6,1.9,-5.5,2.8c-.3,.2,-.5,.4,-.5,.4c-.1,0,-1.5,1.4,-1.5,1.5c0,.1,-.1,.2,-.2,.3c-.3,.2,-.6,.8,-.5,1.1c0,.2,-.1,.3,-.4,.5c-.3,.2,-.4,.4,-.4,.4c.2,.2,0,1,-.2,1.2c-.7,.8,-1.7,2.3,-1.9,2.9c-.1,.1,-.2,.4,-.4,.7c-.2,.4,-.4,.8,-.5,1.1c-.4,1,-.4,.9,-1,1c-.5,0,-1.4,.3,-1.3,.4c0,.1,.4,0,.9,0c1.1,-.2,1.2,-.1,.8,.6c-.4,.8,-.7,1.7,-.7,2.2c0,.3,-.2,.8,-.6,2.3c-.1,.3,-.3,.4,-.7,.7c-.5,.3,-.6,.3,-1.2,.3q-.7,0,-.6,.2c.1,.2,-.1,.5,-.5,1.3c-.3,.7,-.7,1.3,-.8,1.4c-.2,.1,-.4,.4,-.6,.7c-.2,.3,-.4,.6,-.5,.6c0,0,-.2,.1,-.3,.3c-.6,.8,-2.7,2.6,-3,2.6l.3,-3.2c.1,.1,.4,0,.6,-.3c.2,-.4,.5,-.5,1.1,-.6c.5,0,.6,-.1,1,-.5c.2,-.2,.6,-.8,.9,-1.4l.5,-.9l-.5,-.3c-.3,-.1,-.6,-.3,-.7,-.4c-.1,-.2,.4,-1,.7,-1.1c.2,-.1,.5,-.1,.7,-.1c.2,-.1,.5,-.2,.7,-.3c.3,-.2,.5,-.3,.7,-.3c.6,-.1,.8,-.4,.8,-1.3c.1,-.9,.2,-1.1,.5,-1.2c.4,-.2,.7,-.1,.9,.1l.1,.3l.1,-.3c.1,-.3,.1,-.4,-.1,-.4c-.1,0,-.2,0,-.3,-.2c-.1,-.2,-.1,-.3,-.6,-.4c-.6,-.2,-.7,-.3,-.5,-.5c0,-.1,0,-.3,0,-.4c-.1,-.3,.4,-.8,1,-1c.5,-.2,.6,-.3,1.1,-1.3c.3,-.6,.8,-1.2,1,-1.5c.2,-.2,.5,-.5,.6,-.6c.1,-.2,.2,-.3,.4,-.3c.2,.1,.4,0,.5,-.1c.2,-.2,.9,-1.2,.8,-1.2c0,0,-.2,.1,-.5,.2c-.7,.3,-1.8,.3,-2,0c-.2,-.4,.4,-1.2,.9,-1.2c.1,-.1,1.1,-.6,1.5,-.8c.1,-.2,.3,-.5,.5,-.8c.3,-.8,.8,-1.4,1.2,-1.5c.5,-.1,.7,-.3,.9,-.8c.2,-.4,.1,-.6,-.4,-.8c-.1,-.1,-.3,-.2,-.4,-.4c0,-.1,-.1,-.2,-.2,-.2c-.3,.1,-3,1.1,-4.1,1.7c-.2,.1,-.5,.3,-.7,.5c-.1,.2,-.5,.6,-.9,.9c-.4,.3,-.9,.7,-1,1c-.1,.2,-.4,.6,-.7,.9c-.4,.4,-.4,.5,-.4,1.2c-.1,.4,0,.9,.1,1.2c.3,.7,.2,1.1,-.3,1c-.5,-.1,-.8,-.4,-1.3,-1.5c-.3,-.6,-.6,-1.1,-.6,-1.1c-.2,0,-.8,.8,-1.1,1.3c-.2,.5,-.3,.6,-.7,.8q-.5,.2,-.7,.7c-.1,.3,-.1,.6,-.1,.8c.1,.1,.1,.2,.1,.3c-.1,.4,-.1,.8,.1,1.2c.2,.3,.3,.7,.3,.8c0,.2,.1,.6,.3,.9c.3,.6,.3,.7,.2,1.2c-.1,.3,-.1,.6,-.1,.8c-.1,.3,-.4,.2,-1.1,-.4c-.5,-.4,-1.2,-1.1,-2,-2.3c-.3,-.4,-.4,-.4,-.3,-.1c0,.1,-.1,.5,-.2,.8c-.2,.7,-.1,1.4,.2,1.8c.2,.3,.8,1.9,.9,2.3c0,.1,0,.4,.1,.5c.1,.2,.1,.9,-.1,1.2c0,.1,0,.3,0,.4c0,.2,-.1,.3,-.2,.3c-.2,0,-.7,-.4,-1,-.7c-.1,-.1,-.3,-.3,-.4,-.5l-.3,-.3l-.1,.2c-.1,.3,0,.8,.1,1.2c.3,.8,.4,2.4,.2,2.9c0,.2,-.2,.4,-.4,.5c-.4,.3,-.3,.6,.4,1.5l.4,.5l.1,-.3c.1,-.1,.2,-.6,.3,-.9c.1,-.4,.2,-.9,.3,-1.1c.1,-.1,.2,-.5,.3,-.7q.1,-.6,2.3,-5.3q1,-2.1,1.9,-3.4c.7,-1.1,1.3,-2,1.9,-3c.8,-1.3,.9,-1.6,1.4,-2.1c.3,-.4,.7,-.8,.9,-1.1c.9,-1.1,1.1,-1.4,1.3,-1.3c.1,0,.2,.1,.2,.1c0,0,-.2,.4,-.5,.8c-.3,.5,-.8,1.1,-1,1.6c-.9,1.4,-2.1,3.3,-2.5,3.9c-.2,.4,-.5,.8,-.6,1c-.1,.2,-.4,.6,-.5,.9c-.2,.2,-.3,.5,-.3,.7c-.1,.3,-.2,.7,-1.2,2.5c-.8,1.6,-1,2,-1.7,3.7c-.5,1.1,-.8,2.2,-.7,2.4l-.3,3.2c-.3,.1,-.5,1.9,-.2,3c.1,.7,.1,1,-.2,1.2c-.6,.5,-1.1,1.2,-1.3,1.7c-.1,.4,-.2,.5,-.4,.5c-.1,.1,-.2,0,-.3,-.1Z" class="g4"/>
<path d="M133.1,652.5c-.1,-.1,-.3,-.1,-.3,-.1q-.2,0,0,.1c0,.1,.2,.1,.3,.1q.2,0,0,-.1Z" class="g1"/>
<path d="M144.5,633.4q0,-.1,-.1,-.1c-.1,0,-.1,.1,-.2,.2q0,.1,.1,.1c.1,0,.2,-.1,.2,-.2Z" class="g1"/>
<path d="M125.7,666c-.1,0,-.1,-.1,-.1,-.3c.1,-.1,.1,-.8,.1,-1.6c0,-1.4,.1,-2.2,.4,-3.6l.1,-.6l-.5,-.9c-.2,-.6,-.5,-1.3,-.6,-1.7c-.1,-.3,-.3,-.8,-.3,-.9c-.2,-.7,-.3,-2.9,-.3,-4c.1,-1,.5,-2.5,.7,-2.5c.1,0,.2,.1,.5,.5c.4,.8,.6,.8,.2,-.1c-.4,-.8,-.7,-1.8,-.7,-2.4c0,-.5,.5,-2,.9,-2.8c.2,-.3,.3,-.5,.5,-.5q.3,0,.9,.9l.5,.7l-.4,-.7c-.5,-1.2,-.4,-1.7,.3,-2.9c.3,-.6,.6,-1.1,.7,-1.1c.1,-.1,.4,-.4,.6,-.7c.3,-.3,.8,-.8,1.2,-1c.3,-.3,.7,-.6,.9,-.9c.4,-.4,.7,-.4,1,.2l.2,.4l-.1,-.5c-.1,-.8,0,-1,.8,-1.6c.5,-.3,.9,-.6,1,-.6c0,0,.1,0,.1,-.1c0,0,.1,-.1,.3,-.1q.2,0,.2,.1c-.1,.1,-.1,.2,-.2,.2c-.1,0,-.4,.2,-.7,.5c-.4,.3,-.8,.6,-.9,.7c-.2,.1,-.3,.2,-.3,.7c.1,.3,.1,.6,.2,.8c.1,.5,.1,1,0,1c-.2,0,-.4,-.2,-.7,-.9l-.3,-.6l-.4,.2c-.1,.2,-.3,.3,-.3,.4c-.1,0,-.3,.2,-.6,.5c-.3,.2,-.6,.4,-.7,.5c-.1,.1,-.3,.4,-.6,.6c-.6,.6,-1.6,2.2,-1.5,2.6c.1,.3,1,2.2,1.7,3.4c.5,.9,.6,1.1,.4,1.1c-.2,-.1,-1.2,-.8,-1.6,-1.4c-.3,-.3,-.6,-.7,-.8,-.9c-.1,-.2,-.3,-.5,-.4,-.7c-.2,-.4,-.4,-.4,-.6,0c-.3,.5,-.8,2.1,-.9,2.5c-.1,.8,.6,2.6,1.5,3.8c.7,1,.7,1.3,-.1,.8c-.3,-.2,-1.2,-1.3,-1.5,-1.6c0,-.1,-.1,-.2,-.1,-.2c-.2,.1,-.4,1.1,-.4,1.7c0,.4,0,.8,-.1,.9c0,.1,0,.7,.1,1.3c.1,.6,.1,1.3,.1,1.5c.1,.7,1,3,1.2,3c0,-.1,.1,-.6,.3,-1.2c.2,-.6,.3,-1.2,.4,-1.4c0,-.2,.1,-.5,.1,-.5c.1,-.1,.2,-.4,.3,-.7c.1,-.5,.2,-.9,1.1,-2.7c.3,-.6,.7,-1.4,.9,-1.9c.8,-1.7,1.6,-3.2,2.2,-4.2c.7,-1,1.1,-1.6,1.9,-3c.2,-.4,.6,-.8,.7,-1.1c.2,-.2,.3,-.4,.3,-.5c.1,-.1,.3,-.4,.6,-.7c.2,-.3,.6,-.7,.8,-1c.9,-1.2,1.1,-1.4,1.2,-1.3c.2,.1,.2,.2,-.6,1.2c-.2,.3,-.6,.8,-.8,1.2c-.8,1.4,-2.1,3.5,-2.4,3.9c-.6,.8,-1.5,2.5,-1.5,2.7c0,.1,-.5,1.3,-1.2,2.6c-.7,1.3,-1.3,2.7,-1.5,3.1c-.1,.4,-.3,.8,-.3,.8c-.1,.1,-.5,1.3,-.6,1.8c0,.3,-.1,.7,-.1,1c-.2,.7,-.3,2,-.3,2.1c0,0,.1,-.1,.3,-.2c.1,-.1,.3,-.3,.6,-.4c.2,-.2,.5,-.5,.8,-.7c.2,-.3,.4,-.5,.5,-.5c.6,-.6,.9,-1,1.2,-1.5c.3,-.3,.6,-.7,.7,-.8c.3,-.3,1.2,-2,1.2,-2.1c-.1,-.1,-.4,-.3,-.9,-.5c-.9,-.5,-1,-.6,-.8,-.7c.1,-.1,1,0,1.8,.2c.2,.1,.7,.1,1,.1c.9,-.1,1.4,-.4,1.6,-1.1c.1,-.2,.2,-.6,.2,-.7c.1,-.3,.3,-1,.3,-1.6c.1,-.5,.4,-1.3,.6,-1.6l.2,-.3h-.5c-.5,.1,-1.6,-.1,-1.7,-.3c-.1,-.2,.7,-.6,1.6,-.8l.8,-.2l.2,-.6c.2,-.3,.3,-.7,.4,-.8c0,-.2,.1,-.4,.2,-.5c.1,-.1,.3,-.3,.4,-.6c.1,-.2,.3,-.6,.5,-.9c1.3,-1.9,1.5,-2.3,1.4,-2.3c-.1,0,-.4,.1,-.6,.2c-.7,.4,-1.5,.4,-1.5,.1c0,-.3,1.8,-1.4,2.7,-1.6q.4,-.1,.4,-.5c0,-.3,.2,-.7,.3,-.8c.1,-.2,.3,-.5,.4,-.7c.3,-.5,2.2,-2.2,3.2,-2.8c.7,-.4,1.8,-1,2.7,-1.4l.7,-.3l-1.6,.2c-2.6,.4,-3.7,.7,-4.4,1.5c-.3,.3,-.4,.4,-.5,.1c-.1,-.2,.6,-.9,1.2,-1.1c.6,-.3,1.7,-.6,2.4,-.7c.4,0,1.5,-.2,2.5,-.3c1.5,-.3,1.8,-.3,1.9,-.2c.4,.2,.3,.3,-.2,.5c-1.1,.5,-2.2,.9,-2.9,1.3c-.7,.3,-2,1,-2.2,1.2c-.1,.1,-.3,.3,-.5,.5c-1,.8,-1.7,1.5,-1.9,1.8c-.1,.2,-.3,.4,-.4,.6c-.1,.1,-.3,.4,-.3,.6c0,.4,-.1,.5,-.4,.7c-.2,.2,-.5,.3,-.6,.3h-.2l.2,.1c.4,0,.5,.2,.3,.4c0,.1,-.1,.3,-.1,.3c.1,.1,-.1,.4,-.4,.7c-.2,.2,-.5,.6,-.6,.8c-.1,.1,-.3,.5,-.4,.7c-.4,.5,-.6,.9,-.7,1.1c0,.1,-.2,.5,-.4,.8c-.2,.5,-.4,.8,-.7,1.6c-.1,.3,-.2,.4,-.7,.4c-.7,.2,-1.5,.4,-1.4,.5c0,.1,.4,0,.9,0c.8,-.1,.9,-.1,1,0c.1,.1,.1,.3,-.2,.7c-.3,.6,-.7,1.7,-.7,2.1c0,.4,-.3,1.3,-.6,2.2c-.1,.3,-.2,.5,-.6,.7c-.5,.3,-.6,.3,-1.2,.3c-.4,0,-.9,0,-1,0c-.2,-.1,-.5,-.2,-.8,-.2l-.6,-.1l.5,.2c.3,.1,.6,.2,.7,.3q.5,0,.6,.1c.1,.2,-.9,2.1,-1.3,2.5c-.2,.2,-.5,.6,-.6,.8c-.2,.3,-.4,.5,-.5,.6c-.2,.1,-.4,.4,-.6,.6c-.4,.5,-1.3,1.3,-1.7,1.6c-.1,.1,-.4,.3,-.5,.4c-.1,.1,-.3,.3,-.5,.3c-.2,.1,-.3,.3,-.3,.5c-.1,.5,-.1,1.8,-.1,2.1c0,.1,.1,.4,.1,.8c.1,.6,.1,.7,-.2,.9c-.4,.3,-1,1.1,-1.2,1.7c-.2,.3,-.3,.5,-.3,.5c-.1,0,-.2,0,-.3,-.1Z" class="g5"/>
<path d="M128.2,645.7q-.1,-.2,-.1,-.1c-.1,.2,0,.3,.1,.3c.1,0,.1,-.1,0,-.2Z" class="g5"/>
<path d="M139.7,639.8c.2,-.1,.5,-.3,.7,-.4l.2,-.2l-.3,.1c-.5,.1,-1.4,.5,-1.4,.7c0,.1,.3,0,.8,-.2Z" class="g6"/>
<path d="M139.7,639.7c.4,-.2,.6,-.4,.2,-.2c-.3,.1,-.9,.4,-.7,.4c0,0,.3,-.1,.5,-.2Z" class="g1"/>
<path d="M134.9,636.5c0,-.1,.6,-.5,.7,-.4q.2,.1,-.1,.2c-.1,.1,-.3,.2,-.4,.2q-.1,.1,-.2,0Z" class="g5"/>
<path d="M136.2,635.8c.1,-.1,.2,-.2,.3,-.2q.2,0,.1,.2c-.1,.1,-.2,.1,-.3,.2q-.2,0,-.1,-.2Z" class="g5"/>
<path d="M137.1,635.3c.1,-.2,.6,-.3,.7,-.2c0,.1,-.5,.3,-.7,.3c-.1,.1,-.1,0,0,-.1Z" class="g5"/>
<path d="M137.9,635c0,-.1,.8,-.5,1.3,-.7c.3,-.1,.6,-.2,.7,-.3c.4,-.2,1.9,-.8,2.1,-.7c.2,.1,.1,.3,-.2,.3c-.5,.1,-1.7,.5,-3,1.1c-.6,.3,-.8,.4,-.9,.3Z" class="g5"/>
<path d="M125.7,666c0,-.1,0,-.2,0,-.3c0,0,.1,-.6,.1,-1.2c0,-1.3,0,-1.9,.4,-4l.1,-.6l-.6,-1.1c-.3,-.6,-.5,-1.2,-.6,-1.6c-.1,-.3,-.2,-.7,-.2,-.9c-.3,-1,-.4,-4.1,-.1,-5.2c.1,-.4,.2,-.8,.2,-.9c.1,-.4,.2,-.3,.7,.3c.6,1.1,.9,1,.3,-.1c-.4,-.6,-.8,-2,-.8,-2.6c0,-.3,.6,-1.9,1,-2.7c.1,-.2,.3,-.4,.4,-.4c.2,0,.3,0,.5,.4c.5,.6,.6,.9,.5,.8c-.1,0,-.3,-.2,-.4,-.4c-.4,-.8,-.6,-.6,-1.2,.9c-.7,1.8,-.6,2.3,.7,4.7c.5,.8,.8,1.5,.7,1.5c-.2,.1,-1.4,-1.1,-1.7,-1.6c-.1,-.1,-.2,-.3,-.3,-.3q-.1,-.1,-.2,.1c-.3,.8,-.4,2.5,-.2,4c0,.5,.1,1.2,.1,1.4c0,.5,1,3.1,1.2,3.1c.1,0,.1,-.1,.1,-.3c0,-.1,.1,-.7,.3,-1.3c.2,-.5,.3,-1.1,.4,-1.3c0,-.2,0,-.3,.1,-.3c.1,-.1,.4,-1.2,.4,-1.2c0,-.1,.1,-.4,.2,-.7c.9,-1.8,1.3,-2.7,1.6,-3.5c.8,-1.5,1.6,-3.1,2.3,-4.1c.7,-1.2,1.3,-2.2,1.9,-3.1c.2,-.4,.5,-.8,.7,-1c.1,-.2,.3,-.4,.3,-.5c0,-.1,.6,-.8,.9,-1.1c.1,-.1,.3,-.4,.5,-.6c.6,-1,1,-1.4,1.1,-1.3q.1,0,-.6,.9c-.2,.4,-.7,1,-.9,1.4c-.8,1.4,-2,3.4,-2.3,3.7c-.6,.8,-1.6,2.7,-1.6,2.9c0,.2,-.5,1.3,-1.2,2.6c-.6,1.3,-1.3,2.6,-1.4,3c-.2,.4,-.4,1,-.6,1.4c-.2,.7,-.4,1.4,-.4,1.8c0,.2,-.1,.4,-.1,.7c-.1,.2,-.2,.7,-.2,1.1c-.1,.6,-.1,.8,.1,.8c.1,0,.2,0,.2,-.1c.1,-.1,.3,-.3,.6,-.5c.3,-.2,.5,-.5,.6,-.5c0,-.1,.3,-.3,.5,-.5c.7,-.6,1.1,-1.1,1.5,-1.7c.3,-.3,.6,-.7,.7,-.8c.2,-.2,1.1,-1.8,1.1,-2c0,-.2,-.1,-.2,-.6,-.5c-.7,-.4,-.6,-.4,.1,-.1c.3,.1,.6,.2,.7,.1c.4,-.1,.3,.3,-.2,1.3c-.3,.6,-.7,1.3,-.9,1.4c-.1,.2,-.4,.5,-.6,.8c-.2,.2,-.4,.5,-.5,.6c-.1,.1,-.3,.3,-.5,.5c-.1,.2,-.4,.5,-.6,.6c-.2,.2,-.5,.5,-.6,.6c-.1,.2,-.3,.3,-.3,.3c-.1,0,-.3,.2,-.5,.4c-.2,.2,-.5,.4,-.7,.4c-.2,.1,-.3,.2,-.3,.7c-.1,.3,-.1,.6,-.1,.7c0,0,0,.3,0,.5c0,.3,.1,.7,.1,1c.2,.8,.1,1.1,-.1,1.3c-.4,.3,-1.1,1.2,-1.3,1.8c-.2,.5,-.3,.5,-.5,.4Z" class="g7"/>
<path d="M134,652.5c-.4,0,-.8,-.1,-1,-.2c-.2,0,-.4,-.1,-.5,-.1c-.1,0,-.3,0,-.4,-.1c-.1,0,-.3,0,-.4,0c-.1,.1,-.2,0,-.3,0c-.1,-.2,.3,-.2,1.8,.1c1.4,.2,2.5,-.2,2.7,-1c0,-.2,.1,-.6,.2,-.8c.1,-.3,.2,-.6,.2,-.8c.1,-.4,.1,-.8,.3,-1.6c.1,-.3,.2,-.6,.4,-.8c.1,-.1,.2,-.3,.1,-.3c0,-.1,-.2,-.1,-.4,0c-.4,.1,-1.6,-.1,-1.7,-.3c-.1,-.3,.8,-.7,2,-.8c.3,-.1,.4,-.1,.6,-.8c.6,-1.4,1.6,-3.2,2.9,-4.9c.1,-.1,.1,-.2,0,-.3c0,0,-.3,.1,-.7,.2c-.6,.3,-1.3,.4,-1.4,.2c0,-.1,0,-.2,.1,-.2q.2,-.1,.2,.1q.1,.1,.2,.1c.2,0,1.2,-.5,1.5,-.7c.3,-.2,.6,-.3,.6,-.2c.1,.2,-.1,.9,-.2,1c-.2,.1,-.5,.6,-.7,.9c-.1,.1,-.4,.5,-.6,.8c-.3,.6,-.5,.9,-.6,1.2c-.1,.1,-.3,.5,-.4,.8c-.3,.5,-.6,1,-.8,1.6c-.1,.3,-.2,.3,-.7,.4c-.8,.1,-1.6,.4,-1.4,.6c0,.1,.4,0,1,-.1c.8,-.1,.9,-.1,1,.1c0,0,-.1,.3,-.3,.6c-.3,.6,-.6,1.6,-.7,2.1c0,.2,-.1,.6,-.2,.9c-.1,.3,-.2,.7,-.2,.9c-.1,.5,-.4,.9,-.8,1.1c-.6,.3,-.7,.3,-1.4,.3Z" class="g7"/>
<path d="M129.6,648.1c-.2,-.1,-.4,-.2,-.5,-.3c-.3,-.2,-1,-1,-1,-1.1c0,-.1,.1,-.1,.1,-.1c.1,0,.5,.4,.6,.5c.1,.1,.2,.2,.2,.2c.1,0,.1,-.1,-.1,-.3c-.1,-.2,-.3,-.5,-.4,-.8c-.1,-.3,-.4,-.9,-.6,-1.4c-.3,-.5,-.5,-1,-.5,-1.1c0,-.1,.2,-.6,.5,-1.1c.6,-1,1.6,-2.1,2.5,-2.8c.4,-.2,.8,-.6,.9,-.8c.4,-.5,.6,-.4,.9,.3q.3,.5,.4,.5c.1,-.1,.2,-.1,.2,-.1c0,0,.1,.2,.1,.4c.1,.6,-.1,.5,-.6,-.3c-.4,-.8,-.5,-.9,-.7,-.6c-.1,.2,-.7,.6,-1.1,.9c-.7,.5,-1.8,1.8,-2.5,3l-.4,.6l.7,1.4c.7,1.5,1.1,2.2,1.5,2.8c.2,.4,.2,.5,-.2,.2Z" class="g7"/>
<path d="M128.1,646.2c-.1,-.1,0,-.2,0,-.2c.1,0,.1,.1,.2,.2c0,0,0,.1,0,.1c-.1,0,-.2,0,-.2,-.1Z" class="g7"/>
<path d="M127.6,645.2c-.3,-.6,-.2,-.8,0,-.5c.2,.3,.4,.8,.3,1c-.1,0,-.2,-.1,-.3,-.5Z" class="g7"/>
<path d="M140.1,639c.5,-.2,1.1,-.4,1.2,-.3c.1,.1,-.1,.2,-.8,.4c-.8,.2,-.9,.2,-.4,-.1Z" class="g7"/>
<path d="M141.5,638.6c0,-.1,0,-.3,0,-.5c0,-.5,.7,-1.7,1.3,-2.2c1.8,-1.7,3.9,-3,5.7,-3.6c.6,-.2,.6,-.3,-.1,-.2c-.3,.1,-1.3,.2,-2.2,.4c-1,.1,-1.9,.3,-2.1,.3c-.4,.2,-1.2,.7,-1.5,1c-.2,.2,-.3,.3,-.4,.1c-.1,-.2,.9,-1,1.4,-1.2c1.1,-.3,1.4,-.4,2.1,-.5c.4,0,1.6,-.2,2.6,-.3c1.8,-.3,2,-.3,2.1,-.1c0,.1,-.3,.3,-.7,.4c-2.5,.9,-4.4,1.9,-5.3,2.8c-.2,.2,-.4,.3,-.4,.3c-.1,0,-.2,.1,-.3,.2c-.1,.1,-.3,.4,-.6,.6c-.2,.2,-.5,.5,-.6,.7c-.1,.2,-.3,.5,-.5,.6c-.1,.2,-.2,.4,-.3,.6c0,.4,-.1,.7,-.2,.6Z" class="g7"/>
<path d="M132.6,639.1c-.1,-.2,-.2,-.8,-.1,-1c0,-.1,.3,-.3,.6,-.5c.3,-.2,.7,-.5,.8,-.6l.2,-.1l-.1,.2c-.2,.2,-1,.9,-1.2,1c-.1,.1,-.2,.3,-.2,.4c0,.2,0,.4,0,.5c.1,.2,0,.2,0,.1Z" class="g7"/>
<path d="M141.5,633.5c.2,-.2,.5,-.3,.5,-.1c0,0,-.1,.1,-.3,.1q-.4,.1,-.2,0Z" class="g7"/>
<path d="M125.7,666c0,-.1,0,-.2,0,-.3c0,0,.1,-.6,.1,-1.2c0,-1.2,0,-1.8,.4,-4.1c.1,-.5,0,-.6,-.5,-1.6c-.3,-.6,-.5,-1.2,-.6,-1.6c-.1,-.3,-.2,-.7,-.2,-.9c-.3,-1,-.4,-4.1,-.1,-5.2c.1,-.4,.2,-.8,.2,-.9c.1,-.4,.2,-.3,.7,.3c.6,1.1,.9,1,.3,-.1c-.4,-.6,-.8,-2,-.8,-2.6c0,-.3,.6,-1.9,1,-2.7c.1,-.2,.3,-.4,.4,-.4c.2,0,.3,0,.5,.4c.5,.6,.6,.9,.5,.8c-.1,0,-.3,-.2,-.4,-.4c-.4,-.8,-.6,-.6,-1.2,.9c-.7,1.8,-.6,2.3,.7,4.7c.5,.8,.8,1.5,.7,1.5c-.2,.1,-1.4,-1.1,-1.7,-1.6c-.1,-.1,-.2,-.3,-.3,-.3q-.1,-.1,-.2,.1c-.3,.8,-.4,2.5,-.2,4c0,.5,.1,1.2,.1,1.4c0,.5,1,3.1,1.2,3.1c.1,0,.1,-.1,.1,-.3c0,-.1,.1,-.7,.3,-1.3c.2,-.5,.3,-1.1,.4,-1.3c0,-.2,0,-.3,.1,-.3c.1,-.1,.4,-1.2,.4,-1.2c0,-.1,.1,-.4,.2,-.7c.9,-1.8,1.3,-2.7,1.6,-3.5c.8,-1.5,1.6,-3.1,2.3,-4.1c.7,-1.2,1.3,-2.2,1.9,-3.1c.2,-.4,.5,-.8,.7,-1c.1,-.2,.3,-.4,.3,-.5c0,-.1,.6,-.8,.9,-1.1c.1,-.1,.3,-.4,.5,-.6c.6,-1,1,-1.4,1.1,-1.3q.1,0,-.7,1.1c-1.5,1.9,-2.3,3.2,-3.6,5.4c-.3,.4,-.7,1,-1,1.5c-.4,.5,-.5,.8,-.4,.8c.4,0,.3,.4,-.8,2.7c-.7,1.3,-1.4,2.6,-1.5,3c-.2,.4,-.4,1,-.6,1.4c-.2,.7,-.4,1.4,-.4,1.8c0,.2,-.1,.4,-.1,.7c-.1,.2,-.2,.7,-.2,1.1c-.1,.6,-.1,.8,.1,.8c.1,0,.2,0,.2,-.1c.1,-.1,.3,-.3,.6,-.5c.3,-.2,.5,-.5,.6,-.5c0,-.1,.3,-.3,.5,-.5c.7,-.6,1.1,-1.1,1.5,-1.7c.3,-.3,.6,-.7,.7,-.8c.2,-.2,1.1,-1.8,1.1,-2c0,-.2,-.1,-.2,-.6,-.5c-.7,-.4,-.6,-.4,.1,-.1c.3,.1,.6,.2,.7,.1c.4,-.1,.3,.3,-.2,1.3c-.3,.6,-.7,1.3,-.9,1.4c-.1,.2,-.4,.5,-.6,.8c-.2,.2,-.4,.5,-.5,.6c-.1,.1,-.3,.3,-.5,.5c-.1,.2,-.4,.5,-.6,.6c-.2,.2,-.5,.5,-.6,.6c-.1,.2,-.3,.3,-.3,.3c-.1,0,-.3,.2,-.5,.4c-.2,.2,-.5,.4,-.7,.4c-.2,.1,-.3,.2,-.3,.7c-.1,.3,-.1,.6,-.1,.7c0,0,0,.3,0,.5c0,.3,.1,.7,.1,1c.2,.8,.1,1.1,-.1,1.3c-.4,.3,-1.1,1.2,-1.3,1.8c-.2,.5,-.3,.5,-.5,.4Z" class="g8"/>
<path d="M134,652.5c-.4,0,-.8,-.1,-1,-.2c-.2,0,-.4,-.1,-.5,-.1c-.1,0,-.3,0,-.4,-.1c-.1,0,-.3,0,-.4,0c-.1,.1,-.2,0,-.3,0c-.1,-.2,.3,-.2,1.8,.1c1.4,.2,2.5,-.2,2.7,-1c0,-.2,.1,-.6,.2,-.8c.1,-.3,.2,-.6,.2,-.8c.1,-.4,.1,-.8,.3,-1.6c.1,-.3,.2,-.6,.4,-.8c.1,-.1,.2,-.3,.1,-.3c0,-.1,-.2,-.1,-.4,0c-.4,.1,-1.6,-.1,-1.7,-.3c-.1,-.3,.8,-.7,2,-.8c.3,-.1,.4,-.1,.6,-.8c.6,-1.4,1.6,-3.2,2.9,-4.9c.1,-.1,.1,-.2,0,-.3c0,0,-.3,.1,-.7,.2c-.6,.3,-1.3,.4,-1.4,.2c0,-.1,0,-.2,.1,-.2q.2,-.1,.2,.1q.1,.1,.2,.1c.2,0,1.2,-.5,1.5,-.7c.3,-.2,.6,-.3,.6,-.2c.1,.2,-.1,.9,-.2,1c-.2,.1,-.5,.6,-.7,.9c-.1,.1,-.4,.5,-.6,.8c-.3,.6,-.5,.9,-.6,1.2c-.1,.1,-.3,.5,-.4,.8c-.3,.5,-.6,1,-.8,1.6c-.1,.3,-.2,.3,-.7,.4c-.8,.1,-1.6,.4,-1.4,.6c0,.1,.4,0,1,-.1c.8,-.1,.9,-.1,1,.1c0,0,-.1,.3,-.3,.6c-.3,.6,-.6,1.6,-.7,2.1c0,.2,-.1,.6,-.2,.9c-.1,.3,-.2,.7,-.2,.9c-.1,.5,-.4,.9,-.8,1.1c-.6,.3,-.7,.3,-1.4,.3Z" class="g8"/>
<path d="M129.6,648.1c-.2,-.1,-.4,-.2,-.5,-.3c-.3,-.2,-1,-1,-1,-1.1c0,-.1,.1,-.1,.1,-.1c.1,0,.5,.4,.6,.5c.1,.1,.2,.2,.2,.2c.1,0,.1,-.1,-.1,-.3c-.1,-.2,-.3,-.5,-.4,-.8c-.1,-.3,-.4,-.9,-.6,-1.4c-.3,-.5,-.5,-1,-.5,-1.1c0,-.1,.2,-.6,.5,-1.1c.6,-1,1.6,-2.1,2.5,-2.8c.4,-.2,.8,-.6,.9,-.8c.4,-.5,.6,-.4,.9,.3q.3,.5,.4,.5c.1,-.1,.2,-.1,.2,-.1c0,0,.1,.2,.1,.4c.1,.6,-.1,.5,-.6,-.3c-.4,-.8,-.5,-.9,-.7,-.6c-.1,.2,-.7,.6,-1.1,.9c-.7,.5,-1.8,1.8,-2.5,3l-.4,.6l.7,1.4c.7,1.5,1.1,2.2,1.5,2.8c.2,.4,.2,.5,-.2,.2Z" class="g8"/>
<path d="M128.1,646.2c-.1,-.1,0,-.2,0,-.2c.1,0,.1,.1,.2,.2c0,0,0,.1,0,.1c-.1,0,-.2,0,-.2,-.1Z" class="g8"/>
<path d="M127.6,645.2c-.3,-.6,-.2,-.8,0,-.5c.2,.3,.4,.8,.3,1c-.1,0,-.2,-.1,-.3,-.5Z" class="g8"/>
<path d="M140.1,639c.5,-.2,1.1,-.4,1.2,-.3c.1,.1,-.1,.2,-.8,.4c-.8,.2,-.9,.2,-.4,-.1Z" class="g8"/>
<path d="M141.5,638.6c0,-.1,0,-.3,0,-.5c0,-.5,.7,-1.7,1.3,-2.2c1.8,-1.7,3.9,-3,5.7,-3.6c.6,-.2,.6,-.3,-.1,-.2c-.3,.1,-1.3,.2,-2.2,.4c-1,.1,-1.9,.3,-2.1,.3c-.4,.2,-1.2,.7,-1.5,1c-.2,.2,-.3,.3,-.4,.1c-.1,-.2,.9,-1,1.4,-1.2c1.1,-.3,1.4,-.4,2.1,-.5c.4,0,1.6,-.2,2.6,-.3c1.8,-.3,2,-.3,2.1,-.1c0,.1,-.3,.3,-.7,.4c-2.5,.9,-4.4,1.9,-5.3,2.8c-.2,.2,-.4,.3,-.4,.3c-.1,0,-.2,.1,-.3,.2c-.1,.1,-.3,.4,-.6,.6c-.2,.2,-.5,.5,-.6,.7c-.1,.2,-.3,.5,-.5,.6c-.1,.2,-.2,.4,-.3,.6c0,.4,-.1,.7,-.2,.6Z" class="g8"/>
<path d="M132.6,639.1c-.1,-.2,-.2,-.8,-.1,-1c0,-.1,.3,-.3,.6,-.5c.3,-.2,.7,-.5,.8,-.6l.2,-.1l-.1,.2c-.2,.2,-1,.9,-1.2,1c-.1,.1,-.2,.3,-.2,.4c0,.2,0,.4,0,.5c.1,.2,0,.2,0,.1Z" class="g8"/>
<path d="M141.5,633.5c.2,-.2,.5,-.3,.5,-.1c0,0,-.1,.1,-.3,.1q-.4,.1,-.2,0Z" class="g8"/>
<path d="M127.2,663.6c.1,-.1,.1,-.2,.1,-.5c-.1,-.3,-.1,-.9,-.1,-1.4c0,-.6,0,-1,0,-1.1c0,0,0,-.2,0,-.3c0,-.1,.1,-.5,.1,-.8c.1,-1.3,.1,-1.5,.5,-3.1c0,-.2,.1,-.5,.1,-.7c.2,-1,1.2,-3.2,2.4,-5.4c.6,-1.3,.9,-2,.9,-2.2c0,0,-.3,.5,-.6,1.1c-.3,.6,-.7,1.4,-.9,1.8c-.9,1.7,-1.9,4,-2,4.5c0,.2,-.2,.6,-.3,.8c0,.3,-.1,.5,-.1,.5c.1,.1,-.3,1.3,-.5,1.8c0,.2,-.1,.6,-.1,.9c-.1,.2,-.2,.7,-.2,1c-.3,1,-.5,2.6,-.3,2.8c0,.1,.2,.2,.4,.3c.4,.2,.3,.2,.6,0Z" class="g7"/>
<path d="M124.9,656.4c-.1,-.2,-.3,-2.1,-.3,-3.2c0,-.8,.1,-1.6,.2,-2.2c.1,-.4,.2,-.7,.2,-.9c.1,-.3,.3,-.2,.6,.3c.1,.3,.4,.6,.6,.9l.3,.3l-.1,-.4c-.1,-.2,-.3,-.7,-.5,-1.1c-.4,-.8,-.7,-2.2,-.6,-2.7c.1,-.4,.6,-1.6,.9,-2.3c.2,-.4,.6,-.6,.8,-.3q0,.2,-.2,.2c-.2,0,-.3,.2,-.4,.5c-.7,1.3,-.9,2.3,-.9,2.9c.1,.3,.3,.9,.5,1.5c.4,.8,.5,1.1,1,1.8c.3,.4,.5,.8,.5,.8c0,.2,-.6,-.1,-.9,-.4c-.1,-.2,-.2,-.4,-.4,-.5c-.1,-.1,-.4,-.5,-.6,-.7l-.3,-.5l-.1,.3c-.4,.9,-.5,2.5,-.3,4.3c.1,1.2,.1,1.6,0,1.4Z" class="g9"/>
<path d="M133.7,652.5c-.2,-.1,-.4,-.1,-.6,-.2c-.2,0,-.4,-.1,-.5,-.1c-.2,0,-.8,-.2,-.8,-.2c0,0,.5,0,1,.1c1.3,.2,2,.2,2.5,-.2c.4,-.2,.5,-.4,.8,-1.2c.2,-1,.3,-1.2,.3,-1.6c.1,-.7,.2,-1.1,.6,-1.7c.1,-.3,.2,-.6,.2,-.6c0,0,-.2,0,-.5,.1c-.3,0,-.5,0,-1.1,-.1l-.6,-.2l.1,-.2c.2,-.2,.8,-.4,1.6,-.6l.7,-.1l.3,-.7c.5,-1.3,1.6,-3.2,2.4,-4.4c.3,-.3,.5,-.7,.4,-.8q0,-.1,-.7,.2q-.7,.3,-.7,.2c0,0,.2,-.1,.3,-.2c.2,0,.5,-.2,.8,-.4c.4,-.3,.7,-.3,.8,-.3c.2,.1,-.1,.8,-.5,1.2c-.7,.8,-2,3.1,-2.6,4.5c-.1,.3,-.2,.6,-.3,.7c0,.1,-.2,.2,-.3,.2c-.8,.1,-1,.2,-1.4,.3c-.5,.2,-.5,.3,-.3,.4c0,0,.3,0,1,0c.7,-.2,.9,-.2,.9,-.1c.1,.1,-.1,.5,-.3,.9c-.4,.7,-.6,1.4,-.6,1.9c0,.2,-.1,.7,-.2,1.1c-.2,.3,-.2,.7,-.2,.7c0,0,-.1,.2,-.2,.5c-.3,.6,-1.2,1,-2.3,.9Z" class="g9"/>
<path d="M131.5,652.1q0,-.1,.1,-.1c0,0,.1,0,.1,0c0,0,0,.1,-.1,.1h-.1Z" class="g9"/>
<path d="M129.3,647.9c-.6,-.4,-1.3,-1.4,-.9,-1.1c.1,.1,.3,.2,.3,.3c.1,.1,.4,.3,.5,.2c0,-.1,.5,.4,.6,.7c.1,.2,.1,.3,.1,.3c0,0,-.3,-.2,-.6,-.4Z" class="g9"/>
<path d="M128.8,646.8c0,0,-.2,-.3,-.2,-.5c-.1,-.3,-.4,-.9,-.6,-1.3c-.3,-.5,-.5,-1,-.6,-1.1c0,-.3,.8,-1.9,1.2,-2.3c.1,-.1,.4,-.5,.7,-.7c.3,-.3,.6,-.7,.8,-.8c.6,-.4,.9,-.7,1.3,-1.1c.2,-.2,.4,-.3,.5,-.3c.2,.1,.2,.3,0,.3c0,0,-.4,.2,-.7,.5c-.4,.3,-.7,.6,-.7,.6c-.2,0,-.4,.2,-.9,.8c-.3,.3,-.5,.6,-.6,.6c0,0,-.9,1.3,-1.2,1.8c-.2,.5,-.2,.6,.4,1.8c.8,1.5,.9,2,.6,1.7Z" class="g9"/>
<path d="M127.2,645.5c-.1,-.1,-.1,-.2,0,-.2c.1,0,.2,.1,.3,.3c0,.1,0,.2,0,.2c-.1,0,-.2,-.1,-.3,-.3Z" class="g9"/>
<path d="M127.6,645.3c0,-.2,-.1,-.4,-.2,-.5c0,-.1,0,-.2,0,-.2c.1,0,.5,.6,.5,.8c0,.2,-.2,.1,-.3,-.1Z" class="g9"/>
<path d="M138.4,640.2c0,-.1,.1,-.1,.2,-.1q.1,0,.2,0c0,.1,-.1,.1,-.2,.1c-.1,.1,-.2,0,-.2,0Z" class="g9"/>
<path d="M132.5,640.2c-.1,-.3,.1,-.5,.3,-.2c.1,.3,.1,.4,0,.5c-.1,0,-.2,-.1,-.3,-.3Z" class="g9"/>
<path d="M140.3,639c-.1,-.1,.8,-.4,.9,-.3q.1,.1,0,.2c-.3,.1,-.9,.2,-.9,.1Z" class="g9"/>
<path d="M132.2,639.6c-.1,0,-.1,-.1,0,-.2q0,-.1,.1,.1q0,.1,0,.1c-.1,.1,-.1,0,-.1,0Z" class="g9"/>
<path d="M141.6,638.5c-.1,-.2,0,-1,.2,-1.2c.1,-.1,.3,-.4,.4,-.7c.2,-.2,.4,-.5,.5,-.5c.1,-.1,.3,-.3,.4,-.4c.4,-.4,2,-1.7,2.8,-2.1c.8,-.5,1.9,-1,2.8,-1.3c.6,-.3,.6,-.4,0,-.3c-.3,.1,-1.3,.2,-2.2,.3c-1.7,.3,-2,.3,-2.4,.5c-.4,.1,-1.2,.6,-1.5,.9c-.1,.1,-.2,.2,-.3,.2c-.2,0,.8,-1,1.2,-1.1c.7,-.3,1.8,-.5,2.4,-.6c.4,0,1.5,-.2,2.4,-.3c.9,-.2,1.8,-.3,1.8,-.3c.3,.1,.3,.3,0,.4c-1.4,.5,-2.5,1,-3.3,1.4c-.8,.4,-1.7,1,-2,1.1c0,.1,-.2,.3,-.4,.4c-1,.9,-1.8,1.7,-2,2c-.1,.1,-.2,.3,-.3,.3c-.1,0,-.4,.7,-.4,1c0,.3,-.1,.4,-.1,.3Z" class="g9"/>
<path d="M132.6,638.1c-.1,-.1,.6,-.6,1,-.8c.3,-.2,.2,0,-.2,.3c-.4,.4,-.7,.6,-.8,.5Z" class="g9"/>
<path d="M141.7,633.5q-.1,-.1,0,-.1c.1,-.1,.3,-.1,.2,.1c0,0,-.1,0,-.2,0Z" class="g9"/>
<path d="M125.9,659.2c-.1,-.1,-.1,-.2,0,-.2c0,-.1,.1,0,.1,.1c.1,.1,.1,.2,.1,.2c-.1,0,-.2,0,-.2,-.1Z" class="ga"/>
<path d="M129,658.6c0,0,0,-.1,.1,-.1q.2,-.1,.2,.1c-.1,.1,-.4,.2,-.3,0Z" class="ga"/>
<path d="M125.7,658.6c-.1,-.1,-.1,-.2,0,-.1c0,0,.1,.1,.1,.1q0,.2,-.1,0Z" class="ga"/>
<path d="M129.5,658.2c0,-.1,.2,-.3,.4,-.4c.2,-.2,.5,-.5,.5,-.6c.2,-.3,.4,-.4,.4,-.2c0,.1,-1,1.1,-1.2,1.2q-.1,0,-.1,0Z" class="ga"/>
<path d="M125.4,657.9c-.1,-.1,-.1,-.2,-.1,-.3q0,-.2,.1,0c0,.1,.1,.3,.1,.4q0,.1,-.1,-.1Z" class="ga"/>
<path d="M131.2,656.4c.2,-.4,1,-1.3,1.1,-1.5q.1,0,.2,0c0,.1,-.1,.2,-.2,.4c-.2,.1,-.5,.5,-.7,.8c-.5,.7,-.8,.8,-.4,.3Z" class="ga"/>
<path d="M124.8,655.9q0,-.1,0,-.2q.1,0,.2,.1q0,.1,0,.2q-.1,0,-.2,-.1Z" class="ga"/>
<path d="M132.5,654.7c0,-.2,.6,-1.2,.7,-1.1c.1,0,-.6,1.3,-.7,1.3c0,0,0,-.1,0,-.2Z" class="ga"/>
<path d="M124.8,655.3c-.1,-.1,-.1,-.2,-.1,-.3c.1,-.3,.2,-.1,.2,.2c0,.1,-.1,.1,-.1,.1Z" class="ga"/>
<path d="M124.7,654.6c0,-.1,0,-.3,0,-.3c.1,-.1,.1,0,.1,.3v.2Z" class="ga"/>
<path d="M133.2,653.3c0,-.1,0,-.2,-.1,-.3c-.1,-.2,0,-.2,.1,-.2c.4,-.1,.5,.1,.2,.5q-.1,.2,-.2,0Z" class="ga"/>
<path d="M124.6,653.4c0,-.2,.1,-.8,.1,-.8c.1,0,.1,.5,0,.7c0,.1,-.1,.2,-.1,.1Z" class="ga"/>
<path d="M134,652.4c-.3,0,-.6,0,-.7,-.1q-.2,0,.1,0c.1,0,.5,0,.9,0c.5,0,.6,0,1,-.3c.3,-.2,.5,-.5,.6,-.7c.2,-.4,.2,-.3,.1,.2c-.1,.3,-.3,.5,-.7,.7c-.5,.3,-.6,.3,-1.3,.2Z" class="ga"/>
<path d="M132.4,652.2c-.4,-.1,-.4,-.2,0,-.1c.1,0,.2,0,.2,0q.1,.1,.1,.1c-.1,0,-.2,0,-.3,0Z" class="ga"/>
<path d="M127,652.4c-.3,-.2,-.5,-.6,-.4,-.6c.1,0,0,-.2,-.1,-.4c-.3,-.6,-1,-2.2,-1,-2.3c0,-.1,.1,0,.3,.4c.2,.4,.6,1.2,1,1.8c.3,.7,.6,1.2,.6,1.2c-.1,0,-.2,0,-.4,-.1Z" class="ga"/>
<path d="M124.7,652.2c-.1,-.2,0,-.9,.2,-1c0,0,0,.1,0,.3c0,.4,-.1,.8,-.2,.7Z" class="ga"/>
<path d="M136.1,650.7c0,-.1,.1,-.3,.1,-.4q.1,-.1,.1,.1c0,.1,-.1,.2,-.1,.3q-.1,.1,-.1,0Z" class="ga"/>
<path d="M126.2,651.5c-.1,-.1,-.1,-.2,0,-.1c0,0,.1,.1,.1,.2l-.1,-.1Z" class="ga"/>
<path d="M124.9,651c0,0,0,-.2,.1,-.3c0,-.2,.1,-.4,.1,-.5c0,-.4,.3,-.2,.4,.2c0,.2,0,.3,0,.2c-.1,-.2,-.4,-.2,-.4,-.1c.1,.1,-.1,.6,-.2,.5Z" class="ga"/>
<path d="M136.3,650c0,0,.1,-.2,.1,-.4q.1,-.3,.1,.1c0,.2,-.1,.4,-.2,.3Z" class="ga"/>
<path d="M136.5,648.7c0,-.1,0,-.2,.1,-.2c0,-.1,.1,0,0,.1c0,.1,0,.2,0,.2c-.1,.1,-.1,0,-.1,-.1Z" class="ga"/>
<path d="M136.7,648.2c-.1,-.1,.1,-.6,.3,-.9c.2,-.2,.2,-.4,.2,-.5c-.1,0,-.3,0,-.7,0c-.7,.1,-.8,0,-.1,-.2c.4,0,.8,-.1,.9,-.1c.3,-.1,.3,.1,-.1,.9c-.3,.5,-.5,.8,-.5,.8Z" class="ga"/>
<path d="M129.5,648.1c-.1,-.1,-.3,-.3,-.5,-.4c-.3,-.2,-.7,-.8,-.5,-.8c.1,.1,.2,.2,.2,.2c.1,.1,.3,.2,.4,.3c.2,.1,.4,.2,.6,.5c.3,.3,.2,.4,-.2,.2Z" class="ga"/>
<path d="M125.3,648.1c0,-.1,0,-.4,0,-.5c.1,-.3,.6,-1.7,.7,-1.7c.1,-.1,.1,.1,-.2,.8c-.1,.4,-.3,1,-.3,1.2q-.1,.4,-.2,.2Z" class="ga"/>
<path d="M135.4,646.7c-.2,0,-.3,-.1,-.3,-.2c-.1,0,.7,-.5,1,-.5c.3,0,.2,.1,-.2,.2c-.5,.2,-.6,.3,-.4,.4q.2,.2,-.1,.1Z" class="ga"/>
<path d="M128.8,646.7c-.1,-.1,-.1,-.3,-.2,-.4q0,-.3,.1,-.1c0,.1,.1,.3,.1,.4q.1,.2,0,.1Z" class="ga"/>
<path d="M136.9,645.9c.1,-.1,.2,-.1,.3,-.1c.1,.1,0,.1,-.2,.1c-.3,.1,-.3,0,-.1,0Z" class="ga"/>
<path d="M137.5,645.5c.1,-.2,.2,-.3,.2,-.3c.1,0,-.1,.5,-.2,.6c0,0,0,-.1,0,-.3Z" class="ga"/>
<path d="M128.4,645.7c-.1,-.1,-.2,-.2,-.1,-.3q0,-.1,.1,.1c.2,.3,.2,.4,0,.2Z" class="ga"/>
<path d="M137.9,644.7c0,-.1,.1,-.2,.2,-.2c.1,.1,-.1,.4,-.2,.4c-.1,0,-.1,-.1,0,-.2Z" class="ga"/>
<path d="M127.3,645.6q-.1,-.2,0,-.1c.2,0,.2,.1,.1,.2l-.1,-.1Z" class="ga"/>
<path d="M126,645.6c-.1,-.1,.5,-.9,.7,-.9c.3,0,.3,.2,.1,.3c-.2,0,-.4,.2,-.5,.4c-.1,.3,-.2,.3,-.3,.2Z" class="ga"/>
<path d="M127.6,645.1c-.1,-.1,-.1,-.3,-.1,-.4c.1,0,.4,.5,.3,.6q0,.1,-.2,-.2Z" class="ga"/>
<path d="M138,644.2c0,-.1,.2,-.4,.3,-.4c.1,0,.1,-.2,.2,-.3c.1,-.5,1,-1.9,2,-3.3c.1,-.2,.1,-.4,0,-.5c-.1,-.1,-.1,-.2,.1,-.3c.1,-.1,.2,-.1,.3,-.1c.2,.1,0,.8,-.2,1c-.3,.2,-1.4,1.9,-1.7,2.4c-.6,1.2,-.9,1.7,-1,1.5Z" class="ga"/>
<path d="M127.9,644.7q-.1,-.1,0,-.1c0,0,.1,0,.1,0q0,.1,0,.2c0,0,-.1,0,-.1,-.1Z" class="ga"/>
<path d="M127.5,644.1c0,-.1,0,-.2,0,-.3c0,-.1,0,0,.1,.2c.1,.1,.2,.2,.1,.3c0,0,-.1,-.1,-.2,-.2Z" class="ga"/>
<path d="M127.7,643.4c-.1,-.2,0,-.5,.1,-.4c.1,0,.1,.1,0,.2c0,.1,-.1,.2,-.1,.2Z" class="ga"/>
<path d="M128,642.5c0,-.1,.1,-.3,.3,-.4c.1,-.1,.2,-.3,.2,-.3c.1,-.1,.1,-.2,.2,-.2c.1,0,0,.2,-.4,.7c-.2,.3,-.3,.4,-.3,.2Z" class="ga"/>
<path d="M129,641.3c.3,-.4,.8,-.9,.8,-.9c.1,.1,-.4,.7,-.7,1l-.2,.1Z" class="ga"/>
<path d="M132.7,640.4c-.2,-.1,-.2,-.4,-.1,-.4c.1,0,.3,.3,.2,.4c0,0,-.1,0,-.1,0Z" class="ga"/>
<path d="M136.3,639.9c.1,-.1,.2,-.2,.3,-.2c0,0,0,.1,-.1,.2c-.1,.1,-.2,.2,-.3,.2c0,0,0,-.1,.1,-.2Z" class="ga"/>
<path d="M130.6,639.8c.1,-.1,.2,-.2,.3,-.2c.1,0,-.2,.4,-.4,.4c-.1,0,0,-.1,.1,-.2Z" class="ga"/>
<path d="M140.7,638.9c-.1,0,0,0,.1,-.1c.2,-.1,.4,-.1,.4,0c0,.1,-.4,.2,-.5,.1Z" class="ga"/>
<path d="M131.3,639.1c.2,-.3,.5,-.4,.6,-.3c.1,.1,-.2,.3,-.7,.6c0,0,0,-.1,.1,-.3Z" class="ga"/>
<path d="M141.6,637.8c0,-.1,.1,-.2,.1,-.3c.1,-.1,.2,-.2,.2,-.2c0,.1,0,.2,-.1,.3c-.1,.1,-.1,.2,-.2,.2Z" class="ga"/>
<path d="M142.2,636.8c.2,-.5,.8,-1.1,2.4,-2.3c.8,-.7,2.6,-1.7,3.6,-2c1,-.3,1.1,-.4,1.1,-.6c-.2,-.2,.7,-.4,.9,-.2c.2,.1,.1,.3,-.1,.3c-.1,0,-.5,.1,-.8,.3c-.4,.2,-1,.4,-1.3,.5c-1.1,.5,-1.9,.9,-2.4,1.2c-.2,.2,-.5,.4,-.6,.4c-.1,.1,-.4,.2,-.5,.4c-.2,.2,-.4,.3,-.4,.3c0,0,-.2,.2,-.4,.3c-1.1,1,-1.3,1.3,-1.3,1.5c0,.1,-.1,.2,-.2,.2c-.1,0,-.1,-.1,0,-.3Z" class="ga"/>
<path d="M133,637.8q0,-.1,.1,-.1c0,0,.1,0,0,.1c0,0,0,.1,-.1,.1c0,0,0,-.1,0,-.1Z" class="ga"/>
<path d="M142.3,633.9c0,-.1,0,-.2,.1,-.2c.1,-.1,.2,-.1,.2,-.1c0,0,0,.1,-.1,.2c-.1,.1,-.2,.1,-.2,.1Z" class="ga"/>
<path d="M143,633.2c.1,-.3,.5,-.4,.5,-.3c.1,.1,-.3,.3,-.5,.4q-.2,.1,0,-.1Z" class="ga"/>
<path d="M144.6,632.5c.1,0,.2,-.1,.3,-.1q.1,0,0,.1c-.1,0,-.2,.1,-.3,.1q-.1,0,0,-.1Z" class="ga"/>
<path d="M145.2,632.4c.1,-.1,.4,-.1,.9,-.2c.6,0,.9,0,.9,0c0,.1,-.4,.1,-.9,.2c-.6,0,-.9,0,-.9,0Z" class="ga"/>
<path d="M147.1,632.1c.1,0,.4,-.1,.9,-.1c.5,-.1,.7,-.1,.6,0c-.3,.1,-1.5,.2,-1.5,.1Z" class="ga"/>
<path d="M125.8,665.9c0,0,0,-.3,0,-.7c0,-.4,0,-.7,0,-.7c0,-.1,0,-.9,0,-1q.1,-.1,.5,.1c.9,.4,1.2,.2,1,-.8c-.1,-1,.1,-1.1,.3,-.1c.1,.7,.1,.9,-.2,1c-.6,.6,-1.5,2,-1.4,2.2c.1,0,0,.1,-.1,.1c0,0,-.1,0,-.1,-.1Z" class="gb"/>
<path d="M127.3,661.9c0,-.1,0,-.7,.1,-.8c.1,-.1,.1,0,.1,.4c-.1,.4,-.1,.5,-.2,.4Z" class="gb"/>
<path d="M127.3,660.7c0,-.1,0,-.3,0,-.6c0,-.3,.1,-.8,.1,-1.1c.1,-1,.5,-3.2,.7,-3.2c0,0,0,.1,0,.3c0,.1,-.1,.4,-.1,.5c0,.2,-.1,.4,-.1,.7c-.2,.6,-.3,2,-.1,2.1c0,.1,0,.2,-.1,.2c0,.1,-.1,.3,-.2,.6c0,.4,-.1,.6,-.2,.5Z" class="gb"/>
<path d="M126.3,660.3c-.1,0,-.1,-.1,0,-.2c0,0,0,-.2,0,-.3c-.1,-.2,.2,-.6,.3,-.5c0,.1,-.2,1.1,-.3,1.1v-.1Z" class="gb"/>
<path d="M125.9,659.2c-.1,-.1,-.1,-.2,0,-.2c0,-.1,.1,0,.1,.1c.1,.1,.1,.2,.1,.2c-.1,0,-.2,0,-.2,-.1Z" class="gb"/>
<path d="M126.5,659c0,0,0,-.4,.2,-.8c.1,-.4,.2,-1,.3,-1.4c.1,-.4,.2,-.7,.3,-.8c.1,-.1,.1,0,0,.3c0,.3,-.1,.5,-.1,.6c-.1,.8,-.6,2.3,-.7,2.1Z" class="gb"/>
<path d="M129,658.6c0,0,0,-.1,.1,-.1q.2,-.1,.2,.1c-.1,.1,-.4,.2,-.3,0Z" class="gb"/>
<path d="M125.7,658.6c-.1,-.1,-.1,-.2,0,-.1c0,0,.1,.1,.1,.1q0,.2,-.1,0Z" class="gb"/>
<path d="M129.5,658.2c0,-.1,.2,-.3,.4,-.4c.2,-.2,.5,-.5,.5,-.6c.2,-.3,.4,-.4,.4,-.2c0,.1,-1,1.1,-1.2,1.2q-.1,0,-.1,0Z" class="gb"/>
<path d="M125.4,657.9c-.1,-.1,-.1,-.2,-.1,-.3q0,-.2,.1,0c0,.1,.1,.3,.1,.4q0,.1,-.1,-.1Z" class="gb"/>
<path d="M131.2,656.4c.2,-.4,1,-1.3,1.1,-1.5q.1,0,.2,0c0,.1,-.1,.2,-.2,.4c-.2,.1,-.5,.5,-.7,.8c-.5,.7,-.8,.8,-.4,.3Z" class="gb"/>
<path d="M124.8,655.9q0,-.1,0,-.2q.1,0,.2,.1q0,.1,0,.2q-.1,0,-.2,-.1Z" class="gb"/>
<path d="M128.1,655.6c0,-.5,1.5,-4,2.7,-6.1c.2,-.5,.5,-1,.5,-1.2c0,-.3,.2,-.5,.3,-.3c.1,.1,-.2,.8,-1.3,2.8c-.5,1,-1,2.1,-1.2,2.5c-.2,.6,-.6,1.5,-.9,2.1c-.1,.2,-.1,.3,-.1,.2Z" class="gb"/>
<path d="M127.5,655.3c0,0,0,-.1,.1,-.1c0,0,.1,0,.1,0q0,.1,0,.1q-.1,0,-.2,0Z" class="gb"/>
<path d="M132.5,654.7c0,-.2,.6,-1.2,.7,-1.1c.1,0,-.6,1.3,-.7,1.3c0,0,0,-.1,0,-.2Z" class="gb"/>
<path d="M124.8,655.3c-.1,-.1,-.1,-.2,-.1,-.3c.1,-.3,.2,-.1,.2,.2c0,.1,-.1,.1,-.1,.1Z" class="gb"/>
<path d="M127.6,654.7c0,0,0,-.1,.1,-.1q.1,0,.1,0c.1,.2,-.1,.3,-.2,.1Z" class="gb"/>
<path d="M124.7,654.6c0,-.1,0,-.3,0,-.3c.1,-.1,.1,0,.1,.3v.2Z" class="gb"/>
<path d="M127.9,654.3c-.1,0,.3,-.7,.4,-.6c0,0,-.1,.2,-.2,.3c-.1,.3,-.2,.4,-.2,.3Z" class="gb"/>
<path d="M133.2,653.3c0,-.1,0,-.2,-.1,-.3c-.1,-.2,0,-.2,.1,-.2c.4,-.1,.5,.1,.2,.5q-.1,.2,-.2,0Z" class="gb"/>
<path d="M128.3,653.5c0,-.1,.2,-.6,.5,-1.1c.3,-.6,.4,-.8,.3,-.5c-.2,.5,-.9,1.9,-.8,1.6Z" class="gb"/>
<path d="M124.6,653.4c0,-.2,.1,-.8,.1,-.8c.1,0,.1,.5,0,.7c0,.1,-.1,.2,-.1,.1Z" class="gb"/>
<path d="M134,652.4c-.3,0,-.6,0,-.7,-.1q-.2,0,.1,0c.1,0,.5,0,.9,0c.5,0,.6,0,1,-.3c.3,-.2,.5,-.5,.6,-.7c.2,-.4,.2,-.3,.1,.2c-.1,.3,-.3,.5,-.7,.7c-.5,.3,-.6,.3,-1.3,.2Z" class="gb"/>
<path d="M132.4,652.2c-.4,-.1,-.4,-.2,0,-.1c.1,0,.2,0,.2,0q.1,.1,.1,.1c-.1,0,-.2,0,-.3,0Z" class="gb"/>
<path d="M127,652.4c-.3,-.2,-.5,-.6,-.4,-.6c.1,0,0,-.2,-.1,-.4c-.3,-.6,-1,-2.2,-1,-2.3c0,-.1,.1,0,.3,.4c.2,.4,.6,1.2,1,1.8c.3,.7,.6,1.2,.6,1.2c-.1,0,-.2,0,-.4,-.1Z" class="gb"/>
<path d="M124.7,652.2c-.1,-.2,0,-.9,.2,-1c0,0,0,.1,0,.3c0,.4,-.1,.8,-.2,.7Z" class="gb"/>
<path d="M136.1,650.7c0,-.1,.1,-.3,.1,-.4q.1,-.1,.1,.1c0,.1,-.1,.2,-.1,.3q-.1,.1,-.1,0Z" class="gb"/>
<path d="M126.2,651.5c-.1,-.1,-.1,-.2,0,-.1c0,0,.1,.1,.1,.2l-.1,-.1Z" class="gb"/>
<path d="M129.3,651.1c.1,-.2,.2,-.3,.2,-.3c.1,.1,0,.3,-.1,.5q-.2,0,-.1,-.2Z" class="gb"/>
<path d="M129.8,650.1c.1,-.3,.3,-.5,.3,-.6c0,0,.2,-.4,.5,-.9c.2,-.5,.6,-1.1,.7,-1.4c.2,-.2,.5,-.7,.8,-1.1c.4,-.8,.6,-1,.7,-.9c0,.1,-.2,.4,-1,1.6c-.2,.3,-.5,.8,-.7,1.1c-.1,.2,-.3,.7,-.5,1.1c-.2,.4,-.5,1,-.6,1.2c-.3,.7,-.5,.6,-.2,-.1Z" class="gb"/>
<path d="M124.9,651c0,0,0,-.2,.1,-.3c0,-.2,.1,-.4,.1,-.5c0,-.4,.3,-.2,.4,.2c0,.2,0,.3,0,.2c-.1,-.2,-.4,-.2,-.4,-.1c.1,.1,-.1,.6,-.2,.5Z" class="gb"/>
<path d="M136.3,650c0,0,.1,-.2,.1,-.4q.1,-.3,.1,.1c0,.2,-.1,.4,-.2,.3Z" class="gb"/>
<path d="M136.5,648.7c0,-.1,0,-.2,.1,-.2c0,-.1,.1,0,0,.1c0,.1,0,.2,0,.2c-.1,.1,-.1,0,-.1,-.1Z" class="gb"/>
<path d="M136.7,648.2c-.1,-.1,.1,-.6,.3,-.9c.2,-.2,.2,-.4,.2,-.5c-.1,0,-.3,0,-.7,0c-.7,.1,-.8,0,-.1,-.2c.4,0,.8,-.1,.9,-.1c.3,-.1,.3,.1,-.1,.9c-.3,.5,-.5,.8,-.5,.8Z" class="gb"/>
<path d="M129.5,648.1c-.1,-.1,-.3,-.3,-.5,-.4c-.3,-.2,-.7,-.8,-.5,-.8c.1,.1,.2,.2,.2,.2c.1,.1,.3,.2,.4,.3c.2,.1,.4,.2,.6,.5c.3,.3,.2,.4,-.2,.2Z" class="gb"/>
<path d="M125.3,648.1c0,-.1,0,-.4,0,-.5c.1,-.3,.6,-1.7,.7,-1.7c.1,-.1,.1,.1,-.2,.8c-.1,.4,-.3,1,-.3,1.2q-.1,.4,-.2,.2Z" class="gb"/>
<path d="M135.4,646.7c-.2,0,-.3,-.1,-.3,-.2c-.1,0,.7,-.5,1,-.5c.3,0,.2,.1,-.2,.2c-.5,.2,-.6,.3,-.4,.4q.2,.2,-.1,.1Z" class="gb"/>
<path d="M128.8,646.7c-.1,-.1,-.1,-.3,-.2,-.4q0,-.3,.1,-.1c0,.1,.1,.3,.1,.4q.1,.2,0,.1Z" class="gb"/>
<path d="M136.9,645.9c.1,-.1,.2,-.1,.3,-.1c.1,.1,0,.1,-.2,.1c-.3,.1,-.3,0,-.1,0Z" class="gb"/>
<path d="M137.5,645.5c.1,-.2,.2,-.3,.2,-.3c.1,0,-.1,.5,-.2,.6c0,0,0,-.1,0,-.3Z" class="gb"/>
<path d="M128.4,645.7c-.1,-.1,-.2,-.2,-.1,-.3q0,-.1,.1,.1c.2,.3,.2,.4,0,.2Z" class="gb"/>
<path d="M137.9,644.7c0,-.1,.1,-.2,.2,-.2c.1,.1,-.1,.4,-.2,.4c-.1,0,-.1,-.1,0,-.2Z" class="gb"/>
<path d="M127.3,645.6q-.1,-.2,0,-.1c.2,0,.2,.1,.1,.2l-.1,-.1Z" class="gb"/>
<path d="M126,645.6c-.1,-.1,.5,-.9,.7,-.9c.3,0,.3,.2,.1,.3c-.2,0,-.4,.2,-.5,.4c-.1,.3,-.2,.3,-.3,.2Z" class="gb"/>
<path d="M127.6,645.1c-.1,-.1,-.1,-.3,-.1,-.4c.1,0,.4,.5,.3,.6q0,.1,-.2,-.2Z" class="gb"/>
<path d="M133,644.6c.1,-.2,.2,-.4,.3,-.3c.1,0,-.3,.6,-.4,.7c-.1,0,0,-.2,.1,-.4Z" class="gb"/>
<path d="M138,644.2c0,-.1,.2,-.4,.3,-.4c.1,0,.1,-.2,.2,-.3c.1,-.5,1,-1.9,2,-3.3c.1,-.2,.1,-.4,0,-.5c-.1,-.1,-.1,-.2,.1,-.3c.1,-.1,.2,-.1,.3,-.1c.2,.1,0,.8,-.2,1c-.3,.2,-1.4,1.9,-1.7,2.4c-.6,1.2,-.9,1.7,-1,1.5Z" class="gb"/>
<path d="M127.9,644.7q-.1,-.1,0,-.1c0,0,.1,0,.1,0q0,.1,0,.2c0,0,-.1,0,-.1,-.1Z" class="gb"/>
<path d="M133.4,644.1c0,-.1,.5,-1,.8,-1.4c.1,-.2,.3,-.4,.4,-.6c.2,-.4,.8,-1.1,.9,-1c0,0,0,.1,-.1,.2c-.1,.1,-.3,.3,-.3,.4c-.1,0,-.3,.4,-.5,.7c-.3,.3,-.6,.8,-.7,1.1c-.3,.5,-.4,.7,-.5,.6Z" class="gb"/>
<path d="M127.5,644.1c0,-.1,0,-.2,0,-.3c0,-.1,0,0,.1,.2c.1,.1,.2,.2,.1,.3c0,0,-.1,-.1,-.2,-.2Z" class="gb"/>
<path d="M127.7,643.4c-.1,-.2,0,-.5,.1,-.4c.1,0,.1,.1,0,.2c0,.1,-.1,.2,-.1,.2Z" class="gb"/>
<path d="M128,642.5c0,-.1,.1,-.3,.3,-.4c.1,-.1,.2,-.3,.2,-.3c.1,-.1,.1,-.2,.2,-.2c.1,0,0,.2,-.4,.7c-.2,.3,-.3,.4,-.3,.2Z" class="gb"/>
<path d="M129,641.3c.3,-.4,.8,-.9,.8,-.9c.1,.1,-.4,.7,-.7,1l-.2,.1Z" class="gb"/>
<path d="M135.9,640.5c.1,-.2,.2,-.3,.2,-.3c0,.1,0,.2,-.1,.3l-.2,.2Z" class="gb"/>
<path d="M132.7,640.4c-.2,-.1,-.2,-.4,-.1,-.4c.1,0,.3,.3,.2,.4c0,0,-.1,0,-.1,0Z" class="gb"/>
<path d="M130.6,639.8c.1,-.1,.2,-.2,.3,-.2c.1,0,-.2,.4,-.4,.4c-.1,0,0,-.1,.1,-.2Z" class="gb"/>
<path d="M140.7,638.9c-.1,0,0,0,.1,-.1c.2,-.1,.4,-.1,.4,0c0,.1,-.4,.2,-.5,.1Z" class="gb"/>
<path d="M131.3,639.1c.2,-.3,.5,-.4,.6,-.3c.1,.1,-.2,.3,-.7,.6c0,0,0,-.1,.1,-.3Z" class="gb"/>
<path d="M141.6,637.8c0,-.1,.1,-.2,.1,-.3c.1,-.1,.2,-.2,.2,-.2c0,.1,0,.2,-.1,.3c-.1,.1,-.1,.2,-.2,.2Z" class="gb"/>
<path d="M142.2,636.8c.2,-.5,.8,-1.1,2.4,-2.3c.8,-.7,2.6,-1.7,3.6,-2c1,-.3,1.1,-.4,1.1,-.6c-.2,-.2,.7,-.4,.9,-.2c.2,.1,.1,.3,-.1,.3c-.1,0,-.5,.1,-.8,.3c-.4,.2,-1,.4,-1.3,.5c-1.1,.5,-1.9,.9,-2.4,1.2c-.2,.2,-.5,.4,-.6,.4c-.1,.1,-.4,.2,-.5,.4c-.2,.2,-.4,.3,-.4,.3c0,0,-.2,.2,-.4,.3c-1.1,1,-1.3,1.3,-1.3,1.5c0,.1,-.1,.2,-.2,.2c-.1,0,-.1,-.1,0,-.3Z" class="gb"/>
<path d="M133,637.8q0,-.1,.1,-.1c0,0,.1,0,0,.1c0,0,0,.1,-.1,.1c0,0,0,-.1,0,-.1Z" class="gb"/>
<path d="M142.3,633.9c0,-.1,0,-.2,.1,-.2c.1,-.1,.2,-.1,.2,-.1c0,0,0,.1,-.1,.2c-.1,.1,-.2,.1,-.2,.1Z" class="gb"/>
<path d="M143,633.2c.1,-.3,.5,-.4,.5,-.3c.1,.1,-.3,.3,-.5,.4q-.2,.1,0,-.1Z" class="gb"/>
<path d="M144.6,632.5c.1,0,.2,-.1,.3,-.1q.1,0,0,.1c-.1,0,-.2,.1,-.3,.1q-.1,0,0,-.1Z" class="gb"/>
<path d="M145.2,632.4c.1,-.1,.4,-.1,.9,-.2c.6,0,.9,0,.9,0c0,.1,-.4,.1,-.9,.2c-.6,0,-.9,0,-.9,0Z" class="gb"/>
<path d="M147.1,632.1c.1,0,.4,-.1,.9,-.1c.5,-.1,.7,-.1,.6,0c-.3,.1,-1.5,.2,-1.5,.1Z" class="gb"/>
<path d="M128.2,645.7q-.1,-.2,-.1,-.1c-.1,.2,0,.3,.1,.3c.1,0,.1,-.1,0,-.2Z" class="g6"/>
</g>
<path d="M152.7,661.1H432.2" class="g0"/>
<path d="M137.6,669.3V940.1" class="gd"/>
</svg>