<?xml version="1.0" encoding="UTF-8" standalone="no"?>
<!DOCTYPE svg PUBLIC "-//W3C//DTD SVG 1.1//EN"
"http://www.w3.org/Graphics/SVG/1.1/DTD/svg11.dtd">
<svg viewBox="0 0 1286 909" version="1.1" xmlns="http://www.w3.org/2000/svg" xmlns:xlink="http://www.w3.org/1999/xlink">
<defs>
<style type="text/css"><![CDATA[
.g0_994{
fill: none;
stroke: #000000;
stroke-width: 0.73;
stroke-linecap: butt;
stroke-linejoin: miter;
}
.g1_994{
fill: #FFCCCC;
}
.g2_994{
fill: none;
stroke: #5EE200;
stroke-width: 1.461;
stroke-linecap: butt;
stroke-linejoin: miter;
stroke-dasharray: 2,2;
}
.g3_994{
fill: #AEF080;
}
]]></style>
</defs>
<path d="M193,83.4h900.3M193,210.6H668.8m-475.8,0H668.8m-359,29.6V211m0,58.5V240.2m0,63.2V269.5" class="g0_994"/>
<path d="M434.2,303.4H491V270.5H434.2v32.9Z" class="g1_994"/>
<path d="M505.2,297h55.2" class="g2_994"/>
<path d="M574.5,303.4h83.3V270.5H574.5v32.9Z" class="g3_994"/>
<path d="M309.8,333.6V303.4m0,63V333.6" class="g0_994"/>
<path d="M472.3,362.1h48.8" class="g2_994"/>
<path d="M524.8,366.4h27.8V333.6H524.8v32.8Z" class="g3_994"/>
<path d="M558.7,366.4h99.1V333.6H558.7v32.8Z" class="g1_994"/>
<path d="M309.8,395.7V366.4m0,58.5V395.7m0,60.5V424.9m0,62.6V456.2m0,62.7V487.5m0,60.6V518.9M193,548.5H668.8m-475.8,0H668.8" class="g0_994"/>
</svg>