<?xml version="1.0" encoding="UTF-8" standalone="no"?>
<!DOCTYPE svg PUBLIC "-//W3C//DTD SVG 1.1//EN"
"http://www.w3.org/Graphics/SVG/1.1/DTD/svg11.dtd">
<svg viewBox="0 0 1286 909" version="1.1" xmlns="http://www.w3.org/2000/svg" xmlns:xlink="http://www.w3.org/1999/xlink">
<defs>
<style type="text/css"><![CDATA[
.g0_256{
fill: none;
stroke: #000000;
stroke-width: 0.73;
stroke-linecap: butt;
stroke-linejoin: miter;
}
.g1_256{
fill: none;
stroke: #02B5EE;
stroke-width: 1.262;
stroke-linecap: butt;
stroke-linejoin: miter;
}
.g2_256{
fill: none;
stroke: #02B5EE;
stroke-width: 0.73;
stroke-linecap: butt;
stroke-linejoin: miter;
}
]]></style>
</defs>
<path d="M193,83.4h900.3M193,210.6H685.2m-492.2,0H685.2M407,240.2V211m0,58.5V240.2m0,60.1V269.5m0,60V300.3m0,58.4V329.5m0,114.3V358.7" class="g0_256"/>
<path d="M418,419.8H544.9" class="g1_256"/>
<path d="M407,473V443.8m0,102.3V473" class="g0_256"/>
<path d="M589.8,532.2h84.5" class="g2_256"/>
<path d="M407,575.3V546.1m0,58.4V575.3m0,114.2v-85" class="g0_256"/>
<path d="M493.3,665.5h84.5" class="g1_256"/>
<path d="M407,718.7V689.5m0,58.5V718.7M193,748.3H685.2m-492.2,0H685.2" class="g0_256"/>
</svg>