<?xml version="1.0" encoding="UTF-8" standalone="no"?>
<!DOCTYPE svg PUBLIC "-//W3C//DTD SVG 1.1//EN"
"http://www.w3.org/Graphics/SVG/1.1/DTD/svg11.dtd">
<svg viewBox="0 0 1286 909" version="1.1" xmlns="http://www.w3.org/2000/svg" xmlns:xlink="http://www.w3.org/1999/xlink">
<defs>
<style type="text/css"><![CDATA[
.g0_1168{
fill: none;
stroke: #000000;
stroke-width: 0.73;
stroke-linecap: butt;
stroke-linejoin: miter;
}
.g1_1168{
fill: #FFCCCC;
}
.g2_1168{
fill: #AEF080;
}
.g3_1168{
fill: none;
stroke: #5EE200;
stroke-width: 1.461;
stroke-linecap: butt;
stroke-linejoin: miter;
stroke-dasharray: 2,2;
}
.g4_1168{
fill: none;
stroke: #F81693;
stroke-width: 1.461;
stroke-linecap: butt;
stroke-linejoin: miter;
stroke-dasharray: 2,2;
}
]]></style>
</defs>
<path d="M193,83.4h900.3M193,111.6H807.1m-614.1,0H807.1M411,141.2V112m0,58.5V141.2m0,61.5V170.5m0,61.4V202.7m0,58.5V231.9m0,61.5V261.2m0,61.4V293.4m0,58.5V322.6m0,61.5V351.9m0,61.4V384.1m0,58.4V413.3m0,72.9V442.5" class="g0_1168"/>
<path d="M443.5,481.5h68.8V448.6H443.5v32.9Z" class="g1_1168"/>
<path d="M525.5,481.5H670.3V448.6H525.5v32.9Z" class="g2_1168"/>
<path d="M684.4,482H789.8" class="g3_1168"/>
<path d="M526.4,485.5H792.5" class="g4_1168"/>
<path d="M411,516.4V486.2m0,69.3V516.4" class="g0_1168"/>
<path d="M558.6,547.6h66.7" class="g3_1168"/>
<path d="M635.1,552h44.7V519.1H635.1V552Z" class="g2_1168"/>
<path d="M555.9,554.7h123" class="g4_1168"/>
<path d="M688.6,552H796.2V519.1H688.6V552Z" class="g1_1168"/>
<path d="M411,584.7V555.5M193,585.1H807.1m-614.1,0H807.1" class="g0_1168"/>
</svg>