<?xml version="1.0" encoding="UTF-8" standalone="no"?>
<!DOCTYPE svg PUBLIC "-//W3C//DTD SVG 1.1//EN"
"http://www.w3.org/Graphics/SVG/1.1/DTD/svg11.dtd">
<svg viewBox="0 0 1286 909" version="1.1" xmlns="http://www.w3.org/2000/svg" xmlns:xlink="http://www.w3.org/1999/xlink">
<defs>
<style type="text/css"><![CDATA[
.g0_153{
fill: none;
stroke: #000000;
stroke-width: 0.73;
stroke-linecap: butt;
stroke-linejoin: miter;
}
.g1_153{
fill: none;
stroke: #02B5EE;
stroke-width: 1.262;
stroke-linecap: butt;
stroke-linejoin: miter;
}
.g2_153{
fill: none;
stroke: #02B5EE;
stroke-width: 0.73;
stroke-linecap: butt;
stroke-linejoin: miter;
}
]]></style>
</defs>
<path d="M193,83.4h900.3M193,210.6H814m-621,0H814M504.3,240.2V211m0,58.5V240.2m0,114.3v-85" class="g0_153"/>
<path d="M572.2,330.5h44.7" class="g1_153"/>
<path d="M504.3,383.7V354.5m0,102.3V383.7" class="g0_153"/>
<path d="M617.3,442.9H803.1" class="g2_153"/>
<path d="M504.3,486V456.8m0,58.4V486m0,114.2v-85" class="g0_153"/>
<path d="M629,576.2h44.7" class="g1_153"/>
<path d="M504.3,629.5V600.2m0,102.3v-73" class="g0_153"/>
<path d="M735.5,688.6h67.6" class="g2_153"/>
<path d="M504.3,731.7V702.5M193,732.1H814m-621,0H814" class="g0_153"/>
</svg>