<?xml version="1.0" encoding="UTF-8" standalone="no"?>
<!DOCTYPE svg PUBLIC "-//W3C//DTD SVG 1.1//EN"
"http://www.w3.org/Graphics/SVG/1.1/DTD/svg11.dtd">
<svg viewBox="0 0 1286 909" version="1.1" xmlns="http://www.w3.org/2000/svg" xmlns:xlink="http://www.w3.org/1999/xlink">
<defs>
<style type="text/css"><![CDATA[
.g0_222{
fill: none;
stroke: #000000;
stroke-width: 0.73;
stroke-linecap: butt;
stroke-linejoin: miter;
}
.g1_222{
fill: #B3E9FA;
}
.g2_222{
fill: none;
stroke: #02B5EE;
stroke-width: 1.262;
stroke-linecap: butt;
stroke-linejoin: miter;
}
.g3_222{
fill: none;
stroke: #5EE200;
stroke-width: 1.262;
stroke-linecap: butt;
stroke-linejoin: miter;
}
.g4_222{
fill: #FFCCCC;
}
.g5_222{
fill: none;
stroke: #02B5EE;
stroke-width: 0.73;
stroke-linecap: butt;
stroke-linejoin: miter;
}
]]></style>
</defs>
<path d="M193,83.4h900.3M193,210.6h808.6m-808.6,0h808.6M580.2,240.2V211m0,58.5V240.2m0,114.3v-85" class="g0_222"/>
<path d="M593.8,304.7V292.5c0,-2.9,2.3,-5.2,5.2,-5.2H735.4c2.9,0,5.2,2.3,5.2,5.2v12.2c0,2.9,-2.3,5.2,-5.2,5.2H599c-2.9,0,-5.2,-2.3,-5.2,-5.2Z" class="g1_222"/>
<path d="M591.2,330.5h152" class="g2_222"/>
<path d="M753.7,330.5H990.6" class="g3_222"/>
<path d="M580.2,383.7V354.5m0,58.4V383.7m0,114.3V412.9" class="g0_222"/>
<path d="M771.1,474H843" class="g2_222"/>
<path d="M864,462.2H990.6V429.4H864v32.8Z" class="g4_222"/>
<path d="M580.2,527.2V498m0,102.2v-73" class="g0_222"/>
<path d="M806.4,576.5H923.1V543.6H806.4v32.9Z" class="g4_222"/>
<path d="M923.1,586.4h67.5" class="g5_222"/>
<path d="M580.2,629.5V600.2m0,58.5V629.5m0,58.4V658.7M193,688.3h808.6m-808.6,0h808.6" class="g0_222"/>
</svg>