<?xml version="1.0" encoding="UTF-8" standalone="no"?>
<!DOCTYPE svg PUBLIC "-//W3C//DTD SVG 1.1//EN"
"http://www.w3.org/Graphics/SVG/1.1/DTD/svg11.dtd">
<svg viewBox="0 0 1286 909" version="1.1" xmlns="http://www.w3.org/2000/svg" xmlns:xlink="http://www.w3.org/1999/xlink">
<defs>
<style type="text/css"><![CDATA[
.g0_538{
fill: none;
stroke: #000000;
stroke-width: 0.73;
stroke-linecap: butt;
stroke-linejoin: miter;
}
.g1_538{
fill: none;
stroke: #02B5EE;
stroke-width: 1.262;
stroke-linecap: butt;
stroke-linejoin: miter;
}
.g2_538{
fill: none;
stroke: #5EE200;
stroke-width: 1.262;
stroke-linecap: butt;
stroke-linejoin: miter;
}
.g3_538{
fill: none;
stroke: #5EE200;
stroke-width: 0.73;
stroke-linecap: butt;
stroke-linejoin: miter;
}
.g4_538{
fill: none;
stroke: #02B5EE;
stroke-width: 0.73;
stroke-linecap: butt;
stroke-linejoin: miter;
}
.g5_538{
fill: #B3E9FA;
}
]]></style>
</defs>
<path d="M193,83.4h900.3M193,210.6H878.4m-685.4,0H878.4M602.5,240.2V211m0,58.5V240.2m0,114.3v-85" class="g0_538"/>
<path d="M657.3,330.5h71.5" class="g1_538"/>
<path d="M739.3,330.5h22.4" class="g2_538"/>
<path d="M602.5,383.7V354.5m0,102.3V383.7" class="g0_538"/>
<path d="M613.4,442.9h34.5" class="g3_538"/>
<path d="M783,442.9h84.4" class="g4_538"/>
<path d="M602.5,486V456.8m0,58.4V486m0,114.2v-85" class="g0_538"/>
<path d="M689.7,556.8V538.2c0,-2.8,2.3,-5.1,5.2,-5.1h96.9c2.9,0,5.2,2.3,5.2,5.1v18.6c0,2.8,-2.3,5.2,-5.2,5.2H694.9c-2.9,0,-5.2,-2.4,-5.2,-5.2Z" class="g5_538"/>
<path d="M687.1,576.2H799.6" class="g1_538"/>
<path d="M810.1,576.2h57.3" class="g2_538"/>
<path d="M602.5,629.5V600.2M193,629.8H878.4m-685.4,0H878.4" class="g0_538"/>
</svg>