<?xml version="1.0" encoding="UTF-8" standalone="no"?>
<!DOCTYPE svg PUBLIC "-//W3C//DTD SVG 1.1//EN"
"http://www.w3.org/Graphics/SVG/1.1/DTD/svg11.dtd">
<svg viewBox="0 0 1286 909" version="1.1" xmlns="http://www.w3.org/2000/svg" xmlns:xlink="http://www.w3.org/1999/xlink">
<defs>
<style type="text/css"><![CDATA[
.g0_520{
fill: none;
stroke: #000000;
stroke-width: 0.73;
stroke-linecap: butt;
stroke-linejoin: miter;
}
.g1_520{
fill: none;
stroke: #5EE200;
stroke-width: 1.262;
stroke-linecap: butt;
stroke-linejoin: miter;
}
.g2_520{
fill: none;
stroke: #FFA313;
stroke-width: 1.262;
stroke-linecap: butt;
stroke-linejoin: miter;
}
]]></style>
</defs>
<path d="M193,83.4h900.3M193,210.6h998m-998,0h998M629.2,240.2V211m0,58.5V240.2m0,59.4V269.5m0,59.3V299.6m0,58.5V328.8m0,114.3v-85" class="g0_520"/>
<path d="M748.9,419.1h332.9" class="g1_520"/>
<path d="M1092.3,419.1h87.8" class="g2_520"/>
<path d="M629.2,473.3V443.1m0,59.4V473.3M193,502.9h998m-998,0h998M629.2,532.4V503.2m0,114.3V532.4" class="g0_520"/>
<path d="M961.7,593.5h120.1" class="g1_520"/>
<path d="M1092.3,593.5h87.8" class="g2_520"/>
<path d="M629.2,646.7V617.5m0,58.4V646.7m0,58.4V675.9M193,705.5h998m-998,0h998" class="g0_520"/>
</svg>