<?xml version="1.0" encoding="UTF-8" standalone="no"?>
<!DOCTYPE svg PUBLIC "-//W3C//DTD SVG 1.1//EN"
"http://www.w3.org/Graphics/SVG/1.1/DTD/svg11.dtd">
<svg viewBox="0 0 909 1286" version="1.1" xmlns="http://www.w3.org/2000/svg" xmlns:xlink="http://www.w3.org/1999/xlink">
<defs>
<style type="text/css"><![CDATA[
.g0_1{
fill: none;
stroke: #000000;
stroke-width: 0.73;
stroke-linecap: butt;
stroke-linejoin: miter;
}
.g1_1{
fill: #FFFFFF;
}
]]></style>
</defs>
<path d="M279.6,335.3H629.9M433.3,364.9V335.7m-44.7,42.9l24.8,14.8m0,36.7V393.6M351,430.1h62.4m-62.4,0V393.6m24.8,-15L351,393.4M319.7,374.8L351,393.4m-31.3,55.5L351,430.3m-31.3,18.6L288.5,430.3m0,-.2V393.6m31.2,-18.8l-31.2,18.6m30.1,47.9l-23,-13.7m23,-45.2l-23,13.7m49.3,29.3V398.3m62.5,27.1V398.3m25.9,48.4V364.9" class="g0_1"/>
<path d="M464.8,420.8V387.2c0,-2.9,2.3,-5.2,5.1,-5.2H593.7c2.8,0,5.2,2.3,5.2,5.2v33.6c0,2.8,-2.4,5.2,-5.2,5.2H469.9c-2.8,0,-5.1,-2.4,-5.1,-5.2Z" class="g1_1"/>
<path d="M433.3,476V446.7M279.6,476.3H629.9M433.3,505.9V476.7m-44.7,42.9l24.8,14.8m0,36.7V534.6M351,571.1h62.4m-62.4,0V534.6m24.8,-15L351,534.4M319.7,515.8L351,534.4m-31.3,55.5L351,571.3m-31.3,18.6L288.5,571.3m0,-.2V534.6m31.2,-18.8l-31.2,18.6m30.1,47.9l-23,-13.7m23,-45.2l-23,13.7m49.3,29.3V539.3m88.4,48.4V505.9" class="g0_1"/>
<path d="M472.3,561.8V528.2c0,-2.8,2.3,-5.2,5.2,-5.2H586.1c2.9,0,5.2,2.4,5.2,5.2v33.6c0,2.9,-2.3,5.2,-5.2,5.2H477.5c-2.9,0,-5.2,-2.3,-5.2,-5.2Z" class="g1_1"/>
<path d="M433.3,617V587.7M279.6,617.3H629.9M433.3,646.9V617.7m-44.7,42.9l24.8,14.8m0,36.7V675.6m-31.2,55.3l31.2,-18.6m-31.2,18.6L351,712.3m0,-.2V675.6m24.8,-15L351,675.4M319.7,656.8L351,675.4m-31.3,55.5L351,712.3m-31.3,18.6L288.5,712.3m0,-.2V675.6m31.2,-18.8l-31.2,18.6m30.1,-10.9l-23,13.7m23,45.1l-23,-13.7m93,-40.8l18.3,11m-23.6,43.5l23,-13.7m-61.4,-2.2V680.3m88.4,48.4V646.9" class="g0_1"/>
<path d="M467.3,706.4V669.2c0,-2.8,2.3,-5.2,5.2,-5.2H591.1c2.9,0,5.2,2.4,5.2,5.2v37.2c0,2.9,-2.3,5.2,-5.2,5.2H472.5c-2.9,0,-5.2,-2.3,-5.2,-5.2Z" class="g1_1"/>
<path d="M433.3,758V728.7M279.6,758.3H629.9M433.3,787.9V758.7m-44.7,42.9l24.8,14.8m0,36.7V816.6m-31.2,55.3l31.2,-18.6m-31.2,18.6L351,853.3m0,-.2V816.6m24.8,-15L351,816.4M319.7,797.8L351,816.4m-31.3,55.5L351,853.3m-31.3,18.6L288.5,853.3m0,-.2V816.6m31.2,-18.8l-31.2,18.6m30.1,-10.9l-23,13.7m23,45.1l-23,-13.7m49.3,-2.2v-27m38.4,42.9l23,-13.7m27,19.2V787.9" class="g0_1"/>
<path d="M447.3,843.8V810.2c0,-2.8,2.3,-5.2,5.2,-5.2H611.1c2.9,0,5.2,2.4,5.2,5.2v33.6c0,2.9,-2.3,5.2,-5.2,5.2H452.5c-2.9,0,-5.2,-2.3,-5.2,-5.2Z" class="g1_1"/>
<path d="M433.3,899V869.8M279.6,899.3H629.9M433.3,928.9V899.7m-44.7,42.9l24.8,14.8m0,36.7V957.6M382.2,1013l31.2,-18.7M382.2,1013L351,994.3m0,-.2V957.6m24.8,-15L351,957.4M319.7,938.8L351,957.4M319.7,1013L351,994.3M319.7,1013L288.5,994.3m0,-.2V957.6m31.2,-18.8l-31.2,18.6m6,32v-27m26.3,-15.9l23,13.7m-23,45.1l23,-13.7m89.5,19.2V928.9" class="g0_1"/>
<path d="M462.9,984.8V951.2c0,-2.8,2.3,-5.1,5.2,-5.1H595.5c2.9,0,5.2,2.3,5.2,5.1v33.6c0,2.9,-2.3,5.2,-5.2,5.2H468.1c-2.9,0,-5.2,-2.3,-5.2,-5.2Z" class="g1_1"/>
<path d="M433.3,1040v-29.2m-153.7,29.6H629.9" class="g0_1"/>
</svg>