<?xml version="1.0" encoding="UTF-8" standalone="no"?>
<!DOCTYPE svg PUBLIC "-//W3C//DTD SVG 1.1//EN"
"http://www.w3.org/Graphics/SVG/1.1/DTD/svg11.dtd">
<svg viewBox="0 0 909 1286" version="1.1" xmlns="http://www.w3.org/2000/svg" xmlns:xlink="http://www.w3.org/1999/xlink">
<defs>
<clipPath id="c0_60"><path d="M119.5,215.6V182.1H789.9v33.5Z"/></clipPath>
<style type="text/css"><![CDATA[
.g0_60{
fill: none;
stroke: #000000;
stroke-width: 0.73;
stroke-linecap: butt;
stroke-linejoin: miter;
}
.g1_60{
fill: #7F7F7F;
fill-opacity: 0.01;
}
.g2_60{
fill: #7F7F7F;
fill-opacity: 0.02;
}
.g3_60{
fill: #7F7F7F;
fill-opacity: 0.04;
}
.g4_60{
fill: #7F7F7F;
fill-opacity: 0.07;
}
.g5_60{
fill: #7F7F7F;
fill-opacity: 0.11;
}
.g6_60{
fill: #FFFFFF;
}
.g7_60{
fill: #7F7F7F;
}
.g8_60{
fill: #EC008C;
}
.g9_60{
fill: #CBCEFB;
}
.ga_60{
fill: #FFFEF5;
}
.gb_60{
fill: none;
stroke: #D6C944;
stroke-width: 0.365;
stroke-linecap: butt;
stroke-linejoin: miter;
}
.gc_60{
fill: #E81A58;
}
.gd_60{
fill: #401A1A;
}
]]></style>
</defs>
<path d="M116.9,159.9H792.5" class="g0_60"/>
<path d="M122.2,184.8c221.7,0,443.4,0,665,0V472.7c-221.6,-9.3,-443.3,-9.3,-665,0Z" class="g1_60"/>
<path d="M122.9,185.4c221.2,0,442.4,0,663.7,0V472.1c-221.3,-9.3,-442.5,-9.3,-663.7,0Z" class="g2_60"/>
<path d="M123.5,186.1c220.8,0,441.6,0,662.5,0V471.5c-220.9,-9.4,-441.7,-9.4,-662.5,0Z" class="g3_60"/>
<path d="M124.1,186.7c220.4,0,440.8,0,661.2,0V470.9c-220.4,-9.4,-440.8,-9.4,-661.2,0Z" class="g4_60"/>
<path d="M124.7,187.3c220,0,440,0,660,0V470.2c-220,-9.3,-440,-9.3,-660,0Z" class="g5_60"/>
<path d="M125.4,187.9c219.5,0,439.1,0,658.7,0V469.6c-219.6,-9.3,-439.2,-9.3,-658.7,0Z" class="g5_60"/>
<path d="M126,188.6c219.1,0,438.3,0,657.5,0V469C564.3,459.6,345.1,459.6,126,469Z" class="g4_60"/>
<path d="M126.6,189.2c218.8,0,437.5,0,656.3,0V468.4C564.1,459,345.4,459,126.6,468.4Z" class="g3_60"/>
<path d="M127.2,189.8c218.4,0,436.7,0,655,0V467.7c-218.3,-9.3,-436.6,-9.3,-655,0Z" class="g2_60"/>
<path d="M127.9,190.4c217.9,0,435.8,0,653.7,0V467.1c-217.9,-9.3,-435.8,-9.3,-653.7,0Z" class="g1_60"/>
<path d="M116.9,462.4V179.5H792.5V462.4Z" class="g6_60"/>
<path d="M119.5,459.8V218.2H789.9V459.8Z" class="g6_60"/>
<path d="M119.5,215.6V182.1H789.9v33.5Z" class="g7_60"/>
<g clip-path="url(#c0_60)">
<image x="119" y="181" width="672" height="34" xlink:href="shade/1.png"/>
</g>
<path d="M675.7,210.5h88.2V187.3H675.7v23.2Z" class="g8_60"/>
<path d="M290.8,234.2H618.6M291.2,263.8V234.6" class="g0_60"/>
<path d="M291.6,263.8h55.7V234.6H291.6v29.2Z" class="g9_60"/>
<path d="M347.6,263.8V234.6" class="g0_60"/>
<path d="M348,263.8h55.7V234.6H348v29.2Z" class="g9_60"/>
<path d="M404.1,263.8V234.6" class="g0_60"/>
<path d="M404.4,263.8H510.8V234.6H404.4v29.2Z" class="g9_60"/>
<path d="M511.1,263.8V234.6" class="g0_60"/>
<path d="M511.5,263.8H617.9V234.6H511.5v29.2Z" class="g9_60"/>
<path d="M618.2,263.8V234.6M290.8,264.2H618.6M291.2,293.7V264.5m56.4,29.2V264.5m56.5,29.2V264.5m107,29.2V264.5m107.1,29.2V264.5M290.8,294.1H618.6M291.2,323.7V294.5m56.4,29.2V294.5m56.5,29.2V294.5m107,29.2V294.5m107.1,29.2V294.5M290.8,324.1H618.6M291.2,353.7V324.4m56.4,29.3V324.4m56.5,29.3V324.4m107,29.3V324.4m107.1,29.3V324.4M290.8,354H618.6M291.2,383.6V354.4m56.4,29.2V354.4m56.5,29.2V354.4m107,29.2V354.4m107.1,29.2V354.4M290.8,384H618.6M291.2,413.6V384.3m56.4,29.3V384.3m56.5,29.3V384.3m107,29.3V384.3m107.1,29.3V384.3M290.8,413.9H618.6M291.2,443.5V414.3m56.4,29.2V414.3m56.5,29.2V414.3m107,29.2V414.3m107.1,29.2V414.3M290.8,443.9H618.6" class="g0_60"/>
<path d="M-2.9,615.6V550.1H912.4v65.5Z" class="g6_60"/>
<path d="M-.3,613V552.7H909.8V613Z" class="ga_60"/>
<path d="M-.3,604.7H909.8M-.3,578.7H909.8M-.3,552.7H909.8M-.3,613V552.7M25.6,613V552.7m26,60.3V552.7m26,60.3V552.7m26,60.3V552.7m26,60.3V552.7M155.5,613V552.7m26,60.3V552.7m26,60.3V552.7m26,60.3V552.7m26,60.3V552.7m26,60.3V552.7M311.4,613V552.7m26,60.3V552.7m26,60.3V552.7m26,60.3V552.7m26,60.3V552.7m26,60.3V552.7m26,60.3V552.7M493.3,613V552.7m26,60.3V552.7m26,60.3V552.7m26,60.3V552.7m26,60.3V552.7m26,60.3V552.7M649.2,613V552.7m26,60.3V552.7m26,60.3V552.7m26,60.3V552.7m26,60.3V552.7m26,60.3V552.7M805.1,613V552.7m26,60.3V552.7m26,60.3V552.7m26,60.3V552.7m26,60.3V552.7" class="gb_60"/>
<path d="M116.9,1120.2v-407c0,-21.7,17.6,-39.2,39.2,-39.2H792.5v446.2Z" class="gc_60"/>
<path d="M119.5,1120.2V706.5H789.9v413.7Z" class="gd_60"/>
</svg>