<?xml version="1.0" encoding="UTF-8" standalone="no"?>
<!DOCTYPE svg PUBLIC "-//W3C//DTD SVG 1.1//EN"
"http://www.w3.org/Graphics/SVG/1.1/DTD/svg11.dtd">
<svg viewBox="0 0 909 1286" version="1.1" xmlns="http://www.w3.org/2000/svg" xmlns:xlink="http://www.w3.org/1999/xlink">
<defs>
<style type="text/css"><![CDATA[
.g0_19{
fill: none;
stroke: #000000;
stroke-width: 0.73;
stroke-linecap: butt;
stroke-linejoin: miter;
}
.g1_19{
fill: #FDE8E9;
}
]]></style>
</defs>
<path d="M116.9,159.9H792.5" class="g0_19"/>
<path d="M370.3,517h47.1V493.2H370.3V517Z" class="g1_19"/>
<path d="M434.3,517H674.8V493.2H434.3V517Z" class="g1_19"/>
<path d="M307.6,548.2h153V520.4h-153v27.8Z" class="g1_19"/>
<path d="M477.5,548.2H623.6V520.4H477.5v27.8Z" class="g1_19"/>
<path d="M133.8,577.9H246.1V550.1H133.8v27.8Z" class="g1_19"/>
<path d="M359.2,724H478.5V696.2H359.2V724Z" class="g1_19"/>
<path d="M733.1,809.7h59.4V785.9H733.1v23.8Z" class="g1_19"/>
<path d="M125.4,838.9H435.7V815.2H125.4v23.7Z" class="g1_19"/>
<path d="M184.5,870.2H349.8V842.3H184.5v27.9Z" class="g1_19"/>
<path d="M501.8,870.2H616.5V842.3H501.8v27.9Z" class="g1_19"/>
</svg>