<?xml version="1.0" encoding="UTF-8" standalone="no"?>
<!DOCTYPE svg PUBLIC "-//W3C//DTD SVG 1.1//EN"
"http://www.w3.org/Graphics/SVG/1.1/DTD/svg11.dtd">
<svg viewBox="0 0 1286 909" version="1.1" xmlns="http://www.w3.org/2000/svg" xmlns:xlink="http://www.w3.org/1999/xlink">
<defs>
<style type="text/css"><![CDATA[
.g0_1254{
fill: none;
stroke: #000000;
stroke-width: 0.73;
stroke-linecap: butt;
stroke-linejoin: miter;
}
.g1_1254{
fill: none;
stroke: #02B5EE;
stroke-width: 1.262;
stroke-linecap: butt;
stroke-linejoin: miter;
}
.g2_1254{
fill: none;
stroke: #5EE200;
stroke-width: 1.262;
stroke-linecap: butt;
stroke-linejoin: miter;
}
]]></style>
</defs>
<path d="M193,83.4h900.3M193,111.6h819.9m-819.9,0h819.9M581,141.2V112m0,58.5V141.2m0,59.4V170.5m0,115.2V200.6" class="g0_1254"/>
<path d="M756.3,261.7h170" class="g1_1254"/>
<path d="M936.8,261.7h65.1" class="g2_1254"/>
<path d="M581,314.9V285.7m0,58.4V314.9m0,114.2v-85" class="g0_1254"/>
<path d="M729.6,405.1H865.5" class="g1_1254"/>
<path d="M581,458.4V429.1m0,58.5V458.4m0,114.2v-85" class="g0_1254"/>
<path d="M692.8,548.6h113" class="g1_1254"/>
<path d="M816.3,548.6h22.1" class="g2_1254"/>
<path d="M581,601.8V572.6m0,58.4V601.8m0,114.3V631" class="g0_1254"/>
<path d="M678.1,692.1H805.8" class="g1_1254"/>
<path d="M816.3,692.1h22.1" class="g2_1254"/>
<path d="M581,745.3V716.1M193,745.7h819.9m-819.9,0h819.9" class="g0_1254"/>
</svg>