<?xml version="1.0" encoding="UTF-8" standalone="no"?>
<!DOCTYPE svg PUBLIC "-//W3C//DTD SVG 1.1//EN"
"http://www.w3.org/Graphics/SVG/1.1/DTD/svg11.dtd">
<svg viewBox="0 0 909 1286" version="1.1" xmlns="http://www.w3.org/2000/svg" xmlns:xlink="http://www.w3.org/1999/xlink">
<defs>
<style type="text/css"><![CDATA[
.g0_2{
fill: none;
stroke: #000000;
stroke-width: 0.73;
stroke-linecap: butt;
stroke-linejoin: miter;
}
.g1_2{
fill: #FFFFFF;
}
]]></style>
</defs>
<path d="M116.9,179.9H455.1M319.6,209.5V180.3" class="g0_2"/>
<path d="M130.5,254.5V217.3c0,-2.9,2.3,-5.2,5.2,-5.2H250.5c2.9,0,5.2,2.3,5.2,5.2v37.2c0,2.9,-2.3,5.2,-5.2,5.2H135.7c-2.9,0,-5.2,-2.3,-5.2,-5.2Z" class="g1_2"/>
<path d="M319.6,262.3V209.5m59.9,19.8l18.2,11m-31,-11l-18.3,11m80.8,-11l-18.3,11m-91.3,51.2V262.3M116.9,291.9H455.1M319.6,321.5V292.2" class="g0_2"/>
<path d="M130.5,362.8V329.3c0,-2.9,2.3,-5.2,5.2,-5.2H246.8c2.9,0,5.2,2.3,5.2,5.2v33.5c0,2.9,-2.3,5.2,-5.2,5.2H135.7c-2.9,0,-5.2,-2.3,-5.2,-5.2Z" class="g1_2"/>
<path d="M319.6,370.6V321.5m59.9,19.8l18.2,10.9m-31,-10.9l-18.3,10.9m80.8,-10.9l-18.3,10.9m-91.3,47.6V370.6M116.9,400.2H455.1M319.6,429.8V400.6" class="g0_2"/>
<path d="M130.5,474.8V437.6c0,-2.9,2.3,-5.2,5.2,-5.2H300.4c2.9,0,5.2,2.3,5.2,5.2v37.2c0,2.9,-2.3,5.2,-5.2,5.2H135.7c-2.9,0,-5.2,-2.3,-5.2,-5.2Z" class="g1_2"/>
<path d="M319.6,482.6V429.8m59.9,19.8l18.2,11m-31,-11l-18.3,11m80.8,-11l-18.3,11m-91.3,51.2V482.6M116.9,512.2H455.1M319.6,541.8V512.6" class="g0_2"/>
<path d="M130.5,586.8V549.6c0,-2.9,2.3,-5.2,5.2,-5.2H296.8c2.9,0,5.2,2.3,5.2,5.2v37.2c0,2.9,-2.3,5.2,-5.2,5.2H135.7c-2.9,0,-5.2,-2.3,-5.2,-5.2Z" class="g1_2"/>
<path d="M319.6,594.6V541.8m59.9,19.8l18.2,11m-31,-11l-18.3,11m80.8,-11l-18.3,11m-91.3,51.2V594.6M116.9,624.2H455.1M319.6,653.8V624.5" class="g0_2"/>
<path d="M130.5,714.2V680.6c0,-2.8,2.3,-5.2,5.2,-5.2H238.3c2.8,0,5.2,2.4,5.2,5.2v33.6c0,2.9,-2.4,5.2,-5.2,5.2H135.7c-2.9,0,-5.2,-2.3,-5.2,-5.2Z" class="g1_2"/>
<path d="M319.6,744.7V653.8M369.2,708L351,726.3M385.7,708L404,726.3M370.9,691L352.6,672.8m15,21.5L349.3,676.1M384,691l18.3,-18.2m-15,21.5l18.3,-18.2m-86,97.9V744.7M116.9,774.3H455.1M319.6,803.9V774.7" class="g0_2"/>
<path d="M130.5,864.4V830.8c0,-2.9,2.3,-5.2,5.2,-5.2H252.3c2.8,0,5.2,2.3,5.2,5.2v33.6c0,2.8,-2.4,5.1,-5.2,5.1H135.7c-2.9,0,-5.2,-2.3,-5.2,-5.1Z" class="g1_2"/>
<path d="M319.6,894.9v-91m61,36.2V821.8m4.7,18.3V821.8m-14.4,36.4l-22.1,13.1m41.5,-13.1l22.1,13.1m-92.8,52.8V894.9M116.9,924.5H455.1" class="g0_2"/>
</svg>