<?xml version="1.0" encoding="UTF-8" standalone="no"?>
<!DOCTYPE svg PUBLIC "-//W3C//DTD SVG 1.1//EN"
"http://www.w3.org/Graphics/SVG/1.1/DTD/svg11.dtd">
<svg viewBox="0 0 1286 909" version="1.1" xmlns="http://www.w3.org/2000/svg" xmlns:xlink="http://www.w3.org/1999/xlink">
<defs>
<style type="text/css"><![CDATA[
.g0_711{
fill: none;
stroke: #000000;
stroke-width: 0.73;
stroke-linecap: butt;
stroke-linejoin: miter;
}
.g1_711{
fill: #B3E9FA;
}
.g2_711{
fill: none;
stroke: #02B5EE;
stroke-width: 1.262;
stroke-linecap: butt;
stroke-linejoin: miter;
}
.g3_711{
fill: none;
stroke: #5EE200;
stroke-width: 1.262;
stroke-linecap: butt;
stroke-linejoin: miter;
}
]]></style>
</defs>
<path d="M193,83.4h900.3M193,111.6H834.4m-641.4,0H834.4M547.3,141.2V112m0,58.5V141.2m0,114.3v-85" class="g0_711"/>
<path d="M588.1,212V193.5c0,-2.9,2.3,-5.2,5.2,-5.2H685c2.9,0,5.2,2.3,5.2,5.2V212c0,2.9,-2.3,5.2,-5.2,5.2H593.3c-2.9,0,-5.2,-2.3,-5.2,-5.2Z" class="g1_711"/>
<path d="M585.5,231.5H692.8" class="g2_711"/>
<path d="M703.3,231.5H823.5" class="g3_711"/>
<path d="M547.3,284.7V255.5m0,58.4V284.7m0,114.3V313.9" class="g0_711"/>
<path d="M581.8,349.2V337c0,-2.9,2.3,-5.2,5.2,-5.2H691c2.8,0,5.2,2.3,5.2,5.2v12.2c0,2.8,-2.4,5.2,-5.2,5.2H587c-2.9,0,-5.2,-2.4,-5.2,-5.2Z" class="g1_711"/>
<path d="M579.2,375H698.8" class="g2_711"/>
<path d="M709.3,375H823.5" class="g3_711"/>
<path d="M547.3,428.2V399m0,58.4V428.2m0,114.2v-85" class="g0_711"/>
<path d="M592.9,518.4H694.1" class="g2_711"/>
<path d="M547.3,571.7V542.4M193,572H834.4M193,572H834.4" class="g0_711"/>
</svg>