<?xml version="1.0" encoding="UTF-8" standalone="no"?>
<!DOCTYPE svg PUBLIC "-//W3C//DTD SVG 1.1//EN"
"http://www.w3.org/Graphics/SVG/1.1/DTD/svg11.dtd">
<svg viewBox="0 0 1286 909" version="1.1" xmlns="http://www.w3.org/2000/svg" xmlns:xlink="http://www.w3.org/1999/xlink">
<defs>
<style type="text/css"><![CDATA[
.g0_1109{
fill: none;
stroke: #000000;
stroke-width: 0.73;
stroke-linecap: butt;
stroke-linejoin: miter;
}
.g1_1109{
fill: #FFF7A4;
}
.g2_1109{
fill: #FFCCCC;
}
.g3_1109{
fill: none;
stroke: #F81693;
stroke-width: 1.461;
stroke-linecap: butt;
stroke-linejoin: miter;
stroke-dasharray: 2,2;
}
]]></style>
</defs>
<path d="M193,83.4h900.3M193,210.6H847.1m-654.1,0H847.1M454.6,240.2V211m0,58.5V240.2m0,64.1V269.5" class="g0_1109"/>
<path d="M580.9,304.3h89.3V271.4H580.9v32.9Z" class="g1_1109"/>
<path d="M454.6,334.4V304.3m0,63V334.4" class="g0_1109"/>
<path d="M667.1,367.3h78.6V334.4H667.1v32.9Z" class="g1_1109"/>
<path d="M454.6,396.5V367.3m0,58.5V396.5m0,63.2V425.8" class="g0_1109"/>
<path d="M692.7,459.7h56.8V426.8H692.7v32.9Z" class="g2_1109"/>
<path d="M763.7,453.3h68.8" class="g3_1109"/>
<path d="M454.6,489.9V459.7m0,63.1V489.9" class="g0_1109"/>
<path d="M661.6,518.4h65.7" class="g3_1109"/>
<path d="M737.1,522.8h99.1V489.9H737.1v32.9Z" class="g2_1109"/>
<path d="M454.6,552V522.8M193,552.3H847.1m-654.1,0H847.1" class="g0_1109"/>
</svg>