<?xml version="1.0" encoding="UTF-8" standalone="no"?>
<!DOCTYPE svg PUBLIC "-//W3C//DTD SVG 1.1//EN"
"http://www.w3.org/Graphics/SVG/1.1/DTD/svg11.dtd">
<svg viewBox="0 0 1286 909" version="1.1" xmlns="http://www.w3.org/2000/svg" xmlns:xlink="http://www.w3.org/1999/xlink">
<defs>
<style type="text/css"><![CDATA[
.g0_1281{
fill: none;
stroke: #000000;
stroke-width: 0.73;
stroke-linecap: butt;
stroke-linejoin: miter;
}
]]></style>
</defs>
<path d="M193,83.4h900.3M193,111.6H686.6m-493.6,0H686.6M406,141.2V112m0,60.1V141.2m0,60.1V172.1m0,58.4V201.3m0,60.1V230.5m0,60.1V261.4m0,58.4V290.6m0,60.1V319.8m0,60.1V350.7m0,58.4V379.9m0,60.1V409.1m0,60.1V440m0,58.4V469.2m0,60V498.4m0,60.1V529.2m0,58.5V558.5m0,60V587.7m0,60.1V618.5m0,58.5V647.8m0,60V677m0,60.1V707.8M193,737.4H686.6m-493.6,0H686.6" class="g0_1281"/>
</svg>