<?xml version="1.0" standalone="no"?>
<!DOCTYPE svg PUBLIC "-//W3C//DTD SVG 20010904//EN"
 "http://www.w3.org/TR/2001/REC-SVG-20010904/DTD/svg10.dtd">
<svg version="1.0" xmlns="http://www.w3.org/2000/svg"
 width="1024.000000pt" height="1024.000000pt" viewBox="0 0 1024.000000 1024.000000"
 preserveAspectRatio="xMidYMid meet">
<metadata>
Created by potrace 1.14, written by Peter Selinger 2001-2017
</metadata>
<g transform="translate(0.000000,1024.000000) scale(0.100000,-0.100000)"
fill="#000000" stroke="none">
<path d="M5040 9773 c-20 -7 -108 -103 -116 -125 -3 -10 -10 -18 -16 -18 -6 0
-9 -3 -5 -6 3 -4 1 -12 -6 -19 -17 -17 -68 -80 -126 -155 -28 -36 -54 -69 -59
-75 -4 -5 -18 -25 -31 -43 -13 -19 -39 -50 -57 -70 -19 -21 -34 -40 -34 -45 0
-4 -11 -20 -24 -35 -59 -66 -76 -88 -76 -97 0 -5 -16 -27 -36 -49 -19 -21 -54
-64 -77 -95 -22 -31 -52 -66 -64 -79 -13 -13 -23 -26 -23 -30 0 -4 -11 -20
-25 -36 -14 -16 -25 -32 -25 -35 0 -3 -17 -25 -38 -48 -20 -23 -44 -51 -52
-64 -24 -35 -64 -84 -73 -87 -4 -2 -5 -8 -1 -13 3 -5 1 -9 -4 -9 -6 0 -24 -21
-41 -47 -17 -27 -44 -62 -61 -80 -16 -18 -30 -35 -30 -39 0 -3 -12 -21 -27
-39 -58 -68 -69 -81 -94 -120 -15 -22 -37 -51 -50 -65 -13 -14 -49 -58 -78
-98 -30 -39 -59 -72 -64 -72 -4 0 -5 -4 -2 -10 3 -5 2 -10 -3 -10 -5 0 -15
-12 -23 -27 -8 -15 -26 -39 -41 -54 -15 -14 -25 -29 -21 -32 3 -4 1 -7 -5 -7
-5 0 -20 -17 -33 -37 -12 -21 -29 -44 -37 -50 -8 -7 -36 -41 -61 -77 -25 -35
-74 -98 -108 -140 -35 -42 -63 -80 -63 -86 0 -5 -4 -10 -9 -10 -6 0 -26 -24
-45 -53 -19 -29 -49 -66 -65 -82 -17 -17 -31 -35 -31 -41 0 -7 -7 -15 -16 -18
-9 -4 -14 -9 -11 -12 3 -3 -13 -24 -34 -47 -21 -23 -39 -48 -39 -54 0 -7 -4
-13 -10 -13 -5 0 -10 -4 -10 -10 0 -9 -7 -18 -61 -80 -12 -14 -29 -36 -38 -50
-22 -34 -41 -59 -68 -87 -13 -13 -23 -27 -23 -32 0 -4 -16 -21 -35 -38 -19
-17 -35 -36 -35 -42 0 -6 -4 -11 -9 -11 -5 0 -13 -10 -17 -22 -4 -13 -16 -35
-28 -50 -11 -14 -31 -39 -43 -55 -12 -15 -34 -41 -48 -57 -14 -16 -25 -32 -25
-35 0 -3 -14 -22 -31 -41 -16 -19 -37 -47 -47 -62 -9 -16 -19 -28 -22 -28 -4
0 -24 -25 -45 -55 -20 -30 -41 -55 -44 -55 -4 0 -17 -17 -29 -37 -11 -21 -32
-49 -44 -63 -13 -14 -61 -74 -106 -135 -46 -60 -87 -116 -93 -122 -5 -7 -10
-15 -10 -17 0 -3 -14 -20 -32 -39 -18 -19 -39 -44 -47 -57 -8 -12 -30 -41 -48
-63 -18 -22 -38 -49 -44 -60 -6 -12 -21 -32 -34 -46 -14 -14 -27 -34 -30 -44
-3 -9 -10 -15 -15 -12 -5 4 -9 -1 -9 -9 0 -9 -4 -16 -9 -16 -5 0 -12 -8 -15
-17 -4 -10 -20 -34 -37 -53 -17 -19 -52 -64 -77 -100 -26 -36 -52 -69 -58 -75
-6 -5 -35 -41 -64 -80 -29 -38 -58 -74 -64 -80 -6 -5 -24 -30 -40 -54 -16 -25
-33 -50 -38 -55 -5 -6 -22 -26 -38 -45 -17 -19 -30 -38 -30 -41 0 -4 -10 -18
-22 -32 -33 -36 -51 -59 -71 -91 -10 -16 -27 -38 -37 -50 -10 -12 -29 -33 -40
-47 -12 -14 -36 -44 -53 -67 -17 -24 -34 -43 -39 -43 -5 0 -7 -4 -3 -9 3 -6
-1 -13 -9 -18 -13 -7 -66 -78 -66 -88 0 -2 -18 -22 -40 -45 -22 -23 -40 -45
-40 -49 0 -4 -13 -23 -30 -42 -45 -52 -45 -52 -66 -84 -20 -32 -48 -67 -76
-97 -10 -10 -18 -22 -18 -28 0 -5 -4 -10 -8 -10 -4 0 -15 -12 -24 -27 -9 -16
-31 -44 -48 -63 -18 -19 -46 -55 -63 -80 -17 -25 -66 -88 -109 -141 -43 -53
-78 -99 -78 -103 0 -10 50 -59 50 -49 0 4 4 3 8 -2 4 -6 23 -22 42 -35 19 -13
37 -27 40 -30 3 -3 21 -17 40 -30 19 -13 39 -30 43 -37 4 -7 13 -13 20 -13 7
0 18 -9 25 -21 7 -12 16 -19 19 -16 4 5 11 0 67 -50 14 -13 29 -23 35 -23 5 0
24 -14 42 -30 40 -36 42 -37 99 -75 43 -29 57 -39 109 -84 13 -12 27 -21 30
-21 3 0 19 -11 34 -25 15 -14 27 -23 27 -20 0 5 37 -24 66 -52 7 -7 17 -13 23
-13 6 0 11 -4 11 -10 0 -5 5 -10 11 -10 6 0 16 -6 23 -13 7 -6 25 -21 41 -32
15 -11 46 -35 69 -53 22 -18 48 -39 56 -45 8 -7 31 -23 50 -37 19 -13 37 -27
40 -30 3 -3 21 -17 40 -30 19 -14 42 -30 50 -37 8 -6 44 -33 80 -60 36 -26 74
-56 85 -66 11 -10 35 -28 53 -39 19 -11 48 -34 65 -49 17 -16 35 -29 39 -29 3
0 13 -6 20 -13 7 -7 60 -48 118 -92 58 -43 107 -83 108 -87 2 -4 8 -8 13 -8 8
0 21 -10 63 -45 7 -5 19 -14 28 -20 8 -5 52 -38 96 -72 45 -35 85 -63 91 -63
5 0 11 -3 13 -7 3 -9 125 -103 133 -103 2 0 42 -29 87 -65 46 -36 88 -69 93
-73 6 -4 72 -55 148 -112 76 -58 146 -109 155 -115 23 -15 53 -38 74 -58 10
-9 21 -17 25 -17 4 0 28 -18 54 -40 26 -22 52 -40 57 -40 6 0 12 -4 14 -8 2
-6 56 -48 226 -177 7 -5 22 -18 32 -27 10 -9 28 -22 40 -28 12 -6 29 -18 38
-27 16 -13 90 -69 158 -118 15 -11 33 -26 41 -33 7 -7 13 -11 13 -8 0 3 10 -3
23 -13 19 -16 146 -112 233 -176 15 -11 49 -37 76 -58 26 -20 48 -35 48 -33 0
3 17 -11 38 -29 20 -19 40 -35 43 -35 3 0 17 -9 30 -21 13 -11 34 -29 47 -40
12 -10 24 -19 27 -19 3 0 13 -6 22 -14 101 -81 133 -106 133 -101 0 2 13 -9
29 -24 17 -16 44 -37 60 -47 17 -10 31 -22 31 -26 0 -4 7 -8 15 -8 8 0 15 -4
15 -8 0 -9 11 -11 70 -12 33 -1 88 22 155 64 17 11 50 32 75 47 25 16 51 33
58 39 6 6 12 8 12 4 0 -4 9 1 20 11 11 10 20 15 20 11 0 -4 7 0 16 9 9 9 26
22 38 29 12 8 53 34 93 60 40 25 75 46 78 46 3 0 15 9 27 20 12 10 25 17 29
14 4 -2 10 0 14 6 3 5 38 29 78 51 40 23 74 46 77 50 3 4 25 17 50 30 25 13
47 26 50 29 9 11 110 70 120 70 6 0 10 5 10 10 0 6 11 15 24 20 13 5 56 29 95
54 39 25 75 46 80 46 4 0 16 9 26 20 10 11 21 17 25 15 5 -3 10 -1 12 4 1 5
10 11 18 13 8 2 20 8 26 14 7 6 56 37 111 70 54 32 100 61 103 64 3 3 23 14
45 25 22 11 44 26 48 32 4 7 12 13 17 13 5 0 69 37 142 82 153 96 162 101 206
123 17 10 32 22 32 27 0 5 4 7 8 4 5 -3 18 4 30 14 12 11 25 20 29 20 11 0
177 102 185 114 5 7 8 7 8 1 0 -5 6 -3 13 5 7 8 38 28 70 45 31 16 57 33 57
36 0 4 9 11 20 14 11 3 26 12 33 18 6 7 38 26 70 42 31 17 57 34 57 38 0 5 5
5 10 2 6 -3 10 -1 10 4 0 6 4 11 9 11 5 0 33 15 62 33 30 18 70 43 89 54 19
12 41 27 48 33 6 6 12 7 12 3 0 -4 4 -3 8 2 9 12 61 44 85 52 9 3 17 9 17 14
0 5 7 9 15 9 8 0 15 5 15 11 0 5 4 8 9 4 6 -3 14 2 19 11 5 9 12 15 16 14 6
-1 134 75 226 135 19 12 53 33 75 46 22 12 42 25 45 28 9 10 64 42 83 48 9 3
17 9 17 13 0 4 14 13 30 20 17 7 30 16 30 20 0 5 16 14 35 20 19 6 35 15 35
19 0 4 10 13 23 19 43 23 225 134 308 188 19 13 40 24 47 24 7 0 12 5 12 10 0
6 7 10 15 10 8 0 15 5 15 10 0 6 3 9 8 8 4 -1 26 10 49 25 24 15 47 27 53 27
5 0 10 3 10 8 0 4 10 12 23 18 67 34 87 46 87 55 0 6 5 7 10 4 6 -3 10 -2 10
2 0 5 9 13 20 18 32 16 264 159 270 166 7 9 68 40 76 38 4 0 10 3 13 8 6 9 38
29 189 120 34 20 62 41 62 45 0 4 9 8 20 8 11 0 20 4 20 9 0 5 8 11 18 15 16
5 28 12 84 49 14 9 32 17 38 17 7 0 22 11 34 23 17 19 20 28 12 42 -15 26 -37
55 -63 82 -13 13 -23 26 -23 29 0 3 -10 15 -23 27 -13 12 -42 47 -64 77 -22
30 -51 66 -63 80 -12 14 -31 38 -43 54 -12 16 -37 45 -54 64 -18 19 -33 38
-33 42 0 4 -7 11 -16 14 -8 3 -12 10 -9 16 3 5 2 10 -4 10 -5 0 -20 17 -32 38
-13 20 -31 44 -40 52 -9 8 -37 42 -62 75 -24 33 -53 70 -63 82 -38 44 -55 67
-92 125 -9 16 -22 28 -27 28 -6 0 -21 18 -35 40 -14 22 -28 40 -32 40 -5 0 -8
5 -8 11 0 6 -9 21 -19 33 -55 60 -71 80 -71 86 0 4 -10 18 -22 32 -59 65 -103
120 -107 131 -2 6 -9 17 -15 23 -6 6 -22 26 -36 44 -14 18 -32 40 -41 49 -9 9
-25 29 -35 46 -19 31 -47 66 -74 94 -8 9 -26 32 -40 51 -24 34 -30 42 -85 105
-14 17 -38 48 -53 70 -15 22 -35 47 -44 56 -10 9 -18 21 -18 28 0 6 -4 11 -8
11 -4 0 -15 12 -24 28 -9 15 -29 41 -45 57 -15 17 -51 59 -78 95 -66 86 -77
100 -97 122 -10 10 -18 20 -18 23 0 7 -14 25 -57 71 -18 20 -33 39 -33 44 0 5
-3 10 -7 12 -10 4 -73 85 -73 93 0 3 -14 20 -31 38 -17 17 -45 52 -62 76 -16
24 -37 52 -46 61 -21 22 -74 89 -85 107 -4 9 -16 23 -25 33 -24 26 -53 61 -83
102 -38 51 -58 75 -95 115 -18 19 -33 41 -33 49 0 9 -4 13 -9 9 -5 -3 -12 3
-15 12 -3 10 -16 29 -28 43 -45 50 -108 128 -108 134 0 4 -11 17 -23 29 -13
12 -37 40 -53 62 -16 23 -35 47 -42 55 -7 8 -26 33 -42 55 -30 40 -64 82 -110
134 -14 15 -34 41 -45 56 -29 42 -69 90 -77 93 -5 2 -8 10 -8 18 0 9 -4 12
-10 9 -6 -3 -10 -1 -10 5 0 6 -6 18 -12 25 -7 8 -22 26 -33 40 -11 15 -35 42
-52 61 -18 19 -29 34 -25 34 4 0 2 4 -3 8 -6 4 -22 23 -36 42 -15 19 -37 46
-49 60 -12 14 -41 50 -63 80 -22 30 -50 63 -60 73 -11 9 -17 17 -13 17 4 0 1
6 -6 13 -7 7 -24 30 -38 50 -14 20 -28 37 -32 37 -5 0 -8 4 -8 10 0 5 -10 20
-22 33 -37 38 -68 77 -62 77 3 0 -1 6 -8 14 -32 32 -103 119 -103 125 1 3 -8
15 -18 26 -72 79 -97 110 -97 122 0 8 -4 11 -10 8 -5 -3 -10 1 -10 9 0 9 -4
16 -10 16 -5 0 -10 4 -10 10 0 5 -13 22 -28 37 -16 16 -48 55 -73 88 -24 33
-46 62 -49 65 -3 3 -17 21 -30 40 -33 47 -69 91 -124 150 -18 19 -32 39 -33
44 0 7 -36 55 -68 90 -6 6 -34 42 -64 80 -51 65 -64 82 -103 128 -10 12 -18
25 -18 29 0 4 -11 19 -25 33 -14 14 -25 30 -25 36 0 6 -4 8 -10 5 -5 -3 -10 1
-10 10 0 8 -7 18 -15 21 -8 4 -12 10 -9 15 3 5 1 9 -3 9 -5 0 -16 12 -26 28
-9 15 -31 43 -48 62 -17 19 -39 46 -48 60 -19 30 -25 38 -71 89 -55 63 -59 68
-53 75 4 3 1 6 -5 6 -5 0 -20 15 -31 33 -11 17 -31 43 -44 57 -12 14 -34 42
-49 63 -31 45 -96 117 -106 116 -4 0 -14 -3 -22 -6z"/>
</g>
</svg>
