<?xml version="1.0" encoding="UTF-8" standalone="no"?>
<!DOCTYPE svg PUBLIC "-//W3C//DTD SVG 1.1//EN"
"http://www.w3.org/Graphics/SVG/1.1/DTD/svg11.dtd">
<svg viewBox="0 0 909 1286" version="1.1" xmlns="http://www.w3.org/2000/svg" xmlns:xlink="http://www.w3.org/1999/xlink">
<defs>
<clipPath id="c0_71"><path d="M122.9,351.9V317.2H152v34.7Z"/></clipPath>
<clipPath id="c1_71"><path d="M123.1,504.5V472.8h29.1v31.7Z"/></clipPath>
<clipPath id="c2_71"><path d="M122.9,659.4V624.7H152v34.7Z"/></clipPath>
<clipPath id="c3_71"><path d="M123.1,812V780.3h29.1V812Z"/></clipPath>
<clipPath id="c4_71"><path d="M123.1,963.4V931.6h29.1v31.8Z"/></clipPath>
<clipPath id="c5_71"><path d="M122.1,352.3V316.2H153v36.1Z"/></clipPath>
<clipPath id="c6_71"><path d="M122.1,505V472.3H153V505Z"/></clipPath>
<clipPath id="c7_71"><path d="M122.1,659.8V623.7H153v36.1Z"/></clipPath>
<clipPath id="c8_71"><path d="M122.1,812.5V779.8H153v32.7Z"/></clipPath>
<clipPath id="c9_71"><path d="M122.1,963.9V931.2H153v32.7Z"/></clipPath>
<style type="text/css"><![CDATA[
.g0_71{
fill: none;
stroke: #000000;
stroke-width: 0.73;
stroke-linecap: butt;
stroke-linejoin: miter;
}
.g1_71{
fill: #FFFFFF;
}
.g2_71{
fill: #868686;
}
.g3_71{
fill: #242628;
}
.g4_71{
fill: #A0A0A0;
}
.g5_71{
fill: #C4956E;
}
.g6_71{
fill: #222426;
}
.g7_71{
fill: #202126;
}
.g8_71{
fill: #252427;
}
.g9_71{
fill: #222924;
}
.ga_71{
fill: none;
stroke: #000000;
stroke-width: 1.461;
stroke-linecap: butt;
stroke-linejoin: miter;
}
.gb_71{
fill: none;
stroke: #000000;
stroke-width: 2.739;
stroke-linecap: butt;
stroke-linejoin: miter;
}
.gc_71{
}
.gd_71{
fill: none;
stroke: #000000;
stroke-width: 0.459;
stroke-linecap: butt;
stroke-linejoin: round;
}
.ge_71{
fill: none;
stroke: #000000;
stroke-width: 0.722;
stroke-linecap: round;
stroke-linejoin: miter;
}
.gf_71{
fill: none;
stroke: #000000;
stroke-width: 0.722;
stroke-linecap: round;
stroke-linejoin: round;
}
.gg_71{
fill: #D40000;
}
.gh_71{
fill: none;
stroke: #000000;
stroke-width: 0.578;
stroke-linecap: round;
stroke-linejoin: miter;
}
.gi_71{
fill: #E9C6AF;
}
.gj_71{
fill: none;
stroke: #695000;
stroke-width: 0.152;
stroke-linecap: round;
stroke-linejoin: round;
}
]]></style>
</defs>
<path d="M116.9,159.9H792.5" class="g0_71"/>
<path d="M117.7,424.7V309.9H791.8V424.7Z" class="g1_71"/>
<path d="M117.7,424.7V309.9H791.8V424.7Z" class="ga_71"/>
<g clip-path="url(#c5_71)">
<path clip-path="url(#c0_71)" d="M125.6,351.7c-.1,-.1,-.1,-.2,0,-.3c0,-.1,.1,-1.2,0,-1.7c0,-.2,0,-.4,0,-.6c.1,-.9,.3,-2.3,.3,-2.3c0,0,0,-.3,.1,-.6c.1,-.5,.1,-.6,-.1,-.9c-.3,-.6,-.9,-2,-1.1,-2.8c-.4,-1.8,-.5,-4.6,-.1,-6c.3,-1.1,.5,-1.2,.9,-.5c.3,.6,.4,.4,0,-.3c-.3,-.8,-.6,-2.1,-.5,-2.5c0,-.1,.2,-.6,.4,-1.1c.2,-.4,.4,-1,.5,-1.2c.1,-.5,.5,-.7,.9,-.6c.1,.1,.2,.3,.3,.4c.2,.3,.2,.2,.1,-.2c-.1,-.3,-.2,-.6,-.1,-.6c0,0,0,-.2,0,-.4c.1,-.4,1,-2,1.6,-2.6c.3,-.3,.6,-.6,.7,-.7c.1,-.2,.5,-.5,.8,-.7c.3,-.2,.7,-.6,.9,-.8c.4,-.4,.7,-.5,.9,-.2c.2,.2,.2,.1,.2,-.2c0,-.2,0,-.4,0,-.5c.1,-.2,1.5,-1.2,2.1,-1.5c.3,-.1,.6,-.3,.8,-.4c.1,-.1,.3,-.2,.4,-.2c0,0,.4,-.2,.8,-.4c.4,-.3,.9,-.5,1,-.6c.2,0,.6,-.2,1,-.4c1.1,-.5,1.6,-.7,2.4,-1c.5,-.2,.9,-.4,1,-.4c0,0,.1,0,.3,.1l.2,.2l.4,-.3c.6,-.6,1.6,-.9,3.8,-1.2c.9,-.1,2.2,-.3,2.8,-.4l1,-.1l.1,.3c.1,.2,.1,.3,-.3,.4c-2.7,1,-4.6,2,-5.6,2.9c-.2,.2,-.4,.3,-.4,.3c-.1,0,-1.5,1.5,-1.5,1.6c0,0,-.1,.2,-.2,.3c-.3,.2,-.6,.7,-.5,1.1c0,.1,-.1,.3,-.4,.5c-.3,.2,-.4,.3,-.4,.4c.2,.1,0,.9,-.2,1.2c-.7,.7,-1.7,2.2,-1.9,2.9c-.1,.1,-.2,.4,-.4,.7c-.2,.3,-.4,.8,-.5,1.1q-.4,.9,-1,.9c-.5,.1,-1.4,.4,-1.3,.5c0,0,.4,0,.9,-.1c1.1,-.1,1.2,0,.8,.7c-.4,.7,-.7,1.7,-.7,2.1c0,.4,-.2,.9,-.6,2.3c-.1,.3,-.3,.5,-.7,.7c-.5,.3,-.6,.3,-1.2,.4q-.7,0,-.6,.2c.1,.1,-.1,.5,-.5,1.3c-.3,.6,-.7,1.2,-.8,1.3c-.2,.2,-.4,.5,-.6,.8c-.2,.3,-.4,.5,-.5,.5c0,0,-.2,.2,-.3,.3c-.6,.8,-2.7,2.6,-3,2.7l.3,-3.3c.1,.2,.4,0,.6,-.2c.2,-.4,.5,-.6,1.1,-.6c.5,-.1,.6,-.1,1,-.5c.2,-.3,.6,-.9,.9,-1.4l.5,-1l-.5,-.2c-.3,-.2,-.6,-.4,-.7,-.5c-.1,-.2,.4,-.9,.7,-1c.2,-.1,.5,-.2,.7,-.2c.2,0,.5,-.1,.7,-.3c.3,-.1,.5,-.2,.7,-.3c.6,0,.8,-.4,.8,-1.3c.1,-.9,.2,-1,.5,-1.2c.4,-.1,.7,-.1,.9,.2l.1,.2l.1,-.2c.1,-.3,.1,-.4,-.1,-.4c-.1,0,-.2,-.1,-.3,-.3q-.1,-.2,-.6,-.4c-.6,-.2,-.7,-.3,-.5,-.5c0,-.1,0,-.3,0,-.4c-.1,-.3,.4,-.7,1,-1c.5,-.2,.6,-.3,1.1,-1.2c.3,-.6,.8,-1.3,1,-1.5c.2,-.2,.5,-.5,.6,-.7c.1,-.2,.2,-.2,.4,-.2c.2,0,.4,-.1,.5,-.2c.2,-.1,.9,-1.1,.8,-1.1c0,0,-.2,.1,-.5,.2c-.8,.3,-1.8,.3,-2,-.1c-.2,-.3,.4,-1.2,.9,-1.2c.1,0,1.1,-.5,1.5,-.8c.1,-.1,.3,-.5,.5,-.8c.3,-.7,.8,-1.4,1.2,-1.5c.5,-.1,.7,-.3,.9,-.7c.2,-.4,.1,-.7,-.4,-.9c-.1,0,-.3,-.2,-.4,-.3c0,-.1,-.1,-.2,-.2,-.2c-.3,0,-3,1.1,-4.1,1.6c-.2,.2,-.5,.4,-.7,.6c-.1,.1,-.5,.5,-.9,.8c-.4,.3,-.9,.8,-1,1c-.1,.3,-.4,.7,-.7,.9c-.4,.4,-.4,.5,-.4,1.2c-.1,.5,0,1,.1,1.2c.3,.7,.2,1.1,-.3,1.1c-.5,-.1,-.8,-.4,-1.3,-1.6c-.3,-.6,-.6,-1,-.6,-1c-.2,0,-.8,.7,-1.1,1.2c-.2,.6,-.3,.7,-.7,.8c-.5,.2,-.5,.3,-.7,.8c-.1,.2,-.1,.6,-.1,.7c.1,.1,.1,.3,.1,.3c-.1,.4,-.1,.8,.1,1.3c.2,.3,.3,.6,.3,.8c0,.1,.1,.5,.3,.9c.3,.6,.3,.7,.2,1.2c-.1,.3,-.1,.6,-.1,.7c-.1,.3,-.4,.3,-1.1,-.3c-.5,-.5,-1.2,-1.2,-2,-2.3c-.3,-.4,-.4,-.5,-.3,-.1c0,.1,-.1,.5,-.2,.8c-.2,.6,-.2,1.4,.2,1.7c.2,.3,.8,1.9,.9,2.3c0,.2,0,.4,.1,.5c.1,.2,.1,1,-.1,1.3c0,.1,0,.3,0,.4c0,.1,-.1,.2,-.2,.2c-.2,.1,-.7,-.3,-1,-.6c-.1,-.1,-.3,-.4,-.5,-.5l-.2,-.3l-.1,.2c-.1,.3,0,.7,.1,1.1c.3,.8,.4,2.4,.2,3c-.1,.1,-.2,.4,-.4,.5c-.4,.3,-.3,.5,.4,1.4l.4,.5l.1,-.2c.1,-.2,.2,-.6,.3,-1c.1,-.3,.2,-.8,.3,-1c.1,-.2,.2,-.6,.3,-.8q.1,-.5,2.3,-5.3c1,-2,1,-2.1,1.9,-3.3c.7,-1.1,1.3,-2.1,1.9,-3.1c.8,-1.3,.9,-1.5,1.4,-2.1c.3,-.3,.7,-.8,.9,-1c.9,-1.2,1.1,-1.5,1.3,-1.4c.1,0,.2,.1,.2,.1c0,.1,-.2,.5,-.5,.9c-.3,.4,-.8,1.1,-1,1.5c-.9,1.5,-2.1,3.4,-2.5,4c-.2,.3,-.5,.7,-.6,1c-.1,.2,-.4,.5,-.5,.8c-.2,.3,-.3,.6,-.4,.7c0,.4,-.1,.8,-1.1,2.6c-.8,1.5,-1,2,-1.7,3.7c-.5,1,-.8,2.2,-.7,2.3l-.3,3.3c-.3,0,-.5,1.8,-.2,2.9c.1,.8,.1,1.1,-.2,1.3c-.6,.4,-1.1,1.1,-1.3,1.6c-.1,.4,-.2,.6,-.4,.6q-.2,0,-.3,-.2Z" class="g2_71"/>
<path d="M133.1,338.2c-.1,0,-.3,-.1,-.4,-.1c-.1,0,-.1,.1,0,.2c.1,0,.3,.1,.4,0q.2,0,0,-.1Z" class="g1_71"/>
<path d="M144.5,319.2c0,-.1,0,-.2,-.1,-.1q-.1,0,-.2,.1q0,.1,.1,.1c.1,0,.2,-.1,.2,-.1Z" class="g1_71"/>
<path d="M125.7,351.8c-.1,-.1,-.1,-.2,-.1,-.3c.1,-.1,.1,-.9,.1,-1.7c0,-1.4,.1,-2.2,.4,-3.5l.1,-.6l-.5,-1c-.3,-.5,-.5,-1.3,-.6,-1.6c-.1,-.4,-.3,-.8,-.3,-1c-.2,-.7,-.3,-2.8,-.3,-3.9c.1,-1.1,.5,-2.6,.7,-2.6c.1,0,.2,.1,.4,.6c.5,.7,.7,.7,.3,-.1c-.4,-.8,-.7,-1.9,-.7,-2.5c0,-.4,.5,-1.9,.9,-2.7c.2,-.4,.3,-.5,.5,-.5c.3,-.1,.3,0,.9,.9l.5,.7l-.4,-.8c-.5,-1.1,-.4,-1.7,.3,-2.9c.3,-.5,.6,-1,.7,-1.1c.1,-.1,.4,-.4,.6,-.7c.3,-.3,.8,-.7,1.2,-1c.3,-.2,.7,-.6,.9,-.8c.4,-.5,.6,-.4,1,.2l.2,.3l-.1,-.4c-.1,-.8,0,-1,.8,-1.7c.5,-.3,.9,-.5,1,-.5c0,0,.1,-.1,.1,-.1c0,-.1,.1,-.1,.3,-.1c.2,-.1,.2,0,.2,.1c-.1,0,-.1,.1,-.2,.1c-.1,0,-.4,.3,-.7,.6c-.4,.3,-.8,.6,-.9,.6c-.3,.2,-.3,.3,-.3,.7c0,.3,.1,.7,.2,.9c.1,.4,.1,.9,0,1c-.2,0,-.4,-.3,-.7,-.9l-.3,-.7l-.4,.3c-.1,.1,-.3,.3,-.3,.3c-.1,.1,-.3,.3,-.6,.5c-.3,.2,-.6,.5,-.7,.6c-.1,.1,-.3,.3,-.6,.6c-.6,.6,-1.6,2.2,-1.5,2.5c.1,.3,1,2.2,1.7,3.5c.5,.9,.6,1,.4,1c-.2,0,-1.2,-.8,-1.6,-1.4c-.3,-.3,-.6,-.7,-.8,-.9c-.1,-.2,-.3,-.5,-.4,-.6c-.2,-.4,-.4,-.4,-.6,0c-.3,.4,-.8,2.1,-.9,2.4c-.1,.8,.6,2.7,1.5,3.8c.7,1,.7,1.3,-.1,.8c-.3,-.2,-1.3,-1.2,-1.5,-1.6c0,-.1,-.1,-.2,-.1,-.1c-.2,0,-.4,1,-.4,1.7c0,.3,0,.7,-.1,.8c0,.2,0,.7,.1,1.4c.1,.5,.1,1.2,.1,1.5c.1,.6,1,3,1.1,3c.1,0,.1,-.1,.1,-.1c0,0,.1,-.5,.3,-1.1c.2,-.6,.3,-1.3,.4,-1.5c0,-.2,.1,-.4,.1,-.5c.1,-.1,.2,-.4,.3,-.7c.1,-.5,.2,-.8,1.1,-2.6c.3,-.6,.7,-1.5,.9,-2c.8,-1.6,1.6,-3.2,2.2,-4.2c.7,-1,1.1,-1.6,1.9,-2.9c.2,-.4,.6,-.9,.7,-1.1c.2,-.2,.3,-.5,.3,-.5c.1,-.1,.3,-.4,.6,-.7c.2,-.3,.6,-.8,.8,-1.1c.9,-1.2,1.1,-1.3,1.2,-1.2c.2,.1,.2,.2,-.6,1.1c-.2,.3,-.6,.9,-.8,1.3c-.8,1.3,-2.1,3.4,-2.4,3.8c-.6,.9,-1.5,2.5,-1.5,2.8c0,.1,-.5,1.3,-1.2,2.6c-.7,1.3,-1.3,2.7,-1.5,3.1c-.1,.4,-.3,.7,-.3,.8c-.1,.1,-.5,1.2,-.6,1.8c0,.2,-.1,.7,-.1,.9c-.2,.8,-.3,2,-.3,2.1c0,0,.1,0,.3,-.1c.1,-.1,.3,-.3,.6,-.5c.2,-.2,.5,-.5,.8,-.7c.2,-.2,.4,-.4,.5,-.5c.6,-.6,.9,-.9,1.2,-1.4c.3,-.4,.6,-.7,.7,-.9c.3,-.2,1.2,-2,1.2,-2.1c-.1,0,-.4,-.2,-.9,-.5c-.9,-.4,-1,-.6,-.8,-.7c.1,0,1,.1,1.8,.3c.2,0,.7,0,1,0c.9,0,1.4,-.4,1.6,-1c.1,-.3,.2,-.6,.2,-.8c.1,-.3,.3,-1,.3,-1.5c.1,-.5,.4,-1.3,.6,-1.6l.2,-.4l-.5,.1c-.5,0,-1.6,-.2,-1.7,-.4c-.1,-.2,.7,-.6,1.6,-.8l.8,-.1l.2,-.6c.2,-.3,.3,-.7,.4,-.9c0,-.1,.1,-.4,.2,-.4c.1,-.1,.3,-.4,.4,-.6c0,-.3,.3,-.7,.4,-.9c1.4,-2,1.6,-2.3,1.5,-2.3c-.1,0,-.4,.1,-.6,.2c-.7,.3,-1.5,.3,-1.5,0c0,-.3,1.8,-1.3,2.7,-1.6c.4,0,.4,-.1,.4,-.5c0,-.3,.2,-.6,.3,-.8c.1,-.2,.3,-.5,.4,-.7c.3,-.5,2.2,-2.1,3.2,-2.8c.7,-.4,1.8,-1,2.7,-1.3l.7,-.3l-1.6,.2c-2.6,.3,-3.7,.7,-4.4,1.4c-.3,.4,-.4,.4,-.5,.2c-.1,-.2,.6,-1,1.2,-1.2c.6,-.3,1.7,-.5,2.4,-.6c.4,0,1.5,-.2,2.5,-.4c1.5,-.2,1.8,-.3,1.9,-.2c.4,.2,.3,.4,-.2,.6c-1.1,.4,-2.2,.9,-2.9,1.2c-.7,.4,-2,1.1,-2.2,1.3c-.1,0,-.3,.2,-.6,.4c-.9,.8,-1.6,1.5,-1.8,1.8c-.1,.2,-.3,.5,-.4,.6c-.1,.2,-.3,.5,-.3,.7c0,.3,-.1,.5,-.4,.7c-.2,.1,-.5,.2,-.6,.2l-.2,.1h.2c.4,.1,.5,.3,.3,.5c0,.1,-.1,.2,-.1,.3c.1,.1,-.1,.3,-.4,.6c-.2,.3,-.5,.6,-.6,.8c-.1,.2,-.3,.5,-.4,.7c-.4,.5,-.6,.9,-.7,1.2c0,.1,-.2,.4,-.4,.7c-.3,.5,-.4,.9,-.7,1.7c-.1,.3,-.2,.3,-.7,.4c-.7,.1,-1.5,.4,-1.4,.5c0,0,.4,0,.9,-.1c.8,-.1,.9,-.1,1,.1c.1,.1,.1,.3,-.2,.6c-.3,.6,-.7,1.7,-.7,2.2c0,.3,-.3,1.3,-.6,2.1c-.1,.3,-.2,.5,-.6,.8c-.5,.3,-.6,.3,-1.2,.3c-.4,0,-.9,0,-1,-.1c-.2,-.1,-.5,-.1,-.8,-.2h-.6l.5,.2c.3,.1,.6,.2,.7,.2c.5,0,.5,.1,.6,.2c.1,.1,-.9,2,-1.3,2.5c-.2,.2,-.5,.6,-.7,.8c-.1,.2,-.3,.5,-.4,.6c-.2,.1,-.4,.3,-.6,.5c-.4,.5,-1.3,1.4,-1.7,1.6c-.1,.1,-.4,.3,-.5,.5c-.1,.1,-.3,.2,-.5,.3c-.2,.1,-.3,.2,-.3,.4c-.1,.5,-.1,1.9,-.1,2.1c0,.1,.1,.5,.1,.8c.1,.6,.1,.7,-.2,.9c-.4,.4,-1,1.2,-1.3,1.7c-.1,.3,-.2,.6,-.2,.6c-.1,0,-.2,-.1,-.3,-.1Z" class="g3_71"/>
<path d="M128.2,331.4q-.1,-.2,-.1,-.1c-.1,.2,0,.4,.1,.4c.1,-.1,.1,-.2,0,-.3Z" class="g3_71"/>
<path d="M139.7,325.6c.2,-.2,.5,-.3,.7,-.5l.2,-.2l-.3,.1c-.5,.1,-1.4,.6,-1.4,.7c0,.1,.3,.1,.8,-.1Z" class="g4_71"/>
<path d="M139.7,325.5c.4,-.2,.6,-.4,.2,-.3c-.3,.1,-.9,.5,-.7,.5c0,0,.3,-.1,.5,-.2Z" class="g1_71"/>
<path d="M134.9,322.3c0,-.1,.6,-.5,.7,-.5c.2,.1,.2,.2,-.1,.3c-.1,0,-.3,.1,-.4,.2q-.1,0,-.2,0Z" class="g3_71"/>
<path d="M136.2,321.5c.1,-.1,.2,-.2,.3,-.2q.2,0,.1,.2c-.1,.1,-.2,.2,-.3,.2q-.2,0,-.1,-.2Z" class="g3_71"/>
<path d="M137.1,321c.1,-.1,.6,-.3,.7,-.2c0,.1,-.5,.4,-.7,.4q-.1,0,0,-.2Z" class="g3_71"/>
<path d="M137.9,320.7c0,-.1,.8,-.5,1.3,-.7c.3,0,.6,-.1,.7,-.2c.4,-.3,1.9,-.9,2.1,-.8c.2,.1,.1,.4,-.2,.4c-.5,0,-1.7,.5,-3,1.1c-.6,.3,-.8,.3,-.9,.2Z" class="g3_71"/>
<path d="M125.7,351.7c0,0,0,-.1,0,-.2c0,-.1,.1,-.6,.1,-1.2c0,-1.4,0,-1.9,.3,-4.1l.1,-.6l-.5,-1c-.3,-.7,-.5,-1.2,-.6,-1.6c-.1,-.3,-.2,-.8,-.2,-.9c-.3,-1.1,-.4,-4.2,-.1,-5.2c.1,-.4,.2,-.8,.2,-1c.1,-.4,.2,-.3,.7,.4c.6,1,.9,.9,.3,-.1c-.4,-.7,-.8,-2,-.8,-2.6c0,-.4,.6,-1.9,1,-2.7c.1,-.3,.2,-.4,.4,-.5c.2,0,.3,.1,.5,.4c.5,.6,.6,.9,.5,.9c-.1,0,-.3,-.2,-.4,-.5c-.4,-.7,-.6,-.6,-1.2,.9c-.7,1.8,-.6,2.4,.7,4.7c.5,.9,.8,1.5,.7,1.5c-.2,.1,-1.4,-1,-1.7,-1.6c-.1,-.1,-.2,-.2,-.3,-.3c-.1,-.1,-.1,0,-.2,.1c-.3,.9,-.4,2.6,-.2,4.1c0,.5,.1,1.1,.1,1.3c0,.6,1,3.2,1.2,3.1c.1,0,.1,-.1,.1,-.2c0,-.2,.1,-.7,.3,-1.3c.2,-.6,.3,-1.2,.4,-1.4c0,-.1,0,-.3,.1,-.3c.1,0,.4,-1.1,.4,-1.2c0,0,.1,-.3,.2,-.6c.9,-1.9,1.3,-2.8,1.6,-3.5c.8,-1.6,1.6,-3.2,2.3,-4.2c.7,-1.2,1.3,-2.1,1.9,-3.1c.2,-.3,.5,-.8,.7,-1c.1,-.2,.3,-.4,.3,-.5c0,-.1,.6,-.7,.9,-1.1c.1,-.1,.3,-.3,.5,-.6c.6,-.9,1,-1.3,1.1,-1.3c.1,.1,.1,0,-.6,.9c-.2,.4,-.7,1.1,-.9,1.5c-.8,1.4,-2,3.3,-2.3,3.7c-.6,.7,-1.6,2.6,-1.6,2.9c0,.1,-.5,1.3,-1.2,2.6c-.6,1.2,-1.3,2.6,-1.4,3c-.2,.4,-.4,1,-.6,1.3c-.2,.7,-.4,1.5,-.4,1.9c0,.1,-.1,.4,-.1,.6c-.1,.3,-.2,.8,-.2,1.2c-.1,.6,-.1,.7,.1,.7c.1,.1,.2,0,.2,-.1c.1,0,.3,-.3,.6,-.5c.3,-.2,.5,-.4,.6,-.5c0,-.1,.3,-.3,.5,-.5c.7,-.6,1.1,-1,1.5,-1.6c.3,-.4,.6,-.7,.7,-.8c.2,-.3,1.1,-1.9,1.1,-2.1c0,-.1,-.1,-.2,-.6,-.5c-.7,-.3,-.6,-.4,.1,-.1c.3,.1,.6,.2,.7,.2c.4,-.1,.3,.2,-.2,1.3c-.3,.6,-.7,1.2,-.9,1.4c-.1,.1,-.4,.5,-.6,.7c-.2,.3,-.4,.6,-.5,.7c-.1,.1,-.3,.3,-.5,.4c-.1,.2,-.4,.5,-.6,.7c-.2,.2,-.5,.4,-.6,.6c-.1,.1,-.3,.2,-.3,.2c-.1,0,-.3,.2,-.5,.4c-.2,.2,-.5,.4,-.7,.4c-.2,.1,-.3,.3,-.3,.7c-.1,.4,-.1,.7,-.1,.7c0,.1,0,.3,0,.6c0,.3,.1,.7,.1,.9c.2,.9,.1,1.2,-.1,1.4c-.4,.2,-1.1,1.2,-1.3,1.7c-.2,.5,-.3,.6,-.5,.4Z" class="g5_71"/>
<path d="M134,338.2c-.4,0,-.8,-.1,-1,-.1c-.2,-.1,-.4,-.1,-.5,-.1c-.1,0,-.3,0,-.4,-.1c-.1,-.1,-.3,-.1,-.4,0c-.1,0,-.2,0,-.3,-.1c-.1,-.2,.3,-.2,1.8,.1c1.4,.3,2.5,-.1,2.7,-1c0,-.2,.1,-.6,.2,-.8c.1,-.2,.2,-.6,.2,-.8c.1,-.3,.1,-.8,.3,-1.6c.1,-.2,.2,-.6,.4,-.7c.1,-.2,.2,-.4,.1,-.4c0,0,-.2,0,-.4,0c-.4,.1,-1.6,-.1,-1.7,-.3c-.1,-.2,.8,-.6,2,-.8c.3,0,.4,-.1,.6,-.7c.6,-1.5,1.6,-3.2,2.9,-4.9c.1,-.2,.1,-.3,0,-.3c0,0,-.3,0,-.7,.2c-.6,.2,-1.3,.3,-1.4,.1c0,0,0,-.1,.1,-.2q.2,0,.2,.1c.1,.1,.1,.2,.1,.2c.3,-.1,1.3,-.5,1.6,-.7c.3,-.3,.6,-.4,.6,-.2c.1,.1,-.1,.8,-.2,1c-.2,.1,-.5,.5,-.7,.9c-.1,.1,-.4,.4,-.6,.7c-.3,.6,-.5,.9,-.6,1.3c-.1,.1,-.3,.4,-.4,.7c-.3,.5,-.6,1.1,-.8,1.7c-.1,.2,-.2,.2,-.7,.3c-.8,.2,-1.6,.5,-1.4,.6c0,.1,.4,.1,1,0c.8,-.1,.9,-.1,1,0c0,.1,-.1,.4,-.3,.6c-.3,.6,-.6,1.6,-.7,2.1c0,.3,-.1,.7,-.2,1c-.1,.3,-.2,.7,-.2,.8c-.1,.6,-.4,.9,-.8,1.1c-.6,.4,-.7,.4,-1.4,.3Z" class="g5_71"/>
<path d="M129.6,333.9c-.2,-.1,-.4,-.3,-.5,-.4c-.3,-.2,-1,-1,-1,-1.1c0,0,.1,-.1,.1,-.1c.1,0,.5,.4,.6,.6c.1,.1,.2,.1,.2,.1c.1,0,.1,-.1,-.1,-.3c-.1,-.2,-.3,-.5,-.4,-.8c-.1,-.2,-.4,-.8,-.6,-1.3c-.3,-.5,-.5,-1,-.5,-1.1c0,-.1,.2,-.6,.5,-1.1c.6,-1,1.6,-2.2,2.5,-2.8c.4,-.3,.8,-.6,.9,-.8c.4,-.5,.6,-.5,.9,.2c.2,.6,.3,.6,.4,.5c.1,0,.2,0,.2,0c0,0,.1,.2,.1,.4c.1,.6,-.1,.4,-.6,-.4c-.4,-.7,-.5,-.8,-.7,-.5c-.1,.1,-.7,.6,-1.1,.9c-.7,.4,-1.8,1.8,-2.5,2.9l-.4,.7l.7,1.4c.7,1.4,1.1,2.2,1.5,2.7c.2,.4,.2,.6,-.2,.3Z" class="g5_71"/>
<path d="M128.1,331.9c-.1,-.1,0,-.1,0,-.1c.1,-.1,.1,0,.2,.1c0,.1,0,.2,0,.2c-.1,0,-.2,-.1,-.2,-.2Z" class="g5_71"/>
<path d="M127.6,330.9c-.3,-.6,-.2,-.8,0,-.4c.2,.2,.4,.8,.3,.9c-.1,0,-.2,-.1,-.3,-.5Z" class="g5_71"/>
<path d="M140.1,324.8c.5,-.3,1.1,-.5,1.2,-.4c.1,.2,-.1,.3,-.8,.4c-.8,.3,-.9,.3,-.4,0Z" class="g5_71"/>
<path d="M141.5,324.3c0,0,0,-.2,0,-.4c0,-.5,.7,-1.7,1.3,-2.3c1.7,-1.6,3.9,-3,5.7,-3.5c.6,-.2,.6,-.4,-.1,-.2c-.3,0,-1.3,.2,-2.2,.3c-1,.1,-1.9,.3,-2.1,.4c-.4,.1,-1.2,.6,-1.5,.9c-.2,.3,-.3,.3,-.4,.2c-.1,-.2,.9,-1,1.4,-1.2c1.1,-.4,1.4,-.4,2.1,-.5c.4,0,1.6,-.2,2.6,-.4c1.8,-.3,2,-.3,2.1,0c0,0,-.3,.2,-.7,.3c-2.5,1,-4.4,2,-5.3,2.8c-.2,.2,-.4,.4,-.4,.4c-.1,0,-.2,0,-.3,.1c-.1,.1,-.3,.4,-.6,.6c-.2,.2,-.5,.6,-.6,.8c-.1,.1,-.3,.4,-.5,.5c-.1,.2,-.2,.5,-.3,.7c0,.4,-.1,.6,-.2,.5Z" class="g5_71"/>
<path d="M132.6,324.8c-.1,-.2,-.2,-.7,-.1,-1c0,0,.3,-.3,.6,-.5c.3,-.2,.7,-.4,.8,-.5l.2,-.2l-.1,.2c-.2,.3,-1,1,-1.2,1.1c-.1,0,-.2,.2,-.2,.4c0,.1,0,.3,0,.5c0,.1,0,.2,0,0Z" class="g5_71"/>
<path d="M141.5,319.2c.2,-.2,.5,-.2,.5,-.1c0,.1,-.1,.2,-.3,.2q-.4,0,-.2,-.1Z" class="g5_71"/>
<path d="M125.7,351.7c0,0,0,-.1,0,-.2c0,-.1,.1,-.6,.1,-1.2c0,-1.3,0,-1.8,.4,-4.2q0,-.5,-.5,-1.5c-.3,-.7,-.5,-1.2,-.6,-1.6c-.1,-.3,-.2,-.8,-.2,-.9c-.3,-1.1,-.4,-4.2,-.1,-5.2c.1,-.4,.2,-.8,.2,-1c.1,-.4,.2,-.3,.7,.4c.6,1,.9,.9,.3,-.1c-.4,-.7,-.8,-2,-.8,-2.6c0,-.4,.6,-1.9,1,-2.7c.1,-.3,.2,-.4,.4,-.5c.2,0,.3,.1,.5,.4c.5,.6,.6,.9,.5,.9c-.1,0,-.3,-.2,-.4,-.5c-.4,-.7,-.6,-.6,-1.2,.9c-.7,1.8,-.6,2.4,.7,4.7c.5,.9,.8,1.5,.7,1.5c-.2,.1,-1.4,-1,-1.7,-1.6c-.1,-.1,-.2,-.2,-.3,-.3c-.1,-.1,-.1,0,-.2,.1c-.3,.9,-.4,2.6,-.2,4.1c0,.5,.1,1.1,.1,1.3c0,.6,1,3.2,1.2,3.1c.1,0,.1,-.1,.1,-.2c0,-.2,.1,-.7,.3,-1.3c.2,-.6,.3,-1.2,.4,-1.4c0,-.1,0,-.3,.1,-.3c.1,0,.4,-1.1,.4,-1.2c0,0,.1,-.3,.2,-.6c.9,-1.9,1.3,-2.8,1.6,-3.5c.8,-1.6,1.6,-3.2,2.3,-4.2c.7,-1.2,1.3,-2.1,1.9,-3.1c.2,-.3,.5,-.8,.7,-1c.1,-.2,.3,-.4,.3,-.5c0,-.1,.6,-.7,.9,-1.1c.1,-.1,.3,-.3,.5,-.6c.6,-.9,1,-1.3,1.1,-1.3c.1,.1,.1,0,-.7,1.1c-1.5,2,-2.3,3.2,-3.6,5.4c-.3,.4,-.7,1.1,-1,1.5c-.4,.6,-.5,.8,-.4,.9c.4,0,.3,.4,-.8,2.6c-.7,1.3,-1.4,2.7,-1.5,3.1c-.2,.4,-.4,1,-.6,1.3c-.2,.7,-.4,1.5,-.4,1.9c0,.1,-.1,.4,-.1,.6c-.1,.3,-.2,.8,-.2,1.2c-.1,.6,-.1,.7,.1,.7c.1,.1,.2,0,.2,-.1c.1,0,.3,-.3,.6,-.5c.3,-.2,.5,-.4,.6,-.5c0,-.1,.3,-.3,.5,-.5c.7,-.6,1.1,-1,1.5,-1.6c.3,-.4,.6,-.7,.7,-.8c.2,-.3,1.1,-1.9,1.1,-2.1c0,-.1,-.1,-.2,-.6,-.5c-.7,-.3,-.6,-.4,.1,-.1c.3,.1,.6,.2,.7,.2c.4,-.1,.3,.2,-.2,1.3c-.3,.6,-.7,1.2,-.9,1.4c-.1,.1,-.4,.5,-.6,.7c-.2,.3,-.4,.6,-.5,.7c-.1,.1,-.3,.3,-.5,.4c-.1,.2,-.4,.5,-.6,.7c-.2,.2,-.5,.4,-.6,.6c-.1,.1,-.3,.2,-.3,.2c-.1,0,-.3,.2,-.5,.4c-.2,.2,-.5,.4,-.7,.4c-.2,.1,-.3,.3,-.3,.7c-.1,.4,-.1,.7,-.1,.7c0,.1,0,.3,0,.6c0,.3,.1,.7,.1,.9c.2,.9,.1,1.2,-.1,1.4c-.4,.2,-1.1,1.2,-1.3,1.7c-.2,.5,-.3,.6,-.5,.4Z" class="g6_71"/>
<path d="M134,338.2c-.4,0,-.8,-.1,-1,-.1c-.2,-.1,-.4,-.1,-.5,-.1c-.1,0,-.3,0,-.4,-.1c-.1,-.1,-.3,-.1,-.4,0c-.1,0,-.2,0,-.3,-.1c-.1,-.2,.3,-.2,1.8,.1c1.4,.3,2.5,-.1,2.7,-1c0,-.2,.1,-.6,.2,-.8c.1,-.2,.2,-.6,.2,-.8c.1,-.3,.1,-.8,.3,-1.6c.1,-.2,.2,-.6,.4,-.7c.1,-.2,.2,-.4,.1,-.4c0,0,-.2,0,-.4,0c-.4,.1,-1.6,-.1,-1.7,-.3c-.1,-.2,.8,-.6,2,-.8c.3,0,.4,-.1,.6,-.7c.6,-1.5,1.6,-3.2,2.9,-4.9c.1,-.2,.1,-.3,0,-.3c0,0,-.3,0,-.7,.2c-.6,.2,-1.3,.3,-1.4,.1c0,0,0,-.1,.1,-.2q.2,0,.2,.1c.1,.1,.1,.2,.1,.2c.3,-.1,1.3,-.5,1.6,-.7c.3,-.3,.6,-.4,.6,-.2c.1,.1,-.1,.8,-.2,1c-.2,.1,-.5,.5,-.7,.9c-.1,.1,-.4,.4,-.6,.7c-.3,.6,-.5,.9,-.6,1.3c-.1,.1,-.3,.4,-.4,.7c-.3,.5,-.6,1.1,-.8,1.7c-.1,.2,-.2,.2,-.7,.3c-.8,.2,-1.6,.5,-1.4,.6c0,.1,.4,.1,1,0c.8,-.1,.9,-.1,1,0c0,.1,-.1,.4,-.3,.6c-.3,.6,-.6,1.6,-.7,2.1c0,.3,-.1,.7,-.2,1c-.1,.3,-.2,.7,-.2,.8c-.1,.6,-.4,.9,-.8,1.1c-.6,.4,-.7,.4,-1.4,.3Z" class="g6_71"/>
<path d="M129.6,333.9c-.2,-.1,-.4,-.3,-.5,-.4c-.3,-.2,-1,-1,-1,-1.1c0,0,.1,-.1,.1,-.1c.1,0,.5,.4,.6,.6c.1,.1,.2,.1,.2,.1c.1,0,.1,-.1,-.1,-.3c-.1,-.2,-.3,-.5,-.4,-.8c-.1,-.2,-.4,-.8,-.6,-1.3c-.3,-.5,-.5,-1,-.5,-1.1c0,-.1,.2,-.6,.5,-1.1c.6,-1,1.6,-2.2,2.5,-2.8c.4,-.3,.8,-.6,.9,-.8c.4,-.5,.6,-.5,.9,.2c.2,.6,.3,.6,.4,.5c.1,0,.2,0,.2,0c0,0,.1,.2,.1,.4c.1,.6,-.1,.4,-.6,-.4c-.4,-.7,-.5,-.8,-.7,-.5c-.1,.1,-.7,.6,-1.1,.9c-.7,.4,-1.8,1.8,-2.5,2.9l-.4,.7l.7,1.4c.7,1.4,1.1,2.2,1.5,2.7c.2,.4,.2,.6,-.2,.3Z" class="g6_71"/>
<path d="M128.1,331.9c-.1,-.1,0,-.1,0,-.1c.1,-.1,.1,0,.2,.1c0,.1,0,.2,0,.2c-.1,0,-.2,-.1,-.2,-.2Z" class="g6_71"/>
<path d="M127.6,330.9c-.3,-.6,-.2,-.8,0,-.4c.2,.2,.4,.8,.3,.9c-.1,0,-.2,-.1,-.3,-.5Z" class="g6_71"/>
<path d="M140.1,324.8c.5,-.3,1.1,-.5,1.2,-.4c.1,.2,-.1,.3,-.8,.4c-.8,.3,-.9,.3,-.4,0Z" class="g6_71"/>
<path d="M141.5,324.3c0,0,0,-.2,0,-.4c0,-.5,.7,-1.7,1.3,-2.3c1.7,-1.6,3.9,-3,5.7,-3.5c.6,-.2,.6,-.4,-.1,-.2c-.3,0,-1.3,.2,-2.2,.3c-1,.1,-1.9,.3,-2.1,.4c-.4,.1,-1.2,.6,-1.5,.9c-.2,.3,-.3,.3,-.4,.2c-.1,-.2,.9,-1,1.4,-1.2c1.1,-.4,1.4,-.4,2.1,-.5c.4,0,1.6,-.2,2.6,-.4c1.8,-.3,2,-.3,2.1,0c0,0,-.3,.2,-.7,.3c-2.5,1,-4.4,2,-5.3,2.8c-.2,.2,-.4,.4,-.4,.4c-.1,0,-.2,0,-.3,.1c-.1,.1,-.3,.4,-.6,.6c-.2,.2,-.5,.6,-.6,.8c-.1,.1,-.3,.4,-.5,.5c-.1,.2,-.2,.5,-.3,.7c0,.4,-.1,.6,-.2,.5Z" class="g6_71"/>
<path d="M132.6,324.8c-.1,-.2,-.2,-.7,-.1,-1c0,0,.3,-.3,.6,-.5c.3,-.2,.7,-.4,.8,-.5l.2,-.2l-.1,.2c-.2,.3,-1,1,-1.2,1.1c-.1,0,-.2,.2,-.2,.4c0,.1,0,.3,0,.5c0,.1,0,.2,0,0Z" class="g6_71"/>
<path d="M141.5,319.2c.2,-.2,.5,-.2,.5,-.1c0,.1,-.1,.2,-.3,.2q-.4,0,-.2,-.1Z" class="g6_71"/>
<path d="M127.2,349.4c.1,-.1,.1,-.3,.1,-.6c-.1,-.2,-.1,-.8,-.1,-1.4c0,-.5,0,-1,0,-1c0,-.1,0,-.2,0,-.3c0,-.2,.1,-.5,.1,-.8c.1,-1.3,.1,-1.6,.5,-3.1c0,-.2,.1,-.6,.1,-.8c.2,-.9,1.2,-3.1,2.4,-5.4c.6,-1.3,.9,-2,.9,-2.1c0,0,-.3,.4,-.6,1c-.3,.6,-.7,1.4,-.9,1.8c-.9,1.8,-1.9,4,-2,4.5c0,.2,-.2,.6,-.3,.9c0,.2,-.1,.4,-.1,.5c.1,.1,-.3,1.3,-.5,1.8c0,.2,-.1,.6,-.1,.8c-.1,.3,-.2,.7,-.2,1c-.3,1,-.5,2.6,-.3,2.9c0,.1,.2,.2,.4,.2c.4,.2,.3,.2,.6,.1Z" class="g5_71"/>
<path d="M124.9,342.1c-.1,-.2,-.3,-2,-.3,-3.2c0,-.8,.1,-1.6,.2,-2.2c.1,-.3,.2,-.7,.2,-.8c.1,-.4,.3,-.3,.6,.2c.1,.3,.4,.7,.6,.9l.3,.4l-.1,-.4c-.1,-.2,-.4,-.7,-.5,-1.1c-.4,-.9,-.7,-2.2,-.6,-2.7c.1,-.4,.6,-1.6,.9,-2.3c.2,-.5,.6,-.6,.8,-.3q0,.1,-.2,.2c-.2,0,-.3,.1,-.5,.4c-.6,1.3,-.8,2.4,-.8,3c.1,.2,.3,.9,.5,1.4c.3,.9,.5,1.2,1,1.8c.3,.4,.5,.8,.5,.9c0,.1,-.6,-.2,-.9,-.5c-.1,-.1,-.3,-.3,-.4,-.5c-.1,-.1,-.4,-.4,-.6,-.7l-.3,-.4l-.1,.2c-.4,.9,-.5,2.5,-.3,4.4c.1,1.2,.1,1.6,0,1.3Z" class="g7_71"/>
<path d="M133.7,338.2c-.2,0,-.4,-.1,-.6,-.1c-.2,-.1,-.4,-.1,-.5,-.1c-.2,0,-.8,-.2,-.8,-.3c0,0,.5,.1,1,.2c1.3,.2,2,.1,2.5,-.2c.4,-.3,.5,-.5,.8,-1.3c.2,-1,.3,-1.1,.3,-1.6c.1,-.6,.2,-1,.6,-1.7c.1,-.3,.2,-.5,.2,-.6c0,0,-.2,0,-.5,.1c-.3,.1,-.5,.1,-1.1,-.1l-.6,-.1l.1,-.2c.2,-.2,.8,-.5,1.6,-.6l.7,-.1l.3,-.7c.5,-1.4,1.6,-3.2,2.4,-4.4c.3,-.4,.5,-.8,.4,-.8q0,-.2,-.7,.1q-.7,.4,-.7,.3c0,-.1,.2,-.2,.3,-.2c.2,0,.5,-.3,.8,-.5c.4,-.2,.7,-.3,.8,-.2c.2,.1,-.1,.7,-.5,1.2c-.7,.8,-2,3,-2.6,4.5c-.1,.3,-.2,.6,-.3,.7c0,0,-.2,.1,-.3,.2c-.8,.1,-1,.1,-1.4,.3q-.5,.2,-.3,.3c0,.1,.3,.1,1,0c.7,-.1,.9,-.1,.9,0c.1,.1,-.1,.4,-.3,.8c-.4,.8,-.6,1.4,-.6,2c0,.2,-.1,.6,-.2,1c-.2,.4,-.2,.7,-.2,.7c0,.1,-.1,.3,-.2,.5c-.3,.7,-1.2,1,-2.3,.9Z" class="g7_71"/>
<path d="M131.5,337.8c0,0,0,-.1,.1,-.1c0,0,.1,0,.1,.1h-.1q0,.1,-.1,0Z" class="g7_71"/>
<path d="M129.3,333.7c-.6,-.5,-1.3,-1.4,-.9,-1.2c.1,.1,.3,.2,.3,.3c.1,.2,.4,.3,.5,.3c0,-.1,.5,.4,.6,.7c.1,.1,.1,.3,.1,.3c0,0,-.3,-.2,-.6,-.4Z" class="g7_71"/>
<path d="M128.8,332.5c0,0,-.2,-.2,-.2,-.5c-.1,-.2,-.4,-.8,-.6,-1.3c-.3,-.5,-.5,-1,-.6,-1.1c0,-.2,.8,-1.9,1.2,-2.3c.1,-.1,.4,-.4,.7,-.7c.3,-.3,.6,-.6,.8,-.8c.6,-.4,.9,-.7,1.3,-1c.2,-.2,.4,-.4,.4,-.3c.3,0,.3,.2,.1,.2c-.1,.1,-.4,.3,-.7,.6c-.4,.3,-.7,.5,-.7,.5c-.2,0,-.4,.2,-.9,.9c-.3,.3,-.5,.5,-.6,.5c0,0,-.9,1.4,-1.2,1.8c-.2,.5,-.2,.6,.4,1.8c.8,1.6,.9,2,.6,1.7Z" class="g7_71"/>
<path d="M127.2,331.3c-.1,-.2,-.1,-.3,0,-.3c.1,0,.2,.2,.3,.3c0,.1,0,.2,0,.3c-.1,0,-.2,-.2,-.3,-.3Z" class="g7_71"/>
<path d="M127.6,331c0,-.1,-.1,-.3,-.2,-.4c0,-.1,0,-.2,0,-.2c.1,0,.5,.5,.5,.7c0,.3,-.2,.2,-.3,-.1Z" class="g7_71"/>
<path d="M138.4,325.9c0,0,.1,-.1,.2,-.1c0,0,.1,0,.2,.1c0,0,-.1,.1,-.2,.1c-.1,0,-.2,0,-.2,-.1Z" class="g7_71"/>
<path d="M132.5,325.9c-.1,-.3,.1,-.4,.3,-.1c.1,.2,.1,.4,0,.4c-.1,0,-.2,-.1,-.3,-.3Z" class="g7_71"/>
<path d="M140.3,324.8c-.1,-.1,.8,-.4,.9,-.3c.1,0,.1,.1,0,.1c-.3,.1,-.9,.2,-.9,.2Z" class="g7_71"/>
<path d="M132.2,325.3c-.1,0,-.1,-.1,-.1,-.2c.1,-.1,.1,0,.2,.1c0,.1,0,.2,0,.2q-.1,0,-.1,-.1Z" class="g7_71"/>
<path d="M141.6,324.2c-.1,-.2,0,-.9,.2,-1.1c.1,-.2,.3,-.5,.4,-.7c.2,-.3,.4,-.5,.5,-.6c.1,-.1,.3,-.2,.4,-.4c.4,-.4,2,-1.7,2.8,-2.1c.8,-.4,1.9,-.9,2.8,-1.3c.6,-.2,.6,-.4,0,-.2c-.3,0,-1.3,.2,-2.2,.3c-1.7,.2,-2,.3,-2.4,.4c-.4,.2,-1.2,.7,-1.5,1c-.1,.1,-.2,.2,-.3,.2c-.2,-.1,.8,-1,1.2,-1.2c.7,-.2,1.8,-.5,2.4,-.5c.4,-.1,1.5,-.2,2.4,-.4c.9,-.1,1.7,-.3,1.8,-.2c.3,0,.3,.2,0,.4c-1.4,.5,-2.5,.9,-3.3,1.4c-.8,.4,-1.7,.9,-2,1.1c0,0,-.2,.2,-.4,.4c-1,.8,-1.8,1.6,-2,1.9c-.1,.2,-.2,.3,-.3,.3c-.1,0,-.4,.7,-.4,1.1c0,.2,-.1,.3,-.1,.2Z" class="g7_71"/>
<path d="M132.6,323.8c-.1,0,.6,-.5,1,-.8c.3,-.1,.2,0,-.2,.4c-.4,.4,-.8,.5,-.8,.4Z" class="g7_71"/>
<path d="M141.7,319.2q-.1,0,0,-.1c.1,-.1,.3,0,.2,.1c0,0,-.1,.1,-.2,0Z" class="g7_71"/>
<path d="M125.9,344.9c-.1,-.1,-.1,-.2,0,-.2c0,0,.1,0,.1,.1c.1,.2,.1,.3,.1,.3c-.1,0,-.2,-.1,-.2,-.2Z" class="g8_71"/>
<path d="M129,344.4q0,-.1,.1,-.2q.2,0,.2,.1c-.1,.1,-.4,.2,-.3,.1Z" class="g8_71"/>
<path d="M125.6,344.3q0,-.1,.1,-.1c0,0,.1,.1,.1,.2q0,.1,-.2,-.1Z" class="g8_71"/>
<path d="M129.5,343.9c0,0,.2,-.2,.4,-.4c.2,-.2,.5,-.4,.5,-.6c.2,-.2,.4,-.3,.4,-.2c0,.1,-1,1.1,-1.2,1.2q-.1,.1,-.1,0Z" class="g8_71"/>
<path d="M125.4,343.7c-.1,-.1,-.1,-.3,-.1,-.4c0,-.2,0,-.1,.1,0c0,.1,.1,.3,.1,.4q0,.2,-.1,0Z" class="g8_71"/>
<path d="M131.2,342.1c.2,-.4,1,-1.3,1.1,-1.4c.1,-.1,.1,0,.1,0c.1,0,0,.2,-.2,.3c-.1,.2,-.4,.6,-.6,.9c-.5,.6,-.8,.8,-.4,.2Z" class="g8_71"/>
<path d="M124.8,341.6c0,0,0,-.1,0,-.1c.1,-.1,.1,0,.2,0c0,.1,0,.2,0,.2q-.1,0,-.2,-.1Z" class="g8_71"/>
<path d="M132.5,340.5c0,-.3,.6,-1.3,.7,-1.2c.1,0,-.6,1.3,-.7,1.3v-.1Z" class="g8_71"/>
<path d="M124.8,341c-.1,-.1,-.1,-.2,-.1,-.3c.1,-.2,.2,-.1,.2,.2c0,.1,-.1,.2,-.1,.1Z" class="g8_71"/>
<path d="M124.7,340.3c0,-.1,0,-.2,0,-.3c.1,-.1,.1,.1,.1,.3v.2Z" class="g8_71"/>
<path d="M133.2,339.1c0,-.1,0,-.3,-.1,-.4c-.1,-.1,0,-.2,.1,-.2c.4,0,.5,.1,.2,.5q-.1,.2,-.2,.1Z" class="g8_71"/>
<path d="M124.6,339.2c0,-.2,.1,-.9,.1,-.9c.1,.1,.1,.5,0,.7c0,.2,-.1,.2,-.1,.2Z" class="g8_71"/>
<path d="M134,338.2c-.3,0,-.6,-.1,-.7,-.1q-.2,-.1,.1,-.1c.1,0,.5,0,.9,0c.5,0,.6,0,1,-.3c.3,-.2,.5,-.4,.6,-.6c.2,-.4,.2,-.3,.1,.2c-.1,.3,-.3,.4,-.7,.6c-.5,.3,-.6,.3,-1.3,.3Z" class="g8_71"/>
<path d="M132.4,337.9q-.4,-.1,-.1,-.1c.2,0,.3,.1,.3,.1c.1,0,.1,.1,.1,.1c-.1,0,-.2,-.1,-.3,-.1Z" class="g8_71"/>
<path d="M127,338.1c-.3,-.2,-.5,-.6,-.4,-.6c.1,0,0,-.2,-.1,-.3c-.3,-.6,-1,-2.2,-1,-2.4c0,-.1,.1,0,.3,.5c.1,.3,.6,1.1,1,1.8c.3,.6,.6,1.2,.6,1.2c-.1,0,-.2,-.1,-.4,-.2Z" class="g8_71"/>
<path d="M124.7,337.9c-.1,-.1,0,-.9,.2,-.9c0,-.1,0,0,0,.2c0,.4,-.1,.8,-.2,.7Z" class="g8_71"/>
<path d="M136.1,336.4c0,-.1,.1,-.2,.1,-.3q.1,-.1,.1,0c0,.1,-.1,.3,-.1,.3q-.1,.2,-.1,0Z" class="g8_71"/>
<path d="M126.2,337.2q-.1,-.1,0,-.1c0,.1,.1,.2,.1,.2c0,.1,-.1,0,-.1,-.1Z" class="g8_71"/>
<path d="M124.9,336.8c0,-.1,0,-.2,.1,-.4c0,-.1,.1,-.3,.1,-.5c0,-.3,.3,-.2,.4,.2c0,.2,0,.3,0,.2c-.1,-.1,-.4,-.2,-.4,0c.1,.1,-.1,.6,-.2,.5Z" class="g8_71"/>
<path d="M136.3,335.7c0,0,.1,-.1,.1,-.3q.1,-.3,.1,.1c0,.2,-.1,.3,-.2,.2Z" class="g8_71"/>
<path d="M136.5,334.5c0,-.1,0,-.2,.1,-.3c0,0,.1,0,0,.1c0,.1,0,.2,0,.3q-.1,0,-.1,-.1Z" class="g8_71"/>
<path d="M136.7,333.9c-.1,-.1,.1,-.6,.3,-.9c.2,-.2,.2,-.4,.2,-.4c-.1,-.1,-.3,-.1,-.7,0c-.7,.1,-.8,-.1,-.1,-.2c.4,-.1,.8,-.1,.9,-.2c.3,-.1,.3,.2,-.1,1c-.3,.4,-.5,.8,-.5,.7Z" class="g8_71"/>
<path d="M129.5,333.8c-.1,-.1,-.3,-.2,-.5,-.4c-.3,-.2,-.7,-.8,-.5,-.7c.1,0,.2,.1,.2,.2c.1,.1,.3,.2,.4,.3c.2,0,.4,.2,.6,.4c.3,.4,.2,.5,-.2,.2Z" class="g8_71"/>
<path d="M125.3,333.8c0,-.1,0,-.3,0,-.5c.1,-.3,.6,-1.6,.7,-1.7c.1,-.1,.1,.1,-.2,.9c-.1,.4,-.3,.9,-.3,1.2c-.1,.3,-.1,.4,-.2,.1Z" class="g8_71"/>
<path d="M135.4,332.4c-.2,0,-.3,-.1,-.3,-.1c-.1,-.1,.7,-.5,1,-.5c.3,-.1,.2,0,-.2,.2c-.5,.1,-.6,.2,-.4,.4q.2,.1,-.1,0Z" class="g8_71"/>
<path d="M128.8,332.4c-.1,-.1,-.1,-.3,-.2,-.4q0,-.2,.1,0c0,.1,.1,.2,.1,.4q.1,.1,0,0Z" class="g8_71"/>
<path d="M136.9,331.6c.1,-.1,.2,-.1,.3,0c.1,0,0,.1,-.2,.1q-.3,0,-.1,-.1Z" class="g8_71"/>
<path d="M137.5,331.3c.1,-.2,.2,-.4,.2,-.4c.1,0,-.1,.6,-.2,.6c0,.1,0,-.1,0,-.2Z" class="g8_71"/>
<path d="M128.4,331.4c-.1,0,-.2,-.1,-.1,-.2q0,-.2,.1,.1q.2,.3,0,.1Z" class="g8_71"/>
<path d="M137.9,330.4c0,-.1,.1,-.2,.1,-.1c.1,0,0,.3,-.1,.4c-.1,0,-.1,-.1,0,-.3Z" class="g8_71"/>
<path d="M127.3,331.3c-.1,-.1,-.1,-.2,0,-.1q.2,.1,.1,.2q0,.1,-.1,-.1Z" class="g8_71"/>
<path d="M126,331.4c-.1,-.2,.5,-1,.7,-.9c.3,0,.3,.2,.1,.2c-.2,.1,-.4,.3,-.5,.4c-.1,.3,-.2,.4,-.3,.3Z" class="g8_71"/>
<path d="M127.6,330.9c-.1,-.2,-.1,-.4,-.1,-.4c.1,-.1,.4,.4,.3,.6c0,.1,0,0,-.2,-.2Z" class="g8_71"/>
<path d="M138,330c0,-.1,.2,-.5,.3,-.5c.1,0,.1,-.1,.2,-.3c.1,-.4,1,-1.8,2,-3.3c.1,-.2,.1,-.3,0,-.4c-.1,-.1,-.1,-.2,.1,-.3c.1,-.1,.2,-.2,.3,-.1c.2,.1,0,.7,-.2,.9c-.3,.3,-1.4,2,-1.7,2.5c-.6,1.2,-.9,1.6,-1,1.5Z" class="g8_71"/>
<path d="M127.9,330.5c-.1,-.1,-.1,-.2,0,-.2c0,0,.1,0,.1,.1c0,0,0,.1,0,.1c0,.1,-.1,0,-.1,0Z" class="g8_71"/>
<path d="M127.5,329.9c0,-.1,0,-.2,0,-.3q0,-.1,.1,.1c.1,.2,.2,.3,.1,.3c0,0,-.1,-.1,-.2,-.1Z" class="g8_71"/>
<path d="M127.7,329.1c-.1,-.1,0,-.4,.1,-.4c.1,0,.1,.2,0,.3c0,.1,-.1,.1,-.1,.1Z" class="g8_71"/>
<path d="M128,328.3c0,-.1,.1,-.3,.3,-.4c.1,-.1,.2,-.3,.2,-.4q.1,-.1,.2,-.1c.1,-.1,0,.1,-.4,.6c-.2,.3,-.3,.4,-.3,.3Z" class="g8_71"/>
<path d="M129,327c.3,-.4,.8,-.9,.8,-.8c.1,0,-.4,.6,-.7,.9l-.2,.2Z" class="g8_71"/>
<path d="M132.6,326.1c-.1,-.1,-.2,-.4,0,-.4c.1,0,.3,.4,.2,.4c0,.1,-.1,.1,-.2,0Z" class="g8_71"/>
<path d="M136.3,325.7c.1,-.2,.2,-.3,.3,-.3c0,0,0,.1,-.1,.2c-.1,.2,-.2,.3,-.3,.3c0,0,0,-.1,.1,-.2Z" class="g8_71"/>
<path d="M130.6,325.6c.1,-.2,.2,-.2,.3,-.2c.1,-.1,-.2,.3,-.4,.3c-.1,0,0,0,.1,-.1Z" class="g8_71"/>
<path d="M140.7,324.7c-.1,0,0,-.1,.1,-.1c.2,-.1,.4,-.1,.4,-.1c0,.1,-.4,.3,-.5,.2Z" class="g8_71"/>
<path d="M131.3,324.9c.2,-.4,.5,-.5,.6,-.3c.1,0,-.2,.3,-.7,.5c0,.1,0,-.1,.1,-.2Z" class="g8_71"/>
<path d="M141.6,323.5c0,0,.1,-.2,.1,-.3c.1,-.1,.2,-.2,.2,-.1c0,0,0,.1,-.1,.3q-.1,.1,-.2,.1Z" class="g8_71"/>
<path d="M142.2,322.5c.2,-.4,.8,-1,2.4,-2.2c.8,-.7,2.6,-1.7,3.6,-2.1c1,-.3,1.1,-.4,1.1,-.5c-.2,-.2,.7,-.5,.9,-.3c.2,.2,.1,.3,-.1,.3c-.1,.1,-.5,.2,-.8,.3c-.4,.2,-1,.4,-1.3,.6c-1.1,.4,-1.9,.8,-2.4,1.2c-.2,.1,-.5,.3,-.6,.4c-.1,0,-.4,.2,-.5,.4c-.2,.1,-.4,.3,-.4,.3c0,0,-.2,.1,-.4,.2c-1.1,1.1,-1.3,1.3,-1.3,1.5c0,.1,-.1,.2,-.2,.2q-.1,0,0,-.3Z" class="g8_71"/>
<path d="M133,323.5c0,0,0,-.1,.1,-.1c0,0,.1,.1,0,.1q0,.1,-.1,.1v-.1Z" class="g8_71"/>
<path d="M142.3,319.6c0,0,0,-.1,.1,-.2c.1,0,.2,-.1,.2,-.1q0,.1,-.1,.2c-.1,.1,-.2,.1,-.2,.1Z" class="g8_71"/>
<path d="M143,318.9c.1,-.2,.5,-.3,.5,-.2c.1,0,-.3,.3,-.5,.4q-.2,0,0,-.2Z" class="g8_71"/>
<path d="M144.6,318.3c.1,-.1,.2,-.1,.3,-.1q.1,0,0,0c-.1,.1,-.2,.1,-.3,.1q-.1,0,0,0Z" class="g8_71"/>
<path d="M145.2,318.1c0,0,.4,-.1,.9,-.1c.6,-.1,.9,-.1,.9,0c0,0,-.4,.1,-.9,.1c-.6,.1,-.9,.1,-.9,0Z" class="g8_71"/>
<path d="M147.1,317.9c.1,0,.4,-.1,.9,-.2c.5,0,.7,0,.6,0c-.3,.1,-1.5,.3,-1.5,.2Z" class="g8_71"/>
<path d="M125.8,351.7c0,0,0,-.4,0,-.7c0,-.4,0,-.8,0,-.8c0,-.1,0,-.8,0,-1q.1,-.1,.5,.1c.9,.5,1.2,.3,1,-.7c-.1,-1,.1,-1.2,.3,-.2c.1,.7,.1,.9,-.2,1.1c-.6,.5,-1.5,1.9,-1.4,2.1c.1,.1,0,.1,-.1,.1c0,0,-.1,0,-.1,0Z" class="g9_71"/>
<path d="M127.3,347.6c0,-.1,0,-.7,.1,-.7c.1,-.1,.1,0,.1,.4c-.1,.3,-.1,.4,-.2,.3Z" class="g9_71"/>
<path d="M127.3,346.4c0,0,0,-.3,0,-.6c0,-.2,.1,-.7,.1,-1c.1,-1,.5,-3.2,.7,-3.3c0,0,0,.2,0,.3c0,.2,-.1,.4,-.1,.6c0,.1,-.1,.4,-.1,.6c-.2,.6,-.3,2,-.1,2.2q0,.1,-.1,.2c0,0,-.1,.2,-.2,.5c0,.5,-.1,.6,-.2,.5Z" class="g9_71"/>
<path d="M126.2,346.1q0,-.1,.1,-.2c0,-.1,0,-.2,0,-.3c-.1,-.3,.2,-.7,.3,-.5c0,.1,-.2,1,-.3,1h-.1Z" class="g9_71"/>
<path d="M125.9,344.9c-.1,-.1,-.1,-.2,0,-.2c0,0,.1,0,.1,.1c.1,.2,.1,.3,.1,.3c-.1,0,-.2,-.1,-.2,-.2Z" class="g9_71"/>
<path d="M126.5,344.8c0,-.1,0,-.4,.2,-.8c.1,-.4,.2,-1,.3,-1.4c.1,-.4,.2,-.8,.3,-.8c.1,-.1,.1,0,0,.3c0,.2,-.1,.5,-.1,.6c-.1,.7,-.6,2.2,-.7,2.1Z" class="g9_71"/>
<path d="M129,344.4q0,-.1,.1,-.2q.2,0,.2,.1c-.1,.1,-.4,.2,-.3,.1Z" class="g9_71"/>
<path d="M125.6,344.3q0,-.1,.1,-.1c0,0,.1,.1,.1,.2q0,.1,-.2,-.1Z" class="g9_71"/>
<path d="M129.5,343.9c0,0,.2,-.2,.4,-.4c.2,-.2,.5,-.4,.5,-.6c.2,-.2,.4,-.3,.4,-.2c0,.1,-1,1.1,-1.2,1.2q-.1,.1,-.1,0Z" class="g9_71"/>
<path d="M125.4,343.7c-.1,-.1,-.1,-.3,-.1,-.4c0,-.2,0,-.1,.1,0c0,.1,.1,.3,.1,.4q0,.2,-.1,0Z" class="g9_71"/>
<path d="M131.2,342.1c.2,-.4,1,-1.3,1.1,-1.4c.1,-.1,.1,0,.1,0c.1,0,0,.2,-.2,.3c-.1,.2,-.4,.6,-.6,.9c-.5,.6,-.8,.8,-.4,.2Z" class="g9_71"/>
<path d="M124.8,341.6c0,0,0,-.1,0,-.1c.1,-.1,.1,0,.2,0c0,.1,0,.2,0,.2q-.1,0,-.2,-.1Z" class="g9_71"/>
<path d="M128.1,341.4c0,-.5,1.5,-4,2.7,-6.2c.2,-.4,.5,-.9,.5,-1.1c0,-.4,.2,-.5,.3,-.4c.1,.2,-.2,.9,-1.3,2.8c-.5,1.1,-1,2.2,-1.2,2.5c-.2,.6,-.6,1.5,-.9,2.2q-.1,.2,-.1,.2Z" class="g9_71"/>
<path d="M127.5,341h.1c0,-.1,.1,-.1,.1,0c0,0,0,.1,0,.1q-.1,0,-.2,-.1Z" class="g9_71"/>
<path d="M132.5,340.5c0,-.3,.6,-1.3,.7,-1.2c.1,0,-.6,1.3,-.7,1.3v-.1Z" class="g9_71"/>
<path d="M124.8,341c-.1,-.1,-.1,-.2,-.1,-.3c.1,-.2,.2,-.1,.2,.2c0,.1,-.1,.2,-.1,.1Z" class="g9_71"/>
<path d="M127.6,340.5c0,0,0,-.1,.1,-.1q.1,-.1,.1,0c.1,.1,-.1,.2,-.2,.1Z" class="g9_71"/>
<path d="M124.7,340.3c0,-.1,0,-.2,0,-.3c.1,-.1,.1,.1,.1,.3v.2Z" class="g9_71"/>
<path d="M127.9,340.1c-.1,-.1,.3,-.7,.4,-.7c0,0,-.1,.2,-.2,.4c-.1,.3,-.2,.4,-.2,.3Z" class="g9_71"/>
<path d="M133.2,339.1c0,-.1,0,-.3,-.1,-.4c-.1,-.1,0,-.2,.1,-.2c.4,0,.5,.1,.2,.5q-.1,.2,-.2,.1Z" class="g9_71"/>
<path d="M128.3,339.2c0,0,.2,-.5,.5,-1.1c.3,-.5,.4,-.7,.3,-.4c-.2,.5,-.9,1.8,-.8,1.5Z" class="g9_71"/>
<path d="M124.6,339.2c0,-.2,.1,-.9,.1,-.9c.1,.1,.1,.5,0,.7c0,.2,-.1,.2,-.1,.2Z" class="g9_71"/>
<path d="M134,338.2c-.3,0,-.6,-.1,-.7,-.1q-.2,-.1,.1,-.1c.1,0,.5,0,.9,0c.5,0,.6,0,1,-.3c.3,-.2,.5,-.4,.6,-.6c.2,-.4,.2,-.3,.1,.2c-.1,.3,-.3,.4,-.7,.6c-.5,.3,-.6,.3,-1.3,.3Z" class="g9_71"/>
<path d="M132.4,337.9q-.4,-.1,-.1,-.1c.2,0,.3,.1,.3,.1c.1,0,.1,.1,.1,.1c-.1,0,-.2,-.1,-.3,-.1Z" class="g9_71"/>
<path d="M127,338.1c-.3,-.2,-.5,-.6,-.4,-.6c.1,0,0,-.2,-.1,-.3c-.3,-.6,-1,-2.2,-1,-2.4c0,-.1,.1,0,.3,.5c.1,.3,.6,1.1,1,1.8c.3,.6,.6,1.2,.6,1.2c-.1,0,-.2,-.1,-.4,-.2Z" class="g9_71"/>
<path d="M124.7,337.9c-.1,-.1,0,-.9,.2,-.9c0,-.1,0,0,0,.2c0,.4,-.1,.8,-.2,.7Z" class="g9_71"/>
<path d="M136.1,336.4c0,-.1,.1,-.2,.1,-.3q.1,-.1,.1,0c0,.1,-.1,.3,-.1,.3q-.1,.2,-.1,0Z" class="g9_71"/>
<path d="M126.2,337.2q-.1,-.1,0,-.1c0,.1,.1,.2,.1,.2c0,.1,-.1,0,-.1,-.1Z" class="g9_71"/>
<path d="M129.3,336.8c.1,-.1,.2,-.2,.2,-.2c.1,0,0,.3,-.1,.4q-.2,.1,-.1,-.2Z" class="g9_71"/>
<path d="M129.8,335.9c.1,-.3,.3,-.6,.3,-.6c0,0,.2,-.5,.5,-1c.2,-.5,.6,-1.1,.7,-1.3c.2,-.3,.5,-.8,.8,-1.2c.4,-.7,.6,-1,.7,-.8c0,0,-.2,.4,-1,1.5c-.2,.4,-.5,.9,-.7,1.1c-.1,.3,-.3,.8,-.5,1.2c-.2,.4,-.5,.9,-.6,1.2c-.3,.7,-.5,.6,-.2,-.1Z" class="g9_71"/>
<path d="M124.9,336.8c0,-.1,0,-.2,.1,-.4c0,-.1,.1,-.3,.1,-.5c0,-.3,.3,-.2,.4,.2c0,.2,0,.3,0,.2c-.1,-.1,-.4,-.2,-.4,0c.1,.1,-.1,.6,-.2,.5Z" class="g9_71"/>
<path d="M136.3,335.7c0,0,.1,-.1,.1,-.3q.1,-.3,.1,.1c0,.2,-.1,.3,-.2,.2Z" class="g9_71"/>
<path d="M136.5,334.5c0,-.1,0,-.2,.1,-.3c0,0,.1,0,0,.1c0,.1,0,.2,0,.3q-.1,0,-.1,-.1Z" class="g9_71"/>
<path d="M136.7,333.9c-.1,-.1,.1,-.6,.3,-.9c.2,-.2,.2,-.4,.2,-.4c-.1,-.1,-.3,-.1,-.7,0c-.7,.1,-.8,-.1,-.1,-.2c.4,-.1,.8,-.1,.9,-.2c.3,-.1,.3,.2,-.1,1c-.3,.4,-.5,.8,-.5,.7Z" class="g9_71"/>
<path d="M129.5,333.8c-.1,-.1,-.3,-.2,-.5,-.4c-.3,-.2,-.7,-.8,-.5,-.7c.1,0,.2,.1,.2,.2c.1,.1,.3,.2,.4,.3c.2,0,.4,.2,.6,.4c.3,.4,.2,.5,-.2,.2Z" class="g9_71"/>
<path d="M125.3,333.8c0,-.1,0,-.3,0,-.5c.1,-.3,.6,-1.6,.7,-1.7c.1,-.1,.1,.1,-.2,.9c-.1,.4,-.3,.9,-.3,1.2c-.1,.3,-.1,.4,-.2,.1Z" class="g9_71"/>
<path d="M135.4,332.4c-.2,0,-.3,-.1,-.3,-.1c-.1,-.1,.7,-.5,1,-.5c.3,-.1,.2,0,-.2,.2c-.5,.1,-.6,.2,-.4,.4q.2,.1,-.1,0Z" class="g9_71"/>
<path d="M128.8,332.4c-.1,-.1,-.1,-.3,-.2,-.4q0,-.2,.1,0c0,.1,.1,.2,.1,.4q.1,.1,0,0Z" class="g9_71"/>
<path d="M136.9,331.6c.1,-.1,.2,-.1,.3,0c.1,0,0,.1,-.2,.1q-.3,0,-.1,-.1Z" class="g9_71"/>
<path d="M137.5,331.3c.1,-.2,.2,-.4,.2,-.4c.1,0,-.1,.6,-.2,.6c0,.1,0,-.1,0,-.2Z" class="g9_71"/>
<path d="M128.4,331.4c-.1,0,-.2,-.1,-.1,-.2q0,-.2,.1,.1q.2,.3,0,.1Z" class="g9_71"/>
<path d="M137.9,330.4c0,-.1,.1,-.2,.1,-.1c.1,0,0,.3,-.1,.4c-.1,0,-.1,-.1,0,-.3Z" class="g9_71"/>
<path d="M127.3,331.3c-.1,-.1,-.1,-.2,0,-.1q.2,.1,.1,.2q0,.1,-.1,-.1Z" class="g9_71"/>
<path d="M126,331.4c-.1,-.2,.5,-1,.7,-.9c.3,0,.3,.2,.1,.2c-.2,.1,-.4,.3,-.5,.4c-.1,.3,-.2,.4,-.3,.3Z" class="g9_71"/>
<path d="M127.6,330.9c-.1,-.2,-.1,-.4,-.1,-.4c.1,-.1,.4,.4,.3,.6c0,.1,0,0,-.2,-.2Z" class="g9_71"/>
<path d="M133,330.3c.1,-.2,.2,-.3,.3,-.3c.1,.1,-.3,.7,-.4,.7c-.1,0,0,-.2,.1,-.4Z" class="g9_71"/>
<path d="M138,330c0,-.1,.2,-.5,.3,-.5c.1,0,.1,-.1,.2,-.3c.1,-.4,1,-1.8,2,-3.3c.1,-.2,.1,-.3,0,-.4c-.1,-.1,-.1,-.2,.1,-.3c.1,-.1,.2,-.2,.3,-.1c.2,.1,0,.7,-.2,.9c-.3,.3,-1.4,2,-1.7,2.5c-.6,1.2,-.9,1.6,-1,1.5Z" class="g9_71"/>
<path d="M127.9,330.5c-.1,-.1,-.1,-.2,0,-.2c0,0,.1,0,.1,.1c0,0,0,.1,0,.1c0,.1,-.1,0,-.1,0Z" class="g9_71"/>
<path d="M133.4,329.9c0,-.1,.5,-1,.8,-1.5c.1,-.1,.3,-.4,.4,-.5c.2,-.5,.8,-1.1,.9,-1.1c0,0,0,.2,-.1,.3c-.1,.1,-.3,.2,-.3,.3c-.1,.1,-.3,.4,-.5,.8c-.3,.3,-.6,.8,-.7,1c-.3,.5,-.4,.7,-.5,.7Z" class="g9_71"/>
<path d="M127.5,329.9c0,-.1,0,-.2,0,-.3q0,-.1,.1,.1c.1,.2,.2,.3,.1,.3c0,0,-.1,-.1,-.2,-.1Z" class="g9_71"/>
<path d="M127.7,329.1c-.1,-.1,0,-.4,.1,-.4c.1,0,.1,.2,0,.3c0,.1,-.1,.1,-.1,.1Z" class="g9_71"/>
<path d="M128,328.3c0,-.1,.1,-.3,.3,-.4c.1,-.1,.2,-.3,.2,-.4q.1,-.1,.2,-.1c.1,-.1,0,.1,-.4,.6c-.2,.3,-.3,.4,-.3,.3Z" class="g9_71"/>
<path d="M129,327c.3,-.4,.8,-.9,.8,-.8c.1,0,-.4,.6,-.7,.9l-.2,.2Z" class="g9_71"/>
<path d="M135.9,326.2c.1,-.1,.2,-.2,.2,-.2c0,0,0,.1,-.1,.2l-.2,.3Z" class="g9_71"/>
<path d="M132.6,326.1c-.1,-.1,-.2,-.4,0,-.4c.1,0,.3,.4,.2,.4c0,.1,-.1,.1,-.2,0Z" class="g9_71"/>
<path d="M130.6,325.6c.1,-.2,.2,-.2,.3,-.2c.1,-.1,-.2,.3,-.4,.3c-.1,0,0,0,.1,-.1Z" class="g9_71"/>
<path d="M140.7,324.7c-.1,0,0,-.1,.1,-.1c.2,-.1,.4,-.1,.4,-.1c0,.1,-.4,.3,-.5,.2Z" class="g9_71"/>
<path d="M131.3,324.9c.2,-.4,.5,-.5,.6,-.3c.1,0,-.2,.3,-.7,.5c0,.1,0,-.1,.1,-.2Z" class="g9_71"/>
<path d="M141.6,323.5c0,0,.1,-.2,.1,-.3c.1,-.1,.2,-.2,.2,-.1c0,0,0,.1,-.1,.3q-.1,.1,-.2,.1Z" class="g9_71"/>
<path d="M142.2,322.5c.2,-.4,.8,-1,2.4,-2.2c.8,-.7,2.6,-1.7,3.6,-2.1c1,-.3,1.1,-.4,1.1,-.5c-.2,-.2,.7,-.5,.9,-.3c.2,.2,.1,.3,-.1,.3c-.1,.1,-.5,.2,-.8,.3c-.4,.2,-1,.4,-1.3,.6c-1.1,.4,-1.9,.8,-2.4,1.2c-.2,.1,-.5,.3,-.6,.4c-.1,0,-.4,.2,-.5,.4c-.2,.1,-.4,.3,-.4,.3c0,0,-.2,.1,-.4,.2c-1.1,1.1,-1.3,1.3,-1.3,1.5c0,.1,-.1,.2,-.2,.2q-.1,0,0,-.3Z" class="g9_71"/>
<path d="M133,323.5c0,0,0,-.1,.1,-.1c0,0,.1,.1,0,.1q0,.1,-.1,.1v-.1Z" class="g9_71"/>
<path d="M142.3,319.6c0,0,0,-.1,.1,-.2c.1,0,.2,-.1,.2,-.1q0,.1,-.1,.2c-.1,.1,-.2,.1,-.2,.1Z" class="g9_71"/>
<path d="M143,318.9c.1,-.2,.5,-.3,.5,-.2c.1,0,-.3,.3,-.5,.4q-.2,0,0,-.2Z" class="g9_71"/>
<path d="M144.6,318.3c.1,-.1,.2,-.1,.3,-.1q.1,0,0,0c-.1,.1,-.2,.1,-.3,.1q-.1,0,0,0Z" class="g9_71"/>
<path d="M145.2,318.1c0,0,.4,-.1,.9,-.1c.6,-.1,.9,-.1,.9,0c0,0,-.4,.1,-.9,.1c-.6,.1,-.9,.1,-.9,0Z" class="g9_71"/>
<path d="M147.1,317.9c.1,0,.4,-.1,.9,-.2c.5,0,.7,0,.6,0c-.3,.1,-1.5,.3,-1.5,.2Z" class="g9_71"/>
<path d="M128.2,331.4q-.1,-.2,-.1,-.1c-.1,.2,0,.4,.1,.4c.1,-.1,.1,-.2,0,-.3Z" class="g4_71"/>
</g>
<path d="M152.7,363.2H366.2" class="g0_71"/>
<path d="M137.6,371.5v43.8" class="gb_71"/>
<path d="M117.7,576.1V466H791.8V576.1Z" class="g1_71"/>
<path d="M117.7,576.1V466H791.8V576.1Z" class="ga_71"/>
<g clip-path="url(#c6_71)">
<path clip-path="url(#c1_71)" d="M126.4,498.1c0,0,1.5,-.9,1.2,-1.2c-.1,-.1,-.3,-.1,-.6,-.1c-1.6,.3,-5,2.1,-3.3,4.2c1.4,1.5,6.4,2.3,11.7,1.3c7.3,-1.4,13.5,-5.4,11.1,-8.3c-1.6,-1.9,-6.7,-2.1,-10.8,-2.2c-2.1,0,-6.6,0,-8,-1.7c-.6,-.7,-.5,-1.6,.1,-2.1c1,-.9,3.8,-1.5,4,-1.5c.7,-.1,2.5,-.4,4.6,-.4c1.1,0,2.5,0,3.2,1c.2,.2,.4,.5,.4,.6c0,.1,0,.2,.1,.3c.1,.1,.4,0,.5,0c.5,-.1,1.5,-.5,2,-1c.3,-.3,.8,-.7,0,-1.6c-.9,-1,-2.3,-1.1,-4,-1.1c-2.3,0,-4.1,.3,-4.9,.4c-5.8,1.2,-11.1,4.6,-9,7.1c1.5,1.8,6.3,1.9,9,1.9c3.9,0,8.4,.3,9.8,2c.6,.6,.9,1.8,-.4,2.8c-1.2,1,-4,1.7,-5.8,2.1c-4.4,.8,-9.4,.1,-10.6,-1.3c0,0,-.5,-.6,-.3,-1.2Z" class="gc_71"/>
<path d="M131.5,500.6l-.2,-.2l.3,-4.6q.3,-5.6,.5,-6c.1,-.2,1.6,-2.2,3.3,-4.6c1.7,-2.4,4.3,-6.1,5.9,-8.2c1.5,-2.2,2.8,-4,2.9,-4c.4,0,.1,.4,-1.8,3.2c-1.2,1.6,-3.7,5.2,-5.7,8.1c-2,2.8,-3.6,5.2,-3.6,5.2c0,0,.5,.1,1,.1c2,.2,3.3,.6,4.5,1.2c.6,.3,1,.6,1.5,1.2c.8,.7,1.2,1.3,1.4,2.2c.1,.2,.1,.4,.2,.4c.1,0,.7,-.8,5.2,-7.6c2.4,-3.6,4.5,-6.7,4.6,-6.8c.2,-.2,.4,0,.2,.2c0,.2,-1.5,2.4,-3.2,5.1c-1.8,2.6,-3.8,5.7,-4.5,6.7c-1.5,2.4,-2.1,3.3,-2.3,3.8c-.2,.3,-.3,.4,-.9,.7c-.8,.4,-8.7,3.9,-8.9,4c-.1,0,-.3,0,-.4,-.1Z" class="gc_71"/>
<path d="M135.2,498.6c2.2,-1,4,-1.8,4.6,-2.1c.7,-.3,.7,-.4,.7,-1.4c-.2,-1.7,-1.4,-3,-3.6,-3.7c-1.2,-.4,-4.3,-.9,-4.4,-.7c0,.1,-.1,1.5,-.2,3.2c-.1,1.7,-.2,3.3,-.2,3.6c-.1,1.1,.1,1.4,-.2,2.5c.1,.1,1.8,-.8,1.8,-.8c.1,0,.7,-.3,1.5,-.6Z" class="gc_71"/>
<path d="M131.5,500.6l-.2,-.2l.3,-4.6q.3,-5.6,.5,-6c.1,-.2,1.6,-2.2,3.3,-4.6c1.7,-2.4,4.3,-6.1,5.9,-8.2c1.5,-2.2,2.8,-4,2.9,-4c.4,0,.1,.4,-1.8,3.2c-1.2,1.6,-3.7,5.2,-5.7,8.1c-2,2.8,-3.6,5.2,-3.6,5.2c0,0,.5,.1,1,.1c2,.2,3.3,.6,4.5,1.2c.6,.3,1,.6,1.5,1.2c.8,.7,1.2,1.3,1.4,2.2c.1,.2,.1,.4,.2,.4c.1,0,.7,-.8,5.2,-7.6c2.4,-3.6,4.5,-6.7,4.6,-6.8c.2,-.2,.4,0,.2,.2c0,.2,-1.5,2.4,-3.2,5.1c-1.8,2.6,-3.8,5.7,-4.5,6.7c-1.5,2.4,-2.1,3.3,-2.3,3.8c-.2,.3,-.3,.4,-.9,.7c-.8,.4,-8.7,3.9,-8.9,4c-.1,0,-.3,0,-.4,-.1Zm3.7,-2c2.2,-1,4,-1.8,4.6,-2.1c.7,-.3,.7,-.4,.7,-1.4c-.2,-1.7,-1.4,-3,-3.6,-3.7c-1.2,-.4,-4.3,-.9,-4.4,-.7c0,.1,-.1,1.5,-.2,3.2c-.1,1.7,-.2,3.3,-.2,3.6c-.1,1.1,.1,1.4,-.2,2.5c.1,.1,1.8,-.8,1.8,-.8c.1,0,.7,-.3,1.5,-.6Z" class="gd_71"/>
<path d="M135.3,490l11.2,-16.1m-8.2,17.2L149,475.4" class="ge_71"/>
<path d="M140.4,492.8l10,-14.4l.2,-.4" class="gf_71"/>
<path d="M134.1,489.6c-.4,-.1,-.8,-.2,-.9,-.2c0,0,2.5,-3.6,6.7,-9.6c1.9,-2.7,3.6,-5.2,3.8,-5.5c.2,-.3,.4,-.6,.5,-.6c.1,0,.7,.5,.9,.7c.1,.3,.1,.5,-.1,1.1c-.2,.5,-9.8,14.2,-9.9,14.2c-.1,0,-.5,0,-1,-.1Z" class="gg_71"/>
<path d="M137.6,490.4c-.2,-.2,-.8,-.3,-1.2,-.4l-.7,-.2l.3,-.3c.1,-.2,2.3,-3.4,4.8,-7.1l4.7,-6.6l.5,-.3c.9,-.5,1.6,-.5,2.1,0l.3,.3l-5,7.4c-3.1,4.5,-5.1,7.4,-5.1,7.4c-.1,0,-.4,-.1,-.7,-.2Z" class="gg_71"/>
<path d="M140,491.8c-.2,-.3,-.6,-.6,-.8,-.7c-.2,-.1,-.3,-.2,-.3,-.3c0,-.1,9.4,-13.9,9.8,-14.5c.1,-.1,.5,.3,.8,.7c.3,.4,.3,.5,.4,1c0,.3,0,.6,-.1,.7c-.2,.3,-9.1,13.2,-9.2,13.4q-.2,.1,-.6,-.3Z" class="gg_71"/>
<path d="M141.6,494.4c0,0,-.1,-.3,-.1,-.5c-.1,-.3,-.3,-.6,-.4,-.9l-.3,-.4l4.7,-6.7c2.6,-3.8,4.8,-6.8,4.8,-6.8c.4,0,1,.7,1,1.1c0,.1,-.6,1.2,-1.9,3.1c-1.1,1.5,-3.1,4.6,-4.6,6.8c-3,4.4,-3.1,4.5,-3.2,4.3Z" class="gg_71"/>
<path d="M131.9,495.9c2.3,-.1,3.6,.7,4.1,2.3" class="gh_71"/>
<path d="M132,499.9c0,-.4,.1,-.5,.1,-1.4c0,-.7,0,-.9,0,-1.3c0,-.3,0,-.6,0,-.7l.1,-.3c.1,0,.6,0,.7,0c.4,.1,.8,.2,1.1,.3c.2,0,.4,.2,.6,.3c.2,.1,.3,.2,.4,.4c.3,.2,.4,.4,.6,.7c0,.1,.1,.4,.1,.4c0,.1,-1.5,.7,-1.8,.8c-.1,.1,-.2,.1,-.3,.1c-1.1,.6,-1.4,.8,-1.6,.8Z" class="gc_71"/>
<path d="M136.2,497.7c-.6,-1.2,-1.8,-1.9,-3.4,-2.1h-.6v-.5c.1,-.3,.1,-1.3,.2,-2.2c0,-.9,.1,-1.8,.1,-1.9l.1,-.3l.7,.1c.8,0,2.3,.3,3.1,.5c1.7,.4,3.1,1.4,3.6,2.5c.4,.7,.6,2,.3,2.4c-.1,.1,-.8,.4,-2.5,1.2c-1.6,.7,-1.5,.7,-1.6,.3Z" class="gi_71"/>
<path d="M136.2,497.7c-.6,-1.2,-1.8,-1.9,-3.4,-2.1h-.6v-.5c.1,-.3,.1,-1.3,.2,-2.2c0,-.9,.1,-1.8,.1,-1.9l.1,-.3l.7,.1c.8,0,2.3,.3,3.1,.5c1.7,.4,3.1,1.4,3.6,2.5c.4,.7,.6,2,.3,2.4c-.1,.1,-.8,.4,-2.5,1.2c-1.6,.7,-1.5,.7,-1.6,.3Z" class="gj_71"/>
</g>
<path d="M152.7,517.6h310" class="g0_71"/>
<path d="M137.6,522.8v43.9" class="gb_71"/>
<path d="M117.7,732.2V617.4H791.8V732.2Z" class="g1_71"/>
<path d="M117.7,732.2V617.4H791.8V732.2Z" class="ga_71"/>
<g clip-path="url(#c7_71)">
<path clip-path="url(#c2_71)" d="M125.6,659.2c-.1,-.1,-.1,-.2,0,-.3c0,-.1,.1,-1.2,0,-1.7c0,-.2,0,-.4,0,-.6c.1,-.9,.3,-2.3,.3,-2.3c0,0,0,-.3,.1,-.6c.1,-.5,.1,-.6,-.1,-.9c-.3,-.6,-.9,-2,-1.1,-2.8c-.4,-1.8,-.5,-4.6,-.1,-6c.3,-1.1,.5,-1.2,.9,-.5c.3,.6,.4,.4,0,-.3c-.3,-.8,-.6,-2.1,-.5,-2.5c0,-.1,.2,-.6,.4,-1.1c.2,-.4,.4,-1,.5,-1.2c.1,-.5,.5,-.7,.9,-.6c.1,.1,.2,.3,.3,.4c.2,.3,.2,.2,.1,-.2c-.1,-.3,-.2,-.6,-.1,-.6c0,0,0,-.2,0,-.4c.1,-.4,1,-2,1.6,-2.6c.3,-.3,.6,-.6,.7,-.7c.1,-.2,.5,-.5,.8,-.7c.3,-.2,.7,-.6,.9,-.8c.4,-.4,.7,-.5,.9,-.2c.2,.2,.2,.1,.2,-.2c0,-.2,0,-.4,0,-.5c.1,-.2,1.5,-1.2,2.1,-1.5c.3,-.1,.6,-.3,.8,-.4c.1,-.1,.3,-.2,.4,-.2c0,0,.4,-.2,.8,-.4c.4,-.3,.9,-.5,1,-.6c.2,0,.6,-.2,1,-.4c1.1,-.5,1.6,-.7,2.4,-1c.5,-.2,.9,-.4,1,-.4c0,0,.1,0,.3,.1l.2,.2l.4,-.3c.6,-.6,1.6,-.9,3.8,-1.2c.9,-.1,2.2,-.3,2.8,-.4l1,-.1l.1,.3c.1,.2,.1,.3,-.3,.4c-2.7,1,-4.6,2,-5.6,2.9c-.2,.2,-.4,.3,-.4,.3c-.1,0,-1.5,1.5,-1.5,1.6c0,0,-.1,.2,-.2,.3c-.3,.2,-.6,.7,-.5,1.1c0,.1,-.1,.3,-.4,.5c-.3,.2,-.4,.3,-.4,.4c.2,.1,0,.9,-.2,1.2c-.7,.7,-1.7,2.2,-1.9,2.9c-.1,.1,-.2,.4,-.4,.7c-.2,.3,-.4,.8,-.5,1.1q-.4,.9,-1,.9c-.5,.1,-1.4,.4,-1.3,.5c0,0,.4,0,.9,-.1c1.1,-.1,1.2,0,.8,.7c-.4,.7,-.7,1.7,-.7,2.1c0,.4,-.2,.9,-.6,2.3c-.1,.3,-.3,.5,-.7,.7c-.5,.3,-.6,.3,-1.2,.4q-.7,0,-.6,.2c.1,.1,-.1,.5,-.5,1.3c-.3,.6,-.7,1.2,-.8,1.3c-.2,.2,-.4,.5,-.6,.8c-.2,.3,-.4,.5,-.5,.5c0,0,-.2,.2,-.3,.3c-.6,.8,-2.7,2.6,-3,2.7l.3,-3.3c.1,.2,.4,0,.6,-.2c.2,-.4,.5,-.6,1.1,-.6c.5,-.1,.6,-.1,1,-.5c.2,-.3,.6,-.9,.9,-1.4l.5,-1l-.5,-.2c-.3,-.2,-.6,-.4,-.7,-.5c-.1,-.2,.4,-.9,.7,-1c.2,-.1,.5,-.2,.7,-.2c.2,0,.5,-.1,.7,-.3c.3,-.1,.5,-.2,.7,-.3c.6,0,.8,-.4,.8,-1.3c.1,-.9,.2,-1,.5,-1.2c.4,-.1,.7,-.1,.9,.2l.1,.2l.1,-.2c.1,-.3,.1,-.4,-.1,-.4c-.1,0,-.2,-.1,-.3,-.3q-.1,-.2,-.6,-.4c-.6,-.2,-.7,-.3,-.5,-.5c0,-.1,0,-.3,0,-.4c-.1,-.3,.4,-.7,1,-1c.5,-.2,.6,-.3,1.1,-1.2c.3,-.6,.8,-1.3,1,-1.5c.2,-.2,.5,-.5,.6,-.7c.1,-.2,.2,-.2,.4,-.2c.2,0,.4,-.1,.5,-.2c.2,-.1,.9,-1.1,.8,-1.1c0,0,-.2,.1,-.5,.2c-.8,.3,-1.8,.3,-2,-.1c-.2,-.3,.4,-1.2,.9,-1.2c.1,0,1.1,-.5,1.5,-.8c.1,-.1,.3,-.5,.5,-.8c.3,-.7,.8,-1.4,1.2,-1.5c.5,-.1,.7,-.3,.9,-.7c.2,-.4,.1,-.7,-.4,-.9c-.1,0,-.3,-.2,-.4,-.3c0,-.1,-.1,-.2,-.2,-.2c-.3,0,-3,1.1,-4.1,1.6c-.2,.2,-.5,.4,-.7,.6c-.1,.1,-.5,.5,-.9,.8c-.4,.3,-.9,.8,-1,1c-.1,.3,-.4,.7,-.7,.9c-.4,.4,-.4,.5,-.4,1.2c-.1,.5,0,1,.1,1.2c.3,.7,.2,1.1,-.3,1c-.5,0,-.8,-.3,-1.3,-1.5c-.3,-.6,-.6,-1,-.6,-1c-.2,0,-.8,.7,-1.1,1.2c-.2,.6,-.3,.7,-.7,.8c-.5,.2,-.5,.3,-.7,.8c-.1,.2,-.1,.6,-.1,.7c.1,.1,.1,.3,.1,.3c-.1,.4,-.1,.8,.1,1.3c.2,.3,.3,.6,.3,.8c0,.1,.1,.5,.3,.9c.3,.6,.3,.7,.2,1.2c-.1,.3,-.1,.6,-.1,.7c-.1,.3,-.4,.2,-1.1,-.3c-.5,-.5,-1.2,-1.2,-2,-2.3c-.3,-.4,-.4,-.5,-.3,-.1c0,.1,-.1,.5,-.2,.8c-.2,.6,-.2,1.4,.2,1.7c.2,.3,.8,1.9,.9,2.3c0,.2,0,.4,.1,.5c.1,.2,.1,1,-.1,1.3c0,.1,0,.3,0,.4c0,.1,-.1,.2,-.2,.2c-.2,.1,-.7,-.3,-1,-.6c-.1,-.1,-.3,-.4,-.5,-.5l-.2,-.3l-.1,.2c-.1,.3,0,.7,.1,1.1c.3,.8,.4,2.4,.2,3c-.1,.1,-.2,.4,-.4,.5c-.4,.3,-.3,.5,.4,1.4l.4,.5l.1,-.2c.1,-.2,.2,-.6,.3,-1c.1,-.3,.2,-.8,.3,-1c.1,-.2,.2,-.6,.3,-.8q.1,-.5,2.3,-5.3c1,-2,1,-2.1,1.9,-3.3c.7,-1.1,1.3,-2.1,1.9,-3.1c.8,-1.3,.9,-1.5,1.4,-2.1c.3,-.3,.7,-.8,.9,-1c.9,-1.2,1.1,-1.5,1.3,-1.4c.1,0,.2,.1,.2,.1c0,.1,-.2,.5,-.5,.9c-.3,.4,-.8,1.1,-1,1.5c-.9,1.5,-2.1,3.4,-2.5,4c-.2,.3,-.5,.7,-.6,1c-.1,.2,-.4,.5,-.5,.8c-.2,.3,-.3,.6,-.4,.7c0,.4,-.1,.8,-1.1,2.6c-.8,1.5,-1,2,-1.7,3.7c-.5,1,-.8,2.2,-.7,2.3L128,653c-.3,0,-.5,1.8,-.2,2.9c.1,.8,.1,1.1,-.2,1.3c-.6,.4,-1.1,1.1,-1.3,1.6c-.1,.4,-.2,.6,-.4,.6q-.2,0,-.3,-.2Z" class="g2_71"/>
<path d="M133.1,645.7c-.1,0,-.3,-.1,-.4,-.1c-.1,0,-.1,.1,0,.2c.1,0,.3,.1,.4,0q.2,0,0,-.1Z" class="g1_71"/>
<path d="M144.5,626.7c0,-.1,0,-.2,-.1,-.1q-.1,0,-.2,.1q0,.1,.1,.1c.1,0,.2,-.1,.2,-.1Z" class="g1_71"/>
<path d="M125.7,659.3c-.1,-.1,-.1,-.2,-.1,-.3c.1,-.1,.1,-.9,.1,-1.7c0,-1.4,.1,-2.2,.4,-3.5l.1,-.6l-.5,-1c-.3,-.5,-.5,-1.3,-.6,-1.6c-.1,-.4,-.3,-.8,-.3,-1c-.2,-.7,-.3,-2.8,-.3,-3.9c.1,-1.1,.5,-2.6,.7,-2.6c.1,0,.2,.1,.4,.6c.5,.7,.7,.7,.3,-.1c-.4,-.8,-.7,-1.9,-.7,-2.5c0,-.4,.5,-1.9,.9,-2.7c.2,-.4,.3,-.5,.5,-.5c.3,-.1,.3,0,.9,.9l.5,.7l-.4,-.8c-.5,-1.1,-.4,-1.7,.3,-2.9c.3,-.5,.6,-1,.7,-1.1c.1,-.1,.4,-.4,.6,-.7c.3,-.3,.8,-.7,1.2,-1c.3,-.2,.7,-.6,.9,-.8c.4,-.5,.6,-.4,1,.2l.2,.3l-.1,-.4c-.1,-.8,0,-1,.8,-1.7c.5,-.3,.9,-.5,1,-.5c0,0,.1,-.1,.1,-.1c0,-.1,.1,-.1,.3,-.1c.2,-.1,.2,0,.2,.1c-.1,0,-.1,.1,-.2,.1c-.1,0,-.4,.3,-.7,.6c-.4,.3,-.8,.6,-.9,.6c-.3,.2,-.3,.3,-.3,.7c0,.3,.1,.7,.2,.9c.1,.4,.1,.9,0,1c-.2,0,-.4,-.3,-.7,-.9l-.3,-.7l-.4,.3c-.1,.1,-.3,.3,-.3,.3c-.1,.1,-.3,.3,-.6,.5c-.3,.2,-.6,.5,-.7,.6c-.1,.1,-.3,.3,-.6,.6c-.6,.6,-1.6,2.2,-1.5,2.5c.1,.3,1,2.2,1.7,3.5c.5,.9,.6,1,.4,1c-.2,0,-1.2,-.8,-1.6,-1.4c-.3,-.3,-.6,-.7,-.8,-.9c-.1,-.2,-.3,-.5,-.4,-.6c-.2,-.4,-.4,-.4,-.6,0c-.3,.4,-.8,2.1,-.9,2.4c-.1,.8,.6,2.7,1.5,3.8c.7,1,.7,1.3,-.1,.8c-.3,-.2,-1.3,-1.2,-1.5,-1.6c0,-.1,-.1,-.2,-.1,-.1c-.2,0,-.4,1,-.4,1.7c0,.3,0,.7,-.1,.8c0,.2,0,.7,.1,1.3c.1,.6,.1,1.3,.1,1.6c.1,.6,1,3,1.1,3c.1,0,.1,-.1,.1,-.1c0,0,.1,-.5,.3,-1.1c.2,-.6,.3,-1.3,.4,-1.5c0,-.2,.1,-.4,.1,-.5c.1,-.1,.2,-.4,.3,-.7c.1,-.5,.2,-.8,1.1,-2.6c.3,-.6,.7,-1.5,.9,-2c.8,-1.6,1.6,-3.2,2.2,-4.2c.7,-1,1.1,-1.6,1.9,-2.9c.2,-.4,.6,-.9,.7,-1.1c.2,-.2,.3,-.5,.3,-.5c.1,-.1,.3,-.4,.6,-.7c.2,-.3,.6,-.8,.8,-1.1c.9,-1.2,1.1,-1.3,1.2,-1.2c.2,.1,.2,.2,-.6,1.1c-.2,.3,-.6,.9,-.8,1.3c-.8,1.3,-2.1,3.4,-2.4,3.8c-.6,.9,-1.5,2.5,-1.5,2.8c0,.1,-.5,1.3,-1.2,2.6c-.7,1.3,-1.3,2.7,-1.5,3.1c-.1,.4,-.3,.7,-.3,.8c-.1,.1,-.5,1.2,-.6,1.8c0,.2,-.1,.7,-.1,.9c-.2,.8,-.3,2,-.3,2.1c0,0,.1,0,.3,-.1c.1,-.1,.3,-.3,.6,-.5c.2,-.2,.5,-.5,.8,-.7c.2,-.2,.4,-.4,.5,-.5c.6,-.6,.9,-.9,1.2,-1.4c.3,-.4,.6,-.7,.7,-.9c.3,-.2,1.2,-2,1.2,-2.1c-.1,0,-.4,-.2,-.9,-.5c-.9,-.4,-1,-.6,-.8,-.7c.1,0,1,.1,1.8,.3c.2,0,.7,0,1,0c.9,0,1.4,-.4,1.6,-1c.1,-.3,.2,-.6,.2,-.8c.1,-.3,.3,-1,.3,-1.5c.1,-.5,.4,-1.3,.6,-1.6l.2,-.4l-.5,.1c-.5,0,-1.6,-.2,-1.7,-.4c-.1,-.2,.7,-.6,1.6,-.8l.8,-.1l.2,-.6c.2,-.3,.3,-.7,.4,-.9c0,-.1,.1,-.4,.2,-.4c.1,-.1,.3,-.4,.4,-.6c0,-.3,.3,-.7,.4,-.9c1.4,-2,1.6,-2.3,1.5,-2.3c-.1,0,-.4,.1,-.6,.2c-.7,.3,-1.5,.3,-1.5,0c0,-.3,1.8,-1.3,2.7,-1.6c.4,0,.4,-.1,.4,-.5c0,-.3,.2,-.6,.3,-.8c.1,-.2,.3,-.5,.4,-.7c.3,-.5,2.2,-2.1,3.2,-2.8c.7,-.4,1.8,-1,2.7,-1.3l.7,-.3l-1.6,.2c-2.6,.3,-3.7,.7,-4.4,1.4c-.3,.4,-.4,.4,-.5,.2c-.1,-.2,.6,-1,1.2,-1.2c.6,-.3,1.7,-.5,2.4,-.6c.4,0,1.5,-.2,2.5,-.4c1.5,-.2,1.8,-.3,1.9,-.2c.4,.2,.3,.4,-.2,.6c-1.1,.4,-2.2,.9,-2.9,1.2c-.7,.4,-2,1.1,-2.2,1.3c-.1,0,-.3,.2,-.6,.4c-.9,.8,-1.6,1.5,-1.8,1.8c-.1,.2,-.3,.5,-.4,.6c-.1,.2,-.3,.5,-.3,.7c0,.3,-.1,.5,-.4,.7c-.2,.1,-.5,.2,-.6,.2l-.2,.1h.2c.4,.1,.5,.3,.3,.5c0,.1,-.1,.2,-.1,.3c.1,.1,-.1,.3,-.4,.6c-.2,.3,-.5,.6,-.6,.8c-.1,.2,-.3,.5,-.4,.7c-.4,.5,-.6,.9,-.7,1.2c0,.1,-.2,.4,-.4,.7c-.3,.5,-.4,.9,-.7,1.7c-.1,.3,-.2,.3,-.7,.4c-.7,.1,-1.5,.4,-1.4,.5c0,0,.4,0,.9,-.1c.8,-.1,.9,-.1,1,.1c.1,.1,.1,.3,-.2,.6c-.3,.6,-.7,1.7,-.7,2.2c0,.3,-.3,1.3,-.6,2.1c-.1,.3,-.2,.5,-.6,.8c-.5,.3,-.6,.3,-1.2,.3c-.4,0,-.9,0,-1,-.1c-.2,-.1,-.5,-.1,-.8,-.2h-.6l.5,.2c.3,.1,.6,.2,.7,.2c.5,0,.5,.1,.6,.2c.1,.1,-.9,2,-1.3,2.5c-.2,.2,-.5,.6,-.7,.8c-.1,.2,-.3,.5,-.4,.6c-.2,.1,-.4,.3,-.6,.5c-.4,.5,-1.3,1.4,-1.7,1.6c-.1,.1,-.4,.3,-.5,.5c-.1,.1,-.3,.2,-.5,.3c-.2,.1,-.3,.2,-.3,.4c-.1,.5,-.1,1.9,-.1,2.1c0,.1,.1,.5,.1,.8c.1,.6,.1,.7,-.2,.9c-.4,.4,-1,1.2,-1.3,1.7c-.1,.3,-.2,.6,-.2,.6c-.1,0,-.2,-.1,-.3,-.1Z" class="g3_71"/>
<path d="M128.2,638.9q-.1,-.2,-.1,-.1c-.1,.2,0,.4,.1,.4c.1,-.1,.1,-.2,0,-.3Z" class="g3_71"/>
<path d="M139.7,633.1c.2,-.2,.5,-.3,.7,-.5l.2,-.2l-.3,.1c-.5,.1,-1.4,.6,-1.4,.7c0,.1,.3,.1,.8,-.1Z" class="g4_71"/>
<path d="M139.7,633c.4,-.2,.6,-.4,.2,-.3c-.3,.1,-.9,.5,-.7,.5c0,0,.3,-.1,.5,-.2Z" class="g1_71"/>
<path d="M134.9,629.8c0,-.1,.6,-.5,.7,-.5c.2,.1,.2,.2,-.1,.3c-.1,0,-.3,.1,-.4,.2q-.1,0,-.2,0Z" class="g3_71"/>
<path d="M136.2,629c.1,-.1,.2,-.2,.3,-.2q.2,0,.1,.2c-.1,.1,-.2,.2,-.3,.2q-.2,0,-.1,-.2Z" class="g3_71"/>
<path d="M137.1,628.5c.1,-.1,.6,-.3,.7,-.2c0,.1,-.5,.4,-.7,.4q-.1,0,0,-.2Z" class="g3_71"/>
<path d="M137.9,628.2c0,-.1,.8,-.5,1.3,-.7c.3,0,.6,-.1,.7,-.2c.4,-.3,1.9,-.9,2.1,-.8c.2,.1,.1,.4,-.2,.4c-.5,0,-1.7,.5,-3,1.1c-.6,.3,-.8,.3,-.9,.2Z" class="g3_71"/>
<path d="M125.7,659.2c0,0,0,-.1,0,-.2c0,-.1,.1,-.6,.1,-1.2c0,-1.4,0,-1.9,.3,-4.1l.1,-.6l-.5,-1c-.3,-.7,-.5,-1.2,-.6,-1.6c-.1,-.3,-.2,-.8,-.2,-.9c-.3,-1.1,-.4,-4.2,-.1,-5.2c.1,-.4,.2,-.8,.2,-1c.1,-.4,.2,-.3,.7,.4c.6,1,.9,.9,.3,-.1c-.4,-.7,-.8,-2,-.8,-2.6c0,-.4,.6,-1.9,1,-2.7c.1,-.3,.2,-.4,.4,-.5c.2,0,.3,.1,.5,.4c.5,.6,.6,.9,.5,.9c-.1,0,-.3,-.2,-.4,-.5c-.4,-.7,-.6,-.6,-1.2,.9c-.7,1.8,-.6,2.4,.7,4.7c.5,.9,.8,1.5,.7,1.5c-.2,.1,-1.4,-1,-1.7,-1.6c-.1,-.1,-.2,-.2,-.3,-.3c-.1,-.1,-.1,0,-.2,.1c-.3,.9,-.4,2.6,-.2,4.1c0,.5,.1,1.1,.1,1.3c0,.6,1,3.2,1.2,3.1c.1,0,.1,-.1,.1,-.2c0,-.2,.1,-.7,.3,-1.3c.2,-.6,.3,-1.2,.4,-1.4c0,-.1,0,-.3,.1,-.3c.1,0,.4,-1.1,.4,-1.2c0,0,.1,-.3,.2,-.6c.9,-1.9,1.3,-2.8,1.6,-3.5c.8,-1.6,1.6,-3.2,2.3,-4.2c.7,-1.2,1.3,-2.1,1.9,-3.1c.2,-.3,.5,-.8,.7,-1c.1,-.2,.3,-.4,.3,-.5c0,-.1,.6,-.7,.9,-1.1c.1,-.1,.3,-.3,.5,-.6c.6,-.9,1,-1.3,1.1,-1.3c.1,.1,.1,0,-.6,.9c-.2,.4,-.7,1.1,-.9,1.5c-.8,1.4,-2,3.3,-2.3,3.7c-.6,.7,-1.6,2.6,-1.6,2.9c0,.1,-.5,1.3,-1.2,2.6c-.6,1.2,-1.3,2.6,-1.4,3c-.2,.4,-.4,1,-.6,1.3c-.2,.7,-.4,1.5,-.4,1.9c0,.1,-.1,.4,-.1,.6c-.1,.3,-.2,.8,-.2,1.2c-.1,.6,-.1,.7,.1,.7c.1,.1,.2,0,.2,-.1c.1,0,.3,-.3,.6,-.5c.3,-.2,.5,-.4,.6,-.5c0,-.1,.3,-.3,.5,-.5c.7,-.6,1.1,-1,1.5,-1.6c.3,-.4,.6,-.7,.7,-.8c.2,-.3,1.1,-1.9,1.1,-2.1c0,-.1,-.1,-.2,-.6,-.5c-.7,-.3,-.6,-.4,.1,-.1c.3,.1,.6,.2,.7,.2c.4,-.1,.3,.2,-.2,1.3c-.3,.6,-.7,1.2,-.9,1.4c-.1,.1,-.4,.5,-.6,.7c-.2,.3,-.4,.6,-.5,.7c-.1,.1,-.3,.3,-.5,.4c-.1,.2,-.4,.5,-.6,.7c-.2,.2,-.5,.4,-.6,.6c-.1,.1,-.3,.2,-.3,.2c-.1,0,-.3,.2,-.5,.4c-.2,.2,-.5,.4,-.7,.4c-.2,.1,-.3,.3,-.3,.7c-.1,.4,-.1,.7,-.1,.7c0,.1,0,.3,0,.6c0,.3,.1,.7,.1,.9c.2,.9,.1,1.2,-.1,1.4c-.4,.2,-1.1,1.2,-1.3,1.7c-.2,.5,-.3,.6,-.5,.4Z" class="g5_71"/>
<path d="M134,645.7c-.4,0,-.8,-.1,-1,-.1c-.2,-.1,-.4,-.1,-.5,-.1c-.1,0,-.3,0,-.4,-.1c-.1,-.1,-.3,-.1,-.4,0c-.1,0,-.2,0,-.3,-.1c-.1,-.2,.3,-.2,1.8,.1c1.4,.3,2.5,-.1,2.7,-1c0,-.2,.1,-.6,.2,-.8c.1,-.2,.2,-.6,.2,-.8c.1,-.3,.1,-.8,.3,-1.6c.1,-.2,.2,-.6,.4,-.7c.1,-.2,.2,-.4,.1,-.4c0,0,-.2,0,-.4,0c-.4,.1,-1.6,-.1,-1.7,-.3c-.1,-.2,.8,-.6,2,-.8c.3,0,.4,-.1,.6,-.7c.6,-1.5,1.6,-3.2,2.9,-4.9c.1,-.2,.1,-.3,0,-.3c0,0,-.3,0,-.7,.2c-.6,.2,-1.3,.3,-1.4,.1c0,0,0,-.1,.1,-.2q.2,0,.2,.1c.1,.1,.1,.2,.1,.2c.3,-.1,1.3,-.5,1.6,-.7c.3,-.3,.6,-.4,.6,-.2c.1,.1,-.1,.8,-.2,1c-.2,.1,-.5,.5,-.7,.9c-.1,.1,-.4,.4,-.6,.7c-.3,.6,-.5,.9,-.6,1.3c-.1,.1,-.3,.4,-.4,.7c-.3,.5,-.6,1.1,-.8,1.7c-.1,.2,-.2,.2,-.7,.3c-.8,.2,-1.6,.5,-1.4,.6c0,.1,.4,.1,1,0c.8,-.1,.9,-.1,1,0c0,.1,-.1,.4,-.3,.6c-.3,.6,-.6,1.6,-.7,2.1c0,.3,-.1,.7,-.2,1c-.1,.3,-.2,.7,-.2,.8c-.1,.6,-.4,.9,-.8,1.1c-.6,.4,-.7,.4,-1.4,.3Z" class="g5_71"/>
<path d="M129.6,641.4c-.2,-.1,-.4,-.3,-.5,-.4c-.3,-.2,-1,-1,-1,-1.1c0,0,.1,-.1,.1,-.1c.1,0,.5,.4,.6,.6c.1,.1,.2,.1,.2,.1c.1,0,.1,-.1,-.1,-.3c-.1,-.2,-.3,-.5,-.4,-.8c-.1,-.2,-.4,-.8,-.6,-1.3c-.3,-.5,-.5,-1,-.5,-1.1c0,-.1,.2,-.6,.5,-1.1c.6,-1,1.6,-2.2,2.5,-2.8c.4,-.3,.8,-.6,.9,-.8c.4,-.5,.6,-.5,.9,.2c.2,.6,.3,.6,.4,.5c.1,0,.2,0,.2,0c0,0,.1,.2,.1,.4c.1,.6,-.1,.4,-.6,-.4c-.4,-.7,-.5,-.8,-.7,-.5c-.1,.1,-.7,.6,-1.1,.9c-.7,.4,-1.8,1.8,-2.5,2.9l-.4,.7l.7,1.4c.7,1.4,1.1,2.2,1.5,2.7c.2,.4,.2,.6,-.2,.3Z" class="g5_71"/>
<path d="M128.1,639.4c-.1,-.1,0,-.1,0,-.1c.1,-.1,.1,0,.2,.1c0,.1,0,.2,0,.2c-.1,0,-.2,-.1,-.2,-.2Z" class="g5_71"/>
<path d="M127.6,638.4c-.3,-.6,-.2,-.8,0,-.4c.2,.2,.4,.8,.3,.9c-.1,0,-.2,-.1,-.3,-.5Z" class="g5_71"/>
<path d="M140.1,632.3c.5,-.3,1.1,-.5,1.2,-.4c.1,.2,-.1,.3,-.8,.4c-.8,.3,-.9,.3,-.4,0Z" class="g5_71"/>
<path d="M141.5,631.8c0,0,0,-.2,0,-.4c0,-.5,.7,-1.7,1.3,-2.3c1.7,-1.6,3.9,-3,5.7,-3.5c.6,-.2,.6,-.4,-.1,-.2c-.3,0,-1.3,.2,-2.2,.3c-1,.1,-1.9,.3,-2.1,.4c-.4,.1,-1.2,.6,-1.5,.9c-.2,.3,-.3,.3,-.4,.2c-.1,-.2,.9,-1,1.4,-1.2c1.1,-.4,1.4,-.4,2.1,-.5c.4,0,1.6,-.2,2.6,-.4c1.8,-.3,2,-.3,2.1,0c0,0,-.3,.2,-.7,.3c-2.5,1,-4.4,2,-5.3,2.8c-.2,.2,-.4,.4,-.4,.4c-.1,0,-.2,0,-.3,.1c-.1,.1,-.3,.4,-.6,.6c-.2,.2,-.5,.6,-.6,.8c-.1,.1,-.3,.4,-.5,.5c-.1,.2,-.2,.5,-.3,.7c0,.4,-.1,.6,-.2,.5Z" class="g5_71"/>
<path d="M132.6,632.3c-.1,-.2,-.2,-.7,-.1,-1c0,0,.3,-.3,.6,-.5c.3,-.2,.7,-.4,.8,-.5l.2,-.2l-.1,.2c-.2,.3,-1,1,-1.2,1.1c-.1,0,-.2,.2,-.2,.4c0,.1,0,.3,0,.5c0,.1,0,.2,0,0Z" class="g5_71"/>
<path d="M141.5,626.7c.2,-.2,.5,-.2,.5,-.1c0,.1,-.1,.2,-.3,.2q-.4,0,-.2,-.1Z" class="g5_71"/>
<path d="M125.7,659.2c0,0,0,-.1,0,-.2c0,-.1,.1,-.6,.1,-1.2c0,-1.3,0,-1.8,.4,-4.2q0,-.5,-.5,-1.5c-.3,-.7,-.5,-1.2,-.6,-1.6c-.1,-.3,-.2,-.8,-.2,-.9c-.3,-1.1,-.4,-4.2,-.1,-5.2c.1,-.4,.2,-.8,.2,-1c.1,-.4,.2,-.3,.7,.4c.6,1,.9,.9,.3,-.1c-.4,-.7,-.8,-2,-.8,-2.6c0,-.4,.6,-1.9,1,-2.7c.1,-.3,.2,-.4,.4,-.5c.2,0,.3,.1,.5,.4c.5,.6,.6,.9,.5,.9c-.1,0,-.3,-.2,-.4,-.5c-.4,-.7,-.6,-.6,-1.2,.9c-.7,1.8,-.6,2.4,.7,4.7c.5,.9,.8,1.5,.7,1.5c-.2,.1,-1.4,-1,-1.7,-1.6c-.1,-.1,-.2,-.2,-.3,-.3c-.1,-.1,-.1,0,-.2,.1c-.3,.9,-.4,2.6,-.2,4.1c0,.5,.1,1.1,.1,1.3c0,.6,1,3.2,1.2,3.1c.1,0,.1,-.1,.1,-.2c0,-.2,.1,-.7,.3,-1.3c.2,-.6,.3,-1.2,.4,-1.4c0,-.1,0,-.3,.1,-.3c.1,0,.4,-1.1,.4,-1.2c0,0,.1,-.3,.2,-.6c.9,-1.9,1.3,-2.8,1.6,-3.5c.8,-1.6,1.6,-3.2,2.3,-4.2c.7,-1.2,1.3,-2.1,1.9,-3.1c.2,-.3,.5,-.8,.7,-1c.1,-.2,.3,-.4,.3,-.5c0,-.1,.6,-.7,.9,-1.1c.1,-.1,.3,-.3,.5,-.6c.6,-.9,1,-1.3,1.1,-1.3c.1,.1,.1,0,-.7,1.1c-1.5,2,-2.3,3.2,-3.6,5.4c-.3,.4,-.7,1.1,-1,1.5c-.4,.6,-.5,.8,-.4,.9c.4,0,.3,.4,-.8,2.6c-.7,1.3,-1.4,2.7,-1.5,3.1c-.2,.4,-.4,1,-.6,1.3c-.2,.7,-.4,1.5,-.4,1.9c0,.1,-.1,.4,-.1,.6c-.1,.3,-.2,.8,-.2,1.2c-.1,.6,-.1,.7,.1,.7c.1,.1,.2,0,.2,-.1c.1,0,.3,-.3,.6,-.5c.3,-.2,.5,-.4,.6,-.5c0,-.1,.3,-.3,.5,-.5c.7,-.6,1.1,-1,1.5,-1.6c.3,-.4,.6,-.7,.7,-.8c.2,-.3,1.1,-1.9,1.1,-2.1c0,-.1,-.1,-.2,-.6,-.5c-.7,-.3,-.6,-.4,.1,-.1c.3,.1,.6,.2,.7,.2c.4,-.1,.3,.2,-.2,1.3c-.3,.6,-.7,1.2,-.9,1.4c-.1,.1,-.4,.5,-.6,.7c-.2,.3,-.4,.6,-.5,.7c-.1,.1,-.3,.3,-.5,.4c-.1,.2,-.4,.5,-.6,.7c-.2,.2,-.5,.4,-.6,.6c-.1,.1,-.3,.2,-.3,.2c-.1,0,-.3,.2,-.5,.4c-.2,.2,-.5,.4,-.7,.4c-.2,.1,-.3,.3,-.3,.7c-.1,.4,-.1,.7,-.1,.7c0,.1,0,.3,0,.6c0,.3,.1,.7,.1,.9c.2,.9,.1,1.2,-.1,1.4c-.4,.2,-1.1,1.2,-1.3,1.7c-.2,.5,-.3,.6,-.5,.4Z" class="g6_71"/>
<path d="M134,645.7c-.4,0,-.8,-.1,-1,-.1c-.2,-.1,-.4,-.1,-.5,-.1c-.1,0,-.3,0,-.4,-.1c-.1,-.1,-.3,-.1,-.4,0c-.1,0,-.2,0,-.3,-.1c-.1,-.2,.3,-.2,1.8,.1c1.4,.3,2.5,-.1,2.7,-1c0,-.2,.1,-.6,.2,-.8c.1,-.2,.2,-.6,.2,-.8c.1,-.3,.1,-.8,.3,-1.6c.1,-.2,.2,-.6,.4,-.7c.1,-.2,.2,-.4,.1,-.4c0,0,-.2,0,-.4,0c-.4,.1,-1.6,-.1,-1.7,-.3c-.1,-.2,.8,-.6,2,-.8c.3,0,.4,-.1,.6,-.7c.6,-1.5,1.6,-3.2,2.9,-4.9c.1,-.2,.1,-.3,0,-.3c0,0,-.3,0,-.7,.2c-.6,.2,-1.3,.3,-1.4,.1c0,0,0,-.1,.1,-.2q.2,0,.2,.1c.1,.1,.1,.2,.1,.2c.3,-.1,1.3,-.5,1.6,-.7c.3,-.3,.6,-.4,.6,-.2c.1,.1,-.1,.8,-.2,1c-.2,.1,-.5,.5,-.7,.9c-.1,.1,-.4,.4,-.6,.7c-.3,.6,-.5,.9,-.6,1.3c-.1,.1,-.3,.4,-.4,.7c-.3,.5,-.6,1.1,-.8,1.7c-.1,.2,-.2,.2,-.7,.3c-.8,.2,-1.6,.5,-1.4,.6c0,.1,.4,.1,1,0c.8,-.1,.9,-.1,1,0c0,.1,-.1,.4,-.3,.6c-.3,.6,-.6,1.6,-.7,2.1c0,.3,-.1,.7,-.2,1c-.1,.3,-.2,.7,-.2,.8c-.1,.6,-.4,.9,-.8,1.1c-.6,.4,-.7,.4,-1.4,.3Z" class="g6_71"/>
<path d="M129.6,641.4c-.2,-.1,-.4,-.3,-.5,-.4c-.3,-.2,-1,-1,-1,-1.1c0,0,.1,-.1,.1,-.1c.1,0,.5,.4,.6,.6c.1,.1,.2,.1,.2,.1c.1,0,.1,-.1,-.1,-.3c-.1,-.2,-.3,-.5,-.4,-.8c-.1,-.2,-.4,-.8,-.6,-1.3c-.3,-.5,-.5,-1,-.5,-1.1c0,-.1,.2,-.6,.5,-1.1c.6,-1,1.6,-2.2,2.5,-2.8c.4,-.3,.8,-.6,.9,-.8c.4,-.5,.6,-.5,.9,.2c.2,.6,.3,.6,.4,.5c.1,0,.2,0,.2,0c0,0,.1,.2,.1,.4c.1,.6,-.1,.4,-.6,-.4c-.4,-.7,-.5,-.8,-.7,-.5c-.1,.1,-.7,.6,-1.1,.9c-.7,.4,-1.8,1.8,-2.5,2.9l-.4,.7l.7,1.4c.7,1.4,1.1,2.2,1.5,2.7c.2,.4,.2,.6,-.2,.3Z" class="g6_71"/>
<path d="M128.1,639.4c-.1,-.1,0,-.1,0,-.1c.1,-.1,.1,0,.2,.1c0,.1,0,.2,0,.2c-.1,0,-.2,-.1,-.2,-.2Z" class="g6_71"/>
<path d="M127.6,638.4c-.3,-.6,-.2,-.8,0,-.4c.2,.2,.4,.8,.3,.9c-.1,0,-.2,-.1,-.3,-.5Z" class="g6_71"/>
<path d="M140.1,632.3c.5,-.3,1.1,-.5,1.2,-.4c.1,.2,-.1,.3,-.8,.4c-.8,.3,-.9,.3,-.4,0Z" class="g6_71"/>
<path d="M141.5,631.8c0,0,0,-.2,0,-.4c0,-.5,.7,-1.7,1.3,-2.3c1.7,-1.6,3.9,-3,5.7,-3.5c.6,-.2,.6,-.4,-.1,-.2c-.3,0,-1.3,.2,-2.2,.3c-1,.1,-1.9,.3,-2.1,.4c-.4,.1,-1.2,.6,-1.5,.9c-.2,.3,-.3,.3,-.4,.2c-.1,-.2,.9,-1,1.4,-1.2c1.1,-.4,1.4,-.4,2.1,-.5c.4,0,1.6,-.2,2.6,-.4c1.8,-.3,2,-.3,2.1,0c0,0,-.3,.2,-.7,.3c-2.5,1,-4.4,2,-5.3,2.8c-.2,.2,-.4,.4,-.4,.4c-.1,0,-.2,0,-.3,.1c-.1,.1,-.3,.4,-.6,.6c-.2,.2,-.5,.6,-.6,.8c-.1,.1,-.3,.4,-.5,.5c-.1,.2,-.2,.5,-.3,.7c0,.4,-.1,.6,-.2,.5Z" class="g6_71"/>
<path d="M132.6,632.3c-.1,-.2,-.2,-.7,-.1,-1c0,0,.3,-.3,.6,-.5c.3,-.2,.7,-.4,.8,-.5l.2,-.2l-.1,.2c-.2,.3,-1,1,-1.2,1.1c-.1,0,-.2,.2,-.2,.4c0,.1,0,.3,0,.5c0,.1,0,.2,0,0Z" class="g6_71"/>
<path d="M141.5,626.7c.2,-.2,.5,-.2,.5,-.1c0,.1,-.1,.2,-.3,.2q-.4,0,-.2,-.1Z" class="g6_71"/>
<path d="M127.2,656.9c.1,-.1,.1,-.3,.1,-.6c-.1,-.2,-.1,-.8,-.1,-1.4c0,-.5,0,-1,0,-1c0,-.1,0,-.2,0,-.3c0,-.2,.1,-.5,.1,-.8c.1,-1.3,.1,-1.6,.5,-3.1c0,-.2,.1,-.6,.1,-.8c.2,-.9,1.2,-3.1,2.4,-5.4c.6,-1.3,.9,-2,.9,-2.1c0,0,-.3,.4,-.6,1c-.3,.6,-.7,1.4,-.9,1.8c-.9,1.8,-1.9,4,-2,4.5c0,.2,-.2,.6,-.3,.9c0,.2,-.1,.4,-.1,.5c.1,.1,-.3,1.3,-.5,1.8c0,.2,-.1,.6,-.1,.8c-.1,.3,-.2,.7,-.2,1c-.3,1,-.5,2.6,-.3,2.9c0,.1,.2,.2,.4,.2c.4,.2,.3,.2,.6,.1Z" class="g5_71"/>
<path d="M124.9,649.6c-.1,-.2,-.3,-2,-.3,-3.2c0,-.8,.1,-1.6,.2,-2.2c.1,-.3,.2,-.7,.2,-.8c.1,-.4,.3,-.3,.6,.2c.1,.3,.4,.7,.6,.9l.3,.4l-.1,-.4c-.1,-.2,-.4,-.7,-.5,-1.1c-.4,-.9,-.7,-2.2,-.6,-2.7c.1,-.4,.6,-1.6,.9,-2.3c.2,-.5,.6,-.6,.8,-.3q0,.1,-.2,.2c-.2,0,-.3,.1,-.5,.4c-.6,1.3,-.8,2.4,-.8,3c.1,.2,.3,.9,.5,1.4c.3,.9,.5,1.2,1,1.8c.3,.4,.5,.8,.5,.9c0,.1,-.6,-.2,-.9,-.5c-.1,-.1,-.3,-.3,-.4,-.5c-.1,-.1,-.4,-.4,-.6,-.7l-.3,-.4l-.1,.2c-.4,.9,-.5,2.5,-.3,4.4c.1,1.2,.1,1.6,0,1.3Z" class="g7_71"/>
<path d="M133.7,645.7c-.2,0,-.4,-.1,-.6,-.1c-.2,-.1,-.4,-.1,-.5,-.1c-.2,0,-.8,-.2,-.8,-.3c0,0,.5,.1,1,.2c1.3,.2,2,.1,2.5,-.2c.4,-.3,.5,-.5,.8,-1.3c.2,-1,.3,-1.1,.3,-1.6c.1,-.6,.2,-1,.6,-1.7c.1,-.3,.2,-.5,.2,-.6c0,0,-.2,0,-.5,.1c-.3,.1,-.5,.1,-1.1,-.1l-.6,-.1l.1,-.2c.2,-.2,.8,-.5,1.6,-.6l.7,-.1l.3,-.7c.5,-1.4,1.6,-3.2,2.4,-4.4c.3,-.4,.5,-.8,.4,-.8q0,-.2,-.7,.1q-.7,.4,-.7,.3c0,-.1,.2,-.2,.3,-.2c.2,0,.5,-.3,.8,-.5c.4,-.2,.7,-.3,.8,-.2c.2,.1,-.1,.7,-.5,1.2c-.7,.8,-2,3,-2.6,4.5c-.1,.3,-.2,.6,-.3,.7c0,0,-.2,.1,-.3,.2c-.8,.1,-1,.1,-1.4,.3q-.5,.2,-.3,.3c0,.1,.3,.1,1,0c.7,-.1,.9,-.1,.9,0c.1,.1,-.1,.4,-.3,.8c-.4,.8,-.6,1.4,-.6,2c0,.2,-.1,.6,-.2,1c-.2,.4,-.2,.7,-.2,.7c0,.1,-.1,.3,-.2,.5c-.3,.7,-1.2,1,-2.3,.9Z" class="g7_71"/>
<path d="M131.5,645.3c0,0,0,-.1,.1,-.1c0,0,.1,0,.1,.1h-.1q0,.1,-.1,0Z" class="g7_71"/>
<path d="M129.3,641.2c-.6,-.5,-1.3,-1.4,-.9,-1.2c.1,.1,.3,.2,.3,.3c.1,.2,.4,.3,.5,.3c0,-.1,.5,.4,.6,.7c.1,.1,.1,.3,.1,.3c0,0,-.3,-.2,-.6,-.4Z" class="g7_71"/>
<path d="M128.8,640c0,0,-.2,-.2,-.2,-.5c-.1,-.2,-.4,-.8,-.6,-1.3c-.3,-.5,-.5,-1,-.6,-1.1c0,-.2,.8,-1.9,1.2,-2.3c.1,-.1,.4,-.4,.7,-.7c.3,-.3,.6,-.6,.8,-.8c.6,-.4,.9,-.7,1.3,-1c.2,-.2,.4,-.4,.4,-.3c.3,0,.3,.2,.1,.2c-.1,.1,-.4,.3,-.7,.6c-.4,.3,-.7,.5,-.7,.5c-.2,0,-.4,.2,-.9,.9c-.3,.3,-.5,.5,-.6,.5c0,0,-.9,1.4,-1.2,1.8c-.2,.5,-.2,.6,.4,1.8c.8,1.6,.9,2,.6,1.7Z" class="g7_71"/>
<path d="M127.2,638.8c-.1,-.2,-.1,-.3,0,-.3c.1,0,.2,.2,.3,.3c0,.1,0,.2,0,.3c-.1,0,-.2,-.2,-.3,-.3Z" class="g7_71"/>
<path d="M127.6,638.5c0,-.1,-.1,-.3,-.2,-.4c0,-.1,0,-.2,0,-.2c.1,0,.5,.5,.5,.7c0,.3,-.2,.2,-.3,-.1Z" class="g7_71"/>
<path d="M138.4,633.4c0,0,.1,-.1,.2,-.1c0,0,.1,0,.2,.1c0,0,-.1,.1,-.2,.1c-.1,0,-.2,0,-.2,-.1Z" class="g7_71"/>
<path d="M132.5,633.4c-.1,-.3,.1,-.4,.3,-.1c.1,.2,.1,.4,0,.4c-.1,0,-.2,-.1,-.3,-.3Z" class="g7_71"/>
<path d="M140.3,632.3c-.1,-.1,.8,-.4,.9,-.3c.1,0,.1,.1,0,.1c-.3,.1,-.9,.2,-.9,.2Z" class="g7_71"/>
<path d="M132.2,632.8c-.1,0,-.1,-.1,-.1,-.2c.1,-.1,.1,0,.2,.1c0,.1,0,.2,0,.2q-.1,0,-.1,-.1Z" class="g7_71"/>
<path d="M141.6,631.7c-.1,-.2,0,-.9,.2,-1.1c.1,-.2,.3,-.5,.4,-.7c.2,-.3,.4,-.5,.5,-.6c.1,-.1,.3,-.3,.4,-.4c.4,-.4,2,-1.7,2.8,-2.1c.8,-.4,1.9,-.9,2.8,-1.3c.6,-.2,.6,-.4,0,-.2c-.3,0,-1.3,.2,-2.2,.3c-1.7,.2,-2,.3,-2.4,.4c-.4,.2,-1.2,.7,-1.5,1c-.1,.1,-.2,.2,-.3,.2c-.2,-.1,.8,-1,1.2,-1.2c.7,-.2,1.8,-.5,2.4,-.5c.4,-.1,1.5,-.2,2.4,-.4c.9,-.1,1.7,-.3,1.8,-.2c.3,0,.3,.2,0,.4c-1.4,.5,-2.5,.9,-3.3,1.4c-.8,.4,-1.7,.9,-2,1.1c0,0,-.2,.2,-.4,.4c-1,.8,-1.8,1.6,-2,1.9c-.1,.2,-.2,.3,-.3,.3c-.1,0,-.4,.7,-.4,1.1c0,.2,-.1,.3,-.1,.2Z" class="g7_71"/>
<path d="M132.6,631.3c-.1,0,.6,-.5,1,-.8c.3,-.1,.2,0,-.2,.4c-.4,.4,-.8,.5,-.8,.4Z" class="g7_71"/>
<path d="M141.7,626.7q-.1,0,0,-.1c.1,-.1,.3,0,.2,.1c0,0,-.1,.1,-.2,0Z" class="g7_71"/>
<path d="M125.9,652.4c-.1,-.1,-.1,-.2,0,-.2c0,0,.1,0,.1,.1c.1,.2,.1,.3,.1,.3c-.1,0,-.2,-.1,-.2,-.2Z" class="g8_71"/>
<path d="M129,651.9q0,-.1,.1,-.2q.2,0,.2,.1c-.1,.1,-.4,.2,-.3,.1Z" class="g8_71"/>
<path d="M125.6,651.8q0,-.1,.1,-.1c0,0,.1,.1,.1,.2q0,.1,-.2,-.1Z" class="g8_71"/>
<path d="M129.5,651.4c0,0,.2,-.2,.4,-.4c.2,-.2,.5,-.4,.5,-.6c.2,-.2,.4,-.3,.4,-.2c0,.1,-1,1.1,-1.2,1.2q-.1,.1,-.1,0Z" class="g8_71"/>
<path d="M125.4,651.2c-.1,-.1,-.1,-.3,-.1,-.4c0,-.2,0,-.1,.1,0c0,.1,.1,.3,.1,.4q0,.2,-.1,0Z" class="g8_71"/>
<path d="M131.2,649.6c.2,-.4,1,-1.3,1.1,-1.4c.1,-.1,.1,0,.1,0c.1,0,0,.2,-.2,.3c-.1,.2,-.4,.6,-.6,.9c-.5,.6,-.8,.8,-.4,.2Z" class="g8_71"/>
<path d="M124.8,649.1c0,0,0,-.1,0,-.1c.1,-.1,.1,0,.2,0c0,.1,0,.2,0,.2q-.1,0,-.2,-.1Z" class="g8_71"/>
<path d="M132.5,648c0,-.3,.6,-1.3,.7,-1.2c.1,0,-.6,1.3,-.7,1.3c0,0,0,-.1,0,-.1Z" class="g8_71"/>
<path d="M124.8,648.5c-.1,-.1,-.1,-.2,-.1,-.3c.1,-.2,.2,-.1,.2,.2c0,.1,-.1,.2,-.1,.1Z" class="g8_71"/>
<path d="M124.7,647.8c0,-.1,0,-.2,0,-.3c.1,-.1,.1,.1,.1,.3v.2Z" class="g8_71"/>
<path d="M133.2,646.6c0,-.1,0,-.3,-.1,-.4c-.1,-.1,0,-.2,.1,-.2c.4,0,.5,.1,.2,.5q-.1,.2,-.2,.1Z" class="g8_71"/>
<path d="M124.6,646.7c0,-.2,.1,-.9,.1,-.9c.1,.1,.1,.5,0,.7c0,.2,-.1,.2,-.1,.2Z" class="g8_71"/>
<path d="M134,645.7c-.3,0,-.6,-.1,-.7,-.1q-.2,-.1,.1,-.1c.1,0,.5,0,.9,0c.5,0,.6,0,1,-.3c.3,-.2,.5,-.4,.6,-.6c.2,-.4,.2,-.3,.1,.2c-.1,.3,-.3,.4,-.7,.6c-.5,.3,-.6,.3,-1.3,.3Z" class="g8_71"/>
<path d="M132.4,645.4q-.4,-.1,-.1,-.1c.2,0,.3,.1,.3,.1c.1,0,.1,.1,.1,.1c-.1,0,-.2,-.1,-.3,-.1Z" class="g8_71"/>
<path d="M127,645.6c-.3,-.2,-.5,-.6,-.4,-.6c.1,0,0,-.2,-.1,-.3c-.3,-.6,-1,-2.2,-1,-2.4c0,-.1,.1,0,.3,.5c.1,.3,.6,1.1,1,1.8c.3,.6,.6,1.2,.6,1.2c-.1,0,-.2,-.1,-.4,-.2Z" class="g8_71"/>
<path d="M124.7,645.4c-.1,-.1,0,-.9,.2,-.9c0,-.1,0,0,0,.2c0,.4,-.1,.8,-.2,.7Z" class="g8_71"/>
<path d="M136.1,643.9c0,-.1,.1,-.2,.1,-.3q.1,-.1,.1,0c0,.1,-.1,.3,-.1,.3q-.1,.2,-.1,0Z" class="g8_71"/>
<path d="M126.2,644.7q-.1,-.1,0,-.1c0,.1,.1,.2,.1,.2c0,.1,-.1,0,-.1,-.1Z" class="g8_71"/>
<path d="M124.9,644.3c0,-.1,0,-.2,.1,-.4c0,-.1,.1,-.3,.1,-.5c0,-.3,.3,-.2,.4,.2c0,.2,0,.3,0,.2c-.1,-.1,-.4,-.2,-.4,0c.1,.1,-.1,.6,-.2,.5Z" class="g8_71"/>
<path d="M136.3,643.2c0,0,.1,-.1,.1,-.3q.1,-.3,.1,.1c0,.2,-.1,.3,-.2,.2Z" class="g8_71"/>
<path d="M136.5,642c0,-.1,0,-.2,.1,-.3c0,0,.1,0,0,.1c0,.1,0,.2,0,.3q-.1,0,-.1,-.1Z" class="g8_71"/>
<path d="M136.7,641.4c-.1,-.1,.1,-.6,.3,-.9c.2,-.2,.2,-.4,.2,-.4c-.1,-.1,-.3,-.1,-.7,0c-.7,.1,-.8,-.1,-.1,-.2c.4,-.1,.8,-.1,.9,-.2c.3,-.1,.3,.2,-.1,1c-.3,.4,-.5,.8,-.5,.7Z" class="g8_71"/>
<path d="M129.5,641.3c-.1,-.1,-.3,-.2,-.5,-.4c-.3,-.2,-.7,-.8,-.5,-.7c.1,0,.2,.1,.2,.2c.1,.1,.3,.2,.4,.3c.2,0,.4,.2,.6,.4c.3,.4,.2,.5,-.2,.2Z" class="g8_71"/>
<path d="M125.3,641.3c0,-.1,0,-.3,0,-.5c.1,-.3,.6,-1.6,.7,-1.7c.1,-.1,.1,.1,-.2,.9c-.1,.4,-.3,.9,-.3,1.2c-.1,.3,-.1,.4,-.2,.1Z" class="g8_71"/>
<path d="M135.4,639.9c-.2,0,-.3,-.1,-.3,-.1c-.1,-.1,.7,-.5,1,-.5c.3,-.1,.2,0,-.2,.2c-.5,.1,-.6,.2,-.4,.4q.2,.1,-.1,0Z" class="g8_71"/>
<path d="M128.8,639.9c-.1,-.1,-.1,-.3,-.2,-.4q0,-.2,.1,0c0,.1,.1,.2,.1,.4q.1,.1,0,0Z" class="g8_71"/>
<path d="M136.9,639.1c.1,-.1,.2,-.1,.3,0c.1,0,0,.1,-.2,.1q-.3,0,-.1,-.1Z" class="g8_71"/>
<path d="M137.5,638.8c.1,-.2,.2,-.4,.2,-.4c.1,0,-.1,.6,-.2,.6c0,.1,0,-.1,0,-.2Z" class="g8_71"/>
<path d="M128.4,638.9c-.1,0,-.2,-.1,-.1,-.2q0,-.2,.1,.1q.2,.3,0,.1Z" class="g8_71"/>
<path d="M137.9,637.9c0,-.1,.1,-.2,.1,-.1c.1,0,0,.3,-.1,.4c-.1,0,-.1,-.1,0,-.3Z" class="g8_71"/>
<path d="M127.3,638.8c-.1,-.1,-.1,-.2,0,-.1q.2,.1,.1,.2q0,.1,-.1,-.1Z" class="g8_71"/>
<path d="M126,638.9c-.1,-.2,.5,-1,.7,-.9c.3,0,.3,.2,.1,.2c-.2,.1,-.4,.3,-.5,.4c-.1,.3,-.2,.4,-.3,.3Z" class="g8_71"/>
<path d="M127.6,638.4c-.1,-.2,-.1,-.4,-.1,-.4c.1,-.1,.4,.4,.3,.6c0,.1,0,0,-.2,-.2Z" class="g8_71"/>
<path d="M138,637.5c0,-.1,.2,-.5,.3,-.5c.1,0,.1,-.1,.2,-.3c.1,-.4,1,-1.8,2,-3.3c.1,-.2,.1,-.3,0,-.4c-.1,-.1,-.1,-.2,.1,-.3c.1,-.1,.2,-.2,.3,-.1c.2,.1,0,.7,-.2,.9c-.3,.3,-1.4,2,-1.7,2.5c-.6,1.2,-.9,1.6,-1,1.5Z" class="g8_71"/>
<path d="M127.9,638c-.1,-.1,-.1,-.2,0,-.2c0,0,.1,0,.1,.1c0,0,0,.1,0,.1c0,.1,-.1,0,-.1,0Z" class="g8_71"/>
<path d="M127.5,637.4c0,-.1,0,-.2,0,-.3q0,-.1,.1,.1c.1,.2,.2,.3,.1,.3c0,0,-.1,-.1,-.2,-.1Z" class="g8_71"/>
<path d="M127.7,636.6c-.1,-.1,0,-.4,.1,-.4c.1,0,.1,.2,0,.3c0,.1,-.1,.1,-.1,.1Z" class="g8_71"/>
<path d="M128,635.8c0,-.1,.1,-.3,.3,-.4c.1,-.1,.2,-.3,.2,-.4q.1,-.1,.2,-.1c.1,-.1,0,.1,-.4,.6c-.2,.3,-.3,.4,-.3,.3Z" class="g8_71"/>
<path d="M129,634.5c.3,-.4,.8,-.9,.8,-.8c.1,0,-.4,.6,-.7,.9l-.2,.2Z" class="g8_71"/>
<path d="M132.6,633.6c-.1,-.1,-.2,-.4,0,-.4c.1,0,.3,.4,.2,.4c0,.1,-.1,.1,-.2,0Z" class="g8_71"/>
<path d="M136.3,633.2c.1,-.2,.2,-.3,.3,-.3c0,0,0,.1,-.1,.2c-.1,.2,-.2,.3,-.3,.3c0,0,0,-.1,.1,-.2Z" class="g8_71"/>
<path d="M130.6,633.1c.1,-.2,.2,-.2,.3,-.2c.1,-.1,-.2,.3,-.4,.3c-.1,0,0,0,.1,-.1Z" class="g8_71"/>
<path d="M140.7,632.2c-.1,0,0,-.1,.1,-.1c.2,-.1,.4,-.1,.4,-.1c0,.1,-.4,.3,-.5,.2Z" class="g8_71"/>
<path d="M131.3,632.4c.2,-.4,.5,-.5,.6,-.3c.1,0,-.2,.3,-.7,.5c0,.1,0,-.1,.1,-.2Z" class="g8_71"/>
<path d="M141.6,631c0,0,.1,-.2,.1,-.3c.1,-.1,.2,-.2,.2,-.1c0,0,0,.1,-.1,.3q-.1,.1,-.2,.1Z" class="g8_71"/>
<path d="M142.2,630c.2,-.4,.8,-1,2.4,-2.2c.8,-.7,2.6,-1.7,3.6,-2.1c1,-.3,1.1,-.4,1.1,-.5c-.2,-.2,.7,-.5,.9,-.3c.2,.2,.1,.3,-.1,.3c-.1,.1,-.5,.2,-.8,.3c-.4,.2,-1,.4,-1.3,.6c-1.1,.4,-1.9,.8,-2.4,1.2c-.2,.1,-.5,.3,-.6,.4c-.1,0,-.4,.2,-.5,.4c-.2,.1,-.4,.3,-.4,.3c0,0,-.2,.1,-.4,.2c-1.1,1.1,-1.3,1.3,-1.3,1.5c0,.1,-.1,.2,-.2,.2q-.1,0,0,-.3Z" class="g8_71"/>
<path d="M133,631c0,0,0,-.1,.1,-.1c0,0,.1,.1,0,.1q0,.1,-.1,.1V631Z" class="g8_71"/>
<path d="M142.3,627.1c0,0,0,-.1,.1,-.2c.1,0,.2,-.1,.2,-.1q0,.1,-.1,.2c-.1,.1,-.2,.1,-.2,.1Z" class="g8_71"/>
<path d="M143,626.4c.1,-.2,.5,-.3,.5,-.2c.1,0,-.3,.3,-.5,.4q-.2,0,0,-.2Z" class="g8_71"/>
<path d="M144.6,625.8c.1,-.1,.2,-.1,.3,-.1q.1,0,0,0c-.1,.1,-.2,.1,-.3,.1q-.1,0,0,0Z" class="g8_71"/>
<path d="M145.2,625.6c0,0,.4,-.1,.9,-.1c.6,-.1,.9,-.1,.9,0c0,0,-.4,.1,-.9,.1c-.6,.1,-.9,.1,-.9,0Z" class="g8_71"/>
<path d="M147.1,625.4c.1,0,.4,-.1,.9,-.2c.5,0,.7,0,.6,0c-.3,.1,-1.5,.3,-1.5,.2Z" class="g8_71"/>
<path d="M125.8,659.2c0,0,0,-.4,0,-.7c0,-.4,0,-.8,0,-.8c0,-.1,0,-.8,0,-1q.1,-.1,.5,.1c.9,.5,1.2,.3,1,-.7c-.1,-1,.1,-1.2,.3,-.2c.1,.7,.1,.9,-.2,1.1c-.6,.5,-1.5,1.9,-1.4,2.1c.1,.1,0,.1,-.1,.1c0,0,-.1,0,-.1,0Z" class="g9_71"/>
<path d="M127.3,655.1c0,-.1,0,-.7,.1,-.7c.1,-.1,.1,0,.1,.4c-.1,.3,-.1,.4,-.2,.3Z" class="g9_71"/>
<path d="M127.3,653.9c0,0,0,-.3,0,-.6c0,-.2,.1,-.7,.1,-1c.1,-1,.5,-3.2,.7,-3.3c0,0,0,.2,0,.3c0,.2,-.1,.4,-.1,.6c0,.1,-.1,.4,-.1,.6c-.2,.6,-.3,2,-.1,2.2q0,.1,-.1,.2c0,0,-.1,.2,-.2,.5c0,.5,-.1,.6,-.2,.5Z" class="g9_71"/>
<path d="M126.2,653.6q0,-.1,.1,-.2c0,-.1,0,-.2,0,-.3c-.1,-.3,.2,-.7,.3,-.5c0,.1,-.2,1,-.3,1h-.1Z" class="g9_71"/>
<path d="M125.9,652.4c-.1,-.1,-.1,-.2,0,-.2c0,0,.1,0,.1,.1c.1,.2,.1,.3,.1,.3c-.1,0,-.2,-.1,-.2,-.2Z" class="g9_71"/>
<path d="M126.5,652.3c0,-.1,0,-.4,.2,-.8c.1,-.4,.2,-1,.3,-1.4c.1,-.4,.2,-.8,.3,-.8c.1,-.1,.1,0,0,.3c0,.2,-.1,.5,-.1,.6c-.1,.7,-.6,2.2,-.7,2.1Z" class="g9_71"/>
<path d="M129,651.9q0,-.1,.1,-.2q.2,0,.2,.1c-.1,.1,-.4,.2,-.3,.1Z" class="g9_71"/>
<path d="M125.6,651.8q0,-.1,.1,-.1c0,0,.1,.1,.1,.2q0,.1,-.2,-.1Z" class="g9_71"/>
<path d="M129.5,651.4c0,0,.2,-.2,.4,-.4c.2,-.2,.5,-.4,.5,-.6c.2,-.2,.4,-.3,.4,-.2c0,.1,-1,1.1,-1.2,1.2q-.1,.1,-.1,0Z" class="g9_71"/>
<path d="M125.4,651.2c-.1,-.1,-.1,-.3,-.1,-.4c0,-.2,0,-.1,.1,0c0,.1,.1,.3,.1,.4q0,.2,-.1,0Z" class="g9_71"/>
<path d="M131.2,649.6c.2,-.4,1,-1.3,1.1,-1.4c.1,-.1,.1,0,.1,0c.1,0,0,.2,-.2,.3c-.1,.2,-.4,.6,-.6,.9c-.5,.6,-.8,.8,-.4,.2Z" class="g9_71"/>
<path d="M124.8,649.1c0,0,0,-.1,0,-.1c.1,-.1,.1,0,.2,0c0,.1,0,.2,0,.2q-.1,0,-.2,-.1Z" class="g9_71"/>
<path d="M128.1,648.9c0,-.5,1.5,-4,2.7,-6.2c.2,-.4,.5,-1,.5,-1.1c0,-.4,.2,-.5,.3,-.4c.1,.2,-.2,.9,-1.3,2.8c-.5,1.1,-1,2.2,-1.2,2.5c-.2,.6,-.6,1.5,-.9,2.2q-.1,.2,-.1,.2Z" class="g9_71"/>
<path d="M127.5,648.5h.1c0,-.1,.1,-.1,.1,0c0,0,0,.1,0,.1q-.1,0,-.2,-.1Z" class="g9_71"/>
<path d="M132.5,648c0,-.3,.6,-1.3,.7,-1.2c.1,0,-.6,1.3,-.7,1.3c0,0,0,-.1,0,-.1Z" class="g9_71"/>
<path d="M124.8,648.5c-.1,-.1,-.1,-.2,-.1,-.3c.1,-.2,.2,-.1,.2,.2c0,.1,-.1,.2,-.1,.1Z" class="g9_71"/>
<path d="M127.6,648c0,0,0,-.1,.1,-.1q.1,-.1,.1,0c.1,.1,-.1,.2,-.2,.1Z" class="g9_71"/>
<path d="M124.7,647.8c0,-.1,0,-.2,0,-.3c.1,-.1,.1,.1,.1,.3v.2Z" class="g9_71"/>
<path d="M127.9,647.6c-.1,-.1,.3,-.7,.4,-.7c0,0,-.1,.2,-.2,.4c-.1,.3,-.2,.4,-.2,.3Z" class="g9_71"/>
<path d="M133.2,646.6c0,-.1,0,-.3,-.1,-.4c-.1,-.1,0,-.2,.1,-.2c.4,0,.5,.1,.2,.5q-.1,.2,-.2,.1Z" class="g9_71"/>
<path d="M128.3,646.7c0,0,.2,-.5,.5,-1.1c.3,-.5,.4,-.7,.3,-.4c-.2,.5,-.9,1.8,-.8,1.5Z" class="g9_71"/>
<path d="M124.6,646.7c0,-.2,.1,-.9,.1,-.9c.1,.1,.1,.5,0,.7c0,.2,-.1,.2,-.1,.2Z" class="g9_71"/>
<path d="M134,645.7c-.3,0,-.6,-.1,-.7,-.1q-.2,-.1,.1,-.1c.1,0,.5,0,.9,0c.5,0,.6,0,1,-.3c.3,-.2,.5,-.4,.6,-.6c.2,-.4,.2,-.3,.1,.2c-.1,.3,-.3,.4,-.7,.6c-.5,.3,-.6,.3,-1.3,.3Z" class="g9_71"/>
<path d="M132.4,645.4q-.4,-.1,-.1,-.1c.2,0,.3,.1,.3,.1c.1,0,.1,.1,.1,.1c-.1,0,-.2,-.1,-.3,-.1Z" class="g9_71"/>
<path d="M127,645.6c-.3,-.2,-.5,-.6,-.4,-.6c.1,0,0,-.2,-.1,-.3c-.3,-.6,-1,-2.2,-1,-2.4c0,-.1,.1,0,.3,.5c.1,.3,.6,1.1,1,1.8c.3,.6,.6,1.2,.6,1.2c-.1,0,-.2,-.1,-.4,-.2Z" class="g9_71"/>
<path d="M124.7,645.4c-.1,-.1,0,-.9,.2,-.9c0,-.1,0,0,0,.2c0,.4,-.1,.8,-.2,.7Z" class="g9_71"/>
<path d="M136.1,643.9c0,-.1,.1,-.2,.1,-.3q.1,-.1,.1,0c0,.1,-.1,.3,-.1,.3q-.1,.2,-.1,0Z" class="g9_71"/>
<path d="M126.2,644.7q-.1,-.1,0,-.1c0,.1,.1,.2,.1,.2c0,.1,-.1,0,-.1,-.1Z" class="g9_71"/>
<path d="M129.3,644.3c.1,-.1,.2,-.2,.2,-.2c.1,0,0,.3,-.1,.4q-.2,.1,-.1,-.2Z" class="g9_71"/>
<path d="M129.8,643.4c.1,-.3,.3,-.6,.3,-.6c0,0,.2,-.5,.5,-1c.2,-.5,.6,-1.1,.7,-1.3c.2,-.3,.5,-.8,.8,-1.2c.4,-.7,.6,-1,.7,-.8c0,0,-.2,.4,-1,1.5c-.2,.4,-.5,.9,-.7,1.1c-.1,.3,-.3,.8,-.5,1.2c-.2,.4,-.5,.9,-.6,1.2c-.3,.7,-.5,.6,-.2,-.1Z" class="g9_71"/>
<path d="M124.9,644.3c0,-.1,0,-.2,.1,-.4c0,-.1,.1,-.3,.1,-.5c0,-.3,.3,-.2,.4,.2c0,.2,0,.3,0,.2c-.1,-.1,-.4,-.2,-.4,0c.1,.1,-.1,.6,-.2,.5Z" class="g9_71"/>
<path d="M136.3,643.2c0,0,.1,-.1,.1,-.3q.1,-.3,.1,.1c0,.2,-.1,.3,-.2,.2Z" class="g9_71"/>
<path d="M136.5,642c0,-.1,0,-.2,.1,-.3c0,0,.1,0,0,.1c0,.1,0,.2,0,.3q-.1,0,-.1,-.1Z" class="g9_71"/>
<path d="M136.7,641.4c-.1,-.1,.1,-.6,.3,-.9c.2,-.2,.2,-.4,.2,-.4c-.1,-.1,-.3,-.1,-.7,0c-.7,.1,-.8,-.1,-.1,-.2c.4,-.1,.8,-.1,.9,-.2c.3,-.1,.3,.2,-.1,1c-.3,.4,-.5,.8,-.5,.7Z" class="g9_71"/>
<path d="M129.5,641.3c-.1,-.1,-.3,-.2,-.5,-.4c-.3,-.2,-.7,-.8,-.5,-.7c.1,0,.2,.1,.2,.2c.1,.1,.3,.2,.4,.3c.2,0,.4,.2,.6,.4c.3,.4,.2,.5,-.2,.2Z" class="g9_71"/>
<path d="M125.3,641.3c0,-.1,0,-.3,0,-.5c.1,-.3,.6,-1.6,.7,-1.7c.1,-.1,.1,.1,-.2,.9c-.1,.4,-.3,.9,-.3,1.2c-.1,.3,-.1,.4,-.2,.1Z" class="g9_71"/>
<path d="M135.4,639.9c-.2,0,-.3,-.1,-.3,-.1c-.1,-.1,.7,-.5,1,-.5c.3,-.1,.2,0,-.2,.2c-.5,.1,-.6,.2,-.4,.4q.2,.1,-.1,0Z" class="g9_71"/>
<path d="M128.8,639.9c-.1,-.1,-.1,-.3,-.2,-.4q0,-.2,.1,0c0,.1,.1,.2,.1,.4q.1,.1,0,0Z" class="g9_71"/>
<path d="M136.9,639.1c.1,-.1,.2,-.1,.3,0c.1,0,0,.1,-.2,.1q-.3,0,-.1,-.1Z" class="g9_71"/>
<path d="M137.5,638.8c.1,-.2,.2,-.4,.2,-.4c.1,0,-.1,.6,-.2,.6c0,.1,0,-.1,0,-.2Z" class="g9_71"/>
<path d="M128.4,638.9c-.1,0,-.2,-.1,-.1,-.2q0,-.2,.1,.1q.2,.3,0,.1Z" class="g9_71"/>
<path d="M137.9,637.9c0,-.1,.1,-.2,.1,-.1c.1,0,0,.3,-.1,.4c-.1,0,-.1,-.1,0,-.3Z" class="g9_71"/>
<path d="M127.3,638.8c-.1,-.1,-.1,-.2,0,-.1q.2,.1,.1,.2q0,.1,-.1,-.1Z" class="g9_71"/>
<path d="M126,638.9c-.1,-.2,.5,-1,.7,-.9c.3,0,.3,.2,.1,.2c-.2,.1,-.4,.3,-.5,.4c-.1,.3,-.2,.4,-.3,.3Z" class="g9_71"/>
<path d="M127.6,638.4c-.1,-.2,-.1,-.4,-.1,-.4c.1,-.1,.4,.4,.3,.6c0,.1,0,0,-.2,-.2Z" class="g9_71"/>
<path d="M133,637.8c.1,-.2,.2,-.3,.3,-.3c.1,.1,-.3,.7,-.4,.7c-.1,0,0,-.2,.1,-.4Z" class="g9_71"/>
<path d="M138,637.5c0,-.1,.2,-.5,.3,-.5c.1,0,.1,-.1,.2,-.3c.1,-.4,1,-1.8,2,-3.3c.1,-.2,.1,-.3,0,-.4c-.1,-.1,-.1,-.2,.1,-.3c.1,-.1,.2,-.2,.3,-.1c.2,.1,0,.7,-.2,.9c-.3,.3,-1.4,2,-1.7,2.5c-.6,1.2,-.9,1.6,-1,1.5Z" class="g9_71"/>
<path d="M127.9,638c-.1,-.1,-.1,-.2,0,-.2c0,0,.1,0,.1,.1c0,0,0,.1,0,.1c0,.1,-.1,0,-.1,0Z" class="g9_71"/>
<path d="M133.4,637.4c0,-.1,.5,-1,.8,-1.5c.1,-.1,.3,-.4,.4,-.5c.2,-.5,.8,-1.1,.9,-1.1c0,0,0,.2,-.1,.3c-.1,.1,-.3,.2,-.3,.3c-.1,.1,-.3,.4,-.5,.8c-.3,.3,-.6,.8,-.7,1c-.3,.5,-.4,.7,-.5,.7Z" class="g9_71"/>
<path d="M127.5,637.4c0,-.1,0,-.2,0,-.3q0,-.1,.1,.1c.1,.2,.2,.3,.1,.3c0,0,-.1,-.1,-.2,-.1Z" class="g9_71"/>
<path d="M127.7,636.6c-.1,-.1,0,-.4,.1,-.4c.1,0,.1,.2,0,.3c0,.1,-.1,.1,-.1,.1Z" class="g9_71"/>
<path d="M128,635.8c0,-.1,.1,-.3,.3,-.4c.1,-.1,.2,-.3,.2,-.4q.1,-.1,.2,-.1c.1,-.1,0,.1,-.4,.6c-.2,.3,-.3,.4,-.3,.3Z" class="g9_71"/>
<path d="M129,634.5c.3,-.4,.8,-.9,.8,-.8c.1,0,-.4,.6,-.7,.9l-.2,.2Z" class="g9_71"/>
<path d="M135.9,633.7c.1,-.1,.2,-.2,.2,-.2c0,0,0,.1,-.1,.2l-.2,.3Z" class="g9_71"/>
<path d="M132.6,633.6c-.1,-.1,-.2,-.4,0,-.4c.1,0,.3,.4,.2,.4c0,.1,-.1,.1,-.2,0Z" class="g9_71"/>
<path d="M130.6,633.1c.1,-.2,.2,-.2,.3,-.2c.1,-.1,-.2,.3,-.4,.3c-.1,0,0,0,.1,-.1Z" class="g9_71"/>
<path d="M140.7,632.2c-.1,0,0,-.1,.1,-.1c.2,-.1,.4,-.1,.4,-.1c0,.1,-.4,.3,-.5,.2Z" class="g9_71"/>
<path d="M131.3,632.4c.2,-.4,.5,-.5,.6,-.3c.1,0,-.2,.3,-.7,.5c0,.1,0,-.1,.1,-.2Z" class="g9_71"/>
<path d="M141.6,631c0,0,.1,-.2,.1,-.3c.1,-.1,.2,-.2,.2,-.1c0,0,0,.1,-.1,.3q-.1,.1,-.2,.1Z" class="g9_71"/>
<path d="M142.2,630c.2,-.4,.8,-1,2.4,-2.2c.8,-.7,2.6,-1.7,3.6,-2.1c1,-.3,1.1,-.4,1.1,-.5c-.2,-.2,.7,-.5,.9,-.3c.2,.2,.1,.3,-.1,.3c-.1,.1,-.5,.2,-.8,.3c-.4,.2,-1,.4,-1.3,.6c-1.1,.4,-1.9,.8,-2.4,1.2c-.2,.1,-.5,.3,-.6,.4c-.1,0,-.4,.2,-.5,.4c-.2,.1,-.4,.3,-.4,.3c0,0,-.2,.1,-.4,.2c-1.1,1.1,-1.3,1.3,-1.3,1.5c0,.1,-.1,.2,-.2,.2q-.1,0,0,-.3Z" class="g9_71"/>
<path d="M133,631c0,0,0,-.1,.1,-.1c0,0,.1,.1,0,.1q0,.1,-.1,.1V631Z" class="g9_71"/>
<path d="M142.3,627.1c0,0,0,-.1,.1,-.2c.1,0,.2,-.1,.2,-.1q0,.1,-.1,.2c-.1,.1,-.2,.1,-.2,.1Z" class="g9_71"/>
<path d="M143,626.4c.1,-.2,.5,-.3,.5,-.2c.1,0,-.3,.3,-.5,.4q-.2,0,0,-.2Z" class="g9_71"/>
<path d="M144.6,625.8c.1,-.1,.2,-.1,.3,-.1q.1,0,0,0c-.1,.1,-.2,.1,-.3,.1q-.1,0,0,0Z" class="g9_71"/>
<path d="M145.2,625.6c0,0,.4,-.1,.9,-.1c.6,-.1,.9,-.1,.9,0c0,0,-.4,.1,-.9,.1c-.6,.1,-.9,.1,-.9,0Z" class="g9_71"/>
<path d="M147.1,625.4c.1,0,.4,-.1,.9,-.2c.5,0,.7,0,.6,0c-.3,.1,-1.5,.3,-1.5,.2Z" class="g9_71"/>
<path d="M128.2,638.9q-.1,-.2,-.1,-.1c-.1,.2,0,.4,.1,.4c.1,-.1,.1,-.2,0,-.3Z" class="g4_71"/>
</g>
<path d="M152.7,670.7H383.1" class="g0_71"/>
<path d="M137.6,679v43.8" class="gb_71"/>
<path d="M117.7,883.6V773.5H791.8V883.6Z" class="g1_71"/>
<path d="M117.7,883.6V773.5H791.8V883.6Z" class="ga_71"/>
<g clip-path="url(#c8_71)">
<path clip-path="url(#c3_71)" d="M126.4,805.6c0,0,1.5,-.9,1.2,-1.2c-.1,-.1,-.3,-.1,-.6,-.1c-1.6,.3,-5,2.1,-3.3,4.2c1.4,1.5,6.4,2.3,11.7,1.3c7.3,-1.4,13.5,-5.4,11.1,-8.3c-1.6,-1.9,-6.7,-2.1,-10.8,-2.2c-2.1,0,-6.6,0,-8,-1.7c-.6,-.7,-.5,-1.6,.1,-2.1c1,-.9,3.8,-1.5,4,-1.5c.7,-.1,2.5,-.4,4.6,-.4c1.1,0,2.5,0,3.2,1c.2,.2,.4,.5,.4,.6c0,.1,0,.2,.1,.3c.1,.1,.4,0,.5,0c.5,-.1,1.5,-.5,2,-1c.3,-.3,.8,-.7,0,-1.6c-.9,-1,-2.3,-1.1,-4,-1.1c-2.3,0,-4.1,.3,-4.9,.4c-5.8,1.2,-11.1,4.6,-9,7.1c1.5,1.8,6.3,1.8,9,1.9c3.9,0,8.4,.3,9.8,2c.6,.6,.9,1.8,-.4,2.8c-1.2,1,-4,1.7,-5.8,2.1c-4.4,.8,-9.4,.1,-10.6,-1.3c0,0,-.5,-.6,-.3,-1.2Z" class="gc_71"/>
<path d="M131.5,808.1l-.2,-.3l.3,-4.5q.3,-5.6,.5,-6c.1,-.2,1.6,-2.2,3.3,-4.6c1.7,-2.4,4.3,-6.1,5.9,-8.2c1.5,-2.2,2.8,-4,2.9,-4c.4,0,.1,.4,-1.8,3.2c-1.2,1.6,-3.7,5.2,-5.7,8.1c-2,2.8,-3.6,5.2,-3.6,5.2c0,0,.5,.1,1,.1c2,.2,3.3,.6,4.5,1.2c.6,.3,1,.6,1.5,1.2c.8,.7,1.2,1.3,1.4,2.2c.1,.2,.1,.4,.2,.4c.1,0,.7,-.8,5.2,-7.6c2.4,-3.6,4.5,-6.7,4.6,-6.8c.2,-.2,.4,0,.2,.2c0,.2,-1.5,2.4,-3.2,5.1c-1.8,2.6,-3.8,5.7,-4.5,6.7c-1.5,2.4,-2.1,3.3,-2.3,3.8c-.2,.3,-.3,.4,-.9,.7c-.8,.4,-8.7,3.9,-8.9,4c-.1,0,-.3,0,-.4,-.1Z" class="gc_71"/>
<path d="M135.2,806.1c2.2,-1,4,-1.8,4.6,-2.1c.7,-.3,.7,-.4,.7,-1.4c-.2,-1.7,-1.4,-3,-3.6,-3.7c-1.2,-.4,-4.3,-.9,-4.4,-.7c0,.1,-.1,1.5,-.2,3.2c-.1,1.7,-.2,3.3,-.2,3.6c-.1,1.1,.1,1.4,-.2,2.5c.1,.1,1.8,-.8,1.8,-.8c.1,0,.7,-.3,1.5,-.6Z" class="gc_71"/>
<path d="M131.5,808.1l-.2,-.3l.3,-4.5q.3,-5.6,.5,-6c.1,-.2,1.6,-2.2,3.3,-4.6c1.7,-2.4,4.3,-6.1,5.9,-8.2c1.5,-2.2,2.8,-4,2.9,-4c.4,0,.1,.4,-1.8,3.2c-1.2,1.6,-3.7,5.2,-5.7,8.1c-2,2.8,-3.6,5.2,-3.6,5.2c0,0,.5,.1,1,.1c2,.2,3.3,.6,4.5,1.2c.6,.3,1,.6,1.5,1.2c.8,.7,1.2,1.3,1.4,2.2c.1,.2,.1,.4,.2,.4c.1,0,.7,-.8,5.2,-7.6c2.4,-3.6,4.5,-6.7,4.6,-6.8c.2,-.2,.4,0,.2,.2c0,.2,-1.5,2.4,-3.2,5.1c-1.8,2.6,-3.8,5.7,-4.5,6.7c-1.5,2.4,-2.1,3.3,-2.3,3.8c-.2,.3,-.3,.4,-.9,.7c-.8,.4,-8.7,3.9,-8.9,4c-.1,0,-.3,0,-.4,-.1Zm3.7,-2c2.2,-1,4,-1.8,4.6,-2.1c.7,-.3,.7,-.4,.7,-1.4c-.2,-1.7,-1.4,-3,-3.6,-3.7c-1.2,-.4,-4.3,-.9,-4.4,-.7c0,.1,-.1,1.5,-.2,3.2c-.1,1.7,-.2,3.3,-.2,3.6c-.1,1.1,.1,1.4,-.2,2.5c.1,.1,1.8,-.8,1.8,-.8c.1,0,.7,-.3,1.5,-.6Z" class="gd_71"/>
<path d="M135.3,797.5l11.2,-16.1m-8.2,17.2L149,782.9" class="ge_71"/>
<path d="M140.4,800.3l10,-14.4l.2,-.4" class="gf_71"/>
<path d="M134.1,797.1c-.4,-.1,-.8,-.2,-.9,-.2c0,0,2.5,-3.6,6.7,-9.6c1.9,-2.7,3.6,-5.2,3.8,-5.5c.2,-.3,.4,-.6,.5,-.6c.1,0,.7,.5,.9,.7c.1,.3,.1,.5,-.1,1.1c-.2,.5,-9.8,14.2,-9.9,14.2c-.1,0,-.5,0,-1,-.1Z" class="gg_71"/>
<path d="M137.6,797.9c-.2,-.2,-.8,-.3,-1.2,-.4l-.7,-.2l.3,-.3c.1,-.2,2.3,-3.4,4.8,-7.1l4.7,-6.6l.5,-.3c.9,-.5,1.6,-.5,2.1,0l.3,.3l-5,7.4c-3.1,4.5,-5.1,7.4,-5.1,7.4c-.1,0,-.4,-.1,-.7,-.2Z" class="gg_71"/>
<path d="M140,799.3c-.2,-.3,-.6,-.6,-.8,-.7c-.2,-.1,-.3,-.2,-.3,-.3c0,-.1,9.4,-13.9,9.8,-14.5c.1,-.1,.5,.3,.8,.7c.3,.4,.3,.5,.4,1c0,.3,0,.6,-.1,.7c-.2,.3,-9.1,13.2,-9.2,13.4q-.2,.1,-.6,-.3Z" class="gg_71"/>
<path d="M141.6,801.9c0,0,-.1,-.3,-.1,-.5c-.1,-.3,-.3,-.6,-.4,-.9l-.3,-.4l4.7,-6.7c2.6,-3.8,4.8,-6.8,4.8,-6.8c.4,0,1,.7,1,1.1c0,.1,-.6,1.2,-1.9,3.1c-1.1,1.5,-3.1,4.6,-4.6,6.8c-3,4.4,-3.1,4.5,-3.2,4.3Z" class="gg_71"/>
<path d="M131.9,803.4c2.3,-.1,3.6,.7,4.1,2.3" class="gh_71"/>
<path d="M132,807.3c0,-.3,.1,-.4,.1,-1.3c0,-.8,0,-.9,0,-1.3c0,-.3,0,-.6,0,-.7l.1,-.3c.1,0,.6,0,.7,0c.4,.1,.8,.2,1.1,.3c.2,0,.4,.2,.6,.3c.2,.1,.3,.2,.4,.4c.3,.2,.4,.4,.6,.7c0,.1,.1,.4,.1,.4c0,.1,-1.5,.7,-1.8,.8c-.1,.1,-.2,.1,-.3,.1c-1.1,.6,-1.4,.8,-1.6,.8Z" class="gc_71"/>
<path d="M136.2,805.2c-.6,-1.2,-1.8,-1.9,-3.4,-2.1h-.6v-.5c.1,-.3,.1,-1.3,.2,-2.2c0,-.9,.1,-1.8,.1,-1.9l.1,-.3l.7,.1c.8,0,2.3,.3,3.1,.5c1.7,.4,3.1,1.4,3.6,2.5c.4,.7,.6,2,.3,2.4c-.1,.1,-.8,.4,-2.5,1.2c-1.6,.7,-1.5,.7,-1.6,.3Z" class="gi_71"/>
<path d="M136.2,805.2c-.6,-1.2,-1.8,-1.9,-3.4,-2.1h-.6v-.5c.1,-.3,.1,-1.3,.2,-2.2c0,-.9,.1,-1.8,.1,-1.9l.1,-.3l.7,.1c.8,0,2.3,.3,3.1,.5c1.7,.4,3.1,1.4,3.6,2.5c.4,.7,.6,2,.3,2.4c-.1,.1,-.8,.4,-2.5,1.2c-1.6,.7,-1.5,.7,-1.6,.3Z" class="gj_71"/>
</g>
<path d="M152.7,825.1h310" class="g0_71"/>
<path d="M137.6,830.3v43.9" class="gb_71"/>
<path d="M117.7,1035V924.9H791.8V1035Z" class="g1_71"/>
<path d="M117.7,1035V924.9H791.8V1035Z" class="ga_71"/>
<g clip-path="url(#c9_71)">
<path clip-path="url(#c4_71)" d="M126.4,957c0,0,1.5,-.9,1.2,-1.2c-.1,-.2,-.3,-.2,-.6,-.1c-1.6,.3,-5,2.1,-3.3,4.1c1.4,1.6,6.4,2.4,11.7,1.4c7.3,-1.4,13.5,-5.4,11.1,-8.3c-1.6,-1.9,-6.7,-2.1,-10.8,-2.2c-2.1,0,-6.6,-.1,-8,-1.7c-.6,-.7,-.5,-1.6,.1,-2.2c1,-.9,3.8,-1.4,4,-1.4c.7,-.2,2.5,-.5,4.6,-.4c1.1,0,2.5,0,3.2,.9c.2,.3,.4,.6,.4,.7c0,.1,0,.2,.1,.2c.1,.1,.4,.1,.5,.1c.5,-.1,1.5,-.5,2,-1c.3,-.3,.8,-.7,0,-1.6c-.9,-1,-2.3,-1.1,-4,-1.1c-2.3,-.1,-4.1,.3,-4.9,.4c-5.8,1.1,-11.1,4.6,-9,7c1.5,1.9,6.3,1.9,9,2c3.9,0,8.4,.2,9.8,2c.6,.6,.9,1.8,-.4,2.8c-1.2,.9,-4,1.7,-5.8,2.1c-4.4,.8,-9.4,.1,-10.6,-1.3c0,-.1,-.5,-.6,-.3,-1.2Z" class="gc_71"/>
<path d="M131.5,959.4l-.2,-.2l.3,-4.5c.3,-5.6,.3,-5.7,.5,-6c.1,-.2,1.6,-2.3,3.3,-4.6c1.7,-2.4,4.3,-6.1,5.9,-8.3c1.5,-2.2,2.8,-3.9,2.9,-3.9c.4,0,.1,.4,-1.8,3.2c-1.2,1.6,-3.7,5.2,-5.7,8c-2,2.9,-3.6,5.2,-3.6,5.2c0,.1,.5,.1,1,.2c2,.2,3.3,.6,4.5,1.2c.6,.3,1,.6,1.5,1.1c.8,.8,1.2,1.4,1.4,2.2c.1,.3,.1,.5,.2,.5c.1,0,.7,-.8,5.2,-7.6c2.4,-3.7,4.5,-6.7,4.6,-6.8c.2,-.2,.4,-.1,.2,.2c0,.1,-1.5,2.4,-3.2,5c-1.8,2.7,-3.8,5.7,-4.5,6.8c-1.5,2.4,-2.1,3.3,-2.3,3.8c-.2,.3,-.3,.4,-.9,.7c-.8,.4,-8.7,3.9,-8.9,4c-.1,0,-.3,0,-.4,-.2Z" class="gc_71"/>
<path d="M135.2,957.5c2.2,-1,4,-1.8,4.6,-2.1q.7,-.4,.7,-1.4c-.2,-1.7,-1.4,-3,-3.6,-3.8c-1.2,-.4,-4.3,-.8,-4.4,-.6c0,.1,-.1,1.5,-.2,3.2c-.1,1.6,-.2,3.3,-.2,3.6c-.1,1.1,.1,1.4,-.2,2.5c.1,.1,1.8,-.8,1.8,-.8c.1,0,.7,-.3,1.5,-.6Z" class="gc_71"/>
<path d="M131.5,959.4l-.2,-.2l.3,-4.5c.3,-5.6,.3,-5.7,.5,-6c.1,-.2,1.6,-2.3,3.3,-4.6c1.7,-2.4,4.3,-6.1,5.9,-8.3c1.5,-2.2,2.8,-3.9,2.9,-3.9c.4,0,.1,.4,-1.8,3.2c-1.2,1.6,-3.7,5.2,-5.7,8c-2,2.9,-3.6,5.2,-3.6,5.2c0,.1,.5,.1,1,.2c2,.2,3.3,.6,4.5,1.2c.6,.3,1,.6,1.5,1.1c.8,.8,1.2,1.4,1.4,2.2c.1,.3,.1,.5,.2,.5c.1,0,.7,-.8,5.2,-7.6c2.4,-3.7,4.5,-6.7,4.6,-6.8c.2,-.2,.4,-.1,.2,.2c0,.1,-1.5,2.4,-3.2,5c-1.8,2.7,-3.8,5.7,-4.5,6.8c-1.5,2.4,-2.1,3.3,-2.3,3.8c-.2,.3,-.3,.4,-.9,.7c-.8,.4,-8.7,3.9,-8.9,4c-.1,0,-.3,0,-.4,-.2Zm3.7,-1.9c2.2,-1,4,-1.8,4.6,-2.1q.7,-.4,.7,-1.4c-.2,-1.7,-1.4,-3,-3.6,-3.8c-1.2,-.4,-4.3,-.8,-4.4,-.6c0,.1,-.1,1.5,-.2,3.2c-.1,1.6,-.2,3.3,-.2,3.6c-.1,1.1,.1,1.4,-.2,2.5c.1,.1,1.8,-.8,1.8,-.8c.1,0,.7,-.3,1.5,-.6Z" class="gd_71"/>
<path d="M135.3,948.9l11.2,-16.1M138.3,950L149,934.3" class="ge_71"/>
<path d="M140.4,951.7l10,-14.5l.2,-.3" class="gf_71"/>
<path d="M134.1,948.5c-.4,-.1,-.8,-.2,-.9,-.2c0,0,2.5,-3.7,6.7,-9.6c1.9,-2.7,3.6,-5.2,3.8,-5.5c.2,-.4,.4,-.6,.5,-.6c.1,0,.7,.4,.9,.6c.1,.4,.1,.6,-.1,1.1c-.2,.5,-9.8,14.3,-9.9,14.3c-.1,0,-.5,-.1,-1,-.1Z" class="gg_71"/>
<path d="M137.6,949.2c-.2,-.1,-.8,-.3,-1.2,-.4l-.7,-.1l.3,-.4c.1,-.2,2.3,-3.3,4.8,-7l4.7,-6.7l.5,-.2c.9,-.5,1.6,-.5,2.1,0l.3,.3l-5,7.4c-3.1,4.5,-5.1,7.4,-5.1,7.3c-.1,0,-.4,-.1,-.7,-.2Z" class="gg_71"/>
<path d="M140,950.7c-.2,-.3,-.6,-.6,-.8,-.7c-.2,-.1,-.3,-.3,-.3,-.3c0,-.1,9.4,-14,9.8,-14.6c.1,-.1,.5,.3,.8,.8c.3,.3,.3,.5,.4,1c0,.3,0,.6,-.1,.7c-.2,.3,-9.1,13.1,-9.2,13.3q-.2,.2,-.6,-.2Z" class="gg_71"/>
<path d="M141.6,953.3c0,-.1,-.1,-.3,-.1,-.6c-.1,-.2,-.3,-.6,-.4,-.8l-.3,-.4l4.7,-6.8c2.6,-3.7,4.8,-6.8,4.8,-6.8c.4,0,1,.7,1,1.2c0,.1,-.6,1.1,-1.9,3c-1.1,1.6,-3.1,4.7,-4.6,6.8c-3,4.4,-3.1,4.6,-3.2,4.4Z" class="gg_71"/>
<path d="M131.9,954.8c2.3,-.1,3.6,.7,4.1,2.3" class="gh_71"/>
<path d="M132,958.7c0,-.4,.1,-.4,.1,-1.3c0,-.8,0,-1,0,-1.4c0,-.2,0,-.5,0,-.7l.1,-.2c.1,0,.6,0,.7,0c.4,.1,.8,.1,1.1,.3c.2,0,.4,.2,.6,.3c.2,.1,.3,.2,.4,.3c.3,.3,.4,.5,.6,.8c0,.1,.1,.4,.1,.4c0,0,-1.5,.7,-1.8,.8c-.1,0,-.2,.1,-.3,.1c-1.1,.6,-1.4,.8,-1.6,.8Z" class="gc_71"/>
<path d="M136.2,956.6c-.6,-1.2,-1.8,-2,-3.4,-2.1h-.6V954c.1,-.3,.1,-1.3,.2,-2.2c0,-1,.1,-1.8,.1,-2l.1,-.2l.7,.1c.8,0,2.3,.2,3.1,.4c1.7,.5,3.1,1.4,3.6,2.5c.4,.8,.6,2.1,.3,2.4c-.1,.2,-.8,.5,-2.5,1.3c-1.6,.7,-1.5,.7,-1.6,.3Z" class="gi_71"/>
<path d="M136.2,956.6c-.6,-1.2,-1.8,-2,-3.4,-2.1h-.6V954c.1,-.3,.1,-1.3,.2,-2.2c0,-1,.1,-1.8,.1,-2l.1,-.2l.7,.1c.8,0,2.3,.2,3.1,.4c1.7,.5,3.1,1.4,3.6,2.5c.4,.8,.6,2.1,.3,2.4c-.1,.2,-.8,.5,-2.5,1.3c-1.6,.7,-1.5,.7,-1.6,.3Z" class="gj_71"/>
</g>
<path d="M152.7,976.5H429" class="g0_71"/>
<path d="M137.6,981.7v43.9" class="gb_71"/>
</svg>