<?xml version="1.0" encoding="UTF-8" standalone="no"?>
<!DOCTYPE svg PUBLIC "-//W3C//DTD SVG 1.1//EN"
"http://www.w3.org/Graphics/SVG/1.1/DTD/svg11.dtd">
<svg viewBox="0 0 1286 909" version="1.1" xmlns="http://www.w3.org/2000/svg" xmlns:xlink="http://www.w3.org/1999/xlink">
<defs>
<style type="text/css"><![CDATA[
.g0_80{
fill: none;
stroke: #000000;
stroke-width: 0.73;
stroke-linecap: butt;
stroke-linejoin: miter;
}
.g1_80{
fill: none;
stroke: #02B5EE;
stroke-width: 1.262;
stroke-linecap: butt;
stroke-linejoin: miter;
}
.g2_80{
fill: none;
stroke: #5EE200;
stroke-width: 1.262;
stroke-linecap: butt;
stroke-linejoin: miter;
}
.g3_80{
fill: #FFCCCC;
}
.g4_80{
fill: none;
stroke: #5EE200;
stroke-width: 0.73;
stroke-linecap: butt;
stroke-linejoin: miter;
}
.g5_80{
fill: none;
stroke: #02B5EE;
stroke-width: 0.73;
stroke-linecap: butt;
stroke-linejoin: miter;
}
.g6_80{
fill: #B3E9FA;
}
]]></style>
</defs>
<path d="M193,83.4h900.3M193,210.6H781.3m-588.3,0H781.3M505.7,240.2V211m0,58.5V240.2m0,114.3v-85" class="g0_80"/>
<path d="M516.7,330.5h59.2" class="g1_80"/>
<path d="M586.4,330.5h70.5" class="g2_80"/>
<path d="M677.9,318.8h92.4V285.9H677.9v32.9Z" class="g3_80"/>
<path d="M505.7,383.7V354.5m0,102.3V383.7" class="g0_80"/>
<path d="M548.6,433H656.8V400.1H548.6V433Z" class="g3_80"/>
<path d="M662.9,442.9h33.8" class="g4_80"/>
<path d="M702.8,442.9h67.5" class="g5_80"/>
<path d="M505.7,486V456.8m0,58.4V486m0,58.4V515.2m0,114.3V544.4" class="g0_80"/>
<path d="M594.5,579.7V567.5c0,-2.9,2.3,-5.2,5.2,-5.2h55.6c2.9,0,5.2,2.3,5.2,5.2v12.2c0,2.8,-2.3,5.2,-5.2,5.2H599.7c-2.9,0,-5.2,-2.4,-5.2,-5.2Z" class="g6_80"/>
<path d="M591.9,605.5h71.2" class="g1_80"/>
<path d="M673.6,605.5h96.7" class="g2_80"/>
<path d="M505.7,658.7V629.5m0,58.4V658.7m0,58.4V687.9M193,717.5H781.3m-588.3,0H781.3" class="g0_80"/>
</svg>