<?xml version="1.0" encoding="UTF-8" standalone="no"?>
<!DOCTYPE svg PUBLIC "-//W3C//DTD SVG 1.1//EN"
"http://www.w3.org/Graphics/SVG/1.1/DTD/svg11.dtd">
<svg viewBox="0 0 1286 909" version="1.1" xmlns="http://www.w3.org/2000/svg" xmlns:xlink="http://www.w3.org/1999/xlink">
<defs>
<style type="text/css"><![CDATA[
.g0_931{
fill: none;
stroke: #000000;
stroke-width: 0.73;
stroke-linecap: butt;
stroke-linejoin: miter;
}
.g1_931{
fill: none;
stroke: #02B5EE;
stroke-width: 1.262;
stroke-linecap: butt;
stroke-linejoin: miter;
}
.g2_931{
fill: none;
stroke: #FFA313;
stroke-width: 1.262;
stroke-linecap: butt;
stroke-linejoin: miter;
}
.g3_931{
fill: none;
stroke: #FFA313;
stroke-width: 0.73;
stroke-linecap: butt;
stroke-linejoin: miter;
}
.g4_931{
fill: none;
stroke: #02B5EE;
stroke-width: 0.73;
stroke-linecap: butt;
stroke-linejoin: miter;
}
]]></style>
</defs>
<path d="M193,83.4h900.3M193,210.6H881.6m-688.6,0H881.6m-354,29.6V211m0,58.5V240.2m0,114.3v-85" class="g0_931"/>
<path d="M587,330.5h34.6" class="g1_931"/>
<path d="M632.1,330.5H870.6" class="g2_931"/>
<path d="M527.6,383.7V354.5m0,102.3V383.7" class="g0_931"/>
<path d="M578.4,442.9H830.8" class="g3_931"/>
<path d="M836.9,442.9h33.7" class="g4_931"/>
<path d="M527.6,486V456.8m0,58.4V486m0,114.2v-85" class="g0_931"/>
<path d="M561.8,576.2h34.6" class="g1_931"/>
<path d="M606.9,576.2H714" class="g2_931"/>
<path d="M527.6,629.5V600.2m0,102.3v-73" class="g0_931"/>
<path d="M746.3,688.6h84.5" class="g3_931"/>
<path d="M836.9,688.6h33.7" class="g4_931"/>
<path d="M527.6,731.7V702.5m0,58.5V731.7M193,761.3H881.6m-688.6,0H881.6" class="g0_931"/>
</svg>