<?xml version="1.0" encoding="UTF-8" standalone="no"?>
<!DOCTYPE svg PUBLIC "-//W3C//DTD SVG 1.1//EN"
"http://www.w3.org/Graphics/SVG/1.1/DTD/svg11.dtd">
<svg viewBox="0 0 1286 909" version="1.1" xmlns="http://www.w3.org/2000/svg" xmlns:xlink="http://www.w3.org/1999/xlink">
<defs>
<style type="text/css"><![CDATA[
.g0_1165{
fill: none;
stroke: #000000;
stroke-width: 0.73;
stroke-linecap: butt;
stroke-linejoin: miter;
}
.g1_1165{
fill: #C6EAFA;
}
.g2_1165{
fill: #FFCCCC;
}
.g3_1165{
fill: none;
stroke: #C083D5;
stroke-width: 2.191;
stroke-linecap: butt;
stroke-linejoin: miter;
}
.g4_1165{
fill: none;
stroke: #F81693;
stroke-width: 1.051;
stroke-linecap: butt;
stroke-linejoin: miter;
}
.g5_1165{
fill: none;
stroke: #02B5EE;
stroke-width: 1.051;
stroke-linecap: butt;
stroke-linejoin: miter;
}
.g6_1165{
fill: none;
stroke: #02B5EE;
stroke-width: 1.461;
stroke-linecap: butt;
stroke-linejoin: miter;
}
.g7_1165{
fill: none;
stroke: #02B5EE;
stroke-width: 0.86;
stroke-linecap: round;
stroke-linejoin: round;
}
.g8_1165{
fill: none;
stroke: #F81693;
stroke-width: 1.461;
stroke-linecap: butt;
stroke-linejoin: miter;
}
.g9_1165{
fill: none;
stroke: #F81693;
stroke-width: 1.122;
stroke-linecap: round;
stroke-linejoin: round;
}
]]></style>
</defs>
<path d="M193,83.4h900.3M193,111.6H1266.8M193,111.6H1266.8M649.2,141.2V112m0,58.5V141.2m0,58.5V170.5m0,84V199.7" class="g0_1165"/>
<path d="M836.4,246.7V207.5c0,-2.9,2.3,-5.2,5.2,-5.2h86c2.9,0,5.2,2.3,5.2,5.2v39.2c0,2.8,-2.3,5.2,-5.2,5.2h-86c-2.9,0,-5.2,-2.4,-5.2,-5.2Z" class="g1_1165"/>
<path d="M946.8,246.7V207.5c0,-2.9,2.3,-5.2,5.2,-5.2h56.8c2.8,0,5.2,2.3,5.2,5.2v39.2c0,2.8,-2.4,5.2,-5.2,5.2H952c-2.9,0,-5.2,-2.4,-5.2,-5.2Z" class="g2_1165"/>
<path d="M649.2,283.7V254.5m0,134.5V283.7" class="g0_1165"/>
<path d="M762.2,352.4L690.7,301.9m0,50.5l71.5,-50.5" class="g3_1165"/>
<path d="M795.3,346.7V307.6c0,-2.9,2.3,-5.2,5.2,-5.2h56.7c2.9,0,5.2,2.3,5.2,5.2v39.1c0,2.9,-2.3,5.2,-5.2,5.2H800.5c-2.9,0,-5.2,-2.3,-5.2,-5.2Z" class="g2_1165"/>
<path d="M792.7,356.5h81.1" class="g4_1165"/>
<path d="M885.1,346.7V307.6c0,-2.9,2.4,-5.2,5.2,-5.2h86.1c2.9,0,5.2,2.3,5.2,5.2v39.1c0,2.9,-2.3,5.2,-5.2,5.2H890.3c-2.8,0,-5.2,-2.3,-5.2,-5.2Z" class="g1_1165"/>
<path d="M882.5,356.5h251.1" class="g5_1165"/>
<path d="M1142.3,356.5H1241" class="g4_1165"/>
<path d="M885.6,255.3l47.8,44.5" class="g6_1165"/>
<path d="M885.1,260.1c.8,-1.2,.3,-4.6,-.1,-5.2c.7,.3,4.1,.5,5.3,-.4" class="g7_1165"/>
<path d="M979.1,254.8l-150.3,45" class="g8_1165"/>
<path d="M975.3,252c.6,1.3,3.8,2.6,4.5,2.6c-.6,.5,-2.5,3.3,-2.3,4.7" class="g9_1165"/>
<path d="M649.2,418.2V389M193,418.6H1266.8M193,418.6H1266.8" class="g0_1165"/>
</svg>