<?xml version="1.0" encoding="UTF-8" standalone="no"?>
<!DOCTYPE svg PUBLIC "-//W3C//DTD SVG 1.1//EN"
"http://www.w3.org/Graphics/SVG/1.1/DTD/svg11.dtd">
<svg viewBox="0 0 1286 909" version="1.1" xmlns="http://www.w3.org/2000/svg" xmlns:xlink="http://www.w3.org/1999/xlink">
<defs>
<style type="text/css"><![CDATA[
.g0_1075{
fill: none;
stroke: #000000;
stroke-width: 0.73;
stroke-linecap: butt;
stroke-linejoin: miter;
}
.g1_1075{
fill: #FFCCCC;
}
.g2_1075{
fill: none;
stroke: #F81693;
stroke-width: 1.262;
stroke-linecap: butt;
stroke-linejoin: miter;
}
.g3_1075{
fill: none;
stroke: #02B5EE;
stroke-width: 1.262;
stroke-linecap: butt;
stroke-linejoin: miter;
}
.g4_1075{
fill: none;
stroke: #02B5EE;
stroke-width: 0.73;
stroke-linecap: butt;
stroke-linejoin: miter;
}
.g5_1075{
fill: none;
stroke: #F81693;
stroke-width: 0.73;
stroke-linecap: butt;
stroke-linejoin: miter;
}
]]></style>
</defs>
<path d="M193,83.4h900.3M193,111.6H812.1m-619.1,0H812.1M501,141.2V112m0,128.8V141.2" class="g0_1075"/>
<path d="M554.9,191.8V148.9c0,-2.8,2.4,-5.1,5.2,-5.1H752.7c2.9,0,5.2,2.3,5.2,5.1v42.9c0,2.9,-2.3,5.2,-5.2,5.2H560.1c-2.8,0,-5.2,-2.3,-5.2,-5.2Z" class="g1_1075"/>
<path d="M552.4,202.3H771" class="g2_1075"/>
<path d="M781.5,202.3h19.7" class="g3_1075"/>
<path d="M501,270V240.8M501,352V270" class="g0_1075"/>
<path d="M610.3,329.2H660" class="g4_1075"/>
<path d="M666.1,329.2H801.2" class="g5_1075"/>
<path d="M501,381.2V352m0,58.4V381.2m0,128.7V410.4" class="g0_1075"/>
<path d="M563.2,461V418.1c0,-2.9,2.3,-5.2,5.2,-5.2H752.7c2.9,0,5.2,2.3,5.2,5.2V461c0,2.8,-2.3,5.2,-5.2,5.2H568.4c-2.9,0,-5.2,-2.4,-5.2,-5.2Z" class="g1_1075"/>
<path d="M560.6,471.4H771" class="g2_1075"/>
<path d="M781.5,471.4h19.7" class="g3_1075"/>
<path d="M501,539.2V509.9m0,111.2V539.2" class="g0_1075"/>
<path d="M627.2,598.3h49.7" class="g4_1075"/>
<path d="M683,598.3H801.2" class="g5_1075"/>
<path d="M501,650.3V621.1m0,58.5V650.3m0,58.5V679.6M193,709.2H812.1m-619.1,0H812.1" class="g0_1075"/>
</svg>