<?xml version="1.0" encoding="UTF-8" standalone="no"?>
<!DOCTYPE svg PUBLIC "-//W3C//DTD SVG 1.1//EN"
"http://www.w3.org/Graphics/SVG/1.1/DTD/svg11.dtd">
<svg viewBox="0 0 1286 909" version="1.1" xmlns="http://www.w3.org/2000/svg" xmlns:xlink="http://www.w3.org/1999/xlink">
<defs>
<style type="text/css"><![CDATA[
.g0_717{
fill: none;
stroke: #000000;
stroke-width: 0.73;
stroke-linecap: butt;
stroke-linejoin: miter;
}
.g1_717{
fill: none;
stroke: #02B5EE;
stroke-width: 1.262;
stroke-linecap: butt;
stroke-linejoin: miter;
}
.g2_717{
fill: none;
stroke: #FFA313;
stroke-width: 1.262;
stroke-linecap: butt;
stroke-linejoin: miter;
}
.g3_717{
fill: none;
stroke: #FFA313;
stroke-width: 0.73;
stroke-linecap: butt;
stroke-linejoin: miter;
}
.g4_717{
fill: none;
stroke: #02B5EE;
stroke-width: 0.73;
stroke-linecap: butt;
stroke-linejoin: miter;
}
.g5_717{
fill: #B3E9FA;
}
.g6_717{
fill: none;
stroke: #5EE200;
stroke-width: 1.262;
stroke-linecap: butt;
stroke-linejoin: miter;
}
]]></style>
</defs>
<path d="M193,83.4h900.3M193,210.6H796.8m-603.8,0H796.8M476.9,240.2V211m0,58.5V240.2m0,114.3v-85" class="g0_717"/>
<path d="M487.9,330.5h34.6" class="g1_717"/>
<path d="M533,330.5H656.5" class="g2_717"/>
<path d="M476.9,383.7V354.5m0,102.3V383.7" class="g0_717"/>
<path d="M695.4,442.9H746" class="g3_717"/>
<path d="M752.1,442.9h33.8" class="g4_717"/>
<path d="M476.9,486V456.8m0,58.4V486m0,114.2v-85" class="g0_717"/>
<path d="M575.5,550.5V538.2c0,-2.8,2.4,-5.1,5.2,-5.1h82.9c2.9,0,5.2,2.3,5.2,5.1v12.3c0,2.8,-2.3,5.1,-5.2,5.1H580.7c-2.8,0,-5.2,-2.3,-5.2,-5.1Z" class="g5_717"/>
<path d="M572.9,576.2h98.5" class="g1_717"/>
<path d="M681.9,576.2h104" class="g6_717"/>
<path d="M476.9,629.5V600.2M193,629.8H796.8m-603.8,0H796.8" class="g0_717"/>
</svg>