<?xml version="1.0" encoding="UTF-8" standalone="no"?>
<!DOCTYPE svg PUBLIC "-//W3C//DTD SVG 1.1//EN"
"http://www.w3.org/Graphics/SVG/1.1/DTD/svg11.dtd">
<svg viewBox="0 0 909 1286" version="1.1" xmlns="http://www.w3.org/2000/svg" xmlns:xlink="http://www.w3.org/1999/xlink">
<defs>
<style type="text/css"><![CDATA[
.g0_3{
fill: none;
stroke: #000000;
stroke-width: 0.73;
stroke-linecap: butt;
stroke-linejoin: miter;
}
.g1_3{
stroke: #000000;
stroke-width: 0.73;
stroke-linecap: butt;
stroke-linejoin: miter;
}
.g2_3{
fill: #FFFFFF;
}
.g3_3{
fill: none;
stroke: #02B5EE;
stroke-width: 1.461;
stroke-linecap: butt;
stroke-linejoin: miter;
}
.g4_3{
fill: #FDE8E9;
}
]]></style>
</defs>
<path d="M116.9,179.9H683.4M248.8,209.5V180.3M201,282.5c0,-10.1,-8.2,-18.3,-18.3,-18.3c-10.1,0,-18.3,8.2,-18.3,18.3c0,10.1,8.2,18.2,18.3,18.2c10.1,0,18.3,-8.1,18.3,-18.2ZM182.7,264.2V251.4m-17.2,32.9l-19.7,7.8" class="g0_3"/>
<path d="M182.7,291.6L186,319h-6.6l3.3,-27.4" class="g1_3"/>
<path d="M199.9,284.3l19.7,7.8m29.2,63.4v-146" class="g0_3"/>
<path d="M262.7,347.7V217.3c0,-2.9,2.4,-5.2,5.2,-5.2H431.3c2.8,0,5.2,2.3,5.2,5.2V347.7c0,2.8,-2.4,5.2,-5.2,5.2H267.9c-2.8,0,-5.2,-2.4,-5.2,-5.2Z" class="g2_3"/>
<path d="M367.9,282.5c0,-10.1,-8.2,-18.3,-18.3,-18.3c-10.1,0,-18.3,8.2,-18.3,18.3c0,10.1,8.2,18.2,18.3,18.2c10.1,0,18.3,-8.1,18.3,-18.2ZM349.6,264.2V251.4m-17.2,32.9l-19.7,7.8" class="g0_3"/>
<path d="M349.6,291.6l3.3,27.4h-6.6l3.3,-27.4" class="g1_3"/>
<path d="M366.8,284.3l19.7,7.8M248.8,384.7V355.5m0,58.4V384.7m0,58.4V413.9m0,58.4V443.1" class="g0_3"/>
<path d="M260.1,470.9c1.4,0,2.1,-2.8,3.5,-2.8c1,0,1.8,1.4,2.7,2.8c.9,1.4,1.8,2.7,2.7,2.7c1,0,1.9,-1.3,2.8,-2.7c.9,-1.4,1.7,-2.8,2.7,-2.8c1,0,1.9,1.4,2.8,2.8c.9,1.4,1.7,2.7,2.7,2.7c1.4,0,2.1,-2.7,3.4,-2.7h4.1" class="g3_3"/>
<path d="M248.8,501.6V472.3m0,98.7V501.6" class="g0_3"/>
<path d="M326.4,563.2V509.4c0,-2.9,2.3,-5.2,5.2,-5.2H554.8c2.9,0,5.2,2.3,5.2,5.2v53.8c0,2.9,-2.3,5.2,-5.2,5.2H331.6c-2.9,0,-5.2,-2.3,-5.2,-5.2Z" class="g2_3"/>
<path d="M409.5,594.1h67.4V577.4H409.5v16.7Z" class="g4_3"/>
<path d="M352.4,552.8H534v-33H352.4v33Z" class="g4_3"/>
<path d="M248.8,600.2V571M116.9,600.6H683.4M248.8,630.2V600.9M201,703.2c0,-10.1,-8.2,-18.3,-18.3,-18.3c-10.1,0,-18.3,8.2,-18.3,18.3c0,10,8.2,18.2,18.3,18.2c10.1,0,18.3,-8.2,18.3,-18.2ZM182.7,684.9V672.1M165.5,705l-19.7,7.8" class="g0_3"/>
<path d="M182.7,712.3l3.3,27.4h-6.6l3.3,-27.4" class="g1_3"/>
<path d="M199.9,705l19.7,7.8m29.2,63.3V630.2" class="g0_3"/>
<path d="M262.7,768.3V638c0,-2.9,2.4,-5.2,5.2,-5.2H431.3c2.8,0,5.2,2.3,5.2,5.2V768.3c0,2.9,-2.4,5.2,-5.2,5.2H267.9c-2.8,0,-5.2,-2.3,-5.2,-5.2Z" class="g2_3"/>
<path d="M367.9,703.2c0,-10.1,-8.2,-18.3,-18.3,-18.3c-10.1,0,-18.3,8.2,-18.3,18.3c0,10,8.2,18.2,18.3,18.2c10.1,0,18.3,-8.2,18.3,-18.2ZM349.6,684.9V672.1M332.4,705l-19.7,7.8" class="g0_3"/>
<path d="M349.6,712.3l3.3,27.4h-6.6l3.3,-27.4" class="g1_3"/>
<path d="M366.8,705l19.7,7.8M248.8,805.4V776.1m0,58.5V805.4m0,58.4V834.6m0,58.4V863.8" class="g0_3"/>
<path d="M260.1,891.6c1.4,0,2.1,-2.8,3.5,-2.8c1,0,1.8,1.4,2.7,2.8c.9,1.4,1.8,2.7,2.7,2.7c1,0,1.9,-1.3,2.8,-2.7c.9,-1.4,1.7,-2.8,2.7,-2.8c1,0,1.9,1.4,2.8,2.8c.9,1.4,1.7,2.7,2.7,2.7c1.4,0,2.1,-2.7,3.4,-2.7h4.1" class="g3_3"/>
<path d="M248.8,922.3V893m0,98.7V922.3" class="g0_3"/>
<path d="M326.4,983.9V930.1c0,-2.9,2.3,-5.2,5.2,-5.2H519.3c2.9,0,5.2,2.3,5.2,5.2v53.8c0,2.8,-2.3,5.2,-5.2,5.2H331.6c-2.9,0,-5.2,-2.4,-5.2,-5.2Z" class="g2_3"/>
<path d="M391.8,1014.8h67.3V998.1H391.8v16.7Z" class="g4_3"/>
<path d="M352.4,973.5H498.5V940.4H352.4v33.1Z" class="g4_3"/>
<path d="M248.8,1020.9V991.7m-131.9,29.6H683.4" class="g0_3"/>
</svg>