<?xml version="1.0" encoding="UTF-8" standalone="no"?>
<!DOCTYPE svg PUBLIC "-//W3C//DTD SVG 1.1//EN"
"http://www.w3.org/Graphics/SVG/1.1/DTD/svg11.dtd">
<svg viewBox="0 0 1286 909" version="1.1" xmlns="http://www.w3.org/2000/svg" xmlns:xlink="http://www.w3.org/1999/xlink">
<defs>
<style type="text/css"><![CDATA[
.g0_681{
fill: none;
stroke: #000000;
stroke-width: 0.73;
stroke-linecap: butt;
stroke-linejoin: miter;
}
.g1_681{
fill: #FFCCCC;
}
.g2_681{
fill: none;
stroke: #F81693;
stroke-width: 1.461;
stroke-linecap: butt;
stroke-linejoin: miter;
stroke-dasharray: 2,2;
}
.g3_681{
fill: #AEF080;
}
.g4_681{
fill: none;
stroke: #5EE200;
stroke-width: 1.461;
stroke-linecap: butt;
stroke-linejoin: miter;
stroke-dasharray: 2,2;
}
.g5_681{
fill: none;
stroke: #02B5EE;
stroke-width: 1.262;
stroke-linecap: butt;
stroke-linejoin: miter;
}
]]></style>
</defs>
<path d="M193,83.4h900.3M193,210.6H968.4m-775.4,0H968.4M506.7,240.2V211m0,58.5V240.2m0,64.1V269.5" class="g0_681"/>
<path d="M553.7,304.3h59.6V271.4H553.7v32.9Z" class="g1_681"/>
<path d="M627.4,297.9H790.3" class="g2_681"/>
<path d="M506.7,333.5V304.3m0,62.1V333.5" class="g0_681"/>
<path d="M749.1,362h32" class="g2_681"/>
<path d="M790.8,366.4H957.5V333.5H790.8v32.9Z" class="g1_681"/>
<path d="M506.7,395.6V366.4m0,58.4V395.6m0,63.2v-34" class="g0_681"/>
<path d="M652.5,458.8h56.8V425.9H652.5v32.9Z" class="g1_681"/>
<path d="M719.8,458.8H879.4V425.9H719.8v32.9Z" class="g3_681"/>
<path d="M893.6,452.4h60.2" class="g4_681"/>
<path d="M506.7,488.9V458.8m0,63V488.9" class="g0_681"/>
<path d="M779.7,517.4h32.6" class="g4_681"/>
<path d="M816,521.8h44.7V488.9H816v32.9Z" class="g3_681"/>
<path d="M866.8,521.8h90.7V488.9H866.8v32.9Z" class="g1_681"/>
<path d="M506.7,551V521.8m0,58.5V551m0,114.3v-85" class="g0_681"/>
<path d="M750.7,641.3h77.4" class="g5_681"/>
<path d="M506.7,694.5V665.3m0,58.4V694.5m0,58.5V723.7M193,753.3H968.4m-775.4,0H968.4" class="g0_681"/>
</svg>