<?xml version="1.0" encoding="UTF-8" standalone="no"?>
<!DOCTYPE svg PUBLIC "-//W3C//DTD SVG 1.1//EN"
"http://www.w3.org/Graphics/SVG/1.1/DTD/svg11.dtd">
<svg viewBox="0 0 1286 909" version="1.1" xmlns="http://www.w3.org/2000/svg" xmlns:xlink="http://www.w3.org/1999/xlink">
<defs>
<style type="text/css"><![CDATA[
.g0_787{
fill: none;
stroke: #000000;
stroke-width: 0.73;
stroke-linecap: butt;
stroke-linejoin: miter;
}
.g1_787{
fill: none;
stroke: #02B5EE;
stroke-width: 1.262;
stroke-linecap: butt;
stroke-linejoin: miter;
}
.g2_787{
fill: none;
stroke: #5EE200;
stroke-width: 1.262;
stroke-linecap: butt;
stroke-linejoin: miter;
}
.g3_787{
fill: #FFCCCC;
}
.g4_787{
fill: none;
stroke: #5EE200;
stroke-width: 0.73;
stroke-linecap: butt;
stroke-linejoin: miter;
}
.g5_787{
fill: none;
stroke: #02B5EE;
stroke-width: 0.73;
stroke-linecap: butt;
stroke-linejoin: miter;
}
]]></style>
</defs>
<path d="M193,83.4h900.3M193,111.6h815m-815,0h815M649.2,141.2V112m0,58.5V141.2m0,58.5V170.5m0,114.2v-85" class="g0_787"/>
<path d="M702.8,260.7h64.8" class="g1_787"/>
<path d="M778.2,260.7H882" class="g2_787"/>
<path d="M903,249h94V216.1H903V249Z" class="g3_787"/>
<path d="M649.2,313.9V284.7m0,102.3V313.9" class="g0_787"/>
<path d="M787.5,363.2H895.7V330.4H787.5v32.8Z" class="g3_787"/>
<path d="M895.7,373.1h33.8" class="g4_787"/>
<path d="M929.5,373.1H997" class="g5_787"/>
<path d="M649.2,416.2V387m0,58.4V416.2m0,114.3V445.4" class="g0_787"/>
<path d="M707.6,506.5h61.5" class="g1_787"/>
<path d="M779.6,506.5H997" class="g2_787"/>
<path d="M649.2,559.7V530.5m0,102.2v-73" class="g0_787"/>
<path d="M810.6,618.9h102" class="g4_787"/>
<path d="M912.6,618.9H997" class="g5_787"/>
<path d="M649.2,662V632.7m0,58.5V662m0,58.4V691.2M193,720.8h815m-815,0h815" class="g0_787"/>
</svg>