<?xml version="1.0" encoding="UTF-8" standalone="no"?>
<!DOCTYPE svg PUBLIC "-//W3C//DTD SVG 1.1//EN"
"http://www.w3.org/Graphics/SVG/1.1/DTD/svg11.dtd">
<svg viewBox="0 0 1286 909" version="1.1" xmlns="http://www.w3.org/2000/svg" xmlns:xlink="http://www.w3.org/1999/xlink">
<defs>
<style type="text/css"><![CDATA[
.g0_1253{
fill: none;
stroke: #000000;
stroke-width: 0.73;
stroke-linecap: butt;
stroke-linejoin: miter;
}
.g1_1253{
fill: none;
stroke: #02B5EE;
stroke-width: 1.262;
stroke-linecap: butt;
stroke-linejoin: miter;
}
.g2_1253{
fill: none;
stroke: #5EE200;
stroke-width: 1.262;
stroke-linecap: butt;
stroke-linejoin: miter;
}
.g3_1253{
fill: none;
stroke: #FFA313;
stroke-width: 1.262;
stroke-linecap: butt;
stroke-linejoin: miter;
}
]]></style>
</defs>
<path d="M193,83.4h900.3M193,111.6h819.9m-819.9,0h819.9M581,141.2V112m0,58.5V141.2m0,114.3v-85" class="g0_1253"/>
<path d="M788.7,231.5H903.6" class="g1_1253"/>
<path d="M914.2,231.5h87.7" class="g2_1253"/>
<path d="M581,284.7V255.5m0,58.4V284.7M581,399V313.9" class="g0_1253"/>
<path d="M850.7,375h75.6" class="g1_1253"/>
<path d="M936.8,375h65.1" class="g2_1253"/>
<path d="M581,428.2V399m0,58.4V428.2m0,114.2v-85" class="g0_1253"/>
<path d="M672.8,518.4h34.6" class="g1_1253"/>
<path d="M717.9,518.4H888.3" class="g3_1253"/>
<path d="M581,571.7V542.4m0,58.5V571.7m0,114.2v-85" class="g0_1253"/>
<path d="M771.3,661.9h155" class="g1_1253"/>
<path d="M936.8,661.9h65.1" class="g2_1253"/>
<path d="M581,715.1V685.9m0,58.5V715.1M193,744.7h819.9m-819.9,0h819.9" class="g0_1253"/>
</svg>