<?xml version="1.0" encoding="UTF-8" standalone="no"?>
<!DOCTYPE svg PUBLIC "-//W3C//DTD SVG 1.1//EN"
"http://www.w3.org/Graphics/SVG/1.1/DTD/svg11.dtd">
<svg viewBox="0 0 1286 909" version="1.1" xmlns="http://www.w3.org/2000/svg" xmlns:xlink="http://www.w3.org/1999/xlink">
<defs>
<style type="text/css"><![CDATA[
.g0_241{
fill: none;
stroke: #000000;
stroke-width: 0.73;
stroke-linecap: butt;
stroke-linejoin: miter;
}
.g1_241{
fill: #B3E9FA;
}
.g2_241{
fill: none;
stroke: #02B5EE;
stroke-width: 1.262;
stroke-linecap: butt;
stroke-linejoin: miter;
}
.g3_241{
fill: none;
stroke: #5EE200;
stroke-width: 1.262;
stroke-linecap: butt;
stroke-linejoin: miter;
}
.g4_241{
fill: none;
stroke: #5EE200;
stroke-width: 0.73;
stroke-linecap: butt;
stroke-linejoin: miter;
}
.g5_241{
fill: none;
stroke: #02B5EE;
stroke-width: 0.73;
stroke-linecap: butt;
stroke-linejoin: miter;
}
]]></style>
</defs>
<path d="M193,83.4h900.3M193,111.6h963.9m-963.9,0h963.9M674.6,141.2V112m0,114.3V141.2" class="g0_241"/>
<path d="M985.5,182.8V164.3c0,-2.9,2.3,-5.2,5.2,-5.2h43.4c2.9,0,5.2,2.3,5.2,5.2v18.5c0,2.9,-2.3,5.2,-5.2,5.2H990.7c-2.9,0,-5.2,-2.3,-5.2,-5.2Z" class="g1_241"/>
<path d="M982.9,202.3h59" class="g2_241"/>
<path d="M1052.4,202.3h93.5" class="g3_241"/>
<path d="M674.6,255.5V226.3m0,58.4V255.5m0,114.2v-85" class="g0_241"/>
<path d="M921.1,345.7H1113" class="g2_241"/>
<path d="M1123.5,345.7h22.4" class="g3_241"/>
<path d="M674.6,399V369.7m0,102.3V399" class="g0_241"/>
<path d="M835.2,458.1h34.4" class="g4_241"/>
<path d="M875.7,458.1h270.2" class="g5_241"/>
<path d="M674.6,503.3V472m0,60.6V503.3m0,58.5V532.6m0,114.2v-85" class="g0_241"/>
<path d="M959.3,622.8h43.3" class="g2_241"/>
<path d="M1013.1,622.8h18.2" class="g3_241"/>
<path d="M674.6,676V646.8m0,58.5V676M193,705.6h963.9m-963.9,0h963.9" class="g0_241"/>
</svg>