<?xml version="1.0" encoding="UTF-8" standalone="no"?>
<!DOCTYPE svg PUBLIC "-//W3C//DTD SVG 1.1//EN"
"http://www.w3.org/Graphics/SVG/1.1/DTD/svg11.dtd">
<svg viewBox="0 0 1286 909" version="1.1" xmlns="http://www.w3.org/2000/svg" xmlns:xlink="http://www.w3.org/1999/xlink">
<defs>
<style type="text/css"><![CDATA[
.g0_1053{
fill: none;
stroke: #000000;
stroke-width: 0.73;
stroke-linecap: butt;
stroke-linejoin: miter;
}
.g1_1053{
fill: #FFCCCC;
}
.g2_1053{
fill: #AEF080;
}
.g3_1053{
fill: none;
stroke: #5EE200;
stroke-width: 1.461;
stroke-linecap: butt;
stroke-linejoin: miter;
stroke-dasharray: 2,2;
}
]]></style>
</defs>
<path d="M193,83.4h900.3M193,111.6h867.2m-867.2,0h867.2M620.3,141.2V112m0,58.5V141.2m0,60.6V170.5m0,60.5V201.8m0,58.4V231m0,63.2v-34" class="g0_1053"/>
<path d="M774.5,294.2h59.6V261.3H774.5v32.9Z" class="g1_1053"/>
<path d="M844.6,294.2H971.2V261.3H844.6v32.9Z" class="g2_1053"/>
<path d="M985.4,287.8h60.2" class="g3_1053"/>
<path d="M620.3,324.4V294.2m0,63V324.4" class="g0_1053"/>
<path d="M820.8,352.9h66.4" class="g3_1053"/>
<path d="M890.9,357.2h112.3V324.4H890.9v32.8Z" class="g2_1053"/>
<path d="M1009.3,357.2h40V324.4h-40v32.8Z" class="g1_1053"/>
<path d="M620.3,386.5V357.2m0,58.5V386.5m0,58.4V415.7m0,58.4V444.9m0,60.5V474.1m0,60.6V505.4m0,58.5V534.7m0,60.5V563.9m0,60.5V595.2M193,624.8h867.2m-867.2,0h867.2" class="g0_1053"/>
</svg>