<?xml version="1.0" encoding="UTF-8" standalone="no"?>
<!DOCTYPE svg PUBLIC "-//W3C//DTD SVG 1.1//EN"
"http://www.w3.org/Graphics/SVG/1.1/DTD/svg11.dtd">
<svg viewBox="0 0 1286 909" version="1.1" xmlns="http://www.w3.org/2000/svg" xmlns:xlink="http://www.w3.org/1999/xlink">
<defs>
<style type="text/css"><![CDATA[
.g0_152{
fill: none;
stroke: #000000;
stroke-width: 0.73;
stroke-linecap: butt;
stroke-linejoin: miter;
}
.g1_152{
fill: none;
stroke: #02B5EE;
stroke-width: 1.262;
stroke-linecap: butt;
stroke-linejoin: miter;
}
.g2_152{
fill: none;
stroke: #5EE200;
stroke-width: 1.262;
stroke-linecap: butt;
stroke-linejoin: miter;
}
.g3_152{
fill: none;
stroke: #5EE200;
stroke-width: 0.73;
stroke-linecap: butt;
stroke-linejoin: miter;
}
.g4_152{
fill: none;
stroke: #02B5EE;
stroke-width: 0.73;
stroke-linecap: butt;
stroke-linejoin: miter;
}
]]></style>
</defs>
<path d="M193,83.4h900.3M193,210.6H691.4m-498.4,0H691.4M381.7,240.2V211m0,58.5V240.2m0,114.3v-85" class="g0_152"/>
<path d="M517.4,330.5h81" class="g1_152"/>
<path d="M608.9,330.5h71.5" class="g2_152"/>
<path d="M381.7,383.7V354.5m0,102.3V383.7" class="g0_152"/>
<path d="M556.1,442.9h67.6" class="g3_152"/>
<path d="M629.7,442.9h50.7" class="g4_152"/>
<path d="M381.7,486V456.8m0,58.4V486m0,114.2v-85" class="g0_152"/>
<path d="M437,576.2H551" class="g1_152"/>
<path d="M381.7,629.5V600.2m0,102.3v-73" class="g0_152"/>
<path d="M612.8,688.6h67.6" class="g4_152"/>
<path d="M381.7,731.7V702.5M193,732.1H691.4m-498.4,0H691.4" class="g0_152"/>
</svg>