<?xml version="1.0" encoding="UTF-8" standalone="no"?>
<!DOCTYPE svg PUBLIC "-//W3C//DTD SVG 1.1//EN"
"http://www.w3.org/Graphics/SVG/1.1/DTD/svg11.dtd">
<svg viewBox="0 0 909 1286" version="1.1" xmlns="http://www.w3.org/2000/svg" xmlns:xlink="http://www.w3.org/1999/xlink">
<defs>
<style type="text/css"><![CDATA[
.g0_30{
fill: #FDE8E9;
}
.g1_30{
fill: none;
stroke: #000000;
stroke-width: 0.73;
stroke-linecap: butt;
stroke-linejoin: miter;
}
.g2_30{
fill: none;
stroke: #F81693;
stroke-width: 0.73;
stroke-linecap: butt;
stroke-linejoin: miter;
}
.g3_30{
fill: none;
stroke: #02B5EE;
stroke-width: 0.73;
stroke-linecap: butt;
stroke-linejoin: miter;
}
.g4_30{
fill: none;
stroke: #02B5EE;
stroke-width: 1.461;
stroke-linecap: butt;
stroke-linejoin: miter;
}
.g5_30{
fill: #FFFFFF;
}
]]></style>
</defs>
<path d="M165.8,241.8h92V210.6h-92v31.2Z" class="g0_30"/>
<path d="M116.9,258.6H623.7M289,288.2V259M161.7,358.5l31.2,-18.6m-31.2,18.6L130.5,339.9m62.4,-.2l24.9,14.8M190.7,339.7V314.1m4.4,25.6V314.1m-35.6,44.4v25.6m4.4,-25.6v25.6M289,406.6V288.2" class="g1_30"/>
<path d="M380.4,354.7l18.2,-11m-31,11l-18.3,-11m62.3,-.2l18.3,11M403,334.2V314.1m4.4,20.1V314.1" class="g2_30"/>
<path d="M371.8,364v20.1M376.2,364v20.1" class="g3_30"/>
<path d="M289,435.8V406.6m0,58.4V435.8m0,58.4V465m0,58.4V494.2m0,58.5V523.4m0,58.5V552.7" class="g1_30"/>
<path d="M317.2,580.4c1.4,0,2.1,-2.7,3.4,-2.7c1,0,1.9,1.3,2.8,2.7c.9,1.4,1.7,2.8,2.7,2.8c1,0,1.9,-1.4,2.8,-2.8c.9,-1.4,1.7,-2.7,2.7,-2.7c1.4,0,2.1,2.7,3.4,2.7h3.9" class="g4_30"/>
<path d="M289,611.1V581.9m0,105.7V611.1" class="g1_30"/>
<path d="M366.6,679.8V618.9c0,-2.9,2.3,-5.2,5.2,-5.2H570.3c2.8,0,5.2,2.3,5.2,5.2v60.9c0,2.9,-2.4,5.2,-5.2,5.2H371.8c-2.9,0,-5.2,-2.3,-5.2,-5.2Z" class="g5_30"/>
<path d="M437.2,710.5h67.7V694.1H437.2v16.4Z" class="g0_30"/>
<path d="M392.6,669.4H549.5V629.3H392.6v40.1Z" class="g0_30"/>
<path d="M289,716.9V687.6M116.9,717.2H623.7M289,746.8V717.6m-64.8,80.2L249,812.6M224.2,797.8l-31.3,18.6M161.7,797.8l31.2,18.6M161.7,797.8l-31.2,18.6M222,797.8V772.2m4.3,25.6V772.2m-66.8,25.6V772.2m4.4,25.6V772.2M289,828.6V746.8" class="g1_30"/>
<path d="M442.8,801.6l18.3,11m-31,-11l-18.3,11m-31.4,-11l18.2,11m-31,-11l-18.3,11m85,-20.3V772.2m4.3,20.1V772.2" class="g2_30"/>
<path d="M371.8,792.3V772.2m4.4,20.1V772.2" class="g3_30"/>
<path d="M289,857.9V828.6m0,58.5V857.9m0,58.4V887.1m0,58.4V916.3m0,58.5V945.5m0,58.5V974.8" class="g1_30"/>
<path d="M317.2,1002.5c1.4,0,2.1,-2.7,3.4,-2.7c1,0,1.9,1.3,2.8,2.7c.9,1.4,1.7,2.8,2.7,2.8c1,0,1.9,-1.4,2.8,-2.8c.9,-1.4,1.7,-2.7,2.7,-2.7c1.4,0,2.1,2.7,3.4,2.7h3.9" class="g4_30"/>
<path d="M289,1033.2V1004m0,105.7v-76.5" class="g1_30"/>
<path d="M366.6,1101.9V1041c0,-2.9,2.3,-5.2,5.2,-5.2H570.3c2.8,0,5.2,2.3,5.2,5.2v60.9c0,2.9,-2.4,5.2,-5.2,5.2H371.8c-2.9,0,-5.2,-2.3,-5.2,-5.2Z" class="g5_30"/>
<path d="M428.4,1130.4h85.2v-14.2H428.4v14.2Z" class="g0_30"/>
<path d="M392.6,1091.5H549.5v-40.1H392.6v40.1Z" class="g0_30"/>
<path d="M289,1139v-29.3m-172.1,29.6H623.7" class="g1_30"/>
</svg>