<?xml version="1.0" encoding="UTF-8" standalone="no"?>
<!DOCTYPE svg PUBLIC "-//W3C//DTD SVG 1.1//EN"
"http://www.w3.org/Graphics/SVG/1.1/DTD/svg11.dtd">
<svg viewBox="0 0 909 1286" version="1.1" xmlns="http://www.w3.org/2000/svg" xmlns:xlink="http://www.w3.org/1999/xlink">
<defs>
<clipPath id="c0_20"><path d="M122.9,222.3V187.6H152v34.7Z"/></clipPath>
<clipPath id="c1_20"><path d="M123.1,764V732.3h29.1V764Z"/></clipPath>
<clipPath id="c2_20"><path d="M122.1,222.7V186.5H153v36.2Z"/></clipPath>
<clipPath id="c3_20"><path d="M122.1,764.5V731.8H153v32.7Z"/></clipPath>
<style type="text/css"><![CDATA[
.g0_20{
fill: none;
stroke: #000000;
stroke-width: 0.73;
stroke-linecap: butt;
stroke-linejoin: miter;
}
.g1_20{
fill: #FFFFFF;
}
.g2_20{
fill: none;
stroke: #000000;
stroke-width: 1.461;
stroke-linecap: butt;
stroke-linejoin: miter;
}
.g3_20{
fill: none;
stroke: #3F3F3F;
stroke-width: 0.73;
stroke-linecap: butt;
stroke-linejoin: miter;
stroke-dasharray: 6,6;
}
.g4_20{
fill: #868686;
}
.g5_20{
fill: #242628;
}
.g6_20{
fill: #A0A0A0;
}
.g7_20{
fill: #C4956E;
}
.g8_20{
fill: #222426;
}
.g9_20{
fill: #202126;
}
.ga_20{
fill: #252427;
}
.gb_20{
fill: #222924;
}
.gc_20{
fill: none;
stroke: #000000;
stroke-width: 2.739;
stroke-linecap: butt;
stroke-linejoin: miter;
}
.gd_20{
fill: #FFCCCC;
}
.ge_20{
fill: #C6EAFA;
}
.gf_20{
}
.gg_20{
fill: none;
stroke: #000000;
stroke-width: 0.459;
stroke-linecap: butt;
stroke-linejoin: round;
}
.gh_20{
fill: none;
stroke: #000000;
stroke-width: 0.722;
stroke-linecap: round;
stroke-linejoin: miter;
}
.gi_20{
fill: none;
stroke: #000000;
stroke-width: 0.722;
stroke-linecap: round;
stroke-linejoin: round;
}
.gj_20{
fill: #D40000;
}
.gk_20{
fill: none;
stroke: #000000;
stroke-width: 0.578;
stroke-linecap: round;
stroke-linejoin: miter;
}
.gl_20{
fill: #E9C6AF;
}
.gm_20{
fill: none;
stroke: #695000;
stroke-width: 0.152;
stroke-linecap: round;
stroke-linejoin: round;
}
]]></style>
</defs>
<path d="M116.9,159.9H792.5" class="g0_20"/>
<path d="M117.7,683.9V180.3H791.8V683.9Z" class="g1_20"/>
<path d="M117.7,683.9V180.3H791.8V683.9Z" class="g2_20"/>
<path d="M470.3,401.6V644" class="g3_20"/>
<path d="M620.9,439.8c15.5,15.5,15.7,40.5,.6,56.3m7.1,-.5c-2.5,.4,-4.9,.6,-7.3,.7c-.1,-2.3,-.4,-4.6,-.8,-6.8m.4,50.8c10.5,10.6,10.8,27.6,.6,38.3m7.1,-.8c-2.5,.6,-4.9,1,-7.3,1.1c-.2,-2.3,-.5,-4.6,-1.1,-6.7" class="g0_20"/>
<g clip-path="url(#c2_20)">
<path clip-path="url(#c0_20)" d="M125.6,222.1c-.1,-.1,-.1,-.2,0,-.3c0,-.2,.1,-1.3,0,-1.7c0,-.2,0,-.5,0,-.7c.2,-.9,.3,-2.2,.3,-2.2c0,0,0,-.3,.1,-.6c.1,-.5,.1,-.6,-.1,-1c-.3,-.5,-.9,-2,-1.1,-2.7c-.4,-1.8,-.5,-4.6,-.1,-6.1c.3,-1.1,.5,-1.2,.9,-.5c.3,.7,.4,.5,0,-.3c-.3,-.7,-.6,-2,-.5,-2.4c0,-.2,.2,-.7,.4,-1.1c.2,-.4,.4,-1,.5,-1.2c.2,-.5,.5,-.7,.9,-.6c.1,.1,.2,.2,.3,.4q.2,.2,.1,-.3c-.1,-.3,-.2,-.5,-.1,-.5c0,-.1,0,-.2,0,-.4c.1,-.4,1,-2.1,1.6,-2.7c.3,-.2,.6,-.5,.7,-.7c.1,-.1,.5,-.4,.8,-.6c.3,-.3,.7,-.6,.9,-.8c.4,-.4,.7,-.5,.9,-.2q.2,.1,.2,-.2c0,-.2,0,-.4,0,-.5c.1,-.2,1.5,-1.2,2.1,-1.5c.3,-.1,.6,-.3,.8,-.4c.1,-.1,.3,-.2,.4,-.2c0,-.1,.4,-.2,.8,-.5c.4,-.2,.9,-.4,1,-.5c.2,-.1,.6,-.2,1,-.4c1.1,-.5,1.6,-.8,2.4,-1.1c.5,-.1,.9,-.3,1,-.3c0,-.1,.1,0,.3,.1l.2,.2l.4,-.4c.6,-.5,1.6,-.8,3.8,-1.1c.9,-.1,2.2,-.3,2.8,-.4l1,-.1l.1,.3q.1,.2,-.3,.4c-2.7,1,-4.6,2,-5.5,2.8c-.3,.2,-.5,.4,-.5,.4c-.1,0,-1.5,1.4,-1.5,1.6c0,0,-.1,.2,-.2,.2c-.3,.2,-.6,.8,-.5,1.1c0,.2,-.1,.4,-.4,.6c-.3,.2,-.4,.3,-.4,.4c.2,.1,0,.9,-.2,1.1c-.7,.8,-1.7,2.3,-1.9,2.9c-.1,.1,-.2,.5,-.4,.8c-.2,.3,-.4,.7,-.5,1q-.4,1,-1,1c-.5,.1,-1.4,.4,-1.3,.5c0,0,.4,-.1,.9,-.1c1.1,-.2,1.2,-.1,.8,.7c-.4,.7,-.7,1.6,-.7,2.1c0,.3,-.2,.8,-.6,2.3c-.1,.3,-.3,.5,-.7,.7c-.5,.3,-.6,.3,-1.2,.3q-.7,0,-.6,.2c.1,.2,-.1,.5,-.5,1.4c-.3,.6,-.7,1.2,-.8,1.3c-.2,.1,-.4,.5,-.6,.8c-.2,.2,-.4,.5,-.5,.5c0,0,-.2,.1,-.3,.3c-.6,.8,-2.7,2.6,-3,2.7l.3,-3.3c.1,.2,.4,0,.6,-.3c.2,-.3,.5,-.5,1.1,-.6c.5,0,.6,-.1,1,-.5c.2,-.2,.6,-.8,.9,-1.3l.5,-1l-.5,-.3c-.3,-.1,-.6,-.3,-.7,-.4c-.1,-.2,.4,-.9,.7,-1.1c.2,0,.5,-.1,.7,-.1c.2,0,.5,-.2,.7,-.3c.3,-.1,.5,-.3,.7,-.3c.6,0,.8,-.4,.8,-1.3c.1,-.9,.2,-1.1,.5,-1.2c.4,-.2,.7,-.1,.9,.2l.1,.2l.1,-.3c.1,-.2,.1,-.4,-.1,-.3c-.1,0,-.2,-.1,-.3,-.3c-.1,-.2,-.1,-.3,-.6,-.4c-.6,-.2,-.7,-.3,-.5,-.5c0,-.1,0,-.3,0,-.4c-.1,-.3,.4,-.7,1,-1c.5,-.2,.6,-.3,1.1,-1.3c.3,-.5,.8,-1.2,1,-1.4c.2,-.2,.5,-.5,.6,-.7c.1,-.2,.2,-.3,.4,-.2c.2,0,.4,-.1,.5,-.2c.2,-.2,.9,-1.1,.8,-1.2c0,0,-.2,.1,-.5,.2c-.7,.4,-1.8,.3,-2,0c-.2,-.3,.4,-1.2,.9,-1.2c.1,0,1.1,-.5,1.5,-.8c.1,-.1,.3,-.5,.5,-.8c.3,-.7,.8,-1.4,1.2,-1.5c.5,-.1,.7,-.3,.9,-.7c.2,-.5,.1,-.7,-.4,-.9c-.1,-.1,-.3,-.2,-.4,-.3c0,-.2,-.1,-.3,-.2,-.3c-.3,.1,-3,1.1,-4.1,1.7c-.2,.1,-.5,.4,-.7,.5c-.1,.2,-.5,.6,-.9,.9c-.4,.3,-.9,.7,-1,1c-.1,.2,-.4,.6,-.7,.9c-.4,.4,-.4,.5,-.4,1.2c-.1,.4,0,.9,.1,1.2c.3,.7,.2,1.1,-.3,1c-.5,0,-.8,-.4,-1.3,-1.5c-.3,-.6,-.6,-1.1,-.6,-1.1c-.2,.1,-.8,.8,-1.1,1.3c-.2,.5,-.3,.6,-.7,.8q-.5,.2,-.7,.7c-.1,.3,-.1,.7,-.1,.8c.1,.1,.1,.2,.1,.3c-.1,.4,-.1,.8,.1,1.3c.2,.2,.3,.6,.3,.7c0,.2,.1,.6,.3,1c.3,.6,.3,.7,.2,1.1c-.1,.3,-.1,.7,-.1,.8c-.1,.3,-.4,.2,-1.1,-.3c-.5,-.5,-1.2,-1.2,-2,-2.4c-.3,-.4,-.4,-.4,-.3,-.1c0,.2,-.1,.5,-.2,.9c-.2,.6,-.1,1.3,.2,1.7c.2,.3,.8,1.9,.9,2.3c0,.1,0,.4,.1,.5c.1,.2,.1,1,-.1,1.2c0,.1,0,.3,0,.5c0,.1,-.1,.2,-.2,.2c-.2,0,-.7,-.4,-1,-.7c-.1,-.1,-.3,-.3,-.4,-.4l-.3,-.3l-.1,.2c-.1,.2,0,.7,.1,1.1c.3,.8,.4,2.4,.2,3c0,.1,-.2,.3,-.4,.4c-.4,.3,-.3,.6,.4,1.5l.4,.5l.1,-.3c.1,-.1,.2,-.5,.3,-.9c.1,-.4,.2,-.8,.3,-1c.1,-.2,.2,-.6,.3,-.8q.1,-.5,2.3,-5.3q1,-2.1,1.9,-3.3c.7,-1.1,1.3,-2.1,1.9,-3.1c.8,-1.3,.9,-1.5,1.4,-2.1c.3,-.3,.7,-.8,.9,-1.1c.9,-1.1,1.1,-1.4,1.3,-1.3c.1,0,.2,.1,.2,.1c0,.1,-.2,.4,-.5,.8c-.3,.5,-.8,1.2,-1,1.6c-.9,1.4,-2.1,3.4,-2.5,4c-.2,.3,-.5,.7,-.6,.9c-.1,.2,-.4,.6,-.5,.9c-.2,.3,-.3,.6,-.3,.7c-.1,.3,-.2,.8,-1.2,2.6c-.8,1.5,-1,2,-1.7,3.7c-.5,1,-.8,2.1,-.7,2.3l-.3,3.3c-.3,0,-.5,1.8,-.2,2.9c.1,.7,.1,1,-.2,1.3c-.6,.4,-1.1,1.1,-1.3,1.6c-.1,.4,-.2,.5,-.4,.6c-.1,0,-.2,-.1,-.3,-.2Z" class="g4_20"/>
<path d="M133.1,208.6c-.1,-.1,-.3,-.1,-.3,-.1q-.2,0,0,.1c0,.1,.2,.1,.3,.1q.2,0,0,-.1Z" class="g1_20"/>
<path d="M144.5,189.5q0,-.1,-.1,-.1c-.1,0,-.1,.1,-.2,.2q0,.1,.1,.1c.1,0,.2,-.1,.2,-.2Z" class="g1_20"/>
<path d="M125.7,222.2c-.1,-.1,-.1,-.2,-.1,-.3c.1,-.2,.1,-.9,.1,-1.7c0,-1.4,.1,-2.2,.4,-3.5l.1,-.7l-.5,-.9c-.2,-.5,-.5,-1.3,-.6,-1.7c-.1,-.3,-.3,-.8,-.3,-.9c-.2,-.7,-.3,-2.9,-.3,-3.9c.1,-1.1,.5,-2.6,.7,-2.6c.1,0,.2,.1,.5,.5c.4,.8,.6,.8,.2,0c-.4,-.9,-.7,-1.9,-.7,-2.5c0,-.5,.5,-1.9,.9,-2.8c.2,-.3,.3,-.5,.5,-.5q.3,0,.9,.9l.5,.7l-.4,-.7c-.5,-1.1,-.4,-1.7,.3,-2.9c.3,-.5,.6,-1,.7,-1.1c.1,-.1,.4,-.4,.6,-.7c.3,-.3,.8,-.7,1.2,-1c.3,-.2,.7,-.6,.9,-.8c.4,-.5,.7,-.5,1,.1l.2,.4l-.1,-.5c-.1,-.8,0,-1,.8,-1.6c.5,-.3,.9,-.5,1,-.5c0,-.1,.1,-.1,.1,-.1c0,-.1,.1,-.1,.3,-.2q.2,0,.2,.2c-.1,0,-.1,.1,-.2,.1c-.1,0,-.4,.2,-.7,.5c-.4,.3,-.8,.6,-.9,.7c-.2,.1,-.3,.3,-.3,.7c.1,.3,.1,.7,.2,.8c.1,.5,.1,1,0,1c-.2,.1,-.4,-.2,-.7,-.8l-.3,-.7l-.4,.3c-.1,.1,-.3,.3,-.3,.3c-.1,0,-.3,.2,-.6,.5c-.3,.2,-.6,.5,-.7,.5c-.1,.1,-.3,.4,-.6,.6c-.6,.7,-1.6,2.3,-1.5,2.6c.1,.3,1,2.2,1.7,3.5c.5,.9,.6,1,.4,1c-.2,0,-1.2,-.8,-1.6,-1.4c-.3,-.3,-.6,-.7,-.8,-.9c-.1,-.2,-.3,-.5,-.4,-.7c-.2,-.4,-.4,-.4,-.6,0c-.3,.5,-.8,2.2,-.9,2.5c-.1,.8,.6,2.7,1.5,3.8c.7,1,.7,1.3,-.1,.8c-.3,-.2,-1.2,-1.2,-1.5,-1.6c0,-.1,-.1,-.2,-.1,-.2c-.2,.1,-.4,1.1,-.4,1.8c0,.3,0,.7,-.1,.8c0,.1,0,.7,.1,1.3c.1,.6,.1,1.3,.1,1.5c.1,.7,1,3.1,1.2,3c0,-.1,.1,-.6,.3,-1.2c.2,-.5,.3,-1.2,.4,-1.4c0,-.2,.1,-.4,.1,-.5c.1,-.1,.2,-.4,.3,-.7c.1,-.5,.2,-.9,1.1,-2.7c.3,-.5,.7,-1.4,.9,-1.9c.8,-1.6,1.6,-3.2,2.2,-4.2c.7,-1,1.1,-1.6,1.9,-3c.2,-.3,.6,-.8,.7,-1c.2,-.2,.3,-.5,.3,-.6c.1,0,.3,-.4,.6,-.7c.2,-.3,.6,-.7,.8,-1c.9,-1.2,1.1,-1.3,1.2,-1.3c.2,.1,.2,.2,-.6,1.2c-.2,.3,-.6,.9,-.8,1.3c-.8,1.3,-2.1,3.4,-2.4,3.8c-.6,.8,-1.5,2.5,-1.5,2.7c0,.2,-.5,1.4,-1.2,2.7c-.7,1.3,-1.3,2.7,-1.5,3.1c-.1,.4,-.3,.7,-.3,.7c-.1,.1,-.5,1.3,-.6,1.8c0,.3,-.1,.7,-.1,1c-.2,.8,-.3,2,-.3,2.1c0,0,.1,0,.3,-.1c.1,-.1,.3,-.4,.6,-.5c.2,-.2,.5,-.5,.8,-.7c.2,-.2,.4,-.5,.5,-.5c.6,-.6,.9,-1,1.2,-1.5c.3,-.3,.6,-.7,.7,-.8c.3,-.3,1.2,-2,1.2,-2.1c-.1,0,-.4,-.3,-.9,-.5c-.9,-.4,-1,-.6,-.8,-.7c.1,-.1,1,0,1.8,.2c.2,.1,.7,.1,1,.1c.9,-.1,1.4,-.4,1.6,-1.1c.1,-.2,.2,-.5,.2,-.7c.1,-.3,.3,-1,.3,-1.5c.1,-.6,.4,-1.3,.6,-1.7l.2,-.3l-.5,.1c-.5,0,-1.6,-.2,-1.7,-.4c-.1,-.2,.7,-.6,1.6,-.8l.8,-.2l.2,-.5c.2,-.4,.3,-.8,.4,-.9c0,-.2,.1,-.4,.2,-.5c.1,-.1,.3,-.3,.4,-.6c.1,-.2,.3,-.6,.5,-.9c1.3,-1.9,1.5,-2.2,1.4,-2.3c-.1,0,-.4,.1,-.6,.2c-.7,.4,-1.5,.4,-1.5,.1c0,-.3,1.8,-1.3,2.7,-1.6q.4,-.1,.4,-.5c0,-.3,.2,-.6,.3,-.8c.1,-.2,.3,-.5,.4,-.7c.3,-.5,2.2,-2.2,3.2,-2.8c.7,-.4,1.8,-1,2.7,-1.3l.7,-.3l-1.6,.2c-2.6,.3,-3.7,.6,-4.4,1.4c-.3,.4,-.4,.4,-.5,.2c-.1,-.3,.6,-1,1.2,-1.2c.6,-.3,1.7,-.6,2.4,-.6c.4,-.1,1.5,-.2,2.5,-.4c1.5,-.3,1.8,-.3,1.9,-.2c.4,.2,.3,.4,-.2,.6c-1.1,.4,-2.2,.8,-2.9,1.2c-.7,.3,-2,1,-2.2,1.3c-.1,0,-.3,.2,-.5,.4c-1,.8,-1.7,1.5,-1.9,1.8c-.1,.2,-.3,.4,-.4,.6c-.1,.1,-.3,.4,-.3,.7c0,.3,-.1,.4,-.4,.6c-.2,.2,-.5,.3,-.6,.3h-.2l.2,.1c.4,.1,.5,.2,.3,.4c0,.1,-.1,.3,-.1,.3c.1,.1,-.1,.4,-.4,.7c-.2,.3,-.5,.6,-.6,.8c-.1,.1,-.3,.5,-.4,.7c-.4,.5,-.6,.9,-.7,1.2c0,.1,-.2,.4,-.4,.7c-.2,.5,-.4,.8,-.7,1.6c-.1,.3,-.2,.4,-.7,.5c-.7,.1,-1.5,.3,-1.4,.4c0,.1,.4,.1,.9,0c.8,-.1,.9,-.1,1,0c.1,.2,.1,.4,-.2,.7c-.3,.6,-.7,1.7,-.7,2.2c0,.3,-.3,1.2,-.6,2.1c-.1,.3,-.2,.5,-.6,.7c-.5,.3,-.6,.4,-1.2,.4c-.4,0,-.9,-.1,-1,-.1c-.2,-.1,-.5,-.2,-.8,-.2l-.6,-.1l.5,.2c.3,.2,.6,.3,.7,.3q.5,0,.6,.1c.1,.2,-.9,2.1,-1.3,2.6c-.2,.2,-.5,.5,-.6,.8c-.2,.2,-.4,.5,-.5,.6c-.2,.1,-.4,.3,-.6,.5c-.4,.5,-1.3,1.4,-1.7,1.6c-.1,.1,-.4,.3,-.5,.4c-.1,.2,-.3,.3,-.5,.4c-.2,0,-.3,.2,-.3,.4c-.1,.5,-.1,1.9,-.1,2.1c0,.1,.1,.5,.1,.8c.1,.6,.1,.7,-.2,.9c-.4,.3,-1,1.1,-1.2,1.7c-.2,.3,-.3,.6,-.3,.6c-.1,0,-.2,-.1,-.3,-.1Z" class="g5_20"/>
<path d="M128.2,201.8q-.1,-.2,-.1,-.1c-.1,.2,0,.3,.1,.3c.1,0,.1,-.1,0,-.2Z" class="g5_20"/>
<path d="M139.7,195.9c.2,-.1,.5,-.3,.7,-.4l.2,-.2l-.3,.1c-.5,.1,-1.4,.6,-1.4,.7c0,.1,.3,0,.8,-.2Z" class="g6_20"/>
<path d="M139.7,195.9c.4,-.2,.6,-.4,.2,-.3c-.3,.1,-.9,.4,-.7,.4c0,0,.3,0,.5,-.1Z" class="g1_20"/>
<path d="M134.9,192.6c0,0,.6,-.5,.7,-.4c.2,.1,.2,.2,-.1,.3c-.1,0,-.3,.1,-.4,.1q-.1,.1,-.2,0Z" class="g5_20"/>
<path d="M136.2,191.9c.1,-.1,.2,-.2,.3,-.2q.2,0,.1,.2c-.1,.1,-.2,.2,-.3,.2q-.2,0,-.1,-.2Z" class="g5_20"/>
<path d="M137.1,191.4c.1,-.2,.6,-.3,.7,-.2c0,.1,-.5,.3,-.7,.4c-.1,0,-.1,-.1,0,-.2Z" class="g5_20"/>
<path d="M137.9,191.1c0,-.1,.8,-.5,1.3,-.7c.3,-.1,.6,-.2,.7,-.3c.4,-.2,1.9,-.8,2.1,-.7c.2,.1,.1,.3,-.2,.4c-.5,0,-1.7,.4,-3,1.1c-.6,.2,-.8,.3,-.9,.2Z" class="g5_20"/>
<path d="M125.7,222.1c0,0,0,-.1,0,-.2c0,-.1,.1,-.7,.1,-1.2c0,-1.4,0,-2,.4,-4.1l.1,-.6l-.6,-1c-.3,-.7,-.5,-1.3,-.6,-1.6c-.1,-.4,-.2,-.8,-.2,-1c-.3,-1,-.4,-4.1,-.1,-5.2c.1,-.3,.2,-.8,.2,-.9c.1,-.4,.2,-.3,.7,.3c.6,1.1,.9,1,.3,-.1c-.4,-.6,-.8,-2,-.8,-2.5c0,-.4,.6,-1.9,1,-2.7c.1,-.3,.3,-.5,.4,-.5c.2,0,.3,0,.5,.4c.5,.6,.6,.9,.5,.8c-.1,0,-.3,-.2,-.4,-.4c-.4,-.7,-.6,-.6,-1.2,.9c-.7,1.8,-.6,2.4,.7,4.7c.5,.8,.8,1.5,.7,1.5c-.2,.1,-1.4,-1.1,-1.7,-1.6c-.1,-.1,-.2,-.2,-.3,-.3q-.1,-.1,-.2,.1c-.3,.9,-.4,2.5,-.2,4c0,.6,.1,1.2,.1,1.4c0,.5,1,3.1,1.2,3.1c.1,0,.1,-.1,.1,-.2c0,-.2,.1,-.8,.3,-1.3c.2,-.6,.3,-1.2,.4,-1.4c0,-.2,0,-.3,.1,-.3c.1,0,.4,-1.1,.4,-1.2c0,-.1,.1,-.3,.2,-.7c.9,-1.8,1.3,-2.7,1.6,-3.5c.8,-1.5,1.6,-3.1,2.3,-4.1c.7,-1.2,1.3,-2.2,1.9,-3.1c.2,-.4,.5,-.8,.7,-1c.1,-.2,.3,-.4,.3,-.5c0,-.1,.6,-.8,.9,-1.1c.1,-.1,.3,-.3,.5,-.6c.6,-.9,1,-1.4,1.1,-1.3q.1,0,-.6,.9c-.2,.4,-.7,1.1,-.9,1.5c-.8,1.3,-2,3.3,-2.3,3.7c-.6,.7,-1.6,2.6,-1.6,2.9c0,.1,-.5,1.3,-1.2,2.5c-.6,1.3,-1.3,2.6,-1.4,3c-.2,.4,-.4,1.1,-.6,1.4c-.2,.7,-.4,1.5,-.4,1.9c0,.1,-.1,.4,-.1,.6c-.1,.2,-.2,.7,-.2,1.2c-.1,.6,-.1,.7,.1,.7c.1,0,.2,0,.2,-.1c.1,-.1,.3,-.3,.6,-.5c.3,-.2,.5,-.4,.6,-.5c0,-.1,.3,-.3,.5,-.5c.7,-.6,1.1,-1.1,1.5,-1.7c.3,-.3,.6,-.7,.7,-.8c.2,-.2,1.1,-1.8,1.1,-2c0,-.1,-.1,-.2,-.6,-.5c-.7,-.4,-.6,-.4,.1,-.1c.3,.1,.6,.2,.7,.2c.4,-.1,.3,.2,-.2,1.3c-.3,.6,-.7,1.2,-.9,1.3c-.1,.2,-.4,.5,-.6,.8c-.2,.3,-.4,.5,-.5,.6c-.1,.1,-.3,.3,-.5,.5c-.1,.2,-.4,.5,-.6,.7c-.2,.1,-.5,.4,-.6,.5c-.1,.2,-.3,.3,-.3,.3c-.1,0,-.3,.2,-.5,.4c-.2,.2,-.5,.4,-.7,.4c-.2,.1,-.3,.2,-.3,.7c-.1,.4,-.1,.7,-.1,.7c0,.1,0,.3,0,.6c0,.2,.1,.7,.1,.9c.2,.9,.1,1.2,-.1,1.3c-.4,.3,-1.1,1.2,-1.3,1.8c-.2,.5,-.3,.5,-.5,.4Z" class="g7_20"/>
<path d="M134,208.6c-.4,0,-.8,-.1,-1,-.2c-.2,0,-.4,-.1,-.5,0c-.1,0,-.3,-.1,-.4,-.1c-.1,-.1,-.3,-.1,-.4,-.1c-.1,.1,-.2,.1,-.3,0c-.1,-.2,.3,-.2,1.8,.1c1.4,.2,2.5,-.2,2.7,-1c0,-.2,.1,-.6,.2,-.8c.1,-.2,.2,-.6,.2,-.8c.1,-.4,.1,-.8,.3,-1.6c.1,-.3,.2,-.6,.4,-.8c.1,-.1,.2,-.3,.1,-.3c0,-.1,-.2,-.1,-.4,0c-.4,.1,-1.6,-.1,-1.7,-.3c-.1,-.3,.8,-.7,2,-.8c.3,-.1,.4,-.1,.6,-.8c.6,-1.4,1.6,-3.2,2.9,-4.9c.1,-.1,.1,-.2,0,-.2c0,-.1,-.3,0,-.7,.2c-.6,.2,-1.3,.3,-1.4,.1q0,-.1,.1,-.2c.2,-.1,.2,0,.2,.1q.1,.1,.2,.1c.2,0,1.2,-.5,1.5,-.7c.3,-.2,.6,-.3,.6,-.2c.1,.2,-.1,.9,-.2,1c-.2,.2,-.5,.6,-.7,.9c-.1,.2,-.4,.5,-.6,.8c-.3,.6,-.5,.9,-.6,1.2c-.1,.2,-.3,.5,-.4,.8c-.3,.5,-.6,1,-.8,1.7c-.1,.2,-.2,.2,-.7,.3c-.8,.1,-1.6,.5,-1.4,.6c0,.1,.4,.1,1,0c.8,-.2,.9,-.2,1,0c0,.1,-.1,.3,-.3,.6c-.3,.6,-.6,1.6,-.7,2.1c0,.2,-.1,.7,-.2,1c-.1,.3,-.2,.6,-.2,.8c-.1,.5,-.4,.9,-.8,1.1c-.6,.3,-.7,.3,-1.4,.3Z" class="g7_20"/>
<path d="M129.6,204.3c-.2,-.1,-.4,-.3,-.5,-.4c-.3,-.2,-1,-1,-1,-1.1c0,-.1,.1,-.1,.1,-.1c.1,0,.5,.4,.6,.6c.1,0,.2,.1,.2,.1c.1,0,.1,-.1,-.1,-.3c-.1,-.2,-.3,-.5,-.4,-.8c-.1,-.2,-.4,-.9,-.6,-1.4c-.3,-.5,-.5,-1,-.5,-1.1c0,-.1,.2,-.5,.5,-1c.6,-1.1,1.6,-2.2,2.5,-2.9c.4,-.2,.8,-.5,.9,-.7c.4,-.5,.6,-.5,.9,.2q.3,.5,.4,.5c.1,-.1,.2,-.1,.2,-.1c0,0,.1,.2,.1,.5c.1,.6,-.1,.4,-.6,-.4c-.4,-.8,-.5,-.8,-.7,-.5c-.1,.1,-.7,.6,-1.1,.8c-.7,.5,-1.8,1.8,-2.5,3l-.4,.7l.7,1.3c.7,1.5,1.1,2.2,1.5,2.8c.2,.4,.2,.5,-.2,.3Z" class="g7_20"/>
<path d="M128.1,202.3c-.1,-.1,0,-.2,0,-.2c.1,0,.1,.1,.2,.2q0,.1,0,.1c-.1,.1,-.2,0,-.2,-.1Z" class="g7_20"/>
<path d="M127.6,201.3c-.3,-.6,-.2,-.8,0,-.5c.2,.3,.4,.9,.3,1c-.1,0,-.2,-.1,-.3,-.5Z" class="g7_20"/>
<path d="M140.1,195.2c.5,-.3,1.1,-.5,1.2,-.4c.1,.2,-.1,.2,-.8,.4c-.8,.2,-.9,.2,-.4,0Z" class="g7_20"/>
<path d="M141.5,194.7c0,0,0,-.2,0,-.5c0,-.4,.7,-1.6,1.3,-2.2c1.8,-1.6,3.9,-3,5.7,-3.6c.6,-.2,.6,-.3,-.1,-.2c-.3,.1,-1.3,.2,-2.2,.4c-1,.1,-1.9,.3,-2.1,.3c-.4,.2,-1.2,.7,-1.5,1c-.2,.3,-.3,.3,-.4,.1c-.1,-.1,.9,-1,1.4,-1.1c1.1,-.4,1.4,-.5,2.1,-.5c.4,-.1,1.6,-.2,2.6,-.4c1.8,-.3,2,-.3,2.1,-.1c0,.1,-.3,.3,-.7,.4c-2.5,.9,-4.4,2,-5.3,2.8c-.2,.2,-.4,.3,-.4,.3c-.1,0,-.2,.1,-.3,.2c-.1,.1,-.3,.4,-.6,.6c-.2,.2,-.5,.6,-.6,.7c-.1,.2,-.3,.5,-.5,.6c-.1,.2,-.2,.5,-.3,.7c0,.3,-.1,.6,-.2,.5Z" class="g7_20"/>
<path d="M132.6,195.2c-.1,-.2,-.2,-.8,-.1,-1c0,-.1,.3,-.3,.6,-.5c.3,-.2,.7,-.4,.8,-.5l.2,-.2l-.1,.2c-.2,.3,-1,.9,-1.2,1.1c-.1,0,-.2,.2,-.2,.3c0,.2,0,.4,0,.5c.1,.2,0,.2,0,.1Z" class="g7_20"/>
<path d="M141.5,189.6c.2,-.2,.5,-.2,.5,-.1c0,.1,-.1,.1,-.3,.2q-.4,0,-.2,-.1Z" class="g7_20"/>
<path d="M125.7,222.1c0,0,0,-.1,0,-.2c0,-.1,.1,-.7,.1,-1.2c0,-1.3,0,-1.9,.4,-4.2c.1,-.5,0,-.5,-.5,-1.5c-.3,-.7,-.5,-1.3,-.6,-1.6c-.1,-.4,-.2,-.8,-.2,-1c-.3,-1,-.4,-4.1,-.1,-5.2c.1,-.3,.2,-.8,.2,-.9c.1,-.4,.2,-.3,.7,.3c.6,1.1,.9,1,.3,-.1c-.4,-.6,-.8,-2,-.8,-2.5c0,-.4,.6,-1.9,1,-2.7c.1,-.3,.3,-.5,.4,-.5c.2,0,.3,0,.5,.4c.5,.6,.6,.9,.5,.8c-.1,0,-.3,-.2,-.4,-.4c-.4,-.7,-.6,-.6,-1.2,.9c-.7,1.8,-.6,2.4,.7,4.7c.5,.8,.8,1.5,.7,1.5c-.2,.1,-1.4,-1.1,-1.7,-1.6c-.1,-.1,-.2,-.2,-.3,-.3q-.1,-.1,-.2,.1c-.3,.9,-.4,2.5,-.2,4c0,.6,.1,1.2,.1,1.4c0,.5,1,3.1,1.2,3.1c.1,0,.1,-.1,.1,-.2c0,-.2,.1,-.8,.3,-1.3c.2,-.6,.3,-1.2,.4,-1.4c0,-.2,0,-.3,.1,-.3c.1,0,.4,-1.1,.4,-1.2c0,-.1,.1,-.3,.2,-.7c.9,-1.8,1.3,-2.7,1.6,-3.5c.8,-1.5,1.6,-3.1,2.3,-4.1c.7,-1.2,1.3,-2.2,1.9,-3.1c.2,-.4,.5,-.8,.7,-1c.1,-.2,.3,-.4,.3,-.5c0,-.1,.6,-.8,.9,-1.1c.1,-.1,.3,-.3,.5,-.6c.6,-.9,1,-1.4,1.1,-1.3q.1,0,-.7,1.1c-1.5,1.9,-2.3,3.2,-3.6,5.4c-.3,.4,-.7,1,-1,1.5c-.4,.5,-.5,.8,-.4,.8c.4,.1,.3,.4,-.8,2.7c-.7,1.3,-1.4,2.7,-1.5,3.1c-.2,.3,-.4,1,-.6,1.3c-.2,.7,-.4,1.5,-.4,1.9c0,.1,-.1,.4,-.1,.6c-.1,.2,-.2,.7,-.2,1.2c-.1,.6,-.1,.7,.1,.7c.1,0,.2,0,.2,-.1c.1,-.1,.3,-.3,.6,-.5c.3,-.2,.5,-.4,.6,-.5c0,-.1,.3,-.3,.5,-.5c.7,-.6,1.1,-1.1,1.5,-1.7c.3,-.3,.6,-.7,.7,-.8c.2,-.2,1.1,-1.8,1.1,-2c0,-.1,-.1,-.2,-.6,-.5c-.7,-.4,-.6,-.4,.1,-.1c.3,.1,.6,.2,.7,.2c.4,-.1,.3,.2,-.2,1.3c-.3,.6,-.7,1.2,-.9,1.3c-.1,.2,-.4,.5,-.6,.8c-.2,.3,-.4,.5,-.5,.6c-.1,.1,-.3,.3,-.5,.5c-.1,.2,-.4,.5,-.6,.7c-.2,.1,-.5,.4,-.6,.5c-.1,.2,-.3,.3,-.3,.3c-.1,0,-.3,.2,-.5,.4c-.2,.2,-.5,.4,-.7,.4c-.2,.1,-.3,.2,-.3,.7c-.1,.4,-.1,.7,-.1,.7c0,.1,0,.3,0,.6c0,.2,.1,.7,.1,.9c.2,.9,.1,1.2,-.1,1.3c-.4,.3,-1.1,1.2,-1.3,1.8c-.2,.5,-.3,.5,-.5,.4Z" class="g8_20"/>
<path d="M134,208.6c-.4,0,-.8,-.1,-1,-.2c-.2,0,-.4,-.1,-.5,0c-.1,0,-.3,-.1,-.4,-.1c-.1,-.1,-.3,-.1,-.4,-.1c-.1,.1,-.2,.1,-.3,0c-.1,-.2,.3,-.2,1.8,.1c1.4,.2,2.5,-.2,2.7,-1c0,-.2,.1,-.6,.2,-.8c.1,-.2,.2,-.6,.2,-.8c.1,-.4,.1,-.8,.3,-1.6c.1,-.3,.2,-.6,.4,-.8c.1,-.1,.2,-.3,.1,-.3c0,-.1,-.2,-.1,-.4,0c-.4,.1,-1.6,-.1,-1.7,-.3c-.1,-.3,.8,-.7,2,-.8c.3,-.1,.4,-.1,.6,-.8c.6,-1.4,1.6,-3.2,2.9,-4.9c.1,-.1,.1,-.2,0,-.2c0,-.1,-.3,0,-.7,.2c-.6,.2,-1.3,.3,-1.4,.1q0,-.1,.1,-.2c.2,-.1,.2,0,.2,.1q.1,.1,.2,.1c.2,0,1.2,-.5,1.5,-.7c.3,-.2,.6,-.3,.6,-.2c.1,.2,-.1,.9,-.2,1c-.2,.2,-.5,.6,-.7,.9c-.1,.2,-.4,.5,-.6,.8c-.3,.6,-.5,.9,-.6,1.2c-.1,.2,-.3,.5,-.4,.8c-.3,.5,-.6,1,-.8,1.7c-.1,.2,-.2,.2,-.7,.3c-.8,.1,-1.6,.5,-1.4,.6c0,.1,.4,.1,1,0c.8,-.2,.9,-.2,1,0c0,.1,-.1,.3,-.3,.6c-.3,.6,-.6,1.6,-.7,2.1c0,.2,-.1,.7,-.2,1c-.1,.3,-.2,.6,-.2,.8c-.1,.5,-.4,.9,-.8,1.1c-.6,.3,-.7,.3,-1.4,.3Z" class="g8_20"/>
<path d="M129.6,204.3c-.2,-.1,-.4,-.3,-.5,-.4c-.3,-.2,-1,-1,-1,-1.1c0,-.1,.1,-.1,.1,-.1c.1,0,.5,.4,.6,.6c.1,0,.2,.1,.2,.1c.1,0,.1,-.1,-.1,-.3c-.1,-.2,-.3,-.5,-.4,-.8c-.1,-.2,-.4,-.9,-.6,-1.4c-.3,-.5,-.5,-1,-.5,-1.1c0,-.1,.2,-.5,.5,-1c.6,-1.1,1.6,-2.2,2.5,-2.9c.4,-.2,.8,-.5,.9,-.7c.4,-.5,.6,-.5,.9,.2q.3,.5,.4,.5c.1,-.1,.2,-.1,.2,-.1c0,0,.1,.2,.1,.5c.1,.6,-.1,.4,-.6,-.4c-.4,-.8,-.5,-.8,-.7,-.5c-.1,.1,-.7,.6,-1.1,.8c-.7,.5,-1.8,1.8,-2.5,3l-.4,.7l.7,1.3c.7,1.5,1.1,2.2,1.5,2.8c.2,.4,.2,.5,-.2,.3Z" class="g8_20"/>
<path d="M128.1,202.3c-.1,-.1,0,-.2,0,-.2c.1,0,.1,.1,.2,.2q0,.1,0,.1c-.1,.1,-.2,0,-.2,-.1Z" class="g8_20"/>
<path d="M127.6,201.3c-.3,-.6,-.2,-.8,0,-.5c.2,.3,.4,.9,.3,1c-.1,0,-.2,-.1,-.3,-.5Z" class="g8_20"/>
<path d="M140.1,195.2c.5,-.3,1.1,-.5,1.2,-.4c.1,.2,-.1,.2,-.8,.4c-.8,.2,-.9,.2,-.4,0Z" class="g8_20"/>
<path d="M141.5,194.7c0,0,0,-.2,0,-.5c0,-.4,.7,-1.6,1.3,-2.2c1.8,-1.6,3.9,-3,5.7,-3.6c.6,-.2,.6,-.3,-.1,-.2c-.3,.1,-1.3,.2,-2.2,.4c-1,.1,-1.9,.3,-2.1,.3c-.4,.2,-1.2,.7,-1.5,1c-.2,.3,-.3,.3,-.4,.1c-.1,-.1,.9,-1,1.4,-1.1c1.1,-.4,1.4,-.5,2.1,-.5c.4,-.1,1.6,-.2,2.6,-.4c1.8,-.3,2,-.3,2.1,-.1c0,.1,-.3,.3,-.7,.4c-2.5,.9,-4.4,2,-5.3,2.8c-.2,.2,-.4,.3,-.4,.3c-.1,0,-.2,.1,-.3,.2c-.1,.1,-.3,.4,-.6,.6c-.2,.2,-.5,.6,-.6,.7c-.1,.2,-.3,.5,-.5,.6c-.1,.2,-.2,.5,-.3,.7c0,.3,-.1,.6,-.2,.5Z" class="g8_20"/>
<path d="M132.6,195.2c-.1,-.2,-.2,-.8,-.1,-1c0,-.1,.3,-.3,.6,-.5c.3,-.2,.7,-.4,.8,-.5l.2,-.2l-.1,.2c-.2,.3,-1,.9,-1.2,1.1c-.1,0,-.2,.2,-.2,.3c0,.2,0,.4,0,.5c.1,.2,0,.2,0,.1Z" class="g8_20"/>
<path d="M141.5,189.6c.2,-.2,.5,-.2,.5,-.1c0,.1,-.1,.1,-.3,.2q-.4,0,-.2,-.1Z" class="g8_20"/>
<path d="M127.2,219.7c.1,0,.1,-.2,.1,-.5c-.1,-.2,-.1,-.9,-.1,-1.4c0,-.5,0,-1,0,-1.1c0,0,0,-.1,0,-.3c0,-.1,.1,-.4,.1,-.7c.1,-1.4,.1,-1.6,.5,-3.2c0,-.2,.1,-.5,.1,-.7c.2,-.9,1.2,-3.2,2.4,-5.4c.6,-1.3,.9,-2,.9,-2.1c0,0,-.3,.4,-.6,1c-.3,.6,-.7,1.4,-.9,1.8c-.9,1.8,-1.9,4,-2,4.5c0,.2,-.2,.6,-.3,.8c0,.3,-.1,.5,-.1,.5c.1,.1,-.3,1.3,-.5,1.9c0,.2,-.1,.5,-.1,.8c-.1,.2,-.2,.7,-.2,1c-.3,1,-.5,2.6,-.3,2.9c0,0,.2,.1,.4,.2c.4,.2,.3,.2,.6,0Z" class="g7_20"/>
<path d="M124.9,212.5c-.1,-.2,-.3,-2.1,-.3,-3.2c0,-.8,.1,-1.6,.2,-2.2c.1,-.4,.2,-.7,.2,-.8c.1,-.4,.3,-.3,.6,.2c.1,.3,.4,.7,.6,.9l.3,.4l-.1,-.4c-.1,-.3,-.3,-.8,-.5,-1.2c-.4,-.8,-.7,-2.2,-.6,-2.7c.1,-.4,.6,-1.6,.9,-2.2c.2,-.5,.6,-.7,.8,-.3q0,.1,-.2,.1c-.2,.1,-.3,.2,-.4,.5c-.7,1.3,-.9,2.3,-.9,2.9c.1,.3,.3,1,.5,1.5c.4,.8,.5,1.1,1,1.8c.3,.4,.5,.8,.5,.9c0,.1,-.6,-.2,-.9,-.5c-.1,-.1,-.2,-.4,-.4,-.5c-.1,-.1,-.4,-.4,-.6,-.7l-.3,-.5l-.1,.3c-.4,.9,-.5,2.5,-.3,4.3c.1,1.2,.1,1.6,0,1.4Z" class="g9_20"/>
<path d="M133.7,208.6c-.2,0,-.4,-.1,-.6,-.2c-.2,0,-.4,-.1,-.5,-.1c-.2,.1,-.8,-.1,-.8,-.2c0,0,.5,0,1,.1c1.3,.3,2,.2,2.5,-.1c.4,-.3,.5,-.5,.8,-1.3c.2,-1,.3,-1.2,.3,-1.6c.1,-.6,.2,-1.1,.6,-1.7c.1,-.3,.2,-.6,.2,-.6c0,0,-.2,0,-.5,.1c-.3,.1,-.5,0,-1.1,-.1l-.6,-.2l.1,-.1c.2,-.3,.8,-.5,1.6,-.7l.7,-.1l.3,-.6c.5,-1.4,1.6,-3.3,2.4,-4.5c.3,-.3,.5,-.7,.4,-.7q0,-.2,-.7,.1q-.7,.3,-.7,.2c0,0,.2,-.1,.3,-.1c.2,-.1,.5,-.3,.8,-.5c.4,-.2,.7,-.3,.8,-.3c.2,.1,-.1,.8,-.5,1.3c-.7,.7,-2,3,-2.6,4.5c-.1,.2,-.2,.5,-.3,.6c0,.1,-.2,.2,-.3,.2c-.8,.2,-1,.2,-1.4,.4q-.5,.2,-.3,.3c0,.1,.3,.1,1,0c.7,-.1,.9,-.1,.9,0c.1,0,-.1,.4,-.3,.8c-.4,.7,-.6,1.4,-.6,2c0,.1,-.1,.6,-.2,1c-.2,.3,-.2,.7,-.2,.7c0,0,-.1,.3,-.2,.5c-.3,.7,-1.2,1,-2.3,.9Z" class="g9_20"/>
<path d="M131.5,208.2q0,-.1,.1,-.1c0,0,.1,0,.1,0c0,0,0,.1,-.1,.1c0,.1,0,0,-.1,0Z" class="g9_20"/>
<path d="M129.3,204c-.6,-.4,-1.3,-1.4,-.9,-1.1c.1,.1,.3,.2,.3,.3c.1,.1,.4,.3,.5,.2c0,-.1,.5,.4,.6,.7c.1,.2,.1,.3,.1,.3c0,0,-.3,-.1,-.6,-.4Z" class="g9_20"/>
<path d="M128.8,202.9c0,0,-.2,-.2,-.2,-.5c-.1,-.2,-.4,-.8,-.6,-1.3c-.3,-.5,-.5,-1,-.6,-1.1c0,-.2,.8,-1.9,1.2,-2.3c.1,-.1,.4,-.4,.7,-.7c.3,-.3,.6,-.7,.8,-.8c.6,-.4,.9,-.7,1.3,-1.1c.2,-.2,.4,-.3,.5,-.3c.2,.1,.2,.3,0,.3c0,0,-.4,.3,-.7,.6c-.4,.2,-.7,.5,-.7,.5c-.2,0,-.4,.2,-.9,.9c-.3,.3,-.5,.5,-.6,.5c0,0,-.9,1.3,-1.2,1.8c-.2,.5,-.2,.6,.4,1.8c.8,1.6,.9,2,.6,1.7Z" class="g9_20"/>
<path d="M127.2,201.6c-.1,-.1,-.1,-.2,0,-.2c.1,0,.2,.1,.3,.3c0,.1,0,.2,0,.2c-.1,0,-.2,-.1,-.3,-.3Z" class="g9_20"/>
<path d="M127.6,201.4c0,-.2,-.1,-.4,-.2,-.5c0,-.1,0,-.2,0,-.2c.1,0,.5,.6,.5,.8c0,.2,-.2,.2,-.3,-.1Z" class="g9_20"/>
<path d="M138.4,196.3c0,-.1,.1,-.1,.2,-.1q.1,0,.2,.1c0,0,-.1,.1,-.2,.1c-.1,0,-.2,-.1,-.2,-.1Z" class="g9_20"/>
<path d="M132.5,196.3c-.1,-.3,.1,-.5,.3,-.2c.1,.3,.1,.5,0,.5c-.1,0,-.2,-.1,-.3,-.3Z" class="g9_20"/>
<path d="M140.3,195.1c-.1,0,.8,-.3,.9,-.3q.1,.1,0,.2c-.3,.1,-.9,.2,-.9,.1Z" class="g9_20"/>
<path d="M132.2,195.7c-.1,0,-.1,-.1,0,-.2q0,-.1,.1,.1c0,.1,0,.2,0,.2c-.1,0,-.1,-.1,-.1,-.1Z" class="g9_20"/>
<path d="M141.6,194.6c-.1,-.2,0,-1,.2,-1.2c.1,-.1,.3,-.4,.4,-.6c.2,-.3,.4,-.5,.5,-.6c.1,-.1,.3,-.3,.4,-.4c.4,-.4,2,-1.7,2.8,-2.1c.8,-.5,1.9,-1,2.8,-1.3c.6,-.3,.6,-.4,0,-.3c-.3,.1,-1.3,.2,-2.2,.4c-1.7,.2,-2,.2,-2.4,.4c-.4,.1,-1.2,.7,-1.5,.9c-.1,.2,-.2,.2,-.3,.2c-.2,0,.8,-.9,1.2,-1.1c.7,-.2,1.8,-.5,2.4,-.6c.4,0,1.5,-.2,2.4,-.3c.9,-.2,1.8,-.3,1.8,-.3c.3,.1,.3,.3,0,.4c-1.4,.6,-2.5,1,-3.3,1.4c-.8,.4,-1.7,1,-2,1.2c0,0,-.2,.2,-.4,.4c-1,.8,-1.8,1.6,-2,1.9c-.1,.2,-.2,.3,-.3,.3c-.1,0,-.4,.7,-.4,1.1c0,.2,-.1,.3,-.1,.2Z" class="g9_20"/>
<path d="M132.6,194.2c-.1,-.1,.6,-.6,1,-.8c.3,-.1,.2,0,-.2,.3c-.4,.4,-.7,.6,-.8,.5Z" class="g9_20"/>
<path d="M141.7,189.6c-.1,0,-.1,-.1,0,-.1c.1,-.1,.3,0,.2,.1c0,0,-.1,0,-.2,0Z" class="g9_20"/>
<path d="M125.9,215.3c-.1,-.1,-.1,-.2,0,-.2c0,-.1,.1,0,.1,.1c.1,.1,.1,.2,.1,.2c-.1,0,-.2,0,-.2,-.1Z" class="ga_20"/>
<path d="M129,214.7c0,0,0,-.1,.1,-.1q.2,0,.2,.1c-.1,.1,-.4,.2,-.3,0Z" class="ga_20"/>
<path d="M125.7,214.7q-.1,-.1,0,-.1c0,0,.1,.1,.1,.1q0,.2,-.1,0Z" class="ga_20"/>
<path d="M129.5,214.3c0,-.1,.2,-.3,.4,-.4c.2,-.2,.5,-.5,.5,-.6c.2,-.3,.4,-.4,.4,-.2c0,.1,-1,1.1,-1.2,1.2c-.1,.1,-.1,0,-.1,0Z" class="ga_20"/>
<path d="M125.4,214c-.1,-.1,-.1,-.2,-.1,-.3q0,-.2,.1,0c0,.1,.1,.3,.1,.4q0,.1,-.1,-.1Z" class="ga_20"/>
<path d="M131.2,212.5c.2,-.4,1,-1.3,1.1,-1.4q.1,-.1,.2,0c0,0,-.1,.2,-.2,.3c-.2,.2,-.5,.5,-.7,.8c-.5,.7,-.8,.9,-.4,.3Z" class="ga_20"/>
<path d="M124.8,212c0,0,0,-.1,0,-.2q.1,0,.2,.1c0,.1,0,.2,0,.2q-.1,0,-.2,-.1Z" class="ga_20"/>
<path d="M132.5,210.8c0,-.2,.6,-1.2,.7,-1.1c.1,0,-.6,1.3,-.7,1.3c0,0,0,-.1,0,-.2Z" class="ga_20"/>
<path d="M124.8,211.4c-.1,-.1,-.1,-.2,-.1,-.3c.1,-.2,.2,-.1,.2,.2c0,.1,-.1,.2,-.1,.1Z" class="ga_20"/>
<path d="M124.7,210.7c0,-.1,0,-.2,0,-.3c.1,-.1,.1,.1,.1,.3v.2Z" class="ga_20"/>
<path d="M133.2,209.4c0,-.1,0,-.2,-.1,-.3c-.1,-.2,0,-.2,.1,-.2c.4,-.1,.5,.1,.2,.5q-.1,.2,-.2,0Z" class="ga_20"/>
<path d="M124.6,209.6c0,-.3,.1,-.9,.1,-.9c.1,0,.1,.5,0,.7c0,.1,-.1,.2,-.1,.2Z" class="ga_20"/>
<path d="M134,208.6c-.3,0,-.6,-.1,-.7,-.1q-.2,-.1,.1,-.1c.1,0,.5,0,.9,0c.5,0,.6,0,1,-.3c.3,-.2,.5,-.5,.6,-.6c.2,-.5,.2,-.3,.1,.1c-.1,.3,-.3,.5,-.7,.7c-.5,.3,-.6,.3,-1.3,.3Z" class="ga_20"/>
<path d="M132.4,208.3q-.4,-.1,0,-.1c.1,0,.2,0,.2,.1q.1,0,.1,0c-.1,0,-.2,0,-.3,0Z" class="ga_20"/>
<path d="M127,208.5c-.3,-.2,-.5,-.6,-.4,-.6c.1,0,0,-.2,-.1,-.4c-.3,-.5,-1,-2.1,-1,-2.3c0,-.1,.1,0,.3,.5c.2,.3,.6,1.1,1,1.8c.3,.6,.6,1.2,.6,1.2c-.1,0,-.2,-.1,-.4,-.2Z" class="ga_20"/>
<path d="M124.7,208.3c-.1,-.1,0,-.9,.2,-1c0,0,0,.1,0,.3c0,.4,-.1,.8,-.2,.7Z" class="ga_20"/>
<path d="M136.1,206.8c0,-.1,.1,-.3,.1,-.3q.1,-.2,.1,0c0,.1,-.1,.2,-.1,.3q-.1,.1,-.1,0Z" class="ga_20"/>
<path d="M126.2,207.6c-.1,-.1,-.1,-.2,0,-.1c0,0,.1,.1,.1,.2l-.1,-.1Z" class="ga_20"/>
<path d="M124.9,207.1c0,0,0,-.2,.1,-.3c0,-.1,.1,-.4,.1,-.5c0,-.4,.3,-.2,.4,.2c0,.2,0,.3,0,.2c-.1,-.1,-.4,-.2,-.4,-.1c.1,.1,-.1,.6,-.2,.5Z" class="ga_20"/>
<path d="M136.3,206.1c0,0,.1,-.2,.1,-.3q.1,-.3,.1,.1c0,.2,-.1,.3,-.2,.2Z" class="ga_20"/>
<path d="M136.5,204.8c0,-.1,0,-.2,.1,-.2c0,0,.1,0,0,.1c0,.1,0,.2,0,.3q-.1,0,-.1,-.2Z" class="ga_20"/>
<path d="M136.7,204.3c-.1,-.1,.1,-.6,.3,-.9c.2,-.2,.2,-.4,.2,-.5c-.1,0,-.3,0,-.7,0c-.7,.1,-.8,0,-.1,-.1c.4,-.1,.8,-.2,.9,-.2c.3,-.1,.3,.2,-.1,.9c-.3,.5,-.5,.8,-.5,.8Z" class="ga_20"/>
<path d="M129.5,204.2c-.1,-.1,-.3,-.3,-.5,-.4c-.3,-.2,-.7,-.8,-.5,-.7c.1,0,.2,.1,.2,.2c.1,0,.3,.2,.4,.2c.2,.1,.4,.3,.6,.5c.3,.4,.2,.5,-.2,.2Z" class="ga_20"/>
<path d="M125.3,204.2c0,-.1,0,-.3,0,-.5c.1,-.3,.6,-1.7,.7,-1.7c.1,-.1,.1,.1,-.2,.8c-.1,.5,-.3,1,-.3,1.2q-.1,.4,-.2,.2Z" class="ga_20"/>
<path d="M135.4,202.8c-.2,0,-.3,-.1,-.3,-.1c-.1,-.1,.7,-.5,1,-.6c.3,0,.2,.1,-.2,.2c-.5,.2,-.6,.3,-.4,.5q.2,.1,-.1,0Z" class="ga_20"/>
<path d="M128.8,202.8c-.1,-.1,-.1,-.3,-.2,-.4q0,-.3,.1,-.1c0,.1,.1,.3,.1,.4q.1,.2,0,.1Z" class="ga_20"/>
<path d="M136.9,202c.1,-.1,.2,-.1,.3,-.1c.1,.1,0,.1,-.2,.1q-.3,.1,-.1,0Z" class="ga_20"/>
<path d="M137.5,201.6c.1,-.1,.2,-.3,.2,-.3c.1,0,-.1,.5,-.2,.6c0,0,0,-.1,0,-.3Z" class="ga_20"/>
<path d="M128.4,201.8c-.1,-.1,-.2,-.2,-.1,-.3q0,-.1,.1,.1c.2,.3,.2,.4,0,.2Z" class="ga_20"/>
<path d="M137.9,200.8c0,-.1,.1,-.2,.2,-.2c.1,.1,-.1,.4,-.2,.4c-.1,0,-.1,-.1,0,-.2Z" class="ga_20"/>
<path d="M127.3,201.7q-.1,-.2,0,-.1c.2,0,.2,.1,.1,.2c0,.1,0,0,-.1,-.1Z" class="ga_20"/>
<path d="M126,201.7c-.1,-.1,.5,-.9,.7,-.9c.3,0,.3,.2,.1,.3c-.2,.1,-.4,.2,-.5,.4c-.1,.3,-.2,.4,-.3,.2Z" class="ga_20"/>
<path d="M127.6,201.3c-.1,-.2,-.1,-.4,-.1,-.4c.1,-.1,.4,.4,.3,.6c0,.1,0,0,-.2,-.2Z" class="ga_20"/>
<path d="M138,200.4c0,-.1,.2,-.5,.3,-.5c.1,0,.1,-.2,.2,-.3c.1,-.4,1,-1.8,2,-3.3c.1,-.2,.1,-.3,0,-.5q-.1,-.1,.1,-.3c.1,-.1,.2,-.1,.3,0c.2,.1,0,.7,-.2,.9c-.3,.3,-1.4,2,-1.7,2.5c-.6,1.1,-.9,1.6,-1,1.5Z" class="ga_20"/>
<path d="M127.9,200.8c-.1,0,-.1,-.1,0,-.1c0,0,.1,0,.1,.1c0,0,0,.1,0,.1c0,0,-.1,0,-.1,-.1Z" class="ga_20"/>
<path d="M127.5,200.2c0,0,0,-.2,0,-.2q0,-.1,.1,.1c.1,.1,.2,.3,.1,.3c0,0,-.1,-.1,-.2,-.2Z" class="ga_20"/>
<path d="M127.7,199.5c-.1,-.1,0,-.5,.1,-.4c.1,0,.1,.1,0,.3c0,.1,-.1,.1,-.1,.1Z" class="ga_20"/>
<path d="M128,198.7c0,-.1,.1,-.3,.3,-.5c.1,-.1,.2,-.2,.2,-.3c.1,-.1,.1,-.2,.2,-.2c.1,0,0,.2,-.4,.7c-.2,.3,-.3,.4,-.3,.3Z" class="ga_20"/>
<path d="M129,197.4c.3,-.4,.8,-.9,.8,-.9c.1,.1,-.4,.7,-.7,1l-.2,.1Z" class="ga_20"/>
<path d="M132.7,196.5c-.2,-.1,-.2,-.4,-.1,-.4c.1,0,.3,.4,.2,.4c0,.1,-.1,0,-.1,0Z" class="ga_20"/>
<path d="M136.3,196c.1,-.1,.2,-.2,.3,-.2c0,0,0,.1,-.1,.2c-.1,.1,-.2,.2,-.3,.2l.1,-.2Z" class="ga_20"/>
<path d="M130.6,195.9c.1,-.1,.2,-.2,.3,-.2c.1,0,-.2,.4,-.4,.4c-.1,0,0,-.1,.1,-.2Z" class="ga_20"/>
<path d="M140.7,195.1c-.1,-.1,0,-.1,.1,-.2c.2,-.1,.4,-.1,.4,0c0,.1,-.4,.2,-.5,.2Z" class="ga_20"/>
<path d="M131.3,195.2c.2,-.3,.5,-.4,.6,-.3c.1,.1,-.2,.3,-.7,.6c0,0,0,-.1,.1,-.3Z" class="ga_20"/>
<path d="M141.6,193.9c0,-.1,.1,-.2,.1,-.3c.1,-.1,.2,-.2,.2,-.2c0,.1,0,.2,-.1,.3c-.1,.1,-.1,.2,-.2,.2Z" class="ga_20"/>
<path d="M142.2,192.9c.2,-.4,.8,-1,2.4,-2.3c.8,-.6,2.6,-1.6,3.6,-2c1,-.3,1.1,-.4,1.1,-.5c-.2,-.3,.7,-.5,.9,-.3c.2,.1,.1,.3,-.1,.3c-.1,0,-.5,.2,-.8,.3c-.4,.2,-1,.4,-1.3,.6c-1.1,.4,-1.9,.8,-2.4,1.1c-.2,.2,-.5,.4,-.6,.4c-.1,.1,-.4,.3,-.5,.4c-.2,.2,-.4,.3,-.4,.3c0,.1,-.2,.2,-.4,.3c-1.1,1.1,-1.3,1.3,-1.3,1.5c0,.1,-.1,.2,-.2,.2q-.1,0,0,-.3Z" class="ga_20"/>
<path d="M133,193.9c0,0,0,-.1,.1,-.1c0,0,.1,0,0,.1c0,0,0,.1,-.1,.1v-.1Z" class="ga_20"/>
<path d="M142.3,190q0,-.1,.1,-.2c.1,-.1,.2,-.1,.2,-.1c0,0,0,.1,-.1,.2c-.1,.1,-.2,.1,-.2,.1Z" class="ga_20"/>
<path d="M143,189.3c.1,-.2,.5,-.4,.5,-.3c.1,.1,-.3,.3,-.5,.4q-.2,.1,0,-.1Z" class="ga_20"/>
<path d="M144.6,188.6c.1,0,.2,-.1,.3,-.1c.1,0,.1,.1,0,.1c-.1,.1,-.2,.1,-.3,.1q-.1,0,0,-.1Z" class="ga_20"/>
<path d="M145.2,188.5c.1,-.1,.4,-.1,.9,-.2c.6,0,.9,0,.9,0c0,.1,-.4,.2,-.9,.2c-.6,.1,-.9,0,-.9,0Z" class="ga_20"/>
<path d="M147.1,188.3c.1,-.1,.4,-.1,.9,-.2c.5,-.1,.7,-.1,.6,0c-.3,.1,-1.5,.2,-1.5,.2Z" class="ga_20"/>
<path d="M125.8,222.1c0,-.1,0,-.4,0,-.8c0,-.4,0,-.7,0,-.7c0,-.1,0,-.8,0,-1q.1,-.1,.5,.1c.9,.4,1.2,.3,1,-.8c-.1,-1,.1,-1.1,.3,-.1c.1,.7,.1,.9,-.2,1.1c-.6,.5,-1.5,1.9,-1.4,2.1c.1,0,0,.1,-.1,.1c0,0,-.1,0,-.1,0Z" class="gb_20"/>
<path d="M127.3,218c0,-.1,0,-.7,.1,-.8c.1,-.1,.1,0,.1,.4c-.1,.4,-.1,.5,-.2,.4Z" class="gb_20"/>
<path d="M127.3,216.8c0,-.1,0,-.3,0,-.6c0,-.2,.1,-.7,.1,-1.1c.1,-.9,.5,-3.2,.7,-3.2c0,0,0,.1,0,.3c0,.1,-.1,.4,-.1,.5c0,.2,-.1,.5,-.1,.7c-.2,.6,-.3,2,-.1,2.2c0,0,0,.1,-.1,.1c0,.1,-.1,.3,-.2,.6c0,.5,-.1,.6,-.2,.5Z" class="gb_20"/>
<path d="M126.3,216.5c-.1,-.1,-.1,-.2,0,-.2c0,-.1,0,-.2,0,-.4c-.1,-.2,.2,-.6,.3,-.4c0,0,-.2,1,-.3,1Z" class="gb_20"/>
<path d="M125.9,215.3c-.1,-.1,-.1,-.2,0,-.2c0,-.1,.1,0,.1,.1c.1,.1,.1,.2,.1,.2c-.1,0,-.2,0,-.2,-.1Z" class="gb_20"/>
<path d="M126.5,215.1c0,0,0,-.4,.2,-.7c.1,-.4,.2,-1.1,.3,-1.5c.1,-.3,.2,-.7,.3,-.8c.1,0,.1,.1,0,.4c0,.2,-.1,.5,-.1,.5c-.1,.8,-.6,2.3,-.7,2.1Z" class="gb_20"/>
<path d="M129,214.7c0,0,0,-.1,.1,-.1q.2,0,.2,.1c-.1,.1,-.4,.2,-.3,0Z" class="gb_20"/>
<path d="M125.7,214.7q-.1,-.1,0,-.1c0,0,.1,.1,.1,.1q0,.2,-.1,0Z" class="gb_20"/>
<path d="M129.5,214.3c0,-.1,.2,-.3,.4,-.4c.2,-.2,.5,-.5,.5,-.6c.2,-.3,.4,-.4,.4,-.2c0,.1,-1,1.1,-1.2,1.2c-.1,.1,-.1,0,-.1,0Z" class="gb_20"/>
<path d="M125.4,214c-.1,-.1,-.1,-.2,-.1,-.3q0,-.2,.1,0c0,.1,.1,.3,.1,.4q0,.1,-.1,-.1Z" class="gb_20"/>
<path d="M131.2,212.5c.2,-.4,1,-1.3,1.1,-1.4q.1,-.1,.2,0c0,0,-.1,.2,-.2,.3c-.2,.2,-.5,.5,-.7,.8c-.5,.7,-.8,.9,-.4,.3Z" class="gb_20"/>
<path d="M124.8,212c0,0,0,-.1,0,-.2q.1,0,.2,.1c0,.1,0,.2,0,.2q-.1,0,-.2,-.1Z" class="gb_20"/>
<path d="M128.1,211.7c0,-.4,1.5,-4,2.7,-6.1c.2,-.5,.5,-1,.5,-1.2c0,-.3,.2,-.4,.3,-.3c.1,.2,-.2,.9,-1.3,2.8c-.5,1,-1,2.2,-1.2,2.5c-.2,.6,-.6,1.5,-.9,2.2c-.1,.1,-.1,.2,-.1,.1Z" class="gb_20"/>
<path d="M127.5,211.4l.1,-.1c0,0,.1,0,.1,.1c-.1,.1,-.1,0,-.2,0Z" class="gb_20"/>
<path d="M132.5,210.8c0,-.2,.6,-1.2,.7,-1.1c.1,0,-.6,1.3,-.7,1.3c0,0,0,-.1,0,-.2Z" class="gb_20"/>
<path d="M124.8,211.4c-.1,-.1,-.1,-.2,-.1,-.3c.1,-.2,.2,-.1,.2,.2c0,.1,-.1,.2,-.1,.1Z" class="gb_20"/>
<path d="M127.6,210.9q0,-.1,.1,-.2q.1,0,.1,.1c.1,.1,-.1,.2,-.2,.1Z" class="gb_20"/>
<path d="M124.7,210.7c0,-.1,0,-.2,0,-.3c.1,-.1,.1,.1,.1,.3v.2Z" class="gb_20"/>
<path d="M127.9,210.5c-.1,-.1,.3,-.7,.4,-.7c0,0,-.1,.2,-.2,.4c-.1,.3,-.2,.3,-.2,.3Z" class="gb_20"/>
<path d="M133.2,209.4c0,-.1,0,-.2,-.1,-.3c-.1,-.2,0,-.2,.1,-.2c.4,-.1,.5,.1,.2,.5q-.1,.2,-.2,0Z" class="gb_20"/>
<path d="M128.3,209.6c0,-.1,.2,-.6,.5,-1.1c.3,-.6,.4,-.8,.3,-.5c-.2,.5,-.9,1.9,-.8,1.6Z" class="gb_20"/>
<path d="M124.6,209.6c0,-.3,.1,-.9,.1,-.9c.1,0,.1,.5,0,.7c0,.1,-.1,.2,-.1,.2Z" class="gb_20"/>
<path d="M134,208.6c-.3,0,-.6,-.1,-.7,-.1q-.2,-.1,.1,-.1c.1,0,.5,0,.9,0c.5,0,.6,0,1,-.3c.3,-.2,.5,-.5,.6,-.6c.2,-.5,.2,-.3,.1,.1c-.1,.3,-.3,.5,-.7,.7c-.5,.3,-.6,.3,-1.3,.3Z" class="gb_20"/>
<path d="M132.4,208.3q-.4,-.1,0,-.1c.1,0,.2,0,.2,.1q.1,0,.1,0c-.1,0,-.2,0,-.3,0Z" class="gb_20"/>
<path d="M127,208.5c-.3,-.2,-.5,-.6,-.4,-.6c.1,0,0,-.2,-.1,-.4c-.3,-.5,-1,-2.1,-1,-2.3c0,-.1,.1,0,.3,.5c.2,.3,.6,1.1,1,1.8c.3,.6,.6,1.2,.6,1.2c-.1,0,-.2,-.1,-.4,-.2Z" class="gb_20"/>
<path d="M124.7,208.3c-.1,-.1,0,-.9,.2,-1c0,0,0,.1,0,.3c0,.4,-.1,.8,-.2,.7Z" class="gb_20"/>
<path d="M136.1,206.8c0,-.1,.1,-.3,.1,-.3q.1,-.2,.1,0c0,.1,-.1,.2,-.1,.3q-.1,.1,-.1,0Z" class="gb_20"/>
<path d="M126.2,207.6c-.1,-.1,-.1,-.2,0,-.1c0,0,.1,.1,.1,.2l-.1,-.1Z" class="gb_20"/>
<path d="M129.3,207.2c.1,-.1,.2,-.3,.2,-.2c.1,0,0,.3,-.1,.4c-.2,.1,-.2,0,-.1,-.2Z" class="gb_20"/>
<path d="M129.8,206.3c.1,-.3,.3,-.6,.3,-.6c0,0,.2,-.5,.5,-1c.2,-.5,.6,-1.1,.7,-1.4c.2,-.2,.5,-.7,.8,-1.1c.4,-.8,.6,-1,.7,-.9c0,.1,-.2,.4,-1,1.6c-.2,.4,-.5,.9,-.7,1.1c-.1,.2,-.3,.8,-.5,1.2c-.2,.4,-.5,.9,-.6,1.2c-.3,.6,-.5,.5,-.2,-.1Z" class="gb_20"/>
<path d="M124.9,207.1c0,0,0,-.2,.1,-.3c0,-.1,.1,-.4,.1,-.5c0,-.4,.3,-.2,.4,.2c0,.2,0,.3,0,.2c-.1,-.1,-.4,-.2,-.4,-.1c.1,.1,-.1,.6,-.2,.5Z" class="gb_20"/>
<path d="M136.3,206.1c0,0,.1,-.2,.1,-.3q.1,-.3,.1,.1c0,.2,-.1,.3,-.2,.2Z" class="gb_20"/>
<path d="M136.5,204.8c0,-.1,0,-.2,.1,-.2c0,0,.1,0,0,.1c0,.1,0,.2,0,.3q-.1,0,-.1,-.2Z" class="gb_20"/>
<path d="M136.7,204.3c-.1,-.1,.1,-.6,.3,-.9c.2,-.2,.2,-.4,.2,-.5c-.1,0,-.3,0,-.7,0c-.7,.1,-.8,0,-.1,-.1c.4,-.1,.8,-.2,.9,-.2c.3,-.1,.3,.2,-.1,.9c-.3,.5,-.5,.8,-.5,.8Z" class="gb_20"/>
<path d="M129.5,204.2c-.1,-.1,-.3,-.3,-.5,-.4c-.3,-.2,-.7,-.8,-.5,-.7c.1,0,.2,.1,.2,.2c.1,0,.3,.2,.4,.2c.2,.1,.4,.3,.6,.5c.3,.4,.2,.5,-.2,.2Z" class="gb_20"/>
<path d="M125.3,204.2c0,-.1,0,-.3,0,-.5c.1,-.3,.6,-1.7,.7,-1.7c.1,-.1,.1,.1,-.2,.8c-.1,.5,-.3,1,-.3,1.2q-.1,.4,-.2,.2Z" class="gb_20"/>
<path d="M135.4,202.8c-.2,0,-.3,-.1,-.3,-.1c-.1,-.1,.7,-.5,1,-.6c.3,0,.2,.1,-.2,.2c-.5,.2,-.6,.3,-.4,.5q.2,.1,-.1,0Z" class="gb_20"/>
<path d="M128.8,202.8c-.1,-.1,-.1,-.3,-.2,-.4q0,-.3,.1,-.1c0,.1,.1,.3,.1,.4q.1,.2,0,.1Z" class="gb_20"/>
<path d="M136.9,202c.1,-.1,.2,-.1,.3,-.1c.1,.1,0,.1,-.2,.1q-.3,.1,-.1,0Z" class="gb_20"/>
<path d="M137.5,201.6c.1,-.1,.2,-.3,.2,-.3c.1,0,-.1,.5,-.2,.6c0,0,0,-.1,0,-.3Z" class="gb_20"/>
<path d="M128.4,201.8c-.1,-.1,-.2,-.2,-.1,-.3q0,-.1,.1,.1c.2,.3,.2,.4,0,.2Z" class="gb_20"/>
<path d="M137.9,200.8c0,-.1,.1,-.2,.2,-.2c.1,.1,-.1,.4,-.2,.4c-.1,0,-.1,-.1,0,-.2Z" class="gb_20"/>
<path d="M127.3,201.7q-.1,-.2,0,-.1c.2,0,.2,.1,.1,.2c0,.1,0,0,-.1,-.1Z" class="gb_20"/>
<path d="M126,201.7c-.1,-.1,.5,-.9,.7,-.9c.3,0,.3,.2,.1,.3c-.2,.1,-.4,.2,-.5,.4c-.1,.3,-.2,.4,-.3,.2Z" class="gb_20"/>
<path d="M127.6,201.3c-.1,-.2,-.1,-.4,-.1,-.4c.1,-.1,.4,.4,.3,.6c0,.1,0,0,-.2,-.2Z" class="gb_20"/>
<path d="M133,200.7c.1,-.2,.2,-.3,.3,-.3c.1,.1,-.3,.7,-.4,.7c-.1,0,0,-.2,.1,-.4Z" class="gb_20"/>
<path d="M138,200.4c0,-.1,.2,-.5,.3,-.5c.1,0,.1,-.2,.2,-.3c.1,-.4,1,-1.8,2,-3.3c.1,-.2,.1,-.3,0,-.5q-.1,-.1,.1,-.3c.1,-.1,.2,-.1,.3,0c.2,.1,0,.7,-.2,.9c-.3,.3,-1.4,2,-1.7,2.5c-.6,1.1,-.9,1.6,-1,1.5Z" class="gb_20"/>
<path d="M127.9,200.8c-.1,0,-.1,-.1,0,-.1c0,0,.1,0,.1,.1c0,0,0,.1,0,.1c0,0,-.1,0,-.1,-.1Z" class="gb_20"/>
<path d="M133.4,200.2c0,0,.5,-1,.8,-1.4c.1,-.1,.3,-.4,.4,-.6c.2,-.4,.8,-1.1,.9,-1c0,0,0,.1,-.1,.2c-.1,.2,-.3,.3,-.3,.4c-.1,.1,-.3,.4,-.5,.7c-.3,.4,-.6,.8,-.7,1.1c-.3,.5,-.4,.7,-.5,.6Z" class="gb_20"/>
<path d="M127.5,200.2c0,0,0,-.2,0,-.2q0,-.1,.1,.1c.1,.1,.2,.3,.1,.3c0,0,-.1,-.1,-.2,-.2Z" class="gb_20"/>
<path d="M127.7,199.5c-.1,-.1,0,-.5,.1,-.4c.1,0,.1,.1,0,.3c0,.1,-.1,.1,-.1,.1Z" class="gb_20"/>
<path d="M128,198.7c0,-.1,.1,-.3,.3,-.5c.1,-.1,.2,-.2,.2,-.3c.1,-.1,.1,-.2,.2,-.2c.1,0,0,.2,-.4,.7c-.2,.3,-.3,.4,-.3,.3Z" class="gb_20"/>
<path d="M129,197.4c.3,-.4,.8,-.9,.8,-.9c.1,.1,-.4,.7,-.7,1l-.2,.1Z" class="gb_20"/>
<path d="M135.9,196.6c.1,-.2,.2,-.3,.2,-.2c0,0,0,.1,-.1,.2l-.2,.2Z" class="gb_20"/>
<path d="M132.7,196.5c-.2,-.1,-.2,-.4,-.1,-.4c.1,0,.3,.4,.2,.4c0,.1,-.1,0,-.1,0Z" class="gb_20"/>
<path d="M130.6,195.9c.1,-.1,.2,-.2,.3,-.2c.1,0,-.2,.4,-.4,.4c-.1,0,0,-.1,.1,-.2Z" class="gb_20"/>
<path d="M140.7,195.1c-.1,-.1,0,-.1,.1,-.2c.2,-.1,.4,-.1,.4,0c0,.1,-.4,.2,-.5,.2Z" class="gb_20"/>
<path d="M131.3,195.2c.2,-.3,.5,-.4,.6,-.3c.1,.1,-.2,.3,-.7,.6c0,0,0,-.1,.1,-.3Z" class="gb_20"/>
<path d="M141.6,193.9c0,-.1,.1,-.2,.1,-.3c.1,-.1,.2,-.2,.2,-.2c0,.1,0,.2,-.1,.3c-.1,.1,-.1,.2,-.2,.2Z" class="gb_20"/>
<path d="M142.2,192.9c.2,-.4,.8,-1,2.4,-2.3c.8,-.6,2.6,-1.6,3.6,-2c1,-.3,1.1,-.4,1.1,-.5c-.2,-.3,.7,-.5,.9,-.3c.2,.1,.1,.3,-.1,.3c-.1,0,-.5,.2,-.8,.3c-.4,.2,-1,.4,-1.3,.6c-1.1,.4,-1.9,.8,-2.4,1.1c-.2,.2,-.5,.4,-.6,.4c-.1,.1,-.4,.3,-.5,.4c-.2,.2,-.4,.3,-.4,.3c0,.1,-.2,.2,-.4,.3c-1.1,1.1,-1.3,1.3,-1.3,1.5c0,.1,-.1,.2,-.2,.2q-.1,0,0,-.3Z" class="gb_20"/>
<path d="M133,193.9c0,0,0,-.1,.1,-.1c0,0,.1,0,0,.1c0,0,0,.1,-.1,.1v-.1Z" class="gb_20"/>
<path d="M142.3,190q0,-.1,.1,-.2c.1,-.1,.2,-.1,.2,-.1c0,0,0,.1,-.1,.2c-.1,.1,-.2,.1,-.2,.1Z" class="gb_20"/>
<path d="M143,189.3c.1,-.2,.5,-.4,.5,-.3c.1,.1,-.3,.3,-.5,.4q-.2,.1,0,-.1Z" class="gb_20"/>
<path d="M144.6,188.6c.1,0,.2,-.1,.3,-.1c.1,0,.1,.1,0,.1c-.1,.1,-.2,.1,-.3,.1q-.1,0,0,-.1Z" class="gb_20"/>
<path d="M145.2,188.5c.1,-.1,.4,-.1,.9,-.2c.6,0,.9,0,.9,0c0,.1,-.4,.2,-.9,.2c-.6,.1,-.9,0,-.9,0Z" class="gb_20"/>
<path d="M147.1,188.3c.1,-.1,.4,-.1,.9,-.2c.5,-.1,.7,-.1,.6,0c-.3,.1,-1.5,.2,-1.5,.2Z" class="gb_20"/>
<path d="M128.2,201.8q-.1,-.2,-.1,-.1c-.1,.2,0,.3,.1,.3c.1,0,.1,-.1,0,-.2Z" class="g6_20"/>
</g>
<path d="M152.7,217.2H314" class="g0_20"/>
<path d="M137.6,225.4V674.5" class="gc_20"/>
<path d="M117.7,980.7V725.5H791.8V980.7Z" class="g1_20"/>
<path d="M117.7,980.7V725.5H791.8V980.7Z" class="g2_20"/>
<path d="M183.8,817.6v-7.2c0,-2.9,2.3,-5.2,5.2,-5.2h12.3c2.9,0,5.2,2.3,5.2,5.2v7.2c0,2.8,-2.3,5.2,-5.2,5.2H189c-2.9,0,-5.2,-2.4,-5.2,-5.2Z" class="gd_20"/>
<path d="M246.8,817.6V804.3c0,-2.8,2.3,-5.2,5.2,-5.2h13.8c2.9,0,5.2,2.4,5.2,5.2v13.3c0,2.8,-2.3,5.2,-5.2,5.2H252c-2.9,0,-5.2,-2.4,-5.2,-5.2Z" class="ge_20"/>
<path d="M396,889.3V866.8c0,-5.7,4.7,-10.4,10.4,-10.4h41.7c5.8,0,10.4,4.7,10.4,10.4v22.5c0,5.7,-4.6,10.4,-10.4,10.4H406.4C400.7,899.7,396,895,396,889.3Z" class="gd_20"/>
<path d="M517.6,882V866.8c0,-5.7,4.7,-10.4,10.4,-10.4h6.1c5.7,0,10.4,4.7,10.4,10.4V882c0,5.7,-4.7,10.4,-10.4,10.4H528c-5.7,0,-10.4,-4.7,-10.4,-10.4Z" class="ge_20"/>
<g clip-path="url(#c3_20)">
<path clip-path="url(#c1_20)" d="M126.4,757.7c0,0,1.5,-.9,1.2,-1.3c-.1,-.1,-.3,-.1,-.6,0c-1.6,.3,-5,2.1,-3.3,4.1c1.4,1.6,6.4,2.4,11.7,1.4c7.3,-1.4,13.5,-5.5,11.1,-8.3c-1.6,-2,-6.7,-2.1,-10.8,-2.2c-2.1,0,-6.6,-.1,-8,-1.7c-.6,-.7,-.5,-1.6,.1,-2.2c1,-.9,3.8,-1.4,4,-1.5c.7,-.1,2.5,-.4,4.6,-.4c1.1,.1,2.5,.1,3.2,1c.3,.3,.4,.6,.4,.7c0,0,0,.1,.1,.2c.1,.1,.4,.1,.5,.1c.5,-.1,1.5,-.6,2,-1.1c.3,-.2,.8,-.6,0,-1.5c-.9,-1.1,-2.3,-1.2,-4,-1.2c-2.3,0,-4.1,.3,-4.9,.5c-5.8,1.1,-11.1,4.6,-9,7c1.5,1.8,6.3,1.9,9,1.9c3.9,.1,8.4,.3,9.8,2c.6,.7,.9,1.9,-.4,2.9c-1.2,.9,-4,1.7,-5.8,2c-4.4,.9,-9.4,.2,-10.6,-1.2c0,-.1,-.5,-.6,-.3,-1.2Z" class="gf_20"/>
<path d="M131.5,760.1l-.2,-.2l.3,-4.6q.3,-5.6,.5,-6c.1,-.1,1.6,-2.2,3.3,-4.6c1.7,-2.3,4.3,-6,5.9,-8.2c1.5,-2.2,2.8,-4,2.9,-4c.4,0,.1,.4,-1.8,3.2c-1.2,1.6,-3.7,5.3,-5.7,8.1c-2,2.9,-3.6,5.2,-3.6,5.2c0,0,.5,.1,1,.2c2,.2,3.3,.5,4.5,1.2c.6,.3,1,.5,1.5,1.1c.8,.8,1.2,1.4,1.4,2.2c.1,.2,.2,.4,.2,.4c.1,0,.7,-.8,5.2,-7.5c2.4,-3.7,4.5,-6.7,4.6,-6.8c.2,-.3,.4,-.1,.2,.2c0,.1,-1.5,2.4,-3.2,5c-1.8,2.7,-3.8,5.7,-4.5,6.8c-1.5,2.3,-2.1,3.3,-2.3,3.7c-.2,.4,-.3,.5,-.9,.8c-.8,.4,-8.7,3.9,-8.9,3.9c-.1,.1,-.3,0,-.4,-.1Z" class="gf_20"/>
<path d="M135.2,758.1c2.2,-.9,4,-1.7,4.6,-2c.7,-.4,.7,-.5,.7,-1.5c-.2,-1.6,-1.4,-3,-3.6,-3.7c-1.2,-.4,-4.3,-.8,-4.4,-.6c0,0,-.1,1.4,-.2,3.1c-.1,1.7,-.2,3.3,-.2,3.6c-.1,1.2,.1,1.5,-.2,2.6c.1,.1,1.8,-.8,1.8,-.8c.1,0,.7,-.3,1.5,-.7Z" class="gf_20"/>
<path d="M131.5,760.1l-.2,-.2l.3,-4.6q.3,-5.6,.5,-6c.1,-.1,1.6,-2.2,3.3,-4.6c1.7,-2.3,4.3,-6,5.9,-8.2c1.5,-2.2,2.8,-4,2.9,-4c.4,0,.1,.4,-1.8,3.2c-1.2,1.6,-3.7,5.3,-5.7,8.1c-2,2.9,-3.6,5.2,-3.6,5.2c0,0,.5,.1,1,.2c2,.2,3.3,.5,4.5,1.2c.6,.3,1,.5,1.5,1.1c.8,.8,1.2,1.4,1.4,2.2c.1,.2,.2,.4,.2,.4c.1,0,.7,-.8,5.2,-7.5c2.4,-3.7,4.5,-6.7,4.6,-6.8c.2,-.3,.4,-.1,.2,.2c0,.1,-1.5,2.4,-3.2,5c-1.8,2.7,-3.8,5.7,-4.5,6.8c-1.5,2.3,-2.1,3.3,-2.3,3.7c-.2,.4,-.3,.5,-.9,.8c-.8,.4,-8.7,3.9,-8.9,3.9c-.1,.1,-.3,0,-.4,-.1Zm3.7,-2c2.2,-.9,4,-1.7,4.6,-2c.7,-.4,.7,-.5,.7,-1.5c-.2,-1.6,-1.4,-3,-3.6,-3.7c-1.2,-.4,-4.3,-.8,-4.4,-.6c0,0,-.1,1.4,-.2,3.1c-.1,1.7,-.2,3.3,-.2,3.6c-.1,1.2,.1,1.5,-.2,2.6c.1,.1,1.8,-.8,1.8,-.8c.1,0,.7,-.3,1.5,-.7Z" class="gg_20"/>
<path d="M135.3,749.5l11.2,-16m-8.2,17.1L149,734.9" class="gh_20"/>
<path d="M140.4,752.3l10,-14.4l.2,-.3" class="gi_20"/>
<path d="M134.1,749.1c-.4,0,-.8,-.1,-.9,-.1c0,-.1,2.5,-3.7,6.7,-9.6c1.9,-2.7,3.6,-5.2,3.8,-5.6c.2,-.3,.4,-.6,.5,-.6c.1,0,.7,.5,.9,.7c.1,.3,.1,.6,-.1,1.1c-.2,.5,-9.8,14.3,-9.9,14.3c-.1,0,-.5,-.1,-1,-.2Z" class="gj_20"/>
<path d="M137.6,749.9c-.2,-.1,-.8,-.3,-1.2,-.4l-.7,-.1l.3,-.4c.1,-.2,2.3,-3.4,4.8,-7l4.7,-6.7l.5,-.3c.9,-.4,1.6,-.4,2.1,.1l.3,.3l-5,7.3c-3,4.5,-5.1,7.4,-5.1,7.4c-.1,0,-.4,-.1,-.7,-.2Z" class="gj_20"/>
<path d="M140,751.3c-.2,-.2,-.6,-.5,-.8,-.6c-.2,-.2,-.3,-.3,-.3,-.4c0,0,9.4,-13.9,9.8,-14.5c.1,-.1,.5,.3,.8,.7c.3,.4,.3,.6,.4,1c0,.4,0,.7,-.1,.8c-.2,.3,-9.1,13.1,-9.2,13.3c-.2,.2,-.2,.1,-.6,-.3Z" class="gj_20"/>
<path d="M141.6,754c0,-.1,-.1,-.3,-.1,-.6c-.1,-.2,-.3,-.6,-.4,-.8l-.3,-.4l4.7,-6.8c2.6,-3.7,4.8,-6.8,4.8,-6.8c.4,0,1,.7,1,1.1c0,.2,-.6,1.2,-1.9,3.1c-1.1,1.6,-3.1,4.6,-4.6,6.8c-3,4.4,-3.1,4.6,-3.2,4.4Z" class="gj_20"/>
<path d="M131.9,755.5c2.3,-.1,3.6,.7,4.1,2.3" class="gk_20"/>
<path d="M132,759.4c0,-.4,.1,-.4,.1,-1.4c0,-.7,0,-.9,0,-1.3c0,-.3,0,-.6,0,-.7l.1,-.2c.1,0,.6,0,.7,0c.4,0,.8,.1,1.1,.2c.2,.1,.5,.2,.6,.3c.2,.1,.3,.2,.4,.4c.3,.2,.4,.4,.6,.7c0,.2,.2,.5,.1,.5c0,0,-1.5,.7,-1.8,.8c-.1,0,-.2,.1,-.3,.1c-1.1,.6,-1.4,.7,-1.6,.8Z" class="gf_20"/>
<path d="M136.2,757.3c-.6,-1.3,-1.8,-2,-3.4,-2.1l-.6,-.1v-.5c.1,-.2,.1,-1.2,.2,-2.2c0,-.9,.1,-1.8,.1,-1.9l.1,-.2h.7c.8,.1,2.3,.3,3.1,.5c1.7,.4,3.1,1.4,3.6,2.5c.4,.8,.6,2.1,.3,2.4c-.1,.1,-.8,.5,-2.5,1.3c-1.6,.7,-1.5,.6,-1.6,.3Z" class="gl_20"/>
<path d="M136.2,757.3c-.6,-1.3,-1.8,-2,-3.4,-2.1l-.6,-.1v-.5c.1,-.2,.1,-1.2,.2,-2.2c0,-.9,.1,-1.8,.1,-1.9l.1,-.2h.7c.8,.1,2.3,.3,3.1,.5c1.7,.4,3.1,1.4,3.6,2.5c.4,.8,.6,2.1,.3,2.4c-.1,.1,-.8,.5,-2.5,1.3c-1.6,.7,-1.5,.6,-1.6,.3Z" class="gm_20"/>
</g>
<path d="M152.7,760.7H427.4" class="g0_20"/>
<path d="M137.6,765.9V971.3" class="gc_20"/>
</svg>