<?xml version="1.0" encoding="UTF-8" standalone="no"?>
<!DOCTYPE svg PUBLIC "-//W3C//DTD SVG 1.1//EN"
"http://www.w3.org/Graphics/SVG/1.1/DTD/svg11.dtd">
<svg viewBox="0 0 909 1286" version="1.1" xmlns="http://www.w3.org/2000/svg" xmlns:xlink="http://www.w3.org/1999/xlink">
<defs>
<style type="text/css"><![CDATA[
.g0_33{
fill: #FDE8E9;
}
.g1_33{
fill: none;
stroke: #000000;
stroke-width: 0.73;
stroke-linecap: butt;
stroke-linejoin: miter;
}
.g2_33{
fill: none;
stroke: #F81693;
stroke-width: 0.73;
stroke-linecap: butt;
stroke-linejoin: miter;
}
.g3_33{
fill: none;
stroke: #02B5EE;
stroke-width: 0.73;
stroke-linecap: butt;
stroke-linejoin: miter;
}
.g4_33{
fill: none;
stroke: #02B5EE;
stroke-width: 1.461;
stroke-linecap: butt;
stroke-linejoin: miter;
}
.g5_33{
fill: none;
stroke: #F81693;
stroke-width: 1.461;
stroke-linecap: butt;
stroke-linejoin: miter;
}
.g6_33{
fill: #FFFFFF;
}
]]></style>
</defs>
<path d="M165.8,241.8H298.4V210.6H165.8v31.2Z" class="g0_33"/>
<path d="M116.9,287.8H685.7M371.2,317.4V288.2m-69.4,84.7l24.8,14.8m-56,40.6V391.8m31.2,-18.9l-31.2,18.7M239.3,372.9l31.3,18.7m-31.3,55.5l31.3,-18.6m-31.3,18.6L208.1,428.5m0,-.2V391.8m31.2,-18.9l-31.2,18.7m32.3,-11l23,13.7m-49.3,29.2v-27m26.3,42.9l23,-13.7m36.2,-52.8V347.4m4.4,25.5V347.4m-95.9,80.9l-21.9,13.1m185,21.8V317.4" class="g1_33"/>
<path d="M596.3,372.9l24.8,14.8M565,421V400.9m31.3,-28l-24.9,14.8M533.8,372.9l24.8,14.8m-18.4,55.6l18.3,-11m-31.1,11l-18.3,-11M502.6,421V391.8m31.2,-18.9l-31.2,18.7m32.3,-11l18.3,11M508.6,421V396.5m31.6,39.6l18.3,-10.9m35.6,-52.3V347.4m4.4,25.5V347.4" class="g2_33"/>
<path d="M497.1,432.7l-18.3,10.9" class="g3_33"/>
<path d="M371.2,492.4V463.2m0,58.4V492.4m0,58.4V521.6m0,58.5V550.8m0,58.5V580.1" class="g1_33"/>
<path d="M399.4,607.8c1.4,0,2.1,-2.7,3.4,-2.7c1,0,1.9,1.3,2.8,2.7c.9,1.4,1.7,2.8,2.7,2.8c1,0,1.9,-1.4,2.8,-2.8c.8,-1.4,1.7,-2.7,2.7,-2.7c1.4,0,2.1,2.7,3.4,2.7h3.9" class="g4_33"/>
<path d="M526.1,607.8c1.4,0,2.1,-2.7,3.5,-2.7c.9,0,1.8,1.3,2.7,2.7c.9,1.4,1.7,2.8,2.7,2.8c1,0,1.9,-1.4,2.8,-2.8c.9,-1.4,1.7,-2.7,2.7,-2.7c1,0,1.9,1.3,2.8,2.7c.8,1.4,1.7,2.8,2.7,2.8c1,0,1.8,-1.4,2.7,-2.8c.9,-1.4,1.8,-2.7,2.8,-2.7c1,0,1.8,1.3,2.7,2.7c.9,1.4,1.8,2.8,2.8,2.8c.9,0,1.8,-1.4,2.7,-2.8c.9,-1.4,1.7,-2.7,2.7,-2.7c1,0,1.9,1.3,2.8,2.7c.9,1.4,1.7,2.8,2.7,2.8c1,0,1.9,-1.4,2.8,-2.8c.8,-1.4,1.7,-2.7,2.7,-2.7c1,0,1.8,1.3,2.7,2.7c.9,1.4,1.8,2.8,2.8,2.8c1,0,1.8,-1.4,2.7,-2.8c.9,-1.4,1.8,-2.7,2.8,-2.7c.9,0,1.8,1.3,2.7,2.7c.9,1.4,1.7,2.8,2.7,2.8c1,0,1.9,-1.4,2.8,-2.8c.9,-1.4,1.7,-2.7,2.7,-2.7c1,0,1.9,1.3,2.8,2.7c.8,1.4,1.7,2.8,2.7,2.8c1,0,1.8,-1.4,2.7,-2.8c.9,-1.4,1.8,-2.7,2.8,-2.7c1,0,1.8,1.3,2.7,2.7c.9,1.4,1.8,2.8,2.7,2.8c1,0,1.9,-1.4,2.8,-2.8c.9,-1.4,1.7,-2.7,2.7,-2.7c1,0,1.9,1.3,2.8,2.7c.9,1.4,1.7,2.8,2.7,2.8c1,0,1.9,-1.4,2.7,-2.8c.9,-1.4,1.8,-2.7,2.8,-2.7c1,0,1.8,1.3,2.7,2.7c.9,1.4,1.8,2.8,2.8,2.8c1,0,1.8,-1.4,2.7,-2.8c.9,-1.4,1.8,-2.7,2.7,-2.7c1,0,1.9,1.3,2.8,2.7c.9,1.4,1.7,2.8,2.7,2.8c1,0,1.9,-1.4,2.8,-2.8c.9,-1.4,1.7,-2.7,2.7,-2.7c1,0,1.9,1.3,2.7,2.7c.9,1.4,1.8,2.8,2.8,2.8c1,0,1.8,-1.4,2.7,-2.8c.9,-1.4,1.8,-2.7,2.8,-2.7c1,0,1.8,1.3,2.7,2.7c.9,1.4,1.8,2.8,2.7,2.8c1.4,0,2.1,-2.8,3.5,-2.8h4.8" class="g5_33"/>
<path d="M371.2,638.5V609.3m0,108.5V638.5" class="g1_33"/>
<path d="M448.8,710.1V646.3c0,-2.9,2.3,-5.2,5.2,-5.2H651.7c2.9,0,5.2,2.3,5.2,5.2v63.8c0,2.8,-2.3,5.1,-5.2,5.1H454c-2.9,0,-5.2,-2.3,-5.2,-5.1Z" class="g6_33"/>
<path d="M523.4,738.5h58.9V724.3H523.4v14.2Z" class="g0_33"/>
<path d="M474.8,699.7H630.9v-43H474.8v43Z" class="g0_33"/>
<path d="M371.2,747.1V717.8M116.9,747.4H685.7" class="g1_33"/>
</svg>