<?xml version="1.0" encoding="UTF-8" standalone="no"?>
<!DOCTYPE svg PUBLIC "-//W3C//DTD SVG 1.1//EN"
"http://www.w3.org/Graphics/SVG/1.1/DTD/svg11.dtd">
<svg viewBox="0 0 909 1286" version="1.1" xmlns="http://www.w3.org/2000/svg" xmlns:xlink="http://www.w3.org/1999/xlink">
<defs>
<style type="text/css"><![CDATA[
.g0_15{
fill: none;
stroke: #000000;
stroke-width: 0.73;
stroke-linecap: butt;
stroke-linejoin: miter;
}
.g1_15{
fill: #E81A58;
}
.g2_15{
fill: #401A1A;
}
.g3_15{
fill: #1F000F;
}
.g4_15{
fill: #CBC04F;
}
.g5_15{
}
]]></style>
</defs>
<path d="M116.9,159.9H792.5" class="g0_15"/>
<path d="M116.9,512.2V218.7c0,-21.7,17.6,-39.2,39.2,-39.2H792.5V473c0,21.7,-17.5,39.2,-39.1,39.2Z" class="g1_15"/>
<path d="M119.5,509.6V215.4H789.9V473c0,20.2,-16.3,36.6,-36.5,36.6Z" class="g2_15"/>
<path d="M318.1,435.5H419.4V406.3H318.1v29.2Z" class="g3_15"/>
<path d="M164.7,494H266V464.8H164.7V494Z" class="g3_15"/>
<path d="M116.9,736.2V666.1c0,-4.3,3.5,-7.8,7.8,-7.8h660c4.3,0,7.8,3.5,7.8,7.8v70.1c0,4.3,-3.5,7.8,-7.8,7.8h-660c-4.3,0,-7.8,-3.5,-7.8,-7.8Z" class="g4_15"/>
<path d="M119.5,736.2V666.1c0,-2.9,2.4,-5.2,5.2,-5.2h660c2.9,0,5.2,2.3,5.2,5.2v70.1c0,2.9,-2.3,5.2,-5.2,5.2h-660c-2.8,0,-5.2,-2.3,-5.2,-5.2Z" class="g5_15"/>
</svg>