<?xml version="1.0" encoding="UTF-8" standalone="no"?>
<!DOCTYPE svg PUBLIC "-//W3C//DTD SVG 1.1//EN"
"http://www.w3.org/Graphics/SVG/1.1/DTD/svg11.dtd">
<svg viewBox="0 0 1286 909" version="1.1" xmlns="http://www.w3.org/2000/svg" xmlns:xlink="http://www.w3.org/1999/xlink">
<defs>
<style type="text/css"><![CDATA[
.g0_977{
fill: none;
stroke: #000000;
stroke-width: 0.73;
stroke-linecap: butt;
stroke-linejoin: miter;
}
.g1_977{
fill: #FFCCCC;
}
.g2_977{
fill: none;
stroke: #F81693;
stroke-width: 1.461;
stroke-linecap: butt;
stroke-linejoin: miter;
stroke-dasharray: 2,2;
}
.g3_977{
fill: #B3E9FA;
}
.g4_977{
fill: none;
stroke: #02B5EE;
stroke-width: 1.262;
stroke-linecap: butt;
stroke-linejoin: miter;
}
.g5_977{
fill: none;
stroke: #5EE200;
stroke-width: 1.262;
stroke-linecap: butt;
stroke-linejoin: miter;
}
]]></style>
</defs>
<path d="M193,83.4h900.3M193,210.6h817.3m-817.3,0h817.3M589.5,240.2V211m0,58.5V240.2m0,63.2V269.5" class="g0_977"/>
<path d="M828.2,303.4h59.5V270.5H828.2v32.9Z" class="g1_977"/>
<path d="M901.8,297h93.9" class="g2_977"/>
<path d="M589.5,333.6V303.4m0,63V333.6" class="g0_977"/>
<path d="M917.6,362.1h15.1" class="g2_977"/>
<path d="M942.4,366.4h56.9V333.6H942.4v32.8Z" class="g1_977"/>
<path d="M589.5,395.7V366.4m0,58.5V395.7m0,60.5V424.9m0,60.5V456.2m0,58.5V485.4m0,59.4V514.7m0,59.4V544.8m0,58.5V574.1m0,114.2v-85" class="g0_977"/>
<path d="M694.3,644.8V626.3c0,-2.8,2.4,-5.2,5.2,-5.2h87c2.9,0,5.2,2.4,5.2,5.2v18.5c0,2.9,-2.3,5.2,-5.2,5.2h-87c-2.8,0,-5.2,-2.3,-5.2,-5.2Z" class="g3_977"/>
<path d="M691.7,664.3H794.3" class="g4_977"/>
<path d="M804.8,664.3H999.3" class="g5_977"/>
<path d="M589.5,717.5V688.3m0,58.5V717.5M193,747.1h817.3m-817.3,0h817.3" class="g0_977"/>
</svg>