<?xml version="1.0" encoding="UTF-8" standalone="no"?>
<!DOCTYPE svg PUBLIC "-//W3C//DTD SVG 1.1//EN"
"http://www.w3.org/Graphics/SVG/1.1/DTD/svg11.dtd">
<svg viewBox="0 0 1286 909" version="1.1" xmlns="http://www.w3.org/2000/svg" xmlns:xlink="http://www.w3.org/1999/xlink">
<defs>
<style type="text/css"><![CDATA[
.g0_1228{
fill: none;
stroke: #000000;
stroke-width: 0.73;
stroke-linecap: butt;
stroke-linejoin: miter;
}
.g1_1228{
fill: #FDE8E9;
}
]]></style>
</defs>
<path d="M193,83.4h900.3M203.9,110H456.3M203.9,139.6V110.4m94.9,29.2V110.4m157.5,29.2V110.4M203.9,174.2V139.6m94.9,34.6V139.6" class="g0_1228"/>
<path d="M309.8,174.2h87.4V139.6H309.8v34.6Z" class="g1_1228"/>
<path d="M456.3,174.2V139.6M203.9,203.5V174.2m94.9,29.3V174.2m157.5,29.3V174.2M203.9,232.7V203.5m94.9,29.2V203.5m157.5,29.2V203.5M203.9,267.3V232.7m94.9,34.6V232.7" class="g0_1228"/>
<path d="M309.8,267.3H445.3V232.7H309.8v34.6Z" class="g1_1228"/>
<path d="M456.3,267.3V232.7M203.9,296.5V267.3m94.9,29.2V267.3m157.5,29.2V267.3M203.9,325.7V296.5m94.9,29.2V296.5m157.5,29.2V296.5M203.9,357.9V325.7m94.9,32.2V325.7" class="g0_1228"/>
<path d="M309.8,357.9h50.4V329.3H309.8v28.6Z" class="g1_1228"/>
<path d="M456.3,357.9V325.7M203.9,387.1V357.9m94.9,29.2V357.9m157.5,29.2V357.9M203.9,416.3V387.1m94.9,29.2V387.1m157.5,29.2V387.1M203.9,449V416.3M298.8,449V416.3" class="g0_1228"/>
<path d="M309.8,445.7h96.7V416.3H309.8v29.4Z" class="g1_1228"/>
<path d="M456.3,449V416.3M203.9,478.2V449m94.9,29.2V449m157.5,29.2V449M203.9,507.4V478.2m94.9,29.2V478.2m157.5,29.2V478.2M203.9,542V507.4M298.8,542V507.4" class="g0_1228"/>
<path d="M309.8,542h88.3V507.4H309.8V542Z" class="g1_1228"/>
<path d="M456.3,542V507.4M203.9,571.3V542m94.9,29.3V542m157.5,29.3V542M203.9,600.5V571.3m94.9,29.2V571.3m157.5,29.2V571.3M203.9,632.6V600.5m94.9,32.1V600.5" class="g0_1228"/>
<path d="M309.8,632.6h98.1V604.1H309.8v28.5Z" class="g1_1228"/>
<path d="M456.3,632.6V600.5M203.9,661.9V632.6m94.9,29.3V632.6m157.5,29.3V632.6M203.9,691.1V661.9m94.9,29.2V661.9m157.5,29.2V661.9M203.9,723.7V691.1m94.9,32.6V691.1" class="g0_1228"/>
<path d="M309.8,720.4h65.9V691.1H309.8v29.3Z" class="g1_1228"/>
<path d="M456.3,723.7V691.1M203.9,752.9V723.7m94.9,29.2V723.7m157.5,29.2V723.7M203.9,753.3H456.3M478.2,109.5h255m-255,29.6V109.9m94.9,29.2V109.9m160.1,29.2V109.9m-255,61.9V139.1m94.9,32.7V139.1" class="g0_1228"/>
<path d="M584,168.5h87.1V139.1H584v29.4Z" class="g1_1228"/>
<path d="M733.2,171.8V139.1M478.2,201V171.8M573.1,201V171.8M733.2,201V171.8m-255,58.4V201m94.9,29.2V201m160.1,29.2V201m-255,63.8V230.2m94.9,34.6V230.2" class="g0_1228"/>
<path d="M584,264.8H710.1V230.2H584v34.6Z" class="g1_1228"/>
<path d="M733.2,264.8V230.2M478.2,294V264.8M573.1,294V264.8M733.2,294V264.8m-255,58.5V294m94.9,29.3V294m160.1,29.3V294m-255,61.9V323.3m94.9,32.6V323.3" class="g0_1228"/>
<path d="M584,352.6H722.3V323.3H584v29.3Z" class="g1_1228"/>
<path d="M733.2,355.9V323.3m-255,61.8V355.9m94.9,29.2V355.9m160.1,29.2V355.9m-255,58.5V385.1m94.9,29.3V385.1m160.1,29.3V385.1M478.2,449V414.4M573.1,449V414.4" class="g0_1228"/>
<path d="M584,449H708V414.4H584V449Z" class="g1_1228"/>
<path d="M733.2,449V414.4m-255,63.8V449m94.9,29.2V449m160.1,29.2V449m-255,58.4V478.2m94.9,29.2V478.2m160.1,29.2V478.2m-255,61.9V507.4m94.9,32.7V507.4" class="g0_1228"/>
<path d="M584,536.8h69.2V507.4H584v29.4Z" class="g1_1228"/>
<path d="M733.2,540.1V507.4m-255,61.9V540.1m94.9,29.2V540.1m160.1,29.2V540.1m-255,58.4V569.3m94.9,29.2V569.3m160.1,29.2V569.3m-255,63.8V598.5m94.9,34.6V598.5" class="g0_1228"/>
<path d="M584,633.1H685.3V598.5H584v34.6Z" class="g1_1228"/>
<path d="M733.2,633.1V598.5m-255,63.9V633.1m94.9,29.3V633.1m160.1,29.3V633.1m-255,58.5V662.4m94.9,29.2V662.4m160.1,29.2V662.4m-255,61.8V691.6m94.9,32.6V691.6" class="g0_1228"/>
<path d="M584,720.9h98.1V691.6H584v29.3Z" class="g1_1228"/>
<path d="M733.2,724.2V691.6m-255,61.9V724.2m94.9,29.3V724.2m160.1,29.3V724.2m-255,29.6h255m22,-643H972.5M755.2,140.4V111.1M850,140.4V111.1m122.5,29.3V111.1M755.2,173V140.4M850,173V140.4" class="g0_1228"/>
<path d="M861,169.7h67.2V140.4H861v29.3Z" class="g1_1228"/>
<path d="M972.5,173V140.4M755.2,202.2V173M850,202.2V173m122.5,29.2V173M755.2,231.4V202.2M850,231.4V202.2m122.5,29.2V202.2M755.2,266.1V231.4M850,266.1V231.4" class="g0_1228"/>
<path d="M861,266.1h92.6V231.4H861v34.7Z" class="g1_1228"/>
<path d="M972.5,266.1V231.4M755.2,295.3V266.1M850,295.3V266.1m122.5,29.2V266.1M755.2,324.5V295.3M850,324.5V295.3m122.5,29.2V295.3M755.2,359.1V324.5M850,359.1V324.5" class="g0_1228"/>
<path d="M861,359.1h92.9V324.5H861v34.6Z" class="g1_1228"/>
<path d="M972.5,359.1V324.5M755.2,388.3V359.1M850,388.3V359.1m122.5,29.2V359.1M755.2,417.6V388.3M850,417.6V388.3m122.5,29.3V388.3M755.2,447.7V417.6M850,447.7V417.6" class="g0_1228"/>
<path d="M861,444.5h96.8V421.1H861v23.4Z" class="g1_1228"/>
<path d="M972.5,447.7V417.6M755.2,477V447.7M850,477V447.7M972.5,477V447.7M755.2,506.2V477M850,506.2V477m122.5,29.2V477M755.2,538.8V506.2M850,538.8V506.2" class="g0_1228"/>
<path d="M861,535.5H961.5V506.2H861v29.3Z" class="g1_1228"/>
<path d="M972.5,538.8V506.2M755.2,568.1V538.8M850,568.1V538.8m122.5,29.3V538.8M755.2,597.3V568.1M850,597.3V568.1m122.5,29.2V568.1M755.2,631.9V597.3M850,631.9V597.3" class="g0_1228"/>
<path d="M861,631.9h85.1V597.3H861v34.6Z" class="g1_1228"/>
<path d="M972.5,631.9V597.3M755.2,661.1V631.9M850,661.1V631.9m122.5,29.2V631.9M755.2,690.3V661.1M850,690.3V661.1m122.5,29.2V661.1M755.2,723V690.3M850,723V690.3" class="g0_1228"/>
<path d="M861,719.7h75.9V690.3H861v29.4Z" class="g1_1228"/>
<path d="M972.5,723V690.3M755.2,752.2V723M850,752.2V723m122.5,29.2V723M755.2,752.6H972.5" class="g0_1228"/>
</svg>