<?xml version="1.0" encoding="UTF-8" standalone="no"?>
<!DOCTYPE svg PUBLIC "-//W3C//DTD SVG 1.1//EN"
"http://www.w3.org/Graphics/SVG/1.1/DTD/svg11.dtd">
<svg viewBox="0 0 1286 909" version="1.1" xmlns="http://www.w3.org/2000/svg" xmlns:xlink="http://www.w3.org/1999/xlink">
<defs>
<style type="text/css"><![CDATA[
.g0_885{
fill: none;
stroke: #000000;
stroke-width: 0.73;
stroke-linecap: butt;
stroke-linejoin: miter;
}
.g1_885{
fill: none;
stroke: #02B5EE;
stroke-width: 1.262;
stroke-linecap: butt;
stroke-linejoin: miter;
}
.g2_885{
fill: none;
stroke: #5EE200;
stroke-width: 1.262;
stroke-linecap: butt;
stroke-linejoin: miter;
}
.g3_885{
fill: none;
stroke: #5EE200;
stroke-width: 0.73;
stroke-linecap: butt;
stroke-linejoin: miter;
}
.g4_885{
fill: none;
stroke: #02B5EE;
stroke-width: 0.73;
stroke-linecap: butt;
stroke-linejoin: miter;
}
]]></style>
</defs>
<path d="M193,83.4h900.3M193,210.6H823.4m-630.4,0H823.4M543.8,240.2V211m0,58.5V240.2m0,114.3v-85" class="g0_885"/>
<path d="M592,330.5h45.5" class="g1_885"/>
<path d="M790,330.5h22.5" class="g2_885"/>
<path d="M543.8,384.6V354.5m0,103.2V384.6" class="g0_885"/>
<path d="M676.7,443.8h34.4" class="g3_885"/>
<path d="M778.7,443.8h33.8" class="g4_885"/>
<path d="M543.8,489V457.7m0,60.6V489m0,58.5V518.3m0,114.2v-85" class="g0_885"/>
<path d="M634.7,608.5H676" class="g1_885"/>
<path d="M790,608.5h22.5" class="g2_885"/>
<path d="M543.8,662.7V632.5m0,59.4V662.7M193,692.3H823.4m-630.4,0H823.4" class="g0_885"/>
</svg>