<?xml version="1.0" encoding="UTF-8" standalone="no"?>
<!DOCTYPE svg PUBLIC "-//W3C//DTD SVG 1.1//EN"
"http://www.w3.org/Graphics/SVG/1.1/DTD/svg11.dtd">
<svg viewBox="0 0 909 1286" version="1.1" xmlns="http://www.w3.org/2000/svg" xmlns:xlink="http://www.w3.org/1999/xlink">
<defs>
<style type="text/css"><![CDATA[
.g0_14{
fill: none;
stroke: #000000;
stroke-width: 0.73;
stroke-linecap: butt;
stroke-linejoin: miter;
}
]]></style>
</defs>
<path d="M182.4,179.9H727M445.8,209.5V180.3M332.2,255.9l31.3,18.6m0,36.7V274.7M332.2,330l31.3,-18.6M332.2,330L301,311.4m0,-.2V274.7m31.2,-18.8L301,274.5m32.3,-11l23,13.7m-23,45.2l23,-13.7M307,306.5V279.4m56.5,-78.9l31.2,18.7m0,36.7V219.3m-31.2,55.4l31.2,-18.6m-62.5,-.2V219.3m31.3,-18.8l-31.3,18.7m30.2,-11l-23.1,13.7m49.4,29.2v-27M269.8,255.9L301,274.5M269.8,330L301,311.4M269.8,330L238.5,311.4m0,-.2V274.7m31.3,-18.8l-31.3,18.6m30.2,-11l-23.1,13.7m23.1,45.2L245.6,308.7m200.2,19.1V209.5m0,147.6V327.8m0,58.5V357.1M182.4,386.7H727M445.8,416.2V387m-69.4,75.6l31.3,18.7m0,36.7V481.5m-31.3,55.3l31.3,-18.6m-31.3,18.6L345.2,518.2m0,-.2V481.5m31.2,-18.9l-31.2,18.7M314,462.6l31.2,18.7M314,536.8l31.2,-18.6M314,536.8L282.7,518.2m0,-.2V481.5M314,462.6l-31.3,18.7m92.6,-11l-23,13.7m49.3,29.2v-27m-26.3,42.9l-23,-13.7m-39.4,13.7L289.8,515.4M314,573.3V536.8m-31.3,55.3L314,573.5m-31.3,18.6L251.5,573.5m0,-.2V536.8M282.7,518l-31.2,18.6m32.3,47.9l23,-13.7m-49.3,-2.2V541.5m-6,-78.9l31.2,18.7m-31.2,55.5l31.2,-18.6m-31.2,18.6L220.3,518.2m0,-.2V481.5m31.2,-18.9l-31.2,18.7m32.3,-11l23,13.7m-49.3,29.2v-27M345.2,407.3l31.2,18.6m0,36.7V426.1m-31.2,55.4l31.2,-18.7m-31.2,18.7L314,462.8m0,-.2V426.1m31.2,-18.8L314,425.9M346.3,415l23,13.7M320,457.9v-27M445.8,589.4V416.2m0,202.4V589.4m0,58.5V618.6M182.4,648.2H727M445.8,677.8V648.6m0,58.4V677.8m0,58.5V707M182.4,736.6H727" class="g0_14"/>
</svg>