<?xml version="1.0" encoding="UTF-8" standalone="no"?>
<!DOCTYPE svg PUBLIC "-//W3C//DTD SVG 1.1//EN"
"http://www.w3.org/Graphics/SVG/1.1/DTD/svg11.dtd">
<svg viewBox="0 0 1286 909" version="1.1" xmlns="http://www.w3.org/2000/svg" xmlns:xlink="http://www.w3.org/1999/xlink">
<defs>
<style type="text/css"><![CDATA[
.g0_896{
fill: none;
stroke: #000000;
stroke-width: 0.73;
stroke-linecap: butt;
stroke-linejoin: miter;
}
.g1_896{
fill: #B3E9FA;
}
.g2_896{
fill: none;
stroke: #02B5EE;
stroke-width: 1.262;
stroke-linecap: butt;
stroke-linejoin: miter;
}
.g3_896{
fill: none;
stroke: #5EE200;
stroke-width: 1.262;
stroke-linecap: butt;
stroke-linejoin: miter;
}
]]></style>
</defs>
<path d="M193,83.4h900.3M193,111.6H1280.2M193,111.6H1280.2M802.3,141.2V112" class="g0_896"/>
<path d="M502.1,176.5V164.3c0,-2.9,2.3,-5.2,5.2,-5.2h73.2c2.9,0,5.2,2.3,5.2,5.2v12.2c0,2.9,-2.3,5.2,-5.2,5.2H507.3c-2.9,0,-5.2,-2.3,-5.2,-5.2Z" class="g1_896"/>
<path d="M499.5,202.3h88.8" class="g2_896"/>
<path d="M598.8,202.3H791.4" class="g3_896"/>
<path d="M802.3,226.3V141.2m0,114.3V226.3M193,255.9H1280.2M193,255.9H1280.2" class="g0_896"/>
</svg>