<?xml version="1.0" encoding="UTF-8" standalone="no"?>
<!DOCTYPE svg PUBLIC "-//W3C//DTD SVG 1.1//EN"
"http://www.w3.org/Graphics/SVG/1.1/DTD/svg11.dtd">
<svg viewBox="0 0 1286 909" version="1.1" xmlns="http://www.w3.org/2000/svg" xmlns:xlink="http://www.w3.org/1999/xlink">
<defs>
<style type="text/css"><![CDATA[
.g0_1199{
fill: none;
stroke: #000000;
stroke-width: 0.73;
stroke-linecap: butt;
stroke-linejoin: miter;
}
.g1_1199{
fill: #FDE8E9;
}
]]></style>
</defs>
<path d="M193,83.4h900.3M203.9,109.5H661.2M203.9,139.1V109.9m277.3,29.2V109.9m180,29.2V109.9M203.9,173.7V139.1m277.3,34.6V139.1" class="g0_1199"/>
<path d="M492.2,173.7h158V139.1h-158v34.6Z" class="g1_1199"/>
<path d="M661.2,173.7V139.1M203.9,203V173.7M481.2,203V173.7m180,29.3V173.7M203.9,232.2V203m277.3,29.2V203m180,29.2V203M203.9,264.8V232.2m277.3,32.6V232.2" class="g0_1199"/>
<path d="M492.2,261.5H592.3V232.2H492.2v29.3Z" class="g1_1199"/>
<path d="M661.2,264.8V232.2M203.9,294V264.8M481.2,294V264.8m180,29.2V264.8M203.9,323.3V294m277.3,29.3V294m180,29.3V294M203.9,357.9V323.3m277.3,34.6V323.3" class="g0_1199"/>
<path d="M492.2,357.9h54.7V323.3H492.2v34.6Z" class="g1_1199"/>
<path d="M661.2,357.9V323.3M203.9,387.1V357.9m277.3,29.2V357.9m180,29.2V357.9M203.9,416.3V387.1m277.3,29.2V387.1m180,29.2V387.1M203.9,451V416.3M481.2,451V416.3" class="g0_1199"/>
<path d="M492.2,451H599.7V416.3H492.2V451Z" class="g1_1199"/>
<path d="M661.2,451V416.3M203.9,480.2V451m277.3,29.2V451m180,29.2V451M203.9,509.4V480.2m277.3,29.2V480.2m180,29.2V480.2M203.9,544V509.4M481.2,544V509.4" class="g0_1199"/>
<path d="M492.2,544H608.1V509.4H492.2V544Z" class="g1_1199"/>
<path d="M661.2,544V509.4M203.9,573.2V544m277.3,29.2V544m180,29.2V544M203.9,602.5V573.2m277.3,29.3V573.2m180,29.3V573.2M203.9,635.1V602.5m277.3,32.6V602.5" class="g0_1199"/>
<path d="M492.2,631.8H617.9V602.5H492.2v29.3Z" class="g1_1199"/>
<path d="M661.2,635.1V602.5M203.9,664.3V635.1m277.3,29.2V635.1m180,29.2V635.1M203.9,693.6V664.3m277.3,29.3V664.3m180,29.3V664.3M203.9,726.2V693.6m277.3,32.6V693.6" class="g0_1199"/>
<path d="M492.2,722.9h82V693.6h-82v29.3Z" class="g1_1199"/>
<path d="M661.2,726.2V693.6M203.9,755.4V726.2m277.3,29.2V726.2m180,29.2V726.2M203.9,755.8H661.2M683.1,112h377m-377,29.6V112.3m240.8,29.3V112.3m136.2,29.3V112.3m-377,61.9V141.6m240.8,32.6V141.6" class="g0_1199"/>
<path d="M934.9,170.9H1019V141.6H934.9v29.3Z" class="g1_1199"/>
<path d="M1060.1,174.2V141.6m-377,61.8V174.2m240.8,29.2V174.2m136.2,29.2V174.2m-377,58.4V203.4m240.8,29.2V203.4m136.2,29.2V203.4m-377,61.9V232.6m240.8,32.7V232.6" class="g0_1199"/>
<path d="M934.9,262h114.3V232.6H934.9V262Z" class="g1_1199"/>
<path d="M1060.1,265.3V232.6m-377,61.9V265.3m240.8,29.2V265.3m136.2,29.2V265.3m-377,58.4V294.5m240.8,29.2V294.5m136.2,29.2V294.5m-377,64.9V323.7m240.8,35.7V323.7" class="g0_1199"/>
<path d="M934.9,359h84.3V323.7H934.9V359Z" class="g1_1199"/>
<path d="M1060.1,359.4V323.7m-377,64.9V359.4m240.8,29.2V359.4m136.2,29.2V359.4m-377,58.4V388.6m240.8,29.2V388.6m136.2,29.2V388.6m-377,61.9V417.8m240.8,32.7V417.8" class="g0_1199"/>
<path d="M934.9,447.2H1033V417.8H934.9v29.4Z" class="g1_1199"/>
<path d="M1060.1,450.5V417.8m-377,61.9V450.5m240.8,29.2V450.5m136.2,29.2V450.5m-377,58.4V479.7m240.8,29.2V479.7m136.2,29.2V479.7m-377,61.9V508.9m240.8,32.7V508.9" class="g0_1199"/>
<path d="M934.9,538.3h94.3V508.9H934.9v29.4Z" class="g1_1199"/>
<path d="M1060.1,541.6V508.9m-377,61.9V541.6m240.8,29.2V541.6m136.2,29.2V541.6M683.1,600V570.8M923.9,600V570.8M1060.1,600V570.8m-377,61.9V600m240.8,32.7V600" class="g0_1199"/>
<path d="M934.9,629.4h94.3V600H934.9v29.4Z" class="g1_1199"/>
<path d="M1060.1,632.7V600m-377,61.9V632.7m240.8,29.2V632.7m136.2,29.2V632.7m-377,58.4V661.9m240.8,29.2V661.9m136.2,29.2V661.9m-377,61.9V691.1m240.8,32.7V691.1" class="g0_1199"/>
<path d="M934.9,720.5h83.2V691.1H934.9v29.4Z" class="g1_1199"/>
<path d="M1060.1,723.8V691.1M683.1,753V723.8M923.9,753V723.8M1060.1,753V723.8m-377,29.5h377" class="g0_1199"/>
</svg>