<?xml version="1.0" encoding="UTF-8" standalone="no"?>
<!DOCTYPE svg PUBLIC "-//W3C//DTD SVG 1.1//EN"
"http://www.w3.org/Graphics/SVG/1.1/DTD/svg11.dtd">
<svg viewBox="0 0 909 1286" version="1.1" xmlns="http://www.w3.org/2000/svg" xmlns:xlink="http://www.w3.org/1999/xlink">
<defs>
<clipPath id="c0_3"><path d="M122.9,352.1V317.4H152v34.7Z"/></clipPath>
<clipPath id="c1_3"><path d="M122.9,661.7V627H152v34.7Z"/></clipPath>
<clipPath id="c2_3"><path d="M122.1,352.5V316.4H153v36.1Z"/></clipPath>
<clipPath id="c3_3"><path d="M122.1,662.1V626H153v36.1Z"/></clipPath>
<style type="text/css"><![CDATA[
.g0_3{
fill: none;
stroke: #000000;
stroke-width: 0.73;
stroke-linecap: butt;
stroke-linejoin: miter;
}
.g1_3{
fill: #FFFFFF;
}
.g2_3{
fill: #868686;
}
.g3_3{
fill: #242628;
}
.g4_3{
fill: #A0A0A0;
}
.g5_3{
fill: #C4956E;
}
.g6_3{
fill: #222426;
}
.g7_3{
fill: #202126;
}
.g8_3{
fill: #252427;
}
.g9_3{
fill: #222924;
}
.ga_3{
fill: none;
stroke: #000000;
stroke-width: 1.461;
stroke-linecap: butt;
stroke-linejoin: miter;
}
.gb_3{
fill: none;
stroke: #000000;
stroke-width: 2.739;
stroke-linecap: butt;
stroke-linejoin: miter;
}
.gc_3{
fill: none;
stroke: #000000;
stroke-width: 1.515;
stroke-linecap: butt;
stroke-linejoin: miter;
}
]]></style>
</defs>
<path d="M116.9,159.9H792.5" class="g0_3"/>
<path d="M117.7,486.1v-176H791.8v176Z" class="g1_3"/>
<path d="M117.7,486.1v-176H791.8v176Z" class="ga_3"/>
<g clip-path="url(#c2_3)">
<path clip-path="url(#c0_3)" d="M125.6,352c-.1,-.1,-.1,-.3,0,-.4c0,-.1,.1,-1.2,0,-1.7c0,-.1,0,-.4,0,-.6c.2,-.9,.3,-2.2,.3,-2.3c0,0,0,-.3,.1,-.6c.1,-.4,.1,-.6,-.1,-.9c-.3,-.6,-.9,-2,-1.1,-2.8c-.4,-1.8,-.5,-4.5,-.1,-6c.3,-1.1,.5,-1.2,.9,-.5c.3,.6,.4,.4,0,-.3c-.3,-.7,-.6,-2,-.5,-2.5c0,-.1,.2,-.6,.4,-1c.2,-.5,.4,-1,.5,-1.3c.2,-.4,.5,-.7,.9,-.5c.1,0,.2,.2,.3,.3c.2,.3,.2,.2,.1,-.2c-.1,-.3,-.2,-.6,-.1,-.6c0,0,0,-.2,0,-.3c.1,-.5,1,-2.1,1.6,-2.7c.3,-.3,.6,-.6,.7,-.7c.1,-.1,.5,-.5,.8,-.7c.3,-.2,.7,-.6,.9,-.8c.4,-.4,.7,-.4,.9,-.2q.2,.2,.2,-.1c0,-.2,0,-.5,0,-.6c.1,-.2,1.5,-1.1,2.1,-1.5c.3,-.1,.6,-.3,.8,-.4c.1,-.1,.3,-.2,.4,-.2c0,0,.4,-.2,.8,-.4c.4,-.3,.9,-.5,1,-.5c.2,-.1,.6,-.3,1,-.5c1.1,-.5,1.6,-.7,2.4,-1c.5,-.2,.9,-.3,1,-.4c0,0,.1,0,.3,.2l.2,.2l.4,-.4c.6,-.5,1.6,-.8,3.8,-1.1c.9,-.2,2.2,-.3,2.8,-.4l1,-.2l.1,.3q.1,.3,-.3,.4c-2.7,1.1,-4.6,2,-5.5,2.9c-.3,.2,-.5,.4,-.5,.4c-.1,0,-1.5,1.4,-1.5,1.5c0,.1,-.1,.2,-.2,.3c-.3,.2,-.6,.8,-.5,1.1c0,.2,-.1,.3,-.4,.5c-.3,.2,-.4,.3,-.4,.4c.2,.2,0,.9,-.2,1.2c-.7,.8,-1.7,2.2,-1.9,2.9c-.1,.1,-.2,.4,-.4,.7c-.2,.3,-.4,.8,-.5,1.1q-.4,.9,-1,1c-.5,0,-1.4,.3,-1.3,.4c0,0,.4,0,.9,-.1c1.1,-.1,1.2,0,.8,.7c-.4,.8,-.7,1.7,-.7,2.1c0,.4,-.2,.9,-.6,2.3c-.1,.4,-.3,.5,-.7,.8c-.5,.2,-.6,.3,-1.2,.3q-.7,0,-.6,.2c.1,.1,-.1,.5,-.5,1.3c-.3,.6,-.7,1.2,-.8,1.4c-.2,.1,-.4,.4,-.6,.7c-.2,.3,-.4,.5,-.5,.5c0,0,-.2,.2,-.3,.4c-.6,.8,-2.7,2.6,-3,2.6l.3,-3.2c.1,.1,.4,-.1,.6,-.3c.2,-.4,.5,-.6,1.1,-.6c.5,-.1,.6,-.1,1,-.5c.2,-.2,.6,-.9,.9,-1.4l.5,-.9l-.5,-.3c-.3,-.2,-.6,-.4,-.7,-.4c-.1,-.2,.4,-1,.7,-1.1c.2,-.1,.5,-.1,.7,-.2c.2,0,.5,-.1,.7,-.2c.3,-.2,.5,-.3,.7,-.3c.6,-.1,.8,-.4,.8,-1.3c.1,-1,.2,-1.1,.5,-1.2c.4,-.2,.7,-.1,.9,.1l.1,.2l.1,-.2c.1,-.3,.1,-.4,-.1,-.4c-.1,0,-.2,0,-.3,-.2q-.1,-.3,-.6,-.4c-.6,-.2,-.7,-.3,-.5,-.6c0,-.1,0,-.2,0,-.4c-.1,-.3,.4,-.7,1,-1c.5,-.1,.6,-.2,1.1,-1.2c.3,-.6,.8,-1.3,1,-1.5c.2,-.2,.5,-.5,.6,-.6c.1,-.2,.2,-.3,.4,-.3c.2,0,.4,0,.5,-.1c.2,-.2,.9,-1.2,.8,-1.2c0,0,-.2,.1,-.5,.2c-.7,.3,-1.8,.3,-2,-.1c-.2,-.3,.4,-1.1,.9,-1.2c.1,0,1.1,-.5,1.5,-.8c.1,-.1,.3,-.4,.5,-.8c.3,-.7,.8,-1.3,1.2,-1.4c.5,-.2,.7,-.3,.9,-.8c.2,-.4,.1,-.7,-.4,-.9c-.1,0,-.3,-.1,-.4,-.3c0,-.1,-.1,-.2,-.2,-.2c-.3,0,-3,1.1,-4.1,1.7c-.2,.1,-.5,.3,-.7,.5c-.1,.2,-.5,.6,-.9,.9c-.4,.3,-.9,.7,-1,1c-.1,.2,-.4,.6,-.7,.8c-.4,.4,-.4,.5,-.4,1.2c-.1,.5,0,1,.1,1.2c.3,.7,.2,1.1,-.3,1.1c-.5,-.1,-.8,-.4,-1.3,-1.6c-.3,-.5,-.6,-1,-.6,-1c-.2,0,-.8,.7,-1.1,1.3c-.2,.5,-.3,.6,-.7,.8c-.5,.1,-.5,.2,-.7,.7c-.1,.3,-.1,.6,-.1,.7c.1,.2,.1,.3,.1,.3c-.1,.4,-.1,.9,.1,1.3c.2,.3,.3,.6,.3,.8c0,.2,.1,.5,.3,.9c.3,.6,.3,.7,.2,1.2c-.1,.3,-.1,.6,-.1,.7c-.1,.4,-.4,.3,-1.1,-.3c-.5,-.4,-1.2,-1.2,-2,-2.3c-.3,-.4,-.4,-.4,-.3,-.1c0,.1,-.1,.5,-.2,.8c-.2,.7,-.1,1.4,.2,1.8c.2,.2,.8,1.8,.9,2.2c0,.2,0,.4,.1,.5c.1,.2,.1,1,-.1,1.3c0,.1,0,.3,0,.4c0,.1,-.1,.3,-.2,.3c-.2,0,-.7,-.4,-1,-.7c-.1,-.1,-.3,-.3,-.4,-.5l-.3,-.3l-.1,.2c-.1,.3,0,.7,.1,1.2c.3,.8,.4,2.3,.2,2.9c0,.2,-.2,.4,-.4,.5c-.4,.3,-.3,.5,.4,1.5l.4,.5l.1,-.3c.1,-.2,.2,-.6,.3,-1c.1,-.3,.2,-.8,.3,-1c.1,-.2,.2,-.5,.3,-.8q.1,-.5,2.3,-5.3c1,-2,1,-2.1,1.9,-3.3c.7,-1.1,1.3,-2.1,1.9,-3c.8,-1.4,.9,-1.6,1.4,-2.2c.3,-.3,.7,-.8,.9,-1c.9,-1.2,1.1,-1.5,1.3,-1.4c.1,.1,.2,.1,.2,.2c0,0,-.2,.4,-.5,.8c-.3,.4,-.8,1.1,-1,1.5c-.9,1.5,-2.1,3.4,-2.5,4c-.2,.3,-.5,.8,-.6,1c-.1,.2,-.4,.6,-.5,.8c-.2,.3,-.3,.6,-.3,.7c-.1,.4,-.2,.8,-1.2,2.6c-.8,1.6,-1,2,-1.7,3.7c-.5,1.1,-.8,2.2,-.7,2.4l-.3,3.2c-.3,0,-.5,1.8,-.2,3c.1,.7,.1,1,-.2,1.2c-.6,.4,-1.1,1.1,-1.3,1.7c-.1,.3,-.2,.5,-.4,.5c-.1,0,-.2,0,-.3,-.1Z" class="g2_3"/>
<path d="M133.1,338.4c-.1,0,-.3,-.1,-.3,0q-.2,0,0,.1c0,0,.2,.1,.3,.1c.2,0,.2,-.1,0,-.2Z" class="g1_3"/>
<path d="M144.5,319.4q0,-.1,-.1,-.1c-.1,0,-.1,.1,-.2,.1c0,.1,0,.2,.1,.1c.1,0,.2,0,.2,-.1Z" class="g1_3"/>
<path d="M125.7,352c-.1,0,-.1,-.1,-.1,-.3c.1,-.1,.1,-.9,.1,-1.7c0,-1.4,.1,-2.1,.4,-3.5l.1,-.6l-.5,-1c-.2,-.5,-.5,-1.2,-.6,-1.6c-.1,-.4,-.3,-.8,-.3,-1c-.2,-.7,-.3,-2.8,-.3,-3.9c.1,-1.1,.5,-2.6,.7,-2.6c.1,.1,.2,.2,.5,.6c.4,.8,.6,.7,.2,-.1c-.4,-.8,-.7,-1.9,-.7,-2.5c0,-.4,.5,-1.9,.9,-2.7c.2,-.3,.3,-.5,.5,-.5q.3,0,.9,.9l.5,.7l-.4,-.8c-.5,-1.1,-.4,-1.6,.3,-2.9c.3,-.5,.6,-1,.7,-1.1c.1,0,.4,-.4,.6,-.6c.3,-.3,.8,-.8,1.2,-1c.3,-.3,.7,-.7,.9,-.9c.4,-.4,.7,-.4,1,.2l.2,.4l-.1,-.5c-.1,-.8,0,-1,.8,-1.6c.5,-.3,.9,-.6,1,-.6c0,0,.1,0,.1,-.1c0,-.1,.1,-.1,.3,-.1q.2,0,.2,.1q-.1,.1,-.2,.2c-.1,0,-.4,.2,-.7,.5c-.4,.3,-.8,.6,-.9,.7c-.2,.1,-.3,.2,-.3,.6c.1,.3,.1,.7,.2,.9c.1,.4,.1,1,0,1c-.2,0,-.4,-.3,-.7,-.9l-.3,-.6l-.4,.2c-.1,.2,-.3,.3,-.3,.3c-.1,.1,-.3,.3,-.6,.5c-.3,.2,-.6,.5,-.7,.6c-.1,.1,-.3,.4,-.6,.6c-.6,.6,-1.6,2.2,-1.5,2.5c.1,.4,1,2.3,1.7,3.5c.5,.9,.6,1.1,.4,1c-.2,0,-1.2,-.7,-1.6,-1.3c-.3,-.4,-.6,-.8,-.8,-.9c-.1,-.2,-.3,-.5,-.4,-.7c-.2,-.4,-.4,-.4,-.6,0c-.3,.5,-.8,2.1,-.9,2.5c-.1,.7,.6,2.6,1.5,3.8c.7,1,.7,1.2,-.1,.8c-.3,-.3,-1.2,-1.3,-1.5,-1.7c0,-.1,-.1,-.1,-.1,-.1c-.2,0,-.4,1.1,-.4,1.7c0,.4,0,.7,-.1,.9c0,.1,0,.7,.1,1.3c.1,.6,.1,1.3,.1,1.5c.1,.6,1,3,1.2,3V345c0,0,.1,-.5,.3,-1.1c.2,-.6,.3,-1.2,.4,-1.4c0,-.3,.1,-.5,.1,-.6c.1,-.1,.2,-.3,.3,-.6c.1,-.6,.2,-.9,1.1,-2.7c.3,-.6,.7,-1.4,.9,-1.9c.8,-1.7,1.6,-3.2,2.2,-4.2c.7,-1,1.1,-1.7,1.9,-3c.2,-.4,.6,-.9,.7,-1.1c.2,-.2,.3,-.4,.3,-.5c.1,-.1,.3,-.4,.6,-.7c.2,-.3,.6,-.8,.8,-1c.9,-1.3,1.1,-1.4,1.2,-1.3c.2,.1,.2,.2,-.6,1.2c-.2,.2,-.6,.8,-.8,1.2c-.8,1.3,-2.1,3.4,-2.4,3.8c-.6,.9,-1.5,2.5,-1.5,2.8c0,.1,-.5,1.3,-1.2,2.6c-.7,1.3,-1.3,2.7,-1.5,3.1c-.1,.4,-.3,.8,-.3,.8c-.1,.1,-.5,1.3,-.6,1.8c0,.2,-.1,.7,-.1,1c-.2,.7,-.3,2,-.3,2c0,.1,.1,0,.3,-.1c.1,-.1,.3,-.3,.6,-.5c.2,-.1,.5,-.4,.8,-.7c.2,-.2,.4,-.4,.5,-.5c.6,-.6,.9,-.9,1.2,-1.4c.3,-.3,.6,-.7,.7,-.8c.3,-.3,1.2,-2,1.2,-2.1c-.1,-.1,-.4,-.3,-.9,-.5c-.9,-.5,-1,-.6,-.8,-.8c.1,0,1,.1,1.8,.3c.2,0,.7,.1,1,0c.9,0,1.4,-.4,1.6,-1c.1,-.3,.2,-.6,.2,-.8c.1,-.3,.3,-1,.3,-1.5c.1,-.5,.4,-1.3,.6,-1.6l.2,-.3h-.5c-.5,.1,-1.6,-.2,-1.7,-.3c-.1,-.2,.7,-.6,1.6,-.8l.8,-.2l.2,-.6c.2,-.3,.3,-.7,.4,-.9c0,-.1,.1,-.3,.2,-.4c.1,-.1,.3,-.4,.4,-.6c.1,-.3,.3,-.7,.5,-.9c1.3,-2,1.5,-2.3,1.4,-2.3c-.1,0,-.4,.1,-.6,.2c-.7,.3,-1.5,.3,-1.5,0c0,-.2,1.8,-1.3,2.7,-1.5c.4,-.1,.4,-.2,.4,-.6c0,-.2,.2,-.6,.3,-.8c.1,-.1,.3,-.4,.4,-.6c.3,-.6,2.2,-2.2,3.2,-2.9c.7,-.4,1.8,-.9,2.7,-1.3l.7,-.3l-1.6,.2c-2.6,.3,-3.7,.7,-4.4,1.5c-.3,.3,-.4,.4,-.5,.1c-.1,-.2,.6,-.9,1.2,-1.2c.6,-.2,1.7,-.5,2.4,-.6c.4,0,1.5,-.2,2.5,-.3c1.5,-.3,1.8,-.3,1.9,-.2c.4,.1,.3,.3,-.2,.5c-1.1,.4,-2.2,.9,-2.9,1.2c-.7,.4,-2,1.1,-2.2,1.3c-.1,.1,-.3,.3,-.5,.5c-1,.7,-1.7,1.4,-1.9,1.8c-.1,.1,-.3,.4,-.4,.5c-.1,.2,-.3,.5,-.3,.7c0,.3,-.1,.5,-.4,.7c-.2,.1,-.5,.3,-.6,.3h-.2l.2,.1c.4,0,.5,.2,.3,.4c0,.1,-.1,.2,-.1,.3c.1,.1,-.1,.4,-.4,.6c-.2,.3,-.5,.7,-.6,.8c-.1,.2,-.3,.5,-.4,.8c-.4,.4,-.6,.9,-.7,1.1c0,.1,-.2,.4,-.4,.7c-.2,.6,-.4,.9,-.7,1.7c-.1,.3,-.2,.3,-.7,.4c-.7,.1,-1.5,.4,-1.4,.5c0,0,.4,0,.9,-.1c.8,-.1,.9,-.1,1,.1c.1,.1,.1,.3,-.2,.7c-.3,.5,-.7,1.6,-.7,2.1c0,.3,-.3,1.3,-.6,2.2c-.1,.3,-.2,.5,-.6,.7c-.5,.3,-.6,.3,-1.2,.3c-.4,0,-.9,0,-1,-.1c-.2,0,-.5,-.1,-.8,-.1l-.6,-.1l.5,.2c.3,.1,.6,.2,.7,.2q.5,.1,.6,.2c.1,.1,-.9,2,-1.3,2.5c-.2,.2,-.5,.6,-.6,.8c-.2,.2,-.4,.5,-.5,.6c-.2,.1,-.4,.4,-.6,.6c-.4,.4,-1.3,1.3,-1.7,1.6c-.1,.1,-.4,.3,-.5,.4c-.1,.1,-.3,.3,-.5,.3c-.2,.1,-.3,.2,-.3,.5c-.1,.4,-.1,1.8,-.1,2c0,.1,.1,.5,.1,.9c.1,.5,.1,.6,-.2,.8c-.4,.4,-1,1.2,-1.2,1.8c-.2,.3,-.3,.5,-.3,.5c-.1,0,-.2,0,-.3,-.1Z" class="g3_3"/>
<path d="M128.2,331.6q-.1,-.1,-.1,0c-.1,.1,0,.3,.1,.3c.1,0,.1,-.1,0,-.3Z" class="g3_3"/>
<path d="M139.7,325.8c.2,-.1,.5,-.3,.7,-.4l.2,-.2h-.3c-.5,.1,-1.4,.6,-1.4,.7c0,.2,.3,.1,.8,-.1Z" class="g4_3"/>
<path d="M139.7,325.7c.4,-.2,.6,-.4,.2,-.2c-.3,.1,-.9,.4,-.7,.4c0,0,.3,-.1,.5,-.2Z" class="g1_3"/>
<path d="M134.9,322.5c0,-.1,.6,-.5,.7,-.5c.2,.1,.2,.2,-.1,.3c-.1,.1,-.3,.2,-.4,.2q-.1,0,-.2,0Z" class="g3_3"/>
<path d="M136.2,321.8c.1,-.1,.2,-.2,.3,-.2q.2,-.1,.1,.1c-.1,.1,-.2,.2,-.3,.2q-.2,0,-.1,-.1Z" class="g3_3"/>
<path d="M137.1,321.2c.1,-.1,.6,-.2,.7,-.1c0,0,-.5,.3,-.7,.3q-.1,0,0,-.2Z" class="g3_3"/>
<path d="M137.9,320.9c0,-.1,.8,-.5,1.3,-.6c.3,-.1,.6,-.2,.7,-.3c.4,-.3,1.9,-.8,2.1,-.8c.2,.2,.1,.4,-.2,.4c-.5,.1,-1.7,.5,-3,1.1c-.6,.3,-.8,.3,-.9,.2Z" class="g3_3"/>
<path d="M125.7,352c0,-.1,0,-.2,0,-.3c0,-.1,.1,-.6,.1,-1.2c0,-1.3,0,-1.9,.4,-4l.1,-.7l-.6,-1c-.3,-.6,-.5,-1.2,-.6,-1.6c-.1,-.3,-.2,-.7,-.2,-.9c-.3,-1.1,-.4,-4.2,-.1,-5.2c.1,-.4,.2,-.8,.2,-.9c.1,-.4,.2,-.4,.7,.3c.6,1,.9,1,.3,-.1c-.4,-.7,-.8,-2,-.8,-2.6c0,-.4,.6,-1.9,1,-2.7c.1,-.3,.3,-.4,.4,-.4c.2,-.1,.3,0,.5,.4c.5,.6,.6,.8,.5,.8c-.1,0,-.3,-.2,-.4,-.4c-.4,-.8,-.6,-.6,-1.2,.8c-.7,1.9,-.6,2.4,.7,4.7c.5,.9,.8,1.6,.7,1.6c-.2,.1,-1.4,-1.1,-1.7,-1.7c-.1,-.1,-.2,-.2,-.3,-.2q-.1,-.1,-.2,.1c-.3,.8,-.4,2.5,-.2,4c0,.5,.1,1.1,.1,1.3c0,.6,1,3.2,1.2,3.2c.1,0,.1,-.2,.1,-.3c0,-.1,.1,-.7,.3,-1.3c.2,-.6,.3,-1.2,.4,-1.3c0,-.2,0,-.4,.1,-.4c.1,0,.4,-1.1,.4,-1.2c0,0,.1,-.3,.2,-.6c.9,-1.8,1.3,-2.7,1.6,-3.5c.8,-1.6,1.6,-3.2,2.3,-4.2c.7,-1.1,1.3,-2.1,1.9,-3c.2,-.4,.5,-.9,.7,-1.1c.1,-.1,.3,-.3,.3,-.4c0,-.2,.6,-.8,.9,-1.2c.1,0,.3,-.3,.5,-.5c.6,-1,1,-1.4,1.1,-1.4c.1,.1,.1,0,-.6,1c-.2,.4,-.7,1,-.9,1.4c-.8,1.4,-2,3.4,-2.3,3.7c-.6,.8,-1.6,2.7,-1.6,2.9c0,.2,-.5,1.3,-1.2,2.6c-.6,1.2,-1.3,2.6,-1.4,3c-.2,.4,-.4,1,-.6,1.4c-.2,.6,-.4,1.4,-.4,1.8c0,.1,-.1,.4,-.1,.6c-.1,.3,-.2,.8,-.2,1.2c-.1,.6,-.1,.8,.1,.8c.1,0,.2,-.1,.2,-.1c.1,-.1,.3,-.3,.6,-.5c.3,-.2,.5,-.5,.6,-.6c0,0,.3,-.3,.5,-.4c.7,-.7,1.1,-1.1,1.5,-1.7c.3,-.4,.6,-.7,.7,-.8c.2,-.2,1.1,-1.8,1.1,-2.1c0,-.1,-.1,-.2,-.6,-.4c-.7,-.4,-.6,-.5,.1,-.2c.3,.2,.6,.2,.7,.2c.4,-.1,.3,.3,-.2,1.3c-.3,.6,-.7,1.2,-.9,1.4c-.1,.2,-.4,.5,-.6,.8c-.2,.2,-.4,.5,-.5,.6c-.1,.1,-.3,.3,-.5,.5c-.1,.2,-.4,.4,-.6,.6c-.2,.2,-.5,.4,-.6,.6c-.1,.1,-.3,.2,-.3,.2c-.1,.1,-.3,.2,-.5,.4c-.2,.2,-.5,.4,-.7,.5c-.2,0,-.3,.2,-.3,.7c-.1,.3,-.1,.6,-.1,.7c0,0,0,.3,0,.5c0,.3,.1,.7,.1,1c.2,.8,.1,1.1,-.1,1.3c-.4,.2,-1.1,1.2,-1.3,1.7c-.2,.5,-.3,.6,-.5,.5Z" class="g5_3"/>
<path d="M134,338.5c-.4,-.1,-.8,-.1,-1,-.2c-.2,-.1,-.4,-.1,-.5,-.1c-.1,0,-.3,0,-.4,-.1c-.1,0,-.3,0,-.4,0c-.1,0,-.2,0,-.3,0c-.1,-.3,.3,-.3,1.8,0c1.4,.3,2.5,-.1,2.7,-.9c0,-.3,.1,-.6,.2,-.9c.1,-.2,.2,-.5,.2,-.7c.1,-.4,.1,-.8,.3,-1.6c.1,-.3,.2,-.6,.4,-.8c.1,-.2,.2,-.3,.1,-.4c0,0,-.2,0,-.4,0c-.4,.1,-1.6,-.1,-1.7,-.2c-.1,-.3,.8,-.7,2,-.9c.3,0,.4,-.1,.6,-.7c.6,-1.4,1.6,-3.2,2.9,-4.9c.1,-.1,.1,-.3,0,-.3c0,0,-.3,.1,-.7,.2c-.6,.3,-1.3,.3,-1.4,.2c0,-.1,0,-.2,.1,-.2q.2,-.1,.2,0c.1,.1,.1,.2,.2,.2c.2,0,1.2,-.5,1.5,-.7c.3,-.3,.6,-.3,.6,-.2c.1,.1,-.1,.9,-.2,1c-.2,.1,-.5,.5,-.7,.9c-.1,.1,-.4,.5,-.6,.8c-.3,.5,-.5,.8,-.6,1.2c-.1,.1,-.3,.4,-.4,.7c-.3,.6,-.6,1.1,-.8,1.7c-.1,.2,-.2,.3,-.7,.4c-.8,.1,-1.6,.4,-1.4,.6c0,0,.4,0,1,-.1c.8,-.1,.9,-.1,1,0c0,.1,-.1,.4,-.3,.7c-.3,.6,-.6,1.5,-.7,2.1c0,.2,-.1,.6,-.2,.9c-.1,.3,-.2,.7,-.2,.8c-.1,.6,-.4,1,-.8,1.2c-.6,.3,-.7,.3,-1.4,.3Z" class="g5_3"/>
<path d="M129.6,334.1c-.2,-.1,-.4,-.2,-.5,-.3c-.3,-.3,-1,-1.1,-1,-1.2c0,0,.1,0,.1,0c.1,0,.5,.3,.6,.5c.1,.1,.2,.2,.2,.2c.1,-.1,.1,-.2,-.1,-.4c-.1,-.1,-.3,-.5,-.4,-.7c-.1,-.3,-.4,-.9,-.6,-1.4c-.3,-.5,-.5,-1,-.5,-1.1c0,-.1,.2,-.6,.5,-1.1c.6,-1,1.6,-2.2,2.5,-2.8c.4,-.2,.8,-.6,.9,-.8c.4,-.5,.6,-.5,.9,.3q.3,.5,.4,.4c.1,0,.2,0,.2,0c0,0,.1,.2,.1,.4c.1,.6,-.1,.5,-.6,-.4c-.4,-.7,-.5,-.8,-.7,-.5c-.1,.2,-.7,.6,-1.1,.9c-.7,.5,-1.8,1.8,-2.5,2.9l-.4,.7l.7,1.4c.7,1.5,1.1,2.2,1.5,2.8c.2,.4,.2,.5,-.2,.2Z" class="g5_3"/>
<path d="M128.1,332.1c-.1,0,0,-.1,0,-.1q.1,0,.2,.1c0,.1,0,.2,0,.2c-.1,0,-.2,-.1,-.2,-.2Z" class="g5_3"/>
<path d="M127.6,331.2c-.3,-.6,-.2,-.8,0,-.5c.2,.2,.4,.8,.3,.9c-.1,.1,-.2,-.1,-.3,-.4Z" class="g5_3"/>
<path d="M140.1,325c.5,-.3,1.1,-.4,1.2,-.3c.1,.1,-.1,.2,-.8,.4c-.8,.2,-.9,.2,-.4,-.1Z" class="g5_3"/>
<path d="M141.5,324.5c0,0,0,-.2,0,-.4c0,-.5,.7,-1.7,1.3,-2.2c1.8,-1.7,3.9,-3.1,5.7,-3.6c.6,-.2,.6,-.3,-.1,-.2c-.3,0,-1.3,.2,-2.2,.3c-1,.2,-1.9,.3,-2.1,.4c-.4,.1,-1.2,.6,-1.5,.9c-.2,.3,-.3,.3,-.4,.2c-.1,-.2,.9,-1,1.4,-1.2c1.1,-.3,1.4,-.4,2.1,-.5c.4,0,1.6,-.2,2.6,-.4c1.8,-.3,2,-.3,2.1,0c0,.1,-.3,.2,-.7,.4c-2.5,.9,-4.4,1.9,-5.3,2.7c-.2,.2,-.4,.4,-.4,.4c-.1,0,-.2,.1,-.3,.2c-.1,.1,-.3,.3,-.6,.5c-.2,.3,-.5,.6,-.6,.8c-.1,.2,-.3,.4,-.5,.6c-.1,.1,-.2,.4,-.3,.6c0,.4,-.1,.6,-.2,.5Z" class="g5_3"/>
<path d="M132.6,325c-.1,-.1,-.2,-.7,-.1,-.9c0,-.1,.3,-.4,.6,-.6c.3,-.2,.7,-.4,.8,-.5l.2,-.1l-.1,.2c-.2,.2,-1,.9,-1.2,1c-.1,.1,-.2,.2,-.2,.4c0,.1,0,.4,0,.5c.1,.2,0,.2,0,0Z" class="g5_3"/>
<path d="M141.5,319.4c.2,-.1,.5,-.2,.5,0c0,0,-.1,.1,-.3,.1q-.4,.1,-.2,-.1Z" class="g5_3"/>
<path d="M125.7,352c0,-.1,0,-.2,0,-.3c0,-.1,.1,-.6,.1,-1.2c0,-1.3,0,-1.8,.4,-4.2c.1,-.5,0,-.5,-.5,-1.5c-.3,-.6,-.5,-1.2,-.6,-1.6c-.1,-.3,-.2,-.7,-.2,-.9c-.3,-1.1,-.4,-4.2,-.1,-5.2c.1,-.4,.2,-.8,.2,-.9c.1,-.4,.2,-.4,.7,.3c.6,1,.9,1,.3,-.1c-.4,-.7,-.8,-2,-.8,-2.6c0,-.4,.6,-1.9,1,-2.7c.1,-.3,.3,-.4,.4,-.4c.2,-.1,.3,0,.5,.4c.5,.6,.6,.8,.5,.8c-.1,0,-.3,-.2,-.4,-.4c-.4,-.8,-.6,-.6,-1.2,.8c-.7,1.9,-.6,2.4,.7,4.7c.5,.9,.8,1.6,.7,1.6c-.2,.1,-1.4,-1.1,-1.7,-1.7c-.1,-.1,-.2,-.2,-.3,-.2q-.1,-.1,-.2,.1c-.3,.8,-.4,2.5,-.2,4c0,.5,.1,1.1,.1,1.3c0,.6,1,3.2,1.2,3.2c.1,0,.1,-.2,.1,-.3c0,-.1,.1,-.7,.3,-1.3c.2,-.6,.3,-1.2,.4,-1.3c0,-.2,0,-.4,.1,-.4c.1,0,.4,-1.1,.4,-1.2c0,0,.1,-.3,.2,-.6c.9,-1.8,1.3,-2.7,1.6,-3.5c.8,-1.6,1.6,-3.2,2.3,-4.2c.7,-1.1,1.3,-2.1,1.9,-3c.2,-.4,.5,-.9,.7,-1.1c.1,-.1,.3,-.3,.3,-.4c0,-.2,.6,-.8,.9,-1.2c.1,0,.3,-.3,.5,-.5c.6,-1,1,-1.4,1.1,-1.4c.1,.1,.1,0,-.7,1.2c-1.5,1.9,-2.3,3.2,-3.6,5.4c-.3,.3,-.7,1,-1,1.5c-.4,.5,-.5,.8,-.4,.8c.4,0,.3,.4,-.8,2.6c-.7,1.3,-1.4,2.7,-1.5,3.1c-.2,.4,-.4,1,-.6,1.4c-.2,.6,-.4,1.4,-.4,1.8c0,.1,-.1,.4,-.1,.6c-.1,.3,-.2,.8,-.2,1.2c-.1,.6,-.1,.8,.1,.8c.1,0,.2,-.1,.2,-.1c.1,-.1,.3,-.3,.6,-.5c.3,-.2,.5,-.5,.6,-.6c0,0,.3,-.3,.5,-.4c.7,-.7,1.1,-1.1,1.5,-1.7c.3,-.4,.6,-.7,.7,-.8c.2,-.2,1.1,-1.8,1.1,-2.1c0,-.1,-.1,-.2,-.6,-.4c-.7,-.4,-.6,-.5,.1,-.2c.3,.2,.6,.2,.7,.2c.4,-.1,.3,.3,-.2,1.3c-.3,.6,-.7,1.2,-.9,1.4c-.1,.2,-.4,.5,-.6,.8c-.2,.2,-.4,.5,-.5,.6c-.1,.1,-.3,.3,-.5,.5c-.1,.2,-.4,.4,-.6,.6c-.2,.2,-.5,.4,-.6,.6c-.1,.1,-.3,.2,-.3,.2c-.1,.1,-.3,.2,-.5,.4c-.2,.2,-.5,.4,-.7,.5c-.2,0,-.3,.2,-.3,.7c-.1,.3,-.1,.6,-.1,.7c0,0,0,.3,0,.5c0,.3,.1,.7,.1,1c.2,.8,.1,1.1,-.1,1.3c-.4,.2,-1.1,1.2,-1.3,1.7c-.2,.5,-.3,.6,-.5,.5Z" class="g6_3"/>
<path d="M134,338.5c-.4,-.1,-.8,-.1,-1,-.2c-.2,-.1,-.4,-.1,-.5,-.1c-.1,0,-.3,0,-.4,-.1c-.1,0,-.3,0,-.4,0c-.1,0,-.2,0,-.3,0c-.1,-.3,.3,-.3,1.8,0c1.4,.3,2.5,-.1,2.7,-.9c0,-.3,.1,-.6,.2,-.9c.1,-.2,.2,-.5,.2,-.7c.1,-.4,.1,-.8,.3,-1.6c.1,-.3,.2,-.6,.4,-.8c.1,-.2,.2,-.3,.1,-.4c0,0,-.2,0,-.4,0c-.4,.1,-1.6,-.1,-1.7,-.2c-.1,-.3,.8,-.7,2,-.9c.3,0,.4,-.1,.6,-.7c.6,-1.4,1.6,-3.2,2.9,-4.9c.1,-.1,.1,-.3,0,-.3c0,0,-.3,.1,-.7,.2c-.6,.3,-1.3,.3,-1.4,.2c0,-.1,0,-.2,.1,-.2q.2,-.1,.2,0c.1,.1,.1,.2,.2,.2c.2,0,1.2,-.5,1.5,-.7c.3,-.3,.6,-.3,.6,-.2c.1,.1,-.1,.9,-.2,1c-.2,.1,-.5,.5,-.7,.9c-.1,.1,-.4,.5,-.6,.8c-.3,.5,-.5,.8,-.6,1.2c-.1,.1,-.3,.4,-.4,.7c-.3,.6,-.6,1.1,-.8,1.7c-.1,.2,-.2,.3,-.7,.4c-.8,.1,-1.6,.4,-1.4,.6c0,0,.4,0,1,-.1c.8,-.1,.9,-.1,1,0c0,.1,-.1,.4,-.3,.7c-.3,.6,-.6,1.5,-.7,2.1c0,.2,-.1,.6,-.2,.9c-.1,.3,-.2,.7,-.2,.8c-.1,.6,-.4,1,-.8,1.2c-.6,.3,-.7,.3,-1.4,.3Z" class="g6_3"/>
<path d="M129.6,334.1c-.2,-.1,-.4,-.2,-.5,-.3c-.3,-.3,-1,-1.1,-1,-1.2c0,0,.1,0,.1,0c.1,0,.5,.3,.6,.5c.1,.1,.2,.2,.2,.2c.1,-.1,.1,-.2,-.1,-.4c-.1,-.1,-.3,-.5,-.4,-.7c-.1,-.3,-.4,-.9,-.6,-1.4c-.3,-.5,-.5,-1,-.5,-1.1c0,-.1,.2,-.6,.5,-1.1c.6,-1,1.6,-2.2,2.5,-2.8c.4,-.2,.8,-.6,.9,-.8c.4,-.5,.6,-.5,.9,.3q.3,.5,.4,.4c.1,0,.2,0,.2,0c0,0,.1,.2,.1,.4c.1,.6,-.1,.5,-.6,-.4c-.4,-.7,-.5,-.8,-.7,-.5c-.1,.2,-.7,.6,-1.1,.9c-.7,.5,-1.8,1.8,-2.5,2.9l-.4,.7l.7,1.4c.7,1.5,1.1,2.2,1.5,2.8c.2,.4,.2,.5,-.2,.2Z" class="g6_3"/>
<path d="M128.1,332.1c-.1,0,0,-.1,0,-.1q.1,0,.2,.1c0,.1,0,.2,0,.2c-.1,0,-.2,-.1,-.2,-.2Z" class="g6_3"/>
<path d="M127.6,331.2c-.3,-.6,-.2,-.8,0,-.5c.2,.2,.4,.8,.3,.9c-.1,.1,-.2,-.1,-.3,-.4Z" class="g6_3"/>
<path d="M140.1,325c.5,-.3,1.1,-.4,1.2,-.3c.1,.1,-.1,.2,-.8,.4c-.8,.2,-.9,.2,-.4,-.1Z" class="g6_3"/>
<path d="M141.5,324.5c0,0,0,-.2,0,-.4c0,-.5,.7,-1.7,1.3,-2.2c1.8,-1.7,3.9,-3.1,5.7,-3.6c.6,-.2,.6,-.3,-.1,-.2c-.3,0,-1.3,.2,-2.2,.3c-1,.2,-1.9,.3,-2.1,.4c-.4,.1,-1.2,.6,-1.5,.9c-.2,.3,-.3,.3,-.4,.2c-.1,-.2,.9,-1,1.4,-1.2c1.1,-.3,1.4,-.4,2.1,-.5c.4,0,1.6,-.2,2.6,-.4c1.8,-.3,2,-.3,2.1,0c0,.1,-.3,.2,-.7,.4c-2.5,.9,-4.4,1.9,-5.3,2.7c-.2,.2,-.4,.4,-.4,.4c-.1,0,-.2,.1,-.3,.2c-.1,.1,-.3,.3,-.6,.5c-.2,.3,-.5,.6,-.6,.8c-.1,.2,-.3,.4,-.5,.6c-.1,.1,-.2,.4,-.3,.6c0,.4,-.1,.6,-.2,.5Z" class="g6_3"/>
<path d="M132.6,325c-.1,-.1,-.2,-.7,-.1,-.9c0,-.1,.3,-.4,.6,-.6c.3,-.2,.7,-.4,.8,-.5l.2,-.1l-.1,.2c-.2,.2,-1,.9,-1.2,1c-.1,.1,-.2,.2,-.2,.4c0,.1,0,.4,0,.5c.1,.2,0,.2,0,0Z" class="g6_3"/>
<path d="M141.5,319.4c.2,-.1,.5,-.2,.5,0c0,0,-.1,.1,-.3,.1q-.4,.1,-.2,-.1Z" class="g6_3"/>
<path d="M127.2,349.6c.1,-.1,.1,-.2,.1,-.5c-.1,-.3,-.1,-.9,-.1,-1.5c0,-.5,0,-1,0,-1c0,0,0,-.2,0,-.3c0,-.1,.1,-.5,.1,-.8c.1,-1.3,.1,-1.6,.5,-3.1c0,-.2,.1,-.6,.1,-.7c.2,-1,1.2,-3.2,2.4,-5.5c.6,-1.3,.9,-2,.9,-2.1c0,0,-.3,.5,-.6,1.1c-.3,.6,-.7,1.4,-.9,1.7c-.9,1.8,-1.9,4.1,-2,4.6c0,.2,-.2,.5,-.3,.8c0,.2,-.1,.5,-.1,.5c.1,.1,-.3,1.3,-.5,1.8c0,.2,-.1,.6,-.1,.8c-.1,.3,-.2,.7,-.2,1c-.3,1,-.5,2.7,-.3,2.9c0,.1,.2,.2,.4,.3c.4,.1,.3,.1,.6,0Z" class="g5_3"/>
<path d="M124.9,342.4c-.1,-.3,-.3,-2.1,-.3,-3.2c0,-.8,.1,-1.6,.2,-2.2c.1,-.4,.2,-.8,.2,-.9c.1,-.3,.3,-.2,.6,.3c.1,.2,.4,.6,.6,.8l.3,.4l-.1,-.4c-.1,-.2,-.3,-.7,-.5,-1.1c-.4,-.9,-.7,-2.2,-.6,-2.7c.1,-.4,.6,-1.6,.9,-2.3c.2,-.5,.6,-.6,.8,-.3c0,.1,0,.2,-.2,.2c-.2,0,-.3,.1,-.4,.5c-.7,1.3,-.9,2.3,-.9,2.9c.1,.2,.3,.9,.5,1.5c.4,.8,.5,1.1,1,1.7c.3,.5,.5,.9,.5,.9c0,.2,-.6,-.2,-.9,-.5c-.1,-.1,-.2,-.3,-.4,-.4c-.1,-.2,-.4,-.5,-.6,-.7l-.3,-.5l-.1,.2c-.4,1,-.5,2.6,-.3,4.4c.1,1.2,.1,1.6,0,1.4Z" class="g7_3"/>
<path d="M133.7,338.4c-.2,0,-.4,0,-.6,-.1c-.2,-.1,-.4,-.1,-.5,-.1c-.2,0,-.8,-.2,-.8,-.2c0,-.1,.5,0,1,.1c1.3,.2,2,.2,2.5,-.2c.4,-.3,.5,-.5,.8,-1.2c.2,-1.1,.3,-1.2,.3,-1.7c.1,-.6,.2,-1,.6,-1.7c.1,-.2,.2,-.5,.2,-.5c0,-.1,-.2,0,-.5,0c-.3,.1,-.5,.1,-1.1,0l-.6,-.2l.1,-.2c.2,-.2,.8,-.5,1.6,-.6l.7,-.1l.3,-.7c.5,-1.4,1.6,-3.2,2.4,-4.4c.3,-.4,.5,-.7,.4,-.8q0,-.1,-.7,.2q-.7,.3,-.7,.2c0,-.1,.2,-.1,.3,-.2c.2,0,.5,-.2,.8,-.4c.4,-.3,.7,-.4,.8,-.3c.2,.1,-.1,.8,-.5,1.2c-.7,.8,-2,3.1,-2.6,4.5c-.1,.3,-.2,.6,-.3,.7c0,.1,-.2,.2,-.3,.2c-.8,.1,-1,.1,-1.4,.3q-.5,.2,-.3,.4c0,0,.3,0,1,-.1c.7,-.1,.9,-.1,.9,0c.1,.1,-.1,.5,-.3,.8c-.4,.8,-.6,1.5,-.6,2c0,.2,-.1,.7,-.2,1c-.2,.4,-.2,.7,-.2,.8c0,0,-.1,.2,-.2,.4c-.3,.7,-1.2,1,-2.3,.9Z" class="g7_3"/>
<path d="M131.5,338h.1c0,-.1,.1,0,.1,0l-.1,.1l-.1,-.1Z" class="g7_3"/>
<path d="M129.3,333.9c-.6,-.5,-1.3,-1.4,-.9,-1.1c.1,0,.3,.2,.3,.2c.1,.2,.4,.4,.5,.3c0,-.1,.5,.4,.6,.7c.1,.2,.1,.3,.1,.3c0,0,-.3,-.2,-.6,-.4Z" class="g7_3"/>
<path d="M128.8,332.8c0,-.1,-.2,-.3,-.2,-.5c-.1,-.3,-.4,-.9,-.6,-1.4c-.3,-.5,-.5,-1,-.6,-1.1c0,-.2,.8,-1.9,1.2,-2.2c.1,-.1,.4,-.5,.7,-.8c.3,-.3,.6,-.6,.8,-.7c.6,-.5,.9,-.7,1.3,-1.1c.2,-.2,.4,-.3,.5,-.3c.2,0,.2,.3,0,.3c0,0,-.4,.2,-.7,.5c-.4,.3,-.7,.5,-.7,.5c-.2,.1,-.4,.3,-.9,.9c-.3,.3,-.5,.6,-.6,.6c0,0,-.9,1.3,-1.2,1.7c-.2,.5,-.2,.6,.4,1.9c.8,1.5,.9,1.9,.6,1.7Z" class="g7_3"/>
<path d="M127.2,331.5c-.1,-.2,-.1,-.3,0,-.2c.1,0,.2,.1,.3,.2c0,.2,0,.3,0,.3c-.1,0,-.2,-.1,-.3,-.3Z" class="g7_3"/>
<path d="M127.6,331.2c0,-.1,-.1,-.3,-.2,-.4c0,-.1,0,-.2,0,-.2c.1,0,.5,.5,.5,.8c0,.2,-.2,.1,-.3,-.2Z" class="g7_3"/>
<path d="M138.4,326.1c0,0,.1,0,.2,-.1c.1,0,.1,.1,.2,.1c0,.1,-.1,.1,-.2,.1c-.1,0,-.2,0,-.2,-.1Z" class="g7_3"/>
<path d="M132.5,326.2c-.1,-.3,.1,-.5,.3,-.2c.1,.2,.1,.4,0,.4c-.1,0,-.2,0,-.3,-.2Z" class="g7_3"/>
<path d="M140.3,325c-.1,-.1,.8,-.4,.9,-.3c.1,0,.1,.1,0,.2c-.3,.1,-.9,.2,-.9,.1Z" class="g7_3"/>
<path d="M132.2,325.6c-.1,-.1,-.1,-.2,0,-.2q0,-.1,.1,0c0,.1,0,.2,0,.2q-.1,0,-.1,0Z" class="g7_3"/>
<path d="M141.6,324.5c-.1,-.2,0,-1,.2,-1.2c.1,-.1,.3,-.4,.4,-.7c.2,-.2,.4,-.5,.5,-.6c.1,-.1,.3,-.2,.4,-.3c.4,-.5,2,-1.7,2.8,-2.2c.8,-.4,1.9,-.9,2.8,-1.3c.6,-.2,.6,-.3,0,-.2c-.3,0,-1.3,.2,-2.2,.3c-1.7,.3,-2,.3,-2.4,.5c-.4,.1,-1.2,.6,-1.5,.9c-.1,.1,-.2,.2,-.3,.2c-.2,0,.8,-1,1.2,-1.1c.7,-.3,1.8,-.5,2.4,-.6c.4,0,1.5,-.2,2.4,-.4c.9,-.1,1.8,-.2,1.8,-.2c.3,0,.3,.3,0,.4c-1.4,.5,-2.5,1,-3.3,1.4c-.8,.4,-1.7,.9,-2,1.1c0,.1,-.2,.2,-.4,.4c-1,.9,-1.8,1.6,-2,1.9c-.1,.2,-.2,.3,-.3,.4c-.1,0,-.4,.7,-.4,1c0,.2,-.1,.4,-.1,.3Z" class="g7_3"/>
<path d="M132.6,324.1c-.1,-.1,.6,-.6,1,-.8c.3,-.2,.2,-.1,-.2,.3c-.4,.4,-.7,.6,-.8,.5Z" class="g7_3"/>
<path d="M141.7,319.5q-.1,-.1,0,-.2c.1,0,.3,0,.2,.1c0,.1,-.1,.1,-.2,.1Z" class="g7_3"/>
<path d="M125.9,345.1c-.1,0,-.1,-.1,0,-.2c0,0,.1,.1,.1,.2c.1,.1,.1,.2,.1,.2c-.1,0,-.2,-.1,-.2,-.2Z" class="g8_3"/>
<path d="M129,344.6c0,0,0,-.1,.1,-.1q.2,-.1,.2,0c-.1,.2,-.4,.2,-.3,.1Z" class="g8_3"/>
<path d="M125.7,344.6c-.1,-.1,-.1,-.2,0,-.2c0,0,.1,.1,.1,.2q0,.2,-.1,0Z" class="g8_3"/>
<path d="M129.5,344.1c0,0,.2,-.2,.4,-.4c.2,-.1,.5,-.4,.5,-.5c.2,-.3,.4,-.4,.4,-.2c0,.1,-1,1.1,-1.2,1.2q-.1,0,-.1,-.1Z" class="g8_3"/>
<path d="M125.4,343.9c-.1,-.1,-.1,-.3,-.1,-.4q0,-.1,.1,.1c0,.1,.1,.2,.1,.3q0,.2,-.1,0Z" class="g8_3"/>
<path d="M131.2,342.3c.2,-.3,1,-1.2,1.1,-1.4q.1,0,.2,0c0,.1,-.1,.2,-.2,.4c-.2,.1,-.5,.5,-.7,.8c-.5,.6,-.8,.8,-.4,.2Z" class="g8_3"/>
<path d="M124.8,341.9c0,-.1,0,-.2,0,-.2q.1,0,.2,.1c0,0,0,.1,0,.1c-.1,.1,-.1,0,-.2,0Z" class="g8_3"/>
<path d="M132.5,340.7c0,-.3,.6,-1.2,.7,-1.2c.1,.1,-.6,1.3,-.7,1.3v-.1Z" class="g8_3"/>
<path d="M124.8,341.2c-.1,0,-.1,-.2,-.1,-.3c.1,-.2,.2,0,.2,.2c0,.2,-.1,.2,-.1,.1Z" class="g8_3"/>
<path d="M124.7,340.6c0,-.2,0,-.3,0,-.3c.1,-.2,.1,0,.1,.3v.2Z" class="g8_3"/>
<path d="M133.2,339.3c0,-.1,0,-.3,-.1,-.4c-.1,-.1,0,-.1,.1,-.2c.4,0,.5,.1,.2,.5q-.1,.2,-.2,.1Z" class="g8_3"/>
<path d="M124.6,339.4c0,-.2,.1,-.9,.1,-.9c.1,.1,.1,.5,0,.8c0,.1,-.1,.2,-.1,.1Z" class="g8_3"/>
<path d="M134,338.4c-.3,0,-.6,0,-.7,-.1q-.2,-.1,.1,0c.1,0,.5,0,.9,0c.5,0,.6,-.1,1,-.4c.3,-.1,.5,-.4,.6,-.6c.2,-.4,.2,-.3,.1,.2c-.1,.3,-.3,.4,-.7,.6c-.5,.3,-.6,.3,-1.3,.3Z" class="g8_3"/>
<path d="M132.4,338.1c-.4,0,-.4,-.1,0,-.1c.1,0,.2,.1,.2,.1q.1,.1,.1,.1c-.1,0,-.2,0,-.3,-.1Z" class="g8_3"/>
<path d="M127,338.3c-.3,-.2,-.5,-.5,-.4,-.6c.1,0,0,-.1,-.1,-.3c-.3,-.6,-1,-2.2,-1,-2.4c0,-.1,.1,.1,.3,.5c.2,.4,.6,1.2,1,1.8c.3,.7,.6,1.2,.6,1.2c-.1,0,-.2,-.1,-.4,-.2Z" class="g8_3"/>
<path d="M124.7,338.1c-.1,-.1,0,-.8,.2,-.9c0,-.1,0,.1,0,.2c0,.5,-.1,.8,-.2,.7Z" class="g8_3"/>
<path d="M136.1,336.6c0,-.1,.1,-.2,.1,-.3q.1,-.1,.1,.1c0,.1,-.1,.2,-.1,.3q-.1,.1,-.1,-.1Z" class="g8_3"/>
<path d="M126.2,337.4q-.1,-.1,0,-.1c0,.1,.1,.2,.1,.2q0,.1,-.1,-.1Z" class="g8_3"/>
<path d="M124.9,337c0,-.1,0,-.2,.1,-.4c0,-.1,.1,-.3,.1,-.5c0,-.3,.3,-.2,.4,.3c0,.1,0,.2,0,.1c-.1,-.1,-.4,-.1,-.4,0c.1,.1,-.1,.6,-.2,.5Z" class="g8_3"/>
<path d="M136.3,335.9c0,0,.1,-.1,.1,-.3q.1,-.3,.1,.1c0,.2,-.1,.4,-.2,.2Z" class="g8_3"/>
<path d="M136.5,334.7c0,-.1,0,-.2,.1,-.3c0,0,.1,0,0,.2c0,.1,0,.2,0,.2q-.1,0,-.1,-.1Z" class="g8_3"/>
<path d="M136.7,334.2c-.1,-.2,.1,-.7,.3,-1c.2,-.2,.2,-.4,.2,-.4c-.1,-.1,-.3,-.1,-.7,0c-.7,.1,-.8,-.1,-.1,-.2c.4,0,.8,-.1,.9,-.1c.3,-.1,.3,.1,-.1,.9c-.3,.4,-.5,.8,-.5,.8Z" class="g8_3"/>
<path d="M129.5,334c-.1,-.1,-.3,-.2,-.5,-.3c-.3,-.3,-.7,-.9,-.5,-.8c.1,0,.2,.1,.2,.2c.1,.1,.3,.2,.4,.3c.2,.1,.4,.2,.6,.5c.3,.3,.2,.4,-.2,.1Z" class="g8_3"/>
<path d="M125.3,334.1c0,-.2,0,-.4,0,-.5c.1,-.4,.6,-1.7,.7,-1.7c.1,-.1,.1,.1,-.2,.8c-.1,.4,-.3,1,-.3,1.2q-.1,.4,-.2,.2Z" class="g8_3"/>
<path d="M135.4,332.7c-.2,-.1,-.3,-.1,-.3,-.2c-.1,-.1,.7,-.5,1,-.5c.3,0,.2,.1,-.2,.2c-.5,.1,-.6,.3,-.4,.4q.2,.1,-.1,.1Z" class="g8_3"/>
<path d="M128.8,332.6c-.1,-.1,-.1,-.2,-.2,-.4q0,-.2,.1,0c0,.1,.1,.3,.1,.4q.1,.2,0,0Z" class="g8_3"/>
<path d="M136.9,331.8c.1,0,.2,0,.3,0c.1,.1,0,.1,-.2,.1q-.3,0,-.1,-.1Z" class="g8_3"/>
<path d="M137.5,331.5c.1,-.2,.2,-.3,.2,-.3c.1,-.1,-.1,.5,-.2,.6c0,0,0,-.1,0,-.3Z" class="g8_3"/>
<path d="M128.4,331.7c-.1,-.1,-.2,-.2,-.1,-.3q0,-.1,.1,.1q.2,.3,0,.2Z" class="g8_3"/>
<path d="M137.9,330.7c0,-.2,.1,-.2,.2,-.2c.1,0,-.1,.4,-.2,.4c-.1,0,-.1,-.1,0,-.2Z" class="g8_3"/>
<path d="M127.3,331.5q-.1,-.1,0,-.1q.2,.1,.1,.2q0,.1,-.1,-.1Z" class="g8_3"/>
<path d="M126,331.6c-.1,-.1,.5,-.9,.7,-.9c.3,0,.3,.2,.1,.3c-.2,0,-.4,.2,-.5,.3c-.1,.4,-.2,.4,-.3,.3Z" class="g8_3"/>
<path d="M127.6,331.1c-.1,-.2,-.1,-.4,-.1,-.4c.1,-.1,.4,.4,.3,.6q0,.1,-.2,-.2Z" class="g8_3"/>
<path d="M138,330.2c0,-.1,.2,-.5,.3,-.5c.1,0,.1,-.1,.2,-.3c.1,-.4,1,-1.8,2,-3.3c.1,-.2,.1,-.3,0,-.4c-.1,-.1,-.1,-.2,.1,-.3c.1,-.1,.2,-.1,.3,-.1c.2,.1,0,.8,-.2,.9c-.3,.3,-1.4,2,-1.7,2.5c-.6,1.2,-.9,1.7,-1,1.5Z" class="g8_3"/>
<path d="M127.9,330.7q-.1,-.1,0,-.2c0,0,.1,.1,.1,.1q0,.1,0,.2c0,0,-.1,0,-.1,-.1Z" class="g8_3"/>
<path d="M127.5,330.1c0,-.1,0,-.2,0,-.3c0,-.1,0,0,.1,.2c.1,.1,.2,.2,.1,.2c0,0,-.1,0,-.2,-.1Z" class="g8_3"/>
<path d="M127.7,329.3c-.1,-.1,0,-.4,.1,-.4c.1,.1,.1,.2,0,.3c0,.1,-.1,.2,-.1,.1Z" class="g8_3"/>
<path d="M128,328.5c0,-.1,.1,-.3,.3,-.4c.1,-.1,.2,-.3,.2,-.4c.1,0,.1,-.1,.2,-.1c.1,0,0,.2,-.4,.6c-.2,.3,-.3,.4,-.3,.3Z" class="g8_3"/>
<path d="M129,327.2c.3,-.3,.8,-.9,.8,-.8c.1,0,-.4,.6,-.7,.9l-.2,.2Z" class="g8_3"/>
<path d="M132.7,326.4c-.2,-.1,-.2,-.5,-.1,-.5c.1,0,.3,.4,.2,.5c0,0,-.1,0,-.1,0Z" class="g8_3"/>
<path d="M136.3,325.9c.1,-.1,.2,-.2,.3,-.3c0,0,0,.1,-.1,.3c-.1,.1,-.2,.2,-.3,.2c0,0,0,-.1,.1,-.2Z" class="g8_3"/>
<path d="M130.6,325.8c.1,-.1,.2,-.2,.3,-.2c.1,0,-.2,.3,-.4,.4c-.1,0,0,-.1,.1,-.2Z" class="g8_3"/>
<path d="M140.7,324.9c-.1,0,0,-.1,.1,-.1c.2,-.1,.4,-.1,.4,0c0,.1,-.4,.2,-.5,.1Z" class="g8_3"/>
<path d="M131.3,325.1c.2,-.3,.5,-.5,.6,-.3c.1,.1,-.2,.3,-.7,.6c0,0,0,-.1,.1,-.3Z" class="g8_3"/>
<path d="M141.6,323.7c0,0,.1,-.1,.1,-.3c.1,-.1,.2,-.1,.2,-.1c0,0,0,.2,-.1,.3c-.1,.1,-.1,.2,-.2,.1Z" class="g8_3"/>
<path d="M142.2,322.8c.2,-.5,.8,-1.1,2.4,-2.3c.8,-.7,2.6,-1.7,3.6,-2c1,-.4,1.1,-.5,1.1,-.6c-.2,-.2,.7,-.5,.9,-.2c.2,.1,.1,.3,-.1,.3c-.1,0,-.5,.1,-.8,.3c-.4,.1,-1,.4,-1.3,.5c-1.1,.4,-1.9,.8,-2.4,1.2c-.2,.2,-.5,.3,-.6,.4c-.1,0,-.4,.2,-.5,.4c-.2,.2,-.4,.3,-.4,.3c0,0,-.2,.1,-.4,.3c-1.1,1,-1.3,1.3,-1.3,1.5c0,.1,-.1,.2,-.2,.2c-.1,0,-.1,-.1,0,-.3Z" class="g8_3"/>
<path d="M133,323.8q0,-.1,.1,-.1c0,0,.1,0,0,0q0,.1,-.1,.1Z" class="g8_3"/>
<path d="M142.3,319.8c0,0,0,-.1,.1,-.1c.1,-.1,.2,-.1,.2,-.1c0,0,0,.1,-.1,.2c-.1,0,-.2,.1,-.2,0Z" class="g8_3"/>
<path d="M143,319.1c.1,-.2,.5,-.3,.5,-.2c.1,0,-.3,.3,-.5,.4c-.2,.1,-.2,0,0,-.2Z" class="g8_3"/>
<path d="M144.6,318.5c.1,-.1,.2,-.1,.3,-.1q.1,0,0,.1c-.1,0,-.2,.1,-.3,.1c-.1,0,-.1,-.1,0,-.1Z" class="g8_3"/>
<path d="M145.2,318.3c.1,0,.4,-.1,.9,-.1c.6,-.1,.9,-.1,.9,0c0,0,-.4,.1,-.9,.2c-.6,0,-.9,0,-.9,-.1Z" class="g8_3"/>
<path d="M147.1,318.1c.1,0,.4,-.1,.9,-.1c.5,-.1,.7,-.1,.6,-.1c-.3,.2,-1.5,.3,-1.5,.2Z" class="g8_3"/>
<path d="M125.8,351.9c0,0,0,-.3,0,-.7c0,-.4,0,-.7,0,-.8c0,0,0,-.8,0,-.9q.1,-.2,.5,0c.9,.5,1.2,.3,1,-.7c-.1,-1,.1,-1.1,.3,-.2c.1,.8,.1,.9,-.2,1.1c-.6,.5,-1.5,1.9,-1.4,2.2c.1,0,0,0,-.1,0c0,.1,-.1,0,-.1,0Z" class="g9_3"/>
<path d="M127.3,347.8c0,0,0,-.7,.1,-.7c.1,-.1,.1,0,.1,.4c-.1,.4,-.1,.5,-.2,.3Z" class="g9_3"/>
<path d="M127.3,346.6c0,0,0,-.3,0,-.5c0,-.3,.1,-.8,.1,-1.1c.1,-1,.5,-3.2,.7,-3.2c0,0,0,.1,0,.2c0,.2,-.1,.4,-.1,.6c0,.1,-.1,.4,-.1,.6c-.2,.7,-.3,2,-.1,2.2c0,.1,0,.2,-.1,.2c0,0,-.1,.3,-.2,.5c0,.5,-.1,.7,-.2,.5Z" class="g9_3"/>
<path d="M126.3,346.3c-.1,0,-.1,-.1,0,-.2c0,0,0,-.2,0,-.3c-.1,-.2,.2,-.7,.3,-.5c0,.1,-.2,1.1,-.3,1.1c0,0,0,-.1,0,-.1Z" class="g9_3"/>
<path d="M125.9,345.1c-.1,0,-.1,-.1,0,-.2c0,0,.1,.1,.1,.2c.1,.1,.1,.2,.1,.2c-.1,0,-.2,-.1,-.2,-.2Z" class="g9_3"/>
<path d="M126.5,345c0,0,0,-.4,.2,-.8c.1,-.4,.2,-1,.3,-1.4c.1,-.4,.2,-.7,.3,-.8c.1,-.1,.1,0,0,.3c0,.3,-.1,.5,-.1,.6c-.1,.8,-.6,2.3,-.7,2.1Z" class="g9_3"/>
<path d="M129,344.6c0,0,0,-.1,.1,-.1q.2,-.1,.2,0c-.1,.2,-.4,.2,-.3,.1Z" class="g9_3"/>
<path d="M125.7,344.6c-.1,-.1,-.1,-.2,0,-.2c0,0,.1,.1,.1,.2q0,.2,-.1,0Z" class="g9_3"/>
<path d="M129.5,344.1c0,0,.2,-.2,.4,-.4c.2,-.1,.5,-.4,.5,-.5c.2,-.3,.4,-.4,.4,-.2c0,.1,-1,1.1,-1.2,1.2q-.1,0,-.1,-.1Z" class="g9_3"/>
<path d="M125.4,343.9c-.1,-.1,-.1,-.3,-.1,-.4q0,-.1,.1,.1c0,.1,.1,.2,.1,.3q0,.2,-.1,0Z" class="g9_3"/>
<path d="M131.2,342.3c.2,-.3,1,-1.2,1.1,-1.4q.1,0,.2,0c0,.1,-.1,.2,-.2,.4c-.2,.1,-.5,.5,-.7,.8c-.5,.6,-.8,.8,-.4,.2Z" class="g9_3"/>
<path d="M124.8,341.9c0,-.1,0,-.2,0,-.2q.1,0,.2,.1c0,0,0,.1,0,.1c-.1,.1,-.1,0,-.2,0Z" class="g9_3"/>
<path d="M128.1,341.6c0,-.5,1.5,-4,2.7,-6.2c.2,-.4,.5,-.9,.5,-1.1c0,-.3,.2,-.5,.3,-.3c.1,.1,-.2,.8,-1.3,2.7c-.5,1.1,-1,2.2,-1.2,2.6c-.2,.5,-.6,1.5,-.9,2.1c-.1,.2,-.1,.3,-.1,.2Z" class="g9_3"/>
<path d="M127.5,341.3c0,0,0,-.1,.1,-.1c0,-.1,.1,0,.1,0q0,.1,0,.1q-.1,0,-.2,0Z" class="g9_3"/>
<path d="M132.5,340.7c0,-.3,.6,-1.2,.7,-1.2c.1,.1,-.6,1.3,-.7,1.3v-.1Z" class="g9_3"/>
<path d="M124.8,341.2c-.1,0,-.1,-.2,-.1,-.3c.1,-.2,.2,0,.2,.2c0,.2,-.1,.2,-.1,.1Z" class="g9_3"/>
<path d="M127.6,340.7c0,0,0,-.1,.1,-.1q.1,0,.1,0c.1,.1,-.1,.2,-.2,.1Z" class="g9_3"/>
<path d="M124.7,340.6c0,-.2,0,-.3,0,-.3c.1,-.2,.1,0,.1,.3v.2Z" class="g9_3"/>
<path d="M127.9,340.3c-.1,0,.3,-.7,.4,-.6c0,0,-.1,.1,-.2,.3c-.1,.3,-.2,.4,-.2,.3Z" class="g9_3"/>
<path d="M133.2,339.3c0,-.1,0,-.3,-.1,-.4c-.1,-.1,0,-.1,.1,-.2c.4,0,.5,.1,.2,.5q-.1,.2,-.2,.1Z" class="g9_3"/>
<path d="M128.3,339.5c0,-.1,.2,-.6,.5,-1.2c.3,-.5,.4,-.7,.3,-.4c-.2,.5,-.9,1.9,-.8,1.6Z" class="g9_3"/>
<path d="M124.6,339.4c0,-.2,.1,-.9,.1,-.9c.1,.1,.1,.5,0,.8c0,.1,-.1,.2,-.1,.1Z" class="g9_3"/>
<path d="M134,338.4c-.3,0,-.6,0,-.7,-.1q-.2,-.1,.1,0c.1,0,.5,0,.9,0c.5,0,.6,-.1,1,-.4c.3,-.1,.5,-.4,.6,-.6c.2,-.4,.2,-.3,.1,.2c-.1,.3,-.3,.4,-.7,.6c-.5,.3,-.6,.3,-1.3,.3Z" class="g9_3"/>
<path d="M132.4,338.1c-.4,0,-.4,-.1,0,-.1c.1,0,.2,.1,.2,.1q.1,.1,.1,.1c-.1,0,-.2,0,-.3,-.1Z" class="g9_3"/>
<path d="M127,338.3c-.3,-.2,-.5,-.5,-.4,-.6c.1,0,0,-.1,-.1,-.3c-.3,-.6,-1,-2.2,-1,-2.4c0,-.1,.1,.1,.3,.5c.2,.4,.6,1.2,1,1.8c.3,.7,.6,1.2,.6,1.2c-.1,0,-.2,-.1,-.4,-.2Z" class="g9_3"/>
<path d="M124.7,338.1c-.1,-.1,0,-.8,.2,-.9c0,-.1,0,.1,0,.2c0,.5,-.1,.8,-.2,.7Z" class="g9_3"/>
<path d="M136.1,336.6c0,-.1,.1,-.2,.1,-.3q.1,-.1,.1,.1c0,.1,-.1,.2,-.1,.3q-.1,.1,-.1,-.1Z" class="g9_3"/>
<path d="M126.2,337.4q-.1,-.1,0,-.1c0,.1,.1,.2,.1,.2q0,.1,-.1,-.1Z" class="g9_3"/>
<path d="M129.3,337.1c.1,-.2,.2,-.3,.2,-.3c.1,.1,0,.3,-.1,.4q-.2,.1,-.1,-.1Z" class="g9_3"/>
<path d="M129.8,336.1c.1,-.3,.3,-.6,.3,-.6c0,0,.2,-.4,.5,-.9c.2,-.6,.6,-1.2,.7,-1.4c.2,-.2,.5,-.8,.8,-1.2c.4,-.7,.6,-1,.7,-.8c0,.1,-.2,.4,-1,1.5c-.2,.4,-.5,.9,-.7,1.2c-.1,.2,-.3,.7,-.5,1.1c-.2,.4,-.5,1,-.6,1.2c-.3,.7,-.5,.6,-.2,-.1Z" class="g9_3"/>
<path d="M124.9,337c0,-.1,0,-.2,.1,-.4c0,-.1,.1,-.3,.1,-.5c0,-.3,.3,-.2,.4,.3c0,.1,0,.2,0,.1c-.1,-.1,-.4,-.1,-.4,0c.1,.1,-.1,.6,-.2,.5Z" class="g9_3"/>
<path d="M136.3,335.9c0,0,.1,-.1,.1,-.3q.1,-.3,.1,.1c0,.2,-.1,.4,-.2,.2Z" class="g9_3"/>
<path d="M136.5,334.7c0,-.1,0,-.2,.1,-.3c0,0,.1,0,0,.2c0,.1,0,.2,0,.2q-.1,0,-.1,-.1Z" class="g9_3"/>
<path d="M136.7,334.2c-.1,-.2,.1,-.7,.3,-1c.2,-.2,.2,-.4,.2,-.4c-.1,-.1,-.3,-.1,-.7,0c-.7,.1,-.8,-.1,-.1,-.2c.4,0,.8,-.1,.9,-.1c.3,-.1,.3,.1,-.1,.9c-.3,.4,-.5,.8,-.5,.8Z" class="g9_3"/>
<path d="M129.5,334c-.1,-.1,-.3,-.2,-.5,-.3c-.3,-.3,-.7,-.9,-.5,-.8c.1,0,.2,.1,.2,.2c.1,.1,.3,.2,.4,.3c.2,.1,.4,.2,.6,.5c.3,.3,.2,.4,-.2,.1Z" class="g9_3"/>
<path d="M125.3,334.1c0,-.2,0,-.4,0,-.5c.1,-.4,.6,-1.7,.7,-1.7c.1,-.1,.1,.1,-.2,.8c-.1,.4,-.3,1,-.3,1.2q-.1,.4,-.2,.2Z" class="g9_3"/>
<path d="M135.4,332.7c-.2,-.1,-.3,-.1,-.3,-.2c-.1,-.1,.7,-.5,1,-.5c.3,0,.2,.1,-.2,.2c-.5,.1,-.6,.3,-.4,.4q.2,.1,-.1,.1Z" class="g9_3"/>
<path d="M128.8,332.6c-.1,-.1,-.1,-.2,-.2,-.4q0,-.2,.1,0c0,.1,.1,.3,.1,.4q.1,.2,0,0Z" class="g9_3"/>
<path d="M136.9,331.8c.1,0,.2,0,.3,0c.1,.1,0,.1,-.2,.1q-.3,0,-.1,-.1Z" class="g9_3"/>
<path d="M137.5,331.5c.1,-.2,.2,-.3,.2,-.3c.1,-.1,-.1,.5,-.2,.6c0,0,0,-.1,0,-.3Z" class="g9_3"/>
<path d="M128.4,331.7c-.1,-.1,-.2,-.2,-.1,-.3q0,-.1,.1,.1q.2,.3,0,.2Z" class="g9_3"/>
<path d="M137.9,330.7c0,-.2,.1,-.2,.2,-.2c.1,0,-.1,.4,-.2,.4c-.1,0,-.1,-.1,0,-.2Z" class="g9_3"/>
<path d="M127.3,331.5q-.1,-.1,0,-.1q.2,.1,.1,.2q0,.1,-.1,-.1Z" class="g9_3"/>
<path d="M126,331.6c-.1,-.1,.5,-.9,.7,-.9c.3,0,.3,.2,.1,.3c-.2,0,-.4,.2,-.5,.3c-.1,.4,-.2,.4,-.3,.3Z" class="g9_3"/>
<path d="M127.6,331.1c-.1,-.2,-.1,-.4,-.1,-.4c.1,-.1,.4,.4,.3,.6q0,.1,-.2,-.2Z" class="g9_3"/>
<path d="M133,330.6c.1,-.2,.2,-.4,.3,-.4c.1,.1,-.3,.7,-.4,.7c-.1,0,0,-.1,.1,-.3Z" class="g9_3"/>
<path d="M138,330.2c0,-.1,.2,-.5,.3,-.5c.1,0,.1,-.1,.2,-.3c.1,-.4,1,-1.8,2,-3.3c.1,-.2,.1,-.3,0,-.4c-.1,-.1,-.1,-.2,.1,-.3c.1,-.1,.2,-.1,.3,-.1c.2,.1,0,.8,-.2,.9c-.3,.3,-1.4,2,-1.7,2.5c-.6,1.2,-.9,1.7,-1,1.5Z" class="g9_3"/>
<path d="M127.9,330.7q-.1,-.1,0,-.2c0,0,.1,.1,.1,.1q0,.1,0,.2c0,0,-.1,0,-.1,-.1Z" class="g9_3"/>
<path d="M133.4,330.1c0,-.1,.5,-1,.8,-1.4c.1,-.2,.3,-.5,.4,-.6c.2,-.4,.8,-1.1,.9,-1.1c0,.1,0,.2,-.1,.3c-.1,.1,-.3,.3,-.3,.4c-.1,0,-.3,.4,-.5,.7c-.3,.3,-.6,.8,-.7,1c-.3,.6,-.4,.7,-.5,.7Z" class="g9_3"/>
<path d="M127.5,330.1c0,-.1,0,-.2,0,-.3c0,-.1,0,0,.1,.2c.1,.1,.2,.2,.1,.2c0,0,-.1,0,-.2,-.1Z" class="g9_3"/>
<path d="M127.7,329.3c-.1,-.1,0,-.4,.1,-.4c.1,.1,.1,.2,0,.3c0,.1,-.1,.2,-.1,.1Z" class="g9_3"/>
<path d="M128,328.5c0,-.1,.1,-.3,.3,-.4c.1,-.1,.2,-.3,.2,-.4c.1,0,.1,-.1,.2,-.1c.1,0,0,.2,-.4,.6c-.2,.3,-.3,.4,-.3,.3Z" class="g9_3"/>
<path d="M129,327.2c.3,-.3,.8,-.9,.8,-.8c.1,0,-.4,.6,-.7,.9l-.2,.2Z" class="g9_3"/>
<path d="M135.9,326.4c.1,-.1,.2,-.2,.2,-.2c0,0,0,.1,-.1,.3l-.2,.2Z" class="g9_3"/>
<path d="M132.7,326.4c-.2,-.1,-.2,-.5,-.1,-.5c.1,0,.3,.4,.2,.5c0,0,-.1,0,-.1,0Z" class="g9_3"/>
<path d="M130.6,325.8c.1,-.1,.2,-.2,.3,-.2c.1,0,-.2,.3,-.4,.4c-.1,0,0,-.1,.1,-.2Z" class="g9_3"/>
<path d="M140.7,324.9c-.1,0,0,-.1,.1,-.1c.2,-.1,.4,-.1,.4,0c0,.1,-.4,.2,-.5,.1Z" class="g9_3"/>
<path d="M131.3,325.1c.2,-.3,.5,-.5,.6,-.3c.1,.1,-.2,.3,-.7,.6c0,0,0,-.1,.1,-.3Z" class="g9_3"/>
<path d="M141.6,323.7c0,0,.1,-.1,.1,-.3c.1,-.1,.2,-.1,.2,-.1c0,0,0,.2,-.1,.3c-.1,.1,-.1,.2,-.2,.1Z" class="g9_3"/>
<path d="M142.2,322.8c.2,-.5,.8,-1.1,2.4,-2.3c.8,-.7,2.6,-1.7,3.6,-2c1,-.4,1.1,-.5,1.1,-.6c-.2,-.2,.7,-.5,.9,-.2c.2,.1,.1,.3,-.1,.3c-.1,0,-.5,.1,-.8,.3c-.4,.1,-1,.4,-1.3,.5c-1.1,.4,-1.9,.8,-2.4,1.2c-.2,.2,-.5,.3,-.6,.4c-.1,0,-.4,.2,-.5,.4c-.2,.2,-.4,.3,-.4,.3c0,0,-.2,.1,-.4,.3c-1.1,1,-1.3,1.3,-1.3,1.5c0,.1,-.1,.2,-.2,.2c-.1,0,-.1,-.1,0,-.3Z" class="g9_3"/>
<path d="M133,323.8q0,-.1,.1,-.1c0,0,.1,0,0,0q0,.1,-.1,.1Z" class="g9_3"/>
<path d="M142.3,319.8c0,0,0,-.1,.1,-.1c.1,-.1,.2,-.1,.2,-.1c0,0,0,.1,-.1,.2c-.1,0,-.2,.1,-.2,0Z" class="g9_3"/>
<path d="M143,319.1c.1,-.2,.5,-.3,.5,-.2c.1,0,-.3,.3,-.5,.4c-.2,.1,-.2,0,0,-.2Z" class="g9_3"/>
<path d="M144.6,318.5c.1,-.1,.2,-.1,.3,-.1q.1,0,0,.1c-.1,0,-.2,.1,-.3,.1c-.1,0,-.1,-.1,0,-.1Z" class="g9_3"/>
<path d="M145.2,318.3c.1,0,.4,-.1,.9,-.1c.6,-.1,.9,-.1,.9,0c0,0,-.4,.1,-.9,.2c-.6,0,-.9,0,-.9,-.1Z" class="g9_3"/>
<path d="M147.1,318.1c.1,0,.4,-.1,.9,-.1c.5,-.1,.7,-.1,.6,-.1c-.3,.2,-1.5,.3,-1.5,.2Z" class="g9_3"/>
<path d="M128.2,331.6q-.1,-.1,-.1,0c-.1,.1,0,.3,.1,.3c.1,0,.1,-.1,0,-.3Z" class="g4_3"/>
</g>
<path d="M152.7,347H392" class="g0_3"/>
<path d="M137.6,355.3V476.7" class="gb_3"/>
<path d="M117.7,886.6V619.7H791.8V886.6Z" class="g1_3"/>
<path d="M117.7,886.6V619.7H791.8V886.6Z" class="ga_3"/>
<path d="M455.6,813.9H587.2" class="gc_3"/>
<g clip-path="url(#c3_3)">
<path clip-path="url(#c1_3)" d="M125.6,661.5c-.1,-.1,-.1,-.2,0,-.3c0,-.1,.1,-1.2,0,-1.7c0,-.2,0,-.4,0,-.6c.2,-.9,.3,-2.3,.3,-2.3c0,0,0,-.3,.1,-.6c.1,-.5,.1,-.6,-.1,-.9c-.3,-.6,-.9,-2,-1.1,-2.8c-.4,-1.8,-.5,-4.6,-.1,-6c.3,-1.1,.5,-1.2,.9,-.5c.3,.6,.4,.4,0,-.3c-.3,-.8,-.6,-2.1,-.5,-2.5c0,-.1,.2,-.6,.4,-1.1c.2,-.4,.4,-1,.5,-1.2c.2,-.5,.5,-.7,.9,-.6c.1,.1,.2,.3,.3,.4c.2,.3,.2,.2,.1,-.2c-.1,-.3,-.2,-.6,-.1,-.6c0,0,0,-.2,0,-.4c.1,-.4,1,-2,1.6,-2.6c.3,-.3,.6,-.6,.7,-.7c.1,-.2,.5,-.5,.8,-.7c.3,-.2,.7,-.6,.9,-.8c.4,-.4,.7,-.5,.9,-.2c.2,.2,.2,.1,.2,-.2c0,-.2,0,-.4,0,-.5c.1,-.2,1.5,-1.2,2.1,-1.5c.3,-.1,.6,-.3,.8,-.4c.1,-.1,.3,-.2,.4,-.2c0,0,.4,-.2,.8,-.4c.4,-.3,.9,-.5,1,-.6c.2,0,.6,-.2,1,-.4c1.1,-.5,1.6,-.7,2.4,-1c.5,-.2,.9,-.4,1,-.4c0,0,.1,0,.3,.1l.2,.2l.4,-.3c.6,-.6,1.6,-.9,3.8,-1.2c.9,-.1,2.2,-.3,2.8,-.3l1,-.2l.1,.3c.1,.2,.1,.3,-.3,.4c-2.7,1,-4.6,2,-5.5,2.9c-.3,.2,-.5,.3,-.5,.3c-.1,0,-1.5,1.5,-1.5,1.6c0,.1,-.1,.2,-.2,.3c-.3,.2,-.6,.7,-.5,1.1c0,.1,-.1,.3,-.4,.5c-.3,.2,-.4,.3,-.4,.4c.2,.1,0,.9,-.2,1.2c-.7,.7,-1.7,2.2,-1.9,2.9c-.1,.1,-.2,.4,-.4,.7c-.2,.3,-.4,.8,-.5,1.1q-.4,.9,-1,.9c-.5,.1,-1.4,.4,-1.3,.5c0,0,.4,0,.9,-.1c1.1,-.1,1.2,0,.8,.7c-.4,.7,-.7,1.7,-.7,2.1c0,.4,-.2,.9,-.6,2.3c-.1,.3,-.3,.5,-.7,.7c-.5,.3,-.6,.3,-1.2,.4q-.7,0,-.6,.2c.1,.1,-.1,.5,-.5,1.3c-.3,.6,-.7,1.2,-.8,1.3c-.2,.2,-.4,.5,-.6,.8c-.2,.3,-.4,.5,-.5,.5c0,0,-.2,.2,-.3,.3c-.6,.8,-2.7,2.6,-3,2.7l.3,-3.3c.1,.2,.4,0,.6,-.2c.2,-.4,.5,-.6,1.1,-.6c.5,-.1,.6,-.1,1,-.5c.2,-.3,.6,-.9,.9,-1.4l.5,-1l-.5,-.2c-.3,-.2,-.6,-.4,-.7,-.5c-.1,-.2,.4,-.9,.7,-1c.2,-.1,.5,-.2,.7,-.2c.2,0,.5,-.1,.7,-.3c.3,-.1,.5,-.2,.7,-.3c.6,0,.8,-.3,.8,-1.3c.1,-.9,.2,-1,.5,-1.2c.4,-.1,.7,-.1,.9,.2l.1,.2l.1,-.2c.1,-.3,.1,-.4,-.1,-.4c-.1,0,-.2,-.1,-.3,-.3q-.1,-.2,-.6,-.4c-.6,-.2,-.7,-.3,-.5,-.5c0,-.1,0,-.3,0,-.4c-.1,-.3,.4,-.7,1,-1c.5,-.2,.6,-.3,1.1,-1.2c.3,-.6,.8,-1.3,1,-1.5c.2,-.2,.5,-.5,.6,-.7c.1,-.2,.2,-.2,.4,-.2c.2,0,.4,-.1,.5,-.2c.2,-.1,.9,-1.1,.8,-1.1c0,0,-.2,.1,-.5,.2c-.7,.3,-1.8,.3,-2,-.1c-.2,-.3,.4,-1.2,.9,-1.2c.1,0,1.1,-.5,1.5,-.8c.1,-.1,.3,-.5,.5,-.8c.3,-.7,.8,-1.4,1.2,-1.5c.5,-.1,.7,-.3,.9,-.7c.2,-.4,.1,-.7,-.4,-.9c-.1,0,-.3,-.2,-.4,-.3c0,-.1,-.1,-.2,-.2,-.2c-.3,0,-3,1.1,-4.1,1.6c-.2,.2,-.5,.4,-.7,.6c-.1,.1,-.5,.5,-.9,.8c-.4,.4,-.9,.8,-1,1c-.1,.3,-.4,.7,-.7,.9c-.4,.4,-.4,.5,-.4,1.2c-.1,.5,0,1,.1,1.2c.3,.7,.2,1.1,-.3,1.1c-.5,-.1,-.8,-.4,-1.3,-1.6c-.3,-.6,-.6,-1,-.6,-1c-.2,0,-.8,.7,-1.1,1.2c-.2,.6,-.3,.7,-.7,.8c-.5,.2,-.5,.3,-.7,.8c-.1,.3,-.1,.6,-.1,.7c.1,.1,.1,.3,.1,.3c-.1,.4,-.1,.8,.1,1.3c.2,.3,.3,.6,.3,.8c0,.1,.1,.5,.3,.9c.3,.6,.3,.7,.2,1.2c-.1,.3,-.1,.6,-.1,.7c-.1,.4,-.4,.3,-1.1,-.3c-.5,-.5,-1.2,-1.2,-2,-2.3c-.3,-.4,-.4,-.5,-.3,-.1c0,.1,-.1,.5,-.2,.8c-.2,.6,-.1,1.4,.2,1.7c.2,.3,.8,1.9,.9,2.3c0,.2,0,.4,.1,.5c.1,.2,.1,1,-.1,1.3c0,.1,0,.3,0,.4c0,.1,-.1,.2,-.2,.2c-.2,.1,-.7,-.3,-1,-.6c-.1,-.1,-.3,-.4,-.4,-.5l-.3,-.3l-.1,.2c-.1,.3,0,.7,.1,1.1c.3,.8,.4,2.4,.2,3c0,.2,-.2,.4,-.4,.5c-.4,.3,-.3,.5,.4,1.4l.4,.5l.1,-.2c.1,-.2,.2,-.6,.3,-1c.1,-.3,.2,-.8,.3,-1c.1,-.2,.2,-.5,.3,-.8q.1,-.5,2.3,-5.3c1,-2,1,-2.1,1.9,-3.3c.7,-1.1,1.3,-2.1,1.9,-3c.8,-1.4,.9,-1.6,1.4,-2.2c.3,-.3,.7,-.8,.9,-1c.9,-1.2,1.1,-1.5,1.3,-1.4c.1,0,.2,.1,.2,.1c0,.1,-.2,.5,-.5,.9c-.3,.4,-.8,1.1,-1,1.5c-.9,1.5,-2.1,3.4,-2.5,4c-.2,.3,-.5,.7,-.6,1c-.1,.2,-.4,.5,-.5,.8c-.2,.3,-.3,.6,-.3,.7c-.1,.4,-.2,.8,-1.2,2.6c-.8,1.5,-1,2,-1.7,3.7c-.5,1,-.8,2.2,-.7,2.3l-.3,3.3c-.3,0,-.5,1.8,-.2,2.9c.1,.8,.1,1.1,-.2,1.3c-.6,.4,-1.1,1.1,-1.3,1.6c-.1,.4,-.2,.6,-.4,.6c-.1,0,-.2,0,-.3,-.2Z" class="g2_3"/>
<path d="M133.1,648c-.1,0,-.3,-.1,-.3,-.1c-.2,0,-.2,.1,0,.2c0,0,.2,.1,.3,0q.2,0,0,-.1Z" class="g1_3"/>
<path d="M144.5,629c0,-.1,0,-.2,-.1,-.1q-.1,0,-.2,.1q0,.1,.1,.1c.1,0,.2,-.1,.2,-.1Z" class="g1_3"/>
<path d="M125.7,661.6c-.1,-.1,-.1,-.2,-.1,-.3c.1,-.1,.1,-.9,.1,-1.7c0,-1.4,.1,-2.2,.4,-3.5l.1,-.6l-.5,-1c-.2,-.5,-.5,-1.3,-.6,-1.6c-.1,-.4,-.3,-.8,-.3,-1c-.2,-.7,-.3,-2.8,-.3,-3.9c.1,-1.1,.5,-2.6,.7,-2.6c.1,0,.2,.1,.5,.6c.4,.7,.6,.7,.2,-.1c-.4,-.8,-.7,-1.9,-.7,-2.5c0,-.4,.5,-1.9,.9,-2.7c.2,-.4,.3,-.5,.5,-.5c.3,-.1,.3,0,.9,.9l.5,.7l-.4,-.8c-.5,-1.1,-.4,-1.7,.3,-2.9c.3,-.5,.6,-1,.7,-1.1c.1,-.1,.4,-.4,.6,-.7c.3,-.3,.8,-.7,1.2,-1c.3,-.2,.7,-.6,.9,-.8c.4,-.5,.7,-.4,1,.2l.2,.3l-.1,-.4c-.1,-.8,0,-1,.8,-1.7c.5,-.3,.9,-.5,1,-.5c0,0,.1,-.1,.1,-.1c0,-.1,.1,-.1,.3,-.1q.2,0,.2,.1q-.1,.1,-.2,.1c-.1,0,-.4,.3,-.7,.6c-.4,.3,-.8,.6,-.9,.6c-.2,.2,-.3,.3,-.3,.7c.1,.3,.1,.7,.2,.9c.1,.4,.1,.9,0,1c-.2,0,-.4,-.3,-.7,-.9l-.3,-.7l-.4,.3c-.1,.1,-.3,.3,-.3,.3c-.1,.1,-.3,.3,-.6,.5c-.3,.2,-.6,.5,-.7,.6c-.1,.1,-.3,.3,-.6,.6c-.6,.6,-1.6,2.2,-1.5,2.5c.1,.3,1,2.2,1.7,3.5c.5,.9,.6,1,.4,1c-.2,0,-1.2,-.8,-1.6,-1.4c-.3,-.3,-.6,-.7,-.8,-.9c-.1,-.2,-.3,-.5,-.4,-.6c-.2,-.4,-.4,-.4,-.6,0c-.3,.4,-.8,2.1,-.9,2.4c-.1,.8,.6,2.7,1.5,3.8c.7,1,.7,1.3,-.1,.8c-.3,-.2,-1.2,-1.2,-1.5,-1.6c0,-.1,-.1,-.2,-.1,-.1c-.2,0,-.4,1,-.4,1.7c0,.3,0,.7,-.1,.8c0,.2,0,.7,.1,1.4c.1,.6,.1,1.2,.1,1.5c.1,.6,1,3,1.2,3c0,0,0,-.1,0,-.1c0,0,.1,-.5,.3,-1.1c.2,-.6,.3,-1.3,.4,-1.5c0,-.2,.1,-.4,.1,-.5c.1,-.1,.2,-.4,.3,-.6c.1,-.6,.2,-.9,1.1,-2.7c.3,-.6,.7,-1.5,.9,-2c.8,-1.6,1.6,-3.2,2.2,-4.2c.7,-1,1.1,-1.6,1.9,-2.9c.2,-.4,.6,-.9,.7,-1.1c.2,-.2,.3,-.5,.3,-.5c.1,-.1,.3,-.4,.6,-.7c.2,-.3,.6,-.8,.8,-1.1c.9,-1.2,1.1,-1.3,1.2,-1.2c.2,.1,.2,.2,-.6,1.1c-.2,.3,-.6,.9,-.8,1.3c-.8,1.3,-2.1,3.4,-2.4,3.8c-.6,.9,-1.5,2.5,-1.5,2.8c0,.1,-.5,1.3,-1.2,2.6c-.7,1.3,-1.3,2.7,-1.5,3.1c-.1,.4,-.3,.7,-.3,.8c-.1,.1,-.5,1.2,-.6,1.8c0,.2,-.1,.7,-.1,.9c-.2,.8,-.3,2,-.3,2.1c0,0,.1,0,.3,-.1c.1,-.1,.3,-.3,.6,-.5c.2,-.2,.5,-.5,.8,-.7c.2,-.2,.4,-.4,.5,-.5c.6,-.6,.9,-.9,1.2,-1.4c.3,-.4,.6,-.7,.7,-.9c.3,-.2,1.2,-2,1.2,-2.1c-.1,0,-.4,-.2,-.9,-.5c-.9,-.4,-1,-.6,-.8,-.7c.1,0,1,.1,1.8,.3c.2,0,.7,0,1,0c.9,0,1.4,-.4,1.6,-1c.1,-.3,.2,-.6,.2,-.8c.1,-.3,.3,-1,.3,-1.5c.1,-.5,.4,-1.3,.6,-1.6l.2,-.4l-.5,.1c-.5,0,-1.6,-.2,-1.7,-.4c-.1,-.2,.7,-.6,1.6,-.8l.8,-.1l.2,-.6c.2,-.3,.3,-.7,.4,-.9c0,-.1,.1,-.4,.2,-.4c.1,-.1,.3,-.4,.4,-.6c.1,-.3,.3,-.7,.5,-.9c1.3,-2,1.5,-2.3,1.4,-2.3c-.1,0,-.4,.1,-.6,.2c-.7,.3,-1.5,.3,-1.5,0c0,-.3,1.8,-1.3,2.7,-1.6c.4,0,.4,-.1,.4,-.5c0,-.3,.2,-.6,.3,-.8c.1,-.2,.3,-.5,.4,-.7c.3,-.5,2.2,-2.1,3.2,-2.8c.7,-.4,1.8,-1,2.7,-1.3l.7,-.3l-1.6,.2c-2.6,.3,-3.7,.7,-4.4,1.4c-.3,.4,-.4,.4,-.5,.2c-.1,-.2,.6,-1,1.2,-1.2c.6,-.3,1.7,-.5,2.4,-.6c.4,0,1.5,-.2,2.5,-.4c1.5,-.2,1.8,-.2,1.9,-.1c.4,.1,.3,.3,-.2,.5c-1.1,.4,-2.2,.9,-2.9,1.2c-.7,.4,-2,1.1,-2.2,1.3c-.1,0,-.3,.2,-.5,.4c-1,.8,-1.7,1.5,-1.9,1.8c-.1,.2,-.3,.5,-.4,.6c-.1,.2,-.3,.5,-.3,.7c0,.3,-.1,.5,-.4,.7c-.2,.1,-.5,.2,-.6,.2l-.2,.1h.2c.4,.1,.5,.3,.3,.5c0,.1,-.1,.2,-.1,.3c.1,.1,-.1,.3,-.4,.6c-.2,.3,-.5,.6,-.6,.8c-.1,.2,-.3,.5,-.4,.7c-.4,.5,-.6,.9,-.7,1.2c0,.1,-.2,.4,-.4,.7c-.2,.5,-.4,.9,-.7,1.7c-.1,.3,-.2,.3,-.7,.4c-.7,.1,-1.5,.4,-1.4,.5c0,0,.4,0,.9,-.1c.8,-.1,.9,-.1,1,.1c.1,.1,.1,.3,-.2,.6c-.3,.6,-.7,1.7,-.7,2.2c0,.3,-.3,1.3,-.6,2.1c-.1,.3,-.2,.5,-.6,.8c-.5,.3,-.6,.3,-1.2,.3c-.4,0,-.9,0,-1,-.1c-.2,-.1,-.5,-.1,-.8,-.2h-.6l.5,.2c.3,.1,.6,.2,.7,.2c.5,0,.5,.1,.6,.2c.1,.1,-.9,2,-1.3,2.5c-.2,.2,-.5,.6,-.6,.8c-.2,.2,-.4,.5,-.5,.6c-.2,.1,-.4,.3,-.6,.5c-.4,.5,-1.3,1.4,-1.7,1.6c-.1,.1,-.4,.3,-.5,.5c-.1,.1,-.3,.2,-.5,.3c-.2,.1,-.3,.2,-.3,.4c-.1,.5,-.1,1.9,-.1,2.1c0,.1,.1,.5,.1,.8c.1,.6,.1,.7,-.2,.9c-.4,.4,-1,1.2,-1.2,1.7c-.2,.3,-.3,.6,-.3,.6c-.1,0,-.2,-.1,-.3,-.1Z" class="g3_3"/>
<path d="M128.2,641.2q-.1,-.2,-.1,-.1c-.1,.2,0,.4,.1,.4c.1,-.1,.1,-.2,0,-.3Z" class="g3_3"/>
<path d="M139.7,635.4c.2,-.2,.5,-.3,.7,-.5l.2,-.2l-.3,.1c-.5,.1,-1.4,.6,-1.4,.7c0,.1,.3,.1,.8,-.1Z" class="g4_3"/>
<path d="M139.7,635.3c.4,-.2,.6,-.4,.2,-.3c-.3,.1,-.9,.5,-.7,.5c0,0,.3,-.1,.5,-.2Z" class="g1_3"/>
<path d="M134.9,632.1c0,-.1,.6,-.5,.7,-.5c.2,.1,.2,.2,-.1,.3c-.1,.1,-.3,.1,-.4,.2q-.1,0,-.2,0Z" class="g3_3"/>
<path d="M136.2,631.3c.1,-.1,.2,-.2,.3,-.2q.2,0,.1,.2c-.1,.1,-.2,.2,-.3,.2q-.2,0,-.1,-.2Z" class="g3_3"/>
<path d="M137.1,630.8c.1,-.1,.6,-.3,.7,-.2c0,.1,-.5,.4,-.7,.4q-.1,0,0,-.2Z" class="g3_3"/>
<path d="M137.9,630.5c0,-.1,.8,-.5,1.3,-.7c.3,0,.6,-.1,.7,-.2c.4,-.3,1.9,-.9,2.1,-.8c.2,.1,.1,.4,-.2,.4c-.5,0,-1.7,.5,-3,1.1c-.6,.3,-.8,.3,-.9,.2Z" class="g3_3"/>
<path d="M125.7,661.5c0,0,0,-.1,0,-.2c0,-.1,.1,-.6,.1,-1.2c0,-1.4,0,-1.9,.4,-4.1l.1,-.6l-.6,-1c-.3,-.7,-.5,-1.2,-.6,-1.6c-.1,-.3,-.2,-.8,-.2,-.9c-.3,-1.1,-.4,-4.2,-.1,-5.2c.1,-.4,.2,-.8,.2,-1c.1,-.4,.2,-.3,.7,.4c.6,1,.9,.9,.3,-.1c-.4,-.7,-.8,-2,-.8,-2.6c0,-.4,.6,-1.9,1,-2.7c.1,-.3,.3,-.4,.4,-.5c.2,0,.3,.1,.5,.4c.5,.6,.6,.9,.5,.9c-.1,0,-.3,-.2,-.4,-.5c-.4,-.7,-.6,-.6,-1.2,.9c-.7,1.8,-.6,2.4,.7,4.7c.5,.9,.8,1.5,.7,1.5c-.2,.1,-1.4,-1,-1.7,-1.6c-.1,-.1,-.2,-.2,-.3,-.3c-.1,-.1,-.1,0,-.2,.1c-.3,.9,-.4,2.6,-.2,4.1c0,.5,.1,1.1,.1,1.3c0,.6,1,3.2,1.2,3.1c.1,0,.1,-.1,.1,-.2c0,-.2,.1,-.7,.3,-1.3c.2,-.6,.3,-1.2,.4,-1.4c0,-.1,0,-.3,.1,-.3c.1,0,.4,-1.1,.4,-1.2c0,0,.1,-.3,.2,-.6c.9,-1.9,1.3,-2.8,1.6,-3.5c.8,-1.6,1.6,-3.2,2.3,-4.2c.7,-1.2,1.3,-2.1,1.9,-3.1c.2,-.3,.5,-.8,.7,-1c.1,-.2,.3,-.4,.3,-.5c0,-.1,.6,-.7,.9,-1.1c.1,-.1,.3,-.3,.5,-.6c.6,-.9,1,-1.3,1.1,-1.3c.1,.1,.1,0,-.6,.9c-.2,.4,-.7,1.1,-.9,1.5c-.8,1.4,-2,3.3,-2.3,3.7c-.6,.7,-1.6,2.6,-1.6,2.9c0,.1,-.5,1.3,-1.2,2.6c-.6,1.2,-1.3,2.6,-1.4,3c-.2,.4,-.4,1,-.6,1.4c-.2,.6,-.4,1.4,-.4,1.8c0,.1,-.1,.4,-.1,.6c-.1,.3,-.2,.8,-.2,1.2c-.1,.6,-.1,.7,.1,.7c.1,.1,.2,0,.2,-.1c.1,0,.3,-.3,.6,-.5c.3,-.2,.5,-.4,.6,-.5c0,-.1,.3,-.3,.5,-.5c.7,-.6,1.1,-1,1.5,-1.6c.3,-.4,.6,-.7,.7,-.8c.2,-.2,1.1,-1.9,1.1,-2.1c0,-.1,-.1,-.2,-.6,-.5c-.7,-.3,-.6,-.4,.1,-.1c.3,.1,.6,.2,.7,.2c.4,-.1,.3,.2,-.2,1.3c-.3,.6,-.7,1.2,-.9,1.4c-.1,.1,-.4,.5,-.6,.7c-.2,.3,-.4,.6,-.5,.7c-.1,.1,-.3,.3,-.5,.4c-.1,.2,-.4,.5,-.6,.7c-.2,.2,-.5,.4,-.6,.6c-.1,.1,-.3,.2,-.3,.2c-.1,0,-.3,.2,-.5,.4c-.2,.2,-.5,.4,-.7,.4c-.2,.1,-.3,.3,-.3,.7c-.1,.4,-.1,.7,-.1,.7c0,.1,0,.3,0,.6c0,.3,.1,.7,.1,.9c.2,.9,.1,1.2,-.1,1.4c-.4,.2,-1.1,1.2,-1.3,1.7c-.2,.5,-.3,.6,-.5,.4Z" class="g5_3"/>
<path d="M134,648c-.4,0,-.8,-.1,-1,-.1c-.2,-.1,-.4,-.1,-.5,-.1c-.1,0,-.3,0,-.4,-.1c-.1,-.1,-.3,-.1,-.4,0c-.1,0,-.2,0,-.3,-.1c-.1,-.2,.3,-.2,1.8,.1c1.4,.3,2.5,-.1,2.7,-1c0,-.2,.1,-.6,.2,-.8c.1,-.2,.2,-.6,.2,-.8c.1,-.3,.1,-.8,.3,-1.6c.1,-.2,.2,-.6,.4,-.7c.1,-.2,.2,-.4,.1,-.4c0,0,-.2,0,-.4,0c-.4,.1,-1.6,-.1,-1.7,-.3c-.1,-.2,.8,-.6,2,-.8c.3,0,.4,-.1,.6,-.7c.6,-1.4,1.6,-3.2,2.9,-4.9c.1,-.2,.1,-.3,0,-.3c0,0,-.3,0,-.7,.2c-.6,.2,-1.3,.3,-1.4,.1c0,0,0,-.1,.1,-.2q.2,0,.2,.1c.1,.1,.1,.2,.2,.2c.2,-.1,1.2,-.5,1.5,-.7c.3,-.3,.6,-.4,.6,-.2c.1,.1,-.1,.8,-.2,1c-.2,.1,-.5,.5,-.7,.9c-.1,.1,-.4,.4,-.6,.7c-.3,.6,-.5,.9,-.6,1.3c-.1,.1,-.3,.4,-.4,.7c-.3,.5,-.6,1.1,-.8,1.7c-.1,.2,-.2,.2,-.7,.3c-.8,.2,-1.6,.5,-1.4,.6c0,.1,.4,.1,1,0c.8,-.1,.9,-.1,1,0c0,.1,-.1,.4,-.3,.6c-.3,.6,-.6,1.6,-.7,2.2c0,.2,-.1,.6,-.2,.9c-.1,.3,-.2,.7,-.2,.8c-.1,.6,-.4,.9,-.8,1.1c-.6,.4,-.7,.4,-1.4,.3Z" class="g5_3"/>
<path d="M129.6,643.7c-.2,-.1,-.4,-.3,-.5,-.4c-.3,-.2,-1,-1,-1,-1.1c0,0,.1,-.1,.1,-.1c.1,0,.5,.4,.6,.6c.1,.1,.2,.1,.2,.1c.1,0,.1,-.1,-.1,-.3c-.1,-.2,-.3,-.5,-.4,-.8c-.1,-.2,-.4,-.8,-.6,-1.3c-.3,-.5,-.5,-1,-.5,-1.1c0,-.1,.2,-.6,.5,-1.1c.6,-1,1.6,-2.2,2.5,-2.8c.4,-.3,.8,-.6,.9,-.8c.4,-.5,.6,-.5,.9,.2q.3,.6,.4,.5c.1,0,.2,0,.2,0c0,0,.1,.2,.1,.4c.1,.6,-.1,.4,-.6,-.4c-.4,-.7,-.5,-.8,-.7,-.5c-.1,.1,-.7,.6,-1.1,.9c-.7,.4,-1.8,1.8,-2.5,2.9l-.4,.7l.7,1.4c.7,1.4,1.1,2.2,1.5,2.7c.2,.4,.2,.6,-.2,.3Z" class="g5_3"/>
<path d="M128.1,641.7c-.1,-.1,0,-.1,0,-.1c.1,-.1,.1,0,.2,.1c0,.1,0,.2,0,.2c-.1,0,-.2,-.1,-.2,-.2Z" class="g5_3"/>
<path d="M127.6,640.7c-.3,-.6,-.2,-.8,0,-.4c.2,.2,.4,.8,.3,.9c-.1,0,-.2,-.1,-.3,-.5Z" class="g5_3"/>
<path d="M140.1,634.6c.5,-.3,1.1,-.5,1.2,-.4c.1,.2,-.1,.3,-.8,.4c-.8,.3,-.9,.3,-.4,0Z" class="g5_3"/>
<path d="M141.5,634.1c0,0,0,-.2,0,-.4c0,-.5,.7,-1.7,1.3,-2.3c1.8,-1.6,3.9,-3,5.7,-3.5c.6,-.2,.6,-.4,-.1,-.2c-.3,0,-1.3,.2,-2.2,.3c-1,.1,-1.9,.3,-2.1,.4c-.4,.1,-1.2,.6,-1.5,.9c-.2,.3,-.3,.3,-.4,.2c-.1,-.2,.9,-1,1.4,-1.2c1.1,-.4,1.4,-.4,2.1,-.5c.4,0,1.6,-.2,2.6,-.4c1.8,-.3,2,-.3,2.1,0c0,0,-.3,.2,-.7,.3c-2.5,1,-4.4,2,-5.3,2.8c-.2,.2,-.4,.4,-.4,.4c-.1,0,-.2,0,-.3,.1c-.1,.1,-.3,.4,-.6,.6c-.2,.3,-.5,.6,-.6,.8c-.1,.1,-.3,.4,-.5,.5c-.1,.2,-.2,.5,-.3,.7c0,.4,-.1,.6,-.2,.5Z" class="g5_3"/>
<path d="M132.6,634.6c-.1,-.2,-.2,-.7,-.1,-1c0,0,.3,-.3,.6,-.5c.3,-.2,.7,-.4,.8,-.5l.2,-.1l-.1,.1c-.2,.3,-1,1,-1.2,1.1c-.1,0,-.2,.2,-.2,.4c0,.1,0,.3,0,.5c.1,.1,0,.2,0,0Z" class="g5_3"/>
<path d="M141.5,629c.2,-.2,.5,-.2,.5,-.1c0,.1,-.1,.2,-.3,.2q-.4,0,-.2,-.1Z" class="g5_3"/>
<path d="M125.7,661.5c0,0,0,-.1,0,-.2c0,-.1,.1,-.6,.1,-1.2c0,-1.3,0,-1.8,.4,-4.2c.1,-.5,0,-.5,-.5,-1.5c-.3,-.7,-.5,-1.2,-.6,-1.6c-.1,-.3,-.2,-.8,-.2,-.9c-.3,-1.1,-.4,-4.2,-.1,-5.2c.1,-.4,.2,-.8,.2,-1c.1,-.4,.2,-.3,.7,.4c.6,1,.9,.9,.3,-.1c-.4,-.7,-.8,-2,-.8,-2.6c0,-.4,.6,-1.9,1,-2.7c.1,-.3,.3,-.4,.4,-.5c.2,0,.3,.1,.5,.4c.5,.6,.6,.9,.5,.9c-.1,0,-.3,-.2,-.4,-.5c-.4,-.7,-.6,-.6,-1.2,.9c-.7,1.8,-.6,2.4,.7,4.7c.5,.9,.8,1.5,.7,1.5c-.2,.1,-1.4,-1,-1.7,-1.6c-.1,-.1,-.2,-.2,-.3,-.3c-.1,-.1,-.1,0,-.2,.1c-.3,.9,-.4,2.6,-.2,4.1c0,.5,.1,1.1,.1,1.3c0,.6,1,3.2,1.2,3.1c.1,0,.1,-.1,.1,-.2c0,-.2,.1,-.7,.3,-1.3c.2,-.6,.3,-1.2,.4,-1.4c0,-.1,0,-.3,.1,-.3c.1,0,.4,-1.1,.4,-1.2c0,0,.1,-.3,.2,-.6c.9,-1.9,1.3,-2.8,1.6,-3.5c.8,-1.6,1.6,-3.2,2.3,-4.2c.7,-1.2,1.3,-2.1,1.9,-3.1c.2,-.3,.5,-.8,.7,-1c.1,-.2,.3,-.4,.3,-.5c0,-.1,.6,-.7,.9,-1.1c.1,-.1,.3,-.3,.5,-.6c.6,-.9,1,-1.3,1.1,-1.3c.1,.1,.1,0,-.7,1.1c-1.5,2,-2.3,3.2,-3.6,5.4c-.3,.4,-.7,1.1,-1,1.5c-.4,.6,-.5,.8,-.4,.9c.4,0,.3,.4,-.8,2.6c-.7,1.3,-1.4,2.7,-1.5,3.1c-.2,.4,-.4,1,-.6,1.4c-.2,.6,-.4,1.4,-.4,1.8c0,.1,-.1,.4,-.1,.6c-.1,.3,-.2,.8,-.2,1.2c-.1,.6,-.1,.7,.1,.7c.1,.1,.2,0,.2,-.1c.1,0,.3,-.3,.6,-.5c.3,-.2,.5,-.4,.6,-.5c0,-.1,.3,-.3,.5,-.5c.7,-.6,1.1,-1,1.5,-1.6c.3,-.4,.6,-.7,.7,-.8c.2,-.2,1.1,-1.9,1.1,-2.1c0,-.1,-.1,-.2,-.6,-.5c-.7,-.3,-.6,-.4,.1,-.1c.3,.1,.6,.2,.7,.2c.4,-.1,.3,.2,-.2,1.3c-.3,.6,-.7,1.2,-.9,1.4c-.1,.1,-.4,.5,-.6,.7c-.2,.3,-.4,.6,-.5,.7c-.1,.1,-.3,.3,-.5,.4c-.1,.2,-.4,.5,-.6,.7c-.2,.2,-.5,.4,-.6,.6c-.1,.1,-.3,.2,-.3,.2c-.1,0,-.3,.2,-.5,.4c-.2,.2,-.5,.4,-.7,.4c-.2,.1,-.3,.3,-.3,.7c-.1,.4,-.1,.7,-.1,.7c0,.1,0,.3,0,.6c0,.3,.1,.7,.1,.9c.2,.9,.1,1.2,-.1,1.4c-.4,.2,-1.1,1.2,-1.3,1.7c-.2,.5,-.3,.6,-.5,.4Z" class="g6_3"/>
<path d="M134,648c-.4,0,-.8,-.1,-1,-.1c-.2,-.1,-.4,-.1,-.5,-.1c-.1,0,-.3,0,-.4,-.1c-.1,-.1,-.3,-.1,-.4,0c-.1,0,-.2,0,-.3,-.1c-.1,-.2,.3,-.2,1.8,.1c1.4,.3,2.5,-.1,2.7,-1c0,-.2,.1,-.6,.2,-.8c.1,-.2,.2,-.6,.2,-.8c.1,-.3,.1,-.8,.3,-1.6c.1,-.2,.2,-.6,.4,-.7c.1,-.2,.2,-.4,.1,-.4c0,0,-.2,0,-.4,0c-.4,.1,-1.6,-.1,-1.7,-.3c-.1,-.2,.8,-.6,2,-.8c.3,0,.4,-.1,.6,-.7c.6,-1.4,1.6,-3.2,2.9,-4.9c.1,-.2,.1,-.3,0,-.3c0,0,-.3,0,-.7,.2c-.6,.2,-1.3,.3,-1.4,.1c0,0,0,-.1,.1,-.2q.2,0,.2,.1c.1,.1,.1,.2,.2,.2c.2,-.1,1.2,-.5,1.5,-.7c.3,-.3,.6,-.4,.6,-.2c.1,.1,-.1,.8,-.2,1c-.2,.1,-.5,.5,-.7,.9c-.1,.1,-.4,.4,-.6,.7c-.3,.6,-.5,.9,-.6,1.3c-.1,.1,-.3,.4,-.4,.7c-.3,.5,-.6,1.1,-.8,1.7c-.1,.2,-.2,.2,-.7,.3c-.8,.2,-1.6,.5,-1.4,.6c0,.1,.4,.1,1,0c.8,-.1,.9,-.1,1,0c0,.1,-.1,.4,-.3,.6c-.3,.6,-.6,1.6,-.7,2.2c0,.2,-.1,.6,-.2,.9c-.1,.3,-.2,.7,-.2,.8c-.1,.6,-.4,.9,-.8,1.1c-.6,.4,-.7,.4,-1.4,.3Z" class="g6_3"/>
<path d="M129.6,643.7c-.2,-.1,-.4,-.3,-.5,-.4c-.3,-.2,-1,-1,-1,-1.1c0,0,.1,-.1,.1,-.1c.1,0,.5,.4,.6,.6c.1,.1,.2,.1,.2,.1c.1,0,.1,-.1,-.1,-.3c-.1,-.2,-.3,-.5,-.4,-.8c-.1,-.2,-.4,-.8,-.6,-1.3c-.3,-.5,-.5,-1,-.5,-1.1c0,-.1,.2,-.6,.5,-1.1c.6,-1,1.6,-2.2,2.5,-2.8c.4,-.3,.8,-.6,.9,-.8c.4,-.5,.6,-.5,.9,.2q.3,.6,.4,.5c.1,0,.2,0,.2,0c0,0,.1,.2,.1,.4c.1,.6,-.1,.4,-.6,-.4c-.4,-.7,-.5,-.8,-.7,-.5c-.1,.1,-.7,.6,-1.1,.9c-.7,.4,-1.8,1.8,-2.5,2.9l-.4,.7l.7,1.4c.7,1.4,1.1,2.2,1.5,2.7c.2,.4,.2,.6,-.2,.3Z" class="g6_3"/>
<path d="M128.1,641.7c-.1,-.1,0,-.1,0,-.1c.1,-.1,.1,0,.2,.1c0,.1,0,.2,0,.2c-.1,0,-.2,-.1,-.2,-.2Z" class="g6_3"/>
<path d="M127.6,640.7c-.3,-.6,-.2,-.8,0,-.4c.2,.2,.4,.8,.3,.9c-.1,0,-.2,-.1,-.3,-.5Z" class="g6_3"/>
<path d="M140.1,634.6c.5,-.3,1.1,-.5,1.2,-.4c.1,.2,-.1,.3,-.8,.4c-.8,.3,-.9,.3,-.4,0Z" class="g6_3"/>
<path d="M141.5,634.1c0,0,0,-.2,0,-.4c0,-.5,.7,-1.7,1.3,-2.3c1.8,-1.6,3.9,-3,5.7,-3.5c.6,-.2,.6,-.4,-.1,-.2c-.3,0,-1.3,.2,-2.2,.3c-1,.1,-1.9,.3,-2.1,.4c-.4,.1,-1.2,.6,-1.5,.9c-.2,.3,-.3,.3,-.4,.2c-.1,-.2,.9,-1,1.4,-1.2c1.1,-.4,1.4,-.4,2.1,-.5c.4,0,1.6,-.2,2.6,-.4c1.8,-.3,2,-.3,2.1,0c0,0,-.3,.2,-.7,.3c-2.5,1,-4.4,2,-5.3,2.8c-.2,.2,-.4,.4,-.4,.4c-.1,0,-.2,0,-.3,.1c-.1,.1,-.3,.4,-.6,.6c-.2,.3,-.5,.6,-.6,.8c-.1,.1,-.3,.4,-.5,.5c-.1,.2,-.2,.5,-.3,.7c0,.4,-.1,.6,-.2,.5Z" class="g6_3"/>
<path d="M132.6,634.6c-.1,-.2,-.2,-.7,-.1,-1c0,0,.3,-.3,.6,-.5c.3,-.2,.7,-.4,.8,-.5l.2,-.1l-.1,.1c-.2,.3,-1,1,-1.2,1.1c-.1,0,-.2,.2,-.2,.4c0,.1,0,.3,0,.5c.1,.1,0,.2,0,0Z" class="g6_3"/>
<path d="M141.5,629c.2,-.2,.5,-.2,.5,-.1c0,.1,-.1,.2,-.3,.2q-.4,0,-.2,-.1Z" class="g6_3"/>
<path d="M127.2,659.2c.1,-.1,.1,-.3,.1,-.6c-.1,-.2,-.1,-.8,-.1,-1.4c0,-.5,0,-1,0,-1c0,-.1,0,-.2,0,-.3c0,-.2,.1,-.5,.1,-.8c.1,-1.3,.1,-1.6,.5,-3.1c0,-.2,.1,-.6,.1,-.8c.2,-.9,1.2,-3.1,2.4,-5.4c.6,-1.3,.9,-2,.9,-2.1c0,0,-.3,.5,-.6,1c-.3,.6,-.7,1.4,-.9,1.8c-.9,1.8,-1.9,4.1,-2,4.5c0,.3,-.2,.6,-.3,.9c0,.2,-.1,.4,-.1,.5c.1,.1,-.3,1.3,-.5,1.8c0,.2,-.1,.6,-.1,.8c-.1,.3,-.2,.7,-.2,1c-.3,1,-.5,2.6,-.3,2.9c0,.1,.2,.2,.4,.2c.4,.2,.3,.2,.6,.1Z" class="g5_3"/>
<path d="M124.9,651.9c-.1,-.2,-.3,-2,-.3,-3.2c0,-.8,.1,-1.6,.2,-2.2c.1,-.3,.2,-.7,.2,-.8c.1,-.3,.3,-.3,.6,.2c.1,.3,.4,.7,.6,.9l.3,.4l-.1,-.4c-.1,-.2,-.3,-.7,-.5,-1.1c-.4,-.9,-.7,-2.2,-.6,-2.7c.1,-.4,.6,-1.6,.9,-2.3c.2,-.5,.6,-.6,.8,-.3q0,.1,-.2,.2c-.2,0,-.3,.1,-.4,.4c-.7,1.3,-.9,2.4,-.9,3c.1,.2,.3,.9,.5,1.4c.4,.9,.5,1.2,1,1.8c.3,.4,.5,.8,.5,.9c0,.1,-.6,-.2,-.9,-.5c-.1,-.1,-.2,-.3,-.4,-.5c-.1,-.1,-.4,-.4,-.6,-.7l-.3,-.4l-.1,.2c-.4,.9,-.5,2.5,-.3,4.4c.1,1.2,.1,1.6,0,1.3Z" class="g7_3"/>
<path d="M133.7,648c-.2,0,-.4,-.1,-.6,-.1c-.2,-.1,-.4,-.1,-.5,-.1c-.2,0,-.8,-.2,-.8,-.3c0,0,.5,.1,1,.2c1.3,.2,2,.1,2.5,-.2c.4,-.3,.5,-.5,.8,-1.3c.2,-1,.3,-1.1,.3,-1.6c.1,-.6,.2,-1,.6,-1.7c.1,-.3,.2,-.5,.2,-.6c0,0,-.2,0,-.5,.1c-.3,.1,-.5,.1,-1.1,-.1l-.6,-.1l.1,-.2c.2,-.2,.8,-.5,1.6,-.6l.7,-.1l.3,-.7c.5,-1.4,1.6,-3.2,2.4,-4.4c.3,-.4,.5,-.8,.4,-.8q0,-.2,-.7,.1q-.7,.4,-.7,.3c0,-.1,.2,-.2,.3,-.2c.2,0,.5,-.3,.8,-.5c.4,-.2,.7,-.3,.8,-.2c.2,.1,-.1,.7,-.5,1.2c-.7,.8,-2,3.1,-2.6,4.5c-.1,.3,-.2,.6,-.3,.7c0,0,-.2,.1,-.3,.2c-.8,.1,-1,.1,-1.4,.3q-.5,.2,-.3,.3c0,.1,.3,.1,1,0c.7,-.1,.9,-.1,.9,0c.1,.1,-.1,.4,-.3,.8c-.4,.8,-.6,1.4,-.6,2c0,.2,-.1,.6,-.2,1c-.2,.4,-.2,.7,-.2,.7c0,.1,-.1,.3,-.2,.5c-.3,.7,-1.2,1,-2.3,.9Z" class="g7_3"/>
<path d="M131.5,647.6c0,0,0,-.1,.1,-.1c0,0,.1,0,.1,.1h-.1q0,.1,-.1,0Z" class="g7_3"/>
<path d="M129.3,643.5c-.6,-.5,-1.3,-1.4,-.9,-1.2c.1,.1,.3,.2,.3,.3c.1,.2,.4,.3,.5,.3c0,-.1,.5,.4,.6,.7c.1,.1,.1,.3,.1,.3c0,0,-.3,-.2,-.6,-.4Z" class="g7_3"/>
<path d="M128.8,642.3c0,0,-.2,-.2,-.2,-.5c-.1,-.2,-.4,-.8,-.6,-1.3c-.3,-.5,-.5,-1,-.6,-1.1c0,-.2,.8,-1.9,1.2,-2.3c.1,-.1,.4,-.4,.7,-.7c.3,-.3,.6,-.6,.8,-.8c.6,-.4,.9,-.7,1.3,-1c.2,-.2,.4,-.4,.5,-.3c.2,0,.2,.2,0,.2c0,.1,-.4,.3,-.7,.6c-.4,.3,-.7,.5,-.7,.5c-.2,0,-.4,.2,-.9,.9c-.3,.3,-.5,.5,-.6,.5c0,0,-.9,1.4,-1.2,1.8c-.2,.5,-.2,.6,.4,1.8c.8,1.6,.9,2,.6,1.7Z" class="g7_3"/>
<path d="M127.2,641.1c-.1,-.2,-.1,-.3,0,-.3c.1,0,.2,.2,.3,.3c0,.1,0,.2,0,.3c-.1,0,-.2,-.2,-.3,-.3Z" class="g7_3"/>
<path d="M127.6,640.8c0,-.1,-.1,-.3,-.2,-.4c0,-.1,0,-.2,0,-.2c.1,0,.5,.5,.5,.7c0,.3,-.2,.2,-.3,-.1Z" class="g7_3"/>
<path d="M138.4,635.7c0,0,.1,-.1,.2,-.1q.1,0,.2,.1c0,0,-.1,.1,-.2,.1c-.1,0,-.2,0,-.2,-.1Z" class="g7_3"/>
<path d="M132.5,635.7c-.1,-.3,.1,-.4,.3,-.1c.1,.2,.1,.4,0,.4c-.1,0,-.2,-.1,-.3,-.3Z" class="g7_3"/>
<path d="M140.3,634.6c-.1,-.1,.8,-.4,.9,-.3c.1,0,.1,.1,0,.1c-.3,.1,-.9,.2,-.9,.2Z" class="g7_3"/>
<path d="M132.2,635.1c-.1,0,-.1,-.1,0,-.2c0,-.1,0,0,.1,.1c0,.1,0,.2,0,.2q-.1,0,-.1,-.1Z" class="g7_3"/>
<path d="M141.6,634c-.1,-.2,0,-.9,.2,-1.1c.1,-.2,.3,-.5,.4,-.7c.2,-.2,.4,-.5,.5,-.6c.1,-.1,.3,-.2,.4,-.4c.4,-.4,2,-1.7,2.8,-2.1c.8,-.4,1.9,-.9,2.8,-1.3c.6,-.2,.6,-.4,0,-.2c-.3,0,-1.3,.2,-2.2,.3c-1.7,.2,-2,.3,-2.4,.4c-.4,.2,-1.2,.7,-1.5,1c-.1,.1,-.2,.2,-.3,.2c-.2,-.1,.8,-1,1.2,-1.2c.7,-.2,1.8,-.5,2.4,-.5c.4,-.1,1.5,-.2,2.4,-.4c.9,-.1,1.8,-.3,1.8,-.2c.3,0,.3,.2,0,.4c-1.4,.5,-2.5,.9,-3.3,1.4c-.8,.4,-1.7,.9,-2,1.1c0,0,-.2,.2,-.4,.4c-1,.8,-1.8,1.6,-2,1.9c-.1,.2,-.2,.3,-.3,.3c-.1,0,-.4,.7,-.4,1.1c0,.2,-.1,.3,-.1,.2Z" class="g7_3"/>
<path d="M132.6,633.6c-.1,0,.6,-.5,1,-.7c.3,-.2,.2,-.1,-.2,.3c-.4,.4,-.7,.5,-.8,.4Z" class="g7_3"/>
<path d="M141.7,629q-.1,0,0,-.1c.1,-.1,.3,0,.2,.1c0,0,-.1,.1,-.2,0Z" class="g7_3"/>
<path d="M125.9,654.7c-.1,-.1,-.1,-.2,0,-.2c0,0,.1,0,.1,.1c.1,.2,.1,.3,.1,.3c-.1,0,-.2,-.1,-.2,-.2Z" class="g8_3"/>
<path d="M129,654.2q0,-.1,.1,-.2q.2,0,.2,.1c-.1,.1,-.4,.2,-.3,.1Z" class="g8_3"/>
<path d="M125.7,654.1q-.1,-.1,0,-.1c0,0,.1,.1,.1,.2q0,.1,-.1,-.1Z" class="g8_3"/>
<path d="M129.5,653.7c0,0,.2,-.2,.4,-.4c.2,-.2,.5,-.4,.5,-.6c.2,-.2,.4,-.3,.4,-.2c0,.1,-1,1.1,-1.2,1.2q-.1,.1,-.1,0Z" class="g8_3"/>
<path d="M125.4,653.5c-.1,-.1,-.1,-.3,-.1,-.4c0,-.2,0,-.1,.1,0c0,.1,.1,.3,.1,.4q0,.2,-.1,0Z" class="g8_3"/>
<path d="M131.2,651.9c.2,-.3,1,-1.3,1.1,-1.4q.1,0,.2,0c0,0,-.1,.2,-.2,.3c-.2,.2,-.5,.6,-.7,.9c-.5,.6,-.8,.8,-.4,.2Z" class="g8_3"/>
<path d="M124.8,651.5c0,-.1,0,-.2,0,-.2c.1,-.1,.1,0,.2,0c0,.1,0,.2,0,.2c-.1,.1,-.1,0,-.2,0Z" class="g8_3"/>
<path d="M132.5,650.3c0,-.3,.6,-1.3,.7,-1.2c.1,0,-.6,1.3,-.7,1.3v-.1Z" class="g8_3"/>
<path d="M124.8,650.8c-.1,-.1,-.1,-.2,-.1,-.3c.1,-.2,.2,-.1,.2,.2c0,.2,-.1,.2,-.1,.1Z" class="g8_3"/>
<path d="M124.7,650.1c0,-.1,0,-.2,0,-.3c.1,-.1,.1,.1,.1,.3v.2Z" class="g8_3"/>
<path d="M133.2,648.9c0,-.1,0,-.3,-.1,-.4c-.1,-.1,0,-.2,.1,-.2c.4,0,.5,.1,.2,.5q-.1,.2,-.2,.1Z" class="g8_3"/>
<path d="M124.6,649c0,-.2,.1,-.9,.1,-.9c.1,.1,.1,.5,0,.7c0,.2,-.1,.2,-.1,.2Z" class="g8_3"/>
<path d="M134,648c-.3,0,-.6,-.1,-.7,-.1q-.2,-.1,.1,-.1c.1,0,.5,0,.9,0c.5,0,.6,0,1,-.3c.3,-.2,.5,-.4,.6,-.6c.2,-.4,.2,-.3,.1,.2c-.1,.3,-.3,.4,-.7,.6c-.5,.3,-.6,.3,-1.3,.3Z" class="g8_3"/>
<path d="M132.4,647.7q-.4,-.1,0,-.1c.1,0,.2,.1,.2,.1c.1,0,.1,.1,.1,.1c-.1,0,-.2,-.1,-.3,-.1Z" class="g8_3"/>
<path d="M127,647.9c-.3,-.2,-.5,-.6,-.4,-.6c.1,0,0,-.2,-.1,-.3c-.3,-.6,-1,-2.2,-1,-2.4c0,-.1,.1,.1,.3,.5c.2,.3,.6,1.1,1,1.8c.3,.6,.6,1.2,.6,1.2c-.1,0,-.2,-.1,-.4,-.2Z" class="g8_3"/>
<path d="M124.7,647.7c-.1,-.1,0,-.9,.2,-.9c0,-.1,0,0,0,.2c0,.4,-.1,.8,-.2,.7Z" class="g8_3"/>
<path d="M136.1,646.2c0,-.1,.1,-.2,.1,-.3q.1,-.1,.1,0c0,.1,-.1,.3,-.1,.3q-.1,.2,-.1,0Z" class="g8_3"/>
<path d="M126.2,647q-.1,-.1,0,-.1c0,.1,.1,.2,.1,.2c0,.1,0,0,-.1,-.1Z" class="g8_3"/>
<path d="M124.9,646.6c0,-.1,0,-.2,.1,-.4c0,-.1,.1,-.3,.1,-.5c0,-.3,.3,-.2,.4,.2c0,.2,0,.3,0,.2c-.1,-.1,-.4,-.2,-.4,0c.1,.1,-.1,.6,-.2,.5Z" class="g8_3"/>
<path d="M136.3,645.5c0,0,.1,-.1,.1,-.3q.1,-.3,.1,.1c0,.2,-.1,.3,-.2,.2Z" class="g8_3"/>
<path d="M136.5,644.3c0,-.1,0,-.2,.1,-.3c0,0,.1,0,0,.1c0,.1,0,.2,0,.3q-.1,0,-.1,-.1Z" class="g8_3"/>
<path d="M136.7,643.7c-.1,-.1,.1,-.6,.3,-.9c.2,-.2,.2,-.4,.2,-.4c-.1,-.1,-.3,-.1,-.7,0c-.7,.1,-.8,-.1,-.1,-.2c.4,-.1,.8,-.1,.9,-.2c.3,-.1,.3,.2,-.1,1c-.3,.4,-.5,.8,-.5,.7Z" class="g8_3"/>
<path d="M129.5,643.6c-.1,-.1,-.3,-.2,-.5,-.4c-.3,-.2,-.7,-.8,-.5,-.7c.1,0,.2,.1,.2,.2c.1,.1,.3,.2,.4,.3c.2,0,.4,.2,.6,.4c.3,.4,.2,.5,-.2,.2Z" class="g8_3"/>
<path d="M125.3,643.6c0,-.1,0,-.3,0,-.5c.1,-.3,.6,-1.6,.7,-1.7c.1,-.1,.1,.1,-.2,.9c-.1,.4,-.3,.9,-.3,1.2c-.1,.3,-.1,.4,-.2,.1Z" class="g8_3"/>
<path d="M135.4,642.2c-.2,0,-.3,-.1,-.3,-.1c-.1,-.1,.7,-.5,1,-.5c.3,-.1,.2,0,-.2,.2c-.5,.1,-.6,.2,-.4,.4q.2,.1,-.1,0Z" class="g8_3"/>
<path d="M128.8,642.2c-.1,-.1,-.1,-.3,-.2,-.4q0,-.2,.1,0c0,.1,.1,.2,.1,.4q.1,.1,0,0Z" class="g8_3"/>
<path d="M136.9,641.4c.1,-.1,.2,-.1,.3,0c.1,0,0,.1,-.2,.1q-.3,0,-.1,-.1Z" class="g8_3"/>
<path d="M137.5,641.1c.1,-.2,.2,-.4,.2,-.4c.1,0,-.1,.6,-.2,.6c0,.1,0,-.1,0,-.2Z" class="g8_3"/>
<path d="M128.4,641.2c-.1,0,-.2,-.1,-.1,-.2q0,-.2,.1,.1q.2,.3,0,.1Z" class="g8_3"/>
<path d="M137.9,640.2c0,-.1,.1,-.2,.2,-.1c.1,0,-.1,.3,-.2,.4c-.1,0,-.1,-.1,0,-.3Z" class="g8_3"/>
<path d="M127.3,641.1c-.1,-.1,-.1,-.2,0,-.1q.2,.1,.1,.2q0,.1,-.1,-.1Z" class="g8_3"/>
<path d="M126,641.2c-.1,-.2,.5,-1,.7,-.9c.3,0,.3,.2,.1,.2c-.2,.1,-.4,.3,-.5,.4c-.1,.3,-.2,.4,-.3,.3Z" class="g8_3"/>
<path d="M127.6,640.7c-.1,-.2,-.1,-.4,-.1,-.4c.1,-.1,.4,.4,.3,.6c0,.1,0,0,-.2,-.2Z" class="g8_3"/>
<path d="M138,639.8c0,-.1,.2,-.5,.3,-.5c.1,0,.1,-.1,.2,-.3c.1,-.4,1,-1.8,2,-3.3c.1,-.2,.1,-.3,0,-.4c-.1,-.1,-.1,-.2,.1,-.3c.1,-.1,.2,-.2,.3,-.1c.2,.1,0,.7,-.2,.9c-.3,.3,-1.4,2,-1.7,2.5c-.6,1.2,-.9,1.6,-1,1.5Z" class="g8_3"/>
<path d="M127.9,640.3c-.1,-.1,-.1,-.2,0,-.2c0,0,.1,0,.1,.1c0,0,0,.1,0,.1c0,.1,-.1,0,-.1,0Z" class="g8_3"/>
<path d="M127.5,639.7c0,-.1,0,-.2,0,-.3q0,-.1,.1,.1c.1,.2,.2,.3,.1,.3c0,0,-.1,-.1,-.2,-.1Z" class="g8_3"/>
<path d="M127.7,638.9c-.1,-.1,0,-.4,.1,-.4c.1,0,.1,.2,0,.3c0,.1,-.1,.2,-.1,.1Z" class="g8_3"/>
<path d="M128,638.1c0,-.1,.1,-.3,.3,-.4c.1,-.1,.2,-.3,.2,-.4q.1,-.1,.2,-.1c.1,-.1,0,.1,-.4,.6c-.2,.3,-.3,.4,-.3,.3Z" class="g8_3"/>
<path d="M129,636.8c.3,-.4,.8,-.9,.8,-.8c.1,0,-.4,.6,-.7,.9l-.2,.2Z" class="g8_3"/>
<path d="M132.7,635.9c-.2,-.1,-.2,-.4,-.1,-.4c.1,0,.3,.4,.2,.4c0,.1,-.1,.1,-.1,0Z" class="g8_3"/>
<path d="M136.3,635.5c.1,-.2,.2,-.3,.3,-.3c0,0,0,.1,-.1,.2c-.1,.2,-.2,.3,-.3,.3c0,0,0,-.1,.1,-.2Z" class="g8_3"/>
<path d="M130.6,635.4c.1,-.2,.2,-.2,.3,-.2c.1,-.1,-.2,.3,-.4,.3c-.1,0,0,0,.1,-.1Z" class="g8_3"/>
<path d="M140.7,634.5c-.1,0,0,-.1,.1,-.1c.2,-.1,.4,-.1,.4,-.1c0,.1,-.4,.3,-.5,.2Z" class="g8_3"/>
<path d="M131.3,634.7c.2,-.4,.5,-.5,.6,-.3c.1,0,-.2,.3,-.7,.5c0,.1,0,-.1,.1,-.2Z" class="g8_3"/>
<path d="M141.6,633.3c0,0,.1,-.2,.1,-.3c.1,-.1,.2,-.2,.2,-.1c0,0,0,.1,-.1,.3q-.1,.1,-.2,.1Z" class="g8_3"/>
<path d="M142.2,632.3c.2,-.4,.8,-1,2.4,-2.2c.8,-.7,2.6,-1.7,3.6,-2.1c1,-.3,1.1,-.4,1.1,-.5c-.2,-.2,.7,-.5,.9,-.3c.2,.2,.1,.3,-.1,.4c-.1,0,-.5,.1,-.8,.2c-.4,.2,-1,.4,-1.3,.6c-1.1,.4,-1.9,.8,-2.4,1.2c-.2,.1,-.5,.3,-.6,.4c-.1,0,-.4,.2,-.5,.4c-.2,.1,-.4,.3,-.4,.3c0,0,-.2,.1,-.4,.2c-1.1,1.1,-1.3,1.3,-1.3,1.5c0,.1,-.1,.2,-.2,.2c-.1,.1,-.1,0,0,-.3Z" class="g8_3"/>
<path d="M133,633.3c0,0,0,-.1,.1,-.1c0,0,.1,.1,0,.1q0,.1,-.1,.1v-.1Z" class="g8_3"/>
<path d="M142.3,629.4c0,0,0,-.1,.1,-.2c.1,0,.2,-.1,.2,-.1q0,.1,-.1,.2c-.1,.1,-.2,.1,-.2,.1Z" class="g8_3"/>
<path d="M143,628.7c.1,-.2,.5,-.3,.5,-.2c.1,0,-.3,.3,-.5,.4q-.2,0,0,-.2Z" class="g8_3"/>
<path d="M144.6,628.1c.1,-.1,.2,-.1,.3,-.1q.1,0,0,0c-.1,.1,-.2,.1,-.3,.1q-.1,0,0,0Z" class="g8_3"/>
<path d="M145.2,627.9c.1,0,.4,-.1,.9,-.1c.6,-.1,.9,-.1,.9,0c0,0,-.4,.1,-.9,.1c-.6,.1,-.9,.1,-.9,0Z" class="g8_3"/>
<path d="M147.1,627.7c.1,0,.4,-.1,.9,-.2c.5,0,.7,0,.6,0c-.3,.1,-1.5,.3,-1.5,.2Z" class="g8_3"/>
<path d="M125.8,661.5c0,0,0,-.4,0,-.7c0,-.4,0,-.8,0,-.8c0,-.1,0,-.8,0,-1q.1,-.1,.5,.1c.9,.5,1.2,.3,1,-.7c-.1,-1,.1,-1.2,.3,-.2c.1,.7,.1,.9,-.2,1.1c-.6,.5,-1.5,1.9,-1.4,2.1c.1,.1,0,.1,-.1,.1c0,0,-.1,0,-.1,0Z" class="g9_3"/>
<path d="M127.3,657.4c0,-.1,0,-.7,.1,-.7c.1,-.1,.1,0,.1,.4c-.1,.3,-.1,.4,-.2,.3Z" class="g9_3"/>
<path d="M127.3,656.2c0,0,0,-.3,0,-.5c0,-.3,.1,-.8,.1,-1.1c.1,-1,.5,-3.2,.7,-3.2c0,0,0,.1,0,.2c0,.2,-.1,.4,-.1,.6c0,.1,-.1,.4,-.1,.6c-.2,.6,-.3,2,-.1,2.2q0,.1,-.1,.2c0,0,-.1,.2,-.2,.5c0,.5,-.1,.7,-.2,.5Z" class="g9_3"/>
<path d="M126.3,655.9q-.1,-.1,0,-.2c0,-.1,0,-.2,0,-.3c-.1,-.3,.2,-.7,.3,-.5c0,.1,-.2,1,-.3,1Z" class="g9_3"/>
<path d="M125.9,654.7c-.1,-.1,-.1,-.2,0,-.2c0,0,.1,0,.1,.1c.1,.2,.1,.3,.1,.3c-.1,0,-.2,-.1,-.2,-.2Z" class="g9_3"/>
<path d="M126.5,654.6c0,-.1,0,-.4,.2,-.8c.1,-.4,.2,-1,.3,-1.4c.1,-.4,.2,-.8,.3,-.8c.1,-.1,.1,0,0,.3c0,.2,-.1,.5,-.1,.6c-.1,.7,-.6,2.2,-.7,2.1Z" class="g9_3"/>
<path d="M129,654.2q0,-.1,.1,-.2q.2,0,.2,.1c-.1,.1,-.4,.2,-.3,.1Z" class="g9_3"/>
<path d="M125.7,654.1q-.1,-.1,0,-.1c0,0,.1,.1,.1,.2q0,.1,-.1,-.1Z" class="g9_3"/>
<path d="M129.5,653.7c0,0,.2,-.2,.4,-.4c.2,-.2,.5,-.4,.5,-.6c.2,-.2,.4,-.3,.4,-.2c0,.1,-1,1.1,-1.2,1.2q-.1,.1,-.1,0Z" class="g9_3"/>
<path d="M125.4,653.5c-.1,-.1,-.1,-.3,-.1,-.4c0,-.2,0,-.1,.1,0c0,.1,.1,.3,.1,.4q0,.2,-.1,0Z" class="g9_3"/>
<path d="M131.2,651.9c.2,-.3,1,-1.3,1.1,-1.4q.1,0,.2,0c0,0,-.1,.2,-.2,.3c-.2,.2,-.5,.6,-.7,.9c-.5,.6,-.8,.8,-.4,.2Z" class="g9_3"/>
<path d="M124.8,651.5c0,-.1,0,-.2,0,-.2c.1,-.1,.1,0,.2,0c0,.1,0,.2,0,.2c-.1,.1,-.1,0,-.2,0Z" class="g9_3"/>
<path d="M128.1,651.2c0,-.5,1.5,-4,2.7,-6.2c.2,-.4,.5,-.9,.5,-1.1c0,-.4,.2,-.5,.3,-.4c.1,.2,-.2,.9,-1.3,2.8c-.5,1.1,-1,2.2,-1.2,2.5c-.2,.6,-.6,1.5,-.9,2.2q-.1,.2,-.1,.2Z" class="g9_3"/>
<path d="M127.5,650.9q0,-.1,.1,-.1c0,-.1,.1,-.1,.1,0c0,0,0,.1,0,.1q-.1,0,-.2,0Z" class="g9_3"/>
<path d="M132.5,650.3c0,-.3,.6,-1.3,.7,-1.2c.1,0,-.6,1.3,-.7,1.3v-.1Z" class="g9_3"/>
<path d="M124.8,650.8c-.1,-.1,-.1,-.2,-.1,-.3c.1,-.2,.2,-.1,.2,.2c0,.2,-.1,.2,-.1,.1Z" class="g9_3"/>
<path d="M127.6,650.3c0,0,0,-.1,.1,-.1q.1,-.1,.1,0c.1,.1,-.1,.2,-.2,.1Z" class="g9_3"/>
<path d="M124.7,650.1c0,-.1,0,-.2,0,-.3c.1,-.1,.1,.1,.1,.3v.2Z" class="g9_3"/>
<path d="M127.9,649.9c-.1,-.1,.3,-.7,.4,-.7c0,0,-.1,.2,-.2,.4c-.1,.3,-.2,.4,-.2,.3Z" class="g9_3"/>
<path d="M133.2,648.9c0,-.1,0,-.3,-.1,-.4c-.1,-.1,0,-.2,.1,-.2c.4,0,.5,.1,.2,.5q-.1,.2,-.2,.1Z" class="g9_3"/>
<path d="M128.3,649c0,0,.2,-.5,.5,-1.1c.3,-.5,.4,-.7,.3,-.4c-.2,.5,-.9,1.8,-.8,1.5Z" class="g9_3"/>
<path d="M124.6,649c0,-.2,.1,-.9,.1,-.9c.1,.1,.1,.5,0,.7c0,.2,-.1,.2,-.1,.2Z" class="g9_3"/>
<path d="M134,648c-.3,0,-.6,-.1,-.7,-.1q-.2,-.1,.1,-.1c.1,0,.5,0,.9,0c.5,0,.6,0,1,-.3c.3,-.2,.5,-.4,.6,-.6c.2,-.4,.2,-.3,.1,.2c-.1,.3,-.3,.4,-.7,.6c-.5,.3,-.6,.3,-1.3,.3Z" class="g9_3"/>
<path d="M132.4,647.7q-.4,-.1,0,-.1c.1,0,.2,.1,.2,.1c.1,0,.1,.1,.1,.1c-.1,0,-.2,-.1,-.3,-.1Z" class="g9_3"/>
<path d="M127,647.9c-.3,-.2,-.5,-.6,-.4,-.6c.1,0,0,-.2,-.1,-.3c-.3,-.6,-1,-2.2,-1,-2.4c0,-.1,.1,.1,.3,.5c.2,.3,.6,1.1,1,1.8c.3,.6,.6,1.2,.6,1.2c-.1,0,-.2,-.1,-.4,-.2Z" class="g9_3"/>
<path d="M124.7,647.7c-.1,-.1,0,-.9,.2,-.9c0,-.1,0,0,0,.2c0,.4,-.1,.8,-.2,.7Z" class="g9_3"/>
<path d="M136.1,646.2c0,-.1,.1,-.2,.1,-.3q.1,-.1,.1,0c0,.1,-.1,.3,-.1,.3q-.1,.2,-.1,0Z" class="g9_3"/>
<path d="M126.2,647q-.1,-.1,0,-.1c0,.1,.1,.2,.1,.2c0,.1,0,0,-.1,-.1Z" class="g9_3"/>
<path d="M129.3,646.6c.1,-.1,.2,-.2,.2,-.2c.1,0,0,.3,-.1,.4q-.2,.1,-.1,-.2Z" class="g9_3"/>
<path d="M129.8,645.7c.1,-.3,.3,-.6,.3,-.6c0,0,.2,-.5,.5,-1c.2,-.5,.6,-1.1,.7,-1.3c.2,-.3,.5,-.8,.8,-1.2c.4,-.7,.6,-1,.7,-.8c0,0,-.2,.4,-1,1.5c-.2,.4,-.5,.9,-.7,1.1c-.1,.3,-.3,.8,-.5,1.2c-.2,.4,-.5,.9,-.6,1.2c-.3,.7,-.5,.6,-.2,-.1Z" class="g9_3"/>
<path d="M124.9,646.6c0,-.1,0,-.2,.1,-.4c0,-.1,.1,-.3,.1,-.5c0,-.3,.3,-.2,.4,.2c0,.2,0,.3,0,.2c-.1,-.1,-.4,-.2,-.4,0c.1,.1,-.1,.6,-.2,.5Z" class="g9_3"/>
<path d="M136.3,645.5c0,0,.1,-.1,.1,-.3q.1,-.3,.1,.1c0,.2,-.1,.3,-.2,.2Z" class="g9_3"/>
<path d="M136.5,644.3c0,-.1,0,-.2,.1,-.3c0,0,.1,0,0,.1c0,.1,0,.2,0,.3q-.1,0,-.1,-.1Z" class="g9_3"/>
<path d="M136.7,643.7c-.1,-.1,.1,-.6,.3,-.9c.2,-.2,.2,-.4,.2,-.4c-.1,-.1,-.3,-.1,-.7,0c-.7,.1,-.8,-.1,-.1,-.2c.4,-.1,.8,-.1,.9,-.2c.3,-.1,.3,.2,-.1,1c-.3,.4,-.5,.8,-.5,.7Z" class="g9_3"/>
<path d="M129.5,643.6c-.1,-.1,-.3,-.2,-.5,-.4c-.3,-.2,-.7,-.8,-.5,-.7c.1,0,.2,.1,.2,.2c.1,.1,.3,.2,.4,.3c.2,0,.4,.2,.6,.4c.3,.4,.2,.5,-.2,.2Z" class="g9_3"/>
<path d="M125.3,643.6c0,-.1,0,-.3,0,-.5c.1,-.3,.6,-1.6,.7,-1.7c.1,-.1,.1,.1,-.2,.9c-.1,.4,-.3,.9,-.3,1.2c-.1,.3,-.1,.4,-.2,.1Z" class="g9_3"/>
<path d="M135.4,642.2c-.2,0,-.3,-.1,-.3,-.1c-.1,-.1,.7,-.5,1,-.5c.3,-.1,.2,0,-.2,.2c-.5,.1,-.6,.2,-.4,.4q.2,.1,-.1,0Z" class="g9_3"/>
<path d="M128.8,642.2c-.1,-.1,-.1,-.3,-.2,-.4q0,-.2,.1,0c0,.1,.1,.2,.1,.4q.1,.1,0,0Z" class="g9_3"/>
<path d="M136.9,641.4c.1,-.1,.2,-.1,.3,0c.1,0,0,.1,-.2,.1q-.3,0,-.1,-.1Z" class="g9_3"/>
<path d="M137.5,641.1c.1,-.2,.2,-.4,.2,-.4c.1,0,-.1,.6,-.2,.6c0,.1,0,-.1,0,-.2Z" class="g9_3"/>
<path d="M128.4,641.2c-.1,0,-.2,-.1,-.1,-.2q0,-.2,.1,.1q.2,.3,0,.1Z" class="g9_3"/>
<path d="M137.9,640.2c0,-.1,.1,-.2,.2,-.1c.1,0,-.1,.3,-.2,.4c-.1,0,-.1,-.1,0,-.3Z" class="g9_3"/>
<path d="M127.3,641.1c-.1,-.1,-.1,-.2,0,-.1q.2,.1,.1,.2q0,.1,-.1,-.1Z" class="g9_3"/>
<path d="M126,641.2c-.1,-.2,.5,-1,.7,-.9c.3,0,.3,.2,.1,.2c-.2,.1,-.4,.3,-.5,.4c-.1,.3,-.2,.4,-.3,.3Z" class="g9_3"/>
<path d="M127.6,640.7c-.1,-.2,-.1,-.4,-.1,-.4c.1,-.1,.4,.4,.3,.6c0,.1,0,0,-.2,-.2Z" class="g9_3"/>
<path d="M133,640.1c.1,-.2,.2,-.3,.3,-.3c.1,.1,-.3,.7,-.4,.7c-.1,0,0,-.2,.1,-.4Z" class="g9_3"/>
<path d="M138,639.8c0,-.1,.2,-.5,.3,-.5c.1,0,.1,-.1,.2,-.3c.1,-.4,1,-1.8,2,-3.3c.1,-.2,.1,-.3,0,-.4c-.1,-.1,-.1,-.2,.1,-.3c.1,-.1,.2,-.2,.3,-.1c.2,.1,0,.7,-.2,.9c-.3,.3,-1.4,2,-1.7,2.5c-.6,1.2,-.9,1.6,-1,1.5Z" class="g9_3"/>
<path d="M127.9,640.3c-.1,-.1,-.1,-.2,0,-.2c0,0,.1,0,.1,.1c0,0,0,.1,0,.1c0,.1,-.1,0,-.1,0Z" class="g9_3"/>
<path d="M133.4,639.7c0,-.1,.5,-1,.8,-1.4c.1,-.2,.3,-.5,.4,-.6c.2,-.5,.8,-1.1,.9,-1.1c0,0,0,.2,-.1,.3c-.1,.1,-.3,.2,-.3,.3c-.1,.1,-.3,.4,-.5,.8c-.3,.3,-.6,.8,-.7,1c-.3,.5,-.4,.7,-.5,.7Z" class="g9_3"/>
<path d="M127.5,639.7c0,-.1,0,-.2,0,-.3q0,-.1,.1,.1c.1,.2,.2,.3,.1,.3c0,0,-.1,-.1,-.2,-.1Z" class="g9_3"/>
<path d="M127.7,638.9c-.1,-.1,0,-.4,.1,-.4c.1,0,.1,.2,0,.3c0,.1,-.1,.2,-.1,.1Z" class="g9_3"/>
<path d="M128,638.1c0,-.1,.1,-.3,.3,-.4c.1,-.1,.2,-.3,.2,-.4q.1,-.1,.2,-.1c.1,-.1,0,.1,-.4,.6c-.2,.3,-.3,.4,-.3,.3Z" class="g9_3"/>
<path d="M129,636.8c.3,-.4,.8,-.9,.8,-.8c.1,0,-.4,.6,-.7,.9l-.2,.2Z" class="g9_3"/>
<path d="M135.9,636c.1,-.1,.2,-.2,.2,-.2c0,0,0,.1,-.1,.2l-.2,.3Z" class="g9_3"/>
<path d="M132.7,635.9c-.2,-.1,-.2,-.4,-.1,-.4c.1,0,.3,.4,.2,.4c0,.1,-.1,.1,-.1,0Z" class="g9_3"/>
<path d="M130.6,635.4c.1,-.2,.2,-.2,.3,-.2c.1,-.1,-.2,.3,-.4,.3c-.1,0,0,0,.1,-.1Z" class="g9_3"/>
<path d="M140.7,634.5c-.1,0,0,-.1,.1,-.1c.2,-.1,.4,-.1,.4,-.1c0,.1,-.4,.3,-.5,.2Z" class="g9_3"/>
<path d="M131.3,634.7c.2,-.4,.5,-.5,.6,-.3c.1,0,-.2,.3,-.7,.5c0,.1,0,-.1,.1,-.2Z" class="g9_3"/>
<path d="M141.6,633.3c0,0,.1,-.2,.1,-.3c.1,-.1,.2,-.2,.2,-.1c0,0,0,.1,-.1,.3q-.1,.1,-.2,.1Z" class="g9_3"/>
<path d="M142.2,632.3c.2,-.4,.8,-1,2.4,-2.2c.8,-.7,2.6,-1.7,3.6,-2.1c1,-.3,1.1,-.4,1.1,-.5c-.2,-.2,.7,-.5,.9,-.3c.2,.2,.1,.3,-.1,.4c-.1,0,-.5,.1,-.8,.2c-.4,.2,-1,.4,-1.3,.6c-1.1,.4,-1.9,.8,-2.4,1.2c-.2,.1,-.5,.3,-.6,.4c-.1,0,-.4,.2,-.5,.4c-.2,.1,-.4,.3,-.4,.3c0,0,-.2,.1,-.4,.2c-1.1,1.1,-1.3,1.3,-1.3,1.5c0,.1,-.1,.2,-.2,.2c-.1,.1,-.1,0,0,-.3Z" class="g9_3"/>
<path d="M133,633.3c0,0,0,-.1,.1,-.1c0,0,.1,.1,0,.1q0,.1,-.1,.1v-.1Z" class="g9_3"/>
<path d="M142.3,629.4c0,0,0,-.1,.1,-.2c.1,0,.2,-.1,.2,-.1q0,.1,-.1,.2c-.1,.1,-.2,.1,-.2,.1Z" class="g9_3"/>
<path d="M143,628.7c.1,-.2,.5,-.3,.5,-.2c.1,0,-.3,.3,-.5,.4q-.2,0,0,-.2Z" class="g9_3"/>
<path d="M144.6,628.1c.1,-.1,.2,-.1,.3,-.1q.1,0,0,0c-.1,.1,-.2,.1,-.3,.1q-.1,0,0,0Z" class="g9_3"/>
<path d="M145.2,627.9c.1,0,.4,-.1,.9,-.1c.6,-.1,.9,-.1,.9,0c0,0,-.4,.1,-.9,.1c-.6,.1,-.9,.1,-.9,0Z" class="g9_3"/>
<path d="M147.1,627.7c.1,0,.4,-.1,.9,-.2c.5,0,.7,0,.6,0c-.3,.1,-1.5,.3,-1.5,.2Z" class="g9_3"/>
<path d="M128.2,641.2q-.1,-.2,-.1,-.1c-.1,.2,0,.4,.1,.4c.1,-.1,.1,-.2,0,-.3Z" class="g4_3"/>
</g>
<path d="M152.7,656.6H648.4" class="g0_3"/>
<path d="M137.6,664.8V877.2" class="gb_3"/>
</svg>