<?xml version="1.0" encoding="UTF-8" standalone="no"?>
<!DOCTYPE svg PUBLIC "-//W3C//DTD SVG 1.1//EN"
"http://www.w3.org/Graphics/SVG/1.1/DTD/svg11.dtd">
<svg viewBox="0 0 1286 909" version="1.1" xmlns="http://www.w3.org/2000/svg" xmlns:xlink="http://www.w3.org/1999/xlink">
<defs>
<style type="text/css"><![CDATA[
.g0_1032{
fill: none;
stroke: #000000;
stroke-width: 0.73;
stroke-linecap: butt;
stroke-linejoin: miter;
}
.g1_1032{
fill: #E6CEEE;
}
]]></style>
</defs>
<path d="M193,83.4h900.3M193,111.6H933m-740,0H933M587,141.2V112m0,60.6V141.2m0,60.6V172.6m0,58.4V201.8m0,59.4V231m0,59.4V261.2m0,58.4V290.4m0,59.4V319.6m0,59.4V349.8m0,58.4V379m0,64.1V408.2" class="g0_1032"/>
<path d="M701.8,443.1h73V410.2h-73v32.9Z" class="g1_1032"/>
<path d="M587,472.3V443.1m0,62.1V472.3" class="g0_1032"/>
<path d="M713.7,505.2h44.7V472.3H713.7v32.9Z" class="g1_1032"/>
<path d="M860.4,505.2h61.7V472.3H860.4v32.9Z" class="g1_1032"/>
<path d="M587,534.4V505.2m0,58.4V534.4m0,59.4V563.6m0,59.4V593.8m0,58.4V623m0,59.4V652.2m0,59.4V682.4m0,58.4V711.6M193,741.2H933m-740,0H933" class="g0_1032"/>
</svg>