<?xml version="1.0" encoding="UTF-8" standalone="no"?>
<!DOCTYPE svg PUBLIC "-//W3C//DTD SVG 1.1//EN"
"http://www.w3.org/Graphics/SVG/1.1/DTD/svg11.dtd">
<svg viewBox="0 0 909 1286" version="1.1" xmlns="http://www.w3.org/2000/svg" xmlns:xlink="http://www.w3.org/1999/xlink">
<defs>
<style type="text/css"><![CDATA[
.g0_37{
fill: none;
stroke: #000000;
stroke-width: 0.73;
stroke-linecap: butt;
stroke-linejoin: miter;
}
.g1_37{
fill: none;
stroke: #000000;
stroke-width: 0.365;
stroke-linecap: butt;
stroke-linejoin: miter;
}
.g2_37{
fill: none;
stroke: #8007AC;
stroke-width: 0.73;
stroke-linecap: butt;
stroke-linejoin: miter;
}
.g3_37{
fill: none;
stroke: #FFA313;
stroke-width: 0.73;
stroke-linecap: butt;
stroke-linejoin: miter;
}
.g4_37{
fill: none;
stroke: #02B5EE;
stroke-width: 0.73;
stroke-linecap: butt;
stroke-linejoin: miter;
}
.g5_37{
fill: none;
stroke: #F81693;
stroke-width: 0.73;
stroke-linecap: butt;
stroke-linejoin: miter;
}
.g6_37{
fill: none;
stroke: #F81693;
stroke-width: 1.461;
stroke-linecap: butt;
stroke-linejoin: miter;
}
.g7_37{
fill: none;
stroke: #FFA313;
stroke-width: 1.461;
stroke-linecap: butt;
stroke-linejoin: miter;
}
.g8_37{
fill: none;
stroke: #8007AC;
stroke-width: 1.461;
stroke-linecap: butt;
stroke-linejoin: miter;
}
.g9_37{
fill: #FFFFFF;
}
.ga_37{
fill: #FDE8E9;
}
]]></style>
</defs>
<path d="M116.9,179.9H786.6M284.1,209.5V180.3" class="g0_37"/>
<path d="M225.6,328.1l12.5,7.4m0,18.4V335.6m-18.8,-7.5l-12.5,7.4m-15.6,-9.3l15.6,9.3m-31.2,18.4V340.2m15.6,-14l-12.4,7.4m59.3,-35.1l12.4,7.4m-28.1,16.6V307.9m15.7,-9.4l-15.7,9.3M237,298.5V285.7m2.2,12.8V285.7m11.3,75.7l-12.6,-7.5m.4,.6l-10.9,6.6m10.4,-8.9l-11,6.6M160,363.3L175.6,354M160,363.3l-12.4,-7.4m11.3,7.4v12.8m2.2,-12.8v12.8m11.3,-42.4l-12.6,-7.5m.2,0V307.9m12.4,-7.5L160,307.8m.3,-.5l-11,-6.6m10.4,9l-11,-6.6" class="g1_37"/>
<path d="M284.1,446.6V209.5" class="g0_37"/>
<path d="M524.7,323.6l24.9,14.8m0,36.8V338.6" class="g2_37"/>
<path d="M511.9,323.6l-18.2,11m-31.4,-11l18.2,11" class="g3_37"/>
<path d="M424.6,375.2V347.8" class="g2_37"/>
<path d="M449.5,323.6l-18.3,11" class="g4_37"/>
<path d="M556,268.3l18.2,11" class="g5_37"/>
<path d="M518.3,312.5V292.4" class="g4_37"/>
<path d="M543.2,268.3l-18.3,11M547.4,259V238.9m4.4,20.1V238.9" class="g5_37"/>
<path d="M574.4,390.1L549.2,375.2m.9,1.2l-21.9,13.2M549,371.9L527.1,385m-133.7,9l31.2,-18.7M393.4,394L368.6,379.2M391.2,394v25.5M395.6,394v25.5m22.6,-84.7L393,319.8m.4,0V283.3m24.8,-15l-24.8,14.8m.5,-1.1L372,268.8m20.8,17.9L370.9,273.6" class="g2_37"/>
<path d="M284.1,475.8V446.6m0,58.4V475.8" class="g0_37"/>
<path d="M312.3,503.6c1.4,0,2.1,-2.8,3.5,-2.8c1,0,1.8,1.4,2.7,2.8c.9,1.4,1.8,2.7,2.7,2.7c1,0,1.9,-1.3,2.8,-2.7c.9,-1.4,1.7,-2.8,2.7,-2.8c1.4,0,2.1,2.8,3.4,2.8H334" class="g6_37"/>
<path d="M342.3,503.6c1.3,0,2,-2.8,3.4,-2.8c1,0,1.8,1.4,2.7,2.8c.9,1.4,1.8,2.7,2.8,2.7c1,0,1.8,-1.3,2.7,-2.7c.9,-1.4,1.8,-2.8,2.8,-2.8c1.3,0,2,2.8,3.4,2.8H364" class="g7_37"/>
<path d="M371.3,503.6c1.4,0,2.1,-2.8,3.5,-2.8c.9,0,1.8,1.4,2.7,2.8c.9,1.4,1.7,2.7,2.7,2.7c1,0,1.9,-1.3,2.8,-2.7c.9,-1.4,1.7,-2.8,2.7,-2.8c1,0,1.9,1.4,2.8,2.8c.8,1.4,1.7,2.7,2.7,2.7c1,0,1.8,-1.3,2.7,-2.7c.9,-1.4,1.8,-2.8,2.8,-2.8c1.3,0,2,2.8,3.4,2.8h5.1" class="g8_37"/>
<path d="M284.1,534.2V505m0,58.5V534.2" class="g0_37"/>
<path d="M650.1,562c1.4,0,2.1,-2.7,3.4,-2.7c1,0,1.9,1.3,2.8,2.7c.9,1.4,1.7,2.7,2.7,2.7c1,0,1.9,-1.3,2.8,-2.7c.9,-1.4,1.7,-2.7,2.7,-2.7c1,0,1.9,1.3,2.7,2.7c.9,1.4,1.8,2.7,2.8,2.7c1,0,1.8,-1.3,2.7,-2.7c.9,-1.4,1.8,-2.7,2.8,-2.7c1,0,1.8,1.3,2.7,2.7c.9,1.4,1.8,2.7,2.7,2.7c1,0,1.9,-1.3,2.8,-2.7c.9,-1.4,1.7,-2.7,2.7,-2.7c1,0,1.9,1.3,2.8,2.7c.9,1.4,1.7,2.7,2.7,2.7c1,0,1.8,-1.3,2.7,-2.7c.9,-1.4,1.8,-2.7,2.8,-2.7c1,0,1.8,1.3,2.7,2.7c.9,1.4,1.8,2.7,2.8,2.7c1,0,1.8,-1.3,2.7,-2.7c.9,-1.4,1.8,-2.7,2.7,-2.7c1,0,1.9,1.3,2.8,2.7c.9,1.4,1.7,2.7,2.7,2.7c1,0,1.9,-1.3,2.8,-2.7c.9,-1.4,1.7,-2.7,2.7,-2.7c1,0,1.8,1.3,2.7,2.7c.9,1.4,1.8,2.7,2.8,2.7c1,0,1.8,-1.3,2.7,-2.7c.9,-1.4,1.8,-2.7,2.8,-2.7c1,0,1.8,1.3,2.7,2.7c.9,1.4,1.7,2.7,2.7,2.7c1,0,1.9,-1.3,2.8,-2.7c.9,-1.4,1.7,-2.7,2.7,-2.7c1,0,1.9,1.3,2.8,2.7c.9,1.4,1.7,2.7,2.7,2.7c1,0,1.8,-1.3,2.7,-2.7c.9,-1.4,1.8,-2.7,2.8,-2.7c1,0,1.8,1.3,2.7,2.7c.9,1.4,1.8,2.7,2.8,2.7c.9,0,1.8,-1.3,2.7,-2.7c.9,-1.4,1.7,-2.7,2.7,-2.7c1,0,1.9,1.3,2.8,2.7c.9,1.4,1.7,2.7,2.7,2.7c1.4,0,2.1,-2.7,3.4,-2.7h3.7" class="g6_37"/>
<path d="M284.1,592.7V563.5m0,96.8V592.7" class="g0_37"/>
<path d="M361.7,652.5v-52c0,-2.9,2.4,-5.2,5.2,-5.2H742.1c2.8,0,5.2,2.3,5.2,5.2v52c0,2.9,-2.4,5.2,-5.2,5.2H366.9c-2.8,0,-5.2,-2.3,-5.2,-5.2Z" class="g9_37"/>
<path d="M472,683.2H636.9V666.7H472v16.5Z" class="ga_37"/>
<path d="M387.7,642.1H721.3V610.9H387.7v31.2Z" class="ga_37"/>
<path d="M284.1,689.5V660.3M116.9,689.9H786.6" class="g0_37"/>
</svg>