<?xml version="1.0" encoding="UTF-8" standalone="no"?>
<!DOCTYPE svg PUBLIC "-//W3C//DTD SVG 1.1//EN"
"http://www.w3.org/Graphics/SVG/1.1/DTD/svg11.dtd">
<svg viewBox="0 0 1286 909" version="1.1" xmlns="http://www.w3.org/2000/svg" xmlns:xlink="http://www.w3.org/1999/xlink">
<defs>
<style type="text/css"><![CDATA[
.g0_261{
fill: none;
stroke: #000000;
stroke-width: 0.73;
stroke-linecap: butt;
stroke-linejoin: miter;
}
.g1_261{
fill: none;
stroke: #5EE200;
stroke-width: 0.73;
stroke-linecap: butt;
stroke-linejoin: miter;
}
.g2_261{
fill: none;
stroke: #02B5EE;
stroke-width: 0.73;
stroke-linecap: butt;
stroke-linejoin: miter;
}
.g3_261{
fill: none;
stroke: #02B5EE;
stroke-width: 1.262;
stroke-linecap: butt;
stroke-linejoin: miter;
}
.g4_261{
fill: none;
stroke: #5EE200;
stroke-width: 1.262;
stroke-linecap: butt;
stroke-linejoin: miter;
}
]]></style>
</defs>
<path d="M193,83.4h900.3M193,111.6h956.7m-956.7,0h956.7M646.9,141.2V112m0,102.3V141.2" class="g0_261"/>
<path d="M986.2,200.4h34.3" class="g1_261"/>
<path d="M1020.5,200.4h118.2" class="g2_261"/>
<path d="M646.9,243.5V214.3m0,58.4V243.5m0,114.3V272.7" class="g0_261"/>
<path d="M744.6,333.8H876.2" class="g3_261"/>
<path d="M886.7,333.8h22.2" class="g4_261"/>
<path d="M646.9,387V357.8m0,102.3V387" class="g0_261"/>
<path d="M1036.9,446.2h34.3" class="g1_261"/>
<path d="M1071.2,446.2h67.5" class="g2_261"/>
<path d="M646.9,489.3V460.1m0,58.4V489.3m0,114.2v-85" class="g0_261"/>
<path d="M731.3,579.5H888.6" class="g3_261"/>
<path d="M899.1,579.5h22.2" class="g4_261"/>
<path d="M646.9,632.7V603.5m0,102.3V632.7" class="g0_261"/>
<path d="M657.8,691.9h34.3" class="g1_261"/>
<path d="M1020.5,691.9h118.2" class="g2_261"/>
<path d="M646.9,735V705.8M193,735.4h956.7m-956.7,0h956.7" class="g0_261"/>
</svg>