<?xml version="1.0" encoding="UTF-8" standalone="no"?>
<!DOCTYPE svg PUBLIC "-//W3C//DTD SVG 1.1//EN"
"http://www.w3.org/Graphics/SVG/1.1/DTD/svg11.dtd">
<svg viewBox="0 0 1286 909" version="1.1" xmlns="http://www.w3.org/2000/svg" xmlns:xlink="http://www.w3.org/1999/xlink">
<defs>
<style type="text/css"><![CDATA[
.g0_715{
fill: none;
stroke: #000000;
stroke-width: 0.73;
stroke-linecap: butt;
stroke-linejoin: miter;
}
.g1_715{
fill: none;
stroke: #02B5EE;
stroke-width: 1.262;
stroke-linecap: butt;
stroke-linejoin: miter;
}
.g2_715{
fill: none;
stroke: #5EE200;
stroke-width: 1.262;
stroke-linecap: butt;
stroke-linejoin: miter;
}
.g3_715{
fill: none;
stroke: #5EE200;
stroke-width: 0.73;
stroke-linecap: butt;
stroke-linejoin: miter;
}
.g4_715{
fill: none;
stroke: #02B5EE;
stroke-width: 0.73;
stroke-linecap: butt;
stroke-linejoin: miter;
}
]]></style>
</defs>
<path d="M193,83.4h900.3M193,210.6H926.5m-733.5,0H926.5M582.2,240.2V211m0,58.5V240.2m0,114.3v-85" class="g0_715"/>
<path d="M658.4,330.5h93.5" class="g1_715"/>
<path d="M762.4,330.5h22.5" class="g2_715"/>
<path d="M582.2,383.7V354.5m0,102.3V383.7" class="g0_715"/>
<path d="M661.1,442.9h34.4" class="g3_715"/>
<path d="M848,442.9h67.6" class="g4_715"/>
<path d="M582.2,486V456.8m0,58.4V486m0,59.4V515.2m0,115.2v-85" class="g0_715"/>
<path d="M659.9,606.4h93.6" class="g1_715"/>
<path d="M764,606.4h22.2m10.5,0H915.6" class="g2_715"/>
<path d="M582.2,659.6V630.4m0,58.5V659.6m0,58.5V688.9M193,718.4H926.5m-733.5,0H926.5" class="g0_715"/>
</svg>