<?xml version="1.0" encoding="UTF-8" standalone="no"?>
<!DOCTYPE svg PUBLIC "-//W3C//DTD SVG 1.1//EN"
"http://www.w3.org/Graphics/SVG/1.1/DTD/svg11.dtd">
<svg viewBox="0 0 1286 909" version="1.1" xmlns="http://www.w3.org/2000/svg" xmlns:xlink="http://www.w3.org/1999/xlink">
<defs>
<style type="text/css"><![CDATA[
.g0_781{
fill: none;
stroke: #000000;
stroke-width: 0.73;
stroke-linecap: butt;
stroke-linejoin: miter;
}
.g1_781{
fill: none;
stroke: #02B5EE;
stroke-width: 1.262;
stroke-linecap: butt;
stroke-linejoin: miter;
}
.g2_781{
fill: none;
stroke: #FFA313;
stroke-width: 1.262;
stroke-linecap: butt;
stroke-linejoin: miter;
}
.g3_781{
fill: none;
stroke: #FFA313;
stroke-width: 0.73;
stroke-linecap: butt;
stroke-linejoin: miter;
}
.g4_781{
fill: none;
stroke: #02B5EE;
stroke-width: 0.73;
stroke-linecap: butt;
stroke-linejoin: miter;
}
]]></style>
</defs>
<path d="M193,83.4h900.3M193,111.6h898.5m-898.5,0h898.5M430.3,141.2V112m0,58.5V141.2m0,114.3v-85" class="g0_781"/>
<path d="M809.8,231.5h34.6" class="g1_781"/>
<path d="M854.9,231.5h94.6" class="g2_781"/>
<path d="M430.3,284.7V255.5m0,102.3V284.7" class="g0_781"/>
<path d="M996.1,343.9h50.6" class="g3_781"/>
<path d="M1046.7,343.9h33.8" class="g4_781"/>
<path d="M430.3,387V357.8m0,58.4V387m0,114.2v-85" class="g0_781"/>
<path d="M828.8,477.3h34.6" class="g1_781"/>
<path d="M873.9,477.3h206.6" class="g2_781"/>
<path d="M430.3,530.5V501.2m0,102.3v-73" class="g0_781"/>
<path d="M746.6,589.6h300.1" class="g3_781"/>
<path d="M1046.7,589.6h33.8" class="g4_781"/>
<path d="M430.3,634.9V603.5m0,60.6V634.9m0,58.4V664.1m0,58.4V693.3M193,722.9h898.5m-898.5,0h898.5" class="g0_781"/>
</svg>