<?xml version="1.0" encoding="UTF-8" standalone="no"?>
<!DOCTYPE svg PUBLIC "-//W3C//DTD SVG 1.1//EN"
"http://www.w3.org/Graphics/SVG/1.1/DTD/svg11.dtd">
<svg viewBox="0 0 1286 909" version="1.1" xmlns="http://www.w3.org/2000/svg" xmlns:xlink="http://www.w3.org/1999/xlink">
<defs>
<style type="text/css"><![CDATA[
.g0_806{
fill: none;
stroke: #000000;
stroke-width: 0.73;
stroke-linecap: butt;
stroke-linejoin: miter;
}
.g1_806{
fill: none;
stroke: #02B5EE;
stroke-width: 1.262;
stroke-linecap: butt;
stroke-linejoin: miter;
}
.g2_806{
fill: none;
stroke: #5EE200;
stroke-width: 1.262;
stroke-linecap: butt;
stroke-linejoin: miter;
}
.g3_806{
fill: none;
stroke: #5EE200;
stroke-width: 0.73;
stroke-linecap: butt;
stroke-linejoin: miter;
}
.g4_806{
fill: none;
stroke: #02B5EE;
stroke-width: 0.73;
stroke-linecap: butt;
stroke-linejoin: miter;
}
]]></style>
</defs>
<path d="M193,83.4h900.3M193,210.6H664.1m-471.1,0H664.1M382.7,240.2V211m0,58.5V240.2m0,114.3v-85" class="g0_806"/>
<path d="M464.9,330.5h35.7" class="g1_806"/>
<path d="M511.1,330.5h142" class="g2_806"/>
<path d="M382.7,383.7V354.5m0,102.3V383.7" class="g0_806"/>
<path d="M478.1,442.9h84.5" class="g3_806"/>
<path d="M568.7,442.9h84.4" class="g4_806"/>
<path d="M382.7,486V456.8m0,58.4V486m0,114.2v-85" class="g0_806"/>
<path d="M459.8,576.2h40.8" class="g1_806"/>
<path d="M511.1,576.2h142" class="g2_806"/>
<path d="M382.7,629.5V600.2m0,102.3v-73" class="g0_806"/>
<path d="M393.7,688.6h84.4" class="g3_806"/>
<path d="M484.2,688.6H653.1" class="g4_806"/>
<path d="M382.7,731.7V702.5M193,732.1H664.1m-471.1,0H664.1" class="g0_806"/>
</svg>