<?xml version="1.0" encoding="UTF-8" standalone="no"?>
<!DOCTYPE svg PUBLIC "-//W3C//DTD SVG 1.1//EN"
"http://www.w3.org/Graphics/SVG/1.1/DTD/svg11.dtd">
<svg viewBox="0 0 1286 909" version="1.1" xmlns="http://www.w3.org/2000/svg" xmlns:xlink="http://www.w3.org/1999/xlink">
<defs>
<style type="text/css"><![CDATA[
.g0_121{
fill: none;
stroke: #000000;
stroke-width: 0.73;
stroke-linecap: butt;
stroke-linejoin: miter;
}
.g1_121{
fill: none;
stroke: #02B5EE;
stroke-width: 1.262;
stroke-linecap: butt;
stroke-linejoin: miter;
}
.g2_121{
fill: none;
stroke: #02B5EE;
stroke-width: 0.73;
stroke-linecap: butt;
stroke-linejoin: miter;
}
.g3_121{
fill: none;
stroke: #5EE200;
stroke-width: 1.262;
stroke-linecap: butt;
stroke-linejoin: miter;
}
.g4_121{
fill: none;
stroke: #5EE200;
stroke-width: 0.73;
stroke-linecap: butt;
stroke-linejoin: miter;
}
]]></style>
</defs>
<path d="M193,83.4h900.3M193,111.6h827.1m-827.1,0h827.1M592.4,141.2V112m0,114.3V141.2" class="g0_121"/>
<path d="M794.7,202.3h75.8" class="g1_121"/>
<path d="M592.4,255.5V226.3m0,102.2v-73" class="g0_121"/>
<path d="M975.4,314.7h33.7" class="g2_121"/>
<path d="M592.4,359.9V328.5m0,62.7V359.9m0,60.5V391.2m0,58.4V420.4m0,114.3V449.6" class="g0_121"/>
<path d="M810,510.7H976.2" class="g1_121"/>
<path d="M986.7,510.7h22.4" class="g3_121"/>
<path d="M592.4,564.8V534.7m0,103.2V564.8" class="g0_121"/>
<path d="M833.5,624H868" class="g4_121"/>
<path d="M874,624h135.1" class="g2_121"/>
<path d="M592.4,667.1V637.9m0,58.4V667.1M193,696.7h827.1m-827.1,0h827.1" class="g0_121"/>
</svg>