<?xml version="1.0" encoding="UTF-8" standalone="no"?>
<!DOCTYPE svg PUBLIC "-//W3C//DTD SVG 1.1//EN"
"http://www.w3.org/Graphics/SVG/1.1/DTD/svg11.dtd">
<svg viewBox="0 0 909 1286" version="1.1" xmlns="http://www.w3.org/2000/svg" xmlns:xlink="http://www.w3.org/1999/xlink">
<defs>
<style type="text/css"><![CDATA[
.g0_7{
fill: none;
stroke: #000000;
stroke-width: 0.73;
stroke-linecap: butt;
stroke-linejoin: miter;
}
.g1_7{
fill: none;
stroke: #F81693;
stroke-width: 0.73;
stroke-linecap: butt;
stroke-linejoin: miter;
}
.g2_7{
fill: none;
stroke: #02B5EE;
stroke-width: 0.73;
stroke-linecap: butt;
stroke-linejoin: miter;
}
.g3_7{
fill: none;
stroke: #02B5EE;
stroke-width: 1.461;
stroke-linecap: butt;
stroke-linejoin: miter;
}
.g4_7{
fill: none;
stroke: #999999;
stroke-width: 2.191;
stroke-linecap: butt;
stroke-linejoin: miter;
}
.g5_7{
fill: #FFFFFF;
}
.g6_7{
fill: #FDE8E9;
}
]]></style>
</defs>
<path d="M116.9,179.9H828.2M343.8,209.5V180.3m-87.7,29.9l31.3,18.6m0,36.8V229m-31.3,55.4l31.3,-18.7m-31.3,18.7L224.9,265.7m0,-.1V229m31.2,-18.8l-31.2,18.6M193.7,210.2l31.2,18.6m-31.2,55.6l31.2,-18.7m-31.2,18.7L162.4,265.7m0,-.1V229m31.3,-18.8l-31.3,18.6m94.8,-10.9l23,13.7m-23,45.1l23,-13.7m-87.6,13.7L169.5,263m23.1,-45.1l-23.1,13.7m49.4,29.2v-27M287.4,229l21.9,-13.1m34.5,75.4V209.5" class="g0_7"/>
<path d="M526.8,214l18.3,11m6.6,33.2v-20m-24.9,42.3l18.3,-10.9m-31,10.9L488.9,265.6m.3,0V229m24.9,-15l-24.9,14.8M464.4,214l24.8,14.8m-24.8,51.7l25.2,-14.9m-38,14.9L433.3,269.6m-6.5,-11.4v-20M451.6,214l-18.3,11m93.5,-4.9L545.1,231m-18.3,42.4l18.3,-10.9m-61.9,-1.7v-27M451.6,220.1L433.3,231m18.3,42.4L433.3,262.5" class="g1_7"/>
<path d="M557.2,224.6l18.2,-10.9" class="g2_7"/>
<path d="M343.8,320.5V291.3m0,58.5V320.5" class="g0_7"/>
<path d="M552.5,348.3c1.4,0,2.1,-2.7,3.4,-2.7c1,0,1.9,1.3,2.8,2.7c.9,1.4,1.7,2.7,2.7,2.7c1,0,1.9,-1.3,2.8,-2.7c.9,-1.4,1.7,-2.7,2.7,-2.7c1.4,0,2.1,2.7,3.4,2.7h3.9" class="g3_7"/>
<path d="M795.8,343.8L780.5,329.5m0,14.3l15.3,-14.3" class="g4_7"/>
<path d="M343.8,379V349.8m0,104.9V379" class="g0_7"/>
<path d="M421.4,446.9V386.8c0,-2.9,2.3,-5.2,5.2,-5.2H633.2c2.9,0,5.2,2.3,5.2,5.2v60.1c0,2.9,-2.3,5.2,-5.2,5.2H426.6c-2.9,0,-5.2,-2.3,-5.2,-5.2Z" class="g5_7"/>
<path d="M496.7,477.9H563V461.2H496.7v16.7Z" class="g6_7"/>
<path d="M447.4,436.5h165V397.2h-165v39.3Z" class="g6_7"/>
<path d="M343.8,483.9V454.7m0,58.5V483.9M116.9,513.5H828.2M343.8,543.1V513.9M157.1,589.5l-31.2,18.6m31.2,-18.6l31.3,18.6m-31.3,55.6L125.9,645m31.2,18.7L188.4,645m0,-.1V608.3m-62.5,36.6V608.3m93.7,-18.8l-31.2,18.6m31.2,-18.6l31.2,18.6m-31.2,55.6L188.4,645m31.2,18.7L250.8,645m0,-.1V608.3m31.3,-18.8l-31.3,18.6m31.3,-18.6l31.2,18.6m0,36.8V608.3m-31.2,55.4L313.3,645m-31.2,18.7L250.8,645m32.4,-47.8l23,13.7m-23,45.1l23,-13.7M220.7,656l-23,-13.7m23,-45.1l-23,13.7M156,656L133,642.3m23,-45.1l-23,13.7m123.5,29.2v-27m25.6,-23.6V563.9m61.7,97.6V543.1" class="g0_7"/>
<path d="M526.8,593.3l24.9,14.8m0,36.8V608.3m-24.9,51.5l25.3,-14.9m-38,14.9L488.9,644.9m.3,0V608.3m24.9,-15l-24.9,14.8M464.4,593.3l24.8,14.8m-24.8,51.7l25.2,-14.9m-38,14.9L433.3,648.9m-6.5,-11.4v-20m24.8,-24.2l-18.3,11m18.3,-4.9l-18.3,10.9m18.3,42.4l-18.3,-11m93.5,-40.1l18.3,10.9m-18.3,39.1l18.3,-10.9m-61.9,-.6v-27M589.3,593.3l18.3,11m6.6,33.2v-20m-24.9,42.3l18.3,-10.9m-31.1,10.9L551.3,644.9m25.2,-51.6l-24.8,14.8m37.6,-8.7l18.3,10.9m-18.3,42.4l18.3,-11" class="g1_7"/>
<path d="M520.5,584V563.9" class="g2_7"/>
<path d="M343.8,690.7V661.5m0,58.4V690.7" class="g0_7"/>
<path d="M539,718.5c1.4,0,2.1,-2.8,3.5,-2.8c.9,0,1.8,1.4,2.7,2.8c.9,1.4,1.7,2.7,2.7,2.7c1,0,1.9,-1.3,2.8,-2.7c.9,-1.4,1.7,-2.8,2.7,-2.8c1.4,0,2.1,2.8,3.4,2.8h3.9" class="g3_7"/>
<path d="M772.9,714L757.6,699.7m0,14.3l15.3,-14.3" class="g4_7"/>
<path d="M343.8,749.1V719.9m0,98.7V749.1" class="g0_7"/>
<path d="M421.4,810.8V756.9c0,-2.8,2.3,-5.2,5.2,-5.2H610.1c2.9,0,5.2,2.4,5.2,5.2v53.9c0,2.8,-2.3,5.2,-5.2,5.2H426.6c-2.9,0,-5.2,-2.4,-5.2,-5.2Z" class="g5_7"/>
<path d="M485.2,841.7h66.3V825H485.2v16.7Z" class="g6_7"/>
<path d="M447.4,800.4H589.3V767.3H447.4v33.1Z" class="g6_7"/>
<path d="M343.8,847.8V818.6m0,58.4V847.8M116.9,877.4H828.2" class="g0_7"/>
</svg>