<?xml version="1.0" encoding="UTF-8" standalone="no"?>
<!DOCTYPE svg PUBLIC "-//W3C//DTD SVG 1.1//EN"
"http://www.w3.org/Graphics/SVG/1.1/DTD/svg11.dtd">
<svg viewBox="0 0 909 1286" version="1.1" xmlns="http://www.w3.org/2000/svg" xmlns:xlink="http://www.w3.org/1999/xlink">
<defs>
<style type="text/css"><![CDATA[
.g0_8{
fill: none;
stroke: #000000;
stroke-width: 0.73;
stroke-linecap: butt;
stroke-linejoin: miter;
}
.g1_8{
fill: none;
stroke: #F81693;
stroke-width: 0.73;
stroke-linecap: butt;
stroke-linejoin: miter;
}
.g2_8{
fill: none;
stroke: #02B5EE;
stroke-width: 0.73;
stroke-linecap: butt;
stroke-linejoin: miter;
}
.g3_8{
fill: none;
stroke: #02B5EE;
stroke-width: 1.461;
stroke-linecap: butt;
stroke-linejoin: miter;
}
.g4_8{
fill: #FFFFFF;
}
.g5_8{
fill: #FDE8E9;
}
]]></style>
</defs>
<path d="M116.9,179.9H777M389.5,209.5V180.3" class="g0_8"/>
<path d="M247,275.2l31.2,-18.6M247,275.2L215.8,256.6m-31.3,18.6l31.3,-18.6" class="g1_8"/>
<path d="M184.5,275.2L159.7,260.4" class="g0_8"/>
<path d="M245.9,267.6l-23,-13.7" class="g1_8"/>
<path d="M278.2,256.4l24.9,14.8M276,256.4V230.8m4.4,25.6V230.8m-98.1,44.4v25.6m4.4,-25.6v25.6m202.8,27V209.5" class="g0_8"/>
<path d="M566.1,271.4l18.3,-11m-31.1,11l-18.2,-11m-31.4,11l18.2,-11" class="g1_8"/>
<path d="M490.9,271.4l-18.3,-11" class="g2_8"/>
<path d="M553.3,264.3l-18.2,-11" class="g1_8"/>
<path d="M597.4,260.3l18.2,10.9M588.8,250.9V230.8m4.4,20.1V230.8m-98.1,49.9v20.1m4.4,-20.1v20.1" class="g2_8"/>
<path d="M389.5,357.1V327.8m0,58.5V357.1" class="g0_8"/>
<path d="M651.9,384.8c1.3,0,2,-2.7,3.4,-2.7c1,0,1.8,1.3,2.7,2.7c.9,1.4,1.8,2.8,2.8,2.8c1,0,1.8,-1.4,2.7,-2.8c.9,-1.4,1.8,-2.7,2.8,-2.7c1.3,0,2,2.7,3.4,2.7h4.1" class="g3_8"/>
<path d="M389.5,415.5V386.3m0,105.7V415.5" class="g0_8"/>
<path d="M467.1,484.2V423.3c0,-2.9,2.3,-5.2,5.2,-5.2H641.5c2.9,0,5.2,2.3,5.2,5.2v60.9c0,2.9,-2.3,5.2,-5.2,5.2H472.3c-2.9,0,-5.2,-2.3,-5.2,-5.2Z" class="g4_8"/>
<path d="M522,512.7h69.8V498.5H522v14.2Z" class="g5_8"/>
<path d="M493,473.8H620.7V433.7H493v40.1Z" class="g5_8"/>
<path d="M389.5,521.3V492M116.9,521.6H777M389.5,551.2V522M178.1,606l14.5,-23.9M252.3,606L237.9,582.1" class="g0_8"/>
<path d="M252.3,606l-18.8,31.2m-36.6,0h36.6M178.1,606l18.8,31.2m4.8,-6h27m15.9,-26.3L233.3,586.1" class="g1_8"/>
<path d="M244.6,604.9L233.3,586.1m-55.2,22.1H152.6m25.5,-4.4H152.6m99.7,2.2h25.6m111.6,45.3V551.2" class="g0_8"/>
<path d="M495.3,598.7l11.3,-18.8m54.1,18.8L549.3,579.9" class="g2_8"/>
<path d="M560.7,613.3l-11.4,18.8M517,637.2h21.9M495.3,613.3l11.3,18.8m10.4,-.9h20.1m17.5,-31.8L543.3,580.6" class="g1_8"/>
<path d="M554.6,599.4L543.3,580.6m-57.9,27.6H465.3m20.1,-4.4H465.3M570.5,606h20.1" class="g2_8"/>
<path d="M389.5,680.5V651.3m0,58.5V680.5" class="g0_8"/>
<path d="M620.3,708.3c1.4,0,2,-2.7,3.4,-2.7c1,0,1.9,1.3,2.8,2.7c.8,1.4,1.7,2.7,2.7,2.7c1,0,1.8,-1.3,2.7,-2.7c.9,-1.4,1.8,-2.7,2.8,-2.7c1.3,0,2,2.7,3.4,2.7h4.2" class="g3_8"/>
<path d="M389.5,739V709.8m0,105.7V739" class="g0_8"/>
<path d="M467.1,807.7V746.8c0,-2.9,2.3,-5.2,5.2,-5.2H670.7c2.9,0,5.2,2.3,5.2,5.2v60.9c0,2.9,-2.3,5.2,-5.2,5.2H472.3c-2.9,0,-5.2,-2.3,-5.2,-5.2Z" class="g4_8"/>
<path d="M539.8,836.2h63.3V822H539.8v14.2Z" class="g5_8"/>
<path d="M493,797.3H649.9V757.2H493v40.1Z" class="g5_8"/>
<path d="M389.5,844.7V815.5M116.9,845.1H777M389.5,874.7V845.5M256.1,925.6l31.3,18.7M256.1,925.6l-31.2,18.7M193.7,925.6l31.2,18.7M193.7,925.6l-24.9,14.8M318.6,925.6l24.8,14.8M318.6,925.6l-31.2,18.7m29,-18.7V900.1m4.4,25.5V900.1M191.5,925.6V900.1m4.3,25.5V900.1m193.7,56.4V874.7" class="g0_8"/>
<path d="M575.3,929.5l18.2,10.9m-31,-10.9l-18.3,10.9M512.8,929.5l18.3,10.9" class="g1_8"/>
<path d="M500,929.5l-18.3,10.9m156,-10.9L656,940.4" class="g2_8"/>
<path d="M625,929.5l-18.3,10.9" class="g1_8"/>
<path d="M629.2,920.2V900.1m4.3,20.1V900.1M504.2,920.2V900.1m4.4,20.1V900.1" class="g2_8"/>
<path d="M389.5,985.7V956.5m0,58.5V985.7" class="g0_8"/>
<path d="M512.7,1013.5c1.3,0,2,-2.7,3.4,-2.7c1,0,1.9,1.3,2.7,2.7c.9,1.4,1.8,2.7,2.8,2.7c1,0,1.8,-1.3,2.7,-2.7c.9,-1.4,1.8,-2.7,2.8,-2.7c1.3,0,2,2.7,3.4,2.7h4.1" class="g3_8"/>
<path d="M389.5,1044.2V1015m0,105.7v-76.5" class="g0_8"/>
<path d="M467.1,1112.9V1052c0,-2.9,2.3,-5.2,5.2,-5.2H670.7c2.9,0,5.2,2.3,5.2,5.2v60.9c0,2.9,-2.3,5.2,-5.2,5.2H472.3c-2.9,0,-5.2,-2.3,-5.2,-5.2Z" class="g4_8"/>
<path d="M537.3,1143.6h68.4v-16.4H537.3v16.4Z" class="g5_8"/>
<path d="M493,1102.5H649.9v-40.1H493v40.1Z" class="g5_8"/>
<path d="M389.5,1149.9v-29.2m-272.6,29.6H777" class="g0_8"/>
</svg>