<?xml version="1.0" encoding="UTF-8" standalone="no"?>
<!DOCTYPE svg PUBLIC "-//W3C//DTD SVG 1.1//EN"
"http://www.w3.org/Graphics/SVG/1.1/DTD/svg11.dtd">
<svg viewBox="0 0 1286 909" version="1.1" xmlns="http://www.w3.org/2000/svg" xmlns:xlink="http://www.w3.org/1999/xlink">
<defs>
<style type="text/css"><![CDATA[
.g0_1115{
fill: none;
stroke: #000000;
stroke-width: 0.73;
stroke-linecap: butt;
stroke-linejoin: miter;
}
.g1_1115{
fill: #E6CEEE;
}
]]></style>
</defs>
<path d="M193,83.4h900.3M193,210.6H804.2m-611.2,0H804.2M414.6,240.2V211m0,58.5V240.2m0,59.4V269.5m0,59.3V299.6m0,58.5V328.8m0,59.4V358.1m0,59.4V388.2m0,58.5V417.5m0,59.4V446.7m0,59.4V476.9m0,58.4V506.1m0,64V535.3" class="g0_1115"/>
<path d="M591.1,570.1h72.8V537.2H591.1v32.9Z" class="g1_1115"/>
<path d="M414.6,599.3V570.1m0,62.1V599.3" class="g0_1115"/>
<path d="M748.5,632.2h44.7V599.3H748.5v32.9Z" class="g1_1115"/>
<path d="M414.6,663.5V632.2m0,60.6V663.5m0,58.5V692.8m0,58.4V722M193,751.6H804.2m-611.2,0H804.2" class="g0_1115"/>
</svg>