<?xml version="1.0" encoding="UTF-8" standalone="no"?>
<!DOCTYPE svg PUBLIC "-//W3C//DTD SVG 1.1//EN"
"http://www.w3.org/Graphics/SVG/1.1/DTD/svg11.dtd">
<svg viewBox="0 0 909 1286" version="1.1" xmlns="http://www.w3.org/2000/svg" xmlns:xlink="http://www.w3.org/1999/xlink">
<defs>
<clipPath id="c0_52"><path d="M119.5,821.7V788.1H789.9v33.6Z"/></clipPath>
<style type="text/css"><![CDATA[
.g0_52{
fill: none;
stroke: #000000;
stroke-width: 0.73;
stroke-linecap: butt;
stroke-linejoin: miter;
}
.g1_52{
fill: #7F7F7F;
fill-opacity: 0.01;
}
.g2_52{
fill: #7F7F7F;
fill-opacity: 0.02;
}
.g3_52{
fill: #7F7F7F;
fill-opacity: 0.04;
}
.g4_52{
fill: #7F7F7F;
fill-opacity: 0.07;
}
.g5_52{
fill: #7F7F7F;
fill-opacity: 0.11;
}
.g6_52{
fill: #FFFFFF;
}
.g7_52{
fill: #CBCEFB;
}
.g8_52{
fill: #E81A58;
}
.g9_52{
fill: #401A1A;
}
.ga_52{
fill: #7F7F7F;
}
.gb_52{
fill: #00AEEF;
}
]]></style>
</defs>
<path d="M116.9,159.9H792.5" class="g0_52"/>
<path d="M122.2,184.8c221.7,0,443.4,0,665,0V466.6c-221.6,-9.4,-443.3,-9.4,-665,0Z" class="g1_52"/>
<path d="M122.9,185.4c221.2,0,442.4,0,663.7,0V465.9c-221.3,-9.3,-442.5,-9.3,-663.7,0Z" class="g2_52"/>
<path d="M123.5,186.1c220.8,0,441.6,0,662.5,0V465.3C565.1,456,344.3,456,123.5,465.3Z" class="g3_52"/>
<path d="M124.1,186.7c220.4,0,440.8,0,661.2,0v278c-220.4,-9.4,-440.8,-9.4,-661.2,0Z" class="g4_52"/>
<path d="M124.7,187.3c220,0,440,0,660,0V464.1c-220,-9.4,-440,-9.4,-660,0Z" class="g5_52"/>
<path d="M125.4,187.9c219.5,0,439.1,0,658.7,0V463.4c-219.6,-9.3,-439.2,-9.3,-658.7,0Z" class="g5_52"/>
<path d="M126,188.6c219.1,0,438.3,0,657.5,0V462.8c-219.2,-9.3,-438.4,-9.3,-657.5,0Z" class="g4_52"/>
<path d="M126.6,189.2c218.8,0,437.5,0,656.3,0v273c-218.8,-9.4,-437.5,-9.4,-656.3,0Z" class="g3_52"/>
<path d="M127.2,189.8c218.4,0,436.7,0,655,0V461.6c-218.3,-9.4,-436.6,-9.4,-655,0Z" class="g2_52"/>
<path d="M127.9,190.4c217.9,0,435.8,0,653.7,0V460.9c-217.9,-9.3,-435.8,-9.3,-653.7,0Z" class="g1_52"/>
<path d="M116.9,456.3V179.5H792.5V456.3Z" class="g6_52"/>
<path d="M119.5,453.7V182.1H789.9V453.7Z" class="g6_52"/>
<path d="M419.1,198.1h71.3m-71,29.6V198.4" class="g0_52"/>
<path d="M419.8,227.7h69.8V198.4H419.8v29.3Z" class="g7_52"/>
<path d="M490,227.7V198.4M419.1,228h71.3m-71,29.6V228.4M490,257.6V228.4M419.1,258h71.3m-71,29.6V258.4M490,287.6V258.4m-70.9,29.5h71.3m-71,29.6V288.3M490,317.5V288.3m-70.9,29.6h71.3m-71,29.6V318.3M490,347.5V318.3m-70.9,29.5h71.3m-71,29.6V348.2M490,377.4V348.2m-70.9,29.6h71.3m-71,29.6V378.2M490,407.4V378.2m-70.9,29.6h71.3m-71,29.5V408.1M490,437.3V408.1m-70.9,29.6h71.3" class="g0_52"/>
<path d="M116.9,727.1V553.8c0,-21.6,17.6,-39.1,39.2,-39.1H792.5V688c0,21.6,-17.5,39.1,-39.1,39.1Z" class="g8_52"/>
<path d="M119.5,724.5V547.2H789.9V688c0,20.1,-16.3,36.5,-36.5,36.5Z" class="g9_52"/>
<path d="M122.2,790.8c221.7,0,443.4,0,665,0v261.5c-221.6,-9.4,-443.3,-9.4,-665,0Z" class="g1_52"/>
<path d="M122.9,791.5c221.2,0,442.4,0,663.7,0v260.1c-221.3,-9.3,-442.5,-9.3,-663.7,0Z" class="g2_52"/>
<path d="M123.5,792.1c220.8,0,441.6,0,662.5,0V1051c-220.9,-9.3,-441.7,-9.3,-662.5,0Z" class="g3_52"/>
<path d="M124.1,792.7c220.4,0,440.8,0,661.2,0v257.7c-220.4,-9.4,-440.8,-9.4,-661.2,0Z" class="g4_52"/>
<path d="M124.7,793.3c220,0,440,0,660,0v256.5c-220,-9.4,-440,-9.4,-660,0Z" class="g5_52"/>
<path d="M125.4,794c219.5,0,439.1,0,658.7,0v255.1c-219.6,-9.3,-439.2,-9.3,-658.7,0Z" class="g5_52"/>
<path d="M126,794.6c219.1,0,438.3,0,657.5,0v253.9c-219.2,-9.3,-438.4,-9.3,-657.5,0Z" class="g4_52"/>
<path d="M126.6,795.2c218.8,0,437.5,0,656.3,0v252.7c-218.8,-9.4,-437.5,-9.4,-656.3,0Z" class="g3_52"/>
<path d="M127.2,795.8c218.4,0,436.7,0,655,0v251.5c-218.3,-9.4,-436.6,-9.4,-655,0Z" class="g2_52"/>
<path d="M127.9,796.5c217.9,0,435.8,0,653.7,0v250.2c-217.9,-9.4,-435.8,-9.4,-653.7,0Z" class="g1_52"/>
<path d="M116.9,1042V785.5H792.5V1042Z" class="g6_52"/>
<path d="M119.5,1039.4V824.3H789.9v215.1Z" class="g6_52"/>
<path d="M119.5,821.7V788.1H789.9v33.6Z" class="ga_52"/>
<g clip-path="url(#c0_52)">
<image x="119" y="787" width="672" height="34" xlink:href="shade/1.png"/>
</g>
<path d="M659.9,816.5h104V793.3h-104v23.2Z" class="gb_52"/>
<path d="M270.1,873.6H639.4m-369,29.6V874" class="g0_52"/>
<path d="M270.8,903.2h98.6V874H270.8v29.2Z" class="g7_52"/>
<path d="M369.8,903.2V874" class="g0_52"/>
<path d="M370.1,903.2h89.1V874H370.1v29.2Z" class="g7_52"/>
<path d="M459.5,903.2V874" class="g0_52"/>
<path d="M459.9,903.2h89V874h-89v29.2Z" class="g7_52"/>
<path d="M549.3,903.2V874" class="g0_52"/>
<path d="M549.6,903.2h89.1V874H549.6v29.2Z" class="g7_52"/>
<path d="M639,903.2V874M270.1,903.6H639.4m-369,29.6V904m99.4,29.2V904m89.7,29.2V904m89.8,29.2V904M639,933.2V904M270.1,933.6H639.4m-369,29.5V933.9m99.4,29.2V933.9m89.7,29.2V933.9m89.8,29.2V933.9M639,963.1V933.9M270.1,963.5H639.4m-369,29.6V963.9m99.4,29.2V963.9m89.7,29.2V963.9m89.8,29.2V963.9M639,993.1V963.9M270.1,993.5H639.4m-369,29.6V993.8m99.4,29.3V993.8m89.7,29.3V993.8m89.8,29.3V993.8m89.7,29.3V993.8m-368.9,29.6H639.4" class="g0_52"/>
</svg>