<?xml version="1.0" encoding="UTF-8" standalone="no"?>
<!DOCTYPE svg PUBLIC "-//W3C//DTD SVG 1.1//EN"
"http://www.w3.org/Graphics/SVG/1.1/DTD/svg11.dtd">
<svg viewBox="0 0 1286 909" version="1.1" xmlns="http://www.w3.org/2000/svg" xmlns:xlink="http://www.w3.org/1999/xlink">
<defs>
<style type="text/css"><![CDATA[
.g0_786{
fill: none;
stroke: #000000;
stroke-width: 0.73;
stroke-linecap: butt;
stroke-linejoin: miter;
}
.g1_786{
fill: #B3E9FA;
}
.g2_786{
fill: none;
stroke: #02B5EE;
stroke-width: 1.262;
stroke-linecap: butt;
stroke-linejoin: miter;
}
.g3_786{
fill: none;
stroke: #5EE200;
stroke-width: 1.262;
stroke-linecap: butt;
stroke-linejoin: miter;
}
.g4_786{
fill: none;
stroke: #5EE200;
stroke-width: 0.73;
stroke-linecap: butt;
stroke-linejoin: miter;
}
.g5_786{
fill: none;
stroke: #02B5EE;
stroke-width: 0.73;
stroke-linecap: butt;
stroke-linejoin: miter;
}
.g6_786{
fill: #FFCCCC;
}
]]></style>
</defs>
<path d="M193,83.4h900.3M193,111.6h815m-815,0h815M649.2,141.2V112m0,114.3V141.2" class="g0_786"/>
<path d="M727.4,176.5V164.3c0,-2.9,2.3,-5.2,5.2,-5.2h74.6c2.9,0,5.2,2.3,5.2,5.2v12.2c0,2.9,-2.3,5.2,-5.2,5.2H732.6c-2.9,0,-5.2,-2.3,-5.2,-5.2Z" class="g1_786"/>
<path d="M724.8,202.3H815" class="g2_786"/>
<path d="M825.5,202.3H997" class="g3_786"/>
<path d="M649.2,255.5V226.3m0,58.4V255.5m0,114.2v-85" class="g0_786"/>
<path d="M784.2,345.7h81" class="g2_786"/>
<path d="M875.7,345.7H997" class="g3_786"/>
<path d="M649.2,399V369.7m0,102.3V399" class="g0_786"/>
<path d="M878.2,458.1h68.2" class="g4_786"/>
<path d="M946.4,458.1H997" class="g5_786"/>
<path d="M649.2,501.2V472m0,58.5V501.2m0,114.3v-85" class="g0_786"/>
<path d="M778.8,591.5h45.5" class="g2_786"/>
<path d="M834.8,591.5h22.5" class="g3_786"/>
<path d="M878.3,579.8H997V546.9H878.3v32.9Z" class="g6_786"/>
<path d="M649.2,644.7V615.5m0,102.3V644.7" class="g0_786"/>
<path d="M747.6,703.9h34.5" class="g4_786"/>
<path d="M788.1,694H912.6V661.2H788.1V694Z" class="g6_786"/>
<path d="M912.6,703.9H997" class="g5_786"/>
<path d="M649.2,747V717.8M193,747.4h815m-815,0h815" class="g0_786"/>
</svg>