<?xml version="1.0" encoding="UTF-8" standalone="no"?>
<!DOCTYPE svg PUBLIC "-//W3C//DTD SVG 1.1//EN"
"http://www.w3.org/Graphics/SVG/1.1/DTD/svg11.dtd">
<svg viewBox="0 0 1286 909" version="1.1" xmlns="http://www.w3.org/2000/svg" xmlns:xlink="http://www.w3.org/1999/xlink">
<defs>
<style type="text/css"><![CDATA[
.g0_746{
fill: none;
stroke: #000000;
stroke-width: 0.73;
stroke-linecap: butt;
stroke-linejoin: miter;
}
.g1_746{
fill: none;
stroke: #02B5EE;
stroke-width: 1.262;
stroke-linecap: butt;
stroke-linejoin: miter;
}
.g2_746{
fill: #FFCCCC;
}
.g3_746{
fill: none;
stroke: #02B5EE;
stroke-width: 0.73;
stroke-linecap: butt;
stroke-linejoin: miter;
}
.g4_746{
fill: #B3E9FA;
}
.g5_746{
fill: none;
stroke: #5EE200;
stroke-width: 1.262;
stroke-linecap: butt;
stroke-linejoin: miter;
}
]]></style>
</defs>
<path d="M193,83.4h900.3M193,111.6H1281.1M193,111.6H1281.1M666.8,141.2V112m0,114.3V141.2" class="g0_746"/>
<path d="M1059.7,202.3h87.6" class="g1_746"/>
<path d="M1168.4,190.6h101.7V157.7H1168.4v32.9Z" class="g2_746"/>
<path d="M666.8,255.5V226.3m0,102.2v-73" class="g0_746"/>
<path d="M1077.4,304.8h125.2V271.9H1077.4v32.9Z" class="g2_746"/>
<path d="M1202.6,314.7h67.5" class="g3_746"/>
<path d="M666.8,359.9V328.5m0,60.6V359.9m0,58.4V389.1" class="g0_746"/>
<path d="M443.6,453.6v-5c0,-2.9,2.4,-5.2,5.2,-5.2h68c2.9,0,5.2,2.3,5.2,5.2v5c0,2.8,-2.3,5.2,-5.2,5.2h-68c-2.8,0,-5.2,-2.4,-5.2,-5.2Z" class="g4_746"/>
<path d="M441,479.4h83.6" class="g1_746"/>
<path d="M535.1,479.4H655.8" class="g5_746"/>
<path d="M666.8,503.3v-85m0,114.3V503.3M193,532.9H1281.1M193,532.9H1281.1" class="g0_746"/>
</svg>