<?xml version="1.0" encoding="UTF-8" standalone="no"?>
<!DOCTYPE svg PUBLIC "-//W3C//DTD SVG 1.1//EN"
"http://www.w3.org/Graphics/SVG/1.1/DTD/svg11.dtd">
<svg viewBox="0 0 1286 909" version="1.1" xmlns="http://www.w3.org/2000/svg" xmlns:xlink="http://www.w3.org/1999/xlink">
<defs>
<style type="text/css"><![CDATA[
.g0_1149{
fill: none;
stroke: #000000;
stroke-width: 0.73;
stroke-linecap: butt;
stroke-linejoin: miter;
}
.g1_1149{
fill: none;
stroke: #02B5EE;
stroke-width: 1.262;
stroke-linecap: butt;
stroke-linejoin: miter;
}
.g2_1149{
fill: #FFCCCC;
}
.g3_1149{
fill: none;
stroke: #02B5EE;
stroke-width: 1.461;
stroke-linecap: butt;
stroke-linejoin: miter;
}
.g4_1149{
fill: none;
stroke: #F81693;
stroke-width: 1.461;
stroke-linecap: butt;
stroke-linejoin: miter;
stroke-dasharray: 2,2;
}
.g5_1149{
fill: none;
stroke: #02B5EE;
stroke-width: 0.73;
stroke-linecap: butt;
stroke-linejoin: miter;
}
.g6_1149{
fill: none;
stroke: #5EE200;
stroke-width: 1.262;
stroke-linecap: butt;
stroke-linejoin: miter;
}
]]></style>
</defs>
<path d="M193,83.4h900.3M193,111.6H1209.8M193,111.6H1209.8M696.5,141.2V112m0,114.3V141.2" class="g0_1149"/>
<path d="M846.2,202.3h76.6" class="g1_1149"/>
<path d="M973,190.6h59.5V157.7H973v32.9Z" class="g2_1149"/>
<path d="M1101.9,188.7c1.4,0,2.1,-2.7,3.5,-2.7c1,0,1.8,1.4,2.7,2.7c.9,1.4,1.7,2.8,2.7,2.8c1,0,1.9,-1.4,2.8,-2.8c.9,-1.3,1.7,-2.7,2.7,-2.7c1,0,1.9,1.4,2.8,2.7c.8,1.4,1.7,2.8,2.7,2.8c1,0,1.9,-1.4,2.7,-2.8c.9,-1.3,1.8,-2.7,2.8,-2.7c1,0,1.9,1.4,2.7,2.7c.9,1.4,1.8,2.8,2.8,2.8c1,0,1.8,-1.4,2.7,-2.8c.9,-1.3,1.7,-2.7,2.7,-2.7c1,0,1.9,1.4,2.8,2.7c.9,1.4,1.7,2.8,2.7,2.8c1,0,1.9,-1.4,2.8,-2.8c.8,-1.3,1.7,-2.7,2.7,-2.7c1,0,1.9,1.4,2.7,2.7c.9,1.4,1.8,2.8,2.8,2.8c1,0,1.9,-1.4,2.7,-2.8c.9,-1.3,1.8,-2.7,2.8,-2.7c1.3,0,2,2.7,3.4,2.7h3.3" class="g3_1149"/>
<path d="M1046.7,184.2H1166" class="g4_1149"/>
<path d="M696.5,255.5V226.3m0,102.2v-73" class="g0_1149"/>
<path d="M850.2,300.4h99.5" class="g4_1149"/>
<path d="M959.5,304.8h166.7V271.9H959.5v32.9Z" class="g2_1149"/>
<path d="M1149.1,314.7h49.8" class="g5_1149"/>
<path d="M696.5,359.9V328.5m0,60.6V359.9m0,58.4V389.1m0,114.2v-85" class="g0_1149"/>
<path d="M1179.2,479.4h19.7" class="g1_1149"/>
<path d="M696.5,532.6V503.3m0,58.5V532.6m0,114.2v-85" class="g0_1149"/>
<path d="M896.4,622.8h35.7" class="g1_1149"/>
<path d="M942.6,622.8H1054" class="g6_1149"/>
<path d="M696.5,676V646.8m0,58.5V676M193,705.6H1209.8M193,705.6H1209.8" class="g0_1149"/>
</svg>