<?xml version="1.0" encoding="UTF-8" standalone="no"?>
<!DOCTYPE svg PUBLIC "-//W3C//DTD SVG 1.1//EN"
"http://www.w3.org/Graphics/SVG/1.1/DTD/svg11.dtd">
<svg viewBox="0 0 909 1286" version="1.1" xmlns="http://www.w3.org/2000/svg" xmlns:xlink="http://www.w3.org/1999/xlink">
<defs>
<style type="text/css"><![CDATA[
.g0_25{
fill: none;
stroke: #000000;
stroke-width: 1.461;
stroke-linecap: butt;
stroke-linejoin: miter;
}
.g1_25{
fill: none;
stroke: #000000;
stroke-width: 0.152;
stroke-linecap: butt;
stroke-linejoin: miter;
}
.g2_25{
fill: none;
stroke: #000000;
stroke-width: 0.73;
stroke-linecap: butt;
stroke-linejoin: miter;
}
.g3_25{
fill: #02B5EE;
stroke: #02B5EE;
stroke-width: 0.66;
stroke-linecap: butt;
stroke-linejoin: round;
stroke-miterlimit: 1;
}
.g4_25{
fill: #7F7F7F;
stroke: #7F7F7F;
stroke-width: 0.66;
stroke-linecap: butt;
stroke-linejoin: round;
stroke-miterlimit: 1;
}
.g5_25{
fill: #FDE8E9;
}
]]></style>
</defs>
<path d="M117.7,622.9V198.5M378.8,180.3H775" class="g0_25"/>
<path d="M117.3,198.5h.7" class="g1_25"/>
<path d="M135.9,180.3h17.9" class="g2_25"/>
<path d="M792.9,198.5h.7" class="g1_25"/>
<path d="M756.3,180.3h17.9m-292.8,325l31.2,18.6m0,36.8V524.1m-31.2,55.4l31.2,-18.7m-31.2,18.7L450.2,560.8m31.2,-55.5l-31.2,18.6M418.9,505.3l31.3,18.6m-31.3,55.6l31.3,-18.7m-31.3,18.7L387.7,560.8m0,-.1V524.1m31.2,-18.8l-31.2,18.6M482.5,513l23,13.7m-23,45.1l23,-13.7M420,571.8l23,-13.7m-49.3,-2.2v-27M420,513l23,13.7" class="g2_25"/>
<path d="M117.3,623.3h.7" class="g1_25"/>
<path d="M135.9,641.6h17.9" class="g2_25"/>
<path d="M792.9,623.3h.7" class="g1_25"/>
<path d="M756.3,641.6h17.9" class="g2_25"/>
<path d="M135.9,641.2H775m18.2,-18.3V198.5M117.7,1130.6V712.1M402.5,693.9H775" class="g0_25"/>
<path d="M117.3,712.1h.7" class="g1_25"/>
<path d="M135.9,693.9h17.9" class="g2_25"/>
<path d="M792.9,712.1h.7" class="g1_25"/>
<path d="M756.3,693.9h17.9M481.4,960.7l31.2,18.6m0,36.8V979.5m-62.4,36.6h62.4M481.4,960.7l-31.2,18.6M418.9,960.7l31.3,18.6m-31.3,55.6l31.3,-18.7m-31.3,18.7l-31.2,-18.7m0,-.1V979.5m31.2,-18.8l-31.2,18.6M420,968.4l23,13.7m-49.3,29.2v-27m26.3,42.9l23,-13.7m63.6,-2.2v-27" class="g2_25"/>
<path d="M486,960.7c0,2,-1.3,3.8,-3.2,4.4c-1.9,.6,-4,-.1,-5.1,-1.7c-1.2,-1.6,-1.2,-3.8,0,-5.4c1.1,-1.6,3.2,-2.3,5.1,-1.7c1.9,.6,3.2,2.4,3.2,4.4Z" class="g3_25"/>
<path d="M517.2,979.5c0,2,-1.2,3.8,-3.1,4.4c-2,.6,-4,0,-5.2,-1.7c-1.2,-1.6,-1.2,-3.8,0,-5.4c1.2,-1.6,3.2,-2.3,5.2,-1.7c1.9,.7,3.1,2.4,3.1,4.4Z" class="g4_25"/>
<path d="M517.2,1016.1c0,2,-1.2,3.7,-3.1,4.4c-2,.6,-4,-.1,-5.2,-1.7c-1.2,-1.6,-1.2,-3.8,0,-5.5c1.2,-1.6,3.2,-2.3,5.2,-1.6c1.9,.6,3.1,2.4,3.1,4.4Z" class="g4_25"/>
<path d="M454.8,1016.1c0,2,-1.3,3.7,-3.2,4.4c-1.9,.6,-4,-.1,-5.2,-1.7c-1.2,-1.6,-1.2,-3.8,0,-5.5c1.2,-1.6,3.3,-2.3,5.2,-1.6c1.9,.6,3.2,2.4,3.2,4.4Z" class="g4_25"/>
<path d="M423.5,1034.9c0,2,-1.2,3.7,-3.2,4.4c-1.9,.6,-3.9,-.1,-5.1,-1.7c-1.2,-1.6,-1.2,-3.8,0,-5.4c1.2,-1.7,3.2,-2.3,5.1,-1.7c2,.6,3.2,2.4,3.2,4.4Z" class="g4_25"/>
<path d="M392.3,1016.1c0,2,-1.3,3.7,-3.2,4.4c-1.9,.6,-4,-.1,-5.2,-1.7c-1.1,-1.6,-1.1,-3.8,0,-5.5c1.2,-1.6,3.3,-2.3,5.2,-1.6c1.9,.6,3.2,2.4,3.2,4.4Z" class="g4_25"/>
<path d="M392.3,979.5c0,2,-1.3,3.8,-3.2,4.4c-1.9,.6,-4,0,-5.2,-1.7c-1.1,-1.6,-1.1,-3.8,0,-5.4c1.2,-1.6,3.3,-2.3,5.2,-1.7c1.9,.7,3.2,2.4,3.2,4.4Z" class="g4_25"/>
<path d="M423.5,960.7c0,2,-1.2,3.8,-3.2,4.4c-1.9,.6,-3.9,-.1,-5.1,-1.7c-1.2,-1.6,-1.2,-3.8,0,-5.4c1.2,-1.6,3.2,-2.3,5.1,-1.7c2,.6,3.2,2.4,3.2,4.4Z" class="g4_25"/>
<path d="M454.8,979.5c0,2,-1.3,3.8,-3.2,4.4c-1.9,.6,-4,0,-5.2,-1.7c-1.2,-1.6,-1.2,-3.8,0,-5.4c1.2,-1.6,3.3,-2.3,5.2,-1.7c1.9,.7,3.2,2.4,3.2,4.4Z" class="g4_25"/>
<path d="M485.8,1116.3H594v-35.2H485.8v35.2Z" class="g5_25"/>
<path d="M117.3,1130.9h.7" class="g1_25"/>
<path d="M135.9,1149.2h17.9" class="g2_25"/>
<path d="M792.9,1130.9h.7" class="g1_25"/>
<path d="M756.3,1149.2h17.9" class="g2_25"/>
<path d="M135.9,1148.8H775m18.2,-18.2V712.1" class="g0_25"/>
</svg>