<?xml version="1.0" encoding="UTF-8" standalone="no"?>
<!DOCTYPE svg PUBLIC "-//W3C//DTD SVG 1.1//EN"
"http://www.w3.org/Graphics/SVG/1.1/DTD/svg11.dtd">
<svg viewBox="0 0 909 1286" version="1.1" xmlns="http://www.w3.org/2000/svg" xmlns:xlink="http://www.w3.org/1999/xlink">
<defs>
<clipPath id="c0_67"><path d="M123.1,425.5V393.8h29.1v31.7Z"/></clipPath>
<clipPath id="c1_67"><path d="M122.9,580.7V546.1H152v34.6Z"/></clipPath>
<clipPath id="c2_67"><path d="M122.9,737.2V702.5H152v34.7Z"/></clipPath>
<clipPath id="c3_67"><path d="M123.1,890.2V858.5h29.1v31.7Z"/></clipPath>
<clipPath id="c4_67"><path d="M122.1,426V393.3H153V426Z"/></clipPath>
<clipPath id="c5_67"><path d="M122.1,581.2V545H153v36.2Z"/></clipPath>
<clipPath id="c6_67"><path d="M122.1,737.7V701.5H153v36.2Z"/></clipPath>
<clipPath id="c7_67"><path d="M122.1,890.7V858H153v32.7Z"/></clipPath>
<style type="text/css"><![CDATA[
.g0_67{
fill: none;
stroke: #000000;
stroke-width: 0.73;
stroke-linecap: butt;
stroke-linejoin: miter;
}
.g1_67{
fill: #FFFFFF;
}
.g2_67{
}
.g3_67{
fill: none;
stroke: #000000;
stroke-width: 0.459;
stroke-linecap: butt;
stroke-linejoin: round;
}
.g4_67{
fill: none;
stroke: #000000;
stroke-width: 0.722;
stroke-linecap: round;
stroke-linejoin: miter;
}
.g5_67{
fill: none;
stroke: #000000;
stroke-width: 0.722;
stroke-linecap: round;
stroke-linejoin: round;
}
.g6_67{
fill: #D40000;
}
.g7_67{
fill: none;
stroke: #000000;
stroke-width: 0.578;
stroke-linecap: round;
stroke-linejoin: miter;
}
.g8_67{
fill: #E9C6AF;
}
.g9_67{
fill: none;
stroke: #695000;
stroke-width: 0.152;
stroke-linecap: round;
stroke-linejoin: round;
}
.ga_67{
fill: none;
stroke: #000000;
stroke-width: 1.461;
stroke-linecap: butt;
stroke-linejoin: miter;
}
.gb_67{
fill: none;
stroke: #000000;
stroke-width: 2.739;
stroke-linecap: butt;
stroke-linejoin: miter;
}
.gc_67{
fill: #868686;
}
.gd_67{
fill: #242628;
}
.ge_67{
fill: #A0A0A0;
}
.gf_67{
fill: #C4956E;
}
.gg_67{
fill: #222426;
}
.gh_67{
fill: #202126;
}
.gi_67{
fill: #252427;
}
.gj_67{
fill: #222924;
}
]]></style>
</defs>
<path d="M116.9,159.9H792.5" class="g0_67"/>
<path d="M117.7,497.1V387H791.8V497.1Z" class="g1_67"/>
<path d="M117.7,497.1V387H791.8V497.1Z" class="ga_67"/>
<g clip-path="url(#c4_67)">
<path clip-path="url(#c0_67)" d="M126.4,419.1c0,0,1.5,-.9,1.2,-1.2c-.1,-.1,-.3,-.1,-.6,-.1c-1.6,.3,-5,2.1,-3.3,4.2c1.4,1.5,6.4,2.3,11.7,1.3c7.3,-1.4,13.5,-5.4,11.1,-8.3c-1.6,-1.9,-6.7,-2.1,-10.8,-2.2c-2.1,0,-6.6,0,-8,-1.7c-.6,-.7,-.5,-1.6,.1,-2.1c1,-.9,3.8,-1.5,4,-1.5c.7,-.1,2.5,-.4,4.6,-.4c1.1,0,2.5,0,3.2,1c.2,.2,.4,.5,.4,.6c0,.1,0,.2,.1,.3c.1,.1,.4,0,.5,0c.5,-.1,1.5,-.5,2,-1c.3,-.3,.8,-.7,0,-1.6c-.9,-1,-2.3,-1.1,-4,-1.1c-2.3,0,-4.1,.3,-4.9,.4c-5.8,1.2,-11.1,4.6,-9,7.1c1.5,1.8,6.3,1.8,9,1.9c3.9,0,8.4,.3,9.8,2c.6,.6,.9,1.8,-.4,2.8c-1.2,1,-4,1.7,-5.8,2.1c-4.4,.8,-9.4,.1,-10.6,-1.3c0,0,-.5,-.6,-.3,-1.2Z" class="g2_67"/>
<path d="M131.5,421.6l-.2,-.3l.3,-4.5q.3,-5.6,.5,-6c.1,-.2,1.6,-2.2,3.3,-4.6c1.7,-2.4,4.3,-6.1,5.9,-8.2c1.5,-2.2,2.8,-4,2.9,-4c.4,0,.1,.4,-1.8,3.2c-1.2,1.6,-3.7,5.2,-5.7,8.1c-2,2.8,-3.6,5.2,-3.6,5.2c0,0,.5,.1,1,.1c2,.2,3.3,.6,4.5,1.2c.6,.3,1,.6,1.5,1.1c.8,.8,1.2,1.4,1.4,2.3c.1,.2,.1,.4,.2,.4c.1,0,.7,-.8,5.2,-7.6c2.4,-3.6,4.5,-6.7,4.6,-6.8c.2,-.2,.4,0,.2,.2c0,.2,-1.5,2.4,-3.2,5.1c-1.8,2.6,-3.8,5.7,-4.5,6.7c-1.5,2.4,-2.1,3.3,-2.3,3.8c-.2,.3,-.3,.4,-.9,.7c-.8,.4,-8.7,3.9,-8.9,4c-.1,0,-.3,0,-.4,-.1Z" class="g2_67"/>
<path d="M135.2,419.6c2.2,-1,4,-1.8,4.6,-2.1c.7,-.3,.7,-.4,.7,-1.4c-.2,-1.7,-1.4,-3,-3.6,-3.7c-1.2,-.4,-4.3,-.9,-4.4,-.7c0,.1,-.1,1.5,-.2,3.2c-.1,1.7,-.2,3.3,-.2,3.6c-.1,1.1,.1,1.4,-.2,2.5c.1,.1,1.8,-.8,1.8,-.8c.1,0,.7,-.3,1.5,-.6Z" class="g2_67"/>
<path d="M131.5,421.6l-.2,-.3l.3,-4.5q.3,-5.6,.5,-6c.1,-.2,1.6,-2.2,3.3,-4.6c1.7,-2.4,4.3,-6.1,5.9,-8.2c1.5,-2.2,2.8,-4,2.9,-4c.4,0,.1,.4,-1.8,3.2c-1.2,1.6,-3.7,5.2,-5.7,8.1c-2,2.8,-3.6,5.2,-3.6,5.2c0,0,.5,.1,1,.1c2,.2,3.3,.6,4.5,1.2c.6,.3,1,.6,1.5,1.1c.8,.8,1.2,1.4,1.4,2.3c.1,.2,.1,.4,.2,.4c.1,0,.7,-.8,5.2,-7.6c2.4,-3.6,4.5,-6.7,4.6,-6.8c.2,-.2,.4,0,.2,.2c0,.2,-1.5,2.4,-3.2,5.1c-1.8,2.6,-3.8,5.7,-4.5,6.7c-1.5,2.4,-2.1,3.3,-2.3,3.8c-.2,.3,-.3,.4,-.9,.7c-.8,.4,-8.7,3.9,-8.9,4c-.1,0,-.3,0,-.4,-.1Zm3.7,-2c2.2,-1,4,-1.8,4.6,-2.1c.7,-.3,.7,-.4,.7,-1.4c-.2,-1.7,-1.4,-3,-3.6,-3.7c-1.2,-.4,-4.3,-.9,-4.4,-.7c0,.1,-.1,1.5,-.2,3.2c-.1,1.7,-.2,3.3,-.2,3.6c-.1,1.1,.1,1.4,-.2,2.5c.1,.1,1.8,-.8,1.8,-.8c.1,0,.7,-.3,1.5,-.6Z" class="g3_67"/>
<path d="M135.3,411l11.2,-16.1m-8.2,17.2L149,396.4" class="g4_67"/>
<path d="M140.4,413.8l10,-14.4l.2,-.4" class="g5_67"/>
<path d="M134.1,410.6c-.4,-.1,-.8,-.2,-.9,-.2c0,0,2.5,-3.6,6.7,-9.6c1.9,-2.7,3.6,-5.2,3.8,-5.5c.2,-.3,.4,-.6,.5,-.6c.1,0,.7,.5,.9,.7c.1,.3,.1,.5,-.1,1.1c-.2,.5,-9.8,14.2,-9.9,14.2c-.1,0,-.5,0,-1,-.1Z" class="g6_67"/>
<path d="M137.6,411.4c-.2,-.2,-.8,-.3,-1.2,-.4l-.7,-.2l.3,-.3c.1,-.2,2.3,-3.4,4.8,-7.1l4.7,-6.6l.5,-.3c.9,-.5,1.6,-.5,2.1,0l.3,.3l-5,7.4c-3.1,4.5,-5.1,7.4,-5.1,7.4c-.1,0,-.4,-.1,-.7,-.2Z" class="g6_67"/>
<path d="M140,412.8c-.2,-.3,-.6,-.6,-.8,-.7c-.2,-.1,-.3,-.2,-.3,-.3c0,-.1,9.4,-13.9,9.8,-14.5c.1,-.1,.5,.3,.8,.7c.3,.4,.3,.5,.4,1c0,.3,0,.6,-.1,.7c-.2,.3,-9.1,13.2,-9.2,13.4q-.2,.1,-.6,-.3Z" class="g6_67"/>
<path d="M141.6,415.4c0,0,-.1,-.3,-.1,-.5c-.1,-.3,-.3,-.6,-.4,-.9l-.3,-.4l4.7,-6.7c2.6,-3.8,4.8,-6.8,4.8,-6.8c.4,0,1,.7,1,1.1c0,.1,-.6,1.2,-1.9,3.1c-1.1,1.5,-3.1,4.6,-4.6,6.8c-3,4.4,-3.1,4.5,-3.2,4.3Z" class="g6_67"/>
<path d="M131.9,416.9c2.3,-.1,3.6,.7,4.1,2.3" class="g7_67"/>
<path d="M132,420.8c0,-.3,.1,-.4,.1,-1.3c0,-.8,0,-.9,0,-1.3c0,-.3,0,-.6,0,-.7l.1,-.3c.1,0,.6,0,.7,0c.4,.1,.8,.2,1.1,.3c.2,0,.4,.2,.6,.3c.2,.1,.3,.2,.4,.4c.3,.2,.4,.4,.6,.7c0,.1,.1,.4,.1,.4c0,.1,-1.5,.7,-1.8,.8c-.1,.1,-.2,.1,-.3,.1c-1.1,.6,-1.4,.8,-1.6,.8Z" class="g2_67"/>
<path d="M136.2,418.7c-.6,-1.2,-1.8,-1.9,-3.4,-2.1h-.6v-.5c.1,-.3,.1,-1.3,.2,-2.2c0,-.9,.1,-1.8,.1,-1.9l.1,-.3l.7,.1c.8,0,2.3,.3,3.1,.5c1.7,.4,3.1,1.4,3.6,2.4c.4,.8,.6,2.1,.3,2.5c-.1,.1,-.8,.4,-2.5,1.2c-1.6,.7,-1.5,.7,-1.6,.3Z" class="g8_67"/>
<path d="M136.2,418.7c-.6,-1.2,-1.8,-1.9,-3.4,-2.1h-.6v-.5c.1,-.3,.1,-1.3,.2,-2.2c0,-.9,.1,-1.8,.1,-1.9l.1,-.3l.7,.1c.8,0,2.3,.3,3.1,.5c1.7,.4,3.1,1.4,3.6,2.4c.4,.8,.6,2.1,.3,2.5c-.1,.1,-.8,.4,-2.5,1.2c-1.6,.7,-1.5,.7,-1.6,.3Z" class="g9_67"/>
</g>
<path d="M152.7,438.6h310" class="g0_67"/>
<path d="M137.6,443.8v43.9" class="gb_67"/>
<path d="M117.7,653.6V538.7H791.8V653.6Z" class="g1_67"/>
<path d="M117.7,653.6V538.7H791.8V653.6Z" class="ga_67"/>
<g clip-path="url(#c5_67)">
<path clip-path="url(#c1_67)" d="M125.6,580.6c-.1,-.1,-.1,-.3,0,-.3c0,-.2,.1,-1.3,0,-1.7c0,-.2,0,-.5,0,-.7c.1,-.9,.3,-2.2,.3,-2.3c0,0,0,-.2,.1,-.5c.1,-.5,.1,-.6,-.1,-1c-.3,-.5,-.9,-2,-1.1,-2.7c-.4,-1.8,-.5,-4.6,-.1,-6.1c.3,-1.1,.5,-1.2,.9,-.5c.3,.7,.4,.5,0,-.3c-.3,-.7,-.6,-2,-.5,-2.4c0,-.2,.2,-.7,.4,-1.1c.2,-.5,.4,-1,.5,-1.2c.1,-.5,.5,-.8,.9,-.6c.1,0,.2,.2,.3,.4q.2,.2,.1,-.3c-.1,-.3,-.2,-.5,-.1,-.6c0,0,0,-.1,0,-.3c.1,-.4,1,-2.1,1.6,-2.7c.3,-.2,.6,-.5,.7,-.7c.1,-.1,.5,-.4,.8,-.7c.3,-.2,.7,-.5,.9,-.7c.4,-.4,.7,-.5,.9,-.3q.2,.2,.2,-.1c0,-.2,0,-.4,0,-.5c.1,-.3,1.5,-1.2,2.1,-1.5c.3,-.2,.6,-.4,.8,-.5c.1,-.1,.3,-.2,.4,-.2c0,0,.4,-.2,.8,-.4c.4,-.2,.9,-.5,1,-.5c.2,-.1,.6,-.3,1,-.4c1.1,-.5,1.6,-.8,2.4,-1.1c.5,-.1,.9,-.3,1,-.3c0,-.1,.1,0,.3,.1l.2,.2l.4,-.4c.6,-.5,1.6,-.8,3.8,-1.1c.9,-.1,2.2,-.3,2.8,-.4l1,-.1l.1,.2q.1,.3,-.3,.5c-2.7,1,-4.6,1.9,-5.6,2.8c-.2,.2,-.4,.4,-.4,.4c-.1,0,-1.5,1.4,-1.5,1.5c0,.1,-.1,.2,-.2,.3c-.3,.2,-.6,.8,-.5,1.1c0,.2,-.1,.3,-.4,.5c-.3,.2,-.4,.4,-.4,.4c.2,.2,0,1,-.2,1.2c-.7,.8,-1.7,2.3,-1.9,2.9c-.1,.1,-.2,.4,-.4,.7c-.2,.4,-.4,.8,-.5,1.1c-.4,1,-.4,.9,-1,1c-.5,0,-1.4,.3,-1.3,.4c0,.1,.4,0,.9,0c1.1,-.2,1.2,-.1,.8,.6c-.4,.8,-.7,1.7,-.7,2.2c0,.3,-.2,.8,-.6,2.3c-.1,.3,-.3,.4,-.7,.7c-.5,.3,-.6,.3,-1.2,.3q-.7,0,-.6,.2c.1,.2,-.1,.5,-.5,1.3c-.3,.7,-.7,1.3,-.8,1.4c-.2,.1,-.4,.4,-.6,.7c-.2,.3,-.4,.6,-.5,.6c0,0,-.2,.1,-.3,.3c-.6,.8,-2.7,2.6,-3,2.6l.3,-3.2c.1,.1,.4,0,.6,-.3c.2,-.4,.5,-.5,1.1,-.6c.5,0,.6,-.1,1,-.5c.2,-.2,.6,-.8,.9,-1.4l.5,-.9l-.5,-.3c-.3,-.1,-.6,-.3,-.7,-.4c-.1,-.2,.4,-1,.7,-1.1c.2,-.1,.5,-.1,.7,-.1c.2,-.1,.5,-.2,.7,-.3c.3,-.2,.5,-.3,.7,-.3c.6,-.1,.8,-.4,.8,-1.3c.1,-.9,.2,-1.1,.5,-1.2c.4,-.2,.7,-.1,.9,.1l.1,.3l.1,-.3c.1,-.3,.1,-.4,-.1,-.4c-.1,0,-.2,0,-.3,-.2c-.1,-.2,-.1,-.3,-.6,-.4c-.6,-.2,-.7,-.3,-.5,-.5c0,-.1,0,-.3,0,-.4c-.1,-.3,.4,-.8,1,-1c.5,-.2,.6,-.3,1.1,-1.3c.3,-.6,.8,-1.2,1,-1.5c.2,-.2,.5,-.5,.6,-.6c.1,-.2,.2,-.3,.4,-.3c.2,0,.4,0,.5,-.1c.2,-.2,.9,-1.2,.8,-1.2c0,0,-.2,.1,-.5,.2c-.8,.3,-1.8,.3,-2,0c-.2,-.4,.4,-1.2,.9,-1.2c.1,-.1,1.1,-.6,1.5,-.8c.1,-.2,.3,-.5,.5,-.8c.3,-.8,.8,-1.4,1.2,-1.5c.5,-.1,.7,-.3,.9,-.8c.2,-.4,.1,-.6,-.4,-.8c-.1,-.1,-.3,-.2,-.4,-.4c0,-.1,-.1,-.2,-.2,-.2c-.3,.1,-3,1.1,-4.1,1.7c-.2,.1,-.5,.3,-.7,.5c-.1,.2,-.5,.6,-.9,.9c-.4,.3,-.9,.7,-1,1c-.1,.2,-.4,.6,-.7,.9c-.4,.4,-.4,.5,-.4,1.2c-.1,.4,0,.9,.1,1.2c.3,.7,.2,1.1,-.3,1c-.5,-.1,-.8,-.4,-1.3,-1.5c-.3,-.6,-.6,-1.1,-.6,-1.1c-.2,0,-.8,.8,-1.1,1.3c-.2,.5,-.3,.6,-.7,.8q-.5,.2,-.7,.7c-.1,.3,-.1,.6,-.1,.8c.1,.1,.1,.2,.1,.3c-.1,.4,-.1,.8,.1,1.2c.2,.3,.3,.7,.3,.8c0,.2,.1,.6,.3,.9c.3,.6,.3,.7,.2,1.2c-.1,.3,-.1,.6,-.1,.8c-.1,.3,-.4,.2,-1.1,-.4c-.5,-.4,-1.2,-1.1,-2,-2.3c-.3,-.4,-.4,-.4,-.3,-.1c0,.1,-.1,.5,-.2,.8c-.2,.7,-.2,1.4,.2,1.8c.2,.3,.8,1.9,.9,2.3c0,.1,0,.4,.1,.5c.1,.2,.1,.9,-.1,1.2c0,.1,0,.3,0,.4c0,.2,-.1,.3,-.2,.3c-.2,0,-.7,-.4,-1,-.7c-.1,-.1,-.3,-.3,-.5,-.5l-.2,-.3l-.1,.2c-.1,.3,0,.8,.1,1.2c.3,.8,.4,2.4,.2,2.9c-.1,.2,-.2,.4,-.4,.5c-.4,.3,-.3,.6,.4,1.5l.4,.5l.1,-.3c.1,-.1,.2,-.6,.3,-.9c.1,-.4,.2,-.9,.3,-1.1c.1,-.1,.2,-.5,.3,-.7q.1,-.6,2.3,-5.3q1,-2.1,1.9,-3.4c.7,-1.1,1.3,-2,1.9,-3c.8,-1.3,.9,-1.6,1.4,-2.1c.3,-.4,.7,-.8,.9,-1.1c.9,-1.1,1.1,-1.4,1.3,-1.3c.1,0,.2,.1,.2,.1c0,0,-.2,.4,-.5,.8c-.3,.5,-.8,1.1,-1,1.6c-.9,1.4,-2.1,3.3,-2.5,3.9c-.2,.4,-.5,.8,-.6,1c-.1,.2,-.4,.6,-.5,.9c-.2,.2,-.3,.5,-.4,.7c0,.3,-.1,.7,-1.1,2.5c-.8,1.6,-1,2,-1.7,3.7c-.5,1.1,-.8,2.2,-.7,2.4l-.3,3.2c-.3,.1,-.5,1.9,-.2,3c.1,.7,.1,1,-.2,1.2c-.6,.5,-1.1,1.2,-1.3,1.7c-.1,.4,-.2,.5,-.4,.5c-.2,.1,-.2,0,-.3,-.1Z" class="gc_67"/>
<path d="M133.1,567.1c-.1,-.1,-.3,-.1,-.4,-.1q-.1,0,0,.1c.1,.1,.3,.1,.4,.1q.2,0,0,-.1Z" class="g1_67"/>
<path d="M144.5,548q0,-.1,-.1,-.1c-.1,0,-.1,.1,-.2,.2q0,.1,.1,.1c.1,0,.2,-.1,.2,-.2Z" class="g1_67"/>
<path d="M125.7,580.6c-.1,0,-.1,-.1,-.1,-.3c.1,-.1,.1,-.8,.1,-1.6c0,-1.4,.1,-2.2,.4,-3.6l.1,-.6l-.5,-.9c-.3,-.6,-.5,-1.3,-.6,-1.7c-.1,-.3,-.3,-.8,-.3,-.9c-.2,-.7,-.3,-2.9,-.3,-4c.1,-1,.5,-2.5,.7,-2.5c.1,0,.2,.1,.4,.5c.5,.8,.7,.8,.3,-.1c-.4,-.8,-.7,-1.8,-.7,-2.4c0,-.5,.5,-2,.9,-2.8c.2,-.3,.3,-.5,.5,-.5q.3,0,.9,.9l.5,.7l-.4,-.7c-.5,-1.2,-.4,-1.7,.3,-2.9c.3,-.6,.6,-1.1,.7,-1.1c.1,-.1,.4,-.4,.6,-.7c.3,-.3,.8,-.8,1.2,-1c.3,-.3,.7,-.6,.9,-.9c.4,-.4,.6,-.4,1,.2l.2,.4l-.1,-.5c-.1,-.8,0,-1,.8,-1.6c.5,-.3,.9,-.6,1,-.6c0,0,.1,0,.1,-.1c0,0,.1,-.1,.3,-.1q.2,0,.2,.1c-.1,.1,-.1,.2,-.2,.2c-.1,0,-.4,.2,-.7,.5c-.4,.3,-.8,.6,-.9,.7c-.3,.1,-.3,.2,-.3,.7c0,.3,.1,.6,.2,.8c.1,.5,.1,1,0,1c-.2,0,-.4,-.2,-.7,-.9l-.3,-.6l-.4,.2c-.1,.2,-.3,.3,-.3,.4c-.1,0,-.3,.2,-.6,.5c-.3,.2,-.6,.4,-.7,.5c-.1,.1,-.3,.4,-.6,.6c-.6,.6,-1.6,2.2,-1.5,2.6c.1,.3,1,2.2,1.7,3.4c.5,.9,.6,1.1,.4,1.1c-.2,-.1,-1.2,-.8,-1.6,-1.4c-.3,-.3,-.6,-.7,-.8,-.9c-.1,-.2,-.3,-.5,-.4,-.7c-.2,-.4,-.4,-.4,-.6,0c-.3,.5,-.8,2.1,-.9,2.5c-.1,.8,.6,2.6,1.5,3.8c.7,1,.7,1.3,-.1,.8c-.3,-.2,-1.3,-1.3,-1.5,-1.6c0,-.1,-.1,-.2,-.1,-.2c-.2,.1,-.4,1.1,-.4,1.7c0,.4,0,.8,-.1,.9c0,.1,0,.7,.1,1.3c.1,.6,.1,1.3,.1,1.5c.1,.7,1,3,1.1,3q.1,0,.1,0c0,-.1,.1,-.6,.3,-1.2c.2,-.6,.3,-1.2,.4,-1.4c0,-.2,.1,-.5,.1,-.5c.1,-.1,.2,-.4,.3,-.7c.1,-.5,.2,-.9,1.1,-2.7c.3,-.6,.7,-1.4,.9,-1.9c.8,-1.7,1.6,-3.2,2.2,-4.2c.7,-1,1.1,-1.6,1.9,-3c.2,-.4,.6,-.8,.7,-1.1c.2,-.2,.3,-.4,.3,-.5c.1,-.1,.3,-.4,.6,-.7c.2,-.3,.6,-.7,.8,-1c.9,-1.2,1.1,-1.4,1.2,-1.3c.2,.1,.2,.2,-.6,1.2c-.2,.3,-.6,.8,-.8,1.2c-.8,1.4,-2.1,3.5,-2.4,3.9c-.6,.8,-1.5,2.5,-1.5,2.7c0,.1,-.5,1.3,-1.2,2.6c-.7,1.3,-1.3,2.7,-1.5,3.1c-.1,.4,-.3,.8,-.3,.8c-.1,.1,-.5,1.3,-.6,1.8c0,.3,-.1,.7,-.1,1c-.2,.7,-.3,2,-.3,2.1c0,0,.1,-.1,.3,-.2c.1,-.1,.3,-.3,.6,-.4c.2,-.2,.5,-.5,.8,-.7c.2,-.3,.4,-.5,.5,-.5c.6,-.6,.9,-1,1.2,-1.5c.3,-.3,.6,-.7,.7,-.8c.3,-.3,1.2,-2,1.2,-2.1c-.1,-.1,-.4,-.3,-.9,-.5c-.9,-.5,-1,-.6,-.8,-.7c.1,-.1,1,0,1.8,.2c.2,.1,.7,.1,1,.1c.9,-.1,1.4,-.4,1.6,-1.1c.1,-.2,.2,-.6,.2,-.7c.1,-.3,.3,-1,.3,-1.6c.1,-.5,.4,-1.3,.6,-1.6l.2,-.3h-.5c-.5,.1,-1.6,-.1,-1.7,-.3c-.1,-.2,.7,-.6,1.6,-.8l.8,-.2l.2,-.6c.2,-.3,.3,-.7,.4,-.8c0,-.2,.1,-.4,.2,-.5c.1,-.1,.3,-.3,.4,-.6c0,-.2,.3,-.6,.4,-.9c1.4,-1.9,1.6,-2.3,1.5,-2.3c-.1,0,-.4,.1,-.6,.2c-.7,.4,-1.5,.4,-1.5,.1c0,-.3,1.8,-1.4,2.7,-1.6q.4,-.1,.4,-.5c0,-.3,.2,-.7,.3,-.8c.1,-.2,.3,-.5,.4,-.7c.3,-.6,2.2,-2.2,3.2,-2.8c.7,-.4,1.8,-1,2.7,-1.4l.7,-.3l-1.6,.2c-2.6,.4,-3.7,.7,-4.4,1.5c-.3,.3,-.4,.4,-.5,.1c-.1,-.2,.6,-.9,1.2,-1.1c.6,-.3,1.7,-.6,2.4,-.7c.4,0,1.5,-.2,2.5,-.3c1.5,-.3,1.8,-.3,1.9,-.2c.4,.2,.3,.3,-.2,.5c-1.1,.5,-2.2,.9,-2.9,1.3c-.7,.3,-2,1,-2.2,1.2c-.1,.1,-.3,.3,-.6,.5c-.9,.8,-1.6,1.5,-1.8,1.8c-.1,.2,-.3,.4,-.4,.6c-.1,.1,-.3,.4,-.3,.6c0,.4,-.1,.5,-.4,.7c-.2,.2,-.5,.3,-.6,.3h-.2l.2,.1c.4,0,.5,.2,.3,.4c0,.1,-.1,.3,-.1,.3c.1,.1,-.1,.4,-.4,.7c-.2,.2,-.5,.6,-.6,.8c-.1,.1,-.3,.5,-.4,.7c-.4,.5,-.6,.9,-.7,1.1c0,.1,-.2,.5,-.4,.8c-.3,.5,-.4,.8,-.7,1.6c-.1,.3,-.2,.4,-.7,.4c-.7,.2,-1.5,.4,-1.4,.5c0,.1,.4,0,.9,0c.8,-.1,.9,-.1,1,0c.1,.1,.1,.3,-.2,.7c-.3,.6,-.7,1.7,-.7,2.1c0,.4,-.3,1.3,-.6,2.2c-.1,.3,-.2,.5,-.6,.7c-.5,.3,-.6,.3,-1.2,.3c-.4,0,-.9,0,-1,0c-.2,-.1,-.5,-.2,-.8,-.2l-.6,-.1l.5,.2c.3,.1,.6,.2,.7,.3q.5,0,.6,.1c.1,.2,-.9,2.1,-1.3,2.5c-.2,.2,-.5,.6,-.7,.8c-.1,.3,-.3,.5,-.4,.6c-.2,.1,-.4,.4,-.6,.6c-.4,.5,-1.3,1.3,-1.7,1.6c-.1,.1,-.4,.3,-.5,.4c-.1,.1,-.3,.3,-.5,.3c-.2,.1,-.3,.3,-.3,.5c-.1,.5,-.1,1.8,-.1,2.1c0,.1,.1,.4,.1,.8c.1,.6,.1,.7,-.2,.9c-.4,.3,-1,1.1,-1.3,1.7c-.1,.3,-.2,.5,-.2,.5c-.1,0,-.2,0,-.3,-.1Z" class="gd_67"/>
<path d="M128.2,560.3q-.1,-.2,-.1,-.1c-.1,.2,0,.3,.1,.3c.1,0,.1,-.1,0,-.2Z" class="gd_67"/>
<path d="M139.7,554.4c.2,-.1,.5,-.3,.7,-.4l.2,-.2l-.3,.1c-.5,.1,-1.4,.5,-1.4,.7c0,.1,.3,0,.8,-.2Z" class="ge_67"/>
<path d="M139.7,554.3c.4,-.2,.6,-.4,.2,-.2c-.3,.1,-.9,.4,-.7,.4c0,0,.3,-.1,.5,-.2Z" class="g1_67"/>
<path d="M134.9,551.1c0,-.1,.6,-.5,.7,-.4q.2,.1,-.1,.2c-.1,.1,-.3,.2,-.4,.2q-.1,.1,-.2,0Z" class="gd_67"/>
<path d="M136.2,550.4c.1,-.1,.2,-.2,.3,-.2q.2,0,.1,.2c-.1,.1,-.2,.1,-.3,.1q-.2,.1,-.1,-.1Z" class="gd_67"/>
<path d="M137.1,549.9c.1,-.2,.6,-.3,.7,-.2c0,.1,-.5,.3,-.7,.3c-.1,.1,-.1,0,0,-.1Z" class="gd_67"/>
<path d="M137.9,549.5c0,0,.8,-.4,1.3,-.6c.3,-.1,.6,-.2,.7,-.3c.4,-.2,1.9,-.8,2.1,-.7c.2,.1,.1,.3,-.2,.3c-.5,.1,-1.7,.5,-3,1.1c-.6,.3,-.8,.4,-.9,.2Z" class="gd_67"/>
<path d="M125.7,580.6c0,-.1,0,-.2,0,-.3c0,0,.1,-.6,.1,-1.2c0,-1.3,0,-1.9,.3,-4l.1,-.6l-.5,-1.1c-.3,-.6,-.5,-1.2,-.6,-1.6c-.1,-.3,-.2,-.7,-.2,-.9c-.3,-1,-.4,-4.1,-.1,-5.2c.1,-.4,.2,-.8,.2,-.9c.1,-.4,.2,-.3,.7,.3c.6,1.1,.9,1,.3,-.1c-.4,-.6,-.8,-2,-.8,-2.6c0,-.3,.6,-1.9,1,-2.7c.1,-.2,.2,-.4,.4,-.4c.2,0,.3,0,.5,.4c.5,.6,.6,.9,.5,.8c-.1,0,-.3,-.2,-.4,-.4c-.4,-.8,-.6,-.6,-1.2,.9c-.7,1.8,-.6,2.3,.7,4.7c.5,.8,.8,1.5,.7,1.5c-.2,.1,-1.4,-1.1,-1.7,-1.6c-.1,-.1,-.2,-.3,-.3,-.3q-.1,-.1,-.2,.1c-.3,.8,-.4,2.5,-.2,4c0,.5,.1,1.2,.1,1.4c0,.5,1,3.1,1.2,3.1c.1,0,.1,-.1,.1,-.3c0,-.1,.1,-.7,.3,-1.3c.2,-.5,.3,-1.1,.4,-1.3c0,-.2,0,-.3,.1,-.3c.1,-.1,.4,-1.2,.4,-1.2c0,-.1,.1,-.4,.2,-.7c.9,-1.8,1.3,-2.7,1.6,-3.5c.8,-1.5,1.6,-3.1,2.3,-4.1c.7,-1.2,1.3,-2.2,1.9,-3.1c.2,-.4,.5,-.8,.7,-1c.1,-.2,.3,-.4,.3,-.5c0,-.1,.6,-.8,.9,-1.1c.1,-.1,.3,-.4,.5,-.6c.6,-1,1,-1.4,1.1,-1.3q.1,0,-.6,.9c-.2,.4,-.7,1,-.9,1.4c-.8,1.4,-2,3.4,-2.3,3.7c-.6,.8,-1.6,2.7,-1.6,2.9c0,.2,-.5,1.3,-1.2,2.6c-.6,1.3,-1.3,2.6,-1.4,3c-.2,.4,-.4,1,-.6,1.4c-.2,.7,-.4,1.4,-.4,1.8c0,.2,-.1,.4,-.1,.7c-.1,.2,-.2,.7,-.2,1.1c-.1,.6,-.1,.8,.1,.8c.1,0,.2,0,.2,-.1c.1,-.1,.3,-.3,.6,-.5c.3,-.2,.5,-.5,.6,-.5c0,-.1,.3,-.3,.5,-.5c.7,-.6,1.1,-1.1,1.5,-1.7c.3,-.3,.6,-.7,.7,-.8c.2,-.2,1.1,-1.8,1.1,-2c0,-.2,-.1,-.2,-.6,-.5c-.7,-.4,-.6,-.4,.1,-.1c.3,.1,.6,.2,.7,.1c.4,-.1,.3,.3,-.2,1.3c-.3,.6,-.7,1.3,-.9,1.4c-.1,.2,-.4,.5,-.6,.8c-.2,.2,-.4,.5,-.5,.6c-.1,.1,-.3,.3,-.5,.5c-.1,.2,-.4,.5,-.6,.6c-.2,.2,-.5,.5,-.6,.6c-.1,.2,-.3,.3,-.3,.3c-.1,0,-.3,.2,-.5,.4c-.2,.2,-.5,.4,-.7,.4c-.2,.1,-.3,.2,-.3,.7c-.1,.3,-.1,.6,-.1,.7c0,0,0,.3,0,.5c0,.3,.1,.7,.1,1c.2,.8,.1,1.1,-.1,1.3c-.4,.3,-1.1,1.2,-1.3,1.8c-.2,.5,-.3,.5,-.5,.4Z" class="gf_67"/>
<path d="M134,567.1c-.4,0,-.8,-.1,-1,-.2c-.2,0,-.4,-.1,-.5,-.1c-.1,0,-.3,0,-.4,-.1c-.1,0,-.3,0,-.4,0c-.1,.1,-.2,0,-.3,0c-.1,-.2,.3,-.2,1.8,.1c1.4,.2,2.5,-.2,2.7,-1c0,-.2,.1,-.6,.2,-.8c.1,-.3,.2,-.6,.2,-.8c.1,-.4,.1,-.8,.3,-1.6c.1,-.3,.2,-.6,.4,-.8c.1,-.1,.2,-.3,.1,-.3c0,-.1,-.2,-.1,-.4,0c-.4,.1,-1.6,-.1,-1.7,-.3c-.1,-.3,.8,-.7,2,-.8c.3,-.1,.4,-.1,.6,-.8c.6,-1.4,1.6,-3.2,2.9,-4.9c.1,-.1,.1,-.2,0,-.3c0,0,-.3,.1,-.7,.2c-.6,.3,-1.3,.4,-1.4,.2c0,-.1,0,-.2,.1,-.2q.2,-.1,.2,.1q.1,.1,.1,.1c.3,0,1.3,-.5,1.6,-.7c.3,-.2,.6,-.3,.6,-.2c.1,.2,-.1,.9,-.2,1c-.2,.1,-.5,.6,-.7,.9c-.1,.1,-.4,.5,-.6,.8c-.3,.6,-.5,.9,-.6,1.2c-.1,.1,-.3,.5,-.4,.8c-.3,.5,-.6,1,-.8,1.6c-.1,.3,-.2,.3,-.7,.4c-.8,.1,-1.6,.4,-1.4,.6c0,.1,.4,0,1,-.1c.8,-.1,.9,-.1,1,.1c0,0,-.1,.3,-.3,.6c-.3,.6,-.6,1.6,-.7,2.1c0,.2,-.1,.6,-.2,.9c-.1,.3,-.2,.7,-.2,.9c-.1,.5,-.4,.9,-.8,1.1c-.6,.3,-.7,.3,-1.4,.3Z" class="gf_67"/>
<path d="M129.6,562.7c-.2,-.1,-.4,-.2,-.5,-.3c-.3,-.2,-1,-1,-1,-1.1c0,-.1,.1,-.1,.1,-.1c.1,0,.5,.4,.6,.5c.1,.1,.2,.2,.2,.2c.1,0,.1,-.1,-.1,-.3c-.1,-.2,-.3,-.5,-.4,-.8c-.1,-.3,-.4,-.9,-.6,-1.4c-.3,-.5,-.5,-1,-.5,-1.1c0,-.1,.2,-.6,.5,-1.1c.6,-1,1.6,-2.1,2.5,-2.8c.4,-.2,.8,-.6,.9,-.8c.4,-.5,.6,-.4,.9,.3c.2,.5,.3,.5,.4,.5c.1,-.1,.2,-.1,.2,-.1c0,0,.1,.2,.1,.4c.1,.6,-.1,.5,-.6,-.3c-.4,-.8,-.5,-.9,-.7,-.6c-.1,.2,-.7,.6,-1.1,.9c-.7,.5,-1.8,1.8,-2.5,3l-.4,.6l.7,1.4c.7,1.5,1.1,2.2,1.5,2.8c.2,.4,.2,.5,-.2,.2Z" class="gf_67"/>
<path d="M128.1,560.8c-.1,-.1,0,-.2,0,-.2c.1,0,.1,.1,.2,.2c0,0,0,.1,0,.1c-.1,0,-.2,0,-.2,-.1Z" class="gf_67"/>
<path d="M127.6,559.8c-.3,-.6,-.2,-.8,0,-.5c.2,.3,.4,.8,.3,1c-.1,0,-.2,-.1,-.3,-.5Z" class="gf_67"/>
<path d="M140.1,553.6c.5,-.2,1.1,-.4,1.2,-.3c.1,.1,-.1,.2,-.8,.4c-.8,.2,-.9,.2,-.4,-.1Z" class="gf_67"/>
<path d="M141.5,553.2c0,-.1,0,-.3,0,-.5c0,-.5,.7,-1.7,1.3,-2.2c1.7,-1.7,3.9,-3,5.7,-3.6c.6,-.2,.6,-.3,-.1,-.2c-.3,.1,-1.3,.2,-2.2,.4c-1,.1,-1.9,.3,-2.1,.3c-.4,.2,-1.2,.7,-1.5,1c-.2,.2,-.3,.3,-.4,.1c-.1,-.2,.9,-1,1.4,-1.2c1.1,-.3,1.4,-.4,2.1,-.5c.4,0,1.6,-.2,2.6,-.3c1.8,-.3,2,-.3,2.1,-.1c0,.1,-.3,.3,-.7,.4c-2.5,.9,-4.4,1.9,-5.3,2.8c-.2,.2,-.4,.3,-.4,.3c-.1,0,-.2,.1,-.3,.2c-.1,.1,-.3,.4,-.6,.6c-.2,.2,-.5,.5,-.6,.7c-.1,.2,-.3,.5,-.5,.6c-.1,.2,-.2,.4,-.3,.6c0,.4,-.1,.7,-.2,.6Z" class="gf_67"/>
<path d="M132.6,553.7c-.1,-.2,-.2,-.8,-.1,-1c0,-.1,.3,-.3,.6,-.5c.3,-.2,.7,-.5,.8,-.6l.2,-.1l-.1,.2c-.2,.2,-1,.9,-1.2,1c-.1,.1,-.2,.3,-.2,.4c0,.2,0,.4,0,.5q0,.2,0,.1Z" class="gf_67"/>
<path d="M141.5,548.1c.2,-.2,.5,-.3,.5,-.1c0,0,-.1,.1,-.3,.1q-.4,.1,-.2,0Z" class="gf_67"/>
<path d="M125.7,580.6c0,-.1,0,-.2,0,-.3c0,0,.1,-.6,.1,-1.2c0,-1.2,0,-1.8,.4,-4.1c0,-.5,0,-.6,-.5,-1.6c-.3,-.6,-.5,-1.2,-.6,-1.6c-.1,-.3,-.2,-.7,-.2,-.9c-.3,-1,-.4,-4.1,-.1,-5.2c.1,-.4,.2,-.8,.2,-.9c.1,-.4,.2,-.3,.7,.3c.6,1.1,.9,1,.3,-.1c-.4,-.6,-.8,-2,-.8,-2.6c0,-.3,.6,-1.9,1,-2.7c.1,-.2,.2,-.4,.4,-.4c.2,0,.3,0,.5,.4c.5,.6,.6,.9,.5,.8c-.1,0,-.3,-.2,-.4,-.4c-.4,-.8,-.6,-.6,-1.2,.9c-.7,1.8,-.6,2.3,.7,4.7c.5,.8,.8,1.5,.7,1.5c-.2,.1,-1.4,-1.1,-1.7,-1.6c-.1,-.1,-.2,-.3,-.3,-.3q-.1,-.1,-.2,.1c-.3,.8,-.4,2.5,-.2,4c0,.5,.1,1.2,.1,1.4c0,.5,1,3.1,1.2,3.1c.1,0,.1,-.1,.1,-.3c0,-.1,.1,-.7,.3,-1.3c.2,-.5,.3,-1.1,.4,-1.3c0,-.2,0,-.3,.1,-.3c.1,-.1,.4,-1.2,.4,-1.2c0,-.1,.1,-.4,.2,-.7c.9,-1.8,1.3,-2.7,1.6,-3.5c.8,-1.5,1.6,-3.1,2.3,-4.1c.7,-1.2,1.3,-2.2,1.9,-3.1c.2,-.4,.5,-.8,.7,-1c.1,-.2,.3,-.4,.3,-.5c0,-.1,.6,-.8,.9,-1.1c.1,-.1,.3,-.4,.5,-.6c.6,-1,1,-1.4,1.1,-1.3q.1,0,-.7,1.1c-1.5,1.9,-2.3,3.2,-3.6,5.4c-.3,.4,-.7,1,-1,1.5c-.4,.5,-.5,.8,-.4,.8c.4,0,.3,.4,-.8,2.7c-.7,1.3,-1.4,2.6,-1.5,3c-.2,.4,-.4,1,-.6,1.4c-.2,.7,-.4,1.4,-.4,1.8c0,.2,-.1,.4,-.1,.7c-.1,.2,-.2,.7,-.2,1.1c-.1,.6,-.1,.8,.1,.8c.1,0,.2,0,.2,-.1c.1,-.1,.3,-.3,.6,-.5c.3,-.2,.5,-.5,.6,-.5c0,-.1,.3,-.3,.5,-.5c.7,-.6,1.1,-1.1,1.5,-1.7c.3,-.3,.6,-.7,.7,-.8c.2,-.2,1.1,-1.8,1.1,-2c0,-.2,-.1,-.2,-.6,-.5c-.7,-.4,-.6,-.4,.1,-.1c.3,.1,.6,.2,.7,.1c.4,-.1,.3,.3,-.2,1.3c-.3,.6,-.7,1.3,-.9,1.4c-.1,.2,-.4,.5,-.6,.8c-.2,.2,-.4,.5,-.5,.6c-.1,.1,-.3,.3,-.5,.5c-.1,.2,-.4,.5,-.6,.6c-.2,.2,-.5,.5,-.6,.6c-.1,.2,-.3,.3,-.3,.3c-.1,0,-.3,.2,-.5,.4c-.2,.2,-.5,.4,-.7,.4c-.2,.1,-.3,.2,-.3,.7c-.1,.3,-.1,.6,-.1,.7c0,0,0,.3,0,.5c0,.3,.1,.7,.1,1c.2,.8,.1,1.1,-.1,1.3c-.4,.3,-1.1,1.2,-1.3,1.8c-.2,.5,-.3,.5,-.5,.4Z" class="gg_67"/>
<path d="M134,567.1c-.4,0,-.8,-.1,-1,-.2c-.2,0,-.4,-.1,-.5,-.1c-.1,0,-.3,0,-.4,-.1c-.1,0,-.3,0,-.4,0c-.1,.1,-.2,0,-.3,0c-.1,-.2,.3,-.2,1.8,.1c1.4,.2,2.5,-.2,2.7,-1c0,-.2,.1,-.6,.2,-.8c.1,-.3,.2,-.6,.2,-.8c.1,-.4,.1,-.8,.3,-1.6c.1,-.3,.2,-.6,.4,-.8c.1,-.1,.2,-.3,.1,-.3c0,-.1,-.2,-.1,-.4,0c-.4,.1,-1.6,-.1,-1.7,-.3c-.1,-.3,.8,-.7,2,-.8c.3,-.1,.4,-.1,.6,-.8c.6,-1.4,1.6,-3.2,2.9,-4.9c.1,-.1,.1,-.2,0,-.3c0,0,-.3,.1,-.7,.2c-.6,.3,-1.3,.4,-1.4,.2c0,-.1,0,-.2,.1,-.2q.2,-.1,.2,.1q.1,.1,.1,.1c.3,0,1.3,-.5,1.6,-.7c.3,-.2,.6,-.3,.6,-.2c.1,.2,-.1,.9,-.2,1c-.2,.1,-.5,.6,-.7,.9c-.1,.1,-.4,.5,-.6,.8c-.3,.6,-.5,.9,-.6,1.2c-.1,.1,-.3,.5,-.4,.8c-.3,.5,-.6,1,-.8,1.6c-.1,.3,-.2,.3,-.7,.4c-.8,.1,-1.6,.4,-1.4,.6c0,.1,.4,0,1,-.1c.8,-.1,.9,-.1,1,.1c0,0,-.1,.3,-.3,.6c-.3,.6,-.6,1.6,-.7,2.1c0,.2,-.1,.6,-.2,.9c-.1,.3,-.2,.7,-.2,.9c-.1,.5,-.4,.9,-.8,1.1c-.6,.3,-.7,.3,-1.4,.3Z" class="gg_67"/>
<path d="M129.6,562.7c-.2,-.1,-.4,-.2,-.5,-.3c-.3,-.2,-1,-1,-1,-1.1c0,-.1,.1,-.1,.1,-.1c.1,0,.5,.4,.6,.5c.1,.1,.2,.2,.2,.2c.1,0,.1,-.1,-.1,-.3c-.1,-.2,-.3,-.5,-.4,-.8c-.1,-.3,-.4,-.9,-.6,-1.4c-.3,-.5,-.5,-1,-.5,-1.1c0,-.1,.2,-.6,.5,-1.1c.6,-1,1.6,-2.1,2.5,-2.8c.4,-.2,.8,-.6,.9,-.8c.4,-.5,.6,-.4,.9,.3c.2,.5,.3,.5,.4,.5c.1,-.1,.2,-.1,.2,-.1c0,0,.1,.2,.1,.4c.1,.6,-.1,.5,-.6,-.3c-.4,-.8,-.5,-.9,-.7,-.6c-.1,.2,-.7,.6,-1.1,.9c-.7,.5,-1.8,1.8,-2.5,3l-.4,.6l.7,1.4c.7,1.5,1.1,2.2,1.5,2.8c.2,.4,.2,.5,-.2,.2Z" class="gg_67"/>
<path d="M128.1,560.8c-.1,-.1,0,-.2,0,-.2c.1,0,.1,.1,.2,.2c0,0,0,.1,0,.1c-.1,0,-.2,0,-.2,-.1Z" class="gg_67"/>
<path d="M127.6,559.8c-.3,-.6,-.2,-.8,0,-.5c.2,.3,.4,.8,.3,1c-.1,0,-.2,-.1,-.3,-.5Z" class="gg_67"/>
<path d="M140.1,553.6c.5,-.2,1.1,-.4,1.2,-.3c.1,.1,-.1,.2,-.8,.4c-.8,.2,-.9,.2,-.4,-.1Z" class="gg_67"/>
<path d="M141.5,553.2c0,-.1,0,-.3,0,-.5c0,-.5,.7,-1.7,1.3,-2.2c1.7,-1.7,3.9,-3,5.7,-3.6c.6,-.2,.6,-.3,-.1,-.2c-.3,.1,-1.3,.2,-2.2,.4c-1,.1,-1.9,.3,-2.1,.3c-.4,.2,-1.2,.7,-1.5,1c-.2,.2,-.3,.3,-.4,.1c-.1,-.2,.9,-1,1.4,-1.2c1.1,-.3,1.4,-.4,2.1,-.5c.4,0,1.6,-.2,2.6,-.3c1.8,-.3,2,-.3,2.1,-.1c0,.1,-.3,.3,-.7,.4c-2.5,.9,-4.4,1.9,-5.3,2.8c-.2,.2,-.4,.3,-.4,.3c-.1,0,-.2,.1,-.3,.2c-.1,.1,-.3,.4,-.6,.6c-.2,.2,-.5,.5,-.6,.7c-.1,.2,-.3,.5,-.5,.6c-.1,.2,-.2,.4,-.3,.6c0,.4,-.1,.7,-.2,.6Z" class="gg_67"/>
<path d="M132.6,553.7c-.1,-.2,-.2,-.8,-.1,-1c0,-.1,.3,-.3,.6,-.5c.3,-.2,.7,-.5,.8,-.6l.2,-.1l-.1,.2c-.2,.2,-1,.9,-1.2,1c-.1,.1,-.2,.3,-.2,.4c0,.2,0,.4,0,.5q0,.2,0,.1Z" class="gg_67"/>
<path d="M141.5,548.1c.2,-.2,.5,-.3,.5,-.1c0,0,-.1,.1,-.3,.1q-.4,.1,-.2,0Z" class="gg_67"/>
<path d="M127.2,578.2c.1,-.1,.1,-.2,.1,-.5c-.1,-.3,-.1,-.9,-.1,-1.4c0,-.6,0,-1,0,-1.1c0,0,0,-.2,0,-.3c0,-.1,.1,-.5,.1,-.8c.1,-1.3,.1,-1.5,.5,-3.1c0,-.2,.1,-.5,.1,-.7c.2,-1,1.2,-3.2,2.4,-5.4c.6,-1.3,.9,-2,.9,-2.2c0,0,-.3,.5,-.6,1.1c-.3,.6,-.7,1.4,-.9,1.8c-.9,1.7,-1.9,4,-2,4.5c0,.2,-.2,.6,-.3,.8c0,.3,-.1,.5,-.1,.5c.1,.1,-.3,1.3,-.5,1.8c0,.2,-.1,.6,-.1,.9c-.1,.2,-.2,.7,-.2,1c-.3,1,-.5,2.6,-.3,2.8c0,.1,.2,.2,.4,.3c.4,.2,.3,.2,.6,0Z" class="gf_67"/>
<path d="M124.9,571c-.1,-.2,-.3,-2.1,-.3,-3.2c0,-.8,.1,-1.6,.2,-2.2c.1,-.4,.2,-.7,.2,-.9c.1,-.3,.3,-.2,.6,.3c.1,.3,.4,.6,.6,.9l.3,.3l-.1,-.4c-.1,-.2,-.4,-.7,-.5,-1.1c-.4,-.8,-.7,-2.2,-.6,-2.7c.1,-.4,.6,-1.6,.9,-2.3c.2,-.4,.6,-.6,.8,-.3q0,.2,-.2,.2c-.2,0,-.3,.2,-.5,.5c-.6,1.3,-.8,2.3,-.8,2.9c.1,.3,.3,.9,.5,1.5c.3,.8,.5,1.1,1,1.8c.3,.4,.5,.8,.5,.8c0,.2,-.6,-.1,-.9,-.4c-.1,-.2,-.3,-.4,-.4,-.5c-.1,-.1,-.4,-.5,-.6,-.7l-.3,-.5l-.1,.3c-.4,.9,-.5,2.5,-.3,4.3c.1,1.2,.1,1.6,0,1.4Z" class="gh_67"/>
<path d="M133.7,567.1c-.2,-.1,-.4,-.1,-.6,-.2c-.2,0,-.4,-.1,-.5,-.1c-.2,0,-.8,-.2,-.8,-.2c0,0,.5,0,1,.1c1.3,.2,2,.2,2.5,-.2c.4,-.2,.5,-.4,.8,-1.2c.2,-1,.3,-1.2,.3,-1.6c.1,-.7,.2,-1.1,.6,-1.7c.1,-.3,.2,-.6,.2,-.6c0,0,-.2,0,-.5,.1c-.3,0,-.5,0,-1.1,-.1l-.6,-.2l.1,-.2c.2,-.2,.8,-.4,1.6,-.6l.7,-.1l.3,-.7c.5,-1.3,1.6,-3.2,2.4,-4.4c.3,-.3,.5,-.7,.4,-.8q0,-.1,-.7,.2q-.7,.3,-.7,.2c0,0,.2,-.1,.3,-.2c.2,0,.5,-.2,.8,-.4c.4,-.3,.7,-.3,.8,-.3c.2,.1,-.1,.8,-.5,1.2c-.7,.8,-2,3.1,-2.6,4.5c-.1,.3,-.2,.6,-.3,.7c0,.1,-.2,.2,-.3,.2c-.8,.1,-1,.2,-1.4,.3c-.5,.2,-.5,.3,-.3,.4c0,0,.3,0,1,0c.7,-.2,.9,-.2,.9,-.1c.1,.1,-.1,.5,-.3,.9c-.4,.7,-.6,1.4,-.6,1.9c0,.2,-.1,.7,-.2,1.1c-.2,.3,-.2,.7,-.2,.7c0,0,-.1,.2,-.2,.5c-.3,.6,-1.2,1,-2.3,.9Z" class="gh_67"/>
<path d="M131.5,566.7q0,-.1,.1,-.1c0,0,.1,0,.1,0c0,0,0,.1,-.1,.1h-.1Z" class="gh_67"/>
<path d="M129.3,562.5c-.6,-.4,-1.3,-1.4,-.9,-1.1c.1,.1,.3,.2,.3,.3c.1,.1,.4,.3,.5,.2c0,-.1,.5,.4,.6,.7c.1,.2,.1,.3,.1,.3c0,0,-.3,-.2,-.6,-.4Z" class="gh_67"/>
<path d="M128.8,561.4c0,0,-.2,-.3,-.2,-.5c-.1,-.3,-.4,-.9,-.6,-1.3c-.3,-.5,-.5,-1,-.6,-1.1c0,-.3,.8,-1.9,1.2,-2.3c.1,-.1,.4,-.5,.7,-.7c.3,-.3,.6,-.7,.8,-.8c.6,-.4,.9,-.7,1.3,-1.1c.2,-.2,.4,-.3,.4,-.3c.3,.1,.3,.3,.1,.3c-.1,0,-.4,.2,-.7,.5c-.4,.3,-.7,.6,-.7,.6c-.2,0,-.4,.2,-.9,.8c-.3,.3,-.5,.6,-.6,.6c0,0,-.9,1.3,-1.2,1.8c-.2,.5,-.2,.6,.4,1.8c.8,1.5,.9,2,.6,1.7Z" class="gh_67"/>
<path d="M127.2,560.1c-.1,-.1,-.1,-.2,0,-.2c.1,0,.2,.1,.3,.3c0,.1,0,.2,0,.2c-.1,0,-.2,-.1,-.3,-.3Z" class="gh_67"/>
<path d="M127.6,559.9c0,-.2,-.1,-.4,-.2,-.5c0,-.1,0,-.2,0,-.2c.1,0,.5,.6,.5,.8c0,.2,-.2,.1,-.3,-.1Z" class="gh_67"/>
<path d="M138.4,554.8c0,-.1,.1,-.1,.2,-.1c0,0,.1,0,.2,0c0,.1,-.1,.1,-.2,.1c-.1,.1,-.2,0,-.2,0Z" class="gh_67"/>
<path d="M132.5,554.8c-.1,-.3,.1,-.5,.3,-.2c.1,.3,.1,.4,0,.5c-.1,0,-.2,-.1,-.3,-.3Z" class="gh_67"/>
<path d="M140.3,553.6c-.1,-.1,.8,-.4,.9,-.3q.1,.1,0,.2c-.3,.1,-.9,.2,-.9,.1Z" class="gh_67"/>
<path d="M132.2,554.2c-.1,0,-.1,-.1,-.1,-.2q.1,-.1,.2,.1q0,.1,0,.1c-.1,.1,-.1,0,-.1,0Z" class="gh_67"/>
<path d="M141.6,553.1c-.1,-.2,0,-1,.2,-1.2c.1,-.1,.3,-.4,.4,-.7c.2,-.2,.4,-.5,.5,-.6c.1,0,.3,-.2,.4,-.3c.4,-.4,2,-1.7,2.8,-2.1c.8,-.5,1.9,-1,2.8,-1.3c.6,-.3,.6,-.4,0,-.3c-.3,.1,-1.3,.2,-2.2,.3c-1.7,.3,-2,.3,-2.4,.5c-.4,.1,-1.2,.6,-1.5,.9c-.1,.1,-.2,.2,-.3,.2c-.2,0,.8,-1,1.2,-1.1c.7,-.3,1.8,-.5,2.4,-.6c.4,0,1.5,-.2,2.4,-.3c.9,-.2,1.7,-.3,1.8,-.3c.3,.1,.3,.3,0,.4c-1.4,.5,-2.5,1,-3.3,1.4c-.8,.4,-1.7,1,-2,1.1c0,.1,-.2,.3,-.4,.4c-1,.9,-1.8,1.7,-2,2c-.1,.1,-.2,.3,-.3,.3c-.1,0,-.4,.7,-.4,1c0,.3,-.1,.4,-.1,.3Z" class="gh_67"/>
<path d="M132.6,552.7c-.1,-.1,.6,-.6,1,-.8c.3,-.2,.2,0,-.2,.3c-.4,.4,-.8,.6,-.8,.5Z" class="gh_67"/>
<path d="M141.7,548.1q-.1,-.1,0,-.1c.1,-.1,.3,-.1,.2,.1c0,0,-.1,0,-.2,0Z" class="gh_67"/>
<path d="M125.9,573.8c-.1,-.1,-.1,-.2,0,-.2c0,-.1,.1,0,.1,.1c.1,.1,.1,.2,.1,.2c-.1,0,-.2,0,-.2,-.1Z" class="gi_67"/>
<path d="M129,573.2c0,0,0,-.1,.1,-.1q.2,-.1,.2,.1c-.1,.1,-.4,.2,-.3,0Z" class="gi_67"/>
<path d="M125.6,573.2c0,-.1,0,-.2,.1,-.1c0,0,.1,.1,.1,.1q0,.2,-.2,0Z" class="gi_67"/>
<path d="M129.5,572.8c0,-.1,.2,-.3,.4,-.4c.2,-.2,.5,-.5,.5,-.6c.2,-.3,.4,-.4,.4,-.2c0,.1,-1,1.1,-1.2,1.2q-.1,0,-.1,0Z" class="gi_67"/>
<path d="M125.4,572.5c-.1,-.1,-.1,-.2,-.1,-.3q0,-.2,.1,0c0,.1,.1,.3,.1,.4q0,.1,-.1,-.1Z" class="gi_67"/>
<path d="M131.2,571c.2,-.4,1,-1.3,1.1,-1.5q.1,0,.1,0c.1,.1,0,.2,-.2,.4c-.1,.1,-.4,.5,-.6,.8c-.5,.7,-.8,.8,-.4,.3Z" class="gi_67"/>
<path d="M124.8,570.5q0,-.1,0,-.2q.1,0,.2,.1q0,.1,0,.2q-.1,0,-.2,-.1Z" class="gi_67"/>
<path d="M132.5,569.3c0,-.2,.6,-1.2,.7,-1.1c.1,0,-.6,1.3,-.7,1.3c0,0,0,-.1,0,-.2Z" class="gi_67"/>
<path d="M124.8,569.9c-.1,-.1,-.1,-.2,-.1,-.3c.1,-.3,.2,-.1,.2,.2c0,.1,-.1,.1,-.1,.1Z" class="gi_67"/>
<path d="M124.7,569.2c0,-.1,0,-.3,0,-.3c.1,-.1,.1,0,.1,.3v.2Z" class="gi_67"/>
<path d="M133.2,567.9c0,-.1,0,-.2,-.1,-.3c-.1,-.2,0,-.2,.1,-.2c.4,-.1,.5,.1,.2,.5q-.1,.2,-.2,0Z" class="gi_67"/>
<path d="M124.6,568c0,-.2,.1,-.8,.1,-.8c.1,0,.1,.5,0,.7c0,.1,-.1,.2,-.1,.1Z" class="gi_67"/>
<path d="M134,567c-.3,0,-.6,0,-.7,-.1q-.2,0,.1,0c.1,0,.5,0,.9,0c.5,0,.6,0,1,-.3c.3,-.2,.5,-.5,.6,-.7c.2,-.4,.2,-.3,.1,.2c-.1,.3,-.3,.5,-.7,.7c-.5,.3,-.6,.3,-1.3,.2Z" class="gi_67"/>
<path d="M132.4,566.8c-.4,-.1,-.4,-.2,-.1,-.1c.2,0,.3,0,.3,0q.1,.1,.1,.1c-.1,0,-.2,0,-.3,0Z" class="gi_67"/>
<path d="M127,567c-.3,-.2,-.5,-.6,-.4,-.6c.1,0,0,-.2,-.1,-.4c-.3,-.6,-1,-2.2,-1,-2.3c0,-.1,.1,0,.3,.4c.1,.4,.6,1.2,1,1.8c.3,.7,.6,1.2,.6,1.2c-.1,0,-.2,0,-.4,-.1Z" class="gi_67"/>
<path d="M124.7,566.8c-.1,-.2,0,-.9,.2,-1c0,0,0,.1,0,.3c0,.4,-.1,.8,-.2,.7Z" class="gi_67"/>
<path d="M136.1,565.3c0,-.1,.1,-.3,.1,-.4q.1,-.1,.1,.1c0,.1,-.1,.2,-.1,.3q-.1,.1,-.1,0Z" class="gi_67"/>
<path d="M126.2,566.1c-.1,-.1,-.1,-.2,0,-.1c0,0,.1,.1,.1,.2c0,0,-.1,0,-.1,-.1Z" class="gi_67"/>
<path d="M124.9,565.6c0,0,0,-.2,.1,-.3c0,-.2,.1,-.4,.1,-.5c0,-.4,.3,-.2,.4,.2c0,.2,0,.3,0,.2c-.1,-.2,-.4,-.2,-.4,-.1c.1,.1,-.1,.6,-.2,.5Z" class="gi_67"/>
<path d="M136.3,564.6c0,0,.1,-.2,.1,-.4q.1,-.3,.1,.1c0,.2,-.1,.4,-.2,.3Z" class="gi_67"/>
<path d="M136.5,563.3c0,-.1,0,-.2,.1,-.2c0,-.1,.1,0,0,.1c0,.1,0,.2,0,.2c-.1,.1,-.1,0,-.1,-.1Z" class="gi_67"/>
<path d="M136.7,562.8c-.1,-.1,.1,-.6,.3,-.9c.2,-.2,.2,-.4,.2,-.5c-.1,0,-.3,0,-.7,0c-.7,.1,-.8,0,-.1,-.2c.4,0,.8,-.1,.9,-.1c.3,-.1,.3,.1,-.1,.9c-.3,.5,-.5,.8,-.5,.8Z" class="gi_67"/>
<path d="M129.5,562.7c-.1,-.1,-.3,-.3,-.5,-.4c-.3,-.2,-.7,-.8,-.5,-.8c.1,.1,.2,.2,.2,.2c.1,.1,.3,.2,.4,.3c.2,.1,.4,.2,.6,.5c.3,.3,.2,.4,-.2,.2Z" class="gi_67"/>
<path d="M125.3,562.7c0,-.1,0,-.4,0,-.5c.1,-.3,.6,-1.7,.7,-1.7c.1,-.1,.1,.1,-.2,.8c-.1,.4,-.3,1,-.3,1.2q-.1,.4,-.2,.2Z" class="gi_67"/>
<path d="M135.4,561.3c-.2,0,-.3,-.1,-.3,-.2c-.1,0,.7,-.5,1,-.5c.3,0,.2,.1,-.2,.2c-.5,.2,-.6,.3,-.4,.4q.2,.2,-.1,.1Z" class="gi_67"/>
<path d="M128.8,561.3c-.1,-.1,-.1,-.3,-.2,-.4q0,-.3,.1,-.1c0,.1,.1,.3,.1,.4q.1,.2,0,.1Z" class="gi_67"/>
<path d="M136.9,560.5c.1,-.1,.2,-.1,.3,-.1c.1,.1,0,.1,-.2,.1c-.3,.1,-.3,0,-.1,0Z" class="gi_67"/>
<path d="M137.5,560.1c.1,-.2,.2,-.3,.2,-.3c.1,0,-.1,.5,-.2,.6c0,0,0,-.1,0,-.3Z" class="gi_67"/>
<path d="M128.4,560.3c-.1,-.1,-.2,-.2,-.1,-.3q0,-.1,.1,.1c.2,.3,.2,.4,0,.2Z" class="gi_67"/>
<path d="M137.9,559.3c0,-.1,.1,-.2,.1,-.2c.1,.1,0,.4,-.1,.4c-.1,0,-.1,-.1,0,-.2Z" class="gi_67"/>
<path d="M127.3,560.2q-.1,-.2,0,-.1c.2,0,.2,.1,.1,.2l-.1,-.1Z" class="gi_67"/>
<path d="M126,560.2c-.1,-.1,.5,-.9,.7,-.9c.3,0,.3,.2,.1,.3c-.2,0,-.4,.2,-.5,.4c-.1,.3,-.2,.3,-.3,.2Z" class="gi_67"/>
<path d="M127.6,559.7c-.1,-.1,-.1,-.3,-.1,-.4c.1,0,.4,.5,.3,.6q0,.1,-.2,-.2Z" class="gi_67"/>
<path d="M138,558.8c0,-.1,.2,-.4,.3,-.4c.1,0,.1,-.2,.2,-.3c.1,-.5,1,-1.9,2,-3.3c.1,-.2,.1,-.4,0,-.5c-.1,-.1,-.1,-.2,.1,-.3c.1,-.1,.2,-.1,.3,-.1c.2,.1,0,.8,-.2,1c-.3,.2,-1.4,1.9,-1.7,2.4c-.6,1.2,-.9,1.7,-1,1.5Z" class="gi_67"/>
<path d="M127.9,559.3q-.1,-.1,0,-.1c0,0,.1,0,.1,0q0,.1,0,.2c0,0,-.1,0,-.1,-.1Z" class="gi_67"/>
<path d="M127.5,558.7c0,-.1,0,-.2,0,-.3c0,-.1,0,0,.1,.2c.1,.1,.2,.2,.1,.3c0,0,-.1,-.1,-.2,-.2Z" class="gi_67"/>
<path d="M127.7,558c-.1,-.2,0,-.5,.1,-.4c.1,0,.1,.1,0,.2c0,.1,-.1,.2,-.1,.2Z" class="gi_67"/>
<path d="M128,557.1c0,-.1,.1,-.3,.3,-.4c.1,-.1,.2,-.3,.2,-.3c.1,-.1,.1,-.2,.2,-.2c.1,0,0,.2,-.4,.7c-.2,.3,-.3,.4,-.3,.2Z" class="gi_67"/>
<path d="M129,555.9c.3,-.4,.8,-.9,.8,-.9c.1,.1,-.4,.7,-.7,.9l-.2,.2Z" class="gi_67"/>
<path d="M132.6,555c-.1,-.1,-.2,-.4,0,-.4c.1,0,.3,.3,.2,.4c0,0,-.1,0,-.2,0Z" class="gi_67"/>
<path d="M136.3,554.5c.1,-.1,.2,-.2,.3,-.2c0,0,0,.1,-.1,.2c-.1,.1,-.2,.2,-.3,.2c0,0,0,-.1,.1,-.2Z" class="gi_67"/>
<path d="M130.6,554.4c.1,-.1,.2,-.2,.3,-.2c.1,0,-.2,.4,-.4,.4c-.1,0,0,-.1,.1,-.2Z" class="gi_67"/>
<path d="M140.7,553.5c-.1,0,0,0,.1,-.1c.2,-.1,.4,-.1,.4,0c0,.1,-.4,.2,-.5,.1Z" class="gi_67"/>
<path d="M131.3,553.7c.2,-.3,.5,-.4,.6,-.3c.1,.1,-.2,.3,-.7,.6c0,0,0,-.1,.1,-.3Z" class="gi_67"/>
<path d="M141.6,552.4c0,-.1,.1,-.2,.1,-.3c.1,-.1,.2,-.2,.2,-.2c0,.1,0,.2,-.1,.3c-.1,.1,-.1,.2,-.2,.2Z" class="gi_67"/>
<path d="M142.2,551.4c.2,-.5,.8,-1.1,2.4,-2.3c.8,-.7,2.6,-1.7,3.6,-2c1,-.3,1.1,-.4,1.1,-.6c-.2,-.2,.7,-.4,.9,-.2c.2,.1,.1,.3,-.1,.3c-.1,0,-.5,.1,-.8,.3c-.4,.2,-1,.4,-1.3,.5c-1.1,.5,-1.9,.9,-2.4,1.2c-.2,.2,-.5,.4,-.6,.4c-.1,.1,-.4,.2,-.5,.4c-.2,.2,-.4,.3,-.4,.3c0,0,-.2,.2,-.4,.3c-1.1,1,-1.3,1.3,-1.3,1.5c0,.1,-.1,.2,-.2,.2c-.1,0,-.1,-.1,0,-.3Z" class="gi_67"/>
<path d="M133,552.4q0,-.1,.1,-.1c0,0,.1,0,0,.1c0,0,0,.1,-.1,.1c0,0,0,-.1,0,-.1Z" class="gi_67"/>
<path d="M142.3,548.5c0,-.1,0,-.2,.1,-.2c.1,-.1,.2,-.1,.2,-.1c0,0,0,.1,-.1,.2c-.1,.1,-.2,.1,-.2,.1Z" class="gi_67"/>
<path d="M143,547.8c.1,-.3,.5,-.4,.5,-.3c.1,.1,-.3,.3,-.5,.4q-.2,.1,0,-.1Z" class="gi_67"/>
<path d="M144.6,547.1c.1,0,.2,-.1,.3,-.1q.1,0,0,.1c-.1,0,-.2,.1,-.3,.1q-.1,0,0,-.1Z" class="gi_67"/>
<path d="M145.2,547c0,-.1,.4,-.1,.9,-.2c.6,0,.9,0,.9,0c0,.1,-.4,.1,-.9,.2c-.6,0,-.9,0,-.9,0Z" class="gi_67"/>
<path d="M147.1,546.7c.1,0,.4,-.1,.9,-.1c.5,-.1,.7,-.1,.6,0c-.3,.1,-1.5,.2,-1.5,.1Z" class="gi_67"/>
<path d="M125.8,580.5c0,0,0,-.3,0,-.7c0,-.4,0,-.7,0,-.7c0,-.1,0,-.9,0,-1q.1,-.1,.5,.1c.9,.4,1.2,.2,1,-.8c-.1,-1,.1,-1.1,.3,-.1c.1,.7,.1,.9,-.2,1c-.6,.6,-1.5,2,-1.4,2.2c.1,0,0,.1,-.1,.1c0,0,-.1,0,-.1,-.1Z" class="gj_67"/>
<path d="M127.3,576.5c0,-.1,0,-.7,.1,-.8c.1,-.1,.1,0,.1,.4c-.1,.4,-.1,.5,-.2,.4Z" class="gj_67"/>
<path d="M127.3,575.3c0,-.1,0,-.3,0,-.6c0,-.3,.1,-.8,.1,-1.1c.1,-1,.5,-3.2,.7,-3.2c0,0,0,.1,0,.3c0,.1,-.1,.4,-.1,.5c0,.2,-.1,.4,-.1,.7c-.2,.6,-.3,2,-.1,2.1c0,.1,0,.2,-.1,.2c0,.1,-.1,.3,-.2,.6c0,.4,-.1,.6,-.2,.5Z" class="gj_67"/>
<path d="M126.2,574.9c0,0,0,-.1,.1,-.2c0,0,0,-.2,0,-.3c-.1,-.2,.2,-.6,.3,-.5c0,.1,-.2,1.1,-.3,1.1l-.1,-.1Z" class="gj_67"/>
<path d="M125.9,573.8c-.1,-.1,-.1,-.2,0,-.2c0,-.1,.1,0,.1,.1c.1,.1,.1,.2,.1,.2c-.1,0,-.2,0,-.2,-.1Z" class="gj_67"/>
<path d="M126.5,573.6c0,0,0,-.4,.2,-.8c.1,-.4,.2,-1,.3,-1.4c.1,-.4,.2,-.7,.3,-.8c.1,-.1,.1,0,0,.3c0,.3,-.1,.5,-.1,.6c-.1,.8,-.6,2.3,-.7,2.1Z" class="gj_67"/>
<path d="M129,573.2c0,0,0,-.1,.1,-.1q.2,-.1,.2,.1c-.1,.1,-.4,.2,-.3,0Z" class="gj_67"/>
<path d="M125.6,573.2c0,-.1,0,-.2,.1,-.1c0,0,.1,.1,.1,.1q0,.2,-.2,0Z" class="gj_67"/>
<path d="M129.5,572.8c0,-.1,.2,-.3,.4,-.4c.2,-.2,.5,-.5,.5,-.6c.2,-.3,.4,-.4,.4,-.2c0,.1,-1,1.1,-1.2,1.2q-.1,0,-.1,0Z" class="gj_67"/>
<path d="M125.4,572.5c-.1,-.1,-.1,-.2,-.1,-.3q0,-.2,.1,0c0,.1,.1,.3,.1,.4q0,.1,-.1,-.1Z" class="gj_67"/>
<path d="M131.2,571c.2,-.4,1,-1.3,1.1,-1.5q.1,0,.1,0c.1,.1,0,.2,-.2,.4c-.1,.1,-.4,.5,-.6,.8c-.5,.7,-.8,.8,-.4,.3Z" class="gj_67"/>
<path d="M124.8,570.5q0,-.1,0,-.2q.1,0,.2,.1q0,.1,0,.2q-.1,0,-.2,-.1Z" class="gj_67"/>
<path d="M128.1,570.2c0,-.5,1.5,-4,2.7,-6.1c.2,-.5,.5,-1,.5,-1.2c0,-.3,.2,-.5,.3,-.3c.1,.1,-.2,.8,-1.3,2.8c-.5,1,-1,2.1,-1.2,2.5c-.2,.6,-.6,1.5,-.9,2.1c-.1,.2,-.1,.3,-.1,.2Z" class="gj_67"/>
<path d="M127.5,569.9c0,0,0,-.1,.1,-.1c0,0,.1,0,.1,0q0,.1,0,.1q-.1,0,-.2,0Z" class="gj_67"/>
<path d="M132.5,569.3c0,-.2,.6,-1.2,.7,-1.1c.1,0,-.6,1.3,-.7,1.3c0,0,0,-.1,0,-.2Z" class="gj_67"/>
<path d="M124.8,569.9c-.1,-.1,-.1,-.2,-.1,-.3c.1,-.3,.2,-.1,.2,.2c0,.1,-.1,.1,-.1,.1Z" class="gj_67"/>
<path d="M127.6,569.3c0,0,0,-.1,.1,-.1q.1,0,.1,0c.1,.2,-.1,.3,-.2,.1Z" class="gj_67"/>
<path d="M124.7,569.2c0,-.1,0,-.3,0,-.3c.1,-.1,.1,0,.1,.3v.2Z" class="gj_67"/>
<path d="M127.9,568.9c-.1,0,.3,-.7,.4,-.6c0,0,-.1,.2,-.2,.3c-.1,.3,-.2,.4,-.2,.3Z" class="gj_67"/>
<path d="M133.2,567.9c0,-.1,0,-.2,-.1,-.3c-.1,-.2,0,-.2,.1,-.2c.4,-.1,.5,.1,.2,.5q-.1,.2,-.2,0Z" class="gj_67"/>
<path d="M128.3,568.1c0,-.1,.2,-.6,.5,-1.1c.3,-.6,.4,-.8,.3,-.5c-.2,.5,-.9,1.9,-.8,1.6Z" class="gj_67"/>
<path d="M124.6,568c0,-.2,.1,-.8,.1,-.8c.1,0,.1,.5,0,.7c0,.1,-.1,.2,-.1,.1Z" class="gj_67"/>
<path d="M134,567c-.3,0,-.6,0,-.7,-.1q-.2,0,.1,0c.1,0,.5,0,.9,0c.5,0,.6,0,1,-.3c.3,-.2,.5,-.5,.6,-.7c.2,-.4,.2,-.3,.1,.2c-.1,.3,-.3,.5,-.7,.7c-.5,.3,-.6,.3,-1.3,.2Z" class="gj_67"/>
<path d="M132.4,566.8c-.4,-.1,-.4,-.2,-.1,-.1c.2,0,.3,0,.3,0q.1,.1,.1,.1c-.1,0,-.2,0,-.3,0Z" class="gj_67"/>
<path d="M127,567c-.3,-.2,-.5,-.6,-.4,-.6c.1,0,0,-.2,-.1,-.4c-.3,-.6,-1,-2.2,-1,-2.3c0,-.1,.1,0,.3,.4c.1,.4,.6,1.2,1,1.8c.3,.7,.6,1.2,.6,1.2c-.1,0,-.2,0,-.4,-.1Z" class="gj_67"/>
<path d="M124.7,566.8c-.1,-.2,0,-.9,.2,-1c0,0,0,.1,0,.3c0,.4,-.1,.8,-.2,.7Z" class="gj_67"/>
<path d="M136.1,565.3c0,-.1,.1,-.3,.1,-.4q.1,-.1,.1,.1c0,.1,-.1,.2,-.1,.3q-.1,.1,-.1,0Z" class="gj_67"/>
<path d="M126.2,566.1c-.1,-.1,-.1,-.2,0,-.1c0,0,.1,.1,.1,.2c0,0,-.1,0,-.1,-.1Z" class="gj_67"/>
<path d="M129.3,565.7c.1,-.2,.2,-.3,.2,-.3c.1,.1,0,.3,-.1,.5q-.2,0,-.1,-.2Z" class="gj_67"/>
<path d="M129.8,564.7c.1,-.3,.3,-.5,.3,-.6c0,0,.2,-.4,.5,-.9c.2,-.5,.6,-1.2,.7,-1.4c.2,-.2,.5,-.7,.8,-1.1c.4,-.8,.6,-1,.7,-.9c0,.1,-.2,.4,-1,1.6c-.2,.3,-.5,.8,-.7,1.1c-.1,.2,-.3,.7,-.5,1.1c-.2,.4,-.5,1,-.6,1.2c-.3,.7,-.5,.6,-.2,-.1Z" class="gj_67"/>
<path d="M124.9,565.6c0,0,0,-.2,.1,-.3c0,-.2,.1,-.4,.1,-.5c0,-.4,.3,-.2,.4,.2c0,.2,0,.3,0,.2c-.1,-.2,-.4,-.2,-.4,-.1c.1,.1,-.1,.6,-.2,.5Z" class="gj_67"/>
<path d="M136.3,564.6c0,0,.1,-.2,.1,-.4q.1,-.3,.1,.1c0,.2,-.1,.4,-.2,.3Z" class="gj_67"/>
<path d="M136.5,563.3c0,-.1,0,-.2,.1,-.2c0,-.1,.1,0,0,.1c0,.1,0,.2,0,.2c-.1,.1,-.1,0,-.1,-.1Z" class="gj_67"/>
<path d="M136.7,562.8c-.1,-.1,.1,-.6,.3,-.9c.2,-.2,.2,-.4,.2,-.5c-.1,0,-.3,0,-.7,0c-.7,.1,-.8,0,-.1,-.2c.4,0,.8,-.1,.9,-.1c.3,-.1,.3,.1,-.1,.9c-.3,.5,-.5,.8,-.5,.8Z" class="gj_67"/>
<path d="M129.5,562.7c-.1,-.1,-.3,-.3,-.5,-.4c-.3,-.2,-.7,-.8,-.5,-.8c.1,.1,.2,.2,.2,.2c.1,.1,.3,.2,.4,.3c.2,.1,.4,.2,.6,.5c.3,.3,.2,.4,-.2,.2Z" class="gj_67"/>
<path d="M125.3,562.7c0,-.1,0,-.4,0,-.5c.1,-.3,.6,-1.7,.7,-1.7c.1,-.1,.1,.1,-.2,.8c-.1,.4,-.3,1,-.3,1.2q-.1,.4,-.2,.2Z" class="gj_67"/>
<path d="M135.4,561.3c-.2,0,-.3,-.1,-.3,-.2c-.1,0,.7,-.5,1,-.5c.3,0,.2,.1,-.2,.2c-.5,.2,-.6,.3,-.4,.4q.2,.2,-.1,.1Z" class="gj_67"/>
<path d="M128.8,561.3c-.1,-.1,-.1,-.3,-.2,-.4q0,-.3,.1,-.1c0,.1,.1,.3,.1,.4q.1,.2,0,.1Z" class="gj_67"/>
<path d="M136.9,560.5c.1,-.1,.2,-.1,.3,-.1c.1,.1,0,.1,-.2,.1c-.3,.1,-.3,0,-.1,0Z" class="gj_67"/>
<path d="M137.5,560.1c.1,-.2,.2,-.3,.2,-.3c.1,0,-.1,.5,-.2,.6c0,0,0,-.1,0,-.3Z" class="gj_67"/>
<path d="M128.4,560.3c-.1,-.1,-.2,-.2,-.1,-.3q0,-.1,.1,.1c.2,.3,.2,.4,0,.2Z" class="gj_67"/>
<path d="M137.9,559.3c0,-.1,.1,-.2,.1,-.2c.1,.1,0,.4,-.1,.4c-.1,0,-.1,-.1,0,-.2Z" class="gj_67"/>
<path d="M127.3,560.2q-.1,-.2,0,-.1c.2,0,.2,.1,.1,.2l-.1,-.1Z" class="gj_67"/>
<path d="M126,560.2c-.1,-.1,.5,-.9,.7,-.9c.3,0,.3,.2,.1,.3c-.2,0,-.4,.2,-.5,.4c-.1,.3,-.2,.3,-.3,.2Z" class="gj_67"/>
<path d="M127.6,559.7c-.1,-.1,-.1,-.3,-.1,-.4c.1,0,.4,.5,.3,.6q0,.1,-.2,-.2Z" class="gj_67"/>
<path d="M133,559.2c.1,-.2,.2,-.4,.3,-.3c.1,0,-.3,.6,-.4,.7c-.1,0,0,-.2,.1,-.4Z" class="gj_67"/>
<path d="M138,558.8c0,-.1,.2,-.4,.3,-.4c.1,0,.1,-.2,.2,-.3c.1,-.5,1,-1.9,2,-3.3c.1,-.2,.1,-.4,0,-.5c-.1,-.1,-.1,-.2,.1,-.3c.1,-.1,.2,-.1,.3,-.1c.2,.1,0,.8,-.2,1c-.3,.2,-1.4,1.9,-1.7,2.4c-.6,1.2,-.9,1.7,-1,1.5Z" class="gj_67"/>
<path d="M127.9,559.3q-.1,-.1,0,-.1c0,0,.1,0,.1,0q0,.1,0,.2c0,0,-.1,0,-.1,-.1Z" class="gj_67"/>
<path d="M133.4,558.7c0,-.1,.5,-1,.8,-1.4c.1,-.2,.3,-.4,.4,-.6c.2,-.4,.8,-1.1,.9,-1c0,0,0,.1,-.1,.2c-.1,.1,-.3,.3,-.3,.4c-.1,0,-.3,.4,-.5,.7c-.3,.3,-.6,.8,-.7,1.1c-.3,.5,-.4,.7,-.5,.6Z" class="gj_67"/>
<path d="M127.5,558.7c0,-.1,0,-.2,0,-.3c0,-.1,0,0,.1,.2c.1,.1,.2,.2,.1,.3c0,0,-.1,-.1,-.2,-.2Z" class="gj_67"/>
<path d="M127.7,558c-.1,-.2,0,-.5,.1,-.4c.1,0,.1,.1,0,.2c0,.1,-.1,.2,-.1,.2Z" class="gj_67"/>
<path d="M128,557.1c0,-.1,.1,-.3,.3,-.4c.1,-.1,.2,-.3,.2,-.3c.1,-.1,.1,-.2,.2,-.2c.1,0,0,.2,-.4,.7c-.2,.3,-.3,.4,-.3,.2Z" class="gj_67"/>
<path d="M129,555.9c.3,-.4,.8,-.9,.8,-.9c.1,.1,-.4,.7,-.7,.9l-.2,.2Z" class="gj_67"/>
<path d="M135.9,555.1c.1,-.2,.2,-.3,.2,-.3c0,.1,0,.2,-.1,.3l-.2,.2Z" class="gj_67"/>
<path d="M132.6,555c-.1,-.1,-.2,-.4,0,-.4c.1,0,.3,.3,.2,.4c0,0,-.1,0,-.2,0Z" class="gj_67"/>
<path d="M130.6,554.4c.1,-.1,.2,-.2,.3,-.2c.1,0,-.2,.4,-.4,.4c-.1,0,0,-.1,.1,-.2Z" class="gj_67"/>
<path d="M140.7,553.5c-.1,0,0,0,.1,-.1c.2,-.1,.4,-.1,.4,0c0,.1,-.4,.2,-.5,.1Z" class="gj_67"/>
<path d="M131.3,553.7c.2,-.3,.5,-.4,.6,-.3c.1,.1,-.2,.3,-.7,.6c0,0,0,-.1,.1,-.3Z" class="gj_67"/>
<path d="M141.6,552.4c0,-.1,.1,-.2,.1,-.3c.1,-.1,.2,-.2,.2,-.2c0,.1,0,.2,-.1,.3c-.1,.1,-.1,.2,-.2,.2Z" class="gj_67"/>
<path d="M142.2,551.4c.2,-.5,.8,-1.1,2.4,-2.3c.8,-.7,2.6,-1.7,3.6,-2c1,-.3,1.1,-.4,1.1,-.6c-.2,-.2,.7,-.4,.9,-.2c.2,.1,.1,.3,-.1,.3c-.1,0,-.5,.1,-.8,.3c-.4,.2,-1,.4,-1.3,.5c-1.1,.5,-1.9,.9,-2.4,1.2c-.2,.2,-.5,.4,-.6,.4c-.1,.1,-.4,.2,-.5,.4c-.2,.2,-.4,.3,-.4,.3c0,0,-.2,.2,-.4,.3c-1.1,1,-1.3,1.3,-1.3,1.5c0,.1,-.1,.2,-.2,.2c-.1,0,-.1,-.1,0,-.3Z" class="gj_67"/>
<path d="M133,552.4q0,-.1,.1,-.1c0,0,.1,0,0,.1c0,0,0,.1,-.1,.1c0,0,0,-.1,0,-.1Z" class="gj_67"/>
<path d="M142.3,548.5c0,-.1,0,-.2,.1,-.2c.1,-.1,.2,-.1,.2,-.1c0,0,0,.1,-.1,.2c-.1,.1,-.2,.1,-.2,.1Z" class="gj_67"/>
<path d="M143,547.8c.1,-.3,.5,-.4,.5,-.3c.1,.1,-.3,.3,-.5,.4q-.2,.1,0,-.1Z" class="gj_67"/>
<path d="M144.6,547.1c.1,0,.2,-.1,.3,-.1q.1,0,0,.1c-.1,0,-.2,.1,-.3,.1q-.1,0,0,-.1Z" class="gj_67"/>
<path d="M145.2,547c0,-.1,.4,-.1,.9,-.2c.6,0,.9,0,.9,0c0,.1,-.4,.1,-.9,.2c-.6,0,-.9,0,-.9,0Z" class="gj_67"/>
<path d="M147.1,546.7c.1,0,.4,-.1,.9,-.1c.5,-.1,.7,-.1,.6,0c-.3,.1,-1.5,.2,-1.5,.1Z" class="gj_67"/>
<path d="M128.2,560.3q-.1,-.2,-.1,-.1c-.1,.2,0,.3,.1,.3c.1,0,.1,-.1,0,-.2Z" class="ge_67"/>
</g>
<path d="M152.7,592.1H349.3" class="g0_67"/>
<path d="M137.6,600.3v43.9" class="gb_67"/>
<path d="M117.7,810.1V695.2H791.8V810.1Z" class="g1_67"/>
<path d="M117.7,810.1V695.2H791.8V810.1Z" class="ga_67"/>
<g clip-path="url(#c6_67)">
<path clip-path="url(#c2_67)" d="M125.6,737.1c-.1,-.1,-.1,-.3,0,-.3c0,-.2,.1,-1.3,0,-1.8c0,-.1,0,-.4,0,-.6c.1,-.9,.3,-2.2,.3,-2.3c0,0,0,-.2,.1,-.5c.1,-.5,.1,-.7,-.1,-1c-.3,-.6,-.9,-2,-1.1,-2.8c-.4,-1.7,-.5,-4.5,-.1,-6c.3,-1.1,.5,-1.2,.9,-.5c.3,.6,.4,.4,0,-.3c-.3,-.7,-.6,-2,-.5,-2.4c0,-.2,.2,-.7,.4,-1.1c.2,-.5,.4,-1,.5,-1.3c.1,-.4,.5,-.7,.9,-.5c.1,0,.2,.2,.3,.3q.2,.3,.1,-.2c-.1,-.3,-.2,-.5,-.1,-.6c0,0,0,-.1,0,-.3c.1,-.4,1,-2.1,1.6,-2.7c.3,-.2,.6,-.6,.7,-.7c.1,-.1,.5,-.4,.8,-.7c.3,-.2,.7,-.6,.9,-.8c.4,-.4,.7,-.4,.9,-.2q.2,.2,.2,-.1c0,-.2,0,-.5,0,-.6c.1,-.2,1.5,-1.1,2.1,-1.5c.3,-.1,.6,-.3,.8,-.4c.1,-.1,.3,-.2,.4,-.2c0,0,.4,-.2,.8,-.4c.4,-.2,.9,-.5,1,-.5c.2,-.1,.6,-.3,1,-.4c1.1,-.6,1.6,-.8,2.4,-1.1c.5,-.2,.9,-.3,1,-.4c0,0,.1,.1,.3,.2l.2,.2l.4,-.4c.6,-.5,1.6,-.8,3.8,-1.1c.9,-.1,2.2,-.3,2.8,-.4l1,-.2l.1,.3q.1,.3,-.3,.4c-2.7,1.1,-4.6,2,-5.6,2.9c-.2,.2,-.4,.4,-.4,.4c-.1,0,-1.5,1.4,-1.5,1.5c0,.1,-.1,.2,-.2,.3c-.3,.2,-.6,.8,-.5,1.1c0,.2,-.1,.3,-.4,.5c-.3,.2,-.4,.3,-.4,.4c.2,.2,0,.9,-.2,1.2c-.7,.8,-1.7,2.3,-1.9,2.9c-.1,.1,-.2,.4,-.4,.7c-.2,.3,-.4,.8,-.5,1.1c-.4,1,-.4,.9,-1,1c-.5,0,-1.4,.3,-1.3,.4c0,0,.4,0,.9,-.1c1.1,-.1,1.2,0,.8,.7c-.4,.8,-.7,1.7,-.7,2.2c0,.3,-.2,.8,-.6,2.2c-.1,.4,-.3,.5,-.7,.8c-.5,.3,-.6,.3,-1.2,.3q-.7,0,-.6,.2c.1,.1,-.1,.5,-.5,1.3c-.3,.6,-.7,1.3,-.8,1.4c-.2,.1,-.4,.4,-.6,.7c-.2,.3,-.4,.6,-.5,.6c0,0,-.2,.1,-.3,.3c-.6,.8,-2.7,2.6,-3,2.6l.3,-3.2c.1,.1,.4,0,.6,-.3c.2,-.4,.5,-.5,1.1,-.6c.5,0,.6,-.1,1,-.5c.2,-.2,.6,-.9,.9,-1.4l.5,-.9l-.5,-.3c-.3,-.2,-.6,-.3,-.7,-.4c-.1,-.2,.4,-1,.7,-1.1c.2,-.1,.5,-.1,.7,-.2c.2,0,.5,-.1,.7,-.2c.3,-.2,.5,-.3,.7,-.3c.6,-.1,.8,-.4,.8,-1.3c.1,-1,.2,-1.1,.5,-1.2c.4,-.2,.7,-.1,.9,.1l.1,.3l.1,-.3c.1,-.3,.1,-.4,-.1,-.4c-.1,0,-.2,0,-.3,-.2c-.1,-.2,-.1,-.3,-.6,-.4c-.6,-.2,-.7,-.3,-.5,-.6c0,0,0,-.2,0,-.4c-.1,-.2,.4,-.7,1,-1c.5,-.1,.6,-.2,1.1,-1.2c.3,-.6,.8,-1.2,1,-1.5c.2,-.2,.5,-.5,.6,-.6c.1,-.2,.2,-.3,.4,-.3c.2,0,.4,0,.5,-.1c.2,-.2,.9,-1.2,.8,-1.2c0,0,-.2,.1,-.5,.2c-.8,.3,-1.8,.3,-2,-.1c-.2,-.3,.4,-1.1,.9,-1.2c.1,0,1.1,-.5,1.5,-.8c.1,-.1,.3,-.4,.5,-.7c.3,-.8,.8,-1.4,1.2,-1.5c.5,-.2,.7,-.3,.9,-.8c.2,-.4,.1,-.7,-.4,-.8c-.1,-.1,-.3,-.2,-.4,-.4c0,-.1,-.1,-.2,-.2,-.2c-.3,0,-3,1.1,-4.1,1.7c-.2,.1,-.5,.3,-.7,.5c-.1,.2,-.5,.6,-.9,.9c-.4,.3,-.9,.7,-1,1c-.1,.2,-.4,.6,-.7,.9c-.4,.3,-.4,.5,-.4,1.2c-.1,.4,0,.9,.1,1.1c.3,.7,.2,1.1,-.3,1.1c-.5,-.1,-.8,-.4,-1.3,-1.6c-.3,-.5,-.6,-1,-.6,-1c-.2,0,-.8,.8,-1.1,1.3c-.2,.5,-.3,.6,-.7,.8c-.5,.1,-.5,.2,-.7,.7c-.1,.3,-.1,.6,-.1,.8c.1,.1,.1,.2,.1,.3c-.1,.4,-.1,.8,.1,1.2c.2,.3,.3,.6,.3,.8c0,.2,.1,.6,.3,.9c.3,.6,.3,.7,.2,1.2c-.1,.3,-.1,.6,-.1,.7c-.1,.4,-.4,.3,-1.1,-.3c-.5,-.4,-1.2,-1.2,-2,-2.3c-.3,-.4,-.4,-.4,-.3,-.1c0,.1,-.1,.5,-.2,.8c-.2,.7,-.2,1.4,.2,1.8c.2,.2,.8,1.8,.9,2.2c0,.2,0,.4,.1,.5c.1,.2,.1,1,-.1,1.3c0,.1,0,.3,0,.4c0,.2,-.1,.3,-.2,.3c-.2,0,-.7,-.4,-1,-.7c-.1,-.1,-.3,-.3,-.5,-.5l-.2,-.3l-.1,.2c-.1,.3,0,.8,.1,1.2c.3,.8,.4,2.4,.2,2.9c-.1,.2,-.2,.4,-.4,.5c-.4,.3,-.3,.5,.4,1.5l.4,.5l.1,-.3c.1,-.2,.2,-.6,.3,-.9c.1,-.4,.2,-.9,.3,-1.1c.1,-.2,.2,-.5,.3,-.7q.1,-.6,2.3,-5.3q1,-2.1,1.9,-3.4c.7,-1.1,1.3,-2.1,1.9,-3c.8,-1.3,.9,-1.6,1.4,-2.2c.3,-.3,.7,-.8,.9,-1c.9,-1.2,1.1,-1.4,1.3,-1.4c.1,.1,.2,.1,.2,.2c0,0,-.2,.4,-.5,.8c-.3,.4,-.8,1.1,-1,1.6c-.9,1.4,-2.1,3.3,-2.5,3.9c-.2,.3,-.5,.8,-.6,1c-.1,.2,-.4,.6,-.5,.8c-.2,.3,-.3,.6,-.4,.8c0,.3,-.1,.7,-1.1,2.5c-.8,1.6,-1,2,-1.7,3.7c-.5,1.1,-.8,2.2,-.7,2.4l-.3,3.2c-.3,0,-.5,1.8,-.2,3c.1,.7,.1,1,-.2,1.2c-.6,.4,-1.1,1.2,-1.3,1.7c-.1,.4,-.2,.5,-.4,.5q-.2,0,-.3,-.1Z" class="gc_67"/>
<path d="M133.1,723.6c-.1,-.1,-.3,-.1,-.4,-.1q-.1,0,0,.1c.1,.1,.3,.1,.4,.1c.2,0,.2,-.1,0,-.1Z" class="g1_67"/>
<path d="M144.5,704.5q0,-.1,-.1,-.1c-.1,0,-.1,.1,-.2,.1c0,.1,0,.2,.1,.2c.1,-.1,.2,-.1,.2,-.2Z" class="g1_67"/>
<path d="M125.7,737.1c-.1,0,-.1,-.1,-.1,-.3c.1,-.1,.1,-.8,.1,-1.7c0,-1.4,.1,-2.1,.4,-3.5l.1,-.6l-.5,-1c-.3,-.5,-.5,-1.2,-.6,-1.6c-.1,-.4,-.3,-.8,-.3,-.9c-.2,-.8,-.3,-2.9,-.3,-4c.1,-1.1,.5,-2.5,.7,-2.5c.1,0,.2,.1,.4,.5c.5,.8,.7,.7,.3,-.1c-.4,-.8,-.7,-1.8,-.7,-2.5c0,-.4,.5,-1.9,.9,-2.7c.2,-.3,.3,-.5,.5,-.5q.3,0,.9,.9l.5,.7l-.4,-.7c-.5,-1.2,-.4,-1.7,.3,-2.9c.3,-.6,.6,-1.1,.7,-1.2c.1,0,.4,-.3,.6,-.6c.3,-.3,.8,-.8,1.2,-1c.3,-.3,.7,-.7,.9,-.9c.4,-.4,.6,-.4,1,.2l.2,.4l-.1,-.5c-.1,-.8,0,-1,.8,-1.6c.5,-.3,.9,-.6,1,-.6c0,0,.1,0,.1,-.1c0,0,.1,-.1,.3,-.1q.2,0,.2,.1c-.1,.1,-.1,.2,-.2,.2c-.1,0,-.4,.2,-.7,.5c-.4,.3,-.8,.6,-.9,.7c-.3,.1,-.3,.2,-.3,.6c0,.3,.1,.7,.2,.9c.1,.5,.1,1,0,1c-.2,0,-.4,-.2,-.7,-.9l-.3,-.6l-.4,.2c-.1,.2,-.3,.3,-.3,.4c-.1,0,-.3,.2,-.6,.4c-.3,.3,-.6,.5,-.7,.6c-.1,.1,-.3,.4,-.6,.6c-.6,.6,-1.6,2.2,-1.5,2.5c.1,.4,1,2.3,1.7,3.5c.5,.9,.6,1.1,.4,1.1c-.2,-.1,-1.2,-.8,-1.6,-1.4c-.3,-.3,-.6,-.8,-.8,-.9c-.1,-.2,-.3,-.5,-.4,-.7c-.2,-.4,-.4,-.4,-.6,0c-.3,.5,-.8,2.1,-.9,2.5c-.1,.8,.6,2.6,1.5,3.8c.7,1,.7,1.2,-.1,.8c-.3,-.3,-1.3,-1.3,-1.5,-1.7c0,-.1,-.1,-.1,-.1,-.1c-.2,.1,-.4,1.1,-.4,1.7c0,.4,0,.8,-.1,.9c0,.1,0,.7,.1,1.3c.1,.6,.1,1.3,.1,1.5c.1,.6,1,3,1.1,3q.1,0,.1,-.1c0,0,.1,-.5,.3,-1.1c.2,-.6,.3,-1.2,.4,-1.4c0,-.2,.1,-.5,.1,-.6c.1,0,.2,-.3,.3,-.6c.1,-.5,.2,-.9,1.1,-2.7c.3,-.6,.7,-1.4,.9,-1.9c.8,-1.7,1.6,-3.2,2.2,-4.2c.7,-1,1.1,-1.7,1.9,-3c.2,-.4,.6,-.9,.7,-1.1c.2,-.2,.3,-.4,.3,-.5c.1,-.1,.3,-.4,.6,-.7c.2,-.3,.6,-.8,.8,-1c.9,-1.2,1.1,-1.4,1.2,-1.3c.2,.1,.2,.2,-.6,1.2c-.2,.3,-.6,.8,-.8,1.2c-.8,1.4,-2.1,3.4,-2.4,3.8c-.6,.9,-1.5,2.5,-1.5,2.8c0,.1,-.5,1.3,-1.2,2.6c-.7,1.3,-1.3,2.7,-1.5,3.1c-.1,.4,-.3,.8,-.3,.8c-.1,.1,-.5,1.3,-.6,1.8c0,.3,-.1,.7,-.1,1c-.2,.7,-.3,2,-.3,2c0,.1,.1,0,.3,-.1c.1,-.1,.3,-.3,.6,-.5c.2,-.1,.5,-.4,.8,-.7c.2,-.2,.4,-.4,.5,-.5c.6,-.6,.9,-.9,1.2,-1.4c.3,-.3,.6,-.7,.7,-.8c.3,-.3,1.2,-2,1.2,-2.1c-.1,-.1,-.4,-.3,-.9,-.5c-.9,-.5,-1,-.6,-.8,-.7c.1,-.1,1,0,1.8,.2c.2,0,.7,.1,1,0c.9,0,1.4,-.4,1.6,-1c.1,-.2,.2,-.6,.2,-.7c.1,-.3,.3,-1,.3,-1.6c.1,-.5,.4,-1.3,.6,-1.6l.2,-.3h-.5c-.5,.1,-1.6,-.1,-1.7,-.3c-.1,-.2,.7,-.6,1.6,-.8l.8,-.2l.2,-.6c.2,-.3,.3,-.7,.4,-.8c0,-.2,.1,-.4,.2,-.5c.1,-.1,.3,-.4,.4,-.6c0,-.2,.3,-.6,.4,-.9c1.4,-2,1.6,-2.3,1.5,-2.3c-.1,0,-.4,.1,-.6,.2c-.7,.3,-1.5,.4,-1.5,0c0,-.2,1.8,-1.3,2.7,-1.5c.4,-.1,.4,-.2,.4,-.6c0,-.2,.2,-.6,.3,-.7c.1,-.2,.3,-.5,.4,-.7c.3,-.6,2.2,-2.2,3.2,-2.8c.7,-.4,1.8,-1,2.7,-1.4l.7,-.3l-1.6,.2c-2.6,.3,-3.7,.7,-4.4,1.5c-.3,.3,-.4,.4,-.5,.1c-.1,-.2,.6,-.9,1.2,-1.2c.6,-.2,1.7,-.5,2.4,-.6c.4,0,1.5,-.2,2.5,-.3c1.5,-.3,1.8,-.3,1.9,-.2c.4,.2,.3,.3,-.2,.5c-1.1,.5,-2.2,.9,-2.9,1.2c-.7,.4,-2,1.1,-2.2,1.3c-.1,.1,-.3,.3,-.6,.5c-.9,.7,-1.6,1.5,-1.8,1.8c-.1,.1,-.3,.4,-.4,.6c-.1,.1,-.3,.4,-.3,.6c0,.3,-.1,.5,-.4,.7c-.2,.1,-.5,.3,-.6,.3h-.2l.2,.1c.4,0,.5,.2,.3,.4c0,.1,-.1,.2,-.1,.3c.1,.1,-.1,.4,-.4,.6c-.2,.3,-.5,.7,-.6,.8c-.1,.2,-.3,.5,-.4,.8c-.4,.5,-.6,.9,-.7,1.1c0,.1,-.2,.5,-.4,.8c-.3,.5,-.4,.8,-.7,1.6c-.1,.3,-.2,.3,-.7,.4c-.7,.1,-1.5,.4,-1.4,.5c0,0,.4,0,.9,0c.8,-.2,.9,-.2,1,0c.1,.1,.1,.3,-.2,.7c-.3,.6,-.7,1.6,-.7,2.1c0,.3,-.3,1.3,-.6,2.2c-.1,.3,-.2,.5,-.6,.7c-.5,.3,-.6,.3,-1.2,.3c-.4,0,-.9,0,-1,-.1c-.2,0,-.5,-.1,-.8,-.1l-.6,-.1l.5,.2c.3,.1,.6,.2,.7,.2q.5,.1,.6,.2c.1,.1,-.9,2.1,-1.3,2.5c-.2,.2,-.5,.6,-.7,.8c-.1,.3,-.3,.5,-.4,.6c-.2,.1,-.4,.4,-.6,.6c-.4,.4,-1.3,1.3,-1.7,1.6c-.1,.1,-.4,.3,-.5,.4c-.1,.1,-.3,.3,-.5,.3c-.2,.1,-.3,.2,-.3,.5c-.1,.5,-.1,1.8,-.1,2c0,.1,.1,.5,.1,.9c.1,.5,.1,.6,-.2,.8c-.4,.4,-1,1.2,-1.3,1.8c-.1,.3,-.2,.5,-.2,.5c-.1,0,-.2,0,-.3,-.1Z" class="gd_67"/>
<path d="M128.2,716.8q-.1,-.2,-.1,-.1c-.1,.1,0,.3,.1,.3c.1,0,.1,-.1,0,-.2Z" class="gd_67"/>
<path d="M139.7,710.9c.2,-.1,.5,-.3,.7,-.4l.2,-.2l-.3,.1c-.5,0,-1.4,.5,-1.4,.7c0,.1,.3,0,.8,-.2Z" class="ge_67"/>
<path d="M139.7,710.8c.4,-.2,.6,-.4,.2,-.2c-.3,.1,-.9,.4,-.7,.4c0,0,.3,-.1,.5,-.2Z" class="g1_67"/>
<path d="M134.9,707.6c0,-.1,.6,-.5,.7,-.4q.2,.1,-.1,.2c-.1,.1,-.3,.2,-.4,.2q-.1,.1,-.2,0Z" class="gd_67"/>
<path d="M136.2,706.9c.1,-.1,.2,-.2,.3,-.2q.2,0,.1,.1c-.1,.1,-.2,.2,-.3,.2q-.2,0,-.1,-.1Z" class="gd_67"/>
<path d="M137.1,706.4c.1,-.2,.6,-.3,.7,-.2c0,0,-.5,.3,-.7,.3q-.1,0,0,-.1Z" class="gd_67"/>
<path d="M137.9,706c0,0,.8,-.5,1.3,-.6c.3,-.1,.6,-.2,.7,-.3c.4,-.2,1.9,-.8,2.1,-.8c.2,.2,.1,.4,-.2,.4c-.5,.1,-1.7,.5,-3,1.1c-.6,.3,-.8,.4,-.9,.2Z" class="gd_67"/>
<path d="M125.7,737.1c0,-.1,0,-.2,0,-.3c0,0,.1,-.6,.1,-1.2c0,-1.3,0,-1.9,.3,-4l.1,-.7l-.5,-1c-.3,-.6,-.5,-1.2,-.6,-1.6c-.1,-.3,-.2,-.7,-.2,-.9c-.3,-1.1,-.4,-4.2,-.1,-5.2c.1,-.4,.2,-.8,.2,-.9c.1,-.4,.2,-.3,.7,.3c.6,1.1,.9,1,.3,-.1c-.4,-.7,-.8,-2,-.8,-2.6c0,-.4,.6,-1.9,1,-2.7c.1,-.3,.2,-.4,.4,-.4c.2,0,.3,0,.5,.4c.5,.6,.6,.9,.5,.8c-.1,0,-.3,-.2,-.4,-.4c-.4,-.8,-.6,-.6,-1.2,.8c-.7,1.9,-.6,2.4,.7,4.8c.5,.8,.8,1.5,.7,1.5c-.2,.1,-1.4,-1.1,-1.7,-1.7c-.1,-.1,-.2,-.2,-.3,-.2q-.1,-.1,-.2,.1c-.3,.8,-.4,2.5,-.2,4c0,.5,.1,1.1,.1,1.4c0,.5,1,3.1,1.2,3.1c.1,0,.1,-.1,.1,-.3c0,-.1,.1,-.7,.3,-1.3c.2,-.5,.3,-1.1,.4,-1.3c0,-.2,0,-.3,.1,-.4c.1,0,.4,-1.1,.4,-1.2c0,0,.1,-.3,.2,-.6c.9,-1.8,1.3,-2.7,1.6,-3.5c.8,-1.5,1.6,-3.1,2.3,-4.2c.7,-1.1,1.3,-2.1,1.9,-3c.2,-.4,.5,-.9,.7,-1c.1,-.2,.3,-.4,.3,-.5c0,-.2,.6,-.8,.9,-1.1c.1,-.1,.3,-.4,.5,-.6c.6,-1,1,-1.4,1.1,-1.3q.1,0,-.6,.9c-.2,.4,-.7,1,-.9,1.4c-.8,1.4,-2,3.4,-2.3,3.7c-.6,.8,-1.6,2.7,-1.6,2.9c0,.2,-.5,1.3,-1.2,2.6c-.6,1.3,-1.3,2.6,-1.4,3c-.2,.4,-.4,1,-.6,1.4c-.2,.7,-.4,1.4,-.4,1.8c0,.1,-.1,.4,-.1,.7c-.1,.2,-.2,.7,-.2,1.1c-.1,.6,-.1,.8,.1,.8c.1,0,.2,-.1,.2,-.1c.1,-.1,.3,-.3,.6,-.5c.3,-.2,.5,-.5,.6,-.5c0,-.1,.3,-.3,.5,-.5c.7,-.7,1.1,-1.1,1.5,-1.7c.3,-.3,.6,-.7,.7,-.8c.2,-.2,1.1,-1.8,1.1,-2.1c0,-.1,-.1,-.2,-.6,-.4c-.7,-.4,-.6,-.4,.1,-.1c.3,.1,.6,.1,.7,.1c.4,-.1,.3,.3,-.2,1.3c-.3,.6,-.7,1.2,-.9,1.4c-.1,.2,-.4,.5,-.6,.8c-.2,.2,-.4,.5,-.5,.6c-.1,.1,-.3,.3,-.5,.5c-.1,.2,-.4,.4,-.6,.6c-.2,.2,-.5,.4,-.6,.6c-.1,.1,-.3,.3,-.3,.3c-.1,0,-.3,.1,-.5,.3c-.2,.2,-.5,.4,-.7,.5c-.2,.1,-.3,.2,-.3,.7c-.1,.3,-.1,.6,-.1,.7c0,0,0,.3,0,.5c0,.3,.1,.7,.1,1c.2,.8,.1,1.1,-.1,1.3c-.4,.2,-1.1,1.2,-1.3,1.7c-.2,.6,-.3,.6,-.5,.5Z" class="gf_67"/>
<path d="M134,723.6c-.4,-.1,-.8,-.1,-1,-.2c-.2,0,-.4,-.1,-.5,-.1c-.1,0,-.3,0,-.4,-.1c-.1,0,-.3,0,-.4,0c-.1,0,-.2,0,-.3,0c-.1,-.3,.3,-.3,1.8,0c1.4,.3,2.5,-.1,2.7,-.9c0,-.2,.1,-.6,.2,-.8c.1,-.3,.2,-.6,.2,-.8c.1,-.4,.1,-.8,.3,-1.6c.1,-.3,.2,-.6,.4,-.8c.1,-.2,.2,-.3,.1,-.4c0,0,-.2,0,-.4,.1c-.4,.1,-1.6,-.1,-1.7,-.3c-.1,-.3,.8,-.7,2,-.8c.3,-.1,.4,-.1,.6,-.8c.6,-1.4,1.6,-3.2,2.9,-4.9c.1,-.1,.1,-.2,0,-.3c0,0,-.3,.1,-.7,.2c-.6,.3,-1.3,.4,-1.4,.2c0,-.1,0,-.2,.1,-.2q.2,-.1,.2,0c.1,.1,.1,.2,.1,.2c.3,0,1.3,-.5,1.6,-.7c.3,-.2,.6,-.3,.6,-.2c.1,.2,-.1,.9,-.2,1c-.2,.1,-.5,.5,-.7,.9c-.1,.1,-.4,.5,-.6,.8c-.3,.5,-.5,.9,-.6,1.2c-.1,.1,-.3,.5,-.4,.8c-.3,.5,-.6,1,-.8,1.6c-.1,.2,-.2,.3,-.7,.4c-.8,.1,-1.6,.4,-1.4,.6c0,0,.4,0,1,-.1c.8,-.1,.9,-.1,1,0c0,.1,-.1,.4,-.3,.7c-.3,.6,-.6,1.5,-.7,2.1c0,.2,-.1,.6,-.2,.9c-.1,.3,-.2,.7,-.2,.8c-.1,.6,-.4,1,-.8,1.2c-.6,.3,-.7,.3,-1.4,.3Z" class="gf_67"/>
<path d="M129.6,719.2c-.2,-.1,-.4,-.2,-.5,-.3c-.3,-.2,-1,-1,-1,-1.2c0,0,.1,0,.1,0c.1,0,.5,.4,.6,.5c.1,.1,.2,.2,.2,.2c.1,0,.1,-.1,-.1,-.4c-.1,-.1,-.3,-.5,-.4,-.7c-.1,-.3,-.4,-.9,-.6,-1.4c-.3,-.5,-.5,-1,-.5,-1.1c0,-.1,.2,-.6,.5,-1.1c.6,-1,1.6,-2.1,2.5,-2.8c.4,-.2,.8,-.6,.9,-.8c.4,-.5,.6,-.4,.9,.3c.2,.5,.3,.5,.4,.4c.1,0,.2,0,.2,0c0,0,.1,.2,.1,.4c.1,.6,-.1,.5,-.6,-.4c-.4,-.7,-.5,-.8,-.7,-.5c-.1,.2,-.7,.6,-1.1,.9c-.7,.5,-1.8,1.8,-2.5,3l-.4,.6l.7,1.4c.7,1.5,1.1,2.2,1.5,2.8c.2,.4,.2,.5,-.2,.2Z" class="gf_67"/>
<path d="M128.1,717.3c-.1,-.1,0,-.2,0,-.2c.1,0,.1,.1,.2,.1c0,.1,0,.2,0,.2c-.1,0,-.2,-.1,-.2,-.1Z" class="gf_67"/>
<path d="M127.6,716.3c-.3,-.6,-.2,-.8,0,-.5c.2,.2,.4,.8,.3,.9c-.1,.1,-.2,0,-.3,-.4Z" class="gf_67"/>
<path d="M140.1,710.1c.5,-.3,1.1,-.4,1.2,-.3c.1,.1,-.1,.2,-.8,.4c-.8,.2,-.9,.2,-.4,-.1Z" class="gf_67"/>
<path d="M141.5,709.7c0,-.1,0,-.3,0,-.5c0,-.5,.7,-1.7,1.3,-2.2c1.7,-1.7,3.9,-3,5.7,-3.6c.6,-.2,.6,-.3,-.1,-.2c-.3,.1,-1.3,.2,-2.2,.4c-1,.1,-1.9,.2,-2.1,.3c-.4,.2,-1.2,.7,-1.5,.9c-.2,.3,-.3,.4,-.4,.2c-.1,-.2,.9,-1,1.4,-1.2c1.1,-.3,1.4,-.4,2.1,-.5c.4,0,1.6,-.2,2.6,-.3c1.8,-.3,2,-.4,2.1,-.1c0,.1,-.3,.2,-.7,.4c-2.5,.9,-4.4,1.9,-5.3,2.8c-.2,.1,-.4,.3,-.4,.3c-.1,0,-.2,.1,-.3,.2c-.1,.1,-.3,.3,-.6,.6c-.2,.2,-.5,.5,-.6,.7c-.1,.2,-.3,.4,-.5,.6c-.1,.1,-.2,.4,-.3,.6c0,.4,-.1,.7,-.2,.6Z" class="gf_67"/>
<path d="M132.6,710.1c-.1,-.1,-.2,-.7,-.1,-.9c0,-.1,.3,-.3,.6,-.5c.3,-.3,.7,-.5,.8,-.6l.2,-.1l-.1,.2c-.2,.2,-1,.9,-1.2,1c-.1,.1,-.2,.2,-.2,.4c0,.2,0,.4,0,.5q0,.2,0,0Z" class="gf_67"/>
<path d="M141.5,704.5c.2,-.1,.5,-.2,.5,0c0,0,-.1,.1,-.3,.1q-.4,.1,-.2,-.1Z" class="gf_67"/>
<path d="M125.7,737.1c0,-.1,0,-.2,0,-.3c0,0,.1,-.6,.1,-1.2c0,-1.2,0,-1.8,.4,-4.1q0,-.6,-.5,-1.6c-.3,-.6,-.5,-1.2,-.6,-1.6c-.1,-.3,-.2,-.7,-.2,-.9c-.3,-1.1,-.4,-4.2,-.1,-5.2c.1,-.4,.2,-.8,.2,-.9c.1,-.4,.2,-.3,.7,.3c.6,1.1,.9,1,.3,-.1c-.4,-.7,-.8,-2,-.8,-2.6c0,-.4,.6,-1.9,1,-2.7c.1,-.3,.2,-.4,.4,-.4c.2,0,.3,0,.5,.4c.5,.6,.6,.9,.5,.8c-.1,0,-.3,-.2,-.4,-.4c-.4,-.8,-.6,-.6,-1.2,.8c-.7,1.9,-.6,2.4,.7,4.8c.5,.8,.8,1.5,.7,1.5c-.2,.1,-1.4,-1.1,-1.7,-1.7c-.1,-.1,-.2,-.2,-.3,-.2q-.1,-.1,-.2,.1c-.3,.8,-.4,2.5,-.2,4c0,.5,.1,1.1,.1,1.4c0,.5,1,3.1,1.2,3.1c.1,0,.1,-.1,.1,-.3c0,-.1,.1,-.7,.3,-1.3c.2,-.5,.3,-1.1,.4,-1.3c0,-.2,0,-.3,.1,-.4c.1,0,.4,-1.1,.4,-1.2c0,0,.1,-.3,.2,-.6c.9,-1.8,1.3,-2.7,1.6,-3.5c.8,-1.5,1.6,-3.1,2.3,-4.2c.7,-1.1,1.3,-2.1,1.9,-3c.2,-.4,.5,-.9,.7,-1c.1,-.2,.3,-.4,.3,-.5c0,-.2,.6,-.8,.9,-1.1c.1,-.1,.3,-.4,.5,-.6c.6,-1,1,-1.4,1.1,-1.3q.1,0,-.7,1.1c-1.5,1.9,-2.3,3.2,-3.6,5.4c-.3,.3,-.7,1,-1,1.5c-.4,.5,-.5,.8,-.4,.8c.4,0,.3,.4,-.8,2.6c-.7,1.3,-1.4,2.7,-1.5,3.1c-.2,.4,-.4,1,-.6,1.4c-.2,.7,-.4,1.4,-.4,1.8c0,.1,-.1,.4,-.1,.7c-.1,.2,-.2,.7,-.2,1.1c-.1,.6,-.1,.8,.1,.8c.1,0,.2,-.1,.2,-.1c.1,-.1,.3,-.3,.6,-.5c.3,-.2,.5,-.5,.6,-.5c0,-.1,.3,-.3,.5,-.5c.7,-.7,1.1,-1.1,1.5,-1.7c.3,-.3,.6,-.7,.7,-.8c.2,-.2,1.1,-1.8,1.1,-2.1c0,-.1,-.1,-.2,-.6,-.4c-.7,-.4,-.6,-.4,.1,-.1c.3,.1,.6,.1,.7,.1c.4,-.1,.3,.3,-.2,1.3c-.3,.6,-.7,1.2,-.9,1.4c-.1,.2,-.4,.5,-.6,.8c-.2,.2,-.4,.5,-.5,.6c-.1,.1,-.3,.3,-.5,.5c-.1,.2,-.4,.4,-.6,.6c-.2,.2,-.5,.4,-.6,.6c-.1,.1,-.3,.3,-.3,.3c-.1,0,-.3,.1,-.5,.3c-.2,.2,-.5,.4,-.7,.5c-.2,.1,-.3,.2,-.3,.7c-.1,.3,-.1,.6,-.1,.7c0,0,0,.3,0,.5c0,.3,.1,.7,.1,1c.2,.8,.1,1.1,-.1,1.3c-.4,.2,-1.1,1.2,-1.3,1.7c-.2,.6,-.3,.6,-.5,.5Z" class="gg_67"/>
<path d="M134,723.6c-.4,-.1,-.8,-.1,-1,-.2c-.2,0,-.4,-.1,-.5,-.1c-.1,0,-.3,0,-.4,-.1c-.1,0,-.3,0,-.4,0c-.1,0,-.2,0,-.3,0c-.1,-.3,.3,-.3,1.8,0c1.4,.3,2.5,-.1,2.7,-.9c0,-.2,.1,-.6,.2,-.8c.1,-.3,.2,-.6,.2,-.8c.1,-.4,.1,-.8,.3,-1.6c.1,-.3,.2,-.6,.4,-.8c.1,-.2,.2,-.3,.1,-.4c0,0,-.2,0,-.4,.1c-.4,.1,-1.6,-.1,-1.7,-.3c-.1,-.3,.8,-.7,2,-.8c.3,-.1,.4,-.1,.6,-.8c.6,-1.4,1.6,-3.2,2.9,-4.9c.1,-.1,.1,-.2,0,-.3c0,0,-.3,.1,-.7,.2c-.6,.3,-1.3,.4,-1.4,.2c0,-.1,0,-.2,.1,-.2q.2,-.1,.2,0c.1,.1,.1,.2,.1,.2c.3,0,1.3,-.5,1.6,-.7c.3,-.2,.6,-.3,.6,-.2c.1,.2,-.1,.9,-.2,1c-.2,.1,-.5,.5,-.7,.9c-.1,.1,-.4,.5,-.6,.8c-.3,.5,-.5,.9,-.6,1.2c-.1,.1,-.3,.5,-.4,.8c-.3,.5,-.6,1,-.8,1.6c-.1,.2,-.2,.3,-.7,.4c-.8,.1,-1.6,.4,-1.4,.6c0,0,.4,0,1,-.1c.8,-.1,.9,-.1,1,0c0,.1,-.1,.4,-.3,.7c-.3,.6,-.6,1.5,-.7,2.1c0,.2,-.1,.6,-.2,.9c-.1,.3,-.2,.7,-.2,.8c-.1,.6,-.4,1,-.8,1.2c-.6,.3,-.7,.3,-1.4,.3Z" class="gg_67"/>
<path d="M129.6,719.2c-.2,-.1,-.4,-.2,-.5,-.3c-.3,-.2,-1,-1,-1,-1.2c0,0,.1,0,.1,0c.1,0,.5,.4,.6,.5c.1,.1,.2,.2,.2,.2c.1,0,.1,-.1,-.1,-.4c-.1,-.1,-.3,-.5,-.4,-.7c-.1,-.3,-.4,-.9,-.6,-1.4c-.3,-.5,-.5,-1,-.5,-1.1c0,-.1,.2,-.6,.5,-1.1c.6,-1,1.6,-2.1,2.5,-2.8c.4,-.2,.8,-.6,.9,-.8c.4,-.5,.6,-.4,.9,.3c.2,.5,.3,.5,.4,.4c.1,0,.2,0,.2,0c0,0,.1,.2,.1,.4c.1,.6,-.1,.5,-.6,-.4c-.4,-.7,-.5,-.8,-.7,-.5c-.1,.2,-.7,.6,-1.1,.9c-.7,.5,-1.8,1.8,-2.5,3l-.4,.6l.7,1.4c.7,1.5,1.1,2.2,1.5,2.8c.2,.4,.2,.5,-.2,.2Z" class="gg_67"/>
<path d="M128.1,717.3c-.1,-.1,0,-.2,0,-.2c.1,0,.1,.1,.2,.1c0,.1,0,.2,0,.2c-.1,0,-.2,-.1,-.2,-.1Z" class="gg_67"/>
<path d="M127.6,716.3c-.3,-.6,-.2,-.8,0,-.5c.2,.2,.4,.8,.3,.9c-.1,.1,-.2,0,-.3,-.4Z" class="gg_67"/>
<path d="M140.1,710.1c.5,-.3,1.1,-.4,1.2,-.3c.1,.1,-.1,.2,-.8,.4c-.8,.2,-.9,.2,-.4,-.1Z" class="gg_67"/>
<path d="M141.5,709.7c0,-.1,0,-.3,0,-.5c0,-.5,.7,-1.7,1.3,-2.2c1.7,-1.7,3.9,-3,5.7,-3.6c.6,-.2,.6,-.3,-.1,-.2c-.3,.1,-1.3,.2,-2.2,.4c-1,.1,-1.9,.2,-2.1,.3c-.4,.2,-1.2,.7,-1.5,.9c-.2,.3,-.3,.4,-.4,.2c-.1,-.2,.9,-1,1.4,-1.2c1.1,-.3,1.4,-.4,2.1,-.5c.4,0,1.6,-.2,2.6,-.3c1.8,-.3,2,-.4,2.1,-.1c0,.1,-.3,.2,-.7,.4c-2.5,.9,-4.4,1.9,-5.3,2.8c-.2,.1,-.4,.3,-.4,.3c-.1,0,-.2,.1,-.3,.2c-.1,.1,-.3,.3,-.6,.6c-.2,.2,-.5,.5,-.6,.7c-.1,.2,-.3,.4,-.5,.6c-.1,.1,-.2,.4,-.3,.6c0,.4,-.1,.7,-.2,.6Z" class="gg_67"/>
<path d="M132.6,710.1c-.1,-.1,-.2,-.7,-.1,-.9c0,-.1,.3,-.3,.6,-.5c.3,-.3,.7,-.5,.8,-.6l.2,-.1l-.1,.2c-.2,.2,-1,.9,-1.2,1c-.1,.1,-.2,.2,-.2,.4c0,.2,0,.4,0,.5q0,.2,0,0Z" class="gg_67"/>
<path d="M141.5,704.5c.2,-.1,.5,-.2,.5,0c0,0,-.1,.1,-.3,.1q-.4,.1,-.2,-.1Z" class="gg_67"/>
<path d="M127.2,734.7c.1,-.1,.1,-.2,.1,-.5c-.1,-.3,-.1,-.9,-.1,-1.4c0,-.6,0,-1,0,-1.1c0,0,0,-.2,0,-.3c0,-.1,.1,-.5,.1,-.8c.1,-1.3,.1,-1.5,.5,-3.1c0,-.2,.1,-.5,.1,-.7c.2,-1,1.2,-3.2,2.4,-5.4c.6,-1.3,.9,-2,.9,-2.2c0,0,-.3,.5,-.6,1.1c-.3,.6,-.7,1.4,-.9,1.7c-.9,1.8,-1.9,4.1,-2,4.6c0,.2,-.2,.6,-.3,.8c0,.3,-.1,.5,-.1,.5c.1,.1,-.3,1.3,-.5,1.8c0,.2,-.1,.6,-.1,.8c-.1,.3,-.2,.7,-.2,1.1c-.3,1,-.5,2.6,-.3,2.8c0,.1,.2,.2,.4,.3c.4,.2,.3,.2,.6,0Z" class="gf_67"/>
<path d="M124.9,727.5c-.1,-.2,-.3,-2.1,-.3,-3.2c0,-.8,.1,-1.6,.2,-2.2c.1,-.4,.2,-.8,.2,-.9c.1,-.3,.3,-.2,.6,.3c.1,.2,.4,.6,.6,.8l.3,.4l-.1,-.4c-.1,-.2,-.4,-.7,-.5,-1.1c-.4,-.8,-.7,-2.2,-.6,-2.7c.1,-.4,.6,-1.6,.9,-2.3c.2,-.4,.6,-.6,.8,-.3c0,.1,0,.2,-.2,.2c-.2,0,-.3,.2,-.5,.5c-.6,1.3,-.8,2.3,-.8,2.9c.1,.3,.3,.9,.5,1.5c.3,.8,.5,1.1,1,1.8c.3,.4,.5,.8,.5,.8c0,.2,-.6,-.2,-.9,-.4c-.1,-.2,-.3,-.4,-.4,-.5c-.1,-.2,-.4,-.5,-.6,-.7l-.3,-.5l-.1,.3c-.4,.9,-.5,2.5,-.3,4.3c.1,1.2,.1,1.6,0,1.4Z" class="gh_67"/>
<path d="M133.7,723.5c-.2,0,-.4,0,-.6,-.1c-.2,-.1,-.4,-.1,-.5,-.1c-.2,0,-.8,-.2,-.8,-.2c0,-.1,.5,0,1,.1c1.3,.2,2,.2,2.5,-.2c.4,-.2,.5,-.4,.8,-1.2c.2,-1,.3,-1.2,.3,-1.7c.1,-.6,.2,-1,.6,-1.7c.1,-.2,.2,-.5,.2,-.5c0,0,-.2,0,-.5,0c-.3,.1,-.5,.1,-1.1,0l-.6,-.2l.1,-.2c.2,-.2,.8,-.4,1.6,-.6l.7,-.1l.3,-.7c.5,-1.4,1.6,-3.2,2.4,-4.4c.3,-.4,.5,-.7,.4,-.8q0,-.1,-.7,.2q-.7,.3,-.7,.2c0,-.1,.2,-.1,.3,-.2c.2,0,.5,-.2,.8,-.4c.4,-.3,.7,-.4,.8,-.3c.2,.1,-.1,.8,-.5,1.2c-.7,.8,-2,3.1,-2.6,4.5c-.1,.3,-.2,.6,-.3,.7c0,.1,-.2,.2,-.3,.2c-.8,.1,-1,.2,-1.4,.3q-.5,.2,-.3,.4c0,0,.3,0,1,-.1c.7,-.1,.9,-.1,.9,0c.1,.1,-.1,.5,-.3,.9c-.4,.7,-.6,1.4,-.6,1.9c0,.2,-.1,.7,-.2,1c-.2,.4,-.2,.7,-.2,.8c0,0,-.1,.2,-.2,.5c-.3,.6,-1.2,1,-2.3,.8Z" class="gh_67"/>
<path d="M131.5,723.2q0,-.1,.1,-.1c0,0,.1,0,.1,0c0,0,0,.1,-.1,.1h-.1Z" class="gh_67"/>
<path d="M129.3,719c-.6,-.4,-1.3,-1.4,-.9,-1.1c.1,0,.3,.2,.3,.2c.1,.2,.4,.4,.5,.3c0,-.1,.5,.4,.6,.7c.1,.2,.1,.3,.1,.3c0,0,-.3,-.2,-.6,-.4Z" class="gh_67"/>
<path d="M128.8,717.9c0,-.1,-.2,-.3,-.2,-.5c-.1,-.3,-.4,-.9,-.6,-1.4c-.3,-.5,-.5,-.9,-.6,-1.1c0,-.2,.8,-1.9,1.2,-2.2c.1,-.1,.4,-.5,.7,-.8c.3,-.2,.6,-.6,.8,-.7c.6,-.5,.9,-.7,1.3,-1.1c.2,-.2,.4,-.3,.4,-.3c.3,.1,.3,.3,.1,.3c-.1,0,-.4,.2,-.7,.5c-.4,.3,-.7,.6,-.7,.6c-.2,0,-.4,.2,-.9,.8c-.3,.3,-.5,.6,-.6,.6c0,0,-.9,1.3,-1.2,1.8c-.2,.5,-.2,.6,.4,1.8c.8,1.5,.9,1.9,.6,1.7Z" class="gh_67"/>
<path d="M127.2,716.6c-.1,-.2,-.1,-.3,0,-.2c.1,0,.2,.1,.3,.2c0,.2,0,.3,0,.3c-.1,0,-.2,-.1,-.3,-.3Z" class="gh_67"/>
<path d="M127.6,716.4c0,-.2,-.1,-.4,-.2,-.5c0,-.1,0,-.2,0,-.2c.1,0,.5,.5,.5,.8c0,.2,-.2,.1,-.3,-.1Z" class="gh_67"/>
<path d="M138.4,711.3c0,-.1,.1,-.1,.2,-.1c0,0,.1,0,.2,0c0,.1,-.1,.1,-.2,.1c-.1,0,-.2,0,-.2,0Z" class="gh_67"/>
<path d="M132.5,711.3c-.1,-.3,.1,-.5,.3,-.2c.1,.2,.1,.4,0,.4c-.1,0,-.2,0,-.3,-.2Z" class="gh_67"/>
<path d="M140.3,710.1c-.1,-.1,.8,-.4,.9,-.3c.1,0,.1,.1,0,.2c-.3,.1,-.9,.2,-.9,.1Z" class="gh_67"/>
<path d="M132.2,710.7q-.1,-.1,-.1,-.2q.1,-.1,.2,0c0,.1,0,.2,0,.2q-.1,0,-.1,0Z" class="gh_67"/>
<path d="M141.6,709.6c-.1,-.2,0,-1,.2,-1.2c.1,-.1,.3,-.4,.4,-.7c.2,-.2,.4,-.5,.5,-.6c.1,0,.3,-.2,.4,-.3c.4,-.5,2,-1.7,2.8,-2.2c.8,-.4,1.9,-.9,2.8,-1.2c.6,-.3,.6,-.4,0,-.3c-.3,.1,-1.3,.2,-2.2,.3c-1.7,.3,-2,.3,-2.4,.5c-.4,.1,-1.2,.6,-1.5,.9c-.1,.1,-.2,.2,-.3,.2c-.2,0,.8,-1,1.2,-1.1c.7,-.3,1.8,-.5,2.4,-.6c.4,0,1.5,-.2,2.4,-.3c.9,-.2,1.7,-.3,1.8,-.3c.3,.1,.3,.3,0,.4c-1.4,.5,-2.5,1,-3.3,1.4c-.8,.4,-1.7,.9,-2,1.1c0,.1,-.2,.3,-.4,.4c-1,.9,-1.8,1.7,-2,1.9c-.1,.2,-.2,.4,-.3,.4c-.1,0,-.4,.7,-.4,1c0,.3,-.1,.4,-.1,.3Z" class="gh_67"/>
<path d="M132.6,709.2c-.1,-.1,.6,-.6,1,-.8c.3,-.2,.2,-.1,-.2,.3c-.4,.4,-.8,.6,-.8,.5Z" class="gh_67"/>
<path d="M141.7,704.6q-.1,-.1,0,-.2c.1,0,.3,0,.2,.1c0,.1,-.1,.1,-.2,.1Z" class="gh_67"/>
<path d="M125.9,730.3c-.1,-.1,-.1,-.2,0,-.3c0,0,.1,.1,.1,.2c.1,.1,.1,.2,.1,.2c-.1,0,-.2,-.1,-.2,-.1Z" class="gi_67"/>
<path d="M129,729.7c0,0,0,-.1,.1,-.1q.2,-.1,.2,0c-.1,.2,-.4,.2,-.3,.1Z" class="gi_67"/>
<path d="M125.6,729.7c0,-.1,0,-.2,.1,-.2c0,.1,.1,.1,.1,.2q0,.2,-.2,0Z" class="gi_67"/>
<path d="M129.5,729.2c0,0,.2,-.2,.4,-.4c.2,-.1,.5,-.4,.5,-.5c.2,-.3,.4,-.4,.4,-.2c0,.1,-1,1.1,-1.2,1.2q-.1,0,-.1,-.1Z" class="gi_67"/>
<path d="M125.4,729c-.1,-.1,-.1,-.3,-.1,-.4q0,-.1,.1,.1c0,.1,.1,.3,.1,.3q0,.2,-.1,0Z" class="gi_67"/>
<path d="M131.2,727.4c.2,-.3,1,-1.2,1.1,-1.4q.1,0,.1,0c.1,.1,0,.2,-.2,.4c-.1,.1,-.4,.5,-.6,.8c-.5,.6,-.8,.8,-.4,.2Z" class="gi_67"/>
<path d="M124.8,727c0,-.1,0,-.2,0,-.2q.1,0,.2,.1c0,0,0,.1,0,.2q-.1,0,-.2,-.1Z" class="gi_67"/>
<path d="M132.5,725.8c0,-.3,.6,-1.2,.7,-1.2c.1,.1,-.6,1.3,-.7,1.4c0,0,0,-.1,0,-.2Z" class="gi_67"/>
<path d="M124.8,726.3c-.1,0,-.1,-.2,-.1,-.3c.1,-.2,.2,0,.2,.3c0,.1,-.1,.1,-.1,0Z" class="gi_67"/>
<path d="M124.7,725.7c0,-.1,0,-.3,0,-.3c.1,-.2,.1,0,.1,.3v.2Z" class="gi_67"/>
<path d="M133.2,724.4c0,-.1,0,-.3,-.1,-.4c-.1,-.1,0,-.1,.1,-.2c.4,0,.5,.1,.2,.5q-.1,.2,-.2,.1Z" class="gi_67"/>
<path d="M124.6,724.5c0,-.2,.1,-.9,.1,-.8c.1,0,.1,.4,0,.7c0,.1,-.1,.2,-.1,.1Z" class="gi_67"/>
<path d="M134,723.5c-.3,0,-.6,0,-.7,-.1q-.2,-.1,.1,0c.1,0,.5,0,.9,0c.5,0,.6,-.1,1,-.3c.3,-.2,.5,-.5,.6,-.7c.2,-.4,.2,-.3,.1,.2c-.1,.3,-.3,.5,-.7,.7c-.5,.2,-.6,.2,-1.3,.2Z" class="gi_67"/>
<path d="M132.4,723.2c-.4,0,-.4,-.1,-.1,-.1c.2,0,.3,.1,.3,.1q.1,.1,.1,.1c-.1,0,-.2,0,-.3,-.1Z" class="gi_67"/>
<path d="M127,723.5c-.3,-.2,-.5,-.6,-.4,-.7c.1,0,0,-.1,-.1,-.3c-.3,-.6,-1,-2.2,-1,-2.3c0,-.1,.1,0,.3,.4c.1,.4,.6,1.2,1,1.8c.3,.7,.6,1.2,.6,1.2c-.1,0,-.2,-.1,-.4,-.1Z" class="gi_67"/>
<path d="M124.7,723.2c-.1,-.1,0,-.8,.2,-.9c0,-.1,0,.1,0,.2c0,.5,-.1,.8,-.2,.7Z" class="gi_67"/>
<path d="M136.1,721.7c0,-.1,.1,-.2,.1,-.3q.1,-.1,.1,.1c0,.1,-.1,.2,-.1,.3q-.1,.1,-.1,-.1Z" class="gi_67"/>
<path d="M126.2,722.5q-.1,-.1,0,-.1c0,.1,.1,.2,.1,.2c0,.1,-.1,.1,-.1,-.1Z" class="gi_67"/>
<path d="M124.9,722.1c0,-.1,0,-.2,.1,-.3c0,-.2,.1,-.4,.1,-.5c0,-.4,.3,-.2,.4,.2q0,.2,0,.2c-.1,-.2,-.4,-.2,-.4,-.1c.1,.1,-.1,.6,-.2,.5Z" class="gi_67"/>
<path d="M136.3,721.1c0,-.1,.1,-.2,.1,-.4q.1,-.3,.1,.1c0,.2,-.1,.4,-.2,.3Z" class="gi_67"/>
<path d="M136.5,719.8c0,-.1,0,-.2,.1,-.2c0,-.1,.1,0,0,.1c0,.1,0,.2,0,.2c-.1,.1,-.1,0,-.1,-.1Z" class="gi_67"/>
<path d="M136.7,719.3c-.1,-.2,.1,-.6,.3,-1c.2,-.1,.2,-.3,.2,-.4c-.1,-.1,-.3,-.1,-.7,0c-.7,.1,-.8,0,-.1,-.2c.4,0,.8,-.1,.9,-.1c.3,-.1,.3,.1,-.1,.9c-.3,.5,-.5,.8,-.5,.8Z" class="gi_67"/>
<path d="M129.5,719.1c-.1,0,-.3,-.2,-.5,-.3c-.3,-.2,-.7,-.8,-.5,-.8c.1,0,.2,.1,.2,.2c.1,.1,.3,.2,.4,.3c.2,.1,.4,.2,.6,.5c.3,.3,.2,.4,-.2,.1Z" class="gi_67"/>
<path d="M125.3,719.2c0,-.2,0,-.4,0,-.5c.1,-.4,.6,-1.7,.7,-1.7c.1,-.1,.1,.1,-.2,.8c-.1,.4,-.3,1,-.3,1.2q-.1,.4,-.2,.2Z" class="gi_67"/>
<path d="M135.4,717.8c-.2,-.1,-.3,-.1,-.3,-.2c-.1,-.1,.7,-.5,1,-.5c.3,0,.2,.1,-.2,.2c-.5,.2,-.6,.3,-.4,.4q.2,.1,-.1,.1Z" class="gi_67"/>
<path d="M128.8,717.7c-.1,0,-.1,-.2,-.2,-.4q0,-.2,.1,0c0,.1,.1,.3,.1,.4q.1,.2,0,0Z" class="gi_67"/>
<path d="M136.9,716.9c.1,0,.2,0,.3,0c.1,.1,0,.1,-.2,.1q-.3,0,-.1,-.1Z" class="gi_67"/>
<path d="M137.5,716.6c.1,-.2,.2,-.3,.2,-.3c.1,0,-.1,.5,-.2,.6c0,0,0,-.1,0,-.3Z" class="gi_67"/>
<path d="M128.4,716.8c-.1,-.1,-.2,-.2,-.1,-.3q0,-.1,.1,.1c.2,.3,.2,.4,0,.2Z" class="gi_67"/>
<path d="M137.9,715.8c0,-.1,.1,-.2,.1,-.2c.1,0,0,.4,-.1,.4c-.1,0,-.1,-.1,0,-.2Z" class="gi_67"/>
<path d="M127.3,716.7q-.1,-.2,0,-.2c.2,.1,.2,.2,.1,.2q0,.1,-.1,0Z" class="gi_67"/>
<path d="M126,716.7c-.1,-.1,.5,-.9,.7,-.9c.3,0,.3,.2,.1,.3c-.2,0,-.4,.2,-.5,.4c-.1,.3,-.2,.3,-.3,.2Z" class="gi_67"/>
<path d="M127.6,716.2c-.1,-.2,-.1,-.3,-.1,-.4c.1,-.1,.4,.5,.3,.6q0,.1,-.2,-.2Z" class="gi_67"/>
<path d="M138,715.3c0,-.1,.2,-.4,.3,-.4c.1,-.1,.1,-.2,.2,-.3c.1,-.5,1,-1.9,2,-3.3c.1,-.3,.1,-.4,0,-.5c-.1,-.1,-.1,-.2,.1,-.3c.1,-.1,.2,-.1,.3,-.1c.2,.1,0,.8,-.2,1c-.3,.2,-1.4,1.9,-1.7,2.4c-.6,1.2,-.9,1.7,-1,1.5Z" class="gi_67"/>
<path d="M127.9,715.8q-.1,-.1,0,-.1c0,0,.1,0,.1,0q0,.1,0,.2c0,0,-.1,0,-.1,-.1Z" class="gi_67"/>
<path d="M127.5,715.2c0,-.1,0,-.2,0,-.3c0,-.1,0,0,.1,.2c.1,.1,.2,.2,.1,.2c0,0,-.1,0,-.2,-.1Z" class="gi_67"/>
<path d="M127.7,714.4c-.1,-.1,0,-.4,.1,-.3c.1,0,.1,.1,0,.2c0,.1,-.1,.2,-.1,.1Z" class="gi_67"/>
<path d="M128,713.6c0,-.1,.1,-.3,.3,-.4c.1,-.1,.2,-.3,.2,-.4c.1,0,.1,-.1,.2,-.1c.1,0,0,.2,-.4,.7c-.2,.3,-.3,.3,-.3,.2Z" class="gi_67"/>
<path d="M129,712.3c.3,-.3,.8,-.8,.8,-.8c.1,0,-.4,.6,-.7,.9l-.2,.2Z" class="gi_67"/>
<path d="M132.6,711.5c-.1,-.1,-.2,-.4,0,-.5c.1,0,.3,.4,.2,.5c0,0,-.1,0,-.2,0Z" class="gi_67"/>
<path d="M136.3,711c.1,-.1,.2,-.2,.3,-.2l-.1,.2c-.1,.1,-.2,.2,-.3,.2c0,0,0,-.1,.1,-.2Z" class="gi_67"/>
<path d="M130.6,710.9c.1,-.1,.2,-.2,.3,-.2c.1,0,-.2,.4,-.4,.4c-.1,0,0,-.1,.1,-.2Z" class="gi_67"/>
<path d="M140.7,710c-.1,0,0,-.1,.1,-.1c.2,-.1,.4,-.1,.4,0c0,.1,-.4,.2,-.5,.1Z" class="gi_67"/>
<path d="M131.3,710.2c.2,-.3,.5,-.5,.6,-.3c.1,.1,-.2,.3,-.7,.6c0,0,0,-.1,.1,-.3Z" class="gi_67"/>
<path d="M141.6,708.8c0,0,.1,-.1,.1,-.2c.1,-.1,.2,-.2,.2,-.2c0,.1,0,.2,-.1,.3c-.1,.1,-.1,.2,-.2,.1Z" class="gi_67"/>
<path d="M142.2,707.9c.2,-.5,.8,-1.1,2.4,-2.3c.8,-.7,2.6,-1.7,3.6,-2c1,-.3,1.1,-.4,1.1,-.6c-.2,-.2,.7,-.4,.9,-.2c.2,.1,.1,.3,-.1,.3c-.1,0,-.5,.1,-.8,.3c-.4,.1,-1,.4,-1.3,.5c-1.1,.4,-1.9,.8,-2.4,1.2c-.2,.2,-.5,.3,-.6,.4c-.1,0,-.4,.2,-.5,.4c-.2,.2,-.4,.3,-.4,.3c0,0,-.2,.1,-.4,.3c-1.1,1,-1.3,1.3,-1.3,1.5c0,.1,-.1,.2,-.2,.2c-.1,0,-.1,-.1,0,-.3Z" class="gi_67"/>
<path d="M133,708.9q0,-.1,.1,-.1c0,0,.1,0,0,.1c0,0,0,.1,-.1,.1c0,0,0,-.1,0,-.1Z" class="gi_67"/>
<path d="M142.3,704.9c0,0,0,-.1,.1,-.1c.1,-.1,.2,-.1,.2,-.1c0,0,0,.1,-.1,.2c-.1,0,-.2,.1,-.2,0Z" class="gi_67"/>
<path d="M143,704.2c.1,-.2,.5,-.3,.5,-.2c.1,.1,-.3,.3,-.5,.4c-.2,.1,-.2,0,0,-.2Z" class="gi_67"/>
<path d="M144.6,703.6c.1,0,.2,-.1,.3,-.1q.1,0,0,.1c-.1,0,-.2,.1,-.3,.1q-.1,0,0,-.1Z" class="gi_67"/>
<path d="M145.2,703.5c0,-.1,.4,-.2,.9,-.2c.6,-.1,.9,-.1,.9,0c0,0,-.4,.1,-.9,.2c-.6,0,-.9,0,-.9,0Z" class="gi_67"/>
<path d="M147.1,703.2c.1,0,.4,-.1,.9,-.1c.5,-.1,.7,-.1,.6,0c-.3,.1,-1.5,.2,-1.5,.1Z" class="gi_67"/>
<path d="M125.8,737c0,0,0,-.3,0,-.7c0,-.4,0,-.7,0,-.7c0,-.1,0,-.9,0,-1q.1,-.1,.5,0c.9,.5,1.2,.3,1,-.7c-.1,-1,.1,-1.1,.3,-.1c.1,.7,.1,.8,-.2,1c-.6,.5,-1.5,2,-1.4,2.2c.1,0,0,0,-.1,.1c0,0,-.1,0,-.1,-.1Z" class="gj_67"/>
<path d="M127.3,733c0,-.1,0,-.7,.1,-.8c.1,-.1,.1,0,.1,.4c-.1,.4,-.1,.5,-.2,.4Z" class="gj_67"/>
<path d="M127.3,731.7c0,0,0,-.2,0,-.5c0,-.3,.1,-.8,.1,-1.1c.1,-1,.5,-3.2,.7,-3.2c0,0,0,.1,0,.3c0,.1,-.1,.4,-.1,.5c0,.1,-.1,.4,-.1,.6c-.2,.7,-.3,2.1,-.1,2.2c0,.1,0,.2,-.1,.2c0,0,-.1,.3,-.2,.5c0,.5,-.1,.7,-.2,.5Z" class="gj_67"/>
<path d="M126.2,731.4c0,0,0,-.1,.1,-.2c0,0,0,-.2,0,-.3c-.1,-.2,.2,-.6,.3,-.5c0,.1,-.2,1.1,-.3,1.1l-.1,-.1Z" class="gj_67"/>
<path d="M125.9,730.3c-.1,-.1,-.1,-.2,0,-.3c0,0,.1,.1,.1,.2c.1,.1,.1,.2,.1,.2c-.1,0,-.2,-.1,-.2,-.1Z" class="gj_67"/>
<path d="M126.5,730.1c0,0,0,-.4,.2,-.8c.1,-.4,.2,-1,.3,-1.4c.1,-.4,.2,-.7,.3,-.8c.1,-.1,.1,0,0,.3c0,.3,-.1,.5,-.1,.6c-.1,.8,-.6,2.3,-.7,2.1Z" class="gj_67"/>
<path d="M129,729.7c0,0,0,-.1,.1,-.1q.2,-.1,.2,0c-.1,.2,-.4,.2,-.3,.1Z" class="gj_67"/>
<path d="M125.6,729.7c0,-.1,0,-.2,.1,-.2c0,.1,.1,.1,.1,.2q0,.2,-.2,0Z" class="gj_67"/>
<path d="M129.5,729.2c0,0,.2,-.2,.4,-.4c.2,-.1,.5,-.4,.5,-.5c.2,-.3,.4,-.4,.4,-.2c0,.1,-1,1.1,-1.2,1.2q-.1,0,-.1,-.1Z" class="gj_67"/>
<path d="M125.4,729c-.1,-.1,-.1,-.3,-.1,-.4q0,-.1,.1,.1c0,.1,.1,.3,.1,.3q0,.2,-.1,0Z" class="gj_67"/>
<path d="M131.2,727.4c.2,-.3,1,-1.2,1.1,-1.4q.1,0,.1,0c.1,.1,0,.2,-.2,.4c-.1,.1,-.4,.5,-.6,.8c-.5,.6,-.8,.8,-.4,.2Z" class="gj_67"/>
<path d="M124.8,727c0,-.1,0,-.2,0,-.2q.1,0,.2,.1c0,0,0,.1,0,.2q-.1,0,-.2,-.1Z" class="gj_67"/>
<path d="M128.1,726.7c0,-.5,1.5,-4,2.7,-6.2c.2,-.4,.5,-.9,.5,-1.1c0,-.3,.2,-.5,.3,-.3c.1,.1,-.2,.8,-1.3,2.8c-.5,1,-1,2.1,-1.2,2.5c-.2,.6,-.6,1.5,-.9,2.1c-.1,.2,-.1,.3,-.1,.2Z" class="gj_67"/>
<path d="M127.5,726.4c0,0,0,-.1,.1,-.1c0,0,.1,0,.1,0q0,.1,0,.1q-.1,0,-.2,0Z" class="gj_67"/>
<path d="M132.5,725.8c0,-.3,.6,-1.2,.7,-1.2c.1,.1,-.6,1.3,-.7,1.4c0,0,0,-.1,0,-.2Z" class="gj_67"/>
<path d="M124.8,726.3c-.1,0,-.1,-.2,-.1,-.3c.1,-.2,.2,0,.2,.3c0,.1,-.1,.1,-.1,0Z" class="gj_67"/>
<path d="M127.6,725.8c0,0,0,-.1,.1,-.1q.1,0,.1,0c.1,.2,-.1,.2,-.2,.1Z" class="gj_67"/>
<path d="M124.7,725.7c0,-.1,0,-.3,0,-.3c.1,-.2,.1,0,.1,.3v.2Z" class="gj_67"/>
<path d="M127.9,725.4c-.1,0,.3,-.7,.4,-.6c0,0,-.1,.1,-.2,.3c-.1,.3,-.2,.4,-.2,.3Z" class="gj_67"/>
<path d="M133.2,724.4c0,-.1,0,-.3,-.1,-.4c-.1,-.1,0,-.1,.1,-.2c.4,0,.5,.1,.2,.5q-.1,.2,-.2,.1Z" class="gj_67"/>
<path d="M128.3,724.6c0,-.1,.2,-.6,.5,-1.1c.3,-.6,.4,-.8,.3,-.5c-.2,.5,-.9,1.9,-.8,1.6Z" class="gj_67"/>
<path d="M124.6,724.5c0,-.2,.1,-.9,.1,-.8c.1,0,.1,.4,0,.7c0,.1,-.1,.2,-.1,.1Z" class="gj_67"/>
<path d="M134,723.5c-.3,0,-.6,0,-.7,-.1q-.2,-.1,.1,0c.1,0,.5,0,.9,0c.5,0,.6,-.1,1,-.3c.3,-.2,.5,-.5,.6,-.7c.2,-.4,.2,-.3,.1,.2c-.1,.3,-.3,.5,-.7,.7c-.5,.2,-.6,.2,-1.3,.2Z" class="gj_67"/>
<path d="M132.4,723.2c-.4,0,-.4,-.1,-.1,-.1c.2,0,.3,.1,.3,.1q.1,.1,.1,.1c-.1,0,-.2,0,-.3,-.1Z" class="gj_67"/>
<path d="M127,723.5c-.3,-.2,-.5,-.6,-.4,-.7c.1,0,0,-.1,-.1,-.3c-.3,-.6,-1,-2.2,-1,-2.3c0,-.1,.1,0,.3,.4c.1,.4,.6,1.2,1,1.8c.3,.7,.6,1.2,.6,1.2c-.1,0,-.2,-.1,-.4,-.1Z" class="gj_67"/>
<path d="M124.7,723.2c-.1,-.1,0,-.8,.2,-.9c0,-.1,0,.1,0,.2c0,.5,-.1,.8,-.2,.7Z" class="gj_67"/>
<path d="M136.1,721.7c0,-.1,.1,-.2,.1,-.3q.1,-.1,.1,.1c0,.1,-.1,.2,-.1,.3q-.1,.1,-.1,-.1Z" class="gj_67"/>
<path d="M126.2,722.5q-.1,-.1,0,-.1c0,.1,.1,.2,.1,.2c0,.1,-.1,.1,-.1,-.1Z" class="gj_67"/>
<path d="M129.3,722.2c.1,-.2,.2,-.3,.2,-.3c.1,.1,0,.3,-.1,.4q-.2,.1,-.1,-.1Z" class="gj_67"/>
<path d="M129.8,721.2c.1,-.3,.3,-.5,.3,-.6c0,0,.2,-.4,.5,-.9c.2,-.5,.6,-1.2,.7,-1.4c.2,-.2,.5,-.8,.8,-1.2c.4,-.7,.6,-.9,.7,-.8c0,.1,-.2,.4,-1,1.5c-.2,.4,-.5,.9,-.7,1.2c-.1,.2,-.3,.7,-.5,1.1c-.2,.4,-.5,1,-.6,1.2c-.3,.7,-.5,.6,-.2,-.1Z" class="gj_67"/>
<path d="M124.9,722.1c0,-.1,0,-.2,.1,-.3c0,-.2,.1,-.4,.1,-.5c0,-.4,.3,-.2,.4,.2q0,.2,0,.2c-.1,-.2,-.4,-.2,-.4,-.1c.1,.1,-.1,.6,-.2,.5Z" class="gj_67"/>
<path d="M136.3,721.1c0,-.1,.1,-.2,.1,-.4q.1,-.3,.1,.1c0,.2,-.1,.4,-.2,.3Z" class="gj_67"/>
<path d="M136.5,719.8c0,-.1,0,-.2,.1,-.2c0,-.1,.1,0,0,.1c0,.1,0,.2,0,.2c-.1,.1,-.1,0,-.1,-.1Z" class="gj_67"/>
<path d="M136.7,719.3c-.1,-.2,.1,-.6,.3,-1c.2,-.1,.2,-.3,.2,-.4c-.1,-.1,-.3,-.1,-.7,0c-.7,.1,-.8,0,-.1,-.2c.4,0,.8,-.1,.9,-.1c.3,-.1,.3,.1,-.1,.9c-.3,.5,-.5,.8,-.5,.8Z" class="gj_67"/>
<path d="M129.5,719.1c-.1,0,-.3,-.2,-.5,-.3c-.3,-.2,-.7,-.8,-.5,-.8c.1,0,.2,.1,.2,.2c.1,.1,.3,.2,.4,.3c.2,.1,.4,.2,.6,.5c.3,.3,.2,.4,-.2,.1Z" class="gj_67"/>
<path d="M125.3,719.2c0,-.2,0,-.4,0,-.5c.1,-.4,.6,-1.7,.7,-1.7c.1,-.1,.1,.1,-.2,.8c-.1,.4,-.3,1,-.3,1.2q-.1,.4,-.2,.2Z" class="gj_67"/>
<path d="M135.4,717.8c-.2,-.1,-.3,-.1,-.3,-.2c-.1,-.1,.7,-.5,1,-.5c.3,0,.2,.1,-.2,.2c-.5,.2,-.6,.3,-.4,.4q.2,.1,-.1,.1Z" class="gj_67"/>
<path d="M128.8,717.7c-.1,0,-.1,-.2,-.2,-.4q0,-.2,.1,0c0,.1,.1,.3,.1,.4q.1,.2,0,0Z" class="gj_67"/>
<path d="M136.9,716.9c.1,0,.2,0,.3,0c.1,.1,0,.1,-.2,.1q-.3,0,-.1,-.1Z" class="gj_67"/>
<path d="M137.5,716.6c.1,-.2,.2,-.3,.2,-.3c.1,0,-.1,.5,-.2,.6c0,0,0,-.1,0,-.3Z" class="gj_67"/>
<path d="M128.4,716.8c-.1,-.1,-.2,-.2,-.1,-.3q0,-.1,.1,.1c.2,.3,.2,.4,0,.2Z" class="gj_67"/>
<path d="M137.9,715.8c0,-.1,.1,-.2,.1,-.2c.1,0,0,.4,-.1,.4c-.1,0,-.1,-.1,0,-.2Z" class="gj_67"/>
<path d="M127.3,716.7q-.1,-.2,0,-.2c.2,.1,.2,.2,.1,.2q0,.1,-.1,0Z" class="gj_67"/>
<path d="M126,716.7c-.1,-.1,.5,-.9,.7,-.9c.3,0,.3,.2,.1,.3c-.2,0,-.4,.2,-.5,.4c-.1,.3,-.2,.3,-.3,.2Z" class="gj_67"/>
<path d="M127.6,716.2c-.1,-.2,-.1,-.3,-.1,-.4c.1,-.1,.4,.5,.3,.6q0,.1,-.2,-.2Z" class="gj_67"/>
<path d="M133,715.7c.1,-.2,.2,-.4,.3,-.3c.1,0,-.3,.6,-.4,.6c-.1,0,0,-.1,.1,-.3Z" class="gj_67"/>
<path d="M138,715.3c0,-.1,.2,-.4,.3,-.4c.1,-.1,.1,-.2,.2,-.3c.1,-.5,1,-1.9,2,-3.3c.1,-.3,.1,-.4,0,-.5c-.1,-.1,-.1,-.2,.1,-.3c.1,-.1,.2,-.1,.3,-.1c.2,.1,0,.8,-.2,1c-.3,.2,-1.4,1.9,-1.7,2.4c-.6,1.2,-.9,1.7,-1,1.5Z" class="gj_67"/>
<path d="M127.9,715.8q-.1,-.1,0,-.1c0,0,.1,0,.1,0q0,.1,0,.2c0,0,-.1,0,-.1,-.1Z" class="gj_67"/>
<path d="M133.4,715.2c0,-.1,.5,-1,.8,-1.4c.1,-.2,.3,-.5,.4,-.6c.2,-.4,.8,-1.1,.9,-1c0,0,0,.1,-.1,.2c-.1,.1,-.3,.3,-.3,.4c-.1,0,-.3,.4,-.5,.7c-.3,.3,-.6,.8,-.7,1c-.3,.6,-.4,.8,-.5,.7Z" class="gj_67"/>
<path d="M127.5,715.2c0,-.1,0,-.2,0,-.3c0,-.1,0,0,.1,.2c.1,.1,.2,.2,.1,.2c0,0,-.1,0,-.2,-.1Z" class="gj_67"/>
<path d="M127.7,714.4c-.1,-.1,0,-.4,.1,-.3c.1,0,.1,.1,0,.2c0,.1,-.1,.2,-.1,.1Z" class="gj_67"/>
<path d="M128,713.6c0,-.1,.1,-.3,.3,-.4c.1,-.1,.2,-.3,.2,-.4c.1,0,.1,-.1,.2,-.1c.1,0,0,.2,-.4,.7c-.2,.3,-.3,.3,-.3,.2Z" class="gj_67"/>
<path d="M129,712.3c.3,-.3,.8,-.8,.8,-.8c.1,0,-.4,.6,-.7,.9l-.2,.2Z" class="gj_67"/>
<path d="M135.9,711.5c.1,-.1,.2,-.2,.2,-.2c0,0,0,.2,-.1,.3l-.2,.2Z" class="gj_67"/>
<path d="M132.6,711.5c-.1,-.1,-.2,-.4,0,-.5c.1,0,.3,.4,.2,.5c0,0,-.1,0,-.2,0Z" class="gj_67"/>
<path d="M130.6,710.9c.1,-.1,.2,-.2,.3,-.2c.1,0,-.2,.4,-.4,.4c-.1,0,0,-.1,.1,-.2Z" class="gj_67"/>
<path d="M140.7,710c-.1,0,0,-.1,.1,-.1c.2,-.1,.4,-.1,.4,0c0,.1,-.4,.2,-.5,.1Z" class="gj_67"/>
<path d="M131.3,710.2c.2,-.3,.5,-.5,.6,-.3c.1,.1,-.2,.3,-.7,.6c0,0,0,-.1,.1,-.3Z" class="gj_67"/>
<path d="M141.6,708.8c0,0,.1,-.1,.1,-.2c.1,-.1,.2,-.2,.2,-.2c0,.1,0,.2,-.1,.3c-.1,.1,-.1,.2,-.2,.1Z" class="gj_67"/>
<path d="M142.2,707.9c.2,-.5,.8,-1.1,2.4,-2.3c.8,-.7,2.6,-1.7,3.6,-2c1,-.3,1.1,-.4,1.1,-.6c-.2,-.2,.7,-.4,.9,-.2c.2,.1,.1,.3,-.1,.3c-.1,0,-.5,.1,-.8,.3c-.4,.1,-1,.4,-1.3,.5c-1.1,.4,-1.9,.8,-2.4,1.2c-.2,.2,-.5,.3,-.6,.4c-.1,0,-.4,.2,-.5,.4c-.2,.2,-.4,.3,-.4,.3c0,0,-.2,.1,-.4,.3c-1.1,1,-1.3,1.3,-1.3,1.5c0,.1,-.1,.2,-.2,.2c-.1,0,-.1,-.1,0,-.3Z" class="gj_67"/>
<path d="M133,708.9q0,-.1,.1,-.1c0,0,.1,0,0,.1c0,0,0,.1,-.1,.1c0,0,0,-.1,0,-.1Z" class="gj_67"/>
<path d="M142.3,704.9c0,0,0,-.1,.1,-.1c.1,-.1,.2,-.1,.2,-.1c0,0,0,.1,-.1,.2c-.1,0,-.2,.1,-.2,0Z" class="gj_67"/>
<path d="M143,704.2c.1,-.2,.5,-.3,.5,-.2c.1,.1,-.3,.3,-.5,.4c-.2,.1,-.2,0,0,-.2Z" class="gj_67"/>
<path d="M144.6,703.6c.1,0,.2,-.1,.3,-.1q.1,0,0,.1c-.1,0,-.2,.1,-.3,.1q-.1,0,0,-.1Z" class="gj_67"/>
<path d="M145.2,703.5c0,-.1,.4,-.2,.9,-.2c.6,-.1,.9,-.1,.9,0c0,0,-.4,.1,-.9,.2c-.6,0,-.9,0,-.9,0Z" class="gj_67"/>
<path d="M147.1,703.2c.1,0,.4,-.1,.9,-.1c.5,-.1,.7,-.1,.6,0c-.3,.1,-1.5,.2,-1.5,.1Z" class="gj_67"/>
<path d="M128.2,716.8q-.1,-.2,-.1,-.1c-.1,.1,0,.3,.1,.3c.1,0,.1,-.1,0,-.2Z" class="ge_67"/>
</g>
<path d="M152.7,748.6H366.2" class="g0_67"/>
<path d="M137.6,756.8v43.8" class="gb_67"/>
<path d="M117.7,961.8V851.7H791.8V961.8Z" class="g1_67"/>
<path d="M117.7,961.8V851.7H791.8V961.8Z" class="ga_67"/>
<g clip-path="url(#c7_67)">
<path clip-path="url(#c3_67)" d="M126.4,883.8c0,0,1.5,-.9,1.2,-1.2c-.1,-.1,-.3,-.1,-.6,-.1c-1.6,.3,-5,2.1,-3.3,4.2c1.4,1.5,6.4,2.3,11.7,1.3c7.3,-1.4,13.5,-5.4,11.1,-8.3c-1.6,-1.9,-6.7,-2.1,-10.8,-2.2c-2.1,0,-6.6,0,-8,-1.7c-.6,-.7,-.5,-1.6,.1,-2.1c1,-.9,3.8,-1.5,4,-1.5c.7,-.1,2.5,-.4,4.6,-.4c1.1,0,2.5,0,3.2,1c.2,.2,.4,.5,.4,.6c0,.1,0,.2,.1,.3c.1,.1,.4,0,.5,0c.5,-.1,1.5,-.5,2,-1c.3,-.3,.8,-.7,0,-1.6c-.9,-1,-2.3,-1.1,-4,-1.1c-2.3,0,-4.1,.3,-4.9,.4c-5.8,1.2,-11.1,4.6,-9,7.1c1.5,1.8,6.3,1.8,9,1.9c3.9,0,8.4,.3,9.8,2c.6,.6,.9,1.8,-.4,2.8c-1.2,1,-4,1.7,-5.8,2.1c-4.4,.8,-9.4,.1,-10.6,-1.3c0,0,-.5,-.6,-.3,-1.2Z" class="g2_67"/>
<path d="M131.5,886.3l-.2,-.3l.3,-4.5q.3,-5.6,.5,-6c.1,-.2,1.6,-2.2,3.3,-4.6c1.7,-2.4,4.3,-6.1,5.9,-8.2c1.5,-2.2,2.8,-4,2.9,-4c.4,0,.1,.4,-1.8,3.2c-1.2,1.6,-3.7,5.2,-5.7,8.1c-2,2.8,-3.6,5.2,-3.6,5.2c0,0,.5,.1,1,.1c2,.2,3.3,.6,4.5,1.2c.6,.3,1,.6,1.5,1.1c.8,.8,1.2,1.4,1.4,2.3c.1,.2,.1,.4,.2,.4c.1,0,.7,-.8,5.2,-7.6c2.4,-3.6,4.5,-6.7,4.6,-6.8c.2,-.2,.4,0,.2,.2c0,.2,-1.5,2.4,-3.2,5.1c-1.8,2.6,-3.8,5.7,-4.5,6.7c-1.5,2.4,-2.1,3.3,-2.3,3.8c-.2,.3,-.3,.4,-.9,.7c-.8,.4,-8.7,3.9,-8.9,4c-.1,0,-.3,0,-.4,-.1Z" class="g2_67"/>
<path d="M135.2,884.3c2.2,-1,4,-1.8,4.6,-2.1c.7,-.3,.7,-.4,.7,-1.4c-.2,-1.7,-1.4,-3,-3.6,-3.7c-1.2,-.4,-4.3,-.9,-4.4,-.7c0,.1,-.1,1.5,-.2,3.2c-.1,1.7,-.2,3.3,-.2,3.6c-.1,1.1,.1,1.4,-.2,2.5c.1,.1,1.8,-.8,1.8,-.8c.1,0,.7,-.3,1.5,-.6Z" class="g2_67"/>
<path d="M131.5,886.3l-.2,-.3l.3,-4.5q.3,-5.6,.5,-6c.1,-.2,1.6,-2.2,3.3,-4.6c1.7,-2.4,4.3,-6.1,5.9,-8.2c1.5,-2.2,2.8,-4,2.9,-4c.4,0,.1,.4,-1.8,3.2c-1.2,1.6,-3.7,5.2,-5.7,8.1c-2,2.8,-3.6,5.2,-3.6,5.2c0,0,.5,.1,1,.1c2,.2,3.3,.6,4.5,1.2c.6,.3,1,.6,1.5,1.1c.8,.8,1.2,1.4,1.4,2.3c.1,.2,.1,.4,.2,.4c.1,0,.7,-.8,5.2,-7.6c2.4,-3.6,4.5,-6.7,4.6,-6.8c.2,-.2,.4,0,.2,.2c0,.2,-1.5,2.4,-3.2,5.1c-1.8,2.6,-3.8,5.7,-4.5,6.7c-1.5,2.4,-2.1,3.3,-2.3,3.8c-.2,.3,-.3,.4,-.9,.7c-.8,.4,-8.7,3.9,-8.9,4c-.1,0,-.3,0,-.4,-.1Zm3.7,-2c2.2,-1,4,-1.8,4.6,-2.1c.7,-.3,.7,-.4,.7,-1.4c-.2,-1.7,-1.4,-3,-3.6,-3.7c-1.2,-.4,-4.3,-.9,-4.4,-.7c0,.1,-.1,1.5,-.2,3.2c-.1,1.7,-.2,3.3,-.2,3.6c-.1,1.1,.1,1.4,-.2,2.5c.1,.1,1.8,-.8,1.8,-.8c.1,0,.7,-.3,1.5,-.6Z" class="g3_67"/>
<path d="M135.3,875.7l11.2,-16.1m-8.2,17.2L149,861.1" class="g4_67"/>
<path d="M140.4,878.5l10,-14.4l.2,-.4" class="g5_67"/>
<path d="M134.1,875.3c-.4,-.1,-.8,-.2,-.9,-.2c0,0,2.5,-3.6,6.7,-9.6c1.9,-2.7,3.6,-5.2,3.8,-5.5c.2,-.3,.4,-.6,.5,-.6c.1,0,.7,.5,.9,.7c.1,.3,.1,.5,-.1,1.1c-.2,.5,-9.8,14.2,-9.9,14.2c-.1,0,-.5,0,-1,-.1Z" class="g6_67"/>
<path d="M137.6,876.1c-.2,-.2,-.8,-.3,-1.2,-.4l-.7,-.2l.3,-.3c.1,-.2,2.3,-3.4,4.8,-7.1l4.7,-6.6l.5,-.3c.9,-.5,1.6,-.5,2.1,0l.3,.3l-5,7.4c-3.1,4.5,-5.1,7.4,-5.1,7.4c-.1,0,-.4,-.1,-.7,-.2Z" class="g6_67"/>
<path d="M140,877.5c-.2,-.3,-.6,-.6,-.8,-.7c-.2,-.1,-.3,-.2,-.3,-.3c0,-.1,9.4,-13.9,9.8,-14.5c.1,-.1,.5,.3,.8,.7c.3,.4,.3,.5,.4,1c0,.3,0,.6,-.1,.7c-.2,.3,-9.1,13.2,-9.2,13.4q-.2,.1,-.6,-.3Z" class="g6_67"/>
<path d="M141.6,880.1c0,0,-.1,-.3,-.1,-.5c-.1,-.3,-.3,-.6,-.4,-.9l-.3,-.4l4.7,-6.7c2.6,-3.8,4.8,-6.8,4.8,-6.8c.4,0,1,.7,1,1.1c0,.1,-.6,1.2,-1.9,3.1c-1.1,1.5,-3.1,4.6,-4.6,6.8c-3,4.4,-3.1,4.5,-3.2,4.3Z" class="g6_67"/>
<path d="M131.9,881.6c2.3,-.1,3.6,.7,4.1,2.3" class="g7_67"/>
<path d="M132,885.5c0,-.3,.1,-.4,.1,-1.3c0,-.8,0,-.9,0,-1.3c0,-.3,0,-.6,0,-.7l.1,-.3c.1,0,.6,0,.7,0c.4,.1,.8,.2,1.1,.3c.2,0,.4,.2,.6,.3c.2,.1,.3,.2,.4,.4c.3,.2,.4,.4,.6,.7c0,.1,.1,.4,.1,.4c0,.1,-1.5,.7,-1.8,.8c-.1,.1,-.2,.1,-.3,.1c-1.1,.6,-1.4,.8,-1.6,.8Z" class="g2_67"/>
<path d="M136.2,883.4c-.6,-1.2,-1.8,-1.9,-3.4,-2.1h-.6v-.5c.1,-.3,.1,-1.3,.2,-2.2c0,-.9,.1,-1.8,.1,-1.9l.1,-.3l.7,.1c.8,0,2.3,.3,3.1,.5c1.7,.4,3.1,1.4,3.6,2.4c.4,.8,.6,2.1,.3,2.5c-.1,.1,-.8,.4,-2.5,1.2c-1.6,.7,-1.5,.7,-1.6,.3Z" class="g8_67"/>
<path d="M136.2,883.4c-.6,-1.2,-1.8,-1.9,-3.4,-2.1h-.6v-.5c.1,-.3,.1,-1.3,.2,-2.2c0,-.9,.1,-1.8,.1,-1.9l.1,-.3l.7,.1c.8,0,2.3,.3,3.1,.5c1.7,.4,3.1,1.4,3.6,2.4c.4,.8,.6,2.1,.3,2.5c-.1,.1,-.8,.4,-2.5,1.2c-1.6,.7,-1.5,.7,-1.6,.3Z" class="g9_67"/>
</g>
<path d="M152.7,903.3H584.8" class="g0_67"/>
<path d="M137.6,908.5v43.9" class="gb_67"/>
</svg>