<?xml version="1.0" encoding="UTF-8" standalone="no"?>
<!DOCTYPE svg PUBLIC "-//W3C//DTD SVG 1.1//EN"
"http://www.w3.org/Graphics/SVG/1.1/DTD/svg11.dtd">
<svg viewBox="0 0 1286 909" version="1.1" xmlns="http://www.w3.org/2000/svg" xmlns:xlink="http://www.w3.org/1999/xlink">
<defs>
<style type="text/css"><![CDATA[
.g0_1020{
fill: none;
stroke: #000000;
stroke-width: 0.73;
stroke-linecap: butt;
stroke-linejoin: miter;
}
.g1_1020{
fill: #FFCCCC;
}
.g2_1020{
fill: none;
stroke: #F81693;
stroke-width: 1.461;
stroke-linecap: butt;
stroke-linejoin: miter;
stroke-dasharray: 2,2;
}
]]></style>
</defs>
<path d="M193,83.4h900.3M193,210.6H751.1m-558.1,0H751.1M431.4,240.2V211m0,58.5V240.2m0,63.9V269.5" class="g0_1020"/>
<path d="M537.5,303.4H597V270.5H537.5v32.9Z" class="g1_1020"/>
<path d="M611.2,303.3H736.4" class="g2_1020"/>
<path d="M431.4,334.2V304.1m0,63V334.2" class="g0_1020"/>
<path d="M607.7,362.7h32" class="g2_1020"/>
<path d="M649.4,367.1h90.7V334.2H649.4v32.9Z" class="g1_1020"/>
<path d="M431.4,396.3V367.1m0,58.4V396.3m0,63.8V425.5" class="g0_1020"/>
<path d="M452.8,459.5h75.8V426.6H452.8v32.9Z" class="g1_1020"/>
<path d="M542.7,459.4H736.4" class="g2_1020"/>
<path d="M431.4,489.4V460.1m0,62.1V489.4" class="g0_1020"/>
<path d="M447.3,517.9H563.7" class="g2_1020"/>
<path d="M573.4,522.2H740.1V489.4H573.4v32.8Z" class="g1_1020"/>
<path d="M431.4,551.5V522.2M193,551.8H751.1m-558.1,0H751.1" class="g0_1020"/>
</svg>