<?xml version="1.0" encoding="UTF-8" standalone="no"?>
<!DOCTYPE svg PUBLIC "-//W3C//DTD SVG 1.1//EN"
"http://www.w3.org/Graphics/SVG/1.1/DTD/svg11.dtd">
<svg viewBox="0 0 1286 909" version="1.1" xmlns="http://www.w3.org/2000/svg" xmlns:xlink="http://www.w3.org/1999/xlink">
<defs>
<style type="text/css"><![CDATA[
.g0_761{
fill: none;
stroke: #000000;
stroke-width: 0.73;
stroke-linecap: butt;
stroke-linejoin: miter;
}
.g1_761{
fill: #E6CEEE;
}
.g2_761{
fill: none;
stroke: #02B5EE;
stroke-width: 1.262;
stroke-linecap: butt;
stroke-linejoin: miter;
}
.g3_761{
fill: none;
stroke: #FFA313;
stroke-width: 1.262;
stroke-linecap: butt;
stroke-linejoin: miter;
}
.g4_761{
fill: none;
stroke: #FFA313;
stroke-width: 0.73;
stroke-linecap: butt;
stroke-linejoin: miter;
}
.g5_761{
fill: none;
stroke: #02B5EE;
stroke-width: 0.73;
stroke-linecap: butt;
stroke-linejoin: miter;
}
]]></style>
</defs>
<path d="M193,83.4h900.3M193,210.6H934.5m-741.5,0H934.5M549.6,240.2V211m0,58.5V240.2m0,64.1V269.5" class="g0_761"/>
<path d="M824.8,304.3h98.7V271.4H824.8v32.9Z" class="g1_761"/>
<path d="M549.6,333.5V304.3m0,62.1V333.5" class="g0_761"/>
<path d="M812.2,366.4H923.5V333.5H812.2v32.9Z" class="g1_761"/>
<path d="M549.6,395.6V366.4m0,58.4V395.6m0,114.2v-85" class="g0_761"/>
<path d="M640.4,485.9H675" class="g2_761"/>
<path d="M685.5,485.9h238" class="g3_761"/>
<path d="M549.6,539.1V509.8m0,102.3v-73" class="g0_761"/>
<path d="M714.1,598.2H883.7" class="g4_761"/>
<path d="M889.7,598.2h33.8" class="g5_761"/>
<path d="M549.6,641.3V612.1m0,58.5V641.3m0,58.5V670.6M193,700.2H934.5m-741.5,0H934.5" class="g0_761"/>
</svg>