<?xml version="1.0" encoding="UTF-8" standalone="no"?>
<!DOCTYPE svg PUBLIC "-//W3C//DTD SVG 1.1//EN"
"http://www.w3.org/Graphics/SVG/1.1/DTD/svg11.dtd">
<svg viewBox="0 0 909 1286" version="1.1" xmlns="http://www.w3.org/2000/svg" xmlns:xlink="http://www.w3.org/1999/xlink">
<defs>
<clipPath id="c0_106"><path d="M119.5,288.6V255.1H446.9v33.5Z"/></clipPath>
<clipPath id="c1_106"><path d="M462.5,288.6V255.1H789.9v33.5Z"/></clipPath>
<style type="text/css"><![CDATA[
.g0_106{
fill: none;
stroke: #000000;
stroke-width: 0.73;
stroke-linecap: butt;
stroke-linejoin: miter;
}
.g1_106{
fill: #7F7F7F;
fill-opacity: 0.01;
}
.g2_106{
fill: #7F7F7F;
fill-opacity: 0.02;
}
.g3_106{
fill: #7F7F7F;
fill-opacity: 0.04;
}
.g4_106{
fill: #7F7F7F;
fill-opacity: 0.07;
}
.g5_106{
fill: #7F7F7F;
fill-opacity: 0.11;
}
.g6_106{
fill: #FFFFFF;
}
.g7_106{
fill: #7F7F7F;
}
.g8_106{
fill: #00AEEF;
}
.g9_106{
fill: #CBCEFB;
}
.ga_106{
fill: #EC008C;
}
.gb_106{
fill: #FFFEF5;
}
.gc_106{
fill: none;
stroke: #D6C944;
stroke-width: 0.365;
stroke-linecap: butt;
stroke-linejoin: miter;
}
.gd_106{
fill: #E81A58;
}
.ge_106{
fill: #401A1A;
}
]]></style>
</defs>
<path d="M116.9,159.9H792.5" class="g0_106"/>
<path d="M122.2,257.8c107.4,0,214.7,0,322,0V574.6c-107.3,-9.4,-214.6,-9.4,-322,0Z" class="g1_106"/>
<path d="M122.9,258.4c106.9,0,213.8,0,320.7,0V574c-106.9,-9.4,-213.8,-9.4,-320.7,0Z" class="g2_106"/>
<path d="M123.5,259.1c106.5,0,213,0,319.5,0V573.3C336.5,564,230,564,123.5,573.3Z" class="g3_106"/>
<path d="M124.1,259.7c106.1,0,212.2,0,318.3,0v313c-106.1,-9.3,-212.2,-9.3,-318.3,0Z" class="g4_106"/>
<path d="M124.7,260.3c105.7,0,211.4,0,317,0V572.1c-105.6,-9.4,-211.3,-9.4,-317,0Z" class="g5_106"/>
<path d="M125.4,260.9c105.2,0,210.5,0,315.7,0V571.5c-105.2,-9.4,-210.5,-9.4,-315.7,0Z" class="g5_106"/>
<path d="M126,261.6c104.8,0,209.7,0,314.5,0V570.8c-104.8,-9.3,-209.7,-9.3,-314.5,0Z" class="g4_106"/>
<path d="M126.6,262.2c104.4,0,208.8,0,313.3,0v308c-104.5,-9.3,-208.9,-9.3,-313.3,0Z" class="g3_106"/>
<path d="M127.2,262.8c104,0,208,0,312,0V569.6c-104,-9.4,-208,-9.4,-312,0Z" class="g2_106"/>
<path d="M127.9,263.4c103.5,0,207.1,0,310.7,0V569C335,559.6,231.4,559.6,127.9,569Z" class="g1_106"/>
<path d="M116.9,564.3V252.5H449.5V564.3Z" class="g6_106"/>
<path d="M119.5,561.7V291.2H446.9V561.7Z" class="g6_106"/>
<path d="M119.5,288.6V255.1H446.9v33.5Z" class="g7_106"/>
<g clip-path="url(#c0_106)">
<image x="119" y="254" width="329" height="34" xlink:href="shade/1.png"/>
</g>
<path d="M316.9,283.4h104V260.3h-104v23.1Z" class="g8_106"/>
<path d="M209.2,336.1h148M209.6,365.6V336.4" class="g0_106"/>
<path d="M210,365.6H356.5V336.4H210v29.2Z" class="g9_106"/>
<path d="M356.9,365.6V336.4M209.2,366h148M209.6,395.6V366.4m147.3,29.2V366.4M209.2,396h148M209.6,425.5V396.3m147.3,29.2V396.3M209.2,425.9h148M209.6,455.5V426.3m147.3,29.2V426.3M209.2,455.9h148M209.6,485.5V456.2m147.3,29.3V456.2M209.2,485.8h148M209.6,515.4V486.2m147.3,29.2V486.2M209.2,515.8h148M209.6,545.4V516.1m147.3,29.3V516.1M209.2,545.7h148" class="g0_106"/>
<path d="M465.2,257.8c107.4,0,214.7,0,322,0V412.4c-107.3,-9.4,-214.6,-9.4,-322,0Z" class="g1_106"/>
<path d="M465.8,258.4c107,0,213.9,0,320.8,0V411.8c-106.9,-9.4,-213.8,-9.4,-320.8,0Z" class="g2_106"/>
<path d="M466.5,259.1c106.5,0,213,0,319.5,0v152c-106.5,-9.3,-213,-9.3,-319.5,0Z" class="g3_106"/>
<path d="M467.1,259.7c106.1,0,212.2,0,318.2,0V410.5c-106,-9.3,-212.1,-9.3,-318.2,0Z" class="g4_106"/>
<path d="M467.7,260.3c105.7,0,211.3,0,317,0V409.9c-105.7,-9.4,-211.3,-9.4,-317,0Z" class="g5_106"/>
<path d="M468.3,260.9c105.3,0,210.5,0,315.8,0V409.3c-105.3,-9.4,-210.5,-9.4,-315.8,0Z" class="g5_106"/>
<path d="M469,261.6c104.8,0,209.6,0,314.5,0v147c-104.9,-9.3,-209.7,-9.3,-314.5,0Z" class="g4_106"/>
<path d="M469.6,262.2c104.4,0,208.8,0,313.2,0V408C678.4,398.7,574,398.7,469.6,408Z" class="g3_106"/>
<path d="M470.2,262.8c104,0,208,0,312,0V407.4c-104,-9.4,-208,-9.4,-312,0Z" class="g2_106"/>
<path d="M470.8,263.4c103.6,0,207.2,0,310.8,0V406.8c-103.6,-9.4,-207.2,-9.4,-310.8,0Z" class="g1_106"/>
<path d="M459.9,402.1V252.5H792.5V402.1Z" class="g6_106"/>
<path d="M462.5,399.5V291.2H789.9V399.5Z" class="g6_106"/>
<path d="M462.5,288.6V255.1H789.9v33.5Z" class="g7_106"/>
<g clip-path="url(#c1_106)">
<image x="462" y="254" width="329" height="34" xlink:href="shade/2.png"/>
</g>
<path d="M675.7,283.4h88.2V260.3H675.7v23.1Z" class="ga_106"/>
<path d="M597.6,323.6h57.2M598,353.2V324" class="g0_106"/>
<path d="M598.4,353.2h55.7V324H598.4v29.2Z" class="g9_106"/>
<path d="M654.4,353.2V324m-56.8,29.6h57.2M598,383.2V354m56.4,29.2V354m-56.8,29.5h57.2" class="g0_106"/>
<path d="M-2.9,713.4V647.9H912.4v65.5Z" class="g6_106"/>
<path d="M-.3,710.8V650.5H909.8v60.3Z" class="gb_106"/>
<path d="M-.3,702.5H909.8M-.3,676.5H909.8M-.3,650.6H909.8M-.3,710.8V650.5m25.9,60.3V650.5m26,60.3V650.5m26,60.3V650.5m26,60.3V650.5m26,60.3V650.5m25.9,60.3V650.5m26,60.3V650.5m26,60.3V650.5m26,60.3V650.5m26,60.3V650.5m26,60.3V650.5m25.9,60.3V650.5m26,60.3V650.5m26,60.3V650.5m26,60.3V650.5m26,60.3V650.5m26,60.3V650.5m26,60.3V650.5m25.9,60.3V650.5m26,60.3V650.5m26,60.3V650.5m26,60.3V650.5m26,60.3V650.5m26,60.3V650.5m25.9,60.3V650.5m26,60.3V650.5m26,60.3V650.5m26,60.3V650.5m26,60.3V650.5m26,60.3V650.5m25.9,60.3V650.5m26,60.3V650.5m26,60.3V650.5m26,60.3V650.5m26,60.3V650.5" class="gc_106"/>
<path d="M116.9,1130.4V781.8c0,-21.6,17.6,-39.2,39.2,-39.2H792.5v387.8Z" class="gd_106"/>
<path d="M119.5,1130.4V775.1H789.9v355.3Z" class="ge_106"/>
</svg>