<?xml version="1.0" encoding="UTF-8" standalone="no"?>
<!DOCTYPE svg PUBLIC "-//W3C//DTD SVG 1.1//EN"
"http://www.w3.org/Graphics/SVG/1.1/DTD/svg11.dtd">
<svg viewBox="0 0 909 1286" version="1.1" xmlns="http://www.w3.org/2000/svg" xmlns:xlink="http://www.w3.org/1999/xlink">
<defs>
<style type="text/css"><![CDATA[
.g0_20{
fill: none;
stroke: #000000;
stroke-width: 0.73;
stroke-linecap: butt;
stroke-linejoin: miter;
}
.g1_20{
fill: none;
stroke: #FFFFFF;
stroke-width: 0.73;
stroke-linecap: butt;
stroke-linejoin: miter;
}
.g2_20{
fill: none;
stroke: #F81693;
stroke-width: 0.73;
stroke-linecap: butt;
stroke-linejoin: miter;
}
.g3_20{
fill: none;
stroke: #02B5EE;
stroke-width: 0.73;
stroke-linecap: butt;
stroke-linejoin: miter;
}
.g4_20{
fill: none;
stroke: #5EE200;
stroke-width: 0.73;
stroke-linecap: butt;
stroke-linejoin: miter;
}
.g5_20{
fill: #FFFFFF;
}
.g6_20{
fill: #FDE8E9;
}
]]></style>
</defs>
<path d="M116.9,179.9H608.4M285.3,209.5V180.3m0,58.4V209.5M201,281.4l31.2,18.7m0,36.7V300.3M201,355.6L232.2,337M201,355.6L169.7,337m0,-.2V300.3M201,281.4l-31.3,18.7m32.4,-11l23,13.7m-23,45.1l23,-13.7M175.8,332V305" class="g0_20"/>
<path d="M238.6,229.9l24.8,14.8m0,36.7V244.9m-31.2,55.4l31.2,-18.7" class="g1_20"/>
<path d="M201,281.4V254m24.8,-24.1l-18.3,11m77.8,167.3V238.7" class="g0_20"/>
<path d="M409.6,281.4l31.2,18.7m0,36.7V300.3m-31.2,55.3L440.8,337m-31.2,18.6L378.4,337m0,-.2V300.3m31.2,-18.9l-31.2,18.7m32.3,-11l23,13.7m-23,45.1l23,-13.7M384.4,332V305" class="g2_20"/>
<path d="M447.2,229.9l24.9,14.8m0,36.7V244.9m-31.3,55.4l31.3,-18.7" class="g1_20"/>
<path d="M409.6,281.4V254m24.8,-24.1l-18.2,11" class="g3_20"/>
<path d="M285.3,437.4V408.2m0,58.5V437.4m0,58.5V466.7m0,238.9V495.9" class="g0_20"/>
<path d="M374.9,624.5l31.2,18.6m0,36.7V643.3m-31.2,55.3L406.1,680m-31.2,18.6L343.7,680m0,-.2V643.3m31.2,-18.8l-31.2,18.6m32.3,-11l23,13.7M376,691l23,-13.7m-49.3,-2.2V648" class="g4_20"/>
<path d="M376.9,582.5V564.2m7.3,-18.1L406.3,533" class="g2_20"/>
<path d="M422.9,524l18.3,-10.9" class="g3_20"/>
<path d="M374.9,624.5V598.9" class="g4_20"/>
<path d="M285.3,734.8V705.6m0,58.4V734.8m0,58.4V764m0,98.7V793.2" class="g0_20"/>
<path d="M363,854.9V801c0,-2.8,2.3,-5.2,5.1,-5.2H521.6c2.8,0,5.2,2.4,5.2,5.2v53.9c0,2.8,-2.4,5.2,-5.2,5.2H368.1c-2.8,0,-5.1,-2.4,-5.1,-5.2Z" class="g5_20"/>
<path d="M416.2,885.8h57.3V869.1H416.2v16.7Z" class="g6_20"/>
<path d="M388.9,844.5H500.8V811.4H388.9v33.1Z" class="g6_20"/>
<path d="M285.3,891.9V862.7M116.9,892.3H608.4" class="g0_20"/>
</svg>