<?xml version="1.0" encoding="UTF-8" standalone="no"?>
<!DOCTYPE svg PUBLIC "-//W3C//DTD SVG 1.1//EN"
"http://www.w3.org/Graphics/SVG/1.1/DTD/svg11.dtd">
<svg viewBox="0 0 1286 909" version="1.1" xmlns="http://www.w3.org/2000/svg" xmlns:xlink="http://www.w3.org/1999/xlink">
<defs>
<style type="text/css"><![CDATA[
.g0_332{
fill: none;
stroke: #000000;
stroke-width: 0.73;
stroke-linecap: butt;
stroke-linejoin: miter;
}
.g1_332{
fill: #B3E9FA;
}
.g2_332{
fill: none;
stroke: #02B5EE;
stroke-width: 1.262;
stroke-linecap: butt;
stroke-linejoin: miter;
}
.g3_332{
fill: none;
stroke: #5EE200;
stroke-width: 1.262;
stroke-linecap: butt;
stroke-linejoin: miter;
}
]]></style>
</defs>
<path d="M193,83.4h900.3M193,111.6h942.3m-942.3,0h942.3M663.1,141.2V112m0,114.3V141.2" class="g0_332"/>
<path d="M903.3,176.5V164.3c0,-2.9,2.3,-5.2,5.2,-5.2h115c2.8,0,5.2,2.3,5.2,5.2v12.2c0,2.9,-2.4,5.2,-5.2,5.2h-115c-2.9,0,-5.2,-2.3,-5.2,-5.2Z" class="g1_332"/>
<path d="M900.7,202.3h130.6" class="g2_332"/>
<path d="M1041.8,202.3h82.6" class="g3_332"/>
<path d="M663.1,255.5V226.3m0,58.4V255.5m0,114.2v-85" class="g0_332"/>
<path d="M716.3,320V307.8c0,-2.9,2.3,-5.2,5.2,-5.2H837.4c2.8,0,5.2,2.3,5.2,5.2V320c0,2.8,-2.4,5.2,-5.2,5.2H721.5c-2.9,0,-5.2,-2.4,-5.2,-5.2Z" class="g1_332"/>
<path d="M713.7,345.7H845.2" class="g2_332"/>
<path d="M855.7,345.7h268.7" class="g3_332"/>
<path d="M663.1,399V369.7M193,399.3h942.3m-942.3,0h942.3" class="g0_332"/>
</svg>