<?xml version="1.0" encoding="UTF-8" standalone="no"?>
<!DOCTYPE svg PUBLIC "-//W3C//DTD SVG 1.1//EN"
"http://www.w3.org/Graphics/SVG/1.1/DTD/svg11.dtd">
<svg viewBox="0 0 909 1286" version="1.1" xmlns="http://www.w3.org/2000/svg" xmlns:xlink="http://www.w3.org/1999/xlink">
<defs>
<style type="text/css"><![CDATA[
.g0_28{
fill: none;
stroke: #000000;
stroke-width: 0.73;
stroke-linecap: butt;
stroke-linejoin: miter;
}
.g1_28{
fill: none;
stroke: #000000;
stroke-width: 9.132;
stroke-linecap: butt;
stroke-linejoin: miter;
}
.g2_28{
fill: none;
stroke: #02B5EE;
stroke-width: 0.73;
stroke-linecap: butt;
stroke-linejoin: miter;
}
.g3_28{
fill: none;
stroke: #F81693;
stroke-width: 0.73;
stroke-linecap: butt;
stroke-linejoin: miter;
}
.g4_28{
fill: none;
stroke: #8007AC;
stroke-width: 0.73;
stroke-linecap: butt;
stroke-linejoin: miter;
}
.g5_28{
fill: none;
stroke: #02B5EE;
stroke-width: 1.461;
stroke-linecap: butt;
stroke-linejoin: miter;
}
.g6_28{
fill: none;
stroke: #8007AC;
stroke-width: 1.461;
stroke-linecap: butt;
stroke-linejoin: miter;
}
.g7_28{
fill: none;
stroke: #5EE200;
stroke-width: 0.73;
stroke-linecap: butt;
stroke-linejoin: miter;
}
.g8_28{
fill: none;
stroke: #5EE200;
stroke-width: 1.461;
stroke-linecap: butt;
stroke-linejoin: miter;
}
.g9_28{
fill: none;
stroke: #F81693;
stroke-width: 1.461;
stroke-linecap: butt;
stroke-linejoin: miter;
}
]]></style>
</defs>
<path d="M116.9,261.9H783.4M117.3,444.7V262.3M783,444.7V262.3M116.9,445.1H783.4" class="g0_28"/>
<path d="M126.1,450H792.5m-4.6,4.6V270.7" class="g1_28"/>
<path d="M116.9,486H617.3M234.2,515.6V486.4m-8,71.4L211.6,533.5M188.5,558h36.6m-36.6,-.2l14.7,-24.3m-14.7,60.8V557.8M157.3,539l31.2,18.6M157.3,539l-31.2,18.6m108.1,39.8V515.6" class="g0_28"/>
<path d="M371.2,530.4l11,18.3" class="g2_28"/>
<path d="M353.7,558h21.2" class="g3_28"/>
<path d="M358.5,530.4l-11,18.3" class="g2_28"/>
<path d="M346,594.3V566.9" class="g4_28"/>
<path d="M321.2,542.8L346,557.6M308.4,542.8l-18.3,11" class="g3_28"/>
<path d="M234.2,626.7V597.4m0,58.5V626.7" class="g0_28"/>
<path d="M300.1,657.1c1.4,0,2.1,-2.8,3.4,-2.8c1,0,1.9,1.4,2.8,2.8c.9,1.4,1.7,2.7,2.7,2.7c1,0,1.9,-1.3,2.8,-2.7c.8,-1.4,1.7,-2.8,2.7,-2.8c1,0,1.8,1.4,2.7,2.8c.9,1.4,1.8,2.7,2.8,2.7c1,0,1.8,-1.3,2.7,-2.7c.9,-1.4,1.8,-2.8,2.8,-2.8c.9,0,1.8,1.4,2.7,2.8c.9,1.4,1.7,2.7,2.7,2.7c1,0,1.9,-1.3,2.8,-2.7c.9,-1.4,1.7,-2.8,2.7,-2.8c1.4,0,2.1,2.8,3.4,2.8h1" class="g5_28"/>
<path d="M420.1,654.4c1.4,0,2.1,-2.7,3.4,-2.7c1,0,1.9,1.3,2.8,2.7c.9,1.4,1.7,2.8,2.7,2.8c1,0,1.8,-1.4,2.7,-2.8c.9,-1.4,1.8,-2.7,2.8,-2.7c1.3,0,2,2.7,3.4,2.7h3.9" class="g6_28"/>
<path d="M234.2,685.1V655.9m0,58.4V685.1m0,111.1V714.3" class="g0_28"/>
<path d="M371.2,729.1l11,18.3m-28.5,9.3h21.2M358.5,729.1l-11,18.3" class="g3_28"/>
<path d="M346,793.1V765.7" class="g2_28"/>
<path d="M314.8,737.7l24.8,14.8M314.8,737.7l-31.2,18.7" class="g7_28"/>
<path d="M234.2,825.4V796.2m0,58.4V825.4" class="g0_28"/>
<path d="M301.2,853.2c1.4,0,2,-2.8,3.4,-2.8c1,0,1.9,1.4,2.8,2.8c.8,1.4,1.7,2.7,2.7,2.7c1,0,1.8,-1.3,2.7,-2.7c.9,-1.4,1.8,-2.8,2.8,-2.8c1.3,0,2,2.8,3.4,2.8h3.9" class="g8_28"/>
<path d="M390,853.2c1.3,0,2,-2.8,3.4,-2.8c1,0,1.8,1.4,2.7,2.8c.9,1.4,1.8,2.7,2.8,2.7c.9,0,1.8,-1.3,2.7,-2.7c.9,-1.4,1.7,-2.8,2.7,-2.8c1.4,0,2.1,2.8,3.5,2.8h3.9" class="g5_28"/>
<path d="M495,853.2c1.4,0,2.1,-2.8,3.4,-2.8c1,0,1.9,1.4,2.8,2.8c.9,1.4,1.7,2.7,2.7,2.7c1,0,1.9,-1.3,2.7,-2.7c.9,-1.4,1.8,-2.8,2.8,-2.8c1,0,1.8,1.4,2.7,2.8c.9,1.4,1.8,2.7,2.8,2.7c1,0,1.8,-1.3,2.7,-2.7c.9,-1.4,1.8,-2.8,2.7,-2.8c1.4,0,2.1,2.8,3.5,2.8h.1m62.4,-3.7c-1.6,3.3,-5.4,5.5,-10.9,5.5h-9.3c-5.5,0,-9.3,2.2,-11,5.5c-1.6,-3.3,-5.5,-5.5,-10.9,-5.5h-9.4c-5.4,0,-9.3,-2.2,-10.9,-5.5" class="g9_28"/>
<path d="M234.2,883.8V854.6M116.9,884.2H617.3" class="g0_28"/>
</svg>