<?xml version="1.0" encoding="UTF-8" standalone="no"?>
<!DOCTYPE svg PUBLIC "-//W3C//DTD SVG 1.1//EN"
"http://www.w3.org/Graphics/SVG/1.1/DTD/svg11.dtd">
<svg viewBox="0 0 909 1286" version="1.1" xmlns="http://www.w3.org/2000/svg" xmlns:xlink="http://www.w3.org/1999/xlink">
<defs>
<clipPath id="c0_111"><path d="M119.5,457.3V423.7H789.9v33.6Z"/></clipPath>
<clipPath id="c1_111"><path d="M119.5,818.2V784.6H789.9v33.6Z"/></clipPath>
<style type="text/css"><![CDATA[
.g0_111{
fill: none;
stroke: #000000;
stroke-width: 0.73;
stroke-linecap: butt;
stroke-linejoin: miter;
}
.g1_111{
fill: #E81A58;
}
.g2_111{
fill: #401A1A;
}
.g3_111{
fill: #7F7F7F;
fill-opacity: 0.01;
}
.g4_111{
fill: #7F7F7F;
fill-opacity: 0.02;
}
.g5_111{
fill: #7F7F7F;
fill-opacity: 0.04;
}
.g6_111{
fill: #7F7F7F;
fill-opacity: 0.07;
}
.g7_111{
fill: #7F7F7F;
fill-opacity: 0.11;
}
.g8_111{
fill: #FFFFFF;
}
.g9_111{
fill: #7F7F7F;
}
.ga_111{
fill: #00AEEF;
}
.gb_111{
fill: #CBCEFB;
}
.gc_111{
fill: #EC008C;
}
]]></style>
</defs>
<path d="M116.9,159.9H792.5" class="g0_111"/>
<path d="M116.9,362.7v-144c0,-21.7,17.6,-39.2,39.2,-39.2H792.5V323.6c0,21.6,-17.5,39.1,-39.1,39.1Z" class="g1_111"/>
<path d="M119.5,360.1V212H789.9V323.6c0,20.1,-16.3,36.5,-36.5,36.5Z" class="g2_111"/>
<path d="M122.2,426.4c221.7,0,443.4,0,665,0V777.7c-221.6,-9.3,-443.3,-9.3,-665,0Z" class="g3_111"/>
<path d="M122.9,427c221.2,0,442.4,0,663.7,0V777.1c-221.3,-9.4,-442.5,-9.4,-663.7,0Z" class="g4_111"/>
<path d="M123.5,427.7c220.8,0,441.6,0,662.5,0V776.5c-220.9,-9.4,-441.7,-9.4,-662.5,0Z" class="g5_111"/>
<path d="M124.1,428.3c220.4,0,440.8,0,661.2,0V775.8c-220.4,-9.3,-440.8,-9.3,-661.2,0Z" class="g6_111"/>
<path d="M124.7,428.9c220,0,440,0,660,0V775.2c-220,-9.3,-440,-9.3,-660,0Z" class="g7_111"/>
<path d="M125.4,429.5c219.5,0,439.1,0,658.7,0V774.6c-219.6,-9.4,-439.2,-9.4,-658.7,0Z" class="g7_111"/>
<path d="M126,430.2c219.1,0,438.3,0,657.5,0V774C564.3,764.6,345.1,764.6,126,774Z" class="g6_111"/>
<path d="M126.6,430.8c218.8,0,437.5,0,656.3,0V773.3C564.1,764,345.4,764,126.6,773.3Z" class="g5_111"/>
<path d="M127.2,431.4c218.4,0,436.7,0,655,0V772.7c-218.3,-9.3,-436.6,-9.3,-655,0Z" class="g4_111"/>
<path d="M127.9,432c217.9,0,435.8,0,653.7,0V772.1c-217.9,-9.4,-435.8,-9.4,-653.7,0Z" class="g3_111"/>
<path d="M116.9,767.4V421.1H792.5V767.4Z" class="g8_111"/>
<path d="M119.5,764.8v-305H789.9v305Z" class="g8_111"/>
<path d="M119.5,457.3V423.7H789.9v33.6Z" class="g9_111"/>
<g clip-path="url(#c0_111)">
<image x="119" y="423" width="672" height="34" xlink:href="shade/1.png"/>
</g>
<path d="M659.9,452.1h104V428.9h-104v23.2Z" class="ga_111"/>
<path d="M252.6,509.2H656.8M253,538.8V509.6" class="g0_111"/>
<path d="M253.3,538.8H371.1V509.6H253.3v29.2Z" class="gb_111"/>
<path d="M371.5,538.8V509.6" class="g0_111"/>
<path d="M371.9,538.8H489.6V509.6H371.9v29.2Z" class="gb_111"/>
<path d="M490,538.8V509.6" class="g0_111"/>
<path d="M490.4,538.8H656.1V509.6H490.4v29.2Z" class="gb_111"/>
<path d="M656.5,538.8V509.6M252.6,539.2H656.8M253,568.8V539.6m118.5,29.2V539.6M490,568.8V539.6m166.5,29.2V539.6M252.6,569.1H656.8M253,598.7V569.5m118.5,29.2V569.5M490,598.7V569.5m166.5,29.2V569.5M252.6,599.1H656.8M253,628.7V599.5m118.5,29.2V599.5M490,628.7V599.5m166.5,29.2V599.5M252.6,629H656.8M253,658.6V629.4m118.5,29.2V629.4M490,658.6V629.4m166.5,29.2V629.4M252.6,659H656.8M253,688.6V659.4m118.5,29.2V659.4M490,688.6V659.4m166.5,29.2V659.4M252.6,689H656.8M253,718.5V689.3m118.5,29.2V689.3M490,718.5V689.3m166.5,29.2V689.3M252.6,718.9H656.8M253,748.5V719.3m118.5,29.2V719.3M490,748.5V719.3m166.5,29.2V719.3M252.6,748.9H656.8" class="g0_111"/>
<path d="M122.2,787.3c221.7,0,443.4,0,665,0V955.4c-221.6,-9.3,-443.3,-9.3,-665,0Z" class="g3_111"/>
<path d="M122.9,788c221.2,0,442.4,0,663.7,0V954.8c-221.3,-9.4,-442.5,-9.4,-663.7,0Z" class="g4_111"/>
<path d="M123.5,788.6c220.8,0,441.6,0,662.5,0V954.2c-220.9,-9.4,-441.7,-9.4,-662.5,0Z" class="g5_111"/>
<path d="M124.1,789.2c220.4,0,440.8,0,661.2,0V953.6c-220.4,-9.4,-440.8,-9.4,-661.2,0Z" class="g6_111"/>
<path d="M124.7,789.8c220,0,440,0,660,0V952.9c-220,-9.3,-440,-9.3,-660,0Z" class="g7_111"/>
<path d="M125.4,790.5c219.5,0,439.1,0,658.7,0V952.3C564.5,943,344.9,943,125.4,952.3Z" class="g7_111"/>
<path d="M126,791.1c219.1,0,438.3,0,657.5,0V951.7c-219.2,-9.4,-438.4,-9.4,-657.5,0Z" class="g6_111"/>
<path d="M126.6,791.7c218.8,0,437.5,0,656.3,0V951.1c-218.8,-9.4,-437.5,-9.4,-656.3,0Z" class="g5_111"/>
<path d="M127.2,792.3c218.4,0,436.7,0,655,0V950.4c-218.3,-9.3,-436.6,-9.3,-655,0Z" class="g4_111"/>
<path d="M127.9,792.9c217.9,0,435.8,0,653.7,0V949.8c-217.9,-9.3,-435.8,-9.3,-653.7,0Z" class="g3_111"/>
<path d="M116.9,945.1V782H792.5V945.1Z" class="g8_111"/>
<path d="M119.5,942.5V820.8H789.9V942.5Z" class="g8_111"/>
<path d="M119.5,818.2V784.6H789.9v33.6Z" class="g9_111"/>
<g clip-path="url(#c1_111)">
<image x="119" y="784" width="672" height="34" xlink:href="shade/2.png"/>
</g>
<path d="M675.7,813h88.2V789.8H675.7V813Z" class="gc_111"/>
<path d="M392.4,836.7H517.1M392.7,866.3V837.1" class="g0_111"/>
<path d="M393.1,866.3H516.3V837.1H393.1v29.2Z" class="gb_111"/>
<path d="M516.7,866.3V837.1M392.4,866.7H517.1M392.7,896.3V867m124,29.3V867M392.4,896.6H517.1M392.7,926.2V897m124,29.2V897M392.4,926.6H517.1" class="g0_111"/>
</svg>