<?xml version="1.0" encoding="UTF-8" standalone="no"?>
<!DOCTYPE svg PUBLIC "-//W3C//DTD SVG 1.1//EN"
"http://www.w3.org/Graphics/SVG/1.1/DTD/svg11.dtd">
<svg viewBox="0 0 1286 909" version="1.1" xmlns="http://www.w3.org/2000/svg" xmlns:xlink="http://www.w3.org/1999/xlink">
<defs>
<style type="text/css"><![CDATA[
.g0_1111{
fill: none;
stroke: #000000;
stroke-width: 0.73;
stroke-linecap: butt;
stroke-linejoin: miter;
}
.g1_1111{
fill: #FFF7A4;
}
.g2_1111{
fill: #FFCCCC;
}
.g3_1111{
fill: none;
stroke: #5EE200;
stroke-width: 1.461;
stroke-linecap: butt;
stroke-linejoin: miter;
stroke-dasharray: 2,2;
}
.g4_1111{
fill: none;
stroke: #5EE200;
stroke-width: 0.73;
stroke-linecap: butt;
stroke-linejoin: miter;
}
.g5_1111{
fill: #AEF080;
}
]]></style>
</defs>
<path d="M193,83.4h900.3M193,111.6H961.1m-768.1,0H961.1M454.6,141.2V112m0,64.1V141.2" class="g0_1111"/>
<path d="M711.6,176.1h92.9V143.2H711.6v32.9Z" class="g1_1111"/>
<path d="M454.6,205.3V176.1m0,62.1V205.3" class="g0_1111"/>
<path d="M837.8,238.2h44.7V205.3H837.8v32.9Z" class="g1_1111"/>
<path d="M454.6,267.4V238.2m0,58.4V267.4m0,63.1V296.6" class="g0_1111"/>
<path d="M687.5,330.5H747V297.7H687.5v32.8Z" class="g2_1111"/>
<path d="M761.2,324.2h30.4" class="g3_1111"/>
<path d="M809.4,324.2c.6,0,1,-1.1,1.6,-1.1c.5,0,.9,.5,1.3,1.1c.4,.5,.8,1,1.3,1c.5,0,.9,-.5,1.3,-1c.4,-.6,.8,-1.1,1.3,-1.1c.5,0,.9,.5,1.3,1.1c.4,.5,.8,1,1.3,1c.5,0,.9,-.5,1.3,-1c.4,-.6,.8,-1.1,1.3,-1.1c.5,0,.9,.5,1.3,1.1c.4,.5,.8,1,1.3,1c.5,0,.9,-.5,1.3,-1c.4,-.6,.8,-1.1,1.3,-1.1c.5,0,.9,.5,1.3,1.1c.4,.5,.8,1,1.3,1c.5,0,.9,-.5,1.3,-1c.4,-.6,.8,-1.1,1.3,-1.1c.5,0,.9,.5,1.3,1.1c.4,.5,.8,1,1.3,1c.5,0,.9,-.5,1.3,-1c.4,-.6,.8,-1.1,1.3,-1.1c.5,0,.9,.5,1.3,1.1c.4,.5,.8,1,1.3,1c.5,0,.9,-.5,1.3,-1c.4,-.6,.8,-1.1,1.3,-1.1c.5,0,.9,.5,1.3,1.1c.4,.5,.8,1,1.3,1c.5,0,.9,-.5,1.3,-1c.4,-.6,.8,-1.1,1.3,-1.1c.5,0,.9,.5,1.3,1.1c.4,.5,.8,1,1.3,1c.5,0,.9,-.5,1.3,-1c.4,-.6,.8,-1.1,1.3,-1.1c.5,0,.9,.5,1.3,1.1c.4,.5,.8,1,1.3,1c.5,0,.9,-.5,1.3,-1c.4,-.6,.8,-1.1,1.3,-1.1c.5,0,.9,.5,1.3,1.1c.4,.5,.8,1,1.3,1c.5,0,.9,-.5,1.3,-1c.4,-.6,.8,-1.1,1.3,-1.1c.5,0,.9,.5,1.3,1.1c.4,.5,.8,1,1.3,1c.6,0,1,-1,1.6,-1h1.1" class="g4_1111"/>
<path d="M882.5,330.5h67.6V297.7H882.5v32.8Z" class="g5_1111"/>
<path d="M454.6,359.8V330.5m0,62.1V359.8" class="g0_1111"/>
<path d="M640.9,388.3h48.8" class="g3_1111"/>
<path d="M697,388.3c.6,0,1,-1.1,1.6,-1.1c.5,0,.9,.6,1.3,1.1c.4,.5,.8,1,1.3,1c.5,0,.9,-.5,1.3,-1c.4,-.5,.8,-1.1,1.3,-1.1c.5,0,.9,.6,1.3,1.1c.4,.5,.8,1,1.3,1c.5,0,.9,-.5,1.3,-1c.4,-.5,.8,-1.1,1.3,-1.1c.5,0,.9,.6,1.3,1.1c.4,.5,.8,1,1.3,1c.5,0,.9,-.5,1.3,-1c.4,-.5,.8,-1.1,1.3,-1.1c.5,0,.9,.6,1.3,1.1c.4,.5,.8,1,1.3,1c.5,0,.9,-.5,1.3,-1c.4,-.5,.8,-1.1,1.3,-1.1c.5,0,.9,.6,1.3,1.1c.4,.5,.8,1,1.3,1c.5,0,.9,-.5,1.3,-1c.4,-.5,.8,-1.1,1.3,-1.1c.5,0,.9,.6,1.3,1.1c.4,.5,.8,1,1.3,1c.5,0,.9,-.5,1.3,-1c.4,-.5,.8,-1.1,1.3,-1.1c.5,0,.9,.6,1.3,1.1c.4,.5,.8,1,1.3,1c.5,0,.9,-.5,1.3,-1c.4,-.5,.8,-1.1,1.3,-1.1c.5,0,.9,.6,1.3,1.1c.4,.5,.8,1,1.3,1c.5,0,.9,-.5,1.3,-1c.4,-.5,.8,-1.1,1.3,-1.1c.5,0,.9,.6,1.3,1.1c.4,.5,.8,1,1.3,1c.6,0,1,-1,1.6,-1h1.4" class="g4_1111"/>
<path d="M749.5,392.6h44.7V359.8H749.5v32.8Z" class="g5_1111"/>
<path d="M800.3,392.6H950.1V359.8H800.3v32.8Z" class="g2_1111"/>
<path d="M454.6,421.9V392.6m0,58.5V421.9m0,59.4V451.1m0,59.4V481.3M193,510.9H961.1m-768.1,0H961.1" class="g0_1111"/>
</svg>