<?xml version="1.0" encoding="UTF-8" standalone="no"?>
<!DOCTYPE svg PUBLIC "-//W3C//DTD SVG 1.1//EN"
"http://www.w3.org/Graphics/SVG/1.1/DTD/svg11.dtd">
<svg viewBox="0 0 909 1286" version="1.1" xmlns="http://www.w3.org/2000/svg" xmlns:xlink="http://www.w3.org/1999/xlink">
<defs>
<style type="text/css"><![CDATA[
.g0_60{
fill: none;
stroke: #000000;
stroke-width: 0.73;
stroke-linecap: butt;
stroke-linejoin: miter;
}
.g1_60{
fill: #FDE8E9;
}
]]></style>
</defs>
<path d="M116.9,159.9H792.5" class="g0_60"/>
<path d="M116.9,268.8h95.4V240.9H116.9v27.9Z" class="g1_60"/>
<path d="M198.8,327.7H311.1V299.8H198.8v27.9Z" class="g1_60"/>
<path d="M116.9,497.5H229.2V469.7H116.9v27.8Z" class="g1_60"/>
<path d="M116.9,583.2h40V559.4h-40v23.8Z" class="g1_60"/>
<path d="M169.4,587.4H460.8v-28H169.4v28Z" class="g1_60"/>
<path d="M397.6,670.9h75.3V647.1H397.6v23.8Z" class="g1_60"/>
<path d="M116.9,731.3h61.7V703.5H116.9v27.8Z" class="g1_60"/>
<path d="M184.5,761H263V733.2H184.5V761Z" class="g1_60"/>
<path d="M116.9,819.9h78.6V792.1H116.9v27.8Z" class="g1_60"/>
<path d="M420.9,847.1h21V823.4h-21v23.7Z" class="g1_60"/>
<path d="M437.8,890.9h51.9V867.2H437.8v23.7Z" class="g1_60"/>
<path d="M342.6,924.4h53.5v-28H342.6v28Z" class="g1_60"/>
<path d="M319.6,954.1h36.2V926.2H319.6v27.9Z" class="g1_60"/>
<path d="M116.9,1054.2h163v-27.8h-163v27.8Z" class="g1_60"/>
</svg>