<?xml version="1.0" encoding="UTF-8" standalone="no"?>
<!DOCTYPE svg PUBLIC "-//W3C//DTD SVG 1.1//EN"
"http://www.w3.org/Graphics/SVG/1.1/DTD/svg11.dtd">
<svg viewBox="0 0 1286 909" version="1.1" xmlns="http://www.w3.org/2000/svg" xmlns:xlink="http://www.w3.org/1999/xlink">
<defs>
<style type="text/css"><![CDATA[
.g0_307{
fill: none;
stroke: #000000;
stroke-width: 0.73;
stroke-linecap: butt;
stroke-linejoin: miter;
}
.g1_307{
fill: #B3E9FA;
}
.g2_307{
fill: none;
stroke: #02B5EE;
stroke-width: 1.262;
stroke-linecap: butt;
stroke-linejoin: miter;
}
.g3_307{
fill: none;
stroke: #5EE200;
stroke-width: 1.262;
stroke-linecap: butt;
stroke-linejoin: miter;
}
.g4_307{
fill: none;
stroke: #5EE200;
stroke-width: 0.73;
stroke-linecap: butt;
stroke-linejoin: miter;
}
.g5_307{
fill: none;
stroke: #02B5EE;
stroke-width: 0.73;
stroke-linecap: butt;
stroke-linejoin: miter;
}
]]></style>
</defs>
<path d="M193,83.4h900.3M193,210.6h890.3m-890.3,0h890.3m-491,29.6V211m0,58.5V240.2m0,114.3v-85" class="g0_307"/>
<path d="M605.9,311V292.5c0,-2.9,2.3,-5.2,5.2,-5.2H893c2.9,0,5.2,2.3,5.2,5.2V311c0,2.9,-2.3,5.2,-5.2,5.2H611.1c-2.9,0,-5.2,-2.3,-5.2,-5.2Z" class="g1_307"/>
<path d="M603.3,330.5H900.8" class="g2_307"/>
<path d="M911.4,330.5h160.9" class="g3_307"/>
<path d="M592.3,383.7V354.5m0,58.4V383.7m0,114.3V412.9" class="g0_307"/>
<path d="M614.3,474H822.6" class="g2_307"/>
<path d="M833.1,474h239.2" class="g3_307"/>
<path d="M592.3,527.2V498m0,102.2v-73" class="g0_307"/>
<path d="M869,586.4H987.9" class="g4_307"/>
<path d="M987.9,586.4h84.4" class="g5_307"/>
<path d="M592.3,629.5V600.2m0,58.5V629.5m0,58.4V658.7M193,688.3h890.3m-890.3,0h890.3" class="g0_307"/>
</svg>