<?xml version="1.0" encoding="UTF-8" standalone="no"?>
<!DOCTYPE svg PUBLIC "-//W3C//DTD SVG 1.1//EN"
"http://www.w3.org/Graphics/SVG/1.1/DTD/svg11.dtd">
<svg viewBox="0 0 1286 909" version="1.1" xmlns="http://www.w3.org/2000/svg" xmlns:xlink="http://www.w3.org/1999/xlink">
<defs>
<style type="text/css"><![CDATA[
.g0_263{
fill: none;
stroke: #000000;
stroke-width: 0.73;
stroke-linecap: butt;
stroke-linejoin: miter;
}
.g1_263{
fill: none;
stroke: #02B5EE;
stroke-width: 1.262;
stroke-linecap: butt;
stroke-linejoin: miter;
}
.g2_263{
fill: none;
stroke: #5EE200;
stroke-width: 1.262;
stroke-linecap: butt;
stroke-linejoin: miter;
}
.g3_263{
fill: none;
stroke: #5EE200;
stroke-width: 0.73;
stroke-linecap: butt;
stroke-linejoin: miter;
}
.g4_263{
fill: none;
stroke: #02B5EE;
stroke-width: 0.73;
stroke-linecap: butt;
stroke-linejoin: miter;
}
.g5_263{
fill: none;
stroke: #FFA313;
stroke-width: 1.262;
stroke-linecap: butt;
stroke-linejoin: miter;
}
]]></style>
</defs>
<path d="M193,83.4h900.3M193,210.6H958.1m-765.1,0H958.1M506,240.2V211m0,58.5V240.2m0,114.3v-85" class="g0_263"/>
<path d="M582.3,330.5H697.1" class="g1_263"/>
<path d="M707.6,330.5h22.1" class="g2_263"/>
<path d="M506,383.7V354.5m0,102.3V383.7" class="g0_263"/>
<path d="M516.9,442.9h34.3" class="g3_263"/>
<path d="M879.6,442.9h67.6" class="g4_263"/>
<path d="M506,486V456.8m0,58.4V486m0,114.2v-85" class="g0_263"/>
<path d="M725.9,576.2h88.2" class="g1_263"/>
<path d="M824.6,576.2h24.3" class="g2_263"/>
<path d="M859.4,576.2h87.8" class="g5_263"/>
<path d="M506,629.5V600.2m0,58.5V629.5m0,58.4V658.7M193,688.3H958.1m-765.1,0H958.1" class="g0_263"/>
</svg>