<?xml version="1.0" encoding="UTF-8" standalone="no"?>
<!DOCTYPE svg PUBLIC "-//W3C//DTD SVG 1.1//EN"
"http://www.w3.org/Graphics/SVG/1.1/DTD/svg11.dtd">
<svg viewBox="0 0 909 1286" version="1.1" xmlns="http://www.w3.org/2000/svg" xmlns:xlink="http://www.w3.org/1999/xlink">
<defs>
<style type="text/css"><![CDATA[
.g0_11{
fill: none;
stroke: #000000;
stroke-width: 0.73;
stroke-linecap: butt;
stroke-linejoin: miter;
}
.g1_11{
fill: none;
stroke: #F81693;
stroke-width: 0.73;
stroke-linecap: butt;
stroke-linejoin: miter;
}
.g2_11{
fill: none;
stroke: #F81693;
stroke-width: 2.191;
stroke-linecap: butt;
stroke-linejoin: miter;
}
.g3_11{
fill: none;
stroke: #000000;
stroke-width: 0.73;
stroke-linecap: butt;
stroke-linejoin: miter;
stroke-dasharray: 1,4;
}
.g4_11{
fill: none;
stroke: #02B5EE;
stroke-width: 2.191;
stroke-linecap: butt;
stroke-linejoin: miter;
}
.g5_11{
fill: none;
stroke: #02B5EE;
stroke-width: 0.73;
stroke-linecap: butt;
stroke-linejoin: miter;
}
]]></style>
</defs>
<path d="M116.9,179.9H757.2m-447,29.6V180.3M150.4,280.1h41.1m-41.1,3.7h41.1m0,-1.9L212,246.3m0,0h30.5m43.3,1.4h12.7m-88,-.4L189.9,211.7m23.7,33.7L193.1,209.8m-1.6,1H150.4m1.6,.9l-20.6,35.6m17.4,-37.5l-20.5,35.6m22.1,36.5L129.8,246.3m0,0l20.6,35.6m159.8,8.8V209.5" class="g0_11"/>
<path d="M417.7,280.1h41.1m-41.1,3.7h41.1m0,-1.9l20.5,-35.6" class="g1_11"/>
<path d="M479.3,246.3h27.4" class="g2_11"/>
<path d="M506.7,246.3h41.1" class="g3_11"/>
<path d="M547.8,246.3h19.5" class="g4_11"/>
<path d="M610.6,246.3H630" class="g5_11"/>
<path d="M477.7,247.3L457.2,211.7m23.7,33.7L460.4,209.8m-1.6,1H417.7m1.6,.9l-20.6,35.6m17.4,-37.5l-20.6,35.6m22.2,36.5L397.1,246.3m0,0l13.7,23.8" class="g1_11"/>
<path d="M310.2,319.9V290.7m0,58.5V319.9m0,58.5V349.2m0,58.4V378.4m0,58.4V407.6m0,125.7V436.8m192.9,36l31.2,18.6M503.1,472.8l-31.2,18.6M440.6,472.8l31.3,18.6m0,36.8V491.6M440.6,547l31.3,-18.7M440.6,547L409.4,528.3m0,-.1V491.6m31.2,-18.8l-31.2,18.6m56.4,32v-27m-26.3,42.9l-23,-13.7m23,-45.1l-23,13.7M310.2,562.5V533.3M116.9,562.9H757.2m-447,29.5V563.2M150.4,663.1h41.1m-41.1,3.6h41.1m0,-1.8L212,629.3m0,0h30.5m35.7,-1.8h16.5m-16.5,3.6h16.5m-84.2,-.9L189.9,594.6m23.7,33.8L193.1,592.8m-1.6,.9H150.4m1.6,.9l-20.6,35.6m17.4,-37.4l-20.5,35.6m22.1,36.5L129.8,629.3m0,0l20.6,35.6m159.8,8.8V592.4" class="g0_11"/>
<path d="M417.7,663.1h41.1m-41.1,3.6h41.1m0,-1.8l20.5,-35.6" class="g1_11"/>
<path d="M479.3,629.3h27.4" class="g2_11"/>
<path d="M506.7,629.3h41.1" class="g3_11"/>
<path d="M547.8,629.3h23.3" class="g4_11"/>
<path d="M606.8,627.5H630m-23.2,3.6H630" class="g5_11"/>
<path d="M477.7,630.2L457.2,594.6m23.7,33.8L460.4,592.8m-1.6,.9H417.7m1.6,.9l-20.6,35.6m17.4,-37.4l-20.6,35.6m22.2,36.5L397.1,629.3m0,0L410.8,653" class="g1_11"/>
<path d="M310.2,702.9V673.7m0,58.4V702.9m0,58.4V732.1m0,58.5V761.3m0,58.5V790.6m0,125.6V819.8m186.8,36l31.3,18.6M497,855.8l-31.2,18.6m32.3,-11l23,13.7M434.6,855.8l31.2,18.6m0,36.7V874.6m-31.2,55.3l31.2,-18.6m-31.2,18.6L403.3,911.3m0,-.2V874.6m31.3,-18.8l-31.3,18.6m56.5,32V879.3m-26.3,43L410.4,908.6m23.1,-45.2l-23.1,13.7M310.2,945.5V916.2M116.9,945.8H757.2" class="g0_11"/>
</svg>