<?xml version="1.0" encoding="UTF-8" standalone="no"?>
<!DOCTYPE svg PUBLIC "-//W3C//DTD SVG 1.1//EN"
"http://www.w3.org/Graphics/SVG/1.1/DTD/svg11.dtd">
<svg viewBox="0 0 1286 909" version="1.1" xmlns="http://www.w3.org/2000/svg" xmlns:xlink="http://www.w3.org/1999/xlink">
<defs>
<style type="text/css"><![CDATA[
.g0_1087{
fill: none;
stroke: #000000;
stroke-width: 0.73;
stroke-linecap: butt;
stroke-linejoin: miter;
}
.g1_1087{
fill: #E6CEEE;
}
.g2_1087{
fill: #F81693;
}
.g3_1087{
fill: #FFE6E6;
}
.g4_1087{
fill: #FFCCCC;
}
.g5_1087{
fill: none;
stroke: #F81693;
stroke-width: 1.461;
stroke-linecap: butt;
stroke-linejoin: miter;
stroke-dasharray: 2,2;
}
]]></style>
</defs>
<path d="M193,83.4h900.3M193,111.6H988.6m-795.6,0H988.6M455.7,141.2V112m0,60.6V141.2m0,60.6V172.6m0,58.4V201.8m0,77.3V231" class="g0_1087"/>
<path d="M717.4,275.2h71.7V242.3H717.4v32.9Z" class="g1_1087"/>
<path d="M799.6,271.3V238.8c0,-4.3,3.5,-7.8,7.8,-7.8h63.2c4.3,0,7.8,3.5,7.8,7.8v32.5c0,4.3,-3.5,7.8,-7.8,7.8H807.4c-4.3,0,-7.8,-3.5,-7.8,-7.8Z" class="g2_1087"/>
<path d="M802.2,271.3V238.8c0,-2.9,2.3,-5.2,5.2,-5.2h63.2c2.9,0,5.2,2.3,5.2,5.2v32.5c0,2.8,-2.3,5.2,-5.2,5.2H807.4c-2.9,0,-5.2,-2.4,-5.2,-5.2Z" class="g3_1087"/>
<path d="M888.9,275.2h88.8V242.3H888.9v32.9Z" class="g1_1087"/>
<path d="M455.7,308.3V279.1m0,72.1V308.3" class="g0_1087"/>
<path d="M828.5,345.3h27.8V312.4H828.5v32.9Z" class="g1_1087"/>
<path d="M856.3,343.4V316.1c0,-4.3,3.5,-7.8,7.8,-7.8h61.1c4.3,0,7.8,3.5,7.8,7.8v27.3c0,4.3,-3.5,7.8,-7.8,7.8H864.1c-4.3,0,-7.8,-3.5,-7.8,-7.8Z" class="g2_1087"/>
<path d="M858.9,343.4V316.1c0,-2.9,2.3,-5.2,5.2,-5.2h61.1c2.8,0,5.2,2.3,5.2,5.2v27.3c0,2.8,-2.4,5.2,-5.2,5.2H864.1c-2.9,0,-5.2,-2.4,-5.2,-5.2Z" class="g3_1087"/>
<path d="M933,345.3h44.7V312.4H933v32.9Z" class="g1_1087"/>
<path d="M455.7,382.5V351.2m0,60.5V382.5m0,58.4V411.7m0,77.3V440.9" class="g0_1087"/>
<path d="M780.7,485.1h47.8V452.3H780.7v32.8Z" class="g1_1087"/>
<path d="M839,481.2V448.7c0,-4.3,3.5,-7.8,7.8,-7.8H910c4.3,0,7.8,3.5,7.8,7.8v32.5c0,4.3,-3.5,7.8,-7.8,7.8H846.8c-4.3,0,-7.8,-3.5,-7.8,-7.8Z" class="g2_1087"/>
<path d="M841.6,481.2V448.7c0,-2.8,2.3,-5.2,5.2,-5.2H910c2.9,0,5.2,2.4,5.2,5.2v32.5c0,2.9,-2.3,5.2,-5.2,5.2H846.8c-2.9,0,-5.2,-2.3,-5.2,-5.2Z" class="g3_1087"/>
<path d="M928.3,485.1h49.4V452.3H928.3v32.8Z" class="g1_1087"/>
<path d="M455.7,519.2V489m0,73V519.2" class="g0_1087"/>
<path d="M744,556.2h78.5V523.3H744v32.9Z" class="g1_1087"/>
<path d="M822.5,554.2V527c0,-4.3,3.5,-7.8,7.8,-7.8h61.1c4.3,0,7.8,3.5,7.8,7.8v27.2c0,4.4,-3.5,7.8,-7.8,7.8H830.3c-4.3,0,-7.8,-3.4,-7.8,-7.8Z" class="g2_1087"/>
<path d="M825.1,554.2V527c0,-2.9,2.3,-5.2,5.2,-5.2h61.1c2.8,0,5.2,2.3,5.2,5.2v27.2c0,2.9,-2.4,5.2,-5.2,5.2H830.3c-2.9,0,-5.2,-2.3,-5.2,-5.2Z" class="g3_1087"/>
<path d="M899.2,556.2h78.5V523.3H899.2v32.9Z" class="g1_1087"/>
<path d="M455.7,593.4V562m0,60.6V593.4m0,58.4V622.6m0,64V651.8" class="g0_1087"/>
<path d="M638.9,686.6h79.9V653.8H638.9v32.8Z" class="g1_1087"/>
<path d="M769,686.6h59.5V653.8H769v32.8Z" class="g4_1087"/>
<path d="M842.7,680.2H944.9" class="g5_1087"/>
<path d="M455.7,716.8V686.6m0,59.4V716.8M193,746.4H988.6m-795.6,0H988.6" class="g0_1087"/>
</svg>