<?xml version="1.0" encoding="UTF-8" standalone="no"?>
<!DOCTYPE svg PUBLIC "-//W3C//DTD SVG 1.1//EN"
"http://www.w3.org/Graphics/SVG/1.1/DTD/svg11.dtd">
<svg viewBox="0 0 1286 909" version="1.1" xmlns="http://www.w3.org/2000/svg" xmlns:xlink="http://www.w3.org/1999/xlink">
<defs>
<style type="text/css"><![CDATA[
.g0_755{
fill: none;
stroke: #000000;
stroke-width: 0.73;
stroke-linecap: butt;
stroke-linejoin: miter;
}
.g1_755{
fill: none;
stroke: #02B5EE;
stroke-width: 1.262;
stroke-linecap: butt;
stroke-linejoin: miter;
}
.g2_755{
fill: none;
stroke: #5EE200;
stroke-width: 1.262;
stroke-linecap: butt;
stroke-linejoin: miter;
}
.g3_755{
fill: none;
stroke: #5EE200;
stroke-width: 0.73;
stroke-linecap: butt;
stroke-linejoin: miter;
}
.g4_755{
fill: none;
stroke: #02B5EE;
stroke-width: 0.73;
stroke-linecap: butt;
stroke-linejoin: miter;
}
.g5_755{
fill: none;
stroke: #FFA313;
stroke-width: 1.262;
stroke-linecap: butt;
stroke-linejoin: miter;
}
.g6_755{
fill: none;
stroke: #FFA313;
stroke-width: 0.73;
stroke-linecap: butt;
stroke-linejoin: miter;
}
]]></style>
</defs>
<path d="M193,83.4h900.3M193,111.6H872.8m-679.8,0H872.8M428,141.2V112m0,58.5V141.2m0,58.5V170.5m0,114.2v-85" class="g0_755"/>
<path d="M700.8,260.7h62.7" class="g1_755"/>
<path d="M774,260.7h87.8" class="g2_755"/>
<path d="M428,313.9V284.7M428,387V313.9" class="g0_755"/>
<path d="M654,373.1H754.4" class="g3_755"/>
<path d="M760.5,373.1H861.8" class="g4_755"/>
<path d="M428,416.2V387m0,58.4V416.2m0,114.3V445.4" class="g0_755"/>
<path d="M616.5,506.5h34.6" class="g1_755"/>
<path d="M661.6,506.5H861.8" class="g5_755"/>
<path d="M428,560.6V530.5m0,103.2V560.6" class="g0_755"/>
<path d="M620.3,619.8H822" class="g6_755"/>
<path d="M828.1,619.8h33.7" class="g4_755"/>
<path d="M428,662.9V633.7m0,58.4V662.9m0,58.5V692.1M193,721.7H872.8m-679.8,0H872.8" class="g0_755"/>
</svg>