<?xml version="1.0" encoding="UTF-8" standalone="no"?>
<!DOCTYPE svg PUBLIC "-//W3C//DTD SVG 1.1//EN"
"http://www.w3.org/Graphics/SVG/1.1/DTD/svg11.dtd">
<svg viewBox="0 0 909 1286" version="1.1" xmlns="http://www.w3.org/2000/svg" xmlns:xlink="http://www.w3.org/1999/xlink">
<defs>
<style type="text/css"><![CDATA[
.g0_9{
fill: none;
stroke: #000000;
stroke-width: 0.73;
stroke-linecap: butt;
stroke-linejoin: miter;
}
.g1_9{
fill: #CBC04F;
}
.g2_9{
}
.g3_9{
fill: #E81A58;
}
.g4_9{
fill: #401A1A;
}
]]></style>
</defs>
<path d="M116.9,159.9H792.5" class="g0_9"/>
<path d="M116.9,335V260.5c0,-4.3,3.5,-7.7,7.8,-7.7h660c4.3,0,7.8,3.4,7.8,7.7V335c0,4.3,-3.5,7.8,-7.8,7.8h-660c-4.3,0,-7.8,-3.5,-7.8,-7.8Z" class="g1_9"/>
<path d="M119.5,335V285.2H789.9V335c0,2.8,-2.3,5.2,-5.2,5.2h-660c-2.8,0,-5.2,-2.4,-5.2,-5.2Z" class="g2_9"/>
<path d="M116.9,483.4V409c0,-4.3,3.5,-7.8,7.8,-7.8h660c4.3,0,7.8,3.5,7.8,7.8v74.4c0,4.3,-3.5,7.8,-7.8,7.8h-660c-4.3,0,-7.8,-3.5,-7.8,-7.8Z" class="g1_9"/>
<path d="M119.5,483.4V433.7H789.9v49.7c0,2.9,-2.3,5.2,-5.2,5.2h-660c-2.8,0,-5.2,-2.3,-5.2,-5.2Z" class="g2_9"/>
<path d="M116.9,631.9V557.5c0,-4.4,3.5,-7.8,7.8,-7.8h660c4.3,0,7.8,3.4,7.8,7.8v74.4c0,4.3,-3.5,7.8,-7.8,7.8h-660c-4.3,0,-7.8,-3.5,-7.8,-7.8Z" class="g1_9"/>
<path d="M119.5,631.9V582.1H789.9v49.8c0,2.8,-2.3,5.2,-5.2,5.2h-660c-2.8,0,-5.2,-2.4,-5.2,-5.2Z" class="g2_9"/>
<path d="M116.9,780.3V705.9c0,-4.3,3.5,-7.8,7.8,-7.8h660c4.3,0,7.8,3.5,7.8,7.8v74.4c0,4.3,-3.5,7.8,-7.8,7.8h-660c-4.3,0,-7.8,-3.5,-7.8,-7.8Z" class="g1_9"/>
<path d="M119.5,780.3V730.6H789.9v49.7c0,2.9,-2.3,5.2,-5.2,5.2h-660c-2.8,0,-5.2,-2.3,-5.2,-5.2Z" class="g2_9"/>
<path d="M116.9,928.8V854.4c0,-4.4,3.5,-7.8,7.8,-7.8h660c4.3,0,7.8,3.4,7.8,7.8v74.4c0,4.3,-3.5,7.8,-7.8,7.8h-660c-4.3,0,-7.8,-3.5,-7.8,-7.8Z" class="g1_9"/>
<path d="M119.5,928.8V879H789.9v49.8c0,2.8,-2.3,5.2,-5.2,5.2h-660c-2.8,0,-5.2,-2.4,-5.2,-5.2Z" class="g2_9"/>
<path d="M116.9,1090.5v-56.4c0,-21.6,17.6,-39.1,39.2,-39.1H792.5v56.4c0,21.6,-17.5,39.1,-39.1,39.1Z" class="g3_9"/>
<path d="M119.5,1087.9v-60.4H789.9v23.9c0,20.1,-16.3,36.5,-36.5,36.5Z" class="g4_9"/>
</svg>