<?xml version="1.0" encoding="UTF-8" standalone="no"?>
<!DOCTYPE svg PUBLIC "-//W3C//DTD SVG 1.1//EN"
"http://www.w3.org/Graphics/SVG/1.1/DTD/svg11.dtd">
<svg viewBox="0 0 1286 909" version="1.1" xmlns="http://www.w3.org/2000/svg" xmlns:xlink="http://www.w3.org/1999/xlink">
<defs>
<style type="text/css"><![CDATA[
.g0_373{
fill: none;
stroke: #000000;
stroke-width: 0.73;
stroke-linecap: butt;
stroke-linejoin: miter;
}
.g1_373{
fill: #E6CEEE;
}
.g2_373{
fill: none;
stroke: #02B5EE;
stroke-width: 1.262;
stroke-linecap: butt;
stroke-linejoin: miter;
}
.g3_373{
fill: none;
stroke: #02B5EE;
stroke-width: 0.73;
stroke-linecap: butt;
stroke-linejoin: miter;
}
]]></style>
</defs>
<path d="M193,83.4h900.3M193,210.6h878.7m-878.7,0h878.7M506.8,240.2V211m0,58.5V240.2m0,64.1V269.5" class="g0_373"/>
<path d="M989.3,304.3h71.4V271.4H989.3v32.9Z" class="g1_373"/>
<path d="M506.8,333.5V304.3m0,62.1V333.5" class="g0_373"/>
<path d="M947.8,366.4h112.9V333.5H947.8v32.9Z" class="g1_373"/>
<path d="M506.8,395.6V366.4m0,58.4V395.6m0,114.2v-85" class="g0_373"/>
<path d="M700.1,485.9H805.3" class="g2_373"/>
<path d="M506.8,540V509.8m0,103.3V540" class="g0_373"/>
<path d="M993.2,599.2h67.5" class="g3_373"/>
<path d="M506.8,642.3V613.1m0,102.3V642.3" class="g0_373"/>
<path d="M591.7,701.5h67.6" class="g3_373"/>
<path d="M506.8,744.6V715.4M193,744.9h878.7m-878.7,0h878.7" class="g0_373"/>
</svg>