<?xml version="1.0" encoding="UTF-8" standalone="no"?>
<!DOCTYPE svg PUBLIC "-//W3C//DTD SVG 1.1//EN"
"http://www.w3.org/Graphics/SVG/1.1/DTD/svg11.dtd">
<svg viewBox="0 0 1286 909" version="1.1" xmlns="http://www.w3.org/2000/svg" xmlns:xlink="http://www.w3.org/1999/xlink">
<defs>
<style type="text/css"><![CDATA[
.g0_978{
fill: none;
stroke: #000000;
stroke-width: 0.73;
stroke-linecap: butt;
stroke-linejoin: miter;
}
.g1_978{
fill: #B3E9FA;
}
.g2_978{
fill: none;
stroke: #02B5EE;
stroke-width: 1.262;
stroke-linecap: butt;
stroke-linejoin: miter;
}
.g3_978{
fill: none;
stroke: #5EE200;
stroke-width: 1.262;
stroke-linecap: butt;
stroke-linejoin: miter;
}
]]></style>
</defs>
<path d="M193,83.4h900.3M193,111.6h817.3m-817.3,0h817.3M589.5,141.2V112m0,58.5V141.2m0,114.3v-85" class="g0_978"/>
<path d="M773,205.7V193.5c0,-2.9,2.3,-5.2,5.2,-5.2h89.5c2.9,0,5.2,2.3,5.2,5.2v12.2c0,2.9,-2.3,5.2,-5.2,5.2H778.2c-2.9,0,-5.2,-2.3,-5.2,-5.2Z" class="g1_978"/>
<path d="M770.4,231.5H875.5" class="g2_978"/>
<path d="M886,231.5H999.3" class="g3_978"/>
<path d="M589.5,284.7V255.5m0,58.4V284.7m0,59.4V313.9m0,59.4V344.1m0,58.5V373.3m0,59.4V402.6m0,59.3V432.7M193,462.3h817.3m-817.3,0h817.3" class="g0_978"/>
</svg>