<?xml version="1.0" encoding="UTF-8" standalone="no"?>
<!DOCTYPE svg PUBLIC "-//W3C//DTD SVG 1.1//EN"
"http://www.w3.org/Graphics/SVG/1.1/DTD/svg11.dtd">
<svg viewBox="0 0 909 1286" version="1.1" xmlns="http://www.w3.org/2000/svg" xmlns:xlink="http://www.w3.org/1999/xlink">
<defs>
<clipPath id="c0_80"><path d="M119.5,282.8V249.3H789.9v33.5Z"/></clipPath>
<clipPath id="c1_80"><path d="M119.5,703.6V670.1H789.9v33.5Z"/></clipPath>
<style type="text/css"><![CDATA[
.g0_80{
fill: none;
stroke: #000000;
stroke-width: 0.73;
stroke-linecap: butt;
stroke-linejoin: miter;
}
.g1_80{
fill: #7F7F7F;
fill-opacity: 0.01;
}
.g2_80{
fill: #7F7F7F;
fill-opacity: 0.02;
}
.g3_80{
fill: #7F7F7F;
fill-opacity: 0.04;
}
.g4_80{
fill: #7F7F7F;
fill-opacity: 0.07;
}
.g5_80{
fill: #7F7F7F;
fill-opacity: 0.11;
}
.g6_80{
fill: #FFFFFF;
}
.g7_80{
fill: #7F7F7F;
}
.g8_80{
fill: #00AEEF;
}
.g9_80{
fill: #CBCEFB;
}
.ga_80{
fill: #EC008C;
}
.gb_80{
fill: #FFFEF5;
}
.gc_80{
fill: none;
stroke: #D6C944;
stroke-width: 0.365;
stroke-linecap: butt;
stroke-linejoin: miter;
}
]]></style>
</defs>
<path d="M116.9,159.9H792.5" class="g0_80"/>
<path d="M122.2,252c221.7,0,443.4,0,665,0V663.2c-221.6,-9.4,-443.3,-9.4,-665,0Z" class="g1_80"/>
<path d="M122.9,252.6c221.2,0,442.4,0,663.7,0V662.5c-221.3,-9.3,-442.5,-9.3,-663.7,0Z" class="g2_80"/>
<path d="M123.5,253.2c220.8,0,441.6,0,662.5,0V661.9c-220.9,-9.3,-441.7,-9.3,-662.5,0Z" class="g3_80"/>
<path d="M124.1,253.8c220.4,0,440.8,0,661.2,0V661.3c-220.4,-9.4,-440.8,-9.4,-661.2,0Z" class="g4_80"/>
<path d="M124.7,254.5c220,0,440,0,660,0V660.7c-220,-9.4,-440,-9.4,-660,0Z" class="g5_80"/>
<path d="M125.4,255.1c219.5,0,439.1,0,658.7,0V660c-219.6,-9.3,-439.2,-9.3,-658.7,0Z" class="g5_80"/>
<path d="M126,255.7c219.1,0,438.3,0,657.5,0V659.4c-219.2,-9.3,-438.4,-9.3,-657.5,0Z" class="g4_80"/>
<path d="M126.6,256.3c218.8,0,437.5,0,656.3,0V658.8c-218.8,-9.4,-437.5,-9.4,-656.3,0Z" class="g3_80"/>
<path d="M127.2,257c218.4,0,436.7,0,655,0V658.2c-218.3,-9.4,-436.6,-9.4,-655,0Z" class="g2_80"/>
<path d="M127.9,257.6c217.9,0,435.8,0,653.7,0V657.5c-217.9,-9.3,-435.8,-9.3,-653.7,0Z" class="g1_80"/>
<path d="M116.9,652.9V246.7H792.5V652.9Z" class="g6_80"/>
<path d="M119.5,650.3V285.4H789.9V650.3Z" class="g6_80"/>
<path d="M119.5,282.8V249.3H789.9v33.5Z" class="g7_80"/>
<g clip-path="url(#c0_80)">
<image x="119" y="248" width="672" height="35" xlink:href="shade/1.png"/>
</g>
<path d="M659.9,277.6h104V254.5h-104v23.1Z" class="g8_80"/>
<path d="M311.9,334.8H597.6M312.2,364.4V335.1" class="g0_80"/>
<path d="M312.6,364.4H478.3V335.1H312.6v29.3Z" class="g9_80"/>
<path d="M478.7,364.4V335.1" class="g0_80"/>
<path d="M479.1,364.4H596.8V335.1H479.1v29.3Z" class="g9_80"/>
<path d="M597.2,364.4V335.1M311.9,364.7H597.6M312.2,394.3V365.1m166.5,29.2V365.1m118.5,29.2V365.1M311.9,394.7H597.6M312.2,424.3V395m166.5,29.3V395m118.5,29.3V395M311.9,424.6H597.6M312.2,454.2V425m166.5,29.2V425m118.5,29.2V425M311.9,454.6H597.6M312.2,484.2V455m166.5,29.2V455m118.5,29.2V455M311.9,484.5H597.6M312.2,514.1V484.9m166.5,29.2V484.9m118.5,29.2V484.9M311.9,514.5H597.6M312.2,544.1V514.9m166.5,29.2V514.9m118.5,29.2V514.9M311.9,544.5H597.6M312.2,574V544.8M478.7,574V544.8M597.2,574V544.8M311.9,574.4H597.6M312.2,604V574.8M478.7,604V574.8M597.2,604V574.8M311.9,604.4H597.6M312.2,634V604.7M478.7,634V604.7M597.2,634V604.7M311.9,634.3H597.6" class="g0_80"/>
<path d="M122.2,672.8c221.7,0,443.4,0,665,0v198c-221.6,-9.3,-443.3,-9.3,-665,0Z" class="g1_80"/>
<path d="M122.9,673.4c221.2,0,442.4,0,663.7,0V870.2c-221.3,-9.4,-442.5,-9.4,-663.7,0Z" class="g2_80"/>
<path d="M123.5,674c220.8,0,441.6,0,662.5,0V869.6c-220.9,-9.4,-441.7,-9.4,-662.5,0Z" class="g3_80"/>
<path d="M124.1,674.7c220.4,0,440.8,0,661.2,0V869c-220.4,-9.4,-440.8,-9.4,-661.2,0Z" class="g4_80"/>
<path d="M124.7,675.3c220,0,440,0,660,0v193c-220,-9.3,-440,-9.3,-660,0Z" class="g5_80"/>
<path d="M125.4,675.9c219.5,0,439.1,0,658.7,0V867.7c-219.6,-9.3,-439.2,-9.3,-658.7,0Z" class="g5_80"/>
<path d="M126,676.5c219.1,0,438.3,0,657.5,0V867.1c-219.2,-9.4,-438.4,-9.4,-657.5,0Z" class="g4_80"/>
<path d="M126.6,677.1c218.8,0,437.5,0,656.3,0V866.5c-218.8,-9.4,-437.5,-9.4,-656.3,0Z" class="g3_80"/>
<path d="M127.2,677.8c218.4,0,436.7,0,655,0v188c-218.3,-9.3,-436.6,-9.3,-655,0Z" class="g2_80"/>
<path d="M127.9,678.4c217.9,0,435.8,0,653.7,0V865.2c-217.9,-9.3,-435.8,-9.3,-653.7,0Z" class="g1_80"/>
<path d="M116.9,860.5v-193H792.5v193Z" class="g6_80"/>
<path d="M119.5,857.9V706.2H789.9V857.9Z" class="g6_80"/>
<path d="M119.5,703.6V670.1H789.9v33.5Z" class="g7_80"/>
<g clip-path="url(#c1_80)">
<image x="119" y="669" width="672" height="34" xlink:href="shade/2.png"/>
</g>
<path d="M675.7,698.4h88.2V675.3H675.7v23.1Z" class="ga_80"/>
<path d="M321.5,722.2H588M321.8,751.8V722.5" class="g0_80"/>
<path d="M322.2,751.8h98.6V722.5H322.2v29.3Z" class="g9_80"/>
<path d="M421.2,751.8V722.5" class="g0_80"/>
<path d="M421.5,751.8H587.3V722.5H421.5v29.3Z" class="g9_80"/>
<path d="M587.6,751.8V722.5M321.5,752.1H588M321.8,781.7V752.5m99.4,29.2V752.5m166.4,29.2V752.5M321.5,782.1H588M321.8,811.7V782.4m99.4,29.3V782.4m166.4,29.3V782.4M321.5,812H588M321.8,841.6V812.4m99.4,29.2V812.4m166.4,29.2V812.4M321.5,842H588" class="g0_80"/>
<path d="M-2.9,1088.6v-65.5H912.4v65.5Z" class="g6_80"/>
<path d="M-.3,1086v-60.3H909.8V1086Z" class="gb_80"/>
<path d="M-.3,1077.7H909.8M-.3,1051.7H909.8M-.3,1025.7H909.8M-.3,1086v-60.3M25.6,1086v-60.3m26,60.3v-60.3m26,60.3v-60.3m26,60.3v-60.3m26,60.3v-60.3m25.9,60.3v-60.3m26,60.3v-60.3m26,60.3v-60.3m26,60.3v-60.3m26,60.3v-60.3m26,60.3v-60.3m25.9,60.3v-60.3m26,60.3v-60.3m26,60.3v-60.3m26,60.3v-60.3m26,60.3v-60.3m26,60.3v-60.3m26,60.3v-60.3m25.9,60.3v-60.3m26,60.3v-60.3m26,60.3v-60.3m26,60.3v-60.3m26,60.3v-60.3m26,60.3v-60.3m25.9,60.3v-60.3m26,60.3v-60.3m26,60.3v-60.3m26,60.3v-60.3m26,60.3v-60.3m26,60.3v-60.3m25.9,60.3v-60.3m26,60.3v-60.3m26,60.3v-60.3m26,60.3v-60.3m26,60.3v-60.3" class="gc_80"/>
</svg>