<?xml version="1.0" encoding="UTF-8" standalone="no"?>
<!DOCTYPE svg PUBLIC "-//W3C//DTD SVG 1.1//EN"
"http://www.w3.org/Graphics/SVG/1.1/DTD/svg11.dtd">
<svg viewBox="0 0 909 1286" version="1.1" xmlns="http://www.w3.org/2000/svg" xmlns:xlink="http://www.w3.org/1999/xlink">
<defs>
<style type="text/css"><![CDATA[
.g0_39{
fill: none;
stroke: #000000;
stroke-width: 0.73;
stroke-linecap: butt;
stroke-linejoin: miter;
}
.g1_39{
fill: none;
stroke: #F81693;
stroke-width: 0.73;
stroke-linecap: butt;
stroke-linejoin: miter;
}
.g2_39{
fill: none;
stroke: #02B5EE;
stroke-width: 0.73;
stroke-linecap: butt;
stroke-linejoin: miter;
}
]]></style>
</defs>
<path d="M116.9,179.9H818.3M416.9,209.5V180.3M279,260.4l24.8,14.8M279,260.4l-31.3,18.7M216.5,260.4l31.2,18.7M216.5,260.4l-31.2,18.7m0,.2L160.4,264.5m22.7,14.8v25.5m4.3,-25.5v25.5m89.4,-44.4V234.9m4.3,25.5V234.9m135.8,92.9V209.5" class="g0_39"/>
<path d="M619.1,260.4l24.8,14.8M619.1,260.4l-31.2,18.7M556.6,260.4l31.3,18.7M556.6,260.4l-31.2,18.7" class="g1_39"/>
<path d="M525.4,279.3L500.6,264.5m22.6,14.8v25.5m4.4,-25.5v25.5" class="g2_39"/>
<path d="M616.9,260.4V234.9m4.4,25.5V234.9" class="g1_39"/>
<path d="M416.9,357.1V327.8m0,58.5V357.1m0,58.4V386.3m0,58.4V415.5m0,58.5V444.7m0,58.5V474m0,58.4V503.2m-300,29.6H818.3M416.9,562.4V533.1M352,613.3l24.9,14.8M352,613.3L320.8,632M289.6,613.3L320.8,632M289.6,613.3L258.3,632m0,.1L233.5,617.3m22.6,14.8v25.6m4.4,-25.6v25.6m-27,-40.5L258.3,632m-62.5,36.7V632.1m24.9,-14.9L195.8,632M164.6,613.3L195.8,632m-31.2,55.5l31.2,-18.6m-31.2,18.6L133.4,668.9m0,-.2V632.1m31.2,-18.8L133.4,632m32.3,-11l23,13.7m-23,45.1l23,-13.7m-49.3,-2.2v-27M349.8,613.3V587.8m4.4,25.5V587.8M416.9,699V562.4" class="g0_39"/>
<path d="M692.2,613.3L717,628.1M692.2,613.3L660.9,632M629.7,613.3L660.9,632M629.7,613.3L598.5,632" class="g1_39"/>
<path d="M598.5,632.1L573.6,617.3m22.7,14.8v25.6m4.4,-25.6v25.6M573.6,617.2L598.5,632M536,668.7V632.1m24.8,-14.9L536,632M504.8,613.3L536,632m-31.2,55.5L536,668.9m-31.2,18.6L473.5,668.9m0,-.2V632.1m31.3,-18.8L473.5,632m32.4,-11l23,13.7m-23,45.1l23,-13.7m-49.3,-2.2v-27" class="g2_39"/>
<path d="M690,613.3V587.8m4.4,25.5V587.8" class="g1_39"/>
<path d="M416.9,728.2V699m0,58.4V728.2m0,58.5V757.4m0,58.5V786.7m0,58.4V815.9m0,58.4V845.1m0,58.5V874.3m-300,29.6H818.3" class="g0_39"/>
</svg>