<?xml version="1.0" encoding="UTF-8" standalone="no"?>
<!DOCTYPE svg PUBLIC "-//W3C//DTD SVG 1.1//EN"
"http://www.w3.org/Graphics/SVG/1.1/DTD/svg11.dtd">
<svg viewBox="0 0 1286 909" version="1.1" xmlns="http://www.w3.org/2000/svg" xmlns:xlink="http://www.w3.org/1999/xlink">
<defs>
<style type="text/css"><![CDATA[
.g0_159{
fill: none;
stroke: #000000;
stroke-width: 0.73;
stroke-linecap: butt;
stroke-linejoin: miter;
}
.g1_159{
fill: none;
stroke: #02B5EE;
stroke-width: 1.262;
stroke-linecap: butt;
stroke-linejoin: miter;
}
.g2_159{
fill: none;
stroke: #5EE200;
stroke-width: 1.262;
stroke-linecap: butt;
stroke-linejoin: miter;
}
.g3_159{
fill: none;
stroke: #5EE200;
stroke-width: 0.73;
stroke-linecap: butt;
stroke-linejoin: miter;
}
.g4_159{
fill: none;
stroke: #02B5EE;
stroke-width: 0.73;
stroke-linecap: butt;
stroke-linejoin: miter;
}
.g5_159{
fill: #B3E9FA;
}
]]></style>
</defs>
<path d="M193,83.4h900.3M193,210.6H803.1m-610.1,0H803.1M472.8,240.2V211m0,58.5V240.2m0,114.3v-85" class="g0_159"/>
<path d="M522.5,330.5H568" class="g1_159"/>
<path d="M578.5,330.5h22.4" class="g2_159"/>
<path d="M472.8,383.7V354.5m0,102.3V383.7" class="g0_159"/>
<path d="M639.4,442.9h34.5" class="g3_159"/>
<path d="M758.3,442.9h33.8" class="g4_159"/>
<path d="M472.8,488.1V456.8m0,60.5V488.1m0,58.4V517.3m0,114.3V546.5" class="g0_159"/>
<path d="M596.7,588.1V569.6c0,-2.9,2.3,-5.2,5.2,-5.2H706.2c2.9,0,5.2,2.3,5.2,5.2v18.5c0,2.9,-2.3,5.2,-5.2,5.2H601.9c-2.9,0,-5.2,-2.3,-5.2,-5.2Z" class="g5_159"/>
<path d="M594.1,607.6H714" class="g1_159"/>
<path d="M724.5,607.6h67.6" class="g2_159"/>
<path d="M472.8,660.8V631.6M193,661.1H803.1m-610.1,0H803.1" class="g0_159"/>
</svg>