<?xml version="1.0" encoding="UTF-8" standalone="no"?>
<!DOCTYPE svg PUBLIC "-//W3C//DTD SVG 1.1//EN"
"http://www.w3.org/Graphics/SVG/1.1/DTD/svg11.dtd">
<svg viewBox="0 0 909 1286" version="1.1" xmlns="http://www.w3.org/2000/svg" xmlns:xlink="http://www.w3.org/1999/xlink">
<defs>
<style type="text/css"><![CDATA[
.g0_10{
fill: none;
stroke: #000000;
stroke-width: 0.73;
stroke-linecap: butt;
stroke-linejoin: miter;
}
.g1_10{
fill: #FFFFFF;
}
.g2_10{
fill: none;
stroke: #F81693;
stroke-width: 1.461;
stroke-linecap: butt;
stroke-linejoin: miter;
}
.g3_10{
fill: none;
stroke: #F81693;
stroke-width: 0.73;
stroke-linecap: butt;
stroke-linejoin: miter;
}
]]></style>
</defs>
<path d="M233.2,282.3H676.3M496.6,311.9V282.7m-106,20.8l31.3,18.7m0,36.7V322.3m-62.5,36.6h62.5m-62.5,0V322.3m31.2,-18.8l-31.2,18.7M328.2,303.5l31.2,18.7m-31.2,55.5l31.2,-18.6m-31.2,18.6L296.9,359.1m0,-.2V322.3m31.3,-18.8l-31.3,18.7m56.5,31.9v-27M327.1,311.2L304,324.9M327.1,370L304,356.3m111.8,-2.2v-27m80.8,48.4V311.9" class="g0_10"/>
<path d="M517,358.7V325.1c0,-2.9,2.3,-5.2,5.2,-5.2H651c2.9,0,5.2,2.3,5.2,5.2v33.6c0,2.8,-2.3,5.2,-5.2,5.2H522.2c-2.9,0,-5.2,-2.4,-5.2,-5.2Z" class="g1_10"/>
<path d="M496.6,404.7V375.5M233.2,405.1H676.3M496.6,434.7V405.5m-106,20.8l31.3,18.6m0,36.7V445.1m-62.5,36.5h62.5m-62.5,0V445.1m31.2,-18.8l-31.2,18.6M328.2,426.3l31.2,18.6m-31.2,55.5l31.2,-18.6m-31.2,18.6L296.9,481.8m0,-.2V445.1m31.3,-18.8l-31.3,18.6m30.2,47.9L304,479.1m23.1,-45.2L304,447.6m49.4,29.3V449.8m143.2,48.4V434.7" class="g0_10"/>
<path d="M532.6,481.4V447.9c0,-2.9,2.3,-5.2,5.2,-5.2h97.6c2.9,0,5.2,2.3,5.2,5.2v33.5c0,2.9,-2.3,5.2,-5.2,5.2H537.8c-2.9,0,-5.2,-2.3,-5.2,-5.2Z" class="g1_10"/>
<path d="M584.7,478.3c1.4,0,2.1,-2.7,3.5,-2.7c1,0,1.8,1.3,2.7,2.7c.9,1.4,1.8,2.8,2.8,2.8c.9,0,1.8,-1.4,2.7,-2.8c.9,-1.4,1.7,-2.7,2.7,-2.7c1,0,1.9,1.3,2.8,2.7c.9,1.4,1.7,2.8,2.7,2.8c1,0,1.9,-1.4,2.8,-2.8c.8,-1.4,1.7,-2.7,2.7,-2.7c1.4,0,2,2.7,3.4,2.7h1.1" class="g2_10"/>
<path d="M496.6,527.5V498.2M233.2,527.8H676.3M496.6,557.4V528.2M383,603.8l31.2,18.6m0,36.8V622.6M383,678l31.2,-18.7M383,678L351.7,659.3m0,-.1V622.6M383,603.8l-31.3,18.6m32.4,47.9l23,-13.7M381.9,611.5l-23.1,13.7" class="g0_10"/>
<path d="M414.2,622.6L445.4,604m0,-.2V567.3m-62.4,0h62.4M383,603.8V567.3M415.3,615l23,-13.7M389,573.3h50.6" class="g3_10"/>
<path d="M320.5,603.8l31.2,18.6m-62.4,36.8h62.4m-62.4,0V622.6m31.2,-18.8l-31.2,18.6m6,30.7h50.6M319.4,611.5l-23,13.7m200.2,50.6V557.4" class="g0_10"/>
<path d="M510.5,631.6V598c0,-2.9,2.3,-5.2,5.2,-5.2H657.5c2.9,0,5.2,2.3,5.2,5.2v33.6c0,2.8,-2.3,5.2,-5.2,5.2H515.7c-2.9,0,-5.2,-2.4,-5.2,-5.2Z" class="g1_10"/>
<path d="M496.6,705V675.8M233.2,705.4H676.3M496.6,735V705.7M364.7,726.6l31.2,18.6m0,36.7V745.4m-31.2,55.3l31.2,-18.6m-31.2,18.6L333.5,782.1m0,-.2V745.4m31.2,-18.8l-31.2,18.6m32.3,-11l23,13.7M363.6,793l-23,-13.7" class="g0_10"/>
<path d="M427.2,726.6l31.2,18.6m0,36.7V745.4m-62.5,36.5h62.5M427.2,726.6l-31.3,18.6m32.4,-11l23,13.7m-49.3,28h50.6" class="g3_10"/>
<path d="M302.2,800.7l31.3,-18.6M271,745.4h62.5M271,781.9V745.4m31.2,55.3L271,782.1m6,-30.7h50.6M301.1,793l-23,-13.7m218.5,19.2V735" class="g0_10"/>
<path d="M516,781.7V748.1c0,-2.8,2.3,-5.2,5.2,-5.2H652c2.9,0,5.2,2.4,5.2,5.2v33.6c0,2.9,-2.3,5.2,-5.2,5.2H521.2c-2.9,0,-5.2,-2.3,-5.2,-5.2Z" class="g1_10"/>
<path d="M496.6,827.7V798.5M233.2,828.1H676.3M496.6,857.7V828.5M378.4,921.6V885.1m0,0L349.7,862.3m0,0l-35.6,8m0,0l-15.9,33.1m0,0l15.9,33m0,0l35.6,8.1m0,0l28.7,-22.9m0,-36.5l34.7,-11.3m0,0l21.6,29.6m0,0L413.1,933m0,0L378.4,921.6m-5.1,-34.1L350.4,868.7M319,874.9l-14.6,27.6m46,36.5l-32.7,-7.1m65.1,-13.6l28.5,9.4M429,903.4L411.3,879.1m85.3,69.6v-91" class="g0_10"/>
<path d="M529,918.1V884.6c0,-2.9,2.3,-5.2,5.2,-5.2H639c2.9,0,5.2,2.3,5.2,5.2v33.5c0,2.9,-2.3,5.2,-5.2,5.2H534.2c-2.9,0,-5.2,-2.3,-5.2,-5.2Z" class="g1_10"/>
<path d="M496.6,977.9V948.7M233.2,978.3H676.3" class="g0_10"/>
</svg>