<?xml version="1.0" encoding="UTF-8" standalone="no"?>
<!DOCTYPE svg PUBLIC "-//W3C//DTD SVG 1.1//EN"
"http://www.w3.org/Graphics/SVG/1.1/DTD/svg11.dtd">
<svg viewBox="0 0 1286 909" version="1.1" xmlns="http://www.w3.org/2000/svg" xmlns:xlink="http://www.w3.org/1999/xlink">
<defs>
<style type="text/css"><![CDATA[
.g0_1247{
fill: none;
stroke: #000000;
stroke-width: 0.73;
stroke-linecap: butt;
stroke-linejoin: miter;
}
.g1_1247{
fill: #B3E9FA;
}
.g2_1247{
fill: none;
stroke: #02B5EE;
stroke-width: 1.262;
stroke-linecap: butt;
stroke-linejoin: miter;
}
.g3_1247{
fill: none;
stroke: #5EE200;
stroke-width: 1.262;
stroke-linecap: butt;
stroke-linejoin: miter;
}
]]></style>
</defs>
<path d="M193,497.4h819.9m-819.9,0h819.9M581,527V497.8m0,58.4V527m0,114.2v-85" class="g0_1247"/>
<path d="M594.5,597.8V579.3c0,-2.9,2.3,-5.2,5.2,-5.2h33.7c2.8,0,5.2,2.3,5.2,5.2v18.5c0,2.8,-2.4,5.2,-5.2,5.2H599.7c-2.9,0,-5.2,-2.4,-5.2,-5.2Z" class="g1_1247"/>
<path d="M591.9,617.2h49.3" class="g2_1247"/>
<path d="M651.7,617.2h50.7" class="g3_1247"/>
<path d="M581,670.5V641.2m0,58.5V670.5m0,58.4V699.7M193,729.3h819.9m-819.9,0h819.9" class="g0_1247"/>
</svg>