<?xml version="1.0" encoding="UTF-8" standalone="no"?>
<!DOCTYPE svg PUBLIC "-//W3C//DTD SVG 1.1//EN"
"http://www.w3.org/Graphics/SVG/1.1/DTD/svg11.dtd">
<svg viewBox="0 0 909 1286" version="1.1" xmlns="http://www.w3.org/2000/svg" xmlns:xlink="http://www.w3.org/1999/xlink">
<defs>
<style type="text/css"><![CDATA[
.g0_101{
fill: none;
stroke: #000000;
stroke-width: 0.73;
stroke-linecap: butt;
stroke-linejoin: miter;
}
.g1_101{
fill: #FDE8E9;
}
]]></style>
</defs>
<path d="M116.9,159.9H792.5" class="g0_101"/>
<path d="M116.9,285.2H229.2V257.4H116.9v27.8Z" class="g1_101"/>
<path d="M116.9,372.9H229.2V345H116.9v27.9Z" class="g1_101"/>
<path d="M116.9,460.6H296.8V432.7H116.9v27.9Z" class="g1_101"/>
<path d="M459.4,652.3H673V624.5H459.4v27.8Z" class="g1_101"/>
<path d="M167.6,682h78.5V654.2H167.6V682Z" class="g1_101"/>
<path d="M218.3,755.5h78.5V727.7H218.3v27.8Z" class="g1_101"/>
<path d="M218.3,785.2h95.4V757.4H218.3v27.8Z" class="g1_101"/>
<path d="M304.8,829.5H450.9V801.6H304.8v27.9Z" class="g1_101"/>
<path d="M116.9,917.2H246.1V889.3H116.9v27.9Z" class="g1_101"/>
<path d="M218.3,961.5H409.8V933.6H218.3v27.9Z" class="g1_101"/>
<path d="M252.1,991.1h44.7V963.3H252.1v27.8Z" class="g1_101"/>
<path d="M347.5,991.1h44.7V963.3H347.5v27.8Z" class="g1_101"/>
</svg>