<?xml version="1.0" encoding="UTF-8" standalone="no"?>
<!DOCTYPE svg PUBLIC "-//W3C//DTD SVG 1.1//EN"
"http://www.w3.org/Graphics/SVG/1.1/DTD/svg11.dtd">
<svg viewBox="0 0 909 1286" version="1.1" xmlns="http://www.w3.org/2000/svg" xmlns:xlink="http://www.w3.org/1999/xlink">
<defs>
<style type="text/css"><![CDATA[
.g0_9{
fill: none;
stroke: #000000;
stroke-width: 0.73;
stroke-linecap: butt;
stroke-linejoin: miter;
}
.g1_9{
fill: none;
stroke: #F81693;
stroke-width: 0.73;
stroke-linecap: butt;
stroke-linejoin: miter;
}
.g2_9{
fill: none;
stroke: #02B5EE;
stroke-width: 0.73;
stroke-linecap: butt;
stroke-linejoin: miter;
}
.g3_9{
fill: none;
stroke: #02B5EE;
stroke-width: 1.461;
stroke-linecap: butt;
stroke-linejoin: miter;
}
.g4_9{
fill: #FFFFFF;
}
.g5_9{
fill: #FDE8E9;
}
]]></style>
</defs>
<path d="M116.9,179.9h658M426,209.5V180.3M256.1,279.8l31.3,-18.6m-31.3,18.6L224.9,261.2m-31.2,18.6l31.2,-18.6m-31.2,18.6L168.8,265m118.6,-4l31.2,18.6M349.8,261l24.9,14.8M349.8,261l-31.2,18.6m29,-18.6V235.4M352,261V235.4M191.5,279.8v25.6m4.3,-25.6v25.6M426,327.8V209.5" class="g0_9"/>
<path d="M611.8,276l18.3,-11M599,276L580.7,265m-31.4,11l18.3,-11" class="g1_9"/>
<path d="M536.5,276L518.3,265" class="g2_9"/>
<path d="M643,264.8l18.3,11" class="g1_9"/>
<path d="M705.5,264.8l18.3,11" class="g2_9"/>
<path d="M692.7,264.8l-18.2,11" class="g1_9"/>
<path d="M696.9,255.5V235.4m4.4,20.1V235.4M540.7,285.3v20.1m4.4,-20.1v20.1" class="g2_9"/>
<path d="M426,357.1V327.8m0,58.5V357.1" class="g0_9"/>
<path d="M541.3,384.8c1.3,0,2,-2.7,3.4,-2.7c1,0,1.8,1.3,2.7,2.7c.9,1.4,1.8,2.8,2.8,2.8c1,0,1.8,-1.4,2.7,-2.8c.9,-1.4,1.8,-2.7,2.7,-2.7c1.4,0,2.1,2.7,3.5,2.7h4.1" class="g3_9"/>
<path d="M426,415.5V386.3M426,492V415.5" class="g0_9"/>
<path d="M503.6,484.2V423.3c0,-2.9,2.3,-5.2,5.2,-5.2H707.3c2.8,0,5.1,2.3,5.1,5.2v60.9c0,2.9,-2.3,5.2,-5.1,5.2H508.8c-2.9,0,-5.2,-2.3,-5.2,-5.2Z" class="g4_9"/>
<path d="M578.2,514.9h59.7V498.5H578.2v16.4Z" class="g5_9"/>
<path d="M529.6,473.8H686.5V433.7H529.6v40.1Z" class="g5_9"/>
<path d="M426,521.3V492M116.9,521.6h658" class="g0_9"/>
</svg>