<?xml version="1.0" encoding="UTF-8" standalone="no"?>
<!DOCTYPE svg PUBLIC "-//W3C//DTD SVG 1.1//EN"
"http://www.w3.org/Graphics/SVG/1.1/DTD/svg11.dtd">
<svg viewBox="0 0 909 1286" version="1.1" xmlns="http://www.w3.org/2000/svg" xmlns:xlink="http://www.w3.org/1999/xlink">
<defs>
<style type="text/css"><![CDATA[
.g0_22{
fill: none;
stroke: #000000;
stroke-width: 0.73;
stroke-linecap: butt;
stroke-linejoin: miter;
}
.g1_22{
fill: none;
stroke: #000000;
stroke-width: 9.132;
stroke-linecap: butt;
stroke-linejoin: miter;
}
.g2_22{
fill: #FFA313;
stroke: #FFA313;
stroke-width: 0.66;
stroke-linecap: butt;
stroke-linejoin: round;
stroke-miterlimit: 1;
}
]]></style>
</defs>
<path d="M116.9,261.9H783.4M117.3,377.8V262.3M783,377.8V262.3M116.9,378.1H783.4" class="g0_22"/>
<path d="M126.1,383.1H792.5m-4.6,4.5V270.7" class="g1_22"/>
<path d="M116.9,419H777.7M285.3,448.6V419.4m-84.3,72L232.2,510m0,36.7V510.2M201,565.5l31.2,-18.6M201,565.5L169.7,546.9m0,-.2V510.2M201,491.4L169.7,510m56.5,32V514.9m-26.3,43L176.8,544.2m23.1,-45.1l-23.1,13.7M238.2,542V514.9m47.1,103.2V448.6m158.1,42.8L474.6,510m0,36.7V510.2m-31.2,55.3l31.2,-18.6m-31.2,18.6L412.1,546.9m0,-.2V510.2m31.3,-18.8L412.1,510m56.5,32V514.9m-26.3,43l-23,-13.7m23,-45.1l-23,13.7" class="g0_22"/>
<path d="M479.2,510.2c0,2,-1.3,3.8,-3.2,4.4c-1.9,.6,-3.9,-.1,-5.1,-1.7c-1.2,-1.6,-1.2,-3.8,0,-5.4c1.2,-1.6,3.2,-2.3,5.1,-1.7c1.9,.6,3.2,2.4,3.2,4.4Z" class="g2_22"/>
<path d="M479.2,546.7c0,2,-1.3,3.8,-3.2,4.4c-1.9,.6,-3.9,0,-5.1,-1.7c-1.2,-1.6,-1.2,-3.8,0,-5.4c1.2,-1.6,3.2,-2.3,5.1,-1.7c1.9,.7,3.2,2.4,3.2,4.4Z" class="g2_22"/>
<path d="M285.3,647.4V618.1m0,58.5V647.4m0,58.4V676.6m0,58.4V705.8m0,58.5V735m0,58.5V764.3m0,58.4V793.5M116.9,823.1H777.7" class="g0_22"/>
</svg>