<?xml version="1.0" encoding="UTF-8" standalone="no"?>
<!DOCTYPE svg PUBLIC "-//W3C//DTD SVG 1.1//EN"
"http://www.w3.org/Graphics/SVG/1.1/DTD/svg11.dtd">
<svg viewBox="0 0 1286 909" version="1.1" xmlns="http://www.w3.org/2000/svg" xmlns:xlink="http://www.w3.org/1999/xlink">
<defs>
<style type="text/css"><![CDATA[
.g0_515{
fill: none;
stroke: #000000;
stroke-width: 0.73;
stroke-linecap: butt;
stroke-linejoin: miter;
}
.g1_515{
fill: none;
stroke: #02B5EE;
stroke-width: 1.262;
stroke-linecap: butt;
stroke-linejoin: miter;
}
.g2_515{
fill: none;
stroke: #5EE200;
stroke-width: 1.262;
stroke-linecap: butt;
stroke-linejoin: miter;
}
.g3_515{
fill: none;
stroke: #5EE200;
stroke-width: 0.73;
stroke-linecap: butt;
stroke-linejoin: miter;
}
.g4_515{
fill: none;
stroke: #02B5EE;
stroke-width: 0.73;
stroke-linecap: butt;
stroke-linejoin: miter;
}
]]></style>
</defs>
<path d="M193,83.4h900.3M193,210.6H872.1m-679.1,0H872.1M498.4,240.2V211m0,58.5V240.2m0,114.3v-85" class="g0_515"/>
<path d="M640.7,330.5h58.4" class="g1_515"/>
<path d="M709.6,330.5h22.2" class="g2_515"/>
<path d="M498.4,383.7V354.5m0,102.3V383.7" class="g0_515"/>
<path d="M742.4,442.9h34.3" class="g3_515"/>
<path d="M776.7,442.9h84.4" class="g4_515"/>
<path d="M498.4,486V456.8m0,58.4V486m0,114.2v-85" class="g0_515"/>
<path d="M611.3,576.2H715.5" class="g1_515"/>
<path d="M498.4,629.5V600.2m0,102.3v-73" class="g0_515"/>
<path d="M776.7,688.6h84.4" class="g4_515"/>
<path d="M498.4,731.7V702.5m0,58.5V731.7M193,761.3H872.1m-679.1,0H872.1" class="g0_515"/>
</svg>