<?xml version="1.0" encoding="UTF-8" standalone="no"?>
<!DOCTYPE svg PUBLIC "-//W3C//DTD SVG 1.1//EN"
"http://www.w3.org/Graphics/SVG/1.1/DTD/svg11.dtd">
<svg viewBox="0 0 909 1286" version="1.1" xmlns="http://www.w3.org/2000/svg" xmlns:xlink="http://www.w3.org/1999/xlink">
<defs>
<clipPath id="c0_47"><path d="M123.1,443.2V411.4h29.1v31.8Z"/></clipPath>
<clipPath id="c1_47"><path d="M122.1,443.7V410.9H153v32.8Z"/></clipPath>
<style type="text/css"><![CDATA[
.g0_47{
fill: none;
stroke: #8007AC;
stroke-width: 0.66;
stroke-linecap: butt;
stroke-linejoin: round;
stroke-miterlimit: 1;
}
.g1_47{
fill: #FFFFFF;
}
.g2_47{
}
.g3_47{
fill: none;
stroke: #000000;
stroke-width: 0.459;
stroke-linecap: butt;
stroke-linejoin: round;
}
.g4_47{
fill: none;
stroke: #000000;
stroke-width: 0.722;
stroke-linecap: round;
stroke-linejoin: miter;
}
.g5_47{
fill: none;
stroke: #000000;
stroke-width: 0.722;
stroke-linecap: round;
stroke-linejoin: round;
}
.g6_47{
fill: #D40000;
}
.g7_47{
fill: none;
stroke: #000000;
stroke-width: 0.578;
stroke-linecap: round;
stroke-linejoin: miter;
}
.g8_47{
fill: #E9C6AF;
}
.g9_47{
fill: none;
stroke: #695000;
stroke-width: 0.152;
stroke-linecap: round;
stroke-linejoin: round;
}
.ga_47{
fill: none;
stroke: #000000;
stroke-width: 1.461;
stroke-linecap: butt;
stroke-linejoin: miter;
}
.gb_47{
fill: none;
stroke: #000000;
stroke-width: 0.73;
stroke-linecap: butt;
stroke-linejoin: miter;
}
.gc_47{
fill: none;
stroke: #000000;
stroke-width: 2.739;
stroke-linecap: butt;
stroke-linejoin: miter;
}
]]></style>
</defs>
<path d="M336.6,303.1l18.3,-13.6M374,302.2l32,-16m19.5,16.9l18.2,-13.6m19.4,12.7l31.9,-16m17.5,16.9l18.3,-13.6m8.8,12.7l31.9,-16" class="g0_47"/>
<path d="M117.7,512.9V404.7H791.8V512.9Z" class="g1_47"/>
<path d="M117.7,512.9V404.7H791.8V512.9Z" class="ga_47"/>
<g clip-path="url(#c1_47)">
<path clip-path="url(#c0_47)" d="M126.4,436.8c0,0,1.5,-.9,1.2,-1.3c-.1,-.1,-.3,-.1,-.6,0c-1.6,.3,-5,2.1,-3.3,4.1c1.4,1.6,6.4,2.4,11.7,1.4c7.3,-1.4,13.5,-5.4,11.1,-8.3c-1.6,-2,-6.7,-2.1,-10.8,-2.2c-2.1,0,-6.6,-.1,-8,-1.7c-.6,-.7,-.5,-1.6,.1,-2.2c1,-.9,3.8,-1.4,4,-1.5c.7,-.1,2.5,-.4,4.6,-.3c1.1,0,2.5,0,3.2,.9c.2,.3,.4,.6,.4,.7c0,.1,0,.2,.1,.2c.1,.1,.4,.1,.5,.1c.5,-.1,1.5,-.5,2,-1c.3,-.3,.8,-.7,0,-1.6c-.9,-1.1,-2.3,-1.1,-4,-1.2c-2.3,0,-4.1,.4,-4.9,.5c-5.8,1.1,-11.1,4.6,-9,7c1.5,1.9,6.3,1.9,9,1.9c3.9,.1,8.4,.3,9.8,2.1c.6,.6,.9,1.8,-.4,2.8c-1.2,.9,-4,1.7,-5.8,2c-4.4,.9,-9.4,.2,-10.6,-1.2c0,-.1,-.5,-.6,-.3,-1.2Z" class="g2_47"/>
<path d="M131.5,439.2l-.2,-.2l.3,-4.5q.3,-5.7,.5,-6c.1,-.2,1.6,-2.3,3.3,-4.6c1.7,-2.4,4.3,-6.1,5.9,-8.3c1.5,-2.2,2.8,-3.9,2.9,-3.9c.4,0,.1,.4,-1.8,3.1c-1.2,1.7,-3.7,5.3,-5.7,8.1c-2,2.9,-3.6,5.2,-3.6,5.2c0,.1,.5,.1,1,.2c2,.2,3.3,.6,4.5,1.2c.6,.3,1,.5,1.5,1.1c.8,.8,1.2,1.4,1.4,2.2c.1,.3,.1,.5,.2,.5c.1,0,.7,-.8,5.2,-7.6c2.4,-3.7,4.5,-6.7,4.6,-6.8c.2,-.2,.4,-.1,.2,.2c0,.1,-1.5,2.4,-3.2,5c-1.8,2.7,-3.8,5.7,-4.5,6.8c-1.5,2.4,-2.1,3.3,-2.3,3.8c-.2,.3,-.3,.4,-.9,.7c-.8,.4,-8.7,3.9,-8.9,4c-.1,0,-.3,-.1,-.4,-.2Z" class="g2_47"/>
<path d="M135.2,437.2c2.2,-.9,4,-1.7,4.6,-2q.7,-.4,.7,-1.4c-.2,-1.7,-1.4,-3,-3.6,-3.8c-1.2,-.4,-4.3,-.8,-4.4,-.6c0,0,-.1,1.5,-.2,3.2c-.1,1.6,-.2,3.2,-.2,3.5c-.1,1.2,.1,1.5,-.2,2.6c.1,.1,1.8,-.8,1.8,-.8c.1,0,.7,-.3,1.5,-.7Z" class="g2_47"/>
<path d="M131.5,439.2l-.2,-.2l.3,-4.5q.3,-5.7,.5,-6c.1,-.2,1.6,-2.3,3.3,-4.6c1.7,-2.4,4.3,-6.1,5.9,-8.3c1.5,-2.2,2.8,-3.9,2.9,-3.9c.4,0,.1,.4,-1.8,3.1c-1.2,1.7,-3.7,5.3,-5.7,8.1c-2,2.9,-3.6,5.2,-3.6,5.2c0,.1,.5,.1,1,.2c2,.2,3.3,.6,4.5,1.2c.6,.3,1,.5,1.5,1.1c.8,.8,1.2,1.4,1.4,2.2c.1,.3,.1,.5,.2,.5c.1,0,.7,-.8,5.2,-7.6c2.4,-3.7,4.5,-6.7,4.6,-6.8c.2,-.2,.4,-.1,.2,.2c0,.1,-1.5,2.4,-3.2,5c-1.8,2.7,-3.8,5.7,-4.5,6.8c-1.5,2.4,-2.1,3.3,-2.3,3.8c-.2,.3,-.3,.4,-.9,.7c-.8,.4,-8.7,3.9,-8.9,4c-.1,0,-.3,-.1,-.4,-.2Zm3.7,-2c2.2,-.9,4,-1.7,4.6,-2q.7,-.4,.7,-1.4c-.2,-1.7,-1.4,-3,-3.6,-3.8c-1.2,-.4,-4.3,-.8,-4.4,-.6c0,0,-.1,1.5,-.2,3.2c-.1,1.6,-.2,3.2,-.2,3.5c-.1,1.2,.1,1.5,-.2,2.6c.1,.1,1.8,-.8,1.8,-.8c.1,0,.7,-.3,1.5,-.7Z" class="g3_47"/>
<path d="M135.3,428.6l11.2,-16m-8.2,17.2L149,414.1" class="g4_47"/>
<path d="M140.4,431.5l10,-14.5l.2,-.3" class="g5_47"/>
<path d="M134.1,428.3c-.4,-.1,-.8,-.2,-.9,-.2c0,0,2.5,-3.7,6.7,-9.6c1.9,-2.7,3.6,-5.2,3.8,-5.5c.2,-.4,.4,-.6,.5,-.6c.1,-.1,.7,.4,.9,.6c.1,.4,.1,.6,-.1,1.1c-.2,.5,-9.8,14.3,-9.9,14.3c-.1,0,-.5,-.1,-1,-.1Z" class="g6_47"/>
<path d="M137.6,429c-.2,-.1,-.8,-.3,-1.2,-.4l-.7,-.1l.3,-.4c.1,-.2,2.3,-3.3,4.8,-7l4.7,-6.7l.5,-.2c.9,-.5,1.6,-.5,2.1,0l.3,.3l-5,7.4c-3.1,4.5,-5.1,7.4,-5.1,7.3c-.1,0,-.4,-.1,-.7,-.2Z" class="g6_47"/>
<path d="M140,430.4c-.2,-.2,-.6,-.5,-.8,-.6c-.2,-.1,-.3,-.3,-.3,-.3c0,-.1,9.4,-14,9.8,-14.6c.1,-.1,.5,.3,.8,.7c.3,.4,.3,.6,.4,1.1c0,.3,0,.6,-.1,.7c-.2,.3,-9.1,13.1,-9.2,13.3q-.2,.2,-.6,-.3Z" class="g6_47"/>
<path d="M141.6,433.1c0,-.1,-.1,-.3,-.1,-.6c-.1,-.2,-.3,-.6,-.4,-.8l-.3,-.4l4.7,-6.8c2.6,-3.7,4.8,-6.8,4.8,-6.8c.4,0,1,.7,1,1.1c0,.2,-.6,1.2,-1.9,3.1c-1.1,1.6,-3.1,4.7,-4.6,6.8c-3,4.4,-3.1,4.6,-3.2,4.4Z" class="g6_47"/>
<path d="M131.9,434.6c2.3,-.1,3.6,.7,4.1,2.3" class="g7_47"/>
<path d="M132,438.5c0,-.4,.1,-.4,.1,-1.3c0,-.8,0,-1,0,-1.4c0,-.2,0,-.5,0,-.7l.1,-.2c.1,0,.6,0,.7,0c.4,0,.8,.1,1.1,.2c.2,.1,.4,.2,.6,.3c.2,.2,.3,.3,.4,.4c.3,.2,.4,.5,.6,.8c0,.1,.1,.4,.1,.4c0,0,-1.5,.7,-1.8,.8c-.1,0,-.2,.1,-.3,.1c-1.1,.6,-1.4,.7,-1.6,.8Z" class="g2_47"/>
<path d="M136.2,436.4c-.6,-1.2,-1.8,-2,-3.4,-2.1h-.6v-.5c.1,-.3,.1,-1.3,.2,-2.2c0,-1,.1,-1.8,.1,-2l.1,-.2h.7c.8,.1,2.3,.3,3.1,.5c1.7,.5,3.1,1.4,3.6,2.5c.4,.8,.6,2.1,.3,2.4c-.1,.2,-.8,.5,-2.5,1.3c-1.6,.7,-1.5,.7,-1.6,.3Z" class="g8_47"/>
<path d="M136.2,436.4c-.6,-1.2,-1.8,-2,-3.4,-2.1h-.6v-.5c.1,-.3,.1,-1.3,.2,-2.2c0,-1,.1,-1.8,.1,-2l.1,-.2h.7c.8,.1,2.3,.3,3.1,.5c1.7,.5,3.1,1.4,3.6,2.5c.4,.8,.6,2.1,.3,2.4c-.1,.2,-.8,.5,-2.5,1.3c-1.6,.7,-1.5,.7,-1.6,.3Z" class="g9_47"/>
</g>
<path d="M152.7,436.6h225" class="gb_47"/>
<path d="M137.6,444.1v59.4" class="gc_47"/>
</svg>