<?xml version="1.0" encoding="UTF-8" standalone="no"?>
<!DOCTYPE svg PUBLIC "-//W3C//DTD SVG 1.1//EN"
"http://www.w3.org/Graphics/SVG/1.1/DTD/svg11.dtd">
<svg viewBox="0 0 909 1286" version="1.1" xmlns="http://www.w3.org/2000/svg" xmlns:xlink="http://www.w3.org/1999/xlink">
<defs>
<style type="text/css"><![CDATA[
.g0_16{
fill: none;
stroke: #000000;
stroke-width: 1.972;
stroke-linecap: butt;
stroke-linejoin: miter;
}
.g1_16{
fill: #FFB3B3;
stroke: #9CD5F2;
stroke-width: 2.739;
stroke-linecap: butt;
stroke-linejoin: miter;
}
.g2_16{
fill: none;
stroke: #F81693;
stroke-width: 0.73;
stroke-linecap: butt;
stroke-linejoin: miter;
}
.g3_16{
fill: none;
stroke: #02B5EE;
stroke-width: 0.73;
stroke-linecap: butt;
stroke-linejoin: miter;
}
]]></style>
</defs>
<path d="M116.9,180.5H792.5m-1,166v-165m-674.6,166H792.5" class="g0_16"/>
<path d="M141.7,421.5c-2.8,-10.5,-13.9,-19,-24.8,-19c-10.8,0,-21.9,8.5,-24.8,19c-8.4,-6.9,-22.4,-7.2,-31.2,-.8c-8.8,6.4,-12.8,19.8,-8.9,29.9C41.1,450.1,29.6,458,26.2,468.4c-3.3,10.3,1.3,23.5,10.5,29.4c-9.2,6,-13.8,19.1,-10.5,29.5C29.6,537.6,41.1,545.6,52,545c-3.9,10.2,.1,23.6,8.9,30c8.8,6.4,22.8,6,31.2,-.8c2.9,10.5,14,19,24.8,19c10.9,0,22,-8.5,24.8,-19c8.5,6.8,22.5,7.2,31.3,.8c8.8,-6.4,12.8,-19.8,8.9,-30c10.8,.6,22.4,-7.4,25.7,-17.7C211,517,206.3,503.8,197.2,497.8c9.1,-5.9,13.8,-19.1,10.4,-29.4C204.3,458,192.7,450.1,181.9,450.6c3.9,-10.1,-.1,-23.5,-8.9,-29.9c-8.8,-6.4,-22.8,-6.1,-31.3,.8ZM256.4,549.8c0,-4.4,-4.3,-8,-9.5,-8c-5.3,0,-9.6,3.6,-9.6,8c0,4.4,4.3,8,9.6,8c5.2,0,9.5,-3.6,9.5,-8Zm-15.9,-8.3c0,-6.6,-6.4,-12,-14.3,-12c-7.9,0,-14.3,5.4,-14.3,12c0,6.7,6.4,12.1,14.3,12.1c7.9,0,14.3,-5.4,14.3,-12.1Z" class="g1_16"/>
<path d="M255.8,581.2l-31.3,18.6m31.3,-18.6L287,599.8m-31.2,55.5L224.5,636.7m31.3,18.6L287,636.7m0,-.2V600m-62.5,36.5V600m93.7,-18.8L287,599.8m31.2,-18.6l31.3,18.6m-31.3,55.5L287,636.7m31.2,18.6l31.3,-18.6m0,-.2V600m31.2,-18.8l-31.2,18.6m31.2,-18.6l31.2,18.6m0,36.7V600m-31.2,55.3l31.2,-18.6m-31.2,18.6L349.5,636.7M254.7,588.8l-23.1,13.7m23.1,45.2L231.6,634m87.7,-45.2l-23,13.7m23,45.2L296.3,634m58.8,-2.2V604.7m26.7,-15.9l23,13.7m-23,45.2l23,-13.7" class="g2_16"/>
<path d="M411.9,525.8l31.3,18.7m0,36.7V544.6M411.9,600l31.3,-18.6m-62.5,-.2V544.6m31.2,-18.8l-31.2,18.7m30.1,-11l-23,13.7m49.3,29.2v-27" class="g3_16"/>
<path d="M318.2,750.7l31.3,18.6m0,36.7V769.5m-31.3,55.3l31.3,-18.6m-31.3,18.6L287,806.2m0,-.2V769.5m31.2,-18.8L287,769.3M255.8,750.7L287,769.3m-31.2,55.5L287,806.2m-31.2,18.6L224.5,806.2m0,-.2V769.5m31.3,-18.8l-31.3,18.6m30.2,-11L231.6,772m23.1,45.2L231.6,803.5m85.5,-45.2l-23,13.7m23,45.2l-23,-13.7" class="g2_16"/>
<path d="M380.7,750.7l31.2,18.6m0,36.7V769.5m-31.2,55.3l31.2,-18.6m-31.2,18.6L349.5,806.2m31.2,-55.5l-31.2,18.6m32.3,-11l23,13.7m-23,45.2l23,-13.7m-49.3,-2.2V774.2m56.4,-78.9L443.2,714m0,36.7V714.1m-31.3,55.4l31.3,-18.6m-62.5,-.2V714.1m31.2,-18.8L380.7,714m30.1,-11l-23,13.7m49.3,29.2v-27M255.8,920.2L287,938.8m0,36.7V939m-31.2,55.3L287,975.7m-31.2,18.6L224.5,975.7m0,-.2V939m31.3,-18.8l-31.3,18.6m30.2,-10.9l-23.1,13.7m23.1,45.1L231.6,973" class="g3_16"/>
<path d="M318.2,920.2l31.3,18.6m0,36.7V939m-31.3,55.3l31.3,-18.6m-31.3,18.6L287,975.7m31.2,-55.5L287,938.8m30.1,-10.9l-23,13.7m23,45.1L294.1,973m86.6,-52.8l31.2,18.6m0,36.7V939m-31.2,55.3l31.2,-18.6m-31.2,18.6L349.5,975.7m31.2,-55.5l-31.2,18.6m32.3,-10.9l23,13.7m-23,45.1l23,-13.7m-49.3,-2.2V943.7m56.4,-78.9l31.3,18.7m0,36.7V883.6M411.9,939l31.3,-18.6m-62.5,-.2V883.6m31.2,-18.8l-31.2,18.7m30.1,-11l-23,13.7m49.3,29.2v-27" class="g2_16"/>
</svg>