<?xml version="1.0" encoding="UTF-8" standalone="no"?>
<!DOCTYPE svg PUBLIC "-//W3C//DTD SVG 1.1//EN"
"http://www.w3.org/Graphics/SVG/1.1/DTD/svg11.dtd">
<svg viewBox="0 0 1286 909" version="1.1" xmlns="http://www.w3.org/2000/svg" xmlns:xlink="http://www.w3.org/1999/xlink">
<defs>
<style type="text/css"><![CDATA[
.g0_244{
fill: none;
stroke: #000000;
stroke-width: 0.73;
stroke-linecap: butt;
stroke-linejoin: miter;
}
.g1_244{
fill: none;
stroke: #02B5EE;
stroke-width: 1.262;
stroke-linecap: butt;
stroke-linejoin: miter;
}
.g2_244{
fill: none;
stroke: #5EE200;
stroke-width: 1.262;
stroke-linecap: butt;
stroke-linejoin: miter;
}
.g3_244{
fill: none;
stroke: #5EE200;
stroke-width: 0.73;
stroke-linecap: butt;
stroke-linejoin: miter;
}
.g4_244{
fill: none;
stroke: #02B5EE;
stroke-width: 0.73;
stroke-linecap: butt;
stroke-linejoin: miter;
}
.g5_244{
fill: #B3E9FA;
}
]]></style>
</defs>
<path d="M193,83.4h900.3M193,210.6H820.5m-627.5,0H820.5M507.9,240.2V211m0,58.5V240.2m0,114.3v-85" class="g0_244"/>
<path d="M620.3,330.5H776.6" class="g1_244"/>
<path d="M787.2,330.5h22.4" class="g2_244"/>
<path d="M507.9,383.7V354.5m0,102.3V383.7" class="g0_244"/>
<path d="M600.2,442.9h34.4" class="g3_244"/>
<path d="M640.7,442.9H809.6" class="g4_244"/>
<path d="M507.9,486V456.8m0,58.4V486m0,114.2v-85" class="g0_244"/>
<path d="M521.4,556.8V538.2c0,-2.8,2.4,-5.1,5.2,-5.1H633.8c2.9,0,5.2,2.3,5.2,5.1v18.6c0,2.8,-2.3,5.2,-5.2,5.2H526.6c-2.8,0,-5.2,-2.4,-5.2,-5.2Z" class="g5_244"/>
<path d="M518.8,576.2H641.6" class="g1_244"/>
<path d="M652.1,576.2H809.6" class="g2_244"/>
<path d="M507.9,629.5V600.2M193,629.8H820.5m-627.5,0H820.5" class="g0_244"/>
</svg>