<?xml version="1.0" encoding="UTF-8" standalone="no"?>
<!DOCTYPE svg PUBLIC "-//W3C//DTD SVG 1.1//EN"
"http://www.w3.org/Graphics/SVG/1.1/DTD/svg11.dtd">
<svg viewBox="0 0 909 1286" version="1.1" xmlns="http://www.w3.org/2000/svg" xmlns:xlink="http://www.w3.org/1999/xlink">
<defs>
<clipPath id="c0_67"><path d="M119.5,462.4V428.9H446.9v33.5Z"/></clipPath>
<clipPath id="c1_67"><path d="M460.4,462.4V428.9H787.8v33.5Z"/></clipPath>
<clipPath id="c2_67"><path d="M119.5,763.4V729.9H789.9v33.5Z"/></clipPath>
<style type="text/css"><![CDATA[
.g0_67{
fill: none;
stroke: #000000;
stroke-width: 0.73;
stroke-linecap: butt;
stroke-linejoin: miter;
}
.g1_67{
fill: #E81A58;
}
.g2_67{
fill: #401A1A;
}
.g3_67{
fill: #7F7F7F;
fill-opacity: 0.01;
}
.g4_67{
fill: #7F7F7F;
fill-opacity: 0.02;
}
.g5_67{
fill: #7F7F7F;
fill-opacity: 0.04;
}
.g6_67{
fill: #7F7F7F;
fill-opacity: 0.07;
}
.g7_67{
fill: #7F7F7F;
fill-opacity: 0.11;
}
.g8_67{
fill: #FFFFFF;
}
.g9_67{
fill: #7F7F7F;
}
.ga_67{
fill: #00AEEF;
}
.gb_67{
fill: #CBCEFB;
}
.gc_67{
fill: #EC008C;
}
]]></style>
</defs>
<path d="M116.9,159.9H792.5" class="g0_67"/>
<path d="M116.9,362V179.5H792.5V322.9c0,21.6,-17.5,39.1,-39.1,39.1Z" class="g1_67"/>
<path d="M119.5,359.4V179.5H789.9V322.9c0,20.2,-16.3,36.5,-36.5,36.5Z" class="g2_67"/>
<path d="M122.2,431.6c107.4,0,214.7,0,322,0V723c-107.3,-9.4,-214.6,-9.4,-322,0Z" class="g3_67"/>
<path d="M122.9,432.2c106.9,0,213.8,0,320.7,0V722.4C336.7,713,229.8,713,122.9,722.4Z" class="g4_67"/>
<path d="M123.5,432.9c106.5,0,213,0,319.5,0V721.7c-106.5,-9.3,-213,-9.3,-319.5,0Z" class="g5_67"/>
<path d="M124.1,433.5c106.1,0,212.2,0,318.3,0V721.1c-106.1,-9.3,-212.2,-9.3,-318.3,0Z" class="g6_67"/>
<path d="M124.7,434.1c105.7,0,211.4,0,317,0V720.5c-105.6,-9.4,-211.3,-9.4,-317,0Z" class="g7_67"/>
<path d="M125.4,434.7c105.2,0,210.5,0,315.7,0V719.9c-105.2,-9.4,-210.5,-9.4,-315.7,0Z" class="g7_67"/>
<path d="M126,435.4c104.8,0,209.7,0,314.5,0V719.2c-104.8,-9.3,-209.7,-9.3,-314.5,0Z" class="g6_67"/>
<path d="M126.6,436c104.4,0,208.8,0,313.3,0V718.6c-104.5,-9.3,-208.9,-9.3,-313.3,0Z" class="g5_67"/>
<path d="M127.2,436.6c104,0,208,0,312,0V718c-104,-9.4,-208,-9.4,-312,0Z" class="g4_67"/>
<path d="M127.9,437.2c103.5,0,207.1,0,310.7,0V717.4C335,708,231.4,708,127.9,717.4Z" class="g3_67"/>
<path d="M116.9,712.7V426.3H449.5V712.7Z" class="g8_67"/>
<path d="M119.5,710.1V465H446.9V710.1Z" class="g8_67"/>
<path d="M119.5,462.4V428.9H446.9v33.5Z" class="g9_67"/>
<g clip-path="url(#c0_67)">
<image x="119" y="428" width="329" height="34" xlink:href="shade/1.png"/>
</g>
<path d="M316.9,457.2h104V434.1h-104v23.1Z" class="ga_67"/>
<path d="M195.3,514.4H371.2M195.7,544V514.8" class="g0_67"/>
<path d="M196,544h62V514.8H196V544Z" class="gb_67"/>
<path d="M258.4,544V514.8" class="g0_67"/>
<path d="M258.8,544H319V514.8H258.8V544Z" class="gb_67"/>
<path d="M319.4,544V514.8" class="g0_67"/>
<path d="M319.8,544h50.6V514.8H319.8V544Z" class="gb_67"/>
<path d="M370.8,544V514.8M195.3,544.4H371.2M195.7,574V544.7M258.4,574V544.7m61,29.3V544.7M370.8,574V544.7M195.3,574.3H371.2M195.7,603.9V574.7m62.7,29.2V574.7m61,29.2V574.7m51.4,29.2V574.7M195.3,604.3H371.2M195.7,633.9V604.6m62.7,29.3V604.6m61,29.3V604.6m51.4,29.3V604.6M195.3,634.2H371.2M195.7,663.8V634.6m62.7,29.2V634.6m61,29.2V634.6m51.4,29.2V634.6M195.3,664.2H371.2M195.7,693.8V664.6m62.7,29.2V664.6m61,29.2V664.6m51.4,29.2V664.6M195.3,694.1H371.2" class="g0_67"/>
<path d="M463.1,431.6c107.3,0,214.6,0,322,0V723c-107.4,-9.4,-214.7,-9.4,-322,0Z" class="g3_67"/>
<path d="M463.7,432.2c106.9,0,213.8,0,320.7,0V722.4C677.5,713,570.6,713,463.7,722.4Z" class="g4_67"/>
<path d="M464.3,432.9c106.5,0,213,0,319.5,0V721.7c-106.5,-9.3,-213,-9.3,-319.5,0Z" class="g5_67"/>
<path d="M464.9,433.5c106.1,0,212.2,0,318.3,0V721.1c-106.1,-9.3,-212.2,-9.3,-318.3,0Z" class="g6_67"/>
<path d="M465.6,434.1c105.6,0,211.3,0,317,0V720.5c-105.7,-9.4,-211.4,-9.4,-317,0Z" class="g7_67"/>
<path d="M466.2,434.7c105.2,0,210.5,0,315.7,0V719.9c-105.2,-9.4,-210.5,-9.4,-315.7,0Z" class="g7_67"/>
<path d="M466.8,435.4c104.8,0,209.7,0,314.5,0V719.2c-104.8,-9.3,-209.7,-9.3,-314.5,0Z" class="g6_67"/>
<path d="M467.4,436c104.5,0,208.9,0,313.3,0V718.6c-104.4,-9.3,-208.8,-9.3,-313.3,0Z" class="g5_67"/>
<path d="M468.1,436.6c104,0,208,0,312,0V718c-104,-9.4,-208,-9.4,-312,0Z" class="g4_67"/>
<path d="M468.7,437.2c103.6,0,207.2,0,310.7,0V717.4C675.9,708,572.3,708,468.7,717.4Z" class="g3_67"/>
<path d="M457.8,712.7V426.3H790.4V712.7Z" class="g8_67"/>
<path d="M460.4,710.1V465H787.8V710.1Z" class="g8_67"/>
<path d="M460.4,462.4V428.9H787.8v33.5Z" class="g9_67"/>
<g clip-path="url(#c1_67)">
<image x="460" y="428" width="329" height="34" xlink:href="shade/2.png"/>
</g>
<path d="M657.8,457.2h104V434.1h-104v23.1Z" class="ga_67"/>
<path d="M536.1,514.4H712M536.5,544V514.8" class="g0_67"/>
<path d="M536.9,544h62V514.8h-62V544Z" class="gb_67"/>
<path d="M599.2,544V514.8" class="g0_67"/>
<path d="M599.6,544h60.3V514.8H599.6V544Z" class="gb_67"/>
<path d="M660.2,544V514.8" class="g0_67"/>
<path d="M660.6,544h50.7V514.8H660.6V544Z" class="gb_67"/>
<path d="M711.6,544V514.8M536.1,544.4H712M536.5,574V544.7M599.2,574V544.7m61,29.3V544.7M711.6,574V544.7M536.1,574.3H712M536.5,603.9V574.7m62.7,29.2V574.7m61,29.2V574.7m51.4,29.2V574.7M536.1,604.3H712M536.5,633.9V604.6m62.7,29.3V604.6m61,29.3V604.6m51.4,29.3V604.6M536.1,634.2H712M536.5,663.8V634.6m62.7,29.2V634.6m61,29.2V634.6m51.4,29.2V634.6M536.1,664.2H712M536.5,693.8V664.6m62.7,29.2V664.6m61,29.2V664.6m51.4,29.2V664.6M536.1,694.1H712" class="g0_67"/>
<path d="M122.2,732.6c221.7,0,443.4,0,665,0v407.7c-221.6,-9.3,-443.3,-9.3,-665,0Z" class="g3_67"/>
<path d="M122.9,733.2c221.2,0,442.4,0,663.7,0v406.5c-221.3,-9.3,-442.5,-9.3,-663.7,0Z" class="g4_67"/>
<path d="M123.5,733.9c220.8,0,441.6,0,662.5,0v405.2c-220.9,-9.4,-441.7,-9.4,-662.5,0Z" class="g5_67"/>
<path d="M124.1,734.5c220.4,0,440.8,0,661.2,0v404c-220.4,-9.4,-440.8,-9.4,-661.2,0Z" class="g6_67"/>
<path d="M124.7,735.1c220,0,440,0,660,0v402.7c-220,-9.3,-440,-9.3,-660,0Z" class="g7_67"/>
<path d="M125.4,735.7c219.5,0,439.1,0,658.7,0v401.5c-219.6,-9.3,-439.2,-9.3,-658.7,0Z" class="g7_67"/>
<path d="M126,736.4c219.1,0,438.3,0,657.5,0v400.2c-219.2,-9.4,-438.4,-9.4,-657.5,0Z" class="g6_67"/>
<path d="M126.6,737c218.8,0,437.5,0,656.3,0v399c-218.8,-9.4,-437.5,-9.4,-656.3,0Z" class="g5_67"/>
<path d="M127.2,737.6c218.4,0,436.7,0,655,0v397.7c-218.3,-9.3,-436.6,-9.3,-655,0Z" class="g4_67"/>
<path d="M127.9,738.2c217.9,0,435.8,0,653.7,0v396.5c-217.9,-9.3,-435.8,-9.3,-653.7,0Z" class="g3_67"/>
<path d="M116.9,1130V727.3H792.5V1130Z" class="g8_67"/>
<path d="M119.5,1127.4V766H789.9v361.4Z" class="g8_67"/>
<path d="M119.5,763.4V729.9H789.9v33.5Z" class="g9_67"/>
<g clip-path="url(#c2_67)">
<image x="119" y="729" width="672" height="34" xlink:href="shade/3.png"/>
</g>
<path d="M675.7,758.2h88.2V735.1H675.7v23.1Z" class="gc_67"/>
<path d="M383.8,782H525.7M384.1,811.6V782.4" class="g0_67"/>
<path d="M384.5,811.6h69.9V782.4H384.5v29.2Z" class="gb_67"/>
<path d="M454.7,811.6V782.4" class="g0_67"/>
<path d="M455.1,811.6h69.8V782.4H455.1v29.2Z" class="gb_67"/>
<path d="M525.3,811.6V782.4M383.8,811.9H525.7M384.1,841.5V812.3m70.6,29.2V812.3m70.6,29.2V812.3M383.8,841.9H525.7M384.1,871.5V842.3m70.6,29.2V842.3m70.6,29.2V842.3M383.8,871.9H525.7M384.1,901.4V872.2m70.6,29.2V872.2m70.6,29.2V872.2M383.8,901.8H525.7M384.1,931.4V902.2m70.6,29.2V902.2m70.6,29.2V902.2M383.8,931.8H525.7M384.1,961.4V932.1m70.6,29.3V932.1m70.6,29.3V932.1M383.8,961.7H525.7M384.1,991.3V962.1m70.6,29.2V962.1m70.6,29.2V962.1M383.8,991.7H525.7m-141.6,29.6V992m70.6,29.3V992m70.6,29.3V992m-141.5,29.6H525.7m-141.6,29.6V1022m70.6,29.2V1022m70.6,29.2V1022m-141.5,29.6H525.7m-141.6,29.6v-29.3m70.6,29.3v-29.3m70.6,29.3v-29.3m-141.5,29.6H525.7m-141.6,29.6v-29.2m70.6,29.2v-29.2m70.6,29.2v-29.2m-141.5,29.6H525.7" class="g0_67"/>
</svg>