<?xml version="1.0" encoding="UTF-8" standalone="no"?>
<!DOCTYPE svg PUBLIC "-//W3C//DTD SVG 1.1//EN"
"http://www.w3.org/Graphics/SVG/1.1/DTD/svg11.dtd">
<svg viewBox="0 0 909 1286" version="1.1" xmlns="http://www.w3.org/2000/svg" xmlns:xlink="http://www.w3.org/1999/xlink">
<defs>
<style type="text/css"><![CDATA[
.g0_51{
fill: none;
stroke: #8007AC;
stroke-width: 0.66;
stroke-linecap: butt;
stroke-linejoin: round;
stroke-miterlimit: 1;
}
.g1_51{
fill: none;
stroke: #000000;
stroke-width: 0.73;
stroke-linecap: butt;
stroke-linejoin: miter;
}
.g2_51{
fill: #FEDCEF;
}
.g3_51{
fill: none;
stroke: #02B5EE;
stroke-width: 1.461;
stroke-linecap: butt;
stroke-linejoin: miter;
}
.g4_51{
fill: none;
stroke: #000000;
stroke-width: 0.657;
stroke-linecap: butt;
stroke-linejoin: miter;
}
]]></style>
</defs>
<path d="M260.7,227.3l18.2,-13.6m70.3,5.1l18.2,-13.6" class="g0_51"/>
<path d="M349.2,220.2h44.1" class="g1_51"/>
<path d="M356.4,282.1l18.2,-13.6m86.4,5L479.2,260" class="g0_51"/>
<path d="M461,275h44.2M387.5,329.8h30.6" class="g1_51"/>
<path d="M460.9,328.5l18.3,-18.2" class="g0_51"/>
<path d="M446.8,329.8h32.9m29.2,0h43.3" class="g1_51"/>
<path d="M533.5,350.6l18.2,-18.2" class="g0_51"/>
<path d="M461,384.6h44.5m-118,54.8h30.6m71.6,0h44.5M374.3,494.2h19.3m67.4,0h30.3m22.6,0h19.5M461,549h30.3M461,603.7h30.3M461,658.5h76.6m-60.1,54.8h30.3" class="g1_51"/>
<path d="M535.7,713.4l27.7,-20.7" class="g0_51"/>
<path d="M534.5,713.3h30.2" class="g1_51"/>
<path d="M535.7,736.8L563.4,716" class="g0_51"/>
<path d="M313.6,826.6v-8.2c0,-2.9,2.3,-5.2,5.2,-5.2h93.7c2.9,0,5.2,2.3,5.2,5.2v8.2c0,2.8,-2.3,5.2,-5.2,5.2H318.8c-2.9,0,-5.2,-2.4,-5.2,-5.2Z" class="g2_51"/>
<path d="M261.7,896.1c1.4,0,2.1,-2.7,3.4,-2.7c1,0,1.9,1.3,2.8,2.7c.9,1.4,1.7,2.7,2.7,2.7c1,0,1.9,-1.3,2.8,-2.7c.8,-1.4,1.7,-2.7,2.7,-2.7c1,0,1.9,1.3,2.7,2.7c.9,1.4,1.8,2.7,2.8,2.7c1,0,1.8,-1.3,2.7,-2.7c.9,-1.4,1.8,-2.7,2.8,-2.7c1,0,1.8,1.3,2.7,2.7c.9,1.4,1.7,2.7,2.7,2.7c1,0,1.9,-1.3,2.8,-2.7c.8,-1.4,1.7,-2.7,2.7,-2.7c1,0,1.9,1.3,2.8,2.7c.8,1.4,1.7,2.7,2.7,2.7c1,0,1.9,-1.3,2.7,-2.7c.9,-1.4,1.8,-2.7,2.8,-2.7c1,0,1.8,1.3,2.7,2.7c.9,1.4,1.8,2.7,2.8,2.7c1,0,1.8,-1.3,2.7,-2.7c.9,-1.4,1.7,-2.7,2.7,-2.7c1,0,1.9,1.3,2.8,2.7c.8,1.4,1.7,2.7,2.7,2.7c1,0,1.9,-1.3,2.8,-2.7c.8,-1.4,1.7,-2.7,2.7,-2.7c1,0,1.9,1.3,2.7,2.7c.9,1.4,1.8,2.7,2.8,2.7c1,0,1.8,-1.3,2.7,-2.7c.9,-1.4,1.8,-2.7,2.8,-2.7c1,0,1.8,1.3,2.7,2.7c.9,1.4,1.7,2.7,2.7,2.7c1,0,1.9,-1.3,2.8,-2.7c.8,-1.4,1.7,-2.7,2.7,-2.7c1,0,1.9,1.3,2.8,2.7c.8,1.4,1.7,2.7,2.7,2.7c1,0,1.9,-1.3,2.7,-2.7c.9,-1.4,1.8,-2.7,2.8,-2.7c1,0,1.8,1.3,2.7,2.7c.9,1.4,1.8,2.7,2.8,2.7c1,0,1.8,-1.3,2.7,-2.7c.9,-1.4,1.7,-2.7,2.7,-2.7c1,0,1.9,1.3,2.8,2.7c.8,1.4,1.7,2.7,2.7,2.7c1,0,1.9,-1.3,2.8,-2.7c.8,-1.4,1.7,-2.7,2.7,-2.7c1,0,1.9,1.3,2.7,2.7c.9,1.4,1.8,2.7,2.8,2.7c1,0,1.8,-1.3,2.7,-2.7c.9,-1.4,1.7,-2.7,2.7,-2.7c1,0,1.9,1.3,2.8,2.7c.9,1.4,1.7,2.7,2.7,2.7c1,0,1.9,-1.3,2.8,-2.7c.8,-1.4,1.7,-2.7,2.7,-2.7c1,0,1.9,1.3,2.7,2.7c.9,1.4,1.8,2.7,2.8,2.7c1.4,0,2,-2.7,3.4,-2.7h3.8" class="g3_51"/>
<path d="M334.9,881V869.8c0,-2.8,2.3,-5.2,5.2,-5.2h72.4c2.9,0,5.2,2.4,5.2,5.2V881c0,2.9,-2.3,5.2,-5.2,5.2H340.1c-2.9,0,-5.2,-2.3,-5.2,-5.2Z" class="g2_51"/>
<path d="M332.9,948c1.3,0,2,-2.7,3.4,-2.7c1,0,1.8,1.4,2.7,2.7c.9,1.4,1.8,2.8,2.8,2.8c1,0,1.8,-1.4,2.7,-2.8c.9,-1.3,1.7,-2.7,2.7,-2.7c1,0,1.9,1.4,2.8,2.7c.9,1.4,1.7,2.8,2.7,2.8c1,0,1.9,-1.4,2.8,-2.8c.8,-1.3,1.7,-2.7,2.7,-2.7c1,0,1.9,1.4,2.7,2.7c.9,1.4,1.8,2.8,2.8,2.8c1,0,1.8,-1.4,2.7,-2.8c.9,-1.3,1.8,-2.7,2.8,-2.7c1,0,1.8,1.4,2.7,2.7c.9,1.4,1.7,2.8,2.7,2.8c1,0,1.9,-1.4,2.8,-2.8c.8,-1.3,1.7,-2.7,2.7,-2.7c1,0,1.9,1.4,2.8,2.7c.8,1.4,1.7,2.8,2.7,2.8c1,0,1.9,-1.4,2.7,-2.8c.9,-1.3,1.8,-2.7,2.8,-2.7c1,0,1.8,1.4,2.7,2.7c.9,1.4,1.8,2.8,2.8,2.8c1,0,1.8,-1.4,2.7,-2.8c.9,-1.3,1.7,-2.7,2.7,-2.7c1,0,1.9,1.4,2.8,2.7c.8,1.4,1.7,2.8,2.7,2.8c1,0,1.9,-1.4,2.8,-2.8c.8,-1.3,1.7,-2.7,2.7,-2.7c1.4,0,2,2.7,3.4,2.7h3.9" class="g3_51"/>
<path d="M684.6,276.4c13.9,13.8,14.1,36.2,.6,50.3m7.1,-.6c-2.5,.4,-4.9,.7,-7.3,.8c-.1,-2.3,-.4,-4.6,-.8,-6.8" class="g1_51"/>
<path d="M892.9,300.9h38.7" class="g4_51"/>
<path d="M684.6,386c13.9,13.8,14.1,36.2,.6,50.3m7.1,-.6c-2.5,.4,-4.9,.7,-7.3,.8c-.1,-2.3,-.4,-4.6,-.8,-6.8m.4,11.1c13.9,13.8,14.1,36.2,.6,50.3m7.1,-.6c-2.5,.4,-4.9,.7,-7.3,.8c-.1,-2.3,-.4,-4.6,-.8,-6.8" class="g1_51"/>
<path d="M716.6,465.3h26.9" class="g4_51"/>
<path d="M684.6,550.4c13.9,13.8,14.1,36.2,.6,50.3m7.1,-.6c-2.5,.4,-4.9,.7,-7.3,.8c-.1,-2.3,-.4,-4.6,-.8,-6.8m.4,11.1c13.9,13.8,14.1,36.2,.6,50.3m7.1,-.7c-2.5,.5,-4.9,.8,-7.3,.9c-.1,-2.3,-.4,-4.6,-.8,-6.8m.4,65.9c13.9,13.8,14.1,36.2,.6,50.2m7.1,-.6c-2.5,.5,-4.9,.8,-7.3,.9c-.1,-2.3,-.4,-4.6,-.8,-6.8" class="g1_51"/>
<path d="M801.8,739.8h26.9" class="g4_51"/>
</svg>