<?xml version="1.0" encoding="UTF-8" standalone="no"?>
<!DOCTYPE svg PUBLIC "-//W3C//DTD SVG 1.1//EN"
"http://www.w3.org/Graphics/SVG/1.1/DTD/svg11.dtd">
<svg viewBox="0 0 1286 909" version="1.1" xmlns="http://www.w3.org/2000/svg" xmlns:xlink="http://www.w3.org/1999/xlink">
<defs>
<style type="text/css"><![CDATA[
.g0_214{
fill: none;
stroke: #000000;
stroke-width: 0.73;
stroke-linecap: butt;
stroke-linejoin: miter;
}
.g1_214{
fill: #B3E9FA;
}
.g2_214{
fill: none;
stroke: #02B5EE;
stroke-width: 1.262;
stroke-linecap: butt;
stroke-linejoin: miter;
}
.g3_214{
fill: none;
stroke: #5EE200;
stroke-width: 1.262;
stroke-linecap: butt;
stroke-linejoin: miter;
}
]]></style>
</defs>
<path d="M193,83.4h900.3M193,210.6h834.5m-834.5,0h834.5M624.1,240.2V211m0,58.5V240.2m0,114.3v-85" class="g0_214"/>
<path d="M637.6,311V292.5c0,-2.9,2.3,-5.2,5.2,-5.2h84.7c2.9,0,5.2,2.3,5.2,5.2V311c0,2.9,-2.3,5.2,-5.2,5.2H642.8c-2.9,0,-5.2,-2.3,-5.2,-5.2Z" class="g1_214"/>
<path d="M635,330.5H735.3" class="g2_214"/>
<path d="M745.8,330.5h270.7" class="g3_214"/>
<path d="M624.1,383.7V354.5m0,58.4V383.7m0,114.3V412.9" class="g0_214"/>
<path d="M702.5,454.5V436c0,-2.9,2.3,-5.2,5.1,-5.2h93.9c2.9,0,5.2,2.3,5.2,5.2v18.5c0,2.9,-2.3,5.2,-5.2,5.2H707.6c-2.8,0,-5.1,-2.3,-5.1,-5.2Z" class="g1_214"/>
<path d="M699.9,474H809.3" class="g2_214"/>
<path d="M819.8,474h196.7" class="g3_214"/>
<path d="M624.1,527.2V498m0,58.4V527.2m0,114.2v-85" class="g0_214"/>
<path d="M668.2,598V579.4c0,-2.8,2.3,-5.2,5.2,-5.2H801.5c2.9,0,5.2,2.4,5.2,5.2V598c0,2.8,-2.3,5.2,-5.2,5.2H673.4c-2.9,0,-5.2,-2.4,-5.2,-5.2Z" class="g1_214"/>
<path d="M665.6,617.4H809.3" class="g2_214"/>
<path d="M819.8,617.4h196.7" class="g3_214"/>
<path d="M624.1,670.6V641.4m0,58.5V670.6m0,58.5V699.9M193,729.5h834.5m-834.5,0h834.5" class="g0_214"/>
</svg>