<?xml version="1.0" encoding="UTF-8" standalone="no"?>
<!DOCTYPE svg PUBLIC "-//W3C//DTD SVG 1.1//EN"
"http://www.w3.org/Graphics/SVG/1.1/DTD/svg11.dtd">
<svg viewBox="0 0 1286 909" version="1.1" xmlns="http://www.w3.org/2000/svg" xmlns:xlink="http://www.w3.org/1999/xlink">
<defs>
<style type="text/css"><![CDATA[
.g0_1062{
fill: none;
stroke: #000000;
stroke-width: 0.73;
stroke-linecap: butt;
stroke-linejoin: miter;
}
.g1_1062{
fill: #FFCCCC;
}
.g2_1062{
fill: none;
stroke: #F81693;
stroke-width: 1.262;
stroke-linecap: butt;
stroke-linejoin: miter;
}
.g3_1062{
fill: none;
stroke: #02B5EE;
stroke-width: 1.262;
stroke-linecap: butt;
stroke-linejoin: miter;
}
.g4_1062{
fill: none;
stroke: #FFA313;
stroke-width: 1.262;
stroke-linecap: butt;
stroke-linejoin: miter;
}
.g5_1062{
fill: none;
stroke: #F81693;
stroke-width: 0.73;
stroke-linecap: butt;
stroke-linejoin: miter;
}
.g6_1062{
fill: none;
stroke: #02B5EE;
stroke-width: 0.73;
stroke-linecap: butt;
stroke-linejoin: miter;
}
.g7_1062{
fill: none;
stroke: #FFA313;
stroke-width: 0.73;
stroke-linecap: butt;
stroke-linejoin: miter;
}
.g8_1062{
fill: #E6CEEE;
}
.g9_1062{
fill: #AFF080;
}
.ga_1062{
fill: none;
stroke: #5EE200;
stroke-width: 1.262;
stroke-linecap: butt;
stroke-linejoin: miter;
}
.gb_1062{
fill: #FFFFFF;
}
.gc_1062{
fill: none;
stroke: #5EE200;
stroke-width: 1.461;
stroke-linecap: butt;
stroke-linejoin: miter;
}
.gd_1062{
fill: none;
stroke: #5EE200;
stroke-width: 1.168;
stroke-linecap: round;
stroke-linejoin: round;
}
]]></style>
</defs>
<path d="M193,83.4h900.3M193,111.6H821.1m-628.1,0H821.1M425.7,141.2V112m0,114.3V141.2" class="g0_1062"/>
<path d="M587.1,190.6h62.2V157.7H587.1v32.9Z" class="g1_1062"/>
<path d="M659.8,202.3H678" class="g2_1062"/>
<path d="M688.6,202.3h71.7" class="g3_1062"/>
<path d="M787.7,202.3h22.4" class="g4_1062"/>
<path d="M425.7,255.5V226.3m0,102.2v-73" class="g0_1062"/>
<path d="M506.2,314.7h33.7" class="g5_1062"/>
<path d="M539.9,314.7h16.9" class="g6_1062"/>
<path d="M556.8,314.7h13" class="g7_1062"/>
<path d="M569.8,314.7h67.6" class="g6_1062"/>
<path d="M643.4,304.8H810.1V271.9H643.4v32.9Z" class="g1_1062"/>
<path d="M425.7,357.8V328.5m0,58.5V357.8m0,64V387" class="g0_1062"/>
<path d="M677.6,421.8H810.1V388.9H677.6v32.9Z" class="g8_1062"/>
<path d="M425.7,451V421.8m0,62.1V451" class="g0_1062"/>
<path d="M697.8,483.9H810.1V451H697.8v32.9Z" class="g8_1062"/>
<path d="M425.7,513.1V483.9m0,58.5V513.1m0,128.8V542.4" class="g0_1062"/>
<path d="M449.8,592.9V550.1c0,-2.9,2.3,-5.2,5.2,-5.2H564.8c2.9,0,5.2,2.3,5.2,5.2v42.8c0,2.9,-2.3,5.2,-5.2,5.2H455c-2.9,0,-5.2,-2.3,-5.2,-5.2Z" class="g9_1062"/>
<path d="M447.2,603.4h136" class="ga_1062"/>
<path d="M593.7,603.4h40.5" class="g2_1062"/>
<path d="M647.3,592.9V550.1c0,-2.9,2.3,-5.2,5.2,-5.2h59.4c2.8,0,5.2,2.3,5.2,5.2v42.8c0,2.9,-2.4,5.2,-5.2,5.2H652.5c-2.9,0,-5.2,-2.3,-5.2,-5.2Z" class="gb_1062"/>
<path d="M644.7,603.4h85.5" class="g3_1062"/>
<path d="M743.3,592.9V550.1c0,-2.9,2.3,-5.2,5.2,-5.2h32.8c2.9,0,5.2,2.3,5.2,5.2v42.8c0,2.9,-2.3,5.2,-5.2,5.2H748.5c-2.9,0,-5.2,-2.3,-5.2,-5.2Z" class="gb_1062"/>
<path d="M740.7,603.4h58.9" class="g4_1062"/>
<path d="M509.9,541V529.3H730.2v42.2" class="gc_1062"/>
<path d="M513.7,538.1c-1.4,.3,-3.5,2.9,-3.8,3.6c-.2,-.7,-2.4,-3.3,-3.8,-3.6" class="gd_1062"/>
<path d="M425.7,671.1V641.9m0,58.4V671.1M193,700.7H821.1m-628.1,0H821.1" class="g0_1062"/>
</svg>