<?xml version="1.0" encoding="UTF-8" standalone="no"?>
<!DOCTYPE svg PUBLIC "-//W3C//DTD SVG 1.1//EN"
"http://www.w3.org/Graphics/SVG/1.1/DTD/svg11.dtd">
<svg viewBox="0 0 1286 909" version="1.1" xmlns="http://www.w3.org/2000/svg" xmlns:xlink="http://www.w3.org/1999/xlink">
<defs>
<style type="text/css"><![CDATA[
.g0_1182{
fill: none;
stroke: #000000;
stroke-width: 0.73;
stroke-linecap: butt;
stroke-linejoin: miter;
}
.g1_1182{
fill: none;
stroke: #000000;
stroke-width: 0.62;
stroke-linecap: butt;
stroke-linejoin: miter;
}
.g2_1182{
fill: #FDE8E9;
}
]]></style>
</defs>
<path d="M193,83.4h900.3" class="g0_1182"/>
<path d="M207.4,427.5H494.8M207.4,452.6V427.8m163.4,24.8V427.8m124,24.8V427.8M207.4,480.4V452.6m163.4,27.8V452.6" class="g1_1182"/>
<path d="M380.1,477.6h52.3v-25H380.1v25Z" class="g2_1182"/>
<path d="M494.8,480.4V452.6M207.4,505.2V480.4m163.4,24.8V480.4m124,24.8V480.4M207.4,530V505.2M370.8,530V505.2m124,24.8V505.2M207.4,559.5V530m163.4,29.5V530" class="g1_1182"/>
<path d="M380.1,559.5h90.8V530H380.1v29.5Z" class="g2_1182"/>
<path d="M494.8,559.5V530M207.4,584.3V559.5m163.4,24.8V559.5m124,24.8V559.5M207.4,609.1V584.3m163.4,24.8V584.3m124,24.8V584.3M207.4,636.9V609.1m163.4,27.8V609.1" class="g1_1182"/>
<path d="M380.1,634.1H485.5v-25H380.1v25Z" class="g2_1182"/>
<path d="M494.8,636.9V609.1M207.4,661.7V636.9m163.4,24.8V636.9m124,24.8V636.9M207.4,686.6V661.7m163.4,24.9V661.7m124,24.9V661.7M207.4,713.9V686.6m163.4,27.3V686.6" class="g1_1182"/>
<path d="M380.1,713.9h56.6V689.6H380.1v24.3Z" class="g2_1182"/>
<path d="M494.8,713.9V686.6M207.4,738.7V713.9m163.4,24.8V713.9m124,24.8V713.9M207.4,763.6V738.7m163.4,24.9V738.7m124,24.9V738.7M207.4,793V763.6M370.8,793V763.6" class="g1_1182"/>
<path d="M380.1,793h79.1V763.6H380.1V793Z" class="g2_1182"/>
<path d="M494.8,793V763.6M207.4,817.8V793m163.4,24.8V793m124,24.8V793M207.4,818.1H494.8M513.4,426.4H807.8M513.4,451.6V426.7m173.7,24.9V426.7m120.7,24.9V426.7M513.4,481V451.6M687.1,481V451.6" class="g1_1182"/>
<path d="M696.4,481h51.9V451.6H696.4V481Z" class="g2_1182"/>
<path d="M807.8,481V451.6M513.4,505.8V481m173.7,24.8V481m120.7,24.8V481M513.4,530.7V505.8m173.7,24.9V505.8m120.7,24.9V505.8M513.4,558.4V530.7m173.7,27.7V530.7" class="g1_1182"/>
<path d="M696.4,555.6h52.2V530.7H696.4v24.9Z" class="g2_1182"/>
<path d="M807.8,558.4V530.7M513.4,583.3V558.4m173.7,24.9V558.4m120.7,24.9V558.4M513.4,608.1V583.3m173.7,24.8V583.3m120.7,24.8V583.3M513.4,637.5V608.1m173.7,29.4V608.1" class="g1_1182"/>
<path d="M696.4,637.5H798.5V608.1H696.4v29.4Z" class="g2_1182"/>
<path d="M807.8,637.5V608.1M513.4,662.4V637.5m173.7,24.9V637.5m120.7,24.9V637.5M513.4,687.2V662.4m173.7,24.8V662.4m120.7,24.8V662.4M513.4,716.6V687.2m173.7,29.4V687.2" class="g1_1182"/>
<path d="M696.4,716.6h76.7V687.2H696.4v29.4Z" class="g2_1182"/>
<path d="M807.8,716.6V687.2M513.4,741.5V716.6m173.7,24.9V716.6m120.7,24.9V716.6M513.4,766.3V741.5m173.7,24.8V741.5m120.7,24.8V741.5M513.4,794V766.3M687.1,794V766.3" class="g1_1182"/>
<path d="M696.4,791.3h59.8v-25H696.4v25Z" class="g2_1182"/>
<path d="M807.8,794V766.3M513.4,818.9V794m173.7,24.9V794m120.7,24.9V794M513.4,819.2H807.8M826.4,428.9h250.9M826.4,454.1V429.2m142.7,24.9V429.2m108.2,24.9V429.2M826.4,481.8V454.1m142.7,27.7V454.1" class="g1_1182"/>
<path d="M978.4,479h44.7V454.1H978.4V479Z" class="g2_1182"/>
<path d="M1077.3,481.8V454.1M826.4,506.7V481.8m142.7,24.9V481.8m108.2,24.9V481.8M826.4,531.5V506.7m142.7,24.8V506.7m108.2,24.8V506.7M826.4,559.2V531.5m142.7,27.7V531.5" class="g1_1182"/>
<path d="M978.4,556.5H1068v-25H978.4v25Z" class="g2_1182"/>
<path d="M1077.3,559.2V531.5M826.4,584.1V559.2m142.7,24.9V559.2m108.2,24.9V559.2M826.4,608.9V584.1m142.7,24.8V584.1m108.2,24.8V584.1M826.4,636.7V608.9m142.7,27.8V608.9" class="g1_1182"/>
<path d="M978.4,633.9h86v-25h-86v25Z" class="g2_1182"/>
<path d="M1077.3,636.7V608.9M826.4,661.5V636.7m142.7,24.8V636.7m108.2,24.8V636.7M826.4,686.4V661.5m142.7,24.9V661.5m108.2,24.9V661.5M826.4,714.1V686.4m142.7,27.7V686.4" class="g1_1182"/>
<path d="M978.4,711.3h53V686.4h-53v24.9Z" class="g2_1182"/>
<path d="M1077.3,714.1V686.4M826.4,738.9V714.1m142.7,24.8V714.1m108.2,24.8V714.1M826.4,763.8V738.9m142.7,24.9V738.9m108.2,24.9V738.9M826.4,791.5V763.8m142.7,27.7V763.8" class="g1_1182"/>
<path d="M978.4,788.7h66.5V763.8H978.4v24.9Z" class="g2_1182"/>
<path d="M1077.3,791.5V763.8M826.4,816.4V791.5m142.7,24.9V791.5m108.2,24.9V791.5M826.4,816.7h250.9" class="g1_1182"/>
</svg>