<?xml version="1.0" encoding="UTF-8" standalone="no"?>
<!DOCTYPE svg PUBLIC "-//W3C//DTD SVG 1.1//EN"
"http://www.w3.org/Graphics/SVG/1.1/DTD/svg11.dtd">
<svg viewBox="0 0 1286 909" version="1.1" xmlns="http://www.w3.org/2000/svg" xmlns:xlink="http://www.w3.org/1999/xlink">
<defs>
<style type="text/css"><![CDATA[
.g0_769{
fill: none;
stroke: #000000;
stroke-width: 0.73;
stroke-linecap: butt;
stroke-linejoin: miter;
}
.g1_769{
fill: none;
stroke: #02B5EE;
stroke-width: 1.262;
stroke-linecap: butt;
stroke-linejoin: miter;
}
.g2_769{
fill: none;
stroke: #FFA313;
stroke-width: 1.262;
stroke-linecap: butt;
stroke-linejoin: miter;
}
.g3_769{
fill: none;
stroke: #FFA313;
stroke-width: 0.73;
stroke-linecap: butt;
stroke-linejoin: miter;
}
.g4_769{
fill: none;
stroke: #02B5EE;
stroke-width: 0.73;
stroke-linecap: butt;
stroke-linejoin: miter;
}
.g5_769{
fill: #B3E9FA;
}
.g6_769{
fill: none;
stroke: #5EE200;
stroke-width: 1.262;
stroke-linecap: butt;
stroke-linejoin: miter;
}
]]></style>
</defs>
<path d="M193,83.4h900.3M193,210.6h864.6m-864.6,0h864.6M656.1,240.2V211m0,58.5V240.2m0,114.3v-85" class="g0_769"/>
<path d="M760.2,330.5h34.7" class="g1_769"/>
<path d="M805.4,330.5h241.2" class="g2_769"/>
<path d="M656.1,383.7V354.5m0,102.3V383.7" class="g0_769"/>
<path d="M805,442.9h201.8" class="g3_769"/>
<path d="M1012.9,442.9h33.7" class="g4_769"/>
<path d="M656.1,486V456.8m0,58.4V486m0,114.2v-85" class="g0_769"/>
<path d="M669.7,550.5V538.2c0,-2.8,2.3,-5.1,5.2,-5.1h72.9c2.9,0,5.2,2.3,5.2,5.1v12.3c0,2.8,-2.3,5.1,-5.2,5.1H674.9c-2.9,0,-5.2,-2.3,-5.2,-5.1Z" class="g5_769"/>
<path d="M667.1,576.2h88.5" class="g1_769"/>
<path d="M766.1,576.2h280.5" class="g6_769"/>
<path d="M656.1,629.5V600.2M193,629.8h864.6m-864.6,0h864.6" class="g0_769"/>
</svg>