<?xml version="1.0" encoding="UTF-8" standalone="no"?>
<!DOCTYPE svg PUBLIC "-//W3C//DTD SVG 1.1//EN"
"http://www.w3.org/Graphics/SVG/1.1/DTD/svg11.dtd">
<svg viewBox="0 0 1286 909" version="1.1" xmlns="http://www.w3.org/2000/svg" xmlns:xlink="http://www.w3.org/1999/xlink">
<defs>
<style type="text/css"><![CDATA[
.g0_389{
fill: none;
stroke: #000000;
stroke-width: 0.73;
stroke-linecap: butt;
stroke-linejoin: miter;
}
.g1_389{
fill: #B3E9FA;
}
.g2_389{
fill: none;
stroke: #02B5EE;
stroke-width: 1.262;
stroke-linecap: butt;
stroke-linejoin: miter;
}
.g3_389{
fill: none;
stroke: #5EE200;
stroke-width: 1.262;
stroke-linecap: butt;
stroke-linejoin: miter;
}
]]></style>
</defs>
<path d="M193,83.4h900.3M193,111.6H929.8m-736.8,0H929.8M489.9,141.2V112m0,114.3V141.2" class="g0_389"/>
<path d="M671.5,182.8V164.3c0,-2.9,2.3,-5.2,5.2,-5.2h97.4c2.9,0,5.2,2.3,5.2,5.2v18.5c0,2.9,-2.3,5.2,-5.2,5.2H676.7c-2.9,0,-5.2,-2.3,-5.2,-5.2Z" class="g1_389"/>
<path d="M668.9,202.3h113" class="g2_389"/>
<path d="M792.4,202.3H918.9" class="g3_389"/>
<path d="M489.9,255.5V226.3M193,255.9H929.8m-736.8,0H929.8" class="g0_389"/>
</svg>