<?xml version="1.0" encoding="UTF-8" standalone="no"?>
<!DOCTYPE svg PUBLIC "-//W3C//DTD SVG 1.1//EN"
"http://www.w3.org/Graphics/SVG/1.1/DTD/svg11.dtd">
<svg viewBox="0 0 1286 909" version="1.1" xmlns="http://www.w3.org/2000/svg" xmlns:xlink="http://www.w3.org/1999/xlink">
<defs>
<style type="text/css"><![CDATA[
.g0_395{
fill: none;
stroke: #000000;
stroke-width: 0.73;
stroke-linecap: butt;
stroke-linejoin: miter;
}
.g1_395{
fill: none;
stroke: #02B5EE;
stroke-width: 1.262;
stroke-linecap: butt;
stroke-linejoin: miter;
}
.g2_395{
fill: none;
stroke: #5EE200;
stroke-width: 1.262;
stroke-linecap: butt;
stroke-linejoin: miter;
}
.g3_395{
fill: none;
stroke: #5EE200;
stroke-width: 0.73;
stroke-linecap: butt;
stroke-linejoin: miter;
}
.g4_395{
fill: none;
stroke: #02B5EE;
stroke-width: 0.73;
stroke-linecap: butt;
stroke-linejoin: miter;
}
.g5_395{
fill: none;
stroke: #FFA313;
stroke-width: 1.262;
stroke-linecap: butt;
stroke-linejoin: miter;
}
.g6_395{
fill: none;
stroke: #FFA313;
stroke-width: 0.73;
stroke-linecap: butt;
stroke-linejoin: miter;
}
]]></style>
</defs>
<path d="M193,83.4h900.3M193,210.6H817.6m-624.6,0H817.6M428,240.2V211m0,58.5V240.2m0,114.3v-85" class="g0_395"/>
<path d="M622.4,330.5H773.7" class="g1_395"/>
<path d="M784.2,330.5h22.4" class="g2_395"/>
<path d="M428,383.7V354.5m0,102.3V383.7" class="g0_395"/>
<path d="M438.9,442.9H570.2" class="g3_395"/>
<path d="M570.2,442.9H806.6" class="g4_395"/>
<path d="M428,486V456.8m0,58.4V486m0,114.2v-85" class="g0_395"/>
<path d="M581.3,576.2h81" class="g1_395"/>
<path d="M672.8,576.2H806.6" class="g5_395"/>
<path d="M428,630.4V600.2m0,103.3V630.4" class="g0_395"/>
<path d="M539.4,689.6h46.9" class="g4_395"/>
<path d="M592.4,689.6h55" class="g3_395"/>
<path d="M653.5,689.6H768.3" class="g6_395"/>
<path d="M428,732.7V703.5M193,733.1H817.6m-624.6,0H817.6" class="g0_395"/>
</svg>