<?xml version="1.0" encoding="UTF-8" standalone="no"?>
<!DOCTYPE svg PUBLIC "-//W3C//DTD SVG 1.1//EN"
"http://www.w3.org/Graphics/SVG/1.1/DTD/svg11.dtd">
<svg viewBox="0 0 1286 909" version="1.1" xmlns="http://www.w3.org/2000/svg" xmlns:xlink="http://www.w3.org/1999/xlink">
<defs>
<style type="text/css"><![CDATA[
.g0_525{
fill: none;
stroke: #000000;
stroke-width: 0.73;
stroke-linecap: butt;
stroke-linejoin: miter;
}
.g1_525{
fill: #B3E9FA;
}
.g2_525{
fill: none;
stroke: #02B5EE;
stroke-width: 1.262;
stroke-linecap: butt;
stroke-linejoin: miter;
}
.g3_525{
fill: none;
stroke: #5EE200;
stroke-width: 1.262;
stroke-linecap: butt;
stroke-linejoin: miter;
}
.g4_525{
fill: none;
stroke: #FFA313;
stroke-width: 1.262;
stroke-linecap: butt;
stroke-linejoin: miter;
}
]]></style>
</defs>
<path d="M193,83.4h900.3M193,210.6H913.6m-720.6,0H913.6M545.9,240.2V211m0,58.5V240.2m0,59.4V269.5m0,59.3V299.6m0,58.5V328.8m0,59.4V358.1m0,59.4V388.2m0,58.5V417.5m0,114.2v-85" class="g0_525"/>
<path d="M559.4,481.9V469.7c0,-2.8,2.3,-5.2,5.2,-5.2H664.8c2.8,0,5.2,2.4,5.2,5.2v12.2c0,2.9,-2.4,5.2,-5.2,5.2H564.6c-2.9,0,-5.2,-2.3,-5.2,-5.2Z" class="g1_525"/>
<path d="M556.8,507.7H672.6" class="g2_525"/>
<path d="M683.1,507.7H902.6" class="g3_525"/>
<path d="M545.9,560.9V531.7m0,58.5V560.9m0,114.3v-85" class="g0_525"/>
<path d="M647,651.2h34.7" class="g2_525"/>
<path d="M692.2,651.2H902.6" class="g4_525"/>
<path d="M545.9,704.4V675.2m0,58.4V704.4M193,734H913.6M193,734H913.6" class="g0_525"/>
</svg>