<?xml version="1.0" encoding="UTF-8" standalone="no"?>
<!DOCTYPE svg PUBLIC "-//W3C//DTD SVG 1.1//EN"
"http://www.w3.org/Graphics/SVG/1.1/DTD/svg11.dtd">
<svg viewBox="0 0 1286 909" version="1.1" xmlns="http://www.w3.org/2000/svg" xmlns:xlink="http://www.w3.org/1999/xlink">
<defs>
<style type="text/css"><![CDATA[
.g0_614{
fill: none;
stroke: #000000;
stroke-width: 0.73;
stroke-linecap: butt;
stroke-linejoin: miter;
}
.g1_614{
fill: none;
stroke: #02B5EE;
stroke-width: 1.262;
stroke-linecap: butt;
stroke-linejoin: miter;
}
.g2_614{
fill: none;
stroke: #FFA313;
stroke-width: 1.262;
stroke-linecap: butt;
stroke-linejoin: miter;
}
.g3_614{
fill: none;
stroke: #FFA313;
stroke-width: 0.73;
stroke-linecap: butt;
stroke-linejoin: miter;
}
.g4_614{
fill: none;
stroke: #02B5EE;
stroke-width: 0.73;
stroke-linecap: butt;
stroke-linejoin: miter;
}
.g5_614{
fill: #B3E9FA;
}
.g6_614{
fill: none;
stroke: #5EE200;
stroke-width: 1.262;
stroke-linecap: butt;
stroke-linejoin: miter;
}
]]></style>
</defs>
<path d="M193,83.4h900.3M193,111.6H893.5m-700.5,0H893.5m-394,29.6V112m0,58.5V141.2m0,114.3v-85" class="g0_614"/>
<path d="M645.2,231.5h34.6" class="g1_614"/>
<path d="M690.3,231.5H882.5" class="g2_614"/>
<path d="M499.5,284.7V255.5m0,102.3V284.7" class="g0_614"/>
<path d="M647.7,343.9H842.6" class="g3_614"/>
<path d="M848.7,343.9h33.8" class="g4_614"/>
<path d="M499.5,387V357.8m0,58.4V387m0,114.2v-85" class="g0_614"/>
<path d="M592.6,451.5V439.3c0,-2.9,2.4,-5.2,5.2,-5.2H721.2c2.9,0,5.2,2.3,5.2,5.2v12.2c0,2.8,-2.3,5.2,-5.2,5.2H597.8c-2.8,0,-5.2,-2.4,-5.2,-5.2Z" class="g5_614"/>
<path d="M590,477.3H729" class="g1_614"/>
<path d="M739.5,477.3h143" class="g6_614"/>
<path d="M499.5,530.5V501.2M193,530.8H893.5m-700.5,0H893.5" class="g0_614"/>
</svg>