<?xml version="1.0" encoding="UTF-8" standalone="no"?>
<!DOCTYPE svg PUBLIC "-//W3C//DTD SVG 1.1//EN"
"http://www.w3.org/Graphics/SVG/1.1/DTD/svg11.dtd">
<svg viewBox="0 0 1286 909" version="1.1" xmlns="http://www.w3.org/2000/svg" xmlns:xlink="http://www.w3.org/1999/xlink">
<defs>
<style type="text/css"><![CDATA[
.g0_386{
fill: none;
stroke: #000000;
stroke-width: 0.73;
stroke-linecap: butt;
stroke-linejoin: miter;
}
.g1_386{
fill: none;
stroke: #02B5EE;
stroke-width: 1.262;
stroke-linecap: butt;
stroke-linejoin: miter;
}
.g2_386{
fill: none;
stroke: #FFA313;
stroke-width: 1.262;
stroke-linecap: butt;
stroke-linejoin: miter;
}
.g3_386{
fill: none;
stroke: #FFA313;
stroke-width: 0.73;
stroke-linecap: butt;
stroke-linejoin: miter;
}
.g4_386{
fill: none;
stroke: #02B5EE;
stroke-width: 0.73;
stroke-linecap: butt;
stroke-linejoin: miter;
}
]]></style>
</defs>
<path d="M193,83.4h900.3M193,210.6H802.8m-609.8,0H802.8M430.3,240.2V211m0,58.5V240.2m0,60.1V269.5m0,60V300.3m0,58.4V329.5m0,114.3V358.7" class="g0_386"/>
<path d="M441.3,419.8h34.6" class="g1_386"/>
<path d="M486.4,419.8H791.9" class="g2_386"/>
<path d="M430.3,473V443.8m0,102.3V473" class="g0_386"/>
<path d="M622.3,532.2H758.1" class="g3_386"/>
<path d="M758.1,532.2h33.8" class="g4_386"/>
<path d="M430.3,575.3V546.1m0,58.4V575.3m0,114.2v-85" class="g0_386"/>
<path d="M482.3,665.5h34.6" class="g1_386"/>
<path d="M527.5,665.5H660.9" class="g2_386"/>
<path d="M430.3,718.7V689.5m0,58.5V718.7M193,748.3H802.8m-609.8,0H802.8" class="g0_386"/>
</svg>