<?xml version="1.0" encoding="UTF-8" standalone="no"?>
<!DOCTYPE svg PUBLIC "-//W3C//DTD SVG 1.1//EN"
"http://www.w3.org/Graphics/SVG/1.1/DTD/svg11.dtd">
<svg viewBox="0 0 909 1286" version="1.1" xmlns="http://www.w3.org/2000/svg" xmlns:xlink="http://www.w3.org/1999/xlink">
<defs>
<clipPath id="c0_74"><path d="M119.5,288.6V255.1H446.9v33.5Z"/></clipPath>
<clipPath id="c1_74"><path d="M462.5,288.6V255.1H789.9v33.5Z"/></clipPath>
<style type="text/css"><![CDATA[
.g0_74{
fill: none;
stroke: #000000;
stroke-width: 0.73;
stroke-linecap: butt;
stroke-linejoin: miter;
}
.g1_74{
fill: #7F7F7F;
fill-opacity: 0.01;
}
.g2_74{
fill: #7F7F7F;
fill-opacity: 0.02;
}
.g3_74{
fill: #7F7F7F;
fill-opacity: 0.04;
}
.g4_74{
fill: #7F7F7F;
fill-opacity: 0.07;
}
.g5_74{
fill: #7F7F7F;
fill-opacity: 0.11;
}
.g6_74{
fill: #FFFFFF;
}
.g7_74{
fill: #7F7F7F;
}
.g8_74{
fill: #00AEEF;
}
.g9_74{
fill: #CBCEFB;
}
.ga_74{
fill: #EC008C;
}
.gb_74{
fill: #E81A58;
}
.gc_74{
fill: #401A1A;
}
]]></style>
</defs>
<path d="M116.9,159.9H792.5" class="g0_74"/>
<path d="M122.2,257.8c107.4,0,214.7,0,322,0V549.2c-107.3,-9.4,-214.6,-9.4,-322,0Z" class="g1_74"/>
<path d="M122.9,258.4c106.9,0,213.8,0,320.7,0V548.6c-106.9,-9.4,-213.8,-9.4,-320.7,0Z" class="g2_74"/>
<path d="M123.5,259.1c106.5,0,213,0,319.5,0V547.9c-106.5,-9.3,-213,-9.3,-319.5,0Z" class="g3_74"/>
<path d="M124.1,259.7c106.1,0,212.2,0,318.3,0V547.3C336.3,538,230.2,538,124.1,547.3Z" class="g4_74"/>
<path d="M124.7,260.3c105.7,0,211.4,0,317,0V546.7c-105.6,-9.4,-211.3,-9.4,-317,0Z" class="g5_74"/>
<path d="M125.4,260.9c105.2,0,210.5,0,315.7,0V546.1c-105.2,-9.4,-210.5,-9.4,-315.7,0Z" class="g5_74"/>
<path d="M126,261.6c104.8,0,209.7,0,314.5,0V545.4c-104.8,-9.3,-209.7,-9.3,-314.5,0Z" class="g4_74"/>
<path d="M126.6,262.2c104.4,0,208.8,0,313.3,0V544.8c-104.5,-9.3,-208.9,-9.3,-313.3,0Z" class="g3_74"/>
<path d="M127.2,262.8c104,0,208,0,312,0V544.2c-104,-9.4,-208,-9.4,-312,0Z" class="g2_74"/>
<path d="M127.9,263.4c103.5,0,207.1,0,310.7,0V543.6c-103.6,-9.4,-207.2,-9.4,-310.7,0Z" class="g1_74"/>
<path d="M116.9,538.9V252.5H449.5V538.9Z" class="g6_74"/>
<path d="M119.5,536.3V291.2H446.9V536.3Z" class="g6_74"/>
<path d="M119.5,288.6V255.1H446.9v33.5Z" class="g7_74"/>
<g clip-path="url(#c0_74)">
<image x="119" y="254" width="329" height="34" xlink:href="shade/1.png"/>
</g>
<path d="M316.9,283.4h104V260.3h-104v23.1Z" class="g8_74"/>
<path d="M195.3,340.6H371.2M195.7,370.2V341" class="g0_74"/>
<path d="M196,370.2h62V341H196v29.2Z" class="g9_74"/>
<path d="M258.4,370.2V341" class="g0_74"/>
<path d="M258.8,370.2H319V341H258.8v29.2Z" class="g9_74"/>
<path d="M319.4,370.2V341" class="g0_74"/>
<path d="M319.8,370.2h50.6V341H319.8v29.2Z" class="g9_74"/>
<path d="M370.8,370.2V341M195.3,370.6H371.2M195.7,400.2V370.9m62.7,29.3V370.9m61,29.3V370.9m51.4,29.3V370.9M195.3,400.5H371.2M195.7,430.1V400.9m62.7,29.2V400.9m61,29.2V400.9m51.4,29.2V400.9M195.3,430.5H371.2M195.7,460.1V430.8m62.7,29.3V430.8m61,29.3V430.8m51.4,29.3V430.8M195.3,460.4H371.2M195.7,490V460.8M258.4,490V460.8m61,29.2V460.8M370.8,490V460.8M195.3,490.4H371.2M195.7,520V490.8M258.4,520V490.8m61,29.2V490.8M370.8,520V490.8M195.3,520.3H371.2" class="g0_74"/>
<path d="M465.2,257.8c107.4,0,214.7,0,322,0V442.3c-107.3,-9.3,-214.6,-9.3,-322,0Z" class="g1_74"/>
<path d="M465.8,258.4c107,0,213.9,0,320.8,0V441.7c-106.9,-9.3,-213.8,-9.3,-320.8,0Z" class="g2_74"/>
<path d="M466.5,259.1c106.5,0,213,0,319.5,0v182c-106.5,-9.4,-213,-9.4,-319.5,0Z" class="g3_74"/>
<path d="M467.1,259.7c106.1,0,212.2,0,318.2,0V440.5c-106,-9.4,-212.1,-9.4,-318.2,0Z" class="g4_74"/>
<path d="M467.7,260.3c105.7,0,211.3,0,317,0V439.8c-105.7,-9.3,-211.3,-9.3,-317,0Z" class="g5_74"/>
<path d="M468.3,260.9c105.3,0,210.5,0,315.8,0V439.2c-105.3,-9.3,-210.5,-9.3,-315.8,0Z" class="g5_74"/>
<path d="M469,261.6c104.8,0,209.6,0,314.5,0v177c-104.9,-9.4,-209.7,-9.4,-314.5,0Z" class="g4_74"/>
<path d="M469.6,262.2c104.4,0,208.8,0,313.2,0V438C678.4,428.6,574,428.6,469.6,438Z" class="g3_74"/>
<path d="M470.2,262.8c104,0,208,0,312,0V437.4c-104,-9.4,-208,-9.4,-312,0Z" class="g2_74"/>
<path d="M470.8,263.4c103.6,0,207.2,0,310.8,0V436.7c-103.6,-9.3,-207.2,-9.3,-310.8,0Z" class="g1_74"/>
<path d="M459.9,432.1V252.5H792.5V432.1Z" class="g6_74"/>
<path d="M462.5,429.5V291.2H789.9V429.5Z" class="g6_74"/>
<path d="M462.5,288.6V255.1H789.9v33.5Z" class="g7_74"/>
<g clip-path="url(#c1_74)">
<image x="462" y="254" width="329" height="34" xlink:href="shade/2.png"/>
</g>
<path d="M675.7,283.4h88.2V260.3H675.7v23.1Z" class="ga_74"/>
<path d="M538.3,323.6H714.2M538.6,353.2V324" class="g0_74"/>
<path d="M539,353.2h62V324H539v29.2Z" class="g9_74"/>
<path d="M601.4,353.2V324" class="g0_74"/>
<path d="M601.7,353.2H662V324H601.7v29.2Z" class="g9_74"/>
<path d="M662.4,353.2V324" class="g0_74"/>
<path d="M662.7,353.2h50.7V324H662.7v29.2Z" class="g9_74"/>
<path d="M713.8,353.2V324M538.3,353.6H714.2M538.6,383.2V354m62.8,29.2V354m61,29.2V354m51.4,29.2V354M538.3,383.5H714.2M538.6,413.1V383.9m62.8,29.2V383.9m61,29.2V383.9m51.4,29.2V383.9M538.3,413.5H714.2" class="g0_74"/>
<path d="M116.9,892.5V690c0,-21.6,17.6,-39.1,39.2,-39.1H792.5V853.4c0,21.6,-17.5,39.1,-39.1,39.1Z" class="gb_74"/>
<path d="M119.5,889.9V683.4H789.9v170c0,20.2,-16.3,36.5,-36.5,36.5Z" class="gc_74"/>
</svg>