<?xml version="1.0" encoding="UTF-8" standalone="no"?>
<!DOCTYPE svg PUBLIC "-//W3C//DTD SVG 1.1//EN"
"http://www.w3.org/Graphics/SVG/1.1/DTD/svg11.dtd">
<svg viewBox="0 0 1286 909" version="1.1" xmlns="http://www.w3.org/2000/svg" xmlns:xlink="http://www.w3.org/1999/xlink">
<defs>
<style type="text/css"><![CDATA[
.g0_927{
fill: none;
stroke: #000000;
stroke-width: 0.73;
stroke-linecap: butt;
stroke-linejoin: miter;
}
.g1_927{
fill: none;
stroke: #02B5EE;
stroke-width: 1.262;
stroke-linecap: butt;
stroke-linejoin: miter;
}
.g2_927{
fill: none;
stroke: #5EE200;
stroke-width: 1.262;
stroke-linecap: butt;
stroke-linejoin: miter;
}
.g3_927{
fill: none;
stroke: #5EE200;
stroke-width: 0.73;
stroke-linecap: butt;
stroke-linejoin: miter;
}
.g4_927{
fill: none;
stroke: #02B5EE;
stroke-width: 0.73;
stroke-linecap: butt;
stroke-linejoin: miter;
}
.g5_927{
fill: none;
stroke: #FFA313;
stroke-width: 1.262;
stroke-linecap: butt;
stroke-linejoin: miter;
}
]]></style>
</defs>
<path d="M193,83.4h900.3M193,210.6h900.2m-900.2,0h900.2m-383,29.6V211m0,58.5V240.2m0,59.4V269.5m0,59.3V299.6m0,58.5V328.8m0,114.3v-85" class="g0_927"/>
<path d="M825.9,419.1h92.7" class="g1_927"/>
<path d="M929.1,419.1h22.4" class="g2_927"/>
<path d="M710.2,472.3V443.1m0,102.3V472.3" class="g0_927"/>
<path d="M974.1,531.5h34.5" class="g3_927"/>
<path d="M1014.6,531.5h67.6" class="g4_927"/>
<path d="M710.2,574.6V545.4m0,58.4V574.6m0,114.3V603.8" class="g0_927"/>
<path d="M862.3,664.9h92.8" class="g1_927"/>
<path d="M965.6,664.9h18.3" class="g2_927"/>
<path d="M994.4,664.9h87.8" class="g5_927"/>
<path d="M710.2,718.1V688.9m0,58.4V718.1M193,747.7h900.2m-900.2,0h900.2" class="g0_927"/>
</svg>