<?xml version="1.0" encoding="UTF-8" standalone="no"?>
<!DOCTYPE svg PUBLIC "-//W3C//DTD SVG 1.1//EN"
"http://www.w3.org/Graphics/SVG/1.1/DTD/svg11.dtd">
<svg viewBox="0 0 909 1286" version="1.1" xmlns="http://www.w3.org/2000/svg" xmlns:xlink="http://www.w3.org/1999/xlink">
<defs>
<style type="text/css"><![CDATA[
.g0_19{
fill: none;
stroke: #000000;
stroke-width: 1.972;
stroke-linecap: butt;
stroke-linejoin: miter;
}
.g1_19{
fill: none;
stroke: #F81693;
stroke-width: 1.826;
stroke-linecap: butt;
stroke-linejoin: miter;
}
]]></style>
</defs>
<path d="M116.9,180.5H792.5m-1,166v-165m-674.6,166H792.5" class="g0_19"/>
<path d="M305.7,463.2l-78.1,46.6m78.1,-46.6l78.1,46.6M305.7,648.6L227.6,602.1m78.1,46.5l78.1,-46.5m0,-.5V510.3M227.6,601.6V510.3M461.9,463.2l-78.1,46.6m78.1,-46.6l78,46.6m-78,138.8L383.8,602.1m78.1,46.5l78,-46.5m0,-.5V510.3M618,463.2l-78.1,46.6M618,463.2l78.1,46.6m0,91.8V510.3M618,648.6l78.1,-46.5M618,648.6L539.9,602.1M620.8,482.4l57.5,34.3M620.8,629.5l57.5,-34.3M464.6,629.5L407.1,595.2M464.6,482.4l-57.5,34.3M302.9,629.5L245.4,595.2M302.9,482.4l-57.5,34.3m308.7,73V522.2" class="g1_19"/>
</svg>