<?xml version="1.0" encoding="UTF-8" standalone="no"?>
<!DOCTYPE svg PUBLIC "-//W3C//DTD SVG 1.1//EN"
"http://www.w3.org/Graphics/SVG/1.1/DTD/svg11.dtd">
<svg viewBox="0 0 909 1286" version="1.1" xmlns="http://www.w3.org/2000/svg" xmlns:xlink="http://www.w3.org/1999/xlink">
<defs>
<style type="text/css"><![CDATA[
.g0_97{
fill: none;
stroke: #000000;
stroke-width: 0.73;
stroke-linecap: butt;
stroke-linejoin: miter;
}
.g1_97{
fill: #FDE8E9;
}
]]></style>
</defs>
<path d="M116.9,159.9H792.5" class="g0_97"/>
<path d="M116.9,351H296.8V323.1H116.9V351Z" class="g1_97"/>
<path d="M235.2,482.5h146V454.6h-146v27.9Z" class="g1_97"/>
<path d="M167.6,512.2H279.9V484.3H167.6v27.9Z" class="g1_97"/>
<path d="M235.2,541.8h44.7V514H235.2v27.8Z" class="g1_97"/>
<path d="M167.6,569h51.8V545.3H167.6V569Z" class="g1_97"/>
<path d="M235.2,600.3h95.4V572.4H235.2v27.9Z" class="g1_97"/>
<path d="M235.2,630H347.5V602.1H235.2V630Z" class="g1_97"/>
<path d="M116.9,732.2H229.2V704.4H116.9v27.8Z" class="g1_97"/>
<path d="M319.6,834.5h61.6V806.7H319.6v27.8Z" class="g1_97"/>
<path d="M218.3,864.2H330.6V836.3H218.3v27.9Z" class="g1_97"/>
<path d="M319.6,893.9h78.5V866H319.6v27.9Z" class="g1_97"/>
<path d="M268.9,938.2H499.5V910.3H268.9v27.9Z" class="g1_97"/>
<path d="M474.9,997.1h44.8V969.2H474.9v27.9Z" class="g1_97"/>
<path d="M150.7,1026.7H296.8V998.9H150.7v27.8Z" class="g1_97"/>
</svg>