<?xml version="1.0" encoding="UTF-8" standalone="no"?>
<!DOCTYPE svg PUBLIC "-//W3C//DTD SVG 1.1//EN"
"http://www.w3.org/Graphics/SVG/1.1/DTD/svg11.dtd">
<svg viewBox="0 0 1286 909" version="1.1" xmlns="http://www.w3.org/2000/svg" xmlns:xlink="http://www.w3.org/1999/xlink">
<defs>
<style type="text/css"><![CDATA[
.g0_259{
fill: none;
stroke: #000000;
stroke-width: 0.73;
stroke-linecap: butt;
stroke-linejoin: miter;
}
.g1_259{
fill: none;
stroke: #02B5EE;
stroke-width: 1.262;
stroke-linecap: butt;
stroke-linejoin: miter;
}
.g2_259{
fill: none;
stroke: #5EE200;
stroke-width: 1.262;
stroke-linecap: butt;
stroke-linejoin: miter;
}
.g3_259{
fill: none;
stroke: #5EE200;
stroke-width: 0.73;
stroke-linecap: butt;
stroke-linejoin: miter;
}
.g4_259{
fill: none;
stroke: #02B5EE;
stroke-width: 0.73;
stroke-linecap: butt;
stroke-linejoin: miter;
}
]]></style>
</defs>
<path d="M193,83.4h900.3M193,210.6h956.7m-956.7,0h956.7M646.9,240.2V211m0,58.5V240.2m0,114.3v-85" class="g0_259"/>
<path d="M818,330.5H949.6" class="g1_259"/>
<path d="M960.1,330.5h22.2" class="g2_259"/>
<path d="M646.9,383.7V354.5m0,102.3V383.7" class="g0_259"/>
<path d="M1036.9,442.9h34.3" class="g3_259"/>
<path d="M1071.2,442.9h67.5" class="g4_259"/>
<path d="M646.9,486V456.8m0,58.4V486m0,114.2v-85" class="g0_259"/>
<path d="M896.1,576.2h53.5" class="g1_259"/>
<path d="M960.1,576.2h22.2" class="g2_259"/>
<path d="M646.9,629.5V600.2m0,102.3v-73" class="g0_259"/>
<path d="M986.2,688.6h34.3" class="g3_259"/>
<path d="M1020.5,688.6h118.2" class="g4_259"/>
<path d="M646.9,731.7V702.5m0,58.5V731.7M193,761.3h956.7m-956.7,0h956.7" class="g0_259"/>
</svg>