<?xml version="1.0" encoding="UTF-8" standalone="no"?>
<!DOCTYPE svg PUBLIC "-//W3C//DTD SVG 1.1//EN"
"http://www.w3.org/Graphics/SVG/1.1/DTD/svg11.dtd">
<svg viewBox="0 0 1286 909" version="1.1" xmlns="http://www.w3.org/2000/svg" xmlns:xlink="http://www.w3.org/1999/xlink">
<defs>
<style type="text/css"><![CDATA[
.g0_918{
fill: none;
stroke: #000000;
stroke-width: 0.73;
stroke-linecap: butt;
stroke-linejoin: miter;
}
.g1_918{
fill: #B3E9FA;
}
.g2_918{
fill: none;
stroke: #02B5EE;
stroke-width: 1.262;
stroke-linecap: butt;
stroke-linejoin: miter;
}
.g3_918{
fill: none;
stroke: #5EE200;
stroke-width: 1.262;
stroke-linecap: butt;
stroke-linejoin: miter;
}
]]></style>
</defs>
<path d="M193,83.4h900.3M193,210.6H819.3m-626.3,0H819.3M500.4,240.2V211m0,58.5V240.2m0,114.3v-85" class="g0_918"/>
<path d="M514,311V292.5c0,-2.9,2.3,-5.2,5.2,-5.2H645.5c2.9,0,5.2,2.3,5.2,5.2V311c0,2.9,-2.3,5.2,-5.2,5.2H519.2c-2.9,0,-5.2,-2.3,-5.2,-5.2Z" class="g1_918"/>
<path d="M511.4,330.5H653.3" class="g2_918"/>
<path d="M663.8,330.5H808.3" class="g3_918"/>
<path d="M500.4,383.7V354.5m0,58.4V383.7m0,114.3V412.9" class="g0_918"/>
<path d="M549.7,454.5V436c0,-2.9,2.4,-5.2,5.2,-5.2h90.6c2.9,0,5.2,2.3,5.2,5.2v18.5c0,2.9,-2.3,5.2,-5.2,5.2H554.9c-2.8,0,-5.2,-2.3,-5.2,-5.2Z" class="g1_918"/>
<path d="M547.1,474H653.3" class="g2_918"/>
<path d="M663.8,474H808.3" class="g3_918"/>
<path d="M500.4,527.2V498m0,58.4V527.2m0,114.2v-85" class="g0_918"/>
<path d="M542.7,591.6V579.4c0,-2.8,2.3,-5.2,5.2,-5.2h97.6c2.9,0,5.2,2.4,5.2,5.2v12.2c0,2.9,-2.3,5.2,-5.2,5.2H547.9c-2.9,0,-5.2,-2.3,-5.2,-5.2Z" class="g1_918"/>
<path d="M540.1,617.4H653.3" class="g2_918"/>
<path d="M663.8,617.4H808.3" class="g3_918"/>
<path d="M500.4,670.6V641.4M193,671H819.3M193,671H819.3" class="g0_918"/>
</svg>