<?xml version="1.0" encoding="UTF-8" standalone="no"?>
<!DOCTYPE svg PUBLIC "-//W3C//DTD SVG 1.1//EN"
"http://www.w3.org/Graphics/SVG/1.1/DTD/svg11.dtd">
<svg viewBox="0 0 1286 909" version="1.1" xmlns="http://www.w3.org/2000/svg" xmlns:xlink="http://www.w3.org/1999/xlink">
<defs>
<style type="text/css"><![CDATA[
.g0_74{
fill: none;
stroke: #000000;
stroke-width: 0.73;
stroke-linecap: butt;
stroke-linejoin: miter;
}
.g1_74{
fill: none;
stroke: #02B5EE;
stroke-width: 1.262;
stroke-linecap: butt;
stroke-linejoin: miter;
}
.g2_74{
fill: none;
stroke: #5EE200;
stroke-width: 1.262;
stroke-linecap: butt;
stroke-linejoin: miter;
}
.g3_74{
fill: none;
stroke: #5EE200;
stroke-width: 0.73;
stroke-linecap: butt;
stroke-linejoin: miter;
}
.g4_74{
fill: #B3E9FA;
}
]]></style>
</defs>
<path d="M193,83.4h900.3M193,111.6h832.7m-832.7,0h832.7M614.9,141.2V112m0,114.3V141.2" class="g0_74"/>
<path d="M765.9,202.3h111" class="g1_74"/>
<path d="M992.3,202.3h22.4" class="g2_74"/>
<path d="M614.9,255.5V226.3m0,102.2v-73" class="g0_74"/>
<path d="M625.9,314.7h34.4" class="g3_74"/>
<path d="M614.9,359.9V328.5m0,60.6V359.9m0,58.4V389.1m0,114.2v-85" class="g0_74"/>
<path d="M734.6,459.9V441.4c0,-2.9,2.3,-5.2,5.2,-5.2H855.9c2.9,0,5.2,2.3,5.2,5.2v18.5c0,2.8,-2.3,5.2,-5.2,5.2H739.8c-2.9,0,-5.2,-2.4,-5.2,-5.2Z" class="g4_74"/>
<path d="M732,479.4H863.7" class="g1_74"/>
<path d="M874.2,479.4h140.5" class="g2_74"/>
<path d="M614.9,532.6V503.3m0,58.5V532.6m0,114.2v-85" class="g0_74"/>
<path d="M688.1,597V584.8c0,-2.8,2.3,-5.2,5.2,-5.2h77.4c2.9,0,5.2,2.4,5.2,5.2V597c0,2.9,-2.3,5.2,-5.2,5.2H693.3c-2.9,0,-5.2,-2.3,-5.2,-5.2Z" class="g4_74"/>
<path d="M685.5,622.8h93" class="g1_74"/>
<path d="M789,622.8h225.7" class="g2_74"/>
<path d="M614.9,676V646.8m0,58.5V676m0,58.5V705.3M193,734.9h832.7m-832.7,0h832.7" class="g0_74"/>
</svg>