<?xml version="1.0" encoding="UTF-8" standalone="no"?>
<!DOCTYPE svg PUBLIC "-//W3C//DTD SVG 1.1//EN"
"http://www.w3.org/Graphics/SVG/1.1/DTD/svg11.dtd">
<svg viewBox="0 0 1286 909" version="1.1" xmlns="http://www.w3.org/2000/svg" xmlns:xlink="http://www.w3.org/1999/xlink">
<defs>
<style type="text/css"><![CDATA[
.g0_1222{
fill: none;
stroke: #000000;
stroke-width: 0.73;
stroke-linecap: butt;
stroke-linejoin: miter;
}
.g1_1222{
fill: #FDE8E9;
}
]]></style>
</defs>
<path d="M193,83.4h900.3M203.9,109.5H448.8M203.9,139.1V109.9m94.9,29.2V109.9m150,29.2V109.9M203.9,173.7V139.1m94.9,34.6V139.1" class="g0_1222"/>
<path d="M309.8,173.7h128V139.1h-128v34.6Z" class="g1_1222"/>
<path d="M448.8,173.7V139.1M203.9,203V173.7M298.8,203V173.7m150,29.3V173.7M203.9,232.2V203m94.9,29.2V203m150,29.2V203M203.9,264.8V232.2m94.9,32.6V232.2" class="g0_1222"/>
<path d="M309.8,261.5h80.3V232.2H309.8v29.3Z" class="g1_1222"/>
<path d="M448.8,264.8V232.2M203.9,294V264.8M298.8,294V264.8m150,29.2V264.8M203.9,323.3V294m94.9,29.3V294m150,29.3V294M203.9,355.9V323.3m94.9,32.6V323.3" class="g0_1222"/>
<path d="M309.8,352.6h82V323.3h-82v29.3Z" class="g1_1222"/>
<path d="M448.8,355.9V323.3M203.9,385.1V355.9m94.9,29.2V355.9m150,29.2V355.9M203.9,414.4V385.1m94.9,29.3V385.1m150,29.3V385.1M203.9,449V414.4M298.8,449V414.4" class="g0_1222"/>
<path d="M309.8,449H437.6V414.4H309.8V449Z" class="g1_1222"/>
<path d="M448.8,449V414.4M203.9,478.2V449m94.9,29.2V449m150,29.2V449M203.9,507.4V478.2m94.9,29.2V478.2m150,29.2V478.2M203.9,539.6V507.4m94.9,32.2V507.4" class="g0_1222"/>
<path d="M309.8,539.6H379V511H309.8v28.6Z" class="g1_1222"/>
<path d="M448.8,539.6V507.4M203.9,568.8V539.6m94.9,29.2V539.6m150,29.2V539.6M203.9,598V568.8M298.8,598V568.8m150,29.2V568.8M203.9,630.7V598m94.9,32.7V598" class="g0_1222"/>
<path d="M309.8,627.4h95.3V598H309.8v29.4Z" class="g1_1222"/>
<path d="M448.8,630.7V598M203.9,659.9V630.7m94.9,29.2V630.7m150,29.2V630.7M203.9,689.1V659.9m94.9,29.2V659.9m150,29.2V659.9M203.9,721.8V689.1m94.9,32.7V689.1" class="g0_1222"/>
<path d="M309.8,718.5h80.1V689.1H309.8v29.4Z" class="g1_1222"/>
<path d="M448.8,721.8V689.1M203.9,751V721.8M298.8,751V721.8m150,29.2V721.8M203.9,751.3H448.8M470.7,111.5h258m-258,29.6V111.9m70.5,29.2V111.9m187.5,29.2V111.9m-258,61.8V141.1m70.5,32.6V141.1" class="g0_1222"/>
<path d="M552.2,170.4H673.6V141.1H552.2v29.3Z" class="g1_1222"/>
<path d="M728.7,173.7V141.1M470.7,203V173.7M541.2,203V173.7M728.7,203V173.7m-258,58.5V203m70.5,29.2V203m187.5,29.2V203m-258,61.8V232.2m70.5,32.6V232.2" class="g0_1222"/>
<path d="M552.2,261.5h52.1V232.2H552.2v29.3Z" class="g1_1222"/>
<path d="M728.7,264.8V232.2M470.7,294V264.8M541.2,294V264.8M728.7,294V264.8m-258,58.5V294m70.5,29.3V294m187.5,29.3V294m-258,61.9V323.3m70.5,32.6V323.3" class="g0_1222"/>
<path d="M552.2,352.6h74.5V323.3H552.2v29.3Z" class="g1_1222"/>
<path d="M728.7,355.9V323.3m-258,61.8V355.9m70.5,29.2V355.9m187.5,29.2V355.9m-258,58.5V385.1m70.5,29.3V385.1m187.5,29.3V385.1m-258,61.4V414.4m70.5,32.1V414.4" class="g0_1222"/>
<path d="M552.2,446.5H717.7V417.9H552.2v28.6Z" class="g1_1222"/>
<path d="M728.7,446.5V414.4m-258,61.3V446.5m70.5,29.2V446.5m187.5,29.2V446.5M470.7,505V475.7M541.2,505V475.7M728.7,505V475.7m-258,61.9V505m70.5,32.6V505" class="g0_1222"/>
<path d="M552.2,534.3H629V505H552.2v29.3Z" class="g1_1222"/>
<path d="M728.7,537.6V505m-258,61.8V537.6m70.5,29.2V537.6m187.5,29.2V537.6M470.7,596V566.8M541.2,596V566.8M728.7,596V566.8m-258,61.9V596m70.5,32.7V596" class="g0_1222"/>
<path d="M552.2,625.4H671.9V596H552.2v29.4Z" class="g1_1222"/>
<path d="M728.7,628.7V596m-258,61.9V628.7m70.5,29.2V628.7m187.5,29.2V628.7m-258,58.4V657.9m70.5,29.2V657.9m187.5,29.2V657.9m-258,61.9V687.1m70.5,32.7V687.1" class="g0_1222"/>
<path d="M552.2,716.5H661V687.1H552.2v29.4Z" class="g1_1222"/>
<path d="M728.7,719.8V687.1M470.7,749V719.8M541.2,749V719.8M728.7,749V719.8m-258,29.6h258M750.6,110.8H1038M750.6,140.4V111.1m119.2,29.3V111.1M1038,140.4V111.1M750.6,173V140.4M869.8,173V140.4" class="g0_1222"/>
<path d="M880.8,169.7H992V140.4H880.8v29.3Z" class="g1_1222"/>
<path d="M1038,173V140.4M750.6,202.2V173m119.2,29.2V173M1038,202.2V173M750.6,231.4V202.2m119.2,29.2V202.2M1038,231.4V202.2M750.6,264.1V231.4m119.2,32.7V231.4" class="g0_1222"/>
<path d="M880.8,260.8h74.4V231.4H880.8v29.4Z" class="g1_1222"/>
<path d="M1038,264.1V231.4M750.6,293.3V264.1m119.2,29.2V264.1M1038,293.3V264.1M750.6,322.5V293.3m119.2,29.2V293.3M1038,322.5V293.3M750.6,357.2V322.5m119.2,34.7V322.5" class="g0_1222"/>
<path d="M880.8,357.2h103V322.5h-103v34.7Z" class="g1_1222"/>
<path d="M1038,357.2V322.5M750.6,386.4V357.2m119.2,29.2V357.2M1038,386.4V357.2M750.6,415.6V386.4m119.2,29.2V386.4M1038,415.6V386.4M750.6,445.8V415.6m119.2,30.2V415.6" class="g0_1222"/>
<path d="M880.8,442.5h62V419.2h-62v23.3Z" class="g1_1222"/>
<path d="M1038,445.8V415.6M750.6,475V445.8M869.8,475V445.8M1038,475V445.8M750.6,504.2V475m119.2,29.2V475M1038,504.2V475M750.6,536.9V504.2m119.2,32.7V504.2" class="g0_1222"/>
<path d="M880.8,533.6h68.3V504.2H880.8v29.4Z" class="g1_1222"/>
<path d="M1038,536.9V504.2M750.6,566.1V536.9m119.2,29.2V536.9M1038,566.1V536.9M750.6,595.3V566.1m119.2,29.2V566.1M1038,595.3V566.1M750.6,629.9V595.3m119.2,34.6V595.3" class="g0_1222"/>
<path d="M880.8,629.9h144.1V595.3H880.8v34.6Z" class="g1_1222"/>
<path d="M1038,629.9V595.3M750.6,659.2V629.9m119.2,29.3V629.9M1038,659.2V629.9M750.6,688.4V659.2m119.2,29.2V659.2M1038,688.4V659.2M750.6,720.5V688.4m119.2,32.1V688.4" class="g0_1222"/>
<path d="M880.8,720.5H1027V691.9H880.8v28.6Z" class="g1_1222"/>
<path d="M1038,720.5V688.4M750.6,749.7V720.5m119.2,29.2V720.5M1038,749.7V720.5M750.6,750.1H1038" class="g0_1222"/>
</svg>