<?xml version="1.0" encoding="UTF-8" standalone="no"?>
<!DOCTYPE svg PUBLIC "-//W3C//DTD SVG 1.1//EN"
"http://www.w3.org/Graphics/SVG/1.1/DTD/svg11.dtd">
<svg viewBox="0 0 1286 909" version="1.1" xmlns="http://www.w3.org/2000/svg" xmlns:xlink="http://www.w3.org/1999/xlink">
<defs>
<style type="text/css"><![CDATA[
.g0_882{
fill: none;
stroke: #000000;
stroke-width: 0.73;
stroke-linecap: butt;
stroke-linejoin: miter;
}
.g1_882{
fill: #B3E9FA;
}
.g2_882{
fill: none;
stroke: #02B5EE;
stroke-width: 1.262;
stroke-linecap: butt;
stroke-linejoin: miter;
}
.g3_882{
fill: none;
stroke: #5EE200;
stroke-width: 1.262;
stroke-linecap: butt;
stroke-linejoin: miter;
}
]]></style>
</defs>
<path d="M193,83.4h900.3M193,111.6H891.4m-698.4,0H891.4M530.5,141.2V112m0,58.5V141.2m0,114.3v-85" class="g0_882"/>
<path d="M615.1,212V200.7c0,-2.8,2.4,-5.2,5.2,-5.2h90.8c2.8,0,5.2,2.4,5.2,5.2V212c0,2.9,-2.4,5.2,-5.2,5.2H620.3c-2.8,0,-5.2,-2.3,-5.2,-5.2Z" class="g1_882"/>
<path d="M612.5,231.5H718.9" class="g2_882"/>
<path d="M729.4,231.5h151" class="g3_882"/>
<path d="M530.5,284.7V255.5m0,58.4V284.7m0,114.3V313.9" class="g0_882"/>
<path d="M607.7,349.2V337c0,-2.9,2.4,-5.2,5.2,-5.2H723.8c2.9,0,5.2,2.3,5.2,5.2v12.2c0,2.8,-2.3,5.2,-5.2,5.2H612.9c-2.8,0,-5.2,-2.4,-5.2,-5.2Z" class="g1_882"/>
<path d="M605.1,375H731.6" class="g2_882"/>
<path d="M742.1,375H880.4" class="g3_882"/>
<path d="M530.5,428.2V399m0,58.4V428.2m0,114.2v-85" class="g0_882"/>
<path d="M612.9,492.7V480.4c0,-2.8,2.3,-5.1,5.2,-5.1H721.6c2.9,0,5.2,2.3,5.2,5.1v12.3c0,2.8,-2.3,5.1,-5.2,5.1H618.1c-2.9,0,-5.2,-2.3,-5.2,-5.1Z" class="g1_882"/>
<path d="M610.3,518.4H729.4" class="g2_882"/>
<path d="M739.9,518.4H880.4" class="g3_882"/>
<path d="M530.5,571.7V542.4M193,572H891.4M193,572H891.4" class="g0_882"/>
</svg>