<?xml version="1.0" encoding="UTF-8" standalone="no"?>
<!DOCTYPE svg PUBLIC "-//W3C//DTD SVG 1.1//EN"
"http://www.w3.org/Graphics/SVG/1.1/DTD/svg11.dtd">
<svg viewBox="0 0 1286 909" version="1.1" xmlns="http://www.w3.org/2000/svg" xmlns:xlink="http://www.w3.org/1999/xlink">
<defs>
<style type="text/css"><![CDATA[
.g0_1229{
fill: none;
stroke: #000000;
stroke-width: 0.73;
stroke-linecap: butt;
stroke-linejoin: miter;
}
.g1_1229{
fill: #FDE8E9;
}
]]></style>
</defs>
<path d="M193,83.4h900.3M203.9,109.5H425.6M203.9,139.1V109.9m70.6,29.2V109.9m151.1,29.2V109.9M203.9,171.8V139.1m70.6,32.7V139.1" class="g0_1229"/>
<path d="M285.4,168.5H414.6V139.1H285.4v29.4Z" class="g1_1229"/>
<path d="M425.6,171.8V139.1M203.9,201V171.8M274.5,201V171.8M425.6,201V171.8M203.9,230.2V201m70.6,29.2V201m151.1,29.2V201M203.9,262.9V230.2m70.6,32.7V230.2" class="g0_1229"/>
<path d="M285.4,259.6h73V230.2h-73v29.4Z" class="g1_1229"/>
<path d="M425.6,262.9V230.2M203.9,292.1V262.9m70.6,29.2V262.9m151.1,29.2V262.9M203.9,321.3V292.1m70.6,29.2V292.1m151.1,29.2V292.1M203.9,353.9V321.3m70.6,32.6V321.3" class="g0_1229"/>
<path d="M285.4,350.7h92.7V321.3H285.4v29.4Z" class="g1_1229"/>
<path d="M425.6,353.9V321.3M203.9,383.2V353.9m70.6,29.3V353.9m151.1,29.3V353.9M203.9,412.4V383.2m70.6,29.2V383.2m151.1,29.2V383.2M203.9,445V412.4M274.5,445V412.4" class="g0_1229"/>
<path d="M285.4,441.7h97.5V412.4H285.4v29.3Z" class="g1_1229"/>
<path d="M425.6,445V412.4M203.9,474.3V445m70.6,29.3V445m151.1,29.3V445M203.9,503.5V474.3m70.6,29.2V474.3m151.1,29.2V474.3M203.9,538.1V503.5m70.6,34.6V503.5" class="g0_1229"/>
<path d="M285.4,538.1h91.2V503.5H285.4v34.6Z" class="g1_1229"/>
<path d="M425.6,538.1V503.5M203.9,567.3V538.1m70.6,29.2V538.1m151.1,29.2V538.1M203.9,596.5V567.3m70.6,29.2V567.3m151.1,29.2V567.3M203.9,631.2V596.5m70.6,34.7V596.5" class="g0_1229"/>
<path d="M285.4,631.2h97.1V596.5H285.4v34.7Z" class="g1_1229"/>
<path d="M425.6,631.2V596.5M203.9,660.4V631.2m70.6,29.2V631.2m151.1,29.2V631.2M203.9,689.6V660.4m70.6,29.2V660.4m151.1,29.2V660.4M203.9,722.3V689.6m70.6,32.7V689.6" class="g0_1229"/>
<path d="M285.4,719h95.2V689.6H285.4V719Z" class="g1_1229"/>
<path d="M425.6,722.3V689.6M203.9,751.5V722.3m70.6,29.2V722.3m151.1,29.2V722.3M203.9,751.8H425.6m21.9,-642H721.2M447.5,139.4V110.1m94.9,29.3V110.1m178.8,29.3V110.1M447.5,172V139.4M542.4,172V139.4" class="g0_1229"/>
<path d="M553.3,168.7h157V139.4h-157v29.3Z" class="g1_1229"/>
<path d="M721.2,172V139.4M447.5,201.2V172m94.9,29.2V172m178.8,29.2V172M447.5,230.5V201.2m94.9,29.3V201.2m178.8,29.3V201.2M447.5,265.1V230.5m94.9,34.6V230.5" class="g0_1229"/>
<path d="M553.3,265.1H653.8V230.5H553.3v34.6Z" class="g1_1229"/>
<path d="M721.2,265.1V230.5M447.5,294.3V265.1m94.9,29.2V265.1m178.8,29.2V265.1M447.5,323.5V294.3m94.9,29.2V294.3m178.8,29.2V294.3M447.5,358.1V323.5m94.9,34.6V323.5" class="g0_1229"/>
<path d="M553.3,358.1h68.2V323.5H553.3v34.6Z" class="g1_1229"/>
<path d="M721.2,358.1V323.5M447.5,387.4V358.1m94.9,29.3V358.1m178.8,29.3V358.1M447.5,416.6V387.4m94.9,29.2V387.4m178.8,29.2V387.4M447.5,449.2V416.6m94.9,32.6V416.6" class="g0_1229"/>
<path d="M553.3,445.9h82.1V416.6H553.3v29.3Z" class="g1_1229"/>
<path d="M721.2,449.2V416.6M447.5,478.5V449.2m94.9,29.3V449.2m178.8,29.3V449.2M447.5,507.7V478.5m94.9,29.2V478.5m178.8,29.2V478.5M447.5,540.3V507.7m94.9,32.6V507.7" class="g0_1229"/>
<path d="M553.3,537h99.8V507.7H553.3V537Z" class="g1_1229"/>
<path d="M721.2,540.3V507.7M447.5,569.5V540.3m94.9,29.2V540.3m178.8,29.2V540.3M447.5,598.8V569.5m94.9,29.3V569.5m178.8,29.3V569.5M447.5,631.4V598.8m94.9,32.6V598.8" class="g0_1229"/>
<path d="M553.3,628.1h97.3V598.8H553.3v29.3Z" class="g1_1229"/>
<path d="M721.2,631.4V598.8M447.5,660.6V631.4m94.9,29.2V631.4m178.8,29.2V631.4M447.5,689.9V660.6m94.9,29.3V660.6m178.8,29.3V660.6M447.5,722V689.9M542.4,722V689.9" class="g0_1229"/>
<path d="M553.3,722h95.3V693.4H553.3V722Z" class="g1_1229"/>
<path d="M721.2,722V689.9M447.5,751.2V722m94.9,29.2V722m178.8,29.2V722M447.5,751.6H721.2m22,-640.8h271.2M743.2,140.4V111.1M838,140.4V111.1m176.4,29.3V111.1M743.2,173V140.4M838,173V140.4" class="g0_1229"/>
<path d="M849,169.7h81.9V140.4H849v29.3Z" class="g1_1229"/>
<path d="M1014.4,173V140.4M743.2,202.2V173M838,202.2V173m176.4,29.2V173M743.2,231.4V202.2M838,231.4V202.2m176.4,29.2V202.2M743.2,261.6V231.4M838,261.6V231.4" class="g0_1229"/>
<path d="M849,258.3H989.2V235H849v23.3Z" class="g1_1229"/>
<path d="M1014.4,261.6V231.4M743.2,290.8V261.6M838,290.8V261.6m176.4,29.2V261.6M743.2,320.1V290.8M838,320.1V290.8m176.4,29.3V290.8M743.2,352.7V320.1M838,352.7V320.1" class="g0_1229"/>
<path d="M849,349.4H999.7V320.1H849v29.3Z" class="g1_1229"/>
<path d="M1014.4,352.7V320.1M743.2,381.9V352.7M838,381.9V352.7m176.4,29.2V352.7M743.2,411.2V381.9M838,411.2V381.9m176.4,29.3V381.9M743.2,445.8V411.2M838,445.8V411.2" class="g0_1229"/>
<path d="M849,445.8H950.9V411.2H849v34.6Z" class="g1_1229"/>
<path d="M1014.4,445.8V411.2M743.2,475V445.8M838,475V445.8M1014.4,475V445.8M743.2,504.2V475M838,504.2V475m176.4,29.2V475M743.2,538.8V504.2M838,538.8V504.2" class="g0_1229"/>
<path d="M849,538.8h154.5V504.2H849v34.6Z" class="g1_1229"/>
<path d="M1014.4,538.8V504.2M743.2,568.1V538.8M838,568.1V538.8m176.4,29.3V538.8M743.2,597.3V568.1M838,597.3V568.1m176.4,29.2V568.1M743.2,629.9V597.3M838,629.9V597.3" class="g0_1229"/>
<path d="M849,626.6h59.8V597.3H849v29.3Z" class="g1_1229"/>
<path d="M1014.4,629.9V597.3M743.2,659.2V629.9M838,659.2V629.9m176.4,29.3V629.9M743.2,688.4V659.2M838,688.4V659.2m176.4,29.2V659.2M743.2,721V688.4M838,721V688.4" class="g0_1229"/>
<path d="M849,717.7h81.7V688.4H849v29.3Z" class="g1_1229"/>
<path d="M1014.4,721V688.4M743.2,750.2V721M838,750.2V721m176.4,29.2V721M743.2,750.6h271.2" class="g0_1229"/>
</svg>