<?xml version="1.0" encoding="UTF-8" standalone="no"?>
<!DOCTYPE svg PUBLIC "-//W3C//DTD SVG 1.1//EN"
"http://www.w3.org/Graphics/SVG/1.1/DTD/svg11.dtd">
<svg viewBox="0 0 909 1286" version="1.1" xmlns="http://www.w3.org/2000/svg" xmlns:xlink="http://www.w3.org/1999/xlink">
<defs>
<clipPath id="c0_127"><path d="M119.5,297.4V263.9H336.1v33.5Z"/></clipPath>
<clipPath id="c1_127"><path d="M573.4,297.4V263.9H789.9v33.5Z"/></clipPath>
<clipPath id="c2_127"><path d="M119.5,735.4V701.9H336.1v33.5Z"/></clipPath>
<style type="text/css"><![CDATA[
.g0_127{
fill: none;
stroke: #000000;
stroke-width: 0.73;
stroke-linecap: butt;
stroke-linejoin: miter;
}
.g1_127{
fill: #7F7F7F;
fill-opacity: 0.01;
}
.g2_127{
fill: #7F7F7F;
fill-opacity: 0.02;
}
.g3_127{
fill: #7F7F7F;
fill-opacity: 0.04;
}
.g4_127{
fill: #7F7F7F;
fill-opacity: 0.07;
}
.g5_127{
fill: #7F7F7F;
fill-opacity: 0.11;
}
.g6_127{
fill: #FFFFFF;
}
.g7_127{
fill: #7F7F7F;
}
.g8_127{
fill: #00AEEF;
}
.g9_127{
fill: #CBCEFB;
}
.ga_127{
fill: #EC008C;
}
.gb_127{
fill: #FFFEF5;
}
.gc_127{
fill: none;
stroke: #D6C944;
stroke-width: 0.365;
stroke-linecap: butt;
stroke-linejoin: miter;
}
]]></style>
</defs>
<path d="M116.9,159.9H792.5" class="g0_127"/>
<path d="M122.2,266.6c70.4,0,140.8,0,211.2,0V493.8c-70.4,-9.3,-140.8,-9.3,-211.2,0Z" class="g1_127"/>
<path d="M122.9,267.2c69.9,0,139.9,0,209.8,0v226c-69.9,-9.3,-139.9,-9.3,-209.8,0Z" class="g2_127"/>
<path d="M123.5,267.8c69.5,0,139.1,0,208.6,0V492.6c-69.5,-9.4,-139.1,-9.4,-208.6,0Z" class="g3_127"/>
<path d="M124.1,268.5c69.1,0,138.3,0,207.4,0V492c-69.1,-9.4,-138.3,-9.4,-207.4,0Z" class="g4_127"/>
<path d="M124.7,269.1c68.7,0,137.5,0,206.2,0V491.4C262.2,482,193.4,482,124.7,491.4Z" class="g5_127"/>
<path d="M125.4,269.7c68.3,0,136.5,0,204.8,0v221c-68.3,-9.3,-136.5,-9.3,-204.8,0Z" class="g5_127"/>
<path d="M126,270.3c67.9,0,135.7,0,203.6,0V490.1c-67.9,-9.3,-135.7,-9.3,-203.6,0Z" class="g4_127"/>
<path d="M126.6,270.9c67.5,0,134.9,0,202.4,0V489.5c-67.5,-9.4,-134.9,-9.4,-202.4,0Z" class="g3_127"/>
<path d="M127.2,271.6c67.1,0,134.1,0,201.2,0V488.9c-67.1,-9.4,-134.1,-9.4,-201.2,0Z" class="g2_127"/>
<path d="M127.9,272.2c66.6,0,133.2,0,199.9,0v216c-66.7,-9.3,-133.3,-9.3,-199.9,0Z" class="g1_127"/>
<path d="M116.9,483.6V261.3H338.7V483.6Z" class="g6_127"/>
<path d="M119.5,481V300H336.1V481Z" class="g6_127"/>
<path d="M119.5,297.4V263.9H336.1v33.5Z" class="g7_127"/>
<g clip-path="url(#c0_127)">
<image x="119" y="263" width="218" height="34" xlink:href="shade/1.png"/>
</g>
<path d="M206.1,292.2h104V269.1h-104v23.1Z" class="g8_127"/>
<path d="M182.3,345.2h91m-90.6,29.6V345.6" class="g0_127"/>
<path d="M183.1,374.8h89.4V345.6H183.1v29.2Z" class="g9_127"/>
<path d="M272.9,374.8V345.6m-90.6,29.5h91m-90.6,29.6V375.5m90.2,29.2V375.5m-90.6,29.6h91m-90.6,29.6V405.5m90.2,29.2V405.5M182.3,435h91m-90.6,29.6V435.4m90.2,29.2V435.4M182.3,465h91" class="g0_127"/>
<path d="M576.1,266.6c70.4,0,140.7,0,211.1,0V707.7c-70.4,-9.3,-140.7,-9.3,-211.1,0Z" class="g1_127"/>
<path d="M576.7,267.2c70,0,139.9,0,209.9,0V707.1c-70,-9.3,-139.9,-9.3,-209.9,0Z" class="g2_127"/>
<path d="M577.3,267.8c69.6,0,139.1,0,208.7,0V706.5c-69.6,-9.4,-139.1,-9.4,-208.7,0Z" class="g3_127"/>
<path d="M578,268.4c69.1,0,138.2,0,207.3,0V705.9c-69.1,-9.4,-138.2,-9.4,-207.3,0Z" class="g4_127"/>
<path d="M578.6,269.1c68.7,0,137.4,0,206.1,0V705.2c-68.7,-9.3,-137.4,-9.3,-206.1,0Z" class="g5_127"/>
<path d="M579.2,269.7c68.3,0,136.6,0,204.9,0V704.6c-68.3,-9.3,-136.6,-9.3,-204.9,0Z" class="g5_127"/>
<path d="M579.8,270.3c67.9,0,135.8,0,203.7,0V704c-67.9,-9.4,-135.8,-9.4,-203.7,0Z" class="g4_127"/>
<path d="M580.4,270.9c67.5,0,135,0,202.4,0V703.4C715.4,694,647.9,694,580.4,703.4Z" class="g3_127"/>
<path d="M581.1,271.6c67,0,134.1,0,201.1,0V702.7c-67,-9.3,-134.1,-9.3,-201.1,0Z" class="g2_127"/>
<path d="M581.7,272.2c66.6,0,133.3,0,199.9,0V702.1c-66.6,-9.3,-133.3,-9.3,-199.9,0Z" class="g1_127"/>
<path d="M570.8,697.4V261.3H792.5V697.4Z" class="g6_127"/>
<path d="M573.4,694.8V300H789.9V694.8Z" class="g6_127"/>
<path d="M573.4,297.4V263.9H789.9v33.5Z" class="g7_127"/>
<g clip-path="url(#c1_127)">
<image x="573" y="263" width="218" height="34" xlink:href="shade/2.png"/>
</g>
<path d="M659.9,292.2h104V269.1h-104v23.1Z" class="g8_127"/>
<path d="M605.7,349.4H757.6M606,379V349.8" class="g0_127"/>
<path d="M606.4,379h60.3V349.8H606.4V379Z" class="g9_127"/>
<path d="M667,379V349.8" class="g0_127"/>
<path d="M667.4,379h89.5V349.8H667.4V379Z" class="g9_127"/>
<path d="M757.2,379V349.8M605.7,379.3H757.6M606,408.9V379.7m61,29.2V379.7m90.2,29.2V379.7M605.7,409.3H757.6M606,438.9V409.7m61,29.2V409.7m90.2,29.2V409.7M605.7,439.2H757.6M606,468.8V439.6m61,29.2V439.6m90.2,29.2V439.6M605.7,469.2H757.6M606,498.8V469.6m61,29.2V469.6m90.2,29.2V469.6M605.7,499.2H757.6M606,528.7V499.5m61,29.2V499.5m90.2,29.2V499.5M605.7,529.1H757.6M606,558.7V529.5m61,29.2V529.5m90.2,29.2V529.5M605.7,559.1H757.6M606,588.7V559.4m61,29.3V559.4m90.2,29.3V559.4M605.7,589H757.6M606,618.6V589.4m61,29.2V589.4m90.2,29.2V589.4M605.7,619H757.6M606,648.6V619.3m61,29.3V619.3m90.2,29.3V619.3M605.7,648.9H757.6M606,678.5V649.3m61,29.2V649.3m90.2,29.2V649.3M605.7,678.9H757.6" class="g0_127"/>
<path d="M122.2,704.6c70.4,0,140.8,0,211.2,0V889.1c-70.4,-9.4,-140.8,-9.4,-211.2,0Z" class="g1_127"/>
<path d="M122.9,705.2c69.9,0,139.9,0,209.8,0V888.5c-69.9,-9.4,-139.9,-9.4,-209.8,0Z" class="g2_127"/>
<path d="M123.5,705.8c69.5,0,139.1,0,208.6,0v182c-69.5,-9.3,-139.1,-9.3,-208.6,0Z" class="g3_127"/>
<path d="M124.1,706.4c69.1,0,138.3,0,207.4,0V887.2c-69.1,-9.3,-138.3,-9.3,-207.4,0Z" class="g4_127"/>
<path d="M124.7,707.1c68.7,0,137.5,0,206.2,0V886.6c-68.7,-9.4,-137.5,-9.4,-206.2,0Z" class="g5_127"/>
<path d="M125.4,707.7c68.3,0,136.5,0,204.8,0V886c-68.3,-9.4,-136.5,-9.4,-204.8,0Z" class="g5_127"/>
<path d="M126,708.3c67.9,0,135.7,0,203.6,0V885.4C261.7,876,193.9,876,126,885.4Z" class="g4_127"/>
<path d="M126.6,708.9c67.5,0,134.9,0,202.4,0V884.7c-67.5,-9.3,-134.9,-9.3,-202.4,0Z" class="g3_127"/>
<path d="M127.2,709.6c67.1,0,134.1,0,201.2,0V884.1c-67.1,-9.4,-134.1,-9.4,-201.2,0Z" class="g2_127"/>
<path d="M127.9,710.2c66.6,0,133.2,0,199.9,0V883.5c-66.7,-9.4,-133.3,-9.4,-199.9,0Z" class="g1_127"/>
<path d="M116.9,878.8V699.3H338.7V878.8Z" class="g6_127"/>
<path d="M119.5,876.2V738H336.1V876.2Z" class="g6_127"/>
<path d="M119.5,735.4V701.9H336.1v33.5Z" class="g7_127"/>
<g clip-path="url(#c2_127)">
<image x="119" y="701" width="218" height="34" xlink:href="shade/3.png"/>
</g>
<path d="M221.9,730.2h88.2V707.1H221.9v23.1Z" class="ga_127"/>
<path d="M196.9,770.4h61.8M197.3,800V770.7" class="g0_127"/>
<path d="M197.7,800h60.2V770.7H197.7V800Z" class="g9_127"/>
<path d="M258.3,800V770.7m-61.4,29.6h61.8m-61.4,29.6V800.7m61,29.2V800.7m-61.4,29.6h61.8m-61.4,29.6V830.7m61,29.2V830.7m-61.4,29.5h61.8" class="g0_127"/>
<path d="M-2.9,998.7V933.2H912.4v65.5Z" class="g6_127"/>
<path d="M-.3,996.1V935.8H909.8v60.3Z" class="gb_127"/>
<path d="M-.3,987.8H909.8M-.3,961.8H909.8M-.3,935.8H909.8M-.3,996.1V935.8m25.9,60.3V935.8m26,60.3V935.8m26,60.3V935.8m26,60.3V935.8m26,60.3V935.8m25.9,60.3V935.8m26,60.3V935.8m26,60.3V935.8m26,60.3V935.8m26,60.3V935.8m26,60.3V935.8m25.9,60.3V935.8m26,60.3V935.8m26,60.3V935.8m26,60.3V935.8m26,60.3V935.8m26,60.3V935.8m26,60.3V935.8m25.9,60.3V935.8m26,60.3V935.8m26,60.3V935.8m26,60.3V935.8m26,60.3V935.8m26,60.3V935.8m25.9,60.3V935.8m26,60.3V935.8m26,60.3V935.8m26,60.3V935.8m26,60.3V935.8m26,60.3V935.8m25.9,60.3V935.8m26,60.3V935.8m26,60.3V935.8m26,60.3V935.8m26,60.3V935.8" class="gc_127"/>
</svg>