<?xml version="1.0" encoding="UTF-8" standalone="no"?>
<!DOCTYPE svg PUBLIC "-//W3C//DTD SVG 1.1//EN"
"http://www.w3.org/Graphics/SVG/1.1/DTD/svg11.dtd">
<svg viewBox="0 0 909 1286" version="1.1" xmlns="http://www.w3.org/2000/svg" xmlns:xlink="http://www.w3.org/1999/xlink">
<defs>
<style type="text/css"><![CDATA[
.g0_10{
fill: none;
stroke: #000000;
stroke-width: 0.73;
stroke-linecap: butt;
stroke-linejoin: miter;
}
.g1_10{
fill: none;
stroke: #F81693;
stroke-width: 0.73;
stroke-linecap: butt;
stroke-linejoin: miter;
}
.g2_10{
fill: none;
stroke: #8007AC;
stroke-width: 0.73;
stroke-linecap: butt;
stroke-linejoin: miter;
}
.g3_10{
fill: none;
stroke: #02B5EE;
stroke-width: 0.73;
stroke-linecap: butt;
stroke-linejoin: miter;
}
.g4_10{
fill: none;
stroke: #7F7F7F;
stroke-width: 1.461;
stroke-linecap: butt;
stroke-linejoin: miter;
}
.g5_10{
fill: none;
stroke: #7F7F7F;
stroke-width: 1.461;
stroke-linecap: round;
stroke-linejoin: round;
}
.g6_10{
fill: none;
stroke: #02B5EE;
stroke-width: 1.461;
stroke-linecap: butt;
stroke-linejoin: miter;
}
.g7_10{
fill: none;
stroke: #8007AC;
stroke-width: 1.461;
stroke-linecap: butt;
stroke-linejoin: miter;
}
.g8_10{
fill: #FFFFFF;
}
.g9_10{
fill: #FDE8E9;
}
]]></style>
</defs>
<path d="M116.9,179.9H877.7M175.4,226.7l31.2,18.6m0,36.7V245.5m-31.2,55.3l31.2,-18.6m-31.2,18.6L144.2,282.2m0,-.2V245.5m31.2,-18.8l-31.2,18.6m32.3,-11l23,13.7m-23,45.1l23,-13.7m-49.3,-2.2v-27m25.2,-23.5V201.1m31.2,44.4l21.9,-13.2m-53.1,94.1L206.6,345M175.4,326.4L144.2,345m31.2,-44.2v25.6m95.3,8.8V180.3" class="g0_10"/>
<path d="M409.6,230.5l18.2,10.9m6.6,33.3V254.6M409.6,297l18.2,-11m-31,11L378.5,286M372,274.7V254.6m24.8,-24.1l-18.3,10.9m31.1,-4.9l18.2,11m-18.2,42.4l18.2,-11M378,274.7V254.6" class="g1_10"/>
<path d="M403.2,221.2V201.1" class="g2_10"/>
<path d="M439.9,241.1l18.3,-11" class="g1_10"/>
<path d="M403.2,326.4L434.4,345M403.2,326.4L372,345m31.2,-38.7v20.1" class="g3_10"/>
<path d="M270.7,364.4V335.2m0,58.4V364.4m0,58.4V393.6m0,58.4V422.8m0,58.5V452" class="g0_10"/>
<path d="M411.7,446.8H656.5" class="g4_10"/>
<path d="M652.6,441.1c.8,3.4,2.7,5,4.6,5.7c-1.9,.7,-3.8,2.3,-4.6,5.7" class="g5_10"/>
<path d="M411.7,479.8c1.4,0,2.1,-2.7,3.4,-2.7c1,0,1.9,1.3,2.8,2.7c.9,1.4,1.7,2.7,2.7,2.7c1,0,1.9,-1.3,2.8,-2.7c.9,-1.4,1.7,-2.7,2.7,-2.7c1.4,0,2.1,2.7,3.4,2.7h3.9" class="g6_10"/>
<path d="M552.9,479.8c1.4,0,2.1,-2.7,3.5,-2.7c.9,0,1.8,1.3,2.7,2.7c.9,1.4,1.7,2.7,2.7,2.7c1,0,1.9,-1.3,2.8,-2.7c.9,-1.4,1.7,-2.7,2.7,-2.7c1.4,0,2.1,2.7,3.4,2.7h3.9" class="g7_10"/>
<path d="M270.7,510.5V481.3m0,98.6V510.5" class="g0_10"/>
<path d="M348.3,572.1V518.3c0,-2.9,2.4,-5.2,5.2,-5.2h188c2.8,0,5.2,2.3,5.2,5.2v53.8c0,2.9,-2.4,5.2,-5.2,5.2h-188c-2.8,0,-5.2,-2.3,-5.2,-5.2Z" class="g8_10"/>
<path d="M408.7,603.1h77.6V586.4H408.7v16.7Z" class="g9_10"/>
<path d="M374.3,561.7H520.7v-33H374.3v33Z" class="g9_10"/>
<path d="M270.7,609.1V579.9m0,58.5V609.1M116.9,638.7H877.7" class="g0_10"/>
</svg>