<?xml version="1.0" encoding="UTF-8" standalone="no"?>
<!DOCTYPE svg PUBLIC "-//W3C//DTD SVG 1.1//EN"
"http://www.w3.org/Graphics/SVG/1.1/DTD/svg11.dtd">
<svg viewBox="0 0 1286 909" version="1.1" xmlns="http://www.w3.org/2000/svg" xmlns:xlink="http://www.w3.org/1999/xlink">
<defs>
<style type="text/css"><![CDATA[
.g0_603{
fill: none;
stroke: #000000;
stroke-width: 0.73;
stroke-linecap: butt;
stroke-linejoin: miter;
}
.g1_603{
fill: none;
stroke: #F81693;
stroke-width: 1.262;
stroke-linecap: butt;
stroke-linejoin: miter;
}
.g2_603{
fill: none;
stroke: #02B5EE;
stroke-width: 1.262;
stroke-linecap: butt;
stroke-linejoin: miter;
}
.g3_603{
fill: none;
stroke: #FFA313;
stroke-width: 1.262;
stroke-linecap: butt;
stroke-linejoin: miter;
}
.g4_603{
fill: none;
stroke: #F81693;
stroke-width: 0.73;
stroke-linecap: butt;
stroke-linejoin: miter;
}
.g5_603{
fill: none;
stroke: #FFA313;
stroke-width: 0.73;
stroke-linecap: butt;
stroke-linejoin: miter;
}
.g6_603{
fill: none;
stroke: #02B5EE;
stroke-width: 0.73;
stroke-linecap: butt;
stroke-linejoin: miter;
}
]]></style>
</defs>
<path d="M193,83.4h900.3M193,210.6H933.3m-740.3,0H933.3M495.7,240.2V211m0,58.5V240.2m0,116.1V269.5" class="g0_603"/>
<path d="M732.7,330.5h20.6" class="g1_603"/>
<path d="M768.8,330.5h22.7" class="g2_603"/>
<path d="M802,330.5h22.4" class="g3_603"/>
<path d="M834.9,330.5h87.4" class="g1_603"/>
<path d="M495.7,385.5V356.3m0,103.3V385.5" class="g0_603"/>
<path d="M721.7,444.7h137" class="g4_603"/>
<path d="M858.7,444.7h13" class="g5_603"/>
<path d="M871.7,444.7h50.6" class="g6_603"/>
<path d="M495.7,488.9V459.6m0,58.5V488.9m0,116V518.1" class="g0_603"/>
<path d="M590.8,579.1h20.6" class="g1_603"/>
<path d="M627,579.1h22.6" class="g2_603"/>
<path d="M660.1,579.1h22.4" class="g3_603"/>
<path d="M834.5,579.1h87.8" class="g1_603"/>
<path d="M495.7,634.2V604.9m0,103.4V634.2" class="g0_603"/>
<path d="M758.3,693.3H858.7" class="g4_603"/>
<path d="M858.7,693.3h13" class="g5_603"/>
<path d="M871.7,693.3h50.6" class="g6_603"/>
<path d="M495.7,737.5V708.3M193,737.9H933.3m-740.3,0H933.3" class="g0_603"/>
</svg>