<?xml version="1.0" encoding="UTF-8" standalone="no"?>
<!DOCTYPE svg PUBLIC "-//W3C//DTD SVG 1.1//EN"
"http://www.w3.org/Graphics/SVG/1.1/DTD/svg11.dtd">
<svg viewBox="0 0 1286 909" version="1.1" xmlns="http://www.w3.org/2000/svg" xmlns:xlink="http://www.w3.org/1999/xlink">
<defs>
<style type="text/css"><![CDATA[
.g0_274{
fill: none;
stroke: #000000;
stroke-width: 0.73;
stroke-linecap: butt;
stroke-linejoin: miter;
}
.g1_274{
fill: #E6CEEE;
}
.g2_274{
fill: #F81693;
}
.g3_274{
fill: #FFE6E6;
}
.g4_274{
fill: none;
stroke: #8007AC;
stroke-width: 1.461;
stroke-linecap: butt;
stroke-linejoin: miter;
}
.g5_274{
fill: none;
stroke: #02B5EE;
stroke-width: 1.262;
stroke-linecap: butt;
stroke-linejoin: miter;
}
.g6_274{
fill: none;
stroke: #5EE200;
stroke-width: 1.262;
stroke-linecap: butt;
stroke-linejoin: miter;
}
.g7_274{
fill: none;
stroke: #02B5EE;
stroke-width: 0.73;
stroke-linecap: butt;
stroke-linejoin: miter;
}
]]></style>
</defs>
<path d="M193,83.4h900.3M193,111.6h897.4m-897.4,0h897.4M426.7,141.2V112m0,77.3V141.2" class="g0_274"/>
<path d="M912.8,185.4h33.4V152.6H912.8v32.8Z" class="g1_274"/>
<path d="M956.7,181.5V149c0,-4.3,3.5,-7.8,7.8,-7.8h63.2c4.3,0,7.8,3.5,7.8,7.8v32.5c0,4.3,-3.5,7.8,-7.8,7.8H964.5c-4.3,0,-7.8,-3.5,-7.8,-7.8Z" class="g2_274"/>
<path d="M959.3,181.5V149c0,-2.8,2.3,-5.2,5.2,-5.2h63.2c2.9,0,5.2,2.4,5.2,5.2v32.5c0,2.9,-2.3,5.2,-5.2,5.2H964.5c-2.9,0,-5.2,-2.3,-5.2,-5.2Z" class="g3_274"/>
<path d="M1046,185.4h33.4V152.6H1046v32.8Z" class="g1_274"/>
<path d="M426.7,218.5V189.3m0,58.4V218.5m0,77.3V247.7" class="g0_274"/>
<path d="M884,291.9h47.8V259.1H884v32.8Z" class="g1_274"/>
<path d="M889.5,290.1c1.4,0,2,-2.7,3.4,-2.7c1,0,1.9,1.3,2.8,2.7c.8,1.4,1.7,2.8,2.7,2.8c1,0,1.9,-1.4,2.7,-2.8c.9,-1.4,1.8,-2.7,2.8,-2.7c1,0,1.8,1.3,2.7,2.7c.9,1.4,1.8,2.8,2.8,2.8c1,0,1.8,-1.4,2.7,-2.8c.9,-1.4,1.7,-2.7,2.7,-2.7c1,0,1.9,1.3,2.8,2.7c.8,1.4,1.7,2.8,2.7,2.8c1.4,0,2.1,-2.8,3.4,-2.8h2.6" class="g4_274"/>
<path d="M942.3,288V255.5c0,-4.3,3.5,-7.8,7.8,-7.8h63.2c4.3,0,7.8,3.5,7.8,7.8V288c0,4.3,-3.5,7.8,-7.8,7.8H950.1c-4.3,0,-7.8,-3.5,-7.8,-7.8Z" class="g2_274"/>
<path d="M944.9,288V255.5c0,-2.8,2.3,-5.2,5.2,-5.2h63.2c2.9,0,5.2,2.4,5.2,5.2V288c0,2.9,-2.3,5.2,-5.2,5.2H950.1c-2.9,0,-5.2,-2.3,-5.2,-5.2Z" class="g3_274"/>
<path d="M1031.6,291.9h47.8V259.1h-47.8v32.8Z" class="g1_274"/>
<path d="M426.7,325V295.8m0,58.5V325m0,58.5V354.3m0,114.2v-85" class="g0_274"/>
<path d="M857.8,444.5H981.1" class="g5_274"/>
<path d="M991.6,444.5h87.8" class="g6_274"/>
<path d="M426.7,497.7V468.5m0,58.5V497.7m0,114.3V527" class="g0_274"/>
<path d="M862.2,588h35.9" class="g5_274"/>
<path d="M426.7,641.2V612m0,102.3V641.2" class="g0_274"/>
<path d="M1045.6,700.4h33.8" class="g7_274"/>
<path d="M426.7,743.5V714.3M193,743.8h897.4m-897.4,0h897.4" class="g0_274"/>
</svg>