<?xml version="1.0" encoding="UTF-8" standalone="no"?>
<!DOCTYPE svg PUBLIC "-//W3C//DTD SVG 1.1//EN"
"http://www.w3.org/Graphics/SVG/1.1/DTD/svg11.dtd">
<svg viewBox="0 0 1286 909" version="1.1" xmlns="http://www.w3.org/2000/svg" xmlns:xlink="http://www.w3.org/1999/xlink">
<defs>
<style type="text/css"><![CDATA[
.g0_1203{
fill: none;
stroke: #000000;
stroke-width: 0.73;
stroke-linecap: butt;
stroke-linejoin: miter;
}
.g1_1203{
fill: none;
stroke: #000000;
stroke-width: 0.584;
stroke-linecap: butt;
stroke-linejoin: miter;
}
.g2_1203{
fill: #FDE8E9;
}
]]></style>
</defs>
<path d="M193,83.4h900.3" class="g0_1203"/>
<path d="M201.7,109.5H563.2M201.7,133.1V109.7m212.1,23.4V109.7m149.4,23.4V109.7M201.7,160.8V133.1m212.1,27.7V133.1" class="g1_1203"/>
<path d="M422.6,160.8H554.5V133.1H422.6v27.7Z" class="g2_1203"/>
<path d="M563.2,160.8V133.1M201.7,184.2V160.8m212.1,23.4V160.8m149.4,23.4V160.8M201.7,207.6V184.2m212.1,23.4V184.2m149.4,23.4V184.2M201.7,233.7V207.6m212.1,26.1V207.6" class="g1_1203"/>
<path d="M422.6,231.1h85.3V207.6H422.6v23.5Z" class="g2_1203"/>
<path d="M563.2,233.7V207.6M201.7,257.1V233.7m212.1,23.4V233.7m149.4,23.4V233.7M201.7,280.4V257.1m212.1,23.3V257.1m149.4,23.3V257.1M201.7,306.6V280.4m212.1,26.2V280.4" class="g1_1203"/>
<path d="M422.6,303.9h60.2V280.4H422.6v23.5Z" class="g2_1203"/>
<path d="M563.2,306.6V280.4M201.7,329.9V306.6m212.1,23.3V306.6m149.4,23.3V306.6M201.7,353.3V329.9m212.1,23.4V329.9m149.4,23.4V329.9M201.7,381V353.3M413.8,381V353.3" class="g1_1203"/>
<path d="M422.6,381h77.6V353.3H422.6V381Z" class="g2_1203"/>
<path d="M563.2,381V353.3M201.7,404.4V381m212.1,23.4V381m149.4,23.4V381M201.7,427.8V404.4m212.1,23.4V404.4m149.4,23.4V404.4M201.7,453.9V427.8m212.1,26.1V427.8" class="g1_1203"/>
<path d="M422.6,451.3h67.9V427.8H422.6v23.5Z" class="g2_1203"/>
<path d="M563.2,453.9V427.8M201.7,477.3V453.9m212.1,23.4V453.9m149.4,23.4V453.9M201.7,500.6V477.3m212.1,23.3V477.3m149.4,23.3V477.3M201.7,526.8V500.6m212.1,26.2V500.6" class="g1_1203"/>
<path d="M422.6,524.1h62.2V500.6H422.6v23.5Z" class="g2_1203"/>
<path d="M563.2,526.8V500.6M201.7,550.1V526.8m212.1,23.3V526.8m149.4,23.3V526.8M201.7,573.5V550.1m212.1,23.4V550.1m149.4,23.4V550.1M201.7,601.2V573.5m212.1,27.7V573.5" class="g1_1203"/>
<path d="M422.6,601.2H535.8V573.5H422.6v27.7Z" class="g2_1203"/>
<path d="M563.2,601.2V573.5M201.7,624.6V601.2m212.1,23.4V601.2m149.4,23.4V601.2M201.7,648V624.6M413.8,648V624.6M563.2,648V624.6M201.7,675.7V648m212.1,27.7V648" class="g1_1203"/>
<path d="M422.6,675.7h90.9V648H422.6v27.7Z" class="g2_1203"/>
<path d="M563.2,675.7V648M201.7,699V675.7M413.8,699V675.7M563.2,699V675.7M201.7,722.4V699m212.1,23.4V699m149.4,23.4V699M201.7,750.1V722.4m212.1,27.7V722.4" class="g1_1203"/>
<path d="M422.6,750.1H504V722.4H422.6v27.7Z" class="g2_1203"/>
<path d="M563.2,750.1V722.4M201.7,773.5V750.1m212.1,23.4V750.1m149.4,23.4V750.1M201.7,773.8H563.2M580.8,112H823.6M580.8,135.7V112.3m114.8,23.4V112.3m128,23.4V112.3M580.8,161.8V135.7m114.8,26.1V135.7" class="g1_1203"/>
<path d="M704.4,159.2h51.4V135.7H704.4v23.5Z" class="g2_1203"/>
<path d="M823.6,161.8V135.7M580.8,185.2V161.8m114.8,23.4V161.8m128,23.4V161.8M580.8,208.6V185.2m114.8,23.4V185.2m128,23.4V185.2M580.8,234.7V208.6m114.8,26.1V208.6" class="g1_1203"/>
<path d="M704.4,232.1h95.9V208.6H704.4v23.5Z" class="g2_1203"/>
<path d="M823.6,234.7V208.6M580.8,258.1V234.7m114.8,23.4V234.7m128,23.4V234.7M580.8,281.4V258.1m114.8,23.3V258.1m128,23.3V258.1M580.8,307.6V281.4m114.8,26.2V281.4" class="g1_1203"/>
<path d="M704.4,304.9h83.1V281.4H704.4v23.5Z" class="g2_1203"/>
<path d="M823.6,307.6V281.4M580.8,330.9V307.6m114.8,23.3V307.6m128,23.3V307.6M580.8,354.3V330.9m114.8,23.4V330.9m128,23.4V330.9M580.8,382V354.3M695.6,382V354.3" class="g1_1203"/>
<path d="M704.4,382H805.5V354.3H704.4V382Z" class="g2_1203"/>
<path d="M823.6,382V354.3M580.8,405.4V382m114.8,23.4V382m128,23.4V382M580.8,428.8V405.4m114.8,23.4V405.4m128,23.4V405.4M580.8,456.5V428.8m114.8,27.7V428.8" class="g1_1203"/>
<path d="M704.4,456.5H814.8V428.8H704.4v27.7Z" class="g2_1203"/>
<path d="M823.6,456.5V428.8m-242.8,51V456.5m114.8,23.3V456.5m128,23.3V456.5M580.8,503.2V479.8m114.8,23.4V479.8m128,23.4V479.8M580.8,529.3V503.2m114.8,26.1V503.2" class="g1_1203"/>
<path d="M704.4,526.7H806.8V503.2H704.4v23.5Z" class="g2_1203"/>
<path d="M823.6,529.3V503.2M580.8,552.7V529.3m114.8,23.4V529.3m128,23.4V529.3M580.8,576.1V552.7m114.8,23.4V552.7m128,23.4V552.7M580.8,602.2V576.1m114.8,26.1V576.1" class="g1_1203"/>
<path d="M704.4,599.6H814.1V576.1H704.4v23.5Z" class="g2_1203"/>
<path d="M823.6,602.2V576.1M580.8,625.6V602.2m114.8,23.4V602.2m128,23.4V602.2M580.8,649V625.6M695.6,649V625.6m128,23.4V625.6M580.8,675.1V649m114.8,26.1V649" class="g1_1203"/>
<path d="M704.4,672.4h68.2V649H704.4v23.4Z" class="g2_1203"/>
<path d="M823.6,675.1V649M580.8,698.5V675.1m114.8,23.4V675.1m128,23.4V675.1M580.8,721.8V698.5m114.8,23.3V698.5m128,23.3V698.5M580.8,747.6V721.8m114.8,25.8V721.8" class="g1_1203"/>
<path d="M704.4,747.6h65.3V724.7H704.4v22.9Z" class="g2_1203"/>
<path d="M823.6,747.6V721.8M580.8,770.9V747.6m114.8,23.3V747.6m128,23.3V747.6M580.8,771.2H823.6M841.1,112h250.4M841.1,135.7V112.3m134.3,23.4V112.3m116.1,23.4V112.3M841.1,161.8V135.7m134.3,26.1V135.7" class="g1_1203"/>
<path d="M984.2,159.2h63.5V135.7H984.2v23.5Z" class="g2_1203"/>
<path d="M1091.5,161.8V135.7M841.1,185.2V161.8m134.3,23.4V161.8m116.1,23.4V161.8M841.1,208.6V185.2m134.3,23.4V185.2m116.1,23.4V185.2M841.1,234.7V208.6m134.3,26.1V208.6" class="g1_1203"/>
<path d="M984.2,232.1h53.5V208.6H984.2v23.5Z" class="g2_1203"/>
<path d="M1091.5,234.7V208.6M841.1,258.1V234.7m134.3,23.4V234.7m116.1,23.4V234.7M841.1,281.4V258.1m134.3,23.3V258.1m116.1,23.3V258.1M841.1,307.6V281.4m134.3,26.2V281.4" class="g1_1203"/>
<path d="M984.2,304.9h64.6V281.4H984.2v23.5Z" class="g2_1203"/>
<path d="M1091.5,307.6V281.4M841.1,330.9V307.6m134.3,23.3V307.6m116.1,23.3V307.6M841.1,354.3V330.9m134.3,23.4V330.9m116.1,23.4V330.9M841.1,380.4V354.3m134.3,26.1V354.3" class="g1_1203"/>
<path d="M984.2,377.8h51.5V354.3H984.2v23.5Z" class="g2_1203"/>
<path d="M1091.5,380.4V354.3M841.1,403.8V380.4m134.3,23.4V380.4m116.1,23.4V380.4M841.1,427.2V403.8m134.3,23.4V403.8m116.1,23.4V403.8M841.1,453.3V427.2m134.3,26.1V427.2" class="g1_1203"/>
<path d="M984.2,450.7h78.1V427.2H984.2v23.5Z" class="g2_1203"/>
<path d="M1091.5,453.3V427.2M841.1,476.7V453.3m134.3,23.4V453.3m116.1,23.4V453.3M841.1,500.1V476.7m134.3,23.4V476.7m116.1,23.4V476.7M841.1,526.2V500.1m134.3,26.1V500.1" class="g1_1203"/>
<path d="M984.2,523.5h60.5V500.1H984.2v23.4Z" class="g2_1203"/>
<path d="M1091.5,526.2V500.1M841.1,549.6V526.2m134.3,23.4V526.2m116.1,23.4V526.2M841.1,572.9V549.6m134.3,23.3V549.6m116.1,23.3V549.6m-250.4,51V572.9m134.3,27.7V572.9" class="g1_1203"/>
<path d="M984.2,600.6h66.9V572.9H984.2v27.7Z" class="g2_1203"/>
<path d="M1091.5,600.6V572.9M841.1,624V600.6M975.4,624V600.6M1091.5,624V600.6M841.1,647.4V624m134.3,23.4V624m116.1,23.4V624M841.1,673.1V647.4m134.3,25.7V647.4" class="g1_1203"/>
<path d="M984.2,673.1h98.5V650.2H984.2v22.9Z" class="g2_1203"/>
<path d="M1091.5,673.1V647.4M841.1,696.5V673.1m134.3,23.4V673.1m116.1,23.4V673.1M841.1,719.9V696.5m134.3,23.4V696.5m116.1,23.4V696.5M841.1,747.6V719.9m134.3,27.7V719.9" class="g1_1203"/>
<path d="M984.2,747.6h93.2V719.9H984.2v27.7Z" class="g2_1203"/>
<path d="M1091.5,747.6V719.9m-250.4,51V747.6m134.3,23.3V747.6m116.1,23.3V747.6M841.1,771.2h250.4" class="g1_1203"/>
</svg>