<?xml version="1.0" encoding="UTF-8" standalone="no"?>
<!DOCTYPE svg PUBLIC "-//W3C//DTD SVG 1.1//EN"
"http://www.w3.org/Graphics/SVG/1.1/DTD/svg11.dtd">
<svg viewBox="0 0 909 1286" version="1.1" xmlns="http://www.w3.org/2000/svg" xmlns:xlink="http://www.w3.org/1999/xlink">
<defs>
<style type="text/css"><![CDATA[
.g0{
fill: none;
stroke: #000000;
stroke-width: 0.73;
stroke-linecap: butt;
stroke-linejoin: miter;
}
.g1{
fill: none;
stroke: #000000;
stroke-width: 9.132;
stroke-linecap: butt;
stroke-linejoin: miter;
}
.g2{
fill: #7F7F7F;
stroke: #7F7F7F;
stroke-width: 0.66;
stroke-linecap: butt;
stroke-linejoin: round;
stroke-miterlimit: 1;
}
.g3{
fill: #02B5EE;
stroke: #02B5EE;
stroke-width: 0.66;
stroke-linecap: butt;
stroke-linejoin: round;
stroke-miterlimit: 1;
}
]]></style>
</defs>
<path d="M116.9,179.9H783.4M117.3,354V180.3M783,354V180.3M116.9,354.4H783.4" class="g0"/>
<path d="M126.1,359.3H792.5m-4.6,4.6V188.7" class="g1"/>
<path d="M116.9,395.3H659.4m-301,29.6V395.7m-95,71.9l31.3,18.7m0,36.7V486.4m-31.3,55.4l31.3,-18.6m-31.3,18.6L232.2,523.2m31.2,-55.6l-31.2,18.7M201,467.6l31.2,18.7M201,541.8l31.2,-18.6M201,541.8L169.7,523.2m0,-.2V486.4M201,467.6l-31.3,18.7m94.8,-11l23,13.7m-23,45.1l23,-13.7m-85.4,13.7l23,-13.7m-49.3,-2.2v-27m26.3,-15.9l23,13.7M358.4,594.4V424.9m146.9,42.7l31.2,18.7m0,36.7V486.4m-31.2,55.4l31.2,-18.6m-31.2,18.6L474,523.2m31.3,-55.6L474,486.3M442.8,467.6L474,486.3m-31.2,55.5L474,523.2m-31.2,18.6L411.6,523.2m0,-.2V486.4m31.2,-18.8l-31.2,18.7m94.8,-11l23,13.7m-23,45.1l23,-13.7m-85.5,13.7l23,-13.7m-49.3,-2.2v-27m26.3,-15.9l23,13.7" class="g0"/>
<path d="M509.9,467.6c0,2,-1.3,3.8,-3.2,4.4c-1.9,.6,-4,0,-5.2,-1.7c-1.1,-1.6,-1.1,-3.8,0,-5.4c1.2,-1.6,3.3,-2.3,5.2,-1.7c1.9,.7,3.2,2.4,3.2,4.4Z" class="g2"/>
<path d="M541.1,486.4c0,2,-1.3,3.8,-3.2,4.4c-1.9,.7,-4,0,-5.1,-1.6c-1.2,-1.7,-1.2,-3.8,0,-5.5c1.1,-1.6,3.2,-2.3,5.1,-1.6c1.9,.6,3.2,2.3,3.2,4.3Z" class="g2"/>
<path d="M541.1,523c0,2,-1.3,3.8,-3.2,4.4c-1.9,.6,-4,-.1,-5.1,-1.7c-1.2,-1.6,-1.2,-3.8,0,-5.4c1.1,-1.7,3.2,-2.3,5.1,-1.7c1.9,.6,3.2,2.4,3.2,4.4Z" class="g2"/>
<path d="M509.9,541.8c0,2,-1.3,3.8,-3.2,4.4c-1.9,.6,-4,-.1,-5.2,-1.7c-1.1,-1.6,-1.1,-3.8,0,-5.4c1.2,-1.6,3.3,-2.3,5.2,-1.7c1.9,.6,3.2,2.4,3.2,4.4Z" class="g2"/>
<path d="M478.7,523c0,2,-1.3,3.8,-3.2,4.4c-1.9,.6,-4,-.1,-5.2,-1.7c-1.2,-1.6,-1.2,-3.8,0,-5.4c1.2,-1.7,3.3,-2.3,5.2,-1.7c1.9,.6,3.2,2.4,3.2,4.4Z" class="g2"/>
<path d="M447.4,541.8c0,2,-1.3,3.8,-3.2,4.4c-1.9,.6,-4,-.1,-5.1,-1.7c-1.2,-1.6,-1.2,-3.8,0,-5.4c1.1,-1.6,3.2,-2.3,5.1,-1.7c1.9,.6,3.2,2.4,3.2,4.4Z" class="g2"/>
<path d="M416.2,523c0,2,-1.3,3.8,-3.2,4.4c-1.9,.6,-4,-.1,-5.2,-1.7c-1.1,-1.6,-1.1,-3.8,0,-5.4c1.2,-1.7,3.3,-2.3,5.2,-1.7c1.9,.6,3.2,2.4,3.2,4.4Z" class="g2"/>
<path d="M416.2,486.4c0,2,-1.3,3.8,-3.2,4.4c-1.9,.7,-4,0,-5.2,-1.6c-1.1,-1.7,-1.1,-3.8,0,-5.5c1.2,-1.6,3.3,-2.3,5.2,-1.6c1.9,.6,3.2,2.3,3.2,4.3Z" class="g2"/>
<path d="M447.4,467.6c0,2,-1.3,3.8,-3.2,4.4c-1.9,.6,-4,0,-5.1,-1.7c-1.2,-1.6,-1.2,-3.8,0,-5.4c1.1,-1.6,3.2,-2.3,5.1,-1.7c1.9,.7,3.2,2.4,3.2,4.4Z" class="g2"/>
<path d="M478.7,486.4c0,2,-1.3,3.8,-3.2,4.4c-1.9,.7,-4,0,-5.2,-1.6c-1.2,-1.7,-1.2,-3.8,0,-5.5c1.2,-1.6,3.3,-2.3,5.2,-1.6c1.9,.6,3.2,2.3,3.2,4.3Z" class="g2"/>
<path d="M358.4,623.6V594.4m0,58.4V623.6m0,58.5V652.8M116.9,682.4H659.4M358.4,712V682.8m-95,72l31.3,18.6m0,36.7V773.6m-62.5,36.5h62.5M263.4,754.8l-31.2,18.6M201,754.8l31.2,18.6M201,828.9l31.2,-18.6M201,828.9L169.7,810.3m0,-.2V773.6M201,754.8l-31.3,18.6m32.4,-11l23,13.7m-49.3,29.3V778.3m26.3,43l23,-13.7m63.5,-2.2V778.3m69.8,103.2V712m146.9,42.8l31.2,18.6m0,36.7V773.6M474,810.1h62.5M505.3,754.8L474,773.4M442.8,754.8L474,773.4m-31.2,55.5L474,810.3m-31.2,18.6L411.6,810.3m0,-.2V773.6m31.2,-18.8l-31.2,18.6m32.3,-11l23,13.7m-49.3,29.3V778.3m26.3,43l23,-13.7m63.6,-2.2V778.3" class="g0"/>
<path d="M509.9,754.8c0,2,-1.3,3.7,-3.2,4.4c-1.9,.6,-4,-.1,-5.2,-1.7c-1.1,-1.6,-1.1,-3.8,0,-5.4c1.2,-1.7,3.3,-2.3,5.2,-1.7c1.9,.6,3.2,2.4,3.2,4.4Z" class="g3"/>
<path d="M541.1,773.6c0,2,-1.3,3.8,-3.2,4.4c-1.9,.6,-4,-.1,-5.1,-1.7c-1.2,-1.6,-1.2,-3.8,0,-5.4c1.1,-1.7,3.2,-2.3,5.1,-1.7c1.9,.6,3.2,2.4,3.2,4.4Z" class="g2"/>
<path d="M541.1,810.1c0,2,-1.3,3.8,-3.2,4.4c-1.9,.6,-4,-.1,-5.1,-1.7c-1.2,-1.6,-1.2,-3.8,0,-5.4c1.1,-1.6,3.2,-2.3,5.1,-1.7c1.9,.6,3.2,2.4,3.2,4.4Z" class="g2"/>
<path d="M478.7,810.1c0,2,-1.3,3.8,-3.2,4.4c-1.9,.6,-4,-.1,-5.2,-1.7c-1.2,-1.6,-1.2,-3.8,0,-5.4c1.2,-1.6,3.3,-2.3,5.2,-1.7c1.9,.6,3.2,2.4,3.2,4.4Z" class="g2"/>
<path d="M447.4,828.9c0,2,-1.3,3.8,-3.2,4.4c-1.9,.6,-4,0,-5.1,-1.7c-1.2,-1.6,-1.2,-3.8,0,-5.4c1.1,-1.6,3.2,-2.3,5.1,-1.7c1.9,.7,3.2,2.4,3.2,4.4Z" class="g2"/>
<path d="M416.2,810.1c0,2,-1.3,3.8,-3.2,4.4c-1.9,.6,-4,-.1,-5.2,-1.7c-1.1,-1.6,-1.1,-3.8,0,-5.4c1.2,-1.6,3.3,-2.3,5.2,-1.7c1.9,.6,3.2,2.4,3.2,4.4Z" class="g2"/>
<path d="M416.2,773.6c0,2,-1.3,3.8,-3.2,4.4c-1.9,.6,-4,-.1,-5.2,-1.7c-1.1,-1.6,-1.1,-3.8,0,-5.4c1.2,-1.7,3.3,-2.3,5.2,-1.7c1.9,.6,3.2,2.4,3.2,4.4Z" class="g2"/>
<path d="M447.4,754.8c0,2,-1.3,3.7,-3.2,4.4c-1.9,.6,-4,-.1,-5.1,-1.7c-1.2,-1.6,-1.2,-3.8,0,-5.4c1.1,-1.7,3.2,-2.3,5.1,-1.7c1.9,.6,3.2,2.4,3.2,4.4Z" class="g2"/>
<path d="M478.7,773.6c0,2,-1.3,3.8,-3.2,4.4c-1.9,.6,-4,-.1,-5.2,-1.7c-1.2,-1.6,-1.2,-3.8,0,-5.4c1.2,-1.7,3.3,-2.3,5.2,-1.7c1.9,.6,3.2,2.4,3.2,4.4Z" class="g2"/>
<path d="M358.4,910.8V881.5m0,58.5V910.8m0,58.4V940m0,58.4V969.2m0,58.4V998.4m0,58.5v-29.3m0,58.5v-29.2m-241.5,29.6H659.4" class="g0"/>
</svg>