<?xml version="1.0" encoding="UTF-8" standalone="no"?>
<!DOCTYPE svg PUBLIC "-//W3C//DTD SVG 1.1//EN"
"http://www.w3.org/Graphics/SVG/1.1/DTD/svg11.dtd">
<svg viewBox="0 0 1286 909" version="1.1" xmlns="http://www.w3.org/2000/svg" xmlns:xlink="http://www.w3.org/1999/xlink">
<defs>
<style type="text/css"><![CDATA[
.g0_1114{
fill: none;
stroke: #000000;
stroke-width: 0.73;
stroke-linecap: butt;
stroke-linejoin: miter;
}
.g1_1114{
fill: #E6CEEE;
}
.g2_1114{
fill: #F81693;
}
.g3_1114{
fill: #FFE6E6;
}
]]></style>
</defs>
<path d="M193,83.4h900.3M193,210.6H790m-597,0H790M407,240.2V211m0,58.5V240.2m0,70.1V269.5" class="g0_1114"/>
<path d="M546,306.4h89.3V273.5H546v32.9Z" class="g1_1114"/>
<path d="M645.8,302.5V277.2c0,-4.3,3.5,-7.7,7.8,-7.7h43c4.3,0,7.7,3.4,7.7,7.7v25.3c0,4.3,-3.4,7.8,-7.7,7.8h-43c-4.3,0,-7.8,-3.5,-7.8,-7.8Z" class="g2_1114"/>
<path d="M648.4,302.5V277.2c0,-2.8,2.3,-5.2,5.2,-5.2h43c2.8,0,5.2,2.4,5.2,5.2v25.3c0,2.8,-2.4,5.2,-5.2,5.2h-43c-2.9,0,-5.2,-2.4,-5.2,-5.2Z" class="g3_1114"/>
<path d="M714.9,306.4H779V273.5H714.9v32.9Z" class="g1_1114"/>
<path d="M407,340.4V310.3m0,73V340.4" class="g0_1114"/>
<path d="M418,377.4h95.4V344.5H418v32.9Z" class="g1_1114"/>
<path d="M513.4,375.5V348.2c0,-4.3,3.5,-7.8,7.8,-7.8h61.1c4.3,0,7.8,3.5,7.8,7.8v27.3c0,4.3,-3.5,7.8,-7.8,7.8H521.2c-4.3,0,-7.8,-3.5,-7.8,-7.8Z" class="g2_1114"/>
<path d="M516,375.5V348.2c0,-2.8,2.3,-5.2,5.2,-5.2h61.1c2.8,0,5.2,2.4,5.2,5.2v27.3c0,2.9,-2.4,5.2,-5.2,5.2H521.2c-2.9,0,-5.2,-2.3,-5.2,-5.2Z" class="g3_1114"/>
<path d="M590.1,377.4H702.3V344.5H590.1v32.9Z" class="g1_1114"/>
<path d="M702.3,375.5V348.2c0,-4.3,3.5,-7.8,7.8,-7.8h61.1c4.3,0,7.8,3.5,7.8,7.8v27.3c0,4.3,-3.5,7.8,-7.8,7.8H710.1c-4.3,0,-7.8,-3.5,-7.8,-7.8Z" class="g2_1114"/>
<path d="M704.9,375.5V348.2c0,-2.8,2.4,-5.2,5.2,-5.2h61.1c2.9,0,5.2,2.4,5.2,5.2v27.3c0,2.9,-2.3,5.2,-5.2,5.2H710.1c-2.8,0,-5.2,-2.3,-5.2,-5.2Z" class="g3_1114"/>
<path d="M407,412.5V383.3M193,412.9H790m-597,0H790" class="g0_1114"/>
</svg>