<?xml version="1.0" encoding="UTF-8" standalone="no"?>
<!DOCTYPE svg PUBLIC "-//W3C//DTD SVG 1.1//EN"
"http://www.w3.org/Graphics/SVG/1.1/DTD/svg11.dtd">
<svg viewBox="0 0 1286 909" version="1.1" xmlns="http://www.w3.org/2000/svg" xmlns:xlink="http://www.w3.org/1999/xlink">
<defs>
<style type="text/css"><![CDATA[
.g0_950{
fill: none;
stroke: #000000;
stroke-width: 0.73;
stroke-linecap: butt;
stroke-linejoin: miter;
}
.g1_950{
fill: none;
stroke: #5EE200;
stroke-width: 1.461;
stroke-linecap: butt;
stroke-linejoin: miter;
stroke-dasharray: 2,2;
}
.g2_950{
fill: #AEF080;
}
.g3_950{
fill: none;
stroke: #02B5EE;
stroke-width: 1.262;
stroke-linecap: butt;
stroke-linejoin: miter;
}
.g4_950{
fill: none;
stroke: #5EE200;
stroke-width: 1.262;
stroke-linecap: butt;
stroke-linejoin: miter;
}
.g5_950{
fill: none;
stroke: #5EE200;
stroke-width: 0.73;
stroke-linecap: butt;
stroke-linejoin: miter;
}
.g6_950{
fill: none;
stroke: #02B5EE;
stroke-width: 0.73;
stroke-linecap: butt;
stroke-linejoin: miter;
}
]]></style>
</defs>
<path d="M193,83.4h900.3M193,210.6H927.9m-734.9,0H927.9M408.2,240.2V211m0,58.5V240.2m0,63.2V269.5" class="g0_950"/>
<path d="M747.3,297h31.6" class="g1_950"/>
<path d="M793.1,303.4H916.9V270.5H793.1v32.9Z" class="g2_950"/>
<path d="M408.2,333.6V303.4m0,63V333.6" class="g0_950"/>
<path d="M802.8,362.1h65.7" class="g1_950"/>
<path d="M872.2,366.4h44.7V333.6H872.2v32.8Z" class="g2_950"/>
<path d="M408.2,395.7V366.4m0,58.5V395.7m0,60.5V424.9m0,60.5V456.2m0,58.5V485.4m0,114.3v-85" class="g0_950"/>
<path d="M528.5,575.7h61.4" class="g3_950"/>
<path d="M600.4,575.7H760.2" class="g4_950"/>
<path d="M408.2,628.9V599.7m0,102.3V628.9" class="g0_950"/>
<path d="M731.1,688.1h84.5" class="g5_950"/>
<path d="M815.6,688.1H916.9" class="g6_950"/>
<path d="M408.2,731.2V702m0,58.4V731.2M193,760.8H927.9m-734.9,0H927.9" class="g0_950"/>
</svg>