<?xml version="1.0" encoding="UTF-8" standalone="no"?>
<!DOCTYPE svg PUBLIC "-//W3C//DTD SVG 1.1//EN"
"http://www.w3.org/Graphics/SVG/1.1/DTD/svg11.dtd">
<svg viewBox="0 0 1286 909" version="1.1" xmlns="http://www.w3.org/2000/svg" xmlns:xlink="http://www.w3.org/1999/xlink">
<defs>
<style type="text/css"><![CDATA[
.g0_838{
fill: none;
stroke: #000000;
stroke-width: 0.73;
stroke-linecap: butt;
stroke-linejoin: miter;
}
.g1_838{
fill: #B3E9FA;
}
.g2_838{
fill: none;
stroke: #02B5EE;
stroke-width: 1.262;
stroke-linecap: butt;
stroke-linejoin: miter;
}
.g3_838{
fill: none;
stroke: #5EE200;
stroke-width: 1.262;
stroke-linecap: butt;
stroke-linejoin: miter;
}
.g4_838{
fill: none;
stroke: #5EE200;
stroke-width: 0.73;
stroke-linecap: butt;
stroke-linejoin: miter;
}
.g5_838{
fill: none;
stroke: #02B5EE;
stroke-width: 0.73;
stroke-linecap: butt;
stroke-linejoin: miter;
}
]]></style>
</defs>
<path d="M193,83.4h900.3M193,210.6H894m-701,0H894M523,240.2V211m0,58.5V240.2m0,114.3v-85" class="g0_838"/>
<path d="M674.1,304.7V292.5c0,-2.9,2.3,-5.2,5.2,-5.2h89.3c2.9,0,5.2,2.3,5.2,5.2v12.2c0,2.9,-2.3,5.2,-5.2,5.2H679.3c-2.9,0,-5.2,-2.3,-5.2,-5.2Z" class="g1_838"/>
<path d="M671.5,330.5H776.4" class="g2_838"/>
<path d="M786.9,330.5H883" class="g3_838"/>
<path d="M523,383.7V354.5m0,58.4V383.7M523,498V412.9" class="g0_838"/>
<path d="M534,474H850.1" class="g2_838"/>
<path d="M860.6,474H883" class="g3_838"/>
<path d="M523,527.2V498m0,102.2v-73" class="g0_838"/>
<path d="M629,586.4h34.5" class="g4_838"/>
<path d="M663.5,586.4H883" class="g5_838"/>
<path d="M523,629.5V600.2m0,102.3v-73" class="g0_838"/>
<path d="M713.5,688.6h34.4" class="g4_838"/>
<path d="M747.9,688.6H883" class="g5_838"/>
<path d="M523,731.7V702.5m0,58.5V731.7M193,761.3H894m-701,0H894" class="g0_838"/>
</svg>