<?xml version="1.0" encoding="UTF-8" standalone="no"?>
<!DOCTYPE svg PUBLIC "-//W3C//DTD SVG 1.1//EN"
"http://www.w3.org/Graphics/SVG/1.1/DTD/svg11.dtd">
<svg viewBox="0 0 909 1286" version="1.1" xmlns="http://www.w3.org/2000/svg" xmlns:xlink="http://www.w3.org/1999/xlink">
<defs>
<clipPath id="c0_34"><path d="M122.1,217.9V187h30.8v30.9Z"/></clipPath>
<clipPath id="c1_34"><path d="M122.1,717.6V686.8h30.8v30.8Z"/></clipPath>
<clipPath id="c2_34"><path d="M122.1,217.9v-31H153v31Z"/></clipPath>
<clipPath id="c3_34"><path d="M122.1,717.6v-31H153v31Z"/></clipPath>
<style type="text/css"><![CDATA[
.g0_34{
fill: #FFFFFF;
}
.g1_34{
}
.g2_34{
fill: none;
stroke: #000000;
stroke-width: 1.461;
stroke-linecap: butt;
stroke-linejoin: miter;
}
.g3_34{
fill: none;
stroke: #000000;
stroke-width: 0.73;
stroke-linecap: butt;
stroke-linejoin: miter;
}
.g4_34{
fill: none;
stroke: #000000;
stroke-width: 2.739;
stroke-linecap: butt;
stroke-linejoin: miter;
}
]]></style>
</defs>
<path d="M117.7,521.5V180.3H791.8V521.5Z" class="g0_34"/>
<path d="M117.7,521.5V180.3H791.8V521.5Z" class="g2_34"/>
<g clip-path="url(#c2_34)">
<path clip-path="url(#c0_34)" d="M141.2,210.5c-3.2,0,-6.1,-1.2,-8.4,-3.4c-2.2,-2.2,-3.4,-5.2,-3.4,-8.3c0,-3.2,1.2,-6.1,3.4,-8.3c2.3,-2.3,5.2,-3.5,8.4,-3.5c3.1,0,6.1,1.2,8.3,3.5c4.6,4.5,4.6,12,0,16.6c-2.2,2.2,-5.2,3.4,-8.3,3.4Z" class="g1_34"/>
<path d="M141.2,189c-2.6,0,-5.1,1.1,-6.9,2.9c-3.8,3.8,-3.8,10,0,13.8c1.8,1.8,4.3,2.8,6.9,2.8c2.6,0,5,-1,6.8,-2.8c1.9,-1.9,2.9,-4.3,2.9,-6.9c0,-2.6,-1,-5.1,-2.9,-6.9c-1.8,-1.8,-4.2,-2.9,-6.8,-2.9Z" class="g0_34"/>
<path d="M124.4,217.9l-2.3,-2.4l8.6,-8.6l2.4,2.4Z" class="g1_34"/>
</g>
<path d="M152.7,211.7H573.1" class="g3_34"/>
<path d="M137.6,218.3V512" class="g4_34"/>
<path d="M117.7,875.2V680H791.8V875.2Z" class="g0_34"/>
<path d="M117.7,875.2V680H791.8V875.2Z" class="g2_34"/>
<g clip-path="url(#c3_34)">
<path clip-path="url(#c1_34)" d="M141.2,710.3c-3.2,0,-6.1,-1.2,-8.4,-3.5c-2.2,-2.2,-3.4,-5.1,-3.4,-8.3c0,-3.1,1.2,-6.1,3.4,-8.3c2.3,-2.2,5.2,-3.4,8.4,-3.4c3.1,0,6.1,1.2,8.3,3.4c4.6,4.6,4.6,12,0,16.6c-2.2,2.3,-5.2,3.5,-8.3,3.5Z" class="g1_34"/>
<path d="M141.2,688.8c-2.6,0,-5.1,1,-6.9,2.8c-3.8,3.8,-3.8,10,0,13.8c1.8,1.8,4.3,2.8,6.9,2.8c2.6,0,5,-1,6.8,-2.8c1.9,-1.8,2.9,-4.3,2.9,-6.9c0,-2.6,-1,-5,-2.9,-6.9c-1.8,-1.8,-4.2,-2.8,-6.8,-2.8Z" class="g0_34"/>
<path d="M124.4,717.6l-2.3,-2.4l8.6,-8.6l2.4,2.4Z" class="g1_34"/>
</g>
<path d="M152.7,711.4H573.1" class="g3_34"/>
<path d="M137.6,718.1V865.8" class="g4_34"/>
</svg>