<?xml version="1.0" encoding="UTF-8" standalone="no"?>
<!DOCTYPE svg PUBLIC "-//W3C//DTD SVG 1.1//EN"
"http://www.w3.org/Graphics/SVG/1.1/DTD/svg11.dtd">
<svg viewBox="0 0 1286 909" version="1.1" xmlns="http://www.w3.org/2000/svg" xmlns:xlink="http://www.w3.org/1999/xlink">
<defs>
<style type="text/css"><![CDATA[
.g0_880{
fill: none;
stroke: #000000;
stroke-width: 0.73;
stroke-linecap: butt;
stroke-linejoin: miter;
}
.g1_880{
fill: none;
stroke: #02B5EE;
stroke-width: 0.73;
stroke-linecap: butt;
stroke-linejoin: miter;
}
.g2_880{
fill: #B3E9FA;
}
.g3_880{
fill: none;
stroke: #02B5EE;
stroke-width: 1.262;
stroke-linecap: butt;
stroke-linejoin: miter;
}
.g4_880{
fill: none;
stroke: #5EE200;
stroke-width: 1.262;
stroke-linecap: butt;
stroke-linejoin: miter;
}
]]></style>
</defs>
<path d="M193,83.4h900.3M193,111.6h850.3m-850.3,0h850.3M597.6,141.2V112m0,102.3V141.2" class="g0_880"/>
<path d="M664.6,200.4h67.6" class="g1_880"/>
<path d="M597.6,243.5V214.3m0,58.4V243.5m0,58.5V272.7m0,114.3V302" class="g0_880"/>
<path d="M733.1,343.5V325c0,-2.9,2.3,-5.2,5.2,-5.2h80c2.9,0,5.2,2.3,5.2,5.2v18.5c0,2.9,-2.3,5.2,-5.2,5.2h-80c-2.9,0,-5.2,-2.3,-5.2,-5.2Z" class="g2_880"/>
<path d="M730.5,363h95.6" class="g3_880"/>
<path d="M836.6,363h195.7" class="g4_880"/>
<path d="M597.6,416.2V387M193,416.6h850.3m-850.3,0h850.3" class="g0_880"/>
</svg>