<?xml version="1.0" encoding="UTF-8" standalone="no"?>
<!DOCTYPE svg PUBLIC "-//W3C//DTD SVG 1.1//EN"
"http://www.w3.org/Graphics/SVG/1.1/DTD/svg11.dtd">
<svg viewBox="0 0 1286 909" version="1.1" xmlns="http://www.w3.org/2000/svg" xmlns:xlink="http://www.w3.org/1999/xlink">
<defs>
<style type="text/css"><![CDATA[
.g0_1213{
fill: none;
stroke: #000000;
stroke-width: 0.73;
stroke-linecap: butt;
stroke-linejoin: miter;
}
.g1_1213{
fill: #FDE8E9;
}
]]></style>
</defs>
<path d="M193,83.4h900.3M203.9,111.5H444.7M203.9,141.1V111.9m94.9,29.2V111.9m145.9,29.2V111.9M203.9,173.7V141.1m94.9,32.6V141.1" class="g0_1213"/>
<path d="M309.8,170.4H433.7V141.1H309.8v29.3Z" class="g1_1213"/>
<path d="M444.7,173.7V141.1M203.9,203V173.7M298.8,203V173.7M444.7,203V173.7M203.9,232.2V203m94.9,29.2V203m145.9,29.2V203M203.9,266.8V232.2m94.9,34.6V232.2" class="g0_1213"/>
<path d="M309.8,266.8h82.1V232.2H309.8v34.6Z" class="g1_1213"/>
<path d="M444.7,266.8V232.2M203.9,296V266.8M298.8,296V266.8M444.7,296V266.8M203.9,325.2V296m94.9,29.2V296m145.9,29.2V296M203.9,357.9V325.2m94.9,32.7V325.2" class="g0_1213"/>
<path d="M309.8,354.6H421.5V325.2H309.8v29.4Z" class="g1_1213"/>
<path d="M444.7,357.9V325.2M203.9,387.1V357.9m94.9,29.2V357.9m145.9,29.2V357.9M203.9,416.3V387.1m94.9,29.2V387.1m145.9,29.2V387.1M203.9,449V416.3M298.8,449V416.3" class="g0_1213"/>
<path d="M309.8,445.7h120V416.3h-120v29.4Z" class="g1_1213"/>
<path d="M444.7,449V416.3M203.9,478.2V449m94.9,29.2V449m145.9,29.2V449M203.9,507.4V478.2m94.9,29.2V478.2m145.9,29.2V478.2M203.9,540.1V507.4m94.9,32.7V507.4" class="g0_1213"/>
<path d="M309.8,536.8H422.3V507.4H309.8v29.4Z" class="g1_1213"/>
<path d="M444.7,540.1V507.4M203.9,569.3V540.1m94.9,29.2V540.1m145.9,29.2V540.1M203.9,598.5V569.3m94.9,29.2V569.3m145.9,29.2V569.3M203.9,633.1V598.5m94.9,34.6V598.5" class="g0_1213"/>
<path d="M309.8,633.1h91V598.5h-91v34.6Z" class="g1_1213"/>
<path d="M444.7,633.1V598.5M203.9,662.4V633.1m94.9,29.3V633.1m145.9,29.3V633.1M203.9,691.6V662.4m94.9,29.2V662.4m145.9,29.2V662.4M203.9,724.2V691.6m94.9,32.6V691.6" class="g0_1213"/>
<path d="M309.8,720.9H382V691.6H309.8v29.3Z" class="g1_1213"/>
<path d="M444.7,724.2V691.6M203.9,753.5V724.2m94.9,29.3V724.2m145.9,29.3V724.2M203.9,753.8H444.7m21.9,-643H783.2M466.6,140.4V111.1m143.5,29.3V111.1m173.1,29.3V111.1M466.6,173V140.4M610.1,173V140.4" class="g0_1213"/>
<path d="M621.1,169.7h87.6V140.4H621.1v29.3Z" class="g1_1213"/>
<path d="M783.2,173V140.4M466.6,202.2V173m143.5,29.2V173m173.1,29.2V173M466.6,231.4V202.2m143.5,29.2V202.2m173.1,29.2V202.2M466.6,266.1V231.4m143.5,34.7V231.4" class="g0_1213"/>
<path d="M621.1,266.1h96.8V231.4H621.1v34.7Z" class="g1_1213"/>
<path d="M783.2,266.1V231.4M466.6,295.3V266.1m143.5,29.2V266.1m173.1,29.2V266.1M466.6,324.5V295.3m143.5,29.2V295.3m173.1,29.2V295.3M466.6,354.7V324.5m143.5,30.2V324.5" class="g0_1213"/>
<path d="M621.1,351.4h89.4V328.1H621.1v23.3Z" class="g1_1213"/>
<path d="M783.2,354.7V324.5M466.6,383.9V354.7m143.5,29.2V354.7m173.1,29.2V354.7M466.6,413.1V383.9m143.5,29.2V383.9m173.1,29.2V383.9M466.6,445.8V413.1m143.5,32.7V413.1" class="g0_1213"/>
<path d="M621.1,442.5H721V413.1H621.1v29.4Z" class="g1_1213"/>
<path d="M783.2,445.8V413.1M466.6,475V445.8M610.1,475V445.8M783.2,475V445.8M466.6,504.2V475m143.5,29.2V475m173.1,29.2V475M466.6,538.8V504.2m143.5,34.6V504.2" class="g0_1213"/>
<path d="M621.1,538.8H772.2V504.2H621.1v34.6Z" class="g1_1213"/>
<path d="M783.2,538.8V504.2M466.6,568.1V538.8m143.5,29.3V538.8m173.1,29.3V538.8M466.6,597.3V568.1m143.5,29.2V568.1m173.1,29.2V568.1M466.6,631.9V597.3m143.5,34.6V597.3" class="g0_1213"/>
<path d="M621.1,631.9H734V597.3H621.1v34.6Z" class="g1_1213"/>
<path d="M783.2,631.9V597.3M466.6,661.1V631.9m143.5,29.2V631.9m173.1,29.2V631.9M466.6,690.3V661.1m143.5,29.2V661.1m173.1,29.2V661.1M466.6,725V690.3M610.1,725V690.3" class="g0_1213"/>
<path d="M621.1,725H732.6V690.3H621.1V725Z" class="g1_1213"/>
<path d="M783.2,725V690.3M466.6,754.2V725m143.5,29.2V725m173.1,29.2V725M466.6,754.6H783.2M805.1,109.5h275.5M805.1,139.1V109.9m70.6,29.2V109.9m204.9,29.2V109.9M805.1,173.7V139.1m70.6,34.6V139.1" class="g0_1213"/>
<path d="M886.6,173.7h84V139.1h-84v34.6Z" class="g1_1213"/>
<path d="M1080.6,173.7V139.1M805.1,203V173.7M875.7,203V173.7M1080.6,203V173.7M805.1,232.2V203m70.6,29.2V203m204.9,29.2V203M805.1,264.8V232.2m70.6,32.6V232.2" class="g0_1213"/>
<path d="M886.6,261.5h183V232.2h-183v29.3Z" class="g1_1213"/>
<path d="M1080.6,264.8V232.2M805.1,294V264.8M875.7,294V264.8M1080.6,294V264.8M805.1,323.3V294m70.6,29.3V294m204.9,29.3V294M805.1,357.9V323.3m70.6,34.6V323.3" class="g0_1213"/>
<path d="M886.6,357.9H990.8V323.3H886.6v34.6Z" class="g1_1213"/>
<path d="M1080.6,357.9V323.3M805.1,387.1V357.9m70.6,29.2V357.9m204.9,29.2V357.9M805.1,416.3V387.1m70.6,29.2V387.1m204.9,29.2V387.1M805.1,451V416.3M875.7,451V416.3" class="g0_1213"/>
<path d="M886.6,451h116.2V416.3H886.6V451Z" class="g1_1213"/>
<path d="M1080.6,451V416.3M805.1,480.2V451m70.6,29.2V451m204.9,29.2V451M805.1,509.4V480.2m70.6,29.2V480.2m204.9,29.2V480.2M805.1,542V509.4M875.7,542V509.4" class="g0_1213"/>
<path d="M886.6,538.8h89.7V509.4H886.6v29.4Z" class="g1_1213"/>
<path d="M1080.6,542V509.4M805.1,571.3V542m70.6,29.3V542m204.9,29.3V542M805.1,600.5V571.3m70.6,29.2V571.3m204.9,29.2V571.3M805.1,633.1V600.5m70.6,32.6V600.5" class="g0_1213"/>
<path d="M886.6,629.8h136.6V600.5H886.6v29.3Z" class="g1_1213"/>
<path d="M1080.6,633.1V600.5M805.1,662.4V633.1m70.6,29.3V633.1m204.9,29.3V633.1M805.1,691.6V662.4m70.6,29.2V662.4m204.9,29.2V662.4M805.1,726.2V691.6m70.6,34.6V691.6" class="g0_1213"/>
<path d="M886.6,726.2h76.6V691.6H886.6v34.6Z" class="g1_1213"/>
<path d="M1080.6,726.2V691.6M805.1,755.4V726.2m70.6,29.2V726.2m204.9,29.2V726.2M805.1,755.8h275.5" class="g0_1213"/>
</svg>