<?xml version="1.0" encoding="UTF-8" standalone="no"?>
<!DOCTYPE svg PUBLIC "-//W3C//DTD SVG 1.1//EN"
"http://www.w3.org/Graphics/SVG/1.1/DTD/svg11.dtd">
<svg viewBox="0 0 909 1286" version="1.1" xmlns="http://www.w3.org/2000/svg" xmlns:xlink="http://www.w3.org/1999/xlink">
<defs>
<style type="text/css"><![CDATA[
.g0_15{
fill: none;
stroke: #000000;
stroke-width: 0.73;
stroke-linecap: butt;
stroke-linejoin: miter;
}
.g1_15{
fill: none;
stroke: #000000;
stroke-width: 9.132;
stroke-linecap: butt;
stroke-linejoin: miter;
}
.g2_15{
fill: none;
stroke: #F81693;
stroke-width: 0.73;
stroke-linecap: butt;
stroke-linejoin: miter;
}
.g3_15{
fill: none;
stroke: #02B5EE;
stroke-width: 0.73;
stroke-linecap: butt;
stroke-linejoin: miter;
}
.g4_15{
fill: none;
stroke: #02B5EE;
stroke-width: 1.461;
stroke-linecap: butt;
stroke-linejoin: miter;
}
]]></style>
</defs>
<path d="M116.9,261.9H783.4M117.3,472V262.3M783,472V262.3m-666.1,210H783.4" class="g0_15"/>
<path d="M126.1,477.3H792.5m-4.6,4.5V270.7" class="g1_15"/>
<path d="M116.9,513.3H559.7M307.3,542.8V513.6M127.9,588.5l18.8,-31.2m0,0h36.5m18.9,31.2L183.2,557.3m18.9,31.2l-18.9,31.2m-36.5,0h36.5M127.9,588.5l18.8,31.2M135.6,587.4l14.2,-23.7m44.6,23.7L180.1,563.7m-28.6,50h27m23.6,-25.2h25.5m79.7,36.2V542.8" class="g0_15"/>
<path d="M358.5,588.5l18.8,-31.2m0,0h36.5m18.8,31.2L413.8,557.3m18.8,31.2l-18.8,31.2m-36.5,0h36.5M358.5,588.5l18.8,31.2M366.1,587.4l14.3,-23.7m44.5,23.7L410.7,563.7m-28.7,50h27" class="g2_15"/>
<path d="M432.6,588.5h25.6" class="g3_15"/>
<path d="M307.3,653.9V624.7m0,58.4V653.9m0,58.5V683.1M116.9,712.7H559.7M307.3,742.3V713.1M161,800.2l31.2,18.6M161,800.2l-31.3,18.6M161,800.2V774.6M192.2,819v25.6m31.2,-44.4l-31.2,18.6m115.1,41.9V742.3" class="g0_15"/>
<path d="M397.9,804l18.3,11M385.1,804l-18.2,11" class="g2_15"/>
<path d="M391.5,794.7V774.6m31.2,49.9v20.1" class="g3_15"/>
<path d="M447.6,804l-18.3,11" class="g2_15"/>
<path d="M307.3,889.9V860.7m0,58.4V889.9" class="g0_15"/>
<path d="M454.4,920.3c1.4,0,2.1,-2.8,3.4,-2.8c1,0,1.9,1.4,2.8,2.8c.9,1.4,1.7,2.7,2.7,2.7c1,0,1.9,-1.3,2.8,-2.7c.9,-1.4,1.7,-2.8,2.7,-2.8c1,0,1.8,1.4,2.7,2.8c.9,1.4,1.8,2.7,2.8,2.7c1,0,1.8,-1.3,2.7,-2.7c.9,-1.4,1.8,-2.8,2.8,-2.8c1,0,1.8,1.4,2.7,2.8c.9,1.4,1.7,2.7,2.7,2.7c1,0,1.9,-1.3,2.8,-2.7c.9,-1.4,1.7,-2.8,2.7,-2.8c1.4,0,2.1,2.8,3.4,2.8h1" class="g4_15"/>
<path d="M307.3,948.3V919.1M116.9,948.7H559.7" class="g0_15"/>
</svg>