<?xml version="1.0" encoding="UTF-8" standalone="no"?>
<!DOCTYPE svg PUBLIC "-//W3C//DTD SVG 1.1//EN"
"http://www.w3.org/Graphics/SVG/1.1/DTD/svg11.dtd">
<svg viewBox="0 0 909 1286" version="1.1" xmlns="http://www.w3.org/2000/svg" xmlns:xlink="http://www.w3.org/1999/xlink">
<defs>
<style type="text/css"><![CDATA[
.g0_54{
fill: none;
stroke: #000000;
stroke-width: 0.73;
stroke-linecap: butt;
stroke-linejoin: miter;
}
.g1_54{
fill: #FCA2D4;
stroke: #000000;
stroke-width: 0.73;
stroke-linecap: butt;
stroke-linejoin: miter;
}
.g2_54{
fill: #BFF399;
stroke: #000000;
stroke-width: 0.73;
stroke-linecap: butt;
stroke-linejoin: miter;
}
.g3_54{
fill: #FDE8E9;
}
.g4_54{
fill: #FFC871;
stroke: #000000;
stroke-width: 0.73;
stroke-linecap: butt;
stroke-linejoin: miter;
}
]]></style>
</defs>
<path d="M116.9,159.9H792.5" class="g0_54"/>
<path d="M282.9,231.6c0,-11.3,-9.2,-20.5,-20.6,-20.5c-11.3,0,-20.5,9.2,-20.5,20.5c0,11.4,9.2,20.6,20.5,20.6c11.4,0,20.6,-9.2,20.6,-20.6Z" class="g1_54"/>
<path d="M220.5,294c0,-11.4,-9.2,-20.6,-20.6,-20.6c-11.3,0,-20.5,9.2,-20.5,20.6c0,11.3,9.2,20.5,20.5,20.5c11.4,0,20.6,-9.2,20.6,-20.5ZM247.5,246.4l-32.8,32.8" class="g0_54"/>
<path d="M189.3,356.4c0,-11.4,-9.2,-20.6,-20.5,-20.6c-11.4,0,-20.6,9.2,-20.6,20.6c0,11.3,9.2,20.5,20.6,20.5c11.3,0,20.5,-9.2,20.5,-20.5Z" class="g2_54"/>
<path d="M190.6,312.7l-12.5,24.9" class="g0_54"/>
<path d="M251.7,356.4c0,-11.4,-9.2,-20.6,-20.6,-20.6c-11.3,0,-20.5,9.2,-20.5,20.6c0,11.3,9.2,20.5,20.5,20.5c11.4,0,20.6,-9.2,20.6,-20.5Z" class="g2_54"/>
<path d="M209.3,312.7l12.5,24.9M345.2,294c0,-11.4,-9.2,-20.6,-20.5,-20.6c-11.4,0,-20.6,9.2,-20.6,20.6c0,11.3,9.2,20.5,20.6,20.5c11.3,0,20.5,-9.2,20.5,-20.5ZM277.1,246.4l32.8,32.8" class="g0_54"/>
<path d="M314,356.4c0,-11.4,-9.2,-20.6,-20.5,-20.6c-11.4,0,-20.6,9.2,-20.6,20.6c0,11.3,9.2,20.5,20.6,20.5c11.3,0,20.5,-9.2,20.5,-20.5Z" class="g2_54"/>
<path d="M315.3,312.7l-12.5,24.9" class="g0_54"/>
<path d="M376.4,356.4c0,-11.4,-9.2,-20.6,-20.5,-20.6c-11.4,0,-20.6,9.2,-20.6,20.6c0,11.3,9.2,20.5,20.6,20.5c11.3,0,20.5,-9.2,20.5,-20.5Z" class="g2_54"/>
<path d="M334,312.7l12.5,24.9" class="g0_54"/>
<path d="M615.7,200.4c0,-11.3,-9.2,-20.5,-20.5,-20.5c-11.4,0,-20.6,9.2,-20.6,20.5c0,11.4,9.2,20.6,20.6,20.6c11.3,0,20.5,-9.2,20.5,-20.6Z" class="g1_54"/>
<path d="M532.6,262.8c0,-11.3,-9.2,-20.5,-20.6,-20.5c-11.3,0,-20.5,9.2,-20.5,20.5c0,11.4,9.2,20.6,20.5,20.6c11.4,0,20.6,-9.2,20.6,-20.6ZM578.4,213l-49.6,37.3M491,325.2c0,-11.4,-9.2,-20.6,-20.6,-20.6c-11.3,0,-20.5,9.2,-20.5,20.6c0,11.3,9.2,20.5,20.5,20.5c11.4,0,20.6,-9.2,20.6,-20.5ZM500.4,280.2L482,307.8" class="g0_54"/>
<path d="M470.2,387.5C470.2,376.2,461,367,449.7,367c-11.4,0,-20.6,9.2,-20.6,20.5c0,11.4,9.2,20.6,20.6,20.6c11.3,0,20.5,-9.2,20.5,-20.6Z" class="g2_54"/>
<path d="M463.8,345l-7.5,22.7" class="g0_54"/>
<path d="M511.8,387.5c0,-11.3,-9.2,-20.5,-20.6,-20.5c-11.3,0,-20.5,9.2,-20.5,20.5c0,11.4,9.2,20.6,20.5,20.6c11.4,0,20.6,-9.2,20.6,-20.6Z" class="g2_54"/>
<path d="M477.1,345l7.5,22.7m89.5,-42.5c0,-11.4,-9.2,-20.6,-20.5,-20.6c-11.4,0,-20.6,9.2,-20.6,20.6c0,11.3,9.2,20.5,20.6,20.5c11.3,0,20.5,-9.2,20.5,-20.5ZM523.6,280.2L542,307.8" class="g0_54"/>
<path d="M553.4,387.5c0,-11.3,-9.2,-20.5,-20.6,-20.5c-11.3,0,-20.5,9.2,-20.5,20.5c0,11.4,9.2,20.6,20.5,20.6c11.4,0,20.6,-9.2,20.6,-20.6Z" class="g2_54"/>
<path d="M547,345l-7.6,22.7" class="g0_54"/>
<path d="M594.9,387.5c0,-11.3,-9.2,-20.5,-20.5,-20.5c-11.4,0,-20.6,9.2,-20.6,20.5c0,11.4,9.2,20.6,20.6,20.6c11.3,0,20.5,-9.2,20.5,-20.6Z" class="g2_54"/>
<path d="M560.2,345l7.6,22.7M698.9,262.8c0,-11.3,-9.2,-20.5,-20.6,-20.5c-11.3,0,-20.5,9.2,-20.5,20.5c0,11.4,9.2,20.6,20.5,20.6c11.4,0,20.6,-9.2,20.6,-20.6ZM611.9,213l49.7,37.3m-4.3,74.9c0,-11.4,-9.2,-20.6,-20.6,-20.6c-11.3,0,-20.5,9.2,-20.5,20.6c0,11.3,9.2,20.5,20.5,20.5c11.4,0,20.6,-9.2,20.6,-20.5ZM666.7,280.2l-18.4,27.6" class="g0_54"/>
<path d="M636.5,387.5C636.5,376.2,627.3,367,616,367c-11.4,0,-20.6,9.2,-20.6,20.5c0,11.4,9.2,20.6,20.6,20.6c11.3,0,20.5,-9.2,20.5,-20.6Z" class="g2_54"/>
<path d="M630.1,345l-7.5,22.7" class="g0_54"/>
<path d="M678.1,387.5c0,-11.3,-9.2,-20.5,-20.6,-20.5c-11.3,0,-20.5,9.2,-20.5,20.5c0,11.4,9.2,20.6,20.5,20.6c11.4,0,20.6,-9.2,20.6,-20.6Z" class="g2_54"/>
<path d="M643.4,345l7.5,22.7m89.6,-42.5c0,-11.4,-9.3,-20.6,-20.6,-20.6c-11.4,0,-20.6,9.2,-20.6,20.6c0,11.3,9.2,20.5,20.6,20.5c11.3,0,20.6,-9.2,20.6,-20.5ZM689.9,280.2l18.4,27.6" class="g0_54"/>
<path d="M719.7,387.5c0,-11.3,-9.2,-20.5,-20.6,-20.5c-11.3,0,-20.5,9.2,-20.5,20.5c0,11.4,9.2,20.6,20.5,20.6c11.4,0,20.6,-9.2,20.6,-20.6Z" class="g2_54"/>
<path d="M713.3,345l-7.6,22.7" class="g0_54"/>
<path d="M761.2,387.5C761.2,376.2,752,367,740.7,367c-11.4,0,-20.6,9.2,-20.6,20.5c0,11.4,9.2,20.6,20.6,20.6c11.3,0,20.5,-9.2,20.5,-20.6Z" class="g2_54"/>
<path d="M726.5,345l7.6,22.7" class="g0_54"/>
<path d="M319.6,509.5H415V481.6H319.6v27.9Z" class="g3_54"/>
<path d="M431.9,511.6H619.4V483.7H431.9v27.9Z" class="g3_54"/>
<path d="M285.8,584.7H429.4V556.8H285.8v27.9Z" class="g3_54"/>
<path d="M235.2,614.4h61.6V586.5H235.2v27.9Z" class="g3_54"/>
<path d="M334.8,678.4c0,-9.2,-7.4,-16.6,-16.5,-16.6c-9.2,0,-16.6,7.4,-16.6,16.6c0,9.1,7.4,16.5,16.6,16.5c9.1,0,16.5,-7.4,16.5,-16.5Z" class="g4_54"/>
<path d="M272.5,740.7c0,-9.1,-7.4,-16.5,-16.6,-16.5c-9.1,0,-16.5,7.4,-16.5,16.5c0,9.2,7.4,16.6,16.5,16.6c9.2,0,16.6,-7.4,16.6,-16.6Z" class="g4_54"/>
<path d="M306.3,690.3l-38.4,38.5m-26.6,74.3c0,-9.2,-7.4,-16.6,-16.6,-16.6c-9.1,0,-16.5,7.4,-16.5,16.6c0,9.1,7.4,16.5,16.5,16.5c9.2,0,16.6,-7.4,16.6,-16.5ZM248.3,755.8l-16,32.1m71.3,15.2c0,-9.2,-7.4,-16.6,-16.5,-16.6c-9.1,0,-16.6,7.4,-16.6,16.6c0,9.1,7.5,16.5,16.6,16.5c9.1,0,16.5,-7.4,16.5,-16.5ZM263.5,755.8l16,32.1" class="g0_54"/>
<path d="M397.2,740.7c0,-9.1,-7.4,-16.5,-16.6,-16.5c-9.1,0,-16.5,7.4,-16.5,16.5c0,9.2,7.4,16.6,16.5,16.6c9.2,0,16.6,-7.4,16.6,-16.6Z" class="g4_54"/>
<path d="M330.2,690.3l38.5,38.5m28.5,74.3c0,-9.2,-7.4,-16.6,-16.6,-16.6c-9.1,0,-16.5,7.4,-16.5,16.6c0,9.1,7.4,16.5,16.5,16.5c9.2,0,16.6,-7.4,16.6,-16.5ZM380.6,757.6v28.6" class="g0_54"/>
<path d="M607.7,647.2c0,-9.2,-7.4,-16.6,-16.5,-16.6c-9.2,0,-16.6,7.4,-16.6,16.6c0,9.1,7.4,16.5,16.6,16.5c9.1,0,16.5,-7.4,16.5,-16.5Z" class="g4_54"/>
<path d="M545.4,709.5c0,-9.1,-7.5,-16.5,-16.6,-16.5c-9.1,0,-16.5,7.4,-16.5,16.5c0,9.2,7.4,16.6,16.5,16.6c9.1,0,16.6,-7.4,16.6,-16.6Z" class="g4_54"/>
<path d="M579.2,659.1l-38.4,38.5" class="g0_54"/>
<path d="M514.2,771.9c0,-9.1,-7.4,-16.6,-16.6,-16.6c-9.1,0,-16.5,7.5,-16.5,16.6c0,9.1,7.4,16.6,16.5,16.6c9.2,0,16.6,-7.5,16.6,-16.6Z" class="g4_54"/>
<path d="M521.2,724.7l-16,32.1M483,834.3c0,-9.2,-7.4,-16.6,-16.6,-16.6c-9.1,0,-16.5,7.4,-16.5,16.6c0,9.1,7.4,16.5,16.5,16.5c9.2,0,16.6,-7.4,16.6,-16.5ZM490.1,787L474,819.1m71.4,15.2c0,-9.2,-7.5,-16.6,-16.6,-16.6c-9.1,0,-16.5,7.4,-16.5,16.6c0,9.1,7.4,16.5,16.5,16.5c9.1,0,16.6,-7.4,16.6,-16.5ZM505.2,787l16,32.1" class="g0_54"/>
<path d="M576.5,771.9c0,-9.1,-7.4,-16.6,-16.5,-16.6c-9.2,0,-16.6,7.5,-16.6,16.6c0,9.1,7.4,16.6,16.6,16.6c9.1,0,16.5,-7.5,16.5,-16.6Z" class="g4_54"/>
<path d="M536.4,724.7l16,32.1" class="g0_54"/>
<path d="M670.1,709.5c0,-9.1,-7.4,-16.5,-16.6,-16.5c-9.1,0,-16.5,7.4,-16.5,16.5c0,9.2,7.4,16.6,16.5,16.6c9.2,0,16.6,-7.4,16.6,-16.6Z" class="g4_54"/>
<path d="M603.1,659.1l38.5,38.5" class="g0_54"/>
<path d="M638.9,771.9c0,-9.1,-7.4,-16.6,-16.5,-16.6c-9.2,0,-16.6,7.5,-16.6,16.6c0,9.1,7.4,16.6,16.6,16.6c9.1,0,16.5,-7.5,16.5,-16.6Z" class="g4_54"/>
<path d="M646,724.7l-16.1,32.1" class="g0_54"/>
<path d="M701.3,771.9c0,-9.1,-7.4,-16.6,-16.6,-16.6c-9.1,0,-16.5,7.5,-16.5,16.6c0,9.1,7.4,16.6,16.5,16.6c9.2,0,16.6,-7.5,16.6,-16.6Z" class="g4_54"/>
<path d="M661.1,724.7l16,32.1" class="g0_54"/>
<path d="M289.8,1042.2H619.7v-28.3H289.8v28.3Z" class="g3_54"/>
</svg>