<?xml version="1.0" encoding="UTF-8" standalone="no"?>
<!DOCTYPE svg PUBLIC "-//W3C//DTD SVG 1.1//EN"
"http://www.w3.org/Graphics/SVG/1.1/DTD/svg11.dtd">
<svg viewBox="0 0 1286 909" version="1.1" xmlns="http://www.w3.org/2000/svg" xmlns:xlink="http://www.w3.org/1999/xlink">
<defs>
<style type="text/css"><![CDATA[
.g0_1147{
fill: none;
stroke: #000000;
stroke-width: 0.73;
stroke-linecap: butt;
stroke-linejoin: miter;
}
.g1_1147{
fill: none;
stroke: #02B5EE;
stroke-width: 1.262;
stroke-linecap: butt;
stroke-linejoin: miter;
}
.g2_1147{
fill: none;
stroke: #5EE200;
stroke-width: 1.262;
stroke-linecap: butt;
stroke-linejoin: miter;
}
.g3_1147{
fill: none;
stroke: #5EE200;
stroke-width: 0.73;
stroke-linecap: butt;
stroke-linejoin: miter;
}
.g4_1147{
fill: none;
stroke: #02B5EE;
stroke-width: 0.73;
stroke-linecap: butt;
stroke-linejoin: miter;
}
.g5_1147{
fill: #AEF080;
}
.g6_1147{
fill: none;
stroke: #5EE200;
stroke-width: 1.461;
stroke-linecap: butt;
stroke-linejoin: miter;
stroke-dasharray: 2,2;
}
]]></style>
</defs>
<path d="M193,83.4h900.3M193,210.6H1209.8M193,210.6H1209.8M696.5,240.2V211m0,58.5V240.2m0,114.3v-85" class="g0_1147"/>
<path d="M1086,330.5h44.6" class="g1_1147"/>
<path d="M1141.2,330.5h57.7" class="g2_1147"/>
<path d="M696.5,384.6V354.5m0,103.2V384.6" class="g0_1147"/>
<path d="M1024.8,443.8h100.4" class="g3_1147"/>
<path d="M1131.3,443.8h67.6" class="g4_1147"/>
<path d="M696.5,486.9V457.7m0,58.5V486.9m0,60.1V516.2m0,61V547m0,59.4V577.2m0,58.4V606.4m0,63.2v-34" class="g0_1147"/>
<path d="M975.4,669.6h131.5V636.7H975.4v32.9Z" class="g5_1147"/>
<path d="M1121,663.2h74.2" class="g6_1147"/>
<path d="M696.5,698.8V669.6m0,62.1V698.8" class="g0_1147"/>
<path d="M1051.2,727.3H1116" class="g6_1147"/>
<path d="M1119.7,731.7h79.2V698.8h-79.2v32.9Z" class="g5_1147"/>
<path d="M696.5,760.9V731.7M193,761.3H1209.8M193,761.3H1209.8" class="g0_1147"/>
</svg>