<?xml version="1.0" encoding="UTF-8" standalone="no"?>
<!DOCTYPE svg PUBLIC "-//W3C//DTD SVG 1.1//EN"
"http://www.w3.org/Graphics/SVG/1.1/DTD/svg11.dtd">
<svg viewBox="0 0 909 1286" version="1.1" xmlns="http://www.w3.org/2000/svg" xmlns:xlink="http://www.w3.org/1999/xlink">
<defs>
<style type="text/css"><![CDATA[
.g0_29{
fill: none;
stroke: #000000;
stroke-width: 0.73;
stroke-linecap: butt;
stroke-linejoin: miter;
}
.g1_29{
fill: none;
stroke: #F81693;
stroke-width: 0.73;
stroke-linecap: butt;
stroke-linejoin: miter;
}
.g2_29{
fill: none;
stroke: #02B5EE;
stroke-width: 0.73;
stroke-linecap: butt;
stroke-linejoin: miter;
}
.g3_29{
fill: none;
stroke: #02B5EE;
stroke-width: 1.461;
stroke-linecap: butt;
stroke-linejoin: miter;
}
.g4_29{
fill: none;
stroke: #F81693;
stroke-width: 1.461;
stroke-linecap: butt;
stroke-linejoin: miter;
}
.g5_29{
fill: #FFFFFF;
}
.g6_29{
fill: #FDE8E9;
}
]]></style>
</defs>
<path d="M116.9,179.9H727.6M352.9,209.5V180.3M283.5,265l24.9,14.8m-56.1,40.6V283.8M283.5,265l-31.2,18.6M221.1,265l31.2,18.6m-31.2,55.6l31.2,-18.7m-31.2,18.7L189.8,320.5m0,-.1V283.8M221.1,265l-31.3,18.6m32.4,-10.9l23,13.7m-49.4,29.2v-27m26.4,42.9l23,-13.7M281.3,265V239.4m4.4,25.6V239.4m-64.6,99.8v25.5M189.8,320.4l-21.9,13.1m21.9,-49.7L167.9,270.7m185,121.1V209.5" class="g0_29"/>
<path d="M559.7,265l24.9,14.8M528.5,313V293m31.2,-28l-24.8,14.8M497.3,265l24.8,14.8m-18.4,55.5l18.2,-10.9m-31,10.9L472.6,324.4M466,313V293m31.3,-28l-24.9,14.8m26,-7.1l18.2,10.9M472.1,313V293m31.6,35.2l18.2,-11M557.6,265V239.4m4.3,25.6V239.4" class="g1_29"/>
<path d="M497.3,344.6v20.1m-36.7,-40l-18.3,11m18.3,-56.3L442.3,268.5" class="g2_29"/>
<path d="M352.9,421V391.8m0,58.4V421" class="g0_29"/>
<path d="M381.1,451.4c1.4,0,2.1,-2.7,3.5,-2.7c1,0,1.8,1.3,2.7,2.7c.9,1.4,1.8,2.7,2.8,2.7c.9,0,1.8,-1.3,2.7,-2.7c.9,-1.4,1.7,-2.7,2.7,-2.7c1,0,1.9,1.3,2.8,2.7c.9,1.4,1.7,2.7,2.7,2.7c1,0,1.9,-1.3,2.7,-2.7c.9,-1.4,1.8,-2.7,2.8,-2.7c1,0,1.8,1.3,2.7,2.7c.9,1.4,1.8,2.7,2.8,2.7c1,0,1.8,-1.3,2.7,-2.7c.9,-1.4,1.8,-2.7,2.7,-2.7c1,0,1.9,1.3,2.8,2.7c.9,1.4,1.7,2.7,2.7,2.7c1,0,1.9,-1.3,2.8,-2.7c.9,-1.4,1.7,-2.7,2.7,-2.7c1,0,1.9,1.3,2.7,2.7c.9,1.4,1.8,2.7,2.8,2.7c1,0,1.8,-1.3,2.7,-2.7c.9,-1.4,1.8,-2.7,2.8,-2.7c1,0,1.8,1.3,2.7,2.7c.9,1.4,1.8,2.7,2.7,2.7c1,0,1.9,-1.3,2.8,-2.7c.9,-1.4,1.7,-2.7,2.7,-2.7c1,0,1.9,1.3,2.8,2.7c.9,1.4,1.7,2.7,2.7,2.7c1,0,1.9,-1.3,2.7,-2.7c.9,-1.4,1.8,-2.7,2.8,-2.7c1.4,0,2,2.7,3.4,2.7h3.6" class="g3_29"/>
<path d="M567.9,448.8c1.4,0,2.1,-2.8,3.5,-2.8c1,0,1.8,1.4,2.7,2.8c.9,1.4,1.7,2.7,2.7,2.7c1,0,1.9,-1.3,2.8,-2.7c.9,-1.4,1.7,-2.8,2.7,-2.8c1,0,1.9,1.4,2.8,2.8c.9,1.4,1.7,2.7,2.7,2.7c1,0,1.8,-1.3,2.7,-2.7c.9,-1.4,1.8,-2.8,2.8,-2.8c1,0,1.8,1.4,2.7,2.8c.9,1.4,1.8,2.7,2.8,2.7c1,0,1.8,-1.3,2.7,-2.7c.9,-1.4,1.7,-2.8,2.7,-2.8c1,0,1.9,1.4,2.8,2.8c.9,1.4,1.7,2.7,2.7,2.7c1,0,1.9,-1.3,2.8,-2.7c.9,-1.4,1.7,-2.8,2.7,-2.8c1,0,1.8,1.4,2.7,2.8c.9,1.4,1.8,2.7,2.8,2.7c1,0,1.8,-1.3,2.7,-2.7c.9,-1.4,1.8,-2.8,2.8,-2.8c.9,0,1.8,1.4,2.7,2.8c.9,1.4,1.7,2.7,2.7,2.7c1,0,1.9,-1.3,2.8,-2.7c.9,-1.4,1.7,-2.8,2.7,-2.8c1,0,1.9,1.4,2.8,2.8c.8,1.4,1.7,2.7,2.7,2.7c1,0,1.8,-1.3,2.7,-2.7c.9,-1.4,1.8,-2.8,2.8,-2.8c1,0,1.8,1.4,2.7,2.8c.9,1.4,1.8,2.7,2.8,2.7c.9,0,1.8,-1.3,2.7,-2.7c.9,-1.4,1.7,-2.8,2.7,-2.8c1,0,1.9,1.4,2.8,2.8c.9,1.4,1.7,2.7,2.7,2.7c1,0,1.9,-1.3,2.8,-2.7c.8,-1.4,1.7,-2.8,2.7,-2.8c1,0,1.8,1.4,2.7,2.8c.9,1.4,1.8,2.7,2.8,2.7c1,0,1.8,-1.3,2.7,-2.7c.9,-1.4,1.8,-2.8,2.8,-2.8c.9,0,1.8,1.4,2.7,2.8c.9,1.4,1.7,2.7,2.7,2.7c1,0,1.9,-1.3,2.8,-2.7c.9,-1.4,1.7,-2.8,2.7,-2.8c1,0,1.9,1.4,2.8,2.8c.8,1.4,1.7,2.7,2.7,2.7c1,0,1.8,-1.3,2.7,-2.7c.9,-1.4,1.8,-2.8,2.8,-2.8c1,0,1.8,1.4,2.7,2.8c.9,1.4,1.8,2.7,2.8,2.7c1.3,0,2,-2.7,3.4,-2.7h4.8" class="g4_29"/>
<path d="M352.9,479.4V450.2m0,105.8V479.4" class="g0_29"/>
<path d="M430.5,548.2v-61c0,-2.8,2.4,-5.2,5.2,-5.2H605c2.9,0,5.2,2.4,5.2,5.2v61c0,2.8,-2.3,5.2,-5.2,5.2H435.7c-2.8,0,-5.2,-2.4,-5.2,-5.2Z" class="g5_29"/>
<path d="M492.1,578.9h56.6V562.4H492.1v16.5Z" class="g6_29"/>
<path d="M456.5,537.8H584.2V497.6H456.5v40.2Z" class="g6_29"/>
<path d="M352.9,585.2V556m-236,29.6H727.6" class="g0_29"/>
</svg>