<?xml version="1.0" encoding="UTF-8" standalone="no"?>
<!DOCTYPE svg PUBLIC "-//W3C//DTD SVG 1.1//EN"
"http://www.w3.org/Graphics/SVG/1.1/DTD/svg11.dtd">
<svg viewBox="0 0 909 1286" version="1.1" xmlns="http://www.w3.org/2000/svg" xmlns:xlink="http://www.w3.org/1999/xlink">
<defs>
<clipPath id="c0_36"><path d="M119.5,215.6V182.1H789.9v33.5Z"/></clipPath>
<style type="text/css"><![CDATA[
.g0_36{
fill: none;
stroke: #000000;
stroke-width: 0.73;
stroke-linecap: butt;
stroke-linejoin: miter;
}
.g1_36{
fill: #7F7F7F;
fill-opacity: 0.01;
}
.g2_36{
fill: #7F7F7F;
fill-opacity: 0.02;
}
.g3_36{
fill: #7F7F7F;
fill-opacity: 0.04;
}
.g4_36{
fill: #7F7F7F;
fill-opacity: 0.07;
}
.g5_36{
fill: #7F7F7F;
fill-opacity: 0.11;
}
.g6_36{
fill: #FFFFFF;
}
.g7_36{
fill: #7F7F7F;
}
.g8_36{
fill: #EC008C;
}
.g9_36{
fill: #CBCEFB;
}
.ga_36{
fill: #E81A58;
}
.gb_36{
fill: #401A1A;
}
]]></style>
</defs>
<path d="M116.9,159.9H792.5" class="g0_36"/>
<path d="M122.2,184.8c221.7,0,443.4,0,665,0V562.6c-221.6,-9.4,-443.3,-9.4,-665,0Z" class="g1_36"/>
<path d="M122.9,185.4c221.2,0,442.4,0,663.7,0V562c-221.3,-9.4,-442.5,-9.4,-663.7,0Z" class="g2_36"/>
<path d="M123.5,186.1c220.8,0,441.6,0,662.5,0V561.3C565.1,552,344.3,552,123.5,561.3Z" class="g3_36"/>
<path d="M124.1,186.7c220.4,0,440.8,0,661.2,0v374c-220.4,-9.3,-440.8,-9.3,-661.2,0Z" class="g4_36"/>
<path d="M124.7,187.3c220,0,440,0,660,0V560.1c-220,-9.4,-440,-9.4,-660,0Z" class="g5_36"/>
<path d="M125.4,187.9c219.5,0,439.1,0,658.7,0V559.5c-219.6,-9.4,-439.2,-9.4,-658.7,0Z" class="g5_36"/>
<path d="M126,188.6c219.1,0,438.3,0,657.5,0V558.9c-219.2,-9.4,-438.4,-9.4,-657.5,0Z" class="g4_36"/>
<path d="M126.6,189.2c218.8,0,437.5,0,656.3,0v369c-218.8,-9.3,-437.5,-9.3,-656.3,0Z" class="g3_36"/>
<path d="M127.2,189.8c218.4,0,436.7,0,655,0V557.6c-218.3,-9.3,-436.6,-9.3,-655,0Z" class="g2_36"/>
<path d="M127.9,190.4c217.9,0,435.8,0,653.7,0V557c-217.9,-9.4,-435.8,-9.4,-653.7,0Z" class="g1_36"/>
<path d="M116.9,552.3V179.5H792.5V552.3Z" class="g6_36"/>
<path d="M119.5,549.7V218.2H789.9V549.7Z" class="g6_36"/>
<path d="M119.5,215.6V182.1H789.9v33.5Z" class="g7_36"/>
<g clip-path="url(#c0_36)">
<image x="119" y="181" width="672" height="34" xlink:href="shade/1.png"/>
</g>
<path d="M675.7,210.5h88.2V187.3H675.7v23.2Z" class="g8_36"/>
<path d="M357.2,234.2h195M357.6,263.8V234.6" class="g0_36"/>
<path d="M357.9,263.8h62V234.6h-62v29.2Z" class="g9_36"/>
<path d="M420.3,263.8V234.6" class="g0_36"/>
<path d="M420.7,263.8h60.2V234.6H420.7v29.2Z" class="g9_36"/>
<path d="M481.3,263.8V234.6" class="g0_36"/>
<path d="M481.7,263.8h69.8V234.6H481.7v29.2Z" class="g9_36"/>
<path d="M551.9,263.8V234.6M357.2,264.2h195M357.6,293.7V264.5m62.7,29.2V264.5m61,29.2V264.5m70.6,29.2V264.5M357.2,294.1h195M357.6,323.7V294.5m62.7,29.2V294.5m61,29.2V294.5m70.6,29.2V294.5M357.2,324.1h195M357.6,353.7V324.4m62.7,29.3V324.4m61,29.3V324.4m70.6,29.3V324.4M357.2,354h195M357.6,383.6V354.4m62.7,29.2V354.4m61,29.2V354.4m70.6,29.2V354.4M357.2,384h195M357.6,413.6V384.3m62.7,29.3V384.3m61,29.3V384.3m70.6,29.3V384.3M357.2,413.9h195M357.6,443.5V414.3m62.7,29.2V414.3m61,29.2V414.3m70.6,29.2V414.3M357.2,443.9h195M357.6,473.5V444.2m62.7,29.3V444.2m61,29.3V444.2m70.6,29.3V444.2M357.2,473.8h195M357.6,503.4V474.2m62.7,29.2V474.2m61,29.2V474.2m70.6,29.2V474.2M357.2,503.8h195M357.6,533.4V504.2m62.7,29.2V504.2m61,29.2V504.2m70.6,29.2V504.2M357.2,533.7h195" class="g0_36"/>
<path d="M116.9,910.8V649.9c0,-21.6,17.6,-39.2,39.2,-39.2H792.5v261c0,21.6,-17.5,39.1,-39.1,39.1Z" class="ga_36"/>
<path d="M119.5,908.2v-265H789.9V871.7c0,20.1,-16.3,36.5,-36.5,36.5Z" class="gb_36"/>
</svg>