<?xml version="1.0" encoding="UTF-8" standalone="no"?>
<!DOCTYPE svg PUBLIC "-//W3C//DTD SVG 1.1//EN"
"http://www.w3.org/Graphics/SVG/1.1/DTD/svg11.dtd">
<svg viewBox="0 0 909 1286" version="1.1" xmlns="http://www.w3.org/2000/svg" xmlns:xlink="http://www.w3.org/1999/xlink">
<defs>
<style type="text/css"><![CDATA[
.g0_4{
fill: none;
stroke: #000000;
stroke-width: 0.73;
stroke-linecap: butt;
stroke-linejoin: miter;
}
.g1_4{
fill: none;
stroke: #5EE200;
stroke-width: 0.73;
stroke-linecap: butt;
stroke-linejoin: miter;
}
.g2_4{
fill: none;
stroke: #FFA313;
stroke-width: 0.73;
stroke-linecap: butt;
stroke-linejoin: miter;
}
.g3_4{
fill: none;
stroke: #BFBFBF;
stroke-width: 0.73;
stroke-linecap: butt;
stroke-linejoin: miter;
}
]]></style>
</defs>
<path d="M116.9,179.9H769.7M285.3,209.5V180.3M201,252.2l31.2,18.7m0,36.7V271m-62.5,36.6h62.5m-62.5,0V271M201,252.2l-31.3,18.7m56.5,31.9v-27m-50.4,27v-27m23,-23.6V226.6m4.4,25.6V226.6M285.3,379V209.5" class="g0_4"/>
<path d="M442.2,353.4L452.7,321m-7.1,33.5l10.6,-32.4" class="g1_4"/>
<path d="M449.9,306.1L421,285.1" class="g0_4"/>
<path d="M411.5,269.5v-21m3.6,21v-21" class="g2_4"/>
<path d="M405.6,285.1l-28.9,21" class="g0_4"/>
<path d="M373.9,321l10.5,32.4m-14,-31.3L381,354.5" class="g1_4"/>
<path d="M432.3,363.8h-38" class="g0_4"/>
<path d="M614,353.4L624.5,321m-7,33.5L628,322.1m-6.3,-16l-28.8,-21m-9.6,-15.6v-21m3.7,21v-21m-9.6,36.6l-28.9,21M545.7,321l10.6,32.4m-14,-31.3l10.5,32.4m51.3,9.3H566.2" class="g3_4"/>
<path d="M285.3,408.2V379m0,58.4V408.2m0,58.5V437.4m0,58.5V466.7m0,58.4V495.9m0,58.4V525.1m0,58.5V554.3m0,58.5V583.6m0,58.4V612.8m0,58.4V642m0,58.4V671.2m0,58.5V700.4M116.9,730H769.7" class="g0_4"/>
</svg>