<?xml version="1.0" encoding="UTF-8" standalone="no"?>
<!DOCTYPE svg PUBLIC "-//W3C//DTD SVG 1.1//EN"
"http://www.w3.org/Graphics/SVG/1.1/DTD/svg11.dtd">
<svg viewBox="0 0 909 1286" version="1.1" xmlns="http://www.w3.org/2000/svg" xmlns:xlink="http://www.w3.org/1999/xlink">
<defs>
<clipPath id="c0_116"><path d="M119.5,282.8V249.3H789.9v33.5Z"/></clipPath>
<clipPath id="c1_116"><path d="M119.5,879.1V845.6H789.9v33.5Z"/></clipPath>
<style type="text/css"><![CDATA[
.g0_116{
fill: none;
stroke: #000000;
stroke-width: 0.73;
stroke-linecap: butt;
stroke-linejoin: miter;
}
.g1_116{
fill: #7F7F7F;
fill-opacity: 0.01;
}
.g2_116{
fill: #7F7F7F;
fill-opacity: 0.02;
}
.g3_116{
fill: #7F7F7F;
fill-opacity: 0.04;
}
.g4_116{
fill: #7F7F7F;
fill-opacity: 0.07;
}
.g5_116{
fill: #7F7F7F;
fill-opacity: 0.11;
}
.g6_116{
fill: #FFFFFF;
}
.g7_116{
fill: #7F7F7F;
}
.g8_116{
fill: #00AEEF;
}
.g9_116{
fill: #CBCEFB;
}
.ga_116{
fill: #EC008C;
}
]]></style>
</defs>
<path d="M116.9,159.9H792.5" class="g0_116"/>
<path d="M122.2,252c221.7,0,443.4,0,665,0V838.7c-221.6,-9.4,-443.3,-9.4,-665,0Z" class="g1_116"/>
<path d="M122.9,252.6c221.2,0,442.4,0,663.7,0V838.1c-221.3,-9.4,-442.5,-9.4,-663.7,0Z" class="g2_116"/>
<path d="M123.5,253.2c220.8,0,441.6,0,662.5,0V837.4c-220.9,-9.3,-441.7,-9.3,-662.5,0Z" class="g3_116"/>
<path d="M124.1,253.8c220.4,0,440.8,0,661.2,0v583c-220.4,-9.3,-440.8,-9.3,-661.2,0Z" class="g4_116"/>
<path d="M124.7,254.5c220,0,440,0,660,0V836.2c-220,-9.4,-440,-9.4,-660,0Z" class="g5_116"/>
<path d="M125.4,255.1c219.5,0,439.1,0,658.7,0V835.6c-219.6,-9.4,-439.2,-9.4,-658.7,0Z" class="g5_116"/>
<path d="M126,255.7c219.1,0,438.3,0,657.5,0V834.9c-219.2,-9.3,-438.4,-9.3,-657.5,0Z" class="g4_116"/>
<path d="M126.6,256.3c218.8,0,437.5,0,656.3,0v578C564.1,825,345.4,825,126.6,834.3Z" class="g3_116"/>
<path d="M127.2,257c218.4,0,436.7,0,655,0V833.7c-218.3,-9.4,-436.6,-9.4,-655,0Z" class="g2_116"/>
<path d="M127.9,257.6c217.9,0,435.8,0,653.7,0V833.1c-217.9,-9.4,-435.8,-9.4,-653.7,0Z" class="g1_116"/>
<path d="M116.9,828.4V246.7H792.5V828.4Z" class="g6_116"/>
<path d="M119.5,825.8V285.4H789.9V825.8Z" class="g6_116"/>
<path d="M119.5,282.8V249.3H789.9v33.5Z" class="g7_116"/>
<g clip-path="url(#c0_116)">
<image x="119" y="248" width="672" height="35" xlink:href="shade/1.png"/>
</g>
<path d="M659.9,277.6h104V254.5h-104v23.1Z" class="g8_116"/>
<path d="M298.8,330.6H610.6M299.2,360.2V330.9" class="g0_116"/>
<path d="M299.5,360.2H417.3V330.9H299.5v29.3Z" class="g9_116"/>
<path d="M417.7,360.2V330.9" class="g0_116"/>
<path d="M418.1,360.2h69.8V330.9H418.1v29.3Z" class="g9_116"/>
<path d="M488.3,360.2V330.9" class="g0_116"/>
<path d="M488.6,360.2h50.7V330.9H488.6v29.3Z" class="g9_116"/>
<path d="M539.7,360.2V330.9" class="g0_116"/>
<path d="M540.1,360.2h69.8V330.9H540.1v29.3Z" class="g9_116"/>
<path d="M610.3,360.2V330.9M298.8,360.5H610.6M299.2,390.1V360.9m118.5,29.2V360.9m70.6,29.2V360.9m51.4,29.2V360.9m70.6,29.2V360.9M298.8,390.5H610.6M299.2,420.1V390.8m118.5,29.3V390.8m70.6,29.3V390.8m51.4,29.3V390.8m70.6,29.3V390.8M298.8,420.4H610.6M299.2,450V420.8M417.7,450V420.8M488.3,450V420.8M539.7,450V420.8M610.3,450V420.8M298.8,450.4H610.6M299.2,480V450.8M417.7,480V450.8M488.3,480V450.8M539.7,480V450.8M610.3,480V450.8M298.8,480.3H610.6M299.2,509.9V480.7m118.5,29.2V480.7m70.6,29.2V480.7m51.4,29.2V480.7m70.6,29.2V480.7M298.8,510.3H610.6M299.2,539.9V510.7m118.5,29.2V510.7m70.6,29.2V510.7m51.4,29.2V510.7m70.6,29.2V510.7M298.8,540.3H610.6M299.2,569.8V540.6m118.5,29.2V540.6m70.6,29.2V540.6m51.4,29.2V540.6m70.6,29.2V540.6M298.8,570.2H610.6M299.2,599.8V570.6m118.5,29.2V570.6m70.6,29.2V570.6m51.4,29.2V570.6m70.6,29.2V570.6M298.8,600.2H610.6M299.2,629.8V600.5m118.5,29.3V600.5m70.6,29.3V600.5m51.4,29.3V600.5m70.6,29.3V600.5M298.8,630.1H610.6M299.2,659.7V630.5m118.5,29.2V630.5m70.6,29.2V630.5m51.4,29.2V630.5m70.6,29.2V630.5M298.8,660.1H610.6M299.2,689.7V660.4m118.5,29.3V660.4m70.6,29.3V660.4m51.4,29.3V660.4m70.6,29.3V660.4M298.8,690H610.6M299.2,719.6V690.4m118.5,29.2V690.4m70.6,29.2V690.4m51.4,29.2V690.4m70.6,29.2V690.4M298.8,720H610.6M299.2,749.6V720.3m118.5,29.3V720.3m70.6,29.3V720.3m51.4,29.3V720.3m70.6,29.3V720.3M298.8,749.9H610.6M299.2,779.5V750.3m118.5,29.2V750.3m70.6,29.2V750.3m51.4,29.2V750.3m70.6,29.2V750.3M298.8,779.9H610.6M299.2,809.5V780.3m118.5,29.2V780.3m70.6,29.2V780.3m51.4,29.2V780.3m70.6,29.2V780.3M298.8,809.8H610.6" class="g0_116"/>
<path d="M122.2,848.3c221.7,0,443.4,0,665,0v168.1c-221.6,-9.4,-443.3,-9.4,-665,0Z" class="g1_116"/>
<path d="M122.9,848.9c221.2,0,442.4,0,663.7,0v166.9c-221.3,-9.4,-442.5,-9.4,-663.7,0Z" class="g2_116"/>
<path d="M123.5,849.6c220.8,0,441.6,0,662.5,0v165.6c-220.9,-9.4,-441.7,-9.4,-662.5,0Z" class="g3_116"/>
<path d="M124.1,850.2c220.4,0,440.8,0,661.2,0v164.3c-220.4,-9.3,-440.8,-9.3,-661.2,0Z" class="g4_116"/>
<path d="M124.7,850.8c220,0,440,0,660,0v163.1c-220,-9.4,-440,-9.4,-660,0Z" class="g5_116"/>
<path d="M125.4,851.4c219.5,0,439.1,0,658.7,0v161.9c-219.6,-9.4,-439.2,-9.4,-658.7,0Z" class="g5_116"/>
<path d="M126,852c219.1,0,438.3,0,657.5,0v160.7c-219.2,-9.4,-438.4,-9.4,-657.5,0Z" class="g4_116"/>
<path d="M126.6,852.7c218.8,0,437.5,0,656.3,0V1012c-218.8,-9.3,-437.5,-9.3,-656.3,0Z" class="g3_116"/>
<path d="M127.2,853.3c218.4,0,436.7,0,655,0v158.1c-218.3,-9.3,-436.6,-9.3,-655,0Z" class="g2_116"/>
<path d="M127.9,853.9c217.9,0,435.8,0,653.7,0v156.9c-217.9,-9.4,-435.8,-9.4,-653.7,0Z" class="g1_116"/>
<path d="M116.9,1006.1V843H792.5v163.1Z" class="g6_116"/>
<path d="M119.5,1003.5V881.7H789.9v121.8Z" class="g6_116"/>
<path d="M119.5,879.1V845.6H789.9v33.5Z" class="g7_116"/>
<g clip-path="url(#c1_116)">
<image x="119" y="845" width="672" height="34" xlink:href="shade/2.png"/>
</g>
<path d="M675.7,873.9h88.2V850.8H675.7v23.1Z" class="ga_116"/>
<path d="M419.1,897.7h71.3m-71,29.6V898.1" class="g0_116"/>
<path d="M419.8,927.3h69.8V898.1H419.8v29.2Z" class="g9_116"/>
<path d="M490,927.3V898.1m-70.9,29.5h71.3m-71,29.6V928M490,957.2V928m-70.9,29.6h71.3m-71,29.6V958M490,987.2V958m-70.9,29.6h71.3" class="g0_116"/>
</svg>