<?xml version="1.0" encoding="UTF-8" standalone="no"?>
<!DOCTYPE svg PUBLIC "-//W3C//DTD SVG 1.1//EN"
"http://www.w3.org/Graphics/SVG/1.1/DTD/svg11.dtd">
<svg viewBox="0 0 909 1286" version="1.1" xmlns="http://www.w3.org/2000/svg" xmlns:xlink="http://www.w3.org/1999/xlink">
<defs>
<clipPath id="c0_88"><path d="M122.9,978.3V943.6H152v34.7Z"/></clipPath>
<clipPath id="c1_88"><path d="M122.1,978.7V942.6H153v36.1Z"/></clipPath>
<style type="text/css"><![CDATA[
.g0_88{
fill: none;
stroke: #000000;
stroke-width: 0.73;
stroke-linecap: butt;
stroke-linejoin: miter;
}
.g1_88{
fill: #FFFFFF;
}
.g2_88{
fill: none;
stroke: #000000;
stroke-width: 1.461;
stroke-linecap: butt;
stroke-linejoin: miter;
}
.g3_88{
fill: #868686;
}
.g4_88{
fill: #242628;
}
.g5_88{
fill: #A0A0A0;
}
.g6_88{
fill: #C4956E;
}
.g7_88{
fill: #222426;
}
.g8_88{
fill: #202126;
}
.g9_88{
fill: #252427;
}
.ga_88{
fill: #222924;
}
.gb_88{
fill: none;
stroke: #000000;
stroke-width: 2.739;
stroke-linecap: butt;
stroke-linejoin: miter;
}
]]></style>
</defs>
<path d="M186.7,254.7h45.4m28.7,0h40m-48.4,61.5H442.6m28.8,0H657.1M264.7,388h75.8m26.7,0h75.4m28.8,0h73.3m26.7,0h73.3M155,442h56.3m186,242.5h45.3m28.8,0h40m-40,94.3H493" class="g0_88"/>
<path d="M117.7,1066.3v-130H791.8v130Z" class="g1_88"/>
<path d="M117.7,1066.3v-130H791.8v130Z" class="g2_88"/>
<path d="M460,1026.6h56.3" class="g0_88"/>
<g clip-path="url(#c1_88)">
<path clip-path="url(#c0_88)" d="M125.6,978.1c-.1,-.1,-.1,-.2,0,-.3c0,-.1,.1,-1.2,0,-1.7c0,-.2,0,-.4,0,-.6c.1,-.9,.3,-2.3,.3,-2.3c0,0,0,-.3,.1,-.6c.1,-.5,.1,-.6,-.1,-.9c-.3,-.6,-.9,-2,-1.1,-2.8c-.4,-1.8,-.5,-4.6,-.1,-6c.3,-1.1,.5,-1.2,.9,-.5c.3,.6,.4,.4,0,-.3c-.3,-.8,-.6,-2.1,-.5,-2.5c0,-.1,.2,-.6,.4,-1.1c.2,-.4,.4,-1,.5,-1.2c.1,-.5,.5,-.7,.9,-.6c.1,.1,.2,.3,.3,.4c.2,.3,.2,.2,.1,-.2c-.1,-.3,-.2,-.6,-.1,-.6c0,0,0,-.2,0,-.4c.1,-.4,1,-2,1.6,-2.6c.3,-.3,.6,-.6,.7,-.7c.1,-.2,.5,-.5,.8,-.7c.3,-.2,.7,-.6,.9,-.8c.4,-.4,.7,-.5,.9,-.2c.2,.2,.2,.1,.2,-.2c0,-.2,0,-.4,0,-.5c.1,-.2,1.5,-1.2,2.1,-1.5c.3,-.1,.6,-.3,.8,-.4c.1,-.1,.3,-.2,.4,-.2c0,0,.4,-.2,.8,-.5c.4,-.2,.9,-.4,1,-.5c.2,0,.6,-.2,1,-.4c1.1,-.5,1.6,-.7,2.4,-1c.5,-.2,.9,-.4,1,-.4c0,0,.1,0,.3,.1l.2,.2l.4,-.3c.6,-.6,1.6,-.9,3.8,-1.2c.9,-.1,2.2,-.3,2.8,-.4l1,-.1l.1,.3c.1,.2,.1,.3,-.3,.4c-2.7,1,-4.6,2,-5.6,2.9c-.2,.2,-.4,.3,-.4,.3c-.1,0,-1.5,1.5,-1.5,1.6c0,0,-.1,.2,-.2,.3c-.3,.2,-.6,.7,-.5,1.1c0,.1,-.1,.3,-.4,.5c-.3,.2,-.4,.3,-.4,.4c.2,.1,0,.9,-.2,1.2c-.7,.7,-1.7,2.2,-1.9,2.9c-.1,.1,-.2,.4,-.4,.7c-.2,.3,-.4,.8,-.5,1.1q-.4,.9,-1,.9c-.5,.1,-1.4,.4,-1.3,.5c0,0,.4,0,.9,-.1c1.1,-.1,1.2,0,.8,.7c-.4,.7,-.7,1.7,-.7,2.1c0,.4,-.2,.9,-.6,2.3c-.1,.3,-.3,.5,-.7,.7c-.5,.3,-.6,.3,-1.2,.4q-.7,0,-.6,.2c.1,.1,-.1,.4,-.5,1.3c-.3,.6,-.7,1.2,-.8,1.3c-.2,.2,-.4,.5,-.6,.8c-.2,.3,-.4,.5,-.5,.5c0,0,-.2,.2,-.3,.3c-.6,.8,-2.7,2.6,-3,2.7l.3,-3.3c.1,.2,.4,0,.6,-.2c.2,-.4,.5,-.6,1.1,-.6c.5,-.1,.6,-.1,1,-.5c.2,-.3,.6,-.9,.9,-1.4l.5,-1l-.5,-.2c-.3,-.2,-.6,-.4,-.7,-.5c-.1,-.2,.4,-.9,.7,-1c.2,-.1,.5,-.2,.7,-.2c.2,0,.5,-.1,.7,-.3c.3,-.1,.5,-.2,.7,-.3c.6,0,.8,-.4,.8,-1.3c.1,-.9,.2,-1,.5,-1.2c.4,-.1,.7,-.1,.9,.2l.1,.2l.1,-.2c.1,-.3,.1,-.4,-.1,-.4c-.1,0,-.2,-.1,-.3,-.3q-.1,-.2,-.6,-.4c-.6,-.2,-.7,-.3,-.5,-.5c0,-.1,0,-.3,0,-.4c-.1,-.3,.4,-.7,1,-1c.5,-.2,.6,-.3,1.1,-1.2c.3,-.6,.8,-1.3,1,-1.5c.2,-.2,.5,-.5,.6,-.7c.1,-.2,.2,-.2,.4,-.2c.2,0,.4,-.1,.5,-.2c.2,-.1,.9,-1.1,.8,-1.1c0,0,-.2,.1,-.5,.2c-.8,.3,-1.8,.3,-2,-.1c-.2,-.3,.4,-1.2,.9,-1.2c.1,0,1.1,-.5,1.5,-.8c.1,-.1,.3,-.5,.5,-.8c.3,-.7,.8,-1.4,1.2,-1.5c.5,-.1,.7,-.3,.9,-.7c.2,-.4,.1,-.7,-.4,-.9c-.1,0,-.3,-.2,-.4,-.3c0,-.1,-.1,-.2,-.2,-.2c-.3,0,-3,1.1,-4.1,1.6c-.2,.1,-.5,.4,-.7,.6c-.1,.1,-.5,.5,-.9,.8c-.4,.3,-.9,.8,-1,1c-.1,.3,-.4,.7,-.7,.9c-.4,.4,-.4,.5,-.4,1.2c-.1,.5,0,1,.1,1.2c.3,.7,.2,1.1,-.3,1c-.5,0,-.8,-.3,-1.3,-1.5c-.3,-.6,-.6,-1,-.6,-1c-.2,0,-.8,.7,-1.1,1.2c-.2,.6,-.3,.7,-.7,.8c-.5,.2,-.5,.3,-.7,.8c-.1,.2,-.1,.6,-.1,.7c.1,.1,.1,.3,.1,.3c-.1,.4,-.1,.8,.1,1.3c.2,.3,.3,.6,.3,.8c0,.1,.1,.5,.3,.9c.3,.6,.3,.7,.2,1.2c-.1,.3,-.1,.6,-.1,.7c-.1,.3,-.4,.2,-1.1,-.3c-.5,-.5,-1.2,-1.2,-2,-2.3c-.3,-.4,-.4,-.5,-.3,-.1c0,.1,-.1,.5,-.2,.8c-.2,.6,-.2,1.4,.2,1.7c.2,.3,.8,1.9,.9,2.3c0,.2,0,.4,.1,.5c.1,.2,.1,1,-.1,1.3c0,.1,0,.3,0,.4c0,.1,-.1,.2,-.2,.2c-.2,.1,-.7,-.3,-1,-.6c-.1,-.1,-.3,-.4,-.5,-.5l-.2,-.3l-.1,.2c-.1,.3,0,.7,.1,1.1c.3,.8,.4,2.4,.2,3c-.1,.1,-.2,.4,-.4,.5c-.4,.3,-.3,.5,.4,1.4l.4,.5l.1,-.2c.1,-.2,.2,-.6,.3,-1c.1,-.3,.2,-.8,.3,-1c.1,-.2,.2,-.6,.3,-.8q.1,-.5,2.3,-5.3c1,-2,1,-2.1,1.9,-3.3c.7,-1.1,1.3,-2.1,1.9,-3.1c.8,-1.3,.9,-1.5,1.4,-2.1c.3,-.3,.7,-.8,.9,-1c.9,-1.2,1.1,-1.5,1.3,-1.4c.1,0,.2,.1,.2,.1c0,.1,-.2,.5,-.5,.9c-.3,.4,-.8,1.1,-1,1.5c-.9,1.5,-2.1,3.4,-2.5,4c-.2,.3,-.5,.7,-.6,1c-.1,.2,-.4,.5,-.5,.8c-.2,.3,-.3,.6,-.4,.7c0,.3,-.1,.8,-1.1,2.6c-.8,1.5,-1,2,-1.7,3.7c-.5,1,-.8,2.2,-.7,2.3l-.3,3.3c-.3,0,-.5,1.8,-.2,2.9c.1,.8,.1,1.1,-.2,1.3c-.6,.4,-1.1,1.1,-1.3,1.6c-.1,.4,-.2,.6,-.4,.6q-.2,0,-.3,-.2Z" class="g3_88"/>
<path d="M133.1,964.6c-.1,0,-.3,-.1,-.4,-.1c-.1,0,-.1,.1,0,.2c.1,0,.3,.1,.4,0q.2,0,0,-.1Z" class="g1_88"/>
<path d="M144.5,945.6c0,-.1,0,-.2,-.1,-.1q-.1,0,-.2,.1q0,.1,.1,.1c.1,0,.2,-.1,.2,-.1Z" class="g1_88"/>
<path d="M125.7,978.2c-.1,-.1,-.1,-.2,-.1,-.3c.1,-.1,.1,-.9,.1,-1.7c0,-1.4,.1,-2.2,.4,-3.5l.1,-.6l-.5,-1c-.3,-.5,-.5,-1.3,-.6,-1.6c-.1,-.4,-.3,-.8,-.3,-1c-.2,-.7,-.3,-2.8,-.3,-3.9c.1,-1.1,.5,-2.6,.7,-2.6c.1,0,.2,.1,.4,.6c.5,.7,.7,.7,.3,-.1c-.4,-.8,-.7,-1.9,-.7,-2.5c0,-.4,.5,-1.9,.9,-2.7c.2,-.4,.3,-.5,.5,-.5c.3,-.1,.3,0,.9,.9l.5,.7l-.4,-.8c-.5,-1.1,-.4,-1.7,.3,-2.9c.3,-.5,.6,-1,.7,-1.1c.1,-.1,.4,-.4,.6,-.7c.3,-.3,.8,-.7,1.2,-1c.3,-.2,.7,-.6,.9,-.8c.4,-.5,.6,-.4,1,.2l.2,.3l-.1,-.4c-.1,-.8,0,-1,.8,-1.7c.5,-.3,.9,-.5,1,-.5c0,0,.1,-.1,.1,-.1c0,-.1,.1,-.1,.3,-.1c.2,-.1,.2,0,.2,.1c-.1,0,-.1,.1,-.2,.1c-.1,0,-.4,.3,-.7,.6c-.4,.3,-.8,.6,-.9,.6c-.3,.2,-.3,.3,-.3,.7c0,.3,.1,.7,.2,.9c.1,.4,.1,.9,0,1c-.2,0,-.4,-.3,-.7,-.9l-.3,-.7l-.4,.3c-.1,.1,-.3,.3,-.3,.3c-.1,.1,-.3,.3,-.6,.5c-.3,.2,-.6,.5,-.7,.6c-.1,.1,-.3,.3,-.6,.6c-.6,.6,-1.6,2.2,-1.5,2.5c.1,.3,1,2.2,1.7,3.5c.5,.9,.6,1,.4,1c-.2,0,-1.2,-.8,-1.6,-1.4c-.3,-.3,-.6,-.7,-.8,-.9c-.1,-.2,-.3,-.5,-.4,-.6c-.2,-.4,-.4,-.4,-.6,0c-.3,.4,-.8,2.1,-.9,2.4c-.1,.8,.6,2.7,1.5,3.8c.7,1,.7,1.3,-.1,.8c-.3,-.2,-1.3,-1.2,-1.5,-1.6c0,-.1,-.1,-.2,-.1,-.1c-.2,0,-.4,1,-.4,1.7c0,.3,0,.7,-.1,.8c0,.1,0,.7,.1,1.3c.1,.6,.1,1.3,.1,1.6c.1,.6,1,3,1.1,3c.1,0,.1,-.1,.1,-.1c0,0,.1,-.5,.3,-1.1c.2,-.6,.3,-1.3,.4,-1.5c0,-.2,.1,-.4,.1,-.5c.1,-.1,.2,-.4,.3,-.7c.1,-.5,.2,-.9,1.1,-2.6c.3,-.6,.7,-1.5,.9,-2c.8,-1.6,1.6,-3.2,2.2,-4.2c.7,-1,1.1,-1.6,1.9,-2.9c.2,-.4,.6,-.9,.7,-1.1c.2,-.2,.3,-.5,.3,-.5c.1,-.1,.3,-.4,.6,-.7c.2,-.3,.6,-.8,.8,-1.1c.9,-1.2,1.1,-1.3,1.2,-1.2c.2,.1,.2,.2,-.6,1.1c-.2,.3,-.6,.9,-.8,1.3c-.8,1.3,-2.1,3.4,-2.4,3.8c-.6,.9,-1.5,2.5,-1.5,2.8c0,.1,-.5,1.3,-1.2,2.6c-.7,1.3,-1.3,2.7,-1.5,3.1c-.1,.4,-.3,.7,-.3,.8c-.1,0,-.5,1.2,-.6,1.8c0,.2,-.1,.7,-.1,.9c-.2,.8,-.3,2,-.3,2.1c0,0,.1,0,.3,-.1c.1,-.1,.3,-.3,.6,-.5c.2,-.2,.5,-.5,.8,-.7c.2,-.2,.4,-.4,.5,-.5c.6,-.6,.9,-.9,1.2,-1.4c.3,-.4,.6,-.7,.7,-.9c.3,-.2,1.2,-2,1.2,-2.1c-.1,0,-.4,-.2,-.9,-.5c-.9,-.4,-1,-.6,-.8,-.7c.1,0,1,.1,1.8,.3c.2,0,.7,0,1,0c.9,0,1.4,-.4,1.6,-1c.1,-.3,.2,-.6,.2,-.8c.1,-.3,.3,-1,.3,-1.5c.1,-.5,.4,-1.3,.6,-1.6l.2,-.4l-.5,.1c-.5,0,-1.6,-.2,-1.7,-.4c-.1,-.2,.7,-.6,1.6,-.8l.8,-.1l.2,-.6c.2,-.3,.3,-.7,.4,-.9c0,-.1,.1,-.4,.2,-.4c.1,-.1,.3,-.4,.4,-.6c0,-.3,.3,-.7,.4,-.9c1.4,-2,1.6,-2.3,1.5,-2.3c-.1,0,-.4,.1,-.6,.2c-.7,.3,-1.5,.3,-1.5,0c0,-.3,1.8,-1.3,2.7,-1.6c.4,0,.4,-.1,.4,-.5c0,-.3,.2,-.6,.3,-.8c.1,-.2,.3,-.5,.4,-.7c.3,-.5,2.2,-2.1,3.2,-2.8c.7,-.4,1.8,-1,2.7,-1.3l.7,-.3l-1.6,.2c-2.6,.3,-3.7,.7,-4.4,1.4c-.3,.4,-.4,.4,-.5,.2c-.1,-.2,.6,-1,1.2,-1.2c.6,-.3,1.7,-.5,2.4,-.6c.4,0,1.5,-.2,2.5,-.4c1.5,-.2,1.8,-.3,1.9,-.2c.4,.2,.3,.4,-.2,.6c-1.1,.4,-2.2,.9,-2.9,1.2c-.7,.4,-2,1.1,-2.2,1.3c-.1,0,-.3,.2,-.6,.4c-.9,.8,-1.6,1.5,-1.8,1.8c-.1,.2,-.3,.5,-.4,.6c-.1,.2,-.3,.5,-.3,.7c0,.3,-.1,.5,-.4,.7c-.2,.1,-.5,.2,-.6,.2l-.2,.1h.2c.4,.1,.5,.3,.3,.5c0,.1,-.1,.2,-.1,.3c.1,.1,-.1,.3,-.4,.6c-.2,.3,-.5,.6,-.6,.8c-.1,.2,-.3,.5,-.4,.7c-.4,.5,-.6,.9,-.7,1.2c0,.1,-.2,.4,-.4,.7c-.3,.5,-.4,.9,-.7,1.7c-.1,.3,-.2,.3,-.7,.4c-.7,.1,-1.5,.4,-1.4,.5c0,0,.4,0,.9,-.1c.8,-.1,.9,-.1,1,.1c.1,.1,.1,.3,-.2,.6c-.3,.6,-.7,1.7,-.7,2.2c0,.3,-.3,1.3,-.6,2.1c-.1,.3,-.2,.5,-.6,.8c-.5,.3,-.6,.3,-1.2,.3c-.4,0,-.9,0,-1,-.1c-.2,-.1,-.5,-.1,-.8,-.2h-.6l.5,.2c.3,.1,.6,.2,.7,.2c.5,0,.5,.1,.6,.2c.1,.1,-.9,2,-1.3,2.5c-.2,.2,-.5,.6,-.7,.8c-.1,.2,-.3,.5,-.4,.6c-.2,.1,-.4,.3,-.6,.5c-.4,.5,-1.3,1.4,-1.7,1.6c-.1,.1,-.4,.3,-.5,.5c-.1,.1,-.3,.2,-.5,.3c-.2,.1,-.3,.2,-.3,.4c-.1,.5,-.1,1.9,-.1,2.1c0,.1,.1,.5,.1,.8c.1,.6,.1,.7,-.2,.9c-.4,.4,-1,1.2,-1.3,1.7c-.1,.3,-.2,.6,-.2,.6c-.1,0,-.2,-.1,-.3,-.1Z" class="g4_88"/>
<path d="M128.2,957.8q-.1,-.2,-.1,-.1c-.1,.2,0,.4,.1,.4c.1,-.1,.1,-.2,0,-.3Z" class="g4_88"/>
<path d="M139.7,952c.2,-.2,.5,-.3,.7,-.5l.2,-.2l-.3,.1c-.5,.1,-1.4,.6,-1.4,.7c0,.1,.3,.1,.8,-.1Z" class="g5_88"/>
<path d="M139.7,951.9c.4,-.2,.6,-.4,.2,-.3c-.3,.1,-.9,.5,-.7,.5c0,0,.3,-.1,.5,-.2Z" class="g1_88"/>
<path d="M134.9,948.7c0,-.1,.6,-.5,.7,-.5c.2,.1,.2,.2,-.1,.3c-.1,0,-.3,.1,-.4,.2q-.1,0,-.2,0Z" class="g4_88"/>
<path d="M136.2,947.9c.1,-.1,.2,-.2,.3,-.2q.2,0,.1,.2c-.1,.1,-.2,.2,-.3,.2q-.2,0,-.1,-.2Z" class="g4_88"/>
<path d="M137.1,947.4c.1,-.1,.6,-.3,.7,-.2c0,.1,-.5,.4,-.7,.4q-.1,0,0,-.2Z" class="g4_88"/>
<path d="M137.9,947.1c0,-.1,.8,-.5,1.3,-.7c.3,0,.6,-.1,.7,-.2c.4,-.3,1.9,-.9,2.1,-.8c.2,.1,.1,.4,-.2,.4c-.5,0,-1.7,.5,-3,1.1c-.6,.3,-.8,.3,-.9,.2Z" class="g4_88"/>
<path d="M125.7,978.1c0,0,0,-.1,0,-.2c0,-.1,.1,-.6,.1,-1.2c0,-1.4,0,-1.9,.3,-4.1l.1,-.6l-.5,-1c-.3,-.7,-.5,-1.2,-.6,-1.6c-.1,-.3,-.2,-.8,-.2,-.9c-.3,-1.1,-.4,-4.2,-.1,-5.2c.1,-.4,.2,-.8,.2,-1c.1,-.4,.2,-.3,.7,.4c.6,1,.9,.9,.3,-.1c-.4,-.7,-.8,-2,-.8,-2.6c0,-.4,.6,-1.9,1,-2.7c.1,-.3,.2,-.4,.4,-.5c.2,0,.3,.1,.5,.4c.5,.6,.6,.9,.5,.9c-.1,0,-.3,-.2,-.4,-.5c-.4,-.7,-.6,-.6,-1.2,.9c-.7,1.8,-.6,2.4,.7,4.7c.5,.9,.8,1.5,.7,1.5c-.2,.1,-1.4,-1,-1.7,-1.6c-.1,-.1,-.2,-.2,-.3,-.3c-.1,-.1,-.1,0,-.2,.1c-.3,.9,-.4,2.6,-.2,4.1c0,.5,.1,1.1,.1,1.3c0,.6,1,3.2,1.2,3.1c.1,0,.1,-.1,.1,-.2c0,-.2,.1,-.7,.3,-1.3c.2,-.6,.3,-1.2,.4,-1.4c0,-.1,0,-.3,.1,-.3c.1,0,.4,-1.1,.4,-1.2c0,0,.1,-.3,.2,-.6c.9,-1.9,1.3,-2.8,1.6,-3.5c.8,-1.6,1.6,-3.2,2.3,-4.2c.7,-1.2,1.3,-2.1,1.9,-3.1c.2,-.3,.5,-.8,.7,-1c.1,-.2,.3,-.4,.3,-.5c0,-.1,.6,-.7,.9,-1.1c.1,-.1,.3,-.3,.5,-.6c.6,-.9,1,-1.3,1.1,-1.3c.1,.1,.1,0,-.6,.9c-.2,.4,-.7,1.1,-.9,1.5c-.8,1.4,-2,3.3,-2.3,3.7c-.6,.7,-1.6,2.6,-1.6,2.9c0,.1,-.5,1.3,-1.2,2.6c-.6,1.2,-1.3,2.6,-1.4,3c-.2,.4,-.4,1,-.6,1.3c-.2,.7,-.4,1.5,-.4,1.9c0,.1,-.1,.4,-.1,.6c-.1,.3,-.2,.8,-.2,1.2c-.1,.6,-.1,.7,.1,.7c.1,.1,.2,0,.2,-.1c.1,0,.3,-.3,.6,-.5c.3,-.2,.5,-.4,.6,-.5c0,-.1,.3,-.3,.5,-.5c.7,-.6,1.1,-1,1.5,-1.6c.3,-.4,.6,-.7,.7,-.8c.2,-.3,1.1,-1.9,1.1,-2.1c0,-.1,-.1,-.2,-.6,-.5c-.7,-.3,-.6,-.4,.1,-.1c.3,.1,.6,.2,.7,.2c.4,-.1,.3,.2,-.2,1.3c-.3,.6,-.7,1.2,-.9,1.4c-.1,.1,-.4,.5,-.6,.7c-.2,.3,-.4,.6,-.5,.7c-.1,.1,-.3,.3,-.5,.4c-.1,.2,-.4,.5,-.6,.7c-.2,.2,-.5,.4,-.6,.6c-.1,.1,-.3,.2,-.3,.2c-.1,0,-.3,.2,-.5,.4c-.2,.2,-.5,.4,-.7,.4c-.2,.1,-.3,.3,-.3,.7c-.1,.4,-.1,.7,-.1,.7c0,.1,0,.3,0,.6c0,.3,.1,.7,.1,.9c.2,.9,.1,1.2,-.1,1.4c-.4,.2,-1.1,1.2,-1.3,1.7c-.2,.5,-.3,.6,-.5,.4Z" class="g6_88"/>
<path d="M134,964.6c-.4,0,-.8,-.1,-1,-.1c-.2,-.1,-.4,-.1,-.5,-.1c-.1,0,-.3,0,-.4,-.1c-.1,-.1,-.3,-.1,-.4,0c-.1,0,-.2,0,-.3,-.1c-.1,-.2,.3,-.2,1.8,.1c1.4,.3,2.5,-.1,2.7,-1c0,-.2,.1,-.6,.2,-.8c.1,-.2,.2,-.6,.2,-.8c.1,-.3,.1,-.8,.3,-1.6c.1,-.2,.2,-.6,.4,-.7c.1,-.2,.2,-.4,.1,-.4c0,0,-.2,0,-.4,0c-.4,.1,-1.6,-.1,-1.7,-.3c-.1,-.2,.8,-.6,2,-.8c.3,0,.4,-.1,.6,-.7c.6,-1.5,1.6,-3.3,2.9,-4.9c.1,-.2,.1,-.3,0,-.3c0,0,-.3,0,-.7,.2c-.6,.2,-1.3,.3,-1.4,.1c0,0,0,-.1,.1,-.2q.2,0,.2,.1c.1,.1,.1,.2,.1,.2c.3,-.1,1.3,-.5,1.6,-.7c.3,-.3,.6,-.4,.6,-.2c.1,.1,-.1,.8,-.2,1c-.2,.1,-.5,.5,-.7,.9c-.1,.1,-.4,.4,-.6,.7c-.3,.6,-.5,.9,-.6,1.3c-.1,.1,-.3,.4,-.4,.7c-.3,.5,-.6,1.1,-.8,1.7c-.1,.2,-.2,.2,-.7,.3c-.8,.2,-1.6,.5,-1.4,.6c0,.1,.4,.1,1,0c.8,-.1,.9,-.1,1,0c0,.1,-.1,.4,-.3,.6c-.3,.6,-.6,1.6,-.7,2.1c0,.3,-.1,.7,-.2,1c-.1,.3,-.2,.7,-.2,.8c-.1,.6,-.4,.9,-.8,1.1c-.6,.4,-.7,.4,-1.4,.3Z" class="g6_88"/>
<path d="M129.6,960.3c-.2,-.1,-.4,-.3,-.5,-.4c-.3,-.2,-1,-1,-1,-1.1c0,0,.1,-.1,.1,-.1c.1,0,.5,.4,.6,.6c.1,.1,.2,.1,.2,.1c.1,0,.1,-.1,-.1,-.3c-.1,-.2,-.3,-.5,-.4,-.8c-.1,-.2,-.4,-.8,-.6,-1.3c-.3,-.5,-.5,-1,-.5,-1.1c0,-.1,.2,-.6,.5,-1.1c.6,-1,1.6,-2.2,2.5,-2.8c.4,-.3,.8,-.6,.9,-.8c.4,-.5,.6,-.5,.9,.2c.2,.6,.3,.6,.4,.5c.1,0,.2,0,.2,0c0,0,.1,.2,.1,.4c.1,.6,-.1,.4,-.6,-.4c-.4,-.7,-.5,-.8,-.7,-.5c-.1,.1,-.7,.6,-1.1,.9c-.7,.4,-1.8,1.8,-2.5,2.9l-.4,.7l.7,1.4c.7,1.4,1.1,2.2,1.5,2.7c.2,.4,.2,.6,-.2,.3Z" class="g6_88"/>
<path d="M128.1,958.3c-.1,-.1,0,-.1,0,-.1c.1,-.1,.1,0,.2,.1c0,.1,0,.2,0,.2c-.1,0,-.2,-.1,-.2,-.2Z" class="g6_88"/>
<path d="M127.6,957.3c-.3,-.6,-.2,-.8,0,-.4c.2,.2,.4,.8,.3,.9c-.1,0,-.2,-.1,-.3,-.5Z" class="g6_88"/>
<path d="M140.1,951.2c.5,-.3,1.1,-.5,1.2,-.4c.1,.2,-.1,.3,-.8,.4c-.8,.3,-.9,.3,-.4,0Z" class="g6_88"/>
<path d="M141.5,950.7c0,0,0,-.2,0,-.4c0,-.5,.7,-1.7,1.3,-2.3c1.7,-1.6,3.9,-3,5.7,-3.5c.6,-.2,.6,-.4,-.1,-.2c-.3,0,-1.3,.2,-2.2,.3c-1,.1,-1.9,.3,-2.1,.4c-.4,.1,-1.2,.6,-1.5,.9c-.2,.3,-.3,.3,-.4,.2c-.1,-.2,.9,-1,1.4,-1.2c1.1,-.4,1.4,-.4,2.1,-.5c.4,0,1.6,-.2,2.6,-.4c1.8,-.3,2,-.3,2.1,0c0,0,-.3,.2,-.7,.3c-2.5,1,-4.4,2,-5.3,2.8c-.2,.2,-.4,.4,-.4,.4c-.1,0,-.2,0,-.3,.1c-.1,.1,-.3,.4,-.6,.6c-.2,.2,-.5,.6,-.6,.8c-.1,.1,-.3,.4,-.5,.5c-.1,.2,-.2,.5,-.3,.7c0,.4,-.1,.6,-.2,.5Z" class="g6_88"/>
<path d="M132.6,951.2c-.1,-.2,-.2,-.7,-.1,-1c0,0,.3,-.3,.6,-.5c.3,-.2,.7,-.4,.8,-.5l.2,-.2l-.1,.2c-.2,.3,-1,1,-1.2,1.1c-.1,0,-.2,.2,-.2,.4c0,.1,0,.3,0,.5c0,.1,0,.2,0,0Z" class="g6_88"/>
<path d="M141.5,945.6c.2,-.2,.5,-.2,.5,-.1c0,.1,-.1,.2,-.3,.2q-.4,0,-.2,-.1Z" class="g6_88"/>
<path d="M125.7,978.1c0,0,0,-.1,0,-.2c0,-.1,.1,-.6,.1,-1.2c0,-1.3,0,-1.8,.4,-4.2q0,-.5,-.5,-1.5c-.3,-.7,-.5,-1.2,-.6,-1.6c-.1,-.3,-.2,-.8,-.2,-.9c-.3,-1.1,-.4,-4.2,-.1,-5.2c.1,-.4,.2,-.8,.2,-1c.1,-.4,.2,-.3,.7,.4c.6,1,.9,.9,.3,-.1c-.4,-.7,-.8,-2,-.8,-2.6c0,-.4,.6,-1.9,1,-2.7c.1,-.3,.2,-.4,.4,-.5c.2,0,.3,.1,.5,.4c.5,.6,.6,.9,.5,.9c-.1,0,-.3,-.2,-.4,-.5c-.4,-.7,-.6,-.6,-1.2,.9c-.7,1.8,-.6,2.4,.7,4.7c.5,.9,.8,1.5,.7,1.5c-.2,.1,-1.4,-1,-1.7,-1.6c-.1,-.1,-.2,-.2,-.3,-.3c-.1,-.1,-.1,0,-.2,.1c-.3,.9,-.4,2.6,-.2,4.1c0,.5,.1,1.1,.1,1.3c0,.6,1,3.2,1.2,3.1c.1,0,.1,-.1,.1,-.2c0,-.2,.1,-.7,.3,-1.3c.2,-.6,.3,-1.2,.4,-1.4c0,-.1,0,-.3,.1,-.3c.1,0,.4,-1.1,.4,-1.2c0,0,.1,-.3,.2,-.6c.9,-1.9,1.3,-2.8,1.6,-3.5c.8,-1.6,1.6,-3.2,2.3,-4.2c.7,-1.2,1.3,-2.1,1.9,-3.1c.2,-.3,.5,-.8,.7,-1c.1,-.2,.3,-.4,.3,-.5c0,-.1,.6,-.7,.9,-1.1c.1,-.1,.3,-.3,.5,-.6c.6,-.9,1,-1.3,1.1,-1.3c.1,.1,.1,0,-.7,1.1c-1.5,2,-2.3,3.2,-3.6,5.4c-.3,.4,-.7,1.1,-1,1.5c-.4,.6,-.5,.8,-.4,.9c.4,0,.3,.4,-.8,2.6c-.7,1.3,-1.4,2.7,-1.5,3.1c-.2,.4,-.4,1,-.6,1.3c-.2,.7,-.4,1.5,-.4,1.9c0,.1,-.1,.4,-.1,.6c-.1,.3,-.2,.8,-.2,1.2c-.1,.6,-.1,.7,.1,.7c.1,.1,.2,0,.2,-.1c.1,0,.3,-.3,.6,-.5c.3,-.2,.5,-.4,.6,-.5c0,-.1,.3,-.3,.5,-.5c.7,-.6,1.1,-1,1.5,-1.6c.3,-.4,.6,-.7,.7,-.8c.2,-.3,1.1,-1.9,1.1,-2.1c0,-.1,-.1,-.2,-.6,-.5c-.7,-.3,-.6,-.4,.1,-.1c.3,.1,.6,.2,.7,.2c.4,-.1,.3,.2,-.2,1.3c-.3,.6,-.7,1.2,-.9,1.4c-.1,.1,-.4,.5,-.6,.7c-.2,.3,-.4,.6,-.5,.7c-.1,.1,-.3,.3,-.5,.4c-.1,.2,-.4,.5,-.6,.7c-.2,.2,-.5,.4,-.6,.6c-.1,.1,-.3,.2,-.3,.2c-.1,0,-.3,.2,-.5,.4c-.2,.2,-.5,.4,-.7,.4c-.2,.1,-.3,.3,-.3,.7c-.1,.4,-.1,.7,-.1,.7c0,.1,0,.3,0,.6c0,.3,.1,.7,.1,.9c.2,.9,.1,1.2,-.1,1.4c-.4,.2,-1.1,1.2,-1.3,1.7c-.2,.5,-.3,.6,-.5,.4Z" class="g7_88"/>
<path d="M134,964.6c-.4,0,-.8,-.1,-1,-.1c-.2,-.1,-.4,-.1,-.5,-.1c-.1,0,-.3,0,-.4,-.1c-.1,-.1,-.3,-.1,-.4,0c-.1,0,-.2,0,-.3,-.1c-.1,-.2,.3,-.2,1.8,.1c1.4,.3,2.5,-.1,2.7,-1c0,-.2,.1,-.6,.2,-.8c.1,-.2,.2,-.6,.2,-.8c.1,-.3,.1,-.8,.3,-1.6c.1,-.2,.2,-.6,.4,-.7c.1,-.2,.2,-.4,.1,-.4c0,0,-.2,0,-.4,0c-.4,.1,-1.6,-.1,-1.7,-.3c-.1,-.2,.8,-.6,2,-.8c.3,0,.4,-.1,.6,-.7c.6,-1.5,1.6,-3.3,2.9,-4.9c.1,-.2,.1,-.3,0,-.3c0,0,-.3,0,-.7,.2c-.6,.2,-1.3,.3,-1.4,.1c0,0,0,-.1,.1,-.2q.2,0,.2,.1c.1,.1,.1,.2,.1,.2c.3,-.1,1.3,-.5,1.6,-.7c.3,-.3,.6,-.4,.6,-.2c.1,.1,-.1,.8,-.2,1c-.2,.1,-.5,.5,-.7,.9c-.1,.1,-.4,.4,-.6,.7c-.3,.6,-.5,.9,-.6,1.3c-.1,.1,-.3,.4,-.4,.7c-.3,.5,-.6,1.1,-.8,1.7c-.1,.2,-.2,.2,-.7,.3c-.8,.2,-1.6,.5,-1.4,.6c0,.1,.4,.1,1,0c.8,-.1,.9,-.1,1,0c0,.1,-.1,.4,-.3,.6c-.3,.6,-.6,1.6,-.7,2.1c0,.3,-.1,.7,-.2,1c-.1,.3,-.2,.7,-.2,.8c-.1,.6,-.4,.9,-.8,1.1c-.6,.4,-.7,.4,-1.4,.3Z" class="g7_88"/>
<path d="M129.6,960.3c-.2,-.1,-.4,-.3,-.5,-.4c-.3,-.2,-1,-1,-1,-1.1c0,0,.1,-.1,.1,-.1c.1,0,.5,.4,.6,.6c.1,.1,.2,.1,.2,.1c.1,0,.1,-.1,-.1,-.3c-.1,-.2,-.3,-.5,-.4,-.8c-.1,-.2,-.4,-.8,-.6,-1.3c-.3,-.5,-.5,-1,-.5,-1.1c0,-.1,.2,-.6,.5,-1.1c.6,-1,1.6,-2.2,2.5,-2.8c.4,-.3,.8,-.6,.9,-.8c.4,-.5,.6,-.5,.9,.2c.2,.6,.3,.6,.4,.5c.1,0,.2,0,.2,0c0,0,.1,.2,.1,.4c.1,.6,-.1,.4,-.6,-.4c-.4,-.7,-.5,-.8,-.7,-.5c-.1,.1,-.7,.6,-1.1,.9c-.7,.4,-1.8,1.8,-2.5,2.9l-.4,.7l.7,1.4c.7,1.4,1.1,2.2,1.5,2.7c.2,.4,.2,.6,-.2,.3Z" class="g7_88"/>
<path d="M128.1,958.3c-.1,-.1,0,-.1,0,-.1c.1,-.1,.1,0,.2,.1c0,.1,0,.2,0,.2c-.1,0,-.2,-.1,-.2,-.2Z" class="g7_88"/>
<path d="M127.6,957.3c-.3,-.6,-.2,-.8,0,-.4c.2,.2,.4,.8,.3,.9c-.1,0,-.2,-.1,-.3,-.5Z" class="g7_88"/>
<path d="M140.1,951.2c.5,-.3,1.1,-.5,1.2,-.4c.1,.2,-.1,.3,-.8,.4c-.8,.3,-.9,.3,-.4,0Z" class="g7_88"/>
<path d="M141.5,950.7c0,0,0,-.2,0,-.4c0,-.5,.7,-1.7,1.3,-2.3c1.7,-1.6,3.9,-3,5.7,-3.5c.6,-.2,.6,-.4,-.1,-.2c-.3,0,-1.3,.2,-2.2,.3c-1,.1,-1.9,.3,-2.1,.4c-.4,.1,-1.2,.6,-1.5,.9c-.2,.3,-.3,.3,-.4,.2c-.1,-.2,.9,-1,1.4,-1.2c1.1,-.4,1.4,-.4,2.1,-.5c.4,0,1.6,-.2,2.6,-.4c1.8,-.3,2,-.3,2.1,0c0,0,-.3,.2,-.7,.3c-2.5,1,-4.4,2,-5.3,2.8c-.2,.2,-.4,.4,-.4,.4c-.1,0,-.2,0,-.3,.1c-.1,.1,-.3,.4,-.6,.6c-.2,.2,-.5,.6,-.6,.8c-.1,.1,-.3,.4,-.5,.5c-.1,.2,-.2,.5,-.3,.7c0,.4,-.1,.6,-.2,.5Z" class="g7_88"/>
<path d="M132.6,951.2c-.1,-.2,-.2,-.7,-.1,-1c0,0,.3,-.3,.6,-.5c.3,-.2,.7,-.4,.8,-.5l.2,-.2l-.1,.2c-.2,.3,-1,1,-1.2,1.1c-.1,0,-.2,.2,-.2,.4c0,.1,0,.3,0,.5c0,.1,0,.2,0,0Z" class="g7_88"/>
<path d="M141.5,945.6c.2,-.2,.5,-.2,.5,-.1c0,.1,-.1,.2,-.3,.2q-.4,0,-.2,-.1Z" class="g7_88"/>
<path d="M127.2,975.8c.1,-.1,.1,-.3,.1,-.6c-.1,-.2,-.1,-.8,-.1,-1.4c0,-.5,0,-1,0,-1c0,-.1,0,-.2,0,-.3c0,-.2,.1,-.5,.1,-.8c.1,-1.3,.1,-1.6,.5,-3.1c0,-.2,.1,-.6,.1,-.8c.2,-.9,1.2,-3.1,2.4,-5.4c.6,-1.3,.9,-2,.9,-2.1c0,0,-.3,.4,-.6,1c-.3,.6,-.7,1.4,-.9,1.8c-.9,1.8,-1.9,4,-2,4.5c0,.2,-.2,.6,-.3,.9c0,.2,-.1,.4,-.1,.5c.1,.1,-.3,1.3,-.5,1.8c0,.2,-.1,.6,-.1,.8c-.1,.2,-.2,.7,-.2,1c-.3,1,-.5,2.6,-.3,2.9c0,.1,.2,.2,.4,.2c.4,.2,.3,.2,.6,.1Z" class="g6_88"/>
<path d="M124.9,968.5c-.1,-.2,-.3,-2,-.3,-3.2c0,-.8,.1,-1.6,.2,-2.2c.1,-.3,.2,-.7,.2,-.8c.1,-.4,.3,-.3,.6,.2c.1,.3,.4,.7,.6,.9l.3,.4l-.1,-.4c-.1,-.2,-.4,-.7,-.5,-1.1c-.4,-.9,-.7,-2.2,-.6,-2.7c.1,-.4,.6,-1.6,.9,-2.3c.2,-.5,.6,-.6,.8,-.3q0,.1,-.2,.2c-.2,0,-.3,.1,-.5,.4c-.6,1.3,-.8,2.4,-.8,3c.1,.2,.3,.9,.5,1.4c.3,.9,.5,1.2,1,1.8c.3,.4,.5,.8,.5,.9c0,.1,-.6,-.2,-.9,-.5c-.1,-.1,-.3,-.3,-.4,-.5c-.1,-.1,-.4,-.4,-.6,-.7l-.3,-.4l-.1,.2c-.4,.9,-.5,2.5,-.3,4.4c.1,1.2,.1,1.6,0,1.3Z" class="g8_88"/>
<path d="M133.7,964.6c-.2,0,-.4,-.1,-.6,-.1c-.2,-.1,-.4,-.1,-.5,-.1c-.2,0,-.8,-.2,-.8,-.3c0,0,.5,.1,1,.2c1.3,.2,2,.1,2.5,-.2c.4,-.3,.5,-.5,.8,-1.3c.2,-1,.3,-1.1,.3,-1.6c.1,-.6,.2,-1,.6,-1.7c.1,-.3,.2,-.5,.2,-.6c0,0,-.2,0,-.5,.1c-.3,.1,-.5,.1,-1.1,-.1l-.6,-.1l.1,-.2c.2,-.2,.8,-.5,1.6,-.6l.7,-.1l.3,-.7c.5,-1.4,1.6,-3.2,2.4,-4.4c.3,-.4,.5,-.8,.4,-.8q0,-.2,-.7,.1q-.7,.4,-.7,.3c0,-.1,.2,-.2,.3,-.2c.2,0,.5,-.3,.8,-.5c.4,-.2,.7,-.3,.8,-.2c.2,.1,-.1,.7,-.5,1.2c-.7,.8,-2,3,-2.6,4.5c-.1,.3,-.2,.6,-.3,.7c0,0,-.2,.1,-.3,.2c-.8,.1,-1,.1,-1.4,.3q-.5,.2,-.3,.3c0,.1,.3,.1,1,0c.7,-.1,.9,-.1,.9,0c.1,.1,-.1,.4,-.3,.8c-.4,.7,-.6,1.4,-.6,2c0,.2,-.1,.6,-.2,1c-.2,.4,-.2,.7,-.2,.7c0,.1,-.1,.3,-.2,.5c-.3,.7,-1.2,1,-2.3,.9Z" class="g8_88"/>
<path d="M131.5,964.2c0,0,0,-.1,.1,-.1c0,0,.1,0,.1,.1h-.1q0,.1,-.1,0Z" class="g8_88"/>
<path d="M129.3,960.1c-.6,-.5,-1.3,-1.4,-.9,-1.2c.1,.1,.3,.2,.3,.3c.1,.2,.4,.3,.5,.3c0,-.1,.5,.4,.6,.7c.1,.1,.1,.2,.1,.2c0,.1,-.3,-.1,-.6,-.3Z" class="g8_88"/>
<path d="M128.8,958.9c0,0,-.2,-.2,-.2,-.5c-.1,-.2,-.4,-.8,-.6,-1.3c-.3,-.5,-.5,-1,-.6,-1.1c0,-.2,.8,-1.9,1.2,-2.3c.1,-.1,.4,-.4,.7,-.7c.3,-.3,.6,-.6,.8,-.8c.6,-.4,.9,-.7,1.3,-1c.2,-.2,.4,-.4,.4,-.3c.3,0,.3,.2,.1,.2c-.1,.1,-.4,.3,-.7,.6c-.4,.3,-.7,.5,-.7,.5c-.2,0,-.4,.2,-.9,.9c-.3,.3,-.5,.5,-.6,.5c0,0,-.9,1.4,-1.2,1.8c-.2,.5,-.2,.6,.4,1.8c.8,1.6,.9,2,.6,1.7Z" class="g8_88"/>
<path d="M127.2,957.7c-.1,-.2,-.1,-.3,0,-.3c.1,0,.2,.2,.3,.3c0,.1,0,.2,0,.3c-.1,0,-.2,-.2,-.3,-.3Z" class="g8_88"/>
<path d="M127.6,957.4c0,-.1,-.1,-.3,-.2,-.4c0,-.1,0,-.2,0,-.2c.1,0,.5,.5,.5,.7c0,.3,-.2,.2,-.3,-.1Z" class="g8_88"/>
<path d="M138.4,952.3c0,0,.1,-.1,.2,-.1c0,0,.1,0,.2,.1c0,0,-.1,.1,-.2,.1c-.1,0,-.2,0,-.2,-.1Z" class="g8_88"/>
<path d="M132.5,952.3c-.1,-.3,.1,-.4,.3,-.1c.1,.2,.1,.4,0,.4c-.1,0,-.2,-.1,-.3,-.3Z" class="g8_88"/>
<path d="M140.3,951.2c-.1,-.1,.8,-.4,.9,-.3c.1,0,.1,.1,0,.1c-.3,.1,-.9,.2,-.9,.2Z" class="g8_88"/>
<path d="M132.2,951.7c-.1,0,-.1,-.1,-.1,-.2c.1,-.1,.1,0,.2,.1c0,.1,0,.2,0,.2q-.1,0,-.1,-.1Z" class="g8_88"/>
<path d="M141.6,950.6c-.1,-.2,0,-.9,.2,-1.1c.1,-.2,.3,-.5,.4,-.7c.2,-.3,.4,-.5,.5,-.6c.1,-.1,.3,-.3,.4,-.4c.4,-.4,2,-1.7,2.8,-2.1c.8,-.4,1.9,-.9,2.8,-1.3c.6,-.2,.6,-.4,0,-.2c-.3,0,-1.3,.2,-2.2,.3c-1.7,.2,-2,.3,-2.4,.4c-.4,.2,-1.2,.7,-1.5,1c-.1,.1,-.2,.2,-.3,.2c-.2,-.1,.8,-1,1.2,-1.2c.7,-.2,1.8,-.5,2.4,-.5c.4,-.1,1.5,-.2,2.4,-.4c.9,-.1,1.7,-.3,1.8,-.2c.3,0,.3,.2,0,.4c-1.4,.5,-2.5,.9,-3.3,1.4c-.8,.4,-1.7,.9,-2,1.1c0,0,-.2,.2,-.4,.4c-1,.8,-1.8,1.6,-2,1.9c-.1,.2,-.2,.3,-.3,.3c-.1,0,-.4,.7,-.4,1.1c0,.2,-.1,.3,-.1,.2Z" class="g8_88"/>
<path d="M132.6,950.2c-.1,0,.6,-.5,1,-.8c.3,-.1,.2,0,-.2,.4c-.4,.4,-.8,.5,-.8,.4Z" class="g8_88"/>
<path d="M141.7,945.6q-.1,0,0,-.1c.1,-.1,.3,0,.2,.1c0,0,-.1,.1,-.2,0Z" class="g8_88"/>
<path d="M125.9,971.3c-.1,-.1,-.1,-.2,0,-.2c0,0,.1,0,.1,.1c.1,.2,.1,.3,.1,.3c-.1,0,-.2,-.1,-.2,-.2Z" class="g9_88"/>
<path d="M129,970.8q0,-.1,.1,-.2q.2,0,.2,.1c-.1,.1,-.4,.2,-.3,.1Z" class="g9_88"/>
<path d="M125.6,970.7q0,-.1,.1,-.1c0,0,.1,.1,.1,.2q0,.1,-.2,-.1Z" class="g9_88"/>
<path d="M129.5,970.3c0,0,.2,-.2,.4,-.4c.2,-.2,.5,-.4,.5,-.6c.2,-.2,.4,-.3,.4,-.2c0,.1,-1,1.1,-1.2,1.2q-.1,.1,-.1,0Z" class="g9_88"/>
<path d="M125.4,970.1c-.1,-.1,-.1,-.3,-.1,-.4c0,-.2,0,-.1,.1,0c0,.1,.1,.3,.1,.4q0,.2,-.1,0Z" class="g9_88"/>
<path d="M131.2,968.5c.2,-.4,1,-1.3,1.1,-1.4c.1,-.1,.1,0,.1,0c.1,0,0,.2,-.2,.3c-.1,.2,-.4,.6,-.6,.9c-.5,.6,-.8,.8,-.4,.2Z" class="g9_88"/>
<path d="M124.8,968c0,0,0,-.1,0,-.1c.1,-.1,.1,0,.2,0c0,.1,0,.2,0,.2q-.1,0,-.2,-.1Z" class="g9_88"/>
<path d="M132.5,966.9c0,-.3,.6,-1.3,.7,-1.2c.1,0,-.6,1.3,-.7,1.3c0,0,0,-.1,0,-.1Z" class="g9_88"/>
<path d="M124.8,967.4c-.1,-.1,-.1,-.2,-.1,-.3c.1,-.2,.2,-.1,.2,.2c0,.1,-.1,.2,-.1,.1Z" class="g9_88"/>
<path d="M124.7,966.7c0,-.1,0,-.2,0,-.3c.1,-.1,.1,.1,.1,.3v.2Z" class="g9_88"/>
<path d="M133.2,965.5c0,-.1,0,-.3,-.1,-.4c-.1,-.1,0,-.2,.1,-.2c.4,0,.5,.1,.2,.5q-.1,.2,-.2,.1Z" class="g9_88"/>
<path d="M124.6,965.6c0,-.3,.1,-.9,.1,-.9c.1,.1,.1,.5,0,.7c0,.2,-.1,.2,-.1,.2Z" class="g9_88"/>
<path d="M134,964.6c-.3,0,-.6,-.1,-.7,-.1q-.2,-.1,.1,-.1c.1,0,.5,0,.9,0c.5,0,.6,0,1,-.3c.3,-.2,.5,-.4,.6,-.6c.2,-.4,.2,-.3,.1,.2c-.1,.3,-.3,.4,-.7,.6c-.5,.3,-.6,.3,-1.3,.3Z" class="g9_88"/>
<path d="M132.4,964.3q-.4,-.1,-.1,-.1c.2,0,.3,.1,.3,.1c.1,0,.1,.1,.1,.1c-.1,0,-.2,-.1,-.3,-.1Z" class="g9_88"/>
<path d="M127,964.5c-.3,-.2,-.5,-.6,-.4,-.6c.1,0,0,-.2,-.1,-.3c-.3,-.6,-1,-2.2,-1,-2.4c0,-.1,.1,0,.3,.5c.1,.3,.6,1.1,1,1.8c.3,.6,.6,1.2,.6,1.2c-.1,0,-.2,-.1,-.4,-.2Z" class="g9_88"/>
<path d="M124.7,964.3c-.1,-.1,0,-.9,.2,-.9c0,-.1,0,0,0,.2c0,.4,-.1,.8,-.2,.7Z" class="g9_88"/>
<path d="M136.1,962.8c0,-.1,.1,-.2,.1,-.3q.1,-.1,.1,0c0,.1,-.1,.3,-.1,.3q-.1,.2,-.1,0Z" class="g9_88"/>
<path d="M126.2,963.6q-.1,-.1,0,-.1c0,.1,.1,.2,.1,.2c0,.1,-.1,0,-.1,-.1Z" class="g9_88"/>
<path d="M124.9,963.2c0,-.1,0,-.2,.1,-.4c0,-.1,.1,-.3,.1,-.5c0,-.3,.3,-.2,.4,.2c0,.2,0,.3,0,.2c-.1,-.1,-.4,-.2,-.4,0c.1,.1,-.1,.6,-.2,.5Z" class="g9_88"/>
<path d="M136.3,962.1c0,0,.1,-.1,.1,-.3q.1,-.3,.1,.1c0,.2,-.1,.3,-.2,.2Z" class="g9_88"/>
<path d="M136.5,960.9c0,-.1,0,-.2,.1,-.3c0,0,.1,0,0,.1c0,.1,0,.2,0,.3q-.1,0,-.1,-.1Z" class="g9_88"/>
<path d="M136.7,960.3c-.1,-.1,.1,-.6,.3,-.9c.2,-.2,.2,-.4,.2,-.4c-.1,-.1,-.3,-.1,-.7,0c-.7,.1,-.8,-.1,-.1,-.2c.4,-.1,.8,-.1,.9,-.2c.3,-.1,.3,.2,-.1,1c-.3,.4,-.5,.8,-.5,.7Z" class="g9_88"/>
<path d="M129.5,960.2c-.1,-.1,-.3,-.2,-.5,-.4c-.3,-.2,-.7,-.8,-.5,-.7c.1,0,.2,.1,.2,.2c.1,.1,.3,.2,.4,.3c.2,0,.4,.2,.6,.4c.3,.4,.2,.5,-.2,.2Z" class="g9_88"/>
<path d="M125.3,960.2c0,-.1,0,-.3,0,-.5c.1,-.3,.6,-1.6,.7,-1.7c.1,-.1,.1,.1,-.2,.9c-.1,.4,-.3,.9,-.3,1.2c-.1,.3,-.1,.4,-.2,.1Z" class="g9_88"/>
<path d="M135.4,958.8c-.2,0,-.3,-.1,-.3,-.1c-.1,-.1,.7,-.5,1,-.5c.3,-.1,.2,0,-.2,.2c-.5,.1,-.6,.2,-.4,.4q.2,.1,-.1,0Z" class="g9_88"/>
<path d="M128.8,958.8c-.1,-.1,-.1,-.3,-.2,-.4q0,-.2,.1,0c0,.1,.1,.2,.1,.4q.1,.1,0,0Z" class="g9_88"/>
<path d="M136.9,958c.1,-.1,.2,-.1,.3,0c.1,0,0,.1,-.2,.1q-.3,0,-.1,-.1Z" class="g9_88"/>
<path d="M137.5,957.7c.1,-.2,.2,-.4,.2,-.4c.1,0,-.1,.6,-.2,.6c0,.1,0,-.1,0,-.2Z" class="g9_88"/>
<path d="M128.4,957.8c-.1,0,-.2,-.1,-.1,-.2q0,-.2,.1,.1q.2,.3,0,.1Z" class="g9_88"/>
<path d="M137.9,956.8c0,-.1,.1,-.2,.1,-.1c.1,0,0,.3,-.1,.4c-.1,0,-.1,-.1,0,-.3Z" class="g9_88"/>
<path d="M127.3,957.7c-.1,-.1,-.1,-.2,0,-.1q.2,.1,.1,.2q0,.1,-.1,-.1Z" class="g9_88"/>
<path d="M126,957.8c-.1,-.2,.5,-1,.7,-.9c.3,0,.3,.2,.1,.2c-.2,.1,-.4,.3,-.5,.4c-.1,.3,-.2,.4,-.3,.3Z" class="g9_88"/>
<path d="M127.6,957.3c-.1,-.2,-.1,-.4,-.1,-.4c.1,-.1,.4,.4,.3,.6c0,.1,0,0,-.2,-.2Z" class="g9_88"/>
<path d="M138,956.4c0,-.1,.2,-.5,.3,-.5c.1,0,.1,-.1,.2,-.3c.1,-.4,1,-1.8,2,-3.3c.1,-.2,.1,-.3,0,-.4c-.1,-.1,-.1,-.2,.1,-.3c.1,-.1,.2,-.2,.3,-.1c.2,.1,0,.7,-.2,.9c-.3,.3,-1.4,2,-1.7,2.5c-.6,1.2,-.9,1.6,-1,1.5Z" class="g9_88"/>
<path d="M127.9,956.9c-.1,-.1,-.1,-.2,0,-.2c0,0,.1,0,.1,.1c0,0,0,.1,0,.1c0,.1,-.1,0,-.1,0Z" class="g9_88"/>
<path d="M127.5,956.3c0,-.1,0,-.2,0,-.3q0,-.1,.1,.1c.1,.2,.2,.3,.1,.3c0,0,-.1,-.1,-.2,-.1Z" class="g9_88"/>
<path d="M127.7,955.5c-.1,-.1,0,-.4,.1,-.4c.1,0,.1,.2,0,.3c0,.1,-.1,.1,-.1,.1Z" class="g9_88"/>
<path d="M128,954.7c0,-.1,.1,-.3,.3,-.4c.1,-.2,.2,-.3,.2,-.4c.1,-.1,.1,-.2,.2,-.2c.1,0,0,.2,-.4,.7c-.2,.3,-.3,.4,-.3,.3Z" class="g9_88"/>
<path d="M129,953.4c.3,-.4,.8,-.9,.8,-.8c.1,0,-.4,.6,-.7,.9l-.2,.2Z" class="g9_88"/>
<path d="M132.6,952.5c-.1,-.1,-.2,-.4,0,-.4c.1,0,.3,.4,.2,.4c0,.1,-.1,.1,-.2,0Z" class="g9_88"/>
<path d="M136.3,952.1c.1,-.2,.2,-.3,.3,-.3c0,0,0,.1,-.1,.2c-.1,.2,-.2,.3,-.3,.3c0,0,0,-.1,.1,-.2Z" class="g9_88"/>
<path d="M130.6,952c.1,-.2,.2,-.2,.3,-.2c.1,-.1,-.2,.3,-.4,.3c-.1,0,0,0,.1,-.1Z" class="g9_88"/>
<path d="M140.7,951.1c-.1,0,0,-.1,.1,-.1c.2,-.1,.4,-.1,.4,-.1c0,.1,-.4,.3,-.5,.2Z" class="g9_88"/>
<path d="M131.3,951.3c.2,-.4,.5,-.5,.6,-.3c.1,0,-.2,.3,-.7,.5c0,.1,0,-.1,.1,-.2Z" class="g9_88"/>
<path d="M141.6,949.9c0,0,.1,-.2,.1,-.3c.1,-.1,.2,-.2,.2,-.1c0,0,0,.1,-.1,.3q-.1,.1,-.2,.1Z" class="g9_88"/>
<path d="M142.2,948.9c.2,-.4,.8,-1,2.4,-2.2c.8,-.7,2.6,-1.7,3.6,-2.1c1,-.3,1.1,-.4,1.1,-.5c-.2,-.2,.7,-.5,.9,-.3c.2,.2,.1,.3,-.1,.3c-.1,.1,-.5,.2,-.8,.3c-.4,.2,-1,.4,-1.3,.6c-1.1,.4,-1.9,.8,-2.4,1.2c-.2,.1,-.5,.3,-.6,.4c-.1,0,-.4,.2,-.5,.4c-.2,.1,-.4,.3,-.4,.3c0,0,-.2,.1,-.4,.2c-1.1,1.1,-1.3,1.3,-1.3,1.5c0,.1,-.1,.2,-.2,.2q-.1,0,0,-.3Z" class="g9_88"/>
<path d="M133,949.9c0,0,0,-.1,.1,-.1c0,0,.1,.1,0,.1q0,.1,-.1,.1v-.1Z" class="g9_88"/>
<path d="M142.3,946c0,0,0,-.1,.1,-.2c.1,0,.2,-.1,.2,-.1q0,.1,-.1,.2c-.1,.1,-.2,.1,-.2,.1Z" class="g9_88"/>
<path d="M143,945.3c.1,-.2,.5,-.3,.5,-.2c.1,0,-.3,.3,-.5,.4q-.2,0,0,-.2Z" class="g9_88"/>
<path d="M144.6,944.7c.1,-.1,.2,-.1,.3,-.1q.1,0,0,0c-.1,.1,-.2,.1,-.3,.1q-.1,0,0,0Z" class="g9_88"/>
<path d="M145.2,944.5c0,0,.4,-.1,.9,-.1c.6,-.1,.9,-.1,.9,0c0,0,-.4,.1,-.9,.1c-.6,.1,-.9,.1,-.9,0Z" class="g9_88"/>
<path d="M147.1,944.3c.1,0,.4,-.1,.9,-.2c.5,0,.7,0,.6,0c-.3,.1,-1.5,.3,-1.5,.2Z" class="g9_88"/>
<path d="M125.8,978.1c0,0,0,-.4,0,-.7c0,-.4,0,-.8,0,-.8c0,-.1,0,-.8,0,-1q.1,-.1,.5,.1c.9,.5,1.2,.3,1,-.7c-.1,-1,.1,-1.2,.3,-.2c.1,.7,.1,.9,-.2,1.1c-.6,.5,-1.5,1.9,-1.4,2.1c.1,.1,0,.1,-.1,.1c0,0,-.1,0,-.1,0Z" class="ga_88"/>
<path d="M127.3,974c0,-.1,0,-.7,.1,-.7c.1,-.1,.1,0,.1,.4c-.1,.3,-.1,.4,-.2,.3Z" class="ga_88"/>
<path d="M127.3,972.8c0,0,0,-.3,0,-.6c0,-.2,.1,-.7,.1,-1c.1,-1,.5,-3.2,.7,-3.3c0,0,0,.2,0,.3c0,.2,-.1,.4,-.1,.6c0,.1,-.1,.4,-.1,.6c-.2,.6,-.3,2,-.1,2.2c0,0,0,.1,-.1,.2c0,0,-.1,.2,-.2,.5c0,.5,-.1,.6,-.2,.5Z" class="ga_88"/>
<path d="M126.2,972.5q0,-.1,.1,-.2c0,-.1,0,-.2,0,-.4c-.1,-.2,.2,-.6,.3,-.4c0,.1,-.2,1,-.3,1h-.1Z" class="ga_88"/>
<path d="M125.9,971.3c-.1,-.1,-.1,-.2,0,-.2c0,0,.1,0,.1,.1c.1,.2,.1,.3,.1,.3c-.1,0,-.2,-.1,-.2,-.2Z" class="ga_88"/>
<path d="M126.5,971.2c0,-.1,0,-.4,.2,-.8c.1,-.4,.2,-1,.3,-1.4c.1,-.4,.2,-.8,.3,-.8c.1,-.1,.1,0,0,.3c0,.2,-.1,.5,-.1,.6c-.1,.7,-.6,2.2,-.7,2.1Z" class="ga_88"/>
<path d="M129,970.8q0,-.1,.1,-.2q.2,0,.2,.1c-.1,.1,-.4,.2,-.3,.1Z" class="ga_88"/>
<path d="M125.6,970.7q0,-.1,.1,-.1c0,0,.1,.1,.1,.2q0,.1,-.2,-.1Z" class="ga_88"/>
<path d="M129.5,970.3c0,0,.2,-.2,.4,-.4c.2,-.2,.5,-.4,.5,-.6c.2,-.2,.4,-.3,.4,-.2c0,.1,-1,1.1,-1.2,1.2q-.1,.1,-.1,0Z" class="ga_88"/>
<path d="M125.4,970.1c-.1,-.1,-.1,-.3,-.1,-.4c0,-.2,0,-.1,.1,0c0,.1,.1,.3,.1,.4q0,.2,-.1,0Z" class="ga_88"/>
<path d="M131.2,968.5c.2,-.4,1,-1.3,1.1,-1.4c.1,-.1,.1,0,.1,0c.1,0,0,.2,-.2,.3c-.1,.2,-.4,.6,-.6,.9c-.5,.6,-.8,.8,-.4,.2Z" class="ga_88"/>
<path d="M124.8,968c0,0,0,-.1,0,-.1c.1,-.1,.1,0,.2,0c0,.1,0,.2,0,.2q-.1,0,-.2,-.1Z" class="ga_88"/>
<path d="M128.1,967.8c0,-.5,1.5,-4,2.7,-6.2c.2,-.4,.5,-1,.5,-1.1c0,-.4,.2,-.5,.3,-.4c.1,.2,-.2,.9,-1.3,2.8c-.5,1.1,-1,2.2,-1.2,2.5c-.2,.6,-.6,1.5,-.9,2.2q-.1,.2,-.1,.2Z" class="ga_88"/>
<path d="M127.5,967.4h.1c0,-.1,.1,-.1,.1,0c0,0,0,.1,0,.1q-.1,0,-.2,-.1Z" class="ga_88"/>
<path d="M132.5,966.9c0,-.3,.6,-1.3,.7,-1.2c.1,0,-.6,1.3,-.7,1.3c0,0,0,-.1,0,-.1Z" class="ga_88"/>
<path d="M124.8,967.4c-.1,-.1,-.1,-.2,-.1,-.3c.1,-.2,.2,-.1,.2,.2c0,.1,-.1,.2,-.1,.1Z" class="ga_88"/>
<path d="M127.6,966.9c0,0,0,-.1,.1,-.1q.1,-.1,.1,0c.1,.1,-.1,.2,-.2,.1Z" class="ga_88"/>
<path d="M124.7,966.7c0,-.1,0,-.2,0,-.3c.1,-.1,.1,.1,.1,.3v.2Z" class="ga_88"/>
<path d="M127.9,966.5c-.1,-.1,.3,-.7,.4,-.7c0,0,-.1,.2,-.2,.4c-.1,.3,-.2,.4,-.2,.3Z" class="ga_88"/>
<path d="M133.2,965.5c0,-.1,0,-.3,-.1,-.4c-.1,-.1,0,-.2,.1,-.2c.4,0,.5,.1,.2,.5q-.1,.2,-.2,.1Z" class="ga_88"/>
<path d="M128.3,965.6c0,0,.2,-.5,.5,-1.1c.3,-.5,.4,-.7,.3,-.4c-.2,.5,-.9,1.8,-.8,1.5Z" class="ga_88"/>
<path d="M124.6,965.6c0,-.3,.1,-.9,.1,-.9c.1,.1,.1,.5,0,.7c0,.2,-.1,.2,-.1,.2Z" class="ga_88"/>
<path d="M134,964.6c-.3,0,-.6,-.1,-.7,-.1q-.2,-.1,.1,-.1c.1,0,.5,0,.9,0c.5,0,.6,0,1,-.3c.3,-.2,.5,-.4,.6,-.6c.2,-.4,.2,-.3,.1,.2c-.1,.3,-.3,.4,-.7,.6c-.5,.3,-.6,.3,-1.3,.3Z" class="ga_88"/>
<path d="M132.4,964.3q-.4,-.1,-.1,-.1c.2,0,.3,.1,.3,.1c.1,0,.1,.1,.1,.1c-.1,0,-.2,-.1,-.3,-.1Z" class="ga_88"/>
<path d="M127,964.5c-.3,-.2,-.5,-.6,-.4,-.6c.1,0,0,-.2,-.1,-.3c-.3,-.6,-1,-2.2,-1,-2.4c0,-.1,.1,0,.3,.5c.1,.3,.6,1.1,1,1.8c.3,.6,.6,1.2,.6,1.2c-.1,0,-.2,-.1,-.4,-.2Z" class="ga_88"/>
<path d="M124.7,964.3c-.1,-.1,0,-.9,.2,-.9c0,-.1,0,0,0,.2c0,.4,-.1,.8,-.2,.7Z" class="ga_88"/>
<path d="M136.1,962.8c0,-.1,.1,-.2,.1,-.3q.1,-.1,.1,0c0,.1,-.1,.3,-.1,.3q-.1,.2,-.1,0Z" class="ga_88"/>
<path d="M126.2,963.6q-.1,-.1,0,-.1c0,.1,.1,.2,.1,.2c0,.1,-.1,0,-.1,-.1Z" class="ga_88"/>
<path d="M129.3,963.2c.1,-.1,.2,-.2,.2,-.2c.1,0,0,.3,-.1,.4q-.2,.1,-.1,-.2Z" class="ga_88"/>
<path d="M129.8,962.3c.1,-.3,.3,-.6,.3,-.6c0,0,.2,-.5,.5,-1c.2,-.5,.6,-1.1,.7,-1.3c.2,-.3,.5,-.8,.8,-1.2c.4,-.7,.6,-1,.7,-.8c0,0,-.2,.4,-1,1.5c-.2,.4,-.5,.9,-.7,1.1c-.1,.3,-.3,.8,-.5,1.2c-.2,.4,-.5,.9,-.6,1.2c-.3,.7,-.5,.6,-.2,-.1Z" class="ga_88"/>
<path d="M124.9,963.2c0,-.1,0,-.2,.1,-.4c0,-.1,.1,-.3,.1,-.5c0,-.3,.3,-.2,.4,.2c0,.2,0,.3,0,.2c-.1,-.1,-.4,-.2,-.4,0c.1,.1,-.1,.6,-.2,.5Z" class="ga_88"/>
<path d="M136.3,962.1c0,0,.1,-.1,.1,-.3q.1,-.3,.1,.1c0,.2,-.1,.3,-.2,.2Z" class="ga_88"/>
<path d="M136.5,960.9c0,-.1,0,-.2,.1,-.3c0,0,.1,0,0,.1c0,.1,0,.2,0,.3q-.1,0,-.1,-.1Z" class="ga_88"/>
<path d="M136.7,960.3c-.1,-.1,.1,-.6,.3,-.9c.2,-.2,.2,-.4,.2,-.4c-.1,-.1,-.3,-.1,-.7,0c-.7,.1,-.8,-.1,-.1,-.2c.4,-.1,.8,-.1,.9,-.2c.3,-.1,.3,.2,-.1,1c-.3,.4,-.5,.8,-.5,.7Z" class="ga_88"/>
<path d="M129.5,960.2c-.1,-.1,-.3,-.2,-.5,-.4c-.3,-.2,-.7,-.8,-.5,-.7c.1,0,.2,.1,.2,.2c.1,.1,.3,.2,.4,.3c.2,0,.4,.2,.6,.4c.3,.4,.2,.5,-.2,.2Z" class="ga_88"/>
<path d="M125.3,960.2c0,-.1,0,-.3,0,-.5c.1,-.3,.6,-1.6,.7,-1.7c.1,-.1,.1,.1,-.2,.9c-.1,.4,-.3,.9,-.3,1.2c-.1,.3,-.1,.4,-.2,.1Z" class="ga_88"/>
<path d="M135.4,958.8c-.2,0,-.3,-.1,-.3,-.1c-.1,-.1,.7,-.5,1,-.5c.3,-.1,.2,0,-.2,.2c-.5,.1,-.6,.2,-.4,.4q.2,.1,-.1,0Z" class="ga_88"/>
<path d="M128.8,958.8c-.1,-.1,-.1,-.3,-.2,-.4q0,-.2,.1,0c0,.1,.1,.2,.1,.4q.1,.1,0,0Z" class="ga_88"/>
<path d="M136.9,958c.1,-.1,.2,-.1,.3,0c.1,0,0,.1,-.2,.1q-.3,0,-.1,-.1Z" class="ga_88"/>
<path d="M137.5,957.7c.1,-.2,.2,-.4,.2,-.4c.1,0,-.1,.6,-.2,.6c0,.1,0,-.1,0,-.2Z" class="ga_88"/>
<path d="M128.4,957.8c-.1,0,-.2,-.1,-.1,-.2q0,-.2,.1,.1q.2,.3,0,.1Z" class="ga_88"/>
<path d="M137.9,956.8c0,-.1,.1,-.2,.1,-.1c.1,0,0,.3,-.1,.4c-.1,0,-.1,-.1,0,-.3Z" class="ga_88"/>
<path d="M127.3,957.7c-.1,-.1,-.1,-.2,0,-.1q.2,.1,.1,.2q0,.1,-.1,-.1Z" class="ga_88"/>
<path d="M126,957.8c-.1,-.2,.5,-1,.7,-.9c.3,0,.3,.2,.1,.2c-.2,.1,-.4,.3,-.5,.4c-.1,.3,-.2,.4,-.3,.3Z" class="ga_88"/>
<path d="M127.6,957.3c-.1,-.2,-.1,-.4,-.1,-.4c.1,-.1,.4,.4,.3,.6c0,.1,0,0,-.2,-.2Z" class="ga_88"/>
<path d="M133,956.7c.1,-.2,.2,-.3,.3,-.3c.1,.1,-.3,.7,-.4,.7c-.1,0,0,-.2,.1,-.4Z" class="ga_88"/>
<path d="M138,956.4c0,-.1,.2,-.5,.3,-.5c.1,0,.1,-.1,.2,-.3c.1,-.4,1,-1.8,2,-3.3c.1,-.2,.1,-.3,0,-.4c-.1,-.1,-.1,-.2,.1,-.3c.1,-.1,.2,-.2,.3,-.1c.2,.1,0,.7,-.2,.9c-.3,.3,-1.4,2,-1.7,2.5c-.6,1.2,-.9,1.6,-1,1.5Z" class="ga_88"/>
<path d="M127.9,956.9c-.1,-.1,-.1,-.2,0,-.2c0,0,.1,0,.1,.1c0,0,0,.1,0,.1c0,.1,-.1,0,-.1,0Z" class="ga_88"/>
<path d="M133.4,956.3c0,-.1,.5,-1,.8,-1.5c.1,-.1,.3,-.4,.4,-.5c.2,-.5,.8,-1.1,.9,-1.1c0,0,0,.2,-.1,.3c-.1,.1,-.3,.2,-.3,.3c-.1,.1,-.3,.4,-.5,.8c-.3,.3,-.6,.8,-.7,1c-.3,.5,-.4,.7,-.5,.7Z" class="ga_88"/>
<path d="M127.5,956.3c0,-.1,0,-.2,0,-.3q0,-.1,.1,.1c.1,.2,.2,.3,.1,.3c0,0,-.1,-.1,-.2,-.1Z" class="ga_88"/>
<path d="M127.7,955.5c-.1,-.1,0,-.4,.1,-.4c.1,0,.1,.2,0,.3c0,.1,-.1,.1,-.1,.1Z" class="ga_88"/>
<path d="M128,954.7c0,-.1,.1,-.3,.3,-.4c.1,-.2,.2,-.3,.2,-.4c.1,-.1,.1,-.2,.2,-.2c.1,0,0,.2,-.4,.7c-.2,.3,-.3,.4,-.3,.3Z" class="ga_88"/>
<path d="M129,953.4c.3,-.4,.8,-.9,.8,-.8c.1,0,-.4,.6,-.7,.9l-.2,.2Z" class="ga_88"/>
<path d="M135.9,952.6c.1,-.1,.2,-.2,.2,-.2c0,0,0,.1,-.1,.2l-.2,.3Z" class="ga_88"/>
<path d="M132.6,952.5c-.1,-.1,-.2,-.4,0,-.4c.1,0,.3,.4,.2,.4c0,.1,-.1,.1,-.2,0Z" class="ga_88"/>
<path d="M130.6,952c.1,-.2,.2,-.2,.3,-.2c.1,-.1,-.2,.3,-.4,.3c-.1,0,0,0,.1,-.1Z" class="ga_88"/>
<path d="M140.7,951.1c-.1,0,0,-.1,.1,-.1c.2,-.1,.4,-.1,.4,-.1c0,.1,-.4,.3,-.5,.2Z" class="ga_88"/>
<path d="M131.3,951.3c.2,-.4,.5,-.5,.6,-.3c.1,0,-.2,.3,-.7,.5c0,.1,0,-.1,.1,-.2Z" class="ga_88"/>
<path d="M141.6,949.9c0,0,.1,-.2,.1,-.3c.1,-.1,.2,-.2,.2,-.1c0,0,0,.1,-.1,.3q-.1,.1,-.2,.1Z" class="ga_88"/>
<path d="M142.2,948.9c.2,-.4,.8,-1,2.4,-2.2c.8,-.7,2.6,-1.7,3.6,-2.1c1,-.3,1.1,-.4,1.1,-.5c-.2,-.2,.7,-.5,.9,-.3c.2,.2,.1,.3,-.1,.3c-.1,.1,-.5,.2,-.8,.3c-.4,.2,-1,.4,-1.3,.6c-1.1,.4,-1.9,.8,-2.4,1.2c-.2,.1,-.5,.3,-.6,.4c-.1,0,-.4,.2,-.5,.4c-.2,.1,-.4,.3,-.4,.3c0,0,-.2,.1,-.4,.2c-1.1,1.1,-1.3,1.3,-1.3,1.5c0,.1,-.1,.2,-.2,.2q-.1,0,0,-.3Z" class="ga_88"/>
<path d="M133,949.9c0,0,0,-.1,.1,-.1c0,0,.1,.1,0,.1q0,.1,-.1,.1v-.1Z" class="ga_88"/>
<path d="M142.3,946c0,0,0,-.1,.1,-.2c.1,0,.2,-.1,.2,-.1q0,.1,-.1,.2c-.1,.1,-.2,.1,-.2,.1Z" class="ga_88"/>
<path d="M143,945.3c.1,-.2,.5,-.3,.5,-.2c.1,0,-.3,.3,-.5,.4q-.2,0,0,-.2Z" class="ga_88"/>
<path d="M144.6,944.7c.1,-.1,.2,-.1,.3,-.1q.1,0,0,0c-.1,.1,-.2,.1,-.3,.1q-.1,0,0,0Z" class="ga_88"/>
<path d="M145.2,944.5c0,0,.4,-.1,.9,-.1c.6,-.1,.9,-.1,.9,0c0,0,-.4,.1,-.9,.1c-.6,.1,-.9,.1,-.9,0Z" class="ga_88"/>
<path d="M147.1,944.3c.1,0,.4,-.1,.9,-.2c.5,0,.7,0,.6,0c-.3,.1,-1.5,.3,-1.5,.2Z" class="ga_88"/>
<path d="M128.2,957.8q-.1,-.2,-.1,-.1c-.1,.2,0,.4,.1,.4c.1,-.1,.1,-.2,0,-.3Z" class="g5_88"/>
</g>
<path d="M152.7,969.9H497.3" class="g0_88"/>
<path d="M137.6,979.2v77.7" class="gb_88"/>
</svg>