<?xml version="1.0" encoding="UTF-8" standalone="no"?>
<!DOCTYPE svg PUBLIC "-//W3C//DTD SVG 1.1//EN"
"http://www.w3.org/Graphics/SVG/1.1/DTD/svg11.dtd">
<svg viewBox="0 0 909 1286" version="1.1" xmlns="http://www.w3.org/2000/svg" xmlns:xlink="http://www.w3.org/1999/xlink">
<defs>
<style type="text/css"><![CDATA[
.g0_7{
fill: none;
stroke: #000000;
stroke-width: 0.73;
stroke-linecap: butt;
stroke-linejoin: miter;
}
.g1_7{
fill: none;
stroke: #02B5EE;
stroke-width: 0.73;
stroke-linecap: butt;
stroke-linejoin: miter;
}
.g2_7{
fill: none;
stroke: #F81693;
stroke-width: 0.73;
stroke-linecap: butt;
stroke-linejoin: miter;
}
.g3_7{
fill: none;
stroke: #02B5EE;
stroke-width: 1.461;
stroke-linecap: butt;
stroke-linejoin: miter;
}
.g4_7{
fill: #FFFFFF;
}
.g5_7{
fill: #FDE8E9;
}
]]></style>
</defs>
<path d="M116.9,179.9H623.1M343.8,209.5V180.3M221.1,260.4l24.8,14.8M221.1,260.4l-31.3,18.7m0,.2L165,264.5m22.6,14.8v25.5M192,279.3v25.5m26.9,-44.4V234.9m4.3,25.5V234.9m120.6,92.9V209.5" class="g0_7"/>
<path d="M494.5,264.3l18.3,10.9" class="g1_7"/>
<path d="M481.7,264.3l-18.2,10.9" class="g2_7"/>
<path d="M450.5,275.4L432.2,264.5m22.5,20.2v20.1m4.4,-20.1v20.1M485.9,255V234.9m4.4,20.1V234.9" class="g1_7"/>
<path d="M343.8,357.1V327.8m0,58.5V357.1" class="g0_7"/>
<path d="M453.1,384.8c1.4,0,2.1,-2.7,3.5,-2.7c.9,0,1.8,1.3,2.7,2.7c.9,1.4,1.7,2.8,2.7,2.8c1,0,1.9,-1.4,2.8,-2.8c.9,-1.4,1.7,-2.7,2.7,-2.7c1.4,0,2.1,2.7,3.4,2.7h4.2" class="g3_7"/>
<path d="M343.8,415.5V386.3m0,105.7V415.5" class="g0_7"/>
<path d="M421.4,484.2V423.3c0,-2.9,2.3,-5.2,5.2,-5.2H595.9c2.8,0,5.2,2.3,5.2,5.2v60.9c0,2.9,-2.4,5.2,-5.2,5.2H426.6c-2.9,0,-5.2,-2.3,-5.2,-5.2Z" class="g4_7"/>
<path d="M481.5,512.7H541V498.5H481.5v14.2Z" class="g5_7"/>
<path d="M447.4,473.8H575.1V433.7H447.4v40.1Z" class="g5_7"/>
<path d="M343.8,521.3V492M116.9,521.6H623.1M343.8,551.2V522m-92.2,80.2L276.4,617M251.6,602.2l-31.3,18.6M189.1,602.2l31.2,18.6M189.1,602.2L164.2,617m85.2,-14.8V576.6m4.3,25.6V576.6m-66.8,25.6V576.6m4.4,25.6V576.6M343.8,633V551.2" class="g0_7"/>
<path d="M525,606l18.3,11" class="g1_7"/>
<path d="M512.3,606L494,617M462.6,606l18.2,11" class="g2_7"/>
<path d="M449.8,606l-18.3,11m85,-20.3V576.6m4.3,20.1V576.6M454,596.7V576.6m4.4,20.1V576.6" class="g1_7"/>
<path d="M343.8,662.3V633m0,58.5V662.3" class="g0_7"/>
<path d="M471.8,690c1.3,0,2,-2.7,3.4,-2.7c1,0,1.8,1.3,2.7,2.7c.9,1.4,1.8,2.8,2.8,2.8c1,0,1.8,-1.4,2.7,-2.8c.9,-1.4,1.8,-2.7,2.8,-2.7c1.3,0,2,2.7,3.4,2.7h4.1" class="g3_7"/>
<path d="M343.8,720.7V691.5m0,105.7V720.7" class="g0_7"/>
<path d="M421.4,789.4V728.5c0,-2.9,2.3,-5.2,5.2,-5.2H595.9c2.8,0,5.2,2.3,5.2,5.2v60.9c0,2.9,-2.4,5.2,-5.2,5.2H426.6c-2.9,0,-5.2,-2.3,-5.2,-5.2Z" class="g4_7"/>
<path d="M476.1,817.9h70.3V803.7H476.1v14.2Z" class="g5_7"/>
<path d="M447.4,779H575.1V738.9H447.4V779Z" class="g5_7"/>
<path d="M343.8,826.5V797.2M116.9,826.8H623.1M343.8,856.4V827.2M279,907.4l24.8,14.8M279,907.4L247.7,926M216.5,907.4L247.7,926M216.5,907.4L185.3,926m0,.2L160.4,911.4m22.7,14.8v25.6m4.3,-25.6v25.6m89.4,-44.4V881.8m4.3,25.6V881.8m62.7,93V856.4" class="g0_7"/>
<path d="M552.4,911.2l18.3,11" class="g1_7"/>
<path d="M539.6,911.2l-18.2,11M490,911.2l18.2,11m-31,-11l-18.3,11" class="g2_7"/>
<path d="M445.9,922.4l-18.2,-11m22.4,20.3v20.1m4.4,-20.1v20.1m89.3,-49.9V881.8m4.4,20.1V881.8" class="g1_7"/>
<path d="M343.8,1004V974.8m0,58.4V1004" class="g0_7"/>
<path d="M453.3,1031.8c1.3,0,2,-2.8,3.4,-2.8c1,0,1.8,1.4,2.7,2.8c.9,1.4,1.8,2.7,2.8,2.7c1,0,1.8,-1.3,2.7,-2.7c.9,-1.4,1.7,-2.8,2.7,-2.8c1.4,0,2.1,2.8,3.5,2.8h4.1" class="g3_7"/>
<path d="M343.8,1062.4v-29.2m0,105.8v-76.6" class="g0_7"/>
<path d="M421.4,1131.2v-61c0,-2.8,2.3,-5.2,5.2,-5.2H595.9c2.8,0,5.2,2.4,5.2,5.2v61c0,2.8,-2.4,5.2,-5.2,5.2H426.6c-2.9,0,-5.2,-2.4,-5.2,-5.2Z" class="g4_7"/>
<path d="M476.1,1159.7h70.3v-14.3H476.1v14.3Z" class="g5_7"/>
<path d="M447.4,1120.8H575.1v-40.2H447.4v40.2Z" class="g5_7"/>
<path d="M343.8,1168.2V1139m-226.9,29.6H623.1" class="g0_7"/>
</svg>