<?xml version="1.0" encoding="UTF-8" standalone="no"?>
<!DOCTYPE svg PUBLIC "-//W3C//DTD SVG 1.1//EN"
"http://www.w3.org/Graphics/SVG/1.1/DTD/svg11.dtd">
<svg viewBox="0 0 1286 909" version="1.1" xmlns="http://www.w3.org/2000/svg" xmlns:xlink="http://www.w3.org/1999/xlink">
<defs>
<style type="text/css"><![CDATA[
.g0_1249{
fill: none;
stroke: #000000;
stroke-width: 0.73;
stroke-linecap: butt;
stroke-linejoin: miter;
}
.g1_1249{
fill: none;
stroke: #02B5EE;
stroke-width: 1.262;
stroke-linecap: butt;
stroke-linejoin: miter;
}
.g2_1249{
fill: none;
stroke: #5EE200;
stroke-width: 1.262;
stroke-linecap: butt;
stroke-linejoin: miter;
}
]]></style>
</defs>
<path d="M193,83.4h900.3M193,111.6h819.9m-819.9,0h819.9M581,141.2V112m0,114.3V141.2" class="g0_1249"/>
<path d="M828.1,202.3h44.1" class="g1_1249"/>
<path d="M882.7,202.3h119.2" class="g2_1249"/>
<path d="M581,255.5V226.3m0,58.4V255.5m0,114.2v-85" class="g0_1249"/>
<path d="M807.6,345.7h69.7" class="g1_1249"/>
<path d="M887.9,345.7h37.6m10.5,0h65.9" class="g2_1249"/>
<path d="M581,399V369.7m0,58.5V399m0,114.2v-85" class="g0_1249"/>
<path d="M783.6,489.2h79.2" class="g1_1249"/>
<path d="M873.3,489.2h37.6m10.5,0h80.5" class="g2_1249"/>
<path d="M581,542.4V513.2m0,58.5V542.4m0,114.3v-85" class="g0_1249"/>
<path d="M783.6,632.7h79.2" class="g1_1249"/>
<path d="M873.3,632.7h37.6m10.5,0h80.5" class="g2_1249"/>
<path d="M581,685.9V656.7m0,58.4V685.9m0,58.5V715.1M193,744.7h819.9m-819.9,0h819.9" class="g0_1249"/>
</svg>