<?xml version="1.0" encoding="UTF-8" standalone="no"?>
<!DOCTYPE svg PUBLIC "-//W3C//DTD SVG 1.1//EN"
"http://www.w3.org/Graphics/SVG/1.1/DTD/svg11.dtd">
<svg viewBox="0 0 909 1286" version="1.1" xmlns="http://www.w3.org/2000/svg" xmlns:xlink="http://www.w3.org/1999/xlink">
<defs>
<style type="text/css"><![CDATA[
.g0_76{
fill: none;
stroke: #000000;
stroke-width: 0.73;
stroke-linecap: butt;
stroke-linejoin: miter;
}
.g1_76{
fill: none;
stroke: #000000;
stroke-width: 1.461;
stroke-linecap: butt;
stroke-linejoin: miter;
}
.g2_76{
}
.g3_76{
fill: #F81693;
fill-opacity: 0.25;
stroke: #F81693;
stroke-width: 0.73;
stroke-linecap: butt;
stroke-linejoin: miter;
stroke-opacity: 0.25;
}
.g4_76{
fill: #5EE200;
fill-opacity: 0.25;
stroke: #5EE200;
stroke-width: 0.73;
stroke-linecap: butt;
stroke-linejoin: miter;
stroke-opacity: 0.25;
}
.g5_76{
fill: #FFF200;
fill-opacity: 0.75;
stroke: #FFF200;
stroke-width: 0.73;
stroke-linecap: butt;
stroke-linejoin: miter;
stroke-opacity: 0.75;
}
]]></style>
</defs>
<path d="M184.9,213.8V184.6m0,63.9V213.8m0,421.7v-387" class="g0_76"/>
<path d="M472,443.8c0,-21.5,-17.4,-38.9,-39,-38.9c-21.5,0,-38.9,17.4,-38.9,38.9c0,21.6,17.4,39,38.9,39c21.6,0,39,-17.4,39,-39Z" class="g1_76"/>
<path d="M416.8,408.4l-11.6,14.5l2.2,-10.2l-9.2,-4.9Z" class="g2_76"/>
<path d="M433,391.5l53.2,-53.2h-13V322H392.9v16.3h-13Z" class="g3_76"/>
<path d="M627.4,443.8L599.7,416.2v13H487.2v29.3H599.7v13Z" class="g4_76"/>
<path d="M355.1,307.4V249H511v58.4Z" class="g5_76"/>
<path d="M355.1,551v58.5H511V551Z" class="g5_76"/>
<path d="M184.9,664.8V635.5m0,58.5V664.8m0,58.4V694m0,58.4V723.2m0,116.9V752.4m0,111.4V840.1" class="g0_76"/>
</svg>