<?xml version="1.0" encoding="UTF-8" standalone="no"?>
<!DOCTYPE svg PUBLIC "-//W3C//DTD SVG 1.1//EN"
"http://www.w3.org/Graphics/SVG/1.1/DTD/svg11.dtd">
<svg viewBox="0 0 1286 909" version="1.1" xmlns="http://www.w3.org/2000/svg" xmlns:xlink="http://www.w3.org/1999/xlink">
<defs>
<style type="text/css"><![CDATA[
.g0_1013{
fill: none;
stroke: #000000;
stroke-width: 0.73;
stroke-linecap: butt;
stroke-linejoin: miter;
}
.g1_1013{
fill: #FFCCCC;
}
.g2_1013{
fill: none;
stroke: #F81693;
stroke-width: 1.461;
stroke-linecap: butt;
stroke-linejoin: miter;
stroke-dasharray: 2,2;
}
.g3_1013{
fill: #E6CEEE;
}
.g4_1013{
fill: #F81693;
}
.g5_1013{
fill: #FFE6E6;
}
]]></style>
</defs>
<path d="M193,83.4h900.3M193,111.6H842.2m-649.2,0H842.2M516.5,141.2V112m0,58.5V141.2m0,63.2V170.5" class="g0_1013"/>
<path d="M610.4,204.4h62.1V171.5H610.4v32.9Z" class="g1_1013"/>
<path d="M686.7,198H827.6" class="g2_1013"/>
<path d="M516.5,234.6V204.4m0,63.1V234.6" class="g0_1013"/>
<path d="M698.9,263.1h31.9" class="g2_1013"/>
<path d="M740.6,267.5h90.7V234.6H740.6v32.9Z" class="g1_1013"/>
<path d="M516.5,296.7V267.5m0,58.4V296.7m0,60.5V325.9m0,60.6V357.2m0,58.5V386.5m0,77.2v-48" class="g0_1013"/>
<path d="M601,459.9h45.5V427H601v32.9Z" class="g3_1013"/>
<path d="M657.1,455.9V423.5c0,-4.3,3.4,-7.8,7.7,-7.8H728c4.3,0,7.8,3.5,7.8,7.8v32.4c0,4.3,-3.5,7.8,-7.8,7.8H664.8c-4.3,0,-7.7,-3.5,-7.7,-7.8Z" class="g4_1013"/>
<path d="M659.6,455.9V423.5c0,-2.9,2.4,-5.2,5.2,-5.2H728c2.9,0,5.2,2.3,5.2,5.2v32.4c0,2.9,-2.3,5.2,-5.2,5.2H664.8c-2.8,0,-5.2,-2.3,-5.2,-5.2Z" class="g5_1013"/>
<path d="M746.3,459.9h85V427h-85v32.9Z" class="g3_1013"/>
<path d="M516.5,493V463.7m0,72.1V493" class="g0_1013"/>
<path d="M622.3,529.9h61.6V497.1H622.3v32.8Z" class="g3_1013"/>
<path d="M683.9,528V500.8c0,-4.4,3.5,-7.8,7.8,-7.8H719c4.3,0,7.8,3.4,7.8,7.8V528c0,4.3,-3.5,7.8,-7.8,7.8H691.7c-4.3,0,-7.8,-3.5,-7.8,-7.8Z" class="g4_1013"/>
<path d="M686.5,528V500.8c0,-2.9,2.3,-5.2,5.2,-5.2H719c2.8,0,5.2,2.3,5.2,5.2V528c0,2.9,-2.4,5.2,-5.2,5.2H691.7c-2.9,0,-5.2,-2.3,-5.2,-5.2Z" class="g5_1013"/>
<path d="M726.8,529.9h61.6V497.1H726.8v32.8Z" class="g3_1013"/>
<path d="M788.4,528V500.8c0,-4.4,3.5,-7.8,7.8,-7.8h27.3c4.3,0,7.8,3.4,7.8,7.8V528c0,4.3,-3.5,7.8,-7.8,7.8H796.2c-4.3,0,-7.8,-3.5,-7.8,-7.8Z" class="g4_1013"/>
<path d="M791,528V500.8c0,-2.9,2.3,-5.2,5.2,-5.2h27.3c2.8,0,5.2,2.3,5.2,5.2V528c0,2.9,-2.4,5.2,-5.2,5.2H796.2c-2.9,0,-5.2,-2.3,-5.2,-5.2Z" class="g5_1013"/>
<path d="M516.5,567.2V535.8m0,60.6V567.2m0,58.4V596.4m0,63.2v-34" class="g0_1013"/>
<path d="M626.6,659.6h59.6V626.7H626.6v32.9Z" class="g1_1013"/>
<path d="M700.3,653.2H827.6" class="g2_1013"/>
<path d="M516.5,688.8V659.6m0,62.1V688.8" class="g0_1013"/>
<path d="M682,717.3h48.8" class="g2_1013"/>
<path d="M740.6,721.7h90.7V688.8H740.6v32.9Z" class="g1_1013"/>
<path d="M516.5,750.9V721.7M193,751.2H842.2m-649.2,0H842.2" class="g0_1013"/>
</svg>