<?xml version="1.0" encoding="UTF-8" standalone="no"?>
<!DOCTYPE svg PUBLIC "-//W3C//DTD SVG 1.1//EN"
"http://www.w3.org/Graphics/SVG/1.1/DTD/svg11.dtd">
<svg viewBox="0 0 1286 909" version="1.1" xmlns="http://www.w3.org/2000/svg" xmlns:xlink="http://www.w3.org/1999/xlink">
<defs>
<style type="text/css"><![CDATA[
.g0_533{
fill: none;
stroke: #000000;
stroke-width: 0.73;
stroke-linecap: butt;
stroke-linejoin: miter;
}
.g1_533{
fill: none;
stroke: #02B5EE;
stroke-width: 1.262;
stroke-linecap: butt;
stroke-linejoin: miter;
}
.g2_533{
fill: none;
stroke: #5EE200;
stroke-width: 1.262;
stroke-linecap: butt;
stroke-linejoin: miter;
}
.g3_533{
fill: none;
stroke: #5EE200;
stroke-width: 0.73;
stroke-linecap: butt;
stroke-linejoin: miter;
}
.g4_533{
fill: none;
stroke: #02B5EE;
stroke-width: 0.73;
stroke-linecap: butt;
stroke-linejoin: miter;
}
]]></style>
</defs>
<path d="M193,83.4h900.3M193,210.6H882.6m-689.6,0H882.6M526.3,240.2V211m0,58.5V240.2m0,59.4V269.5m0,59.3V299.6m0,58.5V328.8m0,114.3v-85" class="g0_533"/>
<path d="M666.1,419.1H838.7" class="g1_533"/>
<path d="M849.2,419.1h22.4" class="g2_533"/>
<path d="M526.3,472.3V443.1m0,102.3V472.3" class="g0_533"/>
<path d="M537.3,531.5h34.4" class="g3_533"/>
<path d="M577.8,531.5H871.6" class="g4_533"/>
<path d="M526.3,576.7V545.4m0,62.6V576.7m0,60.6V608m0,58.5V637.3m0,58.4V666.5M193,696.1H882.6m-689.6,0H882.6" class="g0_533"/>
</svg>