<?xml version="1.0" encoding="UTF-8" standalone="no"?>
<!DOCTYPE svg PUBLIC "-//W3C//DTD SVG 1.1//EN"
"http://www.w3.org/Graphics/SVG/1.1/DTD/svg11.dtd">
<svg viewBox="0 0 1286 909" version="1.1" xmlns="http://www.w3.org/2000/svg" xmlns:xlink="http://www.w3.org/1999/xlink">
<defs>
<style type="text/css"><![CDATA[
.g0_468{
fill: none;
stroke: #000000;
stroke-width: 0.73;
stroke-linecap: butt;
stroke-linejoin: miter;
}
.g1_468{
fill: none;
stroke: #02B5EE;
stroke-width: 1.262;
stroke-linecap: butt;
stroke-linejoin: miter;
}
.g2_468{
fill: none;
stroke: #FFA313;
stroke-width: 1.262;
stroke-linecap: butt;
stroke-linejoin: miter;
}
.g3_468{
fill: none;
stroke: #FFA313;
stroke-width: 0.73;
stroke-linecap: butt;
stroke-linejoin: miter;
}
.g4_468{
fill: none;
stroke: #02B5EE;
stroke-width: 0.73;
stroke-linecap: butt;
stroke-linejoin: miter;
}
]]></style>
</defs>
<path d="M193,83.4h900.3M193,210.6H768.9m-575.9,0H768.9M430.3,240.2V211m0,58.5V240.2m0,114.3v-85" class="g0_468"/>
<path d="M495.3,330.5h34.6" class="g1_468"/>
<path d="M540.4,330.5H758" class="g2_468"/>
<path d="M430.3,384.6V354.5m0,103.2V384.6" class="g0_468"/>
<path d="M531.7,443.8H718.1" class="g3_468"/>
<path d="M724.2,443.8H758" class="g4_468"/>
<path d="M430.3,486.9V457.7m0,58.5V486.9m0,114.3v-85" class="g0_468"/>
<path d="M470.5,577.2h34.6" class="g1_468"/>
<path d="M515.6,577.2H758" class="g2_468"/>
<path d="M430.3,631.3V601.2m0,103.2V631.3" class="g0_468"/>
<path d="M514.8,690.5H718.1" class="g3_468"/>
<path d="M724.2,690.5H758" class="g4_468"/>
<path d="M430.3,733.6V704.4M193,734H768.9M193,734H768.9" class="g0_468"/>
</svg>