<?xml version="1.0" encoding="UTF-8" standalone="no"?>
<!DOCTYPE svg PUBLIC "-//W3C//DTD SVG 1.1//EN"
"http://www.w3.org/Graphics/SVG/1.1/DTD/svg11.dtd">
<svg viewBox="0 0 1286 909" version="1.1" xmlns="http://www.w3.org/2000/svg" xmlns:xlink="http://www.w3.org/1999/xlink">
<defs>
<style type="text/css"><![CDATA[
.g0_1162{
fill: none;
stroke: #000000;
stroke-width: 0.73;
stroke-linecap: butt;
stroke-linejoin: miter;
}
.g1_1162{
fill: none;
stroke: #F81693;
stroke-width: 1.262;
stroke-linecap: butt;
stroke-linejoin: miter;
}
.g2_1162{
fill: none;
stroke: #02B5EE;
stroke-width: 1.262;
stroke-linecap: butt;
stroke-linejoin: miter;
}
.g3_1162{
fill: none;
stroke: #02B5EE;
stroke-width: 1.461;
stroke-linecap: butt;
stroke-linejoin: miter;
stroke-dasharray: 2,2;
}
.g4_1162{
fill: #B3E9FA;
}
.g5_1162{
fill: #C6EAFA;
}
.g6_1162{
fill: #FFCCCC;
}
.g7_1162{
fill: none;
stroke: #C083D5;
stroke-width: 2.191;
stroke-linecap: butt;
stroke-linejoin: miter;
}
.g8_1162{
fill: none;
stroke: #F81693;
stroke-width: 1.051;
stroke-linecap: butt;
stroke-linejoin: miter;
}
.g9_1162{
fill: none;
stroke: #02B5EE;
stroke-width: 1.051;
stroke-linecap: butt;
stroke-linejoin: miter;
}
.ga_1162{
fill: none;
stroke: #02B5EE;
stroke-width: 1.461;
stroke-linecap: butt;
stroke-linejoin: miter;
}
.gb_1162{
fill: none;
stroke: #02B5EE;
stroke-width: 0.921;
stroke-linecap: round;
stroke-linejoin: round;
}
.gc_1162{
fill: none;
stroke: #F81693;
stroke-width: 1.461;
stroke-linecap: butt;
stroke-linejoin: miter;
}
.gd_1162{
fill: none;
stroke: #F81693;
stroke-width: 1.116;
stroke-linecap: round;
stroke-linejoin: round;
}
]]></style>
</defs>
<path d="M193,83.4h900.3M193,111.6h916m-916,0h916M513.3,141.2V112m0,58.5V141.2m0,128.8V170.5" class="g0_1162"/>
<path d="M904,231.5h18.4" class="g1_1162"/>
<path d="M932.9,231.5h119" class="g2_1162"/>
<path d="M513.3,369.5V270" class="g0_1162"/>
<path d="M524.3,331h24.3" class="g1_1162"/>
<path d="M562.7,319.2H939.2" class="g3_1162"/>
<path d="M955.9,305.2V293c0,-2.8,2.4,-5.2,5.2,-5.2h129.2c2.8,0,5.1,2.4,5.1,5.2v12.2c0,2.9,-2.3,5.2,-5.1,5.2H961.1c-2.8,0,-5.2,-2.3,-5.2,-5.2Z" class="g4_1162"/>
<path d="M953.3,331H1098" class="g2_1162"/>
<path d="M513.3,399.7V369.5m0,59.4V399.7m0,58.5V428.9m0,84V458.2" class="g0_1162"/>
<path d="M837.1,505.1V466c0,-2.9,2.3,-5.2,5.2,-5.2h86.1c2.8,0,5.2,2.3,5.2,5.2v39.1c0,2.9,-2.4,5.2,-5.2,5.2H842.3c-2.9,0,-5.2,-2.3,-5.2,-5.2Z" class="g5_1162"/>
<path d="M947.5,505.1V466c0,-2.9,2.3,-5.2,5.2,-5.2h56.9c2.8,0,5.2,2.3,5.2,5.2v39.1c0,2.9,-2.4,5.2,-5.2,5.2H952.7c-2.9,0,-5.2,-2.3,-5.2,-5.2Z" class="g6_1162"/>
<path d="M513.3,542.2V512.9m0,122V542.2" class="g0_1162"/>
<path d="M771.6,610.9L700.1,560.3m0,50.6l71.5,-50.6" class="g7_1162"/>
<path d="M804.7,605.2V566c0,-2.8,2.4,-5.2,5.2,-5.2h56.9c2.8,0,5.2,2.4,5.2,5.2v39.2c0,2.9,-2.4,5.2,-5.2,5.2H809.9c-2.8,0,-5.2,-2.3,-5.2,-5.2Z" class="g6_1162"/>
<path d="M802.1,615h81.2" class="g8_1162"/>
<path d="M894.7,605.2V566c0,-2.8,2.3,-5.2,5.2,-5.2H986c2.8,0,5.2,2.4,5.2,5.2v39.2c0,2.9,-2.4,5.2,-5.2,5.2H899.9c-2.9,0,-5.2,-2.3,-5.2,-5.2Z" class="g5_1162"/>
<path d="M892.1,615h191.1" class="g9_1162"/>
<path d="M886.3,513.7l56.6,44.5" class="ga_1162"/>
<path d="M886.2,518.5c.7,-1.3,0,-4.6,-.4,-5.2c.7,.3,4.1,.2,5.1,-.8" class="gb_1162"/>
<path d="M979.9,513.3L838.3,558.2" class="gc_1162"/>
<path d="M976,510.6c.7,1.3,3.8,2.5,4.6,2.5c-.6,.5,-2.5,3.3,-2.3,4.7" class="gd_1162"/>
<path d="M513.3,665.1V634.9m0,59.4V665.1M193,694.7h916m-916,0h916" class="g0_1162"/>
</svg>