<?xml version="1.0" encoding="UTF-8" standalone="no"?>
<!DOCTYPE svg PUBLIC "-//W3C//DTD SVG 1.1//EN"
"http://www.w3.org/Graphics/SVG/1.1/DTD/svg11.dtd">
<svg viewBox="0 0 1286 909" version="1.1" xmlns="http://www.w3.org/2000/svg" xmlns:xlink="http://www.w3.org/1999/xlink">
<defs>
<style type="text/css"><![CDATA[
.g0_1220{
fill: none;
stroke: #000000;
stroke-width: 0.73;
stroke-linecap: butt;
stroke-linejoin: miter;
}
.g1_1220{
fill: none;
stroke: #000000;
stroke-width: 0.584;
stroke-linecap: butt;
stroke-linejoin: miter;
}
.g2_1220{
fill: #FDE8E9;
}
]]></style>
</defs>
<path d="M193,83.4h900.3" class="g0_1220"/>
<path d="M201.7,113.6h304m-304,23.7V113.9m163.5,23.4V113.9m140.5,23.4V113.9m-304,49.5V137.3m163.5,26.1V137.3" class="g1_1220"/>
<path d="M373.9,160.8H477.6V137.3H373.9v23.5Z" class="g2_1220"/>
<path d="M505.7,163.4V137.3m-304,49.5V163.4m163.5,23.4V163.4m140.5,23.4V163.4m-304,46.7V186.8m163.5,23.3V186.8m140.5,23.3V186.8m-304,49.5V210.1m163.5,26.2V210.1" class="g1_1220"/>
<path d="M373.9,233.6h46.7V210.1H373.9v23.5Z" class="g2_1220"/>
<path d="M505.7,236.3V210.1m-304,49.5V236.3m163.5,23.3V236.3m140.5,23.3V236.3M201.7,283V259.6M365.2,283V259.6M505.7,283V259.6m-304,51.1V283m163.5,27.7V283" class="g1_1220"/>
<path d="M373.9,310.7h57.3V283H373.9v27.7Z" class="g2_1220"/>
<path d="M505.7,310.7V283m-304,51.1V310.7m163.5,23.4V310.7m140.5,23.4V310.7m-304,46.8V334.1m163.5,23.4V334.1m140.5,23.4V334.1m-304,49.5V357.5m163.5,26.1V357.5" class="g1_1220"/>
<path d="M373.9,381H409V357.5H373.9V381Z" class="g2_1220"/>
<path d="M505.7,383.6V357.5M201.7,407V383.6M365.2,407V383.6M505.7,407V383.6m-304,46.7V407m163.5,23.3V407m140.5,23.3V407m-304,49.1V430.3m163.5,25.8V430.3" class="g1_1220"/>
<path d="M373.9,456.1h62V433.2h-62v22.9Z" class="g2_1220"/>
<path d="M505.7,456.1V430.3m-304,49.1V456.1m163.5,23.3V456.1m140.5,23.3V456.1m-304,46.7V479.4m163.5,23.4V479.4m140.5,23.4V479.4m-304,49.5V502.8m163.5,26.1V502.8" class="g1_1220"/>
<path d="M373.9,526.3h53.8V502.8H373.9v23.5Z" class="g2_1220"/>
<path d="M505.7,528.9V502.8m-304,49.5V528.9m163.5,23.4V528.9m140.5,23.4V528.9m-304,46.8V552.3m163.5,23.4V552.3m140.5,23.4V552.3m-304,49.5V575.7m163.5,26.1V575.7" class="g1_1220"/>
<path d="M373.9,599.2h53.8V575.7H373.9v23.5Z" class="g2_1220"/>
<path d="M505.7,601.8V575.7m-304,49.5V601.8m163.5,23.4V601.8m140.5,23.4V601.8m-304,46.8V625.2m163.5,23.4V625.2m140.5,23.4V625.2m-304,51.1V648.6m163.5,27.7V648.6" class="g1_1220"/>
<path d="M373.9,676.3h123V648.6h-123v27.7Z" class="g2_1220"/>
<path d="M505.7,676.3V648.6m-304,51V676.3m163.5,23.3V676.3m140.5,23.3V676.3M201.7,723V699.6M365.2,723V699.6M505.7,723V699.6m-304,49.5V723m163.5,26.1V723" class="g1_1220"/>
<path d="M373.9,746.5H488.1V723H373.9v23.5Z" class="g2_1220"/>
<path d="M505.7,749.1V723m-304,49.5V749.1m163.5,23.4V749.1m140.5,23.4V749.1m-304,23.7h304M523.2,112H749.3M523.2,135.7V112.3m95.4,23.4V112.3m130.7,23.4V112.3M523.2,159.8V135.7m95.4,24.1V135.7" class="g1_1220"/>
<path d="M627.4,157.2h86.8V138.5H627.4v18.7Z" class="g2_1220"/>
<path d="M749.3,159.8V135.7M523.2,183.2V159.8m95.4,23.4V159.8m130.7,23.4V159.8M523.2,206.6V183.2m95.4,23.4V183.2m130.7,23.4V183.2M523.2,232.7V206.6m95.4,26.1V206.6" class="g1_1220"/>
<path d="M627.4,230.1H670V206.6H627.4v23.5Z" class="g2_1220"/>
<path d="M749.3,232.7V206.6M523.2,256.1V232.7m95.4,23.4V232.7m130.7,23.4V232.7M523.2,279.5V256.1m95.4,23.4V256.1m130.7,23.4V256.1M523.2,305.6V279.5m95.4,26.1V279.5" class="g1_1220"/>
<path d="M627.4,302.9H740.6V279.5H627.4v23.4Z" class="g2_1220"/>
<path d="M749.3,305.6V279.5M523.2,329V305.6M618.6,329V305.6M749.3,329V305.6M523.2,352.3V329m95.4,23.3V329m130.7,23.3V329M523.2,380V352.3M618.6,380V352.3" class="g1_1220"/>
<path d="M627.4,380h63.2V352.3H627.4V380Z" class="g2_1220"/>
<path d="M749.3,380V352.3M523.2,403.4V380m95.4,23.4V380m130.7,23.4V380M523.2,426.8V403.4m95.4,23.4V403.4m130.7,23.4V403.4M523.2,454.5V426.8m95.4,27.7V426.8" class="g1_1220"/>
<path d="M627.4,454.5H688V426.8H627.4v27.7Z" class="g2_1220"/>
<path d="M749.3,454.5V426.8M523.2,477.9V454.5m95.4,23.4V454.5m130.7,23.4V454.5M523.2,501.2V477.9m95.4,23.3V477.9m130.7,23.3V477.9m-226.1,51V501.2m95.4,27.7V501.2" class="g1_1220"/>
<path d="M627.4,528.9h83.1V501.2H627.4v27.7Z" class="g2_1220"/>
<path d="M749.3,528.9V501.2M523.2,552.3V528.9m95.4,23.4V528.9m130.7,23.4V528.9M523.2,575.7V552.3m95.4,23.4V552.3m130.7,23.4V552.3M523.2,601.8V575.7m95.4,26.1V575.7" class="g1_1220"/>
<path d="M627.4,599.2h78.8V575.7H627.4v23.5Z" class="g2_1220"/>
<path d="M749.3,601.8V575.7M523.2,625.2V601.8m95.4,23.4V601.8m130.7,23.4V601.8M523.2,648.6V625.2m95.4,23.4V625.2m130.7,23.4V625.2M523.2,676.3V648.6m95.4,27.7V648.6" class="g1_1220"/>
<path d="M627.4,676.3H723V648.6H627.4v27.7Z" class="g2_1220"/>
<path d="M749.3,676.3V648.6m-226.1,51V676.3m95.4,23.3V676.3m130.7,23.3V676.3M523.2,723V699.6M618.6,723V699.6M749.3,723V699.6M523.2,750.7V723m95.4,27.7V723" class="g1_1220"/>
<path d="M627.4,750.7h79V723h-79v27.7Z" class="g2_1220"/>
<path d="M749.3,750.7V723M523.2,774.1V750.7m95.4,23.4V750.7m130.7,23.4V750.7M523.2,774.4H749.3M766.9,109.5h343.9M766.9,133.1V109.7m202.3,23.4V109.7m141.6,23.4V109.7M766.9,160.8V133.1m202.3,27.7V133.1" class="g1_1220"/>
<path d="M978,160.8h84.2V133.1H978v27.7Z" class="g2_1220"/>
<path d="M1110.8,160.8V133.1M766.9,184.2V160.8m202.3,23.4V160.8m141.6,23.4V160.8M766.9,207.6V184.2m202.3,23.4V184.2m141.6,23.4V184.2M766.9,235.3V207.6m202.3,27.7V207.6" class="g1_1220"/>
<path d="M978,235.3h98V207.6H978v27.7Z" class="g2_1220"/>
<path d="M1110.8,235.3V207.6m-343.9,51V235.3m202.3,23.3V235.3m141.6,23.3V235.3M766.9,282V258.6M969.2,282V258.6M1110.8,282V258.6M766.9,309.7V282m202.3,27.7V282" class="g1_1220"/>
<path d="M978,309.7h124V282H978v27.7Z" class="g2_1220"/>
<path d="M1110.8,309.7V282M766.9,333.1V309.7m202.3,23.4V309.7m141.6,23.4V309.7M766.9,356.5V333.1m202.3,23.4V333.1m141.6,23.4V333.1M766.9,382.6V356.5m202.3,26.1V356.5" class="g1_1220"/>
<path d="M978,380h51.1V356.5H978V380Z" class="g2_1220"/>
<path d="M1110.8,382.6V356.5M766.9,406V382.6M969.2,406V382.6M1110.8,406V382.6M766.9,429.4V406m202.3,23.4V406m141.6,23.4V406M766.9,455.5V429.4m202.3,26.1V429.4" class="g1_1220"/>
<path d="M978,452.8h83.8V429.4H978v23.4Z" class="g2_1220"/>
<path d="M1110.8,455.5V429.4M766.9,478.8V455.5m202.3,23.3V455.5m141.6,23.3V455.5M766.9,502.2V478.8m202.3,23.4V478.8m141.6,23.4V478.8M766.9,529.9V502.2m202.3,27.7V502.2" class="g1_1220"/>
<path d="M978,529.9h59.9V502.2H978v27.7Z" class="g2_1220"/>
<path d="M1110.8,529.9V502.2M766.9,553.3V529.9m202.3,23.4V529.9m141.6,23.4V529.9M766.9,576.7V553.3m202.3,23.4V553.3m141.6,23.4V553.3M766.9,604.4V576.7m202.3,27.7V576.7" class="g1_1220"/>
<path d="M978,604.4h109.5V576.7H978v27.7Z" class="g2_1220"/>
<path d="M1110.8,604.4V576.7M766.9,627.8V604.4m202.3,23.4V604.4m141.6,23.4V604.4M766.9,651.1V627.8m202.3,23.3V627.8m141.6,23.3V627.8m-343.9,51V651.1m202.3,27.7V651.1" class="g1_1220"/>
<path d="M978,678.8h75.9V651.1H978v27.7Z" class="g2_1220"/>
<path d="M1110.8,678.8V651.1M766.9,702.2V678.8m202.3,23.4V678.8m141.6,23.4V678.8M766.9,725.6V702.2m202.3,23.4V702.2m141.6,23.4V702.2M766.9,753.3V725.6m202.3,27.7V725.6" class="g1_1220"/>
<path d="M978,753.3h84.3V725.6H978v27.7Z" class="g2_1220"/>
<path d="M1110.8,753.3V725.6M766.9,776.7V753.3m202.3,23.4V753.3m141.6,23.4V753.3M766.9,776.9h343.9" class="g1_1220"/>
</svg>