<?xml version="1.0" encoding="UTF-8" standalone="no"?>
<!DOCTYPE svg PUBLIC "-//W3C//DTD SVG 1.1//EN"
"http://www.w3.org/Graphics/SVG/1.1/DTD/svg11.dtd">
<svg viewBox="0 0 1286 909" version="1.1" xmlns="http://www.w3.org/2000/svg" xmlns:xlink="http://www.w3.org/1999/xlink">
<defs>
<style type="text/css"><![CDATA[
.g0_742{
fill: none;
stroke: #000000;
stroke-width: 0.73;
stroke-linecap: butt;
stroke-linejoin: miter;
}
.g1_742{
fill: none;
stroke: #02B5EE;
stroke-width: 1.262;
stroke-linecap: butt;
stroke-linejoin: miter;
}
.g2_742{
fill: #FFCCCC;
}
.g3_742{
fill: none;
stroke: #02B5EE;
stroke-width: 0.73;
stroke-linecap: butt;
stroke-linejoin: miter;
}
.g4_742{
fill: #B3E9FA;
}
.g5_742{
fill: none;
stroke: #5EE200;
stroke-width: 1.262;
stroke-linecap: butt;
stroke-linejoin: miter;
}
]]></style>
</defs>
<path d="M193,83.4h900.3M193,210.6H715.9m-522.9,0H715.9M480.3,240.2V211m0,58.5V240.2m0,114.3v-85" class="g0_742"/>
<path d="M512.2,330.5h63" class="g1_742"/>
<path d="M596.2,318.8H704.9V285.9H596.2v32.9Z" class="g2_742"/>
<path d="M480.3,383.7V354.5m0,102.3V383.7" class="g0_742"/>
<path d="M512.2,433H620.5V400.1H512.2V433Z" class="g2_742"/>
<path d="M620.5,442.9h84.4" class="g3_742"/>
<path d="M480.3,486V456.8m0,58.4V486m0,114.2v-85" class="g0_742"/>
<path d="M493.9,550.5V538.2c0,-2.8,2.3,-5.1,5.2,-5.1h77.7c2.9,0,5.2,2.3,5.2,5.1v12.3c0,2.8,-2.3,5.1,-5.2,5.1H499.1c-2.9,0,-5.2,-2.3,-5.2,-5.1Z" class="g4_742"/>
<path d="M491.3,576.2h93.3" class="g1_742"/>
<path d="M595.1,576.2H704.9" class="g5_742"/>
<path d="M480.3,629.5V600.2M193,629.8H715.9m-522.9,0H715.9" class="g0_742"/>
</svg>