<?xml version="1.0" encoding="UTF-8" standalone="no"?>
<!DOCTYPE svg PUBLIC "-//W3C//DTD SVG 1.1//EN"
"http://www.w3.org/Graphics/SVG/1.1/DTD/svg11.dtd">
<svg viewBox="0 0 1286 909" version="1.1" xmlns="http://www.w3.org/2000/svg" xmlns:xlink="http://www.w3.org/1999/xlink">
<defs>
<style type="text/css"><![CDATA[
.g0_1088{
fill: none;
stroke: #000000;
stroke-width: 0.73;
stroke-linecap: butt;
stroke-linejoin: miter;
}
.g1_1088{
fill: none;
stroke: #F81693;
stroke-width: 1.461;
stroke-linecap: butt;
stroke-linejoin: miter;
stroke-dasharray: 2,2;
}
.g2_1088{
fill: #FFCCCC;
}
.g3_1088{
fill: #E6CEEE;
}
.g4_1088{
fill: #AEF080;
}
.g5_1088{
fill: none;
stroke: #5EE200;
stroke-width: 1.461;
stroke-linecap: butt;
stroke-linejoin: miter;
stroke-dasharray: 2,2;
}
]]></style>
</defs>
<path d="M193,83.4h900.3M193,111.6H988.6m-795.6,0H988.6M455.7,141.2V112m0,62.1V141.2" class="g0_1088"/>
<path d="M783.7,169.7h48.8" class="g1_1088"/>
<path d="M842.3,174.1h73.8V141.2H842.3v32.9Z" class="g2_1088"/>
<path d="M933,174.1h44.7V141.2H933v32.9Z" class="g3_1088"/>
<path d="M455.7,203.3V174.1m0,58.5V203.3m0,63.2V232.6" class="g0_1088"/>
<path d="M634.3,266.5h75.8V233.6H634.3v32.9Z" class="g2_1088"/>
<path d="M720.6,266.5H862.8V233.6H720.6v32.9Z" class="g4_1088"/>
<path d="M886.9,260.1h77.3" class="g5_1088"/>
<path d="M455.7,296.7V266.5m0,63.1V296.7" class="g0_1088"/>
<path d="M707.7,325.2h65.7" class="g5_1088"/>
<path d="M777.1,329.6h44.7V296.7H777.1v32.9Z" class="g4_1088"/>
<path d="M827.9,329.6H977.7V296.7H827.9v32.9Z" class="g2_1088"/>
<path d="M455.7,358.8V329.6M193,359.1H988.6m-795.6,0H988.6" class="g0_1088"/>
</svg>