<?xml version="1.0" encoding="UTF-8" standalone="no"?>
<!DOCTYPE svg PUBLIC "-//W3C//DTD SVG 1.1//EN"
"http://www.w3.org/Graphics/SVG/1.1/DTD/svg11.dtd">
<svg viewBox="0 0 1286 909" version="1.1" xmlns="http://www.w3.org/2000/svg" xmlns:xlink="http://www.w3.org/1999/xlink">
<defs>
<style type="text/css"><![CDATA[
.g0_671{
fill: none;
stroke: #000000;
stroke-width: 0.73;
stroke-linecap: butt;
stroke-linejoin: miter;
}
.g1_671{
fill: #B3E9FA;
}
.g2_671{
fill: none;
stroke: #02B5EE;
stroke-width: 1.262;
stroke-linecap: butt;
stroke-linejoin: miter;
}
.g3_671{
fill: none;
stroke: #5EE200;
stroke-width: 1.262;
stroke-linecap: butt;
stroke-linejoin: miter;
}
]]></style>
</defs>
<path d="M193,83.4h900.3M193,111.6h874.8m-874.8,0h874.8m-454,29.6V112m0,58.5V141.2m0,114.3v-85" class="g0_671"/>
<path d="M627.3,205.7V193.5c0,-2.9,2.4,-5.2,5.2,-5.2H756.4c2.9,0,5.2,2.3,5.2,5.2v12.2c0,2.9,-2.3,5.2,-5.2,5.2H632.5c-2.8,0,-5.2,-2.3,-5.2,-5.2Z" class="g1_671"/>
<path d="M624.7,231.5H764.2" class="g2_671"/>
<path d="M774.7,231.5h282.1" class="g3_671"/>
<path d="M613.8,284.7V255.5M193,285.1h874.8m-874.8,0h874.8" class="g0_671"/>
</svg>