<?xml version="1.0" encoding="UTF-8" standalone="no"?>
<!DOCTYPE svg PUBLIC "-//W3C//DTD SVG 1.1//EN"
"http://www.w3.org/Graphics/SVG/1.1/DTD/svg11.dtd">
<svg viewBox="0 0 1286 909" version="1.1" xmlns="http://www.w3.org/2000/svg" xmlns:xlink="http://www.w3.org/1999/xlink">
<defs>
<style type="text/css"><![CDATA[
.g0_1194{
fill: none;
stroke: #000000;
stroke-width: 0.73;
stroke-linecap: butt;
stroke-linejoin: miter;
}
.g1_1194{
fill: none;
stroke: #000000;
stroke-width: 0.62;
stroke-linecap: butt;
stroke-linejoin: miter;
}
.g2_1194{
fill: #FDE8E9;
}
]]></style>
</defs>
<path d="M193,83.4h900.3" class="g0_1194"/>
<path d="M202.3,112.2h465m-465,25.2V112.5m318.4,24.9V112.5m146.6,24.9V112.5m-465,52.6V137.4m318.4,27.7V137.4" class="g1_1194"/>
<path d="M530,162.3h74.5V137.4H530v24.9Z" class="g2_1194"/>
<path d="M667.3,165.1V137.4m-465,52.5V165.1m318.4,24.8V165.1m146.6,24.8V165.1m-465,49.7V189.9m318.4,24.9V189.9m146.6,24.9V189.9m-465,52.6V214.8m318.4,27.7V214.8" class="g1_1194"/>
<path d="M530,239.7h98.7V214.8H530v24.9Z" class="g2_1194"/>
<path d="M667.3,242.5V214.8m-465,52.6V242.5m318.4,24.9V242.5m146.6,24.9V242.5m-465,49.7V267.4m318.4,24.8V267.4m146.6,24.8V267.4M202.3,320V292.2M520.7,320V292.2" class="g1_1194"/>
<path d="M530,317.2h72v-25H530v25Z" class="g2_1194"/>
<path d="M667.3,320V292.2m-465,52.6V320m318.4,24.8V320m146.6,24.8V320m-465,49.6V344.8m318.4,24.8V344.8m146.6,24.8V344.8m-465,52.6V369.6m318.4,27.8V369.6" class="g1_1194"/>
<path d="M530,394.6h75.3v-25H530v25Z" class="g2_1194"/>
<path d="M667.3,397.4V369.6m-465,52.6V397.4m318.4,24.8V397.4m146.6,24.8V397.4m-465,49.7V422.2m318.4,24.9V422.2m146.6,24.9V422.2m-465,54.3V447.1m318.4,29.4V447.1" class="g1_1194"/>
<path d="M530,476.5H658V447.1H530v29.4Z" class="g2_1194"/>
<path d="M667.3,476.5V447.1m-465,54.2V476.5m318.4,24.8V476.5m146.6,24.8V476.5m-465,49.7V501.3m318.4,24.9V501.3m146.6,24.9V501.3m-465,52.6V526.2m318.4,27.7V526.2" class="g1_1194"/>
<path d="M530,551.1H634V526.2H530v24.9Z" class="g2_1194"/>
<path d="M667.3,553.9V526.2m-465,52.6V553.9m318.4,24.9V553.9m146.6,24.9V553.9m-465,49.7V578.8m318.4,24.8V578.8m146.6,24.8V578.8m-465,52.5V603.6m318.4,27.7V603.6" class="g1_1194"/>
<path d="M530,628.6h70.6v-25H530v25Z" class="g2_1194"/>
<path d="M667.3,631.3V603.6m-465,52.6V631.3m318.4,24.9V631.3m146.6,24.9V631.3M202.3,681V656.2M520.7,681V656.2M667.3,681V656.2m-465,52.1V681m318.4,27.3V681" class="g1_1194"/>
<path d="M530,708.3h77.3V684.1H530v24.2Z" class="g2_1194"/>
<path d="M667.3,708.3V681m-465,52.2V708.3m318.4,24.9V708.3m146.6,24.9V708.3m-465,25.2h465m18.6,-624h404.4M685.9,134.6V109.8m256.4,24.8V109.8m148,24.8V109.8M685.9,164V134.6M942.3,164V134.6" class="g1_1194"/>
<path d="M951.6,164H1081V134.6H951.6V164Z" class="g2_1194"/>
<path d="M1090.3,164V134.6M685.9,188.9V164m256.4,24.9V164m148,24.9V164M685.9,213.7V188.9m256.4,24.8V188.9m148,24.8V188.9M685.9,241.5V213.7m256.4,27.8V213.7" class="g1_1194"/>
<path d="M951.6,238.7H1068v-25H951.6v25Z" class="g2_1194"/>
<path d="M1090.3,241.5V213.7M685.9,266.3V241.5m256.4,24.8V241.5m148,24.8V241.5M685.9,291.2V266.3m256.4,24.9V266.3m148,24.9V266.3M685.9,320.6V291.2m256.4,29.4V291.2" class="g1_1194"/>
<path d="M951.6,320.6h98.2V291.2H951.6v29.4Z" class="g2_1194"/>
<path d="M1090.3,320.6V291.2M685.9,345.4V320.6m256.4,24.8V320.6m148,24.8V320.6M685.9,370.3V345.4m256.4,24.9V345.4m148,24.9V345.4M685.9,398V370.3M942.3,398V370.3" class="g1_1194"/>
<path d="M951.6,395.2h49.8V370.3H951.6v24.9Z" class="g2_1194"/>
<path d="M1090.3,398V370.3M685.9,422.8V398m256.4,24.8V398m148,24.8V398M685.9,447.7V422.8m256.4,24.9V422.8m148,24.9V422.8M685.9,477.1V447.7m256.4,29.4V447.7" class="g1_1194"/>
<path d="M951.6,477.1h85.9V447.7H951.6v29.4Z" class="g2_1194"/>
<path d="M1090.3,477.1V447.7M685.9,502V477.1M942.3,502V477.1m148,24.9V477.1M685.9,526.8V502m256.4,24.8V502m148,24.8V502M685.9,554.5V526.8m256.4,27.7V526.8" class="g1_1194"/>
<path d="M951.6,551.7h85V526.8h-85v24.9Z" class="g2_1194"/>
<path d="M1090.3,554.5V526.8M685.9,579.4V554.5m256.4,24.9V554.5m148,24.9V554.5M685.9,604.2V579.4m256.4,24.8V579.4m148,24.8V579.4M685.9,632V604.2M942.3,632V604.2" class="g1_1194"/>
<path d="M951.6,629.2h72v-25h-72v25Z" class="g2_1194"/>
<path d="M1090.3,632V604.2M685.9,656.8V632m256.4,24.8V632m148,24.8V632M685.9,681.7V656.8m256.4,24.9V656.8m148,24.9V656.8M685.9,711.1V681.7m256.4,29.4V681.7" class="g1_1194"/>
<path d="M951.6,711.1h98V681.7h-98v29.4Z" class="g2_1194"/>
<path d="M1090.3,711.1V681.7M685.9,735.9V711.1m256.4,24.8V711.1m148,24.8V711.1M685.9,736.2h404.4" class="g1_1194"/>
</svg>