<?xml version="1.0" encoding="UTF-8" standalone="no"?>
<!DOCTYPE svg PUBLIC "-//W3C//DTD SVG 1.1//EN"
"http://www.w3.org/Graphics/SVG/1.1/DTD/svg11.dtd">
<svg viewBox="0 0 909 1286" version="1.1" xmlns="http://www.w3.org/2000/svg" xmlns:xlink="http://www.w3.org/1999/xlink">
<defs>
<clipPath id="c0_68"><path d="M119.5,705.6V672.1H446.9v33.5Z"/></clipPath>
<clipPath id="c1_68"><path d="M460.4,705.6V672.1H787.8v33.5Z"/></clipPath>
<style type="text/css"><![CDATA[
.g0_68{
fill: none;
stroke: #000000;
stroke-width: 0.73;
stroke-linecap: butt;
stroke-linejoin: miter;
}
.g1_68{
fill: #E81A58;
}
.g2_68{
fill: #401A1A;
}
.g3_68{
fill: #7F7F7F;
fill-opacity: 0.01;
}
.g4_68{
fill: #7F7F7F;
fill-opacity: 0.02;
}
.g5_68{
fill: #7F7F7F;
fill-opacity: 0.04;
}
.g6_68{
fill: #7F7F7F;
fill-opacity: 0.07;
}
.g7_68{
fill: #7F7F7F;
fill-opacity: 0.11;
}
.g8_68{
fill: #FFFFFF;
}
.g9_68{
fill: #7F7F7F;
}
.ga_68{
fill: #00AEEF;
}
.gb_68{
fill: #CBCEFB;
}
]]></style>
</defs>
<path d="M116.9,159.9H792.5" class="g0_68"/>
<path d="M116.9,605.2V285.8c0,-21.6,17.6,-39.1,39.2,-39.1H792.5V566c0,21.6,-17.5,39.2,-39.1,39.2Z" class="g1_68"/>
<path d="M119.5,602.6V279.1H789.9V566c0,20.2,-16.3,36.6,-36.5,36.6Z" class="g2_68"/>
<path d="M122.2,674.8c107.4,0,214.7,0,322,0V966.1c-107.3,-9.3,-214.6,-9.3,-322,0Z" class="g3_68"/>
<path d="M122.9,675.4c106.9,0,213.8,0,320.7,0V965.5c-106.9,-9.3,-213.8,-9.3,-320.7,0Z" class="g4_68"/>
<path d="M123.5,676c106.5,0,213,0,319.5,0V964.9c-106.5,-9.4,-213,-9.4,-319.5,0Z" class="g5_68"/>
<path d="M124.1,676.6c106.1,0,212.2,0,318.3,0V964.3c-106.1,-9.4,-212.2,-9.4,-318.3,0Z" class="g6_68"/>
<path d="M124.7,677.2c105.7,0,211.4,0,317,0V963.6c-105.6,-9.3,-211.3,-9.3,-317,0Z" class="g7_68"/>
<path d="M125.4,677.9c105.2,0,210.5,0,315.7,0V963c-105.2,-9.3,-210.5,-9.3,-315.7,0Z" class="g7_68"/>
<path d="M126,678.5c104.8,0,209.7,0,314.5,0V962.4C335.7,953,230.8,953,126,962.4Z" class="g6_68"/>
<path d="M126.6,679.1c104.4,0,208.8,0,313.3,0V961.8c-104.5,-9.4,-208.9,-9.4,-313.3,0Z" class="g5_68"/>
<path d="M127.2,679.7c104,0,208,0,312,0V961.1c-104,-9.3,-208,-9.3,-312,0Z" class="g4_68"/>
<path d="M127.9,680.4c103.5,0,207.1,0,310.7,0V960.5c-103.6,-9.3,-207.2,-9.3,-310.7,0Z" class="g3_68"/>
<path d="M116.9,955.8V669.5H449.5V955.8Z" class="g8_68"/>
<path d="M119.5,953.2v-245H446.9v245Z" class="g8_68"/>
<path d="M119.5,705.6V672.1H446.9v33.5Z" class="g9_68"/>
<g clip-path="url(#c0_68)">
<image x="119" y="671" width="329" height="34" xlink:href="shade/1.png"/>
</g>
<path d="M316.9,700.4h104V677.2h-104v23.2Z" class="ga_68"/>
<path d="M195.3,757.6H371.2M195.7,787.2V757.9" class="g0_68"/>
<path d="M196,787.2h62V757.9H196v29.3Z" class="gb_68"/>
<path d="M258.4,787.2V757.9" class="g0_68"/>
<path d="M258.8,787.2H319V757.9H258.8v29.3Z" class="gb_68"/>
<path d="M319.4,787.2V757.9" class="g0_68"/>
<path d="M319.8,787.2h50.6V757.9H319.8v29.3Z" class="gb_68"/>
<path d="M370.8,787.2V757.9M195.3,787.5H371.2M195.7,817.1V787.9m62.7,29.2V787.9m61,29.2V787.9m51.4,29.2V787.9M195.3,817.5H371.2M195.7,847.1V817.8m62.7,29.3V817.8m61,29.3V817.8m51.4,29.3V817.8M195.3,847.4H371.2M195.7,877V847.8M258.4,877V847.8m61,29.2V847.8M370.8,877V847.8M195.3,877.4H371.2M195.7,907V877.7M258.4,907V877.7m61,29.3V877.7M370.8,907V877.7M195.3,907.3H371.2M195.7,936.9V907.7m62.7,29.2V907.7m61,29.2V907.7m51.4,29.2V907.7M195.3,937.3H371.2" class="g0_68"/>
<path d="M463.1,674.8c107.3,0,214.6,0,322,0V966.1c-107.4,-9.3,-214.7,-9.3,-322,0Z" class="g3_68"/>
<path d="M463.7,675.4c106.9,0,213.8,0,320.7,0V965.5c-106.9,-9.3,-213.8,-9.3,-320.7,0Z" class="g4_68"/>
<path d="M464.3,676c106.5,0,213,0,319.5,0V964.9c-106.5,-9.4,-213,-9.4,-319.5,0Z" class="g5_68"/>
<path d="M464.9,676.6c106.1,0,212.2,0,318.3,0V964.3c-106.1,-9.4,-212.2,-9.4,-318.3,0Z" class="g6_68"/>
<path d="M465.6,677.2c105.6,0,211.3,0,317,0V963.6c-105.7,-9.3,-211.4,-9.3,-317,0Z" class="g7_68"/>
<path d="M466.2,677.9c105.2,0,210.5,0,315.7,0V963c-105.2,-9.3,-210.5,-9.3,-315.7,0Z" class="g7_68"/>
<path d="M466.8,678.5c104.8,0,209.7,0,314.5,0V962.4C676.5,953,571.6,953,466.8,962.4Z" class="g6_68"/>
<path d="M467.4,679.1c104.5,0,208.9,0,313.3,0V961.8c-104.4,-9.4,-208.8,-9.4,-313.3,0Z" class="g5_68"/>
<path d="M468.1,679.7c104,0,208,0,312,0V961.1c-104,-9.3,-208,-9.3,-312,0Z" class="g4_68"/>
<path d="M468.7,680.4c103.6,0,207.2,0,310.7,0V960.5c-103.5,-9.3,-207.1,-9.3,-310.7,0Z" class="g3_68"/>
<path d="M457.8,955.8V669.5H790.4V955.8Z" class="g8_68"/>
<path d="M460.4,953.2v-245H787.8v245Z" class="g8_68"/>
<path d="M460.4,705.6V672.1H787.8v33.5Z" class="g9_68"/>
<g clip-path="url(#c1_68)">
<image x="460" y="671" width="329" height="34" xlink:href="shade/2.png"/>
</g>
<path d="M657.8,700.4h104V677.2h-104v23.2Z" class="ga_68"/>
<path d="M536.1,757.6H712M536.5,787.2V757.9" class="g0_68"/>
<path d="M536.9,787.2h62V757.9h-62v29.3Z" class="gb_68"/>
<path d="M599.2,787.2V757.9" class="g0_68"/>
<path d="M599.6,787.2h60.3V757.9H599.6v29.3Z" class="gb_68"/>
<path d="M660.2,787.2V757.9" class="g0_68"/>
<path d="M660.6,787.2h50.7V757.9H660.6v29.3Z" class="gb_68"/>
<path d="M711.6,787.2V757.9M536.1,787.5H712M536.5,817.1V787.9m62.7,29.2V787.9m61,29.2V787.9m51.4,29.2V787.9M536.1,817.5H712M536.5,847.1V817.8m62.7,29.3V817.8m61,29.3V817.8m51.4,29.3V817.8M536.1,847.4H712M536.5,877V847.8M599.2,877V847.8m61,29.2V847.8M711.6,877V847.8M536.1,877.4H712M536.5,907V877.7M599.2,907V877.7m61,29.3V877.7M711.6,907V877.7M536.1,907.3H712M536.5,936.9V907.7m62.7,29.2V907.7m61,29.2V907.7m51.4,29.2V907.7M536.1,937.3H712" class="g0_68"/>
</svg>