<?xml version="1.0" encoding="UTF-8" standalone="no"?>
<!DOCTYPE svg PUBLIC "-//W3C//DTD SVG 1.1//EN"
"http://www.w3.org/Graphics/SVG/1.1/DTD/svg11.dtd">
<svg viewBox="0 0 909 1286" version="1.1" xmlns="http://www.w3.org/2000/svg" xmlns:xlink="http://www.w3.org/1999/xlink">
<defs>
<clipPath id="c0_53"><path d="M150.8,862.3V566.5H507V862.3Z"/></clipPath>
<style type="text/css"><![CDATA[
.g0_53{
fill: none;
stroke: #5EE200;
stroke-width: 0.73;
stroke-linecap: butt;
stroke-linejoin: miter;
}
.g1_53{
fill: none;
stroke: #8007AC;
stroke-width: 0.73;
stroke-linecap: butt;
stroke-linejoin: miter;
}
.g2_53{
fill: none;
stroke: #000000;
stroke-width: 0.73;
stroke-linecap: butt;
stroke-linejoin: miter;
}
.g3_53{
}
.g4_53{
fill: none;
stroke: #A045C1;
stroke-width: 0.73;
stroke-linecap: butt;
stroke-linejoin: miter;
}
]]></style>
</defs>
<path d="M332.6,371.8h19.3" class="g0_53"/>
<path d="M332.6,489.4h28.5" class="g1_53"/>
<path d="M150.8,862.3H503.3" class="g2_53"/>
<path d="M507,862.3l-5.9,-2.9l2.2,2.9l-2.2,3Z" class="g3_53"/>
<path d="M150.8,862.3V570.1" class="g2_53"/>
<path d="M150.8,566.5l-2.9,5.8l2.9,-2.2l2.9,2.2Z" class="g3_53"/>
<g clip-path="url(#c0_53)">
<path d="M161.5,566.5l14.4,169.8l14.4,46l14.4,21.4L219.1,816l14.4,8.1l14.4,5.7l14.4,4.2l14.4,3.2l14.4,2.6l14.3,2.1l14.4,1.7l14.4,1.5l14.4,1.3l14.4,1.1l14.4,.9l14.4,.8l14.4,.8l14.4,.6l14.4,.6l14.4,.6l14.4,.4l14.4,.5l14.4,.4l14.4,.4M172.2,566.5l13.9,116.8l14,50.7L214,762.3l14,18.1L241.9,793l14,9.2l13.9,7l14,5.6l13.9,4.5l14,3.7l13.9,3.2l14,2.7l13.9,2.3l14,2l13.9,1.7l14,1.6l13.9,1.4l14,1.2l13.9,1.2l14,1l13.9,.9l14,.9l13.9,.8l14,.7M186.4,566.5l13.4,80.7l13.3,46.1l13.4,29.8L239.9,744l13.3,15.4l13.4,11.9l13.3,9.4l13.4,7.7l13.3,6.3l13.4,5.4l13.3,4.5l13.4,4l13.4,3.4l13.3,3l13.4,2.7l13.3,2.4l13.4,2.1l13.3,2l13.4,1.7l13.4,1.6l13.3,1.5l13.4,1.4l13.3,1.2l13.4,1.2M204.2,566.5L216.8,623l12.7,38.4l12.6,27.7l12.6,21.1l12.6,16.5l12.6,13.2l12.6,10.9l12.6,9.1l12.7,7.8l12.6,6.6l12.6,5.8l12.6,5.1l12.6,4.4l12.6,4l12.6,3.6l12.7,3.2l12.6,2.9l12.6,2.7l12.6,2.4l12.6,2.2l12.6,2.1l12.6,1.9l12.7,1.7L507,818M222,566.5l11.9,42.2l11.9,31.7l11.9,24.7l11.8,19.7L281.4,701l11.9,13.4l11.8,11.4l11.9,9.7l11.9,8.5l11.9,7.4l11.8,6.5l11.9,5.8l11.9,5.2l11.9,4.7l11.8,4.2l11.9,3.9l11.9,3.5l11.8,3.2l11.9,2.9l11.9,2.8l11.9,2.5l11.8,2.3l11.9,2.2l11.9,2.1" class="g0_53"/>
<path d="M165.1,-219.2l14.2,740.9l14.3,167.4l14.2,66L222,788.4l14.3,19.4l14.2,12.3l14.3,8.4l14.2,6.1l14.3,4.4l14.2,3.5l14.3,2.7l14.2,2.1l14.3,1.7l14.2,1.5l14.3,1.2l14.2,1l14.3,.9l14.2,.8l14.2,.6l14.3,.6l14.2,.5l14.3,.4l14.2,.4l14.3,.4M193.6,550.4l13,111.9l13.1,59.2l13,35.4l13.1,23l13,15.9l13.1,11.6L285,816l13,6.6l13.1,5.3l13,4.2l13.1,3.4l13.1,2.9l13,2.4l13.1,2l13,1.8l13.1,1.5l13.1,1.3l13,1.2l13.1,1l13,.9l13.1,.8l13.1,.7l13,.7l13.1,.5M207.8,540.5l12.5,90.4l12.4,55.6l12.5,37l12.5,25.9l12.4,19l12.5,14.3l12.5,11.2l12.4,8.8l12.5,7.2l12.5,5.8l12.4,4.9l12.5,4.1l12.5,3.5l12.4,3l12.5,2.6l12.5,2.3l12.4,2l12.5,1.8l12.4,1.5l12.5,1.4l12.5,1.3l12.4,1.1l12.5,1l12.5,1M225.6,521.4l11.7,73.4l11.8,51.1l11.7,37l11.7,27.9l11.7,21.5l11.7,17.1l11.8,13.7l11.7,11.2l11.7,9.4l11.7,7.8l11.8,6.7l11.7,5.7l11.7,4.9l11.7,4.3l11.8,3.8l11.7,3.3l11.7,3l11.7,2.6l11.8,2.4l11.7,2.1l11.7,2l11.7,1.7l11.8,1.6L507,837" class="g4_53"/>
</g>
</svg>