<?xml version="1.0" encoding="UTF-8" standalone="no"?>
<!DOCTYPE svg PUBLIC "-//W3C//DTD SVG 1.1//EN"
"http://www.w3.org/Graphics/SVG/1.1/DTD/svg11.dtd">
<svg viewBox="0 0 1286 909" version="1.1" xmlns="http://www.w3.org/2000/svg" xmlns:xlink="http://www.w3.org/1999/xlink">
<defs>
<style type="text/css"><![CDATA[
.g0_676{
fill: none;
stroke: #000000;
stroke-width: 0.73;
stroke-linecap: butt;
stroke-linejoin: miter;
}
.g1_676{
fill: none;
stroke: #02B5EE;
stroke-width: 1.262;
stroke-linecap: butt;
stroke-linejoin: miter;
}
.g2_676{
fill: none;
stroke: #02B5EE;
stroke-width: 0.73;
stroke-linecap: butt;
stroke-linejoin: miter;
}
.g3_676{
fill: none;
stroke: #5EE200;
stroke-width: 1.262;
stroke-linecap: butt;
stroke-linejoin: miter;
}
.g4_676{
fill: none;
stroke: #5EE200;
stroke-width: 0.73;
stroke-linecap: butt;
stroke-linejoin: miter;
}
]]></style>
</defs>
<path d="M193,83.4h900.3M193,210.6H775.8m-582.8,0H775.8M381.7,240.2V211m0,58.5V240.2m0,114.3v-85" class="g0_676"/>
<path d="M479.2,330.5H635.5" class="g1_676"/>
<path d="M381.7,383.7V354.5m0,102.3V383.7" class="g0_676"/>
<path d="M646.6,442.9H764.8" class="g2_676"/>
<path d="M381.7,486V456.8m0,58.4V486m0,114.2v-85" class="g0_676"/>
<path d="M585.4,576.2H731.9" class="g1_676"/>
<path d="M742.4,576.2h22.4" class="g3_676"/>
<path d="M381.7,629.5V600.2m0,102.3v-73" class="g0_676"/>
<path d="M556.5,688.6H707.4" class="g2_676"/>
<path d="M713.5,688.6h13" class="g4_676"/>
<path d="M381.7,731.7V702.5M193,732.1H775.8m-582.8,0H775.8" class="g0_676"/>
</svg>