<?xml version="1.0" encoding="UTF-8" standalone="no"?>
<!DOCTYPE svg PUBLIC "-//W3C//DTD SVG 1.1//EN"
"http://www.w3.org/Graphics/SVG/1.1/DTD/svg11.dtd">
<svg viewBox="0 0 1286 909" version="1.1" xmlns="http://www.w3.org/2000/svg" xmlns:xlink="http://www.w3.org/1999/xlink">
<defs>
<style type="text/css"><![CDATA[
.g0_964{
fill: none;
stroke: #000000;
stroke-width: 0.73;
stroke-linecap: butt;
stroke-linejoin: miter;
}
.g1_964{
fill: none;
stroke: #02B5EE;
stroke-width: 1.262;
stroke-linecap: butt;
stroke-linejoin: miter;
}
.g2_964{
fill: none;
stroke: #02B5EE;
stroke-width: 0.73;
stroke-linecap: butt;
stroke-linejoin: miter;
}
]]></style>
</defs>
<path d="M193,83.4h900.3M193,111.6H851.9m-658.9,0H851.9M498.6,141.2V112m0,114.3V141.2" class="g0_964"/>
<path d="M524.1,202.3H695.3" class="g1_964"/>
<path d="M498.6,255.5V226.3m0,58.4V255.5m0,114.2v-85" class="g0_964"/>
<path d="M509.5,345.7h81" class="g1_964"/>
<path d="M498.6,399.9V369.7m0,103.3V399.9" class="g0_964"/>
<path d="M705.8,459.1h50.7" class="g2_964"/>
<path d="M498.6,502.2V473m0,58.4V502.2m0,114.2v-85" class="g0_964"/>
<path d="M655.1,592.5h81" class="g1_964"/>
<path d="M498.6,645.7V616.4m0,102.3v-73" class="g0_964"/>
<path d="M790.3,704.8h50.6" class="g2_964"/>
<path d="M498.6,747.9V718.7M193,748.3H851.9m-658.9,0H851.9" class="g0_964"/>
</svg>