<?xml version="1.0" encoding="UTF-8" standalone="no"?>
<!DOCTYPE svg PUBLIC "-//W3C//DTD SVG 1.1//EN"
"http://www.w3.org/Graphics/SVG/1.1/DTD/svg11.dtd">
<svg viewBox="0 0 1286 909" version="1.1" xmlns="http://www.w3.org/2000/svg" xmlns:xlink="http://www.w3.org/1999/xlink">
<defs>
<style type="text/css"><![CDATA[
.g0_655{
fill: none;
stroke: #000000;
stroke-width: 0.73;
stroke-linecap: butt;
stroke-linejoin: miter;
}
.g1_655{
fill: none;
stroke: #02B5EE;
stroke-width: 1.262;
stroke-linecap: butt;
stroke-linejoin: miter;
}
.g2_655{
fill: none;
stroke: #02B5EE;
stroke-width: 0.73;
stroke-linecap: butt;
stroke-linejoin: miter;
}
]]></style>
</defs>
<path d="M193,83.4h900.3M193,210.6H931.5m-738.5,0H931.5M407,240.2V211m0,58.5V240.2m0,60.1V269.5m0,60V300.3m0,58.4V329.5m0,114.3V358.7" class="g0_655"/>
<path d="M418,419.8h79.2" class="g1_655"/>
<path d="M407,473V443.8m0,102.3V473" class="g0_655"/>
<path d="M886.7,532.2h33.8" class="g2_655"/>
<path d="M407,575.3V546.1m0,58.4V575.3m0,59.4V604.5m0,59.4V634.7m0,58.4V663.9m0,59.4V693.1m0,59.4V723.3M193,752.9H931.5m-738.5,0H931.5" class="g0_655"/>
</svg>