<?xml version="1.0" encoding="UTF-8" standalone="no"?>
<!DOCTYPE svg PUBLIC "-//W3C//DTD SVG 1.1//EN"
"http://www.w3.org/Graphics/SVG/1.1/DTD/svg11.dtd">
<svg viewBox="0 0 909 1286" version="1.1" xmlns="http://www.w3.org/2000/svg" xmlns:xlink="http://www.w3.org/1999/xlink">
<defs>
<clipPath id="c0"><path d="M122.1,217.9V187h30.8v30.9Z"/></clipPath>
<clipPath id="c1"><path d="M122.1,590.5V559.6h30.8v30.9Z"/></clipPath>
<clipPath id="c2"><path d="M122.1,217.9v-31H153v31Z"/></clipPath>
<clipPath id="c3"><path d="M122.1,590.5v-31H153v31Z"/></clipPath>
<style type="text/css"><![CDATA[
.g0{
fill: none;
stroke: #000000;
stroke-width: 0.73;
stroke-linecap: butt;
stroke-linejoin: miter;
}
.g1{
fill: #FFFFFF;
}
.g2{
fill: none;
stroke: #000000;
stroke-width: 1.461;
stroke-linecap: butt;
stroke-linejoin: miter;
}
.g3{
fill: #FEDCEF;
}
.g4{
}
.g5{
fill: #D9F4FC;
}
.g6{
fill: none;
stroke: #000000;
stroke-width: 2.739;
stroke-linecap: butt;
stroke-linejoin: miter;
}
]]></style>
</defs>
<path d="M116.9,159.9H792.5" class="g0"/>
<path d="M117.7,511.2V180.3H791.8V511.2Z" class="g1"/>
<path d="M117.7,511.2V180.3H791.8V511.2Z" class="g2"/>
<path d="M195,440.7V426.2c0,-2.8,2.4,-5.2,5.2,-5.2H433.6c2.8,0,5.2,2.4,5.2,5.2v14.5c0,2.9,-2.4,5.2,-5.2,5.2H200.2c-2.8,0,-5.2,-2.3,-5.2,-5.2Z" class="g3"/>
<path d="M477.4,440.7V426.2c0,-2.8,2.3,-5.2,5.2,-5.2H740.3c2.8,0,5.2,2.4,5.2,5.2v14.5c0,2.9,-2.4,5.2,-5.2,5.2H482.6c-2.9,0,-5.2,-2.3,-5.2,-5.2Z" class="g5"/>
<g clip-path="url(#c2)">
<path clip-path="url(#c0)" d="M141.2,210.5c-3.2,0,-6.1,-1.2,-8.4,-3.4c-2.2,-2.2,-3.4,-5.2,-3.4,-8.3c0,-3.2,1.2,-6.1,3.4,-8.3c2.3,-2.3,5.2,-3.5,8.4,-3.5c3.1,0,6.1,1.2,8.3,3.5c4.6,4.5,4.6,12,0,16.6c-2.2,2.2,-5.2,3.4,-8.3,3.4Z" class="g4"/>
<path d="M141.2,189c-2.6,0,-5.1,1.1,-6.9,2.9c-3.8,3.8,-3.8,10,0,13.8c1.8,1.8,4.3,2.8,6.9,2.8c2.6,0,5,-1,6.9,-2.8c1.8,-1.9,2.8,-4.3,2.8,-6.9c0,-2.6,-1,-5.1,-2.9,-6.9c-1.8,-1.8,-4.2,-2.9,-6.8,-2.9Z" class="g1"/>
<path d="M124.4,217.9l-2.3,-2.4l8.6,-8.6l2.4,2.4Z" class="g4"/>
</g>
<path d="M152.7,215H355.6" class="g0"/>
<path d="M137.6,220.2V501.8" class="g6"/>
<path d="M117.7,751.5V552.9H791.8V751.5Z" class="g1"/>
<path d="M117.7,751.5V552.9H791.8V751.5Z" class="g2"/>
<g clip-path="url(#c3)">
<path clip-path="url(#c1)" d="M141.2,583.1c-3.2,0,-6.1,-1.2,-8.4,-3.4c-2.2,-2.2,-3.4,-5.2,-3.4,-8.3c0,-3.2,1.2,-6.1,3.4,-8.3c2.3,-2.3,5.2,-3.5,8.4,-3.5c3.1,0,6.1,1.2,8.3,3.5c4.6,4.6,4.6,12,0,16.6c-2.2,2.2,-5.2,3.4,-8.3,3.4Z" class="g4"/>
<path d="M141.2,561.6c-2.6,0,-5.1,1.1,-6.9,2.9c-3.8,3.8,-3.8,10,0,13.8c1.8,1.8,4.3,2.8,6.9,2.8c2.6,0,5,-1,6.9,-2.8c1.8,-1.9,2.8,-4.3,2.8,-6.9c0,-2.6,-1,-5.1,-2.9,-6.9c-1.8,-1.8,-4.2,-2.9,-6.8,-2.9Z" class="g1"/>
<path d="M124.4,590.5l-2.3,-2.4l8.6,-8.6l2.4,2.4Z" class="g4"/>
</g>
<path d="M152.7,587.6H358.9" class="g0"/>
<path d="M137.6,592.8V742.1" class="g6"/>
</svg>