<?xml version="1.0" encoding="UTF-8" standalone="no"?>
<!DOCTYPE svg PUBLIC "-//W3C//DTD SVG 1.1//EN"
"http://www.w3.org/Graphics/SVG/1.1/DTD/svg11.dtd">
<svg viewBox="0 0 909 1286" version="1.1" xmlns="http://www.w3.org/2000/svg" xmlns:xlink="http://www.w3.org/1999/xlink">
<defs>
<clipPath id="c0_90"><path d="M119.5,288.6V255.1H446.9v33.5Z"/></clipPath>
<clipPath id="c1_90"><path d="M462.5,288.6V255.1H789.9v33.5Z"/></clipPath>
<clipPath id="c2_90"><path d="M119.5,654.8V621.3H789.9v33.5Z"/></clipPath>
<style type="text/css"><![CDATA[
.g0_90{
fill: none;
stroke: #000000;
stroke-width: 0.73;
stroke-linecap: butt;
stroke-linejoin: miter;
}
.g1_90{
fill: #7F7F7F;
fill-opacity: 0.01;
}
.g2_90{
fill: #7F7F7F;
fill-opacity: 0.02;
}
.g3_90{
fill: #7F7F7F;
fill-opacity: 0.04;
}
.g4_90{
fill: #7F7F7F;
fill-opacity: 0.07;
}
.g5_90{
fill: #7F7F7F;
fill-opacity: 0.11;
}
.g6_90{
fill: #FFFFFF;
}
.g7_90{
fill: #7F7F7F;
}
.g8_90{
fill: #00AEEF;
}
.g9_90{
fill: #CBCEFB;
}
.ga_90{
fill: #EC008C;
}
.gb_90{
fill: #FFFEF5;
}
.gc_90{
fill: none;
stroke: #D6C944;
stroke-width: 0.365;
stroke-linecap: butt;
stroke-linejoin: miter;
}
]]></style>
</defs>
<path d="M116.9,159.9H792.5" class="g0_90"/>
<path d="M122.2,257.8c107.4,0,214.7,0,322,0V515c-107.3,-9.3,-214.6,-9.3,-322,0Z" class="g1_90"/>
<path d="M122.9,258.4c106.9,0,213.8,0,320.7,0v256c-106.9,-9.3,-213.8,-9.3,-320.7,0Z" class="g2_90"/>
<path d="M123.5,259.1c106.5,0,213,0,319.5,0V513.8c-106.5,-9.4,-213,-9.4,-319.5,0Z" class="g3_90"/>
<path d="M124.1,259.7c106.1,0,212.2,0,318.3,0V513.2c-106.1,-9.4,-212.2,-9.4,-318.3,0Z" class="g4_90"/>
<path d="M124.7,260.3c105.7,0,211.4,0,317,0V512.5c-105.6,-9.3,-211.3,-9.3,-317,0Z" class="g5_90"/>
<path d="M125.4,260.9c105.2,0,210.5,0,315.7,0v251c-105.2,-9.3,-210.5,-9.3,-315.7,0Z" class="g5_90"/>
<path d="M126,261.6c104.8,0,209.7,0,314.5,0V511.3c-104.8,-9.4,-209.7,-9.4,-314.5,0Z" class="g4_90"/>
<path d="M126.6,262.2c104.4,0,208.8,0,313.3,0V510.7c-104.5,-9.4,-208.9,-9.4,-313.3,0Z" class="g3_90"/>
<path d="M127.2,262.8c104,0,208,0,312,0V510c-104,-9.3,-208,-9.3,-312,0Z" class="g2_90"/>
<path d="M127.9,263.4c103.5,0,207.1,0,310.7,0v246c-103.6,-9.3,-207.2,-9.3,-310.7,0Z" class="g1_90"/>
<path d="M116.9,504.7V252.5H449.5V504.7Z" class="g6_90"/>
<path d="M119.5,502.1V291.2H446.9V502.1Z" class="g6_90"/>
<path d="M119.5,288.6V255.1H446.9v33.5Z" class="g7_90"/>
<g clip-path="url(#c0_90)">
<image x="119" y="254" width="329" height="34" xlink:href="shade/1.png"/>
</g>
<path d="M316.9,283.4h104V260.3h-104v23.1Z" class="g8_90"/>
<path d="M183.3,336.4H383.2M183.7,366V336.8" class="g0_90"/>
<path d="M184,366H292.2V336.8H184V366Z" class="g9_90"/>
<path d="M292.6,366V336.8" class="g0_90"/>
<path d="M293,366h89.4V336.8H293V366Z" class="g9_90"/>
<path d="M382.8,366V336.8M183.3,366.4H383.2M183.7,396V366.7M292.6,396V366.7M382.8,396V366.7M183.3,396.3H383.2M183.7,425.9V396.7m108.9,29.2V396.7m90.2,29.2V396.7M183.3,426.3H383.2M183.7,455.9V426.6m108.9,29.3V426.6m90.2,29.3V426.6M183.3,456.2H383.2M183.7,485.8V456.6m108.9,29.2V456.6m90.2,29.2V456.6M183.3,486.2H383.2" class="g0_90"/>
<path d="M465.2,257.8c107.4,0,214.7,0,322,0V574.6c-107.3,-9.4,-214.6,-9.4,-322,0Z" class="g1_90"/>
<path d="M465.8,258.4c107,0,213.9,0,320.8,0V574c-106.9,-9.4,-213.8,-9.4,-320.8,0Z" class="g2_90"/>
<path d="M466.5,259.1c106.5,0,213,0,319.5,0V573.3C679.5,564,573,564,466.5,573.3Z" class="g3_90"/>
<path d="M467.1,259.7c106.1,0,212.2,0,318.2,0v313c-106,-9.3,-212.1,-9.3,-318.2,0Z" class="g4_90"/>
<path d="M467.7,260.3c105.7,0,211.3,0,317,0V572.1c-105.7,-9.4,-211.3,-9.4,-317,0Z" class="g5_90"/>
<path d="M468.3,260.9c105.3,0,210.5,0,315.8,0V571.5c-105.3,-9.4,-210.5,-9.4,-315.8,0Z" class="g5_90"/>
<path d="M469,261.6c104.8,0,209.6,0,314.5,0V570.8c-104.9,-9.3,-209.7,-9.3,-314.5,0Z" class="g4_90"/>
<path d="M469.6,262.2c104.4,0,208.8,0,313.2,0v308c-104.4,-9.3,-208.8,-9.3,-313.2,0Z" class="g3_90"/>
<path d="M470.2,262.8c104,0,208,0,312,0V569.6c-104,-9.4,-208,-9.4,-312,0Z" class="g2_90"/>
<path d="M470.8,263.4c103.6,0,207.2,0,310.8,0V569C678,559.6,574.4,559.6,470.8,569Z" class="g1_90"/>
<path d="M459.9,564.3V252.5H792.5V564.3Z" class="g6_90"/>
<path d="M462.5,561.7V291.2H789.9V561.7Z" class="g6_90"/>
<path d="M462.5,288.6V255.1H789.9v33.5Z" class="g7_90"/>
<g clip-path="url(#c1_90)">
<image x="462" y="254" width="329" height="34" xlink:href="shade/2.png"/>
</g>
<path d="M659.9,283.4h104V260.3h-104v23.1Z" class="g8_90"/>
<path d="M531.3,336.1H721.1M531.7,365.6V336.4" class="g0_90"/>
<path d="M532,365.6h79.5V336.4H532v29.2Z" class="g9_90"/>
<path d="M611.8,365.6V336.4" class="g0_90"/>
<path d="M612.2,365.6H720.4V336.4H612.2v29.2Z" class="g9_90"/>
<path d="M720.8,365.6V336.4M531.3,366H721.1M531.7,395.6V366.4m80.1,29.2V366.4m109,29.2V366.4M531.3,396H721.1M531.7,425.5V396.3m80.1,29.2V396.3m109,29.2V396.3M531.3,425.9H721.1M531.7,455.5V426.3m80.1,29.2V426.3m109,29.2V426.3M531.3,455.9H721.1M531.7,485.5V456.2m80.1,29.3V456.2m109,29.3V456.2M531.3,485.8H721.1M531.7,515.4V486.2m80.1,29.2V486.2m109,29.2V486.2M531.3,515.8H721.1M531.7,545.4V516.1m80.1,29.3V516.1m109,29.3V516.1M531.3,545.7H721.1" class="g0_90"/>
<path d="M122.2,624c221.7,0,443.4,0,665,0V852c-221.6,-9.3,-443.3,-9.3,-665,0Z" class="g1_90"/>
<path d="M122.9,624.6c221.2,0,442.4,0,663.7,0V851.4C565.3,842,344.1,842,122.9,851.4Z" class="g2_90"/>
<path d="M123.5,625.3c220.8,0,441.6,0,662.5,0V850.8c-220.9,-9.4,-441.7,-9.4,-662.5,0Z" class="g3_90"/>
<path d="M124.1,625.9c220.4,0,440.8,0,661.2,0V850.1c-220.4,-9.3,-440.8,-9.3,-661.2,0Z" class="g4_90"/>
<path d="M124.7,626.5c220,0,440,0,660,0v223c-220,-9.3,-440,-9.3,-660,0Z" class="g5_90"/>
<path d="M125.4,627.1c219.5,0,439.1,0,658.7,0V848.9c-219.6,-9.4,-439.2,-9.4,-658.7,0Z" class="g5_90"/>
<path d="M126,627.8c219.1,0,438.3,0,657.5,0V848.3c-219.2,-9.4,-438.4,-9.4,-657.5,0Z" class="g4_90"/>
<path d="M126.6,628.4c218.8,0,437.5,0,656.3,0V847.7c-218.8,-9.4,-437.5,-9.4,-656.3,0Z" class="g3_90"/>
<path d="M127.2,629c218.4,0,436.7,0,655,0V847c-218.3,-9.3,-436.6,-9.3,-655,0Z" class="g2_90"/>
<path d="M127.9,629.6c217.9,0,435.8,0,653.7,0V846.4C563.7,837,345.8,837,127.9,846.4Z" class="g1_90"/>
<path d="M116.9,841.7v-223H792.5v223Z" class="g6_90"/>
<path d="M119.5,839.1V657.4H789.9V839.1Z" class="g6_90"/>
<path d="M119.5,654.8V621.3H789.9v33.5Z" class="g7_90"/>
<g clip-path="url(#c2_90)">
<image x="119" y="621" width="672" height="34" xlink:href="shade/3.png"/>
</g>
<path d="M675.7,649.6h88.2V626.5H675.7v23.1Z" class="ga_90"/>
<path d="M308.9,673.4H600.6M309.2,703V673.8" class="g0_90"/>
<path d="M309.6,703h89.5V673.8H309.6V703Z" class="g9_90"/>
<path d="M399.4,703V673.8" class="g0_90"/>
<path d="M399.8,703H466V673.8H399.8V703Z" class="g9_90"/>
<path d="M466.4,703V673.8" class="g0_90"/>
<path d="M466.7,703h66.2V673.8H466.7V703Z" class="g9_90"/>
<path d="M533.3,703V673.8" class="g0_90"/>
<path d="M533.7,703h66.1V673.8H533.7V703Z" class="g9_90"/>
<path d="M600.2,703V673.8M308.9,703.4H600.6M309.2,732.9V703.7m90.2,29.2V703.7m67,29.2V703.7m66.9,29.2V703.7m66.9,29.2V703.7M308.9,733.3H600.6M309.2,762.9V733.7m90.2,29.2V733.7m67,29.2V733.7m66.9,29.2V733.7m66.9,29.2V733.7M308.9,763.3H600.6M309.2,792.9V763.6m90.2,29.3V763.6m67,29.3V763.6m66.9,29.3V763.6m66.9,29.3V763.6M308.9,793.2H600.6M309.2,822.8V793.6m90.2,29.2V793.6m67,29.2V793.6m66.9,29.2V793.6m66.9,29.2V793.6M308.9,823.2H600.6" class="g0_90"/>
<path d="M-2.9,1069.8v-65.5H912.4v65.5Z" class="g6_90"/>
<path d="M-.3,1067.2v-60.3H909.8v60.3Z" class="gb_90"/>
<path d="M-.3,1058.8H909.8M-.3,1032.9H909.8M-.3,1006.9H909.8M-.3,1067.2v-60.3m25.9,60.3v-60.3m26,60.3v-60.3m26,60.3v-60.3m26,60.3v-60.3m26,60.3v-60.3m25.9,60.3v-60.3m26,60.3v-60.3m26,60.3v-60.3m26,60.3v-60.3m26,60.3v-60.3m26,60.3v-60.3m25.9,60.3v-60.3m26,60.3v-60.3m26,60.3v-60.3m26,60.3v-60.3m26,60.3v-60.3m26,60.3v-60.3m26,60.3v-60.3m25.9,60.3v-60.3m26,60.3v-60.3m26,60.3v-60.3m26,60.3v-60.3m26,60.3v-60.3m26,60.3v-60.3m25.9,60.3v-60.3m26,60.3v-60.3m26,60.3v-60.3m26,60.3v-60.3m26,60.3v-60.3m26,60.3v-60.3m25.9,60.3v-60.3m26,60.3v-60.3m26,60.3v-60.3m26,60.3v-60.3m26,60.3v-60.3" class="gc_90"/>
</svg>