<?xml version="1.0" encoding="UTF-8" standalone="no"?>
<!DOCTYPE svg PUBLIC "-//W3C//DTD SVG 1.1//EN"
"http://www.w3.org/Graphics/SVG/1.1/DTD/svg11.dtd">
<svg viewBox="0 0 909 1286" version="1.1" xmlns="http://www.w3.org/2000/svg" xmlns:xlink="http://www.w3.org/1999/xlink">
<defs>
<style type="text/css"><![CDATA[
.g0_75{
fill: none;
stroke: #000000;
stroke-width: 0.73;
stroke-linecap: butt;
stroke-linejoin: miter;
}
.g1_75{
fill: #FDE8E9;
}
]]></style>
</defs>
<path d="M116.9,159.9H792.5" class="g0_75"/>
<path d="M492.4,336.2h106V312.4h-106v23.8Z" class="g1_75"/>
<path d="M372.9,369.6h80.5v-28H372.9v28Z" class="g1_75"/>
<path d="M167.6,469.7H263V441.9H167.6v27.8Z" class="g1_75"/>
<path d="M268.9,499.4h78.6V471.5H268.9v27.9Z" class="g1_75"/>
<path d="M364.3,499.4h95.4V471.5H364.3v27.9Z" class="g1_75"/>
<path d="M476.6,499.4H572V471.5H476.6v27.9Z" class="g1_75"/>
<path d="M167.6,529H263V501.2H167.6V529Z" class="g1_75"/>
<path d="M268.9,558.7h95.4V530.9H268.9v27.8Z" class="g1_75"/>
<path d="M381.2,558.7h95.4V530.9H381.2v27.8Z" class="g1_75"/>
<path d="M493.5,558.7h95.4V530.9H493.5v27.8Z" class="g1_75"/>
<path d="M167.6,588.4h61.6V560.5H167.6v27.9Z" class="g1_75"/>
<path d="M268.9,618.1h61.7V590.2H268.9v27.9Z" class="g1_75"/>
<path d="M347.5,618.1h95.4V590.2H347.5v27.9Z" class="g1_75"/>
<path d="M167.6,647.7h61.6V619.9H167.6v27.8Z" class="g1_75"/>
<path d="M268.9,677.4H381.2V649.6H268.9v27.8Z" class="g1_75"/>
<path d="M398.1,677.4h61.6V649.6H398.1v27.8Z" class="g1_75"/>
<path d="M476.6,677.4H572V649.6H476.6v27.8Z" class="g1_75"/>
<path d="M588.9,677.4h163V649.6h-163v27.8Z" class="g1_75"/>
<path d="M180.3,707.1H427.7V679.2H180.3v27.9Z" class="g1_75"/>
<path d="M444.6,707.1h146V679.2h-146v27.9Z" class="g1_75"/>
<path d="M167.6,736.8h61.6V708.9H167.6v27.9Z" class="g1_75"/>
<path d="M268.9,766.4h61.7V738.6H268.9v27.8Z" class="g1_75"/>
<path d="M347.5,766.4h61.6V738.6H347.5v27.8Z" class="g1_75"/>
<path d="M426,766.4h95.4V738.6H426v27.8Z" class="g1_75"/>
<path d="M538.3,766.4h78.5V738.6H538.3v27.8Z" class="g1_75"/>
<path d="M642.1,766.4h61.6V738.6H642.1v27.8Z" class="g1_75"/>
<path d="M167.6,796.1H279.9V768.3H167.6v27.8Z" class="g1_75"/>
<path d="M268.9,825.8h61.7V797.9H268.9v27.9Z" class="g1_75"/>
<path d="M347.5,825.8H476.6V797.9H347.5v27.9Z" class="g1_75"/>
<path d="M493.5,825.8h95.4V797.9H493.5v27.9Z" class="g1_75"/>
<path d="M605.8,825.8h95.4V797.9H605.8v27.9Z" class="g1_75"/>
<path d="M718.1,825.8h61.6V797.9H718.1v27.9Z" class="g1_75"/>
<path d="M167.6,855.5h61.6V827.6H167.6v27.9Z" class="g1_75"/>
<path d="M268.9,885.1H381.2V857.3H268.9v27.8Z" class="g1_75"/>
<path d="M398.1,885.1h78.5V857.3H398.1v27.8Z" class="g1_75"/>
<path d="M493.5,885.1h61.7V857.3H493.5v27.8Z" class="g1_75"/>
<path d="M572,885.1h61.7V857.3H572v27.8Z" class="g1_75"/>
<path d="M650.6,885.1h61.6V857.3H650.6v27.8Z" class="g1_75"/>
<path d="M167.6,914.8h61.6V887H167.6v27.8Z" class="g1_75"/>
<path d="M268.9,944.5h61.7V916.6H268.9v27.9Z" class="g1_75"/>
<path d="M347.5,944.5h61.6V916.6H347.5v27.9Z" class="g1_75"/>
<path d="M426,944.5h61.6V916.6H426v27.9Z" class="g1_75"/>
<path d="M167.6,1061.4h61.6v-27.9H167.6v27.9Z" class="g1_75"/>
<path d="M167.6,1091.1h61.6v-27.9H167.6v27.9Z" class="g1_75"/>
</svg>