<?xml version="1.0" encoding="UTF-8" standalone="no"?>
<!DOCTYPE svg PUBLIC "-//W3C//DTD SVG 1.1//EN"
"http://www.w3.org/Graphics/SVG/1.1/DTD/svg11.dtd">
<svg viewBox="0 0 909 1286" version="1.1" xmlns="http://www.w3.org/2000/svg" xmlns:xlink="http://www.w3.org/1999/xlink">
<defs>
<clipPath id="c0_65"><path d="M119.5,463.1V429.6H446.9v33.5Z"/></clipPath>
<clipPath id="c1_65"><path d="M460.4,463.1V429.6H787.8v33.5Z"/></clipPath>
<style type="text/css"><![CDATA[
.g0_65{
fill: none;
stroke: #000000;
stroke-width: 0.73;
stroke-linecap: butt;
stroke-linejoin: miter;
}
.g1_65{
fill: #E81A58;
}
.g2_65{
fill: #401A1A;
}
.g3_65{
fill: #7F7F7F;
fill-opacity: 0.01;
}
.g4_65{
fill: #7F7F7F;
fill-opacity: 0.02;
}
.g5_65{
fill: #7F7F7F;
fill-opacity: 0.04;
}
.g6_65{
fill: #7F7F7F;
fill-opacity: 0.07;
}
.g7_65{
fill: #7F7F7F;
fill-opacity: 0.11;
}
.g8_65{
fill: #FFFFFF;
}
.g9_65{
fill: #7F7F7F;
}
.ga_65{
fill: #00AEEF;
}
.gb_65{
fill: #CBCEFB;
}
]]></style>
</defs>
<path d="M116.9,159.9H792.5" class="g0_65"/>
<path d="M116.9,362.7v-144c0,-21.7,17.6,-39.2,39.2,-39.2H792.5V323.6c0,21.6,-17.5,39.1,-39.1,39.1Z" class="g1_65"/>
<path d="M119.5,360.1V212H789.9V323.6c0,20.1,-16.3,36.5,-36.5,36.5Z" class="g2_65"/>
<path d="M122.2,432.3c107.4,0,214.7,0,322,0V723.6c-107.3,-9.3,-214.6,-9.3,-322,0Z" class="g3_65"/>
<path d="M122.9,432.9c106.9,0,213.8,0,320.7,0V723c-106.9,-9.3,-213.8,-9.3,-320.7,0Z" class="g4_65"/>
<path d="M123.5,433.5c106.5,0,213,0,319.5,0V722.4C336.5,713,230,713,123.5,722.4Z" class="g5_65"/>
<path d="M124.1,434.1c106.1,0,212.2,0,318.3,0V721.8c-106.1,-9.4,-212.2,-9.4,-318.3,0Z" class="g6_65"/>
<path d="M124.7,434.8c105.7,0,211.4,0,317,0V721.2c-105.6,-9.4,-211.3,-9.4,-317,0Z" class="g7_65"/>
<path d="M125.4,435.4c105.2,0,210.5,0,315.7,0V720.5c-105.2,-9.3,-210.5,-9.3,-315.7,0Z" class="g7_65"/>
<path d="M126,436c104.8,0,209.7,0,314.5,0V719.9c-104.8,-9.3,-209.7,-9.3,-314.5,0Z" class="g6_65"/>
<path d="M126.6,436.6c104.4,0,208.8,0,313.3,0V719.3c-104.5,-9.4,-208.9,-9.4,-313.3,0Z" class="g5_65"/>
<path d="M127.2,437.3c104,0,208,0,312,0V718.7c-104,-9.4,-208,-9.4,-312,0Z" class="g4_65"/>
<path d="M127.9,437.9c103.5,0,207.1,0,310.7,0V718C335,708.7,231.4,708.7,127.9,718Z" class="g3_65"/>
<path d="M116.9,713.4V427H449.5V713.4Z" class="g8_65"/>
<path d="M119.5,710.8V465.7H446.9V710.8Z" class="g8_65"/>
<path d="M119.5,463.1V429.6H446.9v33.5Z" class="g9_65"/>
<g clip-path="url(#c0_65)">
<image x="119" y="429" width="329" height="34" xlink:href="shade/1.png"/>
</g>
<path d="M316.9,457.9h104V434.8h-104v23.1Z" class="ga_65"/>
<path d="M195.3,515.1H371.2M195.7,544.7V515.4" class="g0_65"/>
<path d="M196,544.7h62V515.4H196v29.3Z" class="gb_65"/>
<path d="M258.4,544.7V515.4" class="g0_65"/>
<path d="M258.8,544.7H319V515.4H258.8v29.3Z" class="gb_65"/>
<path d="M319.4,544.7V515.4" class="g0_65"/>
<path d="M319.8,544.7h50.6V515.4H319.8v29.3Z" class="gb_65"/>
<path d="M370.8,544.7V515.4M195.3,545H371.2M195.7,574.6V545.4m62.7,29.2V545.4m61,29.2V545.4m51.4,29.2V545.4M195.3,575H371.2M195.7,604.6V575.3m62.7,29.3V575.3m61,29.3V575.3m51.4,29.3V575.3M195.3,604.9H371.2M195.7,634.5V605.3m62.7,29.2V605.3m61,29.2V605.3m51.4,29.2V605.3M195.3,634.9H371.2M195.7,664.5V635.3m62.7,29.2V635.3m61,29.2V635.3m51.4,29.2V635.3M195.3,664.8H371.2M195.7,694.4V665.2m62.7,29.2V665.2m61,29.2V665.2m51.4,29.2V665.2M195.3,694.8H371.2" class="g0_65"/>
<path d="M463.1,432.3c107.3,0,214.6,0,322,0V723.6c-107.4,-9.3,-214.7,-9.3,-322,0Z" class="g3_65"/>
<path d="M463.7,432.9c106.9,0,213.8,0,320.7,0V723c-106.9,-9.3,-213.8,-9.3,-320.7,0Z" class="g4_65"/>
<path d="M464.3,433.5c106.5,0,213,0,319.5,0V722.4c-106.5,-9.4,-213,-9.4,-319.5,0Z" class="g5_65"/>
<path d="M464.9,434.1c106.1,0,212.2,0,318.3,0V721.8c-106.1,-9.4,-212.2,-9.4,-318.3,0Z" class="g6_65"/>
<path d="M465.6,434.8c105.6,0,211.3,0,317,0V721.2c-105.7,-9.4,-211.4,-9.4,-317,0Z" class="g7_65"/>
<path d="M466.2,435.4c105.2,0,210.5,0,315.7,0V720.5c-105.2,-9.3,-210.5,-9.3,-315.7,0Z" class="g7_65"/>
<path d="M466.8,436c104.8,0,209.7,0,314.5,0V719.9c-104.8,-9.3,-209.7,-9.3,-314.5,0Z" class="g6_65"/>
<path d="M467.4,436.6c104.5,0,208.9,0,313.3,0V719.3c-104.4,-9.4,-208.8,-9.4,-313.3,0Z" class="g5_65"/>
<path d="M468.1,437.3c104,0,208,0,312,0V718.7c-104,-9.4,-208,-9.4,-312,0Z" class="g4_65"/>
<path d="M468.7,437.9c103.6,0,207.2,0,310.7,0V718c-103.5,-9.3,-207.1,-9.3,-310.7,0Z" class="g3_65"/>
<path d="M457.8,713.4V427H790.4V713.4Z" class="g8_65"/>
<path d="M460.4,710.8V465.7H787.8V710.8Z" class="g8_65"/>
<path d="M460.4,463.1V429.6H787.8v33.5Z" class="g9_65"/>
<g clip-path="url(#c1_65)">
<image x="460" y="429" width="329" height="34" xlink:href="shade/2.png"/>
</g>
<path d="M657.8,457.9h104V434.8h-104v23.1Z" class="ga_65"/>
<path d="M536.1,515.1H712M536.5,544.7V515.4" class="g0_65"/>
<path d="M536.9,544.7h62V515.4h-62v29.3Z" class="gb_65"/>
<path d="M599.2,544.7V515.4" class="g0_65"/>
<path d="M599.6,544.7h60.3V515.4H599.6v29.3Z" class="gb_65"/>
<path d="M660.2,544.7V515.4" class="g0_65"/>
<path d="M660.6,544.7h50.7V515.4H660.6v29.3Z" class="gb_65"/>
<path d="M711.6,544.7V515.4M536.1,545H712M536.5,574.6V545.4m62.7,29.2V545.4m61,29.2V545.4m51.4,29.2V545.4M536.1,575H712M536.5,604.6V575.3m62.7,29.3V575.3m61,29.3V575.3m51.4,29.3V575.3M536.1,604.9H712M536.5,634.5V605.3m62.7,29.2V605.3m61,29.2V605.3m51.4,29.2V605.3M536.1,634.9H712M536.5,664.5V635.3m62.7,29.2V635.3m61,29.2V635.3m51.4,29.2V635.3M536.1,664.8H712M536.5,694.4V665.2m62.7,29.2V665.2m61,29.2V665.2m51.4,29.2V665.2M536.1,694.8H712" class="g0_65"/>
</svg>