<?xml version="1.0" encoding="UTF-8" standalone="no"?>
<!DOCTYPE svg PUBLIC "-//W3C//DTD SVG 1.1//EN"
"http://www.w3.org/Graphics/SVG/1.1/DTD/svg11.dtd">
<svg viewBox="0 0 1286 909" version="1.1" xmlns="http://www.w3.org/2000/svg" xmlns:xlink="http://www.w3.org/1999/xlink">
<defs>
<style type="text/css"><![CDATA[
.g0_543{
fill: none;
stroke: #000000;
stroke-width: 0.73;
stroke-linecap: butt;
stroke-linejoin: miter;
}
.g1_543{
fill: none;
stroke: #02B5EE;
stroke-width: 1.262;
stroke-linecap: butt;
stroke-linejoin: miter;
}
.g2_543{
fill: #FFCCCC;
}
.g3_543{
fill: none;
stroke: #F81693;
stroke-width: 1.461;
stroke-linecap: butt;
stroke-linejoin: miter;
stroke-dasharray: 2,2;
}
.g4_543{
fill: none;
stroke: #02B5EE;
stroke-width: 1.051;
stroke-linecap: butt;
stroke-linejoin: miter;
}
.g5_543{
fill: none;
stroke: #000000;
stroke-width: 0.733;
stroke-linecap: round;
stroke-linejoin: round;
}
.g6_543{
fill: none;
stroke: #02B5EE;
stroke-width: 0.73;
stroke-linecap: butt;
stroke-linejoin: miter;
}
]]></style>
</defs>
<path d="M193,83.4h900.3M193,111.6H931.7m-738.7,0H931.7M428,141.2V112m0,58.5V141.2m0,258V170.5" class="g0_543"/>
<path d="M596.7,237h97" class="g1_543"/>
<path d="M714.7,225.3h77.8V192.4H714.7v32.9Z" class="g2_543"/>
<path d="M806.7,225.3h47.9" class="g3_543"/>
<path d="M554.5,373.7H728.7" class="g4_543"/>
<path d="M746.2,362.7h66.7V329.8H746.2v32.9Z" class="g2_543"/>
<path d="M825.3,361.7h71.5" class="g3_543"/>
<path d="M727.5,307.9V266.4" class="g5_543"/>
<path d="M428,428.4V399.2m0,102.2v-73" class="g0_543"/>
<path d="M631.2,473.3h81.7" class="g3_543"/>
<path d="M722.7,477.7h90.6V444.8H722.7v32.9Z" class="g2_543"/>
<path d="M819.4,487.6H920.8" class="g6_543"/>
<path d="M428,530.7V501.4m0,58.5V530.7m0,58.4V559.9M193,589.5H931.7m-738.7,0H931.7" class="g0_543"/>
</svg>