<?xml version="1.0" encoding="UTF-8" standalone="no"?>
<!DOCTYPE svg PUBLIC "-//W3C//DTD SVG 1.1//EN"
"http://www.w3.org/Graphics/SVG/1.1/DTD/svg11.dtd">
<svg viewBox="0 0 1286 909" version="1.1" xmlns="http://www.w3.org/2000/svg" xmlns:xlink="http://www.w3.org/1999/xlink">
<defs>
<style type="text/css"><![CDATA[
.g0_427{
fill: none;
stroke: #000000;
stroke-width: 0.73;
stroke-linecap: butt;
stroke-linejoin: miter;
}
.g1_427{
fill: #B3E9FA;
}
.g2_427{
fill: none;
stroke: #02B5EE;
stroke-width: 1.262;
stroke-linecap: butt;
stroke-linejoin: miter;
}
.g3_427{
fill: none;
stroke: #5EE200;
stroke-width: 1.262;
stroke-linecap: butt;
stroke-linejoin: miter;
}
]]></style>
</defs>
<path d="M193,83.4h900.3M193,111.6H854.7m-661.7,0H854.7M520.3,141.2V112m0,114.3V141.2" class="g0_427"/>
<path d="M645.8,176.5V164.3c0,-2.9,2.3,-5.2,5.2,-5.2h71.9c2.9,0,5.2,2.3,5.2,5.2v12.2c0,2.9,-2.3,5.2,-5.2,5.2H651c-2.9,0,-5.2,-2.3,-5.2,-5.2Z" class="g1_427"/>
<path d="M643.2,202.3h87.5" class="g2_427"/>
<path d="M741.2,202.3H843.7" class="g3_427"/>
<path d="M520.3,255.5V226.3m0,58.4V255.5m0,59.4V284.7m0,59.4V314.9M193,344.5H854.7m-661.7,0H854.7" class="g0_427"/>
</svg>