<?xml version="1.0" encoding="UTF-8" standalone="no"?>
<!DOCTYPE svg PUBLIC "-//W3C//DTD SVG 1.1//EN"
"http://www.w3.org/Graphics/SVG/1.1/DTD/svg11.dtd">
<svg viewBox="0 0 1286 909" version="1.1" xmlns="http://www.w3.org/2000/svg" xmlns:xlink="http://www.w3.org/1999/xlink">
<defs>
<style type="text/css"><![CDATA[
.g0_1141{
fill: none;
stroke: #000000;
stroke-width: 0.73;
stroke-linecap: butt;
stroke-linejoin: miter;
}
.g1_1141{
fill: #FFCCCC;
}
.g2_1141{
fill: none;
stroke: #5EE200;
stroke-width: 1.461;
stroke-linecap: butt;
stroke-linejoin: miter;
stroke-dasharray: 2,2;
}
.g3_1141{
fill: none;
stroke: #5EE200;
stroke-width: 0.73;
stroke-linecap: butt;
stroke-linejoin: miter;
}
.g4_1141{
fill: #AEF080;
}
]]></style>
</defs>
<path d="M193,83.4h900.3M193,210.6h832.8m-832.8,0h832.8M671.3,240.2V211m0,58.5V240.2m0,63.5V269.5" class="g0_1141"/>
<path d="M741.3,302.3h84.9V269.5H741.3v32.8Z" class="g1_1141"/>
<path d="M840.4,295.9h30.1" class="g2_1141"/>
<path d="M888.3,302.2c.7,0,1,-1,1.6,-1c.5,0,.9,.5,1.3,1c.4,.6,.9,1.1,1.3,1.1c.5,0,.9,-.5,1.3,-1.1c.4,-.5,.9,-1,1.3,-1c.5,0,.9,.5,1.3,1c.4,.6,.9,1.1,1.3,1.1c.5,0,.9,-.5,1.3,-1.1c.4,-.5,.9,-1,1.3,-1c.5,0,.9,.5,1.3,1c.4,.6,.8,1.1,1.3,1.1c.5,0,.9,-.5,1.3,-1.1c.4,-.5,.8,-1,1.3,-1c.5,0,.9,.5,1.3,1c.4,.6,.8,1.1,1.3,1.1c.5,0,.9,-.5,1.3,-1.1c.4,-.5,.8,-1,1.3,-1c.5,0,.9,.5,1.3,1c.4,.6,.8,1.1,1.3,1.1c.5,0,.9,-.5,1.3,-1.1c.4,-.5,.8,-1,1.3,-1c.5,0,.9,.5,1.3,1c.4,.6,.8,1.1,1.3,1.1c.5,0,.9,-.5,1.3,-1.1c.4,-.5,.8,-1,1.3,-1c.5,0,.9,.5,1.3,1c.4,.6,.8,1.1,1.3,1.1c.5,0,.9,-.5,1.3,-1.1c.4,-.5,.8,-1,1.3,-1c.5,0,.9,.5,1.3,1c.4,.6,.8,1.1,1.3,1.1c.5,0,.9,-.5,1.3,-1.1c.4,-.5,.8,-1,1.3,-1c.5,0,.9,.5,1.3,1c.4,.6,.8,1.1,1.3,1.1c.5,0,.9,-.5,1.3,-1.1c.4,-.5,.8,-1,1.3,-1c.5,0,.9,.5,1.3,1c.4,.6,.8,1.1,1.3,1.1c.5,0,.9,-.5,1.3,-1.1c.4,-.5,.8,-1,1.3,-1c.5,0,.9,.5,1.3,1c.4,.6,.8,1.1,1.3,1.1c.5,0,.9,-.5,1.3,-1.1c.4,-.5,.8,-1,1.3,-1c.5,0,.9,.5,1.3,1c.4,.6,.8,1.1,1.3,1.1c.5,0,.9,-.5,1.3,-1.1c.4,-.5,.8,-1,1.3,-1c.5,0,.9,.5,1.3,1c.4,.6,.8,1.1,1.3,1.1c.5,0,.9,-.5,1.3,-1.1c.4,-.5,.8,-1,1.3,-1c.5,0,.9,.5,1.3,1c.4,.6,.8,1.1,1.3,1.1c.5,0,.9,-.5,1.3,-1.1c.4,-.5,.8,-1,1.3,-1c.5,0,.9,.5,1.3,1c.4,.6,.8,1.1,1.3,1.1c.6,0,1,-1.1,1.6,-1.1h.4" class="g3_1141"/>
<path d="M981.4,302.3h33.4V269.5H981.4v32.8Z" class="g4_1141"/>
<path d="M671.3,332.9V303.7m0,62.1V332.9" class="g0_1141"/>
<path d="M767.2,361.4h48.9" class="g2_1141"/>
<path d="M829.5,361.4c.6,0,1,-1.1,1.6,-1.1c.5,0,.9,.6,1.3,1.1c.4,.5,.8,1,1.3,1c.5,0,.9,-.5,1.3,-1c.4,-.5,.8,-1.1,1.3,-1.1c.5,0,.9,.6,1.3,1.1c.4,.5,.8,1,1.3,1c.5,0,.9,-.5,1.3,-1c.4,-.5,.8,-1.1,1.3,-1.1c.5,0,.9,.6,1.3,1.1c.4,.5,.8,1,1.3,1c.5,0,.9,-.5,1.3,-1c.4,-.5,.8,-1.1,1.3,-1.1c.5,0,.9,.6,1.3,1.1c.4,.5,.8,1,1.3,1c.5,0,.9,-.5,1.3,-1c.4,-.5,.8,-1.1,1.3,-1.1c.5,0,.9,.6,1.3,1.1c.4,.5,.8,1,1.3,1c.5,0,.9,-.5,1.3,-1c.4,-.5,.8,-1.1,1.3,-1.1c.5,0,.9,.6,1.3,1.1c.4,.5,.8,1,1.3,1c.5,0,.9,-.5,1.3,-1c.4,-.5,.8,-1.1,1.3,-1.1c.5,0,.9,.6,1.3,1.1c.4,.5,.8,1,1.3,1c.5,0,.9,-.5,1.3,-1c.4,-.5,.8,-1.1,1.3,-1.1c.5,0,.9,.6,1.3,1.1c.4,.5,.8,1,1.3,1c.5,0,.9,-.5,1.3,-1c.4,-.5,.8,-1.1,1.3,-1.1c.4,0,.9,.6,1.3,1.1c.4,.5,.8,1,1.3,1c.6,0,.9,-1,1.6,-1h1.4" class="g3_1141"/>
<path d="M888.1,365.8H912V332.9H888.1v32.9Z" class="g4_1141"/>
<path d="M924.2,365.8h90.6V332.9H924.2v32.9Z" class="g1_1141"/>
<path d="M671.3,395V365.8m0,58.4V395m0,61.4V424.2m0,61.5V456.4m0,58.5V485.7m0,61.4V514.9m0,61.5V547.1M193,576.7h832.8m-832.8,0h832.8" class="g0_1141"/>
</svg>