<?xml version="1.0" encoding="UTF-8" standalone="no"?>
<!DOCTYPE svg PUBLIC "-//W3C//DTD SVG 1.1//EN"
"http://www.w3.org/Graphics/SVG/1.1/DTD/svg11.dtd">
<svg viewBox="0 0 1286 909" version="1.1" xmlns="http://www.w3.org/2000/svg" xmlns:xlink="http://www.w3.org/1999/xlink">
<defs>
<style type="text/css"><![CDATA[
.g0_749{
fill: none;
stroke: #000000;
stroke-width: 0.73;
stroke-linecap: butt;
stroke-linejoin: miter;
}
.g1_749{
fill: #FFCCCC;
}
.g2_749{
fill: none;
stroke: #5EE200;
stroke-width: 1.461;
stroke-linecap: butt;
stroke-linejoin: miter;
stroke-dasharray: 2,2;
}
.g3_749{
fill: none;
stroke: #5EE200;
stroke-width: 0.73;
stroke-linecap: butt;
stroke-linejoin: miter;
}
.g4_749{
fill: #AEF080;
}
]]></style>
</defs>
<path d="M193,83.4h900.3M193,111.6h881.6m-881.6,0h881.6M504.3,141.2V112m0,58.5V141.2m0,58.5V170.5m0,63.1V199.7" class="g0_749"/>
<path d="M749.9,233.6h61.2V200.8H749.9v32.8Z" class="g1_749"/>
<path d="M825.2,227.2h71.5" class="g2_749"/>
<path d="M914.5,227.2c.7,0,1,-1,1.6,-1c.5,0,.9,.5,1.3,1c.5,.6,.9,1.1,1.3,1.1c.5,0,.9,-.5,1.3,-1.1c.5,-.5,.9,-1,1.3,-1c.5,0,.9,.5,1.3,1c.5,.6,.9,1.1,1.3,1.1c.5,0,.9,-.5,1.3,-1.1c.5,-.5,.9,-1,1.3,-1c.5,0,.9,.5,1.3,1c.5,.6,.9,1.1,1.3,1.1c.5,0,.9,-.5,1.3,-1.1c.5,-.5,.9,-1,1.3,-1c.5,0,.9,.5,1.3,1c.5,.6,.9,1.1,1.3,1.1c.5,0,.9,-.5,1.3,-1.1c.4,-.5,.9,-1,1.3,-1c.5,0,.9,.5,1.3,1c.4,.6,.9,1.1,1.3,1.1c.5,0,.9,-.5,1.3,-1.1c.4,-.5,.9,-1,1.3,-1c.5,0,.9,.5,1.3,1c.4,.6,.9,1.1,1.3,1.1c.5,0,.9,-.5,1.3,-1.1c.4,-.5,.9,-1,1.3,-1c.5,0,.9,.5,1.3,1c.4,.6,.9,1.1,1.3,1.1c.5,0,.9,-.5,1.3,-1.1c.4,-.5,.9,-1,1.3,-1c.5,0,.9,.5,1.3,1c.4,.6,.8,1.1,1.3,1.1c.5,0,.9,-.5,1.3,-1.1c.4,-.5,.8,-1,1.3,-1c.5,0,.9,.5,1.3,1c.4,.6,.8,1.1,1.3,1.1c.5,0,.9,-.5,1.3,-1.1c.4,-.5,.8,-1,1.3,-1c.5,0,.9,.5,1.3,1c.4,.6,.8,1.1,1.3,1.1c.5,0,.9,-.5,1.3,-1.1c.4,-.5,.8,-1,1.3,-1c.5,0,.9,.5,1.3,1c.4,.6,.8,1.1,1.3,1.1c.7,0,1,-1.1,1.6,-1.1h1.2" class="g3_749"/>
<path d="M987.6,233.6h76.1V200.8H987.6v32.8Z" class="g4_749"/>
<path d="M504.3,262.9V233.6m0,62.1V262.9" class="g0_749"/>
<path d="M518.9,291.4h82.7" class="g2_749"/>
<path d="M608.9,291.4c.6,0,.9,-1.1,1.6,-1.1c.5,0,.9,.5,1.3,1.1c.4,.5,.8,1,1.3,1c.5,0,.9,-.5,1.3,-1c.4,-.6,.8,-1.1,1.3,-1.1c.5,0,.9,.5,1.3,1.1c.4,.5,.8,1,1.3,1c.4,0,.9,-.5,1.3,-1c.4,-.6,.8,-1.1,1.3,-1.1c.4,0,.9,.5,1.3,1.1c.4,.5,.8,1,1.3,1c.4,0,.9,-.5,1.3,-1c.4,-.6,.8,-1.1,1.3,-1.1c.4,0,.9,.5,1.3,1.1c.4,.5,.8,1,1.3,1c.4,0,.9,-.5,1.3,-1c.4,-.6,.8,-1.1,1.3,-1.1c.4,0,.9,.5,1.3,1.1c.4,.5,.8,1,1.3,1c.4,0,.9,-.5,1.3,-1c.4,-.6,.8,-1.1,1.3,-1.1c.4,0,.8,.5,1.3,1.1c.4,.5,.8,1,1.3,1c.4,0,.8,-.5,1.3,-1c.4,-.6,.8,-1.1,1.3,-1.1c.4,0,.8,.5,1.3,1.1c.4,.5,.8,1,1.3,1c.4,0,.8,-.5,1.3,-1c.4,-.6,.8,-1.1,1.3,-1.1c.4,0,.8,.5,1.3,1.1c.4,.5,.8,1,1.3,1c.4,0,.8,-.5,1.3,-1c.4,-.6,.8,-1.1,1.3,-1.1c.4,0,.8,.5,1.3,1.1c.4,.5,.8,1,1.3,1c.4,0,.8,-.5,1.3,-1c.4,-.6,.8,-1.1,1.3,-1.1c.4,0,.8,.5,1.3,1.1c.4,.5,.8,1,1.2,1c.5,0,.9,-.5,1.3,-1c.5,-.6,.9,-1.1,1.3,-1.1c.5,0,.9,.5,1.3,1.1c.5,.5,.9,1,1.3,1c.5,0,.9,-.5,1.3,-1c.5,-.6,.9,-1.1,1.3,-1.1c.5,0,.9,.5,1.3,1.1c.5,.5,.9,1,1.3,1c.5,0,.9,-.5,1.3,-1c.5,-.6,.9,-1.1,1.3,-1.1c.5,0,.9,.5,1.3,1.1c.5,.5,.9,1,1.3,1c.5,0,.9,-.5,1.3,-1c.5,-.6,.9,-1.1,1.3,-1.1c.5,0,.9,.5,1.3,1.1c.5,.5,.9,1,1.3,1c.5,0,.9,-.5,1.3,-1c.4,-.6,.9,-1.1,1.3,-1.1c.5,0,.9,.5,1.3,1.1c.4,.5,.9,1,1.3,1c.5,0,.9,-.5,1.3,-1c.4,-.6,.9,-1.1,1.3,-1.1c.5,0,.9,.5,1.3,1.1c.4,.5,.9,1,1.3,1c.5,0,.9,-.5,1.3,-1c.4,-.6,.9,-1.1,1.3,-1.1c.5,0,.9,.5,1.3,1.1c.4,.5,.9,1,1.3,1c.5,0,.9,-.5,1.3,-1c.4,-.6,.9,-1.1,1.3,-1.1c.5,0,.9,.5,1.3,1.1c.4,.5,.9,1,1.3,1c.5,0,.9,-.5,1.3,-1c.4,-.6,.8,-1.1,1.3,-1.1c.5,0,.9,.5,1.3,1.1c.4,.5,.8,1,1.3,1c.5,0,.9,-.5,1.3,-1c.4,-.6,.8,-1.1,1.3,-1.1c.5,0,.9,.5,1.3,1.1c.4,.5,.8,1,1.3,1c.5,0,.9,-.5,1.3,-1c.4,-.6,.8,-1.1,1.3,-1.1c.5,0,.9,.5,1.3,1.1c.4,.5,.8,1,1.3,1c.5,0,.9,-.5,1.3,-1c.4,-.6,.8,-1.1,1.3,-1.1c.5,0,.9,.5,1.3,1.1c.4,.5,.8,1,1.3,1c.5,0,.9,-.5,1.3,-1c.4,-.6,.8,-1.1,1.3,-1.1c.5,0,.9,.5,1.3,1.1c.4,.5,.8,1,1.3,1c.5,0,.9,-.5,1.3,-1c.4,-.6,.8,-1.1,1.3,-1.1c.5,0,.9,.5,1.3,1.1c.4,.5,.8,1,1.3,1c.5,0,.9,-.5,1.3,-1c.4,-.6,.8,-1.1,1.3,-1.1c.5,0,.9,.5,1.3,1.1c.4,.5,.8,1,1.3,1c.5,0,.9,-.5,1.3,-1c.4,-.6,.8,-1.1,1.3,-1.1c.5,0,.9,.5,1.3,1.1c.4,.5,.8,1,1.3,1c.5,0,.9,-.5,1.3,-1c.4,-.6,.8,-1.1,1.3,-1.1c.5,0,.9,.5,1.3,1.1c.4,.5,.8,1,1.3,1c.5,0,.9,-.5,1.3,-1c.4,-.6,.8,-1.1,1.3,-1.1c.5,0,.9,.5,1.3,1.1c.4,.5,.8,1,1.3,1c.5,0,.9,-.5,1.3,-1c.4,-.6,.8,-1.1,1.3,-1.1c.6,0,1,1.1,1.6,1.1H759" class="g3_749"/>
<path d="M762.7,295.7H907.8V262.9H762.7v32.8Z" class="g4_749"/>
<path d="M913.9,295.7h149.8V262.9H913.9v32.8Z" class="g1_749"/>
<path d="M504.3,325V295.7M193,325.3h881.6m-881.6,0h881.6" class="g0_749"/>
</svg>