<?xml version="1.0" encoding="UTF-8" standalone="no"?>
<!DOCTYPE svg PUBLIC "-//W3C//DTD SVG 1.1//EN"
"http://www.w3.org/Graphics/SVG/1.1/DTD/svg11.dtd">
<svg viewBox="0 0 1286 909" version="1.1" xmlns="http://www.w3.org/2000/svg" xmlns:xlink="http://www.w3.org/1999/xlink">
<defs>
<style type="text/css"><![CDATA[
.g0_740{
fill: none;
stroke: #000000;
stroke-width: 0.73;
stroke-linecap: butt;
stroke-linejoin: miter;
}
.g1_740{
fill: #E6CEEE;
}
.g2_740{
fill: #FFCCCC;
}
.g3_740{
fill: #AEF080;
}
.g4_740{
fill: none;
stroke: #5EE200;
stroke-width: 1.461;
stroke-linecap: butt;
stroke-linejoin: miter;
stroke-dasharray: 2,2;
}
.g5_740{
fill: none;
stroke: #F81693;
stroke-width: 1.461;
stroke-linecap: butt;
stroke-linejoin: miter;
stroke-dasharray: 2,2;
}
]]></style>
</defs>
<path d="M193,83.4h900.3M193,111.6H926.9m-733.9,0H926.9M506.5,141.2V112m0,59.4V141.2m0,63.1V171.4" class="g0_740"/>
<path d="M769.9,204.3H916V171.4H769.9v32.9Z" class="g1_740"/>
<path d="M506.5,233.5V204.3m0,58.4V233.5m0,63.2v-34" class="g0_740"/>
<path d="M618.8,296.7H726.3V263.8H618.8v32.9Z" class="g2_740"/>
<path d="M736.8,296.7H837.9V263.8H736.8v32.9Z" class="g3_740"/>
<path d="M852.1,290.3h60.2" class="g4_740"/>
<path d="M506.5,326.8V296.7m0,63V326.8" class="g0_740"/>
<path d="M679.1,355.4h32.6" class="g4_740"/>
<path d="M715.4,359.7h44.7V326.8H715.4v32.9Z" class="g3_740"/>
<path d="M766.2,359.7H916V326.8H766.2v32.9Z" class="g2_740"/>
<path d="M506.5,388.9V359.7m0,58.5V388.9m0,63.2V418.2" class="g0_740"/>
<path d="M644.1,452.1H769.2V419.2H644.1v32.9Z" class="g2_740"/>
<path d="M783.4,445.7H912.3" class="g5_740"/>
<path d="M506.5,482.3V452.1m0,63.1V482.3" class="g0_740"/>
<path d="M673.2,510.8h49.5" class="g5_740"/>
<path d="M732.4,515.2H916V482.3H732.4v32.9Z" class="g2_740"/>
<path d="M506.5,544.4V515.2m0,58.4V544.4m0,58.4V573.6m0,58.5V602.8m0,60.6V632.1m0,60.5V663.4m0,58.4V692.6m0,58.5V721.8M193,751.4H926.9m-733.9,0H926.9" class="g0_740"/>
</svg>