<?xml version="1.0" encoding="UTF-8" standalone="no"?>
<!DOCTYPE svg PUBLIC "-//W3C//DTD SVG 1.1//EN"
"http://www.w3.org/Graphics/SVG/1.1/DTD/svg11.dtd">
<svg viewBox="0 0 909 1286" version="1.1" xmlns="http://www.w3.org/2000/svg" xmlns:xlink="http://www.w3.org/1999/xlink">
<defs>
<style type="text/css"><![CDATA[
.g0_144{
fill: none;
stroke: #000000;
stroke-width: 0.73;
stroke-linecap: butt;
stroke-linejoin: miter;
}
.g1_144{
fill: #7F7F7F;
fill-opacity: 0.01;
}
.g2_144{
fill: #7F7F7F;
fill-opacity: 0.02;
}
.g3_144{
fill: #7F7F7F;
fill-opacity: 0.04;
}
.g4_144{
fill: #7F7F7F;
fill-opacity: 0.07;
}
.g5_144{
fill: #7F7F7F;
fill-opacity: 0.11;
}
.g6_144{
fill: #FFFFFF;
}
.g7_144{
fill: #CBCEFB;
}
.g8_144{
fill: #E81A58;
}
.g9_144{
fill: #401A1A;
}
]]></style>
</defs>
<path d="M116.9,159.9H792.5" class="g0_144"/>
<path d="M122.2,184.8c221.7,0,443.4,0,665,0V646.3c-221.6,-9.4,-443.3,-9.4,-665,0Z" class="g1_144"/>
<path d="M122.9,185.4c221.2,0,442.4,0,663.7,0V645.7c-221.3,-9.4,-442.5,-9.4,-663.7,0Z" class="g2_144"/>
<path d="M123.5,186.1c220.8,0,441.6,0,662.5,0V645c-220.9,-9.3,-441.7,-9.3,-662.5,0Z" class="g3_144"/>
<path d="M124.1,186.7c220.4,0,440.8,0,661.2,0V644.4c-220.4,-9.3,-440.8,-9.3,-661.2,0Z" class="g4_144"/>
<path d="M124.7,187.3c220,0,440,0,660,0V643.8c-220,-9.4,-440,-9.4,-660,0Z" class="g5_144"/>
<path d="M125.4,187.9c219.5,0,439.1,0,658.7,0V643.2c-219.6,-9.4,-439.2,-9.4,-658.7,0Z" class="g5_144"/>
<path d="M126,188.6c219.1,0,438.3,0,657.5,0V642.5c-219.2,-9.3,-438.4,-9.3,-657.5,0Z" class="g4_144"/>
<path d="M126.6,189.2c218.8,0,437.5,0,656.3,0V641.9c-218.8,-9.3,-437.5,-9.3,-656.3,0Z" class="g3_144"/>
<path d="M127.2,189.8c218.4,0,436.7,0,655,0V641.3c-218.3,-9.4,-436.6,-9.4,-655,0Z" class="g2_144"/>
<path d="M127.9,190.4c217.9,0,435.8,0,653.7,0V640.7c-217.9,-9.4,-435.8,-9.4,-653.7,0Z" class="g1_144"/>
<path d="M116.9,636V179.5H792.5V636Z" class="g6_144"/>
<path d="M119.5,633.4V182.1H789.9V633.4Z" class="g6_144"/>
<path d="M374.3,198.1H535.1M374.7,227.7V198.4" class="g0_144"/>
<path d="M375.1,227.7h69.8V198.4H375.1v29.3Z" class="g7_144"/>
<path d="M444.9,227.7h38.8V198.4H444.9v29.3Z" class="g7_144"/>
<path d="M483.7,227.7h50.7V198.4H483.7v29.3Z" class="g7_144"/>
<path d="M534.8,227.7V198.4M374.3,228H535.1M374.7,257.6V228.4m160.1,29.2V228.4M374.3,258H535.1M374.7,287.6V258.4m160.1,29.2V258.4M374.3,287.9H535.1M374.7,317.5V288.3m160.1,29.2V288.3M374.3,317.9H535.1M374.7,347.5V318.3m160.1,29.2V318.3M374.3,347.8H535.1M374.7,377.4V348.2m160.1,29.2V348.2M374.3,377.8H535.1M374.7,407.4V378.2m160.1,29.2V378.2M374.3,407.8H535.1M374.7,437.3V408.1m160.1,29.2V408.1M374.3,437.7H535.1M374.7,467.3V438.1m160.1,29.2V438.1M374.3,467.7H535.1M374.7,497.3V468m160.1,29.3V468M374.3,497.6H535.1M374.7,527.2V498m160.1,29.2V498M374.3,527.6H535.1M374.7,557.2V527.9m160.1,29.3V527.9M374.3,557.5H535.1M374.7,587.1V557.9m160.1,29.2V557.9M374.3,587.5H535.1M374.7,617.1V587.8m160.1,29.3V587.8M374.3,617.4H535.1" class="g0_144"/>
<path d="M116.9,1111.4V908.9c0,-21.6,17.6,-39.1,39.2,-39.1H792.5v241.6Z" class="g8_144"/>
<path d="M119.5,1111.4V902.3H789.9v209.1Z" class="g9_144"/>
</svg>