<?xml version="1.0" encoding="UTF-8" standalone="no"?>
<!DOCTYPE svg PUBLIC "-//W3C//DTD SVG 1.1//EN"
"http://www.w3.org/Graphics/SVG/1.1/DTD/svg11.dtd">
<svg viewBox="0 0 1286 909" version="1.1" xmlns="http://www.w3.org/2000/svg" xmlns:xlink="http://www.w3.org/1999/xlink">
<defs>
<style type="text/css"><![CDATA[
.g0_814{
fill: none;
stroke: #000000;
stroke-width: 0.73;
stroke-linecap: butt;
stroke-linejoin: miter;
}
.g1_814{
fill: none;
stroke: #02B5EE;
stroke-width: 1.262;
stroke-linecap: butt;
stroke-linejoin: miter;
}
.g2_814{
fill: none;
stroke: #5EE200;
stroke-width: 1.262;
stroke-linecap: butt;
stroke-linejoin: miter;
}
.g3_814{
fill: #FFCCCC;
}
.g4_814{
fill: none;
stroke: #5EE200;
stroke-width: 0.73;
stroke-linecap: butt;
stroke-linejoin: miter;
}
.g5_814{
fill: none;
stroke: #02B5EE;
stroke-width: 0.73;
stroke-linecap: butt;
stroke-linejoin: miter;
}
]]></style>
</defs>
<path d="M193,83.4h900.3M193,111.6H956.4m-763.4,0H956.4M553.2,141.2V112m0,58.5V141.2m0,114.3v-85" class="g0_814"/>
<path d="M705.1,231.5H790" class="g1_814"/>
<path d="M800.5,231.5h22.2" class="g2_814"/>
<path d="M843.7,219.8H945.4V186.9H843.7v32.9Z" class="g3_814"/>
<path d="M553.2,284.7V255.5m0,102.3V284.7" class="g0_814"/>
<path d="M681,334H848.3V301.1H681V334Z" class="g3_814"/>
<path d="M854.4,343.9h34.3" class="g4_814"/>
<path d="M894.8,343.9h50.6" class="g5_814"/>
<path d="M553.2,387V357.8m0,58.4V387m0,114.2v-85" class="g0_814"/>
<path d="M689,477.3h94.4" class="g1_814"/>
<path d="M793.9,477.3h22.2" class="g2_814"/>
<path d="M553.2,530.5V501.2M193,530.8H956.4m-763.4,0H956.4" class="g0_814"/>
</svg>