<?xml version="1.0" encoding="UTF-8" standalone="no"?>
<!DOCTYPE svg PUBLIC "-//W3C//DTD SVG 1.1//EN"
"http://www.w3.org/Graphics/SVG/1.1/DTD/svg11.dtd">
<svg viewBox="0 0 909 1286" version="1.1" xmlns="http://www.w3.org/2000/svg" xmlns:xlink="http://www.w3.org/1999/xlink">
<defs>
<style type="text/css"><![CDATA[
.g0_78{
fill: none;
stroke: #000000;
stroke-width: 0.73;
stroke-linecap: butt;
stroke-linejoin: miter;
}
.g1_78{
fill: #FDE8E9;
}
]]></style>
</defs>
<path d="M116.9,159.9H792.5" class="g0_78"/>
<path d="M167.6,210.3H263V182.5H167.6v27.8Z" class="g1_78"/>
<path d="M167.6,240H279.9V212.2H167.6V240Z" class="g1_78"/>
<path d="M167.6,269.7h78.5V241.8H167.6v27.9Z" class="g1_78"/>
<path d="M167.6,299.4h78.5V271.5H167.6v27.9Z" class="g1_78"/>
<path d="M167.6,329h78.5V301.2H167.6V329Z" class="g1_78"/>
<path d="M167.6,358.7h78.5V330.9H167.6v27.8Z" class="g1_78"/>
<path d="M116.9,506.7h61.7V478.8H116.9v27.9Z" class="g1_78"/>
<path d="M167.6,550.9h44.7V523.1H167.6v27.8Z" class="g1_78"/>
<path d="M229.2,550.9h95.4V523.1H229.2v27.8Z" class="g1_78"/>
<path d="M167.6,580.6h44.7V552.8H167.6v27.8Z" class="g1_78"/>
<path d="M279.9,580.6h78.5V552.8H279.9v27.8Z" class="g1_78"/>
<path d="M285.3,682.9h78.5V655.1H285.3v27.8Z" class="g1_78"/>
<path d="M545.8,682.9H658.1V655.1H545.8v27.8Z" class="g1_78"/>
<path d="M671.8,682.9H784.1V655.1H671.8v27.8Z" class="g1_78"/>
<path d="M270.8,799.8h95.4V771.9H270.8v27.9Z" class="g1_78"/>
<path d="M471.6,887.5h44.7V859.6H471.6v27.9Z" class="g1_78"/>
<path d="M533.2,887.5H662.4V859.6H533.2v27.9Z" class="g1_78"/>
<path d="M319.6,960.5H448.8V932.7H319.6v27.8Z" class="g1_78"/>
<path d="M336.5,990.2h95.4V962.4H336.5v27.8Z" class="g1_78"/>
</svg>