<?xml version="1.0" encoding="UTF-8" standalone="no"?>
<!DOCTYPE svg PUBLIC "-//W3C//DTD SVG 1.1//EN"
"http://www.w3.org/Graphics/SVG/1.1/DTD/svg11.dtd">
<svg viewBox="0 0 909 1286" version="1.1" xmlns="http://www.w3.org/2000/svg" xmlns:xlink="http://www.w3.org/1999/xlink">
<defs>
<clipPath id="c0_75"><path d="M123.1,899.1V867.3h29.1v31.8Z"/></clipPath>
<clipPath id="c1_75"><path d="M122.1,899.6V866.9H153v32.7Z"/></clipPath>
<style type="text/css"><![CDATA[
.g0_75{
fill: none;
stroke: #000000;
stroke-width: 0.73;
stroke-linecap: butt;
stroke-linejoin: miter;
}
.g1_75{
fill: none;
stroke: #8007AC;
stroke-width: 8.444;
stroke-linecap: butt;
stroke-linejoin: miter;
}
.g2_75{
fill: #8007AC;
}
.g3_75{
fill: none;
stroke: #F81693;
stroke-width: 4.222;
stroke-linecap: butt;
stroke-linejoin: miter;
}
.g4_75{
fill: #F81693;
}
.g5_75{
fill: none;
stroke: #02B5EE;
stroke-width: 4.222;
stroke-linecap: butt;
stroke-linejoin: miter;
}
.g6_75{
fill: #02B5EE;
}
.g7_75{
fill: #FFFFFF;
}
.g8_75{
}
.g9_75{
fill: none;
stroke: #000000;
stroke-width: 0.459;
stroke-linecap: butt;
stroke-linejoin: round;
}
.ga_75{
fill: none;
stroke: #000000;
stroke-width: 0.722;
stroke-linecap: round;
stroke-linejoin: miter;
}
.gb_75{
fill: none;
stroke: #000000;
stroke-width: 0.722;
stroke-linecap: round;
stroke-linejoin: round;
}
.gc_75{
fill: #D40000;
}
.gd_75{
fill: none;
stroke: #000000;
stroke-width: 0.578;
stroke-linecap: round;
stroke-linejoin: miter;
}
.ge_75{
fill: #E9C6AF;
}
.gf_75{
fill: none;
stroke: #695000;
stroke-width: 0.152;
stroke-linecap: round;
stroke-linejoin: round;
}
.gg_75{
fill: none;
stroke: #000000;
stroke-width: 1.461;
stroke-linecap: butt;
stroke-linejoin: miter;
}
.gh_75{
fill: none;
stroke: #000000;
stroke-width: 2.739;
stroke-linecap: butt;
stroke-linejoin: miter;
}
]]></style>
</defs>
<path d="M116.9,159.9H792.5" class="g0_75"/>
<path d="M151.6,605.1L337.5,465.6" class="g1_75"/>
<path d="M359.4,449.2c-7.4,3.6,-20.7,7.9,-31.2,9.1l13.7,18.3c4.2,-9.8,12,-21.4,17.5,-27.4Z" class="g2_75"/>
<path d="M151.6,605.1H343.4" class="g3_75"/>
<path d="M359.4,605.1c-4.7,-.9,-12.4,-3.6,-17.7,-6.7v13.3c5.3,-3.1,13,-5.8,17.7,-6.6Z" class="g4_75"/>
<path d="M359.4,605.1V465.2" class="g5_75"/>
<path d="M359.4,449.2c-.8,4.7,-3.5,12.4,-6.6,17.7h13.3c-3.1,-5.3,-5.8,-13,-6.7,-17.7Z" class="g6_75"/>
<path d="M117.7,970.7V860.6H791.8V970.7Z" class="g7_75"/>
<path d="M117.7,970.7V860.6H791.8V970.7Z" class="gg_75"/>
<g clip-path="url(#c1_75)">
<path clip-path="url(#c0_75)" d="M126.4,892.7c0,0,1.5,-.9,1.2,-1.2c-.1,-.2,-.3,-.2,-.6,-.1c-1.6,.3,-5,2.1,-3.3,4.1c1.4,1.6,6.4,2.4,11.7,1.4c7.3,-1.4,13.5,-5.4,11.1,-8.3c-1.6,-1.9,-6.7,-2.1,-10.8,-2.2c-2.1,0,-6.6,-.1,-8,-1.7c-.6,-.7,-.5,-1.6,.1,-2.2c1,-.9,3.8,-1.4,4,-1.4c.7,-.2,2.5,-.5,4.6,-.4c1.1,0,2.5,0,3.2,.9c.2,.3,.4,.6,.4,.7c0,.1,0,.2,.1,.2c.1,.1,.4,.1,.5,.1c.5,-.1,1.5,-.5,2,-1c.3,-.3,.8,-.7,0,-1.6c-.9,-1,-2.3,-1.1,-4,-1.1c-2.3,-.1,-4.1,.3,-4.9,.4c-5.8,1.1,-11.1,4.6,-9,7c1.5,1.9,6.3,1.9,9,2c3.9,0,8.4,.2,9.8,2c.6,.6,.9,1.8,-.4,2.8c-1.2,.9,-4,1.7,-5.8,2.1c-4.4,.8,-9.4,.1,-10.6,-1.3c0,-.1,-.5,-.6,-.3,-1.2Z" class="g8_75"/>
<path d="M131.5,895.1l-.2,-.2l.3,-4.5c.3,-5.6,.3,-5.7,.5,-6c.1,-.2,1.6,-2.3,3.3,-4.6c1.7,-2.4,4.3,-6.1,5.9,-8.3c1.5,-2.2,2.8,-3.9,2.9,-3.9c.4,0,.1,.4,-1.8,3.2c-1.2,1.6,-3.7,5.2,-5.7,8c-2,2.9,-3.6,5.2,-3.6,5.2c0,.1,.5,.1,1,.2c2,.2,3.3,.6,4.5,1.2c.6,.3,1,.6,1.5,1.1c.8,.8,1.2,1.4,1.4,2.2c.1,.3,.1,.5,.2,.5c.1,0,.7,-.8,5.2,-7.6c2.4,-3.7,4.5,-6.7,4.6,-6.8c.2,-.2,.4,-.1,.2,.2c0,.1,-1.5,2.4,-3.2,5c-1.8,2.7,-3.8,5.7,-4.5,6.8c-1.5,2.4,-2.1,3.3,-2.3,3.8c-.2,.3,-.3,.4,-.9,.7c-.8,.4,-8.7,3.9,-8.9,4c-.1,0,-.3,0,-.4,-.2Z" class="g8_75"/>
<path d="M135.2,893.2c2.2,-1,4,-1.8,4.6,-2.1q.7,-.4,.7,-1.4c-.2,-1.7,-1.4,-3,-3.6,-3.8c-1.2,-.4,-4.3,-.8,-4.4,-.6c0,.1,-.1,1.5,-.2,3.2c-.1,1.6,-.2,3.3,-.2,3.6c-.1,1.1,.1,1.4,-.2,2.5c.1,.1,1.8,-.8,1.8,-.8c.1,0,.7,-.3,1.5,-.6Z" class="g8_75"/>
<path d="M131.5,895.1l-.2,-.2l.3,-4.5c.3,-5.6,.3,-5.7,.5,-6c.1,-.2,1.6,-2.3,3.3,-4.6c1.7,-2.4,4.3,-6.1,5.9,-8.3c1.5,-2.2,2.8,-3.9,2.9,-3.9c.4,0,.1,.4,-1.8,3.2c-1.2,1.6,-3.7,5.2,-5.7,8c-2,2.9,-3.6,5.2,-3.6,5.2c0,.1,.5,.1,1,.2c2,.2,3.3,.6,4.5,1.2c.6,.3,1,.6,1.5,1.1c.8,.8,1.2,1.4,1.4,2.2c.1,.3,.1,.5,.2,.5c.1,0,.7,-.8,5.2,-7.6c2.4,-3.7,4.5,-6.7,4.6,-6.8c.2,-.2,.4,-.1,.2,.2c0,.1,-1.5,2.4,-3.2,5c-1.8,2.7,-3.8,5.7,-4.5,6.8c-1.5,2.4,-2.1,3.3,-2.3,3.8c-.2,.3,-.3,.4,-.9,.7c-.8,.4,-8.7,3.9,-8.9,4c-.1,0,-.3,0,-.4,-.2Zm3.7,-1.9c2.2,-1,4,-1.8,4.6,-2.1q.7,-.4,.7,-1.4c-.2,-1.7,-1.4,-3,-3.6,-3.8c-1.2,-.4,-4.3,-.8,-4.4,-.6c0,.1,-.1,1.5,-.2,3.2c-.1,1.6,-.2,3.3,-.2,3.6c-.1,1.1,.1,1.4,-.2,2.5c.1,.1,1.8,-.8,1.8,-.8c.1,0,.7,-.3,1.5,-.6Z" class="g9_75"/>
<path d="M135.3,884.6l11.2,-16.1m-8.2,17.2L149,870" class="ga_75"/>
<path d="M140.4,887.4l10,-14.5l.2,-.3" class="gb_75"/>
<path d="M134.1,884.2c-.4,-.1,-.8,-.2,-.9,-.2c0,0,2.5,-3.7,6.7,-9.6c1.9,-2.7,3.6,-5.2,3.8,-5.5c.2,-.4,.4,-.6,.5,-.6c.1,0,.7,.4,.9,.6c.1,.4,.1,.6,-.1,1.1c-.2,.5,-9.8,14.3,-9.9,14.3c-.1,0,-.5,-.1,-1,-.1Z" class="gc_75"/>
<path d="M137.6,884.9c-.2,-.1,-.8,-.3,-1.2,-.4l-.7,-.1l.3,-.4c.1,-.2,2.3,-3.3,4.8,-7l4.7,-6.7l.5,-.2c.9,-.5,1.6,-.5,2.1,0l.3,.3l-5,7.4c-3.1,4.5,-5.1,7.4,-5.1,7.3c-.1,0,-.4,-.1,-.7,-.2Z" class="gc_75"/>
<path d="M140,886.4c-.2,-.3,-.6,-.6,-.8,-.7c-.2,-.1,-.3,-.3,-.3,-.3c0,-.1,9.4,-14,9.8,-14.6c.1,-.1,.5,.3,.8,.8c.3,.3,.3,.5,.4,1c0,.3,0,.6,-.1,.7c-.2,.3,-9.1,13.1,-9.2,13.3q-.2,.2,-.6,-.2Z" class="gc_75"/>
<path d="M141.6,889c0,-.1,-.1,-.3,-.1,-.6c-.1,-.2,-.3,-.6,-.4,-.8l-.3,-.4l4.7,-6.8c2.6,-3.7,4.8,-6.8,4.8,-6.8c.4,0,1,.7,1,1.2c0,.1,-.6,1.1,-1.9,3c-1.1,1.6,-3.1,4.7,-4.6,6.8c-3,4.4,-3.1,4.6,-3.2,4.4Z" class="gc_75"/>
<path d="M131.9,890.5c2.3,-.1,3.6,.7,4.1,2.3" class="gd_75"/>
<path d="M132,894.4c0,-.4,.1,-.4,.1,-1.3c0,-.8,0,-1,0,-1.4c0,-.2,0,-.5,0,-.7l.1,-.2c.1,0,.6,0,.7,0c.4,.1,.8,.1,1.1,.3c.2,0,.4,.2,.6,.3c.2,.1,.3,.2,.4,.3c.3,.3,.4,.5,.6,.8c0,.1,.1,.4,.1,.4c0,0,-1.5,.7,-1.8,.8c-.1,0,-.2,.1,-.3,.1c-1.1,.6,-1.4,.8,-1.6,.8Z" class="g8_75"/>
<path d="M136.2,892.3c-.6,-1.2,-1.8,-2,-3.4,-2.1h-.6v-.5c.1,-.3,.1,-1.3,.2,-2.2c0,-1,.1,-1.8,.1,-2l.1,-.2l.7,.1c.8,0,2.3,.2,3.1,.4c1.7,.5,3.1,1.4,3.6,2.5c.4,.8,.6,2.1,.3,2.4c-.1,.2,-.8,.5,-2.5,1.3c-1.6,.7,-1.5,.7,-1.6,.3Z" class="ge_75"/>
<path d="M136.2,892.3c-.6,-1.2,-1.8,-2,-3.4,-2.1h-.6v-.5c.1,-.3,.1,-1.3,.2,-2.2c0,-1,.1,-1.8,.1,-2l.1,-.2l.7,.1c.8,0,2.3,.2,3.1,.4c1.7,.5,3.1,1.4,3.6,2.5c.4,.8,.6,2.1,.3,2.4c-.1,.2,-.8,.5,-2.5,1.3c-1.6,.7,-1.5,.7,-1.6,.3Z" class="gf_75"/>
</g>
<path d="M152.7,912.2H395.2" class="g0_75"/>
<path d="M137.6,917.4v43.9" class="gh_75"/>
</svg>