<?xml version="1.0" encoding="UTF-8" standalone="no"?>
<!DOCTYPE svg PUBLIC "-//W3C//DTD SVG 1.1//EN"
"http://www.w3.org/Graphics/SVG/1.1/DTD/svg11.dtd">
<svg viewBox="0 0 909 1286" version="1.1" xmlns="http://www.w3.org/2000/svg" xmlns:xlink="http://www.w3.org/1999/xlink">
<defs>
<style type="text/css"><![CDATA[
.g0_64{
fill: none;
stroke: #000000;
stroke-width: 0.73;
stroke-linecap: butt;
stroke-linejoin: miter;
}
.g1_64{
fill: none;
stroke: #000000;
stroke-width: 0.657;
stroke-linecap: butt;
stroke-linejoin: miter;
}
]]></style>
</defs>
<path d="M184.9,248.9V179.5m0,108.8V248.9m0,109V288.3m0,97.2V357.9m0,55V385.5m0,55V412.9m0,55V440.5m0,60.4v-33m0,73.6V500.9m320.7,19h38.6M184.9,587.1V541.5m0,292.8V587.1M524,650h38.5M395.8,725.4h43.3m17.6,0h38.6m-43.4,75.4h43.4m28.7,0h38.5m42,-149.4c19.5,19.5,19.7,51.1,.6,70.9m7,-.4c-2.4,.4,-4.8,.6,-7.2,.7c-.1,-2.4,-.3,-4.7,-.6,-7m.2,11.2c9.2,9.2,9.4,24,.6,33.5m7.1,-1.1c-2.5,.7,-4.9,1.1,-7.3,1.3c-.2,-2.3,-.6,-4.5,-1.3,-6.6" class="g0_64"/>
<path d="M633,741.5h33.8" class="g1_64"/>
<path d="M184.9,863.5V834.3m0,53.5V863.5m0,58.5V887.8m8,18.7h56.8m-64.8,50.2V922" class="g0_64"/>
</svg>