<?xml version="1.0" encoding="UTF-8" standalone="no"?>
<!DOCTYPE svg PUBLIC "-//W3C//DTD SVG 1.1//EN"
"http://www.w3.org/Graphics/SVG/1.1/DTD/svg11.dtd">
<svg viewBox="0 0 1286 909" version="1.1" xmlns="http://www.w3.org/2000/svg" xmlns:xlink="http://www.w3.org/1999/xlink">
<defs>
<style type="text/css"><![CDATA[
.g0_142{
fill: none;
stroke: #000000;
stroke-width: 0.73;
stroke-linecap: butt;
stroke-linejoin: miter;
}
.g1_142{
fill: none;
stroke: #02B5EE;
stroke-width: 1.262;
stroke-linecap: butt;
stroke-linejoin: miter;
}
.g2_142{
fill: none;
stroke: #02B5EE;
stroke-width: 0.73;
stroke-linecap: butt;
stroke-linejoin: miter;
}
.g3_142{
fill: none;
stroke: #5EE200;
stroke-width: 1.262;
stroke-linecap: butt;
stroke-linejoin: miter;
}
.g4_142{
fill: none;
stroke: #5EE200;
stroke-width: 0.73;
stroke-linecap: butt;
stroke-linejoin: miter;
}
]]></style>
</defs>
<path d="M193,83.4h900.3M193,111.6h838.2m-838.2,0h838.2m-381,29.6V112m0,58.5V141.2m0,58.5V170.5m0,114.2v-85" class="g0_142"/>
<path d="M821.1,260.7h84.6" class="g1_142"/>
<path d="M650.2,313.9V284.7m0,102.3V313.9" class="g0_142"/>
<path d="M952.7,373.1h67.6" class="g2_142"/>
<path d="M650.2,416.2V387m0,58.4V416.2m0,114.3V445.4" class="g0_142"/>
<path d="M873.6,506.5h61.5" class="g1_142"/>
<path d="M945.6,506.5h74.7" class="g3_142"/>
<path d="M650.2,560.6V530.5m0,103.2V560.6" class="g0_142"/>
<path d="M929.7,619.8h50.7" class="g4_142"/>
<path d="M986.5,619.8h33.8" class="g2_142"/>
<path d="M650.2,662.9V633.7m0,60.5V662.9m0,60.6V694.2m0,58.5V723.5M193,753.1h838.2m-838.2,0h838.2" class="g0_142"/>
</svg>