<?xml version="1.0" encoding="UTF-8" standalone="no"?>
<!DOCTYPE svg PUBLIC "-//W3C//DTD SVG 1.1//EN"
"http://www.w3.org/Graphics/SVG/1.1/DTD/svg11.dtd">
<svg viewBox="0 0 1286 909" version="1.1" xmlns="http://www.w3.org/2000/svg" xmlns:xlink="http://www.w3.org/1999/xlink">
<defs>
<style type="text/css"><![CDATA[
.g0_721{
fill: none;
stroke: #000000;
stroke-width: 0.73;
stroke-linecap: butt;
stroke-linejoin: miter;
}
.g1_721{
fill: #FFCCCC;
}
.g2_721{
fill: none;
stroke: #F81693;
stroke-width: 1.461;
stroke-linecap: butt;
stroke-linejoin: miter;
stroke-dasharray: 2,2;
}
.g3_721{
fill: none;
stroke: #F81693;
stroke-width: 0.73;
stroke-linecap: butt;
stroke-linejoin: miter;
}
.g4_721{
fill: none;
stroke: #02B5EE;
stroke-width: 1.262;
stroke-linecap: butt;
stroke-linejoin: miter;
}
.g5_721{
fill: none;
stroke: #FFA313;
stroke-width: 1.262;
stroke-linecap: butt;
stroke-linejoin: miter;
}
.g6_721{
fill: none;
stroke: #FFA313;
stroke-width: 0.73;
stroke-linecap: butt;
stroke-linejoin: miter;
}
.g7_721{
fill: none;
stroke: #02B5EE;
stroke-width: 0.73;
stroke-linecap: butt;
stroke-linejoin: miter;
}
]]></style>
</defs>
<path d="M193,83.4h900.3M193,210.6H751.9m-558.9,0H751.9M408.4,240.2V211m0,58.5V240.2m0,63.2V269.5" class="g0_721"/>
<path d="M520.6,303.4h77.7V270.5H520.6v32.9Z" class="g1_721"/>
<path d="M612.5,297h27.3" class="g2_721"/>
<path d="M657.6,297c.6,0,1,-1,1.6,-1c.5,0,.9,.5,1.3,1c.4,.5,.8,1,1.3,1c.5,0,.9,-.5,1.3,-1c.4,-.5,.8,-1,1.3,-1c.5,0,.9,.5,1.3,1c.4,.5,.8,1,1.3,1c.5,0,.9,-.5,1.3,-1c.4,-.5,.8,-1,1.3,-1c.5,0,.9,.5,1.3,1c.4,.5,.8,1,1.3,1c.5,0,.9,-.5,1.3,-1c.4,-.5,.8,-1,1.3,-1c.5,0,.9,.5,1.3,1c.4,.5,.8,1,1.3,1c.5,0,.9,-.5,1.3,-1c.4,-.5,.8,-1,1.3,-1c.5,0,.9,.5,1.3,1c.4,.5,.8,1,1.3,1c.5,0,.9,-.5,1.3,-1c.4,-.5,.8,-1,1.3,-1c.5,0,.9,.5,1.3,1c.4,.5,.8,1,1.3,1c.5,0,.9,-.5,1.3,-1c.4,-.5,.8,-1,1.3,-1c.5,0,.9,.5,1.3,1c.4,.5,.8,1,1.3,1c.5,0,.9,-.5,1.3,-1c.4,-.5,.8,-1,1.3,-1c.5,0,.9,.5,1.3,1c.4,.5,.8,1,1.3,1c.5,0,.9,-.5,1.3,-1c.4,-.5,.8,-1,1.3,-1c.5,0,.9,.5,1.3,1c.4,.5,.8,1,1.3,1c.5,0,.9,-.5,1.3,-1c.4,-.5,.8,-1,1.3,-1c.5,0,.9,.5,1.3,1c.4,.5,.8,1,1.3,1c.5,0,.9,-.5,1.3,-1c.4,-.5,.8,-1,1.3,-1c.4,0,.9,.5,1.3,1c.4,.5,.8,1,1.3,1c.4,0,.9,-.5,1.3,-1c.4,-.5,.8,-1,1.3,-1c.4,0,.9,.5,1.3,1c.4,.5,.8,1,1.3,1c.4,0,.9,-.5,1.3,-1c.4,-.5,.8,-1,1.3,-1c.4,0,.9,.5,1.3,1c.4,.5,.8,1,1.3,1c.4,0,.9,-.5,1.3,-1c.4,-.5,.8,-1,1.3,-1c.4,0,.9,.5,1.3,1c.4,.5,.8,1,1.3,1c.4,0,.8,-.5,1.3,-1c.4,-.5,.8,-1,1.3,-1c.4,0,.8,.5,1.3,1c.4,.5,.8,1,1.3,1c.6,0,.9,-1,1.6,-1h1" class="g3_721"/>
<path d="M408.4,333.6V303.4m0,63V333.6" class="g0_721"/>
<path d="M586.2,362.1c.6,0,.9,-1.1,1.6,-1.1c.5,0,.9,.6,1.3,1.1c.4,.5,.8,1,1.3,1c.5,0,.9,-.5,1.3,-1c.4,-.5,.8,-1.1,1.3,-1.1c.5,0,.9,.6,1.3,1.1c.4,.5,.8,1,1.3,1c.5,0,.9,-.5,1.3,-1c.4,-.5,.8,-1.1,1.3,-1.1c.5,0,.9,.6,1.3,1.1c.4,.5,.8,1,1.3,1c.5,0,.9,-.5,1.3,-1c.4,-.5,.8,-1.1,1.3,-1.1c.5,0,.9,.6,1.3,1.1c.4,.5,.8,1,1.3,1c.5,0,.9,-.5,1.3,-1c.4,-.5,.8,-1.1,1.3,-1.1c.5,0,.9,.6,1.3,1.1c.4,.5,.8,1,1.3,1c.5,0,.9,-.5,1.3,-1c.4,-.5,.8,-1.1,1.3,-1.1c.4,0,.9,.6,1.3,1.1c.4,.5,.8,1,1.3,1c.6,0,.9,-1,1.6,-1h.1" class="g3_721"/>
<path d="M625.4,362.1h32" class="g2_721"/>
<path d="M667.1,366.4h73.8V333.6H667.1v32.8Z" class="g1_721"/>
<path d="M408.4,395.7V366.4m0,58.5V395.7m0,114.2v-85" class="g0_721"/>
<path d="M439,485.9h34.6" class="g4_721"/>
<path d="M484.1,485.9H740.9" class="g5_721"/>
<path d="M408.4,540.1V509.9m0,103.2v-73" class="g0_721"/>
<path d="M419.3,599.3H622.7" class="g6_721"/>
<path d="M707.1,599.3h33.8" class="g7_721"/>
<path d="M408.4,642.4V613.1M193,642.7H751.9m-558.9,0H751.9" class="g0_721"/>
</svg>