<?xml version="1.0" encoding="UTF-8" standalone="no"?>
<!DOCTYPE svg PUBLIC "-//W3C//DTD SVG 1.1//EN"
"http://www.w3.org/Graphics/SVG/1.1/DTD/svg11.dtd">
<svg viewBox="0 0 909 1286" version="1.1" xmlns="http://www.w3.org/2000/svg" xmlns:xlink="http://www.w3.org/1999/xlink">
<defs>
<clipPath id="c0_27"><path d="M123.1,218.7V187h29.1v31.7Z"/></clipPath>
<clipPath id="c1_27"><path d="M122.1,219.2V186.5H153v32.7Z"/></clipPath>
<style type="text/css"><![CDATA[
.g0_27{
fill: #FFFFFF;
}
.g1_27{
}
.g2_27{
fill: none;
stroke: #000000;
stroke-width: 0.459;
stroke-linecap: butt;
stroke-linejoin: round;
}
.g3_27{
fill: none;
stroke: #000000;
stroke-width: 0.722;
stroke-linecap: round;
stroke-linejoin: miter;
}
.g4_27{
fill: none;
stroke: #000000;
stroke-width: 0.722;
stroke-linecap: round;
stroke-linejoin: round;
}
.g5_27{
fill: #D40000;
}
.g6_27{
fill: none;
stroke: #000000;
stroke-width: 0.578;
stroke-linecap: round;
stroke-linejoin: miter;
}
.g7_27{
fill: #E9C6AF;
}
.g8_27{
fill: none;
stroke: #695000;
stroke-width: 0.152;
stroke-linecap: round;
stroke-linejoin: round;
}
.g9_27{
fill: none;
stroke: #000000;
stroke-width: 1.461;
stroke-linecap: butt;
stroke-linejoin: miter;
}
.ga_27{
fill: none;
stroke: #000000;
stroke-width: 0.73;
stroke-linecap: butt;
stroke-linejoin: miter;
}
.gb_27{
fill: none;
stroke: #000000;
stroke-width: 2.739;
stroke-linecap: butt;
stroke-linejoin: miter;
}
]]></style>
</defs>
<path d="M117.7,318.3v-138H791.8v138Z" class="g0_27"/>
<path d="M117.7,318.3v-138H791.8v138Z" class="g9_27"/>
<g clip-path="url(#c1_27)">
<path clip-path="url(#c0_27)" d="M126.4,212.4c0,0,1.5,-.9,1.2,-1.3c-.1,-.1,-.3,-.1,-.6,0c-1.6,.3,-5,2.1,-3.3,4.1c1.4,1.6,6.4,2.4,11.7,1.4c7.3,-1.4,13.5,-5.5,11.1,-8.3c-1.6,-2,-6.7,-2.1,-10.8,-2.2c-2.1,0,-6.6,-.1,-8,-1.7c-.6,-.7,-.5,-1.6,.1,-2.2c1,-.9,3.8,-1.4,4,-1.5c.7,-.1,2.5,-.4,4.6,-.3c1.1,0,2.5,0,3.2,.9c.2,.3,.4,.6,.4,.7c0,0,0,.1,.1,.2c.1,.1,.4,.1,.5,.1c.5,-.1,1.5,-.5,2,-1.1c.3,-.2,.8,-.6,0,-1.5c-.9,-1.1,-2.3,-1.1,-4,-1.2c-2.3,0,-4.1,.4,-4.9,.5c-5.8,1.1,-11.1,4.6,-9,7c1.5,1.9,6.3,1.9,9,1.9c3.9,.1,8.4,.3,9.8,2c.6,.7,.9,1.9,-.4,2.9c-1.2,.9,-4,1.7,-5.8,2c-4.4,.9,-9.4,.2,-10.6,-1.2c0,-.1,-.5,-.6,-.3,-1.2Z" class="g1_27"/>
<path d="M131.5,214.8l-.2,-.2l.3,-4.6q.3,-5.6,.5,-5.9c.1,-.2,1.6,-2.3,3.3,-4.6c1.7,-2.4,4.3,-6.1,5.9,-8.3c1.5,-2.2,2.8,-3.9,2.9,-3.9c.4,0,.1,.4,-1.8,3.1c-1.2,1.6,-3.7,5.3,-5.7,8.1c-2,2.9,-3.6,5.2,-3.6,5.2c0,0,.5,.1,1,.2c2,.2,3.3,.6,4.5,1.2c.6,.3,1,.5,1.5,1.1c.8,.8,1.2,1.4,1.4,2.2c.1,.3,.1,.5,.2,.5c.1,0,.7,-.8,5.2,-7.6c2.4,-3.7,4.5,-6.7,4.6,-6.8c.2,-.3,.4,-.1,.2,.2c0,.1,-1.5,2.4,-3.2,5c-1.8,2.7,-3.8,5.7,-4.5,6.8c-1.5,2.4,-2.1,3.3,-2.3,3.8c-.2,.3,-.3,.4,-.9,.7c-.8,.4,-8.7,3.9,-8.9,4c-.1,0,-.3,-.1,-.4,-.2Z" class="g1_27"/>
<path d="M135.2,212.8c2.2,-.9,4,-1.7,4.6,-2q.7,-.4,.7,-1.4c-.2,-1.7,-1.4,-3.1,-3.6,-3.8c-1.2,-.4,-4.3,-.8,-4.4,-.6c0,0,-.1,1.5,-.2,3.1c-.1,1.7,-.2,3.3,-.2,3.6c-.1,1.2,.1,1.5,-.2,2.6c.1,.1,1.8,-.8,1.8,-.8c.1,0,.7,-.3,1.5,-.7Z" class="g1_27"/>
<path d="M131.5,214.8l-.2,-.2l.3,-4.6q.3,-5.6,.5,-5.9c.1,-.2,1.6,-2.3,3.3,-4.6c1.7,-2.4,4.3,-6.1,5.9,-8.3c1.5,-2.2,2.8,-3.9,2.9,-3.9c.4,0,.1,.4,-1.8,3.1c-1.2,1.6,-3.7,5.3,-5.7,8.1c-2,2.9,-3.6,5.2,-3.6,5.2c0,0,.5,.1,1,.2c2,.2,3.3,.6,4.5,1.2c.6,.3,1,.5,1.5,1.1c.8,.8,1.2,1.4,1.4,2.2c.1,.3,.1,.5,.2,.5c.1,0,.7,-.8,5.2,-7.6c2.4,-3.7,4.5,-6.7,4.6,-6.8c.2,-.3,.4,-.1,.2,.2c0,.1,-1.5,2.4,-3.2,5c-1.8,2.7,-3.8,5.7,-4.5,6.8c-1.5,2.4,-2.1,3.3,-2.3,3.8c-.2,.3,-.3,.4,-.9,.7c-.8,.4,-8.7,3.9,-8.9,4c-.1,0,-.3,-.1,-.4,-.2Zm3.7,-2c2.2,-.9,4,-1.7,4.6,-2q.7,-.4,.7,-1.4c-.2,-1.7,-1.4,-3.1,-3.6,-3.8c-1.2,-.4,-4.3,-.8,-4.4,-.6c0,0,-.1,1.5,-.2,3.1c-.1,1.7,-.2,3.3,-.2,3.6c-.1,1.2,.1,1.5,-.2,2.6c.1,.1,1.8,-.8,1.8,-.8c.1,0,.7,-.3,1.5,-.7Z" class="g2_27"/>
<path d="M135.3,204.2l11.2,-16m-8.2,17.2L149,189.6" class="g3_27"/>
<path d="M140.4,207.1l10,-14.5l.2,-.3" class="g4_27"/>
<path d="M134.1,203.8c-.4,0,-.8,-.1,-.9,-.1c0,0,2.5,-3.7,6.7,-9.6c1.9,-2.7,3.6,-5.2,3.8,-5.5c.2,-.4,.4,-.7,.5,-.7c.1,0,.7,.5,.9,.7c.1,.4,.1,.6,-.1,1.1c-.2,.5,-9.8,14.3,-9.9,14.3c-.1,0,-.5,-.1,-1,-.2Z" class="g5_27"/>
<path d="M137.6,204.6c-.2,-.1,-.8,-.3,-1.2,-.4l-.7,-.1l.3,-.4c.1,-.2,2.3,-3.3,4.8,-7l4.7,-6.7l.5,-.2c.9,-.5,1.6,-.5,2.1,0l.3,.3l-5,7.4c-3.1,4.4,-5.1,7.3,-5.1,7.3c-.1,0,-.4,-.1,-.7,-.2Z" class="g5_27"/>
<path d="M140,206c-.2,-.2,-.6,-.5,-.8,-.6c-.2,-.1,-.3,-.3,-.3,-.3c0,-.1,9.4,-14,9.8,-14.6c.1,-.1,.5,.3,.8,.7c.3,.4,.3,.6,.4,1.1c0,.3,0,.6,-.1,.7c-.2,.3,-9.1,13.1,-9.2,13.3c-.2,.2,-.2,.1,-.6,-.3Z" class="g5_27"/>
<path d="M141.6,208.7c0,-.1,-.1,-.3,-.1,-.6c-.1,-.2,-.3,-.6,-.4,-.8l-.3,-.4l4.7,-6.8c2.6,-3.7,4.8,-6.8,4.8,-6.8c.4,0,1,.7,1,1.1c0,.2,-.6,1.2,-1.9,3.1c-1.1,1.6,-3.1,4.7,-4.6,6.8c-3,4.4,-3.1,4.6,-3.2,4.4Z" class="g5_27"/>
<path d="M131.9,210.2c2.3,-.1,3.6,.7,4.1,2.3" class="g6_27"/>
<path d="M132,214.1c0,-.4,.1,-.4,.1,-1.3c0,-.8,0,-1,0,-1.4c0,-.2,0,-.6,0,-.7l.1,-.2c.1,0,.6,0,.7,0c.4,0,.8,.1,1.1,.2c.2,.1,.4,.2,.6,.3c.2,.2,.3,.2,.4,.4c.3,.2,.4,.4,.6,.7c0,.2,.1,.5,.1,.5c0,0,-1.5,.7,-1.8,.8c-.1,0,-.2,.1,-.3,.1c-1.1,.6,-1.4,.7,-1.6,.8Z" class="g1_27"/>
<path d="M136.2,212c-.6,-1.2,-1.8,-2,-3.4,-2.1l-.6,-.1v-.4c.1,-.3,.1,-1.3,.2,-2.2c0,-1,.1,-1.8,.1,-2l.1,-.2h.7c.8,.1,2.3,.3,3.1,.5c1.7,.5,3.1,1.4,3.6,2.5c.4,.8,.6,2.1,.3,2.4c-.1,.2,-.8,.5,-2.5,1.3c-1.6,.7,-1.5,.7,-1.6,.3Z" class="g7_27"/>
<path d="M136.2,212c-.6,-1.2,-1.8,-2,-3.4,-2.1l-.6,-.1v-.4c.1,-.3,.1,-1.3,.2,-2.2c0,-1,.1,-1.8,.1,-2l.1,-.2h.7c.8,.1,2.3,.3,3.1,.5c1.7,.5,3.1,1.4,3.6,2.5c.4,.8,.6,2.1,.3,2.4c-.1,.2,-.8,.5,-2.5,1.3c-1.6,.7,-1.5,.7,-1.6,.3Z" class="g8_27"/>
</g>
<path d="M152.7,212.2H360.8" class="ga_27"/>
<path d="M137.6,219.7v89.1" class="gb_27"/>
<path d="M184.9,386.4V348.2M308.2,356h85.3m-85,28.1V356m84.6,28.1V356m-84.9,28.1h85.3M450.7,356h85.4m-85,28.1V356m84.6,28.1V356m-85,28.1h85.4m-351.2,32V386.4m0,62.4V416.1m281.7,2.3H552m-85,28.1V418.4m84.6,28.1V418.4m-85,28.1H552m33.6,-28.1h85.3m-85,28.1V418.4m84.7,28.1V418.4m-85,28.1h85.3m-486,31.6V448.8m0,102.3v-73m0,113.3V551.1m0,113.9V591.4m132.9,2.3h85.3m-84.9,28.1V593.7m84.6,28.1V593.7m-85,28.1h85.3m33.6,-28.1h85.4m-85,28.1V593.7m84.6,28.1V593.7m-85,28.1h85.4m57.2,-28.1h85.4m-85,28.1V593.7m84.6,28.1V593.7m-85,28.1h85.4M184.9,748.5V665m0,155V748.5m0,99.1V820m0,73.3V847.6m0,74.9V893.3m0,58.4V922.5m0,58.4V951.7m0,53V980.9" class="ga_27"/>
</svg>