<?xml version="1.0" encoding="UTF-8" standalone="no"?>
<!DOCTYPE svg PUBLIC "-//W3C//DTD SVG 1.1//EN"
"http://www.w3.org/Graphics/SVG/1.1/DTD/svg11.dtd">
<svg viewBox="0 0 909 1286" version="1.1" xmlns="http://www.w3.org/2000/svg" xmlns:xlink="http://www.w3.org/1999/xlink">
<defs>
<style type="text/css"><![CDATA[
.g0_24{
fill: none;
stroke: #000000;
stroke-width: 0.73;
stroke-linecap: butt;
stroke-linejoin: miter;
}
.g1_24{
fill: none;
stroke: #7F7F7F;
stroke-width: 1.461;
stroke-linecap: butt;
stroke-linejoin: miter;
}
.g2_24{
fill: none;
stroke: #8007AC;
stroke-width: 1.461;
stroke-linecap: butt;
stroke-linejoin: miter;
}
.g3_24{
fill: none;
stroke: #000000;
stroke-width: 1.461;
stroke-linecap: butt;
stroke-linejoin: miter;
}
.g4_24{
fill: none;
stroke: #5EE200;
stroke-width: 0.73;
stroke-linecap: butt;
stroke-linejoin: miter;
}
.g5_24{
fill: #5EE200;
}
.g6_24{
fill: none;
stroke: #F81693;
stroke-width: 1.461;
stroke-linecap: butt;
stroke-linejoin: miter;
}
.g7_24{
fill: none;
stroke: #000000;
stroke-width: 9.132;
stroke-linecap: butt;
stroke-linejoin: miter;
}
.g8_24{
fill: none;
stroke: #8007AC;
stroke-width: 0.73;
stroke-linecap: butt;
stroke-linejoin: miter;
}
.g9_24{
fill: none;
stroke: #02B5EE;
stroke-width: 0.73;
stroke-linecap: butt;
stroke-linejoin: miter;
}
.ga_24{
fill: none;
stroke: #F81693;
stroke-width: 0.73;
stroke-linecap: butt;
stroke-linejoin: miter;
}
.gb_24{
fill: none;
stroke: #7F7F7F;
stroke-width: 0.73;
stroke-linecap: butt;
stroke-linejoin: miter;
}
]]></style>
</defs>
<path d="M116.9,261.9H783.4M117.3,504.6V262.3" class="g0_24"/>
<path d="M186.6,360.3c1.4,0,2.1,-2.7,3.4,-2.7c1,0,1.9,1.3,2.8,2.7c.9,1.4,1.7,2.8,2.7,2.8c1,0,1.9,-1.4,2.7,-2.8c.9,-1.4,1.8,-2.7,2.8,-2.7c1,0,1.8,1.3,2.7,2.7c.9,1.4,1.8,2.8,2.8,2.8c1,0,1.8,-1.4,2.7,-2.8c.9,-1.4,1.8,-2.7,2.7,-2.7c1,0,1.9,1.3,2.8,2.7c.9,1.4,1.7,2.8,2.7,2.8c1,0,1.9,-1.4,2.8,-2.8c.9,-1.4,1.7,-2.7,2.7,-2.7c1,0,1.9,1.3,2.7,2.7c.9,1.4,1.8,2.8,2.8,2.8c1,0,1.8,-1.4,2.7,-2.8c.9,-1.4,1.8,-2.7,2.8,-2.7c1,0,1.8,1.3,2.7,2.7c.9,1.4,1.8,2.8,2.7,2.8c1,0,1.9,-1.4,2.8,-2.8c.9,-1.4,1.7,-2.7,2.7,-2.7c1,0,1.9,1.3,2.8,2.7c.9,1.4,1.7,2.8,2.7,2.8c1,0,1.8,-1.4,2.7,-2.8c.9,-1.4,1.8,-2.7,2.8,-2.7c1,0,1.8,1.3,2.7,2.7c.9,1.4,1.8,2.8,2.8,2.8c1,0,1.8,-1.4,2.7,-2.8c.9,-1.4,1.7,-2.7,2.7,-2.7c1,0,1.9,1.3,2.8,2.7c.9,1.4,1.7,2.8,2.7,2.8c1,0,1.9,-1.4,2.8,-2.8c.9,-1.4,1.7,-2.7,2.7,-2.7c1,0,1.8,1.3,2.7,2.7c.9,1.4,1.8,2.8,2.8,2.8c1,0,1.8,-1.4,2.7,-2.8c.9,-1.4,1.8,-2.7,2.8,-2.7c1,0,1.8,1.3,2.7,2.7c.9,1.4,1.7,2.8,2.7,2.8c1,0,1.9,-1.4,2.8,-2.8c.9,-1.4,1.7,-2.7,2.7,-2.7c1,0,1.9,1.3,2.8,2.7c.9,1.4,1.7,2.8,2.7,2.8c1,0,1.8,-1.4,2.7,-2.8c.9,-1.4,1.8,-2.7,2.8,-2.7c1,0,1.8,1.3,2.7,2.7c.9,1.4,1.8,2.8,2.8,2.8c.9,0,1.8,-1.4,2.7,-2.8c.9,-1.4,1.7,-2.7,2.7,-2.7c1,0,1.9,1.3,2.8,2.7c.9,1.4,1.7,2.8,2.7,2.8c1,0,1.9,-1.4,2.8,-2.8c.8,-1.4,1.7,-2.7,2.7,-2.7c1,0,1.8,1.3,2.7,2.7c.9,1.4,1.8,2.8,2.8,2.8c1,0,1.8,-1.4,2.7,-2.8c.9,-1.4,1.8,-2.7,2.8,-2.7c.9,0,1.8,1.3,2.7,2.7c.9,1.4,1.7,2.8,2.7,2.8c1,0,1.9,-1.4,2.8,-2.8c.9,-1.4,1.7,-2.7,2.7,-2.7c1,0,1.9,1.3,2.8,2.7c.8,1.4,1.7,2.8,2.7,2.8c1,0,1.8,-1.4,2.7,-2.8c.9,-1.4,1.8,-2.7,2.8,-2.7c1.3,0,2,2.7,3.4,2.7h1.1" class="g1_24"/>
<path d="M276.3,325.5c1.7,-3.3,5.5,-5.5,11,-5.5h24.9c5.5,0,9.3,-2.1,10.9,-5.4c1.7,3.3,5.5,5.4,11,5.4H359c5.4,0,9.3,2.2,10.9,5.5" class="g2_24"/>
<path d="M353.5,441.8c-1.6,3.3,-5.5,5.5,-11,5.5H328c-5.5,0,-9.3,2.2,-11,5.5c-1.6,-3.3,-5.5,-5.5,-10.9,-5.5H291.5c-5.5,0,-9.3,-2.2,-11,-5.5" class="g3_24"/>
<path d="M364.6,426.1h9.2" class="g4_24"/>
<path d="M364.8,426.4h-.9v-.7h.9Z" class="g5_24"/>
<path d="M373.6,425.7h1v.7h-1Z" class="g5_24"/>
<path d="M535.1,441.8c-1.7,3.3,-5.5,5.5,-11,5.5H509.6c-5.5,0,-9.4,2.2,-11,5.5c-1.7,-3.3,-5.5,-5.5,-11,-5.5H473.1c-5.5,0,-9.3,-2.2,-11,-5.5" class="g3_24"/>
<path d="M543.8,442.6c1.4,0,2.1,-2.8,3.5,-2.8c.9,0,1.8,1.4,2.7,2.8c.9,1.4,1.7,2.7,2.7,2.7c1,0,1.9,-1.3,2.8,-2.7c.9,-1.4,1.7,-2.8,2.7,-2.8c1,0,1.9,1.4,2.8,2.8c.8,1.4,1.7,2.7,2.7,2.7c1,0,1.8,-1.3,2.7,-2.7c.9,-1.4,1.8,-2.8,2.8,-2.8c1,0,1.8,1.4,2.7,2.8c.9,1.4,1.8,2.7,2.8,2.7c.9,0,1.8,-1.3,2.7,-2.7c.9,-1.4,1.7,-2.8,2.7,-2.8c1,0,1.9,1.4,2.8,2.8c.9,1.4,1.7,2.7,2.7,2.7c1,0,1.9,-1.3,2.8,-2.7c.8,-1.4,1.7,-2.8,2.7,-2.8c1,0,1.8,1.4,2.7,2.8c.9,1.4,1.8,2.7,2.8,2.7c1,0,1.8,-1.3,2.7,-2.7c.9,-1.4,1.8,-2.8,2.7,-2.8c1,0,1.9,1.4,2.8,2.8c.9,1.4,1.7,2.7,2.7,2.7c1,0,1.9,-1.3,2.8,-2.7c.9,-1.4,1.7,-2.8,2.7,-2.8c1,0,1.9,1.4,2.7,2.8c.9,1.4,1.8,2.7,2.8,2.7c1.4,0,2,-2.7,3.4,-2.7h.2" class="g6_24"/>
<path d="M783,504.6V262.3M116.9,505H783.4" class="g0_24"/>
<path d="M126.1,509.9H792.5m-4.6,4.6V270.7" class="g7_24"/>
<path d="M116.9,545.9H755.5M343.8,575.5V546.2M244.3,591l24.8,14.8m0,36.7V606m-62.5,36.5V606m24.9,-15l-24.9,14.8M175.4,587.2l31.2,18.6m-31.2,55.5l31.2,-18.6m-31.2,18.6L150.5,646.5m-6.3,-11.3V606m31.2,-18.8l-31.2,18.6M300.3,587.2l31.3,18.6m0,36.7V606m-31.3,55.3l31.3,-18.6m-31.3,18.6L269.1,642.7m31.2,-55.5l-31.2,18.6m32.3,-11l23,13.7m-23,45.2l23,-13.7m-49.3,-2.2V610.7m68.7,55.7V575.5" class="g0_24"/>
<path d="M511.3,591l24.9,14.8" class="g8_24"/>
<path d="M536.2,642.5V606" class="g9_24"/>
<path d="M473.7,642.5V615.1" class="ga_24"/>
<path d="M498.6,591l-18.3,11" class="gb_24"/>
<path d="M448.9,591l18.2,11m-24.6,59.3l31.2,-18.6m-31.2,18.6L417.6,646.5m-6.4,-11.3V615.1M436.1,591l-18.3,11" class="ga_24"/>
<path d="M567.4,587.2l31.2,18.6m0,36.7V606m-31.2,55.3l31.2,-18.6m-31.2,18.6L536.2,642.7m31.2,-55.5l-31.2,18.6m32.3,-11l23,13.7m-23,45.2l23,-13.7m-49.3,-2.2V610.7" class="g9_24"/>
<path d="M343.8,695.7V666.4m0,58.5V695.7" class="g0_24"/>
<path d="M409.7,723.4c1.4,0,2.1,-2.7,3.4,-2.7c1,0,1.9,1.3,2.8,2.7c.9,1.4,1.7,2.8,2.7,2.8c1,0,1.9,-1.4,2.7,-2.8c.9,-1.4,1.8,-2.7,2.8,-2.7c1.4,0,2,2.7,3.4,2.7h3.9" class="g6_24"/>
<path d="M343.8,754.1V724.9M116.9,754.5H755.5M343.8,784.1V754.8M167.4,800.1l24.8,14.8M154.6,800.1l-24.9,14.8m93.7,-18.6l31.3,18.6M223.4,796.3l-31.2,18.6m151.6,14.5V784.1" class="g0_24"/>
<path d="M421.7,800.1l-24.9,14.8" class="g9_24"/>
<path d="M435.4,800.7l18.2,10.9m31.3,-18.8l31.2,18.7M484.9,792.8l-31.3,18.7" class="g4_24"/>
<path d="M343.8,858.6V829.4m0,58.4V858.6m0,58.4V887.8M116.9,917.4H755.5" class="g0_24"/>
</svg>