<?xml version="1.0" encoding="UTF-8" standalone="no"?>
<!DOCTYPE svg PUBLIC "-//W3C//DTD SVG 1.1//EN"
"http://www.w3.org/Graphics/SVG/1.1/DTD/svg11.dtd">
<svg viewBox="0 0 909 1286" version="1.1" xmlns="http://www.w3.org/2000/svg" xmlns:xlink="http://www.w3.org/1999/xlink">
<defs>
<clipPath id="c0_121"><path d="M119.5,288.6V255.1H446.9v33.5Z"/></clipPath>
<clipPath id="c1_121"><path d="M462.5,288.6V255.1H789.9v33.5Z"/></clipPath>
<style type="text/css"><![CDATA[
.g0_121{
fill: none;
stroke: #000000;
stroke-width: 0.73;
stroke-linecap: butt;
stroke-linejoin: miter;
}
.g1_121{
fill: #7F7F7F;
fill-opacity: 0.01;
}
.g2_121{
fill: #7F7F7F;
fill-opacity: 0.02;
}
.g3_121{
fill: #7F7F7F;
fill-opacity: 0.04;
}
.g4_121{
fill: #7F7F7F;
fill-opacity: 0.07;
}
.g5_121{
fill: #7F7F7F;
fill-opacity: 0.11;
}
.g6_121{
fill: #FFFFFF;
}
.g7_121{
fill: #7F7F7F;
}
.g8_121{
fill: #00AEEF;
}
.g9_121{
fill: #CBCEFB;
}
.ga_121{
fill: #EC008C;
}
.gb_121{
fill: #FFFEF5;
}
.gc_121{
fill: none;
stroke: #D6C944;
stroke-width: 0.365;
stroke-linecap: butt;
stroke-linejoin: miter;
}
]]></style>
</defs>
<path d="M116.9,159.9H792.5" class="g0_121"/>
<path d="M122.2,257.8c107.4,0,214.7,0,322,0V754.7c-107.3,-9.4,-214.6,-9.4,-322,0Z" class="g1_121"/>
<path d="M122.9,258.4c106.9,0,213.8,0,320.7,0V754c-106.9,-9.3,-213.8,-9.3,-320.7,0Z" class="g2_121"/>
<path d="M123.5,259.1c106.5,0,213,0,319.5,0V753.4c-106.5,-9.3,-213,-9.3,-319.5,0Z" class="g3_121"/>
<path d="M124.1,259.7c106.1,0,212.2,0,318.3,0V752.8c-106.1,-9.4,-212.2,-9.4,-318.3,0Z" class="g4_121"/>
<path d="M124.7,260.3c105.7,0,211.4,0,317,0V752.2c-105.6,-9.4,-211.3,-9.4,-317,0Z" class="g5_121"/>
<path d="M125.4,260.9c105.2,0,210.5,0,315.7,0V751.6c-105.2,-9.4,-210.5,-9.4,-315.7,0Z" class="g5_121"/>
<path d="M126,261.5c104.8,0,209.7,0,314.5,0V750.9c-104.8,-9.3,-209.7,-9.3,-314.5,0Z" class="g4_121"/>
<path d="M126.6,262.2c104.4,0,208.8,0,313.3,0V750.3c-104.5,-9.4,-208.9,-9.4,-313.3,0Z" class="g3_121"/>
<path d="M127.2,262.8c104,0,208,0,312,0V749.7c-104,-9.4,-208,-9.4,-312,0Z" class="g2_121"/>
<path d="M127.9,263.4c103.5,0,207.1,0,310.7,0V749.1c-103.6,-9.4,-207.2,-9.4,-310.7,0Z" class="g1_121"/>
<path d="M116.9,744.4V252.5H449.5V744.4Z" class="g6_121"/>
<path d="M119.5,741.8V291.2H446.9V741.8Z" class="g6_121"/>
<path d="M119.5,288.6V255.1H446.9v33.5Z" class="g7_121"/>
<g clip-path="url(#c0_121)">
<image x="119" y="254" width="329" height="34" xlink:href="shade/1.png"/>
</g>
<path d="M316.9,283.4h104V260.3h-104v23.1Z" class="g8_121"/>
<path d="M145.5,336.4H423.3M145.9,366V336.8" class="g0_121"/>
<path d="M146.3,366H252.6V336.8H146.3V366Z" class="g9_121"/>
<path d="M253,366V336.8" class="g0_121"/>
<path d="M253.3,366h89.1V336.8H253.3V366Z" class="g9_121"/>
<path d="M342.7,366V336.8" class="g0_121"/>
<path d="M343.1,366h79.4V336.8H343.1V366Z" class="g9_121"/>
<path d="M422.9,366V336.8M145.5,366.4H423.3M145.9,396V366.7M253,396V366.7M342.7,396V366.7M422.9,396V366.7M145.5,396.3H423.3M145.9,425.9V396.7M253,425.9V396.7m89.7,29.2V396.7m80.2,29.2V396.7M145.5,426.3H423.3M145.9,455.9V426.6M253,455.9V426.6m89.7,29.3V426.6m80.2,29.3V426.6M145.5,456.2H423.3M145.9,485.8V456.6M253,485.8V456.6m89.7,29.2V456.6m80.2,29.2V456.6M145.5,486.2H423.3M145.9,515.8V486.6M253,515.8V486.6m89.7,29.2V486.6m80.2,29.2V486.6M145.5,516.1H423.3M145.9,545.7V516.5M253,545.7V516.5m89.7,29.2V516.5m80.2,29.2V516.5M145.5,546.1H423.3M145.9,575.7V546.5M253,575.7V546.5m89.7,29.2V546.5m80.2,29.2V546.5M145.5,576H423.3M145.9,605.6V576.4M253,605.6V576.4m89.7,29.2V576.4m80.2,29.2V576.4M145.5,606H423.3M145.9,635.6V606.4M253,635.6V606.4m89.7,29.2V606.4m80.2,29.2V606.4M145.5,636H423.3M145.9,665.5V636.3M253,665.5V636.3m89.7,29.2V636.3m80.2,29.2V636.3M145.5,665.9H423.3M145.9,695.5V666.3M253,695.5V666.3m89.7,29.2V666.3m80.2,29.2V666.3M145.5,695.9H423.3M145.9,725.5V696.2M253,725.5V696.2m89.7,29.3V696.2m80.2,29.3V696.2M145.5,725.8H423.3" class="g0_121"/>
<path d="M465.2,257.8c107.4,0,214.7,0,322,0V442.3c-107.3,-9.3,-214.6,-9.3,-322,0Z" class="g1_121"/>
<path d="M465.8,258.4c107,0,213.9,0,320.8,0V441.7c-106.9,-9.3,-213.8,-9.3,-320.8,0Z" class="g2_121"/>
<path d="M466.5,259.1c106.5,0,213,0,319.5,0v182c-106.5,-9.4,-213,-9.4,-319.5,0Z" class="g3_121"/>
<path d="M467.1,259.7c106.1,0,212.2,0,318.2,0V440.5c-106,-9.4,-212.1,-9.4,-318.2,0Z" class="g4_121"/>
<path d="M467.7,260.3c105.7,0,211.3,0,317,0V439.8c-105.7,-9.3,-211.3,-9.3,-317,0Z" class="g5_121"/>
<path d="M468.3,260.9c105.3,0,210.5,0,315.8,0V439.2c-105.3,-9.3,-210.5,-9.3,-315.8,0Z" class="g5_121"/>
<path d="M469,261.6c104.8,0,209.6,0,314.5,0v177c-104.9,-9.4,-209.7,-9.4,-314.5,0Z" class="g4_121"/>
<path d="M469.6,262.2c104.4,0,208.8,0,313.2,0V438C678.4,428.6,574,428.6,469.6,438Z" class="g3_121"/>
<path d="M470.2,262.8c104,0,208,0,312,0V437.4c-104,-9.4,-208,-9.4,-312,0Z" class="g2_121"/>
<path d="M470.8,263.4c103.6,0,207.2,0,310.8,0V436.7c-103.6,-9.3,-207.2,-9.3,-310.8,0Z" class="g1_121"/>
<path d="M459.9,432.1V252.5H792.5V432.1Z" class="g6_121"/>
<path d="M462.5,429.5V291.2H789.9V429.5Z" class="g6_121"/>
<path d="M462.5,288.6V255.1H789.9v33.5Z" class="g7_121"/>
<g clip-path="url(#c1_121)">
<image x="462" y="254" width="329" height="34" xlink:href="shade/2.png"/>
</g>
<path d="M675.7,283.4h88.2V260.3H675.7v23.1Z" class="ga_121"/>
<path d="M581,323.6h90.5m-90.2,29.6V324" class="g0_121"/>
<path d="M581.7,353.2h89V324h-89v29.2Z" class="g9_121"/>
<path d="M671.1,353.2V324M581,353.6h90.5m-90.2,29.6V354m89.8,29.2V354M581,383.5h90.5m-90.2,29.6V383.9m89.8,29.2V383.9M581,413.5h90.5" class="g0_121"/>
<path d="M-2.9,968.4V902.9H912.4v65.5Z" class="g6_121"/>
<path d="M-.3,965.8V905.5H909.8v60.3Z" class="gb_121"/>
<path d="M-.3,957.5H909.8M-.3,931.5H909.8M-.3,905.5H909.8M-.3,965.8V905.5m25.9,60.3V905.5m26,60.3V905.5m26,60.3V905.5m26,60.3V905.5m26,60.3V905.5m25.9,60.3V905.5m26,60.3V905.5m26,60.3V905.5m26,60.3V905.5m26,60.3V905.5m26,60.3V905.5m25.9,60.3V905.5m26,60.3V905.5m26,60.3V905.5m26,60.3V905.5m26,60.3V905.5m26,60.3V905.5m26,60.3V905.5m25.9,60.3V905.5m26,60.3V905.5m26,60.3V905.5m26,60.3V905.5m26,60.3V905.5m26,60.3V905.5m25.9,60.3V905.5m26,60.3V905.5m26,60.3V905.5m26,60.3V905.5m26,60.3V905.5m26,60.3V905.5m25.9,60.3V905.5m26,60.3V905.5m26,60.3V905.5m26,60.3V905.5m26,60.3V905.5" class="gc_121"/>
</svg>