<?xml version="1.0" encoding="UTF-8" standalone="no"?>
<!DOCTYPE svg PUBLIC "-//W3C//DTD SVG 1.1//EN"
"http://www.w3.org/Graphics/SVG/1.1/DTD/svg11.dtd">
<svg viewBox="0 0 1286 909" version="1.1" xmlns="http://www.w3.org/2000/svg" xmlns:xlink="http://www.w3.org/1999/xlink">
<defs>
<style type="text/css"><![CDATA[
.g0_1257{
fill: none;
stroke: #000000;
stroke-width: 0.73;
stroke-linecap: butt;
stroke-linejoin: miter;
}
.g1_1257{
fill: none;
stroke: #02B5EE;
stroke-width: 1.262;
stroke-linecap: butt;
stroke-linejoin: miter;
}
.g2_1257{
fill: none;
stroke: #FFA313;
stroke-width: 1.262;
stroke-linecap: butt;
stroke-linejoin: miter;
}
.g3_1257{
fill: none;
stroke: #5EE200;
stroke-width: 1.262;
stroke-linecap: butt;
stroke-linejoin: miter;
}
]]></style>
</defs>
<path d="M193,83.4h900.3M193,111.6h819.9m-819.9,0h819.9M581,141.2V112m0,58.5V141.2m0,58.5V170.5m0,114.2v-85" class="g0_1257"/>
<path d="M664.5,260.7h34.7" class="g1_1257"/>
<path d="M709.7,260.7H838.4" class="g2_1257"/>
<path d="M581,313.9V284.7m0,58.5V313.9m0,114.3v-85" class="g0_1257"/>
<path d="M687.8,404.2h81" class="g1_1257"/>
<path d="M779.3,404.2h59.1" class="g3_1257"/>
<path d="M581,457.4V428.2m0,58.4V457.4m0,60.1V486.6m0,60.1V517.5m0,58.4V546.7m0,114.2v-85" class="g0_1257"/>
<path d="M646.5,637h81" class="g1_1257"/>
<path d="M738,637h84.1" class="g3_1257"/>
<path d="M581,690.2V660.9m0,58.5V690.2m0,58.4V719.4M193,749h819.9M193,749h819.9" class="g0_1257"/>
</svg>