<?xml version="1.0" encoding="UTF-8" standalone="no"?>
<!DOCTYPE svg PUBLIC "-//W3C//DTD SVG 1.1//EN"
"http://www.w3.org/Graphics/SVG/1.1/DTD/svg11.dtd">
<svg viewBox="0 0 909 1286" version="1.1" xmlns="http://www.w3.org/2000/svg" xmlns:xlink="http://www.w3.org/1999/xlink">
<defs>
<style type="text/css"><![CDATA[
.g0_14{
fill: none;
stroke: #000000;
stroke-width: 0.73;
stroke-linecap: butt;
stroke-linejoin: miter;
}
.g1_14{
fill: none;
stroke: #F81693;
stroke-width: 0.73;
stroke-linecap: butt;
stroke-linejoin: miter;
}
.g2_14{
fill: none;
stroke: #02B5EE;
stroke-width: 0.73;
stroke-linecap: butt;
stroke-linejoin: miter;
}
.g3_14{
fill: none;
stroke: #000000;
stroke-width: 0.632;
stroke-linecap: butt;
stroke-linejoin: miter;
}
]]></style>
</defs>
<path d="M116.9,179.9h710M316.5,209.5V180.3m-102,148.3h41.1m-41.1,3.6h41.1m0,-1.8l15,26m-15,-26l20.5,-35.6m0,0h27.4m-29,.9L254,260.1m23.7,33.8L257.2,258.3m-1.6,.9l15,-26m-15,26H214.5m1.6,.9l-20.6,35.6m17.4,-37.4l-20.5,35.6m22.1,36.5L193.9,294.8m0,0H167.6m26.3,0l20.6,35.6m102,44.7V209.5" class="g0_14"/>
<path d="M449.7,322.2h24.2m-24.2,3.6h24.2" class="g1_14"/>
<path d="M487.9,333.6l8.7,15.1" class="g2_14"/>
<path d="M487.9,314.5L497.4,298m13.9,-9.6h19m-34.5,-8.6l-9.5,-16.5M499,278l-9.5,-16.5" class="g1_14"/>
<path d="M487.9,243.3l8.7,-15.1" class="g2_14"/>
<path d="M473.9,252.8H449.7m-12.4,10.5l-9.5,16.5m6.4,-18.3L424.6,278m11.1,36.5L426.2,298" class="g1_14"/>
<path d="M412.3,288.4h-11" class="g2_14"/>
<path d="M426.2,298l15.1,26" class="g1_14"/>
<path d="M316.5,404.4V375.1m0,58.5V404.4m0,58.4V433.6m0,58.4V462.8m0,58.4V492m0,58.5V521.2m0,58.5V550.5M116.9,580.1h710M316.5,609.6V580.4" class="g0_14"/>
<path d="M278,697.7l-36.4,.5m-.1,.2L227.1,672.3m.6,-63.5l17.7,31.7m-18.3,31.8l18.2,-31.6M190.6,673l36.4,-.5m-36.4,.5L172.9,641.2m.1,-.1l18.2,-31.7m36.5,-.6l-36.4,.5m32.9,55.9l13.5,-23.4m-44.2,24L180.4,642.4m42.5,-27.5l-26.8,.3m45.4,83.2l-12.7,22.1m0,0l17.7,31.8m-18.4,31.8l18.3,-31.7m-54.7,32.4l36.3,-.6m-36.3,.6L173.9,753m.1,-.2l18.3,-31.6m36.5,-.7l-36.4,.5m32.9,55.9l13.5,-23.4m-44.2,24.1L181.5,754.2M224,726.6l-26.8,.4" class="g3_14"/>
<path d="M316.5,801.1V609.6" class="g0_14"/>
<path d="M506.5,700.6V682.3m0,-74.1l31.3,18.6m0,36.7V627m-31.3,55.3l31.3,-18.6m-31.3,18.6L475.3,663.7m0,-.2V627m31.2,-18.8l-31.2,18.6m56.4,32v-27m-26.3,42.9L482.4,661m23,-45.1l-23,13.7" class="g2_14"/>
<path d="M497.4,710.1H471.8" class="g1_14"/>
<path d="M506.5,718.9v18.2m0,0l31.3,18.7m0,36.7V756m-31.3,55.3l31.3,-18.6m-31.3,18.6L475.3,792.7m0,-.2V756m31.2,-18.9l-31.2,18.7m56.4,31.9v-27m-26.3,42.9l-23,-13.7m23,-45.1l-23,13.7" class="g2_14"/>
<path d="M516.4,710.1H542" class="g1_14"/>
<path d="M316.5,830.3V801.1m0,58.4V830.3m0,58.4V859.5m0,58.5V888.7m0,58.5V918m0,58.4V947.2m0,58.4V976.4M116.9,1006h710" class="g0_14"/>
</svg>