<?xml version="1.0" encoding="UTF-8" standalone="no"?>
<!DOCTYPE svg PUBLIC "-//W3C//DTD SVG 1.1//EN"
"http://www.w3.org/Graphics/SVG/1.1/DTD/svg11.dtd">
<svg viewBox="0 0 1286 909" version="1.1" xmlns="http://www.w3.org/2000/svg" xmlns:xlink="http://www.w3.org/1999/xlink">
<defs>
<style type="text/css"><![CDATA[
.g0_1214{
fill: none;
stroke: #000000;
stroke-width: 0.73;
stroke-linecap: butt;
stroke-linejoin: miter;
}
.g1_1214{
fill: none;
stroke: #000000;
stroke-width: 0.657;
stroke-linecap: butt;
stroke-linejoin: miter;
}
.g2_1214{
fill: #FDE8E9;
}
]]></style>
</defs>
<path d="M193,83.4h900.3" class="g0_1214"/>
<path d="M202.8,109.5h281m-281,26.6V109.8m107.3,26.3V109.8m173.7,26.3V109.8m-281,57.5V136.1m107.3,31.2V136.1" class="g1_1214"/>
<path d="M320,167.3H435.1V136.1H320v31.2Z" class="g2_1214"/>
<path d="M483.8,167.3V136.1m-281,57.5V167.3m107.3,26.3V167.3m173.7,26.3V167.3m-281,52.6V193.6m107.3,26.3V193.6m173.7,26.3V193.6m-281,55.7V219.9m107.3,29.4V219.9" class="g1_1214"/>
<path d="M320,246.3h98.9V219.9H320v26.4Z" class="g2_1214"/>
<path d="M483.8,249.3V219.9m-281,55.7V249.3m107.3,26.3V249.3m173.7,26.3V249.3m-281,52.6V275.6m107.3,26.3V275.6m173.7,26.3V275.6M202.8,333V301.9M310.1,333V301.9" class="g1_1214"/>
<path d="M320,333H473.9V301.9H320V333Z" class="g2_1214"/>
<path d="M483.8,333V301.9m-281,57.4V333m107.3,26.3V333m173.7,26.3V333m-281,52.6V359.3m107.3,26.3V359.3m173.7,26.3V359.3m-281,53.5V385.6m107.3,27.2V385.6" class="g1_1214"/>
<path d="M320,409.8h82.9v-21H320v21Z" class="g2_1214"/>
<path d="M483.8,412.8V385.6m-281,53.5V412.8m107.3,26.3V412.8m173.7,26.3V412.8m-281,52.6V439.1m107.3,26.3V439.1m173.7,26.3V439.1m-281,55.7V465.4m107.3,29.4V465.4" class="g1_1214"/>
<path d="M320,491.8h86.5V465.4H320v26.4Z" class="g2_1214"/>
<path d="M483.8,494.8V465.4m-281,55.7V494.8m107.3,26.3V494.8m173.7,26.3V494.8m-281,52.6V521.1m107.3,26.3V521.1m173.7,26.3V521.1m-281,55.6V547.4m107.3,29.3V547.4" class="g1_1214"/>
<path d="M320,573.8h76.9V547.4H320v26.4Z" class="g2_1214"/>
<path d="M483.8,576.7V547.4M202.8,603V576.7M310.1,603V576.7M483.8,603V576.7m-281,52.6V603m107.3,26.3V603m173.7,26.3V603m-281,55.7V629.3m107.3,29.4V629.3" class="g1_1214"/>
<path d="M320,655.8h70.3V629.3H320v26.5Z" class="g2_1214"/>
<path d="M483.8,658.7V629.3M202.8,685V658.7M310.1,685V658.7M483.8,685V658.7m-281,52.6V685m107.3,26.3V685m173.7,26.3V685m-281,57.5V711.3m107.3,31.2V711.3" class="g1_1214"/>
<path d="M320,742.5h88V711.3H320v31.2Z" class="g2_1214"/>
<path d="M483.8,742.5V711.3m-281,57.5V742.5m107.3,26.3V742.5m173.7,26.3V742.5m-281,26.6h281M503.5,111.5H763.9M503.5,138.1V111.8m85.4,26.3V111.8m175,26.3V111.8M503.5,167.5V138.1m85.4,29.4V138.1" class="g1_1214"/>
<path d="M598.8,164.5H674V138.1H598.8v26.4Z" class="g2_1214"/>
<path d="M763.9,167.5V138.1M503.5,193.8V167.5m85.4,26.3V167.5m175,26.3V167.5M503.5,220.1V193.8m85.4,26.3V193.8m175,26.3V193.8M503.5,249.5V220.1m85.4,29.4V220.1" class="g1_1214"/>
<path d="M598.8,246.5h67.7V220.1H598.8v26.4Z" class="g2_1214"/>
<path d="M763.9,249.5V220.1M503.5,275.8V249.5m85.4,26.3V249.5m175,26.3V249.5M503.5,302.1V275.8m85.4,26.3V275.8m175,26.3V275.8M503.5,331.5V302.1m85.4,29.4V302.1" class="g1_1214"/>
<path d="M598.8,328.5h65.4V302.1H598.8v26.4Z" class="g2_1214"/>
<path d="M763.9,331.5V302.1M503.5,357.8V331.5m85.4,26.3V331.5m175,26.3V331.5M503.5,384.1V357.8m85.4,26.3V357.8m175,26.3V357.8M503.5,413.4V384.1m85.4,29.3V384.1" class="g1_1214"/>
<path d="M598.8,410.5h91.3V384.1H598.8v26.4Z" class="g2_1214"/>
<path d="M763.9,413.4V384.1M503.5,439.7V413.4m85.4,26.3V413.4m175,26.3V413.4M503.5,466.1V439.7m85.4,26.4V439.7m175,26.4V439.7M503.5,495V466.1M588.9,495V466.1" class="g1_1214"/>
<path d="M598.8,495h70.5V469.3H598.8V495Z" class="g2_1214"/>
<path d="M763.9,495V466.1M503.5,521.3V495m85.4,26.3V495m175,26.3V495M503.5,547.6V521.3m85.4,26.3V521.3m175,26.3V521.3M503.5,576.5V547.6m85.4,28.9V547.6" class="g1_1214"/>
<path d="M598.8,576.5h68.5V550.8H598.8v25.7Z" class="g2_1214"/>
<path d="M763.9,576.5V547.6M503.5,602.8V576.5m85.4,26.3V576.5m175,26.3V576.5M503.5,629.1V602.8m85.4,26.3V602.8m175,26.3V602.8M503.5,658.5V629.1m85.4,29.4V629.1" class="g1_1214"/>
<path d="M598.8,655.5H754.1V629.1H598.8v26.4Z" class="g2_1214"/>
<path d="M763.9,658.5V629.1M503.5,684.8V658.5m85.4,26.3V658.5m175,26.3V658.5M503.5,711.1V684.8m85.4,26.3V684.8m175,26.3V684.8M503.5,740.5V711.1m85.4,29.4V711.1" class="g1_1214"/>
<path d="M598.8,737.5h96.9V711.1H598.8v26.4Z" class="g2_1214"/>
<path d="M763.9,740.5V711.1M503.5,766.8V740.5m85.4,26.3V740.5m175,26.3V740.5M503.5,767.1H763.9M783.7,110.8H1124M783.7,137.5V111.2m172.9,26.3V111.2M1124,137.5V111.2M783.7,168.6V137.5m172.9,31.1V137.5" class="g1_1214"/>
<path d="M966.5,168.6h104.4V137.5H966.5v31.1Z" class="g2_1214"/>
<path d="M1124,168.6V137.5M783.7,194.9V168.6m172.9,26.3V168.6M1124,194.9V168.6M783.7,221.2V194.9m172.9,26.3V194.9M1124,221.2V194.9M783.7,252.4V221.2m172.9,31.2V221.2" class="g1_1214"/>
<path d="M966.5,252.4h62.6V221.2H966.5v31.2Z" class="g2_1214"/>
<path d="M1124,252.4V221.2M783.7,278.7V252.4m172.9,26.3V252.4M1124,278.7V252.4M783.7,305V278.7M956.6,305V278.7M1124,305V278.7M783.7,334.4V305m172.9,29.4V305" class="g1_1214"/>
<path d="M966.5,331.4h55.8V305H966.5v26.4Z" class="g2_1214"/>
<path d="M1124,334.4V305M783.7,360.7V334.4m172.9,26.3V334.4M1124,360.7V334.4M783.7,387V360.7M956.6,387V360.7M1124,387V360.7M783.7,414.1V387m172.9,27.1V387" class="g1_1214"/>
<path d="M966.5,411.2H1023v-21H966.5v21Z" class="g2_1214"/>
<path d="M1124,414.1V387M783.7,440.4V414.1m172.9,26.3V414.1M1124,440.4V414.1M783.7,466.7V440.4m172.9,26.3V440.4M1124,466.7V440.4M783.7,493.9V466.7m172.9,27.2V466.7" class="g1_1214"/>
<path d="M966.5,490.9H1023v-21H966.5v21Z" class="g2_1214"/>
<path d="M1124,493.9V466.7M783.7,520.2V493.9m172.9,26.3V493.9M1124,520.2V493.9M783.7,546.5V520.2m172.9,26.3V520.2M1124,546.5V520.2M783.7,575.8V546.5m172.9,29.3V546.5" class="g1_1214"/>
<path d="M966.5,572.9H1021V546.5H966.5v26.4Z" class="g2_1214"/>
<path d="M1124,575.8V546.5M783.7,602.1V575.8m172.9,26.3V575.8M1124,602.1V575.8M783.7,628.4V602.1m172.9,26.3V602.1M1124,628.4V602.1M783.7,657.4v-29m172.9,29v-29" class="g1_1214"/>
<path d="M966.5,657.4h108.8V631.7H966.5v25.7Z" class="g2_1214"/>
<path d="M1124,657.4v-29M783.7,683.7V657.4m172.9,26.3V657.4M1124,683.7V657.4M783.7,710V683.7M956.6,710V683.7M1124,710V683.7M783.7,741.1V710m172.9,31.1V710" class="g1_1214"/>
<path d="M966.5,741.1h147.6V710H966.5v31.1Z" class="g2_1214"/>
<path d="M1124,741.1V710M783.7,767.4V741.1m172.9,26.3V741.1M1124,767.4V741.1M783.7,767.8H1124" class="g1_1214"/>
</svg>