<?xml version="1.0" encoding="UTF-8" standalone="no"?>
<!DOCTYPE svg PUBLIC "-//W3C//DTD SVG 1.1//EN"
"http://www.w3.org/Graphics/SVG/1.1/DTD/svg11.dtd">
<svg viewBox="0 0 1286 909" version="1.1" xmlns="http://www.w3.org/2000/svg" xmlns:xlink="http://www.w3.org/1999/xlink">
<defs>
<style type="text/css"><![CDATA[
.g0_1176{
fill: none;
stroke: #000000;
stroke-width: 0.73;
stroke-linecap: butt;
stroke-linejoin: miter;
}
.g1_1176{
fill: none;
stroke: #000000;
stroke-width: 0.657;
stroke-linecap: butt;
stroke-linejoin: miter;
}
.g2_1176{
fill: #FDE8E9;
}
]]></style>
</defs>
<path d="M193,83.4h900.3" class="g0_1176"/>
<path d="M208.3,109.5H523M208.3,136.1V109.8m172.9,26.3V109.8M523,136.1V109.8M208.3,167.3V136.1m172.9,31.2V136.1" class="g1_1176"/>
<path d="M391.1,167.3h81.8V136.1H391.1v31.2Z" class="g2_1176"/>
<path d="M523,167.3V136.1M208.3,193.6V167.3m172.9,26.3V167.3M523,193.6V167.3M208.3,219.9V193.6m172.9,26.3V193.6M523,219.9V193.6M208.3,251V219.9M381.2,251V219.9" class="g1_1176"/>
<path d="M391.1,251h122V219.9h-122V251Z" class="g2_1176"/>
<path d="M523,251V219.9M208.3,277.3V251m172.9,26.3V251M523,277.3V251M208.3,303.6V277.3m172.9,26.3V277.3M523,303.6V277.3M208.3,334.8V303.6m172.9,31.2V303.6" class="g1_1176"/>
<path d="M391.1,334.8h73.2V303.6H391.1v31.2Z" class="g2_1176"/>
<path d="M523,334.8V303.6M208.3,361.1V334.8m172.9,26.3V334.8M523,361.1V334.8M208.3,387.4V361.1m172.9,26.3V361.1M523,387.4V361.1M208.3,416.8V387.4m172.9,29.4V387.4" class="g1_1176"/>
<path d="M391.1,413.8h68V387.4h-68v26.4Z" class="g2_1176"/>
<path d="M523,416.8V387.4M208.3,443.1V416.8m172.9,26.3V416.8M523,443.1V416.8M208.3,469.4V443.1m172.9,26.3V443.1M523,469.4V443.1M208.3,498.8V469.4m172.9,29.4V469.4" class="g1_1176"/>
<path d="M391.1,495.8h53.4V469.4H391.1v26.4Z" class="g2_1176"/>
<path d="M523,498.8V469.4M208.3,525.1V498.8m172.9,26.3V498.8M523,525.1V498.8M208.3,551.4V525.1m172.9,26.3V525.1M523,551.4V525.1M208.3,582.5V551.4m172.9,31.1V551.4" class="g1_1176"/>
<path d="M391.1,582.5h56.4V551.4H391.1v31.1Z" class="g2_1176"/>
<path d="M523,582.5V551.4M208.3,608.8V582.5m172.9,26.3V582.5M523,608.8V582.5M208.3,635.1V608.8m172.9,26.3V608.8M523,635.1V608.8M208.3,664.5V635.1m172.9,29.4V635.1" class="g1_1176"/>
<path d="M391.1,661.5h54.5V635.1H391.1v26.4Z" class="g2_1176"/>
<path d="M523,664.5V635.1M208.3,690.8V664.5m172.9,26.3V664.5M523,690.8V664.5M208.3,717.1V690.8m172.9,26.3V690.8M523,717.1V690.8M208.3,748.3V717.1m172.9,31.2V717.1" class="g1_1176"/>
<path d="M391.1,748.3h84.8V717.1H391.1v31.2Z" class="g2_1176"/>
<path d="M523,748.3V717.1M208.3,774.6V748.3m172.9,26.3V748.3M523,774.6V748.3M208.3,774.9H523M542.7,111.3h282m-282,26.6V111.6m151,26.3V111.6m131,26.3V111.6m-282,55.7V137.9m151,29.4V137.9" class="g1_1176"/>
<path d="M703.6,164.3h81.5V137.9H703.6v26.4Z" class="g2_1176"/>
<path d="M824.7,167.3V137.9m-282,55.7V167.3m151,26.3V167.3m131,26.3V167.3m-282,52.6V193.6m151,26.3V193.6m131,26.3V193.6m-282,55.7V219.9m151,29.4V219.9" class="g1_1176"/>
<path d="M703.6,246.3h95V219.9h-95v26.4Z" class="g2_1176"/>
<path d="M824.7,249.3V219.9m-282,55.7V249.3m151,26.3V249.3m131,26.3V249.3m-282,52.6V275.6m151,26.3V275.6m131,26.3V275.6M542.7,333V301.9m151,31.1V301.9" class="g1_1176"/>
<path d="M703.6,333H767V301.9H703.6V333Z" class="g2_1176"/>
<path d="M824.7,333V301.9m-282,57.4V333m151,26.3V333m131,26.3V333m-282,52.6V359.3m151,26.3V359.3m131,26.3V359.3M542.7,415V385.6m151,29.4V385.6" class="g1_1176"/>
<path d="M703.6,412H767V385.6H703.6V412Z" class="g2_1176"/>
<path d="M824.7,415V385.6m-282,55.7V415m151,26.3V415m131,26.3V415m-282,52.6V441.3m151,26.3V441.3m131,26.3V441.3m-282,57.5V467.6m151,31.2V467.6" class="g1_1176"/>
<path d="M703.6,498.8H814.8V467.6H703.6v31.2Z" class="g2_1176"/>
<path d="M824.7,498.8V467.6m-282,57.5V498.8m151,26.3V498.8m131,26.3V498.8m-282,52.6V525.1m151,26.3V525.1m131,26.3V525.1m-282,55.6V551.4m151,29.3V551.4" class="g1_1176"/>
<path d="M703.6,577.8h70.6V551.4H703.6v26.4Z" class="g2_1176"/>
<path d="M824.7,580.7V551.4M542.7,607V580.7m151,26.3V580.7m131,26.3V580.7m-282,52.6V607m151,26.3V607m131,26.3V607m-282,57.5V633.3m151,31.2V633.3" class="g1_1176"/>
<path d="M703.6,664.5h78.6V633.3H703.6v31.2Z" class="g2_1176"/>
<path d="M824.7,664.5V633.3m-282,57.5V664.5m151,26.3V664.5m131,26.3V664.5m-282,52.6V690.8m151,26.3V690.8m131,26.3V690.8m-282,55.7V717.1m151,29.4V717.1" class="g1_1176"/>
<path d="M703.6,743.5h81.5V717.1H703.6v26.4Z" class="g2_1176"/>
<path d="M824.7,746.5V717.1m-282,55.7V746.5m151,26.3V746.5m131,26.3V746.5m-282,26.6h282M844.4,112.4H1111M844.4,139V112.7M973.6,139V112.7M1111,139V112.7M844.4,170.2V139m129.2,31.2V139" class="g1_1176"/>
<path d="M983.4,170.2h83.3V139H983.4v31.2Z" class="g2_1176"/>
<path d="M1111,170.2V139M844.4,196.5V170.2m129.2,26.3V170.2M1111,196.5V170.2M844.4,222.8V196.5m129.2,26.3V196.5M1111,222.8V196.5M844.4,252.1V222.8m129.2,29.3V222.8" class="g1_1176"/>
<path d="M983.4,249.2h74V222.8h-74v26.4Z" class="g2_1176"/>
<path d="M1111,252.1V222.8M844.4,278.4V252.1m129.2,26.3V252.1M1111,278.4V252.1M844.4,304.7V278.4m129.2,26.3V278.4M1111,304.7V278.4M844.4,334.1V304.7m129.2,29.4V304.7" class="g1_1176"/>
<path d="M983.4,331.2h117.7V304.7H983.4v26.5Z" class="g2_1176"/>
<path d="M1111,334.1V304.7M844.4,360.4V334.1m129.2,26.3V334.1M1111,360.4V334.1M844.4,386.7V360.4m129.2,26.3V360.4M1111,386.7V360.4M844.4,417.9V386.7m129.2,31.2V386.7" class="g1_1176"/>
<path d="M983.4,417.9h112.2V386.7H983.4v31.2Z" class="g2_1176"/>
<path d="M1111,417.9V386.7M844.4,444.2V417.9m129.2,26.3V417.9M1111,444.2V417.9M844.4,470.5V444.2m129.2,26.3V444.2M1111,470.5V444.2M844.4,499.4V470.5m129.2,28.9V470.5" class="g1_1176"/>
<path d="M983.4,499.4h94.3V473.7H983.4v25.7Z" class="g2_1176"/>
<path d="M1111,499.4V470.5M844.4,525.7V499.4m129.2,26.3V499.4M1111,525.7V499.4M844.4,552V525.7M973.6,552V525.7M1111,552V525.7M844.4,581.4V552m129.2,29.4V552" class="g1_1176"/>
<path d="M983.4,578.4h91.2V552H983.4v26.4Z" class="g2_1176"/>
<path d="M1111,581.4V552M844.4,607.7V581.4m129.2,26.3V581.4M1111,607.7V581.4M844.4,634V607.7M973.6,634V607.7M1111,634V607.7M844.4,663.4V634m129.2,29.4V634" class="g1_1176"/>
<path d="M983.4,660.4H1100V634H983.4v26.4Z" class="g2_1176"/>
<path d="M1111,663.4V634M844.4,689.7V663.4m129.2,26.3V663.4M1111,689.7V663.4M844.4,716V689.7M973.6,716V689.7M1111,716V689.7M844.4,745.4V716m129.2,29.4V716" class="g1_1176"/>
<path d="M983.4,742.4h81.8V716H983.4v26.4Z" class="g2_1176"/>
<path d="M1111,745.4V716M844.4,771.7V745.4m129.2,26.3V745.4M1111,771.7V745.4M844.4,772H1111" class="g1_1176"/>
</svg>