<?xml version="1.0" encoding="UTF-8" standalone="no"?>
<!DOCTYPE svg PUBLIC "-//W3C//DTD SVG 1.1//EN"
"http://www.w3.org/Graphics/SVG/1.1/DTD/svg11.dtd">
<svg viewBox="0 0 909 1286" version="1.1" xmlns="http://www.w3.org/2000/svg" xmlns:xlink="http://www.w3.org/1999/xlink">
<defs>
<style type="text/css"><![CDATA[
.g0_17{
fill: none;
stroke: #000000;
stroke-width: 0.73;
stroke-linecap: butt;
stroke-linejoin: miter;
}
.g1_17{
fill: #FDE8E9;
}
]]></style>
</defs>
<path d="M116.9,159.9H792.5" class="g0_17"/>
<path d="M116.9,659.7H228.3V631.8H116.9v27.9Z" class="g1_17"/>
<path d="M245.2,661.8H683.3V633.9H245.2v27.9Z" class="g1_17"/>
<path d="M116.9,689.5h53.7V665.7H116.9v23.8Z" class="g1_17"/>
<path d="M187.5,691.5h146V663.7h-146v27.8Z" class="g1_17"/>
<path d="M215.5,721.2H344.7V693.3H215.5v27.9Z" class="g1_17"/>
<path d="M116.9,923.7h77.8V900H116.9v23.7Z" class="g1_17"/>
<path d="M208.4,927.9H631.2V900H208.4v27.9Z" class="g1_17"/>
<path d="M675.5,925.7H742V897.9H675.5v27.8Z" class="g1_17"/>
<path d="M116.9,1013.4h89.3V985.6H116.9v27.8Z" class="g1_17"/>
<path d="M267,1015.6H487.2v-28H267v28Z" class="g1_17"/>
<path d="M503.5,1013.4H615.8V985.6H503.5v27.8Z" class="g1_17"/>
<path d="M249.3,1059.9H431V1032H249.3v27.9Z" class="g1_17"/>
<path d="M316.9,1089.6H566.1v-27.9H316.9v27.9Z" class="g1_17"/>
<path d="M519.5,1119.2H642.6v-27.8H519.5v27.8Z" class="g1_17"/>
</svg>