<?xml version="1.0" encoding="UTF-8" standalone="no"?>
<!DOCTYPE svg PUBLIC "-//W3C//DTD SVG 1.1//EN"
"http://www.w3.org/Graphics/SVG/1.1/DTD/svg11.dtd">
<svg viewBox="0 0 1286 909" version="1.1" xmlns="http://www.w3.org/2000/svg" xmlns:xlink="http://www.w3.org/1999/xlink">
<defs>
<style type="text/css"><![CDATA[
.g0_722{
fill: none;
stroke: #000000;
stroke-width: 0.73;
stroke-linecap: butt;
stroke-linejoin: miter;
}
.g1_722{
fill: none;
stroke: #02B5EE;
stroke-width: 1.262;
stroke-linecap: butt;
stroke-linejoin: miter;
}
.g2_722{
fill: none;
stroke: #02B5EE;
stroke-width: 0.73;
stroke-linecap: butt;
stroke-linejoin: miter;
}
.g3_722{
fill: none;
stroke: #FFA313;
stroke-width: 1.262;
stroke-linecap: butt;
stroke-linejoin: miter;
}
.g4_722{
fill: #FFCCCC;
}
]]></style>
</defs>
<path d="M193,83.4h900.3M193,210.6h818.8m-818.8,0h818.8M504.3,240.2V211m0,58.5V240.2m0,59.4V269.5m0,59.3V299.6m0,58.5V328.8m0,114.3v-85" class="g0_722"/>
<path d="M769,419.1h84.6" class="g1_722"/>
<path d="M504.3,472.3V443.1m0,102.3V472.3" class="g0_722"/>
<path d="M950.2,531.5h50.7" class="g2_722"/>
<path d="M504.3,574.6V545.4m0,58.4V574.6m0,114.3V603.8" class="g0_722"/>
<path d="M713.6,664.9h35.9" class="g1_722"/>
<path d="M760,664.9h93.3" class="g3_722"/>
<path d="M874.3,653.1h126.6V620.3H874.3v32.8Z" class="g4_722"/>
<path d="M504.3,718.1V688.9m0,58.4V718.1M193,747.7h818.8m-818.8,0h818.8" class="g0_722"/>
</svg>