<?xml version="1.0" encoding="UTF-8" standalone="no"?>
<!DOCTYPE svg PUBLIC "-//W3C//DTD SVG 1.1//EN"
"http://www.w3.org/Graphics/SVG/1.1/DTD/svg11.dtd">
<svg viewBox="0 0 1286 909" version="1.1" xmlns="http://www.w3.org/2000/svg" xmlns:xlink="http://www.w3.org/1999/xlink">
<defs>
<style type="text/css"><![CDATA[
.g0_620{
fill: none;
stroke: #000000;
stroke-width: 0.73;
stroke-linecap: butt;
stroke-linejoin: miter;
}
.g1_620{
fill: #F81693;
}
.g2_620{
fill: #FFE6E6;
}
.g3_620{
fill: none;
stroke: #5EE200;
stroke-width: 1.461;
stroke-linecap: butt;
stroke-linejoin: miter;
}
.g4_620{
fill: none;
stroke: #F81693;
stroke-width: 1.461;
stroke-linecap: butt;
stroke-linejoin: miter;
stroke-dasharray: 2,2;
}
.g5_620{
fill: none;
stroke: #000000;
stroke-width: 0.733;
stroke-linecap: round;
stroke-linejoin: round;
}
.g6_620{
fill: #FFFFFF;
}
.g7_620{
fill: #FFCCCC;
}
.g8_620{
fill: none;
stroke: #F81693;
stroke-width: 0.73;
stroke-linecap: butt;
stroke-linejoin: miter;
}
.g9_620{
fill: none;
stroke: #F81693;
stroke-width: 1.461;
stroke-linecap: butt;
stroke-linejoin: miter;
}
.ga_620{
fill: none;
stroke: #F81693;
stroke-width: 1.168;
stroke-linecap: round;
stroke-linejoin: round;
}
.gb_620{
fill: none;
stroke: #02B5EE;
stroke-width: 0.73;
stroke-linecap: butt;
stroke-linejoin: miter;
}
]]></style>
</defs>
<path d="M193,83.4h900.3M193,154.8h873.9m-873.9,0h873.9M507.8,184.3V155.1m0,58.5V184.3m0,160.3v-131" class="g0_620"/>
<path d="M539.1,331.3V308.6c0,-4.3,3.5,-7.8,7.8,-7.8h35.5c4.3,0,7.8,3.5,7.8,7.8v22.7c0,4.3,-3.5,7.8,-7.8,7.8H546.9c-4.3,0,-7.8,-3.5,-7.8,-7.8Z" class="g1_620"/>
<path d="M541.7,331.3V308.6c0,-2.9,2.3,-5.2,5.2,-5.2h35.5c2.9,0,5.2,2.3,5.2,5.2v22.7c0,2.9,-2.3,5.2,-5.2,5.2H546.9c-2.9,0,-5.2,-2.3,-5.2,-5.2Z" class="g2_620"/>
<path d="M708.8,335.2c-1.6,3.3,-5.4,5.5,-10.9,5.5h-33c-5.5,0,-9.3,2.2,-11,5.4c-1.6,-3.2,-5.5,-5.4,-10.9,-5.4H610c-5.5,0,-9.4,-2.2,-11,-5.5" class="g3_620"/>
<path d="M717.6,331.3V308.6c0,-4.3,3.5,-7.8,7.8,-7.8h35.5c4.3,0,7.8,3.5,7.8,7.8v22.7c0,4.3,-3.5,7.8,-7.8,7.8H725.4c-4.3,0,-7.8,-3.5,-7.8,-7.8Z" class="g1_620"/>
<path d="M720.2,331.3V308.6c0,-2.9,2.3,-5.2,5.2,-5.2h35.5c2.9,0,5.2,2.3,5.2,5.2v22.7c0,2.9,-2.3,5.2,-5.2,5.2H725.4c-2.9,0,-5.2,-2.3,-5.2,-5.2Z" class="g2_620"/>
<path d="M781.1,334.1h250.8" class="g4_620"/>
<path d="M787.3,295.3V246.6" class="g5_620"/>
<path d="M507.8,374.8V344.6m0,59.4V374.8" class="g0_620"/>
<path d="M902.1,400h99.5" class="g4_620"/>
<path d="M507.8,433.2V404m0,111.2v-82" class="g0_620"/>
<path d="M754,487.4V450.2c0,-2.8,2.3,-5.2,5.2,-5.2h60.2c2.9,0,5.2,2.4,5.2,5.2v37.2c0,2.9,-2.3,5.2,-5.2,5.2H759.2c-2.9,0,-5.2,-2.3,-5.2,-5.2Z" class="g6_620"/>
<path d="M835.9,483.8V450.2c0,-2.8,2.3,-5.2,5.2,-5.2h72.8c2.8,0,5.2,2.4,5.2,5.2v33.6c0,2.9,-2.4,5.2,-5.2,5.2H841.1c-2.9,0,-5.2,-2.3,-5.2,-5.2Z" class="g7_620"/>
<path d="M833.3,492.4h94.5" class="g8_620"/>
<path d="M789.3,442.4v-13h88.2v11.7" class="g9_620"/>
<path d="M881.3,438.3c-1.4,.2,-3.6,2.8,-3.8,3.5c-.3,-.7,-2.4,-3.3,-3.8,-3.5" class="ga_620"/>
<path d="M939.9,492.4h116" class="gb_620"/>
<path d="M507.8,597.1V515.2" class="g0_620"/>
<path d="M817.9,574.3H986.8" class="gb_620"/>
<path d="M986.8,574.3h69.1" class="g8_620"/>
<path d="M507.8,626.3V597.1m0,58.5V626.3m0,58.5V655.6m0,58.4V684.8m0,58.4V714" class="g0_620"/>
<path d="M686.7,739.2H889.1" class="g4_620"/>
<path d="M507.8,774.6V743.2m0,60.6V774.6" class="g0_620"/>
</svg>