<?xml version="1.0" encoding="UTF-8" standalone="no"?>
<!DOCTYPE svg PUBLIC "-//W3C//DTD SVG 1.1//EN"
"http://www.w3.org/Graphics/SVG/1.1/DTD/svg11.dtd">
<svg viewBox="0 0 909 1286" version="1.1" xmlns="http://www.w3.org/2000/svg" xmlns:xlink="http://www.w3.org/1999/xlink">
<defs>
<clipPath id="c0_81"><path d="M122.9,436.8V402.1H152v34.7Z"/></clipPath>
<clipPath id="c1_81"><path d="M123.1,589.8V558h29.1v31.8Z"/></clipPath>
<clipPath id="c2_81"><path d="M123.1,741.5V709.8h29.1v31.7Z"/></clipPath>
<clipPath id="c3_81"><path d="M123.1,893.2V861.5h29.1v31.7Z"/></clipPath>
<clipPath id="c4_81"><path d="M123.1,1045v-31.8h29.1V1045Z"/></clipPath>
<clipPath id="c5_81"><path d="M122.1,437.2V401.1H153v36.1Z"/></clipPath>
<clipPath id="c6_81"><path d="M122.1,590.3V557.6H153v32.7Z"/></clipPath>
<clipPath id="c7_81"><path d="M122.1,742V709.3H153V742Z"/></clipPath>
<clipPath id="c8_81"><path d="M122.1,893.7V861H153v32.7Z"/></clipPath>
<clipPath id="c9_81"><path d="M122.1,1045.5v-32.7H153v32.7Z"/></clipPath>
<style type="text/css"><![CDATA[
.g0_81{
fill: none;
stroke: #000000;
stroke-width: 0.73;
stroke-linecap: butt;
stroke-linejoin: miter;
}
.g1_81{
fill: #FFFFFF;
}
.g2_81{
fill: #868686;
}
.g3_81{
fill: #242628;
}
.g4_81{
fill: #A0A0A0;
}
.g5_81{
fill: #C4956E;
}
.g6_81{
fill: #222426;
}
.g7_81{
fill: #202126;
}
.g8_81{
fill: #252427;
}
.g9_81{
fill: #222924;
}
.ga_81{
fill: none;
stroke: #000000;
stroke-width: 1.461;
stroke-linecap: butt;
stroke-linejoin: miter;
}
.gb_81{
fill: none;
stroke: #000000;
stroke-width: 2.739;
stroke-linecap: butt;
stroke-linejoin: miter;
}
.gc_81{
}
.gd_81{
fill: none;
stroke: #000000;
stroke-width: 0.459;
stroke-linecap: butt;
stroke-linejoin: round;
}
.ge_81{
fill: none;
stroke: #000000;
stroke-width: 0.722;
stroke-linecap: round;
stroke-linejoin: miter;
}
.gf_81{
fill: none;
stroke: #000000;
stroke-width: 0.722;
stroke-linecap: round;
stroke-linejoin: round;
}
.gg_81{
fill: #D40000;
}
.gh_81{
fill: none;
stroke: #000000;
stroke-width: 0.578;
stroke-linecap: round;
stroke-linejoin: miter;
}
.gi_81{
fill: #E9C6AF;
}
.gj_81{
fill: none;
stroke: #695000;
stroke-width: 0.152;
stroke-linecap: round;
stroke-linejoin: round;
}
]]></style>
</defs>
<path d="M116.9,159.9H792.5" class="g0_81"/>
<path d="M117.7,509.6V394.8H791.8V509.6Z" class="g1_81"/>
<path d="M117.7,509.6V394.8H791.8V509.6Z" class="ga_81"/>
<g clip-path="url(#c5_81)">
<path clip-path="url(#c0_81)" d="M125.6,436.6c-.1,-.1,-.1,-.2,0,-.3c0,-.1,.1,-1.2,0,-1.7c0,-.2,0,-.4,0,-.6c.1,-.9,.3,-2.3,.3,-2.3c0,0,0,-.3,.1,-.6c.1,-.4,.1,-.6,-.1,-.9c-.3,-.6,-.9,-2,-1.1,-2.8c-.4,-1.8,-.5,-4.6,-.1,-6c.3,-1.1,.5,-1.2,.9,-.5c.3,.6,.4,.4,0,-.3c-.3,-.8,-.6,-2.1,-.5,-2.5c0,-.1,.2,-.6,.4,-1.1c.2,-.4,.4,-.9,.5,-1.2c.1,-.4,.5,-.7,.9,-.5c.1,0,.2,.2,.3,.3c.2,.3,.2,.2,.1,-.2c-.1,-.3,-.2,-.6,-.1,-.6c0,0,0,-.2,0,-.3c.1,-.5,1,-2.1,1.6,-2.7c.3,-.3,.6,-.6,.7,-.7c.1,-.2,.5,-.5,.8,-.7c.3,-.2,.7,-.6,.9,-.8c.4,-.4,.7,-.5,.9,-.2q.2,.2,.2,-.2c0,-.1,0,-.4,0,-.5c.1,-.2,1.5,-1.2,2.1,-1.5c.3,-.1,.6,-.3,.8,-.4c.1,-.1,.3,-.2,.4,-.2c0,0,.4,-.2,.8,-.4c.4,-.3,.9,-.5,1,-.6c.2,0,.6,-.2,1,-.4c1.1,-.5,1.6,-.7,2.4,-1c.5,-.2,.9,-.3,1,-.4c0,0,.1,0,.3,.2l.2,.1l.4,-.3c.6,-.5,1.6,-.8,3.8,-1.1c.9,-.2,2.2,-.4,2.8,-.4l1,-.2l.1,.3c.1,.2,.1,.3,-.3,.4c-2.7,1,-4.6,2,-5.6,2.9c-.2,.2,-.4,.3,-.4,.3c-.1,.1,-1.5,1.5,-1.5,1.6c0,.1,-.1,.2,-.2,.3c-.3,.2,-.6,.7,-.5,1.1c0,.2,-.1,.3,-.4,.5c-.3,.2,-.4,.3,-.4,.4c.2,.2,0,.9,-.2,1.2c-.7,.7,-1.7,2.2,-1.9,2.9c-.1,.1,-.2,.4,-.4,.7c-.2,.3,-.4,.8,-.5,1.1q-.4,.9,-1,.9c-.5,.1,-1.4,.4,-1.3,.5c0,0,.4,0,.9,-.1c1.1,-.1,1.2,0,.8,.7c-.4,.8,-.7,1.7,-.7,2.1c0,.4,-.2,.9,-.6,2.3c-.1,.4,-.3,.5,-.7,.7c-.5,.3,-.6,.4,-1.2,.4q-.7,0,-.6,.2c.1,.1,-.1,.5,-.5,1.3c-.3,.6,-.7,1.2,-.8,1.3c-.2,.2,-.4,.5,-.6,.8c-.2,.3,-.4,.5,-.5,.5c0,0,-.2,.2,-.3,.3c-.6,.9,-2.7,2.7,-3,2.7l.3,-3.2c.1,.1,.4,-.1,.6,-.3c.2,-.4,.5,-.6,1.1,-.6c.5,-.1,.6,-.1,1,-.5c.2,-.3,.6,-.9,.9,-1.4l.5,-1l-.5,-.2c-.3,-.2,-.6,-.4,-.7,-.4c-.1,-.2,.4,-1,.7,-1.1c.2,-.1,.5,-.2,.7,-.2c.2,0,.5,-.1,.7,-.3c.3,-.1,.5,-.2,.7,-.2c.6,-.1,.8,-.4,.8,-1.4c.1,-.9,.2,-1,.5,-1.1c.4,-.2,.7,-.2,.9,.1l.1,.2l.1,-.2c.1,-.3,.1,-.4,-.1,-.4c-.1,0,-.2,-.1,-.3,-.2q-.1,-.3,-.6,-.5c-.6,-.1,-.7,-.3,-.5,-.5c0,-.1,0,-.3,0,-.4c-.1,-.3,.4,-.7,1,-1c.5,-.1,.6,-.2,1.1,-1.2c.3,-.6,.8,-1.3,1,-1.5c.2,-.2,.5,-.5,.6,-.7c.1,-.2,.2,-.2,.4,-.2c.2,0,.4,0,.5,-.1c.2,-.2,.9,-1.2,.8,-1.2c0,0,-.2,.1,-.5,.2c-.8,.3,-1.8,.3,-2,-.1c-.2,-.3,.4,-1.1,.9,-1.2c.1,0,1.1,-.5,1.5,-.8c.1,-.1,.3,-.5,.5,-.8c.3,-.7,.8,-1.4,1.2,-1.5c.5,-.1,.7,-.3,.9,-.7c.2,-.4,.1,-.7,-.4,-.9c-.1,0,-.3,-.2,-.4,-.3c0,-.1,-.1,-.2,-.2,-.2c-.3,0,-3,1.1,-4.1,1.7c-.2,.1,-.5,.3,-.7,.5c-.1,.2,-.5,.5,-.9,.8c-.4,.4,-.9,.8,-1,1c-.1,.3,-.4,.7,-.7,.9c-.4,.4,-.4,.5,-.4,1.2c-.1,.5,0,1,.1,1.2c.3,.7,.2,1.1,-.3,1.1c-.5,-.1,-.8,-.4,-1.3,-1.6c-.3,-.6,-.6,-1,-.6,-1c-.2,0,-.8,.7,-1.1,1.2c-.2,.6,-.3,.7,-.7,.8c-.5,.2,-.5,.3,-.7,.8c-.1,.3,-.1,.6,-.1,.7c.1,.1,.1,.3,.1,.3c-.1,.4,-.1,.9,.1,1.3c.2,.3,.3,.6,.3,.8c0,.1,.1,.5,.3,.9c.3,.6,.3,.7,.2,1.2c-.1,.3,-.1,.6,-.1,.7c-.1,.4,-.4,.3,-1.1,-.3c-.5,-.5,-1.2,-1.2,-2,-2.3c-.3,-.4,-.4,-.5,-.3,-.1c0,.1,-.1,.5,-.2,.8c-.2,.6,-.2,1.4,.2,1.7c.2,.3,.8,1.9,.9,2.3c0,.2,0,.4,.1,.5c.1,.2,.1,1,-.1,1.3c0,.1,0,.3,0,.4c0,.1,-.1,.2,-.2,.2c-.2,.1,-.7,-.3,-1,-.6c-.1,-.1,-.3,-.3,-.5,-.5l-.2,-.3l-.1,.2c-.1,.3,0,.7,.1,1.2c.3,.7,.4,2.3,.2,2.9c-.1,.2,-.2,.4,-.4,.5c-.4,.3,-.3,.5,.4,1.5l.4,.5l.1,-.3c.1,-.2,.2,-.6,.3,-1c.1,-.3,.2,-.8,.3,-1c.1,-.2,.2,-.5,.3,-.8q.1,-.5,2.3,-5.3c1,-2,1,-2.1,1.9,-3.3c.7,-1.1,1.3,-2.1,1.9,-3c.8,-1.4,.9,-1.6,1.4,-2.2c.3,-.3,.7,-.8,.9,-1c.9,-1.2,1.1,-1.5,1.3,-1.4c.1,.1,.2,.1,.2,.2c0,0,-.2,.4,-.5,.8c-.3,.4,-.8,1.1,-1,1.5c-.9,1.5,-2.1,3.4,-2.5,4c-.2,.3,-.5,.8,-.6,1c-.1,.2,-.4,.6,-.5,.8c-.2,.3,-.3,.6,-.4,.7c0,.4,-.1,.8,-1.1,2.6c-.8,1.6,-1,2,-1.7,3.7c-.5,1,-.8,2.2,-.7,2.4l-.3,3.2c-.3,0,-.5,1.8,-.2,2.9c.1,.8,.1,1.1,-.2,1.3c-.6,.4,-1.1,1.1,-1.3,1.7c-.1,.3,-.2,.5,-.4,.5q-.2,0,-.3,-.2Z" class="g2_81"/>
<path d="M133.1,423.1c-.1,0,-.3,-.1,-.4,-.1q-.1,.1,0,.2c.1,0,.3,.1,.4,.1q.2,-.1,0,-.2Z" class="g1_81"/>
<path d="M144.5,404.1q0,-.1,-.1,-.1q-.1,0,-.2,.1q0,.1,.1,.1c.1,0,.2,0,.2,-.1Z" class="g1_81"/>
<path d="M125.7,436.7q-.1,-.1,-.1,-.3c.1,-.1,.1,-.9,.1,-1.7c0,-1.4,.1,-2.2,.4,-3.5l.1,-.6l-.5,-1c-.3,-.5,-.5,-1.2,-.6,-1.6c-.1,-.4,-.3,-.8,-.3,-1c-.2,-.7,-.3,-2.8,-.3,-3.9c.1,-1.1,.5,-2.6,.7,-2.6c.1,0,.2,.2,.4,.6c.5,.8,.7,.7,.3,-.1c-.4,-.8,-.7,-1.9,-.7,-2.5c0,-.4,.5,-1.9,.9,-2.7c.2,-.4,.3,-.5,.5,-.5c.3,-.1,.3,0,.9,.9l.5,.7l-.4,-.8c-.5,-1.1,-.4,-1.6,.3,-2.9c.3,-.5,.6,-1,.7,-1.1c.1,-.1,.4,-.4,.6,-.7c.3,-.2,.8,-.7,1.2,-1c.3,-.2,.7,-.6,.9,-.8c.4,-.4,.6,-.4,1,.2l.2,.4l-.1,-.5c-.1,-.8,0,-1,.8,-1.6c.5,-.3,.9,-.6,1,-.6c0,0,.1,-.1,.1,-.1c0,-.1,.1,-.1,.3,-.1q.2,0,.2,.1q-.1,.1,-.2,.1c-.1,0,-.4,.3,-.7,.6c-.4,.3,-.8,.6,-.9,.7c-.3,.1,-.3,.2,-.3,.6c0,.3,.1,.7,.2,.9c.1,.4,.1,1,0,1c-.2,0,-.4,-.3,-.7,-.9l-.3,-.6l-.4,.2c-.1,.2,-.3,.3,-.3,.3c-.1,.1,-.3,.3,-.6,.5c-.3,.2,-.6,.5,-.7,.6c-.1,.1,-.3,.3,-.6,.6c-.6,.6,-1.6,2.2,-1.5,2.5c.1,.4,1,2.2,1.7,3.5c.5,.9,.6,1,.4,1c-.2,0,-1.2,-.8,-1.6,-1.4c-.3,-.3,-.6,-.7,-.8,-.9c-.1,-.1,-.3,-.4,-.4,-.6c-.2,-.4,-.4,-.4,-.6,0c-.3,.5,-.8,2.1,-.9,2.4c-.1,.8,.6,2.7,1.5,3.8c.7,1,.7,1.3,-.1,.8c-.3,-.2,-1.3,-1.2,-1.5,-1.6c0,-.1,-.1,-.1,-.1,-.1c-.2,0,-.4,1.1,-.4,1.7c0,.3,0,.7,-.1,.8c0,.2,0,.8,.1,1.4c.1,.6,.1,1.2,.1,1.5c.1,.6,1,3,1.1,3c.1,0,.1,-.1,.1,-.1c0,0,.1,-.5,.3,-1.1c.2,-.6,.3,-1.2,.4,-1.5c0,-.2,.1,-.4,.1,-.5c.1,-.1,.2,-.4,.3,-.6c.1,-.6,.2,-.9,1.1,-2.7c.3,-.6,.7,-1.5,.9,-1.9c.8,-1.7,1.6,-3.3,2.2,-4.3c.7,-.9,1.1,-1.6,1.9,-2.9c.2,-.4,.6,-.9,.7,-1.1c.2,-.2,.3,-.4,.3,-.5c.1,-.1,.3,-.4,.6,-.7c.2,-.3,.6,-.8,.8,-1c.9,-1.3,1.1,-1.4,1.2,-1.3c.2,.1,.2,.2,-.6,1.1c-.2,.3,-.6,.9,-.8,1.3c-.8,1.3,-2.1,3.4,-2.4,3.8c-.6,.9,-1.5,2.5,-1.5,2.8c0,.1,-.5,1.3,-1.2,2.6c-.7,1.3,-1.3,2.7,-1.5,3.1c-.1,.4,-.3,.7,-.3,.8c-.1,.1,-.5,1.3,-.6,1.8c0,.2,-.1,.7,-.1,1c-.2,.7,-.3,1.9,-.3,2c0,.1,.1,0,.3,-.1c.1,-.1,.3,-.3,.6,-.5c.2,-.1,.5,-.5,.8,-.7c.2,-.2,.4,-.4,.5,-.5c.6,-.6,.9,-.9,1.2,-1.4c.3,-.4,.6,-.7,.7,-.9c.3,-.2,1.2,-2,1.2,-2.1c-.1,0,-.4,-.2,-.9,-.5c-.9,-.4,-1,-.6,-.8,-.7c.1,0,1,.1,1.8,.3c.2,0,.7,0,1,0c.9,0,1.4,-.4,1.6,-1c.1,-.3,.2,-.6,.2,-.8c.1,-.3,.3,-1,.3,-1.5c.1,-.5,.4,-1.3,.6,-1.6l.2,-.4l-.5,.1c-.5,.1,-1.6,-.2,-1.7,-.4c-.1,-.2,.7,-.6,1.6,-.7l.8,-.2l.2,-.6c.2,-.3,.3,-.7,.4,-.9c0,-.1,.1,-.3,.2,-.4c.1,-.1,.3,-.4,.4,-.6c0,-.3,.3,-.7,.4,-.9c1.4,-2,1.6,-2.3,1.5,-2.3c-.1,0,-.4,.1,-.6,.2c-.7,.3,-1.5,.3,-1.5,0c0,-.3,1.8,-1.3,2.7,-1.5c.4,-.1,.4,-.2,.4,-.6c0,-.2,.2,-.6,.3,-.8c.1,-.2,.3,-.5,.4,-.6c.3,-.6,2.2,-2.2,3.2,-2.9c.7,-.4,1.8,-.9,2.7,-1.3l.7,-.3l-1.6,.2c-2.6,.3,-3.7,.7,-4.4,1.4c-.3,.4,-.4,.4,-.5,.2c-.1,-.2,.6,-.9,1.2,-1.2c.6,-.3,1.7,-.5,2.4,-.6c.4,0,1.5,-.2,2.5,-.4c1.5,-.2,1.8,-.2,1.9,-.1c.4,.1,.3,.3,-.2,.5c-1.1,.4,-2.2,.9,-2.9,1.2c-.7,.4,-2,1.1,-2.2,1.3c-.1,0,-.3,.2,-.6,.4c-.9,.8,-1.6,1.5,-1.8,1.8c-.1,.2,-.3,.5,-.4,.6c-.1,.2,-.3,.5,-.3,.7c0,.3,-.1,.5,-.4,.7c-.2,.1,-.5,.3,-.6,.3h-.2h.2c.4,.1,.5,.3,.3,.5c0,.1,-.1,.2,-.1,.3c.1,.1,-.1,.4,-.4,.6c-.2,.3,-.5,.6,-.6,.8c-.1,.2,-.3,.5,-.4,.8c-.4,.4,-.6,.8,-.7,1.1c0,.1,-.2,.4,-.4,.7c-.3,.6,-.4,.9,-.7,1.7c-.1,.3,-.2,.3,-.7,.4c-.7,.1,-1.5,.4,-1.4,.5c0,0,.4,0,.9,-.1c.8,-.1,.9,-.1,1,.1c.1,.1,.1,.3,-.2,.6c-.3,.6,-.7,1.7,-.7,2.2c0,.3,-.3,1.3,-.6,2.1c-.1,.4,-.2,.5,-.6,.8c-.5,.3,-.6,.3,-1.2,.3c-.4,0,-.9,0,-1,-.1c-.2,0,-.5,-.1,-.8,-.2h-.6l.5,.2c.3,.1,.6,.2,.7,.2q.5,.1,.6,.2c.1,.1,-.9,2,-1.3,2.5c-.2,.2,-.5,.6,-.7,.8c-.1,.2,-.3,.5,-.4,.6c-.2,.1,-.4,.4,-.6,.5c-.4,.5,-1.3,1.4,-1.7,1.6c-.1,.2,-.4,.3,-.5,.5c-.1,.1,-.3,.2,-.5,.3c-.2,.1,-.3,.2,-.3,.4c-.1,.5,-.1,1.9,-.1,2.1c0,.1,.1,.5,.1,.9c.1,.5,.1,.6,-.2,.8c-.4,.4,-1,1.2,-1.3,1.8c-.1,.3,-.2,.5,-.2,.5c-.1,0,-.2,0,-.3,-.1Z" class="g3_81"/>
<path d="M128.2,416.3c-.1,-.1,-.1,-.2,-.1,-.1c-.1,.2,0,.4,.1,.4c.1,0,.1,-.1,0,-.3Z" class="g3_81"/>
<path d="M139.7,410.5c.2,-.1,.5,-.3,.7,-.4l.2,-.2h-.3c-.5,.1,-1.4,.6,-1.4,.7c0,.2,.3,.1,.8,-.1Z" class="g4_81"/>
<path d="M139.7,410.4c.4,-.2,.6,-.4,.2,-.3c-.3,.1,-.9,.5,-.7,.5c0,0,.3,-.1,.5,-.2Z" class="g1_81"/>
<path d="M134.9,407.2c0,-.1,.6,-.5,.7,-.5c.2,.1,.2,.2,-.1,.3c-.1,.1,-.3,.1,-.4,.2q-.1,0,-.2,0Z" class="g3_81"/>
<path d="M136.2,406.4c.1,-.1,.2,-.1,.3,-.2q.2,0,.1,.2c-.1,.1,-.2,.2,-.3,.2q-.2,0,-.1,-.2Z" class="g3_81"/>
<path d="M137.1,405.9c.1,-.1,.6,-.3,.7,-.2c0,.1,-.5,.4,-.7,.4q-.1,0,0,-.2Z" class="g3_81"/>
<path d="M137.9,405.6c0,-.1,.8,-.5,1.3,-.6c.3,-.1,.6,-.2,.7,-.3c.4,-.3,1.9,-.8,2.1,-.8c.2,.2,.1,.4,-.2,.4c-.5,.1,-1.7,.5,-3,1.1c-.6,.3,-.8,.3,-.9,.2Z" class="g3_81"/>
<path d="M125.7,436.6c0,0,0,-.1,0,-.2c0,-.1,.1,-.6,.1,-1.2c0,-1.4,0,-1.9,.3,-4l.1,-.7l-.5,-1c-.3,-.6,-.5,-1.2,-.6,-1.6c-.1,-.3,-.2,-.7,-.2,-.9c-.3,-1.1,-.4,-4.2,-.1,-5.2c.1,-.4,.2,-.8,.2,-.9c.1,-.4,.2,-.4,.7,.3c.6,1,.9,1,.3,-.1c-.4,-.7,-.8,-2,-.8,-2.6c0,-.4,.6,-1.9,1,-2.7c.1,-.3,.2,-.4,.4,-.4c.2,-.1,.3,0,.5,.4c.5,.6,.6,.8,.5,.8c-.1,0,-.3,-.2,-.4,-.4c-.4,-.8,-.6,-.6,-1.2,.8c-.7,1.8,-.6,2.4,.7,4.7c.5,.9,.8,1.5,.7,1.6c-.2,0,-1.4,-1.1,-1.7,-1.7c-.1,-.1,-.2,-.2,-.3,-.3q-.1,0,-.2,.2c-.3,.8,-.4,2.5,-.2,4c0,.5,.1,1.1,.1,1.3c0,.6,1,3.2,1.2,3.1c.1,0,.1,-.1,.1,-.2c0,-.1,.1,-.7,.3,-1.3c.2,-.6,.3,-1.2,.4,-1.4c0,-.1,0,-.3,.1,-.3c.1,0,.4,-1.1,.4,-1.2c0,0,.1,-.3,.2,-.6c.9,-1.8,1.3,-2.7,1.6,-3.5c.8,-1.6,1.6,-3.2,2.3,-4.2c.7,-1.2,1.3,-2.1,1.9,-3.1c.2,-.3,.5,-.8,.7,-1c.1,-.1,.3,-.4,.3,-.4c0,-.2,.6,-.8,.9,-1.2c.1,0,.3,-.3,.5,-.6c.6,-.9,1,-1.3,1.1,-1.3c.1,.1,.1,0,-.6,.9c-.2,.4,-.7,1.1,-.9,1.5c-.8,1.4,-2,3.3,-2.3,3.7c-.6,.8,-1.6,2.6,-1.6,2.9c0,.2,-.5,1.3,-1.2,2.6c-.6,1.2,-1.3,2.6,-1.4,3c-.2,.4,-.4,1,-.6,1.4c-.2,.6,-.4,1.4,-.4,1.8c0,.1,-.1,.4,-.1,.6c-.1,.3,-.2,.8,-.2,1.2c-.1,.6,-.1,.7,.1,.8c.1,0,.2,-.1,.2,-.2c.1,0,.3,-.3,.6,-.5c.3,-.2,.5,-.4,.6,-.5c0,0,.3,-.3,.5,-.4c.7,-.7,1.1,-1.1,1.5,-1.7c.3,-.4,.6,-.7,.7,-.8c.2,-.2,1.1,-1.9,1.1,-2.1c0,-.1,-.1,-.2,-.6,-.5c-.7,-.3,-.6,-.4,.1,-.1c.3,.1,.6,.2,.7,.2c.4,-.1,.3,.3,-.2,1.3c-.3,.6,-.7,1.2,-.9,1.4c-.1,.1,-.4,.5,-.6,.7c-.2,.3,-.4,.6,-.5,.7c-.1,.1,-.3,.3,-.5,.5c-.1,.1,-.4,.4,-.6,.6c-.2,.2,-.5,.4,-.6,.6c-.1,.1,-.3,.2,-.3,.2c-.1,0,-.3,.2,-.5,.4c-.2,.2,-.5,.4,-.7,.5c-.2,0,-.3,.2,-.3,.7c-.1,.3,-.1,.6,-.1,.6c0,.1,0,.3,0,.6c0,.3,.1,.7,.1,1c.2,.8,.1,1.1,-.1,1.3c-.4,.2,-1.1,1.2,-1.3,1.7c-.2,.5,-.3,.6,-.5,.4Z" class="g5_81"/>
<path d="M134,423.1c-.4,0,-.8,-.1,-1,-.1c-.2,-.1,-.4,-.1,-.5,-.1c-.1,0,-.3,0,-.4,-.1c-.1,0,-.3,-.1,-.4,0c-.1,0,-.2,0,-.3,0c-.1,-.3,.3,-.3,1.8,0c1.4,.3,2.5,-.1,2.7,-.9c0,-.3,.1,-.6,.2,-.9c.1,-.2,.2,-.6,.2,-.8c.1,-.3,.1,-.7,.3,-1.6c.1,-.2,.2,-.6,.4,-.7c.1,-.2,.2,-.3,.1,-.4c0,0,-.2,0,-.4,0c-.4,.1,-1.6,-.1,-1.7,-.3c-.1,-.2,.8,-.6,2,-.8c.3,0,.4,-.1,.6,-.7c.6,-1.4,1.6,-3.2,2.9,-4.9c.1,-.1,.1,-.3,0,-.3c0,0,-.3,.1,-.7,.2c-.6,.3,-1.3,.3,-1.4,.1c0,0,0,-.1,.1,-.2q.2,0,.2,.1c.1,.1,.1,.2,.1,.2c.3,0,1.3,-.5,1.6,-.7c.3,-.3,.6,-.3,.6,-.2c.1,.1,-.1,.9,-.2,1c-.2,.1,-.5,.5,-.7,.9c-.1,.1,-.4,.4,-.6,.7c-.3,.6,-.5,.9,-.6,1.3c-.1,.1,-.3,.4,-.4,.7c-.3,.6,-.6,1.1,-.8,1.7c-.1,.2,-.2,.3,-.7,.3c-.8,.2,-1.6,.5,-1.4,.6c0,.1,.4,.1,1,0c.8,-.1,.9,-.1,1,0c0,.1,-.1,.4,-.3,.6c-.3,.6,-.6,1.6,-.7,2.2c0,.2,-.1,.6,-.2,.9c-.1,.3,-.2,.7,-.2,.8c-.1,.6,-.4,.9,-.8,1.1c-.6,.4,-.7,.4,-1.4,.3Z" class="g5_81"/>
<path d="M129.6,418.8c-.2,-.1,-.4,-.3,-.5,-.4c-.3,-.2,-1,-1,-1,-1.1c0,0,.1,-.1,.1,-.1c.1,0,.5,.4,.6,.6c.1,.1,.2,.1,.2,.1c.1,0,.1,-.1,-.1,-.3c-.1,-.2,-.3,-.5,-.4,-.7c-.1,-.3,-.4,-.9,-.6,-1.4c-.3,-.5,-.5,-1,-.5,-1.1c0,-.1,.2,-.6,.5,-1.1c.6,-1,1.6,-2.2,2.5,-2.8c.4,-.2,.8,-.6,.9,-.8c.4,-.5,.6,-.5,.9,.2c.2,.6,.3,.6,.4,.5c.1,0,.2,0,.2,0c0,0,.1,.2,.1,.4c.1,.6,-.1,.5,-.6,-.4c-.4,-.7,-.5,-.8,-.7,-.5c-.1,.2,-.7,.6,-1.1,.9c-.7,.5,-1.8,1.8,-2.5,2.9l-.4,.7l.7,1.4c.7,1.4,1.1,2.2,1.5,2.7c.2,.4,.2,.6,-.2,.3Z" class="g5_81"/>
<path d="M128.1,416.8c-.1,-.1,0,-.1,0,-.1q.1,0,.2,.1c0,.1,0,.2,0,.2c-.1,0,-.2,-.1,-.2,-.2Z" class="g5_81"/>
<path d="M127.6,415.9c-.3,-.6,-.2,-.8,0,-.5c.2,.2,.4,.8,.3,.9c-.1,.1,-.2,-.1,-.3,-.4Z" class="g5_81"/>
<path d="M140.1,409.7c.5,-.3,1.1,-.5,1.2,-.3c.1,.1,-.1,.2,-.8,.4c-.8,.2,-.9,.2,-.4,-.1Z" class="g5_81"/>
<path d="M141.5,409.2c0,0,0,-.2,0,-.4c0,-.5,.7,-1.7,1.3,-2.3c1.7,-1.6,3.9,-3,5.7,-3.5c.6,-.2,.6,-.4,-.1,-.2c-.3,0,-1.3,.2,-2.2,.3c-1,.2,-1.9,.3,-2.1,.4c-.4,.1,-1.2,.6,-1.5,.9c-.2,.3,-.3,.3,-.4,.2c-.1,-.2,.9,-1,1.4,-1.2c1.1,-.3,1.4,-.4,2.1,-.5c.4,0,1.6,-.2,2.6,-.4c1.8,-.3,2,-.3,2.1,0c0,.1,-.3,.2,-.7,.4c-2.5,.9,-4.4,1.9,-5.3,2.7c-.2,.2,-.4,.4,-.4,.4c-.1,0,-.2,.1,-.3,.1c-.1,.1,-.3,.4,-.6,.6c-.2,.3,-.5,.6,-.6,.8c-.1,.1,-.3,.4,-.5,.6c-.1,.1,-.2,.4,-.3,.6c0,.4,-.1,.6,-.2,.5Z" class="g5_81"/>
<path d="M132.6,409.7c-.1,-.1,-.2,-.7,-.1,-1c0,0,.3,-.3,.6,-.5c.3,-.2,.7,-.4,.8,-.5l.2,-.1l-.1,.2c-.2,.2,-1,.9,-1.2,1c-.1,.1,-.2,.2,-.2,.4c0,.1,0,.4,0,.5q0,.2,0,0Z" class="g5_81"/>
<path d="M141.5,404.1c.2,-.2,.5,-.2,.5,-.1c0,.1,-.1,.2,-.3,.2q-.4,.1,-.2,-.1Z" class="g5_81"/>
<path d="M125.7,436.6c0,0,0,-.1,0,-.2c0,-.1,.1,-.6,.1,-1.2c0,-1.3,0,-1.8,.4,-4.2q0,-.5,-.5,-1.5c-.3,-.6,-.5,-1.2,-.6,-1.6c-.1,-.3,-.2,-.7,-.2,-.9c-.3,-1.1,-.4,-4.2,-.1,-5.2c.1,-.4,.2,-.8,.2,-.9c.1,-.4,.2,-.4,.7,.3c.6,1,.9,1,.3,-.1c-.4,-.7,-.8,-2,-.8,-2.6c0,-.4,.6,-1.9,1,-2.7c.1,-.3,.2,-.4,.4,-.4c.2,-.1,.3,0,.5,.4c.5,.6,.6,.8,.5,.8c-.1,0,-.3,-.2,-.4,-.4c-.4,-.8,-.6,-.6,-1.2,.8c-.7,1.8,-.6,2.4,.7,4.7c.5,.9,.8,1.5,.7,1.6c-.2,0,-1.4,-1.1,-1.7,-1.7c-.1,-.1,-.2,-.2,-.3,-.3q-.1,0,-.2,.2c-.3,.8,-.4,2.5,-.2,4c0,.5,.1,1.1,.1,1.3c0,.6,1,3.2,1.2,3.1c.1,0,.1,-.1,.1,-.2c0,-.1,.1,-.7,.3,-1.3c.2,-.6,.3,-1.2,.4,-1.4c0,-.1,0,-.3,.1,-.3c.1,0,.4,-1.1,.4,-1.2c0,0,.1,-.3,.2,-.6c.9,-1.8,1.3,-2.7,1.6,-3.5c.8,-1.6,1.6,-3.2,2.3,-4.2c.7,-1.2,1.3,-2.1,1.9,-3.1c.2,-.3,.5,-.8,.7,-1c.1,-.1,.3,-.4,.3,-.4c0,-.2,.6,-.8,.9,-1.2c.1,0,.3,-.3,.5,-.6c.6,-.9,1,-1.3,1.1,-1.3c.1,.1,.1,0,-.7,1.1c-1.5,2,-2.3,3.2,-3.6,5.4c-.3,.4,-.7,1.1,-1,1.5c-.4,.6,-.5,.9,-.4,.9c.4,0,.3,.4,-.8,2.6c-.7,1.3,-1.4,2.7,-1.5,3.1c-.2,.4,-.4,1,-.6,1.4c-.2,.6,-.4,1.4,-.4,1.8c0,.1,-.1,.4,-.1,.6c-.1,.3,-.2,.8,-.2,1.2c-.1,.6,-.1,.7,.1,.8c.1,0,.2,-.1,.2,-.2c.1,0,.3,-.3,.6,-.5c.3,-.2,.5,-.4,.6,-.5c0,0,.3,-.3,.5,-.4c.7,-.7,1.1,-1.1,1.5,-1.7c.3,-.4,.6,-.7,.7,-.8c.2,-.2,1.1,-1.9,1.1,-2.1c0,-.1,-.1,-.2,-.6,-.5c-.7,-.3,-.6,-.4,.1,-.1c.3,.1,.6,.2,.7,.2c.4,-.1,.3,.3,-.2,1.3c-.3,.6,-.7,1.2,-.9,1.4c-.1,.1,-.4,.5,-.6,.7c-.2,.3,-.4,.6,-.5,.7c-.1,.1,-.3,.3,-.5,.5c-.1,.1,-.4,.4,-.6,.6c-.2,.2,-.5,.4,-.6,.6c-.1,.1,-.3,.2,-.3,.2c-.1,0,-.3,.2,-.5,.4c-.2,.2,-.5,.4,-.7,.5c-.2,0,-.3,.2,-.3,.7c-.1,.3,-.1,.6,-.1,.6c0,.1,0,.3,0,.6c0,.3,.1,.7,.1,1c.2,.8,.1,1.1,-.1,1.3c-.4,.2,-1.1,1.2,-1.3,1.7c-.2,.5,-.3,.6,-.5,.4Z" class="g6_81"/>
<path d="M134,423.1c-.4,0,-.8,-.1,-1,-.1c-.2,-.1,-.4,-.1,-.5,-.1c-.1,0,-.3,0,-.4,-.1c-.1,0,-.3,-.1,-.4,0c-.1,0,-.2,0,-.3,0c-.1,-.3,.3,-.3,1.8,0c1.4,.3,2.5,-.1,2.7,-.9c0,-.3,.1,-.6,.2,-.9c.1,-.2,.2,-.6,.2,-.8c.1,-.3,.1,-.7,.3,-1.6c.1,-.2,.2,-.6,.4,-.7c.1,-.2,.2,-.3,.1,-.4c0,0,-.2,0,-.4,0c-.4,.1,-1.6,-.1,-1.7,-.3c-.1,-.2,.8,-.6,2,-.8c.3,0,.4,-.1,.6,-.7c.6,-1.4,1.6,-3.2,2.9,-4.9c.1,-.1,.1,-.3,0,-.3c0,0,-.3,.1,-.7,.2c-.6,.3,-1.3,.3,-1.4,.1c0,0,0,-.1,.1,-.2q.2,0,.2,.1c.1,.1,.1,.2,.1,.2c.3,0,1.3,-.5,1.6,-.7c.3,-.3,.6,-.3,.6,-.2c.1,.1,-.1,.9,-.2,1c-.2,.1,-.5,.5,-.7,.9c-.1,.1,-.4,.4,-.6,.7c-.3,.6,-.5,.9,-.6,1.3c-.1,.1,-.3,.4,-.4,.7c-.3,.6,-.6,1.1,-.8,1.7c-.1,.2,-.2,.3,-.7,.3c-.8,.2,-1.6,.5,-1.4,.6c0,.1,.4,.1,1,0c.8,-.1,.9,-.1,1,0c0,.1,-.1,.4,-.3,.6c-.3,.6,-.6,1.6,-.7,2.2c0,.2,-.1,.6,-.2,.9c-.1,.3,-.2,.7,-.2,.8c-.1,.6,-.4,.9,-.8,1.1c-.6,.4,-.7,.4,-1.4,.3Z" class="g6_81"/>
<path d="M129.6,418.8c-.2,-.1,-.4,-.3,-.5,-.4c-.3,-.2,-1,-1,-1,-1.1c0,0,.1,-.1,.1,-.1c.1,0,.5,.4,.6,.6c.1,.1,.2,.1,.2,.1c.1,0,.1,-.1,-.1,-.3c-.1,-.2,-.3,-.5,-.4,-.7c-.1,-.3,-.4,-.9,-.6,-1.4c-.3,-.5,-.5,-1,-.5,-1.1c0,-.1,.2,-.6,.5,-1.1c.6,-1,1.6,-2.2,2.5,-2.8c.4,-.2,.8,-.6,.9,-.8c.4,-.5,.6,-.5,.9,.2c.2,.6,.3,.6,.4,.5c.1,0,.2,0,.2,0c0,0,.1,.2,.1,.4c.1,.6,-.1,.5,-.6,-.4c-.4,-.7,-.5,-.8,-.7,-.5c-.1,.2,-.7,.6,-1.1,.9c-.7,.5,-1.8,1.8,-2.5,2.9l-.4,.7l.7,1.4c.7,1.4,1.1,2.2,1.5,2.7c.2,.4,.2,.6,-.2,.3Z" class="g6_81"/>
<path d="M128.1,416.8c-.1,-.1,0,-.1,0,-.1q.1,0,.2,.1c0,.1,0,.2,0,.2c-.1,0,-.2,-.1,-.2,-.2Z" class="g6_81"/>
<path d="M127.6,415.9c-.3,-.6,-.2,-.8,0,-.5c.2,.2,.4,.8,.3,.9c-.1,.1,-.2,-.1,-.3,-.4Z" class="g6_81"/>
<path d="M140.1,409.7c.5,-.3,1.1,-.5,1.2,-.3c.1,.1,-.1,.2,-.8,.4c-.8,.2,-.9,.2,-.4,-.1Z" class="g6_81"/>
<path d="M141.5,409.2c0,0,0,-.2,0,-.4c0,-.5,.7,-1.7,1.3,-2.3c1.7,-1.6,3.9,-3,5.7,-3.5c.6,-.2,.6,-.4,-.1,-.2c-.3,0,-1.3,.2,-2.2,.3c-1,.2,-1.9,.3,-2.1,.4c-.4,.1,-1.2,.6,-1.5,.9c-.2,.3,-.3,.3,-.4,.2c-.1,-.2,.9,-1,1.4,-1.2c1.1,-.3,1.4,-.4,2.1,-.5c.4,0,1.6,-.2,2.6,-.4c1.8,-.3,2,-.3,2.1,0c0,.1,-.3,.2,-.7,.4c-2.5,.9,-4.4,1.9,-5.3,2.7c-.2,.2,-.4,.4,-.4,.4c-.1,0,-.2,.1,-.3,.1c-.1,.1,-.3,.4,-.6,.6c-.2,.3,-.5,.6,-.6,.8c-.1,.1,-.3,.4,-.5,.6c-.1,.1,-.2,.4,-.3,.6c0,.4,-.1,.6,-.2,.5Z" class="g6_81"/>
<path d="M132.6,409.7c-.1,-.1,-.2,-.7,-.1,-1c0,0,.3,-.3,.6,-.5c.3,-.2,.7,-.4,.8,-.5l.2,-.1l-.1,.2c-.2,.2,-1,.9,-1.2,1c-.1,.1,-.2,.2,-.2,.4c0,.1,0,.4,0,.5q0,.2,0,0Z" class="g6_81"/>
<path d="M141.5,404.1c.2,-.2,.5,-.2,.5,-.1c0,.1,-.1,.2,-.3,.2q-.4,.1,-.2,-.1Z" class="g6_81"/>
<path d="M127.2,434.3c.1,-.1,.1,-.3,.1,-.6c-.1,-.2,-.1,-.8,-.1,-1.4c0,-.5,0,-1,0,-1c0,-.1,0,-.2,0,-.3c0,-.1,.1,-.5,.1,-.8c.1,-1.3,.1,-1.6,.5,-3.1c0,-.2,.1,-.6,.1,-.8c.2,-.9,1.2,-3.1,2.4,-5.4c.6,-1.3,.9,-2,.9,-2.1c0,0,-.3,.5,-.6,1.1c-.3,.6,-.7,1.3,-.9,1.7c-.9,1.8,-1.9,4.1,-2,4.6c0,.2,-.2,.5,-.3,.8c0,.2,-.1,.5,-.1,.5c.1,.1,-.3,1.3,-.5,1.8c0,.2,-.1,.6,-.1,.8c-.1,.3,-.2,.7,-.2,1c-.3,1,-.5,2.6,-.3,2.9c0,.1,.2,.2,.4,.3c.4,.1,.3,.1,.6,0Z" class="g5_81"/>
<path d="M124.9,427c-.1,-.2,-.3,-2,-.3,-3.2c0,-.8,.1,-1.6,.2,-2.2c.1,-.3,.2,-.7,.2,-.8c.1,-.3,.3,-.2,.6,.3c.1,.2,.4,.6,.6,.8l.3,.4l-.1,-.4c-.1,-.2,-.4,-.7,-.5,-1.1c-.4,-.9,-.7,-2.2,-.6,-2.7c.1,-.4,.6,-1.6,.9,-2.3c.2,-.5,.6,-.6,.8,-.3c0,.1,0,.2,-.2,.2c-.2,0,-.3,.1,-.5,.4c-.6,1.3,-.8,2.4,-.8,3c.1,.2,.3,.9,.5,1.4c.3,.9,.5,1.2,1,1.8c.3,.5,.5,.8,.5,.9c0,.1,-.6,-.2,-.9,-.5c-.1,-.1,-.3,-.3,-.4,-.4c-.1,-.2,-.4,-.5,-.6,-.7l-.3,-.5l-.1,.2c-.4,1,-.5,2.5,-.3,4.4c.1,1.2,.1,1.6,0,1.3Z" class="g7_81"/>
<path d="M133.7,423.1c-.2,0,-.4,-.1,-.6,-.1c-.2,-.1,-.4,-.1,-.5,-.1c-.2,0,-.8,-.2,-.8,-.2c0,-.1,.5,0,1,.1c1.3,.2,2,.1,2.5,-.2c.4,-.3,.5,-.5,.8,-1.3c.2,-1,.3,-1.1,.3,-1.6c.1,-.6,.2,-1,.6,-1.7c.1,-.3,.2,-.5,.2,-.5c0,-.1,-.2,0,-.5,0c-.3,.1,-.5,.1,-1.1,-.1l-.6,-.1l.1,-.2c.2,-.2,.8,-.5,1.6,-.6l.7,-.1l.3,-.7c.5,-1.4,1.6,-3.2,2.4,-4.4c.3,-.4,.5,-.7,.4,-.8q0,-.2,-.7,.2q-.7,.3,-.7,.2c0,-.1,.2,-.2,.3,-.2c.2,0,.5,-.2,.8,-.4c.4,-.3,.7,-.4,.8,-.3c.2,.1,-.1,.7,-.5,1.2c-.7,.8,-2,3.1,-2.6,4.5c-.1,.3,-.2,.6,-.3,.7c0,.1,-.2,.2,-.3,.2c-.8,.1,-1,.1,-1.4,.3q-.5,.2,-.3,.3c0,.1,.3,.1,1,0c.7,-.1,.9,-.1,.9,0c.1,.1,-.1,.4,-.3,.8c-.4,.8,-.6,1.4,-.6,2c0,.2,-.1,.6,-.2,1c-.2,.4,-.2,.7,-.2,.8c0,0,-.1,.2,-.2,.4c-.3,.7,-1.2,1,-2.3,.9Z" class="g7_81"/>
<path d="M131.5,422.7l.1,-.1c0,0,.1,.1,.1,.1l-.1,.1l-.1,-.1Z" class="g7_81"/>
<path d="M129.3,418.6c-.6,-.5,-1.3,-1.4,-.9,-1.2c.1,.1,.3,.2,.3,.3c.1,.2,.4,.3,.5,.3c0,-.1,.5,.4,.6,.7c.1,.1,.1,.3,.1,.3c0,0,-.3,-.2,-.6,-.4Z" class="g7_81"/>
<path d="M128.8,417.5c0,-.1,-.2,-.3,-.2,-.6c-.1,-.2,-.4,-.8,-.6,-1.3c-.3,-.5,-.5,-1,-.6,-1.1c0,-.2,.8,-1.9,1.2,-2.2c.1,-.2,.4,-.5,.7,-.8c.3,-.3,.6,-.6,.8,-.8c.6,-.4,.9,-.6,1.3,-1c.2,-.2,.4,-.4,.4,-.3c.3,0,.3,.2,.1,.3c-.1,0,-.4,.2,-.7,.5c-.4,.3,-.7,.5,-.7,.5c-.2,0,-.4,.3,-.9,.9c-.3,.3,-.5,.5,-.6,.5c0,.1,-.9,1.4,-1.2,1.8c-.2,.5,-.2,.6,.4,1.9c.8,1.5,.9,1.9,.6,1.7Z" class="g7_81"/>
<path d="M127.2,416.2c-.1,-.2,-.1,-.3,0,-.3c.1,.1,.2,.2,.3,.3c0,.2,0,.3,0,.3c-.1,0,-.2,-.2,-.3,-.3Z" class="g7_81"/>
<path d="M127.6,415.9c0,-.1,-.1,-.3,-.2,-.4c0,-.1,0,-.2,0,-.2c.1,0,.5,.5,.5,.7c0,.3,-.2,.2,-.3,-.1Z" class="g7_81"/>
<path d="M138.4,410.8c0,0,.1,-.1,.2,-.1c0,0,.1,.1,.2,.1c0,0,-.1,.1,-.2,.1c-.1,0,-.2,0,-.2,-.1Z" class="g7_81"/>
<path d="M132.5,410.9c-.1,-.3,.1,-.5,.3,-.2c.1,.2,.1,.4,0,.4c-.1,0,-.2,-.1,-.3,-.2Z" class="g7_81"/>
<path d="M140.3,409.7c-.1,-.1,.8,-.4,.9,-.3c.1,0,.1,.1,0,.2c-.3,.1,-.9,.2,-.9,.1Z" class="g7_81"/>
<path d="M132.2,410.3c-.1,-.1,-.1,-.2,-.1,-.2q.1,-.1,.2,0c0,.1,0,.2,0,.2q-.1,0,-.1,0Z" class="g7_81"/>
<path d="M141.6,409.1c-.1,-.1,0,-.9,.2,-1.1c.1,-.2,.3,-.5,.4,-.7c.2,-.2,.4,-.5,.5,-.6c.1,-.1,.3,-.2,.4,-.4c.4,-.4,2,-1.6,2.8,-2.1c.8,-.4,1.9,-.9,2.8,-1.3c.6,-.2,.6,-.4,0,-.2c-.3,0,-1.3,.2,-2.2,.3c-1.7,.3,-2,.3,-2.4,.5c-.4,.1,-1.2,.6,-1.5,.9c-.1,.1,-.2,.2,-.3,.2c-.2,-.1,.8,-1,1.2,-1.1c.7,-.3,1.8,-.5,2.4,-.6c.4,0,1.5,-.2,2.4,-.4c.9,-.1,1.7,-.2,1.8,-.2c.3,0,.3,.2,0,.4c-1.4,.5,-2.5,1,-3.3,1.4c-.8,.4,-1.7,.9,-2,1.1c0,.1,-.2,.2,-.4,.4c-1,.9,-1.8,1.6,-2,1.9c-.1,.2,-.2,.3,-.3,.3c-.1,.1,-.4,.8,-.4,1.1c0,.2,-.1,.3,-.1,.2Z" class="g7_81"/>
<path d="M132.6,408.7c-.1,0,.6,-.5,1,-.7c.3,-.2,.2,-.1,-.2,.3c-.4,.4,-.8,.6,-.8,.4Z" class="g7_81"/>
<path d="M141.7,404.1q-.1,0,0,-.1c.1,-.1,.3,0,.2,.1c0,.1,-.1,.1,-.2,0Z" class="g7_81"/>
<path d="M125.9,429.8c-.1,-.1,-.1,-.2,0,-.2c0,0,.1,0,.1,.2c.1,.1,.1,.2,.1,.2c-.1,0,-.2,-.1,-.2,-.2Z" class="g8_81"/>
<path d="M129,429.3q0,-.1,.1,-.2q.2,0,.2,.1c-.1,.1,-.4,.2,-.3,.1Z" class="g8_81"/>
<path d="M125.6,429.2q0,-.1,.1,-.1c0,0,.1,.1,.1,.2q0,.1,-.2,-.1Z" class="g8_81"/>
<path d="M129.5,428.8c0,0,.2,-.2,.4,-.4c.2,-.1,.5,-.4,.5,-.6c.2,-.2,.4,-.3,.4,-.1c0,.1,-1,1.1,-1.2,1.2q-.1,0,-.1,-.1Z" class="g8_81"/>
<path d="M125.4,428.6c-.1,-.1,-.1,-.3,-.1,-.4q0,-.1,.1,.1c0,.1,.1,.2,.1,.3q0,.2,-.1,0Z" class="g8_81"/>
<path d="M131.2,427c.2,-.3,1,-1.3,1.1,-1.4q.1,0,.1,0c.1,.1,0,.2,-.2,.4c-.1,.1,-.4,.5,-.6,.8c-.5,.6,-.8,.8,-.4,.2Z" class="g8_81"/>
<path d="M124.8,426.6c0,-.1,0,-.2,0,-.2q.1,0,.2,0c0,.1,0,.2,0,.2c-.1,.1,-.1,0,-.2,0Z" class="g8_81"/>
<path d="M132.5,425.4c0,-.3,.6,-1.2,.7,-1.2c.1,0,-.6,1.3,-.7,1.3v-.1Z" class="g8_81"/>
<path d="M124.8,425.9c-.1,-.1,-.1,-.2,-.1,-.3c.1,-.2,.2,-.1,.2,.2c0,.2,-.1,.2,-.1,.1Z" class="g8_81"/>
<path d="M124.7,425.2c0,-.1,0,-.2,0,-.2c.1,-.2,.1,0,.1,.2v.3Z" class="g8_81"/>
<path d="M133.2,424c0,-.1,0,-.3,-.1,-.4c-.1,-.1,0,-.2,.1,-.2c.4,0,.5,.1,.2,.5q-.1,.2,-.2,.1Z" class="g8_81"/>
<path d="M124.6,424.1c0,-.2,.1,-.9,.1,-.9c.1,.1,.1,.5,0,.8c0,.1,-.1,.1,-.1,.1Z" class="g8_81"/>
<path d="M134,423.1c-.3,0,-.6,-.1,-.7,-.1q-.2,-.1,.1,-.1c.1,.1,.5,.1,.9,.1c.5,-.1,.6,-.1,1,-.4c.3,-.1,.5,-.4,.6,-.6c.2,-.4,.2,-.3,.1,.2c-.1,.3,-.3,.4,-.7,.6c-.5,.3,-.6,.3,-1.3,.3Z" class="g8_81"/>
<path d="M132.4,422.8c-.4,0,-.4,-.1,-.1,-.1c.2,0,.3,.1,.3,.1c.1,0,.1,.1,.1,.1c-.1,0,-.2,-.1,-.3,-.1Z" class="g8_81"/>
<path d="M127,423c-.3,-.2,-.5,-.6,-.4,-.6c.1,0,0,-.1,-.1,-.3c-.3,-.6,-1,-2.2,-1,-2.4c0,-.1,.1,.1,.3,.5c.1,.3,.6,1.2,1,1.8c.3,.7,.6,1.2,.6,1.2c-.1,0,-.2,-.1,-.4,-.2Z" class="g8_81"/>
<path d="M124.7,422.8c-.1,-.1,0,-.8,.2,-.9c0,-.1,0,0,0,.2c0,.5,-.1,.8,-.2,.7Z" class="g8_81"/>
<path d="M136.1,421.3c0,-.1,.1,-.2,.1,-.3q.1,-.1,.1,.1c0,.1,-.1,.2,-.1,.3q-.1,.1,-.1,-.1Z" class="g8_81"/>
<path d="M126.2,422.1q-.1,-.1,0,-.1c0,.1,.1,.2,.1,.2c0,.1,-.1,0,-.1,-.1Z" class="g8_81"/>
<path d="M124.9,421.7c0,-.1,0,-.2,.1,-.4c0,-.1,.1,-.3,.1,-.5c0,-.3,.3,-.2,.4,.3c0,.1,0,.2,0,.1c-.1,-.1,-.4,-.1,-.4,0c.1,.1,-.1,.6,-.2,.5Z" class="g8_81"/>
<path d="M136.3,420.6c0,0,.1,-.1,.1,-.3q.1,-.3,.1,.1c0,.2,-.1,.3,-.2,.2Z" class="g8_81"/>
<path d="M136.5,419.4c0,-.1,0,-.2,.1,-.3c0,0,.1,0,0,.2c0,0,0,.2,0,.2q-.1,0,-.1,-.1Z" class="g8_81"/>
<path d="M136.7,418.9c-.1,-.2,.1,-.7,.3,-1c.2,-.2,.2,-.4,.2,-.4c-.1,-.1,-.3,-.1,-.7,0c-.7,.1,-.8,-.1,-.1,-.2c.4,-.1,.8,-.1,.9,-.2c.3,0,.3,.2,-.1,1c-.3,.4,-.5,.8,-.5,.8Z" class="g8_81"/>
<path d="M129.5,418.7c-.1,-.1,-.3,-.2,-.5,-.4c-.3,-.2,-.7,-.8,-.5,-.7c.1,0,.2,.1,.2,.2c.1,.1,.3,.2,.4,.3c.2,.1,.4,.2,.6,.4c.3,.4,.2,.5,-.2,.2Z" class="g8_81"/>
<path d="M125.3,418.8c0,-.2,0,-.4,0,-.6c.1,-.3,.6,-1.6,.7,-1.7c.1,0,.1,.1,-.2,.9c-.1,.4,-.3,.9,-.3,1.2c-.1,.3,-.1,.4,-.2,.2Z" class="g8_81"/>
<path d="M135.4,417.3c-.2,0,-.3,-.1,-.3,-.1c-.1,-.1,.7,-.5,1,-.5c.3,-.1,.2,0,-.2,.2c-.5,.1,-.6,.3,-.4,.4q.2,.1,-.1,0Z" class="g8_81"/>
<path d="M128.8,417.3c-.1,-.1,-.1,-.3,-.2,-.4q0,-.2,.1,0c0,.1,.1,.3,.1,.4q.1,.1,0,0Z" class="g8_81"/>
<path d="M136.9,416.5c.1,0,.2,-.1,.3,0c.1,0,0,.1,-.2,.1q-.3,0,-.1,-.1Z" class="g8_81"/>
<path d="M137.5,416.2c.1,-.2,.2,-.3,.2,-.4c.1,0,-.1,.6,-.2,.6c0,.1,0,0,0,-.2Z" class="g8_81"/>
<path d="M128.4,416.4c-.1,-.1,-.2,-.2,-.1,-.3q0,-.1,.1,.1q.2,.3,0,.2Z" class="g8_81"/>
<path d="M137.9,415.4c0,-.2,.1,-.2,.1,-.2c.1,0,0,.4,-.1,.4c-.1,0,-.1,-.1,0,-.2Z" class="g8_81"/>
<path d="M127.3,416.2q-.1,-.1,0,-.1q.2,.1,.1,.2q0,.1,-.1,-.1Z" class="g8_81"/>
<path d="M126,416.3c-.1,-.2,.5,-.9,.7,-.9c.3,0,.3,.2,.1,.3c-.2,0,-.4,.2,-.5,.3c-.1,.3,-.2,.4,-.3,.3Z" class="g8_81"/>
<path d="M127.6,415.8c-.1,-.2,-.1,-.4,-.1,-.4c.1,-.1,.4,.4,.3,.6q0,.1,-.2,-.2Z" class="g8_81"/>
<path d="M138,414.9c0,-.1,.2,-.5,.3,-.5c.1,0,.1,-.1,.2,-.3c.1,-.4,1,-1.8,2,-3.3c.1,-.2,.1,-.3,0,-.4c-.1,-.1,-.1,-.2,.1,-.3c.1,-.1,.2,-.1,.3,-.1c.2,.1,0,.7,-.2,.9c-.3,.3,-1.4,2,-1.7,2.5c-.6,1.2,-.9,1.7,-1,1.5Z" class="g8_81"/>
<path d="M127.9,415.4c-.1,-.1,-.1,-.2,0,-.2c0,0,.1,.1,.1,.1c0,0,0,.1,0,.1c0,.1,-.1,0,-.1,0Z" class="g8_81"/>
<path d="M127.5,414.8c0,-.1,0,-.2,0,-.3q0,-.1,.1,.1c.1,.2,.2,.3,.1,.3c0,0,-.1,0,-.2,-.1Z" class="g8_81"/>
<path d="M127.7,414c-.1,-.1,0,-.4,.1,-.4c.1,.1,.1,.2,0,.3c0,.1,-.1,.2,-.1,.1Z" class="g8_81"/>
<path d="M128,413.2c0,-.1,.1,-.3,.3,-.4c.1,-.1,.2,-.3,.2,-.4q.1,-.1,.2,-.1c.1,-.1,0,.1,-.4,.6c-.2,.3,-.3,.4,-.3,.3Z" class="g8_81"/>
<path d="M129,411.9c.3,-.4,.8,-.9,.8,-.8c.1,0,-.4,.6,-.7,.9l-.2,.2Z" class="g8_81"/>
<path d="M132.6,411c-.1,-.1,-.2,-.4,0,-.4c.1,0,.3,.4,.2,.5c0,0,-.1,0,-.2,-.1Z" class="g8_81"/>
<path d="M136.3,410.6c.1,-.2,.2,-.3,.3,-.3c0,0,0,.1,-.1,.2c-.1,.2,-.2,.3,-.3,.3c0,0,0,-.1,.1,-.2Z" class="g8_81"/>
<path d="M130.6,410.5c.1,-.1,.2,-.2,.3,-.2c.1,0,-.2,.3,-.4,.3c-.1,0,0,0,.1,-.1Z" class="g8_81"/>
<path d="M140.7,409.6c-.1,0,0,-.1,.1,-.1c.2,-.1,.4,-.1,.4,0c0,.1,-.4,.2,-.5,.1Z" class="g8_81"/>
<path d="M131.3,409.8c.2,-.3,.5,-.5,.6,-.3c.1,.1,-.2,.3,-.7,.6c0,0,0,-.1,.1,-.3Z" class="g8_81"/>
<path d="M141.6,408.4c0,0,.1,-.1,.1,-.3c.1,-.1,.2,-.1,.2,-.1c0,0,0,.2,-.1,.3q-.1,.1,-.2,.1Z" class="g8_81"/>
<path d="M142.2,407.4c.2,-.4,.8,-1,2.4,-2.2c.8,-.7,2.6,-1.7,3.6,-2.1c1,-.3,1.1,-.4,1.1,-.5c-.2,-.2,.7,-.5,.9,-.3c.2,.2,.1,.3,-.1,.4c-.1,0,-.5,.1,-.8,.3c-.4,.1,-1,.4,-1.3,.5c-1.1,.4,-1.9,.8,-2.4,1.2c-.2,.1,-.5,.3,-.6,.4c-.1,0,-.4,.2,-.5,.4c-.2,.1,-.4,.3,-.4,.3c0,0,-.2,.1,-.4,.3c-1.1,1,-1.3,1.2,-1.3,1.4c0,.1,-.1,.2,-.2,.3c-.1,0,-.1,-.1,0,-.4Z" class="g8_81"/>
<path d="M133,408.5q0,-.1,.1,-.1c0,0,.1,0,0,0q0,.1,-.1,.1Z" class="g8_81"/>
<path d="M142.3,404.5c0,0,0,-.1,.1,-.2c.1,0,.2,-.1,.2,0c0,0,0,.1,-.1,.1c-.1,.1,-.2,.2,-.2,.1Z" class="g8_81"/>
<path d="M143,403.8c.1,-.2,.5,-.3,.5,-.2c.1,0,-.3,.3,-.5,.4q-.2,0,0,-.2Z" class="g8_81"/>
<path d="M144.6,403.2c.1,-.1,.2,-.1,.3,-.1q.1,0,0,.1c-.1,0,-.2,0,-.3,.1c-.1,0,-.1,-.1,0,-.1Z" class="g8_81"/>
<path d="M145.2,403c0,0,.4,-.1,.9,-.1c.6,-.1,.9,-.1,.9,0c0,0,-.4,.1,-.9,.1c-.6,.1,-.9,.1,-.9,0Z" class="g8_81"/>
<path d="M147.1,402.8c.1,0,.4,-.1,.9,-.1c.5,-.1,.7,-.1,.6,-.1c-.3,.1,-1.5,.3,-1.5,.2Z" class="g8_81"/>
<path d="M125.8,436.6c0,0,0,-.4,0,-.7c0,-.4,0,-.8,0,-.8c0,-.1,0,-.8,0,-.9q.1,-.2,.5,0c.9,.5,1.2,.3,1,-.7c-.1,-1,.1,-1.1,.3,-.2c.1,.8,.1,.9,-.2,1.1c-.6,.5,-1.5,1.9,-1.4,2.1c.1,.1,0,.1,-.1,.1c0,0,-.1,0,-.1,0Z" class="g9_81"/>
<path d="M127.3,432.5c0,-.1,0,-.7,.1,-.7c.1,-.1,.1,0,.1,.4c-.1,.3,-.1,.4,-.2,.3Z" class="g9_81"/>
<path d="M127.3,431.3c0,0,0,-.3,0,-.5c0,-.3,.1,-.8,.1,-1.1c.1,-1,.5,-3.2,.7,-3.2c0,0,0,.1,0,.2c0,.2,-.1,.4,-.1,.6c0,.1,-.1,.4,-.1,.6c-.2,.6,-.3,2,-.1,2.2q0,.1,-.1,.2c0,0,-.1,.3,-.2,.5c0,.5,-.1,.7,-.2,.5Z" class="g9_81"/>
<path d="M126.2,431q0,-.1,.1,-.2c0,-.1,0,-.2,0,-.3c-.1,-.3,.2,-.7,.3,-.5c0,.1,-.2,1,-.3,1.1c0,0,0,-.1,-.1,-.1Z" class="g9_81"/>
<path d="M125.9,429.8c-.1,-.1,-.1,-.2,0,-.2c0,0,.1,0,.1,.2c.1,.1,.1,.2,.1,.2c-.1,0,-.2,-.1,-.2,-.2Z" class="g9_81"/>
<path d="M126.5,429.7c0,-.1,0,-.4,.2,-.8c.1,-.4,.2,-1,.3,-1.4c.1,-.4,.2,-.8,.3,-.8c.1,-.1,.1,0,0,.3c0,.2,-.1,.5,-.1,.6c-.1,.8,-.6,2.3,-.7,2.1Z" class="g9_81"/>
<path d="M129,429.3q0,-.1,.1,-.2q.2,0,.2,.1c-.1,.1,-.4,.2,-.3,.1Z" class="g9_81"/>
<path d="M125.6,429.2q0,-.1,.1,-.1c0,0,.1,.1,.1,.2q0,.1,-.2,-.1Z" class="g9_81"/>
<path d="M129.5,428.8c0,0,.2,-.2,.4,-.4c.2,-.1,.5,-.4,.5,-.6c.2,-.2,.4,-.3,.4,-.1c0,.1,-1,1.1,-1.2,1.2q-.1,0,-.1,-.1Z" class="g9_81"/>
<path d="M125.4,428.6c-.1,-.1,-.1,-.3,-.1,-.4q0,-.1,.1,.1c0,.1,.1,.2,.1,.3q0,.2,-.1,0Z" class="g9_81"/>
<path d="M131.2,427c.2,-.3,1,-1.3,1.1,-1.4q.1,0,.1,0c.1,.1,0,.2,-.2,.4c-.1,.1,-.4,.5,-.6,.8c-.5,.6,-.8,.8,-.4,.2Z" class="g9_81"/>
<path d="M124.8,426.6c0,-.1,0,-.2,0,-.2q.1,0,.2,0c0,.1,0,.2,0,.2c-.1,.1,-.1,0,-.2,0Z" class="g9_81"/>
<path d="M128.1,426.3c0,-.5,1.5,-4,2.7,-6.2c.2,-.4,.5,-.9,.5,-1.1c0,-.3,.2,-.5,.3,-.4c.1,.2,-.2,.9,-1.3,2.8c-.5,1.1,-1,2.2,-1.2,2.5c-.2,.6,-.6,1.5,-.9,2.2c-.1,.2,-.1,.3,-.1,.2Z" class="g9_81"/>
<path d="M127.5,426q0,-.1,.1,-.1c0,-.1,.1,-.1,.1,0c0,0,0,.1,0,.1q-.1,0,-.2,0Z" class="g9_81"/>
<path d="M132.5,425.4c0,-.3,.6,-1.2,.7,-1.2c.1,0,-.6,1.3,-.7,1.3v-.1Z" class="g9_81"/>
<path d="M124.8,425.9c-.1,-.1,-.1,-.2,-.1,-.3c.1,-.2,.2,-.1,.2,.2c0,.2,-.1,.2,-.1,.1Z" class="g9_81"/>
<path d="M127.6,425.4c0,0,0,-.1,.1,-.1q.1,-.1,.1,0c.1,.1,-.1,.2,-.2,.1Z" class="g9_81"/>
<path d="M124.7,425.2c0,-.1,0,-.2,0,-.2c.1,-.2,.1,0,.1,.2v.3Z" class="g9_81"/>
<path d="M127.9,425c-.1,-.1,.3,-.7,.4,-.7c0,.1,-.1,.2,-.2,.4c-.1,.3,-.2,.4,-.2,.3Z" class="g9_81"/>
<path d="M133.2,424c0,-.1,0,-.3,-.1,-.4c-.1,-.1,0,-.2,.1,-.2c.4,0,.5,.1,.2,.5q-.1,.2,-.2,.1Z" class="g9_81"/>
<path d="M128.3,424.1c0,0,.2,-.5,.5,-1.1c.3,-.5,.4,-.7,.3,-.4c-.2,.5,-.9,1.8,-.8,1.5Z" class="g9_81"/>
<path d="M124.6,424.1c0,-.2,.1,-.9,.1,-.9c.1,.1,.1,.5,0,.8c0,.1,-.1,.1,-.1,.1Z" class="g9_81"/>
<path d="M134,423.1c-.3,0,-.6,-.1,-.7,-.1q-.2,-.1,.1,-.1c.1,.1,.5,.1,.9,.1c.5,-.1,.6,-.1,1,-.4c.3,-.1,.5,-.4,.6,-.6c.2,-.4,.2,-.3,.1,.2c-.1,.3,-.3,.4,-.7,.6c-.5,.3,-.6,.3,-1.3,.3Z" class="g9_81"/>
<path d="M132.4,422.8c-.4,0,-.4,-.1,-.1,-.1c.2,0,.3,.1,.3,.1c.1,0,.1,.1,.1,.1c-.1,0,-.2,-.1,-.3,-.1Z" class="g9_81"/>
<path d="M127,423c-.3,-.2,-.5,-.6,-.4,-.6c.1,0,0,-.1,-.1,-.3c-.3,-.6,-1,-2.2,-1,-2.4c0,-.1,.1,.1,.3,.5c.1,.3,.6,1.2,1,1.8c.3,.7,.6,1.2,.6,1.2c-.1,0,-.2,-.1,-.4,-.2Z" class="g9_81"/>
<path d="M124.7,422.8c-.1,-.1,0,-.8,.2,-.9c0,-.1,0,0,0,.2c0,.5,-.1,.8,-.2,.7Z" class="g9_81"/>
<path d="M136.1,421.3c0,-.1,.1,-.2,.1,-.3q.1,-.1,.1,.1c0,.1,-.1,.2,-.1,.3q-.1,.1,-.1,-.1Z" class="g9_81"/>
<path d="M126.2,422.1q-.1,-.1,0,-.1c0,.1,.1,.2,.1,.2c0,.1,-.1,0,-.1,-.1Z" class="g9_81"/>
<path d="M129.3,421.8c.1,-.2,.2,-.3,.2,-.3c.1,.1,0,.3,-.1,.4q-.2,.1,-.1,-.1Z" class="g9_81"/>
<path d="M129.8,420.8c.1,-.3,.3,-.6,.3,-.6c0,0,.2,-.4,.5,-1c.2,-.5,.6,-1.1,.7,-1.3c.2,-.3,.5,-.8,.8,-1.2c.4,-.7,.6,-1,.7,-.8c0,0,-.2,.4,-1,1.5c-.2,.4,-.5,.9,-.7,1.1c-.1,.3,-.3,.8,-.5,1.2c-.2,.4,-.5,1,-.6,1.2c-.3,.7,-.5,.6,-.2,-.1Z" class="g9_81"/>
<path d="M124.9,421.7c0,-.1,0,-.2,.1,-.4c0,-.1,.1,-.3,.1,-.5c0,-.3,.3,-.2,.4,.3c0,.1,0,.2,0,.1c-.1,-.1,-.4,-.1,-.4,0c.1,.1,-.1,.6,-.2,.5Z" class="g9_81"/>
<path d="M136.3,420.6c0,0,.1,-.1,.1,-.3q.1,-.3,.1,.1c0,.2,-.1,.3,-.2,.2Z" class="g9_81"/>
<path d="M136.5,419.4c0,-.1,0,-.2,.1,-.3c0,0,.1,0,0,.2c0,0,0,.2,0,.2q-.1,0,-.1,-.1Z" class="g9_81"/>
<path d="M136.7,418.9c-.1,-.2,.1,-.7,.3,-1c.2,-.2,.2,-.4,.2,-.4c-.1,-.1,-.3,-.1,-.7,0c-.7,.1,-.8,-.1,-.1,-.2c.4,-.1,.8,-.1,.9,-.2c.3,0,.3,.2,-.1,1c-.3,.4,-.5,.8,-.5,.8Z" class="g9_81"/>
<path d="M129.5,418.7c-.1,-.1,-.3,-.2,-.5,-.4c-.3,-.2,-.7,-.8,-.5,-.7c.1,0,.2,.1,.2,.2c.1,.1,.3,.2,.4,.3c.2,.1,.4,.2,.6,.4c.3,.4,.2,.5,-.2,.2Z" class="g9_81"/>
<path d="M125.3,418.8c0,-.2,0,-.4,0,-.6c.1,-.3,.6,-1.6,.7,-1.7c.1,0,.1,.1,-.2,.9c-.1,.4,-.3,.9,-.3,1.2c-.1,.3,-.1,.4,-.2,.2Z" class="g9_81"/>
<path d="M135.4,417.3c-.2,0,-.3,-.1,-.3,-.1c-.1,-.1,.7,-.5,1,-.5c.3,-.1,.2,0,-.2,.2c-.5,.1,-.6,.3,-.4,.4q.2,.1,-.1,0Z" class="g9_81"/>
<path d="M128.8,417.3c-.1,-.1,-.1,-.3,-.2,-.4q0,-.2,.1,0c0,.1,.1,.3,.1,.4q.1,.1,0,0Z" class="g9_81"/>
<path d="M136.9,416.5c.1,0,.2,-.1,.3,0c.1,0,0,.1,-.2,.1q-.3,0,-.1,-.1Z" class="g9_81"/>
<path d="M137.5,416.2c.1,-.2,.2,-.3,.2,-.4c.1,0,-.1,.6,-.2,.6c0,.1,0,0,0,-.2Z" class="g9_81"/>
<path d="M128.4,416.4c-.1,-.1,-.2,-.2,-.1,-.3q0,-.1,.1,.1q.2,.3,0,.2Z" class="g9_81"/>
<path d="M137.9,415.4c0,-.2,.1,-.2,.1,-.2c.1,0,0,.4,-.1,.4c-.1,0,-.1,-.1,0,-.2Z" class="g9_81"/>
<path d="M127.3,416.2q-.1,-.1,0,-.1q.2,.1,.1,.2q0,.1,-.1,-.1Z" class="g9_81"/>
<path d="M126,416.3c-.1,-.2,.5,-.9,.7,-.9c.3,0,.3,.2,.1,.3c-.2,0,-.4,.2,-.5,.3c-.1,.3,-.2,.4,-.3,.3Z" class="g9_81"/>
<path d="M127.6,415.8c-.1,-.2,-.1,-.4,-.1,-.4c.1,-.1,.4,.4,.3,.6q0,.1,-.2,-.2Z" class="g9_81"/>
<path d="M133,415.3c.1,-.3,.2,-.4,.3,-.4c.1,.1,-.3,.7,-.4,.7c-.1,0,0,-.1,.1,-.3Z" class="g9_81"/>
<path d="M138,414.9c0,-.1,.2,-.5,.3,-.5c.1,0,.1,-.1,.2,-.3c.1,-.4,1,-1.8,2,-3.3c.1,-.2,.1,-.3,0,-.4c-.1,-.1,-.1,-.2,.1,-.3c.1,-.1,.2,-.1,.3,-.1c.2,.1,0,.7,-.2,.9c-.3,.3,-1.4,2,-1.7,2.5c-.6,1.2,-.9,1.7,-1,1.5Z" class="g9_81"/>
<path d="M127.9,415.4c-.1,-.1,-.1,-.2,0,-.2c0,0,.1,.1,.1,.1c0,0,0,.1,0,.1c0,.1,-.1,0,-.1,0Z" class="g9_81"/>
<path d="M133.4,414.8c0,-.1,.5,-1,.8,-1.4c.1,-.2,.3,-.5,.4,-.6c.2,-.4,.8,-1.1,.9,-1.1c0,0,0,.2,-.1,.3c-.1,.1,-.3,.3,-.3,.3c-.1,.1,-.3,.4,-.5,.8c-.3,.3,-.6,.8,-.7,1c-.3,.6,-.4,.7,-.5,.7Z" class="g9_81"/>
<path d="M127.5,414.8c0,-.1,0,-.2,0,-.3q0,-.1,.1,.1c.1,.2,.2,.3,.1,.3c0,0,-.1,0,-.2,-.1Z" class="g9_81"/>
<path d="M127.7,414c-.1,-.1,0,-.4,.1,-.4c.1,.1,.1,.2,0,.3c0,.1,-.1,.2,-.1,.1Z" class="g9_81"/>
<path d="M128,413.2c0,-.1,.1,-.3,.3,-.4c.1,-.1,.2,-.3,.2,-.4q.1,-.1,.2,-.1c.1,-.1,0,.1,-.4,.6c-.2,.3,-.3,.4,-.3,.3Z" class="g9_81"/>
<path d="M129,411.9c.3,-.4,.8,-.9,.8,-.8c.1,0,-.4,.6,-.7,.9l-.2,.2Z" class="g9_81"/>
<path d="M135.9,411.1c.1,-.1,.2,-.2,.2,-.2c0,0,0,.1,-.1,.2l-.2,.3Z" class="g9_81"/>
<path d="M132.6,411c-.1,-.1,-.2,-.4,0,-.4c.1,0,.3,.4,.2,.5c0,0,-.1,0,-.2,-.1Z" class="g9_81"/>
<path d="M130.6,410.5c.1,-.1,.2,-.2,.3,-.2c.1,0,-.2,.3,-.4,.3c-.1,0,0,0,.1,-.1Z" class="g9_81"/>
<path d="M140.7,409.6c-.1,0,0,-.1,.1,-.1c.2,-.1,.4,-.1,.4,0c0,.1,-.4,.2,-.5,.1Z" class="g9_81"/>
<path d="M131.3,409.8c.2,-.3,.5,-.5,.6,-.3c.1,.1,-.2,.3,-.7,.6c0,0,0,-.1,.1,-.3Z" class="g9_81"/>
<path d="M141.6,408.4c0,0,.1,-.1,.1,-.3c.1,-.1,.2,-.1,.2,-.1c0,0,0,.2,-.1,.3q-.1,.1,-.2,.1Z" class="g9_81"/>
<path d="M142.2,407.4c.2,-.4,.8,-1,2.4,-2.2c.8,-.7,2.6,-1.7,3.6,-2.1c1,-.3,1.1,-.4,1.1,-.5c-.2,-.2,.7,-.5,.9,-.3c.2,.2,.1,.3,-.1,.4c-.1,0,-.5,.1,-.8,.3c-.4,.1,-1,.4,-1.3,.5c-1.1,.4,-1.9,.8,-2.4,1.2c-.2,.1,-.5,.3,-.6,.4c-.1,0,-.4,.2,-.5,.4c-.2,.1,-.4,.3,-.4,.3c0,0,-.2,.1,-.4,.3c-1.1,1,-1.3,1.2,-1.3,1.4c0,.1,-.1,.2,-.2,.3c-.1,0,-.1,-.1,0,-.4Z" class="g9_81"/>
<path d="M133,408.5q0,-.1,.1,-.1c0,0,.1,0,0,0q0,.1,-.1,.1Z" class="g9_81"/>
<path d="M142.3,404.5c0,0,0,-.1,.1,-.2c.1,0,.2,-.1,.2,0c0,0,0,.1,-.1,.1c-.1,.1,-.2,.2,-.2,.1Z" class="g9_81"/>
<path d="M143,403.8c.1,-.2,.5,-.3,.5,-.2c.1,0,-.3,.3,-.5,.4q-.2,0,0,-.2Z" class="g9_81"/>
<path d="M144.6,403.2c.1,-.1,.2,-.1,.3,-.1q.1,0,0,.1c-.1,0,-.2,0,-.3,.1c-.1,0,-.1,-.1,0,-.1Z" class="g9_81"/>
<path d="M145.2,403c0,0,.4,-.1,.9,-.1c.6,-.1,.9,-.1,.9,0c0,0,-.4,.1,-.9,.1c-.6,.1,-.9,.1,-.9,0Z" class="g9_81"/>
<path d="M147.1,402.8c.1,0,.4,-.1,.9,-.1c.5,-.1,.7,-.1,.6,-.1c-.3,.1,-1.5,.3,-1.5,.2Z" class="g9_81"/>
<path d="M128.2,416.3c-.1,-.1,-.1,-.2,-.1,-.1c-.1,.2,0,.4,.1,.4c.1,0,.1,-.1,0,-.3Z" class="g4_81"/>
</g>
<path d="M152.7,448.2H467.5" class="g0_81"/>
<path d="M137.6,456.4v43.8" class="gb_81"/>
<path d="M117.7,661.4V551.3H791.8V661.4Z" class="g1_81"/>
<path d="M117.7,661.4V551.3H791.8V661.4Z" class="ga_81"/>
<g clip-path="url(#c6_81)">
<path clip-path="url(#c1_81)" d="M126.4,583.4c0,0,1.5,-.9,1.2,-1.2c-.1,-.2,-.3,-.2,-.6,-.1c-1.6,.3,-5,2.1,-3.3,4.1c1.4,1.6,6.4,2.4,11.7,1.4c7.3,-1.4,13.5,-5.4,11.1,-8.3c-1.6,-1.9,-6.7,-2.1,-10.8,-2.2c-2.1,0,-6.6,-.1,-8,-1.7c-.6,-.7,-.5,-1.6,.1,-2.2c1,-.9,3.8,-1.4,4,-1.4c.7,-.2,2.5,-.5,4.6,-.4c1.1,0,2.5,0,3.2,.9c.2,.3,.4,.6,.4,.7c0,.1,0,.2,.1,.2c.1,.1,.4,.1,.5,.1c.5,-.1,1.5,-.5,2,-1c.3,-.3,.8,-.7,0,-1.6c-.9,-1,-2.3,-1.1,-4,-1.1c-2.3,-.1,-4.1,.3,-4.9,.4c-5.8,1.1,-11.1,4.6,-9,7c1.5,1.9,6.3,1.9,9,2c3.9,0,8.4,.2,9.8,2c.6,.6,.9,1.8,-.4,2.8c-1.2,.9,-4,1.7,-5.8,2.1c-4.4,.8,-9.4,.1,-10.6,-1.3c0,-.1,-.5,-.6,-.3,-1.2Z" class="gc_81"/>
<path d="M131.5,585.8l-.2,-.2l.3,-4.5c.3,-5.6,.3,-5.7,.5,-6c.1,-.2,1.6,-2.3,3.3,-4.6c1.7,-2.4,4.3,-6.1,5.9,-8.3c1.5,-2.2,2.8,-3.9,2.9,-3.9c.4,0,.1,.4,-1.8,3.2c-1.2,1.6,-3.7,5.2,-5.7,8c-2,2.9,-3.6,5.2,-3.6,5.2c0,.1,.5,.1,1,.2c2,.2,3.3,.6,4.5,1.2c.6,.3,1,.6,1.5,1.1c.8,.8,1.2,1.4,1.4,2.2c.1,.3,.1,.5,.2,.5c.1,0,.7,-.8,5.2,-7.6c2.4,-3.6,4.5,-6.7,4.6,-6.8c.2,-.2,.4,-.1,.2,.2c0,.1,-1.5,2.4,-3.2,5c-1.8,2.7,-3.8,5.7,-4.5,6.8c-1.5,2.4,-2.1,3.3,-2.3,3.8c-.2,.3,-.3,.4,-.9,.7c-.8,.4,-8.7,3.9,-8.9,4c-.1,0,-.3,0,-.4,-.2Z" class="gc_81"/>
<path d="M135.2,583.9c2.2,-1,4,-1.8,4.6,-2.1q.7,-.4,.7,-1.4c-.2,-1.7,-1.4,-3,-3.6,-3.8c-1.2,-.3,-4.3,-.8,-4.4,-.6c0,.1,-.1,1.5,-.2,3.2c-.1,1.6,-.2,3.3,-.2,3.6c-.1,1.1,.1,1.4,-.2,2.5c.1,.1,1.8,-.8,1.8,-.8c.1,0,.7,-.3,1.5,-.6Z" class="gc_81"/>
<path d="M131.5,585.8l-.2,-.2l.3,-4.5c.3,-5.6,.3,-5.7,.5,-6c.1,-.2,1.6,-2.3,3.3,-4.6c1.7,-2.4,4.3,-6.1,5.9,-8.3c1.5,-2.2,2.8,-3.9,2.9,-3.9c.4,0,.1,.4,-1.8,3.2c-1.2,1.6,-3.7,5.2,-5.7,8c-2,2.9,-3.6,5.2,-3.6,5.2c0,.1,.5,.1,1,.2c2,.2,3.3,.6,4.5,1.2c.6,.3,1,.6,1.5,1.1c.8,.8,1.2,1.4,1.4,2.2c.1,.3,.1,.5,.2,.5c.1,0,.7,-.8,5.2,-7.6c2.4,-3.6,4.5,-6.7,4.6,-6.8c.2,-.2,.4,-.1,.2,.2c0,.1,-1.5,2.4,-3.2,5c-1.8,2.7,-3.8,5.7,-4.5,6.8c-1.5,2.4,-2.1,3.3,-2.3,3.8c-.2,.3,-.3,.4,-.9,.7c-.8,.4,-8.7,3.9,-8.9,4c-.1,0,-.3,0,-.4,-.2Zm3.7,-1.9c2.2,-1,4,-1.8,4.6,-2.1q.7,-.4,.7,-1.4c-.2,-1.7,-1.4,-3,-3.6,-3.8c-1.2,-.3,-4.3,-.8,-4.4,-.6c0,.1,-.1,1.5,-.2,3.2c-.1,1.6,-.2,3.3,-.2,3.6c-.1,1.1,.1,1.4,-.2,2.5c.1,.1,1.8,-.8,1.8,-.8c.1,0,.7,-.3,1.5,-.6Z" class="gd_81"/>
<path d="M135.3,575.3l11.2,-16.1m-8.2,17.2L149,560.7" class="ge_81"/>
<path d="M140.4,578.1l10,-14.4l.2,-.4" class="gf_81"/>
<path d="M134.1,574.9c-.4,-.1,-.8,-.2,-.9,-.2c0,0,2.5,-3.7,6.7,-9.6c1.9,-2.7,3.6,-5.2,3.8,-5.5c.2,-.4,.4,-.6,.5,-.6c.1,0,.7,.4,.9,.7c.1,.3,.1,.5,-.1,1c-.2,.5,-9.8,14.3,-9.9,14.3c-.1,0,-.5,-.1,-1,-.1Z" class="gg_81"/>
<path d="M137.6,575.6c-.2,-.1,-.8,-.2,-1.2,-.4l-.7,-.1l.3,-.4c.1,-.2,2.3,-3.3,4.8,-7l4.7,-6.6l.5,-.3c.9,-.5,1.6,-.5,2.1,0l.3,.3l-5,7.4c-3.1,4.5,-5.1,7.4,-5.1,7.4c-.1,0,-.4,-.2,-.7,-.3Z" class="gg_81"/>
<path d="M140,577.1c-.2,-.3,-.6,-.6,-.8,-.7c-.2,-.1,-.3,-.3,-.3,-.3c0,-.1,9.4,-14,9.8,-14.6c.1,0,.5,.4,.8,.8c.3,.3,.3,.5,.4,1c0,.3,0,.6,-.1,.7c-.2,.3,-9.1,13.2,-9.2,13.3q-.2,.2,-.6,-.2Z" class="gg_81"/>
<path d="M141.6,579.7c0,-.1,-.1,-.3,-.1,-.6c-.1,-.2,-.3,-.6,-.4,-.8l-.3,-.4l4.7,-6.8c2.6,-3.7,4.8,-6.8,4.8,-6.8c.4,0,1,.7,1,1.2c0,.1,-.6,1.1,-1.9,3c-1.1,1.6,-3.1,4.7,-4.6,6.9c-3,4.3,-3.1,4.5,-3.2,4.3Z" class="gg_81"/>
<path d="M131.9,581.2c2.3,-.1,3.6,.7,4.1,2.3" class="gh_81"/>
<path d="M132,585.1c0,-.4,.1,-.4,.1,-1.3c0,-.8,0,-1,0,-1.4c0,-.2,0,-.5,0,-.7l.1,-.2c.1,0,.6,0,.7,0c.4,.1,.8,.2,1.1,.3c.2,0,.4,.2,.6,.3c.2,.1,.3,.2,.4,.3c.3,.3,.4,.5,.6,.8c0,.1,.1,.4,.1,.4c0,0,-1.5,.7,-1.8,.8c-.1,0,-.2,.1,-.3,.1c-1.1,.6,-1.4,.8,-1.6,.8Z" class="gc_81"/>
<path d="M136.2,583c-.6,-1.2,-1.8,-2,-3.4,-2.1h-.6v-.5c.1,-.3,.1,-1.3,.2,-2.2c0,-1,.1,-1.8,.1,-2l.1,-.2l.7,.1c.8,0,2.3,.2,3.1,.4c1.7,.5,3.1,1.4,3.6,2.5c.4,.8,.6,2.1,.3,2.4c-.1,.2,-.8,.5,-2.5,1.3c-1.6,.7,-1.5,.7,-1.6,.3Z" class="gi_81"/>
<path d="M136.2,583c-.6,-1.2,-1.8,-2,-3.4,-2.1h-.6v-.5c.1,-.3,.1,-1.3,.2,-2.2c0,-1,.1,-1.8,.1,-2l.1,-.2l.7,.1c.8,0,2.3,.2,3.1,.4c1.7,.5,3.1,1.4,3.6,2.5c.4,.8,.6,2.1,.3,2.4c-.1,.2,-.8,.5,-2.5,1.3c-1.6,.7,-1.5,.7,-1.6,.3Z" class="gj_81"/>
</g>
<path d="M152.7,602.9H479.6" class="g0_81"/>
<path d="M137.6,608.1V652" class="gb_81"/>
<path d="M117.7,813.1V703H791.8V813.1Z" class="g1_81"/>
<path d="M117.7,813.1V703H791.8V813.1Z" class="ga_81"/>
<g clip-path="url(#c7_81)">
<path clip-path="url(#c2_81)" d="M126.4,735.1c0,0,1.5,-.9,1.2,-1.2c-.1,-.1,-.3,-.1,-.6,-.1c-1.6,.4,-5,2.1,-3.3,4.2c1.4,1.5,6.4,2.4,11.7,1.3c7.3,-1.4,13.5,-5.4,11.1,-8.3c-1.6,-1.9,-6.7,-2.1,-10.8,-2.2c-2.1,0,-6.6,0,-8,-1.7c-.6,-.7,-.5,-1.6,.1,-2.1c1,-.9,3.8,-1.5,4,-1.5c.7,-.1,2.5,-.4,4.6,-.4c1.1,0,2.5,0,3.2,1c.2,.2,.4,.5,.4,.6c0,.1,0,.2,.1,.3c.1,.1,.4,.1,.5,0c.5,-.1,1.5,-.5,2,-1c.3,-.3,.8,-.6,0,-1.6c-.9,-1,-2.3,-1.1,-4,-1.1c-2.3,0,-4.1,.3,-4.9,.4c-5.8,1.2,-11.1,4.6,-9,7.1c1.5,1.8,6.3,1.9,9,1.9c3.9,0,8.4,.3,9.8,2c.6,.6,.9,1.8,-.4,2.8c-1.2,1,-4,1.8,-5.8,2.1c-4.4,.8,-9.4,.1,-10.6,-1.3c0,0,-.5,-.6,-.3,-1.2Z" class="gc_81"/>
<path d="M131.5,737.6l-.2,-.2l.3,-4.6q.3,-5.6,.5,-6c.1,-.2,1.6,-2.2,3.3,-4.6c1.7,-2.4,4.3,-6.1,5.9,-8.2c1.5,-2.2,2.8,-4,2.9,-4c.4,0,.1,.4,-1.8,3.2c-1.2,1.6,-3.7,5.2,-5.7,8.1c-2,2.8,-3.6,5.2,-3.6,5.2c0,0,.5,.1,1,.1c2,.3,3.3,.6,4.5,1.2c.6,.3,1,.6,1.5,1.2c.8,.7,1.2,1.3,1.4,2.2c.1,.2,.1,.4,.2,.4c.1,0,.7,-.8,5.2,-7.6c2.4,-3.6,4.5,-6.7,4.6,-6.8c.2,-.2,.4,0,.2,.3c0,.1,-1.5,2.3,-3.2,5c-1.8,2.6,-3.8,5.7,-4.5,6.7c-1.5,2.4,-2.1,3.3,-2.3,3.8c-.2,.3,-.3,.4,-.9,.7c-.8,.4,-8.7,3.9,-8.9,4c-.1,0,-.3,0,-.4,-.1Z" class="gc_81"/>
<path d="M135.2,735.6c2.2,-1,4,-1.8,4.6,-2.1c.7,-.3,.7,-.4,.7,-1.4c-.2,-1.7,-1.4,-3,-3.6,-3.7c-1.2,-.4,-4.3,-.9,-4.4,-.6c0,0,-.1,1.4,-.2,3.1c-.1,1.7,-.2,3.3,-.2,3.6c-.1,1.1,.1,1.4,-.2,2.5c.1,.2,1.8,-.8,1.8,-.8c.1,0,.7,-.3,1.5,-.6Z" class="gc_81"/>
<path d="M131.5,737.6l-.2,-.2l.3,-4.6q.3,-5.6,.5,-6c.1,-.2,1.6,-2.2,3.3,-4.6c1.7,-2.4,4.3,-6.1,5.9,-8.2c1.5,-2.2,2.8,-4,2.9,-4c.4,0,.1,.4,-1.8,3.2c-1.2,1.6,-3.7,5.2,-5.7,8.1c-2,2.8,-3.6,5.2,-3.6,5.2c0,0,.5,.1,1,.1c2,.3,3.3,.6,4.5,1.2c.6,.3,1,.6,1.5,1.2c.8,.7,1.2,1.3,1.4,2.2c.1,.2,.1,.4,.2,.4c.1,0,.7,-.8,5.2,-7.6c2.4,-3.6,4.5,-6.7,4.6,-6.8c.2,-.2,.4,0,.2,.3c0,.1,-1.5,2.3,-3.2,5c-1.8,2.6,-3.8,5.7,-4.5,6.7c-1.5,2.4,-2.1,3.3,-2.3,3.8c-.2,.3,-.3,.4,-.9,.7c-.8,.4,-8.7,3.9,-8.9,4c-.1,0,-.3,0,-.4,-.1Zm3.7,-2c2.2,-1,4,-1.8,4.6,-2.1c.7,-.3,.7,-.4,.7,-1.4c-.2,-1.7,-1.4,-3,-3.6,-3.7c-1.2,-.4,-4.3,-.9,-4.4,-.6c0,0,-.1,1.4,-.2,3.1c-.1,1.7,-.2,3.3,-.2,3.6c-.1,1.1,.1,1.4,-.2,2.5c.1,.2,1.8,-.8,1.8,-.8c.1,0,.7,-.3,1.5,-.6Z" class="gd_81"/>
<path d="M135.3,727l11.2,-16.1m-8.2,17.2L149,712.4" class="ge_81"/>
<path d="M140.4,729.8l10,-14.4l.2,-.4" class="gf_81"/>
<path d="M134.1,726.6c-.4,-.1,-.8,-.1,-.9,-.2c0,0,2.5,-3.6,6.7,-9.6c1.9,-2.7,3.6,-5.1,3.8,-5.5c.2,-.3,.4,-.6,.5,-.6c.1,0,.7,.5,.9,.7c.1,.3,.1,.5,-.1,1.1c-.2,.5,-9.8,14.2,-9.9,14.2c-.1,0,-.5,0,-1,-.1Z" class="gg_81"/>
<path d="M137.6,727.4c-.2,-.2,-.8,-.3,-1.2,-.4l-.7,-.2l.3,-.3c.1,-.2,2.3,-3.4,4.8,-7.1l4.7,-6.6l.5,-.3c.9,-.5,1.6,-.5,2.1,0l.3,.3l-5,7.4c-3.1,4.5,-5.1,7.4,-5.1,7.4c-.1,0,-.4,-.1,-.7,-.2Z" class="gg_81"/>
<path d="M140,728.8c-.2,-.3,-.6,-.5,-.8,-.7c-.2,-.1,-.3,-.2,-.3,-.3c0,-.1,9.4,-13.9,9.8,-14.5c.1,-.1,.5,.3,.8,.7c.3,.4,.3,.5,.4,1c0,.3,0,.6,-.1,.7c-.2,.3,-9.1,13.2,-9.2,13.4q-.2,.1,-.6,-.3Z" class="gg_81"/>
<path d="M141.6,731.4c0,0,-.1,-.3,-.1,-.5c-.1,-.3,-.3,-.6,-.4,-.9l-.3,-.4l4.7,-6.7c2.6,-3.8,4.8,-6.8,4.8,-6.8c.4,0,1,.7,1,1.1c0,.1,-.6,1.2,-1.9,3.1c-1.1,1.5,-3.1,4.6,-4.6,6.8c-3,4.4,-3.1,4.5,-3.2,4.3Z" class="gg_81"/>
<path d="M131.9,732.9c2.3,-.1,3.6,.7,4.1,2.3" class="gh_81"/>
<path d="M132,736.9c0,-.4,.1,-.5,.1,-1.4c0,-.7,0,-.9,0,-1.3c0,-.3,0,-.6,0,-.7l.1,-.3c.1,0,.6,0,.7,.1c.4,0,.8,.1,1.1,.2c.2,.1,.4,.2,.6,.3c.2,.1,.3,.2,.4,.4c.3,.2,.4,.4,.6,.7c0,.2,.1,.4,.1,.4c0,.1,-1.5,.7,-1.8,.8c-.1,.1,-.2,.1,-.3,.2c-1.1,.5,-1.4,.7,-1.6,.7Z" class="gc_81"/>
<path d="M136.2,734.7c-.6,-1.2,-1.8,-1.9,-3.4,-2.1h-.6v-.5c.1,-.3,.1,-1.3,.2,-2.2c0,-.9,.1,-1.8,.1,-1.9l.1,-.3l.7,.1c.8,0,2.3,.3,3.1,.5c1.7,.4,3.1,1.4,3.6,2.5c.4,.7,.6,2.1,.3,2.4c-.1,.1,-.8,.5,-2.5,1.2c-1.6,.7,-1.5,.7,-1.6,.3Z" class="gi_81"/>
<path d="M136.2,734.7c-.6,-1.2,-1.8,-1.9,-3.4,-2.1h-.6v-.5c.1,-.3,.1,-1.3,.2,-2.2c0,-.9,.1,-1.8,.1,-1.9l.1,-.3l.7,.1c.8,0,2.3,.3,3.1,.5c1.7,.4,3.1,1.4,3.6,2.5c.4,.7,.6,2.1,.3,2.4c-.1,.1,-.8,.5,-2.5,1.2c-1.6,.7,-1.5,.7,-1.6,.3Z" class="gj_81"/>
</g>
<path d="M152.7,754.6h310" class="g0_81"/>
<path d="M137.6,759.9v43.8" class="gb_81"/>
<path d="M117.7,964.8V854.7H791.8V964.8Z" class="g1_81"/>
<path d="M117.7,964.8V854.7H791.8V964.8Z" class="ga_81"/>
<g clip-path="url(#c8_81)">
<path clip-path="url(#c3_81)" d="M126.4,886.9c0,0,1.5,-.9,1.2,-1.3c-.1,-.1,-.3,-.1,-.6,0c-1.6,.3,-5,2.1,-3.3,4.1c1.4,1.6,6.4,2.4,11.7,1.4c7.3,-1.4,13.5,-5.5,11.1,-8.3c-1.6,-2,-6.7,-2.1,-10.8,-2.2c-2.1,0,-6.6,-.1,-8,-1.7c-.6,-.7,-.5,-1.6,.1,-2.2c1,-.9,3.8,-1.4,4,-1.5c.7,-.1,2.5,-.4,4.6,-.4c1.1,.1,2.5,.1,3.2,1c.2,.2,.4,.6,.4,.7c0,0,0,.1,.1,.2c.1,.1,.4,.1,.5,.1c.5,-.1,1.5,-.6,2,-1.1c.3,-.2,.8,-.6,0,-1.5c-.9,-1.1,-2.3,-1.2,-4,-1.2c-2.3,0,-4.1,.3,-4.9,.5c-5.8,1.1,-11.1,4.6,-9,7c1.5,1.8,6.3,1.9,9,1.9c3.9,.1,8.4,.3,9.8,2c.6,.7,.9,1.9,-.4,2.9c-1.2,.9,-4,1.7,-5.8,2c-4.4,.9,-9.4,.2,-10.6,-1.2c0,-.1,-.5,-.6,-.3,-1.2Z" class="gc_81"/>
<path d="M131.5,889.3l-.2,-.2l.3,-4.6q.3,-5.6,.5,-6c.1,-.1,1.6,-2.2,3.3,-4.6c1.7,-2.3,4.3,-6,5.9,-8.2c1.5,-2.2,2.8,-4,2.9,-4c.4,0,.1,.4,-1.8,3.2c-1.2,1.6,-3.7,5.3,-5.7,8.1c-2,2.9,-3.6,5.2,-3.6,5.2c0,0,.5,.1,1,.2c2,.2,3.3,.5,4.5,1.2c.6,.3,1,.5,1.5,1.1c.8,.8,1.2,1.4,1.4,2.2c.1,.2,.1,.4,.2,.4c.1,0,.7,-.8,5.2,-7.5c2.4,-3.7,4.5,-6.7,4.6,-6.8c.2,-.3,.4,-.1,.2,.2c0,.1,-1.5,2.3,-3.2,5c-1.8,2.7,-3.8,5.7,-4.5,6.7c-1.5,2.4,-2.1,3.4,-2.3,3.8c-.2,.4,-.3,.5,-.9,.8c-.8,.3,-8.7,3.9,-8.9,3.9c-.1,.1,-.3,0,-.4,-.1Z" class="gc_81"/>
<path d="M135.2,887.3c2.2,-.9,4,-1.7,4.6,-2c.7,-.4,.7,-.5,.7,-1.5c-.2,-1.7,-1.4,-3,-3.6,-3.7c-1.2,-.4,-4.3,-.8,-4.4,-.6c0,0,-.1,1.4,-.2,3.1c-.1,1.7,-.2,3.3,-.2,3.6c-.1,1.2,.1,1.4,-.2,2.6c.1,.1,1.8,-.8,1.8,-.8c.1,0,.7,-.3,1.5,-.7Z" class="gc_81"/>
<path d="M131.5,889.3l-.2,-.2l.3,-4.6q.3,-5.6,.5,-6c.1,-.1,1.6,-2.2,3.3,-4.6c1.7,-2.3,4.3,-6,5.9,-8.2c1.5,-2.2,2.8,-4,2.9,-4c.4,0,.1,.4,-1.8,3.2c-1.2,1.6,-3.7,5.3,-5.7,8.1c-2,2.9,-3.6,5.2,-3.6,5.2c0,0,.5,.1,1,.2c2,.2,3.3,.5,4.5,1.2c.6,.3,1,.5,1.5,1.1c.8,.8,1.2,1.4,1.4,2.2c.1,.2,.1,.4,.2,.4c.1,0,.7,-.8,5.2,-7.5c2.4,-3.7,4.5,-6.7,4.6,-6.8c.2,-.3,.4,-.1,.2,.2c0,.1,-1.5,2.3,-3.2,5c-1.8,2.7,-3.8,5.7,-4.5,6.7c-1.5,2.4,-2.1,3.4,-2.3,3.8c-.2,.4,-.3,.5,-.9,.8c-.8,.3,-8.7,3.9,-8.9,3.9c-.1,.1,-.3,0,-.4,-.1Zm3.7,-2c2.2,-.9,4,-1.7,4.6,-2c.7,-.4,.7,-.5,.7,-1.5c-.2,-1.7,-1.4,-3,-3.6,-3.7c-1.2,-.4,-4.3,-.8,-4.4,-.6c0,0,-.1,1.4,-.2,3.1c-.1,1.7,-.2,3.3,-.2,3.6c-.1,1.2,.1,1.4,-.2,2.6c.1,.1,1.8,-.8,1.8,-.8c.1,0,.7,-.3,1.5,-.7Z" class="gd_81"/>
<path d="M135.3,878.7l11.2,-16m-8.2,17.1L149,864.1" class="ge_81"/>
<path d="M140.4,881.5l10,-14.4l.2,-.3" class="gf_81"/>
<path d="M134.1,878.3c-.4,0,-.8,-.1,-.9,-.1c0,-.1,2.5,-3.7,6.7,-9.6c1.9,-2.7,3.6,-5.2,3.8,-5.6c.2,-.3,.4,-.6,.5,-.6c.1,0,.7,.5,.9,.7c.1,.3,.1,.6,-.1,1.1c-.2,.5,-9.8,14.3,-9.9,14.3c-.1,0,-.5,-.1,-1,-.2Z" class="gg_81"/>
<path d="M137.6,879.1c-.2,-.1,-.8,-.3,-1.2,-.4l-.7,-.2l.3,-.3c.1,-.2,2.3,-3.4,4.8,-7l4.7,-6.7l.5,-.3c.9,-.4,1.6,-.4,2.1,.1l.3,.3l-5,7.3c-3.1,4.5,-5.1,7.4,-5.1,7.4c-.1,0,-.4,-.1,-.7,-.2Z" class="gg_81"/>
<path d="M140,880.5c-.2,-.2,-.6,-.5,-.8,-.6c-.2,-.2,-.3,-.3,-.3,-.4c0,0,9.4,-13.9,9.8,-14.5c.1,-.1,.5,.3,.8,.7c.3,.4,.3,.6,.4,1c0,.4,0,.6,-.1,.8c-.2,.3,-9.1,13.1,-9.2,13.3q-.2,.1,-.6,-.3Z" class="gg_81"/>
<path d="M141.6,883.2c0,-.1,-.1,-.4,-.1,-.6c-.1,-.2,-.3,-.6,-.4,-.8l-.3,-.4l4.7,-6.8c2.6,-3.7,4.8,-6.8,4.8,-6.8c.4,0,1,.7,1,1.1c0,.2,-.6,1.2,-1.9,3.1c-1.1,1.6,-3.1,4.6,-4.6,6.8c-3,4.4,-3.1,4.6,-3.2,4.4Z" class="gg_81"/>
<path d="M131.9,884.7c2.3,-.1,3.6,.7,4.1,2.3" class="gh_81"/>
<path d="M132,888.6c0,-.4,.1,-.5,.1,-1.4c0,-.7,0,-.9,0,-1.3c0,-.3,0,-.6,0,-.7l.1,-.2c.1,-.1,.6,0,.7,0c.4,0,.8,.1,1.1,.2c.2,.1,.4,.2,.6,.3c.2,.1,.3,.2,.4,.4c.3,.2,.4,.4,.6,.7c0,.2,.1,.5,.1,.5c0,0,-1.5,.7,-1.8,.8c-.1,0,-.2,.1,-.3,.1c-1.1,.6,-1.4,.7,-1.6,.8Z" class="gc_81"/>
<path d="M136.2,886.5c-.6,-1.3,-1.8,-2,-3.4,-2.1l-.6,-.1v-.5c.1,-.2,.1,-1.2,.2,-2.2c0,-.9,.1,-1.8,.1,-1.9l.1,-.2h.7c.8,.1,2.3,.3,3.1,.5c1.7,.4,3.1,1.4,3.6,2.5c.4,.8,.6,2.1,.3,2.4c-.1,.1,-.8,.5,-2.5,1.3c-1.6,.7,-1.5,.6,-1.6,.3Z" class="gi_81"/>
<path d="M136.2,886.5c-.6,-1.3,-1.8,-2,-3.4,-2.1l-.6,-.1v-.5c.1,-.2,.1,-1.2,.2,-2.2c0,-.9,.1,-1.8,.1,-1.9l.1,-.2h.7c.8,.1,2.3,.3,3.1,.5c1.7,.4,3.1,1.4,3.6,2.5c.4,.8,.6,2.1,.3,2.4c-.1,.1,-.8,.5,-2.5,1.3c-1.6,.7,-1.5,.6,-1.6,.3Z" class="gj_81"/>
</g>
<path d="M152.7,906.4H597.9" class="g0_81"/>
<path d="M137.6,911.6v43.8" class="gb_81"/>
<path d="M117.7,1116.6V1006.5H791.8v110.1Z" class="g1_81"/>
<path d="M117.7,1116.6V1006.5H791.8v110.1Z" class="ga_81"/>
<g clip-path="url(#c9_81)">
<path clip-path="url(#c4_81)" d="M126.4,1038.6c0,0,1.5,-.9,1.2,-1.3c-.1,-.1,-.3,-.1,-.6,0c-1.6,.3,-5,2.1,-3.3,4.1c1.4,1.6,6.4,2.4,11.7,1.4c7.3,-1.4,13.5,-5.4,11.1,-8.3c-1.6,-2,-6.7,-2.1,-10.8,-2.2c-2.1,0,-6.6,-.1,-8,-1.7c-.6,-.7,-.5,-1.6,.1,-2.2c1,-.9,3.8,-1.4,4,-1.4c.7,-.2,2.5,-.5,4.6,-.4c1.1,0,2.5,0,3.2,.9c.2,.3,.4,.6,.4,.7c0,.1,0,.2,.1,.2c.1,.1,.4,.1,.5,.1c.5,-.1,1.5,-.5,2,-1c.3,-.3,.8,-.7,0,-1.6c-.9,-1.1,-2.3,-1.1,-4,-1.1c-2.3,-.1,-4.1,.3,-4.9,.4c-5.8,1.1,-11.1,4.6,-9,7c1.5,1.9,6.3,1.9,9,2c3.9,0,8.4,.2,9.8,2c.6,.6,.9,1.8,-.4,2.8c-1.2,.9,-4,1.7,-5.8,2c-4.4,.9,-9.4,.2,-10.6,-1.2c0,-.1,-.5,-.6,-.3,-1.2Z" class="gc_81"/>
<path d="M131.5,1041l-.2,-.2l.3,-4.5q.3,-5.7,.5,-6c.1,-.2,1.6,-2.3,3.3,-4.6c1.7,-2.4,4.3,-6.1,5.9,-8.3c1.5,-2.2,2.8,-3.9,2.9,-3.9c.4,0,.1,.4,-1.8,3.2c-1.2,1.6,-3.7,5.2,-5.7,8c-2,2.9,-3.6,5.2,-3.6,5.2c0,.1,.5,.1,1,.2c2,.2,3.3,.6,4.5,1.2c.6,.3,1,.6,1.5,1.1c.8,.8,1.2,1.4,1.4,2.2c.1,.3,.1,.5,.2,.5c.1,0,.7,-.8,5.2,-7.6c2.4,-3.7,4.5,-6.7,4.6,-6.8c.2,-.2,.4,-.1,.2,.2c0,.1,-1.5,2.4,-3.2,5c-1.8,2.7,-3.8,5.7,-4.5,6.8c-1.5,2.4,-2.1,3.3,-2.3,3.8c-.2,.3,-.3,.4,-.9,.7c-.8,.4,-8.7,3.9,-8.9,4c-.1,0,-.3,-.1,-.4,-.2Z" class="gc_81"/>
<path d="M135.2,1039.1c2.2,-1,4,-1.8,4.6,-2.1q.7,-.4,.7,-1.4c-.2,-1.7,-1.4,-3,-3.6,-3.8c-1.2,-.4,-4.3,-.8,-4.4,-.6c0,0,-.1,1.5,-.2,3.2c-.1,1.6,-.2,3.3,-.2,3.5c-.1,1.2,.1,1.5,-.2,2.6c.1,.1,1.8,-.8,1.8,-.8c.1,0,.7,-.3,1.5,-.6Z" class="gc_81"/>
<path d="M131.5,1041l-.2,-.2l.3,-4.5q.3,-5.7,.5,-6c.1,-.2,1.6,-2.3,3.3,-4.6c1.7,-2.4,4.3,-6.1,5.9,-8.3c1.5,-2.2,2.8,-3.9,2.9,-3.9c.4,0,.1,.4,-1.8,3.2c-1.2,1.6,-3.7,5.2,-5.7,8c-2,2.9,-3.6,5.2,-3.6,5.2c0,.1,.5,.1,1,.2c2,.2,3.3,.6,4.5,1.2c.6,.3,1,.6,1.5,1.1c.8,.8,1.2,1.4,1.4,2.2c.1,.3,.1,.5,.2,.5c.1,0,.7,-.8,5.2,-7.6c2.4,-3.7,4.5,-6.7,4.6,-6.8c.2,-.2,.4,-.1,.2,.2c0,.1,-1.5,2.4,-3.2,5c-1.8,2.7,-3.8,5.7,-4.5,6.8c-1.5,2.4,-2.1,3.3,-2.3,3.8c-.2,.3,-.3,.4,-.9,.7c-.8,.4,-8.7,3.9,-8.9,4c-.1,0,-.3,-.1,-.4,-.2Zm3.7,-1.9c2.2,-1,4,-1.8,4.6,-2.1q.7,-.4,.7,-1.4c-.2,-1.7,-1.4,-3,-3.6,-3.8c-1.2,-.4,-4.3,-.8,-4.4,-.6c0,0,-.1,1.5,-.2,3.2c-.1,1.6,-.2,3.3,-.2,3.5c-.1,1.2,.1,1.5,-.2,2.6c.1,.1,1.8,-.8,1.8,-.8c.1,0,.7,-.3,1.5,-.6Z" class="gd_81"/>
<path d="M135.3,1030.5l11.2,-16.1m-8.2,17.2L149,1015.9" class="ge_81"/>
<path d="M140.4,1033.3l10,-14.5l.2,-.3" class="gf_81"/>
<path d="M134.1,1030.1c-.4,-.1,-.8,-.2,-.9,-.2c0,0,2.5,-3.7,6.7,-9.6c1.9,-2.7,3.6,-5.2,3.8,-5.5c.2,-.4,.4,-.6,.5,-.6c.1,-.1,.7,.4,.9,.6c.1,.4,.1,.6,-.1,1.1c-.2,.5,-9.8,14.3,-9.9,14.3c-.1,0,-.5,-.1,-1,-.1Z" class="gg_81"/>
<path d="M137.6,1030.8c-.2,-.1,-.8,-.3,-1.2,-.4l-.7,-.1l.3,-.4c.1,-.2,2.3,-3.3,4.8,-7l4.7,-6.7l.5,-.2c.9,-.5,1.6,-.5,2.1,0l.3,.3l-5,7.4c-3.1,4.5,-5.1,7.4,-5.1,7.3c-.1,0,-.4,-.1,-.7,-.2Z" class="gg_81"/>
<path d="M140,1032.3c-.2,-.3,-.6,-.6,-.8,-.7c-.2,-.1,-.3,-.3,-.3,-.3c0,-.1,9.4,-14,9.8,-14.6c.1,-.1,.5,.3,.8,.8c.3,.3,.3,.5,.4,1c0,.3,0,.6,-.1,.7c-.2,.3,-9.1,13.1,-9.2,13.3q-.2,.2,-.6,-.2Z" class="gg_81"/>
<path d="M141.6,1034.9c0,-.1,-.1,-.3,-.1,-.6c-.1,-.2,-.3,-.6,-.4,-.8l-.3,-.4l4.7,-6.8c2.6,-3.7,4.8,-6.8,4.8,-6.8c.4,0,1,.7,1,1.2c0,.1,-.6,1.1,-1.9,3c-1.1,1.6,-3.1,4.7,-4.6,6.8c-3,4.4,-3.1,4.6,-3.2,4.4Z" class="gg_81"/>
<path d="M131.9,1036.4c2.3,-.1,3.6,.7,4.1,2.3" class="gh_81"/>
<path d="M132,1040.3c0,-.4,.1,-.4,.1,-1.3c0,-.8,0,-1,0,-1.4c0,-.2,0,-.5,0,-.7l.1,-.2c.1,0,.6,0,.7,0c.4,.1,.8,.1,1.1,.2c.2,.1,.4,.2,.6,.4c.2,.1,.3,.2,.4,.3c.3,.2,.4,.5,.6,.8c0,.1,.1,.4,.1,.4c0,0,-1.5,.7,-1.8,.8c-.1,0,-.2,.1,-.3,.1c-1.1,.6,-1.4,.8,-1.6,.8Z" class="gc_81"/>
<path d="M136.2,1038.2c-.6,-1.2,-1.8,-2,-3.4,-2.1h-.6v-.5c.1,-.3,.1,-1.3,.2,-2.2c0,-1,.1,-1.8,.1,-2l.1,-.2h.7c.8,.1,2.3,.3,3.1,.5c1.7,.5,3.1,1.4,3.6,2.5c.4,.8,.6,2.1,.3,2.4c-.1,.2,-.8,.5,-2.5,1.3c-1.6,.7,-1.5,.7,-1.6,.3Z" class="gi_81"/>
<path d="M136.2,1038.2c-.6,-1.2,-1.8,-2,-3.4,-2.1h-.6v-.5c.1,-.3,.1,-1.3,.2,-2.2c0,-1,.1,-1.8,.1,-2l.1,-.2h.7c.8,.1,2.3,.3,3.1,.5c1.7,.5,3.1,1.4,3.6,2.5c.4,.8,.6,2.1,.3,2.4c-.1,.2,-.8,.5,-2.5,1.3c-1.6,.7,-1.5,.7,-1.6,.3Z" class="gj_81"/>
</g>
<path d="M152.7,1058.1H513.4" class="g0_81"/>
<path d="M137.6,1063.3v43.8" class="gb_81"/>
</svg>