<?xml version="1.0" encoding="UTF-8" standalone="no"?>
<!DOCTYPE svg PUBLIC "-//W3C//DTD SVG 1.1//EN"
"http://www.w3.org/Graphics/SVG/1.1/DTD/svg11.dtd">
<svg viewBox="0 0 1286 909" version="1.1" xmlns="http://www.w3.org/2000/svg" xmlns:xlink="http://www.w3.org/1999/xlink">
<defs>
<style type="text/css"><![CDATA[
.g0_1189{
fill: none;
stroke: #000000;
stroke-width: 0.73;
stroke-linecap: butt;
stroke-linejoin: miter;
}
.g1_1189{
fill: none;
stroke: #000000;
stroke-width: 0.657;
stroke-linecap: butt;
stroke-linejoin: miter;
}
.g2_1189{
fill: #FDE8E9;
}
]]></style>
</defs>
<path d="M193,83.4h900.3" class="g0_1189"/>
<path d="M202.8,429.3H421.6M202.8,455.9V429.6m107.3,26.3V429.6m111.5,26.3V429.6M202.8,485.3V455.9m107.3,29.4V455.9" class="g1_1189"/>
<path d="M320,482.4h90.5V455.9H320v26.5Z" class="g2_1189"/>
<path d="M421.6,485.3V455.9M202.8,511.6V485.3m107.3,26.3V485.3m111.5,26.3V485.3M202.8,537.9V511.6m107.3,26.3V511.6m111.5,26.3V511.6M202.8,567.3V537.9m107.3,29.4V537.9" class="g1_1189"/>
<path d="M320,564.3h62.8V537.9H320v26.4Z" class="g2_1189"/>
<path d="M421.6,567.3V537.9M202.8,593.6V567.3m107.3,26.3V567.3m111.5,26.3V567.3M202.8,619.9V593.6m107.3,26.3V593.6m111.5,26.3V593.6M202.8,648.8V619.9m107.3,28.9V619.9" class="g1_1189"/>
<path d="M320,648.8h84.3V623.1H320v25.7Z" class="g2_1189"/>
<path d="M421.6,648.8V619.9M202.8,675.1V648.8m107.3,26.3V648.8m111.5,26.3V648.8M202.8,701.4V675.1m107.3,26.3V675.1m111.5,26.3V675.1M202.8,732.6V701.4m107.3,31.2V701.4" class="g1_1189"/>
<path d="M320,732.6h91.7V701.4H320v31.2Z" class="g2_1189"/>
<path d="M421.6,732.6V701.4M202.8,758.9V732.6m107.3,26.3V732.6m111.5,26.3V732.6M202.8,785.2V758.9m107.3,26.3V758.9m111.5,26.3V758.9M202.8,814.6V785.2m107.3,29.4V785.2" class="g1_1189"/>
<path d="M320,811.6h87.9V785.2H320v26.4Z" class="g2_1189"/>
<path d="M421.6,814.6V785.2M202.8,840.9V814.6m107.3,26.3V814.6m111.5,26.3V814.6M202.8,841.2H421.6M441.3,426.4H791.4M441.3,453.1V426.8M669,453.1V426.8m122.4,26.3V426.8M441.3,484.2V453.1M669,484.2V453.1" class="g1_1189"/>
<path d="M678.8,484.2h67V453.1h-67v31.1Z" class="g2_1189"/>
<path d="M791.4,484.2V453.1M441.3,510.5V484.2M669,510.5V484.2m122.4,26.3V484.2M441.3,536.8V510.5M669,536.8V510.5m122.4,26.3V510.5M441.3,568V536.8M669,568V536.8" class="g1_1189"/>
<path d="M678.8,568H781.5V536.8H678.8V568Z" class="g2_1189"/>
<path d="M791.4,568V536.8M441.3,594.3V568M669,594.3V568m122.4,26.3V568M441.3,620.6V594.3M669,620.6V594.3m122.4,26.3V594.3M441.3,651.7V620.6M669,651.7V620.6" class="g1_1189"/>
<path d="M678.8,651.7h75.4V620.6H678.8v31.1Z" class="g2_1189"/>
<path d="M791.4,651.7V620.6M441.3,678V651.7M669,678V651.7M791.4,678V651.7M441.3,704.3V678M669,704.3V678m122.4,26.3V678M441.3,735.5V704.3M669,735.5V704.3" class="g1_1189"/>
<path d="M678.8,735.5h90V704.3h-90v31.2Z" class="g2_1189"/>
<path d="M791.4,735.5V704.3M441.3,761.8V735.5M669,761.8V735.5m122.4,26.3V735.5M441.3,788.1V761.8M669,788.1V761.8m122.4,26.3V761.8M441.3,817.5V788.1M669,817.5V788.1" class="g1_1189"/>
<path d="M678.8,814.5h83.7V788.1H678.8v26.4Z" class="g2_1189"/>
<path d="M791.4,817.5V788.1M441.3,843.8V817.5M669,843.8V817.5m122.4,26.3V817.5M441.3,844.1H791.4M811.1,428.2h283.7M811.1,454.8V428.5m129.2,26.3V428.5m154.5,26.3V428.5M811.1,484.2V454.8m129.2,29.4V454.8" class="g1_1189"/>
<path d="M950.2,481.3h89.3V454.8H950.2v26.5Z" class="g2_1189"/>
<path d="M1094.8,484.2V454.8M811.1,510.5V484.2m129.2,26.3V484.2m154.5,26.3V484.2M811.1,536.8V510.5m129.2,26.3V510.5m154.5,26.3V510.5M811.1,566.2V536.8m129.2,29.4V536.8" class="g1_1189"/>
<path d="M950.2,563.2h85.9V536.8H950.2v26.4Z" class="g2_1189"/>
<path d="M1094.8,566.2V536.8M811.1,592.5V566.2m129.2,26.3V566.2m154.5,26.3V566.2M811.1,618.8V592.5m129.2,26.3V592.5m154.5,26.3V592.5M811.1,649.9V618.8m129.2,31.1V618.8" class="g1_1189"/>
<path d="M950.2,649.9h116.7V618.8H950.2v31.1Z" class="g2_1189"/>
<path d="M1094.8,649.9V618.8M811.1,676.3V649.9m129.2,26.4V649.9m154.5,26.4V649.9M811.1,702.6V676.3m129.2,26.3V676.3m154.5,26.3V676.3M811.1,731.9V702.6m129.2,29.3V702.6" class="g1_1189"/>
<path d="M950.2,729H1057V702.6H950.2V729Z" class="g2_1189"/>
<path d="M1094.8,731.9V702.6M811.1,758.2V731.9m129.2,26.3V731.9m154.5,26.3V731.9M811.1,784.5V758.2m129.2,26.3V758.2m154.5,26.3V758.2M811.1,815.7V784.5m129.2,31.2V784.5" class="g1_1189"/>
<path d="M950.2,815.7h134.7V784.5H950.2v31.2Z" class="g2_1189"/>
<path d="M1094.8,815.7V784.5M811.1,842V815.7M940.3,842V815.7M1094.8,842V815.7M811.1,842.3h283.7" class="g1_1189"/>
</svg>