<?xml version="1.0" encoding="UTF-8" standalone="no"?>
<!DOCTYPE svg PUBLIC "-//W3C//DTD SVG 1.1//EN"
"http://www.w3.org/Graphics/SVG/1.1/DTD/svg11.dtd">
<svg viewBox="0 0 909 1286" version="1.1" xmlns="http://www.w3.org/2000/svg" xmlns:xlink="http://www.w3.org/1999/xlink">
<defs>
<style type="text/css"><![CDATA[
.g0_65{
fill: none;
stroke: #000000;
stroke-width: 0.73;
stroke-linecap: butt;
stroke-linejoin: miter;
}
.g1_65{
fill: none;
stroke: #5EE200;
stroke-width: 2.191;
stroke-linecap: butt;
stroke-linejoin: miter;
}
.g2_65{
fill: #5EE200;
stroke: #5EE200;
stroke-width: 2.191;
stroke-linecap: butt;
stroke-linejoin: miter;
}
.g3_65{
fill: none;
stroke: #8007AC;
stroke-width: 2.191;
stroke-linecap: butt;
stroke-linejoin: miter;
}
.g4_65{
fill: #8007AC;
stroke: #8007AC;
stroke-width: 2.191;
stroke-linecap: butt;
stroke-linejoin: miter;
}
.g5_65{
fill: #F81693;
fill-opacity: 0.25;
stroke: #F81693;
stroke-width: 0.73;
stroke-linecap: butt;
stroke-linejoin: miter;
stroke-opacity: 0.25;
}
.g6_65{
fill: #02B5EE;
fill-opacity: 0.25;
stroke: #02B5EE;
stroke-width: 0.73;
stroke-linecap: butt;
stroke-linejoin: miter;
stroke-opacity: 0.25;
}
]]></style>
</defs>
<path d="M184.9,403V179.5" class="g0_65"/>
<path d="M276.9,233.9h77.9m0,0c0,0,-57.7,0,-64.9,0c-7.2,0,8.4,0,13,0c2.3,0,7.3,0,11.7,0" class="g1_65"/>
<path d="M319.4,233.9c-2.3,-.8,-4.3,-1.7,-6.4,-2.5c.7,.8,1.4,1.7,2.1,2.5c-.7,.8,-1.4,1.6,-2.1,2.4c2.1,-.8,4.1,-1.6,6.4,-2.4Z" class="g2_65"/>
<path d="M276.9,311.8V233.9m0,0c0,0,0,57.7,0,64.9c0,7.2,0,-8.5,0,-13c0,-2.3,0,-7.3,0,-11.7" class="g3_65"/>
<path d="M276.9,269.2c-.8,2.3,-1.6,4.4,-2.4,6.5c.8,-.7,1.6,-1.5,2.4,-2.2c.8,.7,1.6,1.5,2.4,2.2c-.8,-2.1,-1.6,-4.2,-2.4,-6.5Z" class="g4_65"/>
<path d="M354.8,311.8H276.9m0,0c0,0,57.7,0,64.9,0c7.2,0,-8.5,0,-13,0c-2.3,0,-7.3,0,-11.7,0" class="g1_65"/>
<path d="M312.3,311.8c2.3,.8,4.3,1.6,6.4,2.4c-.7,-.8,-1.4,-1.6,-2.1,-2.4c.7,-.8,1.4,-1.6,2.1,-2.4c-2.1,.8,-4.1,1.6,-6.4,2.4Z" class="g2_65"/>
<path d="M354.8,233.9v77.9m0,0c0,0,0,-57.7,0,-65c0,-7.2,0,8.5,0,13c0,2.3,0,7.4,0,11.8" class="g3_65"/>
<path d="M354.8,276.4c.8,-2.3,1.6,-4.3,2.4,-6.4c-.8,.7,-1.6,1.4,-2.4,2.1c-.8,-.7,-1.6,-1.4,-2.4,-2.1c.8,2.1,1.6,4.1,2.4,6.4Z" class="g4_65"/>
<path d="M315.8,228.3l31.4,-31.4h-13v-17H297.5v17h-13Z" class="g5_65"/>
<path d="M315.8,377l34,-34H336.9V326.1H294.8V343h-13Z" class="g6_65"/>
<path d="M471.8,233.9h77.9m0,0c0,0,-57.7,0,-65,0c-7.2,0,8.5,0,13,0c2.3,0,7.4,0,11.8,0" class="g1_65"/>
<path d="M514.3,233.9c-2.3,-.8,-4.3,-1.7,-6.4,-2.5c.7,.8,1.4,1.7,2.1,2.5c-.7,.8,-1.4,1.6,-2.1,2.4c2.1,-.8,4.1,-1.6,6.4,-2.4Z" class="g2_65"/>
<path d="M471.8,311.8V233.9m0,0c0,0,0,57.7,0,64.9c0,7.2,0,-8.5,0,-13c0,-2.3,0,-7.3,0,-11.7" class="g3_65"/>
<path d="M471.8,269.2c-.8,2.3,-1.7,4.4,-2.5,6.5c.8,-.7,1.7,-1.5,2.5,-2.2c.8,.7,1.6,1.5,2.4,2.2c-.8,-2.1,-1.6,-4.2,-2.4,-6.5Z" class="g4_65"/>
<path d="M549.7,311.8H471.8m0,0c0,0,57.7,0,64.9,0c7.2,0,-8.5,0,-13,0c-2.3,0,-7.3,0,-11.7,0" class="g1_65"/>
<path d="M507.1,311.8c2.3,.8,4.4,1.6,6.5,2.4c-.7,-.8,-1.5,-1.6,-2.2,-2.4c.7,-.8,1.5,-1.6,2.2,-2.4c-2.1,.8,-4.2,1.6,-6.5,2.4Z" class="g2_65"/>
<path d="M549.7,233.9v77.9m0,0c0,0,0,-57.7,0,-65c0,-7.2,0,8.5,0,13c0,2.3,0,7.4,0,11.8" class="g3_65"/>
<path d="M549.7,276.4c.8,-2.3,1.6,-4.3,2.4,-6.4c-.8,.7,-1.6,1.4,-2.4,2.1c-.8,-.7,-1.6,-1.4,-2.4,-2.1c.8,2.1,1.6,4.1,2.4,6.4Z" class="g4_65"/>
<path d="M510.7,226.2l31.4,-31.4h-13V182H492.3v12.8h-13Z" class="g5_65"/>
<path d="M510.7,369.7l28.8,-28.8h-13V328.1H495v12.8H482Z" class="g6_65"/>
<path d="M627.7,233.9h77.9m0,0c0,0,-57.7,0,-64.9,0c-7.3,0,8.4,0,12.9,0c2.4,0,7.4,0,11.8,0" class="g1_65"/>
<path d="M670.2,233.9c-2.3,-.8,-4.3,-1.7,-6.4,-2.5c.7,.8,1.4,1.7,2.1,2.5c-.7,.8,-1.4,1.6,-2.1,2.4c2.1,-.8,4.1,-1.6,6.4,-2.4Z" class="g2_65"/>
<path d="M627.7,311.8V233.9m0,0c0,0,0,57.7,0,64.9c0,7.2,0,-8.5,0,-13c0,-2.3,0,-7.3,0,-11.7" class="g3_65"/>
<path d="M627.7,269.2c-.8,2.3,-1.6,4.4,-2.4,6.5c.8,-.7,1.6,-1.5,2.4,-2.2c.8,.7,1.6,1.5,2.4,2.2c-.8,-2.1,-1.6,-4.2,-2.4,-6.5Z" class="g4_65"/>
<path d="M705.6,311.8H627.7m0,0c0,0,57.7,0,64.9,0c7.2,0,-8.5,0,-13,0c-2.3,0,-7.3,0,-11.7,0" class="g1_65"/>
<path d="M663.1,311.8c2.2,.8,4.3,1.6,6.4,2.4c-.7,-.8,-1.4,-1.6,-2.2,-2.4c.8,-.8,1.5,-1.6,2.2,-2.4c-2.1,.8,-4.2,1.6,-6.4,2.4Z" class="g2_65"/>
<path d="M705.6,233.9v77.9m0,0c0,0,0,-57.7,0,-65c0,-7.2,0,8.5,0,13c0,2.3,0,7.4,0,11.8" class="g3_65"/>
<path d="M705.6,276.4c.8,-2.3,1.6,-4.3,2.4,-6.4c-.8,.7,-1.6,1.4,-2.4,2.1c-.8,-.7,-1.6,-1.4,-2.4,-2.1c.8,2.1,1.6,4.1,2.4,6.4Z" class="g4_65"/>
<path d="M666.6,226.2L698,194.8H685V182H648.2v12.8H635.3Z" class="g5_65"/>
<path d="M666.6,369.7l28.8,-28.8h-13V328.1H650.9v12.8h-13Z" class="g6_65"/>
<path d="M184.9,432.2V403m0,58.4V432.2m0,53V461.4" class="g0_65"/>
</svg>