<?xml version="1.0" encoding="UTF-8" standalone="no"?>
<!DOCTYPE svg PUBLIC "-//W3C//DTD SVG 1.1//EN"
"http://www.w3.org/Graphics/SVG/1.1/DTD/svg11.dtd">
<svg viewBox="0 0 909 1286" version="1.1" xmlns="http://www.w3.org/2000/svg" xmlns:xlink="http://www.w3.org/1999/xlink">
<defs>
<clipPath id="c0_84"><path d="M123.1,337V305.3h29.1V337Z"/></clipPath>
<clipPath id="c1_84"><path d="M122.1,337.5V304.8H153v32.7Z"/></clipPath>
<style type="text/css"><![CDATA[
.g0_84{
fill: #FFFFFF;
}
.g1_84{
fill: none;
stroke: #000000;
stroke-width: 1.461;
stroke-linecap: butt;
stroke-linejoin: miter;
}
.g2_84{
}
.g3_84{
fill: none;
stroke: #000000;
stroke-width: 0.459;
stroke-linecap: butt;
stroke-linejoin: round;
}
.g4_84{
fill: none;
stroke: #000000;
stroke-width: 0.722;
stroke-linecap: round;
stroke-linejoin: miter;
}
.g5_84{
fill: none;
stroke: #000000;
stroke-width: 0.722;
stroke-linecap: round;
stroke-linejoin: round;
}
.g6_84{
fill: #D40000;
}
.g7_84{
fill: none;
stroke: #000000;
stroke-width: 0.578;
stroke-linecap: round;
stroke-linejoin: miter;
}
.g8_84{
fill: #E9C6AF;
}
.g9_84{
fill: none;
stroke: #695000;
stroke-width: 0.152;
stroke-linecap: round;
stroke-linejoin: round;
}
.ga_84{
fill: none;
stroke: #000000;
stroke-width: 0.73;
stroke-linecap: butt;
stroke-linejoin: miter;
}
.gb_84{
fill: none;
stroke: #000000;
stroke-width: 2.739;
stroke-linecap: butt;
stroke-linejoin: miter;
}
]]></style>
</defs>
<path d="M117.7,446.6V298.5H791.8V446.6Z" class="g0_84"/>
<path d="M117.7,446.6V298.5H791.8V446.6Z" class="g1_84"/>
<path d="M236,406.9h37.4" class="ga_84"/>
<g clip-path="url(#c1_84)">
<path clip-path="url(#c0_84)" d="M126.4,330.7c0,0,1.5,-.9,1.2,-1.3c-.1,-.1,-.3,-.1,-.6,0c-1.6,.3,-5,2.1,-3.3,4.1c1.4,1.6,6.4,2.4,11.7,1.4c7.3,-1.4,13.5,-5.5,11.1,-8.3c-1.6,-2,-6.7,-2.1,-10.8,-2.2c-2.1,0,-6.6,-.1,-8,-1.7c-.6,-.7,-.5,-1.6,.1,-2.2c1,-.9,3.8,-1.4,4,-1.5c.7,-.1,2.5,-.4,4.6,-.4c1.1,.1,2.5,.1,3.2,1c.2,.2,.4,.6,.4,.7c0,0,0,.1,.1,.2c.1,.1,.4,.1,.5,.1c.5,-.1,1.5,-.6,2,-1.1c.3,-.2,.8,-.6,0,-1.5c-.9,-1.1,-2.3,-1.2,-4,-1.2c-2.3,0,-4.1,.3,-4.9,.5c-5.8,1.1,-11.1,4.6,-9,7c1.5,1.8,6.3,1.9,9,1.9c3.9,.1,8.4,.3,9.8,2c.6,.7,.9,1.9,-.4,2.9c-1.2,.9,-4,1.7,-5.8,2c-4.4,.9,-9.4,.2,-10.6,-1.2c0,-.1,-.5,-.6,-.3,-1.2Z" class="g2_84"/>
<path d="M131.5,333.1l-.2,-.2l.3,-4.6q.3,-5.6,.5,-6c.1,-.1,1.6,-2.2,3.3,-4.6c1.7,-2.3,4.3,-6,5.9,-8.2c1.5,-2.2,2.8,-4,2.9,-4c.4,0,.1,.4,-1.8,3.2c-1.2,1.6,-3.7,5.3,-5.7,8.1c-2,2.9,-3.6,5.2,-3.6,5.2c0,0,.5,.1,1,.2c2,.2,3.3,.5,4.5,1.2c.6,.3,1,.5,1.5,1.1c.8,.8,1.2,1.4,1.4,2.2c.1,.2,.1,.4,.2,.4c.1,0,.7,-.8,5.2,-7.5c2.4,-3.7,4.5,-6.7,4.6,-6.8c.2,-.3,.4,-.1,.2,.2c0,.1,-1.5,2.3,-3.2,5c-1.8,2.7,-3.8,5.7,-4.5,6.7c-1.5,2.4,-2.1,3.4,-2.3,3.8c-.2,.4,-.3,.5,-.9,.8c-.8,.3,-8.7,3.9,-8.9,3.9c-.1,.1,-.3,0,-.4,-.1Z" class="g2_84"/>
<path d="M135.2,331.1c2.2,-.9,4,-1.7,4.6,-2c.7,-.4,.7,-.5,.7,-1.5c-.2,-1.7,-1.4,-3,-3.6,-3.7c-1.2,-.4,-4.3,-.8,-4.4,-.6c0,0,-.1,1.4,-.2,3.1c-.1,1.7,-.2,3.3,-.2,3.6c-.1,1.2,.1,1.4,-.2,2.6c.1,.1,1.8,-.8,1.8,-.8c.1,0,.7,-.3,1.5,-.7Z" class="g2_84"/>
<path d="M131.5,333.1l-.2,-.2l.3,-4.6q.3,-5.6,.5,-6c.1,-.1,1.6,-2.2,3.3,-4.6c1.7,-2.3,4.3,-6,5.9,-8.2c1.5,-2.2,2.8,-4,2.9,-4c.4,0,.1,.4,-1.8,3.2c-1.2,1.6,-3.7,5.3,-5.7,8.1c-2,2.9,-3.6,5.2,-3.6,5.2c0,0,.5,.1,1,.2c2,.2,3.3,.5,4.5,1.2c.6,.3,1,.5,1.5,1.1c.8,.8,1.2,1.4,1.4,2.2c.1,.2,.1,.4,.2,.4c.1,0,.7,-.8,5.2,-7.5c2.4,-3.7,4.5,-6.7,4.6,-6.8c.2,-.3,.4,-.1,.2,.2c0,.1,-1.5,2.3,-3.2,5c-1.8,2.7,-3.8,5.7,-4.5,6.7c-1.5,2.4,-2.1,3.4,-2.3,3.8c-.2,.4,-.3,.5,-.9,.8c-.8,.3,-8.7,3.9,-8.9,3.9c-.1,.1,-.3,0,-.4,-.1Zm3.7,-2c2.2,-.9,4,-1.7,4.6,-2c.7,-.4,.7,-.5,.7,-1.5c-.2,-1.7,-1.4,-3,-3.6,-3.7c-1.2,-.4,-4.3,-.8,-4.4,-.6c0,0,-.1,1.4,-.2,3.1c-.1,1.7,-.2,3.3,-.2,3.6c-.1,1.2,.1,1.4,-.2,2.6c.1,.1,1.8,-.8,1.8,-.8c.1,0,.7,-.3,1.5,-.7Z" class="g3_84"/>
<path d="M135.3,322.5l11.2,-16m-8.2,17.1L149,307.9" class="g4_84"/>
<path d="M140.4,325.3l10,-14.4l.2,-.3" class="g5_84"/>
<path d="M134.1,322.1c-.4,0,-.8,-.1,-.9,-.1c0,-.1,2.5,-3.7,6.7,-9.6c1.9,-2.7,3.6,-5.2,3.8,-5.6c.2,-.3,.4,-.6,.5,-.6c.1,0,.7,.5,.9,.7c.1,.3,.1,.6,-.1,1.1c-.2,.5,-9.8,14.3,-9.9,14.3c-.1,0,-.5,-.1,-1,-.2Z" class="g6_84"/>
<path d="M137.6,322.9c-.2,-.1,-.8,-.3,-1.2,-.4l-.7,-.2l.3,-.3c.1,-.2,2.3,-3.4,4.8,-7l4.7,-6.7l.5,-.3c.9,-.4,1.6,-.4,2.1,.1l.3,.3l-5,7.3c-3.1,4.5,-5.1,7.4,-5.1,7.4c-.1,0,-.4,-.1,-.7,-.2Z" class="g6_84"/>
<path d="M140,324.3c-.2,-.2,-.6,-.5,-.8,-.6c-.2,-.2,-.3,-.3,-.3,-.4c0,0,9.4,-13.9,9.8,-14.5c.1,-.1,.5,.3,.8,.7c.3,.4,.3,.6,.4,1c0,.4,0,.6,-.1,.8c-.2,.3,-9.1,13.1,-9.2,13.3q-.2,.1,-.6,-.3Z" class="g6_84"/>
<path d="M141.6,327c0,-.1,-.1,-.3,-.1,-.6c-.1,-.2,-.3,-.6,-.4,-.8l-.3,-.4l4.7,-6.8c2.6,-3.7,4.8,-6.8,4.8,-6.8c.4,0,1,.7,1,1.1c0,.2,-.6,1.2,-1.9,3.1c-1.1,1.6,-3.1,4.6,-4.6,6.8c-3,4.4,-3.1,4.6,-3.2,4.4Z" class="g6_84"/>
<path d="M131.9,328.5c2.3,-.1,3.6,.7,4.1,2.3" class="g7_84"/>
<path d="M132,332.4c0,-.4,.1,-.5,.1,-1.4c0,-.7,0,-.9,0,-1.3c0,-.3,0,-.6,0,-.7l.1,-.2c.1,-.1,.6,0,.7,0c.4,0,.8,.1,1.1,.2c.2,.1,.4,.2,.6,.3c.2,.1,.3,.2,.4,.4c.3,.2,.4,.4,.6,.7c0,.2,.1,.5,.1,.5c0,0,-1.5,.7,-1.8,.8c-.1,0,-.2,.1,-.3,.1c-1.1,.6,-1.4,.7,-1.6,.8Z" class="g2_84"/>
<path d="M136.2,330.3c-.6,-1.3,-1.8,-2,-3.4,-2.1l-.6,-.1v-.5c.1,-.2,.1,-1.2,.2,-2.2c0,-.9,.1,-1.8,.1,-1.9l.1,-.2h.7c.8,.1,2.3,.3,3.1,.5c1.7,.4,3.1,1.4,3.6,2.5c.4,.8,.6,2.1,.3,2.4c-.1,.1,-.8,.5,-2.5,1.3c-1.6,.7,-1.5,.6,-1.6,.3Z" class="g8_84"/>
<path d="M136.2,330.3c-.6,-1.3,-1.8,-2,-3.4,-2.1l-.6,-.1v-.5c.1,-.2,.1,-1.2,.2,-2.2c0,-.9,.1,-1.8,.1,-1.9l.1,-.2h.7c.8,.1,2.3,.3,3.1,.5c1.7,.4,3.1,1.4,3.6,2.5c.4,.8,.6,2.1,.3,2.4c-.1,.1,-.8,.5,-2.5,1.3c-1.6,.7,-1.5,.6,-1.6,.3Z" class="g9_84"/>
</g>
<path d="M152.7,330.5H450.1" class="ga_84"/>
<path d="M137.6,338v99.2" class="gb_84"/>
<path d="M184.9,1030.3V483.9M383.3,730.4h37.4m81.8,0H540M399.4,834.8h37.4m65.7,0H540m-37.5,82.7H540m67.7,0h37.4M301.6,1007h37.5" class="ga_84"/>
</svg>