<?xml version="1.0" encoding="UTF-8" standalone="no"?>
<!DOCTYPE svg PUBLIC "-//W3C//DTD SVG 1.1//EN"
"http://www.w3.org/Graphics/SVG/1.1/DTD/svg11.dtd">
<svg viewBox="0 0 1286 909" version="1.1" xmlns="http://www.w3.org/2000/svg" xmlns:xlink="http://www.w3.org/1999/xlink">
<defs>
<style type="text/css"><![CDATA[
.g0_1208{
fill: none;
stroke: #000000;
stroke-width: 0.73;
stroke-linecap: butt;
stroke-linejoin: miter;
}
.g1_1208{
fill: #FDE8E9;
}
]]></style>
</defs>
<path d="M193,83.4h900.3M203.9,426.5H463.7M203.9,456V426.8M298.8,456V426.8M463.7,456V426.8M203.9,486.2V456m94.9,30.2V456" class="g0_1208"/>
<path d="M309.8,482.9h77.6V459.6H309.8v23.3Z" class="g1_1208"/>
<path d="M463.7,486.2V456M203.9,515.4V486.2m94.9,29.2V486.2m164.9,29.2V486.2M203.9,544.7V515.4m94.9,29.3V515.4m164.9,29.3V515.4M203.9,577.3V544.7m94.9,32.6V544.7" class="g0_1208"/>
<path d="M309.8,574H439.5V544.7H309.8V574Z" class="g1_1208"/>
<path d="M463.7,577.3V544.7M203.9,606.5V577.3m94.9,29.2V577.3m164.9,29.2V577.3M203.9,635.8V606.5m94.9,29.3V606.5m164.9,29.3V606.5M203.9,670.4V635.8m94.9,34.6V635.8" class="g0_1208"/>
<path d="M309.8,670.4h68.9V635.8H309.8v34.6Z" class="g1_1208"/>
<path d="M463.7,670.4V635.8M203.9,699.6V670.4m94.9,29.2V670.4m164.9,29.2V670.4M203.9,728.8V699.6m94.9,29.2V699.6m164.9,29.2V699.6M203.9,763.4V728.8m94.9,34.6V728.8" class="g0_1208"/>
<path d="M309.8,763.4h143V728.8h-143v34.6Z" class="g1_1208"/>
<path d="M463.7,763.4V728.8M203.9,792.7V763.4m94.9,29.3V763.4m164.9,29.3V763.4M203.9,821.9V792.7m94.9,29.2V792.7m164.9,29.2V792.7M203.9,856.5V821.9m94.9,34.6V821.9" class="g0_1208"/>
<path d="M309.8,856.5H403V821.9H309.8v34.6Z" class="g1_1208"/>
<path d="M463.7,856.5V821.9M203.9,885.7V856.5m94.9,29.2V856.5m164.9,29.2V856.5M203.9,886.1H463.7m22,-458.9H753.9M485.7,456.8V427.6m119.1,29.2V427.6m149.1,29.2V427.6M485.7,489.4V456.8m119.1,32.6V456.8" class="g0_1208"/>
<path d="M615.8,486.1H742.9V456.8H615.8v29.3Z" class="g1_1208"/>
<path d="M753.9,489.4V456.8M485.7,518.7V489.4m119.1,29.3V489.4m149.1,29.3V489.4M485.7,547.9V518.7m119.1,29.2V518.7m149.1,29.2V518.7M485.7,580.5V547.9m119.1,32.6V547.9" class="g0_1208"/>
<path d="M615.8,577.2h97.9V547.9H615.8v29.3Z" class="g1_1208"/>
<path d="M753.9,580.5V547.9M485.7,609.7V580.5m119.1,29.2V580.5m149.1,29.2V580.5M485.7,639V609.7M604.8,639V609.7M753.9,639V609.7M485.7,673.6V639m119.1,34.6V639" class="g0_1208"/>
<path d="M615.8,673.6h60.5V639H615.8v34.6Z" class="g1_1208"/>
<path d="M753.9,673.6V639M485.7,702.8V673.6m119.1,29.2V673.6m149.1,29.2V673.6M485.7,732V702.8M604.8,732V702.8M753.9,732V702.8M485.7,764.7V732m119.1,32.7V732" class="g0_1208"/>
<path d="M615.8,761.4h96V732h-96v29.4Z" class="g1_1208"/>
<path d="M753.9,764.7V732M485.7,793.9V764.7m119.1,29.2V764.7m149.1,29.2V764.7M485.7,823.1V793.9m119.1,29.2V793.9m149.1,29.2V793.9M485.7,855.8V823.1m119.1,32.7V823.1" class="g0_1208"/>
<path d="M615.8,852.5h88.3V823.1H615.8v29.4Z" class="g1_1208"/>
<path d="M753.9,855.8V823.1M485.7,885V855.8M604.8,885V855.8M753.9,885V855.8M485.7,885.4H753.9m21.9,-458h226.7M775.8,457V427.8M870.7,457V427.8M1002.5,457V427.8M775.8,489.7V457m94.9,32.7V457" class="g0_1208"/>
<path d="M881.6,486.4H991.5V457H881.6v29.4Z" class="g1_1208"/>
<path d="M1002.5,489.7V457M775.8,518.9V489.7m94.9,29.2V489.7m131.8,29.2V489.7M775.8,548.1V518.9m94.9,29.2V518.9m131.8,29.2V518.9M775.8,582.7V548.1m94.9,34.6V548.1" class="g0_1208"/>
<path d="M881.6,582.7H991.1V548.1H881.6v34.6Z" class="g1_1208"/>
<path d="M1002.5,582.7V548.1M775.8,612V582.7M870.7,612V582.7M1002.5,612V582.7M775.8,641.2V612m94.9,29.2V612m131.8,29.2V612M775.8,675.8V641.2m94.9,34.6V641.2" class="g0_1208"/>
<path d="M881.6,675.8H982.2V641.2H881.6v34.6Z" class="g1_1208"/>
<path d="M1002.5,675.8V641.2M775.8,705V675.8M870.7,705V675.8M1002.5,705V675.8M775.8,734.3V705m94.9,29.3V705m131.8,29.3V705M775.8,766.9V734.3m94.9,32.6V734.3" class="g0_1208"/>
<path d="M881.6,763.6h73.2V734.3H881.6v29.3Z" class="g1_1208"/>
<path d="M1002.5,766.9V734.3M775.8,796.1V766.9m94.9,29.2V766.9m131.8,29.2V766.9M775.8,825.3V796.1m94.9,29.2V796.1m131.8,29.2V796.1M775.8,855.5V825.3m94.9,30.2V825.3" class="g0_1208"/>
<path d="M881.6,852.2h92.3V828.9H881.6v23.3Z" class="g1_1208"/>
<path d="M1002.5,855.5V825.3M775.8,884.7V855.5m94.9,29.2V855.5m131.8,29.2V855.5M775.8,885.1h226.7" class="g0_1208"/>
</svg>