<?xml version="1.0" encoding="UTF-8" standalone="no"?>
<!DOCTYPE svg PUBLIC "-//W3C//DTD SVG 1.1//EN"
"http://www.w3.org/Graphics/SVG/1.1/DTD/svg11.dtd">
<svg viewBox="0 0 1286 909" version="1.1" xmlns="http://www.w3.org/2000/svg" xmlns:xlink="http://www.w3.org/1999/xlink">
<defs>
<style type="text/css"><![CDATA[
.g0_926{
fill: none;
stroke: #000000;
stroke-width: 0.73;
stroke-linecap: butt;
stroke-linejoin: miter;
}
.g1_926{
fill: none;
stroke: #02B5EE;
stroke-width: 1.262;
stroke-linecap: butt;
stroke-linejoin: miter;
}
.g2_926{
fill: none;
stroke: #FFA313;
stroke-width: 1.262;
stroke-linecap: butt;
stroke-linejoin: miter;
}
.g3_926{
fill: none;
stroke: #FFA313;
stroke-width: 0.73;
stroke-linecap: butt;
stroke-linejoin: miter;
}
.g4_926{
fill: none;
stroke: #02B5EE;
stroke-width: 0.73;
stroke-linecap: butt;
stroke-linejoin: miter;
}
]]></style>
</defs>
<path d="M193,83.4h900.3M193,111.6H859.6m-666.6,0H859.6M525.3,141.2V112m0,58.5V141.2m0,114.3v-85" class="g0_926"/>
<path d="M536.2,231.5h34.7" class="g1_926"/>
<path d="M581.4,231.5H848.6" class="g2_926"/>
<path d="M525.3,284.7V255.5m0,102.3V284.7" class="g0_926"/>
<path d="M607,343.9H808.7" class="g3_926"/>
<path d="M814.8,343.9h33.8" class="g4_926"/>
<path d="M525.3,387V357.8m0,58.4V387m0,114.2v-85" class="g0_926"/>
<path d="M547.3,477.3h34.6" class="g1_926"/>
<path d="M592.4,477.3H848.6" class="g2_926"/>
<path d="M525.3,530.5V501.2m0,102.3v-73" class="g0_926"/>
<path d="M622.3,589.6H808.7" class="g3_926"/>
<path d="M814.8,589.6h33.8" class="g4_926"/>
<path d="M525.3,632.7V603.5M193,633.1H859.6m-666.6,0H859.6" class="g0_926"/>
</svg>