<?xml version="1.0" encoding="UTF-8" standalone="no"?>
<!DOCTYPE svg PUBLIC "-//W3C//DTD SVG 1.1//EN"
"http://www.w3.org/Graphics/SVG/1.1/DTD/svg11.dtd">
<svg viewBox="0 0 1286 909" version="1.1" xmlns="http://www.w3.org/2000/svg" xmlns:xlink="http://www.w3.org/1999/xlink">
<defs>
<style type="text/css"><![CDATA[
.g0_1179{
fill: none;
stroke: #000000;
stroke-width: 0.73;
stroke-linecap: butt;
stroke-linejoin: miter;
}
.g1_1179{
fill: none;
stroke: #000000;
stroke-width: 0.584;
stroke-linecap: butt;
stroke-linejoin: miter;
}
.g2_1179{
fill: #FDE8E9;
}
]]></style>
</defs>
<path d="M193,83.4h900.3" class="g0_1179"/>
<path d="M206.6,111.6H493.3M206.6,135.3V111.9m163.7,23.4V111.9m123,23.4V111.9M206.6,161.4V135.3m163.7,26.1V135.3" class="g1_1179"/>
<path d="M379.1,158.8h71.3V135.3H379.1v23.5Z" class="g2_1179"/>
<path d="M493.3,161.4V135.3M206.6,184.8V161.4m163.7,23.4V161.4m123,23.4V161.4M206.6,208.2V184.8m163.7,23.4V184.8m123,23.4V184.8M206.6,235.9V208.2m163.7,27.7V208.2" class="g1_1179"/>
<path d="M379.1,235.9h80.3V208.2H379.1v27.7Z" class="g2_1179"/>
<path d="M493.3,235.9V208.2m-286.7,51V235.9m163.7,23.3V235.9m123,23.3V235.9M206.6,282.6V259.2m163.7,23.4V259.2m123,23.4V259.2M206.6,308.7V282.6m163.7,26.1V282.6" class="g1_1179"/>
<path d="M379.1,306.1h56.4V282.6H379.1v23.5Z" class="g2_1179"/>
<path d="M493.3,308.7V282.6M206.6,332.1V308.7m163.7,23.4V308.7m123,23.4V308.7M206.6,355.5V332.1m163.7,23.4V332.1m123,23.4V332.1M206.6,381.6V355.5m163.7,26.1V355.5" class="g1_1179"/>
<path d="M379.1,379h57V355.5h-57V379Z" class="g2_1179"/>
<path d="M493.3,381.6V355.5M206.6,405V381.6M370.3,405V381.6m123,23.4V381.6M206.6,428.4V405m163.7,23.4V405m123,23.4V405M206.6,454.5V428.4m163.7,26.1V428.4" class="g1_1179"/>
<path d="M379.1,451.8H484.6V428.4H379.1v23.4Z" class="g2_1179"/>
<path d="M493.3,454.5V428.4M206.6,477.9V454.5m163.7,23.4V454.5m123,23.4V454.5M206.6,501.2V477.9m163.7,23.3V477.9m123,23.3V477.9M206.6,525.4V501.2m163.7,24.2V501.2" class="g1_1179"/>
<path d="M379.1,522.7H471V504.1H379.1v18.6Z" class="g2_1179"/>
<path d="M493.3,525.4V501.2M206.6,548.8V525.4m163.7,23.4V525.4m123,23.4V525.4M206.6,572.1V548.8m163.7,23.3V548.8m123,23.3V548.8M206.6,598.2V572.1m163.7,26.1V572.1" class="g1_1179"/>
<path d="M379.1,595.6h84.2V572.1H379.1v23.5Z" class="g2_1179"/>
<path d="M493.3,598.2V572.1M206.6,621.6V598.2m163.7,23.4V598.2m123,23.4V598.2M206.6,645V621.6M370.3,645V621.6m123,23.4V621.6M206.6,671.1V645m163.7,26.1V645" class="g1_1179"/>
<path d="M379.1,668.5H461V645H379.1v23.5Z" class="g2_1179"/>
<path d="M493.3,671.1V645M206.6,694.5V671.1m163.7,23.4V671.1m123,23.4V671.1M206.6,717.9V694.5m163.7,23.4V694.5m123,23.4V694.5M206.6,744V717.9M370.3,744V717.9" class="g1_1179"/>
<path d="M379.1,741.4h54.5V717.9H379.1v23.5Z" class="g2_1179"/>
<path d="M493.3,744V717.9M206.6,767.4V744m163.7,23.4V744m123,23.4V744M206.6,767.7H493.3M510.9,115.4H756.3M510.9,139.1V115.7m134.3,23.4V115.7m111.1,23.4V115.7M510.9,163.2V139.1m134.3,24.1V139.1" class="g1_1179"/>
<path d="M653.9,160.6h61.5V141.9H653.9v18.7Z" class="g2_1179"/>
<path d="M756.3,163.2V139.1M510.9,186.6V163.2m134.3,23.4V163.2m111.1,23.4V163.2M510.9,209.9V186.6m134.3,23.3V186.6m111.1,23.3V186.6M510.9,236.1V209.9m134.3,26.2V209.9" class="g1_1179"/>
<path d="M653.9,233.4h57.4V209.9H653.9v23.5Z" class="g2_1179"/>
<path d="M756.3,236.1V209.9M510.9,259.4V236.1m134.3,23.3V236.1m111.1,23.3V236.1M510.9,282.8V259.4m134.3,23.4V259.4m111.1,23.4V259.4M510.9,308.9V282.8m134.3,26.1V282.8" class="g1_1179"/>
<path d="M653.9,306.3h70.7V282.8H653.9v23.5Z" class="g2_1179"/>
<path d="M756.3,308.9V282.8M510.9,332.3V308.9m134.3,23.4V308.9m111.1,23.4V308.9M510.9,355.7V332.3m134.3,23.4V332.3m111.1,23.4V332.3M510.9,379.8V355.7m134.3,24.1V355.7" class="g1_1179"/>
<path d="M653.9,377.2h74.7V358.5H653.9v18.7Z" class="g2_1179"/>
<path d="M756.3,379.8V355.7M510.9,403.2V379.8m134.3,23.4V379.8m111.1,23.4V379.8M510.9,426.6V403.2m134.3,23.4V403.2m111.1,23.4V403.2M510.9,450.7V426.6m134.3,24.1V426.6" class="g1_1179"/>
<path d="M653.9,448.1h93.7V429.4H653.9v18.7Z" class="g2_1179"/>
<path d="M756.3,450.7V426.6M510.9,474.1V450.7m134.3,23.4V450.7m111.1,23.4V450.7M510.9,497.5V474.1m134.3,23.4V474.1m111.1,23.4V474.1M510.9,523.6V497.5m134.3,26.1V497.5" class="g1_1179"/>
<path d="M653.9,521h74.9V497.5H653.9V521Z" class="g2_1179"/>
<path d="M756.3,523.6V497.5M510.9,547V523.6M645.2,547V523.6M756.3,547V523.6M510.9,570.4V547m134.3,23.4V547m111.1,23.4V547M510.9,596.5V570.4m134.3,26.1V570.4" class="g1_1179"/>
<path d="M653.9,593.8h74.5V570.3H653.9v23.5Z" class="g2_1179"/>
<path d="M756.3,596.5V570.4M510.9,619.8V596.5m134.3,23.3V596.5m111.1,23.3V596.5M510.9,643.2V619.8m134.3,23.4V619.8m111.1,23.4V619.8M510.9,669.3V643.2m134.3,26.1V643.2" class="g1_1179"/>
<path d="M653.9,666.7h80.9V643.2H653.9v23.5Z" class="g2_1179"/>
<path d="M756.3,669.3V643.2M510.9,692.7V669.3m134.3,23.4V669.3m111.1,23.4V669.3M510.9,716.1V692.7m134.3,23.4V692.7m111.1,23.4V692.7M510.9,740.2V716.1m134.3,24.1V716.1" class="g1_1179"/>
<path d="M653.9,737.6h67.7V718.9H653.9v18.7Z" class="g2_1179"/>
<path d="M756.3,740.2V716.1M510.9,763.6V740.2m134.3,23.4V740.2m111.1,23.4V740.2M510.9,763.9H756.3M773.9,109.5h383.9M773.9,133.1V109.7m183.2,23.4V109.7m200.7,23.4V109.7M773.9,159.2V133.1m183.2,26.1V133.1" class="g1_1179"/>
<path d="M965.8,156.6h52.6V133.1H965.8v23.5Z" class="g2_1179"/>
<path d="M1157.8,159.2V133.1M773.9,182.6V159.2m183.2,23.4V159.2m200.7,23.4V159.2M773.9,206V182.6M957.1,206V182.6M1157.8,206V182.6M773.9,233.7V206m183.2,27.7V206" class="g1_1179"/>
<path d="M965.8,233.7h55.3V206H965.8v27.7Z" class="g2_1179"/>
<path d="M1157.8,233.7V206M773.9,257.1V233.7m183.2,23.4V233.7m200.7,23.4V233.7M773.9,280.4V257.1m183.2,23.3V257.1m200.7,23.3V257.1M773.9,304.6V280.4m183.2,24.2V280.4" class="g1_1179"/>
<path d="M965.8,302h81.5V283.3H965.8V302Z" class="g2_1179"/>
<path d="M1157.8,304.6V280.4M773.9,328V304.6M957.1,328V304.6M1157.8,328V304.6M773.9,351.3V328m183.2,23.3V328m200.7,23.3V328M773.9,377.5V351.3m183.2,26.2V351.3" class="g1_1179"/>
<path d="M965.8,374.8H1149V351.3H965.8v23.5Z" class="g2_1179"/>
<path d="M1157.8,377.5V351.3M773.9,400.8V377.5m183.2,23.3V377.5m200.7,23.3V377.5M773.9,424.2V400.8m183.2,23.4V400.8m200.7,23.4V400.8M773.9,450.3V424.2m183.2,26.1V424.2" class="g1_1179"/>
<path d="M965.8,447.7h67.9V424.2H965.8v23.5Z" class="g2_1179"/>
<path d="M1157.8,450.3V424.2M773.9,473.7V450.3m183.2,23.4V450.3m200.7,23.4V450.3M773.9,497.1V473.7m183.2,23.4V473.7m200.7,23.4V473.7M773.9,524.8V497.1m183.2,27.7V497.1" class="g1_1179"/>
<path d="M965.8,524.8h75.8V497.1H965.8v27.7Z" class="g2_1179"/>
<path d="M1157.8,524.8V497.1M773.9,548.2V524.8m183.2,23.4V524.8m200.7,23.4V524.8M773.9,571.5V548.2m183.2,23.3V548.2m200.7,23.3V548.2m-383.9,51V571.5m183.2,27.7V571.5" class="g1_1179"/>
<path d="M965.8,599.2h119.9V571.5H965.8v27.7Z" class="g2_1179"/>
<path d="M1157.8,599.2V571.5M773.9,622.6V599.2m183.2,23.4V599.2m200.7,23.4V599.2M773.9,646V622.6M957.1,646V622.6M1157.8,646V622.6M773.9,671.7V646m183.2,25.7V646" class="g1_1179"/>
<path d="M965.8,671.7h84V648.8h-84v22.9Z" class="g2_1179"/>
<path d="M1157.8,671.7V646M773.9,695.1V671.7m183.2,23.4V671.7m200.7,23.4V671.7M773.9,718.5V695.1m183.2,23.4V695.1m200.7,23.4V695.1M773.9,746.2V718.5m183.2,27.7V718.5" class="g1_1179"/>
<path d="M965.8,746.2h84.6V718.5H965.8v27.7Z" class="g2_1179"/>
<path d="M1157.8,746.2V718.5m-383.9,51V746.2m183.2,23.3V746.2m200.7,23.3V746.2M773.9,769.8h383.9" class="g1_1179"/>
</svg>