<?xml version="1.0" encoding="UTF-8" standalone="no"?>
<!DOCTYPE svg PUBLIC "-//W3C//DTD SVG 1.1//EN"
"http://www.w3.org/Graphics/SVG/1.1/DTD/svg11.dtd">
<svg viewBox="0 0 909 1286" version="1.1" xmlns="http://www.w3.org/2000/svg" xmlns:xlink="http://www.w3.org/1999/xlink">
<defs>
<style type="text/css"><![CDATA[
.g0_4{
fill: none;
stroke: #000000;
stroke-width: 0.73;
stroke-linecap: butt;
stroke-linejoin: miter;
}
.g1_4{
fill: none;
stroke: #F81693;
stroke-width: 0.73;
stroke-linecap: butt;
stroke-linejoin: miter;
}
.g2_4{
fill: none;
stroke: #02B5EE;
stroke-width: 0.73;
stroke-linecap: butt;
stroke-linejoin: miter;
}
.g3_4{
fill: none;
stroke: #999999;
stroke-width: 2.191;
stroke-linecap: butt;
stroke-linejoin: miter;
}
.g4_4{
fill: #FFFFFF;
}
.g5_4{
fill: #FDE8E9;
}
]]></style>
</defs>
<path d="M116.9,179.9H785.5m-460,29.6V180.3m-96.8,80.1l24.9,14.8" class="g0_4"/>
<path d="M228.7,260.4l-31.2,18.7M166.3,260.4l31.2,18.7M166.3,260.4L135,279.1m32.4,-11l23,13.7" class="g1_4"/>
<path d="M226.5,260.4V234.9m4.4,25.5V234.9m94.6,56.4V209.5" class="g0_4"/>
<path d="M517.7,264.3L536,275.2" class="g2_4"/>
<path d="M504.9,264.3l-18.2,10.9M455.2,264.3l18.3,10.9m-31,-10.9l-18.3,10.9m31,-4.9l18.3,11" class="g1_4"/>
<path d="M509.1,255V234.9m4.4,20.1V234.9" class="g2_4"/>
<path d="M325.5,320.5V291.3m0,58.5V320.5" class="g0_4"/>
<path d="M744.1,343.8L728.8,329.5m0,14.3l15.3,-14.3" class="g3_4"/>
<path d="M325.5,379V349.8m0,105.7V379" class="g0_4"/>
<path d="M403.1,447.7V386.8c0,-2.9,2.4,-5.2,5.2,-5.2H606.8c2.9,0,5.2,2.3,5.2,5.2v60.9c0,2.9,-2.3,5.2,-5.2,5.2H408.3c-2.8,0,-5.2,-2.3,-5.2,-5.2Z" class="g4_4"/>
<path d="M471.8,476.2h71.6V462H471.8v14.2Z" class="g5_4"/>
<path d="M429.1,437.3H586V397.2H429.1v40.1Z" class="g5_4"/>
<path d="M325.5,484.7V455.5M116.9,485.1H785.5m-460,29.6V485.5" class="g0_4"/>
<path d="M166.3,585l31.2,-18.6M166.3,585L135,566.4m0,-.2V529.7m30.2,47.6L142.1,563.6" class="g1_4"/>
<path d="M197.5,566.2L222.3,581m-27,-14.8V540.6m4.4,25.6V540.6m125.8,55.9V514.7" class="g0_4"/>
<path d="M455.2,581.2l18.3,-11m-31,11l-18.3,-11m-6.6,-11.3V538.8M442.5,574L424.2,563.1" class="g1_4"/>
<path d="M486.5,570l18.2,11M477.9,560.7V540.6m4.4,20.1V540.6" class="g2_4"/>
<path d="M325.5,625.7V596.5m0,58.5V625.7" class="g0_4"/>
<path d="M712.5,649.1L697.2,634.8m0,14.3l15.3,-14.3" class="g3_4"/>
<path d="M325.5,684.2V655m0,105.7V684.2" class="g0_4"/>
<path d="M403.1,752.9V692c0,-2.9,2.4,-5.2,5.2,-5.2H665.2c2.8,0,5.2,2.3,5.2,5.2v60.9c0,2.9,-2.4,5.2,-5.2,5.2H408.3c-2.8,0,-5.2,-2.3,-5.2,-5.2Z" class="g4_4"/>
<path d="M493.9,781.4h85.7V767.2H493.9v14.2Z" class="g5_4"/>
<path d="M429.1,742.5H644.4V702.4H429.1v40.1Z" class="g5_4"/>
<path d="M325.5,789.9V760.7M116.9,790.3H785.5m-460,29.6V790.7m-69.4,80.1L281,885.6M256.1,870.8l-31.2,18.7M193.7,870.8l31.2,18.7M193.7,870.8l-31.3,18.7m0,.2L131.2,871m122.7,-.2V845.3m4.4,25.5V845.3m67.2,56.4V819.9" class="g0_4"/>
<path d="M545.1,874.7l18.3,10.9" class="g2_4"/>
<path d="M532.3,874.7l-18.2,10.9M482.6,874.7l18.3,10.9m-31,-10.9l-18.3,10.9m-13,.2L420.4,874.9" class="g1_4"/>
<path d="M536.5,865.4V845.3m4.4,20.1V845.3" class="g2_4"/>
<path d="M325.5,930.9V901.7m0,58.5V930.9" class="g0_4"/>
<path d="M689.4,954.3L674.1,940m0,14.3L689.4,940" class="g3_4"/>
<path d="M325.5,989.4V960.2m0,105.7V989.4" class="g0_4"/>
<path d="M403.1,1058.1V997.2c0,-2.9,2.4,-5.2,5.2,-5.2H548.4c2.9,0,5.2,2.3,5.2,5.2v60.9c0,2.9,-2.3,5.2,-5.2,5.2H408.3c-2.8,0,-5.2,-2.3,-5.2,-5.2Z" class="g4_4"/>
<path d="M446.5,1086.6h63.8v-14.2H446.5v14.2Z" class="g5_4"/>
<path d="M429.1,1047.7h98.5v-40.1H429.1v40.1Z" class="g5_4"/>
<path d="M325.5,1095.1v-29.2m-208.6,29.6H785.5" class="g0_4"/>
</svg>