<?xml version="1.0" encoding="UTF-8" standalone="no"?>
<!DOCTYPE svg PUBLIC "-//W3C//DTD SVG 1.1//EN"
"http://www.w3.org/Graphics/SVG/1.1/DTD/svg11.dtd">
<svg viewBox="0 0 909 1286" version="1.1" xmlns="http://www.w3.org/2000/svg" xmlns:xlink="http://www.w3.org/1999/xlink">
<defs>
<clipPath id="c0_69"><path d="M119.5,215.6V182.1H789.9v33.5Z"/></clipPath>
<style type="text/css"><![CDATA[
.g0_69{
fill: none;
stroke: #000000;
stroke-width: 0.73;
stroke-linecap: butt;
stroke-linejoin: miter;
}
.g1_69{
fill: #7F7F7F;
fill-opacity: 0.01;
}
.g2_69{
fill: #7F7F7F;
fill-opacity: 0.02;
}
.g3_69{
fill: #7F7F7F;
fill-opacity: 0.04;
}
.g4_69{
fill: #7F7F7F;
fill-opacity: 0.07;
}
.g5_69{
fill: #7F7F7F;
fill-opacity: 0.11;
}
.g6_69{
fill: #FFFFFF;
}
.g7_69{
fill: #7F7F7F;
}
.g8_69{
fill: #EC008C;
}
.g9_69{
fill: #CBCEFB;
}
.ga_69{
fill: #FFFEF5;
}
.gb_69{
fill: none;
stroke: #D6C944;
stroke-width: 0.365;
stroke-linecap: butt;
stroke-linejoin: miter;
}
.gc_69{
fill: #E81A58;
}
.gd_69{
fill: #401A1A;
}
]]></style>
</defs>
<path d="M116.9,159.9H792.5" class="g0_69"/>
<path d="M122.2,184.8c221.7,0,443.4,0,665,0V592.5c-221.6,-9.3,-443.3,-9.3,-665,0Z" class="g1_69"/>
<path d="M122.9,185.4c221.2,0,442.4,0,663.7,0V591.9c-221.3,-9.3,-442.5,-9.3,-663.7,0Z" class="g2_69"/>
<path d="M123.5,186.1c220.8,0,441.6,0,662.5,0V591.3c-220.9,-9.4,-441.7,-9.4,-662.5,0Z" class="g3_69"/>
<path d="M124.1,186.7c220.4,0,440.8,0,661.2,0v404c-220.4,-9.4,-440.8,-9.4,-661.2,0Z" class="g4_69"/>
<path d="M124.7,187.3c220,0,440,0,660,0V590.1c-220,-9.4,-440,-9.4,-660,0Z" class="g5_69"/>
<path d="M125.4,187.9c219.5,0,439.1,0,658.7,0V589.4c-219.6,-9.3,-439.2,-9.3,-658.7,0Z" class="g5_69"/>
<path d="M126,188.6c219.1,0,438.3,0,657.5,0V588.8c-219.2,-9.3,-438.4,-9.3,-657.5,0Z" class="g4_69"/>
<path d="M126.6,189.2c218.8,0,437.5,0,656.3,0v399c-218.8,-9.4,-437.5,-9.4,-656.3,0Z" class="g3_69"/>
<path d="M127.2,189.8c218.4,0,436.7,0,655,0V587.6c-218.3,-9.4,-436.6,-9.4,-655,0Z" class="g2_69"/>
<path d="M127.9,190.4c217.9,0,435.8,0,653.7,0V586.9c-217.9,-9.3,-435.8,-9.3,-653.7,0Z" class="g1_69"/>
<path d="M116.9,582.3V179.5H792.5V582.3Z" class="g6_69"/>
<path d="M119.5,579.7V218.2H789.9V579.7Z" class="g6_69"/>
<path d="M119.5,215.6V182.1H789.9v33.5Z" class="g7_69"/>
<g clip-path="url(#c0_69)">
<image x="119" y="181" width="672" height="34" xlink:href="shade/1.png"/>
</g>
<path d="M675.7,210.5h88.2V187.3H675.7v23.2Z" class="g8_69"/>
<path d="M348.5,234.2H561M348.9,263.8V234.6" class="g0_69"/>
<path d="M349.2,263.8h69.9V234.6H349.2v29.2Z" class="g9_69"/>
<path d="M419.4,263.8V234.6" class="g0_69"/>
<path d="M419.8,263.8h69.8V234.6H419.8v29.2Z" class="g9_69"/>
<path d="M490,263.8V234.6" class="g0_69"/>
<path d="M490.4,263.8h69.8V234.6H490.4v29.2Z" class="g9_69"/>
<path d="M560.6,263.8V234.6M348.5,264.2H561M348.9,293.7V264.5m70.5,29.2V264.5M490,293.7V264.5m70.6,29.2V264.5M348.5,294.1H561M348.9,323.7V294.5m70.5,29.2V294.5M490,323.7V294.5m70.6,29.2V294.5M348.5,324.1H561M348.9,353.7V324.4m70.5,29.3V324.4M490,353.7V324.4m70.6,29.3V324.4M348.5,354H561M348.9,383.6V354.4m70.5,29.2V354.4M490,383.6V354.4m70.6,29.2V354.4M348.5,384H561M348.9,413.6V384.3m70.5,29.3V384.3M490,413.6V384.3m70.6,29.3V384.3M348.5,413.9H561M348.9,443.5V414.3m70.5,29.2V414.3M490,443.5V414.3m70.6,29.2V414.3M348.5,443.9H561M348.9,473.5V444.3m70.5,29.2V444.3M490,473.5V444.3m70.6,29.2V444.3M348.5,473.8H561M348.9,503.4V474.2m70.5,29.2V474.2M490,503.4V474.2m70.6,29.2V474.2M348.5,503.8H561M348.9,533.4V504.2m70.5,29.2V504.2M490,533.4V504.2m70.6,29.2V504.2M348.5,533.7H561M348.9,563.3V534.1m70.5,29.2V534.1M490,563.3V534.1m70.6,29.2V534.1M348.5,563.7H561" class="g0_69"/>
<path d="M-2.9,735.4V669.9H912.4v65.5Z" class="g6_69"/>
<path d="M-.3,732.8V672.5H909.8v60.3Z" class="ga_69"/>
<path d="M-.3,724.5H909.8M-.3,698.5H909.8M-.3,672.5H909.8M-.3,732.8V672.5m25.9,60.3V672.5m26,60.3V672.5m26,60.3V672.5m26,60.3V672.5m26,60.3V672.5m25.9,60.3V672.5m26,60.3V672.5m26,60.3V672.5m26,60.3V672.5m26,60.3V672.5m26,60.3V672.5m25.9,60.3V672.5m26,60.3V672.5m26,60.3V672.5m26,60.3V672.5m26,60.3V672.5m26,60.3V672.5m26,60.3V672.5m25.9,60.3V672.5m26,60.3V672.5m26,60.3V672.5m26,60.3V672.5m26,60.3V672.5m26,60.3V672.5m25.9,60.3V672.5m26,60.3V672.5m26,60.3V672.5m26,60.3V672.5m26,60.3V672.5m26,60.3V672.5m25.9,60.3V672.5m26,60.3V672.5m26,60.3V672.5m26,60.3V672.5m26,60.3V672.5" class="gb_69"/>
<path d="M116.9,1123.1V833c0,-21.6,17.6,-39.2,39.2,-39.2H792.5v329.3Z" class="gc_69"/>
<path d="M119.5,1123.1V826.3H789.9v296.8Z" class="gd_69"/>
</svg>