<?xml version="1.0" encoding="UTF-8" standalone="no"?>
<!DOCTYPE svg PUBLIC "-//W3C//DTD SVG 1.1//EN"
"http://www.w3.org/Graphics/SVG/1.1/DTD/svg11.dtd">
<svg viewBox="0 0 1286 909" version="1.1" xmlns="http://www.w3.org/2000/svg" xmlns:xlink="http://www.w3.org/1999/xlink">
<defs>
<style type="text/css"><![CDATA[
.g0_1278{
fill: none;
stroke: #000000;
stroke-width: 0.73;
stroke-linecap: butt;
stroke-linejoin: miter;
}
]]></style>
</defs>
<path d="M193,83.4h900.3M193,210.6H740.2m-547.2,0H740.2M454.6,240.2V211m0,58.5V240.2m0,60.1V269.5m0,60V300.3m0,58.4V329.5m0,60.1V358.7m0,60.1V389.6m0,58.4V418.8m0,60.1V448m0,60.1V478.9m0,58.4V508.1m0,60.1V537.3m0,60.1V568.2m0,58.4V597.4m0,60.1V626.6m0,60.1V657.5m0,58.4V686.7m0,58.4V715.9M193,745.5H740.2m-547.2,0H740.2" class="g0_1278"/>
</svg>