<?xml version="1.0" encoding="UTF-8" standalone="no"?>
<!DOCTYPE svg PUBLIC "-//W3C//DTD SVG 1.1//EN"
"http://www.w3.org/Graphics/SVG/1.1/DTD/svg11.dtd">
<svg viewBox="0 0 909 1286" version="1.1" xmlns="http://www.w3.org/2000/svg" xmlns:xlink="http://www.w3.org/1999/xlink">
<defs>
<clipPath id="c0_39"><path d="M119.5,239V205.4H446.9V239Z"/></clipPath>
<clipPath id="c1_39"><path d="M462.5,239V205.4H789.9V239Z"/></clipPath>
<style type="text/css"><![CDATA[
.g0_39{
fill: none;
stroke: #000000;
stroke-width: 0.73;
stroke-linecap: butt;
stroke-linejoin: miter;
}
.g1_39{
fill: #7F7F7F;
fill-opacity: 0.01;
}
.g2_39{
fill: #7F7F7F;
fill-opacity: 0.02;
}
.g3_39{
fill: #7F7F7F;
fill-opacity: 0.04;
}
.g4_39{
fill: #7F7F7F;
fill-opacity: 0.07;
}
.g5_39{
fill: #7F7F7F;
fill-opacity: 0.11;
}
.g6_39{
fill: #FFFFFF;
}
.g7_39{
fill: #7F7F7F;
}
.g8_39{
fill: #00AEEF;
}
.g9_39{
fill: #CBCEFB;
}
.ga_39{
fill: #EC008C;
}
.gb_39{
fill: #E81A58;
}
.gc_39{
fill: #401A1A;
}
]]></style>
</defs>
<path d="M116.9,159.9H792.5" class="g0_39"/>
<path d="M122.2,208.1c107.4,0,214.7,0,322,0V499.5c-107.3,-9.3,-214.6,-9.3,-322,0Z" class="g1_39"/>
<path d="M122.9,208.8c106.9,0,213.8,0,320.7,0V498.9c-106.9,-9.4,-213.8,-9.4,-320.7,0Z" class="g2_39"/>
<path d="M123.5,209.4c106.5,0,213,0,319.5,0V498.3c-106.5,-9.4,-213,-9.4,-319.5,0Z" class="g3_39"/>
<path d="M124.1,210c106.1,0,212.2,0,318.3,0V497.6c-106.1,-9.3,-212.2,-9.3,-318.3,0Z" class="g4_39"/>
<path d="M124.7,210.6c105.7,0,211.4,0,317,0V497c-105.6,-9.3,-211.3,-9.3,-317,0Z" class="g5_39"/>
<path d="M125.4,211.2c105.2,0,210.5,0,315.7,0V496.4C335.9,487,230.6,487,125.4,496.4Z" class="g5_39"/>
<path d="M126,211.9c104.8,0,209.7,0,314.5,0V495.8c-104.8,-9.4,-209.7,-9.4,-314.5,0Z" class="g4_39"/>
<path d="M126.6,212.5c104.4,0,208.8,0,313.3,0V495.1c-104.5,-9.3,-208.9,-9.3,-313.3,0Z" class="g3_39"/>
<path d="M127.2,213.1c104,0,208,0,312,0V494.5c-104,-9.3,-208,-9.3,-312,0Z" class="g2_39"/>
<path d="M127.9,213.7c103.5,0,207.1,0,310.7,0V493.9c-103.6,-9.4,-207.2,-9.4,-310.7,0Z" class="g1_39"/>
<path d="M116.9,489.2V202.8H449.5V489.2Z" class="g6_39"/>
<path d="M119.5,486.6v-245H446.9v245Z" class="g6_39"/>
<path d="M119.5,239V205.4H446.9V239Z" class="g7_39"/>
<g clip-path="url(#c0_39)">
<image x="119" y="205" width="329" height="34" xlink:href="shade/1.png"/>
</g>
<path d="M316.9,233.8h104V210.6h-104v23.2Z" class="g8_39"/>
<path d="M192.2,290.9h182M192.6,320.5V291.3" class="g0_39"/>
<path d="M193,320.5h62V291.3H193v29.2Z" class="g9_39"/>
<path d="M255.3,320.5V291.3" class="g0_39"/>
<path d="M255.7,320.5H373.5V291.3H255.7v29.2Z" class="g9_39"/>
<path d="M373.9,320.5V291.3M192.2,320.9h182M192.6,350.5V321.3m62.7,29.2V321.3m118.6,29.2V321.3M192.2,350.8h182M192.6,380.4V351.2m62.7,29.2V351.2m118.6,29.2V351.2M192.2,380.8h182M192.6,410.4V381.2m62.7,29.2V381.2m118.6,29.2V381.2M192.2,410.8h182M192.6,440.3V411.1m62.7,29.2V411.1m118.6,29.2V411.1M192.2,440.7h182M192.6,470.3V441.1m62.7,29.2V441.1m118.6,29.2V441.1M192.2,470.7h182" class="g0_39"/>
<path d="M465.2,208.1c107.4,0,214.7,0,322,0V602.3c-107.3,-9.3,-214.6,-9.3,-322,0Z" class="g1_39"/>
<path d="M465.8,208.8c107,0,213.9,0,320.8,0V601.7c-106.9,-9.3,-213.8,-9.3,-320.8,0Z" class="g2_39"/>
<path d="M466.5,209.4c106.5,0,213,0,319.5,0V601.1c-106.5,-9.4,-213,-9.4,-319.5,0Z" class="g3_39"/>
<path d="M467.1,210c106.1,0,212.2,0,318.2,0V600.5c-106,-9.4,-212.1,-9.4,-318.2,0Z" class="g4_39"/>
<path d="M467.7,210.6c105.7,0,211.3,0,317,0V599.8c-105.7,-9.3,-211.3,-9.3,-317,0Z" class="g5_39"/>
<path d="M468.3,211.2c105.3,0,210.5,0,315.8,0v388c-105.3,-9.3,-210.5,-9.3,-315.8,0Z" class="g5_39"/>
<path d="M469,211.9c104.8,0,209.6,0,314.5,0V598.6c-104.9,-9.4,-209.7,-9.4,-314.5,0Z" class="g4_39"/>
<path d="M469.6,212.5c104.4,0,208.8,0,313.2,0V598C678.4,588.6,574,588.6,469.6,598Z" class="g3_39"/>
<path d="M470.2,213.1c104,0,208,0,312,0V597.4c-104,-9.4,-208,-9.4,-312,0Z" class="g2_39"/>
<path d="M470.8,213.7c103.6,0,207.2,0,310.8,0v383c-103.6,-9.3,-207.2,-9.3,-310.8,0Z" class="g1_39"/>
<path d="M459.9,592.1V202.8H792.5V592.1Z" class="g6_39"/>
<path d="M462.5,589.5V241.6H789.9V589.5Z" class="g6_39"/>
<path d="M462.5,239V205.4H789.9V239Z" class="g7_39"/>
<g clip-path="url(#c1_39)">
<image x="462" y="205" width="329" height="34" xlink:href="shade/2.png"/>
</g>
<path d="M675.7,233.8h88.2V210.6H675.7v23.2Z" class="ga_39"/>
<path d="M504.7,273.9h243M505.1,303.5V274.3" class="g0_39"/>
<path d="M505.5,303.5h62V274.3h-62v29.2Z" class="g9_39"/>
<path d="M567.8,303.5V274.3" class="g0_39"/>
<path d="M568.2,303.5h60.3V274.3H568.2v29.2Z" class="g9_39"/>
<path d="M628.8,303.5V274.3" class="g0_39"/>
<path d="M629.2,303.5H747V274.3H629.2v29.2Z" class="g9_39"/>
<path d="M747.3,303.5V274.3M504.7,303.9h243M505.1,333.5V304.3m62.7,29.2V304.3m61,29.2V304.3m118.5,29.2V304.3M504.7,333.9h243M505.1,363.4V334.2m62.7,29.2V334.2m61,29.2V334.2m118.5,29.2V334.2M504.7,363.8h243M505.1,393.4V364.2m62.7,29.2V364.2m61,29.2V364.2m118.5,29.2V364.2M504.7,393.8h243M505.1,423.4V394.1m62.7,29.3V394.1m61,29.3V394.1m118.5,29.3V394.1M504.7,423.7h243M505.1,453.3V424.1m62.7,29.2V424.1m61,29.2V424.1m118.5,29.2V424.1M504.7,453.7h243M505.1,483.3V454m62.7,29.3V454m61,29.3V454m118.5,29.3V454M504.7,483.6h243M505.1,513.2V484m62.7,29.2V484m61,29.2V484m118.5,29.2V484M504.7,513.6h243M505.1,543.2V513.9m62.7,29.3V513.9m61,29.3V513.9m118.5,29.3V513.9M504.7,543.5h243M505.1,573.1V543.9m62.7,29.2V543.9m61,29.2V543.9m118.5,29.2V543.9M504.7,573.5h243" class="g0_39"/>
<path d="M116.9,1138.2V1023.4c0,-21.6,17.6,-39.2,39.2,-39.2H792.5v154Z" class="gb_39"/>
<path d="M119.5,1138.2V1016.7H789.9v121.5Z" class="gc_39"/>
</svg>