<?xml version="1.0" encoding="UTF-8" standalone="no"?>
<!DOCTYPE svg PUBLIC "-//W3C//DTD SVG 1.1//EN"
"http://www.w3.org/Graphics/SVG/1.1/DTD/svg11.dtd">
<svg viewBox="0 0 1286 909" version="1.1" xmlns="http://www.w3.org/2000/svg" xmlns:xlink="http://www.w3.org/1999/xlink">
<defs>
<style type="text/css"><![CDATA[
.g0_523{
fill: none;
stroke: #000000;
stroke-width: 0.73;
stroke-linecap: butt;
stroke-linejoin: miter;
}
.g1_523{
fill: #B3E9FA;
}
.g2_523{
fill: none;
stroke: #02B5EE;
stroke-width: 1.461;
stroke-linecap: butt;
stroke-linejoin: miter;
stroke-dasharray: 2,2;
}
.g3_523{
fill: none;
stroke: #02B5EE;
stroke-width: 0.73;
stroke-linecap: butt;
stroke-linejoin: miter;
}
.g4_523{
fill: none;
stroke: #5EE200;
stroke-width: 1.461;
stroke-linecap: butt;
stroke-linejoin: miter;
stroke-dasharray: 2,2;
}
.g5_523{
fill: #AEF080;
}
.g6_523{
fill: none;
stroke: #F81693;
stroke-width: 1.262;
stroke-linecap: butt;
stroke-linejoin: miter;
}
.g7_523{
fill: none;
stroke: #02B5EE;
stroke-width: 1.262;
stroke-linecap: butt;
stroke-linejoin: miter;
}
.g8_523{
fill: none;
stroke: #FFA313;
stroke-width: 1.262;
stroke-linecap: butt;
stroke-linejoin: miter;
}
.g9_523{
fill: none;
stroke: #F81693;
stroke-width: 0.73;
stroke-linecap: butt;
stroke-linejoin: miter;
}
.ga_523{
fill: none;
stroke: #FFA313;
stroke-width: 0.73;
stroke-linecap: butt;
stroke-linejoin: miter;
}
]]></style>
</defs>
<path d="M193,83.4h900.3M193,111.6h998m-998,0h998M629.2,141.2V112m0,59.4V141.2m0,103.3V171.4" class="g0_523"/>
<path d="M828.6,208.7v-7c0,-2.9,2.3,-5.2,5.2,-5.2h276.3c2.8,0,5.2,2.3,5.2,5.2v7c0,2.8,-2.4,5.2,-5.2,5.2H833.8c-2.9,0,-5.2,-2.4,-5.2,-5.2Z" class="g1_523"/>
<path d="M1127.6,216.4h48.8" class="g2_523"/>
<path d="M826,230.6h354.1" class="g3_523"/>
<path d="M629.2,273.7V244.5m0,58.4V273.7m0,114.2v-85" class="g0_523"/>
<path d="M751.1,345.8H789" class="g4_523"/>
<path d="M803.1,352.2H1059V319.3H803.1v32.9Z" class="g5_523"/>
<path d="M747.4,364H1059" class="g6_523"/>
<path d="M1069.5,364h22.6" class="g7_523"/>
<path d="M1102.6,364h77.5" class="g8_523"/>
<path d="M629.2,418.1V387.9m0,103.3V418.1" class="g0_523"/>
<path d="M730.8,463.1h65.8" class="g4_523"/>
<path d="M800.2,467.4H1029V434.5H800.2v32.9Z" class="g5_523"/>
<path d="M727.2,477.3h318.7" class="g9_523"/>
<path d="M1045.9,477.3h83.5" class="ga_523"/>
<path d="M1129.4,477.3h50.7" class="g3_523"/>
<path d="M629.2,520.4V491.2m0,60.5V520.4m0,60.5V551.7m0,58.5V580.9m0,114.3v-85" class="g0_523"/>
<path d="M884.7,671.2H903" class="g6_523"/>
<path d="M913.6,671.2h266.5" class="g7_523"/>
<path d="M629.2,724.4V695.2M193,724.8h998m-998,0h998" class="g0_523"/>
</svg>