<?xml version="1.0" encoding="UTF-8" standalone="no"?>
<!DOCTYPE svg PUBLIC "-//W3C//DTD SVG 1.1//EN"
"http://www.w3.org/Graphics/SVG/1.1/DTD/svg11.dtd">
<svg viewBox="0 0 909 1286" version="1.1" xmlns="http://www.w3.org/2000/svg" xmlns:xlink="http://www.w3.org/1999/xlink">
<defs>
<style type="text/css"><![CDATA[
.g0{
fill: none;
stroke: #000000;
stroke-width: 0.73;
stroke-linecap: butt;
stroke-linejoin: miter;
}
.g1{
fill: none;
stroke: #000000;
stroke-width: 9.132;
stroke-linecap: butt;
stroke-linejoin: miter;
}
.g2{
fill: none;
stroke: #999999;
stroke-width: 2.191;
stroke-linecap: butt;
stroke-linejoin: miter;
}
.g3{
fill: #FDE8E9;
}
.g4{
fill: none;
stroke: #02B5EE;
stroke-width: 1.461;
stroke-linecap: butt;
stroke-linejoin: miter;
}
]]></style>
</defs>
<path d="M116.9,261.9H783.4M117.3,358.8V262.3M783,358.8V262.3M116.9,359.2H783.4" class="g0"/>
<path d="M126.1,364.1H792.5m-4.6,4.6v-98" class="g1"/>
<path d="M116.9,400.1H609.5m-357,29.6V400.5M200,443.4l24.9,14.8m0,36.7V458.4m-62.5,36.5h62.5m-62.5,0V458.4m24.9,-15l-24.9,14.8m90.1,53.3V429.7m65.2,13.7l24.8,14.8m0,36.7V458.4M280,494.9h62.5m-62.5,0V458.4m24.9,-15L280,458.2m-27.5,82.6V511.5m0,58.5V540.8" class="g0"/>
<path d="M459.4,564.1L444.3,549.8m0,14.3l15.1,-14.3" class="g2"/>
<path d="M252.5,599.2V570m0,68.6V599.2" class="g0"/>
<path d="M322.9,638.6H494.5V599.2H322.9v39.4Z" class="g3"/>
<path d="M252.5,667.8V638.6M116.9,668.2H609.5m-357,29.5V668.5m-70.7,42.9l24.8,14.8m0,29.4V726.4M144.2,763H199m-54.8,0V726.4m24.8,-15l-24.8,14.8m108.3,53.4V697.7m65.2,13.7l24.8,14.8m0,29.4V726.4M280,763h54.8M280,763V726.4m24.9,-15L280,726.2m-27.5,82.6V779.6m0,58.4V808.8" class="g0"/>
<path d="M263.8,839.2c1.4,0,2,-2.7,3.4,-2.7c1,0,1.9,1.3,2.8,2.7c.9,1.4,1.7,2.7,2.7,2.7c1,0,1.8,-1.3,2.7,-2.7c.9,-1.4,1.8,-2.7,2.8,-2.7c1,0,1.8,1.3,2.7,2.7c.9,1.4,1.8,2.7,2.8,2.7c.9,0,1.8,-1.3,2.7,-2.7c.9,-1.4,1.7,-2.7,2.7,-2.7c1,0,1.9,1.3,2.8,2.7c.9,1.4,1.7,2.7,2.7,2.7c1,0,1.9,-1.3,2.8,-2.7c.8,-1.4,1.7,-2.7,2.7,-2.7c1,0,1.8,1.3,2.7,2.7c.9,1.4,1.8,2.7,2.8,2.7c1,0,1.8,-1.3,2.7,-2.7c.9,-1.4,1.8,-2.7,2.8,-2.7c.9,0,1.8,1.3,2.7,2.7c.9,1.4,1.7,2.7,2.7,2.7c1,0,1.9,-1.3,2.8,-2.7c.9,-1.4,1.7,-2.7,2.7,-2.7c1.4,0,2.1,2.7,3.4,2.7h1.1" class="g4"/>
<path d="M522.1,832.1L507,817.8m0,14.3l15.1,-14.3" class="g2"/>
<path d="M252.5,867.2V838m0,65.6V867.2" class="g0"/>
<path d="M322.9,900.3H525.4V867.2H322.9v33.1Z" class="g3"/>
<path d="M252.5,932.8V903.6M116.9,933.2H609.5" class="g0"/>
</svg>