<?xml version="1.0" encoding="UTF-8" standalone="no"?>
<!DOCTYPE svg PUBLIC "-//W3C//DTD SVG 1.1//EN"
"http://www.w3.org/Graphics/SVG/1.1/DTD/svg11.dtd">
<svg viewBox="0 0 909 1286" version="1.1" xmlns="http://www.w3.org/2000/svg" xmlns:xlink="http://www.w3.org/1999/xlink">
<defs>
<clipPath id="c0_71"><path d="M122.1,716.1V685.2h30.8v30.9Z"/></clipPath>
<clipPath id="c1_71"><path d="M122.1,716.1v-31H153v31Z"/></clipPath>
<style type="text/css"><![CDATA[
.g0_71{
fill: none;
stroke: #000000;
stroke-width: 0.73;
stroke-linecap: butt;
stroke-linejoin: miter;
}
.g1_71{
fill: #FFFFFF;
}
.g2_71{
}
.g3_71{
fill: none;
stroke: #000000;
stroke-width: 1.461;
stroke-linecap: butt;
stroke-linejoin: miter;
}
.g4_71{
fill: none;
stroke: #000000;
stroke-width: 2.739;
stroke-linecap: butt;
stroke-linejoin: miter;
}
]]></style>
</defs>
<path d="M409.2,317h35.2m28.7,0h27.2M288,448.5h35.2" class="g0_71"/>
<path d="M117.7,961.2V678.4H791.8V961.2Z" class="g1_71"/>
<path d="M117.7,961.2V678.4H791.8V961.2Z" class="g3_71"/>
<g clip-path="url(#c1_71)">
<path clip-path="url(#c0_71)" d="M141.2,708.7c-3.2,0,-6.1,-1.2,-8.4,-3.4c-2.2,-2.2,-3.4,-5.2,-3.4,-8.3c0,-3.2,1.2,-6.1,3.4,-8.4c2.3,-2.2,5.2,-3.4,8.4,-3.4c3.1,0,6.1,1.2,8.3,3.4c4.6,4.6,4.6,12.1,0,16.7c-2.2,2.2,-5.2,3.4,-8.3,3.4Z" class="g2_71"/>
<path d="M141.2,687.2c-2.6,0,-5.1,1,-6.9,2.9c-3.8,3.8,-3.8,10,0,13.8c1.8,1.8,4.3,2.8,6.9,2.8c2.6,0,5,-1,6.8,-2.8c1.9,-1.9,2.9,-4.3,2.9,-6.9c0,-2.6,-1,-5.1,-2.9,-6.9c-1.8,-1.9,-4.2,-2.9,-6.8,-2.9Z" class="g1_71"/>
<path d="M124.4,716.1l-2.3,-2.4l8.6,-8.6l2.4,2.3Z" class="g2_71"/>
</g>
<path d="M152.7,709.9H641.8" class="g0_71"/>
<path d="M137.6,716.5V951.8" class="g4_71"/>
</svg>