<?xml version="1.0" encoding="UTF-8" standalone="no"?>
<!DOCTYPE svg PUBLIC "-//W3C//DTD SVG 1.1//EN"
"http://www.w3.org/Graphics/SVG/1.1/DTD/svg11.dtd">
<svg viewBox="0 0 1286 909" version="1.1" xmlns="http://www.w3.org/2000/svg" xmlns:xlink="http://www.w3.org/1999/xlink">
<defs>
<style type="text/css"><![CDATA[
.g0_231{
fill: none;
stroke: #000000;
stroke-width: 0.73;
stroke-linecap: butt;
stroke-linejoin: miter;
}
.g1_231{
fill: #B3E9FA;
}
.g2_231{
fill: none;
stroke: #02B5EE;
stroke-width: 1.262;
stroke-linecap: butt;
stroke-linejoin: miter;
}
.g3_231{
fill: none;
stroke: #5EE200;
stroke-width: 1.262;
stroke-linecap: butt;
stroke-linejoin: miter;
}
.g4_231{
fill: none;
stroke: #5EE200;
stroke-width: 0.73;
stroke-linecap: butt;
stroke-linejoin: miter;
}
.g5_231{
fill: none;
stroke: #02B5EE;
stroke-width: 0.73;
stroke-linecap: butt;
stroke-linejoin: miter;
}
]]></style>
</defs>
<path d="M193,83.4h900.3M193,111.6H856.2m-663.2,0H856.2M531,141.2V112m0,58.5V141.2m0,114.3v-85" class="g0_231"/>
<path d="M612.9,205.7V193.5c0,-2.9,2.4,-5.2,5.2,-5.2H730.2c2.9,0,5.2,2.3,5.2,5.2v12.2c0,2.9,-2.3,5.2,-5.2,5.2H618.1c-2.8,0,-5.2,-2.3,-5.2,-5.2Z" class="g1_231"/>
<path d="M610.3,231.5H738" class="g2_231"/>
<path d="M748.5,231.5h96.8" class="g3_231"/>
<path d="M531,284.7V255.5m0,58.4V284.7M531,399V313.9" class="g0_231"/>
<path d="M546.2,349.2V337c0,-2.9,2.3,-5.2,5.2,-5.2h94.5c2.9,0,5.2,2.3,5.2,5.2v12.2c0,2.8,-2.3,5.2,-5.2,5.2H551.4c-2.9,0,-5.2,-2.4,-5.2,-5.2Z" class="g1_231"/>
<path d="M543.6,375H653.7" class="g2_231"/>
<path d="M664.2,375H845.3" class="g3_231"/>
<path d="M531,428.2V399m0,58.4V428.2m0,114.2v-85" class="g0_231"/>
<path d="M623.6,518.4H665" class="g2_231"/>
<path d="M822.8,518.4h22.5" class="g3_231"/>
<path d="M531,572.6V542.4m0,103.3V572.6" class="g0_231"/>
<path d="M641.9,631.8h34.5" class="g4_231"/>
<path d="M777.7,631.8h67.6" class="g5_231"/>
<path d="M531,674.9V645.7m0,58.4V674.9m0,58.4V704.1M193,733.7H856.2m-663.2,0H856.2" class="g0_231"/>
</svg>