<?xml version="1.0" encoding="UTF-8" standalone="no"?>
<!DOCTYPE svg PUBLIC "-//W3C//DTD SVG 1.1//EN"
"http://www.w3.org/Graphics/SVG/1.1/DTD/svg11.dtd">
<svg viewBox="0 0 1286 909" version="1.1" xmlns="http://www.w3.org/2000/svg" xmlns:xlink="http://www.w3.org/1999/xlink">
<defs>
<style type="text/css"><![CDATA[
.g0_780{
fill: none;
stroke: #000000;
stroke-width: 0.73;
stroke-linecap: butt;
stroke-linejoin: miter;
}
.g1_780{
fill: none;
stroke: #02B5EE;
stroke-width: 1.262;
stroke-linecap: butt;
stroke-linejoin: miter;
}
.g2_780{
fill: none;
stroke: #02B5EE;
stroke-width: 0.73;
stroke-linecap: butt;
stroke-linejoin: miter;
}
.g3_780{
fill: none;
stroke: #FFA313;
stroke-width: 1.262;
stroke-linecap: butt;
stroke-linejoin: miter;
}
.g4_780{
fill: none;
stroke: #FFA313;
stroke-width: 0.73;
stroke-linecap: butt;
stroke-linejoin: miter;
}
]]></style>
</defs>
<path d="M193,83.4h900.3M193,210.6h898.5m-898.5,0h898.5M430.3,240.2V211m0,58.5V240.2m0,114.3v-85" class="g0_780"/>
<path d="M801.1,330.5h150" class="g1_780"/>
<path d="M430.3,383.7V354.5m0,102.3V383.7" class="g0_780"/>
<path d="M894.7,442.9h185.8" class="g2_780"/>
<path d="M430.3,486V456.8m0,58.4V486m0,114.2v-85" class="g0_780"/>
<path d="M792.4,576.2H827" class="g1_780"/>
<path d="M837.5,576.2h243" class="g3_780"/>
<path d="M430.3,629.5V600.2m0,102.3v-73" class="g0_780"/>
<path d="M682.9,688.6H962.3" class="g4_780"/>
<path d="M1046.7,688.6h33.8" class="g2_780"/>
<path d="M430.3,731.7V702.5m0,58.5V731.7M193,761.3h898.5m-898.5,0h898.5" class="g0_780"/>
</svg>