<?xml version="1.0" encoding="UTF-8" standalone="no"?>
<!DOCTYPE svg PUBLIC "-//W3C//DTD SVG 1.1//EN"
"http://www.w3.org/Graphics/SVG/1.1/DTD/svg11.dtd">
<svg viewBox="0 0 1286 909" version="1.1" xmlns="http://www.w3.org/2000/svg" xmlns:xlink="http://www.w3.org/1999/xlink">
<defs>
<style type="text/css"><![CDATA[
.g0_341{
fill: none;
stroke: #000000;
stroke-width: 0.73;
stroke-linecap: butt;
stroke-linejoin: miter;
}
.g1_341{
fill: #FFCCCC;
}
.g2_341{
fill: #AEF080;
}
.g3_341{
fill: none;
stroke: #5EE200;
stroke-width: 1.461;
stroke-linecap: butt;
stroke-linejoin: miter;
stroke-dasharray: 2,2;
}
.g4_341{
fill: none;
stroke: #02B5EE;
stroke-width: 1.262;
stroke-linecap: butt;
stroke-linejoin: miter;
}
.g5_341{
fill: none;
stroke: #FFA313;
stroke-width: 1.262;
stroke-linecap: butt;
stroke-linejoin: miter;
}
.g6_341{
fill: none;
stroke: #5EE200;
stroke-width: 1.262;
stroke-linecap: butt;
stroke-linejoin: miter;
}
]]></style>
</defs>
<path d="M193,83.4h900.3M193,210.6h908.9m-908.9,0h908.9M600.5,240.2V211m0,58.5V240.2m0,63.2V269.5" class="g0_341"/>
<path d="M773.2,303.4H842V270.5H773.2v32.9Z" class="g1_341"/>
<path d="M852.5,303.4H980.4V270.5H852.5v32.9Z" class="g2_341"/>
<path d="M994.5,297h92.8" class="g3_341"/>
<path d="M600.5,332.6V303.4m0,62.1V332.6" class="g0_341"/>
<path d="M870.5,361.1h32.4" class="g3_341"/>
<path d="M906.6,365.5h79.2V332.6H906.6v32.9Z" class="g2_341"/>
<path d="M991.9,365.5H1091V332.6H991.9v32.9Z" class="g1_341"/>
<path d="M600.5,396.8V365.5m0,60.5V396.8m0,58.5V426m0,114.3v-85" class="g0_341"/>
<path d="M765.7,516.3h34.7" class="g4_341"/>
<path d="M810.9,516.3H927.5" class="g5_341"/>
<path d="M600.5,569.5V540.3m0,58.4V569.5m0,114.3V598.7" class="g0_341"/>
<path d="M715,659.8h70" class="g4_341"/>
<path d="M795.5,659.8h132" class="g6_341"/>
<path d="M600.5,713V683.8m0,58.4V713M193,742.6h908.9m-908.9,0h908.9" class="g0_341"/>
</svg>