<?xml version="1.0" encoding="UTF-8" standalone="no"?>
<!DOCTYPE svg PUBLIC "-//W3C//DTD SVG 1.1//EN"
"http://www.w3.org/Graphics/SVG/1.1/DTD/svg11.dtd">
<svg viewBox="0 0 909 1286" version="1.1" xmlns="http://www.w3.org/2000/svg" xmlns:xlink="http://www.w3.org/1999/xlink">
<defs>
<style type="text/css"><![CDATA[
.g0_11{
fill: none;
stroke: #000000;
stroke-width: 0.73;
stroke-linecap: butt;
stroke-linejoin: miter;
}
.g1_11{
fill: none;
stroke: #F81693;
stroke-width: 0.73;
stroke-linecap: butt;
stroke-linejoin: miter;
}
.g2_11{
fill: #FFFFFF;
}
.g3_11{
fill: none;
stroke: #000000;
stroke-width: 0.474;
stroke-linecap: butt;
stroke-linejoin: miter;
}
]]></style>
</defs>
<path d="M156.7,282.3H752.8M566.2,311.9V282.7" class="g0_11"/>
<path d="M361.2,303.5l31.3,18.7m0,36.7V322.3M330,358.9h62.5m-62.5,0V322.3m31.2,-18.8L330,322.2m56.5,31.9v-27m-50.5,27v-27m87.7,-23.6l31.2,18.7m0,36.7V322.3m-31.2,55.4l31.2,-18.6m-31.2,18.6L392.5,359.1m31.2,-55.6l-31.2,18.7m32.3,-11l23,13.7m-23,45.1l23,-13.7m-149,-52.8L330,322.2m-31.2,55.5L330,359.1m-31.2,18.6L267.5,359.1m0,-.2V322.3m31.3,-18.8l-31.3,18.7m30.2,-11l-23,13.7m23,45.1l-23,-13.7" class="g1_11"/>
<path d="M566.2,375.5V311.9" class="g0_11"/>
<path d="M583.1,358.7V325.1c0,-2.9,2.3,-5.2,5.2,-5.2H731.1c2.8,0,5.2,2.3,5.2,5.2v33.6c0,2.8,-2.4,5.2,-5.2,5.2H588.3c-2.9,0,-5.2,-2.4,-5.2,-5.2Z" class="g2_11"/>
<path d="M566.2,404.7V375.5M156.7,405.1H752.8M566.2,434.7V405.5" class="g0_11"/>
<path d="M361.2,481.1l31.3,18.6m0,36.7V499.9M330,536.4h62.5m-62.5,0V499.9m31.2,-18.8L330,499.7m6,32V504.6m87.7,-23.5l31.2,18.6m0,36.7V499.9m-31.2,55.3l31.2,-18.6m-31.2,18.6L392.5,536.6m31.2,-55.5l-31.2,18.6m56.4,32V504.6m-26.3,43l-23,-13.7M298.8,481.1L330,499.7m-31.2,55.5L330,536.6m-31.2,18.6L267.5,536.6m0,-.2V499.9m31.3,-18.8l-31.3,18.6m30.2,-11l-23,13.7m23,45.2l-23,-13.7" class="g1_11"/>
<path d="M392.5,425.7l31.2,18.7m0,36.7V444.5m-31.2,55.4l31.2,-18.6m-31.2,18.6L361.2,481.3m0,-.2V444.5m31.3,-18.8l-31.3,18.7m30.2,-11l-23,13.7m49.3,29.2v-27m-26.3,42.9l-23,-13.7M566.2,553V434.7" class="g0_11"/>
<path d="M580.1,508.8V475.3c0,-2.9,2.3,-5.2,5.2,-5.2H734c2.9,0,5.2,2.3,5.2,5.2v33.5c0,2.9,-2.3,5.2,-5.2,5.2H585.3c-2.9,0,-5.2,-2.3,-5.2,-5.2Z" class="g2_11"/>
<path d="M566.2,582.3V553M156.7,582.6H752.8M566.2,612.2V583" class="g0_11"/>
<path d="M439.9,736.1l30.8,-17.8M441,738.1l30.9,-17.8m-.6,-1V683.7m-.6,1L439.9,666.9m32,15.8L441,664.8m-.6,1.1V630.3m0,0L409.6,612.5m28.5,19.1L409.6,615.2m0,-2.7l-30.8,17.8m0,0v35.6m2.3,-34.3v32.9m-2.3,1.4H343.1m.6,1l-30.8,17.8m29.6,-19.9l-30.8,17.9m.6,1L281.4,665.9m0,0l-30.8,17.8m30.9,-15.1L253,685.1m-2.4,-1.4v35.6m0,0l30.8,17.8M253,717.9l28.5,16.5m-.1,2.7l30.9,-17.8m0,0V683.7m0,0v35.6m.6,-1l47.8,27.6m-49,-25.6l47.8,27.6m.6,-1l47.8,-27.6M378.8,665.9l30.8,17.8m0,0l30.8,-17.8m0,0l-30.8,17.8m1.2,0v35.6m-2.4,-35.6v35.6m32,17.8L409.6,719.3" class="g3_11"/>
<path d="M566.2,759V612.2" class="g0_11"/>
<path d="M593.9,751.2V713.9c0,-2.8,2.3,-5.2,5.2,-5.2H720.3c2.8,0,5.1,2.4,5.1,5.2v37.3c0,2.8,-2.3,5.2,-5.1,5.2H599.1c-2.9,0,-5.2,-2.4,-5.2,-5.2Z" class="g2_11"/>
<path d="M566.2,788.2V759M156.7,788.5H752.8M566.2,818.1V788.9m-205,75.6l31.3,18.7m0,36.7V883.3m-31.3,55.4l31.3,-18.6m-31.3,18.6L330,920.1m0,-.2V883.3m31.2,-18.8L330,883.2m32.3,-11l23.1,13.7M362.3,931l23.1,-13.7m7.1,-108.1l31.2,18.6m0,36.7V828m-31.2,55.3l31.2,-18.6m-62.5,-.2V828m31.3,-18.8l-31.3,18.6m30.2,-11l-23,13.7m49.3,29.3V832.7m6,31.8l31.2,18.7m0,36.7V883.3m-62.4,36.6h62.4M423.7,864.5l-31.2,18.7m56.4,31.9v-27m37.3,-23.6l31.2,18.7m0,36.7V883.3m-31.2,55.4l31.2,-18.6m-31.2,18.6L454.9,920.1m31.3,-55.6l-31.3,18.7m32.4,-11l23,13.7m-23,45.1l23,-13.7M361.2,975.2V938.7M330,994l31.2,-18.6M330,994L298.8,975.4m0,-.2V938.7M330,919.9l-31.2,18.6m6,32V943.4m26.3,43l23,-13.7m-55.3,-34L330,920.1M267.5,883.3H330m-62.5,36.6V883.3m31.3,55.4L267.5,920.1m56.5,-5v-27m-50.4,27v-27M236.3,864.5l31.2,18.7m-31.2,55.5l31.2,-18.6m-31.2,18.6L205.1,920.1m0,-.2V883.3m31.2,-18.8l-31.2,18.7m30.1,-11l-23,13.7m23,45.1l-23,-13.7m354,74V818.1" class="g0_11"/>
<path d="M596.9,919.7V886.1c0,-2.9,2.3,-5.2,5.2,-5.2H717.2c2.9,0,5.2,2.3,5.2,5.2v33.6c0,2.8,-2.3,5.2,-5.2,5.2H602.1c-2.9,0,-5.2,-2.4,-5.2,-5.2Z" class="g2_11"/>
<path d="M566.2,1020.5V991.3m-409.5,29.6H752.8" class="g0_11"/>
</svg>