<?xml version="1.0" encoding="UTF-8" standalone="no"?>
<!DOCTYPE svg PUBLIC "-//W3C//DTD SVG 1.1//EN"
"http://www.w3.org/Graphics/SVG/1.1/DTD/svg11.dtd">
<svg viewBox="0 0 1286 909" version="1.1" xmlns="http://www.w3.org/2000/svg" xmlns:xlink="http://www.w3.org/1999/xlink">
<defs>
<style type="text/css"><![CDATA[
.g0_665{
fill: none;
stroke: #000000;
stroke-width: 0.73;
stroke-linecap: butt;
stroke-linejoin: miter;
}
.g1_665{
fill: none;
stroke: #02B5EE;
stroke-width: 1.262;
stroke-linecap: butt;
stroke-linejoin: miter;
}
.g2_665{
fill: none;
stroke: #5EE200;
stroke-width: 1.262;
stroke-linecap: butt;
stroke-linejoin: miter;
}
.g3_665{
fill: none;
stroke: #5EE200;
stroke-width: 0.73;
stroke-linecap: butt;
stroke-linejoin: miter;
}
.g4_665{
fill: none;
stroke: #02B5EE;
stroke-width: 0.73;
stroke-linecap: butt;
stroke-linejoin: miter;
}
]]></style>
</defs>
<path d="M193,83.4h900.3M193,210.6h872.9m-872.9,0h872.9M527.6,240.2V211m0,58.5V240.2m0,114.3v-85" class="g0_665"/>
<path d="M847.3,330.5h67.4" class="g1_665"/>
<path d="M925.2,330.5h22.5" class="g2_665"/>
<path d="M527.6,383.7V354.5m0,102.3V383.7" class="g0_665"/>
<path d="M969.9,442.9h34.4" class="g3_665"/>
<path d="M1004.3,442.9H1055" class="g4_665"/>
<path d="M527.6,486V456.8m0,58.4V486m0,114.2v-85" class="g0_665"/>
<path d="M853.3,576.2h61.4" class="g1_665"/>
<path d="M925.2,576.2h22.5" class="g2_665"/>
<path d="M527.6,629.5V600.2m0,102.3v-73" class="g0_665"/>
<path d="M986.8,688.6h34.4" class="g3_665"/>
<path d="M1021.2,688.6H1055" class="g4_665"/>
<path d="M527.6,731.7V702.5m0,58.5V731.7M193,761.3h872.9m-872.9,0h872.9" class="g0_665"/>
</svg>