<?xml version="1.0" encoding="UTF-8" standalone="no"?>
<!DOCTYPE svg PUBLIC "-//W3C//DTD SVG 1.1//EN"
"http://www.w3.org/Graphics/SVG/1.1/DTD/svg11.dtd">
<svg viewBox="0 0 909 1286" version="1.1" xmlns="http://www.w3.org/2000/svg" xmlns:xlink="http://www.w3.org/1999/xlink">
<defs>
<style type="text/css"><![CDATA[
.g0_12{
fill: none;
stroke: #000000;
stroke-width: 0.73;
stroke-linecap: butt;
stroke-linejoin: miter;
}
.g1_12{
fill: none;
stroke: #F81693;
stroke-width: 0.73;
stroke-linecap: butt;
stroke-linejoin: miter;
}
.g2_12{
fill: none;
stroke: #02B5EE;
stroke-width: 0.73;
stroke-linecap: butt;
stroke-linejoin: miter;
}
.g3_12{
fill: none;
stroke: #02B5EE;
stroke-width: 1.461;
stroke-linecap: butt;
stroke-linejoin: miter;
}
.g4_12{
fill: #FFFFFF;
}
.g5_12{
fill: #FDE8E9;
}
]]></style>
</defs>
<path d="M116.9,179.9H809.3M371.2,209.5V180.3m-186.7,103l31.3,18.6m0,36.7V302.1m-31.3,55.3l31.3,-18.6m-31.3,18.6L153.3,338.8m0,-.2V302.1m31.2,-18.8l-31.2,18.6m30.1,-11l-23,13.7m49.3,29.3V306.8m-26.3,43l-23,-13.7M247,283.3V255.9m-31.2,46.2L247,283.5m-.6,1.1l22,13.1M247.5,280l22,13.1M159.7,231.8l24.8,14.8m0,36.7V246.7m-.5,-1.2l21.9,-13.2m-20.8,17.9L207,237.1M371.2,364.4V209.5" class="g0_12"/>
<path d="M485.4,287.1l18.3,11m6.5,40.5V311.2M479,357.4l31.2,-18.6M479,357.4L447.8,338.8m0,-.2V302.1m24.8,-15l-24.8,14.8m24.8,-6.6l-18.3,11m49.9,27.6V309.4m-26.3,40.4l-23,-13.7" class="g1_12"/>
<path d="M541.5,283.3V255.9m-24.9,42.4l25.2,-15m-.9,1.3l21.9,13.1M542,280l21.9,13.1M454.2,231.8L479,246.6m0,29.4V246.7m-.5,-1.2l21.9,-13.2m-20.8,17.9l21.9,-13.1" class="g2_12"/>
<path d="M371.2,393.6V364.4m0,58.4V393.6m0,58.4V422.8m0,58.5V452" class="g0_12"/>
<path d="M507.2,482.4c1.4,0,2.1,-2.7,3.4,-2.7c1,0,1.9,1.3,2.8,2.7c.9,1.4,1.7,2.8,2.7,2.8c1,0,1.9,-1.4,2.8,-2.8c.9,-1.4,1.7,-2.7,2.7,-2.7c1,0,1.9,1.3,2.7,2.7c.9,1.4,1.8,2.8,2.8,2.8c1,0,1.8,-1.4,2.7,-2.8c.9,-1.4,1.8,-2.7,2.8,-2.7c1,0,1.8,1.3,2.7,2.7c.9,1.4,1.8,2.8,2.7,2.8c1,0,1.9,-1.4,2.8,-2.8c.9,-1.4,1.7,-2.7,2.7,-2.7c1,0,1.9,1.3,2.8,2.7c.9,1.4,1.7,2.8,2.7,2.8c1,0,1.8,-1.4,2.7,-2.8c.9,-1.4,1.8,-2.7,2.8,-2.7c1,0,1.8,1.3,2.7,2.7c.9,1.4,1.8,2.8,2.8,2.8c1,0,1.8,-1.4,2.7,-2.8c.9,-1.4,1.7,-2.7,2.7,-2.7c1.4,0,2.1,2.7,3.5,2.7h1" class="g3_12"/>
<path d="M371.2,510.5V481.3m0,105.7V510.5" class="g0_12"/>
<path d="M448.8,579.2V518.3c0,-2.9,2.3,-5.2,5.2,-5.2H623.3c2.8,0,5.2,2.3,5.2,5.2v60.9c0,2.9,-2.4,5.2,-5.2,5.2H454c-2.9,0,-5.2,-2.3,-5.2,-5.2Z" class="g4_12"/>
<path d="M503.4,609.9h70.5V593.5H503.4v16.4Z" class="g5_12"/>
<path d="M474.8,568.8H602.5V528.7H474.8v40.1Z" class="g5_12"/>
<path d="M371.2,616.2V587M116.9,616.6H809.3M371.2,646.2V617M247,692.6l31.2,18.6m0,36.7V711.4M247,766.7l31.2,-18.6M247,766.7L215.8,748.1m0,-.2V711.4M247,692.6l-31.2,18.6M184.5,692.6l31.3,18.6M184.5,692.6l-24.8,14.8m86.2,-7.1l-23,13.7m23,45.1l-23,-13.7m49.3,-2.2v-27m37.3,-23.6l24.8,14.8M309.5,692.6l-31.3,18.6m29.1,-18.6V667m4.4,25.6V667M182.3,692.6V667m4.4,25.6V667M371.2,773.7V646.2" class="g0_12"/>
<path d="M547.9,696.4l18.2,11m6.6,40.5V720.5m-31.2,46.2l31.2,-18.6m-31.2,18.6L510.2,748.1m0,-.2V720.5m24.9,-24.1l-18.3,11" class="g1_12"/>
<path d="M479,692.6l24.8,14.8M479,692.6l-24.8,14.8" class="g2_12"/>
<path d="M535.1,702.5l-18.3,10.9m23.6,45.7l-23,-13.7m49.3,-2.2V718.7" class="g1_12"/>
<path d="M603.9,692.6l24.9,14.8M603.9,692.6l-24.8,14.8m22.7,-14.8V667m4.3,25.6V667M476.8,692.6V667m4.4,25.6V667" class="g2_12"/>
<path d="M371.2,802.9V773.7m0,58.4V802.9" class="g0_12"/>
<path d="M507.2,833.3c1.4,0,2.1,-2.7,3.4,-2.7c1,0,1.9,1.3,2.8,2.7c.9,1.4,1.7,2.7,2.7,2.7c1,0,1.9,-1.3,2.8,-2.7c.9,-1.4,1.7,-2.7,2.7,-2.7c1,0,1.9,1.3,2.7,2.7c.9,1.4,1.8,2.7,2.8,2.7c1,0,1.8,-1.3,2.7,-2.7c.9,-1.4,1.8,-2.7,2.8,-2.7c1,0,1.8,1.3,2.7,2.7c.9,1.4,1.8,2.7,2.7,2.7c1,0,1.9,-1.3,2.8,-2.7c.9,-1.4,1.7,-2.7,2.7,-2.7c1,0,1.9,1.3,2.8,2.7c.9,1.4,1.7,2.7,2.7,2.7c1,0,1.8,-1.3,2.7,-2.7c.9,-1.4,1.8,-2.7,2.8,-2.7c1,0,1.8,1.3,2.7,2.7c.9,1.4,1.8,2.7,2.8,2.7c1,0,1.8,-1.3,2.7,-2.7c.9,-1.4,1.7,-2.7,2.7,-2.7c1.4,0,2.1,2.7,3.5,2.7h1" class="g3_12"/>
<path d="M371.2,861.4V832.1m0,105.8V861.4" class="g0_12"/>
<path d="M448.8,930.1V869.2c0,-2.9,2.3,-5.2,5.2,-5.2H681.6c2.9,0,5.2,2.3,5.2,5.2v60.9c0,2.9,-2.3,5.2,-5.2,5.2H454c-2.9,0,-5.2,-2.3,-5.2,-5.2Z" class="g4_12"/>
<path d="M525.6,960.8h84.5V944.3H525.6v16.5Z" class="g5_12"/>
<path d="M474.8,919.7h186V879.6h-186v40.1Z" class="g5_12"/>
<path d="M371.2,967.1V937.9M116.9,967.5H809.3" class="g0_12"/>
</svg>