<?xml version="1.0" encoding="UTF-8" standalone="no"?>
<!DOCTYPE svg PUBLIC "-//W3C//DTD SVG 1.1//EN"
"http://www.w3.org/Graphics/SVG/1.1/DTD/svg11.dtd">
<svg viewBox="0 0 909 1286" version="1.1" xmlns="http://www.w3.org/2000/svg" xmlns:xlink="http://www.w3.org/1999/xlink">
<defs>
<clipPath id="c0_94"><path d="M119.5,645.5V611.9H446.9v33.6Z"/></clipPath>
<clipPath id="c1_94"><path d="M460.4,645.5V611.9H787.8v33.6Z"/></clipPath>
<style type="text/css"><![CDATA[
.g0_94{
fill: none;
stroke: #000000;
stroke-width: 0.73;
stroke-linecap: butt;
stroke-linejoin: miter;
}
.g1_94{
fill: #FFFFFF;
}
.g2_94{
fill: #FFFEF5;
}
.g3_94{
fill: none;
stroke: #D6C944;
stroke-width: 0.365;
stroke-linecap: butt;
stroke-linejoin: miter;
}
.g4_94{
fill: #E81A58;
}
.g5_94{
fill: #401A1A;
}
.g6_94{
fill: #7F7F7F;
fill-opacity: 0.01;
}
.g7_94{
fill: #7F7F7F;
fill-opacity: 0.02;
}
.g8_94{
fill: #7F7F7F;
fill-opacity: 0.04;
}
.g9_94{
fill: #7F7F7F;
fill-opacity: 0.07;
}
.ga_94{
fill: #7F7F7F;
fill-opacity: 0.11;
}
.gb_94{
fill: #7F7F7F;
}
.gc_94{
fill: #00AEEF;
}
.gd_94{
fill: #CBCEFB;
}
]]></style>
</defs>
<path d="M116.9,159.9H792.5" class="g0_94"/>
<path d="M-2.9,245V179.5H912.4V245Z" class="g1_94"/>
<path d="M-.3,242.4V182.1H909.8v60.3Z" class="g2_94"/>
<path d="M-.3,234.1H909.8M-.3,208.1H909.8M-.3,182.1H909.8M-.3,242.4V182.1m25.9,60.3V182.1m26,60.3V182.1m26,60.3V182.1m26,60.3V182.1m26,60.3V182.1m25.9,60.3V182.1m26,60.3V182.1m26,60.3V182.1m26,60.3V182.1m26,60.3V182.1m26,60.3V182.1m25.9,60.3V182.1m26,60.3V182.1m26,60.3V182.1m26,60.3V182.1m26,60.3V182.1m26,60.3V182.1m26,60.3V182.1m25.9,60.3V182.1m26,60.3V182.1m26,60.3V182.1m26,60.3V182.1m26,60.3V182.1m26,60.3V182.1m25.9,60.3V182.1m26,60.3V182.1m26,60.3V182.1m26,60.3V182.1m26,60.3V182.1m26,60.3V182.1m25.9,60.3V182.1m26,60.3V182.1m26,60.3V182.1m26,60.3V182.1m26,60.3V182.1" class="g3_94"/>
<path d="M116.9,545.1V342.6c0,-21.6,17.6,-39.2,39.2,-39.2H792.5V505.9c0,21.6,-17.5,39.2,-39.1,39.2Z" class="g4_94"/>
<path d="M119.5,542.5V335.9H789.9v170c0,20.2,-16.3,36.6,-36.5,36.6Z" class="g5_94"/>
<path d="M122.2,614.6c107.4,0,214.7,0,322,0v437c-107.3,-9.4,-214.6,-9.4,-322,0Z" class="g6_94"/>
<path d="M122.9,615.3c106.9,0,213.8,0,320.7,0V1051c-106.9,-9.4,-213.8,-9.4,-320.7,0Z" class="g7_94"/>
<path d="M123.5,615.9c106.5,0,213,0,319.5,0v434.4c-106.5,-9.3,-213,-9.3,-319.5,0Z" class="g8_94"/>
<path d="M124.1,616.5c106.1,0,212.2,0,318.3,0v433.2c-106.1,-9.3,-212.2,-9.3,-318.3,0Z" class="g9_94"/>
<path d="M124.7,617.1c105.7,0,211.4,0,317,0v432c-105.6,-9.4,-211.3,-9.4,-317,0Z" class="ga_94"/>
<path d="M125.4,617.8c105.2,0,210.5,0,315.7,0v430.7c-105.2,-9.4,-210.5,-9.4,-315.7,0Z" class="ga_94"/>
<path d="M126,618.4c104.8,0,209.7,0,314.5,0v429.4c-104.8,-9.3,-209.7,-9.3,-314.5,0Z" class="g9_94"/>
<path d="M126.6,619c104.4,0,208.8,0,313.3,0v428.2c-104.5,-9.3,-208.9,-9.3,-313.3,0Z" class="g8_94"/>
<path d="M127.2,619.6c104,0,208,0,312,0v427c-104,-9.4,-208,-9.4,-312,0Z" class="g7_94"/>
<path d="M127.9,620.2c103.5,0,207.1,0,310.7,0V1046c-103.6,-9.4,-207.2,-9.4,-310.7,0Z" class="g6_94"/>
<path d="M116.9,1041.3v-432H449.5v432Z" class="g1_94"/>
<path d="M119.5,1038.7V648.1H446.9v390.6Z" class="g1_94"/>
<path d="M119.5,645.5V611.9H446.9v33.6Z" class="gb_94"/>
<g clip-path="url(#c0_94)">
<image x="119" y="611" width="329" height="34" xlink:href="shade/1.png"/>
</g>
<path d="M316.9,640.3h104V617.1h-104v23.2Z" class="gc_94"/>
<path d="M180.9,693.2H385.6M181.3,722.8V693.6" class="g0_94"/>
<path d="M181.6,722.8h62.1V693.6H181.6v29.2Z" class="gd_94"/>
<path d="M244,722.8V693.6" class="g0_94"/>
<path d="M244.4,722.8h69.8V693.6H244.4v29.2Z" class="gd_94"/>
<path d="M314.6,722.8V693.6" class="g0_94"/>
<path d="M315,722.8h69.8V693.6H315v29.2Z" class="gd_94"/>
<path d="M385.2,722.8V693.6M180.9,723.2H385.6M181.3,752.8V723.6M244,752.8V723.6m70.6,29.2V723.6m70.6,29.2V723.6M180.9,753.2H385.6M181.3,782.7V753.5M244,782.7V753.5m70.6,29.2V753.5m70.6,29.2V753.5M180.9,783.1H385.6M181.3,812.7V783.5M244,812.7V783.5m70.6,29.2V783.5m70.6,29.2V783.5M180.9,813.1H385.6M181.3,842.7V813.4M244,842.7V813.4m70.6,29.3V813.4m70.6,29.3V813.4M180.9,843H385.6M181.3,872.6V843.4M244,872.6V843.4m70.6,29.2V843.4m70.6,29.2V843.4M180.9,873H385.6M181.3,902.6V873.3M244,902.6V873.3m70.6,29.3V873.3m70.6,29.3V873.3M180.9,902.9H385.6M181.3,932.5V903.3M244,932.5V903.3m70.6,29.2V903.3m70.6,29.2V903.3M180.9,932.9H385.6M181.3,962.5V933.2M244,962.5V933.2m70.6,29.3V933.2m70.6,29.3V933.2M180.9,962.8H385.6M181.3,992.4V963.2M244,992.4V963.2m70.6,29.2V963.2m70.6,29.2V963.2M180.9,992.8H385.6m-204.3,29.6V993.2m62.7,29.2V993.2m70.6,29.2V993.2m70.6,29.2V993.2m-204.3,29.5H385.6" class="g0_94"/>
<path d="M463.1,614.6c107.3,0,214.6,0,322,0V906c-107.4,-9.3,-214.7,-9.3,-322,0Z" class="g6_94"/>
<path d="M463.7,615.3c106.9,0,213.8,0,320.7,0V905.4C677.5,896,570.6,896,463.7,905.4Z" class="g7_94"/>
<path d="M464.3,615.9c106.5,0,213,0,319.5,0V904.8c-106.5,-9.4,-213,-9.4,-319.5,0Z" class="g8_94"/>
<path d="M464.9,616.5c106.1,0,212.2,0,318.3,0V904.1c-106.1,-9.3,-212.2,-9.3,-318.3,0Z" class="g9_94"/>
<path d="M465.6,617.1c105.6,0,211.3,0,317,0V903.5c-105.7,-9.3,-211.4,-9.3,-317,0Z" class="ga_94"/>
<path d="M466.2,617.8c105.2,0,210.5,0,315.7,0V902.9c-105.2,-9.4,-210.5,-9.4,-315.7,0Z" class="ga_94"/>
<path d="M466.8,618.4c104.8,0,209.7,0,314.5,0V902.3c-104.8,-9.4,-209.7,-9.4,-314.5,0Z" class="g9_94"/>
<path d="M467.4,619c104.5,0,208.9,0,313.3,0V901.7c-104.4,-9.4,-208.8,-9.4,-313.3,0Z" class="g8_94"/>
<path d="M468.1,619.6c104,0,208,0,312,0V901c-104,-9.3,-208,-9.3,-312,0Z" class="g7_94"/>
<path d="M468.7,620.3c103.6,0,207.2,0,310.7,0V900.4c-103.5,-9.3,-207.1,-9.3,-310.7,0Z" class="g6_94"/>
<path d="M457.8,895.7V609.3H790.4V895.7Z" class="g1_94"/>
<path d="M460.4,893.1v-245H787.8v245Z" class="g1_94"/>
<path d="M460.4,645.5V611.9H787.8v33.6Z" class="gb_94"/>
<g clip-path="url(#c1_94)">
<image x="460" y="611" width="329" height="34" xlink:href="shade/2.png"/>
</g>
<path d="M657.8,640.3h104V617.1h-104v23.2Z" class="gc_94"/>
<path d="M536.1,697.4H712M536.5,727V697.8" class="g0_94"/>
<path d="M536.9,727h62V697.8h-62V727Z" class="gd_94"/>
<path d="M599.2,727V697.8" class="g0_94"/>
<path d="M599.6,727h60.3V697.8H599.6V727Z" class="gd_94"/>
<path d="M660.2,727V697.8" class="g0_94"/>
<path d="M660.6,727h50.7V697.8H660.6V727Z" class="gd_94"/>
<path d="M711.6,727V697.8M536.1,727.4H712M536.5,757V727.8M599.2,757V727.8m61,29.2V727.8M711.6,757V727.8M536.1,757.4H712M536.5,786.9V757.7m62.7,29.2V757.7m61,29.2V757.7m51.4,29.2V757.7M536.1,787.3H712M536.5,816.9V787.7m62.7,29.2V787.7m61,29.2V787.7m51.4,29.2V787.7M536.1,817.3H712M536.5,846.9V817.6m62.7,29.3V817.6m61,29.3V817.6m51.4,29.3V817.6M536.1,847.2H712M536.5,876.8V847.6m62.7,29.2V847.6m61,29.2V847.6m51.4,29.2V847.6M536.1,877.2H712" class="g0_94"/>
</svg>