<?xml version="1.0" encoding="UTF-8" standalone="no"?>
<!DOCTYPE svg PUBLIC "-//W3C//DTD SVG 1.1//EN"
"http://www.w3.org/Graphics/SVG/1.1/DTD/svg11.dtd">
<svg viewBox="0 0 909 1286" version="1.1" xmlns="http://www.w3.org/2000/svg" xmlns:xlink="http://www.w3.org/1999/xlink">
<defs>
<clipPath id="c0_12"><path d="M122.9,222.3V187.6H152v34.7Z"/></clipPath>
<clipPath id="c1_12"><path d="M122.9,691.1V656.4H152v34.7Z"/></clipPath>
<clipPath id="c2_12"><path d="M122.1,222.7V186.5H153v36.2Z"/></clipPath>
<clipPath id="c3_12"><path d="M122.1,691.6V655.4H153v36.2Z"/></clipPath>
<style type="text/css"><![CDATA[
.g0_12{
fill: none;
stroke: #000000;
stroke-width: 0.73;
stroke-linecap: butt;
stroke-linejoin: miter;
}
.g1_12{
fill: #FFFFFF;
}
.g2_12{
fill: #868686;
}
.g3_12{
fill: #242628;
}
.g4_12{
fill: #A0A0A0;
}
.g5_12{
fill: #C4956E;
}
.g6_12{
fill: #222426;
}
.g7_12{
fill: #202126;
}
.g8_12{
fill: #252427;
}
.g9_12{
fill: #222924;
}
.ga_12{
fill: none;
stroke: #000000;
stroke-width: 1.461;
stroke-linecap: butt;
stroke-linejoin: miter;
}
.gb_12{
fill: none;
stroke: #000000;
stroke-width: 2.739;
stroke-linecap: butt;
stroke-linejoin: miter;
}
]]></style>
</defs>
<path d="M116.9,159.9H792.5" class="g0_12"/>
<path d="M117.7,537V180.3H791.8V537Z" class="g1_12"/>
<path d="M117.7,537V180.3H791.8V537Z" class="ga_12"/>
<g clip-path="url(#c2_12)">
<path clip-path="url(#c0_12)" d="M125.6,222.1c-.1,-.1,-.1,-.2,0,-.3c0,-.2,.1,-1.3,0,-1.7c0,-.2,0,-.5,0,-.7c.1,-.9,.3,-2.2,.3,-2.2c0,0,0,-.3,.1,-.6c.1,-.5,.1,-.6,-.1,-1c-.3,-.5,-.9,-2,-1.1,-2.7c-.4,-1.8,-.5,-4.6,-.1,-6c.3,-1.2,.5,-1.3,.9,-.6c.3,.7,.4,.5,0,-.3c-.3,-.7,-.6,-2,-.5,-2.4c0,-.2,.2,-.7,.4,-1.1c.2,-.4,.4,-1,.5,-1.2c.1,-.5,.5,-.7,.9,-.6c.1,.1,.2,.2,.3,.4q.2,.2,.1,-.3c-.1,-.2,-.2,-.5,-.1,-.5c0,0,0,-.2,0,-.4c.1,-.4,1,-2.1,1.6,-2.7c.3,-.2,.6,-.5,.7,-.7c.1,-.1,.5,-.4,.8,-.6c.3,-.3,.7,-.6,.9,-.8c.4,-.4,.7,-.5,.9,-.2q.2,.1,.2,-.2c0,-.2,0,-.4,0,-.5c.1,-.2,1.5,-1.2,2.1,-1.5c.3,-.1,.6,-.3,.8,-.4c.1,-.1,.3,-.2,.4,-.2c0,-.1,.4,-.2,.8,-.5c.4,-.2,.9,-.4,1,-.5c.2,-.1,.6,-.2,1,-.4c1.1,-.5,1.6,-.8,2.4,-1.1c.5,-.1,.9,-.3,1,-.3c0,-.1,.1,0,.3,.1l.2,.2l.4,-.4c.6,-.5,1.6,-.8,3.8,-1.1c.9,-.1,2.2,-.3,2.8,-.4l1,-.1l.1,.3q.1,.2,-.3,.4c-2.7,1,-4.6,2,-5.6,2.8c-.2,.2,-.4,.4,-.4,.4c-.1,0,-1.5,1.4,-1.5,1.6c0,0,-.1,.2,-.2,.2c-.3,.2,-.6,.8,-.5,1.1c0,.2,-.1,.4,-.4,.6c-.3,.2,-.4,.3,-.4,.4c.2,.1,0,.9,-.2,1.1c-.7,.8,-1.7,2.3,-1.9,2.9c-.1,.1,-.2,.5,-.4,.8c-.2,.3,-.4,.7,-.5,1q-.4,1,-1,1c-.5,.1,-1.4,.4,-1.3,.5c0,0,.4,-.1,.9,-.1c1.1,-.2,1.2,-.1,.8,.7c-.4,.7,-.7,1.6,-.7,2.1c0,.3,-.2,.8,-.6,2.3c-.1,.3,-.3,.5,-.7,.7c-.5,.3,-.6,.3,-1.2,.3q-.7,0,-.6,.2c.1,.2,-.1,.5,-.5,1.4c-.3,.6,-.7,1.2,-.8,1.3c-.2,.1,-.4,.5,-.6,.8c-.2,.3,-.4,.5,-.5,.5c0,0,-.2,.1,-.3,.3c-.6,.8,-2.7,2.6,-3,2.7l.3,-3.3c.1,.2,.4,0,.6,-.2c.2,-.4,.5,-.6,1.1,-.7c.5,0,.6,0,1,-.5c.2,-.2,.6,-.8,.9,-1.3l.5,-1l-.5,-.3c-.3,-.1,-.6,-.3,-.7,-.4c-.1,-.2,.4,-.9,.7,-1.1c.2,0,.5,-.1,.7,-.1c.2,0,.5,-.2,.7,-.3c.3,-.1,.5,-.3,.7,-.3c.6,0,.8,-.4,.8,-1.3c.1,-.9,.2,-1.1,.5,-1.2c.4,-.2,.7,-.1,.9,.2l.1,.2l.1,-.3c.1,-.2,.1,-.4,-.1,-.3c-.1,0,-.2,-.1,-.3,-.3c-.1,-.2,-.1,-.3,-.6,-.4c-.6,-.2,-.7,-.3,-.5,-.5c0,-.1,0,-.3,0,-.4c-.1,-.3,.4,-.7,1,-1c.5,-.2,.6,-.3,1.1,-1.3c.3,-.5,.8,-1.2,1,-1.4c.2,-.2,.5,-.5,.6,-.7c.1,-.2,.2,-.3,.4,-.2c.2,0,.4,-.1,.5,-.2c.2,-.2,.9,-1.1,.8,-1.2c0,0,-.2,.1,-.5,.2c-.8,.4,-1.8,.3,-2,0c-.2,-.3,.4,-1.2,.9,-1.2c.1,0,1.1,-.5,1.5,-.8c.1,-.1,.3,-.5,.5,-.8c.3,-.7,.8,-1.4,1.2,-1.5c.5,-.1,.7,-.3,.9,-.7c.2,-.5,.1,-.7,-.4,-.9c-.1,-.1,-.3,-.2,-.4,-.3c0,-.2,-.1,-.3,-.2,-.3c-.3,.1,-3,1.1,-4.1,1.7c-.2,.1,-.5,.4,-.7,.5c-.1,.2,-.5,.6,-.9,.9c-.4,.3,-.9,.7,-1,1c-.1,.3,-.4,.6,-.7,.9c-.4,.4,-.4,.5,-.4,1.2c-.1,.4,0,.9,.1,1.2c.3,.7,.2,1.1,-.3,1c-.5,0,-.8,-.4,-1.3,-1.5c-.3,-.6,-.6,-1.1,-.6,-1.1c-.2,.1,-.8,.8,-1.1,1.3c-.2,.5,-.3,.6,-.7,.8q-.5,.2,-.7,.7c-.1,.3,-.1,.7,-.1,.8c.1,.1,.1,.2,.1,.3c-.1,.4,-.1,.8,.1,1.3c.2,.2,.3,.6,.3,.7c0,.2,.1,.6,.3,1c.3,.6,.3,.7,.2,1.1c-.1,.3,-.1,.7,-.1,.8c-.1,.3,-.4,.2,-1.1,-.3c-.5,-.5,-1.2,-1.2,-2,-2.4c-.3,-.4,-.4,-.4,-.3,-.1c0,.2,-.1,.5,-.2,.9c-.2,.6,-.2,1.3,.2,1.7c.2,.3,.8,1.9,.9,2.3c0,.2,0,.4,.1,.5c.1,.2,.1,1,-.1,1.2c0,.1,0,.3,0,.5c0,.1,-.1,.2,-.2,.2c-.2,0,-.7,-.4,-1,-.7c-.1,-.1,-.3,-.3,-.5,-.4l-.2,-.3l-.1,.2c-.1,.2,0,.7,.1,1.1c.3,.8,.4,2.4,.2,3c-.1,.1,-.2,.3,-.4,.4c-.4,.4,-.3,.6,.4,1.5l.4,.5l.1,-.3c.1,-.1,.2,-.5,.3,-.9c.1,-.4,.2,-.8,.3,-1c.1,-.2,.2,-.6,.3,-.8q.1,-.5,2.3,-5.3q1,-2.1,1.9,-3.3c.7,-1.1,1.3,-2.1,1.9,-3.1c.8,-1.3,.9,-1.5,1.4,-2.1c.3,-.3,.7,-.8,.9,-1.1c.9,-1.1,1.1,-1.4,1.3,-1.3c.1,0,.2,.1,.2,.1c0,.1,-.2,.4,-.5,.8c-.3,.5,-.8,1.2,-1,1.6c-.9,1.4,-2.1,3.4,-2.5,4c-.2,.3,-.5,.7,-.6,.9c-.1,.2,-.4,.6,-.5,.9c-.2,.3,-.3,.6,-.4,.7c0,.3,-.1,.8,-1.1,2.6c-.8,1.5,-1,2,-1.7,3.7c-.5,1,-.8,2.1,-.7,2.3l-.3,3.3c-.3,0,-.5,1.8,-.2,2.9c.1,.7,.1,1,-.2,1.3c-.6,.4,-1.1,1.1,-1.3,1.6c-.1,.4,-.2,.5,-.4,.6c-.2,0,-.2,-.1,-.3,-.2Z" class="g2_12"/>
<path d="M133.1,208.6c-.1,-.1,-.3,-.1,-.4,-.1q-.1,0,0,.1c.1,.1,.3,.1,.4,.1q.2,0,0,-.1Z" class="g1_12"/>
<path d="M144.5,189.5q0,-.1,-.1,-.1c-.1,0,-.1,.1,-.2,.2q0,.1,.1,.1c.1,0,.2,-.1,.2,-.2Z" class="g1_12"/>
<path d="M125.7,222.2c-.1,-.1,-.1,-.2,-.1,-.3c.1,-.2,.1,-.9,.1,-1.7c0,-1.4,.1,-2.2,.4,-3.5l.1,-.7l-.5,-.9c-.3,-.5,-.5,-1.3,-.6,-1.7c-.1,-.3,-.3,-.7,-.3,-.9c-.2,-.7,-.3,-2.9,-.3,-3.9c.1,-1.1,.5,-2.6,.7,-2.6c.1,0,.2,.1,.4,.5c.5,.8,.7,.8,.3,0c-.4,-.9,-.7,-1.9,-.7,-2.5c0,-.5,.5,-1.9,.9,-2.8c.2,-.3,.3,-.5,.5,-.5q.3,0,.9,.9l.5,.7l-.4,-.7c-.5,-1.1,-.4,-1.7,.3,-2.9c.3,-.5,.6,-1,.7,-1.1c.1,-.1,.4,-.4,.6,-.7c.3,-.3,.8,-.7,1.2,-1c.3,-.2,.7,-.6,.9,-.8c.4,-.5,.6,-.5,1,.1l.2,.4l-.1,-.5c-.1,-.8,0,-1,.8,-1.6c.5,-.3,.9,-.5,1,-.5c0,-.1,.1,-.1,.1,-.1c0,-.1,.1,-.1,.3,-.2q.2,0,.2,.2c-.1,0,-.1,.1,-.2,.1c-.1,0,-.4,.2,-.7,.5c-.4,.3,-.8,.6,-.9,.7c-.3,.2,-.3,.3,-.3,.7c0,.3,.1,.7,.2,.8c.1,.5,.1,1,0,1c-.2,.1,-.4,-.2,-.7,-.8l-.3,-.7l-.4,.3c-.1,.1,-.3,.3,-.3,.3c-.1,0,-.3,.2,-.6,.5c-.3,.2,-.6,.5,-.7,.5c-.1,.1,-.3,.4,-.6,.6c-.6,.7,-1.6,2.3,-1.5,2.6c.1,.3,1,2.2,1.7,3.5c.5,.9,.6,1,.4,1c-.2,0,-1.2,-.8,-1.6,-1.4c-.3,-.3,-.6,-.7,-.8,-.9c-.1,-.2,-.3,-.5,-.4,-.7c-.2,-.4,-.4,-.4,-.6,0c-.3,.5,-.8,2.2,-.9,2.5c-.1,.8,.6,2.7,1.5,3.8c.7,1,.7,1.3,-.1,.8c-.3,-.2,-1.3,-1.2,-1.5,-1.6c0,-.1,-.1,-.2,-.1,-.2c-.2,.1,-.4,1.1,-.4,1.8c0,.3,0,.7,-.1,.8c0,.1,0,.7,.1,1.3c.1,.6,.1,1.3,.1,1.5c.1,.7,1,3.1,1.1,3q.1,0,.1,0c0,-.1,.1,-.6,.3,-1.2c.2,-.5,.3,-1.2,.4,-1.4c0,-.2,.1,-.4,.1,-.5c.1,-.1,.2,-.4,.3,-.7c.1,-.5,.2,-.9,1.1,-2.7c.3,-.5,.7,-1.4,.9,-1.9c.8,-1.6,1.6,-3.2,2.2,-4.2c.7,-1,1.1,-1.6,1.9,-3c.2,-.3,.6,-.8,.7,-1c.2,-.2,.3,-.5,.3,-.6c.1,0,.3,-.4,.6,-.7c.2,-.3,.6,-.7,.8,-1c.9,-1.2,1.1,-1.3,1.2,-1.3c.2,.1,.2,.2,-.6,1.2c-.2,.3,-.6,.9,-.8,1.3c-.8,1.3,-2.1,3.4,-2.4,3.8c-.6,.8,-1.5,2.5,-1.5,2.7c0,.2,-.5,1.4,-1.2,2.7c-.7,1.3,-1.3,2.7,-1.5,3.1c-.1,.4,-.3,.7,-.3,.7c-.1,.1,-.5,1.3,-.6,1.8c0,.3,-.1,.7,-.1,1c-.2,.8,-.3,2,-.3,2.1c0,0,.1,0,.3,-.1c.1,-.1,.3,-.4,.6,-.5c.2,-.2,.5,-.5,.8,-.7c.2,-.2,.4,-.5,.5,-.5c.6,-.6,.9,-.9,1.2,-1.5c.3,-.3,.6,-.7,.7,-.8c.3,-.3,1.2,-2,1.2,-2.1c-.1,0,-.4,-.3,-.9,-.5c-.9,-.4,-1,-.6,-.8,-.7c.1,-.1,1,0,1.8,.2c.2,.1,.7,.1,1,.1c.9,-.1,1.4,-.4,1.6,-1.1c.1,-.2,.2,-.5,.2,-.7c.1,-.3,.3,-1,.3,-1.5c.1,-.6,.4,-1.3,.6,-1.7l.2,-.3l-.5,.1c-.5,0,-1.6,-.2,-1.7,-.4c-.1,-.2,.7,-.6,1.6,-.8l.8,-.2l.2,-.5c.2,-.4,.3,-.7,.4,-.9c0,-.2,.1,-.4,.2,-.5c.1,0,.3,-.3,.4,-.6c0,-.2,.3,-.6,.4,-.9c1.4,-1.9,1.6,-2.2,1.5,-2.3c-.1,0,-.4,.1,-.6,.2c-.7,.4,-1.5,.4,-1.5,.1c0,-.3,1.8,-1.3,2.7,-1.6q.4,-.1,.4,-.5c0,-.3,.2,-.6,.3,-.8c.1,-.2,.3,-.5,.4,-.7c.3,-.5,2.2,-2.2,3.2,-2.8c.7,-.4,1.8,-1,2.7,-1.3l.7,-.3l-1.6,.2c-2.6,.3,-3.7,.6,-4.4,1.4c-.3,.4,-.4,.4,-.5,.2c-.1,-.3,.6,-1,1.2,-1.2c.6,-.3,1.7,-.6,2.4,-.6c.4,-.1,1.5,-.2,2.5,-.4c1.5,-.2,1.8,-.3,1.9,-.2c.4,.2,.3,.4,-.2,.6c-1.1,.4,-2.2,.8,-2.9,1.2c-.7,.3,-2,1,-2.2,1.3c-.1,0,-.3,.2,-.6,.4c-.9,.8,-1.6,1.5,-1.8,1.8c-.1,.2,-.3,.5,-.4,.6c-.1,.1,-.3,.4,-.3,.7c0,.3,-.1,.4,-.4,.6c-.2,.2,-.5,.3,-.6,.3h-.2l.2,.1c.4,.1,.5,.2,.3,.4c0,.1,-.1,.3,-.1,.3c.1,.1,-.1,.4,-.4,.7c-.2,.3,-.5,.6,-.6,.8c-.1,.1,-.3,.5,-.4,.7c-.4,.5,-.6,.9,-.7,1.2c0,.1,-.2,.4,-.4,.7c-.3,.5,-.4,.8,-.7,1.6c-.1,.3,-.2,.4,-.7,.5c-.7,.1,-1.5,.3,-1.4,.4c0,.1,.4,.1,.9,0c.8,-.1,.9,-.1,1,0c.1,.2,.1,.4,-.2,.7c-.3,.6,-.7,1.7,-.7,2.2c0,.3,-.3,1.3,-.6,2.1c-.1,.3,-.2,.5,-.6,.7c-.5,.3,-.6,.4,-1.2,.4c-.4,0,-.9,-.1,-1,-.1c-.2,-.1,-.5,-.2,-.8,-.2l-.6,-.1l.5,.2c.3,.2,.6,.3,.7,.3q.5,0,.6,.1c.1,.2,-.9,2.1,-1.3,2.6c-.2,.2,-.5,.5,-.7,.8c-.1,.2,-.3,.5,-.4,.6c-.2,.1,-.4,.3,-.6,.5c-.4,.5,-1.3,1.4,-1.7,1.6c-.1,.1,-.4,.3,-.5,.4c-.1,.2,-.3,.3,-.5,.4c-.2,0,-.3,.2,-.3,.4c-.1,.5,-.1,1.9,-.1,2.1c0,.1,.1,.5,.1,.8c.1,.6,.1,.7,-.2,.9c-.4,.3,-1,1.1,-1.3,1.7c-.1,.3,-.2,.6,-.2,.6c-.1,0,-.2,-.1,-.3,-.1Z" class="g3_12"/>
<path d="M128.2,201.8q-.1,-.2,-.1,-.1c-.1,.2,0,.3,.1,.3c.1,0,.1,-.1,0,-.2Z" class="g3_12"/>
<path d="M139.7,195.9c.2,-.1,.5,-.3,.7,-.4l.2,-.2l-.3,.1c-.5,.1,-1.4,.6,-1.4,.7c0,.1,.3,0,.8,-.2Z" class="g4_12"/>
<path d="M139.7,195.9c.4,-.2,.6,-.4,.2,-.3c-.3,.1,-.9,.4,-.7,.4c0,0,.3,0,.5,-.1Z" class="g1_12"/>
<path d="M134.9,192.6c0,0,.6,-.5,.7,-.4c.2,.1,.2,.2,-.1,.3c-.1,0,-.3,.1,-.4,.1q-.1,.1,-.2,0Z" class="g3_12"/>
<path d="M136.2,191.9c.1,-.1,.2,-.2,.3,-.2q.2,0,.1,.2c-.1,.1,-.2,.2,-.3,.2q-.2,0,-.1,-.2Z" class="g3_12"/>
<path d="M137.1,191.4c.1,-.2,.6,-.3,.7,-.2c0,.1,-.5,.3,-.7,.4c-.1,0,-.1,-.1,0,-.2Z" class="g3_12"/>
<path d="M137.9,191.1c0,-.1,.8,-.5,1.3,-.7c.3,-.1,.6,-.2,.7,-.3c.4,-.2,1.9,-.8,2.1,-.7c.2,.1,.1,.3,-.2,.4c-.5,0,-1.7,.4,-3,1.1c-.6,.2,-.8,.3,-.9,.2Z" class="g3_12"/>
<path d="M125.7,222.1c0,0,0,-.1,0,-.2c0,-.1,.1,-.7,.1,-1.2c0,-1.4,0,-2,.3,-4.1l.1,-.6l-.5,-1c-.3,-.7,-.5,-1.3,-.6,-1.6c-.1,-.4,-.2,-.8,-.2,-1c-.3,-1,-.4,-4.1,-.1,-5.2c.1,-.3,.2,-.7,.2,-.9c.1,-.4,.2,-.3,.7,.3c.6,1.1,.9,1,.3,-.1c-.4,-.6,-.8,-2,-.8,-2.5c0,-.4,.6,-1.9,1,-2.7c.1,-.3,.2,-.5,.4,-.5c.2,0,.3,0,.5,.4c.5,.6,.6,.9,.5,.8c-.1,0,-.3,-.2,-.4,-.4c-.4,-.7,-.6,-.6,-1.2,.9c-.7,1.8,-.6,2.4,.7,4.7c.5,.8,.8,1.5,.7,1.5c-.2,.1,-1.4,-1.1,-1.7,-1.6c-.1,-.1,-.2,-.2,-.3,-.3q-.1,-.1,-.2,.1c-.3,.9,-.4,2.5,-.2,4c0,.6,.1,1.2,.1,1.4c0,.5,1,3.1,1.2,3.1c.1,0,.1,-.1,.1,-.2c0,-.2,.1,-.8,.3,-1.3c.2,-.6,.3,-1.2,.4,-1.4c0,-.2,0,-.3,.1,-.3c.1,0,.4,-1.1,.4,-1.2c0,-.1,.1,-.3,.2,-.7c.9,-1.8,1.3,-2.7,1.6,-3.4c.8,-1.6,1.6,-3.2,2.3,-4.2c.7,-1.2,1.3,-2.2,1.9,-3.1c.2,-.4,.5,-.8,.7,-1c.1,-.2,.3,-.4,.3,-.5c0,-.1,.6,-.8,.9,-1.1c.1,-.1,.3,-.3,.5,-.6c.6,-.9,1,-1.4,1.1,-1.3q.1,0,-.6,.9c-.2,.4,-.7,1.1,-.9,1.5c-.8,1.3,-2,3.3,-2.3,3.7c-.6,.7,-1.6,2.6,-1.6,2.9c0,.1,-.5,1.3,-1.2,2.5c-.6,1.3,-1.3,2.6,-1.4,3c-.2,.4,-.4,1.1,-.6,1.4c-.2,.7,-.4,1.5,-.4,1.9c0,.1,-.1,.4,-.1,.6c-.1,.2,-.2,.7,-.2,1.2c-.1,.6,-.1,.7,.1,.7c.1,0,.2,0,.2,-.1c.1,-.1,.3,-.3,.6,-.5c.3,-.2,.5,-.4,.6,-.5c0,-.1,.3,-.3,.5,-.5c.7,-.6,1.1,-1.1,1.5,-1.7c.3,-.3,.6,-.7,.7,-.7c.2,-.3,1.1,-1.9,1.1,-2.1c0,-.1,-.1,-.2,-.6,-.5c-.7,-.4,-.6,-.4,.1,-.1c.3,.1,.6,.2,.7,.2c.4,-.1,.3,.2,-.2,1.3c-.3,.6,-.7,1.2,-.9,1.3c-.1,.2,-.4,.6,-.6,.8c-.2,.3,-.4,.6,-.5,.6c-.1,.1,-.3,.3,-.5,.5c-.1,.2,-.4,.5,-.6,.7c-.2,.1,-.5,.4,-.6,.5c-.1,.2,-.3,.3,-.3,.3c-.1,0,-.3,.2,-.5,.4c-.2,.2,-.5,.4,-.7,.4c-.2,.1,-.3,.2,-.3,.7c-.1,.4,-.1,.7,-.1,.7c0,.1,0,.3,0,.6c0,.2,.1,.7,.1,.9c.2,.9,.1,1.2,-.1,1.3c-.4,.3,-1.1,1.2,-1.3,1.8c-.2,.5,-.3,.5,-.5,.4Z" class="g5_12"/>
<path d="M134,208.6c-.4,0,-.8,-.1,-1,-.2c-.2,0,-.4,-.1,-.5,0c-.1,0,-.3,-.1,-.4,-.1c-.1,-.1,-.3,-.1,-.4,-.1c-.1,.1,-.2,.1,-.3,0c-.1,-.2,.3,-.2,1.8,.1c1.4,.2,2.5,-.2,2.7,-1c0,-.2,.1,-.6,.2,-.8c.1,-.2,.2,-.6,.2,-.8c.1,-.4,.1,-.8,.3,-1.6c.1,-.3,.2,-.6,.4,-.8c.1,-.1,.2,-.3,.1,-.3c0,-.1,-.2,-.1,-.4,0c-.4,.1,-1.6,-.1,-1.7,-.3c-.1,-.3,.8,-.7,2,-.8c.3,-.1,.4,-.1,.6,-.8c.6,-1.4,1.6,-3.2,2.9,-4.9c.1,-.1,.1,-.2,0,-.2c0,-.1,-.3,0,-.7,.2c-.6,.2,-1.3,.3,-1.4,.1q0,-.1,.1,-.2c.2,-.1,.2,0,.2,.1q.1,.1,.1,.1c.3,0,1.3,-.5,1.6,-.7c.3,-.2,.6,-.3,.6,-.2c.1,.2,-.1,.9,-.2,1c-.2,.2,-.5,.6,-.7,.9c-.1,.2,-.4,.5,-.6,.8c-.3,.6,-.5,.9,-.6,1.2c-.1,.2,-.3,.5,-.4,.8c-.3,.5,-.6,1,-.8,1.7c-.1,.2,-.2,.2,-.7,.3c-.8,.1,-1.6,.5,-1.4,.6c0,.1,.4,.1,1,0c.8,-.2,.9,-.2,1,0c0,.1,-.1,.3,-.3,.6c-.3,.6,-.6,1.6,-.7,2.1c0,.2,-.1,.7,-.2,1c-.1,.3,-.2,.6,-.2,.8c-.1,.5,-.4,.9,-.8,1.1c-.6,.3,-.7,.3,-1.4,.3Z" class="g5_12"/>
<path d="M129.6,204.3c-.2,-.1,-.4,-.3,-.5,-.4c-.3,-.2,-1,-1,-1,-1.1c0,-.1,.1,-.1,.1,-.1c.1,0,.5,.4,.6,.6c.1,0,.2,.1,.2,.1c.1,0,.1,-.1,-.1,-.3c-.1,-.2,-.3,-.5,-.4,-.8c-.1,-.2,-.4,-.9,-.6,-1.4c-.3,-.5,-.5,-1,-.5,-1.1c0,-.1,.2,-.5,.5,-1c.6,-1.1,1.6,-2.2,2.5,-2.9c.4,-.2,.8,-.5,.9,-.7c.4,-.5,.6,-.5,.9,.2c.2,.5,.3,.5,.4,.5c.1,-.1,.2,-.1,.2,-.1c0,0,.1,.2,.1,.5c.1,.6,-.1,.4,-.6,-.4c-.4,-.8,-.5,-.8,-.7,-.5c-.1,.1,-.7,.6,-1.1,.8c-.7,.5,-1.8,1.8,-2.5,3l-.4,.7l.7,1.3c.7,1.5,1.1,2.2,1.5,2.8c.2,.4,.2,.5,-.2,.3Z" class="g5_12"/>
<path d="M128.1,202.3c-.1,-.1,0,-.2,0,-.2c.1,0,.1,.1,.2,.2q0,.1,0,.1c-.1,.1,-.2,0,-.2,-.1Z" class="g5_12"/>
<path d="M127.6,201.3c-.3,-.6,-.2,-.8,0,-.5c.2,.3,.4,.9,.3,1c-.1,0,-.2,-.1,-.3,-.5Z" class="g5_12"/>
<path d="M140.1,195.2c.5,-.3,1.1,-.5,1.2,-.4c.1,.2,-.1,.2,-.8,.4c-.8,.2,-.9,.2,-.4,0Z" class="g5_12"/>
<path d="M141.5,194.7c0,0,0,-.2,0,-.5c0,-.4,.7,-1.6,1.3,-2.2c1.7,-1.6,3.9,-3,5.7,-3.6c.6,-.1,.6,-.3,-.1,-.2c-.3,.1,-1.3,.2,-2.2,.4c-1,.1,-1.9,.3,-2.1,.3c-.4,.2,-1.2,.7,-1.5,1c-.2,.3,-.3,.3,-.4,.1c-.1,-.1,.9,-1,1.4,-1.1c1.1,-.4,1.4,-.5,2.1,-.5c.4,-.1,1.6,-.2,2.6,-.4c1.8,-.3,2,-.3,2.1,0c0,0,-.3,.2,-.7,.3c-2.5,.9,-4.4,2,-5.3,2.8c-.2,.2,-.4,.3,-.4,.3c-.1,0,-.2,.1,-.3,.2c-.1,.1,-.3,.4,-.6,.6c-.2,.2,-.5,.6,-.6,.7c-.1,.2,-.3,.5,-.5,.6c-.1,.2,-.2,.5,-.3,.7c0,.3,-.1,.6,-.2,.5Z" class="g5_12"/>
<path d="M132.6,195.2c-.1,-.2,-.2,-.8,-.1,-1c0,-.1,.3,-.3,.6,-.5c.3,-.2,.7,-.4,.8,-.5l.2,-.2l-.1,.2c-.2,.3,-1,.9,-1.2,1.1c-.1,0,-.2,.2,-.2,.3c0,.2,0,.4,0,.5q0,.2,0,.1Z" class="g5_12"/>
<path d="M141.5,189.6c.2,-.2,.5,-.2,.5,-.1c0,.1,-.1,.1,-.3,.2q-.4,0,-.2,-.1Z" class="g5_12"/>
<path d="M125.7,222.1c0,0,0,-.1,0,-.2c0,-.1,.1,-.7,.1,-1.2c0,-1.3,0,-1.9,.4,-4.2q0,-.5,-.5,-1.5c-.3,-.7,-.5,-1.3,-.6,-1.6c-.1,-.4,-.2,-.8,-.2,-1c-.3,-1,-.4,-4.1,-.1,-5.2c.1,-.3,.2,-.7,.2,-.9c.1,-.4,.2,-.3,.7,.3c.6,1.1,.9,1,.3,-.1c-.4,-.6,-.8,-2,-.8,-2.5c0,-.4,.6,-1.9,1,-2.7c.1,-.3,.2,-.5,.4,-.5c.2,0,.3,0,.5,.4c.5,.6,.6,.9,.5,.8c-.1,0,-.3,-.2,-.4,-.4c-.4,-.7,-.6,-.6,-1.2,.9c-.7,1.8,-.6,2.4,.7,4.7c.5,.8,.8,1.5,.7,1.5c-.2,.1,-1.4,-1.1,-1.7,-1.6c-.1,-.1,-.2,-.2,-.3,-.3q-.1,-.1,-.2,.1c-.3,.9,-.4,2.5,-.2,4c0,.6,.1,1.2,.1,1.4c0,.5,1,3.1,1.2,3.1c.1,0,.1,-.1,.1,-.2c0,-.2,.1,-.8,.3,-1.3c.2,-.6,.3,-1.2,.4,-1.4c0,-.2,0,-.3,.1,-.3c.1,0,.4,-1.1,.4,-1.2c0,-.1,.1,-.3,.2,-.7c.9,-1.8,1.3,-2.7,1.6,-3.4c.8,-1.6,1.6,-3.2,2.3,-4.2c.7,-1.2,1.3,-2.2,1.9,-3.1c.2,-.4,.5,-.8,.7,-1c.1,-.2,.3,-.4,.3,-.5c0,-.1,.6,-.8,.9,-1.1c.1,-.1,.3,-.3,.5,-.6c.6,-.9,1,-1.4,1.1,-1.3q.1,0,-.7,1.1c-1.5,1.9,-2.3,3.2,-3.6,5.4c-.3,.4,-.7,1,-1,1.5c-.4,.5,-.5,.8,-.4,.8c.4,.1,.3,.4,-.8,2.7c-.7,1.3,-1.4,2.7,-1.5,3.1c-.2,.3,-.4,1,-.6,1.3c-.2,.7,-.4,1.5,-.4,1.9c0,.1,-.1,.4,-.1,.6c-.1,.2,-.2,.7,-.2,1.2c-.1,.6,-.1,.7,.1,.7c.1,0,.2,0,.2,-.1c.1,-.1,.3,-.3,.6,-.5c.3,-.2,.5,-.4,.6,-.5c0,-.1,.3,-.3,.5,-.5c.7,-.6,1.1,-1.1,1.5,-1.7c.3,-.3,.6,-.7,.7,-.7c.2,-.3,1.1,-1.9,1.1,-2.1c0,-.1,-.1,-.2,-.6,-.5c-.7,-.4,-.6,-.4,.1,-.1c.3,.1,.6,.2,.7,.2c.4,-.1,.3,.2,-.2,1.3c-.3,.6,-.7,1.2,-.9,1.3c-.1,.2,-.4,.6,-.6,.8c-.2,.3,-.4,.6,-.5,.6c-.1,.1,-.3,.3,-.5,.5c-.1,.2,-.4,.5,-.6,.7c-.2,.1,-.5,.4,-.6,.5c-.1,.2,-.3,.3,-.3,.3c-.1,0,-.3,.2,-.5,.4c-.2,.2,-.5,.4,-.7,.4c-.2,.1,-.3,.2,-.3,.7c-.1,.4,-.1,.7,-.1,.7c0,.1,0,.3,0,.6c0,.2,.1,.7,.1,.9c.2,.9,.1,1.2,-.1,1.3c-.4,.3,-1.1,1.2,-1.3,1.8c-.2,.5,-.3,.5,-.5,.4Z" class="g6_12"/>
<path d="M134,208.6c-.4,0,-.8,-.1,-1,-.2c-.2,0,-.4,-.1,-.5,0c-.1,0,-.3,-.1,-.4,-.1c-.1,-.1,-.3,-.1,-.4,-.1c-.1,.1,-.2,.1,-.3,0c-.1,-.2,.3,-.2,1.8,.1c1.4,.2,2.5,-.2,2.7,-1c0,-.2,.1,-.6,.2,-.8c.1,-.2,.2,-.6,.2,-.8c.1,-.4,.1,-.8,.3,-1.6c.1,-.3,.2,-.6,.4,-.8c.1,-.1,.2,-.3,.1,-.3c0,-.1,-.2,-.1,-.4,0c-.4,.1,-1.6,-.1,-1.7,-.3c-.1,-.3,.8,-.7,2,-.8c.3,-.1,.4,-.1,.6,-.8c.6,-1.4,1.6,-3.2,2.9,-4.9c.1,-.1,.1,-.2,0,-.2c0,-.1,-.3,0,-.7,.2c-.6,.2,-1.3,.3,-1.4,.1q0,-.1,.1,-.2c.2,-.1,.2,0,.2,.1q.1,.1,.1,.1c.3,0,1.3,-.5,1.6,-.7c.3,-.2,.6,-.3,.6,-.2c.1,.2,-.1,.9,-.2,1c-.2,.2,-.5,.6,-.7,.9c-.1,.2,-.4,.5,-.6,.8c-.3,.6,-.5,.9,-.6,1.2c-.1,.2,-.3,.5,-.4,.8c-.3,.5,-.6,1,-.8,1.7c-.1,.2,-.2,.2,-.7,.3c-.8,.1,-1.6,.5,-1.4,.6c0,.1,.4,.1,1,0c.8,-.2,.9,-.2,1,0c0,.1,-.1,.3,-.3,.6c-.3,.6,-.6,1.6,-.7,2.1c0,.2,-.1,.7,-.2,1c-.1,.3,-.2,.6,-.2,.8c-.1,.5,-.4,.9,-.8,1.1c-.6,.3,-.7,.3,-1.4,.3Z" class="g6_12"/>
<path d="M129.6,204.3c-.2,-.1,-.4,-.3,-.5,-.4c-.3,-.2,-1,-1,-1,-1.1c0,-.1,.1,-.1,.1,-.1c.1,0,.5,.4,.6,.6c.1,0,.2,.1,.2,.1c.1,0,.1,-.1,-.1,-.3c-.1,-.2,-.3,-.5,-.4,-.8c-.1,-.2,-.4,-.9,-.6,-1.4c-.3,-.5,-.5,-1,-.5,-1.1c0,-.1,.2,-.5,.5,-1c.6,-1.1,1.6,-2.2,2.5,-2.9c.4,-.2,.8,-.5,.9,-.7c.4,-.5,.6,-.5,.9,.2c.2,.5,.3,.5,.4,.5c.1,-.1,.2,-.1,.2,-.1c0,0,.1,.2,.1,.5c.1,.6,-.1,.4,-.6,-.4c-.4,-.8,-.5,-.8,-.7,-.5c-.1,.1,-.7,.6,-1.1,.8c-.7,.5,-1.8,1.8,-2.5,3l-.4,.7l.7,1.3c.7,1.5,1.1,2.2,1.5,2.8c.2,.4,.2,.5,-.2,.3Z" class="g6_12"/>
<path d="M128.1,202.3c-.1,-.1,0,-.2,0,-.2c.1,0,.1,.1,.2,.2q0,.1,0,.1c-.1,.1,-.2,0,-.2,-.1Z" class="g6_12"/>
<path d="M127.6,201.3c-.3,-.6,-.2,-.8,0,-.5c.2,.3,.4,.9,.3,1c-.1,0,-.2,-.1,-.3,-.5Z" class="g6_12"/>
<path d="M140.1,195.2c.5,-.3,1.1,-.5,1.2,-.4c.1,.2,-.1,.2,-.8,.4c-.8,.2,-.9,.2,-.4,0Z" class="g6_12"/>
<path d="M141.5,194.7c0,0,0,-.2,0,-.5c0,-.4,.7,-1.6,1.3,-2.2c1.7,-1.6,3.9,-3,5.7,-3.6c.6,-.1,.6,-.3,-.1,-.2c-.3,.1,-1.3,.2,-2.2,.4c-1,.1,-1.9,.3,-2.1,.3c-.4,.2,-1.2,.7,-1.5,1c-.2,.3,-.3,.3,-.4,.1c-.1,-.1,.9,-1,1.4,-1.1c1.1,-.4,1.4,-.5,2.1,-.5c.4,-.1,1.6,-.2,2.6,-.4c1.8,-.3,2,-.3,2.1,0c0,0,-.3,.2,-.7,.3c-2.5,.9,-4.4,2,-5.3,2.8c-.2,.2,-.4,.3,-.4,.3c-.1,0,-.2,.1,-.3,.2c-.1,.1,-.3,.4,-.6,.6c-.2,.2,-.5,.6,-.6,.7c-.1,.2,-.3,.5,-.5,.6c-.1,.2,-.2,.5,-.3,.7c0,.3,-.1,.6,-.2,.5Z" class="g6_12"/>
<path d="M132.6,195.2c-.1,-.2,-.2,-.8,-.1,-1c0,-.1,.3,-.3,.6,-.5c.3,-.2,.7,-.4,.8,-.5l.2,-.2l-.1,.2c-.2,.3,-1,.9,-1.2,1.1c-.1,0,-.2,.2,-.2,.3c0,.2,0,.4,0,.5q0,.2,0,.1Z" class="g6_12"/>
<path d="M141.5,189.6c.2,-.2,.5,-.2,.5,-.1c0,.1,-.1,.1,-.3,.2q-.4,0,-.2,-.1Z" class="g6_12"/>
<path d="M127.2,219.7c.1,0,.1,-.2,.1,-.5c-.1,-.2,-.1,-.9,-.1,-1.4c0,-.5,0,-1,0,-1.1c0,0,0,-.1,0,-.3c0,-.1,.1,-.4,.1,-.7c.1,-1.4,.1,-1.6,.5,-3.1c0,-.3,.1,-.6,.1,-.8c.2,-.9,1.2,-3.2,2.4,-5.4c.6,-1.3,.9,-2,.9,-2.1c0,0,-.3,.4,-.6,1c-.3,.6,-.7,1.4,-.9,1.8c-.9,1.8,-1.9,4,-2,4.5c0,.2,-.2,.6,-.3,.8c0,.3,-.1,.5,-.1,.6c.1,0,-.3,1.2,-.5,1.8c0,.2,-.1,.5,-.1,.8c-.1,.2,-.2,.7,-.2,1c-.3,1,-.5,2.6,-.3,2.9c0,0,.2,.1,.4,.2c.4,.2,.3,.2,.6,0Z" class="g5_12"/>
<path d="M124.9,212.5c-.1,-.2,-.3,-2.1,-.3,-3.2c0,-.8,.1,-1.6,.2,-2.2c.1,-.3,.2,-.7,.2,-.8c.1,-.4,.3,-.3,.6,.2c.1,.3,.4,.7,.6,.9l.3,.4l-.1,-.4c-.1,-.3,-.4,-.8,-.5,-1.1c-.4,-.9,-.7,-2.3,-.6,-2.8c.1,-.4,.6,-1.6,.9,-2.2c.2,-.5,.6,-.7,.8,-.3q0,.1,-.2,.1c-.2,.1,-.3,.2,-.5,.5c-.6,1.3,-.8,2.3,-.8,2.9c.1,.3,.3,1,.5,1.5c.3,.9,.5,1.1,1,1.8c.3,.4,.5,.8,.5,.9c0,.1,-.6,-.2,-.9,-.5c-.1,-.1,-.3,-.4,-.4,-.5c-.1,-.1,-.4,-.4,-.6,-.7l-.3,-.5l-.1,.3c-.4,.9,-.5,2.5,-.3,4.4c.1,1.1,.1,1.5,0,1.3Z" class="g7_12"/>
<path d="M133.7,208.6c-.2,0,-.4,-.1,-.6,-.2c-.2,0,-.4,-.1,-.5,-.1c-.2,.1,-.8,-.1,-.8,-.2c0,0,.5,0,1,.1c1.3,.3,2,.2,2.5,-.1c.4,-.3,.5,-.5,.8,-1.3c.2,-1,.3,-1.2,.3,-1.6c.1,-.6,.2,-1.1,.6,-1.7c.1,-.3,.2,-.6,.2,-.6c0,0,-.2,0,-.5,.1c-.3,.1,-.5,0,-1.1,-.1l-.6,-.2l.1,-.1c.2,-.3,.8,-.5,1.6,-.7l.7,-.1l.3,-.6c.5,-1.4,1.6,-3.3,2.4,-4.5c.3,-.3,.5,-.7,.4,-.7q0,-.2,-.7,.1q-.7,.3,-.7,.2c0,0,.2,-.1,.3,-.1c.2,-.1,.5,-.3,.8,-.5c.4,-.2,.7,-.3,.8,-.3c.2,.1,-.1,.8,-.5,1.3c-.7,.7,-2,3,-2.6,4.5c-.1,.2,-.2,.5,-.3,.6c0,.1,-.2,.2,-.3,.2c-.8,.2,-1,.2,-1.4,.4q-.5,.2,-.3,.3c0,.1,.3,.1,1,0c.7,-.1,.9,-.1,.9,0c.1,0,-.1,.4,-.3,.8c-.4,.7,-.6,1.4,-.6,2c0,.1,-.1,.6,-.2,1c-.2,.4,-.2,.7,-.2,.7c0,0,-.1,.3,-.2,.5c-.3,.7,-1.2,1,-2.3,.9Z" class="g7_12"/>
<path d="M131.5,208.2q0,-.1,.1,-.1c0,0,.1,0,.1,0c0,0,0,.1,-.1,.1c0,.1,0,0,-.1,0Z" class="g7_12"/>
<path d="M129.3,204c-.6,-.4,-1.3,-1.4,-.9,-1.1c.1,.1,.3,.2,.3,.3c.1,.1,.4,.3,.5,.2c0,-.1,.5,.4,.6,.7c.1,.2,.1,.3,.1,.3c0,0,-.3,-.1,-.6,-.4Z" class="g7_12"/>
<path d="M128.8,202.9c0,0,-.2,-.2,-.2,-.5c-.1,-.2,-.4,-.8,-.6,-1.3c-.3,-.5,-.5,-1,-.6,-1.1c0,-.2,.8,-1.9,1.2,-2.3c.1,-.1,.4,-.4,.7,-.7c.3,-.3,.6,-.7,.8,-.8c.6,-.4,.9,-.7,1.3,-1.1c.2,-.2,.4,-.3,.4,-.3c.3,.1,.3,.3,.1,.3c-.1,0,-.4,.3,-.7,.6c-.4,.2,-.7,.5,-.7,.5c-.2,0,-.4,.2,-.9,.9c-.3,.3,-.5,.5,-.6,.5c0,0,-.9,1.3,-1.2,1.8c-.2,.5,-.2,.6,.4,1.8c.8,1.6,.9,2,.6,1.7Z" class="g7_12"/>
<path d="M127.2,201.6c-.1,-.1,-.1,-.2,0,-.2c.1,0,.2,.1,.3,.3c0,.1,0,.2,0,.2c-.1,0,-.2,-.1,-.3,-.3Z" class="g7_12"/>
<path d="M127.6,201.4c0,-.2,-.1,-.4,-.2,-.5c0,-.1,0,-.2,0,-.2c.1,0,.5,.6,.5,.8c0,.2,-.2,.2,-.3,-.1Z" class="g7_12"/>
<path d="M138.4,196.3c0,-.1,.1,-.1,.2,-.1c0,0,.1,0,.2,.1c0,0,-.1,.1,-.2,.1c-.1,0,-.2,-.1,-.2,-.1Z" class="g7_12"/>
<path d="M132.5,196.3c-.1,-.3,.1,-.5,.3,-.2c.1,.3,.1,.5,0,.5c-.1,0,-.2,-.1,-.3,-.3Z" class="g7_12"/>
<path d="M140.3,195.1c-.1,0,.8,-.3,.9,-.3q.1,.1,0,.2c-.3,.1,-.9,.2,-.9,.1Z" class="g7_12"/>
<path d="M132.2,195.7c-.1,0,-.1,-.1,-.1,-.2q.1,-.1,.2,.1c0,.1,0,.2,0,.2c-.1,0,-.1,-.1,-.1,-.1Z" class="g7_12"/>
<path d="M141.6,194.6c-.1,-.2,0,-.9,.2,-1.1c.1,-.2,.3,-.5,.4,-.7c.2,-.3,.4,-.5,.5,-.6c.1,-.1,.3,-.3,.4,-.4c.4,-.4,2,-1.7,2.8,-2.1c.8,-.5,1.9,-1,2.8,-1.3c.6,-.3,.6,-.4,0,-.3c-.3,.1,-1.3,.2,-2.2,.4c-1.7,.2,-2,.2,-2.4,.4c-.4,.1,-1.2,.7,-1.5,.9c-.1,.2,-.2,.2,-.3,.2c-.2,0,.8,-.9,1.2,-1.1c.7,-.2,1.8,-.5,2.4,-.5c.4,-.1,1.5,-.2,2.4,-.4c.9,-.2,1.7,-.3,1.8,-.3c.3,.1,.3,.3,0,.4c-1.4,.6,-2.5,1,-3.3,1.4c-.8,.4,-1.7,1,-2,1.2c0,0,-.2,.2,-.4,.4c-1,.8,-1.8,1.6,-2,1.9c-.1,.2,-.2,.3,-.3,.3c-.1,0,-.4,.7,-.4,1.1c0,.2,-.1,.3,-.1,.2Z" class="g7_12"/>
<path d="M132.6,194.2c-.1,-.1,.6,-.6,1,-.8c.3,-.1,.2,0,-.2,.3c-.4,.4,-.8,.6,-.8,.5Z" class="g7_12"/>
<path d="M141.7,189.6c-.1,0,-.1,-.1,0,-.1c.1,-.1,.3,0,.2,.1c0,0,-.1,0,-.2,0Z" class="g7_12"/>
<path d="M125.9,215.3c-.1,-.1,-.1,-.2,0,-.2c0,-.1,.1,0,.1,.1c.1,.1,.1,.2,.1,.2c-.1,0,-.2,0,-.2,-.1Z" class="g8_12"/>
<path d="M129,214.7c0,0,0,-.1,.1,-.1q.2,0,.2,.1c-.1,.1,-.4,.2,-.3,0Z" class="g8_12"/>
<path d="M125.6,214.7q0,-.1,.1,-.1c0,0,.1,.1,.1,.1q0,.2,-.2,0Z" class="g8_12"/>
<path d="M129.5,214.3c0,-.1,.2,-.3,.4,-.4c.2,-.2,.5,-.5,.5,-.6c.2,-.2,.4,-.4,.4,-.2c0,.1,-1,1.1,-1.2,1.2c-.1,.1,-.1,0,-.1,0Z" class="g8_12"/>
<path d="M125.4,214c-.1,-.1,-.1,-.2,-.1,-.3q0,-.2,.1,0c0,.1,.1,.3,.1,.4q0,.1,-.1,-.1Z" class="g8_12"/>
<path d="M131.2,212.5c.2,-.4,1,-1.3,1.1,-1.4q.1,-.1,.1,0c.1,0,0,.2,-.2,.3c-.1,.2,-.4,.5,-.6,.9c-.5,.6,-.8,.8,-.4,.2Z" class="g8_12"/>
<path d="M124.8,212c0,0,0,-.1,0,-.2q.1,0,.2,.1c0,.1,0,.2,0,.2q-.1,0,-.2,-.1Z" class="g8_12"/>
<path d="M132.5,210.8c0,-.2,.6,-1.2,.7,-1.1c.1,0,-.6,1.3,-.7,1.3c0,0,0,-.1,0,-.2Z" class="g8_12"/>
<path d="M124.8,211.4c-.1,-.1,-.1,-.2,-.1,-.3c.1,-.2,.2,-.1,.2,.2c0,.1,-.1,.2,-.1,.1Z" class="g8_12"/>
<path d="M124.7,210.7c0,-.1,0,-.2,0,-.3c.1,-.1,.1,.1,.1,.3v.2Z" class="g8_12"/>
<path d="M133.2,209.4c0,-.1,0,-.2,-.1,-.3c-.1,-.2,0,-.2,.1,-.2c.4,-.1,.5,.1,.2,.5q-.1,.2,-.2,0Z" class="g8_12"/>
<path d="M124.6,209.6c0,-.3,.1,-.9,.1,-.9c.1,0,.1,.5,0,.7c0,.1,-.1,.2,-.1,.2Z" class="g8_12"/>
<path d="M134,208.6c-.3,0,-.6,-.1,-.7,-.1q-.2,-.1,.1,-.1c.1,0,.5,0,.9,0c.5,0,.6,0,1,-.3c.3,-.2,.5,-.5,.6,-.6c.2,-.5,.2,-.3,.1,.1c-.1,.3,-.3,.5,-.7,.7c-.5,.3,-.6,.3,-1.3,.3Z" class="g8_12"/>
<path d="M132.4,208.3q-.4,-.1,-.1,-.1c.2,0,.3,0,.3,.1q.1,0,.1,0c-.1,0,-.2,0,-.3,0Z" class="g8_12"/>
<path d="M127,208.5c-.3,-.2,-.5,-.6,-.4,-.6c.1,0,0,-.2,-.1,-.4c-.3,-.5,-1,-2.1,-1,-2.3c0,-.1,.1,0,.3,.5c.1,.3,.6,1.1,1,1.8c.3,.6,.6,1.2,.6,1.2c-.1,0,-.2,-.1,-.4,-.2Z" class="g8_12"/>
<path d="M124.7,208.3c-.1,-.1,0,-.9,.2,-1c0,0,0,.1,0,.3c0,.4,-.1,.8,-.2,.7Z" class="g8_12"/>
<path d="M136.1,206.8c0,-.1,.1,-.3,.1,-.3q.1,-.1,.1,0c0,.1,-.1,.3,-.1,.3q-.1,.1,-.1,0Z" class="g8_12"/>
<path d="M126.2,207.6c-.1,-.1,-.1,-.2,0,-.1c0,0,.1,.1,.1,.2c0,0,-.1,0,-.1,-.1Z" class="g8_12"/>
<path d="M124.9,207.1c0,0,0,-.2,.1,-.3c0,-.1,.1,-.4,.1,-.5c0,-.3,.3,-.2,.4,.2c0,.2,0,.3,0,.2c-.1,-.1,-.4,-.2,-.4,-.1c.1,.2,-.1,.6,-.2,.5Z" class="g8_12"/>
<path d="M136.3,206.1c0,0,.1,-.2,.1,-.3q.1,-.3,.1,.1c0,.2,-.1,.3,-.2,.2Z" class="g8_12"/>
<path d="M136.5,204.8c0,-.1,0,-.2,.1,-.2c0,0,.1,0,0,.1c0,.1,0,.2,0,.3q-.1,0,-.1,-.2Z" class="g8_12"/>
<path d="M136.7,204.3c-.1,-.1,.1,-.6,.3,-.9c.2,-.2,.2,-.4,.2,-.5c-.1,0,-.3,0,-.7,0c-.7,.1,-.8,0,-.1,-.1c.4,-.1,.8,-.2,.9,-.2c.3,-.1,.3,.2,-.1,.9c-.3,.5,-.5,.8,-.5,.8Z" class="g8_12"/>
<path d="M129.5,204.2c-.1,-.1,-.3,-.3,-.5,-.4c-.3,-.2,-.7,-.8,-.5,-.7c.1,0,.2,.1,.2,.2c.1,0,.3,.2,.4,.2c.2,.1,.4,.3,.6,.5c.3,.4,.2,.5,-.2,.2Z" class="g8_12"/>
<path d="M125.3,204.2c0,-.1,0,-.3,0,-.5c.1,-.3,.6,-1.7,.7,-1.7c.1,-.1,.1,.1,-.2,.8c-.1,.5,-.3,1,-.3,1.2q-.1,.4,-.2,.2Z" class="g8_12"/>
<path d="M135.4,202.8c-.2,0,-.3,-.1,-.3,-.1c-.1,-.1,.7,-.5,1,-.6c.3,0,.2,.1,-.2,.2c-.5,.2,-.6,.3,-.4,.5q.2,.1,-.1,0Z" class="g8_12"/>
<path d="M128.8,202.8c-.1,-.1,-.1,-.3,-.2,-.4q0,-.3,.1,-.1c0,.1,.1,.3,.1,.4q.1,.2,0,.1Z" class="g8_12"/>
<path d="M136.9,202c.1,-.1,.2,-.1,.3,-.1c.1,.1,0,.1,-.2,.1q-.3,.1,-.1,0Z" class="g8_12"/>
<path d="M137.5,201.6c.1,-.1,.2,-.3,.2,-.3c.1,0,-.1,.5,-.2,.6c0,0,0,-.1,0,-.3Z" class="g8_12"/>
<path d="M128.4,201.8c-.1,-.1,-.2,-.2,-.1,-.3q0,-.1,.1,.1c.2,.3,.2,.4,0,.2Z" class="g8_12"/>
<path d="M137.9,200.8c0,-.1,.1,-.2,.1,-.2c.1,.1,0,.4,-.1,.4c-.1,0,-.1,-.1,0,-.2Z" class="g8_12"/>
<path d="M127.3,201.7q-.1,-.2,0,-.1c.2,0,.2,.1,.1,.2c0,.1,0,0,-.1,-.1Z" class="g8_12"/>
<path d="M126,201.7c-.1,-.1,.5,-.9,.7,-.9c.3,0,.3,.2,.1,.3c-.2,.1,-.4,.2,-.5,.4c-.1,.3,-.2,.4,-.3,.2Z" class="g8_12"/>
<path d="M127.6,201.3c-.1,-.2,-.1,-.4,-.1,-.4c.1,-.1,.4,.4,.3,.6c0,.1,0,0,-.2,-.2Z" class="g8_12"/>
<path d="M138,200.4c0,-.1,.2,-.5,.3,-.5c.1,0,.1,-.1,.2,-.3c.1,-.4,1,-1.8,2,-3.3c.1,-.2,.1,-.3,0,-.5q-.1,-.1,.1,-.3c.1,-.1,.2,-.1,.3,0c.2,.1,0,.7,-.2,.9c-.3,.3,-1.4,2,-1.7,2.5c-.6,1.2,-.9,1.6,-1,1.5Z" class="g8_12"/>
<path d="M127.9,200.8c-.1,0,-.1,-.1,0,-.1c0,0,.1,0,.1,.1c0,0,0,.1,0,.1c0,0,-.1,0,-.1,-.1Z" class="g8_12"/>
<path d="M127.5,200.2c0,0,0,-.2,0,-.2q0,-.1,.1,.1c.1,.2,.2,.3,.1,.3c0,0,-.1,-.1,-.2,-.2Z" class="g8_12"/>
<path d="M127.7,199.5c-.1,-.1,0,-.5,.1,-.4c.1,0,.1,.1,0,.3c0,.1,-.1,.1,-.1,.1Z" class="g8_12"/>
<path d="M128,198.7c0,-.1,.1,-.3,.3,-.5c.1,-.1,.2,-.2,.2,-.3c.1,-.1,.1,-.2,.2,-.2c.1,0,0,.2,-.4,.7c-.2,.3,-.3,.4,-.3,.3Z" class="g8_12"/>
<path d="M129,197.4c.3,-.4,.8,-.9,.8,-.9c.1,.1,-.4,.7,-.7,1l-.2,.1Z" class="g8_12"/>
<path d="M132.6,196.5c-.1,-.1,-.2,-.4,0,-.4c.1,0,.3,.4,.2,.4c0,.1,-.1,0,-.2,0Z" class="g8_12"/>
<path d="M136.3,196c.1,-.1,.2,-.2,.3,-.2c0,0,0,.1,-.1,.2c-.1,.1,-.2,.2,-.3,.2l.1,-.2Z" class="g8_12"/>
<path d="M130.6,195.9c.1,-.1,.2,-.2,.3,-.2c.1,0,-.2,.4,-.4,.4c-.1,0,0,-.1,.1,-.2Z" class="g8_12"/>
<path d="M140.7,195.1c-.1,-.1,0,-.1,.1,-.2c.2,-.1,.4,-.1,.4,0c0,.1,-.4,.2,-.5,.2Z" class="g8_12"/>
<path d="M131.3,195.2c.2,-.3,.5,-.4,.6,-.3c.1,.1,-.2,.3,-.7,.6c0,0,0,-.1,.1,-.3Z" class="g8_12"/>
<path d="M141.6,193.9c0,-.1,.1,-.2,.1,-.3c.1,-.1,.2,-.2,.2,-.1c0,0,0,.1,-.1,.2c-.1,.1,-.1,.2,-.2,.2Z" class="g8_12"/>
<path d="M142.2,192.9c.2,-.4,.8,-1,2.4,-2.3c.8,-.6,2.6,-1.6,3.6,-2c1,-.3,1.1,-.4,1.1,-.5c-.2,-.3,.7,-.5,.9,-.3c.2,.1,.1,.3,-.1,.3c-.1,0,-.5,.2,-.8,.3c-.4,.2,-1,.4,-1.3,.6c-1.1,.4,-1.9,.8,-2.4,1.1c-.2,.2,-.5,.4,-.6,.4c-.1,.1,-.4,.3,-.5,.4c-.2,.2,-.4,.3,-.4,.3c0,.1,-.2,.2,-.4,.3c-1.1,1.1,-1.3,1.3,-1.3,1.5c0,.1,-.1,.2,-.2,.2q-.1,0,0,-.3Z" class="g8_12"/>
<path d="M133,193.9c0,0,0,-.1,.1,-.1c0,0,.1,.1,0,.1c0,0,0,.1,-.1,.1v-.1Z" class="g8_12"/>
<path d="M142.3,190q0,-.1,.1,-.2c.1,-.1,.2,-.1,.2,-.1c0,0,0,.1,-.1,.2c-.1,.1,-.2,.1,-.2,.1Z" class="g8_12"/>
<path d="M143,189.3c.1,-.2,.5,-.4,.5,-.3c.1,.1,-.3,.3,-.5,.4q-.2,.1,0,-.1Z" class="g8_12"/>
<path d="M144.6,188.6c.1,0,.2,0,.3,-.1c.1,0,.1,.1,0,.1c-.1,.1,-.2,.1,-.3,.1q-.1,0,0,-.1Z" class="g8_12"/>
<path d="M145.2,188.5c0,-.1,.4,-.1,.9,-.2c.6,0,.9,0,.9,0c0,.1,-.4,.2,-.9,.2c-.6,.1,-.9,.1,-.9,0Z" class="g8_12"/>
<path d="M147.1,188.3c.1,-.1,.4,-.1,.9,-.2c.5,-.1,.7,-.1,.6,0c-.3,.1,-1.5,.3,-1.5,.2Z" class="g8_12"/>
<path d="M125.8,222.1c0,-.1,0,-.4,0,-.8c0,-.4,0,-.7,0,-.7c0,-.1,0,-.8,0,-1q.1,-.1,.5,.1c.9,.4,1.2,.3,1,-.8c-.1,-1,.1,-1.1,.3,-.1c.1,.7,.1,.9,-.2,1.1c-.6,.5,-1.5,1.9,-1.4,2.1c.1,0,0,.1,-.1,.1c0,0,-.1,0,-.1,0Z" class="g9_12"/>
<path d="M127.3,218c0,-.1,0,-.7,.1,-.8c.1,-.1,.1,0,.1,.5c-.1,.3,-.1,.4,-.2,.3Z" class="g9_12"/>
<path d="M127.3,216.8c0,-.1,0,-.3,0,-.6c0,-.2,.1,-.7,.1,-1.1c.1,-.9,.5,-3.2,.7,-3.2c0,0,0,.1,0,.3c0,.2,-.1,.4,-.1,.5c0,.2,-.1,.5,-.1,.7c-.2,.6,-.3,2,-.1,2.2c0,0,0,.1,-.1,.1c0,.1,-.1,.3,-.2,.6c0,.5,-.1,.6,-.2,.5Z" class="g9_12"/>
<path d="M126.2,216.5c0,-.1,0,-.2,.1,-.2c0,-.1,0,-.2,0,-.4c-.1,-.2,.2,-.6,.3,-.4c0,0,-.2,1,-.3,1h-.1Z" class="g9_12"/>
<path d="M125.9,215.3c-.1,-.1,-.1,-.2,0,-.2c0,-.1,.1,0,.1,.1c.1,.1,.1,.2,.1,.2c-.1,0,-.2,0,-.2,-.1Z" class="g9_12"/>
<path d="M126.5,215.1c0,0,0,-.4,.2,-.7c.1,-.4,.2,-1.1,.3,-1.4c.1,-.4,.2,-.8,.3,-.9c.1,0,.1,.1,0,.4c0,.2,-.1,.5,-.1,.5c-.1,.8,-.6,2.3,-.7,2.1Z" class="g9_12"/>
<path d="M129,214.7c0,0,0,-.1,.1,-.1q.2,0,.2,.1c-.1,.1,-.4,.2,-.3,0Z" class="g9_12"/>
<path d="M125.6,214.7q0,-.1,.1,-.1c0,0,.1,.1,.1,.1q0,.2,-.2,0Z" class="g9_12"/>
<path d="M129.5,214.3c0,-.1,.2,-.3,.4,-.4c.2,-.2,.5,-.5,.5,-.6c.2,-.2,.4,-.4,.4,-.2c0,.1,-1,1.1,-1.2,1.2c-.1,.1,-.1,0,-.1,0Z" class="g9_12"/>
<path d="M125.4,214c-.1,-.1,-.1,-.2,-.1,-.3q0,-.2,.1,0c0,.1,.1,.3,.1,.4q0,.1,-.1,-.1Z" class="g9_12"/>
<path d="M131.2,212.5c.2,-.4,1,-1.3,1.1,-1.4q.1,-.1,.1,0c.1,0,0,.2,-.2,.3c-.1,.2,-.4,.5,-.6,.9c-.5,.6,-.8,.8,-.4,.2Z" class="g9_12"/>
<path d="M124.8,212c0,0,0,-.1,0,-.2q.1,0,.2,.1c0,.1,0,.2,0,.2q-.1,0,-.2,-.1Z" class="g9_12"/>
<path d="M128.1,211.7c0,-.4,1.5,-4,2.7,-6.1c.2,-.5,.5,-1,.5,-1.2c0,-.3,.2,-.4,.3,-.3c.1,.2,-.2,.9,-1.3,2.8c-.5,1,-1,2.2,-1.2,2.5c-.2,.6,-.6,1.5,-.9,2.2c-.1,.1,-.1,.2,-.1,.1Z" class="g9_12"/>
<path d="M127.5,211.4l.1,-.1c0,0,.1,0,.1,.1c0,0,0,.1,0,.1c-.1,0,-.1,-.1,-.2,-.1Z" class="g9_12"/>
<path d="M132.5,210.8c0,-.2,.6,-1.2,.7,-1.1c.1,0,-.6,1.3,-.7,1.3c0,0,0,-.1,0,-.2Z" class="g9_12"/>
<path d="M124.8,211.4c-.1,-.1,-.1,-.2,-.1,-.3c.1,-.2,.2,-.1,.2,.2c0,.1,-.1,.2,-.1,.1Z" class="g9_12"/>
<path d="M127.6,210.9q0,-.1,.1,-.2q.1,0,.1,.1c.1,.1,-.1,.2,-.2,.1Z" class="g9_12"/>
<path d="M124.7,210.7c0,-.1,0,-.2,0,-.3c.1,-.1,.1,.1,.1,.3v.2Z" class="g9_12"/>
<path d="M127.9,210.5c-.1,-.1,.3,-.7,.4,-.7c0,0,-.1,.2,-.2,.4c-.1,.3,-.2,.3,-.2,.3Z" class="g9_12"/>
<path d="M133.2,209.4c0,-.1,0,-.2,-.1,-.3c-.1,-.2,0,-.2,.1,-.2c.4,-.1,.5,.1,.2,.5q-.1,.2,-.2,0Z" class="g9_12"/>
<path d="M128.3,209.6c0,-.1,.2,-.6,.5,-1.1c.3,-.6,.4,-.8,.3,-.5c-.2,.5,-.9,1.9,-.8,1.6Z" class="g9_12"/>
<path d="M124.6,209.6c0,-.3,.1,-.9,.1,-.9c.1,0,.1,.5,0,.7c0,.1,-.1,.2,-.1,.2Z" class="g9_12"/>
<path d="M134,208.6c-.3,0,-.6,-.1,-.7,-.1q-.2,-.1,.1,-.1c.1,0,.5,0,.9,0c.5,0,.6,0,1,-.3c.3,-.2,.5,-.5,.6,-.6c.2,-.5,.2,-.3,.1,.1c-.1,.3,-.3,.5,-.7,.7c-.5,.3,-.6,.3,-1.3,.3Z" class="g9_12"/>
<path d="M132.4,208.3q-.4,-.1,-.1,-.1c.2,0,.3,0,.3,.1q.1,0,.1,0c-.1,0,-.2,0,-.3,0Z" class="g9_12"/>
<path d="M127,208.5c-.3,-.2,-.5,-.6,-.4,-.6c.1,0,0,-.2,-.1,-.4c-.3,-.5,-1,-2.1,-1,-2.3c0,-.1,.1,0,.3,.5c.1,.3,.6,1.1,1,1.8c.3,.6,.6,1.2,.6,1.2c-.1,0,-.2,-.1,-.4,-.2Z" class="g9_12"/>
<path d="M124.7,208.3c-.1,-.1,0,-.9,.2,-1c0,0,0,.1,0,.3c0,.4,-.1,.8,-.2,.7Z" class="g9_12"/>
<path d="M136.1,206.8c0,-.1,.1,-.3,.1,-.3q.1,-.1,.1,0c0,.1,-.1,.3,-.1,.3q-.1,.1,-.1,0Z" class="g9_12"/>
<path d="M126.2,207.6c-.1,-.1,-.1,-.2,0,-.1c0,0,.1,.1,.1,.2c0,0,-.1,0,-.1,-.1Z" class="g9_12"/>
<path d="M129.3,207.2c.1,-.1,.2,-.3,.2,-.2c.1,0,0,.3,-.1,.4c-.2,.1,-.2,0,-.1,-.2Z" class="g9_12"/>
<path d="M129.8,206.3c.1,-.3,.3,-.6,.3,-.6c0,0,.2,-.5,.5,-1c.2,-.5,.6,-1.1,.7,-1.4c.2,-.2,.5,-.7,.8,-1.1c.4,-.8,.6,-1,.7,-.9c0,.1,-.2,.4,-1,1.6c-.2,.4,-.5,.9,-.7,1.1c-.1,.2,-.3,.8,-.5,1.2c-.2,.4,-.5,.9,-.6,1.2c-.3,.6,-.5,.5,-.2,-.1Z" class="g9_12"/>
<path d="M124.9,207.1c0,0,0,-.2,.1,-.3c0,-.1,.1,-.4,.1,-.5c0,-.3,.3,-.2,.4,.2c0,.2,0,.3,0,.2c-.1,-.1,-.4,-.2,-.4,-.1c.1,.2,-.1,.6,-.2,.5Z" class="g9_12"/>
<path d="M136.3,206.1c0,0,.1,-.2,.1,-.3q.1,-.3,.1,.1c0,.2,-.1,.3,-.2,.2Z" class="g9_12"/>
<path d="M136.5,204.8c0,-.1,0,-.2,.1,-.2c0,0,.1,0,0,.1c0,.1,0,.2,0,.3q-.1,0,-.1,-.2Z" class="g9_12"/>
<path d="M136.7,204.3c-.1,-.1,.1,-.6,.3,-.9c.2,-.2,.2,-.4,.2,-.5c-.1,0,-.3,0,-.7,0c-.7,.1,-.8,0,-.1,-.1c.4,-.1,.8,-.2,.9,-.2c.3,-.1,.3,.2,-.1,.9c-.3,.5,-.5,.8,-.5,.8Z" class="g9_12"/>
<path d="M129.5,204.2c-.1,-.1,-.3,-.3,-.5,-.4c-.3,-.2,-.7,-.8,-.5,-.7c.1,0,.2,.1,.2,.2c.1,0,.3,.2,.4,.2c.2,.1,.4,.3,.6,.5c.3,.4,.2,.5,-.2,.2Z" class="g9_12"/>
<path d="M125.3,204.2c0,-.1,0,-.3,0,-.5c.1,-.3,.6,-1.7,.7,-1.7c.1,-.1,.1,.1,-.2,.8c-.1,.5,-.3,1,-.3,1.2q-.1,.4,-.2,.2Z" class="g9_12"/>
<path d="M135.4,202.8c-.2,0,-.3,-.1,-.3,-.1c-.1,-.1,.7,-.5,1,-.6c.3,0,.2,.1,-.2,.2c-.5,.2,-.6,.3,-.4,.5q.2,.1,-.1,0Z" class="g9_12"/>
<path d="M128.8,202.8c-.1,-.1,-.1,-.3,-.2,-.4q0,-.3,.1,-.1c0,.1,.1,.3,.1,.4q.1,.2,0,.1Z" class="g9_12"/>
<path d="M136.9,202c.1,-.1,.2,-.1,.3,-.1c.1,.1,0,.1,-.2,.1q-.3,.1,-.1,0Z" class="g9_12"/>
<path d="M137.5,201.6c.1,-.1,.2,-.3,.2,-.3c.1,0,-.1,.5,-.2,.6c0,0,0,-.1,0,-.3Z" class="g9_12"/>
<path d="M128.4,201.8c-.1,-.1,-.2,-.2,-.1,-.3q0,-.1,.1,.1c.2,.3,.2,.4,0,.2Z" class="g9_12"/>
<path d="M137.9,200.8c0,-.1,.1,-.2,.1,-.2c.1,.1,0,.4,-.1,.4c-.1,0,-.1,-.1,0,-.2Z" class="g9_12"/>
<path d="M127.3,201.7q-.1,-.2,0,-.1c.2,0,.2,.1,.1,.2c0,.1,0,0,-.1,-.1Z" class="g9_12"/>
<path d="M126,201.7c-.1,-.1,.5,-.9,.7,-.9c.3,0,.3,.2,.1,.3c-.2,.1,-.4,.2,-.5,.4c-.1,.3,-.2,.4,-.3,.2Z" class="g9_12"/>
<path d="M127.6,201.3c-.1,-.2,-.1,-.4,-.1,-.4c.1,-.1,.4,.4,.3,.6c0,.1,0,0,-.2,-.2Z" class="g9_12"/>
<path d="M133,200.7c.1,-.2,.2,-.3,.3,-.3c.1,.1,-.3,.7,-.4,.7c-.1,0,0,-.2,.1,-.4Z" class="g9_12"/>
<path d="M138,200.4c0,-.1,.2,-.5,.3,-.5c.1,0,.1,-.1,.2,-.3c.1,-.4,1,-1.8,2,-3.3c.1,-.2,.1,-.3,0,-.5q-.1,-.1,.1,-.3c.1,-.1,.2,-.1,.3,0c.2,.1,0,.7,-.2,.9c-.3,.3,-1.4,2,-1.7,2.5c-.6,1.2,-.9,1.6,-1,1.5Z" class="g9_12"/>
<path d="M127.9,200.8c-.1,0,-.1,-.1,0,-.1c0,0,.1,0,.1,.1c0,0,0,.1,0,.1c0,0,-.1,0,-.1,-.1Z" class="g9_12"/>
<path d="M133.4,200.2c0,0,.5,-1,.8,-1.4c.1,-.1,.3,-.4,.4,-.6c.2,-.4,.8,-1.1,.9,-1c0,0,0,.1,-.1,.2c-.1,.2,-.3,.3,-.3,.4c-.1,.1,-.3,.4,-.5,.7c-.3,.4,-.6,.8,-.7,1.1c-.3,.5,-.4,.7,-.5,.6Z" class="g9_12"/>
<path d="M127.5,200.2c0,0,0,-.2,0,-.2q0,-.1,.1,.1c.1,.2,.2,.3,.1,.3c0,0,-.1,-.1,-.2,-.2Z" class="g9_12"/>
<path d="M127.7,199.5c-.1,-.1,0,-.5,.1,-.4c.1,0,.1,.1,0,.3c0,.1,-.1,.1,-.1,.1Z" class="g9_12"/>
<path d="M128,198.7c0,-.1,.1,-.3,.3,-.5c.1,-.1,.2,-.2,.2,-.3c.1,-.1,.1,-.2,.2,-.2c.1,0,0,.2,-.4,.7c-.2,.3,-.3,.4,-.3,.3Z" class="g9_12"/>
<path d="M129,197.4c.3,-.4,.8,-.9,.8,-.9c.1,.1,-.4,.7,-.7,1l-.2,.1Z" class="g9_12"/>
<path d="M135.9,196.6c.1,-.2,.2,-.3,.2,-.2c0,0,0,.1,-.1,.2l-.2,.2Z" class="g9_12"/>
<path d="M132.6,196.5c-.1,-.1,-.2,-.4,0,-.4c.1,0,.3,.4,.2,.4c0,.1,-.1,0,-.2,0Z" class="g9_12"/>
<path d="M130.6,195.9c.1,-.1,.2,-.2,.3,-.2c.1,0,-.2,.4,-.4,.4c-.1,0,0,-.1,.1,-.2Z" class="g9_12"/>
<path d="M140.7,195.1c-.1,-.1,0,-.1,.1,-.2c.2,-.1,.4,-.1,.4,0c0,.1,-.4,.2,-.5,.2Z" class="g9_12"/>
<path d="M131.3,195.2c.2,-.3,.5,-.4,.6,-.3c.1,.1,-.2,.3,-.7,.6c0,0,0,-.1,.1,-.3Z" class="g9_12"/>
<path d="M141.6,193.9c0,-.1,.1,-.2,.1,-.3c.1,-.1,.2,-.2,.2,-.1c0,0,0,.1,-.1,.2c-.1,.1,-.1,.2,-.2,.2Z" class="g9_12"/>
<path d="M142.2,192.9c.2,-.4,.8,-1,2.4,-2.3c.8,-.6,2.6,-1.6,3.6,-2c1,-.3,1.1,-.4,1.1,-.5c-.2,-.3,.7,-.5,.9,-.3c.2,.1,.1,.3,-.1,.3c-.1,0,-.5,.2,-.8,.3c-.4,.2,-1,.4,-1.3,.6c-1.1,.4,-1.9,.8,-2.4,1.1c-.2,.2,-.5,.4,-.6,.4c-.1,.1,-.4,.3,-.5,.4c-.2,.2,-.4,.3,-.4,.3c0,.1,-.2,.2,-.4,.3c-1.1,1.1,-1.3,1.3,-1.3,1.5c0,.1,-.1,.2,-.2,.2q-.1,0,0,-.3Z" class="g9_12"/>
<path d="M133,193.9c0,0,0,-.1,.1,-.1c0,0,.1,.1,0,.1c0,0,0,.1,-.1,.1v-.1Z" class="g9_12"/>
<path d="M142.3,190q0,-.1,.1,-.2c.1,-.1,.2,-.1,.2,-.1c0,0,0,.1,-.1,.2c-.1,.1,-.2,.1,-.2,.1Z" class="g9_12"/>
<path d="M143,189.3c.1,-.2,.5,-.4,.5,-.3c.1,.1,-.3,.3,-.5,.4q-.2,.1,0,-.1Z" class="g9_12"/>
<path d="M144.6,188.6c.1,0,.2,0,.3,-.1c.1,0,.1,.1,0,.1c-.1,.1,-.2,.1,-.3,.1q-.1,0,0,-.1Z" class="g9_12"/>
<path d="M145.2,188.5c0,-.1,.4,-.1,.9,-.2c.6,0,.9,0,.9,0c0,.1,-.4,.2,-.9,.2c-.6,.1,-.9,.1,-.9,0Z" class="g9_12"/>
<path d="M147.1,188.3c.1,-.1,.4,-.1,.9,-.2c.5,-.1,.7,-.1,.6,0c-.3,.1,-1.5,.3,-1.5,.2Z" class="g9_12"/>
<path d="M128.2,201.8q-.1,-.2,-.1,-.1c-.1,.2,0,.3,.1,.3c.1,0,.1,-.1,0,-.2Z" class="g4_12"/>
</g>
<path d="M152.7,217.2H371.5" class="g0_12"/>
<path d="M137.6,225.4V527.6" class="gb_12"/>
<path d="M117.7,1003.1v-354H791.8v354Z" class="g1_12"/>
<path d="M117.7,1003.1v-354H791.8v354Z" class="ga_12"/>
<g clip-path="url(#c3_12)">
<path clip-path="url(#c1_12)" d="M125.6,691c-.1,-.1,-.1,-.3,0,-.3c0,-.2,.1,-1.3,0,-1.8c0,-.1,0,-.4,0,-.6c.1,-.9,.3,-2.2,.3,-2.3c0,0,0,-.2,.1,-.5c.1,-.5,.1,-.7,-.1,-1c-.3,-.6,-.9,-2,-1.1,-2.7c-.4,-1.8,-.5,-4.6,-.1,-6.1c.3,-1.1,.5,-1.2,.9,-.5c.3,.7,.4,.5,0,-.3c-.3,-.7,-.6,-2,-.5,-2.4c0,-.2,.2,-.7,.4,-1.1c.2,-.5,.4,-1,.5,-1.3c.1,-.4,.5,-.7,.9,-.5c.1,0,.2,.2,.3,.3q.2,.3,.1,-.2c-.1,-.3,-.2,-.5,-.1,-.6c0,0,0,-.1,0,-.3c.1,-.4,1,-2.1,1.6,-2.7c.3,-.2,.6,-.6,.7,-.7c.1,-.1,.5,-.4,.8,-.7c.3,-.2,.7,-.6,.9,-.8c.4,-.4,.7,-.4,.9,-.2q.2,.2,.2,-.1c0,-.2,0,-.5,0,-.6c.1,-.2,1.5,-1.1,2.1,-1.5c.3,-.1,.6,-.3,.8,-.4c.1,-.1,.3,-.2,.4,-.2c0,0,.4,-.2,.8,-.4c.4,-.2,.9,-.5,1,-.5c.2,-.1,.6,-.3,1,-.4c1.1,-.6,1.6,-.8,2.4,-1.1c.5,-.2,.9,-.3,1,-.3c0,-.1,.1,0,.3,.1l.2,.2l.4,-.4c.6,-.5,1.6,-.8,3.8,-1.1c.9,-.1,2.2,-.3,2.8,-.4l1,-.2l.1,.3q.1,.3,-.3,.4c-2.7,1.1,-4.6,2,-5.6,2.9c-.2,.2,-.4,.4,-.4,.4c-.1,0,-1.5,1.4,-1.5,1.5c0,.1,-.1,.2,-.2,.3c-.3,.2,-.6,.8,-.5,1.1c0,.2,-.1,.3,-.4,.5c-.3,.2,-.4,.3,-.4,.4c.2,.2,0,.9,-.2,1.2c-.7,.8,-1.7,2.3,-1.9,2.9c-.1,.1,-.2,.4,-.4,.7c-.2,.3,-.4,.8,-.5,1.1c-.4,1,-.4,.9,-1,1c-.5,0,-1.4,.3,-1.3,.4c0,0,.4,0,.9,-.1c1.1,-.1,1.2,0,.8,.7c-.4,.8,-.7,1.7,-.7,2.2c0,.3,-.2,.8,-.6,2.2c-.1,.4,-.3,.5,-.7,.8c-.5,.3,-.6,.3,-1.2,.3q-.7,0,-.6,.2c.1,.1,-.1,.5,-.5,1.3c-.3,.6,-.7,1.3,-.8,1.4c-.2,.1,-.4,.4,-.6,.7c-.2,.3,-.4,.6,-.5,.6c0,0,-.2,.1,-.3,.3c-.6,.8,-2.7,2.6,-3,2.6l.3,-3.2c.1,.1,.4,0,.6,-.3c.2,-.4,.5,-.5,1.1,-.6c.5,0,.6,-.1,1,-.5c.2,-.2,.6,-.9,.9,-1.4l.5,-.9l-.5,-.3c-.3,-.2,-.6,-.3,-.7,-.4c-.1,-.2,.4,-1,.7,-1.1c.2,-.1,.5,-.1,.7,-.1c.2,-.1,.5,-.2,.7,-.3c.3,-.2,.5,-.3,.7,-.3c.6,-.1,.8,-.4,.8,-1.3c.1,-1,.2,-1.1,.5,-1.2c.4,-.2,.7,-.1,.9,.1l.1,.3l.1,-.3c.1,-.3,.1,-.4,-.1,-.4c-.1,0,-.2,0,-.3,-.2c-.1,-.2,-.1,-.3,-.6,-.4c-.6,-.2,-.7,-.3,-.5,-.6c0,0,0,-.2,0,-.4c-.1,-.2,.4,-.7,1,-1c.5,-.1,.6,-.2,1.1,-1.2c.3,-.6,.8,-1.2,1,-1.5c.2,-.2,.5,-.5,.6,-.6c.1,-.2,.2,-.3,.4,-.3c.2,0,.4,0,.5,-.1c.2,-.2,.9,-1.2,.8,-1.2c0,0,-.2,.1,-.5,.2c-.8,.3,-1.8,.3,-2,-.1c-.2,-.3,.4,-1.1,.9,-1.2c.1,0,1.1,-.5,1.5,-.8c.1,-.1,.3,-.4,.5,-.7c.3,-.8,.8,-1.4,1.2,-1.5c.5,-.2,.7,-.3,.9,-.8c.2,-.4,.1,-.7,-.4,-.8c-.1,-.1,-.3,-.2,-.4,-.4c0,-.1,-.1,-.2,-.2,-.2c-.3,0,-3,1.1,-4.1,1.7c-.2,.1,-.5,.3,-.7,.5c-.1,.2,-.5,.6,-.9,.9c-.4,.3,-.9,.7,-1,1c-.1,.2,-.4,.6,-.7,.9c-.4,.3,-.4,.5,-.4,1.2c-.1,.4,0,.9,.1,1.1c.3,.7,.2,1.1,-.3,1.1c-.5,-.1,-.8,-.4,-1.3,-1.6c-.3,-.5,-.6,-1,-.6,-1c-.2,0,-.8,.8,-1.1,1.3c-.2,.5,-.3,.6,-.7,.8c-.5,.1,-.5,.2,-.7,.7c-.1,.3,-.1,.6,-.1,.8c.1,.1,.1,.2,.1,.3c-.1,.4,-.1,.8,.1,1.2c.2,.3,.3,.6,.3,.8c0,.2,.1,.6,.3,.9c.3,.6,.3,.7,.2,1.2c-.1,.3,-.1,.6,-.1,.7c-.1,.4,-.4,.3,-1.1,-.3c-.5,-.4,-1.2,-1.2,-2,-2.3c-.3,-.4,-.4,-.4,-.3,-.1c0,.1,-.1,.5,-.2,.8c-.2,.7,-.2,1.4,.2,1.8c.2,.2,.8,1.8,.9,2.2c0,.2,0,.4,.1,.5c.1,.2,.1,1,-.1,1.3c0,.1,0,.3,0,.4c0,.2,-.1,.3,-.2,.3c-.2,0,-.7,-.4,-1,-.7c-.1,-.1,-.3,-.3,-.5,-.5l-.2,-.3l-.1,.2c-.1,.3,0,.8,.1,1.2c.3,.8,.4,2.4,.2,2.9c-.1,.2,-.2,.4,-.4,.5c-.4,.3,-.3,.5,.4,1.5l.4,.5l.1,-.3c.1,-.2,.2,-.6,.3,-.9c.1,-.4,.2,-.9,.3,-1.1c.1,-.2,.2,-.5,.3,-.7q.1,-.6,2.3,-5.3q1,-2.1,1.9,-3.4c.7,-1.1,1.3,-2.1,1.9,-3c.8,-1.3,.9,-1.6,1.4,-2.2c.3,-.3,.7,-.8,.9,-1c.9,-1.2,1.1,-1.4,1.3,-1.4c.1,.1,.2,.1,.2,.2c0,0,-.2,.4,-.5,.8c-.3,.4,-.8,1.1,-1,1.6c-.9,1.4,-2.1,3.3,-2.5,3.9c-.2,.3,-.5,.8,-.6,1c-.1,.2,-.4,.6,-.5,.8c-.2,.3,-.3,.6,-.4,.8c0,.3,-.1,.7,-1.1,2.5c-.8,1.6,-1,2,-1.7,3.7c-.5,1.1,-.8,2.2,-.7,2.4l-.3,3.2c-.3,0,-.5,1.8,-.2,3c.1,.7,.1,1,-.2,1.2c-.6,.4,-1.1,1.2,-1.3,1.7c-.1,.4,-.2,.5,-.4,.5q-.2,0,-.3,-.1Z" class="g2_12"/>
<path d="M133.1,677.5c-.1,-.1,-.3,-.1,-.4,-.1q-.1,0,0,.1c.1,.1,.3,.1,.4,.1c.2,0,.2,-.1,0,-.1Z" class="g1_12"/>
<path d="M144.5,658.4q0,-.1,-.1,-.1c-.1,0,-.1,.1,-.2,.1c0,.1,0,.2,.1,.2c.1,-.1,.2,-.1,.2,-.2Z" class="g1_12"/>
<path d="M125.7,691c-.1,0,-.1,-.1,-.1,-.3c.1,-.1,.1,-.8,.1,-1.7c0,-1.4,.1,-2.1,.4,-3.5l.1,-.6l-.5,-1c-.3,-.5,-.5,-1.2,-.6,-1.6c-.1,-.3,-.3,-.8,-.3,-.9c-.2,-.8,-.3,-2.9,-.3,-4c.1,-1.1,.5,-2.5,.7,-2.5c.1,0,.2,.1,.4,.5c.5,.8,.7,.7,.3,-.1c-.4,-.8,-.7,-1.8,-.7,-2.5c0,-.4,.5,-1.9,.9,-2.7c.2,-.3,.3,-.5,.5,-.5q.3,0,.9,.9l.5,.7l-.4,-.7c-.5,-1.2,-.4,-1.7,.3,-2.9c.3,-.6,.6,-1.1,.7,-1.2c.1,0,.4,-.3,.6,-.6c.3,-.3,.8,-.8,1.2,-1c.3,-.3,.7,-.7,.9,-.9c.4,-.4,.6,-.4,1,.2l.2,.4l-.1,-.5c-.1,-.8,0,-1,.8,-1.6c.5,-.3,.9,-.6,1,-.6c0,0,.1,0,.1,-.1c0,0,.1,-.1,.3,-.1q.2,0,.2,.1c-.1,.1,-.1,.2,-.2,.2c-.1,0,-.4,.2,-.7,.5c-.4,.3,-.8,.6,-.9,.7c-.3,.1,-.3,.2,-.3,.6c0,.3,.1,.7,.2,.9c.1,.5,.1,1,0,1c-.2,0,-.4,-.2,-.7,-.9l-.3,-.6l-.4,.2c-.1,.2,-.3,.3,-.3,.4c-.1,0,-.3,.2,-.6,.4c-.3,.3,-.6,.5,-.7,.6c-.1,.1,-.3,.4,-.6,.6c-.6,.6,-1.6,2.2,-1.5,2.5c.1,.4,1,2.3,1.7,3.5c.5,.9,.6,1.1,.4,1.1c-.2,-.1,-1.2,-.8,-1.6,-1.4c-.3,-.3,-.6,-.8,-.8,-.9c-.1,-.2,-.3,-.5,-.4,-.7c-.2,-.4,-.4,-.4,-.6,0c-.3,.5,-.8,2.1,-.9,2.5c-.1,.8,.6,2.6,1.5,3.8c.7,1,.7,1.2,-.1,.8c-.3,-.3,-1.3,-1.3,-1.5,-1.6c0,-.2,-.1,-.2,-.1,-.2c-.2,.1,-.4,1.1,-.4,1.7c0,.4,0,.8,-.1,.9c0,.1,0,.7,.1,1.3c.1,.6,.1,1.3,.1,1.5c.1,.6,1,3,1.1,3q.1,0,.1,-.1c0,0,.1,-.5,.3,-1.1c.2,-.6,.3,-1.2,.4,-1.4c0,-.2,.1,-.5,.1,-.6c.1,0,.2,-.3,.3,-.6c.1,-.5,.2,-.9,1.1,-2.7c.3,-.6,.7,-1.4,.9,-1.9c.8,-1.7,1.6,-3.2,2.2,-4.2c.7,-1,1.1,-1.7,1.9,-3c.2,-.4,.6,-.9,.7,-1.1c.2,-.2,.3,-.4,.3,-.5c.1,-.1,.3,-.4,.6,-.7c.2,-.3,.6,-.8,.8,-1c.9,-1.2,1.1,-1.4,1.2,-1.3c.2,.1,.2,.2,-.6,1.2c-.2,.3,-.6,.8,-.8,1.2c-.8,1.4,-2.1,3.4,-2.4,3.8c-.6,.9,-1.5,2.5,-1.5,2.8c0,.1,-.5,1.3,-1.2,2.6c-.7,1.3,-1.3,2.7,-1.5,3.1c-.1,.4,-.3,.8,-.3,.8c-.1,.1,-.5,1.3,-.6,1.8c0,.3,-.1,.7,-.1,1c-.2,.7,-.3,2,-.3,2c0,.1,.1,0,.3,-.1c.1,-.1,.3,-.3,.6,-.5c.2,-.1,.5,-.4,.8,-.7c.2,-.2,.4,-.4,.5,-.5c.6,-.6,.9,-.9,1.2,-1.4c.3,-.3,.6,-.7,.7,-.8c.3,-.3,1.2,-2,1.2,-2.1c-.1,-.1,-.4,-.3,-.9,-.5c-.9,-.5,-1,-.6,-.8,-.7c.1,-.1,1,0,1.8,.2c.2,0,.7,.1,1,0c.9,0,1.4,-.4,1.6,-1c.1,-.2,.2,-.6,.2,-.7c.1,-.3,.3,-1,.3,-1.6c.1,-.5,.4,-1.3,.6,-1.6l.2,-.3h-.5c-.5,.1,-1.6,-.1,-1.7,-.3c-.1,-.2,.7,-.6,1.6,-.8l.8,-.2l.2,-.6c.2,-.3,.3,-.7,.4,-.8c0,-.2,.1,-.4,.2,-.5c.1,-.1,.3,-.4,.4,-.6c0,-.2,.3,-.6,.4,-.9c1.4,-2,1.6,-2.3,1.5,-2.3c-.1,0,-.4,.1,-.6,.2c-.7,.3,-1.5,.4,-1.5,0c0,-.2,1.8,-1.3,2.7,-1.5c.4,-.1,.4,-.2,.4,-.6c0,-.2,.2,-.6,.3,-.7c.1,-.2,.3,-.5,.4,-.7c.3,-.6,2.2,-2.2,3.2,-2.8c.7,-.4,1.8,-1,2.7,-1.4l.7,-.3l-1.6,.2c-2.6,.3,-3.7,.7,-4.4,1.5c-.3,.3,-.4,.4,-.5,.1c-.1,-.2,.6,-.9,1.2,-1.2c.6,-.2,1.7,-.5,2.4,-.6c.4,0,1.5,-.2,2.5,-.3c1.5,-.3,1.8,-.3,1.9,-.2c.4,.2,.3,.3,-.2,.5c-1.1,.5,-2.2,.9,-2.9,1.2c-.7,.4,-2,1.1,-2.2,1.3c-.1,.1,-.3,.3,-.6,.5c-.9,.7,-1.6,1.5,-1.8,1.8c-.1,.1,-.3,.4,-.4,.6c-.1,.1,-.3,.4,-.3,.6c0,.3,-.1,.5,-.4,.7c-.2,.1,-.5,.3,-.6,.3h-.2l.2,.1c.4,0,.5,.2,.3,.4c0,.1,-.1,.2,-.1,.3c.1,.1,-.1,.4,-.4,.6c-.2,.3,-.5,.7,-.6,.8c-.1,.2,-.3,.5,-.4,.8c-.4,.5,-.6,.9,-.7,1.1c0,.1,-.2,.5,-.4,.8c-.3,.5,-.4,.8,-.7,1.6c-.1,.3,-.2,.3,-.7,.4c-.7,.1,-1.5,.4,-1.4,.5c0,0,.4,0,.9,0c.8,-.2,.9,-.2,1,0c.1,.1,.1,.3,-.2,.7c-.3,.6,-.7,1.6,-.7,2.1c0,.3,-.3,1.3,-.6,2.2c-.1,.3,-.2,.5,-.6,.7c-.5,.3,-.6,.3,-1.2,.3c-.4,0,-.9,0,-1,-.1c-.2,0,-.5,-.1,-.8,-.1l-.6,-.1l.5,.2c.3,.1,.6,.2,.7,.2q.5,.1,.6,.2c.1,.1,-.9,2.1,-1.3,2.5c-.2,.2,-.5,.6,-.7,.8c-.1,.3,-.3,.5,-.4,.6c-.2,.1,-.4,.4,-.6,.6c-.4,.4,-1.3,1.3,-1.7,1.6c-.1,.1,-.4,.3,-.5,.4c-.1,.1,-.3,.3,-.5,.3c-.2,.1,-.3,.2,-.3,.5c-.1,.5,-.1,1.8,-.1,2.1c0,.1,.1,.4,.1,.8c.1,.5,.1,.6,-.2,.8c-.4,.4,-1,1.2,-1.3,1.8c-.1,.3,-.2,.5,-.2,.5c-.1,0,-.2,0,-.3,-.1Z" class="g3_12"/>
<path d="M128.2,670.7q-.1,-.2,-.1,-.1c-.1,.1,0,.3,.1,.3c.1,0,.1,-.1,0,-.2Z" class="g3_12"/>
<path d="M139.7,664.8c.2,-.1,.5,-.3,.7,-.4l.2,-.2l-.3,.1c-.5,0,-1.4,.5,-1.4,.7c0,.1,.3,0,.8,-.2Z" class="g4_12"/>
<path d="M139.7,664.7c.4,-.2,.6,-.4,.2,-.2c-.3,.1,-.9,.4,-.7,.4c0,0,.3,-.1,.5,-.2Z" class="g1_12"/>
<path d="M134.9,661.5c0,-.1,.6,-.5,.7,-.4q.2,.1,-.1,.2c-.1,.1,-.3,.2,-.4,.2q-.1,.1,-.2,0Z" class="g3_12"/>
<path d="M136.2,660.8c.1,-.1,.2,-.2,.3,-.2q.2,0,.1,.1c-.1,.1,-.2,.2,-.3,.2q-.2,0,-.1,-.1Z" class="g3_12"/>
<path d="M137.1,660.3c.1,-.2,.6,-.3,.7,-.2c0,0,-.5,.3,-.7,.3q-.1,0,0,-.1Z" class="g3_12"/>
<path d="M137.9,659.9c0,0,.8,-.5,1.3,-.6c.3,-.1,.6,-.2,.7,-.3c.4,-.2,1.9,-.8,2.1,-.8c.2,.2,.1,.4,-.2,.4c-.5,.1,-1.7,.5,-3,1.1c-.6,.3,-.8,.4,-.9,.2Z" class="g3_12"/>
<path d="M125.7,691c0,-.1,0,-.2,0,-.3c0,0,.1,-.6,.1,-1.2c0,-1.3,0,-1.9,.3,-4l.1,-.7l-.5,-1c-.3,-.6,-.5,-1.2,-.6,-1.6c-.1,-.3,-.2,-.7,-.2,-.9c-.3,-1.1,-.4,-4.2,-.1,-5.2c.1,-.4,.2,-.8,.2,-.9c.1,-.4,.2,-.3,.7,.3c.6,1.1,.9,1,.3,-.1c-.4,-.7,-.8,-2,-.8,-2.6c0,-.4,.6,-1.9,1,-2.7c.1,-.3,.2,-.4,.4,-.4c.2,0,.3,0,.5,.4c.5,.6,.6,.9,.5,.8c-.1,0,-.3,-.2,-.4,-.4c-.4,-.8,-.6,-.6,-1.2,.8c-.7,1.9,-.6,2.4,.7,4.8c.5,.8,.8,1.5,.7,1.5c-.2,.1,-1.4,-1.1,-1.7,-1.7c-.1,0,-.2,-.2,-.3,-.2q-.1,-.1,-.2,.1c-.3,.8,-.4,2.5,-.2,4c0,.5,.1,1.1,.1,1.4c0,.5,1,3.1,1.2,3.1c.1,0,.1,-.1,.1,-.3c0,-.1,.1,-.7,.3,-1.3c.2,-.5,.3,-1.1,.4,-1.3c0,-.2,0,-.3,.1,-.4c.1,0,.4,-1.1,.4,-1.2c0,0,.1,-.3,.2,-.6c.9,-1.8,1.3,-2.7,1.6,-3.5c.8,-1.5,1.6,-3.1,2.3,-4.2c.7,-1.1,1.3,-2.1,1.9,-3c.2,-.4,.5,-.9,.7,-1c.1,-.2,.3,-.4,.3,-.5c0,-.2,.6,-.8,.9,-1.1c.1,-.1,.3,-.4,.5,-.6c.6,-1,1,-1.4,1.1,-1.3q.1,0,-.6,.9c-.2,.4,-.7,1,-.9,1.4c-.8,1.4,-2,3.4,-2.3,3.7c-.6,.8,-1.6,2.7,-1.6,2.9c0,.2,-.5,1.3,-1.2,2.6c-.6,1.3,-1.3,2.6,-1.4,3c-.2,.4,-.4,1,-.6,1.4c-.2,.7,-.4,1.4,-.4,1.8c0,.1,-.1,.4,-.1,.7c-.1,.2,-.2,.7,-.2,1.1c-.1,.6,-.1,.8,.1,.8c.1,0,.2,-.1,.2,-.1c.1,-.1,.3,-.3,.6,-.5c.3,-.2,.5,-.5,.6,-.5c0,-.1,.3,-.3,.5,-.5c.7,-.7,1.1,-1.1,1.5,-1.7c.3,-.3,.6,-.7,.7,-.8c.2,-.2,1.1,-1.8,1.1,-2.1c0,-.1,-.1,-.2,-.6,-.4c-.7,-.4,-.6,-.4,.1,-.1c.3,.1,.6,.1,.7,.1c.4,-.1,.3,.3,-.2,1.3c-.3,.6,-.7,1.2,-.9,1.4c-.1,.2,-.4,.5,-.6,.8c-.2,.2,-.4,.5,-.5,.6c-.1,.1,-.3,.3,-.5,.5c-.1,.2,-.4,.4,-.6,.6c-.2,.2,-.5,.4,-.6,.6c-.1,.1,-.3,.3,-.3,.3c-.1,0,-.3,.1,-.5,.3c-.2,.2,-.5,.4,-.7,.5c-.2,.1,-.3,.2,-.3,.7c-.1,.3,-.1,.6,-.1,.7c0,0,0,.3,0,.5c0,.3,.1,.7,.1,1c.2,.8,.1,1.1,-.1,1.3c-.4,.2,-1.1,1.2,-1.3,1.7c-.2,.6,-.3,.6,-.5,.5Z" class="g5_12"/>
<path d="M134,677.5c-.4,-.1,-.8,-.1,-1,-.2c-.2,0,-.4,-.1,-.5,-.1c-.1,0,-.3,0,-.4,-.1c-.1,0,-.3,0,-.4,0c-.1,0,-.2,0,-.3,0c-.1,-.3,.3,-.3,1.8,0c1.4,.3,2.5,-.1,2.7,-.9c0,-.2,.1,-.6,.2,-.8c.1,-.3,.2,-.6,.2,-.8c.1,-.4,.1,-.8,.3,-1.6c.1,-.3,.2,-.6,.4,-.8c.1,-.2,.2,-.3,.1,-.4c0,0,-.2,0,-.4,.1c-.4,.1,-1.6,-.1,-1.7,-.3c-.1,-.3,.8,-.7,2,-.8c.3,-.1,.4,-.1,.6,-.8c.6,-1.4,1.6,-3.2,2.9,-4.9c.1,-.1,.1,-.2,0,-.3c0,0,-.3,.1,-.7,.2c-.6,.3,-1.3,.4,-1.4,.2c0,-.1,0,-.2,.1,-.2q.2,-.1,.2,0c.1,.1,.1,.2,.1,.2c.3,0,1.3,-.5,1.6,-.7c.3,-.2,.6,-.3,.6,-.2c.1,.2,-.1,.9,-.2,1c-.2,.1,-.5,.5,-.7,.9c-.1,.1,-.4,.5,-.6,.8c-.3,.5,-.5,.9,-.6,1.2c-.1,.1,-.3,.5,-.4,.8c-.3,.5,-.6,1,-.8,1.6c-.1,.2,-.2,.3,-.7,.4c-.8,.1,-1.6,.4,-1.4,.6c0,0,.4,0,1,-.1c.8,-.1,.9,-.1,1,0c0,.1,-.1,.4,-.3,.7c-.3,.6,-.6,1.5,-.7,2.1c0,.2,-.1,.6,-.2,.9c-.1,.3,-.2,.7,-.2,.8c-.1,.6,-.4,1,-.8,1.2c-.6,.3,-.7,.3,-1.4,.3Z" class="g5_12"/>
<path d="M129.6,673.1c-.2,-.1,-.4,-.2,-.5,-.3c-.3,-.2,-1,-1,-1,-1.2c0,0,.1,0,.1,0c.1,0,.5,.4,.6,.5c.1,.1,.2,.2,.2,.2c.1,0,.1,-.1,-.1,-.4c-.1,-.1,-.3,-.5,-.4,-.7c-.1,-.3,-.4,-.9,-.6,-1.4c-.3,-.5,-.5,-1,-.5,-1.1c0,-.1,.2,-.6,.5,-1.1c.6,-1,1.6,-2.1,2.5,-2.8c.4,-.2,.8,-.6,.9,-.8c.4,-.5,.6,-.4,.9,.3c.2,.5,.3,.5,.4,.4c.1,0,.2,0,.2,0c0,0,.1,.2,.1,.4c.1,.6,-.1,.5,-.6,-.4c-.4,-.7,-.5,-.8,-.7,-.5c-.1,.2,-.7,.6,-1.1,.9c-.7,.5,-1.8,1.8,-2.5,3l-.4,.6l.7,1.4c.7,1.5,1.1,2.2,1.5,2.8c.2,.4,.2,.5,-.2,.2Z" class="g5_12"/>
<path d="M128.1,671.2c-.1,-.1,0,-.2,0,-.2c.1,0,.1,.1,.2,.1c0,.1,0,.2,0,.2c-.1,0,-.2,-.1,-.2,-.1Z" class="g5_12"/>
<path d="M127.6,670.2c-.3,-.6,-.2,-.8,0,-.5c.2,.2,.4,.8,.3,.9c-.1,.1,-.2,0,-.3,-.4Z" class="g5_12"/>
<path d="M140.1,664c.5,-.3,1.1,-.4,1.2,-.3c.1,.1,-.1,.2,-.8,.4c-.8,.2,-.9,.2,-.4,-.1Z" class="g5_12"/>
<path d="M141.5,663.6c0,-.1,0,-.3,0,-.5c0,-.5,.7,-1.7,1.3,-2.2c1.7,-1.7,3.9,-3,5.7,-3.6c.6,-.2,.6,-.3,-.1,-.2c-.3,.1,-1.3,.2,-2.2,.4c-1,.1,-1.9,.2,-2.1,.3c-.4,.2,-1.2,.7,-1.5,.9c-.2,.3,-.3,.4,-.4,.2c-.1,-.2,.9,-1,1.4,-1.2c1.1,-.3,1.4,-.4,2.1,-.5c.4,0,1.6,-.2,2.6,-.3c1.8,-.3,2,-.4,2.1,-.1c0,.1,-.3,.2,-.7,.4c-2.5,.9,-4.4,1.9,-5.3,2.8c-.2,.1,-.4,.3,-.4,.3c-.1,0,-.2,.1,-.3,.2c-.1,.1,-.3,.3,-.6,.6c-.2,.2,-.5,.5,-.6,.7c-.1,.2,-.3,.4,-.5,.6c-.1,.1,-.2,.4,-.3,.6c0,.4,-.1,.7,-.2,.6Z" class="g5_12"/>
<path d="M132.6,664c-.1,-.1,-.2,-.7,-.1,-.9c0,-.1,.3,-.3,.6,-.5c.3,-.3,.7,-.5,.8,-.6l.2,-.1l-.1,.2c-.2,.2,-1,.9,-1.2,1c-.1,.1,-.2,.3,-.2,.4c0,.2,0,.4,0,.5q0,.2,0,0Z" class="g5_12"/>
<path d="M141.5,658.4c.2,-.1,.5,-.2,.5,0c0,0,-.1,.1,-.3,.1q-.4,.1,-.2,-.1Z" class="g5_12"/>
<path d="M125.7,691c0,-.1,0,-.2,0,-.3c0,0,.1,-.6,.1,-1.2c0,-1.2,0,-1.8,.4,-4.1q0,-.6,-.5,-1.6c-.3,-.6,-.5,-1.2,-.6,-1.6c-.1,-.3,-.2,-.7,-.2,-.9c-.3,-1.1,-.4,-4.2,-.1,-5.2c.1,-.4,.2,-.8,.2,-.9c.1,-.4,.2,-.3,.7,.3c.6,1.1,.9,1,.3,-.1c-.4,-.7,-.8,-2,-.8,-2.6c0,-.4,.6,-1.9,1,-2.7c.1,-.3,.2,-.4,.4,-.4c.2,0,.3,0,.5,.4c.5,.6,.6,.9,.5,.8c-.1,0,-.3,-.2,-.4,-.4c-.4,-.8,-.6,-.6,-1.2,.8c-.7,1.9,-.6,2.4,.7,4.8c.5,.8,.8,1.5,.7,1.5c-.2,.1,-1.4,-1.1,-1.7,-1.7c-.1,0,-.2,-.2,-.3,-.2q-.1,-.1,-.2,.1c-.3,.8,-.4,2.5,-.2,4c0,.5,.1,1.1,.1,1.4c0,.5,1,3.1,1.2,3.1c.1,0,.1,-.1,.1,-.3c0,-.1,.1,-.7,.3,-1.3c.2,-.5,.3,-1.1,.4,-1.3c0,-.2,0,-.3,.1,-.4c.1,0,.4,-1.1,.4,-1.2c0,0,.1,-.3,.2,-.6c.9,-1.8,1.3,-2.7,1.6,-3.5c.8,-1.5,1.6,-3.1,2.3,-4.2c.7,-1.1,1.3,-2.1,1.9,-3c.2,-.4,.5,-.9,.7,-1c.1,-.2,.3,-.4,.3,-.5c0,-.2,.6,-.8,.9,-1.1c.1,-.1,.3,-.4,.5,-.6c.6,-1,1,-1.4,1.1,-1.3q.1,0,-.7,1.1c-1.5,1.9,-2.3,3.2,-3.6,5.4c-.3,.3,-.7,1,-1,1.5c-.4,.5,-.5,.8,-.4,.8c.4,0,.3,.4,-.8,2.7c-.7,1.2,-1.4,2.6,-1.5,3c-.2,.4,-.4,1,-.6,1.4c-.2,.7,-.4,1.4,-.4,1.8c0,.1,-.1,.4,-.1,.7c-.1,.2,-.2,.7,-.2,1.1c-.1,.6,-.1,.8,.1,.8c.1,0,.2,-.1,.2,-.1c.1,-.1,.3,-.3,.6,-.5c.3,-.2,.5,-.5,.6,-.5c0,-.1,.3,-.3,.5,-.5c.7,-.7,1.1,-1.1,1.5,-1.7c.3,-.3,.6,-.7,.7,-.8c.2,-.2,1.1,-1.8,1.1,-2.1c0,-.1,-.1,-.2,-.6,-.4c-.7,-.4,-.6,-.4,.1,-.1c.3,.1,.6,.1,.7,.1c.4,-.1,.3,.3,-.2,1.3c-.3,.6,-.7,1.2,-.9,1.4c-.1,.2,-.4,.5,-.6,.8c-.2,.2,-.4,.5,-.5,.6c-.1,.1,-.3,.3,-.5,.5c-.1,.2,-.4,.4,-.6,.6c-.2,.2,-.5,.4,-.6,.6c-.1,.1,-.3,.3,-.3,.3c-.1,0,-.3,.1,-.5,.3c-.2,.2,-.5,.4,-.7,.5c-.2,.1,-.3,.2,-.3,.7c-.1,.3,-.1,.6,-.1,.7c0,0,0,.3,0,.5c0,.3,.1,.7,.1,1c.2,.8,.1,1.1,-.1,1.3c-.4,.2,-1.1,1.2,-1.3,1.7c-.2,.6,-.3,.6,-.5,.5Z" class="g6_12"/>
<path d="M134,677.5c-.4,-.1,-.8,-.1,-1,-.2c-.2,0,-.4,-.1,-.5,-.1c-.1,0,-.3,0,-.4,-.1c-.1,0,-.3,0,-.4,0c-.1,0,-.2,0,-.3,0c-.1,-.3,.3,-.3,1.8,0c1.4,.3,2.5,-.1,2.7,-.9c0,-.2,.1,-.6,.2,-.8c.1,-.3,.2,-.6,.2,-.8c.1,-.4,.1,-.8,.3,-1.6c.1,-.3,.2,-.6,.4,-.8c.1,-.2,.2,-.3,.1,-.4c0,0,-.2,0,-.4,.1c-.4,.1,-1.6,-.1,-1.7,-.3c-.1,-.3,.8,-.7,2,-.8c.3,-.1,.4,-.1,.6,-.8c.6,-1.4,1.6,-3.2,2.9,-4.9c.1,-.1,.1,-.2,0,-.3c0,0,-.3,.1,-.7,.2c-.6,.3,-1.3,.4,-1.4,.2c0,-.1,0,-.2,.1,-.2q.2,-.1,.2,0c.1,.1,.1,.2,.1,.2c.3,0,1.3,-.5,1.6,-.7c.3,-.2,.6,-.3,.6,-.2c.1,.2,-.1,.9,-.2,1c-.2,.1,-.5,.5,-.7,.9c-.1,.1,-.4,.5,-.6,.8c-.3,.5,-.5,.9,-.6,1.2c-.1,.1,-.3,.5,-.4,.8c-.3,.5,-.6,1,-.8,1.6c-.1,.2,-.2,.3,-.7,.4c-.8,.1,-1.6,.4,-1.4,.6c0,0,.4,0,1,-.1c.8,-.1,.9,-.1,1,0c0,.1,-.1,.4,-.3,.7c-.3,.6,-.6,1.5,-.7,2.1c0,.2,-.1,.6,-.2,.9c-.1,.3,-.2,.7,-.2,.8c-.1,.6,-.4,1,-.8,1.2c-.6,.3,-.7,.3,-1.4,.3Z" class="g6_12"/>
<path d="M129.6,673.1c-.2,-.1,-.4,-.2,-.5,-.3c-.3,-.2,-1,-1,-1,-1.2c0,0,.1,0,.1,0c.1,0,.5,.4,.6,.5c.1,.1,.2,.2,.2,.2c.1,0,.1,-.1,-.1,-.4c-.1,-.1,-.3,-.5,-.4,-.7c-.1,-.3,-.4,-.9,-.6,-1.4c-.3,-.5,-.5,-1,-.5,-1.1c0,-.1,.2,-.6,.5,-1.1c.6,-1,1.6,-2.1,2.5,-2.8c.4,-.2,.8,-.6,.9,-.8c.4,-.5,.6,-.4,.9,.3c.2,.5,.3,.5,.4,.4c.1,0,.2,0,.2,0c0,0,.1,.2,.1,.4c.1,.6,-.1,.5,-.6,-.4c-.4,-.7,-.5,-.8,-.7,-.5c-.1,.2,-.7,.6,-1.1,.9c-.7,.5,-1.8,1.8,-2.5,3l-.4,.6l.7,1.4c.7,1.5,1.1,2.2,1.5,2.8c.2,.4,.2,.5,-.2,.2Z" class="g6_12"/>
<path d="M128.1,671.2c-.1,-.1,0,-.2,0,-.2c.1,0,.1,.1,.2,.1c0,.1,0,.2,0,.2c-.1,0,-.2,-.1,-.2,-.1Z" class="g6_12"/>
<path d="M127.6,670.2c-.3,-.6,-.2,-.8,0,-.5c.2,.2,.4,.8,.3,.9c-.1,.1,-.2,0,-.3,-.4Z" class="g6_12"/>
<path d="M140.1,664c.5,-.3,1.1,-.4,1.2,-.3c.1,.1,-.1,.2,-.8,.4c-.8,.2,-.9,.2,-.4,-.1Z" class="g6_12"/>
<path d="M141.5,663.6c0,-.1,0,-.3,0,-.5c0,-.5,.7,-1.7,1.3,-2.2c1.7,-1.7,3.9,-3,5.7,-3.6c.6,-.2,.6,-.3,-.1,-.2c-.3,.1,-1.3,.2,-2.2,.4c-1,.1,-1.9,.2,-2.1,.3c-.4,.2,-1.2,.7,-1.5,.9c-.2,.3,-.3,.4,-.4,.2c-.1,-.2,.9,-1,1.4,-1.2c1.1,-.3,1.4,-.4,2.1,-.5c.4,0,1.6,-.2,2.6,-.3c1.8,-.3,2,-.4,2.1,-.1c0,.1,-.3,.2,-.7,.4c-2.5,.9,-4.4,1.9,-5.3,2.8c-.2,.1,-.4,.3,-.4,.3c-.1,0,-.2,.1,-.3,.2c-.1,.1,-.3,.3,-.6,.6c-.2,.2,-.5,.5,-.6,.7c-.1,.2,-.3,.4,-.5,.6c-.1,.1,-.2,.4,-.3,.6c0,.4,-.1,.7,-.2,.6Z" class="g6_12"/>
<path d="M132.6,664c-.1,-.1,-.2,-.7,-.1,-.9c0,-.1,.3,-.3,.6,-.5c.3,-.3,.7,-.5,.8,-.6l.2,-.1l-.1,.2c-.2,.2,-1,.9,-1.2,1c-.1,.1,-.2,.3,-.2,.4c0,.2,0,.4,0,.5q0,.2,0,0Z" class="g6_12"/>
<path d="M141.5,658.4c.2,-.1,.5,-.2,.5,0c0,0,-.1,.1,-.3,.1q-.4,.1,-.2,-.1Z" class="g6_12"/>
<path d="M127.2,688.6c.1,-.1,.1,-.2,.1,-.5c-.1,-.3,-.1,-.9,-.1,-1.4c0,-.6,0,-1,0,-1.1c0,0,0,-.2,0,-.3c0,-.1,.1,-.5,.1,-.8c.1,-1.3,.1,-1.5,.5,-3.1c0,-.2,.1,-.5,.1,-.7c.2,-1,1.2,-3.2,2.4,-5.4c.6,-1.3,.9,-2,.9,-2.2c0,0,-.3,.5,-.6,1.1c-.3,.6,-.7,1.4,-.9,1.7c-.9,1.8,-1.9,4.1,-2,4.6c0,.2,-.2,.6,-.3,.8c0,.3,-.1,.5,-.1,.5c.1,.1,-.3,1.3,-.5,1.8c0,.2,-.1,.6,-.1,.8c-.1,.3,-.2,.7,-.2,1.1c-.3,1,-.5,2.6,-.3,2.8c0,.1,.2,.2,.4,.3c.4,.2,.3,.2,.6,0Z" class="g5_12"/>
<path d="M124.9,681.4c-.1,-.2,-.3,-2.1,-.3,-3.2c0,-.8,.1,-1.6,.2,-2.2c.1,-.4,.2,-.8,.2,-.9c.1,-.3,.3,-.2,.6,.3c.1,.2,.4,.6,.6,.8l.3,.4l-.1,-.4c-.1,-.2,-.4,-.7,-.5,-1.1c-.4,-.8,-.7,-2.2,-.6,-2.7c.1,-.4,.6,-1.6,.9,-2.3c.2,-.4,.6,-.6,.8,-.3c0,.1,0,.2,-.2,.2c-.2,0,-.3,.2,-.5,.5c-.6,1.3,-.8,2.3,-.8,2.9c.1,.3,.3,.9,.5,1.5c.3,.8,.5,1.1,1,1.8c.3,.4,.5,.8,.5,.8c0,.2,-.6,-.2,-.9,-.4c-.1,-.2,-.3,-.4,-.4,-.5c-.1,-.2,-.4,-.5,-.6,-.7l-.3,-.5l-.1,.3c-.4,.9,-.5,2.5,-.3,4.3c.1,1.2,.1,1.6,0,1.4Z" class="g7_12"/>
<path d="M133.7,677.4c-.2,0,-.4,0,-.6,-.1c-.2,-.1,-.4,-.1,-.5,-.1c-.2,0,-.8,-.2,-.8,-.2c0,-.1,.5,0,1,.1c1.3,.2,2,.2,2.5,-.2c.4,-.2,.5,-.4,.8,-1.2c.2,-1,.3,-1.2,.3,-1.7c.1,-.6,.2,-1,.6,-1.7c.1,-.2,.2,-.5,.2,-.5c0,0,-.2,0,-.5,0c-.3,.1,-.5,.1,-1.1,0l-.6,-.2l.1,-.2c.2,-.2,.8,-.4,1.6,-.6l.7,-.1l.3,-.7c.5,-1.4,1.6,-3.2,2.4,-4.4c.3,-.4,.5,-.7,.4,-.8q0,-.1,-.7,.2q-.7,.3,-.7,.2c0,-.1,.2,-.1,.3,-.2c.2,0,.5,-.2,.8,-.4c.4,-.3,.7,-.4,.8,-.3c.2,.1,-.1,.8,-.5,1.2c-.7,.8,-2,3.1,-2.6,4.5c-.1,.3,-.2,.6,-.3,.7c0,.1,-.2,.2,-.3,.2c-.8,.1,-1,.2,-1.4,.3q-.5,.2,-.3,.4c0,0,.3,0,1,-.1c.7,-.1,.9,-.1,.9,0c.1,.1,-.1,.5,-.3,.9c-.4,.7,-.6,1.4,-.6,1.9c0,.2,-.1,.7,-.2,1c-.2,.4,-.2,.7,-.2,.8c0,0,-.1,.2,-.2,.5c-.3,.6,-1.2,1,-2.3,.8Z" class="g7_12"/>
<path d="M131.5,677.1q0,-.1,.1,-.1c0,0,.1,0,.1,0c0,0,0,.1,-.1,.1h-.1Z" class="g7_12"/>
<path d="M129.3,672.9c-.6,-.4,-1.3,-1.4,-.9,-1.1c.1,0,.3,.2,.3,.2c.1,.2,.4,.4,.5,.3c0,-.1,.5,.4,.6,.7c.1,.2,.1,.3,.1,.3c0,0,-.3,-.2,-.6,-.4Z" class="g7_12"/>
<path d="M128.8,671.8c0,-.1,-.2,-.3,-.2,-.5c-.1,-.3,-.4,-.9,-.6,-1.4c-.3,-.4,-.5,-.9,-.6,-1.1c0,-.2,.8,-1.9,1.2,-2.2c.1,-.1,.4,-.5,.7,-.8c.3,-.2,.6,-.6,.8,-.7c.6,-.5,.9,-.7,1.3,-1.1c.2,-.2,.4,-.3,.4,-.3c.3,.1,.3,.3,.1,.3c-.1,0,-.4,.2,-.7,.5c-.4,.3,-.7,.6,-.7,.6c-.2,0,-.4,.2,-.9,.8c-.3,.3,-.5,.6,-.6,.6c0,0,-.9,1.3,-1.2,1.8c-.2,.5,-.2,.6,.4,1.8c.8,1.5,.9,1.9,.6,1.7Z" class="g7_12"/>
<path d="M127.2,670.5c-.1,-.2,-.1,-.3,0,-.2c.1,0,.2,.1,.3,.2c0,.2,0,.3,0,.3c-.1,0,-.2,-.1,-.3,-.3Z" class="g7_12"/>
<path d="M127.6,670.3c0,-.2,-.1,-.4,-.2,-.5c0,-.1,0,-.2,0,-.2c.1,0,.5,.5,.5,.8c0,.2,-.2,.1,-.3,-.1Z" class="g7_12"/>
<path d="M138.4,665.2c0,-.1,.1,-.1,.2,-.1c0,0,.1,0,.2,0c0,.1,-.1,.1,-.2,.1c-.1,0,-.2,0,-.2,0Z" class="g7_12"/>
<path d="M132.5,665.2c-.1,-.3,.1,-.5,.3,-.2c.1,.2,.1,.4,0,.4c-.1,0,-.2,0,-.3,-.2Z" class="g7_12"/>
<path d="M140.3,664c-.1,-.1,.8,-.4,.9,-.3c.1,0,.1,.1,0,.2c-.3,.1,-.9,.2,-.9,.1Z" class="g7_12"/>
<path d="M132.2,664.6q-.1,-.1,-.1,-.2q.1,-.1,.2,0c0,.1,0,.2,0,.2q-.1,0,-.1,0Z" class="g7_12"/>
<path d="M141.6,663.5c-.1,-.2,0,-1,.2,-1.2c.1,-.1,.3,-.4,.4,-.7c.2,-.2,.4,-.5,.5,-.6c.1,0,.3,-.2,.4,-.3c.4,-.5,2,-1.7,2.8,-2.2c.8,-.4,1.9,-.9,2.8,-1.2c.6,-.3,.6,-.4,0,-.3c-.3,.1,-1.3,.2,-2.2,.3c-1.7,.3,-2,.3,-2.4,.5c-.4,.1,-1.2,.6,-1.5,.9c-.1,.1,-.2,.2,-.3,.2c-.2,0,.8,-1,1.2,-1.1c.7,-.3,1.8,-.5,2.4,-.6c.4,0,1.5,-.2,2.4,-.3c.9,-.2,1.7,-.3,1.8,-.3c.3,.1,.3,.3,0,.4c-1.4,.5,-2.5,1,-3.3,1.4c-.8,.4,-1.7,.9,-2,1.1c0,.1,-.2,.3,-.4,.4c-1,.9,-1.8,1.7,-2,1.9c-.1,.2,-.2,.4,-.3,.4c-.1,0,-.4,.7,-.4,1c0,.3,-.1,.4,-.1,.3Z" class="g7_12"/>
<path d="M132.6,663.1c-.1,-.1,.6,-.6,1,-.8c.3,-.2,.2,-.1,-.2,.3c-.4,.4,-.8,.6,-.8,.5Z" class="g7_12"/>
<path d="M141.7,658.5q-.1,-.1,0,-.2c.1,0,.3,0,.2,.1c0,.1,-.1,.1,-.2,.1Z" class="g7_12"/>
<path d="M125.9,684.2c-.1,-.1,-.1,-.2,0,-.3c0,0,.1,.1,.1,.2c.1,.1,.1,.2,.1,.2c-.1,0,-.2,-.1,-.2,-.1Z" class="g8_12"/>
<path d="M129,683.6c0,0,0,-.1,.1,-.1q.2,-.1,.2,0c-.1,.2,-.4,.2,-.3,.1Z" class="g8_12"/>
<path d="M125.6,683.6c0,-.1,0,-.2,.1,-.2c0,.1,.1,.1,.1,.2q0,.2,-.2,0Z" class="g8_12"/>
<path d="M129.5,683.1c0,0,.2,-.2,.4,-.4c.2,-.1,.5,-.4,.5,-.5c.2,-.3,.4,-.4,.4,-.2c0,.1,-1,1.1,-1.2,1.2q-.1,0,-.1,-.1Z" class="g8_12"/>
<path d="M125.4,682.9c-.1,-.1,-.1,-.3,-.1,-.4q0,-.1,.1,.1c0,.1,.1,.3,.1,.3q0,.2,-.1,0Z" class="g8_12"/>
<path d="M131.2,681.3c.2,-.3,1,-1.2,1.1,-1.4q.1,0,.1,0c.1,.1,0,.2,-.2,.4c-.1,.1,-.4,.5,-.6,.8c-.5,.6,-.8,.8,-.4,.2Z" class="g8_12"/>
<path d="M124.8,680.9c0,-.1,0,-.2,0,-.2q.1,0,.2,.1c0,0,0,.1,0,.2q-.1,0,-.2,-.1Z" class="g8_12"/>
<path d="M132.5,679.7c0,-.3,.6,-1.2,.7,-1.2c.1,.1,-.6,1.3,-.7,1.4c0,0,0,-.1,0,-.2Z" class="g8_12"/>
<path d="M124.8,680.2c-.1,0,-.1,-.2,-.1,-.3c.1,-.2,.2,0,.2,.3c0,.1,-.1,.1,-.1,0Z" class="g8_12"/>
<path d="M124.7,679.6c0,-.1,0,-.3,0,-.3c.1,-.2,.1,0,.1,.3v.2Z" class="g8_12"/>
<path d="M133.2,678.3c0,-.1,0,-.3,-.1,-.4c-.1,-.1,0,-.1,.1,-.2c.4,0,.5,.1,.2,.5q-.1,.2,-.2,.1Z" class="g8_12"/>
<path d="M124.6,678.4c0,-.2,.1,-.9,.1,-.8c.1,0,.1,.4,0,.7c0,.1,-.1,.2,-.1,.1Z" class="g8_12"/>
<path d="M134,677.4c-.3,0,-.6,0,-.7,-.1q-.2,-.1,.1,0c.1,0,.5,0,.9,0c.5,0,.6,-.1,1,-.3c.3,-.2,.5,-.5,.6,-.7c.2,-.4,.2,-.3,.1,.2c-.1,.3,-.3,.5,-.7,.7c-.5,.2,-.6,.2,-1.3,.2Z" class="g8_12"/>
<path d="M132.4,677.1c-.4,0,-.4,-.1,-.1,-.1c.2,0,.3,.1,.3,.1q.1,.1,.1,.1c-.1,0,-.2,0,-.3,-.1Z" class="g8_12"/>
<path d="M127,677.4c-.3,-.2,-.5,-.6,-.4,-.7c.1,0,0,-.1,-.1,-.3c-.3,-.6,-1,-2.2,-1,-2.3c0,-.1,.1,0,.3,.4c.1,.4,.6,1.2,1,1.8c.3,.7,.6,1.2,.6,1.2c-.1,0,-.2,-.1,-.4,-.1Z" class="g8_12"/>
<path d="M124.7,677.1c-.1,-.1,0,-.8,.2,-.9c0,-.1,0,.1,0,.2c0,.5,-.1,.8,-.2,.7Z" class="g8_12"/>
<path d="M136.1,675.6c0,-.1,.1,-.2,.1,-.3q.1,-.1,.1,.1c0,.1,-.1,.2,-.1,.3q-.1,.1,-.1,-.1Z" class="g8_12"/>
<path d="M126.2,676.4q-.1,-.1,0,-.1c0,.1,.1,.2,.1,.2c0,.1,-.1,.1,-.1,-.1Z" class="g8_12"/>
<path d="M124.9,676c0,-.1,0,-.2,.1,-.3c0,-.2,.1,-.4,.1,-.5c0,-.4,.3,-.2,.4,.2q0,.2,0,.2c-.1,-.2,-.4,-.2,-.4,-.1c.1,.1,-.1,.6,-.2,.5Z" class="g8_12"/>
<path d="M136.3,675c0,-.1,.1,-.2,.1,-.4q.1,-.3,.1,.1c0,.2,-.1,.4,-.2,.3Z" class="g8_12"/>
<path d="M136.5,673.7c0,-.1,0,-.2,.1,-.2c0,-.1,.1,0,0,.1c0,.1,0,.2,0,.2c-.1,.1,-.1,0,-.1,-.1Z" class="g8_12"/>
<path d="M136.7,673.2c-.1,-.2,.1,-.6,.3,-1c.2,-.1,.2,-.3,.2,-.4c-.1,-.1,-.3,-.1,-.7,0c-.7,.1,-.8,0,-.1,-.2c.4,0,.8,-.1,.9,-.1c.3,-.1,.3,.1,-.1,.9c-.3,.5,-.5,.8,-.5,.8Z" class="g8_12"/>
<path d="M129.5,673c-.1,0,-.3,-.2,-.5,-.3c-.3,-.2,-.7,-.8,-.5,-.8c.1,0,.2,.1,.2,.2c.1,.1,.3,.2,.4,.3c.2,.1,.4,.2,.6,.5c.3,.3,.2,.4,-.2,.1Z" class="g8_12"/>
<path d="M125.3,673.1c0,-.2,0,-.4,0,-.5c.1,-.4,.6,-1.7,.7,-1.7c.1,-.1,.1,.1,-.2,.8c-.1,.4,-.3,1,-.3,1.2q-.1,.4,-.2,.2Z" class="g8_12"/>
<path d="M135.4,671.7c-.2,-.1,-.3,-.1,-.3,-.2c-.1,-.1,.7,-.5,1,-.5c.3,0,.2,.1,-.2,.2c-.5,.2,-.6,.3,-.4,.4q.2,.1,-.1,.1Z" class="g8_12"/>
<path d="M128.8,671.6c-.1,0,-.1,-.2,-.2,-.4q0,-.2,.1,0c0,.1,.1,.3,.1,.4q.1,.2,0,0Z" class="g8_12"/>
<path d="M136.9,670.8c.1,0,.2,0,.3,0c.1,.1,0,.1,-.2,.1q-.3,0,-.1,-.1Z" class="g8_12"/>
<path d="M137.5,670.5c.1,-.2,.2,-.3,.2,-.3c.1,0,-.1,.5,-.2,.6c0,0,0,-.1,0,-.3Z" class="g8_12"/>
<path d="M128.4,670.7c-.1,-.1,-.2,-.2,-.1,-.3q0,-.1,.1,.1c.2,.3,.2,.4,0,.2Z" class="g8_12"/>
<path d="M137.9,669.7c0,-.1,.1,-.2,.1,-.2c.1,0,0,.4,-.1,.4c-.1,0,-.1,-.1,0,-.2Z" class="g8_12"/>
<path d="M127.3,670.6q-.1,-.2,0,-.2c.2,.1,.2,.2,.1,.2q0,.1,-.1,0Z" class="g8_12"/>
<path d="M126,670.6c-.1,-.1,.5,-.9,.7,-.9c.3,0,.3,.2,.1,.3c-.2,0,-.4,.2,-.5,.4c-.1,.3,-.2,.3,-.3,.2Z" class="g8_12"/>
<path d="M127.6,670.1c-.1,-.2,-.1,-.3,-.1,-.4c.1,-.1,.4,.5,.3,.6q0,.1,-.2,-.2Z" class="g8_12"/>
<path d="M138,669.2c0,-.1,.2,-.4,.3,-.4c.1,-.1,.1,-.2,.2,-.3c.1,-.5,1,-1.9,2,-3.3c.1,-.3,.1,-.4,0,-.5c-.1,-.1,-.1,-.2,.1,-.3c.1,-.1,.2,-.1,.3,-.1c.2,.1,0,.8,-.2,1c-.3,.2,-1.4,1.9,-1.7,2.4c-.6,1.2,-.9,1.7,-1,1.5Z" class="g8_12"/>
<path d="M127.9,669.7q-.1,-.1,0,-.1c0,0,.1,0,.1,0q0,.1,0,.2c0,0,-.1,0,-.1,-.1Z" class="g8_12"/>
<path d="M127.5,669.1c0,-.1,0,-.2,0,-.3c0,-.1,0,0,.1,.2c.1,.1,.2,.2,.1,.2c0,0,-.1,0,-.2,-.1Z" class="g8_12"/>
<path d="M127.7,668.3c-.1,-.1,0,-.4,.1,-.3c.1,0,.1,.1,0,.2c0,.1,-.1,.2,-.1,.1Z" class="g8_12"/>
<path d="M128,667.5c0,-.1,.1,-.3,.3,-.4c.1,-.1,.2,-.3,.2,-.4c.1,0,.1,-.1,.2,-.1c.1,0,0,.2,-.4,.7c-.2,.3,-.3,.3,-.3,.2Z" class="g8_12"/>
<path d="M129,666.2c.3,-.3,.8,-.8,.8,-.8c.1,0,-.4,.6,-.7,.9l-.2,.2Z" class="g8_12"/>
<path d="M132.6,665.4c-.1,-.1,-.2,-.4,0,-.5c.1,0,.3,.4,.2,.5c0,0,-.1,0,-.2,0Z" class="g8_12"/>
<path d="M136.3,664.9c.1,-.1,.2,-.2,.3,-.2l-.1,.2c-.1,.1,-.2,.2,-.3,.2c0,0,0,-.1,.1,-.2Z" class="g8_12"/>
<path d="M130.6,664.8c.1,-.1,.2,-.2,.3,-.2c.1,0,-.2,.4,-.4,.4c-.1,0,0,-.1,.1,-.2Z" class="g8_12"/>
<path d="M140.7,663.9c-.1,0,0,-.1,.1,-.1c.2,-.1,.4,-.1,.4,0c0,.1,-.4,.2,-.5,.1Z" class="g8_12"/>
<path d="M131.3,664.1c.2,-.3,.5,-.5,.6,-.3c.1,.1,-.2,.3,-.7,.6c0,0,0,-.1,.1,-.3Z" class="g8_12"/>
<path d="M141.6,662.7c0,0,.1,-.1,.1,-.2c.1,-.1,.2,-.2,.2,-.2c0,.1,0,.2,-.1,.3c-.1,.1,-.1,.2,-.2,.1Z" class="g8_12"/>
<path d="M142.2,661.8c.2,-.5,.8,-1.1,2.4,-2.3c.8,-.7,2.6,-1.7,3.6,-2c1,-.3,1.1,-.4,1.1,-.6c-.2,-.2,.7,-.4,.9,-.2c.2,.1,.1,.3,-.1,.3c-.1,0,-.5,.1,-.8,.3c-.4,.1,-1,.4,-1.3,.5c-1.1,.4,-1.9,.8,-2.4,1.2c-.2,.2,-.5,.3,-.6,.4c-.1,0,-.4,.2,-.5,.4c-.2,.2,-.4,.3,-.4,.3c0,0,-.2,.1,-.4,.3c-1.1,1,-1.3,1.3,-1.3,1.5c0,.1,-.1,.2,-.2,.2c-.1,0,-.1,-.1,0,-.3Z" class="g8_12"/>
<path d="M133,662.8q0,-.1,.1,-.1c0,0,.1,0,0,.1c0,0,0,.1,-.1,.1c0,0,0,-.1,0,-.1Z" class="g8_12"/>
<path d="M142.3,658.8c0,0,0,-.1,.1,-.1c.1,-.1,.2,-.1,.2,-.1c0,0,0,.1,-.1,.2c-.1,0,-.2,.1,-.2,0Z" class="g8_12"/>
<path d="M143,658.1c.1,-.2,.5,-.3,.5,-.2c.1,.1,-.3,.3,-.5,.4c-.2,.1,-.2,0,0,-.2Z" class="g8_12"/>
<path d="M144.6,657.5c.1,0,.2,-.1,.3,-.1q.1,0,0,.1c-.1,0,-.2,.1,-.3,.1q-.1,0,0,-.1Z" class="g8_12"/>
<path d="M145.2,657.4c0,-.1,.4,-.2,.9,-.2c.6,-.1,.9,-.1,.9,0c0,0,-.4,.1,-.9,.2c-.6,0,-.9,0,-.9,0Z" class="g8_12"/>
<path d="M147.1,657.1c.1,0,.4,-.1,.9,-.1c.5,-.1,.7,-.1,.6,0c-.3,.1,-1.5,.2,-1.5,.1Z" class="g8_12"/>
<path d="M125.8,690.9c0,0,0,-.3,0,-.7c0,-.4,0,-.7,0,-.7c0,-.1,0,-.9,0,-1q.1,-.1,.5,0c.9,.5,1.2,.3,1,-.7c-.1,-1,.1,-1.1,.3,-.1c.1,.7,.1,.8,-.2,1c-.6,.5,-1.5,2,-1.4,2.2c.1,0,0,0,-.1,.1c0,0,-.1,0,-.1,-.1Z" class="g9_12"/>
<path d="M127.3,686.9c0,-.1,0,-.7,.1,-.8c.1,-.1,.1,0,.1,.4c-.1,.4,-.1,.5,-.2,.4Z" class="g9_12"/>
<path d="M127.3,685.6c0,0,0,-.2,0,-.5c0,-.3,.1,-.8,.1,-1.1c.1,-1,.5,-3.2,.7,-3.2c0,0,0,.1,0,.3c0,.1,-.1,.4,-.1,.5c0,.1,-.1,.4,-.1,.6c-.2,.7,-.3,2.1,-.1,2.2c0,.1,0,.2,-.1,.2c0,0,-.1,.3,-.2,.5c0,.5,-.1,.7,-.2,.5Z" class="g9_12"/>
<path d="M126.2,685.3c0,0,0,-.1,.1,-.2c0,0,0,-.2,0,-.3c-.1,-.2,.2,-.6,.3,-.5c0,.1,-.2,1.1,-.3,1.1l-.1,-.1Z" class="g9_12"/>
<path d="M125.9,684.2c-.1,-.1,-.1,-.2,0,-.3c0,0,.1,.1,.1,.2c.1,.1,.1,.2,.1,.2c-.1,0,-.2,-.1,-.2,-.1Z" class="g9_12"/>
<path d="M126.5,684c0,0,0,-.4,.2,-.8c.1,-.4,.2,-1,.3,-1.4c.1,-.4,.2,-.7,.3,-.8c.1,-.1,.1,0,0,.3c0,.3,-.1,.5,-.1,.6c-.1,.8,-.6,2.3,-.7,2.1Z" class="g9_12"/>
<path d="M129,683.6c0,0,0,-.1,.1,-.1q.2,-.1,.2,0c-.1,.2,-.4,.2,-.3,.1Z" class="g9_12"/>
<path d="M125.6,683.6c0,-.1,0,-.2,.1,-.2c0,.1,.1,.1,.1,.2q0,.2,-.2,0Z" class="g9_12"/>
<path d="M129.5,683.1c0,0,.2,-.2,.4,-.4c.2,-.1,.5,-.4,.5,-.5c.2,-.3,.4,-.4,.4,-.2c0,.1,-1,1.1,-1.2,1.2q-.1,0,-.1,-.1Z" class="g9_12"/>
<path d="M125.4,682.9c-.1,-.1,-.1,-.3,-.1,-.4q0,-.1,.1,.1c0,.1,.1,.3,.1,.3q0,.2,-.1,0Z" class="g9_12"/>
<path d="M131.2,681.3c.2,-.3,1,-1.2,1.1,-1.4q.1,0,.1,0c.1,.1,0,.2,-.2,.4c-.1,.1,-.4,.5,-.6,.8c-.5,.6,-.8,.8,-.4,.2Z" class="g9_12"/>
<path d="M124.8,680.9c0,-.1,0,-.2,0,-.2q.1,0,.2,.1c0,0,0,.1,0,.2q-.1,0,-.2,-.1Z" class="g9_12"/>
<path d="M128.1,680.6c0,-.5,1.5,-4,2.7,-6.2c.2,-.4,.5,-.9,.5,-1.1c0,-.3,.2,-.5,.3,-.3c.1,.1,-.2,.8,-1.3,2.8c-.5,1,-1,2.1,-1.2,2.5c-.2,.6,-.6,1.5,-.9,2.1c-.1,.2,-.1,.3,-.1,.2Z" class="g9_12"/>
<path d="M127.5,680.3c0,0,0,-.1,.1,-.1c0,0,.1,0,.1,0q0,.1,0,.1q-.1,0,-.2,0Z" class="g9_12"/>
<path d="M132.5,679.7c0,-.3,.6,-1.2,.7,-1.2c.1,.1,-.6,1.3,-.7,1.4c0,0,0,-.1,0,-.2Z" class="g9_12"/>
<path d="M124.8,680.2c-.1,0,-.1,-.2,-.1,-.3c.1,-.2,.2,0,.2,.3c0,.1,-.1,.1,-.1,0Z" class="g9_12"/>
<path d="M127.6,679.7c0,0,0,-.1,.1,-.1q.1,0,.1,0c.1,.2,-.1,.2,-.2,.1Z" class="g9_12"/>
<path d="M124.7,679.6c0,-.1,0,-.3,0,-.3c.1,-.2,.1,0,.1,.3v.2Z" class="g9_12"/>
<path d="M127.9,679.3c-.1,0,.3,-.7,.4,-.6c0,0,-.1,.1,-.2,.3c-.1,.3,-.2,.4,-.2,.3Z" class="g9_12"/>
<path d="M133.2,678.3c0,-.1,0,-.3,-.1,-.4c-.1,-.1,0,-.1,.1,-.2c.4,0,.5,.1,.2,.5q-.1,.2,-.2,.1Z" class="g9_12"/>
<path d="M128.3,678.5c0,-.1,.2,-.6,.5,-1.1c.3,-.6,.4,-.8,.3,-.5c-.2,.5,-.9,1.9,-.8,1.6Z" class="g9_12"/>
<path d="M124.6,678.4c0,-.2,.1,-.9,.1,-.8c.1,0,.1,.4,0,.7c0,.1,-.1,.2,-.1,.1Z" class="g9_12"/>
<path d="M134,677.4c-.3,0,-.6,0,-.7,-.1q-.2,-.1,.1,0c.1,0,.5,0,.9,0c.5,0,.6,-.1,1,-.3c.3,-.2,.5,-.5,.6,-.7c.2,-.4,.2,-.3,.1,.2c-.1,.3,-.3,.5,-.7,.7c-.5,.2,-.6,.2,-1.3,.2Z" class="g9_12"/>
<path d="M132.4,677.1c-.4,0,-.4,-.1,-.1,-.1c.2,0,.3,.1,.3,.1q.1,.1,.1,.1c-.1,0,-.2,0,-.3,-.1Z" class="g9_12"/>
<path d="M127,677.4c-.3,-.2,-.5,-.6,-.4,-.7c.1,0,0,-.1,-.1,-.3c-.3,-.6,-1,-2.2,-1,-2.3c0,-.1,.1,0,.3,.4c.1,.4,.6,1.2,1,1.8c.3,.7,.6,1.2,.6,1.2c-.1,0,-.2,-.1,-.4,-.1Z" class="g9_12"/>
<path d="M124.7,677.1c-.1,-.1,0,-.8,.2,-.9c0,-.1,0,.1,0,.2c0,.5,-.1,.8,-.2,.7Z" class="g9_12"/>
<path d="M136.1,675.6c0,-.1,.1,-.2,.1,-.3q.1,-.1,.1,.1c0,.1,-.1,.2,-.1,.3q-.1,.1,-.1,-.1Z" class="g9_12"/>
<path d="M126.2,676.4q-.1,-.1,0,-.1c0,.1,.1,.2,.1,.2c0,.1,-.1,.1,-.1,-.1Z" class="g9_12"/>
<path d="M129.3,676.1c.1,-.2,.2,-.3,.2,-.3c.1,.1,0,.3,-.1,.4q-.2,.1,-.1,-.1Z" class="g9_12"/>
<path d="M129.8,675.1c.1,-.3,.3,-.5,.3,-.6c0,0,.2,-.4,.5,-.9c.2,-.5,.6,-1.2,.7,-1.4c.2,-.2,.5,-.8,.8,-1.2c.4,-.7,.6,-.9,.7,-.8c0,.1,-.2,.4,-1,1.5c-.2,.4,-.5,.9,-.7,1.2c-.1,.2,-.3,.7,-.5,1.1c-.2,.4,-.5,1,-.6,1.2c-.3,.7,-.5,.6,-.2,-.1Z" class="g9_12"/>
<path d="M124.9,676c0,-.1,0,-.2,.1,-.3c0,-.2,.1,-.4,.1,-.5c0,-.4,.3,-.2,.4,.2q0,.2,0,.2c-.1,-.2,-.4,-.2,-.4,-.1c.1,.1,-.1,.6,-.2,.5Z" class="g9_12"/>
<path d="M136.3,675c0,-.1,.1,-.2,.1,-.4q.1,-.3,.1,.1c0,.2,-.1,.4,-.2,.3Z" class="g9_12"/>
<path d="M136.5,673.7c0,-.1,0,-.2,.1,-.2c0,-.1,.1,0,0,.1c0,.1,0,.2,0,.2c-.1,.1,-.1,0,-.1,-.1Z" class="g9_12"/>
<path d="M136.7,673.2c-.1,-.2,.1,-.6,.3,-1c.2,-.1,.2,-.3,.2,-.4c-.1,-.1,-.3,-.1,-.7,0c-.7,.1,-.8,0,-.1,-.2c.4,0,.8,-.1,.9,-.1c.3,-.1,.3,.1,-.1,.9c-.3,.5,-.5,.8,-.5,.8Z" class="g9_12"/>
<path d="M129.5,673c-.1,0,-.3,-.2,-.5,-.3c-.3,-.2,-.7,-.8,-.5,-.8c.1,0,.2,.1,.2,.2c.1,.1,.3,.2,.4,.3c.2,.1,.4,.2,.6,.5c.3,.3,.2,.4,-.2,.1Z" class="g9_12"/>
<path d="M125.3,673.1c0,-.2,0,-.4,0,-.5c.1,-.4,.6,-1.7,.7,-1.7c.1,-.1,.1,.1,-.2,.8c-.1,.4,-.3,1,-.3,1.2q-.1,.4,-.2,.2Z" class="g9_12"/>
<path d="M135.4,671.7c-.2,-.1,-.3,-.1,-.3,-.2c-.1,-.1,.7,-.5,1,-.5c.3,0,.2,.1,-.2,.2c-.5,.2,-.6,.3,-.4,.4q.2,.1,-.1,.1Z" class="g9_12"/>
<path d="M128.8,671.6c-.1,0,-.1,-.2,-.2,-.4q0,-.2,.1,0c0,.1,.1,.3,.1,.4q.1,.2,0,0Z" class="g9_12"/>
<path d="M136.9,670.8c.1,0,.2,0,.3,0c.1,.1,0,.1,-.2,.1q-.3,0,-.1,-.1Z" class="g9_12"/>
<path d="M137.5,670.5c.1,-.2,.2,-.3,.2,-.3c.1,0,-.1,.5,-.2,.6c0,0,0,-.1,0,-.3Z" class="g9_12"/>
<path d="M128.4,670.7c-.1,-.1,-.2,-.2,-.1,-.3q0,-.1,.1,.1c.2,.3,.2,.4,0,.2Z" class="g9_12"/>
<path d="M137.9,669.7c0,-.1,.1,-.2,.1,-.2c.1,0,0,.4,-.1,.4c-.1,0,-.1,-.1,0,-.2Z" class="g9_12"/>
<path d="M127.3,670.6q-.1,-.2,0,-.2c.2,.1,.2,.2,.1,.2q0,.1,-.1,0Z" class="g9_12"/>
<path d="M126,670.6c-.1,-.1,.5,-.9,.7,-.9c.3,0,.3,.2,.1,.3c-.2,0,-.4,.2,-.5,.4c-.1,.3,-.2,.3,-.3,.2Z" class="g9_12"/>
<path d="M127.6,670.1c-.1,-.2,-.1,-.3,-.1,-.4c.1,-.1,.4,.5,.3,.6q0,.1,-.2,-.2Z" class="g9_12"/>
<path d="M133,669.6c.1,-.2,.2,-.4,.3,-.3c.1,0,-.3,.6,-.4,.6c-.1,0,0,-.1,.1,-.3Z" class="g9_12"/>
<path d="M138,669.2c0,-.1,.2,-.4,.3,-.4c.1,-.1,.1,-.2,.2,-.3c.1,-.5,1,-1.9,2,-3.3c.1,-.3,.1,-.4,0,-.5c-.1,-.1,-.1,-.2,.1,-.3c.1,-.1,.2,-.1,.3,-.1c.2,.1,0,.8,-.2,1c-.3,.2,-1.4,1.9,-1.7,2.4c-.6,1.2,-.9,1.7,-1,1.5Z" class="g9_12"/>
<path d="M127.9,669.7q-.1,-.1,0,-.1c0,0,.1,0,.1,0q0,.1,0,.2c0,0,-.1,0,-.1,-.1Z" class="g9_12"/>
<path d="M133.4,669.1c0,-.1,.5,-1,.8,-1.4c.1,-.2,.3,-.5,.4,-.6c.2,-.4,.8,-1.1,.9,-1c0,0,0,.1,-.1,.2c-.1,.1,-.3,.3,-.3,.4c-.1,0,-.3,.4,-.5,.7c-.3,.3,-.6,.8,-.7,1c-.3,.6,-.4,.8,-.5,.7Z" class="g9_12"/>
<path d="M127.5,669.1c0,-.1,0,-.2,0,-.3c0,-.1,0,0,.1,.2c.1,.1,.2,.2,.1,.2c0,0,-.1,0,-.2,-.1Z" class="g9_12"/>
<path d="M127.7,668.3c-.1,-.1,0,-.4,.1,-.3c.1,0,.1,.1,0,.2c0,.1,-.1,.2,-.1,.1Z" class="g9_12"/>
<path d="M128,667.5c0,-.1,.1,-.3,.3,-.4c.1,-.1,.2,-.3,.2,-.4c.1,0,.1,-.1,.2,-.1c.1,0,0,.2,-.4,.7c-.2,.3,-.3,.3,-.3,.2Z" class="g9_12"/>
<path d="M129,666.2c.3,-.3,.8,-.8,.8,-.8c.1,0,-.4,.6,-.7,.9l-.2,.2Z" class="g9_12"/>
<path d="M135.9,665.4c.1,-.1,.2,-.2,.2,-.2c0,0,0,.2,-.1,.3l-.2,.2Z" class="g9_12"/>
<path d="M132.6,665.4c-.1,-.1,-.2,-.4,0,-.5c.1,0,.3,.4,.2,.5c0,0,-.1,0,-.2,0Z" class="g9_12"/>
<path d="M130.6,664.8c.1,-.1,.2,-.2,.3,-.2c.1,0,-.2,.4,-.4,.4c-.1,0,0,-.1,.1,-.2Z" class="g9_12"/>
<path d="M140.7,663.9c-.1,0,0,-.1,.1,-.1c.2,-.1,.4,-.1,.4,0c0,.1,-.4,.2,-.5,.1Z" class="g9_12"/>
<path d="M131.3,664.1c.2,-.3,.5,-.5,.6,-.3c.1,.1,-.2,.3,-.7,.6c0,0,0,-.1,.1,-.3Z" class="g9_12"/>
<path d="M141.6,662.7c0,0,.1,-.1,.1,-.2c.1,-.1,.2,-.2,.2,-.2c0,.1,0,.2,-.1,.3c-.1,.1,-.1,.2,-.2,.1Z" class="g9_12"/>
<path d="M142.2,661.8c.2,-.5,.8,-1.1,2.4,-2.3c.8,-.7,2.6,-1.7,3.6,-2c1,-.3,1.1,-.4,1.1,-.6c-.2,-.2,.7,-.4,.9,-.2c.2,.1,.1,.3,-.1,.3c-.1,0,-.5,.1,-.8,.3c-.4,.1,-1,.4,-1.3,.5c-1.1,.4,-1.9,.8,-2.4,1.2c-.2,.2,-.5,.3,-.6,.4c-.1,0,-.4,.2,-.5,.4c-.2,.2,-.4,.3,-.4,.3c0,0,-.2,.1,-.4,.3c-1.1,1,-1.3,1.3,-1.3,1.5c0,.1,-.1,.2,-.2,.2c-.1,0,-.1,-.1,0,-.3Z" class="g9_12"/>
<path d="M133,662.8q0,-.1,.1,-.1c0,0,.1,0,0,.1c0,0,0,.1,-.1,.1c0,0,0,-.1,0,-.1Z" class="g9_12"/>
<path d="M142.3,658.8c0,0,0,-.1,.1,-.1c.1,-.1,.2,-.1,.2,-.1c0,0,0,.1,-.1,.2c-.1,0,-.2,.1,-.2,0Z" class="g9_12"/>
<path d="M143,658.1c.1,-.2,.5,-.3,.5,-.2c.1,.1,-.3,.3,-.5,.4c-.2,.1,-.2,0,0,-.2Z" class="g9_12"/>
<path d="M144.6,657.5c.1,0,.2,-.1,.3,-.1q.1,0,0,.1c-.1,0,-.2,.1,-.3,.1q-.1,0,0,-.1Z" class="g9_12"/>
<path d="M145.2,657.4c0,-.1,.4,-.2,.9,-.2c.6,-.1,.9,-.1,.9,0c0,0,-.4,.1,-.9,.2c-.6,0,-.9,0,-.9,0Z" class="g9_12"/>
<path d="M147.1,657.1c.1,0,.4,-.1,.9,-.1c.5,-.1,.7,-.1,.6,0c-.3,.1,-1.5,.2,-1.5,.1Z" class="g9_12"/>
<path d="M128.2,670.7q-.1,-.2,-.1,-.1c-.1,.1,0,.3,.1,.3c.1,0,.1,-.1,0,-.2Z" class="g4_12"/>
</g>
<path d="M152.7,686H337.8" class="g0_12"/>
<path d="M137.6,694.3V993.7" class="gb_12"/>
</svg>