<?xml version="1.0" encoding="UTF-8" standalone="no"?>
<!DOCTYPE svg PUBLIC "-//W3C//DTD SVG 1.1//EN"
"http://www.w3.org/Graphics/SVG/1.1/DTD/svg11.dtd">
<svg viewBox="0 0 1286 909" version="1.1" xmlns="http://www.w3.org/2000/svg" xmlns:xlink="http://www.w3.org/1999/xlink">
<defs>
<style type="text/css"><![CDATA[
.g0_1260{
fill: none;
stroke: #000000;
stroke-width: 0.73;
stroke-linecap: butt;
stroke-linejoin: miter;
}
.g1_1260{
fill: none;
stroke: #02B5EE;
stroke-width: 1.262;
stroke-linecap: butt;
stroke-linejoin: miter;
}
.g2_1260{
fill: none;
stroke: #5EE200;
stroke-width: 1.262;
stroke-linecap: butt;
stroke-linejoin: miter;
}
.g3_1260{
fill: none;
stroke: #FFA313;
stroke-width: 1.262;
stroke-linecap: butt;
stroke-linejoin: miter;
}
]]></style>
</defs>
<path d="M193,83.4h900.3M193,111.6h819.9m-819.9,0h819.9M581,141.2V112m0,114.3V141.2" class="g0_1260"/>
<path d="M757.1,202.3h82.8" class="g1_1260"/>
<path d="M850.4,202.3h22.2" class="g2_1260"/>
<path d="M581,255.5V226.3m0,58.4V255.5m0,114.2v-85" class="g0_1260"/>
<path d="M729.8,345.7h36.1" class="g1_1260"/>
<path d="M581,399V369.7m0,58.5V399m0,114.2v-85" class="g0_1260"/>
<path d="M737.8,489.2H838.3" class="g1_1260"/>
<path d="M848.8,489.2H871" class="g2_1260"/>
<path d="M581,542.4V513.2m0,58.5V542.4m0,114.3v-85" class="g0_1260"/>
<path d="M734.5,632.7h34.7" class="g1_1260"/>
<path d="M779.7,632.7h222.2" class="g3_1260"/>
<path d="M581,685.9V656.7m0,58.4V685.9m0,58.5V715.1M193,744.7h819.9m-819.9,0h819.9" class="g0_1260"/>
</svg>