<?xml version="1.0" encoding="UTF-8" standalone="no"?>
<!DOCTYPE svg PUBLIC "-//W3C//DTD SVG 1.1//EN"
"http://www.w3.org/Graphics/SVG/1.1/DTD/svg11.dtd">
<svg viewBox="0 0 1286 909" version="1.1" xmlns="http://www.w3.org/2000/svg" xmlns:xlink="http://www.w3.org/1999/xlink">
<defs>
<style type="text/css"><![CDATA[
.g0_67{
fill: none;
stroke: #000000;
stroke-width: 0.73;
stroke-linecap: butt;
stroke-linejoin: miter;
}
.g1_67{
fill: #B3E9FA;
}
.g2_67{
fill: none;
stroke: #02B5EE;
stroke-width: 1.262;
stroke-linecap: butt;
stroke-linejoin: miter;
}
.g3_67{
fill: none;
stroke: #5EE200;
stroke-width: 1.262;
stroke-linecap: butt;
stroke-linejoin: miter;
}
]]></style>
</defs>
<path d="M193,83.4h900.3M193,210.6h892.5m-892.5,0h892.5M637,240.2V211m0,58.5V240.2m0,114.3v-85" class="g0_67"/>
<path d="M862.5,304.7V292.5c0,-2.9,2.3,-5.2,5.2,-5.2h61.5c2.8,0,5.2,2.3,5.2,5.2v12.2c0,2.9,-2.4,5.2,-5.2,5.2H867.7c-2.9,0,-5.2,-2.3,-5.2,-5.2Z" class="g1_67"/>
<path d="M859.9,330.5H937" class="g2_67"/>
<path d="M947.5,330.5h127.1" class="g3_67"/>
<path d="M637,383.7V354.5m0,58.4V383.7M637,498V412.9" class="g0_67"/>
<path d="M918.3,448.2v-5c0,-2.9,2.3,-5.2,5.2,-5.2h68c2.9,0,5.2,2.3,5.2,5.2v5c0,2.8,-2.3,5.2,-5.2,5.2h-68c-2.9,0,-5.2,-2.4,-5.2,-5.2Z" class="g1_67"/>
<path d="M915.7,474h83.6" class="g2_67"/>
<path d="M1009.8,474h64.8" class="g3_67"/>
<path d="M637,527.2V498m0,58.4V527.2m0,114.2v-85" class="g0_67"/>
<path d="M813.1,591.6V579.4c0,-2.8,2.3,-5.2,5.2,-5.2h40.4c2.9,0,5.2,2.4,5.2,5.2v12.2c0,2.9,-2.3,5.2,-5.2,5.2H818.3c-2.9,0,-5.2,-2.3,-5.2,-5.2Z" class="g1_67"/>
<path d="M810.5,617.4h56" class="g2_67"/>
<path d="M877,617.4h197.6" class="g3_67"/>
<path d="M637,670.6V641.4m0,58.5V670.6m0,58.5V699.9M193,729.5h892.5m-892.5,0h892.5" class="g0_67"/>
</svg>