<?xml version="1.0" encoding="UTF-8" standalone="no"?>
<!DOCTYPE svg PUBLIC "-//W3C//DTD SVG 1.1//EN"
"http://www.w3.org/Graphics/SVG/1.1/DTD/svg11.dtd">
<svg viewBox="0 0 909 1286" version="1.1" xmlns="http://www.w3.org/2000/svg" xmlns:xlink="http://www.w3.org/1999/xlink">
<defs>
<style type="text/css"><![CDATA[
.g0_8{
fill: none;
stroke: #000000;
stroke-width: 0.73;
stroke-linecap: butt;
stroke-linejoin: miter;
}
.g1_8{
fill: #FDE8E9;
}
]]></style>
</defs>
<path d="M116.9,159.9H792.5" class="g0_8"/>
<path d="M167.6,210.3h61.6V182.5H167.6v27.8Z" class="g1_8"/>
<path d="M116.9,283.8h78.6V256H116.9v27.8Z" class="g1_8"/>
<path d="M252.1,386.1h44.7V358.3H252.1v27.8Z" class="g1_8"/>
<path d="M235.2,503h44.7V475.2H235.2V503Z" class="g1_8"/>
<path d="M167.6,532.7H279.9V504.9H167.6v27.8Z" class="g1_8"/>
<path d="M589.8,708h61.7V680.2H589.8V708Z" class="g1_8"/>
<path d="M420.9,737.7H533.2V709.9H420.9v27.8Z" class="g1_8"/>
<path d="M439.7,782H670.2V754.2H439.7V782Z" class="g1_8"/>
<path d="M522.3,884.3H651.5V856.4H522.3v27.9Z" class="g1_8"/>
<path d="M522.3,914H651.5V886.1H522.3V914Z" class="g1_8"/>
<path d="M471.6,943.6h163V915.8h-163v27.8Z" class="g1_8"/>
<path d="M342.6,973.3H444.1V945.5H342.6v27.8Z" class="g1_8"/>
<path d="M556.1,1003H668.3V975.1H556.1V1003Z" class="g1_8"/>
</svg>