<?xml version="1.0" encoding="UTF-8" standalone="no"?>
<!DOCTYPE svg PUBLIC "-//W3C//DTD SVG 1.1//EN"
"http://www.w3.org/Graphics/SVG/1.1/DTD/svg11.dtd">
<svg viewBox="0 0 1286 909" version="1.1" xmlns="http://www.w3.org/2000/svg" xmlns:xlink="http://www.w3.org/1999/xlink">
<defs>
<style type="text/css"><![CDATA[
.g0_116{
fill: none;
stroke: #000000;
stroke-width: 0.73;
stroke-linecap: butt;
stroke-linejoin: miter;
}
.g1_116{
fill: none;
stroke: #02B5EE;
stroke-width: 1.262;
stroke-linecap: butt;
stroke-linejoin: miter;
}
.g2_116{
fill: none;
stroke: #5EE200;
stroke-width: 1.262;
stroke-linecap: butt;
stroke-linejoin: miter;
}
.g3_116{
fill: none;
stroke: #5EE200;
stroke-width: 0.73;
stroke-linecap: butt;
stroke-linejoin: miter;
}
.g4_116{
fill: none;
stroke: #02B5EE;
stroke-width: 0.73;
stroke-linecap: butt;
stroke-linejoin: miter;
}
]]></style>
</defs>
<path d="M193,83.4h900.3M193,210.6H924.7m-731.7,0H924.7M523,240.2V211m0,58.5V240.2m0,114.3v-85" class="g0_116"/>
<path d="M630.4,330.5H666" class="g1_116"/>
<path d="M676.5,330.5H699m10.5,0H913.7" class="g2_116"/>
<path d="M523,383.7V354.5m0,102.3V383.7" class="g0_116"/>
<path d="M794.9,442.9h34.4m0,0h33.8" class="g3_116"/>
<path d="M863.1,442.9h50.6" class="g4_116"/>
<path d="M523,486V456.8m0,58.4V486m0,114.2v-85" class="g0_116"/>
<path d="M534,576.2h35.6" class="g1_116"/>
<path d="M580.1,576.2H784.4" class="g2_116"/>
<path d="M523,629.5V600.2m0,102.3v-73" class="g0_116"/>
<path d="M829.3,688.6h33.8" class="g3_116"/>
<path d="M863.1,688.6h50.6" class="g4_116"/>
<path d="M523,731.7V702.5M193,732.1H924.7m-731.7,0H924.7" class="g0_116"/>
</svg>