<?xml version="1.0" encoding="UTF-8" standalone="no"?>
<!DOCTYPE svg PUBLIC "-//W3C//DTD SVG 1.1//EN"
"http://www.w3.org/Graphics/SVG/1.1/DTD/svg11.dtd">
<svg viewBox="0 0 1286 909" version="1.1" xmlns="http://www.w3.org/2000/svg" xmlns:xlink="http://www.w3.org/1999/xlink">
<defs>
<style type="text/css"><![CDATA[
.g0_184{
fill: none;
stroke: #000000;
stroke-width: 0.73;
stroke-linecap: butt;
stroke-linejoin: miter;
}
.g1_184{
fill: none;
stroke: #02B5EE;
stroke-width: 1.262;
stroke-linecap: butt;
stroke-linejoin: miter;
}
.g2_184{
fill: none;
stroke: #5EE200;
stroke-width: 1.262;
stroke-linecap: butt;
stroke-linejoin: miter;
}
.g3_184{
fill: none;
stroke: #5EE200;
stroke-width: 0.73;
stroke-linecap: butt;
stroke-linejoin: miter;
}
.g4_184{
fill: none;
stroke: #02B5EE;
stroke-width: 0.73;
stroke-linecap: butt;
stroke-linejoin: miter;
}
]]></style>
</defs>
<path d="M193,83.4h900.3M193,210.6H764.3m-571.3,0H764.3M454.6,240.2V211m0,58.5V240.2m0,114.3v-85" class="g0_184"/>
<path d="M469.1,330.5H539" class="g1_184"/>
<path d="M549.6,330.5H572" class="g2_184"/>
<path d="M454.6,383.7V354.5m0,102.3V383.7" class="g0_184"/>
<path d="M465.6,442.9H500" class="g3_184"/>
<path d="M668.9,442.9h84.5" class="g4_184"/>
<path d="M454.6,486V456.8m0,58.4V486m0,114.2v-85" class="g0_184"/>
<path d="M473.6,576.2H539" class="g1_184"/>
<path d="M549.6,576.2H572" class="g2_184"/>
<path d="M454.6,629.5V600.2m0,102.3v-73" class="g0_184"/>
<path d="M516.3,688.6h34.4" class="g3_184"/>
<path d="M719.6,688.6h33.8" class="g4_184"/>
<path d="M454.6,731.7V702.5M193,732.1H764.3m-571.3,0H764.3" class="g0_184"/>
</svg>