<?xml version="1.0" encoding="UTF-8" standalone="no"?>
<!DOCTYPE svg PUBLIC "-//W3C//DTD SVG 1.1//EN"
"http://www.w3.org/Graphics/SVG/1.1/DTD/svg11.dtd">
<svg viewBox="0 0 909 1286" version="1.1" xmlns="http://www.w3.org/2000/svg" xmlns:xlink="http://www.w3.org/1999/xlink">
<defs>
<clipPath id="c0_31"><path d="M119.5,374.8V341.2H446.9v33.6Z"/></clipPath>
<clipPath id="c1_31"><path d="M460.4,374.8V341.2H787.8v33.6Z"/></clipPath>
<clipPath id="c2_31"><path d="M119.5,821.3V787.8H789.9v33.5Z"/></clipPath>
<style type="text/css"><![CDATA[
.g0_31{
fill: none;
stroke: #000000;
stroke-width: 0.73;
stroke-linecap: butt;
stroke-linejoin: miter;
}
.g1_31{
fill: #E81A58;
}
.g2_31{
fill: #401A1A;
}
.g3_31{
fill: #7F7F7F;
fill-opacity: 0.01;
}
.g4_31{
fill: #7F7F7F;
fill-opacity: 0.02;
}
.g5_31{
fill: #7F7F7F;
fill-opacity: 0.04;
}
.g6_31{
fill: #7F7F7F;
fill-opacity: 0.07;
}
.g7_31{
fill: #7F7F7F;
fill-opacity: 0.11;
}
.g8_31{
fill: #FFFFFF;
}
.g9_31{
fill: #7F7F7F;
}
.ga_31{
fill: #00AEEF;
}
.gb_31{
fill: #CBCEFB;
}
.gc_31{
fill: #EC008C;
}
]]></style>
</defs>
<path d="M116.9,159.9H792.5" class="g0_31"/>
<path d="M116.9,274.4V179.5H792.5v55.7c0,21.6,-17.5,39.2,-39.1,39.2Z" class="g1_31"/>
<path d="M119.5,271.8V179.5H789.9v55.7c0,20.2,-16.3,36.6,-36.5,36.6Z" class="g2_31"/>
<path d="M122.2,343.9c107.4,0,214.7,0,322,0v437c-107.3,-9.4,-214.6,-9.4,-322,0Z" class="g3_31"/>
<path d="M122.9,344.6c106.9,0,213.8,0,320.7,0V780.3c-106.9,-9.4,-213.8,-9.4,-320.7,0Z" class="g4_31"/>
<path d="M123.5,345.2c106.5,0,213,0,319.5,0V779.6c-106.5,-9.3,-213,-9.3,-319.5,0Z" class="g5_31"/>
<path d="M124.1,345.8c106.1,0,212.2,0,318.3,0V779c-106.1,-9.3,-212.2,-9.3,-318.3,0Z" class="g6_31"/>
<path d="M124.7,346.4c105.7,0,211.4,0,317,0v432c-105.6,-9.4,-211.3,-9.4,-317,0Z" class="g7_31"/>
<path d="M125.4,347.1c105.2,0,210.5,0,315.7,0V777.8c-105.2,-9.4,-210.5,-9.4,-315.7,0Z" class="g7_31"/>
<path d="M126,347.7c104.8,0,209.7,0,314.5,0V777.1c-104.8,-9.3,-209.7,-9.3,-314.5,0Z" class="g6_31"/>
<path d="M126.6,348.3c104.4,0,208.8,0,313.3,0V776.5c-104.5,-9.3,-208.9,-9.3,-313.3,0Z" class="g5_31"/>
<path d="M127.2,348.9c104,0,208,0,312,0v427c-104,-9.4,-208,-9.4,-312,0Z" class="g4_31"/>
<path d="M127.9,349.6c103.5,0,207.1,0,310.7,0V775.3c-103.6,-9.4,-207.2,-9.4,-310.7,0Z" class="g3_31"/>
<path d="M116.9,770.6v-432H449.5v432Z" class="g8_31"/>
<path d="M119.5,768V377.4H446.9V768Z" class="g8_31"/>
<path d="M119.5,374.8V341.2H446.9v33.6Z" class="g9_31"/>
<g clip-path="url(#c0_31)">
<image x="119" y="340" width="329" height="35" xlink:href="shade/1.png"/>
</g>
<path d="M316.9,369.6h104V346.4h-104v23.2Z" class="ga_31"/>
<path d="M180.9,422.5H385.6M181.3,452.1V422.9" class="g0_31"/>
<path d="M181.6,452.1h62.1V422.9H181.6v29.2Z" class="gb_31"/>
<path d="M244,452.1V422.9" class="g0_31"/>
<path d="M244.4,452.1h69.8V422.9H244.4v29.2Z" class="gb_31"/>
<path d="M314.6,452.1V422.9" class="g0_31"/>
<path d="M315,452.1h69.8V422.9H315v29.2Z" class="gb_31"/>
<path d="M385.2,452.1V422.9M180.9,452.5H385.6M181.3,482.1V452.9M244,482.1V452.9m70.6,29.2V452.9m70.6,29.2V452.9M180.9,482.5H385.6M181.3,512V482.8M244,512V482.8M314.6,512V482.8M385.2,512V482.8M180.9,512.4H385.6M181.3,542V512.8M244,542V512.8M314.6,542V512.8M385.2,542V512.8M180.9,542.4H385.6M181.3,572V542.7M244,572V542.7M314.6,572V542.7M385.2,572V542.7M180.9,572.3H385.6M181.3,601.9V572.7M244,601.9V572.7m70.6,29.2V572.7m70.6,29.2V572.7M180.9,602.3H385.6M181.3,631.9V602.6M244,631.9V602.6m70.6,29.3V602.6m70.6,29.3V602.6M180.9,632.2H385.6M181.3,661.8V632.6M244,661.8V632.6m70.6,29.2V632.6m70.6,29.2V632.6M180.9,662.2H385.6M181.3,691.8V662.5M244,691.8V662.5m70.6,29.3V662.5m70.6,29.3V662.5M180.9,692.1H385.6M181.3,721.7V692.5M244,721.7V692.5m70.6,29.2V692.5m70.6,29.2V692.5M180.9,722.1H385.6M181.3,751.7V722.5M244,751.7V722.5m70.6,29.2V722.5m70.6,29.2V722.5M180.9,752H385.6" class="g0_31"/>
<path d="M463.1,343.9c107.3,0,214.6,0,322,0V635.3c-107.4,-9.3,-214.7,-9.3,-322,0Z" class="g3_31"/>
<path d="M463.7,344.6c106.9,0,213.8,0,320.7,0V634.7c-106.9,-9.4,-213.8,-9.4,-320.7,0Z" class="g4_31"/>
<path d="M464.3,345.2c106.5,0,213,0,319.5,0V634.1c-106.5,-9.4,-213,-9.4,-319.5,0Z" class="g5_31"/>
<path d="M464.9,345.8c106.1,0,212.2,0,318.3,0V633.4c-106.1,-9.3,-212.2,-9.3,-318.3,0Z" class="g6_31"/>
<path d="M465.6,346.4c105.6,0,211.3,0,317,0V632.8c-105.7,-9.3,-211.4,-9.3,-317,0Z" class="g7_31"/>
<path d="M466.2,347.1c105.2,0,210.5,0,315.7,0V632.2c-105.2,-9.4,-210.5,-9.4,-315.7,0Z" class="g7_31"/>
<path d="M466.8,347.7c104.8,0,209.7,0,314.5,0V631.6c-104.8,-9.4,-209.7,-9.4,-314.5,0Z" class="g6_31"/>
<path d="M467.4,348.3c104.5,0,208.9,0,313.3,0V631c-104.4,-9.4,-208.8,-9.4,-313.3,0Z" class="g5_31"/>
<path d="M468.1,348.9c104,0,208,0,312,0V630.3c-104,-9.3,-208,-9.3,-312,0Z" class="g4_31"/>
<path d="M468.7,349.6c103.6,0,207.2,0,310.7,0V629.7c-103.5,-9.3,-207.1,-9.3,-310.7,0Z" class="g3_31"/>
<path d="M457.8,625V338.6H790.4V625Z" class="g8_31"/>
<path d="M460.4,622.4v-245H787.8v245Z" class="g8_31"/>
<path d="M460.4,374.8V341.2H787.8v33.6Z" class="g9_31"/>
<g clip-path="url(#c1_31)">
<image x="460" y="340" width="329" height="35" xlink:href="shade/2.png"/>
</g>
<path d="M657.8,369.6h104V346.4h-104v23.2Z" class="ga_31"/>
<path d="M536.1,426.7H712M536.5,456.3V427.1" class="g0_31"/>
<path d="M536.9,456.3h62V427.1h-62v29.2Z" class="gb_31"/>
<path d="M599.2,456.3V427.1" class="g0_31"/>
<path d="M599.6,456.3h60.3V427.1H599.6v29.2Z" class="gb_31"/>
<path d="M660.2,456.3V427.1" class="g0_31"/>
<path d="M660.6,456.3h50.7V427.1H660.6v29.2Z" class="gb_31"/>
<path d="M711.6,456.3V427.1M536.1,456.7H712M536.5,486.3V457.1m62.7,29.2V457.1m61,29.2V457.1m51.4,29.2V457.1M536.1,486.7H712M536.5,516.2V487m62.7,29.2V487m61,29.2V487m51.4,29.2V487M536.1,516.6H712M536.5,546.2V517m62.7,29.2V517m61,29.2V517m51.4,29.2V517M536.1,546.6H712M536.5,576.2V546.9m62.7,29.3V546.9m61,29.3V546.9m51.4,29.3V546.9M536.1,576.5H712M536.5,606.1V576.9m62.7,29.2V576.9m61,29.2V576.9m51.4,29.2V576.9M536.1,606.5H712" class="g0_31"/>
<path d="M122.2,790.5c221.7,0,443.4,0,665,0V988.6c-221.6,-9.4,-443.3,-9.4,-665,0Z" class="g3_31"/>
<path d="M122.9,791.1c221.2,0,442.4,0,663.7,0V987.9c-221.3,-9.3,-442.5,-9.3,-663.7,0Z" class="g4_31"/>
<path d="M123.5,791.8c220.8,0,441.6,0,662.5,0V987.3C565.1,978,344.3,978,123.5,987.3Z" class="g5_31"/>
<path d="M124.1,792.4c220.4,0,440.8,0,661.2,0V986.7c-220.4,-9.4,-440.8,-9.4,-661.2,0Z" class="g6_31"/>
<path d="M124.7,793c220,0,440,0,660,0V986.1c-220,-9.4,-440,-9.4,-660,0Z" class="g7_31"/>
<path d="M125.4,793.6c219.5,0,439.1,0,658.7,0V985.4c-219.6,-9.3,-439.2,-9.3,-658.7,0Z" class="g7_31"/>
<path d="M126,794.3c219.1,0,438.3,0,657.5,0V984.8c-219.2,-9.3,-438.4,-9.3,-657.5,0Z" class="g6_31"/>
<path d="M126.6,794.9c218.8,0,437.5,0,656.3,0V984.2c-218.8,-9.4,-437.5,-9.4,-656.3,0Z" class="g5_31"/>
<path d="M127.2,795.5c218.4,0,436.7,0,655,0V983.6c-218.3,-9.4,-436.6,-9.4,-655,0Z" class="g4_31"/>
<path d="M127.9,796.1c217.9,0,435.8,0,653.7,0V982.9c-217.9,-9.3,-435.8,-9.3,-653.7,0Z" class="g3_31"/>
<path d="M116.9,978.3V785.2H792.5V978.3Z" class="g8_31"/>
<path d="M119.5,975.7V823.9H789.9V975.7Z" class="g8_31"/>
<path d="M119.5,821.3V787.8H789.9v33.5Z" class="g9_31"/>
<g clip-path="url(#c2_31)">
<image x="119" y="787" width="672" height="34" xlink:href="shade/3.png"/>
</g>
<path d="M675.7,816.1h88.2V793H675.7v23.1Z" class="gc_31"/>
<path d="M423,839.9h63.5m-63.1,29.6V840.3" class="g0_31"/>
<path d="M423.7,869.5h62V840.3h-62v29.2Z" class="gb_31"/>
<path d="M486.1,869.5V840.3M423,869.8h63.5m-63.1,29.6V870.2m62.7,29.2V870.2M423,899.8h63.5m-63.1,29.6V900.2m62.7,29.2V900.2M423,929.8h63.5m-63.1,29.5V930.1m62.7,29.2V930.1M423,959.7h63.5" class="g0_31"/>
</svg>