<?xml version="1.0" encoding="UTF-8" standalone="no"?>
<!DOCTYPE svg PUBLIC "-//W3C//DTD SVG 1.1//EN"
"http://www.w3.org/Graphics/SVG/1.1/DTD/svg11.dtd">
<svg viewBox="0 0 1286 909" version="1.1" xmlns="http://www.w3.org/2000/svg" xmlns:xlink="http://www.w3.org/1999/xlink">
<defs>
<style type="text/css"><![CDATA[
.g0_489{
fill: none;
stroke: #000000;
stroke-width: 0.73;
stroke-linecap: butt;
stroke-linejoin: miter;
}
.g1_489{
fill: none;
stroke: #02B5EE;
stroke-width: 1.262;
stroke-linecap: butt;
stroke-linejoin: miter;
}
.g2_489{
fill: none;
stroke: #5EE200;
stroke-width: 1.262;
stroke-linecap: butt;
stroke-linejoin: miter;
}
.g3_489{
fill: #FFCCCC;
}
.g4_489{
fill: none;
stroke: #5EE200;
stroke-width: 0.73;
stroke-linecap: butt;
stroke-linejoin: miter;
}
.g5_489{
fill: none;
stroke: #02B5EE;
stroke-width: 0.73;
stroke-linecap: butt;
stroke-linejoin: miter;
}
]]></style>
</defs>
<path d="M193,83.4h900.3M193,111.6h812.1m-812.1,0h812.1M527.6,141.2V112m0,58.5V141.2m0,114.3v-85" class="g0_489"/>
<path d="M538.5,231.5H600" class="g1_489"/>
<path d="M610.5,231.5H817.2" class="g2_489"/>
<path d="M838.2,219.8h156V186.9h-156v32.9Z" class="g3_489"/>
<path d="M527.6,284.7V255.5m0,102.3V284.7" class="g0_489"/>
<path d="M795.4,343.9h50.7" class="g4_489"/>
<path d="M852.2,334h57.5V301.1H852.2V334Z" class="g3_489"/>
<path d="M909.7,343.9h84.5" class="g5_489"/>
<path d="M527.6,387V357.8m0,58.4V387m0,114.2v-85" class="g0_489"/>
<path d="M819.3,477.3h61.4" class="g1_489"/>
<path d="M901.7,465.5h92.5V432.7H901.7v32.8Z" class="g3_489"/>
<path d="M527.6,530.5V501.2m0,58.5V530.5m0,102.2v-73" class="g0_489"/>
<path d="M822.2,618.9h35.5" class="g5_489"/>
<path d="M863.8,618.9h60.1" class="g4_489"/>
<path d="M936.1,609h58.1V576.1H936.1V609Z" class="g3_489"/>
<path d="M527.6,705.8V632.7" class="g0_489"/>
<path d="M677.2,691.9H846.1" class="g4_489"/>
<path d="M852.2,682.1h57.5V649.2H852.2v32.9Z" class="g3_489"/>
<path d="M909.7,691.9h84.5" class="g5_489"/>
<path d="M527.6,735V705.8M193,735.4h812.1m-812.1,0h812.1" class="g0_489"/>
</svg>