<?xml version="1.0" encoding="UTF-8" standalone="no"?>
<!DOCTYPE svg PUBLIC "-//W3C//DTD SVG 1.1//EN"
"http://www.w3.org/Graphics/SVG/1.1/DTD/svg11.dtd">
<svg viewBox="0 0 909 1286" version="1.1" xmlns="http://www.w3.org/2000/svg" xmlns:xlink="http://www.w3.org/1999/xlink">
<defs>
<style type="text/css"><![CDATA[
.g0_78{
fill: none;
stroke: #000000;
stroke-width: 0.73;
stroke-linecap: butt;
stroke-linejoin: miter;
}
.g1_78{
fill: none;
stroke: #000000;
stroke-width: 1.461;
stroke-linecap: butt;
stroke-linejoin: miter;
}
.g2_78{
}
.g3_78{
fill: #02B5EE;
fill-opacity: 0.25;
stroke: #02B5EE;
stroke-width: 0.73;
stroke-linecap: butt;
stroke-linejoin: miter;
stroke-opacity: 0.25;
}
.g4_78{
fill: #F81693;
fill-opacity: 0.25;
stroke: #F81693;
stroke-width: 0.73;
stroke-linecap: butt;
stroke-linejoin: miter;
stroke-opacity: 0.25;
}
.g5_78{
fill: #5EE200;
fill-opacity: 0.25;
stroke: #5EE200;
stroke-width: 0.73;
stroke-linecap: butt;
stroke-linejoin: miter;
stroke-opacity: 0.25;
}
.g6_78{
fill: #FFF200;
fill-opacity: 0.75;
stroke: #FFF200;
stroke-width: 0.73;
stroke-linecap: butt;
stroke-linejoin: miter;
stroke-opacity: 0.75;
}
]]></style>
</defs>
<path d="M184.9,571.9V179.5" class="g0_78"/>
<path d="M448.5,362.9c0,-21.5,-17.5,-39,-39,-39c-21.5,0,-39,17.5,-39,39c0,21.5,17.5,39,39,39c21.5,0,39,-17.5,39,-39Z" class="g1_78"/>
<path d="M393.3,327.5l18.5,.6l-9.1,-5L404.9,313Z" class="g2_78"/>
<path d="M409.5,265.8L382.3,293h13v16.4h28.4V293h13Z" class="g3_78"/>
<path d="M409.5,416.4L377.9,448h13v18.2h37.2V448h13Z" class="g4_78"/>
<path d="M352.6,362.9L326.9,337.2v13H303.7v25.4h23.2v13Z" class="g5_78"/>
<path d="M604.4,362.9c0,-21.5,-17.5,-39,-39,-39c-21.5,0,-39,17.5,-39,39c0,21.5,17.5,39,39,39c21.5,0,39,-17.5,39,-39Z" class="g1_78"/>
<path d="M549.2,327.5l-11.7,14.4l2.2,-10.1l-9.1,-5Z" class="g2_78"/>
<path d="M565.4,304.1l27.2,-27.2h-13V260.5H551.2v16.4h-13Z" class="g4_78"/>
<path d="M565.4,460.6l29,-29h-13v-14h-32v14h-13Z" class="g3_78"/>
<path d="M678.7,362.9L650.9,335.1v13H622.8v29.6h28.1v13Z" class="g5_78"/>
<path d="M331.5,246V187.5H643.4V246Z" class="g6_78"/>
<path d="M331.5,479.8v58.5H643.4V479.8Z" class="g6_78"/>
<path d="M184.9,601.1V571.9m0,58.4V601.1m0,58.4V630.3m0,58.5V659.5m0,58.5V688.8m0,110.2V718" class="g0_78"/>
</svg>