<?xml version="1.0" encoding="UTF-8" standalone="no"?>
<!DOCTYPE svg PUBLIC "-//W3C//DTD SVG 1.1//EN"
"http://www.w3.org/Graphics/SVG/1.1/DTD/svg11.dtd">
<svg viewBox="0 0 1286 909" version="1.1" xmlns="http://www.w3.org/2000/svg" xmlns:xlink="http://www.w3.org/1999/xlink">
<defs>
<style type="text/css"><![CDATA[
.g0_337{
fill: none;
stroke: #000000;
stroke-width: 0.73;
stroke-linecap: butt;
stroke-linejoin: miter;
}
.g1_337{
fill: none;
stroke: #02B5EE;
stroke-width: 1.262;
stroke-linecap: butt;
stroke-linejoin: miter;
}
.g2_337{
fill: none;
stroke: #5EE200;
stroke-width: 1.262;
stroke-linecap: butt;
stroke-linejoin: miter;
}
.g3_337{
fill: none;
stroke: #5EE200;
stroke-width: 0.73;
stroke-linecap: butt;
stroke-linejoin: miter;
}
.g4_337{
fill: none;
stroke: #02B5EE;
stroke-width: 0.73;
stroke-linecap: butt;
stroke-linejoin: miter;
}
.g5_337{
fill: #B3E9FA;
}
]]></style>
</defs>
<path d="M193,83.4h900.3M193,210.6h888.7m-888.7,0h888.7M554.1,240.2V211m0,58.5V240.2m0,114.3v-85" class="g0_337"/>
<path d="M716.3,330.5H827.1" class="g1_337"/>
<path d="M837.6,330.5H941.4" class="g2_337"/>
<path d="M554.1,383.7V354.5m0,102.3V383.7" class="g0_337"/>
<path d="M838.4,442.9h84.4" class="g3_337"/>
<path d="M1003.2,442.9h67.6" class="g4_337"/>
<path d="M554.1,488.1V456.8m0,60.5V488.1m0,58.4V517.3m0,114.3V546.5" class="g0_337"/>
<path d="M834.3,581.8V569.6c0,-2.9,2.4,-5.2,5.2,-5.2h92.9c2.9,0,5.2,2.3,5.2,5.2v12.2c0,2.8,-2.3,5.2,-5.2,5.2H839.5c-2.8,0,-5.2,-2.4,-5.2,-5.2Z" class="g5_337"/>
<path d="M831.7,607.6H940.2" class="g1_337"/>
<path d="M950.7,607.6h120.1" class="g2_337"/>
<path d="M554.1,660.8V631.6m0,58.4V660.8m0,58.4V690M193,719.6h888.7m-888.7,0h888.7" class="g0_337"/>
</svg>