<?xml version="1.0" encoding="UTF-8" standalone="no"?>
<!DOCTYPE svg PUBLIC "-//W3C//DTD SVG 1.1//EN"
"http://www.w3.org/Graphics/SVG/1.1/DTD/svg11.dtd">
<svg viewBox="0 0 909 1286" version="1.1" xmlns="http://www.w3.org/2000/svg" xmlns:xlink="http://www.w3.org/1999/xlink">
<defs>
<style type="text/css"><![CDATA[
.g0{
fill: none;
stroke: #000000;
stroke-width: 0.73;
stroke-linecap: butt;
stroke-linejoin: miter;
}
.g1{
fill: none;
stroke: #000000;
stroke-width: 1.461;
stroke-linecap: butt;
stroke-linejoin: miter;
}
.g2{
fill: none;
stroke: #000000;
stroke-width: 9.132;
stroke-linecap: butt;
stroke-linejoin: miter;
}
.g3{
fill: none;
stroke: #F81693;
stroke-width: 0.73;
stroke-linecap: butt;
stroke-linejoin: miter;
}
.g4{
fill: none;
stroke: #02B5EE;
stroke-width: 0.73;
stroke-linecap: butt;
stroke-linejoin: miter;
}
.g5{
fill: none;
stroke: #02B5EE;
stroke-width: 1.461;
stroke-linecap: butt;
stroke-linejoin: miter;
}
.g6{
fill: none;
stroke: #F81693;
stroke-width: 1.461;
stroke-linecap: butt;
stroke-linejoin: miter;
}
]]></style>
</defs>
<path d="M116.9,264.9H783.4M117.3,577.1V265.3" class="g0"/>
<path d="M458.4,357.2c-1.6,3.3,-5.5,5.5,-10.9,5.5H432.9c-5.5,0,-9.3,2.2,-11,5.5c-1.6,-3.3,-5.4,-5.5,-10.9,-5.5H396.4c-5.5,0,-9.3,-2.2,-11,-5.5" class="g1"/>
<path d="M783,577.1V265.3M116.9,577.5H783.4" class="g0"/>
<path d="M126.1,582.4H792.5m-4.6,4.6V273.7" class="g2"/>
<path d="M116.9,618.4H738.6M343.8,648V618.8M235.1,666.2L260,681m0,36.8V681.2m-24.9,51.5l25.2,-14.9m-38,14.9L197.1,717.8m.4,0V681.2m24.8,-15L197.5,681M166.3,662.4L197.5,681m-31.2,55.6l31.2,-18.7m-31.2,18.7L135,717.9m0,-.1V681.2m31.3,-18.8L135,681m30.2,-10.9l-23.1,13.7m23.1,45.1L142.1,715.2M191.5,713V686m99.7,-23.6L322.4,681m0,36.8V681.2m-31.2,55.4l31.2,-18.7m-31.2,18.7L260,717.9m31.2,-55.5L260,681m32.3,-10.9l23,13.7m-23,45.1l23,-13.7M266,713V686m-31.6,59.3l18.3,18.3M237.7,742l18.2,18.3m-34.7,-15L203,763.6M217.9,742l-18.2,18.3m144.1,24.3V648" class="g0"/>
<path d="M502.2,666.2L527,681m0,36.8V681.2m-24.8,51.5l25.2,-14.9m-38,14.9L464.2,717.8m.4,0V681.2m24.8,-15L464.6,681M439.7,666.2L464.6,681m-24.9,51.7l25.2,-14.9m-38,14.9L408.7,721.8m-6.6,-11.4v-20m24.8,-24.2l-18.2,11m18.2,-4.9l-18.2,10.9m18.2,42.4l-18.2,-11M458.5,713V686M564.7,666.2l18.2,11m6.6,33.2v-20m-24.8,42.3l18.2,-10.9m-31,10.9L526.7,717.8m25.2,-51.6L527,681m37.7,-8.7l18.2,10.9m-18.2,42.4l18.2,-11M533.1,713V686" class="g3"/>
<path d="M501.5,745.3l18.2,18.3M504.8,742L523,760.3m-34.7,-15l-18.2,18.3M485,742l-18.2,18.3" class="g4"/>
<path d="M343.8,813.8V784.6m0,58.5V813.8" class="g0"/>
<path d="M573.5,844.2c1.4,0,2.1,-2.7,3.5,-2.7c1,0,1.8,1.3,2.7,2.7c.9,1.4,1.7,2.8,2.7,2.8c1,0,1.9,-1.4,2.8,-2.8c.9,-1.4,1.7,-2.7,2.7,-2.7c1,0,1.9,1.3,2.8,2.7c.9,1.4,1.7,2.8,2.7,2.8c1,0,1.8,-1.4,2.7,-2.8c.9,-1.4,1.8,-2.7,2.8,-2.7c1,0,1.8,1.3,2.7,2.7c.9,1.4,1.8,2.8,2.8,2.8c1,0,1.8,-1.4,2.7,-2.8c.9,-1.4,1.7,-2.7,2.7,-2.7c1,0,1.9,1.3,2.8,2.7c.9,1.4,1.7,2.8,2.7,2.8c1,0,1.9,-1.4,2.8,-2.8c.9,-1.4,1.7,-2.7,2.7,-2.7c1,0,1.8,1.3,2.7,2.7c.9,1.4,1.8,2.8,2.8,2.8c1,0,1.8,-1.4,2.7,-2.8c.9,-1.4,1.8,-2.7,2.8,-2.7c1.3,0,2,2.7,3.4,2.7h1" class="g5"/>
<path d="M343.8,872.3V843.1m0,60.3V872.3" class="g0"/>
<path d="M410.8,904.5c1.4,0,2,-2.7,3.4,-2.7c1,0,1.9,1.3,2.7,2.7c.9,1.4,1.8,2.8,2.8,2.8c1,0,1.8,-1.4,2.7,-2.8c.9,-1.4,1.8,-2.7,2.8,-2.7c1,0,1.8,1.3,2.7,2.7c.9,1.4,1.8,2.8,2.7,2.8c1,0,1.9,-1.4,2.8,-2.8c.9,-1.4,1.7,-2.7,2.7,-2.7c1,0,1.9,1.3,2.8,2.7c.9,1.4,1.7,2.8,2.7,2.8c1,0,1.9,-1.4,2.7,-2.8c.9,-1.4,1.8,-2.7,2.8,-2.7c1,0,1.8,1.3,2.7,2.7c.9,1.4,1.8,2.8,2.8,2.8c1,0,1.8,-1.4,2.7,-2.8c.9,-1.4,1.8,-2.7,2.7,-2.7c1,0,1.9,1.3,2.8,2.7c.9,1.4,1.7,2.8,2.7,2.8c1,0,1.9,-1.4,2.8,-2.8c.9,-1.4,1.7,-2.7,2.7,-2.7c1.4,0,2.1,2.7,3.4,2.7h1.1" class="g5"/>
<path d="M525.3,901.9c1.4,0,2.1,-2.7,3.4,-2.7c1,0,1.9,1.3,2.8,2.7c.9,1.4,1.7,2.8,2.7,2.8c1,0,1.9,-1.4,2.7,-2.8c.9,-1.4,1.8,-2.7,2.8,-2.7c1,0,1.8,1.3,2.7,2.7c.9,1.4,1.8,2.8,2.8,2.8c1,0,1.8,-1.4,2.7,-2.8c.9,-1.4,1.8,-2.7,2.7,-2.7c1,0,1.9,1.3,2.8,2.7c.9,1.4,1.7,2.8,2.7,2.8c1.4,0,2.1,-2.8,3.4,-2.8h5" class="g6"/>
<path d="M343.8,932.6V903.4M116.9,933H738.6" class="g0"/>
</svg>