<?xml version="1.0" encoding="UTF-8" standalone="no"?>
<!DOCTYPE svg PUBLIC "-//W3C//DTD SVG 1.1//EN"
"http://www.w3.org/Graphics/SVG/1.1/DTD/svg11.dtd">
<svg viewBox="0 0 1286 909" version="1.1" xmlns="http://www.w3.org/2000/svg" xmlns:xlink="http://www.w3.org/1999/xlink">
<defs>
<style type="text/css"><![CDATA[
.g0_748{
fill: none;
stroke: #000000;
stroke-width: 0.73;
stroke-linecap: butt;
stroke-linejoin: miter;
}
.g1_748{
fill: #FFCCCC;
}
.g2_748{
fill: none;
stroke: #F81693;
stroke-width: 1.461;
stroke-linecap: butt;
stroke-linejoin: miter;
stroke-dasharray: 2,2;
}
.g3_748{
fill: none;
stroke: #5EE200;
stroke-width: 1.461;
stroke-linecap: butt;
stroke-linejoin: miter;
stroke-dasharray: 2,2;
}
.g4_748{
fill: #AEF080;
}
]]></style>
</defs>
<path d="M193,83.4h900.3M193,111.6h881.6m-881.6,0h881.6M504.3,141.2V112m0,60.6V141.2m0,60.6V172.6m0,58.4V201.8m0,63.2V231" class="g0_748"/>
<path d="M884.4,265h59.5V232.1H884.4V265Z" class="g1_748"/>
<path d="M958.1,258.6H1060" class="g2_748"/>
<path d="M504.3,294.2V265m0,62.1V294.2" class="g0_748"/>
<path d="M770.9,322.7h65.7" class="g2_748"/>
<path d="M846.3,327.1h217.4V294.2H846.3v32.9Z" class="g1_748"/>
<path d="M504.3,356.3V327.1m0,58.4V356.3m0,63.2v-34" class="g0_748"/>
<path d="M882.8,419.5h61.1V386.6H882.8v32.9Z" class="g1_748"/>
<path d="M958.1,413.1H1060" class="g2_748"/>
<path d="M504.3,449.6V419.5m0,63V449.6" class="g0_748"/>
<path d="M787.8,478.1h65.7" class="g2_748"/>
<path d="M863.2,482.5h200.5V449.6H863.2v32.9Z" class="g1_748"/>
<path d="M504.3,511.7V482.5m0,58.4V511.7m0,63.2v-34" class="g0_748"/>
<path d="M723,574.9h61.1V542H723v32.9Z" class="g1_748"/>
<path d="M798.3,568.5H941" class="g3_748"/>
<path d="M955.2,574.9h108.5V542H955.2v32.9Z" class="g4_748"/>
<path d="M504.3,604.1V574.9m0,62.1V604.1" class="g0_748"/>
<path d="M764.6,632.6H881" class="g3_748"/>
<path d="M890.8,637h44.7V604.1H890.8V637Z" class="g4_748"/>
<path d="M947.7,637h116V604.1h-116V637Z" class="g1_748"/>
<path d="M504.3,666.2V637m0,58.4V666.2m0,58.5V695.4M193,725h881.6M193,725h881.6" class="g0_748"/>
</svg>