<?xml version="1.0" encoding="UTF-8" standalone="no"?>
<!DOCTYPE svg PUBLIC "-//W3C//DTD SVG 1.1//EN"
"http://www.w3.org/Graphics/SVG/1.1/DTD/svg11.dtd">
<svg viewBox="0 0 1286 909" version="1.1" xmlns="http://www.w3.org/2000/svg" xmlns:xlink="http://www.w3.org/1999/xlink">
<defs>
<style type="text/css"><![CDATA[
.g0_528{
fill: none;
stroke: #000000;
stroke-width: 0.73;
stroke-linecap: butt;
stroke-linejoin: miter;
}
.g1_528{
fill: #B3E9FA;
}
.g2_528{
fill: none;
stroke: #02B5EE;
stroke-width: 1.262;
stroke-linecap: butt;
stroke-linejoin: miter;
}
.g3_528{
fill: none;
stroke: #5EE200;
stroke-width: 1.262;
stroke-linecap: butt;
stroke-linejoin: miter;
}
.g4_528{
fill: none;
stroke: #02B5EE;
stroke-width: 0.73;
stroke-linecap: butt;
stroke-linejoin: miter;
}
]]></style>
</defs>
<path d="M193,83.4h900.3M193,111.6h809m-809,0h809M590.9,141.2V112m0,58.5V141.2m0,114.3v-85" class="g0_528"/>
<path d="M662.1,212V200.7c0,-2.8,2.3,-5.2,5.2,-5.2h92c2.9,0,5.2,2.4,5.2,5.2V212c0,2.9,-2.3,5.2,-5.2,5.2h-92c-2.9,0,-5.2,-2.3,-5.2,-5.2Z" class="g1_528"/>
<path d="M659.5,231.5H767.1" class="g2_528"/>
<path d="M777.6,231.5H991" class="g3_528"/>
<path d="M590.9,284.7V255.5m0,58.4V284.7m0,114.3V313.9" class="g0_528"/>
<path d="M696.9,375H861.7" class="g2_528"/>
<path d="M590.9,428.2V399m0,102.2v-73" class="g0_528"/>
<path d="M839,487.4H991" class="g4_528"/>
<path d="M590.9,530.5V501.2M193,530.8h809m-809,0h809" class="g0_528"/>
</svg>