<?xml version="1.0" encoding="UTF-8" standalone="no"?>
<!DOCTYPE svg PUBLIC "-//W3C//DTD SVG 1.1//EN"
"http://www.w3.org/Graphics/SVG/1.1/DTD/svg11.dtd">
<svg viewBox="0 0 1286 909" version="1.1" xmlns="http://www.w3.org/2000/svg" xmlns:xlink="http://www.w3.org/1999/xlink">
<defs>
<style type="text/css"><![CDATA[
.g0_1008{
fill: none;
stroke: #000000;
stroke-width: 0.73;
stroke-linecap: butt;
stroke-linejoin: miter;
}
.g1_1008{
fill: #FFCCCC;
}
.g2_1008{
fill: #AEF080;
}
.g3_1008{
fill: none;
stroke: #5EE200;
stroke-width: 1.461;
stroke-linecap: butt;
stroke-linejoin: miter;
stroke-dasharray: 2,2;
}
.g4_1008{
fill: none;
stroke: #F81693;
stroke-width: 1.461;
stroke-linecap: butt;
stroke-linejoin: miter;
stroke-dasharray: 2,2;
}
]]></style>
</defs>
<path d="M193,83.4h900.3M193,111.6h821.4m-821.4,0h821.4M430.3,141.2V112m0,63.2v-34" class="g0_1008"/>
<path d="M735.8,175.2h59.5V142.3H735.8v32.9Z" class="g1_1008"/>
<path d="M805.8,175.2H927V142.3H805.8v32.9Z" class="g2_1008"/>
<path d="M941.1,168.8h58.7" class="g3_1008"/>
<path d="M430.3,205.4V175.2m0,63V205.4" class="g0_1008"/>
<path d="M808.8,233.9h49.5" class="g3_1008"/>
<path d="M861.9,238.2h44.8V205.4H861.9v32.8Z" class="g2_1008"/>
<path d="M912.8,238.2h90.6V205.4H912.8v32.8Z" class="g1_1008"/>
<path d="M430.3,267.5V238.2m0,58.5V267.5m0,63.1V296.7" class="g0_1008"/>
<path d="M739.7,330.6h59.6V297.8H739.7v32.8Z" class="g1_1008"/>
<path d="M809.8,330.6H925.4V297.8H809.8v32.8Z" class="g2_1008"/>
<path d="M939.5,324.2h60.3" class="g3_1008"/>
<path d="M430.3,359.9V330.6m0,62.1V359.9" class="g0_1008"/>
<path d="M842.6,388.4h32.6" class="g3_1008"/>
<path d="M878.8,392.7h27.9V359.9H878.8v32.8Z" class="g2_1008"/>
<path d="M912.8,392.7h90.6V359.9H912.8v32.8Z" class="g1_1008"/>
<path d="M430.3,422V392.7m0,58.5V422m0,63.1V451.2" class="g0_1008"/>
<path d="M707.2,485.1h93.7V452.2H707.2v32.9Z" class="g1_1008"/>
<path d="M811.4,485.1H927V452.2H811.4v32.9Z" class="g2_1008"/>
<path d="M941.1,478.7h58.7" class="g3_1008"/>
<path d="M430.3,514.3V485.1m0,62.1V514.3" class="g0_1008"/>
<path d="M808.8,542.9h49.5" class="g3_1008"/>
<path d="M861.9,547.2h44.8V514.3H861.9v32.9Z" class="g2_1008"/>
<path d="M912.8,547.2h90.6V514.3H912.8v32.9Z" class="g1_1008"/>
<path d="M430.3,578.6V547.2m0,60.6V578.6m0,58.4V607.8m0,63.1V637" class="g0_1008"/>
<path d="M752.4,670.9h75.8V638.1H752.4v32.8Z" class="g1_1008"/>
<path d="M842.3,664.6H999.8" class="g4_1008"/>
<path d="M430.3,701.1V670.9m0,59.4V701.1M193,730.7h821.4m-821.4,0h821.4" class="g0_1008"/>
</svg>