<?xml version="1.0" encoding="UTF-8" standalone="no"?>
<!DOCTYPE svg PUBLIC "-//W3C//DTD SVG 1.1//EN"
"http://www.w3.org/Graphics/SVG/1.1/DTD/svg11.dtd">
<svg viewBox="0 0 1286 909" version="1.1" xmlns="http://www.w3.org/2000/svg" xmlns:xlink="http://www.w3.org/1999/xlink">
<defs>
<style type="text/css"><![CDATA[
.g0_1195{
fill: none;
stroke: #000000;
stroke-width: 0.73;
stroke-linecap: butt;
stroke-linejoin: miter;
}
.g1_1195{
fill: none;
stroke: #000000;
stroke-width: 0.62;
stroke-linecap: butt;
stroke-linejoin: miter;
}
.g2_1195{
fill: #FDE8E9;
}
]]></style>
</defs>
<path d="M193,83.4h900.3" class="g0_1195"/>
<path d="M202.3,113h349m-349,25.2V113.4m184,24.8V113.4m165,24.8V113.4m-349,54.2V138.2m184,29.4V138.2" class="g1_1195"/>
<path d="M395.6,167.6h81.6V138.2H395.6v29.4Z" class="g2_1195"/>
<path d="M551.3,167.6V138.2m-349,54.3V167.6m184,24.9V167.6m165,24.9V167.6m-349,49.7V192.5m184,24.8V192.5m165,24.8V192.5M202.3,245V217.3m184,27.7V217.3" class="g1_1195"/>
<path d="M395.6,242.2H514.9V217.3H395.6v24.9Z" class="g2_1195"/>
<path d="M551.3,245V217.3m-349,52.6V245m184,24.9V245m165,24.9V245m-349,49.7V269.9m184,24.8V269.9m165,24.8V269.9m-349,50.5V294.7m184,25.7V294.7" class="g1_1195"/>
<path d="M395.6,317.6h54V297.8h-54v19.8Z" class="g2_1195"/>
<path d="M551.3,320.4V294.7m-349,50.5V320.4m184,24.8V320.4m165,24.8V320.4M202.3,370V345.2m184,24.8V345.2m165,24.8V345.2m-349,52.6V370m184,27.8V370" class="g1_1195"/>
<path d="M395.6,395H542V370H395.6v25Z" class="g2_1195"/>
<path d="M551.3,397.8V370m-349,52.6V397.8m184,24.8V397.8m165,24.8V397.8m-349,49.7V422.6m184,24.9V422.6m165,24.9V422.6m-349,54.3V447.5m184,29.4V447.5" class="g1_1195"/>
<path d="M395.6,476.9H516.3V447.5H395.6v29.4Z" class="g2_1195"/>
<path d="M551.3,476.9V447.5m-349,54.2V476.9m184,24.8V476.9m165,24.8V476.9m-349,49.7V501.7m184,24.9V501.7m165,24.9V501.7m-349,52.6V526.6m184,27.7V526.6" class="g1_1195"/>
<path d="M395.6,551.5h50V526.6h-50v24.9Z" class="g2_1195"/>
<path d="M551.3,554.3V526.6m-349,52.6V554.3m184,24.9V554.3m165,24.9V554.3M202.3,604V579.2m184,24.8V579.2m165,24.8V579.2m-349,52.6V604m184,27.8V604" class="g1_1195"/>
<path d="M395.6,629h85.8V604H395.6v25Z" class="g2_1195"/>
<path d="M551.3,631.8V604m-349,52.6V631.8m184,24.8V631.8m165,24.8V631.8m-349,49.6V656.6m184,24.8V656.6m165,24.8V656.6m-349,52.6V681.4m184,27.8V681.4" class="g1_1195"/>
<path d="M395.6,706.4h56.7v-25H395.6v25Z" class="g2_1195"/>
<path d="M551.3,709.2V681.4M202.3,734V709.2m184,24.8V709.2m165,24.8V709.2m-349,25.1h349M569.9,109.5H853.6M569.9,134.6V109.8m122,24.8V109.8m161.7,24.8V109.8M569.9,162.4V134.6m122,27.8V134.6" class="g1_1195"/>
<path d="M701.2,159.6H844.3v-25H701.2v25Z" class="g2_1195"/>
<path d="M853.6,162.4V134.6M569.9,187.2V162.4m122,24.8V162.4m161.7,24.8V162.4M569.9,212.1V187.2m122,24.9V187.2m161.7,24.9V187.2M569.9,241.5V212.1m122,29.4V212.1" class="g1_1195"/>
<path d="M701.2,241.5H842V212.1H701.2v29.4Z" class="g2_1195"/>
<path d="M853.6,241.5V212.1M569.9,266.3V241.5m122,24.8V241.5m161.7,24.8V241.5M569.9,291.2V266.3m122,24.9V266.3m161.7,24.9V266.3M569.9,320.6V291.2m122,29.4V291.2" class="g1_1195"/>
<path d="M701.2,320.6h84.6V291.2H701.2v29.4Z" class="g2_1195"/>
<path d="M853.6,320.6V291.2M569.9,345.4V320.6m122,24.8V320.6m161.7,24.8V320.6M569.9,370.3V345.4m122,24.9V345.4m161.7,24.9V345.4M569.9,398V370.3m122,27.7V370.3" class="g1_1195"/>
<path d="M701.2,395.2h95.4V370.3H701.2v24.9Z" class="g2_1195"/>
<path d="M853.6,398V370.3M569.9,422.8V398m122,24.8V398m161.7,24.8V398M569.9,447.7V422.8m122,24.9V422.8m161.7,24.9V422.8M569.9,477.1V447.7m122,29.4V447.7" class="g1_1195"/>
<path d="M701.2,477.1h67.5V447.7H701.2v29.4Z" class="g2_1195"/>
<path d="M853.6,477.1V447.7M569.9,502V477.1m122,24.9V477.1M853.6,502V477.1M569.9,526.8V502m122,24.8V502m161.7,24.8V502M569.9,554.5V526.8m122,27.7V526.8" class="g1_1195"/>
<path d="M701.2,551.7h70.2V526.8H701.2v24.9Z" class="g2_1195"/>
<path d="M853.6,554.5V526.8M569.9,579.4V554.5m122,24.9V554.5m161.7,24.9V554.5M569.9,604.2V579.4m122,24.8V579.4m161.7,24.8V579.4M569.9,633.6V604.2m122,29.4V604.2" class="g1_1195"/>
<path d="M701.2,633.6H802.5V604.2H701.2v29.4Z" class="g2_1195"/>
<path d="M853.6,633.6V604.2M569.9,658.5V633.6m122,24.9V633.6m161.7,24.9V633.6M569.9,683.3V658.5m122,24.8V658.5m161.7,24.8V658.5M569.9,712.8V683.3m122,29.5V683.3" class="g1_1195"/>
<path d="M701.2,712.8H816V683.3H701.2v29.5Z" class="g2_1195"/>
<path d="M853.6,712.8V683.3M569.9,737.6V712.8m122,24.8V712.8m161.7,24.8V712.8M569.9,737.9H853.6M872.2,112.4h208.7M872.2,137.6V112.7m101.4,24.9V112.7m107.3,24.9V112.7M872.2,167V137.6M973.6,167V137.6" class="g1_1195"/>
<path d="M982.9,167h79.7V137.6H982.9V167Z" class="g2_1195"/>
<path d="M1080.9,167V137.6M872.2,191.8V167m101.4,24.8V167m107.3,24.8V167M872.2,216.7V191.8m101.4,24.9V191.8m107.3,24.9V191.8M872.2,242.3V216.7m101.4,25.6V216.7" class="g1_1195"/>
<path d="M982.9,239.5h76.2V219.7H982.9v19.8Z" class="g2_1195"/>
<path d="M1080.9,242.3V216.7M872.2,267.2V242.3m101.4,24.9V242.3m107.3,24.9V242.3M872.2,292V267.2M973.6,292V267.2M1080.9,292V267.2M872.2,319.7V292m101.4,27.7V292" class="g1_1195"/>
<path d="M982.9,316.9h58.3V292H982.9v24.9Z" class="g2_1195"/>
<path d="M1080.9,319.7V292M872.2,344.6V319.7m101.4,24.9V319.7m107.3,24.9V319.7M872.2,369.4V344.6m101.4,24.8V344.6m107.3,24.8V344.6M872.2,398.8V369.4m101.4,29.4V369.4" class="g1_1195"/>
<path d="M982.9,398.8h64.7V369.4H982.9v29.4Z" class="g2_1195"/>
<path d="M1080.9,398.8V369.4M872.2,423.7V398.8m101.4,24.9V398.8m107.3,24.9V398.8M872.2,448.5V423.7m101.4,24.8V423.7m107.3,24.8V423.7M872.2,476.3V448.5m101.4,27.8V448.5" class="g1_1195"/>
<path d="M982.9,473.5h61.5v-25H982.9v25Z" class="g2_1195"/>
<path d="M1080.9,476.3V448.5M872.2,501.1V476.3m101.4,24.8V476.3m107.3,24.8V476.3M872.2,526V501.1M973.6,526V501.1M1080.9,526V501.1M872.2,555.4V526m101.4,29.4V526" class="g1_1195"/>
<path d="M982.9,555.4h88.7V526H982.9v29.4Z" class="g2_1195"/>
<path d="M1080.9,555.4V526M872.2,580.2V555.4m101.4,24.8V555.4m107.3,24.8V555.4M872.2,605.1V580.2m101.4,24.9V580.2m107.3,24.9V580.2M872.2,632.8V605.1m101.4,27.7V605.1" class="g1_1195"/>
<path d="M982.9,630h60.3V605.1H982.9V630Z" class="g2_1195"/>
<path d="M1080.9,632.8V605.1M872.2,657.7V632.8m101.4,24.9V632.8m107.3,24.9V632.8M872.2,682.5V657.7m101.4,24.8V657.7m107.3,24.8V657.7M872.2,709.8V682.5m101.4,27.3V682.5" class="g1_1195"/>
<path d="M982.9,709.8h66.3V685.5H982.9v24.3Z" class="g2_1195"/>
<path d="M1080.9,709.8V682.5M872.2,734.7V709.8m101.4,24.9V709.8m107.3,24.9V709.8M872.2,735h208.7" class="g1_1195"/>
</svg>