<?xml version="1.0" encoding="UTF-8" standalone="no"?>
<!DOCTYPE svg PUBLIC "-//W3C//DTD SVG 1.1//EN"
"http://www.w3.org/Graphics/SVG/1.1/DTD/svg11.dtd">
<svg viewBox="0 0 909 1286" version="1.1" xmlns="http://www.w3.org/2000/svg" xmlns:xlink="http://www.w3.org/1999/xlink">
<defs>
<clipPath id="c0_4"><path d="M134.6,362.7V332H782.7v30.7Z"/></clipPath>
<style type="text/css"><![CDATA[
.g0_4{
fill: none;
stroke: #000000;
stroke-width: 0.73;
stroke-linecap: butt;
stroke-linejoin: miter;
}
.g1_4{
fill: #7F7F7F;
}
.g2_4{
fill: #FFFFFF;
}
.g3_4{
fill: none;
stroke: #7F7F7F;
stroke-width: 0.73;
stroke-linecap: butt;
stroke-linejoin: miter;
stroke-dasharray: 6,6;
}
.g4_4{
fill: #FFFFFF;
stroke: #000000;
stroke-width: 0.73;
stroke-linecap: butt;
stroke-linejoin: miter;
}
.g5_4{
fill: none;
stroke: #000000;
stroke-width: 3.47;
stroke-linecap: butt;
stroke-linejoin: miter;
}
.g6_4{
fill: none;
stroke: #CDCDB4;
stroke-width: 2.739;
stroke-linecap: butt;
stroke-linejoin: miter;
}
]]></style>
</defs>
<path d="M116.9,159.9H792.5" class="g0_4"/>
<path d="M133.8,747.3v-416H783.4v416Z" class="g1_4"/>
<path d="M134.6,746.6V363.4H782.7V746.6Z" class="g2_4"/>
<path d="M134.6,443.2H782.7" class="g3_4"/>
<path d="M134.6,362.7V332H782.7v30.7Z" class="g1_4"/>
<g clip-path="url(#c0_4)">
<image x="134" y="331" width="649" height="31" xlink:href="shade/1.png"/>
</g>
<path d="M159.5,373.8c0,-3,-2.4,-5.5,-5.5,-5.5c-3,0,-5.4,2.5,-5.4,5.5c0,3,2.4,5.5,5.4,5.5c3.1,0,5.5,-2.5,5.5,-5.5Z" class="g4_4"/>
<path d="M154,373.8c6.5,1.5,5.5,3.9,-2.2,5.1c-7.7,1.3,-19.3,1.1,-25.7,-.4c-4.2,-1,-5.4,-2.4,-3.2,-3.6c1.8,-1,5.8,-1.8,10.9,-2.2" class="g5_4"/>
<path d="M154,373.8c6.5,1.5,5.5,3.9,-2.2,5.1c-7.7,1.3,-19.3,1.1,-25.7,-.4c-4.2,-1,-5.4,-2.4,-3.2,-3.6c1.8,-1,5.8,-1.8,10.9,-2.2" class="g6_4"/>
<path d="M159.5,397.8c0,-3.1,-2.4,-5.5,-5.5,-5.5c-3,0,-5.4,2.4,-5.4,5.5c0,3,2.4,5.4,5.4,5.4c3.1,0,5.5,-2.4,5.5,-5.4Z" class="g4_4"/>
<path d="M154,397.8c6.5,1.5,5.5,3.8,-2.2,5.1c-7.7,1.3,-19.3,1.1,-25.7,-.5c-4.2,-1,-5.4,-2.3,-3.2,-3.6c1.8,-1,5.8,-1.8,10.9,-2.1" class="g5_4"/>
<path d="M154,397.8c6.5,1.5,5.5,3.8,-2.2,5.1c-7.7,1.3,-19.3,1.1,-25.7,-.5c-4.2,-1,-5.4,-2.3,-3.2,-3.6c1.8,-1,5.8,-1.8,10.9,-2.1" class="g6_4"/>
<path d="M159.5,421.7c0,-3,-2.4,-5.5,-5.5,-5.5c-3,0,-5.4,2.5,-5.4,5.5c0,3,2.4,5.5,5.4,5.5c3.1,0,5.5,-2.5,5.5,-5.5Z" class="g4_4"/>
<path d="M154,421.7c6.5,1.5,5.5,3.8,-2.2,5.1c-7.7,1.3,-19.3,1.1,-25.7,-.4c-4.2,-1,-5.4,-2.4,-3.2,-3.6c1.8,-1,5.8,-1.8,10.9,-2.2" class="g5_4"/>
<path d="M154,421.7c6.5,1.5,5.5,3.8,-2.2,5.1c-7.7,1.3,-19.3,1.1,-25.7,-.4c-4.2,-1,-5.4,-2.4,-3.2,-3.6c1.8,-1,5.8,-1.8,10.9,-2.2" class="g6_4"/>
<path d="M159.5,445.6c0,-3,-2.4,-5.4,-5.5,-5.4c-3,0,-5.4,2.4,-5.4,5.4c0,3.1,2.4,5.5,5.4,5.5c3.1,0,5.5,-2.4,5.5,-5.5Z" class="g4_4"/>
<path d="M154,445.6c6.5,1.6,5.5,3.9,-2.2,5.2c-7.7,1.3,-19.3,1.1,-25.7,-.5c-4.2,-1,-5.4,-2.3,-3.2,-3.6c1.8,-1,5.8,-1.8,10.9,-2.1" class="g5_4"/>
<path d="M154,445.6c6.5,1.6,5.5,3.9,-2.2,5.2c-7.7,1.3,-19.3,1.1,-25.7,-.5c-4.2,-1,-5.4,-2.3,-3.2,-3.6c1.8,-1,5.8,-1.8,10.9,-2.1" class="g6_4"/>
<path d="M159.5,469.6c0,-3,-2.4,-5.5,-5.5,-5.5c-3,0,-5.4,2.5,-5.4,5.5c0,3,2.4,5.5,5.4,5.5c3.1,0,5.5,-2.5,5.5,-5.5Z" class="g4_4"/>
<path d="M154,469.6c6.5,1.5,5.5,3.8,-2.2,5.1c-7.7,1.3,-19.3,1.1,-25.7,-.4c-4.2,-1,-5.4,-2.4,-3.2,-3.6c1.8,-1,5.8,-1.8,10.9,-2.2" class="g5_4"/>
<path d="M154,469.6c6.5,1.5,5.5,3.8,-2.2,5.1c-7.7,1.3,-19.3,1.1,-25.7,-.4c-4.2,-1,-5.4,-2.4,-3.2,-3.6c1.8,-1,5.8,-1.8,10.9,-2.2" class="g6_4"/>
<path d="M159.5,493.5c0,-3,-2.4,-5.4,-5.5,-5.4c-3,0,-5.4,2.4,-5.4,5.4c0,3.1,2.4,5.5,5.4,5.5c3.1,0,5.5,-2.4,5.5,-5.5Z" class="g4_4"/>
<path d="M154,493.5c6.5,1.6,5.5,3.9,-2.2,5.2c-7.7,1.3,-19.3,1.1,-25.7,-.5c-4.2,-1,-5.4,-2.3,-3.2,-3.6c1.8,-1,5.8,-1.8,10.9,-2.1" class="g5_4"/>
<path d="M154,493.5c6.5,1.6,5.5,3.9,-2.2,5.2c-7.7,1.3,-19.3,1.1,-25.7,-.5c-4.2,-1,-5.4,-2.3,-3.2,-3.6c1.8,-1,5.8,-1.8,10.9,-2.1" class="g6_4"/>
<path d="M159.5,517.5c0,-3,-2.4,-5.5,-5.5,-5.5c-3,0,-5.4,2.5,-5.4,5.5c0,3,2.4,5.5,5.4,5.5c3.1,0,5.5,-2.5,5.5,-5.5Z" class="g4_4"/>
<path d="M154,517.5c6.5,1.5,5.5,3.8,-2.2,5.1c-7.7,1.3,-19.3,1.1,-25.7,-.4c-4.2,-1,-5.4,-2.4,-3.2,-3.6c1.8,-1,5.8,-1.8,10.9,-2.2" class="g5_4"/>
<path d="M154,517.5c6.5,1.5,5.5,3.8,-2.2,5.1c-7.7,1.3,-19.3,1.1,-25.7,-.4c-4.2,-1,-5.4,-2.4,-3.2,-3.6c1.8,-1,5.8,-1.8,10.9,-2.2" class="g6_4"/>
<path d="M159.5,541.4c0,-3,-2.4,-5.4,-5.5,-5.4c-3,0,-5.4,2.4,-5.4,5.4c0,3.1,2.4,5.5,5.4,5.5c3.1,0,5.5,-2.4,5.5,-5.5Z" class="g4_4"/>
<path d="M154,541.4c6.5,1.6,5.5,3.9,-2.2,5.2c-7.7,1.3,-19.3,1.1,-25.7,-.5c-4.2,-1,-5.4,-2.3,-3.2,-3.6c1.8,-1,5.8,-1.8,10.9,-2.1" class="g5_4"/>
<path d="M154,541.4c6.5,1.6,5.5,3.9,-2.2,5.2c-7.7,1.3,-19.3,1.1,-25.7,-.5c-4.2,-1,-5.4,-2.3,-3.2,-3.6c1.8,-1,5.8,-1.8,10.9,-2.1" class="g6_4"/>
<path d="M159.5,565.4c0,-3,-2.4,-5.5,-5.5,-5.5c-3,0,-5.4,2.5,-5.4,5.5c0,3,2.4,5.5,5.4,5.5c3.1,0,5.5,-2.5,5.5,-5.5Z" class="g4_4"/>
<path d="M154,565.4c6.5,1.5,5.5,3.8,-2.2,5.1c-7.7,1.3,-19.3,1.1,-25.7,-.4c-4.2,-1,-5.4,-2.4,-3.2,-3.6c1.8,-1,5.8,-1.8,10.9,-2.2" class="g5_4"/>
<path d="M154,565.4c6.5,1.5,5.5,3.8,-2.2,5.1c-7.7,1.3,-19.3,1.1,-25.7,-.4c-4.2,-1,-5.4,-2.4,-3.2,-3.6c1.8,-1,5.8,-1.8,10.9,-2.2" class="g6_4"/>
<path d="M159.5,589.3c0,-3,-2.4,-5.4,-5.5,-5.4c-3,0,-5.4,2.4,-5.4,5.4c0,3.1,2.4,5.5,5.4,5.5c3.1,0,5.5,-2.4,5.5,-5.5Z" class="g4_4"/>
<path d="M154,589.3c6.5,1.6,5.5,3.9,-2.2,5.2c-7.7,1.3,-19.3,1.1,-25.7,-.5c-4.2,-1,-5.4,-2.3,-3.2,-3.6c1.8,-1,5.8,-1.8,10.9,-2.2" class="g5_4"/>
<path d="M154,589.3c6.5,1.6,5.5,3.9,-2.2,5.2c-7.7,1.3,-19.3,1.1,-25.7,-.5c-4.2,-1,-5.4,-2.3,-3.2,-3.6c1.8,-1,5.8,-1.8,10.9,-2.2" class="g6_4"/>
<path d="M159.5,613.3c0,-3,-2.4,-5.5,-5.5,-5.5c-3,0,-5.4,2.5,-5.4,5.5c0,3,2.4,5.5,5.4,5.5c3.1,0,5.5,-2.5,5.5,-5.5Z" class="g4_4"/>
<path d="M154,613.3c6.5,1.5,5.5,3.8,-2.2,5.1c-7.7,1.3,-19.3,1.1,-25.7,-.4c-4.2,-1,-5.4,-2.4,-3.2,-3.6c1.8,-1,5.8,-1.8,10.9,-2.2" class="g5_4"/>
<path d="M154,613.3c6.5,1.5,5.5,3.8,-2.2,5.1c-7.7,1.3,-19.3,1.1,-25.7,-.4c-4.2,-1,-5.4,-2.4,-3.2,-3.6c1.8,-1,5.8,-1.8,10.9,-2.2" class="g6_4"/>
<path d="M159.5,637.2c0,-3,-2.4,-5.5,-5.5,-5.5c-3,0,-5.4,2.5,-5.4,5.5c0,3.1,2.4,5.5,5.4,5.5c3.1,0,5.5,-2.4,5.5,-5.5Z" class="g4_4"/>
<path d="M154,637.2c6.5,1.6,5.5,3.9,-2.2,5.2c-7.7,1.3,-19.3,1.1,-25.7,-.5c-4.2,-1,-5.4,-2.3,-3.2,-3.6c1.8,-1,5.8,-1.8,10.9,-2.2" class="g5_4"/>
<path d="M154,637.2c6.5,1.6,5.5,3.9,-2.2,5.2c-7.7,1.3,-19.3,1.1,-25.7,-.5c-4.2,-1,-5.4,-2.3,-3.2,-3.6c1.8,-1,5.8,-1.8,10.9,-2.2" class="g6_4"/>
<path d="M159.5,661.2c0,-3,-2.4,-5.5,-5.5,-5.5c-3,0,-5.4,2.5,-5.4,5.5c0,3,2.4,5.5,5.4,5.5c3.1,0,5.5,-2.5,5.5,-5.5Z" class="g4_4"/>
<path d="M154,661.2c6.5,1.5,5.5,3.8,-2.2,5.1c-7.7,1.3,-19.3,1.1,-25.7,-.4c-4.2,-1,-5.4,-2.4,-3.2,-3.6c1.8,-1,5.8,-1.8,10.9,-2.2" class="g5_4"/>
<path d="M154,661.2c6.5,1.5,5.5,3.8,-2.2,5.1c-7.7,1.3,-19.3,1.1,-25.7,-.4c-4.2,-1,-5.4,-2.4,-3.2,-3.6c1.8,-1,5.8,-1.8,10.9,-2.2" class="g6_4"/>
<path d="M159.5,685.1c0,-3,-2.4,-5.5,-5.5,-5.5c-3,0,-5.4,2.5,-5.4,5.5c0,3.1,2.4,5.5,5.4,5.5c3.1,0,5.5,-2.4,5.5,-5.5Z" class="g4_4"/>
<path d="M154,685.1c6.5,1.6,5.5,3.9,-2.2,5.2c-7.7,1.3,-19.3,1.1,-25.7,-.5c-4.2,-1,-5.4,-2.4,-3.2,-3.6c1.8,-1,5.8,-1.8,10.9,-2.2" class="g5_4"/>
<path d="M154,685.1c6.5,1.6,5.5,3.9,-2.2,5.2c-7.7,1.3,-19.3,1.1,-25.7,-.5c-4.2,-1,-5.4,-2.4,-3.2,-3.6c1.8,-1,5.8,-1.8,10.9,-2.2" class="g6_4"/>
<path d="M159.5,709.1c0,-3.1,-2.4,-5.5,-5.5,-5.5c-3,0,-5.4,2.4,-5.4,5.5c0,3,2.4,5.5,5.4,5.5c3.1,0,5.5,-2.5,5.5,-5.5Z" class="g4_4"/>
<path d="M154,709.1c6.5,1.5,5.5,3.8,-2.2,5.1c-7.7,1.3,-19.3,1.1,-25.7,-.4c-4.2,-1,-5.4,-2.4,-3.2,-3.6c1.8,-1,5.8,-1.8,10.9,-2.2" class="g5_4"/>
<path d="M154,709.1c6.5,1.5,5.5,3.8,-2.2,5.1c-7.7,1.3,-19.3,1.1,-25.7,-.4c-4.2,-1,-5.4,-2.4,-3.2,-3.6c1.8,-1,5.8,-1.8,10.9,-2.2" class="g6_4"/>
<path d="M159.5,733c0,-3,-2.4,-5.5,-5.5,-5.5c-3,0,-5.4,2.5,-5.4,5.5c0,3,2.4,5.5,5.4,5.5c3.1,0,5.5,-2.5,5.5,-5.5Z" class="g4_4"/>
<path d="M154,733c6.5,1.6,5.5,3.9,-2.2,5.2c-7.7,1.3,-19.3,1.1,-25.7,-.5c-4.2,-1,-5.4,-2.4,-3.2,-3.6c1.8,-1,5.8,-1.8,10.9,-2.2" class="g5_4"/>
<path d="M154,733c6.5,1.6,5.5,3.9,-2.2,5.2c-7.7,1.3,-19.3,1.1,-25.7,-.5c-4.2,-1,-5.4,-2.4,-3.2,-3.6c1.8,-1,5.8,-1.8,10.9,-2.2" class="g6_4"/>
<path d="M195.3,548.3V519.1m0,120.6V610.4m0,89.5V670.7" class="g0_4"/>
</svg>