<?xml version="1.0" encoding="UTF-8" standalone="no"?>
<!DOCTYPE svg PUBLIC "-//W3C//DTD SVG 1.1//EN"
"http://www.w3.org/Graphics/SVG/1.1/DTD/svg11.dtd">
<svg viewBox="0 0 1286 909" version="1.1" xmlns="http://www.w3.org/2000/svg" xmlns:xlink="http://www.w3.org/1999/xlink">
<defs>
<style type="text/css"><![CDATA[
.g0_1152{
fill: none;
stroke: #000000;
stroke-width: 0.73;
stroke-linecap: butt;
stroke-linejoin: miter;
}
.g1_1152{
fill: none;
stroke: #5EE200;
stroke-width: 1.461;
stroke-linecap: butt;
stroke-linejoin: miter;
stroke-dasharray: 2,2;
}
.g2_1152{
fill: none;
stroke: #5EE200;
stroke-width: 0.73;
stroke-linecap: butt;
stroke-linejoin: miter;
}
.g3_1152{
fill: #AEF080;
}
.g4_1152{
fill: #E6CEEE;
}
.g5_1152{
fill: #FFCCCC;
}
.g6_1152{
fill: none;
stroke: #F81693;
stroke-width: 1.461;
stroke-linecap: butt;
stroke-linejoin: miter;
stroke-dasharray: 2,2;
}
.g7_1152{
fill: #FFF7A4;
}
]]></style>
</defs>
<path d="M193,83.4h900.3M193,111.6H1209.8M193,111.6H1209.8M696.5,141.2V112m0,62.1V141.2" class="g0_1152"/>
<path d="M862.5,169.7H987.4" class="g1_1152"/>
<path d="M1000.8,169.7c.6,0,.9,-1,1.6,-1c.5,0,.9,.5,1.3,1c.4,.6,.8,1.1,1.3,1.1c.5,0,.9,-.5,1.3,-1.1c.4,-.5,.8,-1,1.3,-1c.5,0,.9,.5,1.3,1c.4,.6,.8,1.1,1.3,1.1c.5,0,.9,-.5,1.3,-1.1c.4,-.5,.8,-1,1.3,-1c.5,0,.9,.5,1.3,1c.4,.6,.8,1.1,1.3,1.1c.5,0,.9,-.5,1.3,-1.1c.4,-.5,.8,-1,1.3,-1c.4,0,.9,.5,1.3,1c.4,.6,.8,1.1,1.3,1.1c.4,0,.9,-.5,1.3,-1.1c.4,-.5,.8,-1,1.3,-1c.4,0,.9,.5,1.3,1c.4,.6,.8,1.1,1.3,1.1c.4,0,.9,-.5,1.3,-1.1c.4,-.5,.8,-1,1.3,-1c.4,0,.9,.5,1.3,1c.4,.6,.8,1.1,1.3,1.1c.4,0,.9,-.5,1.3,-1.1c.4,-.5,.8,-1,1.3,-1c.4,0,.9,.5,1.3,1c.4,.6,.8,1.1,1.3,1.1c.4,0,.8,-.5,1.3,-1.1c.4,-.5,.8,-1,1.3,-1c.4,0,.8,.5,1.3,1c.4,.6,.8,1.1,1.3,1.1c.4,0,.8,-.5,1.3,-1.1c.4,-.5,.8,-1,1.3,-1c.4,0,.8,.5,1.3,1c.4,.6,.8,1.1,1.3,1.1c.4,0,.8,-.5,1.3,-1.1c.4,-.5,.8,-1,1.3,-1c.4,0,.8,.5,1.3,1c.4,.6,.8,1.1,1.3,1.1c.4,0,.8,-.5,1.3,-1.1c.4,-.5,.8,-1,1.3,-1c.4,0,.8,.5,1.3,1c.4,.6,.8,1.1,1.3,1.1c.4,0,.8,-.5,1.3,-1.1c.4,-.5,.8,-1,1.2,-1c.5,0,.9,.5,1.3,1c.5,.6,.9,1.1,1.3,1.1c.5,0,.9,-.5,1.3,-1.1c.5,-.5,.9,-1,1.3,-1c.5,0,.9,.5,1.3,1c.5,.6,.9,1.1,1.3,1.1c.5,0,.9,-.5,1.3,-1.1c.5,-.5,.9,-1,1.3,-1c.5,0,.9,.5,1.3,1c.5,.6,.9,1.1,1.3,1.1c.5,0,.9,-.5,1.3,-1.1c.5,-.5,.9,-1,1.3,-1c.5,0,.9,.5,1.3,1c.5,.6,.9,1.1,1.3,1.1c.5,0,.9,-.5,1.3,-1.1c.5,-.5,.9,-1,1.3,-1c.5,0,.9,.5,1.3,1c.4,.6,.9,1.1,1.3,1.1c.5,0,.9,-.5,1.3,-1.1c.4,-.5,.9,-1,1.3,-1c.5,0,.9,.5,1.3,1c.4,.6,.9,1.1,1.3,1.1c.5,0,.9,-.5,1.3,-1.1c.4,-.5,.9,-1,1.3,-1c.5,0,.9,.5,1.3,1c.4,.6,.9,1.1,1.3,1.1c.5,0,.9,-.5,1.3,-1.1c.4,-.5,.9,-1,1.3,-1c.5,0,.9,.5,1.3,1c.4,.6,.9,1.1,1.3,1.1c.5,0,.9,-.5,1.3,-1.1c.4,-.5,.8,-1,1.3,-1c.5,0,.9,.5,1.3,1c.4,.6,.8,1.1,1.3,1.1c.5,0,.9,-.5,1.3,-1.1c.4,-.5,.8,-1,1.3,-1c.5,0,.9,.5,1.3,1c.4,.6,.8,1.1,1.3,1.1c.5,0,.9,-.5,1.3,-1.1c.4,-.5,.8,-1,1.3,-1c.5,0,.9,.5,1.3,1c.4,.6,.8,1.1,1.3,1.1c.5,0,.9,-.5,1.3,-1.1c.4,-.5,.8,-1,1.3,-1c.5,0,.9,.5,1.3,1c.4,.6,.8,1.1,1.3,1.1c.5,0,.9,-.5,1.3,-1.1c.4,-.5,.8,-1,1.3,-1c.5,0,.9,.5,1.3,1c.4,.6,.8,1.1,1.3,1.1c.5,0,.9,-.5,1.3,-1.1c.4,-.5,.8,-1,1.3,-1c.5,0,.9,.5,1.3,1c.4,.6,.8,1.1,1.3,1.1c.5,0,.9,-.5,1.3,-1.1c.4,-.5,.8,-1,1.3,-1c.5,0,.9,.5,1.3,1c.4,.6,.8,1.1,1.3,1.1c.5,0,.9,-.5,1.3,-1.1c.4,-.5,.8,-1,1.3,-1c.5,0,.9,.5,1.3,1c.4,.6,.8,1.1,1.3,1.1c.5,0,.9,-.5,1.3,-1.1c.4,-.5,.8,-1,1.3,-1c.5,0,.9,.5,1.3,1c.4,.6,.8,1.1,1.3,1.1c.5,0,.9,-.5,1.3,-1.1c.4,-.5,.8,-1,1.3,-1c.5,0,.9,.5,1.3,1c.4,.6,.8,1.1,1.3,1.1c.5,0,.9,-.5,1.3,-1.1c.4,-.5,.8,-1,1.3,-1c.5,0,.9,.5,1.3,1c.4,.6,.8,1.1,1.3,1.1c.5,0,.9,-.5,1.3,-1.1c.4,-.5,.8,-1,1.3,-1c.5,0,.9,.5,1.3,1c.4,.6,.8,1.1,1.3,1.1c.5,0,.9,-.5,1.3,-1.1c.4,-.5,.8,-1,1.3,-1c.6,0,1,1,1.6,1h.1" class="g2_1152"/>
<path d="M1174.9,174.1h24V141.2h-24v32.9Z" class="g3_1152"/>
<path d="M696.5,205.4V174.1m0,60.6V205.4m0,58.5V234.7m0,64V263.9" class="g0_1152"/>
<path d="M971.1,298.7h53V265.8h-53v32.9Z" class="g4_1152"/>
<path d="M696.5,327.9V298.7m0,62.1V327.9" class="g0_1152"/>
<path d="M1154.1,360.8h44.8V327.9h-44.8v32.9Z" class="g4_1152"/>
<path d="M696.5,390V360.8m0,58.4V390m0,64.1V419.2" class="g0_1152"/>
<path d="M914.1,454.1h137.1V421.2H914.1v32.9Z" class="g4_1152"/>
<path d="M696.5,483.3V454.1m0,62.1V483.3" class="g0_1152"/>
<path d="M1120.3,516.2h78.6V483.3h-78.6v32.9Z" class="g4_1152"/>
<path d="M696.5,547.5V516.2m0,62.6V547.5m0,60.5V578.8m0,58.5V608m0,64.1V637.3" class="g0_1152"/>
<path d="M885.8,672.1h66.6V639.2H885.8v32.9Z" class="g5_1152"/>
<path d="M1072.3,665.7h79" class="g6_1152"/>
<path d="M1165.5,672.1h33.4V639.2h-33.4v32.9Z" class="g7_1152"/>
<path d="M696.5,701.3V672.1m0,58.4V701.3M193,730.9H1209.8M193,730.9H1209.8" class="g0_1152"/>
</svg>