<?xml version="1.0" encoding="UTF-8" standalone="no"?>
<!DOCTYPE svg PUBLIC "-//W3C//DTD SVG 1.1//EN"
"http://www.w3.org/Graphics/SVG/1.1/DTD/svg11.dtd">
<svg viewBox="0 0 1286 909" version="1.1" xmlns="http://www.w3.org/2000/svg" xmlns:xlink="http://www.w3.org/1999/xlink">
<defs>
<style type="text/css"><![CDATA[
.g0_253{
fill: none;
stroke: #000000;
stroke-width: 0.73;
stroke-linecap: butt;
stroke-linejoin: miter;
}
.g1_253{
fill: none;
stroke: #5EE200;
stroke-width: 0.73;
stroke-linecap: butt;
stroke-linejoin: miter;
}
.g2_253{
fill: none;
stroke: #02B5EE;
stroke-width: 0.73;
stroke-linecap: butt;
stroke-linejoin: miter;
}
.g3_253{
fill: none;
stroke: #02B5EE;
stroke-width: 1.262;
stroke-linecap: butt;
stroke-linejoin: miter;
}
.g4_253{
fill: none;
stroke: #5EE200;
stroke-width: 1.262;
stroke-linecap: butt;
stroke-linejoin: miter;
}
.g5_253{
fill: #FFCCCC;
}
.g6_253{
fill: none;
stroke: #F81693;
stroke-width: 1.461;
stroke-linecap: butt;
stroke-linejoin: miter;
stroke-dasharray: 2,2;
}
]]></style>
</defs>
<path d="M193,83.4h900.3M193,111.6h895.4m-895.4,0h895.4M619.3,141.2V112m0,58.5V141.2m0,102.3v-73" class="g0_253"/>
<path d="M630.3,229.6h34.3" class="g1_253"/>
<path d="M993,229.6h84.4" class="g2_253"/>
<path d="M619.3,272.7V243.5m0,58.5V272.7m0,114.3V302" class="g0_253"/>
<path d="M731.3,363h96" class="g3_253"/>
<path d="M837.8,363H860" class="g4_253"/>
<path d="M619.3,416.2V387m0,102.3V416.2" class="g0_253"/>
<path d="M647.2,475.4h34.3" class="g1_253"/>
<path d="M1009.9,475.4h67.5" class="g2_253"/>
<path d="M619.3,518.5V489.3m0,58.4V518.5m0,114.2v-85" class="g0_253"/>
<path d="M661.6,608.8H841.5" class="g3_253"/>
<path d="M852,608.8h18.4" class="g4_253"/>
<path d="M891.4,597H996.3V564.2H891.4V597Z" class="g5_253"/>
<path d="M1010.5,597h63.3" class="g6_253"/>
<path d="M619.3,662.9V632.7m0,59.4V662.9M193,692.5h895.4m-895.4,0h895.4" class="g0_253"/>
</svg>