<?xml version="1.0" encoding="UTF-8" standalone="no"?>
<!DOCTYPE svg PUBLIC "-//W3C//DTD SVG 1.1//EN"
"http://www.w3.org/Graphics/SVG/1.1/DTD/svg11.dtd">
<svg viewBox="0 0 909 1286" version="1.1" xmlns="http://www.w3.org/2000/svg" xmlns:xlink="http://www.w3.org/1999/xlink">
<defs>
<style type="text/css"><![CDATA[
.g0_31{
fill: none;
stroke: #000000;
stroke-width: 0.73;
stroke-linecap: butt;
stroke-linejoin: miter;
}
.g1_31{
fill: #E81A58;
}
.g2_31{
fill: #401A1A;
}
.g3_31{
fill: #FDE8E9;
}
]]></style>
</defs>
<path d="M116.9,159.9H792.5" class="g0_31"/>
<path d="M116.9,420.5v-241H792.5V381.3c0,21.7,-17.5,39.2,-39.1,39.2Z" class="g1_31"/>
<path d="M119.5,417.9V179.5H789.9V381.3c0,20.2,-16.3,36.6,-36.5,36.6Z" class="g2_31"/>
<path d="M471.6,596.4H617.7V568.5H471.6v27.9Z" class="g3_31"/>
<path d="M404.1,628.1h49.3V598.9H404.1v29.2Z" class="g3_31"/>
<path d="M116.9,829.3V711.1c0,-21.6,17.6,-39.1,39.2,-39.1H792.5V790.2c0,21.6,-17.5,39.1,-39.1,39.1Z" class="g1_31"/>
<path d="M119.5,826.7V707.8H789.9v82.4c0,20.1,-16.3,36.5,-36.5,36.5Z" class="g2_31"/>
<path d="M556.1,1032.4h20.5v-23.8H556.1v23.8Z" class="g3_31"/>
</svg>