<?xml version="1.0" encoding="UTF-8" standalone="no"?>
<!DOCTYPE svg PUBLIC "-//W3C//DTD SVG 1.1//EN"
"http://www.w3.org/Graphics/SVG/1.1/DTD/svg11.dtd">
<svg viewBox="0 0 1286 909" version="1.1" xmlns="http://www.w3.org/2000/svg" xmlns:xlink="http://www.w3.org/1999/xlink">
<defs>
<style type="text/css"><![CDATA[
.g0_923{
fill: none;
stroke: #000000;
stroke-width: 0.73;
stroke-linecap: butt;
stroke-linejoin: miter;
}
.g1_923{
fill: none;
stroke: #02B5EE;
stroke-width: 1.262;
stroke-linecap: butt;
stroke-linejoin: miter;
}
.g2_923{
fill: none;
stroke: #5EE200;
stroke-width: 1.262;
stroke-linecap: butt;
stroke-linejoin: miter;
}
.g3_923{
fill: #E6CEEE;
}
.g4_923{
fill: none;
stroke: #02B5EE;
stroke-width: 0.73;
stroke-linecap: butt;
stroke-linejoin: miter;
}
.g5_923{
fill: none;
stroke: #FFA313;
stroke-width: 1.262;
stroke-linecap: butt;
stroke-linejoin: miter;
}
.g6_923{
fill: none;
stroke: #FFA313;
stroke-width: 0.73;
stroke-linecap: butt;
stroke-linejoin: miter;
}
]]></style>
</defs>
<path d="M193,83.4h900.3M193,111.6h898.3m-898.3,0h898.3M675.8,141.2V112m0,114.3V141.2" class="g0_923"/>
<path d="M901.2,202.3H982" class="g1_923"/>
<path d="M992.5,202.3h87.8" class="g2_923"/>
<path d="M675.8,255.5V226.3m0,58.4V255.5m0,114.2v-85" class="g0_923"/>
<path d="M789.5,345.7h34.6" class="g1_923"/>
<path d="M834.6,334h89V301.1h-89V334Z" class="g3_923"/>
<path d="M675.8,399V369.7m0,102.3V399" class="g0_923"/>
<path d="M883.6,448.3h162.9V415.4H883.6v32.9Z" class="g3_923"/>
<path d="M1046.5,458.1h33.8" class="g4_923"/>
<path d="M193,472.4h898.3m-898.3,0h898.3M675.8,502V472.7m0,114.3V502" class="g0_923"/>
<path d="M844.6,563h54.1" class="g1_923"/>
<path d="M909.2,563h171.1" class="g5_923"/>
<path d="M675.8,617.2V587m0,103.2v-73" class="g0_923"/>
<path d="M686.7,676.3H905.3" class="g6_923"/>
<path d="M911.4,676.3h168.9" class="g4_923"/>
<path d="M193,690.6h898.3m-898.3,0h898.3M675.8,720.2V691m0,58.4V720.2M193,749.8h898.3m-898.3,0h898.3" class="g0_923"/>
</svg>