<?xml version="1.0" encoding="UTF-8" standalone="no"?>
<!DOCTYPE svg PUBLIC "-//W3C//DTD SVG 1.1//EN"
"http://www.w3.org/Graphics/SVG/1.1/DTD/svg11.dtd">
<svg viewBox="0 0 1286 909" version="1.1" xmlns="http://www.w3.org/2000/svg" xmlns:xlink="http://www.w3.org/1999/xlink">
<defs>
<style type="text/css"><![CDATA[
.g0_759{
fill: none;
stroke: #000000;
stroke-width: 0.73;
stroke-linecap: butt;
stroke-linejoin: miter;
}
.g1_759{
fill: none;
stroke: #02B5EE;
stroke-width: 1.262;
stroke-linecap: butt;
stroke-linejoin: miter;
}
.g2_759{
fill: #FFCCCC;
}
.g3_759{
fill: #AEF080;
}
.g4_759{
fill: none;
stroke: #5EE200;
stroke-width: 1.461;
stroke-linecap: butt;
stroke-linejoin: miter;
stroke-dasharray: 2,2;
}
.g5_759{
fill: none;
stroke: #02B5EE;
stroke-width: 0.73;
stroke-linecap: butt;
stroke-linejoin: miter;
}
]]></style>
</defs>
<path d="M193,83.4h900.3M193,111.6H978.6m-785.6,0H978.6M503.1,141.2V112m0,58.5V141.2m0,114.3v-85" class="g0_759"/>
<path d="M514.1,231.5h34.6" class="g1_759"/>
<path d="M598.9,219.8h68.8V186.9H598.9v32.9Z" class="g2_759"/>
<path d="M678.2,219.8H817.7V186.9H678.2v32.9Z" class="g3_759"/>
<path d="M831.9,219.7H934.8" class="g4_759"/>
<path d="M503.1,284.7V255.5m0,102.3V284.7" class="g0_759"/>
<path d="M624.9,329.7H757.3" class="g4_759"/>
<path d="M760.9,334h44.8V301.1H760.9V334Z" class="g3_759"/>
<path d="M811.8,334h99.1V301.1H811.8V334Z" class="g2_759"/>
<path d="M933.8,343.9h33.8" class="g5_759"/>
<path d="M503.1,387V357.8m0,58.4V387m0,114.2v-85" class="g0_759"/>
<path d="M574.9,477.3h79.2" class="g1_759"/>
<path d="M503.1,530.5V501.2m0,102.3v-73" class="g0_759"/>
<path d="M933.8,589.6h33.8" class="g5_759"/>
<path d="M503.1,634.9V603.5m0,60.6V634.9m0,58.4V664.1m0,58.4V693.3M193,722.9H978.6m-785.6,0H978.6" class="g0_759"/>
</svg>