<?xml version="1.0" encoding="UTF-8" standalone="no"?>
<!DOCTYPE svg PUBLIC "-//W3C//DTD SVG 1.1//EN"
"http://www.w3.org/Graphics/SVG/1.1/DTD/svg11.dtd">
<svg viewBox="0 0 1286 909" version="1.1" xmlns="http://www.w3.org/2000/svg" xmlns:xlink="http://www.w3.org/1999/xlink">
<defs>
<style type="text/css"><![CDATA[
.g0_1223{
fill: none;
stroke: #000000;
stroke-width: 0.73;
stroke-linecap: butt;
stroke-linejoin: miter;
}
.g1_1223{
fill: #FDE8E9;
}
]]></style>
</defs>
<path d="M193,83.4h900.3M203.9,114.7H397.1M203.9,144.3V115.1m70.6,29.2V115.1m122.6,29.2V115.1M203.9,176.9V144.3m70.6,32.6V144.3" class="g0_1223"/>
<path d="M285.4,173.7h73.5V144.3H285.4v29.4Z" class="g1_1223"/>
<path d="M397.1,176.9V144.3M203.9,206.2V176.9m70.6,29.3V176.9m122.6,29.3V176.9M203.9,235.4V206.2m70.6,29.2V206.2m122.6,29.2V206.2M203.9,268V235.4M274.5,268V235.4" class="g0_1223"/>
<path d="M285.4,264.7H381V235.4H285.4v29.3Z" class="g1_1223"/>
<path d="M397.1,268V235.4M203.9,297.3V268m70.6,29.3V268m122.6,29.3V268M203.9,326.5V297.3m70.6,29.2V297.3m122.6,29.2V297.3M203.9,359.1V326.5m70.6,32.6V326.5" class="g0_1223"/>
<path d="M285.4,355.8h98.1V326.5H285.4v29.3Z" class="g1_1223"/>
<path d="M397.1,359.1V326.5M203.9,388.3V359.1m70.6,29.2V359.1m122.6,29.2V359.1M203.9,417.6V388.3m70.6,29.3V388.3m122.6,29.3V388.3M203.9,450.2V417.6m70.6,32.6V417.6" class="g0_1223"/>
<path d="M285.4,446.9h62.9V417.6H285.4v29.3Z" class="g1_1223"/>
<path d="M397.1,450.2V417.6M203.9,479.4V450.2m70.6,29.2V450.2m122.6,29.2V450.2M203.9,508.7V479.4m70.6,29.3V479.4m122.6,29.3V479.4M203.9,538.8V508.7m70.6,30.1V508.7" class="g0_1223"/>
<path d="M285.4,535.5h58.1V512.2H285.4v23.3Z" class="g1_1223"/>
<path d="M397.1,538.8V508.7M203.9,568.1V538.8m70.6,29.3V538.8m122.6,29.3V538.8M203.9,597.3V568.1m70.6,29.2V568.1m122.6,29.2V568.1M203.9,629.9V597.3m70.6,32.6V597.3" class="g0_1223"/>
<path d="M285.4,626.6h82V597.3h-82v29.3Z" class="g1_1223"/>
<path d="M397.1,629.9V597.3M203.9,659.2V629.9m70.6,29.3V629.9m122.6,29.3V629.9M203.9,688.4V659.2m70.6,29.2V659.2m122.6,29.2V659.2M203.9,721V688.4M274.5,721V688.4" class="g0_1223"/>
<path d="M285.4,717.7H386.2V688.4H285.4v29.3Z" class="g1_1223"/>
<path d="M397.1,721V688.4M203.9,750.2V721m70.6,29.2V721m122.6,29.2V721M203.9,750.6H397.1m22,-641.1H700.5M419.1,139.1V109.9m119.2,29.2V109.9m162.2,29.2V109.9M419.1,173.7V139.1m119.2,34.6V139.1" class="g0_1223"/>
<path d="M549.2,173.7H689.5V139.1H549.2v34.6Z" class="g1_1223"/>
<path d="M700.5,173.7V139.1M419.1,203V173.7M538.3,203V173.7M700.5,203V173.7M419.1,232.2V203m119.2,29.2V203m162.2,29.2V203M419.1,264.8V232.2m119.2,32.6V232.2" class="g0_1223"/>
<path d="M549.2,261.5h99V232.2h-99v29.3Z" class="g1_1223"/>
<path d="M700.5,264.8V232.2M419.1,294V264.8M538.3,294V264.8M700.5,294V264.8M419.1,323.3V294m119.2,29.3V294m162.2,29.3V294M419.1,357.9V323.3m119.2,34.6V323.3" class="g0_1223"/>
<path d="M549.2,357.9H668V323.3H549.2v34.6Z" class="g1_1223"/>
<path d="M700.5,357.9V323.3M419.1,387.1V357.9m119.2,29.2V357.9m162.2,29.2V357.9M419.1,416.3V387.1m119.2,29.2V387.1m162.2,29.2V387.1M419.1,451V416.3M538.3,451V416.3" class="g0_1223"/>
<path d="M549.2,451H667.1V416.3H549.2V451Z" class="g1_1223"/>
<path d="M700.5,451V416.3M419.1,480.2V451m119.2,29.2V451m162.2,29.2V451M419.1,509.4V480.2m119.2,29.2V480.2m162.2,29.2V480.2M419.1,544V509.4M538.3,544V509.4" class="g0_1223"/>
<path d="M549.2,544h54V509.4h-54V544Z" class="g1_1223"/>
<path d="M700.5,544V509.4M419.1,573.2V544m119.2,29.2V544m162.2,29.2V544M419.1,602.5V573.2m119.2,29.3V573.2m162.2,29.3V573.2M419.1,635.1V602.5m119.2,32.6V602.5" class="g0_1223"/>
<path d="M549.2,631.8h59.1V602.5H549.2v29.3Z" class="g1_1223"/>
<path d="M700.5,635.1V602.5M419.1,664.3V635.1m119.2,29.2V635.1m162.2,29.2V635.1M419.1,693.6V664.3m119.2,29.3V664.3m162.2,29.3V664.3M419.1,726.2V693.6m119.2,32.6V693.6" class="g0_1223"/>
<path d="M549.2,722.9h85.1V693.6H549.2v29.3Z" class="g1_1223"/>
<path d="M700.5,726.2V693.6M419.1,755.4V726.2m119.2,29.2V726.2m162.2,29.2V726.2M419.1,755.8H700.5M722.4,111.5H973M722.4,141.1V111.9m94.9,29.2V111.9M973,141.1V111.9M722.4,175.7V141.1m94.9,34.6V141.1" class="g0_1223"/>
<path d="M828.2,175.7H941.5V141.1H828.2v34.6Z" class="g1_1223"/>
<path d="M973,175.7V141.1M722.4,204.9V175.7m94.9,29.2V175.7M973,204.9V175.7M722.4,234.2V204.9m94.9,29.3V204.9M973,234.2V204.9M722.4,266.8V234.2m94.9,32.6V234.2" class="g0_1223"/>
<path d="M828.2,263.5h84.1V234.2H828.2v29.3Z" class="g1_1223"/>
<path d="M973,266.8V234.2M722.4,296V266.8M817.3,296V266.8M973,296V266.8M722.4,325.2V296m94.9,29.2V296M973,325.2V296M722.4,357.9V325.2m94.9,32.7V325.2" class="g0_1223"/>
<path d="M828.2,354.6h94V325.2h-94v29.4Z" class="g1_1223"/>
<path d="M973,357.9V325.2M722.4,387.1V357.9m94.9,29.2V357.9M973,387.1V357.9M722.4,416.3V387.1m94.9,29.2V387.1M973,416.3V387.1M722.4,449V416.3M817.3,449V416.3" class="g0_1223"/>
<path d="M828.2,445.7h110V416.3h-110v29.4Z" class="g1_1223"/>
<path d="M973,449V416.3M722.4,478.2V449m94.9,29.2V449M973,478.2V449M722.4,507.4V478.2m94.9,29.2V478.2M973,507.4V478.2M722.4,542V507.4M817.3,542V507.4" class="g0_1223"/>
<path d="M828.2,542H962V507.4H828.2V542Z" class="g1_1223"/>
<path d="M973,542V507.4M722.4,571.3V542m94.9,29.3V542M973,571.3V542M722.4,600.5V571.3m94.9,29.2V571.3M973,600.5V571.3M722.4,633.1V600.5m94.9,32.6V600.5" class="g0_1223"/>
<path d="M828.2,629.8h48V600.5h-48v29.3Z" class="g1_1223"/>
<path d="M973,633.1V600.5M722.4,662.4V633.1m94.9,29.3V633.1M973,662.4V633.1M722.4,691.6V662.4m94.9,29.2V662.4M973,691.6V662.4M722.4,724.2V691.6m94.9,32.6V691.6" class="g0_1223"/>
<path d="M828.2,720.9h61.4V691.6H828.2v29.3Z" class="g1_1223"/>
<path d="M973,724.2V691.6M722.4,753.5V724.2m94.9,29.3V724.2M973,753.5V724.2M722.4,753.8H973" class="g0_1223"/>
</svg>