<?xml version="1.0" encoding="UTF-8" standalone="no"?>
<!DOCTYPE svg PUBLIC "-//W3C//DTD SVG 1.1//EN"
"http://www.w3.org/Graphics/SVG/1.1/DTD/svg11.dtd">
<svg viewBox="0 0 1286 909" version="1.1" xmlns="http://www.w3.org/2000/svg" xmlns:xlink="http://www.w3.org/1999/xlink">
<defs>
<style type="text/css"><![CDATA[
.g0_1033{
fill: none;
stroke: #000000;
stroke-width: 0.73;
stroke-linecap: butt;
stroke-linejoin: miter;
}
.g1_1033{
fill: #FFCCCC;
}
.g2_1033{
fill: none;
stroke: #F81693;
stroke-width: 1.461;
stroke-linecap: butt;
stroke-linejoin: miter;
stroke-dasharray: 2,2;
}
]]></style>
</defs>
<path d="M193,83.4h900.3M193,111.6H933m-740,0H933M587,141.2V112m0,58.5V141.2m0,63.9V170.5" class="g0_1033"/>
<path d="M608.5,204.4H746.2V171.5H608.5v32.9Z" class="g1_1033"/>
<path d="M760.3,204.3H918.4" class="g2_1033"/>
<path d="M587,234.3V205.1m0,62.1V234.3" class="g0_1033"/>
<path d="M739,262.8h32" class="g2_1033"/>
<path d="M780.7,267.2H922.1V234.3H780.7v32.9Z" class="g1_1033"/>
<path d="M587,296.4V267.2m0,58.4V296.4m0,59.4V325.6m0,59.4V355.8m0,58.4V385m0,63.8V414.2" class="g0_1033"/>
<path d="M790.6,448.1h32.8" class="g2_1033"/>
<path d="M848,448.2h74.1V415.3H848v32.9Z" class="g1_1033"/>
<path d="M587,479V448.8m0,63.1V479" class="g0_1033"/>
<path d="M713.7,507.5h65.7" class="g2_1033"/>
<path d="M789.2,511.9H922.1V479H789.2v32.9Z" class="g1_1033"/>
<path d="M587,541.1V511.9m0,58.4V541.1m0,60.1V570.3m0,60.1V601.2m0,58.4V630.4m0,63.2v-34" class="g0_1033"/>
<path d="M707.5,693.6H767V660.7H707.5v32.9Z" class="g1_1033"/>
<path d="M781.2,687.2H918.4" class="g2_1033"/>
<path d="M587,722.8V693.6m0,58.4V722.8M193,752.4H933m-740,0H933" class="g0_1033"/>
</svg>