<?xml version="1.0" encoding="UTF-8" standalone="no"?>
<!DOCTYPE svg PUBLIC "-//W3C//DTD SVG 1.1//EN"
"http://www.w3.org/Graphics/SVG/1.1/DTD/svg11.dtd">
<svg viewBox="0 0 1286 909" version="1.1" xmlns="http://www.w3.org/2000/svg" xmlns:xlink="http://www.w3.org/1999/xlink">
<defs>
<style type="text/css"><![CDATA[
.g0_49{
fill: none;
stroke: #000000;
stroke-width: 0.73;
stroke-linecap: butt;
stroke-linejoin: miter;
}
.g1_49{
fill: none;
stroke: #02B5EE;
stroke-width: 1.262;
stroke-linecap: butt;
stroke-linejoin: miter;
}
.g2_49{
fill: none;
stroke: #02B5EE;
stroke-width: 0.73;
stroke-linecap: butt;
stroke-linejoin: miter;
}
]]></style>
</defs>
<path d="M193,83.4h900.3M193,111.6h929.7m-929.7,0h929.7M457.9,141.2V112m0,114.3V141.2" class="g0_49"/>
<path d="M837.4,202.3H985.1" class="g1_49"/>
<path d="M457.9,255.5V226.3m0,102.2v-73" class="g0_49"/>
<path d="M892.2,314.7h219.6" class="g2_49"/>
<path d="M457.9,359.9V328.5m0,62.7V359.9m0,60.5V391.2m0,58.4V420.4m0,114.3V449.6" class="g0_49"/>
<path d="M941.1,510.7h44" class="g1_49"/>
<path d="M457.9,563.9V534.7m0,102.3V563.9" class="g0_49"/>
<path d="M1061.1,623.1h50.7" class="g2_49"/>
<path d="M457.9,668.3V637m0,62.6V668.3m0,60.5V699.6M193,729.2h929.7m-929.7,0h929.7" class="g0_49"/>
</svg>