<?xml version="1.0" encoding="UTF-8" standalone="no"?>
<!DOCTYPE svg PUBLIC "-//W3C//DTD SVG 1.1//EN"
"http://www.w3.org/Graphics/SVG/1.1/DTD/svg11.dtd">
<svg viewBox="0 0 1286 909" version="1.1" xmlns="http://www.w3.org/2000/svg" xmlns:xlink="http://www.w3.org/1999/xlink">
<defs>
<style type="text/css"><![CDATA[
.g0_1150{
fill: none;
stroke: #000000;
stroke-width: 0.73;
stroke-linecap: butt;
stroke-linejoin: miter;
}
.g1_1150{
fill: none;
stroke: #5EE200;
stroke-width: 0.73;
stroke-linecap: butt;
stroke-linejoin: miter;
}
.g2_1150{
fill: none;
stroke: #02B5EE;
stroke-width: 0.73;
stroke-linecap: butt;
stroke-linejoin: miter;
}
.g3_1150{
fill: none;
stroke: #02B5EE;
stroke-width: 1.262;
stroke-linecap: butt;
stroke-linejoin: miter;
}
]]></style>
</defs>
<path d="M193,83.4h900.3M193,111.6H1209.8M193,111.6H1209.8M696.5,141.2V112m0,102.3V141.2" class="g0_1150"/>
<path d="M1102.2,200.4H1136" class="g1_1150"/>
<path d="M1142.1,200.4H1159" class="g2_1150"/>
<path d="M1165.1,200.4h33.8" class="g1_1150"/>
<path d="M696.5,243.5V214.3m0,58.4V243.5m0,114.3V272.7" class="g0_1150"/>
<path d="M924.4,333.8h127.2" class="g3_1150"/>
<path d="M696.5,387V357.8m0,102.3V387" class="g0_1150"/>
<path d="M1115.4,446.2h83.5" class="g2_1150"/>
<path d="M696.5,489.3V460.1m0,58.4V489.3m0,114.2v-85" class="g0_1150"/>
<path d="M893.8,579.5H1021" class="g3_1150"/>
<path d="M696.5,632.7V603.5m0,102.3V632.7" class="g0_1150"/>
<path d="M1115.4,691.9h83.5" class="g2_1150"/>
<path d="M696.5,735V705.8M193,735.4H1209.8M193,735.4H1209.8" class="g0_1150"/>
</svg>