<?xml version="1.0" encoding="UTF-8" standalone="no"?>
<!DOCTYPE svg PUBLIC "-//W3C//DTD SVG 1.1//EN"
"http://www.w3.org/Graphics/SVG/1.1/DTD/svg11.dtd">
<svg viewBox="0 0 909 1286" version="1.1" xmlns="http://www.w3.org/2000/svg" xmlns:xlink="http://www.w3.org/1999/xlink">
<defs>
<style type="text/css"><![CDATA[
.g0_1{
fill: none;
stroke: #000000;
stroke-width: 0.73;
stroke-linecap: butt;
stroke-linejoin: miter;
}
.g1_1{
fill: #FFFFFF;
}
]]></style>
</defs>
<path d="M116.9,335.3H355.8m-99,29.6V335.7" class="g0_1"/>
<path d="M130.5,406.3V372.7c0,-2.9,2.3,-5.2,5.2,-5.2h102c2.8,0,5.2,2.3,5.2,5.2v33.6c0,2.8,-2.4,5.2,-5.2,5.2h-102c-2.9,0,-5.2,-2.4,-5.2,-5.2Z" class="g1_1"/>
<path d="M256.8,414.1V364.9m55.3,19.8l18.3,11m-31.1,-11l-18.2,11m-24.3,47.6V414.1M116.9,443.6H355.8m-99,29.6V444" class="g0_1"/>
<path d="M130.5,514.6V481c0,-2.8,2.3,-5.2,5.2,-5.2h78.8c2.9,0,5.2,2.4,5.2,5.2v33.6c0,2.9,-2.3,5.2,-5.2,5.2H135.7c-2.9,0,-5.2,-2.3,-5.2,-5.2Z" class="g1_1"/>
<path d="M256.8,522.4V473.2m55.3,19.9L330.4,504M299.3,493.1L281.1,504m-24.3,47.6V522.4M116.9,552H355.8m-99,29.6V552.3" class="g0_1"/>
<path d="M130.5,622.9V589.4c0,-2.9,2.3,-5.2,5.2,-5.2h86.1c2.8,0,5.2,2.3,5.2,5.2v33.5c0,2.9,-2.4,5.2,-5.2,5.2H135.7c-2.9,0,-5.2,-2.3,-5.2,-5.2Z" class="g1_1"/>
<path d="M256.8,630.7V581.6m55.3,19.8l18.3,10.9M299.3,601.4l-18.2,10.9m-24.3,47.6V630.7M116.9,660.3H355.8m-99,29.6V660.7" class="g0_1"/>
<path d="M130.5,731.3V697.7c0,-2.9,2.3,-5.2,5.2,-5.2h95.9c2.9,0,5.2,2.3,5.2,5.2v33.6c0,2.8,-2.3,5.2,-5.2,5.2H135.7c-2.9,0,-5.2,-2.4,-5.2,-5.2Z" class="g1_1"/>
<path d="M256.8,739V689.9m55.3,19.8l18.3,11m-31.1,-11l-18.2,11m-24.3,47.6V739M116.9,768.6H355.8" class="g0_1"/>
</svg>