<?xml version="1.0" encoding="UTF-8" standalone="no"?>
<!DOCTYPE svg PUBLIC "-//W3C//DTD SVG 1.1//EN"
"http://www.w3.org/Graphics/SVG/1.1/DTD/svg11.dtd">
<svg viewBox="0 0 1286 909" version="1.1" xmlns="http://www.w3.org/2000/svg" xmlns:xlink="http://www.w3.org/1999/xlink">
<defs>
<style type="text/css"><![CDATA[
.g0_431{
fill: none;
stroke: #000000;
stroke-width: 0.73;
stroke-linecap: butt;
stroke-linejoin: miter;
}
.g1_431{
fill: #FFCCCC;
}
.g2_431{
fill: none;
stroke: #02B5EE;
stroke-width: 0.73;
stroke-linecap: butt;
stroke-linejoin: miter;
}
.g3_431{
fill: none;
stroke: #02B5EE;
stroke-width: 1.262;
stroke-linecap: butt;
stroke-linejoin: miter;
}
]]></style>
</defs>
<path d="M193,83.4h900.3M193,111.6h904.4m-904.4,0h904.4M568.8,141.2V112m0,58.5V141.2m0,102.3v-73" class="g0_431"/>
<path d="M893.7,219.8h158.9V186.9H893.7v32.9Z" class="g1_431"/>
<path d="M1052.6,229.6h33.8" class="g2_431"/>
<path d="M568.8,272.7V243.5m0,58.5V272.7m0,60.6V302m0,60.5V333.3m0,58.4V362.5m0,114.3V391.7" class="g0_431"/>
<path d="M855.7,452.8h63.6" class="g3_431"/>
<path d="M568.8,506.9V476.8m0,103.2V506.9" class="g0_431"/>
<path d="M1052.6,566.1h33.8" class="g2_431"/>
<path d="M568.8,609.2V580m0,58.4V609.2m0,114.3V638.4" class="g0_431"/>
<path d="M803.7,699.5h63.6" class="g3_431"/>
<path d="M568.8,752.7V723.5M193,753.1h904.4m-904.4,0h904.4" class="g0_431"/>
</svg>