<?xml version="1.0" encoding="UTF-8" standalone="no"?>
<!DOCTYPE svg PUBLIC "-//W3C//DTD SVG 1.1//EN"
"http://www.w3.org/Graphics/SVG/1.1/DTD/svg11.dtd">
<svg viewBox="0 0 909 1286" version="1.1" xmlns="http://www.w3.org/2000/svg" xmlns:xlink="http://www.w3.org/1999/xlink">
<defs>
<style type="text/css"><![CDATA[
.g0_63{
fill: none;
stroke: #000000;
stroke-width: 0.73;
stroke-linecap: butt;
stroke-linejoin: miter;
}
.g1_63{
fill: #FDE8E9;
}
]]></style>
</defs>
<path d="M116.9,159.9H792.5" class="g0_63"/>
<path d="M475.8,268.8H621.9V240.9H475.8v27.9Z" class="g1_63"/>
<path d="M116.9,356.5h95.4V328.6H116.9v27.9Z" class="g1_63"/>
<path d="M116.9,415.4H313.7V387.5H116.9v27.9Z" class="g1_63"/>
<path d="M116.9,503H263V475.2H116.9V503Z" class="g1_63"/>
<path d="M116.9,590.7H229.2V562.8H116.9v27.9Z" class="g1_63"/>
<path d="M454.5,590.7H566.8V562.8H454.5v27.9Z" class="g1_63"/>
<path d="M116.9,649.1h95.4V621.3H116.9v27.8Z" class="g1_63"/>
<path d="M261.5,649.1h95.4V621.3H261.5v27.8Z" class="g1_63"/>
<path d="M150.7,678.8H263V651H150.7v27.8Z" class="g1_63"/>
<path d="M116.9,737.7H296.8V709.9H116.9v27.8Z" class="g1_63"/>
<path d="M629.6,737.7H758.8V709.9H629.6v27.8Z" class="g1_63"/>
<path d="M116.9,934.8h48.2V911H116.9v23.8Z" class="g1_63"/>
<path d="M182,939H375.9V911H182v28Z" class="g1_63"/>
<path d="M392.8,936.8H623.3V909H392.8v27.8Z" class="g1_63"/>
<path d="M116.9,964.6h41.6V940.8H116.9v23.8Z" class="g1_63"/>
<path d="M171.2,968.8H363.6v-28H171.2v28Z" class="g1_63"/>
<path d="M167.6,1039.6H263v-27.8H167.6v27.8Z" class="g1_63"/>
<path d="M465.7,1039.6h61.6v-27.8H465.7v27.8Z" class="g1_63"/>
<path d="M167.6,1069.3H279.9v-27.8H167.6v27.8Z" class="g1_63"/>
<path d="M167.6,1099h61.6v-27.9H167.6V1099Z" class="g1_63"/>
<path d="M364.3,1099H493.5v-27.9H364.3V1099Z" class="g1_63"/>
<path d="M167.6,1128.7H263v-27.9H167.6v27.9Z" class="g1_63"/>
<path d="M279.9,1128.7h61.6v-27.9H279.9v27.9Z" class="g1_63"/>
</svg>