<?xml version="1.0" encoding="UTF-8" standalone="no"?>
<!DOCTYPE svg PUBLIC "-//W3C//DTD SVG 1.1//EN"
"http://www.w3.org/Graphics/SVG/1.1/DTD/svg11.dtd">
<svg viewBox="0 0 909 1286" version="1.1" xmlns="http://www.w3.org/2000/svg" xmlns:xlink="http://www.w3.org/1999/xlink">
<defs>
<style type="text/css"><![CDATA[
.g0_23{
fill: none;
stroke: #000000;
stroke-width: 0.73;
stroke-linecap: butt;
stroke-linejoin: miter;
}
.g1_23{
fill: none;
stroke: #F81693;
stroke-width: 2.598;
stroke-linecap: butt;
stroke-linejoin: miter;
}
.g2_23{
fill: none;
stroke: #FFA313;
stroke-width: 5.197;
stroke-linecap: butt;
stroke-linejoin: miter;
}
.g3_23{
fill: #FFA313;
stroke: #FFA313;
stroke-width: 5.197;
stroke-linecap: butt;
stroke-linejoin: miter;
}
.g4_23{
fill: #FFF200;
stroke: #FF0000;
stroke-width: 3.653;
stroke-linecap: butt;
stroke-linejoin: miter;
}
.g5_23{
fill: none;
stroke: #02B5EE;
stroke-width: 2.598;
stroke-linecap: butt;
stroke-linejoin: miter;
}
.g6_23{
fill: none;
stroke: #7F7F7F;
stroke-width: 2.598;
stroke-linecap: butt;
stroke-linejoin: miter;
}
]]></style>
</defs>
<path d="M116.9,159.9H792.5M151.1,367H291.4V226.7H151.1ZM338.2,320.2H197.9V179.9H338.2Zm0,0L291.4,367M338.2,179.9l-46.8,46.8m-140.3,0l46.8,-46.8M151.1,367l46.8,-46.8" class="g0_23"/>
<path d="M221.2,273.4h67.1m-6.7,-7.9l8,7.9l-8,8" class="g1_23"/>
<path d="M463.2,273.4h67.2" class="g2_23"/>
<path d="M447.6,273.4c1.9,.5,10.3,3.3,15.6,6.3V267.1c-5.3,3.1,-13.7,5.8,-15.6,6.3Z" class="g3_23"/>
<path d="M510.9,273.4l9.4,3l-5,5.1l6.4,.5l-7.9,10.6l10.5,-6.2l-1.7,8.2l5,-5.5l1.2,8.4l2.6,-7.9l3.7,6L535,288l8.5,7.5L538,284.4h5.1L540,279.3l11.3,-.9l-10.6,-5l6.7,-4.2L540,267.6l3.1,-5.2l-5.1,.1l3.5,-8.4l-6.5,4.8L536.3,247l-4.9,10.3l-2.3,-4.9l-1.5,5.4l-6.1,-7.6l2.8,10.3L517,257.1l4.7,7.8l-10.8,-1.2l9.4,6.7Z" class="g4_23"/>
<path d="M366.7,367H507.1V226.7H366.7ZM553.8,320.2H413.5V179.9H553.8Zm0,0L507.1,367M553.8,179.9l-46.7,46.8m-140.4,0l46.8,-46.8M366.7,367l46.8,-46.8M582.4,367H722.7V226.7H582.4ZM769.5,320.2H629.2V179.9H769.5Zm0,0L722.7,367M769.5,179.9l-46.8,46.8m-140.3,0l46.8,-46.8M582.4,367l46.8,-46.8" class="g0_23"/>
<path d="M608.9,273.4h60m-53.3,8l-8,-8l8,-7.9" class="g5_23"/>
<path d="M183,872.7H323.3V732.3H183ZM370.1,825.9H229.8V685.6H370.1Zm0,0l-46.8,46.8M370.1,685.6l-46.8,46.7m-140.3,0l46.8,-46.7M183,872.7l46.8,-46.8" class="g0_23"/>
<path d="M323.3,814.2H186.1m6.7,7.9l-8,-7.9l8,-8" class="g6_23"/>
<path d="M661,779.1l9.5,3l-5.1,5l6.5,.6L664,798.3l10.4,-6.2l-1.7,8.2l5.1,-5.6l1.1,8.5l2.6,-7.9l3.8,5.9l-.1,-7.6l8.4,7.5l-5.4,-11h5l-3,-5.1l11.2,-.9l-10.5,-5l6.7,-4.3l-7.4,-1.6l3.1,-5.1l-5.1,.1l3.4,-8.5l-6.4,4.9l1.3,-11.9l-5,10.2l-2.3,-4.8l-1.4,5.4l-6.1,-7.6l2.7,10.2l-7.3,-3.3l4.8,7.8l-10.8,-1.2l9.4,6.7Z" class="g4_23"/>
<path d="M540.3,872.7H680.6V732.3H540.3ZM727.4,825.9H587.1V685.6H727.4Zm0,0l-46.8,46.8M727.4,685.6l-46.8,46.7m-140.3,0l46.8,-46.7M540.3,872.7l46.8,-46.8" class="g0_23"/>
<path d="M540.3,814.2H677.5m-6.7,-8l8,8l-8,7.9" class="g6_23"/>
<path d="M419.8,1085.7H642.6" class="g0_23"/>
</svg>