<?xml version="1.0" encoding="UTF-8" standalone="no"?>
<!DOCTYPE svg PUBLIC "-//W3C//DTD SVG 1.1//EN"
"http://www.w3.org/Graphics/SVG/1.1/DTD/svg11.dtd">
<svg viewBox="0 0 1286 909" version="1.1" xmlns="http://www.w3.org/2000/svg" xmlns:xlink="http://www.w3.org/1999/xlink">
<defs>
<style type="text/css"><![CDATA[
.g0_326{
fill: none;
stroke: #000000;
stroke-width: 0.73;
stroke-linecap: butt;
stroke-linejoin: miter;
}
.g1_326{
fill: none;
stroke: #02B5EE;
stroke-width: 1.262;
stroke-linecap: butt;
stroke-linejoin: miter;
}
.g2_326{
fill: none;
stroke: #5EE200;
stroke-width: 1.262;
stroke-linecap: butt;
stroke-linejoin: miter;
}
.g3_326{
fill: none;
stroke: #5EE200;
stroke-width: 0.73;
stroke-linecap: butt;
stroke-linejoin: miter;
}
.g4_326{
fill: none;
stroke: #02B5EE;
stroke-width: 0.73;
stroke-linecap: butt;
stroke-linejoin: miter;
}
.g5_326{
fill: #FFCCCC;
}
]]></style>
</defs>
<path d="M193,83.4h900.3M193,210.6H815.9m-622.9,0H815.9m-358,29.6V211m0,58.5V240.2m0,114.3v-85" class="g0_326"/>
<path d="M621.2,330.5H772" class="g1_326"/>
<path d="M782.5,330.5h22.4" class="g2_326"/>
<path d="M457.9,383.7V354.5m0,102.3V383.7" class="g0_326"/>
<path d="M468.9,442.9h34.4" class="g3_326"/>
<path d="M509.4,442.9H804.9" class="g4_326"/>
<path d="M457.9,488.1V456.8m0,60.5V488.1m0,58.4V517.3m0,114.3V546.5" class="g0_326"/>
<path d="M568.8,607.6h73.8" class="g1_326"/>
<path d="M653.1,607.6h22.1" class="g2_326"/>
<path d="M696.2,595.8H804.9V563H696.2v32.8Z" class="g5_326"/>
<path d="M457.9,660.8V631.6m0,102.2v-73" class="g0_326"/>
<path d="M563.5,720h34.2" class="g3_326"/>
<path d="M603.8,710.1H771.2V677.2H603.8v32.9Z" class="g5_326"/>
<path d="M771.2,720h33.7" class="g4_326"/>
<path d="M457.9,763.1V733.8M193,763.4H815.9m-622.9,0H815.9" class="g0_326"/>
</svg>