<?xml version="1.0" encoding="UTF-8" standalone="no"?>
<!DOCTYPE svg PUBLIC "-//W3C//DTD SVG 1.1//EN"
"http://www.w3.org/Graphics/SVG/1.1/DTD/svg11.dtd">
<svg viewBox="0 0 1286 909" version="1.1" xmlns="http://www.w3.org/2000/svg" xmlns:xlink="http://www.w3.org/1999/xlink">
<defs>
<style type="text/css"><![CDATA[
.g0_479{
fill: none;
stroke: #000000;
stroke-width: 0.73;
stroke-linecap: butt;
stroke-linejoin: miter;
}
.g1_479{
fill: none;
stroke: #5EE200;
stroke-width: 1.461;
stroke-linecap: butt;
stroke-linejoin: miter;
stroke-dasharray: 2,2;
}
.g2_479{
fill: #AEF080;
}
.g3_479{
fill: none;
stroke: #5EE200;
stroke-width: 0.73;
stroke-linecap: butt;
stroke-linejoin: miter;
}
.g4_479{
fill: none;
stroke: #02B5EE;
stroke-width: 0.73;
stroke-linecap: butt;
stroke-linejoin: miter;
}
.g5_479{
fill: #E6CEEE;
}
.g6_479{
fill: none;
stroke: #02B5EE;
stroke-width: 1.262;
stroke-linecap: butt;
stroke-linejoin: miter;
}
]]></style>
</defs>
<path d="M193,83.4h900.3M193,111.6h915.3m-915.3,0h915.3M576.4,141.2V112m0,102.3V141.2" class="g0_479"/>
<path d="M718.2,186.2h66.4" class="g1_479"/>
<path d="M788.3,190.6h213.6V157.7H788.3v32.9Z" class="g2_479"/>
<path d="M714.6,200.4h287.3" class="g3_479"/>
<path d="M1001.9,200.4h33.8" class="g4_479"/>
<path d="M1052.6,190.6h44.7V157.7h-44.7v32.9Z" class="g5_479"/>
<path d="M576.4,243.5V214.3m0,58.4V243.5m0,114.3V272.7" class="g0_479"/>
<path d="M718.5,322.1h95.4V289.2H718.5v32.9Z" class="g5_479"/>
<path d="M853.6,333.8h83.6" class="g6_479"/>
<path d="M576.4,387V357.8m0,102.3V387" class="g0_479"/>
<path d="M934.3,446.2h33.8" class="g4_479"/>
<path d="M985,436.3h112.3V403.4H985v32.9Z" class="g5_479"/>
<path d="M576.4,489.3V460.1m0,58.4V489.3m0,114.2v-85" class="g0_479"/>
<path d="M682.8,567.8h95.4V534.9H682.8v32.9Z" class="g5_479"/>
<path d="M817.9,579.5H937.2" class="g6_479"/>
<path d="M576.4,632.7V603.5m0,102.3V632.7" class="g0_479"/>
<path d="M917.5,691.9h50.6" class="g4_479"/>
<path d="M985,682.1h112.3V649.2H985v32.9Z" class="g5_479"/>
<path d="M576.4,735V705.8M193,735.4h915.3m-915.3,0h915.3" class="g0_479"/>
</svg>