<?xml version="1.0" encoding="UTF-8" standalone="no"?>
<!DOCTYPE svg PUBLIC "-//W3C//DTD SVG 1.1//EN"
"http://www.w3.org/Graphics/SVG/1.1/DTD/svg11.dtd">
<svg viewBox="0 0 1286 909" version="1.1" xmlns="http://www.w3.org/2000/svg" xmlns:xlink="http://www.w3.org/1999/xlink">
<defs>
<style type="text/css"><![CDATA[
.g0_107{
fill: none;
stroke: #000000;
stroke-width: 0.73;
stroke-linecap: butt;
stroke-linejoin: miter;
}
.g1_107{
fill: none;
stroke: #02B5EE;
stroke-width: 1.262;
stroke-linecap: butt;
stroke-linejoin: miter;
}
.g2_107{
fill: none;
stroke: #02B5EE;
stroke-width: 0.73;
stroke-linecap: butt;
stroke-linejoin: miter;
}
]]></style>
</defs>
<path d="M193,83.4h900.3M193,210.6H798.1m-605.1,0H798.1M484.6,240.2V211m0,58.5V240.2m0,114.3v-85" class="g0_107"/>
<path d="M598.6,330.5h59.2" class="g1_107"/>
<path d="M484.6,383.7V354.5m0,102.3V383.7" class="g0_107"/>
<path d="M719.6,442.9h67.5" class="g2_107"/>
<path d="M484.6,488.1V456.8m0,60.5V488.1m0,58.4V517.3m0,114.3V546.5" class="g0_107"/>
<path d="M624.7,607.6h47.9" class="g1_107"/>
<path d="M484.6,660.8V631.6m0,58.4V660.8m0,58.4V690m0,58.5V719.2M193,748.8H798.1m-605.1,0H798.1" class="g0_107"/>
</svg>