<?xml version="1.0" encoding="UTF-8" standalone="no"?>
<!DOCTYPE svg PUBLIC "-//W3C//DTD SVG 1.1//EN"
"http://www.w3.org/Graphics/SVG/1.1/DTD/svg11.dtd">
<svg viewBox="0 0 909 1286" version="1.1" xmlns="http://www.w3.org/2000/svg" xmlns:xlink="http://www.w3.org/1999/xlink">
<defs>
<style type="text/css"><![CDATA[
.g0_2{
fill: none;
stroke: #000000;
stroke-width: 0.73;
stroke-linecap: butt;
stroke-linejoin: miter;
}
.g1_2{
fill: none;
stroke: #5EE200;
stroke-width: 0.73;
stroke-linecap: butt;
stroke-linejoin: miter;
}
]]></style>
</defs>
<path d="M116.9,179.9H855.1M424.7,209.5V180.3m-249,151.6l47.5,-27.4m0,0l47.4,27.4m0,0l47.5,-27.4m0,0l47.4,27.4m0,0L413,304.5m0,0V249.7m0,0L365.5,222.3m0,0l-47.4,27.4m0,0L270.6,222.3m0,0l-47.4,27.4m0,0L175.7,222.3m0,0l-47.4,27.4m0,0v54.8m0,0l47.4,27.4m249,8.7V209.5M573.2,318.1l22.1,-12.7m25.4,0l22.1,12.8m25.3,0l22.1,-12.8m25.4,0l26.8,15.5m15.9,0l31.5,-18.2m8,-14.7V253.3m-7.9,-14.6L758.3,220.5m-15.9,0l-31.6,18.2m-15.8,0L663.4,220.5m-15.9,0l-31.6,18.2m-15.9,0L568.5,220.5m-15.9,0L521,238.7m-7.9,14.6V288m34.7,30.1l-22,-12.7M424.7,369.8V340.6m0,58.5V369.8m0,58.5V399.1m0,58.4V428.3m0,58.4V457.5m0,58.5V486.7m0,58.5V516m0,58.4V545.2M116.9,574.8H855.1M424.7,604.4V575.1M201,647.1l31.2,18.6m0,36.8V665.9M201,721.3l31.2,-18.7M201,721.3L169.7,702.6m0,-.1V665.9M201,647.1l-31.3,18.6m32.4,-10.9l23,13.7m-23,45.1l23,-13.7m199.6,74V604.4" class="g0_2"/>
<path d="M562.8,752.5l31.6,-18.2m-29.8,21.4l31.6,-18.2" class="g1_2"/>
<path d="M603.2,721.3V686.6" class="g0_2"/>
<path d="M594.4,673.5L562.8,655.3m33.4,15.1L564.6,652.1" class="g1_2"/>
<path d="M547.9,653.7l-31.6,18.2m-8,14.7v34.7m39.5,32.8L516.3,735.9m-91.6,67.2V773.9m0,58.4V803.1m0,58.4V832.3m0,58.5V861.5m0,58.5V890.8m0,58.4V920m0,58.4V949.2m0,58.5V978.4M116.9,1008H855.1" class="g0_2"/>
</svg>