<?xml version="1.0" encoding="UTF-8" standalone="no"?>
<!DOCTYPE svg PUBLIC "-//W3C//DTD SVG 1.1//EN"
"http://www.w3.org/Graphics/SVG/1.1/DTD/svg11.dtd">
<svg viewBox="0 0 1286 909" version="1.1" xmlns="http://www.w3.org/2000/svg" xmlns:xlink="http://www.w3.org/1999/xlink">
<defs>
<style type="text/css"><![CDATA[
.g0_1156{
fill: none;
stroke: #000000;
stroke-width: 0.73;
stroke-linecap: butt;
stroke-linejoin: miter;
}
.g1_1156{
fill: #E6CEEE;
}
.g2_1156{
fill: none;
stroke: #F81693;
stroke-width: 1.461;
stroke-linecap: butt;
stroke-linejoin: miter;
}
]]></style>
</defs>
<path d="M193,83.4h900.3M193,210.6H843.2m-650.2,0H843.2M595.5,240.2V211m0,58.5V240.2m0,62.1V269.5" class="g0_1156"/>
<path d="M705.7,302.3h76.1V269.5H705.7v32.8Z" class="g1_1156"/>
<path d="M595.5,332.5V302.3m0,60.4V332.5m0,60.3V362.7m0,60.3V392.8m0,60.4V423m0,59.4V453.2m0,58.4V482.4m0,58.4V511.6m0,60.1V540.8" class="g0_1156"/>
<path d="M704.9,570.2c1.4,0,2.1,-2.7,3.5,-2.7c1,0,1.8,1.4,2.7,2.7c.9,1.4,1.7,2.8,2.7,2.8c1,0,1.9,-1.4,2.8,-2.8c.8,-1.3,1.7,-2.7,2.7,-2.7c1,0,1.9,1.4,2.8,2.7c.8,1.4,1.7,2.8,2.7,2.8c1,0,1.9,-1.4,2.7,-2.8c.9,-1.3,1.8,-2.7,2.8,-2.7c1,0,1.8,1.4,2.7,2.7c.9,1.4,1.8,2.8,2.8,2.8c1,0,1.8,-1.4,2.7,-2.8c.9,-1.3,1.7,-2.7,2.7,-2.7c1,0,1.9,1.4,2.8,2.7c.8,1.4,1.7,2.8,2.7,2.8c1,0,1.9,-1.4,2.8,-2.8c.8,-1.3,1.7,-2.7,2.7,-2.7c1,0,1.9,1.4,2.7,2.7c.9,1.4,1.8,2.8,2.8,2.8c1,0,1.8,-1.4,2.7,-2.8c.9,-1.3,1.8,-2.7,2.8,-2.7c1.3,0,2,2.7,3.4,2.7" class="g2_1156"/>
<path d="M595.5,600.9V571.7m0,58.4V600.9m0,62.1V630.1" class="g0_1156"/>
<path d="M648.8,663h133V630.1h-133V663Z" class="g1_1156"/>
<path d="M595.5,693.2V663m0,59.4V693.2m0,58.4V722.4M193,752H843.2M193,752H843.2" class="g0_1156"/>
</svg>