<?xml version="1.0" encoding="UTF-8" standalone="no"?>
<!DOCTYPE svg PUBLIC "-//W3C//DTD SVG 1.1//EN"
"http://www.w3.org/Graphics/SVG/1.1/DTD/svg11.dtd">
<svg viewBox="0 0 909 1286" version="1.1" xmlns="http://www.w3.org/2000/svg" xmlns:xlink="http://www.w3.org/1999/xlink">
<defs>
<style type="text/css"><![CDATA[
.g0_19{
fill: none;
stroke: #000000;
stroke-width: 0.73;
stroke-linecap: butt;
stroke-linejoin: miter;
}
.g1_19{
fill: none;
stroke: #02B5EE;
stroke-width: 0.73;
stroke-linecap: butt;
stroke-linejoin: miter;
}
.g2_19{
fill: none;
stroke: #F81693;
stroke-width: 0.73;
stroke-linecap: butt;
stroke-linejoin: miter;
}
.g3_19{
fill: none;
stroke: #02B5EE;
stroke-width: 1.461;
stroke-linecap: butt;
stroke-linejoin: miter;
}
.g4_19{
fill: none;
stroke: #F81693;
stroke-width: 1.461;
stroke-linecap: butt;
stroke-linejoin: miter;
}
.g5_19{
fill: #FFFFFF;
}
.g6_19{
fill: #FDE8E9;
}
]]></style>
</defs>
<path d="M116.9,179.9H719.4M325.5,209.5V180.3M166.3,223.9l31.2,18.6m0,36.8V242.7m-31.2,55.4l31.2,-18.7m-31.2,18.7L135,279.4m0,-.1V242.7m31.3,-18.8L135,242.5m32.4,-10.9l23,13.7m-23,45.1l23,-13.7M141,274.5v-27m87.7,50.6L260,279.4m-31.3,18.7L197.5,279.4m62.5,-.1l24.8,14.8m-27,-14.8V253.7m4.4,25.6V253.7m-35.7,44.4v25.5m4.4,-25.5v25.5m94.6,22.5V209.5" class="g0_19"/>
<path d="M415.1,223.9l31.2,18.6m0,36.8V242.7m-31.2,55.4l31.2,-18.7m-31.2,18.7L383.8,279.4m0,-.1V242.7m31.3,-18.8l-31.3,18.6m32.4,-10.9l23,13.7m-23,45.1l23,-13.7m-49.3,-2.2v-27" class="g1_19"/>
<path d="M483.9,294.2l18.3,-10.9" class="g2_19"/>
<path d="M471.2,294.2L445.9,279.3" class="g1_19"/>
<path d="M515.2,283.1l18.2,11M506.6,273.8V253.7m4.4,20.1V253.7m-35.6,49.9v20m4.3,-20v20" class="g2_19"/>
<path d="M325.5,375.3V346.1m0,58.5V375.3m0,58.5V404.6m0,58.4V433.8" class="g0_19"/>
<path d="M391.4,461.5c1.4,0,2.1,-2.7,3.5,-2.7c1,0,1.8,1.3,2.7,2.7c.9,1.4,1.8,2.8,2.7,2.8c1,0,1.9,-1.4,2.8,-2.8c.9,-1.4,1.7,-2.7,2.7,-2.7c1.4,0,2.1,2.7,3.4,2.7h3.9" class="g3_19"/>
<path d="M502.7,466.8c1.4,0,2.1,-2.7,3.5,-2.7c1,0,1.8,1.3,2.7,2.7c.9,1.4,1.8,2.7,2.8,2.7c.9,0,1.8,-1.3,2.7,-2.7c.9,-1.4,1.7,-2.7,2.7,-2.7c1,0,1.9,1.3,2.8,2.7c.9,1.4,1.7,2.7,2.7,2.7c1,0,1.9,-1.3,2.7,-2.7c.9,-1.4,1.8,-2.7,2.8,-2.7c1,0,1.8,1.3,2.7,2.7c.9,1.4,1.8,2.7,2.8,2.7c1,0,1.8,-1.3,2.7,-2.7c.9,-1.4,1.8,-2.7,2.7,-2.7c1,0,1.9,1.3,2.8,2.7c.9,1.4,1.7,2.7,2.7,2.7c1,0,1.9,-1.3,2.8,-2.7c.9,-1.4,1.7,-2.7,2.7,-2.7c1,0,1.9,1.3,2.7,2.7c.9,1.4,1.8,2.7,2.8,2.7c1,0,1.8,-1.3,2.7,-2.7c.9,-1.4,1.8,-2.7,2.8,-2.7c1,0,1.8,1.3,2.7,2.7c.9,1.4,1.8,2.7,2.7,2.7c1,0,1.9,-1.3,2.8,-2.7c.9,-1.4,1.7,-2.7,2.7,-2.7c1,0,1.9,1.3,2.8,2.7c.9,1.4,1.7,2.7,2.7,2.7c1,0,1.9,-1.3,2.7,-2.7c.9,-1.4,1.8,-2.7,2.8,-2.7c1,0,1.8,1.3,2.7,2.7c.9,1.4,1.8,2.7,2.8,2.7c1,0,1.8,-1.3,2.7,-2.7c.9,-1.4,1.8,-2.7,2.7,-2.7c1,0,1.9,1.3,2.8,2.7c.9,1.4,1.7,2.7,2.7,2.7c1,0,1.9,-1.3,2.8,-2.7c.9,-1.4,1.7,-2.7,2.7,-2.7c1,0,1.8,1.3,2.7,2.7c.9,1.4,1.8,2.7,2.8,2.7c1,0,1.8,-1.3,2.7,-2.7c.9,-1.4,1.8,-2.7,2.8,-2.7c1,0,1.8,1.3,2.7,2.7c.9,1.4,1.7,2.7,2.7,2.7c1,0,1.9,-1.3,2.8,-2.7c.9,-1.4,1.7,-2.7,2.7,-2.7c1,0,1.9,1.3,2.8,2.7c.9,1.4,1.7,2.7,2.7,2.7c1.4,0,2.1,-2.7,3.4,-2.7h4.1" class="g4_19"/>
<path d="M325.5,492.2V463m0,105.7V492.2" class="g0_19"/>
<path d="M403.1,561V500c0,-2.8,2.4,-5.2,5.2,-5.2H606.8c2.9,0,5.2,2.4,5.2,5.2v61c0,2.8,-2.3,5.2,-5.2,5.2H408.3c-2.8,0,-5.2,-2.4,-5.2,-5.2Z" class="g5_19"/>
<path d="M475.1,591.6H540V575.2H475.1v16.4Z" class="g6_19"/>
<path d="M429.1,550.6H586V510.4H429.1v40.2Z" class="g6_19"/>
<path d="M325.5,598V568.7M116.9,598.3H719.4" class="g0_19"/>
</svg>