<?xml version="1.0" encoding="UTF-8" standalone="no"?>
<!DOCTYPE svg PUBLIC "-//W3C//DTD SVG 1.1//EN"
"http://www.w3.org/Graphics/SVG/1.1/DTD/svg11.dtd">
<svg viewBox="0 0 1286 909" version="1.1" xmlns="http://www.w3.org/2000/svg" xmlns:xlink="http://www.w3.org/1999/xlink">
<defs>
<style type="text/css"><![CDATA[
.g0_86{
fill: none;
stroke: #000000;
stroke-width: 0.73;
stroke-linecap: butt;
stroke-linejoin: miter;
}
.g1_86{
fill: #B3E9FA;
}
.g2_86{
fill: none;
stroke: #02B5EE;
stroke-width: 1.262;
stroke-linecap: butt;
stroke-linejoin: miter;
}
.g3_86{
fill: none;
stroke: #5EE200;
stroke-width: 1.262;
stroke-linecap: butt;
stroke-linejoin: miter;
}
]]></style>
</defs>
<path d="M193,83.4h900.3M193,111.6h865.7m-865.7,0h865.7M587.2,141.2V112m0,114.3V141.2" class="g0_86"/>
<path d="M600.8,176.5V164.3c0,-2.9,2.3,-5.2,5.2,-5.2h74c2.9,0,5.2,2.3,5.2,5.2v12.2c0,2.9,-2.3,5.2,-5.2,5.2H606c-2.9,0,-5.2,-2.3,-5.2,-5.2Z" class="g1_86"/>
<path d="M598.2,202.3h89.6" class="g2_86"/>
<path d="M698.3,202.3h349.4" class="g3_86"/>
<path d="M587.2,255.5V226.3M193,255.9h865.7m-865.7,0h865.7" class="g0_86"/>
</svg>