<?xml version="1.0" encoding="UTF-8" standalone="no"?>
<!DOCTYPE svg PUBLIC "-//W3C//DTD SVG 1.1//EN"
"http://www.w3.org/Graphics/SVG/1.1/DTD/svg11.dtd">
<svg viewBox="0 0 1286 909" version="1.1" xmlns="http://www.w3.org/2000/svg" xmlns:xlink="http://www.w3.org/1999/xlink">
<defs>
<style type="text/css"><![CDATA[
.g0_1190{
fill: none;
stroke: #000000;
stroke-width: 0.73;
stroke-linecap: butt;
stroke-linejoin: miter;
}
.g1_1190{
fill: none;
stroke: #000000;
stroke-width: 0.657;
stroke-linecap: butt;
stroke-linejoin: miter;
}
.g2_1190{
fill: #FDE8E9;
}
]]></style>
</defs>
<path d="M193,83.4h900.3" class="g0_1190"/>
<path d="M202.8,111.3h311m-311,26.6V111.6m183.9,26.3V111.6m127.1,26.3V111.6M202.8,169V137.9M386.7,169V137.9" class="g1_1190"/>
<path d="M396.6,169h74.9V137.9H396.6V169Z" class="g2_1190"/>
<path d="M513.8,169V137.9m-311,57.4V169m183.9,26.3V169m127.1,26.3V169m-311,52.7V195.3m183.9,26.4V195.3m127.1,26.4V195.3M202.8,251V221.7M386.7,251V221.7" class="g1_1190"/>
<path d="M396.6,248.1h87.8V221.7H396.6v26.4Z" class="g2_1190"/>
<path d="M513.8,251V221.7m-311,55.6V251m183.9,26.3V251m127.1,26.3V251m-311,52.6V277.3m183.9,26.3V277.3m127.1,26.3V277.3M202.8,333V303.6M386.7,333V303.6" class="g1_1190"/>
<path d="M396.6,330.1h66.9V303.6H396.6v26.5Z" class="g2_1190"/>
<path d="M513.8,333V303.6m-311,55.7V333m183.9,26.3V333m127.1,26.3V333m-311,52.6V359.3m183.9,26.3V359.3m127.1,26.3V359.3M202.8,415V385.6M386.7,415V385.6" class="g1_1190"/>
<path d="M396.6,412h48.5V385.6H396.6V412Z" class="g2_1190"/>
<path d="M513.8,415V385.6m-311,55.7V415m183.9,26.3V415m127.1,26.3V415m-311,52.6V441.3m183.9,26.3V441.3m127.1,26.3V441.3M202.8,497V467.6M386.7,497V467.6" class="g1_1190"/>
<path d="M396.6,494h71.8V467.6H396.6V494Z" class="g2_1190"/>
<path d="M513.8,497V467.6m-311,55.7V497m183.9,26.3V497m127.1,26.3V497m-311,52.6V523.3m183.9,26.3V523.3m127.1,26.3V523.3m-311,57.4V549.6m183.9,31.1V549.6" class="g1_1190"/>
<path d="M396.6,580.7H503.9V549.6H396.6v31.1Z" class="g2_1190"/>
<path d="M513.8,580.7V549.6M202.8,607V580.7M386.7,607V580.7M513.8,607V580.7m-311,52.6V607m183.9,26.3V607m127.1,26.3V607m-311,55.7V633.3m183.9,29.4V633.3" class="g1_1190"/>
<path d="M396.6,659.8h80.6V633.3H396.6v26.5Z" class="g2_1190"/>
<path d="M513.8,662.7V633.3M202.8,689V662.7M386.7,689V662.7M513.8,689V662.7m-311,52.6V689m183.9,26.3V689m127.1,26.3V689m-311,55.7V715.3m183.9,29.4V715.3" class="g1_1190"/>
<path d="M396.6,741.7h51.5V715.3H396.6v26.4Z" class="g2_1190"/>
<path d="M513.8,744.7V715.3M202.8,771V744.7M386.7,771V744.7M513.8,771V744.7m-311,26.6h311M533.5,109.5H867.4M533.5,136.1V109.8m183.9,26.3V109.8m150,26.3V109.8M533.5,167.3V136.1m183.9,31.2V136.1" class="g1_1190"/>
<path d="M727.3,167.3H854.4V136.1H727.3v31.2Z" class="g2_1190"/>
<path d="M867.4,167.3V136.1M533.5,193.6V167.3m183.9,26.3V167.3m150,26.3V167.3M533.5,219.9V193.6m183.9,26.3V193.6m150,26.3V193.6M533.5,249.3V219.9m183.9,29.4V219.9" class="g1_1190"/>
<path d="M727.3,246.3h63.5V219.9H727.3v26.4Z" class="g2_1190"/>
<path d="M867.4,249.3V219.9M533.5,275.6V249.3m183.9,26.3V249.3m150,26.3V249.3M533.5,301.9V275.6m183.9,26.3V275.6m150,26.3V275.6M533.5,333V301.9M717.4,333V301.9" class="g1_1190"/>
<path d="M727.3,333H842.1V301.9H727.3V333Z" class="g2_1190"/>
<path d="M867.4,333V301.9M533.5,359.3V333m183.9,26.3V333m150,26.3V333M533.5,385.6V359.3m183.9,26.3V359.3m150,26.3V359.3M533.5,415V385.6M717.4,415V385.6" class="g1_1190"/>
<path d="M727.3,412h60V385.6h-60V412Z" class="g2_1190"/>
<path d="M867.4,415V385.6M533.5,441.3V415m183.9,26.3V415m150,26.3V415M533.5,467.6V441.3m183.9,26.3V441.3m150,26.3V441.3M533.5,497V467.6M717.4,497V467.6" class="g1_1190"/>
<path d="M727.3,494h88.1V467.6H727.3V494Z" class="g2_1190"/>
<path d="M867.4,497V467.6M533.5,523.3V497m183.9,26.3V497m150,26.3V497M533.5,549.6V523.3m183.9,26.3V523.3m150,26.3V523.3M533.5,580.7V549.6m183.9,31.1V549.6" class="g1_1190"/>
<path d="M727.3,580.7h97.4V549.6H727.3v31.1Z" class="g2_1190"/>
<path d="M867.4,580.7V549.6M533.5,607V580.7M717.4,607V580.7m150,26.3V580.7M533.5,633.3V607m183.9,26.3V607m150,26.3V607M533.5,662.7V633.3m183.9,29.4V633.3" class="g1_1190"/>
<path d="M727.3,659.8H857.6V633.3H727.3v26.5Z" class="g2_1190"/>
<path d="M867.4,662.7V633.3M533.5,689V662.7M717.4,689V662.7m150,26.3V662.7M533.5,715.3V689m183.9,26.3V689m150,26.3V689M533.5,746.5V715.3m183.9,31.2V715.3" class="g1_1190"/>
<path d="M727.3,746.5h62.6V715.3H727.3v31.2Z" class="g2_1190"/>
<path d="M867.4,746.5V715.3M533.5,772.8V746.5m183.9,26.3V746.5m150,26.3V746.5M533.5,773.1H867.4M887.2,111.3h228.6M887.2,137.9V111.6m107.2,26.3V111.6m121.4,26.3V111.6M887.2,169V137.9M994.4,169V137.9" class="g1_1190"/>
<path d="M1004.3,169h83.8V137.9h-83.8V169Z" class="g2_1190"/>
<path d="M1115.8,169V137.9M887.2,195.3V169m107.2,26.3V169m121.4,26.3V169M887.2,221.7V195.3m107.2,26.4V195.3m121.4,26.4V195.3M887.2,251V221.7M994.4,251V221.7" class="g1_1190"/>
<path d="M1004.3,248.1h93V221.7h-93v26.4Z" class="g2_1190"/>
<path d="M1115.8,251V221.7M887.2,277.3V251m107.2,26.3V251m121.4,26.3V251M887.2,303.6V277.3m107.2,26.3V277.3m121.4,26.3V277.3M887.2,333V303.6M994.4,333V303.6" class="g1_1190"/>
<path d="M1004.3,330.1h91.8V303.6h-91.8v26.5Z" class="g2_1190"/>
<path d="M1115.8,333V303.6M887.2,359.3V333m107.2,26.3V333m121.4,26.3V333M887.2,385.6V359.3m107.2,26.3V359.3m121.4,26.3V359.3M887.2,415V385.6M994.4,415V385.6" class="g1_1190"/>
<path d="M1004.3,412h61.6V385.6h-61.6V412Z" class="g2_1190"/>
<path d="M1115.8,415V385.6M887.2,441.3V415m107.2,26.3V415m121.4,26.3V415M887.2,467.6V441.3m107.2,26.3V441.3m121.4,26.3V441.3M887.2,497V467.6M994.4,497V467.6" class="g1_1190"/>
<path d="M1004.3,494h49.4V467.6h-49.4V494Z" class="g2_1190"/>
<path d="M1115.8,497V467.6M887.2,523.3V497m107.2,26.3V497m121.4,26.3V497M887.2,549.6V523.3m107.2,26.3V523.3m121.4,26.3V523.3M887.2,579V549.6M994.4,579V549.6" class="g1_1190"/>
<path d="M1004.3,576H1078V549.6h-73.7V576Z" class="g2_1190"/>
<path d="M1115.8,579V549.6M887.2,605.3V579m107.2,26.3V579m121.4,26.3V579M887.2,631.6V605.3m107.2,26.3V605.3m121.4,26.3V605.3M887.2,662.7V631.6m107.2,31.1V631.6" class="g1_1190"/>
<path d="M1004.3,662.7h101.6V631.6H1004.3v31.1Z" class="g2_1190"/>
<path d="M1115.8,662.7V631.6M887.2,689V662.7M994.4,689V662.7M1115.8,689V662.7M887.2,715.3V689m107.2,26.3V689m121.4,26.3V689M887.2,744.7V715.3m107.2,29.4V715.3" class="g1_1190"/>
<path d="M1004.3,741.7h60.4V715.3h-60.4v26.4Z" class="g2_1190"/>
<path d="M1115.8,744.7V715.3M887.2,771V744.7M994.4,771V744.7M1115.8,771V744.7M887.2,771.3h228.6" class="g1_1190"/>
</svg>