<?xml version="1.0" encoding="UTF-8" standalone="no"?>
<!DOCTYPE svg PUBLIC "-//W3C//DTD SVG 1.1//EN"
"http://www.w3.org/Graphics/SVG/1.1/DTD/svg11.dtd">
<svg viewBox="0 0 909 1286" version="1.1" xmlns="http://www.w3.org/2000/svg" xmlns:xlink="http://www.w3.org/1999/xlink">
<defs>
<style type="text/css"><![CDATA[
.g0_55{
fill: none;
stroke: #000000;
stroke-width: 0.73;
stroke-linecap: butt;
stroke-linejoin: miter;
}
.g1_55{
fill: #9AE1F8;
stroke: #000000;
stroke-width: 0.73;
stroke-linecap: butt;
stroke-linejoin: miter;
}
.g2_55{
fill: #FCA2D4;
stroke: #000000;
stroke-width: 0.73;
stroke-linecap: butt;
stroke-linejoin: miter;
}
.g3_55{
fill: #E81A58;
}
.g4_55{
fill: #401A1A;
}
.g5_55{
fill: #FDE8E9;
}
]]></style>
</defs>
<path d="M116.9,159.9H792.5M473,199.9c0,-11.1,-9,-20,-20,-20c-11,0,-19.9,8.9,-19.9,20c0,11,8.9,19.9,19.9,19.9c11,0,20,-8.9,20,-19.9Z" class="g0_55"/>
<path d="M391.6,277.8c0,-9.1,-7.4,-16.5,-16.5,-16.5c-9.2,0,-16.6,7.4,-16.6,16.5c0,9.2,7.4,16.6,16.6,16.6c9.1,0,16.5,-7.4,16.5,-16.6Z" class="g1_55"/>
<path d="M438.6,214.2L387,265.8" class="g0_55"/>
<path d="M352.6,355.8c0,-9.2,-7.4,-16.6,-16.5,-16.6c-9.2,0,-16.6,7.4,-16.6,16.6c0,9.1,7.4,16.5,16.6,16.5c9.1,0,16.5,-7.4,16.5,-16.5Z" class="g1_55"/>
<path d="M367.5,292.9l-23.8,47.7m8.9,93.1c0,-9.1,-7.4,-16.5,-16.5,-16.5c-9.2,0,-16.6,7.4,-16.6,16.5c0,9.2,7.4,16.6,16.6,16.6c9.1,0,16.5,-7.4,16.5,-16.6ZM336.1,372.7v44.1" class="g0_55"/>
<path d="M434,355.8c0,-11.1,-8.9,-20,-20,-20c-11,0,-19.9,8.9,-19.9,20c0,11,8.9,19.9,19.9,19.9c11.1,0,20,-8.9,20,-19.9Z" class="g2_55"/>
<path d="M382.6,292.9l22.3,44.7" class="g0_55"/>
<path d="M550.9,277.8c0,-11,-8.9,-20,-19.9,-20c-11.1,0,-20,9,-20,20c0,11,8.9,20,20,20c11,0,19.9,-9,19.9,-20Z" class="g2_55"/>
<path d="M467.4,214.2l49.2,49.2" class="g0_55"/>
<path d="M512,355.8c0,-11.1,-9,-20,-20,-20c-11,0,-20,8.9,-20,20c0,11,9,19.9,20,19.9c11,0,20,-8.9,20,-19.9Z" class="g1_55"/>
<path d="M521.9,296l-20.8,41.6" class="g0_55"/>
<path d="M589.9,355.8c0,-11.1,-8.9,-20,-20,-20c-11,0,-19.9,8.9,-19.9,20c0,11,8.9,19.9,19.9,19.9c11.1,0,20,-8.9,20,-19.9Z" class="g2_55"/>
<path d="M540.1,296l20.8,41.6" class="g0_55"/>
<path d="M116.9,762.8V557c0,-21.6,17.6,-39.2,39.2,-39.2H792.5V723.7c0,21.6,-17.5,39.1,-39.1,39.1Z" class="g3_55"/>
<path d="M119.5,760.2V553.7H789.9v170c0,20.2,-16.3,36.5,-36.5,36.5Z" class="g4_55"/>
<path d="M505.4,836.3H567V808.5H505.4v27.8Z" class="g5_55"/>
<path d="M285.8,866h44.8V838.2H285.8V866Z" class="g5_55"/>
</svg>