<?xml version="1.0" encoding="UTF-8" standalone="no"?>
<!DOCTYPE svg PUBLIC "-//W3C//DTD SVG 1.1//EN"
"http://www.w3.org/Graphics/SVG/1.1/DTD/svg11.dtd">
<svg viewBox="0 0 1286 909" version="1.1" xmlns="http://www.w3.org/2000/svg" xmlns:xlink="http://www.w3.org/1999/xlink">
<defs>
<style type="text/css"><![CDATA[
.g0_741{
fill: none;
stroke: #000000;
stroke-width: 0.73;
stroke-linecap: butt;
stroke-linejoin: miter;
}
.g1_741{
fill: none;
stroke: #02B5EE;
stroke-width: 1.262;
stroke-linecap: butt;
stroke-linejoin: miter;
}
.g2_741{
fill: none;
stroke: #5EE200;
stroke-width: 1.262;
stroke-linecap: butt;
stroke-linejoin: miter;
}
.g3_741{
fill: none;
stroke: #5EE200;
stroke-width: 0.73;
stroke-linecap: butt;
stroke-linejoin: miter;
}
.g4_741{
fill: none;
stroke: #02B5EE;
stroke-width: 0.73;
stroke-linecap: butt;
stroke-linejoin: miter;
}
.g5_741{
fill: #FFCCCC;
}
]]></style>
</defs>
<path d="M193,83.4h900.3M193,111.6H926.9m-733.9,0H926.9M506.5,141.2V112m0,58.5V141.2m0,114.3v-85" class="g0_741"/>
<path d="M720.6,231.5H782" class="g1_741"/>
<path d="M792.5,231.5H916" class="g2_741"/>
<path d="M506.5,284.7V255.5m0,102.3V284.7" class="g0_741"/>
<path d="M791,343.9h68.2" class="g3_741"/>
<path d="M865.3,343.9H916" class="g4_741"/>
<path d="M506.5,387V357.8m0,58.4V387m0,114.2v-85" class="g0_741"/>
<path d="M617.2,477.3H753.6" class="g1_741"/>
<path d="M764.1,477.3h22.4" class="g2_741"/>
<path d="M807.5,465.5H916V432.7H807.5v32.8Z" class="g5_741"/>
<path d="M506.5,530.5V501.2m0,102.3v-73" class="g0_741"/>
<path d="M566.9,579.8H751.1V546.9H566.9v32.9Z" class="g5_741"/>
<path d="M757.2,589.6h34.5" class="g3_741"/>
<path d="M797.7,589.6H916" class="g4_741"/>
<path d="M506.5,632.7V603.5M193,633.1H926.9m-733.9,0H926.9" class="g0_741"/>
</svg>