<?xml version="1.0" encoding="UTF-8" standalone="no"?>
<!DOCTYPE svg PUBLIC "-//W3C//DTD SVG 1.1//EN"
"http://www.w3.org/Graphics/SVG/1.1/DTD/svg11.dtd">
<svg viewBox="0 0 909 1286" version="1.1" xmlns="http://www.w3.org/2000/svg" xmlns:xlink="http://www.w3.org/1999/xlink">
<defs>
<clipPath id="c0_6"><path d="M134.6,216.4V185.7H782.7v30.7Z"/></clipPath>
<style type="text/css"><![CDATA[
.g0_6{
fill: none;
stroke: #000000;
stroke-width: 0.73;
stroke-linecap: butt;
stroke-linejoin: miter;
}
.g1_6{
fill: #7F7F7F;
}
.g2_6{
fill: #FFFFFF;
}
.g3_6{
fill: none;
stroke: #7F7F7F;
stroke-width: 0.73;
stroke-linecap: butt;
stroke-linejoin: miter;
stroke-dasharray: 6,6;
}
.g4_6{
fill: #FFFFFF;
stroke: #000000;
stroke-width: 0.73;
stroke-linecap: butt;
stroke-linejoin: miter;
}
.g5_6{
fill: none;
stroke: #000000;
stroke-width: 3.47;
stroke-linecap: butt;
stroke-linejoin: miter;
}
.g6_6{
fill: none;
stroke: #CDCDB4;
stroke-width: 2.739;
stroke-linecap: butt;
stroke-linejoin: miter;
}
]]></style>
</defs>
<path d="M116.9,159.9H792.5" class="g0_6"/>
<path d="M133.8,632.1V185H783.4V632.1Z" class="g1_6"/>
<path d="M134.6,631.3V217.1H782.7V631.3Z" class="g2_6"/>
<path d="M134.6,297H782.7" class="g3_6"/>
<path d="M134.6,216.4V185.7H782.7v30.7Z" class="g1_6"/>
<g clip-path="url(#c0_6)">
<image x="134" y="185" width="649" height="31" xlink:href="shade/1.png"/>
</g>
<path d="M159.5,227.5c0,-3,-2.4,-5.5,-5.5,-5.5c-3,0,-5.4,2.5,-5.4,5.5c0,3,2.4,5.5,5.4,5.5c3.1,0,5.5,-2.5,5.5,-5.5Z" class="g4_6"/>
<path d="M154,227.5c6.5,1.6,5.5,3.9,-2.2,5.2c-7.7,1.3,-19.3,1.1,-25.7,-.5c-4.2,-1,-5.4,-2.4,-3.2,-3.6c1.8,-1,5.8,-1.8,10.9,-2.2" class="g5_6"/>
<path d="M154,227.5c6.5,1.6,5.5,3.9,-2.2,5.2c-7.7,1.3,-19.3,1.1,-25.7,-.5c-4.2,-1,-5.4,-2.4,-3.2,-3.6c1.8,-1,5.8,-1.8,10.9,-2.2" class="g6_6"/>
<path d="M159.5,251.9c0,-3,-2.4,-5.5,-5.5,-5.5c-3,0,-5.4,2.5,-5.4,5.5c0,3,2.4,5.5,5.4,5.5c3.1,0,5.5,-2.5,5.5,-5.5Z" class="g4_6"/>
<path d="M154,251.9c6.5,1.5,5.5,3.8,-2.2,5.1c-7.7,1.3,-19.3,1.1,-25.7,-.4c-4.2,-1,-5.4,-2.4,-3.2,-3.6c1.8,-1,5.8,-1.8,10.9,-2.2" class="g5_6"/>
<path d="M154,251.9c6.5,1.5,5.5,3.8,-2.2,5.1c-7.7,1.3,-19.3,1.1,-25.7,-.4c-4.2,-1,-5.4,-2.4,-3.2,-3.6c1.8,-1,5.8,-1.8,10.9,-2.2" class="g6_6"/>
<path d="M159.5,276.2c0,-3,-2.4,-5.4,-5.5,-5.4c-3,0,-5.4,2.4,-5.4,5.4c0,3.1,2.4,5.5,5.4,5.5c3.1,0,5.5,-2.4,5.5,-5.5Z" class="g4_6"/>
<path d="M154,276.2c6.5,1.6,5.5,3.9,-2.2,5.2c-7.7,1.3,-19.3,1.1,-25.7,-.5c-4.2,-1,-5.4,-2.3,-3.2,-3.6c1.8,-1,5.8,-1.8,10.9,-2.1" class="g5_6"/>
<path d="M154,276.2c6.5,1.6,5.5,3.9,-2.2,5.2c-7.7,1.3,-19.3,1.1,-25.7,-.5c-4.2,-1,-5.4,-2.3,-3.2,-3.6c1.8,-1,5.8,-1.8,10.9,-2.1" class="g6_6"/>
<path d="M159.5,300.6c0,-3,-2.4,-5.5,-5.5,-5.5c-3,0,-5.4,2.5,-5.4,5.5c0,3,2.4,5.5,5.4,5.5c3.1,0,5.5,-2.5,5.5,-5.5Z" class="g4_6"/>
<path d="M154,300.6c6.5,1.6,5.5,3.9,-2.2,5.2c-7.7,1.3,-19.3,1.1,-25.7,-.5c-4.2,-1,-5.4,-2.4,-3.2,-3.6c1.8,-1,5.8,-1.8,10.9,-2.2" class="g5_6"/>
<path d="M154,300.6c6.5,1.6,5.5,3.9,-2.2,5.2c-7.7,1.3,-19.3,1.1,-25.7,-.5c-4.2,-1,-5.4,-2.4,-3.2,-3.6c1.8,-1,5.8,-1.8,10.9,-2.2" class="g6_6"/>
<path d="M159.5,325c0,-3,-2.4,-5.5,-5.5,-5.5c-3,0,-5.4,2.5,-5.4,5.5c0,3,2.4,5.5,5.4,5.5c3.1,0,5.5,-2.5,5.5,-5.5Z" class="g4_6"/>
<path d="M154,325c6.5,1.5,5.5,3.8,-2.2,5.1c-7.7,1.3,-19.3,1.1,-25.7,-.4c-4.2,-1,-5.4,-2.4,-3.2,-3.6c1.8,-1,5.8,-1.8,10.9,-2.2" class="g5_6"/>
<path d="M154,325c6.5,1.5,5.5,3.8,-2.2,5.1c-7.7,1.3,-19.3,1.1,-25.7,-.4c-4.2,-1,-5.4,-2.4,-3.2,-3.6c1.8,-1,5.8,-1.8,10.9,-2.2" class="g6_6"/>
<path d="M159.5,349.3c0,-3,-2.4,-5.4,-5.5,-5.4c-3,0,-5.4,2.4,-5.4,5.4c0,3.1,2.4,5.5,5.4,5.5c3.1,0,5.5,-2.4,5.5,-5.5Z" class="g4_6"/>
<path d="M154,349.3c6.5,1.6,5.5,3.9,-2.2,5.2c-7.7,1.3,-19.3,1.1,-25.7,-.5c-4.2,-1,-5.4,-2.3,-3.2,-3.6c1.8,-1,5.8,-1.8,10.9,-2.1" class="g5_6"/>
<path d="M154,349.3c6.5,1.6,5.5,3.9,-2.2,5.2c-7.7,1.3,-19.3,1.1,-25.7,-.5c-4.2,-1,-5.4,-2.3,-3.2,-3.6c1.8,-1,5.8,-1.8,10.9,-2.1" class="g6_6"/>
<path d="M159.5,373.7c0,-3,-2.4,-5.5,-5.5,-5.5c-3,0,-5.4,2.5,-5.4,5.5c0,3,2.4,5.5,5.4,5.5c3.1,0,5.5,-2.5,5.5,-5.5Z" class="g4_6"/>
<path d="M154,373.7c6.5,1.6,5.5,3.9,-2.2,5.2c-7.7,1.3,-19.3,1.1,-25.7,-.5c-4.2,-1,-5.4,-2.4,-3.2,-3.6c1.8,-1,5.8,-1.8,10.9,-2.2" class="g5_6"/>
<path d="M154,373.7c6.5,1.6,5.5,3.9,-2.2,5.2c-7.7,1.3,-19.3,1.1,-25.7,-.5c-4.2,-1,-5.4,-2.4,-3.2,-3.6c1.8,-1,5.8,-1.8,10.9,-2.2" class="g6_6"/>
<path d="M159.5,398.1c0,-3.1,-2.4,-5.5,-5.5,-5.5c-3,0,-5.4,2.4,-5.4,5.5c0,3,2.4,5.5,5.4,5.5c3.1,0,5.5,-2.5,5.5,-5.5Z" class="g4_6"/>
<path d="M154,398.1c6.5,1.5,5.5,3.8,-2.2,5.1c-7.7,1.3,-19.3,1.1,-25.7,-.4c-4.2,-1,-5.4,-2.4,-3.2,-3.6c1.8,-1,5.8,-1.8,10.9,-2.2" class="g5_6"/>
<path d="M154,398.1c6.5,1.5,5.5,3.8,-2.2,5.1c-7.7,1.3,-19.3,1.1,-25.7,-.4c-4.2,-1,-5.4,-2.4,-3.2,-3.6c1.8,-1,5.8,-1.8,10.9,-2.2" class="g6_6"/>
<path d="M159.5,422.4c0,-3,-2.4,-5.4,-5.5,-5.4c-3,0,-5.4,2.4,-5.4,5.4c0,3.1,2.4,5.5,5.4,5.5c3.1,0,5.5,-2.4,5.5,-5.5Z" class="g4_6"/>
<path d="M154,422.4c6.5,1.6,5.5,3.9,-2.2,5.2c-7.7,1.3,-19.3,1.1,-25.7,-.5c-4.2,-1,-5.4,-2.3,-3.2,-3.6c1.8,-1,5.8,-1.8,10.9,-2.1" class="g5_6"/>
<path d="M154,422.4c6.5,1.6,5.5,3.9,-2.2,5.2c-7.7,1.3,-19.3,1.1,-25.7,-.5c-4.2,-1,-5.4,-2.3,-3.2,-3.6c1.8,-1,5.8,-1.8,10.9,-2.1" class="g6_6"/>
<path d="M159.5,446.8c0,-3,-2.4,-5.5,-5.5,-5.5c-3,0,-5.4,2.5,-5.4,5.5c0,3,2.4,5.5,5.4,5.5c3.1,0,5.5,-2.5,5.5,-5.5Z" class="g4_6"/>
<path d="M154,446.8c6.5,1.6,5.5,3.9,-2.2,5.2c-7.7,1.3,-19.3,1,-25.7,-.5c-4.2,-1,-5.4,-2.4,-3.2,-3.6c1.8,-1,5.8,-1.8,10.9,-2.2" class="g5_6"/>
<path d="M154,446.8c6.5,1.6,5.5,3.9,-2.2,5.2c-7.7,1.3,-19.3,1,-25.7,-.5c-4.2,-1,-5.4,-2.4,-3.2,-3.6c1.8,-1,5.8,-1.8,10.9,-2.2" class="g6_6"/>
<path d="M159.5,471.2c0,-3.1,-2.4,-5.5,-5.5,-5.5c-3,0,-5.4,2.4,-5.4,5.5c0,3,2.4,5.5,5.4,5.5c3.1,0,5.5,-2.5,5.5,-5.5Z" class="g4_6"/>
<path d="M154,471.2c6.5,1.5,5.5,3.8,-2.2,5.1c-7.7,1.3,-19.3,1.1,-25.7,-.4c-4.2,-1,-5.4,-2.4,-3.2,-3.6c1.8,-1,5.8,-1.8,10.9,-2.2" class="g5_6"/>
<path d="M154,471.2c6.5,1.5,5.5,3.8,-2.2,5.1c-7.7,1.3,-19.3,1.1,-25.7,-.4c-4.2,-1,-5.4,-2.4,-3.2,-3.6c1.8,-1,5.8,-1.8,10.9,-2.2" class="g6_6"/>
<path d="M159.5,495.5c0,-3,-2.4,-5.4,-5.5,-5.4c-3,0,-5.4,2.4,-5.4,5.4c0,3.1,2.4,5.5,5.4,5.5c3.1,0,5.5,-2.4,5.5,-5.5Z" class="g4_6"/>
<path d="M154,495.5c6.5,1.6,5.5,3.9,-2.2,5.2c-7.7,1.3,-19.3,1.1,-25.7,-.5c-4.2,-1,-5.4,-2.3,-3.2,-3.6c1.8,-1,5.8,-1.8,10.9,-2.1" class="g5_6"/>
<path d="M154,495.5c6.5,1.6,5.5,3.9,-2.2,5.2c-7.7,1.3,-19.3,1.1,-25.7,-.5c-4.2,-1,-5.4,-2.3,-3.2,-3.6c1.8,-1,5.8,-1.8,10.9,-2.1" class="g6_6"/>
<path d="M159.5,519.9c0,-3,-2.4,-5.5,-5.5,-5.5c-3,0,-5.4,2.5,-5.4,5.5c0,3,2.4,5.5,5.4,5.5c3.1,0,5.5,-2.5,5.5,-5.5Z" class="g4_6"/>
<path d="M154,519.9c6.5,1.5,5.5,3.9,-2.2,5.2c-7.7,1.2,-19.3,1,-25.7,-.5c-4.2,-1,-5.4,-2.4,-3.2,-3.6c1.8,-1,5.8,-1.8,10.9,-2.2" class="g5_6"/>
<path d="M154,519.9c6.5,1.5,5.5,3.9,-2.2,5.2c-7.7,1.2,-19.3,1,-25.7,-.5c-4.2,-1,-5.4,-2.4,-3.2,-3.6c1.8,-1,5.8,-1.8,10.9,-2.2" class="g6_6"/>
<path d="M159.5,544.3c0,-3.1,-2.4,-5.5,-5.5,-5.5c-3,0,-5.4,2.4,-5.4,5.5c0,3,2.4,5.4,5.4,5.4c3.1,0,5.5,-2.4,5.5,-5.4Z" class="g4_6"/>
<path d="M154,544.3c6.5,1.5,5.5,3.8,-2.2,5.1c-7.7,1.3,-19.3,1.1,-25.7,-.4c-4.2,-1,-5.4,-2.4,-3.2,-3.6c1.8,-1,5.8,-1.8,10.9,-2.2" class="g5_6"/>
<path d="M154,544.3c6.5,1.5,5.5,3.8,-2.2,5.1c-7.7,1.3,-19.3,1.1,-25.7,-.4c-4.2,-1,-5.4,-2.4,-3.2,-3.6c1.8,-1,5.8,-1.8,10.9,-2.2" class="g6_6"/>
<path d="M159.5,568.6c0,-3,-2.4,-5.4,-5.5,-5.4c-3,0,-5.4,2.4,-5.4,5.4c0,3.1,2.4,5.5,5.4,5.5c3.1,0,5.5,-2.4,5.5,-5.5Z" class="g4_6"/>
<path d="M154,568.6c6.5,1.6,5.5,3.9,-2.2,5.2c-7.7,1.3,-19.3,1.1,-25.7,-.5c-4.2,-1,-5.4,-2.3,-3.2,-3.6c1.8,-1,5.8,-1.8,10.9,-2.1" class="g5_6"/>
<path d="M154,568.6c6.5,1.6,5.5,3.9,-2.2,5.2c-7.7,1.3,-19.3,1.1,-25.7,-.5c-4.2,-1,-5.4,-2.3,-3.2,-3.6c1.8,-1,5.8,-1.8,10.9,-2.1" class="g6_6"/>
<path d="M159.5,593c0,-3,-2.4,-5.5,-5.5,-5.5c-3,0,-5.4,2.5,-5.4,5.5c0,3,2.4,5.5,5.4,5.5c3.1,0,5.5,-2.5,5.5,-5.5Z" class="g4_6"/>
<path d="M154,593c6.5,1.5,5.5,3.9,-2.2,5.1c-7.7,1.3,-19.3,1.1,-25.7,-.4c-4.2,-1,-5.4,-2.4,-3.2,-3.6c1.8,-1,5.8,-1.8,10.9,-2.2" class="g5_6"/>
<path d="M154,593c6.5,1.5,5.5,3.9,-2.2,5.1c-7.7,1.3,-19.3,1.1,-25.7,-.4c-4.2,-1,-5.4,-2.4,-3.2,-3.6c1.8,-1,5.8,-1.8,10.9,-2.2" class="g6_6"/>
<path d="M159.5,617.4c0,-3.1,-2.4,-5.5,-5.5,-5.5c-3,0,-5.4,2.4,-5.4,5.5c0,3,2.4,5.4,5.4,5.4c3.1,0,5.5,-2.4,5.5,-5.4Z" class="g4_6"/>
<path d="M154,617.4c6.5,1.5,5.5,3.8,-2.2,5.1c-7.7,1.3,-19.3,1.1,-25.7,-.4c-4.2,-1,-5.4,-2.4,-3.2,-3.6c1.8,-1,5.8,-1.8,10.9,-2.2" class="g5_6"/>
<path d="M154,617.4c6.5,1.5,5.5,3.8,-2.2,5.1c-7.7,1.3,-19.3,1.1,-25.7,-.4c-4.2,-1,-5.4,-2.4,-3.2,-3.6c1.8,-1,5.8,-1.8,10.9,-2.2" class="g6_6"/>
<path d="M195.3,433.1V403.9m0,120.5V495.2m0,89.5V555.5M645.5,885.3h12.3M386.2,939.4h12.2M425,949.9h10.9M425,1006.6h10.9m17.6,0h67.6M425,1052.5h56.6" class="g0_6"/>
</svg>