<?xml version="1.0" encoding="UTF-8" standalone="no"?>
<!DOCTYPE svg PUBLIC "-//W3C//DTD SVG 1.1//EN"
"http://www.w3.org/Graphics/SVG/1.1/DTD/svg11.dtd">
<svg viewBox="0 0 909 1286" version="1.1" xmlns="http://www.w3.org/2000/svg" xmlns:xlink="http://www.w3.org/1999/xlink">
<defs>
<clipPath id="c0_7"><path d="M122.1,217.9V187h30.8v30.9Z"/></clipPath>
<clipPath id="c1_7"><path d="M122.1,217.9v-31H153v31Z"/></clipPath>
<style type="text/css"><![CDATA[
.g0_7{
fill: none;
stroke: #000000;
stroke-width: 0.73;
stroke-linecap: butt;
stroke-linejoin: miter;
}
.g1_7{
fill: #FFFFFF;
}
.g2_7{
fill: none;
stroke: #000000;
stroke-width: 1.461;
stroke-linecap: butt;
stroke-linejoin: miter;
}
.g3_7{
}
.g4_7{
fill: none;
stroke: #000000;
stroke-width: 2.739;
stroke-linecap: butt;
stroke-linejoin: miter;
}
.g5_7{
fill: none;
stroke: #02B5EE;
stroke-width: 1.461;
stroke-linecap: butt;
stroke-linejoin: miter;
}
.g6_7{
fill: none;
stroke: #F81693;
stroke-width: 1.461;
stroke-linecap: butt;
stroke-linejoin: miter;
}
]]></style>
</defs>
<path d="M116.9,159.9H792.5" class="g0_7"/>
<path d="M117.7,375.9V180.3H791.8V375.9Z" class="g1_7"/>
<path d="M117.7,375.9V180.3H791.8V375.9Z" class="g2_7"/>
<path d="M615.8,319.5h34.6" class="g0_7"/>
<g clip-path="url(#c1_7)">
<path clip-path="url(#c0_7)" d="M141.2,210.5c-3.2,0,-6.1,-1.2,-8.4,-3.4c-2.2,-2.2,-3.4,-5.2,-3.4,-8.3c0,-3.2,1.2,-6.1,3.4,-8.3c2.3,-2.3,5.2,-3.5,8.4,-3.5c3.1,0,6.1,1.2,8.3,3.5c4.6,4.5,4.6,12,0,16.6c-2.2,2.2,-5.2,3.4,-8.3,3.4Z" class="g3_7"/>
<path d="M141.2,189c-2.6,0,-5.1,1.1,-6.9,2.9c-3.8,3.8,-3.8,10,0,13.8c1.8,1.8,4.3,2.8,6.9,2.8c2.6,0,5,-1,6.9,-2.8c1.8,-1.9,2.8,-4.3,2.8,-6.9c0,-2.6,-1,-5.1,-2.9,-6.9c-1.8,-1.8,-4.2,-2.9,-6.8,-2.9Z" class="g1_7"/>
<path d="M124.4,217.9l-2.3,-2.4l8.6,-8.6l2.4,2.4Z" class="g3_7"/>
</g>
<path d="M152.7,215H357.1" class="g0_7"/>
<path d="M137.6,220.2V366.5" class="g4_7"/>
<path d="M584,471.5h34.5" class="g0_7"/>
<path d="M399,623.9c1.4,0,2.1,-2.8,3.4,-2.8c1,0,1.9,1.4,2.8,2.8c.9,1.4,1.7,2.7,2.7,2.7c1,0,1.9,-1.3,2.7,-2.7c.9,-1.4,1.8,-2.8,2.8,-2.8c1.4,0,2,2.8,3.4,2.8h.6" class="g5_7"/>
<path d="M439.8,633.6c1.3,0,2,-2.7,3.4,-2.7c1,0,1.8,1.3,2.7,2.7c.9,1.5,1.8,2.8,2.8,2.8c1,0,1.8,-1.3,2.7,-2.8c.9,-1.4,1.8,-2.7,2.8,-2.7c.9,0,1.8,1.3,2.7,2.7c.9,1.5,1.7,2.8,2.7,2.8c1,0,1.9,-1.3,2.8,-2.8c.9,-1.4,1.7,-2.7,2.7,-2.7c1,0,1.9,1.3,2.8,2.7c.8,1.5,1.7,2.8,2.7,2.8c1,0,1.8,-1.3,2.7,-2.8c.9,-1.4,1.8,-2.7,2.8,-2.7c1,0,1.8,1.3,2.7,2.7c.9,1.5,1.8,2.8,2.8,2.8c.9,0,1.8,-1.3,2.7,-2.8c.9,-1.4,1.7,-2.7,2.7,-2.7c1,0,1.9,1.3,2.8,2.7c.9,1.5,1.7,2.8,2.7,2.8c1.4,0,2.1,-2.8,3.4,-2.8h1.3" class="g6_7"/>
<path d="M442,609.2h34.5m-30,73.8H481m-66.4,78.5h34.6m26.7,0h34.6M401.2,834.9h64.3" class="g0_7"/>
</svg>