<?xml version="1.0" encoding="UTF-8" standalone="no"?>
<!DOCTYPE svg PUBLIC "-//W3C//DTD SVG 1.1//EN"
"http://www.w3.org/Graphics/SVG/1.1/DTD/svg11.dtd">
<svg viewBox="0 0 1286 909" version="1.1" xmlns="http://www.w3.org/2000/svg" xmlns:xlink="http://www.w3.org/1999/xlink">
<defs>
<style type="text/css"><![CDATA[
.g0_247{
fill: none;
stroke: #000000;
stroke-width: 0.73;
stroke-linecap: butt;
stroke-linejoin: miter;
}
.g1_247{
fill: none;
stroke: #02B5EE;
stroke-width: 1.262;
stroke-linecap: butt;
stroke-linejoin: miter;
}
.g2_247{
fill: none;
stroke: #5EE200;
stroke-width: 1.262;
stroke-linecap: butt;
stroke-linejoin: miter;
}
.g3_247{
fill: none;
stroke: #5EE200;
stroke-width: 0.73;
stroke-linecap: butt;
stroke-linejoin: miter;
}
.g4_247{
fill: none;
stroke: #02B5EE;
stroke-width: 0.73;
stroke-linecap: butt;
stroke-linejoin: miter;
}
]]></style>
</defs>
<path d="M193,83.4h900.3M193,210.6h858.4m-858.4,0h858.4M543.8,240.2V211m0,58.5V240.2m0,114.3v-85" class="g0_247"/>
<path d="M847.4,330.5h160.1" class="g1_247"/>
<path d="M1018,330.5h22.5" class="g2_247"/>
<path d="M543.8,383.7V354.5m0,102.3V383.7" class="g0_247"/>
<path d="M797.3,442.9h34.4" class="g3_247"/>
<path d="M837.8,442.9h202.7" class="g4_247"/>
<path d="M543.8,486V456.8m0,58.4V486m0,114.2v-85" class="g0_247"/>
<path d="M816.9,576.2h190.6" class="g1_247"/>
<path d="M1018,576.2h22.5" class="g2_247"/>
<path d="M543.8,629.5V600.2m0,102.3v-73" class="g0_247"/>
<path d="M797.3,688.6h34.4" class="g3_247"/>
<path d="M837.8,688.6h202.7" class="g4_247"/>
<path d="M543.8,731.7V702.5M193,732.1h858.4m-858.4,0h858.4" class="g0_247"/>
</svg>