<?xml version="1.0" encoding="UTF-8" standalone="no"?>
<!DOCTYPE svg PUBLIC "-//W3C//DTD SVG 1.1//EN"
"http://www.w3.org/Graphics/SVG/1.1/DTD/svg11.dtd">
<svg viewBox="0 0 1286 909" version="1.1" xmlns="http://www.w3.org/2000/svg" xmlns:xlink="http://www.w3.org/1999/xlink">
<defs>
<style type="text/css"><![CDATA[
.g0_969{
fill: none;
stroke: #000000;
stroke-width: 0.73;
stroke-linecap: butt;
stroke-linejoin: miter;
}
.g1_969{
fill: none;
stroke: #000000;
stroke-width: 0.584;
stroke-linecap: butt;
stroke-linejoin: miter;
}
.g2_969{
fill: #FDE8E9;
}
]]></style>
</defs>
<path d="M193,83.4h900.3" class="g0_969"/>
<path d="M206.6,109.5H523.5M206.6,133.1V109.7m153.7,23.4V109.7m163.2,23.4V109.7M206.6,160.8V133.1m153.7,27.7V133.1" class="g1_969"/>
<path d="M369.1,160.8h79.6V133.1H369.1v27.7Z" class="g2_969"/>
<path d="M523.5,160.8V133.1M206.6,184.2V160.8m153.7,23.4V160.8m163.2,23.4V160.8M206.6,207.6V184.2m153.7,23.4V184.2m163.2,23.4V184.2M206.6,235.3V207.6m153.7,27.7V207.6" class="g1_969"/>
<path d="M369.1,235.3H471V207.6H369.1v27.7Z" class="g2_969"/>
<path d="M523.5,235.3V207.6M206.6,258.7V235.3m153.7,23.4V235.3m163.2,23.4V235.3M206.6,282V258.7M360.3,282V258.7M523.5,282V258.7m-316.9,51V282m153.7,27.7V282" class="g1_969"/>
<path d="M369.1,309.7h83.1V282H369.1v27.7Z" class="g2_969"/>
<path d="M523.5,309.7V282M206.6,333.1V309.7m153.7,23.4V309.7m163.2,23.4V309.7M206.6,356.5V333.1m153.7,23.4V333.1m163.2,23.4V333.1M206.6,384.2V356.5m153.7,27.7V356.5" class="g1_969"/>
<path d="M369.1,384.2h79.4V356.5H369.1v27.7Z" class="g2_969"/>
<path d="M523.5,384.2V356.5M206.6,407.6V384.2m153.7,23.4V384.2m163.2,23.4V384.2M206.6,430.9V407.6m153.7,23.3V407.6m163.2,23.3V407.6m-316.9,51V430.9m153.7,27.7V430.9" class="g1_969"/>
<path d="M369.1,458.6h85.8V430.9H369.1v27.7Z" class="g2_969"/>
<path d="M523.5,458.6V430.9M206.6,482V458.6M360.3,482V458.6M523.5,482V458.6M206.6,505.4V482m153.7,23.4V482m163.2,23.4V482M206.6,533.1V505.4m153.7,27.7V505.4" class="g1_969"/>
<path d="M369.1,533.1H494.3V505.4H369.1v27.7Z" class="g2_969"/>
<path d="M523.5,533.1V505.4M206.6,556.5V533.1m153.7,23.4V533.1m163.2,23.4V533.1M206.6,579.8V556.5m153.7,23.3V556.5m163.2,23.3V556.5M206.6,606V579.8M360.3,606V579.8" class="g1_969"/>
<path d="M369.1,603.3H470.5V579.8H369.1v23.5Z" class="g2_969"/>
<path d="M523.5,606V579.8M206.6,629.3V606m153.7,23.3V606m163.2,23.3V606M206.6,652.7V629.3m153.7,23.4V629.3m163.2,23.4V629.3M206.6,680.4V652.7m153.7,27.7V652.7" class="g1_969"/>
<path d="M369.1,680.4H514.8V652.7H369.1v27.7Z" class="g2_969"/>
<path d="M523.5,680.4V652.7M206.6,703.8V680.4m153.7,23.4V680.4m163.2,23.4V680.4M206.6,727.2V703.8m153.7,23.4V703.8m163.2,23.4V703.8M206.6,754.9V727.2m153.7,27.7V727.2" class="g1_969"/>
<path d="M369.1,754.9h89.1V727.2H369.1v27.7Z" class="g2_969"/>
<path d="M523.5,754.9V727.2m-316.9,51V754.9m153.7,23.3V754.9m163.2,23.3V754.9M206.6,778.5H523.5M541.1,110.2H819.3M541.1,133.9V110.5m134.2,23.4V110.5m144,23.4V110.5M541.1,160V133.9M675.3,160V133.9" class="g1_969"/>
<path d="M684.1,157.4h78.1V133.9H684.1v23.5Z" class="g2_969"/>
<path d="M819.3,160V133.9M541.1,183.4V160m134.2,23.4V160m144,23.4V160M541.1,206.8V183.4m134.2,23.4V183.4m144,23.4V183.4M541.1,232.9V206.8m134.2,26.1V206.8" class="g1_969"/>
<path d="M684.1,230.3h85.1V206.8H684.1v23.5Z" class="g2_969"/>
<path d="M819.3,232.9V206.8M541.1,256.3V232.9m134.2,23.4V232.9m144,23.4V232.9M541.1,279.7V256.3m134.2,23.4V256.3m144,23.4V256.3M541.1,307.4V279.7m134.2,27.7V279.7" class="g1_969"/>
<path d="M684.1,307.4H810.5V279.7H684.1v27.7Z" class="g2_969"/>
<path d="M819.3,307.4V279.7m-278.2,51V307.4m134.2,23.3V307.4m144,23.3V307.4M541.1,354.1V330.7m134.2,23.4V330.7m144,23.4V330.7M541.1,381.8V354.1m134.2,27.7V354.1" class="g1_969"/>
<path d="M684.1,381.8H761V354.1H684.1v27.7Z" class="g2_969"/>
<path d="M819.3,381.8V354.1M541.1,405.2V381.8m134.2,23.4V381.8m144,23.4V381.8M541.1,428.6V405.2m134.2,23.4V405.2m144,23.4V405.2M541.1,456.3V428.6m134.2,27.7V428.6" class="g1_969"/>
<path d="M684.1,456.3H787.8V428.6H684.1v27.7Z" class="g2_969"/>
<path d="M819.3,456.3V428.6m-278.2,51V456.3m134.2,23.3V456.3m144,23.3V456.3M541.1,503V479.6M675.3,503V479.6m144,23.4V479.6M541.1,530.7V503m134.2,27.7V503" class="g1_969"/>
<path d="M684.1,530.7H759V503H684.1v27.7Z" class="g2_969"/>
<path d="M819.3,530.7V503M541.1,554.1V530.7m134.2,23.4V530.7m144,23.4V530.7M541.1,577.5V554.1m134.2,23.4V554.1m144,23.4V554.1M541.1,605.2V577.5m134.2,27.7V577.5" class="g1_969"/>
<path d="M684.1,605.2h72.7V577.5H684.1v27.7Z" class="g2_969"/>
<path d="M819.3,605.2V577.5m-278.2,51V605.2m134.2,23.3V605.2m144,23.3V605.2M541.1,651.9V628.5m134.2,23.4V628.5m144,23.4V628.5M541.1,679.6V651.9m134.2,27.7V651.9" class="g1_969"/>
<path d="M684.1,679.6H765V651.9H684.1v27.7Z" class="g2_969"/>
<path d="M819.3,679.6V651.9M541.1,703V679.6M675.3,703V679.6m144,23.4V679.6M541.1,726.4V703m134.2,23.4V703m144,23.4V703M541.1,754.1V726.4m134.2,27.7V726.4" class="g1_969"/>
<path d="M684.1,754.1H763V726.4H684.1v27.7Z" class="g2_969"/>
<path d="M819.3,754.1V726.4m-278.2,51V754.1m134.2,23.3V754.1m144,23.3V754.1M541.1,777.7H819.3M836.8,147.5h273.6M836.8,171.1V147.8m114.9,23.3V147.8m158.7,23.3V147.8M836.8,197.3V171.1m114.9,26.2V171.1" class="g1_969"/>
<path d="M960.4,194.6h106.1V171.1H960.4v23.5Z" class="g2_969"/>
<path d="M1110.4,197.3V171.1M836.8,220.6V197.3m114.9,23.3V197.3m158.7,23.3V197.3M836.8,244V220.6M951.7,244V220.6M1110.4,244V220.6M836.8,271.7V244m114.9,27.7V244" class="g1_969"/>
<path d="M960.4,271.7H1076V244H960.4v27.7Z" class="g2_969"/>
<path d="M1110.4,271.7V244M836.8,295.1V271.7m114.9,23.4V271.7m158.7,23.4V271.7M836.8,318.5V295.1m114.9,23.4V295.1m158.7,23.4V295.1M836.8,344.6V318.5m114.9,26.1V318.5" class="g1_969"/>
<path d="M960.4,342H1074V318.5H960.4V342Z" class="g2_969"/>
<path d="M1110.4,344.6V318.5M836.8,368V344.6M951.7,368V344.6M1110.4,368V344.6M836.8,391.3V368m114.9,23.3V368m158.7,23.3V368M836.8,419V391.3M951.7,419V391.3" class="g1_969"/>
<path d="M960.4,419h59V391.3h-59V419Z" class="g2_969"/>
<path d="M1110.4,419V391.3M836.8,442.4V419m114.9,23.4V419m158.7,23.4V419M836.8,465.8V442.4m114.9,23.4V442.4m158.7,23.4V442.4M836.8,493.5V465.8m114.9,27.7V465.8" class="g1_969"/>
<path d="M960.4,493.5h69.2V465.8H960.4v27.7Z" class="g2_969"/>
<path d="M1110.4,493.5V465.8M836.8,516.9V493.5m114.9,23.4V493.5m158.7,23.4V493.5M836.8,540.2V516.9m114.9,23.3V516.9m158.7,23.3V516.9m-273.6,51V540.2m114.9,27.7V540.2" class="g1_969"/>
<path d="M960.4,567.9h141.2V540.2H960.4v27.7Z" class="g2_969"/>
<path d="M1110.4,567.9V540.2M836.8,591.3V567.9m114.9,23.4V567.9m158.7,23.4V567.9M836.8,614.7V591.3m114.9,23.4V591.3m158.7,23.4V591.3M836.8,642.4V614.7m114.9,27.7V614.7" class="g1_969"/>
<path d="M960.4,642.4h96.8V614.7H960.4v27.7Z" class="g2_969"/>
<path d="M1110.4,642.4V614.7M836.8,665.8V642.4m114.9,23.4V642.4m158.7,23.4V642.4M836.8,689.1V665.8m114.9,23.3V665.8m158.7,23.3V665.8m-273.6,51V689.1m114.9,27.7V689.1" class="g1_969"/>
<path d="M960.4,716.8h115.7V689.1H960.4v27.7Z" class="g2_969"/>
<path d="M1110.4,716.8V689.1M836.8,740.2V716.8m114.9,23.4V716.8m158.7,23.4V716.8M836.8,740.5h273.6" class="g1_969"/>
</svg>