<?xml version="1.0" encoding="UTF-8" standalone="no"?>
<!DOCTYPE svg PUBLIC "-//W3C//DTD SVG 1.1//EN"
"http://www.w3.org/Graphics/SVG/1.1/DTD/svg11.dtd">
<svg viewBox="0 0 909 1286" version="1.1" xmlns="http://www.w3.org/2000/svg" xmlns:xlink="http://www.w3.org/1999/xlink">
<defs>
<style type="text/css"><![CDATA[
.g0_3{
fill: none;
stroke: #000000;
stroke-width: 0.73;
stroke-linecap: butt;
stroke-linejoin: miter;
}
.g1_3{
fill: #FFFFFF;
}
.g2_3{
fill: none;
stroke: #02B5EE;
stroke-width: 1.461;
stroke-linecap: butt;
stroke-linejoin: miter;
}
]]></style>
</defs>
<path d="M124.8,284.2H784.6M607.4,313.8V284.5M300.6,415l31.2,18.6m0,36.7V433.8m-31.2,55.3l31.2,-18.6m-31.2,18.6L269.3,470.5m0,-.2V433.8M300.6,415l-31.3,18.6M238.1,415l31.2,18.6m-31.2,55.5l31.2,-18.6m-31.2,18.6L206.9,470.5m0,-.2V433.8M238.1,415l-31.2,18.6m30.1,-11l-23,13.7m23,45.1L214,467.7m85.5,-45.1l-23.1,13.7m23.1,45.1L276.4,467.7M363,415l31.3,18.6m0,36.7V433.8M363,489.1l31.3,-18.6M363,489.1L331.8,470.5M363,415l-31.2,18.6m30.1,-11l-23,13.7m23,45.1l-23,-13.7M394.3,359.6l31.2,18.6m0,36.8V378.4m-31.2,55.4l31.2,-18.7M363,415V378.4m31.3,-18.8L363,378.2m30.2,-10.9L370.1,381m23.1,45.1L370.1,412.4M425.5,304.3l31.2,18.6m0,36.7V323.1m-31.2,55.3l31.2,-18.6m-62.4,-.2V323.1m31.2,-18.8l-31.2,18.6m32.3,-11l23,13.7m-23,45.2l23,-13.7m-49.3,-2.2V327.8M607.4,486.9V313.8" class="g0_3"/>
<path d="M621.7,419V381.7c0,-2.8,2.3,-5.2,5.2,-5.2H765.5c2.9,0,5.2,2.4,5.2,5.2V419c0,2.8,-2.3,5.2,-5.2,5.2H626.9c-2.9,0,-5.2,-2.4,-5.2,-5.2Z" class="g1_3"/>
<path d="M647.6,415.9c1.4,0,2.1,-2.8,3.5,-2.8c1,0,1.8,1.4,2.7,2.8c.9,1.4,1.8,2.7,2.7,2.7c1,0,1.9,-1.3,2.8,-2.7c.9,-1.4,1.7,-2.8,2.7,-2.8c1,0,1.9,1.4,2.8,2.8c.9,1.4,1.7,2.7,2.7,2.7c1,0,1.9,-1.3,2.7,-2.7c.9,-1.4,1.8,-2.8,2.8,-2.8c1,0,1.8,1.4,2.7,2.8c.9,1.4,1.8,2.7,2.8,2.7c1.3,0,2,-2.7,3.4,-2.7h1.8" class="g2_3"/>
<path d="M607.4,516.1V486.9M124.8,516.5H784.6M607.4,546.1V516.9M273.2,647.3l31.2,18.6m0,36.7V666.1m-31.2,55.4l31.2,-18.7m-31.2,18.7L241.9,702.8m0,-.2V666.1m31.3,-18.8l-31.3,18.6M210.7,647.3l31.2,18.6m-31.2,55.6l31.2,-18.7m-31.2,18.7L179.5,702.8m0,-.2V666.1m31.2,-18.8l-31.2,18.6M209.6,655l-23,13.7m23,45.1l-23,-13.7M272.1,655L249,668.7m23.1,45.1L249,700.1m86.6,-52.8l31.3,18.6m0,36.7V666.1m-31.3,55.4l31.3,-18.7m-31.3,18.7L304.4,702.8m31.2,-55.5l-31.2,18.6M334.5,655l-23,13.7m23,45.1l-23,-13.7m86.6,-52.8l31.2,18.6m0,36.7V666.1m-31.2,55.4l31.2,-18.7m-31.2,18.7L366.9,702.8m31.2,-55.5l-31.2,18.6M397,655l-23,13.7m23,45.1L374,700.1M429.3,591.9l31.3,18.7m0,36.7V610.8m-31.3,55.3l31.3,-18.6m-62.5,-.2V610.8m31.2,-18.9l-31.2,18.7m30.1,-11l-23,13.7m23,45.1l-23,-13.7M460.6,536.6l31.2,18.6m0,36.7V555.4m-31.2,55.4l31.2,-18.7m-62.5,-.2V555.4m31.3,-18.8l-31.3,18.6m32.4,-10.9l23,13.7m-23,45.1l23,-13.7m-49.3,-2.2v-27m172,159.1V546.1" class="g0_3"/>
<path d="M624.4,651.3V614.1c0,-2.9,2.3,-5.2,5.2,-5.2H762.8c2.9,0,5.2,2.3,5.2,5.2v37.2c0,2.9,-2.3,5.2,-5.2,5.2H629.6c-2.9,0,-5.2,-2.3,-5.2,-5.2Z" class="g1_3"/>
<path d="M650.4,644.6c1.4,0,2.1,-2.8,3.4,-2.8c1,0,1.9,1.3,2.8,2.8c.9,1.4,1.7,2.7,2.7,2.7c1,0,1.8,-1.3,2.7,-2.7c.9,-1.5,1.8,-2.8,2.8,-2.8c1,0,1.8,1.3,2.7,2.8c.9,1.4,1.8,2.7,2.8,2.7c1,0,1.8,-1.3,2.7,-2.7c.9,-1.5,1.7,-2.8,2.7,-2.8c1.4,0,2.1,2.8,3.5,2.8H681" class="g2_3"/>
<path d="M607.4,748.5V719.3M124.8,748.9H784.6M607.4,778.4V749.2M245.8,934.4L277,953.1m0,36.7V953.2m-31.2,55.4L277,990m-31.2,18.6L214.5,990m0,-.2V953.2m31.3,-18.8l-31.3,18.7M183.3,934.4l31.2,18.7m-31.2,55.5L214.5,990m-31.2,18.6L152.1,990m0,-.2V953.2m31.2,-18.8l-31.2,18.7m30.1,-11l-23,13.7m23,45.1l-23,-13.7m85.5,-45.1l-23.1,13.7m23.1,45.1L221.6,987.2m86.6,-52.8l31.3,18.7m0,36.7V953.2m-31.3,55.4L339.5,990m-31.3,18.6L277,990m31.2,-55.6L277,953.1m30.1,-11l-23,13.7m23,45.1l-23,-13.7m86.6,-52.8l31.2,18.7m0,36.7V953.2m-31.2,55.4L401.9,990m-31.2,18.6L339.5,990m31.2,-55.6l-31.2,18.7m30.1,-11l-23,13.7m23,45.1l-23,-13.7M401.9,879.1l31.3,18.6m0,36.7V897.9m-31.3,55.3l31.3,-18.6m-62.5,-.2V897.9m31.2,-18.8l-31.2,18.6m30.1,-10.9l-23,13.7m23,45.1l-23,-13.7M433.2,823.7l31.2,18.7m0,36.7V842.6m-31.2,55.3l31.2,-18.6m-62.5,-.2V842.6m31.3,-18.9l-31.3,18.7m30.2,-11l-23,13.7m23,45.1l-23,-13.7M464.4,768.4L495.6,787m0,36.7V787.2m-31.2,55.4l31.2,-18.7m-62.4,-.2V787.2m31.2,-18.8L433.2,787m32.3,-10.9l23,13.7m-23,45.1l23,-13.7M439.2,819V792m168.2,214.4v-228" class="g0_3"/>
<path d="M621.3,911V873.8c0,-2.9,2.4,-5.2,5.2,-5.2H765.9c2.8,0,5.1,2.3,5.1,5.2V911c0,2.9,-2.3,5.2,-5.1,5.2H626.5c-2.8,0,-5.2,-2.3,-5.2,-5.2Z" class="g1_3"/>
<path d="M647.3,907.9c1.4,0,2.1,-2.7,3.5,-2.7c.9,0,1.8,1.3,2.7,2.7c.9,1.4,1.7,2.8,2.7,2.8c1,0,1.9,-1.4,2.8,-2.8c.9,-1.4,1.7,-2.7,2.7,-2.7c1,0,1.9,1.3,2.8,2.7c.8,1.4,1.7,2.8,2.7,2.8c1,0,1.8,-1.4,2.7,-2.8c.9,-1.4,1.8,-2.7,2.8,-2.7c1,0,1.8,1.3,2.7,2.7c.9,1.4,1.8,2.8,2.8,2.8c1.3,0,2,-2.8,3.4,-2.8H684" class="g2_3"/>
<path d="M607.4,1035.6v-29.2M124.8,1036H784.6" class="g0_3"/>
</svg>