<?xml version="1.0" encoding="UTF-8" standalone="no"?>
<!DOCTYPE svg PUBLIC "-//W3C//DTD SVG 1.1//EN"
"http://www.w3.org/Graphics/SVG/1.1/DTD/svg11.dtd">
<svg viewBox="0 0 909 1286" version="1.1" xmlns="http://www.w3.org/2000/svg" xmlns:xlink="http://www.w3.org/1999/xlink">
<defs>
<clipPath id="c0_17"><path d="M123.1,489.7V458h29.1v31.7Z"/></clipPath>
<clipPath id="c1_17"><path d="M122.9,872.7V838.1H152v34.6Z"/></clipPath>
<clipPath id="c2_17"><path d="M122.1,490.2V457.5H153v32.7Z"/></clipPath>
<clipPath id="c3_17"><path d="M122.1,873.2V837H153v36.2Z"/></clipPath>
<style type="text/css"><![CDATA[
.g0_17{
fill: none;
stroke: #000000;
stroke-width: 0.73;
stroke-linecap: butt;
stroke-linejoin: miter;
}
.g1_17{
fill: #FFFFFF;
}
.g2_17{
}
.g3_17{
fill: none;
stroke: #000000;
stroke-width: 0.459;
stroke-linecap: butt;
stroke-linejoin: round;
}
.g4_17{
fill: none;
stroke: #000000;
stroke-width: 0.722;
stroke-linecap: round;
stroke-linejoin: miter;
}
.g5_17{
fill: none;
stroke: #000000;
stroke-width: 0.722;
stroke-linecap: round;
stroke-linejoin: round;
}
.g6_17{
fill: #D40000;
}
.g7_17{
fill: none;
stroke: #000000;
stroke-width: 0.578;
stroke-linecap: round;
stroke-linejoin: miter;
}
.g8_17{
fill: #E9C6AF;
}
.g9_17{
fill: none;
stroke: #695000;
stroke-width: 0.152;
stroke-linecap: round;
stroke-linejoin: round;
}
.ga_17{
fill: none;
stroke: #000000;
stroke-width: 1.461;
stroke-linecap: butt;
stroke-linejoin: miter;
}
.gb_17{
fill: none;
stroke: #000000;
stroke-width: 2.739;
stroke-linecap: butt;
stroke-linejoin: miter;
}
.gc_17{
fill: #868686;
}
.gd_17{
fill: #242628;
}
.ge_17{
fill: #A0A0A0;
}
.gf_17{
fill: #C4956E;
}
.gg_17{
fill: #222426;
}
.gh_17{
fill: #202126;
}
.gi_17{
fill: #252427;
}
.gj_17{
fill: #222924;
}
]]></style>
</defs>
<path d="M116.9,159.9H792.5m-324.1,182h23" class="g0_17"/>
<path d="M117.7,726.4V451.2H791.8V726.4Z" class="g1_17"/>
<path d="M117.7,726.4V451.2H791.8V726.4Z" class="ga_17"/>
<g clip-path="url(#c2_17)">
<path clip-path="url(#c0_17)" d="M126.4,483.4c0,0,1.5,-1,1.2,-1.3c-.1,-.1,-.3,-.1,-.6,-.1c-1.6,.4,-5,2.1,-3.3,4.2c1.4,1.5,6.4,2.4,11.7,1.3c7.3,-1.4,13.5,-5.4,11.1,-8.2c-1.6,-2,-6.7,-2.2,-10.8,-2.2c-2.1,0,-6.6,-.1,-8,-1.8c-.6,-.7,-.5,-1.5,.1,-2.1c1,-.9,3.8,-1.5,4,-1.5c.7,-.1,2.5,-.4,4.6,-.4c1.1,0,2.5,.1,3.2,1c.3,.2,.4,.5,.4,.7c0,0,0,.1,.1,.2c.1,.1,.4,.1,.5,0c.5,-.1,1.5,-.5,2,-1c.3,-.2,.8,-.6,0,-1.5c-.9,-1.1,-2.3,-1.2,-4,-1.2c-2.3,0,-4.1,.3,-4.9,.5c-5.8,1.1,-11.1,4.5,-9,7c1.5,1.8,6.3,1.9,9,1.9c3.9,.1,8.4,.3,9.8,2c.6,.6,.9,1.8,-.4,2.9c-1.2,.9,-4,1.7,-5.8,2c-4.4,.9,-9.4,.2,-10.6,-1.3c0,0,-.5,-.5,-.3,-1.1Z" class="g2_17"/>
<path d="M131.5,485.8l-.2,-.2l.3,-4.6q.3,-5.6,.5,-6c.1,-.1,1.6,-2.2,3.3,-4.6c1.7,-2.3,4.3,-6.1,5.9,-8.2c1.5,-2.2,2.8,-4,2.9,-4c.4,0,.1,.4,-1.8,3.2c-1.2,1.6,-3.7,5.2,-5.7,8.1c-2,2.8,-3.6,5.2,-3.6,5.2c0,0,.5,.1,1,.1c2,.3,3.3,.6,4.5,1.2c.6,.4,1,.6,1.5,1.2c.8,.8,1.2,1.3,1.4,2.2c.1,.2,.2,.4,.2,.4c.1,0,.7,-.8,5.2,-7.5c2.4,-3.7,4.5,-6.8,4.6,-6.9c.2,-.2,.4,0,.2,.3c0,.1,-1.5,2.3,-3.2,5c-1.8,2.6,-3.8,5.7,-4.5,6.7c-1.5,2.4,-2.1,3.3,-2.3,3.8c-.2,.4,-.3,.4,-.9,.7c-.8,.4,-8.7,3.9,-8.9,4c-.1,.1,-.3,0,-.4,-.1Z" class="g2_17"/>
<path d="M135.2,483.8c2.2,-1,4,-1.7,4.6,-2.1c.7,-.3,.7,-.4,.7,-1.4c-.2,-1.7,-1.4,-3,-3.6,-3.7c-1.2,-.4,-4.3,-.8,-4.4,-.6c0,0,-.1,1.4,-.2,3.1c-.1,1.7,-.2,3.3,-.2,3.6c-.1,1.1,.1,1.4,-.2,2.5c.1,.2,1.8,-.8,1.8,-.8c.1,0,.7,-.3,1.5,-.6Z" class="g2_17"/>
<path d="M131.5,485.8l-.2,-.2l.3,-4.6q.3,-5.6,.5,-6c.1,-.1,1.6,-2.2,3.3,-4.6c1.7,-2.3,4.3,-6.1,5.9,-8.2c1.5,-2.2,2.8,-4,2.9,-4c.4,0,.1,.4,-1.8,3.2c-1.2,1.6,-3.7,5.2,-5.7,8.1c-2,2.8,-3.6,5.2,-3.6,5.2c0,0,.5,.1,1,.1c2,.3,3.3,.6,4.5,1.2c.6,.4,1,.6,1.5,1.2c.8,.8,1.2,1.3,1.4,2.2c.1,.2,.2,.4,.2,.4c.1,0,.7,-.8,5.2,-7.5c2.4,-3.7,4.5,-6.8,4.6,-6.9c.2,-.2,.4,0,.2,.3c0,.1,-1.5,2.3,-3.2,5c-1.8,2.6,-3.8,5.7,-4.5,6.7c-1.5,2.4,-2.1,3.3,-2.3,3.8c-.2,.4,-.3,.4,-.9,.7c-.8,.4,-8.7,3.9,-8.9,4c-.1,.1,-.3,0,-.4,-.1Zm3.7,-2c2.2,-1,4,-1.7,4.6,-2.1c.7,-.3,.7,-.4,.7,-1.4c-.2,-1.7,-1.4,-3,-3.6,-3.7c-1.2,-.4,-4.3,-.8,-4.4,-.6c0,0,-.1,1.4,-.2,3.1c-.1,1.7,-.2,3.3,-.2,3.6c-.1,1.1,.1,1.4,-.2,2.5c.1,.2,1.8,-.8,1.8,-.8c.1,0,.7,-.3,1.5,-.6Z" class="g3_17"/>
<path d="M135.3,475.2l11.2,-16m-8.2,17.1L149,460.6" class="g4_17"/>
<path d="M140.4,478l10,-14.4l.2,-.3" class="g5_17"/>
<path d="M134.1,474.8c-.4,-.1,-.8,-.1,-.9,-.1c0,-.1,2.5,-3.7,6.7,-9.6c1.9,-2.7,3.6,-5.2,3.8,-5.6c.2,-.3,.4,-.6,.5,-.6c.1,0,.7,.5,.9,.7c.1,.3,.1,.6,-.1,1.1c-.2,.5,-9.8,14.3,-9.9,14.2c-.1,0,-.5,0,-1,-.1Z" class="g6_17"/>
<path d="M137.6,475.6c-.2,-.1,-.8,-.3,-1.2,-.4l-.7,-.2l.3,-.3c.1,-.2,2.3,-3.4,4.8,-7l4.7,-6.7l.5,-.3c.9,-.5,1.6,-.5,2.1,0l.3,.3l-5,7.4c-3,4.5,-5.1,7.4,-5.1,7.4c-.1,0,-.4,-.1,-.7,-.2Z" class="g6_17"/>
<path d="M140,477c-.2,-.2,-.6,-.5,-.8,-.7c-.2,-.1,-.3,-.2,-.3,-.3c0,0,9.4,-13.9,9.8,-14.5c.1,-.1,.5,.3,.8,.7c.3,.4,.3,.6,.4,1c0,.4,0,.6,-.1,.8c-.2,.2,-9.1,13.1,-9.2,13.3q-.2,.1,-.6,-.3Z" class="g6_17"/>
<path d="M141.6,479.7c0,-.1,-.1,-.4,-.1,-.6c-.1,-.2,-.3,-.6,-.4,-.8l-.3,-.4l4.7,-6.8c2.6,-3.8,4.8,-6.8,4.8,-6.8c.4,0,1,.7,1,1.1c0,.2,-.6,1.2,-1.9,3.1c-1.1,1.5,-3.1,4.6,-4.6,6.8c-3,4.4,-3.1,4.5,-3.2,4.4Z" class="g6_17"/>
<path d="M131.9,481.1c2.3,-.1,3.6,.7,4.1,2.4" class="g7_17"/>
<path d="M132,485.1c0,-.4,.1,-.5,.1,-1.4c0,-.7,0,-.9,0,-1.3c0,-.3,0,-.6,0,-.7l.1,-.3c.1,0,.6,0,.7,.1c.4,0,.8,.1,1.1,.2c.2,.1,.5,.2,.6,.3c.2,.1,.3,.2,.4,.4c.3,.2,.4,.4,.6,.7c0,.2,.2,.5,.1,.5c0,0,-1.5,.7,-1.8,.7c-.1,.1,-.2,.1,-.3,.2c-1.1,.5,-1.4,.7,-1.6,.7Z" class="g2_17"/>
<path d="M136.2,483c-.6,-1.3,-1.8,-2,-3.4,-2.1l-.6,-.1v-.5c.1,-.3,.1,-1.2,.2,-2.2c0,-.9,.1,-1.8,.1,-1.9l.1,-.2h.7c.8,0,2.3,.3,3.1,.5c1.7,.4,3.1,1.4,3.6,2.5c.4,.8,.6,2.1,.3,2.4c-.1,.1,-.8,.5,-2.5,1.2c-1.6,.8,-1.5,.7,-1.6,.4Z" class="g8_17"/>
<path d="M136.2,483c-.6,-1.3,-1.8,-2,-3.4,-2.1l-.6,-.1v-.5c.1,-.3,.1,-1.2,.2,-2.2c0,-.9,.1,-1.8,.1,-1.9l.1,-.2h.7c.8,0,2.3,.3,3.1,.5c1.7,.4,3.1,1.4,3.6,2.5c.4,.8,.6,2.1,.3,2.4c-.1,.1,-.8,.5,-2.5,1.2c-1.6,.8,-1.5,.7,-1.6,.4Z" class="g9_17"/>
</g>
<path d="M152.7,502.9H461.2" class="g0_17"/>
<path d="M137.6,508.1V717" class="gb_17"/>
<path d="M117.7,1084.8V830.7H791.8v254.1Z" class="g1_17"/>
<path d="M117.7,1084.8V830.7H791.8v254.1Z" class="ga_17"/>
<g clip-path="url(#c3_17)">
<path clip-path="url(#c1_17)" d="M125.6,872.6c-.1,-.1,-.1,-.2,0,-.3c0,-.2,.1,-1.3,0,-1.7c0,-.2,0,-.5,0,-.7c.2,-.9,.3,-2.2,.3,-2.2c0,-.1,0,-.3,.1,-.6c.1,-.5,.1,-.6,-.1,-1c-.3,-.5,-.9,-2,-1.1,-2.7c-.4,-1.8,-.5,-4.6,-.1,-6.1c.3,-1.1,.5,-1.2,.9,-.5c.3,.7,.4,.5,0,-.3c-.3,-.7,-.6,-2,-.5,-2.4c0,-.2,.2,-.7,.4,-1.1c.2,-.5,.4,-1,.5,-1.2c.2,-.5,.5,-.8,.9,-.6c.1,0,.2,.2,.3,.4q.2,.2,.1,-.3c-.1,-.3,-.2,-.5,-.1,-.6c0,0,0,-.1,0,-.3c.1,-.4,1,-2.1,1.6,-2.7c.3,-.2,.6,-.5,.7,-.7c.1,-.1,.5,-.4,.8,-.7c.3,-.2,.7,-.5,.9,-.7c.4,-.4,.7,-.5,.9,-.3q.2,.2,.2,-.1c0,-.2,0,-.4,0,-.5c.1,-.3,1.5,-1.2,2.1,-1.5c.3,-.2,.6,-.3,.8,-.5c.1,-.1,.3,-.2,.4,-.2c0,0,.4,-.2,.8,-.4c.4,-.2,.9,-.5,1,-.5c.2,-.1,.6,-.3,1,-.4c1.1,-.5,1.6,-.8,2.4,-1.1c.5,-.1,.9,-.3,1,-.3c0,-.1,.1,0,.3,.1l.2,.2l.4,-.4c.6,-.5,1.6,-.8,3.8,-1.1c.9,-.1,2.2,-.3,2.8,-.4l1,-.1l.1,.2q.1,.3,-.3,.5c-2.7,1,-4.6,1.9,-5.5,2.8c-.3,.2,-.5,.4,-.5,.4c-.1,0,-1.5,1.4,-1.5,1.5c0,.1,-.1,.2,-.2,.3c-.3,.2,-.6,.8,-.5,1.1c0,.2,-.1,.3,-.4,.5c-.3,.2,-.4,.4,-.4,.4c.2,.2,0,1,-.2,1.2c-.7,.8,-1.7,2.3,-1.9,2.9c-.1,.1,-.2,.4,-.4,.7c-.2,.4,-.4,.8,-.5,1.1c-.4,1,-.4,.9,-1,1c-.5,0,-1.4,.3,-1.3,.4c0,.1,.4,0,.9,0c1.1,-.2,1.2,-.1,.8,.6c-.4,.8,-.7,1.7,-.7,2.2c0,.3,-.2,.8,-.6,2.3c-.1,.3,-.3,.4,-.7,.7c-.5,.3,-.6,.3,-1.2,.3q-.7,0,-.6,.2c.1,.2,-.1,.5,-.5,1.3c-.3,.7,-.7,1.3,-.8,1.4c-.2,.1,-.4,.4,-.6,.7c-.2,.3,-.4,.6,-.5,.6c0,0,-.2,.1,-.3,.3c-.6,.8,-2.7,2.6,-3,2.6l.3,-3.2c.1,.1,.4,0,.6,-.3c.2,-.4,.5,-.5,1.1,-.6c.5,0,.6,-.1,1,-.5c.2,-.2,.6,-.8,.9,-1.4l.5,-.9l-.5,-.3c-.3,-.1,-.6,-.3,-.7,-.4c-.1,-.2,.4,-1,.7,-1.1c.2,-.1,.5,-.1,.7,-.1c.2,-.1,.5,-.2,.7,-.3c.3,-.2,.5,-.3,.7,-.3c.6,-.1,.8,-.4,.8,-1.3c.1,-.9,.2,-1.1,.5,-1.2c.4,-.2,.7,-.1,.9,.2l.1,.2l.1,-.3c.1,-.3,.1,-.4,-.1,-.4c-.1,0,-.2,0,-.3,-.2c-.1,-.2,-.1,-.3,-.6,-.4c-.6,-.2,-.7,-.3,-.5,-.5c0,-.1,0,-.3,0,-.4c-.1,-.3,.4,-.8,1,-1c.5,-.2,.6,-.3,1.1,-1.3c.3,-.6,.8,-1.2,1,-1.4c.2,-.3,.5,-.6,.6,-.7c.1,-.2,.2,-.3,.4,-.3c.2,.1,.4,0,.5,-.1c.2,-.2,.9,-1.2,.8,-1.2c0,0,-.2,.1,-.5,.2c-.7,.3,-1.8,.3,-2,0c-.2,-.4,.4,-1.2,.9,-1.2c.1,-.1,1.1,-.6,1.5,-.8c.1,-.2,.3,-.5,.5,-.8c.3,-.8,.8,-1.4,1.2,-1.5c.5,-.1,.7,-.3,.9,-.8c.2,-.4,.1,-.6,-.4,-.8c-.1,-.1,-.3,-.2,-.4,-.4c0,-.1,-.1,-.2,-.2,-.2c-.3,.1,-3,1.1,-4.1,1.7c-.2,.1,-.5,.3,-.7,.5c-.1,.2,-.5,.6,-.9,.9c-.4,.3,-.9,.7,-1,1c-.1,.2,-.4,.6,-.7,.9c-.4,.4,-.4,.5,-.4,1.2c-.1,.4,0,.9,.1,1.2c.3,.7,.2,1.1,-.3,1c-.5,0,-.8,-.4,-1.3,-1.5c-.3,-.6,-.6,-1.1,-.6,-1.1c-.2,0,-.8,.8,-1.1,1.3c-.2,.5,-.3,.6,-.7,.8q-.5,.2,-.7,.7c-.1,.3,-.1,.6,-.1,.8c.1,.1,.1,.2,.1,.3c-.1,.4,-.1,.8,.1,1.2c.2,.3,.3,.7,.3,.8c0,.2,.1,.6,.3,.9c.3,.6,.3,.7,.2,1.2c-.1,.3,-.1,.6,-.1,.8c-.1,.3,-.4,.2,-1.1,-.3c-.5,-.5,-1.2,-1.2,-2,-2.4c-.3,-.4,-.4,-.4,-.3,-.1c0,.1,-.1,.5,-.2,.8c-.2,.7,-.1,1.4,.2,1.8c.2,.3,.8,1.9,.9,2.3c0,.1,0,.4,.1,.5c.1,.2,.1,.9,-.1,1.2c0,.1,0,.3,0,.4c0,.2,-.1,.3,-.2,.3c-.2,0,-.7,-.4,-1,-.7c-.1,-.1,-.3,-.3,-.4,-.5l-.3,-.3l-.1,.2c-.1,.3,0,.8,.1,1.2c.3,.8,.4,2.4,.2,2.9c0,.2,-.2,.4,-.4,.5c-.4,.3,-.3,.6,.4,1.5l.4,.5l.1,-.3c.1,-.1,.2,-.6,.3,-.9c.1,-.4,.2,-.9,.3,-1.1c.1,-.1,.2,-.5,.3,-.7c.1,-.5,.1,-.6,2.3,-5.3q1,-2.1,1.9,-3.4c.7,-1.1,1.3,-2,1.9,-3c.8,-1.3,.9,-1.6,1.4,-2.1c.3,-.4,.7,-.8,.9,-1.1c.9,-1.1,1.1,-1.4,1.3,-1.3c.1,0,.2,.1,.2,.1c0,0,-.2,.4,-.5,.8c-.3,.5,-.8,1.1,-1,1.6c-.9,1.4,-2.1,3.3,-2.5,3.9c-.2,.4,-.5,.8,-.6,1c-.1,.2,-.4,.6,-.5,.9c-.2,.2,-.3,.6,-.3,.7c-.1,.3,-.2,.7,-1.2,2.5c-.8,1.6,-1,2,-1.7,3.8c-.5,1,-.8,2.1,-.7,2.3l-.3,3.2c-.3,.1,-.5,1.9,-.2,3c.1,.7,.1,1,-.2,1.2c-.6,.5,-1.1,1.2,-1.3,1.7c-.1,.4,-.2,.5,-.4,.5c-.1,.1,-.2,0,-.3,-.1Z" class="gc_17"/>
<path d="M133.1,859.1c-.1,-.1,-.3,-.1,-.3,-.1q-.2,0,0,.1c0,.1,.2,.1,.3,.1q.2,0,0,-.1Z" class="g1_17"/>
<path d="M144.5,840q0,-.1,-.1,-.1c-.1,0,-.1,.1,-.2,.2q0,.1,.1,.1c.1,0,.2,-.1,.2,-.2Z" class="g1_17"/>
<path d="M125.7,872.7c-.1,-.1,-.1,-.2,-.1,-.4c.1,-.1,.1,-.8,.1,-1.6c0,-1.4,.1,-2.2,.4,-3.6l.1,-.6l-.5,-.9c-.2,-.6,-.5,-1.3,-.6,-1.7c-.1,-.3,-.3,-.8,-.3,-.9c-.2,-.7,-.3,-2.9,-.3,-4c.1,-1,.5,-2.5,.7,-2.5c.1,0,.2,.1,.5,.5c.4,.8,.6,.8,.2,-.1c-.4,-.8,-.7,-1.8,-.7,-2.4c0,-.5,.5,-2,.9,-2.8c.2,-.3,.3,-.5,.5,-.5q.3,0,.9,.9l.5,.7l-.4,-.7c-.5,-1.2,-.4,-1.7,.3,-2.9c.3,-.5,.6,-1,.7,-1.1c.1,-.1,.4,-.4,.6,-.7c.3,-.3,.8,-.8,1.2,-1c.3,-.3,.7,-.6,.9,-.9c.4,-.4,.7,-.4,1,.2l.2,.4l-.1,-.5c-.1,-.8,0,-1,.8,-1.6c.5,-.3,.9,-.6,1,-.6c0,0,.1,0,.1,-.1c0,0,.1,-.1,.3,-.1q.2,0,.2,.1c-.1,.1,-.1,.2,-.2,.2c-.1,0,-.4,.2,-.7,.5c-.4,.3,-.8,.6,-.9,.7c-.2,.1,-.3,.2,-.3,.7c.1,.3,.1,.6,.2,.8c.1,.5,.1,1,0,1c-.2,0,-.4,-.2,-.7,-.9l-.3,-.6l-.4,.2c-.1,.2,-.3,.3,-.3,.4c-.1,0,-.3,.2,-.6,.5c-.3,.2,-.6,.4,-.7,.5c-.1,.1,-.3,.4,-.6,.6c-.6,.6,-1.6,2.3,-1.5,2.6c.1,.3,1,2.2,1.7,3.4c.5,1,.6,1.1,.4,1.1c-.2,0,-1.2,-.8,-1.6,-1.4c-.3,-.3,-.6,-.7,-.8,-.9c-.1,-.2,-.3,-.5,-.4,-.7c-.2,-.4,-.4,-.4,-.6,0c-.3,.5,-.8,2.1,-.9,2.5c-.1,.8,.6,2.6,1.5,3.8c.7,1,.7,1.3,-.1,.8c-.3,-.2,-1.2,-1.3,-1.5,-1.6c0,-.1,-.1,-.2,-.1,-.2c-.2,.1,-.4,1.1,-.4,1.7c0,.4,0,.8,-.1,.9c0,.1,0,.7,.1,1.3c.1,.6,.1,1.3,.1,1.5c.1,.7,1,3,1.2,3c0,-.1,.1,-.6,.3,-1.2c.2,-.6,.3,-1.2,.4,-1.4c0,-.2,.1,-.5,.1,-.5c.1,-.1,.2,-.4,.3,-.7c.1,-.5,.2,-.9,1.1,-2.7c.3,-.6,.7,-1.4,.9,-1.9c.8,-1.7,1.6,-3.2,2.2,-4.2c.7,-1,1.1,-1.6,1.9,-3c.2,-.4,.6,-.8,.7,-1c.2,-.3,.3,-.5,.3,-.6c.1,-.1,.3,-.4,.6,-.7c.2,-.3,.6,-.7,.8,-1c.9,-1.2,1.1,-1.4,1.2,-1.3c.2,.1,.2,.2,-.6,1.2c-.2,.3,-.6,.8,-.8,1.2c-.8,1.4,-2.1,3.5,-2.4,3.9c-.6,.8,-1.5,2.5,-1.5,2.7c0,.2,-.5,1.3,-1.2,2.6c-.7,1.3,-1.3,2.7,-1.5,3.1c-.1,.4,-.3,.8,-.3,.8c-.1,.1,-.5,1.3,-.6,1.8c0,.3,-.1,.7,-.1,1c-.2,.7,-.3,2,-.3,2.1c0,0,.1,-.1,.3,-.2c.1,-.1,.3,-.3,.6,-.4c.2,-.2,.5,-.5,.8,-.7c.2,-.3,.4,-.5,.5,-.5c.6,-.6,.9,-1,1.2,-1.5c.3,-.3,.6,-.7,.7,-.8c.3,-.3,1.2,-2,1.2,-2.1c-.1,-.1,-.4,-.3,-.9,-.5c-.9,-.5,-1,-.6,-.8,-.7c.1,-.1,1,0,1.8,.2c.2,.1,.7,.1,1,.1c.9,-.1,1.4,-.4,1.6,-1.1c.1,-.2,.2,-.6,.2,-.7c.1,-.3,.3,-1,.3,-1.6c.1,-.5,.4,-1.3,.6,-1.6l.2,-.3h-.5c-.5,.1,-1.6,-.1,-1.7,-.3c-.1,-.2,.7,-.6,1.6,-.8l.8,-.2l.2,-.6c.2,-.3,.3,-.7,.4,-.8c0,-.2,.1,-.4,.2,-.5c.1,-.1,.3,-.3,.4,-.6c.1,-.2,.3,-.6,.5,-.9c1.3,-1.9,1.5,-2.3,1.4,-2.3c-.1,0,-.4,.1,-.6,.2c-.7,.4,-1.5,.4,-1.5,.1c0,-.3,1.8,-1.4,2.7,-1.6q.4,-.1,.4,-.5c0,-.3,.2,-.7,.3,-.8c.1,-.2,.3,-.5,.4,-.7c.3,-.5,2.2,-2.2,3.2,-2.8c.7,-.4,1.8,-1,2.7,-1.4l.7,-.3l-1.6,.2c-2.6,.4,-3.7,.7,-4.4,1.5c-.3,.3,-.4,.4,-.5,.1c-.1,-.2,.6,-.9,1.2,-1.1c.6,-.3,1.7,-.6,2.4,-.7c.4,0,1.5,-.2,2.5,-.3c1.5,-.3,1.8,-.3,1.9,-.2c.4,.2,.3,.3,-.2,.5c-1.1,.5,-2.2,.9,-2.9,1.3c-.7,.3,-2,1,-2.2,1.2c-.1,.1,-.3,.3,-.5,.5c-1,.8,-1.7,1.5,-1.9,1.8c-.1,.2,-.3,.4,-.4,.6c-.1,.1,-.3,.4,-.3,.6c0,.4,-.1,.5,-.4,.7c-.2,.2,-.5,.3,-.6,.3h-.2l.2,.1c.4,0,.5,.2,.3,.4c0,.1,-.1,.3,-.1,.3c.1,.1,-.1,.4,-.4,.7c-.2,.2,-.5,.6,-.6,.8c-.1,.1,-.3,.5,-.4,.7c-.4,.5,-.6,.9,-.7,1.1c0,.1,-.2,.5,-.4,.8c-.2,.5,-.4,.8,-.7,1.6c-.1,.3,-.2,.4,-.7,.4c-.7,.2,-1.5,.4,-1.4,.5c0,.1,.4,0,.9,0c.8,-.1,.9,-.1,1,0c.1,.1,.1,.3,-.2,.7c-.3,.6,-.7,1.7,-.7,2.1c0,.4,-.3,1.3,-.6,2.2c-.1,.3,-.2,.5,-.6,.7c-.5,.3,-.6,.3,-1.2,.3c-.4,0,-.9,0,-1,0c-.2,-.1,-.5,-.2,-.8,-.2l-.6,-.1l.5,.2c.3,.1,.6,.2,.7,.3q.5,0,.6,.1c.1,.2,-.9,2.1,-1.3,2.5c-.2,.2,-.5,.6,-.6,.8c-.2,.3,-.4,.5,-.5,.6c-.2,.1,-.4,.4,-.6,.6c-.4,.5,-1.3,1.3,-1.7,1.6c-.1,.1,-.4,.3,-.5,.4c-.1,.1,-.3,.3,-.5,.3c-.2,.1,-.3,.3,-.3,.5c-.1,.5,-.1,1.8,-.1,2.1c0,.1,.1,.4,.1,.8c.1,.6,.1,.7,-.2,.9c-.4,.3,-1,1.1,-1.2,1.7c-.2,.3,-.3,.5,-.3,.5c-.1,0,-.2,0,-.3,0Z" class="gd_17"/>
<path d="M128.2,852.3q-.1,-.2,-.1,-.1c-.1,.2,0,.3,.1,.3c.1,0,.1,-.1,0,-.2Z" class="gd_17"/>
<path d="M139.7,846.4c.2,-.1,.5,-.3,.7,-.4l.2,-.2l-.3,.1c-.5,.1,-1.4,.5,-1.4,.7c0,.1,.3,0,.8,-.2Z" class="ge_17"/>
<path d="M139.7,846.3c.4,-.2,.6,-.4,.2,-.2c-.3,.1,-.9,.4,-.7,.4c0,0,.3,-.1,.5,-.2Z" class="g1_17"/>
<path d="M134.9,843.1c0,-.1,.6,-.5,.7,-.4c.2,.1,.2,.2,-.1,.3c-.1,0,-.3,.1,-.4,.1q-.1,.1,-.2,0Z" class="gd_17"/>
<path d="M136.2,842.4c.1,-.1,.2,-.2,.3,-.2q.2,0,.1,.2c-.1,.1,-.2,.1,-.3,.2q-.2,0,-.1,-.2Z" class="gd_17"/>
<path d="M137.1,841.9c.1,-.2,.6,-.3,.7,-.2c0,.1,-.5,.3,-.7,.3c-.1,.1,-.1,0,0,-.1Z" class="gd_17"/>
<path d="M137.9,841.6c0,-.1,.8,-.5,1.3,-.7c.3,-.1,.6,-.2,.7,-.3c.4,-.2,1.9,-.8,2.1,-.7c.2,.1,.1,.3,-.2,.3c-.5,.1,-1.7,.5,-3,1.1c-.6,.3,-.8,.4,-.9,.3Z" class="gd_17"/>
<path d="M125.7,872.6c0,-.1,0,-.2,0,-.2c0,-.1,.1,-.7,.1,-1.3c0,-1.3,0,-1.9,.4,-4l.1,-.6l-.6,-1.1c-.3,-.6,-.5,-1.2,-.6,-1.6c-.1,-.3,-.2,-.7,-.2,-.9c-.3,-1,-.4,-4.1,-.1,-5.2c.1,-.4,.2,-.8,.2,-.9c.1,-.4,.2,-.3,.7,.3c.6,1.1,.9,1,.3,-.1c-.4,-.6,-.8,-2,-.8,-2.6c0,-.3,.6,-1.9,1,-2.7c.1,-.2,.3,-.4,.4,-.4c.2,0,.3,0,.5,.4c.5,.6,.6,.9,.5,.8c-.1,0,-.3,-.2,-.4,-.4c-.4,-.8,-.6,-.6,-1.2,.9c-.7,1.8,-.6,2.3,.7,4.7c.5,.8,.8,1.5,.7,1.5c-.2,.1,-1.4,-1.1,-1.7,-1.6c-.1,-.1,-.2,-.3,-.3,-.3q-.1,-.1,-.2,.1c-.3,.8,-.4,2.5,-.2,4c0,.5,.1,1.2,.1,1.4c0,.5,1,3.1,1.2,3.1c.1,0,.1,-.1,.1,-.3c0,-.1,.1,-.7,.3,-1.3c.2,-.5,.3,-1.1,.4,-1.3c0,-.2,0,-.3,.1,-.3c.1,-.1,.4,-1.1,.4,-1.2c0,-.1,.1,-.4,.2,-.7c.9,-1.8,1.3,-2.7,1.6,-3.5c.8,-1.5,1.6,-3.1,2.3,-4.1c.7,-1.2,1.3,-2.2,1.9,-3.1c.2,-.4,.5,-.8,.7,-1c.1,-.2,.3,-.4,.3,-.5c0,-.1,.6,-.8,.9,-1.1c.1,-.1,.3,-.4,.5,-.6c.6,-1,1,-1.4,1.1,-1.3q.1,0,-.6,.9c-.2,.4,-.7,1,-.9,1.4c-.8,1.4,-2,3.4,-2.3,3.7c-.6,.8,-1.6,2.7,-1.6,2.9c0,.2,-.5,1.3,-1.2,2.6c-.6,1.3,-1.3,2.6,-1.4,3c-.2,.4,-.4,1,-.6,1.4c-.2,.7,-.4,1.4,-.4,1.8c0,.2,-.1,.4,-.1,.7c-.1,.2,-.2,.7,-.2,1.1c-.1,.6,-.1,.8,.1,.8c.1,0,.2,0,.2,-.1c.1,-.1,.3,-.3,.6,-.5c.3,-.2,.5,-.5,.6,-.5c0,-.1,.3,-.3,.5,-.5c.7,-.6,1.1,-1.1,1.5,-1.7c.3,-.3,.6,-.7,.7,-.8c.2,-.2,1.1,-1.8,1.1,-2c0,-.2,-.1,-.2,-.6,-.5c-.7,-.4,-.6,-.4,.1,-.1c.3,.1,.6,.2,.7,.1c.4,-.1,.3,.3,-.2,1.3c-.3,.6,-.7,1.3,-.9,1.4c-.1,.2,-.4,.5,-.6,.8c-.2,.2,-.4,.5,-.5,.6c-.1,.1,-.3,.3,-.5,.5c-.1,.2,-.4,.5,-.6,.6c-.2,.2,-.5,.5,-.6,.6c-.1,.2,-.3,.3,-.3,.3c-.1,0,-.3,.2,-.5,.4c-.2,.2,-.5,.4,-.7,.4c-.2,.1,-.3,.2,-.3,.7c-.1,.3,-.1,.6,-.1,.7c0,0,0,.3,0,.5c0,.3,.1,.7,.1,1c.2,.8,.1,1.1,-.1,1.3c-.4,.3,-1.1,1.2,-1.3,1.8c-.2,.5,-.3,.5,-.5,.4Z" class="gf_17"/>
<path d="M134,859.1c-.4,0,-.8,-.1,-1,-.2c-.2,0,-.4,-.1,-.5,-.1c-.1,0,-.3,0,-.4,-.1c-.1,0,-.3,0,-.4,0c-.1,.1,-.2,0,-.3,0c-.1,-.2,.3,-.2,1.8,.1c1.4,.2,2.5,-.2,2.7,-1c0,-.2,.1,-.6,.2,-.8c.1,-.3,.2,-.6,.2,-.8c.1,-.4,.1,-.8,.3,-1.6c.1,-.3,.2,-.6,.4,-.8c.1,-.1,.2,-.3,.1,-.3c0,-.1,-.2,-.1,-.4,0c-.4,.1,-1.6,-.1,-1.7,-.3c-.1,-.3,.8,-.7,2,-.8c.3,-.1,.4,-.1,.6,-.8c.6,-1.4,1.6,-3.2,2.9,-4.9c.1,-.1,.1,-.2,0,-.3c0,0,-.3,.1,-.7,.2c-.6,.3,-1.3,.4,-1.4,.2c0,-.1,0,-.2,.1,-.2q.2,-.1,.2,.1q.1,.1,.2,.1c.2,0,1.2,-.5,1.5,-.7c.3,-.2,.6,-.3,.6,-.2c.1,.2,-.1,.9,-.2,1c-.2,.1,-.5,.6,-.7,.9c-.1,.1,-.4,.5,-.6,.8c-.3,.6,-.5,.9,-.6,1.2c-.1,.1,-.3,.5,-.4,.8c-.3,.5,-.6,1,-.8,1.6c-.1,.3,-.2,.3,-.7,.4c-.8,.1,-1.6,.4,-1.4,.6c0,.1,.4,0,1,-.1c.8,-.1,.9,-.1,1,.1c0,0,-.1,.3,-.3,.6c-.3,.6,-.6,1.6,-.7,2.1c0,.2,-.1,.6,-.2,.9c-.1,.3,-.2,.7,-.2,.9c-.1,.5,-.4,.9,-.8,1.1c-.6,.3,-.7,.3,-1.4,.3Z" class="gf_17"/>
<path d="M129.6,854.8c-.2,-.1,-.4,-.3,-.5,-.4c-.3,-.2,-1,-1,-1,-1.1c0,-.1,.1,-.1,.1,-.1c.1,0,.5,.4,.6,.5c.1,.1,.2,.2,.2,.2c.1,0,.1,-.1,-.1,-.3c-.1,-.2,-.3,-.5,-.4,-.8c-.1,-.3,-.4,-.9,-.6,-1.4c-.3,-.5,-.5,-1,-.5,-1.1c0,-.1,.2,-.6,.5,-1.1c.6,-1,1.6,-2.1,2.5,-2.8c.4,-.2,.8,-.6,.9,-.8c.4,-.5,.6,-.4,.9,.3q.3,.5,.4,.5c.1,-.1,.2,-.1,.2,-.1c0,0,.1,.2,.1,.4c.1,.6,-.1,.5,-.6,-.3c-.4,-.8,-.5,-.9,-.7,-.6c-.1,.2,-.7,.6,-1.1,.9c-.7,.5,-1.8,1.8,-2.5,3l-.4,.6l.7,1.4c.7,1.5,1.1,2.2,1.5,2.8c.2,.4,.2,.5,-.2,.3Z" class="gf_17"/>
<path d="M128.1,852.8c-.1,-.1,0,-.2,0,-.2c.1,0,.1,.1,.2,.2c0,0,0,.1,0,.1c-.1,0,-.2,0,-.2,-.1Z" class="gf_17"/>
<path d="M127.6,851.8c-.3,-.6,-.2,-.8,0,-.5c.2,.3,.4,.8,.3,1c-.1,0,-.2,-.1,-.3,-.5Z" class="gf_17"/>
<path d="M140.1,845.6c.5,-.2,1.1,-.4,1.2,-.3c.1,.1,-.1,.2,-.8,.4c-.8,.2,-.9,.2,-.4,-.1Z" class="gf_17"/>
<path d="M141.5,845.2c0,-.1,0,-.3,0,-.5c0,-.5,.7,-1.7,1.3,-2.2c1.8,-1.7,3.9,-3,5.7,-3.6c.6,-.2,.6,-.3,-.1,-.2c-.3,.1,-1.3,.2,-2.2,.4c-1,.1,-1.9,.3,-2.1,.3c-.4,.2,-1.2,.7,-1.5,1c-.2,.2,-.3,.3,-.4,.1c-.1,-.2,.9,-1,1.4,-1.2c1.1,-.3,1.4,-.4,2.1,-.5c.4,0,1.6,-.2,2.6,-.3c1.8,-.3,2,-.3,2.1,-.1c0,.1,-.3,.3,-.7,.4c-2.5,.9,-4.4,1.9,-5.3,2.8c-.2,.2,-.4,.3,-.4,.3c-.1,0,-.2,.1,-.3,.2c-.1,.1,-.3,.4,-.6,.6c-.2,.2,-.5,.5,-.6,.7c-.1,.2,-.3,.5,-.5,.6c-.1,.2,-.2,.4,-.3,.6c0,.4,-.1,.7,-.2,.6Z" class="gf_17"/>
<path d="M132.6,845.7c-.1,-.2,-.2,-.8,-.1,-1c0,-.1,.3,-.3,.6,-.5c.3,-.2,.7,-.5,.8,-.5l.2,-.2l-.1,.2c-.2,.2,-1,.9,-1.2,1c-.1,.1,-.2,.3,-.2,.4c0,.2,0,.4,0,.5c.1,.2,0,.2,0,.1Z" class="gf_17"/>
<path d="M141.5,840.1c.2,-.2,.5,-.3,.5,-.1c0,0,-.1,.1,-.3,.1q-.4,.1,-.2,0Z" class="gf_17"/>
<path d="M125.7,872.6c0,-.1,0,-.2,0,-.2c0,-.1,.1,-.7,.1,-1.3c0,-1.2,0,-1.8,.4,-4.1c.1,-.5,0,-.6,-.5,-1.6c-.3,-.6,-.5,-1.2,-.6,-1.6c-.1,-.3,-.2,-.7,-.2,-.9c-.3,-1,-.4,-4.1,-.1,-5.2c.1,-.4,.2,-.8,.2,-.9c.1,-.4,.2,-.3,.7,.3c.6,1.1,.9,1,.3,-.1c-.4,-.6,-.8,-2,-.8,-2.6c0,-.3,.6,-1.9,1,-2.7c.1,-.2,.3,-.4,.4,-.4c.2,0,.3,0,.5,.4c.5,.6,.6,.9,.5,.8c-.1,0,-.3,-.2,-.4,-.4c-.4,-.8,-.6,-.6,-1.2,.9c-.7,1.8,-.6,2.3,.7,4.7c.5,.8,.8,1.5,.7,1.5c-.2,.1,-1.4,-1.1,-1.7,-1.6c-.1,-.1,-.2,-.3,-.3,-.3q-.1,-.1,-.2,.1c-.3,.8,-.4,2.5,-.2,4c0,.5,.1,1.2,.1,1.4c0,.5,1,3.1,1.2,3.1c.1,0,.1,-.1,.1,-.3c0,-.1,.1,-.7,.3,-1.3c.2,-.5,.3,-1.1,.4,-1.3c0,-.2,0,-.3,.1,-.3c.1,-.1,.4,-1.1,.4,-1.2c0,-.1,.1,-.4,.2,-.7c.9,-1.8,1.3,-2.7,1.6,-3.5c.8,-1.5,1.6,-3.1,2.3,-4.1c.7,-1.2,1.3,-2.2,1.9,-3.1c.2,-.4,.5,-.8,.7,-1c.1,-.2,.3,-.4,.3,-.5c0,-.1,.6,-.8,.9,-1.1c.1,-.1,.3,-.4,.5,-.6c.6,-1,1,-1.4,1.1,-1.3q.1,0,-.7,1.1c-1.5,1.9,-2.3,3.2,-3.6,5.4c-.3,.4,-.7,1,-1,1.5c-.4,.5,-.5,.8,-.4,.8c.4,0,.3,.4,-.8,2.7c-.7,1.3,-1.4,2.6,-1.5,3c-.2,.4,-.4,1,-.6,1.4c-.2,.7,-.4,1.4,-.4,1.8c0,.2,-.1,.4,-.1,.7c-.1,.2,-.2,.7,-.2,1.1c-.1,.6,-.1,.8,.1,.8c.1,0,.2,0,.2,-.1c.1,-.1,.3,-.3,.6,-.5c.3,-.2,.5,-.5,.6,-.5c0,-.1,.3,-.3,.5,-.5c.7,-.6,1.1,-1.1,1.5,-1.7c.3,-.3,.6,-.7,.7,-.8c.2,-.2,1.1,-1.8,1.1,-2c0,-.2,-.1,-.2,-.6,-.5c-.7,-.4,-.6,-.4,.1,-.1c.3,.1,.6,.2,.7,.1c.4,-.1,.3,.3,-.2,1.3c-.3,.6,-.7,1.3,-.9,1.4c-.1,.2,-.4,.5,-.6,.8c-.2,.2,-.4,.5,-.5,.6c-.1,.1,-.3,.3,-.5,.5c-.1,.2,-.4,.5,-.6,.6c-.2,.2,-.5,.5,-.6,.6c-.1,.2,-.3,.3,-.3,.3c-.1,0,-.3,.2,-.5,.4c-.2,.2,-.5,.4,-.7,.4c-.2,.1,-.3,.2,-.3,.7c-.1,.3,-.1,.6,-.1,.7c0,0,0,.3,0,.5c0,.3,.1,.7,.1,1c.2,.8,.1,1.1,-.1,1.3c-.4,.3,-1.1,1.2,-1.3,1.8c-.2,.5,-.3,.5,-.5,.4Z" class="gg_17"/>
<path d="M134,859.1c-.4,0,-.8,-.1,-1,-.2c-.2,0,-.4,-.1,-.5,-.1c-.1,0,-.3,0,-.4,-.1c-.1,0,-.3,0,-.4,0c-.1,.1,-.2,0,-.3,0c-.1,-.2,.3,-.2,1.8,.1c1.4,.2,2.5,-.2,2.7,-1c0,-.2,.1,-.6,.2,-.8c.1,-.3,.2,-.6,.2,-.8c.1,-.4,.1,-.8,.3,-1.6c.1,-.3,.2,-.6,.4,-.8c.1,-.1,.2,-.3,.1,-.3c0,-.1,-.2,-.1,-.4,0c-.4,.1,-1.6,-.1,-1.7,-.3c-.1,-.3,.8,-.7,2,-.8c.3,-.1,.4,-.1,.6,-.8c.6,-1.4,1.6,-3.2,2.9,-4.9c.1,-.1,.1,-.2,0,-.3c0,0,-.3,.1,-.7,.2c-.6,.3,-1.3,.4,-1.4,.2c0,-.1,0,-.2,.1,-.2q.2,-.1,.2,.1q.1,.1,.2,.1c.2,0,1.2,-.5,1.5,-.7c.3,-.2,.6,-.3,.6,-.2c.1,.2,-.1,.9,-.2,1c-.2,.1,-.5,.6,-.7,.9c-.1,.1,-.4,.5,-.6,.8c-.3,.6,-.5,.9,-.6,1.2c-.1,.1,-.3,.5,-.4,.8c-.3,.5,-.6,1,-.8,1.6c-.1,.3,-.2,.3,-.7,.4c-.8,.1,-1.6,.4,-1.4,.6c0,.1,.4,0,1,-.1c.8,-.1,.9,-.1,1,.1c0,0,-.1,.3,-.3,.6c-.3,.6,-.6,1.6,-.7,2.1c0,.2,-.1,.6,-.2,.9c-.1,.3,-.2,.7,-.2,.9c-.1,.5,-.4,.9,-.8,1.1c-.6,.3,-.7,.3,-1.4,.3Z" class="gg_17"/>
<path d="M129.6,854.8c-.2,-.1,-.4,-.3,-.5,-.4c-.3,-.2,-1,-1,-1,-1.1c0,-.1,.1,-.1,.1,-.1c.1,0,.5,.4,.6,.5c.1,.1,.2,.2,.2,.2c.1,0,.1,-.1,-.1,-.3c-.1,-.2,-.3,-.5,-.4,-.8c-.1,-.3,-.4,-.9,-.6,-1.4c-.3,-.5,-.5,-1,-.5,-1.1c0,-.1,.2,-.6,.5,-1.1c.6,-1,1.6,-2.1,2.5,-2.8c.4,-.2,.8,-.6,.9,-.8c.4,-.5,.6,-.4,.9,.3q.3,.5,.4,.5c.1,-.1,.2,-.1,.2,-.1c0,0,.1,.2,.1,.4c.1,.6,-.1,.5,-.6,-.3c-.4,-.8,-.5,-.9,-.7,-.6c-.1,.2,-.7,.6,-1.1,.9c-.7,.5,-1.8,1.8,-2.5,3l-.4,.6l.7,1.4c.7,1.5,1.1,2.2,1.5,2.8c.2,.4,.2,.5,-.2,.3Z" class="gg_17"/>
<path d="M128.1,852.8c-.1,-.1,0,-.2,0,-.2c.1,0,.1,.1,.2,.2c0,0,0,.1,0,.1c-.1,0,-.2,0,-.2,-.1Z" class="gg_17"/>
<path d="M127.6,851.8c-.3,-.6,-.2,-.8,0,-.5c.2,.3,.4,.8,.3,1c-.1,0,-.2,-.1,-.3,-.5Z" class="gg_17"/>
<path d="M140.1,845.6c.5,-.2,1.1,-.4,1.2,-.3c.1,.1,-.1,.2,-.8,.4c-.8,.2,-.9,.2,-.4,-.1Z" class="gg_17"/>
<path d="M141.5,845.2c0,-.1,0,-.3,0,-.5c0,-.5,.7,-1.7,1.3,-2.2c1.8,-1.7,3.9,-3,5.7,-3.6c.6,-.2,.6,-.3,-.1,-.2c-.3,.1,-1.3,.2,-2.2,.4c-1,.1,-1.9,.3,-2.1,.3c-.4,.2,-1.2,.7,-1.5,1c-.2,.2,-.3,.3,-.4,.1c-.1,-.2,.9,-1,1.4,-1.2c1.1,-.3,1.4,-.4,2.1,-.5c.4,0,1.6,-.2,2.6,-.3c1.8,-.3,2,-.3,2.1,-.1c0,.1,-.3,.3,-.7,.4c-2.5,.9,-4.4,1.9,-5.3,2.8c-.2,.2,-.4,.3,-.4,.3c-.1,0,-.2,.1,-.3,.2c-.1,.1,-.3,.4,-.6,.6c-.2,.2,-.5,.5,-.6,.7c-.1,.2,-.3,.5,-.5,.6c-.1,.2,-.2,.4,-.3,.6c0,.4,-.1,.7,-.2,.6Z" class="gg_17"/>
<path d="M132.6,845.7c-.1,-.2,-.2,-.8,-.1,-1c0,-.1,.3,-.3,.6,-.5c.3,-.2,.7,-.5,.8,-.5l.2,-.2l-.1,.2c-.2,.2,-1,.9,-1.2,1c-.1,.1,-.2,.3,-.2,.4c0,.2,0,.4,0,.5c.1,.2,0,.2,0,.1Z" class="gg_17"/>
<path d="M141.5,840.1c.2,-.2,.5,-.3,.5,-.1c0,0,-.1,.1,-.3,.1q-.4,.1,-.2,0Z" class="gg_17"/>
<path d="M127.2,870.2c.1,-.1,.1,-.2,.1,-.5c-.1,-.3,-.1,-.9,-.1,-1.4c0,-.6,0,-1,0,-1.1c0,0,0,-.1,0,-.3c0,-.1,.1,-.5,.1,-.8c.1,-1.3,.1,-1.5,.5,-3.1c0,-.2,.1,-.5,.1,-.7c.2,-1,1.2,-3.2,2.4,-5.4c.6,-1.3,.9,-2,.9,-2.1c0,-.1,-.3,.4,-.6,1c-.3,.6,-.7,1.4,-.9,1.8c-.9,1.7,-1.9,4,-2,4.5c0,.2,-.2,.6,-.3,.8c0,.3,-.1,.5,-.1,.5c.1,.1,-.3,1.3,-.5,1.8c0,.2,-.1,.6,-.1,.9c-.1,.2,-.2,.7,-.2,1c-.3,1,-.5,2.6,-.3,2.8c0,.1,.2,.2,.4,.3c.4,.2,.3,.2,.6,0Z" class="gf_17"/>
<path d="M124.9,863c-.1,-.2,-.3,-2.1,-.3,-3.2c0,-.8,.1,-1.6,.2,-2.2c.1,-.4,.2,-.7,.2,-.9c.1,-.3,.3,-.2,.6,.3c.1,.3,.4,.6,.6,.9l.3,.3l-.1,-.4c-.1,-.2,-.3,-.7,-.5,-1.1c-.4,-.8,-.7,-2.2,-.6,-2.7c.1,-.4,.6,-1.6,.9,-2.3c.2,-.4,.6,-.6,.8,-.3q0,.2,-.2,.2c-.2,0,-.3,.2,-.4,.5c-.7,1.3,-.9,2.3,-.9,2.9c.1,.3,.3,.9,.5,1.5c.4,.8,.5,1.1,1,1.8c.3,.4,.5,.8,.5,.8c0,.2,-.6,-.1,-.9,-.4c-.1,-.2,-.2,-.4,-.4,-.5c-.1,-.1,-.4,-.5,-.6,-.7l-.3,-.5l-.1,.3c-.4,.9,-.5,2.5,-.3,4.3c.1,1.2,.1,1.6,0,1.4Z" class="gh_17"/>
<path d="M133.7,859.1c-.2,-.1,-.4,-.1,-.6,-.2c-.2,0,-.4,-.1,-.5,-.1c-.2,0,-.8,-.2,-.8,-.2c0,0,.5,0,1,.1c1.3,.2,2,.2,2.5,-.2c.4,-.2,.5,-.4,.8,-1.2c.2,-1,.3,-1.2,.3,-1.6c.1,-.6,.2,-1.1,.6,-1.7c.1,-.3,.2,-.6,.2,-.6c0,0,-.2,0,-.5,.1c-.3,0,-.5,0,-1.1,-.1l-.6,-.2l.1,-.2c.2,-.2,.8,-.4,1.6,-.6l.7,-.1l.3,-.7c.5,-1.3,1.6,-3.2,2.4,-4.4c.3,-.3,.5,-.7,.4,-.8q0,-.1,-.7,.2q-.7,.3,-.7,.2c0,0,.2,-.1,.3,-.2c.2,0,.5,-.2,.8,-.4c.4,-.3,.7,-.3,.8,-.3c.2,.1,-.1,.8,-.5,1.2c-.7,.8,-2,3.1,-2.6,4.5c-.1,.3,-.2,.6,-.3,.7c0,.1,-.2,.2,-.3,.2c-.8,.1,-1,.2,-1.4,.3c-.5,.2,-.5,.3,-.3,.4c0,0,.3,0,1,0c.7,-.2,.9,-.2,.9,-.1c.1,.1,-.1,.5,-.3,.9c-.4,.7,-.6,1.4,-.6,1.9c0,.2,-.1,.7,-.2,1.1c-.2,.3,-.2,.7,-.2,.7c0,0,-.1,.2,-.2,.5c-.3,.6,-1.2,1,-2.3,.9Z" class="gh_17"/>
<path d="M131.5,858.7q0,-.1,.1,-.1c0,0,.1,0,.1,0c0,0,0,.1,-.1,.1h-.1Z" class="gh_17"/>
<path d="M129.3,854.5c-.6,-.4,-1.3,-1.4,-.9,-1.1c.1,.1,.3,.2,.3,.3c.1,.1,.4,.3,.5,.2c0,-.1,.5,.4,.6,.7c.1,.2,.1,.3,.1,.3c0,0,-.3,-.2,-.6,-.4Z" class="gh_17"/>
<path d="M128.8,853.4c0,0,-.2,-.3,-.2,-.5c-.1,-.3,-.4,-.9,-.6,-1.3c-.3,-.5,-.5,-1,-.6,-1.1c0,-.3,.8,-1.9,1.2,-2.3c.1,-.1,.4,-.5,.7,-.7c.3,-.3,.6,-.7,.8,-.8c.6,-.4,.9,-.7,1.3,-1.1c.2,-.2,.4,-.3,.5,-.3c.2,.1,.2,.3,0,.3c0,0,-.4,.2,-.7,.5c-.4,.3,-.7,.6,-.7,.6c-.2,0,-.4,.2,-.9,.8c-.3,.3,-.5,.6,-.6,.6c0,0,-.9,1.3,-1.2,1.8c-.2,.5,-.2,.6,.4,1.8c.8,1.5,.9,2,.6,1.7Z" class="gh_17"/>
<path d="M127.2,852.1c-.1,-.1,-.1,-.2,0,-.2c.1,0,.2,.1,.3,.3c0,.1,0,.2,0,.2c-.1,0,-.2,-.1,-.3,-.3Z" class="gh_17"/>
<path d="M127.6,851.9c0,-.2,-.1,-.4,-.2,-.5c0,-.1,0,-.2,0,-.2c.1,0,.5,.6,.5,.8c0,.2,-.2,.1,-.3,-.1Z" class="gh_17"/>
<path d="M138.4,846.8c0,-.1,.1,-.1,.2,-.1q.1,0,.2,0c0,.1,-.1,.1,-.2,.1c-.1,.1,-.2,0,-.2,0Z" class="gh_17"/>
<path d="M132.5,846.8c-.1,-.3,.1,-.5,.3,-.2c.1,.3,.1,.4,0,.5c-.1,0,-.2,-.1,-.3,-.3Z" class="gh_17"/>
<path d="M140.3,845.6c-.1,-.1,.8,-.4,.9,-.3q.1,.1,0,.2c-.3,.1,-.9,.2,-.9,.1Z" class="gh_17"/>
<path d="M132.2,846.2c-.1,0,-.1,-.1,0,-.2q0,-.1,.1,.1q0,.1,0,.1c-.1,.1,-.1,0,-.1,0Z" class="gh_17"/>
<path d="M141.6,845.1c-.1,-.2,0,-1,.2,-1.2c.1,-.1,.3,-.4,.4,-.7c.2,-.2,.4,-.5,.5,-.5c.1,-.1,.3,-.3,.4,-.4c.4,-.4,2,-1.7,2.8,-2.1c.8,-.5,1.9,-1,2.8,-1.3c.6,-.3,.6,-.4,0,-.3c-.3,.1,-1.3,.2,-2.2,.3c-1.7,.3,-2,.3,-2.4,.5c-.4,.1,-1.2,.6,-1.5,.9c-.1,.1,-.2,.2,-.3,.2c-.2,0,.8,-1,1.2,-1.1c.7,-.3,1.8,-.5,2.4,-.6c.4,0,1.5,-.2,2.4,-.3c.9,-.2,1.8,-.3,1.8,-.3c.3,.1,.3,.3,0,.4c-1.4,.5,-2.5,1,-3.3,1.4c-.8,.4,-1.7,1,-2,1.1c0,.1,-.2,.3,-.4,.4c-1,.9,-1.8,1.7,-2,2c-.1,.1,-.2,.3,-.3,.3c-.1,0,-.4,.7,-.4,1c0,.3,-.1,.4,-.1,.3Z" class="gh_17"/>
<path d="M132.6,844.7c-.1,-.1,.6,-.6,1,-.8c.3,-.1,.2,0,-.2,.3c-.4,.4,-.7,.6,-.8,.5Z" class="gh_17"/>
<path d="M141.7,840.1q-.1,-.1,0,-.1c.1,-.1,.3,-.1,.2,.1c0,0,-.1,0,-.2,0Z" class="gh_17"/>
<path d="M125.9,865.8c-.1,-.1,-.1,-.2,0,-.2c0,-.1,.1,0,.1,.1c.1,.1,.1,.2,.1,.2c-.1,0,-.2,0,-.2,-.1Z" class="gi_17"/>
<path d="M129,865.2c0,0,0,-.1,.1,-.1q.2,-.1,.2,.1c-.1,.1,-.4,.2,-.3,0Z" class="gi_17"/>
<path d="M125.7,865.2c-.1,-.1,-.1,-.2,0,-.1c0,0,.1,.1,.1,.1q0,.2,-.1,0Z" class="gi_17"/>
<path d="M129.5,864.8c0,-.1,.2,-.3,.4,-.4c.2,-.2,.5,-.5,.5,-.6c.2,-.3,.4,-.4,.4,-.2c0,.1,-1,1.1,-1.2,1.2q-.1,0,-.1,0Z" class="gi_17"/>
<path d="M125.4,864.5c-.1,-.1,-.1,-.2,-.1,-.3q0,-.2,.1,0c0,.1,.1,.3,.1,.4q0,.1,-.1,-.1Z" class="gi_17"/>
<path d="M131.2,863c.2,-.4,1,-1.3,1.1,-1.5q.1,0,.2,.1c0,0,-.1,.2,-.2,.3c-.2,.1,-.5,.5,-.7,.8c-.5,.7,-.8,.8,-.4,.3Z" class="gi_17"/>
<path d="M124.8,862.5q0,-.1,0,-.2q.1,0,.2,.1q0,.1,0,.2q-.1,0,-.2,-.1Z" class="gi_17"/>
<path d="M132.5,861.3c0,-.2,.6,-1.2,.7,-1.1c.1,0,-.6,1.3,-.7,1.3c0,0,0,-.1,0,-.2Z" class="gi_17"/>
<path d="M124.8,861.9c-.1,-.1,-.1,-.2,-.1,-.3c.1,-.3,.2,-.1,.2,.2c0,.1,-.1,.1,-.1,.1Z" class="gi_17"/>
<path d="M124.7,861.2c0,-.1,0,-.3,0,-.3c.1,-.1,.1,0,.1,.3v.2Z" class="gi_17"/>
<path d="M133.2,859.9c0,-.1,0,-.2,-.1,-.3c-.1,-.2,0,-.2,.1,-.2c.4,-.1,.5,.1,.2,.5q-.1,.2,-.2,0Z" class="gi_17"/>
<path d="M124.6,860c0,-.2,.1,-.8,.1,-.8c.1,0,.1,.5,0,.7c0,.1,-.1,.2,-.1,.1Z" class="gi_17"/>
<path d="M134,859c-.3,0,-.6,0,-.7,-.1q-.2,0,.1,0c.1,0,.5,0,.9,0c.5,0,.6,0,1,-.3c.3,-.2,.5,-.5,.6,-.7c.2,-.4,.2,-.3,.1,.2c-.1,.3,-.3,.5,-.7,.7c-.5,.3,-.6,.3,-1.3,.2Z" class="gi_17"/>
<path d="M132.4,858.8c-.4,-.1,-.4,-.2,0,-.1c.1,0,.2,0,.2,0q.1,.1,.1,.1c-.1,0,-.2,0,-.3,0Z" class="gi_17"/>
<path d="M127,859c-.3,-.2,-.5,-.6,-.4,-.6c.1,0,0,-.2,-.1,-.4c-.3,-.6,-1,-2.2,-1,-2.3c0,-.1,.1,0,.3,.4c.2,.4,.6,1.2,1,1.8c.3,.7,.6,1.2,.6,1.2c-.1,0,-.2,0,-.4,-.1Z" class="gi_17"/>
<path d="M124.7,858.8c-.1,-.2,0,-.9,.2,-1c0,0,0,.1,0,.3c0,.4,-.1,.8,-.2,.7Z" class="gi_17"/>
<path d="M136.1,857.3c0,-.1,.1,-.3,.1,-.4q.1,-.1,.1,.1c0,.1,-.1,.2,-.1,.3q-.1,.1,-.1,0Z" class="gi_17"/>
<path d="M126.2,858.1c-.1,-.1,-.1,-.2,0,-.1c0,0,.1,.1,.1,.2l-.1,-.1Z" class="gi_17"/>
<path d="M124.9,857.6c0,0,0,-.2,.1,-.3c0,-.2,.1,-.4,.1,-.5c0,-.4,.3,-.2,.4,.2c0,.2,0,.3,0,.2c-.1,-.2,-.4,-.2,-.4,-.1c.1,.1,-.1,.6,-.2,.5Z" class="gi_17"/>
<path d="M136.3,856.6c0,0,.1,-.2,.1,-.4q.1,-.3,.1,.1c0,.2,-.1,.4,-.2,.3Z" class="gi_17"/>
<path d="M136.5,855.3c0,-.1,0,-.2,.1,-.2c0,-.1,.1,0,0,.1c0,.1,0,.2,0,.2q-.1,.1,-.1,-.1Z" class="gi_17"/>
<path d="M136.7,854.8c-.1,-.1,.1,-.6,.3,-.9c.2,-.2,.2,-.4,.2,-.5c-.1,0,-.3,0,-.7,0c-.7,.1,-.8,0,-.1,-.2c.4,0,.8,-.1,.9,-.1c.3,-.1,.3,.1,-.1,.9c-.3,.5,-.5,.8,-.5,.8Z" class="gi_17"/>
<path d="M129.5,854.7c-.1,-.1,-.3,-.3,-.5,-.4c-.3,-.2,-.7,-.8,-.5,-.8c.1,.1,.2,.2,.2,.2c.1,.1,.3,.2,.4,.3c.2,.1,.4,.3,.6,.5c.3,.4,.2,.4,-.2,.2Z" class="gi_17"/>
<path d="M125.3,854.7c0,-.1,0,-.4,0,-.5c.1,-.3,.6,-1.7,.7,-1.7c.1,-.1,.1,.1,-.2,.8c-.1,.4,-.3,1,-.3,1.2q-.1,.4,-.2,.2Z" class="gi_17"/>
<path d="M135.4,853.3c-.2,0,-.3,-.1,-.3,-.2c-.1,0,.7,-.5,1,-.5c.3,0,.2,.1,-.2,.2c-.5,.2,-.6,.3,-.4,.4q.2,.2,-.1,.1Z" class="gi_17"/>
<path d="M128.8,853.3c-.1,-.1,-.1,-.3,-.2,-.4q0,-.3,.1,-.1c0,.1,.1,.3,.1,.4q.1,.2,0,.1Z" class="gi_17"/>
<path d="M136.9,852.5c.1,-.1,.2,-.1,.3,-.1c.1,.1,0,.1,-.2,.1c-.3,.1,-.3,0,-.1,0Z" class="gi_17"/>
<path d="M137.5,852.1c.1,-.2,.2,-.3,.2,-.3c.1,0,-.1,.5,-.2,.6c0,0,0,-.1,0,-.3Z" class="gi_17"/>
<path d="M128.4,852.3c-.1,-.1,-.2,-.2,-.1,-.3q0,-.1,.1,.1c.2,.3,.2,.4,0,.2Z" class="gi_17"/>
<path d="M137.9,851.3c0,-.1,.1,-.2,.2,-.2c.1,.1,-.1,.4,-.2,.4c-.1,0,-.1,-.1,0,-.2Z" class="gi_17"/>
<path d="M127.3,852.2q-.1,-.2,0,-.1c.2,0,.2,.1,.1,.2l-.1,-.1Z" class="gi_17"/>
<path d="M126,852.2c-.1,-.1,.5,-.9,.7,-.9c.3,0,.3,.2,.1,.3c-.2,0,-.4,.2,-.5,.4c-.1,.3,-.2,.3,-.3,.2Z" class="gi_17"/>
<path d="M127.6,851.7c-.1,-.1,-.1,-.3,-.1,-.4c.1,0,.4,.5,.3,.6q0,.1,-.2,-.2Z" class="gi_17"/>
<path d="M138,850.8c0,-.1,.2,-.4,.3,-.4c.1,0,.1,-.2,.2,-.3c.1,-.5,1,-1.9,2,-3.3c.1,-.2,.1,-.4,0,-.5c-.1,-.1,-.1,-.2,.1,-.3c.1,-.1,.2,-.1,.3,-.1c.2,.1,0,.8,-.2,1c-.3,.2,-1.4,1.9,-1.7,2.4c-.6,1.2,-.9,1.7,-1,1.5Z" class="gi_17"/>
<path d="M127.9,851.3q-.1,-.1,0,-.1c0,0,.1,0,.1,0q0,.1,0,.2c0,0,-.1,0,-.1,-.1Z" class="gi_17"/>
<path d="M127.5,850.7c0,-.1,0,-.2,0,-.3c0,-.1,0,0,.1,.2c.1,.1,.2,.2,.1,.3c0,0,-.1,-.1,-.2,-.2Z" class="gi_17"/>
<path d="M127.7,850c-.1,-.2,0,-.5,.1,-.4c.1,0,.1,.1,0,.2c0,.1,-.1,.2,-.1,.2Z" class="gi_17"/>
<path d="M128,849.1c0,-.1,.1,-.2,.3,-.4c.1,-.1,.2,-.3,.2,-.3c.1,-.1,.1,-.2,.2,-.2c.1,0,0,.2,-.4,.7c-.2,.3,-.3,.4,-.3,.2Z" class="gi_17"/>
<path d="M129,847.9c.3,-.4,.8,-.9,.8,-.9c.1,.1,-.4,.7,-.7,1l-.2,.1Z" class="gi_17"/>
<path d="M132.7,847c-.2,-.1,-.2,-.4,-.1,-.4c.1,0,.3,.3,.2,.4c0,0,-.1,0,-.1,0Z" class="gi_17"/>
<path d="M136.3,846.5c.1,-.1,.2,-.2,.3,-.2c0,0,0,.1,-.1,.2c-.1,.1,-.2,.2,-.3,.2c0,0,0,-.1,.1,-.2Z" class="gi_17"/>
<path d="M130.6,846.4c.1,-.1,.2,-.2,.3,-.2c.1,0,-.2,.4,-.4,.4c-.1,0,0,-.1,.1,-.2Z" class="gi_17"/>
<path d="M140.7,845.5c-.1,0,0,0,.1,-.1c.2,-.1,.4,-.1,.4,0c0,.1,-.4,.2,-.5,.1Z" class="gi_17"/>
<path d="M131.3,845.7c.2,-.3,.5,-.4,.6,-.3c.1,.1,-.2,.3,-.7,.6c0,0,0,-.1,.1,-.3Z" class="gi_17"/>
<path d="M141.6,844.4c0,-.1,.1,-.2,.1,-.3c.1,-.1,.2,-.2,.2,-.2c0,.1,0,.2,-.1,.3c-.1,.1,-.1,.2,-.2,.2Z" class="gi_17"/>
<path d="M142.2,843.4c.2,-.5,.8,-1.1,2.4,-2.3c.8,-.7,2.6,-1.7,3.6,-2c1,-.3,1.1,-.4,1.1,-.6c-.2,-.2,.7,-.4,.9,-.2c.2,.1,.1,.3,-.1,.3c-.1,0,-.5,.1,-.8,.3c-.4,.2,-1,.4,-1.3,.5c-1.1,.5,-1.9,.9,-2.4,1.2c-.2,.2,-.5,.4,-.6,.4c-.1,.1,-.4,.2,-.5,.4c-.2,.2,-.4,.3,-.4,.3c0,0,-.2,.2,-.4,.3c-1.1,1,-1.3,1.3,-1.3,1.5c0,.1,-.1,.2,-.2,.2c-.1,0,-.1,-.1,0,-.3Z" class="gi_17"/>
<path d="M133,844.4q0,-.1,.1,-.1c0,0,.1,0,0,.1c0,0,0,.1,-.1,.1c0,0,0,-.1,0,-.1Z" class="gi_17"/>
<path d="M142.3,840.5c0,-.1,0,-.2,.1,-.2c.1,-.1,.2,-.1,.2,-.1c0,0,0,.1,-.1,.2c-.1,.1,-.2,.1,-.2,.1Z" class="gi_17"/>
<path d="M143,839.8c.1,-.3,.5,-.4,.5,-.3c.1,.1,-.3,.3,-.5,.4q-.2,.1,0,-.1Z" class="gi_17"/>
<path d="M144.6,839.1c.1,0,.2,-.1,.3,-.1q.1,0,0,.1c-.1,0,-.2,.1,-.3,.1q-.1,0,0,-.1Z" class="gi_17"/>
<path d="M145.2,839c.1,-.1,.4,-.1,.9,-.2c.6,0,.9,0,.9,0c0,.1,-.4,.1,-.9,.2c-.6,0,-.9,0,-.9,0Z" class="gi_17"/>
<path d="M147.1,838.7c.1,0,.4,-.1,.9,-.1c.5,-.1,.7,-.1,.6,0c-.3,.1,-1.5,.2,-1.5,.1Z" class="gi_17"/>
<path d="M125.8,872.5c0,0,0,-.3,0,-.7c0,-.4,0,-.7,0,-.7c0,-.1,0,-.9,0,-1q.1,-.1,.5,.1c.9,.4,1.2,.2,1,-.8c-.1,-1,.1,-1.1,.3,-.1c.1,.7,.1,.9,-.2,1c-.6,.6,-1.5,2,-1.4,2.2c.1,0,0,.1,-.1,.1c0,0,-.1,0,-.1,-.1Z" class="gj_17"/>
<path d="M127.3,868.5c0,-.1,0,-.7,.1,-.8c.1,-.1,.1,0,.1,.4c-.1,.4,-.1,.5,-.2,.4Z" class="gj_17"/>
<path d="M127.3,867.3c0,-.1,0,-.3,0,-.6c0,-.3,.1,-.8,.1,-1.1c.1,-1,.5,-3.2,.7,-3.2c0,0,0,.1,0,.3c0,.1,-.1,.4,-.1,.5c0,.2,-.1,.4,-.1,.7c-.2,.6,-.3,2,-.1,2.1c0,.1,0,.2,-.1,.2c0,.1,-.1,.3,-.2,.6c0,.4,-.1,.6,-.2,.5Z" class="gj_17"/>
<path d="M126.3,866.9c-.1,0,-.1,-.1,0,-.1c0,-.1,0,-.3,0,-.4c-.1,-.2,.2,-.6,.3,-.5c0,.1,-.2,1.1,-.3,1.1v-.1Z" class="gj_17"/>
<path d="M125.9,865.8c-.1,-.1,-.1,-.2,0,-.2c0,-.1,.1,0,.1,.1c.1,.1,.1,.2,.1,.2c-.1,0,-.2,0,-.2,-.1Z" class="gj_17"/>
<path d="M126.5,865.6c0,0,0,-.4,.2,-.8c.1,-.4,.2,-1,.3,-1.4c.1,-.4,.2,-.7,.3,-.8c.1,-.1,.1,0,0,.3c0,.3,-.1,.5,-.1,.6c-.1,.8,-.6,2.3,-.7,2.1Z" class="gj_17"/>
<path d="M129,865.2c0,0,0,-.1,.1,-.1q.2,-.1,.2,.1c-.1,.1,-.4,.2,-.3,0Z" class="gj_17"/>
<path d="M125.7,865.2c-.1,-.1,-.1,-.2,0,-.1c0,0,.1,.1,.1,.1q0,.2,-.1,0Z" class="gj_17"/>
<path d="M129.5,864.8c0,-.1,.2,-.3,.4,-.4c.2,-.2,.5,-.5,.5,-.6c.2,-.3,.4,-.4,.4,-.2c0,.1,-1,1.1,-1.2,1.2q-.1,0,-.1,0Z" class="gj_17"/>
<path d="M125.4,864.5c-.1,-.1,-.1,-.2,-.1,-.3q0,-.2,.1,0c0,.1,.1,.3,.1,.4q0,.1,-.1,-.1Z" class="gj_17"/>
<path d="M131.2,863c.2,-.4,1,-1.3,1.1,-1.5q.1,0,.2,.1c0,0,-.1,.2,-.2,.3c-.2,.1,-.5,.5,-.7,.8c-.5,.7,-.8,.8,-.4,.3Z" class="gj_17"/>
<path d="M124.8,862.5q0,-.1,0,-.2q.1,0,.2,.1q0,.1,0,.2q-.1,0,-.2,-.1Z" class="gj_17"/>
<path d="M128.1,862.2c0,-.4,1.5,-4,2.7,-6.1c.2,-.5,.5,-1,.5,-1.2c0,-.3,.2,-.5,.3,-.3c.1,.1,-.2,.8,-1.3,2.8c-.5,1,-1,2.1,-1.2,2.5c-.2,.6,-.6,1.5,-.9,2.1c-.1,.2,-.1,.3,-.1,.2Z" class="gj_17"/>
<path d="M127.5,861.9c0,0,0,-.1,.1,-.1c0,0,.1,0,.1,0q0,.1,0,.1q-.1,0,-.2,0Z" class="gj_17"/>
<path d="M132.5,861.3c0,-.2,.6,-1.2,.7,-1.1c.1,0,-.6,1.3,-.7,1.3c0,0,0,-.1,0,-.2Z" class="gj_17"/>
<path d="M124.8,861.9c-.1,-.1,-.1,-.2,-.1,-.3c.1,-.3,.2,-.1,.2,.2c0,.1,-.1,.1,-.1,.1Z" class="gj_17"/>
<path d="M127.6,861.4q0,-.1,.1,-.2q.1,0,.1,.1c.1,.1,-.1,.2,-.2,.1Z" class="gj_17"/>
<path d="M124.7,861.2c0,-.1,0,-.3,0,-.3c.1,-.1,.1,0,.1,.3v.2Z" class="gj_17"/>
<path d="M127.9,861c-.1,-.1,.3,-.8,.4,-.7c0,0,-.1,.2,-.2,.3c-.1,.3,-.2,.4,-.2,.4Z" class="gj_17"/>
<path d="M133.2,859.9c0,-.1,0,-.2,-.1,-.3c-.1,-.2,0,-.2,.1,-.2c.4,-.1,.5,.1,.2,.5q-.1,.2,-.2,0Z" class="gj_17"/>
<path d="M128.3,860.1c0,-.1,.2,-.6,.5,-1.1c.3,-.6,.4,-.8,.3,-.5c-.2,.5,-.9,1.9,-.8,1.6Z" class="gj_17"/>
<path d="M124.6,860c0,-.2,.1,-.8,.1,-.8c.1,0,.1,.5,0,.7c0,.1,-.1,.2,-.1,.1Z" class="gj_17"/>
<path d="M134,859c-.3,0,-.6,0,-.7,-.1q-.2,0,.1,0c.1,0,.5,0,.9,0c.5,0,.6,0,1,-.3c.3,-.2,.5,-.5,.6,-.7c.2,-.4,.2,-.3,.1,.2c-.1,.3,-.3,.5,-.7,.7c-.5,.3,-.6,.3,-1.3,.2Z" class="gj_17"/>
<path d="M132.4,858.8c-.4,-.1,-.4,-.2,0,-.1c.1,0,.2,0,.2,0q.1,.1,.1,.1c-.1,0,-.2,0,-.3,0Z" class="gj_17"/>
<path d="M127,859c-.3,-.2,-.5,-.6,-.4,-.6c.1,0,0,-.2,-.1,-.4c-.3,-.6,-1,-2.2,-1,-2.3c0,-.1,.1,0,.3,.4c.2,.4,.6,1.2,1,1.8c.3,.7,.6,1.2,.6,1.2c-.1,0,-.2,0,-.4,-.1Z" class="gj_17"/>
<path d="M124.7,858.8c-.1,-.2,0,-.9,.2,-1c0,0,0,.1,0,.3c0,.4,-.1,.8,-.2,.7Z" class="gj_17"/>
<path d="M136.1,857.3c0,-.1,.1,-.3,.1,-.4q.1,-.1,.1,.1c0,.1,-.1,.2,-.1,.3q-.1,.1,-.1,0Z" class="gj_17"/>
<path d="M126.2,858.1c-.1,-.1,-.1,-.2,0,-.1c0,0,.1,.1,.1,.2l-.1,-.1Z" class="gj_17"/>
<path d="M129.3,857.7c.1,-.2,.2,-.3,.2,-.3c.1,.1,0,.3,-.1,.5q-.2,0,-.1,-.2Z" class="gj_17"/>
<path d="M129.8,856.7c.1,-.3,.3,-.5,.3,-.6c0,0,.2,-.4,.5,-.9c.2,-.5,.6,-1.1,.7,-1.4c.2,-.2,.5,-.7,.8,-1.1c.4,-.8,.6,-1,.7,-.9c0,.1,-.2,.4,-1,1.6c-.2,.3,-.5,.8,-.7,1.1c-.1,.2,-.3,.8,-.5,1.1c-.2,.4,-.5,1,-.6,1.2c-.3,.7,-.5,.6,-.2,-.1Z" class="gj_17"/>
<path d="M124.9,857.6c0,0,0,-.2,.1,-.3c0,-.2,.1,-.4,.1,-.5c0,-.4,.3,-.2,.4,.2c0,.2,0,.3,0,.2c-.1,-.2,-.4,-.2,-.4,-.1c.1,.1,-.1,.6,-.2,.5Z" class="gj_17"/>
<path d="M136.3,856.6c0,0,.1,-.2,.1,-.4q.1,-.3,.1,.1c0,.2,-.1,.4,-.2,.3Z" class="gj_17"/>
<path d="M136.5,855.3c0,-.1,0,-.2,.1,-.2c0,-.1,.1,0,0,.1c0,.1,0,.2,0,.2q-.1,.1,-.1,-.1Z" class="gj_17"/>
<path d="M136.7,854.8c-.1,-.1,.1,-.6,.3,-.9c.2,-.2,.2,-.4,.2,-.5c-.1,0,-.3,0,-.7,0c-.7,.1,-.8,0,-.1,-.2c.4,0,.8,-.1,.9,-.1c.3,-.1,.3,.1,-.1,.9c-.3,.5,-.5,.8,-.5,.8Z" class="gj_17"/>
<path d="M129.5,854.7c-.1,-.1,-.3,-.3,-.5,-.4c-.3,-.2,-.7,-.8,-.5,-.8c.1,.1,.2,.2,.2,.2c.1,.1,.3,.2,.4,.3c.2,.1,.4,.3,.6,.5c.3,.4,.2,.4,-.2,.2Z" class="gj_17"/>
<path d="M125.3,854.7c0,-.1,0,-.4,0,-.5c.1,-.3,.6,-1.7,.7,-1.7c.1,-.1,.1,.1,-.2,.8c-.1,.4,-.3,1,-.3,1.2q-.1,.4,-.2,.2Z" class="gj_17"/>
<path d="M135.4,853.3c-.2,0,-.3,-.1,-.3,-.2c-.1,0,.7,-.5,1,-.5c.3,0,.2,.1,-.2,.2c-.5,.2,-.6,.3,-.4,.4q.2,.2,-.1,.1Z" class="gj_17"/>
<path d="M128.8,853.3c-.1,-.1,-.1,-.3,-.2,-.4q0,-.3,.1,-.1c0,.1,.1,.3,.1,.4q.1,.2,0,.1Z" class="gj_17"/>
<path d="M136.9,852.5c.1,-.1,.2,-.1,.3,-.1c.1,.1,0,.1,-.2,.1c-.3,.1,-.3,0,-.1,0Z" class="gj_17"/>
<path d="M137.5,852.1c.1,-.2,.2,-.3,.2,-.3c.1,0,-.1,.5,-.2,.6c0,0,0,-.1,0,-.3Z" class="gj_17"/>
<path d="M128.4,852.3c-.1,-.1,-.2,-.2,-.1,-.3q0,-.1,.1,.1c.2,.3,.2,.4,0,.2Z" class="gj_17"/>
<path d="M137.9,851.3c0,-.1,.1,-.2,.2,-.2c.1,.1,-.1,.4,-.2,.4c-.1,0,-.1,-.1,0,-.2Z" class="gj_17"/>
<path d="M127.3,852.2q-.1,-.2,0,-.1c.2,0,.2,.1,.1,.2l-.1,-.1Z" class="gj_17"/>
<path d="M126,852.2c-.1,-.1,.5,-.9,.7,-.9c.3,0,.3,.2,.1,.3c-.2,0,-.4,.2,-.5,.4c-.1,.3,-.2,.3,-.3,.2Z" class="gj_17"/>
<path d="M127.6,851.7c-.1,-.1,-.1,-.3,-.1,-.4c.1,0,.4,.5,.3,.6q0,.1,-.2,-.2Z" class="gj_17"/>
<path d="M133,851.2c.1,-.2,.2,-.4,.3,-.3c.1,0,-.3,.6,-.4,.7c-.1,0,0,-.2,.1,-.4Z" class="gj_17"/>
<path d="M138,850.8c0,-.1,.2,-.4,.3,-.4c.1,0,.1,-.2,.2,-.3c.1,-.5,1,-1.9,2,-3.3c.1,-.2,.1,-.4,0,-.5c-.1,-.1,-.1,-.2,.1,-.3c.1,-.1,.2,-.1,.3,-.1c.2,.1,0,.8,-.2,1c-.3,.2,-1.4,1.9,-1.7,2.4c-.6,1.2,-.9,1.7,-1,1.5Z" class="gj_17"/>
<path d="M127.9,851.3q-.1,-.1,0,-.1c0,0,.1,0,.1,0q0,.1,0,.2c0,0,-.1,0,-.1,-.1Z" class="gj_17"/>
<path d="M133.4,850.7c0,-.1,.5,-1,.8,-1.4c.1,-.2,.3,-.4,.4,-.6c.2,-.4,.8,-1.1,.9,-1c0,0,0,.1,-.1,.2c-.1,.1,-.3,.3,-.3,.4c-.1,.1,-.3,.4,-.5,.7c-.3,.3,-.6,.8,-.7,1.1c-.3,.5,-.4,.7,-.5,.6Z" class="gj_17"/>
<path d="M127.5,850.7c0,-.1,0,-.2,0,-.3c0,-.1,0,0,.1,.2c.1,.1,.2,.2,.1,.3c0,0,-.1,-.1,-.2,-.2Z" class="gj_17"/>
<path d="M127.7,850c-.1,-.2,0,-.5,.1,-.4c.1,0,.1,.1,0,.2c0,.1,-.1,.2,-.1,.2Z" class="gj_17"/>
<path d="M128,849.1c0,-.1,.1,-.2,.3,-.4c.1,-.1,.2,-.3,.2,-.3c.1,-.1,.1,-.2,.2,-.2c.1,0,0,.2,-.4,.7c-.2,.3,-.3,.4,-.3,.2Z" class="gj_17"/>
<path d="M129,847.9c.3,-.4,.8,-.9,.8,-.9c.1,.1,-.4,.7,-.7,1l-.2,.1Z" class="gj_17"/>
<path d="M135.9,847.1c.1,-.2,.2,-.3,.2,-.3c0,.1,0,.2,-.1,.3l-.2,.2Z" class="gj_17"/>
<path d="M132.7,847c-.2,-.1,-.2,-.4,-.1,-.4c.1,0,.3,.3,.2,.4c0,0,-.1,0,-.1,0Z" class="gj_17"/>
<path d="M130.6,846.4c.1,-.1,.2,-.2,.3,-.2c.1,0,-.2,.4,-.4,.4c-.1,0,0,-.1,.1,-.2Z" class="gj_17"/>
<path d="M140.7,845.5c-.1,0,0,0,.1,-.1c.2,-.1,.4,-.1,.4,0c0,.1,-.4,.2,-.5,.1Z" class="gj_17"/>
<path d="M131.3,845.7c.2,-.3,.5,-.4,.6,-.3c.1,.1,-.2,.3,-.7,.6c0,0,0,-.1,.1,-.3Z" class="gj_17"/>
<path d="M141.6,844.4c0,-.1,.1,-.2,.1,-.3c.1,-.1,.2,-.2,.2,-.2c0,.1,0,.2,-.1,.3c-.1,.1,-.1,.2,-.2,.2Z" class="gj_17"/>
<path d="M142.2,843.4c.2,-.5,.8,-1.1,2.4,-2.3c.8,-.7,2.6,-1.7,3.6,-2c1,-.3,1.1,-.4,1.1,-.6c-.2,-.2,.7,-.4,.9,-.2c.2,.1,.1,.3,-.1,.3c-.1,0,-.5,.1,-.8,.3c-.4,.2,-1,.4,-1.3,.5c-1.1,.5,-1.9,.9,-2.4,1.2c-.2,.2,-.5,.4,-.6,.4c-.1,.1,-.4,.2,-.5,.4c-.2,.2,-.4,.3,-.4,.3c0,0,-.2,.2,-.4,.3c-1.1,1,-1.3,1.3,-1.3,1.5c0,.1,-.1,.2,-.2,.2c-.1,0,-.1,-.1,0,-.3Z" class="gj_17"/>
<path d="M133,844.4q0,-.1,.1,-.1c0,0,.1,0,0,.1c0,0,0,.1,-.1,.1c0,0,0,-.1,0,-.1Z" class="gj_17"/>
<path d="M142.3,840.5c0,-.1,0,-.2,.1,-.2c.1,-.1,.2,-.1,.2,-.1c0,0,0,.1,-.1,.2c-.1,.1,-.2,.1,-.2,.1Z" class="gj_17"/>
<path d="M143,839.8c.1,-.3,.5,-.4,.5,-.3c.1,.1,-.3,.3,-.5,.4q-.2,.1,0,-.1Z" class="gj_17"/>
<path d="M144.6,839.1c.1,0,.2,-.1,.3,-.1q.1,0,0,.1c-.1,0,-.2,.1,-.3,.1q-.1,0,0,-.1Z" class="gj_17"/>
<path d="M145.2,839c.1,-.1,.4,-.1,.9,-.2c.6,0,.9,0,.9,0c0,.1,-.4,.1,-.9,.2c-.6,0,-.9,0,-.9,0Z" class="gj_17"/>
<path d="M147.1,838.7c.1,0,.4,-.1,.9,-.1c.5,-.1,.7,-.1,.6,0c-.3,.1,-1.5,.2,-1.5,.1Z" class="gj_17"/>
<path d="M128.2,852.3q-.1,-.2,-.1,-.1c-.1,.2,0,.3,.1,.3c.1,0,.1,-.1,0,-.2Z" class="ge_17"/>
</g>
<path d="M152.7,867.7H364.6" class="g0_17"/>
<path d="M137.6,875.9v199.5" class="gb_17"/>
</svg>