<?xml version="1.0" encoding="UTF-8" standalone="no"?>
<!DOCTYPE svg PUBLIC "-//W3C//DTD SVG 1.1//EN"
"http://www.w3.org/Graphics/SVG/1.1/DTD/svg11.dtd">
<svg viewBox="0 0 909 1286" version="1.1" xmlns="http://www.w3.org/2000/svg" xmlns:xlink="http://www.w3.org/1999/xlink">
<defs>
<clipPath id="c0_44"><path d="M119.5,215.7V182.1H789.9v33.6Z"/></clipPath>
<clipPath id="c1_44"><path d="M119.5,931.4V897.9H446.9v33.5Z"/></clipPath>
<clipPath id="c2_44"><path d="M460.4,931.4V897.9H787.8v33.5Z"/></clipPath>
<style type="text/css"><![CDATA[
.g0_44{
fill: none;
stroke: #000000;
stroke-width: 0.73;
stroke-linecap: butt;
stroke-linejoin: miter;
}
.g1_44{
fill: #7F7F7F;
fill-opacity: 0.01;
}
.g2_44{
fill: #7F7F7F;
fill-opacity: 0.02;
}
.g3_44{
fill: #7F7F7F;
fill-opacity: 0.04;
}
.g4_44{
fill: #7F7F7F;
fill-opacity: 0.07;
}
.g5_44{
fill: #7F7F7F;
fill-opacity: 0.11;
}
.g6_44{
fill: #FFFFFF;
}
.g7_44{
fill: #7F7F7F;
}
.g8_44{
fill: #EC008C;
}
.g9_44{
fill: #CBCEFB;
}
.ga_44{
fill: #E81A58;
}
.gb_44{
fill: #401A1A;
}
.gc_44{
fill: #00AEEF;
}
]]></style>
</defs>
<path d="M116.9,159.9H792.5" class="g0_44"/>
<path d="M122.2,184.8c221.7,0,443.4,0,665,0v228c-221.6,-9.3,-443.3,-9.3,-665,0Z" class="g1_44"/>
<path d="M122.9,185.4c221.2,0,442.4,0,663.7,0V412.2c-221.3,-9.4,-442.5,-9.4,-663.7,0Z" class="g2_44"/>
<path d="M123.5,186.1c220.8,0,441.6,0,662.5,0V411.6c-220.9,-9.4,-441.7,-9.4,-662.5,0Z" class="g3_44"/>
<path d="M124.1,186.7c220.4,0,440.8,0,661.2,0V411c-220.4,-9.4,-440.8,-9.4,-661.2,0Z" class="g4_44"/>
<path d="M124.7,187.3c220,0,440,0,660,0v223c-220,-9.3,-440,-9.3,-660,0Z" class="g5_44"/>
<path d="M125.4,187.9c219.5,0,439.1,0,658.7,0V409.7c-219.6,-9.3,-439.2,-9.3,-658.7,0Z" class="g5_44"/>
<path d="M126,188.6c219.1,0,438.3,0,657.5,0V409.1c-219.2,-9.4,-438.4,-9.4,-657.5,0Z" class="g4_44"/>
<path d="M126.6,189.2c218.8,0,437.5,0,656.3,0V408.5c-218.8,-9.4,-437.5,-9.4,-656.3,0Z" class="g3_44"/>
<path d="M127.2,189.8c218.4,0,436.7,0,655,0v218c-218.3,-9.3,-436.6,-9.3,-655,0Z" class="g2_44"/>
<path d="M127.9,190.4c217.9,0,435.8,0,653.7,0V407.2c-217.9,-9.3,-435.8,-9.3,-653.7,0Z" class="g1_44"/>
<path d="M116.9,402.5v-223H792.5v223Z" class="g6_44"/>
<path d="M119.5,399.9V218.3H789.9V399.9Z" class="g6_44"/>
<path d="M119.5,215.7V182.1H789.9v33.6Z" class="g7_44"/>
<g clip-path="url(#c0_44)">
<image x="119" y="181" width="672" height="34" xlink:href="shade/1.png"/>
</g>
<path d="M675.7,210.5h88.2V187.3H675.7v23.2Z" class="g8_44"/>
<path d="M383.8,234.2H525.7M384.1,263.8V234.6" class="g0_44"/>
<path d="M384.5,263.8h60.3V234.6H384.5v29.2Z" class="g9_44"/>
<path d="M445.1,263.8V234.6" class="g0_44"/>
<path d="M445.5,263.8h79.4V234.6H445.5v29.2Z" class="g9_44"/>
<path d="M525.3,263.8V234.6M383.8,264.2H525.7M384.1,293.7V264.5m61,29.2V264.5m80.2,29.2V264.5M383.8,294.1H525.7M384.1,323.7V294.5m61,29.2V294.5m80.2,29.2V294.5M383.8,324.1H525.7M384.1,353.7V324.4m61,29.3V324.4m80.2,29.3V324.4M383.8,354H525.7M384.1,383.6V354.4m61,29.2V354.4m80.2,29.2V354.4M383.8,384H525.7" class="g0_44"/>
<path d="M116.9,831V570.1c0,-21.6,17.6,-39.2,39.2,-39.2H792.5v261c0,21.6,-17.5,39.1,-39.1,39.1Z" class="ga_44"/>
<path d="M119.5,828.4V592.7H789.9V791.9c0,20.1,-16.3,36.5,-36.5,36.5Z" class="gb_44"/>
<path d="M122.2,900.6c107.4,0,214.7,0,322,0v227.3c-107.3,-9.4,-214.6,-9.4,-322,0Z" class="g1_44"/>
<path d="M122.9,901.2c106.9,0,213.8,0,320.7,0v226c-106.9,-9.3,-213.8,-9.3,-320.7,0Z" class="g2_44"/>
<path d="M123.5,901.8c106.5,0,213,0,319.5,0v224.8c-106.5,-9.3,-213,-9.3,-319.5,0Z" class="g3_44"/>
<path d="M124.1,902.5c106.1,0,212.2,0,318.3,0V1126c-106.1,-9.4,-212.2,-9.4,-318.3,0Z" class="g4_44"/>
<path d="M124.7,903.1c105.7,0,211.4,0,317,0v222.3c-105.6,-9.4,-211.3,-9.4,-317,0Z" class="g5_44"/>
<path d="M125.4,903.7c105.2,0,210.5,0,315.7,0v221c-105.2,-9.3,-210.5,-9.3,-315.7,0Z" class="g5_44"/>
<path d="M126,904.3c104.8,0,209.7,0,314.5,0v219.8c-104.8,-9.3,-209.7,-9.3,-314.5,0Z" class="g4_44"/>
<path d="M126.6,905c104.4,0,208.8,0,313.3,0v218.5c-104.5,-9.4,-208.9,-9.4,-313.3,0Z" class="g3_44"/>
<path d="M127.2,905.6c104,0,208,0,312,0v217.3c-104,-9.4,-208,-9.4,-312,0Z" class="g2_44"/>
<path d="M127.9,906.2c103.5,0,207.1,0,310.7,0v216c-103.6,-9.3,-207.2,-9.3,-310.7,0Z" class="g1_44"/>
<path d="M116.9,1117.6V895.3H449.5v222.3Z" class="g6_44"/>
<path d="M119.5,1115V934H446.9v181Z" class="g6_44"/>
<path d="M119.5,931.4V897.9H446.9v33.5Z" class="g7_44"/>
<g clip-path="url(#c1_44)">
<image x="119" y="897" width="329" height="34" xlink:href="shade/2.png"/>
</g>
<path d="M316.9,926.2h104V903.1h-104v23.1Z" class="gc_44"/>
<path d="M231.5,979.2H335m-103.2,29.6V979.6" class="g0_44"/>
<path d="M232.2,1008.8h41.1V979.6H232.2v29.2Z" class="g9_44"/>
<path d="M273.6,1008.8V979.6" class="g0_44"/>
<path d="M274,1008.8h60.3V979.6H274v29.2Z" class="g9_44"/>
<path d="M334.6,1008.8V979.6m-103.1,29.6H335m-103.2,29.5v-29.2m41.8,29.2v-29.2m61,29.2v-29.2m-103.1,29.6H335m-103.2,29.6v-29.2m41.8,29.2v-29.2m61,29.2v-29.2m-103.1,29.6H335m-103.2,29.5v-29.2m41.8,29.2v-29.2m61,29.2v-29.2M231.5,1099H335" class="g0_44"/>
<path d="M463.1,900.6c107.3,0,214.6,0,322,0v227.3c-107.4,-9.4,-214.7,-9.4,-322,0Z" class="g1_44"/>
<path d="M463.7,901.2c106.9,0,213.8,0,320.7,0v226c-106.9,-9.3,-213.8,-9.3,-320.7,0Z" class="g2_44"/>
<path d="M464.3,901.8c106.5,0,213,0,319.5,0v224.8c-106.5,-9.3,-213,-9.3,-319.5,0Z" class="g3_44"/>
<path d="M464.9,902.5c106.1,0,212.2,0,318.3,0V1126c-106.1,-9.4,-212.2,-9.4,-318.3,0Z" class="g4_44"/>
<path d="M465.6,903.1c105.6,0,211.3,0,317,0v222.3c-105.7,-9.4,-211.4,-9.4,-317,0Z" class="g5_44"/>
<path d="M466.2,903.7c105.2,0,210.5,0,315.7,0v221c-105.2,-9.3,-210.5,-9.3,-315.7,0Z" class="g5_44"/>
<path d="M466.8,904.3c104.8,0,209.7,0,314.5,0v219.8c-104.8,-9.3,-209.7,-9.3,-314.5,0Z" class="g4_44"/>
<path d="M467.4,905c104.5,0,208.9,0,313.3,0v218.5c-104.4,-9.4,-208.8,-9.4,-313.3,0Z" class="g3_44"/>
<path d="M468.1,905.6c104,0,208,0,312,0v217.3c-104,-9.4,-208,-9.4,-312,0Z" class="g2_44"/>
<path d="M468.7,906.2c103.6,0,207.2,0,310.7,0v216c-103.5,-9.3,-207.1,-9.3,-310.7,0Z" class="g1_44"/>
<path d="M457.8,1117.6V895.3H790.4v222.3Z" class="g6_44"/>
<path d="M460.4,1115V934H787.8v181Z" class="g6_44"/>
<path d="M460.4,931.4V897.9H787.8v33.5Z" class="g7_44"/>
<g clip-path="url(#c2_44)">
<image x="460" y="897" width="329" height="34" xlink:href="shade/3.png"/>
</g>
<path d="M657.8,926.2h104V903.1h-104v23.1Z" class="gc_44"/>
<path d="M572.3,979.2H675.8m-103.1,29.6V979.6" class="g0_44"/>
<path d="M573,1008.8h41.1V979.6H573v29.2Z" class="g9_44"/>
<path d="M614.5,1008.8V979.6" class="g0_44"/>
<path d="M614.8,1008.8h60.3V979.6H614.8v29.2Z" class="g9_44"/>
<path d="M675.5,1008.8V979.6m-103.2,29.6H675.8m-103.1,29.5v-29.2m41.8,29.2v-29.2m61,29.2v-29.2m-103.2,29.6H675.8m-103.1,29.6v-29.2m41.8,29.2v-29.2m61,29.2v-29.2m-103.2,29.6H675.8m-103.1,29.5v-29.2m41.8,29.2v-29.2m61,29.2v-29.2M572.3,1099H675.8" class="g0_44"/>
</svg>