<?xml version="1.0" encoding="UTF-8" standalone="no"?>
<!DOCTYPE svg PUBLIC "-//W3C//DTD SVG 1.1//EN"
"http://www.w3.org/Graphics/SVG/1.1/DTD/svg11.dtd">
<svg viewBox="0 0 909 1286" version="1.1" xmlns="http://www.w3.org/2000/svg" xmlns:xlink="http://www.w3.org/1999/xlink">
<defs>
<style type="text/css"><![CDATA[
.g0_12{
fill: none;
stroke: #000000;
stroke-width: 0.73;
stroke-linecap: butt;
stroke-linejoin: miter;
}
.g1_12{
}
.g2_12{
fill: none;
stroke: #5EE200;
stroke-width: 0.73;
stroke-linecap: butt;
stroke-linejoin: miter;
}
.g3_12{
fill: none;
stroke: #5EE200;
stroke-width: 2.191;
stroke-linecap: butt;
stroke-linejoin: miter;
}
.g4_12{
fill: #5EE200;
stroke: #5EE200;
stroke-width: 2.191;
stroke-linecap: butt;
stroke-linejoin: miter;
}
.g5_12{
fill: none;
stroke: #F81693;
stroke-width: 0.73;
stroke-linecap: butt;
stroke-linejoin: miter;
stroke-dasharray: 6,4;
}
.g6_12{
fill: none;
stroke: #F81693;
stroke-width: 2.191;
stroke-linecap: butt;
stroke-linejoin: miter;
stroke-dasharray: 6,4;
}
.g7_12{
fill: #F81693;
stroke: #F81693;
stroke-width: 2.191;
stroke-linecap: butt;
stroke-linejoin: miter;
}
.g8_12{
fill: none;
stroke: #02B5EE;
stroke-width: 0.73;
stroke-linecap: butt;
stroke-linejoin: miter;
stroke-dasharray: 6,6;
}
.g9_12{
fill: none;
stroke: #000000;
stroke-width: 2.191;
stroke-linecap: butt;
stroke-linejoin: miter;
stroke-dasharray: 6,4;
}
]]></style>
</defs>
<path d="M116.9,159.9H792.5M277.1,675.6H629.6" class="g0_12"/>
<path d="M633.3,675.6l-5.8,-2.9l2.1,2.9l-2.1,2.9Z" class="g1_12"/>
<path d="M277.1,675.6V383.3" class="g0_12"/>
<path d="M277.1,379.7l-2.9,5.8l2.9,-2.2l3,2.2Z" class="g1_12"/>
<path d="M306.8,379.7l13.6,93L334,521.2L347.6,551l13.6,20.1l13.6,14.6l13.6,11l13.6,8.6l13.6,6.9l13.6,5.6l13.6,4.8l13.7,4l13.6,3.5l13.6,3l13.6,2.6l13.6,2.3l13.6,2.1l13.6,1.8l13.6,1.7l13.6,1.5l13.6,1.4l13.6,1.2l13.6,1.2l13.6,1l13.6,1M336.5,379.7l12.4,51l12.3,36l12.4,26.8L386,514.2l12.3,16.5l12.4,13.4l12.4,11.1l12.3,9.4l12.4,8.1l12.4,6.9l12.3,6.1l12.4,5.3l12.4,4.8l12.3,4.2l12.4,3.8l12.4,3.5l12.3,3.1l12.4,2.9l12.4,2.6l12.3,2.4l12.4,2.2l12.4,2.1l12.3,1.9l12.4,1.8M366.2,379.7l11.1,32.9l11.1,26.3l11.2,21.5l11.1,17.9l11.1,15.2l11.2,13l11.1,11.3l11.1,9.8l11.1,8.7l11.2,7.8l11.1,6.9l11.1,6.2l11.2,5.7L522,568l11.1,4.7l11.2,4.3l11.1,3.9l11.1,3.6l11.1,3.4l11.2,3.1l11.1,3l11.1,2.7l11.2,2.5l11.1,2.4" class="g2_12"/>
<path d="M395.9,453.7l4.9,8.8l4.9,8.2l5,7.6l4.9,7.1l5,6.5l4.9,6.1l5,5.8l4.9,5.3l5,5.1l4.9,4.7l5,4.5l4.9,4.2l5,4l4.9,3.8l5,3.6l4.9,3.4l4.9,3.3l5,3.1l4.9,2.9l5,2.8l4.9,2.7l5,2.6l4.9,2.5l5,2.3M419.5,490.5c0,0,5.9,7.3,8.2,10.1c2.4,2.7,5.6,6.4,8.7,9.6c1.7,1.6,5.3,5.1,8.5,8.1" class="g3_12"/>
<path d="M448.4,521.6c-1.1,-2.1,-2,-4.1,-3,-6.2c0,1.1,-.1,2.2,-.1,3.3c-1.1,.1,-2.2,.2,-3.2,.2c2.1,.9,4.1,1.7,6.3,2.7Z" class="g4_12"/>
<path d="M395.9,379.7l9.8,22.8l9.9,19.5l9.9,16.9l9.9,14.8l9.9,13l9.9,11.6l9.9,10.4L475,498l9.9,8.5l9.9,7.7l9.9,7l9.9,6.4l9.9,6l9.9,5.4l9.9,5.1l9.9,4.7l9.8,4.3l9.9,4.1l9.9,3.8l9.9,3.6l9.9,3.4l9.9,3.1l9.9,3l9.9,2.8" class="g2_12"/>
<path d="M277.1,564.6H633.3" class="g5_12"/>
<path d="M514.6,564.6H395.9m98.3,0c0,0,-9.4,0,-13,0c-3.6,0,-8.5,0,-13,0c-2.3,0,-7.3,0,-11.7,0" class="g6_12"/>
<path d="M451.6,564.6c2.3,.8,4.3,1.6,6.5,2.4c-.7,-.8,-1.5,-1.6,-2.2,-2.4c.7,-.8,1.5,-1.6,2.2,-2.4c-2.2,.8,-4.2,1.6,-6.5,2.4Z" class="g7_12"/>
<path d="M277.1,453.7H633.3" class="g5_12"/>
<path d="M395.9,675.6V379.7" class="g8_12"/>
<path d="M395.9,564.6V453.7" class="g9_12"/>
<path d="M514.6,675.6V379.7" class="g8_12"/>
<path d="M402.1,1041.3h27.3m28.7,0h28.5m-28.5,44.4h49.3m17.8,-46.1c12.7,12.7,12.9,33.2,.6,46.1m7.1,-.7c-2.5,.6,-5,.9,-7.4,1c-.1,-2.3,-.4,-4.6,-.9,-6.8" class="g0_12"/>
</svg>