<?xml version="1.0" encoding="UTF-8" standalone="no"?>
<!DOCTYPE svg PUBLIC "-//W3C//DTD SVG 1.1//EN"
"http://www.w3.org/Graphics/SVG/1.1/DTD/svg11.dtd">
<svg viewBox="0 0 1286 909" version="1.1" xmlns="http://www.w3.org/2000/svg" xmlns:xlink="http://www.w3.org/1999/xlink">
<defs>
<style type="text/css"><![CDATA[
.g0_936{
fill: none;
stroke: #000000;
stroke-width: 0.73;
stroke-linecap: butt;
stroke-linejoin: miter;
}
.g1_936{
fill: none;
stroke: #02B5EE;
stroke-width: 1.262;
stroke-linecap: butt;
stroke-linejoin: miter;
}
.g2_936{
fill: none;
stroke: #02B5EE;
stroke-width: 0.73;
stroke-linecap: butt;
stroke-linejoin: miter;
}
.g3_936{
fill: none;
stroke: #5EE200;
stroke-width: 1.262;
stroke-linecap: butt;
stroke-linejoin: miter;
}
.g4_936{
fill: none;
stroke: #5EE200;
stroke-width: 0.73;
stroke-linecap: butt;
stroke-linejoin: miter;
}
]]></style>
</defs>
<path d="M193,83.4h900.3M193,210.6H992.6m-799.6,0H992.6M547.9,240.2V211m0,58.5V240.2m0,114.3v-85" class="g0_936"/>
<path d="M803.3,330.5h63.8" class="g1_936"/>
<path d="M547.9,383.7V354.5m0,102.3V383.7" class="g0_936"/>
<path d="M947.9,442.9h33.7" class="g2_936"/>
<path d="M547.9,486V456.8m0,58.4V486m0,114.2v-85" class="g0_936"/>
<path d="M713.1,576.2H783" class="g1_936"/>
<path d="M793.5,576.2H981.6" class="g3_936"/>
<path d="M547.9,629.5V600.2m0,102.3v-73" class="g0_936"/>
<path d="M840.5,688.6h84.4" class="g4_936"/>
<path d="M931,688.6h50.6" class="g2_936"/>
<path d="M547.9,731.7V702.5M193,732.1H992.6m-799.6,0H992.6" class="g0_936"/>
</svg>