<?xml version="1.0" encoding="UTF-8" standalone="no"?>
<!DOCTYPE svg PUBLIC "-//W3C//DTD SVG 1.1//EN"
"http://www.w3.org/Graphics/SVG/1.1/DTD/svg11.dtd">
<svg viewBox="0 0 1286 909" version="1.1" xmlns="http://www.w3.org/2000/svg" xmlns:xlink="http://www.w3.org/1999/xlink">
<defs>
<style type="text/css"><![CDATA[
.g0_846{
fill: none;
stroke: #000000;
stroke-width: 0.73;
stroke-linecap: butt;
stroke-linejoin: miter;
}
.g1_846{
fill: #FFCCCC;
}
.g2_846{
fill: none;
stroke: #F81693;
stroke-width: 1.461;
stroke-linecap: butt;
stroke-linejoin: miter;
stroke-dasharray: 2,2;
}
.g3_846{
fill: none;
stroke: #5EE200;
stroke-width: 1.461;
stroke-linecap: butt;
stroke-linejoin: miter;
stroke-dasharray: 2,2;
}
.g4_846{
fill: #AEF080;
}
]]></style>
</defs>
<path d="M193,83.4h900.3M193,210.6h921.2m-921.2,0h921.2M528.6,240.2V211m0,58.5V240.2m0,63.2V269.5" class="g0_846"/>
<path d="M949.2,303.4h56.9V270.5H949.2v32.9Z" class="g1_846"/>
<path d="M1020.2,297h79.4" class="g2_846"/>
<path d="M528.6,332.6V303.4m0,62.1V332.6" class="g0_846"/>
<path d="M749.3,361.1h32" class="g2_846"/>
<path d="M791,365.5h312.3V332.6H791v32.9Z" class="g1_846"/>
<path d="M528.6,396.8V365.5m0,60.5V396.8m0,58.5V426m0,63.2V455.3" class="g0_846"/>
<path d="M809.9,489.2h56.8V456.3H809.9v32.9Z" class="g1_846"/>
<path d="M880.9,482.8H1025" class="g3_846"/>
<path d="M1039.1,489.2h64.2V456.3h-64.2v32.9Z" class="g4_846"/>
<path d="M528.6,518.4V489.2m0,62.1V518.4" class="g0_846"/>
<path d="M816.4,547H949.7" class="g3_846"/>
<path d="M953.3,551.3h44.8V518.4H953.3v32.9Z" class="g4_846"/>
<path d="M1004.2,551.3h99.1V518.4h-99.1v32.9Z" class="g1_846"/>
<path d="M528.6,580.5V551.3m0,58.5V580.5m0,69.4V609.8" class="g0_846"/>
<path d="M747.8,646.5h56.9V613.6H747.8v32.9Z" class="g1_846"/>
<path d="M815.2,646.5h92.2V613.6H815.2v32.9Z" class="g4_846"/>
<path d="M920.6,646.5h75.8V613.6H920.6v32.9Z" class="g1_846"/>
<path d="M1010.5,640.1h86.4" class="g2_846"/>
<path d="M921.5,649.2h178.1" class="g3_846"/>
<path d="M528.6,679.2V649.9m0,68.3v-39" class="g0_846"/>
<path d="M546,710.4h31.9" class="g2_846"/>
<path d="M587.7,714.8H737.5V681.9H587.7v32.9Z" class="g1_846"/>
<path d="M543.3,717.5H736.6" class="g3_846"/>
<path d="M740.2,714.8h44.7V681.9H740.2v32.9Z" class="g4_846"/>
<path d="M791,714.8h312.3V681.9H791v32.9Z" class="g1_846"/>
<path d="M528.6,747.5V718.2M193,747.8h921.2m-921.2,0h921.2" class="g0_846"/>
</svg>