<?xml version="1.0" encoding="UTF-8" standalone="no"?>
<!DOCTYPE svg PUBLIC "-//W3C//DTD SVG 1.1//EN"
"http://www.w3.org/Graphics/SVG/1.1/DTD/svg11.dtd">
<svg viewBox="0 0 1286 909" version="1.1" xmlns="http://www.w3.org/2000/svg" xmlns:xlink="http://www.w3.org/1999/xlink">
<defs>
<style type="text/css"><![CDATA[
.g0_1131{
fill: none;
stroke: #000000;
stroke-width: 0.73;
stroke-linecap: butt;
stroke-linejoin: miter;
}
.g1_1131{
fill: none;
stroke: #02B5EE;
stroke-width: 1.262;
stroke-linecap: butt;
stroke-linejoin: miter;
}
.g2_1131{
fill: #AEF080;
}
.g3_1131{
fill: none;
stroke: #5EE200;
stroke-width: 1.461;
stroke-linecap: butt;
stroke-linejoin: miter;
stroke-dasharray: 2,2;
}
.g4_1131{
fill: none;
stroke: #5EE200;
stroke-width: 1.262;
stroke-linecap: butt;
stroke-linejoin: miter;
}
.g5_1131{
fill: none;
stroke: #5EE200;
stroke-width: 0.73;
stroke-linecap: butt;
stroke-linejoin: miter;
}
.g6_1131{
fill: none;
stroke: #02B5EE;
stroke-width: 0.73;
stroke-linecap: butt;
stroke-linejoin: miter;
}
]]></style>
</defs>
<path d="M193,83.4h900.3M193,210.6H899.1m-706.1,0H899.1M501,240.2V211m0,58.5V240.2m0,114.3v-85" class="g0_1131"/>
<path d="M553.4,330.5h79.9" class="g1_1131"/>
<path d="M643.8,318.8h96V285.9h-96v32.9Z" class="g2_1131"/>
<path d="M753.9,312.4H884.5" class="g3_1131"/>
<path d="M643.8,330.5H888.2" class="g4_1131"/>
<path d="M501,383.7V354.5m0,102.3V383.7" class="g0_1131"/>
<path d="M515.6,428.7H631" class="g3_1131"/>
<path d="M634.7,433h146V400.1h-146V433Z" class="g2_1131"/>
<path d="M511.9,442.9H780.7" class="g5_1131"/>
<path d="M786.8,442.9H888.2" class="g6_1131"/>
<path d="M501,486V456.8M193,486.3H899.1m-706.1,0H899.1" class="g0_1131"/>
</svg>