<?xml version="1.0" encoding="UTF-8" standalone="no"?>
<!DOCTYPE svg PUBLIC "-//W3C//DTD SVG 1.1//EN"
"http://www.w3.org/Graphics/SVG/1.1/DTD/svg11.dtd">
<svg viewBox="0 0 909 1286" version="1.1" xmlns="http://www.w3.org/2000/svg" xmlns:xlink="http://www.w3.org/1999/xlink">
<defs>
<style type="text/css"><![CDATA[
.g0_77{
fill: none;
stroke: #000000;
stroke-width: 0.73;
stroke-linecap: butt;
stroke-linejoin: miter;
}
.g1_77{
fill: #FDE8E9;
}
]]></style>
</defs>
<path d="M116.9,159.9H792.5" class="g0_77"/>
<path d="M116.9,268.8H229.2V240.9H116.9v27.9Z" class="g1_77"/>
<path d="M116.9,356.5H229.2V328.6H116.9v27.9Z" class="g1_77"/>
<path d="M116.9,444.1h95.4V416.3H116.9v27.8Z" class="g1_77"/>
<path d="M125.4,473.8h95.4V446H125.4v27.8Z" class="g1_77"/>
<path d="M218.3,532.7h61.6V504.9H218.3v27.8Z" class="g1_77"/>
<path d="M696.3,577H758V549.1H696.3V577Z" class="g1_77"/>
<path d="M505.4,635.4h78.5V607.6H505.4v27.8Z" class="g1_77"/>
<path d="M116.9,737.7H246.1V709.9H116.9v27.8Z" class="g1_77"/>
<path d="M263,737.7H409.1V709.9H263v27.8Z" class="g1_77"/>
<path d="M426,737.7H572V709.9H426v27.8Z" class="g1_77"/>
<path d="M560.9,767.4h27.9V739.5H560.9v27.9Z" class="g1_77"/>
<path d="M167.6,840.5H263V812.6H167.6v27.9Z" class="g1_77"/>
<path d="M167.6,870.1H263V842.3H167.6v27.8Z" class="g1_77"/>
<path d="M167.6,899.8H263V872H167.6v27.8Z" class="g1_77"/>
<path d="M167.6,929.5H263V901.6H167.6v27.9Z" class="g1_77"/>
<path d="M167.6,959.2H263V931.3H167.6v27.9Z" class="g1_77"/>
<path d="M167.6,988.8H263V961H167.6v27.8Z" class="g1_77"/>
<path d="M167.6,1018.5H263V990.7H167.6v27.8Z" class="g1_77"/>
<path d="M116.9,1092H263v-27.8H116.9V1092Z" class="g1_77"/>
<path d="M167.6,1121.7h27.9v-27.9H167.6v27.9Z" class="g1_77"/>
</svg>