<?xml version="1.0" encoding="UTF-8" standalone="no"?>
<!DOCTYPE svg PUBLIC "-//W3C//DTD SVG 1.1//EN"
"http://www.w3.org/Graphics/SVG/1.1/DTD/svg11.dtd">
<svg viewBox="0 0 909 1286" version="1.1" xmlns="http://www.w3.org/2000/svg" xmlns:xlink="http://www.w3.org/1999/xlink">
<defs>
<style type="text/css"><![CDATA[
.g0_70{
fill: none;
stroke: #000000;
stroke-width: 0.73;
stroke-linecap: butt;
stroke-linejoin: miter;
}
.g1_70{
fill: #FDE8E9;
}
]]></style>
</defs>
<path d="M116.9,159.9H792.5" class="g0_70"/>
<path d="M370.3,283.4h78.5V255.6H370.3v27.8Z" class="g1_70"/>
<path d="M167.6,356.5H279.9V328.6H167.6v27.9Z" class="g1_70"/>
<path d="M167.6,386.1h78.5V358.3H167.6v27.8Z" class="g1_70"/>
<path d="M167.6,415.8H263V388H167.6v27.8Z" class="g1_70"/>
<path d="M167.6,591.1h44.7V563.3H167.6v27.8Z" class="g1_70"/>
<path d="M167.6,620.8h44.7V593H167.6v27.8Z" class="g1_70"/>
<path d="M167.6,650.5H279.9V622.6H167.6v27.9Z" class="g1_70"/>
<path d="M167.6,694.8H263V666.9H167.6v27.9Z" class="g1_70"/>
<path d="M167.6,797.1h44.7V769.2H167.6v27.9Z" class="g1_70"/>
<path d="M167.6,826.7H279.9V798.9H167.6v27.8Z" class="g1_70"/>
<path d="M167.6,856.4H279.9V828.6H167.6v27.8Z" class="g1_70"/>
<path d="M167.6,886.1h61.6V858.2H167.6v27.9Z" class="g1_70"/>
<path d="M167.6,915.8h44.7V887.9H167.6v27.9Z" class="g1_70"/>
<path d="M167.6,945.4h44.7V917.6H167.6v27.8Z" class="g1_70"/>
<path d="M167.6,975.1h44.7V947.3H167.6v27.8Z" class="g1_70"/>
</svg>