<?xml version="1.0" encoding="UTF-8" standalone="no"?>
<!DOCTYPE svg PUBLIC "-//W3C//DTD SVG 1.1//EN"
"http://www.w3.org/Graphics/SVG/1.1/DTD/svg11.dtd">
<svg viewBox="0 0 909 1286" version="1.1" xmlns="http://www.w3.org/2000/svg" xmlns:xlink="http://www.w3.org/1999/xlink">
<defs>
<style type="text/css"><![CDATA[
.g0_5{
fill: none;
stroke: #000000;
stroke-width: 0.73;
stroke-linecap: butt;
stroke-linejoin: miter;
}
.g1_5{
fill: #FFFFFF;
}
]]></style>
</defs>
<path d="M160.6,282.3H748.8m-197,29.6V282.7M374.3,358.3L405.5,377m0,36.7V377.1m-31.2,55.4l31.2,-18.6m-31.2,18.6L343.1,413.9m0,-.2V377.1m31.2,-18.8L343.1,377m32.3,-11l23,13.7m-23,45.1l23,-13.7m-49.3,-2.2v-27M405.5,303l31.3,18.6m0,36.7V321.8m-31.3,55.3l31.3,-18.6m-62.5,-.2V321.8M405.5,303l-31.2,18.6m30.1,-10.9l-23,13.7m49.3,29.2V326.5M311.8,358.3L343.1,377m-31.3,55.5l31.3,-18.6m-31.3,18.6L280.6,413.9m0,-.2V377.1m31.2,-18.8L280.6,377m30.1,-11l-23,13.7m23,45.1l-23,-13.7m264.1,19.2V311.9" class="g0_5"/>
<path d="M565.8,389.7V352.5c0,-2.9,2.3,-5.2,5.2,-5.2H730.1c2.9,0,5.2,2.3,5.2,5.2v37.2c0,2.9,-2.3,5.2,-5.2,5.2H571c-2.9,0,-5.2,-2.3,-5.2,-5.2Z" class="g1_5"/>
<path d="M551.8,459.5V430.3M160.6,459.9H748.8m-197,29.6V460.2m-214,75.7L369,554.5m0,36.7V554.7M337.8,610L369,591.4M337.8,610L306.5,591.4m0,-.2V554.7m31.3,-18.8l-31.3,18.6m32.4,-11l23,13.7m-23,45.2l23,-13.7m-49.3,-2.2V559.4M369,480.5l31.2,18.7m0,36.7V499.3M369,554.7l31.2,-18.6m-62.4,-.2V499.3M369,480.5l-31.2,18.7m30.1,-11l-23,13.7m49.3,29.2v-27m37.3,-23.6l31.2,18.7m0,36.7V499.3m-31.2,55.4l31.2,-18.6m-31.2,18.6L400.2,536.1m31.3,-55.6l-31.3,18.7m32.4,-11l23,13.7m-23,45.1l23,-13.7m-180.3,2.6l31.2,18.6M275.3,610l31.2,-18.6M275.3,610L244.1,591.4m0,-.2V554.7m31.2,-18.8l-31.2,18.6m30.1,-11l-23,13.7m23,45.2l-23,-13.7m300.6,19.1V489.5" class="g0_5"/>
<path d="M586.3,567.3V530c0,-2.8,2.3,-5.1,5.2,-5.1H709.6c2.9,0,5.2,2.3,5.2,5.1v37.3c0,2.8,-2.3,5.2,-5.2,5.2H591.5c-2.9,0,-5.2,-2.4,-5.2,-5.2Z" class="g1_5"/>
<path d="M551.8,637.1V607.8M160.6,637.4H748.8M551.8,667V637.8m-214,130.4L369,786.8m0,36.8V787m-31.2,55.4L369,823.7m-31.2,18.7L306.5,823.7m0,-.1V787m31.3,-18.8l-31.3,18.6m32.4,-10.9l23,13.7m-23,45.1l23,-13.7m-49.3,-2.2v-27M369,712.9l31.2,18.6m0,36.7V731.7M369,787l31.2,-18.6m-62.4,-.2V731.7M369,712.9l-31.2,18.6m30.1,-11l-23,13.7m49.3,29.3V736.4m37.3,-23.5l31.2,18.6m0,36.7V731.7M431.5,787l31.2,-18.6M431.5,787L400.2,768.4m31.3,-55.5l-31.3,18.6m32.4,-11l23,13.7m-23,45.1l23,-13.7m7.1,-108.1l31.2,18.6m0,36.8V676.3m-31.2,55.4L493.9,713m-62.4,-.1V676.3m31.2,-18.8l-31.2,18.6m30.1,-10.9l-23,13.7m49.3,29.2v-27M275.3,768.2l31.2,18.6m-31.2,55.6l31.2,-18.7m-31.2,18.7L244.1,823.7m0,-.1V787m31.2,-18.8l-31.2,18.6m30.1,-10.9l-23,13.7m23,45.1L251.2,821m300.6,19.2V667" class="g0_5"/>
<path d="M597.4,772.2V735c0,-2.9,2.3,-5.2,5.2,-5.2h95.9c2.9,0,5.2,2.3,5.2,5.2v37.2c0,2.9,-2.3,5.2,-5.2,5.2H602.6c-2.9,0,-5.2,-2.3,-5.2,-5.2Z" class="g1_5"/>
<path d="M551.8,869.4V840.2M160.6,869.8H748.8m-197,29.6V870.1M237.3,1000.5l-31.2,18.7m31.2,-18.7l31.2,18.7m-31.2,55.5l-31.2,-18.6m31.2,18.6l31.2,-18.6m0,-.2v-36.5m-62.4,36.5v-36.5m93.7,-18.9l-31.3,18.7m31.3,-18.7l31.2,18.7m-31.2,55.5l-31.3,-18.6m31.3,18.6L331,1056.1m0,-.2v-36.5m31.3,-18.9L331,1019.2m31.3,-18.7l31.2,18.7m0,36.7v-36.5m-31.2,55.3l31.2,-18.6m-31.2,18.6L331,1056.1m32.3,10.9l23.1,-13.7M300.9,1067l23,-13.7m-61.4,-2.2v-27M236.2,1067l-23,-13.7m23,-45.1l-23,13.7M393.5,945.2l31.2,18.6m0,36.7V964m-31.2,55.4l31.2,-18.7m-62.5,-.2V964m31.3,-18.8l-31.3,18.6m32.4,47.9l23,-13.7m7.1,-108.1L456,908.5m0,36.7V908.7M424.7,964L456,945.4m-62.5,-.2V908.7m31.2,-18.8l-31.2,18.6m30.1,47.8l-23,-13.7m23,-45.1l-23,13.7M362.3,889.9l31.2,18.6M362.3,964l31.2,-18.6M362.3,964L331,945.4m0,-.2V908.7m31.3,-18.8L331,908.5m30.2,-11l-23.1,13.7m23.1,45.1L338.1,942.6M487.2,889.9l31.2,18.6m0,36.7V908.7M487.2,964l31.2,-18.6M487.2,964L456,945.4m31.2,-55.5L456,908.5m32.3,-11l23,13.7m-23,45.1l23,-13.7M462,940.5V913.4M331,945.2l31.3,18.6m-62.5,36.7V964M331,945.2l-31.2,18.6m6,32v-27m26.3,42.9l23,-13.7m196.7,74.5V899.4" class="g0_5"/>
<path d="M572.7,1004.5V967.3c0,-2.8,2.3,-5.2,5.2,-5.2H723.2c2.9,0,5.2,2.4,5.2,5.2v37.2c0,2.9,-2.3,5.2,-5.2,5.2H577.9c-2.9,0,-5.2,-2.3,-5.2,-5.2Z" class="g1_5"/>
<path d="M551.8,1101.7v-29.2m-391.2,29.6H748.8" class="g0_5"/>
</svg>