<?xml version="1.0" encoding="UTF-8" standalone="no"?>
<!DOCTYPE svg PUBLIC "-//W3C//DTD SVG 1.1//EN"
"http://www.w3.org/Graphics/SVG/1.1/DTD/svg11.dtd">
<svg viewBox="0 0 909 1286" version="1.1" xmlns="http://www.w3.org/2000/svg" xmlns:xlink="http://www.w3.org/1999/xlink">
<defs>
<style type="text/css"><![CDATA[
.g0_6{
fill: none;
stroke: #000000;
stroke-width: 0.73;
stroke-linecap: butt;
stroke-linejoin: miter;
}
.g1_6{
fill: #FDE8E9;
}
]]></style>
</defs>
<path d="M116.9,159.9H792.5" class="g0_6"/>
<path d="M116.9,268.8H229.2V240.9H116.9v27.9Z" class="g1_6"/>
<path d="M420.9,327.2h95.4V299.4H420.9v27.8Z" class="g1_6"/>
<path d="M420.9,369h45.7V345.3H420.9V369Z" class="g1_6"/>
<path d="M116.9,473.4H355.8V445.5H116.9v27.9Z" class="g1_6"/>
<path d="M589.8,573.6h86.4V549.9H589.8v23.7Z" class="g1_6"/>
<path d="M116.9,677.9H364.3V650.1H116.9v27.8Z" class="g1_6"/>
<path d="M304.4,707.6H383V679.7H304.4v27.9Z" class="g1_6"/>
<path d="M167.6,780.7H263V752.8H167.6v27.9Z" class="g1_6"/>
<path d="M448.8,780.7h44.7V752.8H448.8v27.9Z" class="g1_6"/>
<path d="M471.6,992.3h64V968.6h-64v23.7Z" class="g1_6"/>
<path d="M552.5,994.4H664.8V966.5H552.5v27.9Z" class="g1_6"/>
<path d="M387.2,1038.6h95.4v-27.8H387.2v27.8Z" class="g1_6"/>
<path d="M420.9,1068.3h95.4v-27.8H420.9v27.8Z" class="g1_6"/>
<path d="M471.6,1098h78.5v-27.9H471.6V1098Z" class="g1_6"/>
</svg>