<?xml version="1.0" encoding="UTF-8" standalone="no"?>
<!DOCTYPE svg PUBLIC "-//W3C//DTD SVG 1.1//EN"
"http://www.w3.org/Graphics/SVG/1.1/DTD/svg11.dtd">
<svg viewBox="0 0 1286 909" version="1.1" xmlns="http://www.w3.org/2000/svg" xmlns:xlink="http://www.w3.org/1999/xlink">
<defs>
<style type="text/css"><![CDATA[
.g0_38{
fill: none;
stroke: #000000;
stroke-width: 0.73;
stroke-linecap: butt;
stroke-linejoin: miter;
}
.g1_38{
fill: none;
stroke: #02B5EE;
stroke-width: 1.262;
stroke-linecap: butt;
stroke-linejoin: miter;
}
.g2_38{
fill: none;
stroke: #5EE200;
stroke-width: 1.262;
stroke-linecap: butt;
stroke-linejoin: miter;
}
.g3_38{
fill: none;
stroke: #FFA313;
stroke-width: 1.262;
stroke-linecap: butt;
stroke-linejoin: miter;
}
.g4_38{
fill: none;
stroke: #5EE200;
stroke-width: 0.73;
stroke-linecap: butt;
stroke-linejoin: miter;
}
.g5_38{
fill: none;
stroke: #02B5EE;
stroke-width: 0.73;
stroke-linecap: butt;
stroke-linejoin: miter;
}
]]></style>
</defs>
<path d="M193,83.4h900.3M193,210.6H968.1m-775.1,0H968.1M573.9,240.2V211m0,58.5V240.2m0,114.3v-85" class="g0_38"/>
<path d="M766.1,330.5h92.7" class="g1_38"/>
<path d="M869.3,330.5h87.8" class="g2_38"/>
<path d="M573.9,383.7V354.5m0,58.4V383.7m0,114.3V412.9" class="g0_38"/>
<path d="M707.7,474h34.7" class="g1_38"/>
<path d="M752.9,474H957.1" class="g3_38"/>
<path d="M573.9,527.2V498m0,58.4V527.2m0,114.2v-85" class="g0_38"/>
<path d="M602.5,617.4H788.3" class="g1_38"/>
<path d="M798.8,617.4H957.1" class="g2_38"/>
<path d="M573.9,670.6V641.4m0,102.3V670.6" class="g0_38"/>
<path d="M731.5,729.8H832.8" class="g4_38"/>
<path d="M838.9,729.8H957.1" class="g5_38"/>
<path d="M573.9,772.9V743.7" class="g0_38"/>
</svg>