<?xml version="1.0" encoding="UTF-8" standalone="no"?>
<!DOCTYPE svg PUBLIC "-//W3C//DTD SVG 1.1//EN"
"http://www.w3.org/Graphics/SVG/1.1/DTD/svg11.dtd">
<svg viewBox="0 0 1286 909" version="1.1" xmlns="http://www.w3.org/2000/svg" xmlns:xlink="http://www.w3.org/1999/xlink">
<defs>
<style type="text/css"><![CDATA[
.g0_921{
fill: none;
stroke: #000000;
stroke-width: 0.73;
stroke-linecap: butt;
stroke-linejoin: miter;
}
.g1_921{
fill: none;
stroke: #02B5EE;
stroke-width: 1.262;
stroke-linecap: butt;
stroke-linejoin: miter;
}
.g2_921{
fill: none;
stroke: #5EE200;
stroke-width: 1.262;
stroke-linecap: butt;
stroke-linejoin: miter;
}
.g3_921{
fill: none;
stroke: #5EE200;
stroke-width: 0.73;
stroke-linecap: butt;
stroke-linejoin: miter;
}
.g4_921{
fill: none;
stroke: #02B5EE;
stroke-width: 0.73;
stroke-linecap: butt;
stroke-linejoin: miter;
}
]]></style>
</defs>
<path d="M193,83.4h900.3M193,210.6h898.3m-898.3,0h898.3M675.8,240.2V211m0,58.5V240.2m0,114.3v-85" class="g0_921"/>
<path d="M929.5,330.5H982" class="g1_921"/>
<path d="M992.5,330.5h87.8" class="g2_921"/>
<path d="M675.8,383.7V354.5m0,58.4V383.7m0,128.8V412.9" class="g0_921"/>
<path d="M803.1,474H982" class="g1_921"/>
<path d="M992.5,474h87.8" class="g2_921"/>
<path d="M675.8,542.6V512.5m0,112.1v-82" class="g0_921"/>
<path d="M838.7,601.8H939.1" class="g3_921"/>
<path d="M945.2,601.8h135.1" class="g4_921"/>
<path d="M675.8,653.8V624.6M193,654.2h898.3m-898.3,0h898.3M675.8,683.8V654.5m0,58.5V683.8M193,713.4h898.3m-898.3,0h898.3" class="g0_921"/>
</svg>