<?xml version="1.0" encoding="UTF-8" standalone="no"?>
<!DOCTYPE svg PUBLIC "-//W3C//DTD SVG 1.1//EN"
"http://www.w3.org/Graphics/SVG/1.1/DTD/svg11.dtd">
<svg viewBox="0 0 1286 909" version="1.1" xmlns="http://www.w3.org/2000/svg" xmlns:xlink="http://www.w3.org/1999/xlink">
<defs>
<style type="text/css"><![CDATA[
.g0_1218{
fill: none;
stroke: #000000;
stroke-width: 0.73;
stroke-linecap: butt;
stroke-linejoin: miter;
}
.g1_1218{
fill: #FDE8E9;
}
]]></style>
</defs>
<path d="M193,83.4h900.3M203.9,110.5h340m-340,29.6V110.9m180,29.2V110.9m160,29.2V110.9m-340,61.8V140.1m180,32.6V140.1" class="g0_1218"/>
<path d="M394.9,169.5H526.3V140.1H394.9v29.4Z" class="g1_1218"/>
<path d="M543.9,172.7V140.1M203.9,202V172.7m180,29.3V172.7m160,29.3V172.7m-340,58.5V202m180,29.2V202m160,29.2V202m-340,63.8V231.2m180,34.6V231.2" class="g0_1218"/>
<path d="M394.9,265.8h94.5V231.2H394.9v34.6Z" class="g1_1218"/>
<path d="M543.9,265.8V231.2M203.9,295V265.8m180,29.2V265.8m160,29.2V265.8m-340,58.5V295m180,29.3V295m160,29.3V295m-340,61.9V324.3m180,32.6V324.3" class="g0_1218"/>
<path d="M394.9,353.6h85.9V324.3H394.9v29.3Z" class="g1_1218"/>
<path d="M543.9,356.9V324.3m-340,61.8V356.9m180,29.2V356.9m160,29.2V356.9m-340,58.5V386.1m180,29.3V386.1m160,29.3V386.1M203.9,448V415.4m180,32.6V415.4" class="g0_1218"/>
<path d="M394.9,444.7H533V415.3H394.9v29.4Z" class="g1_1218"/>
<path d="M543.9,448V415.4m-340,61.8V448m180,29.2V448m160,29.2V448m-340,58.4V477.2m180,29.2V477.2m160,29.2V477.2m-340,63.9V506.4m180,34.7V506.4" class="g0_1218"/>
<path d="M394.9,541.1H514.1V506.4H394.9v34.7Z" class="g1_1218"/>
<path d="M543.9,541.1V506.4m-340,63.9V541.1m180,29.2V541.1m160,29.2V541.1m-340,58.4V570.3m180,29.2V570.3m160,29.2V570.3m-340,61.9V599.5m180,32.7V599.5" class="g0_1218"/>
<path d="M394.9,628.9H498.2V599.5H394.9v29.4Z" class="g1_1218"/>
<path d="M543.9,632.2V599.5m-340,61.9V632.2m180,29.2V632.2m160,29.2V632.2m-340,58.4V661.4m180,29.2V661.4m160,29.2V661.4m-340,61.8V690.6m180,32.6V690.6" class="g0_1218"/>
<path d="M394.9,720h64.2V690.6H394.9V720Z" class="g1_1218"/>
<path d="M543.9,723.2V690.6m-340,61.9V723.2m180,29.3V723.2m160,29.3V723.2m-340,29.6h340m21.9,-641H845M565.8,141.3V112.1m155.7,29.2V112.1M845,141.3V112.1M565.8,174V141.3M721.5,174V141.3" class="g0_1218"/>
<path d="M732.5,170.7h64.2V141.3H732.5v29.4Z" class="g1_1218"/>
<path d="M845,174V141.3M565.8,203.2V174m155.7,29.2V174M845,203.2V174M565.8,232.4V203.2m155.7,29.2V203.2M845,232.4V203.2M565.8,267V232.4M721.5,267V232.4" class="g0_1218"/>
<path d="M732.5,267h76.9V232.4H732.5V267Z" class="g1_1218"/>
<path d="M845,267V232.4M565.8,296.3V267m155.7,29.3V267M845,296.3V267M565.8,325.5V296.3m155.7,29.2V296.3M845,325.5V296.3M565.8,358.1V325.5m155.7,32.6V325.5" class="g0_1218"/>
<path d="M732.5,354.9h54.7V325.5H732.5v29.4Z" class="g1_1218"/>
<path d="M845,358.1V325.5M565.8,387.4V358.1m155.7,29.3V358.1M845,387.4V358.1M565.8,416.6V387.4m155.7,29.2V387.4M845,416.6V387.4M565.8,449.2V416.6m155.7,32.6V416.6" class="g0_1218"/>
<path d="M732.5,445.9H834V416.6H732.5v29.3Z" class="g1_1218"/>
<path d="M845,449.2V416.6M565.8,478.5V449.2m155.7,29.3V449.2M845,478.5V449.2M565.8,507.7V478.5m155.7,29.2V478.5M845,507.7V478.5M565.8,539.8V507.7m155.7,32.1V507.7" class="g0_1218"/>
<path d="M732.5,539.8h80V511.2h-80v28.6Z" class="g1_1218"/>
<path d="M845,539.8V507.7M565.8,569V539.8M721.5,569V539.8M845,569V539.8M565.8,598.3V569m155.7,29.3V569M845,598.3V569M565.8,630.9V598.3m155.7,32.6V598.3" class="g0_1218"/>
<path d="M732.5,627.6h82.8V598.3H732.5v29.3Z" class="g1_1218"/>
<path d="M845,630.9V598.3M565.8,660.1V630.9m155.7,29.2V630.9M845,660.1V630.9M565.8,689.4V660.1m155.7,29.3V660.1M845,689.4V660.1M565.8,722V689.4M721.5,722V689.4" class="g0_1218"/>
<path d="M732.5,718.7h82.8V689.4H732.5v29.3Z" class="g1_1218"/>
<path d="M845,722V689.4M565.8,751.2V722m155.7,29.2V722M845,751.2V722M565.8,751.6H845M866.9,109.5h246.8M866.9,139.1V109.9m131.3,29.2V109.9m115.5,29.2V109.9M866.9,171.8V139.1m131.3,32.7V139.1" class="g0_1218"/>
<path d="M1009.2,168.5H1067V139.1h-57.8v29.4Z" class="g1_1218"/>
<path d="M1113.7,171.8V139.1M866.9,201V171.8M998.2,201V171.8M1113.7,201V171.8M866.9,230.2V201m131.3,29.2V201m115.5,29.2V201M866.9,262.9V230.2m131.3,32.7V230.2" class="g0_1218"/>
<path d="M1009.2,259.6h74.2V230.2h-74.2v29.4Z" class="g1_1218"/>
<path d="M1113.7,262.9V230.2M866.9,292.1V262.9m131.3,29.2V262.9m115.5,29.2V262.9M866.9,321.3V292.1m131.3,29.2V292.1m115.5,29.2V292.1M866.9,353.9V321.3m131.3,32.6V321.3" class="g0_1218"/>
<path d="M1009.2,350.7h47.2V321.3h-47.2v29.4Z" class="g1_1218"/>
<path d="M1113.7,353.9V321.3M866.9,383.2V353.9m131.3,29.3V353.9m115.5,29.3V353.9M866.9,412.4V383.2m131.3,29.2V383.2m115.5,29.2V383.2M866.9,447V412.4M998.2,447V412.4" class="g0_1218"/>
<path d="M1009.2,447h88.1V412.4h-88.1V447Z" class="g1_1218"/>
<path d="M1113.7,447V412.4M866.9,476.2V447m131.3,29.2V447m115.5,29.2V447M866.9,505.5V476.2m131.3,29.3V476.2m115.5,29.3V476.2M866.9,540.1V505.5m131.3,34.6V505.5" class="g0_1218"/>
<path d="M1009.2,540.1h88.1V505.5h-88.1v34.6Z" class="g1_1218"/>
<path d="M1113.7,540.1V505.5M866.9,569.3V540.1m131.3,29.2V540.1m115.5,29.2V540.1M866.9,598.5V569.3m131.3,29.2V569.3m115.5,29.2V569.3M866.9,633.1V598.5m131.3,34.6V598.5" class="g0_1218"/>
<path d="M1009.2,633.1h93.5V598.5h-93.5v34.6Z" class="g1_1218"/>
<path d="M1113.7,633.1V598.5M866.9,662.4V633.1m131.3,29.3V633.1m115.5,29.3V633.1M866.9,691.6V662.4m131.3,29.2V662.4m115.5,29.2V662.4M866.9,724.2V691.6m131.3,32.6V691.6" class="g0_1218"/>
<path d="M1009.2,720.9h79.9V691.6h-79.9v29.3Z" class="g1_1218"/>
<path d="M1113.7,724.2V691.6M866.9,753.5V724.2m131.3,29.3V724.2m115.5,29.3V724.2M866.9,753.8h246.8" class="g0_1218"/>
</svg>