<?xml version="1.0" encoding="UTF-8" standalone="no"?>
<!DOCTYPE svg PUBLIC "-//W3C//DTD SVG 1.1//EN"
"http://www.w3.org/Graphics/SVG/1.1/DTD/svg11.dtd">
<svg viewBox="0 0 1286 909" version="1.1" xmlns="http://www.w3.org/2000/svg" xmlns:xlink="http://www.w3.org/1999/xlink">
<defs>
<style type="text/css"><![CDATA[
.g0_510{
fill: none;
stroke: #000000;
stroke-width: 0.73;
stroke-linecap: butt;
stroke-linejoin: miter;
}
.g1_510{
fill: none;
stroke: #5EE200;
stroke-width: 0.73;
stroke-linecap: butt;
stroke-linejoin: miter;
}
.g2_510{
fill: #FFCCCC;
}
.g3_510{
fill: none;
stroke: #02B5EE;
stroke-width: 0.73;
stroke-linecap: butt;
stroke-linejoin: miter;
}
.g4_510{
fill: none;
stroke: #02B5EE;
stroke-width: 1.262;
stroke-linecap: butt;
stroke-linejoin: miter;
}
.g5_510{
fill: none;
stroke: #5EE200;
stroke-width: 1.262;
stroke-linecap: butt;
stroke-linejoin: miter;
}
]]></style>
</defs>
<path d="M193,83.4h900.3M193,111.6H836m-643,0H836M533.5,141.2V112m0,102.3V141.2" class="g0_510"/>
<path d="M566.7,200.4H601" class="g1_510"/>
<path d="M607.1,190.6H757.5V157.7H607.1v32.9Z" class="g2_510"/>
<path d="M757.5,200.4h67.6" class="g3_510"/>
<path d="M533.5,243.5V214.3m0,58.4V243.5m0,114.3V272.7" class="g0_510"/>
<path d="M581.3,333.8h96" class="g4_510"/>
<path d="M687.8,333.8H710" class="g5_510"/>
<path d="M731,322.1h94.1V289.2H731v32.9Z" class="g2_510"/>
<path d="M533.5,387.9V357.8m0,103.2V387.9" class="g0_510"/>
<path d="M549.8,447.1h34.3" class="g1_510"/>
<path d="M590.2,437.3H757.5V404.4H590.2v32.9Z" class="g2_510"/>
<path d="M757.5,447.1h67.6" class="g3_510"/>
<path d="M533.5,490.2V461m0,58.4V490.2m0,114.3V519.4" class="g0_510"/>
<path d="M574.1,580.5h88.6" class="g4_510"/>
<path d="M673.2,580.5h22.1" class="g5_510"/>
<path d="M716.4,568.8H825.1V535.9H716.4v32.9Z" class="g2_510"/>
<path d="M533.5,633.7V604.5m0,102.3V633.7" class="g0_510"/>
<path d="M549.8,692.9h34.3" class="g1_510"/>
<path d="M590.2,683H757.5V650.1H590.2V683Z" class="g2_510"/>
<path d="M757.5,692.9h67.6" class="g3_510"/>
<path d="M533.5,736V706.8M193,736.3H836m-643,0H836" class="g0_510"/>
</svg>