<?xml version="1.0" encoding="UTF-8" standalone="no"?>
<!DOCTYPE svg PUBLIC "-//W3C//DTD SVG 1.1//EN"
"http://www.w3.org/Graphics/SVG/1.1/DTD/svg11.dtd">
<svg viewBox="0 0 909 1286" version="1.1" xmlns="http://www.w3.org/2000/svg" xmlns:xlink="http://www.w3.org/1999/xlink">
<defs>
<clipPath id="c0_72"><path d="M119.5,288.6V255.1H446.9v33.5Z"/></clipPath>
<clipPath id="c1_72"><path d="M460.4,288.6V255.1H787.8v33.5Z"/></clipPath>
<clipPath id="c2_72"><path d="M119.5,649.5V616H789.9v33.5Z"/></clipPath>
<style type="text/css"><![CDATA[
.g0_72{
fill: none;
stroke: #000000;
stroke-width: 0.73;
stroke-linecap: butt;
stroke-linejoin: miter;
}
.g1_72{
fill: #7F7F7F;
fill-opacity: 0.01;
}
.g2_72{
fill: #7F7F7F;
fill-opacity: 0.02;
}
.g3_72{
fill: #7F7F7F;
fill-opacity: 0.04;
}
.g4_72{
fill: #7F7F7F;
fill-opacity: 0.07;
}
.g5_72{
fill: #7F7F7F;
fill-opacity: 0.11;
}
.g6_72{
fill: #FFFFFF;
}
.g7_72{
fill: #7F7F7F;
}
.g8_72{
fill: #00AEEF;
}
.g9_72{
fill: #CBCEFB;
}
.ga_72{
fill: #EC008C;
}
]]></style>
</defs>
<path d="M116.9,159.9H792.5" class="g0_72"/>
<path d="M122.2,257.8c107.4,0,214.7,0,322,0V609.1c-107.3,-9.4,-214.6,-9.4,-322,0Z" class="g1_72"/>
<path d="M122.9,258.4c106.9,0,213.8,0,320.7,0V608.5c-106.9,-9.4,-213.8,-9.4,-320.7,0Z" class="g2_72"/>
<path d="M123.5,259.1c106.5,0,213,0,319.5,0V607.9c-106.5,-9.4,-213,-9.4,-319.5,0Z" class="g3_72"/>
<path d="M124.1,259.7c106.1,0,212.2,0,318.3,0V607.2c-106.1,-9.3,-212.2,-9.3,-318.3,0Z" class="g4_72"/>
<path d="M124.7,260.3c105.7,0,211.4,0,317,0V606.6c-105.6,-9.4,-211.3,-9.4,-317,0Z" class="g5_72"/>
<path d="M125.4,260.9c105.2,0,210.5,0,315.7,0V606c-105.2,-9.4,-210.5,-9.4,-315.7,0Z" class="g5_72"/>
<path d="M126,261.6c104.8,0,209.7,0,314.5,0V605.4C335.7,596,230.8,596,126,605.4Z" class="g4_72"/>
<path d="M126.6,262.2c104.4,0,208.8,0,313.3,0V604.7c-104.5,-9.3,-208.9,-9.3,-313.3,0Z" class="g3_72"/>
<path d="M127.2,262.8c104,0,208,0,312,0V604.1c-104,-9.3,-208,-9.3,-312,0Z" class="g2_72"/>
<path d="M127.9,263.4c103.5,0,207.1,0,310.7,0V603.5c-103.6,-9.4,-207.2,-9.4,-310.7,0Z" class="g1_72"/>
<path d="M116.9,598.8V252.5H449.5V598.8Z" class="g6_72"/>
<path d="M119.5,596.2v-305H446.9v305Z" class="g6_72"/>
<path d="M119.5,288.6V255.1H446.9v33.5Z" class="g7_72"/>
<g clip-path="url(#c0_72)">
<image x="119" y="254" width="329" height="34" xlink:href="shade/1.png"/>
</g>
<path d="M316.9,283.4h104V260.3h-104v23.1Z" class="g8_72"/>
<path d="M210.9,340.6H355.5M211.3,370.2V341" class="g0_72"/>
<path d="M211.6,370.2h72.6V341H211.6v29.2Z" class="g9_72"/>
<path d="M284.6,370.2V341" class="g0_72"/>
<path d="M285,370.2h69.8V341H285v29.2Z" class="g9_72"/>
<path d="M355.2,370.2V341M210.9,370.6H355.5M211.3,400.2V370.9m73.3,29.3V370.9m70.6,29.3V370.9M210.9,400.5H355.5M211.3,430.1V400.9m73.3,29.2V400.9m70.6,29.2V400.9M210.9,430.5H355.5M211.3,460.1V430.8m73.3,29.3V430.8m70.6,29.3V430.8M210.9,460.4H355.5M211.3,490V460.8M284.6,490V460.8M355.2,490V460.8M210.9,490.4H355.5M211.3,520V490.8M284.6,520V490.8M355.2,520V490.8M210.9,520.3H355.5M211.3,549.9V520.7m73.3,29.2V520.7m70.6,29.2V520.7M210.9,550.3H355.5M211.3,579.9V550.7m73.3,29.2V550.7m70.6,29.2V550.7M210.9,580.3H355.5" class="g0_72"/>
<path d="M463.1,257.8c107.3,0,214.6,0,322,0V609.1c-107.4,-9.4,-214.7,-9.4,-322,0Z" class="g1_72"/>
<path d="M463.7,258.4c106.9,0,213.8,0,320.7,0V608.5c-106.9,-9.4,-213.8,-9.4,-320.7,0Z" class="g2_72"/>
<path d="M464.3,259.1c106.5,0,213,0,319.5,0V607.9c-106.5,-9.4,-213,-9.4,-319.5,0Z" class="g3_72"/>
<path d="M464.9,259.7c106.1,0,212.2,0,318.3,0V607.2c-106.1,-9.3,-212.2,-9.3,-318.3,0Z" class="g4_72"/>
<path d="M465.6,260.3c105.6,0,211.3,0,317,0V606.6c-105.7,-9.4,-211.4,-9.4,-317,0Z" class="g5_72"/>
<path d="M466.2,260.9c105.2,0,210.5,0,315.7,0V606c-105.2,-9.4,-210.5,-9.4,-315.7,0Z" class="g5_72"/>
<path d="M466.8,261.6c104.8,0,209.7,0,314.5,0V605.4C676.5,596,571.6,596,466.8,605.4Z" class="g4_72"/>
<path d="M467.4,262.2c104.5,0,208.9,0,313.3,0V604.7c-104.4,-9.3,-208.8,-9.3,-313.3,0Z" class="g3_72"/>
<path d="M468.1,262.8c104,0,208,0,312,0V604.1c-104,-9.3,-208,-9.3,-312,0Z" class="g2_72"/>
<path d="M468.7,263.4c103.6,0,207.2,0,310.7,0V603.5c-103.5,-9.4,-207.1,-9.4,-310.7,0Z" class="g1_72"/>
<path d="M457.8,598.8V252.5H790.4V598.8Z" class="g6_72"/>
<path d="M460.4,596.2v-305H787.8v305Z" class="g6_72"/>
<path d="M460.4,288.6V255.1H787.8v33.5Z" class="g7_72"/>
<g clip-path="url(#c1_72)">
<image x="460" y="254" width="329" height="34" xlink:href="shade/2.png"/>
</g>
<path d="M657.8,283.4h104V260.3h-104v23.1Z" class="g8_72"/>
<path d="M551.7,340.6H696.4M552.1,370.2V341" class="g0_72"/>
<path d="M552.5,370.2h72.6V341H552.5v29.2Z" class="g9_72"/>
<path d="M625.4,370.2V341" class="g0_72"/>
<path d="M625.8,370.2h69.8V341H625.8v29.2Z" class="g9_72"/>
<path d="M696,370.2V341M551.7,370.6H696.4M552.1,400.2V370.9m73.3,29.3V370.9M696,400.2V370.9M551.7,400.5H696.4M552.1,430.1V400.9m73.3,29.2V400.9M696,430.1V400.9M551.7,430.5H696.4M552.1,460.1V430.8m73.3,29.3V430.8M696,460.1V430.8M551.7,460.4H696.4M552.1,490V460.8M625.4,490V460.8M696,490V460.8M551.7,490.4H696.4M552.1,520V490.8M625.4,520V490.8M696,520V490.8M551.7,520.3H696.4M552.1,549.9V520.7m73.3,29.2V520.7M696,549.9V520.7M551.7,550.3H696.4M552.1,579.9V550.7m73.3,29.2V550.7M696,579.9V550.7M551.7,580.3H696.4" class="g0_72"/>
<path d="M122.2,618.7c221.7,0,443.4,0,665,0V936.6c-221.6,-9.4,-443.3,-9.4,-665,0Z" class="g1_72"/>
<path d="M122.9,619.3c221.2,0,442.4,0,663.7,0V936c-221.3,-9.4,-442.5,-9.4,-663.7,0Z" class="g2_72"/>
<path d="M123.5,620c220.8,0,441.6,0,662.5,0V935.3C565.1,926,344.3,926,123.5,935.3Z" class="g3_72"/>
<path d="M124.1,620.6c220.4,0,440.8,0,661.2,0V934.7c-220.4,-9.3,-440.8,-9.3,-661.2,0Z" class="g4_72"/>
<path d="M124.7,621.2c220,0,440,0,660,0V934.1c-220,-9.4,-440,-9.4,-660,0Z" class="g5_72"/>
<path d="M125.4,621.8c219.5,0,439.1,0,658.7,0V933.5c-219.6,-9.4,-439.2,-9.4,-658.7,0Z" class="g5_72"/>
<path d="M126,622.5c219.1,0,438.3,0,657.5,0V932.8c-219.2,-9.3,-438.4,-9.3,-657.5,0Z" class="g4_72"/>
<path d="M126.6,623.1c218.8,0,437.5,0,656.3,0V932.2c-218.8,-9.3,-437.5,-9.3,-656.3,0Z" class="g3_72"/>
<path d="M127.2,623.7c218.4,0,436.7,0,655,0V931.6c-218.3,-9.4,-436.6,-9.4,-655,0Z" class="g2_72"/>
<path d="M127.9,624.3c217.9,0,435.8,0,653.7,0V931c-217.9,-9.4,-435.8,-9.4,-653.7,0Z" class="g1_72"/>
<path d="M116.9,926.3V613.4H792.5V926.3Z" class="g6_72"/>
<path d="M119.5,923.7V652.1H789.9V923.7Z" class="g6_72"/>
<path d="M119.5,649.5V616H789.9v33.5Z" class="g7_72"/>
<g clip-path="url(#c2_72)">
<image x="119" y="615" width="672" height="34" xlink:href="shade/3.png"/>
</g>
<path d="M675.7,644.3h88.2V621.2H675.7v23.1Z" class="ga_72"/>
<path d="M351.9,668.1H557.5M352.3,697.7V668.5" class="g0_72"/>
<path d="M352.6,697.7h72.6V668.5H352.6v29.2Z" class="g9_72"/>
<path d="M425.6,697.7V668.5" class="g0_72"/>
<path d="M426,697.7h69.8V668.5H426v29.2Z" class="g9_72"/>
<path d="M496.2,697.7V668.5" class="g0_72"/>
<path d="M496.5,697.7h60.3V668.5H496.5v29.2Z" class="g9_72"/>
<path d="M557.2,697.7V668.5M351.9,698.1H557.5M352.3,727.6V698.4m73.3,29.2V698.4m70.6,29.2V698.4m61,29.2V698.4M351.9,728H557.5M352.3,757.6V728.4m73.3,29.2V728.4m70.6,29.2V728.4m61,29.2V728.4M351.9,758H557.5M352.3,787.6V758.3m73.3,29.3V758.3m70.6,29.3V758.3m61,29.3V758.3M351.9,787.9H557.5M352.3,817.5V788.3m73.3,29.2V788.3m70.6,29.2V788.3m61,29.2V788.3M351.9,817.9H557.5M352.3,847.5V818.2m73.3,29.3V818.2m70.6,29.3V818.2m61,29.3V818.2M351.9,847.8H557.5M352.3,877.4V848.2m73.3,29.2V848.2m70.6,29.2V848.2m61,29.2V848.2M351.9,877.8H557.5M352.3,907.4V878.1m73.3,29.3V878.1m70.6,29.3V878.1m61,29.3V878.1M351.9,907.7H557.5" class="g0_72"/>
</svg>