<?xml version="1.0" encoding="UTF-8" standalone="no"?>
<!DOCTYPE svg PUBLIC "-//W3C//DTD SVG 1.1//EN"
"http://www.w3.org/Graphics/SVG/1.1/DTD/svg11.dtd">
<svg viewBox="0 0 909 1286" version="1.1" xmlns="http://www.w3.org/2000/svg" xmlns:xlink="http://www.w3.org/1999/xlink">
<defs>
<style type="text/css"><![CDATA[
.g0_139{
fill: none;
stroke: #000000;
stroke-width: 0.73;
stroke-linecap: butt;
stroke-linejoin: miter;
}
.g1_139{
fill: #E81A58;
}
.g2_139{
fill: #401A1A;
}
]]></style>
</defs>
<path d="M116.9,159.9H792.5" class="g0_139"/>
<path d="M116.9,362V179.5H792.5V322.9c0,21.6,-17.5,39.1,-39.1,39.1Z" class="g1_139"/>
<path d="M119.5,359.4V179.5H789.9V322.9c0,20.2,-16.3,36.5,-36.5,36.5Z" class="g2_139"/>
<path d="M116.9,808.2V518c0,-21.6,17.6,-39.1,39.2,-39.1H792.5V769.1c0,21.6,-17.5,39.1,-39.1,39.1Z" class="g1_139"/>
<path d="M119.5,805.6V511.4H789.9V769.1c0,20.1,-16.3,36.5,-36.5,36.5Z" class="g2_139"/>
<path d="M116.9,1049.8V964.2c0,-21.6,17.6,-39.1,39.2,-39.1H792.5v85.6c0,21.6,-17.5,39.1,-39.1,39.1Z" class="g1_139"/>
<path d="M119.5,1047.2V957.6H789.9v53.1c0,20.1,-16.3,36.5,-36.5,36.5Z" class="g2_139"/>
</svg>