<?xml version="1.0" encoding="UTF-8" standalone="no"?>
<!DOCTYPE svg PUBLIC "-//W3C//DTD SVG 1.1//EN"
"http://www.w3.org/Graphics/SVG/1.1/DTD/svg11.dtd">
<svg viewBox="0 0 909 1286" version="1.1" xmlns="http://www.w3.org/2000/svg" xmlns:xlink="http://www.w3.org/1999/xlink">
<defs>
<clipPath id="c0_108"><path d="M119.5,288.6V255.1H446.9v33.5Z"/></clipPath>
<clipPath id="c1_108"><path d="M462.5,288.6V255.1H789.9v33.5Z"/></clipPath>
<style type="text/css"><![CDATA[
.g0_108{
fill: none;
stroke: #000000;
stroke-width: 0.73;
stroke-linecap: butt;
stroke-linejoin: miter;
}
.g1_108{
fill: #7F7F7F;
fill-opacity: 0.01;
}
.g2_108{
fill: #7F7F7F;
fill-opacity: 0.02;
}
.g3_108{
fill: #7F7F7F;
fill-opacity: 0.04;
}
.g4_108{
fill: #7F7F7F;
fill-opacity: 0.07;
}
.g5_108{
fill: #7F7F7F;
fill-opacity: 0.11;
}
.g6_108{
fill: #FFFFFF;
}
.g7_108{
fill: #7F7F7F;
}
.g8_108{
fill: #00AEEF;
}
.g9_108{
fill: #CBCEFB;
}
.ga_108{
fill: #EC008C;
}
.gb_108{
fill: #E81A58;
}
.gc_108{
fill: #401A1A;
}
]]></style>
</defs>
<path d="M116.9,159.9H792.5" class="g0_108"/>
<path d="M122.2,257.8c107.4,0,214.7,0,322,0V699c-107.3,-9.4,-214.6,-9.4,-322,0Z" class="g1_108"/>
<path d="M122.9,258.4c106.9,0,213.8,0,320.7,0V698.3C336.7,689,229.8,689,122.9,698.3Z" class="g2_108"/>
<path d="M123.5,259.1c106.5,0,213,0,319.5,0V697.7c-106.5,-9.3,-213,-9.3,-319.5,0Z" class="g3_108"/>
<path d="M124.1,259.7c106.1,0,212.2,0,318.3,0V697.1c-106.1,-9.4,-212.2,-9.4,-318.3,0Z" class="g4_108"/>
<path d="M124.7,260.3c105.7,0,211.4,0,317,0V696.5c-105.6,-9.4,-211.3,-9.4,-317,0Z" class="g5_108"/>
<path d="M125.4,260.9c105.2,0,210.5,0,315.7,0V695.8c-105.2,-9.3,-210.5,-9.3,-315.7,0Z" class="g5_108"/>
<path d="M126,261.6c104.8,0,209.7,0,314.5,0V695.2c-104.8,-9.3,-209.7,-9.3,-314.5,0Z" class="g4_108"/>
<path d="M126.6,262.2c104.4,0,208.8,0,313.3,0V694.6c-104.5,-9.4,-208.9,-9.4,-313.3,0Z" class="g3_108"/>
<path d="M127.2,262.8c104,0,208,0,312,0V694c-104,-9.4,-208,-9.4,-312,0Z" class="g2_108"/>
<path d="M127.9,263.4c103.5,0,207.1,0,310.7,0V693.3C335,684,231.4,684,127.9,693.3Z" class="g1_108"/>
<path d="M116.9,688.7V252.5H449.5V688.7Z" class="g6_108"/>
<path d="M119.5,686.1V291.2H446.9V686.1Z" class="g6_108"/>
<path d="M119.5,288.6V255.1H446.9v33.5Z" class="g7_108"/>
<g clip-path="url(#c0_108)">
<image x="119" y="254" width="329" height="34" xlink:href="shade/1.png"/>
</g>
<path d="M316.9,283.4h104V260.3h-104v23.1Z" class="g8_108"/>
<path d="M189.2,340.6h188M189.6,370.2V341" class="g0_108"/>
<path d="M190,370.2H296.3V341H190v29.2Z" class="g9_108"/>
<path d="M296.7,370.2V341" class="g0_108"/>
<path d="M297.1,370.2h79.4V341H297.1v29.2Z" class="g9_108"/>
<path d="M376.9,370.2V341M189.2,370.6h188M189.6,400.2V370.9m107.1,29.3V370.9m80.2,29.3V370.9M189.2,400.5h188M189.6,430.1V400.9m107.1,29.2V400.9m80.2,29.2V400.9M189.2,430.5h188M189.6,460.1V430.8m107.1,29.3V430.8m80.2,29.3V430.8M189.2,460.4h188M189.6,490V460.8M296.7,490V460.8M376.9,490V460.8M189.2,490.4h188M189.6,520V490.8M296.7,520V490.8M376.9,520V490.8M189.2,520.3h188M189.6,549.9V520.7m107.1,29.2V520.7m80.2,29.2V520.7M189.2,550.3h188M189.6,579.9V550.7m107.1,29.2V550.7m80.2,29.2V550.7M189.2,580.3h188M189.6,609.8V580.6m107.1,29.2V580.6m80.2,29.2V580.6M189.2,610.2h188M189.6,639.8V610.6m107.1,29.2V610.6m80.2,29.2V610.6M189.2,640.2h188M189.6,669.7V640.5m107.1,29.2V640.5m80.2,29.2V640.5M189.2,670.1h188" class="g0_108"/>
<path d="M465.2,257.8c107.4,0,214.7,0,322,0V442.3c-107.3,-9.3,-214.6,-9.3,-322,0Z" class="g1_108"/>
<path d="M465.8,258.4c107,0,213.9,0,320.8,0V441.7c-106.9,-9.3,-213.8,-9.3,-320.8,0Z" class="g2_108"/>
<path d="M466.5,259.1c106.5,0,213,0,319.5,0v182c-106.5,-9.4,-213,-9.4,-319.5,0Z" class="g3_108"/>
<path d="M467.1,259.7c106.1,0,212.2,0,318.2,0V440.5c-106,-9.4,-212.1,-9.4,-318.2,0Z" class="g4_108"/>
<path d="M467.7,260.3c105.7,0,211.3,0,317,0V439.8c-105.7,-9.3,-211.3,-9.3,-317,0Z" class="g5_108"/>
<path d="M468.3,260.9c105.3,0,210.5,0,315.8,0V439.2c-105.3,-9.3,-210.5,-9.3,-315.8,0Z" class="g5_108"/>
<path d="M469,261.6c104.8,0,209.6,0,314.5,0v177c-104.9,-9.4,-209.7,-9.4,-314.5,0Z" class="g4_108"/>
<path d="M469.6,262.2c104.4,0,208.8,0,313.2,0V438C678.4,428.6,574,428.6,469.6,438Z" class="g3_108"/>
<path d="M470.2,262.8c104,0,208,0,312,0V437.4c-104,-9.4,-208,-9.4,-312,0Z" class="g2_108"/>
<path d="M470.8,263.4c103.6,0,207.2,0,310.8,0V436.7c-103.6,-9.3,-207.2,-9.3,-310.8,0Z" class="g1_108"/>
<path d="M459.9,432.1V252.5H792.5V432.1Z" class="g6_108"/>
<path d="M462.5,429.5V291.2H789.9V429.5Z" class="g6_108"/>
<path d="M462.5,288.6V255.1H789.9v33.5Z" class="g7_108"/>
<g clip-path="url(#c1_108)">
<image x="462" y="254" width="329" height="34" xlink:href="shade/2.png"/>
</g>
<path d="M675.7,283.4h88.2V260.3H675.7v23.1Z" class="ga_108"/>
<path d="M562.3,323.6H690.1M562.7,353.2V324" class="g0_108"/>
<path d="M563.1,353.2h69.8V324H563.1v29.2Z" class="g9_108"/>
<path d="M633.3,353.2V324" class="g0_108"/>
<path d="M633.7,353.2h55.7V324H633.7v29.2Z" class="g9_108"/>
<path d="M689.7,353.2V324M562.3,353.6H690.1M562.7,383.2V354m70.6,29.2V354m56.4,29.2V354M562.3,383.5H690.1M562.7,413.1V383.9m70.6,29.2V383.9m56.4,29.2V383.9M562.3,413.5H690.1" class="g0_108"/>
<path d="M116.9,1129.9V898.2c0,-21.6,17.6,-39.1,39.2,-39.1H792.5v270.8Z" class="gb_108"/>
<path d="M119.5,1129.9V891.6H789.9v238.3Z" class="gc_108"/>
</svg>