<?xml version="1.0" encoding="UTF-8" standalone="no"?>
<!DOCTYPE svg PUBLIC "-//W3C//DTD SVG 1.1//EN"
"http://www.w3.org/Graphics/SVG/1.1/DTD/svg11.dtd">
<svg viewBox="0 0 1286 909" version="1.1" xmlns="http://www.w3.org/2000/svg" xmlns:xlink="http://www.w3.org/1999/xlink">
<defs>
<style type="text/css"><![CDATA[
.g0_372{
fill: none;
stroke: #000000;
stroke-width: 0.73;
stroke-linecap: butt;
stroke-linejoin: miter;
}
.g1_372{
fill: none;
stroke: #02B5EE;
stroke-width: 1.262;
stroke-linecap: butt;
stroke-linejoin: miter;
}
.g2_372{
fill: none;
stroke: #5EE200;
stroke-width: 1.262;
stroke-linecap: butt;
stroke-linejoin: miter;
}
.g3_372{
fill: #FFCCCC;
}
.g4_372{
fill: none;
stroke: #5EE200;
stroke-width: 0.73;
stroke-linecap: butt;
stroke-linejoin: miter;
}
.g5_372{
fill: none;
stroke: #02B5EE;
stroke-width: 0.73;
stroke-linecap: butt;
stroke-linejoin: miter;
}
]]></style>
</defs>
<path d="M193,83.4h900.3M193,111.6h807.1m-807.1,0h807.1M596,141.2V112m0,114.3V141.2" class="g0_372"/>
<path d="M727.7,202.3h35.6" class="g1_372"/>
<path d="M773.8,202.3H875.6" class="g2_372"/>
<path d="M896.7,190.6h92.4V157.7H896.7v32.9Z" class="g3_372"/>
<path d="M596,255.5V226.3m0,102.2v-73" class="g0_372"/>
<path d="M606.9,304.8H841.8V271.9H606.9v32.9Z" class="g3_372"/>
<path d="M847.9,314.7H949.3" class="g4_372"/>
<path d="M955.3,314.7h33.8" class="g5_372"/>
<path d="M596,357.8V328.5m0,58.5V357.8m0,59.4V387m0,115.2v-85" class="g0_372"/>
<path d="M776.7,478.2h35.6" class="g1_372"/>
<path d="M822.8,478.2h22.5" class="g2_372"/>
<path d="M855.2,459.3h6.3m-6.3,2.9h6.3m-1.9,-2.9h6.3m-6.3,2.9h6.3m-1.8,-2.9h6.3m-6.3,2.9h6.3m-1.9,-2.9h6.3m-6.3,2.9h6.3m-1.9,-2.9h6.3m-6.3,2.9h6.3m-1.9,-2.9h6.3m-6.3,2.9h6.3m-1.9,-2.9H888m-6.3,2.9H888m-1.9,-2.9h6.4m-6.4,2.9h6.4m-1.9,-2.9h6.3m-6.3,2.9h6.3M895,459.3h6.3m-6.3,2.9h6.3m-1.9,-2.9h6.3m-6.3,2.9h6.3m-1.9,-2.9h6.3m-6.3,2.9h6.3m-1.9,-2.9h6.4m-6.4,2.9h6.4m-1.9,-2.9H919m-6.3,2.9H919m-1.9,-2.9h6.3m-6.3,2.9h6.3m-1.9,-2.9h6.3m-6.3,2.9h6.3m-1.9,-2.9h6.3m-6.3,2.9h6.3m-1.9,-2.9h6.3m-6.3,2.9h6.3m-1.8,-2.9h6.3m-6.3,2.9h6.3m-1.9,-2.9h6.3m-6.3,2.9h6.3m-1.9,-2.9h6.3m-6.3,2.9h6.3M948,459.3h6.3m-6.3,2.9h6.3m-1.9,-2.9h6.3m-6.3,2.9h6.3m-1.9,-2.9h6.4m-6.4,2.9h6.4m-1.9,-2.9h6.3m-6.3,2.9h6.3m-1.9,-2.9H972m-6.3,2.9H972m-1.9,-2.9h6.3m-6.3,2.9h6.3m-1.9,-2.9h6.3m-6.3,2.9h6.3m-1.9,-2.9h6.4m-6.4,2.9h6.4m-1.9,-2.9h6.3m-6.3,2.9h6.3" class="g4_372"/>
<path d="M596,531.4V502.2m0,102.3V531.4" class="g0_372"/>
<path d="M789.2,590.6h34.4m5.7,-16.9H833m-3.7,2.9H833m-1.1,-2.9h3.6m-3.6,2.9h3.6m-1.1,-2.9h3.7m-3.7,2.9h3.7M837,573.7h3.7m-3.7,2.9h3.7m-1.1,-2.9h3.6m-3.6,2.9h3.6m-1.1,-2.9h3.7m-3.7,2.9h3.7m-1.1,-2.9h3.6m-3.6,2.9h3.6m-1.1,-2.9h3.7m-3.7,2.9h3.7m-1.1,-2.9h3.6m-3.6,2.9h3.6m-1.1,-2.9H856m-3.7,2.9H856m-1.1,-2.9h3.7m-3.7,2.9h3.7m-1.1,-2.9h3.6m-3.6,2.9h3.6M860,573.7h3.7m-3.7,2.9h3.7m-1.1,-2.9h3.6m-3.6,2.9h3.6m-1.1,-2.9h3.7m-3.7,2.9h3.7m-1.1,-2.9h3.6m-3.6,2.9h3.6m-1.1,-2.9h3.7m-3.7,2.9h3.7m-1.1,-2.9h3.7m-3.7,2.9h3.7m-1.1,-2.9H879m-3.6,2.9H879m-1.1,-2.9h3.7m-3.7,2.9h3.7m-1.1,-2.9h3.6m-3.6,2.9h3.6M883,573.7h3.7m-3.7,2.9h3.7m-1.1,-2.9h3.6m-3.6,2.9h3.6m-1.1,-2.9h3.7m-3.7,2.9h3.7m-1.1,-2.9h3.7m-3.7,2.9h3.7m-1.1,-2.9h3.6m-3.6,2.9h3.6m-1.1,-2.9h3.7m-3.7,2.9h3.7m-1.1,-2.9H902m-3.6,2.9H902m-1.1,-2.9h3.7m-3.7,2.9h3.7m-1.1,-2.9h3.6m-3.6,2.9h3.6M906,573.7h3.7m-3.7,2.9h3.7m-1.1,-2.9h3.7m-3.7,2.9h3.7m-1.1,-2.9h3.6m-3.6,2.9h3.6m-1.1,-2.9h3.7m-3.7,2.9h3.7m-1.1,-2.9h3.6m-3.6,2.9h3.6m-1.1,-2.9h3.7m-3.7,2.9h3.7m-1.1,-2.9H925m-3.6,2.9H925m-1.1,-2.9h3.7m-3.7,2.9h3.7m-1.1,-2.9h3.7m-3.7,2.9h3.7m-1.1,-2.9h3.6m-3.6,2.9h3.6" class="g4_372"/>
<path d="M938.5,590.6h50.6" class="g5_372"/>
<path d="M596,633.7V604.5M193,634.1h807.1m-807.1,0h807.1" class="g0_372"/>
</svg>