<?xml version="1.0" encoding="UTF-8" standalone="no"?>
<!DOCTYPE svg PUBLIC "-//W3C//DTD SVG 1.1//EN"
"http://www.w3.org/Graphics/SVG/1.1/DTD/svg11.dtd">
<svg viewBox="0 0 1286 909" version="1.1" xmlns="http://www.w3.org/2000/svg" xmlns:xlink="http://www.w3.org/1999/xlink">
<defs>
<style type="text/css"><![CDATA[
.g0_608{
fill: none;
stroke: #000000;
stroke-width: 0.73;
stroke-linecap: butt;
stroke-linejoin: miter;
}
.g1_608{
fill: #FFFFFF;
}
.g2_608{
fill: #E6CDEE;
}
.g3_608{
fill: none;
stroke: #8007AC;
stroke-width: 1.461;
stroke-linecap: butt;
stroke-linejoin: miter;
}
.g4_608{
fill: none;
stroke: #F81693;
stroke-width: 1.051;
stroke-linecap: butt;
stroke-linejoin: miter;
}
.g5_608{
fill: none;
stroke: #02B5EE;
stroke-width: 1.051;
stroke-linecap: butt;
stroke-linejoin: miter;
}
.g6_608{
fill: none;
stroke: #8007AC;
stroke-width: 1.154;
stroke-linecap: round;
stroke-linejoin: round;
}
.g7_608{
fill: none;
stroke: #8007AC;
stroke-width: 1.131;
stroke-linecap: round;
stroke-linejoin: round;
}
.g8_608{
fill: none;
stroke: #F81693;
stroke-width: 0.73;
stroke-linecap: butt;
stroke-linejoin: miter;
}
.g9_608{
fill: #F81693;
}
.ga_608{
fill: #FFE6E6;
}
.gb_608{
fill: none;
stroke: #F81693;
stroke-width: 1.461;
stroke-linecap: butt;
stroke-linejoin: miter;
stroke-dasharray: 2,2;
}
]]></style>
</defs>
<path d="M193,83.4h900.3M193,111.6H1393m-1200,0H1393M721.3,141.2V112m0,58.5V141.2m0,84V170.5" class="g0_608"/>
<path d="M962.2,217.4V178.3c0,-2.9,2.3,-5.2,5.2,-5.2h29.1c2.9,0,5.2,2.3,5.2,5.2v39.1c0,2.9,-2.3,5.2,-5.2,5.2H967.4c-2.9,0,-5.2,-2.3,-5.2,-5.2Z" class="g1_608"/>
<path d="M1015.6,217.4V178.3c0,-2.9,2.4,-5.2,5.2,-5.2h29.3c2.9,0,5.2,2.3,5.2,5.2v39.1c0,2.9,-2.3,5.2,-5.2,5.2h-29.3c-2.8,0,-5.2,-2.3,-5.2,-5.2Z" class="g1_608"/>
<path d="M1069.2,222.6V173.1h102.2v49.5Z" class="g2_608"/>
<path d="M1185.3,217.4V178.3c0,-2.9,2.3,-5.2,5.2,-5.2h183.7c2.9,0,5.2,2.3,5.2,5.2v39.1c0,2.9,-2.3,5.2,-5.2,5.2H1190.5c-2.9,0,-5.2,-2.3,-5.2,-5.2Z" class="g2_608"/>
<path d="M1211.3,214.4c1.4,0,2.1,-2.8,3.4,-2.8c1,0,1.9,1.4,2.8,2.8c.8,1.3,1.7,2.7,2.7,2.7c1,0,1.9,-1.4,2.8,-2.7c.8,-1.4,1.7,-2.8,2.7,-2.8c1,0,1.9,1.4,2.7,2.8c.9,1.3,1.8,2.7,2.8,2.7c1.3,0,2,-2.7,3.4,-2.7h1.9" class="g3_608"/>
<path d="M721.3,254.5V225.2m0,109.5V254.5" class="g0_608"/>
<path d="M956.1,305V265.8c0,-2.8,2.3,-5.1,5.2,-5.1h29.1c2.9,0,5.2,2.3,5.2,5.1V305c0,2.9,-2.3,5.2,-5.2,5.2H961.3c-2.9,0,-5.2,-2.3,-5.2,-5.2Z" class="g1_608"/>
<path d="M953.5,314.8H1007" class="g4_608"/>
<path d="M1009.6,305V265.8c0,-2.8,2.3,-5.1,5.2,-5.1H1044c2.9,0,5.2,2.3,5.2,5.1V305c0,2.9,-2.3,5.2,-5.2,5.2h-29.2c-2.9,0,-5.2,-2.3,-5.2,-5.2Z" class="g1_608"/>
<path d="M1007,314.8h44.8" class="g5_608"/>
<path d="M1063.2,305V265.8c0,-2.8,2.3,-5.1,5.2,-5.1H1252c2.9,0,5.2,2.3,5.2,5.1V305c0,2.9,-2.3,5.2,-5.2,5.2H1068.4c-2.9,0,-5.2,-2.3,-5.2,-5.2Z" class="g2_608"/>
<path d="M1089.1,301.9c1.4,0,2.1,-2.7,3.5,-2.7c1,0,1.8,1.4,2.7,2.7c.9,1.4,1.7,2.8,2.7,2.8c1,0,1.9,-1.4,2.8,-2.8c.9,-1.3,1.7,-2.7,2.7,-2.7c1,0,1.9,1.4,2.8,2.7c.8,1.4,1.7,2.8,2.7,2.8c1.4,0,2.1,-2.8,3.4,-2.8h1.9" class="g3_608"/>
<path d="M1271.2,310.2V260.7h102.1v49.5Z" class="g2_608"/>
<path d="M1121.6,225.4l200.7,32.7" class="g3_608"/>
<path d="M1123.8,229.7c0,-1.5,-2.3,-4,-2.9,-4.4c.7,-.1,3.6,-1.8,4.1,-3.2" class="g6_608"/>
<path d="M1281.1,225.6l-120.9,32.5" class="g3_608"/>
<path d="M1277.4,222.6c.6,1.4,3.6,2.7,4.4,2.8c-.6,.4,-2.6,3.1,-2.5,4.6" class="g7_608"/>
<path d="M721.3,364.9V334.7m0,103.3V364.9" class="g0_608"/>
<path d="M732.3,424.1h34.4" class="g8_608"/>
<path d="M792.3,422.7V374.6H929.2v48.1Z" class="g2_608"/>
<path d="M974.3,417.5V379.8c0,-2.8,2.3,-5.2,5.2,-5.2h321.1c2.8,0,5.2,2.4,5.2,5.2v37.7c0,2.9,-2.4,5.2,-5.2,5.2H979.5c-2.9,0,-5.2,-2.3,-5.2,-5.2Z" class="g2_608"/>
<path d="M721.3,467.2V438m0,58.4V467.2m0,58.4V496.4m0,70.1V525.6" class="g0_608"/>
<path d="M1105.1,558.7V533.4c0,-4.3,3.5,-7.7,7.8,-7.7h40.6c4.3,0,7.8,3.4,7.8,7.7v25.3c0,4.3,-3.5,7.8,-7.8,7.8h-40.6c-4.3,0,-7.8,-3.5,-7.8,-7.8Z" class="g9_608"/>
<path d="M1107.7,558.7V533.4c0,-2.8,2.4,-5.2,5.2,-5.2h40.6c2.9,0,5.2,2.4,5.2,5.2v25.3c0,2.8,-2.3,5.2,-5.2,5.2h-40.6c-2.8,0,-5.2,-2.4,-5.2,-5.2Z" class="ga_608"/>
<path d="M1175.5,556.2h46.6" class="gb_608"/>
<path d="M1253.2,558.7V533.4c0,-4.3,3.5,-7.7,7.8,-7.7h42.3c4.3,0,7.8,3.4,7.8,7.7v25.3c0,4.3,-3.5,7.8,-7.8,7.8H1261c-4.3,0,-7.8,-3.5,-7.8,-7.8Z" class="g9_608"/>
<path d="M1255.8,558.7V533.4c0,-2.8,2.3,-5.2,5.2,-5.2h42.3c2.9,0,5.2,2.4,5.2,5.2v25.3c0,2.8,-2.3,5.2,-5.2,5.2H1261c-2.9,0,-5.2,-2.4,-5.2,-5.2Z" class="ga_608"/>
<path d="M721.3,595.7V566.5m0,72.1V595.7" class="g0_608"/>
<path d="M1084.1,628.3h101.4" class="gb_608"/>
<path d="M1189.1,630.8V603.5c0,-4.3,3.5,-7.8,7.8,-7.8h94.9c4.3,0,7.8,3.5,7.8,7.8v27.3c0,4.3,-3.5,7.8,-7.8,7.8h-94.9c-4.3,0,-7.8,-3.5,-7.8,-7.8Z" class="g9_608"/>
<path d="M1191.7,630.8V603.5c0,-2.9,2.4,-5.2,5.2,-5.2h94.9c2.9,0,5.2,2.3,5.2,5.2v27.3c0,2.8,-2.3,5.2,-5.2,5.2h-94.9c-2.8,0,-5.2,-2.4,-5.2,-5.2Z" class="ga_608"/>
<path d="M721.3,667.8V638.6M193,668.2H1393m-1200,0H1393" class="g0_608"/>
</svg>