<?xml version="1.0" encoding="UTF-8" standalone="no"?>
<!DOCTYPE svg PUBLIC "-//W3C//DTD SVG 1.1//EN"
"http://www.w3.org/Graphics/SVG/1.1/DTD/svg11.dtd">
<svg viewBox="0 0 1286 909" version="1.1" xmlns="http://www.w3.org/2000/svg" xmlns:xlink="http://www.w3.org/1999/xlink">
<defs>
<style type="text/css"><![CDATA[
.g0_689{
fill: none;
stroke: #000000;
stroke-width: 0.73;
stroke-linecap: butt;
stroke-linejoin: miter;
}
.g1_689{
fill: #B3E9FA;
}
.g2_689{
fill: none;
stroke: #02B5EE;
stroke-width: 1.262;
stroke-linecap: butt;
stroke-linejoin: miter;
}
.g3_689{
fill: none;
stroke: #5EE200;
stroke-width: 1.262;
stroke-linecap: butt;
stroke-linejoin: miter;
}
.g4_689{
fill: none;
stroke: #5EE200;
stroke-width: 0.73;
stroke-linecap: butt;
stroke-linejoin: miter;
}
.g5_689{
fill: none;
stroke: #02B5EE;
stroke-width: 0.73;
stroke-linecap: butt;
stroke-linejoin: miter;
}
]]></style>
</defs>
<path d="M193,83.4h900.3M193,210.6H697.8m-504.8,0H697.8M430.3,240.2V211m0,58.5V240.2m0,114.3v-85" class="g0_689"/>
<path d="M515.9,311V292.5c0,-2.9,2.3,-5.2,5.2,-5.2h96.7c2.9,0,5.2,2.3,5.2,5.2V311c0,2.9,-2.3,5.2,-5.2,5.2H521.1c-2.9,0,-5.2,-2.3,-5.2,-5.2Z" class="g1_689"/>
<path d="M513.3,330.5H625.6" class="g2_689"/>
<path d="M636.1,330.5h50.7" class="g3_689"/>
<path d="M430.3,383.7V354.5m0,58.4V383.7m0,114.3V412.9" class="g0_689"/>
<path d="M505.2,474H653.9" class="g2_689"/>
<path d="M664.4,474h22.4" class="g3_689"/>
<path d="M430.3,527.2V498m0,102.2v-73" class="g0_689"/>
<path d="M441.3,586.4h34.4" class="g4_689"/>
<path d="M475.7,586.4H686.8" class="g5_689"/>
<path d="M430.3,629.5V600.2M193,629.8H697.8m-504.8,0H697.8" class="g0_689"/>
</svg>