<?xml version="1.0" encoding="UTF-8" standalone="no"?>
<!DOCTYPE svg PUBLIC "-//W3C//DTD SVG 1.1//EN"
"http://www.w3.org/Graphics/SVG/1.1/DTD/svg11.dtd">
<svg viewBox="0 0 909 1286" version="1.1" xmlns="http://www.w3.org/2000/svg" xmlns:xlink="http://www.w3.org/1999/xlink">
<defs>
<style type="text/css"><![CDATA[
.g0_27{
fill: none;
stroke: #000000;
stroke-width: 0.73;
stroke-linecap: butt;
stroke-linejoin: miter;
}
.g1_27{
fill: none;
stroke: #F81693;
stroke-width: 0.73;
stroke-linecap: butt;
stroke-linejoin: miter;
}
.g2_27{
fill: none;
stroke: #02B5EE;
stroke-width: 0.73;
stroke-linecap: butt;
stroke-linejoin: miter;
}
.g3_27{
fill: none;
stroke: #02B5EE;
stroke-width: 1.461;
stroke-linecap: butt;
stroke-linejoin: miter;
}
.g4_27{
fill: #FFFFFF;
}
.g5_27{
fill: #FDE8E9;
}
]]></style>
</defs>
<path d="M116.9,179.9H812.3M325.5,209.5V180.3m-69.4,98.4L281,293.5M249.7,349L224.5,334.1m.4,0V297.5m31.2,-18.8l-31.2,18.6M193.7,278.7l31.2,18.6M193.7,278.7l-31.3,18.6m0,-73.9L193.7,242m0,36.7V242.2m-31.3,55.3L131.2,278.9m0,-.2V242.2m31.2,-18.8L131.2,242m32.3,-11l23,13.7m-23,45.2l23,-13.7M137.2,274V246.9m116.7,31.8V253.1m4.4,25.6V253.1m67.2,111.3V209.5" class="g0_27"/>
<path d="M511.3,282.5l18.3,11" class="g1_27"/>
<path d="M498.6,349L480.3,338.1" class="g2_27"/>
<path d="M473.7,326.7v-20m24.9,-24.2l-18.3,11M442.5,278.7l24.8,14.8M442.5,278.7l-31.3,18.6m0,-73.9L442.5,242m0,36.7V242.2m-31.3,55.3L380,278.9m0,-.2V242.2m31.2,-18.8L380,242m32.3,-11l23.1,13.7m-23.1,45.2l23.1,-13.7M386,274V246.9m116.8,26.3V253.1m4.3,20.1V253.1" class="g1_27"/>
<path d="M325.5,393.6V364.4m0,58.4V393.6m0,58.4V422.8m0,58.5V452m0,58.5V481.3m0,58.4V510.5" class="g0_27"/>
<path d="M353.7,538.3c1.4,0,2.1,-2.8,3.5,-2.8c1,0,1.8,1.4,2.7,2.8c.9,1.4,1.8,2.7,2.8,2.7c.9,0,1.8,-1.3,2.7,-2.7c.9,-1.4,1.7,-2.8,2.7,-2.8c1.4,0,2.1,2.8,3.5,2.8h3.8" class="g3_27"/>
<path d="M325.5,568.9V539.7m0,105.8V568.9" class="g0_27"/>
<path d="M403.1,637.7v-61c0,-2.8,2.4,-5.2,5.2,-5.2H577.6c2.9,0,5.2,2.4,5.2,5.2v61c0,2.8,-2.3,5.2,-5.2,5.2H408.3c-2.8,0,-5.2,-2.4,-5.2,-5.2Z" class="g4_27"/>
<path d="M463.2,668.3h59.6V651.9H463.2v16.4Z" class="g5_27"/>
<path d="M429.1,627.3H556.8V587.1H429.1v40.2Z" class="g5_27"/>
<path d="M325.5,674.7V645.5M116.9,675.1H812.3" class="g0_27"/>
</svg>