<?xml version="1.0" encoding="UTF-8" standalone="no"?>
<!DOCTYPE svg PUBLIC "-//W3C//DTD SVG 1.1//EN"
"http://www.w3.org/Graphics/SVG/1.1/DTD/svg11.dtd">
<svg viewBox="0 0 1286 909" version="1.1" xmlns="http://www.w3.org/2000/svg" xmlns:xlink="http://www.w3.org/1999/xlink">
<defs>
<style type="text/css"><![CDATA[
.g0_956{
fill: none;
stroke: #000000;
stroke-width: 0.73;
stroke-linecap: butt;
stroke-linejoin: miter;
}
.g1_956{
fill: none;
stroke: #02B5EE;
stroke-width: 1.262;
stroke-linecap: butt;
stroke-linejoin: miter;
}
.g2_956{
fill: none;
stroke: #5EE200;
stroke-width: 1.262;
stroke-linecap: butt;
stroke-linejoin: miter;
}
.g3_956{
fill: none;
stroke: #5EE200;
stroke-width: 0.73;
stroke-linecap: butt;
stroke-linejoin: miter;
}
.g4_956{
fill: none;
stroke: #02B5EE;
stroke-width: 0.73;
stroke-linecap: butt;
stroke-linejoin: miter;
}
.g5_956{
fill: #B3E9FA;
}
]]></style>
</defs>
<path d="M193,83.4h900.3M193,210.6h915.4m-915.4,0h915.4M676.8,240.2V211m0,58.5V240.2m0,114.3v-85" class="g0_956"/>
<path d="M836,330.5h97.8" class="g1_956"/>
<path d="M944.3,330.5h22.4" class="g2_956"/>
<path d="M676.8,383.7V354.5m0,102.3V383.7" class="g0_956"/>
<path d="M911,442.9h34.4" class="g3_956"/>
<path d="M945.4,442.9h152" class="g4_956"/>
<path d="M676.8,486V456.8m0,58.4V486m0,114.2v-85" class="g0_956"/>
<path d="M835.9,550.5v-5c0,-2.9,2.3,-5.2,5.2,-5.2H942.2c2.8,0,5.2,2.3,5.2,5.2v5c0,2.8,-2.4,5.1,-5.2,5.1H841.1c-2.9,0,-5.2,-2.3,-5.2,-5.1Z" class="g5_956"/>
<path d="M833.3,576.2H949.9" class="g1_956"/>
<path d="M960.5,576.2h136.9" class="g2_956"/>
<path d="M676.8,629.5V600.2m0,58.5V629.5m0,58.4V658.7M193,688.3h915.4m-915.4,0h915.4" class="g0_956"/>
</svg>