<?xml version="1.0" encoding="UTF-8" standalone="no"?>
<!DOCTYPE svg PUBLIC "-//W3C//DTD SVG 1.1//EN"
"http://www.w3.org/Graphics/SVG/1.1/DTD/svg11.dtd">
<svg viewBox="0 0 909 1286" version="1.1" xmlns="http://www.w3.org/2000/svg" xmlns:xlink="http://www.w3.org/1999/xlink">
<defs>
<style type="text/css"><![CDATA[
.g0_23{
fill: #FDE8E9;
}
.g1_23{
fill: none;
stroke: #000000;
stroke-width: 0.73;
stroke-linecap: butt;
stroke-linejoin: miter;
}
.g2_23{
fill: none;
stroke: #02B5EE;
stroke-width: 0.73;
stroke-linecap: butt;
stroke-linejoin: miter;
}
.g3_23{
fill: none;
stroke: #F81693;
stroke-width: 0.73;
stroke-linecap: butt;
stroke-linejoin: miter;
}
.g4_23{
fill: none;
stroke: #F81693;
stroke-width: 1.461;
stroke-linecap: butt;
stroke-linejoin: miter;
}
.g5_23{
fill: #FFFFFF;
}
.g6_23{
fill: none;
stroke: #8007AC;
stroke-width: 0.73;
stroke-linecap: butt;
stroke-linejoin: miter;
}
.g7_23{
fill: none;
stroke: #8007AC;
stroke-width: 1.461;
stroke-linecap: butt;
stroke-linejoin: miter;
}
]]></style>
</defs>
<path d="M165.8,241.8H298.4V210.6H165.8v31.2Z" class="g0_23"/>
<path d="M116.9,258.6H693.4M325.5,288.2V259m-84.9,84l-24.8,14.8M184.5,339.1l31.3,18.7M184.5,339.1l-24.8,14.8m22.6,-14.8V313.6m4.4,25.5V313.6M325.5,370V288.2" class="g1_23"/>
<path d="M489.4,343l-24.8,14.8" class="g2_23"/>
<path d="M433.3,339.1l31.3,18.7M433.3,339.1l-24.8,14.8m22.6,-14.8V313.6m4.4,25.5V313.6" class="g3_23"/>
<path d="M325.5,399.2V370m0,58.5V399.2" class="g1_23"/>
<path d="M453.4,427c1.4,0,2.1,-2.7,3.4,-2.7c1,0,1.9,1.3,2.8,2.7c.9,1.4,1.7,2.7,2.7,2.7c1,0,1.9,-1.3,2.7,-2.7c.9,-1.4,1.8,-2.7,2.8,-2.7c1,0,1.8,1.3,2.7,2.7c.9,1.4,1.8,2.7,2.8,2.7c1,0,1.8,-1.3,2.7,-2.7c.9,-1.4,1.8,-2.7,2.7,-2.7c1,0,1.9,1.3,2.8,2.7c.9,1.4,1.7,2.7,2.7,2.7c1,0,1.9,-1.3,2.8,-2.7c.9,-1.4,1.7,-2.7,2.7,-2.7c1,0,1.9,1.3,2.7,2.7c.9,1.4,1.8,2.7,2.8,2.7c1,0,1.8,-1.3,2.7,-2.7c.9,-1.4,1.8,-2.7,2.8,-2.7c1,0,1.8,1.3,2.7,2.7c.9,1.4,1.8,2.7,2.7,2.7c1,0,1.9,-1.3,2.8,-2.7c.9,-1.4,1.7,-2.7,2.7,-2.7c1,0,1.9,1.3,2.8,2.7c.9,1.4,1.7,2.7,2.7,2.7c1,0,1.8,-1.3,2.7,-2.7c.9,-1.4,1.8,-2.7,2.8,-2.7c1,0,1.8,1.3,2.7,2.7c.9,1.4,1.8,2.7,2.8,2.7c1,0,1.8,-1.3,2.7,-2.7c.9,-1.4,1.7,-2.7,2.7,-2.7c1,0,1.9,1.3,2.8,2.7c.9,1.4,1.7,2.7,2.7,2.7c1,0,1.9,-1.3,2.8,-2.7c.9,-1.4,1.7,-2.7,2.7,-2.7c1,0,1.8,1.3,2.7,2.7c.9,1.4,1.8,2.7,2.8,2.7c1,0,1.8,-1.3,2.7,-2.7c.9,-1.4,1.8,-2.7,2.8,-2.7c.9,0,1.8,1.3,2.7,2.7c.9,1.4,1.7,2.7,2.7,2.7c1,0,1.9,-1.3,2.8,-2.7c.9,-1.4,1.7,-2.7,2.7,-2.7c1,0,1.9,1.3,2.8,2.7c.8,1.4,1.7,2.7,2.7,2.7c1.4,0,2.1,-2.7,3.4,-2.7h3.6" class="g4_23"/>
<path d="M325.5,457.7V428.5m0,105.7V457.7" class="g1_23"/>
<path d="M403.1,526.4V465.5c0,-2.9,2.4,-5.2,5.2,-5.2H636c2.8,0,5.2,2.3,5.2,5.2v60.9c0,2.9,-2.4,5.2,-5.2,5.2H408.3c-2.8,0,-5.2,-2.3,-5.2,-5.2Z" class="g5_23"/>
<path d="M488,557.1h68.3V540.7H488v16.4Z" class="g0_23"/>
<path d="M429.1,516H615.2V475.9H429.1V516Z" class="g0_23"/>
<path d="M325.5,563.4V534.2M116.9,563.8H693.4M325.5,593.4V564.2M228.4,676.1l18.2,-18.2m-18.2,35.4l18.2,18.3M211.9,693.3l-18.2,18.3M162.4,692.8l31.3,18.6m0,36.7V711.6m-31.3,55.3l31.3,-18.6m-31.3,18.6L131.2,748.3m0,-.2V711.6m31.2,-18.8l-31.2,18.6m32.3,-11l23,13.7m-23,45.1l23,-13.7m-49.3,-2.1V716.3m74.7,-40.2L193.7,657.9M162.4,602.5l31.3,18.7m0,36.7V621.3m-31.3,55.4l31.3,-18.6m-31.3,18.6L131.2,658.1m0,-.2V621.3m31.2,-18.8l-31.2,18.7m32.3,-11l23,13.7m-23,45.1l23,-13.7m-49.3,-2.2v-27M325.5,775.7V593.4" class="g1_23"/>
<path d="M477.2,676.1l18.2,-18.2" class="g2_23"/>
<path d="M477.2,693.3l18.2,18.3" class="g3_23"/>
<path d="M460.7,693.3l-18.2,18.3M411.2,692.8l31.3,18.6m0,36.7V711.6m-31.3,55.3l31.3,-18.6m-31.3,18.6L380,748.3m0,-.2V711.6m31.2,-18.8L380,711.4m32.3,-11l23.1,13.7m-23.1,45.1l23.1,-13.7M386,743.4V716.3m74.7,-40.2L442.5,657.9M411.2,602.5l31.3,18.7m0,36.7V621.3m-31.3,55.4l31.3,-18.6m-31.3,18.6L380,658.1m0,-.2V621.3m31.2,-18.8L380,621.2m32.3,-11l23.1,13.7M412.3,669l23.1,-13.7M386,653.1v-27" class="g6_23"/>
<path d="M325.5,804.9V775.7m0,58.4V804.9" class="g1_23"/>
<path d="M353.7,832.7c1.4,0,2.1,-2.8,3.5,-2.8c1,0,1.8,1.4,2.7,2.8c.9,1.4,1.8,2.7,2.8,2.7c.9,0,1.8,-1.3,2.7,-2.7c.9,-1.4,1.7,-2.8,2.7,-2.8c1.4,0,2.1,2.8,3.5,2.8h4.1" class="g7_23"/>
<path d="M557,832.7c1.3,0,2,-2.8,3.4,-2.8c1,0,1.8,1.4,2.7,2.8c.9,1.4,1.8,2.7,2.8,2.7c.9,0,1.8,-1.3,2.7,-2.7c.9,-1.4,1.7,-2.8,2.7,-2.8c1,0,1.9,1.4,2.8,2.8c.9,1.4,1.7,2.7,2.7,2.7c1,0,1.9,-1.3,2.8,-2.7c.8,-1.4,1.7,-2.8,2.7,-2.8c1,0,1.8,1.4,2.7,2.8c.9,1.4,1.8,2.7,2.8,2.7c1,0,1.8,-1.3,2.7,-2.7c.9,-1.4,1.8,-2.8,2.8,-2.8c.9,0,1.8,1.4,2.7,2.8c.9,1.4,1.7,2.7,2.7,2.7c1,0,1.9,-1.3,2.8,-2.7c.9,-1.4,1.7,-2.8,2.7,-2.8c1,0,1.9,1.4,2.8,2.8c.8,1.4,1.7,2.7,2.7,2.7c1,0,1.8,-1.3,2.7,-2.7c.9,-1.4,1.8,-2.8,2.8,-2.8c1,0,1.8,1.4,2.7,2.8c.9,1.4,1.8,2.7,2.7,2.7c1,0,1.9,-1.3,2.8,-2.7c.9,-1.4,1.7,-2.8,2.7,-2.8c1,0,1.9,1.4,2.8,2.8c.9,1.4,1.7,2.7,2.7,2.7c1,0,1.9,-1.3,2.7,-2.7c.9,-1.4,1.8,-2.8,2.8,-2.8c1,0,1.8,1.4,2.7,2.8c.9,1.4,1.8,2.7,2.8,2.7c1,0,1.8,-1.3,2.7,-2.7c.9,-1.4,1.8,-2.8,2.7,-2.8c1,0,1.9,1.4,2.8,2.8c.9,1.4,1.7,2.7,2.7,2.7c1,0,1.9,-1.3,2.8,-2.7c.9,-1.4,1.7,-2.8,2.7,-2.8c1,0,1.9,1.4,2.7,2.8c.9,1.4,1.8,2.7,2.8,2.7c1,0,1.8,-1.3,2.7,-2.7c.9,-1.4,1.8,-2.8,2.8,-2.8c1,0,1.8,1.4,2.7,2.8c.9,1.4,1.8,2.7,2.7,2.7c1.4,0,2.1,-2.7,3.5,-2.7h3.6" class="g4_23"/>
<path d="M325.5,863.4V834.1m0,105.8V863.4" class="g1_23"/>
<path d="M403.1,932.1v-61c0,-2.8,2.4,-5.1,5.2,-5.1H606.8c2.9,0,5.2,2.3,5.2,5.1v61c0,2.8,-2.3,5.2,-5.2,5.2H408.3c-2.8,0,-5.2,-2.4,-5.2,-5.2Z" class="g5_23"/>
<path d="M473.4,960.6h68.3V946.3H473.4v14.3Z" class="g0_23"/>
<path d="M429.1,921.7H586V881.5H429.1v40.2Z" class="g0_23"/>
<path d="M325.5,969.1V939.9M116.9,969.5H693.4" class="g1_23"/>
</svg>