<?xml version="1.0" encoding="UTF-8" standalone="no"?>
<!DOCTYPE svg PUBLIC "-//W3C//DTD SVG 1.1//EN"
"http://www.w3.org/Graphics/SVG/1.1/DTD/svg11.dtd">
<svg viewBox="0 0 1286 909" version="1.1" xmlns="http://www.w3.org/2000/svg" xmlns:xlink="http://www.w3.org/1999/xlink">
<defs>
<style type="text/css"><![CDATA[
.g0_1128{
fill: none;
stroke: #000000;
stroke-width: 0.73;
stroke-linecap: butt;
stroke-linejoin: miter;
}
.g1_1128{
fill: #B3E9FA;
}
.g2_1128{
fill: none;
stroke: #02B5EE;
stroke-width: 1.461;
stroke-linecap: butt;
stroke-linejoin: miter;
stroke-dasharray: 2,2;
}
.g3_1128{
fill: none;
stroke: #02B5EE;
stroke-width: 0.73;
stroke-linecap: butt;
stroke-linejoin: miter;
}
]]></style>
</defs>
<path d="M193,83.4h900.3M193,111.6h845.4m-845.4,0h845.4M476.6,141.2V112m0,102.3V141.2" class="g0_1128"/>
<path d="M642.2,178.5v-7c0,-2.9,2.3,-5.2,5.2,-5.2H923.7c2.9,0,5.2,2.3,5.2,5.2v7c0,2.9,-2.3,5.2,-5.2,5.2H647.4c-2.9,0,-5.2,-2.3,-5.2,-5.2Z" class="g1_1128"/>
<path d="M941.2,186.2h82.6" class="g2_1128"/>
<path d="M639.6,200.4h387.9" class="g3_1128"/>
<path d="M476.6,243.5V214.3M193,243.9h845.4m-845.4,0h845.4" class="g0_1128"/>
</svg>