<?xml version="1.0" encoding="UTF-8" standalone="no"?>
<!DOCTYPE svg PUBLIC "-//W3C//DTD SVG 1.1//EN"
"http://www.w3.org/Graphics/SVG/1.1/DTD/svg11.dtd">
<svg viewBox="0 0 1286 909" version="1.1" xmlns="http://www.w3.org/2000/svg" xmlns:xlink="http://www.w3.org/1999/xlink">
<defs>
<style type="text/css"><![CDATA[
.g0_75{
fill: none;
stroke: #000000;
stroke-width: 0.73;
stroke-linecap: butt;
stroke-linejoin: miter;
}
.g1_75{
fill: #B3E9FA;
}
.g2_75{
fill: none;
stroke: #02B5EE;
stroke-width: 1.262;
stroke-linecap: butt;
stroke-linejoin: miter;
}
.g3_75{
fill: none;
stroke: #5EE200;
stroke-width: 1.262;
stroke-linecap: butt;
stroke-linejoin: miter;
}
.g4_75{
fill: none;
stroke: #5EE200;
stroke-width: 0.73;
stroke-linecap: butt;
stroke-linejoin: miter;
}
.g5_75{
fill: none;
stroke: #02B5EE;
stroke-width: 0.73;
stroke-linecap: butt;
stroke-linejoin: miter;
}
]]></style>
</defs>
<path d="M193,83.4h900.3M193,111.6h832.7m-832.7,0h832.7M614.9,141.2V112m0,114.3V141.2" class="g0_75"/>
<path d="M649.2,176.5V164.3c0,-2.9,2.3,-5.2,5.2,-5.2H767.8c2.9,0,5.2,2.3,5.2,5.2v12.2c0,2.9,-2.3,5.2,-5.2,5.2H654.4c-2.9,0,-5.2,-2.3,-5.2,-5.2Z" class="g1_75"/>
<path d="M646.6,202.3h129" class="g2_75"/>
<path d="M786.1,202.3h228.6" class="g3_75"/>
<path d="M614.9,255.5V226.3m0,58.4V255.5m0,114.2v-85" class="g0_75"/>
<path d="M758.5,320V307.8c0,-2.9,2.3,-5.2,5.2,-5.2h74c2.9,0,5.2,2.3,5.2,5.2V320c0,2.8,-2.3,5.2,-5.2,5.2h-74c-2.9,0,-5.2,-2.4,-5.2,-5.2Z" class="g1_75"/>
<path d="M755.9,345.7h89.6" class="g2_75"/>
<path d="M856,345.7h158.7" class="g3_75"/>
<path d="M614.9,399V369.7m0,58.5V399m0,114.2v-85" class="g0_75"/>
<path d="M836.8,489.2H981.7" class="g2_75"/>
<path d="M992.3,489.2h22.4" class="g3_75"/>
<path d="M614.9,543.4V513.2m0,103.2v-73" class="g0_75"/>
<path d="M828.3,602.6h34.4" class="g4_75"/>
<path d="M862.7,602.6h152" class="g5_75"/>
<path d="M614.9,645.7V616.4M193,646h832.7M193,646h832.7" class="g0_75"/>
</svg>