<?xml version="1.0" encoding="UTF-8" standalone="no"?>
<!DOCTYPE svg PUBLIC "-//W3C//DTD SVG 1.1//EN"
"http://www.w3.org/Graphics/SVG/1.1/DTD/svg11.dtd">
<svg viewBox="0 0 909 1286" version="1.1" xmlns="http://www.w3.org/2000/svg" xmlns:xlink="http://www.w3.org/1999/xlink">
<defs>
<style type="text/css"><![CDATA[
.g0_138{
fill: none;
stroke: #000000;
stroke-width: 0.73;
stroke-linecap: butt;
stroke-linejoin: miter;
}
.g1_138{
fill: #7F7F7F;
fill-opacity: 0.01;
}
.g2_138{
fill: #7F7F7F;
fill-opacity: 0.02;
}
.g3_138{
fill: #7F7F7F;
fill-opacity: 0.04;
}
.g4_138{
fill: #7F7F7F;
fill-opacity: 0.07;
}
.g5_138{
fill: #7F7F7F;
fill-opacity: 0.11;
}
.g6_138{
fill: #FFFFFF;
}
.g7_138{
fill: #CBCEFB;
}
.g8_138{
fill: #E81A58;
}
.g9_138{
fill: #401A1A;
}
]]></style>
</defs>
<path d="M116.9,159.9H792.5" class="g0_138"/>
<path d="M122.2,184.8c221.7,0,443.4,0,665,0V556.4c-221.6,-9.3,-443.3,-9.3,-665,0Z" class="g1_138"/>
<path d="M122.9,185.4c221.2,0,442.4,0,663.7,0V555.8c-221.3,-9.4,-442.5,-9.4,-663.7,0Z" class="g2_138"/>
<path d="M123.5,186.1c220.8,0,441.6,0,662.5,0V555.2c-220.9,-9.4,-441.7,-9.4,-662.5,0Z" class="g3_138"/>
<path d="M124.1,186.7c220.4,0,440.8,0,661.2,0V554.6c-220.4,-9.4,-440.8,-9.4,-661.2,0Z" class="g4_138"/>
<path d="M124.7,187.3c220,0,440,0,660,0V553.9c-220,-9.3,-440,-9.3,-660,0Z" class="g5_138"/>
<path d="M125.4,187.9c219.5,0,439.1,0,658.7,0V553.3c-219.6,-9.4,-439.2,-9.4,-658.7,0Z" class="g5_138"/>
<path d="M126,188.6c219.1,0,438.3,0,657.5,0V552.7c-219.2,-9.4,-438.4,-9.4,-657.5,0Z" class="g4_138"/>
<path d="M126.6,189.2c218.8,0,437.5,0,656.3,0V552.1c-218.8,-9.4,-437.5,-9.4,-656.3,0Z" class="g3_138"/>
<path d="M127.2,189.8c218.4,0,436.7,0,655,0V551.4c-218.3,-9.3,-436.6,-9.3,-655,0Z" class="g2_138"/>
<path d="M127.9,190.4c217.9,0,435.8,0,653.7,0V550.8c-217.9,-9.3,-435.8,-9.3,-653.7,0Z" class="g1_138"/>
<path d="M116.9,546.1V179.5H792.5V546.1Z" class="g6_138"/>
<path d="M119.5,543.5V182.1H789.9V543.5Z" class="g6_138"/>
<path d="M419.1,198.1h71.3m-71,29.6V198.4" class="g0_138"/>
<path d="M419.8,227.7h69.8V198.4H419.8v29.3Z" class="g7_138"/>
<path d="M490,227.7V198.4M419.1,228h71.3m-71,29.6V228.4M490,257.6V228.4M419.1,258h71.3m-71,29.6V258.4M490,287.6V258.4m-70.9,29.5h71.3m-71,29.6V288.3M490,317.5V288.3m-70.9,29.6h71.3m-71,29.6V318.3M490,347.5V318.3m-70.9,29.5h71.3m-71,29.6V348.2M490,377.4V348.2m-70.9,29.6h71.3m-71,29.6V378.2M490,407.4V378.2m-70.9,29.6h71.3m-71,29.5V408.1M490,437.3V408.1m-70.9,29.6h71.3m-71,29.6V438.1M490,467.3V438.1m-70.9,29.6h71.3m-71,29.6V468M490,497.3V468m-70.9,29.6h71.3m-71,29.6V498M490,527.2V498m-70.9,29.6h71.3" class="g0_138"/>
<path d="M116.9,933.9V731.4c0,-21.6,17.6,-39.2,39.2,-39.2H792.5V894.7c0,21.6,-17.5,39.2,-39.1,39.2Z" class="g8_138"/>
<path d="M119.5,931.3V724.7H789.9v170c0,20.2,-16.3,36.6,-36.5,36.6Z" class="g9_138"/>
<path d="M116.9,1117v-85.6c0,-21.6,17.6,-39.1,39.2,-39.1H792.5V1117Z" class="g8_138"/>
<path d="M119.5,1117v-92.2H789.9V1117Z" class="g9_138"/>
</svg>