<?xml version="1.0" encoding="UTF-8" standalone="no"?>
<!DOCTYPE svg PUBLIC "-//W3C//DTD SVG 1.1//EN"
"http://www.w3.org/Graphics/SVG/1.1/DTD/svg11.dtd">
<svg viewBox="0 0 1286 909" version="1.1" xmlns="http://www.w3.org/2000/svg" xmlns:xlink="http://www.w3.org/1999/xlink">
<defs>
<style type="text/css"><![CDATA[
.g0_1095{
fill: none;
stroke: #000000;
stroke-width: 0.73;
stroke-linecap: butt;
stroke-linejoin: miter;
}
.g1_1095{
fill: #FFCCCC;
}
.g2_1095{
fill: none;
stroke: #02B5EE;
stroke-width: 1.262;
stroke-linecap: butt;
stroke-linejoin: miter;
}
.g3_1095{
fill: none;
stroke: #02B5EE;
stroke-width: 0.73;
stroke-linecap: butt;
stroke-linejoin: miter;
}
.g4_1095{
fill: #E6CEEE;
}
]]></style>
</defs>
<path d="M193,83.4h900.3M193,210.6H864.2m-671.2,0H864.2M476.7,240.2V211m0,58.5V240.2m0,114.3v-85" class="g0_1095"/>
<path d="M498.2,318.8h59.5V285.9H498.2v32.9Z" class="g1_1095"/>
<path d="M568.2,330.5H723.9" class="g2_1095"/>
<path d="M476.7,383.7V354.5m0,102.3V383.7" class="g0_1095"/>
<path d="M689,442.9h67.5" class="g3_1095"/>
<path d="M762.6,433h90.7V400.1H762.6V433Z" class="g1_1095"/>
<path d="M476.7,486V456.8m0,58.4V486m0,64V515.2" class="g0_1095"/>
<path d="M490.5,550H695.2V517.1H490.5V550Z" class="g4_1095"/>
<path d="M476.7,579.2V550m0,62.1V579.2" class="g0_1095"/>
<path d="M774.8,612.1h78.5V579.2H774.8v32.9Z" class="g4_1095"/>
<path d="M476.7,641.3V612.1m0,58.5V641.3m0,64.1V670.6" class="g0_1095"/>
<path d="M570,705.4H723.9V672.5H570v32.9Z" class="g4_1095"/>
<path d="M476.7,734.6V705.4M193,735H864.2M193,735H864.2" class="g0_1095"/>
</svg>