<?xml version="1.0" encoding="UTF-8" standalone="no"?>
<!DOCTYPE svg PUBLIC "-//W3C//DTD SVG 1.1//EN"
"http://www.w3.org/Graphics/SVG/1.1/DTD/svg11.dtd">
<svg viewBox="0 0 1286 909" version="1.1" xmlns="http://www.w3.org/2000/svg" xmlns:xlink="http://www.w3.org/1999/xlink">
<defs>
<style type="text/css"><![CDATA[
.g0_463{
fill: none;
stroke: #000000;
stroke-width: 0.73;
stroke-linecap: butt;
stroke-linejoin: miter;
}
.g1_463{
fill: none;
stroke: #02B5EE;
stroke-width: 1.262;
stroke-linecap: butt;
stroke-linejoin: miter;
}
.g2_463{
fill: none;
stroke: #02B5EE;
stroke-width: 0.73;
stroke-linecap: butt;
stroke-linejoin: miter;
}
.g3_463{
fill: none;
stroke: #FFA313;
stroke-width: 1.262;
stroke-linecap: butt;
stroke-linejoin: miter;
}
.g4_463{
fill: none;
stroke: #FFA313;
stroke-width: 0.73;
stroke-linecap: butt;
stroke-linejoin: miter;
}
]]></style>
</defs>
<path d="M193,83.4h900.3M193,210.6H772.3m-579.3,0H772.3M478.9,240.2V211m0,58.5V240.2m0,114.3v-85" class="g0_463"/>
<path d="M553.8,330.5h61.9" class="g1_463"/>
<path d="M478.9,383.7V354.5m0,102.3V383.7" class="g0_463"/>
<path d="M693.8,442.9h67.5" class="g2_463"/>
<path d="M478.9,486V456.8m0,58.4V486m0,114.2v-85" class="g0_463"/>
<path d="M489.9,576.2h34.6" class="g1_463"/>
<path d="M535,576.2h80.7" class="g3_463"/>
<path d="M478.9,629.5V600.2m0,102.3v-73" class="g0_463"/>
<path d="M676.9,688.6h50.7" class="g4_463"/>
<path d="M727.6,688.6h33.7" class="g2_463"/>
<path d="M478.9,731.7V702.5m0,58.5V731.7M193,761.3H772.3m-579.3,0H772.3" class="g0_463"/>
</svg>