<?xml version="1.0" encoding="UTF-8" standalone="no"?>
<!DOCTYPE svg PUBLIC "-//W3C//DTD SVG 1.1//EN"
"http://www.w3.org/Graphics/SVG/1.1/DTD/svg11.dtd">
<svg viewBox="0 0 1286 909" version="1.1" xmlns="http://www.w3.org/2000/svg" xmlns:xlink="http://www.w3.org/1999/xlink">
<defs>
<style type="text/css"><![CDATA[
.g0_1035{
fill: none;
stroke: #000000;
stroke-width: 0.73;
stroke-linecap: butt;
stroke-linejoin: miter;
}
.g1_1035{
fill: none;
stroke: #F81693;
stroke-width: 1.262;
stroke-linecap: butt;
stroke-linejoin: miter;
}
.g2_1035{
fill: none;
stroke: #02B5EE;
stroke-width: 1.262;
stroke-linecap: butt;
stroke-linejoin: miter;
}
.g3_1035{
fill: none;
stroke: #FFA313;
stroke-width: 1.262;
stroke-linecap: butt;
stroke-linejoin: miter;
}
.g4_1035{
fill: #C6EAFA;
}
.g5_1035{
fill: #FFCCCC;
}
]]></style>
</defs>
<path d="M193,83.4h900.3M193,111.6h895.7m-895.7,0h895.7M518.1,141.2V112m0,58.5V141.2m0,116.1V170.5" class="g0_1035"/>
<path d="M888,231.5h20.7" class="g1_1035"/>
<path d="M924.2,231.5h22.6" class="g2_1035"/>
<path d="M957.3,231.5h22.5" class="g3_1035"/>
<path d="M990.3,231.5h87.4" class="g1_1035"/>
<path d="M518.1,286.5V257.3m0,58.5V286.5m0,78.4V315.8" class="g0_1035"/>
<path d="M627.7,357.1V323.6c0,-2.9,2.3,-5.2,5.2,-5.2h317c2.9,0,5.2,2.3,5.2,5.2v33.5c0,2.9,-2.3,5.2,-5.2,5.2h-317c-2.9,0,-5.2,-2.3,-5.2,-5.2Z" class="g4_1035"/>
<path d="M966.4,357.1V323.6c0,-2.9,2.3,-5.2,5.2,-5.2h98.3c2.9,0,5.2,2.3,5.2,5.2v33.5c0,2.9,-2.3,5.2,-5.2,5.2H971.6c-2.9,0,-5.2,-2.3,-5.2,-5.2Z" class="g5_1035"/>
<path d="M518.1,394.1V364.9m0,58.5V394.1m0,78.4V423.4" class="g0_1035"/>
<path d="M587.1,464.7V431.2c0,-2.9,2.3,-5.2,5.2,-5.2H693.9c2.9,0,5.2,2.3,5.2,5.2v33.5c0,2.9,-2.3,5.2,-5.2,5.2H592.3c-2.9,0,-5.2,-2.3,-5.2,-5.2Z" class="g5_1035"/>
<path d="M747.7,464.7V431.2c0,-2.9,2.3,-5.2,5.2,-5.2h317c2.9,0,5.2,2.3,5.2,5.2v33.5c0,2.9,-2.3,5.2,-5.2,5.2h-317c-2.9,0,-5.2,-2.3,-5.2,-5.2Z" class="g4_1035"/>
<path d="M518.1,501.8V472.5m0,58.5V501.8m0,116V531" class="g0_1035"/>
<path d="M880.6,592h20.7" class="g1_1035"/>
<path d="M916.8,592h22.6" class="g2_1035"/>
<path d="M949.9,592h22.5" class="g3_1035"/>
<path d="M982.9,592h94.8" class="g1_1035"/>
<path d="M518.1,647.1V617.8m0,58.5V647.1M193,676.6h895.7m-895.7,0h895.7" class="g0_1035"/>
</svg>