<?xml version="1.0" encoding="UTF-8" standalone="no"?>
<!DOCTYPE svg PUBLIC "-//W3C//DTD SVG 1.1//EN"
"http://www.w3.org/Graphics/SVG/1.1/DTD/svg11.dtd">
<svg viewBox="0 0 1286 909" version="1.1" xmlns="http://www.w3.org/2000/svg" xmlns:xlink="http://www.w3.org/1999/xlink">
<defs>
<style type="text/css"><![CDATA[
.g0_1073{
fill: none;
stroke: #000000;
stroke-width: 0.73;
stroke-linecap: butt;
stroke-linejoin: miter;
}
.g1_1073{
fill: #FFCCCC;
}
.g2_1073{
fill: none;
stroke: #F81693;
stroke-width: 1.262;
stroke-linecap: butt;
stroke-linejoin: miter;
}
.g3_1073{
fill: none;
stroke: #02B5EE;
stroke-width: 1.262;
stroke-linecap: butt;
stroke-linejoin: miter;
}
.g4_1073{
fill: none;
stroke: #02B5EE;
stroke-width: 0.73;
stroke-linecap: butt;
stroke-linejoin: miter;
}
.g5_1073{
fill: none;
stroke: #F81693;
stroke-width: 0.73;
stroke-linecap: butt;
stroke-linejoin: miter;
}
]]></style>
</defs>
<path d="M193,83.4h900.3M193,210.6H812.1m-619.1,0H812.1M501,240.2V211m0,58.5V240.2M501,369V269.5" class="g0_1073"/>
<path d="M580.7,320V277.2c0,-2.9,2.3,-5.2,5.2,-5.2H752.7c2.9,0,5.2,2.3,5.2,5.2V320c0,2.9,-2.3,5.2,-5.2,5.2H585.9c-2.9,0,-5.2,-2.3,-5.2,-5.2Z" class="g1_1073"/>
<path d="M578.1,330.5H771" class="g2_1073"/>
<path d="M781.5,330.5h19.7" class="g3_1073"/>
<path d="M501,398.2V369m0,111.2v-82" class="g0_1073"/>
<path d="M644,457.4h49.8" class="g4_1073"/>
<path d="M699.9,457.4H801.2" class="g5_1073"/>
<path d="M501,509.4V480.2m0,58.4V509.4m0,128.8V538.6" class="g0_1073"/>
<path d="M573.8,589.2V546.3c0,-2.8,2.3,-5.2,5.2,-5.2H752.7c2.9,0,5.2,2.4,5.2,5.2v42.9c0,2.9,-2.3,5.2,-5.2,5.2H579c-2.9,0,-5.2,-2.3,-5.2,-5.2Z" class="g1_1073"/>
<path d="M571.2,599.7H771" class="g2_1073"/>
<path d="M781.5,599.7h19.7" class="g3_1073"/>
<path d="M501,667.4V638.2m0,58.4V667.4M193,697H812.1M193,697H812.1" class="g0_1073"/>
</svg>