<?xml version="1.0" encoding="UTF-8" standalone="no"?>
<!DOCTYPE svg PUBLIC "-//W3C//DTD SVG 1.1//EN"
"http://www.w3.org/Graphics/SVG/1.1/DTD/svg11.dtd">
<svg viewBox="0 0 1286 909" version="1.1" xmlns="http://www.w3.org/2000/svg" xmlns:xlink="http://www.w3.org/1999/xlink">
<defs>
<style type="text/css"><![CDATA[
.g0_914{
fill: none;
stroke: #000000;
stroke-width: 0.73;
stroke-linecap: butt;
stroke-linejoin: miter;
}
.g1_914{
fill: none;
stroke: #02B5EE;
stroke-width: 1.262;
stroke-linecap: butt;
stroke-linejoin: miter;
}
.g2_914{
fill: none;
stroke: #5EE200;
stroke-width: 1.262;
stroke-linecap: butt;
stroke-linejoin: miter;
}
.g3_914{
fill: #FFCCCC;
}
.g4_914{
fill: none;
stroke: #5EE200;
stroke-width: 0.73;
stroke-linecap: butt;
stroke-linejoin: miter;
}
.g5_914{
fill: none;
stroke: #02B5EE;
stroke-width: 0.73;
stroke-linecap: butt;
stroke-linejoin: miter;
}
.g6_914{
fill: none;
stroke: #F81693;
stroke-width: 1.461;
stroke-linecap: butt;
stroke-linejoin: miter;
stroke-dasharray: 2,2;
}
]]></style>
</defs>
<path d="M193,83.4h900.3M193,210.6H982.5m-789.5,0H982.5M530.3,240.2V211m0,58.5V240.2m0,59.4V269.5m0,59.3V299.6m0,58.5V328.8m0,114.3v-85" class="g0_914"/>
<path d="M550.4,419.1h61.4" class="g1_914"/>
<path d="M622.3,419.1H858" class="g2_914"/>
<path d="M879,407.4h92.5V374.5H879v32.9Z" class="g3_914"/>
<path d="M530.3,472.3V443.1m0,102.3V472.3" class="g0_914"/>
<path d="M778.8,521.6h91.4V488.8H778.8v32.8Z" class="g3_914"/>
<path d="M870.2,531.5h50.6" class="g4_914"/>
<path d="M920.8,531.5h50.7" class="g5_914"/>
<path d="M530.3,574.6V545.4m0,58.4V574.6m0,114.3V603.8" class="g0_914"/>
<path d="M561.2,664.9h63.6" class="g1_914"/>
<path d="M801.7,653.1h59.5V620.3H801.7v32.8Z" class="g3_914"/>
<path d="M875.4,653.1h63.3" class="g6_914"/>
<path d="M530.3,718.1V688.9m0,58.4V718.1M193,747.7H982.5m-789.5,0H982.5" class="g0_914"/>
</svg>