<?xml version="1.0" encoding="UTF-8" standalone="no"?>
<!DOCTYPE svg PUBLIC "-//W3C//DTD SVG 1.1//EN"
"http://www.w3.org/Graphics/SVG/1.1/DTD/svg11.dtd">
<svg viewBox="0 0 909 1286" version="1.1" xmlns="http://www.w3.org/2000/svg" xmlns:xlink="http://www.w3.org/1999/xlink">
<defs>
<style type="text/css"><![CDATA[
.g0_18{
fill: none;
stroke: #000000;
stroke-width: 0.73;
stroke-linecap: butt;
stroke-linejoin: miter;
}
.g1_18{
fill: none;
stroke: #F81693;
stroke-width: 0.73;
stroke-linecap: butt;
stroke-linejoin: miter;
}
.g2_18{
fill: none;
stroke: #02B5EE;
stroke-width: 0.73;
stroke-linecap: butt;
stroke-linejoin: miter;
}
.g3_18{
fill: none;
stroke: #02B5EE;
stroke-width: 1.461;
stroke-linecap: butt;
stroke-linejoin: miter;
}
.g4_18{
fill: none;
stroke: #FFA313;
stroke-width: 0.73;
stroke-linecap: butt;
stroke-linejoin: miter;
}
.g5_18{
fill: none;
stroke: #FFA313;
stroke-width: 1.461;
stroke-linecap: butt;
stroke-linejoin: miter;
}
.g6_18{
fill: #FFFFFF;
}
.g7_18{
fill: #FDE8E9;
}
]]></style>
</defs>
<path d="M116.9,179.9h687M325.5,209.5V180.3m-69.4,98.4L281,293.5m-56.1,40.6V297.5m31.2,-18.8l-31.2,18.6M193.7,278.7l31.2,18.6M193.7,278.7l-31.3,18.6m0,-73.9L193.7,242m0,36.7V242.2m-31.3,55.3L131.2,278.9m0,-.2V242.2m31.2,-18.8L131.2,242m32.3,-11l23,13.7m-23,45.2l23,-13.7M137.2,274V246.9m116.7,31.8V253.1m4.4,25.6V253.1m67.2,93V209.5" class="g0_18"/>
<path d="M511.3,282.5l18.3,11m-55.9,33.2v-20m24.9,-24.2l-18.3,11" class="g1_18"/>
<path d="M442.5,278.7l24.8,14.8M442.5,278.7l-31.3,18.6m0,-73.9L442.5,242m0,36.7V242.2m-31.3,55.3L380,278.9m0,-.2V242.2m31.2,-18.8L380,242m32.3,-11l23.1,13.7m-23.1,45.2l23.1,-13.7M386,274V246.9" class="g2_18"/>
<path d="M502.8,273.2V253.1m4.3,20.1V253.1" class="g1_18"/>
<path d="M325.5,375.3V346.1m0,58.5V375.3m0,58.5V404.6m0,58.4V433.8m0,58.4V463" class="g0_18"/>
<path d="M391.4,490.8c1.4,0,2.1,-2.8,3.5,-2.8c1,0,1.8,1.4,2.7,2.8c.9,1.4,1.8,2.7,2.7,2.7c1,0,1.9,-1.3,2.8,-2.7c.9,-1.4,1.7,-2.8,2.7,-2.8c1.4,0,2.1,2.8,3.4,2.8h3.9" class="g3_18"/>
<path d="M325.5,521.5V492.2m0,58.5V521.5m0,165.8V550.7" class="g0_18"/>
<path d="M511.3,623.7l18.3,11m-55.9,40.5V647.8m24.9,-24.1l-18.3,11" class="g4_18"/>
<path d="M442.5,619.9l24.8,14.8" class="g0_18"/>
<path d="M442.5,619.9l-31.3,18.6" class="g4_18"/>
<path d="M411.2,564.6l31.3,18.6m0,36.7V583.4m-31.3,55.3L380,620.1m0,-.2V583.4m31.2,-18.8L380,583.2m32.3,-11l23.1,13.7M412.3,631l23.1,-13.7M386,615.2V588.1" class="g1_18"/>
<path d="M502.8,614.4V594.3m4.3,20.1V594.3" class="g4_18"/>
<path d="M325.5,716.5V687.3m0,58.5V716.5" class="g0_18"/>
<path d="M492.3,749.6c1.4,0,2.1,-2.8,3.4,-2.8c1,0,1.9,1.3,2.8,2.8c.9,1.4,1.7,2.7,2.7,2.7c1,0,1.9,-1.3,2.7,-2.7c.9,-1.5,1.8,-2.8,2.8,-2.8c1,0,1.8,1.3,2.7,2.8c.9,1.4,1.8,2.7,2.8,2.7c1,0,1.8,-1.3,2.7,-2.7c.9,-1.5,1.8,-2.8,2.7,-2.8c1,0,1.9,1.3,2.8,2.8c.9,1.4,1.7,2.7,2.7,2.7c1,0,1.9,-1.3,2.8,-2.7c.9,-1.5,1.7,-2.8,2.7,-2.8c1,0,1.9,1.3,2.7,2.8c.9,1.4,1.8,2.7,2.8,2.7c1,0,1.8,-1.3,2.7,-2.7c.9,-1.5,1.8,-2.8,2.8,-2.8c1,0,1.8,1.3,2.7,2.8c.9,1.4,1.8,2.7,2.7,2.7c1,0,1.9,-1.3,2.8,-2.7c.9,-1.5,1.7,-2.8,2.7,-2.8c1,0,1.9,1.3,2.8,2.8c.9,1.4,1.7,2.7,2.7,2.7c1,0,1.9,-1.3,2.7,-2.7c.9,-1.5,1.8,-2.8,2.8,-2.8c1,0,1.8,1.3,2.7,2.8c.9,1.4,1.8,2.7,2.8,2.7c1,0,1.8,-1.3,2.7,-2.7c.9,-1.5,1.8,-2.8,2.7,-2.8c1,0,1.9,1.3,2.8,2.8c.9,1.4,1.7,2.7,2.7,2.7c1,0,1.9,-1.3,2.8,-2.7c.9,-1.5,1.7,-2.8,2.7,-2.8c1,0,1.8,1.3,2.7,2.8c.9,1.4,1.8,2.7,2.8,2.7c1,0,1.8,-1.3,2.7,-2.7c.9,-1.5,1.8,-2.8,2.8,-2.8c1,0,1.8,1.3,2.7,2.8c.9,1.4,1.7,2.7,2.7,2.7c1,0,1.9,-1.3,2.8,-2.7c.9,-1.5,1.7,-2.8,2.7,-2.8c1,0,1.9,1.3,2.8,2.8c.9,1.4,1.7,2.7,2.7,2.7c1,0,1.8,-1.3,2.7,-2.7c.9,-1.5,1.8,-2.8,2.8,-2.8c1,0,1.8,1.3,2.7,2.8c.9,1.4,1.8,2.7,2.8,2.7c1,0,1.8,-1.3,2.7,-2.7c.9,-1.5,1.7,-2.8,2.7,-2.8c1,0,1.9,1.3,2.8,2.8c.9,1.4,1.7,2.7,2.7,2.7c1,0,1.9,-1.3,2.8,-2.7c.9,-1.5,1.7,-2.8,2.7,-2.8c1,0,1.8,1.3,2.7,2.8c.9,1.4,1.8,2.7,2.8,2.7c1,0,1.8,-1.3,2.7,-2.7c.9,-1.5,1.8,-2.8,2.8,-2.8c.9,0,1.8,1.3,2.7,2.8c.9,1.4,1.7,2.7,2.7,2.7c1,0,1.9,-1.3,2.8,-2.7c.9,-1.5,1.7,-2.8,2.7,-2.8c1.4,0,2.1,2.8,3.4,2.8h.7" class="g5_18"/>
<path d="M325.5,775V745.8m0,105.7V775" class="g0_18"/>
<path d="M403.1,843.7V782.8c0,-2.9,2.4,-5.2,5.2,-5.2h286c2.9,0,5.2,2.3,5.2,5.2v60.9c0,2.9,-2.3,5.2,-5.2,5.2h-286c-2.8,0,-5.2,-2.3,-5.2,-5.2Z" class="g6_18"/>
<path d="M507,874.4h88.7V858H507v16.4Z" class="g7_18"/>
<path d="M429.1,833.3H673.6V793.2H429.1v40.1Z" class="g7_18"/>
<path d="M325.5,880.7V851.5M116.9,881.1h687" class="g0_18"/>
</svg>