<?xml version="1.0" encoding="UTF-8" standalone="no"?>
<!DOCTYPE svg PUBLIC "-//W3C//DTD SVG 1.1//EN"
"http://www.w3.org/Graphics/SVG/1.1/DTD/svg11.dtd">
<svg viewBox="0 0 909 1286" version="1.1" xmlns="http://www.w3.org/2000/svg" xmlns:xlink="http://www.w3.org/1999/xlink">
<defs>
<clipPath id="c0_12"><path d="M122.9,569.1V534.4H152v34.7Z"/></clipPath>
<clipPath id="c1_12"><path d="M122.1,569.5V533.4H153v36.1Z"/></clipPath>
<style type="text/css"><![CDATA[
.g0_12{
fill: none;
stroke: #000000;
stroke-width: 0.73;
stroke-linecap: butt;
stroke-linejoin: miter;
}
.g1_12{
fill: none;
stroke: #02B5EE;
stroke-width: 3.653;
stroke-linecap: butt;
stroke-linejoin: miter;
}
.g2_12{
fill: #02B5EE;
stroke: #02B5EE;
stroke-width: 3.391;
stroke-linecap: butt;
stroke-linejoin: miter;
}
.g3_12{
fill: none;
stroke: #F81693;
stroke-width: 3.653;
stroke-linecap: butt;
stroke-linejoin: miter;
}
.g4_12{
fill: #F81693;
stroke: #F81693;
stroke-width: 0.885;
stroke-linecap: butt;
stroke-linejoin: miter;
}
.g5_12{
fill: none;
stroke: #8007AC;
stroke-width: 3.653;
stroke-linecap: butt;
stroke-linejoin: miter;
}
.g6_12{
fill: #8007AC;
stroke: #8007AC;
stroke-width: 3.267;
stroke-linecap: butt;
stroke-linejoin: miter;
}
.g7_12{
fill: #FFFFFF;
}
.g8_12{
fill: #868686;
}
.g9_12{
fill: #242628;
}
.ga_12{
fill: #A0A0A0;
}
.gb_12{
fill: #C4956E;
}
.gc_12{
fill: #222426;
}
.gd_12{
fill: #202126;
}
.ge_12{
fill: #252427;
}
.gf_12{
fill: #222924;
}
.gg_12{
fill: none;
stroke: #000000;
stroke-width: 1.461;
stroke-linecap: butt;
stroke-linejoin: miter;
}
.gh_12{
fill: none;
stroke: #000000;
stroke-width: 2.739;
stroke-linecap: butt;
stroke-linejoin: miter;
}
]]></style>
</defs>
<path d="M116.9,159.9H792.5" class="g0_12"/>
<path d="M314.5,469.6l247.6,-99" class="g1_12"/>
<path d="M569.6,367.6l-11.6,.2l4.9,2.4l-1.8,5.2Z" class="g2_12"/>
<path d="M314.5,469.6l48.8,-195" class="g3_12"/>
<path d="M365.3,266.8l-6.7,9.5l4.9,-2.6l3.1,4.5Z" class="g4_12"/>
<path d="M366.5,261.7l196,98" class="g5_12"/>
<path d="M569.7,363.3l-7.8,-8.5l1.4,5.3l-5.1,2.1Z" class="g6_12"/>
<path d="M117.7,850.6V527.1H791.8V850.6Z" class="g7_12"/>
<path d="M117.7,850.6V527.1H791.8V850.6Z" class="gg_12"/>
<g clip-path="url(#c1_12)">
<path clip-path="url(#c0_12)" d="M125.6,568.9c-.1,-.1,-.1,-.2,0,-.3c0,-.2,.1,-1.3,0,-1.7c0,-.2,0,-.5,0,-.6c.2,-.9,.3,-2.3,.3,-2.3c0,0,0,-.3,.1,-.6c.1,-.5,.1,-.6,-.1,-.9c-.3,-.6,-.9,-2,-1.1,-2.8c-.4,-1.8,-.5,-4.6,-.1,-6c.3,-1.1,.5,-1.2,.9,-.6c.3,.7,.4,.5,0,-.2c-.3,-.8,-.6,-2.1,-.5,-2.5c0,-.2,.2,-.6,.4,-1.1c.2,-.4,.4,-1,.5,-1.2c.2,-.5,.5,-.7,.9,-.6c.1,.1,.2,.2,.3,.4c.2,.3,.2,.2,.1,-.2c-.1,-.3,-.2,-.6,-.1,-.6c0,0,0,-.2,0,-.4c.1,-.4,1,-2,1.6,-2.6c.3,-.3,.6,-.6,.7,-.8c.1,-.1,.5,-.4,.8,-.6c.3,-.3,.7,-.6,.9,-.8c.4,-.4,.7,-.5,.9,-.2q.2,.1,.2,-.2c0,-.2,0,-.4,0,-.5c.1,-.2,1.5,-1.2,2.1,-1.5c.3,-.1,.6,-.3,.8,-.4c.1,-.1,.3,-.2,.4,-.2c0,0,.4,-.2,.8,-.5c.4,-.2,.9,-.4,1,-.5c.2,0,.6,-.2,1,-.4c1.1,-.5,1.6,-.7,2.4,-1c.5,-.2,.9,-.4,1,-.4c0,0,.1,0,.3,.1l.2,.2l.4,-.3c.6,-.6,1.6,-.9,3.8,-1.2c.9,-.1,2.2,-.3,2.8,-.4l1,-.1l.1,.3q.1,.2,-.3,.4c-2.7,1,-4.6,2,-5.5,2.8c-.3,.2,-.5,.4,-.5,.4c-.1,0,-1.5,1.4,-1.5,1.6c0,0,-.1,.2,-.2,.3c-.3,.1,-.6,.7,-.5,1.1c0,.1,-.1,.3,-.4,.5c-.3,.2,-.4,.3,-.4,.4c.2,.1,0,.9,-.2,1.1c-.7,.8,-1.7,2.3,-1.9,3c-.1,.1,-.2,.4,-.4,.7c-.2,.3,-.4,.8,-.5,1q-.4,1,-1,1c-.5,.1,-1.4,.4,-1.3,.5c0,0,.4,0,.9,-.1c1.1,-.1,1.2,-.1,.8,.7c-.4,.7,-.7,1.7,-.7,2.1c0,.3,-.2,.9,-.6,2.3c-.1,.3,-.3,.5,-.7,.7c-.5,.3,-.6,.3,-1.2,.3q-.7,.1,-.6,.2c.1,.2,-.1,.5,-.5,1.4c-.3,.6,-.7,1.2,-.8,1.3c-.2,.1,-.4,.5,-.6,.8c-.2,.3,-.4,.5,-.5,.5c0,0,-.2,.2,-.3,.3c-.6,.8,-2.7,2.6,-3,2.7l.3,-3.3c.1,.2,.4,0,.6,-.2c.2,-.4,.5,-.6,1.1,-.6c.5,-.1,.6,-.1,1,-.5c.2,-.3,.6,-.9,.9,-1.4l.5,-1l-.5,-.3c-.3,-.1,-.6,-.3,-.7,-.4c-.1,-.2,.4,-.9,.7,-1.1c.2,0,.5,-.1,.7,-.1c.2,0,.5,-.1,.7,-.3c.3,-.1,.5,-.2,.7,-.3c.6,0,.8,-.4,.8,-1.3c.1,-.9,.2,-1,.5,-1.2c.4,-.1,.7,-.1,.9,.2l.1,.2l.1,-.2c.1,-.3,.1,-.5,-.1,-.4c-.1,0,-.2,-.1,-.3,-.3q-.1,-.2,-.6,-.4c-.6,-.2,-.7,-.3,-.5,-.5c0,-.1,0,-.3,0,-.4c-.1,-.3,.4,-.7,1,-1c.5,-.2,.6,-.3,1.1,-1.3c.3,-.5,.8,-1.2,1,-1.4c.2,-.2,.5,-.5,.6,-.7c.1,-.2,.2,-.2,.4,-.2c.2,0,.4,-.1,.5,-.2c.2,-.2,.9,-1.1,.8,-1.1c0,0,-.2,0,-.5,.2c-.7,.3,-1.8,.2,-2,-.1c-.2,-.3,.4,-1.2,.9,-1.2c.1,0,1.1,-.5,1.5,-.8c.1,-.1,.3,-.5,.5,-.8c.3,-.7,.8,-1.4,1.2,-1.5c.5,-.1,.7,-.3,.9,-.7c.2,-.4,.1,-.7,-.4,-.9c-.1,-.1,-.3,-.2,-.4,-.3c0,-.1,-.1,-.2,-.2,-.2c-.3,0,-3,1.1,-4.1,1.6c-.2,.1,-.5,.4,-.7,.6c-.1,.1,-.5,.5,-.9,.8c-.4,.3,-.9,.8,-1,1c-.1,.3,-.4,.7,-.7,.9c-.4,.4,-.4,.5,-.4,1.2c-.1,.4,0,.9,.1,1.2c.3,.7,.2,1.1,-.3,1c-.5,0,-.8,-.3,-1.3,-1.5c-.3,-.6,-.6,-1.1,-.6,-1c-.2,0,-.8,.7,-1.1,1.2c-.2,.6,-.3,.7,-.7,.8c-.5,.2,-.5,.3,-.7,.7c-.1,.3,-.1,.7,-.1,.8c.1,.1,.1,.3,.1,.3c-.1,.4,-.1,.8,.1,1.3c.2,.2,.3,.6,.3,.8c0,.1,.1,.5,.3,.9c.3,.6,.3,.7,.2,1.2c-.1,.2,-.1,.6,-.1,.7c-.1,.3,-.4,.2,-1.1,-.3c-.5,-.5,-1.2,-1.2,-2,-2.4c-.3,-.3,-.4,-.4,-.3,-.1c0,.2,-.1,.5,-.2,.9c-.2,.6,-.1,1.3,.2,1.7c.2,.3,.8,1.9,.9,2.3c0,.2,0,.4,.1,.5c.1,.2,.1,1,-.1,1.3c0,.1,0,.2,0,.4c0,.1,-.1,.2,-.2,.2c-.2,0,-.7,-.3,-1,-.6c-.1,-.2,-.3,-.4,-.4,-.5l-.3,-.3l-.1,.2c-.1,.2,0,.7,.1,1.1c.3,.8,.4,2.4,.2,3c0,.1,-.2,.4,-.4,.5c-.4,.3,-.3,.5,.4,1.4l.4,.5l.1,-.3c.1,-.1,.2,-.5,.3,-.9c.1,-.4,.2,-.8,.3,-1c.1,-.2,.2,-.6,.3,-.8q.1,-.5,2.3,-5.3q1,-2.1,1.9,-3.3c.7,-1.1,1.3,-2.1,1.9,-3.1c.8,-1.3,.9,-1.5,1.4,-2.1c.3,-.3,.7,-.8,.9,-1.1c.9,-1.1,1.1,-1.4,1.3,-1.3c.1,0,.2,.1,.2,.1c0,.1,-.2,.4,-.5,.9c-.3,.4,-.8,1.1,-1,1.5c-.9,1.5,-2.1,3.4,-2.5,4c-.2,.3,-.5,.7,-.6,.9c-.1,.2,-.4,.6,-.5,.9c-.2,.3,-.3,.6,-.3,.7c-.1,.3,-.2,.8,-1.2,2.6c-.8,1.5,-1,2,-1.7,3.7c-.5,1,-.8,2.2,-.7,2.3l-.3,3.3c-.3,0,-.5,1.8,-.2,2.9c.1,.8,.1,1,-.2,1.3c-.6,.4,-1.1,1.1,-1.3,1.6c-.1,.4,-.2,.6,-.4,.6c-.1,0,-.2,-.1,-.3,-.2Z" class="g8_12"/>
<path d="M133.1,555.4c-.1,0,-.3,-.1,-.3,-.1c-.2,0,-.2,.1,0,.1c0,.1,.2,.1,.3,.1q.2,0,0,-.1Z" class="g7_12"/>
<path d="M144.5,536.4c0,-.1,0,-.2,-.1,-.2q-.1,.1,-.2,.2q0,.1,.1,.1c.1,0,.2,-.1,.2,-.1Z" class="g7_12"/>
<path d="M125.7,569c-.1,-.1,-.1,-.2,-.1,-.3c.1,-.1,.1,-.9,.1,-1.7c0,-1.4,.1,-2.2,.4,-3.5l.1,-.6l-.5,-1c-.2,-.5,-.5,-1.3,-.6,-1.6c-.1,-.4,-.3,-.8,-.3,-1c-.2,-.7,-.3,-2.9,-.3,-3.9c.1,-1.1,.5,-2.6,.7,-2.6c.1,0,.2,.1,.5,.5c.4,.8,.6,.8,.2,0c-.4,-.9,-.7,-1.9,-.7,-2.5c0,-.5,.5,-1.9,.9,-2.8c.2,-.3,.3,-.4,.5,-.5q.3,0,.9,.9l.5,.8l-.4,-.8c-.5,-1.1,-.4,-1.7,.3,-2.9c.3,-.5,.6,-1,.7,-1.1c.1,-.1,.4,-.4,.6,-.7c.3,-.3,.8,-.7,1.2,-1c.3,-.2,.7,-.6,.9,-.8c.4,-.5,.7,-.4,1,.2l.2,.3l-.1,-.5c-.1,-.8,0,-.9,.8,-1.6c.5,-.3,.9,-.5,1,-.5c0,0,.1,-.1,.1,-.1c0,-.1,.1,-.1,.3,-.1c.2,-.1,.2,0,.2,.1c-.1,0,-.1,.1,-.2,.1c-.1,0,-.4,.3,-.7,.5c-.4,.3,-.8,.7,-.9,.7c-.2,.2,-.3,.3,-.3,.7c.1,.3,.1,.7,.2,.9c.1,.4,.1,.9,0,.9c-.2,.1,-.4,-.2,-.7,-.8l-.3,-.7l-.4,.3c-.1,.1,-.3,.3,-.3,.3c-.1,0,-.3,.3,-.6,.5c-.3,.2,-.6,.5,-.7,.5c-.1,.1,-.3,.4,-.6,.7c-.6,.6,-1.6,2.2,-1.5,2.5c.1,.3,1,2.2,1.7,3.5c.5,.9,.6,1,.4,1c-.2,0,-1.2,-.8,-1.6,-1.4c-.3,-.3,-.6,-.7,-.8,-.9c-.1,-.2,-.3,-.5,-.4,-.6c-.2,-.5,-.4,-.5,-.6,0c-.3,.4,-.8,2.1,-.9,2.4c-.1,.8,.6,2.7,1.5,3.8c.7,1,.7,1.3,-.1,.8c-.3,-.2,-1.2,-1.2,-1.5,-1.6c0,-.1,-.1,-.2,-.1,-.2c-.2,.1,-.4,1.1,-.4,1.8c0,.3,0,.7,-.1,.8c0,.1,0,.7,.1,1.3c.1,.6,.1,1.3,.1,1.5c.1,.7,1,3.1,1.2,3.1c0,0,0,-.1,0,-.1c0,-.1,.1,-.6,.3,-1.1c.2,-.6,.3,-1.3,.4,-1.5c0,-.2,.1,-.4,.1,-.5c.1,-.1,.2,-.4,.3,-.7c.1,-.5,.2,-.9,1.1,-2.6c.3,-.6,.7,-1.5,.9,-2c.8,-1.6,1.6,-3.2,2.2,-4.2c.7,-1,1.1,-1.6,1.9,-2.9c.2,-.4,.6,-.9,.7,-1.1c.2,-.2,.3,-.5,.3,-.6c.1,0,.3,-.3,.6,-.7c.2,-.3,.6,-.7,.8,-1c.9,-1.2,1.1,-1.3,1.2,-1.2c.2,.1,.2,.2,-.6,1.1c-.2,.3,-.6,.9,-.8,1.3c-.8,1.3,-2.1,3.4,-2.4,3.8c-.6,.8,-1.5,2.5,-1.5,2.7c0,.2,-.5,1.4,-1.2,2.7c-.7,1.3,-1.3,2.7,-1.5,3.1c-.1,.4,-.3,.7,-.3,.7c-.1,.1,-.5,1.3,-.6,1.8c0,.3,-.1,.8,-.1,1c-.2,.8,-.3,2,-.3,2.1c0,0,.1,0,.3,-.1c.1,-.1,.3,-.4,.6,-.5c.2,-.2,.5,-.5,.8,-.7c.2,-.2,.4,-.5,.5,-.5c.6,-.6,.9,-.9,1.2,-1.5c.3,-.3,.6,-.7,.7,-.8c.3,-.3,1.2,-2,1.2,-2.1c-.1,0,-.4,-.3,-.9,-.5c-.9,-.4,-1,-.6,-.8,-.7c.1,-.1,1,.1,1.8,.2c.2,.1,.7,.1,1,.1c.9,-.1,1.4,-.4,1.6,-1c.1,-.3,.2,-.6,.2,-.8c.1,-.3,.3,-1,.3,-1.5c.1,-.5,.4,-1.3,.6,-1.7l.2,-.3l-.5,.1c-.5,0,-1.6,-.2,-1.7,-.4c-.1,-.2,.7,-.6,1.6,-.8l.8,-.1l.2,-.6c.2,-.3,.3,-.7,.4,-.9c0,-.2,.1,-.4,.2,-.5c.1,0,.3,-.3,.4,-.6c.1,-.2,.3,-.6,.5,-.9c1.3,-1.9,1.5,-2.2,1.4,-2.2c-.1,0,-.4,0,-.6,.2c-.7,.3,-1.5,.3,-1.5,0c0,-.3,1.8,-1.3,2.7,-1.6c.4,0,.4,-.1,.4,-.5c0,-.3,.2,-.6,.3,-.8c.1,-.2,.3,-.5,.4,-.7c.3,-.5,2.2,-2.2,3.2,-2.8c.7,-.4,1.8,-1,2.7,-1.3l.7,-.3l-1.6,.2c-2.6,.3,-3.7,.6,-4.4,1.4c-.3,.4,-.4,.4,-.5,.2c-.1,-.3,.6,-1,1.2,-1.2c.6,-.3,1.7,-.5,2.4,-.6c.4,-.1,1.5,-.2,2.5,-.4c1.5,-.2,1.8,-.3,1.9,-.2c.4,.2,.3,.4,-.2,.6c-1.1,.4,-2.2,.9,-2.9,1.2c-.7,.3,-2,1.1,-2.2,1.3c-.1,0,-.3,.2,-.5,.4c-1,.8,-1.7,1.5,-1.9,1.8c-.1,.2,-.3,.5,-.4,.6c-.1,.1,-.3,.5,-.3,.7c0,.3,-.1,.5,-.4,.7c-.2,.1,-.5,.2,-.6,.2l-.2,.1h.2c.4,.1,.5,.2,.3,.5c0,0,-.1,.2,-.1,.3c.1,0,-.1,.3,-.4,.6c-.2,.3,-.5,.6,-.6,.8c-.1,.2,-.3,.5,-.4,.7c-.4,.5,-.6,.9,-.7,1.2c0,.1,-.2,.4,-.4,.7c-.2,.5,-.4,.8,-.7,1.7c-.1,.3,-.2,.3,-.7,.4c-.7,.1,-1.5,.3,-1.4,.4c0,.1,.4,.1,.9,0c.8,-.1,.9,-.1,1,.1c.1,.1,.1,.3,-.2,.6c-.3,.6,-.7,1.7,-.7,2.2c0,.3,-.3,1.3,-.6,2.1c-.1,.3,-.2,.5,-.6,.8c-.5,.2,-.6,.3,-1.2,.3c-.4,0,-.9,-.1,-1,-.1c-.2,-.1,-.5,-.1,-.8,-.2l-.6,-.1l.5,.3c.3,.1,.6,.2,.7,.2q.5,0,.6,.2c.1,.1,-.9,2,-1.3,2.5c-.2,.2,-.5,.5,-.6,.8c-.2,.2,-.4,.5,-.5,.6c-.2,.1,-.4,.3,-.6,.5c-.4,.5,-1.3,1.4,-1.7,1.6c-.1,.1,-.4,.3,-.5,.4c-.1,.2,-.3,.3,-.5,.4c-.2,.1,-.3,.2,-.3,.4c-.1,.5,-.1,1.9,-.1,2.1c0,.1,.1,.5,.1,.8c.1,.6,.1,.7,-.2,.9c-.4,.3,-1,1.1,-1.2,1.7c-.2,.3,-.3,.6,-.3,.6c-.1,0,-.2,-.1,-.3,-.1Z" class="g9_12"/>
<path d="M128.2,548.6q-.1,-.2,-.1,-.1c-.1,.2,0,.4,.1,.3c.1,0,.1,-.1,0,-.2Z" class="g9_12"/>
<path d="M139.7,542.7c.2,-.1,.5,-.2,.7,-.4l.2,-.2l-.3,.1c-.5,.1,-1.4,.6,-1.4,.7c0,.1,.3,.1,.8,-.2Z" class="ga_12"/>
<path d="M139.7,542.7c.4,-.2,.6,-.4,.2,-.3c-.3,.1,-.9,.5,-.7,.5c0,0,.3,-.1,.5,-.2Z" class="g7_12"/>
<path d="M134.9,539.5c0,-.1,.6,-.6,.7,-.5c.2,.1,.2,.2,-.1,.3c-.1,0,-.3,.1,-.4,.2q-.1,0,-.2,0Z" class="g9_12"/>
<path d="M136.2,538.7c.1,-.1,.2,-.2,.3,-.2q.2,0,.1,.2c-.1,.1,-.2,.2,-.3,.2q-.2,0,-.1,-.2Z" class="g9_12"/>
<path d="M137.1,538.2c.1,-.2,.6,-.3,.7,-.2c0,.1,-.5,.4,-.7,.4q-.1,0,0,-.2Z" class="g9_12"/>
<path d="M137.9,537.9c0,-.1,.8,-.5,1.3,-.7c.3,0,.6,-.2,.7,-.2c.4,-.3,1.9,-.9,2.1,-.8c.2,.1,.1,.3,-.2,.4c-.5,0,-1.7,.4,-3,1.1c-.6,.2,-.8,.3,-.9,.2Z" class="g9_12"/>
<path d="M125.7,568.9c0,0,0,-.1,0,-.2c0,-.1,.1,-.6,.1,-1.2c0,-1.4,0,-1.9,.4,-4.1l.1,-.6l-.6,-1c-.3,-.7,-.5,-1.3,-.6,-1.6c-.1,-.4,-.2,-.8,-.2,-.9c-.3,-1.1,-.4,-4.2,-.1,-5.2c.1,-.4,.2,-.8,.2,-1c.1,-.4,.2,-.3,.7,.4c.6,1,.9,.9,.3,-.2c-.4,-.6,-.8,-2,-.8,-2.5c0,-.4,.6,-1.9,1,-2.7c.1,-.3,.3,-.5,.4,-.5c.2,0,.3,0,.5,.4c.5,.6,.6,.9,.5,.9c-.1,-.1,-.3,-.3,-.4,-.5c-.4,-.7,-.6,-.6,-1.2,.9c-.7,1.8,-.6,2.4,.7,4.7c.5,.9,.8,1.5,.7,1.5c-.2,.1,-1.4,-1,-1.7,-1.6c-.1,-.1,-.2,-.2,-.3,-.3q-.1,-.1,-.2,.1c-.3,.9,-.4,2.5,-.2,4.1c0,.5,.1,1.1,.1,1.3c0,.5,1,3.1,1.2,3.1c.1,0,.1,-.1,.1,-.2c0,-.2,.1,-.8,.3,-1.3c.2,-.6,.3,-1.2,.4,-1.4c0,-.2,0,-.3,.1,-.3c.1,0,.4,-1.1,.4,-1.2c0,0,.1,-.3,.2,-.7c.9,-1.8,1.3,-2.7,1.6,-3.4c.8,-1.6,1.6,-3.2,2.3,-4.2c.7,-1.2,1.3,-2.2,1.9,-3.1c.2,-.4,.5,-.8,.7,-1c.1,-.2,.3,-.4,.3,-.5c0,-.1,.6,-.8,.9,-1.1c.1,-.1,.3,-.3,.5,-.6c.6,-.9,1,-1.3,1.1,-1.3c.1,.1,.1,0,-.6,.9c-.2,.4,-.7,1.1,-.9,1.5c-.8,1.3,-2,3.3,-2.3,3.7c-.6,.7,-1.6,2.6,-1.6,2.9c0,.1,-.5,1.3,-1.2,2.5c-.6,1.3,-1.3,2.7,-1.4,3.1c-.2,.4,-.4,1,-.6,1.3c-.2,.7,-.4,1.5,-.4,1.9c0,.1,-.1,.4,-.1,.6c-.1,.2,-.2,.8,-.2,1.2c-.1,.6,-.1,.7,.1,.7c.1,0,.2,0,.2,-.1c.1,-.1,.3,-.3,.6,-.5c.3,-.2,.5,-.4,.6,-.5c0,-.1,.3,-.3,.5,-.5c.7,-.6,1.1,-1,1.5,-1.7c.3,-.3,.6,-.6,.7,-.7c.2,-.3,1.1,-1.9,1.1,-2.1c0,-.1,-.1,-.2,-.6,-.5c-.7,-.3,-.6,-.4,.1,-.1c.3,.1,.6,.2,.7,.2c.4,-.1,.3,.2,-.2,1.3c-.3,.6,-.7,1.2,-.9,1.4c-.1,.1,-.4,.5,-.6,.7c-.2,.3,-.4,.6,-.5,.7c-.1,0,-.3,.3,-.5,.4c-.1,.2,-.4,.5,-.6,.7c-.2,.1,-.5,.4,-.6,.5c-.1,.2,-.3,.3,-.3,.3c-.1,0,-.3,.2,-.5,.4c-.2,.2,-.5,.4,-.7,.4c-.2,.1,-.3,.2,-.3,.7c-.1,.4,-.1,.7,-.1,.7c0,.1,0,.3,0,.6c0,.2,.1,.7,.1,.9c.2,.9,.1,1.2,-.1,1.3c-.4,.3,-1.1,1.2,-1.3,1.8c-.2,.5,-.3,.6,-.5,.4Z" class="gb_12"/>
<path d="M134,555.4c-.4,0,-.8,-.1,-1,-.1c-.2,-.1,-.4,-.1,-.5,-.1c-.1,0,-.3,-.1,-.4,-.1c-.1,-.1,-.3,-.1,-.4,0c-.1,0,-.2,0,-.3,-.1c-.1,-.2,.3,-.2,1.8,.1c1.4,.2,2.5,-.2,2.7,-1c0,-.2,.1,-.6,.2,-.8c.1,-.2,.2,-.6,.2,-.8c.1,-.4,.1,-.8,.3,-1.6c.1,-.2,.2,-.6,.4,-.8c.1,-.1,.2,-.3,.1,-.3c0,-.1,-.2,-.1,-.4,0c-.4,.1,-1.6,-.1,-1.7,-.3c-.1,-.3,.8,-.6,2,-.8c.3,0,.4,-.1,.6,-.7c.6,-1.5,1.6,-3.3,2.9,-4.9c.1,-.2,.1,-.3,0,-.3c0,0,-.3,0,-.7,.2c-.6,.2,-1.3,.3,-1.4,.1c0,0,0,-.1,.1,-.2q.2,0,.2,.1c.1,.1,.1,.2,.2,.1c.2,0,1.2,-.4,1.5,-.6c.3,-.3,.6,-.4,.6,-.2c.1,.1,-.1,.8,-.2,.9c-.2,.2,-.5,.6,-.7,.9c-.1,.2,-.4,.5,-.6,.8c-.3,.6,-.5,.9,-.6,1.2c-.1,.2,-.3,.5,-.4,.8c-.3,.5,-.6,1,-.8,1.7c-.1,.2,-.2,.2,-.7,.3c-.8,.1,-1.6,.5,-1.4,.6c0,.1,.4,.1,1,0c.8,-.1,.9,-.1,1,0c0,.1,-.1,.3,-.3,.6c-.3,.6,-.6,1.6,-.7,2.1c0,.3,-.1,.7,-.2,1c-.1,.3,-.2,.6,-.2,.8c-.1,.6,-.4,.9,-.8,1.1c-.6,.3,-.7,.4,-1.4,.3Z" class="gb_12"/>
<path d="M129.6,551.1c-.2,-.1,-.4,-.3,-.5,-.4c-.3,-.2,-1,-1,-1,-1.1c0,0,.1,-.1,.1,-.1c.1,0,.5,.4,.6,.6c.1,.1,.2,.1,.2,.1c.1,0,.1,-.1,-.1,-.3c-.1,-.2,-.3,-.5,-.4,-.8c-.1,-.2,-.4,-.8,-.6,-1.3c-.3,-.6,-.5,-1.1,-.5,-1.1c0,-.1,.2,-.6,.5,-1.1c.6,-1.1,1.6,-2.2,2.5,-2.8c.4,-.3,.8,-.6,.9,-.8c.4,-.5,.6,-.5,.9,.2c.3,.5,.3,.6,.4,.5c.1,0,.2,-.1,.2,0c0,0,.1,.2,.1,.4c.1,.6,-.1,.4,-.6,-.4c-.4,-.7,-.5,-.8,-.7,-.5c-.1,.1,-.7,.6,-1.1,.9c-.7,.4,-1.8,1.8,-2.5,2.9l-.4,.7l.7,1.3c.7,1.5,1.1,2.3,1.5,2.8c.2,.4,.2,.6,-.2,.3Z" class="gb_12"/>
<path d="M128.1,549.1c-.1,-.1,0,-.2,0,-.2c.1,0,.1,.1,.2,.2c0,.1,0,.2,0,.2c-.1,0,-.2,-.1,-.2,-.2Z" class="gb_12"/>
<path d="M127.6,548.1c-.3,-.6,-.2,-.8,0,-.4c.2,.2,.4,.8,.3,.9c-.1,0,-.2,-.1,-.3,-.5Z" class="gb_12"/>
<path d="M140.1,542c.5,-.3,1.1,-.5,1.2,-.4c.1,.2,-.1,.2,-.8,.4c-.8,.3,-.9,.3,-.4,0Z" class="gb_12"/>
<path d="M141.5,541.5c0,0,0,-.2,0,-.4c0,-.5,.7,-1.7,1.3,-2.3c1.8,-1.6,3.9,-3,5.7,-3.5c.6,-.2,.6,-.4,-.1,-.3c-.3,.1,-1.3,.3,-2.2,.4c-1,.1,-1.9,.3,-2.1,.4c-.4,.1,-1.2,.6,-1.5,.9c-.2,.3,-.3,.3,-.4,.1c-.1,-.1,.9,-.9,1.4,-1.1c1.1,-.4,1.4,-.5,2.1,-.5c.4,-.1,1.6,-.2,2.6,-.4c1.8,-.3,2,-.3,2.1,0c0,0,-.3,.2,-.7,.3c-2.5,1,-4.4,2,-5.3,2.8c-.2,.2,-.4,.3,-.4,.3c-.1,0,-.2,.1,-.3,.2c-.1,.1,-.3,.4,-.6,.6c-.2,.2,-.5,.6,-.6,.7c-.1,.2,-.3,.5,-.5,.6c-.1,.2,-.2,.5,-.3,.7c0,.3,-.1,.6,-.2,.5Z" class="gb_12"/>
<path d="M132.6,542c-.1,-.2,-.2,-.8,-.1,-1c0,-.1,.3,-.3,.6,-.5c.3,-.2,.7,-.4,.8,-.5l.2,-.2l-.1,.2c-.2,.3,-1,1,-1.2,1.1c-.1,0,-.2,.2,-.2,.4c0,.1,0,.3,0,.5c.1,.1,0,.1,0,0Z" class="gb_12"/>
<path d="M141.5,536.4c.2,-.2,.5,-.2,.5,-.1c0,.1,-.1,.2,-.3,.2q-.4,0,-.2,-.1Z" class="gb_12"/>
<path d="M125.7,568.9c0,0,0,-.1,0,-.2c0,-.1,.1,-.6,.1,-1.2c0,-1.3,0,-1.8,.4,-4.2c.1,-.5,0,-.5,-.5,-1.5c-.3,-.7,-.5,-1.3,-.6,-1.6c-.1,-.4,-.2,-.8,-.2,-.9c-.3,-1.1,-.4,-4.2,-.1,-5.2c.1,-.4,.2,-.8,.2,-1c.1,-.4,.2,-.3,.7,.4c.6,1,.9,.9,.3,-.2c-.4,-.6,-.8,-2,-.8,-2.5c0,-.4,.6,-1.9,1,-2.7c.1,-.3,.3,-.5,.4,-.5c.2,0,.3,0,.5,.4c.5,.6,.6,.9,.5,.9c-.1,-.1,-.3,-.3,-.4,-.5c-.4,-.7,-.6,-.6,-1.2,.9c-.7,1.8,-.6,2.4,.7,4.7c.5,.9,.8,1.5,.7,1.5c-.2,.1,-1.4,-1,-1.7,-1.6c-.1,-.1,-.2,-.2,-.3,-.3q-.1,-.1,-.2,.1c-.3,.9,-.4,2.5,-.2,4.1c0,.5,.1,1.1,.1,1.3c0,.5,1,3.1,1.2,3.1c.1,0,.1,-.1,.1,-.2c0,-.2,.1,-.8,.3,-1.3c.2,-.6,.3,-1.2,.4,-1.4c0,-.2,0,-.3,.1,-.3c.1,0,.4,-1.1,.4,-1.2c0,0,.1,-.3,.2,-.7c.9,-1.8,1.3,-2.7,1.6,-3.4c.8,-1.6,1.6,-3.2,2.3,-4.2c.7,-1.2,1.3,-2.2,1.9,-3.1c.2,-.4,.5,-.8,.7,-1c.1,-.2,.3,-.4,.3,-.5c0,-.1,.6,-.8,.9,-1.1c.1,-.1,.3,-.3,.5,-.6c.6,-.9,1,-1.3,1.1,-1.3c.1,.1,.1,0,-.7,1.1c-1.5,2,-2.3,3.2,-3.6,5.4c-.3,.4,-.7,1.1,-1,1.5c-.4,.5,-.5,.8,-.4,.8c.4,.1,.3,.5,-.8,2.7c-.7,1.3,-1.4,2.7,-1.5,3.1c-.2,.4,-.4,1,-.6,1.3c-.2,.7,-.4,1.5,-.4,1.9c0,.1,-.1,.4,-.1,.6c-.1,.2,-.2,.8,-.2,1.2c-.1,.6,-.1,.7,.1,.7c.1,0,.2,0,.2,-.1c.1,-.1,.3,-.3,.6,-.5c.3,-.2,.5,-.4,.6,-.5c0,-.1,.3,-.3,.5,-.5c.7,-.6,1.1,-1,1.5,-1.7c.3,-.3,.6,-.6,.7,-.7c.2,-.3,1.1,-1.9,1.1,-2.1c0,-.1,-.1,-.2,-.6,-.5c-.7,-.3,-.6,-.4,.1,-.1c.3,.1,.6,.2,.7,.2c.4,-.1,.3,.2,-.2,1.3c-.3,.6,-.7,1.2,-.9,1.4c-.1,.1,-.4,.5,-.6,.7c-.2,.3,-.4,.6,-.5,.7c-.1,0,-.3,.3,-.5,.4c-.1,.2,-.4,.5,-.6,.7c-.2,.1,-.5,.4,-.6,.5c-.1,.2,-.3,.3,-.3,.3c-.1,0,-.3,.2,-.5,.4c-.2,.2,-.5,.4,-.7,.4c-.2,.1,-.3,.2,-.3,.7c-.1,.4,-.1,.7,-.1,.7c0,.1,0,.3,0,.6c0,.2,.1,.7,.1,.9c.2,.9,.1,1.2,-.1,1.3c-.4,.3,-1.1,1.2,-1.3,1.8c-.2,.5,-.3,.6,-.5,.4Z" class="gc_12"/>
<path d="M134,555.4c-.4,0,-.8,-.1,-1,-.1c-.2,-.1,-.4,-.1,-.5,-.1c-.1,0,-.3,-.1,-.4,-.1c-.1,-.1,-.3,-.1,-.4,0c-.1,0,-.2,0,-.3,-.1c-.1,-.2,.3,-.2,1.8,.1c1.4,.2,2.5,-.2,2.7,-1c0,-.2,.1,-.6,.2,-.8c.1,-.2,.2,-.6,.2,-.8c.1,-.4,.1,-.8,.3,-1.6c.1,-.2,.2,-.6,.4,-.8c.1,-.1,.2,-.3,.1,-.3c0,-.1,-.2,-.1,-.4,0c-.4,.1,-1.6,-.1,-1.7,-.3c-.1,-.3,.8,-.6,2,-.8c.3,0,.4,-.1,.6,-.7c.6,-1.5,1.6,-3.3,2.9,-4.9c.1,-.2,.1,-.3,0,-.3c0,0,-.3,0,-.7,.2c-.6,.2,-1.3,.3,-1.4,.1c0,0,0,-.1,.1,-.2q.2,0,.2,.1c.1,.1,.1,.2,.2,.1c.2,0,1.2,-.4,1.5,-.6c.3,-.3,.6,-.4,.6,-.2c.1,.1,-.1,.8,-.2,.9c-.2,.2,-.5,.6,-.7,.9c-.1,.2,-.4,.5,-.6,.8c-.3,.6,-.5,.9,-.6,1.2c-.1,.2,-.3,.5,-.4,.8c-.3,.5,-.6,1,-.8,1.7c-.1,.2,-.2,.2,-.7,.3c-.8,.1,-1.6,.5,-1.4,.6c0,.1,.4,.1,1,0c.8,-.1,.9,-.1,1,0c0,.1,-.1,.3,-.3,.6c-.3,.6,-.6,1.6,-.7,2.1c0,.3,-.1,.7,-.2,1c-.1,.3,-.2,.6,-.2,.8c-.1,.6,-.4,.9,-.8,1.1c-.6,.3,-.7,.4,-1.4,.3Z" class="gc_12"/>
<path d="M129.6,551.1c-.2,-.1,-.4,-.3,-.5,-.4c-.3,-.2,-1,-1,-1,-1.1c0,0,.1,-.1,.1,-.1c.1,0,.5,.4,.6,.6c.1,.1,.2,.1,.2,.1c.1,0,.1,-.1,-.1,-.3c-.1,-.2,-.3,-.5,-.4,-.8c-.1,-.2,-.4,-.8,-.6,-1.3c-.3,-.6,-.5,-1.1,-.5,-1.1c0,-.1,.2,-.6,.5,-1.1c.6,-1.1,1.6,-2.2,2.5,-2.8c.4,-.3,.8,-.6,.9,-.8c.4,-.5,.6,-.5,.9,.2c.3,.5,.3,.6,.4,.5c.1,0,.2,-.1,.2,0c0,0,.1,.2,.1,.4c.1,.6,-.1,.4,-.6,-.4c-.4,-.7,-.5,-.8,-.7,-.5c-.1,.1,-.7,.6,-1.1,.9c-.7,.4,-1.8,1.8,-2.5,2.9l-.4,.7l.7,1.3c.7,1.5,1.1,2.3,1.5,2.8c.2,.4,.2,.6,-.2,.3Z" class="gc_12"/>
<path d="M128.1,549.1c-.1,-.1,0,-.2,0,-.2c.1,0,.1,.1,.2,.2c0,.1,0,.2,0,.2c-.1,0,-.2,-.1,-.2,-.2Z" class="gc_12"/>
<path d="M127.6,548.1c-.3,-.6,-.2,-.8,0,-.4c.2,.2,.4,.8,.3,.9c-.1,0,-.2,-.1,-.3,-.5Z" class="gc_12"/>
<path d="M140.1,542c.5,-.3,1.1,-.5,1.2,-.4c.1,.2,-.1,.2,-.8,.4c-.8,.3,-.9,.3,-.4,0Z" class="gc_12"/>
<path d="M141.5,541.5c0,0,0,-.2,0,-.4c0,-.5,.7,-1.7,1.3,-2.3c1.8,-1.6,3.9,-3,5.7,-3.5c.6,-.2,.6,-.4,-.1,-.3c-.3,.1,-1.3,.3,-2.2,.4c-1,.1,-1.9,.3,-2.1,.4c-.4,.1,-1.2,.6,-1.5,.9c-.2,.3,-.3,.3,-.4,.1c-.1,-.1,.9,-.9,1.4,-1.1c1.1,-.4,1.4,-.5,2.1,-.5c.4,-.1,1.6,-.2,2.6,-.4c1.8,-.3,2,-.3,2.1,0c0,0,-.3,.2,-.7,.3c-2.5,1,-4.4,2,-5.3,2.8c-.2,.2,-.4,.3,-.4,.3c-.1,0,-.2,.1,-.3,.2c-.1,.1,-.3,.4,-.6,.6c-.2,.2,-.5,.6,-.6,.7c-.1,.2,-.3,.5,-.5,.6c-.1,.2,-.2,.5,-.3,.7c0,.3,-.1,.6,-.2,.5Z" class="gc_12"/>
<path d="M132.6,542c-.1,-.2,-.2,-.8,-.1,-1c0,-.1,.3,-.3,.6,-.5c.3,-.2,.7,-.4,.8,-.5l.2,-.2l-.1,.2c-.2,.3,-1,1,-1.2,1.1c-.1,0,-.2,.2,-.2,.4c0,.1,0,.3,0,.5c.1,.1,0,.1,0,0Z" class="gc_12"/>
<path d="M141.5,536.4c.2,-.2,.5,-.2,.5,-.1c0,.1,-.1,.2,-.3,.2q-.4,0,-.2,-.1Z" class="gc_12"/>
<path d="M127.2,566.6c.1,-.1,.1,-.3,.1,-.6c-.1,-.2,-.1,-.9,-.1,-1.4c0,-.5,0,-1,0,-1c0,-.1,0,-.2,0,-.3c0,-.2,.1,-.5,.1,-.8c.1,-1.4,.1,-1.6,.5,-3.1c0,-.3,.1,-.6,.1,-.8c.2,-.9,1.2,-3.2,2.4,-5.4c.6,-1.3,.9,-2,.9,-2.1c0,0,-.3,.4,-.6,1c-.3,.6,-.7,1.4,-.9,1.8c-.9,1.8,-1.9,4,-2,4.5c0,.2,-.2,.6,-.3,.9c0,.2,-.1,.4,-.1,.5c.1,0,-.3,1.3,-.5,1.8c0,.2,-.1,.5,-.1,.8c-.1,.2,-.2,.7,-.2,1c-.3,1,-.5,2.6,-.3,2.9c0,0,.2,.2,.4,.2c.4,.2,.3,.2,.6,.1Z" class="gb_12"/>
<path d="M124.9,559.3c-.1,-.2,-.3,-2,-.3,-3.2c0,-.8,.1,-1.6,.2,-2.2c.1,-.3,.2,-.7,.2,-.8c.1,-.4,.3,-.3,.6,.2c.1,.3,.4,.7,.6,.9l.3,.4l-.1,-.4c-.1,-.3,-.3,-.8,-.5,-1.1c-.4,-.9,-.7,-2.2,-.6,-2.8c.1,-.4,.6,-1.6,.9,-2.2c.2,-.5,.6,-.6,.8,-.3q0,.1,-.2,.2c-.2,0,-.3,.1,-.4,.4c-.7,1.3,-.9,2.3,-.9,2.9c.1,.3,.3,1,.5,1.5c.4,.9,.5,1.2,1,1.8c.3,.4,.5,.8,.5,.9c0,.1,-.6,-.2,-.9,-.5c-.1,-.1,-.2,-.3,-.4,-.5c-.1,-.1,-.4,-.4,-.6,-.7l-.3,-.4l-.1,.2c-.4,.9,-.5,2.5,-.3,4.4c.1,1.1,.1,1.5,0,1.3Z" class="gd_12"/>
<path d="M133.7,555.4c-.2,0,-.4,-.1,-.6,-.1c-.2,-.1,-.4,-.1,-.5,-.1c-.2,0,-.8,-.2,-.8,-.3c0,0,.5,.1,1,.1c1.3,.3,2,.2,2.5,-.1c.4,-.3,.5,-.5,.8,-1.3c.2,-1,.3,-1.1,.3,-1.6c.1,-.6,.2,-1.1,.6,-1.7c.1,-.3,.2,-.5,.2,-.6c0,0,-.2,0,-.5,.1c-.3,.1,-.5,.1,-1.1,-.1l-.6,-.2l.1,-.1c.2,-.2,.8,-.5,1.6,-.6l.7,-.2l.3,-.6c.5,-1.4,1.6,-3.2,2.4,-4.4c.3,-.4,.5,-.8,.4,-.8q0,-.2,-.7,.1q-.7,.3,-.7,.2c0,0,.2,-.1,.3,-.1c.2,-.1,.5,-.3,.8,-.5c.4,-.2,.7,-.3,.8,-.2c.2,.1,-.1,.7,-.5,1.2c-.7,.7,-2,3,-2.6,4.5c-.1,.2,-.2,.6,-.3,.6c0,.1,-.2,.2,-.3,.3c-.8,.1,-1,.1,-1.4,.3q-.5,.2,-.3,.3c0,.1,.3,.1,1,0c.7,-.1,.9,-.1,.9,0c.1,0,-.1,.4,-.3,.8c-.4,.7,-.6,1.4,-.6,2c0,.2,-.1,.6,-.2,1c-.2,.4,-.2,.7,-.2,.7c0,.1,-.1,.3,-.2,.5c-.3,.7,-1.2,1,-2.3,.9Z" class="gd_12"/>
<path d="M131.5,555c0,0,0,-.1,.1,-.1c0,0,.1,0,.1,0q0,.1,-.1,.1q0,.1,-.1,0Z" class="gd_12"/>
<path d="M129.3,550.8c-.6,-.4,-1.3,-1.4,-.9,-1.1c.1,.1,.3,.2,.3,.3c.1,.1,.4,.3,.5,.2c0,0,.5,.5,.6,.8c.1,.1,.1,.2,.1,.2c0,0,-.3,-.1,-.6,-.4Z" class="gd_12"/>
<path d="M128.8,549.7c0,0,-.2,-.2,-.2,-.5c-.1,-.2,-.4,-.8,-.6,-1.3c-.3,-.5,-.5,-1,-.6,-1.1c0,-.2,.8,-1.9,1.2,-2.3c.1,-.1,.4,-.4,.7,-.7c.3,-.3,.6,-.6,.8,-.8c.6,-.4,.9,-.7,1.3,-1c.2,-.2,.4,-.4,.5,-.4c.2,.1,.2,.3,0,.3c0,0,-.4,.3,-.7,.6c-.4,.3,-.7,.5,-.7,.5c-.2,0,-.4,.2,-.9,.9c-.3,.3,-.5,.5,-.6,.5c0,0,-.9,1.4,-1.2,1.8c-.2,.5,-.2,.6,.4,1.8c.8,1.6,.9,2,.6,1.7Z" class="gd_12"/>
<path d="M127.2,548.5c-.1,-.2,-.1,-.3,0,-.3c.1,0,.2,.2,.3,.3c0,.1,0,.2,0,.2c-.1,0,-.2,-.1,-.3,-.2Z" class="gd_12"/>
<path d="M127.6,548.2c0,-.1,-.1,-.3,-.2,-.4c0,-.1,0,-.2,0,-.2c.1,-.1,.5,.5,.5,.7c0,.3,-.2,.2,-.3,-.1Z" class="gd_12"/>
<path d="M138.4,543.1c0,0,.1,-.1,.2,-.1q.1,0,.2,.1c0,0,-.1,.1,-.2,.1c-.1,0,-.2,0,-.2,-.1Z" class="gd_12"/>
<path d="M132.5,543.1c-.1,-.3,.1,-.4,.3,-.2c.1,.3,.1,.5,0,.5c-.1,0,-.2,-.1,-.3,-.3Z" class="gd_12"/>
<path d="M140.3,542c-.1,-.1,.8,-.4,.9,-.3c.1,0,.1,.1,0,.1c-.3,.1,-.9,.2,-.9,.2Z" class="gd_12"/>
<path d="M132.2,542.5c-.1,0,-.1,-.1,0,-.2q0,-.1,.1,.1c0,.1,0,.2,0,.2q-.1,0,-.1,-.1Z" class="gd_12"/>
<path d="M141.6,541.4c-.1,-.2,0,-.9,.2,-1.1c.1,-.2,.3,-.5,.4,-.7c.2,-.3,.4,-.5,.5,-.6c.1,-.1,.3,-.3,.4,-.4c.4,-.4,2,-1.7,2.8,-2.1c.8,-.5,1.9,-.9,2.8,-1.3c.6,-.2,.6,-.4,0,-.3c-.3,.1,-1.3,.3,-2.2,.4c-1.7,.2,-2,.3,-2.4,.4c-.4,.1,-1.2,.7,-1.5,.9c-.1,.2,-.2,.3,-.3,.2c-.2,0,.8,-.9,1.2,-1.1c.7,-.2,1.8,-.5,2.4,-.5c.4,-.1,1.5,-.2,2.4,-.4c.9,-.2,1.8,-.3,1.8,-.3c.3,.1,.3,.3,0,.4c-1.4,.6,-2.5,1,-3.3,1.4c-.8,.4,-1.7,1,-2,1.2c0,0,-.2,.2,-.4,.4c-1,.8,-1.8,1.6,-2,1.9c-.1,.2,-.2,.3,-.3,.3c-.1,0,-.4,.7,-.4,1.1c0,.2,-.1,.3,-.1,.2Z" class="gd_12"/>
<path d="M132.6,541c-.1,-.1,.6,-.5,1,-.8c.3,-.1,.2,0,-.2,.3c-.4,.4,-.7,.6,-.8,.5Z" class="gd_12"/>
<path d="M141.7,536.4q-.1,0,0,-.1c.1,-.1,.3,0,.2,.1c0,0,-.1,.1,-.2,0Z" class="gd_12"/>
<path d="M125.9,562.1c-.1,-.1,-.1,-.2,0,-.2c0,-.1,.1,0,.1,.1c.1,.1,.1,.2,.1,.2c-.1,0,-.2,0,-.2,-.1Z" class="ge_12"/>
<path d="M129,561.6q0,-.1,.1,-.2q.2,0,.2,.1c-.1,.1,-.4,.2,-.3,.1Z" class="ge_12"/>
<path d="M125.7,561.5q-.1,-.1,0,-.1c0,0,.1,.1,.1,.1q0,.2,-.1,0Z" class="ge_12"/>
<path d="M129.5,561.1c0,-.1,.2,-.2,.4,-.4c.2,-.2,.5,-.4,.5,-.6c.2,-.2,.4,-.3,.4,-.2c0,.1,-1,1.1,-1.2,1.2c-.1,.1,-.1,0,-.1,0Z" class="ge_12"/>
<path d="M125.4,560.9c-.1,-.1,-.1,-.3,-.1,-.4q0,-.2,.1,0c0,.1,.1,.3,.1,.4q0,.1,-.1,0Z" class="ge_12"/>
<path d="M131.2,559.3c.2,-.4,1,-1.3,1.1,-1.4q.1,-.1,.2,0c0,0,-.1,.2,-.2,.3c-.2,.2,-.5,.6,-.7,.9c-.5,.6,-.8,.8,-.4,.2Z" class="ge_12"/>
<path d="M124.8,558.8c0,0,0,-.1,0,-.1c.1,-.1,.1,0,.2,0c0,.1,0,.2,0,.2q-.1,0,-.2,-.1Z" class="ge_12"/>
<path d="M132.5,557.7c0,-.3,.6,-1.3,.7,-1.2c.1,0,-.6,1.3,-.7,1.3c0,0,0,-.1,0,-.1Z" class="ge_12"/>
<path d="M124.8,558.2c-.1,-.1,-.1,-.2,-.1,-.3c.1,-.2,.2,-.1,.2,.2c0,.1,-.1,.2,-.1,.1Z" class="ge_12"/>
<path d="M124.7,557.5c0,-.1,0,-.2,0,-.3c.1,-.1,.1,.1,.1,.3v.2Z" class="ge_12"/>
<path d="M133.2,556.2c0,-.1,0,-.2,-.1,-.3c-.1,-.1,0,-.2,.1,-.2c.4,0,.5,.1,.2,.5q-.1,.2,-.2,0Z" class="ge_12"/>
<path d="M124.6,556.4c0,-.3,.1,-.9,.1,-.9c.1,.1,.1,.5,0,.7c0,.2,-.1,.2,-.1,.2Z" class="ge_12"/>
<path d="M134,555.4c-.3,0,-.6,-.1,-.7,-.1q-.2,-.1,.1,-.1c.1,0,.5,0,.9,0c.5,0,.6,0,1,-.3c.3,-.2,.5,-.4,.6,-.6c.2,-.5,.2,-.3,.1,.2c-.1,.3,-.3,.4,-.7,.6c-.5,.3,-.6,.3,-1.3,.3Z" class="ge_12"/>
<path d="M132.4,555.1q-.4,-.1,0,-.1c.1,0,.2,0,.2,.1c.1,0,.1,.1,.1,.1c-.1,-.1,-.2,-.1,-.3,-.1Z" class="ge_12"/>
<path d="M127,555.3c-.3,-.2,-.5,-.6,-.4,-.6c.1,0,0,-.2,-.1,-.4c-.3,-.5,-1,-2.1,-1,-2.3c0,-.1,.1,0,.3,.5c.2,.3,.6,1.1,1,1.8c.3,.6,.6,1.2,.6,1.2c-.1,0,-.2,-.1,-.4,-.2Z" class="ge_12"/>
<path d="M124.7,555.1c-.1,-.1,0,-.9,.2,-1c0,0,0,.1,0,.3c0,.4,-.1,.8,-.2,.7Z" class="ge_12"/>
<path d="M136.1,553.6c0,-.1,.1,-.3,.1,-.3q.1,-.1,.1,0c0,.1,-.1,.3,-.1,.3c-.1,.2,-.1,.1,-.1,0Z" class="ge_12"/>
<path d="M126.2,554.4c-.1,-.1,-.1,-.2,0,-.1c0,.1,.1,.1,.1,.2c0,.1,0,0,-.1,-.1Z" class="ge_12"/>
<path d="M124.9,554c0,-.1,0,-.3,.1,-.4c0,-.1,.1,-.4,.1,-.5c0,-.3,.3,-.2,.4,.2c0,.2,0,.3,0,.2c-.1,-.1,-.4,-.2,-.4,0c.1,.1,-.1,.6,-.2,.5Z" class="ge_12"/>
<path d="M136.3,552.9c0,0,.1,-.2,.1,-.3q.1,-.3,.1,.1c0,.2,-.1,.3,-.2,.2Z" class="ge_12"/>
<path d="M136.5,551.7c0,-.1,0,-.3,.1,-.3c0,0,.1,0,0,.1c0,.1,0,.2,0,.3q-.1,0,-.1,-.1Z" class="ge_12"/>
<path d="M136.7,551.1c-.1,-.1,.1,-.6,.3,-.9c.2,-.2,.2,-.4,.2,-.4c-.1,-.1,-.3,-.1,-.7,-.1c-.7,.2,-.8,0,-.1,-.1c.4,-.1,.8,-.2,.9,-.2c.3,-.1,.3,.2,-.1,1c-.3,.4,-.5,.7,-.5,.7Z" class="ge_12"/>
<path d="M129.5,551c-.1,-.1,-.3,-.3,-.5,-.4c-.3,-.2,-.7,-.8,-.5,-.7c.1,0,.2,.1,.2,.2c.1,0,.3,.2,.4,.2c.2,.1,.4,.3,.6,.5c.3,.4,.2,.5,-.2,.2Z" class="ge_12"/>
<path d="M125.3,551c0,-.1,0,-.3,0,-.5c.1,-.3,.6,-1.6,.7,-1.7c.1,-.1,.1,.1,-.2,.8c-.1,.5,-.3,1,-.3,1.2q-.1,.4,-.2,.2Z" class="ge_12"/>
<path d="M135.4,549.6c-.2,0,-.3,-.1,-.3,-.1c-.1,-.1,.7,-.5,1,-.5c.3,-.1,.2,0,-.2,.2c-.5,.1,-.6,.2,-.4,.4q.2,.1,-.1,0Z" class="ge_12"/>
<path d="M128.8,549.6c-.1,-.1,-.1,-.3,-.2,-.4q0,-.2,.1,-.1c0,.2,.1,.3,.1,.4q.1,.2,0,.1Z" class="ge_12"/>
<path d="M136.9,548.8c.1,-.1,.2,-.1,.3,0c.1,0,0,0,-.2,.1q-.3,0,-.1,-.1Z" class="ge_12"/>
<path d="M137.5,548.4c.1,-.1,.2,-.3,.2,-.3c.1,0,-.1,.6,-.2,.6c0,0,0,-.1,0,-.3Z" class="ge_12"/>
<path d="M128.4,548.6c-.1,0,-.2,-.2,-.1,-.2q0,-.2,.1,.1c.2,.2,.2,.3,0,.1Z" class="ge_12"/>
<path d="M137.9,547.6c0,-.1,.1,-.2,.2,-.2c.1,.1,-.1,.4,-.2,.4c-.1,.1,-.1,0,0,-.2Z" class="ge_12"/>
<path d="M127.3,548.5c-.1,-.1,-.1,-.2,0,-.1q.2,.1,.1,.2q0,.1,-.1,-.1Z" class="ge_12"/>
<path d="M126,548.6c-.1,-.2,.5,-1,.7,-1c.3,.1,.3,.2,.1,.3c-.2,.1,-.4,.2,-.5,.4c-.1,.3,-.2,.4,-.3,.3Z" class="ge_12"/>
<path d="M127.6,548.1c-.1,-.2,-.1,-.4,-.1,-.4c.1,-.1,.4,.4,.3,.6c0,.1,0,0,-.2,-.2Z" class="ge_12"/>
<path d="M138,547.2c0,-.1,.2,-.5,.3,-.5c.1,0,.1,-.1,.2,-.3c.1,-.4,1,-1.8,2,-3.3c.1,-.2,.1,-.3,0,-.4q-.1,-.2,.1,-.3c.1,-.1,.2,-.2,.3,-.1c.2,.1,0,.7,-.2,.9c-.3,.3,-1.4,2,-1.7,2.5c-.6,1.2,-.9,1.6,-1,1.5Z" class="ge_12"/>
<path d="M127.9,547.6c-.1,0,-.1,-.1,0,-.1c0,0,.1,0,.1,.1c0,0,0,.1,0,.1c0,0,-.1,0,-.1,-.1Z" class="ge_12"/>
<path d="M127.5,547.1c0,-.1,0,-.2,0,-.3q0,-.1,.1,.1c.1,.2,.2,.3,.1,.3c0,0,-.1,-.1,-.2,-.1Z" class="ge_12"/>
<path d="M127.7,546.3c-.1,-.1,0,-.4,.1,-.4c.1,0,.1,.1,0,.3c0,.1,-.1,.1,-.1,.1Z" class="ge_12"/>
<path d="M128,545.5c0,-.1,.1,-.3,.3,-.4c.1,-.2,.2,-.3,.2,-.4c.1,-.1,.1,-.2,.2,-.2c.1,0,0,.2,-.4,.7c-.2,.3,-.3,.4,-.3,.3Z" class="ge_12"/>
<path d="M129,544.2c.3,-.4,.8,-.9,.8,-.9c.1,.1,-.4,.7,-.7,1l-.2,.2Z" class="ge_12"/>
<path d="M132.7,543.3c-.2,-.1,-.2,-.4,-.1,-.4c.1,0,.3,.4,.2,.4c0,.1,-.1,.1,-.1,0Z" class="ge_12"/>
<path d="M136.3,542.8c.1,-.1,.2,-.2,.3,-.2c0,0,0,.1,-.1,.2c-.1,.2,-.2,.2,-.3,.3c0,0,0,-.1,.1,-.3Z" class="ge_12"/>
<path d="M130.6,542.7c.1,-.1,.2,-.1,.3,-.2c.1,0,-.2,.4,-.4,.4c-.1,0,0,-.1,.1,-.2Z" class="ge_12"/>
<path d="M140.7,541.9c-.1,-.1,0,-.1,.1,-.2c.2,0,.4,-.1,.4,0c0,.1,-.4,.2,-.5,.2Z" class="ge_12"/>
<path d="M131.3,542c.2,-.3,.5,-.4,.6,-.2c.1,0,-.2,.3,-.7,.5c0,.1,0,-.1,.1,-.3Z" class="ge_12"/>
<path d="M141.6,540.7c0,0,.1,-.2,.1,-.3c.1,-.1,.2,-.2,.2,-.1c0,0,0,.1,-.1,.2q-.1,.2,-.2,.2Z" class="ge_12"/>
<path d="M142.2,539.7c.2,-.4,.8,-1,2.4,-2.3c.8,-.6,2.6,-1.6,3.6,-2c1,-.3,1.1,-.4,1.1,-.5c-.2,-.3,.7,-.5,.9,-.3c.2,.1,.1,.3,-.1,.3c-.1,0,-.5,.2,-.8,.3c-.4,.2,-1,.4,-1.3,.6c-1.1,.4,-1.9,.8,-2.4,1.1c-.2,.2,-.5,.4,-.6,.4c-.1,.1,-.4,.3,-.5,.4c-.2,.2,-.4,.4,-.4,.4c0,0,-.2,.1,-.4,.2c-1.1,1.1,-1.3,1.3,-1.3,1.5c0,.1,-.1,.2,-.2,.2q-.1,0,0,-.3Z" class="ge_12"/>
<path d="M133,540.7c0,0,0,-.1,.1,-.1c0,0,.1,.1,0,.1q0,.1,-.1,.1v-.1Z" class="ge_12"/>
<path d="M142.3,536.8c0,0,0,-.1,.1,-.2c.1,0,.2,-.1,.2,-.1c0,0,0,.1,-.1,.2c-.1,.1,-.2,.1,-.2,.1Z" class="ge_12"/>
<path d="M143,536.1c.1,-.2,.5,-.4,.5,-.2c.1,0,-.3,.3,-.5,.4q-.2,0,0,-.2Z" class="ge_12"/>
<path d="M144.6,535.5c.1,-.1,.2,-.1,.3,-.1c.1,-.1,.1,0,0,0c-.1,.1,-.2,.1,-.3,.1q-.1,0,0,0Z" class="ge_12"/>
<path d="M145.2,535.3c.1,0,.4,-.1,.9,-.2c.6,0,.9,0,.9,0c0,.1,-.4,.2,-.9,.2c-.6,.1,-.9,.1,-.9,0Z" class="ge_12"/>
<path d="M147.1,535.1c.1,0,.4,-.1,.9,-.2c.5,0,.7,0,.6,0c-.3,.1,-1.5,.3,-1.5,.2Z" class="ge_12"/>
<path d="M125.8,568.9c0,0,0,-.4,0,-.8c0,-.3,0,-.7,0,-.7c0,-.1,0,-.8,0,-1q.1,-.1,.5,.1c.9,.4,1.2,.3,1,-.7c-.1,-1.1,.1,-1.2,.3,-.2c.1,.7,.1,.9,-.2,1.1c-.6,.5,-1.5,1.9,-1.4,2.1c.1,.1,0,.1,-.1,.1c0,0,-.1,0,-.1,0Z" class="gf_12"/>
<path d="M127.3,564.8c0,-.1,0,-.7,.1,-.8c.1,-.1,.1,.1,.1,.5c-.1,.3,-.1,.4,-.2,.3Z" class="gf_12"/>
<path d="M127.3,563.6c0,-.1,0,-.3,0,-.6c0,-.2,.1,-.7,.1,-1.1c.1,-.9,.5,-3.2,.7,-3.2c0,0,0,.2,0,.3c0,.2,-.1,.4,-.1,.6c0,.1,-.1,.4,-.1,.6c-.2,.6,-.3,2,-.1,2.2c0,0,0,.1,-.1,.1c0,.1,-.1,.3,-.2,.6c0,.5,-.1,.6,-.2,.5Z" class="gf_12"/>
<path d="M126.3,563.3c-.1,-.1,-.1,-.2,0,-.2c0,-.1,0,-.2,0,-.4c-.1,-.2,.2,-.6,.3,-.4c0,0,-.2,1,-.3,1Z" class="gf_12"/>
<path d="M125.9,562.1c-.1,-.1,-.1,-.2,0,-.2c0,-.1,.1,0,.1,.1c.1,.1,.1,.2,.1,.2c-.1,0,-.2,0,-.2,-.1Z" class="gf_12"/>
<path d="M126.5,562c0,-.1,0,-.4,.2,-.8c.1,-.4,.2,-1.1,.3,-1.4c.1,-.4,.2,-.8,.3,-.8c.1,-.1,.1,0,0,.3c0,.2,-.1,.5,-.1,.6c-.1,.7,-.6,2.2,-.7,2.1Z" class="gf_12"/>
<path d="M129,561.6q0,-.1,.1,-.2q.2,0,.2,.1c-.1,.1,-.4,.2,-.3,.1Z" class="gf_12"/>
<path d="M125.7,561.5q-.1,-.1,0,-.1c0,0,.1,.1,.1,.1q0,.2,-.1,0Z" class="gf_12"/>
<path d="M129.5,561.1c0,-.1,.2,-.2,.4,-.4c.2,-.2,.5,-.4,.5,-.6c.2,-.2,.4,-.3,.4,-.2c0,.1,-1,1.1,-1.2,1.2c-.1,.1,-.1,0,-.1,0Z" class="gf_12"/>
<path d="M125.4,560.9c-.1,-.1,-.1,-.3,-.1,-.4q0,-.2,.1,0c0,.1,.1,.3,.1,.4q0,.1,-.1,0Z" class="gf_12"/>
<path d="M131.2,559.3c.2,-.4,1,-1.3,1.1,-1.4q.1,-.1,.2,0c0,0,-.1,.2,-.2,.3c-.2,.2,-.5,.6,-.7,.9c-.5,.6,-.8,.8,-.4,.2Z" class="gf_12"/>
<path d="M124.8,558.8c0,0,0,-.1,0,-.1c.1,-.1,.1,0,.2,0c0,.1,0,.2,0,.2q-.1,0,-.2,-.1Z" class="gf_12"/>
<path d="M128.1,558.6c0,-.5,1.5,-4,2.7,-6.2c.2,-.5,.5,-1,.5,-1.1c0,-.4,.2,-.5,.3,-.4c.1,.2,-.2,.9,-1.3,2.8c-.5,1,-1,2.2,-1.2,2.5c-.2,.6,-.6,1.5,-.9,2.2q-.1,.2,-.1,.2Z" class="gf_12"/>
<path d="M127.5,558.2l.1,-.1c0,0,.1,0,.1,.1c0,0,0,.1,0,.1q-.1,0,-.2,-.1Z" class="gf_12"/>
<path d="M132.5,557.7c0,-.3,.6,-1.3,.7,-1.2c.1,0,-.6,1.3,-.7,1.3c0,0,0,-.1,0,-.1Z" class="gf_12"/>
<path d="M124.8,558.2c-.1,-.1,-.1,-.2,-.1,-.3c.1,-.2,.2,-.1,.2,.2c0,.1,-.1,.2,-.1,.1Z" class="gf_12"/>
<path d="M127.6,557.7q0,-.1,.1,-.2q.1,0,.1,.1c.1,.1,-.1,.2,-.2,.1Z" class="gf_12"/>
<path d="M124.7,557.5c0,-.1,0,-.2,0,-.3c.1,-.1,.1,.1,.1,.3v.2Z" class="gf_12"/>
<path d="M127.9,557.3c-.1,-.1,.3,-.7,.4,-.7c0,0,-.1,.2,-.2,.4c-.1,.3,-.2,.3,-.2,.3Z" class="gf_12"/>
<path d="M133.2,556.2c0,-.1,0,-.2,-.1,-.3c-.1,-.1,0,-.2,.1,-.2c.4,0,.5,.1,.2,.5q-.1,.2,-.2,0Z" class="gf_12"/>
<path d="M128.3,556.4c0,-.1,.2,-.6,.5,-1.1c.3,-.5,.4,-.7,.3,-.4c-.2,.4,-.9,1.8,-.8,1.5Z" class="gf_12"/>
<path d="M124.6,556.4c0,-.3,.1,-.9,.1,-.9c.1,.1,.1,.5,0,.7c0,.2,-.1,.2,-.1,.2Z" class="gf_12"/>
<path d="M134,555.4c-.3,0,-.6,-.1,-.7,-.1q-.2,-.1,.1,-.1c.1,0,.5,0,.9,0c.5,0,.6,0,1,-.3c.3,-.2,.5,-.4,.6,-.6c.2,-.5,.2,-.3,.1,.2c-.1,.3,-.3,.4,-.7,.6c-.5,.3,-.6,.3,-1.3,.3Z" class="gf_12"/>
<path d="M132.4,555.1q-.4,-.1,0,-.1c.1,0,.2,0,.2,.1c.1,0,.1,.1,.1,.1c-.1,-.1,-.2,-.1,-.3,-.1Z" class="gf_12"/>
<path d="M127,555.3c-.3,-.2,-.5,-.6,-.4,-.6c.1,0,0,-.2,-.1,-.4c-.3,-.5,-1,-2.1,-1,-2.3c0,-.1,.1,0,.3,.5c.2,.3,.6,1.1,1,1.8c.3,.6,.6,1.2,.6,1.2c-.1,0,-.2,-.1,-.4,-.2Z" class="gf_12"/>
<path d="M124.7,555.1c-.1,-.1,0,-.9,.2,-1c0,0,0,.1,0,.3c0,.4,-.1,.8,-.2,.7Z" class="gf_12"/>
<path d="M136.1,553.6c0,-.1,.1,-.3,.1,-.3q.1,-.1,.1,0c0,.1,-.1,.3,-.1,.3c-.1,.2,-.1,.1,-.1,0Z" class="gf_12"/>
<path d="M126.2,554.4c-.1,-.1,-.1,-.2,0,-.1c0,.1,.1,.1,.1,.2c0,.1,0,0,-.1,-.1Z" class="gf_12"/>
<path d="M129.3,554c.1,-.1,.2,-.2,.2,-.2c.1,0,0,.3,-.1,.4c-.2,.1,-.2,0,-.1,-.2Z" class="gf_12"/>
<path d="M129.8,553.1c.1,-.3,.3,-.6,.3,-.6c0,0,.2,-.5,.5,-1c.2,-.5,.6,-1.1,.7,-1.4c.2,-.2,.5,-.7,.8,-1.1c.4,-.7,.6,-1,.7,-.9c0,.1,-.2,.5,-1,1.6c-.2,.4,-.5,.9,-.7,1.1c-.1,.3,-.3,.8,-.5,1.2c-.2,.4,-.5,.9,-.6,1.2c-.3,.6,-.5,.6,-.2,-.1Z" class="gf_12"/>
<path d="M124.9,554c0,-.1,0,-.3,.1,-.4c0,-.1,.1,-.4,.1,-.5c0,-.3,.3,-.2,.4,.2c0,.2,0,.3,0,.2c-.1,-.1,-.4,-.2,-.4,0c.1,.1,-.1,.6,-.2,.5Z" class="gf_12"/>
<path d="M136.3,552.9c0,0,.1,-.2,.1,-.3q.1,-.3,.1,.1c0,.2,-.1,.3,-.2,.2Z" class="gf_12"/>
<path d="M136.5,551.7c0,-.1,0,-.3,.1,-.3c0,0,.1,0,0,.1c0,.1,0,.2,0,.3q-.1,0,-.1,-.1Z" class="gf_12"/>
<path d="M136.7,551.1c-.1,-.1,.1,-.6,.3,-.9c.2,-.2,.2,-.4,.2,-.4c-.1,-.1,-.3,-.1,-.7,-.1c-.7,.2,-.8,0,-.1,-.1c.4,-.1,.8,-.2,.9,-.2c.3,-.1,.3,.2,-.1,1c-.3,.4,-.5,.7,-.5,.7Z" class="gf_12"/>
<path d="M129.5,551c-.1,-.1,-.3,-.3,-.5,-.4c-.3,-.2,-.7,-.8,-.5,-.7c.1,0,.2,.1,.2,.2c.1,0,.3,.2,.4,.2c.2,.1,.4,.3,.6,.5c.3,.4,.2,.5,-.2,.2Z" class="gf_12"/>
<path d="M125.3,551c0,-.1,0,-.3,0,-.5c.1,-.3,.6,-1.6,.7,-1.7c.1,-.1,.1,.1,-.2,.8c-.1,.5,-.3,1,-.3,1.2q-.1,.4,-.2,.2Z" class="gf_12"/>
<path d="M135.4,549.6c-.2,0,-.3,-.1,-.3,-.1c-.1,-.1,.7,-.5,1,-.5c.3,-.1,.2,0,-.2,.2c-.5,.1,-.6,.2,-.4,.4q.2,.1,-.1,0Z" class="gf_12"/>
<path d="M128.8,549.6c-.1,-.1,-.1,-.3,-.2,-.4q0,-.2,.1,-.1c0,.2,.1,.3,.1,.4q.1,.2,0,.1Z" class="gf_12"/>
<path d="M136.9,548.8c.1,-.1,.2,-.1,.3,0c.1,0,0,0,-.2,.1q-.3,0,-.1,-.1Z" class="gf_12"/>
<path d="M137.5,548.4c.1,-.1,.2,-.3,.2,-.3c.1,0,-.1,.6,-.2,.6c0,0,0,-.1,0,-.3Z" class="gf_12"/>
<path d="M128.4,548.6c-.1,0,-.2,-.2,-.1,-.2q0,-.2,.1,.1c.2,.2,.2,.3,0,.1Z" class="gf_12"/>
<path d="M137.9,547.6c0,-.1,.1,-.2,.2,-.2c.1,.1,-.1,.4,-.2,.4c-.1,.1,-.1,0,0,-.2Z" class="gf_12"/>
<path d="M127.3,548.5c-.1,-.1,-.1,-.2,0,-.1q.2,.1,.1,.2q0,.1,-.1,-.1Z" class="gf_12"/>
<path d="M126,548.6c-.1,-.2,.5,-1,.7,-1c.3,.1,.3,.2,.1,.3c-.2,.1,-.4,.2,-.5,.4c-.1,.3,-.2,.4,-.3,.3Z" class="gf_12"/>
<path d="M127.6,548.1c-.1,-.2,-.1,-.4,-.1,-.4c.1,-.1,.4,.4,.3,.6c0,.1,0,0,-.2,-.2Z" class="gf_12"/>
<path d="M133,547.5c.1,-.2,.2,-.3,.3,-.3c.1,.1,-.3,.7,-.4,.7c-.1,0,0,-.2,.1,-.4Z" class="gf_12"/>
<path d="M138,547.2c0,-.1,.2,-.5,.3,-.5c.1,0,.1,-.1,.2,-.3c.1,-.4,1,-1.8,2,-3.3c.1,-.2,.1,-.3,0,-.4q-.1,-.2,.1,-.3c.1,-.1,.2,-.2,.3,-.1c.2,.1,0,.7,-.2,.9c-.3,.3,-1.4,2,-1.7,2.5c-.6,1.2,-.9,1.6,-1,1.5Z" class="gf_12"/>
<path d="M127.9,547.6c-.1,0,-.1,-.1,0,-.1c0,0,.1,0,.1,.1c0,0,0,.1,0,.1c0,0,-.1,0,-.1,-.1Z" class="gf_12"/>
<path d="M133.4,547c0,0,.5,-.9,.8,-1.4c.1,-.1,.3,-.4,.4,-.6c.2,-.4,.8,-1,.9,-1c0,0,0,.1,-.1,.3c-.1,.1,-.3,.2,-.3,.3c-.1,.1,-.3,.4,-.5,.7c-.3,.4,-.6,.8,-.7,1.1c-.3,.5,-.4,.7,-.5,.6Z" class="gf_12"/>
<path d="M127.5,547.1c0,-.1,0,-.2,0,-.3q0,-.1,.1,.1c.1,.2,.2,.3,.1,.3c0,0,-.1,-.1,-.2,-.1Z" class="gf_12"/>
<path d="M127.7,546.3c-.1,-.1,0,-.4,.1,-.4c.1,0,.1,.1,0,.3c0,.1,-.1,.1,-.1,.1Z" class="gf_12"/>
<path d="M128,545.5c0,-.1,.1,-.3,.3,-.4c.1,-.2,.2,-.3,.2,-.4c.1,-.1,.1,-.2,.2,-.2c.1,0,0,.2,-.4,.7c-.2,.3,-.3,.4,-.3,.3Z" class="gf_12"/>
<path d="M129,544.2c.3,-.4,.8,-.9,.8,-.9c.1,.1,-.4,.7,-.7,1l-.2,.2Z" class="gf_12"/>
<path d="M135.9,543.4c.1,-.2,.2,-.3,.2,-.2c0,0,0,.1,-.1,.2l-.2,.2Z" class="gf_12"/>
<path d="M132.7,543.3c-.2,-.1,-.2,-.4,-.1,-.4c.1,0,.3,.4,.2,.4c0,.1,-.1,.1,-.1,0Z" class="gf_12"/>
<path d="M130.6,542.7c.1,-.1,.2,-.1,.3,-.2c.1,0,-.2,.4,-.4,.4c-.1,0,0,-.1,.1,-.2Z" class="gf_12"/>
<path d="M140.7,541.9c-.1,-.1,0,-.1,.1,-.2c.2,0,.4,-.1,.4,0c0,.1,-.4,.2,-.5,.2Z" class="gf_12"/>
<path d="M131.3,542c.2,-.3,.5,-.4,.6,-.2c.1,0,-.2,.3,-.7,.5c0,.1,0,-.1,.1,-.3Z" class="gf_12"/>
<path d="M141.6,540.7c0,0,.1,-.2,.1,-.3c.1,-.1,.2,-.2,.2,-.1c0,0,0,.1,-.1,.2q-.1,.2,-.2,.2Z" class="gf_12"/>
<path d="M142.2,539.7c.2,-.4,.8,-1,2.4,-2.3c.8,-.6,2.6,-1.6,3.6,-2c1,-.3,1.1,-.4,1.1,-.5c-.2,-.3,.7,-.5,.9,-.3c.2,.1,.1,.3,-.1,.3c-.1,0,-.5,.2,-.8,.3c-.4,.2,-1,.4,-1.3,.6c-1.1,.4,-1.9,.8,-2.4,1.1c-.2,.2,-.5,.4,-.6,.4c-.1,.1,-.4,.3,-.5,.4c-.2,.2,-.4,.4,-.4,.4c0,0,-.2,.1,-.4,.2c-1.1,1.1,-1.3,1.3,-1.3,1.5c0,.1,-.1,.2,-.2,.2q-.1,0,0,-.3Z" class="gf_12"/>
<path d="M133,540.7c0,0,0,-.1,.1,-.1c0,0,.1,.1,0,.1q0,.1,-.1,.1v-.1Z" class="gf_12"/>
<path d="M142.3,536.8c0,0,0,-.1,.1,-.2c.1,0,.2,-.1,.2,-.1c0,0,0,.1,-.1,.2c-.1,.1,-.2,.1,-.2,.1Z" class="gf_12"/>
<path d="M143,536.1c.1,-.2,.5,-.4,.5,-.2c.1,0,-.3,.3,-.5,.4q-.2,0,0,-.2Z" class="gf_12"/>
<path d="M144.6,535.5c.1,-.1,.2,-.1,.3,-.1c.1,-.1,.1,0,0,0c-.1,.1,-.2,.1,-.3,.1q-.1,0,0,0Z" class="gf_12"/>
<path d="M145.2,535.3c.1,0,.4,-.1,.9,-.2c.6,0,.9,0,.9,0c0,.1,-.4,.2,-.9,.2c-.6,.1,-.9,.1,-.9,0Z" class="gf_12"/>
<path d="M147.1,535.1c.1,0,.4,-.1,.9,-.2c.5,0,.7,0,.6,0c-.3,.1,-1.5,.3,-1.5,.2Z" class="gf_12"/>
<path d="M128.2,548.6q-.1,-.2,-.1,-.1c-.1,.2,0,.4,.1,.3c.1,0,.1,-.1,0,-.2Z" class="ga_12"/>
</g>
<path d="M152.7,564h195" class="g0_12"/>
<path d="M137.6,572.2v269" class="gh_12"/>
</svg>