<?xml version="1.0" encoding="UTF-8" standalone="no"?>
<!DOCTYPE svg PUBLIC "-//W3C//DTD SVG 1.1//EN"
"http://www.w3.org/Graphics/SVG/1.1/DTD/svg11.dtd">
<svg viewBox="0 0 1286 909" version="1.1" xmlns="http://www.w3.org/2000/svg" xmlns:xlink="http://www.w3.org/1999/xlink">
<defs>
<style type="text/css"><![CDATA[
.g0_590{
fill: none;
stroke: #000000;
stroke-width: 0.73;
stroke-linecap: butt;
stroke-linejoin: miter;
}
.g1_590{
fill: none;
stroke: #02B5EE;
stroke-width: 1.262;
stroke-linecap: butt;
stroke-linejoin: miter;
}
.g2_590{
fill: none;
stroke: #5EE200;
stroke-width: 1.262;
stroke-linecap: butt;
stroke-linejoin: miter;
}
.g3_590{
fill: none;
stroke: #5EE200;
stroke-width: 0.73;
stroke-linecap: butt;
stroke-linejoin: miter;
}
.g4_590{
fill: none;
stroke: #02B5EE;
stroke-width: 0.73;
stroke-linecap: butt;
stroke-linejoin: miter;
}
]]></style>
</defs>
<path d="M193,83.4h900.3M193,210.6H988.4m-795.4,0H988.4M430.3,240.2V211m0,58.5V240.2m0,60.1V269.5m0,60V300.3m0,58.4V329.5m0,114.3V358.7" class="g0_590"/>
<path d="M441.3,419.8h67.4" class="g1_590"/>
<path d="M740.3,419.8h73.6" class="g2_590"/>
<path d="M430.3,473V443.8m0,102.3V473" class="g0_590"/>
<path d="M707.2,532.2h84.4" class="g3_590"/>
<path d="M893,532.2h84.4" class="g4_590"/>
<path d="M430.3,577.4V546.1m0,60.5V577.4m0,58.4V606.6m0,114.3V635.8" class="g0_590"/>
<path d="M704,696.9H848.1" class="g1_590"/>
<path d="M430.3,750.1V720.9M193,750.4H988.4m-795.4,0H988.4" class="g0_590"/>
</svg>