<?xml version="1.0" encoding="UTF-8" standalone="no"?>
<!DOCTYPE svg PUBLIC "-//W3C//DTD SVG 1.1//EN"
"http://www.w3.org/Graphics/SVG/1.1/DTD/svg11.dtd">
<svg viewBox="0 0 1286 909" version="1.1" xmlns="http://www.w3.org/2000/svg" xmlns:xlink="http://www.w3.org/1999/xlink">
<defs>
<style type="text/css"><![CDATA[
.g0_471{
fill: none;
stroke: #000000;
stroke-width: 0.73;
stroke-linecap: butt;
stroke-linejoin: miter;
}
.g1_471{
fill: none;
stroke: #02B5EE;
stroke-width: 1.262;
stroke-linecap: butt;
stroke-linejoin: miter;
}
.g2_471{
fill: none;
stroke: #02B5EE;
stroke-width: 0.73;
stroke-linecap: butt;
stroke-linejoin: miter;
}
]]></style>
</defs>
<path d="M193,83.4h900.3M193,111.6H862.1m-669.1,0H862.1M454.6,141.2V112m0,58.5V141.2m0,114.3v-85" class="g0_471"/>
<path d="M465.6,231.5h222" class="g1_471"/>
<path d="M454.6,284.7V255.5m0,102.3V284.7" class="g0_471"/>
<path d="M648.4,343.9H851.1" class="g2_471"/>
<path d="M454.6,387V357.8m0,58.4V387m0,114.2v-85" class="g0_471"/>
<path d="M499.7,477.3h222" class="g1_471"/>
<path d="M454.6,530.5V501.2m0,102.3v-73" class="g0_471"/>
<path d="M648.4,589.6H851.1" class="g2_471"/>
<path d="M454.6,632.7V603.5m0,58.5V632.7m0,58.5V662M193,691.6H862.1m-669.1,0H862.1" class="g0_471"/>
</svg>