<?xml version="1.0" encoding="UTF-8" standalone="no"?>
<!DOCTYPE svg PUBLIC "-//W3C//DTD SVG 1.1//EN"
"http://www.w3.org/Graphics/SVG/1.1/DTD/svg11.dtd">
<svg viewBox="0 0 1286 909" version="1.1" xmlns="http://www.w3.org/2000/svg" xmlns:xlink="http://www.w3.org/1999/xlink">
<defs>
<style type="text/css"><![CDATA[
.g0_440{
fill: none;
stroke: #000000;
stroke-width: 0.73;
stroke-linecap: butt;
stroke-linejoin: miter;
}
.g1_440{
fill: none;
stroke: #5EE200;
stroke-width: 0.73;
stroke-linecap: butt;
stroke-linejoin: miter;
}
.g2_440{
fill: none;
stroke: #02B5EE;
stroke-width: 0.73;
stroke-linecap: butt;
stroke-linejoin: miter;
}
.g3_440{
fill: none;
stroke: #02B5EE;
stroke-width: 1.262;
stroke-linecap: butt;
stroke-linejoin: miter;
}
.g4_440{
fill: none;
stroke: #5EE200;
stroke-width: 1.262;
stroke-linecap: butt;
stroke-linejoin: miter;
}
.g5_440{
fill: #FFCCCC;
}
]]></style>
</defs>
<path d="M193,83.4h900.3M193,111.6H799.4m-606.4,0H799.4M478.9,141.2V112m0,102.3V141.2" class="g0_440"/>
<path d="M686.5,200.4h68.2" class="g1_440"/>
<path d="M754.7,200.4h33.8" class="g2_440"/>
<path d="M478.9,243.5V214.3m0,58.4V243.5m0,114.3V272.7" class="g0_440"/>
<path d="M537.5,333.8h63.6" class="g3_440"/>
<path d="M611.6,333.8H788.5" class="g4_440"/>
<path d="M478.9,387.9V357.8m0,103.2V387.9" class="g0_440"/>
<path d="M686.5,447.1h68.2" class="g1_440"/>
<path d="M754.7,447.1h33.8" class="g2_440"/>
<path d="M478.9,490.2V461m0,58.4V490.2m0,114.3V519.4" class="g0_440"/>
<path d="M489.9,580.5h70" class="g3_440"/>
<path d="M570.4,580.5h95.3" class="g4_440"/>
<path d="M686.7,568.8H788.5V535.9H686.7v32.9Z" class="g5_440"/>
<path d="M478.9,634.6V604.5m0,103.2V634.6" class="g0_440"/>
<path d="M539,693.8h84.5" class="g1_440"/>
<path d="M629.6,684h91.3V651.1H629.6V684Z" class="g5_440"/>
<path d="M720.9,693.8h67.6" class="g2_440"/>
<path d="M478.9,736.9V707.7M193,737.3H799.4m-606.4,0H799.4" class="g0_440"/>
</svg>