<?xml version="1.0" encoding="UTF-8" standalone="no"?>
<!DOCTYPE svg PUBLIC "-//W3C//DTD SVG 1.1//EN"
"http://www.w3.org/Graphics/SVG/1.1/DTD/svg11.dtd">
<svg viewBox="0 0 909 1286" version="1.1" xmlns="http://www.w3.org/2000/svg" xmlns:xlink="http://www.w3.org/1999/xlink">
<defs>
<clipPath id="c0_13"><path d="M123.1,867.6V835.9h29.1v31.7Z"/></clipPath>
<clipPath id="c1_13"><path d="M122.1,868.1V835.4H153v32.7Z"/></clipPath>
<style type="text/css"><![CDATA[
.g0_13{
fill: none;
stroke: #000000;
stroke-width: 0.73;
stroke-linecap: butt;
stroke-linejoin: miter;
}
.g1_13{
fill: none;
stroke: #000000;
stroke-width: 1.051;
stroke-linecap: butt;
stroke-linejoin: miter;
}
.g2_13{
fill: #FFFFFF;
}
.g3_13{
}
.g4_13{
fill: none;
stroke: #000000;
stroke-width: 0.459;
stroke-linecap: butt;
stroke-linejoin: round;
}
.g5_13{
fill: none;
stroke: #000000;
stroke-width: 0.722;
stroke-linecap: round;
stroke-linejoin: miter;
}
.g6_13{
fill: none;
stroke: #000000;
stroke-width: 0.722;
stroke-linecap: round;
stroke-linejoin: round;
}
.g7_13{
fill: #D40000;
}
.g8_13{
fill: none;
stroke: #000000;
stroke-width: 0.578;
stroke-linecap: round;
stroke-linejoin: miter;
}
.g9_13{
fill: #E9C6AF;
}
.ga_13{
fill: none;
stroke: #695000;
stroke-width: 0.152;
stroke-linecap: round;
stroke-linejoin: round;
}
.gb_13{
fill: none;
stroke: #000000;
stroke-width: 1.461;
stroke-linecap: butt;
stroke-linejoin: miter;
}
.gc_13{
fill: none;
stroke: #000000;
stroke-width: 2.739;
stroke-linecap: butt;
stroke-linejoin: miter;
}
]]></style>
</defs>
<path d="M116.9,159.9H792.5M479.1,246.7h49.2m-48.1,253h49.2M380,580.6h48.6m28.7,0h50.9" class="g0_13"/>
<path d="M356.6,720.2h45.7" class="g1_13"/>
<path d="M117.7,1094.9V829.1H791.8v265.8Z" class="g2_13"/>
<path d="M117.7,1094.9V829.1H791.8v265.8Zm263.4,-71.4h37.7m102.9,0h63.4" class="gb_13"/>
<g clip-path="url(#c1_13)">
<path clip-path="url(#c0_13)" d="M126.4,861.2c0,0,1.5,-.9,1.2,-1.2c-.1,-.1,-.3,-.1,-.6,-.1c-1.6,.4,-5,2.1,-3.3,4.2c1.4,1.5,6.4,2.4,11.7,1.3c7.3,-1.4,13.5,-5.4,11.1,-8.3c-1.6,-1.9,-6.7,-2.1,-10.8,-2.2c-2.1,0,-6.6,0,-8,-1.7c-.6,-.7,-.5,-1.6,.1,-2.1c1,-.9,3.8,-1.5,4,-1.5c.7,-.1,2.5,-.4,4.6,-.4c1.1,0,2.5,.1,3.2,1c.3,.2,.4,.5,.4,.6c0,.1,0,.2,.1,.3c.1,.1,.4,.1,.5,0c.5,-.1,1.5,-.5,2,-1c.3,-.3,.8,-.6,0,-1.6c-.9,-1,-2.3,-1.1,-4,-1.1c-2.3,0,-4.1,.3,-4.9,.5c-5.8,1.1,-11.1,4.5,-9,7c1.5,1.8,6.3,1.9,9,1.9c3.9,0,8.4,.3,9.8,2c.6,.6,.9,1.8,-.4,2.8c-1.2,1,-4,1.8,-5.8,2.1c-4.4,.9,-9.4,.1,-10.6,-1.3c0,0,-.5,-.6,-.3,-1.2Z" class="g3_13"/>
<path d="M131.5,863.7l-.2,-.2l.3,-4.6q.3,-5.6,.5,-6c.1,-.2,1.6,-2.2,3.3,-4.6c1.7,-2.4,4.3,-6.1,5.9,-8.2c1.5,-2.2,2.8,-4,2.9,-4c.4,0,.1,.4,-1.8,3.2c-1.2,1.6,-3.7,5.2,-5.7,8.1c-2,2.8,-3.6,5.2,-3.6,5.2c0,0,.5,.1,1,.1c2,.3,3.3,.6,4.5,1.2c.6,.4,1,.6,1.5,1.2c.8,.7,1.2,1.3,1.4,2.2c.1,.2,.2,.4,.2,.4c.1,0,.7,-.8,5.2,-7.6c2.4,-3.6,4.5,-6.7,4.6,-6.8c.2,-.2,.4,0,.2,.3c0,.1,-1.5,2.3,-3.2,5c-1.8,2.6,-3.8,5.7,-4.5,6.7c-1.5,2.4,-2.1,3.3,-2.3,3.8c-.2,.3,-.3,.4,-.9,.7c-.8,.4,-8.7,3.9,-8.9,4c-.1,0,-.3,0,-.4,-.1Z" class="g3_13"/>
<path d="M135.2,861.7c2.2,-1,4,-1.8,4.6,-2.1c.7,-.3,.7,-.4,.7,-1.4c-.2,-1.7,-1.4,-3,-3.6,-3.7c-1.2,-.4,-4.3,-.9,-4.4,-.6c0,0,-.1,1.4,-.2,3.1c-.1,1.7,-.2,3.3,-.2,3.6c-.1,1.1,.1,1.4,-.2,2.5c.1,.2,1.8,-.8,1.8,-.8c.1,0,.7,-.3,1.5,-.6Z" class="g3_13"/>
<path d="M131.5,863.7l-.2,-.2l.3,-4.6q.3,-5.6,.5,-6c.1,-.2,1.6,-2.2,3.3,-4.6c1.7,-2.4,4.3,-6.1,5.9,-8.2c1.5,-2.2,2.8,-4,2.9,-4c.4,0,.1,.4,-1.8,3.2c-1.2,1.6,-3.7,5.2,-5.7,8.1c-2,2.8,-3.6,5.2,-3.6,5.2c0,0,.5,.1,1,.1c2,.3,3.3,.6,4.5,1.2c.6,.4,1,.6,1.5,1.2c.8,.7,1.2,1.3,1.4,2.2c.1,.2,.2,.4,.2,.4c.1,0,.7,-.8,5.2,-7.6c2.4,-3.6,4.5,-6.7,4.6,-6.8c.2,-.2,.4,0,.2,.3c0,.1,-1.5,2.3,-3.2,5c-1.8,2.6,-3.8,5.7,-4.5,6.7c-1.5,2.4,-2.1,3.3,-2.3,3.8c-.2,.3,-.3,.4,-.9,.7c-.8,.4,-8.7,3.9,-8.9,4c-.1,0,-.3,0,-.4,-.1Zm3.7,-2c2.2,-1,4,-1.8,4.6,-2.1c.7,-.3,.7,-.4,.7,-1.4c-.2,-1.7,-1.4,-3,-3.6,-3.7c-1.2,-.4,-4.3,-.9,-4.4,-.6c0,0,-.1,1.4,-.2,3.1c-.1,1.7,-.2,3.3,-.2,3.6c-.1,1.1,.1,1.4,-.2,2.5c.1,.2,1.8,-.8,1.8,-.8c.1,0,.7,-.3,1.5,-.6Z" class="g4_13"/>
<path d="M135.3,853.1L146.5,837m-8.2,17.2L149,838.5" class="g5_13"/>
<path d="M140.4,855.9l10,-14.4l.2,-.4" class="g6_13"/>
<path d="M134.1,852.7c-.4,-.1,-.8,-.1,-.9,-.2c0,0,2.5,-3.6,6.7,-9.6c1.9,-2.7,3.6,-5.1,3.8,-5.5c.2,-.3,.4,-.6,.5,-.6c.1,0,.7,.5,.9,.7c.1,.3,.1,.5,-.1,1.1c-.2,.5,-9.8,14.2,-9.9,14.2c-.1,0,-.5,0,-1,-.1Z" class="g7_13"/>
<path d="M137.6,853.5c-.2,-.1,-.8,-.3,-1.2,-.4l-.7,-.2l.3,-.3c.1,-.2,2.3,-3.4,4.8,-7.1l4.7,-6.6l.5,-.3c.9,-.5,1.6,-.5,2.1,0l.3,.3l-5,7.4c-3,4.5,-5.1,7.4,-5.1,7.4c-.1,0,-.4,-.1,-.7,-.2Z" class="g7_13"/>
<path d="M140,854.9c-.2,-.2,-.6,-.5,-.8,-.7c-.2,-.1,-.3,-.2,-.3,-.3c0,-.1,9.4,-13.9,9.8,-14.5c.1,-.1,.5,.3,.8,.7c.3,.4,.3,.5,.4,1c0,.3,0,.6,-.1,.7c-.2,.3,-9.1,13.2,-9.2,13.4q-.2,.1,-.6,-.3Z" class="g7_13"/>
<path d="M141.6,857.5c0,0,-.1,-.3,-.1,-.5c-.1,-.3,-.3,-.6,-.4,-.9l-.3,-.4l4.7,-6.7c2.6,-3.8,4.8,-6.8,4.8,-6.8c.4,0,1,.7,1,1.1c0,.1,-.6,1.2,-1.9,3.1c-1.1,1.5,-3.1,4.6,-4.6,6.8c-3,4.4,-3.1,4.5,-3.2,4.3Z" class="g7_13"/>
<path d="M131.9,859c2.3,-.1,3.6,.7,4.1,2.3" class="g8_13"/>
<path d="M132,863c0,-.4,.1,-.5,.1,-1.4c0,-.7,0,-.9,0,-1.3c0,-.3,0,-.6,0,-.7l.1,-.3c.1,0,.6,0,.7,.1c.4,0,.8,.1,1.1,.2c.2,.1,.5,.2,.6,.3c.2,.1,.3,.2,.4,.4c.3,.2,.4,.4,.6,.7c0,.2,.2,.4,.1,.5c0,0,-1.5,.6,-1.8,.7c-.1,.1,-.2,.1,-.3,.2c-1.1,.5,-1.4,.7,-1.6,.7Z" class="g3_13"/>
<path d="M136.2,860.8c-.6,-1.2,-1.8,-1.9,-3.4,-2.1h-.6v-.5c.1,-.3,.1,-1.3,.2,-2.2c0,-.9,.1,-1.8,.1,-1.9l.1,-.3l.7,.1c.8,0,2.3,.3,3.1,.5c1.7,.4,3.1,1.4,3.6,2.5c.4,.7,.6,2.1,.3,2.4c-.1,.1,-.8,.5,-2.5,1.2c-1.6,.7,-1.5,.7,-1.6,.3Z" class="g9_13"/>
<path d="M136.2,860.8c-.6,-1.2,-1.8,-1.9,-3.4,-2.1h-.6v-.5c.1,-.3,.1,-1.3,.2,-2.2c0,-.9,.1,-1.8,.1,-1.9l.1,-.3l.7,.1c.8,0,2.3,.3,3.1,.5c1.7,.4,3.1,1.4,3.6,2.5c.4,.7,.6,2.1,.3,2.4c-.1,.1,-.8,.5,-2.5,1.2c-1.6,.7,-1.5,.7,-1.6,.3Z" class="ga_13"/>
</g>
<path d="M152.7,864.3h310" class="g0_13"/>
<path d="M137.6,869.5v216" class="gc_13"/>
</svg>