<?xml version="1.0" encoding="UTF-8" standalone="no"?>
<!DOCTYPE svg PUBLIC "-//W3C//DTD SVG 1.1//EN"
"http://www.w3.org/Graphics/SVG/1.1/DTD/svg11.dtd">
<svg viewBox="0 0 1286 909" version="1.1" xmlns="http://www.w3.org/2000/svg" xmlns:xlink="http://www.w3.org/1999/xlink">
<defs>
<style type="text/css"><![CDATA[
.g0_732{
fill: none;
stroke: #000000;
stroke-width: 0.73;
stroke-linecap: butt;
stroke-linejoin: miter;
}
.g1_732{
fill: none;
stroke: #02B5EE;
stroke-width: 1.262;
stroke-linecap: butt;
stroke-linejoin: miter;
}
.g2_732{
fill: none;
stroke: #5EE200;
stroke-width: 1.262;
stroke-linecap: butt;
stroke-linejoin: miter;
}
.g3_732{
fill: #FFCCCC;
}
.g4_732{
fill: none;
stroke: #5EE200;
stroke-width: 0.73;
stroke-linecap: butt;
stroke-linejoin: miter;
}
.g5_732{
fill: none;
stroke: #02B5EE;
stroke-width: 0.73;
stroke-linecap: butt;
stroke-linejoin: miter;
}
]]></style>
</defs>
<path d="M193,83.4h900.3M193,210.6H773.4m-580.4,0H773.4M381.7,240.2V211m0,58.5V240.2m0,114.3v-85" class="g0_732"/>
<path d="M522.6,330.5h59.2" class="g1_732"/>
<path d="M592.3,330.5H649" class="g2_732"/>
<path d="M670,318.8h92.5V285.9H670v32.9Z" class="g3_732"/>
<path d="M381.7,383.7V354.5m0,102.3V383.7" class="g0_732"/>
<path d="M557.6,433H665.9V400.1H557.6V433Z" class="g3_732"/>
<path d="M671.9,442.9h16.9" class="g4_732"/>
<path d="M694.9,442.9h67.6" class="g5_732"/>
<path d="M381.7,486V456.8m0,58.4V486m0,58.4V515.2m0,114.3V544.4" class="g0_732"/>
<path d="M580.9,605.5H649" class="g1_732"/>
<path d="M670,593.7h92.5V560.9H670v32.8Z" class="g3_732"/>
<path d="M381.7,658.7V629.5m0,102.2v-73" class="g0_732"/>
<path d="M586.7,708H694.9V675.1H586.7V708Z" class="g3_732"/>
<path d="M694.9,717.9h67.6" class="g5_732"/>
<path d="M381.7,761V731.7M193,761.3H773.4m-580.4,0H773.4" class="g0_732"/>
</svg>