<?xml version="1.0" encoding="UTF-8" standalone="no"?>
<!DOCTYPE svg PUBLIC "-//W3C//DTD SVG 1.1//EN"
"http://www.w3.org/Graphics/SVG/1.1/DTD/svg11.dtd">
<svg viewBox="0 0 1286 909" version="1.1" xmlns="http://www.w3.org/2000/svg" xmlns:xlink="http://www.w3.org/1999/xlink">
<defs>
<style type="text/css"><![CDATA[
.g0_1178{
fill: none;
stroke: #000000;
stroke-width: 0.73;
stroke-linecap: butt;
stroke-linejoin: miter;
}
.g1_1178{
fill: #FDE8E9;
}
]]></style>
</defs>
<path d="M193,83.4h900.3M210,111.8H633.5M210,141.3V112.1m294.5,29.2V112.1m129,29.2V112.1M210,174V141.3M504.5,174V141.3" class="g0_1178"/>
<path d="M515.5,170.7h77.1V141.3H515.5v29.4Z" class="g1_1178"/>
<path d="M633.5,174V141.3M210,203.2V174m294.5,29.2V174m129,29.2V174M210,232.4V203.2m294.5,29.2V203.2m129,29.2V203.2M210,265.1V232.4m294.5,32.7V232.4" class="g0_1178"/>
<path d="M515.5,261.8h50V232.4h-50v29.4Z" class="g1_1178"/>
<path d="M633.5,265.1V232.4M210,294.3V265.1m294.5,29.2V265.1m129,29.2V265.1M210,323.5V294.3m294.5,29.2V294.3m129,29.2V294.3M210,353.7V323.5m294.5,30.2V323.5" class="g0_1178"/>
<path d="M515.5,350.4h92.2V327.1H515.5v23.3Z" class="g1_1178"/>
<path d="M633.5,353.7V323.5M210,382.9V353.7m294.5,29.2V353.7m129,29.2V353.7M210,412.1V382.9m294.5,29.2V382.9m129,29.2V382.9M210,444.8V412.1m294.5,32.7V412.1" class="g0_1178"/>
<path d="M515.5,441.5h66.9V412.1H515.5v29.4Z" class="g1_1178"/>
<path d="M633.5,444.8V412.1M210,474V444.8M504.5,474V444.8m129,29.2V444.8M210,503.2V474m294.5,29.2V474m129,29.2V474M210,535.9V503.2m294.5,32.7V503.2" class="g0_1178"/>
<path d="M515.5,532.6h82.2V503.2H515.5v29.4Z" class="g1_1178"/>
<path d="M633.5,535.9V503.2M210,565.1V535.9m294.5,29.2V535.9m129,29.2V535.9M210,594.3V565.1m294.5,29.2V565.1m129,29.2V565.1M210,628.9V594.3m294.5,34.6V594.3" class="g0_1178"/>
<path d="M515.5,628.9h107V594.3h-107v34.6Z" class="g1_1178"/>
<path d="M633.5,628.9V594.3M210,658.2V628.9m294.5,29.3V628.9m129,29.3V628.9M210,687.4V658.2m294.5,29.2V658.2m129,29.2V658.2M210,720V687.4M504.5,720V687.4" class="g0_1178"/>
<path d="M515.5,716.7H619.2V687.4H515.5v29.3Z" class="g1_1178"/>
<path d="M633.5,720V687.4M210,749.3V720m294.5,29.3V720m129,29.3V720M210,749.6H633.5M655.4,109.5h372.8M655.4,139.1V109.9m204.7,29.2V109.9m168.1,29.2V109.9M655.4,171.8V139.1m204.7,32.7V139.1" class="g0_1178"/>
<path d="M871,168.5h88.7V139.1H871v29.4Z" class="g1_1178"/>
<path d="M1028.2,171.8V139.1M655.4,201V171.8M860.1,201V171.8M1028.2,201V171.8M655.4,230.2V201m204.7,29.2V201m168.1,29.2V201M655.4,262.9V230.2m204.7,32.7V230.2" class="g0_1178"/>
<path d="M871,259.6h146.3V230.2H871v29.4Z" class="g1_1178"/>
<path d="M1028.2,262.9V230.2M655.4,292.1V262.9m204.7,29.2V262.9m168.1,29.2V262.9M655.4,321.3V292.1m204.7,29.2V292.1m168.1,29.2V292.1M655.4,353.9V321.3m204.7,32.6V321.3" class="g0_1178"/>
<path d="M871,350.7h97.7V321.3H871v29.4Z" class="g1_1178"/>
<path d="M1028.2,353.9V321.3M655.4,383.2V353.9m204.7,29.3V353.9m168.1,29.3V353.9M655.4,412.4V383.2m204.7,29.2V383.2m168.1,29.2V383.2M655.4,447V412.4M860.1,447V412.4" class="g0_1178"/>
<path d="M871,447h66.3V412.4H871V447Z" class="g1_1178"/>
<path d="M1028.2,447V412.4M655.4,476.2V447m204.7,29.2V447m168.1,29.2V447M655.4,505.5V476.2m204.7,29.3V476.2m168.1,29.3V476.2M655.4,540.1V505.5m204.7,34.6V505.5" class="g0_1178"/>
<path d="M871,540.1h76.9V505.5H871v34.6Z" class="g1_1178"/>
<path d="M1028.2,540.1V505.5M655.4,569.3V540.1m204.7,29.2V540.1m168.1,29.2V540.1M655.4,598.5V569.3m204.7,29.2V569.3m168.1,29.2V569.3M655.4,631.2V598.5m204.7,32.7V598.5" class="g0_1178"/>
<path d="M871,627.9h87.7V598.5H871v29.4Z" class="g1_1178"/>
<path d="M1028.2,631.2V598.5M655.4,660.4V631.2m204.7,29.2V631.2m168.1,29.2V631.2M655.4,689.6V660.4m204.7,29.2V660.4m168.1,29.2V660.4M655.4,722.3V689.6m204.7,32.7V689.6" class="g0_1178"/>
<path d="M871,719h72.3V689.6H871V719Z" class="g1_1178"/>
<path d="M1028.2,722.3V689.6M655.4,751.5V722.3m204.7,29.2V722.3m168.1,29.2V722.3M655.4,751.8h372.8" class="g0_1178"/>
</svg>