<?xml version="1.0" encoding="UTF-8" standalone="no"?>
<!DOCTYPE svg PUBLIC "-//W3C//DTD SVG 1.1//EN"
"http://www.w3.org/Graphics/SVG/1.1/DTD/svg11.dtd">
<svg viewBox="0 0 909 1286" version="1.1" xmlns="http://www.w3.org/2000/svg" xmlns:xlink="http://www.w3.org/1999/xlink">
<defs>
<clipPath id="c0_32"><path d="M119.5,521.5V488H446.9v33.5Z"/></clipPath>
<clipPath id="c1_32"><path d="M460.4,521.5V488H787.8v33.5Z"/></clipPath>
<style type="text/css"><![CDATA[
.g0_32{
fill: none;
stroke: #000000;
stroke-width: 0.73;
stroke-linecap: butt;
stroke-linejoin: miter;
}
.g1_32{
fill: #E81A58;
}
.g2_32{
fill: #401A1A;
}
.g3_32{
fill: #7F7F7F;
fill-opacity: 0.01;
}
.g4_32{
fill: #7F7F7F;
fill-opacity: 0.02;
}
.g5_32{
fill: #7F7F7F;
fill-opacity: 0.04;
}
.g6_32{
fill: #7F7F7F;
fill-opacity: 0.07;
}
.g7_32{
fill: #7F7F7F;
fill-opacity: 0.11;
}
.g8_32{
fill: #FFFFFF;
}
.g9_32{
fill: #7F7F7F;
}
.ga_32{
fill: #00AEEF;
}
.gb_32{
fill: #CBCEFB;
}
]]></style>
</defs>
<path d="M116.9,159.9H792.5" class="g0_32"/>
<path d="M116.9,421.1V218.7c0,-21.7,17.6,-39.2,39.2,-39.2H792.5V382c0,21.6,-17.5,39.1,-39.1,39.1Z" class="g1_32"/>
<path d="M119.5,418.5V241.2H789.9V382c0,20.2,-16.3,36.5,-36.5,36.5Z" class="g2_32"/>
<path d="M122.2,490.7c107.4,0,214.7,0,322,0v437c-107.3,-9.4,-214.6,-9.4,-322,0Z" class="g3_32"/>
<path d="M122.9,491.3c106.9,0,213.8,0,320.7,0V927c-106.9,-9.3,-213.8,-9.3,-320.7,0Z" class="g4_32"/>
<path d="M123.5,492c106.5,0,213,0,319.5,0V926.4c-106.5,-9.3,-213,-9.3,-319.5,0Z" class="g5_32"/>
<path d="M124.1,492.6c106.1,0,212.2,0,318.3,0V925.8c-106.1,-9.4,-212.2,-9.4,-318.3,0Z" class="g6_32"/>
<path d="M124.7,493.2c105.7,0,211.4,0,317,0v432c-105.6,-9.4,-211.3,-9.4,-317,0Z" class="g7_32"/>
<path d="M125.4,493.8c105.2,0,210.5,0,315.7,0V924.5c-105.2,-9.3,-210.5,-9.3,-315.7,0Z" class="g7_32"/>
<path d="M126,494.5c104.8,0,209.7,0,314.5,0V923.9c-104.8,-9.3,-209.7,-9.3,-314.5,0Z" class="g6_32"/>
<path d="M126.6,495.1c104.4,0,208.8,0,313.3,0V923.3c-104.5,-9.4,-208.9,-9.4,-313.3,0Z" class="g5_32"/>
<path d="M127.2,495.7c104,0,208,0,312,0v427c-104,-9.4,-208,-9.4,-312,0Z" class="g4_32"/>
<path d="M127.9,496.3c103.5,0,207.1,0,310.7,0V922.1c-103.6,-9.4,-207.2,-9.4,-310.7,0Z" class="g3_32"/>
<path d="M116.9,917.4v-432H449.5v432Z" class="g8_32"/>
<path d="M119.5,914.8V524.1H446.9V914.8Z" class="g8_32"/>
<path d="M119.5,521.5V488H446.9v33.5Z" class="g9_32"/>
<g clip-path="url(#c0_32)">
<image x="119" y="487" width="329" height="34" xlink:href="shade/1.png"/>
</g>
<path d="M316.9,516.3h104V493.2h-104v23.1Z" class="ga_32"/>
<path d="M180.9,569.3H385.6M181.3,598.9V569.7" class="g0_32"/>
<path d="M181.6,598.9h62.1V569.7H181.6v29.2Z" class="gb_32"/>
<path d="M244,598.9V569.7" class="g0_32"/>
<path d="M244.4,598.9h69.8V569.7H244.4v29.2Z" class="gb_32"/>
<path d="M314.6,598.9V569.7" class="g0_32"/>
<path d="M315,598.9h69.8V569.7H315v29.2Z" class="gb_32"/>
<path d="M385.2,598.9V569.7M180.9,599.3H385.6M181.3,628.9V599.6M244,628.9V599.6m70.6,29.3V599.6m70.6,29.3V599.6M180.9,629.2H385.6M181.3,658.8V629.6M244,658.8V629.6m70.6,29.2V629.6m70.6,29.2V629.6M180.9,659.2H385.6M181.3,688.8V659.6M244,688.8V659.6m70.6,29.2V659.6m70.6,29.2V659.6M180.9,689.1H385.6M181.3,718.7V689.5M244,718.7V689.5m70.6,29.2V689.5m70.6,29.2V689.5M180.9,719.1H385.6M181.3,748.7V719.5M244,748.7V719.5m70.6,29.2V719.5m70.6,29.2V719.5M180.9,749H385.6M181.3,778.6V749.4M244,778.6V749.4m70.6,29.2V749.4m70.6,29.2V749.4M180.9,779H385.6M181.3,808.6V779.4M244,808.6V779.4m70.6,29.2V779.4m70.6,29.2V779.4M180.9,809H385.6M181.3,838.5V809.3M244,838.5V809.3m70.6,29.2V809.3m70.6,29.2V809.3M180.9,838.9H385.6M181.3,868.5V839.3M244,868.5V839.3m70.6,29.2V839.3m70.6,29.2V839.3M180.9,868.9H385.6M181.3,898.5V869.2M244,898.5V869.2m70.6,29.3V869.2m70.6,29.3V869.2M180.9,898.8H385.6" class="g0_32"/>
<path d="M463.1,490.7c107.3,0,214.6,0,322,0V782.1c-107.4,-9.4,-214.7,-9.4,-322,0Z" class="g3_32"/>
<path d="M463.7,491.3c106.9,0,213.8,0,320.7,0V781.5c-106.9,-9.4,-213.8,-9.4,-320.7,0Z" class="g4_32"/>
<path d="M464.3,492c106.5,0,213,0,319.5,0V780.8c-106.5,-9.3,-213,-9.3,-319.5,0Z" class="g5_32"/>
<path d="M464.9,492.6c106.1,0,212.2,0,318.3,0V780.2c-106.1,-9.3,-212.2,-9.3,-318.3,0Z" class="g6_32"/>
<path d="M465.6,493.2c105.6,0,211.3,0,317,0V779.6c-105.7,-9.4,-211.4,-9.4,-317,0Z" class="g7_32"/>
<path d="M466.2,493.8c105.2,0,210.5,0,315.7,0V779c-105.2,-9.4,-210.5,-9.4,-315.7,0Z" class="g7_32"/>
<path d="M466.8,494.5c104.8,0,209.7,0,314.5,0V778.4C676.5,769,571.6,769,466.8,778.4Z" class="g6_32"/>
<path d="M467.4,495.1c104.5,0,208.9,0,313.3,0V777.7c-104.4,-9.3,-208.8,-9.3,-313.3,0Z" class="g5_32"/>
<path d="M468.1,495.7c104,0,208,0,312,0V777.1c-104,-9.3,-208,-9.3,-312,0Z" class="g4_32"/>
<path d="M468.7,496.3c103.6,0,207.2,0,310.7,0V776.5c-103.5,-9.4,-207.1,-9.4,-310.7,0Z" class="g3_32"/>
<path d="M457.8,771.8V485.4H790.4V771.8Z" class="g8_32"/>
<path d="M460.4,769.2V524.1H787.8V769.2Z" class="g8_32"/>
<path d="M460.4,521.5V488H787.8v33.5Z" class="g9_32"/>
<g clip-path="url(#c1_32)">
<image x="460" y="487" width="329" height="34" xlink:href="shade/2.png"/>
</g>
<path d="M657.8,516.3h104V493.2h-104v23.1Z" class="ga_32"/>
<path d="M536.1,573.5H712M536.5,603.1V573.9" class="g0_32"/>
<path d="M536.9,603.1h62V573.9h-62v29.2Z" class="gb_32"/>
<path d="M599.2,603.1V573.9" class="g0_32"/>
<path d="M599.6,603.1h60.3V573.9H599.6v29.2Z" class="gb_32"/>
<path d="M660.2,603.1V573.9" class="g0_32"/>
<path d="M660.6,603.1h50.7V573.9H660.6v29.2Z" class="gb_32"/>
<path d="M711.6,603.1V573.9M536.1,603.5H712M536.5,633.1V603.8m62.7,29.3V603.8m61,29.3V603.8m51.4,29.3V603.8M536.1,633.4H712M536.5,663V633.8M599.2,663V633.8m61,29.2V633.8M711.6,663V633.8M536.1,663.4H712M536.5,693V663.8M599.2,693V663.8m61,29.2V663.8M711.6,693V663.8M536.1,693.3H712M536.5,722.9V693.7m62.7,29.2V693.7m61,29.2V693.7m51.4,29.2V693.7M536.1,723.3H712M536.5,752.9V723.7m62.7,29.2V723.7m61,29.2V723.7m51.4,29.2V723.7M536.1,753.2H712" class="g0_32"/>
</svg>