<?xml version="1.0" encoding="UTF-8" standalone="no"?>
<!DOCTYPE svg PUBLIC "-//W3C//DTD SVG 1.1//EN"
"http://www.w3.org/Graphics/SVG/1.1/DTD/svg11.dtd">
<svg viewBox="0 0 1286 909" version="1.1" xmlns="http://www.w3.org/2000/svg" xmlns:xlink="http://www.w3.org/1999/xlink">
<defs>
<style type="text/css"><![CDATA[
.g0_45{
fill: none;
stroke: #000000;
stroke-width: 0.73;
stroke-linecap: butt;
stroke-linejoin: miter;
}
.g1_45{
fill: none;
stroke: #02B5EE;
stroke-width: 1.262;
stroke-linecap: butt;
stroke-linejoin: miter;
}
.g2_45{
fill: none;
stroke: #5EE200;
stroke-width: 1.262;
stroke-linecap: butt;
stroke-linejoin: miter;
}
.g3_45{
fill: #FFCCCC;
}
.g4_45{
fill: none;
stroke: #5EE200;
stroke-width: 0.73;
stroke-linecap: butt;
stroke-linejoin: miter;
}
.g5_45{
fill: none;
stroke: #02B5EE;
stroke-width: 0.73;
stroke-linecap: butt;
stroke-linejoin: miter;
}
.g6_45{
fill: none;
stroke: #F81693;
stroke-width: 1.461;
stroke-linecap: butt;
stroke-linejoin: miter;
stroke-dasharray: 2,2;
}
]]></style>
</defs>
<path d="M193,83.4h900.3M193,111.6H908.7m-715.7,0H908.7M480,141.2V112m0,114.3V141.2" class="g0_45"/>
<path d="M491,202.3h61.4" class="g1_45"/>
<path d="M562.9,202.3h22.5" class="g2_45"/>
<path d="M606.4,190.6H897.7V157.7H606.4v32.9Z" class="g3_45"/>
<path d="M480,256.4V226.3m0,103.2V256.4" class="g0_45"/>
<path d="M660.6,315.6H695" class="g4_45"/>
<path d="M813.3,315.6h84.4" class="g5_45"/>
<path d="M480,358.7V329.5m0,58.4V358.7m0,64.7V387.9" class="g0_45"/>
<path d="M570.7,422.8h59.6V389.9H570.7v32.9Z" class="g3_45"/>
<path d="M644.4,422.7H763.1" class="g6_45"/>
<path d="M480,453.6V423.4m0,63V453.6" class="g0_45"/>
<path d="M731.6,482.1h82.6" class="g6_45"/>
<path d="M823.9,486.4h73.8V453.6H823.9v32.8Z" class="g3_45"/>
<path d="M480,515.7V486.4m0,58.5V515.7m0,60.5V544.9m0,60.5V576.2m0,58.5V605.4m0,63.7V634.7m0,63.6V669.1m0,58.5V698.3M193,727.9H908.7m-715.7,0H908.7" class="g0_45"/>
</svg>