<?xml version="1.0" encoding="UTF-8" standalone="no"?>
<!DOCTYPE svg PUBLIC "-//W3C//DTD SVG 1.1//EN"
"http://www.w3.org/Graphics/SVG/1.1/DTD/svg11.dtd">
<svg viewBox="0 0 1286 909" version="1.1" xmlns="http://www.w3.org/2000/svg" xmlns:xlink="http://www.w3.org/1999/xlink">
<defs>
<style type="text/css"><![CDATA[
.g0_961{
fill: none;
stroke: #000000;
stroke-width: 0.73;
stroke-linecap: butt;
stroke-linejoin: miter;
}
.g1_961{
fill: #B3E9FA;
}
.g2_961{
fill: none;
stroke: #02B5EE;
stroke-width: 1.262;
stroke-linecap: butt;
stroke-linejoin: miter;
}
.g3_961{
fill: none;
stroke: #5EE200;
stroke-width: 1.262;
stroke-linecap: butt;
stroke-linejoin: miter;
}
]]></style>
</defs>
<path d="M193,83.4h900.3M193,210.6H1264.7M193,210.6H1264.7m-328,29.6V211m0,58.5V240.2m0,114.3v-85" class="g0_961"/>
<path d="M1039.9,304.7V292.5c0,-2.9,2.4,-5.2,5.2,-5.2h72.5c2.9,0,5.2,2.3,5.2,5.2v12.2c0,2.9,-2.3,5.2,-5.2,5.2h-72.5c-2.8,0,-5.2,-2.3,-5.2,-5.2Z" class="g1_961"/>
<path d="M1037.3,330.5h88.1" class="g2_961"/>
<path d="M1135.9,330.5h117.9" class="g3_961"/>
<path d="M936.7,383.7V354.5m0,58.4V383.7m0,114.3V412.9" class="g0_961"/>
<path d="M1049.2,454.5V436c0,-2.9,2.3,-5.2,5.2,-5.2h78.5c2.9,0,5.2,2.3,5.2,5.2v18.5c0,2.9,-2.3,5.2,-5.2,5.2h-78.5c-2.9,0,-5.2,-2.3,-5.2,-5.2Z" class="g1_961"/>
<path d="M1046.6,474h94.1" class="g2_961"/>
<path d="M1151.2,474h102.6" class="g3_961"/>
<path d="M936.7,527.2V498m0,58.4V527.2m0,114.2v-85" class="g0_961"/>
<path d="M1131.6,591.6V579.4c0,-2.8,2.3,-5.2,5.2,-5.2h25.6c2.9,0,5.2,2.4,5.2,5.2v12.2c0,2.9,-2.3,5.2,-5.2,5.2h-25.6c-2.9,0,-5.2,-2.3,-5.2,-5.2Z" class="g1_961"/>
<path d="M1129,617.4h41.2" class="g2_961"/>
<path d="M1180.7,617.4h73.1" class="g3_961"/>
<path d="M936.7,670.6V641.4m0,58.5V670.6m0,58.5V699.9M193,729.5H1264.7M193,729.5H1264.7" class="g0_961"/>
</svg>