<?xml version="1.0" encoding="UTF-8" standalone="no"?>
<!DOCTYPE svg PUBLIC "-//W3C//DTD SVG 1.1//EN"
"http://www.w3.org/Graphics/SVG/1.1/DTD/svg11.dtd">
<svg viewBox="0 0 909 1286" version="1.1" xmlns="http://www.w3.org/2000/svg" xmlns:xlink="http://www.w3.org/1999/xlink">
<defs>
<clipPath id="c0_118"><path d="M119.5,291.6V258H789.9v33.6Z"/></clipPath>
<clipPath id="c1_118"><path d="M119.5,887.9V854.4H789.9v33.5Z"/></clipPath>
<style type="text/css"><![CDATA[
.g0_118{
fill: none;
stroke: #000000;
stroke-width: 0.73;
stroke-linecap: butt;
stroke-linejoin: miter;
}
.g1_118{
fill: #7F7F7F;
fill-opacity: 0.01;
}
.g2_118{
fill: #7F7F7F;
fill-opacity: 0.02;
}
.g3_118{
fill: #7F7F7F;
fill-opacity: 0.04;
}
.g4_118{
fill: #7F7F7F;
fill-opacity: 0.07;
}
.g5_118{
fill: #7F7F7F;
fill-opacity: 0.11;
}
.g6_118{
fill: #FFFFFF;
}
.g7_118{
fill: #7F7F7F;
}
.g8_118{
fill: #00AEEF;
}
.g9_118{
fill: #CBCEFB;
}
.ga_118{
fill: #EC008C;
}
]]></style>
</defs>
<path d="M116.9,159.9H792.5" class="g0_118"/>
<path d="M122.2,260.7c221.7,0,443.4,0,665,0V847.5c-221.6,-9.4,-443.3,-9.4,-665,0Z" class="g1_118"/>
<path d="M122.9,261.4c221.2,0,442.4,0,663.7,0V846.8c-221.3,-9.3,-442.5,-9.3,-663.7,0Z" class="g2_118"/>
<path d="M123.5,262c220.8,0,441.6,0,662.5,0V846.2c-220.9,-9.3,-441.7,-9.3,-662.5,0Z" class="g3_118"/>
<path d="M124.1,262.6c220.4,0,440.8,0,661.2,0v583c-220.4,-9.4,-440.8,-9.4,-661.2,0Z" class="g4_118"/>
<path d="M124.7,263.2c220,0,440,0,660,0V845c-220,-9.4,-440,-9.4,-660,0Z" class="g5_118"/>
<path d="M125.4,263.8c219.5,0,439.1,0,658.7,0V844.3C564.5,835,344.9,835,125.4,844.3Z" class="g5_118"/>
<path d="M126,264.5c219.1,0,438.3,0,657.5,0V843.7c-219.2,-9.3,-438.4,-9.3,-657.5,0Z" class="g4_118"/>
<path d="M126.6,265.1c218.8,0,437.5,0,656.3,0v578c-218.8,-9.4,-437.5,-9.4,-656.3,0Z" class="g3_118"/>
<path d="M127.2,265.7c218.4,0,436.7,0,655,0V842.5c-218.3,-9.4,-436.6,-9.4,-655,0Z" class="g2_118"/>
<path d="M127.9,266.3c217.9,0,435.8,0,653.7,0V841.8c-217.9,-9.3,-435.8,-9.3,-653.7,0Z" class="g1_118"/>
<path d="M116.9,837.2V255.4H792.5V837.2Z" class="g6_118"/>
<path d="M119.5,834.6V294.2H789.9V834.6Z" class="g6_118"/>
<path d="M119.5,291.6V258H789.9v33.6Z" class="g7_118"/>
<g clip-path="url(#c0_118)">
<image x="119" y="257" width="672" height="34" xlink:href="shade/1.png"/>
</g>
<path d="M659.9,286.4h104V263.2h-104v23.2Z" class="g8_118"/>
<path d="M298.8,339.3H610.6M299.2,368.9V339.7" class="g0_118"/>
<path d="M299.5,368.9H417.3V339.7H299.5v29.2Z" class="g9_118"/>
<path d="M417.7,368.9V339.7" class="g0_118"/>
<path d="M418.1,368.9h69.8V339.7H418.1v29.2Z" class="g9_118"/>
<path d="M488.3,368.9V339.7" class="g0_118"/>
<path d="M488.6,368.9h50.7V339.7H488.6v29.2Z" class="g9_118"/>
<path d="M539.7,368.9V339.7" class="g0_118"/>
<path d="M540.1,368.9h69.8V339.7H540.1v29.2Z" class="g9_118"/>
<path d="M610.3,368.9V339.7M298.8,369.3H610.6M299.2,398.9V369.7m118.5,29.2V369.7m70.6,29.2V369.7m51.4,29.2V369.7m70.6,29.2V369.7M298.8,399.2H610.6M299.2,428.8V399.6m118.5,29.2V399.6m70.6,29.2V399.6m51.4,29.2V399.6m70.6,29.2V399.6M298.8,429.2H610.6M299.2,458.8V429.6m118.5,29.2V429.6m70.6,29.2V429.6m51.4,29.2V429.6m70.6,29.2V429.6M298.8,459.2H610.6M299.2,488.7V459.5m118.5,29.2V459.5m70.6,29.2V459.5m51.4,29.2V459.5m70.6,29.2V459.5M298.8,489.1H610.6M299.2,518.7V489.5m118.5,29.2V489.5m70.6,29.2V489.5m51.4,29.2V489.5m70.6,29.2V489.5M298.8,519.1H610.6M299.2,548.7V519.4m118.5,29.3V519.4m70.6,29.3V519.4m51.4,29.3V519.4m70.6,29.3V519.4M298.8,549H610.6M299.2,578.6V549.4m118.5,29.2V549.4m70.6,29.2V549.4m51.4,29.2V549.4m70.6,29.2V549.4M298.8,579H610.6M299.2,608.6V579.3m118.5,29.3V579.3m70.6,29.3V579.3m51.4,29.3V579.3m70.6,29.3V579.3M298.8,608.9H610.6M299.2,638.5V609.3m118.5,29.2V609.3m70.6,29.2V609.3m51.4,29.2V609.3m70.6,29.2V609.3M298.8,638.9H610.6M299.2,668.5V639.2m118.5,29.3V639.2m70.6,29.3V639.2m51.4,29.3V639.2m70.6,29.3V639.2M298.8,668.8H610.6M299.2,698.4V669.2m118.5,29.2V669.2m70.6,29.2V669.2m51.4,29.2V669.2m70.6,29.2V669.2M298.8,698.8H610.6M299.2,728.4V699.2m118.5,29.2V699.2m70.6,29.2V699.2m51.4,29.2V699.2m70.6,29.2V699.2M298.8,728.7H610.6M299.2,758.3V729.1m118.5,29.2V729.1m70.6,29.2V729.1m51.4,29.2V729.1m70.6,29.2V729.1M298.8,758.7H610.6M299.2,788.3V759.1m118.5,29.2V759.1m70.6,29.2V759.1m51.4,29.2V759.1m70.6,29.2V759.1M298.8,788.7H610.6M299.2,818.2V789m118.5,29.2V789m70.6,29.2V789m51.4,29.2V789m70.6,29.2V789M298.8,818.6H610.6" class="g0_118"/>
<path d="M122.2,857.1c221.7,0,443.4,0,665,0V995.2c-221.6,-9.3,-443.3,-9.3,-665,0Z" class="g1_118"/>
<path d="M122.9,857.7c221.2,0,442.4,0,663.7,0V994.6c-221.3,-9.4,-442.5,-9.4,-663.7,0Z" class="g2_118"/>
<path d="M123.5,858.3c220.8,0,441.6,0,662.5,0V994c-220.9,-9.4,-441.7,-9.4,-662.5,0Z" class="g3_118"/>
<path d="M124.1,858.9c220.4,0,440.8,0,661.2,0V993.3C564.9,984,344.5,984,124.1,993.3Z" class="g4_118"/>
<path d="M124.7,859.6c220,0,440,0,660,0V992.7c-220,-9.3,-440,-9.3,-660,0Z" class="g5_118"/>
<path d="M125.4,860.2c219.5,0,439.1,0,658.7,0V992.1c-219.6,-9.4,-439.2,-9.4,-658.7,0Z" class="g5_118"/>
<path d="M126,860.8c219.1,0,438.3,0,657.5,0V991.5c-219.2,-9.4,-438.4,-9.4,-657.5,0Z" class="g4_118"/>
<path d="M126.6,861.4c218.8,0,437.5,0,656.3,0V990.8c-218.8,-9.3,-437.5,-9.3,-656.3,0Z" class="g3_118"/>
<path d="M127.2,862.1c218.4,0,436.7,0,655,0V990.2c-218.3,-9.3,-436.6,-9.3,-655,0Z" class="g2_118"/>
<path d="M127.9,862.7c217.9,0,435.8,0,653.7,0V989.6c-217.9,-9.4,-435.8,-9.4,-653.7,0Z" class="g1_118"/>
<path d="M116.9,984.9V851.8H792.5V984.9Z" class="g6_118"/>
<path d="M119.5,982.3V890.5H789.9v91.8Z" class="g6_118"/>
<path d="M119.5,887.9V854.4H789.9v33.5Z" class="g7_118"/>
<g clip-path="url(#c1_118)">
<image x="119" y="854" width="672" height="34" xlink:href="shade/2.png"/>
</g>
<path d="M675.7,882.7h88.2V859.6H675.7v23.1Z" class="ga_118"/>
<path d="M419.1,906.5h71.3m-71,29.5V906.8" class="g0_118"/>
<path d="M419.8,936h69.8V906.8H419.8V936Z" class="g9_118"/>
<path d="M490,936V906.8m-70.9,29.6h71.3m-71,29.6V936.8M490,966V936.8m-70.9,29.6h71.3" class="g0_118"/>
</svg>