<?xml version="1.0" encoding="UTF-8" standalone="no"?>
<!DOCTYPE svg PUBLIC "-//W3C//DTD SVG 1.1//EN"
"http://www.w3.org/Graphics/SVG/1.1/DTD/svg11.dtd">
<svg viewBox="0 0 909 1286" version="1.1" xmlns="http://www.w3.org/2000/svg" xmlns:xlink="http://www.w3.org/1999/xlink">
<defs>
<style type="text/css"><![CDATA[
.g0_11{
fill: #FDE8E9;
}
.g1_11{
fill: none;
stroke: #000000;
stroke-width: 0.73;
stroke-linecap: butt;
stroke-linejoin: miter;
}
.g2_11{
fill: none;
stroke: #02B5EE;
stroke-width: 0.73;
stroke-linecap: butt;
stroke-linejoin: miter;
}
.g3_11{
fill: none;
stroke: #F81693;
stroke-width: 0.73;
stroke-linecap: butt;
stroke-linejoin: miter;
}
.g4_11{
fill: #FFFFFF;
}
.g5_11{
fill: none;
stroke: #02B5EE;
stroke-width: 1.461;
stroke-linecap: butt;
stroke-linejoin: miter;
}
]]></style>
</defs>
<path d="M544,242.6H663.9V217H544v25.6Z" class="g0_11"/>
<path d="M116.9,288.6H627.1M307.3,318.2V289m-78.6,84.7l24.9,14.8M197.5,429V392.5m31.2,-18.8l-31.2,18.6M166.3,373.7l31.2,18.6m-31.2,55.6l31.2,-18.7m-31.2,18.7L135,429.2m0,-.2V392.5m31.3,-18.8L135,392.3m32.4,-10.9l23,13.7M141,424.3v-27m26.4,42.9l23,-13.7m36.1,-52.8V348.1m4.4,25.6V348.1m76.4,106.7V318.2" class="g1_11"/>
<path d="M459.3,373.7l24.8,14.8" class="g2_11"/>
<path d="M428,429V392.5" class="g3_11"/>
<path d="M459.3,373.7L428,392.3" class="g2_11"/>
<path d="M396.8,373.7L428,392.3m-31.2,55.6L428,429.2m-31.2,18.7L365.6,429.2m0,-.2V392.5m31.2,-18.8l-31.2,18.6m32.3,-10.9l23,13.7m-49.3,29.2v-27m26.3,42.9l23,-13.7" class="g3_11"/>
<path d="M457.1,373.7V348.1m4.4,25.6V348.1" class="g2_11"/>
<path d="M307.3,484V454.8m0,58.5V484m0,58.5V513.3m0,105.7V542.5" class="g1_11"/>
<path d="M384.9,611.2V550.3c0,-2.9,2.3,-5.2,5.2,-5.2H559.3c2.9,0,5.2,2.3,5.2,5.2v60.9c0,2.9,-2.3,5.2,-5.2,5.2H390.1c-2.9,0,-5.2,-2.3,-5.2,-5.2Z" class="g4_11"/>
<path d="M440.4,639.7H509V625.5H440.4v14.2Z" class="g0_11"/>
<path d="M410.9,600.8H538.6V560.7H410.9v40.1Z" class="g0_11"/>
<path d="M307.3,648.2V619M116.9,648.6H627.1M307.3,678.2V649M170.8,729.1l31.3,18.7m0,36.7V748m-31.3,55.3l31.3,-18.6m-31.3,18.6L139.6,784.7m0,-.2V748m31.2,-18.9l-31.2,18.7m32.3,-11l23,13.7m-23,45.1l23,-13.7m-49.3,-2.2v-27m87.7,-23.6l24.8,14.8M233.3,729.1l-31.2,18.7m29,-18.7V703.6m4.4,25.5V703.6m-64.7,25.5V703.6M307.3,814.8V678.2" class="g1_11"/>
<path d="M407.8,733l24.8,14.8m0,36.7V748m-31.2,55.3l31.2,-18.6m-31.2,18.6L370.1,784.7m0,-.2V748M395,733l-24.9,14.8m37.7,-6.6l18.2,11m-23.5,43.4l23,-13.7m-49.3,-2.2v-27m87.6,-23.6l24.9,14.8M463.8,729.1l-31.2,18.7m29.1,-18.7V703.6m4.3,25.5V703.6" class="g3_11"/>
<path d="M401.4,723.7V703.6" class="g2_11"/>
<path d="M307.3,844V814.8m0,58.5V844" class="g1_11"/>
<path d="M335.5,871.8c1.3,0,2,-2.7,3.4,-2.7c1,0,1.9,1.3,2.7,2.7c.9,1.4,1.8,2.7,2.8,2.7c1,0,1.8,-1.3,2.7,-2.7c.9,-1.4,1.8,-2.7,2.8,-2.7c1.3,0,2,2.7,3.4,2.7h3.9" class="g5_11"/>
<path d="M307.3,902.5V873.3m0,105.7V902.5" class="g1_11"/>
<path d="M384.9,971.2V910.3c0,-2.9,2.3,-5.2,5.2,-5.2H588.5c2.9,0,5.2,2.3,5.2,5.2v60.9c0,2.9,-2.3,5.2,-5.2,5.2H390.1c-2.9,0,-5.2,-2.3,-5.2,-5.2Z" class="g4_11"/>
<path d="M460.5,999.7h57.6V985.5H460.5v14.2Z" class="g0_11"/>
<path d="M410.9,960.8H567.7V920.7H410.9v40.1Z" class="g0_11"/>
<path d="M307.3,1008.2V979m-190.4,29.6H627.1" class="g1_11"/>
</svg>