<?xml version="1.0" encoding="UTF-8" standalone="no"?>
<!DOCTYPE svg PUBLIC "-//W3C//DTD SVG 1.1//EN"
"http://www.w3.org/Graphics/SVG/1.1/DTD/svg11.dtd">
<svg viewBox="0 0 909 1286" version="1.1" xmlns="http://www.w3.org/2000/svg" xmlns:xlink="http://www.w3.org/1999/xlink">
<defs>
<clipPath id="c0_64"><path d="M119.5,215.6V182.1H789.9v33.5Z"/></clipPath>
<style type="text/css"><![CDATA[
.g0_64{
fill: none;
stroke: #000000;
stroke-width: 0.73;
stroke-linecap: butt;
stroke-linejoin: miter;
}
.g1_64{
fill: #7F7F7F;
fill-opacity: 0.01;
}
.g2_64{
fill: #7F7F7F;
fill-opacity: 0.02;
}
.g3_64{
fill: #7F7F7F;
fill-opacity: 0.04;
}
.g4_64{
fill: #7F7F7F;
fill-opacity: 0.07;
}
.g5_64{
fill: #7F7F7F;
fill-opacity: 0.11;
}
.g6_64{
fill: #FFFFFF;
}
.g7_64{
fill: #7F7F7F;
}
.g8_64{
fill: #EC008C;
}
.g9_64{
fill: #CBCEFB;
}
]]></style>
</defs>
<path d="M116.9,159.9H792.5" class="g0_64"/>
<path d="M122.2,184.8c221.7,0,443.4,0,665,0v857.1c-221.6,-9.4,-443.3,-9.4,-665,0Z" class="g1_64"/>
<path d="M122.9,185.4c221.2,0,442.4,0,663.7,0v855.8c-221.3,-9.3,-442.5,-9.3,-663.7,0Z" class="g2_64"/>
<path d="M123.5,186.1c220.8,0,441.6,0,662.5,0v854.5c-220.9,-9.3,-441.7,-9.3,-662.5,0Z" class="g3_64"/>
<path d="M124.1,186.7c220.4,0,440.8,0,661.2,0V1040c-220.4,-9.4,-440.8,-9.4,-661.2,0Z" class="g4_64"/>
<path d="M124.7,187.3c220,0,440,0,660,0v852.1c-220,-9.4,-440,-9.4,-660,0Z" class="g5_64"/>
<path d="M125.4,187.9c219.5,0,439.1,0,658.7,0v850.8c-219.6,-9.3,-439.2,-9.3,-658.7,0Z" class="g5_64"/>
<path d="M126,188.6c219.1,0,438.3,0,657.5,0v849.5c-219.2,-9.3,-438.4,-9.3,-657.5,0Z" class="g4_64"/>
<path d="M126.6,189.2c218.8,0,437.5,0,656.3,0v848.3c-218.8,-9.4,-437.5,-9.4,-656.3,0Z" class="g3_64"/>
<path d="M127.2,189.8c218.4,0,436.7,0,655,0v847.1c-218.3,-9.4,-436.6,-9.4,-655,0Z" class="g2_64"/>
<path d="M127.9,190.4c217.9,0,435.8,0,653.7,0v845.9c-217.9,-9.4,-435.8,-9.4,-653.7,0Z" class="g1_64"/>
<path d="M116.9,1031.6V179.5H792.5v852.1Z" class="g6_64"/>
<path d="M119.5,1029V218.2H789.9V1029Z" class="g6_64"/>
<path d="M119.5,215.6V182.1H789.9v33.5Z" class="g7_64"/>
<g clip-path="url(#c0_64)">
<image x="119" y="181" width="672" height="34" xlink:href="shade/1.png"/>
</g>
<path d="M675.7,210.4h88.2V187.3H675.7v23.1Z" class="g8_64"/>
<path d="M383.8,234.2H525.7M384.1,263.8V234.6" class="g0_64"/>
<path d="M384.5,263.8h69.9V234.6H384.5v29.2Z" class="g9_64"/>
<path d="M454.7,263.8V234.6" class="g0_64"/>
<path d="M455.1,263.8h69.8V234.6H455.1v29.2Z" class="g9_64"/>
<path d="M525.3,263.8V234.6M383.8,264.2H525.7M384.1,293.7V264.5m70.6,29.2V264.5m70.6,29.2V264.5M383.8,294.1H525.7M384.1,323.7V294.5m70.6,29.2V294.5m70.6,29.2V294.5M383.8,324.1H525.7M384.1,353.7V324.4m70.6,29.3V324.4m70.6,29.3V324.4M383.8,354H525.7M384.1,383.6V354.4m70.6,29.2V354.4m70.6,29.2V354.4M383.8,384H525.7M384.1,413.6V384.3m70.6,29.3V384.3m70.6,29.3V384.3M383.8,413.9H525.7M384.1,443.5V414.3m70.6,29.2V414.3m70.6,29.2V414.3M383.8,443.9H525.7M384.1,473.5V444.2m70.6,29.3V444.2m70.6,29.3V444.2M383.8,473.8H525.7M384.1,503.4V474.2m70.6,29.2V474.2m70.6,29.2V474.2M383.8,503.8H525.7M384.1,533.4V504.2m70.6,29.2V504.2m70.6,29.2V504.2M383.8,533.7H525.7M384.1,563.3V534.1m70.6,29.2V534.1m70.6,29.2V534.1M383.8,563.7H525.7M384.1,593.3V564.1m70.6,29.2V564.1m70.6,29.2V564.1M383.8,593.7H525.7M384.1,623.2V594m70.6,29.2V594m70.6,29.2V594M383.8,623.6H525.7M384.1,653.2V624m70.6,29.2V624m70.6,29.2V624M383.8,653.6H525.7M384.1,683.2V653.9m70.6,29.3V653.9m70.6,29.3V653.9M383.8,683.5H525.7M384.1,713.1V683.9m70.6,29.2V683.9m70.6,29.2V683.9M383.8,713.5H525.7M384.1,743.1V713.8m70.6,29.3V713.8m70.6,29.3V713.8M383.8,743.4H525.7M384.1,773V743.8M454.7,773V743.8M525.3,773V743.8M383.8,773.4H525.7M384.1,803V773.7M454.7,803V773.7M525.3,803V773.7M383.8,803.3H525.7M384.1,832.9V803.7m70.6,29.2V803.7m70.6,29.2V803.7M383.8,833.3H525.7M384.1,862.9V833.7m70.6,29.2V833.7m70.6,29.2V833.7M383.8,863.2H525.7M384.1,892.8V863.6m70.6,29.2V863.6m70.6,29.2V863.6M383.8,893.2H525.7M384.1,922.8V893.6m70.6,29.2V893.6m70.6,29.2V893.6M383.8,923.2H525.7M384.1,952.7V923.5m70.6,29.2V923.5m70.6,29.2V923.5M383.8,953.1H525.7M384.1,982.7V953.5m70.6,29.2V953.5m70.6,29.2V953.5M383.8,983.1H525.7m-141.6,29.5V983.4m70.6,29.2V983.4m70.6,29.2V983.4M383.8,1013H525.7" class="g0_64"/>
</svg>