<?xml version="1.0" encoding="UTF-8" standalone="no"?>
<!DOCTYPE svg PUBLIC "-//W3C//DTD SVG 1.1//EN"
"http://www.w3.org/Graphics/SVG/1.1/DTD/svg11.dtd">
<svg viewBox="0 0 1286 909" version="1.1" xmlns="http://www.w3.org/2000/svg" xmlns:xlink="http://www.w3.org/1999/xlink">
<defs>
<style type="text/css"><![CDATA[
.g0_653{
fill: none;
stroke: #000000;
stroke-width: 0.73;
stroke-linecap: butt;
stroke-linejoin: miter;
}
.g1_653{
fill: none;
stroke: #02B5EE;
stroke-width: 1.262;
stroke-linecap: butt;
stroke-linejoin: miter;
}
.g2_653{
fill: none;
stroke: #02B5EE;
stroke-width: 0.73;
stroke-linecap: butt;
stroke-linejoin: miter;
}
.g3_653{
fill: none;
stroke: #5EE200;
stroke-width: 0.73;
stroke-linecap: butt;
stroke-linejoin: miter;
}
]]></style>
</defs>
<path d="M193,83.4h900.3M193,210.6h901.1m-901.1,0h901.1M641.5,240.2V211m0,58.5V240.2m0,114.3v-85" class="g0_653"/>
<path d="M928.4,330.5h154.8" class="g1_653"/>
<path d="M641.5,383.7V354.5m0,102.3V383.7" class="g0_653"/>
<path d="M893.7,442.9h23.2" class="g2_653"/>
<path d="M923,442.9h60.1" class="g3_653"/>
<path d="M641.5,529.8v-73" class="g0_653"/>
<path d="M846.7,515.9h84.5" class="g3_653"/>
<path d="M998.7,515.9h84.5" class="g2_653"/>
<path d="M641.5,559V529.8m0,58.5V559m0,114.3v-85" class="g0_653"/>
<path d="M935.7,649.3h40.1" class="g1_653"/>
<path d="M641.5,702.5V673.3m0,58.4V702.5M193,732.1h901.1m-901.1,0h901.1" class="g0_653"/>
</svg>