<?xml version="1.0" encoding="UTF-8" standalone="no"?>
<!DOCTYPE svg PUBLIC "-//W3C//DTD SVG 1.1//EN"
"http://www.w3.org/Graphics/SVG/1.1/DTD/svg11.dtd">
<svg viewBox="0 0 909 1286" version="1.1" xmlns="http://www.w3.org/2000/svg" xmlns:xlink="http://www.w3.org/1999/xlink">
<defs>
<clipPath id="c0_77"><path d="M123.1,296.1V264.4h29.1v31.7Z"/></clipPath>
<clipPath id="c1_77"><path d="M122.1,296.6V263.9H153v32.7Z"/></clipPath>
<style type="text/css"><![CDATA[
.g0_77{
fill: #FFFFFF;
}
.g1_77{
}
.g2_77{
fill: none;
stroke: #000000;
stroke-width: 0.459;
stroke-linecap: butt;
stroke-linejoin: round;
}
.g3_77{
fill: none;
stroke: #000000;
stroke-width: 0.722;
stroke-linecap: round;
stroke-linejoin: miter;
}
.g4_77{
fill: none;
stroke: #000000;
stroke-width: 0.722;
stroke-linecap: round;
stroke-linejoin: round;
}
.g5_77{
fill: #D40000;
}
.g6_77{
fill: none;
stroke: #000000;
stroke-width: 0.578;
stroke-linecap: round;
stroke-linejoin: miter;
}
.g7_77{
fill: #E9C6AF;
}
.g8_77{
fill: none;
stroke: #695000;
stroke-width: 0.152;
stroke-linecap: round;
stroke-linejoin: round;
}
.g9_77{
fill: none;
stroke: #000000;
stroke-width: 1.461;
stroke-linecap: butt;
stroke-linejoin: miter;
}
.ga_77{
fill: none;
stroke: #000000;
stroke-width: 0.73;
stroke-linecap: butt;
stroke-linejoin: miter;
}
.gb_77{
fill: none;
stroke: #000000;
stroke-width: 2.739;
stroke-linecap: butt;
stroke-linejoin: miter;
}
.gc_77{
fill: #F81693;
fill-opacity: 0.25;
stroke: #F81693;
stroke-width: 0.73;
stroke-linecap: butt;
stroke-linejoin: miter;
stroke-opacity: 0.25;
}
.gd_77{
fill: #02B5EE;
fill-opacity: 0.25;
stroke: #02B5EE;
stroke-width: 0.73;
stroke-linecap: butt;
stroke-linejoin: miter;
stroke-opacity: 0.25;
}
.ge_77{
fill: #5EE200;
fill-opacity: 0.25;
stroke: #5EE200;
stroke-width: 0.73;
stroke-linecap: butt;
stroke-linejoin: miter;
stroke-opacity: 0.25;
}
.gf_77{
fill: #FFF200;
fill-opacity: 0.75;
stroke: #FFF200;
stroke-width: 0.73;
stroke-linecap: butt;
stroke-linejoin: miter;
stroke-opacity: 0.75;
}
]]></style>
</defs>
<path d="M117.7,424.8V257.6H791.8V424.8Z" class="g0_77"/>
<path d="M117.7,424.8V257.6H791.8V424.8Z" class="g9_77"/>
<g clip-path="url(#c1_77)">
<path clip-path="url(#c0_77)" d="M126.4,289.8c0,0,1.5,-1,1.2,-1.3c-.1,-.1,-.3,-.1,-.6,-.1c-1.6,.4,-5,2.2,-3.3,4.2c1.4,1.6,6.4,2.4,11.7,1.4c7.3,-1.5,13.5,-5.5,11.1,-8.3c-1.6,-2,-6.7,-2.2,-10.8,-2.2c-2.1,0,-6.6,-.1,-8,-1.8c-.6,-.7,-.5,-1.5,.1,-2.1c1,-.9,3.8,-1.4,4,-1.5c.7,-.1,2.5,-.4,4.6,-.4c1.1,.1,2.5,.1,3.2,1c.2,.2,.4,.6,.4,.7c0,0,0,.1,.1,.2c.1,.1,.4,.1,.5,0c.5,0,1.5,-.5,2,-1c.3,-.2,.8,-.6,0,-1.5c-.9,-1.1,-2.3,-1.2,-4,-1.2c-2.3,0,-4.1,.3,-4.9,.5c-5.8,1.1,-11.1,4.6,-9,7c1.5,1.8,6.3,1.9,9,1.9c3.9,.1,8.4,.3,9.8,2c.6,.6,.9,1.8,-.4,2.9c-1.2,.9,-4,1.7,-5.8,2c-4.4,.9,-9.4,.2,-10.6,-1.3c0,0,-.5,-.5,-.3,-1.1Z" class="g1_77"/>
<path d="M131.5,292.2l-.2,-.2l.3,-4.6q.3,-5.6,.5,-6c.1,-.1,1.6,-2.2,3.3,-4.6c1.7,-2.3,4.3,-6,5.9,-8.2c1.5,-2.2,2.8,-4,2.9,-4c.4,0,.1,.4,-1.8,3.2c-1.2,1.6,-3.7,5.3,-5.7,8.1c-2,2.8,-3.6,5.2,-3.6,5.2c0,0,.5,.1,1,.1c2,.3,3.3,.6,4.5,1.3c.6,.3,1,.5,1.5,1.1c.8,.8,1.2,1.4,1.4,2.2c.1,.2,.1,.4,.2,.4c.1,0,.7,-.8,5.2,-7.5c2.4,-3.7,4.5,-6.8,4.6,-6.9c.2,-.2,.4,0,.2,.3c0,.1,-1.5,2.3,-3.2,5c-1.8,2.6,-3.8,5.7,-4.5,6.7c-1.5,2.4,-2.1,3.4,-2.3,3.8c-.2,.4,-.3,.4,-.9,.7c-.8,.4,-8.7,4,-8.9,4c-.1,.1,-.3,0,-.4,-.1Z" class="g1_77"/>
<path d="M135.2,290.2c2.2,-1,4,-1.7,4.6,-2.1c.7,-.3,.7,-.4,.7,-1.4c-.2,-1.7,-1.4,-3,-3.6,-3.7c-1.2,-.4,-4.3,-.8,-4.4,-.6c0,0,-.1,1.4,-.2,3.1c-.1,1.7,-.2,3.3,-.2,3.6c-.1,1.1,.1,1.4,-.2,2.6c.1,.1,1.8,-.9,1.8,-.9c.1,0,.7,-.2,1.5,-.6Z" class="g1_77"/>
<path d="M131.5,292.2l-.2,-.2l.3,-4.6q.3,-5.6,.5,-6c.1,-.1,1.6,-2.2,3.3,-4.6c1.7,-2.3,4.3,-6,5.9,-8.2c1.5,-2.2,2.8,-4,2.9,-4c.4,0,.1,.4,-1.8,3.2c-1.2,1.6,-3.7,5.3,-5.7,8.1c-2,2.8,-3.6,5.2,-3.6,5.2c0,0,.5,.1,1,.1c2,.3,3.3,.6,4.5,1.3c.6,.3,1,.5,1.5,1.1c.8,.8,1.2,1.4,1.4,2.2c.1,.2,.1,.4,.2,.4c.1,0,.7,-.8,5.2,-7.5c2.4,-3.7,4.5,-6.8,4.6,-6.9c.2,-.2,.4,0,.2,.3c0,.1,-1.5,2.3,-3.2,5c-1.8,2.6,-3.8,5.7,-4.5,6.7c-1.5,2.4,-2.1,3.4,-2.3,3.8c-.2,.4,-.3,.4,-.9,.7c-.8,.4,-8.7,4,-8.9,4c-.1,.1,-.3,0,-.4,-.1Zm3.7,-2c2.2,-1,4,-1.7,4.6,-2.1c.7,-.3,.7,-.4,.7,-1.4c-.2,-1.7,-1.4,-3,-3.6,-3.7c-1.2,-.4,-4.3,-.8,-4.4,-.6c0,0,-.1,1.4,-.2,3.1c-.1,1.7,-.2,3.3,-.2,3.6c-.1,1.1,.1,1.4,-.2,2.6c.1,.1,1.8,-.9,1.8,-.9c.1,0,.7,-.2,1.5,-.6Z" class="g2_77"/>
<path d="M135.3,281.6l11.2,-16m-8.2,17.1L149,267" class="g3_77"/>
<path d="M140.4,284.4l10,-14.4l.2,-.3" class="g4_77"/>
<path d="M134.1,281.2c-.4,-.1,-.8,-.1,-.9,-.1c0,-.1,2.5,-3.7,6.7,-9.6c1.9,-2.7,3.6,-5.2,3.8,-5.6c.2,-.3,.4,-.6,.5,-.6c.1,0,.7,.5,.9,.7c.1,.3,.1,.6,-.1,1.1c-.2,.5,-9.8,14.3,-9.9,14.3c-.1,0,-.5,-.1,-1,-.2Z" class="g5_77"/>
<path d="M137.6,282c-.2,-.1,-.8,-.3,-1.2,-.4l-.7,-.2l.3,-.3c.1,-.2,2.3,-3.4,4.8,-7l4.7,-6.7l.5,-.3c.9,-.5,1.6,-.4,2.1,.1l.3,.2l-5,7.4c-3.1,4.5,-5.1,7.4,-5.1,7.4c-.1,0,-.4,-.1,-.7,-.2Z" class="g5_77"/>
<path d="M140,283.4c-.2,-.2,-.6,-.5,-.8,-.6c-.2,-.2,-.3,-.3,-.3,-.4c0,0,9.4,-13.9,9.8,-14.5c.1,-.1,.5,.3,.8,.7c.3,.4,.3,.6,.4,1c0,.4,0,.6,-.1,.8c-.2,.2,-9.1,13.1,-9.2,13.3q-.2,.1,-.6,-.3Z" class="g5_77"/>
<path d="M141.6,286.1c0,-.1,-.1,-.4,-.1,-.6c-.1,-.2,-.3,-.6,-.4,-.8l-.3,-.4l4.7,-6.8c2.6,-3.8,4.8,-6.8,4.8,-6.8c.4,0,1,.7,1,1.1c0,.2,-.6,1.2,-1.9,3.1c-1.1,1.6,-3.1,4.6,-4.6,6.8c-3,4.4,-3.1,4.6,-3.2,4.4Z" class="g5_77"/>
<path d="M131.9,287.5c2.3,-.1,3.6,.8,4.1,2.4" class="g6_77"/>
<path d="M132,291.5c0,-.4,.1,-.5,.1,-1.4c0,-.7,0,-.9,0,-1.3c0,-.3,0,-.6,0,-.7l.1,-.2v-.1c.1,0,.6,.1,.7,.1c.4,0,.8,.1,1.1,.2c.2,.1,.4,.2,.6,.3c.2,.1,.3,.2,.4,.4c.3,.2,.4,.4,.6,.7c0,.2,.1,.5,.1,.5c0,0,-1.5,.7,-1.8,.8c-.1,0,-.2,0,-.3,.1c-1.1,.6,-1.4,.7,-1.6,.7v.1Z" class="g1_77"/>
<path d="M136.2,289.4c-.6,-1.3,-1.8,-2,-3.4,-2.1l-.6,-.1v-.5c.1,-.2,.1,-1.2,.2,-2.2c0,-.9,.1,-1.8,.1,-1.9l.1,-.2h.7c.8,0,2.3,.3,3.1,.5c1.7,.4,3.1,1.4,3.6,2.5c.4,.8,.6,2.1,.3,2.4c-.1,.1,-.8,.5,-2.5,1.2c-1.6,.8,-1.5,.7,-1.6,.4Z" class="g7_77"/>
<path d="M136.2,289.4c-.6,-1.3,-1.8,-2,-3.4,-2.1l-.6,-.1v-.5c.1,-.2,.1,-1.2,.2,-2.2c0,-.9,.1,-1.8,.1,-1.9l.1,-.2h.7c.8,0,2.3,.3,3.1,.5c1.7,.4,3.1,1.4,3.6,2.5c.4,.8,.6,2.1,.3,2.4c-.1,.1,-.8,.5,-2.5,1.2c-1.6,.8,-1.5,.7,-1.6,.4Z" class="g8_77"/>
</g>
<path d="M152.7,289.5H445.3" class="ga_77"/>
<path d="M137.6,297.1V415.4" class="gb_77"/>
<path d="M184.9,490.9V454.8m0,65.3V490.9m0,58.4V520.1m0,64V549.3m0,427.1V584.1" class="ga_77"/>
<path d="M450,767.4c0,-21.5,-17.5,-38.9,-39,-38.9c-21.5,0,-39,17.4,-39,38.9c0,21.6,17.5,39,39,39c21.5,0,39,-17.4,39,-39Z" class="g9_77"/>
<path d="M394.8,732l-11.7,14.5l2.2,-10.2l-9.1,-4.9Z" class="g1_77"/>
<path d="M411,708.6l27.2,-27.2h-13V665.1H396.8v16.3h-13Z" class="gc_77"/>
<path d="M411,869.9l31.6,-31.6h-13V820.1H392.4v18.2h-13Z" class="gd_77"/>
<path d="M302.3,767.4L328,793.2v-13h23.1V754.7H328v-13Z" class="ge_77"/>
<path d="M605.9,767.4c0,-21.5,-17.5,-38.9,-39,-38.9c-21.5,0,-39,17.4,-39,38.9c0,21.6,17.5,39,39,39c21.5,0,39,-17.4,39,-39Z" class="g9_77"/>
<path d="M550.7,732L539,746.5l2.2,-10.2l-9.1,-4.9Z" class="g1_77"/>
<path d="M566.9,708.6l27.2,-27.2h-13V665.1H552.7v16.3h-13Z" class="gc_77"/>
<path d="M566.9,865.2l29,-29h-13V822.1h-32v14.1h-13Z" class="gd_77"/>
<path d="M680.2,767.4L652.4,739.6v13H624.3v29.7h28.1v13Z" class="ge_77"/>
<path d="M333,650.5V592H644.9v58.5Z" class="gf_77"/>
<path d="M333,884.4v58.4H644.9V884.4Z" class="gf_77"/>
<path d="M184.9,1013.5V976.4" class="ga_77"/>
</svg>