<?xml version="1.0" encoding="UTF-8" standalone="no"?>
<!DOCTYPE svg PUBLIC "-//W3C//DTD SVG 1.1//EN"
"http://www.w3.org/Graphics/SVG/1.1/DTD/svg11.dtd">
<svg viewBox="0 0 1286 909" version="1.1" xmlns="http://www.w3.org/2000/svg" xmlns:xlink="http://www.w3.org/1999/xlink">
<defs>
<style type="text/css"><![CDATA[
.g0_361{
fill: none;
stroke: #000000;
stroke-width: 0.73;
stroke-linecap: butt;
stroke-linejoin: miter;
}
.g1_361{
fill: none;
stroke: #02B5EE;
stroke-width: 1.262;
stroke-linecap: butt;
stroke-linejoin: miter;
}
.g2_361{
fill: none;
stroke: #5EE200;
stroke-width: 1.262;
stroke-linecap: butt;
stroke-linejoin: miter;
}
.g3_361{
fill: none;
stroke: #5EE200;
stroke-width: 0.73;
stroke-linecap: butt;
stroke-linejoin: miter;
}
.g4_361{
fill: none;
stroke: #02B5EE;
stroke-width: 0.73;
stroke-linecap: butt;
stroke-linejoin: miter;
}
]]></style>
</defs>
<path d="M193,83.4h900.3M193,210.6H637.5m-444.5,0H637.5M358.4,240.2V211m0,58.5V240.2m0,59.4V269.5m0,59.3V299.6m0,58.5V328.8m0,114.3v-85" class="g0_361"/>
<path d="M369.4,419.1h63.7" class="g1_361"/>
<path d="M443.7,419.1H626.6" class="g2_361"/>
<path d="M358.4,472.3V443.1m0,102.3V472.3" class="g0_361"/>
<path d="M451.6,531.5H536" class="g3_361"/>
<path d="M542.1,531.5h84.5" class="g4_361"/>
<path d="M358.4,574.6V545.4m0,58.4V574.6m0,114.3V603.8" class="g0_361"/>
<path d="M374.8,664.9h63.8" class="g1_361"/>
<path d="M449.1,664.9H626.6" class="g2_361"/>
<path d="M358.4,719V688.9m0,59.3V719M193,748.6H637.5m-444.5,0H637.5" class="g0_361"/>
</svg>