<?xml version="1.0" encoding="UTF-8" standalone="no"?>
<!DOCTYPE svg PUBLIC "-//W3C//DTD SVG 1.1//EN"
"http://www.w3.org/Graphics/SVG/1.1/DTD/svg11.dtd">
<svg viewBox="0 0 1286 909" version="1.1" xmlns="http://www.w3.org/2000/svg" xmlns:xlink="http://www.w3.org/1999/xlink">
<defs>
<style type="text/css"><![CDATA[
.g0_1200{
fill: none;
stroke: #000000;
stroke-width: 0.73;
stroke-linecap: butt;
stroke-linejoin: miter;
}
.g1_1200{
fill: none;
stroke: #000000;
stroke-width: 0.657;
stroke-linecap: butt;
stroke-linejoin: miter;
}
.g2_1200{
fill: #FDE8E9;
}
]]></style>
</defs>
<path d="M193,83.4h900.3" class="g0_1200"/>
<path d="M202.8,109.7H739.2M202.8,136.3V110m337.1,26.3V110m199.3,26.3V110M202.8,165.3v-29m337.1,29v-29" class="g1_1200"/>
<path d="M549.8,165.3h68.7V139.5H549.8v25.8Z" class="g2_1200"/>
<path d="M739.2,165.3v-29M202.8,191.6V165.3m337.1,26.3V165.3m199.3,26.3V165.3M202.8,217.9V191.6m337.1,26.3V191.6m199.3,26.3V191.6M202.8,249V217.9M539.9,249V217.9" class="g1_1200"/>
<path d="M549.8,249h66.3V217.9H549.8V249Z" class="g2_1200"/>
<path d="M739.2,249V217.9M202.8,275.3V249m337.1,26.3V249m199.3,26.3V249M202.8,301.6V275.3m337.1,26.3V275.3m199.3,26.3V275.3M202.8,332.8V301.6m337.1,31.2V301.6" class="g1_1200"/>
<path d="M549.8,332.8h97.1V301.6H549.8v31.2Z" class="g2_1200"/>
<path d="M739.2,332.8V301.6M202.8,359.1V332.8m337.1,26.3V332.8m199.3,26.3V332.8M202.8,385.4V359.1m337.1,26.3V359.1m199.3,26.3V359.1M202.8,416.5V385.4m337.1,31.1V385.4" class="g1_1200"/>
<path d="M549.8,416.5H729.4V385.4H549.8v31.1Z" class="g2_1200"/>
<path d="M739.2,416.5V385.4M202.8,442.8V416.5m337.1,26.3V416.5m199.3,26.3V416.5M202.8,469.1V442.8m337.1,26.3V442.8m199.3,26.3V442.8M202.8,498.5V469.1m337.1,29.4V469.1" class="g1_1200"/>
<path d="M549.8,495.6h88.8V469.1H549.8v26.5Z" class="g2_1200"/>
<path d="M739.2,498.5V469.1M202.8,524.8V498.5m337.1,26.3V498.5m199.3,26.3V498.5M202.8,551.1V524.8m337.1,26.3V524.8m199.3,26.3V524.8M202.8,582.3V551.1m337.1,31.2V551.1" class="g1_1200"/>
<path d="M549.8,582.3h70.5V551.1H549.8v31.2Z" class="g2_1200"/>
<path d="M739.2,582.3V551.1M202.8,608.6V582.3m337.1,26.3V582.3m199.3,26.3V582.3M202.8,634.9V608.6m337.1,26.3V608.6m199.3,26.3V608.6M202.8,664.3V634.9m337.1,29.4V634.9" class="g1_1200"/>
<path d="M549.8,661.3h64.3V634.9H549.8v26.4Z" class="g2_1200"/>
<path d="M739.2,664.3V634.9M202.8,690.6V664.3m337.1,26.3V664.3m199.3,26.3V664.3M202.8,716.9V690.6m337.1,26.3V690.6m199.3,26.3V690.6M202.8,746.3V716.9m337.1,29.4V716.9" class="g1_1200"/>
<path d="M549.8,743.3h86.9V716.9H549.8v26.4Z" class="g2_1200"/>
<path d="M739.2,746.3V716.9M202.8,772.6V746.3m337.1,26.3V746.3m199.3,26.3V746.3M202.8,772.9H739.2M759,109.5h303.2M759,136.1V109.8m107.2,26.3V109.8m196,26.3V109.8M759,165.5V136.1m107.2,29.4V136.1" class="g1_1200"/>
<path d="M876.1,162.5h65.1V136.1H876.1v26.4Z" class="g2_1200"/>
<path d="M1062.2,165.5V136.1M759,191.8V165.5m107.2,26.3V165.5m196,26.3V165.5M759,218.1V191.8m107.2,26.3V191.8m196,26.3V191.8M759,247.5V218.1m107.2,29.4V218.1" class="g1_1200"/>
<path d="M876.1,244.5h146.5V218.1H876.1v26.4Z" class="g2_1200"/>
<path d="M1062.2,247.5V218.1M759,273.8V247.5m107.2,26.3V247.5m196,26.3V247.5M759,300.1V273.8m107.2,26.3V273.8m196,26.3V273.8M759,329.5V300.1m107.2,29.4V300.1" class="g1_1200"/>
<path d="M876.1,326.5H961V300.1H876.1v26.4Z" class="g2_1200"/>
<path d="M1062.2,329.5V300.1M759,355.8V329.5m107.2,26.3V329.5m196,26.3V329.5M759,382.1V355.8m107.2,26.3V355.8m196,26.3V355.8M759,413.2V382.1m107.2,31.1V382.1" class="g1_1200"/>
<path d="M876.1,413.2h176.3V382.1H876.1v31.1Z" class="g2_1200"/>
<path d="M1062.2,413.2V382.1M759,439.5V413.2m107.2,26.3V413.2m196,26.3V413.2M759,465.8V439.5m107.2,26.3V439.5m196,26.3V439.5M759,497V465.8M866.2,497V465.8" class="g1_1200"/>
<path d="M876.1,497h65.7V465.8H876.1V497Z" class="g2_1200"/>
<path d="M1062.2,497V465.8M759,523.3V497m107.2,26.3V497m196,26.3V497M759,549.6V523.3m107.2,26.3V523.3m196,26.3V523.3M759,579V549.6M866.2,579V549.6" class="g1_1200"/>
<path d="M876.1,576h65.2V549.6H876.1V576Z" class="g2_1200"/>
<path d="M1062.2,579V549.6M759,605.3V579m107.2,26.3V579m196,26.3V579M759,631.6V605.3m107.2,26.3V605.3m196,26.3V605.3M759,662.7V631.6m107.2,31.1V631.6" class="g1_1200"/>
<path d="M876.1,662.7h89.5V631.6H876.1v31.1Z" class="g2_1200"/>
<path d="M1062.2,662.7V631.6M759,689V662.7M866.2,689V662.7m196,26.3V662.7M759,715.3V689m107.2,26.3V689m196,26.3V689M759,746.5V715.3m107.2,31.2V715.3" class="g1_1200"/>
<path d="M876.1,746.5H999.3V715.3H876.1v31.2Z" class="g2_1200"/>
<path d="M1062.2,746.5V715.3M759,772.8V746.5m107.2,26.3V746.5m196,26.3V746.5M759,773.1h303.2" class="g1_1200"/>
</svg>