<?xml version="1.0" encoding="UTF-8" standalone="no"?>
<!DOCTYPE svg PUBLIC "-//W3C//DTD SVG 1.1//EN"
"http://www.w3.org/Graphics/SVG/1.1/DTD/svg11.dtd">
<svg viewBox="0 0 1286 909" version="1.1" xmlns="http://www.w3.org/2000/svg" xmlns:xlink="http://www.w3.org/1999/xlink">
<defs>
<style type="text/css"><![CDATA[
.g0_157{
fill: none;
stroke: #000000;
stroke-width: 0.73;
stroke-linecap: butt;
stroke-linejoin: miter;
}
.g1_157{
fill: none;
stroke: #02B5EE;
stroke-width: 1.262;
stroke-linecap: butt;
stroke-linejoin: miter;
}
.g2_157{
fill: none;
stroke: #5EE200;
stroke-width: 1.262;
stroke-linecap: butt;
stroke-linejoin: miter;
}
.g3_157{
fill: none;
stroke: #5EE200;
stroke-width: 0.73;
stroke-linecap: butt;
stroke-linejoin: miter;
}
.g4_157{
fill: none;
stroke: #02B5EE;
stroke-width: 0.73;
stroke-linecap: butt;
stroke-linejoin: miter;
}
.g5_157{
fill: #B3E9FA;
}
]]></style>
</defs>
<path d="M193,83.4h900.3M193,210.6h859.7m-859.7,0h859.7M638,240.2V211m0,58.5V240.2m0,114.3v-85" class="g0_157"/>
<path d="M718,330.5H845.6" class="g1_157"/>
<path d="M856.1,330.5h22.2" class="g2_157"/>
<path d="M638,384.6V354.5m0,103.2V384.6" class="g0_157"/>
<path d="M745.1,443.8h34.2" class="g3_157"/>
<path d="M906.7,443.8h135.1" class="g4_157"/>
<path d="M638,486.9V457.7m0,58.5V486.9m0,114.3v-85" class="g0_157"/>
<path d="M651.6,551.4V539.2c0,-2.9,2.3,-5.2,5.2,-5.2H770.7c2.9,0,5.2,2.3,5.2,5.2v12.2c0,2.9,-2.3,5.2,-5.2,5.2H656.8c-2.9,0,-5.2,-2.3,-5.2,-5.2Z" class="g5_157"/>
<path d="M649,577.2H778.5" class="g1_157"/>
<path d="M789,577.2h252.8" class="g2_157"/>
<path d="M638,630.4V601.2m0,58.4V630.4m0,58.5V659.6M193,689.2h859.7m-859.7,0h859.7" class="g0_157"/>
</svg>