<?xml version="1.0" encoding="UTF-8" standalone="no"?>
<!DOCTYPE svg PUBLIC "-//W3C//DTD SVG 1.1//EN"
"http://www.w3.org/Graphics/SVG/1.1/DTD/svg11.dtd">
<svg viewBox="0 0 1286 909" version="1.1" xmlns="http://www.w3.org/2000/svg" xmlns:xlink="http://www.w3.org/1999/xlink">
<defs>
<style type="text/css"><![CDATA[
.g0_765{
fill: none;
stroke: #000000;
stroke-width: 0.73;
stroke-linecap: butt;
stroke-linejoin: miter;
}
.g1_765{
fill: none;
stroke: #02B5EE;
stroke-width: 1.262;
stroke-linecap: butt;
stroke-linejoin: miter;
}
.g2_765{
fill: none;
stroke: #FFA313;
stroke-width: 1.262;
stroke-linecap: butt;
stroke-linejoin: miter;
}
.g3_765{
fill: none;
stroke: #FFA313;
stroke-width: 0.73;
stroke-linecap: butt;
stroke-linejoin: miter;
}
.g4_765{
fill: none;
stroke: #02B5EE;
stroke-width: 0.73;
stroke-linecap: butt;
stroke-linejoin: miter;
}
.g5_765{
fill: none;
stroke: #5EE200;
stroke-width: 1.262;
stroke-linecap: butt;
stroke-linejoin: miter;
}
.g6_765{
fill: none;
stroke: #5EE200;
stroke-width: 0.73;
stroke-linecap: butt;
stroke-linejoin: miter;
}
]]></style>
</defs>
<path d="M193,83.4h900.3M193,210.6H876.5m-683.5,0H876.5M525.4,240.2V211m0,58.5V240.2m0,114.3v-85" class="g0_765"/>
<path d="M536.3,330.5h34.6" class="g1_765"/>
<path d="M581.5,330.5h284" class="g2_765"/>
<path d="M525.4,383.7V354.5m0,102.3V383.7" class="g0_765"/>
<path d="M640.8,442.9H825.6" class="g3_765"/>
<path d="M831.7,442.9h33.8" class="g4_765"/>
<path d="M525.4,486V456.8m0,58.4V486m0,114.2v-85" class="g0_765"/>
<path d="M715.5,576.2h74.4" class="g1_765"/>
<path d="M800.4,576.2h65.1" class="g5_765"/>
<path d="M525.4,629.5V600.2m0,102.3v-73" class="g0_765"/>
<path d="M708.4,688.6h83.5" class="g6_765"/>
<path d="M798,688.6h67.5" class="g4_765"/>
<path d="M525.4,731.7V702.5m0,58.5V731.7M193,761.3H876.5m-683.5,0H876.5" class="g0_765"/>
</svg>