<?xml version="1.0" encoding="UTF-8" standalone="no"?>
<!DOCTYPE svg PUBLIC "-//W3C//DTD SVG 1.1//EN"
"http://www.w3.org/Graphics/SVG/1.1/DTD/svg11.dtd">
<svg viewBox="0 0 1286 909" version="1.1" xmlns="http://www.w3.org/2000/svg" xmlns:xlink="http://www.w3.org/1999/xlink">
<defs>
<style type="text/css"><![CDATA[
.g0_908{
fill: none;
stroke: #000000;
stroke-width: 0.73;
stroke-linecap: butt;
stroke-linejoin: miter;
}
.g1_908{
fill: #E6CEEE;
}
.g2_908{
fill: none;
stroke: #02B5EE;
stroke-width: 1.262;
stroke-linecap: butt;
stroke-linejoin: miter;
}
.g3_908{
fill: none;
stroke: #02B5EE;
stroke-width: 0.73;
stroke-linecap: butt;
stroke-linejoin: miter;
}
]]></style>
</defs>
<path d="M193,83.4h900.3M193,210.6H961.2m-768.2,0H961.2M625.9,240.2V211m0,58.5V240.2m0,64.1V269.5" class="g0_908"/>
<path d="M636.9,304.3H747.2V271.4H636.9v32.9Z" class="g1_908"/>
<path d="M625.9,333.5V304.3m0,62.1V333.5" class="g0_908"/>
<path d="M804.2,366.4h44.7V333.5H804.2v32.9Z" class="g1_908"/>
<path d="M625.9,395.6V366.4m0,58.4V395.6m0,114.2v-85" class="g0_908"/>
<path d="M737.3,485.9H782" class="g2_908"/>
<path d="M625.9,540V509.8m0,103.3V540" class="g0_908"/>
<path d="M815.1,599.2H950.2" class="g3_908"/>
<path d="M625.9,642.3V613.1m0,58.4V642.3m0,58.4V671.5M193,701.1H961.2m-768.2,0H961.2" class="g0_908"/>
</svg>