<?xml version="1.0" encoding="UTF-8" standalone="no"?>
<!DOCTYPE svg PUBLIC "-//W3C//DTD SVG 1.1//EN"
"http://www.w3.org/Graphics/SVG/1.1/DTD/svg11.dtd">
<svg viewBox="0 0 909 1286" version="1.1" xmlns="http://www.w3.org/2000/svg" xmlns:xlink="http://www.w3.org/1999/xlink">
<defs>
<style type="text/css"><![CDATA[
.g0_2{
fill: none;
stroke: #000000;
stroke-width: 0.73;
stroke-linecap: butt;
stroke-linejoin: miter;
}
.g1_2{
stroke: #000000;
stroke-width: 0.73;
stroke-linecap: butt;
stroke-linejoin: miter;
}
.g2_2{
fill: #FFFFFF;
}
.g3_2{
fill: none;
stroke: #02B5EE;
stroke-width: 1.461;
stroke-linecap: butt;
stroke-linejoin: miter;
}
.g4_2{
fill: #FDE8E9;
}
]]></style>
</defs>
<path d="M116.9,282.3H681M248.8,311.9V282.7M201,384.9c0,-10.1,-8.2,-18.2,-18.3,-18.2c-10.1,0,-18.3,8.1,-18.3,18.2c0,10.1,8.2,18.3,18.3,18.3c10.1,0,18.3,-8.2,18.3,-18.3ZM182.7,366.7V353.9m-17.2,32.8l-19.7,7.9" class="g0_2"/>
<path d="M182.7,394.1l3.3,27.4h-6.6l3.3,-27.4" class="g1_2"/>
<path d="M199.9,386.7l19.7,7.9m29.2,63.3v-146" class="g0_2"/>
<path d="M262.7,450.1V319.7c0,-2.8,2.4,-5.2,5.2,-5.2H431.3c2.8,0,5.2,2.4,5.2,5.2V450.1c0,2.9,-2.4,5.2,-5.2,5.2H267.9c-2.8,0,-5.2,-2.3,-5.2,-5.2Z" class="g2_2"/>
<path d="M367.9,384.9c0,-10.1,-8.2,-18.2,-18.3,-18.2c-10.1,0,-18.3,8.1,-18.3,18.2c0,10.1,8.2,18.3,18.3,18.3c10.1,0,18.3,-8.2,18.3,-18.3ZM349.6,366.7V353.9m-17.2,32.8l-19.7,7.9" class="g0_2"/>
<path d="M349.6,394.1l3.3,27.4h-6.6l3.3,-27.4" class="g1_2"/>
<path d="M366.8,386.7l19.7,7.9M248.8,487.1V457.9m0,58.5V487.1m0,58.5V516.4m0,58.4V545.6" class="g0_2"/>
<path d="M260.1,573.3c1.4,0,2.1,-2.7,3.5,-2.7c1,0,1.8,1.3,2.7,2.7c.9,1.4,1.8,2.8,2.7,2.8c1,0,1.9,-1.4,2.8,-2.8c.9,-1.4,1.7,-2.7,2.7,-2.7c1,0,1.9,1.3,2.8,2.7c.9,1.4,1.7,2.8,2.7,2.8c1.4,0,2.1,-2.8,3.4,-2.8h4.1" class="g3_2"/>
<path d="M248.8,604V574.8m0,98.6V604" class="g0_2"/>
<path d="M326.4,665.6V611.8c0,-2.9,2.3,-5.2,5.2,-5.2H544.4c2.9,0,5.2,2.3,5.2,5.2v53.8c0,2.9,-2.3,5.2,-5.2,5.2H331.6c-2.9,0,-5.2,-2.3,-5.2,-5.2Z" class="g2_2"/>
<path d="M399.2,696.6h77.6V679.9H399.2v16.7Z" class="g4_2"/>
<path d="M352.4,655.2H523.6v-33H352.4v33Z" class="g4_2"/>
<path d="M248.8,702.7V673.4M116.9,703H681M248.8,732.6V703.4M201,805.6c0,-10.1,-8.2,-18.3,-18.3,-18.3c-10.1,0,-18.3,8.2,-18.3,18.3c0,10.1,8.2,18.3,18.3,18.3c10.1,0,18.3,-8.2,18.3,-18.3ZM182.7,787.3V774.6m-17.2,32.8l-19.7,7.9" class="g0_2"/>
<path d="M182.7,814.7l3.3,27.4h-6.6l3.3,-27.4" class="g1_2"/>
<path d="M199.9,807.4l19.7,7.9m29.2,63.3v-146" class="g0_2"/>
<path d="M262.7,870.8V740.4c0,-2.9,2.4,-5.2,5.2,-5.2H431.3c2.8,0,5.2,2.3,5.2,5.2V870.8c0,2.9,-2.4,5.2,-5.2,5.2H267.9c-2.8,0,-5.2,-2.3,-5.2,-5.2Z" class="g2_2"/>
<path d="M367.9,805.6c0,-10.1,-8.2,-18.3,-18.3,-18.3c-10.1,0,-18.3,8.2,-18.3,18.3c0,10.1,8.2,18.3,18.3,18.3c10.1,0,18.3,-8.2,18.3,-18.3ZM349.6,787.3V774.6m-17.2,32.8l-19.7,7.9" class="g0_2"/>
<path d="M349.6,814.7l3.3,27.4h-6.6l3.3,-27.4" class="g1_2"/>
<path d="M366.8,807.4l19.7,7.9M248.8,907.8V878.6m0,58.4V907.8m0,58.5V937m0,58.5V966.3" class="g0_2"/>
<path d="M260.1,994c1.4,0,2.1,-2.7,3.5,-2.7c1,0,1.8,1.3,2.7,2.7c.9,1.4,1.8,2.8,2.7,2.8c1,0,1.9,-1.4,2.8,-2.8c.9,-1.4,1.7,-2.7,2.7,-2.7c1,0,1.9,1.3,2.8,2.7c.9,1.4,1.7,2.8,2.7,2.8c1.4,0,2.1,-2.8,3.4,-2.8h4.1" class="g3_2"/>
<path d="M248.8,1024.7V995.5m0,98.6v-69.4" class="g0_2"/>
<path d="M326.4,1086.3v-53.8c0,-2.9,2.3,-5.2,5.2,-5.2H551.3c2.8,0,5.2,2.3,5.2,5.2v53.8c0,2.9,-2.4,5.2,-5.2,5.2H331.6c-2.9,0,-5.2,-2.3,-5.2,-5.2Z" class="g2_2"/>
<path d="M407.8,1117.3h67.3v-16.7H407.8v16.7Z" class="g4_2"/>
<path d="M352.4,1075.9H530.5v-33H352.4v33Z" class="g4_2"/>
<path d="M248.8,1123.3v-29.2m-131.9,29.6H681" class="g0_2"/>
</svg>