<?xml version="1.0" encoding="UTF-8" standalone="no"?>
<!DOCTYPE svg PUBLIC "-//W3C//DTD SVG 1.1//EN"
"http://www.w3.org/Graphics/SVG/1.1/DTD/svg11.dtd">
<svg viewBox="0 0 1286 909" version="1.1" xmlns="http://www.w3.org/2000/svg" xmlns:xlink="http://www.w3.org/1999/xlink">
<defs>
<style type="text/css"><![CDATA[
.g0_942{
fill: none;
stroke: #000000;
stroke-width: 0.73;
stroke-linecap: butt;
stroke-linejoin: miter;
}
.g1_942{
fill: none;
stroke: #02B5EE;
stroke-width: 1.262;
stroke-linecap: butt;
stroke-linejoin: miter;
}
.g2_942{
fill: none;
stroke: #02B5EE;
stroke-width: 0.73;
stroke-linecap: butt;
stroke-linejoin: miter;
}
]]></style>
</defs>
<path d="M193,83.4h900.3M193,210.6H799.5m-606.5,0H799.5M415.2,240.2V211m0,58.5V240.2m0,114.3v-85" class="g0_942"/>
<path d="M514.1,330.5h99.7" class="g1_942"/>
<path d="M415.2,383.7V354.5m0,102.3V383.7" class="g0_942"/>
<path d="M737.9,442.9h50.6" class="g2_942"/>
<path d="M415.2,486V456.8m0,58.4V486m0,114.2v-85" class="g0_942"/>
<path d="M513,576.2H613.8" class="g1_942"/>
<path d="M415.2,629.5V600.2m0,102.3v-73" class="g0_942"/>
<path d="M663.9,688.6H788.5" class="g2_942"/>
<path d="M415.2,731.7V702.5M193,732.1H799.5m-606.5,0H799.5" class="g0_942"/>
</svg>