<?xml version="1.0" encoding="UTF-8" standalone="no"?>
<!DOCTYPE svg PUBLIC "-//W3C//DTD SVG 1.1//EN"
"http://www.w3.org/Graphics/SVG/1.1/DTD/svg11.dtd">
<svg viewBox="0 0 1286 909" version="1.1" xmlns="http://www.w3.org/2000/svg" xmlns:xlink="http://www.w3.org/1999/xlink">
<defs>
<style type="text/css"><![CDATA[
.g0_891{
fill: none;
stroke: #000000;
stroke-width: 0.73;
stroke-linecap: butt;
stroke-linejoin: miter;
}
.g1_891{
fill: none;
stroke: #02B5EE;
stroke-width: 1.262;
stroke-linecap: butt;
stroke-linejoin: miter;
}
.g2_891{
fill: none;
stroke: #02B5EE;
stroke-width: 0.73;
stroke-linecap: butt;
stroke-linejoin: miter;
}
]]></style>
</defs>
<path d="M193,83.4h900.3M193,210.6H631.9m-438.9,0H631.9M358.4,240.2V211m0,58.5V240.2m0,114.3v-85" class="g0_891"/>
<path d="M369.4,330.5h79.1" class="g1_891"/>
<path d="M358.4,383.7V354.5m0,102.3V383.7" class="g0_891"/>
<path d="M587.2,442.9H621" class="g2_891"/>
<path d="M358.4,486V456.8m0,58.4V486m0,114.2v-85" class="g0_891"/>
<path d="M385.5,576.2h79.2" class="g1_891"/>
<path d="M358.4,629.5V600.2m0,102.3v-73" class="g0_891"/>
<path d="M587.2,688.6H621" class="g2_891"/>
<path d="M358.4,731.7V702.5m0,58.5V731.7M193,761.3H631.9m-438.9,0H631.9" class="g0_891"/>
</svg>