<?xml version="1.0" encoding="UTF-8" standalone="no"?>
<!DOCTYPE svg PUBLIC "-//W3C//DTD SVG 1.1//EN"
"http://www.w3.org/Graphics/SVG/1.1/DTD/svg11.dtd">
<svg viewBox="0 0 1286 909" version="1.1" xmlns="http://www.w3.org/2000/svg" xmlns:xlink="http://www.w3.org/1999/xlink">
<defs>
<style type="text/css"><![CDATA[
.g0_238{
fill: none;
stroke: #000000;
stroke-width: 0.73;
stroke-linecap: butt;
stroke-linejoin: miter;
}
.g1_238{
fill: none;
stroke: #02B5EE;
stroke-width: 1.262;
stroke-linecap: butt;
stroke-linejoin: miter;
}
.g2_238{
fill: #E6CEEE;
}
.g3_238{
fill: none;
stroke: #FFA313;
stroke-width: 1.262;
stroke-linecap: butt;
stroke-linejoin: miter;
}
.g4_238{
fill: none;
stroke: #FFA313;
stroke-width: 0.73;
stroke-linecap: butt;
stroke-linejoin: miter;
}
.g5_238{
fill: none;
stroke: #02B5EE;
stroke-width: 0.73;
stroke-linecap: butt;
stroke-linejoin: miter;
}
.g6_238{
fill: none;
stroke: #5EE200;
stroke-width: 0.73;
stroke-linecap: butt;
stroke-linejoin: miter;
}
]]></style>
</defs>
<path d="M193,83.4h900.3M193,210.6H968.8m-775.8,0H968.8M406,240.2V211m0,58.5V240.2m0,114.3v-85" class="g0_238"/>
<path d="M416.9,330.5h34.7" class="g1_238"/>
<path d="M671.2,318.8H794.3V285.9H671.2v32.9Z" class="g2_238"/>
<path d="M462.1,330.5H957.8" class="g3_238"/>
<path d="M406,384.6V354.5m0,103.2V384.6" class="g0_238"/>
<path d="M839.5,434H918V401.1H839.5V434Z" class="g2_238"/>
<path d="M526.3,443.8H918" class="g4_238"/>
<path d="M924.1,443.8h33.7" class="g5_238"/>
<path d="M406,486.9V457.7m0,58.5V486.9m0,114.3v-85" class="g0_238"/>
<path d="M793.8,577.2H853" class="g1_238"/>
<path d="M406,630.4V601.2m0,102.3V630.4" class="g0_238"/>
<path d="M763,689.6h34.3" class="g5_238"/>
<path d="M803.3,689.6h60.1" class="g6_238"/>
<path d="M406,732.7V703.5M193,733.1H968.8m-775.8,0H968.8" class="g0_238"/>
</svg>