<?xml version="1.0" encoding="UTF-8" standalone="no"?>
<!DOCTYPE svg PUBLIC "-//W3C//DTD SVG 1.1//EN"
"http://www.w3.org/Graphics/SVG/1.1/DTD/svg11.dtd">
<svg viewBox="0 0 909 1286" version="1.1" xmlns="http://www.w3.org/2000/svg" xmlns:xlink="http://www.w3.org/1999/xlink">
<defs>
<style type="text/css"><![CDATA[
.g0_28{
fill: none;
stroke: #000000;
stroke-width: 0.73;
stroke-linecap: butt;
stroke-linejoin: miter;
}
.g1_28{
fill: none;
stroke: #F81693;
stroke-width: 0.73;
stroke-linecap: butt;
stroke-linejoin: miter;
}
.g2_28{
fill: none;
stroke: #02B5EE;
stroke-width: 0.73;
stroke-linecap: butt;
stroke-linejoin: miter;
}
.g3_28{
fill: none;
stroke: #02B5EE;
stroke-width: 1.461;
stroke-linecap: butt;
stroke-linejoin: miter;
}
.g4_28{
fill: none;
stroke: #F81693;
stroke-width: 1.461;
stroke-linecap: butt;
stroke-linejoin: miter;
}
.g5_28{
fill: #FFFFFF;
}
.g6_28{
fill: #FDE8E9;
}
]]></style>
</defs>
<path d="M116.9,179.9H719.8M352.9,209.5V180.3M228.7,265l24.9,14.8m-31.3,55.5L197.1,320.4m.4,0V283.8M228.7,265l-31.2,18.6M166.3,265l31.2,18.6m-31.2,55.6l31.2,-18.7m-31.2,18.7L135,320.5m0,-.1V283.8M166.3,265L135,283.6m32.4,-10.9l23,13.7M141,315.6v-27m26.4,42.9l23,-13.7M226.5,265V239.4m4.4,25.6V239.4m122,106.7V209.5" class="g0_28"/>
<path d="M504.9,265l24.9,14.8" class="g1_28"/>
<path d="M498.6,335.3L480.3,324.4" class="g2_28"/>
<path d="M473.7,313V293m31.2,-28l-24.8,14.8M442.5,265l24.8,14.8m-24.8,59.4l24.8,-14.8m-24.8,14.8L411.2,320.5m0,-.1V283.8M442.5,265l-31.3,18.6m32.4,-10.9l18.2,10.9m-44.5,32v-27m26.3,42.9l18.2,-11m41,-55.5V239.4m4.3,25.6V239.4" class="g1_28"/>
<path d="M352.9,375.3V346.1m0,58.5V375.3" class="g0_28"/>
<path d="M381.1,403.1c1.4,0,2.1,-2.7,3.5,-2.7c1,0,1.8,1.3,2.7,2.7c.9,1.4,1.8,2.7,2.8,2.7c.9,0,1.8,-1.3,2.7,-2.7c.9,-1.4,1.7,-2.7,2.7,-2.7c1.4,0,2.1,2.7,3.5,2.7h3.8" class="g3_28"/>
<path d="M502.5,403.1c1.4,0,2.1,-2.7,3.4,-2.7c1,0,1.9,1.3,2.8,2.7c.9,1.4,1.7,2.7,2.7,2.7c1,0,1.9,-1.3,2.7,-2.7c.9,-1.4,1.8,-2.7,2.8,-2.7c1,0,1.8,1.3,2.7,2.7c.9,1.4,1.8,2.7,2.8,2.7c1,0,1.8,-1.3,2.7,-2.7c.9,-1.4,1.8,-2.7,2.7,-2.7c1,0,1.9,1.3,2.8,2.7c.9,1.4,1.7,2.7,2.7,2.7c1,0,1.9,-1.3,2.8,-2.7c.9,-1.4,1.7,-2.7,2.7,-2.7c1,0,1.8,1.3,2.7,2.7c.9,1.4,1.8,2.7,2.8,2.7c1,0,1.8,-1.3,2.7,-2.7c.9,-1.4,1.8,-2.7,2.8,-2.7c1,0,1.8,1.3,2.7,2.7c.9,1.4,1.7,2.7,2.7,2.7c1,0,1.9,-1.3,2.8,-2.7c.9,-1.4,1.7,-2.7,2.7,-2.7c1,0,1.9,1.3,2.8,2.7c.9,1.4,1.7,2.7,2.7,2.7c1,0,1.8,-1.3,2.7,-2.7c.9,-1.4,1.8,-2.7,2.8,-2.7c1,0,1.8,1.3,2.7,2.7c.9,1.4,1.8,2.7,2.8,2.7c1,0,1.8,-1.3,2.7,-2.7c.9,-1.4,1.7,-2.7,2.7,-2.7c1,0,1.9,1.3,2.8,2.7c.9,1.4,1.7,2.7,2.7,2.7c1,0,1.9,-1.3,2.8,-2.7c.9,-1.4,1.7,-2.7,2.7,-2.7c1,0,1.8,1.3,2.7,2.7c.9,1.4,1.8,2.7,2.8,2.7c1,0,1.8,-1.3,2.7,-2.7c.9,-1.4,1.8,-2.7,2.8,-2.7c.9,0,1.8,1.3,2.7,2.7c.9,1.4,1.7,2.7,2.7,2.7c1,0,1.9,-1.3,2.8,-2.7c.9,-1.4,1.7,-2.7,2.7,-2.7c1,0,1.9,1.3,2.8,2.7c.8,1.4,1.7,2.7,2.7,2.7c1,0,1.8,-1.3,2.7,-2.7c.9,-1.4,1.8,-2.7,2.8,-2.7c1,0,1.8,1.3,2.7,2.7c.9,1.4,1.8,2.7,2.8,2.7c.9,0,1.8,-1.3,2.7,-2.7c.9,-1.4,1.7,-2.7,2.7,-2.7c1,0,1.9,1.3,2.8,2.7c.9,1.4,1.7,2.7,2.7,2.7c1.4,0,2.1,-2.7,3.4,-2.7h4.9" class="g4_28"/>
<path d="M352.9,433.8V404.6m0,105.7V433.8" class="g0_28"/>
<path d="M430.5,502.5V441.6c0,-2.9,2.4,-5.2,5.2,-5.2H634.2c2.9,0,5.2,2.3,5.2,5.2v60.9c0,2.9,-2.3,5.2,-5.2,5.2H435.7c-2.8,0,-5.2,-2.3,-5.2,-5.2Z" class="g5_28"/>
<path d="M500.3,533.2h69.4V516.8H500.3v16.4Z" class="g6_28"/>
<path d="M456.5,492.1H613.4V452H456.5v40.1Z" class="g6_28"/>
<path d="M352.9,539.5V510.3m-236,29.6H719.8M352.9,569.5V540.3M283.5,625l24.9,14.8m-56.1,40.6V643.8M283.5,625l-31.2,18.6M221.1,625l31.2,18.6m-31.2,55.6l31.2,-18.7m-31.2,18.7L189.8,680.5m0,-.1V643.8M221.1,625l-31.3,18.6m32.4,-10.9l23,13.7m-49.4,29.2v-27m26.4,42.9l23,-13.7M281.3,625V599.4m4.4,25.6V599.4m-64.6,99.8v25.5M189.8,680.4l-21.9,13.1m185,58.3V569.5" class="g0_28"/>
<path d="M559.7,625l24.9,14.8M528.5,673V653m31.2,-28l-24.8,14.8M497.3,625l24.8,14.8m-18.4,55.5l18.2,-10.9m-31,10.9L472.6,684.4M466,673V643.8M497.3,625L466,643.6m32.4,-10.9l18.2,10.9M472.1,673V648.6m31.6,39.6l18.2,-11M557.6,625V599.4m4.3,25.6V599.4" class="g1_28"/>
<path d="M497.3,704.6v20.1m-36.7,-40l-18.3,11" class="g2_28"/>
<path d="M352.9,781V751.8m0,58.4V781" class="g0_28"/>
<path d="M381.1,811.4c1.4,0,2.1,-2.8,3.5,-2.8c1,0,1.8,1.4,2.7,2.8c.9,1.4,1.8,2.7,2.8,2.7c.9,0,1.8,-1.3,2.7,-2.7c.9,-1.4,1.7,-2.8,2.7,-2.8c1,0,1.9,1.4,2.8,2.8c.9,1.4,1.7,2.7,2.7,2.7c1,0,1.9,-1.3,2.7,-2.7c.9,-1.4,1.8,-2.8,2.8,-2.8c1,0,1.8,1.4,2.7,2.8c.9,1.4,1.8,2.7,2.8,2.7c1,0,1.8,-1.3,2.7,-2.7c.9,-1.4,1.8,-2.8,2.7,-2.8c1,0,1.9,1.4,2.8,2.8c.9,1.4,1.7,2.7,2.7,2.7c1,0,1.9,-1.3,2.8,-2.7c.9,-1.4,1.7,-2.8,2.7,-2.8c1,0,1.9,1.4,2.7,2.8c.9,1.4,1.8,2.7,2.8,2.7c1,0,1.8,-1.3,2.7,-2.7c.9,-1.4,1.8,-2.8,2.8,-2.8c1.3,0,2,2.8,3.4,2.8h1" class="g3_28"/>
<path d="M543.5,808.8c1.3,0,2,-2.8,3.4,-2.8c1,0,1.8,1.4,2.7,2.8c.9,1.4,1.8,2.7,2.8,2.7c1,0,1.8,-1.3,2.7,-2.7c.9,-1.4,1.8,-2.8,2.8,-2.8c1,0,1.8,1.4,2.7,2.8c.9,1.4,1.7,2.7,2.7,2.7c1,0,1.9,-1.3,2.8,-2.7c.9,-1.4,1.7,-2.8,2.7,-2.8c1,0,1.9,1.4,2.8,2.8c.9,1.4,1.7,2.7,2.7,2.7c1,0,1.8,-1.3,2.7,-2.7c.9,-1.4,1.8,-2.8,2.8,-2.8c1,0,1.8,1.4,2.7,2.8c.9,1.4,1.8,2.7,2.8,2.7c1,0,1.8,-1.3,2.7,-2.7c.9,-1.4,1.7,-2.8,2.7,-2.8c1,0,1.9,1.4,2.8,2.8c.9,1.4,1.7,2.7,2.7,2.7c1,0,1.9,-1.3,2.8,-2.7c.9,-1.4,1.7,-2.8,2.7,-2.8c1,0,1.8,1.4,2.7,2.8c.9,1.4,1.8,2.7,2.8,2.7c1,0,1.8,-1.3,2.7,-2.7c.9,-1.4,1.8,-2.8,2.8,-2.8c.9,0,1.8,1.4,2.7,2.8c.9,1.4,1.7,2.7,2.7,2.7c1,0,1.9,-1.3,2.8,-2.7c.9,-1.4,1.7,-2.8,2.7,-2.8c1,0,1.9,1.4,2.8,2.8c.8,1.4,1.7,2.7,2.7,2.7c1,0,1.8,-1.3,2.7,-2.7c.9,-1.4,1.8,-2.8,2.8,-2.8c1,0,1.8,1.4,2.7,2.8c.9,1.4,1.8,2.7,2.8,2.7c.9,0,1.8,-1.3,2.7,-2.7c.9,-1.4,1.7,-2.8,2.7,-2.8c1,0,1.9,1.4,2.8,2.8c.9,1.4,1.7,2.7,2.7,2.7c1,0,1.9,-1.3,2.8,-2.7c.8,-1.4,1.7,-2.8,2.7,-2.8c1,0,1.8,1.4,2.7,2.8c.9,1.4,1.8,2.7,2.8,2.7c1,0,1.8,-1.3,2.7,-2.7c.9,-1.4,1.8,-2.8,2.8,-2.8c.9,0,1.8,1.4,2.7,2.8c.9,1.4,1.7,2.7,2.7,2.7c1,0,1.9,-1.3,2.8,-2.7c.9,-1.4,1.7,-2.8,2.7,-2.8c1,0,1.9,1.4,2.8,2.8c.8,1.4,1.7,2.7,2.7,2.7c1.4,0,2,-2.7,3.4,-2.7h4.8" class="g4_28"/>
<path d="M352.9,839.4V810.2m0,105.8V839.4" class="g0_28"/>
<path d="M430.5,908.2v-61c0,-2.8,2.4,-5.2,5.2,-5.2H692.6c2.8,0,5.2,2.4,5.2,5.2v61c0,2.8,-2.4,5.2,-5.2,5.2H435.7c-2.8,0,-5.2,-2.4,-5.2,-5.2Z" class="g5_28"/>
<path d="M512.1,938.9H616.2V922.4H512.1v16.5Z" class="g6_28"/>
<path d="M456.5,897.8H671.8V857.6H456.5v40.2Z" class="g6_28"/>
<path d="M352.9,945.2V916m-236,29.6H719.8" class="g0_28"/>
</svg>