<?xml version="1.0" encoding="UTF-8" standalone="no"?>
<!DOCTYPE svg PUBLIC "-//W3C//DTD SVG 1.1//EN"
"http://www.w3.org/Graphics/SVG/1.1/DTD/svg11.dtd">
<svg viewBox="0 0 909 1286" version="1.1" xmlns="http://www.w3.org/2000/svg" xmlns:xlink="http://www.w3.org/1999/xlink">
<defs>
<clipPath id="c0_148"><path d="M119.5,288.6V255.1H446.9v33.5Z"/></clipPath>
<clipPath id="c1_148"><path d="M462.5,288.6V255.1H789.9v33.5Z"/></clipPath>
<style type="text/css"><![CDATA[
.g0_148{
fill: none;
stroke: #000000;
stroke-width: 0.73;
stroke-linecap: butt;
stroke-linejoin: miter;
}
.g1_148{
fill: #7F7F7F;
fill-opacity: 0.01;
}
.g2_148{
fill: #7F7F7F;
fill-opacity: 0.02;
}
.g3_148{
fill: #7F7F7F;
fill-opacity: 0.04;
}
.g4_148{
fill: #7F7F7F;
fill-opacity: 0.07;
}
.g5_148{
fill: #7F7F7F;
fill-opacity: 0.11;
}
.g6_148{
fill: #FFFFFF;
}
.g7_148{
fill: #7F7F7F;
}
.g8_148{
fill: #00AEEF;
}
.g9_148{
fill: #CBCEFB;
}
.ga_148{
fill: #EC008C;
}
]]></style>
</defs>
<path d="M116.9,159.9H792.5" class="g0_148"/>
<path d="M122.2,257.8c107.4,0,214.7,0,322,0V844.5c-107.3,-9.3,-214.6,-9.3,-322,0Z" class="g1_148"/>
<path d="M122.9,258.4c106.9,0,213.8,0,320.7,0V843.9c-106.9,-9.3,-213.8,-9.3,-320.7,0Z" class="g2_148"/>
<path d="M123.5,259.1c106.5,0,213,0,319.5,0V843.3c-106.5,-9.4,-213,-9.4,-319.5,0Z" class="g3_148"/>
<path d="M124.1,259.7c106.1,0,212.2,0,318.3,0v583c-106.1,-9.4,-212.2,-9.4,-318.3,0Z" class="g4_148"/>
<path d="M124.7,260.3c105.7,0,211.4,0,317,0V842c-105.6,-9.3,-211.3,-9.3,-317,0Z" class="g5_148"/>
<path d="M125.4,260.9c105.2,0,210.5,0,315.7,0V841.4c-105.2,-9.3,-210.5,-9.3,-315.7,0Z" class="g5_148"/>
<path d="M126,261.5c104.8,0,209.7,0,314.5,0V840.8c-104.8,-9.4,-209.7,-9.4,-314.5,0Z" class="g4_148"/>
<path d="M126.6,262.2c104.4,0,208.8,0,313.3,0v578c-104.5,-9.4,-208.9,-9.4,-313.3,0Z" class="g3_148"/>
<path d="M127.2,262.8c104,0,208,0,312,0V839.5c-104,-9.3,-208,-9.3,-312,0Z" class="g2_148"/>
<path d="M127.9,263.4c103.5,0,207.1,0,310.7,0V838.9c-103.6,-9.3,-207.2,-9.3,-310.7,0Z" class="g1_148"/>
<path d="M116.9,834.2V252.5H449.5V834.2Z" class="g6_148"/>
<path d="M119.5,831.6V291.2H446.9V831.6Z" class="g6_148"/>
<path d="M119.5,288.6V255.1H446.9v33.5Z" class="g7_148"/>
<g clip-path="url(#c0_148)">
<image x="119" y="254" width="329" height="34" xlink:href="shade/1.png"/>
</g>
<path d="M316.9,283.4h104V260.3h-104v23.1Z" class="g8_148"/>
<path d="M153,336.4H413.4M153.4,366V336.8" class="g0_148"/>
<path d="M153.8,366h89V336.8h-89V366Z" class="g9_148"/>
<path d="M243.1,366V336.8" class="g0_148"/>
<path d="M243.5,366h89V336.8h-89V366Z" class="g9_148"/>
<path d="M332.9,366V336.8" class="g0_148"/>
<path d="M333.3,366h79.4V336.8H333.3V366Z" class="g9_148"/>
<path d="M413.1,366V336.8M153,366.4H413.4M153.4,396V366.7M243.1,396V366.7M332.9,396V366.7M413.1,396V366.7M153,396.3H413.4m-260,29.6V396.7m89.7,29.2V396.7m89.8,29.2V396.7m80.2,29.2V396.7M153,426.3H413.4m-260,29.6V426.6m89.7,29.3V426.6m89.8,29.3V426.6m80.2,29.3V426.6M153,456.2H413.4m-260,29.6V456.6m89.7,29.2V456.6m89.8,29.2V456.6m80.2,29.2V456.6M153,486.2H413.4m-260,29.6V486.6m89.7,29.2V486.6m89.8,29.2V486.6m80.2,29.2V486.6M153,516.1H413.4m-260,29.6V516.5m89.7,29.2V516.5m89.8,29.2V516.5m80.2,29.2V516.5M153,546.1H413.4m-260,29.6V546.5m89.7,29.2V546.5m89.8,29.2V546.5m80.2,29.2V546.5M153,576H413.4m-260,29.6V576.4m89.7,29.2V576.4m89.8,29.2V576.4m80.2,29.2V576.4M153,606H413.4m-260,29.6V606.4m89.7,29.2V606.4m89.8,29.2V606.4m80.2,29.2V606.4M153,636H413.4m-260,29.5V636.3m89.7,29.2V636.3m89.8,29.2V636.3m80.2,29.2V636.3M153,665.9H413.4m-260,29.6V666.3m89.7,29.2V666.3m89.8,29.2V666.3m80.2,29.2V666.3M153,695.9H413.4m-260,29.6V696.2m89.7,29.3V696.2m89.8,29.3V696.2m80.2,29.3V696.2M153,725.8H413.4m-260,29.6V726.2m89.7,29.2V726.2m89.8,29.2V726.2m80.2,29.2V726.2M153,755.8H413.4m-260,29.6V756.1m89.7,29.3V756.1m89.8,29.3V756.1m80.2,29.3V756.1M153,785.7H413.4m-260,29.6V786.1m89.7,29.2V786.1m89.8,29.2V786.1m80.2,29.2V786.1M153,815.7H413.4" class="g0_148"/>
<path d="M465.2,257.8c107.4,0,214.7,0,322,0V472.3c-107.3,-9.4,-214.6,-9.4,-322,0Z" class="g1_148"/>
<path d="M465.8,258.4c107,0,213.9,0,320.8,0V471.7c-106.9,-9.4,-213.8,-9.4,-320.8,0Z" class="g2_148"/>
<path d="M466.5,259.1c106.5,0,213,0,319.5,0V471c-106.5,-9.3,-213,-9.3,-319.5,0Z" class="g3_148"/>
<path d="M467.1,259.7c106.1,0,212.2,0,318.2,0V470.4c-106,-9.3,-212.1,-9.3,-318.2,0Z" class="g4_148"/>
<path d="M467.7,260.3c105.7,0,211.3,0,317,0V469.8c-105.7,-9.4,-211.3,-9.4,-317,0Z" class="g5_148"/>
<path d="M468.3,260.9c105.3,0,210.5,0,315.8,0V469.2c-105.3,-9.4,-210.5,-9.4,-315.8,0Z" class="g5_148"/>
<path d="M469,261.6c104.8,0,209.6,0,314.5,0v207c-104.9,-9.4,-209.7,-9.4,-314.5,0Z" class="g4_148"/>
<path d="M469.6,262.2c104.4,0,208.8,0,313.2,0V467.9c-104.4,-9.3,-208.8,-9.3,-313.2,0Z" class="g3_148"/>
<path d="M470.2,262.8c104,0,208,0,312,0V467.3c-104,-9.3,-208,-9.3,-312,0Z" class="g2_148"/>
<path d="M470.8,263.4c103.6,0,207.2,0,310.8,0V466.7c-103.6,-9.4,-207.2,-9.4,-310.8,0Z" class="g1_148"/>
<path d="M459.9,462V252.5H792.5V462Z" class="g6_148"/>
<path d="M462.5,459.4V291.2H789.9V459.4Z" class="g6_148"/>
<path d="M462.5,288.6V255.1H789.9v33.5Z" class="g7_148"/>
<g clip-path="url(#c1_148)">
<image x="462" y="254" width="329" height="34" xlink:href="shade/2.png"/>
</g>
<path d="M675.7,283.4h88.2V260.3H675.7v23.1Z" class="ga_148"/>
<path d="M545.8,323.6H706.6M546.2,353.2V324" class="g0_148"/>
<path d="M546.5,353.2h69.9V324H546.5v29.2Z" class="g9_148"/>
<path d="M616.4,353.2h38.8V324H616.4v29.2Z" class="g9_148"/>
<path d="M655.2,353.2h50.7V324H655.2v29.2Z" class="g9_148"/>
<path d="M706.2,353.2V324M545.8,353.6H706.6M546.2,383.2V354m160,29.2V354M545.8,383.5H706.6M546.2,413.1V383.9m160,29.2V383.9M545.8,413.5H706.6M546.2,443.1V413.9m160,29.2V413.9M545.8,443.4H706.6" class="g0_148"/>
</svg>